<?xml version="1.0" encoding="utf-8" standalone="no"?>
<!DOCTYPE svg PUBLIC "-//W3C//DTD SVG 1.1//EN"
  "http://www.w3.org/Graphics/SVG/1.1/DTD/svg11.dtd">
<svg xmlns:xlink="http://www.w3.org/1999/xlink" width="648pt" height="504pt" viewBox="0 0 648 504" xmlns="http://www.w3.org/2000/svg" version="1.1">
 <metadata>
  <rdf:RDF xmlns:dc="http://purl.org/dc/elements/1.1/" xmlns:cc="http://creativecommons.org/ns#" xmlns:rdf="http://www.w3.org/1999/02/22-rdf-syntax-ns#">
   <cc:Work>
    <dc:type rdf:resource="http://purl.org/dc/dcmitype/StillImage"/>
    <dc:date>2025-07-31T05:18:29.977127</dc:date>
    <dc:format>image/svg+xml</dc:format>
    <dc:creator>
     <cc:Agent>
      <dc:title>Matplotlib v3.10.0, https://matplotlib.org/</dc:title>
     </cc:Agent>
    </dc:creator>
   </cc:Work>
  </rdf:RDF>
 </metadata>
 <defs>
  <style type="text/css">*{stroke-linejoin: round; stroke-linecap: butt}</style>
 </defs>
 <g id="figure_1">
  <g id="patch_1">
   <path d="M 0 504 
L 648 504 
L 648 0 
L 0 0 
z
" style="fill: #ffffff"/>
  </g>
  <g id="axes_1">
   <g id="patch_2">
    <path d="M 36.2 472.52 
L 623.801429 472.52 
L 623.801429 39.6 
L 36.2 39.6 
z
" style="fill: #eaeaf2"/>
   </g>
   <g id="matplotlib.axis_1">
    <g id="xtick_1">
     <g id="line2d_1">
      <path d="M 47.420906 472.52 
L 47.420906 39.6 
" clip-path="url(#p1932657428)" style="fill: none; stroke: #ffffff; stroke-width: 0.8; stroke-linecap: round"/>
     </g>
     <g id="text_1">
      <!-- 0 -->
      <g style="fill: #262626" transform="translate(42.967156 490.157813) scale(0.14 -0.14)">
       <defs>
        <path id="DejaVuSans-30" d="M 2034 4250 
Q 1547 4250 1301 3770 
Q 1056 3291 1056 2328 
Q 1056 1369 1301 889 
Q 1547 409 2034 409 
Q 2525 409 2770 889 
Q 3016 1369 3016 2328 
Q 3016 3291 2770 3770 
Q 2525 4250 2034 4250 
z
M 2034 4750 
Q 2819 4750 3233 4129 
Q 3647 3509 3647 2328 
Q 3647 1150 3233 529 
Q 2819 -91 2034 -91 
Q 1250 -91 836 529 
Q 422 1150 422 2328 
Q 422 3509 836 4129 
Q 1250 4750 2034 4750 
z
" transform="scale(0.015625)"/>
       </defs>
       <use xlink:href="#DejaVuSans-30"/>
      </g>
     </g>
    </g>
    <g id="xtick_2">
     <g id="line2d_2">
      <path d="M 608.466191 472.52 
L 608.466191 39.6 
" clip-path="url(#p1932657428)" style="fill: none; stroke: #ffffff; stroke-width: 0.8; stroke-linecap: round"/>
     </g>
     <g id="text_2">
      <!-- 600000 -->
      <g style="fill: #262626" transform="translate(581.743691 490.157813) scale(0.14 -0.14)">
       <defs>
        <path id="DejaVuSans-36" d="M 2113 2584 
Q 1688 2584 1439 2293 
Q 1191 2003 1191 1497 
Q 1191 994 1439 701 
Q 1688 409 2113 409 
Q 2538 409 2786 701 
Q 3034 994 3034 1497 
Q 3034 2003 2786 2293 
Q 2538 2584 2113 2584 
z
M 3366 4563 
L 3366 3988 
Q 3128 4100 2886 4159 
Q 2644 4219 2406 4219 
Q 1781 4219 1451 3797 
Q 1122 3375 1075 2522 
Q 1259 2794 1537 2939 
Q 1816 3084 2150 3084 
Q 2853 3084 3261 2657 
Q 3669 2231 3669 1497 
Q 3669 778 3244 343 
Q 2819 -91 2113 -91 
Q 1303 -91 875 529 
Q 447 1150 447 2328 
Q 447 3434 972 4092 
Q 1497 4750 2381 4750 
Q 2619 4750 2861 4703 
Q 3103 4656 3366 4563 
z
" transform="scale(0.015625)"/>
       </defs>
       <use xlink:href="#DejaVuSans-36"/>
       <use xlink:href="#DejaVuSans-30" transform="translate(63.623047 0)"/>
       <use xlink:href="#DejaVuSans-30" transform="translate(127.246094 0)"/>
       <use xlink:href="#DejaVuSans-30" transform="translate(190.869141 0)"/>
       <use xlink:href="#DejaVuSans-30" transform="translate(254.492188 0)"/>
       <use xlink:href="#DejaVuSans-30" transform="translate(318.115234 0)"/>
      </g>
     </g>
    </g>
   </g>
   <g id="matplotlib.axis_2">
    <g id="ytick_1">
     <g id="line2d_3">
      <path d="M 36.2 464.789286 
L 623.801429 464.789286 
" clip-path="url(#p1932657428)" style="fill: none; stroke: #ffffff; stroke-width: 0.8; stroke-linecap: round"/>
     </g>
    </g>
    <g id="ytick_2">
     <g id="line2d_4">
      <path d="M 36.2 416.472321 
L 623.801429 416.472321 
" clip-path="url(#p1932657428)" style="fill: none; stroke: #ffffff; stroke-width: 0.8; stroke-linecap: round"/>
     </g>
    </g>
    <g id="ytick_3">
     <g id="line2d_5">
      <path d="M 36.2 368.155357 
L 623.801429 368.155357 
" clip-path="url(#p1932657428)" style="fill: none; stroke: #ffffff; stroke-width: 0.8; stroke-linecap: round"/>
     </g>
    </g>
    <g id="ytick_4">
     <g id="line2d_6">
      <path d="M 36.2 319.838393 
L 623.801429 319.838393 
" clip-path="url(#p1932657428)" style="fill: none; stroke: #ffffff; stroke-width: 0.8; stroke-linecap: round"/>
     </g>
    </g>
    <g id="ytick_5">
     <g id="line2d_7">
      <path d="M 36.2 271.521429 
L 623.801429 271.521429 
" clip-path="url(#p1932657428)" style="fill: none; stroke: #ffffff; stroke-width: 0.8; stroke-linecap: round"/>
     </g>
    </g>
    <g id="ytick_6">
     <g id="line2d_8">
      <path d="M 36.2 223.204464 
L 623.801429 223.204464 
" clip-path="url(#p1932657428)" style="fill: none; stroke: #ffffff; stroke-width: 0.8; stroke-linecap: round"/>
     </g>
    </g>
    <g id="ytick_7">
     <g id="line2d_9">
      <path d="M 36.2 174.8875 
L 623.801429 174.8875 
" clip-path="url(#p1932657428)" style="fill: none; stroke: #ffffff; stroke-width: 0.8; stroke-linecap: round"/>
     </g>
    </g>
    <g id="ytick_8">
     <g id="line2d_10">
      <path d="M 36.2 126.570536 
L 623.801429 126.570536 
" clip-path="url(#p1932657428)" style="fill: none; stroke: #ffffff; stroke-width: 0.8; stroke-linecap: round"/>
     </g>
    </g>
    <g id="ytick_9">
     <g id="line2d_11">
      <path d="M 36.2 78.253571 
L 623.801429 78.253571 
" clip-path="url(#p1932657428)" style="fill: none; stroke: #ffffff; stroke-width: 0.8; stroke-linecap: round"/>
     </g>
    </g>
    <g id="text_3">
     <!-- Normalized Axis -->
     <g style="fill: #262626" transform="translate(21.8725 320.56875) rotate(-90) scale(0.16 -0.16)">
      <defs>
       <path id="DejaVuSans-4e" d="M 628 4666 
L 1478 4666 
L 3547 763 
L 3547 4666 
L 4159 4666 
L 4159 0 
L 3309 0 
L 1241 3903 
L 1241 0 
L 628 0 
L 628 4666 
z
" transform="scale(0.015625)"/>
       <path id="DejaVuSans-6f" d="M 1959 3097 
Q 1497 3097 1228 2736 
Q 959 2375 959 1747 
Q 959 1119 1226 758 
Q 1494 397 1959 397 
Q 2419 397 2687 759 
Q 2956 1122 2956 1747 
Q 2956 2369 2687 2733 
Q 2419 3097 1959 3097 
z
M 1959 3584 
Q 2709 3584 3137 3096 
Q 3566 2609 3566 1747 
Q 3566 888 3137 398 
Q 2709 -91 1959 -91 
Q 1206 -91 779 398 
Q 353 888 353 1747 
Q 353 2609 779 3096 
Q 1206 3584 1959 3584 
z
" transform="scale(0.015625)"/>
       <path id="DejaVuSans-72" d="M 2631 2963 
Q 2534 3019 2420 3045 
Q 2306 3072 2169 3072 
Q 1681 3072 1420 2755 
Q 1159 2438 1159 1844 
L 1159 0 
L 581 0 
L 581 3500 
L 1159 3500 
L 1159 2956 
Q 1341 3275 1631 3429 
Q 1922 3584 2338 3584 
Q 2397 3584 2469 3576 
Q 2541 3569 2628 3553 
L 2631 2963 
z
" transform="scale(0.015625)"/>
       <path id="DejaVuSans-6d" d="M 3328 2828 
Q 3544 3216 3844 3400 
Q 4144 3584 4550 3584 
Q 5097 3584 5394 3201 
Q 5691 2819 5691 2113 
L 5691 0 
L 5113 0 
L 5113 2094 
Q 5113 2597 4934 2840 
Q 4756 3084 4391 3084 
Q 3944 3084 3684 2787 
Q 3425 2491 3425 1978 
L 3425 0 
L 2847 0 
L 2847 2094 
Q 2847 2600 2669 2842 
Q 2491 3084 2119 3084 
Q 1678 3084 1418 2786 
Q 1159 2488 1159 1978 
L 1159 0 
L 581 0 
L 581 3500 
L 1159 3500 
L 1159 2956 
Q 1356 3278 1631 3431 
Q 1906 3584 2284 3584 
Q 2666 3584 2933 3390 
Q 3200 3197 3328 2828 
z
" transform="scale(0.015625)"/>
       <path id="DejaVuSans-61" d="M 2194 1759 
Q 1497 1759 1228 1600 
Q 959 1441 959 1056 
Q 959 750 1161 570 
Q 1363 391 1709 391 
Q 2188 391 2477 730 
Q 2766 1069 2766 1631 
L 2766 1759 
L 2194 1759 
z
M 3341 1997 
L 3341 0 
L 2766 0 
L 2766 531 
Q 2569 213 2275 61 
Q 1981 -91 1556 -91 
Q 1019 -91 701 211 
Q 384 513 384 1019 
Q 384 1609 779 1909 
Q 1175 2209 1959 2209 
L 2766 2209 
L 2766 2266 
Q 2766 2663 2505 2880 
Q 2244 3097 1772 3097 
Q 1472 3097 1187 3025 
Q 903 2953 641 2809 
L 641 3341 
Q 956 3463 1253 3523 
Q 1550 3584 1831 3584 
Q 2591 3584 2966 3190 
Q 3341 2797 3341 1997 
z
" transform="scale(0.015625)"/>
       <path id="DejaVuSans-6c" d="M 603 4863 
L 1178 4863 
L 1178 0 
L 603 0 
L 603 4863 
z
" transform="scale(0.015625)"/>
       <path id="DejaVuSans-69" d="M 603 3500 
L 1178 3500 
L 1178 0 
L 603 0 
L 603 3500 
z
M 603 4863 
L 1178 4863 
L 1178 4134 
L 603 4134 
L 603 4863 
z
" transform="scale(0.015625)"/>
       <path id="DejaVuSans-7a" d="M 353 3500 
L 3084 3500 
L 3084 2975 
L 922 459 
L 3084 459 
L 3084 0 
L 275 0 
L 275 525 
L 2438 3041 
L 353 3041 
L 353 3500 
z
" transform="scale(0.015625)"/>
       <path id="DejaVuSans-65" d="M 3597 1894 
L 3597 1613 
L 953 1613 
Q 991 1019 1311 708 
Q 1631 397 2203 397 
Q 2534 397 2845 478 
Q 3156 559 3463 722 
L 3463 178 
Q 3153 47 2828 -22 
Q 2503 -91 2169 -91 
Q 1331 -91 842 396 
Q 353 884 353 1716 
Q 353 2575 817 3079 
Q 1281 3584 2069 3584 
Q 2775 3584 3186 3129 
Q 3597 2675 3597 1894 
z
M 3022 2063 
Q 3016 2534 2758 2815 
Q 2500 3097 2075 3097 
Q 1594 3097 1305 2825 
Q 1016 2553 972 2059 
L 3022 2063 
z
" transform="scale(0.015625)"/>
       <path id="DejaVuSans-64" d="M 2906 2969 
L 2906 4863 
L 3481 4863 
L 3481 0 
L 2906 0 
L 2906 525 
Q 2725 213 2448 61 
Q 2172 -91 1784 -91 
Q 1150 -91 751 415 
Q 353 922 353 1747 
Q 353 2572 751 3078 
Q 1150 3584 1784 3584 
Q 2172 3584 2448 3432 
Q 2725 3281 2906 2969 
z
M 947 1747 
Q 947 1113 1208 752 
Q 1469 391 1925 391 
Q 2381 391 2643 752 
Q 2906 1113 2906 1747 
Q 2906 2381 2643 2742 
Q 2381 3103 1925 3103 
Q 1469 3103 1208 2742 
Q 947 2381 947 1747 
z
" transform="scale(0.015625)"/>
       <path id="DejaVuSans-20" transform="scale(0.015625)"/>
       <path id="DejaVuSans-41" d="M 2188 4044 
L 1331 1722 
L 3047 1722 
L 2188 4044 
z
M 1831 4666 
L 2547 4666 
L 4325 0 
L 3669 0 
L 3244 1197 
L 1141 1197 
L 716 0 
L 50 0 
L 1831 4666 
z
" transform="scale(0.015625)"/>
       <path id="DejaVuSans-78" d="M 3513 3500 
L 2247 1797 
L 3578 0 
L 2900 0 
L 1881 1375 
L 863 0 
L 184 0 
L 1544 1831 
L 300 3500 
L 978 3500 
L 1906 2253 
L 2834 3500 
L 3513 3500 
z
" transform="scale(0.015625)"/>
       <path id="DejaVuSans-73" d="M 2834 3397 
L 2834 2853 
Q 2591 2978 2328 3040 
Q 2066 3103 1784 3103 
Q 1356 3103 1142 2972 
Q 928 2841 928 2578 
Q 928 2378 1081 2264 
Q 1234 2150 1697 2047 
L 1894 2003 
Q 2506 1872 2764 1633 
Q 3022 1394 3022 966 
Q 3022 478 2636 193 
Q 2250 -91 1575 -91 
Q 1294 -91 989 -36 
Q 684 19 347 128 
L 347 722 
Q 666 556 975 473 
Q 1284 391 1588 391 
Q 1994 391 2212 530 
Q 2431 669 2431 922 
Q 2431 1156 2273 1281 
Q 2116 1406 1581 1522 
L 1381 1569 
Q 847 1681 609 1914 
Q 372 2147 372 2553 
Q 372 3047 722 3315 
Q 1072 3584 1716 3584 
Q 2034 3584 2315 3537 
Q 2597 3491 2834 3397 
z
" transform="scale(0.015625)"/>
      </defs>
      <use xlink:href="#DejaVuSans-4e"/>
      <use xlink:href="#DejaVuSans-6f" transform="translate(74.804688 0)"/>
      <use xlink:href="#DejaVuSans-72" transform="translate(135.986328 0)"/>
      <use xlink:href="#DejaVuSans-6d" transform="translate(175.349609 0)"/>
      <use xlink:href="#DejaVuSans-61" transform="translate(272.761719 0)"/>
      <use xlink:href="#DejaVuSans-6c" transform="translate(334.041016 0)"/>
      <use xlink:href="#DejaVuSans-69" transform="translate(361.824219 0)"/>
      <use xlink:href="#DejaVuSans-7a" transform="translate(389.607422 0)"/>
      <use xlink:href="#DejaVuSans-65" transform="translate(442.097656 0)"/>
      <use xlink:href="#DejaVuSans-64" transform="translate(503.621094 0)"/>
      <use xlink:href="#DejaVuSans-20" transform="translate(567.097656 0)"/>
      <use xlink:href="#DejaVuSans-41" transform="translate(598.884766 0)"/>
      <use xlink:href="#DejaVuSans-78" transform="translate(667.292969 0)"/>
      <use xlink:href="#DejaVuSans-69" transform="translate(726.472656 0)"/>
      <use xlink:href="#DejaVuSans-73" transform="translate(754.255859 0)"/>
     </g>
    </g>
   </g>
   <g id="FillBetweenPolyCollection_1">
    <path d="M 47.420906 -23.669884 
L 47.420906 236.189206 
L 49.33594 243.259359 
L 51.250975 257.385803 
L 53.166009 276.919114 
L 55.081044 298.675768 
L 56.996079 320.183143 
L 58.911113 340.920205 
L 60.826148 361.239333 
L 62.741182 380.925807 
L 64.656217 399.088502 
L 66.571251 414.989522 
L 68.486286 428.671973 
L 70.401321 440.835254 
L 72.316355 452.262029 
L 74.23139 463.426708 
L 76.146424 474.409019 
L 78.061459 484.888049 
L 79.976493 494.284896 
L 81.891528 502.110531 
L 83.806563 508.226954 
L 85.721597 512.826185 
L 87.636632 516.194175 
L 89.551666 518.216043 
L 91.466701 517.854382 
L 93.381735 513.50599 
L 95.29677 504.618749 
L 97.211805 493.009754 
L 99.126839 482.011204 
L 101.041874 474.171427 
L 102.956908 470.010904 
L 104.871943 468.635472 
L 106.786978 468.864265 
L 108.702012 469.800516 
L 110.617047 470.916482 
L 112.532081 471.952432 
L 114.447116 472.763141 
L 116.36215 473.24269 
L 118.277185 473.369985 
L 120.19222 473.243985 
L 122.107254 473.043277 
L 124.022289 472.95628 
L 125.937323 473.136512 
L 127.852358 473.68621 
L 129.767392 474.643806 
L 131.682427 475.938637 
L 133.597462 477.34522 
L 135.512496 478.534821 
L 137.427531 479.2097 
L 139.342565 479.184949 
L 141.2576 478.390999 
L 143.172634 476.911922 
L 145.087669 475.069013 
L 147.002704 473.368499 
L 148.917738 472.233335 
L 150.832773 471.743334 
L 152.747807 471.65803 
L 154.662842 471.692321 
L 156.577876 471.756659 
L 158.492911 471.945691 
L 160.407946 472.34696 
L 162.32298 472.90241 
L 164.238015 473.436915 
L 166.153049 473.772185 
L 168.068084 473.810363 
L 169.983118 473.55339 
L 171.898153 473.073156 
L 173.813188 472.462299 
L 175.728222 471.799485 
L 177.643257 471.145152 
L 179.558291 470.551873 
L 181.473326 470.064164 
L 183.388361 469.698732 
L 185.303395 469.425555 
L 187.21843 469.188163 
L 189.133464 468.959091 
L 191.048499 468.76573 
L 192.963533 468.651303 
L 194.878568 468.619837 
L 196.793603 468.627149 
L 198.708637 468.621875 
L 200.623672 468.58945 
L 202.538706 468.557936 
L 204.453741 468.563666 
L 206.368775 468.601905 
L 208.28381 468.601062 
L 210.198845 468.459181 
L 212.113879 468.147737 
L 214.028914 467.79567 
L 215.943948 467.621121 
L 217.858983 467.730019 
L 219.774017 468.013382 
L 221.689052 468.288753 
L 223.604087 468.497412 
L 225.519121 468.70451 
L 227.434156 468.951184 
L 229.34919 469.183457 
L 231.264225 469.324468 
L 233.179259 469.366244 
L 235.094294 469.366472 
L 237.009329 469.376516 
L 238.924363 469.406552 
L 240.839398 469.453809 
L 242.754432 469.512297 
L 244.669467 469.529514 
L 246.584501 469.405049 
L 248.499536 469.09894 
L 250.414571 468.748681 
L 252.329605 468.626978 
L 254.24464 468.933888 
L 256.159674 469.623495 
L 258.074709 470.440704 
L 259.989743 471.107879 
L 261.904778 471.470797 
L 263.819813 471.520227 
L 265.734847 471.341661 
L 267.649882 471.046552 
L 269.564916 470.703231 
L 271.479951 470.301243 
L 273.394986 469.784515 
L 275.31002 469.141185 
L 277.225055 468.478993 
L 279.140089 467.974302 
L 281.055124 467.697507 
L 282.970158 467.515601 
L 284.885193 467.226635 
L 286.800228 466.768702 
L 288.715262 466.245282 
L 290.630297 465.772038 
L 292.545331 465.368654 
L 294.460366 465.008686 
L 296.3754 464.715262 
L 298.290435 464.561726 
L 300.20547 464.588688 
L 302.120504 464.742695 
L 304.035539 464.89964 
L 305.950573 464.950723 
L 307.865608 464.869993 
L 309.780642 464.693041 
L 311.695677 464.43636 
L 313.610712 464.053072 
L 315.525746 463.484077 
L 317.440781 462.772914 
L 319.355815 462.14623 
L 321.27085 461.945063 
L 323.185884 462.398493 
L 325.100919 463.419242 
L 327.015954 464.635069 
L 328.930988 465.641915 
L 330.846023 466.239363 
L 332.761057 466.447454 
L 334.676092 466.344397 
L 336.591126 465.943222 
L 338.506161 465.241952 
L 340.421196 464.315926 
L 342.33623 463.270596 
L 344.251265 462.122503 
L 346.166299 460.814082 
L 348.081334 459.368831 
L 349.996368 457.987558 
L 351.911403 456.957626 
L 353.826438 456.460016 
L 355.741472 456.469741 
L 357.656507 456.848274 
L 359.571541 457.480685 
L 361.486576 458.268676 
L 363.401611 459.044791 
L 365.316645 459.60736 
L 367.23168 459.851067 
L 369.146714 459.811162 
L 371.061749 459.591894 
L 372.976783 459.318314 
L 374.891818 459.156712 
L 376.806853 459.294904 
L 378.721887 459.811232 
L 380.636922 460.558452 
L 382.551956 461.24826 
L 384.466991 461.694127 
L 386.382025 461.947872 
L 388.29706 462.192389 
L 390.212095 462.537669 
L 392.127129 462.939718 
L 394.042164 463.296478 
L 395.957198 463.586467 
L 397.872233 463.885788 
L 399.787267 464.268186 
L 401.702302 464.726199 
L 403.617337 465.185645 
L 405.532371 465.56408 
L 407.447406 465.81813 
L 409.36244 465.970166 
L 411.277475 466.099168 
L 413.192509 466.281831 
L 415.107544 466.52525 
L 417.022579 466.759428 
L 418.937613 466.907089 
L 420.852648 466.960903 
L 422.767682 466.981899 
L 424.682717 467.028223 
L 426.597751 467.101091 
L 428.512786 467.150813 
L 430.427821 467.124846 
L 432.342855 467.026458 
L 434.25789 466.933576 
L 436.172924 466.935481 
L 438.087959 467.035178 
L 440.002993 467.139148 
L 441.918028 467.164668 
L 443.833063 467.133429 
L 445.748097 467.130867 
L 447.663132 467.200937 
L 449.578166 467.322017 
L 451.493201 467.458444 
L 453.408236 467.581429 
L 455.32327 467.654659 
L 457.238305 467.653517 
L 459.153339 467.598507 
L 461.068374 467.530823 
L 462.983408 467.448644 
L 464.898443 467.302277 
L 466.813478 467.070755 
L 468.728512 466.825894 
L 470.643547 466.695693 
L 472.558581 466.759402 
L 474.473616 466.986818 
L 476.38865 467.275924 
L 478.303685 467.524637 
L 480.21872 467.662545 
L 482.133754 467.654815 
L 484.048789 467.512552 
L 485.963823 467.29489 
L 487.878858 467.081279 
L 489.793892 466.929919 
L 491.708927 466.842989 
L 493.623962 466.761573 
L 495.538996 466.615519 
L 497.454031 466.396257 
L 499.369065 466.172917 
L 501.2841 466.035244 
L 503.199134 466.023266 
L 505.114169 466.096706 
L 507.029204 466.162429 
L 508.944238 466.144616 
L 510.859273 466.046221 
L 512.774307 465.950522 
L 514.689342 465.954491 
L 516.604376 466.082767 
L 518.519411 466.265075 
L 520.434446 466.410448 
L 522.34948 466.498124 
L 524.264515 466.583763 
L 526.179549 466.721458 
L 528.094584 466.891324 
L 530.009618 467.011527 
L 531.924653 467.02024 
L 533.839688 466.922935 
L 535.754722 466.739606 
L 537.669757 466.433615 
L 539.584791 465.947422 
L 541.499826 465.317391 
L 543.414861 464.711686 
L 545.329895 464.322151 
L 547.24493 464.224162 
L 549.159964 464.354074 
L 551.074999 464.602406 
L 552.990033 464.894663 
L 554.905068 465.183254 
L 556.820103 465.405509 
L 558.735137 465.503301 
L 560.650172 465.499645 
L 562.565206 465.524254 
L 564.480241 465.72259 
L 566.395275 466.128924 
L 568.31031 466.639826 
L 570.225345 467.104114 
L 572.140379 467.415269 
L 574.055414 467.536727 
L 575.970448 467.496946 
L 577.885483 467.37971 
L 579.800517 467.278234 
L 581.715552 467.22825 
L 583.630587 467.19978 
L 585.545621 467.164765 
L 587.460656 467.155768 
L 589.37569 467.249573 
L 591.290725 467.498504 
L 593.205759 467.875453 
L 595.120794 468.27774 
L 597.035829 468.581726 
L 598.950863 468.703439 
L 600.865898 468.632591 
L 602.780932 468.427154 
L 604.695967 468.168585 
L 606.611001 467.902408 
L 608.526036 467.613142 
L 610.441071 467.262286 
L 612.356105 466.853973 
L 614.27114 466.453796 
L 616.186174 466.139102 
L 618.101209 465.944093 
L 620.016243 465.857152 
L 620.016243 446.51587 
L 620.016243 446.51587 
L 618.101209 446.299302 
L 616.186174 445.944389 
L 614.27114 445.599219 
L 612.356105 445.412896 
L 610.441071 445.432875 
L 608.526036 445.563713 
L 606.611001 445.614568 
L 604.695967 445.409466 
L 602.780932 444.92171 
L 600.865898 444.338063 
L 598.950863 443.941185 
L 597.035829 443.879017 
L 595.120794 444.078227 
L 593.205759 444.390066 
L 591.290725 444.735175 
L 589.37569 445.074686 
L 587.460656 445.339862 
L 585.545621 445.451976 
L 583.630587 445.38571 
L 581.715552 445.200485 
L 579.800517 445.025641 
L 577.885483 444.976515 
L 575.970448 445.034028 
L 574.055414 445.056975 
L 572.140379 444.980847 
L 570.225345 444.9402 
L 568.31031 445.089952 
L 566.395275 445.358596 
L 564.480241 445.503508 
L 562.565206 445.401958 
L 560.650172 445.189006 
L 558.735137 445.095336 
L 556.820103 445.218391 
L 554.905068 445.46351 
L 552.990033 445.654771 
L 551.074999 445.684469 
L 549.159964 445.587905 
L 547.24493 445.484118 
L 545.329895 445.450281 
L 543.414861 445.4721 
L 541.499826 445.508264 
L 539.584791 445.561428 
L 537.669757 445.665662 
L 535.754722 445.826184 
L 533.839688 445.995736 
L 531.924653 446.113366 
L 530.009618 446.154839 
L 528.094584 446.142811 
L 526.179549 446.126188 
L 524.264515 446.157234 
L 522.34948 446.263909 
L 520.434446 446.419588 
L 518.519411 446.546645 
L 516.604376 446.573068 
L 514.689342 446.501195 
L 512.774307 446.425938 
L 510.859273 446.478075 
L 508.944238 446.734731 
L 507.029204 447.168828 
L 505.114169 447.675163 
L 503.199134 448.148922 
L 501.2841 448.547886 
L 499.369065 448.876303 
L 497.454031 449.111279 
L 495.538996 449.174712 
L 493.623962 449.010954 
L 491.708927 448.685988 
L 489.793892 448.370464 
L 487.878858 448.205894 
L 485.963823 448.197673 
L 484.048789 448.237179 
L 482.133754 448.21067 
L 480.21872 448.084163 
L 478.303685 447.909757 
L 476.38865 447.775846 
L 474.473616 447.743419 
L 472.558581 447.796648 
L 470.643547 447.844589 
L 468.728512 447.792534 
L 466.813478 447.62283 
L 464.898443 447.395824 
L 462.983408 447.183161 
L 461.068374 447.022869 
L 459.153339 446.926869 
L 457.238305 446.885689 
L 455.32327 446.850039 
L 453.408236 446.739003 
L 451.493201 446.512358 
L 449.578166 446.237024 
L 447.663132 446.038316 
L 445.748097 445.959458 
L 443.833063 445.903147 
L 441.918028 445.761497 
L 440.002993 445.593092 
L 438.087959 445.597328 
L 436.172924 445.877378 
L 434.25789 446.282866 
L 432.342855 446.542529 
L 430.427821 446.525638 
L 428.512786 446.331102 
L 426.597751 446.143251 
L 424.682717 446.053156 
L 422.767682 446.009283 
L 420.852648 445.89225 
L 418.937613 445.627612 
L 417.022579 445.26022 
L 415.107544 444.934991 
L 413.192509 444.800663 
L 411.277475 444.917692 
L 409.36244 445.224257 
L 407.447406 445.563436 
L 405.532371 445.755224 
L 403.617337 445.686847 
L 401.702302 445.380241 
L 399.787267 444.989057 
L 397.872233 444.708982 
L 395.957198 444.649689 
L 394.042164 444.760573 
L 392.127129 444.883233 
L 390.212095 444.898806 
L 388.29706 444.824901 
L 386.382025 444.751618 
L 384.466991 444.70284 
L 382.551956 444.6128 
L 380.636922 444.443848 
L 378.721887 444.259596 
L 376.806853 444.145492 
L 374.891818 444.101211 
L 372.976783 444.061822 
L 371.061749 444.011764 
L 369.146714 444.029869 
L 367.23168 444.192089 
L 365.316645 444.440243 
L 363.401611 444.585695 
L 361.486576 444.466527 
L 359.571541 444.071912 
L 357.656507 443.477389 
L 355.741472 442.699245 
L 353.826438 441.710873 
L 351.911403 440.613318 
L 349.996368 439.682558 
L 348.081334 439.177807 
L 346.166299 439.157401 
L 344.251265 439.507716 
L 342.33623 440.036813 
L 340.421196 440.456668 
L 338.506161 440.404165 
L 336.591126 439.673128 
L 334.676092 438.44021 
L 332.761057 437.15893 
L 330.846023 436.216444 
L 328.930988 435.737599 
L 327.015954 435.668977 
L 325.100919 435.918265 
L 323.185884 436.350959 
L 321.27085 436.719609 
L 319.355815 436.73986 
L 317.440781 436.310777 
L 315.525746 435.599733 
L 313.610712 434.863789 
L 311.695677 434.248365 
L 309.780642 433.760509 
L 307.865608 433.31049 
L 305.950573 432.727971 
L 304.035539 431.835735 
L 302.120504 430.597185 
L 300.20547 429.202447 
L 298.290435 427.997998 
L 296.3754 427.303222 
L 294.460366 427.218221 
L 292.545331 427.556616 
L 290.630297 427.976635 
L 288.715262 428.191656 
L 286.800228 428.061489 
L 284.885193 427.567919 
L 282.970158 426.811717 
L 281.055124 426.027075 
L 279.140089 425.48738 
L 277.225055 425.32363 
L 275.31002 425.452701 
L 273.394986 425.697702 
L 271.479951 425.943195 
L 269.564916 426.169439 
L 267.649882 426.385766 
L 265.734847 426.562614 
L 263.819813 426.624171 
L 261.904778 426.504045 
L 259.989743 426.204122 
L 258.074709 425.797852 
L 256.159674 425.394742 
L 254.24464 425.112595 
L 252.329605 425.052217 
L 250.414571 425.255983 
L 248.499536 425.675031 
L 246.584501 426.182765 
L 244.669467 426.626351 
L 242.754432 426.888814 
L 240.839398 426.944005 
L 238.924363 426.868744 
L 237.009329 426.77205 
L 235.094294 426.692837 
L 233.179259 426.58361 
L 231.264225 426.391046 
L 229.34919 426.121084 
L 227.434156 425.832921 
L 225.519121 425.65782 
L 223.604087 425.91434 
L 221.689052 427.167476 
L 219.774017 429.973947 
L 217.858983 434.365083 
L 215.943948 439.575393 
L 214.028914 444.417426 
L 212.113879 447.993616 
L 210.198845 450.079945 
L 208.28381 450.977724 
L 206.368775 451.166213 
L 204.453741 451.063951 
L 202.538706 450.925651 
L 200.623672 450.83034 
L 198.708637 450.767388 
L 196.793603 450.748797 
L 194.878568 450.817598 
L 192.963533 450.960756 
L 191.048499 451.069386 
L 189.133464 451.017179 
L 187.21843 450.783257 
L 185.303395 450.509945 
L 183.388361 450.423253 
L 181.473326 450.651672 
L 179.558291 451.129 
L 177.643257 451.692634 
L 175.728222 452.221028 
L 173.813188 452.645401 
L 171.898153 452.92134 
L 169.983118 453.074028 
L 168.068084 453.222678 
L 166.153049 453.465639 
L 164.238015 453.744423 
L 162.32298 453.881133 
L 160.407946 453.731828 
L 158.492911 453.233731 
L 156.577876 452.2858 
L 154.662842 450.611878 
L 152.747807 447.745299 
L 150.832773 443.165775 
L 148.917738 436.558201 
L 147.002704 428.131484 
L 145.087669 418.8459 
L 143.172634 410.267787 
L 141.2576 403.883252 
L 139.342565 400.250243 
L 137.427531 398.73771 
L 135.512496 398.105879 
L 133.597462 397.383773 
L 131.682427 396.409409 
L 129.767392 395.853489 
L 127.852358 396.799827 
L 125.937323 399.999308 
L 124.022289 405.192937 
L 122.107254 411.131889 
L 120.19222 416.392048 
L 118.277185 420.227828 
L 116.36215 422.713943 
L 114.447116 424.270979 
L 112.532081 425.238907 
L 110.617047 425.87508 
L 108.702012 426.489095 
L 106.786978 427.049707 
L 104.871943 426.069591 
L 102.956908 419.408086 
L 101.041874 400.349587 
L 99.126839 362.417946 
L 97.211805 304.65289 
L 95.29677 235.301011 
L 93.381735 168.944039 
L 91.466701 118.137359 
L 89.551666 86.996003 
L 87.636632 71.799021 
L 85.721597 66.162124 
L 83.806563 65.283131 
L 81.891528 66.664858 
L 79.976493 68.642112 
L 78.061459 69.365755 
L 76.146424 67.448746 
L 74.23139 63.324631 
L 72.316355 59.492367 
L 70.401321 59.030604 
L 68.486286 63.55903 
L 66.571251 72.251901 
L 64.656217 82.365979 
L 62.741182 90.598892 
L 60.826148 94.428274 
L 58.911113 92.626081 
L 56.996079 84.603657 
L 55.081044 69.588937 
L 53.166009 47.206648 
L 51.250975 19.588143 
L 49.33594 -7.007338 
L 47.420906 -23.669884 
z
" clip-path="url(#p1932657428)" style="fill: #00b899; fill-opacity: 0.1"/>
   </g>
   <g id="FillBetweenPolyCollection_2">
    <path d="M 47.420906 74.282301 
L 47.420906 94.252285 
L 49.33594 97.367844 
L 51.250975 103.021239 
L 53.166009 110.252739 
L 55.081044 118.081 
L 56.996079 125.919866 
L 58.911113 133.82086 
L 60.826148 142.309004 
L 62.741182 151.873376 
L 64.656217 162.524032 
L 66.571251 173.781262 
L 68.486286 185.022876 
L 70.401321 195.816277 
L 72.316355 206.031513 
L 74.23139 215.842351 
L 76.146424 225.735249 
L 78.061459 236.396177 
L 79.976493 248.300595 
L 81.891528 261.190438 
L 83.806563 273.988022 
L 85.721597 285.431883 
L 87.636632 294.946908 
L 89.551666 302.914992 
L 91.466701 310.138332 
L 93.381735 317.142131 
L 95.29677 323.979488 
L 97.211805 330.506285 
L 99.126839 336.677832 
L 101.041874 342.596342 
L 102.956908 348.380946 
L 104.871943 354.064146 
L 106.786978 359.577485 
L 108.702012 364.756919 
L 110.617047 369.406122 
L 112.532081 373.484687 
L 114.447116 377.23276 
L 116.36215 381.011173 
L 118.277185 385.033819 
L 120.19222 389.327472 
L 122.107254 393.889747 
L 124.022289 398.756426 
L 125.937323 403.886193 
L 127.852358 409.050055 
L 129.767392 413.895729 
L 131.682427 418.134428 
L 133.597462 421.664005 
L 135.512496 424.540526 
L 137.427531 426.891278 
L 139.342565 428.878852 
L 141.2576 430.700862 
L 143.172634 432.563382 
L 145.087669 434.609676 
L 147.002704 436.834249 
L 148.917738 439.053263 
L 150.832773 441.001452 
L 152.747807 442.514855 
L 154.662842 443.638965 
L 156.577876 444.552203 
L 158.492911 445.397705 
L 160.407946 446.210248 
L 162.32298 446.982847 
L 164.238015 447.739855 
L 166.153049 448.525896 
L 168.068084 449.374154 
L 169.983118 450.308795 
L 171.898153 451.333968 
L 173.813188 452.397679 
L 175.728222 453.410886 
L 177.643257 454.333881 
L 179.558291 455.222118 
L 181.473326 456.169142 
L 183.388361 457.211145 
L 185.303395 458.287834 
L 187.21843 459.289502 
L 189.133464 460.149024 
L 191.048499 460.890231 
L 192.963533 461.573769 
L 194.878568 462.211827 
L 196.793603 462.772516 
L 198.708637 463.251667 
L 200.623672 463.689812 
L 202.538706 464.121385 
L 204.453741 464.55079 
L 206.368775 464.971163 
L 208.28381 465.351648 
L 210.198845 465.598335 
L 212.113879 465.590311 
L 214.028914 465.301732 
L 215.943948 464.8712 
L 217.858983 464.523518 
L 219.774017 464.428861 
L 221.689052 464.626395 
L 223.604087 465.031104 
L 225.519121 465.487531 
L 227.434156 465.855531 
L 229.34919 466.09599 
L 231.264225 466.285658 
L 233.179259 466.533426 
L 235.094294 466.872081 
L 237.009329 467.233625 
L 238.924363 467.527426 
L 240.839398 467.728272 
L 242.754432 467.884423 
L 244.669467 468.063011 
L 246.584501 468.302988 
L 248.499536 468.606939 
L 250.414571 468.960151 
L 252.329605 469.349133 
L 254.24464 469.756341 
L 256.159674 470.148093 
L 258.074709 470.487887 
L 259.989743 470.762202 
L 261.904778 470.98331 
L 263.819813 471.173956 
L 265.734847 471.35494 
L 267.649882 471.539008 
L 269.564916 471.734903 
L 271.479951 471.96212 
L 273.394986 472.246385 
L 275.31002 472.586257 
L 277.225055 472.934275 
L 279.140089 473.23098 
L 281.055124 473.462341 
L 282.970158 473.675627 
L 284.885193 473.927578 
L 286.800228 474.217256 
L 288.715262 474.486099 
L 290.630297 474.692505 
L 292.545331 474.861449 
L 294.460366 475.037945 
L 296.3754 475.218761 
L 298.290435 475.368684 
L 300.20547 475.487303 
L 302.120504 475.62238 
L 304.035539 475.821676 
L 305.950573 476.094241 
L 307.865608 476.408226 
L 309.780642 476.707403 
L 311.695677 476.936834 
L 313.610712 477.067602 
L 315.525746 477.099678 
L 317.440781 477.049022 
L 319.355815 476.943607 
L 321.27085 476.827663 
L 323.185884 476.754162 
L 325.100919 476.755048 
L 327.015954 476.805659 
L 328.930988 476.82836 
L 330.846023 476.755591 
L 332.761057 476.595007 
L 334.676092 476.419711 
L 336.591126 476.300622 
L 338.506161 476.261721 
L 340.421196 476.285666 
L 342.33623 476.333265 
L 344.251265 476.349722 
L 346.166299 476.267655 
L 348.081334 476.031948 
L 349.996368 475.646983 
L 351.911403 475.196545 
L 353.826438 474.799486 
L 355.741472 474.534582 
L 357.656507 474.40222 
L 359.571541 474.350191 
L 361.486576 474.330753 
L 363.401611 474.327568 
L 365.316645 474.336576 
L 367.23168 474.346519 
L 369.146714 474.350009 
L 371.061749 474.359291 
L 372.976783 474.391815 
L 374.891818 474.440576 
L 376.806853 474.478273 
L 378.721887 474.505914 
L 380.636922 474.583541 
L 382.551956 474.777849 
L 384.466991 475.06753 
L 386.382025 475.32654 
L 388.29706 475.430593 
L 390.212095 475.378245 
L 392.127129 475.294583 
L 394.042164 475.321583 
L 395.957198 475.5165 
L 397.872233 475.842485 
L 399.787267 476.228016 
L 401.702302 476.617328 
L 403.617337 476.978936 
L 405.532371 477.298572 
L 407.447406 477.57486 
L 409.36244 477.802597 
L 411.277475 477.954232 
L 413.192509 478.000636 
L 415.107544 477.961433 
L 417.022579 477.920061 
L 418.937613 477.974985 
L 420.852648 478.164272 
L 422.767682 478.432978 
L 424.682717 478.687286 
L 426.597751 478.887674 
L 428.512786 479.071312 
L 430.427821 479.278946 
L 432.342855 479.495174 
L 434.25789 479.685525 
L 436.172924 479.865733 
L 438.087959 480.106234 
L 440.002993 480.468027 
L 441.918028 480.926148 
L 443.833063 481.346805 
L 445.748097 481.567903 
L 447.663132 481.536359 
L 449.578166 481.361555 
L 451.493201 481.220214 
L 453.408236 481.225575 
L 455.32327 481.38329 
L 457.238305 481.618157 
L 459.153339 481.817846 
L 461.068374 481.898167 
L 462.983408 481.87097 
L 464.898443 481.839765 
L 466.813478 481.905012 
L 468.728512 482.068825 
L 470.643547 482.240689 
L 472.558581 482.337409 
L 474.473616 482.370372 
L 476.38865 482.429433 
L 478.303685 482.584177 
L 480.21872 482.806861 
L 482.133754 482.9946 
L 484.048789 483.066107 
L 485.963823 483.030394 
L 487.878858 482.955921 
L 489.793892 482.885416 
L 491.708927 482.809859 
L 493.623962 482.723297 
L 495.538996 482.654943 
L 497.454031 482.623361 
L 499.369065 482.602454 
L 501.2841 482.571253 
L 503.199134 482.567754 
L 505.114169 482.653778 
L 507.029204 482.839687 
L 508.944238 483.074199 
L 510.859273 483.295314 
L 512.774307 483.45996 
L 514.689342 483.539158 
L 516.604376 483.530705 
L 518.519411 483.479886 
L 520.434446 483.451018 
L 522.34948 483.468746 
L 524.264515 483.507401 
L 526.179549 483.541377 
L 528.094584 483.587775 
L 530.009618 483.686596 
L 531.924653 483.838064 
L 533.839688 483.969004 
L 535.754722 483.980514 
L 537.669757 483.843797 
L 539.584791 483.644144 
L 541.499826 483.515861 
L 543.414861 483.531127 
L 545.329895 483.656647 
L 547.24493 483.799363 
L 549.159964 483.873575 
L 551.074999 483.844152 
L 552.990033 483.738891 
L 554.905068 483.618897 
L 556.820103 483.522985 
L 558.735137 483.441678 
L 560.650172 483.344396 
L 562.565206 483.216 
L 564.480241 483.056248 
L 566.395275 482.857131 
L 568.31031 482.612315 
L 570.225345 482.364236 
L 572.140379 482.216279 
L 574.055414 482.258355 
L 575.970448 482.47365 
L 577.885483 482.736872 
L 579.800517 482.91418 
L 581.715552 482.961265 
L 583.630587 482.937706 
L 585.545621 482.947934 
L 587.460656 483.060175 
L 589.37569 483.253694 
L 591.290725 483.437381 
L 593.205759 483.527737 
L 595.120794 483.508423 
L 597.035829 483.419792 
L 598.950863 483.313342 
L 600.865898 483.221023 
L 602.780932 483.146588 
L 604.695967 483.080796 
L 606.611001 483.040552 
L 608.526036 483.084355 
L 610.441071 483.26224 
L 612.356105 483.550418 
L 614.27114 483.858788 
L 616.186174 484.105573 
L 618.101209 484.264219 
L 620.016243 484.340886 
L 620.016243 441.43316 
L 620.016243 441.43316 
L 618.101209 441.599021 
L 616.186174 441.787622 
L 614.27114 441.874693 
L 612.356105 441.860837 
L 610.441071 441.822364 
L 608.526036 441.824869 
L 606.611001 441.905147 
L 604.695967 442.0855 
L 602.780932 442.365951 
L 600.865898 442.721896 
L 598.950863 443.125922 
L 597.035829 443.545854 
L 595.120794 443.9153 
L 593.205759 444.154646 
L 591.290725 444.235775 
L 589.37569 444.184892 
L 587.460656 444.0158 
L 585.545621 443.719527 
L 583.630587 443.344537 
L 581.715552 443.03416 
L 579.800517 442.942069 
L 577.885483 443.107153 
L 575.970448 443.40192 
L 574.055414 443.604658 
L 572.140379 443.56051 
L 570.225345 443.293274 
L 568.31031 442.944787 
L 566.395275 442.614939 
L 564.480241 442.287568 
L 562.565206 441.905973 
L 560.650172 441.469763 
L 558.735137 441.028502 
L 556.820103 440.600946 
L 554.905068 440.146035 
L 552.990033 439.636808 
L 551.074999 439.138921 
L 549.159964 438.775807 
L 547.24493 438.614501 
L 545.329895 438.607555 
L 543.414861 438.630134 
L 541.499826 438.54879 
L 539.584791 438.291357 
L 537.669757 437.904396 
L 535.754722 437.53406 
L 533.839688 437.306559 
L 531.924653 437.227019 
L 530.009618 437.215256 
L 528.094584 437.225017 
L 526.179549 437.286026 
L 524.264515 437.42885 
L 522.34948 437.612899 
L 520.434446 437.744599 
L 518.519411 437.748181 
L 516.604376 437.616945 
L 514.689342 437.411954 
L 512.774307 437.217357 
L 510.859273 437.093297 
L 508.944238 437.060221 
L 507.029204 437.103163 
L 505.114169 437.183713 
L 503.199134 437.264589 
L 501.2841 437.326369 
L 499.369065 437.338923 
L 497.454031 437.224256 
L 495.538996 436.906794 
L 493.623962 436.432212 
L 491.708927 435.978849 
L 489.793892 435.697352 
L 487.878858 435.594192 
L 485.963823 435.621997 
L 484.048789 435.798609 
L 482.133754 436.149714 
L 480.21872 436.609076 
L 478.303685 437.061203 
L 476.38865 437.424509 
L 474.473616 437.644091 
L 472.558581 437.674841 
L 470.643547 437.521164 
L 468.728512 437.241447 
L 466.813478 436.895539 
L 464.898443 436.538302 
L 462.983408 436.258319 
L 461.068374 436.150836 
L 459.153339 436.222145 
L 457.238305 436.348498 
L 455.32327 436.347409 
L 453.408236 436.091162 
L 451.493201 435.573968 
L 449.578166 434.921361 
L 447.663132 434.347862 
L 445.748097 434.05254 
L 443.833063 434.102158 
L 441.918028 434.400866 
L 440.002993 434.766415 
L 438.087959 435.031185 
L 436.172924 435.09471 
L 434.25789 434.927377 
L 432.342855 434.568689 
L 430.427821 434.115465 
L 428.512786 433.670337 
L 426.597751 433.285911 
L 424.682717 432.9558 
L 422.767682 432.652432 
L 420.852648 432.392474 
L 418.937613 432.274934 
L 417.022579 432.410072 
L 415.107544 432.780388 
L 413.192509 433.204167 
L 411.277475 433.466488 
L 409.36244 433.47765 
L 407.447406 433.297075 
L 405.532371 433.027645 
L 403.617337 432.704496 
L 401.702302 432.278685 
L 399.787267 431.700554 
L 397.872233 431.009857 
L 395.957198 430.316301 
L 394.042164 429.691628 
L 392.127129 429.139467 
L 390.212095 428.694902 
L 388.29706 428.488337 
L 386.382025 428.655056 
L 384.466991 429.189719 
L 382.551956 429.917489 
L 380.636922 430.610222 
L 378.721887 431.125078 
L 376.806853 431.454793 
L 374.891818 431.680488 
L 372.976783 431.872259 
L 371.061749 431.997835 
L 369.146714 431.925733 
L 367.23168 431.545629 
L 365.316645 430.892246 
L 363.401611 430.137665 
L 361.486576 429.480697 
L 359.571541 429.061132 
L 357.656507 428.942287 
L 355.741472 429.106837 
L 353.826438 429.456168 
L 351.911403 429.860369 
L 349.996368 430.227952 
L 348.081334 430.520594 
L 346.166299 430.732308 
L 344.251265 430.894378 
L 342.33623 431.071326 
L 340.421196 431.289089 
L 338.506161 431.466909 
L 336.591126 431.460387 
L 334.676092 431.185263 
L 332.761057 430.69208 
L 330.846023 430.137831 
L 328.930988 429.697393 
L 327.015954 429.478157 
L 325.100919 429.467159 
L 323.185884 429.540721 
L 321.27085 429.552287 
L 319.355815 429.435455 
L 317.440781 429.22253 
L 315.525746 428.972328 
L 313.610712 428.702624 
L 311.695677 428.388997 
L 309.780642 428.010269 
L 307.865608 427.61531 
L 305.950573 427.36846 
L 304.035539 427.474363 
L 302.120504 427.973625 
L 300.20547 428.625334 
L 298.290435 429.061942 
L 296.3754 429.054817 
L 294.460366 428.591382 
L 292.545331 427.778513 
L 290.630297 426.771897 
L 288.715262 425.743976 
L 286.800228 424.835467 
L 284.885193 424.151625 
L 282.970158 423.789012 
L 281.055124 423.780232 
L 279.140089 424.006857 
L 277.225055 424.250909 
L 275.31002 424.365574 
L 273.394986 424.377154 
L 271.479951 424.423474 
L 269.564916 424.601642 
L 267.649882 424.863271 
L 265.734847 425.056742 
L 263.819813 425.068372 
L 261.904778 424.922715 
L 259.989743 424.767057 
L 258.074709 424.744187 
L 256.159674 424.834985 
L 254.24464 424.842759 
L 252.329605 424.58699 
L 250.414571 424.086529 
L 248.499536 423.508386 
L 246.584501 422.983737 
L 244.669467 422.537535 
L 242.754432 422.148837 
L 240.839398 421.79708 
L 238.924363 421.470538 
L 237.009329 421.185419 
L 235.094294 420.988891 
L 233.179259 420.935104 
L 231.264225 421.04914 
L 229.34919 421.246516 
L 227.434156 421.25417 
L 225.519121 420.662564 
L 223.604087 419.073098 
L 221.689052 416.19817 
L 219.774017 411.926338 
L 217.858983 406.434505 
L 215.943948 400.240186 
L 214.028914 394.013123 
L 212.113879 388.242189 
L 210.198845 383.097696 
L 208.28381 378.585988 
L 206.368775 374.732327 
L 204.453741 371.591168 
L 202.538706 369.151876 
L 200.623672 367.271938 
L 198.708637 365.69294 
L 196.793603 364.137075 
L 194.878568 362.446815 
L 192.963533 360.675027 
L 191.048499 359.02653 
L 189.133464 357.663747 
L 187.21843 356.537731 
L 185.303395 355.399893 
L 183.388361 353.980384 
L 181.473326 352.172064 
L 179.558291 350.053688 
L 177.643257 347.751222 
L 175.728222 345.312194 
L 173.813188 342.715679 
L 171.898153 339.949217 
L 169.983118 337.03972 
L 168.068084 334.028777 
L 166.153049 330.947832 
L 164.238015 327.823079 
L 162.32298 324.685884 
L 160.407946 321.558947 
L 158.492911 318.430163 
L 156.577876 315.249181 
L 154.662842 311.954158 
L 152.747807 308.509702 
L 150.832773 304.928883 
L 148.917738 301.253618 
L 147.002704 297.507945 
L 145.087669 293.684622 
L 143.172634 289.776285 
L 141.2576 285.786091 
L 139.342565 281.702357 
L 137.427531 277.506468 
L 135.512496 273.220553 
L 133.597462 268.904192 
L 131.682427 264.57482 
L 129.767392 260.158224 
L 127.852358 255.557852 
L 125.937323 250.776205 
L 124.022289 245.940267 
L 122.107254 241.194739 
L 120.19222 236.590203 
L 118.277185 232.083667 
L 116.36215 227.608233 
L 114.447116 223.109232 
L 112.532081 218.538037 
L 110.617047 213.856127 
L 108.702012 209.051596 
L 106.786978 204.141954 
L 104.871943 199.163204 
L 102.956908 194.145728 
L 101.041874 189.086839 
L 99.126839 183.950301 
L 97.211805 178.703655 
L 95.29677 173.367319 
L 93.381735 168.042783 
L 91.466701 162.885369 
L 89.551666 158.039896 
L 87.636632 153.594506 
L 85.721597 149.55346 
L 83.806563 145.800055 
L 81.891528 142.095621 
L 79.976493 138.184203 
L 78.061459 133.94665 
L 76.146424 129.453748 
L 74.23139 124.862095 
L 72.316355 120.258438 
L 70.401321 115.601875 
L 68.486286 110.803452 
L 66.571251 105.851597 
L 64.656217 100.863098 
L 62.741182 96.027109 
L 60.826148 91.51362 
L 58.911113 87.441942 
L 56.996079 83.902315 
L 55.081044 80.944471 
L 53.166009 78.532725 
L 51.250975 76.584654 
L 49.33594 75.111386 
L 47.420906 74.282301 
z
" clip-path="url(#p1932657428)" style="fill: #2ca02c; fill-opacity: 0.1"/>
   </g>
   <g id="FillBetweenPolyCollection_3">
    <path d="M 47.420906 464.789286 
L 47.420906 464.789286 
L 49.33594 464.789286 
L 51.250975 464.789286 
L 53.166009 464.789286 
L 55.081044 464.789286 
L 56.996079 464.789286 
L 58.911113 464.789286 
L 60.826148 464.789286 
L 62.741182 464.789286 
L 64.656217 464.789286 
L 66.571251 464.789286 
L 68.486286 464.789286 
L 70.401321 464.789286 
L 72.316355 464.789286 
L 74.23139 464.789286 
L 76.146424 464.789286 
L 78.061459 464.789286 
L 79.976493 464.789286 
L 81.891528 464.789286 
L 83.806563 464.789286 
L 85.721597 464.789286 
L 87.636632 464.789286 
L 89.551666 464.789286 
L 91.466701 464.789286 
L 93.381735 464.789286 
L 95.29677 464.789286 
L 97.211805 464.789286 
L 99.126839 464.789286 
L 101.041874 464.789286 
L 102.956908 464.789286 
L 104.871943 464.789286 
L 106.786978 464.789286 
L 108.702012 464.789286 
L 110.617047 464.789286 
L 112.532081 464.789286 
L 114.447116 464.789286 
L 116.36215 464.789286 
L 118.277185 464.789286 
L 120.19222 464.789286 
L 122.107254 464.789286 
L 124.022289 464.789286 
L 125.937323 464.789286 
L 127.852358 464.789286 
L 129.767392 464.789286 
L 131.682427 464.789286 
L 133.597462 464.789286 
L 135.512496 464.789286 
L 137.427531 464.789286 
L 139.342565 464.789286 
L 141.2576 464.789286 
L 143.172634 464.789286 
L 145.087669 464.789286 
L 147.002704 464.789286 
L 148.917738 464.789286 
L 150.832773 464.789286 
L 152.747807 464.789286 
L 154.662842 464.789286 
L 156.577876 464.789286 
L 158.492911 464.789286 
L 160.407946 464.789286 
L 162.32298 464.789286 
L 164.238015 464.789286 
L 166.153049 464.789286 
L 168.068084 464.789286 
L 169.983118 464.789286 
L 171.898153 464.789286 
L 173.813188 464.789286 
L 175.728222 464.789286 
L 177.643257 464.789286 
L 179.558291 464.789286 
L 181.473326 464.789286 
L 183.388361 464.789286 
L 185.303395 464.789286 
L 187.21843 464.789286 
L 189.133464 464.789286 
L 191.048499 464.789286 
L 192.963533 464.789286 
L 194.878568 464.789286 
L 196.793603 464.789286 
L 198.708637 464.789286 
L 200.623672 464.789286 
L 202.538706 464.789286 
L 204.453741 464.789286 
L 206.368775 464.789286 
L 208.28381 464.789286 
L 210.198845 464.789286 
L 212.113879 464.789286 
L 214.028914 464.789286 
L 215.943948 464.789286 
L 217.858983 464.789286 
L 219.774017 464.789286 
L 221.689052 464.789286 
L 223.604087 464.789286 
L 225.519121 464.789286 
L 227.434156 464.789286 
L 229.34919 464.789286 
L 231.264225 464.789286 
L 233.179259 464.789286 
L 235.094294 464.789286 
L 237.009329 464.789286 
L 238.924363 464.789286 
L 240.839398 464.789286 
L 242.754432 464.789286 
L 244.669467 464.789286 
L 246.584501 464.789286 
L 248.499536 464.789286 
L 250.414571 464.789286 
L 252.329605 464.789286 
L 254.24464 464.789286 
L 256.159674 464.789286 
L 258.074709 464.789286 
L 259.989743 464.789286 
L 261.904778 464.789286 
L 263.819813 464.789286 
L 265.734847 464.789286 
L 267.649882 464.789286 
L 269.564916 464.789286 
L 271.479951 464.789286 
L 273.394986 464.789286 
L 275.31002 464.789286 
L 277.225055 464.789286 
L 279.140089 464.789286 
L 281.055124 464.789286 
L 282.970158 464.789286 
L 284.885193 464.789286 
L 286.800228 464.789286 
L 288.715262 464.789286 
L 290.630297 464.789286 
L 292.545331 464.789286 
L 294.460366 464.789286 
L 296.3754 464.789286 
L 298.290435 464.789286 
L 300.20547 464.789286 
L 302.120504 464.789286 
L 304.035539 464.789286 
L 305.950573 464.789286 
L 307.865608 464.789286 
L 309.780642 464.789286 
L 311.695677 464.789286 
L 313.610712 464.789286 
L 315.525746 464.789286 
L 317.440781 464.789286 
L 319.355815 464.789286 
L 321.27085 464.789286 
L 323.185884 464.789286 
L 325.100919 464.789286 
L 327.015954 464.789286 
L 328.930988 464.789286 
L 330.846023 464.789286 
L 332.761057 464.789286 
L 334.676092 464.789286 
L 336.591126 464.789286 
L 338.506161 464.789286 
L 340.421196 464.789286 
L 342.33623 464.789286 
L 344.251265 464.789286 
L 346.166299 464.789286 
L 348.081334 464.789286 
L 349.996368 464.789286 
L 351.911403 464.789286 
L 353.826438 464.789286 
L 355.741472 464.789286 
L 357.656507 464.789286 
L 359.571541 464.789286 
L 361.486576 464.789286 
L 363.401611 464.789286 
L 365.316645 464.789286 
L 367.23168 464.789286 
L 369.146714 464.789286 
L 371.061749 464.789286 
L 372.976783 464.789286 
L 374.891818 464.789286 
L 376.806853 464.789286 
L 378.721887 464.789286 
L 380.636922 464.789286 
L 382.551956 464.789286 
L 384.466991 464.789286 
L 386.382025 464.789286 
L 388.29706 464.789286 
L 390.212095 464.789286 
L 392.127129 464.789286 
L 394.042164 464.789286 
L 395.957198 464.789286 
L 397.872233 464.789286 
L 399.787267 464.789286 
L 401.702302 464.789286 
L 403.617337 464.789286 
L 405.532371 464.789286 
L 407.447406 464.789286 
L 409.36244 464.789286 
L 411.277475 464.789286 
L 413.192509 464.789286 
L 415.107544 464.789286 
L 417.022579 464.789286 
L 418.937613 464.789286 
L 420.852648 464.789286 
L 422.767682 464.789286 
L 424.682717 464.789286 
L 426.597751 464.789286 
L 428.512786 464.789286 
L 430.427821 464.789286 
L 432.342855 464.789286 
L 434.25789 464.789286 
L 436.172924 464.789286 
L 438.087959 464.789286 
L 440.002993 464.789286 
L 441.918028 464.789286 
L 443.833063 464.789286 
L 445.748097 464.789286 
L 447.663132 464.789286 
L 449.578166 464.789286 
L 451.493201 464.789286 
L 453.408236 464.789286 
L 455.32327 464.789286 
L 457.238305 464.789286 
L 459.153339 464.789286 
L 461.068374 464.789286 
L 462.983408 464.789286 
L 464.898443 464.789286 
L 466.813478 464.789286 
L 468.728512 464.789286 
L 470.643547 464.789286 
L 472.558581 464.789286 
L 474.473616 464.789286 
L 476.38865 464.789286 
L 478.303685 464.789286 
L 480.21872 464.789286 
L 482.133754 464.789286 
L 484.048789 464.789286 
L 485.963823 464.789286 
L 487.878858 464.789286 
L 489.793892 464.789286 
L 491.708927 464.789286 
L 493.623962 464.789286 
L 495.538996 464.789286 
L 497.454031 464.789286 
L 499.369065 464.789286 
L 501.2841 464.789286 
L 503.199134 464.789286 
L 505.114169 464.789286 
L 507.029204 464.789286 
L 508.944238 464.789286 
L 510.859273 464.789286 
L 512.774307 464.789286 
L 514.689342 464.789286 
L 516.604376 464.789286 
L 518.519411 464.789286 
L 520.434446 464.789286 
L 522.34948 464.789286 
L 524.264515 464.789286 
L 526.179549 464.789286 
L 528.094584 464.789286 
L 530.009618 464.789286 
L 531.924653 464.789286 
L 533.839688 464.789286 
L 535.754722 464.789286 
L 537.669757 464.789286 
L 539.584791 464.789286 
L 541.499826 464.789286 
L 543.414861 464.789286 
L 545.329895 464.789286 
L 547.24493 464.789286 
L 549.159964 464.789286 
L 551.074999 464.789286 
L 552.990033 464.789286 
L 554.905068 464.789286 
L 556.820103 464.789286 
L 558.735137 464.789286 
L 560.650172 464.789286 
L 562.565206 464.789286 
L 564.480241 464.789286 
L 566.395275 464.789286 
L 568.31031 464.789286 
L 570.225345 464.789286 
L 572.140379 464.789286 
L 574.055414 464.789286 
L 575.970448 464.789286 
L 577.885483 464.789286 
L 579.800517 464.789286 
L 581.715552 464.789286 
L 583.630587 464.789286 
L 585.545621 464.789286 
L 587.460656 464.789286 
L 589.37569 464.789286 
L 591.290725 464.789286 
L 593.205759 464.789286 
L 595.120794 464.789286 
L 597.035829 464.789286 
L 598.950863 464.789286 
L 600.865898 464.789286 
L 602.780932 464.789286 
L 604.695967 464.789286 
L 606.611001 464.789286 
L 608.526036 464.789286 
L 610.441071 464.789286 
L 612.356105 464.789286 
L 614.27114 464.789286 
L 616.186174 464.789286 
L 618.101209 464.789286 
L 620.016243 464.789286 
L 620.016243 464.789286 
L 620.016243 464.789286 
L 618.101209 464.789286 
L 616.186174 464.789286 
L 614.27114 464.789286 
L 612.356105 464.789286 
L 610.441071 464.789286 
L 608.526036 464.789286 
L 606.611001 464.789286 
L 604.695967 464.789286 
L 602.780932 464.789286 
L 600.865898 464.789286 
L 598.950863 464.789286 
L 597.035829 464.789286 
L 595.120794 464.789286 
L 593.205759 464.789286 
L 591.290725 464.789286 
L 589.37569 464.789286 
L 587.460656 464.789286 
L 585.545621 464.789286 
L 583.630587 464.789286 
L 581.715552 464.789286 
L 579.800517 464.789286 
L 577.885483 464.789286 
L 575.970448 464.789286 
L 574.055414 464.789286 
L 572.140379 464.789286 
L 570.225345 464.789286 
L 568.31031 464.789286 
L 566.395275 464.789286 
L 564.480241 464.789286 
L 562.565206 464.789286 
L 560.650172 464.789286 
L 558.735137 464.789286 
L 556.820103 464.789286 
L 554.905068 464.789286 
L 552.990033 464.789286 
L 551.074999 464.789286 
L 549.159964 464.789286 
L 547.24493 464.789286 
L 545.329895 464.789286 
L 543.414861 464.789286 
L 541.499826 464.789286 
L 539.584791 464.789286 
L 537.669757 464.789286 
L 535.754722 464.789286 
L 533.839688 464.789286 
L 531.924653 464.789286 
L 530.009618 464.789286 
L 528.094584 464.789286 
L 526.179549 464.789286 
L 524.264515 464.789286 
L 522.34948 464.789286 
L 520.434446 464.789286 
L 518.519411 464.789286 
L 516.604376 464.789286 
L 514.689342 464.789286 
L 512.774307 464.789286 
L 510.859273 464.789286 
L 508.944238 464.789286 
L 507.029204 464.789286 
L 505.114169 464.789286 
L 503.199134 464.789286 
L 501.2841 464.789286 
L 499.369065 464.789286 
L 497.454031 464.789286 
L 495.538996 464.789286 
L 493.623962 464.789286 
L 491.708927 464.789286 
L 489.793892 464.789286 
L 487.878858 464.789286 
L 485.963823 464.789286 
L 484.048789 464.789286 
L 482.133754 464.789286 
L 480.21872 464.789286 
L 478.303685 464.789286 
L 476.38865 464.789286 
L 474.473616 464.789286 
L 472.558581 464.789286 
L 470.643547 464.789286 
L 468.728512 464.789286 
L 466.813478 464.789286 
L 464.898443 464.789286 
L 462.983408 464.789286 
L 461.068374 464.789286 
L 459.153339 464.789286 
L 457.238305 464.789286 
L 455.32327 464.789286 
L 453.408236 464.789286 
L 451.493201 464.789286 
L 449.578166 464.789286 
L 447.663132 464.789286 
L 445.748097 464.789286 
L 443.833063 464.789286 
L 441.918028 464.789286 
L 440.002993 464.789286 
L 438.087959 464.789286 
L 436.172924 464.789286 
L 434.25789 464.789286 
L 432.342855 464.789286 
L 430.427821 464.789286 
L 428.512786 464.789286 
L 426.597751 464.789286 
L 424.682717 464.789286 
L 422.767682 464.789286 
L 420.852648 464.789286 
L 418.937613 464.789286 
L 417.022579 464.789286 
L 415.107544 464.789286 
L 413.192509 464.789286 
L 411.277475 464.789286 
L 409.36244 464.789286 
L 407.447406 464.789286 
L 405.532371 464.789286 
L 403.617337 464.789286 
L 401.702302 464.789286 
L 399.787267 464.789286 
L 397.872233 464.789286 
L 395.957198 464.789286 
L 394.042164 464.789286 
L 392.127129 464.789286 
L 390.212095 464.789286 
L 388.29706 464.789286 
L 386.382025 464.789286 
L 384.466991 464.789286 
L 382.551956 464.789286 
L 380.636922 464.789286 
L 378.721887 464.789286 
L 376.806853 464.789286 
L 374.891818 464.789286 
L 372.976783 464.789286 
L 371.061749 464.789286 
L 369.146714 464.789286 
L 367.23168 464.789286 
L 365.316645 464.789286 
L 363.401611 464.789286 
L 361.486576 464.789286 
L 359.571541 464.789286 
L 357.656507 464.789286 
L 355.741472 464.789286 
L 353.826438 464.789286 
L 351.911403 464.789286 
L 349.996368 464.789286 
L 348.081334 464.789286 
L 346.166299 464.789286 
L 344.251265 464.789286 
L 342.33623 464.789286 
L 340.421196 464.789286 
L 338.506161 464.789286 
L 336.591126 464.789286 
L 334.676092 464.789286 
L 332.761057 464.789286 
L 330.846023 464.789286 
L 328.930988 464.789286 
L 327.015954 464.789286 
L 325.100919 464.789286 
L 323.185884 464.789286 
L 321.27085 464.789286 
L 319.355815 464.789286 
L 317.440781 464.789286 
L 315.525746 464.789286 
L 313.610712 464.789286 
L 311.695677 464.789286 
L 309.780642 464.789286 
L 307.865608 464.789286 
L 305.950573 464.789286 
L 304.035539 464.789286 
L 302.120504 464.789286 
L 300.20547 464.789286 
L 298.290435 464.789286 
L 296.3754 464.789286 
L 294.460366 464.789286 
L 292.545331 464.789286 
L 290.630297 464.789286 
L 288.715262 464.789286 
L 286.800228 464.789286 
L 284.885193 464.789286 
L 282.970158 464.789286 
L 281.055124 464.789286 
L 279.140089 464.789286 
L 277.225055 464.789286 
L 275.31002 464.789286 
L 273.394986 464.789286 
L 271.479951 464.789286 
L 269.564916 464.789286 
L 267.649882 464.789286 
L 265.734847 464.789286 
L 263.819813 464.789286 
L 261.904778 464.789286 
L 259.989743 464.789286 
L 258.074709 464.789286 
L 256.159674 464.789286 
L 254.24464 464.789286 
L 252.329605 464.789286 
L 250.414571 464.789286 
L 248.499536 464.789286 
L 246.584501 464.789286 
L 244.669467 464.789286 
L 242.754432 464.789286 
L 240.839398 464.789286 
L 238.924363 464.789286 
L 237.009329 464.789286 
L 235.094294 464.789286 
L 233.179259 464.789286 
L 231.264225 464.789286 
L 229.34919 464.789286 
L 227.434156 464.789286 
L 225.519121 464.789286 
L 223.604087 464.789286 
L 221.689052 464.789286 
L 219.774017 464.789286 
L 217.858983 464.789286 
L 215.943948 464.789286 
L 214.028914 464.789286 
L 212.113879 464.789286 
L 210.198845 464.789286 
L 208.28381 464.789286 
L 206.368775 464.789286 
L 204.453741 464.789286 
L 202.538706 464.789286 
L 200.623672 464.789286 
L 198.708637 464.789286 
L 196.793603 464.789286 
L 194.878568 464.789286 
L 192.963533 464.789286 
L 191.048499 464.789286 
L 189.133464 464.789286 
L 187.21843 464.789286 
L 185.303395 464.789286 
L 183.388361 464.789286 
L 181.473326 464.789286 
L 179.558291 464.789286 
L 177.643257 464.789286 
L 175.728222 464.789286 
L 173.813188 464.789286 
L 171.898153 464.789286 
L 169.983118 464.789286 
L 168.068084 464.789286 
L 166.153049 464.789286 
L 164.238015 464.789286 
L 162.32298 464.789286 
L 160.407946 464.789286 
L 158.492911 464.789286 
L 156.577876 464.789286 
L 154.662842 464.789286 
L 152.747807 464.789286 
L 150.832773 464.789286 
L 148.917738 464.789286 
L 147.002704 464.789286 
L 145.087669 464.789286 
L 143.172634 464.789286 
L 141.2576 464.789286 
L 139.342565 464.789286 
L 137.427531 464.789286 
L 135.512496 464.789286 
L 133.597462 464.789286 
L 131.682427 464.789286 
L 129.767392 464.789286 
L 127.852358 464.789286 
L 125.937323 464.789286 
L 124.022289 464.789286 
L 122.107254 464.789286 
L 120.19222 464.789286 
L 118.277185 464.789286 
L 116.36215 464.789286 
L 114.447116 464.789286 
L 112.532081 464.789286 
L 110.617047 464.789286 
L 108.702012 464.789286 
L 106.786978 464.789286 
L 104.871943 464.789286 
L 102.956908 464.789286 
L 101.041874 464.789286 
L 99.126839 464.789286 
L 97.211805 464.789286 
L 95.29677 464.789286 
L 93.381735 464.789286 
L 91.466701 464.789286 
L 89.551666 464.789286 
L 87.636632 464.789286 
L 85.721597 464.789286 
L 83.806563 464.789286 
L 81.891528 464.789286 
L 79.976493 464.789286 
L 78.061459 464.789286 
L 76.146424 464.789286 
L 74.23139 464.789286 
L 72.316355 464.789286 
L 70.401321 464.789286 
L 68.486286 464.789286 
L 66.571251 464.789286 
L 64.656217 464.789286 
L 62.741182 464.789286 
L 60.826148 464.789286 
L 58.911113 464.789286 
L 56.996079 464.789286 
L 55.081044 464.789286 
L 53.166009 464.789286 
L 51.250975 464.789286 
L 49.33594 464.789286 
L 47.420906 464.789286 
z
" clip-path="url(#p1932657428)" style="fill: #d62728; fill-opacity: 0.1"/>
   </g>
   <g id="line2d_12">
    <path d="M 36.2 271.521429 
L 623.801429 271.521429 
" clip-path="url(#p1932657428)" style="fill: none; stroke-dasharray: 2.96,1.28; stroke-dashoffset: 0; stroke: #808080; stroke-width: 0.8"/>
   </g>
   <g id="line2d_13">
    <path d="M 47.420906 106.259661 
L 49.33594 118.126011 
L 51.250975 138.486973 
L 53.166009 162.062881 
L 55.081044 184.132353 
L 56.996079 202.3934 
L 58.911113 216.773143 
L 60.826148 227.833803 
L 62.741182 235.76235 
L 64.656217 240.727241 
L 66.571251 243.620712 
L 68.486286 246.115502 
L 70.401321 249.932929 
L 72.316355 255.877198 
L 76.146424 270.928883 
L 78.061459 277.126902 
L 79.976493 281.463504 
L 81.891528 284.387694 
L 83.806563 286.755043 
L 85.721597 289.494154 
L 87.636632 293.996598 
L 89.551666 302.606023 
L 91.466701 317.995871 
L 93.381735 341.225014 
L 97.211805 398.831322 
L 99.126839 422.214575 
L 101.041874 437.260507 
L 102.956908 444.709495 
L 104.871943 447.352532 
L 106.786978 447.956986 
L 112.532081 448.595669 
L 114.447116 448.51706 
L 116.36215 447.978317 
L 118.277185 446.798907 
L 120.19222 444.818016 
L 122.107254 442.087583 
L 124.022289 439.074609 
L 125.937323 436.56791 
L 127.852358 435.243019 
L 129.767392 435.248648 
L 131.682427 436.174023 
L 133.597462 437.364496 
L 135.512496 438.32035 
L 139.342565 439.717596 
L 141.2576 441.137126 
L 143.172634 443.589854 
L 145.087669 446.957456 
L 148.917738 454.395768 
L 150.832773 457.454554 
L 152.747807 459.701665 
L 154.662842 461.1521 
L 156.577876 462.02123 
L 158.492911 462.589711 
L 162.32298 463.391772 
L 164.238015 463.590669 
L 166.153049 463.618912 
L 169.983118 463.313709 
L 171.898153 462.997248 
L 175.728222 462.010256 
L 179.558291 460.840436 
L 181.473326 460.357918 
L 183.388361 460.060992 
L 187.21843 459.98571 
L 191.048499 459.917558 
L 196.793603 459.687973 
L 204.453741 459.813809 
L 206.368775 459.884059 
L 208.28381 459.789393 
L 210.198845 459.269563 
L 212.113879 458.070676 
L 214.028914 456.106548 
L 217.858983 451.047551 
L 219.774017 448.993665 
L 221.689052 447.728115 
L 223.604087 447.205876 
L 225.519121 447.181165 
L 233.179259 447.974927 
L 242.754432 448.200556 
L 244.669467 448.077933 
L 246.584501 447.793907 
L 250.414571 447.002332 
L 252.329605 446.839597 
L 254.24464 447.023241 
L 256.159674 447.509119 
L 259.989743 448.656001 
L 261.904778 448.987421 
L 263.819813 449.072199 
L 265.734847 448.952138 
L 269.564916 448.436335 
L 273.394986 447.741109 
L 277.225055 446.901312 
L 279.140089 446.730841 
L 281.055124 446.862291 
L 284.885193 447.397277 
L 286.800228 447.415095 
L 288.715262 447.218469 
L 294.460366 446.113454 
L 296.3754 446.009242 
L 298.290435 446.279862 
L 300.20547 446.895568 
L 304.035539 448.367688 
L 305.950573 448.839347 
L 307.865608 449.090242 
L 315.525746 449.541905 
L 319.355815 449.443045 
L 321.27085 449.332336 
L 323.185884 449.374726 
L 325.100919 449.668754 
L 330.846023 451.227904 
L 334.676092 452.392304 
L 336.591126 452.808175 
L 338.506161 452.823058 
L 340.421196 452.386297 
L 344.251265 450.815109 
L 348.081334 449.273319 
L 349.996368 448.835058 
L 351.911403 448.785472 
L 353.826438 449.085444 
L 357.656507 450.162831 
L 361.486576 451.367601 
L 363.401611 451.815243 
L 365.316645 452.023801 
L 369.146714 451.920515 
L 374.891818 451.628962 
L 376.806853 451.720198 
L 378.721887 452.035414 
L 382.551956 452.93053 
L 384.466991 453.198484 
L 397.872233 454.297385 
L 401.702302 455.05322 
L 403.617337 455.436246 
L 405.532371 455.659652 
L 407.447406 455.690783 
L 411.277475 455.50843 
L 413.192509 455.541247 
L 417.022579 456.009824 
L 420.852648 456.426576 
L 432.342855 456.784494 
L 438.087959 456.316253 
L 447.663132 456.619626 
L 455.32327 457.252349 
L 468.728512 457.309214 
L 472.558581 457.278025 
L 476.38865 457.525885 
L 480.21872 457.873354 
L 482.133754 457.932742 
L 485.963823 457.746281 
L 489.793892 457.650191 
L 495.538996 457.895116 
L 499.369065 457.52461 
L 508.944238 456.439674 
L 512.774307 456.18823 
L 531.924653 456.566803 
L 535.754722 456.282895 
L 539.584791 455.754425 
L 543.414861 455.091893 
L 545.329895 454.886216 
L 547.24493 454.85414 
L 554.905068 455.323382 
L 560.650172 455.344326 
L 570.225345 456.022157 
L 574.055414 456.296851 
L 581.715552 456.214368 
L 585.545621 456.308371 
L 593.205759 456.13276 
L 598.950863 456.322312 
L 604.695967 456.789025 
L 606.611001 456.758488 
L 610.441071 456.347581 
L 614.27114 456.026507 
L 618.101209 456.121698 
L 620.016243 456.186511 
L 620.016243 456.186511 
" clip-path="url(#p1932657428)" style="fill: none; stroke: #00b899; stroke-width: 2; stroke-linecap: round"/>
   </g>
   <g id="line2d_14">
    <path d="M 47.420906 84.267293 
L 49.33594 86.239615 
L 51.250975 89.802947 
L 53.166009 94.392732 
L 56.996079 104.91109 
L 58.911113 110.631401 
L 60.826148 116.911312 
L 62.741182 123.950242 
L 66.571251 139.81643 
L 70.401321 155.709076 
L 79.976493 193.242399 
L 83.806563 209.894039 
L 85.721597 217.492671 
L 87.636632 224.270707 
L 93.381735 242.592457 
L 97.211805 254.60497 
L 101.041874 265.84159 
L 106.786978 281.859719 
L 108.702012 286.904258 
L 110.617047 291.631125 
L 114.447116 300.170996 
L 118.277185 308.558743 
L 122.107254 317.542243 
L 125.937323 327.331199 
L 129.767392 337.026976 
L 131.682427 341.354624 
L 133.597462 345.284098 
L 135.512496 348.880539 
L 137.427531 352.198873 
L 141.2576 358.243477 
L 147.002704 367.171097 
L 150.832773 372.965167 
L 152.747807 375.512278 
L 154.662842 377.796562 
L 158.492911 381.913934 
L 173.813188 397.556679 
L 177.643257 401.042551 
L 181.473326 404.170603 
L 183.388361 405.595765 
L 185.303395 406.843863 
L 192.963533 411.124398 
L 196.793603 413.454796 
L 200.623672 415.480875 
L 202.538706 416.636631 
L 204.453741 418.070979 
L 206.368775 419.851745 
L 208.28381 421.968818 
L 210.198845 424.348015 
L 214.028914 429.657428 
L 219.774017 438.1776 
L 221.689052 440.412282 
L 223.604087 442.052101 
L 225.519121 443.075047 
L 227.434156 443.554851 
L 229.34919 443.671253 
L 233.179259 443.734265 
L 237.009329 444.209522 
L 248.499536 446.057662 
L 252.329605 446.968061 
L 254.24464 447.29955 
L 259.989743 447.764629 
L 263.819813 448.121164 
L 267.649882 448.201139 
L 271.479951 448.192797 
L 279.140089 448.618919 
L 282.970158 448.73232 
L 284.885193 449.039601 
L 288.715262 450.115037 
L 292.545331 451.319981 
L 294.460366 451.814663 
L 296.3754 452.136789 
L 298.290435 452.215313 
L 304.035539 451.648019 
L 305.950573 451.73135 
L 315.525746 453.036003 
L 319.355815 453.189531 
L 328.930988 453.262877 
L 334.676092 453.802487 
L 338.506161 453.864315 
L 346.166299 453.499982 
L 348.081334 453.276271 
L 351.911403 452.528457 
L 355.741472 451.82071 
L 357.656507 451.672254 
L 359.571541 451.705662 
L 361.486576 451.905725 
L 369.146714 453.137871 
L 372.976783 453.132037 
L 378.721887 452.815496 
L 386.382025 451.990798 
L 390.212095 452.036574 
L 394.042164 452.506606 
L 397.872233 453.426171 
L 401.702302 454.448006 
L 405.532371 455.163109 
L 409.36244 455.640124 
L 411.277475 455.71036 
L 413.192509 455.602402 
L 417.022579 455.165066 
L 418.937613 455.12496 
L 422.767682 455.542705 
L 436.172924 457.480222 
L 443.833063 457.724481 
L 447.663132 457.942111 
L 451.493201 458.397091 
L 455.32327 458.865349 
L 459.153339 459.019995 
L 462.983408 459.064644 
L 466.813478 459.400276 
L 470.643547 459.880926 
L 472.558581 460.006125 
L 476.38865 459.926971 
L 489.793892 459.291384 
L 493.623962 459.577755 
L 497.454031 459.923809 
L 501.2841 459.948811 
L 505.114169 459.918745 
L 508.944238 460.06721 
L 518.519411 460.614033 
L 524.264515 460.468125 
L 528.094584 460.406396 
L 533.839688 460.637782 
L 541.499826 461.032325 
L 549.159964 461.324691 
L 566.395275 462.736035 
L 583.630587 463.141122 
L 591.290725 463.836578 
L 593.205759 463.841191 
L 597.035829 463.482823 
L 602.780932 462.756269 
L 606.611001 462.47285 
L 610.441071 462.542302 
L 616.186174 462.946597 
L 620.016243 462.887023 
L 620.016243 462.887023 
" clip-path="url(#p1932657428)" style="fill: none; stroke: #2ca02c; stroke-width: 2; stroke-linecap: round"/>
   </g>
   <g id="line2d_15">
    <path d="M 47.420906 464.789286 
L 620.016243 464.789286 
L 620.016243 464.789286 
" clip-path="url(#p1932657428)" style="fill: none; stroke: #d62728; stroke-width: 2; stroke-linecap: round"/>
   </g>
   <g id="line2d_16">
    <path d="M 47.420906 454.719405 
L 49.33594 443.073521 
L 51.250975 439.208513 
L 53.166009 455.762395 
L 55.081044 419.062299 
L 56.996079 434.003729 
L 58.911113 394.763209 
L 60.826148 398.755187 
L 62.741182 410.707033 
L 64.656217 407.352203 
L 66.571251 403.517258 
L 68.486286 388.505894 
L 70.401321 433.89426 
L 72.316355 395.392039 
L 74.23139 373.199 
L 76.146424 386.802603 
L 78.061459 385.074115 
L 79.976493 394.797947 
L 81.891528 387.908409 
L 83.806563 358.153846 
L 85.721597 335.4817 
L 87.636632 340.578102 
L 89.551666 373.929996 
L 91.466701 364.009949 
L 93.381735 379.800378 
L 95.29677 342.490279 
L 97.211805 352.866332 
L 99.126839 322.839573 
L 101.041874 323.137159 
L 102.956908 319.643289 
L 104.871943 338.671675 
L 106.786978 342.236031 
L 108.702012 327.389422 
L 110.617047 315.710317 
L 112.532081 330.62184 
L 114.447116 328.179005 
L 116.36215 315.753305 
L 118.277185 331.228717 
L 120.19222 349.62622 
L 122.107254 325.685835 
L 124.022289 326.087925 
L 125.937323 311.555612 
L 127.852358 310.989955 
L 129.767392 332.902094 
L 131.682427 321.191932 
L 133.597462 321.198073 
L 135.512496 274.304268 
L 137.427531 289.187825 
L 139.342565 294.831619 
L 141.2576 290.681003 
L 143.172634 290.685785 
L 145.087669 296.49773 
L 147.002704 280.170976 
L 148.917738 274.038083 
L 150.832773 257.713594 
L 152.747807 285.551858 
L 154.662842 259.309587 
L 156.577876 266.195367 
L 158.492911 233.356617 
L 160.407946 246.702561 
L 162.32298 273.199276 
L 164.238015 271.558745 
L 166.153049 236.75649 
L 168.068084 237.329316 
L 169.983118 243.197122 
L 171.898153 246.180343 
L 173.813188 240.803419 
L 175.728222 222.071733 
L 177.643257 211.483511 
L 179.558291 217.079097 
L 181.473326 241.138579 
L 183.388361 202.314478 
L 185.303395 201.797726 
L 187.21843 214.691546 
L 189.133464 226.651852 
L 191.048499 234.10008 
L 192.963533 217.129169 
L 194.878568 206.972397 
L 196.793603 167.729351 
L 198.708637 217.564445 
L 200.623672 204.5741 
L 202.538706 200.041262 
L 204.453741 213.541652 
L 206.368775 209.167282 
L 208.28381 214.853582 
L 210.198845 195.321733 
L 212.113879 219.760055 
L 214.028914 207.765958 
L 215.943948 166.866039 
L 217.858983 188.049368 
L 219.774017 226.975078 
L 221.689052 188.295319 
L 223.604087 176.126345 
L 225.519121 152.234779 
L 227.434156 172.005464 
L 229.34919 164.985067 
L 231.264225 190.226527 
L 233.179259 165.488996 
L 235.094294 169.214658 
L 237.009329 166.801304 
L 238.924363 160.735567 
L 240.839398 157.389839 
L 242.754432 166.08209 
L 244.669467 161.298373 
L 246.584501 173.837325 
L 248.499536 160.50507 
L 250.414571 154.874198 
L 252.329605 145.775523 
L 254.24464 148.943901 
L 256.159674 137.470144 
L 258.074709 161.870212 
L 259.989743 155.87855 
L 261.904778 155.122246 
L 263.819813 148.799396 
L 265.734847 149.865002 
L 267.649882 144.254891 
L 269.564916 157.594263 
L 271.479951 159.989408 
L 273.394986 155.61497 
L 275.31002 172.419025 
L 277.225055 170.533996 
L 279.140089 177.426895 
L 281.055124 181.442307 
L 282.970158 170.603317 
L 284.885193 171.65905 
L 286.800228 179.720779 
L 288.715262 167.759327 
L 290.630297 188.4647 
L 292.545331 143.038641 
L 294.460366 158.755765 
L 296.3754 159.98705 
L 298.290435 175.422626 
L 300.20547 168.64794 
L 302.120504 169.654043 
L 304.035539 162.919943 
L 305.950573 172.240575 
L 307.865608 178.953842 
L 309.780642 175.416402 
L 311.695677 166.622712 
L 313.610712 169.802416 
L 315.525746 166.6638 
L 317.440781 186.747224 
L 319.355815 179.550619 
L 321.27085 191.627183 
L 323.185884 190.35541 
L 325.100919 180.590064 
L 327.015954 166.768499 
L 328.930988 199.34929 
L 330.846023 176.877711 
L 332.761057 185.545385 
L 334.676092 175.198377 
L 336.591126 181.472502 
L 338.506161 181.362847 
L 340.421196 195.228279 
L 342.33623 178.255874 
L 344.251265 179.666221 
L 346.166299 180.12014 
L 348.081334 181.051104 
L 349.996368 175.608476 
L 351.911403 170.629816 
L 353.826438 180.401996 
L 355.741472 181.508548 
L 357.656507 172.423198 
L 359.571541 165.073202 
L 361.486576 161.975649 
L 363.401611 174.266983 
L 365.316645 163.242357 
L 367.23168 140.428357 
L 369.146714 143.54314 
L 371.061749 130.704619 
L 372.976783 170.114989 
L 374.891818 156.958545 
L 376.806853 174.382744 
L 378.721887 156.570732 
L 380.636922 161.312505 
L 382.551956 151.261683 
L 384.466991 161.173887 
L 386.382025 151.971309 
L 388.29706 135.469575 
L 390.212095 138.253839 
L 392.127129 134.942149 
L 394.042164 150.326148 
L 395.957198 140.749439 
L 397.872233 142.162228 
L 399.787267 129.941385 
L 401.702302 138.387467 
L 403.617337 124.482648 
L 405.532371 112.680049 
L 407.447406 146.029985 
L 409.36244 132.244176 
L 411.277475 137.224503 
L 413.192509 128.952049 
L 415.107544 136.931412 
L 417.022579 175.314165 
L 418.937613 149.652992 
L 420.852648 151.445806 
L 422.767682 132.665036 
L 424.682717 128.056177 
L 426.597751 134.631175 
L 428.512786 134.119844 
L 430.427821 104.509731 
L 432.342855 102.754103 
L 434.25789 127.847495 
L 436.172924 131.686934 
L 438.087959 124.240898 
L 441.918028 141.694013 
L 443.833063 140.503372 
L 445.748097 134.568729 
L 447.663132 117.662008 
L 449.578166 124.963361 
L 451.493201 142.887805 
L 453.408236 137.538102 
L 455.32327 134.009472 
L 459.153339 112.906767 
L 461.068374 141.584997 
L 462.983408 116.710863 
L 464.898443 132.459174 
L 466.813478 121.067432 
L 468.728512 131.764559 
L 470.643547 121.149734 
L 472.558581 118.166219 
L 474.473616 129.061945 
L 476.38865 123.245117 
L 478.303685 134.461426 
L 480.21872 130.811315 
L 482.133754 115.101161 
L 484.048789 130.748803 
L 485.963823 132.586691 
L 487.878858 126.062396 
L 489.793892 134.454759 
L 491.708927 122.968216 
L 493.623962 116.48726 
L 495.538996 85.918713 
L 497.454031 102.569752 
L 499.369065 96.94093 
L 501.2841 124.896993 
L 503.199134 135.611443 
L 505.114169 124.446921 
L 507.029204 120.100307 
L 508.944238 104.436803 
L 510.859273 117.625809 
L 512.774307 124.817149 
L 514.689342 119.140802 
L 516.604376 110.452821 
L 518.519411 128.010414 
L 520.434446 116.583381 
L 522.34948 114.686694 
L 524.264515 107.020117 
L 526.179549 123.569133 
L 528.094584 122.809315 
L 530.009618 124.173216 
L 531.924653 118.534302 
L 533.839688 110.564037 
L 535.754722 111.197248 
L 537.669757 121.461287 
L 539.584791 119.453716 
L 541.499826 142.325989 
L 543.414861 121.983361 
L 545.329895 106.285574 
L 547.24493 121.962578 
L 549.159964 109.774304 
L 551.074999 113.581798 
L 552.990033 112.801519 
L 554.905068 131.462593 
L 558.735137 106.931797 
L 560.650172 122.695152 
L 562.565206 144.748003 
L 564.480241 150.40518 
L 566.395275 133.284527 
L 568.31031 118.561801 
L 570.225345 126.748019 
L 572.140379 125.450034 
L 574.055414 137.410045 
L 575.970448 127.273869 
L 577.885483 107.500641 
L 579.800517 99.810743 
L 581.715552 112.318268 
L 583.630587 122.975654 
L 585.545621 131.220776 
L 587.460656 133.692575 
L 589.37569 125.051507 
L 591.290725 89.719595 
L 593.205759 116.52325 
L 595.120794 120.078702 
L 597.035829 124.70511 
L 598.950863 139.457112 
L 600.865898 136.943477 
L 602.780932 131.509595 
L 604.695967 103.954497 
L 606.611001 119.346115 
L 608.526036 126.401764 
L 610.441071 120.404842 
L 612.356105 110.639098 
L 614.27114 109.644714 
L 616.186174 118.566272 
L 618.101209 120.342958 
L 620.016243 109.785986 
L 620.016243 109.785986 
" clip-path="url(#p1932657428)" style="fill: none; stroke: #1f77b4; stroke-linecap: round"/>
   </g>
   <g id="line2d_17">
    <path d="M 47.420906 82.939893 
L 49.33594 82.503422 
L 51.250975 118.483668 
L 53.166009 186.661834 
L 55.081044 159.667942 
L 56.996079 196.072208 
L 58.911113 153.418609 
L 60.826148 185.358176 
L 62.741182 213.774376 
L 64.656217 208.667246 
L 66.571251 221.062365 
L 68.486286 201.824654 
L 70.401321 252.996777 
L 72.316355 232.703973 
L 74.23139 217.363992 
L 76.146424 252.171789 
L 78.061459 261.800981 
L 79.976493 276.161508 
L 81.891528 275.940621 
L 83.806563 250.607918 
L 85.721597 240.147875 
L 87.636632 247.990739 
L 89.551666 282.397978 
L 91.466701 282.002945 
L 93.381735 327.045359 
L 95.29677 327.507565 
L 97.211805 405.635109 
L 99.126839 391.055879 
L 101.041874 397.427196 
L 102.956908 399.007528 
L 104.871943 418.201722 
L 106.786978 424.973579 
L 108.702012 413.989156 
L 110.617047 407.704624 
L 112.532081 426.113336 
L 114.447116 424.970265 
L 116.36215 413.85523 
L 118.277185 434.512731 
L 120.19222 457.404069 
L 122.107254 431.269815 
L 124.022289 428.964505 
L 125.937323 409.940378 
L 127.852358 415.143735 
L 129.767392 444.928055 
L 131.682427 436.018129 
L 133.597462 441.577048 
L 135.512496 393.459744 
L 137.427531 411.671404 
L 139.342565 419.195432 
L 141.2576 413.831936 
L 143.172634 420.010648 
L 145.087669 434.896866 
L 147.002704 421.911332 
L 148.917738 421.144655 
L 150.832773 409.787836 
L 152.747807 443.948661 
L 154.662842 416.685653 
L 156.577876 425.077946 
L 158.492911 389.890913 
L 160.407946 407.617464 
L 162.32298 438.850776 
L 164.238015 438.859787 
L 166.153049 400.846295 
L 168.068084 402.619638 
L 169.983118 410.623306 
L 171.898153 415.633027 
L 173.813188 410.391162 
L 175.728222 390.4113 
L 177.643257 378.893259 
L 179.558291 385.591462 
L 181.473326 413.323785 
L 183.388361 369.32245 
L 185.303395 371.682418 
L 187.21843 387.087803 
L 189.133464 400.019479 
L 191.048499 408.618116 
L 192.963533 390.372564 
L 194.878568 380.968824 
L 196.793603 337.776837 
L 198.708637 393.884512 
L 200.623672 380.198596 
L 202.538706 374.855404 
L 204.453741 390.966511 
L 206.368775 388.19539 
L 208.28381 396.05289 
L 210.198845 376.699491 
L 212.113879 406.803188 
L 214.028914 391.283039 
L 215.943948 344.416787 
L 217.858983 367.930536 
L 219.774017 409.391935 
L 221.689052 369.563902 
L 223.604087 356.376585 
L 225.519121 330.999654 
L 227.434156 354.791093 
L 229.34919 345.338655 
L 231.264225 373.089803 
L 233.179259 347.249711 
L 235.094294 350.360719 
L 237.009329 347.835399 
L 238.924363 342.230957 
L 240.839398 339.226489 
L 242.754432 347.133123 
L 244.669467 344.065488 
L 246.584501 357.228229 
L 248.499536 342.371873 
L 250.414571 334.975955 
L 252.329605 324.667612 
L 254.24464 329.651472 
L 256.159674 317.997397 
L 258.074709 345.001782 
L 259.989743 339.261782 
L 261.904778 339.901137 
L 263.819813 332.694635 
L 265.734847 333.539799 
L 267.649882 326.433358 
L 269.564916 341.512936 
L 271.479951 342.826972 
L 273.394986 338.895114 
L 275.31002 357.759316 
L 277.225055 354.934314 
L 281.055124 365.628338 
L 282.970158 355.441733 
L 284.885193 357.432916 
L 286.800228 366.094976 
L 288.715262 353.289087 
L 290.630297 374.89464 
L 292.545331 328.243124 
L 294.460366 341.736148 
L 296.3754 343.098162 
L 298.290435 362.895151 
L 300.20547 355.139227 
L 302.120504 355.905668 
L 304.035539 349.973414 
L 305.950573 361.014722 
L 307.865608 368.300503 
L 309.780642 364.594801 
L 311.695677 355.695765 
L 313.610712 359.418784 
L 315.525746 355.985811 
L 317.440781 381.366256 
L 319.355815 401.158004 
L 321.27085 386.354074 
L 323.185884 380.55794 
L 325.100919 371.331732 
L 327.015954 356.206871 
L 328.930988 394.120507 
L 330.846023 369.448137 
L 332.761057 377.773855 
L 334.676092 371.853628 
L 336.591126 413.266148 
L 338.506161 412.140836 
L 340.421196 394.510255 
L 342.33623 369.842037 
L 344.251265 376.130242 
L 346.166299 405.15905 
L 348.081334 378.778326 
L 349.996368 391.88212 
L 351.911403 364.715613 
L 353.826438 400.801717 
L 355.741472 405.163885 
L 357.656507 369.141802 
L 359.571541 383.819609 
L 361.486576 382.643252 
L 363.401611 401.407651 
L 365.316645 386.558271 
L 367.23168 355.140603 
L 369.146714 361.563909 
L 371.061749 340.402799 
L 372.976783 396.059342 
L 374.891818 378.473529 
L 376.806853 399.868966 
L 378.721887 352.845201 
L 380.636922 383.890011 
L 382.551956 374.252269 
L 384.466991 386.90933 
L 386.382025 371.951807 
L 388.29706 348.960164 
L 390.212095 332.011567 
L 392.127129 348.894594 
L 394.042164 369.838734 
L 395.957198 336.217662 
L 397.872233 360.901182 
L 399.787267 345.758435 
L 401.702302 357.662007 
L 403.617337 337.399736 
L 405.532371 323.952726 
L 407.447406 370.751423 
L 409.36244 348.363058 
L 411.277475 335.295143 
L 413.192509 340.113187 
L 415.107544 336.278951 
L 417.022579 409.855322 
L 418.937613 373.320893 
L 420.852648 377.302468 
L 422.767682 349.353384 
L 424.682717 347.193123 
L 426.597751 353.966876 
L 428.512786 352.255437 
L 430.427821 312.793222 
L 432.342855 312.03486 
L 434.25789 349.301255 
L 436.172924 348.481499 
L 438.087959 338.238732 
L 440.002993 350.849121 
L 441.918028 366.547458 
L 443.833063 362.789309 
L 445.748097 334.466811 
L 447.663132 332.388519 
L 449.578166 343.398386 
L 451.493201 370.60021 
L 453.408236 365.294365 
L 455.32327 358.733757 
L 457.238305 344.691181 
L 459.153339 334.422215 
L 461.068374 363.79551 
L 462.983408 329.580344 
L 464.898443 354.860927 
L 466.813478 342.690739 
L 468.728512 351.878784 
L 470.643547 337.337844 
L 472.558581 336.753946 
L 474.473616 351.799589 
L 476.38865 343.606968 
L 478.303685 354.965894 
L 480.21872 355.20393 
L 482.133754 334.325404 
L 484.048789 353.726758 
L 485.963823 354.950382 
L 487.878858 344.987206 
L 489.793892 357.35538 
L 491.708927 343.319861 
L 493.623962 337.375413 
L 495.538996 294.024883 
L 497.454031 315.326901 
L 499.369065 306.242135 
L 501.2841 351.18154 
L 503.199134 358.390199 
L 505.114169 340.954266 
L 507.029204 334.887571 
L 508.944238 315.22925 
L 510.859273 334.431781 
L 512.774307 342.299104 
L 514.689342 338.213821 
L 516.604376 326.113229 
L 518.519411 350.211955 
L 520.434446 333.302688 
L 522.34948 329.502501 
L 524.264515 321.165427 
L 526.179549 343.419652 
L 528.094584 342.520638 
L 530.009618 344.344622 
L 531.924653 333.93068 
L 533.839688 314.188347 
L 535.754722 328.142973 
L 537.669757 334.627026 
L 539.584791 333.518926 
L 541.499826 368.611383 
L 543.414861 340.016452 
L 545.329895 316.74534 
L 547.24493 337.76921 
L 549.159964 322.174885 
L 551.074999 325.603199 
L 552.990033 328.059443 
L 554.905068 352.332089 
L 556.820103 332.483003 
L 558.735137 318.282128 
L 560.650172 338.893347 
L 562.565206 371.814499 
L 564.480241 379.903664 
L 566.395275 355.320014 
L 568.31031 334.24559 
L 570.225345 343.394241 
L 572.140379 346.446895 
L 574.055414 363.284517 
L 575.970448 349.175115 
L 577.885483 319.749242 
L 579.800517 309.597646 
L 581.715552 327.340098 
L 583.630587 342.941078 
L 585.545621 354.727738 
L 587.460656 357.758734 
L 589.37569 346.035054 
L 591.290725 294.95025 
L 593.205759 335.420072 
L 595.120794 336.60625 
L 597.035829 344.459979 
L 598.950863 364.554864 
L 600.865898 363.119183 
L 602.780932 355.402526 
L 604.695967 315.877227 
L 606.611001 337.975548 
L 608.526036 348.771846 
L 610.441071 339.286045 
L 612.356105 329.074775 
L 614.27114 326.000858 
L 616.186174 330.428352 
L 618.101209 338.902637 
L 620.016243 324.785156 
L 620.016243 324.785156 
" clip-path="url(#p1932657428)" style="fill: none; stroke: #ff7f0e; stroke-linecap: round"/>
   </g>
   <g id="line2d_18">
    <path d="M 47.420906 464.789286 
L 53.166009 447.316476 
L 58.911113 440.236975 
L 64.656217 396.730682 
L 70.401321 376.044482 
L 76.146424 385.985908 
L 81.891528 331.935678 
L 87.636632 346.395935 
L 93.381735 313.860357 
L 99.126839 302.739014 
L 104.871943 291.542357 
L 110.617047 281.475407 
L 116.36215 268.069544 
L 122.107254 264.103016 
L 127.852358 254.412635 
L 133.597462 249.517236 
L 139.342565 238.59673 
L 145.087669 240.17832 
L 150.832773 240.805936 
L 156.577876 234.780829 
L 162.32298 238.420997 
L 168.068084 244.37079 
L 173.813188 242.412631 
L 179.558291 249.140667 
L 185.303395 233.073715 
L 191.048499 213.140653 
L 196.793603 222.002581 
L 202.538706 215.500486 
L 208.28381 207.692952 
L 214.028914 216.605089 
L 219.774017 188.487924 
L 225.519121 222.102999 
L 231.264225 204.831026 
L 237.009329 197.45027 
L 242.754432 200.839393 
L 248.499536 186.805915 
L 254.24464 175.860304 
L 259.989743 193.659474 
L 265.734847 186.303822 
L 271.479951 183.84357 
L 277.225055 182.186666 
L 282.970158 200.638556 
L 288.715262 183.642734 
L 294.460366 178.044405 
L 300.20547 188.914702 
L 305.950573 178.220137 
L 311.695677 172.84775 
L 317.440781 187.308007 
L 323.185884 166.345656 
L 328.930988 165.316367 
L 334.676092 176.864488 
L 340.421196 175.232688 
L 346.166299 175.056956 
L 351.911403 165.44189 
L 357.656507 153.316362 
L 363.401611 173.274529 
L 369.146714 157.182472 
L 374.891818 168.956535 
L 380.636922 156.881217 
L 386.382025 148.019289 
L 392.127129 158.010924 
L 397.872233 119.7766 
L 403.617337 124.245221 
L 409.36244 106.697097 
L 415.107544 108.680361 
L 420.852648 98.939772 
L 426.597751 106.546469 
L 432.342855 82.596669 
L 438.087959 106.923039 
L 443.833063 104.789147 
L 449.578166 99.015086 
L 455.32327 114.404213 
L 461.068374 99.994166 
L 466.813478 95.425126 
L 472.558581 100.195003 
L 478.303685 99.291236 
L 484.048789 116.211745 
L 489.793892 99.215923 
L 495.538996 106.195005 
L 501.2841 121.960701 
L 507.029204 107.726386 
L 512.774307 95.625963 
L 518.519411 89.500438 
L 524.264515 92.989979 
L 530.009618 88.897927 
L 535.754722 97.232658 
L 541.499826 81.89374 
L 547.24493 82.446042 
L 552.990033 88.019266 
L 558.735137 90.429308 
L 564.480241 99.868643 
L 570.225345 101.098769 
L 575.970448 101.224292 
L 581.715552 80.061104 
L 587.460656 100.747304 
L 593.205759 78.253571 
L 598.950863 85.333072 
L 604.695967 94.220105 
L 610.441071 106.195005 
L 616.186174 104.713833 
" clip-path="url(#p1932657428)" style="fill: none; stroke: #000000; stroke-width: 1.5; stroke-linecap: round"/>
   </g>
   <g id="line2d_19">
    <path d="M 47.420906 78.253571 
L 53.166009 94.463041 
L 58.911113 118.881166 
L 64.656217 125.147559 
L 70.401321 146.052018 
L 76.146424 145.110749 
L 81.891528 161.648668 
L 87.636632 167.325157 
L 93.381735 180.702249 
L 99.126839 203.637479 
L 104.871943 208.354195 
L 110.617047 223.123644 
L 116.36215 227.114008 
L 122.107254 230.711912 
L 127.852358 243.793837 
L 133.597462 258.125235 
L 139.342565 264.473666 
L 145.087669 272.386673 
L 150.832773 283.312111 
L 156.577876 294.780523 
L 162.32298 305.598974 
L 168.068084 323.210433 
L 173.813188 334.517772 
L 179.558291 343.642756 
L 185.303395 350.297814 
L 191.048499 351.316914 
L 196.793603 360.104308 
L 202.538706 359.15522 
L 208.28381 356.202989 
L 214.028914 361.020104 
L 219.774017 384.067838 
L 225.519121 395.177341 
L 231.264225 399.637822 
L 237.009329 399.498273 
L 242.754432 411.042005 
L 248.499536 409.25357 
L 254.24464 409.869364 
L 259.989743 417.483575 
L 265.734847 414.614544 
L 271.479951 407.274936 
L 277.225055 391.901035 
L 282.970158 396.507418 
L 288.715262 403.464112 
L 294.460366 404.066017 
L 300.20547 404.307471 
L 305.950573 392.773827 
L 311.695677 395.234431 
L 317.440781 397.830206 
L 323.185884 393.473643 
L 328.930988 393.397358 
L 334.676092 393.659374 
L 340.421196 393.625473 
L 346.166299 399.583047 
L 351.911403 413.145446 
L 357.656507 416.079857 
L 363.401611 416.839584 
L 369.146714 419.100311 
L 374.891818 421.336897 
L 380.636922 427.412221 
L 386.382025 433.133435 
L 392.127129 437.384463 
L 397.872233 435.865879 
L 403.617337 435.644959 
L 409.36244 438.362434 
L 415.107544 442.604314 
L 420.852648 436.967724 
L 426.597751 446.214963 
L 432.342855 442.849163 
L 438.087959 448.757011 
L 443.833063 449.349408 
L 449.578166 444.358599 
L 455.32327 451.949413 
L 461.068374 454.254805 
L 466.813478 456.537772 
L 472.558581 457.588878 
L 478.303685 460.117524 
L 484.048789 461.152464 
L 489.793892 462.314665 
L 495.538996 456.369488 
L 501.2841 464.789286 
L 507.029204 462.739103 
L 512.774307 462.435276 
L 518.519411 460.600221 
L 524.264515 459.641957 
L 530.009618 462.019279 
L 535.754722 461.403335 
L 541.499826 463.490318 
L 547.24493 464.09669 
L 552.990033 464.538474 
L 558.735137 462.156063 
L 564.480241 462.57849 
L 570.225345 458.103126 
L 575.970448 458.398655 
L 581.715552 460.437245 
L 587.460656 461.989746 
L 593.205759 459.537896 
L 598.950863 456.620786 
L 604.695967 459.82016 
L 610.441071 463.260364 
L 616.186174 462.058742 
" clip-path="url(#p1932657428)" style="fill: none; stroke: #7b3ab8; stroke-width: 1.5; stroke-linecap: round"/>
   </g>
   <g id="patch_3">
    <path d="M 36.2 472.52 
L 36.2 39.6 
" style="fill: none; stroke: #ffffff; stroke-width: 0.8; stroke-linejoin: miter; stroke-linecap: square"/>
   </g>
   <g id="patch_4">
    <path d="M 623.801429 472.52 
L 623.801429 39.6 
" style="fill: none; stroke: #ffffff; stroke-width: 0.8; stroke-linejoin: miter; stroke-linecap: square"/>
   </g>
   <g id="patch_5">
    <path d="M 36.2 472.52 
L 623.801429 472.52 
" style="fill: none; stroke: #ffffff; stroke-width: 0.8; stroke-linejoin: miter; stroke-linecap: square"/>
   </g>
   <g id="patch_6">
    <path d="M 36.2 39.6 
L 623.801429 39.6 
" style="fill: none; stroke: #ffffff; stroke-width: 0.8; stroke-linejoin: miter; stroke-linecap: square"/>
   </g>
  </g>
  <g id="text_4">
   <!-- Acrobot-v1 | CMU-Net (AP) -->
   <g style="fill: #262626" transform="translate(189.268594 23.835938) scale(0.18 -0.18)">
    <defs>
     <path id="DejaVuSans-Bold-41" d="M 3419 850 
L 1538 850 
L 1241 0 
L 31 0 
L 1759 4666 
L 3194 4666 
L 4922 0 
L 3713 0 
L 3419 850 
z
M 1838 1716 
L 3116 1716 
L 2478 3572 
L 1838 1716 
z
" transform="scale(0.015625)"/>
     <path id="DejaVuSans-Bold-63" d="M 3366 3391 
L 3366 2478 
Q 3138 2634 2908 2709 
Q 2678 2784 2431 2784 
Q 1963 2784 1702 2511 
Q 1441 2238 1441 1747 
Q 1441 1256 1702 982 
Q 1963 709 2431 709 
Q 2694 709 2930 787 
Q 3166 866 3366 1019 
L 3366 103 
Q 3103 6 2833 -42 
Q 2563 -91 2291 -91 
Q 1344 -91 809 395 
Q 275 881 275 1747 
Q 275 2613 809 3098 
Q 1344 3584 2291 3584 
Q 2566 3584 2833 3536 
Q 3100 3488 3366 3391 
z
" transform="scale(0.015625)"/>
     <path id="DejaVuSans-Bold-72" d="M 3138 2547 
Q 2991 2616 2845 2648 
Q 2700 2681 2553 2681 
Q 2122 2681 1889 2404 
Q 1656 2128 1656 1613 
L 1656 0 
L 538 0 
L 538 3500 
L 1656 3500 
L 1656 2925 
Q 1872 3269 2151 3426 
Q 2431 3584 2822 3584 
Q 2878 3584 2943 3579 
Q 3009 3575 3134 3559 
L 3138 2547 
z
" transform="scale(0.015625)"/>
     <path id="DejaVuSans-Bold-6f" d="M 2203 2784 
Q 1831 2784 1636 2517 
Q 1441 2250 1441 1747 
Q 1441 1244 1636 976 
Q 1831 709 2203 709 
Q 2569 709 2762 976 
Q 2956 1244 2956 1747 
Q 2956 2250 2762 2517 
Q 2569 2784 2203 2784 
z
M 2203 3584 
Q 3106 3584 3614 3096 
Q 4122 2609 4122 1747 
Q 4122 884 3614 396 
Q 3106 -91 2203 -91 
Q 1297 -91 786 396 
Q 275 884 275 1747 
Q 275 2609 786 3096 
Q 1297 3584 2203 3584 
z
" transform="scale(0.015625)"/>
     <path id="DejaVuSans-Bold-62" d="M 2400 722 
Q 2759 722 2948 984 
Q 3138 1247 3138 1747 
Q 3138 2247 2948 2509 
Q 2759 2772 2400 2772 
Q 2041 2772 1848 2508 
Q 1656 2244 1656 1747 
Q 1656 1250 1848 986 
Q 2041 722 2400 722 
z
M 1656 2988 
Q 1888 3294 2169 3439 
Q 2450 3584 2816 3584 
Q 3463 3584 3878 3070 
Q 4294 2556 4294 1747 
Q 4294 938 3878 423 
Q 3463 -91 2816 -91 
Q 2450 -91 2169 54 
Q 1888 200 1656 506 
L 1656 0 
L 538 0 
L 538 4863 
L 1656 4863 
L 1656 2988 
z
" transform="scale(0.015625)"/>
     <path id="DejaVuSans-Bold-74" d="M 1759 4494 
L 1759 3500 
L 2913 3500 
L 2913 2700 
L 1759 2700 
L 1759 1216 
Q 1759 972 1856 886 
Q 1953 800 2241 800 
L 2816 800 
L 2816 0 
L 1856 0 
Q 1194 0 917 276 
Q 641 553 641 1216 
L 641 2700 
L 84 2700 
L 84 3500 
L 641 3500 
L 641 4494 
L 1759 4494 
z
" transform="scale(0.015625)"/>
     <path id="DejaVuSans-Bold-2d" d="M 347 2297 
L 2309 2297 
L 2309 1388 
L 347 1388 
L 347 2297 
z
" transform="scale(0.015625)"/>
     <path id="DejaVuSans-Bold-76" d="M 97 3500 
L 1216 3500 
L 2088 1081 
L 2956 3500 
L 4078 3500 
L 2700 0 
L 1472 0 
L 97 3500 
z
" transform="scale(0.015625)"/>
     <path id="DejaVuSans-Bold-31" d="M 750 831 
L 1813 831 
L 1813 3847 
L 722 3622 
L 722 4441 
L 1806 4666 
L 2950 4666 
L 2950 831 
L 4013 831 
L 4013 0 
L 750 0 
L 750 831 
z
" transform="scale(0.015625)"/>
     <path id="DejaVuSans-Bold-20" transform="scale(0.015625)"/>
     <path id="DejaVuSans-Bold-7c" d="M 1522 4891 
L 1522 -1509 
L 813 -1509 
L 813 4891 
L 1522 4891 
z
" transform="scale(0.015625)"/>
     <path id="DejaVuSans-Bold-43" d="M 4288 256 
Q 3956 84 3597 -3 
Q 3238 -91 2847 -91 
Q 1681 -91 1000 561 
Q 319 1213 319 2328 
Q 319 3447 1000 4098 
Q 1681 4750 2847 4750 
Q 3238 4750 3597 4662 
Q 3956 4575 4288 4403 
L 4288 3438 
Q 3953 3666 3628 3772 
Q 3303 3878 2944 3878 
Q 2300 3878 1931 3465 
Q 1563 3053 1563 2328 
Q 1563 1606 1931 1193 
Q 2300 781 2944 781 
Q 3303 781 3628 887 
Q 3953 994 4288 1222 
L 4288 256 
z
" transform="scale(0.015625)"/>
     <path id="DejaVuSans-Bold-4d" d="M 588 4666 
L 2119 4666 
L 3181 2169 
L 4250 4666 
L 5778 4666 
L 5778 0 
L 4641 0 
L 4641 3413 
L 3566 897 
L 2803 897 
L 1728 3413 
L 1728 0 
L 588 0 
L 588 4666 
z
" transform="scale(0.015625)"/>
     <path id="DejaVuSans-Bold-55" d="M 588 4666 
L 1791 4666 
L 1791 1869 
Q 1791 1291 1980 1042 
Q 2169 794 2597 794 
Q 3028 794 3217 1042 
Q 3406 1291 3406 1869 
L 3406 4666 
L 4609 4666 
L 4609 1869 
Q 4609 878 4112 393 
Q 3616 -91 2597 -91 
Q 1581 -91 1084 393 
Q 588 878 588 1869 
L 588 4666 
z
" transform="scale(0.015625)"/>
     <path id="DejaVuSans-Bold-4e" d="M 588 4666 
L 1931 4666 
L 3628 1466 
L 3628 4666 
L 4769 4666 
L 4769 0 
L 3425 0 
L 1728 3200 
L 1728 0 
L 588 0 
L 588 4666 
z
" transform="scale(0.015625)"/>
     <path id="DejaVuSans-Bold-65" d="M 4031 1759 
L 4031 1441 
L 1416 1441 
Q 1456 1047 1700 850 
Q 1944 653 2381 653 
Q 2734 653 3104 758 
Q 3475 863 3866 1075 
L 3866 213 
Q 3469 63 3072 -14 
Q 2675 -91 2278 -91 
Q 1328 -91 801 392 
Q 275 875 275 1747 
Q 275 2603 792 3093 
Q 1309 3584 2216 3584 
Q 3041 3584 3536 3087 
Q 4031 2591 4031 1759 
z
M 2881 2131 
Q 2881 2450 2695 2645 
Q 2509 2841 2209 2841 
Q 1884 2841 1681 2658 
Q 1478 2475 1428 2131 
L 2881 2131 
z
" transform="scale(0.015625)"/>
     <path id="DejaVuSans-Bold-28" d="M 2413 -844 
L 1484 -844 
Q 1006 -72 778 623 
Q 550 1319 550 2003 
Q 550 2688 779 3389 
Q 1009 4091 1484 4856 
L 2413 4856 
Q 2013 4116 1813 3408 
Q 1613 2700 1613 2009 
Q 1613 1319 1811 609 
Q 2009 -100 2413 -844 
z
" transform="scale(0.015625)"/>
     <path id="DejaVuSans-Bold-50" d="M 588 4666 
L 2584 4666 
Q 3475 4666 3951 4270 
Q 4428 3875 4428 3144 
Q 4428 2409 3951 2014 
Q 3475 1619 2584 1619 
L 1791 1619 
L 1791 0 
L 588 0 
L 588 4666 
z
M 1791 3794 
L 1791 2491 
L 2456 2491 
Q 2806 2491 2997 2661 
Q 3188 2831 3188 3144 
Q 3188 3456 2997 3625 
Q 2806 3794 2456 3794 
L 1791 3794 
z
" transform="scale(0.015625)"/>
     <path id="DejaVuSans-Bold-29" d="M 513 -844 
Q 913 -100 1113 609 
Q 1313 1319 1313 2009 
Q 1313 2700 1113 3408 
Q 913 4116 513 4856 
L 1441 4856 
Q 1916 4091 2145 3389 
Q 2375 2688 2375 2003 
Q 2375 1319 2147 623 
Q 1919 -72 1441 -844 
L 513 -844 
z
" transform="scale(0.015625)"/>
    </defs>
    <use xlink:href="#DejaVuSans-Bold-41"/>
    <use xlink:href="#DejaVuSans-Bold-63" transform="translate(77.392578 0)"/>
    <use xlink:href="#DejaVuSans-Bold-72" transform="translate(136.669922 0)"/>
    <use xlink:href="#DejaVuSans-Bold-6f" transform="translate(185.986328 0)"/>
    <use xlink:href="#DejaVuSans-Bold-62" transform="translate(254.6875 0)"/>
    <use xlink:href="#DejaVuSans-Bold-6f" transform="translate(326.269531 0)"/>
    <use xlink:href="#DejaVuSans-Bold-74" transform="translate(394.970703 0)"/>
    <use xlink:href="#DejaVuSans-Bold-2d" transform="translate(442.773438 0)"/>
    <use xlink:href="#DejaVuSans-Bold-76" transform="translate(484.277344 0)"/>
    <use xlink:href="#DejaVuSans-Bold-31" transform="translate(549.462891 0)"/>
    <use xlink:href="#DejaVuSans-Bold-20" transform="translate(619.042969 0)"/>
    <use xlink:href="#DejaVuSans-Bold-7c" transform="translate(653.857422 0)"/>
    <use xlink:href="#DejaVuSans-Bold-20" transform="translate(690.380859 0)"/>
    <use xlink:href="#DejaVuSans-Bold-43" transform="translate(725.195312 0)"/>
    <use xlink:href="#DejaVuSans-Bold-4d" transform="translate(798.583984 0)"/>
    <use xlink:href="#DejaVuSans-Bold-55" transform="translate(898.095703 0)"/>
    <use xlink:href="#DejaVuSans-Bold-2d" transform="translate(979.296875 0)"/>
    <use xlink:href="#DejaVuSans-Bold-4e" transform="translate(1020.800781 0)"/>
    <use xlink:href="#DejaVuSans-Bold-65" transform="translate(1104.492188 0)"/>
    <use xlink:href="#DejaVuSans-Bold-74" transform="translate(1172.314453 0)"/>
    <use xlink:href="#DejaVuSans-Bold-20" transform="translate(1220.117188 0)"/>
    <use xlink:href="#DejaVuSans-Bold-28" transform="translate(1254.931641 0)"/>
    <use xlink:href="#DejaVuSans-Bold-41" transform="translate(1300.634766 0)"/>
    <use xlink:href="#DejaVuSans-Bold-50" transform="translate(1378.027344 0)"/>
    <use xlink:href="#DejaVuSans-Bold-29" transform="translate(1451.318359 0)"/>
   </g>
  </g>
 </g>
 <defs>
  <clipPath id="p1932657428">
   <rect x="36.2" y="39.6" width="587.601429" height="432.92"/>
  </clipPath>
 </defs>
</svg>
