<?xml version="1.0" encoding="utf-8" standalone="no"?>
<!DOCTYPE svg PUBLIC "-//W3C//DTD SVG 1.1//EN"
  "http://www.w3.org/Graphics/SVG/1.1/DTD/svg11.dtd">
<svg xmlns:xlink="http://www.w3.org/1999/xlink" width="648pt" height="504pt" viewBox="0 0 648 504" xmlns="http://www.w3.org/2000/svg" version="1.1">
 <metadata>
  <rdf:RDF xmlns:dc="http://purl.org/dc/elements/1.1/" xmlns:cc="http://creativecommons.org/ns#" xmlns:rdf="http://www.w3.org/1999/02/22-rdf-syntax-ns#">
   <cc:Work>
    <dc:type rdf:resource="http://purl.org/dc/dcmitype/StillImage"/>
    <dc:date>2025-07-31T05:18:35.134756</dc:date>
    <dc:format>image/svg+xml</dc:format>
    <dc:creator>
     <cc:Agent>
      <dc:title>Matplotlib v3.10.0, https://matplotlib.org/</dc:title>
     </cc:Agent>
    </dc:creator>
   </cc:Work>
  </rdf:RDF>
 </metadata>
 <defs>
  <style type="text/css">*{stroke-linejoin: round; stroke-linecap: butt}</style>
 </defs>
 <g id="figure_1">
  <g id="patch_1">
   <path d="M 0 504 
L 648 504 
L 648 0 
L 0 0 
z
" style="fill: #ffffff"/>
  </g>
  <g id="axes_1">
   <g id="patch_2">
    <path d="M 36.2 472.52 
L 623.801429 472.52 
L 623.801429 39.6 
L 36.2 39.6 
z
" style="fill: #eaeaf2"/>
   </g>
   <g id="matplotlib.axis_1">
    <g id="xtick_1">
     <g id="line2d_1">
      <path d="M 47.420906 472.52 
L 47.420906 39.6 
" clip-path="url(#pb7d4ed3d06)" style="fill: none; stroke: #ffffff; stroke-width: 0.8; stroke-linecap: round"/>
     </g>
     <g id="text_1">
      <!-- 0 -->
      <g style="fill: #262626" transform="translate(42.967156 490.157813) scale(0.14 -0.14)">
       <defs>
        <path id="DejaVuSans-30" d="M 2034 4250 
Q 1547 4250 1301 3770 
Q 1056 3291 1056 2328 
Q 1056 1369 1301 889 
Q 1547 409 2034 409 
Q 2525 409 2770 889 
Q 3016 1369 3016 2328 
Q 3016 3291 2770 3770 
Q 2525 4250 2034 4250 
z
M 2034 4750 
Q 2819 4750 3233 4129 
Q 3647 3509 3647 2328 
Q 3647 1150 3233 529 
Q 2819 -91 2034 -91 
Q 1250 -91 836 529 
Q 422 1150 422 2328 
Q 422 3509 836 4129 
Q 1250 4750 2034 4750 
z
" transform="scale(0.015625)"/>
       </defs>
       <use xlink:href="#DejaVuSans-30"/>
      </g>
     </g>
    </g>
    <g id="xtick_2">
     <g id="line2d_2">
      <path d="M 608.466191 472.52 
L 608.466191 39.6 
" clip-path="url(#pb7d4ed3d06)" style="fill: none; stroke: #ffffff; stroke-width: 0.8; stroke-linecap: round"/>
     </g>
     <g id="text_2">
      <!-- 600000 -->
      <g style="fill: #262626" transform="translate(581.743691 490.157813) scale(0.14 -0.14)">
       <defs>
        <path id="DejaVuSans-36" d="M 2113 2584 
Q 1688 2584 1439 2293 
Q 1191 2003 1191 1497 
Q 1191 994 1439 701 
Q 1688 409 2113 409 
Q 2538 409 2786 701 
Q 3034 994 3034 1497 
Q 3034 2003 2786 2293 
Q 2538 2584 2113 2584 
z
M 3366 4563 
L 3366 3988 
Q 3128 4100 2886 4159 
Q 2644 4219 2406 4219 
Q 1781 4219 1451 3797 
Q 1122 3375 1075 2522 
Q 1259 2794 1537 2939 
Q 1816 3084 2150 3084 
Q 2853 3084 3261 2657 
Q 3669 2231 3669 1497 
Q 3669 778 3244 343 
Q 2819 -91 2113 -91 
Q 1303 -91 875 529 
Q 447 1150 447 2328 
Q 447 3434 972 4092 
Q 1497 4750 2381 4750 
Q 2619 4750 2861 4703 
Q 3103 4656 3366 4563 
z
" transform="scale(0.015625)"/>
       </defs>
       <use xlink:href="#DejaVuSans-36"/>
       <use xlink:href="#DejaVuSans-30" transform="translate(63.623047 0)"/>
       <use xlink:href="#DejaVuSans-30" transform="translate(127.246094 0)"/>
       <use xlink:href="#DejaVuSans-30" transform="translate(190.869141 0)"/>
       <use xlink:href="#DejaVuSans-30" transform="translate(254.492188 0)"/>
       <use xlink:href="#DejaVuSans-30" transform="translate(318.115234 0)"/>
      </g>
     </g>
    </g>
   </g>
   <g id="matplotlib.axis_2">
    <g id="ytick_1">
     <g id="line2d_3">
      <path d="M 36.2 464.789286 
L 623.801429 464.789286 
" clip-path="url(#pb7d4ed3d06)" style="fill: none; stroke: #ffffff; stroke-width: 0.8; stroke-linecap: round"/>
     </g>
    </g>
    <g id="ytick_2">
     <g id="line2d_4">
      <path d="M 36.2 416.472321 
L 623.801429 416.472321 
" clip-path="url(#pb7d4ed3d06)" style="fill: none; stroke: #ffffff; stroke-width: 0.8; stroke-linecap: round"/>
     </g>
    </g>
    <g id="ytick_3">
     <g id="line2d_5">
      <path d="M 36.2 368.155357 
L 623.801429 368.155357 
" clip-path="url(#pb7d4ed3d06)" style="fill: none; stroke: #ffffff; stroke-width: 0.8; stroke-linecap: round"/>
     </g>
    </g>
    <g id="ytick_4">
     <g id="line2d_6">
      <path d="M 36.2 319.838393 
L 623.801429 319.838393 
" clip-path="url(#pb7d4ed3d06)" style="fill: none; stroke: #ffffff; stroke-width: 0.8; stroke-linecap: round"/>
     </g>
    </g>
    <g id="ytick_5">
     <g id="line2d_7">
      <path d="M 36.2 271.521429 
L 623.801429 271.521429 
" clip-path="url(#pb7d4ed3d06)" style="fill: none; stroke: #ffffff; stroke-width: 0.8; stroke-linecap: round"/>
     </g>
    </g>
    <g id="ytick_6">
     <g id="line2d_8">
      <path d="M 36.2 223.204464 
L 623.801429 223.204464 
" clip-path="url(#pb7d4ed3d06)" style="fill: none; stroke: #ffffff; stroke-width: 0.8; stroke-linecap: round"/>
     </g>
    </g>
    <g id="ytick_7">
     <g id="line2d_9">
      <path d="M 36.2 174.8875 
L 623.801429 174.8875 
" clip-path="url(#pb7d4ed3d06)" style="fill: none; stroke: #ffffff; stroke-width: 0.8; stroke-linecap: round"/>
     </g>
    </g>
    <g id="ytick_8">
     <g id="line2d_10">
      <path d="M 36.2 126.570536 
L 623.801429 126.570536 
" clip-path="url(#pb7d4ed3d06)" style="fill: none; stroke: #ffffff; stroke-width: 0.8; stroke-linecap: round"/>
     </g>
    </g>
    <g id="ytick_9">
     <g id="line2d_11">
      <path d="M 36.2 78.253571 
L 623.801429 78.253571 
" clip-path="url(#pb7d4ed3d06)" style="fill: none; stroke: #ffffff; stroke-width: 0.8; stroke-linecap: round"/>
     </g>
    </g>
    <g id="text_3">
     <!-- Normalized Axis -->
     <g style="fill: #262626" transform="translate(21.8725 320.56875) rotate(-90) scale(0.16 -0.16)">
      <defs>
       <path id="DejaVuSans-4e" d="M 628 4666 
L 1478 4666 
L 3547 763 
L 3547 4666 
L 4159 4666 
L 4159 0 
L 3309 0 
L 1241 3903 
L 1241 0 
L 628 0 
L 628 4666 
z
" transform="scale(0.015625)"/>
       <path id="DejaVuSans-6f" d="M 1959 3097 
Q 1497 3097 1228 2736 
Q 959 2375 959 1747 
Q 959 1119 1226 758 
Q 1494 397 1959 397 
Q 2419 397 2687 759 
Q 2956 1122 2956 1747 
Q 2956 2369 2687 2733 
Q 2419 3097 1959 3097 
z
M 1959 3584 
Q 2709 3584 3137 3096 
Q 3566 2609 3566 1747 
Q 3566 888 3137 398 
Q 2709 -91 1959 -91 
Q 1206 -91 779 398 
Q 353 888 353 1747 
Q 353 2609 779 3096 
Q 1206 3584 1959 3584 
z
" transform="scale(0.015625)"/>
       <path id="DejaVuSans-72" d="M 2631 2963 
Q 2534 3019 2420 3045 
Q 2306 3072 2169 3072 
Q 1681 3072 1420 2755 
Q 1159 2438 1159 1844 
L 1159 0 
L 581 0 
L 581 3500 
L 1159 3500 
L 1159 2956 
Q 1341 3275 1631 3429 
Q 1922 3584 2338 3584 
Q 2397 3584 2469 3576 
Q 2541 3569 2628 3553 
L 2631 2963 
z
" transform="scale(0.015625)"/>
       <path id="DejaVuSans-6d" d="M 3328 2828 
Q 3544 3216 3844 3400 
Q 4144 3584 4550 3584 
Q 5097 3584 5394 3201 
Q 5691 2819 5691 2113 
L 5691 0 
L 5113 0 
L 5113 2094 
Q 5113 2597 4934 2840 
Q 4756 3084 4391 3084 
Q 3944 3084 3684 2787 
Q 3425 2491 3425 1978 
L 3425 0 
L 2847 0 
L 2847 2094 
Q 2847 2600 2669 2842 
Q 2491 3084 2119 3084 
Q 1678 3084 1418 2786 
Q 1159 2488 1159 1978 
L 1159 0 
L 581 0 
L 581 3500 
L 1159 3500 
L 1159 2956 
Q 1356 3278 1631 3431 
Q 1906 3584 2284 3584 
Q 2666 3584 2933 3390 
Q 3200 3197 3328 2828 
z
" transform="scale(0.015625)"/>
       <path id="DejaVuSans-61" d="M 2194 1759 
Q 1497 1759 1228 1600 
Q 959 1441 959 1056 
Q 959 750 1161 570 
Q 1363 391 1709 391 
Q 2188 391 2477 730 
Q 2766 1069 2766 1631 
L 2766 1759 
L 2194 1759 
z
M 3341 1997 
L 3341 0 
L 2766 0 
L 2766 531 
Q 2569 213 2275 61 
Q 1981 -91 1556 -91 
Q 1019 -91 701 211 
Q 384 513 384 1019 
Q 384 1609 779 1909 
Q 1175 2209 1959 2209 
L 2766 2209 
L 2766 2266 
Q 2766 2663 2505 2880 
Q 2244 3097 1772 3097 
Q 1472 3097 1187 3025 
Q 903 2953 641 2809 
L 641 3341 
Q 956 3463 1253 3523 
Q 1550 3584 1831 3584 
Q 2591 3584 2966 3190 
Q 3341 2797 3341 1997 
z
" transform="scale(0.015625)"/>
       <path id="DejaVuSans-6c" d="M 603 4863 
L 1178 4863 
L 1178 0 
L 603 0 
L 603 4863 
z
" transform="scale(0.015625)"/>
       <path id="DejaVuSans-69" d="M 603 3500 
L 1178 3500 
L 1178 0 
L 603 0 
L 603 3500 
z
M 603 4863 
L 1178 4863 
L 1178 4134 
L 603 4134 
L 603 4863 
z
" transform="scale(0.015625)"/>
       <path id="DejaVuSans-7a" d="M 353 3500 
L 3084 3500 
L 3084 2975 
L 922 459 
L 3084 459 
L 3084 0 
L 275 0 
L 275 525 
L 2438 3041 
L 353 3041 
L 353 3500 
z
" transform="scale(0.015625)"/>
       <path id="DejaVuSans-65" d="M 3597 1894 
L 3597 1613 
L 953 1613 
Q 991 1019 1311 708 
Q 1631 397 2203 397 
Q 2534 397 2845 478 
Q 3156 559 3463 722 
L 3463 178 
Q 3153 47 2828 -22 
Q 2503 -91 2169 -91 
Q 1331 -91 842 396 
Q 353 884 353 1716 
Q 353 2575 817 3079 
Q 1281 3584 2069 3584 
Q 2775 3584 3186 3129 
Q 3597 2675 3597 1894 
z
M 3022 2063 
Q 3016 2534 2758 2815 
Q 2500 3097 2075 3097 
Q 1594 3097 1305 2825 
Q 1016 2553 972 2059 
L 3022 2063 
z
" transform="scale(0.015625)"/>
       <path id="DejaVuSans-64" d="M 2906 2969 
L 2906 4863 
L 3481 4863 
L 3481 0 
L 2906 0 
L 2906 525 
Q 2725 213 2448 61 
Q 2172 -91 1784 -91 
Q 1150 -91 751 415 
Q 353 922 353 1747 
Q 353 2572 751 3078 
Q 1150 3584 1784 3584 
Q 2172 3584 2448 3432 
Q 2725 3281 2906 2969 
z
M 947 1747 
Q 947 1113 1208 752 
Q 1469 391 1925 391 
Q 2381 391 2643 752 
Q 2906 1113 2906 1747 
Q 2906 2381 2643 2742 
Q 2381 3103 1925 3103 
Q 1469 3103 1208 2742 
Q 947 2381 947 1747 
z
" transform="scale(0.015625)"/>
       <path id="DejaVuSans-20" transform="scale(0.015625)"/>
       <path id="DejaVuSans-41" d="M 2188 4044 
L 1331 1722 
L 3047 1722 
L 2188 4044 
z
M 1831 4666 
L 2547 4666 
L 4325 0 
L 3669 0 
L 3244 1197 
L 1141 1197 
L 716 0 
L 50 0 
L 1831 4666 
z
" transform="scale(0.015625)"/>
       <path id="DejaVuSans-78" d="M 3513 3500 
L 2247 1797 
L 3578 0 
L 2900 0 
L 1881 1375 
L 863 0 
L 184 0 
L 1544 1831 
L 300 3500 
L 978 3500 
L 1906 2253 
L 2834 3500 
L 3513 3500 
z
" transform="scale(0.015625)"/>
       <path id="DejaVuSans-73" d="M 2834 3397 
L 2834 2853 
Q 2591 2978 2328 3040 
Q 2066 3103 1784 3103 
Q 1356 3103 1142 2972 
Q 928 2841 928 2578 
Q 928 2378 1081 2264 
Q 1234 2150 1697 2047 
L 1894 2003 
Q 2506 1872 2764 1633 
Q 3022 1394 3022 966 
Q 3022 478 2636 193 
Q 2250 -91 1575 -91 
Q 1294 -91 989 -36 
Q 684 19 347 128 
L 347 722 
Q 666 556 975 473 
Q 1284 391 1588 391 
Q 1994 391 2212 530 
Q 2431 669 2431 922 
Q 2431 1156 2273 1281 
Q 2116 1406 1581 1522 
L 1381 1569 
Q 847 1681 609 1914 
Q 372 2147 372 2553 
Q 372 3047 722 3315 
Q 1072 3584 1716 3584 
Q 2034 3584 2315 3537 
Q 2597 3491 2834 3397 
z
" transform="scale(0.015625)"/>
      </defs>
      <use xlink:href="#DejaVuSans-4e"/>
      <use xlink:href="#DejaVuSans-6f" transform="translate(74.804688 0)"/>
      <use xlink:href="#DejaVuSans-72" transform="translate(135.986328 0)"/>
      <use xlink:href="#DejaVuSans-6d" transform="translate(175.349609 0)"/>
      <use xlink:href="#DejaVuSans-61" transform="translate(272.761719 0)"/>
      <use xlink:href="#DejaVuSans-6c" transform="translate(334.041016 0)"/>
      <use xlink:href="#DejaVuSans-69" transform="translate(361.824219 0)"/>
      <use xlink:href="#DejaVuSans-7a" transform="translate(389.607422 0)"/>
      <use xlink:href="#DejaVuSans-65" transform="translate(442.097656 0)"/>
      <use xlink:href="#DejaVuSans-64" transform="translate(503.621094 0)"/>
      <use xlink:href="#DejaVuSans-20" transform="translate(567.097656 0)"/>
      <use xlink:href="#DejaVuSans-41" transform="translate(598.884766 0)"/>
      <use xlink:href="#DejaVuSans-78" transform="translate(667.292969 0)"/>
      <use xlink:href="#DejaVuSans-69" transform="translate(726.472656 0)"/>
      <use xlink:href="#DejaVuSans-73" transform="translate(754.255859 0)"/>
     </g>
    </g>
   </g>
   <g id="FillBetweenPolyCollection_1">
    <path d="M 47.420906 464.789286 
L 47.420906 464.789286 
L 49.33594 464.789286 
L 51.250975 464.789286 
L 53.166009 464.789286 
L 55.081044 464.789286 
L 56.996079 464.789286 
L 58.911113 464.789286 
L 60.826148 464.789286 
L 62.741182 464.789286 
L 64.656217 464.789286 
L 66.571251 464.789286 
L 68.486286 464.789286 
L 70.401321 464.789286 
L 72.316355 464.789286 
L 74.23139 464.789286 
L 76.146424 464.789286 
L 78.061459 464.789286 
L 79.976493 464.789286 
L 81.891528 464.789286 
L 83.806563 464.789286 
L 85.721597 464.789286 
L 87.636632 464.789286 
L 89.551666 464.789286 
L 91.466701 464.789286 
L 93.381735 464.789286 
L 95.29677 464.789286 
L 97.211805 464.789286 
L 99.126839 464.789286 
L 101.041874 464.789286 
L 102.956908 464.789286 
L 104.871943 464.789286 
L 106.786978 464.789286 
L 108.702012 464.789286 
L 110.617047 464.789286 
L 112.532081 464.789286 
L 114.447116 464.789286 
L 116.36215 464.789286 
L 118.277185 464.789286 
L 120.19222 464.789286 
L 122.107254 464.789286 
L 124.022289 464.789286 
L 125.937323 464.789286 
L 127.852358 464.789286 
L 129.767392 464.789286 
L 131.682427 464.789286 
L 133.597462 464.789286 
L 135.512496 464.789286 
L 137.427531 464.789286 
L 139.342565 464.789286 
L 141.2576 464.789286 
L 143.172634 464.789286 
L 145.087669 464.789286 
L 147.002704 464.789286 
L 148.917738 464.789286 
L 150.832773 464.789286 
L 152.747807 464.789286 
L 154.662842 464.789286 
L 156.577876 464.789286 
L 158.492911 464.789286 
L 160.407946 464.789286 
L 162.32298 464.789286 
L 164.238015 464.789286 
L 166.153049 464.789286 
L 168.068084 464.789286 
L 169.983118 464.789286 
L 171.898153 464.789286 
L 173.813188 464.789286 
L 175.728222 464.789286 
L 177.643257 464.789286 
L 179.558291 464.789286 
L 181.473326 464.789286 
L 183.388361 464.789286 
L 185.303395 464.789286 
L 187.21843 464.789286 
L 189.133464 464.789286 
L 191.048499 464.789286 
L 192.963533 464.789286 
L 194.878568 464.789286 
L 196.793603 464.789286 
L 198.708637 464.789286 
L 200.623672 464.789286 
L 202.538706 464.789286 
L 204.453741 464.789286 
L 206.368775 464.789286 
L 208.28381 464.789286 
L 210.198845 464.789286 
L 212.113879 464.789286 
L 214.028914 464.789286 
L 215.943948 464.789286 
L 217.858983 464.789286 
L 219.774017 464.789286 
L 221.689052 464.789286 
L 223.604087 464.789286 
L 225.519121 464.789286 
L 227.434156 464.789286 
L 229.34919 464.789286 
L 231.264225 464.789286 
L 233.179259 464.789286 
L 235.094294 464.789286 
L 237.009329 464.789286 
L 238.924363 464.789286 
L 240.839398 464.789286 
L 242.754432 464.789286 
L 244.669467 464.789286 
L 246.584501 464.789286 
L 248.499536 464.789286 
L 250.414571 464.789286 
L 252.329605 464.789286 
L 254.24464 464.789286 
L 256.159674 464.789286 
L 258.074709 464.789286 
L 259.989743 464.789286 
L 261.904778 464.789286 
L 263.819813 464.789286 
L 265.734847 464.789286 
L 267.649882 464.789286 
L 269.564916 464.789286 
L 271.479951 464.789286 
L 273.394986 464.789286 
L 275.31002 464.789286 
L 277.225055 464.789286 
L 279.140089 464.789286 
L 281.055124 464.789286 
L 282.970158 464.789286 
L 284.885193 464.789286 
L 286.800228 464.789286 
L 288.715262 464.789286 
L 290.630297 464.789286 
L 292.545331 464.789286 
L 294.460366 464.789286 
L 296.3754 464.789286 
L 298.290435 464.789286 
L 300.20547 464.789286 
L 302.120504 464.789286 
L 304.035539 464.789286 
L 305.950573 464.789286 
L 307.865608 464.789286 
L 309.780642 464.789286 
L 311.695677 464.789286 
L 313.610712 464.789286 
L 315.525746 464.789286 
L 317.440781 464.789286 
L 319.355815 464.789286 
L 321.27085 464.789286 
L 323.185884 464.789286 
L 325.100919 464.789286 
L 327.015954 464.789286 
L 328.930988 464.789286 
L 330.846023 464.789286 
L 332.761057 464.789286 
L 334.676092 464.789286 
L 336.591126 464.789286 
L 338.506161 464.789286 
L 340.421196 464.789286 
L 342.33623 464.789286 
L 344.251265 464.789286 
L 346.166299 464.789286 
L 348.081334 464.789286 
L 349.996368 464.789286 
L 351.911403 464.789286 
L 353.826438 464.789286 
L 355.741472 464.789286 
L 357.656507 464.789286 
L 359.571541 464.789286 
L 361.486576 464.789286 
L 363.401611 464.789286 
L 365.316645 464.789286 
L 367.23168 464.789286 
L 369.146714 464.789286 
L 371.061749 464.789286 
L 372.976783 464.789286 
L 374.891818 464.789286 
L 376.806853 464.789286 
L 378.721887 464.789286 
L 380.636922 464.789286 
L 382.551956 464.789286 
L 384.466991 464.789286 
L 386.382025 464.789286 
L 388.29706 464.789286 
L 390.212095 464.789286 
L 392.127129 464.789286 
L 394.042164 464.789286 
L 395.957198 464.789286 
L 397.872233 464.789286 
L 399.787267 464.789286 
L 401.702302 464.789286 
L 403.617337 464.789286 
L 405.532371 464.789286 
L 407.447406 464.789286 
L 409.36244 464.789286 
L 411.277475 464.789286 
L 413.192509 464.789286 
L 415.107544 464.789286 
L 417.022579 464.789286 
L 418.937613 464.789286 
L 420.852648 464.789286 
L 422.767682 464.789286 
L 424.682717 464.789286 
L 426.597751 464.789286 
L 428.512786 464.789286 
L 430.427821 464.789286 
L 432.342855 464.789286 
L 434.25789 464.789286 
L 436.172924 464.789286 
L 438.087959 464.789286 
L 440.002993 464.789286 
L 441.918028 464.789286 
L 443.833063 464.789286 
L 445.748097 464.789286 
L 447.663132 464.789286 
L 449.578166 464.789286 
L 451.493201 464.789286 
L 453.408236 464.789286 
L 455.32327 464.789286 
L 457.238305 464.789286 
L 459.153339 464.789286 
L 461.068374 464.789286 
L 462.983408 464.789286 
L 464.898443 464.789286 
L 466.813478 464.789286 
L 468.728512 464.789286 
L 470.643547 464.789286 
L 472.558581 464.789286 
L 474.473616 464.789286 
L 476.38865 464.789286 
L 478.303685 464.789286 
L 480.21872 464.789286 
L 482.133754 464.789286 
L 484.048789 464.789286 
L 485.963823 464.789286 
L 487.878858 464.789286 
L 489.793892 464.789286 
L 491.708927 464.789286 
L 493.623962 464.789286 
L 495.538996 464.789286 
L 497.454031 464.789286 
L 499.369065 464.789286 
L 501.2841 464.789286 
L 503.199134 464.789286 
L 505.114169 464.789286 
L 507.029204 464.789286 
L 508.944238 464.789286 
L 510.859273 464.789286 
L 512.774307 464.789286 
L 514.689342 464.789286 
L 516.604376 464.789286 
L 518.519411 464.789286 
L 520.434446 464.789286 
L 522.34948 464.789286 
L 524.264515 464.789286 
L 526.179549 464.789286 
L 528.094584 464.789286 
L 530.009618 464.789286 
L 531.924653 464.789286 
L 533.839688 464.789286 
L 535.754722 464.789286 
L 537.669757 464.789286 
L 539.584791 464.789286 
L 541.499826 464.789286 
L 543.414861 464.789286 
L 545.329895 464.789286 
L 547.24493 464.789286 
L 549.159964 464.789286 
L 551.074999 464.789286 
L 552.990033 464.789286 
L 554.905068 464.789286 
L 556.820103 464.789286 
L 558.735137 464.789286 
L 560.650172 464.789286 
L 562.565206 464.789286 
L 564.480241 464.789286 
L 566.395275 464.789286 
L 568.31031 464.789286 
L 570.225345 464.789286 
L 572.140379 464.789286 
L 574.055414 464.789286 
L 575.970448 464.789286 
L 577.885483 464.789286 
L 579.800517 464.789286 
L 581.715552 464.789286 
L 583.630587 464.789286 
L 585.545621 464.789286 
L 587.460656 464.789286 
L 589.37569 464.789286 
L 591.290725 464.789286 
L 593.205759 464.789286 
L 595.120794 464.789286 
L 597.035829 464.789286 
L 598.950863 464.789286 
L 600.865898 464.789286 
L 602.780932 464.789286 
L 604.695967 464.789286 
L 606.611001 464.789286 
L 608.526036 464.789286 
L 610.441071 464.789286 
L 612.356105 464.789286 
L 614.27114 464.789286 
L 616.186174 464.789286 
L 618.101209 464.789286 
L 620.016243 464.789286 
L 620.016243 464.789286 
L 620.016243 464.789286 
L 618.101209 464.789286 
L 616.186174 464.789286 
L 614.27114 464.789286 
L 612.356105 464.789286 
L 610.441071 464.789286 
L 608.526036 464.789286 
L 606.611001 464.789286 
L 604.695967 464.789286 
L 602.780932 464.789286 
L 600.865898 464.789286 
L 598.950863 464.789286 
L 597.035829 464.789286 
L 595.120794 464.789286 
L 593.205759 464.789286 
L 591.290725 464.789286 
L 589.37569 464.789286 
L 587.460656 464.789286 
L 585.545621 464.789286 
L 583.630587 464.789286 
L 581.715552 464.789286 
L 579.800517 464.789286 
L 577.885483 464.789286 
L 575.970448 464.789286 
L 574.055414 464.789286 
L 572.140379 464.789286 
L 570.225345 464.789286 
L 568.31031 464.789286 
L 566.395275 464.789286 
L 564.480241 464.789286 
L 562.565206 464.789286 
L 560.650172 464.789286 
L 558.735137 464.789286 
L 556.820103 464.789286 
L 554.905068 464.789286 
L 552.990033 464.789286 
L 551.074999 464.789286 
L 549.159964 464.789286 
L 547.24493 464.789286 
L 545.329895 464.789286 
L 543.414861 464.789286 
L 541.499826 464.789286 
L 539.584791 464.789286 
L 537.669757 464.789286 
L 535.754722 464.789286 
L 533.839688 464.789286 
L 531.924653 464.789286 
L 530.009618 464.789286 
L 528.094584 464.789286 
L 526.179549 464.789286 
L 524.264515 464.789286 
L 522.34948 464.789286 
L 520.434446 464.789286 
L 518.519411 464.789286 
L 516.604376 464.789286 
L 514.689342 464.789286 
L 512.774307 464.789286 
L 510.859273 464.789286 
L 508.944238 464.789286 
L 507.029204 464.789286 
L 505.114169 464.789286 
L 503.199134 464.789286 
L 501.2841 464.789286 
L 499.369065 464.789286 
L 497.454031 464.789286 
L 495.538996 464.789286 
L 493.623962 464.789286 
L 491.708927 464.789286 
L 489.793892 464.789286 
L 487.878858 464.789286 
L 485.963823 464.789286 
L 484.048789 464.789286 
L 482.133754 464.789286 
L 480.21872 464.789286 
L 478.303685 464.789286 
L 476.38865 464.789286 
L 474.473616 464.789286 
L 472.558581 464.789286 
L 470.643547 464.789286 
L 468.728512 464.789286 
L 466.813478 464.789286 
L 464.898443 464.789286 
L 462.983408 464.789286 
L 461.068374 464.789286 
L 459.153339 464.789286 
L 457.238305 464.789286 
L 455.32327 464.789286 
L 453.408236 464.789286 
L 451.493201 464.789286 
L 449.578166 464.789286 
L 447.663132 464.789286 
L 445.748097 464.789286 
L 443.833063 464.789286 
L 441.918028 464.789286 
L 440.002993 464.789286 
L 438.087959 464.789286 
L 436.172924 464.789286 
L 434.25789 464.789286 
L 432.342855 464.789286 
L 430.427821 464.789286 
L 428.512786 464.789286 
L 426.597751 464.789286 
L 424.682717 464.789286 
L 422.767682 464.789286 
L 420.852648 464.789286 
L 418.937613 464.789286 
L 417.022579 464.789286 
L 415.107544 464.789286 
L 413.192509 464.789286 
L 411.277475 464.789286 
L 409.36244 464.789286 
L 407.447406 464.789286 
L 405.532371 464.789286 
L 403.617337 464.789286 
L 401.702302 464.789286 
L 399.787267 464.789286 
L 397.872233 464.789286 
L 395.957198 464.789286 
L 394.042164 464.789286 
L 392.127129 464.789286 
L 390.212095 464.789286 
L 388.29706 464.789286 
L 386.382025 464.789286 
L 384.466991 464.789286 
L 382.551956 464.789286 
L 380.636922 464.789286 
L 378.721887 464.789286 
L 376.806853 464.789286 
L 374.891818 464.789286 
L 372.976783 464.789286 
L 371.061749 464.789286 
L 369.146714 464.789286 
L 367.23168 464.789286 
L 365.316645 464.789286 
L 363.401611 464.789286 
L 361.486576 464.789286 
L 359.571541 464.789286 
L 357.656507 464.789286 
L 355.741472 464.789286 
L 353.826438 464.789286 
L 351.911403 464.789286 
L 349.996368 464.789286 
L 348.081334 464.789286 
L 346.166299 464.789286 
L 344.251265 464.789286 
L 342.33623 464.789286 
L 340.421196 464.789286 
L 338.506161 464.789286 
L 336.591126 464.789286 
L 334.676092 464.789286 
L 332.761057 464.789286 
L 330.846023 464.789286 
L 328.930988 464.789286 
L 327.015954 464.789286 
L 325.100919 464.789286 
L 323.185884 464.789286 
L 321.27085 464.789286 
L 319.355815 464.789286 
L 317.440781 464.789286 
L 315.525746 464.789286 
L 313.610712 464.789286 
L 311.695677 464.789286 
L 309.780642 464.789286 
L 307.865608 464.789286 
L 305.950573 464.789286 
L 304.035539 464.789286 
L 302.120504 464.789286 
L 300.20547 464.789286 
L 298.290435 464.789286 
L 296.3754 464.789286 
L 294.460366 464.789286 
L 292.545331 464.789286 
L 290.630297 464.789286 
L 288.715262 464.789286 
L 286.800228 464.789286 
L 284.885193 464.789286 
L 282.970158 464.789286 
L 281.055124 464.789286 
L 279.140089 464.789286 
L 277.225055 464.789286 
L 275.31002 464.789286 
L 273.394986 464.789286 
L 271.479951 464.789286 
L 269.564916 464.789286 
L 267.649882 464.789286 
L 265.734847 464.789286 
L 263.819813 464.789286 
L 261.904778 464.789286 
L 259.989743 464.789286 
L 258.074709 464.789286 
L 256.159674 464.789286 
L 254.24464 464.789286 
L 252.329605 464.789286 
L 250.414571 464.789286 
L 248.499536 464.789286 
L 246.584501 464.789286 
L 244.669467 464.789286 
L 242.754432 464.789286 
L 240.839398 464.789286 
L 238.924363 464.789286 
L 237.009329 464.789286 
L 235.094294 464.789286 
L 233.179259 464.789286 
L 231.264225 464.789286 
L 229.34919 464.789286 
L 227.434156 464.789286 
L 225.519121 464.789286 
L 223.604087 464.789286 
L 221.689052 464.789286 
L 219.774017 464.789286 
L 217.858983 464.789286 
L 215.943948 464.789286 
L 214.028914 464.789286 
L 212.113879 464.789286 
L 210.198845 464.789286 
L 208.28381 464.789286 
L 206.368775 464.789286 
L 204.453741 464.789286 
L 202.538706 464.789286 
L 200.623672 464.789286 
L 198.708637 464.789286 
L 196.793603 464.789286 
L 194.878568 464.789286 
L 192.963533 464.789286 
L 191.048499 464.789286 
L 189.133464 464.789286 
L 187.21843 464.789286 
L 185.303395 464.789286 
L 183.388361 464.789286 
L 181.473326 464.789286 
L 179.558291 464.789286 
L 177.643257 464.789286 
L 175.728222 464.789286 
L 173.813188 464.789286 
L 171.898153 464.789286 
L 169.983118 464.789286 
L 168.068084 464.789286 
L 166.153049 464.789286 
L 164.238015 464.789286 
L 162.32298 464.789286 
L 160.407946 464.789286 
L 158.492911 464.789286 
L 156.577876 464.789286 
L 154.662842 464.789286 
L 152.747807 464.789286 
L 150.832773 464.789286 
L 148.917738 464.789286 
L 147.002704 464.789286 
L 145.087669 464.789286 
L 143.172634 464.789286 
L 141.2576 464.789286 
L 139.342565 464.789286 
L 137.427531 464.789286 
L 135.512496 464.789286 
L 133.597462 464.789286 
L 131.682427 464.789286 
L 129.767392 464.789286 
L 127.852358 464.789286 
L 125.937323 464.789286 
L 124.022289 464.789286 
L 122.107254 464.789286 
L 120.19222 464.789286 
L 118.277185 464.789286 
L 116.36215 464.789286 
L 114.447116 464.789286 
L 112.532081 464.789286 
L 110.617047 464.789286 
L 108.702012 464.789286 
L 106.786978 464.789286 
L 104.871943 464.789286 
L 102.956908 464.789286 
L 101.041874 464.789286 
L 99.126839 464.789286 
L 97.211805 464.789286 
L 95.29677 464.789286 
L 93.381735 464.789286 
L 91.466701 464.789286 
L 89.551666 464.789286 
L 87.636632 464.789286 
L 85.721597 464.789286 
L 83.806563 464.789286 
L 81.891528 464.789286 
L 79.976493 464.789286 
L 78.061459 464.789286 
L 76.146424 464.789286 
L 74.23139 464.789286 
L 72.316355 464.789286 
L 70.401321 464.789286 
L 68.486286 464.789286 
L 66.571251 464.789286 
L 64.656217 464.789286 
L 62.741182 464.789286 
L 60.826148 464.789286 
L 58.911113 464.789286 
L 56.996079 464.789286 
L 55.081044 464.789286 
L 53.166009 464.789286 
L 51.250975 464.789286 
L 49.33594 464.789286 
L 47.420906 464.789286 
z
" clip-path="url(#pb7d4ed3d06)" style="fill: #00b899; fill-opacity: 0.1"/>
   </g>
   <g id="FillBetweenPolyCollection_2">
    <path d="M 47.420906 79.346664 
L 47.420906 103.992987 
L 49.33594 110.248465 
L 51.250975 121.600254 
L 53.166009 136.192853 
L 55.081044 152.118799 
L 56.996079 167.941006 
L 58.911113 182.923081 
L 60.826148 196.943155 
L 62.741182 210.218896 
L 64.656217 223.02626 
L 66.571251 235.523718 
L 68.486286 247.70451 
L 70.401321 259.461664 
L 72.316355 270.707951 
L 74.23139 281.456393 
L 76.146424 291.813141 
L 78.061459 301.902026 
L 79.976493 311.763725 
L 81.891528 321.302261 
L 83.806563 330.362283 
L 85.721597 338.87445 
L 87.636632 346.898033 
L 89.551666 354.529246 
L 91.466701 361.827752 
L 93.381735 368.840813 
L 95.29677 375.627296 
L 97.211805 382.205979 
L 99.126839 388.515212 
L 101.041874 394.470498 
L 102.956908 400.053438 
L 104.871943 405.32402 
L 106.786978 410.357206 
L 108.702012 415.167763 
L 110.617047 419.677739 
L 112.532081 423.779757 
L 114.447116 427.459414 
L 116.36215 430.818215 
L 118.277185 433.947487 
L 120.19222 436.833554 
L 122.107254 439.417335 
L 124.022289 441.685465 
L 125.937323 443.657087 
L 127.852358 445.331377 
L 129.767392 446.712312 
L 131.682427 447.875187 
L 133.597462 448.961868 
L 135.512496 450.090174 
L 137.427531 451.272214 
L 139.342565 452.407958 
L 141.2576 453.341553 
L 143.172634 453.944911 
L 145.087669 454.195117 
L 147.002704 454.207508 
L 148.917738 454.196965 
L 150.832773 454.377676 
L 152.747807 454.849254 
L 154.662842 455.544476 
L 156.577876 456.279207 
L 158.492911 456.871107 
L 160.407946 457.24293 
L 162.32298 457.447 
L 164.238015 457.607694 
L 166.153049 457.835548 
L 168.068084 458.173422 
L 169.983118 458.599909 
L 171.898153 459.069438 
L 173.813188 459.549211 
L 175.728222 460.025985 
L 177.643257 460.493671 
L 179.558291 460.94572 
L 181.473326 461.375961 
L 183.388361 461.772462 
L 185.303395 462.11898 
L 187.21843 462.419621 
L 189.133464 462.717121 
L 191.048499 463.062366 
L 192.963533 463.462043 
L 194.878568 463.867705 
L 196.793603 464.220929 
L 198.708637 464.494412 
L 200.623672 464.692404 
L 202.538706 464.834649 
L 204.453741 464.952757 
L 206.368775 465.079488 
L 208.28381 465.223489 
L 210.198845 465.355639 
L 212.113879 465.426703 
L 214.028914 465.402833 
L 215.943948 465.294728 
L 217.858983 465.149151 
L 219.774017 465.0084 
L 221.689052 464.879788 
L 223.604087 464.742305 
L 225.519121 464.566664 
L 227.434156 464.323034 
L 229.34919 463.986911 
L 231.264225 463.556724 
L 233.179259 463.056706 
L 235.094294 462.517894 
L 237.009329 461.974328 
L 238.924363 461.486003 
L 240.839398 461.13692 
L 242.754432 460.985161 
L 244.669467 461.021131 
L 246.584501 461.183121 
L 248.499536 461.402029 
L 250.414571 461.631308 
L 252.329605 461.853553 
L 254.24464 462.072143 
L 256.159674 462.291758 
L 258.074709 462.500866 
L 259.989743 462.674336 
L 261.904778 462.795325 
L 263.819813 462.874384 
L 265.734847 462.944175 
L 267.649882 463.034118 
L 269.564916 463.150712 
L 271.479951 463.279377 
L 273.394986 463.400876 
L 275.31002 463.507118 
L 277.225055 463.602345 
L 279.140089 463.688579 
L 281.055124 463.756394 
L 282.970158 463.797142 
L 284.885193 463.820199 
L 286.800228 463.850316 
L 288.715262 463.908823 
L 290.630297 464.00009 
L 292.545331 464.11374 
L 294.460366 464.236328 
L 296.3754 464.361305 
L 298.290435 464.491174 
L 300.20547 464.6337 
L 302.120504 464.79593 
L 304.035539 464.975918 
L 305.950573 465.155997 
L 307.865608 465.309711 
L 309.780642 465.42007 
L 311.695677 465.485784 
L 313.610712 465.509686 
L 315.525746 465.493646 
L 317.440781 465.450944 
L 319.355815 465.413055 
L 321.27085 465.413777 
L 323.185884 465.46361 
L 325.100919 465.542177 
L 327.015954 465.621105 
L 328.930988 465.693204 
L 330.846023 465.772943 
L 332.761057 465.870733 
L 334.676092 465.973576 
L 336.591126 466.050864 
L 338.506161 466.077673 
L 340.421196 466.055374 
L 342.33623 466.011993 
L 344.251265 465.982173 
L 346.166299 465.984943 
L 348.081334 466.014079 
L 349.996368 466.041486 
L 351.911403 466.03381 
L 353.826438 465.977221 
L 355.741472 465.890019 
L 357.656507 465.808614 
L 359.571541 465.761128 
L 361.486576 465.753594 
L 363.401611 465.774485 
L 365.316645 465.803876 
L 367.23168 465.818429 
L 369.146714 465.798373 
L 371.061749 465.739101 
L 372.976783 465.654759 
L 374.891818 465.566172 
L 376.806853 465.484505 
L 378.721887 465.406646 
L 380.636922 465.326597 
L 382.551956 465.252121 
L 384.466991 465.206791 
L 386.382025 465.211496 
L 388.29706 465.267313 
L 390.212095 465.359586 
L 392.127129 465.470317 
L 394.042164 465.57912 
L 395.957198 465.662058 
L 397.872233 465.70457 
L 399.787267 465.716106 
L 401.702302 465.725947 
L 403.617337 465.764551 
L 405.532371 465.845236 
L 407.447406 465.952718 
L 409.36244 466.04849 
L 411.277475 466.099282 
L 413.192509 466.105094 
L 415.107544 466.095645 
L 417.022579 466.103329 
L 418.937613 466.143605 
L 420.852648 466.209855 
L 422.767682 466.275064 
L 424.682717 466.305038 
L 426.597751 466.282487 
L 428.512786 466.22252 
L 430.427821 466.164664 
L 432.342855 466.149796 
L 434.25789 466.199858 
L 436.172924 466.308511 
L 438.087959 466.444185 
L 440.002993 466.564855 
L 441.918028 466.635362 
L 443.833063 466.637318 
L 445.748097 466.573556 
L 447.663132 466.467457 
L 449.578166 466.351129 
L 451.493201 466.249098 
L 453.408236 466.17126 
L 455.32327 466.113687 
L 457.238305 466.06146 
L 459.153339 465.999111 
L 461.068374 465.924801 
L 462.983408 465.850623 
L 464.898443 465.788066 
L 466.813478 465.738036 
L 468.728512 465.693885 
L 470.643547 465.6495 
L 472.558581 465.605277 
L 474.473616 465.569146 
L 476.38865 465.55069 
L 478.303685 465.550444 
L 480.21872 465.555058 
L 482.133754 465.550304 
L 484.048789 465.543318 
L 485.963823 465.563787 
L 487.878858 465.633535 
L 489.793892 465.736317 
L 491.708927 465.823304 
L 493.623962 465.850926 
L 495.538996 465.815789 
L 497.454031 465.755792 
L 499.369065 465.716341 
L 501.2841 465.712193 
L 503.199134 465.721997 
L 505.114169 465.719244 
L 507.029204 465.702419 
L 508.944238 465.6925 
L 510.859273 465.708984 
L 512.774307 465.75473 
L 514.689342 465.818717 
L 516.604376 465.884402 
L 518.519411 465.935255 
L 520.434446 465.960674 
L 522.34948 465.962442 
L 524.264515 465.953215 
L 526.179549 465.946458 
L 528.094584 465.949151 
L 530.009618 465.96211 
L 531.924653 465.981853 
L 533.839688 466.002742 
L 535.754722 466.022239 
L 537.669757 466.043972 
L 539.584791 466.07112 
L 541.499826 466.098105 
L 543.414861 466.115393 
L 545.329895 466.122829 
L 547.24493 466.131802 
L 549.159964 466.152734 
L 551.074999 466.184898 
L 552.990033 466.219994 
L 554.905068 466.253389 
L 556.820103 466.290865 
L 558.735137 466.343416 
L 560.650172 466.413478 
L 562.565206 466.487707 
L 564.480241 466.546994 
L 566.395275 466.582614 
L 568.31031 466.599641 
L 570.225345 466.607368 
L 572.140379 466.611326 
L 574.055414 466.612162 
L 575.970448 466.606193 
L 577.885483 466.587379 
L 579.800517 466.553287 
L 581.715552 466.510275 
L 583.630587 466.471144 
L 585.545621 466.447097 
L 587.460656 466.441114 
L 589.37569 466.447033 
L 591.290725 466.455255 
L 593.205759 466.461461 
L 595.120794 466.469624 
L 597.035829 466.485253 
L 598.950863 466.506592 
L 600.865898 466.524102 
L 602.780932 466.528068 
L 604.695967 466.515666 
L 606.611001 466.490735 
L 608.526036 466.4573 
L 610.441071 466.416116 
L 612.356105 466.370766 
L 614.27114 466.333716 
L 616.186174 466.318622 
L 618.101209 466.325115 
L 620.016243 466.336681 
L 620.016243 463.072104 
L 620.016243 463.072104 
L 618.101209 463.074692 
L 616.186174 463.055886 
L 614.27114 462.995241 
L 612.356105 462.897303 
L 610.441071 462.785638 
L 608.526036 462.684317 
L 606.611001 462.60804 
L 604.695967 462.561919 
L 602.780932 462.541931 
L 600.865898 462.534532 
L 598.950863 462.519209 
L 597.035829 462.476551 
L 595.120794 462.401641 
L 593.205759 462.311739 
L 591.290725 462.233157 
L 589.37569 462.176919 
L 587.460656 462.133422 
L 585.545621 462.090913 
L 583.630587 462.049262 
L 581.715552 462.014516 
L 579.800517 461.99179 
L 577.885483 461.986318 
L 575.970448 462.000151 
L 574.055414 462.023648 
L 572.140379 462.038007 
L 570.225345 462.030428 
L 568.31031 462.003143 
L 566.395275 461.97214 
L 564.480241 461.963635 
L 562.565206 461.998855 
L 560.650172 462.06379 
L 558.735137 462.104113 
L 556.820103 462.076769 
L 554.905068 462.007828 
L 552.990033 461.975757 
L 551.074999 462.032009 
L 549.159964 462.15642 
L 547.24493 462.292497 
L 545.329895 462.402587 
L 543.414861 462.476863 
L 541.499826 462.507341 
L 539.584791 462.479971 
L 537.669757 462.397359 
L 535.754722 462.293841 
L 533.839688 462.214559 
L 531.924653 462.182725 
L 530.009618 462.192068 
L 528.094584 462.224343 
L 526.179549 462.264575 
L 524.264515 462.301306 
L 522.34948 462.323489 
L 520.434446 462.326472 
L 518.519411 462.319876 
L 516.604376 462.320392 
L 514.689342 462.331155 
L 512.774307 462.334093 
L 510.859273 462.309764 
L 508.944238 462.261892 
L 507.029204 462.215953 
L 505.114169 462.194381 
L 503.199134 462.193705 
L 501.2841 462.181422 
L 499.369065 462.119546 
L 497.454031 462.006399 
L 495.538996 461.89738 
L 493.623962 461.871267 
L 491.708927 461.96874 
L 489.793892 462.161676 
L 487.878858 462.374328 
L 485.963823 462.534096 
L 484.048789 462.615453 
L 482.133754 462.641632 
L 480.21872 462.643133 
L 478.303685 462.623963 
L 476.38865 462.574465 
L 474.473616 462.500025 
L 472.558581 462.419076 
L 470.643547 462.338495 
L 468.728512 462.241712 
L 466.813478 462.099174 
L 464.898443 461.888981 
L 462.983408 461.613388 
L 461.068374 461.300371 
L 459.153339 460.989342 
L 457.238305 460.707961 
L 455.32327 460.451795 
L 453.408236 460.183391 
L 451.493201 459.857345 
L 449.578166 459.458277 
L 447.663132 459.028202 
L 445.748097 458.659058 
L 443.833063 458.443571 
L 441.918028 458.41933 
L 440.002993 458.556472 
L 438.087959 458.789165 
L 436.172924 459.043519 
L 434.25789 459.244866 
L 432.342855 459.33336 
L 430.427821 459.293598 
L 428.512786 459.166185 
L 426.597751 459.026543 
L 424.682717 458.948633 
L 422.767682 458.9734 
L 420.852648 459.092308 
L 418.937613 459.253093 
L 417.022579 459.388935 
L 415.107544 459.460109 
L 413.192509 459.48227 
L 411.277475 459.514589 
L 409.36244 459.613424 
L 407.447406 459.791162 
L 405.532371 460.008439 
L 403.617337 460.200076 
L 401.702302 460.322921 
L 399.787267 460.391985 
L 397.872233 460.461948 
L 395.957198 460.562668 
L 394.042164 460.663041 
L 392.127129 460.710877 
L 390.212095 460.694201 
L 388.29706 460.639415 
L 386.382025 460.554963 
L 384.466991 460.406836 
L 382.551956 460.160277 
L 380.636922 459.827918 
L 378.721887 459.45881 
L 376.806853 459.081372 
L 374.891818 458.678681 
L 372.976783 458.238434 
L 371.061749 457.813158 
L 369.146714 457.498135 
L 367.23168 457.340274 
L 365.316645 457.284682 
L 363.401611 457.220085 
L 361.486576 457.066271 
L 359.571541 456.812332 
L 357.656507 456.492873 
L 355.741472 456.16222 
L 353.826438 455.890178 
L 351.911403 455.738392 
L 349.996368 455.714139 
L 348.081334 455.762546 
L 346.166299 455.810078 
L 344.251265 455.802765 
L 342.33623 455.721393 
L 340.421196 455.598264 
L 338.506161 455.513417 
L 336.591126 455.540089 
L 334.676092 455.686437 
L 332.761057 455.89306 
L 330.846023 456.074995 
L 328.930988 456.167017 
L 327.015954 456.148556 
L 325.100919 456.037496 
L 323.185884 455.862131 
L 321.27085 455.6417 
L 319.355815 455.388789 
L 317.440781 455.122415 
L 315.525746 454.877792 
L 313.610712 454.694924 
L 311.695677 454.596772 
L 309.780642 454.597642 
L 307.865608 454.72824 
L 305.950573 455.013558 
L 304.035539 455.416258 
L 302.120504 455.832733 
L 300.20547 456.160504 
L 298.290435 456.356201 
L 296.3754 456.432332 
L 294.460366 456.430893 
L 292.545331 456.409805 
L 290.630297 456.4212 
L 288.715262 456.471758 
L 286.800228 456.511873 
L 284.885193 456.485442 
L 282.970158 456.391576 
L 281.055124 456.283226 
L 279.140089 456.201367 
L 277.225055 456.123881 
L 275.31002 455.989472 
L 273.394986 455.759218 
L 271.479951 455.442437 
L 269.564916 455.066376 
L 267.649882 454.643354 
L 265.734847 454.185194 
L 263.819813 453.741272 
L 261.904778 453.383395 
L 259.989743 453.13978 
L 258.074709 452.972658 
L 256.159674 452.831328 
L 254.24464 452.689043 
L 252.329605 452.514595 
L 250.414571 452.243421 
L 248.499536 451.785857 
L 246.584501 451.017268 
L 244.669467 449.748278 
L 242.754432 447.780301 
L 240.839398 445.078009 
L 238.924363 441.88758 
L 237.009329 438.631038 
L 235.094294 435.66352 
L 233.179259 433.145692 
L 231.264225 431.102812 
L 229.34919 429.507426 
L 227.434156 428.269285 
L 225.519121 427.213042 
L 223.604087 426.148794 
L 221.689052 424.989458 
L 219.774017 423.786464 
L 217.858983 422.653943 
L 215.943948 421.680464 
L 214.028914 420.913033 
L 212.113879 420.379164 
L 210.198845 420.067717 
L 208.28381 419.888068 
L 206.368775 419.681482 
L 204.453741 419.296655 
L 202.538706 418.669678 
L 200.623672 417.850312 
L 198.708637 416.976484 
L 196.793603 416.221366 
L 194.878568 415.695159 
L 192.963533 415.347559 
L 191.048499 415.003098 
L 189.133464 414.539015 
L 187.21843 413.996624 
L 185.303395 413.480762 
L 183.388361 412.994939 
L 181.473326 412.440209 
L 179.558291 411.753589 
L 177.643257 410.986184 
L 175.728222 410.242166 
L 173.813188 409.594606 
L 171.898153 409.067993 
L 169.983118 408.636212 
L 168.068084 408.212873 
L 166.153049 407.705504 
L 164.238015 407.105716 
L 162.32298 406.479066 
L 160.407946 405.872412 
L 158.492911 405.290565 
L 156.577876 404.737146 
L 154.662842 404.200122 
L 152.747807 403.597694 
L 150.832773 402.790155 
L 148.917738 401.666265 
L 147.002704 400.232174 
L 145.087669 398.637918 
L 143.172634 397.121755 
L 141.2576 395.91067 
L 139.342565 395.131368 
L 137.427531 394.754984 
L 135.512496 394.564281 
L 133.597462 394.17136 
L 131.682427 393.165277 
L 129.767392 391.375506 
L 127.852358 389.005275 
L 125.937323 386.436931 
L 124.022289 383.904077 
L 122.107254 381.39962 
L 120.19222 378.84612 
L 118.277185 376.217346 
L 116.36215 373.451306 
L 114.447116 370.364717 
L 112.532081 366.77178 
L 110.617047 362.677815 
L 108.702012 358.289975 
L 106.786978 353.818822 
L 104.871943 349.273297 
L 102.956908 344.443541 
L 101.041874 339.067722 
L 99.126839 333.014754 
L 97.211805 326.323611 
L 95.29677 319.097992 
L 93.381735 311.377914 
L 91.466701 303.112553 
L 89.551666 294.22981 
L 87.636632 284.693069 
L 85.721597 274.49467 
L 83.806563 263.649394 
L 81.891528 252.224509 
L 79.976493 240.358025 
L 78.061459 228.223976 
L 76.146424 215.986303 
L 74.23139 203.795508 
L 72.316355 191.809065 
L 70.401321 180.185616 
L 68.486286 169.047753 
L 66.571251 158.435375 
L 64.656217 148.284391 
L 62.741182 138.459053 
L 60.826148 128.836144 
L 58.911113 119.398265 
L 56.996079 110.273532 
L 55.081044 101.686185 
L 53.166009 93.888943 
L 51.250975 87.202412 
L 49.33594 82.13384 
L 47.420906 79.346664 
z
" clip-path="url(#pb7d4ed3d06)" style="fill: #2ca02c; fill-opacity: 0.1"/>
   </g>
   <g id="FillBetweenPolyCollection_3">
    <path d="M 47.420906 464.789286 
L 47.420906 464.789286 
L 49.33594 464.789286 
L 51.250975 464.789286 
L 53.166009 464.789286 
L 55.081044 464.789286 
L 56.996079 464.789286 
L 58.911113 464.789286 
L 60.826148 464.789286 
L 62.741182 464.789286 
L 64.656217 464.789286 
L 66.571251 464.789286 
L 68.486286 464.789286 
L 70.401321 464.789286 
L 72.316355 464.789286 
L 74.23139 464.789286 
L 76.146424 464.789286 
L 78.061459 464.789286 
L 79.976493 464.789286 
L 81.891528 464.789286 
L 83.806563 464.789286 
L 85.721597 464.789286 
L 87.636632 464.789286 
L 89.551666 464.789286 
L 91.466701 464.789286 
L 93.381735 464.789286 
L 95.29677 464.789286 
L 97.211805 464.789286 
L 99.126839 464.789286 
L 101.041874 464.789286 
L 102.956908 464.789286 
L 104.871943 464.789286 
L 106.786978 464.789286 
L 108.702012 464.789286 
L 110.617047 464.789286 
L 112.532081 464.789286 
L 114.447116 464.789286 
L 116.36215 464.789286 
L 118.277185 464.789286 
L 120.19222 464.789286 
L 122.107254 464.789286 
L 124.022289 464.789286 
L 125.937323 464.789286 
L 127.852358 464.789286 
L 129.767392 464.789286 
L 131.682427 464.789286 
L 133.597462 464.789286 
L 135.512496 464.789286 
L 137.427531 464.789286 
L 139.342565 464.789286 
L 141.2576 464.789286 
L 143.172634 464.789286 
L 145.087669 464.789286 
L 147.002704 464.789286 
L 148.917738 464.789286 
L 150.832773 464.789286 
L 152.747807 464.789286 
L 154.662842 464.789286 
L 156.577876 464.789286 
L 158.492911 464.789286 
L 160.407946 464.789286 
L 162.32298 464.789286 
L 164.238015 464.789286 
L 166.153049 464.789286 
L 168.068084 464.789286 
L 169.983118 464.789286 
L 171.898153 464.789286 
L 173.813188 464.789286 
L 175.728222 464.789286 
L 177.643257 464.789286 
L 179.558291 464.789286 
L 181.473326 464.789286 
L 183.388361 464.789286 
L 185.303395 464.789286 
L 187.21843 464.789286 
L 189.133464 464.789286 
L 191.048499 464.789286 
L 192.963533 464.789286 
L 194.878568 464.789286 
L 196.793603 464.789286 
L 198.708637 464.789286 
L 200.623672 464.789286 
L 202.538706 464.789286 
L 204.453741 464.789286 
L 206.368775 464.789286 
L 208.28381 464.789286 
L 210.198845 464.789286 
L 212.113879 464.789286 
L 214.028914 464.789286 
L 215.943948 464.789286 
L 217.858983 464.789286 
L 219.774017 464.789286 
L 221.689052 464.789286 
L 223.604087 464.789286 
L 225.519121 464.789286 
L 227.434156 464.789286 
L 229.34919 464.789286 
L 231.264225 464.789286 
L 233.179259 464.789286 
L 235.094294 464.789286 
L 237.009329 464.789286 
L 238.924363 464.789286 
L 240.839398 464.789286 
L 242.754432 464.789286 
L 244.669467 464.789286 
L 246.584501 464.789286 
L 248.499536 464.789286 
L 250.414571 464.789286 
L 252.329605 464.789286 
L 254.24464 464.789286 
L 256.159674 464.789286 
L 258.074709 464.789286 
L 259.989743 464.789286 
L 261.904778 464.789286 
L 263.819813 464.789286 
L 265.734847 464.789286 
L 267.649882 464.789286 
L 269.564916 464.789286 
L 271.479951 464.789286 
L 273.394986 464.789286 
L 275.31002 464.789286 
L 277.225055 464.789286 
L 279.140089 464.789286 
L 281.055124 464.789286 
L 282.970158 464.789286 
L 284.885193 464.789286 
L 286.800228 464.789286 
L 288.715262 464.789286 
L 290.630297 464.789286 
L 292.545331 464.789286 
L 294.460366 464.789286 
L 296.3754 464.789286 
L 298.290435 464.789286 
L 300.20547 464.789286 
L 302.120504 464.789286 
L 304.035539 464.789286 
L 305.950573 464.789286 
L 307.865608 464.789286 
L 309.780642 464.789286 
L 311.695677 464.789286 
L 313.610712 464.789286 
L 315.525746 464.789286 
L 317.440781 464.789286 
L 319.355815 464.789286 
L 321.27085 464.789286 
L 323.185884 464.789286 
L 325.100919 464.789286 
L 327.015954 464.789286 
L 328.930988 464.789286 
L 330.846023 464.789286 
L 332.761057 464.789286 
L 334.676092 464.789286 
L 336.591126 464.789286 
L 338.506161 464.789286 
L 340.421196 464.789286 
L 342.33623 464.789286 
L 344.251265 464.789286 
L 346.166299 464.789286 
L 348.081334 464.789286 
L 349.996368 464.789286 
L 351.911403 464.789286 
L 353.826438 464.789286 
L 355.741472 464.789286 
L 357.656507 464.789286 
L 359.571541 464.789286 
L 361.486576 464.789286 
L 363.401611 464.789286 
L 365.316645 464.789286 
L 367.23168 464.789286 
L 369.146714 464.789286 
L 371.061749 464.789286 
L 372.976783 464.789286 
L 374.891818 464.789286 
L 376.806853 464.789286 
L 378.721887 464.789286 
L 380.636922 464.789286 
L 382.551956 464.789286 
L 384.466991 464.789286 
L 386.382025 464.789286 
L 388.29706 464.789286 
L 390.212095 464.789286 
L 392.127129 464.789286 
L 394.042164 464.789286 
L 395.957198 464.789286 
L 397.872233 464.789286 
L 399.787267 464.789286 
L 401.702302 464.789286 
L 403.617337 464.789286 
L 405.532371 464.789286 
L 407.447406 464.789286 
L 409.36244 464.789286 
L 411.277475 464.789286 
L 413.192509 464.789286 
L 415.107544 464.789286 
L 417.022579 464.789286 
L 418.937613 464.789286 
L 420.852648 464.789286 
L 422.767682 464.789286 
L 424.682717 464.789286 
L 426.597751 464.789286 
L 428.512786 464.789286 
L 430.427821 464.789286 
L 432.342855 464.789286 
L 434.25789 464.789286 
L 436.172924 464.789286 
L 438.087959 464.789286 
L 440.002993 464.789286 
L 441.918028 464.789286 
L 443.833063 464.789286 
L 445.748097 464.789286 
L 447.663132 464.789286 
L 449.578166 464.789286 
L 451.493201 464.789286 
L 453.408236 464.789286 
L 455.32327 464.789286 
L 457.238305 464.789286 
L 459.153339 464.789286 
L 461.068374 464.789286 
L 462.983408 464.789286 
L 464.898443 464.789286 
L 466.813478 464.789286 
L 468.728512 464.789286 
L 470.643547 464.789286 
L 472.558581 464.789286 
L 474.473616 464.789286 
L 476.38865 464.789286 
L 478.303685 464.789286 
L 480.21872 464.789286 
L 482.133754 464.789286 
L 484.048789 464.789286 
L 485.963823 464.789286 
L 487.878858 464.789286 
L 489.793892 464.789286 
L 491.708927 464.789286 
L 493.623962 464.789286 
L 495.538996 464.789286 
L 497.454031 464.789286 
L 499.369065 464.789286 
L 501.2841 464.789286 
L 503.199134 464.789286 
L 505.114169 464.789286 
L 507.029204 464.789286 
L 508.944238 464.789286 
L 510.859273 464.789286 
L 512.774307 464.789286 
L 514.689342 464.789286 
L 516.604376 464.789286 
L 518.519411 464.789286 
L 520.434446 464.789286 
L 522.34948 464.789286 
L 524.264515 464.789286 
L 526.179549 464.789286 
L 528.094584 464.789286 
L 530.009618 464.789286 
L 531.924653 464.789286 
L 533.839688 464.789286 
L 535.754722 464.789286 
L 537.669757 464.789286 
L 539.584791 464.789286 
L 541.499826 464.789286 
L 543.414861 464.789286 
L 545.329895 464.789286 
L 547.24493 464.789286 
L 549.159964 464.789286 
L 551.074999 464.789286 
L 552.990033 464.789286 
L 554.905068 464.789286 
L 556.820103 464.789286 
L 558.735137 464.789286 
L 560.650172 464.789286 
L 562.565206 464.789286 
L 564.480241 464.789286 
L 566.395275 464.789286 
L 568.31031 464.789286 
L 570.225345 464.789286 
L 572.140379 464.789286 
L 574.055414 464.789286 
L 575.970448 464.789286 
L 577.885483 464.789286 
L 579.800517 464.789286 
L 581.715552 464.789286 
L 583.630587 464.789286 
L 585.545621 464.789286 
L 587.460656 464.789286 
L 589.37569 464.789286 
L 591.290725 464.789286 
L 593.205759 464.789286 
L 595.120794 464.789286 
L 597.035829 464.789286 
L 598.950863 464.789286 
L 600.865898 464.789286 
L 602.780932 464.789286 
L 604.695967 464.789286 
L 606.611001 464.789286 
L 608.526036 464.789286 
L 610.441071 464.789286 
L 612.356105 464.789286 
L 614.27114 464.789286 
L 616.186174 464.789286 
L 618.101209 464.789286 
L 620.016243 464.789286 
L 620.016243 464.789286 
L 620.016243 464.789286 
L 618.101209 464.789286 
L 616.186174 464.789286 
L 614.27114 464.789286 
L 612.356105 464.789286 
L 610.441071 464.789286 
L 608.526036 464.789286 
L 606.611001 464.789286 
L 604.695967 464.789286 
L 602.780932 464.789286 
L 600.865898 464.789286 
L 598.950863 464.789286 
L 597.035829 464.789286 
L 595.120794 464.789286 
L 593.205759 464.789286 
L 591.290725 464.789286 
L 589.37569 464.789286 
L 587.460656 464.789286 
L 585.545621 464.789286 
L 583.630587 464.789286 
L 581.715552 464.789286 
L 579.800517 464.789286 
L 577.885483 464.789286 
L 575.970448 464.789286 
L 574.055414 464.789286 
L 572.140379 464.789286 
L 570.225345 464.789286 
L 568.31031 464.789286 
L 566.395275 464.789286 
L 564.480241 464.789286 
L 562.565206 464.789286 
L 560.650172 464.789286 
L 558.735137 464.789286 
L 556.820103 464.789286 
L 554.905068 464.789286 
L 552.990033 464.789286 
L 551.074999 464.789286 
L 549.159964 464.789286 
L 547.24493 464.789286 
L 545.329895 464.789286 
L 543.414861 464.789286 
L 541.499826 464.789286 
L 539.584791 464.789286 
L 537.669757 464.789286 
L 535.754722 464.789286 
L 533.839688 464.789286 
L 531.924653 464.789286 
L 530.009618 464.789286 
L 528.094584 464.789286 
L 526.179549 464.789286 
L 524.264515 464.789286 
L 522.34948 464.789286 
L 520.434446 464.789286 
L 518.519411 464.789286 
L 516.604376 464.789286 
L 514.689342 464.789286 
L 512.774307 464.789286 
L 510.859273 464.789286 
L 508.944238 464.789286 
L 507.029204 464.789286 
L 505.114169 464.789286 
L 503.199134 464.789286 
L 501.2841 464.789286 
L 499.369065 464.789286 
L 497.454031 464.789286 
L 495.538996 464.789286 
L 493.623962 464.789286 
L 491.708927 464.789286 
L 489.793892 464.789286 
L 487.878858 464.789286 
L 485.963823 464.789286 
L 484.048789 464.789286 
L 482.133754 464.789286 
L 480.21872 464.789286 
L 478.303685 464.789286 
L 476.38865 464.789286 
L 474.473616 464.789286 
L 472.558581 464.789286 
L 470.643547 464.789286 
L 468.728512 464.789286 
L 466.813478 464.789286 
L 464.898443 464.789286 
L 462.983408 464.789286 
L 461.068374 464.789286 
L 459.153339 464.789286 
L 457.238305 464.789286 
L 455.32327 464.789286 
L 453.408236 464.789286 
L 451.493201 464.789286 
L 449.578166 464.789286 
L 447.663132 464.789286 
L 445.748097 464.789286 
L 443.833063 464.789286 
L 441.918028 464.789286 
L 440.002993 464.789286 
L 438.087959 464.789286 
L 436.172924 464.789286 
L 434.25789 464.789286 
L 432.342855 464.789286 
L 430.427821 464.789286 
L 428.512786 464.789286 
L 426.597751 464.789286 
L 424.682717 464.789286 
L 422.767682 464.789286 
L 420.852648 464.789286 
L 418.937613 464.789286 
L 417.022579 464.789286 
L 415.107544 464.789286 
L 413.192509 464.789286 
L 411.277475 464.789286 
L 409.36244 464.789286 
L 407.447406 464.789286 
L 405.532371 464.789286 
L 403.617337 464.789286 
L 401.702302 464.789286 
L 399.787267 464.789286 
L 397.872233 464.789286 
L 395.957198 464.789286 
L 394.042164 464.789286 
L 392.127129 464.789286 
L 390.212095 464.789286 
L 388.29706 464.789286 
L 386.382025 464.789286 
L 384.466991 464.789286 
L 382.551956 464.789286 
L 380.636922 464.789286 
L 378.721887 464.789286 
L 376.806853 464.789286 
L 374.891818 464.789286 
L 372.976783 464.789286 
L 371.061749 464.789286 
L 369.146714 464.789286 
L 367.23168 464.789286 
L 365.316645 464.789286 
L 363.401611 464.789286 
L 361.486576 464.789286 
L 359.571541 464.789286 
L 357.656507 464.789286 
L 355.741472 464.789286 
L 353.826438 464.789286 
L 351.911403 464.789286 
L 349.996368 464.789286 
L 348.081334 464.789286 
L 346.166299 464.789286 
L 344.251265 464.789286 
L 342.33623 464.789286 
L 340.421196 464.789286 
L 338.506161 464.789286 
L 336.591126 464.789286 
L 334.676092 464.789286 
L 332.761057 464.789286 
L 330.846023 464.789286 
L 328.930988 464.789286 
L 327.015954 464.789286 
L 325.100919 464.789286 
L 323.185884 464.789286 
L 321.27085 464.789286 
L 319.355815 464.789286 
L 317.440781 464.789286 
L 315.525746 464.789286 
L 313.610712 464.789286 
L 311.695677 464.789286 
L 309.780642 464.789286 
L 307.865608 464.789286 
L 305.950573 464.789286 
L 304.035539 464.789286 
L 302.120504 464.789286 
L 300.20547 464.789286 
L 298.290435 464.789286 
L 296.3754 464.789286 
L 294.460366 464.789286 
L 292.545331 464.789286 
L 290.630297 464.789286 
L 288.715262 464.789286 
L 286.800228 464.789286 
L 284.885193 464.789286 
L 282.970158 464.789286 
L 281.055124 464.789286 
L 279.140089 464.789286 
L 277.225055 464.789286 
L 275.31002 464.789286 
L 273.394986 464.789286 
L 271.479951 464.789286 
L 269.564916 464.789286 
L 267.649882 464.789286 
L 265.734847 464.789286 
L 263.819813 464.789286 
L 261.904778 464.789286 
L 259.989743 464.789286 
L 258.074709 464.789286 
L 256.159674 464.789286 
L 254.24464 464.789286 
L 252.329605 464.789286 
L 250.414571 464.789286 
L 248.499536 464.789286 
L 246.584501 464.789286 
L 244.669467 464.789286 
L 242.754432 464.789286 
L 240.839398 464.789286 
L 238.924363 464.789286 
L 237.009329 464.789286 
L 235.094294 464.789286 
L 233.179259 464.789286 
L 231.264225 464.789286 
L 229.34919 464.789286 
L 227.434156 464.789286 
L 225.519121 464.789286 
L 223.604087 464.789286 
L 221.689052 464.789286 
L 219.774017 464.789286 
L 217.858983 464.789286 
L 215.943948 464.789286 
L 214.028914 464.789286 
L 212.113879 464.789286 
L 210.198845 464.789286 
L 208.28381 464.789286 
L 206.368775 464.789286 
L 204.453741 464.789286 
L 202.538706 464.789286 
L 200.623672 464.789286 
L 198.708637 464.789286 
L 196.793603 464.789286 
L 194.878568 464.789286 
L 192.963533 464.789286 
L 191.048499 464.789286 
L 189.133464 464.789286 
L 187.21843 464.789286 
L 185.303395 464.789286 
L 183.388361 464.789286 
L 181.473326 464.789286 
L 179.558291 464.789286 
L 177.643257 464.789286 
L 175.728222 464.789286 
L 173.813188 464.789286 
L 171.898153 464.789286 
L 169.983118 464.789286 
L 168.068084 464.789286 
L 166.153049 464.789286 
L 164.238015 464.789286 
L 162.32298 464.789286 
L 160.407946 464.789286 
L 158.492911 464.789286 
L 156.577876 464.789286 
L 154.662842 464.789286 
L 152.747807 464.789286 
L 150.832773 464.789286 
L 148.917738 464.789286 
L 147.002704 464.789286 
L 145.087669 464.789286 
L 143.172634 464.789286 
L 141.2576 464.789286 
L 139.342565 464.789286 
L 137.427531 464.789286 
L 135.512496 464.789286 
L 133.597462 464.789286 
L 131.682427 464.789286 
L 129.767392 464.789286 
L 127.852358 464.789286 
L 125.937323 464.789286 
L 124.022289 464.789286 
L 122.107254 464.789286 
L 120.19222 464.789286 
L 118.277185 464.789286 
L 116.36215 464.789286 
L 114.447116 464.789286 
L 112.532081 464.789286 
L 110.617047 464.789286 
L 108.702012 464.789286 
L 106.786978 464.789286 
L 104.871943 464.789286 
L 102.956908 464.789286 
L 101.041874 464.789286 
L 99.126839 464.789286 
L 97.211805 464.789286 
L 95.29677 464.789286 
L 93.381735 464.789286 
L 91.466701 464.789286 
L 89.551666 464.789286 
L 87.636632 464.789286 
L 85.721597 464.789286 
L 83.806563 464.789286 
L 81.891528 464.789286 
L 79.976493 464.789286 
L 78.061459 464.789286 
L 76.146424 464.789286 
L 74.23139 464.789286 
L 72.316355 464.789286 
L 70.401321 464.789286 
L 68.486286 464.789286 
L 66.571251 464.789286 
L 64.656217 464.789286 
L 62.741182 464.789286 
L 60.826148 464.789286 
L 58.911113 464.789286 
L 56.996079 464.789286 
L 55.081044 464.789286 
L 53.166009 464.789286 
L 51.250975 464.789286 
L 49.33594 464.789286 
L 47.420906 464.789286 
z
" clip-path="url(#pb7d4ed3d06)" style="fill: #d62728; fill-opacity: 0.1"/>
   </g>
   <g id="line2d_12">
    <path d="M 36.2 271.521429 
L 623.801429 271.521429 
" clip-path="url(#pb7d4ed3d06)" style="fill: none; stroke-dasharray: 2.96,1.28; stroke-dashoffset: 0; stroke: #808080; stroke-width: 0.8"/>
   </g>
   <g id="line2d_13">
    <path d="M 47.420906 464.789286 
L 620.016243 464.789286 
L 620.016243 464.789286 
" clip-path="url(#pb7d4ed3d06)" style="fill: none; stroke: #00b899; stroke-width: 2; stroke-linecap: round"/>
   </g>
   <g id="line2d_14">
    <path d="M 47.420906 91.669825 
L 49.33594 96.191153 
L 51.250975 104.401333 
L 53.166009 115.040898 
L 64.656217 185.655325 
L 79.976493 276.060875 
L 83.806563 297.005839 
L 87.636632 315.795551 
L 91.466701 332.470152 
L 95.29677 347.362644 
L 99.126839 360.764983 
L 101.041874 366.76911 
L 102.956908 372.24849 
L 106.786978 382.088014 
L 110.617047 391.177777 
L 112.532081 395.275769 
L 114.447116 398.912066 
L 116.36215 402.134761 
L 120.19222 407.839837 
L 124.022289 412.794771 
L 127.852358 417.168326 
L 129.767392 419.043909 
L 131.682427 420.520232 
L 133.597462 421.566614 
L 141.2576 424.626112 
L 145.087669 426.416517 
L 148.917738 427.931615 
L 158.492911 431.080836 
L 162.32298 431.963033 
L 169.983118 433.61806 
L 173.813188 434.571909 
L 183.388361 437.3837 
L 198.708637 440.735448 
L 202.538706 441.752163 
L 204.453741 442.124706 
L 208.28381 442.555779 
L 212.113879 442.902934 
L 215.943948 443.487596 
L 219.774017 444.397432 
L 223.604087 445.445549 
L 231.264225 447.329768 
L 233.179259 448.101199 
L 235.094294 449.090707 
L 237.009329 450.302683 
L 242.754432 454.382731 
L 244.669467 455.384704 
L 246.584501 456.100194 
L 248.499536 456.593943 
L 252.329605 457.184074 
L 267.649882 458.838736 
L 273.394986 459.580047 
L 277.225055 459.863113 
L 286.800228 460.181095 
L 292.545331 460.261773 
L 298.290435 460.423687 
L 302.120504 460.314331 
L 307.865608 460.018975 
L 311.695677 460.041278 
L 317.440781 460.286679 
L 328.930988 460.930111 
L 353.826438 460.9337 
L 372.976783 461.946596 
L 380.636922 462.577258 
L 386.382025 462.883229 
L 394.042164 463.12108 
L 403.617337 462.982313 
L 413.192509 462.793682 
L 445.748097 462.616307 
L 464.898443 463.838523 
L 470.643547 463.993998 
L 485.963823 464.048941 
L 497.454031 463.881095 
L 507.029204 463.959186 
L 545.329895 464.262708 
L 552.990033 464.097876 
L 572.140379 464.324666 
L 591.290725 464.344206 
L 604.695967 464.538793 
L 620.016243 464.704392 
L 620.016243 464.704392 
" clip-path="url(#pb7d4ed3d06)" style="fill: none; stroke: #2ca02c; stroke-width: 2; stroke-linecap: round"/>
   </g>
   <g id="line2d_15">
    <path d="M 47.420906 464.789286 
L 620.016243 464.789286 
L 620.016243 464.789286 
" clip-path="url(#pb7d4ed3d06)" style="fill: none; stroke: #d62728; stroke-width: 2; stroke-linecap: round"/>
   </g>
   <g id="line2d_16">
    <path d="M 47.420906 446.789503 
L 49.33594 450.72224 
L 51.250975 435.399981 
L 53.166009 456.410376 
L 55.081044 429.242798 
L 56.996079 443.654918 
L 58.911113 439.682157 
L 60.826148 410.25532 
L 62.741182 407.554272 
L 64.656217 372.344745 
L 66.571251 380.922104 
L 68.486286 387.696787 
L 70.401321 390.644442 
L 72.316355 390.177613 
L 74.23139 409.70017 
L 76.146424 392.938111 
L 78.061459 377.462666 
L 79.976493 344.837691 
L 81.891528 358.077995 
L 83.806563 351.382944 
L 85.721597 349.748715 
L 87.636632 340.832368 
L 89.551666 348.718074 
L 93.381735 360.593846 
L 95.29677 338.805581 
L 97.211805 345.904912 
L 99.126839 343.823015 
L 101.041874 311.220298 
L 102.956908 324.642456 
L 104.871943 333.637809 
L 106.786978 330.993845 
L 108.702012 306.14144 
L 110.617047 287.844144 
L 112.532081 304.429273 
L 114.447116 317.309549 
L 116.36215 293.888449 
L 118.277185 300.202618 
L 120.19222 295.495612 
L 122.107254 274.489904 
L 124.022289 281.275489 
L 125.937323 293.279635 
L 127.852358 278.556255 
L 129.767392 270.490879 
L 131.682427 282.668064 
L 133.597462 273.134379 
L 135.512496 251.683178 
L 137.427531 293.000607 
L 139.342565 266.912998 
L 141.2576 258.410146 
L 143.172634 255.946946 
L 145.087669 277.005395 
L 147.002704 256.731958 
L 148.917738 268.457682 
L 150.832773 235.181597 
L 152.747807 237.901738 
L 154.662842 255.061149 
L 156.577876 250.812121 
L 158.492911 240.833677 
L 160.407946 233.987315 
L 162.32298 231.277817 
L 164.238015 223.972006 
L 166.153049 209.896198 
L 168.068084 204.11536 
L 169.983118 208.197749 
L 171.898153 194.849777 
L 173.813188 203.996222 
L 175.728222 198.287166 
L 177.643257 187.351963 
L 181.473326 208.008493 
L 183.388361 205.426287 
L 185.303395 197.756161 
L 187.21843 206.955225 
L 189.133464 197.52904 
L 191.048499 192.142634 
L 192.963533 205.839856 
L 194.878568 195.117989 
L 196.793603 186.273863 
L 198.708637 196.518949 
L 200.623672 199.069534 
L 202.538706 195.328498 
L 204.453741 188.265806 
L 206.368775 208.264354 
L 208.28381 229.798715 
L 210.198845 197.034393 
L 212.113879 199.288441 
L 214.028914 203.968797 
L 215.943948 189.279509 
L 217.858983 166.36707 
L 219.774017 190.685748 
L 221.689052 184.004329 
L 223.604087 187.515842 
L 225.519121 188.171969 
L 227.434156 209.379917 
L 229.34919 192.177446 
L 231.264225 211.568709 
L 233.179259 190.203331 
L 235.094294 190.392229 
L 237.009329 186.214038 
L 238.924363 197.298723 
L 240.839398 172.842131 
L 242.754432 178.958258 
L 244.669467 196.076386 
L 246.584501 197.393176 
L 248.499536 171.501459 
L 250.414571 182.632579 
L 252.329605 175.573638 
L 254.24464 175.18183 
L 256.159674 170.174505 
L 258.074709 174.230183 
L 259.989743 173.595705 
L 261.904778 168.82498 
L 263.819813 175.196736 
L 265.734847 177.522147 
L 267.649882 178.848105 
L 269.564916 181.895693 
L 271.479951 191.275342 
L 273.394986 173.099409 
L 275.31002 170.615879 
L 277.225055 167.438112 
L 279.140089 184.94935 
L 281.055124 164.954966 
L 282.970158 185.126579 
L 284.885193 158.962972 
L 286.800228 165.698905 
L 288.715262 166.527686 
L 290.630297 161.796123 
L 292.545331 162.105868 
L 294.460366 156.705716 
L 296.3754 140.429636 
L 298.290435 157.221207 
L 300.20547 172.940664 
L 302.120504 171.841458 
L 304.035539 168.023962 
L 305.950573 174.169116 
L 307.865608 161.161865 
L 309.780642 172.545939 
L 311.695677 165.645405 
L 313.610712 156.405649 
L 315.525746 158.036042 
L 317.440781 156.904825 
L 319.355815 150.548124 
L 321.27085 156.020522 
L 323.185884 137.062671 
L 325.100919 108.870986 
L 327.015954 143.836409 
L 328.930988 115.960823 
L 330.846023 149.923485 
L 332.761057 143.655025 
L 334.676092 148.492249 
L 336.591126 143.454593 
L 338.506161 152.974528 
L 340.421196 137.966357 
L 342.33623 111.281455 
L 344.251265 110.42995 
L 346.166299 124.715399 
L 348.081334 123.218084 
L 349.996368 134.985969 
L 351.911403 123.230182 
L 353.826438 136.134377 
L 355.741472 115.67652 
L 357.656507 126.270607 
L 359.571541 134.54945 
L 361.486576 119.042453 
L 363.401611 121.53515 
L 365.316645 141.080597 
L 367.23168 139.466324 
L 369.146714 142.774002 
L 371.061749 144.010788 
L 372.976783 140.374663 
L 374.891818 148.502501 
L 376.806853 115.904971 
L 378.721887 133.043125 
L 380.636922 132.574221 
L 382.551956 115.181108 
L 384.466991 124.743848 
L 386.382025 122.14986 
L 388.29706 138.467703 
L 390.212095 141.675731 
L 392.127129 134.255916 
L 394.042164 144.21687 
L 395.957198 127.856805 
L 397.872233 136.973663 
L 399.787267 135.808096 
L 401.702302 124.149626 
L 403.617337 125.573056 
L 405.532371 136.802585 
L 407.447406 135.256384 
L 409.36244 147.034909 
L 411.277475 156.404168 
L 413.192509 135.908517 
L 415.107544 132.500242 
L 417.022579 144.08018 
L 418.937613 134.38679 
L 420.852648 134.898945 
L 422.767682 149.532657 
L 424.682717 139.232538 
L 426.597751 126.178442 
L 428.512786 126.825013 
L 430.427821 134.736319 
L 432.342855 136.497047 
L 434.25789 132.4405 
L 436.172924 137.816131 
L 440.002993 110.03662 
L 441.918028 122.842474 
L 443.833063 124.684616 
L 445.748097 130.39841 
L 447.663132 126.1561 
L 449.578166 122.299481 
L 451.493201 110.986245 
L 453.408236 122.450952 
L 455.32327 112.160362 
L 457.238305 116.798601 
L 459.153339 119.855458 
L 461.068374 118.015127 
L 462.983408 122.859817 
L 464.898443 106.86137 
L 466.813478 110.18607 
L 468.728512 130.632793 
L 470.643547 141.782158 
L 472.558581 138.712136 
L 474.473616 134.009012 
L 476.38865 136.497664 
L 478.303685 140.37334 
L 480.21872 131.482397 
L 482.133754 113.352153 
L 484.048789 121.889425 
L 485.963823 127.233381 
L 487.878858 130.221967 
L 489.793892 132.930069 
L 491.708927 119.645344 
L 493.623962 114.033451 
L 495.538996 107.277369 
L 497.454031 120.677922 
L 499.369065 119.296426 
L 501.2841 112.946254 
L 503.199134 111.173888 
L 505.114169 117.750193 
L 507.029204 93.900782 
L 508.944238 122.924482 
L 510.859273 121.413448 
L 512.774307 109.625643 
L 514.689342 101.473622 
L 516.604376 105.47874 
L 518.519411 149.99214 
L 520.434446 104.037259 
L 522.34948 106.499869 
L 524.264515 118.989906 
L 526.179549 92.965863 
L 528.094584 100.794644 
L 530.009618 138.539909 
L 531.924653 96.625717 
L 533.839688 123.517024 
L 535.754722 116.240661 
L 537.669757 116.735571 
L 539.584791 140.207578 
L 541.499826 116.990758 
L 543.414861 121.620386 
L 545.329895 117.74102 
L 547.24493 103.149261 
L 549.159964 104.209505 
L 551.074999 119.75757 
L 552.990033 121.80254 
L 554.905068 121.95006 
L 556.820103 87.439022 
L 558.735137 109.59663 
L 560.650172 114.977087 
L 562.565206 100.412202 
L 564.480241 123.286015 
L 566.395275 121.14939 
L 568.31031 109.095777 
L 570.225345 116.392266 
L 572.140379 131.794842 
L 574.055414 107.983789 
L 575.970448 119.19404 
L 577.885483 112.465505 
L 579.800517 87.75611 
L 581.715552 124.020638 
L 583.630587 148.105643 
L 585.545621 119.330618 
L 587.460656 110.881919 
L 589.37569 123.782319 
L 591.290725 132.836662 
L 593.205759 95.75085 
L 595.120794 104.598382 
L 597.035829 89.621443 
L 598.950863 107.64268 
L 600.865898 119.100798 
L 602.780932 120.518737 
L 604.695967 116.543768 
L 606.611001 123.515931 
L 608.526036 127.593785 
L 610.441071 128.053417 
L 612.356105 112.977515 
L 614.27114 118.413226 
L 616.186174 127.959902 
L 618.101209 89.898663 
L 620.016243 124.053908 
L 620.016243 124.053908 
" clip-path="url(#pb7d4ed3d06)" style="fill: none; stroke: #1f77b4; stroke-linecap: round"/>
   </g>
   <g id="line2d_17">
    <path d="M 47.420906 81.395567 
L 49.33594 102.833701 
L 51.250975 100.537648 
L 53.166009 148.557789 
L 55.081044 136.642292 
L 56.996079 175.905896 
L 58.911113 189.038232 
L 60.826148 174.789735 
L 62.741182 186.214385 
L 64.656217 163.904295 
L 68.486286 217.1708 
L 70.401321 242.142349 
L 72.316355 258.102984 
L 74.23139 299.703482 
L 76.146424 300.048208 
L 78.061459 296.964206 
L 79.976493 275.914326 
L 81.891528 312.24501 
L 83.806563 320.878303 
L 85.721597 332.65507 
L 87.636632 337.522615 
L 89.551666 359.210259 
L 91.466701 382.273317 
L 93.381735 399.755595 
L 95.29677 383.602512 
L 97.211805 404.512264 
L 99.126839 414.83386 
L 101.041874 383.704932 
L 102.956908 409.965877 
L 104.871943 426.29951 
L 106.786978 431.302642 
L 108.702012 406.540675 
L 110.617047 396.190039 
L 112.532081 422.835933 
L 114.447116 444.396902 
L 116.36215 417.88597 
L 118.277185 430.399622 
L 120.19222 431.085283 
L 122.107254 411.069713 
L 124.022289 420.343327 
L 125.937323 438.522166 
L 127.852358 423.998305 
L 129.767392 420.392884 
L 131.682427 438.804223 
L 133.597462 425.230375 
L 135.512496 400.108534 
L 137.427531 451.300178 
L 139.342565 420.429202 
L 141.2576 412.293199 
L 143.172634 411.641392 
L 145.087669 437.825226 
L 147.002704 414.991892 
L 148.917738 431.200914 
L 150.832773 389.803448 
L 152.747807 395.841685 
L 154.662842 416.876133 
L 156.577876 412.933163 
L 158.492911 402.110297 
L 162.32298 391.032373 
L 164.238015 382.206814 
L 166.153049 368.900865 
L 168.068084 361.844642 
L 169.983118 366.520295 
L 171.898153 350.459017 
L 173.813188 364.926167 
L 175.728222 356.157686 
L 177.643257 345.671457 
L 179.558291 358.505803 
L 181.473326 373.46143 
L 183.388361 369.297235 
L 185.303395 362.399651 
L 187.21843 370.346273 
L 191.048499 356.661819 
L 192.963533 374.301744 
L 194.878568 359.762982 
L 196.793603 351.28327 
L 198.708637 363.595603 
L 200.623672 370.271565 
L 202.538706 363.132739 
L 204.453741 359.226068 
L 206.368775 380.23548 
L 208.28381 408.070443 
L 210.198845 367.483426 
L 212.113879 371.18975 
L 214.028914 376.611985 
L 215.943948 361.313001 
L 217.858983 331.68566 
L 219.774017 363.55392 
L 221.689052 356.096357 
L 223.604087 362.420523 
L 225.519121 362.839738 
L 227.434156 388.864869 
L 229.34919 368.01427 
L 231.264225 392.523716 
L 233.179259 368.116282 
L 235.094294 370.214909 
L 237.009329 366.434217 
L 238.924363 381.769215 
L 240.839398 357.355262 
L 242.754432 367.146485 
L 244.669467 389.101656 
L 246.584501 389.934989 
L 248.499536 360.745718 
L 250.414571 374.115637 
L 252.329605 367.010994 
L 254.24464 364.359971 
L 256.159674 360.685124 
L 258.074709 364.952193 
L 259.989743 365.777478 
L 261.904778 357.880688 
L 263.819813 367.466718 
L 269.564916 375.974418 
L 271.479951 388.455927 
L 273.394986 367.015188 
L 275.31002 364.562159 
L 277.225055 360.551022 
L 279.140089 381.622974 
L 281.055124 357.353514 
L 282.970158 382.174546 
L 284.885193 351.183791 
L 286.800228 359.152306 
L 288.715262 359.827967 
L 290.630297 353.950405 
L 292.545331 354.404565 
L 294.460366 348.815799 
L 296.3754 329.235364 
L 300.20547 368.357984 
L 302.120504 366.837527 
L 304.035539 361.921153 
L 305.950573 368.093357 
L 307.865608 353.239036 
L 309.780642 366.52029 
L 311.695677 359.098256 
L 313.610712 347.30494 
L 315.525746 349.325206 
L 317.440781 349.240447 
L 319.355815 340.857127 
L 321.27085 347.541156 
L 323.185884 325.684729 
L 325.100919 291.969692 
L 327.015954 333.970191 
L 328.930988 300.998132 
L 330.846023 341.396922 
L 332.761057 333.509025 
L 334.676092 339.437602 
L 336.591126 333.272973 
L 338.506161 344.122504 
L 340.421196 326.77786 
L 342.33623 295.293064 
L 344.251265 294.136719 
L 346.166299 310.510873 
L 348.081334 309.594661 
L 349.996368 323.472593 
L 351.911403 308.80446 
L 353.826438 324.253964 
L 355.741472 300.674833 
L 357.656507 313.342652 
L 359.571541 323.066676 
L 361.486576 305.256796 
L 363.401611 308.75849 
L 365.316645 331.674249 
L 367.23168 329.705772 
L 369.146714 333.263721 
L 371.061749 335.128388 
L 372.976783 331.729394 
L 374.891818 341.9365 
L 376.806853 302.689117 
L 378.721887 322.880926 
L 380.636922 323.491085 
L 382.551956 302.823878 
L 384.466991 314.060405 
L 386.382025 311.472113 
L 388.29706 330.364317 
L 390.212095 334.672821 
L 392.127129 326.231012 
L 394.042164 338.432879 
L 395.957198 318.446262 
L 397.872233 328.820416 
L 399.787267 327.678439 
L 401.702302 314.011658 
L 403.617337 315.791344 
L 405.532371 328.521157 
L 407.447406 326.49144 
L 409.36244 341.178775 
L 411.277475 351.941777 
L 413.192509 327.081044 
L 415.107544 323.7743 
L 417.022579 337.457171 
L 418.937613 325.310912 
L 420.852648 325.941066 
L 422.767682 343.420164 
L 424.682717 331.009948 
L 426.597751 315.656648 
L 428.512786 316.467997 
L 430.427821 325.848082 
L 432.342855 328.489676 
L 434.25789 323.392671 
L 436.172924 329.434141 
L 440.002993 296.378684 
L 441.918028 311.221225 
L 443.833063 313.187682 
L 445.748097 320.398128 
L 447.663132 315.500623 
L 449.578166 311.639409 
L 451.493201 298.280744 
L 453.408236 312.005856 
L 455.32327 299.834095 
L 457.238305 305.426717 
L 459.153339 309.422481 
L 461.068374 307.365165 
L 462.983408 313.269077 
L 464.898443 294.602295 
L 466.813478 298.7581 
L 468.728512 322.986843 
L 470.643547 336.566143 
L 472.558581 332.792468 
L 474.473616 326.970191 
L 476.38865 330.258156 
L 478.303685 335.178761 
L 480.21872 324.244301 
L 482.133754 302.616508 
L 484.048789 312.673917 
L 485.963823 319.389747 
L 487.878858 322.6336 
L 489.793892 325.640118 
L 491.708927 309.972757 
L 493.623962 302.804186 
L 495.538996 294.57673 
L 497.454031 311.041946 
L 499.369065 309.590141 
L 501.2841 301.85962 
L 503.199134 299.844271 
L 505.114169 307.745021 
L 507.029204 278.817537 
L 508.944238 313.650947 
L 510.859273 312.233365 
L 512.774307 298.132126 
L 514.689342 288.432095 
L 516.604376 292.859913 
L 518.519411 346.553404 
L 520.434446 291.806537 
L 522.34948 294.411479 
L 524.264515 309.40299 
L 526.179549 278.102275 
L 528.094584 287.606519 
L 530.009618 332.562492 
L 531.924653 282.591304 
L 533.839688 314.581779 
L 535.754722 306.023544 
L 537.669757 306.767403 
L 539.584791 335.284561 
L 541.499826 307.513148 
L 543.414861 312.796769 
L 545.329895 308.036187 
L 547.24493 290.638894 
L 549.159964 291.84513 
L 551.074999 310.340538 
L 552.990033 311.961836 
L 554.905068 312.773063 
L 556.820103 272.059027 
L 558.735137 298.772664 
L 560.650172 304.46928 
L 562.565206 287.200391 
L 564.480241 314.645776 
L 566.395275 312.374275 
L 568.31031 297.801558 
L 570.225345 306.441441 
L 572.140379 325.319962 
L 574.055414 296.517611 
L 575.970448 309.773572 
L 577.885483 301.841001 
L 579.800517 272.278533 
L 581.715552 315.616648 
L 583.630587 344.369613 
L 585.545621 309.82543 
L 587.460656 300.108948 
L 589.37569 315.452858 
L 591.290725 326.116278 
L 593.205759 281.923455 
L 595.120794 292.649743 
L 597.035829 275.011921 
L 598.950863 296.342029 
L 600.865898 310.266526 
L 602.780932 311.894109 
L 604.695967 307.058565 
L 606.611001 315.398007 
L 608.526036 320.317646 
L 610.441071 321.084815 
L 612.356105 302.976787 
L 614.27114 309.508444 
L 616.186174 321.129106 
L 618.101209 275.592418 
L 620.016243 316.290003 
L 620.016243 316.290003 
" clip-path="url(#pb7d4ed3d06)" style="fill: none; stroke: #ff7f0e; stroke-linecap: round"/>
   </g>
   <g id="line2d_18">
    <path d="M 47.420906 464.789286 
L 53.166009 402.069308 
L 58.911113 376.251958 
L 64.656217 349.492722 
L 70.401321 345.55612 
L 76.146424 339.325179 
L 81.891528 333.770463 
L 87.636632 333.987822 
L 93.381735 330.799898 
L 99.126839 330.8482 
L 104.871943 325.824806 
L 110.617047 289.984818 
L 116.36215 295.660288 
L 122.107254 278.247464 
L 127.852358 272.571994 
L 133.597462 258.805961 
L 139.342565 259.627093 
L 145.087669 260.182565 
L 150.832773 252.864831 
L 156.577876 250.280681 
L 162.32298 251.512379 
L 168.068084 249.701059 
L 173.813188 250.49804 
L 179.558291 247.285965 
L 185.303395 244.267098 
L 191.048499 246.005966 
L 196.793603 243.832382 
L 202.538706 244.098042 
L 208.28381 246.730494 
L 214.028914 241.562194 
L 219.774017 241.055024 
L 225.519121 243.325212 
L 231.264225 241.175779 
L 237.009329 244.484457 
L 242.754432 242.23842 
L 248.499536 241.900307 
L 254.24464 242.190118 
L 259.989743 245.619551 
L 265.734847 239.171251 
L 271.479951 239.267855 
L 277.225055 241.852005 
L 282.970158 224.970501 
L 288.715262 206.736545 
L 294.460366 213.088241 
L 300.20547 212.701826 
L 305.950573 199.684472 
L 311.695677 184.37278 
L 317.440781 190.410513 
L 323.185884 173.79467 
L 328.930988 162.636938 
L 334.676092 176.402971 
L 340.421196 150.682225 
L 346.166299 133.969778 
L 351.911403 166.863352 
L 357.656507 147.663359 
L 363.401611 138.679211 
L 369.146714 160.390901 
L 374.891818 151.237697 
L 380.636922 155.536563 
L 386.382025 136.892042 
L 392.127129 132.134307 
L 397.872233 146.045246 
L 403.617337 125.4928 
L 409.36244 120.904123 
L 415.107544 108.659599 
L 420.852648 118.537331 
L 426.597751 115.92903 
L 432.342855 101.390167 
L 438.087959 99.820356 
L 443.833063 104.264128 
L 449.578166 111.002239 
L 455.32327 96.511678 
L 461.068374 106.824128 
L 466.813478 104.916204 
L 472.558581 106.824128 
L 478.303685 113.972804 
L 484.048789 97.83998 
L 489.793892 115.107898 
L 495.538996 94.869415 
L 501.2841 120.710915 
L 507.029204 118.875444 
L 512.774307 97.163754 
L 518.519411 120.686764 
L 524.264515 116.653558 
L 530.009618 114.64903 
L 535.754722 95.569792 
L 541.499826 99.40979 
L 547.24493 98.3713 
L 552.990033 89.652813 
L 558.735137 84.798475 
L 564.480241 95.062622 
L 570.225345 81.900363 
L 575.970448 84.67772 
L 581.715552 92.381868 
L 587.460656 83.759985 
L 593.205759 103.249789 
L 598.950863 90.594699 
L 604.695967 80.596212 
L 610.441071 101.945639 
L 616.186174 78.253571 
" clip-path="url(#pb7d4ed3d06)" style="fill: none; stroke: #000000; stroke-width: 1.5; stroke-linecap: round"/>
   </g>
   <g id="line2d_19">
    <path d="M 47.420906 78.253571 
L 53.166009 94.202312 
L 58.911113 117.39927 
L 64.656217 133.337175 
L 70.401321 129.821217 
L 76.146424 144.329133 
L 81.891528 158.448073 
L 87.636632 177.611685 
L 93.381735 179.965473 
L 99.126839 203.529376 
L 104.871943 212.320012 
L 110.617047 226.509962 
L 116.36215 232.783274 
L 122.107254 249.804778 
L 127.852358 249.857728 
L 133.597462 258.81597 
L 139.342565 282.721294 
L 145.087669 294.99439 
L 150.832773 300.355583 
L 156.577876 314.736686 
L 162.32298 337.624931 
L 168.068084 354.902505 
L 173.813188 358.624076 
L 179.558291 366.087776 
L 185.303395 361.200627 
L 191.048499 363.393806 
L 196.793603 367.116074 
L 202.538706 368.778696 
L 208.28381 370.977646 
L 214.028914 371.995517 
L 219.774017 376.291075 
L 225.519121 379.174434 
L 231.264225 377.398436 
L 237.009329 379.523033 
L 242.754432 378.366033 
L 248.499536 382.476749 
L 254.24464 387.525112 
L 259.989743 389.042154 
L 265.734847 395.875164 
L 271.479951 390.660698 
L 277.225055 397.155436 
L 282.970158 401.130448 
L 288.715262 403.108891 
L 294.460366 407.441237 
L 300.20547 406.309821 
L 305.950573 406.664267 
L 311.695677 406.922601 
L 317.440781 417.472557 
L 323.185884 425.889611 
L 328.930988 417.771352 
L 334.676092 431.615403 
L 340.421196 431.034799 
L 346.166299 432.728243 
L 351.911403 439.198726 
L 357.656507 426.411401 
L 363.401611 435.225865 
L 369.146714 435.509249 
L 374.891818 436.809408 
L 380.636922 425.584571 
L 386.382025 427.287878 
L 392.127129 425.763068 
L 397.872233 426.423428 
L 403.617337 425.384083 
L 409.36244 430.012059 
L 415.107544 427.802247 
L 420.852648 432.310418 
L 426.597751 433.664947 
L 432.342855 433.98491 
L 438.087959 435.529481 
L 443.833063 444.618329 
L 449.578166 453.530576 
L 455.32327 448.294043 
L 461.068374 445.600457 
L 466.813478 444.318327 
L 472.558581 441.076844 
L 478.303685 446.801847 
L 484.048789 450.02516 
L 489.793892 446.145112 
L 495.538996 452.047125 
L 501.2841 462.331638 
L 507.029204 454.888646 
L 512.774307 454.126944 
L 518.519411 456.709147 
L 524.264515 455.549761 
L 530.009618 450.506251 
L 535.754722 452.010956 
L 541.499826 452.741891 
L 547.24493 457.422607 
L 552.990033 453.367307 
L 558.735137 458.314915 
L 564.480241 460.692902 
L 570.225345 459.35416 
L 575.970448 458.200376 
L 581.715552 454.99729 
L 587.460656 453.498647 
L 593.205759 456.82088 
L 598.950863 462.461348 
L 604.695967 464.789286 
L 610.441071 458.509214 
L 616.186174 460.604811 
" clip-path="url(#pb7d4ed3d06)" style="fill: none; stroke: #7b3ab8; stroke-width: 1.5; stroke-linecap: round"/>
   </g>
   <g id="patch_3">
    <path d="M 36.2 472.52 
L 36.2 39.6 
" style="fill: none; stroke: #ffffff; stroke-width: 0.8; stroke-linejoin: miter; stroke-linecap: square"/>
   </g>
   <g id="patch_4">
    <path d="M 623.801429 472.52 
L 623.801429 39.6 
" style="fill: none; stroke: #ffffff; stroke-width: 0.8; stroke-linejoin: miter; stroke-linecap: square"/>
   </g>
   <g id="patch_5">
    <path d="M 36.2 472.52 
L 623.801429 472.52 
" style="fill: none; stroke: #ffffff; stroke-width: 0.8; stroke-linejoin: miter; stroke-linecap: square"/>
   </g>
   <g id="patch_6">
    <path d="M 36.2 39.6 
L 623.801429 39.6 
" style="fill: none; stroke: #ffffff; stroke-width: 0.8; stroke-linejoin: miter; stroke-linecap: square"/>
   </g>
  </g>
  <g id="text_4">
   <!-- Acrobot-v1 | CMU-Net (P) -->
   <g style="fill: #262626" transform="translate(196.23375 23.835938) scale(0.18 -0.18)">
    <defs>
     <path id="DejaVuSans-Bold-41" d="M 3419 850 
L 1538 850 
L 1241 0 
L 31 0 
L 1759 4666 
L 3194 4666 
L 4922 0 
L 3713 0 
L 3419 850 
z
M 1838 1716 
L 3116 1716 
L 2478 3572 
L 1838 1716 
z
" transform="scale(0.015625)"/>
     <path id="DejaVuSans-Bold-63" d="M 3366 3391 
L 3366 2478 
Q 3138 2634 2908 2709 
Q 2678 2784 2431 2784 
Q 1963 2784 1702 2511 
Q 1441 2238 1441 1747 
Q 1441 1256 1702 982 
Q 1963 709 2431 709 
Q 2694 709 2930 787 
Q 3166 866 3366 1019 
L 3366 103 
Q 3103 6 2833 -42 
Q 2563 -91 2291 -91 
Q 1344 -91 809 395 
Q 275 881 275 1747 
Q 275 2613 809 3098 
Q 1344 3584 2291 3584 
Q 2566 3584 2833 3536 
Q 3100 3488 3366 3391 
z
" transform="scale(0.015625)"/>
     <path id="DejaVuSans-Bold-72" d="M 3138 2547 
Q 2991 2616 2845 2648 
Q 2700 2681 2553 2681 
Q 2122 2681 1889 2404 
Q 1656 2128 1656 1613 
L 1656 0 
L 538 0 
L 538 3500 
L 1656 3500 
L 1656 2925 
Q 1872 3269 2151 3426 
Q 2431 3584 2822 3584 
Q 2878 3584 2943 3579 
Q 3009 3575 3134 3559 
L 3138 2547 
z
" transform="scale(0.015625)"/>
     <path id="DejaVuSans-Bold-6f" d="M 2203 2784 
Q 1831 2784 1636 2517 
Q 1441 2250 1441 1747 
Q 1441 1244 1636 976 
Q 1831 709 2203 709 
Q 2569 709 2762 976 
Q 2956 1244 2956 1747 
Q 2956 2250 2762 2517 
Q 2569 2784 2203 2784 
z
M 2203 3584 
Q 3106 3584 3614 3096 
Q 4122 2609 4122 1747 
Q 4122 884 3614 396 
Q 3106 -91 2203 -91 
Q 1297 -91 786 396 
Q 275 884 275 1747 
Q 275 2609 786 3096 
Q 1297 3584 2203 3584 
z
" transform="scale(0.015625)"/>
     <path id="DejaVuSans-Bold-62" d="M 2400 722 
Q 2759 722 2948 984 
Q 3138 1247 3138 1747 
Q 3138 2247 2948 2509 
Q 2759 2772 2400 2772 
Q 2041 2772 1848 2508 
Q 1656 2244 1656 1747 
Q 1656 1250 1848 986 
Q 2041 722 2400 722 
z
M 1656 2988 
Q 1888 3294 2169 3439 
Q 2450 3584 2816 3584 
Q 3463 3584 3878 3070 
Q 4294 2556 4294 1747 
Q 4294 938 3878 423 
Q 3463 -91 2816 -91 
Q 2450 -91 2169 54 
Q 1888 200 1656 506 
L 1656 0 
L 538 0 
L 538 4863 
L 1656 4863 
L 1656 2988 
z
" transform="scale(0.015625)"/>
     <path id="DejaVuSans-Bold-74" d="M 1759 4494 
L 1759 3500 
L 2913 3500 
L 2913 2700 
L 1759 2700 
L 1759 1216 
Q 1759 972 1856 886 
Q 1953 800 2241 800 
L 2816 800 
L 2816 0 
L 1856 0 
Q 1194 0 917 276 
Q 641 553 641 1216 
L 641 2700 
L 84 2700 
L 84 3500 
L 641 3500 
L 641 4494 
L 1759 4494 
z
" transform="scale(0.015625)"/>
     <path id="DejaVuSans-Bold-2d" d="M 347 2297 
L 2309 2297 
L 2309 1388 
L 347 1388 
L 347 2297 
z
" transform="scale(0.015625)"/>
     <path id="DejaVuSans-Bold-76" d="M 97 3500 
L 1216 3500 
L 2088 1081 
L 2956 3500 
L 4078 3500 
L 2700 0 
L 1472 0 
L 97 3500 
z
" transform="scale(0.015625)"/>
     <path id="DejaVuSans-Bold-31" d="M 750 831 
L 1813 831 
L 1813 3847 
L 722 3622 
L 722 4441 
L 1806 4666 
L 2950 4666 
L 2950 831 
L 4013 831 
L 4013 0 
L 750 0 
L 750 831 
z
" transform="scale(0.015625)"/>
     <path id="DejaVuSans-Bold-20" transform="scale(0.015625)"/>
     <path id="DejaVuSans-Bold-7c" d="M 1522 4891 
L 1522 -1509 
L 813 -1509 
L 813 4891 
L 1522 4891 
z
" transform="scale(0.015625)"/>
     <path id="DejaVuSans-Bold-43" d="M 4288 256 
Q 3956 84 3597 -3 
Q 3238 -91 2847 -91 
Q 1681 -91 1000 561 
Q 319 1213 319 2328 
Q 319 3447 1000 4098 
Q 1681 4750 2847 4750 
Q 3238 4750 3597 4662 
Q 3956 4575 4288 4403 
L 4288 3438 
Q 3953 3666 3628 3772 
Q 3303 3878 2944 3878 
Q 2300 3878 1931 3465 
Q 1563 3053 1563 2328 
Q 1563 1606 1931 1193 
Q 2300 781 2944 781 
Q 3303 781 3628 887 
Q 3953 994 4288 1222 
L 4288 256 
z
" transform="scale(0.015625)"/>
     <path id="DejaVuSans-Bold-4d" d="M 588 4666 
L 2119 4666 
L 3181 2169 
L 4250 4666 
L 5778 4666 
L 5778 0 
L 4641 0 
L 4641 3413 
L 3566 897 
L 2803 897 
L 1728 3413 
L 1728 0 
L 588 0 
L 588 4666 
z
" transform="scale(0.015625)"/>
     <path id="DejaVuSans-Bold-55" d="M 588 4666 
L 1791 4666 
L 1791 1869 
Q 1791 1291 1980 1042 
Q 2169 794 2597 794 
Q 3028 794 3217 1042 
Q 3406 1291 3406 1869 
L 3406 4666 
L 4609 4666 
L 4609 1869 
Q 4609 878 4112 393 
Q 3616 -91 2597 -91 
Q 1581 -91 1084 393 
Q 588 878 588 1869 
L 588 4666 
z
" transform="scale(0.015625)"/>
     <path id="DejaVuSans-Bold-4e" d="M 588 4666 
L 1931 4666 
L 3628 1466 
L 3628 4666 
L 4769 4666 
L 4769 0 
L 3425 0 
L 1728 3200 
L 1728 0 
L 588 0 
L 588 4666 
z
" transform="scale(0.015625)"/>
     <path id="DejaVuSans-Bold-65" d="M 4031 1759 
L 4031 1441 
L 1416 1441 
Q 1456 1047 1700 850 
Q 1944 653 2381 653 
Q 2734 653 3104 758 
Q 3475 863 3866 1075 
L 3866 213 
Q 3469 63 3072 -14 
Q 2675 -91 2278 -91 
Q 1328 -91 801 392 
Q 275 875 275 1747 
Q 275 2603 792 3093 
Q 1309 3584 2216 3584 
Q 3041 3584 3536 3087 
Q 4031 2591 4031 1759 
z
M 2881 2131 
Q 2881 2450 2695 2645 
Q 2509 2841 2209 2841 
Q 1884 2841 1681 2658 
Q 1478 2475 1428 2131 
L 2881 2131 
z
" transform="scale(0.015625)"/>
     <path id="DejaVuSans-Bold-28" d="M 2413 -844 
L 1484 -844 
Q 1006 -72 778 623 
Q 550 1319 550 2003 
Q 550 2688 779 3389 
Q 1009 4091 1484 4856 
L 2413 4856 
Q 2013 4116 1813 3408 
Q 1613 2700 1613 2009 
Q 1613 1319 1811 609 
Q 2009 -100 2413 -844 
z
" transform="scale(0.015625)"/>
     <path id="DejaVuSans-Bold-50" d="M 588 4666 
L 2584 4666 
Q 3475 4666 3951 4270 
Q 4428 3875 4428 3144 
Q 4428 2409 3951 2014 
Q 3475 1619 2584 1619 
L 1791 1619 
L 1791 0 
L 588 0 
L 588 4666 
z
M 1791 3794 
L 1791 2491 
L 2456 2491 
Q 2806 2491 2997 2661 
Q 3188 2831 3188 3144 
Q 3188 3456 2997 3625 
Q 2806 3794 2456 3794 
L 1791 3794 
z
" transform="scale(0.015625)"/>
     <path id="DejaVuSans-Bold-29" d="M 513 -844 
Q 913 -100 1113 609 
Q 1313 1319 1313 2009 
Q 1313 2700 1113 3408 
Q 913 4116 513 4856 
L 1441 4856 
Q 1916 4091 2145 3389 
Q 2375 2688 2375 2003 
Q 2375 1319 2147 623 
Q 1919 -72 1441 -844 
L 513 -844 
z
" transform="scale(0.015625)"/>
    </defs>
    <use xlink:href="#DejaVuSans-Bold-41"/>
    <use xlink:href="#DejaVuSans-Bold-63" transform="translate(77.392578 0)"/>
    <use xlink:href="#DejaVuSans-Bold-72" transform="translate(136.669922 0)"/>
    <use xlink:href="#DejaVuSans-Bold-6f" transform="translate(185.986328 0)"/>
    <use xlink:href="#DejaVuSans-Bold-62" transform="translate(254.6875 0)"/>
    <use xlink:href="#DejaVuSans-Bold-6f" transform="translate(326.269531 0)"/>
    <use xlink:href="#DejaVuSans-Bold-74" transform="translate(394.970703 0)"/>
    <use xlink:href="#DejaVuSans-Bold-2d" transform="translate(442.773438 0)"/>
    <use xlink:href="#DejaVuSans-Bold-76" transform="translate(484.277344 0)"/>
    <use xlink:href="#DejaVuSans-Bold-31" transform="translate(549.462891 0)"/>
    <use xlink:href="#DejaVuSans-Bold-20" transform="translate(619.042969 0)"/>
    <use xlink:href="#DejaVuSans-Bold-7c" transform="translate(653.857422 0)"/>
    <use xlink:href="#DejaVuSans-Bold-20" transform="translate(690.380859 0)"/>
    <use xlink:href="#DejaVuSans-Bold-43" transform="translate(725.195312 0)"/>
    <use xlink:href="#DejaVuSans-Bold-4d" transform="translate(798.583984 0)"/>
    <use xlink:href="#DejaVuSans-Bold-55" transform="translate(898.095703 0)"/>
    <use xlink:href="#DejaVuSans-Bold-2d" transform="translate(979.296875 0)"/>
    <use xlink:href="#DejaVuSans-Bold-4e" transform="translate(1020.800781 0)"/>
    <use xlink:href="#DejaVuSans-Bold-65" transform="translate(1104.492188 0)"/>
    <use xlink:href="#DejaVuSans-Bold-74" transform="translate(1172.314453 0)"/>
    <use xlink:href="#DejaVuSans-Bold-20" transform="translate(1220.117188 0)"/>
    <use xlink:href="#DejaVuSans-Bold-28" transform="translate(1254.931641 0)"/>
    <use xlink:href="#DejaVuSans-Bold-50" transform="translate(1300.634766 0)"/>
    <use xlink:href="#DejaVuSans-Bold-29" transform="translate(1373.925781 0)"/>
   </g>
  </g>
 </g>
 <defs>
  <clipPath id="pb7d4ed3d06">
   <rect x="36.2" y="39.6" width="587.601429" height="432.92"/>
  </clipPath>
 </defs>
</svg>
