<?xml version="1.0" encoding="utf-8" standalone="no"?>
<!DOCTYPE svg PUBLIC "-//W3C//DTD SVG 1.1//EN"
  "http://www.w3.org/Graphics/SVG/1.1/DTD/svg11.dtd">
<svg xmlns:xlink="http://www.w3.org/1999/xlink" width="648pt" height="504pt" viewBox="0 0 648 504" xmlns="http://www.w3.org/2000/svg" version="1.1">
 <metadata>
  <rdf:RDF xmlns:dc="http://purl.org/dc/elements/1.1/" xmlns:cc="http://creativecommons.org/ns#" xmlns:rdf="http://www.w3.org/1999/02/22-rdf-syntax-ns#">
   <cc:Work>
    <dc:type rdf:resource="http://purl.org/dc/dcmitype/StillImage"/>
    <dc:date>2025-07-31T05:18:31.264583</dc:date>
    <dc:format>image/svg+xml</dc:format>
    <dc:creator>
     <cc:Agent>
      <dc:title>Matplotlib v3.10.0, https://matplotlib.org/</dc:title>
     </cc:Agent>
    </dc:creator>
   </cc:Work>
  </rdf:RDF>
 </metadata>
 <defs>
  <style type="text/css">*{stroke-linejoin: round; stroke-linecap: butt}</style>
 </defs>
 <g id="figure_1">
  <g id="patch_1">
   <path d="M 0 504 
L 648 504 
L 648 0 
L 0 0 
z
" style="fill: #ffffff"/>
  </g>
  <g id="axes_1">
   <g id="patch_2">
    <path d="M 36.2 472.52 
L 623.801429 472.52 
L 623.801429 39.6 
L 36.2 39.6 
z
" style="fill: #eaeaf2"/>
   </g>
   <g id="matplotlib.axis_1">
    <g id="xtick_1">
     <g id="line2d_1">
      <path d="M 47.420906 472.52 
L 47.420906 39.6 
" clip-path="url(#pe964d7c13b)" style="fill: none; stroke: #ffffff; stroke-width: 0.8; stroke-linecap: round"/>
     </g>
     <g id="text_1">
      <!-- 0 -->
      <g style="fill: #262626" transform="translate(42.967156 490.157813) scale(0.14 -0.14)">
       <defs>
        <path id="DejaVuSans-30" d="M 2034 4250 
Q 1547 4250 1301 3770 
Q 1056 3291 1056 2328 
Q 1056 1369 1301 889 
Q 1547 409 2034 409 
Q 2525 409 2770 889 
Q 3016 1369 3016 2328 
Q 3016 3291 2770 3770 
Q 2525 4250 2034 4250 
z
M 2034 4750 
Q 2819 4750 3233 4129 
Q 3647 3509 3647 2328 
Q 3647 1150 3233 529 
Q 2819 -91 2034 -91 
Q 1250 -91 836 529 
Q 422 1150 422 2328 
Q 422 3509 836 4129 
Q 1250 4750 2034 4750 
z
" transform="scale(0.015625)"/>
       </defs>
       <use xlink:href="#DejaVuSans-30"/>
      </g>
     </g>
    </g>
    <g id="xtick_2">
     <g id="line2d_2">
      <path d="M 608.466191 472.52 
L 608.466191 39.6 
" clip-path="url(#pe964d7c13b)" style="fill: none; stroke: #ffffff; stroke-width: 0.8; stroke-linecap: round"/>
     </g>
     <g id="text_2">
      <!-- 600000 -->
      <g style="fill: #262626" transform="translate(581.743691 490.157813) scale(0.14 -0.14)">
       <defs>
        <path id="DejaVuSans-36" d="M 2113 2584 
Q 1688 2584 1439 2293 
Q 1191 2003 1191 1497 
Q 1191 994 1439 701 
Q 1688 409 2113 409 
Q 2538 409 2786 701 
Q 3034 994 3034 1497 
Q 3034 2003 2786 2293 
Q 2538 2584 2113 2584 
z
M 3366 4563 
L 3366 3988 
Q 3128 4100 2886 4159 
Q 2644 4219 2406 4219 
Q 1781 4219 1451 3797 
Q 1122 3375 1075 2522 
Q 1259 2794 1537 2939 
Q 1816 3084 2150 3084 
Q 2853 3084 3261 2657 
Q 3669 2231 3669 1497 
Q 3669 778 3244 343 
Q 2819 -91 2113 -91 
Q 1303 -91 875 529 
Q 447 1150 447 2328 
Q 447 3434 972 4092 
Q 1497 4750 2381 4750 
Q 2619 4750 2861 4703 
Q 3103 4656 3366 4563 
z
" transform="scale(0.015625)"/>
       </defs>
       <use xlink:href="#DejaVuSans-36"/>
       <use xlink:href="#DejaVuSans-30" transform="translate(63.623047 0)"/>
       <use xlink:href="#DejaVuSans-30" transform="translate(127.246094 0)"/>
       <use xlink:href="#DejaVuSans-30" transform="translate(190.869141 0)"/>
       <use xlink:href="#DejaVuSans-30" transform="translate(254.492188 0)"/>
       <use xlink:href="#DejaVuSans-30" transform="translate(318.115234 0)"/>
      </g>
     </g>
    </g>
   </g>
   <g id="matplotlib.axis_2">
    <g id="ytick_1">
     <g id="line2d_3">
      <path d="M 36.2 464.789286 
L 623.801429 464.789286 
" clip-path="url(#pe964d7c13b)" style="fill: none; stroke: #ffffff; stroke-width: 0.8; stroke-linecap: round"/>
     </g>
    </g>
    <g id="ytick_2">
     <g id="line2d_4">
      <path d="M 36.2 416.472321 
L 623.801429 416.472321 
" clip-path="url(#pe964d7c13b)" style="fill: none; stroke: #ffffff; stroke-width: 0.8; stroke-linecap: round"/>
     </g>
    </g>
    <g id="ytick_3">
     <g id="line2d_5">
      <path d="M 36.2 368.155357 
L 623.801429 368.155357 
" clip-path="url(#pe964d7c13b)" style="fill: none; stroke: #ffffff; stroke-width: 0.8; stroke-linecap: round"/>
     </g>
    </g>
    <g id="ytick_4">
     <g id="line2d_6">
      <path d="M 36.2 319.838393 
L 623.801429 319.838393 
" clip-path="url(#pe964d7c13b)" style="fill: none; stroke: #ffffff; stroke-width: 0.8; stroke-linecap: round"/>
     </g>
    </g>
    <g id="ytick_5">
     <g id="line2d_7">
      <path d="M 36.2 271.521429 
L 623.801429 271.521429 
" clip-path="url(#pe964d7c13b)" style="fill: none; stroke: #ffffff; stroke-width: 0.8; stroke-linecap: round"/>
     </g>
    </g>
    <g id="ytick_6">
     <g id="line2d_8">
      <path d="M 36.2 223.204464 
L 623.801429 223.204464 
" clip-path="url(#pe964d7c13b)" style="fill: none; stroke: #ffffff; stroke-width: 0.8; stroke-linecap: round"/>
     </g>
    </g>
    <g id="ytick_7">
     <g id="line2d_9">
      <path d="M 36.2 174.8875 
L 623.801429 174.8875 
" clip-path="url(#pe964d7c13b)" style="fill: none; stroke: #ffffff; stroke-width: 0.8; stroke-linecap: round"/>
     </g>
    </g>
    <g id="ytick_8">
     <g id="line2d_10">
      <path d="M 36.2 126.570536 
L 623.801429 126.570536 
" clip-path="url(#pe964d7c13b)" style="fill: none; stroke: #ffffff; stroke-width: 0.8; stroke-linecap: round"/>
     </g>
    </g>
    <g id="ytick_9">
     <g id="line2d_11">
      <path d="M 36.2 78.253571 
L 623.801429 78.253571 
" clip-path="url(#pe964d7c13b)" style="fill: none; stroke: #ffffff; stroke-width: 0.8; stroke-linecap: round"/>
     </g>
    </g>
    <g id="text_3">
     <!-- Normalized Axis -->
     <g style="fill: #262626" transform="translate(21.8725 320.56875) rotate(-90) scale(0.16 -0.16)">
      <defs>
       <path id="DejaVuSans-4e" d="M 628 4666 
L 1478 4666 
L 3547 763 
L 3547 4666 
L 4159 4666 
L 4159 0 
L 3309 0 
L 1241 3903 
L 1241 0 
L 628 0 
L 628 4666 
z
" transform="scale(0.015625)"/>
       <path id="DejaVuSans-6f" d="M 1959 3097 
Q 1497 3097 1228 2736 
Q 959 2375 959 1747 
Q 959 1119 1226 758 
Q 1494 397 1959 397 
Q 2419 397 2687 759 
Q 2956 1122 2956 1747 
Q 2956 2369 2687 2733 
Q 2419 3097 1959 3097 
z
M 1959 3584 
Q 2709 3584 3137 3096 
Q 3566 2609 3566 1747 
Q 3566 888 3137 398 
Q 2709 -91 1959 -91 
Q 1206 -91 779 398 
Q 353 888 353 1747 
Q 353 2609 779 3096 
Q 1206 3584 1959 3584 
z
" transform="scale(0.015625)"/>
       <path id="DejaVuSans-72" d="M 2631 2963 
Q 2534 3019 2420 3045 
Q 2306 3072 2169 3072 
Q 1681 3072 1420 2755 
Q 1159 2438 1159 1844 
L 1159 0 
L 581 0 
L 581 3500 
L 1159 3500 
L 1159 2956 
Q 1341 3275 1631 3429 
Q 1922 3584 2338 3584 
Q 2397 3584 2469 3576 
Q 2541 3569 2628 3553 
L 2631 2963 
z
" transform="scale(0.015625)"/>
       <path id="DejaVuSans-6d" d="M 3328 2828 
Q 3544 3216 3844 3400 
Q 4144 3584 4550 3584 
Q 5097 3584 5394 3201 
Q 5691 2819 5691 2113 
L 5691 0 
L 5113 0 
L 5113 2094 
Q 5113 2597 4934 2840 
Q 4756 3084 4391 3084 
Q 3944 3084 3684 2787 
Q 3425 2491 3425 1978 
L 3425 0 
L 2847 0 
L 2847 2094 
Q 2847 2600 2669 2842 
Q 2491 3084 2119 3084 
Q 1678 3084 1418 2786 
Q 1159 2488 1159 1978 
L 1159 0 
L 581 0 
L 581 3500 
L 1159 3500 
L 1159 2956 
Q 1356 3278 1631 3431 
Q 1906 3584 2284 3584 
Q 2666 3584 2933 3390 
Q 3200 3197 3328 2828 
z
" transform="scale(0.015625)"/>
       <path id="DejaVuSans-61" d="M 2194 1759 
Q 1497 1759 1228 1600 
Q 959 1441 959 1056 
Q 959 750 1161 570 
Q 1363 391 1709 391 
Q 2188 391 2477 730 
Q 2766 1069 2766 1631 
L 2766 1759 
L 2194 1759 
z
M 3341 1997 
L 3341 0 
L 2766 0 
L 2766 531 
Q 2569 213 2275 61 
Q 1981 -91 1556 -91 
Q 1019 -91 701 211 
Q 384 513 384 1019 
Q 384 1609 779 1909 
Q 1175 2209 1959 2209 
L 2766 2209 
L 2766 2266 
Q 2766 2663 2505 2880 
Q 2244 3097 1772 3097 
Q 1472 3097 1187 3025 
Q 903 2953 641 2809 
L 641 3341 
Q 956 3463 1253 3523 
Q 1550 3584 1831 3584 
Q 2591 3584 2966 3190 
Q 3341 2797 3341 1997 
z
" transform="scale(0.015625)"/>
       <path id="DejaVuSans-6c" d="M 603 4863 
L 1178 4863 
L 1178 0 
L 603 0 
L 603 4863 
z
" transform="scale(0.015625)"/>
       <path id="DejaVuSans-69" d="M 603 3500 
L 1178 3500 
L 1178 0 
L 603 0 
L 603 3500 
z
M 603 4863 
L 1178 4863 
L 1178 4134 
L 603 4134 
L 603 4863 
z
" transform="scale(0.015625)"/>
       <path id="DejaVuSans-7a" d="M 353 3500 
L 3084 3500 
L 3084 2975 
L 922 459 
L 3084 459 
L 3084 0 
L 275 0 
L 275 525 
L 2438 3041 
L 353 3041 
L 353 3500 
z
" transform="scale(0.015625)"/>
       <path id="DejaVuSans-65" d="M 3597 1894 
L 3597 1613 
L 953 1613 
Q 991 1019 1311 708 
Q 1631 397 2203 397 
Q 2534 397 2845 478 
Q 3156 559 3463 722 
L 3463 178 
Q 3153 47 2828 -22 
Q 2503 -91 2169 -91 
Q 1331 -91 842 396 
Q 353 884 353 1716 
Q 353 2575 817 3079 
Q 1281 3584 2069 3584 
Q 2775 3584 3186 3129 
Q 3597 2675 3597 1894 
z
M 3022 2063 
Q 3016 2534 2758 2815 
Q 2500 3097 2075 3097 
Q 1594 3097 1305 2825 
Q 1016 2553 972 2059 
L 3022 2063 
z
" transform="scale(0.015625)"/>
       <path id="DejaVuSans-64" d="M 2906 2969 
L 2906 4863 
L 3481 4863 
L 3481 0 
L 2906 0 
L 2906 525 
Q 2725 213 2448 61 
Q 2172 -91 1784 -91 
Q 1150 -91 751 415 
Q 353 922 353 1747 
Q 353 2572 751 3078 
Q 1150 3584 1784 3584 
Q 2172 3584 2448 3432 
Q 2725 3281 2906 2969 
z
M 947 1747 
Q 947 1113 1208 752 
Q 1469 391 1925 391 
Q 2381 391 2643 752 
Q 2906 1113 2906 1747 
Q 2906 2381 2643 2742 
Q 2381 3103 1925 3103 
Q 1469 3103 1208 2742 
Q 947 2381 947 1747 
z
" transform="scale(0.015625)"/>
       <path id="DejaVuSans-20" transform="scale(0.015625)"/>
       <path id="DejaVuSans-41" d="M 2188 4044 
L 1331 1722 
L 3047 1722 
L 2188 4044 
z
M 1831 4666 
L 2547 4666 
L 4325 0 
L 3669 0 
L 3244 1197 
L 1141 1197 
L 716 0 
L 50 0 
L 1831 4666 
z
" transform="scale(0.015625)"/>
       <path id="DejaVuSans-78" d="M 3513 3500 
L 2247 1797 
L 3578 0 
L 2900 0 
L 1881 1375 
L 863 0 
L 184 0 
L 1544 1831 
L 300 3500 
L 978 3500 
L 1906 2253 
L 2834 3500 
L 3513 3500 
z
" transform="scale(0.015625)"/>
       <path id="DejaVuSans-73" d="M 2834 3397 
L 2834 2853 
Q 2591 2978 2328 3040 
Q 2066 3103 1784 3103 
Q 1356 3103 1142 2972 
Q 928 2841 928 2578 
Q 928 2378 1081 2264 
Q 1234 2150 1697 2047 
L 1894 2003 
Q 2506 1872 2764 1633 
Q 3022 1394 3022 966 
Q 3022 478 2636 193 
Q 2250 -91 1575 -91 
Q 1294 -91 989 -36 
Q 684 19 347 128 
L 347 722 
Q 666 556 975 473 
Q 1284 391 1588 391 
Q 1994 391 2212 530 
Q 2431 669 2431 922 
Q 2431 1156 2273 1281 
Q 2116 1406 1581 1522 
L 1381 1569 
Q 847 1681 609 1914 
Q 372 2147 372 2553 
Q 372 3047 722 3315 
Q 1072 3584 1716 3584 
Q 2034 3584 2315 3537 
Q 2597 3491 2834 3397 
z
" transform="scale(0.015625)"/>
      </defs>
      <use xlink:href="#DejaVuSans-4e"/>
      <use xlink:href="#DejaVuSans-6f" transform="translate(74.804688 0)"/>
      <use xlink:href="#DejaVuSans-72" transform="translate(135.986328 0)"/>
      <use xlink:href="#DejaVuSans-6d" transform="translate(175.349609 0)"/>
      <use xlink:href="#DejaVuSans-61" transform="translate(272.761719 0)"/>
      <use xlink:href="#DejaVuSans-6c" transform="translate(334.041016 0)"/>
      <use xlink:href="#DejaVuSans-69" transform="translate(361.824219 0)"/>
      <use xlink:href="#DejaVuSans-7a" transform="translate(389.607422 0)"/>
      <use xlink:href="#DejaVuSans-65" transform="translate(442.097656 0)"/>
      <use xlink:href="#DejaVuSans-64" transform="translate(503.621094 0)"/>
      <use xlink:href="#DejaVuSans-20" transform="translate(567.097656 0)"/>
      <use xlink:href="#DejaVuSans-41" transform="translate(598.884766 0)"/>
      <use xlink:href="#DejaVuSans-78" transform="translate(667.292969 0)"/>
      <use xlink:href="#DejaVuSans-69" transform="translate(726.472656 0)"/>
      <use xlink:href="#DejaVuSans-73" transform="translate(754.255859 0)"/>
     </g>
    </g>
   </g>
   <g id="FillBetweenPolyCollection_1">
    <path d="M 47.420906 -6.053458 
L 47.420906 242.895395 
L 49.33594 252.887503 
L 51.250975 274.244057 
L 53.166009 306.601926 
L 55.081044 345.642515 
L 56.996079 384.242705 
L 58.911113 415.596763 
L 60.826148 435.797065 
L 62.741182 444.694566 
L 64.656217 445.164427 
L 66.571251 441.477974 
L 68.486286 437.578368 
L 70.401321 435.881273 
L 72.316355 437.107179 
L 74.23139 441.205307 
L 76.146424 448.391146 
L 78.061459 459.052563 
L 79.976493 472.677633 
L 81.891528 487.287252 
L 83.806563 500.3033 
L 85.721597 510.04975 
L 87.636632 516.346521 
L 89.551666 519.810976 
L 91.466701 520.941267 
L 93.381735 519.937689 
L 95.29677 516.975004 
L 97.211805 512.284702 
L 99.126839 506.146931 
L 101.041874 499.051202 
L 102.956908 491.717455 
L 104.871943 484.801227 
L 106.786978 478.746623 
L 108.702012 473.945485 
L 110.617047 470.723113 
L 112.532081 469.052555 
L 114.447116 468.494601 
L 116.36215 468.501796 
L 118.277185 468.709991 
L 120.19222 468.987562 
L 122.107254 469.351133 
L 124.022289 469.902292 
L 125.937323 470.801585 
L 127.852358 472.231393 
L 129.767392 474.311651 
L 131.682427 476.990174 
L 133.597462 479.967535 
L 135.512496 482.724954 
L 137.427531 484.697898 
L 139.342565 485.534612 
L 141.2576 485.262633 
L 143.172634 484.228462 
L 145.087669 482.876622 
L 147.002704 481.555432 
L 148.917738 480.455496 
L 150.832773 479.636827 
L 152.747807 479.064787 
L 154.662842 478.642218 
L 156.577876 478.261917 
L 158.492911 477.867215 
L 160.407946 477.479266 
L 162.32298 477.167307 
L 164.238015 476.984073 
L 166.153049 476.919594 
L 168.068084 476.91298 
L 169.983118 476.904329 
L 171.898153 476.871976 
L 173.813188 476.831161 
L 175.728222 476.810803 
L 177.643257 476.824461 
L 179.558291 476.845301 
L 181.473326 476.813101 
L 183.388361 476.686156 
L 185.303395 476.49086 
L 187.21843 476.307584 
L 189.133464 476.200983 
L 191.048499 476.159653 
L 192.963533 476.095969 
L 194.878568 475.906781 
L 196.793603 475.553468 
L 198.708637 475.088656 
L 200.623672 474.599116 
L 202.538706 474.127709 
L 204.453741 473.659271 
L 206.368775 473.162895 
L 208.28381 472.629678 
L 210.198845 472.086707 
L 212.113879 471.597344 
L 214.028914 471.23245 
L 215.943948 471.019474 
L 217.858983 470.920738 
L 219.774017 470.86378 
L 221.689052 470.785928 
L 223.604087 470.656854 
L 225.519121 470.479252 
L 227.434156 470.28459 
L 229.34919 470.127755 
L 231.264225 470.074744 
L 233.179259 470.174295 
L 235.094294 470.42093 
L 237.009329 470.742516 
L 238.924363 471.04107 
L 240.839398 471.255899 
L 242.754432 471.388902 
L 244.669467 471.477801 
L 246.584501 471.55474 
L 248.499536 471.627256 
L 250.414571 471.693287 
L 252.329605 471.766739 
L 254.24464 471.874261 
L 256.159674 472.025217 
L 258.074709 472.200186 
L 259.989743 472.367989 
L 261.904778 472.490978 
L 263.819813 472.513679 
L 265.734847 472.383662 
L 267.649882 472.110962 
L 269.564916 471.791691 
L 271.479951 471.55409 
L 273.394986 471.480571 
L 275.31002 471.568928 
L 277.225055 471.740049 
L 279.140089 471.88461 
L 281.055124 471.936056 
L 282.970158 471.917236 
L 284.885193 471.903771 
L 286.800228 471.937585 
L 288.715262 471.988768 
L 290.630297 471.99458 
L 292.545331 471.915176 
L 294.460366 471.757899 
L 296.3754 471.577142 
L 298.290435 471.458416 
L 300.20547 471.476072 
L 302.120504 471.640544 
L 304.035539 471.883924 
L 305.950573 472.104515 
L 307.865608 472.230611 
L 309.780642 472.252931 
L 311.695677 472.212814 
L 313.610712 472.165954 
L 315.525746 472.152465 
L 317.440781 472.194005 
L 319.355815 472.301055 
L 321.27085 472.46184 
L 323.185884 472.627315 
L 325.100919 472.730709 
L 327.015954 472.73659 
L 328.930988 472.66454 
L 330.846023 472.560516 
L 332.761057 472.455154 
L 334.676092 472.359253 
L 336.591126 472.287383 
L 338.506161 472.266587 
L 340.421196 472.317534 
L 342.33623 472.432565 
L 344.251265 472.575382 
L 346.166299 472.70872 
L 348.081334 472.82247 
L 349.996368 472.927613 
L 351.911403 473.036429 
L 353.826438 473.167161 
L 355.741472 473.340686 
L 357.656507 473.527671 
L 359.571541 473.606649 
L 361.486576 473.427176 
L 363.401611 472.952572 
L 365.316645 472.347215 
L 367.23168 471.899397 
L 369.146714 471.81818 
L 371.061749 472.086474 
L 372.976783 472.5092 
L 374.891818 472.88299 
L 376.806853 473.109058 
L 378.721887 473.183331 
L 380.636922 473.136305 
L 382.551956 473.006772 
L 384.466991 472.848568 
L 386.382025 472.718604 
L 388.29706 472.640023 
L 390.212095 472.590005 
L 392.127129 472.529453 
L 394.042164 472.435739 
L 395.957198 472.313583 
L 397.872233 472.194749 
L 399.787267 472.124825 
L 401.702302 472.127245 
L 403.617337 472.172139 
L 405.532371 472.191536 
L 407.447406 472.129073 
L 409.36244 471.972455 
L 411.277475 471.745173 
L 413.192509 471.483192 
L 415.107544 471.217797 
L 417.022579 470.962425 
L 418.937613 470.711254 
L 420.852648 470.46428 
L 422.767682 470.251299 
L 424.682717 470.111032 
L 426.597751 470.045437 
L 428.512786 470.021628 
L 430.427821 470.029008 
L 432.342855 470.106957 
L 434.25789 470.29492 
L 436.172924 470.573557 
L 438.087959 470.875422 
L 440.002993 471.135755 
L 441.918028 471.312806 
L 443.833063 471.382642 
L 445.748097 471.350775 
L 447.663132 471.268449 
L 449.578166 471.212226 
L 451.493201 471.233736 
L 453.408236 471.330949 
L 455.32327 471.465048 
L 457.238305 471.592315 
L 459.153339 471.67775 
L 461.068374 471.696476 
L 462.983408 471.642078 
L 464.898443 471.53474 
L 466.813478 471.408877 
L 468.728512 471.288983 
L 470.643547 471.178502 
L 472.558581 471.068475 
L 474.473616 470.955549 
L 476.38865 470.854689 
L 478.303685 470.79336 
L 480.21872 470.790262 
L 482.133754 470.839187 
L 484.048789 470.910985 
L 485.963823 470.967598 
L 487.878858 470.98379 
L 489.793892 470.970778 
L 491.708927 470.979647 
L 493.623962 471.070673 
L 495.538996 471.270917 
L 497.454031 471.554205 
L 499.369065 471.858063 
L 501.2841 472.123358 
L 503.199134 472.319101 
L 505.114169 472.43345 
L 507.029204 472.462096 
L 508.944238 472.418445 
L 510.859273 472.339539 
L 512.774307 472.269057 
L 514.689342 472.24181 
L 516.604376 472.284033 
L 518.519411 472.405438 
L 520.434446 472.574633 
L 522.34948 472.719902 
L 524.264515 472.780656 
L 526.179549 472.761062 
L 528.094584 472.722388 
L 530.009618 472.723453 
L 531.924653 472.773935 
L 533.839688 472.837711 
L 535.754722 472.868474 
L 537.669757 472.845169 
L 539.584791 472.788558 
L 541.499826 472.751085 
L 543.414861 472.784288 
L 545.329895 472.907708 
L 547.24493 473.103313 
L 549.159964 473.329513 
L 551.074999 473.536024 
L 552.990033 473.675607 
L 554.905068 473.717598 
L 556.820103 473.660841 
L 558.735137 473.538055 
L 560.650172 473.405212 
L 562.565206 473.317629 
L 564.480241 473.305529 
L 566.395275 473.363341 
L 568.31031 473.455781 
L 570.225345 473.53654 
L 572.140379 473.575718 
L 574.055414 473.581377 
L 575.970448 473.592855 
L 577.885483 473.64787 
L 579.800517 473.754942 
L 581.715552 473.896015 
L 583.630587 474.045235 
L 585.545621 474.175997 
L 587.460656 474.256971 
L 589.37569 474.263672 
L 591.290725 474.203961 
L 593.205759 474.123653 
L 595.120794 474.079756 
L 597.035829 474.107513 
L 598.950863 474.205746 
L 600.865898 474.339951 
L 602.780932 474.45791 
L 604.695967 474.518235 
L 606.611001 474.517937 
L 608.526036 474.488268 
L 610.441071 474.45147 
L 612.356105 474.385644 
L 614.27114 474.249193 
L 616.186174 474.041791 
L 618.101209 473.826465 
L 620.016243 473.690185 
L 620.016243 446.114212 
L 620.016243 446.114212 
L 618.101209 446.063753 
L 616.186174 445.966981 
L 614.27114 445.834189 
L 612.356105 445.678782 
L 610.441071 445.5103 
L 608.526036 445.333179 
L 606.611001 445.153921 
L 604.695967 444.992109 
L 602.780932 444.889533 
L 600.865898 444.902836 
L 598.950863 445.066262 
L 597.035829 445.352454 
L 595.120794 445.683998 
L 593.205759 445.989991 
L 591.290725 446.23863 
L 589.37569 446.417136 
L 587.460656 446.506758 
L 585.545621 446.494572 
L 583.630587 446.397015 
L 581.715552 446.253932 
L 579.800517 446.101158 
L 577.885483 445.960648 
L 575.970448 445.853541 
L 574.055414 445.800382 
L 572.140379 445.798013 
L 570.225345 445.816562 
L 568.31031 445.834276 
L 566.395275 445.858897 
L 564.480241 445.902219 
L 562.565206 445.949002 
L 560.650172 445.961632 
L 558.735137 445.905679 
L 556.820103 445.769475 
L 554.905068 445.572116 
L 552.990033 445.35797 
L 551.074999 445.178802 
L 549.159964 445.0689 
L 547.24493 445.022087 
L 545.329895 444.993721 
L 543.414861 444.938898 
L 541.499826 444.848365 
L 539.584791 444.736913 
L 537.669757 444.603321 
L 535.754722 444.424047 
L 533.839688 444.198608 
L 531.924653 443.988687 
L 530.009618 443.888027 
L 528.094584 443.944038 
L 526.179549 444.118709 
L 524.264515 444.327055 
L 522.34948 444.499135 
L 520.434446 444.604794 
L 518.519411 444.640627 
L 516.604376 444.613561 
L 514.689342 444.538894 
L 512.774307 444.443765 
L 510.859273 444.35977 
L 508.944238 444.305394 
L 507.029204 444.275952 
L 505.114169 444.247825 
L 503.199134 444.186493 
L 501.2841 444.0532 
L 499.369065 443.818701 
L 497.454031 443.485623 
L 495.538996 443.106657 
L 493.623962 442.782122 
L 491.708927 442.625858 
L 489.793892 442.7027 
L 487.878858 442.982787 
L 485.963823 443.360277 
L 484.048789 443.715238 
L 482.133754 443.968832 
L 480.21872 444.122532 
L 478.303685 444.265519 
L 476.38865 444.504977 
L 474.473616 444.855698 
L 472.558581 445.214143 
L 470.643547 445.455414 
L 468.728512 445.537571 
L 466.813478 445.508973 
L 464.898443 445.444585 
L 462.983408 445.388546 
L 461.068374 445.337811 
L 459.153339 445.2581 
L 457.238305 445.113466 
L 455.32327 444.89192 
L 453.408236 444.619701 
L 451.493201 444.366011 
L 449.578166 444.228956 
L 447.663132 444.284365 
L 445.748097 444.524816 
L 443.833063 444.856949 
L 441.918028 445.168447 
L 440.002993 445.393951 
L 438.087959 445.528946 
L 436.172924 445.613628 
L 434.25789 445.710936 
L 432.342855 445.873319 
L 430.427821 446.107734 
L 428.512786 446.368856 
L 426.597751 446.591091 
L 424.682717 446.737025 
L 422.767682 446.819691 
L 420.852648 446.874084 
L 418.937613 446.908185 
L 417.022579 446.891085 
L 415.107544 446.787857 
L 413.192509 446.602679 
L 411.277475 446.404519 
L 409.36244 446.317027 
L 407.447406 446.449821 
L 405.532371 446.81063 
L 403.617337 447.295512 
L 401.702302 447.774442 
L 399.787267 448.1718 
L 397.872233 448.466071 
L 395.957198 448.644904 
L 394.042164 448.686732 
L 392.127129 448.582586 
L 390.212095 448.358715 
L 388.29706 448.064738 
L 386.382025 447.742071 
L 384.466991 447.413818 
L 382.551956 447.104478 
L 380.636922 446.849864 
L 378.721887 446.669477 
L 376.806853 446.53306 
L 374.891818 446.370789 
L 372.976783 446.127382 
L 371.061749 445.81717 
L 369.146714 445.540277 
L 367.23168 445.429399 
L 365.316645 445.540229 
L 363.401611 445.787487 
L 361.486576 446.014644 
L 359.571541 446.129445 
L 357.656507 446.16192 
L 355.741472 446.204074 
L 353.826438 446.313274 
L 351.911403 446.480469 
L 349.996368 446.672928 
L 348.081334 446.868295 
L 346.166299 447.033011 
L 344.251265 447.108507 
L 342.33623 447.058543 
L 340.421196 446.910015 
L 338.506161 446.718201 
L 336.591126 446.511098 
L 334.676092 446.29097 
L 332.761057 446.071177 
L 330.846023 445.892566 
L 328.930988 445.812606 
L 327.015954 445.880902 
L 325.100919 446.106802 
L 323.185884 446.445541 
L 321.27085 446.824196 
L 319.355815 447.180277 
L 317.440781 447.479176 
L 315.525746 447.714657 
L 313.610712 447.903477 
L 311.695677 448.07428 
L 309.780642 448.246093 
L 307.865608 448.399846 
L 305.950573 448.469978 
L 304.035539 448.38261 
L 302.120504 448.116447 
L 300.20547 447.72752 
L 298.290435 447.314119 
L 296.3754 446.955826 
L 294.460366 446.677823 
L 292.545331 446.460495 
L 290.630297 446.274266 
L 288.715262 446.114071 
L 286.800228 446.022526 
L 284.885193 446.086858 
L 282.970158 446.389938 
L 281.055124 446.933975 
L 279.140089 447.607126 
L 277.225055 448.244822 
L 275.31002 448.730669 
L 273.394986 449.042322 
L 271.479951 449.236242 
L 269.564916 449.422543 
L 267.649882 449.725619 
L 265.734847 450.20692 
L 263.819813 450.81117 
L 261.904778 451.409182 
L 259.989743 451.887378 
L 258.074709 452.188088 
L 256.159674 452.295002 
L 254.24464 452.214217 
L 252.329605 451.974787 
L 250.414571 451.639276 
L 248.499536 451.292307 
L 246.584501 450.99555 
L 244.669467 450.758969 
L 242.754432 450.576953 
L 240.839398 450.477867 
L 238.924363 450.497528 
L 237.009329 450.603265 
L 235.094294 450.684587 
L 233.179259 450.637469 
L 231.264225 450.452133 
L 229.34919 450.227075 
L 227.434156 450.111222 
L 225.519121 450.215007 
L 223.604087 450.543009 
L 221.689052 450.997995 
L 219.774017 451.454607 
L 217.858983 451.82995 
L 215.943948 452.09502 
L 214.028914 452.241769 
L 212.113879 452.256796 
L 210.198845 452.137432 
L 208.28381 451.93604 
L 206.368775 451.759685 
L 204.453741 451.688816 
L 202.538706 451.70395 
L 200.623672 451.71507 
L 198.708637 451.64652 
L 196.793603 451.479602 
L 194.878568 451.244474 
L 192.963533 450.995081 
L 191.048499 450.771038 
L 189.133464 450.566065 
L 187.21843 450.351544 
L 185.303395 450.143306 
L 183.388361 450.023389 
L 181.473326 450.075829 
L 179.558291 450.309877 
L 177.643257 450.652987 
L 175.728222 450.99488 
L 173.813188 451.220752 
L 171.898153 451.232753 
L 169.983118 450.989243 
L 168.068084 450.539879 
L 166.153049 450.00781 
L 164.238015 449.517858 
L 162.32298 449.118976 
L 160.407946 448.754507 
L 158.492911 448.294878 
L 156.577876 447.578552 
L 154.662842 446.397972 
L 152.747807 444.488636 
L 150.832773 441.657827 
L 148.917738 437.986566 
L 147.002704 433.825451 
L 145.087669 429.53415 
L 143.172634 425.371964 
L 141.2576 421.79156 
L 139.342565 419.683425 
L 137.427531 419.989308 
L 135.512496 422.899861 
L 133.597462 427.488551 
L 131.682427 432.236642 
L 129.767392 435.997711 
L 127.852358 438.578914 
L 125.937323 440.526135 
L 124.022289 442.417986 
L 122.107254 444.371397 
L 120.19222 446.126172 
L 118.277185 447.368366 
L 116.36215 447.736921 
L 114.447116 446.452984 
L 112.532081 442.093971 
L 110.617047 433.155788 
L 108.702012 419.204912 
L 106.786978 401.306573 
L 104.871943 380.901892 
L 102.956908 358.504665 
L 101.041874 334.000748 
L 99.126839 307.694033 
L 97.211805 280.329048 
L 95.29677 252.794274 
L 93.381735 226.829938 
L 91.466701 205.477715 
L 89.551666 191.822331 
L 87.636632 187.425436 
L 85.721597 192.142558 
L 83.806563 204.234073 
L 81.891528 219.317284 
L 79.976493 229.757146 
L 78.061459 227.183692 
L 76.146424 207.675842 
L 74.23139 175.607197 
L 72.316355 142.279407 
L 70.401321 119.4273 
L 68.486286 112.416803 
L 66.571251 118.634512 
L 64.656217 131.604567 
L 62.741182 145.877687 
L 60.826148 157.991457 
L 58.911113 164.21263 
L 56.996079 159.383078 
L 55.081044 139.130686 
L 53.166009 103.591737 
L 51.250975 59.441084 
L 49.33594 18.590073 
L 47.420906 -6.053458 
z
" clip-path="url(#pe964d7c13b)" style="fill: #00b899; fill-opacity: 0.1"/>
   </g>
   <g id="FillBetweenPolyCollection_2">
    <path d="M 47.420906 464.789286 
L 47.420906 464.789286 
L 49.33594 464.789286 
L 51.250975 464.789286 
L 53.166009 464.789286 
L 55.081044 464.789286 
L 56.996079 464.789286 
L 58.911113 464.789286 
L 60.826148 464.789286 
L 62.741182 464.789286 
L 64.656217 464.789286 
L 66.571251 464.789286 
L 68.486286 464.789286 
L 70.401321 464.789286 
L 72.316355 464.789286 
L 74.23139 464.789286 
L 76.146424 464.789286 
L 78.061459 464.789286 
L 79.976493 464.789286 
L 81.891528 464.789286 
L 83.806563 464.789286 
L 85.721597 464.789286 
L 87.636632 464.789286 
L 89.551666 464.789286 
L 91.466701 464.789286 
L 93.381735 464.789286 
L 95.29677 464.789286 
L 97.211805 464.789286 
L 99.126839 464.789286 
L 101.041874 464.789286 
L 102.956908 464.789286 
L 104.871943 464.789286 
L 106.786978 464.789286 
L 108.702012 464.789286 
L 110.617047 464.789286 
L 112.532081 464.789286 
L 114.447116 464.789286 
L 116.36215 464.789286 
L 118.277185 464.789286 
L 120.19222 464.789286 
L 122.107254 464.789286 
L 124.022289 464.789286 
L 125.937323 464.789286 
L 127.852358 464.789286 
L 129.767392 464.789286 
L 131.682427 464.789286 
L 133.597462 464.789286 
L 135.512496 464.789286 
L 137.427531 464.789286 
L 139.342565 464.789286 
L 141.2576 464.789286 
L 143.172634 464.789286 
L 145.087669 464.789286 
L 147.002704 464.789286 
L 148.917738 464.789286 
L 150.832773 464.789286 
L 152.747807 464.789286 
L 154.662842 464.789286 
L 156.577876 464.789286 
L 158.492911 464.789286 
L 160.407946 464.789286 
L 162.32298 464.789286 
L 164.238015 464.789286 
L 166.153049 464.789286 
L 168.068084 464.789286 
L 169.983118 464.789286 
L 171.898153 464.789286 
L 173.813188 464.789286 
L 175.728222 464.789286 
L 177.643257 464.789286 
L 179.558291 464.789286 
L 181.473326 464.789286 
L 183.388361 464.789286 
L 185.303395 464.789286 
L 187.21843 464.789286 
L 189.133464 464.789286 
L 191.048499 464.789286 
L 192.963533 464.789286 
L 194.878568 464.789286 
L 196.793603 464.789286 
L 198.708637 464.789286 
L 200.623672 464.789286 
L 202.538706 464.789286 
L 204.453741 464.789286 
L 206.368775 464.789286 
L 208.28381 464.789286 
L 210.198845 464.789286 
L 212.113879 464.789286 
L 214.028914 464.789286 
L 215.943948 464.789286 
L 217.858983 464.789286 
L 219.774017 464.789286 
L 221.689052 464.789286 
L 223.604087 464.789286 
L 225.519121 464.789286 
L 227.434156 464.789286 
L 229.34919 464.789286 
L 231.264225 464.789286 
L 233.179259 464.789286 
L 235.094294 464.789286 
L 237.009329 464.789286 
L 238.924363 464.789286 
L 240.839398 464.789286 
L 242.754432 464.789286 
L 244.669467 464.789286 
L 246.584501 464.789286 
L 248.499536 464.789286 
L 250.414571 464.789286 
L 252.329605 464.789286 
L 254.24464 464.789286 
L 256.159674 464.789286 
L 258.074709 464.789286 
L 259.989743 464.789286 
L 261.904778 464.789286 
L 263.819813 464.789286 
L 265.734847 464.789286 
L 267.649882 464.789286 
L 269.564916 464.789286 
L 271.479951 464.789286 
L 273.394986 464.789286 
L 275.31002 464.789286 
L 277.225055 464.789286 
L 279.140089 464.789286 
L 281.055124 464.789286 
L 282.970158 464.789286 
L 284.885193 464.789286 
L 286.800228 464.789286 
L 288.715262 464.789286 
L 290.630297 464.789286 
L 292.545331 464.789286 
L 294.460366 464.789286 
L 296.3754 464.789286 
L 298.290435 464.789286 
L 300.20547 464.789286 
L 302.120504 464.789286 
L 304.035539 464.789286 
L 305.950573 464.789286 
L 307.865608 464.789286 
L 309.780642 464.789286 
L 311.695677 464.789286 
L 313.610712 464.789286 
L 315.525746 464.789286 
L 317.440781 464.789286 
L 319.355815 464.789286 
L 321.27085 464.789286 
L 323.185884 464.789286 
L 325.100919 464.789286 
L 327.015954 464.789286 
L 328.930988 464.789286 
L 330.846023 464.789286 
L 332.761057 464.789286 
L 334.676092 464.789286 
L 336.591126 464.789286 
L 338.506161 464.789286 
L 340.421196 464.789286 
L 342.33623 464.789286 
L 344.251265 464.789286 
L 346.166299 464.789286 
L 348.081334 464.789286 
L 349.996368 464.789286 
L 351.911403 464.789286 
L 353.826438 464.789286 
L 355.741472 464.789286 
L 357.656507 464.789286 
L 359.571541 464.789286 
L 361.486576 464.789286 
L 363.401611 464.789286 
L 365.316645 464.789286 
L 367.23168 464.789286 
L 369.146714 464.789286 
L 371.061749 464.789286 
L 372.976783 464.789286 
L 374.891818 464.789286 
L 376.806853 464.789286 
L 378.721887 464.789286 
L 380.636922 464.789286 
L 382.551956 464.789286 
L 384.466991 464.789286 
L 386.382025 464.789286 
L 388.29706 464.789286 
L 390.212095 464.789286 
L 392.127129 464.789286 
L 394.042164 464.789286 
L 395.957198 464.789286 
L 397.872233 464.789286 
L 399.787267 464.789286 
L 401.702302 464.789286 
L 403.617337 464.789286 
L 405.532371 464.789286 
L 407.447406 464.789286 
L 409.36244 464.789286 
L 411.277475 464.789286 
L 413.192509 464.789286 
L 415.107544 464.789286 
L 417.022579 464.789286 
L 418.937613 464.789286 
L 420.852648 464.789286 
L 422.767682 464.789286 
L 424.682717 464.789286 
L 426.597751 464.789286 
L 428.512786 464.789286 
L 430.427821 464.789286 
L 432.342855 464.789286 
L 434.25789 464.789286 
L 436.172924 464.789286 
L 438.087959 464.789286 
L 440.002993 464.789286 
L 441.918028 464.789286 
L 443.833063 464.789286 
L 445.748097 464.789286 
L 447.663132 464.789286 
L 449.578166 464.789286 
L 451.493201 464.789286 
L 453.408236 464.789286 
L 455.32327 464.789286 
L 457.238305 464.789286 
L 459.153339 464.789286 
L 461.068374 464.789286 
L 462.983408 464.789286 
L 464.898443 464.789286 
L 466.813478 464.789286 
L 468.728512 464.789286 
L 470.643547 464.789286 
L 472.558581 464.789286 
L 474.473616 464.789286 
L 476.38865 464.789286 
L 478.303685 464.789286 
L 480.21872 464.789286 
L 482.133754 464.789286 
L 484.048789 464.789286 
L 485.963823 464.789286 
L 487.878858 464.789286 
L 489.793892 464.789286 
L 491.708927 464.789286 
L 493.623962 464.789286 
L 495.538996 464.789286 
L 497.454031 464.789286 
L 499.369065 464.789286 
L 501.2841 464.789286 
L 503.199134 464.789286 
L 505.114169 464.789286 
L 507.029204 464.789286 
L 508.944238 464.789286 
L 510.859273 464.789286 
L 512.774307 464.789286 
L 514.689342 464.789286 
L 516.604376 464.789286 
L 518.519411 464.789286 
L 520.434446 464.789286 
L 522.34948 464.789286 
L 524.264515 464.789286 
L 526.179549 464.789286 
L 528.094584 464.789286 
L 530.009618 464.789286 
L 531.924653 464.789286 
L 533.839688 464.789286 
L 535.754722 464.789286 
L 537.669757 464.789286 
L 539.584791 464.789286 
L 541.499826 464.789286 
L 543.414861 464.789286 
L 545.329895 464.789286 
L 547.24493 464.789286 
L 549.159964 464.789286 
L 551.074999 464.789286 
L 552.990033 464.789286 
L 554.905068 464.789286 
L 556.820103 464.789286 
L 558.735137 464.789286 
L 560.650172 464.789286 
L 562.565206 464.789286 
L 564.480241 464.789286 
L 566.395275 464.789286 
L 568.31031 464.789286 
L 570.225345 464.789286 
L 572.140379 464.789286 
L 574.055414 464.789286 
L 575.970448 464.789286 
L 577.885483 464.789286 
L 579.800517 464.789286 
L 581.715552 464.789286 
L 583.630587 464.789286 
L 585.545621 464.789286 
L 587.460656 464.789286 
L 589.37569 464.789286 
L 591.290725 464.789286 
L 593.205759 464.789286 
L 595.120794 464.789286 
L 597.035829 464.789286 
L 598.950863 464.789286 
L 600.865898 464.789286 
L 602.780932 464.789286 
L 604.695967 464.789286 
L 606.611001 464.789286 
L 608.526036 464.789286 
L 610.441071 464.789286 
L 612.356105 464.789286 
L 614.27114 464.789286 
L 616.186174 464.789286 
L 618.101209 464.789286 
L 620.016243 464.789286 
L 620.016243 464.789286 
L 620.016243 464.789286 
L 618.101209 464.789286 
L 616.186174 464.789286 
L 614.27114 464.789286 
L 612.356105 464.789286 
L 610.441071 464.789286 
L 608.526036 464.789286 
L 606.611001 464.789286 
L 604.695967 464.789286 
L 602.780932 464.789286 
L 600.865898 464.789286 
L 598.950863 464.789286 
L 597.035829 464.789286 
L 595.120794 464.789286 
L 593.205759 464.789286 
L 591.290725 464.789286 
L 589.37569 464.789286 
L 587.460656 464.789286 
L 585.545621 464.789286 
L 583.630587 464.789286 
L 581.715552 464.789286 
L 579.800517 464.789286 
L 577.885483 464.789286 
L 575.970448 464.789286 
L 574.055414 464.789286 
L 572.140379 464.789286 
L 570.225345 464.789286 
L 568.31031 464.789286 
L 566.395275 464.789286 
L 564.480241 464.789286 
L 562.565206 464.789286 
L 560.650172 464.789286 
L 558.735137 464.789286 
L 556.820103 464.789286 
L 554.905068 464.789286 
L 552.990033 464.789286 
L 551.074999 464.789286 
L 549.159964 464.789286 
L 547.24493 464.789286 
L 545.329895 464.789286 
L 543.414861 464.789286 
L 541.499826 464.789286 
L 539.584791 464.789286 
L 537.669757 464.789286 
L 535.754722 464.789286 
L 533.839688 464.789286 
L 531.924653 464.789286 
L 530.009618 464.789286 
L 528.094584 464.789286 
L 526.179549 464.789286 
L 524.264515 464.789286 
L 522.34948 464.789286 
L 520.434446 464.789286 
L 518.519411 464.789286 
L 516.604376 464.789286 
L 514.689342 464.789286 
L 512.774307 464.789286 
L 510.859273 464.789286 
L 508.944238 464.789286 
L 507.029204 464.789286 
L 505.114169 464.789286 
L 503.199134 464.789286 
L 501.2841 464.789286 
L 499.369065 464.789286 
L 497.454031 464.789286 
L 495.538996 464.789286 
L 493.623962 464.789286 
L 491.708927 464.789286 
L 489.793892 464.789286 
L 487.878858 464.789286 
L 485.963823 464.789286 
L 484.048789 464.789286 
L 482.133754 464.789286 
L 480.21872 464.789286 
L 478.303685 464.789286 
L 476.38865 464.789286 
L 474.473616 464.789286 
L 472.558581 464.789286 
L 470.643547 464.789286 
L 468.728512 464.789286 
L 466.813478 464.789286 
L 464.898443 464.789286 
L 462.983408 464.789286 
L 461.068374 464.789286 
L 459.153339 464.789286 
L 457.238305 464.789286 
L 455.32327 464.789286 
L 453.408236 464.789286 
L 451.493201 464.789286 
L 449.578166 464.789286 
L 447.663132 464.789286 
L 445.748097 464.789286 
L 443.833063 464.789286 
L 441.918028 464.789286 
L 440.002993 464.789286 
L 438.087959 464.789286 
L 436.172924 464.789286 
L 434.25789 464.789286 
L 432.342855 464.789286 
L 430.427821 464.789286 
L 428.512786 464.789286 
L 426.597751 464.789286 
L 424.682717 464.789286 
L 422.767682 464.789286 
L 420.852648 464.789286 
L 418.937613 464.789286 
L 417.022579 464.789286 
L 415.107544 464.789286 
L 413.192509 464.789286 
L 411.277475 464.789286 
L 409.36244 464.789286 
L 407.447406 464.789286 
L 405.532371 464.789286 
L 403.617337 464.789286 
L 401.702302 464.789286 
L 399.787267 464.789286 
L 397.872233 464.789286 
L 395.957198 464.789286 
L 394.042164 464.789286 
L 392.127129 464.789286 
L 390.212095 464.789286 
L 388.29706 464.789286 
L 386.382025 464.789286 
L 384.466991 464.789286 
L 382.551956 464.789286 
L 380.636922 464.789286 
L 378.721887 464.789286 
L 376.806853 464.789286 
L 374.891818 464.789286 
L 372.976783 464.789286 
L 371.061749 464.789286 
L 369.146714 464.789286 
L 367.23168 464.789286 
L 365.316645 464.789286 
L 363.401611 464.789286 
L 361.486576 464.789286 
L 359.571541 464.789286 
L 357.656507 464.789286 
L 355.741472 464.789286 
L 353.826438 464.789286 
L 351.911403 464.789286 
L 349.996368 464.789286 
L 348.081334 464.789286 
L 346.166299 464.789286 
L 344.251265 464.789286 
L 342.33623 464.789286 
L 340.421196 464.789286 
L 338.506161 464.789286 
L 336.591126 464.789286 
L 334.676092 464.789286 
L 332.761057 464.789286 
L 330.846023 464.789286 
L 328.930988 464.789286 
L 327.015954 464.789286 
L 325.100919 464.789286 
L 323.185884 464.789286 
L 321.27085 464.789286 
L 319.355815 464.789286 
L 317.440781 464.789286 
L 315.525746 464.789286 
L 313.610712 464.789286 
L 311.695677 464.789286 
L 309.780642 464.789286 
L 307.865608 464.789286 
L 305.950573 464.789286 
L 304.035539 464.789286 
L 302.120504 464.789286 
L 300.20547 464.789286 
L 298.290435 464.789286 
L 296.3754 464.789286 
L 294.460366 464.789286 
L 292.545331 464.789286 
L 290.630297 464.789286 
L 288.715262 464.789286 
L 286.800228 464.789286 
L 284.885193 464.789286 
L 282.970158 464.789286 
L 281.055124 464.789286 
L 279.140089 464.789286 
L 277.225055 464.789286 
L 275.31002 464.789286 
L 273.394986 464.789286 
L 271.479951 464.789286 
L 269.564916 464.789286 
L 267.649882 464.789286 
L 265.734847 464.789286 
L 263.819813 464.789286 
L 261.904778 464.789286 
L 259.989743 464.789286 
L 258.074709 464.789286 
L 256.159674 464.789286 
L 254.24464 464.789286 
L 252.329605 464.789286 
L 250.414571 464.789286 
L 248.499536 464.789286 
L 246.584501 464.789286 
L 244.669467 464.789286 
L 242.754432 464.789286 
L 240.839398 464.789286 
L 238.924363 464.789286 
L 237.009329 464.789286 
L 235.094294 464.789286 
L 233.179259 464.789286 
L 231.264225 464.789286 
L 229.34919 464.789286 
L 227.434156 464.789286 
L 225.519121 464.789286 
L 223.604087 464.789286 
L 221.689052 464.789286 
L 219.774017 464.789286 
L 217.858983 464.789286 
L 215.943948 464.789286 
L 214.028914 464.789286 
L 212.113879 464.789286 
L 210.198845 464.789286 
L 208.28381 464.789286 
L 206.368775 464.789286 
L 204.453741 464.789286 
L 202.538706 464.789286 
L 200.623672 464.789286 
L 198.708637 464.789286 
L 196.793603 464.789286 
L 194.878568 464.789286 
L 192.963533 464.789286 
L 191.048499 464.789286 
L 189.133464 464.789286 
L 187.21843 464.789286 
L 185.303395 464.789286 
L 183.388361 464.789286 
L 181.473326 464.789286 
L 179.558291 464.789286 
L 177.643257 464.789286 
L 175.728222 464.789286 
L 173.813188 464.789286 
L 171.898153 464.789286 
L 169.983118 464.789286 
L 168.068084 464.789286 
L 166.153049 464.789286 
L 164.238015 464.789286 
L 162.32298 464.789286 
L 160.407946 464.789286 
L 158.492911 464.789286 
L 156.577876 464.789286 
L 154.662842 464.789286 
L 152.747807 464.789286 
L 150.832773 464.789286 
L 148.917738 464.789286 
L 147.002704 464.789286 
L 145.087669 464.789286 
L 143.172634 464.789286 
L 141.2576 464.789286 
L 139.342565 464.789286 
L 137.427531 464.789286 
L 135.512496 464.789286 
L 133.597462 464.789286 
L 131.682427 464.789286 
L 129.767392 464.789286 
L 127.852358 464.789286 
L 125.937323 464.789286 
L 124.022289 464.789286 
L 122.107254 464.789286 
L 120.19222 464.789286 
L 118.277185 464.789286 
L 116.36215 464.789286 
L 114.447116 464.789286 
L 112.532081 464.789286 
L 110.617047 464.789286 
L 108.702012 464.789286 
L 106.786978 464.789286 
L 104.871943 464.789286 
L 102.956908 464.789286 
L 101.041874 464.789286 
L 99.126839 464.789286 
L 97.211805 464.789286 
L 95.29677 464.789286 
L 93.381735 464.789286 
L 91.466701 464.789286 
L 89.551666 464.789286 
L 87.636632 464.789286 
L 85.721597 464.789286 
L 83.806563 464.789286 
L 81.891528 464.789286 
L 79.976493 464.789286 
L 78.061459 464.789286 
L 76.146424 464.789286 
L 74.23139 464.789286 
L 72.316355 464.789286 
L 70.401321 464.789286 
L 68.486286 464.789286 
L 66.571251 464.789286 
L 64.656217 464.789286 
L 62.741182 464.789286 
L 60.826148 464.789286 
L 58.911113 464.789286 
L 56.996079 464.789286 
L 55.081044 464.789286 
L 53.166009 464.789286 
L 51.250975 464.789286 
L 49.33594 464.789286 
L 47.420906 464.789286 
z
" clip-path="url(#pe964d7c13b)" style="fill: #2ca02c; fill-opacity: 0.1"/>
   </g>
   <g id="FillBetweenPolyCollection_3">
    <path d="M 47.420906 464.789286 
L 47.420906 464.789286 
L 49.33594 464.789286 
L 51.250975 464.789286 
L 53.166009 464.789286 
L 55.081044 464.789286 
L 56.996079 464.789286 
L 58.911113 464.789286 
L 60.826148 464.789286 
L 62.741182 464.789286 
L 64.656217 464.789286 
L 66.571251 464.789286 
L 68.486286 464.789286 
L 70.401321 464.789286 
L 72.316355 464.789286 
L 74.23139 464.789286 
L 76.146424 464.789286 
L 78.061459 464.789286 
L 79.976493 464.789286 
L 81.891528 464.789286 
L 83.806563 464.789286 
L 85.721597 464.789286 
L 87.636632 464.789286 
L 89.551666 464.789286 
L 91.466701 464.789286 
L 93.381735 464.789286 
L 95.29677 464.789286 
L 97.211805 464.789286 
L 99.126839 464.789286 
L 101.041874 464.789286 
L 102.956908 464.789286 
L 104.871943 464.789286 
L 106.786978 464.789286 
L 108.702012 464.789286 
L 110.617047 464.789286 
L 112.532081 464.789286 
L 114.447116 464.789286 
L 116.36215 464.789286 
L 118.277185 464.789286 
L 120.19222 464.789286 
L 122.107254 464.789286 
L 124.022289 464.789286 
L 125.937323 464.789286 
L 127.852358 464.789286 
L 129.767392 464.789286 
L 131.682427 464.789286 
L 133.597462 464.789286 
L 135.512496 464.789286 
L 137.427531 464.789286 
L 139.342565 464.789286 
L 141.2576 464.789286 
L 143.172634 464.789286 
L 145.087669 464.789286 
L 147.002704 464.789286 
L 148.917738 464.789286 
L 150.832773 464.789286 
L 152.747807 464.789286 
L 154.662842 464.789286 
L 156.577876 464.789286 
L 158.492911 464.789286 
L 160.407946 464.789286 
L 162.32298 464.789286 
L 164.238015 464.789286 
L 166.153049 464.789286 
L 168.068084 464.789286 
L 169.983118 464.789286 
L 171.898153 464.789286 
L 173.813188 464.789286 
L 175.728222 464.789286 
L 177.643257 464.789286 
L 179.558291 464.789286 
L 181.473326 464.789286 
L 183.388361 464.789286 
L 185.303395 464.789286 
L 187.21843 464.789286 
L 189.133464 464.789286 
L 191.048499 464.789286 
L 192.963533 464.789286 
L 194.878568 464.789286 
L 196.793603 464.789286 
L 198.708637 464.789286 
L 200.623672 464.789286 
L 202.538706 464.789286 
L 204.453741 464.789286 
L 206.368775 464.789286 
L 208.28381 464.789286 
L 210.198845 464.789286 
L 212.113879 464.789286 
L 214.028914 464.789286 
L 215.943948 464.789286 
L 217.858983 464.789286 
L 219.774017 464.789286 
L 221.689052 464.789286 
L 223.604087 464.789286 
L 225.519121 464.789286 
L 227.434156 464.789286 
L 229.34919 464.789286 
L 231.264225 464.789286 
L 233.179259 464.789286 
L 235.094294 464.789286 
L 237.009329 464.789286 
L 238.924363 464.789286 
L 240.839398 464.789286 
L 242.754432 464.789286 
L 244.669467 464.789286 
L 246.584501 464.789286 
L 248.499536 464.789286 
L 250.414571 464.789286 
L 252.329605 464.789286 
L 254.24464 464.789286 
L 256.159674 464.789286 
L 258.074709 464.789286 
L 259.989743 464.789286 
L 261.904778 464.789286 
L 263.819813 464.789286 
L 265.734847 464.789286 
L 267.649882 464.789286 
L 269.564916 464.789286 
L 271.479951 464.789286 
L 273.394986 464.789286 
L 275.31002 464.789286 
L 277.225055 464.789286 
L 279.140089 464.789286 
L 281.055124 464.789286 
L 282.970158 464.789286 
L 284.885193 464.789286 
L 286.800228 464.789286 
L 288.715262 464.789286 
L 290.630297 464.789286 
L 292.545331 464.789286 
L 294.460366 464.789286 
L 296.3754 464.789286 
L 298.290435 464.789286 
L 300.20547 464.789286 
L 302.120504 464.789286 
L 304.035539 464.789286 
L 305.950573 464.789286 
L 307.865608 464.789286 
L 309.780642 464.789286 
L 311.695677 464.789286 
L 313.610712 464.789286 
L 315.525746 464.789286 
L 317.440781 464.789286 
L 319.355815 464.789286 
L 321.27085 464.789286 
L 323.185884 464.789286 
L 325.100919 464.789286 
L 327.015954 464.789286 
L 328.930988 464.789286 
L 330.846023 464.789286 
L 332.761057 464.789286 
L 334.676092 464.789286 
L 336.591126 464.789286 
L 338.506161 464.789286 
L 340.421196 464.789286 
L 342.33623 464.789286 
L 344.251265 464.789286 
L 346.166299 464.789286 
L 348.081334 464.789286 
L 349.996368 464.789286 
L 351.911403 464.789286 
L 353.826438 464.789286 
L 355.741472 464.789286 
L 357.656507 464.789286 
L 359.571541 464.789286 
L 361.486576 464.789286 
L 363.401611 464.789286 
L 365.316645 464.789286 
L 367.23168 464.789286 
L 369.146714 464.789286 
L 371.061749 464.789286 
L 372.976783 464.789286 
L 374.891818 464.789286 
L 376.806853 464.789286 
L 378.721887 464.789286 
L 380.636922 464.789286 
L 382.551956 464.789286 
L 384.466991 464.789286 
L 386.382025 464.789286 
L 388.29706 464.789286 
L 390.212095 464.789286 
L 392.127129 464.789286 
L 394.042164 464.789286 
L 395.957198 464.789286 
L 397.872233 464.789286 
L 399.787267 464.789286 
L 401.702302 464.789286 
L 403.617337 464.789286 
L 405.532371 464.789286 
L 407.447406 464.789286 
L 409.36244 464.789286 
L 411.277475 464.789286 
L 413.192509 464.789286 
L 415.107544 464.789286 
L 417.022579 464.789286 
L 418.937613 464.789286 
L 420.852648 464.789286 
L 422.767682 464.789286 
L 424.682717 464.789286 
L 426.597751 464.789286 
L 428.512786 464.789286 
L 430.427821 464.789286 
L 432.342855 464.789286 
L 434.25789 464.789286 
L 436.172924 464.789286 
L 438.087959 464.789286 
L 440.002993 464.789286 
L 441.918028 464.789286 
L 443.833063 464.789286 
L 445.748097 464.789286 
L 447.663132 464.789286 
L 449.578166 464.789286 
L 451.493201 464.789286 
L 453.408236 464.789286 
L 455.32327 464.789286 
L 457.238305 464.789286 
L 459.153339 464.789286 
L 461.068374 464.789286 
L 462.983408 464.789286 
L 464.898443 464.789286 
L 466.813478 464.789286 
L 468.728512 464.789286 
L 470.643547 464.789286 
L 472.558581 464.789286 
L 474.473616 464.789286 
L 476.38865 464.789286 
L 478.303685 464.789286 
L 480.21872 464.789286 
L 482.133754 464.789286 
L 484.048789 464.789286 
L 485.963823 464.789286 
L 487.878858 464.789286 
L 489.793892 464.789286 
L 491.708927 464.789286 
L 493.623962 464.789286 
L 495.538996 464.789286 
L 497.454031 464.789286 
L 499.369065 464.789286 
L 501.2841 464.789286 
L 503.199134 464.789286 
L 505.114169 464.789286 
L 507.029204 464.789286 
L 508.944238 464.789286 
L 510.859273 464.789286 
L 512.774307 464.789286 
L 514.689342 464.789286 
L 516.604376 464.789286 
L 518.519411 464.789286 
L 520.434446 464.789286 
L 522.34948 464.789286 
L 524.264515 464.789286 
L 526.179549 464.789286 
L 528.094584 464.789286 
L 530.009618 464.789286 
L 531.924653 464.789286 
L 533.839688 464.789286 
L 535.754722 464.789286 
L 537.669757 464.789286 
L 539.584791 464.789286 
L 541.499826 464.789286 
L 543.414861 464.789286 
L 545.329895 464.789286 
L 547.24493 464.789286 
L 549.159964 464.789286 
L 551.074999 464.789286 
L 552.990033 464.789286 
L 554.905068 464.789286 
L 556.820103 464.789286 
L 558.735137 464.789286 
L 560.650172 464.789286 
L 562.565206 464.789286 
L 564.480241 464.789286 
L 566.395275 464.789286 
L 568.31031 464.789286 
L 570.225345 464.789286 
L 572.140379 464.789286 
L 574.055414 464.789286 
L 575.970448 464.789286 
L 577.885483 464.789286 
L 579.800517 464.789286 
L 581.715552 464.789286 
L 583.630587 464.789286 
L 585.545621 464.789286 
L 587.460656 464.789286 
L 589.37569 464.789286 
L 591.290725 464.789286 
L 593.205759 464.789286 
L 595.120794 464.789286 
L 597.035829 464.789286 
L 598.950863 464.789286 
L 600.865898 464.789286 
L 602.780932 464.789286 
L 604.695967 464.789286 
L 606.611001 464.789286 
L 608.526036 464.789286 
L 610.441071 464.789286 
L 612.356105 464.789286 
L 614.27114 464.789286 
L 616.186174 464.789286 
L 618.101209 464.789286 
L 620.016243 464.789286 
L 620.016243 464.789286 
L 620.016243 464.789286 
L 618.101209 464.789286 
L 616.186174 464.789286 
L 614.27114 464.789286 
L 612.356105 464.789286 
L 610.441071 464.789286 
L 608.526036 464.789286 
L 606.611001 464.789286 
L 604.695967 464.789286 
L 602.780932 464.789286 
L 600.865898 464.789286 
L 598.950863 464.789286 
L 597.035829 464.789286 
L 595.120794 464.789286 
L 593.205759 464.789286 
L 591.290725 464.789286 
L 589.37569 464.789286 
L 587.460656 464.789286 
L 585.545621 464.789286 
L 583.630587 464.789286 
L 581.715552 464.789286 
L 579.800517 464.789286 
L 577.885483 464.789286 
L 575.970448 464.789286 
L 574.055414 464.789286 
L 572.140379 464.789286 
L 570.225345 464.789286 
L 568.31031 464.789286 
L 566.395275 464.789286 
L 564.480241 464.789286 
L 562.565206 464.789286 
L 560.650172 464.789286 
L 558.735137 464.789286 
L 556.820103 464.789286 
L 554.905068 464.789286 
L 552.990033 464.789286 
L 551.074999 464.789286 
L 549.159964 464.789286 
L 547.24493 464.789286 
L 545.329895 464.789286 
L 543.414861 464.789286 
L 541.499826 464.789286 
L 539.584791 464.789286 
L 537.669757 464.789286 
L 535.754722 464.789286 
L 533.839688 464.789286 
L 531.924653 464.789286 
L 530.009618 464.789286 
L 528.094584 464.789286 
L 526.179549 464.789286 
L 524.264515 464.789286 
L 522.34948 464.789286 
L 520.434446 464.789286 
L 518.519411 464.789286 
L 516.604376 464.789286 
L 514.689342 464.789286 
L 512.774307 464.789286 
L 510.859273 464.789286 
L 508.944238 464.789286 
L 507.029204 464.789286 
L 505.114169 464.789286 
L 503.199134 464.789286 
L 501.2841 464.789286 
L 499.369065 464.789286 
L 497.454031 464.789286 
L 495.538996 464.789286 
L 493.623962 464.789286 
L 491.708927 464.789286 
L 489.793892 464.789286 
L 487.878858 464.789286 
L 485.963823 464.789286 
L 484.048789 464.789286 
L 482.133754 464.789286 
L 480.21872 464.789286 
L 478.303685 464.789286 
L 476.38865 464.789286 
L 474.473616 464.789286 
L 472.558581 464.789286 
L 470.643547 464.789286 
L 468.728512 464.789286 
L 466.813478 464.789286 
L 464.898443 464.789286 
L 462.983408 464.789286 
L 461.068374 464.789286 
L 459.153339 464.789286 
L 457.238305 464.789286 
L 455.32327 464.789286 
L 453.408236 464.789286 
L 451.493201 464.789286 
L 449.578166 464.789286 
L 447.663132 464.789286 
L 445.748097 464.789286 
L 443.833063 464.789286 
L 441.918028 464.789286 
L 440.002993 464.789286 
L 438.087959 464.789286 
L 436.172924 464.789286 
L 434.25789 464.789286 
L 432.342855 464.789286 
L 430.427821 464.789286 
L 428.512786 464.789286 
L 426.597751 464.789286 
L 424.682717 464.789286 
L 422.767682 464.789286 
L 420.852648 464.789286 
L 418.937613 464.789286 
L 417.022579 464.789286 
L 415.107544 464.789286 
L 413.192509 464.789286 
L 411.277475 464.789286 
L 409.36244 464.789286 
L 407.447406 464.789286 
L 405.532371 464.789286 
L 403.617337 464.789286 
L 401.702302 464.789286 
L 399.787267 464.789286 
L 397.872233 464.789286 
L 395.957198 464.789286 
L 394.042164 464.789286 
L 392.127129 464.789286 
L 390.212095 464.789286 
L 388.29706 464.789286 
L 386.382025 464.789286 
L 384.466991 464.789286 
L 382.551956 464.789286 
L 380.636922 464.789286 
L 378.721887 464.789286 
L 376.806853 464.789286 
L 374.891818 464.789286 
L 372.976783 464.789286 
L 371.061749 464.789286 
L 369.146714 464.789286 
L 367.23168 464.789286 
L 365.316645 464.789286 
L 363.401611 464.789286 
L 361.486576 464.789286 
L 359.571541 464.789286 
L 357.656507 464.789286 
L 355.741472 464.789286 
L 353.826438 464.789286 
L 351.911403 464.789286 
L 349.996368 464.789286 
L 348.081334 464.789286 
L 346.166299 464.789286 
L 344.251265 464.789286 
L 342.33623 464.789286 
L 340.421196 464.789286 
L 338.506161 464.789286 
L 336.591126 464.789286 
L 334.676092 464.789286 
L 332.761057 464.789286 
L 330.846023 464.789286 
L 328.930988 464.789286 
L 327.015954 464.789286 
L 325.100919 464.789286 
L 323.185884 464.789286 
L 321.27085 464.789286 
L 319.355815 464.789286 
L 317.440781 464.789286 
L 315.525746 464.789286 
L 313.610712 464.789286 
L 311.695677 464.789286 
L 309.780642 464.789286 
L 307.865608 464.789286 
L 305.950573 464.789286 
L 304.035539 464.789286 
L 302.120504 464.789286 
L 300.20547 464.789286 
L 298.290435 464.789286 
L 296.3754 464.789286 
L 294.460366 464.789286 
L 292.545331 464.789286 
L 290.630297 464.789286 
L 288.715262 464.789286 
L 286.800228 464.789286 
L 284.885193 464.789286 
L 282.970158 464.789286 
L 281.055124 464.789286 
L 279.140089 464.789286 
L 277.225055 464.789286 
L 275.31002 464.789286 
L 273.394986 464.789286 
L 271.479951 464.789286 
L 269.564916 464.789286 
L 267.649882 464.789286 
L 265.734847 464.789286 
L 263.819813 464.789286 
L 261.904778 464.789286 
L 259.989743 464.789286 
L 258.074709 464.789286 
L 256.159674 464.789286 
L 254.24464 464.789286 
L 252.329605 464.789286 
L 250.414571 464.789286 
L 248.499536 464.789286 
L 246.584501 464.789286 
L 244.669467 464.789286 
L 242.754432 464.789286 
L 240.839398 464.789286 
L 238.924363 464.789286 
L 237.009329 464.789286 
L 235.094294 464.789286 
L 233.179259 464.789286 
L 231.264225 464.789286 
L 229.34919 464.789286 
L 227.434156 464.789286 
L 225.519121 464.789286 
L 223.604087 464.789286 
L 221.689052 464.789286 
L 219.774017 464.789286 
L 217.858983 464.789286 
L 215.943948 464.789286 
L 214.028914 464.789286 
L 212.113879 464.789286 
L 210.198845 464.789286 
L 208.28381 464.789286 
L 206.368775 464.789286 
L 204.453741 464.789286 
L 202.538706 464.789286 
L 200.623672 464.789286 
L 198.708637 464.789286 
L 196.793603 464.789286 
L 194.878568 464.789286 
L 192.963533 464.789286 
L 191.048499 464.789286 
L 189.133464 464.789286 
L 187.21843 464.789286 
L 185.303395 464.789286 
L 183.388361 464.789286 
L 181.473326 464.789286 
L 179.558291 464.789286 
L 177.643257 464.789286 
L 175.728222 464.789286 
L 173.813188 464.789286 
L 171.898153 464.789286 
L 169.983118 464.789286 
L 168.068084 464.789286 
L 166.153049 464.789286 
L 164.238015 464.789286 
L 162.32298 464.789286 
L 160.407946 464.789286 
L 158.492911 464.789286 
L 156.577876 464.789286 
L 154.662842 464.789286 
L 152.747807 464.789286 
L 150.832773 464.789286 
L 148.917738 464.789286 
L 147.002704 464.789286 
L 145.087669 464.789286 
L 143.172634 464.789286 
L 141.2576 464.789286 
L 139.342565 464.789286 
L 137.427531 464.789286 
L 135.512496 464.789286 
L 133.597462 464.789286 
L 131.682427 464.789286 
L 129.767392 464.789286 
L 127.852358 464.789286 
L 125.937323 464.789286 
L 124.022289 464.789286 
L 122.107254 464.789286 
L 120.19222 464.789286 
L 118.277185 464.789286 
L 116.36215 464.789286 
L 114.447116 464.789286 
L 112.532081 464.789286 
L 110.617047 464.789286 
L 108.702012 464.789286 
L 106.786978 464.789286 
L 104.871943 464.789286 
L 102.956908 464.789286 
L 101.041874 464.789286 
L 99.126839 464.789286 
L 97.211805 464.789286 
L 95.29677 464.789286 
L 93.381735 464.789286 
L 91.466701 464.789286 
L 89.551666 464.789286 
L 87.636632 464.789286 
L 85.721597 464.789286 
L 83.806563 464.789286 
L 81.891528 464.789286 
L 79.976493 464.789286 
L 78.061459 464.789286 
L 76.146424 464.789286 
L 74.23139 464.789286 
L 72.316355 464.789286 
L 70.401321 464.789286 
L 68.486286 464.789286 
L 66.571251 464.789286 
L 64.656217 464.789286 
L 62.741182 464.789286 
L 60.826148 464.789286 
L 58.911113 464.789286 
L 56.996079 464.789286 
L 55.081044 464.789286 
L 53.166009 464.789286 
L 51.250975 464.789286 
L 49.33594 464.789286 
L 47.420906 464.789286 
z
" clip-path="url(#pe964d7c13b)" style="fill: #d62728; fill-opacity: 0.1"/>
   </g>
   <g id="line2d_12">
    <path d="M 36.2 271.521429 
L 623.801429 271.521429 
" clip-path="url(#pe964d7c13b)" style="fill: none; stroke-dasharray: 2.96,1.28; stroke-dashoffset: 0; stroke: #808080; stroke-width: 0.8"/>
   </g>
   <g id="line2d_13">
    <path d="M 47.420906 118.420969 
L 49.33594 135.738788 
L 51.250975 166.842571 
L 55.081044 242.386601 
L 56.996079 271.812892 
L 58.911113 289.904697 
L 60.826148 296.894261 
L 62.741182 295.286127 
L 64.656217 288.384497 
L 66.571251 280.056243 
L 68.486286 274.997585 
L 70.401321 277.654286 
L 72.316355 289.693293 
L 76.146424 328.033494 
L 78.061459 343.118127 
L 79.976493 351.217389 
L 81.891528 353.302268 
L 83.806563 352.268687 
L 85.721597 351.096154 
L 87.636632 351.885978 
L 89.551666 355.816653 
L 91.466701 363.209491 
L 93.381735 373.383813 
L 97.211805 396.306875 
L 99.126839 406.920482 
L 101.041874 416.525975 
L 102.956908 425.11106 
L 104.871943 432.85156 
L 106.786978 440.026598 
L 108.702012 446.575199 
L 110.617047 451.939451 
L 112.532081 455.573263 
L 114.447116 457.473792 
L 116.36215 458.119358 
L 118.277185 458.039178 
L 120.19222 457.556867 
L 124.022289 456.160139 
L 125.937323 455.66386 
L 129.767392 455.154681 
L 131.682427 454.613408 
L 135.512496 452.812408 
L 137.427531 452.343603 
L 139.342565 452.609018 
L 141.2576 453.527096 
L 145.087669 456.205386 
L 150.832773 460.647327 
L 152.747807 461.776712 
L 154.662842 462.520095 
L 156.577876 462.920235 
L 158.492911 463.081046 
L 164.238015 463.250965 
L 171.898153 464.052364 
L 175.728222 463.902841 
L 183.388361 463.354772 
L 187.21843 463.329564 
L 196.793603 463.516535 
L 200.623672 463.157093 
L 208.28381 462.282859 
L 219.774017 461.159194 
L 227.434156 460.197906 
L 231.264225 460.263438 
L 240.839398 460.866883 
L 246.584501 461.275145 
L 256.159674 462.160109 
L 259.989743 462.127683 
L 263.819813 461.662424 
L 269.564916 460.607117 
L 273.394986 460.261446 
L 277.225055 459.992435 
L 284.885193 458.995314 
L 288.715262 459.05142 
L 294.460366 459.217861 
L 298.290435 459.386268 
L 305.950573 460.287246 
L 309.780642 460.249512 
L 328.930988 459.238573 
L 332.761057 459.263166 
L 340.421196 459.613775 
L 344.251265 459.841944 
L 348.081334 459.845383 
L 355.741472 459.77238 
L 359.571541 459.868047 
L 361.486576 459.72091 
L 367.23168 458.664398 
L 369.146714 458.679228 
L 372.976783 459.318291 
L 374.891818 459.626889 
L 378.721887 459.926404 
L 388.29706 460.352381 
L 392.127129 460.556019 
L 395.957198 460.479243 
L 401.702302 459.950844 
L 409.36244 459.144741 
L 420.852648 458.669182 
L 430.427821 458.068371 
L 434.25789 458.002928 
L 440.002993 458.264853 
L 443.833063 458.119796 
L 447.663132 457.776407 
L 449.578166 457.720591 
L 453.408236 457.975325 
L 457.238305 458.352891 
L 461.068374 458.517143 
L 468.728512 458.413277 
L 472.558581 458.141309 
L 478.303685 457.52944 
L 485.963823 457.163938 
L 489.793892 456.836739 
L 491.708927 456.802752 
L 493.623962 456.926397 
L 497.454031 457.519914 
L 501.2841 458.088279 
L 505.114169 458.340637 
L 524.264515 458.553856 
L 530.009618 458.30574 
L 533.839688 458.51816 
L 537.669757 458.724245 
L 545.329895 458.950714 
L 551.074999 459.357413 
L 554.905068 459.644857 
L 558.735137 459.721867 
L 566.395275 459.611119 
L 579.800517 459.92805 
L 585.545621 460.335285 
L 589.37569 460.340404 
L 595.120794 459.881877 
L 598.950863 459.636004 
L 602.780932 459.673721 
L 612.356105 460.032213 
L 616.186174 460.004386 
L 620.016243 459.902198 
L 620.016243 459.902198 
" clip-path="url(#pe964d7c13b)" style="fill: none; stroke: #00b899; stroke-width: 2; stroke-linecap: round"/>
   </g>
   <g id="line2d_14">
    <path d="M 47.420906 464.789286 
L 620.016243 464.789286 
L 620.016243 464.789286 
" clip-path="url(#pe964d7c13b)" style="fill: none; stroke: #2ca02c; stroke-width: 2; stroke-linecap: round"/>
   </g>
   <g id="line2d_15">
    <path d="M 47.420906 464.789286 
L 620.016243 464.789286 
L 620.016243 464.789286 
" clip-path="url(#pe964d7c13b)" style="fill: none; stroke: #d62728; stroke-width: 2; stroke-linecap: round"/>
   </g>
   <g id="line2d_16">
    <path d="M 47.420906 442.897431 
L 49.33594 441.657293 
L 51.250975 416.174137 
L 53.166009 451.703634 
L 55.081044 408.613839 
L 56.996079 406.139392 
L 58.911113 408.515839 
L 60.826148 396.167504 
L 62.741182 394.985528 
L 64.656217 380.090787 
L 66.571251 410.926097 
L 68.486286 393.050512 
L 70.401321 378.461157 
L 72.316355 365.755955 
L 74.23139 386.369898 
L 76.146424 352.76465 
L 78.061459 349.504916 
L 79.976493 356.707275 
L 81.891528 361.994976 
L 83.806563 345.97698 
L 85.721597 322.805189 
L 87.636632 353.790432 
L 89.551666 333.33298 
L 91.466701 315.608521 
L 93.381735 323.333223 
L 95.29677 294.901495 
L 97.211805 319.961183 
L 99.126839 303.795785 
L 101.041874 286.406185 
L 102.956908 298.345622 
L 104.871943 305.589258 
L 106.786978 294.844791 
L 108.702012 288.990795 
L 110.617047 279.226896 
L 112.532081 304.821705 
L 114.447116 300.525126 
L 116.36215 269.357666 
L 118.277185 271.959199 
L 120.19222 283.765329 
L 122.107254 270.339971 
L 124.022289 268.491996 
L 125.937323 272.687495 
L 127.852358 260.38568 
L 129.767392 269.104287 
L 131.682427 276.624545 
L 133.597462 269.1027 
L 135.512496 266.834572 
L 137.427531 265.588096 
L 139.342565 260.556227 
L 141.2576 265.290895 
L 145.087669 259.141668 
L 147.002704 263.761602 
L 148.917738 267.929775 
L 150.832773 246.763077 
L 152.747807 245.259511 
L 154.662842 229.846377 
L 156.577876 245.440153 
L 158.492911 251.26472 
L 160.407946 260.777112 
L 162.32298 240.575671 
L 164.238015 238.810432 
L 166.153049 222.917584 
L 168.068084 233.178183 
L 169.983118 244.806549 
L 171.898153 229.737351 
L 173.813188 221.400227 
L 175.728222 235.708748 
L 177.643257 228.47155 
L 179.558291 216.586009 
L 181.473326 212.616092 
L 183.388361 215.273164 
L 185.303395 214.543692 
L 187.21843 216.117208 
L 189.133464 211.141312 
L 191.048499 221.5856 
L 192.963533 223.072528 
L 194.878568 214.390905 
L 196.793603 229.545884 
L 198.708637 219.603883 
L 200.623672 228.75866 
L 202.538706 215.349883 
L 204.453741 218.338735 
L 206.368775 204.963481 
L 208.28381 209.535977 
L 210.198845 226.348667 
L 212.113879 224.906359 
L 214.028914 193.021003 
L 215.943948 173.192698 
L 217.858983 193.60058 
L 219.774017 186.90238 
L 221.689052 200.314597 
L 223.604087 208.308657 
L 225.519121 214.452262 
L 227.434156 202.96661 
L 229.34919 189.159434 
L 231.264225 192.284941 
L 233.179259 185.207596 
L 235.094294 158.175703 
L 237.009329 177.515608 
L 238.924363 189.823723 
L 240.839398 181.316916 
L 242.754432 165.270301 
L 244.669467 178.899147 
L 246.584501 173.411002 
L 248.499536 194.807078 
L 250.414571 201.334224 
L 252.329605 173.814001 
L 254.24464 162.160592 
L 256.159674 163.723022 
L 258.074709 170.789353 
L 259.989743 178.475905 
L 261.904778 172.494942 
L 263.819813 187.502199 
L 265.734847 190.189328 
L 267.649882 163.187185 
L 269.564916 144.654616 
L 271.479951 160.05192 
L 273.394986 176.79585 
L 275.31002 178.940604 
L 277.225055 161.098264 
L 279.140089 156.869648 
L 281.055124 171.95743 
L 282.970158 172.731 
L 284.885193 159.751013 
L 286.800228 165.951352 
L 288.715262 153.144974 
L 290.630297 163.060007 
L 292.545331 161.942156 
L 294.460366 161.955274 
L 296.3754 161.465321 
L 298.290435 153.719572 
L 300.20547 158.98239 
L 302.120504 155.084821 
L 304.035539 155.677575 
L 305.950573 155.20583 
L 307.865608 170.242024 
L 309.780642 166.239038 
L 311.695677 165.905267 
L 313.610712 153.283283 
L 315.525746 144.466169 
L 317.440781 150.181566 
L 319.355815 147.303599 
L 321.27085 149.766218 
L 323.185884 151.139787 
L 325.100919 139.209951 
L 327.015954 154.361567 
L 328.930988 163.383195 
L 330.846023 138.394277 
L 332.761057 131.435199 
L 334.676092 140.735076 
L 336.591126 110.474928 
L 338.506161 142.565472 
L 340.421196 145.899806 
L 342.33623 150.171363 
L 344.251265 140.082046 
L 346.166299 139.655523 
L 348.081334 134.975652 
L 349.996368 156.417734 
L 351.911403 146.556201 
L 353.826438 110.173262 
L 355.741472 131.838024 
L 357.656507 147.81778 
L 359.571541 153.130925 
L 361.486576 146.388356 
L 363.401611 145.430954 
L 365.316645 136.990137 
L 367.23168 137.984978 
L 369.146714 114.941127 
L 372.976783 140.589772 
L 374.891818 152.441853 
L 376.806853 126.360524 
L 378.721887 132.783518 
L 380.636922 110.726284 
L 382.551956 124.92827 
L 384.466991 119.106371 
L 386.382025 110.406738 
L 388.29706 129.499029 
L 390.212095 133.981442 
L 392.127129 134.043548 
L 394.042164 132.84191 
L 395.957198 127.01357 
L 397.872233 124.531511 
L 399.787267 109.780864 
L 401.702302 131.343737 
L 403.617337 136.53601 
L 405.532371 115.107261 
L 407.447406 117.500318 
L 409.36244 120.360276 
L 411.277475 119.017605 
L 413.192509 129.108875 
L 415.107544 121.131998 
L 417.022579 127.836748 
L 418.937613 123.859533 
L 420.852648 117.291493 
L 422.767682 118.523598 
L 426.597751 113.162269 
L 428.512786 116.621414 
L 430.427821 121.768746 
L 432.342855 124.445489 
L 434.25789 124.693817 
L 436.172924 116.993647 
L 438.087959 114.138853 
L 440.002993 129.129079 
L 441.918028 110.128912 
L 443.833063 122.705765 
L 445.748097 125.855498 
L 447.663132 116.245813 
L 449.578166 114.931591 
L 451.493201 115.308723 
L 453.408236 129.953585 
L 455.32327 118.887533 
L 457.238305 114.896486 
L 459.153339 121.472478 
L 461.068374 118.929378 
L 462.983408 96.744613 
L 464.898443 114.397811 
L 466.813478 120.48104 
L 468.728512 111.980394 
L 470.643547 115.421065 
L 472.558581 124.766705 
L 474.473616 123.729557 
L 476.38865 101.832898 
L 478.303685 99.153744 
L 480.21872 107.192317 
L 482.133754 106.818656 
L 484.048789 103.268493 
L 485.963823 95.892478 
L 487.878858 95.229574 
L 489.793892 101.569016 
L 491.708927 95.311827 
L 493.623962 107.512633 
L 495.538996 122.144694 
L 497.454031 134.406355 
L 499.369065 123.408022 
L 501.2841 117.017703 
L 503.199134 108.438988 
L 505.114169 106.198447 
L 507.029204 111.921279 
L 508.944238 113.044095 
L 510.859273 112.031852 
L 512.774307 105.587881 
L 514.689342 107.613911 
L 516.604376 115.709244 
L 518.519411 100.045011 
L 520.434446 116.831586 
L 522.34948 107.22129 
L 524.264515 99.671715 
L 526.179549 113.376679 
L 528.094584 104.605857 
L 530.009618 115.157655 
L 531.924653 90.959187 
L 533.839688 115.137228 
L 535.754722 125.655981 
L 537.669757 108.438475 
L 539.584791 112.479019 
L 541.499826 109.753962 
L 543.414861 110.874694 
L 545.329895 105.999058 
L 547.24493 104.241263 
L 549.159964 101.895964 
L 551.074999 103.155189 
L 552.990033 112.162625 
L 554.905068 102.615788 
L 556.820103 134.982979 
L 558.735137 111.21501 
L 560.650172 104.503828 
L 562.565206 108.763966 
L 564.480241 113.699547 
L 566.395275 121.423156 
L 568.31031 104.986367 
L 570.225345 111.122555 
L 572.140379 112.048557 
L 574.055414 111.280568 
L 577.885483 121.121577 
L 579.800517 95.010445 
L 581.715552 89.046932 
L 583.630587 96.153884 
L 585.545621 107.466109 
L 587.460656 117.962425 
L 589.37569 119.050016 
L 591.290725 116.684085 
L 593.205759 112.633934 
L 595.120794 118.093088 
L 597.035829 119.454418 
L 598.950863 110.546521 
L 600.865898 84.320127 
L 602.780932 98.145144 
L 604.695967 104.949881 
L 606.611001 101.646646 
L 608.526036 103.944505 
L 610.441071 102.708954 
L 612.356105 119.315563 
L 614.27114 138.463632 
L 616.186174 113.053718 
L 618.101209 101.353439 
L 620.016243 97.01555 
L 620.016243 97.01555 
" clip-path="url(#pe964d7c13b)" style="fill: none; stroke: #1f77b4; stroke-linecap: round"/>
   </g>
   <g id="line2d_17">
    <path d="M 47.420906 81.579806 
L 49.33594 107.683169 
L 51.250975 139.201383 
L 53.166009 261.652392 
L 55.081044 299.081874 
L 56.996079 341.570248 
L 58.911113 359.038269 
L 60.826148 344.176794 
L 62.741182 323.708286 
L 64.656217 314.634547 
L 66.571251 320.563216 
L 68.486286 259.277627 
L 70.401321 238.581824 
L 72.316355 257.042058 
L 74.23139 334.308029 
L 76.146424 359.551729 
L 78.061459 370.77096 
L 79.976493 383.975314 
L 81.891528 376.17381 
L 83.806563 342.105807 
L 85.721597 332.233235 
L 87.636632 352.847769 
L 89.551666 337.356668 
L 91.466701 326.80872 
L 93.381735 360.56085 
L 95.29677 364.620844 
L 97.211805 393.727695 
L 99.126839 386.071493 
L 101.041874 389.058258 
L 102.956908 425.97317 
L 104.871943 417.365858 
L 106.786978 421.277262 
L 108.702012 435.860493 
L 110.617047 437.172748 
L 112.532081 460.649742 
L 114.447116 454.768934 
L 116.36215 428.371936 
L 118.277185 431.582924 
L 120.19222 439.999258 
L 122.107254 428.817494 
L 124.022289 424.366931 
L 125.937323 424.091626 
L 127.852358 416.743954 
L 129.767392 427.058559 
L 131.682427 432.056073 
L 133.597462 423.182435 
L 135.512496 418.33391 
L 137.427531 411.801752 
L 139.342565 412.117931 
L 141.2576 418.235678 
L 143.172634 420.294033 
L 145.087669 416.782441 
L 147.002704 420.231652 
L 148.917738 429.107551 
L 150.832773 414.970447 
L 152.747807 414.077942 
L 154.662842 401.635896 
L 156.577876 414.858057 
L 158.492911 420.214639 
L 160.407946 427.986049 
L 162.32298 409.845025 
L 164.238015 408.870019 
L 166.153049 396.286674 
L 168.068084 405.6477 
L 169.983118 415.636967 
L 171.898153 403.681553 
L 173.813188 396.137022 
L 175.728222 407.618827 
L 177.643257 401.273356 
L 179.558291 391.312423 
L 181.473326 387.90151 
L 183.388361 389.482447 
L 185.303395 389.129698 
L 187.21843 390.597914 
L 189.133464 386.613479 
L 191.048499 394.88561 
L 192.963533 396.665256 
L 194.878568 390.193691 
L 196.793603 402.700938 
L 198.708637 392.99617 
L 200.623672 401.133923 
L 202.538706 389.498653 
L 204.453741 392.337033 
L 206.368775 378.203708 
L 208.28381 384.667647 
L 210.198845 398.015101 
L 212.113879 396.003421 
L 214.028914 368.528041 
L 215.943948 352.981788 
L 217.858983 368.959944 
L 219.774017 363.86336 
L 221.689052 374.446583 
L 223.604087 380.633528 
L 225.519121 384.53889 
L 227.434156 375.157647 
L 229.34919 363.688691 
L 231.264225 366.572689 
L 233.179259 361.056739 
L 235.094294 338.532774 
L 237.009329 355.533179 
L 238.924363 365.288431 
L 240.839398 357.335789 
L 242.754432 345.843141 
L 244.669467 356.663751 
L 246.584501 351.861477 
L 248.499536 370.125107 
L 250.414571 376.353801 
L 252.329605 353.473028 
L 254.24464 343.900853 
L 256.159674 345.387125 
L 258.074709 351.95885 
L 259.989743 357.752748 
L 261.904778 352.188735 
L 263.819813 365.439926 
L 265.734847 366.8727 
L 267.649882 341.859132 
L 269.564916 327.375437 
L 273.394986 353.319591 
L 275.31002 355.726293 
L 277.225055 340.304325 
L 279.140089 337.732889 
L 281.055124 348.504653 
L 282.970158 347.850331 
L 284.885193 337.184258 
L 286.800228 343.154959 
L 288.715262 332.352691 
L 290.630297 341.454733 
L 292.545331 339.585874 
L 294.460366 340.426547 
L 296.3754 339.518878 
L 298.290435 332.547005 
L 300.20547 337.925192 
L 302.120504 334.810686 
L 304.035539 337.007181 
L 305.950573 336.017841 
L 307.865608 348.894171 
L 309.780642 344.619895 
L 311.695677 344.624094 
L 313.610712 333.690548 
L 315.525746 326.380264 
L 317.440781 331.144636 
L 319.355815 328.484541 
L 321.27085 329.943686 
L 323.185884 331.969405 
L 325.100919 321.488571 
L 327.015954 333.269657 
L 328.930988 341.12918 
L 330.846023 320.180601 
L 332.761057 314.50407 
L 334.676092 322.718811 
L 336.591126 297.082575 
L 338.506161 324.344563 
L 340.421196 326.603059 
L 342.33623 330.667956 
L 344.251265 323.649651 
L 346.166299 322.692692 
L 348.081334 317.366548 
L 349.996368 336.335994 
L 351.911403 328.265107 
L 353.826438 297.733907 
L 355.741472 314.186947 
L 357.656507 329.055445 
L 359.571541 334.544376 
L 361.486576 328.521791 
L 363.401611 327.599206 
L 365.316645 318.789724 
L 367.23168 315.994585 
L 369.146714 299.57222 
L 371.061749 311.988461 
L 372.976783 322.370939 
L 374.891818 333.491103 
L 376.806853 311.339544 
L 378.721887 316.304821 
L 380.636922 298.124599 
L 382.551956 310.670474 
L 384.466991 304.991927 
L 386.382025 298.36473 
L 388.29706 314.076726 
L 390.212095 318.686134 
L 392.127129 318.540085 
L 394.042164 317.941724 
L 395.957198 312.667235 
L 397.872233 310.471226 
L 399.787267 297.153486 
L 401.702302 315.608503 
L 403.617337 319.715423 
L 405.532371 301.801121 
L 407.447406 302.166365 
L 409.36244 304.621095 
L 411.277475 304.140261 
L 413.192509 312.894553 
L 415.107544 305.174559 
L 417.022579 311.553191 
L 418.937613 307.995894 
L 420.852648 301.962576 
L 422.767682 302.4339 
L 424.682717 300.298992 
L 426.597751 298.439601 
L 428.512786 301.229523 
L 430.427821 304.912255 
L 432.342855 306.343769 
L 434.25789 306.826049 
L 436.172924 301.19807 
L 438.087959 299.375432 
L 440.002993 311.086087 
L 441.918028 295.933397 
L 443.833063 306.387991 
L 445.748097 308.432021 
L 447.663132 299.20822 
L 449.578166 297.959899 
L 451.493201 299.194964 
L 453.408236 311.843088 
L 455.32327 302.662258 
L 457.238305 299.93737 
L 459.153339 305.406905 
L 461.068374 303.32689 
L 462.983408 285.059017 
L 464.898443 298.76747 
L 466.813478 304.684919 
L 468.728512 297.223152 
L 470.643547 300.147029 
L 472.558581 308.45775 
L 474.473616 306.399546 
L 476.38865 287.154341 
L 478.303685 284.493576 
L 480.21872 292.546077 
L 482.133754 291.973241 
L 484.048789 288.613334 
L 485.963823 282.089988 
L 487.878858 282.152603 
L 489.793892 285.801692 
L 491.708927 280.236214 
L 493.623962 291.419769 
L 495.538996 304.079124 
L 497.454031 314.385297 
L 499.369065 307.030085 
L 501.2841 301.208784 
L 503.199134 293.804279 
L 505.114169 292.925986 
L 507.029204 297.149239 
L 508.944238 298.153993 
L 510.859273 297.020399 
L 512.774307 291.556473 
L 514.689342 293.901227 
L 516.604376 300.258854 
L 518.519411 287.156335 
L 520.434446 301.667861 
L 522.34948 293.999827 
L 524.264515 287.596838 
L 526.179549 298.440832 
L 528.094584 290.690257 
L 530.009618 299.058161 
L 531.924653 279.241057 
L 533.839688 300.522429 
L 535.754722 309.250941 
L 537.669757 294.925853 
L 539.584791 298.098987 
L 541.499826 295.464254 
L 543.414861 296.882072 
L 545.329895 293.251284 
L 547.24493 291.486925 
L 549.159964 289.51723 
L 551.074999 291.16388 
L 552.990033 299.084305 
L 554.905068 291.041309 
L 556.820103 318.481811 
L 558.735137 298.690052 
L 560.650172 292.342138 
L 564.480241 300.145919 
L 566.395275 306.401679 
L 568.31031 292.805396 
L 570.225345 298.812357 
L 572.140379 299.147616 
L 574.055414 297.878208 
L 577.885483 306.778588 
L 579.800517 284.908906 
L 581.715552 280.381739 
L 583.630587 286.273428 
L 585.545621 296.122544 
L 587.460656 305.327156 
L 589.37569 306.116637 
L 591.290725 303.240118 
L 593.205759 300.127645 
L 595.120794 304.093428 
L 597.035829 305.542283 
L 598.950863 296.865987 
L 600.865898 275.372115 
L 602.780932 287.575151 
L 604.695967 293.233998 
L 606.611001 290.626276 
L 608.526036 292.284333 
L 610.441071 291.362807 
L 612.356105 305.8844 
L 614.27114 321.762758 
L 616.186174 300.308192 
L 618.101209 290.193898 
L 620.016243 286.552748 
L 620.016243 286.552748 
" clip-path="url(#pe964d7c13b)" style="fill: none; stroke: #ff7f0e; stroke-linecap: round"/>
   </g>
   <g id="line2d_18">
    <path d="M 47.420906 464.789286 
L 53.166009 401.285217 
L 58.911113 365.263166 
L 64.656217 351.832478 
L 70.401321 322.836093 
L 76.146424 319.385324 
L 81.891528 321.147947 
L 87.636632 306.202892 
L 93.381735 287.782244 
L 99.126839 287.087125 
L 104.871943 279.14291 
L 110.617047 280.557973 
L 116.36215 266.382514 
L 122.107254 257.246667 
L 127.852358 259.530629 
L 133.597462 270.007063 
L 139.342565 259.878188 
L 145.087669 260.548482 
L 150.832773 248.805939 
L 156.577876 246.09994 
L 162.32298 251.338157 
L 168.068084 239.967999 
L 173.813188 240.588641 
L 179.558291 248.930067 
L 185.303395 242.003704 
L 191.048499 243.269814 
L 196.793603 235.971066 
L 202.538706 237.311652 
L 208.28381 222.912763 
L 214.028914 228.523365 
L 219.774017 216.830473 
L 225.519121 205.311361 
L 231.264225 211.56743 
L 237.009329 213.230751 
L 242.754432 195.976908 
L 248.499536 198.807035 
L 254.24464 197.441623 
L 259.989743 199.502154 
L 265.734847 196.523073 
L 271.479951 174.80061 
L 277.225055 168.494889 
L 282.970158 162.859462 
L 288.715262 153.078147 
L 294.460366 156.280659 
L 300.20547 150.819011 
L 305.950573 148.609526 
L 311.695677 143.867823 
L 317.440781 130.63574 
L 323.185884 122.641873 
L 328.930988 111.892357 
L 334.676092 107.249956 
L 340.421196 108.987753 
L 346.166299 111.99166 
L 351.911403 105.934196 
L 357.656507 106.08315 
L 363.401611 121.40059 
L 369.146714 94.067525 
L 374.891818 131.38051 
L 380.636922 95.879799 
L 386.382025 90.418151 
L 392.127129 113.357072 
L 397.872233 87.414244 
L 403.617337 99.777429 
L 409.36244 93.744791 
L 415.107544 95.482588 
L 420.852648 95.879799 
L 426.597751 84.410338 
L 432.342855 98.933356 
L 438.087959 90.790536 
L 443.833063 100.34842 
L 449.578166 99.529172 
L 455.32327 90.244371 
L 461.068374 106.455535 
L 466.813478 93.446883 
L 472.558581 96.574917 
L 478.303685 101.043538 
L 484.048789 105.263903 
L 489.793892 82.548413 
L 495.538996 102.557904 
L 501.2841 98.039632 
L 507.029204 86.247438 
L 512.774307 87.935584 
L 518.519411 95.656368 
L 524.264515 88.953436 
L 530.009618 87.488721 
L 535.754722 93.074498 
L 541.499826 94.762643 
L 547.24493 83.342834 
L 552.990033 106.976874 
L 558.735137 96.028753 
L 564.480241 85.080631 
L 570.225345 90.542279 
L 575.970448 102.036565 
L 581.715552 89.176867 
L 587.460656 101.962088 
L 593.205759 80.711313 
L 598.950863 92.60281 
L 604.695967 78.253571 
L 610.441071 95.482588 
L 616.186174 81.232652 
" clip-path="url(#pe964d7c13b)" style="fill: none; stroke: #000000; stroke-width: 1.5; stroke-linecap: round"/>
   </g>
   <g id="line2d_19">
    <path d="M 47.420906 78.253571 
L 53.166009 104.444671 
L 58.911113 127.77248 
L 64.656217 143.11335 
L 70.401321 141.302008 
L 76.146424 153.972135 
L 81.891528 176.430811 
L 87.636632 183.702954 
L 93.381735 210.087986 
L 99.126839 229.521247 
L 104.871943 240.613056 
L 110.617047 244.232814 
L 116.36215 247.98598 
L 122.107254 250.308915 
L 127.852358 249.223705 
L 133.597462 262.22439 
L 139.342565 262.218648 
L 145.087669 274.76224 
L 150.832773 279.622756 
L 156.577876 280.567369 
L 162.32298 304.218455 
L 168.068084 301.28901 
L 173.813188 313.796054 
L 179.558291 310.999719 
L 185.303395 316.10944 
L 191.048499 319.561284 
L 196.793603 325.175193 
L 202.538706 341.310757 
L 208.28381 341.666376 
L 214.028914 348.555114 
L 219.774017 350.216845 
L 225.519121 355.156106 
L 231.264225 366.1228 
L 237.009329 376.080586 
L 242.754432 370.087065 
L 248.499536 376.944938 
L 254.24464 381.418564 
L 259.989743 380.445194 
L 265.734847 386.144024 
L 271.479951 391.740063 
L 277.225055 400.668171 
L 282.970158 402.794999 
L 288.715262 402.186139 
L 294.460366 409.283037 
L 300.20547 404.414442 
L 305.950573 414.014036 
L 311.695677 413.154801 
L 317.440781 416.504338 
L 323.185884 416.290886 
L 328.930988 417.936943 
L 334.676092 419.771021 
L 340.421196 419.965301 
L 346.166299 420.333878 
L 351.911403 421.95757 
L 357.656507 420.949113 
L 363.401611 433.47758 
L 369.146714 431.993092 
L 374.891818 436.770581 
L 380.636922 441.55886 
L 386.382025 442.411776 
L 392.127129 439.097916 
L 397.872233 439.259997 
L 403.617337 441.495359 
L 409.36244 443.560021 
L 415.107544 450.347764 
L 420.852648 449.682928 
L 426.597751 449.365894 
L 432.342855 454.098975 
L 438.087959 445.757731 
L 443.833063 450.39449 
L 449.578166 449.160699 
L 455.32327 451.48472 
L 461.068374 446.511175 
L 466.813478 452.253741 
L 472.558581 459.809648 
L 478.303685 457.191741 
L 484.048789 455.079689 
L 489.793892 454.125571 
L 495.538996 450.305237 
L 501.2841 459.239564 
L 507.029204 452.472845 
L 512.774307 458.402854 
L 518.519411 460.647765 
L 524.264515 456.427236 
L 530.009618 452.807698 
L 535.754722 456.321427 
L 541.499826 464.789286 
L 547.24493 460.859946 
L 552.990033 460.989624 
L 558.735137 456.657522 
L 564.480241 455.362808 
L 570.225345 455.346981 
L 575.970448 457.129466 
L 581.715552 461.16074 
L 587.460656 453.897142 
L 593.205759 462.436395 
L 598.950863 460.62534 
L 604.695967 456.220188 
L 610.441071 461.669293 
L 616.186174 463.146016 
" clip-path="url(#pe964d7c13b)" style="fill: none; stroke: #7b3ab8; stroke-width: 1.5; stroke-linecap: round"/>
   </g>
   <g id="patch_3">
    <path d="M 36.2 472.52 
L 36.2 39.6 
" style="fill: none; stroke: #ffffff; stroke-width: 0.8; stroke-linejoin: miter; stroke-linecap: square"/>
   </g>
   <g id="patch_4">
    <path d="M 623.801429 472.52 
L 623.801429 39.6 
" style="fill: none; stroke: #ffffff; stroke-width: 0.8; stroke-linejoin: miter; stroke-linecap: square"/>
   </g>
   <g id="patch_5">
    <path d="M 36.2 472.52 
L 623.801429 472.52 
" style="fill: none; stroke: #ffffff; stroke-width: 0.8; stroke-linejoin: miter; stroke-linecap: square"/>
   </g>
   <g id="patch_6">
    <path d="M 36.2 39.6 
L 623.801429 39.6 
" style="fill: none; stroke: #ffffff; stroke-width: 0.8; stroke-linejoin: miter; stroke-linecap: square"/>
   </g>
  </g>
  <g id="text_4">
   <!-- Acrobot-v1 | CMU-Net (A) -->
   <g style="fill: #262626" transform="translate(195.865313 23.835938) scale(0.18 -0.18)">
    <defs>
     <path id="DejaVuSans-Bold-41" d="M 3419 850 
L 1538 850 
L 1241 0 
L 31 0 
L 1759 4666 
L 3194 4666 
L 4922 0 
L 3713 0 
L 3419 850 
z
M 1838 1716 
L 3116 1716 
L 2478 3572 
L 1838 1716 
z
" transform="scale(0.015625)"/>
     <path id="DejaVuSans-Bold-63" d="M 3366 3391 
L 3366 2478 
Q 3138 2634 2908 2709 
Q 2678 2784 2431 2784 
Q 1963 2784 1702 2511 
Q 1441 2238 1441 1747 
Q 1441 1256 1702 982 
Q 1963 709 2431 709 
Q 2694 709 2930 787 
Q 3166 866 3366 1019 
L 3366 103 
Q 3103 6 2833 -42 
Q 2563 -91 2291 -91 
Q 1344 -91 809 395 
Q 275 881 275 1747 
Q 275 2613 809 3098 
Q 1344 3584 2291 3584 
Q 2566 3584 2833 3536 
Q 3100 3488 3366 3391 
z
" transform="scale(0.015625)"/>
     <path id="DejaVuSans-Bold-72" d="M 3138 2547 
Q 2991 2616 2845 2648 
Q 2700 2681 2553 2681 
Q 2122 2681 1889 2404 
Q 1656 2128 1656 1613 
L 1656 0 
L 538 0 
L 538 3500 
L 1656 3500 
L 1656 2925 
Q 1872 3269 2151 3426 
Q 2431 3584 2822 3584 
Q 2878 3584 2943 3579 
Q 3009 3575 3134 3559 
L 3138 2547 
z
" transform="scale(0.015625)"/>
     <path id="DejaVuSans-Bold-6f" d="M 2203 2784 
Q 1831 2784 1636 2517 
Q 1441 2250 1441 1747 
Q 1441 1244 1636 976 
Q 1831 709 2203 709 
Q 2569 709 2762 976 
Q 2956 1244 2956 1747 
Q 2956 2250 2762 2517 
Q 2569 2784 2203 2784 
z
M 2203 3584 
Q 3106 3584 3614 3096 
Q 4122 2609 4122 1747 
Q 4122 884 3614 396 
Q 3106 -91 2203 -91 
Q 1297 -91 786 396 
Q 275 884 275 1747 
Q 275 2609 786 3096 
Q 1297 3584 2203 3584 
z
" transform="scale(0.015625)"/>
     <path id="DejaVuSans-Bold-62" d="M 2400 722 
Q 2759 722 2948 984 
Q 3138 1247 3138 1747 
Q 3138 2247 2948 2509 
Q 2759 2772 2400 2772 
Q 2041 2772 1848 2508 
Q 1656 2244 1656 1747 
Q 1656 1250 1848 986 
Q 2041 722 2400 722 
z
M 1656 2988 
Q 1888 3294 2169 3439 
Q 2450 3584 2816 3584 
Q 3463 3584 3878 3070 
Q 4294 2556 4294 1747 
Q 4294 938 3878 423 
Q 3463 -91 2816 -91 
Q 2450 -91 2169 54 
Q 1888 200 1656 506 
L 1656 0 
L 538 0 
L 538 4863 
L 1656 4863 
L 1656 2988 
z
" transform="scale(0.015625)"/>
     <path id="DejaVuSans-Bold-74" d="M 1759 4494 
L 1759 3500 
L 2913 3500 
L 2913 2700 
L 1759 2700 
L 1759 1216 
Q 1759 972 1856 886 
Q 1953 800 2241 800 
L 2816 800 
L 2816 0 
L 1856 0 
Q 1194 0 917 276 
Q 641 553 641 1216 
L 641 2700 
L 84 2700 
L 84 3500 
L 641 3500 
L 641 4494 
L 1759 4494 
z
" transform="scale(0.015625)"/>
     <path id="DejaVuSans-Bold-2d" d="M 347 2297 
L 2309 2297 
L 2309 1388 
L 347 1388 
L 347 2297 
z
" transform="scale(0.015625)"/>
     <path id="DejaVuSans-Bold-76" d="M 97 3500 
L 1216 3500 
L 2088 1081 
L 2956 3500 
L 4078 3500 
L 2700 0 
L 1472 0 
L 97 3500 
z
" transform="scale(0.015625)"/>
     <path id="DejaVuSans-Bold-31" d="M 750 831 
L 1813 831 
L 1813 3847 
L 722 3622 
L 722 4441 
L 1806 4666 
L 2950 4666 
L 2950 831 
L 4013 831 
L 4013 0 
L 750 0 
L 750 831 
z
" transform="scale(0.015625)"/>
     <path id="DejaVuSans-Bold-20" transform="scale(0.015625)"/>
     <path id="DejaVuSans-Bold-7c" d="M 1522 4891 
L 1522 -1509 
L 813 -1509 
L 813 4891 
L 1522 4891 
z
" transform="scale(0.015625)"/>
     <path id="DejaVuSans-Bold-43" d="M 4288 256 
Q 3956 84 3597 -3 
Q 3238 -91 2847 -91 
Q 1681 -91 1000 561 
Q 319 1213 319 2328 
Q 319 3447 1000 4098 
Q 1681 4750 2847 4750 
Q 3238 4750 3597 4662 
Q 3956 4575 4288 4403 
L 4288 3438 
Q 3953 3666 3628 3772 
Q 3303 3878 2944 3878 
Q 2300 3878 1931 3465 
Q 1563 3053 1563 2328 
Q 1563 1606 1931 1193 
Q 2300 781 2944 781 
Q 3303 781 3628 887 
Q 3953 994 4288 1222 
L 4288 256 
z
" transform="scale(0.015625)"/>
     <path id="DejaVuSans-Bold-4d" d="M 588 4666 
L 2119 4666 
L 3181 2169 
L 4250 4666 
L 5778 4666 
L 5778 0 
L 4641 0 
L 4641 3413 
L 3566 897 
L 2803 897 
L 1728 3413 
L 1728 0 
L 588 0 
L 588 4666 
z
" transform="scale(0.015625)"/>
     <path id="DejaVuSans-Bold-55" d="M 588 4666 
L 1791 4666 
L 1791 1869 
Q 1791 1291 1980 1042 
Q 2169 794 2597 794 
Q 3028 794 3217 1042 
Q 3406 1291 3406 1869 
L 3406 4666 
L 4609 4666 
L 4609 1869 
Q 4609 878 4112 393 
Q 3616 -91 2597 -91 
Q 1581 -91 1084 393 
Q 588 878 588 1869 
L 588 4666 
z
" transform="scale(0.015625)"/>
     <path id="DejaVuSans-Bold-4e" d="M 588 4666 
L 1931 4666 
L 3628 1466 
L 3628 4666 
L 4769 4666 
L 4769 0 
L 3425 0 
L 1728 3200 
L 1728 0 
L 588 0 
L 588 4666 
z
" transform="scale(0.015625)"/>
     <path id="DejaVuSans-Bold-65" d="M 4031 1759 
L 4031 1441 
L 1416 1441 
Q 1456 1047 1700 850 
Q 1944 653 2381 653 
Q 2734 653 3104 758 
Q 3475 863 3866 1075 
L 3866 213 
Q 3469 63 3072 -14 
Q 2675 -91 2278 -91 
Q 1328 -91 801 392 
Q 275 875 275 1747 
Q 275 2603 792 3093 
Q 1309 3584 2216 3584 
Q 3041 3584 3536 3087 
Q 4031 2591 4031 1759 
z
M 2881 2131 
Q 2881 2450 2695 2645 
Q 2509 2841 2209 2841 
Q 1884 2841 1681 2658 
Q 1478 2475 1428 2131 
L 2881 2131 
z
" transform="scale(0.015625)"/>
     <path id="DejaVuSans-Bold-28" d="M 2413 -844 
L 1484 -844 
Q 1006 -72 778 623 
Q 550 1319 550 2003 
Q 550 2688 779 3389 
Q 1009 4091 1484 4856 
L 2413 4856 
Q 2013 4116 1813 3408 
Q 1613 2700 1613 2009 
Q 1613 1319 1811 609 
Q 2009 -100 2413 -844 
z
" transform="scale(0.015625)"/>
     <path id="DejaVuSans-Bold-29" d="M 513 -844 
Q 913 -100 1113 609 
Q 1313 1319 1313 2009 
Q 1313 2700 1113 3408 
Q 913 4116 513 4856 
L 1441 4856 
Q 1916 4091 2145 3389 
Q 2375 2688 2375 2003 
Q 2375 1319 2147 623 
Q 1919 -72 1441 -844 
L 513 -844 
z
" transform="scale(0.015625)"/>
    </defs>
    <use xlink:href="#DejaVuSans-Bold-41"/>
    <use xlink:href="#DejaVuSans-Bold-63" transform="translate(77.392578 0)"/>
    <use xlink:href="#DejaVuSans-Bold-72" transform="translate(136.669922 0)"/>
    <use xlink:href="#DejaVuSans-Bold-6f" transform="translate(185.986328 0)"/>
    <use xlink:href="#DejaVuSans-Bold-62" transform="translate(254.6875 0)"/>
    <use xlink:href="#DejaVuSans-Bold-6f" transform="translate(326.269531 0)"/>
    <use xlink:href="#DejaVuSans-Bold-74" transform="translate(394.970703 0)"/>
    <use xlink:href="#DejaVuSans-Bold-2d" transform="translate(442.773438 0)"/>
    <use xlink:href="#DejaVuSans-Bold-76" transform="translate(484.277344 0)"/>
    <use xlink:href="#DejaVuSans-Bold-31" transform="translate(549.462891 0)"/>
    <use xlink:href="#DejaVuSans-Bold-20" transform="translate(619.042969 0)"/>
    <use xlink:href="#DejaVuSans-Bold-7c" transform="translate(653.857422 0)"/>
    <use xlink:href="#DejaVuSans-Bold-20" transform="translate(690.380859 0)"/>
    <use xlink:href="#DejaVuSans-Bold-43" transform="translate(725.195312 0)"/>
    <use xlink:href="#DejaVuSans-Bold-4d" transform="translate(798.583984 0)"/>
    <use xlink:href="#DejaVuSans-Bold-55" transform="translate(898.095703 0)"/>
    <use xlink:href="#DejaVuSans-Bold-2d" transform="translate(979.296875 0)"/>
    <use xlink:href="#DejaVuSans-Bold-4e" transform="translate(1020.800781 0)"/>
    <use xlink:href="#DejaVuSans-Bold-65" transform="translate(1104.492188 0)"/>
    <use xlink:href="#DejaVuSans-Bold-74" transform="translate(1172.314453 0)"/>
    <use xlink:href="#DejaVuSans-Bold-20" transform="translate(1220.117188 0)"/>
    <use xlink:href="#DejaVuSans-Bold-28" transform="translate(1254.931641 0)"/>
    <use xlink:href="#DejaVuSans-Bold-41" transform="translate(1300.634766 0)"/>
    <use xlink:href="#DejaVuSans-Bold-29" transform="translate(1378.027344 0)"/>
   </g>
  </g>
 </g>
 <defs>
  <clipPath id="pe964d7c13b">
   <rect x="36.2" y="39.6" width="587.601429" height="432.92"/>
  </clipPath>
 </defs>
</svg>
