<?xml version="1.0" encoding="utf-8" standalone="no"?>
<!DOCTYPE svg PUBLIC "-//W3C//DTD SVG 1.1//EN"
  "http://www.w3.org/Graphics/SVG/1.1/DTD/svg11.dtd">
<svg xmlns:xlink="http://www.w3.org/1999/xlink" width="648pt" height="432pt" viewBox="0 0 648 432" xmlns="http://www.w3.org/2000/svg" version="1.1">
 <metadata>
  <rdf:RDF xmlns:dc="http://purl.org/dc/elements/1.1/" xmlns:cc="http://creativecommons.org/ns#" xmlns:rdf="http://www.w3.org/1999/02/22-rdf-syntax-ns#">
   <cc:Work>
    <dc:type rdf:resource="http://purl.org/dc/dcmitype/StillImage"/>
    <dc:date>2025-07-31T00:19:18.447197</dc:date>
    <dc:format>image/svg+xml</dc:format>
    <dc:creator>
     <cc:Agent>
      <dc:title>Matplotlib v3.10.0, https://matplotlib.org/</dc:title>
     </cc:Agent>
    </dc:creator>
   </cc:Work>
  </rdf:RDF>
 </metadata>
 <defs>
  <style type="text/css">*{stroke-linejoin: round; stroke-linecap: butt}</style>
 </defs>
 <g id="figure_1">
  <g id="patch_1">
   <path d="M 0 432 
L 648 432 
L 648 0 
L 0 0 
z
" style="fill: #ffffff"/>
  </g>
  <g id="axes_1">
   <g id="patch_2">
    <path d="M 31.88 390.04 
L 630.02765 390.04 
L 630.02765 60.48 
L 31.88 60.48 
z
" style="fill: #eaeaf2"/>
   </g>
   <g id="matplotlib.axis_1">
    <g id="xtick_1">
     <g id="line2d_1">
      <path d="M 31.882921 390.04 
L 31.882921 60.48 
" clip-path="url(#p0f8f99bbdc)" style="fill: none; stroke: #ffffff; stroke-width: 0.8; stroke-linecap: round"/>
     </g>
     <g id="text_1">
      <!-- 0 -->
      <g style="fill: #262626" transform="translate(28.701671 404.638438) scale(0.1 -0.1)">
       <defs>
        <path id="DejaVuSans-30" d="M 2034 4250 
Q 1547 4250 1301 3770 
Q 1056 3291 1056 2328 
Q 1056 1369 1301 889 
Q 1547 409 2034 409 
Q 2525 409 2770 889 
Q 3016 1369 3016 2328 
Q 3016 3291 2770 3770 
Q 2525 4250 2034 4250 
z
M 2034 4750 
Q 2819 4750 3233 4129 
Q 3647 3509 3647 2328 
Q 3647 1150 3233 529 
Q 2819 -91 2034 -91 
Q 1250 -91 836 529 
Q 422 1150 422 2328 
Q 422 3509 836 4129 
Q 1250 4750 2034 4750 
z
" transform="scale(0.015625)"/>
       </defs>
       <use xlink:href="#DejaVuSans-30"/>
      </g>
     </g>
    </g>
    <g id="xtick_2">
     <g id="line2d_2">
      <path d="M 129.236731 390.04 
L 129.236731 60.48 
" clip-path="url(#p0f8f99bbdc)" style="fill: none; stroke: #ffffff; stroke-width: 0.8; stroke-linecap: round"/>
     </g>
     <g id="text_2">
      <!-- 100000 -->
      <g style="fill: #262626" transform="translate(110.149231 404.638438) scale(0.1 -0.1)">
       <defs>
        <path id="DejaVuSans-31" d="M 794 531 
L 1825 531 
L 1825 4091 
L 703 3866 
L 703 4441 
L 1819 4666 
L 2450 4666 
L 2450 531 
L 3481 531 
L 3481 0 
L 794 0 
L 794 531 
z
" transform="scale(0.015625)"/>
       </defs>
       <use xlink:href="#DejaVuSans-31"/>
       <use xlink:href="#DejaVuSans-30" transform="translate(63.623047 0)"/>
       <use xlink:href="#DejaVuSans-30" transform="translate(127.246094 0)"/>
       <use xlink:href="#DejaVuSans-30" transform="translate(190.869141 0)"/>
       <use xlink:href="#DejaVuSans-30" transform="translate(254.492188 0)"/>
       <use xlink:href="#DejaVuSans-30" transform="translate(318.115234 0)"/>
      </g>
     </g>
    </g>
    <g id="xtick_3">
     <g id="line2d_3">
      <path d="M 226.590541 390.04 
L 226.590541 60.48 
" clip-path="url(#p0f8f99bbdc)" style="fill: none; stroke: #ffffff; stroke-width: 0.8; stroke-linecap: round"/>
     </g>
     <g id="text_3">
      <!-- 200000 -->
      <g style="fill: #262626" transform="translate(207.503041 404.638438) scale(0.1 -0.1)">
       <defs>
        <path id="DejaVuSans-32" d="M 1228 531 
L 3431 531 
L 3431 0 
L 469 0 
L 469 531 
Q 828 903 1448 1529 
Q 2069 2156 2228 2338 
Q 2531 2678 2651 2914 
Q 2772 3150 2772 3378 
Q 2772 3750 2511 3984 
Q 2250 4219 1831 4219 
Q 1534 4219 1204 4116 
Q 875 4013 500 3803 
L 500 4441 
Q 881 4594 1212 4672 
Q 1544 4750 1819 4750 
Q 2544 4750 2975 4387 
Q 3406 4025 3406 3419 
Q 3406 3131 3298 2873 
Q 3191 2616 2906 2266 
Q 2828 2175 2409 1742 
Q 1991 1309 1228 531 
z
" transform="scale(0.015625)"/>
       </defs>
       <use xlink:href="#DejaVuSans-32"/>
       <use xlink:href="#DejaVuSans-30" transform="translate(63.623047 0)"/>
       <use xlink:href="#DejaVuSans-30" transform="translate(127.246094 0)"/>
       <use xlink:href="#DejaVuSans-30" transform="translate(190.869141 0)"/>
       <use xlink:href="#DejaVuSans-30" transform="translate(254.492188 0)"/>
       <use xlink:href="#DejaVuSans-30" transform="translate(318.115234 0)"/>
      </g>
     </g>
    </g>
    <g id="xtick_4">
     <g id="line2d_4">
      <path d="M 323.944351 390.04 
L 323.944351 60.48 
" clip-path="url(#p0f8f99bbdc)" style="fill: none; stroke: #ffffff; stroke-width: 0.8; stroke-linecap: round"/>
     </g>
     <g id="text_4">
      <!-- 300000 -->
      <g style="fill: #262626" transform="translate(304.856851 404.638438) scale(0.1 -0.1)">
       <defs>
        <path id="DejaVuSans-33" d="M 2597 2516 
Q 3050 2419 3304 2112 
Q 3559 1806 3559 1356 
Q 3559 666 3084 287 
Q 2609 -91 1734 -91 
Q 1441 -91 1130 -33 
Q 819 25 488 141 
L 488 750 
Q 750 597 1062 519 
Q 1375 441 1716 441 
Q 2309 441 2620 675 
Q 2931 909 2931 1356 
Q 2931 1769 2642 2001 
Q 2353 2234 1838 2234 
L 1294 2234 
L 1294 2753 
L 1863 2753 
Q 2328 2753 2575 2939 
Q 2822 3125 2822 3475 
Q 2822 3834 2567 4026 
Q 2313 4219 1838 4219 
Q 1578 4219 1281 4162 
Q 984 4106 628 3988 
L 628 4550 
Q 988 4650 1302 4700 
Q 1616 4750 1894 4750 
Q 2613 4750 3031 4423 
Q 3450 4097 3450 3541 
Q 3450 3153 3228 2886 
Q 3006 2619 2597 2516 
z
" transform="scale(0.015625)"/>
       </defs>
       <use xlink:href="#DejaVuSans-33"/>
       <use xlink:href="#DejaVuSans-30" transform="translate(63.623047 0)"/>
       <use xlink:href="#DejaVuSans-30" transform="translate(127.246094 0)"/>
       <use xlink:href="#DejaVuSans-30" transform="translate(190.869141 0)"/>
       <use xlink:href="#DejaVuSans-30" transform="translate(254.492188 0)"/>
       <use xlink:href="#DejaVuSans-30" transform="translate(318.115234 0)"/>
      </g>
     </g>
    </g>
    <g id="xtick_5">
     <g id="line2d_5">
      <path d="M 421.29816 390.04 
L 421.29816 60.48 
" clip-path="url(#p0f8f99bbdc)" style="fill: none; stroke: #ffffff; stroke-width: 0.8; stroke-linecap: round"/>
     </g>
     <g id="text_5">
      <!-- 400000 -->
      <g style="fill: #262626" transform="translate(402.21066 404.638438) scale(0.1 -0.1)">
       <defs>
        <path id="DejaVuSans-34" d="M 2419 4116 
L 825 1625 
L 2419 1625 
L 2419 4116 
z
M 2253 4666 
L 3047 4666 
L 3047 1625 
L 3713 1625 
L 3713 1100 
L 3047 1100 
L 3047 0 
L 2419 0 
L 2419 1100 
L 313 1100 
L 313 1709 
L 2253 4666 
z
" transform="scale(0.015625)"/>
       </defs>
       <use xlink:href="#DejaVuSans-34"/>
       <use xlink:href="#DejaVuSans-30" transform="translate(63.623047 0)"/>
       <use xlink:href="#DejaVuSans-30" transform="translate(127.246094 0)"/>
       <use xlink:href="#DejaVuSans-30" transform="translate(190.869141 0)"/>
       <use xlink:href="#DejaVuSans-30" transform="translate(254.492188 0)"/>
       <use xlink:href="#DejaVuSans-30" transform="translate(318.115234 0)"/>
      </g>
     </g>
    </g>
    <g id="xtick_6">
     <g id="line2d_6">
      <path d="M 518.65197 390.04 
L 518.65197 60.48 
" clip-path="url(#p0f8f99bbdc)" style="fill: none; stroke: #ffffff; stroke-width: 0.8; stroke-linecap: round"/>
     </g>
     <g id="text_6">
      <!-- 500000 -->
      <g style="fill: #262626" transform="translate(499.56447 404.638438) scale(0.1 -0.1)">
       <defs>
        <path id="DejaVuSans-35" d="M 691 4666 
L 3169 4666 
L 3169 4134 
L 1269 4134 
L 1269 2991 
Q 1406 3038 1543 3061 
Q 1681 3084 1819 3084 
Q 2600 3084 3056 2656 
Q 3513 2228 3513 1497 
Q 3513 744 3044 326 
Q 2575 -91 1722 -91 
Q 1428 -91 1123 -41 
Q 819 9 494 109 
L 494 744 
Q 775 591 1075 516 
Q 1375 441 1709 441 
Q 2250 441 2565 725 
Q 2881 1009 2881 1497 
Q 2881 1984 2565 2268 
Q 2250 2553 1709 2553 
Q 1456 2553 1204 2497 
Q 953 2441 691 2322 
L 691 4666 
z
" transform="scale(0.015625)"/>
       </defs>
       <use xlink:href="#DejaVuSans-35"/>
       <use xlink:href="#DejaVuSans-30" transform="translate(63.623047 0)"/>
       <use xlink:href="#DejaVuSans-30" transform="translate(127.246094 0)"/>
       <use xlink:href="#DejaVuSans-30" transform="translate(190.869141 0)"/>
       <use xlink:href="#DejaVuSans-30" transform="translate(254.492188 0)"/>
       <use xlink:href="#DejaVuSans-30" transform="translate(318.115234 0)"/>
      </g>
     </g>
    </g>
    <g id="xtick_7">
     <g id="line2d_7">
      <path d="M 616.00578 390.04 
L 616.00578 60.48 
" clip-path="url(#p0f8f99bbdc)" style="fill: none; stroke: #ffffff; stroke-width: 0.8; stroke-linecap: round"/>
     </g>
     <g id="text_7">
      <!-- 600000 -->
      <g style="fill: #262626" transform="translate(596.91828 404.638438) scale(0.1 -0.1)">
       <defs>
        <path id="DejaVuSans-36" d="M 2113 2584 
Q 1688 2584 1439 2293 
Q 1191 2003 1191 1497 
Q 1191 994 1439 701 
Q 1688 409 2113 409 
Q 2538 409 2786 701 
Q 3034 994 3034 1497 
Q 3034 2003 2786 2293 
Q 2538 2584 2113 2584 
z
M 3366 4563 
L 3366 3988 
Q 3128 4100 2886 4159 
Q 2644 4219 2406 4219 
Q 1781 4219 1451 3797 
Q 1122 3375 1075 2522 
Q 1259 2794 1537 2939 
Q 1816 3084 2150 3084 
Q 2853 3084 3261 2657 
Q 3669 2231 3669 1497 
Q 3669 778 3244 343 
Q 2819 -91 2113 -91 
Q 1303 -91 875 529 
Q 447 1150 447 2328 
Q 447 3434 972 4092 
Q 1497 4750 2381 4750 
Q 2619 4750 2861 4703 
Q 3103 4656 3366 4563 
z
" transform="scale(0.015625)"/>
       </defs>
       <use xlink:href="#DejaVuSans-36"/>
       <use xlink:href="#DejaVuSans-30" transform="translate(63.623047 0)"/>
       <use xlink:href="#DejaVuSans-30" transform="translate(127.246094 0)"/>
       <use xlink:href="#DejaVuSans-30" transform="translate(190.869141 0)"/>
       <use xlink:href="#DejaVuSans-30" transform="translate(254.492188 0)"/>
       <use xlink:href="#DejaVuSans-30" transform="translate(318.115234 0)"/>
      </g>
     </g>
    </g>
    <g id="text_8">
     <!-- Steps -->
     <g style="fill: #262626" transform="translate(316.963981 418.316562) scale(0.1 -0.1)">
      <defs>
       <path id="DejaVuSans-53" d="M 3425 4513 
L 3425 3897 
Q 3066 4069 2747 4153 
Q 2428 4238 2131 4238 
Q 1616 4238 1336 4038 
Q 1056 3838 1056 3469 
Q 1056 3159 1242 3001 
Q 1428 2844 1947 2747 
L 2328 2669 
Q 3034 2534 3370 2195 
Q 3706 1856 3706 1288 
Q 3706 609 3251 259 
Q 2797 -91 1919 -91 
Q 1588 -91 1214 -16 
Q 841 59 441 206 
L 441 856 
Q 825 641 1194 531 
Q 1563 422 1919 422 
Q 2459 422 2753 634 
Q 3047 847 3047 1241 
Q 3047 1584 2836 1778 
Q 2625 1972 2144 2069 
L 1759 2144 
Q 1053 2284 737 2584 
Q 422 2884 422 3419 
Q 422 4038 858 4394 
Q 1294 4750 2059 4750 
Q 2388 4750 2728 4690 
Q 3069 4631 3425 4513 
z
" transform="scale(0.015625)"/>
       <path id="DejaVuSans-74" d="M 1172 4494 
L 1172 3500 
L 2356 3500 
L 2356 3053 
L 1172 3053 
L 1172 1153 
Q 1172 725 1289 603 
Q 1406 481 1766 481 
L 2356 481 
L 2356 0 
L 1766 0 
Q 1100 0 847 248 
Q 594 497 594 1153 
L 594 3053 
L 172 3053 
L 172 3500 
L 594 3500 
L 594 4494 
L 1172 4494 
z
" transform="scale(0.015625)"/>
       <path id="DejaVuSans-65" d="M 3597 1894 
L 3597 1613 
L 953 1613 
Q 991 1019 1311 708 
Q 1631 397 2203 397 
Q 2534 397 2845 478 
Q 3156 559 3463 722 
L 3463 178 
Q 3153 47 2828 -22 
Q 2503 -91 2169 -91 
Q 1331 -91 842 396 
Q 353 884 353 1716 
Q 353 2575 817 3079 
Q 1281 3584 2069 3584 
Q 2775 3584 3186 3129 
Q 3597 2675 3597 1894 
z
M 3022 2063 
Q 3016 2534 2758 2815 
Q 2500 3097 2075 3097 
Q 1594 3097 1305 2825 
Q 1016 2553 972 2059 
L 3022 2063 
z
" transform="scale(0.015625)"/>
       <path id="DejaVuSans-70" d="M 1159 525 
L 1159 -1331 
L 581 -1331 
L 581 3500 
L 1159 3500 
L 1159 2969 
Q 1341 3281 1617 3432 
Q 1894 3584 2278 3584 
Q 2916 3584 3314 3078 
Q 3713 2572 3713 1747 
Q 3713 922 3314 415 
Q 2916 -91 2278 -91 
Q 1894 -91 1617 61 
Q 1341 213 1159 525 
z
M 3116 1747 
Q 3116 2381 2855 2742 
Q 2594 3103 2138 3103 
Q 1681 3103 1420 2742 
Q 1159 2381 1159 1747 
Q 1159 1113 1420 752 
Q 1681 391 2138 391 
Q 2594 391 2855 752 
Q 3116 1113 3116 1747 
z
" transform="scale(0.015625)"/>
       <path id="DejaVuSans-73" d="M 2834 3397 
L 2834 2853 
Q 2591 2978 2328 3040 
Q 2066 3103 1784 3103 
Q 1356 3103 1142 2972 
Q 928 2841 928 2578 
Q 928 2378 1081 2264 
Q 1234 2150 1697 2047 
L 1894 2003 
Q 2506 1872 2764 1633 
Q 3022 1394 3022 966 
Q 3022 478 2636 193 
Q 2250 -91 1575 -91 
Q 1294 -91 989 -36 
Q 684 19 347 128 
L 347 722 
Q 666 556 975 473 
Q 1284 391 1588 391 
Q 1994 391 2212 530 
Q 2431 669 2431 922 
Q 2431 1156 2273 1281 
Q 2116 1406 1581 1522 
L 1381 1569 
Q 847 1681 609 1914 
Q 372 2147 372 2553 
Q 372 3047 722 3315 
Q 1072 3584 1716 3584 
Q 2034 3584 2315 3537 
Q 2597 3491 2834 3397 
z
" transform="scale(0.015625)"/>
      </defs>
      <use xlink:href="#DejaVuSans-53"/>
      <use xlink:href="#DejaVuSans-74" transform="translate(63.476562 0)"/>
      <use xlink:href="#DejaVuSans-65" transform="translate(102.685547 0)"/>
      <use xlink:href="#DejaVuSans-70" transform="translate(164.208984 0)"/>
      <use xlink:href="#DejaVuSans-73" transform="translate(227.685547 0)"/>
     </g>
    </g>
   </g>
   <g id="matplotlib.axis_2">
    <g id="ytick_1">
     <g id="line2d_8">
      <path d="M 31.88 390.04 
L 630.02765 390.04 
" clip-path="url(#p0f8f99bbdc)" style="fill: none; stroke: #ffffff; stroke-width: 0.8; stroke-linecap: round"/>
     </g>
    </g>
    <g id="ytick_2">
     <g id="line2d_9">
      <path d="M 31.88 352.59 
L 630.02765 352.59 
" clip-path="url(#p0f8f99bbdc)" style="fill: none; stroke: #ffffff; stroke-width: 0.8; stroke-linecap: round"/>
     </g>
    </g>
    <g id="ytick_3">
     <g id="line2d_10">
      <path d="M 31.88 315.14 
L 630.02765 315.14 
" clip-path="url(#p0f8f99bbdc)" style="fill: none; stroke: #ffffff; stroke-width: 0.8; stroke-linecap: round"/>
     </g>
    </g>
    <g id="ytick_4">
     <g id="line2d_11">
      <path d="M 31.88 277.69 
L 630.02765 277.69 
" clip-path="url(#p0f8f99bbdc)" style="fill: none; stroke: #ffffff; stroke-width: 0.8; stroke-linecap: round"/>
     </g>
    </g>
    <g id="ytick_5">
     <g id="line2d_12">
      <path d="M 31.88 240.24 
L 630.02765 240.24 
" clip-path="url(#p0f8f99bbdc)" style="fill: none; stroke: #ffffff; stroke-width: 0.8; stroke-linecap: round"/>
     </g>
    </g>
    <g id="ytick_6">
     <g id="line2d_13">
      <path d="M 31.88 202.79 
L 630.02765 202.79 
" clip-path="url(#p0f8f99bbdc)" style="fill: none; stroke: #ffffff; stroke-width: 0.8; stroke-linecap: round"/>
     </g>
    </g>
    <g id="ytick_7">
     <g id="line2d_14">
      <path d="M 31.88 165.34 
L 630.02765 165.34 
" clip-path="url(#p0f8f99bbdc)" style="fill: none; stroke: #ffffff; stroke-width: 0.8; stroke-linecap: round"/>
     </g>
    </g>
    <g id="ytick_8">
     <g id="line2d_15">
      <path d="M 31.88 127.89 
L 630.02765 127.89 
" clip-path="url(#p0f8f99bbdc)" style="fill: none; stroke: #ffffff; stroke-width: 0.8; stroke-linecap: round"/>
     </g>
    </g>
    <g id="ytick_9">
     <g id="line2d_16">
      <path d="M 31.88 90.44 
L 630.02765 90.44 
" clip-path="url(#p0f8f99bbdc)" style="fill: none; stroke: #ffffff; stroke-width: 0.8; stroke-linecap: round"/>
     </g>
    </g>
    <g id="text_9">
     <!-- Normalized Axis -->
     <g style="fill: #262626" transform="translate(18.800313 265.577969) rotate(-90) scale(0.1 -0.1)">
      <defs>
       <path id="DejaVuSans-4e" d="M 628 4666 
L 1478 4666 
L 3547 763 
L 3547 4666 
L 4159 4666 
L 4159 0 
L 3309 0 
L 1241 3903 
L 1241 0 
L 628 0 
L 628 4666 
z
" transform="scale(0.015625)"/>
       <path id="DejaVuSans-6f" d="M 1959 3097 
Q 1497 3097 1228 2736 
Q 959 2375 959 1747 
Q 959 1119 1226 758 
Q 1494 397 1959 397 
Q 2419 397 2687 759 
Q 2956 1122 2956 1747 
Q 2956 2369 2687 2733 
Q 2419 3097 1959 3097 
z
M 1959 3584 
Q 2709 3584 3137 3096 
Q 3566 2609 3566 1747 
Q 3566 888 3137 398 
Q 2709 -91 1959 -91 
Q 1206 -91 779 398 
Q 353 888 353 1747 
Q 353 2609 779 3096 
Q 1206 3584 1959 3584 
z
" transform="scale(0.015625)"/>
       <path id="DejaVuSans-72" d="M 2631 2963 
Q 2534 3019 2420 3045 
Q 2306 3072 2169 3072 
Q 1681 3072 1420 2755 
Q 1159 2438 1159 1844 
L 1159 0 
L 581 0 
L 581 3500 
L 1159 3500 
L 1159 2956 
Q 1341 3275 1631 3429 
Q 1922 3584 2338 3584 
Q 2397 3584 2469 3576 
Q 2541 3569 2628 3553 
L 2631 2963 
z
" transform="scale(0.015625)"/>
       <path id="DejaVuSans-6d" d="M 3328 2828 
Q 3544 3216 3844 3400 
Q 4144 3584 4550 3584 
Q 5097 3584 5394 3201 
Q 5691 2819 5691 2113 
L 5691 0 
L 5113 0 
L 5113 2094 
Q 5113 2597 4934 2840 
Q 4756 3084 4391 3084 
Q 3944 3084 3684 2787 
Q 3425 2491 3425 1978 
L 3425 0 
L 2847 0 
L 2847 2094 
Q 2847 2600 2669 2842 
Q 2491 3084 2119 3084 
Q 1678 3084 1418 2786 
Q 1159 2488 1159 1978 
L 1159 0 
L 581 0 
L 581 3500 
L 1159 3500 
L 1159 2956 
Q 1356 3278 1631 3431 
Q 1906 3584 2284 3584 
Q 2666 3584 2933 3390 
Q 3200 3197 3328 2828 
z
" transform="scale(0.015625)"/>
       <path id="DejaVuSans-61" d="M 2194 1759 
Q 1497 1759 1228 1600 
Q 959 1441 959 1056 
Q 959 750 1161 570 
Q 1363 391 1709 391 
Q 2188 391 2477 730 
Q 2766 1069 2766 1631 
L 2766 1759 
L 2194 1759 
z
M 3341 1997 
L 3341 0 
L 2766 0 
L 2766 531 
Q 2569 213 2275 61 
Q 1981 -91 1556 -91 
Q 1019 -91 701 211 
Q 384 513 384 1019 
Q 384 1609 779 1909 
Q 1175 2209 1959 2209 
L 2766 2209 
L 2766 2266 
Q 2766 2663 2505 2880 
Q 2244 3097 1772 3097 
Q 1472 3097 1187 3025 
Q 903 2953 641 2809 
L 641 3341 
Q 956 3463 1253 3523 
Q 1550 3584 1831 3584 
Q 2591 3584 2966 3190 
Q 3341 2797 3341 1997 
z
" transform="scale(0.015625)"/>
       <path id="DejaVuSans-6c" d="M 603 4863 
L 1178 4863 
L 1178 0 
L 603 0 
L 603 4863 
z
" transform="scale(0.015625)"/>
       <path id="DejaVuSans-69" d="M 603 3500 
L 1178 3500 
L 1178 0 
L 603 0 
L 603 3500 
z
M 603 4863 
L 1178 4863 
L 1178 4134 
L 603 4134 
L 603 4863 
z
" transform="scale(0.015625)"/>
       <path id="DejaVuSans-7a" d="M 353 3500 
L 3084 3500 
L 3084 2975 
L 922 459 
L 3084 459 
L 3084 0 
L 275 0 
L 275 525 
L 2438 3041 
L 353 3041 
L 353 3500 
z
" transform="scale(0.015625)"/>
       <path id="DejaVuSans-64" d="M 2906 2969 
L 2906 4863 
L 3481 4863 
L 3481 0 
L 2906 0 
L 2906 525 
Q 2725 213 2448 61 
Q 2172 -91 1784 -91 
Q 1150 -91 751 415 
Q 353 922 353 1747 
Q 353 2572 751 3078 
Q 1150 3584 1784 3584 
Q 2172 3584 2448 3432 
Q 2725 3281 2906 2969 
z
M 947 1747 
Q 947 1113 1208 752 
Q 1469 391 1925 391 
Q 2381 391 2643 752 
Q 2906 1113 2906 1747 
Q 2906 2381 2643 2742 
Q 2381 3103 1925 3103 
Q 1469 3103 1208 2742 
Q 947 2381 947 1747 
z
" transform="scale(0.015625)"/>
       <path id="DejaVuSans-20" transform="scale(0.015625)"/>
       <path id="DejaVuSans-41" d="M 2188 4044 
L 1331 1722 
L 3047 1722 
L 2188 4044 
z
M 1831 4666 
L 2547 4666 
L 4325 0 
L 3669 0 
L 3244 1197 
L 1141 1197 
L 716 0 
L 50 0 
L 1831 4666 
z
" transform="scale(0.015625)"/>
       <path id="DejaVuSans-78" d="M 3513 3500 
L 2247 1797 
L 3578 0 
L 2900 0 
L 1881 1375 
L 863 0 
L 184 0 
L 1544 1831 
L 300 3500 
L 978 3500 
L 1906 2253 
L 2834 3500 
L 3513 3500 
z
" transform="scale(0.015625)"/>
      </defs>
      <use xlink:href="#DejaVuSans-4e"/>
      <use xlink:href="#DejaVuSans-6f" transform="translate(74.804688 0)"/>
      <use xlink:href="#DejaVuSans-72" transform="translate(135.986328 0)"/>
      <use xlink:href="#DejaVuSans-6d" transform="translate(175.349609 0)"/>
      <use xlink:href="#DejaVuSans-61" transform="translate(272.761719 0)"/>
      <use xlink:href="#DejaVuSans-6c" transform="translate(334.041016 0)"/>
      <use xlink:href="#DejaVuSans-69" transform="translate(361.824219 0)"/>
      <use xlink:href="#DejaVuSans-7a" transform="translate(389.607422 0)"/>
      <use xlink:href="#DejaVuSans-65" transform="translate(442.097656 0)"/>
      <use xlink:href="#DejaVuSans-64" transform="translate(503.621094 0)"/>
      <use xlink:href="#DejaVuSans-20" transform="translate(567.097656 0)"/>
      <use xlink:href="#DejaVuSans-41" transform="translate(598.884766 0)"/>
      <use xlink:href="#DejaVuSans-78" transform="translate(667.292969 0)"/>
      <use xlink:href="#DejaVuSans-69" transform="translate(726.472656 0)"/>
      <use xlink:href="#DejaVuSans-73" transform="translate(754.255859 0)"/>
     </g>
    </g>
   </g>
   <g id="FillBetweenPolyCollection_1"/>
   <g id="FillBetweenPolyCollection_2">
    <path d="M 31.882921 91.758589 
L 31.882921 98.560198 
L 33.876727 101.198527 
L 35.870533 105.904555 
L 37.864339 111.776595 
L 39.858145 117.951283 
L 41.851951 123.953488 
L 43.845757 129.859238 
L 45.839563 136.133539 
L 47.833369 143.213043 
L 49.827175 151.152258 
L 51.820981 159.610128 
L 53.814787 168.117312 
L 55.808593 176.336689 
L 57.802399 184.156416 
L 59.796205 191.693662 
L 61.790011 199.303109 
L 63.783817 207.494644 
L 65.777623 216.624952 
L 67.771429 226.498778 
L 69.765235 236.299209 
L 71.759041 245.06751 
L 73.752847 252.364002 
L 75.746653 258.475044 
L 77.740459 264.006519 
L 79.734265 269.355795 
L 81.728071 274.566332 
L 83.721877 279.537769 
L 85.715683 284.247611 
L 87.709489 288.779648 
L 89.703295 293.219754 
L 91.697101 297.579981 
L 93.690907 301.797643 
L 95.684714 305.74765 
L 97.67852 309.287335 
L 99.672326 312.389079 
L 101.666132 315.232913 
L 103.659938 318.09297 
L 105.653744 321.136801 
L 107.64755 324.387721 
L 109.641356 327.840525 
L 111.635162 331.517026 
L 113.628968 335.383648 
L 115.622774 339.26799 
L 117.61658 342.906286 
L 119.610386 346.083253 
L 121.604192 348.722827 
L 123.597998 350.865154 
L 125.591804 352.602037 
L 127.58561 354.05298 
L 129.579416 355.368035 
L 131.573222 356.708036 
L 133.567028 358.186738 
L 135.560834 359.801539 
L 137.55464 361.411506 
L 139.548446 362.813644 
L 141.542252 363.881856 
L 143.536058 364.648567 
L 145.529864 365.248511 
L 147.52367 365.792593 
L 149.517476 366.310875 
L 151.511282 366.800512 
L 153.505088 367.280085 
L 155.498894 367.781372 
L 157.4927 368.32668 
L 159.486506 368.93309 
L 161.480312 369.605547 
L 163.474118 370.308423 
L 165.467925 370.97762 
L 167.461731 371.585008 
L 169.455537 372.175026 
L 171.449343 372.824322 
L 173.443149 373.567821 
L 175.436955 374.360696 
L 177.430761 375.107023 
L 179.424567 375.734436 
L 181.418373 376.24669 
L 183.412179 376.695364 
L 185.405985 377.110917 
L 187.399791 377.487311 
L 189.393597 377.821996 
L 191.387403 378.130973 
L 193.381209 378.422526 
L 195.375015 378.69009 
L 197.368821 378.940113 
L 199.362627 379.205739 
L 201.356433 379.534996 
L 203.350239 379.981304 
L 205.344045 380.577854 
L 207.337851 381.271141 
L 209.331657 381.89195 
L 211.325463 382.254565 
L 213.319269 382.300207 
L 215.313075 382.123077 
L 217.306881 381.878473 
L 219.300687 381.695927 
L 221.294493 381.652425 
L 223.288299 381.77611 
L 225.282105 382.053505 
L 227.275911 382.436366 
L 229.269717 382.84617 
L 231.263523 383.188908 
L 233.257329 383.401383 
L 235.251135 383.501711 
L 237.244942 383.57345 
L 239.238748 383.680288 
L 241.232554 383.811182 
L 243.22636 383.917399 
L 245.220166 383.97983 
L 247.213972 384.023595 
L 249.207778 384.076729 
L 251.201584 384.1319 
L 253.19539 384.155691 
L 255.189196 384.129024 
L 257.183002 384.068555 
L 259.176808 384.010815 
L 261.170614 383.98911 
L 263.16442 384.026987 
L 265.158226 384.135747 
L 267.152032 384.309563 
L 269.145838 384.528048 
L 271.139644 384.763153 
L 273.13345 384.980487 
L 275.127256 385.146637 
L 277.121062 385.250676 
L 279.114868 385.314287 
L 281.108674 385.366722 
L 283.10248 385.411746 
L 285.096286 385.430375 
L 287.090092 385.413033 
L 289.083898 385.374577 
L 291.077704 385.3385 
L 293.07151 385.323032 
L 295.065316 385.344279 
L 297.059122 385.417018 
L 299.052928 385.544966 
L 301.046734 385.714903 
L 303.04054 385.900256 
L 305.034346 386.068842 
L 307.028153 386.194455 
L 309.021959 386.267682 
L 311.015765 386.294645 
L 313.009571 386.287051 
L 315.003377 386.259258 
L 316.997183 386.23135 
L 318.990989 386.22503 
L 320.984795 386.250983 
L 322.978601 386.29954 
L 324.972407 386.344217 
L 326.966213 386.356874 
L 328.960019 386.324041 
L 330.953825 386.25234 
L 332.947631 386.161936 
L 334.941437 386.076289 
L 336.935243 386.014622 
L 338.929049 385.986534 
L 340.922855 385.986696 
L 342.916661 385.992392 
L 344.910467 385.974349 
L 346.904273 385.920388 
L 348.898079 385.849177 
L 350.891885 385.796404 
L 352.885691 385.784374 
L 354.879497 385.803575 
L 356.873303 385.83052 
L 358.867109 385.867496 
L 360.860915 385.947217 
L 362.854721 386.083236 
L 364.848527 386.234396 
L 366.842333 386.339234 
L 368.836139 386.37299 
L 370.829945 386.353898 
L 372.823751 386.307735 
L 374.817557 386.248444 
L 376.811363 386.188407 
L 378.80517 386.145185 
L 380.798976 386.130132 
L 382.792782 386.137201 
L 384.786588 386.14962 
L 386.780394 386.161211 
L 388.7742 386.190477 
L 390.768006 386.26706 
L 392.761812 386.401482 
L 394.755618 386.570109 
L 396.749424 386.730249 
L 398.74323 386.853067 
L 400.737036 386.946137 
L 402.730842 387.042054 
L 404.724648 387.160912 
L 406.718454 387.285696 
L 408.71226 387.374557 
L 410.706066 387.39383 
L 412.699872 387.342827 
L 414.693678 387.256445 
L 416.687484 387.188684 
L 418.68129 387.18769 
L 420.675096 387.271139 
L 422.668902 387.41525 
L 424.662708 387.573062 
L 426.656514 387.711367 
L 428.65032 387.827034 
L 430.644126 387.927583 
L 432.637932 388.010763 
L 434.631738 388.075707 
L 436.625544 388.146818 
L 438.61935 388.272573 
L 440.613156 388.491384 
L 442.606962 388.786392 
L 444.600768 389.068725 
L 446.594574 389.224679 
L 448.588381 389.204036 
L 450.582187 389.065035 
L 452.575993 388.925921 
L 454.569799 388.878469 
L 456.563605 388.943408 
L 458.557411 389.07617 
L 460.551217 389.197077 
L 462.545023 389.241792 
L 464.538829 389.212506 
L 466.532635 389.178163 
L 468.526441 389.209957 
L 470.520247 389.31355 
L 472.514053 389.431154 
L 474.507859 389.510238 
L 476.501665 389.562455 
L 478.495471 389.64885 
L 480.489277 389.807655 
L 482.483083 390.001408 
L 484.476889 390.141915 
L 486.470695 390.171319 
L 488.464501 390.11269 
L 490.458307 390.03386 
L 492.452113 389.971094 
L 494.445919 389.91052 
L 496.439725 389.840107 
L 498.433531 389.780887 
L 500.427337 389.750526 
L 502.421143 389.732037 
L 504.414949 389.708119 
L 506.408755 389.703092 
L 508.402561 389.760736 
L 510.396367 389.890894 
L 512.390173 390.06045 
L 514.383979 390.226916 
L 516.377785 390.357786 
L 518.371591 390.42838 
L 520.365398 390.433863 
L 522.359204 390.404815 
L 524.35301 390.385681 
L 526.346816 390.393547 
L 528.340622 390.412569 
L 530.334428 390.428908 
L 532.328234 390.457512 
L 534.32204 390.526326 
L 536.315846 390.633054 
L 538.309652 390.723538 
L 540.303458 390.727433 
L 542.297264 390.626452 
L 544.29107 390.48308 
L 546.284876 390.391694 
L 548.278682 390.400554 
L 550.272488 390.484095 
L 552.266294 390.575959 
L 554.2601 390.615571 
L 556.253906 390.579313 
L 558.247712 390.489415 
L 560.241518 390.389999 
L 562.235324 390.306041 
L 564.22913 390.228786 
L 566.222936 390.139268 
L 568.216742 390.034164 
L 570.210548 389.923276 
L 572.204354 389.811152 
L 574.19816 389.697026 
L 576.191966 389.597226 
L 578.185772 389.55159 
L 580.179578 389.59047 
L 582.173384 389.698745 
L 584.16719 389.821647 
L 586.160996 389.90729 
L 588.154802 389.94095 
L 590.148609 389.945652 
L 592.142415 389.960283 
L 594.136221 390.012411 
L 596.130027 390.095437 
L 598.123833 390.1696 
L 600.117639 390.195073 
L 602.111445 390.163944 
L 604.105251 390.098057 
L 606.099057 390.026697 
L 608.092863 389.97018 
L 610.086669 389.931704 
L 612.080475 389.903577 
L 614.074281 389.894115 
L 616.068087 389.941339 
L 618.061893 390.078912 
L 620.055699 390.289286 
L 622.049505 390.509265 
L 624.043311 390.683561 
L 626.037117 390.796166 
L 628.030923 390.851493 
L 628.030923 384.226568 
L 628.030923 384.226568 
L 626.037117 384.361651 
L 624.043311 384.513843 
L 622.049505 384.58241 
L 620.055699 384.570899 
L 618.061893 384.544314 
L 616.068087 384.556837 
L 614.074281 384.637438 
L 612.080475 384.801877 
L 610.086669 385.046519 
L 608.092863 385.348329 
L 606.099057 385.685011 
L 604.105251 386.031662 
L 602.111445 386.331387 
L 600.117639 386.5104 
L 598.123833 386.537545 
L 596.130027 386.438275 
L 594.136221 386.245384 
L 592.142415 385.978153 
L 590.148609 385.683723 
L 588.154802 385.455749 
L 586.160996 385.38189 
L 584.16719 385.473773 
L 582.173384 385.645381 
L 580.179578 385.761486 
L 578.185772 385.732359 
L 576.191966 385.575341 
L 574.19816 385.371939 
L 572.204354 385.167994 
L 570.210548 384.934118 
L 568.216742 384.62596 
L 566.222936 384.253089 
L 564.22913 383.867766 
L 562.235324 383.496119 
L 560.241518 383.109912 
L 558.247712 382.684498 
L 556.253906 382.267423 
L 554.2601 381.95674 
L 552.266294 381.809097 
L 550.272488 381.789486 
L 548.278682 381.799158 
L 546.284876 381.730085 
L 544.29107 381.520777 
L 542.297264 381.204736 
L 540.303458 380.898849 
L 538.309652 380.707438 
L 536.315846 380.637332 
L 534.32204 380.623998 
L 532.328234 380.627979 
L 530.334428 380.670727 
L 528.340622 380.776527 
L 526.346816 380.916047 
L 524.35301 381.018887 
L 522.359204 381.026185 
L 520.365398 380.930875 
L 518.371591 380.779386 
L 516.377785 380.636787 
L 514.383979 380.547814 
L 512.390173 380.525626 
L 510.396367 380.558519 
L 508.402561 380.619797 
L 506.408755 380.683879 
L 504.414949 380.735828 
L 502.421143 380.74722 
L 500.427337 380.648852 
L 498.433531 380.376787 
L 496.439725 379.972411 
L 494.445919 379.588243 
L 492.452113 379.34821 
L 490.458307 379.248857 
L 488.464501 379.24288 
L 486.470695 379.350732 
L 484.476889 379.614014 
L 482.483083 379.996811 
L 480.489277 380.404544 
L 478.495471 380.753746 
L 476.501665 380.980144 
L 474.507859 381.035015 
L 472.514053 380.919217 
L 470.520247 380.684495 
L 468.526441 380.387093 
L 466.532635 380.078975 
L 464.538829 379.836794 
L 462.545023 379.73787 
L 460.551217 379.782262 
L 458.557411 379.862367 
L 456.563605 379.824748 
L 454.569799 379.565766 
L 452.575993 379.090405 
L 450.582187 378.519071 
L 448.588381 378.039388 
L 446.594574 377.806817 
L 444.600768 377.855264 
L 442.606962 378.092159 
L 440.613156 378.368777 
L 438.61935 378.553576 
L 436.625544 378.564247 
L 434.631738 378.370163 
L 432.637932 378.001687 
L 430.644126 377.553347 
L 428.65032 377.136253 
L 426.656514 376.80438 
L 424.662708 376.531119 
L 422.668902 376.26369 
L 420.675096 376.010007 
L 418.68129 375.869536 
L 416.687484 375.946083 
L 414.693678 376.215587 
L 412.699872 376.508567 
L 410.706066 376.64384 
L 408.71226 376.56646 
L 406.718454 376.342941 
L 404.724648 376.04607 
L 402.730842 375.673705 
L 400.737036 375.175215 
L 398.74323 374.53767 
L 396.749424 373.83888 
L 394.755618 373.205986 
L 392.761812 372.716224 
L 390.768006 372.360031 
L 388.7742 372.109595 
L 386.780394 371.988353 
L 384.786588 372.051143 
L 382.792782 372.311947 
L 380.798976 372.705643 
L 378.80517 373.1145 
L 376.811363 373.429979 
L 374.817557 373.612001 
L 372.823751 373.703572 
L 370.829945 373.773888 
L 368.836139 373.829904 
L 366.842333 373.795703 
L 364.848527 373.58728 
L 362.854721 373.198235 
L 360.860915 372.71152 
L 358.867109 372.257069 
L 356.873303 371.967497 
L 354.879497 371.939071 
L 352.885691 372.191269 
L 350.891885 372.654271 
L 348.898079 373.21185 
L 346.904273 373.7581 
L 344.910467 374.216368 
L 342.916661 374.542912 
L 340.922855 374.747533 
L 338.929049 374.890791 
L 336.935243 375.017199 
L 334.941437 375.093351 
L 332.947631 375.03749 
L 330.953825 374.810414 
L 328.960019 374.459107 
L 326.966213 374.083984 
L 324.972407 373.786217 
L 322.978601 373.635261 
L 320.984795 373.637503 
L 318.990989 373.718242 
L 316.997183 373.766538 
L 315.003377 373.718771 
L 313.009571 373.587206 
L 311.015765 373.409098 
L 309.021959 373.193403 
L 307.028153 372.920254 
L 305.034346 372.577837 
L 303.04054 372.215595 
L 301.046734 371.977844 
L 299.052928 372.037126 
L 297.059122 372.423351 
L 295.065316 372.925029 
L 293.07151 373.218589 
L 291.077704 373.102488 
L 289.083898 372.582062 
L 287.090092 371.783312 
L 285.096286 370.854902 
L 283.10248 369.919237 
L 281.108674 369.063711 
L 279.114868 368.381086 
L 277.121062 367.987718 
L 275.127256 367.934614 
L 273.13345 368.10955 
L 271.139644 368.299364 
L 269.145838 368.367651 
L 267.152032 368.34404 
L 265.158226 368.344604 
L 263.16442 368.430215 
L 261.170614 368.541367 
L 259.176808 368.555324 
L 257.183002 368.396678 
L 255.189196 368.105002 
L 253.19539 367.814157 
L 251.201584 367.635852 
L 249.207778 367.530095 
L 247.213972 367.32162 
L 245.220166 366.885984 
L 243.22636 366.285173 
L 241.232554 365.684992 
L 239.238748 365.181431 
L 237.244942 364.760973 
L 235.251135 364.395158 
L 233.257329 364.097673 
L 231.263523 363.888533 
L 229.269717 363.764909 
L 227.275911 363.725217 
L 225.282105 363.789323 
L 223.288299 363.953053 
L 221.294493 364.08675 
L 219.300687 363.893661 
L 217.306881 363.027593 
L 215.313075 361.267058 
L 213.319269 358.581767 
L 211.325463 355.101697 
L 209.331657 351.082183 
L 207.337851 346.848628 
L 205.344045 342.678119 
L 203.350239 338.700348 
L 201.356433 334.940767 
L 199.362627 331.452642 
L 197.368821 328.365886 
L 195.375015 325.810208 
L 193.381209 323.817415 
L 191.387403 322.282889 
L 189.393597 320.996419 
L 187.399791 319.729873 
L 185.405985 318.35329 
L 183.412179 316.909246 
L 181.418373 315.56596 
L 179.424567 314.458679 
L 177.430761 313.550042 
L 175.436955 312.637592 
L 173.443149 311.499028 
L 171.449343 310.043942 
L 169.455537 308.334963 
L 167.461731 306.475906 
L 165.467925 304.508684 
L 163.474118 302.419307 
L 161.480312 300.198778 
L 159.486506 297.868379 
L 157.4927 295.460985 
L 155.498894 293.001727 
L 153.505088 290.511761 
L 151.511282 288.016597 
L 149.517476 285.535232 
L 147.52367 283.058959 
L 145.529864 280.547966 
L 143.536058 277.952548 
L 141.542252 275.243685 
L 139.548446 272.430903 
L 137.55464 269.547063 
L 135.560834 266.611464 
L 133.567028 263.618685 
L 131.573222 260.562645 
L 129.579416 257.445532 
L 127.58561 254.258636 
L 125.591804 250.987865 
L 123.597998 247.649435 
L 121.604192 244.286736 
L 119.610386 240.909602 
L 117.61658 237.4581 
L 115.622774 233.858018 
L 113.628968 230.114497 
L 111.635162 226.329232 
L 109.641356 222.615741 
L 107.64755 219.012993 
L 105.653744 215.487031 
L 103.659938 211.985234 
L 101.666132 208.464063 
L 99.672326 204.884741 
L 97.67852 201.21723 
L 95.684714 197.452727 
L 93.690907 193.604195 
L 91.697101 189.697043 
L 89.703295 185.752125 
L 87.709489 181.76723 
L 85.715683 177.717394 
L 83.721877 173.582244 
L 81.728071 169.382409 
L 79.734265 165.200178 
L 77.740459 161.156219 
L 75.746653 157.358771 
L 73.752847 153.870944 
L 71.759041 150.694054 
L 69.765235 147.739361 
L 67.771429 144.823965 
L 65.777623 141.74997 
L 63.783817 138.425785 
L 61.790011 134.908779 
L 59.796205 131.320863 
L 57.802399 127.720894 
L 55.808593 124.057098 
L 53.814787 120.232618 
L 51.820981 116.212042 
L 49.827175 112.074959 
L 47.833369 107.986054 
L 45.839563 104.127172 
L 43.845757 100.663901 
L 41.851951 97.746893 
L 39.858145 95.481901 
L 37.864339 93.865503 
L 35.870533 92.782458 
L 33.876727 92.100229 
L 31.882921 91.758589 
z
" clip-path="url(#p0f8f99bbdc)" style="fill: #2ca02c; fill-opacity: 0.2"/>
   </g>
   <g id="FillBetweenPolyCollection_3">
    <path d="M 31.882921 390.04 
L 31.882921 390.04 
L 33.876727 390.04 
L 35.870533 390.04 
L 37.864339 390.04 
L 39.858145 390.04 
L 41.851951 390.04 
L 43.845757 390.04 
L 45.839563 390.04 
L 47.833369 390.04 
L 49.827175 390.04 
L 51.820981 390.04 
L 53.814787 390.04 
L 55.808593 390.04 
L 57.802399 390.04 
L 59.796205 390.04 
L 61.790011 390.04 
L 63.783817 390.04 
L 65.777623 390.04 
L 67.771429 390.04 
L 69.765235 390.04 
L 71.759041 390.04 
L 73.752847 390.04 
L 75.746653 390.04 
L 77.740459 390.04 
L 79.734265 390.04 
L 81.728071 390.04 
L 83.721877 390.04 
L 85.715683 390.04 
L 87.709489 390.04 
L 89.703295 390.04 
L 91.697101 390.04 
L 93.690907 390.04 
L 95.684714 390.04 
L 97.67852 390.04 
L 99.672326 390.04 
L 101.666132 390.04 
L 103.659938 390.04 
L 105.653744 390.04 
L 107.64755 390.04 
L 109.641356 390.04 
L 111.635162 390.04 
L 113.628968 390.04 
L 115.622774 390.04 
L 117.61658 390.04 
L 119.610386 390.04 
L 121.604192 390.04 
L 123.597998 390.04 
L 125.591804 390.04 
L 127.58561 390.04 
L 129.579416 390.04 
L 131.573222 390.04 
L 133.567028 390.04 
L 135.560834 390.04 
L 137.55464 390.04 
L 139.548446 390.04 
L 141.542252 390.04 
L 143.536058 390.04 
L 145.529864 390.04 
L 147.52367 390.04 
L 149.517476 390.04 
L 151.511282 390.04 
L 153.505088 390.04 
L 155.498894 390.04 
L 157.4927 390.04 
L 159.486506 390.04 
L 161.480312 390.04 
L 163.474118 390.04 
L 165.467925 390.04 
L 167.461731 390.04 
L 169.455537 390.04 
L 171.449343 390.04 
L 173.443149 390.04 
L 175.436955 390.04 
L 177.430761 390.04 
L 179.424567 390.04 
L 181.418373 390.04 
L 183.412179 390.04 
L 185.405985 390.04 
L 187.399791 390.04 
L 189.393597 390.04 
L 191.387403 390.04 
L 193.381209 390.04 
L 195.375015 390.04 
L 197.368821 390.04 
L 199.362627 390.04 
L 201.356433 390.04 
L 203.350239 390.04 
L 205.344045 390.04 
L 207.337851 390.04 
L 209.331657 390.04 
L 211.325463 390.04 
L 213.319269 390.04 
L 215.313075 390.04 
L 217.306881 390.04 
L 219.300687 390.04 
L 221.294493 390.04 
L 223.288299 390.04 
L 225.282105 390.04 
L 227.275911 390.04 
L 229.269717 390.04 
L 231.263523 390.04 
L 233.257329 390.04 
L 235.251135 390.04 
L 237.244942 390.04 
L 239.238748 390.04 
L 241.232554 390.04 
L 243.22636 390.04 
L 245.220166 390.04 
L 247.213972 390.04 
L 249.207778 390.04 
L 251.201584 390.04 
L 253.19539 390.04 
L 255.189196 390.04 
L 257.183002 390.04 
L 259.176808 390.04 
L 261.170614 390.04 
L 263.16442 390.04 
L 265.158226 390.04 
L 267.152032 390.04 
L 269.145838 390.04 
L 271.139644 390.04 
L 273.13345 390.04 
L 275.127256 390.04 
L 277.121062 390.04 
L 279.114868 390.04 
L 281.108674 390.04 
L 283.10248 390.04 
L 285.096286 390.04 
L 287.090092 390.04 
L 289.083898 390.04 
L 291.077704 390.04 
L 293.07151 390.04 
L 295.065316 390.04 
L 297.059122 390.04 
L 299.052928 390.04 
L 301.046734 390.04 
L 303.04054 390.04 
L 305.034346 390.04 
L 307.028153 390.04 
L 309.021959 390.04 
L 311.015765 390.04 
L 313.009571 390.04 
L 315.003377 390.04 
L 316.997183 390.04 
L 318.990989 390.04 
L 320.984795 390.04 
L 322.978601 390.04 
L 324.972407 390.04 
L 326.966213 390.04 
L 328.960019 390.04 
L 330.953825 390.04 
L 332.947631 390.04 
L 334.941437 390.04 
L 336.935243 390.04 
L 338.929049 390.04 
L 340.922855 390.04 
L 342.916661 390.04 
L 344.910467 390.04 
L 346.904273 390.04 
L 348.898079 390.04 
L 350.891885 390.04 
L 352.885691 390.04 
L 354.879497 390.04 
L 356.873303 390.04 
L 358.867109 390.04 
L 360.860915 390.04 
L 362.854721 390.04 
L 364.848527 390.04 
L 366.842333 390.04 
L 368.836139 390.04 
L 370.829945 390.04 
L 372.823751 390.04 
L 374.817557 390.04 
L 376.811363 390.04 
L 378.80517 390.04 
L 380.798976 390.04 
L 382.792782 390.04 
L 384.786588 390.04 
L 386.780394 390.04 
L 388.7742 390.04 
L 390.768006 390.04 
L 392.761812 390.04 
L 394.755618 390.04 
L 396.749424 390.04 
L 398.74323 390.04 
L 400.737036 390.04 
L 402.730842 390.04 
L 404.724648 390.04 
L 406.718454 390.04 
L 408.71226 390.04 
L 410.706066 390.04 
L 412.699872 390.04 
L 414.693678 390.04 
L 416.687484 390.04 
L 418.68129 390.04 
L 420.675096 390.04 
L 422.668902 390.04 
L 424.662708 390.04 
L 426.656514 390.04 
L 428.65032 390.04 
L 430.644126 390.04 
L 432.637932 390.04 
L 434.631738 390.04 
L 436.625544 390.04 
L 438.61935 390.04 
L 440.613156 390.04 
L 442.606962 390.04 
L 444.600768 390.04 
L 446.594574 390.04 
L 448.588381 390.04 
L 450.582187 390.04 
L 452.575993 390.04 
L 454.569799 390.04 
L 456.563605 390.04 
L 458.557411 390.04 
L 460.551217 390.04 
L 462.545023 390.04 
L 464.538829 390.04 
L 466.532635 390.04 
L 468.526441 390.04 
L 470.520247 390.04 
L 472.514053 390.04 
L 474.507859 390.04 
L 476.501665 390.04 
L 478.495471 390.04 
L 480.489277 390.04 
L 482.483083 390.04 
L 484.476889 390.04 
L 486.470695 390.04 
L 488.464501 390.04 
L 490.458307 390.04 
L 492.452113 390.04 
L 494.445919 390.04 
L 496.439725 390.04 
L 498.433531 390.04 
L 500.427337 390.04 
L 502.421143 390.04 
L 504.414949 390.04 
L 506.408755 390.04 
L 508.402561 390.04 
L 510.396367 390.04 
L 512.390173 390.04 
L 514.383979 390.04 
L 516.377785 390.04 
L 518.371591 390.04 
L 520.365398 390.04 
L 522.359204 390.04 
L 524.35301 390.04 
L 526.346816 390.04 
L 528.340622 390.04 
L 530.334428 390.04 
L 532.328234 390.04 
L 534.32204 390.04 
L 536.315846 390.04 
L 538.309652 390.04 
L 540.303458 390.04 
L 542.297264 390.04 
L 544.29107 390.04 
L 546.284876 390.04 
L 548.278682 390.04 
L 550.272488 390.04 
L 552.266294 390.04 
L 554.2601 390.04 
L 556.253906 390.04 
L 558.247712 390.04 
L 560.241518 390.04 
L 562.235324 390.04 
L 564.22913 390.04 
L 566.222936 390.04 
L 568.216742 390.04 
L 570.210548 390.04 
L 572.204354 390.04 
L 574.19816 390.04 
L 576.191966 390.04 
L 578.185772 390.04 
L 580.179578 390.04 
L 582.173384 390.04 
L 584.16719 390.04 
L 586.160996 390.04 
L 588.154802 390.04 
L 590.148609 390.04 
L 592.142415 390.04 
L 594.136221 390.04 
L 596.130027 390.04 
L 598.123833 390.04 
L 600.117639 390.04 
L 602.111445 390.04 
L 604.105251 390.04 
L 606.099057 390.04 
L 608.092863 390.04 
L 610.086669 390.04 
L 612.080475 390.04 
L 614.074281 390.04 
L 616.068087 390.04 
L 618.061893 390.04 
L 620.055699 390.04 
L 622.049505 390.04 
L 624.043311 390.04 
L 626.037117 390.04 
L 628.030923 390.04 
L 628.030923 390.04 
L 628.030923 390.04 
L 626.037117 390.04 
L 624.043311 390.04 
L 622.049505 390.04 
L 620.055699 390.04 
L 618.061893 390.04 
L 616.068087 390.04 
L 614.074281 390.04 
L 612.080475 390.04 
L 610.086669 390.04 
L 608.092863 390.04 
L 606.099057 390.04 
L 604.105251 390.04 
L 602.111445 390.04 
L 600.117639 390.04 
L 598.123833 390.04 
L 596.130027 390.04 
L 594.136221 390.04 
L 592.142415 390.04 
L 590.148609 390.04 
L 588.154802 390.04 
L 586.160996 390.04 
L 584.16719 390.04 
L 582.173384 390.04 
L 580.179578 390.04 
L 578.185772 390.04 
L 576.191966 390.04 
L 574.19816 390.04 
L 572.204354 390.04 
L 570.210548 390.04 
L 568.216742 390.04 
L 566.222936 390.04 
L 564.22913 390.04 
L 562.235324 390.04 
L 560.241518 390.04 
L 558.247712 390.04 
L 556.253906 390.04 
L 554.2601 390.04 
L 552.266294 390.04 
L 550.272488 390.04 
L 548.278682 390.04 
L 546.284876 390.04 
L 544.29107 390.04 
L 542.297264 390.04 
L 540.303458 390.04 
L 538.309652 390.04 
L 536.315846 390.04 
L 534.32204 390.04 
L 532.328234 390.04 
L 530.334428 390.04 
L 528.340622 390.04 
L 526.346816 390.04 
L 524.35301 390.04 
L 522.359204 390.04 
L 520.365398 390.04 
L 518.371591 390.04 
L 516.377785 390.04 
L 514.383979 390.04 
L 512.390173 390.04 
L 510.396367 390.04 
L 508.402561 390.04 
L 506.408755 390.04 
L 504.414949 390.04 
L 502.421143 390.04 
L 500.427337 390.04 
L 498.433531 390.04 
L 496.439725 390.04 
L 494.445919 390.04 
L 492.452113 390.04 
L 490.458307 390.04 
L 488.464501 390.04 
L 486.470695 390.04 
L 484.476889 390.04 
L 482.483083 390.04 
L 480.489277 390.04 
L 478.495471 390.04 
L 476.501665 390.04 
L 474.507859 390.04 
L 472.514053 390.04 
L 470.520247 390.04 
L 468.526441 390.04 
L 466.532635 390.04 
L 464.538829 390.04 
L 462.545023 390.04 
L 460.551217 390.04 
L 458.557411 390.04 
L 456.563605 390.04 
L 454.569799 390.04 
L 452.575993 390.04 
L 450.582187 390.04 
L 448.588381 390.04 
L 446.594574 390.04 
L 444.600768 390.04 
L 442.606962 390.04 
L 440.613156 390.04 
L 438.61935 390.04 
L 436.625544 390.04 
L 434.631738 390.04 
L 432.637932 390.04 
L 430.644126 390.04 
L 428.65032 390.04 
L 426.656514 390.04 
L 424.662708 390.04 
L 422.668902 390.04 
L 420.675096 390.04 
L 418.68129 390.04 
L 416.687484 390.04 
L 414.693678 390.04 
L 412.699872 390.04 
L 410.706066 390.04 
L 408.71226 390.04 
L 406.718454 390.04 
L 404.724648 390.04 
L 402.730842 390.04 
L 400.737036 390.04 
L 398.74323 390.04 
L 396.749424 390.04 
L 394.755618 390.04 
L 392.761812 390.04 
L 390.768006 390.04 
L 388.7742 390.04 
L 386.780394 390.04 
L 384.786588 390.04 
L 382.792782 390.04 
L 380.798976 390.04 
L 378.80517 390.04 
L 376.811363 390.04 
L 374.817557 390.04 
L 372.823751 390.04 
L 370.829945 390.04 
L 368.836139 390.04 
L 366.842333 390.04 
L 364.848527 390.04 
L 362.854721 390.04 
L 360.860915 390.04 
L 358.867109 390.04 
L 356.873303 390.04 
L 354.879497 390.04 
L 352.885691 390.04 
L 350.891885 390.04 
L 348.898079 390.04 
L 346.904273 390.04 
L 344.910467 390.04 
L 342.916661 390.04 
L 340.922855 390.04 
L 338.929049 390.04 
L 336.935243 390.04 
L 334.941437 390.04 
L 332.947631 390.04 
L 330.953825 390.04 
L 328.960019 390.04 
L 326.966213 390.04 
L 324.972407 390.04 
L 322.978601 390.04 
L 320.984795 390.04 
L 318.990989 390.04 
L 316.997183 390.04 
L 315.003377 390.04 
L 313.009571 390.04 
L 311.015765 390.04 
L 309.021959 390.04 
L 307.028153 390.04 
L 305.034346 390.04 
L 303.04054 390.04 
L 301.046734 390.04 
L 299.052928 390.04 
L 297.059122 390.04 
L 295.065316 390.04 
L 293.07151 390.04 
L 291.077704 390.04 
L 289.083898 390.04 
L 287.090092 390.04 
L 285.096286 390.04 
L 283.10248 390.04 
L 281.108674 390.04 
L 279.114868 390.04 
L 277.121062 390.04 
L 275.127256 390.04 
L 273.13345 390.04 
L 271.139644 390.04 
L 269.145838 390.04 
L 267.152032 390.04 
L 265.158226 390.04 
L 263.16442 390.04 
L 261.170614 390.04 
L 259.176808 390.04 
L 257.183002 390.04 
L 255.189196 390.04 
L 253.19539 390.04 
L 251.201584 390.04 
L 249.207778 390.04 
L 247.213972 390.04 
L 245.220166 390.04 
L 243.22636 390.04 
L 241.232554 390.04 
L 239.238748 390.04 
L 237.244942 390.04 
L 235.251135 390.04 
L 233.257329 390.04 
L 231.263523 390.04 
L 229.269717 390.04 
L 227.275911 390.04 
L 225.282105 390.04 
L 223.288299 390.04 
L 221.294493 390.04 
L 219.300687 390.04 
L 217.306881 390.04 
L 215.313075 390.04 
L 213.319269 390.04 
L 211.325463 390.04 
L 209.331657 390.04 
L 207.337851 390.04 
L 205.344045 390.04 
L 203.350239 390.04 
L 201.356433 390.04 
L 199.362627 390.04 
L 197.368821 390.04 
L 195.375015 390.04 
L 193.381209 390.04 
L 191.387403 390.04 
L 189.393597 390.04 
L 187.399791 390.04 
L 185.405985 390.04 
L 183.412179 390.04 
L 181.418373 390.04 
L 179.424567 390.04 
L 177.430761 390.04 
L 175.436955 390.04 
L 173.443149 390.04 
L 171.449343 390.04 
L 169.455537 390.04 
L 167.461731 390.04 
L 165.467925 390.04 
L 163.474118 390.04 
L 161.480312 390.04 
L 159.486506 390.04 
L 157.4927 390.04 
L 155.498894 390.04 
L 153.505088 390.04 
L 151.511282 390.04 
L 149.517476 390.04 
L 147.52367 390.04 
L 145.529864 390.04 
L 143.536058 390.04 
L 141.542252 390.04 
L 139.548446 390.04 
L 137.55464 390.04 
L 135.560834 390.04 
L 133.567028 390.04 
L 131.573222 390.04 
L 129.579416 390.04 
L 127.58561 390.04 
L 125.591804 390.04 
L 123.597998 390.04 
L 121.604192 390.04 
L 119.610386 390.04 
L 117.61658 390.04 
L 115.622774 390.04 
L 113.628968 390.04 
L 111.635162 390.04 
L 109.641356 390.04 
L 107.64755 390.04 
L 105.653744 390.04 
L 103.659938 390.04 
L 101.666132 390.04 
L 99.672326 390.04 
L 97.67852 390.04 
L 95.684714 390.04 
L 93.690907 390.04 
L 91.697101 390.04 
L 89.703295 390.04 
L 87.709489 390.04 
L 85.715683 390.04 
L 83.721877 390.04 
L 81.728071 390.04 
L 79.734265 390.04 
L 77.740459 390.04 
L 75.746653 390.04 
L 73.752847 390.04 
L 71.759041 390.04 
L 69.765235 390.04 
L 67.771429 390.04 
L 65.777623 390.04 
L 63.783817 390.04 
L 61.790011 390.04 
L 59.796205 390.04 
L 57.802399 390.04 
L 55.808593 390.04 
L 53.814787 390.04 
L 51.820981 390.04 
L 49.827175 390.04 
L 47.833369 390.04 
L 45.839563 390.04 
L 43.845757 390.04 
L 41.851951 390.04 
L 39.858145 390.04 
L 37.864339 390.04 
L 35.870533 390.04 
L 33.876727 390.04 
L 31.882921 390.04 
z
" clip-path="url(#p0f8f99bbdc)" style="fill: #d62728; fill-opacity: 0.2"/>
   </g>
   <g id="line2d_17">
    <path d="M 31.88 240.24 
L 630.02765 240.24 
" clip-path="url(#p0f8f99bbdc)" style="fill: none; stroke-dasharray: 2.96,1.28; stroke-dashoffset: 0; stroke: #808080; stroke-width: 0.8"/>
   </g>
   <g id="line2d_18">
    <path d="M 0 0 
" clip-path="url(#p0f8f99bbdc)" style="fill: none; stroke: #00b899; stroke-width: 1.5; stroke-linecap: round"/>
   </g>
   <g id="line2d_19">
    <path d="M 31.882921 95.159393 
L 33.876727 96.649378 
L 35.870533 99.343506 
L 37.864339 102.821049 
L 41.851951 110.850191 
L 43.845757 115.261569 
L 45.839563 120.130355 
L 47.833369 125.599549 
L 51.820981 137.911085 
L 55.808593 150.196894 
L 65.777623 179.187461 
L 69.765235 192.019285 
L 71.759041 197.880782 
L 73.752847 203.117473 
L 79.734265 217.277987 
L 83.721877 226.560007 
L 87.709489 235.273439 
L 93.690907 247.700919 
L 95.684714 251.600188 
L 97.67852 255.252283 
L 101.666132 261.848488 
L 105.653744 268.311916 
L 109.641356 275.228133 
L 113.628968 282.749073 
L 117.61658 290.182193 
L 119.610386 293.496428 
L 121.604192 296.504781 
L 123.597998 299.257294 
L 127.58561 304.155808 
L 139.548446 317.622273 
L 141.542252 319.56277 
L 145.529864 322.898239 
L 153.505088 328.895923 
L 165.467925 337.743152 
L 169.455537 340.254994 
L 173.443149 342.533424 
L 175.436955 343.499144 
L 185.405985 347.732104 
L 189.393597 349.409208 
L 193.381209 351.119971 
L 195.375015 352.250149 
L 197.368821 353.652999 
L 199.362627 355.329191 
L 201.356433 357.237882 
L 203.350239 359.340826 
L 207.337851 364.059884 
L 209.331657 366.487066 
L 211.325463 368.678131 
L 213.319269 370.440987 
L 215.313075 371.695068 
L 217.306881 372.453033 
L 219.300687 372.794794 
L 227.275911 373.080791 
L 241.232554 374.748087 
L 245.220166 375.432907 
L 249.207778 375.803412 
L 261.170614 376.265239 
L 265.158226 376.240175 
L 273.13345 376.545018 
L 277.121062 376.619197 
L 279.114868 376.847687 
L 283.10248 377.665491 
L 287.090092 378.598173 
L 289.083898 378.978319 
L 291.077704 379.220494 
L 293.07151 379.27081 
L 299.052928 378.791046 
L 301.046734 378.846374 
L 311.015765 379.851872 
L 316.997183 379.998944 
L 322.978601 379.9674 
L 326.966213 380.220429 
L 330.953825 380.531377 
L 334.941437 380.58482 
L 342.916661 380.267652 
L 346.904273 379.839244 
L 352.885691 378.987821 
L 354.879497 378.871323 
L 356.873303 378.899008 
L 360.860915 379.329369 
L 364.848527 379.910838 
L 366.842333 380.067468 
L 370.829945 380.063893 
L 376.811363 379.809193 
L 384.786588 379.100382 
L 388.7742 379.150036 
L 392.761812 379.558853 
L 396.749424 380.284564 
L 400.737036 381.060676 
L 404.724648 381.603491 
L 408.71226 381.970509 
L 410.706066 382.018835 
L 414.693678 381.736016 
L 416.687484 381.567384 
L 418.68129 381.528613 
L 422.668902 381.83947 
L 436.625544 383.355533 
L 442.606962 383.439276 
L 446.594574 383.515748 
L 450.582187 383.792053 
L 456.563605 384.384078 
L 460.551217 384.48967 
L 464.538829 384.52465 
L 468.526441 384.798525 
L 472.514053 385.175186 
L 476.501665 385.271299 
L 482.483083 384.999109 
L 488.464501 384.677785 
L 492.452113 384.659652 
L 496.439725 384.906259 
L 500.427337 385.199689 
L 504.414949 385.221973 
L 510.396367 385.224706 
L 518.371591 385.603883 
L 522.359204 385.7155 
L 528.340622 385.594548 
L 532.328234 385.542746 
L 538.309652 385.715488 
L 548.278682 386.099856 
L 554.2601 386.286155 
L 572.204354 387.489573 
L 582.173384 387.672063 
L 588.154802 387.69835 
L 600.117639 388.352736 
L 604.105251 388.06486 
L 610.086669 387.489112 
L 614.074281 387.265777 
L 618.061893 387.311613 
L 624.043311 387.598702 
L 628.030923 387.539031 
L 628.030923 387.539031 
" clip-path="url(#p0f8f99bbdc)" style="fill: none; stroke: #2ca02c; stroke-width: 1.5; stroke-linecap: round"/>
   </g>
   <g id="line2d_20">
    <path d="M 31.882921 390.04 
L 628.030923 390.04 
L 628.030923 390.04 
" clip-path="url(#p0f8f99bbdc)" style="fill: none; stroke: #d62728; stroke-width: 1.5; stroke-linecap: round"/>
   </g>
   <g id="line2d_21">
    <path d="M 146.013192 433 
L 147.52367 409.710163 
L 149.517476 422.469518 
L 150.09278 433 
M 154.332769 433 
L 155.498894 406.721368 
L 157.4927 387.048728 
L 159.486506 393.223955 
L 161.480312 394.013105 
L 163.474118 375.305004 
L 165.467925 340.702929 
L 167.461731 318.795845 
L 169.455537 331.24947 
L 171.449343 340.103348 
L 173.443149 308.50173 
L 175.436955 291.758006 
L 177.430761 314.032248 
L 179.424567 345.05996 
L 181.418373 352.827288 
L 183.412179 325.198908 
L 185.405985 279.2959 
L 187.399791 258.098877 
L 189.393597 283.689617 
L 191.387403 292.64661 
L 193.381209 290.962237 
L 195.375015 301.874648 
L 197.368821 307.231095 
L 201.356433 294.67383 
L 203.350239 306.023558 
L 205.344045 297.523903 
L 207.337851 273.164701 
L 209.331657 283.459281 
L 211.325463 300.125693 
L 213.319269 264.246682 
L 215.313075 207.895108 
L 217.306881 173.728952 
L 219.300687 176.592369 
L 221.294493 195.400027 
L 223.288299 210.141964 
L 225.282105 198.343201 
L 227.275911 185.809556 
L 229.269717 176.625157 
L 231.263523 162.501442 
L 233.257329 157.791124 
L 235.251135 164.728434 
L 237.244942 173.210034 
L 239.238748 177.489583 
L 241.232554 162.225952 
L 243.22636 138.693115 
L 245.220166 122.398653 
L 247.213972 113.502971 
L 249.207778 117.149785 
L 251.201584 138.084155 
L 253.19539 145.798681 
L 255.189196 138.50255 
L 257.183002 130.132482 
L 259.176808 125.320097 
L 261.170614 129.763569 
L 263.16442 145.560254 
L 267.152032 165.139748 
L 269.145838 185.143341 
L 271.139644 201.139511 
L 273.13345 213.032976 
L 275.127256 214.361771 
L 277.121062 204.74738 
L 279.114868 205.522015 
L 281.108674 210.762517 
L 283.10248 212.012291 
L 285.096286 203.325264 
L 287.090092 169.322831 
L 289.083898 159.214265 
L 293.07151 192.521248 
L 295.065316 195.046335 
L 297.059122 188.442751 
L 299.052928 186.45747 
L 303.04054 210.486262 
L 305.034346 207.260514 
L 307.028153 196.604389 
L 309.021959 194.312338 
L 311.015765 206.430899 
L 313.009571 227.606788 
L 315.003377 241.486151 
L 316.997183 254.515081 
L 318.990989 252.743 
L 320.984795 230.666485 
L 322.978601 224.753269 
L 324.972407 241.341082 
L 326.966213 239.284317 
L 328.960019 231.293489 
L 330.953825 228.230754 
L 332.947631 233.81824 
L 334.941437 245.675895 
L 336.935243 250.875029 
L 338.929049 236.464973 
L 340.922855 227.230508 
L 342.916661 228.619595 
L 344.910467 226.290948 
L 346.904273 217.371519 
L 348.898079 212.302403 
L 350.891885 219.030684 
L 352.885691 220.478236 
L 354.879497 203.925389 
L 356.873303 184.744298 
L 358.867109 181.544997 
L 360.860915 185.196291 
L 362.854721 163.054724 
L 364.848527 125.931044 
L 366.842333 106.154316 
L 368.836139 116.027964 
L 370.829945 151.924366 
L 372.823751 172.292592 
L 374.817557 177.066634 
L 376.811363 168.605086 
L 378.80517 158.837375 
L 380.798976 152.625058 
L 382.792782 148.997803 
L 384.786588 130.02436 
L 386.780394 102.95973 
L 388.7742 91.480866 
L 390.768006 97.233039 
L 392.761812 108.796296 
L 394.755618 106.965657 
L 396.749424 96.921452 
L 398.74323 84.756453 
L 400.737036 73.952873 
L 402.730842 54.322743 
L 404.724648 53.217908 
L 406.718454 78.690372 
L 408.71226 84.577087 
L 410.706066 76.933007 
L 412.699872 76.690986 
L 414.693678 108.776808 
L 416.687484 149.025739 
L 418.68129 142.397884 
L 422.668902 82.332306 
L 424.662708 67.98252 
L 426.656514 68.853342 
L 428.65032 51.222699 
L 430.644126 13.447034 
L 432.637932 8.227261 
L 434.631738 39.650739 
L 436.625544 57.19704 
L 438.61935 58.884223 
L 440.613156 72.64524 
L 442.606962 89.443198 
L 444.600768 87.592429 
L 446.594574 66.033974 
L 448.588381 48.468442 
L 450.582187 61.342543 
L 452.575993 85.021197 
L 454.569799 87.683197 
L 456.563605 71.961429 
L 458.557411 50.232237 
L 460.551217 46.241787 
L 462.545023 57.258123 
L 464.538829 53.973825 
L 466.532635 53.950703 
L 468.526441 54.247146 
L 470.520247 51.40617 
L 472.514053 42.268925 
L 474.507859 41.136542 
L 476.501665 51.416101 
L 478.495471 58.654192 
L 480.489277 64.200627 
L 482.483083 57.04812 
L 484.476889 47.161648 
L 486.470695 56.387059 
L 488.464501 63.605232 
L 490.458307 62.591792 
L 492.452113 60.810334 
L 494.445919 43.552646 
L 496.875182 -1 
M 502.742014 -1 
L 504.414949 35.109688 
L 506.408755 59.61102 
L 508.402561 48.993242 
L 510.396367 25.743609 
L 512.390173 9.698339 
L 514.383979 18.473658 
L 516.377785 31.181513 
L 518.371591 27.63699 
L 520.365398 25.483442 
L 522.359204 34.170407 
L 524.35301 28.728904 
L 526.346816 16.089784 
L 528.340622 16.317906 
L 530.334428 32.467452 
L 532.328234 43.29634 
L 534.32204 40.485092 
L 538.309652 9.333665 
L 540.303458 12.974002 
L 542.297264 29.085981 
L 544.29107 50.095995 
L 546.284876 64.956571 
L 548.278682 43.466576 
L 550.272488 17.601277 
L 552.266294 14.58442 
L 554.2601 11.049574 
L 556.253906 11.87649 
L 558.247712 26.128687 
L 560.241518 38.918959 
L 562.235324 26.629764 
L 564.22913 16.264645 
L 566.222936 43.100145 
L 568.216742 86.4771 
L 570.210548 99.490323 
L 574.19816 49.08067 
L 576.191966 48.265663 
L 578.185772 58.815146 
L 580.179578 64.066642 
L 582.173384 41.835128 
L 584.16719 4.029824 
L 584.891111 -1 
M 587.044325 -1 
L 588.154802 10.092116 
L 590.148609 40.793953 
L 592.142415 62.460776 
L 594.136221 62.198792 
L 597.928807 -1 
M 598.64649 -1 
L 600.117639 8.248734 
L 602.111445 33.633585 
L 606.099057 75.534093 
L 608.092863 78.001601 
L 610.086669 52.632566 
L 612.080475 23.751162 
L 614.074281 29.295298 
L 616.068087 42.668952 
L 618.061893 34.063529 
L 620.055699 17.267607 
L 622.049505 12.633089 
L 624.043311 20.289143 
L 626.037117 20.989203 
L 628.030923 11.118383 
L 628.030923 11.118383 
" clip-path="url(#p0f8f99bbdc)" style="fill: none; stroke: #1f77b4; stroke-width: 0.7; stroke-linecap: round"/>
   </g>
   <g id="line2d_22">
    <path d="M 0 0 
" clip-path="url(#p0f8f99bbdc)" style="fill: none; stroke: #ff7f0e; stroke-width: 0.7; stroke-linecap: round"/>
   </g>
   <g id="line2d_23">
    <path d="M 31.882921 390.04 
L 37.864339 376.496998 
L 43.845757 371.009747 
L 49.827175 337.288451 
L 55.808593 321.254782 
L 61.790011 328.960283 
L 67.771429 287.066486 
L 73.752847 298.274487 
L 79.734265 273.056484 
L 85.715683 264.436441 
L 91.697101 255.758023 
L 97.67852 247.95523 
L 103.659938 237.564479 
L 109.641356 234.490062 
L 115.622774 226.979144 
L 121.604192 223.184768 
L 127.58561 214.720392 
L 133.567028 215.946267 
L 139.548446 216.432726 
L 145.529864 211.762725 
L 151.511282 214.584184 
L 157.4927 219.19581 
L 163.474118 217.678059 
L 169.455537 222.892893 
L 175.436955 210.439558 
L 181.418373 194.98964 
L 187.399791 201.858432 
L 193.381209 196.818723 
L 199.362627 190.767181 
L 205.344045 197.67489 
L 211.325463 175.881554 
L 217.306881 201.936266 
L 223.288299 188.54893 
L 229.269717 182.82818 
L 235.251135 185.455055 
L 241.232554 174.577845 
L 247.213972 166.094011 
L 253.19539 179.889971 
L 259.176808 174.188678 
L 265.158226 172.281761 
L 271.139644 170.997511 
L 277.121062 185.299388 
L 283.10248 172.126095 
L 289.083898 167.786886 
L 295.065316 176.212345 
L 301.046734 167.923094 
L 307.028153 163.75901 
L 313.009571 174.967012 
L 318.990989 158.719301 
L 324.972407 157.921509 
L 330.953825 166.872344 
L 336.935243 165.607552 
L 342.916661 165.471344 
L 348.898079 158.018801 
L 354.879497 148.620425 
L 360.860915 164.089802 
L 366.842333 151.617009 
L 372.823751 160.742968 
L 378.80517 151.383508 
L 384.786588 144.514716 
L 390.768006 152.259134 
L 396.749424 122.624088 
L 402.730842 126.087672 
L 408.71226 112.486295 
L 414.693678 114.023503 
L 420.675096 106.473669 
L 426.656514 112.369545 
L 432.637932 93.806292 
L 438.61935 112.66142 
L 444.600768 111.007461 
L 450.582187 106.532044 
L 456.563605 118.460004 
L 462.545023 107.290919 
L 468.526441 103.749502 
L 474.507859 107.446586 
L 480.489277 106.746086 
L 486.470695 119.861004 
L 492.452113 106.687711 
L 498.433531 112.097128 
L 504.414949 124.316963 
L 510.396367 113.284087 
L 516.377785 103.905169 
L 522.359204 99.157335 
L 528.340622 101.862043 
L 534.32204 98.690334 
L 540.303458 105.150502 
L 546.284876 93.261459 
L 552.266294 93.689542 
L 558.247712 98.009293 
L 564.22913 99.877293 
L 570.210548 107.193627 
L 576.191966 108.147086 
L 582.173384 108.244377 
L 588.154802 91.841 
L 594.136221 107.874669 
L 600.117639 90.44 
L 606.099057 95.927251 
L 612.080475 102.815502 
L 618.061893 112.097128 
L 624.043311 110.949086 
" clip-path="url(#p0f8f99bbdc)" style="fill: none; stroke: #000000; stroke-width: 1.5; stroke-linecap: round"/>
   </g>
   <g id="line2d_24">
    <path d="M 31.882921 90.44 
L 37.864339 103.003799 
L 43.845757 121.930046 
L 49.827175 126.787065 
L 55.808593 142.989903 
L 61.790011 142.260336 
L 67.771429 155.078713 
L 73.752847 159.478503 
L 79.734265 169.846954 
L 85.715683 187.623823 
L 91.697101 191.279703 
L 97.67852 202.727357 
L 103.659938 205.820248 
L 109.641356 208.608948 
L 115.622774 218.748619 
L 121.604192 229.856743 
L 127.58561 234.777349 
L 133.567028 240.910642 
L 139.548446 249.378841 
L 145.529864 258.267893 
L 151.511282 266.653168 
L 157.4927 280.303635 
L 163.474118 289.067841 
L 169.455537 296.140526 
L 175.436955 301.298795 
L 181.418373 302.08869 
L 187.399791 308.899712 
L 193.381209 308.164083 
L 199.362627 305.875838 
L 205.344045 309.609536 
L 211.325463 327.473606 
L 217.306881 336.084472 
L 223.288299 339.541747 
L 229.269717 339.433583 
L 235.251135 348.381015 
L 241.232554 346.994817 
L 247.213972 347.472114 
L 253.19539 353.373812 
L 259.176808 351.150055 
L 265.158226 345.461198 
L 271.139644 333.545039 
L 277.121062 337.115401 
L 283.10248 342.507466 
L 289.083898 342.973997 
L 295.065316 343.161145 
L 301.046734 334.221532 
L 307.028153 336.128722 
L 313.009571 338.140682 
L 318.990989 334.763952 
L 324.972407 334.704825 
L 330.953825 334.907911 
L 336.935243 334.881635 
L 342.916661 339.499291 
L 348.898079 350.011372 
L 354.879497 352.285805 
L 360.860915 352.874662 
L 366.842333 354.626929 
L 372.823751 356.360484 
L 378.80517 361.069408 
L 384.786588 365.503864 
L 390.768006 368.798793 
L 396.749424 367.621754 
L 402.730842 367.450521 
L 408.71226 369.556809 
L 414.693678 372.844648 
L 420.675096 368.475784 
L 426.656514 375.643226 
L 432.637932 373.034428 
L 438.61935 377.613543 
L 444.600768 378.072704 
L 450.582187 374.204377 
L 456.563605 380.087942 
L 462.545023 381.874828 
L 468.526441 383.644333 
L 474.507859 384.459036 
L 480.489277 386.418964 
L 486.470695 387.221135 
L 492.452113 388.121946 
L 498.433531 383.513898 
L 504.414949 390.04 
L 510.396367 388.450923 
L 516.377785 388.215431 
L 522.359204 386.793098 
L 528.340622 386.050357 
L 534.32204 387.892995 
L 540.303458 387.415583 
L 546.284876 389.033183 
L 552.266294 389.503176 
L 558.247712 389.845598 
L 564.22913 387.999015 
L 570.210548 388.326434 
L 576.191966 384.857624 
L 582.173384 385.086685 
L 588.154802 386.666777 
L 594.136221 387.870104 
L 600.117639 385.9697 
L 606.099057 383.708677 
L 612.080475 386.18848 
L 618.061893 388.854948 
L 624.043311 387.923583 
" clip-path="url(#p0f8f99bbdc)" style="fill: none; stroke: #7b3ab8; stroke-width: 1.5; stroke-linecap: round"/>
   </g>
   <g id="patch_3">
    <path d="M 31.88 390.04 
L 31.88 60.48 
" style="fill: none; stroke: #ffffff; stroke-width: 0.8; stroke-linejoin: miter; stroke-linecap: square"/>
   </g>
   <g id="patch_4">
    <path d="M 630.02765 390.04 
L 630.02765 60.48 
" style="fill: none; stroke: #ffffff; stroke-width: 0.8; stroke-linejoin: miter; stroke-linecap: square"/>
   </g>
   <g id="patch_5">
    <path d="M 31.88 390.04 
L 630.02765 390.04 
" style="fill: none; stroke: #ffffff; stroke-width: 0.8; stroke-linejoin: miter; stroke-linecap: square"/>
   </g>
   <g id="patch_6">
    <path d="M 31.88 60.48 
L 630.02765 60.48 
" style="fill: none; stroke: #ffffff; stroke-width: 0.8; stroke-linejoin: miter; stroke-linecap: square"/>
   </g>
  </g>
  <g id="text_10">
   <!-- Objectives: Acrobot-v1 | CMU-Net (Alignment + Penalty) -->
   <g style="fill: #262626" transform="translate(133.56375 17.810625) scale(0.12 -0.12)">
    <defs>
     <path id="DejaVuSans-Bold-4f" d="M 2719 3878 
Q 2169 3878 1866 3472 
Q 1563 3066 1563 2328 
Q 1563 1594 1866 1187 
Q 2169 781 2719 781 
Q 3272 781 3575 1187 
Q 3878 1594 3878 2328 
Q 3878 3066 3575 3472 
Q 3272 3878 2719 3878 
z
M 2719 4750 
Q 3844 4750 4481 4106 
Q 5119 3463 5119 2328 
Q 5119 1197 4481 553 
Q 3844 -91 2719 -91 
Q 1597 -91 958 553 
Q 319 1197 319 2328 
Q 319 3463 958 4106 
Q 1597 4750 2719 4750 
z
" transform="scale(0.015625)"/>
     <path id="DejaVuSans-Bold-62" d="M 2400 722 
Q 2759 722 2948 984 
Q 3138 1247 3138 1747 
Q 3138 2247 2948 2509 
Q 2759 2772 2400 2772 
Q 2041 2772 1848 2508 
Q 1656 2244 1656 1747 
Q 1656 1250 1848 986 
Q 2041 722 2400 722 
z
M 1656 2988 
Q 1888 3294 2169 3439 
Q 2450 3584 2816 3584 
Q 3463 3584 3878 3070 
Q 4294 2556 4294 1747 
Q 4294 938 3878 423 
Q 3463 -91 2816 -91 
Q 2450 -91 2169 54 
Q 1888 200 1656 506 
L 1656 0 
L 538 0 
L 538 4863 
L 1656 4863 
L 1656 2988 
z
" transform="scale(0.015625)"/>
     <path id="DejaVuSans-Bold-6a" d="M 538 3500 
L 1656 3500 
L 1656 63 
Q 1656 -641 1318 -1011 
Q 981 -1381 341 -1381 
L -213 -1381 
L -213 -647 
L -19 -647 
Q 300 -647 419 -503 
Q 538 -359 538 63 
L 538 3500 
z
M 538 4863 
L 1656 4863 
L 1656 3950 
L 538 3950 
L 538 4863 
z
" transform="scale(0.015625)"/>
     <path id="DejaVuSans-Bold-65" d="M 4031 1759 
L 4031 1441 
L 1416 1441 
Q 1456 1047 1700 850 
Q 1944 653 2381 653 
Q 2734 653 3104 758 
Q 3475 863 3866 1075 
L 3866 213 
Q 3469 63 3072 -14 
Q 2675 -91 2278 -91 
Q 1328 -91 801 392 
Q 275 875 275 1747 
Q 275 2603 792 3093 
Q 1309 3584 2216 3584 
Q 3041 3584 3536 3087 
Q 4031 2591 4031 1759 
z
M 2881 2131 
Q 2881 2450 2695 2645 
Q 2509 2841 2209 2841 
Q 1884 2841 1681 2658 
Q 1478 2475 1428 2131 
L 2881 2131 
z
" transform="scale(0.015625)"/>
     <path id="DejaVuSans-Bold-63" d="M 3366 3391 
L 3366 2478 
Q 3138 2634 2908 2709 
Q 2678 2784 2431 2784 
Q 1963 2784 1702 2511 
Q 1441 2238 1441 1747 
Q 1441 1256 1702 982 
Q 1963 709 2431 709 
Q 2694 709 2930 787 
Q 3166 866 3366 1019 
L 3366 103 
Q 3103 6 2833 -42 
Q 2563 -91 2291 -91 
Q 1344 -91 809 395 
Q 275 881 275 1747 
Q 275 2613 809 3098 
Q 1344 3584 2291 3584 
Q 2566 3584 2833 3536 
Q 3100 3488 3366 3391 
z
" transform="scale(0.015625)"/>
     <path id="DejaVuSans-Bold-74" d="M 1759 4494 
L 1759 3500 
L 2913 3500 
L 2913 2700 
L 1759 2700 
L 1759 1216 
Q 1759 972 1856 886 
Q 1953 800 2241 800 
L 2816 800 
L 2816 0 
L 1856 0 
Q 1194 0 917 276 
Q 641 553 641 1216 
L 641 2700 
L 84 2700 
L 84 3500 
L 641 3500 
L 641 4494 
L 1759 4494 
z
" transform="scale(0.015625)"/>
     <path id="DejaVuSans-Bold-69" d="M 538 3500 
L 1656 3500 
L 1656 0 
L 538 0 
L 538 3500 
z
M 538 4863 
L 1656 4863 
L 1656 3950 
L 538 3950 
L 538 4863 
z
" transform="scale(0.015625)"/>
     <path id="DejaVuSans-Bold-76" d="M 97 3500 
L 1216 3500 
L 2088 1081 
L 2956 3500 
L 4078 3500 
L 2700 0 
L 1472 0 
L 97 3500 
z
" transform="scale(0.015625)"/>
     <path id="DejaVuSans-Bold-73" d="M 3272 3391 
L 3272 2541 
Q 2913 2691 2578 2766 
Q 2244 2841 1947 2841 
Q 1628 2841 1473 2761 
Q 1319 2681 1319 2516 
Q 1319 2381 1436 2309 
Q 1553 2238 1856 2203 
L 2053 2175 
Q 2913 2066 3209 1816 
Q 3506 1566 3506 1031 
Q 3506 472 3093 190 
Q 2681 -91 1863 -91 
Q 1516 -91 1145 -36 
Q 775 19 384 128 
L 384 978 
Q 719 816 1070 734 
Q 1422 653 1784 653 
Q 2113 653 2278 743 
Q 2444 834 2444 1013 
Q 2444 1163 2330 1236 
Q 2216 1309 1875 1350 
L 1678 1375 
Q 931 1469 631 1722 
Q 331 1975 331 2491 
Q 331 3047 712 3315 
Q 1094 3584 1881 3584 
Q 2191 3584 2531 3537 
Q 2872 3491 3272 3391 
z
" transform="scale(0.015625)"/>
     <path id="DejaVuSans-Bold-3a" d="M 716 3500 
L 1844 3500 
L 1844 2291 
L 716 2291 
L 716 3500 
z
M 716 1209 
L 1844 1209 
L 1844 0 
L 716 0 
L 716 1209 
z
" transform="scale(0.015625)"/>
     <path id="DejaVuSans-Bold-20" transform="scale(0.015625)"/>
     <path id="DejaVuSans-Bold-41" d="M 3419 850 
L 1538 850 
L 1241 0 
L 31 0 
L 1759 4666 
L 3194 4666 
L 4922 0 
L 3713 0 
L 3419 850 
z
M 1838 1716 
L 3116 1716 
L 2478 3572 
L 1838 1716 
z
" transform="scale(0.015625)"/>
     <path id="DejaVuSans-Bold-72" d="M 3138 2547 
Q 2991 2616 2845 2648 
Q 2700 2681 2553 2681 
Q 2122 2681 1889 2404 
Q 1656 2128 1656 1613 
L 1656 0 
L 538 0 
L 538 3500 
L 1656 3500 
L 1656 2925 
Q 1872 3269 2151 3426 
Q 2431 3584 2822 3584 
Q 2878 3584 2943 3579 
Q 3009 3575 3134 3559 
L 3138 2547 
z
" transform="scale(0.015625)"/>
     <path id="DejaVuSans-Bold-6f" d="M 2203 2784 
Q 1831 2784 1636 2517 
Q 1441 2250 1441 1747 
Q 1441 1244 1636 976 
Q 1831 709 2203 709 
Q 2569 709 2762 976 
Q 2956 1244 2956 1747 
Q 2956 2250 2762 2517 
Q 2569 2784 2203 2784 
z
M 2203 3584 
Q 3106 3584 3614 3096 
Q 4122 2609 4122 1747 
Q 4122 884 3614 396 
Q 3106 -91 2203 -91 
Q 1297 -91 786 396 
Q 275 884 275 1747 
Q 275 2609 786 3096 
Q 1297 3584 2203 3584 
z
" transform="scale(0.015625)"/>
     <path id="DejaVuSans-Bold-2d" d="M 347 2297 
L 2309 2297 
L 2309 1388 
L 347 1388 
L 347 2297 
z
" transform="scale(0.015625)"/>
     <path id="DejaVuSans-Bold-31" d="M 750 831 
L 1813 831 
L 1813 3847 
L 722 3622 
L 722 4441 
L 1806 4666 
L 2950 4666 
L 2950 831 
L 4013 831 
L 4013 0 
L 750 0 
L 750 831 
z
" transform="scale(0.015625)"/>
     <path id="DejaVuSans-Bold-7c" d="M 1522 4891 
L 1522 -1509 
L 813 -1509 
L 813 4891 
L 1522 4891 
z
" transform="scale(0.015625)"/>
     <path id="DejaVuSans-Bold-43" d="M 4288 256 
Q 3956 84 3597 -3 
Q 3238 -91 2847 -91 
Q 1681 -91 1000 561 
Q 319 1213 319 2328 
Q 319 3447 1000 4098 
Q 1681 4750 2847 4750 
Q 3238 4750 3597 4662 
Q 3956 4575 4288 4403 
L 4288 3438 
Q 3953 3666 3628 3772 
Q 3303 3878 2944 3878 
Q 2300 3878 1931 3465 
Q 1563 3053 1563 2328 
Q 1563 1606 1931 1193 
Q 2300 781 2944 781 
Q 3303 781 3628 887 
Q 3953 994 4288 1222 
L 4288 256 
z
" transform="scale(0.015625)"/>
     <path id="DejaVuSans-Bold-4d" d="M 588 4666 
L 2119 4666 
L 3181 2169 
L 4250 4666 
L 5778 4666 
L 5778 0 
L 4641 0 
L 4641 3413 
L 3566 897 
L 2803 897 
L 1728 3413 
L 1728 0 
L 588 0 
L 588 4666 
z
" transform="scale(0.015625)"/>
     <path id="DejaVuSans-Bold-55" d="M 588 4666 
L 1791 4666 
L 1791 1869 
Q 1791 1291 1980 1042 
Q 2169 794 2597 794 
Q 3028 794 3217 1042 
Q 3406 1291 3406 1869 
L 3406 4666 
L 4609 4666 
L 4609 1869 
Q 4609 878 4112 393 
Q 3616 -91 2597 -91 
Q 1581 -91 1084 393 
Q 588 878 588 1869 
L 588 4666 
z
" transform="scale(0.015625)"/>
     <path id="DejaVuSans-Bold-4e" d="M 588 4666 
L 1931 4666 
L 3628 1466 
L 3628 4666 
L 4769 4666 
L 4769 0 
L 3425 0 
L 1728 3200 
L 1728 0 
L 588 0 
L 588 4666 
z
" transform="scale(0.015625)"/>
     <path id="DejaVuSans-Bold-28" d="M 2413 -844 
L 1484 -844 
Q 1006 -72 778 623 
Q 550 1319 550 2003 
Q 550 2688 779 3389 
Q 1009 4091 1484 4856 
L 2413 4856 
Q 2013 4116 1813 3408 
Q 1613 2700 1613 2009 
Q 1613 1319 1811 609 
Q 2009 -100 2413 -844 
z
" transform="scale(0.015625)"/>
     <path id="DejaVuSans-Bold-6c" d="M 538 4863 
L 1656 4863 
L 1656 0 
L 538 0 
L 538 4863 
z
" transform="scale(0.015625)"/>
     <path id="DejaVuSans-Bold-67" d="M 2919 594 
Q 2688 288 2409 144 
Q 2131 0 1766 0 
Q 1125 0 706 504 
Q 288 1009 288 1791 
Q 288 2575 706 3076 
Q 1125 3578 1766 3578 
Q 2131 3578 2409 3434 
Q 2688 3291 2919 2981 
L 2919 3500 
L 4044 3500 
L 4044 353 
Q 4044 -491 3511 -936 
Q 2978 -1381 1966 -1381 
Q 1638 -1381 1331 -1331 
Q 1025 -1281 716 -1178 
L 716 -306 
Q 1009 -475 1290 -558 
Q 1572 -641 1856 -641 
Q 2406 -641 2662 -400 
Q 2919 -159 2919 353 
L 2919 594 
z
M 2181 2772 
Q 1834 2772 1640 2515 
Q 1447 2259 1447 1791 
Q 1447 1309 1634 1061 
Q 1822 813 2181 813 
Q 2531 813 2725 1069 
Q 2919 1325 2919 1791 
Q 2919 2259 2725 2515 
Q 2531 2772 2181 2772 
z
" transform="scale(0.015625)"/>
     <path id="DejaVuSans-Bold-6e" d="M 4056 2131 
L 4056 0 
L 2931 0 
L 2931 347 
L 2931 1631 
Q 2931 2084 2911 2256 
Q 2891 2428 2841 2509 
Q 2775 2619 2662 2680 
Q 2550 2741 2406 2741 
Q 2056 2741 1856 2470 
Q 1656 2200 1656 1722 
L 1656 0 
L 538 0 
L 538 3500 
L 1656 3500 
L 1656 2988 
Q 1909 3294 2193 3439 
Q 2478 3584 2822 3584 
Q 3428 3584 3742 3212 
Q 4056 2841 4056 2131 
z
" transform="scale(0.015625)"/>
     <path id="DejaVuSans-Bold-6d" d="M 3781 2919 
Q 3994 3244 4286 3414 
Q 4578 3584 4928 3584 
Q 5531 3584 5847 3212 
Q 6163 2841 6163 2131 
L 6163 0 
L 5038 0 
L 5038 1825 
Q 5041 1866 5042 1909 
Q 5044 1953 5044 2034 
Q 5044 2406 4934 2573 
Q 4825 2741 4581 2741 
Q 4263 2741 4089 2478 
Q 3916 2216 3909 1719 
L 3909 0 
L 2784 0 
L 2784 1825 
Q 2784 2406 2684 2573 
Q 2584 2741 2328 2741 
Q 2006 2741 1831 2477 
Q 1656 2213 1656 1722 
L 1656 0 
L 531 0 
L 531 3500 
L 1656 3500 
L 1656 2988 
Q 1863 3284 2130 3434 
Q 2397 3584 2719 3584 
Q 3081 3584 3359 3409 
Q 3638 3234 3781 2919 
z
" transform="scale(0.015625)"/>
     <path id="DejaVuSans-Bold-2b" d="M 3053 4013 
L 3053 2375 
L 4684 2375 
L 4684 1638 
L 3053 1638 
L 3053 0 
L 2309 0 
L 2309 1638 
L 678 1638 
L 678 2375 
L 2309 2375 
L 2309 4013 
L 3053 4013 
z
" transform="scale(0.015625)"/>
     <path id="DejaVuSans-Bold-50" d="M 588 4666 
L 2584 4666 
Q 3475 4666 3951 4270 
Q 4428 3875 4428 3144 
Q 4428 2409 3951 2014 
Q 3475 1619 2584 1619 
L 1791 1619 
L 1791 0 
L 588 0 
L 588 4666 
z
M 1791 3794 
L 1791 2491 
L 2456 2491 
Q 2806 2491 2997 2661 
Q 3188 2831 3188 3144 
Q 3188 3456 2997 3625 
Q 2806 3794 2456 3794 
L 1791 3794 
z
" transform="scale(0.015625)"/>
     <path id="DejaVuSans-Bold-61" d="M 2106 1575 
Q 1756 1575 1579 1456 
Q 1403 1338 1403 1106 
Q 1403 894 1545 773 
Q 1688 653 1941 653 
Q 2256 653 2472 879 
Q 2688 1106 2688 1447 
L 2688 1575 
L 2106 1575 
z
M 3816 1997 
L 3816 0 
L 2688 0 
L 2688 519 
Q 2463 200 2181 54 
Q 1900 -91 1497 -91 
Q 953 -91 614 226 
Q 275 544 275 1050 
Q 275 1666 698 1953 
Q 1122 2241 2028 2241 
L 2688 2241 
L 2688 2328 
Q 2688 2594 2478 2717 
Q 2269 2841 1825 2841 
Q 1466 2841 1156 2769 
Q 847 2697 581 2553 
L 581 3406 
Q 941 3494 1303 3539 
Q 1666 3584 2028 3584 
Q 2975 3584 3395 3211 
Q 3816 2838 3816 1997 
z
" transform="scale(0.015625)"/>
     <path id="DejaVuSans-Bold-79" d="M 78 3500 
L 1197 3500 
L 2138 1125 
L 2938 3500 
L 4056 3500 
L 2584 -331 
Q 2363 -916 2067 -1148 
Q 1772 -1381 1288 -1381 
L 641 -1381 
L 641 -647 
L 991 -647 
Q 1275 -647 1404 -556 
Q 1534 -466 1606 -231 
L 1638 -134 
L 78 3500 
z
" transform="scale(0.015625)"/>
     <path id="DejaVuSans-Bold-29" d="M 513 -844 
Q 913 -100 1113 609 
Q 1313 1319 1313 2009 
Q 1313 2700 1113 3408 
Q 913 4116 513 4856 
L 1441 4856 
Q 1916 4091 2145 3389 
Q 2375 2688 2375 2003 
Q 2375 1319 2147 623 
Q 1919 -72 1441 -844 
L 513 -844 
z
" transform="scale(0.015625)"/>
    </defs>
    <use xlink:href="#DejaVuSans-Bold-4f"/>
    <use xlink:href="#DejaVuSans-Bold-62" transform="translate(85.009766 0)"/>
    <use xlink:href="#DejaVuSans-Bold-6a" transform="translate(156.591797 0)"/>
    <use xlink:href="#DejaVuSans-Bold-65" transform="translate(190.869141 0)"/>
    <use xlink:href="#DejaVuSans-Bold-63" transform="translate(258.691406 0)"/>
    <use xlink:href="#DejaVuSans-Bold-74" transform="translate(317.96875 0)"/>
    <use xlink:href="#DejaVuSans-Bold-69" transform="translate(365.771484 0)"/>
    <use xlink:href="#DejaVuSans-Bold-76" transform="translate(400.048828 0)"/>
    <use xlink:href="#DejaVuSans-Bold-65" transform="translate(465.234375 0)"/>
    <use xlink:href="#DejaVuSans-Bold-73" transform="translate(533.056641 0)"/>
    <use xlink:href="#DejaVuSans-Bold-3a" transform="translate(592.578125 0)"/>
    <use xlink:href="#DejaVuSans-Bold-20" transform="translate(632.568359 0)"/>
    <use xlink:href="#DejaVuSans-Bold-41" transform="translate(667.382812 0)"/>
    <use xlink:href="#DejaVuSans-Bold-63" transform="translate(744.775391 0)"/>
    <use xlink:href="#DejaVuSans-Bold-72" transform="translate(804.052734 0)"/>
    <use xlink:href="#DejaVuSans-Bold-6f" transform="translate(853.369141 0)"/>
    <use xlink:href="#DejaVuSans-Bold-62" transform="translate(922.070312 0)"/>
    <use xlink:href="#DejaVuSans-Bold-6f" transform="translate(993.652344 0)"/>
    <use xlink:href="#DejaVuSans-Bold-74" transform="translate(1062.353516 0)"/>
    <use xlink:href="#DejaVuSans-Bold-2d" transform="translate(1110.15625 0)"/>
    <use xlink:href="#DejaVuSans-Bold-76" transform="translate(1151.660156 0)"/>
    <use xlink:href="#DejaVuSans-Bold-31" transform="translate(1216.845703 0)"/>
    <use xlink:href="#DejaVuSans-Bold-20" transform="translate(1286.425781 0)"/>
    <use xlink:href="#DejaVuSans-Bold-7c" transform="translate(1321.240234 0)"/>
    <use xlink:href="#DejaVuSans-Bold-20" transform="translate(1357.763672 0)"/>
    <use xlink:href="#DejaVuSans-Bold-43" transform="translate(1392.578125 0)"/>
    <use xlink:href="#DejaVuSans-Bold-4d" transform="translate(1465.966797 0)"/>
    <use xlink:href="#DejaVuSans-Bold-55" transform="translate(1565.478516 0)"/>
    <use xlink:href="#DejaVuSans-Bold-2d" transform="translate(1646.679688 0)"/>
    <use xlink:href="#DejaVuSans-Bold-4e" transform="translate(1688.183594 0)"/>
    <use xlink:href="#DejaVuSans-Bold-65" transform="translate(1771.875 0)"/>
    <use xlink:href="#DejaVuSans-Bold-74" transform="translate(1839.697266 0)"/>
    <use xlink:href="#DejaVuSans-Bold-20" transform="translate(1887.5 0)"/>
    <use xlink:href="#DejaVuSans-Bold-28" transform="translate(1922.314453 0)"/>
    <use xlink:href="#DejaVuSans-Bold-41" transform="translate(1968.017578 0)"/>
    <use xlink:href="#DejaVuSans-Bold-6c" transform="translate(2045.410156 0)"/>
    <use xlink:href="#DejaVuSans-Bold-69" transform="translate(2079.6875 0)"/>
    <use xlink:href="#DejaVuSans-Bold-67" transform="translate(2113.964844 0)"/>
    <use xlink:href="#DejaVuSans-Bold-6e" transform="translate(2185.546875 0)"/>
    <use xlink:href="#DejaVuSans-Bold-6d" transform="translate(2256.738281 0)"/>
    <use xlink:href="#DejaVuSans-Bold-65" transform="translate(2360.9375 0)"/>
    <use xlink:href="#DejaVuSans-Bold-6e" transform="translate(2428.759766 0)"/>
    <use xlink:href="#DejaVuSans-Bold-74" transform="translate(2499.951172 0)"/>
    <use xlink:href="#DejaVuSans-Bold-20" transform="translate(2547.753906 0)"/>
    <use xlink:href="#DejaVuSans-Bold-2b" transform="translate(2582.568359 0)"/>
    <use xlink:href="#DejaVuSans-Bold-20" transform="translate(2666.357422 0)"/>
    <use xlink:href="#DejaVuSans-Bold-50" transform="translate(2701.171875 0)"/>
    <use xlink:href="#DejaVuSans-Bold-65" transform="translate(2774.462891 0)"/>
    <use xlink:href="#DejaVuSans-Bold-6e" transform="translate(2842.285156 0)"/>
    <use xlink:href="#DejaVuSans-Bold-61" transform="translate(2913.476562 0)"/>
    <use xlink:href="#DejaVuSans-Bold-6c" transform="translate(2980.957031 0)"/>
    <use xlink:href="#DejaVuSans-Bold-74" transform="translate(3015.234375 0)"/>
    <use xlink:href="#DejaVuSans-Bold-79" transform="translate(3063.037109 0)"/>
    <use xlink:href="#DejaVuSans-Bold-29" transform="translate(3128.222656 0)"/>
   </g>
  </g>
  <g id="legend_1">
   <g id="line2d_25">
    <path d="M 117.150892 32.510998 
L 125.480892 32.510998 
L 133.810892 32.510998 
" style="fill: none; stroke: #00b899; stroke-width: 1.5; stroke-linecap: round"/>
   </g>
   <g id="text_11">
    <!-- Alignment Loss (smoothed) -->
    <g style="fill: #262626" transform="translate(140.474892 35.426498) scale(0.0833 -0.0833)">
     <defs>
      <path id="DejaVuSans-67" d="M 2906 1791 
Q 2906 2416 2648 2759 
Q 2391 3103 1925 3103 
Q 1463 3103 1205 2759 
Q 947 2416 947 1791 
Q 947 1169 1205 825 
Q 1463 481 1925 481 
Q 2391 481 2648 825 
Q 2906 1169 2906 1791 
z
M 3481 434 
Q 3481 -459 3084 -895 
Q 2688 -1331 1869 -1331 
Q 1566 -1331 1297 -1286 
Q 1028 -1241 775 -1147 
L 775 -588 
Q 1028 -725 1275 -790 
Q 1522 -856 1778 -856 
Q 2344 -856 2625 -561 
Q 2906 -266 2906 331 
L 2906 616 
Q 2728 306 2450 153 
Q 2172 0 1784 0 
Q 1141 0 747 490 
Q 353 981 353 1791 
Q 353 2603 747 3093 
Q 1141 3584 1784 3584 
Q 2172 3584 2450 3431 
Q 2728 3278 2906 2969 
L 2906 3500 
L 3481 3500 
L 3481 434 
z
" transform="scale(0.015625)"/>
      <path id="DejaVuSans-6e" d="M 3513 2113 
L 3513 0 
L 2938 0 
L 2938 2094 
Q 2938 2591 2744 2837 
Q 2550 3084 2163 3084 
Q 1697 3084 1428 2787 
Q 1159 2491 1159 1978 
L 1159 0 
L 581 0 
L 581 3500 
L 1159 3500 
L 1159 2956 
Q 1366 3272 1645 3428 
Q 1925 3584 2291 3584 
Q 2894 3584 3203 3211 
Q 3513 2838 3513 2113 
z
" transform="scale(0.015625)"/>
      <path id="DejaVuSans-4c" d="M 628 4666 
L 1259 4666 
L 1259 531 
L 3531 531 
L 3531 0 
L 628 0 
L 628 4666 
z
" transform="scale(0.015625)"/>
      <path id="DejaVuSans-28" d="M 1984 4856 
Q 1566 4138 1362 3434 
Q 1159 2731 1159 2009 
Q 1159 1288 1364 580 
Q 1569 -128 1984 -844 
L 1484 -844 
Q 1016 -109 783 600 
Q 550 1309 550 2009 
Q 550 2706 781 3412 
Q 1013 4119 1484 4856 
L 1984 4856 
z
" transform="scale(0.015625)"/>
      <path id="DejaVuSans-68" d="M 3513 2113 
L 3513 0 
L 2938 0 
L 2938 2094 
Q 2938 2591 2744 2837 
Q 2550 3084 2163 3084 
Q 1697 3084 1428 2787 
Q 1159 2491 1159 1978 
L 1159 0 
L 581 0 
L 581 4863 
L 1159 4863 
L 1159 2956 
Q 1366 3272 1645 3428 
Q 1925 3584 2291 3584 
Q 2894 3584 3203 3211 
Q 3513 2838 3513 2113 
z
" transform="scale(0.015625)"/>
      <path id="DejaVuSans-29" d="M 513 4856 
L 1013 4856 
Q 1481 4119 1714 3412 
Q 1947 2706 1947 2009 
Q 1947 1309 1714 600 
Q 1481 -109 1013 -844 
L 513 -844 
Q 928 -128 1133 580 
Q 1338 1288 1338 2009 
Q 1338 2731 1133 3434 
Q 928 4138 513 4856 
z
" transform="scale(0.015625)"/>
     </defs>
     <use xlink:href="#DejaVuSans-41"/>
     <use xlink:href="#DejaVuSans-6c" transform="translate(68.408203 0)"/>
     <use xlink:href="#DejaVuSans-69" transform="translate(96.191406 0)"/>
     <use xlink:href="#DejaVuSans-67" transform="translate(123.974609 0)"/>
     <use xlink:href="#DejaVuSans-6e" transform="translate(187.451172 0)"/>
     <use xlink:href="#DejaVuSans-6d" transform="translate(250.830078 0)"/>
     <use xlink:href="#DejaVuSans-65" transform="translate(348.242188 0)"/>
     <use xlink:href="#DejaVuSans-6e" transform="translate(409.765625 0)"/>
     <use xlink:href="#DejaVuSans-74" transform="translate(473.144531 0)"/>
     <use xlink:href="#DejaVuSans-20" transform="translate(512.353516 0)"/>
     <use xlink:href="#DejaVuSans-4c" transform="translate(544.140625 0)"/>
     <use xlink:href="#DejaVuSans-6f" transform="translate(598.103516 0)"/>
     <use xlink:href="#DejaVuSans-73" transform="translate(659.285156 0)"/>
     <use xlink:href="#DejaVuSans-73" transform="translate(711.384766 0)"/>
     <use xlink:href="#DejaVuSans-20" transform="translate(763.484375 0)"/>
     <use xlink:href="#DejaVuSans-28" transform="translate(795.271484 0)"/>
     <use xlink:href="#DejaVuSans-73" transform="translate(834.285156 0)"/>
     <use xlink:href="#DejaVuSans-6d" transform="translate(886.384766 0)"/>
     <use xlink:href="#DejaVuSans-6f" transform="translate(983.796875 0)"/>
     <use xlink:href="#DejaVuSans-6f" transform="translate(1044.978516 0)"/>
     <use xlink:href="#DejaVuSans-74" transform="translate(1106.160156 0)"/>
     <use xlink:href="#DejaVuSans-68" transform="translate(1145.369141 0)"/>
     <use xlink:href="#DejaVuSans-65" transform="translate(1208.748047 0)"/>
     <use xlink:href="#DejaVuSans-64" transform="translate(1270.271484 0)"/>
     <use xlink:href="#DejaVuSans-29" transform="translate(1333.748047 0)"/>
    </g>
   </g>
   <g id="line2d_26">
    <path d="M 271.484967 32.510998 
L 279.814967 32.510998 
L 288.144967 32.510998 
" style="fill: none; stroke: #2ca02c; stroke-width: 1.5; stroke-linecap: round"/>
   </g>
   <g id="text_12">
    <!-- Penalty Loss (smoothed) -->
    <g style="fill: #262626" transform="translate(294.808967 35.426498) scale(0.0833 -0.0833)">
     <defs>
      <path id="DejaVuSans-50" d="M 1259 4147 
L 1259 2394 
L 2053 2394 
Q 2494 2394 2734 2622 
Q 2975 2850 2975 3272 
Q 2975 3691 2734 3919 
Q 2494 4147 2053 4147 
L 1259 4147 
z
M 628 4666 
L 2053 4666 
Q 2838 4666 3239 4311 
Q 3641 3956 3641 3272 
Q 3641 2581 3239 2228 
Q 2838 1875 2053 1875 
L 1259 1875 
L 1259 0 
L 628 0 
L 628 4666 
z
" transform="scale(0.015625)"/>
      <path id="DejaVuSans-79" d="M 2059 -325 
Q 1816 -950 1584 -1140 
Q 1353 -1331 966 -1331 
L 506 -1331 
L 506 -850 
L 844 -850 
Q 1081 -850 1212 -737 
Q 1344 -625 1503 -206 
L 1606 56 
L 191 3500 
L 800 3500 
L 1894 763 
L 2988 3500 
L 3597 3500 
L 2059 -325 
z
" transform="scale(0.015625)"/>
     </defs>
     <use xlink:href="#DejaVuSans-50"/>
     <use xlink:href="#DejaVuSans-65" transform="translate(56.677734 0)"/>
     <use xlink:href="#DejaVuSans-6e" transform="translate(118.201172 0)"/>
     <use xlink:href="#DejaVuSans-61" transform="translate(181.580078 0)"/>
     <use xlink:href="#DejaVuSans-6c" transform="translate(242.859375 0)"/>
     <use xlink:href="#DejaVuSans-74" transform="translate(270.642578 0)"/>
     <use xlink:href="#DejaVuSans-79" transform="translate(309.851562 0)"/>
     <use xlink:href="#DejaVuSans-20" transform="translate(369.03125 0)"/>
     <use xlink:href="#DejaVuSans-4c" transform="translate(400.818359 0)"/>
     <use xlink:href="#DejaVuSans-6f" transform="translate(454.78125 0)"/>
     <use xlink:href="#DejaVuSans-73" transform="translate(515.962891 0)"/>
     <use xlink:href="#DejaVuSans-73" transform="translate(568.0625 0)"/>
     <use xlink:href="#DejaVuSans-20" transform="translate(620.162109 0)"/>
     <use xlink:href="#DejaVuSans-28" transform="translate(651.949219 0)"/>
     <use xlink:href="#DejaVuSans-73" transform="translate(690.962891 0)"/>
     <use xlink:href="#DejaVuSans-6d" transform="translate(743.0625 0)"/>
     <use xlink:href="#DejaVuSans-6f" transform="translate(840.474609 0)"/>
     <use xlink:href="#DejaVuSans-6f" transform="translate(901.65625 0)"/>
     <use xlink:href="#DejaVuSans-74" transform="translate(962.837891 0)"/>
     <use xlink:href="#DejaVuSans-68" transform="translate(1002.046875 0)"/>
     <use xlink:href="#DejaVuSans-65" transform="translate(1065.425781 0)"/>
     <use xlink:href="#DejaVuSans-64" transform="translate(1126.949219 0)"/>
     <use xlink:href="#DejaVuSans-29" transform="translate(1190.425781 0)"/>
    </g>
   </g>
   <g id="line2d_27">
    <path d="M 413.881111 32.510998 
L 422.211111 32.510998 
L 430.541111 32.510998 
" style="fill: none; stroke: #d62728; stroke-width: 1.5; stroke-linecap: round"/>
   </g>
   <g id="text_13">
    <!-- Margin Loss (smoothed) -->
    <g style="fill: #262626" transform="translate(437.205111 35.426498) scale(0.0833 -0.0833)">
     <defs>
      <path id="DejaVuSans-4d" d="M 628 4666 
L 1569 4666 
L 2759 1491 
L 3956 4666 
L 4897 4666 
L 4897 0 
L 4281 0 
L 4281 4097 
L 3078 897 
L 2444 897 
L 1241 4097 
L 1241 0 
L 628 0 
L 628 4666 
z
" transform="scale(0.015625)"/>
     </defs>
     <use xlink:href="#DejaVuSans-4d"/>
     <use xlink:href="#DejaVuSans-61" transform="translate(86.279297 0)"/>
     <use xlink:href="#DejaVuSans-72" transform="translate(147.558594 0)"/>
     <use xlink:href="#DejaVuSans-67" transform="translate(186.921875 0)"/>
     <use xlink:href="#DejaVuSans-69" transform="translate(250.398438 0)"/>
     <use xlink:href="#DejaVuSans-6e" transform="translate(278.181641 0)"/>
     <use xlink:href="#DejaVuSans-20" transform="translate(341.560547 0)"/>
     <use xlink:href="#DejaVuSans-4c" transform="translate(373.347656 0)"/>
     <use xlink:href="#DejaVuSans-6f" transform="translate(427.310547 0)"/>
     <use xlink:href="#DejaVuSans-73" transform="translate(488.492188 0)"/>
     <use xlink:href="#DejaVuSans-73" transform="translate(540.591797 0)"/>
     <use xlink:href="#DejaVuSans-20" transform="translate(592.691406 0)"/>
     <use xlink:href="#DejaVuSans-28" transform="translate(624.478516 0)"/>
     <use xlink:href="#DejaVuSans-73" transform="translate(663.492188 0)"/>
     <use xlink:href="#DejaVuSans-6d" transform="translate(715.591797 0)"/>
     <use xlink:href="#DejaVuSans-6f" transform="translate(813.003906 0)"/>
     <use xlink:href="#DejaVuSans-6f" transform="translate(874.185547 0)"/>
     <use xlink:href="#DejaVuSans-74" transform="translate(935.367188 0)"/>
     <use xlink:href="#DejaVuSans-68" transform="translate(974.576172 0)"/>
     <use xlink:href="#DejaVuSans-65" transform="translate(1037.955078 0)"/>
     <use xlink:href="#DejaVuSans-64" transform="translate(1099.478516 0)"/>
     <use xlink:href="#DejaVuSans-29" transform="translate(1162.955078 0)"/>
    </g>
   </g>
  </g>
  <g id="legend_2">
   <g id="line2d_28">
    <path d="M 121.262768 49.790998 
L 129.592768 49.790998 
L 137.922768 49.790998 
" style="fill: none; stroke: #1f77b4; stroke-width: 0.7; stroke-linecap: round"/>
   </g>
   <g id="text_14">
    <!-- PPO Loss (centered x5) -->
    <g style="fill: #262626" transform="translate(144.586768 52.706498) scale(0.0833 -0.0833)">
     <defs>
      <path id="DejaVuSans-4f" d="M 2522 4238 
Q 1834 4238 1429 3725 
Q 1025 3213 1025 2328 
Q 1025 1447 1429 934 
Q 1834 422 2522 422 
Q 3209 422 3611 934 
Q 4013 1447 4013 2328 
Q 4013 3213 3611 3725 
Q 3209 4238 2522 4238 
z
M 2522 4750 
Q 3503 4750 4090 4092 
Q 4678 3434 4678 2328 
Q 4678 1225 4090 567 
Q 3503 -91 2522 -91 
Q 1538 -91 948 565 
Q 359 1222 359 2328 
Q 359 3434 948 4092 
Q 1538 4750 2522 4750 
z
" transform="scale(0.015625)"/>
      <path id="DejaVuSans-63" d="M 3122 3366 
L 3122 2828 
Q 2878 2963 2633 3030 
Q 2388 3097 2138 3097 
Q 1578 3097 1268 2742 
Q 959 2388 959 1747 
Q 959 1106 1268 751 
Q 1578 397 2138 397 
Q 2388 397 2633 464 
Q 2878 531 3122 666 
L 3122 134 
Q 2881 22 2623 -34 
Q 2366 -91 2075 -91 
Q 1284 -91 818 406 
Q 353 903 353 1747 
Q 353 2603 823 3093 
Q 1294 3584 2113 3584 
Q 2378 3584 2631 3529 
Q 2884 3475 3122 3366 
z
" transform="scale(0.015625)"/>
     </defs>
     <use xlink:href="#DejaVuSans-50"/>
     <use xlink:href="#DejaVuSans-50" transform="translate(60.302734 0)"/>
     <use xlink:href="#DejaVuSans-4f" transform="translate(120.605469 0)"/>
     <use xlink:href="#DejaVuSans-20" transform="translate(199.316406 0)"/>
     <use xlink:href="#DejaVuSans-4c" transform="translate(231.103516 0)"/>
     <use xlink:href="#DejaVuSans-6f" transform="translate(285.066406 0)"/>
     <use xlink:href="#DejaVuSans-73" transform="translate(346.248047 0)"/>
     <use xlink:href="#DejaVuSans-73" transform="translate(398.347656 0)"/>
     <use xlink:href="#DejaVuSans-20" transform="translate(450.447266 0)"/>
     <use xlink:href="#DejaVuSans-28" transform="translate(482.234375 0)"/>
     <use xlink:href="#DejaVuSans-63" transform="translate(521.248047 0)"/>
     <use xlink:href="#DejaVuSans-65" transform="translate(576.228516 0)"/>
     <use xlink:href="#DejaVuSans-6e" transform="translate(637.751953 0)"/>
     <use xlink:href="#DejaVuSans-74" transform="translate(701.130859 0)"/>
     <use xlink:href="#DejaVuSans-65" transform="translate(740.339844 0)"/>
     <use xlink:href="#DejaVuSans-72" transform="translate(801.863281 0)"/>
     <use xlink:href="#DejaVuSans-65" transform="translate(840.726562 0)"/>
     <use xlink:href="#DejaVuSans-64" transform="translate(902.25 0)"/>
     <use xlink:href="#DejaVuSans-20" transform="translate(965.726562 0)"/>
     <use xlink:href="#DejaVuSans-78" transform="translate(997.513672 0)"/>
     <use xlink:href="#DejaVuSans-35" transform="translate(1056.693359 0)"/>
     <use xlink:href="#DejaVuSans-29" transform="translate(1120.316406 0)"/>
    </g>
   </g>
   <g id="line2d_29">
    <path d="M 257.820102 49.790998 
L 266.150102 49.790998 
L 274.480102 49.790998 
" style="fill: none; stroke: #ff7f0e; stroke-width: 0.7; stroke-linecap: round"/>
   </g>
   <g id="text_15">
    <!-- Mixed Loss (centered x5) -->
    <g style="fill: #262626" transform="translate(281.144102 52.706498) scale(0.0833 -0.0833)">
     <use xlink:href="#DejaVuSans-4d"/>
     <use xlink:href="#DejaVuSans-69" transform="translate(86.279297 0)"/>
     <use xlink:href="#DejaVuSans-78" transform="translate(114.0625 0)"/>
     <use xlink:href="#DejaVuSans-65" transform="translate(170.117188 0)"/>
     <use xlink:href="#DejaVuSans-64" transform="translate(231.640625 0)"/>
     <use xlink:href="#DejaVuSans-20" transform="translate(295.117188 0)"/>
     <use xlink:href="#DejaVuSans-4c" transform="translate(326.904297 0)"/>
     <use xlink:href="#DejaVuSans-6f" transform="translate(380.867188 0)"/>
     <use xlink:href="#DejaVuSans-73" transform="translate(442.048828 0)"/>
     <use xlink:href="#DejaVuSans-73" transform="translate(494.148438 0)"/>
     <use xlink:href="#DejaVuSans-20" transform="translate(546.248047 0)"/>
     <use xlink:href="#DejaVuSans-28" transform="translate(578.035156 0)"/>
     <use xlink:href="#DejaVuSans-63" transform="translate(617.048828 0)"/>
     <use xlink:href="#DejaVuSans-65" transform="translate(672.029297 0)"/>
     <use xlink:href="#DejaVuSans-6e" transform="translate(733.552734 0)"/>
     <use xlink:href="#DejaVuSans-74" transform="translate(796.931641 0)"/>
     <use xlink:href="#DejaVuSans-65" transform="translate(836.140625 0)"/>
     <use xlink:href="#DejaVuSans-72" transform="translate(897.664062 0)"/>
     <use xlink:href="#DejaVuSans-65" transform="translate(936.527344 0)"/>
     <use xlink:href="#DejaVuSans-64" transform="translate(998.050781 0)"/>
     <use xlink:href="#DejaVuSans-20" transform="translate(1061.527344 0)"/>
     <use xlink:href="#DejaVuSans-78" transform="translate(1093.314453 0)"/>
     <use xlink:href="#DejaVuSans-35" transform="translate(1152.494141 0)"/>
     <use xlink:href="#DejaVuSans-29" transform="translate(1216.117188 0)"/>
    </g>
   </g>
   <g id="line2d_30">
    <path d="M 402.35992 49.790998 
L 410.68992 49.790998 
L 419.01992 49.790998 
" style="fill: none; stroke: #000000; stroke-width: 1.5; stroke-linecap: round"/>
   </g>
   <g id="text_16">
    <!-- reward -->
    <g style="fill: #262626" transform="translate(425.68392 52.706498) scale(0.0833 -0.0833)">
     <defs>
      <path id="DejaVuSans-77" d="M 269 3500 
L 844 3500 
L 1563 769 
L 2278 3500 
L 2956 3500 
L 3675 769 
L 4391 3500 
L 4966 3500 
L 4050 0 
L 3372 0 
L 2619 2869 
L 1863 0 
L 1184 0 
L 269 3500 
z
" transform="scale(0.015625)"/>
     </defs>
     <use xlink:href="#DejaVuSans-72"/>
     <use xlink:href="#DejaVuSans-65" transform="translate(38.863281 0)"/>
     <use xlink:href="#DejaVuSans-77" transform="translate(100.386719 0)"/>
     <use xlink:href="#DejaVuSans-61" transform="translate(182.173828 0)"/>
     <use xlink:href="#DejaVuSans-72" transform="translate(243.453125 0)"/>
     <use xlink:href="#DejaVuSans-64" transform="translate(282.816406 0)"/>
    </g>
   </g>
   <g id="line2d_31">
    <path d="M 471.190449 49.790998 
L 479.520449 49.790998 
L 487.850449 49.790998 
" style="fill: none; stroke: #7b3ab8; stroke-width: 1.5; stroke-linecap: round"/>
   </g>
   <g id="text_17">
    <!-- entropy -->
    <g style="fill: #262626" transform="translate(494.514449 52.706498) scale(0.0833 -0.0833)">
     <use xlink:href="#DejaVuSans-65"/>
     <use xlink:href="#DejaVuSans-6e" transform="translate(61.523438 0)"/>
     <use xlink:href="#DejaVuSans-74" transform="translate(124.902344 0)"/>
     <use xlink:href="#DejaVuSans-72" transform="translate(164.111328 0)"/>
     <use xlink:href="#DejaVuSans-6f" transform="translate(202.974609 0)"/>
     <use xlink:href="#DejaVuSans-70" transform="translate(264.15625 0)"/>
     <use xlink:href="#DejaVuSans-79" transform="translate(327.632812 0)"/>
    </g>
   </g>
  </g>
 </g>
 <defs>
  <clipPath id="p0f8f99bbdc">
   <rect x="31.88" y="60.48" width="598.14765" height="329.56"/>
  </clipPath>
 </defs>
</svg>
