<?xml version="1.0" encoding="utf-8" standalone="no"?>
<!DOCTYPE svg PUBLIC "-//W3C//DTD SVG 1.1//EN"
  "http://www.w3.org/Graphics/SVG/1.1/DTD/svg11.dtd">
<svg xmlns:xlink="http://www.w3.org/1999/xlink" width="648pt" height="504pt" viewBox="0 0 648 504" xmlns="http://www.w3.org/2000/svg" version="1.1">
 <metadata>
  <rdf:RDF xmlns:dc="http://purl.org/dc/elements/1.1/" xmlns:cc="http://creativecommons.org/ns#" xmlns:rdf="http://www.w3.org/1999/02/22-rdf-syntax-ns#">
   <cc:Work>
    <dc:type rdf:resource="http://purl.org/dc/dcmitype/StillImage"/>
    <dc:date>2025-07-31T05:18:33.773254</dc:date>
    <dc:format>image/svg+xml</dc:format>
    <dc:creator>
     <cc:Agent>
      <dc:title>Matplotlib v3.10.0, https://matplotlib.org/</dc:title>
     </cc:Agent>
    </dc:creator>
   </cc:Work>
  </rdf:RDF>
 </metadata>
 <defs>
  <style type="text/css">*{stroke-linejoin: round; stroke-linecap: butt}</style>
 </defs>
 <g id="figure_1">
  <g id="patch_1">
   <path d="M 0 504 
L 648 504 
L 648 0 
L 0 0 
z
" style="fill: #ffffff"/>
  </g>
  <g id="axes_1">
   <g id="patch_2">
    <path d="M 36.2 472.52 
L 623.801429 472.52 
L 623.801429 39.6 
L 36.2 39.6 
z
" style="fill: #eaeaf2"/>
   </g>
   <g id="matplotlib.axis_1">
    <g id="xtick_1">
     <g id="line2d_1">
      <path d="M 47.420906 472.52 
L 47.420906 39.6 
" clip-path="url(#p87a2d72e2e)" style="fill: none; stroke: #ffffff; stroke-width: 0.8; stroke-linecap: round"/>
     </g>
     <g id="text_1">
      <!-- 0 -->
      <g style="fill: #262626" transform="translate(42.967156 490.157813) scale(0.14 -0.14)">
       <defs>
        <path id="DejaVuSans-30" d="M 2034 4250 
Q 1547 4250 1301 3770 
Q 1056 3291 1056 2328 
Q 1056 1369 1301 889 
Q 1547 409 2034 409 
Q 2525 409 2770 889 
Q 3016 1369 3016 2328 
Q 3016 3291 2770 3770 
Q 2525 4250 2034 4250 
z
M 2034 4750 
Q 2819 4750 3233 4129 
Q 3647 3509 3647 2328 
Q 3647 1150 3233 529 
Q 2819 -91 2034 -91 
Q 1250 -91 836 529 
Q 422 1150 422 2328 
Q 422 3509 836 4129 
Q 1250 4750 2034 4750 
z
" transform="scale(0.015625)"/>
       </defs>
       <use xlink:href="#DejaVuSans-30"/>
      </g>
     </g>
    </g>
    <g id="xtick_2">
     <g id="line2d_2">
      <path d="M 608.466191 472.52 
L 608.466191 39.6 
" clip-path="url(#p87a2d72e2e)" style="fill: none; stroke: #ffffff; stroke-width: 0.8; stroke-linecap: round"/>
     </g>
     <g id="text_2">
      <!-- 600000 -->
      <g style="fill: #262626" transform="translate(581.743691 490.157813) scale(0.14 -0.14)">
       <defs>
        <path id="DejaVuSans-36" d="M 2113 2584 
Q 1688 2584 1439 2293 
Q 1191 2003 1191 1497 
Q 1191 994 1439 701 
Q 1688 409 2113 409 
Q 2538 409 2786 701 
Q 3034 994 3034 1497 
Q 3034 2003 2786 2293 
Q 2538 2584 2113 2584 
z
M 3366 4563 
L 3366 3988 
Q 3128 4100 2886 4159 
Q 2644 4219 2406 4219 
Q 1781 4219 1451 3797 
Q 1122 3375 1075 2522 
Q 1259 2794 1537 2939 
Q 1816 3084 2150 3084 
Q 2853 3084 3261 2657 
Q 3669 2231 3669 1497 
Q 3669 778 3244 343 
Q 2819 -91 2113 -91 
Q 1303 -91 875 529 
Q 447 1150 447 2328 
Q 447 3434 972 4092 
Q 1497 4750 2381 4750 
Q 2619 4750 2861 4703 
Q 3103 4656 3366 4563 
z
" transform="scale(0.015625)"/>
       </defs>
       <use xlink:href="#DejaVuSans-36"/>
       <use xlink:href="#DejaVuSans-30" transform="translate(63.623047 0)"/>
       <use xlink:href="#DejaVuSans-30" transform="translate(127.246094 0)"/>
       <use xlink:href="#DejaVuSans-30" transform="translate(190.869141 0)"/>
       <use xlink:href="#DejaVuSans-30" transform="translate(254.492188 0)"/>
       <use xlink:href="#DejaVuSans-30" transform="translate(318.115234 0)"/>
      </g>
     </g>
    </g>
   </g>
   <g id="matplotlib.axis_2">
    <g id="ytick_1">
     <g id="line2d_3">
      <path d="M 36.2 464.789286 
L 623.801429 464.789286 
" clip-path="url(#p87a2d72e2e)" style="fill: none; stroke: #ffffff; stroke-width: 0.8; stroke-linecap: round"/>
     </g>
    </g>
    <g id="ytick_2">
     <g id="line2d_4">
      <path d="M 36.2 416.472321 
L 623.801429 416.472321 
" clip-path="url(#p87a2d72e2e)" style="fill: none; stroke: #ffffff; stroke-width: 0.8; stroke-linecap: round"/>
     </g>
    </g>
    <g id="ytick_3">
     <g id="line2d_5">
      <path d="M 36.2 368.155357 
L 623.801429 368.155357 
" clip-path="url(#p87a2d72e2e)" style="fill: none; stroke: #ffffff; stroke-width: 0.8; stroke-linecap: round"/>
     </g>
    </g>
    <g id="ytick_4">
     <g id="line2d_6">
      <path d="M 36.2 319.838393 
L 623.801429 319.838393 
" clip-path="url(#p87a2d72e2e)" style="fill: none; stroke: #ffffff; stroke-width: 0.8; stroke-linecap: round"/>
     </g>
    </g>
    <g id="ytick_5">
     <g id="line2d_7">
      <path d="M 36.2 271.521429 
L 623.801429 271.521429 
" clip-path="url(#p87a2d72e2e)" style="fill: none; stroke: #ffffff; stroke-width: 0.8; stroke-linecap: round"/>
     </g>
    </g>
    <g id="ytick_6">
     <g id="line2d_8">
      <path d="M 36.2 223.204464 
L 623.801429 223.204464 
" clip-path="url(#p87a2d72e2e)" style="fill: none; stroke: #ffffff; stroke-width: 0.8; stroke-linecap: round"/>
     </g>
    </g>
    <g id="ytick_7">
     <g id="line2d_9">
      <path d="M 36.2 174.8875 
L 623.801429 174.8875 
" clip-path="url(#p87a2d72e2e)" style="fill: none; stroke: #ffffff; stroke-width: 0.8; stroke-linecap: round"/>
     </g>
    </g>
    <g id="ytick_8">
     <g id="line2d_10">
      <path d="M 36.2 126.570536 
L 623.801429 126.570536 
" clip-path="url(#p87a2d72e2e)" style="fill: none; stroke: #ffffff; stroke-width: 0.8; stroke-linecap: round"/>
     </g>
    </g>
    <g id="ytick_9">
     <g id="line2d_11">
      <path d="M 36.2 78.253571 
L 623.801429 78.253571 
" clip-path="url(#p87a2d72e2e)" style="fill: none; stroke: #ffffff; stroke-width: 0.8; stroke-linecap: round"/>
     </g>
    </g>
    <g id="text_3">
     <!-- Normalized Axis -->
     <g style="fill: #262626" transform="translate(21.8725 320.56875) rotate(-90) scale(0.16 -0.16)">
      <defs>
       <path id="DejaVuSans-4e" d="M 628 4666 
L 1478 4666 
L 3547 763 
L 3547 4666 
L 4159 4666 
L 4159 0 
L 3309 0 
L 1241 3903 
L 1241 0 
L 628 0 
L 628 4666 
z
" transform="scale(0.015625)"/>
       <path id="DejaVuSans-6f" d="M 1959 3097 
Q 1497 3097 1228 2736 
Q 959 2375 959 1747 
Q 959 1119 1226 758 
Q 1494 397 1959 397 
Q 2419 397 2687 759 
Q 2956 1122 2956 1747 
Q 2956 2369 2687 2733 
Q 2419 3097 1959 3097 
z
M 1959 3584 
Q 2709 3584 3137 3096 
Q 3566 2609 3566 1747 
Q 3566 888 3137 398 
Q 2709 -91 1959 -91 
Q 1206 -91 779 398 
Q 353 888 353 1747 
Q 353 2609 779 3096 
Q 1206 3584 1959 3584 
z
" transform="scale(0.015625)"/>
       <path id="DejaVuSans-72" d="M 2631 2963 
Q 2534 3019 2420 3045 
Q 2306 3072 2169 3072 
Q 1681 3072 1420 2755 
Q 1159 2438 1159 1844 
L 1159 0 
L 581 0 
L 581 3500 
L 1159 3500 
L 1159 2956 
Q 1341 3275 1631 3429 
Q 1922 3584 2338 3584 
Q 2397 3584 2469 3576 
Q 2541 3569 2628 3553 
L 2631 2963 
z
" transform="scale(0.015625)"/>
       <path id="DejaVuSans-6d" d="M 3328 2828 
Q 3544 3216 3844 3400 
Q 4144 3584 4550 3584 
Q 5097 3584 5394 3201 
Q 5691 2819 5691 2113 
L 5691 0 
L 5113 0 
L 5113 2094 
Q 5113 2597 4934 2840 
Q 4756 3084 4391 3084 
Q 3944 3084 3684 2787 
Q 3425 2491 3425 1978 
L 3425 0 
L 2847 0 
L 2847 2094 
Q 2847 2600 2669 2842 
Q 2491 3084 2119 3084 
Q 1678 3084 1418 2786 
Q 1159 2488 1159 1978 
L 1159 0 
L 581 0 
L 581 3500 
L 1159 3500 
L 1159 2956 
Q 1356 3278 1631 3431 
Q 1906 3584 2284 3584 
Q 2666 3584 2933 3390 
Q 3200 3197 3328 2828 
z
" transform="scale(0.015625)"/>
       <path id="DejaVuSans-61" d="M 2194 1759 
Q 1497 1759 1228 1600 
Q 959 1441 959 1056 
Q 959 750 1161 570 
Q 1363 391 1709 391 
Q 2188 391 2477 730 
Q 2766 1069 2766 1631 
L 2766 1759 
L 2194 1759 
z
M 3341 1997 
L 3341 0 
L 2766 0 
L 2766 531 
Q 2569 213 2275 61 
Q 1981 -91 1556 -91 
Q 1019 -91 701 211 
Q 384 513 384 1019 
Q 384 1609 779 1909 
Q 1175 2209 1959 2209 
L 2766 2209 
L 2766 2266 
Q 2766 2663 2505 2880 
Q 2244 3097 1772 3097 
Q 1472 3097 1187 3025 
Q 903 2953 641 2809 
L 641 3341 
Q 956 3463 1253 3523 
Q 1550 3584 1831 3584 
Q 2591 3584 2966 3190 
Q 3341 2797 3341 1997 
z
" transform="scale(0.015625)"/>
       <path id="DejaVuSans-6c" d="M 603 4863 
L 1178 4863 
L 1178 0 
L 603 0 
L 603 4863 
z
" transform="scale(0.015625)"/>
       <path id="DejaVuSans-69" d="M 603 3500 
L 1178 3500 
L 1178 0 
L 603 0 
L 603 3500 
z
M 603 4863 
L 1178 4863 
L 1178 4134 
L 603 4134 
L 603 4863 
z
" transform="scale(0.015625)"/>
       <path id="DejaVuSans-7a" d="M 353 3500 
L 3084 3500 
L 3084 2975 
L 922 459 
L 3084 459 
L 3084 0 
L 275 0 
L 275 525 
L 2438 3041 
L 353 3041 
L 353 3500 
z
" transform="scale(0.015625)"/>
       <path id="DejaVuSans-65" d="M 3597 1894 
L 3597 1613 
L 953 1613 
Q 991 1019 1311 708 
Q 1631 397 2203 397 
Q 2534 397 2845 478 
Q 3156 559 3463 722 
L 3463 178 
Q 3153 47 2828 -22 
Q 2503 -91 2169 -91 
Q 1331 -91 842 396 
Q 353 884 353 1716 
Q 353 2575 817 3079 
Q 1281 3584 2069 3584 
Q 2775 3584 3186 3129 
Q 3597 2675 3597 1894 
z
M 3022 2063 
Q 3016 2534 2758 2815 
Q 2500 3097 2075 3097 
Q 1594 3097 1305 2825 
Q 1016 2553 972 2059 
L 3022 2063 
z
" transform="scale(0.015625)"/>
       <path id="DejaVuSans-64" d="M 2906 2969 
L 2906 4863 
L 3481 4863 
L 3481 0 
L 2906 0 
L 2906 525 
Q 2725 213 2448 61 
Q 2172 -91 1784 -91 
Q 1150 -91 751 415 
Q 353 922 353 1747 
Q 353 2572 751 3078 
Q 1150 3584 1784 3584 
Q 2172 3584 2448 3432 
Q 2725 3281 2906 2969 
z
M 947 1747 
Q 947 1113 1208 752 
Q 1469 391 1925 391 
Q 2381 391 2643 752 
Q 2906 1113 2906 1747 
Q 2906 2381 2643 2742 
Q 2381 3103 1925 3103 
Q 1469 3103 1208 2742 
Q 947 2381 947 1747 
z
" transform="scale(0.015625)"/>
       <path id="DejaVuSans-20" transform="scale(0.015625)"/>
       <path id="DejaVuSans-41" d="M 2188 4044 
L 1331 1722 
L 3047 1722 
L 2188 4044 
z
M 1831 4666 
L 2547 4666 
L 4325 0 
L 3669 0 
L 3244 1197 
L 1141 1197 
L 716 0 
L 50 0 
L 1831 4666 
z
" transform="scale(0.015625)"/>
       <path id="DejaVuSans-78" d="M 3513 3500 
L 2247 1797 
L 3578 0 
L 2900 0 
L 1881 1375 
L 863 0 
L 184 0 
L 1544 1831 
L 300 3500 
L 978 3500 
L 1906 2253 
L 2834 3500 
L 3513 3500 
z
" transform="scale(0.015625)"/>
       <path id="DejaVuSans-73" d="M 2834 3397 
L 2834 2853 
Q 2591 2978 2328 3040 
Q 2066 3103 1784 3103 
Q 1356 3103 1142 2972 
Q 928 2841 928 2578 
Q 928 2378 1081 2264 
Q 1234 2150 1697 2047 
L 1894 2003 
Q 2506 1872 2764 1633 
Q 3022 1394 3022 966 
Q 3022 478 2636 193 
Q 2250 -91 1575 -91 
Q 1294 -91 989 -36 
Q 684 19 347 128 
L 347 722 
Q 666 556 975 473 
Q 1284 391 1588 391 
Q 1994 391 2212 530 
Q 2431 669 2431 922 
Q 2431 1156 2273 1281 
Q 2116 1406 1581 1522 
L 1381 1569 
Q 847 1681 609 1914 
Q 372 2147 372 2553 
Q 372 3047 722 3315 
Q 1072 3584 1716 3584 
Q 2034 3584 2315 3537 
Q 2597 3491 2834 3397 
z
" transform="scale(0.015625)"/>
      </defs>
      <use xlink:href="#DejaVuSans-4e"/>
      <use xlink:href="#DejaVuSans-6f" transform="translate(74.804688 0)"/>
      <use xlink:href="#DejaVuSans-72" transform="translate(135.986328 0)"/>
      <use xlink:href="#DejaVuSans-6d" transform="translate(175.349609 0)"/>
      <use xlink:href="#DejaVuSans-61" transform="translate(272.761719 0)"/>
      <use xlink:href="#DejaVuSans-6c" transform="translate(334.041016 0)"/>
      <use xlink:href="#DejaVuSans-69" transform="translate(361.824219 0)"/>
      <use xlink:href="#DejaVuSans-7a" transform="translate(389.607422 0)"/>
      <use xlink:href="#DejaVuSans-65" transform="translate(442.097656 0)"/>
      <use xlink:href="#DejaVuSans-64" transform="translate(503.621094 0)"/>
      <use xlink:href="#DejaVuSans-20" transform="translate(567.097656 0)"/>
      <use xlink:href="#DejaVuSans-41" transform="translate(598.884766 0)"/>
      <use xlink:href="#DejaVuSans-78" transform="translate(667.292969 0)"/>
      <use xlink:href="#DejaVuSans-69" transform="translate(726.472656 0)"/>
      <use xlink:href="#DejaVuSans-73" transform="translate(754.255859 0)"/>
     </g>
    </g>
   </g>
   <g id="FillBetweenPolyCollection_1">
    <path d="M 47.420906 464.789286 
L 47.420906 464.789286 
L 49.33594 464.789286 
L 51.250975 464.789286 
L 53.166009 464.789286 
L 55.081044 464.789286 
L 56.996079 464.789286 
L 58.911113 464.789286 
L 60.826148 464.789286 
L 62.741182 464.789286 
L 64.656217 464.789286 
L 66.571251 464.789286 
L 68.486286 464.789286 
L 70.401321 464.789286 
L 72.316355 464.789286 
L 74.23139 464.789286 
L 76.146424 464.789286 
L 78.061459 464.789286 
L 79.976493 464.789286 
L 81.891528 464.789286 
L 83.806563 464.789286 
L 85.721597 464.789286 
L 87.636632 464.789286 
L 89.551666 464.789286 
L 91.466701 464.789286 
L 93.381735 464.789286 
L 95.29677 464.789286 
L 97.211805 464.789286 
L 99.126839 464.789286 
L 101.041874 464.789286 
L 102.956908 464.789286 
L 104.871943 464.789286 
L 106.786978 464.789286 
L 108.702012 464.789286 
L 110.617047 464.789286 
L 112.532081 464.789286 
L 114.447116 464.789286 
L 116.36215 464.789286 
L 118.277185 464.789286 
L 120.19222 464.789286 
L 122.107254 464.789286 
L 124.022289 464.789286 
L 125.937323 464.789286 
L 127.852358 464.789286 
L 129.767392 464.789286 
L 131.682427 464.789286 
L 133.597462 464.789286 
L 135.512496 464.789286 
L 137.427531 464.789286 
L 139.342565 464.789286 
L 141.2576 464.789286 
L 143.172634 464.789286 
L 145.087669 464.789286 
L 147.002704 464.789286 
L 148.917738 464.789286 
L 150.832773 464.789286 
L 152.747807 464.789286 
L 154.662842 464.789286 
L 156.577876 464.789286 
L 158.492911 464.789286 
L 160.407946 464.789286 
L 162.32298 464.789286 
L 164.238015 464.789286 
L 166.153049 464.789286 
L 168.068084 464.789286 
L 169.983118 464.789286 
L 171.898153 464.789286 
L 173.813188 464.789286 
L 175.728222 464.789286 
L 177.643257 464.789286 
L 179.558291 464.789286 
L 181.473326 464.789286 
L 183.388361 464.789286 
L 185.303395 464.789286 
L 187.21843 464.789286 
L 189.133464 464.789286 
L 191.048499 464.789286 
L 192.963533 464.789286 
L 194.878568 464.789286 
L 196.793603 464.789286 
L 198.708637 464.789286 
L 200.623672 464.789286 
L 202.538706 464.789286 
L 204.453741 464.789286 
L 206.368775 464.789286 
L 208.28381 464.789286 
L 210.198845 464.789286 
L 212.113879 464.789286 
L 214.028914 464.789286 
L 215.943948 464.789286 
L 217.858983 464.789286 
L 219.774017 464.789286 
L 221.689052 464.789286 
L 223.604087 464.789286 
L 225.519121 464.789286 
L 227.434156 464.789286 
L 229.34919 464.789286 
L 231.264225 464.789286 
L 233.179259 464.789286 
L 235.094294 464.789286 
L 237.009329 464.789286 
L 238.924363 464.789286 
L 240.839398 464.789286 
L 242.754432 464.789286 
L 244.669467 464.789286 
L 246.584501 464.789286 
L 248.499536 464.789286 
L 250.414571 464.789286 
L 252.329605 464.789286 
L 254.24464 464.789286 
L 256.159674 464.789286 
L 258.074709 464.789286 
L 259.989743 464.789286 
L 261.904778 464.789286 
L 263.819813 464.789286 
L 265.734847 464.789286 
L 267.649882 464.789286 
L 269.564916 464.789286 
L 271.479951 464.789286 
L 273.394986 464.789286 
L 275.31002 464.789286 
L 277.225055 464.789286 
L 279.140089 464.789286 
L 281.055124 464.789286 
L 282.970158 464.789286 
L 284.885193 464.789286 
L 286.800228 464.789286 
L 288.715262 464.789286 
L 290.630297 464.789286 
L 292.545331 464.789286 
L 294.460366 464.789286 
L 296.3754 464.789286 
L 298.290435 464.789286 
L 300.20547 464.789286 
L 302.120504 464.789286 
L 304.035539 464.789286 
L 305.950573 464.789286 
L 307.865608 464.789286 
L 309.780642 464.789286 
L 311.695677 464.789286 
L 313.610712 464.789286 
L 315.525746 464.789286 
L 317.440781 464.789286 
L 319.355815 464.789286 
L 321.27085 464.789286 
L 323.185884 464.789286 
L 325.100919 464.789286 
L 327.015954 464.789286 
L 328.930988 464.789286 
L 330.846023 464.789286 
L 332.761057 464.789286 
L 334.676092 464.789286 
L 336.591126 464.789286 
L 338.506161 464.789286 
L 340.421196 464.789286 
L 342.33623 464.789286 
L 344.251265 464.789286 
L 346.166299 464.789286 
L 348.081334 464.789286 
L 349.996368 464.789286 
L 351.911403 464.789286 
L 353.826438 464.789286 
L 355.741472 464.789286 
L 357.656507 464.789286 
L 359.571541 464.789286 
L 361.486576 464.789286 
L 363.401611 464.789286 
L 365.316645 464.789286 
L 367.23168 464.789286 
L 369.146714 464.789286 
L 371.061749 464.789286 
L 372.976783 464.789286 
L 374.891818 464.789286 
L 376.806853 464.789286 
L 378.721887 464.789286 
L 380.636922 464.789286 
L 382.551956 464.789286 
L 384.466991 464.789286 
L 386.382025 464.789286 
L 388.29706 464.789286 
L 390.212095 464.789286 
L 392.127129 464.789286 
L 394.042164 464.789286 
L 395.957198 464.789286 
L 397.872233 464.789286 
L 399.787267 464.789286 
L 401.702302 464.789286 
L 403.617337 464.789286 
L 405.532371 464.789286 
L 407.447406 464.789286 
L 409.36244 464.789286 
L 411.277475 464.789286 
L 413.192509 464.789286 
L 415.107544 464.789286 
L 417.022579 464.789286 
L 418.937613 464.789286 
L 420.852648 464.789286 
L 422.767682 464.789286 
L 424.682717 464.789286 
L 426.597751 464.789286 
L 428.512786 464.789286 
L 430.427821 464.789286 
L 432.342855 464.789286 
L 434.25789 464.789286 
L 436.172924 464.789286 
L 438.087959 464.789286 
L 440.002993 464.789286 
L 441.918028 464.789286 
L 443.833063 464.789286 
L 445.748097 464.789286 
L 447.663132 464.789286 
L 449.578166 464.789286 
L 451.493201 464.789286 
L 453.408236 464.789286 
L 455.32327 464.789286 
L 457.238305 464.789286 
L 459.153339 464.789286 
L 461.068374 464.789286 
L 462.983408 464.789286 
L 464.898443 464.789286 
L 466.813478 464.789286 
L 468.728512 464.789286 
L 470.643547 464.789286 
L 472.558581 464.789286 
L 474.473616 464.789286 
L 476.38865 464.789286 
L 478.303685 464.789286 
L 480.21872 464.789286 
L 482.133754 464.789286 
L 484.048789 464.789286 
L 485.963823 464.789286 
L 487.878858 464.789286 
L 489.793892 464.789286 
L 491.708927 464.789286 
L 493.623962 464.789286 
L 495.538996 464.789286 
L 497.454031 464.789286 
L 499.369065 464.789286 
L 501.2841 464.789286 
L 503.199134 464.789286 
L 505.114169 464.789286 
L 507.029204 464.789286 
L 508.944238 464.789286 
L 510.859273 464.789286 
L 512.774307 464.789286 
L 514.689342 464.789286 
L 516.604376 464.789286 
L 518.519411 464.789286 
L 520.434446 464.789286 
L 522.34948 464.789286 
L 524.264515 464.789286 
L 526.179549 464.789286 
L 528.094584 464.789286 
L 530.009618 464.789286 
L 531.924653 464.789286 
L 533.839688 464.789286 
L 535.754722 464.789286 
L 537.669757 464.789286 
L 539.584791 464.789286 
L 541.499826 464.789286 
L 543.414861 464.789286 
L 545.329895 464.789286 
L 547.24493 464.789286 
L 549.159964 464.789286 
L 551.074999 464.789286 
L 552.990033 464.789286 
L 554.905068 464.789286 
L 556.820103 464.789286 
L 558.735137 464.789286 
L 560.650172 464.789286 
L 562.565206 464.789286 
L 564.480241 464.789286 
L 566.395275 464.789286 
L 568.31031 464.789286 
L 570.225345 464.789286 
L 572.140379 464.789286 
L 574.055414 464.789286 
L 575.970448 464.789286 
L 577.885483 464.789286 
L 579.800517 464.789286 
L 581.715552 464.789286 
L 583.630587 464.789286 
L 585.545621 464.789286 
L 587.460656 464.789286 
L 589.37569 464.789286 
L 591.290725 464.789286 
L 593.205759 464.789286 
L 595.120794 464.789286 
L 597.035829 464.789286 
L 598.950863 464.789286 
L 600.865898 464.789286 
L 602.780932 464.789286 
L 604.695967 464.789286 
L 606.611001 464.789286 
L 608.526036 464.789286 
L 610.441071 464.789286 
L 612.356105 464.789286 
L 614.27114 464.789286 
L 616.186174 464.789286 
L 618.101209 464.789286 
L 620.016243 464.789286 
L 620.016243 464.789286 
L 620.016243 464.789286 
L 618.101209 464.789286 
L 616.186174 464.789286 
L 614.27114 464.789286 
L 612.356105 464.789286 
L 610.441071 464.789286 
L 608.526036 464.789286 
L 606.611001 464.789286 
L 604.695967 464.789286 
L 602.780932 464.789286 
L 600.865898 464.789286 
L 598.950863 464.789286 
L 597.035829 464.789286 
L 595.120794 464.789286 
L 593.205759 464.789286 
L 591.290725 464.789286 
L 589.37569 464.789286 
L 587.460656 464.789286 
L 585.545621 464.789286 
L 583.630587 464.789286 
L 581.715552 464.789286 
L 579.800517 464.789286 
L 577.885483 464.789286 
L 575.970448 464.789286 
L 574.055414 464.789286 
L 572.140379 464.789286 
L 570.225345 464.789286 
L 568.31031 464.789286 
L 566.395275 464.789286 
L 564.480241 464.789286 
L 562.565206 464.789286 
L 560.650172 464.789286 
L 558.735137 464.789286 
L 556.820103 464.789286 
L 554.905068 464.789286 
L 552.990033 464.789286 
L 551.074999 464.789286 
L 549.159964 464.789286 
L 547.24493 464.789286 
L 545.329895 464.789286 
L 543.414861 464.789286 
L 541.499826 464.789286 
L 539.584791 464.789286 
L 537.669757 464.789286 
L 535.754722 464.789286 
L 533.839688 464.789286 
L 531.924653 464.789286 
L 530.009618 464.789286 
L 528.094584 464.789286 
L 526.179549 464.789286 
L 524.264515 464.789286 
L 522.34948 464.789286 
L 520.434446 464.789286 
L 518.519411 464.789286 
L 516.604376 464.789286 
L 514.689342 464.789286 
L 512.774307 464.789286 
L 510.859273 464.789286 
L 508.944238 464.789286 
L 507.029204 464.789286 
L 505.114169 464.789286 
L 503.199134 464.789286 
L 501.2841 464.789286 
L 499.369065 464.789286 
L 497.454031 464.789286 
L 495.538996 464.789286 
L 493.623962 464.789286 
L 491.708927 464.789286 
L 489.793892 464.789286 
L 487.878858 464.789286 
L 485.963823 464.789286 
L 484.048789 464.789286 
L 482.133754 464.789286 
L 480.21872 464.789286 
L 478.303685 464.789286 
L 476.38865 464.789286 
L 474.473616 464.789286 
L 472.558581 464.789286 
L 470.643547 464.789286 
L 468.728512 464.789286 
L 466.813478 464.789286 
L 464.898443 464.789286 
L 462.983408 464.789286 
L 461.068374 464.789286 
L 459.153339 464.789286 
L 457.238305 464.789286 
L 455.32327 464.789286 
L 453.408236 464.789286 
L 451.493201 464.789286 
L 449.578166 464.789286 
L 447.663132 464.789286 
L 445.748097 464.789286 
L 443.833063 464.789286 
L 441.918028 464.789286 
L 440.002993 464.789286 
L 438.087959 464.789286 
L 436.172924 464.789286 
L 434.25789 464.789286 
L 432.342855 464.789286 
L 430.427821 464.789286 
L 428.512786 464.789286 
L 426.597751 464.789286 
L 424.682717 464.789286 
L 422.767682 464.789286 
L 420.852648 464.789286 
L 418.937613 464.789286 
L 417.022579 464.789286 
L 415.107544 464.789286 
L 413.192509 464.789286 
L 411.277475 464.789286 
L 409.36244 464.789286 
L 407.447406 464.789286 
L 405.532371 464.789286 
L 403.617337 464.789286 
L 401.702302 464.789286 
L 399.787267 464.789286 
L 397.872233 464.789286 
L 395.957198 464.789286 
L 394.042164 464.789286 
L 392.127129 464.789286 
L 390.212095 464.789286 
L 388.29706 464.789286 
L 386.382025 464.789286 
L 384.466991 464.789286 
L 382.551956 464.789286 
L 380.636922 464.789286 
L 378.721887 464.789286 
L 376.806853 464.789286 
L 374.891818 464.789286 
L 372.976783 464.789286 
L 371.061749 464.789286 
L 369.146714 464.789286 
L 367.23168 464.789286 
L 365.316645 464.789286 
L 363.401611 464.789286 
L 361.486576 464.789286 
L 359.571541 464.789286 
L 357.656507 464.789286 
L 355.741472 464.789286 
L 353.826438 464.789286 
L 351.911403 464.789286 
L 349.996368 464.789286 
L 348.081334 464.789286 
L 346.166299 464.789286 
L 344.251265 464.789286 
L 342.33623 464.789286 
L 340.421196 464.789286 
L 338.506161 464.789286 
L 336.591126 464.789286 
L 334.676092 464.789286 
L 332.761057 464.789286 
L 330.846023 464.789286 
L 328.930988 464.789286 
L 327.015954 464.789286 
L 325.100919 464.789286 
L 323.185884 464.789286 
L 321.27085 464.789286 
L 319.355815 464.789286 
L 317.440781 464.789286 
L 315.525746 464.789286 
L 313.610712 464.789286 
L 311.695677 464.789286 
L 309.780642 464.789286 
L 307.865608 464.789286 
L 305.950573 464.789286 
L 304.035539 464.789286 
L 302.120504 464.789286 
L 300.20547 464.789286 
L 298.290435 464.789286 
L 296.3754 464.789286 
L 294.460366 464.789286 
L 292.545331 464.789286 
L 290.630297 464.789286 
L 288.715262 464.789286 
L 286.800228 464.789286 
L 284.885193 464.789286 
L 282.970158 464.789286 
L 281.055124 464.789286 
L 279.140089 464.789286 
L 277.225055 464.789286 
L 275.31002 464.789286 
L 273.394986 464.789286 
L 271.479951 464.789286 
L 269.564916 464.789286 
L 267.649882 464.789286 
L 265.734847 464.789286 
L 263.819813 464.789286 
L 261.904778 464.789286 
L 259.989743 464.789286 
L 258.074709 464.789286 
L 256.159674 464.789286 
L 254.24464 464.789286 
L 252.329605 464.789286 
L 250.414571 464.789286 
L 248.499536 464.789286 
L 246.584501 464.789286 
L 244.669467 464.789286 
L 242.754432 464.789286 
L 240.839398 464.789286 
L 238.924363 464.789286 
L 237.009329 464.789286 
L 235.094294 464.789286 
L 233.179259 464.789286 
L 231.264225 464.789286 
L 229.34919 464.789286 
L 227.434156 464.789286 
L 225.519121 464.789286 
L 223.604087 464.789286 
L 221.689052 464.789286 
L 219.774017 464.789286 
L 217.858983 464.789286 
L 215.943948 464.789286 
L 214.028914 464.789286 
L 212.113879 464.789286 
L 210.198845 464.789286 
L 208.28381 464.789286 
L 206.368775 464.789286 
L 204.453741 464.789286 
L 202.538706 464.789286 
L 200.623672 464.789286 
L 198.708637 464.789286 
L 196.793603 464.789286 
L 194.878568 464.789286 
L 192.963533 464.789286 
L 191.048499 464.789286 
L 189.133464 464.789286 
L 187.21843 464.789286 
L 185.303395 464.789286 
L 183.388361 464.789286 
L 181.473326 464.789286 
L 179.558291 464.789286 
L 177.643257 464.789286 
L 175.728222 464.789286 
L 173.813188 464.789286 
L 171.898153 464.789286 
L 169.983118 464.789286 
L 168.068084 464.789286 
L 166.153049 464.789286 
L 164.238015 464.789286 
L 162.32298 464.789286 
L 160.407946 464.789286 
L 158.492911 464.789286 
L 156.577876 464.789286 
L 154.662842 464.789286 
L 152.747807 464.789286 
L 150.832773 464.789286 
L 148.917738 464.789286 
L 147.002704 464.789286 
L 145.087669 464.789286 
L 143.172634 464.789286 
L 141.2576 464.789286 
L 139.342565 464.789286 
L 137.427531 464.789286 
L 135.512496 464.789286 
L 133.597462 464.789286 
L 131.682427 464.789286 
L 129.767392 464.789286 
L 127.852358 464.789286 
L 125.937323 464.789286 
L 124.022289 464.789286 
L 122.107254 464.789286 
L 120.19222 464.789286 
L 118.277185 464.789286 
L 116.36215 464.789286 
L 114.447116 464.789286 
L 112.532081 464.789286 
L 110.617047 464.789286 
L 108.702012 464.789286 
L 106.786978 464.789286 
L 104.871943 464.789286 
L 102.956908 464.789286 
L 101.041874 464.789286 
L 99.126839 464.789286 
L 97.211805 464.789286 
L 95.29677 464.789286 
L 93.381735 464.789286 
L 91.466701 464.789286 
L 89.551666 464.789286 
L 87.636632 464.789286 
L 85.721597 464.789286 
L 83.806563 464.789286 
L 81.891528 464.789286 
L 79.976493 464.789286 
L 78.061459 464.789286 
L 76.146424 464.789286 
L 74.23139 464.789286 
L 72.316355 464.789286 
L 70.401321 464.789286 
L 68.486286 464.789286 
L 66.571251 464.789286 
L 64.656217 464.789286 
L 62.741182 464.789286 
L 60.826148 464.789286 
L 58.911113 464.789286 
L 56.996079 464.789286 
L 55.081044 464.789286 
L 53.166009 464.789286 
L 51.250975 464.789286 
L 49.33594 464.789286 
L 47.420906 464.789286 
z
" clip-path="url(#p87a2d72e2e)" style="fill: #00b899; fill-opacity: 0.1"/>
   </g>
   <g id="FillBetweenPolyCollection_2">
    <path d="M 47.420906 77.405724 
L 47.420906 101.229696 
L 49.33594 106.449067 
L 51.250975 115.88598 
L 53.166009 127.952396 
L 55.081044 141.066447 
L 56.996079 154.120732 
L 58.911113 166.651414 
L 60.826148 178.704523 
L 62.741182 190.506318 
L 64.656217 202.119311 
L 66.571251 213.344258 
L 68.486286 223.959575 
L 70.401321 234.033118 
L 72.316355 243.94345 
L 74.23139 254.084089 
L 76.146424 264.58735 
L 78.061459 275.310298 
L 79.976493 285.961191 
L 81.891528 296.17314 
L 83.806563 305.580209 
L 85.721597 313.98635 
L 87.636632 321.492173 
L 89.551666 328.396411 
L 91.466701 334.947495 
L 93.381735 341.214144 
L 95.29677 347.213114 
L 97.211805 353.105364 
L 99.126839 359.167697 
L 101.041874 365.55634 
L 102.956908 372.165959 
L 104.871943 378.742128 
L 106.786978 385.077136 
L 108.702012 391.072059 
L 110.617047 396.668488 
L 112.532081 401.796993 
L 114.447116 406.415016 
L 116.36215 410.565392 
L 118.277185 414.374081 
L 120.19222 417.997579 
L 122.107254 421.559617 
L 124.022289 425.082332 
L 125.937323 428.465201 
L 127.852358 431.570417 
L 129.767392 434.337062 
L 131.682427 436.787979 
L 133.597462 438.948547 
L 135.512496 440.814918 
L 137.427531 442.418954 
L 139.342565 443.878549 
L 141.2576 445.327961 
L 143.172634 446.805268 
L 145.087669 448.256578 
L 147.002704 449.642277 
L 148.917738 450.985762 
L 150.832773 452.320662 
L 152.747807 453.641783 
L 154.662842 454.91601 
L 156.577876 456.105366 
L 158.492911 457.156218 
L 160.407946 457.987387 
L 162.32298 458.530034 
L 164.238015 458.798725 
L 166.153049 458.906015 
L 168.068084 458.989836 
L 169.983118 459.134311 
L 171.898153 459.360128 
L 173.813188 459.668724 
L 175.728222 460.075083 
L 177.643257 460.589357 
L 179.558291 461.180899 
L 181.473326 461.790385 
L 183.388361 462.373619 
L 185.303395 462.905502 
L 187.21843 463.350489 
L 189.133464 463.666541 
L 191.048499 463.84277 
L 192.963533 463.913594 
L 194.878568 463.931485 
L 196.793603 463.931564 
L 198.708637 463.921688 
L 200.623672 463.912993 
L 202.538706 463.956749 
L 204.453741 464.12463 
L 206.368775 464.443582 
L 208.28381 464.872904 
L 210.198845 465.347099 
L 212.113879 465.810878 
L 214.028914 466.217282 
L 215.943948 466.536416 
L 217.858983 466.780978 
L 219.774017 466.999625 
L 221.689052 467.231718 
L 223.604087 467.472158 
L 225.519121 467.676806 
L 227.434156 467.796818 
L 229.34919 467.813743 
L 231.264225 467.755441 
L 233.179259 467.683362 
L 235.094294 467.657604 
L 237.009329 467.705131 
L 238.924363 467.815143 
L 240.839398 467.945273 
L 242.754432 468.025137 
L 244.669467 467.992276 
L 246.584501 467.859619 
L 248.499536 467.727463 
L 250.414571 467.690667 
L 252.329605 467.736598 
L 254.24464 467.760597 
L 256.159674 467.682123 
L 258.074709 467.521268 
L 259.989743 467.360613 
L 261.904778 467.268743 
L 263.819813 467.282219 
L 265.734847 467.425396 
L 267.649882 467.698803 
L 269.564916 468.046225 
L 271.479951 468.359946 
L 273.394986 468.536775 
L 275.31002 468.536395 
L 277.225055 468.397252 
L 279.140089 468.20262 
L 281.055124 468.035296 
L 282.970158 467.958767 
L 284.885193 468.008264 
L 286.800228 468.16645 
L 288.715262 468.358371 
L 290.630297 468.499342 
L 292.545331 468.552124 
L 294.460366 468.531665 
L 296.3754 468.46538 
L 298.290435 468.3611 
L 300.20547 468.208575 
L 302.120504 468.005031 
L 304.035539 467.781908 
L 305.950573 467.598158 
L 307.865608 467.483918 
L 309.780642 467.391321 
L 311.695677 467.229883 
L 313.610712 466.957128 
L 315.525746 466.616118 
L 317.440781 466.276875 
L 319.355815 465.948929 
L 321.27085 465.563342 
L 323.185884 465.053172 
L 325.100919 464.44961 
L 327.015954 463.886219 
L 328.930988 463.509277 
L 330.846023 463.387375 
L 332.761057 463.489301 
L 334.676092 463.721767 
L 336.591126 463.984563 
L 338.506161 464.208636 
L 340.421196 464.364005 
L 342.33623 464.4466 
L 344.251265 464.464597 
L 346.166299 464.431885 
L 348.081334 464.364623 
L 349.996368 464.282135 
L 351.911403 464.21176 
L 353.826438 464.183502 
L 355.741472 464.21149 
L 357.656507 464.285561 
L 359.571541 464.387264 
L 361.486576 464.509511 
L 363.401611 464.656461 
L 365.316645 464.829552 
L 367.23168 465.014124 
L 369.146714 465.174405 
L 371.061749 465.268497 
L 372.976783 465.280536 
L 374.891818 465.235347 
L 376.806853 465.174755 
L 378.721887 465.123323 
L 380.636922 465.078384 
L 382.551956 465.023726 
L 384.466991 464.947189 
L 386.382025 464.849661 
L 388.29706 464.743396 
L 390.212095 464.645495 
L 392.127129 464.573483 
L 394.042164 464.542308 
L 395.957198 464.557205 
L 397.872233 464.606023 
L 399.787267 464.662864 
L 401.702302 464.703601 
L 403.617337 464.717816 
L 405.532371 464.706094 
L 407.447406 464.671811 
L 409.36244 464.621424 
L 411.277475 464.570467 
L 413.192509 464.540551 
L 415.107544 464.545324 
L 417.022579 464.58105 
L 418.937613 464.63393 
L 420.852648 464.697189 
L 422.767682 464.780568 
L 424.682717 464.900857 
L 426.597751 465.059454 
L 428.512786 465.228861 
L 430.427821 465.363037 
L 432.342855 465.422507 
L 434.25789 465.393997 
L 436.172924 465.293728 
L 438.087959 465.155203 
L 440.002993 465.011574 
L 441.918028 464.886883 
L 443.833063 464.796481 
L 445.748097 464.74485 
L 447.663132 464.722171 
L 449.578166 464.712143 
L 451.493201 464.705672 
L 453.408236 464.703195 
L 455.32327 464.707196 
L 457.238305 464.718196 
L 459.153339 464.734725 
L 461.068374 464.751151 
L 462.983408 464.75626 
L 464.898443 464.739547 
L 466.813478 464.703462 
L 468.728512 464.669086 
L 470.643547 464.66493 
L 472.558581 464.705668 
L 474.473616 464.778782 
L 476.38865 464.848519 
L 478.303685 464.873149 
L 480.21872 464.827252 
L 482.133754 464.718289 
L 484.048789 464.585783 
L 485.963823 464.480881 
L 487.878858 464.43731 
L 489.793892 464.452622 
L 491.708927 464.495666 
L 493.623962 464.534945 
L 495.538996 464.559045 
L 497.454031 464.570522 
L 499.369065 464.570644 
L 501.2841 464.560082 
L 503.199134 464.549755 
L 505.114169 464.558545 
L 507.029204 464.595639 
L 508.944238 464.650383 
L 510.859273 464.704106 
L 512.774307 464.748265 
L 514.689342 464.785268 
L 516.604376 464.814071 
L 518.519411 464.822653 
L 520.434446 464.798434 
L 522.34948 464.74394 
L 524.264515 464.679463 
L 526.179549 464.631611 
L 528.094584 464.621329 
L 530.009618 464.659405 
L 531.924653 464.744201 
L 533.839688 464.858865 
L 535.754722 464.976285 
L 537.669757 465.074704 
L 539.584791 465.151766 
L 541.499826 465.222987 
L 543.414861 465.304591 
L 545.329895 465.396087 
L 547.24493 465.479331 
L 549.159964 465.533466 
L 551.074999 465.55033 
L 552.990033 465.537792 
L 554.905068 465.510511 
L 556.820103 465.477921 
L 558.735137 465.442265 
L 560.650172 465.406717 
L 562.565206 465.378969 
L 564.480241 465.364063 
L 566.395275 465.358839 
L 568.31031 465.357685 
L 570.225345 465.362019 
L 572.140379 465.381975 
L 574.055414 465.428541 
L 575.970448 465.503252 
L 577.885483 465.594691 
L 579.800517 465.685033 
L 581.715552 465.760398 
L 583.630587 465.8155 
L 585.545621 465.849798 
L 587.460656 465.861556 
L 589.37569 465.848365 
L 591.290725 465.812973 
L 593.205759 465.765511 
L 595.120794 465.719042 
L 597.035829 465.682528 
L 598.950863 465.654857 
L 600.865898 465.625332 
L 602.780932 465.585349 
L 604.695967 465.542133 
L 606.611001 465.516631 
L 608.526036 465.524313 
L 610.441071 465.559919 
L 612.356105 465.603339 
L 614.27114 465.638964 
L 616.186174 465.665676 
L 618.101209 465.687683 
L 620.016243 465.702182 
L 620.016243 463.579236 
L 620.016243 463.579236 
L 618.101209 463.559714 
L 616.186174 463.525723 
L 614.27114 463.491962 
L 612.356105 463.473516 
L 610.441071 463.4699 
L 608.526036 463.467404 
L 606.611001 463.455882 
L 604.695967 463.435592 
L 602.780932 463.41085 
L 600.865898 463.384698 
L 598.950863 463.357392 
L 597.035829 463.324364 
L 595.120794 463.277748 
L 593.205759 463.214877 
L 591.290725 463.147027 
L 589.37569 463.097993 
L 587.460656 463.089892 
L 585.545621 463.125703 
L 583.630587 463.185244 
L 581.715552 463.24006 
L 579.800517 463.272795 
L 577.885483 463.282362 
L 575.970448 463.275743 
L 574.055414 463.25963 
L 572.140379 463.236818 
L 570.225345 463.203625 
L 568.31031 463.149996 
L 566.395275 463.065637 
L 564.480241 462.948117 
L 562.565206 462.806261 
L 560.650172 462.65645 
L 558.735137 462.512154 
L 556.820103 462.372354 
L 554.905068 462.222271 
L 552.990033 462.053497 
L 551.074999 461.886246 
L 549.159964 461.767316 
L 547.24493 461.740129 
L 545.329895 461.81337 
L 543.414861 461.955974 
L 541.499826 462.119824 
L 539.584791 462.267392 
L 537.669757 462.382455 
L 535.754722 462.462371 
L 533.839688 462.506537 
L 531.924653 462.511889 
L 530.009618 462.476279 
L 528.094584 462.404094 
L 526.179549 462.30723 
L 524.264515 462.203428 
L 522.34948 462.117313 
L 520.434446 462.075682 
L 518.519411 462.089063 
L 516.604376 462.135321 
L 514.689342 462.168744 
L 512.774307 462.151232 
L 510.859273 462.075424 
L 508.944238 461.957457 
L 507.029204 461.813098 
L 505.114169 461.650192 
L 503.199134 461.483744 
L 501.2841 461.343595 
L 499.369065 461.256128 
L 497.454031 461.222259 
L 495.538996 461.221672 
L 493.623962 461.235865 
L 491.708927 461.257736 
L 489.793892 461.275521 
L 487.878858 461.257113 
L 485.963823 461.164229 
L 484.048789 460.987834 
L 482.133754 460.76772 
L 480.21872 460.573209 
L 478.303685 460.458019 
L 476.38865 460.424541 
L 474.473616 460.426887 
L 472.558581 460.410326 
L 470.643547 460.352201 
L 468.728512 460.268364 
L 466.813478 460.183942 
L 464.898443 460.104176 
L 462.983408 460.015597 
L 461.068374 459.906377 
L 459.153339 459.771576 
L 457.238305 459.599509 
L 455.32327 459.372959 
L 453.408236 459.099655 
L 451.493201 458.832875 
L 449.578166 458.638314 
L 447.663132 458.531394 
L 445.748097 458.458462 
L 443.833063 458.34197 
L 441.918028 458.128907 
L 440.002993 457.801431 
L 438.087959 457.37935 
L 436.172924 456.931772 
L 434.25789 456.561295 
L 432.342855 456.349549 
L 430.427821 456.316542 
L 428.512786 456.43057 
L 426.597751 456.642729 
L 424.682717 456.909455 
L 422.767682 457.198884 
L 420.852648 457.488146 
L 418.937613 457.751546 
L 417.022579 457.948727 
L 415.107544 458.029421 
L 413.192509 457.955766 
L 411.277475 457.726408 
L 409.36244 457.382538 
L 407.447406 456.989055 
L 405.532371 456.606716 
L 403.617337 456.277996 
L 401.702302 456.025115 
L 399.787267 455.84501 
L 397.872233 455.708173 
L 395.957198 455.581551 
L 394.042164 455.459635 
L 392.127129 455.358492 
L 390.212095 455.276152 
L 388.29706 455.179243 
L 386.382025 455.035433 
L 384.466991 454.840315 
L 382.551956 454.606646 
L 380.636922 454.34266 
L 378.721887 454.047019 
L 376.806853 453.718861 
L 374.891818 453.37617 
L 372.976783 453.072074 
L 371.061749 452.8804 
L 369.146714 452.844374 
L 367.23168 452.938326 
L 365.316645 453.088228 
L 363.401611 453.228496 
L 361.486576 453.341001 
L 359.571541 453.452166 
L 357.656507 453.595721 
L 355.741472 453.769296 
L 353.826438 453.919554 
L 351.911403 453.964827 
L 349.996368 453.836426 
L 348.081334 453.519495 
L 346.166299 453.070641 
L 344.251265 452.590489 
L 342.33623 452.162853 
L 340.421196 451.802522 
L 338.506161 451.440126 
L 336.591126 450.936581 
L 334.676092 450.106239 
L 332.761057 448.744425 
L 330.846023 446.68173 
L 328.930988 443.879159 
L 327.015954 440.53031 
L 325.100919 437.075385 
L 323.185884 434.0317 
L 321.27085 431.693267 
L 319.355815 429.954749 
L 317.440781 428.472547 
L 315.525746 427.023765 
L 313.610712 425.686468 
L 311.695677 424.680098 
L 309.780642 424.083699 
L 307.865608 423.740446 
L 305.950573 423.416436 
L 304.035539 422.996983 
L 302.120504 422.495753 
L 300.20547 421.935892 
L 298.290435 421.307215 
L 296.3754 420.608676 
L 294.460366 419.870197 
L 292.545331 419.159629 
L 290.630297 418.594222 
L 288.715262 418.280926 
L 286.800228 418.186132 
L 284.885193 418.098768 
L 282.970158 417.780432 
L 281.055124 417.150956 
L 279.140089 416.317451 
L 277.225055 415.48525 
L 275.31002 414.879557 
L 273.394986 414.659559 
L 271.479951 414.788829 
L 269.564916 415.001639 
L 267.649882 414.986647 
L 265.734847 414.633368 
L 263.819813 414.077258 
L 261.904778 413.50361 
L 259.989743 412.94944 
L 258.074709 412.322689 
L 256.159674 411.588246 
L 254.24464 410.847812 
L 252.329605 410.181623 
L 250.414571 409.50086 
L 248.499536 408.694664 
L 246.584501 407.893995 
L 244.669467 407.431393 
L 242.754432 407.500009 
L 240.839398 407.96332 
L 238.924363 408.542351 
L 237.009329 409.078226 
L 235.094294 409.536513 
L 233.179259 409.854452 
L 231.264225 409.919363 
L 229.34919 409.719234 
L 227.434156 409.443019 
L 225.519121 409.347746 
L 223.604087 409.497835 
L 221.689052 409.686683 
L 219.774017 409.639762 
L 217.858983 409.255246 
L 215.943948 408.64551 
L 214.028914 408.016006 
L 212.113879 407.543624 
L 210.198845 407.314103 
L 208.28381 407.285996 
L 206.368775 407.278927 
L 204.453741 407.044689 
L 202.538706 406.44172 
L 200.623672 405.573117 
L 198.708637 404.708213 
L 196.793603 404.050322 
L 194.878568 403.61078 
L 192.963533 403.296252 
L 191.048499 403.049371 
L 189.133464 402.875171 
L 187.21843 402.776402 
L 185.303395 402.718488 
L 183.388361 402.663121 
L 181.473326 402.602254 
L 179.558291 402.533435 
L 177.643257 402.420468 
L 175.728222 402.196199 
L 173.813188 401.788537 
L 171.898153 401.145936 
L 169.983118 400.28273 
L 168.068084 399.309713 
L 166.153049 398.370664 
L 164.238015 397.533628 
L 162.32298 396.761164 
L 160.407946 395.961912 
L 158.492911 395.0517 
L 156.577876 394.007313 
L 154.662842 392.899117 
L 152.747807 391.84476 
L 150.832773 390.893426 
L 148.917738 389.975869 
L 147.002704 388.995727 
L 145.087669 387.92255 
L 143.172634 386.753202 
L 141.2576 385.435535 
L 139.342565 383.88908 
L 137.427531 382.063181 
L 135.512496 379.950192 
L 133.597462 377.599731 
L 131.682427 375.139819 
L 129.767392 372.731957 
L 127.852358 370.472298 
L 125.937323 368.332536 
L 124.022289 366.180177 
L 122.107254 363.843249 
L 120.19222 361.155195 
L 118.277185 357.981306 
L 116.36215 354.269668 
L 114.447116 350.068976 
L 112.532081 345.432448 
L 110.617047 340.319259 
L 108.702012 334.650563 
L 106.786978 328.428045 
L 104.871943 321.738072 
L 102.956908 314.674071 
L 101.041874 307.308793 
L 99.126839 299.707991 
L 97.211805 291.924679 
L 95.29677 283.986888 
L 93.381735 275.893078 
L 91.466701 267.60497 
L 89.551666 259.048247 
L 87.636632 250.142385 
L 85.721597 240.848542 
L 83.806563 231.20309 
L 81.891528 221.302611 
L 79.976493 211.260502 
L 78.061459 201.198399 
L 76.146424 191.258468 
L 74.23139 181.558211 
L 72.316355 172.112305 
L 70.401321 162.830506 
L 68.486286 153.60861 
L 66.571251 144.425532 
L 64.656217 135.372911 
L 62.741182 126.598993 
L 60.826148 118.21877 
L 58.911113 110.276832 
L 56.996079 102.787051 
L 55.081044 95.790689 
L 53.166009 89.405155 
L 51.250975 83.891167 
L 49.33594 79.703657 
L 47.420906 77.405724 
z
" clip-path="url(#p87a2d72e2e)" style="fill: #2ca02c; fill-opacity: 0.1"/>
   </g>
   <g id="FillBetweenPolyCollection_3">
    <path d="M 47.420906 23.432835 
L 47.420906 241.847935 
L 49.33594 266.850692 
L 51.250975 308.186429 
L 53.166009 352.756778 
L 55.081044 389.041032 
L 56.996079 411.270785 
L 58.911113 419.523607 
L 60.826148 416.910292 
L 62.741182 407.135967 
L 64.656217 394.004265 
L 66.571251 381.447586 
L 68.486286 372.727947 
L 70.401321 369.405343 
L 72.316355 371.116245 
L 74.23139 376.178088 
L 76.146424 382.321494 
L 78.061459 387.110689 
L 79.976493 388.450103 
L 81.891528 385.623171 
L 83.806563 380.01068 
L 85.721597 374.350084 
L 87.636632 371.082187 
L 89.551666 371.421668 
L 91.466701 375.591231 
L 93.381735 383.23078 
L 95.29677 393.213809 
L 97.211805 403.34375 
L 99.126839 410.926041 
L 101.041874 414.144738 
L 102.956908 413.030043 
L 104.871943 409.145198 
L 106.786978 404.452406 
L 108.702012 400.453389 
L 110.617047 398.112056 
L 112.532081 398.051222 
L 114.447116 400.349333 
L 116.36215 404.23719 
L 118.277185 408.607322 
L 120.19222 413.062305 
L 122.107254 417.975602 
L 124.022289 423.212903 
L 125.937323 427.310071 
L 127.852358 428.43358 
L 129.767392 425.907141 
L 131.682427 420.488347 
L 133.597462 413.507773 
L 135.512496 406.141855 
L 137.427531 399.263411 
L 139.342565 393.420933 
L 141.2576 388.720822 
L 143.172634 384.845719 
L 145.087669 381.315293 
L 147.002704 377.810853 
L 148.917738 374.384519 
L 150.832773 371.486132 
L 152.747807 369.743223 
L 154.662842 369.575122 
L 156.577876 370.992671 
L 158.492911 373.742272 
L 160.407946 377.559054 
L 162.32298 382.337503 
L 164.238015 388.170592 
L 166.153049 395.044675 
L 168.068084 402.269015 
L 169.983118 408.452842 
L 171.898153 412.476486 
L 173.813188 414.44681 
L 175.728222 415.396897 
L 177.643257 416.094124 
L 179.558291 416.319617 
L 181.473326 415.211161 
L 183.388361 412.098287 
L 185.303395 407.090742 
L 187.21843 401.155522 
L 189.133464 395.702406 
L 191.048499 391.806705 
L 192.963533 389.631836 
L 194.878568 388.646493 
L 196.793603 388.386584 
L 198.708637 388.86738 
L 200.623672 390.297972 
L 202.538706 392.634154 
L 204.453741 395.526129 
L 206.368775 398.588528 
L 208.28381 401.612347 
L 210.198845 404.539316 
L 212.113879 407.356772 
L 214.028914 410.068862 
L 215.943948 412.709668 
L 217.858983 415.404601 
L 219.774017 418.401792 
L 221.689052 421.799902 
L 223.604087 425.240272 
L 225.519121 428.218036 
L 227.434156 430.752972 
L 229.34919 433.340353 
L 231.264225 436.184992 
L 233.179259 438.868255 
L 235.094294 440.876003 
L 237.009329 442.162354 
L 238.924363 443.114649 
L 240.839398 444.121269 
L 242.754432 445.16681 
L 244.669467 445.811081 
L 246.584501 445.71194 
L 248.499536 445.209338 
L 250.414571 445.136368 
L 252.329605 445.917396 
L 254.24464 447.101965 
L 256.159674 448.004093 
L 258.074709 448.558273 
L 259.989743 449.225862 
L 261.904778 450.224387 
L 263.819813 451.259185 
L 265.734847 451.991094 
L 267.649882 452.404092 
L 269.564916 452.71571 
L 271.479951 453.253732 
L 273.394986 454.371636 
L 275.31002 456.095809 
L 277.225055 457.811369 
L 279.140089 458.56066 
L 281.055124 457.74744 
L 282.970158 455.524737 
L 284.885193 452.582098 
L 286.800228 449.632193 
L 288.715262 447.06803 
L 290.630297 445.031472 
L 292.545331 443.669049 
L 294.460366 443.171172 
L 296.3754 443.563228 
L 298.290435 444.618135 
L 300.20547 446.012327 
L 302.120504 447.480791 
L 304.035539 448.823263 
L 305.950573 449.855404 
L 307.865608 450.392205 
L 309.780642 450.27599 
L 311.695677 449.477689 
L 313.610712 448.230239 
L 315.525746 447.045284 
L 317.440781 446.512276 
L 319.355815 446.97262 
L 321.27085 448.312742 
L 323.185884 450.068754 
L 325.100919 451.725233 
L 327.015954 452.882388 
L 328.930988 453.21845 
L 330.846023 452.518719 
L 332.761057 450.887342 
L 334.676092 448.788313 
L 336.591126 446.700177 
L 338.506161 444.804039 
L 340.421196 443.138593 
L 342.33623 441.93005 
L 344.251265 441.554858 
L 346.166299 442.201902 
L 348.081334 443.716894 
L 349.996368 445.740446 
L 351.911403 447.875372 
L 353.826438 449.735071 
L 355.741472 450.970555 
L 357.656507 451.410116 
L 359.571541 451.221029 
L 361.486576 450.843589 
L 363.401611 450.670354 
L 365.316645 450.769411 
L 367.23168 450.924151 
L 369.146714 450.866615 
L 371.061749 450.406147 
L 372.976783 449.454094 
L 374.891818 448.133684 
L 376.806853 446.837549 
L 378.721887 445.979339 
L 380.636922 445.690825 
L 382.551956 445.885755 
L 384.466991 446.529408 
L 386.382025 447.672399 
L 388.29706 449.256119 
L 390.212095 451.009547 
L 392.127129 452.565897 
L 394.042164 453.678249 
L 395.957198 454.370435 
L 397.872233 454.895051 
L 399.787267 455.495918 
L 401.702302 456.164894 
L 403.617337 456.6181 
L 405.532371 456.540279 
L 407.447406 455.89376 
L 409.36244 454.99291 
L 411.277475 454.254503 
L 413.192509 453.889624 
L 415.107544 453.844537 
L 417.022579 453.978098 
L 418.937613 454.244053 
L 420.852648 454.721379 
L 422.767682 455.482801 
L 424.682717 456.427533 
L 426.597751 457.260977 
L 428.512786 457.641005 
L 430.427821 457.352817 
L 432.342855 456.431918 
L 434.25789 455.218604 
L 436.172924 454.265632 
L 438.087959 454.057307 
L 440.002993 454.686715 
L 441.918028 455.765099 
L 443.833063 456.698655 
L 445.748097 457.14155 
L 447.663132 457.211648 
L 449.578166 457.279602 
L 451.493201 457.603025 
L 453.408236 458.152621 
L 455.32327 458.699483 
L 457.238305 459.056149 
L 459.153339 459.270433 
L 461.068374 459.576033 
L 462.983408 460.173612 
L 464.898443 461.12383 
L 466.813478 462.40936 
L 468.728512 463.965641 
L 470.643547 465.609318 
L 472.558581 467.034788 
L 474.473616 468.001669 
L 476.38865 468.549631 
L 478.303685 468.955303 
L 480.21872 469.45527 
L 482.133754 470.105107 
L 484.048789 470.908192 
L 485.963823 471.906409 
L 487.878858 473.055452 
L 489.793892 474.152601 
L 491.708927 475.04993 
L 493.623962 475.86768 
L 495.538996 476.809843 
L 497.454031 477.784149 
L 499.369065 478.399278 
L 501.2841 478.383361 
L 503.199134 477.854236 
L 505.114169 477.124668 
L 507.029204 476.371025 
L 508.944238 475.589316 
L 510.859273 474.795997 
L 512.774307 474.124086 
L 514.689342 473.678229 
L 516.604376 473.411258 
L 518.519411 473.243956 
L 520.434446 473.218418 
L 522.34948 473.383002 
L 524.264515 473.539823 
L 526.179549 473.271762 
L 528.094584 472.293589 
L 530.009618 470.723282 
L 531.924653 469.001254 
L 533.839688 467.613233 
L 535.754722 466.878794 
L 537.669757 466.889376 
L 539.584791 467.551393 
L 541.499826 468.685631 
L 543.414861 470.089807 
L 545.329895 471.492122 
L 547.24493 472.495996 
L 549.159964 472.723671 
L 551.074999 472.123826 
L 552.990033 471.10158 
L 554.905068 470.2894 
L 556.820103 470.200851 
L 558.735137 471.001539 
L 560.650172 472.401697 
L 562.565206 473.755708 
L 564.480241 474.48154 
L 566.395275 474.500635 
L 568.31031 474.218289 
L 570.225345 474.100151 
L 572.140379 474.344198 
L 574.055414 474.838107 
L 575.970448 475.230725 
L 577.885483 475.088893 
L 579.800517 474.204501 
L 581.715552 472.797783 
L 583.630587 471.316269 
L 585.545621 470.072983 
L 587.460656 469.168671 
L 589.37569 468.635172 
L 591.290725 468.490689 
L 593.205759 468.729287 
L 595.120794 469.371201 
L 597.035829 470.443066 
L 598.950863 471.821697 
L 600.865898 473.190281 
L 602.780932 474.259679 
L 604.695967 475.01488 
L 606.611001 475.670518 
L 608.526036 476.378258 
L 610.441071 477.003667 
L 612.356105 477.211556 
L 614.27114 476.797448 
L 616.186174 475.930484 
L 618.101209 475.043285 
L 620.016243 474.515701 
L 620.016243 419.458315 
L 620.016243 419.458315 
L 618.101209 418.976385 
L 616.186174 418.312947 
L 614.27114 418.129486 
L 612.356105 419.133481 
L 610.441071 421.444876 
L 608.526036 424.437709 
L 606.611001 427.407158 
L 604.695967 430.265635 
L 602.780932 433.392592 
L 600.865898 436.916065 
L 598.950863 440.36884 
L 597.035829 443.012445 
L 595.120794 444.318659 
L 593.205759 444.238909 
L 591.290725 443.306896 
L 589.37569 442.457538 
L 587.460656 442.424113 
L 585.545621 443.206282 
L 583.630587 444.236187 
L 581.715552 444.972336 
L 579.800517 445.1689 
L 577.885483 444.738105 
L 575.970448 443.690446 
L 574.055414 442.308007 
L 572.140379 441.17645 
L 570.225345 440.847037 
L 568.31031 441.41495 
L 566.395275 442.443405 
L 564.480241 443.313179 
L 562.565206 443.638223 
L 560.650172 443.345443 
L 558.735137 442.496607 
L 556.820103 441.176504 
L 554.905068 439.508537 
L 552.990033 437.691473 
L 551.074999 436.016646 
L 549.159964 434.739267 
L 547.24493 433.818406 
L 545.329895 432.922595 
L 543.414861 431.793092 
L 541.499826 430.427954 
L 539.584791 428.903177 
L 537.669757 427.32352 
L 535.754722 426.041051 
L 533.839688 425.597713 
L 531.924653 426.257723 
L 530.009618 427.752971 
L 528.094584 429.49082 
L 526.179549 430.741787 
L 524.264515 430.767789 
L 522.34948 429.351426 
L 520.434446 427.341108 
L 518.519411 426.172282 
L 516.604376 426.608346 
L 514.689342 428.195388 
L 512.774307 429.951454 
L 510.859273 431.284705 
L 508.944238 432.209413 
L 507.029204 432.912743 
L 505.114169 433.281077 
L 503.199134 432.913289 
L 501.2841 431.547156 
L 499.369065 429.309323 
L 497.454031 426.462267 
L 495.538996 423.079664 
L 493.623962 419.235515 
L 491.708927 415.508081 
L 489.793892 413.062676 
L 487.878858 413.059692 
L 485.963823 415.859549 
L 484.048789 420.606947 
L 482.133754 425.527187 
L 480.21872 428.896482 
L 478.303685 430.125085 
L 476.38865 430.08552 
L 474.473616 430.30854 
L 472.558581 431.734974 
L 470.643547 434.148997 
L 468.728512 436.650609 
L 466.813478 438.509997 
L 464.898443 439.628733 
L 462.983408 440.38973 
L 461.068374 441.179043 
L 459.153339 442.036439 
L 457.238305 442.672229 
L 455.32327 442.661096 
L 453.408236 441.604049 
L 451.493201 439.396013 
L 449.578166 436.611624 
L 447.663132 434.440632 
L 445.748097 433.83641 
L 443.833063 434.683994 
L 441.918028 435.969478 
L 440.002993 436.669392 
L 438.087959 436.329447 
L 436.172924 434.984044 
L 434.25789 432.881974 
L 432.342855 430.429427 
L 430.427821 428.206418 
L 428.512786 426.757897 
L 426.597751 426.228202 
L 424.682717 426.216852 
L 422.767682 426.073781 
L 420.852648 425.389144 
L 418.937613 424.202086 
L 417.022579 422.765362 
L 415.107544 421.264959 
L 413.192509 419.860314 
L 411.277475 418.862766 
L 409.36244 418.700154 
L 407.447406 419.619201 
L 405.532371 421.346338 
L 403.617337 423.088459 
L 401.702302 424.075223 
L 399.787267 424.22729 
L 397.872233 424.216883 
L 395.957198 424.752121 
L 394.042164 425.839848 
L 392.127129 426.892076 
L 390.212095 427.478635 
L 388.29706 427.689521 
L 386.382025 427.761547 
L 384.466991 427.704519 
L 382.551956 427.384368 
L 380.636922 426.690166 
L 378.721887 425.54375 
L 376.806853 424.023064 
L 374.891818 422.621491 
L 372.976783 422.190762 
L 371.061749 423.340658 
L 369.146714 425.793843 
L 367.23168 428.465128 
L 365.316645 430.300397 
L 363.401611 430.94648 
L 361.486576 430.548526 
L 359.571541 429.191359 
L 357.656507 426.847547 
L 355.741472 423.749491 
L 353.826438 420.520467 
L 351.911403 417.889552 
L 349.996368 416.280338 
L 348.081334 415.556284 
L 346.166299 415.112668 
L 344.251265 414.311349 
L 342.33623 412.920842 
L 340.421196 411.257458 
L 338.506161 409.993932 
L 336.591126 409.717298 
L 334.676092 410.474752 
L 332.761057 411.705329 
L 330.846023 412.667832 
L 328.930988 412.903356 
L 327.015954 412.196105 
L 325.100919 410.314834 
L 323.185884 407.302234 
L 321.27085 404.117756 
L 319.355815 402.383143 
L 317.440781 402.94503 
L 315.525746 404.894985 
L 313.610712 406.43199 
L 311.695677 406.506639 
L 309.780642 405.210065 
L 307.865608 402.783206 
L 305.950573 398.825416 
L 304.035539 392.588756 
L 302.120504 383.717729 
L 300.20547 372.695768 
L 298.290435 360.975762 
L 296.3754 350.783164 
L 294.460366 344.184176 
L 292.545331 341.550451 
L 290.630297 340.927064 
L 288.715262 339.436283 
L 286.800228 335.498802 
L 284.885193 329.714954 
L 282.970158 323.945491 
L 281.055124 319.731528 
L 279.140089 317.167766 
L 277.225055 314.920427 
L 275.31002 311.394789 
L 273.394986 305.942713 
L 271.479951 299.018341 
L 269.564916 291.758662 
L 267.649882 285.761963 
L 265.734847 282.768966 
L 263.819813 283.924115 
L 261.904778 289.136436 
L 259.989743 297.121702 
L 258.074709 306.112447 
L 256.159674 314.73826 
L 254.24464 322.38864 
L 252.329605 328.860446 
L 250.414571 333.847277 
L 248.499536 336.901362 
L 246.584501 337.757063 
L 244.669467 336.487718 
L 242.754432 333.372098 
L 240.839398 328.724801 
L 238.924363 322.900115 
L 237.009329 316.319055 
L 235.094294 309.354506 
L 233.179259 302.255295 
L 231.264225 295.422147 
L 229.34919 289.591475 
L 227.434156 285.204064 
L 225.519121 281.612013 
L 223.604087 277.648986 
L 221.689052 273.19357 
L 219.774017 269.615519 
L 217.858983 268.456139 
L 215.943948 269.875065 
L 214.028914 272.422902 
L 212.113879 274.340436 
L 210.198845 275.12267 
L 208.28381 275.589096 
L 206.368775 276.28173 
L 204.453741 276.362025 
L 202.538706 274.716561 
L 200.623672 271.853627 
L 198.708637 269.759491 
L 196.793603 269.575942 
L 194.878568 270.101046 
L 192.963533 269.158332 
L 191.048499 266.106231 
L 189.133464 262.513945 
L 187.21843 260.58149 
L 185.303395 261.225656 
L 183.388361 263.491377 
L 181.473326 265.402446 
L 179.558291 265.298373 
L 177.643257 262.675809 
L 175.728222 258.153328 
L 173.813188 252.776318 
L 171.898153 247.139614 
L 169.983118 241.024621 
L 168.068084 233.885522 
L 166.153049 225.561812 
L 164.238015 216.41493 
L 162.32298 207.039305 
L 160.407946 198.142518 
L 158.492911 190.52515 
L 156.577876 184.777021 
L 154.662842 180.849735 
L 152.747807 177.994568 
L 150.832773 175.238162 
L 148.917738 172.113157 
L 147.002704 168.991026 
L 145.087669 166.72212 
L 143.172634 166.155684 
L 141.2576 168.098874 
L 139.342565 173.397879 
L 137.427531 182.484315 
L 135.512496 194.559243 
L 133.597462 207.256457 
L 131.682427 217.449449 
L 129.767392 222.944618 
L 127.852358 223.736933 
L 125.937323 221.568397 
L 124.022289 218.443781 
L 122.107254 216.019877 
L 120.19222 215.873907 
L 118.277185 218.892514 
L 116.36215 224.014569 
L 114.447116 228.493273 
L 112.532081 229.942712 
L 110.617047 228.259958 
L 108.702012 225.972468 
L 106.786978 226.672546 
L 104.871943 232.427074 
L 102.956908 242.235911 
L 101.041874 252.742668 
L 99.126839 260.279929 
L 97.211805 262.848905 
L 95.29677 261.166837 
L 93.381735 257.947144 
L 91.466701 255.640124 
L 89.551666 254.803799 
L 87.636632 254.652513 
L 85.721597 254.374496 
L 83.806563 253.190053 
L 81.891528 249.677186 
L 79.976493 242.089092 
L 78.061459 229.735931 
L 76.146424 213.930063 
L 74.23139 197.527741 
L 72.316355 183.287594 
L 70.401321 172.030304 
L 68.486286 161.90009 
L 66.571251 149.307504 
L 64.656217 130.768356 
L 62.741182 104.609861 
L 60.826148 72.312896 
L 58.911113 39.217585 
L 56.996079 13.252669 
L 55.081044 0.771527 
L 53.166009 1.955643 
L 51.250975 10.565729 
L 49.33594 19.019367 
L 47.420906 23.432835 
z
" clip-path="url(#p87a2d72e2e)" style="fill: #d62728; fill-opacity: 0.1"/>
   </g>
   <g id="line2d_12">
    <path d="M 36.2 271.521429 
L 623.801429 271.521429 
" clip-path="url(#p87a2d72e2e)" style="fill: none; stroke-dasharray: 2.96,1.28; stroke-dashoffset: 0; stroke: #808080; stroke-width: 0.8"/>
   </g>
   <g id="line2d_13">
    <path d="M 47.420906 464.789286 
L 620.016243 464.789286 
L 620.016243 464.789286 
" clip-path="url(#p87a2d72e2e)" style="fill: none; stroke: #00b899; stroke-width: 2; stroke-linecap: round"/>
   </g>
   <g id="line2d_14">
    <path d="M 47.420906 89.31771 
L 49.33594 93.076362 
L 51.250975 99.888573 
L 53.166009 108.678775 
L 58.911113 138.464123 
L 72.316355 208.027877 
L 76.146424 227.922909 
L 81.891528 258.737876 
L 83.806563 268.39165 
L 85.721597 277.417446 
L 89.551666 293.722329 
L 93.381735 308.553611 
L 102.956908 343.420015 
L 106.786978 356.752591 
L 108.702012 362.861311 
L 110.617047 368.493873 
L 112.532081 373.614721 
L 114.447116 378.241996 
L 116.36215 382.41753 
L 118.277185 386.177693 
L 120.19222 389.576387 
L 124.022289 395.631255 
L 127.852358 401.021358 
L 131.682427 405.963899 
L 133.597462 408.274139 
L 135.512496 410.382555 
L 137.427531 412.241067 
L 141.2576 415.381748 
L 145.087669 418.089564 
L 148.917738 420.480816 
L 158.492911 426.103959 
L 160.407946 426.97465 
L 162.32298 427.645599 
L 173.813188 430.72863 
L 179.558291 431.857167 
L 185.303395 432.811995 
L 189.133464 433.270856 
L 196.793603 433.990943 
L 200.623672 434.743055 
L 204.453741 435.58466 
L 212.113879 436.677251 
L 217.858983 438.018112 
L 219.774017 438.319694 
L 221.689052 438.459201 
L 227.434156 438.619918 
L 231.264225 438.837402 
L 235.094294 438.597059 
L 242.754432 437.762573 
L 244.669467 437.711835 
L 246.584501 437.876807 
L 259.989743 440.155026 
L 263.819813 440.679739 
L 267.649882 441.342725 
L 269.564916 441.523932 
L 275.31002 441.707976 
L 279.140089 442.260035 
L 282.970158 442.8696 
L 292.545331 443.855877 
L 298.290435 444.834158 
L 302.120504 445.250392 
L 311.695677 445.954991 
L 313.610712 446.321798 
L 317.440781 447.374711 
L 321.27085 448.628304 
L 323.185884 449.542436 
L 325.100919 450.762498 
L 330.846023 455.034552 
L 332.761057 456.116863 
L 334.676092 456.914003 
L 336.591126 457.460572 
L 340.421196 458.083264 
L 348.081334 458.942059 
L 351.911403 459.088293 
L 363.401611 458.942479 
L 371.061749 459.074449 
L 378.721887 459.585171 
L 384.466991 459.893752 
L 390.212095 459.960824 
L 395.957198 460.069378 
L 403.617337 460.497906 
L 413.192509 461.248159 
L 417.022579 461.264889 
L 430.427821 460.839789 
L 434.25789 460.977646 
L 443.833063 461.569225 
L 451.493201 461.769273 
L 461.068374 462.328764 
L 470.643547 462.508565 
L 487.878858 462.847211 
L 505.114169 463.104369 
L 512.774307 463.449749 
L 518.519411 463.455858 
L 526.179549 463.469421 
L 539.584791 463.709579 
L 547.24493 463.60973 
L 554.905068 463.866391 
L 574.055414 464.344086 
L 583.630587 464.500372 
L 598.950863 464.506124 
L 616.186174 464.5957 
L 620.016243 464.640709 
L 620.016243 464.640709 
" clip-path="url(#p87a2d72e2e)" style="fill: none; stroke: #2ca02c; stroke-width: 2; stroke-linecap: round"/>
   </g>
   <g id="line2d_15">
    <path d="M 47.420906 132.640385 
L 49.33594 142.93503 
L 51.250975 159.376079 
L 55.081044 194.90628 
L 58.911113 229.370596 
L 60.826148 244.611594 
L 62.741182 255.872914 
L 64.656217 262.386311 
L 66.571251 265.377545 
L 68.486286 267.314019 
L 70.401321 270.717824 
L 72.316355 277.20192 
L 74.23139 286.852915 
L 76.146424 298.125779 
L 78.061459 308.42331 
L 79.976493 315.269597 
L 81.891528 317.650178 
L 83.806563 316.600367 
L 85.721597 314.36229 
L 87.636632 312.86735 
L 89.551666 313.112733 
L 91.466701 315.615678 
L 93.381735 320.588962 
L 95.29677 327.190323 
L 97.211805 333.096328 
L 99.126839 335.602985 
L 101.041874 333.443703 
L 102.956908 327.632977 
L 104.871943 320.786136 
L 106.786978 315.562476 
L 108.702012 313.212928 
L 110.617047 313.186007 
L 112.532081 313.996967 
L 114.447116 314.421303 
L 118.277185 313.749918 
L 120.19222 314.468106 
L 122.107254 316.99774 
L 125.937323 324.439234 
L 127.852358 326.085256 
L 129.767392 324.42588 
L 131.682427 318.968898 
L 133.597462 310.382115 
L 137.427531 290.873863 
L 139.342565 283.409406 
L 141.2576 278.409848 
L 143.172634 275.500701 
L 145.087669 274.018706 
L 147.002704 273.400939 
L 148.917738 273.248838 
L 150.832773 273.362147 
L 152.747807 273.868896 
L 154.662842 275.212429 
L 156.577876 277.884846 
L 158.492911 282.133711 
L 160.407946 287.850786 
L 162.32298 294.688404 
L 166.153049 310.303243 
L 168.068084 318.077268 
L 169.983118 324.738731 
L 171.898153 329.80805 
L 173.813188 333.611564 
L 175.728222 336.775113 
L 177.643257 339.384967 
L 179.558291 340.808995 
L 181.473326 340.306803 
L 183.388361 337.794832 
L 185.303395 334.158199 
L 187.21843 330.868506 
L 189.133464 329.108176 
L 191.048499 328.956468 
L 192.963533 329.395084 
L 194.878568 329.373769 
L 196.793603 328.981263 
L 198.708637 329.313435 
L 200.623672 331.075799 
L 202.538706 333.675358 
L 204.453741 335.944077 
L 206.368775 337.435129 
L 212.113879 340.848604 
L 214.028914 341.245882 
L 215.943948 341.292366 
L 217.858983 341.93037 
L 219.774017 344.008655 
L 221.689052 347.496736 
L 223.604087 351.444629 
L 225.519121 354.915025 
L 227.434156 357.978518 
L 229.34919 361.465914 
L 231.264225 365.803569 
L 235.094294 375.115255 
L 237.009329 379.240705 
L 238.924363 383.007382 
L 240.839398 386.423035 
L 242.754432 389.269454 
L 244.669467 391.1494 
L 246.584501 391.734501 
L 248.499536 391.05535 
L 250.414571 389.491823 
L 252.329605 387.388921 
L 254.24464 384.745302 
L 256.159674 381.371176 
L 259.989743 373.173782 
L 261.904778 369.680411 
L 263.819813 367.59165 
L 265.734847 367.38003 
L 267.649882 369.083028 
L 269.564916 372.237186 
L 275.31002 383.745299 
L 277.225055 386.365898 
L 279.140089 387.864213 
L 282.970158 389.735114 
L 286.800228 392.565498 
L 288.715262 393.252157 
L 292.545331 392.60975 
L 294.460366 393.677674 
L 296.3754 397.173196 
L 298.290435 402.796949 
L 302.120504 415.59926 
L 304.035539 420.70601 
L 305.950573 424.34041 
L 307.865608 426.587706 
L 309.780642 427.743028 
L 311.695677 427.992164 
L 313.610712 427.331114 
L 317.440781 424.728653 
L 319.355815 424.677881 
L 321.27085 426.215249 
L 325.100919 431.020034 
L 327.015954 432.539246 
L 328.930988 433.060903 
L 330.846023 432.593275 
L 332.761057 431.296336 
L 334.676092 429.631532 
L 336.591126 428.208737 
L 338.506161 427.398985 
L 340.421196 427.198026 
L 342.33623 427.425446 
L 344.251265 427.933103 
L 346.166299 428.657285 
L 348.081334 429.636589 
L 349.996368 431.010392 
L 351.911403 432.882462 
L 355.741472 437.360023 
L 357.656507 439.128832 
L 359.571541 440.206194 
L 361.486576 440.696057 
L 363.401611 440.808417 
L 365.316645 440.534904 
L 367.23168 439.69464 
L 371.061749 436.873402 
L 372.976783 435.822428 
L 374.891818 435.377587 
L 376.806853 435.430306 
L 380.636922 436.190495 
L 384.466991 437.116964 
L 386.382025 437.716973 
L 390.212095 439.244091 
L 392.127129 439.728986 
L 394.042164 439.759049 
L 395.957198 439.561278 
L 397.872233 439.555967 
L 401.702302 440.120059 
L 403.617337 439.85328 
L 405.532371 438.943309 
L 407.447406 437.756481 
L 409.36244 436.846532 
L 411.277475 436.558635 
L 413.192509 436.874969 
L 415.107544 437.554748 
L 422.767682 440.778291 
L 424.682717 441.322193 
L 428.512786 442.199451 
L 440.002993 445.678054 
L 441.918028 445.867289 
L 445.748097 445.48898 
L 447.663132 445.82614 
L 449.578166 446.945613 
L 451.493201 448.499519 
L 453.408236 449.878335 
L 455.32327 450.680289 
L 457.238305 450.864189 
L 462.983408 450.281671 
L 466.813478 450.459679 
L 468.728512 450.308125 
L 472.558581 449.384881 
L 474.473616 449.155104 
L 478.303685 449.540194 
L 480.21872 449.175876 
L 482.133754 447.816147 
L 484.048789 445.757569 
L 485.963823 443.882979 
L 487.878858 443.057572 
L 489.793892 443.607639 
L 491.708927 445.279006 
L 497.454031 452.123208 
L 499.369065 453.8543 
L 501.2841 454.965259 
L 503.199134 455.383762 
L 505.114169 455.202873 
L 507.029204 454.641884 
L 510.859273 453.040351 
L 516.604376 450.009802 
L 518.519411 449.708119 
L 520.434446 450.279763 
L 522.34948 451.367214 
L 524.264515 452.153806 
L 526.179549 452.006775 
L 528.094584 450.892204 
L 531.924653 447.629489 
L 533.839688 446.605473 
L 535.754722 446.459923 
L 537.669757 447.106448 
L 539.584791 448.227285 
L 545.329895 452.207358 
L 547.24493 453.157201 
L 549.159964 453.731469 
L 552.990033 454.396527 
L 554.905068 454.898968 
L 556.820103 455.688678 
L 560.650172 457.87357 
L 562.565206 458.696965 
L 564.480241 458.897359 
L 566.395275 458.47202 
L 568.31031 457.816619 
L 570.225345 457.473594 
L 572.140379 457.760324 
L 575.970448 459.460586 
L 577.885483 459.913499 
L 579.800517 459.686701 
L 581.715552 458.885059 
L 585.545621 456.639632 
L 587.460656 455.796392 
L 589.37569 455.546355 
L 591.290725 455.898792 
L 593.205759 456.484098 
L 595.120794 456.84493 
L 597.035829 456.727755 
L 598.950863 456.095269 
L 600.865898 455.053173 
L 604.695967 452.640257 
L 612.356105 448.172519 
L 614.27114 447.463467 
L 616.186174 447.121715 
L 620.016243 446.987008 
L 620.016243 446.987008 
" clip-path="url(#p87a2d72e2e)" style="fill: none; stroke: #d62728; stroke-width: 2; stroke-linecap: round"/>
   </g>
   <g id="line2d_16">
    <path d="M 47.420906 452.768756 
L 49.33594 462.592622 
L 51.250975 458.202506 
L 53.166009 454.538853 
L 55.081044 444.510686 
L 56.996079 439.590158 
L 58.911113 424.28058 
L 60.826148 413.376622 
L 62.741182 411.9354 
L 64.656217 414.026103 
L 66.571251 401.366453 
L 68.486286 401.074444 
L 70.401321 421.586371 
L 72.316355 390.405486 
L 74.23139 390.983812 
L 76.146424 403.895986 
L 78.061459 409.732102 
L 79.976493 401.41104 
L 81.891528 403.743611 
L 83.806563 388.16916 
L 85.721597 364.880369 
L 87.636632 370.129246 
L 89.551666 364.65446 
L 91.466701 367.32354 
L 93.381735 371.378368 
L 95.29677 351.336508 
L 97.211805 351.016174 
L 99.126839 342.611824 
L 101.041874 330.292742 
L 102.956908 324.46802 
L 104.871943 329.570596 
L 106.786978 342.156848 
L 108.702012 342.759364 
L 110.617047 329.45118 
L 112.532081 327.958026 
L 114.447116 355.324726 
L 116.36215 340.107543 
L 118.277185 322.026338 
L 120.19222 334.904832 
L 122.107254 327.858786 
L 124.022289 318.757687 
L 125.937323 322.980932 
L 129.767392 312.548366 
L 131.682427 315.683039 
L 133.597462 311.626428 
L 135.512496 304.121262 
L 137.427531 323.643222 
L 139.342565 321.677542 
L 141.2576 306.228278 
L 143.172634 319.868606 
L 145.087669 312.958987 
L 148.917738 301.096026 
L 150.832773 299.154203 
L 152.747807 311.697584 
L 154.662842 307.329045 
L 156.577876 317.844972 
L 158.492911 301.149728 
L 160.407946 311.241127 
L 162.32298 299.928764 
L 164.238015 299.68699 
L 166.153049 308.411409 
L 168.068084 298.973887 
L 169.983118 305.441069 
L 171.898153 291.947452 
L 173.813188 285.505682 
L 175.728222 292.223706 
L 177.643257 272.191201 
L 179.558291 263.522785 
L 181.473326 305.279008 
L 183.388361 276.956467 
L 185.303395 265.456675 
L 187.21843 264.799619 
L 189.133464 287.518235 
L 191.048499 274.382605 
L 192.963533 269.007574 
L 194.878568 281.427992 
L 196.793603 265.044546 
L 198.708637 252.013221 
L 200.623672 255.649667 
L 202.538706 271.882088 
L 204.453741 265.66123 
L 206.368775 255.000022 
L 208.28381 211.400971 
L 210.198845 244.331179 
L 212.113879 242.322859 
L 214.028914 228.387075 
L 215.943948 243.493884 
L 217.858983 222.524725 
L 219.774017 231.979245 
L 221.689052 235.701598 
L 223.604087 236.214127 
L 225.519121 240.505251 
L 227.434156 244.38601 
L 229.34919 236.687536 
L 231.264225 222.122852 
L 233.179259 236.627927 
L 235.094294 235.5301 
L 237.009329 231.784364 
L 238.924363 236.576987 
L 240.839398 226.083436 
L 242.754432 231.123102 
L 244.669467 231.418214 
L 246.584501 220.092769 
L 248.499536 226.320004 
L 250.414571 224.453837 
L 252.329605 223.350629 
L 254.24464 221.958221 
L 256.159674 222.52046 
L 258.074709 218.79471 
L 259.989743 218.45268 
L 261.904778 226.660884 
L 263.819813 245.707439 
L 265.734847 236.667308 
L 267.649882 235.134141 
L 269.564916 226.231731 
L 271.479951 222.016217 
L 273.394986 220.524859 
L 275.31002 223.582404 
L 277.225055 221.370734 
L 279.140089 224.269092 
L 281.055124 230.109982 
L 282.970158 223.270252 
L 284.885193 225.698858 
L 286.800228 241.717287 
L 288.715262 233.957583 
L 290.630297 242.84747 
L 292.545331 234.234273 
L 294.460366 227.308509 
L 296.3754 222.156894 
L 298.290435 221.656669 
L 300.20547 220.358884 
L 302.120504 210.733485 
L 304.035539 212.347543 
L 305.950573 220.663591 
L 307.865608 210.020831 
L 309.780642 204.114422 
L 311.695677 208.764964 
L 313.610712 211.88332 
L 315.525746 206.37822 
L 317.440781 198.580257 
L 319.355815 204.795297 
L 323.185884 190.755127 
L 325.100919 191.537924 
L 327.015954 194.584117 
L 328.930988 203.189317 
L 330.846023 198.369982 
L 332.761057 199.860759 
L 334.676092 205.441815 
L 336.591126 197.555152 
L 338.506161 202.202203 
L 340.421196 203.801689 
L 342.33623 197.903629 
L 344.251265 195.632693 
L 346.166299 207.026834 
L 348.081334 196.687902 
L 349.996368 187.267949 
L 351.911403 191.141212 
L 353.826438 191.31287 
L 355.741472 197.349244 
L 357.656507 195.356536 
L 359.571541 198.666181 
L 361.486576 198.271321 
L 363.401611 197.129553 
L 365.316645 196.363237 
L 367.23168 190.997762 
L 369.146714 191.727026 
L 371.061749 202.232248 
L 372.976783 184.235521 
L 374.891818 186.942571 
L 376.806853 193.756453 
L 378.721887 195.963362 
L 380.636922 194.314772 
L 382.551956 192.259221 
L 384.466991 182.612408 
L 386.382025 189.755708 
L 388.29706 191.465125 
L 390.212095 196.273741 
L 392.127129 188.352 
L 394.042164 191.785349 
L 395.957198 199.220179 
L 397.872233 193.804076 
L 399.787267 189.169142 
L 401.702302 181.27091 
L 403.617337 184.548891 
L 405.532371 187.521572 
L 407.447406 195.18546 
L 409.36244 199.961593 
L 411.277475 191.835155 
L 413.192509 190.055998 
L 415.107544 181.757831 
L 417.022579 185.950296 
L 418.937613 185.558958 
L 420.852648 180.494485 
L 422.767682 187.306123 
L 424.682717 182.637431 
L 426.597751 180.269418 
L 428.512786 180.933091 
L 430.427821 177.14935 
L 432.342855 181.466499 
L 434.25789 181.677379 
L 436.172924 177.905274 
L 438.087959 183.048529 
L 440.002993 176.577444 
L 441.918028 175.162881 
L 443.833063 185.139979 
L 445.748097 179.048442 
L 447.663132 179.272941 
L 449.578166 182.606605 
L 451.493201 180.509866 
L 453.408236 172.867245 
L 455.32327 176.909516 
L 457.238305 183.18751 
L 459.153339 189.021973 
L 461.068374 182.530545 
L 462.983408 182.287387 
L 464.898443 183.295313 
L 466.813478 177.924675 
L 468.728512 185.206569 
L 470.643547 185.595939 
L 472.558581 179.998705 
L 474.473616 188.262495 
L 476.38865 185.133498 
L 478.303685 173.206479 
L 480.21872 175.711418 
L 482.133754 184.288311 
L 484.048789 188.962141 
L 485.963823 206.308776 
L 487.878858 182.870335 
L 489.793892 175.533738 
L 491.708927 188.894733 
L 493.623962 188.841702 
L 495.538996 178.72326 
L 497.454031 189.017112 
L 499.369065 176.065876 
L 501.2841 175.167334 
L 503.199134 177.401157 
L 505.114169 175.775085 
L 507.029204 173.274731 
L 508.944238 172.54971 
L 510.859273 176.930044 
L 512.774307 187.522506 
L 514.689342 176.163856 
L 516.604376 180.762496 
L 518.519411 175.363917 
L 520.434446 170.741542 
L 522.34948 175.034275 
L 524.264515 174.725298 
L 526.179549 179.892065 
L 528.094584 183.103697 
L 530.009618 185.472533 
L 531.924653 169.6398 
L 533.839688 99.376973 
L 535.754722 164.886925 
L 537.669757 177.820802 
L 539.584791 174.524536 
L 541.499826 174.579456 
L 543.414861 174.827233 
L 545.329895 181.813636 
L 547.24493 179.91801 
L 549.159964 185.516684 
L 551.074999 171.486431 
L 552.990033 170.388231 
L 554.905068 180.663104 
L 556.820103 180.234248 
L 558.735137 177.887181 
L 562.565206 174.366219 
L 564.480241 174.519505 
L 566.395275 182.401958 
L 568.31031 173.220877 
L 570.225345 161.114879 
L 572.140379 174.501889 
L 574.055414 169.70557 
L 575.970448 166.973994 
L 577.885483 174.48444 
L 579.800517 169.691144 
L 581.715552 173.454351 
L 583.630587 176.06792 
L 585.545621 179.043894 
L 587.460656 178.356661 
L 589.37569 173.184961 
L 591.290725 170.142695 
L 593.205759 172.424679 
L 595.120794 174.954767 
L 597.035829 176.616573 
L 598.950863 166.191309 
L 600.865898 172.931167 
L 602.780932 182.099394 
L 604.695967 184.669966 
L 606.611001 169.359355 
L 608.526036 176.646742 
L 610.441071 179.300252 
L 612.356105 182.809207 
L 614.27114 180.077063 
L 616.186174 179.17923 
L 618.101209 184.958222 
L 620.016243 172.249606 
L 620.016243 172.249606 
" clip-path="url(#p87a2d72e2e)" style="fill: none; stroke: #1f77b4; stroke-linecap: round"/>
   </g>
   <g id="line2d_17">
    <path d="M 47.420906 84.349243 
L 49.33594 129.504233 
L 51.250975 140.51111 
L 53.166009 157.611361 
L 55.081044 156.730803 
L 56.996079 164.692149 
L 58.911113 161.319885 
L 60.826148 161.260611 
L 62.741182 174.609354 
L 64.656217 198.338309 
L 66.571251 192.514282 
L 68.486286 207.307093 
L 70.401321 261.150667 
L 72.316355 212.846235 
L 74.23139 237.640425 
L 76.146424 281.503085 
L 78.061459 314.022694 
L 79.976493 320.779326 
L 81.891528 340.729902 
L 83.806563 326.038133 
L 85.721597 294.128541 
L 87.636632 318.612385 
L 89.551666 319.283157 
L 93.381735 356.249818 
L 95.29677 334.31815 
L 97.211805 349.254221 
L 99.126839 342.806498 
L 101.041874 330.538094 
L 102.956908 331.407281 
L 104.871943 348.031437 
L 106.786978 378.2038 
L 108.702012 390.768988 
L 110.617047 382.179867 
L 112.532081 381.94476 
L 114.447116 442.359512 
L 116.36215 421.868416 
L 118.277185 394.132426 
L 120.19222 418.264834 
L 122.107254 411.451162 
L 124.022289 405.542928 
L 125.937323 415.752189 
L 127.852358 412.081894 
L 129.767392 406.818544 
L 131.682427 414.500521 
L 133.597462 407.855001 
L 135.512496 396.584602 
L 137.427531 431.431197 
L 139.342565 426.130341 
L 141.2576 402.203857 
L 143.172634 429.709273 
L 145.087669 417.182319 
L 147.002704 407.940932 
L 148.917738 400.749576 
L 150.832773 397.749997 
L 152.747807 420.994139 
L 154.662842 416.558414 
L 156.577876 439.586056 
L 158.492911 410.040626 
L 160.407946 431.873041 
L 162.32298 415.760993 
L 164.238015 414.960534 
L 166.153049 432.851745 
L 168.068084 418.368136 
L 169.983118 436.755712 
L 171.898153 412.758139 
L 173.813188 397.689351 
L 175.728222 414.002004 
L 177.643257 377.245108 
L 179.558291 362.803771 
L 181.473326 443.155265 
L 183.388361 387.120814 
L 185.303395 366.165005 
L 187.21843 362.505203 
L 189.133464 404.843653 
L 191.048499 381.033629 
L 192.963533 373.669644 
L 194.878568 398.95085 
L 196.793603 364.274577 
L 198.708637 335.290385 
L 200.623672 350.358736 
L 202.538706 381.230135 
L 204.453741 375.905575 
L 206.368775 348.983229 
L 208.28381 268.477749 
L 210.198845 331.048318 
L 212.113879 330.450219 
L 214.028914 304.795985 
L 215.943948 331.911004 
L 217.858983 294.093293 
L 219.774017 312.564883 
L 221.689052 320.315389 
L 225.519121 332.115123 
L 227.434156 337.00313 
L 229.34919 325.412778 
L 231.264225 303.059729 
L 233.179259 329.039759 
L 235.094294 326.531848 
L 237.009329 320.037491 
L 238.924363 329.961581 
L 240.839398 312.946918 
L 242.754432 319.043965 
L 244.669467 320.520098 
L 246.584501 299.812121 
L 248.499536 313.381874 
L 250.414571 310.673821 
L 252.329605 306.385307 
L 254.24464 303.526761 
L 256.159674 307.952152 
L 258.074709 298.933475 
L 259.989743 295.774942 
L 261.904778 311.256871 
L 263.819813 346.254178 
L 265.734847 330.335673 
L 267.649882 328.585669 
L 269.564916 316.448692 
L 271.479951 307.221725 
L 273.394986 301.38139 
L 275.31002 311.436788 
L 277.225055 311.130432 
L 279.140089 314.183745 
L 281.055124 324.281561 
L 282.970158 316.191502 
L 284.885193 318.558019 
L 286.800228 350.469258 
L 288.715262 335.817417 
L 290.630297 354.095989 
L 292.545331 336.592043 
L 294.460366 320.649356 
L 296.3754 316.764314 
L 298.290435 315.662353 
L 300.20547 318.969962 
L 302.120504 299.854573 
L 304.035539 304.133046 
L 305.950573 322.499736 
L 307.865608 302.831026 
L 309.780642 289.814526 
L 311.695677 299.088382 
L 313.610712 306.638325 
L 315.525746 296.956416 
L 317.440781 282.504582 
L 319.355815 292.861431 
L 321.27085 281.11418 
L 323.185884 271.016095 
L 325.100919 275.501049 
L 327.015954 284.638596 
L 328.930988 303.954323 
L 330.846023 298.718766 
L 332.761057 302.282905 
L 334.676092 311.612043 
L 336.591126 298.460303 
L 338.506161 306.281709 
L 340.421196 311.242534 
L 342.33623 298.581086 
L 344.251265 295.78207 
L 346.166299 317.800153 
L 349.996368 281.366409 
L 351.911403 289.404351 
L 353.826438 289.626465 
L 355.741472 302.29163 
L 357.656507 298.722794 
L 359.571541 305.253213 
L 361.486576 304.112666 
L 363.401611 301.45626 
L 365.316645 301.426036 
L 367.23168 291.341804 
L 369.146714 291.344325 
L 371.061749 309.655906 
L 372.976783 276.864695 
L 374.891818 282.349776 
L 376.806853 294.909515 
L 378.721887 299.930245 
L 380.636922 297.523901 
L 382.551956 293.054867 
L 384.466991 275.706457 
L 386.382025 289.09234 
L 388.29706 292.360382 
L 390.212095 301.796975 
L 392.127129 287.608368 
L 394.042164 293.59651 
L 395.957198 307.233172 
L 397.872233 296.75497 
L 399.787267 289.170595 
L 401.702302 274.441519 
L 403.617337 281.407381 
L 405.532371 286.548388 
L 407.447406 300.270476 
L 409.36244 309.546984 
L 411.277475 294.678134 
L 413.192509 291.774173 
L 415.107544 276.347637 
L 417.022579 284.945367 
L 418.937613 282.911353 
L 420.852648 274.261437 
L 422.767682 287.01849 
L 424.682717 278.050721 
L 426.597751 273.252842 
L 428.512786 274.49785 
L 430.427821 267.823407 
L 432.342855 276.0697 
L 434.25789 277.115123 
L 436.172924 269.330651 
L 438.087959 280.392459 
L 440.002993 268.838942 
L 441.918028 266.202644 
L 443.833063 285.35226 
L 445.748097 273.663057 
L 447.663132 271.419764 
L 449.578166 280.615702 
L 451.493201 276.927786 
L 453.408236 263.500801 
L 455.32327 271.589766 
L 457.238305 283.713494 
L 459.153339 294.285573 
L 461.068374 281.558579 
L 462.983408 281.907606 
L 464.898443 283.741442 
L 466.813478 273.993339 
L 468.728512 287.219819 
L 470.643547 288.265551 
L 472.558581 277.528879 
L 474.473616 292.877226 
L 476.38865 286.474283 
L 478.303685 265.370338 
L 480.21872 270.404305 
L 482.133754 286.70005 
L 484.048789 293.59445 
L 485.963823 325.91525 
L 487.878858 280.706075 
L 489.793892 268.039454 
L 491.708927 293.857639 
L 493.623962 294.136683 
L 495.538996 276.532308 
L 497.454031 295.050133 
L 499.369065 272.410249 
L 501.2841 270.120963 
L 503.199134 274.950912 
L 505.114169 272.036892 
L 507.029204 266.51316 
L 508.944238 265.728498 
L 510.859273 274.140403 
L 512.774307 293.942514 
L 514.689342 272.209888 
L 516.604376 281.061346 
L 518.519411 269.181874 
L 520.434446 259.792248 
L 522.34948 271.028083 
L 524.264515 270.857255 
L 526.179549 279.454275 
L 528.094584 285.088022 
L 530.009618 289.801961 
L 531.924653 259.23299 
L 533.839688 124.99196 
L 535.754722 249.613641 
L 537.669757 275.435034 
L 539.584791 268.72832 
L 543.414861 269.305954 
L 545.329895 283.565307 
L 547.24493 280.49199 
L 549.159964 290.044108 
L 551.074999 264.343426 
L 552.990033 262.615795 
L 554.905068 282.016484 
L 556.820103 281.083285 
L 560.650172 274.1462 
L 562.565206 271.632686 
L 564.480241 272.953489 
L 566.395275 286.881429 
L 568.31031 268.744775 
L 570.225345 246.117646 
L 572.140379 271.251231 
L 574.055414 262.467569 
L 575.970448 258.529778 
L 577.885483 273.311442 
L 579.800517 263.608159 
L 581.715552 270.315179 
L 583.630587 275.007062 
L 585.545621 281.04772 
L 587.460656 278.387807 
L 589.37569 267.548763 
L 591.290725 263.686957 
L 593.205759 268.822774 
L 597.035829 276.046684 
L 598.950863 256.266737 
L 600.865898 269.081691 
L 602.780932 285.339166 
L 604.695967 289.677841 
L 606.611001 261.086163 
L 608.526036 274.85994 
L 610.441071 279.706783 
L 612.356105 284.899634 
L 614.27114 280.20047 
L 616.186174 279.121358 
L 618.101209 289.582715 
L 620.016243 265.85824 
L 620.016243 265.85824 
" clip-path="url(#p87a2d72e2e)" style="fill: none; stroke: #ff7f0e; stroke-linecap: round"/>
   </g>
   <g id="line2d_18">
    <path d="M 47.420906 464.789286 
L 53.166009 419.6713 
L 58.911113 429.313548 
L 64.656217 416.602214 
L 70.401321 396.496074 
L 76.146424 390.986218 
L 81.891528 371.605059 
L 87.636632 342.53332 
L 93.381735 287.821419 
L 99.126839 308.362547 
L 104.871943 298.623636 
L 110.617047 287.2656 
L 116.36215 277.961677 
L 122.107254 271.171021 
L 127.852358 274.820092 
L 133.597462 255.173107 
L 139.342565 220.349852 
L 145.087669 218.223241 
L 150.832773 209.716797 
L 156.577876 203.796118 
L 162.32298 195.362172 
L 168.068084 191.205614 
L 173.813188 194.999682 
L 179.558291 176.271005 
L 185.303395 177.575971 
L 191.048499 171.872787 
L 196.793603 174.16856 
L 202.538706 169.117859 
L 208.28381 173.395247 
L 214.028914 155.536548 
L 219.774017 145.096822 
L 225.519121 137.387857 
L 231.264225 121.655769 
L 237.009329 124.821519 
L 242.754432 132.022997 
L 248.499536 117.716705 
L 254.24464 106.407001 
L 259.989743 112.182683 
L 265.734847 107.180314 
L 271.479951 95.097297 
L 277.225055 96.378097 
L 282.970158 90.626581 
L 288.715262 95.048965 
L 294.460366 84.826733 
L 300.20547 82.530959 
L 305.950573 98.722202 
L 311.695677 85.044227 
L 317.440781 89.998264 
L 323.185884 85.93837 
L 328.930988 89.563275 
L 334.676092 84.585072 
L 340.421196 91.569056 
L 346.166299 86.953344 
L 351.911403 86.228363 
L 357.656507 90.650747 
L 363.401611 88.693298 
L 369.146714 86.953344 
L 374.891818 85.479216 
L 380.636922 94.565644 
L 386.382025 85.189223 
L 392.127129 87.146672 
L 397.872233 80.984333 
L 403.617337 87.944151 
L 409.36244 86.252529 
L 415.107544 88.644966 
L 420.852648 89.152453 
L 426.597751 84.53674 
L 432.342855 85.310053 
L 438.087959 86.784181 
L 443.833063 85.358385 
L 449.578166 88.524136 
L 455.32327 86.494189 
L 461.068374 93.06735 
L 466.813478 87.001676 
L 472.558581 96.523093 
L 478.303685 85.116725 
L 484.048789 86.131699 
L 489.793892 81.008499 
L 495.538996 87.992483 
L 501.2841 83.642597 
L 507.029204 86.445857 
L 512.774307 84.101752 
L 518.519411 78.253571 
L 524.264515 98.746368 
L 530.009618 84.681736 
L 535.754722 83.618431 
L 541.499826 87.243336 
L 547.24493 80.887669 
L 552.990033 89.925766 
L 558.735137 86.0592 
L 564.480241 84.633404 
L 570.225345 87.050008 
L 575.970448 86.590853 
L 581.715552 81.395156 
L 587.460656 85.769208 
L 593.205759 89.442445 
L 598.950863 81.419322 
L 604.695967 81.153496 
L 610.441071 79.993526 
L 616.186174 82.555125 
" clip-path="url(#p87a2d72e2e)" style="fill: none; stroke: #000000; stroke-width: 1.5; stroke-linecap: round"/>
   </g>
   <g id="line2d_19">
    <path d="M 47.420906 78.253571 
L 53.166009 101.290528 
L 58.911113 116.343515 
L 64.656217 131.436412 
L 70.401321 126.25954 
L 76.146424 145.552622 
L 81.891528 177.073875 
L 87.636632 185.63465 
L 93.381735 195.779214 
L 99.126839 224.966966 
L 104.871943 229.825757 
L 110.617047 233.569504 
L 116.36215 245.824565 
L 122.107254 250.652925 
L 127.852358 272.281655 
L 133.597462 266.40897 
L 139.342565 263.154907 
L 145.087669 284.358396 
L 150.832773 284.291537 
L 156.577876 287.847014 
L 162.32298 286.484476 
L 168.068084 304.58282 
L 173.813188 320.081762 
L 179.558291 315.585233 
L 185.303395 322.124763 
L 191.048499 328.055097 
L 196.793603 335.848745 
L 202.538706 351.962982 
L 208.28381 365.992292 
L 214.028914 365.242029 
L 219.774017 367.372451 
L 225.519121 373.206891 
L 231.264225 382.970041 
L 237.009329 382.193306 
L 242.754432 384.774488 
L 248.499536 391.659477 
L 254.24464 387.555025 
L 259.989743 392.230498 
L 265.734847 389.393268 
L 271.479951 391.596353 
L 277.225055 397.709622 
L 282.970158 396.232676 
L 288.715262 404.713039 
L 294.460366 408.231763 
L 300.20547 410.771993 
L 305.950573 419.290449 
L 311.695677 421.697348 
L 317.440781 426.372065 
L 323.185884 427.554818 
L 328.930988 430.684667 
L 334.676092 429.072358 
L 340.421196 428.429504 
L 346.166299 426.300511 
L 351.911403 429.903554 
L 357.656507 436.424797 
L 363.401611 435.369679 
L 369.146714 435.610173 
L 374.891818 434.374563 
L 380.636922 437.007373 
L 386.382025 438.182199 
L 392.127129 440.374542 
L 397.872233 442.869983 
L 403.617337 444.639583 
L 409.36244 446.499391 
L 415.107544 446.972887 
L 420.852648 446.846573 
L 426.597751 450.142248 
L 432.342855 451.925358 
L 438.087959 453.172583 
L 443.833063 453.431556 
L 449.578166 452.749546 
L 455.32327 457.805284 
L 461.068374 454.373492 
L 466.813478 454.502803 
L 472.558581 456.442432 
L 478.303685 455.932622 
L 484.048789 455.421935 
L 489.793892 451.563672 
L 495.538996 454.966056 
L 501.2841 458.433655 
L 507.029204 459.359691 
L 512.774307 457.067591 
L 518.519411 456.930075 
L 524.264515 457.058705 
L 530.009618 457.775635 
L 535.754722 457.330589 
L 541.499826 458.817557 
L 547.24493 460.352284 
L 552.990033 461.443273 
L 558.735137 460.103979 
L 564.480241 460.646723 
L 570.225345 461.32574 
L 575.970448 462.134255 
L 581.715552 462.839633 
L 587.460656 464.789286 
L 593.205759 462.490699 
L 598.950863 460.56522 
L 604.695967 459.493453 
L 610.441071 460.388258 
L 616.186174 457.681432 
" clip-path="url(#p87a2d72e2e)" style="fill: none; stroke: #7b3ab8; stroke-width: 1.5; stroke-linecap: round"/>
   </g>
   <g id="patch_3">
    <path d="M 36.2 472.52 
L 36.2 39.6 
" style="fill: none; stroke: #ffffff; stroke-width: 0.8; stroke-linejoin: miter; stroke-linecap: square"/>
   </g>
   <g id="patch_4">
    <path d="M 623.801429 472.52 
L 623.801429 39.6 
" style="fill: none; stroke: #ffffff; stroke-width: 0.8; stroke-linejoin: miter; stroke-linecap: square"/>
   </g>
   <g id="patch_5">
    <path d="M 36.2 472.52 
L 623.801429 472.52 
" style="fill: none; stroke: #ffffff; stroke-width: 0.8; stroke-linejoin: miter; stroke-linecap: square"/>
   </g>
   <g id="patch_6">
    <path d="M 36.2 39.6 
L 623.801429 39.6 
" style="fill: none; stroke: #ffffff; stroke-width: 0.8; stroke-linejoin: miter; stroke-linecap: square"/>
   </g>
  </g>
  <g id="text_4">
   <!-- Acrobot-v1 | CMU-Net (PM) -->
   <g style="fill: #262626" transform="translate(187.277344 23.835938) scale(0.18 -0.18)">
    <defs>
     <path id="DejaVuSans-Bold-41" d="M 3419 850 
L 1538 850 
L 1241 0 
L 31 0 
L 1759 4666 
L 3194 4666 
L 4922 0 
L 3713 0 
L 3419 850 
z
M 1838 1716 
L 3116 1716 
L 2478 3572 
L 1838 1716 
z
" transform="scale(0.015625)"/>
     <path id="DejaVuSans-Bold-63" d="M 3366 3391 
L 3366 2478 
Q 3138 2634 2908 2709 
Q 2678 2784 2431 2784 
Q 1963 2784 1702 2511 
Q 1441 2238 1441 1747 
Q 1441 1256 1702 982 
Q 1963 709 2431 709 
Q 2694 709 2930 787 
Q 3166 866 3366 1019 
L 3366 103 
Q 3103 6 2833 -42 
Q 2563 -91 2291 -91 
Q 1344 -91 809 395 
Q 275 881 275 1747 
Q 275 2613 809 3098 
Q 1344 3584 2291 3584 
Q 2566 3584 2833 3536 
Q 3100 3488 3366 3391 
z
" transform="scale(0.015625)"/>
     <path id="DejaVuSans-Bold-72" d="M 3138 2547 
Q 2991 2616 2845 2648 
Q 2700 2681 2553 2681 
Q 2122 2681 1889 2404 
Q 1656 2128 1656 1613 
L 1656 0 
L 538 0 
L 538 3500 
L 1656 3500 
L 1656 2925 
Q 1872 3269 2151 3426 
Q 2431 3584 2822 3584 
Q 2878 3584 2943 3579 
Q 3009 3575 3134 3559 
L 3138 2547 
z
" transform="scale(0.015625)"/>
     <path id="DejaVuSans-Bold-6f" d="M 2203 2784 
Q 1831 2784 1636 2517 
Q 1441 2250 1441 1747 
Q 1441 1244 1636 976 
Q 1831 709 2203 709 
Q 2569 709 2762 976 
Q 2956 1244 2956 1747 
Q 2956 2250 2762 2517 
Q 2569 2784 2203 2784 
z
M 2203 3584 
Q 3106 3584 3614 3096 
Q 4122 2609 4122 1747 
Q 4122 884 3614 396 
Q 3106 -91 2203 -91 
Q 1297 -91 786 396 
Q 275 884 275 1747 
Q 275 2609 786 3096 
Q 1297 3584 2203 3584 
z
" transform="scale(0.015625)"/>
     <path id="DejaVuSans-Bold-62" d="M 2400 722 
Q 2759 722 2948 984 
Q 3138 1247 3138 1747 
Q 3138 2247 2948 2509 
Q 2759 2772 2400 2772 
Q 2041 2772 1848 2508 
Q 1656 2244 1656 1747 
Q 1656 1250 1848 986 
Q 2041 722 2400 722 
z
M 1656 2988 
Q 1888 3294 2169 3439 
Q 2450 3584 2816 3584 
Q 3463 3584 3878 3070 
Q 4294 2556 4294 1747 
Q 4294 938 3878 423 
Q 3463 -91 2816 -91 
Q 2450 -91 2169 54 
Q 1888 200 1656 506 
L 1656 0 
L 538 0 
L 538 4863 
L 1656 4863 
L 1656 2988 
z
" transform="scale(0.015625)"/>
     <path id="DejaVuSans-Bold-74" d="M 1759 4494 
L 1759 3500 
L 2913 3500 
L 2913 2700 
L 1759 2700 
L 1759 1216 
Q 1759 972 1856 886 
Q 1953 800 2241 800 
L 2816 800 
L 2816 0 
L 1856 0 
Q 1194 0 917 276 
Q 641 553 641 1216 
L 641 2700 
L 84 2700 
L 84 3500 
L 641 3500 
L 641 4494 
L 1759 4494 
z
" transform="scale(0.015625)"/>
     <path id="DejaVuSans-Bold-2d" d="M 347 2297 
L 2309 2297 
L 2309 1388 
L 347 1388 
L 347 2297 
z
" transform="scale(0.015625)"/>
     <path id="DejaVuSans-Bold-76" d="M 97 3500 
L 1216 3500 
L 2088 1081 
L 2956 3500 
L 4078 3500 
L 2700 0 
L 1472 0 
L 97 3500 
z
" transform="scale(0.015625)"/>
     <path id="DejaVuSans-Bold-31" d="M 750 831 
L 1813 831 
L 1813 3847 
L 722 3622 
L 722 4441 
L 1806 4666 
L 2950 4666 
L 2950 831 
L 4013 831 
L 4013 0 
L 750 0 
L 750 831 
z
" transform="scale(0.015625)"/>
     <path id="DejaVuSans-Bold-20" transform="scale(0.015625)"/>
     <path id="DejaVuSans-Bold-7c" d="M 1522 4891 
L 1522 -1509 
L 813 -1509 
L 813 4891 
L 1522 4891 
z
" transform="scale(0.015625)"/>
     <path id="DejaVuSans-Bold-43" d="M 4288 256 
Q 3956 84 3597 -3 
Q 3238 -91 2847 -91 
Q 1681 -91 1000 561 
Q 319 1213 319 2328 
Q 319 3447 1000 4098 
Q 1681 4750 2847 4750 
Q 3238 4750 3597 4662 
Q 3956 4575 4288 4403 
L 4288 3438 
Q 3953 3666 3628 3772 
Q 3303 3878 2944 3878 
Q 2300 3878 1931 3465 
Q 1563 3053 1563 2328 
Q 1563 1606 1931 1193 
Q 2300 781 2944 781 
Q 3303 781 3628 887 
Q 3953 994 4288 1222 
L 4288 256 
z
" transform="scale(0.015625)"/>
     <path id="DejaVuSans-Bold-4d" d="M 588 4666 
L 2119 4666 
L 3181 2169 
L 4250 4666 
L 5778 4666 
L 5778 0 
L 4641 0 
L 4641 3413 
L 3566 897 
L 2803 897 
L 1728 3413 
L 1728 0 
L 588 0 
L 588 4666 
z
" transform="scale(0.015625)"/>
     <path id="DejaVuSans-Bold-55" d="M 588 4666 
L 1791 4666 
L 1791 1869 
Q 1791 1291 1980 1042 
Q 2169 794 2597 794 
Q 3028 794 3217 1042 
Q 3406 1291 3406 1869 
L 3406 4666 
L 4609 4666 
L 4609 1869 
Q 4609 878 4112 393 
Q 3616 -91 2597 -91 
Q 1581 -91 1084 393 
Q 588 878 588 1869 
L 588 4666 
z
" transform="scale(0.015625)"/>
     <path id="DejaVuSans-Bold-4e" d="M 588 4666 
L 1931 4666 
L 3628 1466 
L 3628 4666 
L 4769 4666 
L 4769 0 
L 3425 0 
L 1728 3200 
L 1728 0 
L 588 0 
L 588 4666 
z
" transform="scale(0.015625)"/>
     <path id="DejaVuSans-Bold-65" d="M 4031 1759 
L 4031 1441 
L 1416 1441 
Q 1456 1047 1700 850 
Q 1944 653 2381 653 
Q 2734 653 3104 758 
Q 3475 863 3866 1075 
L 3866 213 
Q 3469 63 3072 -14 
Q 2675 -91 2278 -91 
Q 1328 -91 801 392 
Q 275 875 275 1747 
Q 275 2603 792 3093 
Q 1309 3584 2216 3584 
Q 3041 3584 3536 3087 
Q 4031 2591 4031 1759 
z
M 2881 2131 
Q 2881 2450 2695 2645 
Q 2509 2841 2209 2841 
Q 1884 2841 1681 2658 
Q 1478 2475 1428 2131 
L 2881 2131 
z
" transform="scale(0.015625)"/>
     <path id="DejaVuSans-Bold-28" d="M 2413 -844 
L 1484 -844 
Q 1006 -72 778 623 
Q 550 1319 550 2003 
Q 550 2688 779 3389 
Q 1009 4091 1484 4856 
L 2413 4856 
Q 2013 4116 1813 3408 
Q 1613 2700 1613 2009 
Q 1613 1319 1811 609 
Q 2009 -100 2413 -844 
z
" transform="scale(0.015625)"/>
     <path id="DejaVuSans-Bold-50" d="M 588 4666 
L 2584 4666 
Q 3475 4666 3951 4270 
Q 4428 3875 4428 3144 
Q 4428 2409 3951 2014 
Q 3475 1619 2584 1619 
L 1791 1619 
L 1791 0 
L 588 0 
L 588 4666 
z
M 1791 3794 
L 1791 2491 
L 2456 2491 
Q 2806 2491 2997 2661 
Q 3188 2831 3188 3144 
Q 3188 3456 2997 3625 
Q 2806 3794 2456 3794 
L 1791 3794 
z
" transform="scale(0.015625)"/>
     <path id="DejaVuSans-Bold-29" d="M 513 -844 
Q 913 -100 1113 609 
Q 1313 1319 1313 2009 
Q 1313 2700 1113 3408 
Q 913 4116 513 4856 
L 1441 4856 
Q 1916 4091 2145 3389 
Q 2375 2688 2375 2003 
Q 2375 1319 2147 623 
Q 1919 -72 1441 -844 
L 513 -844 
z
" transform="scale(0.015625)"/>
    </defs>
    <use xlink:href="#DejaVuSans-Bold-41"/>
    <use xlink:href="#DejaVuSans-Bold-63" transform="translate(77.392578 0)"/>
    <use xlink:href="#DejaVuSans-Bold-72" transform="translate(136.669922 0)"/>
    <use xlink:href="#DejaVuSans-Bold-6f" transform="translate(185.986328 0)"/>
    <use xlink:href="#DejaVuSans-Bold-62" transform="translate(254.6875 0)"/>
    <use xlink:href="#DejaVuSans-Bold-6f" transform="translate(326.269531 0)"/>
    <use xlink:href="#DejaVuSans-Bold-74" transform="translate(394.970703 0)"/>
    <use xlink:href="#DejaVuSans-Bold-2d" transform="translate(442.773438 0)"/>
    <use xlink:href="#DejaVuSans-Bold-76" transform="translate(484.277344 0)"/>
    <use xlink:href="#DejaVuSans-Bold-31" transform="translate(549.462891 0)"/>
    <use xlink:href="#DejaVuSans-Bold-20" transform="translate(619.042969 0)"/>
    <use xlink:href="#DejaVuSans-Bold-7c" transform="translate(653.857422 0)"/>
    <use xlink:href="#DejaVuSans-Bold-20" transform="translate(690.380859 0)"/>
    <use xlink:href="#DejaVuSans-Bold-43" transform="translate(725.195312 0)"/>
    <use xlink:href="#DejaVuSans-Bold-4d" transform="translate(798.583984 0)"/>
    <use xlink:href="#DejaVuSans-Bold-55" transform="translate(898.095703 0)"/>
    <use xlink:href="#DejaVuSans-Bold-2d" transform="translate(979.296875 0)"/>
    <use xlink:href="#DejaVuSans-Bold-4e" transform="translate(1020.800781 0)"/>
    <use xlink:href="#DejaVuSans-Bold-65" transform="translate(1104.492188 0)"/>
    <use xlink:href="#DejaVuSans-Bold-74" transform="translate(1172.314453 0)"/>
    <use xlink:href="#DejaVuSans-Bold-20" transform="translate(1220.117188 0)"/>
    <use xlink:href="#DejaVuSans-Bold-28" transform="translate(1254.931641 0)"/>
    <use xlink:href="#DejaVuSans-Bold-50" transform="translate(1300.634766 0)"/>
    <use xlink:href="#DejaVuSans-Bold-4d" transform="translate(1373.925781 0)"/>
    <use xlink:href="#DejaVuSans-Bold-29" transform="translate(1473.4375 0)"/>
   </g>
  </g>
 </g>
 <defs>
  <clipPath id="p87a2d72e2e">
   <rect x="36.2" y="39.6" width="587.601429" height="432.92"/>
  </clipPath>
 </defs>
</svg>
