<?xml version="1.0" encoding="utf-8" standalone="no"?>
<!DOCTYPE svg PUBLIC "-//W3C//DTD SVG 1.1//EN"
  "http://www.w3.org/Graphics/SVG/1.1/DTD/svg11.dtd">
<svg xmlns:xlink="http://www.w3.org/1999/xlink" width="648pt" height="504pt" viewBox="0 0 648 504" xmlns="http://www.w3.org/2000/svg" version="1.1">
 <metadata>
  <rdf:RDF xmlns:dc="http://purl.org/dc/elements/1.1/" xmlns:cc="http://creativecommons.org/ns#" xmlns:rdf="http://www.w3.org/1999/02/22-rdf-syntax-ns#">
   <cc:Work>
    <dc:type rdf:resource="http://purl.org/dc/dcmitype/StillImage"/>
    <dc:date>2025-07-31T05:18:32.554268</dc:date>
    <dc:format>image/svg+xml</dc:format>
    <dc:creator>
     <cc:Agent>
      <dc:title>Matplotlib v3.10.0, https://matplotlib.org/</dc:title>
     </cc:Agent>
    </dc:creator>
   </cc:Work>
  </rdf:RDF>
 </metadata>
 <defs>
  <style type="text/css">*{stroke-linejoin: round; stroke-linecap: butt}</style>
 </defs>
 <g id="figure_1">
  <g id="patch_1">
   <path d="M 0 504 
L 648 504 
L 648 0 
L 0 0 
z
" style="fill: #ffffff"/>
  </g>
  <g id="axes_1">
   <g id="patch_2">
    <path d="M 36.2 472.52 
L 623.801429 472.52 
L 623.801429 39.6 
L 36.2 39.6 
z
" style="fill: #eaeaf2"/>
   </g>
   <g id="matplotlib.axis_1">
    <g id="xtick_1">
     <g id="line2d_1">
      <path d="M 47.420906 472.52 
L 47.420906 39.6 
" clip-path="url(#p578ac3ec2e)" style="fill: none; stroke: #ffffff; stroke-width: 0.8; stroke-linecap: round"/>
     </g>
     <g id="text_1">
      <!-- 0 -->
      <g style="fill: #262626" transform="translate(42.967156 490.157813) scale(0.14 -0.14)">
       <defs>
        <path id="DejaVuSans-30" d="M 2034 4250 
Q 1547 4250 1301 3770 
Q 1056 3291 1056 2328 
Q 1056 1369 1301 889 
Q 1547 409 2034 409 
Q 2525 409 2770 889 
Q 3016 1369 3016 2328 
Q 3016 3291 2770 3770 
Q 2525 4250 2034 4250 
z
M 2034 4750 
Q 2819 4750 3233 4129 
Q 3647 3509 3647 2328 
Q 3647 1150 3233 529 
Q 2819 -91 2034 -91 
Q 1250 -91 836 529 
Q 422 1150 422 2328 
Q 422 3509 836 4129 
Q 1250 4750 2034 4750 
z
" transform="scale(0.015625)"/>
       </defs>
       <use xlink:href="#DejaVuSans-30"/>
      </g>
     </g>
    </g>
    <g id="xtick_2">
     <g id="line2d_2">
      <path d="M 608.466191 472.52 
L 608.466191 39.6 
" clip-path="url(#p578ac3ec2e)" style="fill: none; stroke: #ffffff; stroke-width: 0.8; stroke-linecap: round"/>
     </g>
     <g id="text_2">
      <!-- 600000 -->
      <g style="fill: #262626" transform="translate(581.743691 490.157813) scale(0.14 -0.14)">
       <defs>
        <path id="DejaVuSans-36" d="M 2113 2584 
Q 1688 2584 1439 2293 
Q 1191 2003 1191 1497 
Q 1191 994 1439 701 
Q 1688 409 2113 409 
Q 2538 409 2786 701 
Q 3034 994 3034 1497 
Q 3034 2003 2786 2293 
Q 2538 2584 2113 2584 
z
M 3366 4563 
L 3366 3988 
Q 3128 4100 2886 4159 
Q 2644 4219 2406 4219 
Q 1781 4219 1451 3797 
Q 1122 3375 1075 2522 
Q 1259 2794 1537 2939 
Q 1816 3084 2150 3084 
Q 2853 3084 3261 2657 
Q 3669 2231 3669 1497 
Q 3669 778 3244 343 
Q 2819 -91 2113 -91 
Q 1303 -91 875 529 
Q 447 1150 447 2328 
Q 447 3434 972 4092 
Q 1497 4750 2381 4750 
Q 2619 4750 2861 4703 
Q 3103 4656 3366 4563 
z
" transform="scale(0.015625)"/>
       </defs>
       <use xlink:href="#DejaVuSans-36"/>
       <use xlink:href="#DejaVuSans-30" transform="translate(63.623047 0)"/>
       <use xlink:href="#DejaVuSans-30" transform="translate(127.246094 0)"/>
       <use xlink:href="#DejaVuSans-30" transform="translate(190.869141 0)"/>
       <use xlink:href="#DejaVuSans-30" transform="translate(254.492188 0)"/>
       <use xlink:href="#DejaVuSans-30" transform="translate(318.115234 0)"/>
      </g>
     </g>
    </g>
   </g>
   <g id="matplotlib.axis_2">
    <g id="ytick_1">
     <g id="line2d_3">
      <path d="M 36.2 464.789286 
L 623.801429 464.789286 
" clip-path="url(#p578ac3ec2e)" style="fill: none; stroke: #ffffff; stroke-width: 0.8; stroke-linecap: round"/>
     </g>
    </g>
    <g id="ytick_2">
     <g id="line2d_4">
      <path d="M 36.2 416.472321 
L 623.801429 416.472321 
" clip-path="url(#p578ac3ec2e)" style="fill: none; stroke: #ffffff; stroke-width: 0.8; stroke-linecap: round"/>
     </g>
    </g>
    <g id="ytick_3">
     <g id="line2d_5">
      <path d="M 36.2 368.155357 
L 623.801429 368.155357 
" clip-path="url(#p578ac3ec2e)" style="fill: none; stroke: #ffffff; stroke-width: 0.8; stroke-linecap: round"/>
     </g>
    </g>
    <g id="ytick_4">
     <g id="line2d_6">
      <path d="M 36.2 319.838393 
L 623.801429 319.838393 
" clip-path="url(#p578ac3ec2e)" style="fill: none; stroke: #ffffff; stroke-width: 0.8; stroke-linecap: round"/>
     </g>
    </g>
    <g id="ytick_5">
     <g id="line2d_7">
      <path d="M 36.2 271.521429 
L 623.801429 271.521429 
" clip-path="url(#p578ac3ec2e)" style="fill: none; stroke: #ffffff; stroke-width: 0.8; stroke-linecap: round"/>
     </g>
    </g>
    <g id="ytick_6">
     <g id="line2d_8">
      <path d="M 36.2 223.204464 
L 623.801429 223.204464 
" clip-path="url(#p578ac3ec2e)" style="fill: none; stroke: #ffffff; stroke-width: 0.8; stroke-linecap: round"/>
     </g>
    </g>
    <g id="ytick_7">
     <g id="line2d_9">
      <path d="M 36.2 174.8875 
L 623.801429 174.8875 
" clip-path="url(#p578ac3ec2e)" style="fill: none; stroke: #ffffff; stroke-width: 0.8; stroke-linecap: round"/>
     </g>
    </g>
    <g id="ytick_8">
     <g id="line2d_10">
      <path d="M 36.2 126.570536 
L 623.801429 126.570536 
" clip-path="url(#p578ac3ec2e)" style="fill: none; stroke: #ffffff; stroke-width: 0.8; stroke-linecap: round"/>
     </g>
    </g>
    <g id="ytick_9">
     <g id="line2d_11">
      <path d="M 36.2 78.253571 
L 623.801429 78.253571 
" clip-path="url(#p578ac3ec2e)" style="fill: none; stroke: #ffffff; stroke-width: 0.8; stroke-linecap: round"/>
     </g>
    </g>
    <g id="text_3">
     <!-- Normalized Axis -->
     <g style="fill: #262626" transform="translate(21.8725 320.56875) rotate(-90) scale(0.16 -0.16)">
      <defs>
       <path id="DejaVuSans-4e" d="M 628 4666 
L 1478 4666 
L 3547 763 
L 3547 4666 
L 4159 4666 
L 4159 0 
L 3309 0 
L 1241 3903 
L 1241 0 
L 628 0 
L 628 4666 
z
" transform="scale(0.015625)"/>
       <path id="DejaVuSans-6f" d="M 1959 3097 
Q 1497 3097 1228 2736 
Q 959 2375 959 1747 
Q 959 1119 1226 758 
Q 1494 397 1959 397 
Q 2419 397 2687 759 
Q 2956 1122 2956 1747 
Q 2956 2369 2687 2733 
Q 2419 3097 1959 3097 
z
M 1959 3584 
Q 2709 3584 3137 3096 
Q 3566 2609 3566 1747 
Q 3566 888 3137 398 
Q 2709 -91 1959 -91 
Q 1206 -91 779 398 
Q 353 888 353 1747 
Q 353 2609 779 3096 
Q 1206 3584 1959 3584 
z
" transform="scale(0.015625)"/>
       <path id="DejaVuSans-72" d="M 2631 2963 
Q 2534 3019 2420 3045 
Q 2306 3072 2169 3072 
Q 1681 3072 1420 2755 
Q 1159 2438 1159 1844 
L 1159 0 
L 581 0 
L 581 3500 
L 1159 3500 
L 1159 2956 
Q 1341 3275 1631 3429 
Q 1922 3584 2338 3584 
Q 2397 3584 2469 3576 
Q 2541 3569 2628 3553 
L 2631 2963 
z
" transform="scale(0.015625)"/>
       <path id="DejaVuSans-6d" d="M 3328 2828 
Q 3544 3216 3844 3400 
Q 4144 3584 4550 3584 
Q 5097 3584 5394 3201 
Q 5691 2819 5691 2113 
L 5691 0 
L 5113 0 
L 5113 2094 
Q 5113 2597 4934 2840 
Q 4756 3084 4391 3084 
Q 3944 3084 3684 2787 
Q 3425 2491 3425 1978 
L 3425 0 
L 2847 0 
L 2847 2094 
Q 2847 2600 2669 2842 
Q 2491 3084 2119 3084 
Q 1678 3084 1418 2786 
Q 1159 2488 1159 1978 
L 1159 0 
L 581 0 
L 581 3500 
L 1159 3500 
L 1159 2956 
Q 1356 3278 1631 3431 
Q 1906 3584 2284 3584 
Q 2666 3584 2933 3390 
Q 3200 3197 3328 2828 
z
" transform="scale(0.015625)"/>
       <path id="DejaVuSans-61" d="M 2194 1759 
Q 1497 1759 1228 1600 
Q 959 1441 959 1056 
Q 959 750 1161 570 
Q 1363 391 1709 391 
Q 2188 391 2477 730 
Q 2766 1069 2766 1631 
L 2766 1759 
L 2194 1759 
z
M 3341 1997 
L 3341 0 
L 2766 0 
L 2766 531 
Q 2569 213 2275 61 
Q 1981 -91 1556 -91 
Q 1019 -91 701 211 
Q 384 513 384 1019 
Q 384 1609 779 1909 
Q 1175 2209 1959 2209 
L 2766 2209 
L 2766 2266 
Q 2766 2663 2505 2880 
Q 2244 3097 1772 3097 
Q 1472 3097 1187 3025 
Q 903 2953 641 2809 
L 641 3341 
Q 956 3463 1253 3523 
Q 1550 3584 1831 3584 
Q 2591 3584 2966 3190 
Q 3341 2797 3341 1997 
z
" transform="scale(0.015625)"/>
       <path id="DejaVuSans-6c" d="M 603 4863 
L 1178 4863 
L 1178 0 
L 603 0 
L 603 4863 
z
" transform="scale(0.015625)"/>
       <path id="DejaVuSans-69" d="M 603 3500 
L 1178 3500 
L 1178 0 
L 603 0 
L 603 3500 
z
M 603 4863 
L 1178 4863 
L 1178 4134 
L 603 4134 
L 603 4863 
z
" transform="scale(0.015625)"/>
       <path id="DejaVuSans-7a" d="M 353 3500 
L 3084 3500 
L 3084 2975 
L 922 459 
L 3084 459 
L 3084 0 
L 275 0 
L 275 525 
L 2438 3041 
L 353 3041 
L 353 3500 
z
" transform="scale(0.015625)"/>
       <path id="DejaVuSans-65" d="M 3597 1894 
L 3597 1613 
L 953 1613 
Q 991 1019 1311 708 
Q 1631 397 2203 397 
Q 2534 397 2845 478 
Q 3156 559 3463 722 
L 3463 178 
Q 3153 47 2828 -22 
Q 2503 -91 2169 -91 
Q 1331 -91 842 396 
Q 353 884 353 1716 
Q 353 2575 817 3079 
Q 1281 3584 2069 3584 
Q 2775 3584 3186 3129 
Q 3597 2675 3597 1894 
z
M 3022 2063 
Q 3016 2534 2758 2815 
Q 2500 3097 2075 3097 
Q 1594 3097 1305 2825 
Q 1016 2553 972 2059 
L 3022 2063 
z
" transform="scale(0.015625)"/>
       <path id="DejaVuSans-64" d="M 2906 2969 
L 2906 4863 
L 3481 4863 
L 3481 0 
L 2906 0 
L 2906 525 
Q 2725 213 2448 61 
Q 2172 -91 1784 -91 
Q 1150 -91 751 415 
Q 353 922 353 1747 
Q 353 2572 751 3078 
Q 1150 3584 1784 3584 
Q 2172 3584 2448 3432 
Q 2725 3281 2906 2969 
z
M 947 1747 
Q 947 1113 1208 752 
Q 1469 391 1925 391 
Q 2381 391 2643 752 
Q 2906 1113 2906 1747 
Q 2906 2381 2643 2742 
Q 2381 3103 1925 3103 
Q 1469 3103 1208 2742 
Q 947 2381 947 1747 
z
" transform="scale(0.015625)"/>
       <path id="DejaVuSans-20" transform="scale(0.015625)"/>
       <path id="DejaVuSans-41" d="M 2188 4044 
L 1331 1722 
L 3047 1722 
L 2188 4044 
z
M 1831 4666 
L 2547 4666 
L 4325 0 
L 3669 0 
L 3244 1197 
L 1141 1197 
L 716 0 
L 50 0 
L 1831 4666 
z
" transform="scale(0.015625)"/>
       <path id="DejaVuSans-78" d="M 3513 3500 
L 2247 1797 
L 3578 0 
L 2900 0 
L 1881 1375 
L 863 0 
L 184 0 
L 1544 1831 
L 300 3500 
L 978 3500 
L 1906 2253 
L 2834 3500 
L 3513 3500 
z
" transform="scale(0.015625)"/>
       <path id="DejaVuSans-73" d="M 2834 3397 
L 2834 2853 
Q 2591 2978 2328 3040 
Q 2066 3103 1784 3103 
Q 1356 3103 1142 2972 
Q 928 2841 928 2578 
Q 928 2378 1081 2264 
Q 1234 2150 1697 2047 
L 1894 2003 
Q 2506 1872 2764 1633 
Q 3022 1394 3022 966 
Q 3022 478 2636 193 
Q 2250 -91 1575 -91 
Q 1294 -91 989 -36 
Q 684 19 347 128 
L 347 722 
Q 666 556 975 473 
Q 1284 391 1588 391 
Q 1994 391 2212 530 
Q 2431 669 2431 922 
Q 2431 1156 2273 1281 
Q 2116 1406 1581 1522 
L 1381 1569 
Q 847 1681 609 1914 
Q 372 2147 372 2553 
Q 372 3047 722 3315 
Q 1072 3584 1716 3584 
Q 2034 3584 2315 3537 
Q 2597 3491 2834 3397 
z
" transform="scale(0.015625)"/>
      </defs>
      <use xlink:href="#DejaVuSans-4e"/>
      <use xlink:href="#DejaVuSans-6f" transform="translate(74.804688 0)"/>
      <use xlink:href="#DejaVuSans-72" transform="translate(135.986328 0)"/>
      <use xlink:href="#DejaVuSans-6d" transform="translate(175.349609 0)"/>
      <use xlink:href="#DejaVuSans-61" transform="translate(272.761719 0)"/>
      <use xlink:href="#DejaVuSans-6c" transform="translate(334.041016 0)"/>
      <use xlink:href="#DejaVuSans-69" transform="translate(361.824219 0)"/>
      <use xlink:href="#DejaVuSans-7a" transform="translate(389.607422 0)"/>
      <use xlink:href="#DejaVuSans-65" transform="translate(442.097656 0)"/>
      <use xlink:href="#DejaVuSans-64" transform="translate(503.621094 0)"/>
      <use xlink:href="#DejaVuSans-20" transform="translate(567.097656 0)"/>
      <use xlink:href="#DejaVuSans-41" transform="translate(598.884766 0)"/>
      <use xlink:href="#DejaVuSans-78" transform="translate(667.292969 0)"/>
      <use xlink:href="#DejaVuSans-69" transform="translate(726.472656 0)"/>
      <use xlink:href="#DejaVuSans-73" transform="translate(754.255859 0)"/>
     </g>
    </g>
   </g>
   <g id="FillBetweenPolyCollection_1">
    <path d="M 47.420906 464.789286 
L 47.420906 464.789286 
L 49.33594 464.789286 
L 51.250975 464.789286 
L 53.166009 464.789286 
L 55.081044 464.789286 
L 56.996079 464.789286 
L 58.911113 464.789286 
L 60.826148 464.789286 
L 62.741182 464.789286 
L 64.656217 464.789286 
L 66.571251 464.789286 
L 68.486286 464.789286 
L 70.401321 464.789286 
L 72.316355 464.789286 
L 74.23139 464.789286 
L 76.146424 464.789286 
L 78.061459 464.789286 
L 79.976493 464.789286 
L 81.891528 464.789286 
L 83.806563 464.789286 
L 85.721597 464.789286 
L 87.636632 464.789286 
L 89.551666 464.789286 
L 91.466701 464.789286 
L 93.381735 464.789286 
L 95.29677 464.789286 
L 97.211805 464.789286 
L 99.126839 464.789286 
L 101.041874 464.789286 
L 102.956908 464.789286 
L 104.871943 464.789286 
L 106.786978 464.789286 
L 108.702012 464.789286 
L 110.617047 464.789286 
L 112.532081 464.789286 
L 114.447116 464.789286 
L 116.36215 464.789286 
L 118.277185 464.789286 
L 120.19222 464.789286 
L 122.107254 464.789286 
L 124.022289 464.789286 
L 125.937323 464.789286 
L 127.852358 464.789286 
L 129.767392 464.789286 
L 131.682427 464.789286 
L 133.597462 464.789286 
L 135.512496 464.789286 
L 137.427531 464.789286 
L 139.342565 464.789286 
L 141.2576 464.789286 
L 143.172634 464.789286 
L 145.087669 464.789286 
L 147.002704 464.789286 
L 148.917738 464.789286 
L 150.832773 464.789286 
L 152.747807 464.789286 
L 154.662842 464.789286 
L 156.577876 464.789286 
L 158.492911 464.789286 
L 160.407946 464.789286 
L 162.32298 464.789286 
L 164.238015 464.789286 
L 166.153049 464.789286 
L 168.068084 464.789286 
L 169.983118 464.789286 
L 171.898153 464.789286 
L 173.813188 464.789286 
L 175.728222 464.789286 
L 177.643257 464.789286 
L 179.558291 464.789286 
L 181.473326 464.789286 
L 183.388361 464.789286 
L 185.303395 464.789286 
L 187.21843 464.789286 
L 189.133464 464.789286 
L 191.048499 464.789286 
L 192.963533 464.789286 
L 194.878568 464.789286 
L 196.793603 464.789286 
L 198.708637 464.789286 
L 200.623672 464.789286 
L 202.538706 464.789286 
L 204.453741 464.789286 
L 206.368775 464.789286 
L 208.28381 464.789286 
L 210.198845 464.789286 
L 212.113879 464.789286 
L 214.028914 464.789286 
L 215.943948 464.789286 
L 217.858983 464.789286 
L 219.774017 464.789286 
L 221.689052 464.789286 
L 223.604087 464.789286 
L 225.519121 464.789286 
L 227.434156 464.789286 
L 229.34919 464.789286 
L 231.264225 464.789286 
L 233.179259 464.789286 
L 235.094294 464.789286 
L 237.009329 464.789286 
L 238.924363 464.789286 
L 240.839398 464.789286 
L 242.754432 464.789286 
L 244.669467 464.789286 
L 246.584501 464.789286 
L 248.499536 464.789286 
L 250.414571 464.789286 
L 252.329605 464.789286 
L 254.24464 464.789286 
L 256.159674 464.789286 
L 258.074709 464.789286 
L 259.989743 464.789286 
L 261.904778 464.789286 
L 263.819813 464.789286 
L 265.734847 464.789286 
L 267.649882 464.789286 
L 269.564916 464.789286 
L 271.479951 464.789286 
L 273.394986 464.789286 
L 275.31002 464.789286 
L 277.225055 464.789286 
L 279.140089 464.789286 
L 281.055124 464.789286 
L 282.970158 464.789286 
L 284.885193 464.789286 
L 286.800228 464.789286 
L 288.715262 464.789286 
L 290.630297 464.789286 
L 292.545331 464.789286 
L 294.460366 464.789286 
L 296.3754 464.789286 
L 298.290435 464.789286 
L 300.20547 464.789286 
L 302.120504 464.789286 
L 304.035539 464.789286 
L 305.950573 464.789286 
L 307.865608 464.789286 
L 309.780642 464.789286 
L 311.695677 464.789286 
L 313.610712 464.789286 
L 315.525746 464.789286 
L 317.440781 464.789286 
L 319.355815 464.789286 
L 321.27085 464.789286 
L 323.185884 464.789286 
L 325.100919 464.789286 
L 327.015954 464.789286 
L 328.930988 464.789286 
L 330.846023 464.789286 
L 332.761057 464.789286 
L 334.676092 464.789286 
L 336.591126 464.789286 
L 338.506161 464.789286 
L 340.421196 464.789286 
L 342.33623 464.789286 
L 344.251265 464.789286 
L 346.166299 464.789286 
L 348.081334 464.789286 
L 349.996368 464.789286 
L 351.911403 464.789286 
L 353.826438 464.789286 
L 355.741472 464.789286 
L 357.656507 464.789286 
L 359.571541 464.789286 
L 361.486576 464.789286 
L 363.401611 464.789286 
L 365.316645 464.789286 
L 367.23168 464.789286 
L 369.146714 464.789286 
L 371.061749 464.789286 
L 372.976783 464.789286 
L 374.891818 464.789286 
L 376.806853 464.789286 
L 378.721887 464.789286 
L 380.636922 464.789286 
L 382.551956 464.789286 
L 384.466991 464.789286 
L 386.382025 464.789286 
L 388.29706 464.789286 
L 390.212095 464.789286 
L 392.127129 464.789286 
L 394.042164 464.789286 
L 395.957198 464.789286 
L 397.872233 464.789286 
L 399.787267 464.789286 
L 401.702302 464.789286 
L 403.617337 464.789286 
L 405.532371 464.789286 
L 407.447406 464.789286 
L 409.36244 464.789286 
L 411.277475 464.789286 
L 413.192509 464.789286 
L 415.107544 464.789286 
L 417.022579 464.789286 
L 418.937613 464.789286 
L 420.852648 464.789286 
L 422.767682 464.789286 
L 424.682717 464.789286 
L 426.597751 464.789286 
L 428.512786 464.789286 
L 430.427821 464.789286 
L 432.342855 464.789286 
L 434.25789 464.789286 
L 436.172924 464.789286 
L 438.087959 464.789286 
L 440.002993 464.789286 
L 441.918028 464.789286 
L 443.833063 464.789286 
L 445.748097 464.789286 
L 447.663132 464.789286 
L 449.578166 464.789286 
L 451.493201 464.789286 
L 453.408236 464.789286 
L 455.32327 464.789286 
L 457.238305 464.789286 
L 459.153339 464.789286 
L 461.068374 464.789286 
L 462.983408 464.789286 
L 464.898443 464.789286 
L 466.813478 464.789286 
L 468.728512 464.789286 
L 470.643547 464.789286 
L 472.558581 464.789286 
L 474.473616 464.789286 
L 476.38865 464.789286 
L 478.303685 464.789286 
L 480.21872 464.789286 
L 482.133754 464.789286 
L 484.048789 464.789286 
L 485.963823 464.789286 
L 487.878858 464.789286 
L 489.793892 464.789286 
L 491.708927 464.789286 
L 493.623962 464.789286 
L 495.538996 464.789286 
L 497.454031 464.789286 
L 499.369065 464.789286 
L 501.2841 464.789286 
L 503.199134 464.789286 
L 505.114169 464.789286 
L 507.029204 464.789286 
L 508.944238 464.789286 
L 510.859273 464.789286 
L 512.774307 464.789286 
L 514.689342 464.789286 
L 516.604376 464.789286 
L 518.519411 464.789286 
L 520.434446 464.789286 
L 522.34948 464.789286 
L 524.264515 464.789286 
L 526.179549 464.789286 
L 528.094584 464.789286 
L 530.009618 464.789286 
L 531.924653 464.789286 
L 533.839688 464.789286 
L 535.754722 464.789286 
L 537.669757 464.789286 
L 539.584791 464.789286 
L 541.499826 464.789286 
L 543.414861 464.789286 
L 545.329895 464.789286 
L 547.24493 464.789286 
L 549.159964 464.789286 
L 551.074999 464.789286 
L 552.990033 464.789286 
L 554.905068 464.789286 
L 556.820103 464.789286 
L 558.735137 464.789286 
L 560.650172 464.789286 
L 562.565206 464.789286 
L 564.480241 464.789286 
L 566.395275 464.789286 
L 568.31031 464.789286 
L 570.225345 464.789286 
L 572.140379 464.789286 
L 574.055414 464.789286 
L 575.970448 464.789286 
L 577.885483 464.789286 
L 579.800517 464.789286 
L 581.715552 464.789286 
L 583.630587 464.789286 
L 585.545621 464.789286 
L 587.460656 464.789286 
L 589.37569 464.789286 
L 591.290725 464.789286 
L 593.205759 464.789286 
L 595.120794 464.789286 
L 597.035829 464.789286 
L 598.950863 464.789286 
L 600.865898 464.789286 
L 602.780932 464.789286 
L 604.695967 464.789286 
L 606.611001 464.789286 
L 608.526036 464.789286 
L 610.441071 464.789286 
L 612.356105 464.789286 
L 614.27114 464.789286 
L 616.186174 464.789286 
L 618.101209 464.789286 
L 620.016243 464.789286 
L 620.016243 464.789286 
L 620.016243 464.789286 
L 618.101209 464.789286 
L 616.186174 464.789286 
L 614.27114 464.789286 
L 612.356105 464.789286 
L 610.441071 464.789286 
L 608.526036 464.789286 
L 606.611001 464.789286 
L 604.695967 464.789286 
L 602.780932 464.789286 
L 600.865898 464.789286 
L 598.950863 464.789286 
L 597.035829 464.789286 
L 595.120794 464.789286 
L 593.205759 464.789286 
L 591.290725 464.789286 
L 589.37569 464.789286 
L 587.460656 464.789286 
L 585.545621 464.789286 
L 583.630587 464.789286 
L 581.715552 464.789286 
L 579.800517 464.789286 
L 577.885483 464.789286 
L 575.970448 464.789286 
L 574.055414 464.789286 
L 572.140379 464.789286 
L 570.225345 464.789286 
L 568.31031 464.789286 
L 566.395275 464.789286 
L 564.480241 464.789286 
L 562.565206 464.789286 
L 560.650172 464.789286 
L 558.735137 464.789286 
L 556.820103 464.789286 
L 554.905068 464.789286 
L 552.990033 464.789286 
L 551.074999 464.789286 
L 549.159964 464.789286 
L 547.24493 464.789286 
L 545.329895 464.789286 
L 543.414861 464.789286 
L 541.499826 464.789286 
L 539.584791 464.789286 
L 537.669757 464.789286 
L 535.754722 464.789286 
L 533.839688 464.789286 
L 531.924653 464.789286 
L 530.009618 464.789286 
L 528.094584 464.789286 
L 526.179549 464.789286 
L 524.264515 464.789286 
L 522.34948 464.789286 
L 520.434446 464.789286 
L 518.519411 464.789286 
L 516.604376 464.789286 
L 514.689342 464.789286 
L 512.774307 464.789286 
L 510.859273 464.789286 
L 508.944238 464.789286 
L 507.029204 464.789286 
L 505.114169 464.789286 
L 503.199134 464.789286 
L 501.2841 464.789286 
L 499.369065 464.789286 
L 497.454031 464.789286 
L 495.538996 464.789286 
L 493.623962 464.789286 
L 491.708927 464.789286 
L 489.793892 464.789286 
L 487.878858 464.789286 
L 485.963823 464.789286 
L 484.048789 464.789286 
L 482.133754 464.789286 
L 480.21872 464.789286 
L 478.303685 464.789286 
L 476.38865 464.789286 
L 474.473616 464.789286 
L 472.558581 464.789286 
L 470.643547 464.789286 
L 468.728512 464.789286 
L 466.813478 464.789286 
L 464.898443 464.789286 
L 462.983408 464.789286 
L 461.068374 464.789286 
L 459.153339 464.789286 
L 457.238305 464.789286 
L 455.32327 464.789286 
L 453.408236 464.789286 
L 451.493201 464.789286 
L 449.578166 464.789286 
L 447.663132 464.789286 
L 445.748097 464.789286 
L 443.833063 464.789286 
L 441.918028 464.789286 
L 440.002993 464.789286 
L 438.087959 464.789286 
L 436.172924 464.789286 
L 434.25789 464.789286 
L 432.342855 464.789286 
L 430.427821 464.789286 
L 428.512786 464.789286 
L 426.597751 464.789286 
L 424.682717 464.789286 
L 422.767682 464.789286 
L 420.852648 464.789286 
L 418.937613 464.789286 
L 417.022579 464.789286 
L 415.107544 464.789286 
L 413.192509 464.789286 
L 411.277475 464.789286 
L 409.36244 464.789286 
L 407.447406 464.789286 
L 405.532371 464.789286 
L 403.617337 464.789286 
L 401.702302 464.789286 
L 399.787267 464.789286 
L 397.872233 464.789286 
L 395.957198 464.789286 
L 394.042164 464.789286 
L 392.127129 464.789286 
L 390.212095 464.789286 
L 388.29706 464.789286 
L 386.382025 464.789286 
L 384.466991 464.789286 
L 382.551956 464.789286 
L 380.636922 464.789286 
L 378.721887 464.789286 
L 376.806853 464.789286 
L 374.891818 464.789286 
L 372.976783 464.789286 
L 371.061749 464.789286 
L 369.146714 464.789286 
L 367.23168 464.789286 
L 365.316645 464.789286 
L 363.401611 464.789286 
L 361.486576 464.789286 
L 359.571541 464.789286 
L 357.656507 464.789286 
L 355.741472 464.789286 
L 353.826438 464.789286 
L 351.911403 464.789286 
L 349.996368 464.789286 
L 348.081334 464.789286 
L 346.166299 464.789286 
L 344.251265 464.789286 
L 342.33623 464.789286 
L 340.421196 464.789286 
L 338.506161 464.789286 
L 336.591126 464.789286 
L 334.676092 464.789286 
L 332.761057 464.789286 
L 330.846023 464.789286 
L 328.930988 464.789286 
L 327.015954 464.789286 
L 325.100919 464.789286 
L 323.185884 464.789286 
L 321.27085 464.789286 
L 319.355815 464.789286 
L 317.440781 464.789286 
L 315.525746 464.789286 
L 313.610712 464.789286 
L 311.695677 464.789286 
L 309.780642 464.789286 
L 307.865608 464.789286 
L 305.950573 464.789286 
L 304.035539 464.789286 
L 302.120504 464.789286 
L 300.20547 464.789286 
L 298.290435 464.789286 
L 296.3754 464.789286 
L 294.460366 464.789286 
L 292.545331 464.789286 
L 290.630297 464.789286 
L 288.715262 464.789286 
L 286.800228 464.789286 
L 284.885193 464.789286 
L 282.970158 464.789286 
L 281.055124 464.789286 
L 279.140089 464.789286 
L 277.225055 464.789286 
L 275.31002 464.789286 
L 273.394986 464.789286 
L 271.479951 464.789286 
L 269.564916 464.789286 
L 267.649882 464.789286 
L 265.734847 464.789286 
L 263.819813 464.789286 
L 261.904778 464.789286 
L 259.989743 464.789286 
L 258.074709 464.789286 
L 256.159674 464.789286 
L 254.24464 464.789286 
L 252.329605 464.789286 
L 250.414571 464.789286 
L 248.499536 464.789286 
L 246.584501 464.789286 
L 244.669467 464.789286 
L 242.754432 464.789286 
L 240.839398 464.789286 
L 238.924363 464.789286 
L 237.009329 464.789286 
L 235.094294 464.789286 
L 233.179259 464.789286 
L 231.264225 464.789286 
L 229.34919 464.789286 
L 227.434156 464.789286 
L 225.519121 464.789286 
L 223.604087 464.789286 
L 221.689052 464.789286 
L 219.774017 464.789286 
L 217.858983 464.789286 
L 215.943948 464.789286 
L 214.028914 464.789286 
L 212.113879 464.789286 
L 210.198845 464.789286 
L 208.28381 464.789286 
L 206.368775 464.789286 
L 204.453741 464.789286 
L 202.538706 464.789286 
L 200.623672 464.789286 
L 198.708637 464.789286 
L 196.793603 464.789286 
L 194.878568 464.789286 
L 192.963533 464.789286 
L 191.048499 464.789286 
L 189.133464 464.789286 
L 187.21843 464.789286 
L 185.303395 464.789286 
L 183.388361 464.789286 
L 181.473326 464.789286 
L 179.558291 464.789286 
L 177.643257 464.789286 
L 175.728222 464.789286 
L 173.813188 464.789286 
L 171.898153 464.789286 
L 169.983118 464.789286 
L 168.068084 464.789286 
L 166.153049 464.789286 
L 164.238015 464.789286 
L 162.32298 464.789286 
L 160.407946 464.789286 
L 158.492911 464.789286 
L 156.577876 464.789286 
L 154.662842 464.789286 
L 152.747807 464.789286 
L 150.832773 464.789286 
L 148.917738 464.789286 
L 147.002704 464.789286 
L 145.087669 464.789286 
L 143.172634 464.789286 
L 141.2576 464.789286 
L 139.342565 464.789286 
L 137.427531 464.789286 
L 135.512496 464.789286 
L 133.597462 464.789286 
L 131.682427 464.789286 
L 129.767392 464.789286 
L 127.852358 464.789286 
L 125.937323 464.789286 
L 124.022289 464.789286 
L 122.107254 464.789286 
L 120.19222 464.789286 
L 118.277185 464.789286 
L 116.36215 464.789286 
L 114.447116 464.789286 
L 112.532081 464.789286 
L 110.617047 464.789286 
L 108.702012 464.789286 
L 106.786978 464.789286 
L 104.871943 464.789286 
L 102.956908 464.789286 
L 101.041874 464.789286 
L 99.126839 464.789286 
L 97.211805 464.789286 
L 95.29677 464.789286 
L 93.381735 464.789286 
L 91.466701 464.789286 
L 89.551666 464.789286 
L 87.636632 464.789286 
L 85.721597 464.789286 
L 83.806563 464.789286 
L 81.891528 464.789286 
L 79.976493 464.789286 
L 78.061459 464.789286 
L 76.146424 464.789286 
L 74.23139 464.789286 
L 72.316355 464.789286 
L 70.401321 464.789286 
L 68.486286 464.789286 
L 66.571251 464.789286 
L 64.656217 464.789286 
L 62.741182 464.789286 
L 60.826148 464.789286 
L 58.911113 464.789286 
L 56.996079 464.789286 
L 55.081044 464.789286 
L 53.166009 464.789286 
L 51.250975 464.789286 
L 49.33594 464.789286 
L 47.420906 464.789286 
z
" clip-path="url(#p578ac3ec2e)" style="fill: #00b899; fill-opacity: 0.1"/>
   </g>
   <g id="FillBetweenPolyCollection_2">
    <path d="M 47.420906 464.789286 
L 47.420906 464.789286 
L 49.33594 464.789286 
L 51.250975 464.789286 
L 53.166009 464.789286 
L 55.081044 464.789286 
L 56.996079 464.789286 
L 58.911113 464.789286 
L 60.826148 464.789286 
L 62.741182 464.789286 
L 64.656217 464.789286 
L 66.571251 464.789286 
L 68.486286 464.789286 
L 70.401321 464.789286 
L 72.316355 464.789286 
L 74.23139 464.789286 
L 76.146424 464.789286 
L 78.061459 464.789286 
L 79.976493 464.789286 
L 81.891528 464.789286 
L 83.806563 464.789286 
L 85.721597 464.789286 
L 87.636632 464.789286 
L 89.551666 464.789286 
L 91.466701 464.789286 
L 93.381735 464.789286 
L 95.29677 464.789286 
L 97.211805 464.789286 
L 99.126839 464.789286 
L 101.041874 464.789286 
L 102.956908 464.789286 
L 104.871943 464.789286 
L 106.786978 464.789286 
L 108.702012 464.789286 
L 110.617047 464.789286 
L 112.532081 464.789286 
L 114.447116 464.789286 
L 116.36215 464.789286 
L 118.277185 464.789286 
L 120.19222 464.789286 
L 122.107254 464.789286 
L 124.022289 464.789286 
L 125.937323 464.789286 
L 127.852358 464.789286 
L 129.767392 464.789286 
L 131.682427 464.789286 
L 133.597462 464.789286 
L 135.512496 464.789286 
L 137.427531 464.789286 
L 139.342565 464.789286 
L 141.2576 464.789286 
L 143.172634 464.789286 
L 145.087669 464.789286 
L 147.002704 464.789286 
L 148.917738 464.789286 
L 150.832773 464.789286 
L 152.747807 464.789286 
L 154.662842 464.789286 
L 156.577876 464.789286 
L 158.492911 464.789286 
L 160.407946 464.789286 
L 162.32298 464.789286 
L 164.238015 464.789286 
L 166.153049 464.789286 
L 168.068084 464.789286 
L 169.983118 464.789286 
L 171.898153 464.789286 
L 173.813188 464.789286 
L 175.728222 464.789286 
L 177.643257 464.789286 
L 179.558291 464.789286 
L 181.473326 464.789286 
L 183.388361 464.789286 
L 185.303395 464.789286 
L 187.21843 464.789286 
L 189.133464 464.789286 
L 191.048499 464.789286 
L 192.963533 464.789286 
L 194.878568 464.789286 
L 196.793603 464.789286 
L 198.708637 464.789286 
L 200.623672 464.789286 
L 202.538706 464.789286 
L 204.453741 464.789286 
L 206.368775 464.789286 
L 208.28381 464.789286 
L 210.198845 464.789286 
L 212.113879 464.789286 
L 214.028914 464.789286 
L 215.943948 464.789286 
L 217.858983 464.789286 
L 219.774017 464.789286 
L 221.689052 464.789286 
L 223.604087 464.789286 
L 225.519121 464.789286 
L 227.434156 464.789286 
L 229.34919 464.789286 
L 231.264225 464.789286 
L 233.179259 464.789286 
L 235.094294 464.789286 
L 237.009329 464.789286 
L 238.924363 464.789286 
L 240.839398 464.789286 
L 242.754432 464.789286 
L 244.669467 464.789286 
L 246.584501 464.789286 
L 248.499536 464.789286 
L 250.414571 464.789286 
L 252.329605 464.789286 
L 254.24464 464.789286 
L 256.159674 464.789286 
L 258.074709 464.789286 
L 259.989743 464.789286 
L 261.904778 464.789286 
L 263.819813 464.789286 
L 265.734847 464.789286 
L 267.649882 464.789286 
L 269.564916 464.789286 
L 271.479951 464.789286 
L 273.394986 464.789286 
L 275.31002 464.789286 
L 277.225055 464.789286 
L 279.140089 464.789286 
L 281.055124 464.789286 
L 282.970158 464.789286 
L 284.885193 464.789286 
L 286.800228 464.789286 
L 288.715262 464.789286 
L 290.630297 464.789286 
L 292.545331 464.789286 
L 294.460366 464.789286 
L 296.3754 464.789286 
L 298.290435 464.789286 
L 300.20547 464.789286 
L 302.120504 464.789286 
L 304.035539 464.789286 
L 305.950573 464.789286 
L 307.865608 464.789286 
L 309.780642 464.789286 
L 311.695677 464.789286 
L 313.610712 464.789286 
L 315.525746 464.789286 
L 317.440781 464.789286 
L 319.355815 464.789286 
L 321.27085 464.789286 
L 323.185884 464.789286 
L 325.100919 464.789286 
L 327.015954 464.789286 
L 328.930988 464.789286 
L 330.846023 464.789286 
L 332.761057 464.789286 
L 334.676092 464.789286 
L 336.591126 464.789286 
L 338.506161 464.789286 
L 340.421196 464.789286 
L 342.33623 464.789286 
L 344.251265 464.789286 
L 346.166299 464.789286 
L 348.081334 464.789286 
L 349.996368 464.789286 
L 351.911403 464.789286 
L 353.826438 464.789286 
L 355.741472 464.789286 
L 357.656507 464.789286 
L 359.571541 464.789286 
L 361.486576 464.789286 
L 363.401611 464.789286 
L 365.316645 464.789286 
L 367.23168 464.789286 
L 369.146714 464.789286 
L 371.061749 464.789286 
L 372.976783 464.789286 
L 374.891818 464.789286 
L 376.806853 464.789286 
L 378.721887 464.789286 
L 380.636922 464.789286 
L 382.551956 464.789286 
L 384.466991 464.789286 
L 386.382025 464.789286 
L 388.29706 464.789286 
L 390.212095 464.789286 
L 392.127129 464.789286 
L 394.042164 464.789286 
L 395.957198 464.789286 
L 397.872233 464.789286 
L 399.787267 464.789286 
L 401.702302 464.789286 
L 403.617337 464.789286 
L 405.532371 464.789286 
L 407.447406 464.789286 
L 409.36244 464.789286 
L 411.277475 464.789286 
L 413.192509 464.789286 
L 415.107544 464.789286 
L 417.022579 464.789286 
L 418.937613 464.789286 
L 420.852648 464.789286 
L 422.767682 464.789286 
L 424.682717 464.789286 
L 426.597751 464.789286 
L 428.512786 464.789286 
L 430.427821 464.789286 
L 432.342855 464.789286 
L 434.25789 464.789286 
L 436.172924 464.789286 
L 438.087959 464.789286 
L 440.002993 464.789286 
L 441.918028 464.789286 
L 443.833063 464.789286 
L 445.748097 464.789286 
L 447.663132 464.789286 
L 449.578166 464.789286 
L 451.493201 464.789286 
L 453.408236 464.789286 
L 455.32327 464.789286 
L 457.238305 464.789286 
L 459.153339 464.789286 
L 461.068374 464.789286 
L 462.983408 464.789286 
L 464.898443 464.789286 
L 466.813478 464.789286 
L 468.728512 464.789286 
L 470.643547 464.789286 
L 472.558581 464.789286 
L 474.473616 464.789286 
L 476.38865 464.789286 
L 478.303685 464.789286 
L 480.21872 464.789286 
L 482.133754 464.789286 
L 484.048789 464.789286 
L 485.963823 464.789286 
L 487.878858 464.789286 
L 489.793892 464.789286 
L 491.708927 464.789286 
L 493.623962 464.789286 
L 495.538996 464.789286 
L 497.454031 464.789286 
L 499.369065 464.789286 
L 501.2841 464.789286 
L 503.199134 464.789286 
L 505.114169 464.789286 
L 507.029204 464.789286 
L 508.944238 464.789286 
L 510.859273 464.789286 
L 512.774307 464.789286 
L 514.689342 464.789286 
L 516.604376 464.789286 
L 518.519411 464.789286 
L 520.434446 464.789286 
L 522.34948 464.789286 
L 524.264515 464.789286 
L 526.179549 464.789286 
L 528.094584 464.789286 
L 530.009618 464.789286 
L 531.924653 464.789286 
L 533.839688 464.789286 
L 535.754722 464.789286 
L 537.669757 464.789286 
L 539.584791 464.789286 
L 541.499826 464.789286 
L 543.414861 464.789286 
L 545.329895 464.789286 
L 547.24493 464.789286 
L 549.159964 464.789286 
L 551.074999 464.789286 
L 552.990033 464.789286 
L 554.905068 464.789286 
L 556.820103 464.789286 
L 558.735137 464.789286 
L 560.650172 464.789286 
L 562.565206 464.789286 
L 564.480241 464.789286 
L 566.395275 464.789286 
L 568.31031 464.789286 
L 570.225345 464.789286 
L 572.140379 464.789286 
L 574.055414 464.789286 
L 575.970448 464.789286 
L 577.885483 464.789286 
L 579.800517 464.789286 
L 581.715552 464.789286 
L 583.630587 464.789286 
L 585.545621 464.789286 
L 587.460656 464.789286 
L 589.37569 464.789286 
L 591.290725 464.789286 
L 593.205759 464.789286 
L 595.120794 464.789286 
L 597.035829 464.789286 
L 598.950863 464.789286 
L 600.865898 464.789286 
L 602.780932 464.789286 
L 604.695967 464.789286 
L 606.611001 464.789286 
L 608.526036 464.789286 
L 610.441071 464.789286 
L 612.356105 464.789286 
L 614.27114 464.789286 
L 616.186174 464.789286 
L 618.101209 464.789286 
L 620.016243 464.789286 
L 620.016243 464.789286 
L 620.016243 464.789286 
L 618.101209 464.789286 
L 616.186174 464.789286 
L 614.27114 464.789286 
L 612.356105 464.789286 
L 610.441071 464.789286 
L 608.526036 464.789286 
L 606.611001 464.789286 
L 604.695967 464.789286 
L 602.780932 464.789286 
L 600.865898 464.789286 
L 598.950863 464.789286 
L 597.035829 464.789286 
L 595.120794 464.789286 
L 593.205759 464.789286 
L 591.290725 464.789286 
L 589.37569 464.789286 
L 587.460656 464.789286 
L 585.545621 464.789286 
L 583.630587 464.789286 
L 581.715552 464.789286 
L 579.800517 464.789286 
L 577.885483 464.789286 
L 575.970448 464.789286 
L 574.055414 464.789286 
L 572.140379 464.789286 
L 570.225345 464.789286 
L 568.31031 464.789286 
L 566.395275 464.789286 
L 564.480241 464.789286 
L 562.565206 464.789286 
L 560.650172 464.789286 
L 558.735137 464.789286 
L 556.820103 464.789286 
L 554.905068 464.789286 
L 552.990033 464.789286 
L 551.074999 464.789286 
L 549.159964 464.789286 
L 547.24493 464.789286 
L 545.329895 464.789286 
L 543.414861 464.789286 
L 541.499826 464.789286 
L 539.584791 464.789286 
L 537.669757 464.789286 
L 535.754722 464.789286 
L 533.839688 464.789286 
L 531.924653 464.789286 
L 530.009618 464.789286 
L 528.094584 464.789286 
L 526.179549 464.789286 
L 524.264515 464.789286 
L 522.34948 464.789286 
L 520.434446 464.789286 
L 518.519411 464.789286 
L 516.604376 464.789286 
L 514.689342 464.789286 
L 512.774307 464.789286 
L 510.859273 464.789286 
L 508.944238 464.789286 
L 507.029204 464.789286 
L 505.114169 464.789286 
L 503.199134 464.789286 
L 501.2841 464.789286 
L 499.369065 464.789286 
L 497.454031 464.789286 
L 495.538996 464.789286 
L 493.623962 464.789286 
L 491.708927 464.789286 
L 489.793892 464.789286 
L 487.878858 464.789286 
L 485.963823 464.789286 
L 484.048789 464.789286 
L 482.133754 464.789286 
L 480.21872 464.789286 
L 478.303685 464.789286 
L 476.38865 464.789286 
L 474.473616 464.789286 
L 472.558581 464.789286 
L 470.643547 464.789286 
L 468.728512 464.789286 
L 466.813478 464.789286 
L 464.898443 464.789286 
L 462.983408 464.789286 
L 461.068374 464.789286 
L 459.153339 464.789286 
L 457.238305 464.789286 
L 455.32327 464.789286 
L 453.408236 464.789286 
L 451.493201 464.789286 
L 449.578166 464.789286 
L 447.663132 464.789286 
L 445.748097 464.789286 
L 443.833063 464.789286 
L 441.918028 464.789286 
L 440.002993 464.789286 
L 438.087959 464.789286 
L 436.172924 464.789286 
L 434.25789 464.789286 
L 432.342855 464.789286 
L 430.427821 464.789286 
L 428.512786 464.789286 
L 426.597751 464.789286 
L 424.682717 464.789286 
L 422.767682 464.789286 
L 420.852648 464.789286 
L 418.937613 464.789286 
L 417.022579 464.789286 
L 415.107544 464.789286 
L 413.192509 464.789286 
L 411.277475 464.789286 
L 409.36244 464.789286 
L 407.447406 464.789286 
L 405.532371 464.789286 
L 403.617337 464.789286 
L 401.702302 464.789286 
L 399.787267 464.789286 
L 397.872233 464.789286 
L 395.957198 464.789286 
L 394.042164 464.789286 
L 392.127129 464.789286 
L 390.212095 464.789286 
L 388.29706 464.789286 
L 386.382025 464.789286 
L 384.466991 464.789286 
L 382.551956 464.789286 
L 380.636922 464.789286 
L 378.721887 464.789286 
L 376.806853 464.789286 
L 374.891818 464.789286 
L 372.976783 464.789286 
L 371.061749 464.789286 
L 369.146714 464.789286 
L 367.23168 464.789286 
L 365.316645 464.789286 
L 363.401611 464.789286 
L 361.486576 464.789286 
L 359.571541 464.789286 
L 357.656507 464.789286 
L 355.741472 464.789286 
L 353.826438 464.789286 
L 351.911403 464.789286 
L 349.996368 464.789286 
L 348.081334 464.789286 
L 346.166299 464.789286 
L 344.251265 464.789286 
L 342.33623 464.789286 
L 340.421196 464.789286 
L 338.506161 464.789286 
L 336.591126 464.789286 
L 334.676092 464.789286 
L 332.761057 464.789286 
L 330.846023 464.789286 
L 328.930988 464.789286 
L 327.015954 464.789286 
L 325.100919 464.789286 
L 323.185884 464.789286 
L 321.27085 464.789286 
L 319.355815 464.789286 
L 317.440781 464.789286 
L 315.525746 464.789286 
L 313.610712 464.789286 
L 311.695677 464.789286 
L 309.780642 464.789286 
L 307.865608 464.789286 
L 305.950573 464.789286 
L 304.035539 464.789286 
L 302.120504 464.789286 
L 300.20547 464.789286 
L 298.290435 464.789286 
L 296.3754 464.789286 
L 294.460366 464.789286 
L 292.545331 464.789286 
L 290.630297 464.789286 
L 288.715262 464.789286 
L 286.800228 464.789286 
L 284.885193 464.789286 
L 282.970158 464.789286 
L 281.055124 464.789286 
L 279.140089 464.789286 
L 277.225055 464.789286 
L 275.31002 464.789286 
L 273.394986 464.789286 
L 271.479951 464.789286 
L 269.564916 464.789286 
L 267.649882 464.789286 
L 265.734847 464.789286 
L 263.819813 464.789286 
L 261.904778 464.789286 
L 259.989743 464.789286 
L 258.074709 464.789286 
L 256.159674 464.789286 
L 254.24464 464.789286 
L 252.329605 464.789286 
L 250.414571 464.789286 
L 248.499536 464.789286 
L 246.584501 464.789286 
L 244.669467 464.789286 
L 242.754432 464.789286 
L 240.839398 464.789286 
L 238.924363 464.789286 
L 237.009329 464.789286 
L 235.094294 464.789286 
L 233.179259 464.789286 
L 231.264225 464.789286 
L 229.34919 464.789286 
L 227.434156 464.789286 
L 225.519121 464.789286 
L 223.604087 464.789286 
L 221.689052 464.789286 
L 219.774017 464.789286 
L 217.858983 464.789286 
L 215.943948 464.789286 
L 214.028914 464.789286 
L 212.113879 464.789286 
L 210.198845 464.789286 
L 208.28381 464.789286 
L 206.368775 464.789286 
L 204.453741 464.789286 
L 202.538706 464.789286 
L 200.623672 464.789286 
L 198.708637 464.789286 
L 196.793603 464.789286 
L 194.878568 464.789286 
L 192.963533 464.789286 
L 191.048499 464.789286 
L 189.133464 464.789286 
L 187.21843 464.789286 
L 185.303395 464.789286 
L 183.388361 464.789286 
L 181.473326 464.789286 
L 179.558291 464.789286 
L 177.643257 464.789286 
L 175.728222 464.789286 
L 173.813188 464.789286 
L 171.898153 464.789286 
L 169.983118 464.789286 
L 168.068084 464.789286 
L 166.153049 464.789286 
L 164.238015 464.789286 
L 162.32298 464.789286 
L 160.407946 464.789286 
L 158.492911 464.789286 
L 156.577876 464.789286 
L 154.662842 464.789286 
L 152.747807 464.789286 
L 150.832773 464.789286 
L 148.917738 464.789286 
L 147.002704 464.789286 
L 145.087669 464.789286 
L 143.172634 464.789286 
L 141.2576 464.789286 
L 139.342565 464.789286 
L 137.427531 464.789286 
L 135.512496 464.789286 
L 133.597462 464.789286 
L 131.682427 464.789286 
L 129.767392 464.789286 
L 127.852358 464.789286 
L 125.937323 464.789286 
L 124.022289 464.789286 
L 122.107254 464.789286 
L 120.19222 464.789286 
L 118.277185 464.789286 
L 116.36215 464.789286 
L 114.447116 464.789286 
L 112.532081 464.789286 
L 110.617047 464.789286 
L 108.702012 464.789286 
L 106.786978 464.789286 
L 104.871943 464.789286 
L 102.956908 464.789286 
L 101.041874 464.789286 
L 99.126839 464.789286 
L 97.211805 464.789286 
L 95.29677 464.789286 
L 93.381735 464.789286 
L 91.466701 464.789286 
L 89.551666 464.789286 
L 87.636632 464.789286 
L 85.721597 464.789286 
L 83.806563 464.789286 
L 81.891528 464.789286 
L 79.976493 464.789286 
L 78.061459 464.789286 
L 76.146424 464.789286 
L 74.23139 464.789286 
L 72.316355 464.789286 
L 70.401321 464.789286 
L 68.486286 464.789286 
L 66.571251 464.789286 
L 64.656217 464.789286 
L 62.741182 464.789286 
L 60.826148 464.789286 
L 58.911113 464.789286 
L 56.996079 464.789286 
L 55.081044 464.789286 
L 53.166009 464.789286 
L 51.250975 464.789286 
L 49.33594 464.789286 
L 47.420906 464.789286 
z
" clip-path="url(#p578ac3ec2e)" style="fill: #2ca02c; fill-opacity: 0.1"/>
   </g>
   <g id="FillBetweenPolyCollection_3">
    <path d="M 47.420906 157.861998 
L 47.420906 312.183545 
L 49.33594 337.082612 
L 51.250975 374.128237 
L 53.166009 408.174419 
L 55.081044 431.120086 
L 56.996079 442.948079 
L 58.911113 447.355108 
L 60.826148 447.859881 
L 62.741182 446.470823 
L 64.656217 444.051861 
L 66.571251 441.223459 
L 68.486286 438.963188 
L 70.401321 438.406743 
L 72.316355 440.052506 
L 74.23139 443.206848 
L 76.146424 446.32419 
L 78.061459 448.012179 
L 79.976493 447.915368 
L 81.891528 446.845698 
L 83.806563 446.110556 
L 85.721597 446.613158 
L 87.636632 448.384088 
L 89.551666 450.72078 
L 91.466701 452.728163 
L 93.381735 453.968779 
L 95.29677 454.766277 
L 97.211805 455.79778 
L 99.126839 457.327558 
L 101.041874 458.933729 
L 102.956908 460.029445 
L 104.871943 460.522877 
L 106.786978 460.846249 
L 108.702012 461.364237 
L 110.617047 461.881342 
L 112.532081 461.822797 
L 114.447116 460.883395 
L 116.36215 459.451547 
L 118.277185 458.41466 
L 120.19222 458.551015 
L 122.107254 459.975697 
L 124.022289 462.043013 
L 125.937323 463.838619 
L 127.852358 464.900989 
L 129.767392 465.505285 
L 131.682427 466.240037 
L 133.597462 467.37465 
L 135.512496 468.680828 
L 137.427531 469.748081 
L 139.342565 470.338155 
L 141.2576 470.512641 
L 143.172634 470.603295 
L 145.087669 471.080826 
L 147.002704 472.322541 
L 148.917738 474.397781 
L 150.832773 477.009711 
L 152.747807 479.588407 
L 154.662842 481.4648 
L 156.577876 482.095977 
L 158.492911 481.297567 
L 160.407946 479.346299 
L 162.32298 476.842746 
L 164.238015 474.430001 
L 166.153049 472.585668 
L 168.068084 471.529999 
L 169.983118 471.168309 
L 171.898153 471.12045 
L 173.813188 470.942723 
L 175.728222 470.409768 
L 177.643257 469.59172 
L 179.558291 468.665824 
L 181.473326 467.699697 
L 183.388361 466.656906 
L 185.303395 465.59321 
L 187.21843 464.776372 
L 189.133464 464.539426 
L 191.048499 464.983973 
L 192.963533 465.864915 
L 194.878568 466.807943 
L 196.793603 467.606983 
L 198.708637 468.285604 
L 200.623672 468.961428 
L 202.538706 469.774179 
L 204.453741 470.871733 
L 206.368775 472.225577 
L 208.28381 473.37785 
L 210.198845 473.626145 
L 212.113879 472.73365 
L 214.028914 471.361013 
L 215.943948 470.587458 
L 217.858983 471.090434 
L 219.774017 472.853342 
L 221.689052 475.376869 
L 223.604087 477.938961 
L 225.519121 479.817 
L 227.434156 480.530056 
L 229.34919 480.013452 
L 231.264225 478.60731 
L 233.179259 476.841528 
L 235.094294 475.151766 
L 237.009329 473.774834 
L 238.924363 472.847013 
L 240.839398 472.470851 
L 242.754432 472.658273 
L 244.669467 473.272026 
L 246.584501 474.01237 
L 248.499536 474.449261 
L 250.414571 474.201609 
L 252.329605 473.217016 
L 254.24464 471.845439 
L 256.159674 470.614378 
L 258.074709 469.96323 
L 259.989743 470.106696 
L 261.904778 470.990961 
L 263.819813 472.359745 
L 265.734847 473.919379 
L 267.649882 475.439915 
L 269.564916 476.729455 
L 271.479951 477.616611 
L 273.394986 478.018445 
L 275.31002 478.001361 
L 277.225055 477.76099 
L 279.140089 477.55146 
L 281.055124 477.597974 
L 282.970158 478.007058 
L 284.885193 478.721777 
L 286.800228 479.55637 
L 288.715262 480.28247 
L 290.630297 480.736211 
L 292.545331 480.914128 
L 294.460366 480.968074 
L 296.3754 481.048489 
L 298.290435 481.119917 
L 300.20547 480.951878 
L 302.120504 480.327051 
L 304.035539 479.274227 
L 305.950573 478.080934 
L 307.865608 477.066949 
L 309.780642 476.364288 
L 311.695677 475.921456 
L 313.610712 475.664476 
L 315.525746 475.588491 
L 317.440781 475.701087 
L 319.355815 475.936471 
L 321.27085 476.165866 
L 323.185884 476.290804 
L 325.100919 476.298619 
L 327.015954 476.214511 
L 328.930988 476.027383 
L 330.846023 475.704869 
L 332.761057 475.289883 
L 334.676092 474.945047 
L 336.591126 474.852821 
L 338.506161 475.051474 
L 340.421196 475.383871 
L 342.33623 475.637057 
L 344.251265 475.736543 
L 346.166299 475.791842 
L 348.081334 475.965326 
L 349.996368 476.320903 
L 351.911403 476.785692 
L 353.826438 477.222477 
L 355.741472 477.525487 
L 357.656507 477.662833 
L 359.571541 477.661551 
L 361.486576 477.582937 
L 363.401611 477.505082 
L 365.316645 477.492262 
L 367.23168 477.560139 
L 369.146714 477.670474 
L 371.061749 477.754811 
L 372.976783 477.746179 
L 374.891818 477.618419 
L 376.806853 477.416992 
L 378.721887 477.229433 
L 380.636922 477.100085 
L 382.551956 476.985201 
L 384.466991 476.799652 
L 386.382025 476.488244 
L 388.29706 476.056081 
L 390.212095 475.562895 
L 392.127129 475.090692 
L 394.042164 474.693086 
L 395.957198 474.376526 
L 397.872233 474.130054 
L 399.787267 473.942499 
L 401.702302 473.785773 
L 403.617337 473.621416 
L 405.532371 473.445941 
L 407.447406 473.310256 
L 409.36244 473.278039 
L 411.277475 473.37403 
L 413.192509 473.578634 
L 415.107544 473.854898 
L 417.022579 474.16536 
L 418.937613 474.475263 
L 420.852648 474.749499 
L 422.767682 474.926867 
L 424.682717 474.89822 
L 426.597751 474.568176 
L 428.512786 473.986785 
L 430.427821 473.399102 
L 432.342855 473.117132 
L 434.25789 473.31609 
L 436.172924 473.925289 
L 438.087959 474.672471 
L 440.002993 475.240203 
L 441.918028 475.452488 
L 443.833063 475.365392 
L 445.748097 475.175592 
L 447.663132 475.03819 
L 449.578166 474.97924 
L 451.493201 474.949189 
L 453.408236 474.908158 
L 455.32327 474.866997 
L 457.238305 474.891387 
L 459.153339 475.061908 
L 461.068374 475.39072 
L 462.983408 475.781627 
L 464.898443 476.103644 
L 466.813478 476.299641 
L 468.728512 476.407349 
L 470.643547 476.497385 
L 472.558581 476.617098 
L 474.473616 476.774008 
L 476.38865 476.940355 
L 478.303685 477.070948 
L 480.21872 477.130541 
L 482.133754 477.109132 
L 484.048789 477.018077 
L 485.963823 476.885276 
L 487.878858 476.759304 
L 489.793892 476.70216 
L 491.708927 476.74982 
L 493.623962 476.866361 
L 495.538996 476.954919 
L 497.454031 476.929878 
L 499.369065 476.77814 
L 501.2841 476.56477 
L 503.199134 476.388365 
L 505.114169 476.297883 
L 507.029204 476.228213 
L 508.944238 476.043456 
L 510.859273 475.656526 
L 512.774307 475.082171 
L 514.689342 474.392421 
L 516.604376 473.684395 
L 518.519411 473.092412 
L 520.434446 472.754807 
L 522.34948 472.722781 
L 524.264515 472.921869 
L 526.179549 473.215736 
L 528.094584 473.489155 
L 530.009618 473.67072 
L 531.924653 473.714623 
L 533.839688 473.604748 
L 535.754722 473.386947 
L 537.669757 473.170472 
L 539.584791 473.06822 
L 541.499826 473.124618 
L 543.414861 473.294188 
L 545.329895 473.482616 
L 547.24493 473.610798 
L 549.159964 473.640254 
L 551.074999 473.552919 
L 552.990033 473.350931 
L 554.905068 473.09518 
L 556.820103 472.901373 
L 558.735137 472.858283 
L 560.650172 472.957049 
L 562.565206 473.122531 
L 564.480241 473.307246 
L 566.395275 473.547009 
L 568.31031 473.920687 
L 570.225345 474.441525 
L 572.140379 474.987015 
L 574.055414 475.375147 
L 575.970448 475.541973 
L 577.885483 475.622184 
L 579.800517 475.82911 
L 581.715552 476.268063 
L 583.630587 476.869066 
L 585.545621 477.470922 
L 587.460656 477.946363 
L 589.37569 478.252027 
L 591.290725 478.392343 
L 593.205759 478.379733 
L 595.120794 478.23839 
L 597.035829 478.00866 
L 598.950863 477.711798 
L 600.865898 477.33233 
L 602.780932 476.868023 
L 604.695967 476.377931 
L 606.611001 475.94745 
L 608.526036 475.625478 
L 610.441071 475.416244 
L 612.356105 475.301293 
L 614.27114 475.244594 
L 616.186174 475.201252 
L 618.101209 475.149301 
L 620.016243 475.10787 
L 620.016243 441.279191 
L 620.016243 441.279191 
L 618.101209 441.833706 
L 616.186174 442.642856 
L 614.27114 443.356531 
L 612.356105 443.79956 
L 610.441071 444.025318 
L 608.526036 444.225469 
L 606.611001 444.5329 
L 604.695967 444.856965 
L 602.780932 444.942234 
L 600.865898 444.607473 
L 598.950863 443.926373 
L 597.035829 443.221714 
L 595.120794 442.908191 
L 593.205759 443.267388 
L 591.290725 444.287594 
L 589.37569 445.679437 
L 587.460656 447.018195 
L 585.545621 447.860197 
L 583.630587 447.830881 
L 581.715552 446.76682 
L 579.800517 444.888349 
L 577.885483 442.84254 
L 575.970448 441.453521 
L 574.055414 441.230714 
L 572.140379 442.016913 
L 570.225345 443.176851 
L 568.31031 444.154448 
L 566.395275 444.790461 
L 564.480241 445.178577 
L 562.565206 445.41435 
L 560.650172 445.541597 
L 558.735137 445.627001 
L 556.820103 445.750147 
L 554.905068 445.883643 
L 552.990033 445.893214 
L 551.074999 445.738891 
L 549.159964 445.638789 
L 547.24493 445.943779 
L 545.329895 446.801691 
L 543.414861 447.934839 
L 541.499826 448.77071 
L 539.584791 448.85542 
L 537.669757 448.201836 
L 535.754722 447.252482 
L 533.839688 446.497664 
L 531.924653 446.123556 
L 530.009618 445.991712 
L 528.094584 445.886536 
L 526.179549 445.732076 
L 524.264515 445.612257 
L 522.34948 445.690442 
L 520.434446 446.141908 
L 518.519411 447.048652 
L 516.604376 448.243626 
L 514.689342 449.295885 
L 512.774307 449.765044 
L 510.859273 449.524186 
L 508.944238 448.842251 
L 507.029204 448.161879 
L 505.114169 447.769974 
L 503.199134 447.62506 
L 501.2841 447.484791 
L 499.369065 447.207316 
L 497.454031 446.897345 
L 495.538996 446.731169 
L 493.623962 446.701312 
L 491.708927 446.628177 
L 489.793892 446.416063 
L 487.878858 446.205604 
L 485.963823 446.224932 
L 484.048789 446.535393 
L 482.133754 446.983874 
L 480.21872 447.374039 
L 478.303685 447.608551 
L 476.38865 447.66629 
L 474.473616 447.530383 
L 472.558581 447.188902 
L 470.643547 446.670584 
L 468.728512 446.035113 
L 466.813478 445.304586 
L 464.898443 444.431275 
L 462.983408 443.416146 
L 461.068374 442.456114 
L 459.153339 441.843895 
L 457.238305 441.687286 
L 455.32327 441.852666 
L 453.408236 442.220741 
L 451.493201 442.856415 
L 449.578166 443.844736 
L 447.663132 445.040511 
L 445.748097 446.07874 
L 443.833063 446.648642 
L 441.918028 446.725516 
L 440.002993 446.543927 
L 438.087959 446.397015 
L 436.172924 446.45315 
L 434.25789 446.675013 
L 432.342855 446.859875 
L 430.427821 446.798391 
L 428.512786 446.447655 
L 426.597751 445.963262 
L 424.682717 445.56247 
L 422.767682 445.350422 
L 420.852648 445.255249 
L 418.937613 445.123144 
L 417.022579 444.87316 
L 415.107544 444.543397 
L 413.192509 444.211093 
L 411.277475 443.938657 
L 409.36244 443.793425 
L 407.447406 443.823758 
L 405.532371 443.969935 
L 403.617337 444.043687 
L 401.702302 443.853159 
L 399.787267 443.378177 
L 397.872233 442.824079 
L 395.957198 442.491872 
L 394.042164 442.601393 
L 392.127129 443.215694 
L 390.212095 444.216039 
L 388.29706 445.275578 
L 386.382025 445.95824 
L 384.466991 445.979615 
L 382.551956 445.386546 
L 380.636922 444.473401 
L 378.721887 443.582627 
L 376.806853 442.986767 
L 374.891818 442.849491 
L 372.976783 443.181931 
L 371.061749 443.80874 
L 369.146714 444.416996 
L 367.23168 444.714062 
L 365.316645 444.605327 
L 363.401611 444.232307 
L 361.486576 443.815664 
L 359.571541 443.448375 
L 357.656507 443.03795 
L 355.741472 442.444473 
L 353.826438 441.661097 
L 351.911403 440.832422 
L 349.996368 440.098136 
L 348.081334 439.446792 
L 346.166299 438.711465 
L 344.251265 437.699274 
L 342.33623 436.377294 
L 340.421196 434.964657 
L 338.506161 433.801973 
L 336.591126 433.137571 
L 334.676092 433.067262 
L 332.761057 433.575322 
L 330.846023 434.499366 
L 328.930988 435.485687 
L 327.015954 436.121296 
L 325.100919 436.177605 
L 323.185884 435.693463 
L 321.27085 434.828924 
L 319.355815 433.735495 
L 317.440781 432.57533 
L 315.525746 431.521066 
L 313.610712 430.652022 
L 311.695677 429.917727 
L 309.780642 429.235068 
L 307.865608 428.555873 
L 305.950573 427.853395 
L 304.035539 427.165001 
L 302.120504 426.669739 
L 300.20547 426.55948 
L 298.290435 426.729156 
L 296.3754 426.729674 
L 294.460366 426.174187 
L 292.545331 425.140755 
L 290.630297 424.081398 
L 288.715262 423.385995 
L 286.800228 423.11503 
L 284.885193 423.082134 
L 282.970158 423.003411 
L 281.055124 422.499995 
L 279.140089 421.135207 
L 277.225055 418.656262 
L 275.31002 415.206501 
L 273.394986 411.265686 
L 271.479951 407.443308 
L 269.564916 404.304652 
L 267.649882 402.200519 
L 265.734847 401.111895 
L 263.819813 400.696272 
L 261.904778 400.531038 
L 259.989743 400.25175 
L 258.074709 399.345564 
L 256.159674 397.04049 
L 254.24464 393.000517 
L 252.329605 388.335436 
L 250.414571 385.167592 
L 248.499536 384.551402 
L 246.584501 385.338719 
L 244.669467 385.626393 
L 242.754432 384.80001 
L 240.839398 383.676523 
L 238.924363 383.105678 
L 237.009329 382.915891 
L 235.094294 382.103068 
L 233.179259 379.884248 
L 231.264225 376.616702 
L 229.34919 373.605655 
L 227.434156 371.917562 
L 225.519121 371.555313 
L 223.604087 371.760564 
L 221.689052 371.724397 
L 219.774017 370.973865 
L 217.858983 369.410875 
L 215.943948 367.152789 
L 214.028914 364.450679 
L 212.113879 361.980563 
L 210.198845 360.863851 
L 208.28381 361.830167 
L 206.368775 364.483909 
L 204.453741 367.742285 
L 202.538706 370.753577 
L 200.623672 373.249621 
L 198.708637 375.414309 
L 196.793603 377.701339 
L 194.878568 380.618853 
L 192.963533 384.409777 
L 191.048499 388.794309 
L 189.133464 393.097575 
L 187.21843 396.735344 
L 185.303395 399.588756 
L 183.388361 401.854936 
L 181.473326 403.60505 
L 179.558291 404.600128 
L 177.643257 404.562627 
L 175.728222 403.529883 
L 173.813188 401.920625 
L 171.898153 400.357142 
L 169.983118 399.434195 
L 168.068084 399.371427 
L 166.153049 399.586752 
L 164.238015 398.66361 
L 162.32298 395.202238 
L 160.407946 389.197338 
L 158.492911 382.628689 
L 156.577876 378.338575 
L 154.662842 378.011478 
L 152.747807 381.19204 
L 150.832773 386.105315 
L 148.917738 391.094547 
L 147.002704 395.310199 
L 145.087669 398.686078 
L 143.172634 401.78216 
L 141.2576 405.392011 
L 139.342565 409.766033 
L 137.427531 414.181082 
L 135.512496 417.497568 
L 133.597462 419.073167 
L 131.682427 419.040468 
L 129.767392 417.949207 
L 127.852358 416.447762 
L 125.937323 415.211425 
L 124.022289 414.831558 
L 122.107254 415.554596 
L 120.19222 417.073556 
L 118.277185 418.618783 
L 116.36215 419.342868 
L 114.447116 418.748921 
L 112.532081 416.941694 
L 110.617047 414.631584 
L 108.702012 412.773705 
L 106.786978 411.898607 
L 104.871943 411.627513 
L 102.956908 410.909211 
L 101.041874 408.912438 
L 99.126839 405.816423 
L 97.211805 402.639584 
L 95.29677 400.131497 
L 93.381735 397.897036 
L 91.466701 394.815983 
L 89.551666 390.340231 
L 87.636632 385.288841 
L 85.721597 381.333233 
L 83.806563 379.692222 
L 81.891528 380.258739 
L 79.976493 381.784335 
L 78.061459 382.707806 
L 76.146424 381.925663 
L 74.23139 379.125641 
L 72.316355 374.692941 
L 70.401321 369.418187 
L 68.486286 364.215222 
L 66.571251 359.850474 
L 64.656217 356.591182 
L 62.741182 353.885081 
L 60.826148 350.33916 
L 58.911113 343.895716 
L 56.996079 331.833694 
L 55.081044 310.690412 
L 53.166009 277.410589 
L 51.250975 233.140291 
L 49.33594 187.627232 
L 47.420906 157.861998 
z
" clip-path="url(#p578ac3ec2e)" style="fill: #d62728; fill-opacity: 0.1"/>
   </g>
   <g id="line2d_12">
    <path d="M 36.2 271.521429 
L 623.801429 271.521429 
" clip-path="url(#p578ac3ec2e)" style="fill: none; stroke-dasharray: 2.96,1.28; stroke-dashoffset: 0; stroke: #808080; stroke-width: 0.8"/>
   </g>
   <g id="line2d_13">
    <path d="M 47.420906 464.789286 
L 620.016243 464.789286 
L 620.016243 464.789286 
" clip-path="url(#p578ac3ec2e)" style="fill: none; stroke: #00b899; stroke-width: 2; stroke-linecap: round"/>
   </g>
   <g id="line2d_14">
    <path d="M 47.420906 464.789286 
L 620.016243 464.789286 
L 620.016243 464.789286 
" clip-path="url(#p578ac3ec2e)" style="fill: none; stroke: #2ca02c; stroke-width: 2; stroke-linecap: round"/>
   </g>
   <g id="line2d_15">
    <path d="M 47.420906 235.022772 
L 49.33594 262.354922 
L 53.166009 342.792504 
L 55.081044 370.905249 
L 56.996079 387.390886 
L 58.911113 395.625412 
L 60.826148 399.09952 
L 62.741182 400.177952 
L 66.571251 400.536966 
L 68.486286 401.589205 
L 70.401321 403.912465 
L 72.316355 407.372723 
L 74.23139 411.166244 
L 76.146424 414.124926 
L 78.061459 415.359993 
L 79.976493 414.849851 
L 81.891528 413.552218 
L 83.806563 412.901389 
L 85.721597 413.973195 
L 87.636632 416.836464 
L 89.551666 420.530505 
L 91.466701 423.772073 
L 93.381735 425.932908 
L 95.29677 427.448887 
L 97.211805 429.218682 
L 101.041874 433.923084 
L 102.956908 435.469328 
L 104.871943 436.075195 
L 106.786978 436.372428 
L 108.702012 437.068971 
L 112.532081 439.382246 
L 114.447116 439.816158 
L 116.36215 439.397208 
L 118.277185 438.516721 
L 120.19222 437.812286 
L 122.107254 437.765146 
L 124.022289 438.437286 
L 129.767392 441.727246 
L 131.682427 442.640252 
L 133.597462 443.223908 
L 135.512496 443.089198 
L 137.427531 441.964581 
L 139.342565 440.052094 
L 141.2576 437.952326 
L 143.172634 436.192728 
L 145.087669 434.883452 
L 150.832773 431.557513 
L 152.747807 430.390223 
L 154.662842 429.738139 
L 156.577876 430.217276 
L 158.492911 431.963128 
L 160.407946 434.271819 
L 162.32298 436.022492 
L 164.238015 436.546805 
L 166.153049 436.08621 
L 168.068084 435.450713 
L 169.983118 435.301252 
L 171.898153 435.738796 
L 173.813188 436.431674 
L 175.728222 436.969825 
L 177.643257 437.077173 
L 179.558291 436.632976 
L 181.473326 435.652374 
L 183.388361 434.255921 
L 185.303395 432.590983 
L 189.133464 428.8185 
L 191.048499 426.889141 
L 192.963533 425.137346 
L 194.878568 423.713398 
L 196.793603 422.654161 
L 202.538706 420.263878 
L 206.368775 418.354743 
L 208.28381 417.604009 
L 210.198845 417.244998 
L 212.113879 417.357106 
L 214.028914 417.905846 
L 215.943948 418.870124 
L 217.858983 420.250654 
L 221.689052 423.550633 
L 223.604087 424.849763 
L 225.519121 425.686157 
L 229.34919 426.809553 
L 233.179259 428.362888 
L 235.094294 428.627417 
L 238.924363 427.976345 
L 240.839398 428.073687 
L 244.669467 429.449209 
L 246.584501 429.675544 
L 248.499536 429.500332 
L 250.414571 429.684601 
L 252.329605 430.776226 
L 254.24464 432.422978 
L 256.159674 433.827434 
L 258.074709 434.654397 
L 261.904778 435.761 
L 263.819813 436.528009 
L 265.734847 437.515637 
L 267.649882 438.820217 
L 269.564916 440.517053 
L 275.31002 446.603931 
L 277.225055 448.208626 
L 279.140089 449.343333 
L 281.055124 450.048985 
L 290.630297 452.408804 
L 294.460366 453.571131 
L 296.3754 453.889081 
L 298.290435 453.924537 
L 302.120504 453.498395 
L 305.950573 452.967164 
L 307.865608 452.811411 
L 309.780642 452.799678 
L 311.695677 452.919592 
L 313.610712 453.158249 
L 315.525746 453.554779 
L 319.355815 454.835983 
L 321.27085 455.497395 
L 323.185884 455.992134 
L 325.100919 456.238112 
L 327.015954 456.167903 
L 328.930988 455.756535 
L 332.761057 454.432602 
L 334.676092 454.006155 
L 336.591126 453.995196 
L 338.506161 454.426724 
L 344.251265 456.717909 
L 357.656507 460.350392 
L 363.401611 460.868694 
L 367.23168 461.137101 
L 369.146714 461.043735 
L 374.891818 460.233955 
L 376.806853 460.20188 
L 378.721887 460.40603 
L 382.551956 461.185873 
L 384.466991 461.389633 
L 386.382025 461.223242 
L 388.29706 460.665829 
L 392.127129 459.153193 
L 394.042164 458.647239 
L 395.957198 458.434199 
L 397.872233 458.477066 
L 401.702302 458.819466 
L 403.617337 458.832552 
L 409.36244 458.535732 
L 411.277475 458.656344 
L 415.107544 459.199148 
L 418.937613 459.799204 
L 422.767682 460.138644 
L 426.597751 460.265719 
L 430.427821 460.098747 
L 432.342855 459.988504 
L 434.25789 459.995551 
L 436.172924 460.189219 
L 440.002993 460.892065 
L 441.918028 461.089002 
L 443.833063 461.007017 
L 445.748097 460.627166 
L 451.493201 458.902802 
L 453.408236 458.56445 
L 455.32327 458.359831 
L 457.238305 458.289337 
L 459.153339 458.452901 
L 461.068374 458.923417 
L 464.898443 460.267459 
L 466.813478 460.802113 
L 470.643547 461.583985 
L 474.473616 462.152196 
L 476.38865 462.303322 
L 478.303685 462.33975 
L 480.21872 462.25229 
L 487.878858 461.482454 
L 503.199134 462.006713 
L 505.114169 462.033929 
L 510.859273 462.590356 
L 512.774307 462.423607 
L 514.689342 461.844153 
L 518.519411 460.070532 
L 520.434446 459.448358 
L 522.34948 459.206611 
L 524.264515 459.267063 
L 530.009618 459.831216 
L 533.839688 460.051206 
L 539.584791 460.96182 
L 541.499826 460.947664 
L 543.414861 460.614513 
L 547.24493 459.777289 
L 549.159964 459.639522 
L 552.990033 459.622072 
L 558.735137 459.242642 
L 566.395275 459.168735 
L 570.225345 458.809188 
L 574.055414 458.302931 
L 575.970448 458.497747 
L 577.885483 459.232362 
L 581.715552 461.517442 
L 583.630587 462.349974 
L 585.545621 462.665559 
L 587.460656 462.482279 
L 593.205759 460.82356 
L 595.120794 460.57329 
L 597.035829 460.615187 
L 600.865898 460.969901 
L 602.780932 460.905129 
L 606.611001 460.240175 
L 610.441071 459.720781 
L 614.27114 459.300563 
L 620.016243 458.193531 
L 620.016243 458.193531 
" clip-path="url(#p578ac3ec2e)" style="fill: none; stroke: #d62728; stroke-width: 2; stroke-linecap: round"/>
   </g>
   <g id="line2d_16">
    <path d="M 47.420906 442.782136 
L 49.33594 446.894968 
L 51.250975 440.069629 
L 53.166009 456.378118 
L 55.081044 421.938885 
L 56.996079 426.241041 
L 58.911113 417.824232 
L 60.826148 414.719331 
L 62.741182 417.055606 
L 64.656217 420.830473 
L 66.571251 401.286224 
L 68.486286 414.530109 
L 70.401321 417.274023 
L 72.316355 405.434079 
L 74.23139 409.029104 
L 76.146424 403.401809 
L 78.061459 382.274056 
L 79.976493 379.765189 
L 81.891528 400.434189 
L 83.806563 367.627155 
L 85.721597 362.956016 
L 87.636632 366.975365 
L 89.551666 372.975761 
L 91.466701 367.0023 
L 93.381735 373.250764 
L 95.29677 367.45077 
L 97.211805 375.508024 
L 99.126839 359.42381 
L 101.041874 367.216085 
L 102.956908 363.593067 
L 104.871943 358.425972 
L 106.786978 363.755373 
L 108.702012 346.17021 
L 110.617047 346.792039 
L 112.532081 336.678337 
L 114.447116 347.301711 
L 118.277185 340.58055 
L 120.19222 361.29625 
L 122.107254 338.504473 
L 124.022289 354.77465 
L 125.937323 344.248082 
L 127.852358 346.402088 
L 131.682427 340.511202 
L 133.597462 325.437621 
L 137.427531 340.183548 
L 139.342565 326.036462 
L 141.2576 319.963921 
L 143.172634 331.367612 
L 145.087669 350.274937 
L 147.002704 355.121112 
L 148.917738 336.449648 
L 150.832773 335.340565 
L 152.747807 341.741866 
L 154.662842 331.31706 
L 156.577876 338.047283 
L 158.492911 323.097931 
L 160.407946 327.225725 
L 162.32298 326.335766 
L 164.238015 348.496722 
L 166.153049 345.909397 
L 168.068084 333.058765 
L 169.983118 336.329136 
L 171.898153 325.970611 
L 173.813188 325.569161 
L 175.728222 320.631939 
L 177.643257 332.917947 
L 179.558291 321.05987 
L 181.473326 342.289489 
L 183.388361 334.275437 
L 185.303395 318.698599 
L 187.21843 326.32848 
L 189.133464 322.502659 
L 191.048499 310.406599 
L 192.963533 284.59927 
L 194.878568 320.391887 
L 196.793603 334.626867 
L 198.708637 298.18436 
L 200.623672 303.333716 
L 202.538706 287.991512 
L 204.453741 327.008242 
L 206.368775 292.727538 
L 208.28381 299.384986 
L 210.198845 270.201691 
L 212.113879 268.624437 
L 214.028914 282.113878 
L 215.943948 320.029902 
L 217.858983 261.983825 
L 219.774017 265.087541 
L 221.689052 266.469429 
L 223.604087 244.724274 
L 225.519121 243.4566 
L 227.434156 260.163065 
L 229.34919 242.219728 
L 231.264225 245.031715 
L 233.179259 258.878083 
L 235.094294 277.248091 
L 237.009329 267.93172 
L 238.924363 262.332605 
L 240.839398 274.925662 
L 242.754432 252.445196 
L 244.669467 220.44535 
L 246.584501 223.661146 
L 248.499536 228.908624 
L 250.414571 231.841945 
L 252.329605 195.634143 
L 254.24464 191.466801 
L 256.159674 217.120242 
L 258.074709 222.678458 
L 259.989743 199.943638 
L 261.904778 238.476758 
L 263.819813 238.846972 
L 265.734847 226.900362 
L 267.649882 221.575395 
L 269.564916 193.596844 
L 271.479951 227.506246 
L 273.394986 233.460709 
L 275.31002 224.633624 
L 277.225055 209.091724 
L 279.140089 198.586826 
L 281.055124 200.620566 
L 282.970158 199.971542 
L 284.885193 210.493686 
L 286.800228 173.44942 
L 290.630297 217.082242 
L 292.545331 185.287315 
L 294.460366 174.229748 
L 296.3754 167.212895 
L 298.290435 184.978149 
L 300.20547 174.697076 
L 302.120504 156.741831 
L 304.035539 163.34302 
L 305.950573 154.170694 
L 307.865608 175.972895 
L 309.780642 172.172727 
L 311.695677 149.558326 
L 313.610712 155.787656 
L 315.525746 151.626504 
L 317.440781 143.025237 
L 319.355815 153.610615 
L 321.27085 157.165011 
L 323.185884 161.312291 
L 325.100919 160.173451 
L 327.015954 145.477116 
L 328.930988 155.217427 
L 330.846023 139.937819 
L 332.761057 141.862953 
L 334.676092 141.706532 
L 336.591126 143.058436 
L 338.506161 168.798997 
L 340.421196 144.240793 
L 342.33623 136.764435 
L 344.251265 133.613611 
L 346.166299 131.732577 
L 348.081334 149.244249 
L 349.996368 135.382562 
L 351.911403 118.489845 
L 353.826438 135.581832 
L 355.741472 132.346297 
L 357.656507 127.94072 
L 359.571541 134.748796 
L 361.486576 120.821869 
L 363.401611 133.948633 
L 365.316645 125.637787 
L 367.23168 114.267186 
L 369.146714 119.850796 
L 371.061749 111.077971 
L 372.976783 107.508302 
L 374.891818 119.936991 
L 376.806853 128.931998 
L 378.721887 113.338933 
L 380.636922 122.541059 
L 382.551956 159.577068 
L 384.466991 134.195518 
L 386.382025 121.73327 
L 388.29706 115.583145 
L 390.212095 135.178467 
L 392.127129 143.807933 
L 394.042164 121.278002 
L 395.957198 139.607856 
L 397.872233 139.014081 
L 399.787267 119.271244 
L 401.702302 126.010863 
L 405.532371 125.556938 
L 407.447406 141.120742 
L 409.36244 146.507693 
L 411.277475 128.774971 
L 413.192509 121.82511 
L 415.107544 113.122104 
L 417.022579 109.112495 
L 418.937613 122.533213 
L 420.852648 158.010678 
L 422.767682 125.835895 
L 424.682717 109.889045 
L 426.597751 123.249659 
L 428.512786 104.181954 
L 430.427821 120.758762 
L 432.342855 122.190569 
L 436.172924 133.637823 
L 440.002993 106.019733 
L 441.918028 114.977308 
L 443.833063 120.435498 
L 445.748097 103.39005 
L 447.663132 90.231075 
L 449.578166 114.931323 
L 451.493201 136.56898 
L 453.408236 112.105334 
L 455.32327 110.659115 
L 457.238305 118.068996 
L 459.153339 116.188626 
L 461.068374 111.016529 
L 462.983408 109.441762 
L 464.898443 106.742075 
L 466.813478 134.498715 
L 468.728512 127.744872 
L 470.643547 117.047374 
L 472.558581 118.376726 
L 474.473616 103.625443 
L 476.38865 114.137436 
L 478.303685 114.1266 
L 480.21872 112.834606 
L 482.133754 115.970872 
L 484.048789 86.419985 
L 485.963823 109.388747 
L 487.878858 123.757987 
L 489.793892 119.80741 
L 491.708927 119.564062 
L 493.623962 118.655169 
L 495.538996 104.606107 
L 497.454031 112.705852 
L 499.369065 123.990077 
L 501.2841 121.461771 
L 503.199134 120.433738 
L 505.114169 122.08002 
L 507.029204 111.372579 
L 508.944238 114.125673 
L 510.859273 103.832285 
L 512.774307 113.245927 
L 514.689342 131.285024 
L 516.604376 108.735335 
L 518.519411 107.668509 
L 520.434446 105.76874 
L 522.34948 115.955422 
L 524.264515 124.235401 
L 526.179549 134.901669 
L 528.094584 114.879284 
L 530.009618 123.582761 
L 531.924653 101.690533 
L 533.839688 92.969727 
L 535.754722 98.515984 
L 537.669757 111.599211 
L 539.584791 103.025886 
L 541.499826 114.592357 
L 543.414861 109.422839 
L 545.329895 117.628706 
L 547.24493 130.694216 
L 551.074999 99.711769 
L 552.990033 112.001796 
L 554.905068 103.751388 
L 556.820103 131.345344 
L 558.735137 134.367188 
L 560.650172 137.163482 
L 562.565206 119.855913 
L 564.480241 119.137128 
L 566.395275 108.021614 
L 568.31031 117.990335 
L 570.225345 117.567485 
L 572.140379 105.468549 
L 574.055414 103.914853 
L 575.970448 100.177027 
L 577.885483 103.40286 
L 579.800517 99.337264 
L 581.715552 111.03992 
L 583.630587 109.909787 
L 585.545621 99.197383 
L 587.460656 108.333842 
L 589.37569 131.744003 
L 591.290725 105.175599 
L 593.205759 87.519313 
L 595.120794 103.788423 
L 597.035829 97.387946 
L 598.950863 104.776992 
L 600.865898 106.221888 
L 602.780932 100.484497 
L 604.695967 107.80383 
L 606.611001 119.16952 
L 608.526036 104.428336 
L 610.441071 133.015364 
L 612.356105 111.838079 
L 614.27114 96.601438 
L 616.186174 120.472148 
L 618.101209 107.335805 
L 620.016243 115.374002 
L 620.016243 115.374002 
" clip-path="url(#p578ac3ec2e)" style="fill: none; stroke: #1f77b4; stroke-linecap: round"/>
   </g>
   <g id="line2d_17">
    <path d="M 47.420906 191.689781 
L 49.33594 347.809583 
L 51.250975 416.112218 
L 53.166009 454.819746 
L 55.081044 426.665007 
L 56.996079 438.848779 
L 58.911113 431.524915 
L 60.826148 426.460691 
L 62.741182 430.951487 
L 64.656217 431.957878 
L 66.571251 409.084974 
L 68.486286 423.833963 
L 70.401321 427.698127 
L 72.316355 418.50394 
L 74.23139 431.92677 
L 76.146424 429.229744 
L 78.061459 405.265856 
L 79.976493 403.816495 
L 81.891528 412.301792 
L 83.806563 381.215276 
L 85.721597 365.799657 
L 89.551666 397.665379 
L 91.466701 394.548982 
L 93.381735 404.031592 
L 95.29677 390.654631 
L 97.211805 396.019805 
L 99.126839 388.738406 
L 101.041874 404.323969 
L 102.956908 400.641577 
L 104.871943 389.976435 
L 106.786978 394.848224 
L 108.702012 371.652497 
L 110.617047 378.668917 
L 112.532081 372.608426 
L 114.447116 381.515037 
L 116.36215 377.394155 
L 118.277185 370.651282 
L 120.19222 394.054803 
L 122.107254 362.858516 
L 124.022289 389.518966 
L 125.937323 377.119178 
L 127.852358 380.395388 
L 129.767392 378.291553 
L 131.682427 372.329876 
L 133.597462 358.879651 
L 135.512496 369.288318 
L 137.427531 378.321396 
L 139.342565 353.869263 
L 141.2576 343.517868 
L 143.172634 354.809164 
L 145.087669 382.945593 
L 147.002704 383.062924 
L 148.917738 360.474336 
L 150.832773 360.122317 
L 152.747807 366.788479 
L 154.662842 350.257334 
L 156.577876 352.345654 
L 158.492911 342.709908 
L 160.407946 354.157643 
L 162.32298 357.795795 
L 164.238015 382.652711 
L 166.153049 373.639591 
L 168.068084 356.446336 
L 169.983118 361.043659 
L 171.898153 351.477043 
L 173.813188 352.73039 
L 175.728222 346.142579 
L 177.643257 361.221512 
L 179.558291 348.727264 
L 181.473326 370.676643 
L 183.388361 359.826159 
L 185.303395 340.078036 
L 187.21843 347.057414 
L 189.133464 342.006695 
L 191.048499 323.392114 
L 192.963533 292.507374 
L 194.878568 330.455006 
L 196.793603 352.892844 
L 198.708637 300.869809 
L 200.623672 315.415343 
L 202.538706 291.149137 
L 204.453741 337.417263 
L 206.368775 294.433196 
L 208.28381 307.542765 
L 210.198845 258.688327 
L 214.028914 282.729495 
L 215.943948 326.931923 
L 217.858983 257.15088 
L 219.774017 269.486252 
L 221.689052 269.29331 
L 223.604087 242.828953 
L 225.519121 247.839473 
L 227.434156 264.223623 
L 229.34919 237.940577 
L 231.264225 245.916564 
L 235.094294 290.427411 
L 237.009329 273.378959 
L 238.924363 267.657054 
L 240.839398 278.817783 
L 242.754432 255.559294 
L 244.669467 222.192427 
L 246.584501 227.147145 
L 248.499536 235.046214 
L 250.414571 216.847013 
L 252.329605 190.040834 
L 254.24464 194.512917 
L 256.159674 222.148541 
L 258.074709 223.590395 
L 259.989743 198.459388 
L 261.904778 247.267066 
L 263.819813 247.484007 
L 265.734847 234.054784 
L 267.649882 226.671611 
L 269.564916 196.057611 
L 271.479951 239.582759 
L 273.394986 248.996903 
L 275.31002 239.395526 
L 277.225055 223.324862 
L 279.140089 212.952513 
L 281.055124 214.013743 
L 282.970158 212.1237 
L 284.885193 226.476545 
L 286.800228 183.312983 
L 288.715262 207.331105 
L 290.630297 235.982837 
L 292.545331 197.207646 
L 294.460366 186.051668 
L 296.3754 178.914796 
L 298.290435 198.911348 
L 300.20547 185.040635 
L 302.120504 164.067132 
L 304.035539 173.52616 
L 305.950573 159.915675 
L 307.865608 185.583177 
L 309.780642 182.25482 
L 311.695677 155.661788 
L 313.610712 162.456565 
L 315.525746 158.004448 
L 317.440781 146.247804 
L 319.355815 163.691641 
L 321.27085 166.926219 
L 323.185884 171.865704 
L 325.100919 170.906201 
L 327.015954 154.957845 
L 328.930988 165.061049 
L 330.846023 145.599049 
L 332.761057 146.890097 
L 334.676092 145.013058 
L 336.591126 148.208021 
L 338.506161 178.531126 
L 340.421196 149.579273 
L 342.33623 144.471519 
L 344.251265 140.455822 
L 346.166299 136.952324 
L 348.081334 159.061468 
L 349.996368 142.688331 
L 351.911403 122.671484 
L 353.826438 144.33164 
L 355.741472 141.993234 
L 357.656507 136.240399 
L 359.571541 144.360852 
L 361.486576 127.268625 
L 363.401611 143.329825 
L 365.316645 133.368576 
L 367.23168 121.819207 
L 369.146714 127.032086 
L 371.061749 116.078436 
L 372.976783 111.32737 
L 374.891818 125.884088 
L 376.806853 136.395678 
L 378.721887 117.61058 
L 380.636922 130.096812 
L 382.551956 174.618979 
L 384.466991 145.030058 
L 386.382025 130.90414 
L 388.29706 122.51557 
L 390.212095 143.106194 
L 392.127129 152.613933 
L 394.042164 126.772671 
L 395.957198 147.578222 
L 397.872233 146.383787 
L 399.787267 124.194889 
L 401.702302 133.557769 
L 403.617337 131.989288 
L 405.532371 132.007344 
L 407.447406 149.47318 
L 409.36244 155.547421 
L 411.277475 135.766821 
L 413.192509 127.501254 
L 415.107544 116.704387 
L 417.022579 111.998146 
L 418.937613 130.489535 
L 420.852648 171.443674 
L 422.767682 132.539966 
L 424.682717 114.603569 
L 426.597751 130.437934 
L 428.512786 107.73191 
L 430.427821 127.006495 
L 432.342855 128.572412 
L 434.25789 135.225465 
L 436.172924 141.398119 
L 438.087959 126.555286 
L 440.002993 110.488289 
L 441.918028 122.046904 
L 443.833063 127.523082 
L 445.748097 107.91048 
L 447.663132 90.686921 
L 449.578166 118.540859 
L 451.493201 144.502531 
L 453.408236 114.573893 
L 455.32327 114.42226 
L 457.238305 122.882769 
L 459.153339 117.397292 
L 461.068374 113.216368 
L 462.983408 114.587514 
L 464.898443 111.526215 
L 466.813478 143.763922 
L 468.728512 135.630652 
L 470.643547 125.35653 
L 472.558581 124.901865 
L 474.473616 108.966913 
L 476.38865 121.685845 
L 480.21872 119.92013 
L 482.133754 123.566705 
L 484.048789 87.809588 
L 485.963823 113.629006 
L 487.878858 131.281099 
L 489.793892 127.34455 
L 491.708927 127.511558 
L 493.623962 126.498052 
L 495.538996 109.368884 
L 497.454031 117.509561 
L 499.369065 133.52268 
L 501.2841 130.730313 
L 503.199134 128.165943 
L 505.114169 129.227258 
L 507.029204 117.189037 
L 508.944238 121.803931 
L 510.859273 109.436265 
L 512.774307 121.190006 
L 514.689342 142.854103 
L 516.604376 113.776907 
L 518.519411 109.54994 
L 520.434446 107.22085 
L 522.34948 120.589573 
L 524.264515 130.488848 
L 526.179549 142.847639 
L 528.094584 120.501127 
L 530.009618 130.417557 
L 531.924653 104.366372 
L 533.839688 93.023736 
L 535.754722 99.843876 
L 537.669757 116.181421 
L 539.584791 108.252724 
L 541.499826 121.893706 
L 543.414861 113.787206 
L 545.329895 123.461826 
L 547.24493 137.109796 
L 551.074999 102.5417 
L 552.990033 116.521737 
L 554.905068 107.403638 
L 556.820103 137.243203 
L 558.735137 141.810936 
L 560.650172 147.549718 
L 562.565206 124.853197 
L 564.480241 124.158206 
L 566.395275 111.967757 
L 568.31031 121.233574 
L 570.225345 123.318688 
L 572.140379 109.716344 
L 574.055414 101.787275 
L 575.970448 100.379163 
L 577.885483 103.348754 
L 579.800517 102.7883 
L 581.715552 116.958896 
L 583.630587 117.90035 
L 585.545621 104.883441 
L 587.460656 114.320668 
L 589.37569 142.361726 
L 591.290725 109.341134 
L 593.205759 87.452394 
L 595.120794 105.518747 
L 597.035829 99.732476 
L 598.950863 108.14174 
L 600.865898 111.785283 
L 602.780932 104.294408 
L 604.695967 112.033741 
L 606.611001 125.254116 
L 608.526036 105.991257 
L 610.441071 141.646054 
L 612.356105 116.95984 
L 614.27114 96.681971 
L 616.186174 126.797988 
L 618.101209 110.042568 
L 620.016243 117.236568 
L 620.016243 117.236568 
" clip-path="url(#p578ac3ec2e)" style="fill: none; stroke: #ff7f0e; stroke-linecap: round"/>
   </g>
   <g id="line2d_18">
    <path d="M 47.420906 464.789286 
L 53.166009 434.921608 
L 58.911113 391.876301 
L 64.656217 382.889352 
L 70.401321 383.08314 
L 76.146424 376.663891 
L 81.891528 364.745888 
L 87.636632 357.357695 
L 93.381735 352.125401 
L 99.126839 349.799937 
L 104.871943 345.633481 
L 110.617047 347.52292 
L 116.36215 342.944663 
L 122.107254 342.871992 
L 127.852358 350.575092 
L 133.597462 341.200565 
L 139.342565 338.705536 
L 145.087669 357.018565 
L 150.832773 344.373855 
L 156.577876 340.449634 
L 162.32298 336.404296 
L 168.068084 331.922933 
L 173.813188 336.50119 
L 179.558291 329.863928 
L 185.303395 328.822314 
L 191.048499 324.001821 
L 196.793603 321.749028 
L 202.538706 319.6658 
L 208.28381 299.632897 
L 214.028914 287.109304 
L 219.774017 277.807448 
L 225.519121 272.647825 
L 231.264225 232.751584 
L 237.009329 217.611845 
L 242.754432 185.491373 
L 248.499536 196.876457 
L 254.24464 177.206908 
L 259.989743 187.550378 
L 265.734847 146.539852 
L 271.479951 152.934878 
L 277.225055 144.965319 
L 282.970158 128.396388 
L 288.715262 103.131191 
L 294.460366 118.416272 
L 300.20547 123.212542 
L 305.950573 131.52123 
L 311.695677 115.654784 
L 317.440781 113.208202 
L 323.185884 100.829951 
L 328.930988 113.208202 
L 334.676092 91.721884 
L 340.421196 99.449207 
L 346.166299 96.372812 
L 351.911403 96.90573 
L 357.656507 92.618156 
L 363.401611 88.548594 
L 369.146714 101.072187 
L 374.891818 85.447976 
L 380.636922 89.953562 
L 386.382025 93.611323 
L 392.127129 83.558536 
L 397.872233 81.790215 
L 403.617337 84.333691 
L 409.36244 102.113801 
L 415.107544 82.056674 
L 420.852648 116.987081 
L 426.597751 98.141133 
L 432.342855 90.801387 
L 438.087959 81.741767 
L 443.833063 81.984003 
L 449.578166 83.824996 
L 455.32327 82.250463 
L 461.068374 82.468475 
L 466.813478 82.468475 
L 472.558581 86.56226 
L 478.303685 85.956671 
L 484.048789 97.17219 
L 489.793892 89.759773 
L 495.538996 93.054181 
L 501.2841 87.894557 
L 507.029204 78.253571 
L 512.774307 83.703878 
L 518.519411 83.24363 
L 524.264515 83.24363 
L 530.009618 82.613816 
L 535.754722 81.451084 
L 541.499826 81.984003 
L 547.24493 81.111954 
L 552.990033 87.240521 
L 558.735137 87.797663 
L 564.480241 83.728101 
L 570.225345 85.011951 
L 575.970448 82.856052 
L 581.715552 83.098288 
L 587.460656 85.351081 
L 593.205759 82.880276 
L 598.950863 105.238643 
L 604.695967 94.095795 
L 610.441071 89.081513 
L 616.186174 89.808221 
" clip-path="url(#p578ac3ec2e)" style="fill: none; stroke: #000000; stroke-width: 1.5; stroke-linecap: round"/>
   </g>
   <g id="line2d_19">
    <path d="M 47.420906 78.253571 
L 53.166009 95.24863 
L 58.911113 112.330548 
L 64.656217 121.215129 
L 70.401321 118.491162 
L 76.146424 137.976217 
L 81.891528 133.408456 
L 87.636632 142.16142 
L 93.381735 143.092249 
L 99.126839 155.301936 
L 104.871943 158.127889 
L 110.617047 163.289104 
L 116.36215 166.567995 
L 122.107254 168.348057 
L 127.852358 173.278046 
L 133.597462 175.18055 
L 139.342565 177.417699 
L 145.087669 192.800999 
L 150.832773 188.966121 
L 156.577876 195.445119 
L 162.32298 194.112024 
L 168.068084 197.16093 
L 173.813188 205.536858 
L 179.558291 203.60019 
L 185.303395 219.977834 
L 191.048499 241.109182 
L 196.793603 238.792961 
L 202.538706 262.318316 
L 208.28381 287.676862 
L 214.028914 285.175773 
L 219.774017 300.831632 
L 225.519121 310.401924 
L 231.264225 303.54286 
L 237.009329 322.999523 
L 242.754432 325.547306 
L 248.499536 330.315924 
L 254.24464 331.008095 
L 259.989743 340.177651 
L 265.734847 338.837207 
L 271.479951 351.117652 
L 277.225055 355.045084 
L 282.970158 362.047645 
L 288.715262 356.260355 
L 294.460366 368.004071 
L 300.20547 377.30256 
L 305.950573 382.963073 
L 311.695677 388.743826 
L 317.440781 396.820781 
L 323.185884 401.386784 
L 328.930988 408.105151 
L 334.676092 404.253759 
L 340.421196 416.643371 
L 346.166299 417.202733 
L 351.911403 428.115665 
L 357.656507 428.541895 
L 363.401611 434.192583 
L 369.146714 429.735417 
L 374.891818 433.900256 
L 380.636922 438.35374 
L 386.382025 437.306302 
L 392.127129 428.538404 
L 397.872233 431.141986 
L 403.617337 432.863789 
L 409.36244 439.82354 
L 415.107544 435.385982 
L 420.852648 434.51568 
L 426.597751 441.120891 
L 432.342855 441.638687 
L 438.087959 443.268052 
L 443.833063 442.828482 
L 449.578166 440.208433 
L 455.32327 444.80588 
L 461.068374 449.774111 
L 466.813478 453.629615 
L 472.558581 447.251953 
L 478.303685 452.363647 
L 484.048789 449.35254 
L 489.793892 453.456276 
L 495.538996 452.443858 
L 501.2841 457.572177 
L 507.029204 456.394521 
L 512.774307 457.657604 
L 518.519411 454.248879 
L 524.264515 457.795977 
L 530.009618 455.649611 
L 535.754722 458.608833 
L 541.499826 454.066229 
L 547.24493 455.049485 
L 552.990033 458.315723 
L 558.735137 457.786155 
L 564.480241 457.1085 
L 570.225345 460.868783 
L 575.970448 462.453385 
L 581.715552 463.806609 
L 587.460656 461.84005 
L 593.205759 464.223764 
L 598.950863 464.789286 
L 604.695967 460.904258 
L 610.441071 455.750468 
L 616.186174 457.200371 
" clip-path="url(#p578ac3ec2e)" style="fill: none; stroke: #7b3ab8; stroke-width: 1.5; stroke-linecap: round"/>
   </g>
   <g id="patch_3">
    <path d="M 36.2 472.52 
L 36.2 39.6 
" style="fill: none; stroke: #ffffff; stroke-width: 0.8; stroke-linejoin: miter; stroke-linecap: square"/>
   </g>
   <g id="patch_4">
    <path d="M 623.801429 472.52 
L 623.801429 39.6 
" style="fill: none; stroke: #ffffff; stroke-width: 0.8; stroke-linejoin: miter; stroke-linecap: square"/>
   </g>
   <g id="patch_5">
    <path d="M 36.2 472.52 
L 623.801429 472.52 
" style="fill: none; stroke: #ffffff; stroke-width: 0.8; stroke-linejoin: miter; stroke-linecap: square"/>
   </g>
   <g id="patch_6">
    <path d="M 36.2 39.6 
L 623.801429 39.6 
" style="fill: none; stroke: #ffffff; stroke-width: 0.8; stroke-linejoin: miter; stroke-linecap: square"/>
   </g>
  </g>
  <g id="text_4">
   <!-- Acrobot-v1 | CMU-Net (M) -->
   <g style="fill: #262626" transform="translate(193.874063 23.835938) scale(0.18 -0.18)">
    <defs>
     <path id="DejaVuSans-Bold-41" d="M 3419 850 
L 1538 850 
L 1241 0 
L 31 0 
L 1759 4666 
L 3194 4666 
L 4922 0 
L 3713 0 
L 3419 850 
z
M 1838 1716 
L 3116 1716 
L 2478 3572 
L 1838 1716 
z
" transform="scale(0.015625)"/>
     <path id="DejaVuSans-Bold-63" d="M 3366 3391 
L 3366 2478 
Q 3138 2634 2908 2709 
Q 2678 2784 2431 2784 
Q 1963 2784 1702 2511 
Q 1441 2238 1441 1747 
Q 1441 1256 1702 982 
Q 1963 709 2431 709 
Q 2694 709 2930 787 
Q 3166 866 3366 1019 
L 3366 103 
Q 3103 6 2833 -42 
Q 2563 -91 2291 -91 
Q 1344 -91 809 395 
Q 275 881 275 1747 
Q 275 2613 809 3098 
Q 1344 3584 2291 3584 
Q 2566 3584 2833 3536 
Q 3100 3488 3366 3391 
z
" transform="scale(0.015625)"/>
     <path id="DejaVuSans-Bold-72" d="M 3138 2547 
Q 2991 2616 2845 2648 
Q 2700 2681 2553 2681 
Q 2122 2681 1889 2404 
Q 1656 2128 1656 1613 
L 1656 0 
L 538 0 
L 538 3500 
L 1656 3500 
L 1656 2925 
Q 1872 3269 2151 3426 
Q 2431 3584 2822 3584 
Q 2878 3584 2943 3579 
Q 3009 3575 3134 3559 
L 3138 2547 
z
" transform="scale(0.015625)"/>
     <path id="DejaVuSans-Bold-6f" d="M 2203 2784 
Q 1831 2784 1636 2517 
Q 1441 2250 1441 1747 
Q 1441 1244 1636 976 
Q 1831 709 2203 709 
Q 2569 709 2762 976 
Q 2956 1244 2956 1747 
Q 2956 2250 2762 2517 
Q 2569 2784 2203 2784 
z
M 2203 3584 
Q 3106 3584 3614 3096 
Q 4122 2609 4122 1747 
Q 4122 884 3614 396 
Q 3106 -91 2203 -91 
Q 1297 -91 786 396 
Q 275 884 275 1747 
Q 275 2609 786 3096 
Q 1297 3584 2203 3584 
z
" transform="scale(0.015625)"/>
     <path id="DejaVuSans-Bold-62" d="M 2400 722 
Q 2759 722 2948 984 
Q 3138 1247 3138 1747 
Q 3138 2247 2948 2509 
Q 2759 2772 2400 2772 
Q 2041 2772 1848 2508 
Q 1656 2244 1656 1747 
Q 1656 1250 1848 986 
Q 2041 722 2400 722 
z
M 1656 2988 
Q 1888 3294 2169 3439 
Q 2450 3584 2816 3584 
Q 3463 3584 3878 3070 
Q 4294 2556 4294 1747 
Q 4294 938 3878 423 
Q 3463 -91 2816 -91 
Q 2450 -91 2169 54 
Q 1888 200 1656 506 
L 1656 0 
L 538 0 
L 538 4863 
L 1656 4863 
L 1656 2988 
z
" transform="scale(0.015625)"/>
     <path id="DejaVuSans-Bold-74" d="M 1759 4494 
L 1759 3500 
L 2913 3500 
L 2913 2700 
L 1759 2700 
L 1759 1216 
Q 1759 972 1856 886 
Q 1953 800 2241 800 
L 2816 800 
L 2816 0 
L 1856 0 
Q 1194 0 917 276 
Q 641 553 641 1216 
L 641 2700 
L 84 2700 
L 84 3500 
L 641 3500 
L 641 4494 
L 1759 4494 
z
" transform="scale(0.015625)"/>
     <path id="DejaVuSans-Bold-2d" d="M 347 2297 
L 2309 2297 
L 2309 1388 
L 347 1388 
L 347 2297 
z
" transform="scale(0.015625)"/>
     <path id="DejaVuSans-Bold-76" d="M 97 3500 
L 1216 3500 
L 2088 1081 
L 2956 3500 
L 4078 3500 
L 2700 0 
L 1472 0 
L 97 3500 
z
" transform="scale(0.015625)"/>
     <path id="DejaVuSans-Bold-31" d="M 750 831 
L 1813 831 
L 1813 3847 
L 722 3622 
L 722 4441 
L 1806 4666 
L 2950 4666 
L 2950 831 
L 4013 831 
L 4013 0 
L 750 0 
L 750 831 
z
" transform="scale(0.015625)"/>
     <path id="DejaVuSans-Bold-20" transform="scale(0.015625)"/>
     <path id="DejaVuSans-Bold-7c" d="M 1522 4891 
L 1522 -1509 
L 813 -1509 
L 813 4891 
L 1522 4891 
z
" transform="scale(0.015625)"/>
     <path id="DejaVuSans-Bold-43" d="M 4288 256 
Q 3956 84 3597 -3 
Q 3238 -91 2847 -91 
Q 1681 -91 1000 561 
Q 319 1213 319 2328 
Q 319 3447 1000 4098 
Q 1681 4750 2847 4750 
Q 3238 4750 3597 4662 
Q 3956 4575 4288 4403 
L 4288 3438 
Q 3953 3666 3628 3772 
Q 3303 3878 2944 3878 
Q 2300 3878 1931 3465 
Q 1563 3053 1563 2328 
Q 1563 1606 1931 1193 
Q 2300 781 2944 781 
Q 3303 781 3628 887 
Q 3953 994 4288 1222 
L 4288 256 
z
" transform="scale(0.015625)"/>
     <path id="DejaVuSans-Bold-4d" d="M 588 4666 
L 2119 4666 
L 3181 2169 
L 4250 4666 
L 5778 4666 
L 5778 0 
L 4641 0 
L 4641 3413 
L 3566 897 
L 2803 897 
L 1728 3413 
L 1728 0 
L 588 0 
L 588 4666 
z
" transform="scale(0.015625)"/>
     <path id="DejaVuSans-Bold-55" d="M 588 4666 
L 1791 4666 
L 1791 1869 
Q 1791 1291 1980 1042 
Q 2169 794 2597 794 
Q 3028 794 3217 1042 
Q 3406 1291 3406 1869 
L 3406 4666 
L 4609 4666 
L 4609 1869 
Q 4609 878 4112 393 
Q 3616 -91 2597 -91 
Q 1581 -91 1084 393 
Q 588 878 588 1869 
L 588 4666 
z
" transform="scale(0.015625)"/>
     <path id="DejaVuSans-Bold-4e" d="M 588 4666 
L 1931 4666 
L 3628 1466 
L 3628 4666 
L 4769 4666 
L 4769 0 
L 3425 0 
L 1728 3200 
L 1728 0 
L 588 0 
L 588 4666 
z
" transform="scale(0.015625)"/>
     <path id="DejaVuSans-Bold-65" d="M 4031 1759 
L 4031 1441 
L 1416 1441 
Q 1456 1047 1700 850 
Q 1944 653 2381 653 
Q 2734 653 3104 758 
Q 3475 863 3866 1075 
L 3866 213 
Q 3469 63 3072 -14 
Q 2675 -91 2278 -91 
Q 1328 -91 801 392 
Q 275 875 275 1747 
Q 275 2603 792 3093 
Q 1309 3584 2216 3584 
Q 3041 3584 3536 3087 
Q 4031 2591 4031 1759 
z
M 2881 2131 
Q 2881 2450 2695 2645 
Q 2509 2841 2209 2841 
Q 1884 2841 1681 2658 
Q 1478 2475 1428 2131 
L 2881 2131 
z
" transform="scale(0.015625)"/>
     <path id="DejaVuSans-Bold-28" d="M 2413 -844 
L 1484 -844 
Q 1006 -72 778 623 
Q 550 1319 550 2003 
Q 550 2688 779 3389 
Q 1009 4091 1484 4856 
L 2413 4856 
Q 2013 4116 1813 3408 
Q 1613 2700 1613 2009 
Q 1613 1319 1811 609 
Q 2009 -100 2413 -844 
z
" transform="scale(0.015625)"/>
     <path id="DejaVuSans-Bold-29" d="M 513 -844 
Q 913 -100 1113 609 
Q 1313 1319 1313 2009 
Q 1313 2700 1113 3408 
Q 913 4116 513 4856 
L 1441 4856 
Q 1916 4091 2145 3389 
Q 2375 2688 2375 2003 
Q 2375 1319 2147 623 
Q 1919 -72 1441 -844 
L 513 -844 
z
" transform="scale(0.015625)"/>
    </defs>
    <use xlink:href="#DejaVuSans-Bold-41"/>
    <use xlink:href="#DejaVuSans-Bold-63" transform="translate(77.392578 0)"/>
    <use xlink:href="#DejaVuSans-Bold-72" transform="translate(136.669922 0)"/>
    <use xlink:href="#DejaVuSans-Bold-6f" transform="translate(185.986328 0)"/>
    <use xlink:href="#DejaVuSans-Bold-62" transform="translate(254.6875 0)"/>
    <use xlink:href="#DejaVuSans-Bold-6f" transform="translate(326.269531 0)"/>
    <use xlink:href="#DejaVuSans-Bold-74" transform="translate(394.970703 0)"/>
    <use xlink:href="#DejaVuSans-Bold-2d" transform="translate(442.773438 0)"/>
    <use xlink:href="#DejaVuSans-Bold-76" transform="translate(484.277344 0)"/>
    <use xlink:href="#DejaVuSans-Bold-31" transform="translate(549.462891 0)"/>
    <use xlink:href="#DejaVuSans-Bold-20" transform="translate(619.042969 0)"/>
    <use xlink:href="#DejaVuSans-Bold-7c" transform="translate(653.857422 0)"/>
    <use xlink:href="#DejaVuSans-Bold-20" transform="translate(690.380859 0)"/>
    <use xlink:href="#DejaVuSans-Bold-43" transform="translate(725.195312 0)"/>
    <use xlink:href="#DejaVuSans-Bold-4d" transform="translate(798.583984 0)"/>
    <use xlink:href="#DejaVuSans-Bold-55" transform="translate(898.095703 0)"/>
    <use xlink:href="#DejaVuSans-Bold-2d" transform="translate(979.296875 0)"/>
    <use xlink:href="#DejaVuSans-Bold-4e" transform="translate(1020.800781 0)"/>
    <use xlink:href="#DejaVuSans-Bold-65" transform="translate(1104.492188 0)"/>
    <use xlink:href="#DejaVuSans-Bold-74" transform="translate(1172.314453 0)"/>
    <use xlink:href="#DejaVuSans-Bold-20" transform="translate(1220.117188 0)"/>
    <use xlink:href="#DejaVuSans-Bold-28" transform="translate(1254.931641 0)"/>
    <use xlink:href="#DejaVuSans-Bold-4d" transform="translate(1300.634766 0)"/>
    <use xlink:href="#DejaVuSans-Bold-29" transform="translate(1400.146484 0)"/>
   </g>
  </g>
 </g>
 <defs>
  <clipPath id="p578ac3ec2e">
   <rect x="36.2" y="39.6" width="587.601429" height="432.92"/>
  </clipPath>
 </defs>
</svg>
