<?xml version="1.0" encoding="utf-8" standalone="no"?>
<!DOCTYPE svg PUBLIC "-//W3C//DTD SVG 1.1//EN"
  "http://www.w3.org/Graphics/SVG/1.1/DTD/svg11.dtd">
<svg xmlns:xlink="http://www.w3.org/1999/xlink" width="648pt" height="432pt" viewBox="0 0 648 432" xmlns="http://www.w3.org/2000/svg" version="1.1">
 <metadata>
  <rdf:RDF xmlns:dc="http://purl.org/dc/elements/1.1/" xmlns:cc="http://creativecommons.org/ns#" xmlns:rdf="http://www.w3.org/1999/02/22-rdf-syntax-ns#">
   <cc:Work>
    <dc:type rdf:resource="http://purl.org/dc/dcmitype/StillImage"/>
    <dc:date>2025-07-31T05:18:55.308914</dc:date>
    <dc:format>image/svg+xml</dc:format>
    <dc:creator>
     <cc:Agent>
      <dc:title>Matplotlib v3.10.0, https://matplotlib.org/</dc:title>
     </cc:Agent>
    </dc:creator>
   </cc:Work>
  </rdf:RDF>
 </metadata>
 <defs>
  <style type="text/css">*{stroke-linejoin: round; stroke-linecap: butt}</style>
 </defs>
 <g id="figure_1">
  <g id="patch_1">
   <path d="M 0 432 
L 648 432 
L 648 0 
L 0 0 
z
" style="fill: #ffffff"/>
  </g>
  <g id="axes_1">
   <g id="patch_2">
    <path d="M 47.5 400.52 
L 622.485 400.52 
L 622.485 39.6 
L 47.5 39.6 
z
" style="fill: #eaeaf2"/>
   </g>
   <g id="matplotlib.axis_1">
    <g id="xtick_1">
     <g id="line2d_1">
      <path d="M 58.410531 400.52 
L 58.410531 39.6 
" clip-path="url(#pcdd3fabb51)" style="fill: none; stroke: #ffffff; stroke-width: 0.8; stroke-linecap: round"/>
     </g>
     <g id="text_1">
      <!-- 0 -->
      <g style="fill: #262626" transform="translate(53.956781 418.157812) scale(0.14 -0.14)">
       <defs>
        <path id="DejaVuSans-30" d="M 2034 4250 
Q 1547 4250 1301 3770 
Q 1056 3291 1056 2328 
Q 1056 1369 1301 889 
Q 1547 409 2034 409 
Q 2525 409 2770 889 
Q 3016 1369 3016 2328 
Q 3016 3291 2770 3770 
Q 2525 4250 2034 4250 
z
M 2034 4750 
Q 2819 4750 3233 4129 
Q 3647 3509 3647 2328 
Q 3647 1150 3233 529 
Q 2819 -91 2034 -91 
Q 1250 -91 836 529 
Q 422 1150 422 2328 
Q 422 3509 836 4129 
Q 1250 4750 2034 4750 
z
" transform="scale(0.015625)"/>
       </defs>
       <use xlink:href="#DejaVuSans-30"/>
      </g>
     </g>
    </g>
    <g id="xtick_2">
     <g id="line2d_2">
      <path d="M 603.937097 400.52 
L 603.937097 39.6 
" clip-path="url(#pcdd3fabb51)" style="fill: none; stroke: #ffffff; stroke-width: 0.8; stroke-linecap: round"/>
     </g>
     <g id="text_2">
      <!-- 1000000 -->
      <g style="fill: #262626" transform="translate(572.760847 418.157812) scale(0.14 -0.14)">
       <defs>
        <path id="DejaVuSans-31" d="M 794 531 
L 1825 531 
L 1825 4091 
L 703 3866 
L 703 4441 
L 1819 4666 
L 2450 4666 
L 2450 531 
L 3481 531 
L 3481 0 
L 794 0 
L 794 531 
z
" transform="scale(0.015625)"/>
       </defs>
       <use xlink:href="#DejaVuSans-31"/>
       <use xlink:href="#DejaVuSans-30" transform="translate(63.623047 0)"/>
       <use xlink:href="#DejaVuSans-30" transform="translate(127.246094 0)"/>
       <use xlink:href="#DejaVuSans-30" transform="translate(190.869141 0)"/>
       <use xlink:href="#DejaVuSans-30" transform="translate(254.492188 0)"/>
       <use xlink:href="#DejaVuSans-30" transform="translate(318.115234 0)"/>
       <use xlink:href="#DejaVuSans-30" transform="translate(381.738281 0)"/>
      </g>
     </g>
    </g>
   </g>
   <g id="matplotlib.axis_2">
    <g id="ytick_1">
     <g id="line2d_3">
      <path d="M 47.5 390.305283 
L 622.485 390.305283 
" clip-path="url(#pcdd3fabb51)" style="fill: none; stroke: #ffffff; stroke-width: 0.8; stroke-linecap: round"/>
     </g>
     <g id="text_3">
      <!-- −21 -->
      <g style="fill: #262626" transform="translate(10.953438 395.624189) scale(0.14 -0.14)">
       <defs>
        <path id="DejaVuSans-2212" d="M 678 2272 
L 4684 2272 
L 4684 1741 
L 678 1741 
L 678 2272 
z
" transform="scale(0.015625)"/>
        <path id="DejaVuSans-32" d="M 1228 531 
L 3431 531 
L 3431 0 
L 469 0 
L 469 531 
Q 828 903 1448 1529 
Q 2069 2156 2228 2338 
Q 2531 2678 2651 2914 
Q 2772 3150 2772 3378 
Q 2772 3750 2511 3984 
Q 2250 4219 1831 4219 
Q 1534 4219 1204 4116 
Q 875 4013 500 3803 
L 500 4441 
Q 881 4594 1212 4672 
Q 1544 4750 1819 4750 
Q 2544 4750 2975 4387 
Q 3406 4025 3406 3419 
Q 3406 3131 3298 2873 
Q 3191 2616 2906 2266 
Q 2828 2175 2409 1742 
Q 1991 1309 1228 531 
z
" transform="scale(0.015625)"/>
       </defs>
       <use xlink:href="#DejaVuSans-2212"/>
       <use xlink:href="#DejaVuSans-32" transform="translate(83.789062 0)"/>
       <use xlink:href="#DejaVuSans-31" transform="translate(147.412109 0)"/>
      </g>
     </g>
    </g>
    <g id="ytick_2">
     <g id="line2d_4">
      <path d="M 47.5 365.984528 
L 622.485 365.984528 
" clip-path="url(#pcdd3fabb51)" style="fill: none; stroke: #ffffff; stroke-width: 0.8; stroke-linecap: round"/>
     </g>
     <g id="text_4">
      <!-- −18 -->
      <g style="fill: #262626" transform="translate(10.953438 371.303435) scale(0.14 -0.14)">
       <defs>
        <path id="DejaVuSans-38" d="M 2034 2216 
Q 1584 2216 1326 1975 
Q 1069 1734 1069 1313 
Q 1069 891 1326 650 
Q 1584 409 2034 409 
Q 2484 409 2743 651 
Q 3003 894 3003 1313 
Q 3003 1734 2745 1975 
Q 2488 2216 2034 2216 
z
M 1403 2484 
Q 997 2584 770 2862 
Q 544 3141 544 3541 
Q 544 4100 942 4425 
Q 1341 4750 2034 4750 
Q 2731 4750 3128 4425 
Q 3525 4100 3525 3541 
Q 3525 3141 3298 2862 
Q 3072 2584 2669 2484 
Q 3125 2378 3379 2068 
Q 3634 1759 3634 1313 
Q 3634 634 3220 271 
Q 2806 -91 2034 -91 
Q 1263 -91 848 271 
Q 434 634 434 1313 
Q 434 1759 690 2068 
Q 947 2378 1403 2484 
z
M 1172 3481 
Q 1172 3119 1398 2916 
Q 1625 2713 2034 2713 
Q 2441 2713 2670 2916 
Q 2900 3119 2900 3481 
Q 2900 3844 2670 4047 
Q 2441 4250 2034 4250 
Q 1625 4250 1398 4047 
Q 1172 3844 1172 3481 
z
" transform="scale(0.015625)"/>
       </defs>
       <use xlink:href="#DejaVuSans-2212"/>
       <use xlink:href="#DejaVuSans-31" transform="translate(83.789062 0)"/>
       <use xlink:href="#DejaVuSans-38" transform="translate(147.412109 0)"/>
      </g>
     </g>
    </g>
    <g id="ytick_3">
     <g id="line2d_5">
      <path d="M 47.5 341.663774 
L 622.485 341.663774 
" clip-path="url(#pcdd3fabb51)" style="fill: none; stroke: #ffffff; stroke-width: 0.8; stroke-linecap: round"/>
     </g>
     <g id="text_5">
      <!-- −15 -->
      <g style="fill: #262626" transform="translate(10.953438 346.98268) scale(0.14 -0.14)">
       <defs>
        <path id="DejaVuSans-35" d="M 691 4666 
L 3169 4666 
L 3169 4134 
L 1269 4134 
L 1269 2991 
Q 1406 3038 1543 3061 
Q 1681 3084 1819 3084 
Q 2600 3084 3056 2656 
Q 3513 2228 3513 1497 
Q 3513 744 3044 326 
Q 2575 -91 1722 -91 
Q 1428 -91 1123 -41 
Q 819 9 494 109 
L 494 744 
Q 775 591 1075 516 
Q 1375 441 1709 441 
Q 2250 441 2565 725 
Q 2881 1009 2881 1497 
Q 2881 1984 2565 2268 
Q 2250 2553 1709 2553 
Q 1456 2553 1204 2497 
Q 953 2441 691 2322 
L 691 4666 
z
" transform="scale(0.015625)"/>
       </defs>
       <use xlink:href="#DejaVuSans-2212"/>
       <use xlink:href="#DejaVuSans-31" transform="translate(83.789062 0)"/>
       <use xlink:href="#DejaVuSans-35" transform="translate(147.412109 0)"/>
      </g>
     </g>
    </g>
    <g id="ytick_4">
     <g id="line2d_6">
      <path d="M 47.5 317.343019 
L 622.485 317.343019 
" clip-path="url(#pcdd3fabb51)" style="fill: none; stroke: #ffffff; stroke-width: 0.8; stroke-linecap: round"/>
     </g>
     <g id="text_6">
      <!-- −12 -->
      <g style="fill: #262626" transform="translate(10.953438 322.661925) scale(0.14 -0.14)">
       <use xlink:href="#DejaVuSans-2212"/>
       <use xlink:href="#DejaVuSans-31" transform="translate(83.789062 0)"/>
       <use xlink:href="#DejaVuSans-32" transform="translate(147.412109 0)"/>
      </g>
     </g>
    </g>
    <g id="ytick_5">
     <g id="line2d_7">
      <path d="M 47.5 293.022264 
L 622.485 293.022264 
" clip-path="url(#pcdd3fabb51)" style="fill: none; stroke: #ffffff; stroke-width: 0.8; stroke-linecap: round"/>
     </g>
     <g id="text_7">
      <!-- −9 -->
      <g style="fill: #262626" transform="translate(19.860938 298.34117) scale(0.14 -0.14)">
       <defs>
        <path id="DejaVuSans-39" d="M 703 97 
L 703 672 
Q 941 559 1184 500 
Q 1428 441 1663 441 
Q 2288 441 2617 861 
Q 2947 1281 2994 2138 
Q 2813 1869 2534 1725 
Q 2256 1581 1919 1581 
Q 1219 1581 811 2004 
Q 403 2428 403 3163 
Q 403 3881 828 4315 
Q 1253 4750 1959 4750 
Q 2769 4750 3195 4129 
Q 3622 3509 3622 2328 
Q 3622 1225 3098 567 
Q 2575 -91 1691 -91 
Q 1453 -91 1209 -44 
Q 966 3 703 97 
z
M 1959 2075 
Q 2384 2075 2632 2365 
Q 2881 2656 2881 3163 
Q 2881 3666 2632 3958 
Q 2384 4250 1959 4250 
Q 1534 4250 1286 3958 
Q 1038 3666 1038 3163 
Q 1038 2656 1286 2365 
Q 1534 2075 1959 2075 
z
" transform="scale(0.015625)"/>
       </defs>
       <use xlink:href="#DejaVuSans-2212"/>
       <use xlink:href="#DejaVuSans-39" transform="translate(83.789062 0)"/>
      </g>
     </g>
    </g>
    <g id="ytick_6">
     <g id="line2d_8">
      <path d="M 47.5 268.701509 
L 622.485 268.701509 
" clip-path="url(#pcdd3fabb51)" style="fill: none; stroke: #ffffff; stroke-width: 0.8; stroke-linecap: round"/>
     </g>
     <g id="text_8">
      <!-- −6 -->
      <g style="fill: #262626" transform="translate(19.860938 274.020416) scale(0.14 -0.14)">
       <defs>
        <path id="DejaVuSans-36" d="M 2113 2584 
Q 1688 2584 1439 2293 
Q 1191 2003 1191 1497 
Q 1191 994 1439 701 
Q 1688 409 2113 409 
Q 2538 409 2786 701 
Q 3034 994 3034 1497 
Q 3034 2003 2786 2293 
Q 2538 2584 2113 2584 
z
M 3366 4563 
L 3366 3988 
Q 3128 4100 2886 4159 
Q 2644 4219 2406 4219 
Q 1781 4219 1451 3797 
Q 1122 3375 1075 2522 
Q 1259 2794 1537 2939 
Q 1816 3084 2150 3084 
Q 2853 3084 3261 2657 
Q 3669 2231 3669 1497 
Q 3669 778 3244 343 
Q 2819 -91 2113 -91 
Q 1303 -91 875 529 
Q 447 1150 447 2328 
Q 447 3434 972 4092 
Q 1497 4750 2381 4750 
Q 2619 4750 2861 4703 
Q 3103 4656 3366 4563 
z
" transform="scale(0.015625)"/>
       </defs>
       <use xlink:href="#DejaVuSans-2212"/>
       <use xlink:href="#DejaVuSans-36" transform="translate(83.789062 0)"/>
      </g>
     </g>
    </g>
    <g id="ytick_7">
     <g id="line2d_9">
      <path d="M 47.5 244.380755 
L 622.485 244.380755 
" clip-path="url(#pcdd3fabb51)" style="fill: none; stroke: #ffffff; stroke-width: 0.8; stroke-linecap: round"/>
     </g>
     <g id="text_9">
      <!-- −3 -->
      <g style="fill: #262626" transform="translate(19.860938 249.699661) scale(0.14 -0.14)">
       <defs>
        <path id="DejaVuSans-33" d="M 2597 2516 
Q 3050 2419 3304 2112 
Q 3559 1806 3559 1356 
Q 3559 666 3084 287 
Q 2609 -91 1734 -91 
Q 1441 -91 1130 -33 
Q 819 25 488 141 
L 488 750 
Q 750 597 1062 519 
Q 1375 441 1716 441 
Q 2309 441 2620 675 
Q 2931 909 2931 1356 
Q 2931 1769 2642 2001 
Q 2353 2234 1838 2234 
L 1294 2234 
L 1294 2753 
L 1863 2753 
Q 2328 2753 2575 2939 
Q 2822 3125 2822 3475 
Q 2822 3834 2567 4026 
Q 2313 4219 1838 4219 
Q 1578 4219 1281 4162 
Q 984 4106 628 3988 
L 628 4550 
Q 988 4650 1302 4700 
Q 1616 4750 1894 4750 
Q 2613 4750 3031 4423 
Q 3450 4097 3450 3541 
Q 3450 3153 3228 2886 
Q 3006 2619 2597 2516 
z
" transform="scale(0.015625)"/>
       </defs>
       <use xlink:href="#DejaVuSans-2212"/>
       <use xlink:href="#DejaVuSans-33" transform="translate(83.789062 0)"/>
      </g>
     </g>
    </g>
    <g id="ytick_8">
     <g id="line2d_10">
      <path d="M 47.5 220.06 
L 622.485 220.06 
" clip-path="url(#pcdd3fabb51)" style="fill: none; stroke: #ffffff; stroke-width: 0.8; stroke-linecap: round"/>
     </g>
     <g id="text_10">
      <!-- 0 -->
      <g style="fill: #262626" transform="translate(31.5925 225.378906) scale(0.14 -0.14)">
       <use xlink:href="#DejaVuSans-30"/>
      </g>
     </g>
    </g>
    <g id="ytick_9">
     <g id="line2d_11">
      <path d="M 47.5 195.739245 
L 622.485 195.739245 
" clip-path="url(#pcdd3fabb51)" style="fill: none; stroke: #ffffff; stroke-width: 0.8; stroke-linecap: round"/>
     </g>
     <g id="text_11">
      <!-- 3 -->
      <g style="fill: #262626" transform="translate(31.5925 201.058152) scale(0.14 -0.14)">
       <use xlink:href="#DejaVuSans-33"/>
      </g>
     </g>
    </g>
    <g id="ytick_10">
     <g id="line2d_12">
      <path d="M 47.5 171.418491 
L 622.485 171.418491 
" clip-path="url(#pcdd3fabb51)" style="fill: none; stroke: #ffffff; stroke-width: 0.8; stroke-linecap: round"/>
     </g>
     <g id="text_12">
      <!-- 6 -->
      <g style="fill: #262626" transform="translate(31.5925 176.737397) scale(0.14 -0.14)">
       <use xlink:href="#DejaVuSans-36"/>
      </g>
     </g>
    </g>
    <g id="ytick_11">
     <g id="line2d_13">
      <path d="M 47.5 147.097736 
L 622.485 147.097736 
" clip-path="url(#pcdd3fabb51)" style="fill: none; stroke: #ffffff; stroke-width: 0.8; stroke-linecap: round"/>
     </g>
     <g id="text_13">
      <!-- 9 -->
      <g style="fill: #262626" transform="translate(31.5925 152.416642) scale(0.14 -0.14)">
       <use xlink:href="#DejaVuSans-39"/>
      </g>
     </g>
    </g>
    <g id="ytick_12">
     <g id="line2d_14">
      <path d="M 47.5 122.776981 
L 622.485 122.776981 
" clip-path="url(#pcdd3fabb51)" style="fill: none; stroke: #ffffff; stroke-width: 0.8; stroke-linecap: round"/>
     </g>
     <g id="text_14">
      <!-- 12 -->
      <g style="fill: #262626" transform="translate(22.685 128.095887) scale(0.14 -0.14)">
       <use xlink:href="#DejaVuSans-31"/>
       <use xlink:href="#DejaVuSans-32" transform="translate(63.623047 0)"/>
      </g>
     </g>
    </g>
    <g id="ytick_13">
     <g id="line2d_15">
      <path d="M 47.5 98.456226 
L 622.485 98.456226 
" clip-path="url(#pcdd3fabb51)" style="fill: none; stroke: #ffffff; stroke-width: 0.8; stroke-linecap: round"/>
     </g>
     <g id="text_15">
      <!-- 15 -->
      <g style="fill: #262626" transform="translate(22.685 103.775133) scale(0.14 -0.14)">
       <use xlink:href="#DejaVuSans-31"/>
       <use xlink:href="#DejaVuSans-35" transform="translate(63.623047 0)"/>
      </g>
     </g>
    </g>
    <g id="ytick_14">
     <g id="line2d_16">
      <path d="M 47.5 74.135472 
L 622.485 74.135472 
" clip-path="url(#pcdd3fabb51)" style="fill: none; stroke: #ffffff; stroke-width: 0.8; stroke-linecap: round"/>
     </g>
     <g id="text_16">
      <!-- 18 -->
      <g style="fill: #262626" transform="translate(22.685 79.454378) scale(0.14 -0.14)">
       <use xlink:href="#DejaVuSans-31"/>
       <use xlink:href="#DejaVuSans-38" transform="translate(63.623047 0)"/>
      </g>
     </g>
    </g>
    <g id="ytick_15">
     <g id="line2d_17">
      <path d="M 47.5 49.814717 
L 622.485 49.814717 
" clip-path="url(#pcdd3fabb51)" style="fill: none; stroke: #ffffff; stroke-width: 0.8; stroke-linecap: round"/>
     </g>
     <g id="text_17">
      <!-- 21 -->
      <g style="fill: #262626" transform="translate(22.685 55.133623) scale(0.14 -0.14)">
       <use xlink:href="#DejaVuSans-32"/>
       <use xlink:href="#DejaVuSans-31" transform="translate(63.623047 0)"/>
      </g>
     </g>
    </g>
   </g>
   <g id="FillBetweenPolyCollection_1">
    <path d="M 58.410531 382.546383 
L 58.410531 388.335881 
L 63.996723 385.854262 
L 69.582915 384.839861 
L 75.169107 383.108945 
L 80.755299 381.755861 
L 86.341491 379.426153 
L 91.927683 371.152362 
L 97.513876 351.611629 
L 103.100068 342.327464 
L 108.68626 325.160379 
L 114.272452 282.122328 
L 119.858644 259.591943 
L 125.444836 199.23048 
L 131.031028 166.245324 
L 136.61722 150.984363 
L 142.203412 123.489022 
L 147.789604 101.387575 
L 153.375796 126.12356 
L 158.961988 92.328674 
L 164.54818 93.859575 
L 170.134372 106.333233 
L 175.720564 82.393225 
L 181.306756 80.870848 
L 186.892948 85.164518 
L 192.47914 84.036609 
L 198.065332 81.135065 
L 203.651524 78.02772 
L 209.237716 77.54031 
L 214.823908 61.498181 
L 220.4101 60.601979 
L 225.996292 71.925217 
L 231.582484 66.257802 
L 237.168676 95.314548 
L 242.754868 211.457134 
L 248.34106 82.675349 
L 253.927252 68.405403 
L 259.513444 114.006353 
L 265.099636 63.523469 
L 270.685828 80.525653 
L 276.27202 85.131635 
L 281.858213 76.541074 
L 287.444405 90.96315 
L 293.030597 70.522637 
L 298.616789 63.261458 
L 304.202981 62.494882 
L 309.789173 74.148847 
L 315.375365 109.273797 
L 320.961557 61.481517 
L 326.547749 74.78485 
L 332.133941 71.660509 
L 337.720133 101.452858 
L 343.306325 101.614905 
L 348.892517 59.543019 
L 354.478709 62.102523 
L 360.064901 70.371405 
L 365.651093 67.088335 
L 371.237285 130.658653 
L 376.823477 65.084884 
L 382.409669 104.732754 
L 387.995861 124.324839 
L 393.582053 64.949666 
L 399.168245 103.863276 
L 404.754437 121.530224 
L 410.340629 65.259903 
L 415.926821 74.054913 
L 421.513013 72.72911 
L 427.099205 75.699295 
L 432.685397 85.137937 
L 438.271589 65.743619 
L 443.857781 81.11374 
L 449.443973 180.583941 
L 455.030165 63.754365 
L 460.616357 76.492833 
L 466.20255 59.449923 
L 471.788742 60.647575 
L 477.374934 63.477532 
L 482.961126 82.708978 
L 488.547318 80.782316 
L 494.13351 60.409581 
L 499.719702 80.403463 
L 505.305894 86.491177 
L 510.892086 94.048819 
L 516.478278 89.559573 
L 522.06447 62.292422 
L 527.650662 59.0351 
L 533.236854 60.867933 
L 538.823046 62.362942 
L 544.409238 65.682746 
L 549.99543 59.340346 
L 555.581622 79.473227 
L 561.167814 64.663651 
L 566.754006 59.572696 
L 572.340198 63.233174 
L 577.92639 62.851413 
L 583.512582 69.040968 
L 589.098774 59.370634 
L 594.684966 75.022715 
L 600.271158 59.869981 
L 605.85735 73.462224 
L 611.443542 76.477039 
L 611.443542 47.067804 
L 611.443542 47.067804 
L 605.85735 57.784191 
L 600.271158 53.135869 
L 594.684966 48.116782 
L 589.098774 51.20314 
L 583.512582 51.261108 
L 577.92639 53.397203 
L 572.340198 53.420788 
L 566.754006 52.622461 
L 561.167814 52.395657 
L 555.581622 46.909037 
L 549.99543 52.044119 
L 544.409238 49.755179 
L 538.823046 50.642907 
L 533.236854 51.327224 
L 527.650662 50.727981 
L 522.06447 50.713427 
L 516.478278 42.497534 
L 510.892086 41.251055 
L 505.305894 58.536999 
L 499.719702 50.03226 
L 494.13351 53.001614 
L 488.547318 58.976363 
L 482.961126 53.806934 
L 477.374934 53.581777 
L 471.788742 51.547582 
L 466.20255 50.718505 
L 460.616357 49.07874 
L 455.030165 53.710289 
L 449.443973 19.571279 
L 443.857781 50.943367 
L 438.271589 53.342419 
L 432.685397 46.91917 
L 427.099205 51.493661 
L 421.513013 56.08523 
L 415.926821 54.759426 
L 410.340629 55.447518 
L 404.754437 41.333173 
L 399.168245 38.327479 
L 393.582053 53.731026 
L 387.995861 47.861514 
L 382.409669 52.861146 
L 376.823477 54.4065 
L 371.237285 37.879586 
L 365.651093 51.997703 
L 360.064901 58.442935 
L 354.478709 56.172823 
L 348.892517 53.057484 
L 343.306325 45.034655 
L 337.720133 44.791356 
L 332.133941 53.505718 
L 326.547749 56.866911 
L 320.961557 55.983137 
L 315.375365 50.752178 
L 309.789173 52.638763 
L 304.202981 56.996502 
L 298.616789 55.013888 
L 293.030597 53.022206 
L 287.444405 55.68641 
L 281.858213 57.948108 
L 276.27202 51.789623 
L 270.685828 54.774221 
L 265.099636 55.157223 
L 259.513444 43.992893 
L 253.927252 54.328748 
L 248.34106 51.408488 
L 242.754868 13.424187 
L 237.168676 53.767087 
L 231.582484 58.503078 
L 225.996292 56.889123 
L 220.4101 56.051983 
L 214.823908 53.534398 
L 209.237716 53.30076 
L 203.651524 53.218695 
L 198.065332 60.244998 
L 192.47914 56.532762 
L 186.892948 59.863658 
L 181.306756 62.535945 
L 175.720564 62.634951 
L 170.134372 52.071358 
L 164.54818 62.112941 
L 158.961988 62.022458 
L 153.375796 63.898012 
L 147.789604 66.745318 
L 142.203412 66.127204 
L 136.61722 71.870228 
L 131.031028 82.14606 
L 125.444836 135.499583 
L 119.858644 175.25856 
L 114.272452 235.824087 
L 108.68626 257.641382 
L 103.100068 293.574612 
L 97.513876 317.528811 
L 91.927683 339.738707 
L 86.341491 354.164288 
L 80.755299 365.210994 
L 75.169107 376.018288 
L 69.582915 378.746176 
L 63.996723 380.569198 
L 58.410531 382.546383 
z
" clip-path="url(#pcdd3fabb51)" style="fill: #0000ff; fill-opacity: 0.1"/>
   </g>
   <g id="line2d_18">
    <path d="M 58.410531 385.441132 
L 63.996723 383.21173 
L 69.582915 381.793019 
L 75.169107 379.563616 
L 80.755299 373.483428 
L 86.341491 366.79522 
L 91.927683 355.445535 
L 97.513876 334.57022 
L 103.100068 317.951038 
L 108.68626 291.400881 
L 114.272452 258.973208 
L 119.858644 217.425252 
L 125.444836 167.365031 
L 131.031028 124.195692 
L 136.61722 111.427296 
L 142.203412 94.808113 
L 147.789604 84.066447 
L 153.375796 95.010786 
L 158.961988 77.175566 
L 164.54818 77.986258 
L 170.134372 79.202296 
L 175.720564 72.514088 
L 181.306756 71.703396 
L 186.892948 72.514088 
L 192.47914 70.284686 
L 198.065332 70.690031 
L 203.651524 65.623208 
L 209.237716 65.420535 
L 214.823908 57.516289 
L 220.4101 58.326981 
L 225.996292 64.40717 
L 231.582484 62.38044 
L 237.168676 74.540818 
L 242.754868 112.44066 
L 248.34106 67.041918 
L 253.927252 61.367075 
L 259.513444 78.999623 
L 265.099636 59.340346 
L 270.685828 67.649937 
L 276.27202 68.460629 
L 281.858213 67.244591 
L 287.444405 73.32478 
L 293.030597 61.772421 
L 298.616789 59.137673 
L 304.202981 59.745692 
L 309.789173 63.393805 
L 315.375365 80.012987 
L 320.961557 58.732327 
L 326.547749 65.825881 
L 332.133941 62.583113 
L 337.720133 73.122107 
L 343.306325 73.32478 
L 348.892517 56.300252 
L 354.478709 59.137673 
L 360.064901 64.40717 
L 365.651093 59.543019 
L 371.237285 84.269119 
L 376.823477 59.745692 
L 382.409669 78.79695 
L 387.995861 86.093176 
L 393.582053 59.340346 
L 399.168245 71.095377 
L 404.754437 81.431698 
L 410.340629 60.353711 
L 415.926821 64.40717 
L 421.513013 64.40717 
L 427.099205 63.596478 
L 432.685397 66.028553 
L 438.271589 59.543019 
L 443.857781 66.028553 
L 449.443973 100.07761 
L 455.030165 58.732327 
L 460.616357 62.785786 
L 466.20255 55.084214 
L 471.788742 56.097579 
L 477.374934 58.529654 
L 482.961126 68.257956 
L 488.547318 69.87934 
L 494.13351 56.705597 
L 499.719702 65.217862 
L 505.305894 72.514088 
L 510.892086 67.649937 
L 516.478278 66.028553 
L 522.06447 56.502925 
L 527.650662 54.881541 
L 533.236854 56.097579 
L 538.823046 56.502925 
L 544.409238 57.718962 
L 549.99543 55.692233 
L 555.581622 63.191132 
L 561.167814 58.529654 
L 566.754006 56.097579 
L 572.340198 58.326981 
L 577.92639 58.124308 
L 583.512582 60.151038 
L 589.098774 55.286887 
L 594.684966 61.569748 
L 600.271158 56.502925 
L 605.85735 65.623208 
L 611.443542 61.772421 
" clip-path="url(#pcdd3fabb51)" style="fill: none; stroke: #0000ff; stroke-width: 2; stroke-linecap: round"/>
   </g>
   <g id="line2d_19">
    <path d="M 58.410531 386.251824 
L 63.996723 381.185 
L 69.582915 383.21173 
L 75.169107 377.131541 
L 80.755299 360.917704 
L 86.341491 344.703868 
L 91.927683 327.476667 
L 97.513876 311.26283 
L 103.100068 300.115818 
L 108.68626 290.995535 
L 114.272452 254.514403 
L 119.858644 176.485314 
L 125.444836 120.750252 
L 131.031028 98.456226 
L 136.61722 75.148836 
L 142.203412 90.349308 
L 147.789604 60.96173 
L 153.375796 60.96173 
L 158.961988 57.921635 
L 164.54818 57.921635 
L 170.134372 59.948365 
L 175.720564 68.055283 
L 181.306756 68.055283 
L 186.892948 67.041918 
L 192.47914 57.921635 
L 198.065332 84.269119 
L 203.651524 57.921635 
L 209.237716 59.948365 
L 214.823908 60.96173 
L 220.4101 57.921635 
L 225.996292 57.921635 
L 231.582484 57.921635 
L 237.168676 57.921635 
L 242.754868 57.921635 
L 248.34106 58.935 
L 253.927252 58.935 
L 259.513444 148.111101 
L 265.099636 57.921635 
L 270.685828 85.282484 
L 276.27202 99.469591 
L 281.858213 57.921635 
L 287.444405 99.469591 
L 293.030597 57.921635 
L 298.616789 57.921635 
L 304.202981 57.921635 
L 309.789173 84.269119 
L 315.375365 135.950723 
L 320.961557 57.921635 
L 326.547749 61.975094 
L 332.133941 62.988459 
L 337.720133 128.85717 
L 343.306325 60.96173 
L 348.892517 57.921635 
L 354.478709 57.921635 
L 360.064901 57.921635 
L 365.651093 57.921635 
L 371.237285 57.921635 
L 376.823477 69.068648 
L 382.409669 104.536415 
L 387.995861 124.803711 
L 393.582053 65.015189 
L 399.168245 135.950723 
L 404.754437 159.258113 
L 410.340629 64.001824 
L 415.926821 57.921635 
L 421.513013 57.921635 
L 427.099205 86.295849 
L 432.685397 60.96173 
L 438.271589 57.921635 
L 443.857781 94.402767 
L 449.443973 69.068648 
L 455.030165 62.988459 
L 460.616357 89.335943 
L 466.20255 57.921635 
L 471.788742 57.921635 
L 477.374934 57.921635 
L 482.961126 86.295849 
L 488.547318 87.309214 
L 494.13351 57.921635 
L 499.719702 57.921635 
L 505.305894 83.255755 
L 510.892086 59.948365 
L 516.478278 112.643333 
L 522.06447 57.921635 
L 527.650662 57.921635 
L 533.236854 60.96173 
L 538.823046 57.921635 
L 544.409238 72.108742 
L 549.99543 57.921635 
L 555.581622 94.402767 
L 561.167814 57.921635 
L 566.754006 57.921635 
L 572.340198 57.921635 
L 577.92639 59.948365 
L 583.512582 65.015189 
L 589.098774 58.935 
L 594.684966 87.309214 
L 600.271158 57.921635 
L 605.85735 57.921635 
L 611.443542 57.921635 
" clip-path="url(#pcdd3fabb51)" style="fill: none; stroke: #008000; stroke-opacity: 0.27; stroke-width: 1.25; stroke-linecap: round"/>
   </g>
   <g id="line2d_20">
    <path d="M 58.410531 389.291918 
L 63.996723 379.15827 
L 69.582915 381.185 
L 75.169107 380.171635 
L 80.755299 372.064717 
L 86.341491 377.131541 
L 91.927683 365.984528 
L 97.513876 351.797421 
L 103.100068 345.717233 
L 108.68626 305.182642 
L 114.272452 275.795063 
L 119.858644 256.541132 
L 125.444836 145.071006 
L 131.031028 106.563145 
L 136.61722 91.362673 
L 142.203412 81.229025 
L 147.789604 72.108742 
L 153.375796 70.082013 
L 158.961988 60.96173 
L 164.54818 102.509686 
L 170.134372 66.028553 
L 175.720564 65.015189 
L 181.306756 70.082013 
L 186.892948 58.935 
L 192.47914 62.988459 
L 198.065332 57.921635 
L 203.651524 58.935 
L 209.237716 69.068648 
L 214.823908 59.948365 
L 220.4101 58.935 
L 225.996292 66.028553 
L 231.582484 62.988459 
L 237.168676 57.921635 
L 242.754868 61.975094 
L 248.34106 66.028553 
L 253.927252 60.96173 
L 259.513444 64.001824 
L 265.099636 62.988459 
L 270.685828 60.96173 
L 276.27202 67.041918 
L 281.858213 64.001824 
L 287.444405 86.295849 
L 293.030597 57.921635 
L 298.616789 65.015189 
L 304.202981 64.001824 
L 309.789173 58.935 
L 315.375365 74.135472 
L 320.961557 64.001824 
L 326.547749 83.255755 
L 332.133941 79.202296 
L 337.720133 65.015189 
L 343.306325 58.935 
L 348.892517 57.921635 
L 354.478709 61.975094 
L 360.064901 66.028553 
L 365.651093 57.921635 
L 371.237285 57.921635 
L 376.823477 57.921635 
L 382.409669 61.975094 
L 387.995861 57.921635 
L 393.582053 57.921635 
L 399.168245 61.975094 
L 404.754437 57.921635 
L 410.340629 59.948365 
L 415.926821 67.041918 
L 421.513013 60.96173 
L 427.099205 57.921635 
L 432.685397 57.921635 
L 438.271589 57.921635 
L 443.857781 58.935 
L 449.443973 260.594591 
L 455.030165 64.001824 
L 460.616357 59.948365 
L 466.20255 57.921635 
L 471.788742 61.975094 
L 477.374934 65.015189 
L 482.961126 60.96173 
L 488.547318 64.001824 
L 494.13351 60.96173 
L 499.719702 57.921635 
L 505.305894 60.96173 
L 510.892086 58.935 
L 516.478278 57.921635 
L 522.06447 60.96173 
L 527.650662 57.921635 
L 533.236854 59.948365 
L 538.823046 66.028553 
L 544.409238 57.921635 
L 549.99543 59.948365 
L 555.581622 58.935 
L 561.167814 57.921635 
L 566.754006 58.935 
L 572.340198 58.935 
L 577.92639 64.001824 
L 583.512582 59.948365 
L 589.098774 58.935 
L 594.684966 58.935 
L 600.271158 57.921635 
L 605.85735 59.948365 
L 611.443542 58.935 
" clip-path="url(#pcdd3fabb51)" style="fill: none; stroke: #008000; stroke-opacity: 0.27; stroke-width: 1.25; stroke-linecap: round"/>
   </g>
   <g id="line2d_21">
    <path d="M 58.410531 387.265189 
L 63.996723 384.225094 
L 69.582915 384.225094 
L 75.169107 377.131541 
L 80.755299 379.15827 
L 86.341491 373.078082 
L 91.927683 369.024623 
L 97.513876 354.837516 
L 103.100068 344.703868 
L 108.68626 338.623679 
L 114.272452 258.567862 
L 119.858644 158.244748 
L 125.444836 167.365031 
L 131.031028 123.790346 
L 136.61722 108.589874 
L 142.203412 76.162201 
L 147.789604 108.589874 
L 153.375796 134.937358 
L 158.961988 94.402767 
L 164.54818 87.309214 
L 170.134372 132.910629 
L 175.720564 85.282484 
L 181.306756 85.282484 
L 186.892948 93.389403 
L 192.47914 92.376038 
L 198.065332 76.162201 
L 203.651524 59.948365 
L 209.237716 49.814717 
L 214.823908 49.814717 
L 220.4101 54.881541 
L 225.996292 61.975094 
L 231.582484 66.028553 
L 237.168676 87.309214 
L 242.754868 49.814717 
L 248.34106 54.881541 
L 253.927252 49.814717 
L 259.513444 52.854811 
L 265.099636 51.841447 
L 270.685828 49.814717 
L 276.27202 49.814717 
L 281.858213 76.162201 
L 287.444405 51.841447 
L 293.030597 55.894906 
L 298.616789 52.854811 
L 304.202981 56.90827 
L 309.789173 53.868176 
L 315.375365 49.814717 
L 320.961557 55.894906 
L 326.547749 65.015189 
L 332.133941 51.841447 
L 337.720133 49.814717 
L 343.306325 129.870535 
L 348.892517 49.814717 
L 354.478709 54.881541 
L 360.064901 75.148836 
L 365.651093 49.814717 
L 371.237285 176.485314 
L 376.823477 60.96173 
L 382.409669 53.868176 
L 387.995861 49.814717 
L 393.582053 49.814717 
L 399.168245 49.814717 
L 404.754437 51.841447 
L 410.340629 52.854811 
L 415.926821 56.90827 
L 421.513013 65.015189 
L 427.099205 50.828082 
L 432.685397 49.814717 
L 438.271589 49.814717 
L 443.857781 50.828082 
L 449.443973 49.814717 
L 455.030165 49.814717 
L 460.616357 49.814717 
L 466.20255 49.814717 
L 471.788742 49.814717 
L 477.374934 49.814717 
L 482.961126 49.814717 
L 488.547318 64.001824 
L 494.13351 49.814717 
L 499.719702 95.416132 
L 505.305894 85.282484 
L 510.892086 49.814717 
L 516.478278 49.814717 
L 522.06447 49.814717 
L 527.650662 49.814717 
L 533.236854 50.828082 
L 538.823046 50.828082 
L 544.409238 50.828082 
L 549.99543 51.841447 
L 555.581622 50.828082 
L 561.167814 49.814717 
L 566.754006 49.814717 
L 572.340198 49.814717 
L 577.92639 49.814717 
L 583.512582 49.814717 
L 589.098774 49.814717 
L 594.684966 51.841447 
L 600.271158 58.935 
L 605.85735 76.162201 
L 611.443542 49.814717 
" clip-path="url(#pcdd3fabb51)" style="fill: none; stroke: #008000; stroke-opacity: 0.27; stroke-width: 1.25; stroke-linecap: round"/>
   </g>
   <g id="line2d_22">
    <path d="M 58.410531 381.185 
L 63.996723 385.238459 
L 69.582915 376.118176 
L 75.169107 377.131541 
L 80.755299 370.037987 
L 86.341491 360.917704 
L 91.927683 348.757327 
L 97.513876 334.57022 
L 103.100068 283.901981 
L 108.68626 234.247107 
L 114.272452 219.046635 
L 119.858644 235.260472 
L 125.444836 197.765975 
L 131.031028 204.859528 
L 136.61722 187.632327 
L 142.203412 151.151195 
L 147.789604 98.456226 
L 153.375796 129.870535 
L 158.961988 81.229025 
L 164.54818 77.175566 
L 170.134372 72.108742 
L 175.720564 83.255755 
L 181.306756 77.175566 
L 186.892948 80.21566 
L 192.47914 80.21566 
L 198.065332 76.162201 
L 203.651524 90.349308 
L 209.237716 86.295849 
L 214.823908 58.935 
L 220.4101 61.975094 
L 225.996292 78.188931 
L 231.582484 67.041918 
L 237.168676 109.603239 
L 242.754868 83.255755 
L 248.34106 97.442862 
L 253.927252 70.082013 
L 259.513444 70.082013 
L 265.099636 62.988459 
L 270.685828 62.988459 
L 276.27202 59.948365 
L 281.858213 57.921635 
L 287.444405 71.095377 
L 293.030597 57.921635 
L 298.616789 57.921635 
L 304.202981 57.921635 
L 309.789173 57.921635 
L 315.375365 68.055283 
L 320.961557 57.921635 
L 326.547749 59.948365 
L 332.133941 59.948365 
L 337.720133 61.975094 
L 343.306325 57.921635 
L 348.892517 57.921635 
L 354.478709 62.988459 
L 360.064901 61.975094 
L 365.651093 73.122107 
L 371.237285 71.095377 
L 376.823477 52.854811 
L 382.409669 115.683428 
L 387.995861 140.004182 
L 393.582053 65.015189 
L 399.168245 49.814717 
L 404.754437 80.21566 
L 410.340629 67.041918 
L 415.926821 82.24239 
L 421.513013 80.21566 
L 427.099205 64.001824 
L 432.685397 103.52305 
L 438.271589 64.001824 
L 443.857781 67.041918 
L 449.443973 62.988459 
L 455.030165 58.935 
L 460.616357 56.90827 
L 466.20255 49.814717 
L 471.788742 51.841447 
L 477.374934 59.948365 
L 482.961126 84.269119 
L 488.547318 56.90827 
L 494.13351 56.90827 
L 499.719702 54.881541 
L 505.305894 50.828082 
L 510.892086 49.814717 
L 516.478278 51.841447 
L 522.06447 49.814717 
L 527.650662 49.814717 
L 533.236854 49.814717 
L 538.823046 49.814717 
L 544.409238 49.814717 
L 549.99543 50.828082 
L 555.581622 49.814717 
L 561.167814 69.068648 
L 566.754006 54.881541 
L 572.340198 59.948365 
L 577.92639 56.90827 
L 583.512582 51.841447 
L 589.098774 50.828082 
L 594.684966 49.814717 
L 600.271158 49.814717 
L 605.85735 59.948365 
L 611.443542 51.841447 
" clip-path="url(#pcdd3fabb51)" style="fill: none; stroke: #008000; stroke-opacity: 0.27; stroke-width: 1.25; stroke-linecap: round"/>
   </g>
   <g id="line2d_23">
    <path d="M 58.410531 383.21173 
L 63.996723 386.251824 
L 69.582915 384.225094 
L 75.169107 386.251824 
L 80.755299 385.238459 
L 86.341491 378.144906 
L 91.927683 365.984528 
L 97.513876 320.383113 
L 103.100068 315.316289 
L 108.68626 287.95544 
L 114.272452 286.942075 
L 119.858644 260.594591 
L 125.444836 205.872893 
L 131.031028 87.309214 
L 136.61722 94.402767 
L 142.203412 75.148836 
L 147.789604 80.21566 
L 153.375796 79.202296 
L 158.961988 91.362673 
L 164.54818 65.015189 
L 170.134372 65.015189 
L 175.720564 60.96173 
L 181.306756 57.921635 
L 186.892948 62.988459 
L 192.47914 57.921635 
L 198.065332 58.935 
L 203.651524 60.96173 
L 209.237716 61.975094 
L 214.823908 57.921635 
L 220.4101 57.921635 
L 225.996292 57.921635 
L 231.582484 57.921635 
L 237.168676 59.948365 
L 242.754868 309.236101 
L 248.34106 57.921635 
L 253.927252 67.041918 
L 259.513444 59.948365 
L 265.099636 60.96173 
L 270.685828 79.202296 
L 276.27202 66.028553 
L 281.858213 80.21566 
L 287.444405 57.921635 
L 293.030597 79.202296 
L 298.616789 61.975094 
L 304.202981 61.975094 
L 309.789173 61.975094 
L 315.375365 72.108742 
L 320.961557 57.921635 
L 326.547749 58.935 
L 332.133941 58.935 
L 337.720133 59.948365 
L 343.306325 58.935 
L 348.892517 57.921635 
L 354.478709 57.921635 
L 360.064901 60.96173 
L 365.651093 58.935 
L 371.237285 57.921635 
L 376.823477 57.921635 
L 382.409669 57.921635 
L 387.995861 57.921635 
L 393.582053 58.935 
L 399.168245 57.921635 
L 404.754437 57.921635 
L 410.340629 57.921635 
L 415.926821 57.921635 
L 421.513013 57.921635 
L 427.099205 58.935 
L 432.685397 57.921635 
L 438.271589 68.055283 
L 443.857781 58.935 
L 449.443973 57.921635 
L 455.030165 57.921635 
L 460.616357 57.921635 
L 466.20255 59.948365 
L 471.788742 58.935 
L 477.374934 59.948365 
L 482.961126 59.948365 
L 488.547318 77.175566 
L 494.13351 57.921635 
L 499.719702 59.948365 
L 505.305894 82.24239 
L 510.892086 119.736887 
L 516.478278 57.921635 
L 522.06447 64.001824 
L 527.650662 58.935 
L 533.236854 58.935 
L 538.823046 57.921635 
L 544.409238 57.921635 
L 549.99543 57.921635 
L 555.581622 61.975094 
L 561.167814 57.921635 
L 566.754006 58.935 
L 572.340198 65.015189 
L 577.92639 59.948365 
L 583.512582 74.135472 
L 589.098774 57.921635 
L 594.684966 59.948365 
L 600.271158 57.921635 
L 605.85735 74.135472 
L 611.443542 90.349308 
" clip-path="url(#pcdd3fabb51)" style="fill: none; stroke: #008000; stroke-opacity: 0.27; stroke-width: 1.25; stroke-linecap: round"/>
   </g>
   <g id="line2d_24">
    <path d="M 58.410531 49.814717 
L 63.996723 72.058711 
L 69.582915 108.153189 
L 75.169107 154.921672 
L 80.755299 198.712667 
L 86.341491 232.235385 
L 91.927683 262.782648 
L 97.513876 294.013619 
L 103.100068 308.10799 
L 108.68626 317.927147 
L 114.272452 318.466649 
L 119.858644 314.395705 
L 125.444836 316.154914 
L 131.031028 317.921099 
L 136.61722 313.288229 
L 142.203412 302.857294 
L 147.789604 296.375124 
L 153.375796 285.916789 
L 158.961988 270.912438 
L 164.54818 278.668073 
L 170.134372 288.020059 
L 175.720564 273.429337 
L 181.306756 267.715052 
L 186.892948 276.71986 
L 192.47914 283.140276 
L 198.065332 303.731641 
L 203.651524 310.476897 
L 209.237716 298.764508 
L 214.823908 287.289096 
L 220.4101 301.563886 
L 225.996292 310.35842 
L 231.582484 316.994394 
L 237.168676 319.189337 
L 242.754868 357.14953 
L 248.34106 318.370795 
L 253.927252 316.432429 
L 259.513444 322.856203 
L 265.099636 319.595124 
L 270.685828 333.790806 
L 276.27202 354.304467 
L 281.858213 335.927832 
L 287.444405 340.473648 
L 293.030597 337.340522 
L 298.616789 342.994901 
L 304.202981 338.985391 
L 309.789173 335.415428 
L 315.375365 331.948883 
L 320.961557 340.613138 
L 326.547749 336.007007 
L 332.133941 330.973135 
L 337.720133 339.261084 
L 343.306325 341.81181 
L 348.892517 333.946821 
L 354.478709 344.531175 
L 360.064901 360.494275 
L 365.651093 341.936508 
L 371.237285 361.946021 
L 376.823477 346.187943 
L 382.409669 348.322543 
L 387.995861 347.847652 
L 393.582053 349.093017 
L 399.168245 370.796247 
L 404.754437 357.526258 
L 410.340629 354.141547 
L 415.926821 357.069507 
L 421.513013 365.010037 
L 427.099205 364.446567 
L 432.685397 369.238002 
L 438.271589 370.745188 
L 443.857781 370.285052 
L 449.443973 375.429077 
L 455.030165 363.195904 
L 460.616357 372.487476 
L 466.20255 371.817642 
L 471.788742 377.47171 
L 477.374934 376.945767 
L 482.961126 367.27402 
L 488.547318 390.305283 
L 494.13351 362.353774 
L 499.719702 353.672719 
L 505.305894 362.712859 
L 510.892086 367.602906 
L 516.478278 364.932663 
L 522.06447 370.694837 
L 527.650662 367.557729 
L 533.236854 362.104893 
L 538.823046 375.888816 
L 544.409238 365.028459 
L 549.99543 354.487986 
L 555.581622 353.87383 
L 561.167814 335.066616 
L 566.754006 328.774578 
L 572.340198 341.938271 
L 577.92639 345.765412 
L 583.512582 354.29089 
L 589.098774 352.681573 
L 594.684966 366.868301 
L 600.271158 362.149946 
L 605.85735 365.247034 
L 611.443542 357.457225 
" clip-path="url(#pcdd3fabb51)" style="fill: none; stroke: #7b3ab8; stroke-width: 1.5; stroke-linecap: round"/>
   </g>
   <g id="patch_3">
    <path d="M 47.5 400.52 
L 47.5 39.6 
" style="fill: none; stroke: #ffffff; stroke-width: 0.8; stroke-linejoin: miter; stroke-linecap: square"/>
   </g>
   <g id="patch_4">
    <path d="M 622.485 400.52 
L 622.485 39.6 
" style="fill: none; stroke: #ffffff; stroke-width: 0.8; stroke-linejoin: miter; stroke-linecap: square"/>
   </g>
   <g id="patch_5">
    <path d="M 47.5 400.52 
L 622.485 400.52 
" style="fill: none; stroke: #ffffff; stroke-width: 0.8; stroke-linejoin: miter; stroke-linecap: square"/>
   </g>
   <g id="patch_6">
    <path d="M 47.5 39.6 
L 622.485 39.6 
" style="fill: none; stroke: #ffffff; stroke-width: 0.8; stroke-linejoin: miter; stroke-linecap: square"/>
   </g>
  </g>
  <g id="text_18">
   <!-- Pong-v5 | CMU-Net (No modification) -->
   <g style="fill: #262626" transform="translate(136.726875 22.395938) scale(0.18 -0.18)">
    <defs>
     <path id="DejaVuSans-Bold-50" d="M 588 4666 
L 2584 4666 
Q 3475 4666 3951 4270 
Q 4428 3875 4428 3144 
Q 4428 2409 3951 2014 
Q 3475 1619 2584 1619 
L 1791 1619 
L 1791 0 
L 588 0 
L 588 4666 
z
M 1791 3794 
L 1791 2491 
L 2456 2491 
Q 2806 2491 2997 2661 
Q 3188 2831 3188 3144 
Q 3188 3456 2997 3625 
Q 2806 3794 2456 3794 
L 1791 3794 
z
" transform="scale(0.015625)"/>
     <path id="DejaVuSans-Bold-6f" d="M 2203 2784 
Q 1831 2784 1636 2517 
Q 1441 2250 1441 1747 
Q 1441 1244 1636 976 
Q 1831 709 2203 709 
Q 2569 709 2762 976 
Q 2956 1244 2956 1747 
Q 2956 2250 2762 2517 
Q 2569 2784 2203 2784 
z
M 2203 3584 
Q 3106 3584 3614 3096 
Q 4122 2609 4122 1747 
Q 4122 884 3614 396 
Q 3106 -91 2203 -91 
Q 1297 -91 786 396 
Q 275 884 275 1747 
Q 275 2609 786 3096 
Q 1297 3584 2203 3584 
z
" transform="scale(0.015625)"/>
     <path id="DejaVuSans-Bold-6e" d="M 4056 2131 
L 4056 0 
L 2931 0 
L 2931 347 
L 2931 1631 
Q 2931 2084 2911 2256 
Q 2891 2428 2841 2509 
Q 2775 2619 2662 2680 
Q 2550 2741 2406 2741 
Q 2056 2741 1856 2470 
Q 1656 2200 1656 1722 
L 1656 0 
L 538 0 
L 538 3500 
L 1656 3500 
L 1656 2988 
Q 1909 3294 2193 3439 
Q 2478 3584 2822 3584 
Q 3428 3584 3742 3212 
Q 4056 2841 4056 2131 
z
" transform="scale(0.015625)"/>
     <path id="DejaVuSans-Bold-67" d="M 2919 594 
Q 2688 288 2409 144 
Q 2131 0 1766 0 
Q 1125 0 706 504 
Q 288 1009 288 1791 
Q 288 2575 706 3076 
Q 1125 3578 1766 3578 
Q 2131 3578 2409 3434 
Q 2688 3291 2919 2981 
L 2919 3500 
L 4044 3500 
L 4044 353 
Q 4044 -491 3511 -936 
Q 2978 -1381 1966 -1381 
Q 1638 -1381 1331 -1331 
Q 1025 -1281 716 -1178 
L 716 -306 
Q 1009 -475 1290 -558 
Q 1572 -641 1856 -641 
Q 2406 -641 2662 -400 
Q 2919 -159 2919 353 
L 2919 594 
z
M 2181 2772 
Q 1834 2772 1640 2515 
Q 1447 2259 1447 1791 
Q 1447 1309 1634 1061 
Q 1822 813 2181 813 
Q 2531 813 2725 1069 
Q 2919 1325 2919 1791 
Q 2919 2259 2725 2515 
Q 2531 2772 2181 2772 
z
" transform="scale(0.015625)"/>
     <path id="DejaVuSans-Bold-2d" d="M 347 2297 
L 2309 2297 
L 2309 1388 
L 347 1388 
L 347 2297 
z
" transform="scale(0.015625)"/>
     <path id="DejaVuSans-Bold-76" d="M 97 3500 
L 1216 3500 
L 2088 1081 
L 2956 3500 
L 4078 3500 
L 2700 0 
L 1472 0 
L 97 3500 
z
" transform="scale(0.015625)"/>
     <path id="DejaVuSans-Bold-35" d="M 678 4666 
L 3669 4666 
L 3669 3781 
L 1638 3781 
L 1638 3059 
Q 1775 3097 1914 3117 
Q 2053 3138 2203 3138 
Q 3056 3138 3531 2711 
Q 4006 2284 4006 1522 
Q 4006 766 3489 337 
Q 2972 -91 2053 -91 
Q 1656 -91 1267 -14 
Q 878 63 494 219 
L 494 1166 
Q 875 947 1217 837 
Q 1559 728 1863 728 
Q 2300 728 2551 942 
Q 2803 1156 2803 1522 
Q 2803 1891 2551 2103 
Q 2300 2316 1863 2316 
Q 1603 2316 1309 2248 
Q 1016 2181 678 2041 
L 678 4666 
z
" transform="scale(0.015625)"/>
     <path id="DejaVuSans-Bold-20" transform="scale(0.015625)"/>
     <path id="DejaVuSans-Bold-7c" d="M 1522 4891 
L 1522 -1509 
L 813 -1509 
L 813 4891 
L 1522 4891 
z
" transform="scale(0.015625)"/>
     <path id="DejaVuSans-Bold-43" d="M 4288 256 
Q 3956 84 3597 -3 
Q 3238 -91 2847 -91 
Q 1681 -91 1000 561 
Q 319 1213 319 2328 
Q 319 3447 1000 4098 
Q 1681 4750 2847 4750 
Q 3238 4750 3597 4662 
Q 3956 4575 4288 4403 
L 4288 3438 
Q 3953 3666 3628 3772 
Q 3303 3878 2944 3878 
Q 2300 3878 1931 3465 
Q 1563 3053 1563 2328 
Q 1563 1606 1931 1193 
Q 2300 781 2944 781 
Q 3303 781 3628 887 
Q 3953 994 4288 1222 
L 4288 256 
z
" transform="scale(0.015625)"/>
     <path id="DejaVuSans-Bold-4d" d="M 588 4666 
L 2119 4666 
L 3181 2169 
L 4250 4666 
L 5778 4666 
L 5778 0 
L 4641 0 
L 4641 3413 
L 3566 897 
L 2803 897 
L 1728 3413 
L 1728 0 
L 588 0 
L 588 4666 
z
" transform="scale(0.015625)"/>
     <path id="DejaVuSans-Bold-55" d="M 588 4666 
L 1791 4666 
L 1791 1869 
Q 1791 1291 1980 1042 
Q 2169 794 2597 794 
Q 3028 794 3217 1042 
Q 3406 1291 3406 1869 
L 3406 4666 
L 4609 4666 
L 4609 1869 
Q 4609 878 4112 393 
Q 3616 -91 2597 -91 
Q 1581 -91 1084 393 
Q 588 878 588 1869 
L 588 4666 
z
" transform="scale(0.015625)"/>
     <path id="DejaVuSans-Bold-4e" d="M 588 4666 
L 1931 4666 
L 3628 1466 
L 3628 4666 
L 4769 4666 
L 4769 0 
L 3425 0 
L 1728 3200 
L 1728 0 
L 588 0 
L 588 4666 
z
" transform="scale(0.015625)"/>
     <path id="DejaVuSans-Bold-65" d="M 4031 1759 
L 4031 1441 
L 1416 1441 
Q 1456 1047 1700 850 
Q 1944 653 2381 653 
Q 2734 653 3104 758 
Q 3475 863 3866 1075 
L 3866 213 
Q 3469 63 3072 -14 
Q 2675 -91 2278 -91 
Q 1328 -91 801 392 
Q 275 875 275 1747 
Q 275 2603 792 3093 
Q 1309 3584 2216 3584 
Q 3041 3584 3536 3087 
Q 4031 2591 4031 1759 
z
M 2881 2131 
Q 2881 2450 2695 2645 
Q 2509 2841 2209 2841 
Q 1884 2841 1681 2658 
Q 1478 2475 1428 2131 
L 2881 2131 
z
" transform="scale(0.015625)"/>
     <path id="DejaVuSans-Bold-74" d="M 1759 4494 
L 1759 3500 
L 2913 3500 
L 2913 2700 
L 1759 2700 
L 1759 1216 
Q 1759 972 1856 886 
Q 1953 800 2241 800 
L 2816 800 
L 2816 0 
L 1856 0 
Q 1194 0 917 276 
Q 641 553 641 1216 
L 641 2700 
L 84 2700 
L 84 3500 
L 641 3500 
L 641 4494 
L 1759 4494 
z
" transform="scale(0.015625)"/>
     <path id="DejaVuSans-Bold-28" d="M 2413 -844 
L 1484 -844 
Q 1006 -72 778 623 
Q 550 1319 550 2003 
Q 550 2688 779 3389 
Q 1009 4091 1484 4856 
L 2413 4856 
Q 2013 4116 1813 3408 
Q 1613 2700 1613 2009 
Q 1613 1319 1811 609 
Q 2009 -100 2413 -844 
z
" transform="scale(0.015625)"/>
     <path id="DejaVuSans-Bold-6d" d="M 3781 2919 
Q 3994 3244 4286 3414 
Q 4578 3584 4928 3584 
Q 5531 3584 5847 3212 
Q 6163 2841 6163 2131 
L 6163 0 
L 5038 0 
L 5038 1825 
Q 5041 1866 5042 1909 
Q 5044 1953 5044 2034 
Q 5044 2406 4934 2573 
Q 4825 2741 4581 2741 
Q 4263 2741 4089 2478 
Q 3916 2216 3909 1719 
L 3909 0 
L 2784 0 
L 2784 1825 
Q 2784 2406 2684 2573 
Q 2584 2741 2328 2741 
Q 2006 2741 1831 2477 
Q 1656 2213 1656 1722 
L 1656 0 
L 531 0 
L 531 3500 
L 1656 3500 
L 1656 2988 
Q 1863 3284 2130 3434 
Q 2397 3584 2719 3584 
Q 3081 3584 3359 3409 
Q 3638 3234 3781 2919 
z
" transform="scale(0.015625)"/>
     <path id="DejaVuSans-Bold-64" d="M 2919 2988 
L 2919 4863 
L 4044 4863 
L 4044 0 
L 2919 0 
L 2919 506 
Q 2688 197 2409 53 
Q 2131 -91 1766 -91 
Q 1119 -91 703 423 
Q 288 938 288 1747 
Q 288 2556 703 3070 
Q 1119 3584 1766 3584 
Q 2128 3584 2408 3439 
Q 2688 3294 2919 2988 
z
M 2181 722 
Q 2541 722 2730 984 
Q 2919 1247 2919 1747 
Q 2919 2247 2730 2509 
Q 2541 2772 2181 2772 
Q 1825 2772 1636 2509 
Q 1447 2247 1447 1747 
Q 1447 1247 1636 984 
Q 1825 722 2181 722 
z
" transform="scale(0.015625)"/>
     <path id="DejaVuSans-Bold-69" d="M 538 3500 
L 1656 3500 
L 1656 0 
L 538 0 
L 538 3500 
z
M 538 4863 
L 1656 4863 
L 1656 3950 
L 538 3950 
L 538 4863 
z
" transform="scale(0.015625)"/>
     <path id="DejaVuSans-Bold-66" d="M 2841 4863 
L 2841 4128 
L 2222 4128 
Q 1984 4128 1890 4042 
Q 1797 3956 1797 3744 
L 1797 3500 
L 2753 3500 
L 2753 2700 
L 1797 2700 
L 1797 0 
L 678 0 
L 678 2700 
L 122 2700 
L 122 3500 
L 678 3500 
L 678 3744 
Q 678 4316 997 4589 
Q 1316 4863 1984 4863 
L 2841 4863 
z
" transform="scale(0.015625)"/>
     <path id="DejaVuSans-Bold-63" d="M 3366 3391 
L 3366 2478 
Q 3138 2634 2908 2709 
Q 2678 2784 2431 2784 
Q 1963 2784 1702 2511 
Q 1441 2238 1441 1747 
Q 1441 1256 1702 982 
Q 1963 709 2431 709 
Q 2694 709 2930 787 
Q 3166 866 3366 1019 
L 3366 103 
Q 3103 6 2833 -42 
Q 2563 -91 2291 -91 
Q 1344 -91 809 395 
Q 275 881 275 1747 
Q 275 2613 809 3098 
Q 1344 3584 2291 3584 
Q 2566 3584 2833 3536 
Q 3100 3488 3366 3391 
z
" transform="scale(0.015625)"/>
     <path id="DejaVuSans-Bold-61" d="M 2106 1575 
Q 1756 1575 1579 1456 
Q 1403 1338 1403 1106 
Q 1403 894 1545 773 
Q 1688 653 1941 653 
Q 2256 653 2472 879 
Q 2688 1106 2688 1447 
L 2688 1575 
L 2106 1575 
z
M 3816 1997 
L 3816 0 
L 2688 0 
L 2688 519 
Q 2463 200 2181 54 
Q 1900 -91 1497 -91 
Q 953 -91 614 226 
Q 275 544 275 1050 
Q 275 1666 698 1953 
Q 1122 2241 2028 2241 
L 2688 2241 
L 2688 2328 
Q 2688 2594 2478 2717 
Q 2269 2841 1825 2841 
Q 1466 2841 1156 2769 
Q 847 2697 581 2553 
L 581 3406 
Q 941 3494 1303 3539 
Q 1666 3584 2028 3584 
Q 2975 3584 3395 3211 
Q 3816 2838 3816 1997 
z
" transform="scale(0.015625)"/>
     <path id="DejaVuSans-Bold-29" d="M 513 -844 
Q 913 -100 1113 609 
Q 1313 1319 1313 2009 
Q 1313 2700 1113 3408 
Q 913 4116 513 4856 
L 1441 4856 
Q 1916 4091 2145 3389 
Q 2375 2688 2375 2003 
Q 2375 1319 2147 623 
Q 1919 -72 1441 -844 
L 513 -844 
z
" transform="scale(0.015625)"/>
    </defs>
    <use xlink:href="#DejaVuSans-Bold-50"/>
    <use xlink:href="#DejaVuSans-Bold-6f" transform="translate(73.291016 0)"/>
    <use xlink:href="#DejaVuSans-Bold-6e" transform="translate(141.992188 0)"/>
    <use xlink:href="#DejaVuSans-Bold-67" transform="translate(213.183594 0)"/>
    <use xlink:href="#DejaVuSans-Bold-2d" transform="translate(284.765625 0)"/>
    <use xlink:href="#DejaVuSans-Bold-76" transform="translate(326.269531 0)"/>
    <use xlink:href="#DejaVuSans-Bold-35" transform="translate(391.455078 0)"/>
    <use xlink:href="#DejaVuSans-Bold-20" transform="translate(461.035156 0)"/>
    <use xlink:href="#DejaVuSans-Bold-7c" transform="translate(495.849609 0)"/>
    <use xlink:href="#DejaVuSans-Bold-20" transform="translate(532.373047 0)"/>
    <use xlink:href="#DejaVuSans-Bold-43" transform="translate(567.1875 0)"/>
    <use xlink:href="#DejaVuSans-Bold-4d" transform="translate(640.576172 0)"/>
    <use xlink:href="#DejaVuSans-Bold-55" transform="translate(740.087891 0)"/>
    <use xlink:href="#DejaVuSans-Bold-2d" transform="translate(821.289062 0)"/>
    <use xlink:href="#DejaVuSans-Bold-4e" transform="translate(862.792969 0)"/>
    <use xlink:href="#DejaVuSans-Bold-65" transform="translate(946.484375 0)"/>
    <use xlink:href="#DejaVuSans-Bold-74" transform="translate(1014.306641 0)"/>
    <use xlink:href="#DejaVuSans-Bold-20" transform="translate(1062.109375 0)"/>
    <use xlink:href="#DejaVuSans-Bold-28" transform="translate(1096.923828 0)"/>
    <use xlink:href="#DejaVuSans-Bold-4e" transform="translate(1142.626953 0)"/>
    <use xlink:href="#DejaVuSans-Bold-6f" transform="translate(1226.318359 0)"/>
    <use xlink:href="#DejaVuSans-Bold-20" transform="translate(1295.019531 0)"/>
    <use xlink:href="#DejaVuSans-Bold-6d" transform="translate(1329.833984 0)"/>
    <use xlink:href="#DejaVuSans-Bold-6f" transform="translate(1434.033203 0)"/>
    <use xlink:href="#DejaVuSans-Bold-64" transform="translate(1502.734375 0)"/>
    <use xlink:href="#DejaVuSans-Bold-69" transform="translate(1574.316406 0)"/>
    <use xlink:href="#DejaVuSans-Bold-66" transform="translate(1608.59375 0)"/>
    <use xlink:href="#DejaVuSans-Bold-69" transform="translate(1652.099609 0)"/>
    <use xlink:href="#DejaVuSans-Bold-63" transform="translate(1686.376953 0)"/>
    <use xlink:href="#DejaVuSans-Bold-61" transform="translate(1745.654297 0)"/>
    <use xlink:href="#DejaVuSans-Bold-74" transform="translate(1813.134766 0)"/>
    <use xlink:href="#DejaVuSans-Bold-69" transform="translate(1860.9375 0)"/>
    <use xlink:href="#DejaVuSans-Bold-6f" transform="translate(1895.214844 0)"/>
    <use xlink:href="#DejaVuSans-Bold-6e" transform="translate(1963.916016 0)"/>
    <use xlink:href="#DejaVuSans-Bold-29" transform="translate(2035.107422 0)"/>
   </g>
  </g>
 </g>
 <defs>
  <clipPath id="pcdd3fabb51">
   <rect x="47.5" y="39.6" width="574.985" height="360.92"/>
  </clipPath>
 </defs>
</svg>
