<?xml version="1.0" encoding="utf-8" standalone="no"?>
<!DOCTYPE svg PUBLIC "-//W3C//DTD SVG 1.1//EN"
  "http://www.w3.org/Graphics/SVG/1.1/DTD/svg11.dtd">
<svg xmlns:xlink="http://www.w3.org/1999/xlink" width="648pt" height="432pt" viewBox="0 0 648 432" xmlns="http://www.w3.org/2000/svg" version="1.1">
 <metadata>
  <rdf:RDF xmlns:dc="http://purl.org/dc/elements/1.1/" xmlns:cc="http://creativecommons.org/ns#" xmlns:rdf="http://www.w3.org/1999/02/22-rdf-syntax-ns#">
   <cc:Work>
    <dc:type rdf:resource="http://purl.org/dc/dcmitype/StillImage"/>
    <dc:date>2025-07-31T00:20:19.174669</dc:date>
    <dc:format>image/svg+xml</dc:format>
    <dc:creator>
     <cc:Agent>
      <dc:title>Matplotlib v3.10.0, https://matplotlib.org/</dc:title>
     </cc:Agent>
    </dc:creator>
   </cc:Work>
  </rdf:RDF>
 </metadata>
 <defs>
  <style type="text/css">*{stroke-linejoin: round; stroke-linecap: butt}</style>
 </defs>
 <g id="figure_1">
  <g id="patch_1">
   <path d="M 0 432 
L 648 432 
L 648 0 
L 0 0 
z
" style="fill: #ffffff"/>
  </g>
  <g id="axes_1">
   <g id="patch_2">
    <path d="M 53.03 390.04 
L 632.205 390.04 
L 632.205 57.0062 
L 53.03 57.0062 
z
" style="fill: #eaeaf2"/>
   </g>
   <g id="matplotlib.axis_1">
    <g id="xtick_1">
     <g id="line2d_1">
      <path d="M 53.031697 390.04 
L 53.031697 57.0062 
" clip-path="url(#p21e96e3e53)" style="fill: none; stroke: #ffffff; stroke-width: 0.8; stroke-linecap: round"/>
     </g>
     <g id="text_1">
      <!-- 0.00 -->
      <g style="fill: #262626" transform="translate(41.898884 404.638438) scale(0.1 -0.1)">
       <defs>
        <path id="DejaVuSans-30" d="M 2034 4250 
Q 1547 4250 1301 3770 
Q 1056 3291 1056 2328 
Q 1056 1369 1301 889 
Q 1547 409 2034 409 
Q 2525 409 2770 889 
Q 3016 1369 3016 2328 
Q 3016 3291 2770 3770 
Q 2525 4250 2034 4250 
z
M 2034 4750 
Q 2819 4750 3233 4129 
Q 3647 3509 3647 2328 
Q 3647 1150 3233 529 
Q 2819 -91 2034 -91 
Q 1250 -91 836 529 
Q 422 1150 422 2328 
Q 422 3509 836 4129 
Q 1250 4750 2034 4750 
z
" transform="scale(0.015625)"/>
        <path id="DejaVuSans-2e" d="M 684 794 
L 1344 794 
L 1344 0 
L 684 0 
L 684 794 
z
" transform="scale(0.015625)"/>
       </defs>
       <use xlink:href="#DejaVuSans-30"/>
       <use xlink:href="#DejaVuSans-2e" transform="translate(63.623047 0)"/>
       <use xlink:href="#DejaVuSans-30" transform="translate(95.410156 0)"/>
       <use xlink:href="#DejaVuSans-30" transform="translate(159.033203 0)"/>
      </g>
     </g>
    </g>
    <g id="xtick_2">
     <g id="line2d_2">
      <path d="M 194.431015 390.04 
L 194.431015 57.0062 
" clip-path="url(#p21e96e3e53)" style="fill: none; stroke: #ffffff; stroke-width: 0.8; stroke-linecap: round"/>
     </g>
     <g id="text_2">
      <!-- 0.25 -->
      <g style="fill: #262626" transform="translate(183.298202 404.638438) scale(0.1 -0.1)">
       <defs>
        <path id="DejaVuSans-32" d="M 1228 531 
L 3431 531 
L 3431 0 
L 469 0 
L 469 531 
Q 828 903 1448 1529 
Q 2069 2156 2228 2338 
Q 2531 2678 2651 2914 
Q 2772 3150 2772 3378 
Q 2772 3750 2511 3984 
Q 2250 4219 1831 4219 
Q 1534 4219 1204 4116 
Q 875 4013 500 3803 
L 500 4441 
Q 881 4594 1212 4672 
Q 1544 4750 1819 4750 
Q 2544 4750 2975 4387 
Q 3406 4025 3406 3419 
Q 3406 3131 3298 2873 
Q 3191 2616 2906 2266 
Q 2828 2175 2409 1742 
Q 1991 1309 1228 531 
z
" transform="scale(0.015625)"/>
        <path id="DejaVuSans-35" d="M 691 4666 
L 3169 4666 
L 3169 4134 
L 1269 4134 
L 1269 2991 
Q 1406 3038 1543 3061 
Q 1681 3084 1819 3084 
Q 2600 3084 3056 2656 
Q 3513 2228 3513 1497 
Q 3513 744 3044 326 
Q 2575 -91 1722 -91 
Q 1428 -91 1123 -41 
Q 819 9 494 109 
L 494 744 
Q 775 591 1075 516 
Q 1375 441 1709 441 
Q 2250 441 2565 725 
Q 2881 1009 2881 1497 
Q 2881 1984 2565 2268 
Q 2250 2553 1709 2553 
Q 1456 2553 1204 2497 
Q 953 2441 691 2322 
L 691 4666 
z
" transform="scale(0.015625)"/>
       </defs>
       <use xlink:href="#DejaVuSans-30"/>
       <use xlink:href="#DejaVuSans-2e" transform="translate(63.623047 0)"/>
       <use xlink:href="#DejaVuSans-32" transform="translate(95.410156 0)"/>
       <use xlink:href="#DejaVuSans-35" transform="translate(159.033203 0)"/>
      </g>
     </g>
    </g>
    <g id="xtick_3">
     <g id="line2d_3">
      <path d="M 335.830333 390.04 
L 335.830333 57.0062 
" clip-path="url(#p21e96e3e53)" style="fill: none; stroke: #ffffff; stroke-width: 0.8; stroke-linecap: round"/>
     </g>
     <g id="text_3">
      <!-- 0.50 -->
      <g style="fill: #262626" transform="translate(324.69752 404.638438) scale(0.1 -0.1)">
       <use xlink:href="#DejaVuSans-30"/>
       <use xlink:href="#DejaVuSans-2e" transform="translate(63.623047 0)"/>
       <use xlink:href="#DejaVuSans-35" transform="translate(95.410156 0)"/>
       <use xlink:href="#DejaVuSans-30" transform="translate(159.033203 0)"/>
      </g>
     </g>
    </g>
    <g id="xtick_4">
     <g id="line2d_4">
      <path d="M 477.229651 390.04 
L 477.229651 57.0062 
" clip-path="url(#p21e96e3e53)" style="fill: none; stroke: #ffffff; stroke-width: 0.8; stroke-linecap: round"/>
     </g>
     <g id="text_4">
      <!-- 0.75 -->
      <g style="fill: #262626" transform="translate(466.096838 404.638438) scale(0.1 -0.1)">
       <defs>
        <path id="DejaVuSans-37" d="M 525 4666 
L 3525 4666 
L 3525 4397 
L 1831 0 
L 1172 0 
L 2766 4134 
L 525 4134 
L 525 4666 
z
" transform="scale(0.015625)"/>
       </defs>
       <use xlink:href="#DejaVuSans-30"/>
       <use xlink:href="#DejaVuSans-2e" transform="translate(63.623047 0)"/>
       <use xlink:href="#DejaVuSans-37" transform="translate(95.410156 0)"/>
       <use xlink:href="#DejaVuSans-35" transform="translate(159.033203 0)"/>
      </g>
     </g>
    </g>
    <g id="xtick_5">
     <g id="line2d_5">
      <path d="M 618.628969 390.04 
L 618.628969 57.0062 
" clip-path="url(#p21e96e3e53)" style="fill: none; stroke: #ffffff; stroke-width: 0.8; stroke-linecap: round"/>
     </g>
     <g id="text_5">
      <!-- 1.00 -->
      <g style="fill: #262626" transform="translate(607.496156 404.638438) scale(0.1 -0.1)">
       <defs>
        <path id="DejaVuSans-31" d="M 794 531 
L 1825 531 
L 1825 4091 
L 703 3866 
L 703 4441 
L 1819 4666 
L 2450 4666 
L 2450 531 
L 3481 531 
L 3481 0 
L 794 0 
L 794 531 
z
" transform="scale(0.015625)"/>
       </defs>
       <use xlink:href="#DejaVuSans-31"/>
       <use xlink:href="#DejaVuSans-2e" transform="translate(63.623047 0)"/>
       <use xlink:href="#DejaVuSans-30" transform="translate(95.410156 0)"/>
       <use xlink:href="#DejaVuSans-30" transform="translate(159.033203 0)"/>
      </g>
     </g>
    </g>
    <g id="text_6">
     <!-- Steps -->
     <g style="fill: #262626" transform="translate(328.627656 418.316562) scale(0.1 -0.1)">
      <defs>
       <path id="DejaVuSans-53" d="M 3425 4513 
L 3425 3897 
Q 3066 4069 2747 4153 
Q 2428 4238 2131 4238 
Q 1616 4238 1336 4038 
Q 1056 3838 1056 3469 
Q 1056 3159 1242 3001 
Q 1428 2844 1947 2747 
L 2328 2669 
Q 3034 2534 3370 2195 
Q 3706 1856 3706 1288 
Q 3706 609 3251 259 
Q 2797 -91 1919 -91 
Q 1588 -91 1214 -16 
Q 841 59 441 206 
L 441 856 
Q 825 641 1194 531 
Q 1563 422 1919 422 
Q 2459 422 2753 634 
Q 3047 847 3047 1241 
Q 3047 1584 2836 1778 
Q 2625 1972 2144 2069 
L 1759 2144 
Q 1053 2284 737 2584 
Q 422 2884 422 3419 
Q 422 4038 858 4394 
Q 1294 4750 2059 4750 
Q 2388 4750 2728 4690 
Q 3069 4631 3425 4513 
z
" transform="scale(0.015625)"/>
       <path id="DejaVuSans-74" d="M 1172 4494 
L 1172 3500 
L 2356 3500 
L 2356 3053 
L 1172 3053 
L 1172 1153 
Q 1172 725 1289 603 
Q 1406 481 1766 481 
L 2356 481 
L 2356 0 
L 1766 0 
Q 1100 0 847 248 
Q 594 497 594 1153 
L 594 3053 
L 172 3053 
L 172 3500 
L 594 3500 
L 594 4494 
L 1172 4494 
z
" transform="scale(0.015625)"/>
       <path id="DejaVuSans-65" d="M 3597 1894 
L 3597 1613 
L 953 1613 
Q 991 1019 1311 708 
Q 1631 397 2203 397 
Q 2534 397 2845 478 
Q 3156 559 3463 722 
L 3463 178 
Q 3153 47 2828 -22 
Q 2503 -91 2169 -91 
Q 1331 -91 842 396 
Q 353 884 353 1716 
Q 353 2575 817 3079 
Q 1281 3584 2069 3584 
Q 2775 3584 3186 3129 
Q 3597 2675 3597 1894 
z
M 3022 2063 
Q 3016 2534 2758 2815 
Q 2500 3097 2075 3097 
Q 1594 3097 1305 2825 
Q 1016 2553 972 2059 
L 3022 2063 
z
" transform="scale(0.015625)"/>
       <path id="DejaVuSans-70" d="M 1159 525 
L 1159 -1331 
L 581 -1331 
L 581 3500 
L 1159 3500 
L 1159 2969 
Q 1341 3281 1617 3432 
Q 1894 3584 2278 3584 
Q 2916 3584 3314 3078 
Q 3713 2572 3713 1747 
Q 3713 922 3314 415 
Q 2916 -91 2278 -91 
Q 1894 -91 1617 61 
Q 1341 213 1159 525 
z
M 3116 1747 
Q 3116 2381 2855 2742 
Q 2594 3103 2138 3103 
Q 1681 3103 1420 2742 
Q 1159 2381 1159 1747 
Q 1159 1113 1420 752 
Q 1681 391 2138 391 
Q 2594 391 2855 752 
Q 3116 1113 3116 1747 
z
" transform="scale(0.015625)"/>
       <path id="DejaVuSans-73" d="M 2834 3397 
L 2834 2853 
Q 2591 2978 2328 3040 
Q 2066 3103 1784 3103 
Q 1356 3103 1142 2972 
Q 928 2841 928 2578 
Q 928 2378 1081 2264 
Q 1234 2150 1697 2047 
L 1894 2003 
Q 2506 1872 2764 1633 
Q 3022 1394 3022 966 
Q 3022 478 2636 193 
Q 2250 -91 1575 -91 
Q 1294 -91 989 -36 
Q 684 19 347 128 
L 347 722 
Q 666 556 975 473 
Q 1284 391 1588 391 
Q 1994 391 2212 530 
Q 2431 669 2431 922 
Q 2431 1156 2273 1281 
Q 2116 1406 1581 1522 
L 1381 1569 
Q 847 1681 609 1914 
Q 372 2147 372 2553 
Q 372 3047 722 3315 
Q 1072 3584 1716 3584 
Q 2034 3584 2315 3537 
Q 2597 3491 2834 3397 
z
" transform="scale(0.015625)"/>
      </defs>
      <use xlink:href="#DejaVuSans-53"/>
      <use xlink:href="#DejaVuSans-74" transform="translate(63.476562 0)"/>
      <use xlink:href="#DejaVuSans-65" transform="translate(102.685547 0)"/>
      <use xlink:href="#DejaVuSans-70" transform="translate(164.208984 0)"/>
      <use xlink:href="#DejaVuSans-73" transform="translate(227.685547 0)"/>
     </g>
    </g>
    <g id="text_7">
     <!-- 1e6 -->
     <g style="fill: #262626" transform="translate(613.326875 417.316562) scale(0.1 -0.1)">
      <defs>
       <path id="DejaVuSans-36" d="M 2113 2584 
Q 1688 2584 1439 2293 
Q 1191 2003 1191 1497 
Q 1191 994 1439 701 
Q 1688 409 2113 409 
Q 2538 409 2786 701 
Q 3034 994 3034 1497 
Q 3034 2003 2786 2293 
Q 2538 2584 2113 2584 
z
M 3366 4563 
L 3366 3988 
Q 3128 4100 2886 4159 
Q 2644 4219 2406 4219 
Q 1781 4219 1451 3797 
Q 1122 3375 1075 2522 
Q 1259 2794 1537 2939 
Q 1816 3084 2150 3084 
Q 2853 3084 3261 2657 
Q 3669 2231 3669 1497 
Q 3669 778 3244 343 
Q 2819 -91 2113 -91 
Q 1303 -91 875 529 
Q 447 1150 447 2328 
Q 447 3434 972 4092 
Q 1497 4750 2381 4750 
Q 2619 4750 2861 4703 
Q 3103 4656 3366 4563 
z
" transform="scale(0.015625)"/>
      </defs>
      <use xlink:href="#DejaVuSans-31"/>
      <use xlink:href="#DejaVuSans-65" transform="translate(63.623047 0)"/>
      <use xlink:href="#DejaVuSans-36" transform="translate(125.146484 0)"/>
     </g>
    </g>
   </g>
   <g id="matplotlib.axis_2">
    <g id="ytick_1">
     <g id="line2d_6">
      <path d="M 53.03 390.04 
L 632.205 390.04 
" clip-path="url(#p21e96e3e53)" style="fill: none; stroke: #ffffff; stroke-width: 0.8; stroke-linecap: round"/>
     </g>
     <g id="text_8">
      <!-- −21 -->
      <g style="fill: #262626" transform="translate(24.925313 393.839219) scale(0.1 -0.1)">
       <defs>
        <path id="DejaVuSans-2212" d="M 678 2272 
L 4684 2272 
L 4684 1741 
L 678 1741 
L 678 2272 
z
" transform="scale(0.015625)"/>
       </defs>
       <use xlink:href="#DejaVuSans-2212"/>
       <use xlink:href="#DejaVuSans-32" transform="translate(83.789062 0)"/>
       <use xlink:href="#DejaVuSans-31" transform="translate(147.412109 0)"/>
      </g>
     </g>
    </g>
    <g id="ytick_2">
     <g id="line2d_7">
      <path d="M 53.03 366.531732 
L 632.205 366.531732 
" clip-path="url(#p21e96e3e53)" style="fill: none; stroke: #ffffff; stroke-width: 0.8; stroke-linecap: round"/>
     </g>
     <g id="text_9">
      <!-- −18 -->
      <g style="fill: #262626" transform="translate(24.925313 370.330951) scale(0.1 -0.1)">
       <defs>
        <path id="DejaVuSans-38" d="M 2034 2216 
Q 1584 2216 1326 1975 
Q 1069 1734 1069 1313 
Q 1069 891 1326 650 
Q 1584 409 2034 409 
Q 2484 409 2743 651 
Q 3003 894 3003 1313 
Q 3003 1734 2745 1975 
Q 2488 2216 2034 2216 
z
M 1403 2484 
Q 997 2584 770 2862 
Q 544 3141 544 3541 
Q 544 4100 942 4425 
Q 1341 4750 2034 4750 
Q 2731 4750 3128 4425 
Q 3525 4100 3525 3541 
Q 3525 3141 3298 2862 
Q 3072 2584 2669 2484 
Q 3125 2378 3379 2068 
Q 3634 1759 3634 1313 
Q 3634 634 3220 271 
Q 2806 -91 2034 -91 
Q 1263 -91 848 271 
Q 434 634 434 1313 
Q 434 1759 690 2068 
Q 947 2378 1403 2484 
z
M 1172 3481 
Q 1172 3119 1398 2916 
Q 1625 2713 2034 2713 
Q 2441 2713 2670 2916 
Q 2900 3119 2900 3481 
Q 2900 3844 2670 4047 
Q 2441 4250 2034 4250 
Q 1625 4250 1398 4047 
Q 1172 3844 1172 3481 
z
" transform="scale(0.015625)"/>
       </defs>
       <use xlink:href="#DejaVuSans-2212"/>
       <use xlink:href="#DejaVuSans-31" transform="translate(83.789062 0)"/>
       <use xlink:href="#DejaVuSans-38" transform="translate(147.412109 0)"/>
      </g>
     </g>
    </g>
    <g id="ytick_3">
     <g id="line2d_8">
      <path d="M 53.03 343.023464 
L 632.205 343.023464 
" clip-path="url(#p21e96e3e53)" style="fill: none; stroke: #ffffff; stroke-width: 0.8; stroke-linecap: round"/>
     </g>
     <g id="text_10">
      <!-- −15 -->
      <g style="fill: #262626" transform="translate(24.925313 346.822682) scale(0.1 -0.1)">
       <use xlink:href="#DejaVuSans-2212"/>
       <use xlink:href="#DejaVuSans-31" transform="translate(83.789062 0)"/>
       <use xlink:href="#DejaVuSans-35" transform="translate(147.412109 0)"/>
      </g>
     </g>
    </g>
    <g id="ytick_4">
     <g id="line2d_9">
      <path d="M 53.03 319.515195 
L 632.205 319.515195 
" clip-path="url(#p21e96e3e53)" style="fill: none; stroke: #ffffff; stroke-width: 0.8; stroke-linecap: round"/>
     </g>
     <g id="text_11">
      <!-- −12 -->
      <g style="fill: #262626" transform="translate(24.925313 323.314414) scale(0.1 -0.1)">
       <use xlink:href="#DejaVuSans-2212"/>
       <use xlink:href="#DejaVuSans-31" transform="translate(83.789062 0)"/>
       <use xlink:href="#DejaVuSans-32" transform="translate(147.412109 0)"/>
      </g>
     </g>
    </g>
    <g id="ytick_5">
     <g id="line2d_10">
      <path d="M 53.03 296.006927 
L 632.205 296.006927 
" clip-path="url(#p21e96e3e53)" style="fill: none; stroke: #ffffff; stroke-width: 0.8; stroke-linecap: round"/>
     </g>
     <g id="text_12">
      <!-- −9 -->
      <g style="fill: #262626" transform="translate(31.287813 299.806146) scale(0.1 -0.1)">
       <defs>
        <path id="DejaVuSans-39" d="M 703 97 
L 703 672 
Q 941 559 1184 500 
Q 1428 441 1663 441 
Q 2288 441 2617 861 
Q 2947 1281 2994 2138 
Q 2813 1869 2534 1725 
Q 2256 1581 1919 1581 
Q 1219 1581 811 2004 
Q 403 2428 403 3163 
Q 403 3881 828 4315 
Q 1253 4750 1959 4750 
Q 2769 4750 3195 4129 
Q 3622 3509 3622 2328 
Q 3622 1225 3098 567 
Q 2575 -91 1691 -91 
Q 1453 -91 1209 -44 
Q 966 3 703 97 
z
M 1959 2075 
Q 2384 2075 2632 2365 
Q 2881 2656 2881 3163 
Q 2881 3666 2632 3958 
Q 2384 4250 1959 4250 
Q 1534 4250 1286 3958 
Q 1038 3666 1038 3163 
Q 1038 2656 1286 2365 
Q 1534 2075 1959 2075 
z
" transform="scale(0.015625)"/>
       </defs>
       <use xlink:href="#DejaVuSans-2212"/>
       <use xlink:href="#DejaVuSans-39" transform="translate(83.789062 0)"/>
      </g>
     </g>
    </g>
    <g id="ytick_6">
     <g id="line2d_11">
      <path d="M 53.03 272.498659 
L 632.205 272.498659 
" clip-path="url(#p21e96e3e53)" style="fill: none; stroke: #ffffff; stroke-width: 0.8; stroke-linecap: round"/>
     </g>
     <g id="text_13">
      <!-- −6 -->
      <g style="fill: #262626" transform="translate(31.287813 276.297878) scale(0.1 -0.1)">
       <use xlink:href="#DejaVuSans-2212"/>
       <use xlink:href="#DejaVuSans-36" transform="translate(83.789062 0)"/>
      </g>
     </g>
    </g>
    <g id="ytick_7">
     <g id="line2d_12">
      <path d="M 53.03 248.990391 
L 632.205 248.990391 
" clip-path="url(#p21e96e3e53)" style="fill: none; stroke: #ffffff; stroke-width: 0.8; stroke-linecap: round"/>
     </g>
     <g id="text_14">
      <!-- −3 -->
      <g style="fill: #262626" transform="translate(31.287813 252.789609) scale(0.1 -0.1)">
       <defs>
        <path id="DejaVuSans-33" d="M 2597 2516 
Q 3050 2419 3304 2112 
Q 3559 1806 3559 1356 
Q 3559 666 3084 287 
Q 2609 -91 1734 -91 
Q 1441 -91 1130 -33 
Q 819 25 488 141 
L 488 750 
Q 750 597 1062 519 
Q 1375 441 1716 441 
Q 2309 441 2620 675 
Q 2931 909 2931 1356 
Q 2931 1769 2642 2001 
Q 2353 2234 1838 2234 
L 1294 2234 
L 1294 2753 
L 1863 2753 
Q 2328 2753 2575 2939 
Q 2822 3125 2822 3475 
Q 2822 3834 2567 4026 
Q 2313 4219 1838 4219 
Q 1578 4219 1281 4162 
Q 984 4106 628 3988 
L 628 4550 
Q 988 4650 1302 4700 
Q 1616 4750 1894 4750 
Q 2613 4750 3031 4423 
Q 3450 4097 3450 3541 
Q 3450 3153 3228 2886 
Q 3006 2619 2597 2516 
z
" transform="scale(0.015625)"/>
       </defs>
       <use xlink:href="#DejaVuSans-2212"/>
       <use xlink:href="#DejaVuSans-33" transform="translate(83.789062 0)"/>
      </g>
     </g>
    </g>
    <g id="ytick_8">
     <g id="line2d_13">
      <path d="M 53.03 225.482122 
L 632.205 225.482122 
" clip-path="url(#p21e96e3e53)" style="fill: none; stroke: #ffffff; stroke-width: 0.8; stroke-linecap: round"/>
     </g>
     <g id="text_15">
      <!-- 0 -->
      <g style="fill: #262626" transform="translate(39.6675 229.281341) scale(0.1 -0.1)">
       <use xlink:href="#DejaVuSans-30"/>
      </g>
     </g>
    </g>
    <g id="ytick_9">
     <g id="line2d_14">
      <path d="M 53.03 201.973854 
L 632.205 201.973854 
" clip-path="url(#p21e96e3e53)" style="fill: none; stroke: #ffffff; stroke-width: 0.8; stroke-linecap: round"/>
     </g>
     <g id="text_16">
      <!-- 3 -->
      <g style="fill: #262626" transform="translate(39.6675 205.773073) scale(0.1 -0.1)">
       <use xlink:href="#DejaVuSans-33"/>
      </g>
     </g>
    </g>
    <g id="ytick_10">
     <g id="line2d_15">
      <path d="M 53.03 178.465586 
L 632.205 178.465586 
" clip-path="url(#p21e96e3e53)" style="fill: none; stroke: #ffffff; stroke-width: 0.8; stroke-linecap: round"/>
     </g>
     <g id="text_17">
      <!-- 6 -->
      <g style="fill: #262626" transform="translate(39.6675 182.264805) scale(0.1 -0.1)">
       <use xlink:href="#DejaVuSans-36"/>
      </g>
     </g>
    </g>
    <g id="ytick_11">
     <g id="line2d_16">
      <path d="M 53.03 154.957318 
L 632.205 154.957318 
" clip-path="url(#p21e96e3e53)" style="fill: none; stroke: #ffffff; stroke-width: 0.8; stroke-linecap: round"/>
     </g>
     <g id="text_18">
      <!-- 9 -->
      <g style="fill: #262626" transform="translate(39.6675 158.756536) scale(0.1 -0.1)">
       <use xlink:href="#DejaVuSans-39"/>
      </g>
     </g>
    </g>
    <g id="ytick_12">
     <g id="line2d_17">
      <path d="M 53.03 131.449049 
L 632.205 131.449049 
" clip-path="url(#p21e96e3e53)" style="fill: none; stroke: #ffffff; stroke-width: 0.8; stroke-linecap: round"/>
     </g>
     <g id="text_19">
      <!-- 12 -->
      <g style="fill: #262626" transform="translate(33.305 135.248268) scale(0.1 -0.1)">
       <use xlink:href="#DejaVuSans-31"/>
       <use xlink:href="#DejaVuSans-32" transform="translate(63.623047 0)"/>
      </g>
     </g>
    </g>
    <g id="ytick_13">
     <g id="line2d_18">
      <path d="M 53.03 107.940781 
L 632.205 107.940781 
" clip-path="url(#p21e96e3e53)" style="fill: none; stroke: #ffffff; stroke-width: 0.8; stroke-linecap: round"/>
     </g>
     <g id="text_20">
      <!-- 15 -->
      <g style="fill: #262626" transform="translate(33.305 111.74) scale(0.1 -0.1)">
       <use xlink:href="#DejaVuSans-31"/>
       <use xlink:href="#DejaVuSans-35" transform="translate(63.623047 0)"/>
      </g>
     </g>
    </g>
    <g id="ytick_14">
     <g id="line2d_19">
      <path d="M 53.03 84.432513 
L 632.205 84.432513 
" clip-path="url(#p21e96e3e53)" style="fill: none; stroke: #ffffff; stroke-width: 0.8; stroke-linecap: round"/>
     </g>
     <g id="text_21">
      <!-- 18 -->
      <g style="fill: #262626" transform="translate(33.305 88.231732) scale(0.1 -0.1)">
       <use xlink:href="#DejaVuSans-31"/>
       <use xlink:href="#DejaVuSans-38" transform="translate(63.623047 0)"/>
      </g>
     </g>
    </g>
    <g id="ytick_15">
     <g id="line2d_20">
      <path d="M 53.03 60.924245 
L 632.205 60.924245 
" clip-path="url(#p21e96e3e53)" style="fill: none; stroke: #ffffff; stroke-width: 0.8; stroke-linecap: round"/>
     </g>
     <g id="text_22">
      <!-- 21 -->
      <g style="fill: #262626" transform="translate(33.305 64.723463) scale(0.1 -0.1)">
       <use xlink:href="#DejaVuSans-32"/>
       <use xlink:href="#DejaVuSans-31" transform="translate(63.623047 0)"/>
      </g>
     </g>
    </g>
    <g id="text_23">
     <!-- Reward -->
     <g style="fill: #262626" transform="translate(18.845625 242.144194) rotate(-90) scale(0.1 -0.1)">
      <defs>
       <path id="DejaVuSans-52" d="M 2841 2188 
Q 3044 2119 3236 1894 
Q 3428 1669 3622 1275 
L 4263 0 
L 3584 0 
L 2988 1197 
Q 2756 1666 2539 1819 
Q 2322 1972 1947 1972 
L 1259 1972 
L 1259 0 
L 628 0 
L 628 4666 
L 2053 4666 
Q 2853 4666 3247 4331 
Q 3641 3997 3641 3322 
Q 3641 2881 3436 2590 
Q 3231 2300 2841 2188 
z
M 1259 4147 
L 1259 2491 
L 2053 2491 
Q 2509 2491 2742 2702 
Q 2975 2913 2975 3322 
Q 2975 3731 2742 3939 
Q 2509 4147 2053 4147 
L 1259 4147 
z
" transform="scale(0.015625)"/>
       <path id="DejaVuSans-77" d="M 269 3500 
L 844 3500 
L 1563 769 
L 2278 3500 
L 2956 3500 
L 3675 769 
L 4391 3500 
L 4966 3500 
L 4050 0 
L 3372 0 
L 2619 2869 
L 1863 0 
L 1184 0 
L 269 3500 
z
" transform="scale(0.015625)"/>
       <path id="DejaVuSans-61" d="M 2194 1759 
Q 1497 1759 1228 1600 
Q 959 1441 959 1056 
Q 959 750 1161 570 
Q 1363 391 1709 391 
Q 2188 391 2477 730 
Q 2766 1069 2766 1631 
L 2766 1759 
L 2194 1759 
z
M 3341 1997 
L 3341 0 
L 2766 0 
L 2766 531 
Q 2569 213 2275 61 
Q 1981 -91 1556 -91 
Q 1019 -91 701 211 
Q 384 513 384 1019 
Q 384 1609 779 1909 
Q 1175 2209 1959 2209 
L 2766 2209 
L 2766 2266 
Q 2766 2663 2505 2880 
Q 2244 3097 1772 3097 
Q 1472 3097 1187 3025 
Q 903 2953 641 2809 
L 641 3341 
Q 956 3463 1253 3523 
Q 1550 3584 1831 3584 
Q 2591 3584 2966 3190 
Q 3341 2797 3341 1997 
z
" transform="scale(0.015625)"/>
       <path id="DejaVuSans-72" d="M 2631 2963 
Q 2534 3019 2420 3045 
Q 2306 3072 2169 3072 
Q 1681 3072 1420 2755 
Q 1159 2438 1159 1844 
L 1159 0 
L 581 0 
L 581 3500 
L 1159 3500 
L 1159 2956 
Q 1341 3275 1631 3429 
Q 1922 3584 2338 3584 
Q 2397 3584 2469 3576 
Q 2541 3569 2628 3553 
L 2631 2963 
z
" transform="scale(0.015625)"/>
       <path id="DejaVuSans-64" d="M 2906 2969 
L 2906 4863 
L 3481 4863 
L 3481 0 
L 2906 0 
L 2906 525 
Q 2725 213 2448 61 
Q 2172 -91 1784 -91 
Q 1150 -91 751 415 
Q 353 922 353 1747 
Q 353 2572 751 3078 
Q 1150 3584 1784 3584 
Q 2172 3584 2448 3432 
Q 2725 3281 2906 2969 
z
M 947 1747 
Q 947 1113 1208 752 
Q 1469 391 1925 391 
Q 2381 391 2643 752 
Q 2906 1113 2906 1747 
Q 2906 2381 2643 2742 
Q 2381 3103 1925 3103 
Q 1469 3103 1208 2742 
Q 947 2381 947 1747 
z
" transform="scale(0.015625)"/>
      </defs>
      <use xlink:href="#DejaVuSans-52"/>
      <use xlink:href="#DejaVuSans-65" transform="translate(64.982422 0)"/>
      <use xlink:href="#DejaVuSans-77" transform="translate(126.505859 0)"/>
      <use xlink:href="#DejaVuSans-61" transform="translate(208.292969 0)"/>
      <use xlink:href="#DejaVuSans-72" transform="translate(269.572266 0)"/>
      <use xlink:href="#DejaVuSans-64" transform="translate(308.935547 0)"/>
     </g>
    </g>
   </g>
   <g id="FillBetweenPolyCollection_1">
    <path d="M 53.031697 382.738015 
L 53.031697 386.37146 
L 58.823413 385.587851 
L 64.615129 387.885075 
L 70.406845 383.742194 
L 76.198561 381.159634 
L 81.990277 378.800233 
L 87.781993 383.361425 
L 93.573709 400.547059 
L 99.365425 382.907902 
L 105.157141 357.376165 
L 110.948857 347.811999 
L 116.740573 322.311041 
L 122.53229 284.672101 
L 128.324006 258.42832 
L 134.115722 266.011342 
L 139.907438 236.191384 
L 145.699154 212.284289 
L 151.49087 195.59324 
L 157.282586 202.98576 
L 163.074302 199.419448 
L 168.866018 166.071606 
L 174.657734 170.941675 
L 180.44945 206.065719 
L 186.241166 166.698796 
L 192.032882 150.586022 
L 197.824598 131.505696 
L 203.616314 118.192157 
L 209.408031 120.81651 
L 215.199747 114.989975 
L 220.991463 107.104503 
L 226.783179 123.25765 
L 232.574895 125.155817 
L 238.366611 133.046431 
L 244.158327 114.514138 
L 249.950043 131.601949 
L 255.741759 205.527652 
L 261.533475 135.9507 
L 267.325191 113.711494 
L 273.116907 127.038807 
L 278.908623 134.552091 
L 284.700339 115.487688 
L 290.492055 119.145733 
L 296.283771 118.510487 
L 302.075488 114.699253 
L 307.867204 127.097869 
L 313.65892 117.975873 
L 319.450636 100.892712 
L 325.242352 124.153427 
L 331.034068 115.39753 
L 336.825784 120.1664 
L 342.6175 116.822746 
L 348.409216 121.57144 
L 354.200932 118.234479 
L 359.992648 117.82515 
L 365.784364 115.255272 
L 371.57608 126.147129 
L 377.367796 119.719075 
L 383.159512 115.371924 
L 388.951229 119.525474 
L 394.742945 122.003574 
L 400.534661 117.536317 
L 406.326377 127.715646 
L 412.118093 115.654944 
L 417.909809 137.906655 
L 423.701525 129.868847 
L 429.493241 174.28757 
L 435.284957 137.76607 
L 441.076673 110.672527 
L 446.868389 115.160556 
L 452.660105 123.522269 
L 458.451821 108.314963 
L 464.243537 117.870596 
L 470.035253 102.494491 
L 475.826969 116.707362 
L 481.618686 116.670189 
L 487.410402 122.195982 
L 493.202118 128.593729 
L 498.993834 117.539991 
L 504.78555 125.103149 
L 510.577266 127.311118 
L 516.368982 116.117555 
L 522.160698 124.301125 
L 527.952414 139.274253 
L 533.74413 124.002346 
L 539.535846 106.54443 
L 545.327562 118.399969 
L 551.119278 118.59461 
L 556.910994 115.095745 
L 562.70271 117.376722 
L 568.494427 121.932911 
L 574.286143 121.3256 
L 580.077859 136.307887 
L 585.869575 123.579907 
L 591.661291 147.91654 
L 597.453007 197.60035 
L 603.244723 70.137407 
L 609.036439 115.857439 
L 614.828155 122.931973 
L 620.619871 138.221318 
L 626.411587 109.064597 
L 626.411587 49.613513 
L 626.411587 49.613513 
L 620.619871 71.391373 
L 614.828155 59.254405 
L 609.036439 49.089542 
L 603.244723 63.465217 
L 597.453007 68.04038 
L 591.661291 85.596224 
L 585.869575 57.431058 
L 580.077859 89.760592 
L 574.286143 63.211605 
L 568.494427 64.563316 
L 562.70271 55.014544 
L 556.910994 49.459432 
L 551.119278 57.714701 
L 545.327562 57.517538 
L 539.535846 52.917289 
L 533.74413 60.534859 
L 527.952414 75.8237 
L 522.160698 66.896756 
L 516.368982 52.355666 
L 510.577266 71.331047 
L 504.78555 77.848866 
L 498.993834 52.500449 
L 493.202118 60.253325 
L 487.410402 59.206787 
L 481.618686 52.194837 
L 475.826969 61.952775 
L 470.035253 58.142641 
L 464.243537 65.883 
L 458.451821 53.889387 
L 452.660105 61.40674 
L 446.868389 52.137252 
L 441.076673 54.274454 
L 435.284957 65.185945 
L 429.493241 63.535042 
L 423.701525 64.855273 
L 417.909809 73.665058 
L 412.118093 51.25106 
L 406.326377 59.56419 
L 400.534661 54.854949 
L 394.742945 54.697541 
L 388.951229 61.48549 
L 383.159512 51.142275 
L 377.367796 59.332867 
L 371.57608 65.050752 
L 365.784364 57.135994 
L 359.992648 72.589122 
L 354.200932 58.466636 
L 348.409216 62.57396 
L 342.6175 60.661979 
L 336.825784 60.844564 
L 331.034068 50.724864 
L 325.242352 59.208364 
L 319.450636 57.393593 
L 313.65892 66.561332 
L 307.867204 62.140989 
L 302.075488 52.99036 
L 296.283771 54.664388 
L 290.492055 58.338992 
L 284.700339 51.81012 
L 278.908623 53.903159 
L 273.116907 60.241029 
L 267.325191 66.907666 
L 261.533475 51.72094 
L 255.741759 24.458871 
L 249.950043 54.894278 
L 244.158327 50.432843 
L 238.366611 50.31536 
L 232.574895 54.28793 
L 226.783179 56.969706 
L 220.991463 64.894958 
L 215.199747 56.617683 
L 209.408031 68.814152 
L 203.616314 67.520461 
L 197.824598 79.282408 
L 192.032882 91.938245 
L 186.241166 84.836973 
L 180.44945 82.691475 
L 174.657734 75.108832 
L 168.866018 92.516643 
L 163.074302 74.449176 
L 157.282586 98.700981 
L 151.49087 94.731171 
L 145.699154 119.571396 
L 139.907438 165.797302 
L 134.115722 177.508618 
L 128.324006 194.103142 
L 122.53229 214.875898 
L 116.740573 178.020567 
L 110.948857 215.208324 
L 105.157141 210.737617 
L 99.365425 261.999556 
L 93.573709 249.062053 
L 87.781993 301.901893 
L 81.990277 344.859923 
L 76.198561 365.225182 
L 70.406845 377.139387 
L 64.615129 381.616204 
L 58.823413 381.954406 
L 53.031697 382.738015 
z
" clip-path="url(#p21e96e3e53)" style="fill: #0000ff; fill-opacity: 0.1"/>
   </g>
   <g id="line2d_21">
    <path d="M 53.031697 384.554737 
L 58.823413 383.771128 
L 64.615129 384.75064 
L 70.406845 380.44079 
L 76.198561 373.192408 
L 81.990277 361.830078 
L 87.781993 342.631659 
L 93.573709 324.804556 
L 99.365425 322.453729 
L 105.157141 284.056891 
L 110.948857 281.510162 
L 116.740573 250.165804 
L 122.53229 249.774 
L 128.324006 226.265731 
L 134.115722 221.75998 
L 139.907438 200.994343 
L 145.699154 165.927843 
L 151.49087 145.162206 
L 157.282586 150.843371 
L 163.074302 136.934312 
L 168.866018 129.294125 
L 174.657734 123.025253 
L 180.44945 144.378597 
L 186.241166 125.767885 
L 192.032882 121.262133 
L 197.824598 105.394052 
L 203.616314 92.856309 
L 209.408031 94.815331 
L 215.199747 85.803829 
L 220.991463 85.999731 
L 226.783179 90.113678 
L 232.574895 89.721873 
L 238.366611 91.680896 
L 244.158327 82.473491 
L 249.950043 93.248114 
L 255.741759 114.993262 
L 261.533475 93.83582 
L 267.325191 90.30958 
L 273.116907 93.639918 
L 278.908623 94.227625 
L 284.700339 83.648904 
L 290.492055 88.742362 
L 296.283771 86.587438 
L 302.075488 83.844806 
L 307.867204 94.619429 
L 313.65892 92.268602 
L 319.450636 79.143153 
L 325.242352 91.680896 
L 331.034068 83.061197 
L 336.825784 90.505482 
L 342.6175 88.742362 
L 348.409216 92.0727 
L 354.200932 88.350558 
L 359.992648 95.207136 
L 365.784364 86.195633 
L 371.57608 95.59894 
L 377.367796 89.525971 
L 383.159512 83.2571 
L 388.951229 90.505482 
L 394.742945 88.350558 
L 400.534661 86.195633 
L 406.326377 93.639918 
L 412.118093 83.453002 
L 417.909809 105.785857 
L 423.701525 97.36206 
L 429.493241 118.911306 
L 435.284957 101.476007 
L 441.076673 82.473491 
L 446.868389 83.648904 
L 452.660105 92.464505 
L 458.451821 81.102175 
L 464.243537 91.876798 
L 470.035253 80.318566 
L 475.826969 89.330069 
L 481.618686 84.432513 
L 487.410402 90.701384 
L 493.202118 94.423527 
L 498.993834 85.02022 
L 504.78555 101.476007 
L 510.577266 99.321083 
L 516.368982 84.236611 
L 522.160698 95.59894 
L 527.952414 107.548977 
L 533.74413 92.268602 
L 539.535846 79.730859 
L 545.327562 87.958753 
L 551.119278 88.154655 
L 556.910994 82.277588 
L 562.70271 86.195633 
L 568.494427 93.248114 
L 574.286143 92.268602 
L 580.077859 113.034239 
L 585.869575 90.505482 
L 591.661291 116.756382 
L 597.453007 132.820365 
L 603.244723 66.801312 
L 609.036439 82.473491 
L 614.828155 91.093189 
L 620.619871 104.806345 
L 626.411587 79.339055 
" clip-path="url(#p21e96e3e53)" style="fill: none; stroke: #0000ff; stroke-width: 1.5; stroke-linecap: round"/>
   </g>
   <g id="line2d_22">
    <path d="M 53.031697 387.101466 
L 58.823413 386.121955 
L 64.615129 388.080978 
L 70.406845 381.224399 
L 76.198561 378.285866 
L 81.990277 374.367821 
L 87.781993 366.531732 
L 93.573709 368.490754 
L 99.365425 371.429288 
L 105.157141 354.777598 
L 110.948857 353.798086 
L 116.740573 304.822528 
L 122.53229 259.765014 
L 128.324006 254.867458 
L 134.115722 267.601103 
L 139.907438 254.867458 
L 145.699154 248.010879 
L 151.49087 240.17479 
L 157.282586 247.031368 
L 163.074302 236.256745 
L 168.866018 176.506564 
L 174.657734 185.322164 
L 180.44945 163.772918 
L 186.241166 167.690963 
L 192.032882 115.776871 
L 197.824598 96.186647 
L 203.616314 105.002248 
L 209.408031 103.043225 
L 215.199747 79.534957 
L 220.991463 76.596424 
L 226.783179 75.616912 
L 232.574895 75.616912 
L 238.366611 71.698868 
L 244.158327 71.698868 
L 249.950043 71.698868 
L 255.741759 70.719356 
L 261.533475 96.186647 
L 267.325191 76.596424 
L 273.116907 70.719356 
L 278.908623 68.760334 
L 284.700339 69.739845 
L 290.492055 80.514468 
L 296.283771 83.453002 
L 302.075488 69.739845 
L 307.867204 116.756382 
L 313.65892 77.575935 
L 319.450636 70.719356 
L 325.242352 70.719356 
L 331.034068 73.65789 
L 336.825784 72.678379 
L 342.6175 87.371046 
L 348.409216 92.268602 
L 354.200932 75.616912 
L 359.992648 74.637401 
L 365.784364 70.719356 
L 371.57608 105.002248 
L 377.367796 70.719356 
L 383.159512 69.739845 
L 388.951229 72.678379 
L 394.742945 69.739845 
L 400.534661 73.65789 
L 406.326377 70.719356 
L 412.118093 75.616912 
L 417.909809 68.760334 
L 423.701525 75.616912 
L 429.493241 68.760334 
L 435.284957 83.453002 
L 441.076673 80.514468 
L 446.868389 68.760334 
L 452.660105 79.534957 
L 458.451821 81.493979 
L 464.243537 66.801312 
L 470.035253 63.862778 
L 475.826969 79.534957 
L 481.618686 82.473491 
L 487.410402 108.920292 
L 493.202118 73.65789 
L 498.993834 87.371046 
L 504.78555 101.084203 
L 510.577266 73.65789 
L 516.368982 75.616912 
L 522.160698 108.920292 
L 527.952414 88.350558 
L 533.74413 76.596424 
L 539.535846 74.637401 
L 545.327562 74.637401 
L 551.119278 85.412024 
L 556.910994 74.637401 
L 562.70271 83.453002 
L 568.494427 90.30958 
L 574.286143 74.637401 
L 580.077859 104.022736 
L 585.869575 70.719356 
L 591.661291 74.637401 
L 597.453007 75.616912 
L 603.244723 71.698868 
L 609.036439 82.473491 
L 614.828155 84.432513 
L 620.619871 77.575935 
L 626.411587 71.698868 
" clip-path="url(#p21e96e3e53)" style="fill: none; stroke: #008000; stroke-opacity: 0.2; stroke-linecap: round"/>
   </g>
   <g id="line2d_23">
    <path d="M 53.031697 384.162933 
L 58.823413 384.162933 
L 64.615129 388.080978 
L 70.406845 386.121955 
L 76.198561 383.183422 
L 81.990277 376.326844 
L 87.781993 366.531732 
L 93.573709 365.552221 
L 99.365425 360.654665 
L 105.157141 333.228352 
L 110.948857 327.351285 
L 116.740573 302.863505 
L 122.53229 282.293771 
L 128.324006 255.846969 
L 134.115722 236.256745 
L 139.907438 225.482122 
L 145.699154 184.342653 
L 151.49087 139.285139 
L 157.282586 119.694915 
L 163.074302 77.575935 
L 168.866018 76.596424 
L 174.657734 69.739845 
L 180.44945 75.616912 
L 186.241166 77.575935 
L 192.032882 137.326116 
L 197.824598 100.104692 
L 203.616314 70.719356 
L 209.408031 79.534957 
L 215.199747 70.719356 
L 220.991463 69.739845 
L 226.783179 78.555446 
L 232.574895 84.432513 
L 238.366611 70.719356 
L 244.158327 68.760334 
L 249.950043 70.719356 
L 255.741759 69.739845 
L 261.533475 70.719356 
L 267.325191 72.678379 
L 273.116907 116.756382 
L 278.908623 74.637401 
L 284.700339 69.739845 
L 290.492055 69.739845 
L 296.283771 68.760334 
L 302.075488 70.719356 
L 307.867204 68.760334 
L 313.65892 84.432513 
L 319.450636 75.616912 
L 325.242352 80.514468 
L 331.034068 69.739845 
L 336.825784 70.719356 
L 342.6175 68.760334 
L 348.409216 71.698868 
L 354.200932 70.719356 
L 359.992648 68.760334 
L 365.784364 72.678379 
L 371.57608 68.760334 
L 377.367796 71.698868 
L 383.159512 70.719356 
L 388.951229 74.637401 
L 394.742945 68.760334 
L 400.534661 70.719356 
L 406.326377 68.760334 
L 412.118093 68.760334 
L 417.909809 68.760334 
L 423.701525 68.760334 
L 429.493241 68.760334 
L 435.284957 70.719356 
L 441.076673 68.760334 
L 446.868389 68.760334 
L 452.660105 69.739845 
L 458.451821 68.760334 
L 464.243537 68.760334 
L 470.035253 68.760334 
L 475.826969 68.760334 
L 481.618686 68.760334 
L 487.410402 68.760334 
L 493.202118 68.760334 
L 498.993834 68.760334 
L 504.78555 68.760334 
L 510.577266 68.760334 
L 516.368982 72.678379 
L 522.160698 76.596424 
L 527.952414 91.289091 
L 533.74413 68.760334 
L 539.535846 68.760334 
L 545.327562 68.760334 
L 551.119278 68.760334 
L 556.910994 67.780823 
L 562.70271 68.760334 
L 568.494427 68.760334 
L 574.286143 90.30958 
L 580.077859 133.408072 
L 585.869575 108.920292 
L 591.661291 136.346605 
L 597.453007 158.875362 
L 603.244723 61.903756 
L 609.036439 60.924245 
L 614.828155 94.227625 
L 620.619871 127.531005 
L 626.411587 61.903756 
" clip-path="url(#p21e96e3e53)" style="fill: none; stroke: #008000; stroke-opacity: 0.2; stroke-linecap: round"/>
   </g>
   <g id="line2d_24">
    <path d="M 53.031697 383.183422 
L 58.823413 382.203911 
L 64.615129 380.244888 
L 70.406845 376.326844 
L 76.198561 374.367821 
L 81.990277 364.572709 
L 87.781993 353.798086 
L 93.573709 360.654665 
L 99.365425 345.961997 
L 105.157141 324.412751 
L 110.948857 295.027416 
L 116.740573 304.822528 
L 122.53229 255.846969 
L 128.324006 241.154301 
L 134.115722 259.765014 
L 139.907438 195.117276 
L 145.699154 120.674426 
L 151.49087 133.408072 
L 157.282586 135.367094 
L 163.074302 159.854874 
L 168.866018 145.162206 
L 174.657734 172.588519 
L 180.44945 250.949413 
L 186.241166 168.670474 
L 192.032882 118.715404 
L 197.824598 110.879315 
L 203.616314 90.30958 
L 209.408031 71.698868 
L 215.199747 72.678379 
L 220.991463 89.330069 
L 226.783179 80.514468 
L 232.574895 68.760334 
L 238.366611 80.514468 
L 244.158327 64.842289 
L 249.950043 61.903756 
L 255.741759 65.821801 
L 261.533475 60.924245 
L 267.325191 68.760334 
L 273.116907 71.698868 
L 278.908623 95.207136 
L 284.700339 62.883267 
L 290.492055 85.412024 
L 296.283771 65.821801 
L 302.075488 71.698868 
L 307.867204 72.678379 
L 313.65892 87.371046 
L 319.450636 61.903756 
L 325.242352 60.924245 
L 331.034068 60.924245 
L 336.825784 75.616912 
L 342.6175 60.924245 
L 348.409216 75.616912 
L 354.200932 62.883267 
L 359.992648 93.248114 
L 365.784364 74.637401 
L 371.57608 96.186647 
L 377.367796 65.821801 
L 383.159512 67.780823 
L 388.951229 69.739845 
L 394.742945 60.924245 
L 400.534661 61.903756 
L 406.326377 60.924245 
L 412.118093 64.842289 
L 417.909809 131.449049 
L 423.701525 131.449049 
L 429.493241 213.727988 
L 435.284957 143.203184 
L 441.076673 64.842289 
L 446.868389 73.65789 
L 452.660105 105.002248 
L 458.451821 60.924245 
L 464.243537 98.145669 
L 470.035253 60.924245 
L 475.826969 61.903756 
L 481.618686 60.924245 
L 487.410402 60.924245 
L 493.202118 60.924245 
L 498.993834 60.924245 
L 504.78555 126.551494 
L 510.577266 102.063714 
L 516.368982 64.842289 
L 522.160698 61.903756 
L 527.952414 152.998295 
L 533.74413 60.924245 
L 539.535846 60.924245 
L 545.327562 63.862778 
L 551.119278 62.883267 
L 556.910994 60.924245 
L 562.70271 67.780823 
L 568.494427 68.760334 
L 574.286143 86.391535 
L 580.077859 93.248114 
L 585.869575 64.842289 
L 591.661291 98.145669 
L 597.453007 242.133812 
L 603.244723 66.801312 
L 609.036439 60.924245 
L 614.828155 63.862778 
L 620.619871 70.719356 
L 626.411587 60.924245 
" clip-path="url(#p21e96e3e53)" style="fill: none; stroke: #008000; stroke-opacity: 0.2; stroke-linecap: round"/>
   </g>
   <g id="line2d_25">
    <path d="M 53.031697 386.121955 
L 58.823413 381.224399 
L 64.615129 382.203911 
L 70.406845 378.285866 
L 76.198561 359.675154 
L 81.990277 329.310307 
L 87.781993 261.724036 
L 93.573709 173.56803 
L 99.365425 204.912388 
L 105.157141 153.977806 
L 110.948857 161.813896 
L 116.740573 123.61296 
L 122.53229 182.383631 
L 128.324006 172.588519 
L 134.115722 148.100739 
L 139.907438 160.834385 
L 145.699154 145.162206 
L 151.49087 122.633449 
L 157.282586 156.91634 
L 163.074302 148.100739 
L 168.866018 151.039273 
L 174.657734 110.879315 
L 180.44945 137.326116 
L 186.241166 137.326116 
L 192.032882 161.813896 
L 197.824598 150.059762 
L 203.616314 134.387583 
L 209.408031 142.223672 
L 215.199747 143.203184 
L 220.991463 125.571982 
L 226.783179 154.957318 
L 232.574895 158.875362 
L 238.366611 173.56803 
L 244.158327 146.141717 
L 249.950043 166.711452 
L 255.741759 296.006927 
L 261.533475 174.547541 
L 267.325191 130.469538 
L 273.116907 148.100739 
L 278.908623 171.609008 
L 284.700339 147.121228 
L 290.492055 147.121228 
L 296.283771 149.080251 
L 302.075488 145.162206 
L 307.867204 148.100739 
L 313.65892 142.223672 
L 319.450636 121.653938 
L 325.242352 152.998295 
L 331.034068 147.121228 
L 336.825784 149.080251 
L 342.6175 141.244161 
L 348.409216 149.080251 
L 354.200932 146.141717 
L 359.992648 130.469538 
L 365.784364 144.182695 
L 371.57608 147.121228 
L 377.367796 147.121228 
L 383.159512 147.121228 
L 388.951229 147.121228 
L 394.742945 152.998295 
L 400.534661 148.100739 
L 406.326377 147.121228 
L 412.118093 147.121228 
L 417.909809 147.121228 
L 423.701525 142.223672 
L 429.493241 147.121228 
L 435.284957 147.121228 
L 441.076673 137.326116 
L 446.868389 146.141717 
L 452.660105 147.121228 
L 458.451821 133.408072 
L 464.243537 138.305628 
L 470.035253 120.674426 
L 475.826969 138.305628 
L 481.618686 147.121228 
L 487.410402 144.182695 
L 493.202118 149.080251 
L 498.993834 147.121228 
L 504.78555 128.510516 
L 510.577266 147.121228 
L 516.368982 147.121228 
L 522.160698 144.182695 
L 527.952414 136.346605 
L 533.74413 147.121228 
L 539.535846 132.428561 
L 545.327562 147.121228 
L 551.119278 147.121228 
L 556.910994 147.121228 
L 562.70271 147.121228 
L 568.494427 147.121228 
L 574.286143 147.121228 
L 580.077859 147.121228 
L 585.869575 147.121228 
L 591.661291 109.899804 
L 597.453007 125.571982 
L 603.244723 68.760334 
L 609.036439 147.121228 
L 614.828155 150.059762 
L 620.619871 158.875362 
L 626.411587 138.305628 
" clip-path="url(#p21e96e3e53)" style="fill: none; stroke: #008000; stroke-opacity: 0.2; stroke-linecap: round"/>
   </g>
   <g id="line2d_26">
    <path d="M 53.031697 382.203911 
L 58.823413 385.142444 
L 64.615129 385.142444 
L 70.406845 380.244888 
L 76.198561 370.449776 
L 81.990277 364.572709 
L 87.781993 364.572709 
L 93.573709 355.757109 
L 99.365425 329.310307 
L 105.157141 253.887946 
L 110.948857 269.560125 
L 116.740573 214.707499 
L 122.53229 268.580614 
L 128.324006 206.87141 
L 134.115722 197.076298 
L 139.907438 168.670474 
L 145.699154 131.449049 
L 151.49087 90.30958 
L 157.282586 95.207136 
L 163.074302 62.883267 
L 168.866018 97.166158 
L 174.657734 76.596424 
L 180.44945 94.227625 
L 186.241166 77.575935 
L 192.032882 72.678379 
L 197.824598 69.739845 
L 203.616314 63.862778 
L 209.408031 77.575935 
L 215.199747 62.883267 
L 220.991463 68.760334 
L 226.783179 60.924245 
L 232.574895 60.924245 
L 238.366611 61.903756 
L 244.158327 60.924245 
L 249.950043 95.207136 
L 255.741759 72.678379 
L 261.533475 66.801312 
L 267.325191 103.043225 
L 273.116907 60.924245 
L 278.908623 60.924245 
L 284.700339 68.760334 
L 290.492055 60.924245 
L 296.283771 65.821801 
L 302.075488 61.903756 
L 307.867204 66.801312 
L 313.65892 69.739845 
L 319.450636 65.821801 
L 325.242352 93.248114 
L 331.034068 63.862778 
L 336.825784 84.432513 
L 342.6175 85.412024 
L 348.409216 71.698868 
L 354.200932 86.391535 
L 359.992648 108.920292 
L 365.784364 68.760334 
L 371.57608 60.924245 
L 377.367796 92.268602 
L 383.159512 60.924245 
L 388.951229 88.350558 
L 394.742945 89.330069 
L 400.534661 76.596424 
L 406.326377 120.674426 
L 412.118093 60.924245 
L 417.909809 112.838337 
L 423.701525 68.760334 
L 429.493241 96.186647 
L 435.284957 62.883267 
L 441.076673 60.924245 
L 446.868389 60.924245 
L 452.660105 60.924245 
L 458.451821 60.924245 
L 464.243537 87.371046 
L 470.035253 87.371046 
L 475.826969 98.145669 
L 481.618686 62.883267 
L 487.410402 70.719356 
L 493.202118 119.694915 
L 498.993834 60.924245 
L 504.78555 82.473491 
L 510.577266 105.002248 
L 516.368982 60.924245 
L 522.160698 86.391535 
L 527.952414 68.760334 
L 533.74413 107.940781 
L 539.535846 61.903756 
L 545.327562 85.412024 
L 551.119278 76.596424 
L 556.910994 60.924245 
L 562.70271 63.862778 
L 568.494427 91.289091 
L 574.286143 62.883267 
L 580.077859 87.371046 
L 585.869575 60.924245 
L 591.661291 164.752429 
L 597.453007 61.903756 
L 603.244723 64.842289 
L 609.036439 60.924245 
L 614.828155 62.883267 
L 620.619871 89.330069 
L 626.411587 63.862778 
" clip-path="url(#p21e96e3e53)" style="fill: none; stroke: #008000; stroke-opacity: 0.2; stroke-linecap: round"/>
   </g>
   <g id="line2d_27">
    <path d="M 53.031697 60.924245 
L 58.823413 83.877053 
L 64.615129 113.454734 
L 70.406845 153.425328 
L 76.198561 192.615506 
L 81.990277 230.377877 
L 87.781993 244.695837 
L 93.573709 261.658495 
L 99.365425 286.734051 
L 105.157141 299.81014 
L 110.948857 303.052362 
L 116.740573 305.585578 
L 122.53229 306.995758 
L 128.324006 315.791486 
L 134.115722 307.939382 
L 139.907438 312.667723 
L 145.699154 334.782505 
L 151.49087 345.20885 
L 157.282586 349.128792 
L 163.074302 361.662242 
L 168.866018 343.482197 
L 174.657734 360.537419 
L 180.44945 346.170866 
L 186.241166 342.726287 
L 192.032882 340.461808 
L 197.824598 356.970021 
L 203.616314 342.689453 
L 209.408031 335.81013 
L 215.199747 338.60577 
L 220.991463 339.047927 
L 226.783179 347.199534 
L 232.574895 340.381552 
L 238.366611 336.180962 
L 244.158327 345.029864 
L 249.950043 349.393154 
L 255.741759 363.178554 
L 261.533475 352.317027 
L 267.325191 352.365054 
L 273.116907 347.75807 
L 278.908623 344.757248 
L 284.700339 356.789323 
L 290.492055 360.123126 
L 296.283771 352.251705 
L 302.075488 363.867194 
L 307.867204 375.542533 
L 313.65892 371.66793 
L 319.450636 363.19895 
L 325.242352 366.143883 
L 331.034068 366.816916 
L 336.825784 360.204407 
L 342.6175 355.149951 
L 348.409216 366.216356 
L 354.200932 368.679688 
L 359.992648 360.334 
L 365.784364 366.614793 
L 371.57608 368.133947 
L 377.367796 363.159773 
L 383.159512 374.293281 
L 388.951229 369.200536 
L 394.742945 363.112949 
L 400.534661 359.601211 
L 406.326377 368.386179 
L 412.118093 363.430393 
L 417.909809 365.06411 
L 423.701525 377.177813 
L 429.493241 380.611477 
L 435.284957 390.04 
L 441.076673 387.465591 
L 446.868389 385.18428 
L 452.660105 376.616787 
L 458.451821 371.576126 
L 464.243537 370.254013 
L 470.035253 374.321332 
L 475.826969 374.614647 
L 481.618686 365.929154 
L 487.410402 372.205794 
L 493.202118 380.659564 
L 498.993834 373.121501 
L 504.78555 361.545369 
L 510.577266 362.569361 
L 516.368982 359.713321 
L 522.160698 353.546467 
L 527.952414 338.257314 
L 533.74413 342.897698 
L 539.535846 348.905509 
L 545.327562 353.572854 
L 551.119278 357.160011 
L 556.910994 351.200897 
L 562.70271 350.704451 
L 568.494427 349.977121 
L 574.286143 350.120345 
L 580.077859 361.059599 
L 585.869575 365.861314 
L 591.661291 374.786905 
L 597.453007 387.744809 
L 603.244723 375.3387 
L 609.036439 372.346897 
L 614.828155 359.359168 
L 620.619871 352.040304 
L 626.411587 366.961182 
" clip-path="url(#p21e96e3e53)" style="fill: none; stroke: #7b3ab8; stroke-linecap: round"/>
   </g>
   <g id="patch_3">
    <path d="M 53.03 390.04 
L 53.03 57.0062 
" style="fill: none; stroke: #ffffff; stroke-width: 0.8; stroke-linejoin: miter; stroke-linecap: square"/>
   </g>
   <g id="patch_4">
    <path d="M 632.205 390.04 
L 632.205 57.0062 
" style="fill: none; stroke: #ffffff; stroke-width: 0.8; stroke-linejoin: miter; stroke-linecap: square"/>
   </g>
   <g id="patch_5">
    <path d="M 53.03 390.04 
L 632.205 390.04 
" style="fill: none; stroke: #ffffff; stroke-width: 0.8; stroke-linejoin: miter; stroke-linecap: square"/>
   </g>
   <g id="patch_6">
    <path d="M 53.03 57.0062 
L 632.205 57.0062 
" style="fill: none; stroke: #ffffff; stroke-width: 0.8; stroke-linejoin: miter; stroke-linecap: square"/>
   </g>
   <g id="legend_1">
    <g id="line2d_28">
     <path d="M 91.085341 41.274494 
L 99.415341 41.274494 
L 107.745341 41.274494 
" style="fill: none; stroke: #0000ff; stroke-width: 1.5; stroke-linecap: round"/>
    </g>
    <g id="text_24">
     <!-- Mean Reward -->
     <g style="fill: #262626" transform="translate(114.409341 44.189994) scale(0.0833 -0.0833)">
      <defs>
       <path id="DejaVuSans-4d" d="M 628 4666 
L 1569 4666 
L 2759 1491 
L 3956 4666 
L 4897 4666 
L 4897 0 
L 4281 0 
L 4281 4097 
L 3078 897 
L 2444 897 
L 1241 4097 
L 1241 0 
L 628 0 
L 628 4666 
z
" transform="scale(0.015625)"/>
       <path id="DejaVuSans-6e" d="M 3513 2113 
L 3513 0 
L 2938 0 
L 2938 2094 
Q 2938 2591 2744 2837 
Q 2550 3084 2163 3084 
Q 1697 3084 1428 2787 
Q 1159 2491 1159 1978 
L 1159 0 
L 581 0 
L 581 3500 
L 1159 3500 
L 1159 2956 
Q 1366 3272 1645 3428 
Q 1925 3584 2291 3584 
Q 2894 3584 3203 3211 
Q 3513 2838 3513 2113 
z
" transform="scale(0.015625)"/>
       <path id="DejaVuSans-20" transform="scale(0.015625)"/>
      </defs>
      <use xlink:href="#DejaVuSans-4d"/>
      <use xlink:href="#DejaVuSans-65" transform="translate(86.279297 0)"/>
      <use xlink:href="#DejaVuSans-61" transform="translate(147.802734 0)"/>
      <use xlink:href="#DejaVuSans-6e" transform="translate(209.082031 0)"/>
      <use xlink:href="#DejaVuSans-20" transform="translate(272.460938 0)"/>
      <use xlink:href="#DejaVuSans-52" transform="translate(304.248047 0)"/>
      <use xlink:href="#DejaVuSans-65" transform="translate(369.230469 0)"/>
      <use xlink:href="#DejaVuSans-77" transform="translate(430.753906 0)"/>
      <use xlink:href="#DejaVuSans-61" transform="translate(512.541016 0)"/>
      <use xlink:href="#DejaVuSans-72" transform="translate(573.820312 0)"/>
      <use xlink:href="#DejaVuSans-64" transform="translate(613.183594 0)"/>
     </g>
    </g>
    <g id="line2d_29">
     <path d="M 187.436108 41.274494 
L 195.766108 41.274494 
L 204.096108 41.274494 
" style="fill: none; stroke: #008000; stroke-opacity: 0.2; stroke-linecap: round"/>
    </g>
    <g id="text_25">
     <!-- Reward (individual runs) -->
     <g style="fill: #262626" transform="translate(210.760108 44.189994) scale(0.0833 -0.0833)">
      <defs>
       <path id="DejaVuSans-28" d="M 1984 4856 
Q 1566 4138 1362 3434 
Q 1159 2731 1159 2009 
Q 1159 1288 1364 580 
Q 1569 -128 1984 -844 
L 1484 -844 
Q 1016 -109 783 600 
Q 550 1309 550 2009 
Q 550 2706 781 3412 
Q 1013 4119 1484 4856 
L 1984 4856 
z
" transform="scale(0.015625)"/>
       <path id="DejaVuSans-69" d="M 603 3500 
L 1178 3500 
L 1178 0 
L 603 0 
L 603 3500 
z
M 603 4863 
L 1178 4863 
L 1178 4134 
L 603 4134 
L 603 4863 
z
" transform="scale(0.015625)"/>
       <path id="DejaVuSans-76" d="M 191 3500 
L 800 3500 
L 1894 563 
L 2988 3500 
L 3597 3500 
L 2284 0 
L 1503 0 
L 191 3500 
z
" transform="scale(0.015625)"/>
       <path id="DejaVuSans-75" d="M 544 1381 
L 544 3500 
L 1119 3500 
L 1119 1403 
Q 1119 906 1312 657 
Q 1506 409 1894 409 
Q 2359 409 2629 706 
Q 2900 1003 2900 1516 
L 2900 3500 
L 3475 3500 
L 3475 0 
L 2900 0 
L 2900 538 
Q 2691 219 2414 64 
Q 2138 -91 1772 -91 
Q 1169 -91 856 284 
Q 544 659 544 1381 
z
M 1991 3584 
L 1991 3584 
z
" transform="scale(0.015625)"/>
       <path id="DejaVuSans-6c" d="M 603 4863 
L 1178 4863 
L 1178 0 
L 603 0 
L 603 4863 
z
" transform="scale(0.015625)"/>
       <path id="DejaVuSans-29" d="M 513 4856 
L 1013 4856 
Q 1481 4119 1714 3412 
Q 1947 2706 1947 2009 
Q 1947 1309 1714 600 
Q 1481 -109 1013 -844 
L 513 -844 
Q 928 -128 1133 580 
Q 1338 1288 1338 2009 
Q 1338 2731 1133 3434 
Q 928 4138 513 4856 
z
" transform="scale(0.015625)"/>
      </defs>
      <use xlink:href="#DejaVuSans-52"/>
      <use xlink:href="#DejaVuSans-65" transform="translate(64.982422 0)"/>
      <use xlink:href="#DejaVuSans-77" transform="translate(126.505859 0)"/>
      <use xlink:href="#DejaVuSans-61" transform="translate(208.292969 0)"/>
      <use xlink:href="#DejaVuSans-72" transform="translate(269.572266 0)"/>
      <use xlink:href="#DejaVuSans-64" transform="translate(308.935547 0)"/>
      <use xlink:href="#DejaVuSans-20" transform="translate(372.412109 0)"/>
      <use xlink:href="#DejaVuSans-28" transform="translate(404.199219 0)"/>
      <use xlink:href="#DejaVuSans-69" transform="translate(443.212891 0)"/>
      <use xlink:href="#DejaVuSans-6e" transform="translate(470.996094 0)"/>
      <use xlink:href="#DejaVuSans-64" transform="translate(534.375 0)"/>
      <use xlink:href="#DejaVuSans-69" transform="translate(597.851562 0)"/>
      <use xlink:href="#DejaVuSans-76" transform="translate(625.634766 0)"/>
      <use xlink:href="#DejaVuSans-69" transform="translate(684.814453 0)"/>
      <use xlink:href="#DejaVuSans-64" transform="translate(712.597656 0)"/>
      <use xlink:href="#DejaVuSans-75" transform="translate(776.074219 0)"/>
      <use xlink:href="#DejaVuSans-61" transform="translate(839.453125 0)"/>
      <use xlink:href="#DejaVuSans-6c" transform="translate(900.732422 0)"/>
      <use xlink:href="#DejaVuSans-20" transform="translate(928.515625 0)"/>
      <use xlink:href="#DejaVuSans-72" transform="translate(960.302734 0)"/>
      <use xlink:href="#DejaVuSans-75" transform="translate(1001.416016 0)"/>
      <use xlink:href="#DejaVuSans-6e" transform="translate(1064.794922 0)"/>
      <use xlink:href="#DejaVuSans-73" transform="translate(1128.173828 0)"/>
      <use xlink:href="#DejaVuSans-29" transform="translate(1180.273438 0)"/>
     </g>
    </g>
    <g id="line2d_30">
     <path d="M 328.986236 41.274494 
L 337.316236 41.274494 
L 345.646236 41.274494 
" style="fill: none; stroke: #7b3ab8; stroke-linecap: round"/>
    </g>
    <g id="text_26">
     <!-- Entropy (normalized) -->
     <g style="fill: #262626" transform="translate(352.310236 44.189994) scale(0.0833 -0.0833)">
      <defs>
       <path id="DejaVuSans-45" d="M 628 4666 
L 3578 4666 
L 3578 4134 
L 1259 4134 
L 1259 2753 
L 3481 2753 
L 3481 2222 
L 1259 2222 
L 1259 531 
L 3634 531 
L 3634 0 
L 628 0 
L 628 4666 
z
" transform="scale(0.015625)"/>
       <path id="DejaVuSans-6f" d="M 1959 3097 
Q 1497 3097 1228 2736 
Q 959 2375 959 1747 
Q 959 1119 1226 758 
Q 1494 397 1959 397 
Q 2419 397 2687 759 
Q 2956 1122 2956 1747 
Q 2956 2369 2687 2733 
Q 2419 3097 1959 3097 
z
M 1959 3584 
Q 2709 3584 3137 3096 
Q 3566 2609 3566 1747 
Q 3566 888 3137 398 
Q 2709 -91 1959 -91 
Q 1206 -91 779 398 
Q 353 888 353 1747 
Q 353 2609 779 3096 
Q 1206 3584 1959 3584 
z
" transform="scale(0.015625)"/>
       <path id="DejaVuSans-79" d="M 2059 -325 
Q 1816 -950 1584 -1140 
Q 1353 -1331 966 -1331 
L 506 -1331 
L 506 -850 
L 844 -850 
Q 1081 -850 1212 -737 
Q 1344 -625 1503 -206 
L 1606 56 
L 191 3500 
L 800 3500 
L 1894 763 
L 2988 3500 
L 3597 3500 
L 2059 -325 
z
" transform="scale(0.015625)"/>
       <path id="DejaVuSans-6d" d="M 3328 2828 
Q 3544 3216 3844 3400 
Q 4144 3584 4550 3584 
Q 5097 3584 5394 3201 
Q 5691 2819 5691 2113 
L 5691 0 
L 5113 0 
L 5113 2094 
Q 5113 2597 4934 2840 
Q 4756 3084 4391 3084 
Q 3944 3084 3684 2787 
Q 3425 2491 3425 1978 
L 3425 0 
L 2847 0 
L 2847 2094 
Q 2847 2600 2669 2842 
Q 2491 3084 2119 3084 
Q 1678 3084 1418 2786 
Q 1159 2488 1159 1978 
L 1159 0 
L 581 0 
L 581 3500 
L 1159 3500 
L 1159 2956 
Q 1356 3278 1631 3431 
Q 1906 3584 2284 3584 
Q 2666 3584 2933 3390 
Q 3200 3197 3328 2828 
z
" transform="scale(0.015625)"/>
       <path id="DejaVuSans-7a" d="M 353 3500 
L 3084 3500 
L 3084 2975 
L 922 459 
L 3084 459 
L 3084 0 
L 275 0 
L 275 525 
L 2438 3041 
L 353 3041 
L 353 3500 
z
" transform="scale(0.015625)"/>
      </defs>
      <use xlink:href="#DejaVuSans-45"/>
      <use xlink:href="#DejaVuSans-6e" transform="translate(63.183594 0)"/>
      <use xlink:href="#DejaVuSans-74" transform="translate(126.5625 0)"/>
      <use xlink:href="#DejaVuSans-72" transform="translate(165.771484 0)"/>
      <use xlink:href="#DejaVuSans-6f" transform="translate(204.634766 0)"/>
      <use xlink:href="#DejaVuSans-70" transform="translate(265.816406 0)"/>
      <use xlink:href="#DejaVuSans-79" transform="translate(329.292969 0)"/>
      <use xlink:href="#DejaVuSans-20" transform="translate(388.472656 0)"/>
      <use xlink:href="#DejaVuSans-28" transform="translate(420.259766 0)"/>
      <use xlink:href="#DejaVuSans-6e" transform="translate(459.273438 0)"/>
      <use xlink:href="#DejaVuSans-6f" transform="translate(522.652344 0)"/>
      <use xlink:href="#DejaVuSans-72" transform="translate(583.833984 0)"/>
      <use xlink:href="#DejaVuSans-6d" transform="translate(623.197266 0)"/>
      <use xlink:href="#DejaVuSans-61" transform="translate(720.609375 0)"/>
      <use xlink:href="#DejaVuSans-6c" transform="translate(781.888672 0)"/>
      <use xlink:href="#DejaVuSans-69" transform="translate(809.671875 0)"/>
      <use xlink:href="#DejaVuSans-7a" transform="translate(837.455078 0)"/>
      <use xlink:href="#DejaVuSans-65" transform="translate(889.945312 0)"/>
      <use xlink:href="#DejaVuSans-64" transform="translate(951.46875 0)"/>
      <use xlink:href="#DejaVuSans-29" transform="translate(1014.945312 0)"/>
     </g>
    </g>
    <g id="patch_7">
     <path d="M 456.765833 44.189994 
L 473.425833 44.189994 
L 473.425833 38.358994 
L 456.765833 38.358994 
z
" style="fill: #0000ff; fill-opacity: 0.1"/>
    </g>
    <g id="text_27">
     <!-- Reward Standard Deviation -->
     <g style="fill: #262626" transform="translate(480.089833 44.189994) scale(0.0833 -0.0833)">
      <defs>
       <path id="DejaVuSans-44" d="M 1259 4147 
L 1259 519 
L 2022 519 
Q 2988 519 3436 956 
Q 3884 1394 3884 2338 
Q 3884 3275 3436 3711 
Q 2988 4147 2022 4147 
L 1259 4147 
z
M 628 4666 
L 1925 4666 
Q 3281 4666 3915 4102 
Q 4550 3538 4550 2338 
Q 4550 1131 3912 565 
Q 3275 0 1925 0 
L 628 0 
L 628 4666 
z
" transform="scale(0.015625)"/>
      </defs>
      <use xlink:href="#DejaVuSans-52"/>
      <use xlink:href="#DejaVuSans-65" transform="translate(64.982422 0)"/>
      <use xlink:href="#DejaVuSans-77" transform="translate(126.505859 0)"/>
      <use xlink:href="#DejaVuSans-61" transform="translate(208.292969 0)"/>
      <use xlink:href="#DejaVuSans-72" transform="translate(269.572266 0)"/>
      <use xlink:href="#DejaVuSans-64" transform="translate(308.935547 0)"/>
      <use xlink:href="#DejaVuSans-20" transform="translate(372.412109 0)"/>
      <use xlink:href="#DejaVuSans-53" transform="translate(404.199219 0)"/>
      <use xlink:href="#DejaVuSans-74" transform="translate(467.675781 0)"/>
      <use xlink:href="#DejaVuSans-61" transform="translate(506.884766 0)"/>
      <use xlink:href="#DejaVuSans-6e" transform="translate(568.164062 0)"/>
      <use xlink:href="#DejaVuSans-64" transform="translate(631.542969 0)"/>
      <use xlink:href="#DejaVuSans-61" transform="translate(695.019531 0)"/>
      <use xlink:href="#DejaVuSans-72" transform="translate(756.298828 0)"/>
      <use xlink:href="#DejaVuSans-64" transform="translate(795.662109 0)"/>
      <use xlink:href="#DejaVuSans-20" transform="translate(859.138672 0)"/>
      <use xlink:href="#DejaVuSans-44" transform="translate(890.925781 0)"/>
      <use xlink:href="#DejaVuSans-65" transform="translate(967.927734 0)"/>
      <use xlink:href="#DejaVuSans-76" transform="translate(1029.451172 0)"/>
      <use xlink:href="#DejaVuSans-69" transform="translate(1088.630859 0)"/>
      <use xlink:href="#DejaVuSans-61" transform="translate(1116.414062 0)"/>
      <use xlink:href="#DejaVuSans-74" transform="translate(1177.693359 0)"/>
      <use xlink:href="#DejaVuSans-69" transform="translate(1216.902344 0)"/>
      <use xlink:href="#DejaVuSans-6f" transform="translate(1244.685547 0)"/>
      <use xlink:href="#DejaVuSans-6e" transform="translate(1305.867188 0)"/>
     </g>
    </g>
   </g>
  </g>
  <g id="text_28">
   <!-- Rewards: Pong-v5 | CMU-Net (Alignment + Margin) -->
   <g style="fill: #262626" transform="translate(151.515 17.810625) scale(0.12 -0.12)">
    <defs>
     <path id="DejaVuSans-Bold-52" d="M 2297 2597 
Q 2675 2597 2839 2737 
Q 3003 2878 3003 3200 
Q 3003 3519 2839 3656 
Q 2675 3794 2297 3794 
L 1791 3794 
L 1791 2597 
L 2297 2597 
z
M 1791 1766 
L 1791 0 
L 588 0 
L 588 4666 
L 2425 4666 
Q 3347 4666 3776 4356 
Q 4206 4047 4206 3378 
Q 4206 2916 3982 2619 
Q 3759 2322 3309 2181 
Q 3556 2125 3751 1926 
Q 3947 1728 4147 1325 
L 4800 0 
L 3519 0 
L 2950 1159 
Q 2778 1509 2601 1637 
Q 2425 1766 2131 1766 
L 1791 1766 
z
" transform="scale(0.015625)"/>
     <path id="DejaVuSans-Bold-65" d="M 4031 1759 
L 4031 1441 
L 1416 1441 
Q 1456 1047 1700 850 
Q 1944 653 2381 653 
Q 2734 653 3104 758 
Q 3475 863 3866 1075 
L 3866 213 
Q 3469 63 3072 -14 
Q 2675 -91 2278 -91 
Q 1328 -91 801 392 
Q 275 875 275 1747 
Q 275 2603 792 3093 
Q 1309 3584 2216 3584 
Q 3041 3584 3536 3087 
Q 4031 2591 4031 1759 
z
M 2881 2131 
Q 2881 2450 2695 2645 
Q 2509 2841 2209 2841 
Q 1884 2841 1681 2658 
Q 1478 2475 1428 2131 
L 2881 2131 
z
" transform="scale(0.015625)"/>
     <path id="DejaVuSans-Bold-77" d="M 225 3500 
L 1313 3500 
L 1900 1088 
L 2491 3500 
L 3425 3500 
L 4013 1113 
L 4603 3500 
L 5691 3500 
L 4769 0 
L 3547 0 
L 2956 2406 
L 2369 0 
L 1147 0 
L 225 3500 
z
" transform="scale(0.015625)"/>
     <path id="DejaVuSans-Bold-61" d="M 2106 1575 
Q 1756 1575 1579 1456 
Q 1403 1338 1403 1106 
Q 1403 894 1545 773 
Q 1688 653 1941 653 
Q 2256 653 2472 879 
Q 2688 1106 2688 1447 
L 2688 1575 
L 2106 1575 
z
M 3816 1997 
L 3816 0 
L 2688 0 
L 2688 519 
Q 2463 200 2181 54 
Q 1900 -91 1497 -91 
Q 953 -91 614 226 
Q 275 544 275 1050 
Q 275 1666 698 1953 
Q 1122 2241 2028 2241 
L 2688 2241 
L 2688 2328 
Q 2688 2594 2478 2717 
Q 2269 2841 1825 2841 
Q 1466 2841 1156 2769 
Q 847 2697 581 2553 
L 581 3406 
Q 941 3494 1303 3539 
Q 1666 3584 2028 3584 
Q 2975 3584 3395 3211 
Q 3816 2838 3816 1997 
z
" transform="scale(0.015625)"/>
     <path id="DejaVuSans-Bold-72" d="M 3138 2547 
Q 2991 2616 2845 2648 
Q 2700 2681 2553 2681 
Q 2122 2681 1889 2404 
Q 1656 2128 1656 1613 
L 1656 0 
L 538 0 
L 538 3500 
L 1656 3500 
L 1656 2925 
Q 1872 3269 2151 3426 
Q 2431 3584 2822 3584 
Q 2878 3584 2943 3579 
Q 3009 3575 3134 3559 
L 3138 2547 
z
" transform="scale(0.015625)"/>
     <path id="DejaVuSans-Bold-64" d="M 2919 2988 
L 2919 4863 
L 4044 4863 
L 4044 0 
L 2919 0 
L 2919 506 
Q 2688 197 2409 53 
Q 2131 -91 1766 -91 
Q 1119 -91 703 423 
Q 288 938 288 1747 
Q 288 2556 703 3070 
Q 1119 3584 1766 3584 
Q 2128 3584 2408 3439 
Q 2688 3294 2919 2988 
z
M 2181 722 
Q 2541 722 2730 984 
Q 2919 1247 2919 1747 
Q 2919 2247 2730 2509 
Q 2541 2772 2181 2772 
Q 1825 2772 1636 2509 
Q 1447 2247 1447 1747 
Q 1447 1247 1636 984 
Q 1825 722 2181 722 
z
" transform="scale(0.015625)"/>
     <path id="DejaVuSans-Bold-73" d="M 3272 3391 
L 3272 2541 
Q 2913 2691 2578 2766 
Q 2244 2841 1947 2841 
Q 1628 2841 1473 2761 
Q 1319 2681 1319 2516 
Q 1319 2381 1436 2309 
Q 1553 2238 1856 2203 
L 2053 2175 
Q 2913 2066 3209 1816 
Q 3506 1566 3506 1031 
Q 3506 472 3093 190 
Q 2681 -91 1863 -91 
Q 1516 -91 1145 -36 
Q 775 19 384 128 
L 384 978 
Q 719 816 1070 734 
Q 1422 653 1784 653 
Q 2113 653 2278 743 
Q 2444 834 2444 1013 
Q 2444 1163 2330 1236 
Q 2216 1309 1875 1350 
L 1678 1375 
Q 931 1469 631 1722 
Q 331 1975 331 2491 
Q 331 3047 712 3315 
Q 1094 3584 1881 3584 
Q 2191 3584 2531 3537 
Q 2872 3491 3272 3391 
z
" transform="scale(0.015625)"/>
     <path id="DejaVuSans-Bold-3a" d="M 716 3500 
L 1844 3500 
L 1844 2291 
L 716 2291 
L 716 3500 
z
M 716 1209 
L 1844 1209 
L 1844 0 
L 716 0 
L 716 1209 
z
" transform="scale(0.015625)"/>
     <path id="DejaVuSans-Bold-20" transform="scale(0.015625)"/>
     <path id="DejaVuSans-Bold-50" d="M 588 4666 
L 2584 4666 
Q 3475 4666 3951 4270 
Q 4428 3875 4428 3144 
Q 4428 2409 3951 2014 
Q 3475 1619 2584 1619 
L 1791 1619 
L 1791 0 
L 588 0 
L 588 4666 
z
M 1791 3794 
L 1791 2491 
L 2456 2491 
Q 2806 2491 2997 2661 
Q 3188 2831 3188 3144 
Q 3188 3456 2997 3625 
Q 2806 3794 2456 3794 
L 1791 3794 
z
" transform="scale(0.015625)"/>
     <path id="DejaVuSans-Bold-6f" d="M 2203 2784 
Q 1831 2784 1636 2517 
Q 1441 2250 1441 1747 
Q 1441 1244 1636 976 
Q 1831 709 2203 709 
Q 2569 709 2762 976 
Q 2956 1244 2956 1747 
Q 2956 2250 2762 2517 
Q 2569 2784 2203 2784 
z
M 2203 3584 
Q 3106 3584 3614 3096 
Q 4122 2609 4122 1747 
Q 4122 884 3614 396 
Q 3106 -91 2203 -91 
Q 1297 -91 786 396 
Q 275 884 275 1747 
Q 275 2609 786 3096 
Q 1297 3584 2203 3584 
z
" transform="scale(0.015625)"/>
     <path id="DejaVuSans-Bold-6e" d="M 4056 2131 
L 4056 0 
L 2931 0 
L 2931 347 
L 2931 1631 
Q 2931 2084 2911 2256 
Q 2891 2428 2841 2509 
Q 2775 2619 2662 2680 
Q 2550 2741 2406 2741 
Q 2056 2741 1856 2470 
Q 1656 2200 1656 1722 
L 1656 0 
L 538 0 
L 538 3500 
L 1656 3500 
L 1656 2988 
Q 1909 3294 2193 3439 
Q 2478 3584 2822 3584 
Q 3428 3584 3742 3212 
Q 4056 2841 4056 2131 
z
" transform="scale(0.015625)"/>
     <path id="DejaVuSans-Bold-67" d="M 2919 594 
Q 2688 288 2409 144 
Q 2131 0 1766 0 
Q 1125 0 706 504 
Q 288 1009 288 1791 
Q 288 2575 706 3076 
Q 1125 3578 1766 3578 
Q 2131 3578 2409 3434 
Q 2688 3291 2919 2981 
L 2919 3500 
L 4044 3500 
L 4044 353 
Q 4044 -491 3511 -936 
Q 2978 -1381 1966 -1381 
Q 1638 -1381 1331 -1331 
Q 1025 -1281 716 -1178 
L 716 -306 
Q 1009 -475 1290 -558 
Q 1572 -641 1856 -641 
Q 2406 -641 2662 -400 
Q 2919 -159 2919 353 
L 2919 594 
z
M 2181 2772 
Q 1834 2772 1640 2515 
Q 1447 2259 1447 1791 
Q 1447 1309 1634 1061 
Q 1822 813 2181 813 
Q 2531 813 2725 1069 
Q 2919 1325 2919 1791 
Q 2919 2259 2725 2515 
Q 2531 2772 2181 2772 
z
" transform="scale(0.015625)"/>
     <path id="DejaVuSans-Bold-2d" d="M 347 2297 
L 2309 2297 
L 2309 1388 
L 347 1388 
L 347 2297 
z
" transform="scale(0.015625)"/>
     <path id="DejaVuSans-Bold-76" d="M 97 3500 
L 1216 3500 
L 2088 1081 
L 2956 3500 
L 4078 3500 
L 2700 0 
L 1472 0 
L 97 3500 
z
" transform="scale(0.015625)"/>
     <path id="DejaVuSans-Bold-35" d="M 678 4666 
L 3669 4666 
L 3669 3781 
L 1638 3781 
L 1638 3059 
Q 1775 3097 1914 3117 
Q 2053 3138 2203 3138 
Q 3056 3138 3531 2711 
Q 4006 2284 4006 1522 
Q 4006 766 3489 337 
Q 2972 -91 2053 -91 
Q 1656 -91 1267 -14 
Q 878 63 494 219 
L 494 1166 
Q 875 947 1217 837 
Q 1559 728 1863 728 
Q 2300 728 2551 942 
Q 2803 1156 2803 1522 
Q 2803 1891 2551 2103 
Q 2300 2316 1863 2316 
Q 1603 2316 1309 2248 
Q 1016 2181 678 2041 
L 678 4666 
z
" transform="scale(0.015625)"/>
     <path id="DejaVuSans-Bold-7c" d="M 1522 4891 
L 1522 -1509 
L 813 -1509 
L 813 4891 
L 1522 4891 
z
" transform="scale(0.015625)"/>
     <path id="DejaVuSans-Bold-43" d="M 4288 256 
Q 3956 84 3597 -3 
Q 3238 -91 2847 -91 
Q 1681 -91 1000 561 
Q 319 1213 319 2328 
Q 319 3447 1000 4098 
Q 1681 4750 2847 4750 
Q 3238 4750 3597 4662 
Q 3956 4575 4288 4403 
L 4288 3438 
Q 3953 3666 3628 3772 
Q 3303 3878 2944 3878 
Q 2300 3878 1931 3465 
Q 1563 3053 1563 2328 
Q 1563 1606 1931 1193 
Q 2300 781 2944 781 
Q 3303 781 3628 887 
Q 3953 994 4288 1222 
L 4288 256 
z
" transform="scale(0.015625)"/>
     <path id="DejaVuSans-Bold-4d" d="M 588 4666 
L 2119 4666 
L 3181 2169 
L 4250 4666 
L 5778 4666 
L 5778 0 
L 4641 0 
L 4641 3413 
L 3566 897 
L 2803 897 
L 1728 3413 
L 1728 0 
L 588 0 
L 588 4666 
z
" transform="scale(0.015625)"/>
     <path id="DejaVuSans-Bold-55" d="M 588 4666 
L 1791 4666 
L 1791 1869 
Q 1791 1291 1980 1042 
Q 2169 794 2597 794 
Q 3028 794 3217 1042 
Q 3406 1291 3406 1869 
L 3406 4666 
L 4609 4666 
L 4609 1869 
Q 4609 878 4112 393 
Q 3616 -91 2597 -91 
Q 1581 -91 1084 393 
Q 588 878 588 1869 
L 588 4666 
z
" transform="scale(0.015625)"/>
     <path id="DejaVuSans-Bold-4e" d="M 588 4666 
L 1931 4666 
L 3628 1466 
L 3628 4666 
L 4769 4666 
L 4769 0 
L 3425 0 
L 1728 3200 
L 1728 0 
L 588 0 
L 588 4666 
z
" transform="scale(0.015625)"/>
     <path id="DejaVuSans-Bold-74" d="M 1759 4494 
L 1759 3500 
L 2913 3500 
L 2913 2700 
L 1759 2700 
L 1759 1216 
Q 1759 972 1856 886 
Q 1953 800 2241 800 
L 2816 800 
L 2816 0 
L 1856 0 
Q 1194 0 917 276 
Q 641 553 641 1216 
L 641 2700 
L 84 2700 
L 84 3500 
L 641 3500 
L 641 4494 
L 1759 4494 
z
" transform="scale(0.015625)"/>
     <path id="DejaVuSans-Bold-28" d="M 2413 -844 
L 1484 -844 
Q 1006 -72 778 623 
Q 550 1319 550 2003 
Q 550 2688 779 3389 
Q 1009 4091 1484 4856 
L 2413 4856 
Q 2013 4116 1813 3408 
Q 1613 2700 1613 2009 
Q 1613 1319 1811 609 
Q 2009 -100 2413 -844 
z
" transform="scale(0.015625)"/>
     <path id="DejaVuSans-Bold-41" d="M 3419 850 
L 1538 850 
L 1241 0 
L 31 0 
L 1759 4666 
L 3194 4666 
L 4922 0 
L 3713 0 
L 3419 850 
z
M 1838 1716 
L 3116 1716 
L 2478 3572 
L 1838 1716 
z
" transform="scale(0.015625)"/>
     <path id="DejaVuSans-Bold-6c" d="M 538 4863 
L 1656 4863 
L 1656 0 
L 538 0 
L 538 4863 
z
" transform="scale(0.015625)"/>
     <path id="DejaVuSans-Bold-69" d="M 538 3500 
L 1656 3500 
L 1656 0 
L 538 0 
L 538 3500 
z
M 538 4863 
L 1656 4863 
L 1656 3950 
L 538 3950 
L 538 4863 
z
" transform="scale(0.015625)"/>
     <path id="DejaVuSans-Bold-6d" d="M 3781 2919 
Q 3994 3244 4286 3414 
Q 4578 3584 4928 3584 
Q 5531 3584 5847 3212 
Q 6163 2841 6163 2131 
L 6163 0 
L 5038 0 
L 5038 1825 
Q 5041 1866 5042 1909 
Q 5044 1953 5044 2034 
Q 5044 2406 4934 2573 
Q 4825 2741 4581 2741 
Q 4263 2741 4089 2478 
Q 3916 2216 3909 1719 
L 3909 0 
L 2784 0 
L 2784 1825 
Q 2784 2406 2684 2573 
Q 2584 2741 2328 2741 
Q 2006 2741 1831 2477 
Q 1656 2213 1656 1722 
L 1656 0 
L 531 0 
L 531 3500 
L 1656 3500 
L 1656 2988 
Q 1863 3284 2130 3434 
Q 2397 3584 2719 3584 
Q 3081 3584 3359 3409 
Q 3638 3234 3781 2919 
z
" transform="scale(0.015625)"/>
     <path id="DejaVuSans-Bold-2b" d="M 3053 4013 
L 3053 2375 
L 4684 2375 
L 4684 1638 
L 3053 1638 
L 3053 0 
L 2309 0 
L 2309 1638 
L 678 1638 
L 678 2375 
L 2309 2375 
L 2309 4013 
L 3053 4013 
z
" transform="scale(0.015625)"/>
     <path id="DejaVuSans-Bold-29" d="M 513 -844 
Q 913 -100 1113 609 
Q 1313 1319 1313 2009 
Q 1313 2700 1113 3408 
Q 913 4116 513 4856 
L 1441 4856 
Q 1916 4091 2145 3389 
Q 2375 2688 2375 2003 
Q 2375 1319 2147 623 
Q 1919 -72 1441 -844 
L 513 -844 
z
" transform="scale(0.015625)"/>
    </defs>
    <use xlink:href="#DejaVuSans-Bold-52"/>
    <use xlink:href="#DejaVuSans-Bold-65" transform="translate(77.001953 0)"/>
    <use xlink:href="#DejaVuSans-Bold-77" transform="translate(144.824219 0)"/>
    <use xlink:href="#DejaVuSans-Bold-61" transform="translate(237.207031 0)"/>
    <use xlink:href="#DejaVuSans-Bold-72" transform="translate(304.6875 0)"/>
    <use xlink:href="#DejaVuSans-Bold-64" transform="translate(354.003906 0)"/>
    <use xlink:href="#DejaVuSans-Bold-73" transform="translate(425.585938 0)"/>
    <use xlink:href="#DejaVuSans-Bold-3a" transform="translate(485.107422 0)"/>
    <use xlink:href="#DejaVuSans-Bold-20" transform="translate(525.097656 0)"/>
    <use xlink:href="#DejaVuSans-Bold-50" transform="translate(559.912109 0)"/>
    <use xlink:href="#DejaVuSans-Bold-6f" transform="translate(633.203125 0)"/>
    <use xlink:href="#DejaVuSans-Bold-6e" transform="translate(701.904297 0)"/>
    <use xlink:href="#DejaVuSans-Bold-67" transform="translate(773.095703 0)"/>
    <use xlink:href="#DejaVuSans-Bold-2d" transform="translate(844.677734 0)"/>
    <use xlink:href="#DejaVuSans-Bold-76" transform="translate(886.181641 0)"/>
    <use xlink:href="#DejaVuSans-Bold-35" transform="translate(951.367188 0)"/>
    <use xlink:href="#DejaVuSans-Bold-20" transform="translate(1020.947266 0)"/>
    <use xlink:href="#DejaVuSans-Bold-7c" transform="translate(1055.761719 0)"/>
    <use xlink:href="#DejaVuSans-Bold-20" transform="translate(1092.285156 0)"/>
    <use xlink:href="#DejaVuSans-Bold-43" transform="translate(1127.099609 0)"/>
    <use xlink:href="#DejaVuSans-Bold-4d" transform="translate(1200.488281 0)"/>
    <use xlink:href="#DejaVuSans-Bold-55" transform="translate(1300 0)"/>
    <use xlink:href="#DejaVuSans-Bold-2d" transform="translate(1381.201172 0)"/>
    <use xlink:href="#DejaVuSans-Bold-4e" transform="translate(1422.705078 0)"/>
    <use xlink:href="#DejaVuSans-Bold-65" transform="translate(1506.396484 0)"/>
    <use xlink:href="#DejaVuSans-Bold-74" transform="translate(1574.21875 0)"/>
    <use xlink:href="#DejaVuSans-Bold-20" transform="translate(1622.021484 0)"/>
    <use xlink:href="#DejaVuSans-Bold-28" transform="translate(1656.835938 0)"/>
    <use xlink:href="#DejaVuSans-Bold-41" transform="translate(1702.539062 0)"/>
    <use xlink:href="#DejaVuSans-Bold-6c" transform="translate(1779.931641 0)"/>
    <use xlink:href="#DejaVuSans-Bold-69" transform="translate(1814.208984 0)"/>
    <use xlink:href="#DejaVuSans-Bold-67" transform="translate(1848.486328 0)"/>
    <use xlink:href="#DejaVuSans-Bold-6e" transform="translate(1920.068359 0)"/>
    <use xlink:href="#DejaVuSans-Bold-6d" transform="translate(1991.259766 0)"/>
    <use xlink:href="#DejaVuSans-Bold-65" transform="translate(2095.458984 0)"/>
    <use xlink:href="#DejaVuSans-Bold-6e" transform="translate(2163.28125 0)"/>
    <use xlink:href="#DejaVuSans-Bold-74" transform="translate(2234.472656 0)"/>
    <use xlink:href="#DejaVuSans-Bold-20" transform="translate(2282.275391 0)"/>
    <use xlink:href="#DejaVuSans-Bold-2b" transform="translate(2317.089844 0)"/>
    <use xlink:href="#DejaVuSans-Bold-20" transform="translate(2400.878906 0)"/>
    <use xlink:href="#DejaVuSans-Bold-4d" transform="translate(2435.693359 0)"/>
    <use xlink:href="#DejaVuSans-Bold-61" transform="translate(2535.205078 0)"/>
    <use xlink:href="#DejaVuSans-Bold-72" transform="translate(2602.685547 0)"/>
    <use xlink:href="#DejaVuSans-Bold-67" transform="translate(2652.001953 0)"/>
    <use xlink:href="#DejaVuSans-Bold-69" transform="translate(2723.583984 0)"/>
    <use xlink:href="#DejaVuSans-Bold-6e" transform="translate(2757.861328 0)"/>
    <use xlink:href="#DejaVuSans-Bold-29" transform="translate(2829.052734 0)"/>
   </g>
  </g>
 </g>
 <defs>
  <clipPath id="p21e96e3e53">
   <rect x="53.03" y="57.0062" width="579.175" height="333.0338"/>
  </clipPath>
 </defs>
</svg>
