<?xml version="1.0" encoding="utf-8" standalone="no"?>
<!DOCTYPE svg PUBLIC "-//W3C//DTD SVG 1.1//EN"
  "http://www.w3.org/Graphics/SVG/1.1/DTD/svg11.dtd">
<svg xmlns:xlink="http://www.w3.org/1999/xlink" width="648pt" height="432pt" viewBox="0 0 648 432" xmlns="http://www.w3.org/2000/svg" version="1.1">
 <metadata>
  <rdf:RDF xmlns:dc="http://purl.org/dc/elements/1.1/" xmlns:cc="http://creativecommons.org/ns#" xmlns:rdf="http://www.w3.org/1999/02/22-rdf-syntax-ns#">
   <cc:Work>
    <dc:type rdf:resource="http://purl.org/dc/dcmitype/StillImage"/>
    <dc:date>2025-07-31T05:18:35.487604</dc:date>
    <dc:format>image/svg+xml</dc:format>
    <dc:creator>
     <cc:Agent>
      <dc:title>Matplotlib v3.10.0, https://matplotlib.org/</dc:title>
     </cc:Agent>
    </dc:creator>
   </cc:Work>
  </rdf:RDF>
 </metadata>
 <defs>
  <style type="text/css">*{stroke-linejoin: round; stroke-linecap: butt}</style>
 </defs>
 <g id="figure_1">
  <g id="patch_1">
   <path d="M 0 432 
L 648 432 
L 648 0 
L 0 0 
z
" style="fill: #ffffff"/>
  </g>
  <g id="axes_1">
   <g id="patch_2">
    <path d="M 56.23 400.52 
L 623.801429 400.52 
L 623.801429 39.6 
L 56.23 39.6 
z
" style="fill: #eaeaf2"/>
   </g>
   <g id="matplotlib.axis_1">
    <g id="xtick_1">
     <g id="line2d_1">
      <path d="M 67.06841 400.52 
L 67.06841 39.6 
" clip-path="url(#p37f5cfac9d)" style="fill: none; stroke: #ffffff; stroke-width: 0.8; stroke-linecap: round"/>
     </g>
     <g id="text_1">
      <!-- 0 -->
      <g style="fill: #262626" transform="translate(62.61466 418.157812) scale(0.14 -0.14)">
       <defs>
        <path id="DejaVuSans-30" d="M 2034 4250 
Q 1547 4250 1301 3770 
Q 1056 3291 1056 2328 
Q 1056 1369 1301 889 
Q 1547 409 2034 409 
Q 2525 409 2770 889 
Q 3016 1369 3016 2328 
Q 3016 3291 2770 3770 
Q 2525 4250 2034 4250 
z
M 2034 4750 
Q 2819 4750 3233 4129 
Q 3647 3509 3647 2328 
Q 3647 1150 3233 529 
Q 2819 -91 2034 -91 
Q 1250 -91 836 529 
Q 422 1150 422 2328 
Q 422 3509 836 4129 
Q 1250 4750 2034 4750 
z
" transform="scale(0.015625)"/>
       </defs>
       <use xlink:href="#DejaVuSans-30"/>
      </g>
     </g>
    </g>
    <g id="xtick_2">
     <g id="line2d_2">
      <path d="M 608.988935 400.52 
L 608.988935 39.6 
" clip-path="url(#p37f5cfac9d)" style="fill: none; stroke: #ffffff; stroke-width: 0.8; stroke-linecap: round"/>
     </g>
     <g id="text_2">
      <!-- 600000 -->
      <g style="fill: #262626" transform="translate(582.266435 418.157812) scale(0.14 -0.14)">
       <defs>
        <path id="DejaVuSans-36" d="M 2113 2584 
Q 1688 2584 1439 2293 
Q 1191 2003 1191 1497 
Q 1191 994 1439 701 
Q 1688 409 2113 409 
Q 2538 409 2786 701 
Q 3034 994 3034 1497 
Q 3034 2003 2786 2293 
Q 2538 2584 2113 2584 
z
M 3366 4563 
L 3366 3988 
Q 3128 4100 2886 4159 
Q 2644 4219 2406 4219 
Q 1781 4219 1451 3797 
Q 1122 3375 1075 2522 
Q 1259 2794 1537 2939 
Q 1816 3084 2150 3084 
Q 2853 3084 3261 2657 
Q 3669 2231 3669 1497 
Q 3669 778 3244 343 
Q 2819 -91 2113 -91 
Q 1303 -91 875 529 
Q 447 1150 447 2328 
Q 447 3434 972 4092 
Q 1497 4750 2381 4750 
Q 2619 4750 2861 4703 
Q 3103 4656 3366 4563 
z
" transform="scale(0.015625)"/>
       </defs>
       <use xlink:href="#DejaVuSans-36"/>
       <use xlink:href="#DejaVuSans-30" transform="translate(63.623047 0)"/>
       <use xlink:href="#DejaVuSans-30" transform="translate(127.246094 0)"/>
       <use xlink:href="#DejaVuSans-30" transform="translate(190.869141 0)"/>
       <use xlink:href="#DejaVuSans-30" transform="translate(254.492188 0)"/>
       <use xlink:href="#DejaVuSans-30" transform="translate(318.115234 0)"/>
      </g>
     </g>
    </g>
   </g>
   <g id="matplotlib.axis_2">
    <g id="ytick_1">
     <g id="line2d_3">
      <path d="M 56.23 390.305283 
L 623.801429 390.305283 
" clip-path="url(#p37f5cfac9d)" style="fill: none; stroke: #ffffff; stroke-width: 0.8; stroke-linecap: round"/>
     </g>
     <g id="text_3">
      <!-- −500 -->
      <g style="fill: #262626" transform="translate(10.775938 395.624189) scale(0.14 -0.14)">
       <defs>
        <path id="DejaVuSans-2212" d="M 678 2272 
L 4684 2272 
L 4684 1741 
L 678 1741 
L 678 2272 
z
" transform="scale(0.015625)"/>
        <path id="DejaVuSans-35" d="M 691 4666 
L 3169 4666 
L 3169 4134 
L 1269 4134 
L 1269 2991 
Q 1406 3038 1543 3061 
Q 1681 3084 1819 3084 
Q 2600 3084 3056 2656 
Q 3513 2228 3513 1497 
Q 3513 744 3044 326 
Q 2575 -91 1722 -91 
Q 1428 -91 1123 -41 
Q 819 9 494 109 
L 494 744 
Q 775 591 1075 516 
Q 1375 441 1709 441 
Q 2250 441 2565 725 
Q 2881 1009 2881 1497 
Q 2881 1984 2565 2268 
Q 2250 2553 1709 2553 
Q 1456 2553 1204 2497 
Q 953 2441 691 2322 
L 691 4666 
z
" transform="scale(0.015625)"/>
       </defs>
       <use xlink:href="#DejaVuSans-2212"/>
       <use xlink:href="#DejaVuSans-35" transform="translate(83.789062 0)"/>
       <use xlink:href="#DejaVuSans-30" transform="translate(147.412109 0)"/>
       <use xlink:href="#DejaVuSans-30" transform="translate(211.035156 0)"/>
      </g>
     </g>
    </g>
    <g id="ytick_2">
     <g id="line2d_4">
      <path d="M 56.23 322.20717 
L 623.801429 322.20717 
" clip-path="url(#p37f5cfac9d)" style="fill: none; stroke: #ffffff; stroke-width: 0.8; stroke-linecap: round"/>
     </g>
     <g id="text_4">
      <!-- −400 -->
      <g style="fill: #262626" transform="translate(10.775938 327.526076) scale(0.14 -0.14)">
       <defs>
        <path id="DejaVuSans-34" d="M 2419 4116 
L 825 1625 
L 2419 1625 
L 2419 4116 
z
M 2253 4666 
L 3047 4666 
L 3047 1625 
L 3713 1625 
L 3713 1100 
L 3047 1100 
L 3047 0 
L 2419 0 
L 2419 1100 
L 313 1100 
L 313 1709 
L 2253 4666 
z
" transform="scale(0.015625)"/>
       </defs>
       <use xlink:href="#DejaVuSans-2212"/>
       <use xlink:href="#DejaVuSans-34" transform="translate(83.789062 0)"/>
       <use xlink:href="#DejaVuSans-30" transform="translate(147.412109 0)"/>
       <use xlink:href="#DejaVuSans-30" transform="translate(211.035156 0)"/>
      </g>
     </g>
    </g>
    <g id="ytick_3">
     <g id="line2d_5">
      <path d="M 56.23 254.109057 
L 623.801429 254.109057 
" clip-path="url(#p37f5cfac9d)" style="fill: none; stroke: #ffffff; stroke-width: 0.8; stroke-linecap: round"/>
     </g>
     <g id="text_5">
      <!-- −300 -->
      <g style="fill: #262626" transform="translate(10.775938 259.427963) scale(0.14 -0.14)">
       <defs>
        <path id="DejaVuSans-33" d="M 2597 2516 
Q 3050 2419 3304 2112 
Q 3559 1806 3559 1356 
Q 3559 666 3084 287 
Q 2609 -91 1734 -91 
Q 1441 -91 1130 -33 
Q 819 25 488 141 
L 488 750 
Q 750 597 1062 519 
Q 1375 441 1716 441 
Q 2309 441 2620 675 
Q 2931 909 2931 1356 
Q 2931 1769 2642 2001 
Q 2353 2234 1838 2234 
L 1294 2234 
L 1294 2753 
L 1863 2753 
Q 2328 2753 2575 2939 
Q 2822 3125 2822 3475 
Q 2822 3834 2567 4026 
Q 2313 4219 1838 4219 
Q 1578 4219 1281 4162 
Q 984 4106 628 3988 
L 628 4550 
Q 988 4650 1302 4700 
Q 1616 4750 1894 4750 
Q 2613 4750 3031 4423 
Q 3450 4097 3450 3541 
Q 3450 3153 3228 2886 
Q 3006 2619 2597 2516 
z
" transform="scale(0.015625)"/>
       </defs>
       <use xlink:href="#DejaVuSans-2212"/>
       <use xlink:href="#DejaVuSans-33" transform="translate(83.789062 0)"/>
       <use xlink:href="#DejaVuSans-30" transform="translate(147.412109 0)"/>
       <use xlink:href="#DejaVuSans-30" transform="translate(211.035156 0)"/>
      </g>
     </g>
    </g>
    <g id="ytick_4">
     <g id="line2d_6">
      <path d="M 56.23 186.010943 
L 623.801429 186.010943 
" clip-path="url(#p37f5cfac9d)" style="fill: none; stroke: #ffffff; stroke-width: 0.8; stroke-linecap: round"/>
     </g>
     <g id="text_6">
      <!-- −200 -->
      <g style="fill: #262626" transform="translate(10.775938 191.32985) scale(0.14 -0.14)">
       <defs>
        <path id="DejaVuSans-32" d="M 1228 531 
L 3431 531 
L 3431 0 
L 469 0 
L 469 531 
Q 828 903 1448 1529 
Q 2069 2156 2228 2338 
Q 2531 2678 2651 2914 
Q 2772 3150 2772 3378 
Q 2772 3750 2511 3984 
Q 2250 4219 1831 4219 
Q 1534 4219 1204 4116 
Q 875 4013 500 3803 
L 500 4441 
Q 881 4594 1212 4672 
Q 1544 4750 1819 4750 
Q 2544 4750 2975 4387 
Q 3406 4025 3406 3419 
Q 3406 3131 3298 2873 
Q 3191 2616 2906 2266 
Q 2828 2175 2409 1742 
Q 1991 1309 1228 531 
z
" transform="scale(0.015625)"/>
       </defs>
       <use xlink:href="#DejaVuSans-2212"/>
       <use xlink:href="#DejaVuSans-32" transform="translate(83.789062 0)"/>
       <use xlink:href="#DejaVuSans-30" transform="translate(147.412109 0)"/>
       <use xlink:href="#DejaVuSans-30" transform="translate(211.035156 0)"/>
      </g>
     </g>
    </g>
    <g id="ytick_5">
     <g id="line2d_7">
      <path d="M 56.23 117.91283 
L 623.801429 117.91283 
" clip-path="url(#p37f5cfac9d)" style="fill: none; stroke: #ffffff; stroke-width: 0.8; stroke-linecap: round"/>
     </g>
     <g id="text_7">
      <!-- −100 -->
      <g style="fill: #262626" transform="translate(10.775938 123.231736) scale(0.14 -0.14)">
       <defs>
        <path id="DejaVuSans-31" d="M 794 531 
L 1825 531 
L 1825 4091 
L 703 3866 
L 703 4441 
L 1819 4666 
L 2450 4666 
L 2450 531 
L 3481 531 
L 3481 0 
L 794 0 
L 794 531 
z
" transform="scale(0.015625)"/>
       </defs>
       <use xlink:href="#DejaVuSans-2212"/>
       <use xlink:href="#DejaVuSans-31" transform="translate(83.789062 0)"/>
       <use xlink:href="#DejaVuSans-30" transform="translate(147.412109 0)"/>
       <use xlink:href="#DejaVuSans-30" transform="translate(211.035156 0)"/>
      </g>
     </g>
    </g>
    <g id="ytick_6">
     <g id="line2d_8">
      <path d="M 56.23 49.814717 
L 623.801429 49.814717 
" clip-path="url(#p37f5cfac9d)" style="fill: none; stroke: #ffffff; stroke-width: 0.8; stroke-linecap: round"/>
     </g>
     <g id="text_8">
      <!-- 0 -->
      <g style="fill: #262626" transform="translate(40.3225 55.133623) scale(0.14 -0.14)">
       <use xlink:href="#DejaVuSans-30"/>
      </g>
     </g>
    </g>
   </g>
   <g id="FillBetweenPolyCollection_1">
    <path d="M 67.06841 349.119339 
L 67.06841 390.870703 
L 72.617677 382.392599 
L 78.166943 377.327603 
L 83.716209 356.993453 
L 89.265475 379.406217 
L 94.814741 386.752266 
L 100.364007 379.284569 
L 105.913274 385.887801 
L 111.46254 398.350477 
L 117.011806 381.404347 
L 122.561072 393.674755 
L 128.110338 377.320574 
L 133.659604 380.736019 
L 139.208871 382.312969 
L 144.758137 368.096722 
L 150.307403 362.199299 
L 155.856669 344.824519 
L 161.405935 339.022091 
L 166.955202 321.813932 
L 172.504468 309.422929 
L 178.053734 326.324299 
L 183.603 303.333413 
L 189.152266 303.659884 
L 194.701532 291.832622 
L 200.250799 290.05953 
L 205.800065 282.505649 
L 211.349331 280.56476 
L 216.898597 267.899957 
L 222.447863 277.009298 
L 227.997129 267.002583 
L 233.546396 223.487199 
L 239.095662 227.870249 
L 244.644928 182.570432 
L 250.194194 181.866084 
L 255.74346 176.107257 
L 261.292726 182.048598 
L 266.841993 183.366675 
L 272.391259 166.252906 
L 277.940525 150.814787 
L 283.489791 156.082478 
L 289.039057 136.648405 
L 294.588323 142.902417 
L 300.13759 125.451224 
L 305.686856 129.863955 
L 311.236122 117.509121 
L 316.785388 121.496312 
L 322.334654 116.284791 
L 327.88392 117.51718 
L 333.433187 115.719158 
L 338.982453 115.797819 
L 344.531719 111.897461 
L 350.080985 109.619073 
L 355.630251 113.746993 
L 361.179517 120.409246 
L 366.728784 116.951552 
L 372.27805 121.210055 
L 377.827316 110.620952 
L 383.376582 109.606404 
L 388.925848 113.481542 
L 394.475114 114.92542 
L 400.024381 110.673062 
L 405.573647 113.614519 
L 411.122913 105.167867 
L 416.672179 115.74253 
L 422.221445 108.980407 
L 427.770711 106.472422 
L 433.319978 104.495199 
L 438.869244 128.209285 
L 444.41851 112.814954 
L 449.967776 112.21654 
L 455.517042 109.75618 
L 461.066308 115.084499 
L 466.615575 116.81988 
L 472.164841 107.036595 
L 477.714107 109.488765 
L 483.263373 112.341361 
L 488.812639 110.116172 
L 494.361905 114.34187 
L 499.911172 109.790556 
L 505.460438 109.193805 
L 511.009704 112.092454 
L 516.55897 116.852752 
L 522.108236 114.260358 
L 527.657502 114.383702 
L 533.206769 112.090464 
L 538.756035 119.254378 
L 544.305301 114.004178 
L 549.854567 107.298236 
L 555.403833 117.567077 
L 560.953099 111.642449 
L 566.502366 107.602436 
L 572.051632 112.045564 
L 577.600898 106.415146 
L 583.150164 107.879948 
L 588.69943 113.148212 
L 594.248696 109.579074 
L 599.797963 109.5813 
L 605.347229 110.571477 
L 610.896495 114.906916 
L 616.445761 110.736113 
L 616.445761 102.072385 
L 616.445761 102.072385 
L 610.896495 99.876427 
L 605.347229 100.534568 
L 599.797963 100.230881 
L 594.248696 99.994764 
L 588.69943 101.294641 
L 583.150164 100.365976 
L 577.600898 100.366669 
L 572.051632 103.759252 
L 566.502366 100.473243 
L 560.953099 103.583533 
L 555.403833 102.425772 
L 549.854567 101.832964 
L 544.305301 103.298795 
L 538.756035 96.175898 
L 533.206769 99.049631 
L 527.657502 98.322649 
L 522.108236 103.553351 
L 516.55897 105.727825 
L 511.009704 102.009908 
L 505.460438 101.912241 
L 499.911172 101.690029 
L 494.361905 105.208341 
L 488.812639 101.057971 
L 483.263373 98.662537 
L 477.714107 102.230164 
L 472.164841 101.20933 
L 466.615575 103.275116 
L 461.066308 104.057124 
L 455.517042 102.745877 
L 449.967776 106.686739 
L 444.41851 100.334035 
L 438.869244 99.955338 
L 433.319978 101.980174 
L 427.770711 102.624728 
L 422.221445 102.704472 
L 416.672179 96.453085 
L 411.122913 97.970699 
L 405.573647 104.709926 
L 400.024381 102.203534 
L 394.475114 104.829085 
L 388.925848 105.932473 
L 383.376582 103.031849 
L 377.827316 99.90626 
L 372.27805 104.298741 
L 366.728784 104.675651 
L 361.179517 101.217958 
L 355.630251 101.581136 
L 350.080985 102.406297 
L 344.531719 102.817784 
L 338.982453 106.237974 
L 333.433187 100.596393 
L 327.88392 106.527507 
L 322.334654 100.950085 
L 316.785388 105.136103 
L 311.236122 100.576981 
L 305.686856 99.083796 
L 300.13759 102.917693 
L 294.588323 93.808519 
L 289.039057 94.887074 
L 283.489791 91.966794 
L 277.940525 91.343998 
L 272.391259 88.912619 
L 266.841993 76.804061 
L 261.292726 85.204342 
L 255.74346 85.084951 
L 250.194194 84.671825 
L 244.644928 85.397538 
L 239.095662 80.20751 
L 233.546396 72.809586 
L 227.997129 56.601546 
L 222.447863 52.962004 
L 216.898597 60.981775 
L 211.349331 59.893651 
L 205.800065 61.28957 
L 200.250799 80.736591 
L 194.701532 85.500918 
L 189.152266 84.194815 
L 183.603 91.331097 
L 178.053734 105.964418 
L 172.504468 93.277158 
L 166.955202 111.428159 
L 161.405935 118.360781 
L 155.856669 115.92921 
L 150.307403 135.055018 
L 144.758137 148.429361 
L 139.208871 151.373838 
L 133.659604 146.583615 
L 128.110338 148.024215 
L 122.561072 155.708668 
L 117.011806 154.087061 
L 111.46254 156.378648 
L 105.913274 157.877527 
L 100.364007 158.590272 
L 94.814741 173.458757 
L 89.265475 189.895903 
L 83.716209 161.235083 
L 78.166943 202.768069 
L 72.617677 271.180937 
L 67.06841 349.119339 
z
" clip-path="url(#p37f5cfac9d)" style="fill: #0000ff; fill-opacity: 0.1"/>
   </g>
   <g id="line2d_9">
    <path d="M 67.06841 369.995021 
L 72.617677 326.786768 
L 78.166943 290.047836 
L 83.716209 259.114268 
L 89.265475 284.65106 
L 94.814741 280.105511 
L 100.364007 268.937421 
L 105.913274 271.882664 
L 111.46254 277.364562 
L 117.011806 267.745704 
L 122.561072 274.691711 
L 128.110338 262.672394 
L 133.659604 263.659817 
L 139.208871 266.843404 
L 144.758137 258.263042 
L 150.307403 248.627158 
L 155.856669 230.376864 
L 161.405935 228.691436 
L 166.955202 216.621045 
L 172.504468 201.350043 
L 178.053734 216.144358 
L 183.603 197.332255 
L 189.152266 193.927349 
L 194.701532 188.66677 
L 200.250799 185.39806 
L 205.800065 171.897609 
L 211.349331 170.229206 
L 216.898597 164.440866 
L 222.447863 164.985651 
L 227.997129 161.802064 
L 233.546396 148.148392 
L 239.095662 154.038879 
L 244.644928 133.983985 
L 250.194194 133.268955 
L 255.74346 130.596104 
L 261.292726 133.62647 
L 266.841993 130.085368 
L 272.391259 127.582762 
L 277.940525 121.079392 
L 283.489791 124.024636 
L 289.039057 115.76774 
L 294.588323 118.355468 
L 300.13759 114.184458 
L 305.686856 114.473875 
L 311.236122 109.043051 
L 316.785388 113.316208 
L 322.334654 108.617438 
L 327.88392 112.022343 
L 333.433187 108.157775 
L 338.982453 111.017896 
L 344.531719 107.357623 
L 350.080985 106.012685 
L 355.630251 107.664064 
L 361.179517 110.813602 
L 366.728784 110.813602 
L 372.27805 112.754398 
L 377.827316 105.263606 
L 383.376582 106.319126 
L 388.925848 109.707008 
L 394.475114 109.877253 
L 400.024381 106.438298 
L 405.573647 109.162223 
L 411.122913 101.569283 
L 416.672179 106.097808 
L 422.221445 105.84244 
L 427.770711 104.548575 
L 433.319978 103.237687 
L 438.869244 114.082311 
L 444.41851 106.574494 
L 449.967776 109.45164 
L 455.517042 106.251028 
L 461.066308 109.570811 
L 466.615575 110.047498 
L 472.164841 104.122962 
L 477.714107 105.859464 
L 483.263373 105.501949 
L 488.812639 105.587072 
L 494.361905 109.775106 
L 499.911172 105.740292 
L 505.460438 105.553023 
L 511.009704 107.051181 
L 516.55897 111.290289 
L 522.108236 108.906855 
L 527.657502 106.353175 
L 533.206769 105.570047 
L 538.756035 107.715138 
L 544.305301 108.651487 
L 549.854567 104.5656 
L 555.403833 109.996425 
L 560.953099 107.612991 
L 566.502366 104.03784 
L 572.051632 107.902408 
L 577.600898 103.390908 
L 583.150164 104.122962 
L 588.69943 107.221426 
L 594.248696 104.786919 
L 599.797963 104.906091 
L 605.347229 105.553023 
L 610.896495 107.391672 
L 616.445761 106.404249 
" clip-path="url(#p37f5cfac9d)" style="fill: none; stroke: #0000ff; stroke-width: 2; stroke-linecap: round"/>
   </g>
   <g id="line2d_10">
    <path d="M 67.06841 374.812962 
L 72.617677 375.153453 
L 78.166943 374.642717 
L 83.716209 362.385057 
L 89.265475 390.305283 
L 94.814741 385.964028 
L 100.364007 377.281519 
L 105.913274 370.471708 
L 111.46254 390.305283 
L 117.011806 390.305283 
L 122.561072 390.305283 
L 128.110338 390.305283 
L 133.659604 390.305283 
L 139.208871 390.305283 
L 144.758137 373.706368 
L 150.307403 367.492415 
L 155.856669 344.509302 
L 161.405935 329.357472 
L 166.955202 282.369774 
L 172.504468 252.91734 
L 178.053734 301.692613 
L 183.603 233.934991 
L 189.152266 238.786981 
L 194.701532 180.392849 
L 200.250799 175.540858 
L 205.800065 151.11066 
L 211.349331 128.893651 
L 216.898597 131.277085 
L 222.447863 119.104547 
L 227.997129 114.422802 
L 233.546396 110.50716 
L 239.095662 111.103019 
L 244.644928 116.040132 
L 250.194194 107.783236 
L 255.74346 107.2725 
L 261.292726 114.507925 
L 266.841993 107.017132 
L 272.391259 110.677406 
L 277.940525 103.527104 
L 283.489791 105.144434 
L 289.039057 103.952717 
L 294.588323 111.443509 
L 300.13759 109.315443 
L 305.686856 105.144434 
L 311.236122 102.080019 
L 316.785388 113.656698 
L 322.334654 99.781708 
L 327.88392 113.06084 
L 333.433187 106.932009 
L 338.982453 108.293972 
L 344.531719 103.441981 
L 350.080985 102.420509 
L 355.630251 112.635226 
L 361.179517 125.999481 
L 366.728784 106.591519 
L 372.27805 114.763292 
L 377.827316 104.208085 
L 383.376582 104.122962 
L 388.925848 106.932009 
L 394.475114 105.229557 
L 400.024381 110.762528 
L 405.573647 103.952717 
L 411.122913 101.14367 
L 416.672179 98.419745 
L 422.221445 100.292443 
L 427.770711 108.123726 
L 433.319978 102.250264 
L 438.869244 104.718821 
L 444.41851 102.761 
L 449.967776 112.464981 
L 455.517042 112.635226 
L 461.066308 111.869123 
L 466.615575 111.613755 
L 472.164841 105.825415 
L 477.714107 109.741057 
L 483.263373 99.100726 
L 488.812639 102.420509 
L 494.361905 103.186613 
L 499.911172 104.463453 
L 505.460438 104.208085 
L 511.009704 107.017132 
L 516.55897 114.507925 
L 522.108236 107.017132 
L 527.657502 104.463453 
L 533.206769 100.547811 
L 538.756035 107.698113 
L 544.305301 105.314679 
L 549.854567 108.464217 
L 555.403833 101.48416 
L 560.953099 111.954245 
L 566.502366 100.547811 
L 572.051632 101.654406 
L 577.600898 102.846123 
L 583.150164 100.292443 
L 588.69943 106.421274 
L 594.248696 107.357623 
L 599.797963 102.420509 
L 605.347229 101.14367 
L 610.896495 101.228792 
L 616.445761 102.420509 
" clip-path="url(#p37f5cfac9d)" style="fill: none; stroke: #008000; stroke-opacity: 0.27; stroke-width: 1.25; stroke-linecap: round"/>
   </g>
   <g id="line2d_11">
    <path d="M 67.06841 335.060689 
L 72.617677 240.829925 
L 78.166943 170.263255 
L 83.716209 151.280906 
L 89.265475 181.669689 
L 94.814741 137.320792 
L 100.364007 118.083075 
L 105.913274 115.01866 
L 111.46254 116.040132 
L 117.011806 123.70117 
L 122.561072 115.869887 
L 128.110338 112.039368 
L 133.659604 120.040896 
L 139.208871 108.804708 
L 144.758137 114.422802 
L 150.307403 107.953481 
L 155.856669 110.592283 
L 161.405935 110.422038 
L 166.955202 108.293972 
L 172.504468 100.547811 
L 178.053734 111.188142 
L 183.603 116.210377 
L 189.152266 104.122962 
L 194.701532 126.425094 
L 200.250799 120.977245 
L 205.800065 103.441981 
L 211.349331 104.03784 
L 216.898597 107.2725 
L 222.447863 108.123726 
L 227.997129 109.060075 
L 233.546396 110.847651 
L 239.095662 108.208849 
L 244.644928 110.081547 
L 250.194194 112.464981 
L 255.74346 104.293208 
L 261.292726 107.698113 
L 266.841993 103.356858 
L 272.391259 106.165906 
L 277.940525 104.208085 
L 283.489791 106.421274 
L 289.039057 106.165906 
L 294.588323 99.52634 
L 300.13759 106.506396 
L 305.686856 114.67817 
L 311.236122 100.037075 
L 316.785388 116.635991 
L 322.334654 103.016368 
L 327.88392 113.316208 
L 333.433187 97.398274 
L 338.982453 103.271736 
L 344.531719 103.697349 
L 350.080985 105.910538 
L 355.630251 105.059311 
L 361.179517 100.547811 
L 366.728784 115.955009 
L 372.27805 101.14367 
L 377.827316 100.037075 
L 383.376582 102.250264 
L 388.925848 113.231085 
L 394.475114 109.741057 
L 400.024381 112.294736 
L 405.573647 109.400566 
L 411.122913 96.036311 
L 416.672179 100.973425 
L 422.221445 109.145198 
L 427.770711 104.974189 
L 433.319978 102.250264 
L 438.869244 141.576925 
L 444.41851 101.994896 
L 449.967776 105.484925 
L 455.517042 106.251028 
L 461.066308 107.187377 
L 466.615575 109.400566 
L 472.164841 108.974953 
L 477.714107 100.122198 
L 483.263373 117.997953 
L 488.812639 100.122198 
L 494.361905 112.379858 
L 499.911172 104.122962 
L 505.460438 112.464981 
L 511.009704 104.633698 
L 516.55897 112.379858 
L 522.108236 118.764057 
L 527.657502 101.909774 
L 533.206769 99.015604 
L 538.756035 98.419745 
L 544.305301 106.336151 
L 549.854567 100.632934 
L 555.403833 104.718821 
L 560.953099 111.954245 
L 566.502366 100.377566 
L 572.051632 105.229557 
L 577.600898 107.698113 
L 583.150164 104.889066 
L 588.69943 105.740292 
L 594.248696 102.165142 
L 599.797963 101.994896 
L 605.347229 114.763292 
L 610.896495 101.994896 
L 616.445761 107.017132 
" clip-path="url(#p37f5cfac9d)" style="fill: none; stroke: #008000; stroke-opacity: 0.27; stroke-width: 1.25; stroke-linecap: round"/>
   </g>
   <g id="line2d_12">
    <path d="M 67.06841 390.305283 
L 72.617677 339.912679 
L 78.166943 304.50166 
L 83.716209 209.589915 
L 89.265475 285.689557 
L 94.814741 315.737849 
L 100.364007 294.882802 
L 105.913274 327.910387 
L 111.46254 343.998566 
L 117.011806 283.135877 
L 122.561072 328.506245 
L 128.110338 260.237887 
L 133.659604 278.879745 
L 139.208871 282.625142 
L 144.758137 248.235594 
L 150.307403 229.423491 
L 155.856669 171.114481 
L 161.405935 167.964943 
L 166.955202 167.028594 
L 172.504468 139.023245 
L 178.053734 144.130604 
L 183.603 121.913594 
L 189.152266 125.233377 
L 194.701532 126.169726 
L 200.250799 121.487981 
L 205.800065 109.400566 
L 211.349331 116.465745 
L 216.898597 108.719585 
L 222.447863 103.612226 
L 227.997129 109.911302 
L 233.546396 105.740292 
L 239.095662 109.911302 
L 244.644928 102.675877 
L 250.194194 109.996425 
L 255.74346 108.634462 
L 261.292726 105.229557 
L 266.841993 102.505632 
L 272.391259 110.251792 
L 277.940525 113.06084 
L 283.489791 114.422802 
L 289.039057 104.974189 
L 294.588323 109.145198 
L 300.13759 101.48416 
L 305.686856 103.952717 
L 311.236122 105.399802 
L 316.785388 108.038604 
L 322.334654 105.65517 
L 327.88392 111.103019 
L 333.433187 113.316208 
L 338.982453 116.891358 
L 344.531719 108.464217 
L 350.080985 105.229557 
L 355.630251 100.547811 
L 361.179517 105.740292 
L 366.728784 105.399802 
L 372.27805 108.038604 
L 377.827316 114.848415 
L 383.376582 109.996425 
L 388.925848 114.763292 
L 394.475114 117.061604 
L 400.024381 104.208085 
L 405.573647 117.061604 
L 411.122913 104.208085 
L 416.672179 101.48416 
L 422.221445 108.208849 
L 427.770711 103.356858 
L 433.319978 103.101491 
L 438.869244 111.017896 
L 444.41851 118.678934 
L 449.967776 110.847651 
L 455.517042 106.251028 
L 461.066308 119.274792 
L 466.615575 121.828472 
L 472.164841 102.590755 
L 477.714107 108.88983 
L 483.263373 99.52634 
L 488.812639 103.441981 
L 494.361905 106.251028 
L 499.911172 113.316208 
L 505.460438 105.229557 
L 511.009704 116.210377 
L 516.55897 101.058547 
L 522.108236 102.590755 
L 527.657502 122.254085 
L 533.206769 103.697349 
L 538.756035 102.590755 
L 544.305301 114.763292 
L 549.854567 103.356858 
L 555.403833 123.275557 
L 560.953099 103.186613 
L 566.502366 103.952717 
L 572.051632 113.316208 
L 577.600898 101.228792 
L 583.150164 105.910538 
L 588.69943 118.338443 
L 594.248696 98.930481 
L 599.797963 104.974189 
L 605.347229 103.782472 
L 610.896495 110.932774 
L 616.445761 106.165906 
" clip-path="url(#p37f5cfac9d)" style="fill: none; stroke: #008000; stroke-opacity: 0.27; stroke-width: 1.25; stroke-linecap: round"/>
   </g>
   <g id="line2d_13">
    <path d="M 67.06841 359.490887 
L 72.617677 287.7325 
L 78.166943 210.526264 
L 83.716209 182.010179 
L 89.265475 175.285491 
L 94.814741 171.199604 
L 100.364007 164.134425 
L 105.913274 155.707283 
L 111.46254 146.173547 
L 117.011806 151.280906 
L 122.561072 148.471858 
L 128.110338 160.474151 
L 133.659604 138.767877 
L 139.208871 162.176604 
L 144.758137 164.64516 
L 150.307403 147.961123 
L 155.856669 135.362972 
L 161.405935 145.407443 
L 166.955202 135.107604 
L 172.504468 123.956538 
L 178.053734 133.405151 
L 183.603 124.297028 
L 189.152266 111.188142 
L 194.701532 120.040896 
L 200.250799 118.678934 
L 205.800065 105.229557 
L 211.349331 111.443509 
L 216.898597 104.463453 
L 222.447863 105.314679 
L 227.997129 103.527104 
L 233.546396 114.933538 
L 239.095662 141.321557 
L 244.644928 110.336915 
L 250.194194 105.740292 
L 255.74346 111.273264 
L 261.292726 110.422038 
L 266.841993 100.973425 
L 272.391259 105.99566 
L 277.940525 104.463453 
L 283.489791 106.336151 
L 289.039057 106.251028 
L 294.588323 104.889066 
L 300.13759 120.807 
L 305.686856 104.37833 
L 311.236122 115.444274 
L 316.785388 101.994896 
L 322.334654 113.826943 
L 327.88392 102.761 
L 333.433187 103.867594 
L 338.982453 114.252557 
L 344.531719 105.484925 
L 350.080985 103.697349 
L 355.630251 103.271736 
L 361.179517 103.867594 
L 366.728784 105.825415 
L 372.27805 113.06084 
L 377.827316 100.632934 
L 383.376582 104.803943 
L 388.925848 104.718821 
L 394.475114 103.612226 
L 400.024381 102.250264 
L 405.573647 106.080783 
L 411.122913 106.506396 
L 416.672179 104.633698 
L 422.221445 104.803943 
L 427.770711 103.441981 
L 433.319978 102.931245 
L 438.869244 110.50716 
L 444.41851 103.016368 
L 449.967776 106.846887 
L 455.517042 102.675877 
L 461.066308 104.208085 
L 466.615575 101.824651 
L 472.164841 100.888302 
L 477.714107 107.2725 
L 483.263373 106.165906 
L 488.812639 111.017896 
L 494.361905 116.125255 
L 499.911172 105.570047 
L 505.460438 104.122962 
L 511.009704 100.973425 
L 516.55897 117.487217 
L 522.108236 107.2725 
L 527.657502 101.058547 
L 533.206769 107.2725 
L 538.756035 99.951953 
L 544.305301 101.739528 
L 549.854567 106.676642 
L 555.403833 112.464981 
L 560.953099 108.208849 
L 566.502366 105.229557 
L 572.051632 111.103019 
L 577.600898 99.356094 
L 583.150164 99.696585 
L 588.69943 100.547811 
L 594.248696 112.720349 
L 599.797963 101.228792 
L 605.347229 101.399038 
L 610.896495 102.165142 
L 616.445761 114.167434 
" clip-path="url(#p37f5cfac9d)" style="fill: none; stroke: #008000; stroke-opacity: 0.27; stroke-width: 1.25; stroke-linecap: round"/>
   </g>
   <g id="line2d_14">
    <path d="M 67.06841 390.305283 
L 72.617677 390.305283 
L 78.166943 390.305283 
L 83.716209 390.305283 
L 89.265475 390.305283 
L 94.814741 390.305283 
L 100.364007 390.305283 
L 105.913274 390.305283 
L 111.46254 390.305283 
L 117.011806 390.305283 
L 122.561072 390.305283 
L 128.110338 390.305283 
L 133.659604 390.305283 
L 139.208871 390.305283 
L 144.758137 390.305283 
L 150.307403 390.305283 
L 155.856669 390.305283 
L 161.405935 390.305283 
L 166.955202 390.305283 
L 172.504468 390.305283 
L 178.053734 390.305283 
L 183.603 390.305283 
L 189.152266 390.305283 
L 194.701532 390.305283 
L 200.250799 390.305283 
L 205.800065 390.305283 
L 211.349331 390.305283 
L 216.898597 370.471708 
L 222.447863 388.773075 
L 227.997129 372.089038 
L 233.546396 298.713321 
L 239.095662 299.64967 
L 244.644928 230.785453 
L 250.194194 230.35984 
L 255.74346 221.507085 
L 261.292726 230.274717 
L 266.841993 236.573792 
L 272.391259 204.823047 
L 277.940525 180.137481 
L 283.489791 187.798519 
L 289.039057 157.494858 
L 294.588323 166.773226 
L 300.13759 132.809292 
L 305.686856 144.215726 
L 311.236122 122.254085 
L 316.785388 126.254849 
L 322.334654 120.807 
L 327.88392 119.870651 
L 333.433187 119.274792 
L 338.982453 112.379858 
L 344.531719 115.699642 
L 350.080985 112.805472 
L 355.630251 116.806236 
L 361.179517 117.91283 
L 366.728784 120.296264 
L 372.27805 126.765585 
L 377.827316 106.591519 
L 383.376582 110.422038 
L 388.925848 108.88983 
L 394.475114 113.741821 
L 400.024381 102.675877 
L 405.573647 109.315443 
L 411.122913 99.951953 
L 416.672179 124.978009 
L 422.221445 106.761764 
L 427.770711 102.846123 
L 433.319978 105.65517 
L 438.869244 102.590755 
L 444.41851 106.421274 
L 449.967776 111.613755 
L 455.517042 103.441981 
L 461.066308 105.314679 
L 466.615575 105.570047 
L 472.164841 102.335387 
L 477.714107 103.271736 
L 483.263373 104.718821 
L 488.812639 110.932774 
L 494.361905 110.932774 
L 499.911172 101.228792 
L 505.460438 101.739528 
L 511.009704 106.421274 
L 516.55897 111.017896 
L 522.108236 108.88983 
L 527.657502 102.080019 
L 533.206769 117.316972 
L 538.756035 129.915123 
L 544.305301 115.103783 
L 549.854567 103.697349 
L 555.403833 108.038604 
L 560.953099 102.761 
L 566.502366 110.081547 
L 572.051632 108.208849 
L 577.600898 105.825415 
L 583.150164 109.826179 
L 588.69943 105.059311 
L 594.248696 102.761 
L 599.797963 113.912066 
L 605.347229 106.676642 
L 610.896495 120.636755 
L 616.445761 102.250264 
" clip-path="url(#p37f5cfac9d)" style="fill: none; stroke: #008000; stroke-opacity: 0.27; stroke-width: 1.25; stroke-linecap: round"/>
   </g>
   <g id="line2d_15">
    <path d="M 67.06841 49.814717 
L 72.617677 66.429957 
L 78.166943 97.601715 
L 83.716209 113.167386 
L 89.265475 124.773875 
L 94.814741 144.142449 
L 100.364007 156.311039 
L 105.913274 167.803152 
L 111.46254 171.750904 
L 117.011806 181.724169 
L 122.561072 180.315043 
L 128.110338 184.678859 
L 133.659604 185.244112 
L 139.208871 194.148122 
L 144.758137 199.000369 
L 150.307403 224.744588 
L 155.856669 234.049275 
L 161.405935 258.033306 
L 166.955202 250.647552 
L 172.504468 253.343671 
L 178.053734 269.160029 
L 183.603 273.965666 
L 189.152266 280.373541 
L 194.701532 277.801684 
L 200.250799 274.217883 
L 205.800065 280.958293 
L 211.349331 284.984655 
L 216.898597 299.356204 
L 222.447863 305.122491 
L 227.997129 313.309614 
L 233.546396 316.292001 
L 239.095662 328.857863 
L 244.644928 323.745462 
L 250.194194 330.755753 
L 255.74346 335.827809 
L 261.292726 335.556887 
L 266.841993 335.633356 
L 272.391259 337.556328 
L 277.940525 339.147934 
L 283.489791 343.731751 
L 289.039057 336.143529 
L 294.588323 343.439328 
L 300.13759 346.567114 
L 305.686856 343.190738 
L 311.236122 348.172823 
L 316.785388 353.757436 
L 322.334654 350.245105 
L 327.88392 354.876677 
L 333.433187 352.839292 
L 338.982453 351.494139 
L 344.531719 355.513841 
L 350.080985 354.548615 
L 355.630251 364.115063 
L 361.179517 366.937336 
L 366.728784 369.506587 
L 372.27805 372.596382 
L 377.827316 368.260295 
L 383.376582 371.284074 
L 388.925848 373.960637 
L 394.475114 375.901795 
L 400.024381 372.372491 
L 405.573647 376.635736 
L 411.122913 376.509676 
L 416.672179 379.2517 
L 422.221445 379.162117 
L 427.770711 374.808685 
L 433.319978 379.822547 
L 438.869244 380.85669 
L 444.41851 376.369126 
L 449.967776 376.639859 
L 455.517042 373.774987 
L 461.066308 376.204285 
L 466.615575 377.00501 
L 472.164841 374.439739 
L 477.714107 372.667683 
L 483.263373 373.002485 
L 488.812639 377.095907 
L 494.361905 378.65087 
L 499.911172 376.288529 
L 505.460438 376.265817 
L 511.009704 383.339985 
L 516.55897 384.945695 
L 522.108236 383.918156 
L 527.657502 384.677556 
L 533.206769 386.125892 
L 538.756035 387.956637 
L 544.305301 387.407513 
L 549.854567 383.689855 
L 555.403833 386.115648 
L 560.953099 386.35418 
L 566.502366 382.824528 
L 572.051632 386.385309 
L 577.600898 386.32316 
L 583.150164 386.596409 
L 588.69943 390.185203 
L 594.248696 388.900677 
L 599.797963 390.305283 
L 605.347229 386.546553 
L 610.896495 386.353186 
L 616.445761 388.380161 
" clip-path="url(#p37f5cfac9d)" style="fill: none; stroke: #7b3ab8; stroke-width: 1.5; stroke-linecap: round"/>
   </g>
   <g id="patch_3">
    <path d="M 56.23 400.52 
L 56.23 39.6 
" style="fill: none; stroke: #ffffff; stroke-width: 0.8; stroke-linejoin: miter; stroke-linecap: square"/>
   </g>
   <g id="patch_4">
    <path d="M 623.801429 400.52 
L 623.801429 39.6 
" style="fill: none; stroke: #ffffff; stroke-width: 0.8; stroke-linejoin: miter; stroke-linecap: square"/>
   </g>
   <g id="patch_5">
    <path d="M 56.23 400.52 
L 623.801429 400.52 
" style="fill: none; stroke: #ffffff; stroke-width: 0.8; stroke-linejoin: miter; stroke-linecap: square"/>
   </g>
   <g id="patch_6">
    <path d="M 56.23 39.6 
L 623.801429 39.6 
" style="fill: none; stroke: #ffffff; stroke-width: 0.8; stroke-linejoin: miter; stroke-linecap: square"/>
   </g>
  </g>
  <g id="text_9">
   <!-- Acrobot-v1 | CMU-Net (Alignment + Margin) -->
   <g style="fill: #262626" transform="translate(101.444063 22.395938) scale(0.18 -0.18)">
    <defs>
     <path id="DejaVuSans-Bold-41" d="M 3419 850 
L 1538 850 
L 1241 0 
L 31 0 
L 1759 4666 
L 3194 4666 
L 4922 0 
L 3713 0 
L 3419 850 
z
M 1838 1716 
L 3116 1716 
L 2478 3572 
L 1838 1716 
z
" transform="scale(0.015625)"/>
     <path id="DejaVuSans-Bold-63" d="M 3366 3391 
L 3366 2478 
Q 3138 2634 2908 2709 
Q 2678 2784 2431 2784 
Q 1963 2784 1702 2511 
Q 1441 2238 1441 1747 
Q 1441 1256 1702 982 
Q 1963 709 2431 709 
Q 2694 709 2930 787 
Q 3166 866 3366 1019 
L 3366 103 
Q 3103 6 2833 -42 
Q 2563 -91 2291 -91 
Q 1344 -91 809 395 
Q 275 881 275 1747 
Q 275 2613 809 3098 
Q 1344 3584 2291 3584 
Q 2566 3584 2833 3536 
Q 3100 3488 3366 3391 
z
" transform="scale(0.015625)"/>
     <path id="DejaVuSans-Bold-72" d="M 3138 2547 
Q 2991 2616 2845 2648 
Q 2700 2681 2553 2681 
Q 2122 2681 1889 2404 
Q 1656 2128 1656 1613 
L 1656 0 
L 538 0 
L 538 3500 
L 1656 3500 
L 1656 2925 
Q 1872 3269 2151 3426 
Q 2431 3584 2822 3584 
Q 2878 3584 2943 3579 
Q 3009 3575 3134 3559 
L 3138 2547 
z
" transform="scale(0.015625)"/>
     <path id="DejaVuSans-Bold-6f" d="M 2203 2784 
Q 1831 2784 1636 2517 
Q 1441 2250 1441 1747 
Q 1441 1244 1636 976 
Q 1831 709 2203 709 
Q 2569 709 2762 976 
Q 2956 1244 2956 1747 
Q 2956 2250 2762 2517 
Q 2569 2784 2203 2784 
z
M 2203 3584 
Q 3106 3584 3614 3096 
Q 4122 2609 4122 1747 
Q 4122 884 3614 396 
Q 3106 -91 2203 -91 
Q 1297 -91 786 396 
Q 275 884 275 1747 
Q 275 2609 786 3096 
Q 1297 3584 2203 3584 
z
" transform="scale(0.015625)"/>
     <path id="DejaVuSans-Bold-62" d="M 2400 722 
Q 2759 722 2948 984 
Q 3138 1247 3138 1747 
Q 3138 2247 2948 2509 
Q 2759 2772 2400 2772 
Q 2041 2772 1848 2508 
Q 1656 2244 1656 1747 
Q 1656 1250 1848 986 
Q 2041 722 2400 722 
z
M 1656 2988 
Q 1888 3294 2169 3439 
Q 2450 3584 2816 3584 
Q 3463 3584 3878 3070 
Q 4294 2556 4294 1747 
Q 4294 938 3878 423 
Q 3463 -91 2816 -91 
Q 2450 -91 2169 54 
Q 1888 200 1656 506 
L 1656 0 
L 538 0 
L 538 4863 
L 1656 4863 
L 1656 2988 
z
" transform="scale(0.015625)"/>
     <path id="DejaVuSans-Bold-74" d="M 1759 4494 
L 1759 3500 
L 2913 3500 
L 2913 2700 
L 1759 2700 
L 1759 1216 
Q 1759 972 1856 886 
Q 1953 800 2241 800 
L 2816 800 
L 2816 0 
L 1856 0 
Q 1194 0 917 276 
Q 641 553 641 1216 
L 641 2700 
L 84 2700 
L 84 3500 
L 641 3500 
L 641 4494 
L 1759 4494 
z
" transform="scale(0.015625)"/>
     <path id="DejaVuSans-Bold-2d" d="M 347 2297 
L 2309 2297 
L 2309 1388 
L 347 1388 
L 347 2297 
z
" transform="scale(0.015625)"/>
     <path id="DejaVuSans-Bold-76" d="M 97 3500 
L 1216 3500 
L 2088 1081 
L 2956 3500 
L 4078 3500 
L 2700 0 
L 1472 0 
L 97 3500 
z
" transform="scale(0.015625)"/>
     <path id="DejaVuSans-Bold-31" d="M 750 831 
L 1813 831 
L 1813 3847 
L 722 3622 
L 722 4441 
L 1806 4666 
L 2950 4666 
L 2950 831 
L 4013 831 
L 4013 0 
L 750 0 
L 750 831 
z
" transform="scale(0.015625)"/>
     <path id="DejaVuSans-Bold-20" transform="scale(0.015625)"/>
     <path id="DejaVuSans-Bold-7c" d="M 1522 4891 
L 1522 -1509 
L 813 -1509 
L 813 4891 
L 1522 4891 
z
" transform="scale(0.015625)"/>
     <path id="DejaVuSans-Bold-43" d="M 4288 256 
Q 3956 84 3597 -3 
Q 3238 -91 2847 -91 
Q 1681 -91 1000 561 
Q 319 1213 319 2328 
Q 319 3447 1000 4098 
Q 1681 4750 2847 4750 
Q 3238 4750 3597 4662 
Q 3956 4575 4288 4403 
L 4288 3438 
Q 3953 3666 3628 3772 
Q 3303 3878 2944 3878 
Q 2300 3878 1931 3465 
Q 1563 3053 1563 2328 
Q 1563 1606 1931 1193 
Q 2300 781 2944 781 
Q 3303 781 3628 887 
Q 3953 994 4288 1222 
L 4288 256 
z
" transform="scale(0.015625)"/>
     <path id="DejaVuSans-Bold-4d" d="M 588 4666 
L 2119 4666 
L 3181 2169 
L 4250 4666 
L 5778 4666 
L 5778 0 
L 4641 0 
L 4641 3413 
L 3566 897 
L 2803 897 
L 1728 3413 
L 1728 0 
L 588 0 
L 588 4666 
z
" transform="scale(0.015625)"/>
     <path id="DejaVuSans-Bold-55" d="M 588 4666 
L 1791 4666 
L 1791 1869 
Q 1791 1291 1980 1042 
Q 2169 794 2597 794 
Q 3028 794 3217 1042 
Q 3406 1291 3406 1869 
L 3406 4666 
L 4609 4666 
L 4609 1869 
Q 4609 878 4112 393 
Q 3616 -91 2597 -91 
Q 1581 -91 1084 393 
Q 588 878 588 1869 
L 588 4666 
z
" transform="scale(0.015625)"/>
     <path id="DejaVuSans-Bold-4e" d="M 588 4666 
L 1931 4666 
L 3628 1466 
L 3628 4666 
L 4769 4666 
L 4769 0 
L 3425 0 
L 1728 3200 
L 1728 0 
L 588 0 
L 588 4666 
z
" transform="scale(0.015625)"/>
     <path id="DejaVuSans-Bold-65" d="M 4031 1759 
L 4031 1441 
L 1416 1441 
Q 1456 1047 1700 850 
Q 1944 653 2381 653 
Q 2734 653 3104 758 
Q 3475 863 3866 1075 
L 3866 213 
Q 3469 63 3072 -14 
Q 2675 -91 2278 -91 
Q 1328 -91 801 392 
Q 275 875 275 1747 
Q 275 2603 792 3093 
Q 1309 3584 2216 3584 
Q 3041 3584 3536 3087 
Q 4031 2591 4031 1759 
z
M 2881 2131 
Q 2881 2450 2695 2645 
Q 2509 2841 2209 2841 
Q 1884 2841 1681 2658 
Q 1478 2475 1428 2131 
L 2881 2131 
z
" transform="scale(0.015625)"/>
     <path id="DejaVuSans-Bold-28" d="M 2413 -844 
L 1484 -844 
Q 1006 -72 778 623 
Q 550 1319 550 2003 
Q 550 2688 779 3389 
Q 1009 4091 1484 4856 
L 2413 4856 
Q 2013 4116 1813 3408 
Q 1613 2700 1613 2009 
Q 1613 1319 1811 609 
Q 2009 -100 2413 -844 
z
" transform="scale(0.015625)"/>
     <path id="DejaVuSans-Bold-6c" d="M 538 4863 
L 1656 4863 
L 1656 0 
L 538 0 
L 538 4863 
z
" transform="scale(0.015625)"/>
     <path id="DejaVuSans-Bold-69" d="M 538 3500 
L 1656 3500 
L 1656 0 
L 538 0 
L 538 3500 
z
M 538 4863 
L 1656 4863 
L 1656 3950 
L 538 3950 
L 538 4863 
z
" transform="scale(0.015625)"/>
     <path id="DejaVuSans-Bold-67" d="M 2919 594 
Q 2688 288 2409 144 
Q 2131 0 1766 0 
Q 1125 0 706 504 
Q 288 1009 288 1791 
Q 288 2575 706 3076 
Q 1125 3578 1766 3578 
Q 2131 3578 2409 3434 
Q 2688 3291 2919 2981 
L 2919 3500 
L 4044 3500 
L 4044 353 
Q 4044 -491 3511 -936 
Q 2978 -1381 1966 -1381 
Q 1638 -1381 1331 -1331 
Q 1025 -1281 716 -1178 
L 716 -306 
Q 1009 -475 1290 -558 
Q 1572 -641 1856 -641 
Q 2406 -641 2662 -400 
Q 2919 -159 2919 353 
L 2919 594 
z
M 2181 2772 
Q 1834 2772 1640 2515 
Q 1447 2259 1447 1791 
Q 1447 1309 1634 1061 
Q 1822 813 2181 813 
Q 2531 813 2725 1069 
Q 2919 1325 2919 1791 
Q 2919 2259 2725 2515 
Q 2531 2772 2181 2772 
z
" transform="scale(0.015625)"/>
     <path id="DejaVuSans-Bold-6e" d="M 4056 2131 
L 4056 0 
L 2931 0 
L 2931 347 
L 2931 1631 
Q 2931 2084 2911 2256 
Q 2891 2428 2841 2509 
Q 2775 2619 2662 2680 
Q 2550 2741 2406 2741 
Q 2056 2741 1856 2470 
Q 1656 2200 1656 1722 
L 1656 0 
L 538 0 
L 538 3500 
L 1656 3500 
L 1656 2988 
Q 1909 3294 2193 3439 
Q 2478 3584 2822 3584 
Q 3428 3584 3742 3212 
Q 4056 2841 4056 2131 
z
" transform="scale(0.015625)"/>
     <path id="DejaVuSans-Bold-6d" d="M 3781 2919 
Q 3994 3244 4286 3414 
Q 4578 3584 4928 3584 
Q 5531 3584 5847 3212 
Q 6163 2841 6163 2131 
L 6163 0 
L 5038 0 
L 5038 1825 
Q 5041 1866 5042 1909 
Q 5044 1953 5044 2034 
Q 5044 2406 4934 2573 
Q 4825 2741 4581 2741 
Q 4263 2741 4089 2478 
Q 3916 2216 3909 1719 
L 3909 0 
L 2784 0 
L 2784 1825 
Q 2784 2406 2684 2573 
Q 2584 2741 2328 2741 
Q 2006 2741 1831 2477 
Q 1656 2213 1656 1722 
L 1656 0 
L 531 0 
L 531 3500 
L 1656 3500 
L 1656 2988 
Q 1863 3284 2130 3434 
Q 2397 3584 2719 3584 
Q 3081 3584 3359 3409 
Q 3638 3234 3781 2919 
z
" transform="scale(0.015625)"/>
     <path id="DejaVuSans-Bold-2b" d="M 3053 4013 
L 3053 2375 
L 4684 2375 
L 4684 1638 
L 3053 1638 
L 3053 0 
L 2309 0 
L 2309 1638 
L 678 1638 
L 678 2375 
L 2309 2375 
L 2309 4013 
L 3053 4013 
z
" transform="scale(0.015625)"/>
     <path id="DejaVuSans-Bold-61" d="M 2106 1575 
Q 1756 1575 1579 1456 
Q 1403 1338 1403 1106 
Q 1403 894 1545 773 
Q 1688 653 1941 653 
Q 2256 653 2472 879 
Q 2688 1106 2688 1447 
L 2688 1575 
L 2106 1575 
z
M 3816 1997 
L 3816 0 
L 2688 0 
L 2688 519 
Q 2463 200 2181 54 
Q 1900 -91 1497 -91 
Q 953 -91 614 226 
Q 275 544 275 1050 
Q 275 1666 698 1953 
Q 1122 2241 2028 2241 
L 2688 2241 
L 2688 2328 
Q 2688 2594 2478 2717 
Q 2269 2841 1825 2841 
Q 1466 2841 1156 2769 
Q 847 2697 581 2553 
L 581 3406 
Q 941 3494 1303 3539 
Q 1666 3584 2028 3584 
Q 2975 3584 3395 3211 
Q 3816 2838 3816 1997 
z
" transform="scale(0.015625)"/>
     <path id="DejaVuSans-Bold-29" d="M 513 -844 
Q 913 -100 1113 609 
Q 1313 1319 1313 2009 
Q 1313 2700 1113 3408 
Q 913 4116 513 4856 
L 1441 4856 
Q 1916 4091 2145 3389 
Q 2375 2688 2375 2003 
Q 2375 1319 2147 623 
Q 1919 -72 1441 -844 
L 513 -844 
z
" transform="scale(0.015625)"/>
    </defs>
    <use xlink:href="#DejaVuSans-Bold-41"/>
    <use xlink:href="#DejaVuSans-Bold-63" transform="translate(77.392578 0)"/>
    <use xlink:href="#DejaVuSans-Bold-72" transform="translate(136.669922 0)"/>
    <use xlink:href="#DejaVuSans-Bold-6f" transform="translate(185.986328 0)"/>
    <use xlink:href="#DejaVuSans-Bold-62" transform="translate(254.6875 0)"/>
    <use xlink:href="#DejaVuSans-Bold-6f" transform="translate(326.269531 0)"/>
    <use xlink:href="#DejaVuSans-Bold-74" transform="translate(394.970703 0)"/>
    <use xlink:href="#DejaVuSans-Bold-2d" transform="translate(442.773438 0)"/>
    <use xlink:href="#DejaVuSans-Bold-76" transform="translate(484.277344 0)"/>
    <use xlink:href="#DejaVuSans-Bold-31" transform="translate(549.462891 0)"/>
    <use xlink:href="#DejaVuSans-Bold-20" transform="translate(619.042969 0)"/>
    <use xlink:href="#DejaVuSans-Bold-7c" transform="translate(653.857422 0)"/>
    <use xlink:href="#DejaVuSans-Bold-20" transform="translate(690.380859 0)"/>
    <use xlink:href="#DejaVuSans-Bold-43" transform="translate(725.195312 0)"/>
    <use xlink:href="#DejaVuSans-Bold-4d" transform="translate(798.583984 0)"/>
    <use xlink:href="#DejaVuSans-Bold-55" transform="translate(898.095703 0)"/>
    <use xlink:href="#DejaVuSans-Bold-2d" transform="translate(979.296875 0)"/>
    <use xlink:href="#DejaVuSans-Bold-4e" transform="translate(1020.800781 0)"/>
    <use xlink:href="#DejaVuSans-Bold-65" transform="translate(1104.492188 0)"/>
    <use xlink:href="#DejaVuSans-Bold-74" transform="translate(1172.314453 0)"/>
    <use xlink:href="#DejaVuSans-Bold-20" transform="translate(1220.117188 0)"/>
    <use xlink:href="#DejaVuSans-Bold-28" transform="translate(1254.931641 0)"/>
    <use xlink:href="#DejaVuSans-Bold-41" transform="translate(1300.634766 0)"/>
    <use xlink:href="#DejaVuSans-Bold-6c" transform="translate(1378.027344 0)"/>
    <use xlink:href="#DejaVuSans-Bold-69" transform="translate(1412.304688 0)"/>
    <use xlink:href="#DejaVuSans-Bold-67" transform="translate(1446.582031 0)"/>
    <use xlink:href="#DejaVuSans-Bold-6e" transform="translate(1518.164062 0)"/>
    <use xlink:href="#DejaVuSans-Bold-6d" transform="translate(1589.355469 0)"/>
    <use xlink:href="#DejaVuSans-Bold-65" transform="translate(1693.554688 0)"/>
    <use xlink:href="#DejaVuSans-Bold-6e" transform="translate(1761.376953 0)"/>
    <use xlink:href="#DejaVuSans-Bold-74" transform="translate(1832.568359 0)"/>
    <use xlink:href="#DejaVuSans-Bold-20" transform="translate(1880.371094 0)"/>
    <use xlink:href="#DejaVuSans-Bold-2b" transform="translate(1915.185547 0)"/>
    <use xlink:href="#DejaVuSans-Bold-20" transform="translate(1998.974609 0)"/>
    <use xlink:href="#DejaVuSans-Bold-4d" transform="translate(2033.789062 0)"/>
    <use xlink:href="#DejaVuSans-Bold-61" transform="translate(2133.300781 0)"/>
    <use xlink:href="#DejaVuSans-Bold-72" transform="translate(2200.78125 0)"/>
    <use xlink:href="#DejaVuSans-Bold-67" transform="translate(2250.097656 0)"/>
    <use xlink:href="#DejaVuSans-Bold-69" transform="translate(2321.679688 0)"/>
    <use xlink:href="#DejaVuSans-Bold-6e" transform="translate(2355.957031 0)"/>
    <use xlink:href="#DejaVuSans-Bold-29" transform="translate(2427.148438 0)"/>
   </g>
  </g>
 </g>
 <defs>
  <clipPath id="p37f5cfac9d">
   <rect x="56.23" y="39.6" width="567.571429" height="360.92"/>
  </clipPath>
 </defs>
</svg>
