<?xml version="1.0" encoding="utf-8" standalone="no"?>
<!DOCTYPE svg PUBLIC "-//W3C//DTD SVG 1.1//EN"
  "http://www.w3.org/Graphics/SVG/1.1/DTD/svg11.dtd">
<svg xmlns:xlink="http://www.w3.org/1999/xlink" width="648pt" height="432pt" viewBox="0 0 648 432" xmlns="http://www.w3.org/2000/svg" version="1.1">
 <metadata>
  <rdf:RDF xmlns:dc="http://purl.org/dc/elements/1.1/" xmlns:cc="http://creativecommons.org/ns#" xmlns:rdf="http://www.w3.org/1999/02/22-rdf-syntax-ns#">
   <cc:Work>
    <dc:type rdf:resource="http://purl.org/dc/dcmitype/StillImage"/>
    <dc:date>2025-07-31T05:18:29.020728</dc:date>
    <dc:format>image/svg+xml</dc:format>
    <dc:creator>
     <cc:Agent>
      <dc:title>Matplotlib v3.10.0, https://matplotlib.org/</dc:title>
     </cc:Agent>
    </dc:creator>
   </cc:Work>
  </rdf:RDF>
 </metadata>
 <defs>
  <style type="text/css">*{stroke-linejoin: round; stroke-linecap: butt}</style>
 </defs>
 <g id="figure_1">
  <g id="patch_1">
   <path d="M 0 432 
L 648 432 
L 648 0 
L 0 0 
z
" style="fill: #ffffff"/>
  </g>
  <g id="axes_1">
   <g id="patch_2">
    <path d="M 56.23 400.52 
L 623.801429 400.52 
L 623.801429 39.6 
L 56.23 39.6 
z
" style="fill: #eaeaf2"/>
   </g>
   <g id="matplotlib.axis_1">
    <g id="xtick_1">
     <g id="line2d_1">
      <path d="M 67.06841 400.52 
L 67.06841 39.6 
" clip-path="url(#p6a7278e7b0)" style="fill: none; stroke: #ffffff; stroke-width: 0.8; stroke-linecap: round"/>
     </g>
     <g id="text_1">
      <!-- 0 -->
      <g style="fill: #262626" transform="translate(62.61466 418.157812) scale(0.14 -0.14)">
       <defs>
        <path id="DejaVuSans-30" d="M 2034 4250 
Q 1547 4250 1301 3770 
Q 1056 3291 1056 2328 
Q 1056 1369 1301 889 
Q 1547 409 2034 409 
Q 2525 409 2770 889 
Q 3016 1369 3016 2328 
Q 3016 3291 2770 3770 
Q 2525 4250 2034 4250 
z
M 2034 4750 
Q 2819 4750 3233 4129 
Q 3647 3509 3647 2328 
Q 3647 1150 3233 529 
Q 2819 -91 2034 -91 
Q 1250 -91 836 529 
Q 422 1150 422 2328 
Q 422 3509 836 4129 
Q 1250 4750 2034 4750 
z
" transform="scale(0.015625)"/>
       </defs>
       <use xlink:href="#DejaVuSans-30"/>
      </g>
     </g>
    </g>
    <g id="xtick_2">
     <g id="line2d_2">
      <path d="M 608.988935 400.52 
L 608.988935 39.6 
" clip-path="url(#p6a7278e7b0)" style="fill: none; stroke: #ffffff; stroke-width: 0.8; stroke-linecap: round"/>
     </g>
     <g id="text_2">
      <!-- 600000 -->
      <g style="fill: #262626" transform="translate(582.266435 418.157812) scale(0.14 -0.14)">
       <defs>
        <path id="DejaVuSans-36" d="M 2113 2584 
Q 1688 2584 1439 2293 
Q 1191 2003 1191 1497 
Q 1191 994 1439 701 
Q 1688 409 2113 409 
Q 2538 409 2786 701 
Q 3034 994 3034 1497 
Q 3034 2003 2786 2293 
Q 2538 2584 2113 2584 
z
M 3366 4563 
L 3366 3988 
Q 3128 4100 2886 4159 
Q 2644 4219 2406 4219 
Q 1781 4219 1451 3797 
Q 1122 3375 1075 2522 
Q 1259 2794 1537 2939 
Q 1816 3084 2150 3084 
Q 2853 3084 3261 2657 
Q 3669 2231 3669 1497 
Q 3669 778 3244 343 
Q 2819 -91 2113 -91 
Q 1303 -91 875 529 
Q 447 1150 447 2328 
Q 447 3434 972 4092 
Q 1497 4750 2381 4750 
Q 2619 4750 2861 4703 
Q 3103 4656 3366 4563 
z
" transform="scale(0.015625)"/>
       </defs>
       <use xlink:href="#DejaVuSans-36"/>
       <use xlink:href="#DejaVuSans-30" transform="translate(63.623047 0)"/>
       <use xlink:href="#DejaVuSans-30" transform="translate(127.246094 0)"/>
       <use xlink:href="#DejaVuSans-30" transform="translate(190.869141 0)"/>
       <use xlink:href="#DejaVuSans-30" transform="translate(254.492188 0)"/>
       <use xlink:href="#DejaVuSans-30" transform="translate(318.115234 0)"/>
      </g>
     </g>
    </g>
   </g>
   <g id="matplotlib.axis_2">
    <g id="ytick_1">
     <g id="line2d_3">
      <path d="M 56.23 390.305283 
L 623.801429 390.305283 
" clip-path="url(#p6a7278e7b0)" style="fill: none; stroke: #ffffff; stroke-width: 0.8; stroke-linecap: round"/>
     </g>
     <g id="text_3">
      <!-- −500 -->
      <g style="fill: #262626" transform="translate(10.775938 395.624189) scale(0.14 -0.14)">
       <defs>
        <path id="DejaVuSans-2212" d="M 678 2272 
L 4684 2272 
L 4684 1741 
L 678 1741 
L 678 2272 
z
" transform="scale(0.015625)"/>
        <path id="DejaVuSans-35" d="M 691 4666 
L 3169 4666 
L 3169 4134 
L 1269 4134 
L 1269 2991 
Q 1406 3038 1543 3061 
Q 1681 3084 1819 3084 
Q 2600 3084 3056 2656 
Q 3513 2228 3513 1497 
Q 3513 744 3044 326 
Q 2575 -91 1722 -91 
Q 1428 -91 1123 -41 
Q 819 9 494 109 
L 494 744 
Q 775 591 1075 516 
Q 1375 441 1709 441 
Q 2250 441 2565 725 
Q 2881 1009 2881 1497 
Q 2881 1984 2565 2268 
Q 2250 2553 1709 2553 
Q 1456 2553 1204 2497 
Q 953 2441 691 2322 
L 691 4666 
z
" transform="scale(0.015625)"/>
       </defs>
       <use xlink:href="#DejaVuSans-2212"/>
       <use xlink:href="#DejaVuSans-35" transform="translate(83.789062 0)"/>
       <use xlink:href="#DejaVuSans-30" transform="translate(147.412109 0)"/>
       <use xlink:href="#DejaVuSans-30" transform="translate(211.035156 0)"/>
      </g>
     </g>
    </g>
    <g id="ytick_2">
     <g id="line2d_4">
      <path d="M 56.23 322.20717 
L 623.801429 322.20717 
" clip-path="url(#p6a7278e7b0)" style="fill: none; stroke: #ffffff; stroke-width: 0.8; stroke-linecap: round"/>
     </g>
     <g id="text_4">
      <!-- −400 -->
      <g style="fill: #262626" transform="translate(10.775938 327.526076) scale(0.14 -0.14)">
       <defs>
        <path id="DejaVuSans-34" d="M 2419 4116 
L 825 1625 
L 2419 1625 
L 2419 4116 
z
M 2253 4666 
L 3047 4666 
L 3047 1625 
L 3713 1625 
L 3713 1100 
L 3047 1100 
L 3047 0 
L 2419 0 
L 2419 1100 
L 313 1100 
L 313 1709 
L 2253 4666 
z
" transform="scale(0.015625)"/>
       </defs>
       <use xlink:href="#DejaVuSans-2212"/>
       <use xlink:href="#DejaVuSans-34" transform="translate(83.789062 0)"/>
       <use xlink:href="#DejaVuSans-30" transform="translate(147.412109 0)"/>
       <use xlink:href="#DejaVuSans-30" transform="translate(211.035156 0)"/>
      </g>
     </g>
    </g>
    <g id="ytick_3">
     <g id="line2d_5">
      <path d="M 56.23 254.109057 
L 623.801429 254.109057 
" clip-path="url(#p6a7278e7b0)" style="fill: none; stroke: #ffffff; stroke-width: 0.8; stroke-linecap: round"/>
     </g>
     <g id="text_5">
      <!-- −300 -->
      <g style="fill: #262626" transform="translate(10.775938 259.427963) scale(0.14 -0.14)">
       <defs>
        <path id="DejaVuSans-33" d="M 2597 2516 
Q 3050 2419 3304 2112 
Q 3559 1806 3559 1356 
Q 3559 666 3084 287 
Q 2609 -91 1734 -91 
Q 1441 -91 1130 -33 
Q 819 25 488 141 
L 488 750 
Q 750 597 1062 519 
Q 1375 441 1716 441 
Q 2309 441 2620 675 
Q 2931 909 2931 1356 
Q 2931 1769 2642 2001 
Q 2353 2234 1838 2234 
L 1294 2234 
L 1294 2753 
L 1863 2753 
Q 2328 2753 2575 2939 
Q 2822 3125 2822 3475 
Q 2822 3834 2567 4026 
Q 2313 4219 1838 4219 
Q 1578 4219 1281 4162 
Q 984 4106 628 3988 
L 628 4550 
Q 988 4650 1302 4700 
Q 1616 4750 1894 4750 
Q 2613 4750 3031 4423 
Q 3450 4097 3450 3541 
Q 3450 3153 3228 2886 
Q 3006 2619 2597 2516 
z
" transform="scale(0.015625)"/>
       </defs>
       <use xlink:href="#DejaVuSans-2212"/>
       <use xlink:href="#DejaVuSans-33" transform="translate(83.789062 0)"/>
       <use xlink:href="#DejaVuSans-30" transform="translate(147.412109 0)"/>
       <use xlink:href="#DejaVuSans-30" transform="translate(211.035156 0)"/>
      </g>
     </g>
    </g>
    <g id="ytick_4">
     <g id="line2d_6">
      <path d="M 56.23 186.010943 
L 623.801429 186.010943 
" clip-path="url(#p6a7278e7b0)" style="fill: none; stroke: #ffffff; stroke-width: 0.8; stroke-linecap: round"/>
     </g>
     <g id="text_6">
      <!-- −200 -->
      <g style="fill: #262626" transform="translate(10.775938 191.32985) scale(0.14 -0.14)">
       <defs>
        <path id="DejaVuSans-32" d="M 1228 531 
L 3431 531 
L 3431 0 
L 469 0 
L 469 531 
Q 828 903 1448 1529 
Q 2069 2156 2228 2338 
Q 2531 2678 2651 2914 
Q 2772 3150 2772 3378 
Q 2772 3750 2511 3984 
Q 2250 4219 1831 4219 
Q 1534 4219 1204 4116 
Q 875 4013 500 3803 
L 500 4441 
Q 881 4594 1212 4672 
Q 1544 4750 1819 4750 
Q 2544 4750 2975 4387 
Q 3406 4025 3406 3419 
Q 3406 3131 3298 2873 
Q 3191 2616 2906 2266 
Q 2828 2175 2409 1742 
Q 1991 1309 1228 531 
z
" transform="scale(0.015625)"/>
       </defs>
       <use xlink:href="#DejaVuSans-2212"/>
       <use xlink:href="#DejaVuSans-32" transform="translate(83.789062 0)"/>
       <use xlink:href="#DejaVuSans-30" transform="translate(147.412109 0)"/>
       <use xlink:href="#DejaVuSans-30" transform="translate(211.035156 0)"/>
      </g>
     </g>
    </g>
    <g id="ytick_5">
     <g id="line2d_7">
      <path d="M 56.23 117.91283 
L 623.801429 117.91283 
" clip-path="url(#p6a7278e7b0)" style="fill: none; stroke: #ffffff; stroke-width: 0.8; stroke-linecap: round"/>
     </g>
     <g id="text_7">
      <!-- −100 -->
      <g style="fill: #262626" transform="translate(10.775938 123.231736) scale(0.14 -0.14)">
       <defs>
        <path id="DejaVuSans-31" d="M 794 531 
L 1825 531 
L 1825 4091 
L 703 3866 
L 703 4441 
L 1819 4666 
L 2450 4666 
L 2450 531 
L 3481 531 
L 3481 0 
L 794 0 
L 794 531 
z
" transform="scale(0.015625)"/>
       </defs>
       <use xlink:href="#DejaVuSans-2212"/>
       <use xlink:href="#DejaVuSans-31" transform="translate(83.789062 0)"/>
       <use xlink:href="#DejaVuSans-30" transform="translate(147.412109 0)"/>
       <use xlink:href="#DejaVuSans-30" transform="translate(211.035156 0)"/>
      </g>
     </g>
    </g>
    <g id="ytick_6">
     <g id="line2d_8">
      <path d="M 56.23 49.814717 
L 623.801429 49.814717 
" clip-path="url(#p6a7278e7b0)" style="fill: none; stroke: #ffffff; stroke-width: 0.8; stroke-linecap: round"/>
     </g>
     <g id="text_8">
      <!-- 0 -->
      <g style="fill: #262626" transform="translate(40.3225 55.133623) scale(0.14 -0.14)">
       <use xlink:href="#DejaVuSans-30"/>
      </g>
     </g>
    </g>
   </g>
   <g id="FillBetweenPolyCollection_1">
    <path d="M 67.06841 360.473674 
L 67.06841 393.680775 
L 72.617677 389.942796 
L 78.166943 403.158598 
L 83.716209 395.406623 
L 89.265475 406.14797 
L 94.814741 412.835806 
L 100.364007 384.441989 
L 105.913274 388.689517 
L 111.46254 375.091447 
L 117.011806 374.336127 
L 122.561072 370.649374 
L 128.110338 368.079864 
L 133.659604 364.259205 
L 139.208871 363.47291 
L 144.758137 361.999501 
L 150.307403 361.492475 
L 155.856669 359.857695 
L 161.405935 360.10613 
L 166.955202 360.19596 
L 172.504468 359.266409 
L 178.053734 359.868508 
L 183.603 360.503011 
L 189.152266 359.818144 
L 194.701532 359.571059 
L 200.250799 359.054119 
L 205.800065 331.74321 
L 211.349331 341.765089 
L 216.898597 332.420846 
L 222.447863 325.1102 
L 227.997129 338.788622 
L 233.546396 301.44348 
L 239.095662 335.041902 
L 244.644928 320.311585 
L 250.194194 313.656244 
L 255.74346 313.921139 
L 261.292726 300.861552 
L 266.841993 292.620113 
L 272.391259 309.096866 
L 277.940525 302.488677 
L 283.489791 296.90481 
L 289.039057 298.841007 
L 294.588323 312.609379 
L 300.13759 296.535905 
L 305.686856 292.626369 
L 311.236122 300.896117 
L 316.785388 292.571207 
L 322.334654 287.35945 
L 327.88392 303.572256 
L 333.433187 284.087282 
L 338.982453 283.645058 
L 344.531719 293.133416 
L 350.080985 287.558698 
L 355.630251 291.93659 
L 361.179517 282.773935 
L 366.728784 278.666979 
L 372.27805 290.311342 
L 377.827316 280.053261 
L 383.376582 285.945392 
L 388.925848 277.680952 
L 394.475114 257.648124 
L 400.024381 255.667393 
L 405.573647 196.717125 
L 411.122913 209.611374 
L 416.672179 188.676793 
L 422.221445 188.476122 
L 427.770711 173.355518 
L 433.319978 176.549662 
L 438.869244 141.525176 
L 444.41851 168.13567 
L 449.967776 187.652867 
L 455.517042 157.965266 
L 461.066308 209.857962 
L 466.615575 176.8549 
L 472.164841 171.609815 
L 477.714107 171.336449 
L 483.263373 172.867171 
L 488.812639 206.050465 
L 494.361905 180.401146 
L 499.911172 170.427462 
L 505.460438 204.230899 
L 511.009704 188.433211 
L 516.55897 165.068438 
L 522.108236 145.422375 
L 527.657502 162.855051 
L 533.206769 154.846656 
L 538.756035 169.600373 
L 544.305301 144.606944 
L 549.854567 141.815177 
L 555.403833 145.832788 
L 560.953099 158.717311 
L 566.502366 173.449423 
L 572.051632 162.71662 
L 577.600898 160.942763 
L 583.150164 136.579116 
L 588.69943 178.253978 
L 594.248696 133.269255 
L 599.797963 144.356523 
L 605.347229 153.82788 
L 610.896495 159.112953 
L 616.445761 165.903435 
L 616.445761 99.885396 
L 616.445761 99.885396 
L 610.896495 108.684771 
L 605.347229 97.728445 
L 599.797963 95.146436 
L 594.248696 96.631869 
L 588.69943 82.155101 
L 583.150164 95.773541 
L 577.600898 100.113249 
L 572.051632 98.169146 
L 566.502366 85.767939 
L 560.953099 87.697606 
L 555.403833 97.31342 
L 549.854567 93.77214 
L 544.305301 90.231294 
L 538.756035 86.041838 
L 533.206769 89.491268 
L 527.657502 87.03287 
L 522.108236 99.732727 
L 516.55897 88.394634 
L 511.009704 81.441506 
L 505.460438 84.949633 
L 499.911172 97.370262 
L 494.361905 77.930941 
L 488.812639 75.332833 
L 483.263373 85.567063 
L 477.714107 88.323551 
L 472.164841 81.580864 
L 466.615575 82.532708 
L 461.066308 69.073804 
L 455.517042 100.094429 
L 449.967776 78.238111 
L 444.41851 100.649477 
L 438.869244 94.266435 
L 433.319978 91.724749 
L 427.770711 84.602029 
L 422.221445 82.692459 
L 416.672179 79.801912 
L 411.122913 82.667623 
L 405.573647 89.501139 
L 400.024381 82.407585 
L 394.475114 66.875329 
L 388.925848 58.861818 
L 383.376582 66.974974 
L 377.827316 56.898097 
L 372.27805 68.465462 
L 366.728784 53.040824 
L 361.179517 65.379563 
L 355.630251 69.257697 
L 350.080985 73.873932 
L 344.531719 70.512403 
L 338.982453 64.338195 
L 333.433187 65.291982 
L 327.88392 74.23797 
L 322.334654 70.83852 
L 316.785388 72.913261 
L 311.236122 79.093249 
L 305.686856 72.619755 
L 300.13759 76.303159 
L 294.588323 83.280897 
L 289.039057 72.023212 
L 283.489791 76.206647 
L 277.940525 73.959587 
L 272.391259 77.327772 
L 266.841993 69.663744 
L 261.292726 76.267693 
L 255.74346 82.241529 
L 250.194194 77.909801 
L 244.644928 81.264883 
L 239.095662 89.960317 
L 233.546396 77.967052 
L 227.997129 78.756853 
L 222.447863 80.347861 
L 216.898597 83.62647 
L 211.349331 83.100934 
L 205.800065 81.103495 
L 200.250799 80.827537 
L 194.701532 102.101994 
L 189.152266 92.729761 
L 183.603 94.700721 
L 178.053734 87.265598 
L 172.504468 82.930584 
L 166.955202 90.172806 
L 161.405935 89.41141 
L 155.856669 87.514754 
L 150.307403 100.691313 
L 144.758137 106.823854 
L 139.208871 118.493381 
L 133.659604 123.086836 
L 128.110338 137.448374 
L 122.561072 148.532536 
L 117.011806 160.031662 
L 111.46254 174.360074 
L 105.913274 204.889581 
L 100.364007 189.524852 
L 94.814741 234.438654 
L 89.265475 227.643064 
L 83.716209 266.440833 
L 78.166943 317.695873 
L 72.617677 340.51351 
L 67.06841 360.473674 
z
" clip-path="url(#p6a7278e7b0)" style="fill: #0000ff; fill-opacity: 0.1"/>
   </g>
   <g id="line2d_9">
    <path d="M 67.06841 377.077225 
L 72.617677 365.228153 
L 78.166943 360.427236 
L 83.716209 330.923728 
L 89.265475 316.895517 
L 94.814741 323.63723 
L 100.364007 286.983421 
L 105.913274 296.789549 
L 111.46254 274.72576 
L 117.011806 267.183894 
L 122.561072 259.590955 
L 128.110338 252.764119 
L 133.659604 243.673021 
L 139.208871 240.983145 
L 144.758137 234.411677 
L 150.307403 231.091894 
L 155.856669 223.686225 
L 161.405935 224.75877 
L 166.955202 225.184383 
L 172.504468 221.098496 
L 178.053734 223.567053 
L 183.603 227.601866 
L 189.152266 226.273953 
L 194.701532 230.836526 
L 200.250799 219.940828 
L 205.800065 206.423353 
L 211.349331 212.433011 
L 216.898597 208.023658 
L 222.447863 202.72903 
L 227.997129 208.772738 
L 233.546396 189.705266 
L 239.095662 212.501109 
L 244.644928 200.788234 
L 250.194194 195.783023 
L 255.74346 198.081334 
L 261.292726 188.564623 
L 266.841993 181.141928 
L 272.391259 193.212319 
L 277.940525 188.224132 
L 283.489791 186.555728 
L 289.039057 185.432109 
L 294.588323 197.945138 
L 300.13759 186.419532 
L 305.686856 182.623062 
L 311.236122 189.994683 
L 316.785388 182.742234 
L 322.334654 179.098985 
L 327.88392 188.905113 
L 333.433187 174.689632 
L 338.982453 173.991626 
L 344.531719 181.822909 
L 350.080985 180.716315 
L 355.630251 180.597143 
L 361.179517 174.076749 
L 366.728784 165.853902 
L 372.27805 179.388402 
L 377.827316 168.475679 
L 383.376582 176.460183 
L 388.925848 168.271385 
L 394.475114 162.261726 
L 400.024381 169.037489 
L 405.573647 143.109132 
L 411.122913 146.139498 
L 416.672179 134.239353 
L 422.221445 135.584291 
L 427.770711 128.978774 
L 433.319978 134.137206 
L 438.869244 117.895806 
L 444.41851 134.392574 
L 449.967776 132.945489 
L 455.517042 129.029847 
L 461.066308 139.465883 
L 466.615575 129.693804 
L 472.164841 126.59534 
L 477.714107 129.83 
L 483.263373 129.217117 
L 488.812639 140.691649 
L 494.361905 129.166043 
L 499.911172 133.898862 
L 505.460438 144.590266 
L 511.009704 134.937358 
L 516.55897 126.731536 
L 522.108236 122.577551 
L 527.657502 124.94396 
L 533.206769 122.168962 
L 538.756035 127.821106 
L 544.305301 117.419119 
L 549.854567 117.793658 
L 555.403833 121.573104 
L 560.953099 123.207458 
L 566.502366 129.608681 
L 572.051632 130.442883 
L 577.600898 130.528006 
L 583.150164 116.176328 
L 588.69943 130.20454 
L 594.248696 114.950562 
L 599.797963 119.751479 
L 605.347229 125.778162 
L 610.896495 133.898862 
L 616.445761 132.894415 
" clip-path="url(#p6a7278e7b0)" style="fill: none; stroke: #0000ff; stroke-width: 2; stroke-linecap: round"/>
   </g>
   <g id="line2d_10">
    <path d="M 67.06841 346.211755 
L 72.617677 370.046094 
L 78.166943 277.773151 
L 83.716209 221.166594 
L 89.265475 156.303142 
L 94.814741 166.858349 
L 100.364007 132.298557 
L 105.913274 147.109896 
L 111.46254 142.257906 
L 117.011806 122.254085 
L 122.561072 116.891358 
L 128.110338 116.210377 
L 133.659604 121.658226 
L 139.208871 122.764821 
L 144.758137 121.402858 
L 150.307403 106.676642 
L 155.856669 106.932009 
L 161.405935 108.038604 
L 166.955202 111.273264 
L 172.504468 108.038604 
L 178.053734 106.080783 
L 183.603 113.316208 
L 189.152266 107.783236 
L 194.701532 114.763292 
L 200.250799 104.37833 
L 205.800065 104.718821 
L 211.349331 106.846887 
L 216.898597 102.931245 
L 222.447863 104.718821 
L 227.997129 98.164377 
L 233.546396 104.974189 
L 239.095662 132.894415 
L 244.644928 111.528632 
L 250.194194 101.399038 
L 255.74346 103.271736 
L 261.292726 100.803179 
L 266.841993 105.399802 
L 272.391259 102.505632 
L 277.940525 105.484925 
L 283.489791 117.91283 
L 289.039057 102.931245 
L 294.588323 117.146726 
L 300.13759 106.761764 
L 305.686856 108.038604 
L 311.236122 103.441981 
L 316.785388 107.102255 
L 322.334654 127.701934 
L 327.88392 104.463453 
L 333.433187 106.421274 
L 338.982453 100.803179 
L 344.531719 102.590755 
L 350.080985 115.699642 
L 355.630251 107.442745 
L 361.179517 110.762528 
L 366.728784 100.803179 
L 372.27805 104.889066 
L 377.827316 102.165142 
L 383.376582 103.101491 
L 388.925848 106.676642 
L 394.475114 112.209613 
L 400.024381 104.548575 
L 405.573647 105.99566 
L 411.122913 104.633698 
L 416.672179 101.48416 
L 422.221445 106.251028 
L 427.770711 104.974189 
L 433.319978 104.463453 
L 438.869244 104.633698 
L 444.41851 113.826943 
L 449.967776 108.464217 
L 455.517042 101.994896 
L 461.066308 101.058547 
L 466.615575 103.441981 
L 472.164841 101.569283 
L 477.714107 106.506396 
L 483.263373 110.50716 
L 488.812639 109.570811 
L 494.361905 103.952717 
L 499.911172 108.719585 
L 505.460438 106.506396 
L 511.009704 104.803943 
L 516.55897 104.122962 
L 522.108236 109.485689 
L 527.657502 104.463453 
L 533.206769 108.379094 
L 538.756035 101.48416 
L 544.305301 100.803179 
L 549.854567 104.718821 
L 555.403833 114.67817 
L 560.953099 110.422038 
L 566.502366 110.847651 
L 572.051632 107.698113 
L 577.600898 103.867594 
L 583.150164 104.548575 
L 588.69943 99.52634 
L 594.248696 102.080019 
L 599.797963 117.146726 
L 605.347229 108.88983 
L 610.896495 105.99566 
L 616.445761 105.740292 
" clip-path="url(#p6a7278e7b0)" style="fill: none; stroke: #008000; stroke-opacity: 0.27; stroke-width: 1.25; stroke-linecap: round"/>
   </g>
   <g id="line2d_11">
    <path d="M 67.06841 385.027679 
L 72.617677 349.191047 
L 78.166943 383.069858 
L 83.716209 355.149632 
L 89.265475 363.576774 
L 94.814741 390.305283 
L 100.364007 281.773915 
L 105.913274 306.714849 
L 111.46254 250.193415 
L 117.011806 238.361368 
L 122.561072 206.780868 
L 128.110338 197.842991 
L 133.659604 166.773226 
L 139.208871 141.491802 
L 144.758137 123.616047 
L 150.307403 130.596104 
L 155.856669 107.527868 
L 161.405935 108.038604 
L 166.955202 106.165906 
L 172.504468 105.65517 
L 178.053734 106.676642 
L 183.603 118.764057 
L 189.152266 126.680462 
L 194.701532 125.999481 
L 200.250799 105.144434 
L 205.800065 106.591519 
L 211.349331 109.400566 
L 216.898597 107.783236 
L 222.447863 104.548575 
L 227.997129 105.825415 
L 233.546396 109.996425 
L 239.095662 102.931245 
L 244.644928 103.782472 
L 250.194194 105.144434 
L 255.74346 117.402094 
L 261.292726 112.635226 
L 266.841993 101.228792 
L 272.391259 108.54934 
L 277.940525 101.228792 
L 283.489791 105.99566 
L 289.039057 100.207321 
L 294.588323 103.612226 
L 300.13759 106.761764 
L 305.686856 106.506396 
L 311.236122 120.551632 
L 316.785388 110.16667 
L 322.334654 104.718821 
L 327.88392 103.612226 
L 333.433187 108.719585 
L 338.982453 110.16667 
L 344.531719 109.911302 
L 350.080985 106.080783 
L 355.630251 100.803179 
L 361.179517 123.105311 
L 366.728784 101.058547 
L 372.27805 104.293208 
L 377.827316 106.421274 
L 383.376582 102.846123 
L 388.925848 116.891358 
L 394.475114 103.016368 
L 400.024381 119.359915 
L 405.573647 105.740292 
L 411.122913 102.165142 
L 416.672179 107.442745 
L 422.221445 102.165142 
L 427.770711 102.675877 
L 433.319978 103.952717 
L 438.869244 104.548575 
L 444.41851 125.3185 
L 449.967776 106.932009 
L 455.517042 106.846887 
L 461.066308 103.186613 
L 466.615575 112.124491 
L 472.164841 104.122962 
L 477.714107 104.974189 
L 483.263373 101.824651 
L 488.812639 111.869123 
L 494.361905 106.761764 
L 499.911172 101.824651 
L 505.460438 101.313915 
L 511.009704 109.826179 
L 516.55897 102.846123 
L 522.108236 106.506396 
L 527.657502 100.632934 
L 533.206769 98.419745 
L 538.756035 103.441981 
L 544.305301 104.208085 
L 549.854567 102.165142 
L 555.403833 106.591519 
L 560.953099 105.825415 
L 566.502366 105.65517 
L 572.051632 110.932774 
L 577.600898 115.955009 
L 583.150164 101.48416 
L 588.69943 101.313915 
L 594.248696 101.739528 
L 599.797963 107.527868 
L 605.347229 98.504868 
L 610.896495 109.145198 
L 616.445761 101.14367 
" clip-path="url(#p6a7278e7b0)" style="fill: none; stroke: #008000; stroke-opacity: 0.27; stroke-width: 1.25; stroke-linecap: round"/>
   </g>
   <g id="line2d_12">
    <path d="M 67.06841 390.305283 
L 72.617677 390.305283 
L 78.166943 390.305283 
L 83.716209 390.305283 
L 89.265475 390.305283 
L 94.814741 390.305283 
L 100.364007 390.305283 
L 105.913274 390.305283 
L 111.46254 390.305283 
L 117.011806 390.305283 
L 122.561072 390.305283 
L 128.110338 390.305283 
L 133.659604 390.305283 
L 139.208871 390.305283 
L 144.758137 390.305283 
L 150.307403 390.305283 
L 155.856669 390.305283 
L 161.405935 390.305283 
L 166.955202 390.305283 
L 172.504468 390.305283 
L 178.053734 390.305283 
L 183.603 390.305283 
L 189.152266 389.028443 
L 194.701532 386.219396 
L 200.250799 390.305283 
L 205.800065 325.356708 
L 211.349331 349.786906 
L 216.898597 326.293057 
L 222.447863 308.076811 
L 227.997129 343.572953 
L 233.546396 234.87134 
L 239.095662 330.123575 
L 244.644928 294.372066 
L 250.194194 276.070698 
L 255.74346 274.878981 
L 261.292726 233.424255 
L 266.841993 203.546208 
L 272.391259 261.94034 
L 277.940525 241.00017 
L 283.489791 217.080708 
L 289.039057 228.402019 
L 294.588323 270.452604 
L 300.13759 215.974113 
L 305.686856 200.992528 
L 311.236122 231.381311 
L 316.785388 200.39667 
L 322.334654 169.326906 
L 327.88392 244.745566 
L 333.433187 156.643632 
L 338.982453 153.749462 
L 344.531719 205.078415 
L 350.080985 167.028594 
L 355.630251 200.566915 
L 361.179517 139.193491 
L 366.728784 131.787821 
L 372.27805 193.246368 
L 377.827316 136.299321 
L 383.376582 167.19884 
L 388.925848 124.978009 
L 394.475114 128.382915 
L 400.024381 184.819226 
L 405.573647 150.429679 
L 411.122913 150.089189 
L 416.672179 118.083075 
L 422.221445 116.465745 
L 427.770711 117.231849 
L 433.319978 141.491802 
L 438.869244 111.613755 
L 444.41851 112.209613 
L 449.967776 104.974189 
L 455.517042 144.215726 
L 461.066308 104.03784 
L 466.615575 105.399802 
L 472.164841 110.932774 
L 477.714107 108.974953 
L 483.263373 114.082311 
L 488.812639 106.591519 
L 494.361905 103.356858 
L 499.911172 148.131368 
L 505.460438 105.314679 
L 511.009704 110.677406 
L 516.55897 115.869887 
L 522.108236 107.527868 
L 527.657502 113.40133 
L 533.206769 111.528632 
L 538.756035 114.848415 
L 544.305301 103.016368 
L 549.854567 113.06084 
L 555.403833 111.103019 
L 560.953099 103.101491 
L 566.502366 103.271736 
L 572.051632 138.853 
L 577.600898 145.407443 
L 583.150164 114.337679 
L 588.69943 123.190434 
L 594.248696 110.422038 
L 599.797963 102.931245 
L 605.347229 149.15284 
L 610.896495 141.066189 
L 616.445761 177.158189 
" clip-path="url(#p6a7278e7b0)" style="fill: none; stroke: #008000; stroke-opacity: 0.27; stroke-width: 1.25; stroke-linecap: round"/>
   </g>
   <g id="line2d_13">
    <path d="M 67.06841 373.536123 
L 72.617677 326.293057 
L 78.166943 360.682604 
L 83.716209 297.691849 
L 89.265475 283.987104 
L 94.814741 280.411953 
L 100.364007 240.234066 
L 105.913274 249.512434 
L 111.46254 200.566915 
L 117.011806 194.693453 
L 122.561072 193.671981 
L 128.110338 169.15666 
L 133.659604 149.323085 
L 139.208871 160.048538 
L 144.758137 146.428915 
L 150.307403 137.57616 
L 155.856669 123.360679 
L 161.405935 127.106075 
L 166.955202 127.872179 
L 172.504468 111.188142 
L 178.053734 124.467274 
L 183.603 125.3185 
L 189.152266 117.57234 
L 194.701532 136.895179 
L 200.250799 109.570811 
L 205.800065 105.144434 
L 211.349331 105.825415 
L 216.898597 112.805472 
L 222.447863 105.99566 
L 227.997129 105.99566 
L 233.546396 108.379094 
L 239.095662 106.251028 
L 244.644928 103.952717 
L 250.194194 105.99566 
L 255.74346 104.548575 
L 261.292726 105.65517 
L 266.841993 105.229557 
L 272.391259 102.761 
L 277.940525 103.101491 
L 283.489791 101.48416 
L 289.039057 105.314679 
L 294.588323 108.208849 
L 300.13759 112.294736 
L 305.686856 107.2725 
L 311.236122 104.293208 
L 316.785388 105.740292 
L 322.334654 103.441981 
L 327.88392 101.399038 
L 333.433187 111.358387 
L 338.982453 114.933538 
L 344.531719 101.228792 
L 350.080985 124.467274 
L 355.630251 103.867594 
L 361.179517 107.017132 
L 366.728784 105.314679 
L 372.27805 104.208085 
L 377.827316 107.187377 
L 383.376582 118.849179 
L 388.925848 106.165906 
L 394.475114 115.359151 
L 400.024381 104.633698 
L 405.573647 108.54934 
L 411.122913 105.825415 
L 416.672179 101.739528 
L 422.221445 112.124491 
L 427.770711 102.931245 
L 433.319978 106.676642 
L 438.869244 103.867594 
L 444.41851 119.359915 
L 449.967776 102.080019 
L 455.517042 113.231085 
L 461.066308 108.88983 
L 466.615575 103.697349 
L 472.164841 100.037075 
L 477.714107 116.210377 
L 483.263373 103.612226 
L 488.812639 104.122962 
L 494.361905 100.207321 
L 499.911172 111.358387 
L 505.460438 151.791642 
L 511.009704 107.527868 
L 516.55897 107.953481 
L 522.108236 122.594575 
L 527.657502 105.910538 
L 533.206769 105.570047 
L 538.756035 108.464217 
L 544.305301 107.442745 
L 549.854567 103.782472 
L 555.403833 105.825415 
L 560.953099 102.675877 
L 566.502366 111.188142 
L 572.051632 104.548575 
L 577.600898 104.122962 
L 583.150164 104.463453 
L 588.69943 102.250264 
L 594.248696 109.655934 
L 599.797963 103.271736 
L 605.347229 103.441981 
L 610.896495 137.916651 
L 616.445761 111.613755 
" clip-path="url(#p6a7278e7b0)" style="fill: none; stroke: #008000; stroke-opacity: 0.27; stroke-width: 1.25; stroke-linecap: round"/>
   </g>
   <g id="line2d_14">
    <path d="M 67.06841 390.305283 
L 72.617677 390.305283 
L 78.166943 390.305283 
L 83.716209 390.305283 
L 89.265475 390.305283 
L 94.814741 390.305283 
L 100.364007 390.305283 
L 105.913274 390.305283 
L 111.46254 390.305283 
L 117.011806 390.305283 
L 122.561072 390.305283 
L 128.110338 390.305283 
L 133.659604 390.305283 
L 139.208871 390.305283 
L 144.758137 390.305283 
L 150.307403 390.305283 
L 155.856669 390.305283 
L 161.405935 390.305283 
L 166.955202 390.305283 
L 172.504468 390.305283 
L 178.053734 390.305283 
L 183.603 390.305283 
L 189.152266 390.305283 
L 194.701532 390.305283 
L 200.250799 390.305283 
L 205.800065 390.305283 
L 211.349331 390.305283 
L 216.898597 390.305283 
L 222.447863 390.305283 
L 227.997129 390.305283 
L 233.546396 390.305283 
L 239.095662 390.305283 
L 244.644928 390.305283 
L 250.194194 390.305283 
L 255.74346 390.305283 
L 261.292726 390.305283 
L 266.841993 390.305283 
L 272.391259 390.305283 
L 277.940525 390.305283 
L 283.489791 390.305283 
L 289.039057 390.305283 
L 294.588323 390.305283 
L 300.13759 390.305283 
L 305.686856 390.305283 
L 311.236122 390.305283 
L 316.785388 390.305283 
L 322.334654 390.305283 
L 327.88392 390.305283 
L 333.433187 390.305283 
L 338.982453 390.305283 
L 344.531719 390.305283 
L 350.080985 390.305283 
L 355.630251 390.305283 
L 361.179517 390.305283 
L 366.728784 390.305283 
L 372.27805 390.305283 
L 377.827316 390.305283 
L 383.376582 390.305283 
L 388.925848 386.645009 
L 394.475114 352.340585 
L 400.024381 331.826028 
L 405.573647 244.830689 
L 411.122913 267.984047 
L 416.672179 242.447255 
L 422.221445 240.915047 
L 427.770711 217.080708 
L 433.319978 214.101415 
L 438.869244 164.815406 
L 444.41851 201.247896 
L 449.967776 242.277009 
L 455.517042 178.860642 
L 461.066308 280.156585 
L 466.615575 223.805396 
L 472.164841 216.314604 
L 477.714107 212.484085 
L 483.263373 216.059236 
L 488.812639 271.30383 
L 494.361905 231.551557 
L 499.911172 199.460321 
L 505.460438 258.024698 
L 511.009704 241.851396 
L 516.55897 202.865226 
L 522.108236 166.773226 
L 527.657502 200.311547 
L 533.206769 186.947292 
L 538.756035 210.866755 
L 544.305301 171.625217 
L 549.854567 165.241019 
L 555.403833 169.667396 
L 560.953099 194.012472 
L 566.502366 217.080708 
L 572.051632 190.181953 
L 577.600898 183.287019 
L 583.150164 156.047774 
L 588.69943 224.741745 
L 594.248696 150.855292 
L 599.797963 167.879821 
L 605.347229 168.901292 
L 610.896495 175.370613 
L 616.445761 168.81617 
" clip-path="url(#p6a7278e7b0)" style="fill: none; stroke: #008000; stroke-opacity: 0.27; stroke-width: 1.25; stroke-linecap: round"/>
   </g>
   <g id="line2d_15">
    <path d="M 67.06841 49.814717 
L 72.617677 64.093272 
L 78.166943 85.602646 
L 83.716209 91.122569 
L 89.265475 109.536834 
L 94.814741 108.707693 
L 100.364007 123.275571 
L 105.913274 128.275862 
L 111.46254 140.059439 
L 117.011806 160.262564 
L 122.561072 164.417413 
L 128.110338 177.427487 
L 133.659604 180.942508 
L 139.208871 184.11182 
L 144.758137 195.635392 
L 150.307403 208.259596 
L 155.856669 213.851785 
L 161.405935 220.822174 
L 166.955202 230.446145 
L 172.504468 240.54841 
L 178.053734 250.078139 
L 183.603 265.591674 
L 189.152266 275.552053 
L 194.701532 283.590046 
L 200.250799 289.452335 
L 205.800065 290.350038 
L 211.349331 298.090654 
L 216.898597 297.254624 
L 222.447863 294.654071 
L 227.997129 298.897358 
L 233.546396 319.199586 
L 239.095662 328.985696 
L 244.644928 332.914833 
L 250.194194 332.791907 
L 255.74346 342.960519 
L 261.292726 341.385127 
L 266.841993 341.927567 
L 272.391259 348.634752 
L 277.940525 346.107488 
L 283.489791 339.642194 
L 289.039057 326.099672 
L 294.588323 330.15733 
L 300.13759 336.285325 
L 305.686856 336.81553 
L 311.236122 337.028221 
L 316.785388 326.868494 
L 322.334654 329.035985 
L 327.88392 331.322545 
L 333.433187 327.484947 
L 338.982453 327.417749 
L 344.531719 327.648553 
L 350.080985 327.618691 
L 355.630251 332.866583 
L 361.179517 344.813393 
L 366.728784 347.398249 
L 372.27805 348.067476 
L 377.827316 350.058899 
L 383.376582 352.029057 
L 388.925848 357.380672 
L 394.475114 362.420361 
L 400.024381 366.164995 
L 405.573647 364.827308 
L 411.122913 364.632705 
L 416.672179 367.026467 
L 422.221445 370.763043 
L 427.770711 365.797899 
L 433.319978 373.943582 
L 438.869244 370.978725 
L 444.41851 376.182815 
L 449.967776 376.704644 
L 455.517042 372.308353 
L 461.066308 378.99493 
L 466.615575 381.025697 
L 472.164841 383.036711 
L 477.714107 383.962607 
L 483.263373 386.190034 
L 488.812639 387.101689 
L 494.361905 388.125446 
L 499.911172 382.888473 
L 505.460438 390.305283 
L 511.009704 388.499323 
L 516.55897 388.231689 
L 522.108236 386.615231 
L 527.657502 385.771118 
L 533.206769 387.865247 
L 538.756035 387.322676 
L 544.305301 389.161052 
L 549.854567 389.695191 
L 555.403833 390.084348 
L 560.953099 387.985737 
L 566.502366 388.357843 
L 572.051632 384.415596 
L 577.600898 384.675921 
L 583.150164 386.471669 
L 588.69943 387.839231 
L 594.248696 385.679453 
L 599.797963 383.109836 
L 605.347229 385.928092 
L 610.896495 388.958491 
L 616.445761 387.900009 
" clip-path="url(#p6a7278e7b0)" style="fill: none; stroke: #7b3ab8; stroke-width: 1.5; stroke-linecap: round"/>
   </g>
   <g id="patch_3">
    <path d="M 56.23 400.52 
L 56.23 39.6 
" style="fill: none; stroke: #ffffff; stroke-width: 0.8; stroke-linejoin: miter; stroke-linecap: square"/>
   </g>
   <g id="patch_4">
    <path d="M 623.801429 400.52 
L 623.801429 39.6 
" style="fill: none; stroke: #ffffff; stroke-width: 0.8; stroke-linejoin: miter; stroke-linecap: square"/>
   </g>
   <g id="patch_5">
    <path d="M 56.23 400.52 
L 623.801429 400.52 
" style="fill: none; stroke: #ffffff; stroke-width: 0.8; stroke-linejoin: miter; stroke-linecap: square"/>
   </g>
   <g id="patch_6">
    <path d="M 56.23 39.6 
L 623.801429 39.6 
" style="fill: none; stroke: #ffffff; stroke-width: 0.8; stroke-linejoin: miter; stroke-linecap: square"/>
   </g>
  </g>
  <g id="text_9">
   <!-- Acrobot-v1 | CMU-Net (Alignment + Penalty) -->
   <g style="fill: #262626" transform="translate(98.410781 22.395938) scale(0.18 -0.18)">
    <defs>
     <path id="DejaVuSans-Bold-41" d="M 3419 850 
L 1538 850 
L 1241 0 
L 31 0 
L 1759 4666 
L 3194 4666 
L 4922 0 
L 3713 0 
L 3419 850 
z
M 1838 1716 
L 3116 1716 
L 2478 3572 
L 1838 1716 
z
" transform="scale(0.015625)"/>
     <path id="DejaVuSans-Bold-63" d="M 3366 3391 
L 3366 2478 
Q 3138 2634 2908 2709 
Q 2678 2784 2431 2784 
Q 1963 2784 1702 2511 
Q 1441 2238 1441 1747 
Q 1441 1256 1702 982 
Q 1963 709 2431 709 
Q 2694 709 2930 787 
Q 3166 866 3366 1019 
L 3366 103 
Q 3103 6 2833 -42 
Q 2563 -91 2291 -91 
Q 1344 -91 809 395 
Q 275 881 275 1747 
Q 275 2613 809 3098 
Q 1344 3584 2291 3584 
Q 2566 3584 2833 3536 
Q 3100 3488 3366 3391 
z
" transform="scale(0.015625)"/>
     <path id="DejaVuSans-Bold-72" d="M 3138 2547 
Q 2991 2616 2845 2648 
Q 2700 2681 2553 2681 
Q 2122 2681 1889 2404 
Q 1656 2128 1656 1613 
L 1656 0 
L 538 0 
L 538 3500 
L 1656 3500 
L 1656 2925 
Q 1872 3269 2151 3426 
Q 2431 3584 2822 3584 
Q 2878 3584 2943 3579 
Q 3009 3575 3134 3559 
L 3138 2547 
z
" transform="scale(0.015625)"/>
     <path id="DejaVuSans-Bold-6f" d="M 2203 2784 
Q 1831 2784 1636 2517 
Q 1441 2250 1441 1747 
Q 1441 1244 1636 976 
Q 1831 709 2203 709 
Q 2569 709 2762 976 
Q 2956 1244 2956 1747 
Q 2956 2250 2762 2517 
Q 2569 2784 2203 2784 
z
M 2203 3584 
Q 3106 3584 3614 3096 
Q 4122 2609 4122 1747 
Q 4122 884 3614 396 
Q 3106 -91 2203 -91 
Q 1297 -91 786 396 
Q 275 884 275 1747 
Q 275 2609 786 3096 
Q 1297 3584 2203 3584 
z
" transform="scale(0.015625)"/>
     <path id="DejaVuSans-Bold-62" d="M 2400 722 
Q 2759 722 2948 984 
Q 3138 1247 3138 1747 
Q 3138 2247 2948 2509 
Q 2759 2772 2400 2772 
Q 2041 2772 1848 2508 
Q 1656 2244 1656 1747 
Q 1656 1250 1848 986 
Q 2041 722 2400 722 
z
M 1656 2988 
Q 1888 3294 2169 3439 
Q 2450 3584 2816 3584 
Q 3463 3584 3878 3070 
Q 4294 2556 4294 1747 
Q 4294 938 3878 423 
Q 3463 -91 2816 -91 
Q 2450 -91 2169 54 
Q 1888 200 1656 506 
L 1656 0 
L 538 0 
L 538 4863 
L 1656 4863 
L 1656 2988 
z
" transform="scale(0.015625)"/>
     <path id="DejaVuSans-Bold-74" d="M 1759 4494 
L 1759 3500 
L 2913 3500 
L 2913 2700 
L 1759 2700 
L 1759 1216 
Q 1759 972 1856 886 
Q 1953 800 2241 800 
L 2816 800 
L 2816 0 
L 1856 0 
Q 1194 0 917 276 
Q 641 553 641 1216 
L 641 2700 
L 84 2700 
L 84 3500 
L 641 3500 
L 641 4494 
L 1759 4494 
z
" transform="scale(0.015625)"/>
     <path id="DejaVuSans-Bold-2d" d="M 347 2297 
L 2309 2297 
L 2309 1388 
L 347 1388 
L 347 2297 
z
" transform="scale(0.015625)"/>
     <path id="DejaVuSans-Bold-76" d="M 97 3500 
L 1216 3500 
L 2088 1081 
L 2956 3500 
L 4078 3500 
L 2700 0 
L 1472 0 
L 97 3500 
z
" transform="scale(0.015625)"/>
     <path id="DejaVuSans-Bold-31" d="M 750 831 
L 1813 831 
L 1813 3847 
L 722 3622 
L 722 4441 
L 1806 4666 
L 2950 4666 
L 2950 831 
L 4013 831 
L 4013 0 
L 750 0 
L 750 831 
z
" transform="scale(0.015625)"/>
     <path id="DejaVuSans-Bold-20" transform="scale(0.015625)"/>
     <path id="DejaVuSans-Bold-7c" d="M 1522 4891 
L 1522 -1509 
L 813 -1509 
L 813 4891 
L 1522 4891 
z
" transform="scale(0.015625)"/>
     <path id="DejaVuSans-Bold-43" d="M 4288 256 
Q 3956 84 3597 -3 
Q 3238 -91 2847 -91 
Q 1681 -91 1000 561 
Q 319 1213 319 2328 
Q 319 3447 1000 4098 
Q 1681 4750 2847 4750 
Q 3238 4750 3597 4662 
Q 3956 4575 4288 4403 
L 4288 3438 
Q 3953 3666 3628 3772 
Q 3303 3878 2944 3878 
Q 2300 3878 1931 3465 
Q 1563 3053 1563 2328 
Q 1563 1606 1931 1193 
Q 2300 781 2944 781 
Q 3303 781 3628 887 
Q 3953 994 4288 1222 
L 4288 256 
z
" transform="scale(0.015625)"/>
     <path id="DejaVuSans-Bold-4d" d="M 588 4666 
L 2119 4666 
L 3181 2169 
L 4250 4666 
L 5778 4666 
L 5778 0 
L 4641 0 
L 4641 3413 
L 3566 897 
L 2803 897 
L 1728 3413 
L 1728 0 
L 588 0 
L 588 4666 
z
" transform="scale(0.015625)"/>
     <path id="DejaVuSans-Bold-55" d="M 588 4666 
L 1791 4666 
L 1791 1869 
Q 1791 1291 1980 1042 
Q 2169 794 2597 794 
Q 3028 794 3217 1042 
Q 3406 1291 3406 1869 
L 3406 4666 
L 4609 4666 
L 4609 1869 
Q 4609 878 4112 393 
Q 3616 -91 2597 -91 
Q 1581 -91 1084 393 
Q 588 878 588 1869 
L 588 4666 
z
" transform="scale(0.015625)"/>
     <path id="DejaVuSans-Bold-4e" d="M 588 4666 
L 1931 4666 
L 3628 1466 
L 3628 4666 
L 4769 4666 
L 4769 0 
L 3425 0 
L 1728 3200 
L 1728 0 
L 588 0 
L 588 4666 
z
" transform="scale(0.015625)"/>
     <path id="DejaVuSans-Bold-65" d="M 4031 1759 
L 4031 1441 
L 1416 1441 
Q 1456 1047 1700 850 
Q 1944 653 2381 653 
Q 2734 653 3104 758 
Q 3475 863 3866 1075 
L 3866 213 
Q 3469 63 3072 -14 
Q 2675 -91 2278 -91 
Q 1328 -91 801 392 
Q 275 875 275 1747 
Q 275 2603 792 3093 
Q 1309 3584 2216 3584 
Q 3041 3584 3536 3087 
Q 4031 2591 4031 1759 
z
M 2881 2131 
Q 2881 2450 2695 2645 
Q 2509 2841 2209 2841 
Q 1884 2841 1681 2658 
Q 1478 2475 1428 2131 
L 2881 2131 
z
" transform="scale(0.015625)"/>
     <path id="DejaVuSans-Bold-28" d="M 2413 -844 
L 1484 -844 
Q 1006 -72 778 623 
Q 550 1319 550 2003 
Q 550 2688 779 3389 
Q 1009 4091 1484 4856 
L 2413 4856 
Q 2013 4116 1813 3408 
Q 1613 2700 1613 2009 
Q 1613 1319 1811 609 
Q 2009 -100 2413 -844 
z
" transform="scale(0.015625)"/>
     <path id="DejaVuSans-Bold-6c" d="M 538 4863 
L 1656 4863 
L 1656 0 
L 538 0 
L 538 4863 
z
" transform="scale(0.015625)"/>
     <path id="DejaVuSans-Bold-69" d="M 538 3500 
L 1656 3500 
L 1656 0 
L 538 0 
L 538 3500 
z
M 538 4863 
L 1656 4863 
L 1656 3950 
L 538 3950 
L 538 4863 
z
" transform="scale(0.015625)"/>
     <path id="DejaVuSans-Bold-67" d="M 2919 594 
Q 2688 288 2409 144 
Q 2131 0 1766 0 
Q 1125 0 706 504 
Q 288 1009 288 1791 
Q 288 2575 706 3076 
Q 1125 3578 1766 3578 
Q 2131 3578 2409 3434 
Q 2688 3291 2919 2981 
L 2919 3500 
L 4044 3500 
L 4044 353 
Q 4044 -491 3511 -936 
Q 2978 -1381 1966 -1381 
Q 1638 -1381 1331 -1331 
Q 1025 -1281 716 -1178 
L 716 -306 
Q 1009 -475 1290 -558 
Q 1572 -641 1856 -641 
Q 2406 -641 2662 -400 
Q 2919 -159 2919 353 
L 2919 594 
z
M 2181 2772 
Q 1834 2772 1640 2515 
Q 1447 2259 1447 1791 
Q 1447 1309 1634 1061 
Q 1822 813 2181 813 
Q 2531 813 2725 1069 
Q 2919 1325 2919 1791 
Q 2919 2259 2725 2515 
Q 2531 2772 2181 2772 
z
" transform="scale(0.015625)"/>
     <path id="DejaVuSans-Bold-6e" d="M 4056 2131 
L 4056 0 
L 2931 0 
L 2931 347 
L 2931 1631 
Q 2931 2084 2911 2256 
Q 2891 2428 2841 2509 
Q 2775 2619 2662 2680 
Q 2550 2741 2406 2741 
Q 2056 2741 1856 2470 
Q 1656 2200 1656 1722 
L 1656 0 
L 538 0 
L 538 3500 
L 1656 3500 
L 1656 2988 
Q 1909 3294 2193 3439 
Q 2478 3584 2822 3584 
Q 3428 3584 3742 3212 
Q 4056 2841 4056 2131 
z
" transform="scale(0.015625)"/>
     <path id="DejaVuSans-Bold-6d" d="M 3781 2919 
Q 3994 3244 4286 3414 
Q 4578 3584 4928 3584 
Q 5531 3584 5847 3212 
Q 6163 2841 6163 2131 
L 6163 0 
L 5038 0 
L 5038 1825 
Q 5041 1866 5042 1909 
Q 5044 1953 5044 2034 
Q 5044 2406 4934 2573 
Q 4825 2741 4581 2741 
Q 4263 2741 4089 2478 
Q 3916 2216 3909 1719 
L 3909 0 
L 2784 0 
L 2784 1825 
Q 2784 2406 2684 2573 
Q 2584 2741 2328 2741 
Q 2006 2741 1831 2477 
Q 1656 2213 1656 1722 
L 1656 0 
L 531 0 
L 531 3500 
L 1656 3500 
L 1656 2988 
Q 1863 3284 2130 3434 
Q 2397 3584 2719 3584 
Q 3081 3584 3359 3409 
Q 3638 3234 3781 2919 
z
" transform="scale(0.015625)"/>
     <path id="DejaVuSans-Bold-2b" d="M 3053 4013 
L 3053 2375 
L 4684 2375 
L 4684 1638 
L 3053 1638 
L 3053 0 
L 2309 0 
L 2309 1638 
L 678 1638 
L 678 2375 
L 2309 2375 
L 2309 4013 
L 3053 4013 
z
" transform="scale(0.015625)"/>
     <path id="DejaVuSans-Bold-50" d="M 588 4666 
L 2584 4666 
Q 3475 4666 3951 4270 
Q 4428 3875 4428 3144 
Q 4428 2409 3951 2014 
Q 3475 1619 2584 1619 
L 1791 1619 
L 1791 0 
L 588 0 
L 588 4666 
z
M 1791 3794 
L 1791 2491 
L 2456 2491 
Q 2806 2491 2997 2661 
Q 3188 2831 3188 3144 
Q 3188 3456 2997 3625 
Q 2806 3794 2456 3794 
L 1791 3794 
z
" transform="scale(0.015625)"/>
     <path id="DejaVuSans-Bold-61" d="M 2106 1575 
Q 1756 1575 1579 1456 
Q 1403 1338 1403 1106 
Q 1403 894 1545 773 
Q 1688 653 1941 653 
Q 2256 653 2472 879 
Q 2688 1106 2688 1447 
L 2688 1575 
L 2106 1575 
z
M 3816 1997 
L 3816 0 
L 2688 0 
L 2688 519 
Q 2463 200 2181 54 
Q 1900 -91 1497 -91 
Q 953 -91 614 226 
Q 275 544 275 1050 
Q 275 1666 698 1953 
Q 1122 2241 2028 2241 
L 2688 2241 
L 2688 2328 
Q 2688 2594 2478 2717 
Q 2269 2841 1825 2841 
Q 1466 2841 1156 2769 
Q 847 2697 581 2553 
L 581 3406 
Q 941 3494 1303 3539 
Q 1666 3584 2028 3584 
Q 2975 3584 3395 3211 
Q 3816 2838 3816 1997 
z
" transform="scale(0.015625)"/>
     <path id="DejaVuSans-Bold-79" d="M 78 3500 
L 1197 3500 
L 2138 1125 
L 2938 3500 
L 4056 3500 
L 2584 -331 
Q 2363 -916 2067 -1148 
Q 1772 -1381 1288 -1381 
L 641 -1381 
L 641 -647 
L 991 -647 
Q 1275 -647 1404 -556 
Q 1534 -466 1606 -231 
L 1638 -134 
L 78 3500 
z
" transform="scale(0.015625)"/>
     <path id="DejaVuSans-Bold-29" d="M 513 -844 
Q 913 -100 1113 609 
Q 1313 1319 1313 2009 
Q 1313 2700 1113 3408 
Q 913 4116 513 4856 
L 1441 4856 
Q 1916 4091 2145 3389 
Q 2375 2688 2375 2003 
Q 2375 1319 2147 623 
Q 1919 -72 1441 -844 
L 513 -844 
z
" transform="scale(0.015625)"/>
    </defs>
    <use xlink:href="#DejaVuSans-Bold-41"/>
    <use xlink:href="#DejaVuSans-Bold-63" transform="translate(77.392578 0)"/>
    <use xlink:href="#DejaVuSans-Bold-72" transform="translate(136.669922 0)"/>
    <use xlink:href="#DejaVuSans-Bold-6f" transform="translate(185.986328 0)"/>
    <use xlink:href="#DejaVuSans-Bold-62" transform="translate(254.6875 0)"/>
    <use xlink:href="#DejaVuSans-Bold-6f" transform="translate(326.269531 0)"/>
    <use xlink:href="#DejaVuSans-Bold-74" transform="translate(394.970703 0)"/>
    <use xlink:href="#DejaVuSans-Bold-2d" transform="translate(442.773438 0)"/>
    <use xlink:href="#DejaVuSans-Bold-76" transform="translate(484.277344 0)"/>
    <use xlink:href="#DejaVuSans-Bold-31" transform="translate(549.462891 0)"/>
    <use xlink:href="#DejaVuSans-Bold-20" transform="translate(619.042969 0)"/>
    <use xlink:href="#DejaVuSans-Bold-7c" transform="translate(653.857422 0)"/>
    <use xlink:href="#DejaVuSans-Bold-20" transform="translate(690.380859 0)"/>
    <use xlink:href="#DejaVuSans-Bold-43" transform="translate(725.195312 0)"/>
    <use xlink:href="#DejaVuSans-Bold-4d" transform="translate(798.583984 0)"/>
    <use xlink:href="#DejaVuSans-Bold-55" transform="translate(898.095703 0)"/>
    <use xlink:href="#DejaVuSans-Bold-2d" transform="translate(979.296875 0)"/>
    <use xlink:href="#DejaVuSans-Bold-4e" transform="translate(1020.800781 0)"/>
    <use xlink:href="#DejaVuSans-Bold-65" transform="translate(1104.492188 0)"/>
    <use xlink:href="#DejaVuSans-Bold-74" transform="translate(1172.314453 0)"/>
    <use xlink:href="#DejaVuSans-Bold-20" transform="translate(1220.117188 0)"/>
    <use xlink:href="#DejaVuSans-Bold-28" transform="translate(1254.931641 0)"/>
    <use xlink:href="#DejaVuSans-Bold-41" transform="translate(1300.634766 0)"/>
    <use xlink:href="#DejaVuSans-Bold-6c" transform="translate(1378.027344 0)"/>
    <use xlink:href="#DejaVuSans-Bold-69" transform="translate(1412.304688 0)"/>
    <use xlink:href="#DejaVuSans-Bold-67" transform="translate(1446.582031 0)"/>
    <use xlink:href="#DejaVuSans-Bold-6e" transform="translate(1518.164062 0)"/>
    <use xlink:href="#DejaVuSans-Bold-6d" transform="translate(1589.355469 0)"/>
    <use xlink:href="#DejaVuSans-Bold-65" transform="translate(1693.554688 0)"/>
    <use xlink:href="#DejaVuSans-Bold-6e" transform="translate(1761.376953 0)"/>
    <use xlink:href="#DejaVuSans-Bold-74" transform="translate(1832.568359 0)"/>
    <use xlink:href="#DejaVuSans-Bold-20" transform="translate(1880.371094 0)"/>
    <use xlink:href="#DejaVuSans-Bold-2b" transform="translate(1915.185547 0)"/>
    <use xlink:href="#DejaVuSans-Bold-20" transform="translate(1998.974609 0)"/>
    <use xlink:href="#DejaVuSans-Bold-50" transform="translate(2033.789062 0)"/>
    <use xlink:href="#DejaVuSans-Bold-65" transform="translate(2107.080078 0)"/>
    <use xlink:href="#DejaVuSans-Bold-6e" transform="translate(2174.902344 0)"/>
    <use xlink:href="#DejaVuSans-Bold-61" transform="translate(2246.09375 0)"/>
    <use xlink:href="#DejaVuSans-Bold-6c" transform="translate(2313.574219 0)"/>
    <use xlink:href="#DejaVuSans-Bold-74" transform="translate(2347.851562 0)"/>
    <use xlink:href="#DejaVuSans-Bold-79" transform="translate(2395.654297 0)"/>
    <use xlink:href="#DejaVuSans-Bold-29" transform="translate(2460.839844 0)"/>
   </g>
  </g>
 </g>
 <defs>
  <clipPath id="p6a7278e7b0">
   <rect x="56.23" y="39.6" width="567.571429" height="360.92"/>
  </clipPath>
 </defs>
</svg>
