<?xml version="1.0" encoding="utf-8" standalone="no"?>
<!DOCTYPE svg PUBLIC "-//W3C//DTD SVG 1.1//EN"
  "http://www.w3.org/Graphics/SVG/1.1/DTD/svg11.dtd">
<svg xmlns:xlink="http://www.w3.org/1999/xlink" width="648pt" height="432pt" viewBox="0 0 648 432" xmlns="http://www.w3.org/2000/svg" version="1.1">
 <metadata>
  <rdf:RDF xmlns:dc="http://purl.org/dc/elements/1.1/" xmlns:cc="http://creativecommons.org/ns#" xmlns:rdf="http://www.w3.org/1999/02/22-rdf-syntax-ns#">
   <cc:Work>
    <dc:type rdf:resource="http://purl.org/dc/dcmitype/StillImage"/>
    <dc:date>2025-07-31T05:18:31.636883</dc:date>
    <dc:format>image/svg+xml</dc:format>
    <dc:creator>
     <cc:Agent>
      <dc:title>Matplotlib v3.10.0, https://matplotlib.org/</dc:title>
     </cc:Agent>
    </dc:creator>
   </cc:Work>
  </rdf:RDF>
 </metadata>
 <defs>
  <style type="text/css">*{stroke-linejoin: round; stroke-linecap: butt}</style>
 </defs>
 <g id="figure_1">
  <g id="patch_1">
   <path d="M 0 432 
L 648 432 
L 648 0 
L 0 0 
z
" style="fill: #ffffff"/>
  </g>
  <g id="axes_1">
   <g id="patch_2">
    <path d="M 56.23 400.52 
L 623.801429 400.52 
L 623.801429 39.6 
L 56.23 39.6 
z
" style="fill: #eaeaf2"/>
   </g>
   <g id="matplotlib.axis_1">
    <g id="xtick_1">
     <g id="line2d_1">
      <path d="M 67.06841 400.52 
L 67.06841 39.6 
" clip-path="url(#pc0d1472fad)" style="fill: none; stroke: #ffffff; stroke-width: 0.8; stroke-linecap: round"/>
     </g>
     <g id="text_1">
      <!-- 0 -->
      <g style="fill: #262626" transform="translate(62.61466 418.157812) scale(0.14 -0.14)">
       <defs>
        <path id="DejaVuSans-30" d="M 2034 4250 
Q 1547 4250 1301 3770 
Q 1056 3291 1056 2328 
Q 1056 1369 1301 889 
Q 1547 409 2034 409 
Q 2525 409 2770 889 
Q 3016 1369 3016 2328 
Q 3016 3291 2770 3770 
Q 2525 4250 2034 4250 
z
M 2034 4750 
Q 2819 4750 3233 4129 
Q 3647 3509 3647 2328 
Q 3647 1150 3233 529 
Q 2819 -91 2034 -91 
Q 1250 -91 836 529 
Q 422 1150 422 2328 
Q 422 3509 836 4129 
Q 1250 4750 2034 4750 
z
" transform="scale(0.015625)"/>
       </defs>
       <use xlink:href="#DejaVuSans-30"/>
      </g>
     </g>
    </g>
    <g id="xtick_2">
     <g id="line2d_2">
      <path d="M 608.988935 400.52 
L 608.988935 39.6 
" clip-path="url(#pc0d1472fad)" style="fill: none; stroke: #ffffff; stroke-width: 0.8; stroke-linecap: round"/>
     </g>
     <g id="text_2">
      <!-- 600000 -->
      <g style="fill: #262626" transform="translate(582.266435 418.157812) scale(0.14 -0.14)">
       <defs>
        <path id="DejaVuSans-36" d="M 2113 2584 
Q 1688 2584 1439 2293 
Q 1191 2003 1191 1497 
Q 1191 994 1439 701 
Q 1688 409 2113 409 
Q 2538 409 2786 701 
Q 3034 994 3034 1497 
Q 3034 2003 2786 2293 
Q 2538 2584 2113 2584 
z
M 3366 4563 
L 3366 3988 
Q 3128 4100 2886 4159 
Q 2644 4219 2406 4219 
Q 1781 4219 1451 3797 
Q 1122 3375 1075 2522 
Q 1259 2794 1537 2939 
Q 1816 3084 2150 3084 
Q 2853 3084 3261 2657 
Q 3669 2231 3669 1497 
Q 3669 778 3244 343 
Q 2819 -91 2113 -91 
Q 1303 -91 875 529 
Q 447 1150 447 2328 
Q 447 3434 972 4092 
Q 1497 4750 2381 4750 
Q 2619 4750 2861 4703 
Q 3103 4656 3366 4563 
z
" transform="scale(0.015625)"/>
       </defs>
       <use xlink:href="#DejaVuSans-36"/>
       <use xlink:href="#DejaVuSans-30" transform="translate(63.623047 0)"/>
       <use xlink:href="#DejaVuSans-30" transform="translate(127.246094 0)"/>
       <use xlink:href="#DejaVuSans-30" transform="translate(190.869141 0)"/>
       <use xlink:href="#DejaVuSans-30" transform="translate(254.492188 0)"/>
       <use xlink:href="#DejaVuSans-30" transform="translate(318.115234 0)"/>
      </g>
     </g>
    </g>
   </g>
   <g id="matplotlib.axis_2">
    <g id="ytick_1">
     <g id="line2d_3">
      <path d="M 56.23 390.305283 
L 623.801429 390.305283 
" clip-path="url(#pc0d1472fad)" style="fill: none; stroke: #ffffff; stroke-width: 0.8; stroke-linecap: round"/>
     </g>
     <g id="text_3">
      <!-- −500 -->
      <g style="fill: #262626" transform="translate(10.775938 395.624189) scale(0.14 -0.14)">
       <defs>
        <path id="DejaVuSans-2212" d="M 678 2272 
L 4684 2272 
L 4684 1741 
L 678 1741 
L 678 2272 
z
" transform="scale(0.015625)"/>
        <path id="DejaVuSans-35" d="M 691 4666 
L 3169 4666 
L 3169 4134 
L 1269 4134 
L 1269 2991 
Q 1406 3038 1543 3061 
Q 1681 3084 1819 3084 
Q 2600 3084 3056 2656 
Q 3513 2228 3513 1497 
Q 3513 744 3044 326 
Q 2575 -91 1722 -91 
Q 1428 -91 1123 -41 
Q 819 9 494 109 
L 494 744 
Q 775 591 1075 516 
Q 1375 441 1709 441 
Q 2250 441 2565 725 
Q 2881 1009 2881 1497 
Q 2881 1984 2565 2268 
Q 2250 2553 1709 2553 
Q 1456 2553 1204 2497 
Q 953 2441 691 2322 
L 691 4666 
z
" transform="scale(0.015625)"/>
       </defs>
       <use xlink:href="#DejaVuSans-2212"/>
       <use xlink:href="#DejaVuSans-35" transform="translate(83.789062 0)"/>
       <use xlink:href="#DejaVuSans-30" transform="translate(147.412109 0)"/>
       <use xlink:href="#DejaVuSans-30" transform="translate(211.035156 0)"/>
      </g>
     </g>
    </g>
    <g id="ytick_2">
     <g id="line2d_4">
      <path d="M 56.23 322.20717 
L 623.801429 322.20717 
" clip-path="url(#pc0d1472fad)" style="fill: none; stroke: #ffffff; stroke-width: 0.8; stroke-linecap: round"/>
     </g>
     <g id="text_4">
      <!-- −400 -->
      <g style="fill: #262626" transform="translate(10.775938 327.526076) scale(0.14 -0.14)">
       <defs>
        <path id="DejaVuSans-34" d="M 2419 4116 
L 825 1625 
L 2419 1625 
L 2419 4116 
z
M 2253 4666 
L 3047 4666 
L 3047 1625 
L 3713 1625 
L 3713 1100 
L 3047 1100 
L 3047 0 
L 2419 0 
L 2419 1100 
L 313 1100 
L 313 1709 
L 2253 4666 
z
" transform="scale(0.015625)"/>
       </defs>
       <use xlink:href="#DejaVuSans-2212"/>
       <use xlink:href="#DejaVuSans-34" transform="translate(83.789062 0)"/>
       <use xlink:href="#DejaVuSans-30" transform="translate(147.412109 0)"/>
       <use xlink:href="#DejaVuSans-30" transform="translate(211.035156 0)"/>
      </g>
     </g>
    </g>
    <g id="ytick_3">
     <g id="line2d_5">
      <path d="M 56.23 254.109057 
L 623.801429 254.109057 
" clip-path="url(#pc0d1472fad)" style="fill: none; stroke: #ffffff; stroke-width: 0.8; stroke-linecap: round"/>
     </g>
     <g id="text_5">
      <!-- −300 -->
      <g style="fill: #262626" transform="translate(10.775938 259.427963) scale(0.14 -0.14)">
       <defs>
        <path id="DejaVuSans-33" d="M 2597 2516 
Q 3050 2419 3304 2112 
Q 3559 1806 3559 1356 
Q 3559 666 3084 287 
Q 2609 -91 1734 -91 
Q 1441 -91 1130 -33 
Q 819 25 488 141 
L 488 750 
Q 750 597 1062 519 
Q 1375 441 1716 441 
Q 2309 441 2620 675 
Q 2931 909 2931 1356 
Q 2931 1769 2642 2001 
Q 2353 2234 1838 2234 
L 1294 2234 
L 1294 2753 
L 1863 2753 
Q 2328 2753 2575 2939 
Q 2822 3125 2822 3475 
Q 2822 3834 2567 4026 
Q 2313 4219 1838 4219 
Q 1578 4219 1281 4162 
Q 984 4106 628 3988 
L 628 4550 
Q 988 4650 1302 4700 
Q 1616 4750 1894 4750 
Q 2613 4750 3031 4423 
Q 3450 4097 3450 3541 
Q 3450 3153 3228 2886 
Q 3006 2619 2597 2516 
z
" transform="scale(0.015625)"/>
       </defs>
       <use xlink:href="#DejaVuSans-2212"/>
       <use xlink:href="#DejaVuSans-33" transform="translate(83.789062 0)"/>
       <use xlink:href="#DejaVuSans-30" transform="translate(147.412109 0)"/>
       <use xlink:href="#DejaVuSans-30" transform="translate(211.035156 0)"/>
      </g>
     </g>
    </g>
    <g id="ytick_4">
     <g id="line2d_6">
      <path d="M 56.23 186.010943 
L 623.801429 186.010943 
" clip-path="url(#pc0d1472fad)" style="fill: none; stroke: #ffffff; stroke-width: 0.8; stroke-linecap: round"/>
     </g>
     <g id="text_6">
      <!-- −200 -->
      <g style="fill: #262626" transform="translate(10.775938 191.32985) scale(0.14 -0.14)">
       <defs>
        <path id="DejaVuSans-32" d="M 1228 531 
L 3431 531 
L 3431 0 
L 469 0 
L 469 531 
Q 828 903 1448 1529 
Q 2069 2156 2228 2338 
Q 2531 2678 2651 2914 
Q 2772 3150 2772 3378 
Q 2772 3750 2511 3984 
Q 2250 4219 1831 4219 
Q 1534 4219 1204 4116 
Q 875 4013 500 3803 
L 500 4441 
Q 881 4594 1212 4672 
Q 1544 4750 1819 4750 
Q 2544 4750 2975 4387 
Q 3406 4025 3406 3419 
Q 3406 3131 3298 2873 
Q 3191 2616 2906 2266 
Q 2828 2175 2409 1742 
Q 1991 1309 1228 531 
z
" transform="scale(0.015625)"/>
       </defs>
       <use xlink:href="#DejaVuSans-2212"/>
       <use xlink:href="#DejaVuSans-32" transform="translate(83.789062 0)"/>
       <use xlink:href="#DejaVuSans-30" transform="translate(147.412109 0)"/>
       <use xlink:href="#DejaVuSans-30" transform="translate(211.035156 0)"/>
      </g>
     </g>
    </g>
    <g id="ytick_5">
     <g id="line2d_7">
      <path d="M 56.23 117.91283 
L 623.801429 117.91283 
" clip-path="url(#pc0d1472fad)" style="fill: none; stroke: #ffffff; stroke-width: 0.8; stroke-linecap: round"/>
     </g>
     <g id="text_7">
      <!-- −100 -->
      <g style="fill: #262626" transform="translate(10.775938 123.231736) scale(0.14 -0.14)">
       <defs>
        <path id="DejaVuSans-31" d="M 794 531 
L 1825 531 
L 1825 4091 
L 703 3866 
L 703 4441 
L 1819 4666 
L 2450 4666 
L 2450 531 
L 3481 531 
L 3481 0 
L 794 0 
L 794 531 
z
" transform="scale(0.015625)"/>
       </defs>
       <use xlink:href="#DejaVuSans-2212"/>
       <use xlink:href="#DejaVuSans-31" transform="translate(83.789062 0)"/>
       <use xlink:href="#DejaVuSans-30" transform="translate(147.412109 0)"/>
       <use xlink:href="#DejaVuSans-30" transform="translate(211.035156 0)"/>
      </g>
     </g>
    </g>
    <g id="ytick_6">
     <g id="line2d_8">
      <path d="M 56.23 49.814717 
L 623.801429 49.814717 
" clip-path="url(#pc0d1472fad)" style="fill: none; stroke: #ffffff; stroke-width: 0.8; stroke-linecap: round"/>
     </g>
     <g id="text_8">
      <!-- 0 -->
      <g style="fill: #262626" transform="translate(40.3225 55.133623) scale(0.14 -0.14)">
       <use xlink:href="#DejaVuSans-30"/>
      </g>
     </g>
    </g>
   </g>
   <g id="FillBetweenPolyCollection_1">
    <path d="M 67.06841 354.346852 
L 67.06841 393.065884 
L 72.617677 406.181755 
L 78.166943 407.900638 
L 83.716209 408.642055 
L 89.265475 408.445411 
L 94.814741 412.481481 
L 100.364007 410.800493 
L 105.913274 412.864255 
L 111.46254 412.795916 
L 117.011806 412.436493 
L 122.561072 413.511785 
L 128.110338 413.52512 
L 133.659604 414.106943 
L 139.208871 414.139671 
L 144.758137 414.46025 
L 150.307403 414.295572 
L 155.856669 414.519141 
L 161.405935 411.65473 
L 166.955202 414.803106 
L 172.504468 414.166912 
L 178.053734 414.469974 
L 183.603 415.0291 
L 189.152266 414.556728 
L 194.701532 415.356842 
L 200.250799 414.483857 
L 205.800065 404.094935 
L 211.349331 404.764106 
L 216.898597 404.125249 
L 222.447863 379.944822 
L 227.997129 368.557578 
L 233.546396 365.3794 
L 239.095662 340.624902 
L 244.644928 315.281406 
L 250.194194 291.953921 
L 255.74346 257.586108 
L 261.292726 279.863756 
L 266.841993 241.251111 
L 272.391259 255.206778 
L 277.940525 205.531983 
L 283.489791 215.475822 
L 289.039057 206.503094 
L 294.588323 181.921817 
L 300.13759 139.133001 
L 305.686856 167.67512 
L 311.236122 185.159711 
L 316.785388 195.88434 
L 322.334654 157.40187 
L 327.88392 155.58486 
L 333.433187 135.844355 
L 338.982453 154.989317 
L 344.531719 125.423616 
L 350.080985 132.789479 
L 355.630251 122.579223 
L 361.179517 135.405359 
L 366.728784 117.526328 
L 372.27805 115.737844 
L 377.827316 129.293828 
L 383.376582 112.729885 
L 388.925848 118.321329 
L 394.475114 122.936315 
L 400.024381 109.723739 
L 405.573647 106.087597 
L 411.122913 110.895337 
L 416.672179 133.367826 
L 422.221445 107.483407 
L 427.770711 154.353508 
L 433.319978 130.399251 
L 438.869244 120.857566 
L 444.41851 107.976343 
L 449.967776 106.896985 
L 455.517042 110.122916 
L 461.066308 107.026295 
L 466.615575 107.696065 
L 472.164841 110.590258 
L 477.714107 119.504596 
L 483.263373 114.121213 
L 488.812639 133.381412 
L 494.361905 116.435514 
L 499.911172 128.250021 
L 505.460438 112.469672 
L 511.009704 103.582522 
L 516.55897 110.541831 
L 522.108236 110.639455 
L 527.657502 111.785116 
L 533.206769 107.547094 
L 538.756035 106.919624 
L 544.305301 109.503912 
L 549.854567 108.46333 
L 555.403833 113.776137 
L 560.953099 113.087906 
L 566.502366 109.29646 
L 572.051632 110.848795 
L 577.600898 111.259513 
L 583.150164 110.044534 
L 588.69943 110.101597 
L 594.248696 109.797222 
L 599.797963 136.400715 
L 605.347229 128.69314 
L 610.896495 115.32078 
L 616.445761 116.038775 
L 616.445761 104.294565 
L 616.445761 104.294565 
L 610.896495 103.991088 
L 605.347229 97.666882 
L 599.797963 105.621874 
L 594.248696 100.798088 
L 588.69943 103.966716 
L 583.150164 100.857217 
L 577.600898 99.301748 
L 572.051632 102.742831 
L 566.502366 102.490566 
L 560.953099 104.419362 
L 555.403833 102.948002 
L 549.854567 99.646399 
L 544.305301 99.831582 
L 538.756035 101.666791 
L 533.206769 102.673676 
L 527.657502 99.320929 
L 522.108236 100.46659 
L 516.55897 101.211147 
L 511.009704 100.509418 
L 505.460438 105.173792 
L 499.911172 96.645893 
L 494.361905 103.829727 
L 488.812639 97.302841 
L 483.263373 100.798326 
L 477.714107 96.266171 
L 472.164841 99.426217 
L 466.615575 102.32041 
L 461.066308 102.683739 
L 455.517042 101.800307 
L 449.967776 102.438509 
L 444.41851 101.018661 
L 438.869244 100.871785 
L 433.319978 101.646964 
L 427.770711 104.182873 
L 422.221445 101.954234 
L 416.672179 104.262434 
L 411.122913 101.742915 
L 405.573647 102.975505 
L 400.024381 101.824944 
L 394.475114 102.742727 
L 388.925848 102.216305 
L 383.376582 101.474624 
L 377.827316 106.872323 
L 372.27805 102.824944 
L 366.728784 106.756702 
L 361.179517 94.904354 
L 355.630251 106.98141 
L 350.080985 101.095385 
L 344.531719 97.599599 
L 338.982453 98.235412 
L 333.433187 99.981306 
L 327.88392 97.639868 
L 322.334654 99.261813 
L 316.785388 83.081475 
L 311.236122 82.127277 
L 305.686856 92.870156 
L 300.13759 99.92732 
L 294.588323 92.65167 
L 289.039057 91.359947 
L 283.489791 93.589359 
L 277.940525 94.544248 
L 272.391259 102.514505 
L 266.841993 101.931225 
L 261.292726 90.966414 
L 255.74346 97.241006 
L 250.194194 108.022241 
L 244.644928 105.975416 
L 239.095662 136.710717 
L 233.546396 119.208668 
L 227.997129 129.105327 
L 222.447863 135.321446 
L 216.898597 139.299589 
L 211.349331 141.58895 
L 205.800065 145.424684 
L 200.250799 141.811524 
L 194.701532 142.402648 
L 189.152266 152.532204 
L 183.603 145.62456 
L 178.053734 152.482761 
L 172.504468 158.472017 
L 166.955202 163.35177 
L 161.405935 184.273753 
L 155.856669 155.668256 
L 150.307403 159.398877 
L 144.758137 172.411184 
L 139.208871 161.904163 
L 133.659604 162.039038 
L 128.110338 169.056133 
L 122.561072 166.413641 
L 117.011806 173.345371 
L 111.46254 176.254657 
L 105.913274 183.540914 
L 100.364007 195.989639 
L 94.814741 211.060787 
L 89.265475 224.119857 
L 83.716209 223.65082 
L 78.166943 237.024437 
L 72.617677 299.248494 
L 67.06841 354.346852 
z
" clip-path="url(#pc0d1472fad)" style="fill: #0000ff; fill-opacity: 0.1"/>
   </g>
   <g id="line2d_9">
    <path d="M 67.06841 373.706368 
L 72.617677 352.715125 
L 78.166943 322.462538 
L 83.716209 316.146438 
L 89.265475 316.282634 
L 94.814741 311.771134 
L 100.364007 303.395066 
L 105.913274 298.202585 
L 111.46254 294.525287 
L 117.011806 292.890932 
L 122.561072 289.962713 
L 128.110338 291.290626 
L 133.659604 288.072991 
L 139.208871 288.021917 
L 144.758137 293.435717 
L 150.307403 286.847225 
L 155.856669 285.093698 
L 161.405935 297.964242 
L 166.955202 289.077438 
L 172.504468 286.319464 
L 178.053734 283.476368 
L 183.603 280.32683 
L 189.152266 283.544466 
L 194.701532 278.879745 
L 200.250799 278.147691 
L 205.800065 274.759809 
L 211.349331 273.176528 
L 216.898597 271.712419 
L 222.447863 257.633134 
L 227.997129 248.831453 
L 233.546396 242.294034 
L 239.095662 238.667809 
L 244.644928 210.628411 
L 250.194194 199.988081 
L 255.74346 177.413557 
L 261.292726 185.415085 
L 266.841993 171.591168 
L 272.391259 178.860642 
L 277.940525 150.038115 
L 283.489791 154.532591 
L 289.039057 148.931521 
L 294.588323 137.286743 
L 300.13759 119.53016 
L 305.686856 130.272638 
L 311.236122 133.643494 
L 316.785388 139.482908 
L 322.334654 128.331842 
L 327.88392 126.612364 
L 333.433187 117.91283 
L 338.982453 126.612364 
L 344.531719 111.511608 
L 350.080985 116.942432 
L 355.630251 114.780317 
L 361.179517 115.154857 
L 366.728784 112.141515 
L 372.27805 109.281394 
L 377.827316 118.083075 
L 383.376582 107.102255 
L 388.925848 110.268817 
L 394.475114 112.839521 
L 400.024381 105.774342 
L 405.573647 104.531551 
L 411.122913 106.319126 
L 416.672179 118.81513 
L 422.221445 104.718821 
L 427.770711 129.268191 
L 433.319978 116.023108 
L 438.869244 110.864675 
L 444.41851 104.497502 
L 449.967776 104.667747 
L 455.517042 105.961611 
L 461.066308 104.855017 
L 466.615575 105.008238 
L 472.164841 105.008238 
L 477.714107 107.885383 
L 483.263373 107.45977 
L 488.812639 115.342126 
L 494.361905 110.132621 
L 499.911172 112.447957 
L 505.460438 108.821732 
L 511.009704 102.04597 
L 516.55897 105.876489 
L 522.108236 105.553023 
L 527.657502 105.553023 
L 533.206769 105.110385 
L 538.756035 104.293208 
L 544.305301 104.667747 
L 549.854567 104.054864 
L 555.403833 108.36207 
L 560.953099 108.753634 
L 566.502366 105.893513 
L 572.051632 106.795813 
L 577.600898 105.28063 
L 583.150164 105.450875 
L 588.69943 107.034157 
L 594.248696 105.297655 
L 599.797963 121.011294 
L 605.347229 113.180011 
L 610.896495 109.655934 
L 616.445761 110.16667 
" clip-path="url(#pc0d1472fad)" style="fill: none; stroke: #0000ff; stroke-width: 2; stroke-linecap: round"/>
   </g>
   <g id="line2d_10">
    <path d="M 67.06841 338.210226 
L 72.617677 253.342953 
L 78.166943 189.245604 
L 83.716209 177.243311 
L 89.265475 179.030887 
L 94.814741 146.769406 
L 100.364007 150.344557 
L 105.913274 127.531689 
L 111.46254 127.020953 
L 117.011806 134.852236 
L 122.561072 119.359915 
L 128.110338 118.508689 
L 133.659604 111.954245 
L 139.208871 111.528632 
L 144.758137 110.336915 
L 150.307403 109.996425 
L 155.856669 108.123726 
L 161.405935 141.066189 
L 166.955202 104.208085 
L 172.504468 112.635226 
L 178.053734 113.145962 
L 183.603 113.231085 
L 189.152266 110.422038 
L 194.701532 109.230321 
L 200.250799 105.65517 
L 205.800065 119.104547 
L 211.349331 108.293972 
L 216.898597 108.54934 
L 222.447863 107.442745 
L 227.997129 114.167434 
L 233.546396 106.080783 
L 239.095662 155.62216 
L 244.644928 106.761764 
L 250.194194 137.320792 
L 255.74346 103.101491 
L 261.292726 101.654406 
L 266.841993 106.846887 
L 272.391259 105.65517 
L 277.940525 104.803943 
L 283.489791 105.144434 
L 289.039057 107.187377 
L 294.588323 109.741057 
L 300.13759 106.676642 
L 305.686856 107.698113 
L 311.236122 102.165142 
L 316.785388 110.847651 
L 322.334654 111.784 
L 327.88392 102.931245 
L 333.433187 102.761 
L 338.982453 141.236434 
L 344.531719 104.122962 
L 350.080985 109.826179 
L 355.630251 122.509453 
L 361.179517 106.080783 
L 366.728784 103.356858 
L 372.27805 103.697349 
L 377.827316 136.810057 
L 383.376582 113.316208 
L 388.925848 100.718057 
L 394.475114 104.889066 
L 400.024381 102.165142 
L 405.573647 103.271736 
L 411.122913 106.676642 
L 416.672179 105.740292 
L 422.221445 101.14367 
L 427.770711 115.01866 
L 433.319978 98.589991 
L 438.869244 105.740292 
L 444.41851 100.803179 
L 449.967776 102.080019 
L 455.517042 106.165906 
L 461.066308 103.867594 
L 466.615575 103.612226 
L 472.164841 98.760236 
L 477.714107 99.185849 
L 483.263373 101.654406 
L 488.812639 101.228792 
L 494.361905 100.973425 
L 499.911172 102.165142 
L 505.460438 105.314679 
L 511.009704 100.462689 
L 516.55897 104.03784 
L 522.108236 115.103783 
L 527.657502 100.973425 
L 533.206769 102.846123 
L 538.756035 100.973425 
L 544.305301 98.930481 
L 549.854567 102.931245 
L 555.403833 102.080019 
L 560.953099 106.591519 
L 566.502366 104.633698 
L 572.051632 112.975717 
L 577.600898 104.974189 
L 583.150164 97.653642 
L 588.69943 101.48416 
L 594.248696 102.250264 
L 599.797963 104.03784 
L 605.347229 101.228792 
L 610.896495 113.06084 
L 616.445761 111.613755 
" clip-path="url(#pc0d1472fad)" style="fill: none; stroke: #008000; stroke-opacity: 0.27; stroke-width: 1.25; stroke-linecap: round"/>
   </g>
   <g id="line2d_11">
    <path d="M 67.06841 380.345934 
L 72.617677 390.305283 
L 78.166943 390.305283 
L 83.716209 390.305283 
L 89.265475 390.305283 
L 94.814741 390.305283 
L 100.364007 390.305283 
L 105.913274 390.305283 
L 111.46254 390.305283 
L 117.011806 390.305283 
L 122.561072 390.305283 
L 128.110338 390.305283 
L 133.659604 390.305283 
L 139.208871 390.305283 
L 144.758137 390.305283 
L 150.307403 390.305283 
L 155.856669 390.305283 
L 161.405935 390.305283 
L 166.955202 390.305283 
L 172.504468 390.305283 
L 178.053734 390.305283 
L 183.603 390.305283 
L 189.152266 390.305283 
L 194.701532 390.305283 
L 200.250799 387.666481 
L 205.800065 359.235519 
L 211.349331 371.493179 
L 216.898597 357.533066 
L 222.447863 301.522368 
L 227.997129 267.984047 
L 233.546396 218.272425 
L 239.095662 221.67733 
L 244.644928 230.104472 
L 250.194194 177.754047 
L 255.74346 175.540858 
L 261.292726 166.347613 
L 266.841993 172.646689 
L 272.391259 202.780104 
L 277.940525 140.385208 
L 283.489791 138.597632 
L 289.039057 120.721877 
L 294.588323 117.061604 
L 300.13759 108.974953 
L 305.686856 110.50716 
L 311.236122 110.422038 
L 316.785388 110.50716 
L 322.334654 116.2955 
L 327.88392 118.168198 
L 333.433187 108.88983 
L 338.982453 111.698877 
L 344.531719 106.336151 
L 350.080985 120.892123 
L 355.630251 106.080783 
L 361.179517 107.357623 
L 366.728784 116.380623 
L 372.27805 102.846123 
L 377.827316 120.551632 
L 383.376582 102.080019 
L 388.925848 110.762528 
L 394.475114 112.209613 
L 400.024381 105.910538 
L 405.573647 105.825415 
L 411.122913 101.909774 
L 416.672179 139.959594 
L 422.221445 102.675877 
L 427.770711 170.944236 
L 433.319978 105.910538 
L 438.869244 108.719585 
L 444.41851 110.847651 
L 449.967776 102.165142 
L 455.517042 102.846123 
L 461.066308 106.846887 
L 466.615575 100.973425 
L 472.164841 100.547811 
L 477.714107 103.186613 
L 483.263373 119.700406 
L 488.812639 102.931245 
L 494.361905 111.954245 
L 499.911172 101.654406 
L 505.460438 105.229557 
L 511.009704 102.761 
L 516.55897 101.994896 
L 522.108236 104.718821 
L 527.657502 105.059311 
L 533.206769 102.420509 
L 538.756035 102.761 
L 544.305301 104.548575 
L 549.854567 100.292443 
L 555.403833 111.869123 
L 560.953099 102.165142 
L 566.502366 105.99566 
L 572.051632 102.761 
L 577.600898 104.718821 
L 583.150164 103.612226 
L 588.69943 108.038604 
L 594.248696 102.505632 
L 599.797963 148.812349 
L 605.347229 99.781708 
L 610.896495 101.14367 
L 616.445761 102.675877 
" clip-path="url(#pc0d1472fad)" style="fill: none; stroke: #008000; stroke-opacity: 0.27; stroke-width: 1.25; stroke-linecap: round"/>
   </g>
   <g id="line2d_12">
    <path d="M 67.06841 369.365113 
L 72.617677 339.316821 
L 78.166943 252.151236 
L 83.716209 232.573028 
L 89.265475 231.466434 
L 94.814741 241.170415 
L 100.364007 195.714925 
L 105.913274 192.565387 
L 111.46254 174.689632 
L 117.011806 158.686575 
L 122.561072 159.537802 
L 128.110338 167.028594 
L 133.659604 157.494858 
L 139.208871 157.665104 
L 144.758137 185.925821 
L 150.307403 153.323849 
L 155.856669 146.428915 
L 161.405935 177.83917 
L 166.955202 170.263255 
L 172.504468 148.046245 
L 178.053734 133.320028 
L 183.603 117.487217 
L 189.152266 136.384443 
L 194.701532 114.252557 
L 200.250799 116.806236 
L 205.800065 114.848415 
L 211.349331 116.125255 
L 216.898597 111.869123 
L 222.447863 117.231849 
L 227.997129 107.357623 
L 233.546396 116.806236 
L 239.095662 111.613755 
L 244.644928 104.803943 
L 250.194194 122.679698 
L 255.74346 105.99566 
L 261.292726 108.804708 
L 266.841993 102.590755 
L 272.391259 101.654406 
L 277.940525 101.313915 
L 283.489791 106.676642 
L 289.039057 117.742585 
L 294.588323 102.675877 
L 300.13759 103.527104 
L 305.686856 102.846123 
L 311.236122 106.080783 
L 316.785388 107.698113 
L 322.334654 122.509453 
L 327.88392 117.997953 
L 333.433187 105.229557 
L 338.982453 98.760236 
L 344.531719 101.569283 
L 350.080985 105.059311 
L 355.630251 108.464217 
L 361.179517 103.101491 
L 366.728784 108.719585 
L 372.27805 107.017132 
L 377.827316 103.527104 
L 383.376582 104.37833 
L 388.925848 105.144434 
L 394.475114 102.846123 
L 400.024381 101.994896 
L 405.573647 102.590755 
L 411.122913 102.675877 
L 416.672179 111.698877 
L 422.221445 107.527868 
L 427.770711 104.293208 
L 433.319978 115.784764 
L 438.869244 103.782472 
L 444.41851 103.612226 
L 449.967776 107.783236 
L 455.517042 102.761 
L 461.066308 104.37833 
L 466.615575 104.718821 
L 472.164841 108.208849 
L 477.714107 99.356094 
L 483.263373 101.654406 
L 488.812639 115.274028 
L 494.361905 117.146726 
L 499.911172 105.229557 
L 505.460438 107.868358 
L 511.009704 100.037075 
L 516.55897 102.505632 
L 522.108236 103.527104 
L 527.657502 98.2495 
L 533.206769 107.953481 
L 538.756035 108.804708 
L 544.305301 103.356858 
L 549.854567 101.399038 
L 555.403833 102.846123 
L 560.953099 111.103019 
L 566.502366 105.144434 
L 572.051632 101.909774 
L 577.600898 100.122198 
L 583.150164 111.188142 
L 588.69943 108.54934 
L 594.248696 100.292443 
L 599.797963 123.616047 
L 605.347229 114.67817 
L 610.896495 105.910538 
L 616.445761 119.955774 
" clip-path="url(#pc0d1472fad)" style="fill: none; stroke: #008000; stroke-opacity: 0.27; stroke-width: 1.25; stroke-linecap: round"/>
   </g>
   <g id="line2d_13">
    <path d="M 67.06841 390.305283 
L 72.617677 390.305283 
L 78.166943 390.305283 
L 83.716209 390.305283 
L 89.265475 390.305283 
L 94.814741 390.305283 
L 100.364007 390.305283 
L 105.913274 390.305283 
L 111.46254 390.305283 
L 117.011806 390.305283 
L 122.561072 390.305283 
L 128.110338 390.305283 
L 133.659604 390.305283 
L 139.208871 390.305283 
L 144.758137 390.305283 
L 150.307403 390.305283 
L 155.856669 390.305283 
L 161.405935 390.305283 
L 166.955202 390.305283 
L 172.504468 390.305283 
L 178.053734 390.305283 
L 183.603 390.305283 
L 189.152266 390.305283 
L 194.701532 390.305283 
L 200.250799 390.305283 
L 205.800065 390.305283 
L 211.349331 379.664953 
L 216.898597 390.305283 
L 222.447863 390.305283 
L 227.997129 369.109745 
L 233.546396 390.305283 
L 239.095662 390.049915 
L 244.644928 390.305283 
L 250.194194 377.877377 
L 255.74346 324.079868 
L 261.292726 362.470179 
L 266.841993 294.967925 
L 272.391259 310.119755 
L 277.940525 254.364425 
L 283.489791 271.048462 
L 289.039057 262.536198 
L 294.588323 224.316132 
L 300.13759 156.728755 
L 305.686856 203.29084 
L 311.236122 236.403547 
L 316.785388 252.151236 
L 322.334654 185.415085 
L 327.88392 183.457264 
L 333.433187 151.451151 
L 338.982453 175.455736 
L 344.531719 139.108368 
L 350.080985 146.088425 
L 355.630251 125.573868 
L 361.179517 155.537038 
L 366.728784 114.337679 
L 372.27805 120.211142 
L 377.827316 119.104547 
L 383.376582 114.422802 
L 388.925848 110.081547 
L 394.475114 131.44733 
L 400.024381 112.890594 
L 405.573647 106.761764 
L 411.122913 114.763292 
L 416.672179 132.298557 
L 422.221445 108.293972 
L 427.770711 145.066953 
L 433.319978 140.895943 
L 438.869244 130.596104 
L 444.41851 102.165142 
L 449.967776 105.99566 
L 455.517042 113.912066 
L 461.066308 107.612991 
L 466.615575 108.719585 
L 472.164841 114.167434 
L 477.714107 130.340736 
L 483.263373 108.634462 
L 488.812639 150.089189 
L 494.361905 115.869887 
L 499.911172 109.655934 
L 505.460438 114.848415 
L 511.009704 102.931245 
L 516.55897 114.763292 
L 522.108236 99.86683 
L 527.657502 107.102255 
L 533.206769 108.038604 
L 538.756035 105.059311 
L 544.305301 102.931245 
L 549.854567 112.635226 
L 555.403833 116.380623 
L 560.953099 115.103783 
L 566.502366 101.654406 
L 572.051632 108.038604 
L 577.600898 116.465745 
L 583.150164 106.761764 
L 588.69943 106.506396 
L 594.248696 111.103019 
L 599.797963 110.677406 
L 605.347229 107.868358 
L 610.896495 117.487217 
L 616.445761 110.677406 
" clip-path="url(#pc0d1472fad)" style="fill: none; stroke: #008000; stroke-opacity: 0.27; stroke-width: 1.25; stroke-linecap: round"/>
   </g>
   <g id="line2d_14">
    <path d="M 67.06841 390.305283 
L 72.617677 390.305283 
L 78.166943 390.305283 
L 83.716209 390.305283 
L 89.265475 390.305283 
L 94.814741 390.305283 
L 100.364007 390.305283 
L 105.913274 390.305283 
L 111.46254 390.305283 
L 117.011806 390.305283 
L 122.561072 390.305283 
L 128.110338 390.305283 
L 133.659604 390.305283 
L 139.208871 390.305283 
L 144.758137 390.305283 
L 150.307403 390.305283 
L 155.856669 390.305283 
L 161.405935 390.305283 
L 166.955202 390.305283 
L 172.504468 390.305283 
L 178.053734 390.305283 
L 183.603 390.305283 
L 189.152266 390.305283 
L 194.701532 390.305283 
L 200.250799 390.305283 
L 205.800065 390.305283 
L 211.349331 390.305283 
L 216.898597 390.305283 
L 222.447863 371.663425 
L 227.997129 385.538415 
L 233.546396 380.005443 
L 239.095662 314.375887 
L 244.644928 221.166594 
L 250.194194 184.308491 
L 255.74346 178.349906 
L 261.292726 187.798519 
L 266.841993 180.903585 
L 272.391259 174.093774 
L 277.940525 149.323085 
L 283.489791 151.195783 
L 289.039057 136.469566 
L 294.588323 132.639047 
L 300.13759 121.743349 
L 305.686856 127.020953 
L 311.236122 113.145962 
L 316.785388 116.210377 
L 322.334654 105.65517 
L 327.88392 110.50716 
L 333.433187 121.232613 
L 338.982453 105.910538 
L 344.531719 106.421274 
L 350.080985 102.846123 
L 355.630251 111.273264 
L 361.179517 103.697349 
L 366.728784 117.91283 
L 372.27805 112.635226 
L 377.827316 110.422038 
L 383.376582 101.313915 
L 388.925848 124.637519 
L 394.475114 112.805472 
L 400.024381 105.910538 
L 405.573647 104.208085 
L 411.122913 105.570047 
L 416.672179 104.37833 
L 422.221445 103.952717 
L 427.770711 111.017896 
L 433.319978 118.934302 
L 438.869244 105.484925 
L 444.41851 105.059311 
L 449.967776 105.314679 
L 455.517042 104.122962 
L 461.066308 101.569283 
L 466.615575 107.017132 
L 472.164841 103.356858 
L 477.714107 107.357623 
L 483.263373 105.65517 
L 488.812639 107.187377 
L 494.361905 104.718821 
L 499.911172 143.534745 
L 505.460438 110.847651 
L 511.009704 104.03784 
L 516.55897 106.080783 
L 522.108236 104.548575 
L 527.657502 116.380623 
L 533.206769 104.293208 
L 538.756035 103.867594 
L 544.305301 113.571575 
L 549.854567 103.016368 
L 555.403833 108.634462 
L 560.953099 108.804708 
L 566.502366 112.039368 
L 572.051632 108.293972 
L 577.600898 100.122198 
L 583.150164 108.038604 
L 588.69943 110.592283 
L 594.248696 110.336915 
L 599.797963 117.91283 
L 605.347229 142.343028 
L 610.896495 110.677406 
L 616.445761 105.910538 
" clip-path="url(#pc0d1472fad)" style="fill: none; stroke: #008000; stroke-opacity: 0.27; stroke-width: 1.25; stroke-linecap: round"/>
   </g>
   <g id="line2d_15">
    <path d="M 67.06841 49.814717 
L 72.617677 64.78528 
L 78.166943 79.832355 
L 83.716209 87.658581 
L 89.265475 85.2591 
L 94.814741 102.423045 
L 100.364007 98.399407 
L 105.913274 106.109695 
L 111.46254 106.929642 
L 117.011806 117.684878 
L 122.561072 120.174196 
L 128.110338 124.720594 
L 133.659604 127.608895 
L 139.208871 129.176911 
L 144.758137 133.519627 
L 150.307403 135.1955 
L 155.856669 137.166153 
L 161.405935 150.716955 
L 166.955202 147.338897 
L 172.504468 153.0461 
L 178.053734 151.871807 
L 183.603 154.557519 
L 189.152266 161.935685 
L 194.701532 160.229718 
L 200.250799 174.656414 
L 205.800065 193.27054 
L 211.349331 191.230234 
L 216.898597 211.953186 
L 222.447863 234.290956 
L 227.997129 232.087803 
L 233.546396 245.878695 
L 239.095662 254.308949 
L 244.644928 248.266954 
L 250.194194 265.405889 
L 255.74346 267.650174 
L 261.292726 271.850741 
L 266.841993 272.460458 
L 272.391259 280.537713 
L 277.940525 279.356946 
L 283.489791 290.174512 
L 289.039057 293.634099 
L 294.588323 299.802496 
L 300.13759 294.704603 
L 305.686856 305.049377 
L 311.236122 313.240206 
L 316.785388 318.226423 
L 322.334654 323.318558 
L 327.88392 330.433365 
L 333.433187 334.455454 
L 338.982453 340.373511 
L 344.531719 336.980907 
L 350.080985 347.894636 
L 355.630251 348.387366 
L 361.179517 358.00032 
L 366.728784 358.375777 
L 372.27805 363.35334 
L 377.827316 359.427123 
L 383.376582 363.095836 
L 388.925848 367.018809 
L 394.475114 366.096145 
L 400.024381 358.372702 
L 405.573647 360.666138 
L 411.122913 362.182835 
L 416.672179 368.313522 
L 422.221445 364.404578 
L 427.770711 363.637949 
L 433.319978 369.456329 
L 438.869244 369.912445 
L 444.41851 371.347715 
L 449.967776 370.960507 
L 455.517042 368.652566 
L 461.066308 372.702353 
L 466.615575 377.078755 
L 472.164841 380.474981 
L 477.714107 374.857044 
L 483.263373 379.359819 
L 488.812639 376.707403 
L 494.361905 380.322292 
L 499.911172 379.430475 
L 505.460438 383.947895 
L 511.009704 382.910525 
L 516.55897 384.023146 
L 522.108236 381.020477 
L 527.657502 384.145036 
L 533.206769 382.25435 
L 538.756035 384.861062 
L 544.305301 380.859585 
L 549.854567 381.725713 
L 555.403833 384.602868 
L 560.953099 384.136384 
L 566.502366 383.539452 
L 572.051632 386.851801 
L 577.600898 388.247641 
L 583.150164 389.439665 
L 588.69943 387.707368 
L 594.248696 389.807127 
L 599.797963 390.305283 
L 605.347229 386.88305 
L 610.896495 382.343193 
L 616.445761 383.62038 
" clip-path="url(#pc0d1472fad)" style="fill: none; stroke: #7b3ab8; stroke-width: 1.5; stroke-linecap: round"/>
   </g>
   <g id="patch_3">
    <path d="M 56.23 400.52 
L 56.23 39.6 
" style="fill: none; stroke: #ffffff; stroke-width: 0.8; stroke-linejoin: miter; stroke-linecap: square"/>
   </g>
   <g id="patch_4">
    <path d="M 623.801429 400.52 
L 623.801429 39.6 
" style="fill: none; stroke: #ffffff; stroke-width: 0.8; stroke-linejoin: miter; stroke-linecap: square"/>
   </g>
   <g id="patch_5">
    <path d="M 56.23 400.52 
L 623.801429 400.52 
" style="fill: none; stroke: #ffffff; stroke-width: 0.8; stroke-linejoin: miter; stroke-linecap: square"/>
   </g>
   <g id="patch_6">
    <path d="M 56.23 39.6 
L 623.801429 39.6 
" style="fill: none; stroke: #ffffff; stroke-width: 0.8; stroke-linejoin: miter; stroke-linecap: square"/>
   </g>
  </g>
  <g id="text_9">
   <!-- Acrobot-v1 | CMU-Net (Margin) -->
   <g style="fill: #262626" transform="translate(167.428125 22.395938) scale(0.18 -0.18)">
    <defs>
     <path id="DejaVuSans-Bold-41" d="M 3419 850 
L 1538 850 
L 1241 0 
L 31 0 
L 1759 4666 
L 3194 4666 
L 4922 0 
L 3713 0 
L 3419 850 
z
M 1838 1716 
L 3116 1716 
L 2478 3572 
L 1838 1716 
z
" transform="scale(0.015625)"/>
     <path id="DejaVuSans-Bold-63" d="M 3366 3391 
L 3366 2478 
Q 3138 2634 2908 2709 
Q 2678 2784 2431 2784 
Q 1963 2784 1702 2511 
Q 1441 2238 1441 1747 
Q 1441 1256 1702 982 
Q 1963 709 2431 709 
Q 2694 709 2930 787 
Q 3166 866 3366 1019 
L 3366 103 
Q 3103 6 2833 -42 
Q 2563 -91 2291 -91 
Q 1344 -91 809 395 
Q 275 881 275 1747 
Q 275 2613 809 3098 
Q 1344 3584 2291 3584 
Q 2566 3584 2833 3536 
Q 3100 3488 3366 3391 
z
" transform="scale(0.015625)"/>
     <path id="DejaVuSans-Bold-72" d="M 3138 2547 
Q 2991 2616 2845 2648 
Q 2700 2681 2553 2681 
Q 2122 2681 1889 2404 
Q 1656 2128 1656 1613 
L 1656 0 
L 538 0 
L 538 3500 
L 1656 3500 
L 1656 2925 
Q 1872 3269 2151 3426 
Q 2431 3584 2822 3584 
Q 2878 3584 2943 3579 
Q 3009 3575 3134 3559 
L 3138 2547 
z
" transform="scale(0.015625)"/>
     <path id="DejaVuSans-Bold-6f" d="M 2203 2784 
Q 1831 2784 1636 2517 
Q 1441 2250 1441 1747 
Q 1441 1244 1636 976 
Q 1831 709 2203 709 
Q 2569 709 2762 976 
Q 2956 1244 2956 1747 
Q 2956 2250 2762 2517 
Q 2569 2784 2203 2784 
z
M 2203 3584 
Q 3106 3584 3614 3096 
Q 4122 2609 4122 1747 
Q 4122 884 3614 396 
Q 3106 -91 2203 -91 
Q 1297 -91 786 396 
Q 275 884 275 1747 
Q 275 2609 786 3096 
Q 1297 3584 2203 3584 
z
" transform="scale(0.015625)"/>
     <path id="DejaVuSans-Bold-62" d="M 2400 722 
Q 2759 722 2948 984 
Q 3138 1247 3138 1747 
Q 3138 2247 2948 2509 
Q 2759 2772 2400 2772 
Q 2041 2772 1848 2508 
Q 1656 2244 1656 1747 
Q 1656 1250 1848 986 
Q 2041 722 2400 722 
z
M 1656 2988 
Q 1888 3294 2169 3439 
Q 2450 3584 2816 3584 
Q 3463 3584 3878 3070 
Q 4294 2556 4294 1747 
Q 4294 938 3878 423 
Q 3463 -91 2816 -91 
Q 2450 -91 2169 54 
Q 1888 200 1656 506 
L 1656 0 
L 538 0 
L 538 4863 
L 1656 4863 
L 1656 2988 
z
" transform="scale(0.015625)"/>
     <path id="DejaVuSans-Bold-74" d="M 1759 4494 
L 1759 3500 
L 2913 3500 
L 2913 2700 
L 1759 2700 
L 1759 1216 
Q 1759 972 1856 886 
Q 1953 800 2241 800 
L 2816 800 
L 2816 0 
L 1856 0 
Q 1194 0 917 276 
Q 641 553 641 1216 
L 641 2700 
L 84 2700 
L 84 3500 
L 641 3500 
L 641 4494 
L 1759 4494 
z
" transform="scale(0.015625)"/>
     <path id="DejaVuSans-Bold-2d" d="M 347 2297 
L 2309 2297 
L 2309 1388 
L 347 1388 
L 347 2297 
z
" transform="scale(0.015625)"/>
     <path id="DejaVuSans-Bold-76" d="M 97 3500 
L 1216 3500 
L 2088 1081 
L 2956 3500 
L 4078 3500 
L 2700 0 
L 1472 0 
L 97 3500 
z
" transform="scale(0.015625)"/>
     <path id="DejaVuSans-Bold-31" d="M 750 831 
L 1813 831 
L 1813 3847 
L 722 3622 
L 722 4441 
L 1806 4666 
L 2950 4666 
L 2950 831 
L 4013 831 
L 4013 0 
L 750 0 
L 750 831 
z
" transform="scale(0.015625)"/>
     <path id="DejaVuSans-Bold-20" transform="scale(0.015625)"/>
     <path id="DejaVuSans-Bold-7c" d="M 1522 4891 
L 1522 -1509 
L 813 -1509 
L 813 4891 
L 1522 4891 
z
" transform="scale(0.015625)"/>
     <path id="DejaVuSans-Bold-43" d="M 4288 256 
Q 3956 84 3597 -3 
Q 3238 -91 2847 -91 
Q 1681 -91 1000 561 
Q 319 1213 319 2328 
Q 319 3447 1000 4098 
Q 1681 4750 2847 4750 
Q 3238 4750 3597 4662 
Q 3956 4575 4288 4403 
L 4288 3438 
Q 3953 3666 3628 3772 
Q 3303 3878 2944 3878 
Q 2300 3878 1931 3465 
Q 1563 3053 1563 2328 
Q 1563 1606 1931 1193 
Q 2300 781 2944 781 
Q 3303 781 3628 887 
Q 3953 994 4288 1222 
L 4288 256 
z
" transform="scale(0.015625)"/>
     <path id="DejaVuSans-Bold-4d" d="M 588 4666 
L 2119 4666 
L 3181 2169 
L 4250 4666 
L 5778 4666 
L 5778 0 
L 4641 0 
L 4641 3413 
L 3566 897 
L 2803 897 
L 1728 3413 
L 1728 0 
L 588 0 
L 588 4666 
z
" transform="scale(0.015625)"/>
     <path id="DejaVuSans-Bold-55" d="M 588 4666 
L 1791 4666 
L 1791 1869 
Q 1791 1291 1980 1042 
Q 2169 794 2597 794 
Q 3028 794 3217 1042 
Q 3406 1291 3406 1869 
L 3406 4666 
L 4609 4666 
L 4609 1869 
Q 4609 878 4112 393 
Q 3616 -91 2597 -91 
Q 1581 -91 1084 393 
Q 588 878 588 1869 
L 588 4666 
z
" transform="scale(0.015625)"/>
     <path id="DejaVuSans-Bold-4e" d="M 588 4666 
L 1931 4666 
L 3628 1466 
L 3628 4666 
L 4769 4666 
L 4769 0 
L 3425 0 
L 1728 3200 
L 1728 0 
L 588 0 
L 588 4666 
z
" transform="scale(0.015625)"/>
     <path id="DejaVuSans-Bold-65" d="M 4031 1759 
L 4031 1441 
L 1416 1441 
Q 1456 1047 1700 850 
Q 1944 653 2381 653 
Q 2734 653 3104 758 
Q 3475 863 3866 1075 
L 3866 213 
Q 3469 63 3072 -14 
Q 2675 -91 2278 -91 
Q 1328 -91 801 392 
Q 275 875 275 1747 
Q 275 2603 792 3093 
Q 1309 3584 2216 3584 
Q 3041 3584 3536 3087 
Q 4031 2591 4031 1759 
z
M 2881 2131 
Q 2881 2450 2695 2645 
Q 2509 2841 2209 2841 
Q 1884 2841 1681 2658 
Q 1478 2475 1428 2131 
L 2881 2131 
z
" transform="scale(0.015625)"/>
     <path id="DejaVuSans-Bold-28" d="M 2413 -844 
L 1484 -844 
Q 1006 -72 778 623 
Q 550 1319 550 2003 
Q 550 2688 779 3389 
Q 1009 4091 1484 4856 
L 2413 4856 
Q 2013 4116 1813 3408 
Q 1613 2700 1613 2009 
Q 1613 1319 1811 609 
Q 2009 -100 2413 -844 
z
" transform="scale(0.015625)"/>
     <path id="DejaVuSans-Bold-61" d="M 2106 1575 
Q 1756 1575 1579 1456 
Q 1403 1338 1403 1106 
Q 1403 894 1545 773 
Q 1688 653 1941 653 
Q 2256 653 2472 879 
Q 2688 1106 2688 1447 
L 2688 1575 
L 2106 1575 
z
M 3816 1997 
L 3816 0 
L 2688 0 
L 2688 519 
Q 2463 200 2181 54 
Q 1900 -91 1497 -91 
Q 953 -91 614 226 
Q 275 544 275 1050 
Q 275 1666 698 1953 
Q 1122 2241 2028 2241 
L 2688 2241 
L 2688 2328 
Q 2688 2594 2478 2717 
Q 2269 2841 1825 2841 
Q 1466 2841 1156 2769 
Q 847 2697 581 2553 
L 581 3406 
Q 941 3494 1303 3539 
Q 1666 3584 2028 3584 
Q 2975 3584 3395 3211 
Q 3816 2838 3816 1997 
z
" transform="scale(0.015625)"/>
     <path id="DejaVuSans-Bold-67" d="M 2919 594 
Q 2688 288 2409 144 
Q 2131 0 1766 0 
Q 1125 0 706 504 
Q 288 1009 288 1791 
Q 288 2575 706 3076 
Q 1125 3578 1766 3578 
Q 2131 3578 2409 3434 
Q 2688 3291 2919 2981 
L 2919 3500 
L 4044 3500 
L 4044 353 
Q 4044 -491 3511 -936 
Q 2978 -1381 1966 -1381 
Q 1638 -1381 1331 -1331 
Q 1025 -1281 716 -1178 
L 716 -306 
Q 1009 -475 1290 -558 
Q 1572 -641 1856 -641 
Q 2406 -641 2662 -400 
Q 2919 -159 2919 353 
L 2919 594 
z
M 2181 2772 
Q 1834 2772 1640 2515 
Q 1447 2259 1447 1791 
Q 1447 1309 1634 1061 
Q 1822 813 2181 813 
Q 2531 813 2725 1069 
Q 2919 1325 2919 1791 
Q 2919 2259 2725 2515 
Q 2531 2772 2181 2772 
z
" transform="scale(0.015625)"/>
     <path id="DejaVuSans-Bold-69" d="M 538 3500 
L 1656 3500 
L 1656 0 
L 538 0 
L 538 3500 
z
M 538 4863 
L 1656 4863 
L 1656 3950 
L 538 3950 
L 538 4863 
z
" transform="scale(0.015625)"/>
     <path id="DejaVuSans-Bold-6e" d="M 4056 2131 
L 4056 0 
L 2931 0 
L 2931 347 
L 2931 1631 
Q 2931 2084 2911 2256 
Q 2891 2428 2841 2509 
Q 2775 2619 2662 2680 
Q 2550 2741 2406 2741 
Q 2056 2741 1856 2470 
Q 1656 2200 1656 1722 
L 1656 0 
L 538 0 
L 538 3500 
L 1656 3500 
L 1656 2988 
Q 1909 3294 2193 3439 
Q 2478 3584 2822 3584 
Q 3428 3584 3742 3212 
Q 4056 2841 4056 2131 
z
" transform="scale(0.015625)"/>
     <path id="DejaVuSans-Bold-29" d="M 513 -844 
Q 913 -100 1113 609 
Q 1313 1319 1313 2009 
Q 1313 2700 1113 3408 
Q 913 4116 513 4856 
L 1441 4856 
Q 1916 4091 2145 3389 
Q 2375 2688 2375 2003 
Q 2375 1319 2147 623 
Q 1919 -72 1441 -844 
L 513 -844 
z
" transform="scale(0.015625)"/>
    </defs>
    <use xlink:href="#DejaVuSans-Bold-41"/>
    <use xlink:href="#DejaVuSans-Bold-63" transform="translate(77.392578 0)"/>
    <use xlink:href="#DejaVuSans-Bold-72" transform="translate(136.669922 0)"/>
    <use xlink:href="#DejaVuSans-Bold-6f" transform="translate(185.986328 0)"/>
    <use xlink:href="#DejaVuSans-Bold-62" transform="translate(254.6875 0)"/>
    <use xlink:href="#DejaVuSans-Bold-6f" transform="translate(326.269531 0)"/>
    <use xlink:href="#DejaVuSans-Bold-74" transform="translate(394.970703 0)"/>
    <use xlink:href="#DejaVuSans-Bold-2d" transform="translate(442.773438 0)"/>
    <use xlink:href="#DejaVuSans-Bold-76" transform="translate(484.277344 0)"/>
    <use xlink:href="#DejaVuSans-Bold-31" transform="translate(549.462891 0)"/>
    <use xlink:href="#DejaVuSans-Bold-20" transform="translate(619.042969 0)"/>
    <use xlink:href="#DejaVuSans-Bold-7c" transform="translate(653.857422 0)"/>
    <use xlink:href="#DejaVuSans-Bold-20" transform="translate(690.380859 0)"/>
    <use xlink:href="#DejaVuSans-Bold-43" transform="translate(725.195312 0)"/>
    <use xlink:href="#DejaVuSans-Bold-4d" transform="translate(798.583984 0)"/>
    <use xlink:href="#DejaVuSans-Bold-55" transform="translate(898.095703 0)"/>
    <use xlink:href="#DejaVuSans-Bold-2d" transform="translate(979.296875 0)"/>
    <use xlink:href="#DejaVuSans-Bold-4e" transform="translate(1020.800781 0)"/>
    <use xlink:href="#DejaVuSans-Bold-65" transform="translate(1104.492188 0)"/>
    <use xlink:href="#DejaVuSans-Bold-74" transform="translate(1172.314453 0)"/>
    <use xlink:href="#DejaVuSans-Bold-20" transform="translate(1220.117188 0)"/>
    <use xlink:href="#DejaVuSans-Bold-28" transform="translate(1254.931641 0)"/>
    <use xlink:href="#DejaVuSans-Bold-4d" transform="translate(1300.634766 0)"/>
    <use xlink:href="#DejaVuSans-Bold-61" transform="translate(1400.146484 0)"/>
    <use xlink:href="#DejaVuSans-Bold-72" transform="translate(1467.626953 0)"/>
    <use xlink:href="#DejaVuSans-Bold-67" transform="translate(1516.943359 0)"/>
    <use xlink:href="#DejaVuSans-Bold-69" transform="translate(1588.525391 0)"/>
    <use xlink:href="#DejaVuSans-Bold-6e" transform="translate(1622.802734 0)"/>
    <use xlink:href="#DejaVuSans-Bold-29" transform="translate(1693.994141 0)"/>
   </g>
  </g>
 </g>
 <defs>
  <clipPath id="pc0d1472fad">
   <rect x="56.23" y="39.6" width="567.571429" height="360.92"/>
  </clipPath>
 </defs>
</svg>
