<?xml version="1.0" encoding="utf-8" standalone="no"?>
<!DOCTYPE svg PUBLIC "-//W3C//DTD SVG 1.1//EN"
  "http://www.w3.org/Graphics/SVG/1.1/DTD/svg11.dtd">
<svg xmlns:xlink="http://www.w3.org/1999/xlink" width="648pt" height="432pt" viewBox="0 0 648 432" xmlns="http://www.w3.org/2000/svg" version="1.1">
 <metadata>
  <rdf:RDF xmlns:dc="http://purl.org/dc/elements/1.1/" xmlns:cc="http://creativecommons.org/ns#" xmlns:rdf="http://www.w3.org/1999/02/22-rdf-syntax-ns#">
   <cc:Work>
    <dc:type rdf:resource="http://purl.org/dc/dcmitype/StillImage"/>
    <dc:date>2025-07-31T05:18:36.735565</dc:date>
    <dc:format>image/svg+xml</dc:format>
    <dc:creator>
     <cc:Agent>
      <dc:title>Matplotlib v3.10.0, https://matplotlib.org/</dc:title>
     </cc:Agent>
    </dc:creator>
   </cc:Work>
  </rdf:RDF>
 </metadata>
 <defs>
  <style type="text/css">*{stroke-linejoin: round; stroke-linecap: butt}</style>
 </defs>
 <g id="figure_1">
  <g id="patch_1">
   <path d="M 0 432 
L 648 432 
L 648 0 
L 0 0 
z
" style="fill: #ffffff"/>
  </g>
  <g id="axes_1">
   <g id="patch_2">
    <path d="M 56.23 400.52 
L 623.801429 400.52 
L 623.801429 39.6 
L 56.23 39.6 
z
" style="fill: #eaeaf2"/>
   </g>
   <g id="matplotlib.axis_1">
    <g id="xtick_1">
     <g id="line2d_1">
      <path d="M 67.06841 400.52 
L 67.06841 39.6 
" clip-path="url(#pd733a13b68)" style="fill: none; stroke: #ffffff; stroke-width: 0.8; stroke-linecap: round"/>
     </g>
     <g id="text_1">
      <!-- 0 -->
      <g style="fill: #262626" transform="translate(62.61466 418.157812) scale(0.14 -0.14)">
       <defs>
        <path id="DejaVuSans-30" d="M 2034 4250 
Q 1547 4250 1301 3770 
Q 1056 3291 1056 2328 
Q 1056 1369 1301 889 
Q 1547 409 2034 409 
Q 2525 409 2770 889 
Q 3016 1369 3016 2328 
Q 3016 3291 2770 3770 
Q 2525 4250 2034 4250 
z
M 2034 4750 
Q 2819 4750 3233 4129 
Q 3647 3509 3647 2328 
Q 3647 1150 3233 529 
Q 2819 -91 2034 -91 
Q 1250 -91 836 529 
Q 422 1150 422 2328 
Q 422 3509 836 4129 
Q 1250 4750 2034 4750 
z
" transform="scale(0.015625)"/>
       </defs>
       <use xlink:href="#DejaVuSans-30"/>
      </g>
     </g>
    </g>
    <g id="xtick_2">
     <g id="line2d_2">
      <path d="M 608.988935 400.52 
L 608.988935 39.6 
" clip-path="url(#pd733a13b68)" style="fill: none; stroke: #ffffff; stroke-width: 0.8; stroke-linecap: round"/>
     </g>
     <g id="text_2">
      <!-- 600000 -->
      <g style="fill: #262626" transform="translate(582.266435 418.157812) scale(0.14 -0.14)">
       <defs>
        <path id="DejaVuSans-36" d="M 2113 2584 
Q 1688 2584 1439 2293 
Q 1191 2003 1191 1497 
Q 1191 994 1439 701 
Q 1688 409 2113 409 
Q 2538 409 2786 701 
Q 3034 994 3034 1497 
Q 3034 2003 2786 2293 
Q 2538 2584 2113 2584 
z
M 3366 4563 
L 3366 3988 
Q 3128 4100 2886 4159 
Q 2644 4219 2406 4219 
Q 1781 4219 1451 3797 
Q 1122 3375 1075 2522 
Q 1259 2794 1537 2939 
Q 1816 3084 2150 3084 
Q 2853 3084 3261 2657 
Q 3669 2231 3669 1497 
Q 3669 778 3244 343 
Q 2819 -91 2113 -91 
Q 1303 -91 875 529 
Q 447 1150 447 2328 
Q 447 3434 972 4092 
Q 1497 4750 2381 4750 
Q 2619 4750 2861 4703 
Q 3103 4656 3366 4563 
z
" transform="scale(0.015625)"/>
       </defs>
       <use xlink:href="#DejaVuSans-36"/>
       <use xlink:href="#DejaVuSans-30" transform="translate(63.623047 0)"/>
       <use xlink:href="#DejaVuSans-30" transform="translate(127.246094 0)"/>
       <use xlink:href="#DejaVuSans-30" transform="translate(190.869141 0)"/>
       <use xlink:href="#DejaVuSans-30" transform="translate(254.492188 0)"/>
       <use xlink:href="#DejaVuSans-30" transform="translate(318.115234 0)"/>
      </g>
     </g>
    </g>
   </g>
   <g id="matplotlib.axis_2">
    <g id="ytick_1">
     <g id="line2d_3">
      <path d="M 56.23 390.305283 
L 623.801429 390.305283 
" clip-path="url(#pd733a13b68)" style="fill: none; stroke: #ffffff; stroke-width: 0.8; stroke-linecap: round"/>
     </g>
     <g id="text_3">
      <!-- −500 -->
      <g style="fill: #262626" transform="translate(10.775938 395.624189) scale(0.14 -0.14)">
       <defs>
        <path id="DejaVuSans-2212" d="M 678 2272 
L 4684 2272 
L 4684 1741 
L 678 1741 
L 678 2272 
z
" transform="scale(0.015625)"/>
        <path id="DejaVuSans-35" d="M 691 4666 
L 3169 4666 
L 3169 4134 
L 1269 4134 
L 1269 2991 
Q 1406 3038 1543 3061 
Q 1681 3084 1819 3084 
Q 2600 3084 3056 2656 
Q 3513 2228 3513 1497 
Q 3513 744 3044 326 
Q 2575 -91 1722 -91 
Q 1428 -91 1123 -41 
Q 819 9 494 109 
L 494 744 
Q 775 591 1075 516 
Q 1375 441 1709 441 
Q 2250 441 2565 725 
Q 2881 1009 2881 1497 
Q 2881 1984 2565 2268 
Q 2250 2553 1709 2553 
Q 1456 2553 1204 2497 
Q 953 2441 691 2322 
L 691 4666 
z
" transform="scale(0.015625)"/>
       </defs>
       <use xlink:href="#DejaVuSans-2212"/>
       <use xlink:href="#DejaVuSans-35" transform="translate(83.789062 0)"/>
       <use xlink:href="#DejaVuSans-30" transform="translate(147.412109 0)"/>
       <use xlink:href="#DejaVuSans-30" transform="translate(211.035156 0)"/>
      </g>
     </g>
    </g>
    <g id="ytick_2">
     <g id="line2d_4">
      <path d="M 56.23 322.20717 
L 623.801429 322.20717 
" clip-path="url(#pd733a13b68)" style="fill: none; stroke: #ffffff; stroke-width: 0.8; stroke-linecap: round"/>
     </g>
     <g id="text_4">
      <!-- −400 -->
      <g style="fill: #262626" transform="translate(10.775938 327.526076) scale(0.14 -0.14)">
       <defs>
        <path id="DejaVuSans-34" d="M 2419 4116 
L 825 1625 
L 2419 1625 
L 2419 4116 
z
M 2253 4666 
L 3047 4666 
L 3047 1625 
L 3713 1625 
L 3713 1100 
L 3047 1100 
L 3047 0 
L 2419 0 
L 2419 1100 
L 313 1100 
L 313 1709 
L 2253 4666 
z
" transform="scale(0.015625)"/>
       </defs>
       <use xlink:href="#DejaVuSans-2212"/>
       <use xlink:href="#DejaVuSans-34" transform="translate(83.789062 0)"/>
       <use xlink:href="#DejaVuSans-30" transform="translate(147.412109 0)"/>
       <use xlink:href="#DejaVuSans-30" transform="translate(211.035156 0)"/>
      </g>
     </g>
    </g>
    <g id="ytick_3">
     <g id="line2d_5">
      <path d="M 56.23 254.109057 
L 623.801429 254.109057 
" clip-path="url(#pd733a13b68)" style="fill: none; stroke: #ffffff; stroke-width: 0.8; stroke-linecap: round"/>
     </g>
     <g id="text_5">
      <!-- −300 -->
      <g style="fill: #262626" transform="translate(10.775938 259.427963) scale(0.14 -0.14)">
       <defs>
        <path id="DejaVuSans-33" d="M 2597 2516 
Q 3050 2419 3304 2112 
Q 3559 1806 3559 1356 
Q 3559 666 3084 287 
Q 2609 -91 1734 -91 
Q 1441 -91 1130 -33 
Q 819 25 488 141 
L 488 750 
Q 750 597 1062 519 
Q 1375 441 1716 441 
Q 2309 441 2620 675 
Q 2931 909 2931 1356 
Q 2931 1769 2642 2001 
Q 2353 2234 1838 2234 
L 1294 2234 
L 1294 2753 
L 1863 2753 
Q 2328 2753 2575 2939 
Q 2822 3125 2822 3475 
Q 2822 3834 2567 4026 
Q 2313 4219 1838 4219 
Q 1578 4219 1281 4162 
Q 984 4106 628 3988 
L 628 4550 
Q 988 4650 1302 4700 
Q 1616 4750 1894 4750 
Q 2613 4750 3031 4423 
Q 3450 4097 3450 3541 
Q 3450 3153 3228 2886 
Q 3006 2619 2597 2516 
z
" transform="scale(0.015625)"/>
       </defs>
       <use xlink:href="#DejaVuSans-2212"/>
       <use xlink:href="#DejaVuSans-33" transform="translate(83.789062 0)"/>
       <use xlink:href="#DejaVuSans-30" transform="translate(147.412109 0)"/>
       <use xlink:href="#DejaVuSans-30" transform="translate(211.035156 0)"/>
      </g>
     </g>
    </g>
    <g id="ytick_4">
     <g id="line2d_6">
      <path d="M 56.23 186.010943 
L 623.801429 186.010943 
" clip-path="url(#pd733a13b68)" style="fill: none; stroke: #ffffff; stroke-width: 0.8; stroke-linecap: round"/>
     </g>
     <g id="text_6">
      <!-- −200 -->
      <g style="fill: #262626" transform="translate(10.775938 191.32985) scale(0.14 -0.14)">
       <defs>
        <path id="DejaVuSans-32" d="M 1228 531 
L 3431 531 
L 3431 0 
L 469 0 
L 469 531 
Q 828 903 1448 1529 
Q 2069 2156 2228 2338 
Q 2531 2678 2651 2914 
Q 2772 3150 2772 3378 
Q 2772 3750 2511 3984 
Q 2250 4219 1831 4219 
Q 1534 4219 1204 4116 
Q 875 4013 500 3803 
L 500 4441 
Q 881 4594 1212 4672 
Q 1544 4750 1819 4750 
Q 2544 4750 2975 4387 
Q 3406 4025 3406 3419 
Q 3406 3131 3298 2873 
Q 3191 2616 2906 2266 
Q 2828 2175 2409 1742 
Q 1991 1309 1228 531 
z
" transform="scale(0.015625)"/>
       </defs>
       <use xlink:href="#DejaVuSans-2212"/>
       <use xlink:href="#DejaVuSans-32" transform="translate(83.789062 0)"/>
       <use xlink:href="#DejaVuSans-30" transform="translate(147.412109 0)"/>
       <use xlink:href="#DejaVuSans-30" transform="translate(211.035156 0)"/>
      </g>
     </g>
    </g>
    <g id="ytick_5">
     <g id="line2d_7">
      <path d="M 56.23 117.91283 
L 623.801429 117.91283 
" clip-path="url(#pd733a13b68)" style="fill: none; stroke: #ffffff; stroke-width: 0.8; stroke-linecap: round"/>
     </g>
     <g id="text_7">
      <!-- −100 -->
      <g style="fill: #262626" transform="translate(10.775938 123.231736) scale(0.14 -0.14)">
       <defs>
        <path id="DejaVuSans-31" d="M 794 531 
L 1825 531 
L 1825 4091 
L 703 3866 
L 703 4441 
L 1819 4666 
L 2450 4666 
L 2450 531 
L 3481 531 
L 3481 0 
L 794 0 
L 794 531 
z
" transform="scale(0.015625)"/>
       </defs>
       <use xlink:href="#DejaVuSans-2212"/>
       <use xlink:href="#DejaVuSans-31" transform="translate(83.789062 0)"/>
       <use xlink:href="#DejaVuSans-30" transform="translate(147.412109 0)"/>
       <use xlink:href="#DejaVuSans-30" transform="translate(211.035156 0)"/>
      </g>
     </g>
    </g>
    <g id="ytick_6">
     <g id="line2d_8">
      <path d="M 56.23 49.814717 
L 623.801429 49.814717 
" clip-path="url(#pd733a13b68)" style="fill: none; stroke: #ffffff; stroke-width: 0.8; stroke-linecap: round"/>
     </g>
     <g id="text_8">
      <!-- 0 -->
      <g style="fill: #262626" transform="translate(40.3225 55.133623) scale(0.14 -0.14)">
       <use xlink:href="#DejaVuSans-30"/>
      </g>
     </g>
    </g>
   </g>
   <g id="FillBetweenPolyCollection_1">
    <path d="M 67.06841 340.16023 
L 67.06841 402.008952 
L 72.617677 403.679273 
L 78.166943 396.394855 
L 83.716209 409.269397 
L 89.265475 414.59246 
L 94.814741 385.55518 
L 100.364007 386.915364 
L 105.913274 373.690521 
L 111.46254 380.296271 
L 117.011806 372.475241 
L 122.561072 368.256599 
L 128.110338 366.117065 
L 133.659604 363.522824 
L 139.208871 362.06143 
L 144.758137 363.508002 
L 150.307403 375.632314 
L 155.856669 376.730076 
L 161.405935 375.839909 
L 166.955202 373.555241 
L 172.504468 360.29205 
L 178.053734 359.682702 
L 183.603 359.591102 
L 189.152266 359.197224 
L 194.701532 358.984504 
L 200.250799 359.652974 
L 205.800065 350.085555 
L 211.349331 344.427096 
L 216.898597 354.687519 
L 222.447863 345.405472 
L 227.997129 338.318848 
L 233.546396 314.389187 
L 239.095662 303.111964 
L 244.644928 298.285315 
L 250.194194 286.890338 
L 255.74346 282.151543 
L 261.292726 281.635076 
L 266.841993 281.710733 
L 272.391259 279.149024 
L 277.940525 278.253732 
L 283.489791 277.567855 
L 289.039057 276.773124 
L 294.588323 278.699811 
L 300.13759 277.988336 
L 305.686856 275.987656 
L 311.236122 278.656198 
L 316.785388 276.096417 
L 322.334654 279.028909 
L 327.88392 276.74432 
L 333.433187 277.952062 
L 338.982453 278.432548 
L 344.531719 276.748255 
L 350.080985 275.047268 
L 355.630251 278.519737 
L 361.179517 275.923881 
L 366.728784 275.527324 
L 372.27805 275.326066 
L 377.827316 275.958693 
L 383.376582 276.825057 
L 388.925848 276.267591 
L 394.475114 276.540327 
L 400.024381 276.600643 
L 405.573647 278.529876 
L 411.122913 276.130611 
L 416.672179 278.659036 
L 422.221445 275.281607 
L 427.770711 276.844841 
L 433.319978 276.838113 
L 438.869244 277.573287 
L 444.41851 276.499925 
L 449.967776 275.52586 
L 455.517042 275.173445 
L 461.066308 277.456777 
L 466.615575 276.474625 
L 472.164841 276.477932 
L 477.714107 276.158315 
L 483.263373 277.483058 
L 488.812639 278.591348 
L 494.361905 276.908437 
L 499.911172 276.887784 
L 505.460438 280.119381 
L 511.009704 275.187736 
L 516.55897 277.574849 
L 522.108236 275.176762 
L 527.657502 275.264974 
L 533.206769 274.828607 
L 538.756035 276.310197 
L 544.305301 275.751873 
L 549.854567 276.461206 
L 555.403833 275.433894 
L 560.953099 276.979051 
L 566.502366 276.862272 
L 572.051632 276.477463 
L 577.600898 276.222452 
L 583.150164 276.102889 
L 588.69943 275.224083 
L 594.248696 277.516053 
L 599.797963 274.867863 
L 605.347229 278.113609 
L 610.896495 276.107539 
L 616.445761 275.52198 
L 616.445761 45.630616 
L 616.445761 45.630616 
L 610.896495 47.700884 
L 605.347229 52.198183 
L 599.797963 43.969398 
L 594.248696 51.808316 
L 588.69943 45.009188 
L 583.150164 47.535288 
L 577.600898 47.994559 
L 572.051632 48.795069 
L 566.502366 49.87437 
L 560.953099 48.804217 
L 555.403833 45.480359 
L 549.854567 48.607031 
L 544.305301 46.524343 
L 538.756035 48.213256 
L 533.206769 43.770309 
L 527.657502 45.104494 
L 522.108236 44.784118 
L 516.55897 51.885717 
L 511.009704 44.875291 
L 505.460438 56.491487 
L 499.911172 48.282601 
L 494.361905 49.930352 
L 488.812639 53.218603 
L 483.263373 51.432723 
L 477.714107 47.854402 
L 472.164841 48.351962 
L 466.615575 48.559564 
L 461.066308 50.471582 
L 455.517042 44.821483 
L 449.967776 45.899128 
L 444.41851 48.704509 
L 438.869244 51.47869 
L 433.319978 49.523989 
L 427.770711 49.823702 
L 422.221445 45.224057 
L 416.672179 55.159809 
L 411.122913 47.711861 
L 405.573647 54.233448 
L 400.024381 49.148576 
L 394.475114 48.970549 
L 388.925848 47.813224 
L 383.376582 49.060358 
L 377.827316 47.236847 
L 372.27805 45.315795 
L 366.728784 45.897664 
L 361.179517 47.135462 
L 355.630251 54.720274 
L 350.080985 44.470973 
L 344.531719 49.341455 
L 338.982453 54.364826 
L 333.433187 51.951142 
L 327.88392 49.583733 
L 322.334654 55.402819 
L 316.785388 47.677956 
L 311.236122 55.128599 
L 305.686856 47.139785 
L 300.13759 53.072536 
L 294.588323 55.050936 
L 289.039057 49.657076 
L 283.489791 51.96081 
L 277.940525 53.828612 
L 272.391259 56.236078 
L 266.841993 62.969761 
L 261.292726 59.02763 
L 255.74346 59.634781 
L 250.194194 66.506715 
L 244.644928 72.647002 
L 239.095662 76.707156 
L 233.546396 80.717961 
L 227.997129 81.473866 
L 222.447863 79.937238 
L 216.898597 79.67819 
L 211.349331 88.236161 
L 205.800065 95.95898 
L 200.250799 86.732052 
L 194.701532 80.216171 
L 189.152266 81.774002 
L 183.603 85.636256 
L 178.053734 85.987294 
L 172.504468 90.383157 
L 166.955202 127.342325 
L 161.405935 123.15091 
L 155.856669 128.832211 
L 150.307403 129.044697 
L 144.758137 114.678843 
L 139.208871 103.867755 
L 133.659604 114.425678 
L 128.110338 123.544312 
L 122.561072 135.262744 
L 117.011806 142.212193 
L 111.46254 159.349122 
L 105.913274 158.395981 
L 100.364007 179.935224 
L 94.814741 189.092643 
L 89.265475 244.939661 
L 83.716209 273.994916 
L 78.166943 322.17833 
L 72.617677 303.249135 
L 67.06841 340.16023 
z
" clip-path="url(#pd733a13b68)" style="fill: #0000ff; fill-opacity: 0.1"/>
   </g>
   <g id="line2d_9">
    <path d="M 67.06841 371.084591 
L 72.617677 353.464204 
L 78.166943 359.286592 
L 83.716209 341.632157 
L 89.265475 329.76606 
L 94.814741 287.323911 
L 100.364007 283.425294 
L 105.913274 266.043251 
L 111.46254 269.822696 
L 117.011806 257.343717 
L 122.561072 251.759672 
L 128.110338 244.830689 
L 133.659604 238.974251 
L 139.208871 232.964592 
L 144.758137 239.093423 
L 150.307403 252.338506 
L 155.856669 252.781143 
L 161.405935 249.495409 
L 166.955202 250.448783 
L 172.504468 225.337604 
L 178.053734 222.834998 
L 183.603 222.613679 
L 189.152266 220.485613 
L 194.701532 219.600338 
L 200.250799 223.192513 
L 205.800065 223.022268 
L 211.349331 216.331628 
L 216.898597 217.182855 
L 222.447863 212.671355 
L 227.997129 209.896357 
L 233.546396 197.553574 
L 239.095662 189.90956 
L 244.644928 185.466158 
L 250.194194 176.698526 
L 255.74346 170.893162 
L 261.292726 170.331353 
L 266.841993 172.340247 
L 272.391259 167.692551 
L 277.940525 166.041172 
L 283.489791 164.764332 
L 289.039057 163.2151 
L 294.588323 166.875374 
L 300.13759 165.530436 
L 305.686856 161.563721 
L 311.236122 166.892398 
L 316.785388 161.887187 
L 322.334654 167.215864 
L 327.88392 163.164026 
L 333.433187 164.951602 
L 338.982453 166.398687 
L 344.531719 163.044855 
L 350.080985 159.759121 
L 355.630251 166.620006 
L 361.179517 161.529672 
L 366.728784 160.712494 
L 372.27805 160.32093 
L 377.827316 161.59777 
L 383.376582 162.942708 
L 388.925848 162.040408 
L 394.475114 162.755438 
L 400.024381 162.874609 
L 405.573647 166.381662 
L 411.122913 161.921236 
L 416.672179 166.909423 
L 422.221445 160.252832 
L 427.770711 163.334272 
L 433.319978 163.181051 
L 438.869244 164.525989 
L 444.41851 162.602217 
L 449.967776 160.712494 
L 455.517042 159.997464 
L 461.066308 163.964179 
L 466.615575 162.517094 
L 472.164841 162.414947 
L 477.714107 162.006358 
L 483.263373 164.457891 
L 488.812639 165.904975 
L 494.361905 163.419394 
L 499.911172 162.585192 
L 505.460438 168.305434 
L 511.009704 160.031513 
L 516.55897 164.730283 
L 522.108236 159.98044 
L 527.657502 160.184734 
L 533.206769 159.299458 
L 538.756035 162.261726 
L 544.305301 161.138108 
L 549.854567 162.534119 
L 555.403833 160.457126 
L 560.953099 162.891634 
L 566.502366 163.368321 
L 572.051632 162.636266 
L 577.600898 162.108506 
L 583.150164 161.819089 
L 588.69943 160.116636 
L 594.248696 164.662185 
L 599.797963 159.41863 
L 605.347229 165.155896 
L 610.896495 161.904211 
L 616.445761 160.576298 
" clip-path="url(#pd733a13b68)" style="fill: none; stroke: #0000ff; stroke-width: 2; stroke-linecap: round"/>
   </g>
   <g id="line2d_10">
    <path d="M 67.06841 373.961736 
L 72.617677 338.465594 
L 78.166943 332.166519 
L 83.716209 340.763906 
L 89.265475 342.977094 
L 94.814741 215.633623 
L 100.364007 201.418142 
L 105.913274 202.865226 
L 111.46254 174.093774 
L 117.011806 176.136717 
L 122.561072 170.093009 
L 128.110338 182.435792 
L 133.659604 155.877528 
L 139.208871 149.323085 
L 144.758137 142.428151 
L 150.307403 251.470255 
L 155.856669 256.918104 
L 161.405935 251.129764 
L 166.955202 240.915047 
L 172.504468 130.510981 
L 178.053734 119.104547 
L 183.603 107.102255 
L 189.152266 114.337679 
L 194.701532 105.740292 
L 200.250799 113.316208 
L 205.800065 113.06084 
L 211.349331 107.612991 
L 216.898597 103.441981 
L 222.447863 107.868358 
L 227.997129 104.889066 
L 233.546396 107.612991 
L 239.095662 109.060075 
L 244.644928 104.974189 
L 250.194194 106.761764 
L 255.74346 105.399802 
L 261.292726 100.632934 
L 266.841993 105.229557 
L 272.391259 113.40133 
L 277.940525 108.038604 
L 283.489791 103.612226 
L 289.039057 103.782472 
L 294.588323 108.634462 
L 300.13759 103.952717 
L 305.686856 100.462689 
L 311.236122 112.720349 
L 316.785388 105.144434 
L 322.334654 103.527104 
L 327.88392 106.846887 
L 333.433187 124.722642 
L 338.982453 108.293972 
L 344.531719 104.37833 
L 350.080985 99.696585 
L 355.630251 105.144434 
L 361.179517 104.03784 
L 366.728784 106.165906 
L 372.27805 105.484925 
L 377.827316 102.505632 
L 383.376582 118.338443 
L 388.925848 112.890594 
L 394.475114 108.293972 
L 400.024381 107.442745 
L 405.573647 103.952717 
L 411.122913 102.505632 
L 416.672179 112.124491 
L 422.221445 101.48416 
L 427.770711 105.484925 
L 433.319978 107.017132 
L 438.869244 110.251792 
L 444.41851 106.165906 
L 449.967776 100.803179 
L 455.517042 105.910538 
L 461.066308 103.867594 
L 466.615575 105.059311 
L 472.164841 115.103783 
L 477.714107 103.697349 
L 483.263373 104.803943 
L 488.812639 108.208849 
L 494.361905 102.505632 
L 499.911172 124.978009 
L 505.460438 101.909774 
L 511.009704 104.548575 
L 516.55897 107.612991 
L 522.108236 107.698113 
L 527.657502 105.825415 
L 533.206769 105.399802 
L 538.756035 103.952717 
L 544.305301 105.229557 
L 549.854567 103.101491 
L 555.403833 104.208085 
L 560.953099 123.786292 
L 566.502366 103.271736 
L 572.051632 104.03784 
L 577.600898 106.846887 
L 583.150164 105.484925 
L 588.69943 104.293208 
L 594.248696 103.527104 
L 599.797963 102.335387 
L 605.347229 126.59534 
L 610.896495 103.782472 
L 616.445761 104.03784 
" clip-path="url(#pd733a13b68)" style="fill: none; stroke: #008000; stroke-opacity: 0.27; stroke-width: 1.25; stroke-linecap: round"/>
   </g>
   <g id="line2d_11">
    <path d="M 67.06841 390.305283 
L 72.617677 387.155745 
L 78.166943 390.305283 
L 83.716209 390.305283 
L 89.265475 378.813726 
L 94.814741 382.303755 
L 100.364007 390.305283 
L 105.913274 390.305283 
L 111.46254 390.305283 
L 117.011806 390.305283 
L 122.561072 390.305283 
L 128.110338 390.305283 
L 133.659604 390.305283 
L 139.208871 390.305283 
L 144.758137 390.305283 
L 150.307403 390.305283 
L 155.856669 390.305283 
L 161.405935 390.305283 
L 166.955202 390.305283 
L 172.504468 390.305283 
L 178.053734 390.305283 
L 183.603 390.305283 
L 189.152266 390.305283 
L 194.701532 390.305283 
L 200.250799 390.305283 
L 205.800065 390.305283 
L 211.349331 390.305283 
L 216.898597 390.305283 
L 222.447863 390.305283 
L 227.997129 390.305283 
L 233.546396 390.305283 
L 239.095662 390.305283 
L 244.644928 390.305283 
L 250.194194 390.305283 
L 255.74346 390.305283 
L 261.292726 390.305283 
L 266.841993 390.305283 
L 272.391259 390.305283 
L 277.940525 390.305283 
L 283.489791 390.305283 
L 289.039057 390.305283 
L 294.588323 390.305283 
L 300.13759 390.305283 
L 305.686856 390.305283 
L 311.236122 390.305283 
L 316.785388 390.305283 
L 322.334654 390.305283 
L 327.88392 390.305283 
L 333.433187 390.305283 
L 338.982453 390.305283 
L 344.531719 390.305283 
L 350.080985 390.305283 
L 355.630251 390.305283 
L 361.179517 390.305283 
L 366.728784 390.305283 
L 372.27805 390.305283 
L 377.827316 390.305283 
L 383.376582 390.305283 
L 388.925848 390.305283 
L 394.475114 390.305283 
L 400.024381 390.305283 
L 405.573647 390.305283 
L 411.122913 390.305283 
L 416.672179 390.305283 
L 422.221445 390.305283 
L 427.770711 390.305283 
L 433.319978 390.305283 
L 438.869244 390.305283 
L 444.41851 390.305283 
L 449.967776 390.305283 
L 455.517042 390.305283 
L 461.066308 390.305283 
L 466.615575 390.305283 
L 472.164841 390.305283 
L 477.714107 390.305283 
L 483.263373 390.305283 
L 488.812639 390.305283 
L 494.361905 390.305283 
L 499.911172 390.305283 
L 505.460438 390.305283 
L 511.009704 390.305283 
L 516.55897 390.305283 
L 522.108236 390.305283 
L 527.657502 390.305283 
L 533.206769 390.305283 
L 538.756035 390.305283 
L 544.305301 390.305283 
L 549.854567 390.305283 
L 555.403833 390.305283 
L 560.953099 390.305283 
L 566.502366 390.305283 
L 572.051632 390.305283 
L 577.600898 390.305283 
L 583.150164 390.305283 
L 588.69943 390.305283 
L 594.248696 390.305283 
L 599.797963 390.305283 
L 605.347229 390.305283 
L 610.896495 390.305283 
L 616.445761 390.305283 
" clip-path="url(#pd733a13b68)" style="fill: none; stroke: #008000; stroke-opacity: 0.27; stroke-width: 1.25; stroke-linecap: round"/>
   </g>
   <g id="line2d_12">
    <path d="M 67.06841 390.305283 
L 72.617677 390.305283 
L 78.166943 384.346698 
L 83.716209 375.493943 
L 89.265475 373.706368 
L 94.814741 312.247821 
L 100.364007 305.012396 
L 105.913274 227.635915 
L 111.46254 275.559962 
L 117.011806 225.252481 
L 122.561072 197.076887 
L 128.110338 155.196547 
L 133.659604 148.556981 
L 139.208871 125.573868 
L 144.758137 160.218783 
L 150.307403 122.08384 
L 155.856669 114.082311 
L 161.405935 112.379858 
L 166.955202 121.147491 
L 172.504468 106.251028 
L 178.053734 112.464981 
L 183.603 107.2725 
L 189.152266 103.186613 
L 194.701532 104.122962 
L 200.250799 108.293972 
L 205.800065 140.981066 
L 211.349331 110.847651 
L 216.898597 103.441981 
L 222.447863 101.228792 
L 227.997129 104.208085 
L 233.546396 106.336151 
L 239.095662 103.867594 
L 244.644928 104.548575 
L 250.194194 105.484925 
L 255.74346 103.186613 
L 261.292726 110.336915 
L 266.841993 116.465745 
L 272.391259 102.761 
L 277.940525 103.441981 
L 283.489791 110.592283 
L 289.039057 105.65517 
L 294.588323 107.783236 
L 300.13759 115.274028 
L 305.686856 103.527104 
L 311.236122 105.059311 
L 316.785388 104.548575 
L 322.334654 107.953481 
L 327.88392 103.782472 
L 333.433187 99.781708 
L 338.982453 117.316972 
L 344.531719 101.313915 
L 350.080985 104.974189 
L 355.630251 113.231085 
L 361.179517 103.016368 
L 366.728784 99.951953 
L 372.27805 100.122198 
L 377.827316 105.229557 
L 383.376582 105.059311 
L 388.925848 98.334623 
L 394.475114 103.782472 
L 400.024381 107.783236 
L 405.573647 119.870651 
L 411.122913 105.740292 
L 416.672179 114.422802 
L 422.221445 102.420509 
L 427.770711 104.889066 
L 433.319978 100.377566 
L 438.869244 98.845358 
L 444.41851 99.86683 
L 449.967776 102.505632 
L 455.517042 99.270972 
L 461.066308 101.313915 
L 466.615575 112.379858 
L 472.164841 99.696585 
L 477.714107 104.718821 
L 483.263373 107.2725 
L 488.812639 128.723406 
L 494.361905 105.570047 
L 499.911172 99.100726 
L 505.460438 104.718821 
L 511.009704 99.100726 
L 516.55897 113.316208 
L 522.108236 100.547811 
L 527.657502 100.292443 
L 533.206769 102.761 
L 538.756035 104.718821 
L 544.305301 99.441217 
L 549.854567 107.783236 
L 555.403833 97.653642 
L 560.953099 101.909774 
L 566.502366 107.2725 
L 572.051632 105.65517 
L 577.600898 107.102255 
L 583.150164 100.718057 
L 588.69943 100.547811 
L 594.248696 109.741057 
L 599.797963 100.377566 
L 605.347229 105.825415 
L 610.896495 105.99566 
L 616.445761 99.270972 
" clip-path="url(#pd733a13b68)" style="fill: none; stroke: #008000; stroke-opacity: 0.27; stroke-width: 1.25; stroke-linecap: round"/>
   </g>
   <g id="line2d_13">
    <path d="M 67.06841 310.545368 
L 72.617677 261.089113 
L 78.166943 299.309179 
L 83.716209 211.292368 
L 89.265475 163.02783 
L 94.814741 136.129075 
L 100.364007 130.085368 
L 105.913274 119.104547 
L 111.46254 118.849179 
L 117.011806 104.718821 
L 122.561072 111.017896 
L 128.110338 105.910538 
L 133.659604 109.826179 
L 139.208871 109.315443 
L 144.758137 112.209613 
L 150.307403 107.527868 
L 155.856669 112.294736 
L 161.405935 103.356858 
L 166.955202 109.570811 
L 172.504468 109.315443 
L 178.053734 101.994896 
L 183.603 118.083075 
L 189.152266 104.293208 
L 194.701532 107.527868 
L 200.250799 113.741821 
L 205.800065 105.740292 
L 211.349331 118.083075 
L 216.898597 107.953481 
L 222.447863 104.718821 
L 227.997129 108.293972 
L 233.546396 106.251028 
L 239.095662 104.548575 
L 244.644928 101.654406 
L 250.194194 105.144434 
L 255.74346 103.697349 
L 261.292726 102.590755 
L 266.841993 115.784764 
L 272.391259 111.103019 
L 277.940525 116.210377 
L 283.489791 107.868358 
L 289.039057 108.88983 
L 294.588323 107.102255 
L 300.13759 111.784 
L 305.686856 102.675877 
L 311.236122 116.040132 
L 316.785388 104.633698 
L 322.334654 108.208849 
L 327.88392 106.506396 
L 333.433187 105.740292 
L 338.982453 104.37833 
L 344.531719 105.570047 
L 350.080985 100.632934 
L 355.630251 108.88983 
L 361.179517 103.697349 
L 366.728784 102.675877 
L 372.27805 103.356858 
L 377.827316 103.697349 
L 383.376582 103.271736 
L 388.925848 103.782472 
L 394.475114 106.421274 
L 400.024381 103.441981 
L 405.573647 102.846123 
L 411.122913 103.016368 
L 416.672179 104.633698 
L 422.221445 103.612226 
L 427.770711 111.188142 
L 433.319978 103.782472 
L 438.869244 117.231849 
L 444.41851 106.846887 
L 449.967776 103.101491 
L 455.517042 103.527104 
L 461.066308 100.547811 
L 466.615575 100.718057 
L 472.164841 103.867594 
L 477.714107 105.314679 
L 483.263373 103.016368 
L 488.812639 96.887538 
L 494.361905 112.464981 
L 499.911172 97.398274 
L 505.460438 138.767877 
L 511.009704 101.399038 
L 516.55897 102.335387 
L 522.108236 99.781708 
L 527.657502 100.377566 
L 533.206769 98.2495 
L 538.756035 102.505632 
L 544.305301 103.271736 
L 549.854567 101.48416 
L 555.403833 108.379094 
L 560.953099 97.142906 
L 566.502366 105.399802 
L 572.051632 107.868358 
L 577.600898 101.909774 
L 583.150164 102.761 
L 588.69943 100.718057 
L 594.248696 108.038604 
L 599.797963 103.527104 
L 605.347229 102.080019 
L 610.896495 105.314679 
L 616.445761 110.677406 
" clip-path="url(#pd733a13b68)" style="fill: none; stroke: #008000; stroke-opacity: 0.27; stroke-width: 1.25; stroke-linecap: round"/>
   </g>
   <g id="line2d_14">
    <path d="M 67.06841 390.305283 
L 72.617677 390.305283 
L 78.166943 390.305283 
L 83.716209 390.305283 
L 89.265475 390.305283 
L 94.814741 390.305283 
L 100.364007 390.305283 
L 105.913274 390.305283 
L 111.46254 390.305283 
L 117.011806 390.305283 
L 122.561072 390.305283 
L 128.110338 390.305283 
L 133.659604 390.305283 
L 139.208871 390.305283 
L 144.758137 390.305283 
L 150.307403 390.305283 
L 155.856669 390.305283 
L 161.405935 390.305283 
L 166.955202 390.305283 
L 172.504468 390.305283 
L 178.053734 390.305283 
L 183.603 390.305283 
L 189.152266 390.305283 
L 194.701532 390.305283 
L 200.250799 390.305283 
L 205.800065 365.023858 
L 211.349331 354.809142 
L 216.898597 380.771547 
L 222.447863 359.235519 
L 227.997129 341.785377 
L 233.546396 277.262415 
L 239.095662 241.766274 
L 244.644928 225.84834 
L 250.194194 175.796226 
L 255.74346 151.876764 
L 261.292726 147.790877 
L 266.841993 133.915887 
L 272.391259 120.892123 
L 277.940525 112.209613 
L 283.489791 111.443509 
L 289.039057 107.442745 
L 294.588323 120.551632 
L 300.13759 106.336151 
L 305.686856 110.847651 
L 311.236122 110.336915 
L 316.785388 104.803943 
L 322.334654 126.084604 
L 327.88392 108.379094 
L 333.433187 104.208085 
L 338.982453 111.698877 
L 344.531719 113.656698 
L 350.080985 103.186613 
L 355.630251 115.529396 
L 361.179517 106.591519 
L 366.728784 104.463453 
L 372.27805 102.335387 
L 377.827316 106.251028 
L 383.376582 97.738764 
L 388.925848 104.889066 
L 394.475114 104.974189 
L 400.024381 105.399802 
L 405.573647 114.933538 
L 411.122913 108.038604 
L 416.672179 113.06084 
L 422.221445 103.441981 
L 427.770711 104.803943 
L 433.319978 114.422802 
L 438.869244 105.99566 
L 444.41851 109.826179 
L 449.967776 106.846887 
L 455.517042 100.973425 
L 461.066308 123.786292 
L 466.615575 104.122962 
L 472.164841 103.101491 
L 477.714107 105.99566 
L 483.263373 116.891358 
L 488.812639 105.399802 
L 494.361905 106.251028 
L 499.911172 101.14367 
L 505.460438 105.825415 
L 511.009704 104.803943 
L 516.55897 110.081547 
L 522.108236 101.569283 
L 527.657502 104.122962 
L 533.206769 99.781708 
L 538.756035 109.826179 
L 544.305301 107.442745 
L 549.854567 109.996425 
L 555.403833 101.739528 
L 560.953099 101.313915 
L 566.502366 110.592283 
L 572.051632 105.314679 
L 577.600898 104.37833 
L 583.150164 109.826179 
L 588.69943 104.718821 
L 594.248696 111.698877 
L 599.797963 100.547811 
L 605.347229 100.973425 
L 610.896495 104.122962 
L 616.445761 98.589991 
" clip-path="url(#pd733a13b68)" style="fill: none; stroke: #008000; stroke-opacity: 0.27; stroke-width: 1.25; stroke-linecap: round"/>
   </g>
   <g id="line2d_15">
    <path d="M 67.06841 49.814717 
L 72.617677 68.877973 
L 78.166943 81.100225 
L 83.716209 87.71902 
L 89.265475 92.337732 
L 94.814741 132.984792 
L 100.364007 143.44305 
L 105.913274 151.539905 
L 111.46254 186.711731 
L 117.011806 187.946063 
L 122.561072 198.828277 
L 128.110338 205.866266 
L 133.659604 198.897767 
L 139.208871 213.45911 
L 144.758137 232.256585 
L 150.307403 261.917743 
L 155.856669 276.257464 
L 161.405935 279.098848 
L 166.955202 279.637822 
L 172.504468 279.66895 
L 178.053734 292.736285 
L 183.603 297.142315 
L 189.152266 307.957575 
L 194.701532 310.495145 
L 200.250799 317.413299 
L 205.800065 324.025178 
L 211.349331 324.312694 
L 216.898597 320.666221 
L 222.447863 324.803212 
L 227.997129 328.940634 
L 233.546396 339.451797 
L 239.095662 336.52644 
L 244.644928 336.344808 
L 250.194194 323.972552 
L 255.74346 322.48859 
L 261.292726 329.070103 
L 266.841993 331.195712 
L 272.391259 335.179705 
L 277.940525 333.984786 
L 283.489791 337.689079 
L 289.039057 336.048164 
L 294.588323 337.18144 
L 300.13759 339.470126 
L 305.686856 337.223966 
L 311.236122 341.692423 
L 316.785388 336.323277 
L 322.334654 345.498456 
L 327.88392 346.624709 
L 333.433187 352.698857 
L 338.982453 359.502748 
L 344.531719 356.691542 
L 350.080985 356.474123 
L 355.630251 358.434158 
L 361.179517 355.412438 
L 366.728784 355.575361 
L 372.27805 357.512894 
L 377.827316 358.373496 
L 383.376582 364.414555 
L 388.925848 370.115071 
L 394.475114 368.915469 
L 400.024381 359.970774 
L 405.573647 361.446149 
L 411.122913 360.314885 
L 416.672179 361.331196 
L 422.221445 358.607421 
L 427.770711 358.113286 
L 433.319978 361.026642 
L 438.869244 363.043369 
L 444.41851 369.751353 
L 449.967776 371.332766 
L 455.517042 374.833241 
L 461.066308 378.490433 
L 466.615575 371.877697 
L 472.164841 372.819742 
L 477.714107 375.152532 
L 483.263373 374.273618 
L 488.812639 369.419985 
L 494.361905 370.094586 
L 499.911172 369.049934 
L 505.460438 374.971078 
L 511.009704 378.358478 
L 516.55897 378.930558 
L 522.108236 374.433434 
L 527.657502 377.568377 
L 533.206769 374.57105 
L 538.756035 377.044565 
L 544.305301 383.656696 
L 549.854567 385.438986 
L 555.403833 388.946038 
L 560.953099 386.588247 
L 566.502366 390.305283 
L 572.051632 389.460288 
L 577.600898 388.75162 
L 583.150164 384.306444 
L 588.69943 380.004214 
L 594.248696 376.287465 
L 599.797963 374.778994 
L 605.347229 380.390866 
L 610.896495 376.529896 
L 616.445761 385.068254 
" clip-path="url(#pd733a13b68)" style="fill: none; stroke: #7b3ab8; stroke-width: 1.5; stroke-linecap: round"/>
   </g>
   <g id="patch_3">
    <path d="M 56.23 400.52 
L 56.23 39.6 
" style="fill: none; stroke: #ffffff; stroke-width: 0.8; stroke-linejoin: miter; stroke-linecap: square"/>
   </g>
   <g id="patch_4">
    <path d="M 623.801429 400.52 
L 623.801429 39.6 
" style="fill: none; stroke: #ffffff; stroke-width: 0.8; stroke-linejoin: miter; stroke-linecap: square"/>
   </g>
   <g id="patch_5">
    <path d="M 56.23 400.52 
L 623.801429 400.52 
" style="fill: none; stroke: #ffffff; stroke-width: 0.8; stroke-linejoin: miter; stroke-linecap: square"/>
   </g>
   <g id="patch_6">
    <path d="M 56.23 39.6 
L 623.801429 39.6 
" style="fill: none; stroke: #ffffff; stroke-width: 0.8; stroke-linejoin: miter; stroke-linecap: square"/>
   </g>
  </g>
  <g id="text_9">
   <!-- Acrobot-v1 | CMU-Net (Alignment + Penalty + Margin) -->
   <g style="fill: #262626" transform="translate(49.200469 22.395938) scale(0.18 -0.18)">
    <defs>
     <path id="DejaVuSans-Bold-41" d="M 3419 850 
L 1538 850 
L 1241 0 
L 31 0 
L 1759 4666 
L 3194 4666 
L 4922 0 
L 3713 0 
L 3419 850 
z
M 1838 1716 
L 3116 1716 
L 2478 3572 
L 1838 1716 
z
" transform="scale(0.015625)"/>
     <path id="DejaVuSans-Bold-63" d="M 3366 3391 
L 3366 2478 
Q 3138 2634 2908 2709 
Q 2678 2784 2431 2784 
Q 1963 2784 1702 2511 
Q 1441 2238 1441 1747 
Q 1441 1256 1702 982 
Q 1963 709 2431 709 
Q 2694 709 2930 787 
Q 3166 866 3366 1019 
L 3366 103 
Q 3103 6 2833 -42 
Q 2563 -91 2291 -91 
Q 1344 -91 809 395 
Q 275 881 275 1747 
Q 275 2613 809 3098 
Q 1344 3584 2291 3584 
Q 2566 3584 2833 3536 
Q 3100 3488 3366 3391 
z
" transform="scale(0.015625)"/>
     <path id="DejaVuSans-Bold-72" d="M 3138 2547 
Q 2991 2616 2845 2648 
Q 2700 2681 2553 2681 
Q 2122 2681 1889 2404 
Q 1656 2128 1656 1613 
L 1656 0 
L 538 0 
L 538 3500 
L 1656 3500 
L 1656 2925 
Q 1872 3269 2151 3426 
Q 2431 3584 2822 3584 
Q 2878 3584 2943 3579 
Q 3009 3575 3134 3559 
L 3138 2547 
z
" transform="scale(0.015625)"/>
     <path id="DejaVuSans-Bold-6f" d="M 2203 2784 
Q 1831 2784 1636 2517 
Q 1441 2250 1441 1747 
Q 1441 1244 1636 976 
Q 1831 709 2203 709 
Q 2569 709 2762 976 
Q 2956 1244 2956 1747 
Q 2956 2250 2762 2517 
Q 2569 2784 2203 2784 
z
M 2203 3584 
Q 3106 3584 3614 3096 
Q 4122 2609 4122 1747 
Q 4122 884 3614 396 
Q 3106 -91 2203 -91 
Q 1297 -91 786 396 
Q 275 884 275 1747 
Q 275 2609 786 3096 
Q 1297 3584 2203 3584 
z
" transform="scale(0.015625)"/>
     <path id="DejaVuSans-Bold-62" d="M 2400 722 
Q 2759 722 2948 984 
Q 3138 1247 3138 1747 
Q 3138 2247 2948 2509 
Q 2759 2772 2400 2772 
Q 2041 2772 1848 2508 
Q 1656 2244 1656 1747 
Q 1656 1250 1848 986 
Q 2041 722 2400 722 
z
M 1656 2988 
Q 1888 3294 2169 3439 
Q 2450 3584 2816 3584 
Q 3463 3584 3878 3070 
Q 4294 2556 4294 1747 
Q 4294 938 3878 423 
Q 3463 -91 2816 -91 
Q 2450 -91 2169 54 
Q 1888 200 1656 506 
L 1656 0 
L 538 0 
L 538 4863 
L 1656 4863 
L 1656 2988 
z
" transform="scale(0.015625)"/>
     <path id="DejaVuSans-Bold-74" d="M 1759 4494 
L 1759 3500 
L 2913 3500 
L 2913 2700 
L 1759 2700 
L 1759 1216 
Q 1759 972 1856 886 
Q 1953 800 2241 800 
L 2816 800 
L 2816 0 
L 1856 0 
Q 1194 0 917 276 
Q 641 553 641 1216 
L 641 2700 
L 84 2700 
L 84 3500 
L 641 3500 
L 641 4494 
L 1759 4494 
z
" transform="scale(0.015625)"/>
     <path id="DejaVuSans-Bold-2d" d="M 347 2297 
L 2309 2297 
L 2309 1388 
L 347 1388 
L 347 2297 
z
" transform="scale(0.015625)"/>
     <path id="DejaVuSans-Bold-76" d="M 97 3500 
L 1216 3500 
L 2088 1081 
L 2956 3500 
L 4078 3500 
L 2700 0 
L 1472 0 
L 97 3500 
z
" transform="scale(0.015625)"/>
     <path id="DejaVuSans-Bold-31" d="M 750 831 
L 1813 831 
L 1813 3847 
L 722 3622 
L 722 4441 
L 1806 4666 
L 2950 4666 
L 2950 831 
L 4013 831 
L 4013 0 
L 750 0 
L 750 831 
z
" transform="scale(0.015625)"/>
     <path id="DejaVuSans-Bold-20" transform="scale(0.015625)"/>
     <path id="DejaVuSans-Bold-7c" d="M 1522 4891 
L 1522 -1509 
L 813 -1509 
L 813 4891 
L 1522 4891 
z
" transform="scale(0.015625)"/>
     <path id="DejaVuSans-Bold-43" d="M 4288 256 
Q 3956 84 3597 -3 
Q 3238 -91 2847 -91 
Q 1681 -91 1000 561 
Q 319 1213 319 2328 
Q 319 3447 1000 4098 
Q 1681 4750 2847 4750 
Q 3238 4750 3597 4662 
Q 3956 4575 4288 4403 
L 4288 3438 
Q 3953 3666 3628 3772 
Q 3303 3878 2944 3878 
Q 2300 3878 1931 3465 
Q 1563 3053 1563 2328 
Q 1563 1606 1931 1193 
Q 2300 781 2944 781 
Q 3303 781 3628 887 
Q 3953 994 4288 1222 
L 4288 256 
z
" transform="scale(0.015625)"/>
     <path id="DejaVuSans-Bold-4d" d="M 588 4666 
L 2119 4666 
L 3181 2169 
L 4250 4666 
L 5778 4666 
L 5778 0 
L 4641 0 
L 4641 3413 
L 3566 897 
L 2803 897 
L 1728 3413 
L 1728 0 
L 588 0 
L 588 4666 
z
" transform="scale(0.015625)"/>
     <path id="DejaVuSans-Bold-55" d="M 588 4666 
L 1791 4666 
L 1791 1869 
Q 1791 1291 1980 1042 
Q 2169 794 2597 794 
Q 3028 794 3217 1042 
Q 3406 1291 3406 1869 
L 3406 4666 
L 4609 4666 
L 4609 1869 
Q 4609 878 4112 393 
Q 3616 -91 2597 -91 
Q 1581 -91 1084 393 
Q 588 878 588 1869 
L 588 4666 
z
" transform="scale(0.015625)"/>
     <path id="DejaVuSans-Bold-4e" d="M 588 4666 
L 1931 4666 
L 3628 1466 
L 3628 4666 
L 4769 4666 
L 4769 0 
L 3425 0 
L 1728 3200 
L 1728 0 
L 588 0 
L 588 4666 
z
" transform="scale(0.015625)"/>
     <path id="DejaVuSans-Bold-65" d="M 4031 1759 
L 4031 1441 
L 1416 1441 
Q 1456 1047 1700 850 
Q 1944 653 2381 653 
Q 2734 653 3104 758 
Q 3475 863 3866 1075 
L 3866 213 
Q 3469 63 3072 -14 
Q 2675 -91 2278 -91 
Q 1328 -91 801 392 
Q 275 875 275 1747 
Q 275 2603 792 3093 
Q 1309 3584 2216 3584 
Q 3041 3584 3536 3087 
Q 4031 2591 4031 1759 
z
M 2881 2131 
Q 2881 2450 2695 2645 
Q 2509 2841 2209 2841 
Q 1884 2841 1681 2658 
Q 1478 2475 1428 2131 
L 2881 2131 
z
" transform="scale(0.015625)"/>
     <path id="DejaVuSans-Bold-28" d="M 2413 -844 
L 1484 -844 
Q 1006 -72 778 623 
Q 550 1319 550 2003 
Q 550 2688 779 3389 
Q 1009 4091 1484 4856 
L 2413 4856 
Q 2013 4116 1813 3408 
Q 1613 2700 1613 2009 
Q 1613 1319 1811 609 
Q 2009 -100 2413 -844 
z
" transform="scale(0.015625)"/>
     <path id="DejaVuSans-Bold-6c" d="M 538 4863 
L 1656 4863 
L 1656 0 
L 538 0 
L 538 4863 
z
" transform="scale(0.015625)"/>
     <path id="DejaVuSans-Bold-69" d="M 538 3500 
L 1656 3500 
L 1656 0 
L 538 0 
L 538 3500 
z
M 538 4863 
L 1656 4863 
L 1656 3950 
L 538 3950 
L 538 4863 
z
" transform="scale(0.015625)"/>
     <path id="DejaVuSans-Bold-67" d="M 2919 594 
Q 2688 288 2409 144 
Q 2131 0 1766 0 
Q 1125 0 706 504 
Q 288 1009 288 1791 
Q 288 2575 706 3076 
Q 1125 3578 1766 3578 
Q 2131 3578 2409 3434 
Q 2688 3291 2919 2981 
L 2919 3500 
L 4044 3500 
L 4044 353 
Q 4044 -491 3511 -936 
Q 2978 -1381 1966 -1381 
Q 1638 -1381 1331 -1331 
Q 1025 -1281 716 -1178 
L 716 -306 
Q 1009 -475 1290 -558 
Q 1572 -641 1856 -641 
Q 2406 -641 2662 -400 
Q 2919 -159 2919 353 
L 2919 594 
z
M 2181 2772 
Q 1834 2772 1640 2515 
Q 1447 2259 1447 1791 
Q 1447 1309 1634 1061 
Q 1822 813 2181 813 
Q 2531 813 2725 1069 
Q 2919 1325 2919 1791 
Q 2919 2259 2725 2515 
Q 2531 2772 2181 2772 
z
" transform="scale(0.015625)"/>
     <path id="DejaVuSans-Bold-6e" d="M 4056 2131 
L 4056 0 
L 2931 0 
L 2931 347 
L 2931 1631 
Q 2931 2084 2911 2256 
Q 2891 2428 2841 2509 
Q 2775 2619 2662 2680 
Q 2550 2741 2406 2741 
Q 2056 2741 1856 2470 
Q 1656 2200 1656 1722 
L 1656 0 
L 538 0 
L 538 3500 
L 1656 3500 
L 1656 2988 
Q 1909 3294 2193 3439 
Q 2478 3584 2822 3584 
Q 3428 3584 3742 3212 
Q 4056 2841 4056 2131 
z
" transform="scale(0.015625)"/>
     <path id="DejaVuSans-Bold-6d" d="M 3781 2919 
Q 3994 3244 4286 3414 
Q 4578 3584 4928 3584 
Q 5531 3584 5847 3212 
Q 6163 2841 6163 2131 
L 6163 0 
L 5038 0 
L 5038 1825 
Q 5041 1866 5042 1909 
Q 5044 1953 5044 2034 
Q 5044 2406 4934 2573 
Q 4825 2741 4581 2741 
Q 4263 2741 4089 2478 
Q 3916 2216 3909 1719 
L 3909 0 
L 2784 0 
L 2784 1825 
Q 2784 2406 2684 2573 
Q 2584 2741 2328 2741 
Q 2006 2741 1831 2477 
Q 1656 2213 1656 1722 
L 1656 0 
L 531 0 
L 531 3500 
L 1656 3500 
L 1656 2988 
Q 1863 3284 2130 3434 
Q 2397 3584 2719 3584 
Q 3081 3584 3359 3409 
Q 3638 3234 3781 2919 
z
" transform="scale(0.015625)"/>
     <path id="DejaVuSans-Bold-2b" d="M 3053 4013 
L 3053 2375 
L 4684 2375 
L 4684 1638 
L 3053 1638 
L 3053 0 
L 2309 0 
L 2309 1638 
L 678 1638 
L 678 2375 
L 2309 2375 
L 2309 4013 
L 3053 4013 
z
" transform="scale(0.015625)"/>
     <path id="DejaVuSans-Bold-50" d="M 588 4666 
L 2584 4666 
Q 3475 4666 3951 4270 
Q 4428 3875 4428 3144 
Q 4428 2409 3951 2014 
Q 3475 1619 2584 1619 
L 1791 1619 
L 1791 0 
L 588 0 
L 588 4666 
z
M 1791 3794 
L 1791 2491 
L 2456 2491 
Q 2806 2491 2997 2661 
Q 3188 2831 3188 3144 
Q 3188 3456 2997 3625 
Q 2806 3794 2456 3794 
L 1791 3794 
z
" transform="scale(0.015625)"/>
     <path id="DejaVuSans-Bold-61" d="M 2106 1575 
Q 1756 1575 1579 1456 
Q 1403 1338 1403 1106 
Q 1403 894 1545 773 
Q 1688 653 1941 653 
Q 2256 653 2472 879 
Q 2688 1106 2688 1447 
L 2688 1575 
L 2106 1575 
z
M 3816 1997 
L 3816 0 
L 2688 0 
L 2688 519 
Q 2463 200 2181 54 
Q 1900 -91 1497 -91 
Q 953 -91 614 226 
Q 275 544 275 1050 
Q 275 1666 698 1953 
Q 1122 2241 2028 2241 
L 2688 2241 
L 2688 2328 
Q 2688 2594 2478 2717 
Q 2269 2841 1825 2841 
Q 1466 2841 1156 2769 
Q 847 2697 581 2553 
L 581 3406 
Q 941 3494 1303 3539 
Q 1666 3584 2028 3584 
Q 2975 3584 3395 3211 
Q 3816 2838 3816 1997 
z
" transform="scale(0.015625)"/>
     <path id="DejaVuSans-Bold-79" d="M 78 3500 
L 1197 3500 
L 2138 1125 
L 2938 3500 
L 4056 3500 
L 2584 -331 
Q 2363 -916 2067 -1148 
Q 1772 -1381 1288 -1381 
L 641 -1381 
L 641 -647 
L 991 -647 
Q 1275 -647 1404 -556 
Q 1534 -466 1606 -231 
L 1638 -134 
L 78 3500 
z
" transform="scale(0.015625)"/>
     <path id="DejaVuSans-Bold-29" d="M 513 -844 
Q 913 -100 1113 609 
Q 1313 1319 1313 2009 
Q 1313 2700 1113 3408 
Q 913 4116 513 4856 
L 1441 4856 
Q 1916 4091 2145 3389 
Q 2375 2688 2375 2003 
Q 2375 1319 2147 623 
Q 1919 -72 1441 -844 
L 513 -844 
z
" transform="scale(0.015625)"/>
    </defs>
    <use xlink:href="#DejaVuSans-Bold-41"/>
    <use xlink:href="#DejaVuSans-Bold-63" transform="translate(77.392578 0)"/>
    <use xlink:href="#DejaVuSans-Bold-72" transform="translate(136.669922 0)"/>
    <use xlink:href="#DejaVuSans-Bold-6f" transform="translate(185.986328 0)"/>
    <use xlink:href="#DejaVuSans-Bold-62" transform="translate(254.6875 0)"/>
    <use xlink:href="#DejaVuSans-Bold-6f" transform="translate(326.269531 0)"/>
    <use xlink:href="#DejaVuSans-Bold-74" transform="translate(394.970703 0)"/>
    <use xlink:href="#DejaVuSans-Bold-2d" transform="translate(442.773438 0)"/>
    <use xlink:href="#DejaVuSans-Bold-76" transform="translate(484.277344 0)"/>
    <use xlink:href="#DejaVuSans-Bold-31" transform="translate(549.462891 0)"/>
    <use xlink:href="#DejaVuSans-Bold-20" transform="translate(619.042969 0)"/>
    <use xlink:href="#DejaVuSans-Bold-7c" transform="translate(653.857422 0)"/>
    <use xlink:href="#DejaVuSans-Bold-20" transform="translate(690.380859 0)"/>
    <use xlink:href="#DejaVuSans-Bold-43" transform="translate(725.195312 0)"/>
    <use xlink:href="#DejaVuSans-Bold-4d" transform="translate(798.583984 0)"/>
    <use xlink:href="#DejaVuSans-Bold-55" transform="translate(898.095703 0)"/>
    <use xlink:href="#DejaVuSans-Bold-2d" transform="translate(979.296875 0)"/>
    <use xlink:href="#DejaVuSans-Bold-4e" transform="translate(1020.800781 0)"/>
    <use xlink:href="#DejaVuSans-Bold-65" transform="translate(1104.492188 0)"/>
    <use xlink:href="#DejaVuSans-Bold-74" transform="translate(1172.314453 0)"/>
    <use xlink:href="#DejaVuSans-Bold-20" transform="translate(1220.117188 0)"/>
    <use xlink:href="#DejaVuSans-Bold-28" transform="translate(1254.931641 0)"/>
    <use xlink:href="#DejaVuSans-Bold-41" transform="translate(1300.634766 0)"/>
    <use xlink:href="#DejaVuSans-Bold-6c" transform="translate(1378.027344 0)"/>
    <use xlink:href="#DejaVuSans-Bold-69" transform="translate(1412.304688 0)"/>
    <use xlink:href="#DejaVuSans-Bold-67" transform="translate(1446.582031 0)"/>
    <use xlink:href="#DejaVuSans-Bold-6e" transform="translate(1518.164062 0)"/>
    <use xlink:href="#DejaVuSans-Bold-6d" transform="translate(1589.355469 0)"/>
    <use xlink:href="#DejaVuSans-Bold-65" transform="translate(1693.554688 0)"/>
    <use xlink:href="#DejaVuSans-Bold-6e" transform="translate(1761.376953 0)"/>
    <use xlink:href="#DejaVuSans-Bold-74" transform="translate(1832.568359 0)"/>
    <use xlink:href="#DejaVuSans-Bold-20" transform="translate(1880.371094 0)"/>
    <use xlink:href="#DejaVuSans-Bold-2b" transform="translate(1915.185547 0)"/>
    <use xlink:href="#DejaVuSans-Bold-20" transform="translate(1998.974609 0)"/>
    <use xlink:href="#DejaVuSans-Bold-50" transform="translate(2033.789062 0)"/>
    <use xlink:href="#DejaVuSans-Bold-65" transform="translate(2107.080078 0)"/>
    <use xlink:href="#DejaVuSans-Bold-6e" transform="translate(2174.902344 0)"/>
    <use xlink:href="#DejaVuSans-Bold-61" transform="translate(2246.09375 0)"/>
    <use xlink:href="#DejaVuSans-Bold-6c" transform="translate(2313.574219 0)"/>
    <use xlink:href="#DejaVuSans-Bold-74" transform="translate(2347.851562 0)"/>
    <use xlink:href="#DejaVuSans-Bold-79" transform="translate(2395.654297 0)"/>
    <use xlink:href="#DejaVuSans-Bold-20" transform="translate(2460.839844 0)"/>
    <use xlink:href="#DejaVuSans-Bold-2b" transform="translate(2495.654297 0)"/>
    <use xlink:href="#DejaVuSans-Bold-20" transform="translate(2579.443359 0)"/>
    <use xlink:href="#DejaVuSans-Bold-4d" transform="translate(2614.257812 0)"/>
    <use xlink:href="#DejaVuSans-Bold-61" transform="translate(2713.769531 0)"/>
    <use xlink:href="#DejaVuSans-Bold-72" transform="translate(2781.25 0)"/>
    <use xlink:href="#DejaVuSans-Bold-67" transform="translate(2830.566406 0)"/>
    <use xlink:href="#DejaVuSans-Bold-69" transform="translate(2902.148438 0)"/>
    <use xlink:href="#DejaVuSans-Bold-6e" transform="translate(2936.425781 0)"/>
    <use xlink:href="#DejaVuSans-Bold-29" transform="translate(3007.617188 0)"/>
   </g>
  </g>
 </g>
 <defs>
  <clipPath id="pd733a13b68">
   <rect x="56.23" y="39.6" width="567.571429" height="360.92"/>
  </clipPath>
 </defs>
</svg>
