<?xml version="1.0" encoding="utf-8" standalone="no"?>
<!DOCTYPE svg PUBLIC "-//W3C//DTD SVG 1.1//EN"
  "http://www.w3.org/Graphics/SVG/1.1/DTD/svg11.dtd">
<svg xmlns:xlink="http://www.w3.org/1999/xlink" width="648pt" height="432pt" viewBox="0 0 648 432" xmlns="http://www.w3.org/2000/svg" version="1.1">
 <metadata>
  <rdf:RDF xmlns:dc="http://purl.org/dc/elements/1.1/" xmlns:cc="http://creativecommons.org/ns#" xmlns:rdf="http://www.w3.org/1999/02/22-rdf-syntax-ns#">
   <cc:Work>
    <dc:type rdf:resource="http://purl.org/dc/dcmitype/StillImage"/>
    <dc:date>2025-07-31T05:18:30.349170</dc:date>
    <dc:format>image/svg+xml</dc:format>
    <dc:creator>
     <cc:Agent>
      <dc:title>Matplotlib v3.10.0, https://matplotlib.org/</dc:title>
     </cc:Agent>
    </dc:creator>
   </cc:Work>
  </rdf:RDF>
 </metadata>
 <defs>
  <style type="text/css">*{stroke-linejoin: round; stroke-linecap: butt}</style>
 </defs>
 <g id="figure_1">
  <g id="patch_1">
   <path d="M 0 432 
L 648 432 
L 648 0 
L 0 0 
z
" style="fill: #ffffff"/>
  </g>
  <g id="axes_1">
   <g id="patch_2">
    <path d="M 56.23 400.52 
L 623.801429 400.52 
L 623.801429 39.6 
L 56.23 39.6 
z
" style="fill: #eaeaf2"/>
   </g>
   <g id="matplotlib.axis_1">
    <g id="xtick_1">
     <g id="line2d_1">
      <path d="M 67.06841 400.52 
L 67.06841 39.6 
" clip-path="url(#p21819b5518)" style="fill: none; stroke: #ffffff; stroke-width: 0.8; stroke-linecap: round"/>
     </g>
     <g id="text_1">
      <!-- 0 -->
      <g style="fill: #262626" transform="translate(62.61466 418.157812) scale(0.14 -0.14)">
       <defs>
        <path id="DejaVuSans-30" d="M 2034 4250 
Q 1547 4250 1301 3770 
Q 1056 3291 1056 2328 
Q 1056 1369 1301 889 
Q 1547 409 2034 409 
Q 2525 409 2770 889 
Q 3016 1369 3016 2328 
Q 3016 3291 2770 3770 
Q 2525 4250 2034 4250 
z
M 2034 4750 
Q 2819 4750 3233 4129 
Q 3647 3509 3647 2328 
Q 3647 1150 3233 529 
Q 2819 -91 2034 -91 
Q 1250 -91 836 529 
Q 422 1150 422 2328 
Q 422 3509 836 4129 
Q 1250 4750 2034 4750 
z
" transform="scale(0.015625)"/>
       </defs>
       <use xlink:href="#DejaVuSans-30"/>
      </g>
     </g>
    </g>
    <g id="xtick_2">
     <g id="line2d_2">
      <path d="M 608.988935 400.52 
L 608.988935 39.6 
" clip-path="url(#p21819b5518)" style="fill: none; stroke: #ffffff; stroke-width: 0.8; stroke-linecap: round"/>
     </g>
     <g id="text_2">
      <!-- 600000 -->
      <g style="fill: #262626" transform="translate(582.266435 418.157812) scale(0.14 -0.14)">
       <defs>
        <path id="DejaVuSans-36" d="M 2113 2584 
Q 1688 2584 1439 2293 
Q 1191 2003 1191 1497 
Q 1191 994 1439 701 
Q 1688 409 2113 409 
Q 2538 409 2786 701 
Q 3034 994 3034 1497 
Q 3034 2003 2786 2293 
Q 2538 2584 2113 2584 
z
M 3366 4563 
L 3366 3988 
Q 3128 4100 2886 4159 
Q 2644 4219 2406 4219 
Q 1781 4219 1451 3797 
Q 1122 3375 1075 2522 
Q 1259 2794 1537 2939 
Q 1816 3084 2150 3084 
Q 2853 3084 3261 2657 
Q 3669 2231 3669 1497 
Q 3669 778 3244 343 
Q 2819 -91 2113 -91 
Q 1303 -91 875 529 
Q 447 1150 447 2328 
Q 447 3434 972 4092 
Q 1497 4750 2381 4750 
Q 2619 4750 2861 4703 
Q 3103 4656 3366 4563 
z
" transform="scale(0.015625)"/>
       </defs>
       <use xlink:href="#DejaVuSans-36"/>
       <use xlink:href="#DejaVuSans-30" transform="translate(63.623047 0)"/>
       <use xlink:href="#DejaVuSans-30" transform="translate(127.246094 0)"/>
       <use xlink:href="#DejaVuSans-30" transform="translate(190.869141 0)"/>
       <use xlink:href="#DejaVuSans-30" transform="translate(254.492188 0)"/>
       <use xlink:href="#DejaVuSans-30" transform="translate(318.115234 0)"/>
      </g>
     </g>
    </g>
   </g>
   <g id="matplotlib.axis_2">
    <g id="ytick_1">
     <g id="line2d_3">
      <path d="M 56.23 390.305283 
L 623.801429 390.305283 
" clip-path="url(#p21819b5518)" style="fill: none; stroke: #ffffff; stroke-width: 0.8; stroke-linecap: round"/>
     </g>
     <g id="text_3">
      <!-- −500 -->
      <g style="fill: #262626" transform="translate(10.775938 395.624189) scale(0.14 -0.14)">
       <defs>
        <path id="DejaVuSans-2212" d="M 678 2272 
L 4684 2272 
L 4684 1741 
L 678 1741 
L 678 2272 
z
" transform="scale(0.015625)"/>
        <path id="DejaVuSans-35" d="M 691 4666 
L 3169 4666 
L 3169 4134 
L 1269 4134 
L 1269 2991 
Q 1406 3038 1543 3061 
Q 1681 3084 1819 3084 
Q 2600 3084 3056 2656 
Q 3513 2228 3513 1497 
Q 3513 744 3044 326 
Q 2575 -91 1722 -91 
Q 1428 -91 1123 -41 
Q 819 9 494 109 
L 494 744 
Q 775 591 1075 516 
Q 1375 441 1709 441 
Q 2250 441 2565 725 
Q 2881 1009 2881 1497 
Q 2881 1984 2565 2268 
Q 2250 2553 1709 2553 
Q 1456 2553 1204 2497 
Q 953 2441 691 2322 
L 691 4666 
z
" transform="scale(0.015625)"/>
       </defs>
       <use xlink:href="#DejaVuSans-2212"/>
       <use xlink:href="#DejaVuSans-35" transform="translate(83.789062 0)"/>
       <use xlink:href="#DejaVuSans-30" transform="translate(147.412109 0)"/>
       <use xlink:href="#DejaVuSans-30" transform="translate(211.035156 0)"/>
      </g>
     </g>
    </g>
    <g id="ytick_2">
     <g id="line2d_4">
      <path d="M 56.23 322.20717 
L 623.801429 322.20717 
" clip-path="url(#p21819b5518)" style="fill: none; stroke: #ffffff; stroke-width: 0.8; stroke-linecap: round"/>
     </g>
     <g id="text_4">
      <!-- −400 -->
      <g style="fill: #262626" transform="translate(10.775938 327.526076) scale(0.14 -0.14)">
       <defs>
        <path id="DejaVuSans-34" d="M 2419 4116 
L 825 1625 
L 2419 1625 
L 2419 4116 
z
M 2253 4666 
L 3047 4666 
L 3047 1625 
L 3713 1625 
L 3713 1100 
L 3047 1100 
L 3047 0 
L 2419 0 
L 2419 1100 
L 313 1100 
L 313 1709 
L 2253 4666 
z
" transform="scale(0.015625)"/>
       </defs>
       <use xlink:href="#DejaVuSans-2212"/>
       <use xlink:href="#DejaVuSans-34" transform="translate(83.789062 0)"/>
       <use xlink:href="#DejaVuSans-30" transform="translate(147.412109 0)"/>
       <use xlink:href="#DejaVuSans-30" transform="translate(211.035156 0)"/>
      </g>
     </g>
    </g>
    <g id="ytick_3">
     <g id="line2d_5">
      <path d="M 56.23 254.109057 
L 623.801429 254.109057 
" clip-path="url(#p21819b5518)" style="fill: none; stroke: #ffffff; stroke-width: 0.8; stroke-linecap: round"/>
     </g>
     <g id="text_5">
      <!-- −300 -->
      <g style="fill: #262626" transform="translate(10.775938 259.427963) scale(0.14 -0.14)">
       <defs>
        <path id="DejaVuSans-33" d="M 2597 2516 
Q 3050 2419 3304 2112 
Q 3559 1806 3559 1356 
Q 3559 666 3084 287 
Q 2609 -91 1734 -91 
Q 1441 -91 1130 -33 
Q 819 25 488 141 
L 488 750 
Q 750 597 1062 519 
Q 1375 441 1716 441 
Q 2309 441 2620 675 
Q 2931 909 2931 1356 
Q 2931 1769 2642 2001 
Q 2353 2234 1838 2234 
L 1294 2234 
L 1294 2753 
L 1863 2753 
Q 2328 2753 2575 2939 
Q 2822 3125 2822 3475 
Q 2822 3834 2567 4026 
Q 2313 4219 1838 4219 
Q 1578 4219 1281 4162 
Q 984 4106 628 3988 
L 628 4550 
Q 988 4650 1302 4700 
Q 1616 4750 1894 4750 
Q 2613 4750 3031 4423 
Q 3450 4097 3450 3541 
Q 3450 3153 3228 2886 
Q 3006 2619 2597 2516 
z
" transform="scale(0.015625)"/>
       </defs>
       <use xlink:href="#DejaVuSans-2212"/>
       <use xlink:href="#DejaVuSans-33" transform="translate(83.789062 0)"/>
       <use xlink:href="#DejaVuSans-30" transform="translate(147.412109 0)"/>
       <use xlink:href="#DejaVuSans-30" transform="translate(211.035156 0)"/>
      </g>
     </g>
    </g>
    <g id="ytick_4">
     <g id="line2d_6">
      <path d="M 56.23 186.010943 
L 623.801429 186.010943 
" clip-path="url(#p21819b5518)" style="fill: none; stroke: #ffffff; stroke-width: 0.8; stroke-linecap: round"/>
     </g>
     <g id="text_6">
      <!-- −200 -->
      <g style="fill: #262626" transform="translate(10.775938 191.32985) scale(0.14 -0.14)">
       <defs>
        <path id="DejaVuSans-32" d="M 1228 531 
L 3431 531 
L 3431 0 
L 469 0 
L 469 531 
Q 828 903 1448 1529 
Q 2069 2156 2228 2338 
Q 2531 2678 2651 2914 
Q 2772 3150 2772 3378 
Q 2772 3750 2511 3984 
Q 2250 4219 1831 4219 
Q 1534 4219 1204 4116 
Q 875 4013 500 3803 
L 500 4441 
Q 881 4594 1212 4672 
Q 1544 4750 1819 4750 
Q 2544 4750 2975 4387 
Q 3406 4025 3406 3419 
Q 3406 3131 3298 2873 
Q 3191 2616 2906 2266 
Q 2828 2175 2409 1742 
Q 1991 1309 1228 531 
z
" transform="scale(0.015625)"/>
       </defs>
       <use xlink:href="#DejaVuSans-2212"/>
       <use xlink:href="#DejaVuSans-32" transform="translate(83.789062 0)"/>
       <use xlink:href="#DejaVuSans-30" transform="translate(147.412109 0)"/>
       <use xlink:href="#DejaVuSans-30" transform="translate(211.035156 0)"/>
      </g>
     </g>
    </g>
    <g id="ytick_5">
     <g id="line2d_7">
      <path d="M 56.23 117.91283 
L 623.801429 117.91283 
" clip-path="url(#p21819b5518)" style="fill: none; stroke: #ffffff; stroke-width: 0.8; stroke-linecap: round"/>
     </g>
     <g id="text_7">
      <!-- −100 -->
      <g style="fill: #262626" transform="translate(10.775938 123.231736) scale(0.14 -0.14)">
       <defs>
        <path id="DejaVuSans-31" d="M 794 531 
L 1825 531 
L 1825 4091 
L 703 3866 
L 703 4441 
L 1819 4666 
L 2450 4666 
L 2450 531 
L 3481 531 
L 3481 0 
L 794 0 
L 794 531 
z
" transform="scale(0.015625)"/>
       </defs>
       <use xlink:href="#DejaVuSans-2212"/>
       <use xlink:href="#DejaVuSans-31" transform="translate(83.789062 0)"/>
       <use xlink:href="#DejaVuSans-30" transform="translate(147.412109 0)"/>
       <use xlink:href="#DejaVuSans-30" transform="translate(211.035156 0)"/>
      </g>
     </g>
    </g>
    <g id="ytick_6">
     <g id="line2d_8">
      <path d="M 56.23 49.814717 
L 623.801429 49.814717 
" clip-path="url(#p21819b5518)" style="fill: none; stroke: #ffffff; stroke-width: 0.8; stroke-linecap: round"/>
     </g>
     <g id="text_8">
      <!-- 0 -->
      <g style="fill: #262626" transform="translate(40.3225 55.133623) scale(0.14 -0.14)">
       <use xlink:href="#DejaVuSans-30"/>
      </g>
     </g>
    </g>
   </g>
   <g id="FillBetweenPolyCollection_1">
    <path d="M 67.06841 359.769644 
L 67.06841 390.503213 
L 72.617677 387.062611 
L 78.166943 384.715663 
L 83.716209 393.085944 
L 89.265475 383.510966 
L 94.814741 385.96738 
L 100.364007 383.8893 
L 105.913274 384.90089 
L 111.46254 371.912591 
L 117.011806 373.828861 
L 122.561072 369.247696 
L 128.110338 373.567901 
L 133.659604 365.121901 
L 139.208871 363.314896 
L 144.758137 363.74206 
L 150.307403 369.4109 
L 155.856669 364.688872 
L 161.405935 364.238169 
L 166.955202 361.354915 
L 172.504468 360.327607 
L 178.053734 361.622703 
L 183.603 359.263512 
L 189.152266 359.359659 
L 194.701532 360.849401 
L 200.250799 359.55516 
L 205.800065 359.724538 
L 211.349331 358.730968 
L 216.898597 356.130427 
L 222.447863 335.657336 
L 227.997129 344.380796 
L 233.546396 325.119021 
L 239.095662 310.218344 
L 244.644928 314.249593 
L 250.194194 324.221821 
L 255.74346 303.327424 
L 261.292726 302.402921 
L 266.841993 304.722185 
L 272.391259 305.318839 
L 277.940525 303.474778 
L 283.489791 286.205403 
L 289.039057 282.138782 
L 294.588323 279.48148 
L 300.13759 263.492342 
L 305.686856 247.699414 
L 311.236122 244.26163 
L 316.785388 256.215043 
L 322.334654 239.468 
L 327.88392 223.615278 
L 333.433187 210.6092 
L 338.982453 183.856466 
L 344.531719 173.655039 
L 350.080985 180.285091 
L 355.630251 175.147394 
L 361.179517 161.822047 
L 366.728784 170.100282 
L 372.27805 209.319129 
L 377.827316 154.106646 
L 383.376582 194.781871 
L 388.925848 155.676359 
L 394.475114 144.675637 
L 400.024381 195.245436 
L 405.573647 139.700082 
L 411.122913 163.47397 
L 416.672179 149.771065 
L 422.221445 157.056464 
L 427.770711 155.921685 
L 433.319978 130.06354 
L 438.869244 164.228472 
L 444.41851 143.333112 
L 449.967776 153.571337 
L 455.517042 157.726871 
L 461.066308 136.383458 
L 466.615575 176.493783 
L 472.164841 148.431225 
L 477.714107 157.956576 
L 483.263373 165.231443 
L 488.812639 175.589604 
L 494.361905 132.494976 
L 499.911172 160.023374 
L 505.460438 155.555601 
L 511.009704 138.455731 
L 516.55897 139.530763 
L 522.108236 161.219365 
L 527.657502 145.383501 
L 533.206769 144.699992 
L 538.756035 152.214822 
L 544.305301 160.561319 
L 549.854567 140.258293 
L 555.403833 179.632014 
L 560.953099 150.385334 
L 566.502366 132.770042 
L 572.051632 146.682422 
L 577.600898 156.559455 
L 583.150164 150.034501 
L 588.69943 155.396505 
L 594.248696 123.919167 
L 599.797963 143.205216 
L 605.347229 120.925905 
L 610.896495 158.191336 
L 616.445761 128.565475 
L 616.445761 95.649457 
L 616.445761 95.649457 
L 610.896495 85.567755 
L 605.347229 99.20314 
L 599.797963 96.604184 
L 594.248696 99.580735 
L 588.69943 97.249389 
L 583.150164 85.076129 
L 577.600898 96.188586 
L 572.051632 90.300906 
L 566.502366 96.722494 
L 560.953099 94.122836 
L 555.403833 79.89179 
L 549.854567 86.850809 
L 544.305301 82.210349 
L 538.756035 88.24151 
L 533.206769 88.095302 
L 527.657502 89.420688 
L 522.108236 82.778068 
L 516.55897 93.877415 
L 511.009704 92.637111 
L 505.460438 91.710542 
L 499.911172 93.439697 
L 494.361905 93.524556 
L 488.812639 81.584815 
L 483.263373 86.154636 
L 477.714107 87.300673 
L 472.164841 92.535843 
L 466.615575 82.314991 
L 461.066308 100.191281 
L 455.517042 91.582216 
L 449.967776 96.861368 
L 444.41851 93.990707 
L 438.869244 84.263438 
L 433.319978 98.509671 
L 427.770711 88.382191 
L 422.221445 86.702626 
L 416.672179 91.604592 
L 411.122913 86.175607 
L 405.573647 92.993066 
L 400.024381 73.028976 
L 394.475114 92.137446 
L 388.925848 88.627516 
L 383.376582 98.212155 
L 377.827316 87.711649 
L 372.27805 69.987177 
L 366.728784 88.197755 
L 361.179517 96.271697 
L 355.630251 91.254319 
L 350.080985 81.996687 
L 344.531719 86.243305 
L 338.982453 82.409051 
L 333.433187 70.399559 
L 327.88392 68.357277 
L 322.334654 70.652702 
L 316.785388 60.409028 
L 311.236122 75.392808 
L 305.686856 79.445816 
L 300.13759 59.26056 
L 294.588323 56.68675 
L 289.039057 61.758584 
L 283.489791 66.340423 
L 277.940525 78.863973 
L 272.391259 81.105799 
L 266.841993 78.876381 
L 261.292726 83.068343 
L 255.74346 78.262248 
L 250.194194 81.031945 
L 244.644928 88.722886 
L 239.095662 84.173773 
L 233.546396 85.071858 
L 227.997129 81.847189 
L 222.447863 82.875562 
L 216.898597 82.150924 
L 211.349331 77.711734 
L 205.800065 86.728587 
L 200.250799 85.161462 
L 194.701532 93.366908 
L 189.152266 83.416168 
L 183.603 82.661088 
L 178.053734 95.896365 
L 172.504468 90.00711 
L 166.955202 92.691149 
L 161.405935 105.913099 
L 155.856669 104.543072 
L 150.307403 113.713058 
L 144.758137 105.013197 
L 139.208871 102.307847 
L 133.659604 113.030895 
L 128.110338 124.026907 
L 122.561072 126.406315 
L 117.011806 132.720848 
L 111.46254 135.590493 
L 105.913274 147.866593 
L 100.364007 169.375715 
L 94.814741 164.880152 
L 89.265475 172.069384 
L 83.716209 202.263705 
L 78.166943 229.054525 
L 72.617677 276.112759 
L 67.06841 359.769644 
z
" clip-path="url(#p21819b5518)" style="fill: #0000ff; fill-opacity: 0.1"/>
   </g>
   <g id="line2d_9">
    <path d="M 67.06841 375.136428 
L 72.617677 331.587685 
L 78.166943 306.885094 
L 83.716209 297.674825 
L 89.265475 277.790175 
L 94.814741 275.423766 
L 100.364007 276.632508 
L 105.913274 266.383742 
L 111.46254 253.751542 
L 117.011806 253.274855 
L 122.561072 247.827006 
L 128.110338 248.797404 
L 133.659604 239.076398 
L 139.208871 232.811372 
L 144.758137 234.377628 
L 150.307403 241.561979 
L 155.856669 234.615972 
L 161.405935 235.075634 
L 166.955202 227.023032 
L 172.504468 225.167358 
L 178.053734 228.759534 
L 183.603 220.9623 
L 189.152266 221.387913 
L 194.701532 227.108155 
L 200.250799 222.358311 
L 205.800065 223.226562 
L 211.349331 218.221351 
L 216.898597 219.140675 
L 222.447863 209.266449 
L 227.997129 213.113992 
L 233.546396 205.09544 
L 239.095662 197.196058 
L 244.644928 201.48624 
L 250.194194 202.626883 
L 255.74346 190.794836 
L 261.292726 192.735632 
L 266.841993 191.799283 
L 272.391259 193.212319 
L 277.940525 191.169375 
L 283.489791 176.272913 
L 289.039057 171.948683 
L 294.588323 168.084115 
L 300.13759 161.376451 
L 305.686856 163.572615 
L 311.236122 159.827219 
L 316.785388 158.312036 
L 322.334654 155.060351 
L 327.88392 145.986277 
L 333.433187 140.504379 
L 338.982453 133.132758 
L 344.531719 129.949172 
L 350.080985 131.140889 
L 355.630251 133.200857 
L 361.179517 129.046872 
L 366.728784 129.149019 
L 372.27805 139.653153 
L 377.827316 120.909147 
L 383.376582 146.497013 
L 388.925848 122.151938 
L 394.475114 118.406542 
L 400.024381 134.137206 
L 405.573647 116.346574 
L 411.122913 124.824789 
L 416.672179 120.687828 
L 422.221445 121.879545 
L 427.770711 122.151938 
L 433.319978 114.286606 
L 438.869244 124.245955 
L 444.41851 118.661909 
L 449.967776 125.216353 
L 455.517042 124.654543 
L 461.066308 118.28737 
L 466.615575 129.404387 
L 472.164841 120.483534 
L 477.714107 122.628625 
L 483.263373 125.69304 
L 488.812639 128.587209 
L 494.361905 113.009766 
L 499.911172 126.731536 
L 505.460438 123.633072 
L 511.009704 115.546421 
L 516.55897 116.704089 
L 522.108236 121.998717 
L 527.657502 117.402094 
L 533.206769 116.397647 
L 538.756035 120.228166 
L 544.305301 121.385834 
L 549.854567 113.554551 
L 555.403833 129.761902 
L 560.953099 122.254085 
L 566.502366 114.746268 
L 572.051632 118.491664 
L 577.600898 126.374021 
L 583.150164 117.555315 
L 588.69943 126.322947 
L 594.248696 111.749951 
L 599.797963 119.9047 
L 605.347229 110.064523 
L 610.896495 121.879545 
L 616.445761 112.107466 
" clip-path="url(#p21819b5518)" style="fill: none; stroke: #0000ff; stroke-width: 2; stroke-linecap: round"/>
   </g>
   <g id="line2d_10">
    <path d="M 67.06841 368.599009 
L 72.617677 298.287708 
L 78.166943 310.460245 
L 83.716209 191.969528 
L 89.265475 167.113717 
L 94.814741 152.217255 
L 100.364007 164.134425 
L 105.913274 133.320028 
L 111.46254 129.149019 
L 117.011806 123.871415 
L 122.561072 112.039368 
L 128.110338 113.741821 
L 133.659604 112.890594 
L 139.208871 101.994896 
L 144.758137 109.315443 
L 150.307403 103.952717 
L 155.856669 101.569283 
L 161.405935 105.399802 
L 166.955202 103.697349 
L 172.504468 105.229557 
L 178.053734 107.442745 
L 183.603 104.37833 
L 189.152266 104.803943 
L 194.701532 106.932009 
L 200.250799 109.060075 
L 205.800065 104.293208 
L 211.349331 103.867594 
L 216.898597 103.527104 
L 222.447863 106.165906 
L 227.997129 105.144434 
L 233.546396 102.675877 
L 239.095662 106.080783 
L 244.644928 114.422802 
L 250.194194 107.017132 
L 255.74346 107.698113 
L 261.292726 104.293208 
L 266.841993 104.122962 
L 272.391259 106.846887 
L 277.940525 108.88983 
L 283.489791 114.167434 
L 289.039057 119.019425 
L 294.588323 103.697349 
L 300.13759 102.675877 
L 305.686856 110.677406 
L 311.236122 99.781708 
L 316.785388 104.208085 
L 322.334654 102.080019 
L 327.88392 102.931245 
L 333.433187 104.122962 
L 338.982453 105.144434 
L 344.531719 105.825415 
L 350.080985 102.420509 
L 355.630251 107.527868 
L 361.179517 109.230321 
L 366.728784 110.336915 
L 372.27805 104.463453 
L 377.827316 102.761 
L 383.376582 142.257906 
L 388.925848 102.250264 
L 394.475114 110.932774 
L 400.024381 103.782472 
L 405.573647 103.697349 
L 411.122913 108.974953 
L 416.672179 104.37833 
L 422.221445 104.633698 
L 427.770711 110.16667 
L 433.319978 102.846123 
L 438.869244 108.464217 
L 444.41851 101.14367 
L 449.967776 102.250264 
L 455.517042 104.208085 
L 461.066308 103.101491 
L 466.615575 99.86683 
L 472.164841 110.081547 
L 477.714107 108.464217 
L 483.263373 107.868358 
L 488.812639 104.718821 
L 494.361905 101.058547 
L 499.911172 115.103783 
L 505.460438 105.229557 
L 511.009704 107.357623 
L 516.55897 112.720349 
L 522.108236 103.952717 
L 527.657502 105.229557 
L 533.206769 102.931245 
L 538.756035 103.782472 
L 544.305301 100.377566 
L 549.854567 100.718057 
L 555.403833 110.422038 
L 560.953099 104.889066 
L 566.502366 110.847651 
L 572.051632 104.293208 
L 577.600898 145.662811 
L 583.150164 103.527104 
L 588.69943 106.676642 
L 594.248696 106.251028 
L 599.797963 103.186613 
L 605.347229 108.038604 
L 610.896495 102.846123 
L 616.445761 104.633698 
" clip-path="url(#p21819b5518)" style="fill: none; stroke: #008000; stroke-opacity: 0.27; stroke-width: 1.25; stroke-linecap: round"/>
   </g>
   <g id="line2d_11">
    <path d="M 67.06841 377.281519 
L 72.617677 390.305283 
L 78.166943 390.305283 
L 83.716209 390.305283 
L 89.265475 390.305283 
L 94.814741 390.305283 
L 100.364007 390.305283 
L 105.913274 390.305283 
L 111.46254 390.305283 
L 117.011806 390.305283 
L 122.561072 390.305283 
L 128.110338 390.305283 
L 133.659604 390.305283 
L 139.208871 390.305283 
L 144.758137 390.305283 
L 150.307403 390.305283 
L 155.856669 390.305283 
L 161.405935 390.305283 
L 166.955202 390.305283 
L 172.504468 390.305283 
L 178.053734 390.305283 
L 183.603 390.305283 
L 189.152266 390.305283 
L 194.701532 390.305283 
L 200.250799 390.305283 
L 205.800065 390.305283 
L 211.349331 390.305283 
L 216.898597 390.305283 
L 222.447863 390.305283 
L 227.997129 390.305283 
L 233.546396 390.305283 
L 239.095662 390.305283 
L 244.644928 390.305283 
L 250.194194 390.305283 
L 255.74346 390.305283 
L 261.292726 390.305283 
L 266.841993 390.305283 
L 272.391259 390.305283 
L 277.940525 390.305283 
L 283.489791 390.305283 
L 289.039057 390.305283 
L 294.588323 390.305283 
L 300.13759 364.087509 
L 305.686856 328.250877 
L 311.236122 326.378179 
L 316.785388 352.936443 
L 322.334654 320.504717 
L 327.88392 300.671142 
L 333.433187 280.667321 
L 338.982453 234.445726 
L 344.531719 217.250953 
L 350.080985 229.253245 
L 355.630251 216.569972 
L 361.179517 191.884406 
L 366.728784 210.951877 
L 372.27805 278.964868 
L 377.827316 187.117538 
L 383.376582 236.48867 
L 388.925848 189.075358 
L 394.475114 170.4335 
L 400.024381 256.152 
L 405.573647 162.942708 
L 411.122913 202.014 
L 416.672179 178.349906 
L 422.221445 192.054651 
L 427.770711 189.415849 
L 433.319978 145.407443 
L 438.869244 204.056943 
L 444.41851 167.19884 
L 449.967776 178.435028 
L 455.517042 190.181953 
L 461.066308 153.153604 
L 466.615575 222.869047 
L 472.164841 176.051594 
L 477.714107 193.076123 
L 483.263373 204.737925 
L 488.812639 222.443434 
L 494.361905 151.706519 
L 499.911172 192.565387 
L 505.460438 186.947292 
L 511.009704 161.155132 
L 516.55897 161.665868 
L 522.108236 200.39667 
L 527.657502 173.32767 
L 533.206769 172.987179 
L 538.756035 184.138245 
L 544.305301 199.630566 
L 549.854567 166.943472 
L 555.403833 229.168123 
L 560.953099 177.583802 
L 566.502366 149.408208 
L 572.051632 174.689632 
L 577.600898 176.392085 
L 583.150164 182.435792 
L 588.69943 177.668925 
L 594.248696 135.95883 
L 599.797963 165.326142 
L 605.347229 130.851472 
L 610.896495 194.012472 
L 616.445761 144.726462 
" clip-path="url(#p21819b5518)" style="fill: none; stroke: #008000; stroke-opacity: 0.27; stroke-width: 1.25; stroke-linecap: round"/>
   </g>
   <g id="line2d_12">
    <path d="M 67.06841 349.191047 
L 72.617677 245.681915 
L 78.166943 191.37367 
L 83.716209 174.178896 
L 89.265475 143.875236 
L 94.814741 138.938123 
L 100.364007 140.385208 
L 105.913274 121.743349 
L 111.46254 124.892887 
L 117.011806 118.083075 
L 122.561072 131.10684 
L 128.110338 109.230321 
L 133.659604 117.487217 
L 139.208871 113.571575 
L 144.758137 109.655934 
L 150.307403 107.953481 
L 155.856669 109.996425 
L 161.405935 112.550104 
L 166.955202 102.590755 
L 172.504468 107.868358 
L 178.053734 105.570047 
L 183.603 106.336151 
L 189.152266 105.910538 
L 194.701532 139.193491 
L 200.250799 104.293208 
L 205.800065 118.934302 
L 211.349331 101.739528 
L 216.898597 105.910538 
L 222.447863 105.65517 
L 227.997129 103.782472 
L 233.546396 108.719585 
L 239.095662 111.613755 
L 244.644928 113.571575 
L 250.194194 106.421274 
L 255.74346 107.953481 
L 261.292726 115.784764 
L 266.841993 101.313915 
L 272.391259 109.315443 
L 277.940525 109.741057 
L 283.489791 101.058547 
L 289.039057 103.016368 
L 294.588323 110.762528 
L 300.13759 103.441981 
L 305.686856 103.527104 
L 311.236122 112.890594 
L 316.785388 103.271736 
L 322.334654 101.228792 
L 327.88392 101.399038 
L 333.433187 106.080783 
L 338.982453 112.635226 
L 344.531719 110.081547 
L 350.080985 109.826179 
L 355.630251 118.083075 
L 361.179517 109.570811 
L 366.728784 104.803943 
L 372.27805 104.37833 
L 377.827316 103.186613 
L 383.376582 103.016368 
L 388.925848 107.102255 
L 394.475114 106.165906 
L 400.024381 97.823887 
L 405.573647 103.016368 
L 411.122913 103.952717 
L 416.672179 105.99566 
L 422.221445 106.932009 
L 427.770711 102.761 
L 433.319978 110.847651 
L 438.869244 101.654406 
L 444.41851 102.080019 
L 449.967776 106.932009 
L 455.517042 104.03784 
L 461.066308 115.869887 
L 466.615575 100.803179 
L 472.164841 101.654406 
L 477.714107 100.973425 
L 483.263373 105.314679 
L 488.812639 100.462689 
L 494.361905 101.228792 
L 499.911172 102.590755 
L 505.460438 115.614519 
L 511.009704 100.462689 
L 516.55897 104.208085 
L 522.108236 100.037075 
L 527.657502 102.250264 
L 533.206769 101.058547 
L 538.756035 102.250264 
L 544.305301 99.015604 
L 549.854567 99.86683 
L 555.403833 106.506396 
L 560.953099 103.441981 
L 566.502366 96.802415 
L 572.051632 108.634462 
L 577.600898 100.718057 
L 583.150164 99.015604 
L 588.69943 102.590755 
L 594.248696 104.03784 
L 599.797963 102.590755 
L 605.347229 101.058547 
L 610.896495 99.781708 
L 616.445761 102.505632 
" clip-path="url(#p21819b5518)" style="fill: none; stroke: #008000; stroke-opacity: 0.27; stroke-width: 1.25; stroke-linecap: round"/>
   </g>
   <g id="line2d_13">
    <path d="M 67.06841 390.305283 
L 72.617677 390.305283 
L 78.166943 390.305283 
L 83.716209 390.305283 
L 89.265475 390.305283 
L 94.814741 390.305283 
L 100.364007 390.305283 
L 105.913274 390.305283 
L 111.46254 390.305283 
L 117.011806 390.305283 
L 122.561072 390.305283 
L 128.110338 390.305283 
L 133.659604 390.305283 
L 139.208871 390.305283 
L 144.758137 390.305283 
L 150.307403 390.305283 
L 155.856669 390.305283 
L 161.405935 390.305283 
L 166.955202 390.305283 
L 172.504468 390.305283 
L 178.053734 390.305283 
L 183.603 390.305283 
L 189.152266 390.305283 
L 194.701532 390.305283 
L 200.250799 390.305283 
L 205.800065 390.305283 
L 211.349331 390.305283 
L 216.898597 383.410349 
L 222.447863 334.805321 
L 227.997129 356.341349 
L 233.546396 306.374358 
L 239.095662 262.536198 
L 244.644928 273.687264 
L 250.194194 305.438009 
L 255.74346 241.766274 
L 261.292726 235.126708 
L 266.841993 245.937283 
L 272.391259 247.384368 
L 277.940525 241.936519 
L 283.489791 170.773991 
L 289.039057 143.960358 
L 294.588323 127.361443 
L 300.13759 134.767113 
L 305.686856 153.919708 
L 311.236122 117.316972 
L 316.785388 130.340736 
L 322.334654 146.088425 
L 327.88392 120.040896 
L 333.433187 108.464217 
L 338.982453 107.527868 
L 344.531719 111.017896 
L 350.080985 109.826179 
L 355.630251 106.761764 
L 361.179517 130.936594 
L 366.728784 109.826179 
L 372.27805 107.017132 
L 377.827316 109.145198 
L 383.376582 144.811585 
L 388.925848 108.038604 
L 394.475114 105.059311 
L 400.024381 108.88983 
L 405.573647 107.698113 
L 411.122913 106.165906 
L 416.672179 113.145962 
L 422.221445 106.080783 
L 427.770711 101.569283 
L 433.319978 105.314679 
L 438.869244 105.144434 
L 444.41851 110.592283 
L 449.967776 130.510981 
L 455.517042 108.379094 
L 461.066308 105.399802 
L 466.615575 116.040132 
L 472.164841 109.315443 
L 477.714107 107.357623 
L 483.263373 104.463453 
L 488.812639 107.953481 
L 494.361905 107.442745 
L 499.911172 107.357623 
L 505.460438 106.421274 
L 511.009704 104.37833 
L 516.55897 104.208085 
L 522.108236 102.505632 
L 527.657502 102.675877 
L 533.206769 102.761 
L 538.756035 106.676642 
L 544.305301 103.016368 
L 549.854567 101.14367 
L 555.403833 104.889066 
L 560.953099 107.357623 
L 566.502366 109.655934 
L 572.051632 102.590755 
L 577.600898 110.50716 
L 583.150164 100.292443 
L 588.69943 139.789349 
L 594.248696 104.803943 
L 599.797963 116.125255 
L 605.347229 108.719585 
L 610.896495 100.973425 
L 616.445761 107.612991 
" clip-path="url(#p21819b5518)" style="fill: none; stroke: #008000; stroke-opacity: 0.27; stroke-width: 1.25; stroke-linecap: round"/>
   </g>
   <g id="line2d_14">
    <path d="M 67.06841 390.305283 
L 72.617677 333.358236 
L 78.166943 251.980991 
L 83.716209 341.615132 
L 89.265475 297.351358 
L 94.814741 305.352887 
L 100.364007 298.03234 
L 105.913274 296.244764 
L 111.46254 234.105236 
L 117.011806 243.809217 
L 122.561072 215.378255 
L 128.110338 240.404311 
L 133.659604 184.393613 
L 139.208871 167.879821 
L 144.758137 172.306198 
L 150.307403 215.293132 
L 155.856669 180.903585 
L 161.405935 176.817698 
L 166.955202 148.216491 
L 172.504468 132.128311 
L 178.053734 150.174311 
L 183.603 113.486453 
L 189.152266 115.614519 
L 194.701532 108.804708 
L 200.250799 117.827708 
L 205.800065 112.294736 
L 211.349331 104.889066 
L 216.898597 112.550104 
L 222.447863 109.400566 
L 227.997129 109.996425 
L 233.546396 117.402094 
L 239.095662 115.444274 
L 244.644928 115.444274 
L 250.194194 103.952717 
L 255.74346 106.251028 
L 261.292726 118.168198 
L 266.841993 117.316972 
L 272.391259 112.209613 
L 277.940525 104.974189 
L 283.489791 105.059311 
L 289.039057 103.441981 
L 294.588323 108.293972 
L 300.13759 101.909774 
L 305.686856 121.487981 
L 311.236122 142.768642 
L 316.785388 100.803179 
L 322.334654 105.399802 
L 327.88392 104.889066 
L 333.433187 103.186613 
L 338.982453 105.910538 
L 344.531719 105.570047 
L 350.080985 104.37833 
L 355.630251 117.061604 
L 361.179517 103.612226 
L 366.728784 109.826179 
L 372.27805 103.441981 
L 377.827316 102.335387 
L 383.376582 105.910538 
L 388.925848 104.293208 
L 394.475114 99.441217 
L 400.024381 104.03784 
L 405.573647 104.37833 
L 411.122913 103.016368 
L 416.672179 101.569283 
L 422.221445 99.696585 
L 427.770711 106.846887 
L 433.319978 107.017132 
L 438.869244 101.909774 
L 444.41851 112.294736 
L 449.967776 107.953481 
L 455.517042 116.465745 
L 461.066308 113.912066 
L 466.615575 107.442745 
L 472.164841 105.314679 
L 477.714107 103.271736 
L 483.263373 106.080783 
L 488.812639 107.357623 
L 494.361905 103.612226 
L 499.911172 116.040132 
L 505.460438 103.952717 
L 511.009704 104.37833 
L 516.55897 100.718057 
L 522.108236 103.101491 
L 527.657502 103.527104 
L 533.206769 102.250264 
L 538.756035 104.293208 
L 544.305301 104.889066 
L 549.854567 99.100726 
L 555.403833 97.823887 
L 560.953099 117.997953 
L 566.502366 107.017132 
L 572.051632 102.250264 
L 577.600898 98.589991 
L 583.150164 102.505632 
L 588.69943 104.889066 
L 594.248696 107.698113 
L 599.797963 112.294736 
L 605.347229 101.654406 
L 610.896495 111.784 
L 616.445761 101.058547 
" clip-path="url(#p21819b5518)" style="fill: none; stroke: #008000; stroke-opacity: 0.27; stroke-width: 1.25; stroke-linecap: round"/>
   </g>
   <g id="line2d_15">
    <path d="M 67.06841 49.814717 
L 72.617677 72.885864 
L 78.166943 93.434803 
L 83.716209 106.948229 
L 89.265475 105.352659 
L 94.814741 116.513487 
L 100.364007 136.296827 
L 105.913274 142.702692 
L 111.46254 165.94467 
L 117.011806 183.06299 
L 122.561072 192.833514 
L 128.110338 196.022077 
L 133.659604 199.328155 
L 139.208871 201.374376 
L 144.758137 200.41844 
L 150.307403 211.870449 
L 155.856669 211.865391 
L 161.405935 222.914757 
L 166.955202 227.196276 
L 172.504468 228.028364 
L 178.053734 248.862071 
L 183.603 246.281589 
L 189.152266 257.298761 
L 194.701532 254.835533 
L 200.250799 259.336571 
L 205.800065 262.377222 
L 211.349331 267.322388 
L 216.898597 281.53584 
L 222.447863 281.849097 
L 227.997129 287.917231 
L 233.546396 289.381012 
L 239.095662 293.731896 
L 244.644928 303.392208 
L 250.194194 312.163796 
L 255.74346 306.884239 
L 261.292726 312.925184 
L 266.841993 316.8659 
L 272.391259 316.008481 
L 277.940525 321.028451 
L 283.489791 325.957875 
L 289.039057 333.822444 
L 294.588323 335.695919 
L 300.13759 335.159587 
L 305.686856 341.411084 
L 311.236122 337.122449 
L 316.785388 345.578514 
L 322.334654 344.821634 
L 327.88392 347.772165 
L 333.433187 347.58414 
L 338.982453 349.034114 
L 344.531719 350.649712 
L 350.080985 350.820849 
L 355.630251 351.14552 
L 361.179517 352.575793 
L 366.728784 351.687467 
L 372.27805 362.72351 
L 377.827316 361.415858 
L 383.376582 365.62424 
L 388.925848 369.842126 
L 394.475114 370.593441 
L 400.024381 367.674337 
L 405.573647 367.81711 
L 411.122913 369.78619 
L 416.672179 371.604904 
L 422.221445 377.584073 
L 427.770711 376.998434 
L 433.319978 376.719166 
L 438.869244 380.88843 
L 444.41851 373.540817 
L 449.967776 377.625233 
L 455.517042 376.538415 
L 461.066308 378.585592 
L 466.615575 374.204509 
L 472.164841 379.263005 
L 477.714107 385.918833 
L 483.263373 383.612778 
L 488.812639 381.752319 
L 494.361905 380.911858 
L 499.911172 377.546612 
L 505.460438 385.416659 
L 511.009704 379.456009 
L 516.55897 384.67962 
L 522.108236 386.657111 
L 527.657502 382.939342 
L 533.206769 379.750974 
L 538.756035 382.846137 
L 544.305301 390.305283 
L 549.854567 386.844017 
L 555.403833 386.958247 
L 560.953099 383.142196 
L 566.502366 382.001712 
L 572.051632 381.98777 
L 577.600898 383.557921 
L 583.150164 387.10898 
L 588.69943 380.71064 
L 594.248696 388.232675 
L 599.797963 386.637357 
L 605.347229 382.756959 
L 610.896495 387.556952 
L 616.445761 388.857764 
" clip-path="url(#p21819b5518)" style="fill: none; stroke: #7b3ab8; stroke-width: 1.5; stroke-linecap: round"/>
   </g>
   <g id="patch_3">
    <path d="M 56.23 400.52 
L 56.23 39.6 
" style="fill: none; stroke: #ffffff; stroke-width: 0.8; stroke-linejoin: miter; stroke-linecap: square"/>
   </g>
   <g id="patch_4">
    <path d="M 623.801429 400.52 
L 623.801429 39.6 
" style="fill: none; stroke: #ffffff; stroke-width: 0.8; stroke-linejoin: miter; stroke-linecap: square"/>
   </g>
   <g id="patch_5">
    <path d="M 56.23 400.52 
L 623.801429 400.52 
" style="fill: none; stroke: #ffffff; stroke-width: 0.8; stroke-linejoin: miter; stroke-linecap: square"/>
   </g>
   <g id="patch_6">
    <path d="M 56.23 39.6 
L 623.801429 39.6 
" style="fill: none; stroke: #ffffff; stroke-width: 0.8; stroke-linejoin: miter; stroke-linecap: square"/>
   </g>
  </g>
  <g id="text_9">
   <!-- Acrobot-v1 | CMU-Net (Alignment) -->
   <g style="fill: #262626" transform="translate(150.654375 22.395938) scale(0.18 -0.18)">
    <defs>
     <path id="DejaVuSans-Bold-41" d="M 3419 850 
L 1538 850 
L 1241 0 
L 31 0 
L 1759 4666 
L 3194 4666 
L 4922 0 
L 3713 0 
L 3419 850 
z
M 1838 1716 
L 3116 1716 
L 2478 3572 
L 1838 1716 
z
" transform="scale(0.015625)"/>
     <path id="DejaVuSans-Bold-63" d="M 3366 3391 
L 3366 2478 
Q 3138 2634 2908 2709 
Q 2678 2784 2431 2784 
Q 1963 2784 1702 2511 
Q 1441 2238 1441 1747 
Q 1441 1256 1702 982 
Q 1963 709 2431 709 
Q 2694 709 2930 787 
Q 3166 866 3366 1019 
L 3366 103 
Q 3103 6 2833 -42 
Q 2563 -91 2291 -91 
Q 1344 -91 809 395 
Q 275 881 275 1747 
Q 275 2613 809 3098 
Q 1344 3584 2291 3584 
Q 2566 3584 2833 3536 
Q 3100 3488 3366 3391 
z
" transform="scale(0.015625)"/>
     <path id="DejaVuSans-Bold-72" d="M 3138 2547 
Q 2991 2616 2845 2648 
Q 2700 2681 2553 2681 
Q 2122 2681 1889 2404 
Q 1656 2128 1656 1613 
L 1656 0 
L 538 0 
L 538 3500 
L 1656 3500 
L 1656 2925 
Q 1872 3269 2151 3426 
Q 2431 3584 2822 3584 
Q 2878 3584 2943 3579 
Q 3009 3575 3134 3559 
L 3138 2547 
z
" transform="scale(0.015625)"/>
     <path id="DejaVuSans-Bold-6f" d="M 2203 2784 
Q 1831 2784 1636 2517 
Q 1441 2250 1441 1747 
Q 1441 1244 1636 976 
Q 1831 709 2203 709 
Q 2569 709 2762 976 
Q 2956 1244 2956 1747 
Q 2956 2250 2762 2517 
Q 2569 2784 2203 2784 
z
M 2203 3584 
Q 3106 3584 3614 3096 
Q 4122 2609 4122 1747 
Q 4122 884 3614 396 
Q 3106 -91 2203 -91 
Q 1297 -91 786 396 
Q 275 884 275 1747 
Q 275 2609 786 3096 
Q 1297 3584 2203 3584 
z
" transform="scale(0.015625)"/>
     <path id="DejaVuSans-Bold-62" d="M 2400 722 
Q 2759 722 2948 984 
Q 3138 1247 3138 1747 
Q 3138 2247 2948 2509 
Q 2759 2772 2400 2772 
Q 2041 2772 1848 2508 
Q 1656 2244 1656 1747 
Q 1656 1250 1848 986 
Q 2041 722 2400 722 
z
M 1656 2988 
Q 1888 3294 2169 3439 
Q 2450 3584 2816 3584 
Q 3463 3584 3878 3070 
Q 4294 2556 4294 1747 
Q 4294 938 3878 423 
Q 3463 -91 2816 -91 
Q 2450 -91 2169 54 
Q 1888 200 1656 506 
L 1656 0 
L 538 0 
L 538 4863 
L 1656 4863 
L 1656 2988 
z
" transform="scale(0.015625)"/>
     <path id="DejaVuSans-Bold-74" d="M 1759 4494 
L 1759 3500 
L 2913 3500 
L 2913 2700 
L 1759 2700 
L 1759 1216 
Q 1759 972 1856 886 
Q 1953 800 2241 800 
L 2816 800 
L 2816 0 
L 1856 0 
Q 1194 0 917 276 
Q 641 553 641 1216 
L 641 2700 
L 84 2700 
L 84 3500 
L 641 3500 
L 641 4494 
L 1759 4494 
z
" transform="scale(0.015625)"/>
     <path id="DejaVuSans-Bold-2d" d="M 347 2297 
L 2309 2297 
L 2309 1388 
L 347 1388 
L 347 2297 
z
" transform="scale(0.015625)"/>
     <path id="DejaVuSans-Bold-76" d="M 97 3500 
L 1216 3500 
L 2088 1081 
L 2956 3500 
L 4078 3500 
L 2700 0 
L 1472 0 
L 97 3500 
z
" transform="scale(0.015625)"/>
     <path id="DejaVuSans-Bold-31" d="M 750 831 
L 1813 831 
L 1813 3847 
L 722 3622 
L 722 4441 
L 1806 4666 
L 2950 4666 
L 2950 831 
L 4013 831 
L 4013 0 
L 750 0 
L 750 831 
z
" transform="scale(0.015625)"/>
     <path id="DejaVuSans-Bold-20" transform="scale(0.015625)"/>
     <path id="DejaVuSans-Bold-7c" d="M 1522 4891 
L 1522 -1509 
L 813 -1509 
L 813 4891 
L 1522 4891 
z
" transform="scale(0.015625)"/>
     <path id="DejaVuSans-Bold-43" d="M 4288 256 
Q 3956 84 3597 -3 
Q 3238 -91 2847 -91 
Q 1681 -91 1000 561 
Q 319 1213 319 2328 
Q 319 3447 1000 4098 
Q 1681 4750 2847 4750 
Q 3238 4750 3597 4662 
Q 3956 4575 4288 4403 
L 4288 3438 
Q 3953 3666 3628 3772 
Q 3303 3878 2944 3878 
Q 2300 3878 1931 3465 
Q 1563 3053 1563 2328 
Q 1563 1606 1931 1193 
Q 2300 781 2944 781 
Q 3303 781 3628 887 
Q 3953 994 4288 1222 
L 4288 256 
z
" transform="scale(0.015625)"/>
     <path id="DejaVuSans-Bold-4d" d="M 588 4666 
L 2119 4666 
L 3181 2169 
L 4250 4666 
L 5778 4666 
L 5778 0 
L 4641 0 
L 4641 3413 
L 3566 897 
L 2803 897 
L 1728 3413 
L 1728 0 
L 588 0 
L 588 4666 
z
" transform="scale(0.015625)"/>
     <path id="DejaVuSans-Bold-55" d="M 588 4666 
L 1791 4666 
L 1791 1869 
Q 1791 1291 1980 1042 
Q 2169 794 2597 794 
Q 3028 794 3217 1042 
Q 3406 1291 3406 1869 
L 3406 4666 
L 4609 4666 
L 4609 1869 
Q 4609 878 4112 393 
Q 3616 -91 2597 -91 
Q 1581 -91 1084 393 
Q 588 878 588 1869 
L 588 4666 
z
" transform="scale(0.015625)"/>
     <path id="DejaVuSans-Bold-4e" d="M 588 4666 
L 1931 4666 
L 3628 1466 
L 3628 4666 
L 4769 4666 
L 4769 0 
L 3425 0 
L 1728 3200 
L 1728 0 
L 588 0 
L 588 4666 
z
" transform="scale(0.015625)"/>
     <path id="DejaVuSans-Bold-65" d="M 4031 1759 
L 4031 1441 
L 1416 1441 
Q 1456 1047 1700 850 
Q 1944 653 2381 653 
Q 2734 653 3104 758 
Q 3475 863 3866 1075 
L 3866 213 
Q 3469 63 3072 -14 
Q 2675 -91 2278 -91 
Q 1328 -91 801 392 
Q 275 875 275 1747 
Q 275 2603 792 3093 
Q 1309 3584 2216 3584 
Q 3041 3584 3536 3087 
Q 4031 2591 4031 1759 
z
M 2881 2131 
Q 2881 2450 2695 2645 
Q 2509 2841 2209 2841 
Q 1884 2841 1681 2658 
Q 1478 2475 1428 2131 
L 2881 2131 
z
" transform="scale(0.015625)"/>
     <path id="DejaVuSans-Bold-28" d="M 2413 -844 
L 1484 -844 
Q 1006 -72 778 623 
Q 550 1319 550 2003 
Q 550 2688 779 3389 
Q 1009 4091 1484 4856 
L 2413 4856 
Q 2013 4116 1813 3408 
Q 1613 2700 1613 2009 
Q 1613 1319 1811 609 
Q 2009 -100 2413 -844 
z
" transform="scale(0.015625)"/>
     <path id="DejaVuSans-Bold-6c" d="M 538 4863 
L 1656 4863 
L 1656 0 
L 538 0 
L 538 4863 
z
" transform="scale(0.015625)"/>
     <path id="DejaVuSans-Bold-69" d="M 538 3500 
L 1656 3500 
L 1656 0 
L 538 0 
L 538 3500 
z
M 538 4863 
L 1656 4863 
L 1656 3950 
L 538 3950 
L 538 4863 
z
" transform="scale(0.015625)"/>
     <path id="DejaVuSans-Bold-67" d="M 2919 594 
Q 2688 288 2409 144 
Q 2131 0 1766 0 
Q 1125 0 706 504 
Q 288 1009 288 1791 
Q 288 2575 706 3076 
Q 1125 3578 1766 3578 
Q 2131 3578 2409 3434 
Q 2688 3291 2919 2981 
L 2919 3500 
L 4044 3500 
L 4044 353 
Q 4044 -491 3511 -936 
Q 2978 -1381 1966 -1381 
Q 1638 -1381 1331 -1331 
Q 1025 -1281 716 -1178 
L 716 -306 
Q 1009 -475 1290 -558 
Q 1572 -641 1856 -641 
Q 2406 -641 2662 -400 
Q 2919 -159 2919 353 
L 2919 594 
z
M 2181 2772 
Q 1834 2772 1640 2515 
Q 1447 2259 1447 1791 
Q 1447 1309 1634 1061 
Q 1822 813 2181 813 
Q 2531 813 2725 1069 
Q 2919 1325 2919 1791 
Q 2919 2259 2725 2515 
Q 2531 2772 2181 2772 
z
" transform="scale(0.015625)"/>
     <path id="DejaVuSans-Bold-6e" d="M 4056 2131 
L 4056 0 
L 2931 0 
L 2931 347 
L 2931 1631 
Q 2931 2084 2911 2256 
Q 2891 2428 2841 2509 
Q 2775 2619 2662 2680 
Q 2550 2741 2406 2741 
Q 2056 2741 1856 2470 
Q 1656 2200 1656 1722 
L 1656 0 
L 538 0 
L 538 3500 
L 1656 3500 
L 1656 2988 
Q 1909 3294 2193 3439 
Q 2478 3584 2822 3584 
Q 3428 3584 3742 3212 
Q 4056 2841 4056 2131 
z
" transform="scale(0.015625)"/>
     <path id="DejaVuSans-Bold-6d" d="M 3781 2919 
Q 3994 3244 4286 3414 
Q 4578 3584 4928 3584 
Q 5531 3584 5847 3212 
Q 6163 2841 6163 2131 
L 6163 0 
L 5038 0 
L 5038 1825 
Q 5041 1866 5042 1909 
Q 5044 1953 5044 2034 
Q 5044 2406 4934 2573 
Q 4825 2741 4581 2741 
Q 4263 2741 4089 2478 
Q 3916 2216 3909 1719 
L 3909 0 
L 2784 0 
L 2784 1825 
Q 2784 2406 2684 2573 
Q 2584 2741 2328 2741 
Q 2006 2741 1831 2477 
Q 1656 2213 1656 1722 
L 1656 0 
L 531 0 
L 531 3500 
L 1656 3500 
L 1656 2988 
Q 1863 3284 2130 3434 
Q 2397 3584 2719 3584 
Q 3081 3584 3359 3409 
Q 3638 3234 3781 2919 
z
" transform="scale(0.015625)"/>
     <path id="DejaVuSans-Bold-29" d="M 513 -844 
Q 913 -100 1113 609 
Q 1313 1319 1313 2009 
Q 1313 2700 1113 3408 
Q 913 4116 513 4856 
L 1441 4856 
Q 1916 4091 2145 3389 
Q 2375 2688 2375 2003 
Q 2375 1319 2147 623 
Q 1919 -72 1441 -844 
L 513 -844 
z
" transform="scale(0.015625)"/>
    </defs>
    <use xlink:href="#DejaVuSans-Bold-41"/>
    <use xlink:href="#DejaVuSans-Bold-63" transform="translate(77.392578 0)"/>
    <use xlink:href="#DejaVuSans-Bold-72" transform="translate(136.669922 0)"/>
    <use xlink:href="#DejaVuSans-Bold-6f" transform="translate(185.986328 0)"/>
    <use xlink:href="#DejaVuSans-Bold-62" transform="translate(254.6875 0)"/>
    <use xlink:href="#DejaVuSans-Bold-6f" transform="translate(326.269531 0)"/>
    <use xlink:href="#DejaVuSans-Bold-74" transform="translate(394.970703 0)"/>
    <use xlink:href="#DejaVuSans-Bold-2d" transform="translate(442.773438 0)"/>
    <use xlink:href="#DejaVuSans-Bold-76" transform="translate(484.277344 0)"/>
    <use xlink:href="#DejaVuSans-Bold-31" transform="translate(549.462891 0)"/>
    <use xlink:href="#DejaVuSans-Bold-20" transform="translate(619.042969 0)"/>
    <use xlink:href="#DejaVuSans-Bold-7c" transform="translate(653.857422 0)"/>
    <use xlink:href="#DejaVuSans-Bold-20" transform="translate(690.380859 0)"/>
    <use xlink:href="#DejaVuSans-Bold-43" transform="translate(725.195312 0)"/>
    <use xlink:href="#DejaVuSans-Bold-4d" transform="translate(798.583984 0)"/>
    <use xlink:href="#DejaVuSans-Bold-55" transform="translate(898.095703 0)"/>
    <use xlink:href="#DejaVuSans-Bold-2d" transform="translate(979.296875 0)"/>
    <use xlink:href="#DejaVuSans-Bold-4e" transform="translate(1020.800781 0)"/>
    <use xlink:href="#DejaVuSans-Bold-65" transform="translate(1104.492188 0)"/>
    <use xlink:href="#DejaVuSans-Bold-74" transform="translate(1172.314453 0)"/>
    <use xlink:href="#DejaVuSans-Bold-20" transform="translate(1220.117188 0)"/>
    <use xlink:href="#DejaVuSans-Bold-28" transform="translate(1254.931641 0)"/>
    <use xlink:href="#DejaVuSans-Bold-41" transform="translate(1300.634766 0)"/>
    <use xlink:href="#DejaVuSans-Bold-6c" transform="translate(1378.027344 0)"/>
    <use xlink:href="#DejaVuSans-Bold-69" transform="translate(1412.304688 0)"/>
    <use xlink:href="#DejaVuSans-Bold-67" transform="translate(1446.582031 0)"/>
    <use xlink:href="#DejaVuSans-Bold-6e" transform="translate(1518.164062 0)"/>
    <use xlink:href="#DejaVuSans-Bold-6d" transform="translate(1589.355469 0)"/>
    <use xlink:href="#DejaVuSans-Bold-65" transform="translate(1693.554688 0)"/>
    <use xlink:href="#DejaVuSans-Bold-6e" transform="translate(1761.376953 0)"/>
    <use xlink:href="#DejaVuSans-Bold-74" transform="translate(1832.568359 0)"/>
    <use xlink:href="#DejaVuSans-Bold-29" transform="translate(1880.371094 0)"/>
   </g>
  </g>
 </g>
 <defs>
  <clipPath id="p21819b5518">
   <rect x="56.23" y="39.6" width="567.571429" height="360.92"/>
  </clipPath>
 </defs>
</svg>
