<?xml version="1.0" encoding="utf-8" standalone="no"?>
<!DOCTYPE svg PUBLIC "-//W3C//DTD SVG 1.1//EN"
  "http://www.w3.org/Graphics/SVG/1.1/DTD/svg11.dtd">
<svg xmlns:xlink="http://www.w3.org/1999/xlink" width="648pt" height="432pt" viewBox="0 0 648 432" xmlns="http://www.w3.org/2000/svg" version="1.1">
 <metadata>
  <rdf:RDF xmlns:dc="http://purl.org/dc/elements/1.1/" xmlns:cc="http://creativecommons.org/ns#" xmlns:rdf="http://www.w3.org/1999/02/22-rdf-syntax-ns#">
   <cc:Work>
    <dc:type rdf:resource="http://purl.org/dc/dcmitype/StillImage"/>
    <dc:date>2025-07-29T01:29:56.004849</dc:date>
    <dc:format>image/svg+xml</dc:format>
    <dc:creator>
     <cc:Agent>
      <dc:title>Matplotlib v3.10.0, https://matplotlib.org/</dc:title>
     </cc:Agent>
    </dc:creator>
   </cc:Work>
  </rdf:RDF>
 </metadata>
 <defs>
  <style type="text/css">*{stroke-linejoin: round; stroke-linecap: butt}</style>
 </defs>
 <g id="figure_1">
  <g id="patch_1">
   <path d="M 0 432 
L 648 432 
L 648 0 
L 0 0 
z
" style="fill: #ffffff"/>
  </g>
  <g id="axes_1">
   <g id="patch_2">
    <path d="M 59.24 390.04 
L 630.02765 390.04 
L 630.02765 57.0062 
L 59.24 57.0062 
z
" style="fill: #eaeaf2"/>
   </g>
   <g id="matplotlib.axis_1">
    <g id="xtick_1">
     <g id="line2d_1">
      <path d="M 59.242787 390.04 
L 59.242787 57.0062 
" clip-path="url(#p28d950665c)" style="fill: none; stroke: #ffffff; stroke-width: 0.8; stroke-linecap: round"/>
     </g>
     <g id="text_1">
      <!-- 0 -->
      <g style="fill: #262626" transform="translate(56.061537 404.638438) scale(0.1 -0.1)">
       <defs>
        <path id="DejaVuSans-30" d="M 2034 4250 
Q 1547 4250 1301 3770 
Q 1056 3291 1056 2328 
Q 1056 1369 1301 889 
Q 1547 409 2034 409 
Q 2525 409 2770 889 
Q 3016 1369 3016 2328 
Q 3016 3291 2770 3770 
Q 2525 4250 2034 4250 
z
M 2034 4750 
Q 2819 4750 3233 4129 
Q 3647 3509 3647 2328 
Q 3647 1150 3233 529 
Q 2819 -91 2034 -91 
Q 1250 -91 836 529 
Q 422 1150 422 2328 
Q 422 3509 836 4129 
Q 1250 4750 2034 4750 
z
" transform="scale(0.015625)"/>
       </defs>
       <use xlink:href="#DejaVuSans-30"/>
      </g>
     </g>
    </g>
    <g id="xtick_2">
     <g id="line2d_2">
      <path d="M 152.143515 390.04 
L 152.143515 57.0062 
" clip-path="url(#p28d950665c)" style="fill: none; stroke: #ffffff; stroke-width: 0.8; stroke-linecap: round"/>
     </g>
     <g id="text_2">
      <!-- 100000 -->
      <g style="fill: #262626" transform="translate(133.056015 404.638438) scale(0.1 -0.1)">
       <defs>
        <path id="DejaVuSans-31" d="M 794 531 
L 1825 531 
L 1825 4091 
L 703 3866 
L 703 4441 
L 1819 4666 
L 2450 4666 
L 2450 531 
L 3481 531 
L 3481 0 
L 794 0 
L 794 531 
z
" transform="scale(0.015625)"/>
       </defs>
       <use xlink:href="#DejaVuSans-31"/>
       <use xlink:href="#DejaVuSans-30" transform="translate(63.623047 0)"/>
       <use xlink:href="#DejaVuSans-30" transform="translate(127.246094 0)"/>
       <use xlink:href="#DejaVuSans-30" transform="translate(190.869141 0)"/>
       <use xlink:href="#DejaVuSans-30" transform="translate(254.492188 0)"/>
       <use xlink:href="#DejaVuSans-30" transform="translate(318.115234 0)"/>
      </g>
     </g>
    </g>
    <g id="xtick_3">
     <g id="line2d_3">
      <path d="M 245.044244 390.04 
L 245.044244 57.0062 
" clip-path="url(#p28d950665c)" style="fill: none; stroke: #ffffff; stroke-width: 0.8; stroke-linecap: round"/>
     </g>
     <g id="text_3">
      <!-- 200000 -->
      <g style="fill: #262626" transform="translate(225.956744 404.638438) scale(0.1 -0.1)">
       <defs>
        <path id="DejaVuSans-32" d="M 1228 531 
L 3431 531 
L 3431 0 
L 469 0 
L 469 531 
Q 828 903 1448 1529 
Q 2069 2156 2228 2338 
Q 2531 2678 2651 2914 
Q 2772 3150 2772 3378 
Q 2772 3750 2511 3984 
Q 2250 4219 1831 4219 
Q 1534 4219 1204 4116 
Q 875 4013 500 3803 
L 500 4441 
Q 881 4594 1212 4672 
Q 1544 4750 1819 4750 
Q 2544 4750 2975 4387 
Q 3406 4025 3406 3419 
Q 3406 3131 3298 2873 
Q 3191 2616 2906 2266 
Q 2828 2175 2409 1742 
Q 1991 1309 1228 531 
z
" transform="scale(0.015625)"/>
       </defs>
       <use xlink:href="#DejaVuSans-32"/>
       <use xlink:href="#DejaVuSans-30" transform="translate(63.623047 0)"/>
       <use xlink:href="#DejaVuSans-30" transform="translate(127.246094 0)"/>
       <use xlink:href="#DejaVuSans-30" transform="translate(190.869141 0)"/>
       <use xlink:href="#DejaVuSans-30" transform="translate(254.492188 0)"/>
       <use xlink:href="#DejaVuSans-30" transform="translate(318.115234 0)"/>
      </g>
     </g>
    </g>
    <g id="xtick_4">
     <g id="line2d_4">
      <path d="M 337.944972 390.04 
L 337.944972 57.0062 
" clip-path="url(#p28d950665c)" style="fill: none; stroke: #ffffff; stroke-width: 0.8; stroke-linecap: round"/>
     </g>
     <g id="text_4">
      <!-- 300000 -->
      <g style="fill: #262626" transform="translate(318.857472 404.638438) scale(0.1 -0.1)">
       <defs>
        <path id="DejaVuSans-33" d="M 2597 2516 
Q 3050 2419 3304 2112 
Q 3559 1806 3559 1356 
Q 3559 666 3084 287 
Q 2609 -91 1734 -91 
Q 1441 -91 1130 -33 
Q 819 25 488 141 
L 488 750 
Q 750 597 1062 519 
Q 1375 441 1716 441 
Q 2309 441 2620 675 
Q 2931 909 2931 1356 
Q 2931 1769 2642 2001 
Q 2353 2234 1838 2234 
L 1294 2234 
L 1294 2753 
L 1863 2753 
Q 2328 2753 2575 2939 
Q 2822 3125 2822 3475 
Q 2822 3834 2567 4026 
Q 2313 4219 1838 4219 
Q 1578 4219 1281 4162 
Q 984 4106 628 3988 
L 628 4550 
Q 988 4650 1302 4700 
Q 1616 4750 1894 4750 
Q 2613 4750 3031 4423 
Q 3450 4097 3450 3541 
Q 3450 3153 3228 2886 
Q 3006 2619 2597 2516 
z
" transform="scale(0.015625)"/>
       </defs>
       <use xlink:href="#DejaVuSans-33"/>
       <use xlink:href="#DejaVuSans-30" transform="translate(63.623047 0)"/>
       <use xlink:href="#DejaVuSans-30" transform="translate(127.246094 0)"/>
       <use xlink:href="#DejaVuSans-30" transform="translate(190.869141 0)"/>
       <use xlink:href="#DejaVuSans-30" transform="translate(254.492188 0)"/>
       <use xlink:href="#DejaVuSans-30" transform="translate(318.115234 0)"/>
      </g>
     </g>
    </g>
    <g id="xtick_5">
     <g id="line2d_5">
      <path d="M 430.845701 390.04 
L 430.845701 57.0062 
" clip-path="url(#p28d950665c)" style="fill: none; stroke: #ffffff; stroke-width: 0.8; stroke-linecap: round"/>
     </g>
     <g id="text_5">
      <!-- 400000 -->
      <g style="fill: #262626" transform="translate(411.758201 404.638438) scale(0.1 -0.1)">
       <defs>
        <path id="DejaVuSans-34" d="M 2419 4116 
L 825 1625 
L 2419 1625 
L 2419 4116 
z
M 2253 4666 
L 3047 4666 
L 3047 1625 
L 3713 1625 
L 3713 1100 
L 3047 1100 
L 3047 0 
L 2419 0 
L 2419 1100 
L 313 1100 
L 313 1709 
L 2253 4666 
z
" transform="scale(0.015625)"/>
       </defs>
       <use xlink:href="#DejaVuSans-34"/>
       <use xlink:href="#DejaVuSans-30" transform="translate(63.623047 0)"/>
       <use xlink:href="#DejaVuSans-30" transform="translate(127.246094 0)"/>
       <use xlink:href="#DejaVuSans-30" transform="translate(190.869141 0)"/>
       <use xlink:href="#DejaVuSans-30" transform="translate(254.492188 0)"/>
       <use xlink:href="#DejaVuSans-30" transform="translate(318.115234 0)"/>
      </g>
     </g>
    </g>
    <g id="xtick_6">
     <g id="line2d_6">
      <path d="M 523.746429 390.04 
L 523.746429 57.0062 
" clip-path="url(#p28d950665c)" style="fill: none; stroke: #ffffff; stroke-width: 0.8; stroke-linecap: round"/>
     </g>
     <g id="text_6">
      <!-- 500000 -->
      <g style="fill: #262626" transform="translate(504.658929 404.638438) scale(0.1 -0.1)">
       <defs>
        <path id="DejaVuSans-35" d="M 691 4666 
L 3169 4666 
L 3169 4134 
L 1269 4134 
L 1269 2991 
Q 1406 3038 1543 3061 
Q 1681 3084 1819 3084 
Q 2600 3084 3056 2656 
Q 3513 2228 3513 1497 
Q 3513 744 3044 326 
Q 2575 -91 1722 -91 
Q 1428 -91 1123 -41 
Q 819 9 494 109 
L 494 744 
Q 775 591 1075 516 
Q 1375 441 1709 441 
Q 2250 441 2565 725 
Q 2881 1009 2881 1497 
Q 2881 1984 2565 2268 
Q 2250 2553 1709 2553 
Q 1456 2553 1204 2497 
Q 953 2441 691 2322 
L 691 4666 
z
" transform="scale(0.015625)"/>
       </defs>
       <use xlink:href="#DejaVuSans-35"/>
       <use xlink:href="#DejaVuSans-30" transform="translate(63.623047 0)"/>
       <use xlink:href="#DejaVuSans-30" transform="translate(127.246094 0)"/>
       <use xlink:href="#DejaVuSans-30" transform="translate(190.869141 0)"/>
       <use xlink:href="#DejaVuSans-30" transform="translate(254.492188 0)"/>
       <use xlink:href="#DejaVuSans-30" transform="translate(318.115234 0)"/>
      </g>
     </g>
    </g>
    <g id="xtick_7">
     <g id="line2d_7">
      <path d="M 616.647158 390.04 
L 616.647158 57.0062 
" clip-path="url(#p28d950665c)" style="fill: none; stroke: #ffffff; stroke-width: 0.8; stroke-linecap: round"/>
     </g>
     <g id="text_7">
      <!-- 600000 -->
      <g style="fill: #262626" transform="translate(597.559658 404.638438) scale(0.1 -0.1)">
       <defs>
        <path id="DejaVuSans-36" d="M 2113 2584 
Q 1688 2584 1439 2293 
Q 1191 2003 1191 1497 
Q 1191 994 1439 701 
Q 1688 409 2113 409 
Q 2538 409 2786 701 
Q 3034 994 3034 1497 
Q 3034 2003 2786 2293 
Q 2538 2584 2113 2584 
z
M 3366 4563 
L 3366 3988 
Q 3128 4100 2886 4159 
Q 2644 4219 2406 4219 
Q 1781 4219 1451 3797 
Q 1122 3375 1075 2522 
Q 1259 2794 1537 2939 
Q 1816 3084 2150 3084 
Q 2853 3084 3261 2657 
Q 3669 2231 3669 1497 
Q 3669 778 3244 343 
Q 2819 -91 2113 -91 
Q 1303 -91 875 529 
Q 447 1150 447 2328 
Q 447 3434 972 4092 
Q 1497 4750 2381 4750 
Q 2619 4750 2861 4703 
Q 3103 4656 3366 4563 
z
" transform="scale(0.015625)"/>
       </defs>
       <use xlink:href="#DejaVuSans-36"/>
       <use xlink:href="#DejaVuSans-30" transform="translate(63.623047 0)"/>
       <use xlink:href="#DejaVuSans-30" transform="translate(127.246094 0)"/>
       <use xlink:href="#DejaVuSans-30" transform="translate(190.869141 0)"/>
       <use xlink:href="#DejaVuSans-30" transform="translate(254.492188 0)"/>
       <use xlink:href="#DejaVuSans-30" transform="translate(318.115234 0)"/>
      </g>
     </g>
    </g>
    <g id="text_8">
     <!-- Steps -->
     <g style="fill: #262626" transform="translate(330.643981 418.316562) scale(0.1 -0.1)">
      <defs>
       <path id="DejaVuSans-53" d="M 3425 4513 
L 3425 3897 
Q 3066 4069 2747 4153 
Q 2428 4238 2131 4238 
Q 1616 4238 1336 4038 
Q 1056 3838 1056 3469 
Q 1056 3159 1242 3001 
Q 1428 2844 1947 2747 
L 2328 2669 
Q 3034 2534 3370 2195 
Q 3706 1856 3706 1288 
Q 3706 609 3251 259 
Q 2797 -91 1919 -91 
Q 1588 -91 1214 -16 
Q 841 59 441 206 
L 441 856 
Q 825 641 1194 531 
Q 1563 422 1919 422 
Q 2459 422 2753 634 
Q 3047 847 3047 1241 
Q 3047 1584 2836 1778 
Q 2625 1972 2144 2069 
L 1759 2144 
Q 1053 2284 737 2584 
Q 422 2884 422 3419 
Q 422 4038 858 4394 
Q 1294 4750 2059 4750 
Q 2388 4750 2728 4690 
Q 3069 4631 3425 4513 
z
" transform="scale(0.015625)"/>
       <path id="DejaVuSans-74" d="M 1172 4494 
L 1172 3500 
L 2356 3500 
L 2356 3053 
L 1172 3053 
L 1172 1153 
Q 1172 725 1289 603 
Q 1406 481 1766 481 
L 2356 481 
L 2356 0 
L 1766 0 
Q 1100 0 847 248 
Q 594 497 594 1153 
L 594 3053 
L 172 3053 
L 172 3500 
L 594 3500 
L 594 4494 
L 1172 4494 
z
" transform="scale(0.015625)"/>
       <path id="DejaVuSans-65" d="M 3597 1894 
L 3597 1613 
L 953 1613 
Q 991 1019 1311 708 
Q 1631 397 2203 397 
Q 2534 397 2845 478 
Q 3156 559 3463 722 
L 3463 178 
Q 3153 47 2828 -22 
Q 2503 -91 2169 -91 
Q 1331 -91 842 396 
Q 353 884 353 1716 
Q 353 2575 817 3079 
Q 1281 3584 2069 3584 
Q 2775 3584 3186 3129 
Q 3597 2675 3597 1894 
z
M 3022 2063 
Q 3016 2534 2758 2815 
Q 2500 3097 2075 3097 
Q 1594 3097 1305 2825 
Q 1016 2553 972 2059 
L 3022 2063 
z
" transform="scale(0.015625)"/>
       <path id="DejaVuSans-70" d="M 1159 525 
L 1159 -1331 
L 581 -1331 
L 581 3500 
L 1159 3500 
L 1159 2969 
Q 1341 3281 1617 3432 
Q 1894 3584 2278 3584 
Q 2916 3584 3314 3078 
Q 3713 2572 3713 1747 
Q 3713 922 3314 415 
Q 2916 -91 2278 -91 
Q 1894 -91 1617 61 
Q 1341 213 1159 525 
z
M 3116 1747 
Q 3116 2381 2855 2742 
Q 2594 3103 2138 3103 
Q 1681 3103 1420 2742 
Q 1159 2381 1159 1747 
Q 1159 1113 1420 752 
Q 1681 391 2138 391 
Q 2594 391 2855 752 
Q 3116 1113 3116 1747 
z
" transform="scale(0.015625)"/>
       <path id="DejaVuSans-73" d="M 2834 3397 
L 2834 2853 
Q 2591 2978 2328 3040 
Q 2066 3103 1784 3103 
Q 1356 3103 1142 2972 
Q 928 2841 928 2578 
Q 928 2378 1081 2264 
Q 1234 2150 1697 2047 
L 1894 2003 
Q 2506 1872 2764 1633 
Q 3022 1394 3022 966 
Q 3022 478 2636 193 
Q 2250 -91 1575 -91 
Q 1294 -91 989 -36 
Q 684 19 347 128 
L 347 722 
Q 666 556 975 473 
Q 1284 391 1588 391 
Q 1994 391 2212 530 
Q 2431 669 2431 922 
Q 2431 1156 2273 1281 
Q 2116 1406 1581 1522 
L 1381 1569 
Q 847 1681 609 1914 
Q 372 2147 372 2553 
Q 372 3047 722 3315 
Q 1072 3584 1716 3584 
Q 2034 3584 2315 3537 
Q 2597 3491 2834 3397 
z
" transform="scale(0.015625)"/>
      </defs>
      <use xlink:href="#DejaVuSans-53"/>
      <use xlink:href="#DejaVuSans-74" transform="translate(63.476562 0)"/>
      <use xlink:href="#DejaVuSans-65" transform="translate(102.685547 0)"/>
      <use xlink:href="#DejaVuSans-70" transform="translate(164.208984 0)"/>
      <use xlink:href="#DejaVuSans-73" transform="translate(227.685547 0)"/>
     </g>
    </g>
   </g>
   <g id="matplotlib.axis_2">
    <g id="ytick_1">
     <g id="line2d_8">
      <path d="M 59.24 388.713172 
L 630.02765 388.713172 
" clip-path="url(#p28d950665c)" style="fill: none; stroke: #ffffff; stroke-width: 0.8; stroke-linecap: round"/>
     </g>
     <g id="text_9">
      <!-- −500 -->
      <g style="fill: #262626" transform="translate(24.772813 392.512391) scale(0.1 -0.1)">
       <defs>
        <path id="DejaVuSans-2212" d="M 678 2272 
L 4684 2272 
L 4684 1741 
L 678 1741 
L 678 2272 
z
" transform="scale(0.015625)"/>
       </defs>
       <use xlink:href="#DejaVuSans-2212"/>
       <use xlink:href="#DejaVuSans-35" transform="translate(83.789062 0)"/>
       <use xlink:href="#DejaVuSans-30" transform="translate(147.412109 0)"/>
       <use xlink:href="#DejaVuSans-30" transform="translate(211.035156 0)"/>
      </g>
     </g>
    </g>
    <g id="ytick_2">
     <g id="line2d_9">
      <path d="M 59.24 322.371778 
L 630.02765 322.371778 
" clip-path="url(#p28d950665c)" style="fill: none; stroke: #ffffff; stroke-width: 0.8; stroke-linecap: round"/>
     </g>
     <g id="text_10">
      <!-- −400 -->
      <g style="fill: #262626" transform="translate(24.772813 326.170996) scale(0.1 -0.1)">
       <use xlink:href="#DejaVuSans-2212"/>
       <use xlink:href="#DejaVuSans-34" transform="translate(83.789062 0)"/>
       <use xlink:href="#DejaVuSans-30" transform="translate(147.412109 0)"/>
       <use xlink:href="#DejaVuSans-30" transform="translate(211.035156 0)"/>
      </g>
     </g>
    </g>
    <g id="ytick_3">
     <g id="line2d_10">
      <path d="M 59.24 256.030383 
L 630.02765 256.030383 
" clip-path="url(#p28d950665c)" style="fill: none; stroke: #ffffff; stroke-width: 0.8; stroke-linecap: round"/>
     </g>
     <g id="text_11">
      <!-- −300 -->
      <g style="fill: #262626" transform="translate(24.772813 259.829602) scale(0.1 -0.1)">
       <use xlink:href="#DejaVuSans-2212"/>
       <use xlink:href="#DejaVuSans-33" transform="translate(83.789062 0)"/>
       <use xlink:href="#DejaVuSans-30" transform="translate(147.412109 0)"/>
       <use xlink:href="#DejaVuSans-30" transform="translate(211.035156 0)"/>
      </g>
     </g>
    </g>
    <g id="ytick_4">
     <g id="line2d_11">
      <path d="M 59.24 189.688989 
L 630.02765 189.688989 
" clip-path="url(#p28d950665c)" style="fill: none; stroke: #ffffff; stroke-width: 0.8; stroke-linecap: round"/>
     </g>
     <g id="text_12">
      <!-- −200 -->
      <g style="fill: #262626" transform="translate(24.772813 193.488208) scale(0.1 -0.1)">
       <use xlink:href="#DejaVuSans-2212"/>
       <use xlink:href="#DejaVuSans-32" transform="translate(83.789062 0)"/>
       <use xlink:href="#DejaVuSans-30" transform="translate(147.412109 0)"/>
       <use xlink:href="#DejaVuSans-30" transform="translate(211.035156 0)"/>
      </g>
     </g>
    </g>
    <g id="ytick_5">
     <g id="line2d_12">
      <path d="M 59.24 123.347594 
L 630.02765 123.347594 
" clip-path="url(#p28d950665c)" style="fill: none; stroke: #ffffff; stroke-width: 0.8; stroke-linecap: round"/>
     </g>
     <g id="text_13">
      <!-- −100 -->
      <g style="fill: #262626" transform="translate(24.772813 127.146813) scale(0.1 -0.1)">
       <use xlink:href="#DejaVuSans-2212"/>
       <use xlink:href="#DejaVuSans-31" transform="translate(83.789062 0)"/>
       <use xlink:href="#DejaVuSans-30" transform="translate(147.412109 0)"/>
       <use xlink:href="#DejaVuSans-30" transform="translate(211.035156 0)"/>
      </g>
     </g>
    </g>
    <g id="ytick_6">
     <g id="line2d_13">
      <path d="M 59.24 57.0062 
L 630.02765 57.0062 
" clip-path="url(#p28d950665c)" style="fill: none; stroke: #ffffff; stroke-width: 0.8; stroke-linecap: round"/>
     </g>
     <g id="text_14">
      <!-- 0 -->
      <g style="fill: #262626" transform="translate(45.8775 60.805419) scale(0.1 -0.1)">
       <use xlink:href="#DejaVuSans-30"/>
      </g>
     </g>
    </g>
    <g id="text_15">
     <!-- Reward -->
     <g style="fill: #262626" transform="translate(18.693125 242.144194) rotate(-90) scale(0.1 -0.1)">
      <defs>
       <path id="DejaVuSans-52" d="M 2841 2188 
Q 3044 2119 3236 1894 
Q 3428 1669 3622 1275 
L 4263 0 
L 3584 0 
L 2988 1197 
Q 2756 1666 2539 1819 
Q 2322 1972 1947 1972 
L 1259 1972 
L 1259 0 
L 628 0 
L 628 4666 
L 2053 4666 
Q 2853 4666 3247 4331 
Q 3641 3997 3641 3322 
Q 3641 2881 3436 2590 
Q 3231 2300 2841 2188 
z
M 1259 4147 
L 1259 2491 
L 2053 2491 
Q 2509 2491 2742 2702 
Q 2975 2913 2975 3322 
Q 2975 3731 2742 3939 
Q 2509 4147 2053 4147 
L 1259 4147 
z
" transform="scale(0.015625)"/>
       <path id="DejaVuSans-77" d="M 269 3500 
L 844 3500 
L 1563 769 
L 2278 3500 
L 2956 3500 
L 3675 769 
L 4391 3500 
L 4966 3500 
L 4050 0 
L 3372 0 
L 2619 2869 
L 1863 0 
L 1184 0 
L 269 3500 
z
" transform="scale(0.015625)"/>
       <path id="DejaVuSans-61" d="M 2194 1759 
Q 1497 1759 1228 1600 
Q 959 1441 959 1056 
Q 959 750 1161 570 
Q 1363 391 1709 391 
Q 2188 391 2477 730 
Q 2766 1069 2766 1631 
L 2766 1759 
L 2194 1759 
z
M 3341 1997 
L 3341 0 
L 2766 0 
L 2766 531 
Q 2569 213 2275 61 
Q 1981 -91 1556 -91 
Q 1019 -91 701 211 
Q 384 513 384 1019 
Q 384 1609 779 1909 
Q 1175 2209 1959 2209 
L 2766 2209 
L 2766 2266 
Q 2766 2663 2505 2880 
Q 2244 3097 1772 3097 
Q 1472 3097 1187 3025 
Q 903 2953 641 2809 
L 641 3341 
Q 956 3463 1253 3523 
Q 1550 3584 1831 3584 
Q 2591 3584 2966 3190 
Q 3341 2797 3341 1997 
z
" transform="scale(0.015625)"/>
       <path id="DejaVuSans-72" d="M 2631 2963 
Q 2534 3019 2420 3045 
Q 2306 3072 2169 3072 
Q 1681 3072 1420 2755 
Q 1159 2438 1159 1844 
L 1159 0 
L 581 0 
L 581 3500 
L 1159 3500 
L 1159 2956 
Q 1341 3275 1631 3429 
Q 1922 3584 2338 3584 
Q 2397 3584 2469 3576 
Q 2541 3569 2628 3553 
L 2631 2963 
z
" transform="scale(0.015625)"/>
       <path id="DejaVuSans-64" d="M 2906 2969 
L 2906 4863 
L 3481 4863 
L 3481 0 
L 2906 0 
L 2906 525 
Q 2725 213 2448 61 
Q 2172 -91 1784 -91 
Q 1150 -91 751 415 
Q 353 922 353 1747 
Q 353 2572 751 3078 
Q 1150 3584 1784 3584 
Q 2172 3584 2448 3432 
Q 2725 3281 2906 2969 
z
M 947 1747 
Q 947 1113 1208 752 
Q 1469 391 1925 391 
Q 2381 391 2643 752 
Q 2906 1113 2906 1747 
Q 2906 2381 2643 2742 
Q 2381 3103 1925 3103 
Q 1469 3103 1208 2742 
Q 947 2381 947 1747 
z
" transform="scale(0.015625)"/>
      </defs>
      <use xlink:href="#DejaVuSans-52"/>
      <use xlink:href="#DejaVuSans-65" transform="translate(64.982422 0)"/>
      <use xlink:href="#DejaVuSans-77" transform="translate(126.505859 0)"/>
      <use xlink:href="#DejaVuSans-61" transform="translate(208.292969 0)"/>
      <use xlink:href="#DejaVuSans-72" transform="translate(269.572266 0)"/>
      <use xlink:href="#DejaVuSans-64" transform="translate(308.935547 0)"/>
     </g>
    </g>
   </g>
   <g id="FillBetweenPolyCollection_1">
    <path d="M 59.242787 339.861705 
L 59.242787 400.114922 
L 64.950608 401.742155 
L 70.658429 394.645652 
L 76.366249 407.188071 
L 82.07407 412.373816 
L 87.781891 384.085607 
L 93.489712 385.410703 
L 99.197532 372.527019 
L 104.905353 378.962361 
L 110.613174 371.34309 
L 116.320995 367.233276 
L 122.028815 365.148935 
L 127.736636 362.621617 
L 133.444457 361.197922 
L 139.152278 362.607178 
L 144.860098 374.41872 
L 150.567919 375.488163 
L 156.27574 374.620959 
L 161.983561 372.395229 
L 167.691381 359.474187 
L 173.399202 358.880558 
L 179.107023 358.791321 
L 184.814844 358.407604 
L 190.522664 358.200372 
L 196.230485 358.851597 
L 201.938306 349.530988 
L 207.646127 344.018499 
L 213.353947 354.014236 
L 219.061768 344.971636 
L 224.769589 338.067824 
L 230.47741 314.755474 
L 236.18523 303.769169 
L 241.893051 299.067032 
L 247.600872 287.96601 
L 253.308693 283.349461 
L 259.016513 282.846317 
L 264.724334 282.920022 
L 270.432155 280.424397 
L 276.139976 279.552201 
L 281.847797 278.884017 
L 287.555617 278.109789 
L 293.263438 279.986773 
L 298.971259 279.293652 
L 304.67908 277.344583 
L 310.3869 279.944285 
L 316.094721 277.450539 
L 321.802542 280.307382 
L 327.510363 278.081728 
L 333.218183 279.258314 
L 338.926004 279.726405 
L 344.633825 278.085561 
L 350.341646 276.428454 
L 356.049466 279.811345 
L 361.757287 277.282454 
L 367.465108 276.896127 
L 373.172929 276.70006 
L 378.880749 277.316367 
L 384.58857 278.160382 
L 390.296391 277.617297 
L 396.004212 277.882997 
L 401.712032 277.941757 
L 407.419853 279.821222 
L 413.127674 277.48385 
L 418.835495 279.94705 
L 424.543315 276.656748 
L 430.251136 278.179656 
L 435.958957 278.173101 
L 441.666778 278.88931 
L 447.374598 277.843637 
L 453.082419 276.8947 
L 458.79024 276.551376 
L 464.498061 278.775805 
L 470.205881 277.81899 
L 475.913702 277.822212 
L 481.621523 277.51084 
L 487.329344 278.801409 
L 493.037165 279.881108 
L 498.744985 278.241611 
L 504.452806 278.221491 
L 510.160627 281.369723 
L 515.868448 276.565298 
L 521.576268 278.890831 
L 527.284089 276.554607 
L 532.99191 276.640544 
L 538.699731 276.215434 
L 544.407551 277.658803 
L 550.115372 277.114882 
L 555.823193 277.805917 
L 561.531014 276.805106 
L 567.238834 278.310403 
L 572.946655 278.196637 
L 578.654476 277.821754 
L 584.362297 277.573322 
L 590.070117 277.456844 
L 595.777938 276.600708 
L 601.485759 278.833553 
L 607.19358 276.253677 
L 612.9014 279.415694 
L 618.609221 277.461373 
L 624.317042 276.89092 
L 624.317042 52.930036 
L 624.317042 52.930036 
L 618.609221 54.946897 
L 612.9014 59.32818 
L 607.19358 51.311672 
L 601.485759 58.948371 
L 595.777938 52.324639 
L 590.070117 54.785573 
L 584.362297 55.232997 
L 578.654476 56.012856 
L 572.946655 57.064314 
L 567.238834 56.021768 
L 561.531014 52.783655 
L 555.823193 55.829669 
L 550.115372 53.800707 
L 544.407551 55.446052 
L 538.699731 51.117719 
L 532.99191 52.417486 
L 527.284089 52.105374 
L 521.576268 59.023775 
L 515.868448 52.194196 
L 510.160627 63.51073 
L 504.452806 55.513608 
L 498.744985 57.118852 
L 493.037165 60.322276 
L 487.329344 58.582466 
L 481.621523 55.096455 
L 475.913702 55.581179 
L 470.205881 55.783426 
L 464.498061 57.646119 
L 458.79024 52.141776 
L 453.082419 53.191621 
L 447.374598 55.924632 
L 441.666778 58.627248 
L 435.958957 56.722972 
L 430.251136 57.014953 
L 424.543315 52.533965 
L 418.835495 62.213406 
L 413.127674 54.957591 
L 407.419853 61.310942 
L 401.712032 56.357244 
L 396.004212 56.183809 
L 390.296391 55.056339 
L 384.58857 56.271301 
L 378.880749 54.494831 
L 373.172929 52.623336 
L 367.465108 53.190195 
L 361.757287 54.396061 
L 356.049466 61.785209 
L 350.341646 51.800308 
L 344.633825 56.545146 
L 338.926004 61.43893 
L 333.218183 59.087512 
L 327.510363 56.781174 
L 321.802542 62.450146 
L 316.094721 54.924561 
L 310.3869 62.183 
L 304.67908 54.400273 
L 298.971259 60.179977 
L 293.263438 62.107341 
L 287.555617 56.852625 
L 281.847797 59.09693 
L 276.139976 60.916549 
L 270.432155 63.26191 
L 264.724334 69.821885 
L 259.016513 65.981448 
L 253.308693 66.572937 
L 247.600872 73.267597 
L 241.893051 79.249484 
L 236.18523 83.204899 
L 230.47741 87.112236 
L 224.769589 87.848641 
L 219.061768 86.351654 
L 213.353947 86.099289 
L 207.646127 94.43649 
L 201.938306 101.960085 
L 196.230485 92.971183 
L 190.522664 86.623392 
L 184.814844 88.141036 
L 179.107023 91.903655 
L 173.399202 92.245638 
L 167.691381 96.528101 
L 161.983561 132.533837 
L 156.27574 128.450548 
L 150.567919 133.985289 
L 144.860098 134.192294 
L 139.152278 120.197034 
L 133.444457 109.664838 
L 127.736636 119.9504 
L 122.028815 128.833802 
L 116.320995 140.249935 
L 110.613174 147.020109 
L 104.905353 163.714959 
L 99.197532 162.786406 
L 93.489712 183.770004 
L 87.781891 192.69119 
L 82.07407 247.097529 
L 76.366249 275.40325 
L 70.658429 322.343682 
L 64.950608 303.902801 
L 59.242787 339.861705 
z
" clip-path="url(#p28d950665c)" style="fill: #0000ff; fill-opacity: 0.1"/>
   </g>
   <g id="line2d_14">
    <path d="M 59.242787 369.988314 
L 64.950608 352.822478 
L 70.658429 358.494667 
L 76.366249 341.29566 
L 82.07407 329.735672 
L 87.781891 288.388398 
L 93.489712 284.590354 
L 99.197532 267.656713 
L 104.905353 271.33866 
L 110.613174 259.1816 
L 116.320995 253.741605 
L 122.028815 246.991368 
L 127.736636 241.286008 
L 133.444457 235.43138 
L 139.152278 241.402106 
L 144.860098 254.305507 
L 150.567919 254.736726 
L 156.27574 251.535754 
L 161.983561 252.464533 
L 167.691381 228.001144 
L 173.399202 225.563098 
L 179.107023 225.347488 
L 184.814844 223.27432 
L 190.522664 222.411882 
L 196.230485 225.91139 
L 201.938306 225.745537 
L 207.646127 219.227495 
L 213.353947 220.056762 
L 219.061768 215.661645 
L 224.769589 212.958233 
L 230.47741 200.933855 
L 236.18523 193.487034 
L 241.893051 189.158258 
L 247.600872 180.616803 
L 253.308693 174.961199 
L 259.016513 174.413883 
L 264.724334 176.370954 
L 270.432155 171.843154 
L 276.139976 170.234375 
L 281.847797 168.990474 
L 287.555617 167.481207 
L 293.263438 171.047057 
L 298.971259 169.736814 
L 304.67908 165.872428 
L 310.3869 171.063642 
L 316.094721 166.18755 
L 321.802542 171.378764 
L 327.510363 167.431451 
L 333.218183 169.172913 
L 338.926004 170.582667 
L 344.633825 167.315354 
L 350.341646 164.114381 
L 356.049466 170.798277 
L 361.757287 165.839258 
L 367.465108 165.043161 
L 373.172929 164.661698 
L 378.880749 165.905599 
L 384.58857 167.215841 
L 390.296391 166.336818 
L 396.004212 167.033403 
L 401.712032 167.1495 
L 407.419853 170.566082 
L 413.127674 166.220721 
L 418.835495 171.080228 
L 424.543315 164.595356 
L 430.251136 167.597305 
L 435.958957 167.448036 
L 441.666778 168.758279 
L 447.374598 166.884135 
L 453.082419 165.043161 
L 458.79024 164.346576 
L 464.498061 168.210962 
L 470.205881 166.801208 
L 475.913702 166.701696 
L 481.621523 166.303647 
L 487.329344 168.691938 
L 493.037165 170.101692 
L 498.744985 167.680231 
L 504.452806 166.867549 
L 510.160627 172.440226 
L 515.868448 164.379747 
L 521.576268 168.957303 
L 527.284089 164.329991 
L 532.99191 164.529015 
L 538.699731 163.666577 
L 544.407551 166.552428 
L 550.115372 165.457795 
L 555.823193 166.817793 
L 561.531014 164.794381 
L 567.238834 167.166085 
L 572.946655 167.630475 
L 578.654476 166.917305 
L 584.362297 166.403159 
L 590.070117 166.121208 
L 595.777938 164.462674 
L 601.485759 168.890962 
L 607.19358 163.782674 
L 612.9014 169.371937 
L 618.609221 166.204135 
L 624.317042 164.910478 
" clip-path="url(#p28d950665c)" style="fill: none; stroke: #0000ff; stroke-width: 1.5; stroke-linecap: round"/>
   </g>
   <g id="line2d_15">
    <path d="M 59.242787 372.791237 
L 64.950608 338.210786 
L 70.658429 332.074207 
L 76.366249 340.449808 
L 82.07407 342.605903 
L 87.781891 218.547495 
L 93.489712 204.698729 
L 99.197532 206.108484 
L 104.905353 178.079245 
L 110.613174 180.069487 
L 116.320995 174.181688 
L 122.028815 186.206066 
L 127.736636 160.332922 
L 133.444457 153.947563 
L 139.152278 147.230496 
L 144.860098 253.459654 
L 150.567919 258.766966 
L 156.27574 253.127947 
L 161.983561 243.176738 
L 167.691381 135.620752 
L 173.399202 124.508569 
L 179.107023 112.815898 
L 184.814844 119.864671 
L 190.522664 111.48907 
L 196.230485 118.86955 
L 201.938306 118.62077 
L 207.646127 113.313459 
L 213.353947 109.250048 
L 219.061768 113.562239 
L 224.769589 110.659803 
L 230.47741 113.313459 
L 236.18523 114.723213 
L 241.893051 110.742729 
L 247.600872 112.484191 
L 253.308693 111.157363 
L 259.016513 106.513466 
L 264.724334 110.99151 
L 270.432155 118.952477 
L 276.139976 113.728092 
L 281.847797 109.415902 
L 287.555617 109.581755 
L 293.263438 114.308579 
L 298.971259 109.747609 
L 304.67908 106.347612 
L 310.3869 118.289063 
L 316.094721 110.908583 
L 321.802542 109.332975 
L 327.510363 112.567118 
L 333.218183 129.981734 
L 338.926004 113.976872 
L 344.633825 110.162242 
L 350.341646 105.601271 
L 356.049466 110.908583 
L 361.757287 109.830535 
L 367.465108 111.903704 
L 373.172929 111.24029 
L 378.880749 108.337854 
L 384.58857 123.762228 
L 390.296391 118.454917 
L 396.004212 113.976872 
L 401.712032 113.147605 
L 407.419853 109.747609 
L 413.127674 108.337854 
L 418.835495 117.708576 
L 424.543315 107.342733 
L 430.251136 111.24029 
L 435.958957 112.732971 
L 441.666778 115.884188 
L 447.374598 111.903704 
L 453.082419 106.679319 
L 458.79024 111.654924 
L 464.498061 109.664682 
L 470.205881 110.825656 
L 475.913702 120.611012 
L 481.621523 109.498828 
L 487.329344 110.576876 
L 493.037165 113.893946 
L 498.744985 108.337854 
L 504.452806 130.230514 
L 510.160627 107.757367 
L 515.868448 110.328096 
L 521.576268 113.313459 
L 527.284089 113.396385 
L 532.99191 111.571997 
L 538.699731 111.157363 
L 544.407551 109.747609 
L 550.115372 110.99151 
L 555.823193 108.918341 
L 561.531014 109.996389 
L 567.238834 129.06954 
L 572.946655 109.084195 
L 578.654476 109.830535 
L 584.362297 112.567118 
L 590.070117 111.24029 
L 595.777938 110.079316 
L 601.485759 109.332975 
L 607.19358 108.172 
L 612.9014 131.806122 
L 618.609221 109.581755 
L 624.317042 109.830535 
" clip-path="url(#p28d950665c)" style="fill: none; stroke: #008000; stroke-opacity: 0.2; stroke-linecap: round"/>
   </g>
   <g id="line2d_16">
    <path d="M 59.242787 388.713172 
L 64.950608 385.644883 
L 70.658429 388.713172 
L 76.366249 388.713172 
L 82.07407 377.518062 
L 87.781891 380.918058 
L 93.489712 388.713172 
L 99.197532 388.713172 
L 104.905353 388.713172 
L 110.613174 388.713172 
L 116.320995 388.713172 
L 122.028815 388.713172 
L 127.736636 388.713172 
L 133.444457 388.713172 
L 139.152278 388.713172 
L 144.860098 388.713172 
L 150.567919 388.713172 
L 156.27574 388.713172 
L 161.983561 388.713172 
L 167.691381 388.713172 
L 173.399202 388.713172 
L 179.107023 388.713172 
L 184.814844 388.713172 
L 190.522664 388.713172 
L 196.230485 388.713172 
L 201.938306 388.713172 
L 207.646127 388.713172 
L 213.353947 388.713172 
L 219.061768 388.713172 
L 224.769589 388.713172 
L 230.47741 388.713172 
L 236.18523 388.713172 
L 241.893051 388.713172 
L 247.600872 388.713172 
L 253.308693 388.713172 
L 259.016513 388.713172 
L 264.724334 388.713172 
L 270.432155 388.713172 
L 276.139976 388.713172 
L 281.847797 388.713172 
L 287.555617 388.713172 
L 293.263438 388.713172 
L 298.971259 388.713172 
L 304.67908 388.713172 
L 310.3869 388.713172 
L 316.094721 388.713172 
L 321.802542 388.713172 
L 327.510363 388.713172 
L 333.218183 388.713172 
L 338.926004 388.713172 
L 344.633825 388.713172 
L 350.341646 388.713172 
L 356.049466 388.713172 
L 361.757287 388.713172 
L 367.465108 388.713172 
L 373.172929 388.713172 
L 378.880749 388.713172 
L 384.58857 388.713172 
L 390.296391 388.713172 
L 396.004212 388.713172 
L 401.712032 388.713172 
L 407.419853 388.713172 
L 413.127674 388.713172 
L 418.835495 388.713172 
L 424.543315 388.713172 
L 430.251136 388.713172 
L 435.958957 388.713172 
L 441.666778 388.713172 
L 447.374598 388.713172 
L 453.082419 388.713172 
L 458.79024 388.713172 
L 464.498061 388.713172 
L 470.205881 388.713172 
L 475.913702 388.713172 
L 481.621523 388.713172 
L 487.329344 388.713172 
L 493.037165 388.713172 
L 498.744985 388.713172 
L 504.452806 388.713172 
L 510.160627 388.713172 
L 515.868448 388.713172 
L 521.576268 388.713172 
L 527.284089 388.713172 
L 532.99191 388.713172 
L 538.699731 388.713172 
L 544.407551 388.713172 
L 550.115372 388.713172 
L 555.823193 388.713172 
L 561.531014 388.713172 
L 567.238834 388.713172 
L 572.946655 388.713172 
L 578.654476 388.713172 
L 584.362297 388.713172 
L 590.070117 388.713172 
L 595.777938 388.713172 
L 601.485759 388.713172 
L 607.19358 388.713172 
L 612.9014 388.713172 
L 618.609221 388.713172 
L 624.317042 388.713172 
" clip-path="url(#p28d950665c)" style="fill: none; stroke: #008000; stroke-opacity: 0.2; stroke-linecap: round"/>
   </g>
   <g id="line2d_17">
    <path d="M 59.242787 388.713172 
L 64.950608 388.713172 
L 70.658429 382.9083 
L 76.366249 374.283919 
L 82.07407 372.542457 
L 87.781891 312.669349 
L 93.489712 305.620576 
L 99.197532 230.240166 
L 104.905353 276.927923 
L 110.613174 227.918217 
L 116.320995 200.469465 
L 122.028815 159.669508 
L 127.736636 153.201222 
L 133.444457 130.811001 
L 139.152278 164.562186 
L 144.860098 127.411005 
L 150.567919 119.615891 
L 156.27574 117.957356 
L 161.983561 126.498811 
L 167.691381 111.986631 
L 173.399202 118.040283 
L 179.107023 112.981752 
L 184.814844 109.001268 
L 190.522664 109.913462 
L 196.230485 113.976872 
L 201.938306 145.820742 
L 207.646127 116.464675 
L 213.353947 109.250048 
L 219.061768 107.093953 
L 224.769589 109.996389 
L 230.47741 112.069557 
L 236.18523 109.664682 
L 241.893051 110.328096 
L 247.600872 111.24029 
L 253.308693 109.001268 
L 259.016513 115.967114 
L 264.724334 121.93784 
L 270.432155 108.586634 
L 276.139976 109.250048 
L 281.847797 116.215895 
L 287.555617 111.406143 
L 293.263438 113.479312 
L 298.971259 120.776865 
L 304.67908 109.332975 
L 310.3869 110.825656 
L 316.094721 110.328096 
L 321.802542 113.645165 
L 327.510363 109.581755 
L 333.218183 105.684198 
L 338.926004 122.767107 
L 344.633825 107.17688 
L 350.341646 110.742729 
L 356.049466 118.786624 
L 361.757287 108.835414 
L 367.465108 105.850052 
L 373.172929 106.015905 
L 378.880749 110.99151 
L 384.58857 110.825656 
L 390.296391 104.274444 
L 396.004212 109.581755 
L 401.712032 113.479312 
L 407.419853 125.25491 
L 413.127674 111.48907 
L 418.835495 119.947598 
L 424.543315 108.254927 
L 430.251136 110.659803 
L 435.958957 106.264685 
L 441.666778 104.772004 
L 447.374598 105.767125 
L 453.082419 108.337854 
L 458.79024 105.186638 
L 464.498061 107.17688 
L 470.205881 117.957356 
L 475.913702 105.601271 
L 481.621523 110.493949 
L 487.329344 112.981752 
L 493.037165 133.879291 
L 498.744985 111.323217 
L 504.452806 105.020784 
L 510.160627 110.493949 
L 515.868448 105.020784 
L 521.576268 118.86955 
L 527.284089 106.430539 
L 532.99191 106.181759 
L 538.699731 108.586634 
L 544.407551 110.493949 
L 550.115372 105.352491 
L 555.823193 113.479312 
L 561.531014 103.61103 
L 567.238834 107.757367 
L 572.946655 112.981752 
L 578.654476 111.406143 
L 584.362297 112.815898 
L 590.070117 106.596392 
L 595.777938 106.430539 
L 601.485759 115.386627 
L 607.19358 106.264685 
L 612.9014 111.571997 
L 618.609221 111.73785 
L 624.317042 105.186638 
" clip-path="url(#p28d950665c)" style="fill: none; stroke: #008000; stroke-opacity: 0.2; stroke-linecap: round"/>
   </g>
   <g id="line2d_18">
    <path d="M 59.242787 311.010814 
L 64.950608 262.830376 
L 70.658429 300.064484 
L 76.366249 214.318232 
L 82.07407 167.298768 
L 87.781891 141.093917 
L 93.489712 135.206119 
L 99.197532 124.508569 
L 104.905353 124.259789 
L 110.613174 110.493949 
L 116.320995 116.630528 
L 122.028815 111.654924 
L 127.736636 115.469554 
L 133.444457 114.971993 
L 139.152278 117.791503 
L 144.860098 113.230532 
L 150.567919 117.874429 
L 156.27574 109.167121 
L 161.983561 115.220774 
L 167.691381 114.971993 
L 173.399202 107.840293 
L 179.107023 123.513448 
L 184.814844 110.079316 
L 190.522664 113.230532 
L 196.230485 119.284184 
L 201.938306 111.48907 
L 207.646127 123.513448 
L 213.353947 113.645165 
L 219.061768 110.493949 
L 224.769589 113.976872 
L 230.47741 111.986631 
L 236.18523 110.328096 
L 241.893051 107.508587 
L 247.600872 110.908583 
L 253.308693 109.498828 
L 259.016513 108.420781 
L 264.724334 121.274426 
L 270.432155 116.713455 
L 276.139976 121.68906 
L 281.847797 113.562239 
L 287.555617 114.55736 
L 293.263438 112.815898 
L 298.971259 117.376869 
L 304.67908 108.503707 
L 310.3869 121.523206 
L 316.094721 110.411023 
L 321.802542 113.893946 
L 327.510363 112.235411 
L 333.218183 111.48907 
L 338.926004 110.162242 
L 344.633825 111.323217 
L 350.341646 106.513466 
L 356.049466 114.55736 
L 361.757287 109.498828 
L 367.465108 108.503707 
L 373.172929 109.167121 
L 378.880749 109.498828 
L 384.58857 109.084195 
L 390.296391 109.581755 
L 396.004212 112.152484 
L 401.712032 109.250048 
L 407.419853 108.669561 
L 413.127674 108.835414 
L 418.835495 110.411023 
L 424.543315 109.415902 
L 430.251136 116.796382 
L 435.958957 109.581755 
L 441.666778 122.68418 
L 447.374598 112.567118 
L 453.082419 108.918341 
L 458.79024 109.332975 
L 464.498061 106.430539 
L 470.205881 106.596392 
L 475.913702 109.664682 
L 481.621523 111.074436 
L 487.329344 108.835414 
L 493.037165 102.864689 
L 498.744985 118.040283 
L 504.452806 103.362249 
L 510.160627 143.664646 
L 515.868448 107.259806 
L 521.576268 108.172 
L 527.284089 105.684198 
L 532.99191 106.264685 
L 538.699731 104.191517 
L 544.407551 108.337854 
L 550.115372 109.084195 
L 555.823193 107.342733 
L 561.531014 114.059799 
L 567.238834 103.113469 
L 572.946655 111.157363 
L 578.654476 113.562239 
L 584.362297 107.757367 
L 590.070117 108.586634 
L 595.777938 106.596392 
L 601.485759 113.728092 
L 607.19358 109.332975 
L 612.9014 107.92322 
L 618.609221 111.074436 
L 624.317042 116.298821 
" clip-path="url(#p28d950665c)" style="fill: none; stroke: #008000; stroke-opacity: 0.2; stroke-linecap: round"/>
   </g>
   <g id="line2d_19">
    <path d="M 59.242787 388.713172 
L 64.950608 388.713172 
L 70.658429 388.713172 
L 76.366249 388.713172 
L 82.07407 388.713172 
L 87.781891 388.713172 
L 93.489712 388.713172 
L 99.197532 388.713172 
L 104.905353 388.713172 
L 110.613174 388.713172 
L 116.320995 388.713172 
L 122.028815 388.713172 
L 127.736636 388.713172 
L 133.444457 388.713172 
L 139.152278 388.713172 
L 144.860098 388.713172 
L 150.567919 388.713172 
L 156.27574 388.713172 
L 161.983561 388.713172 
L 167.691381 388.713172 
L 173.399202 388.713172 
L 179.107023 388.713172 
L 184.814844 388.713172 
L 190.522664 388.713172 
L 196.230485 388.713172 
L 201.938306 364.083929 
L 207.646127 354.13272 
L 213.353947 379.425377 
L 219.061768 358.444911 
L 224.769589 341.444929 
L 230.47741 278.586457 
L 236.18523 244.006006 
L 241.893051 228.498705 
L 247.600872 179.73778 
L 253.308693 156.435365 
L 259.016513 152.454881 
L 264.724334 138.937822 
L 270.432155 126.25003 
L 276.139976 117.791503 
L 281.847797 117.045162 
L 287.555617 113.147605 
L 293.263438 125.918323 
L 298.971259 112.069557 
L 304.67908 116.464675 
L 310.3869 115.967114 
L 316.094721 110.576876 
L 321.802542 131.308562 
L 327.510363 114.059799 
L 333.218183 109.996389 
L 338.926004 117.293942 
L 344.633825 119.201257 
L 350.341646 109.001268 
L 356.049466 121.025646 
L 361.757287 112.318338 
L 367.465108 110.245169 
L 373.172929 108.172 
L 378.880749 111.986631 
L 384.58857 103.693956 
L 390.296391 110.659803 
L 396.004212 110.742729 
L 401.712032 111.157363 
L 407.419853 120.445158 
L 413.127674 113.728092 
L 418.835495 118.62077 
L 424.543315 109.250048 
L 430.251136 110.576876 
L 435.958957 119.947598 
L 441.666778 111.73785 
L 447.374598 115.469554 
L 453.082419 112.567118 
L 458.79024 106.845173 
L 464.498061 129.06954 
L 470.205881 109.913462 
L 475.913702 108.918341 
L 481.621523 111.73785 
L 487.329344 122.352474 
L 493.037165 111.157363 
L 498.744985 111.986631 
L 504.452806 107.011026 
L 510.160627 111.571997 
L 515.868448 110.576876 
L 521.576268 115.718334 
L 527.284089 107.42566 
L 532.99191 109.913462 
L 538.699731 105.684198 
L 544.407551 115.469554 
L 550.115372 113.147605 
L 555.823193 115.635407 
L 561.531014 107.591513 
L 567.238834 107.17688 
L 572.946655 116.215895 
L 578.654476 111.074436 
L 584.362297 110.162242 
L 590.070117 115.469554 
L 595.777938 110.493949 
L 601.485759 117.293942 
L 607.19358 106.430539 
L 612.9014 106.845173 
L 618.609221 109.913462 
L 624.317042 104.523224 
" clip-path="url(#p28d950665c)" style="fill: none; stroke: #008000; stroke-opacity: 0.2; stroke-linecap: round"/>
   </g>
   <g id="line2d_20">
    <path d="M 59.242787 57.0062 
L 64.950608 75.577683 
L 70.658429 87.484639 
L 76.366249 93.93269 
L 82.07407 98.432254 
L 87.781891 138.030747 
L 93.489712 148.219214 
L 99.197532 156.107196 
L 104.905353 190.371698 
L 110.613174 191.574189 
L 116.320995 202.175676 
L 122.028815 209.032106 
L 127.736636 202.243373 
L 133.444457 216.429078 
L 139.152278 234.741637 
L 144.860098 263.63763 
L 150.567919 277.607431 
L 156.27574 280.375516 
L 161.983561 280.900586 
L 167.691381 280.930912 
L 173.399202 293.661149 
L 179.107023 297.953518 
L 184.814844 308.489778 
L 190.522664 310.961886 
L 196.230485 317.701574 
L 201.938306 324.142887 
L 207.646127 324.422986 
L 213.353947 320.87058 
L 219.061768 324.90085 
L 224.769589 328.931539 
L 230.47741 339.171548 
L 236.18523 336.321655 
L 241.893051 336.144709 
L 247.600872 324.091619 
L 253.308693 322.645938 
L 259.016513 329.057669 
L 264.724334 331.128444 
L 270.432155 335.009662 
L 276.139976 333.845568 
L 281.847797 337.454302 
L 287.555617 335.855717 
L 293.263438 336.959759 
L 298.971259 339.189404 
L 304.67908 337.001187 
L 310.3869 341.354372 
L 316.094721 336.123733 
L 321.802542 345.062222 
L 327.510363 346.15942 
L 333.218183 352.076874 
L 338.926004 358.705246 
L 344.633825 355.966561 
L 350.341646 355.75475 
L 356.049466 357.664223 
L 361.757287 354.720454 
L 367.465108 354.879174 
L 373.172929 356.766725 
L 378.880749 357.605126 
L 384.58857 363.490344 
L 390.296391 369.043805 
L 396.004212 367.875148 
L 401.712032 359.161199 
L 407.419853 360.598514 
L 413.127674 359.496433 
L 418.835495 360.486526 
L 424.543315 357.833016 
L 430.251136 357.351628 
L 435.958957 360.189829 
L 441.666778 362.15453 
L 447.374598 368.689469 
L 453.082419 370.230086 
L 458.79024 373.64026 
L 464.498061 377.203108 
L 470.205881 370.76096 
L 475.913702 371.678703 
L 481.621523 373.951315 
L 487.329344 373.095074 
L 493.037165 368.366649 
L 498.744985 369.023848 
L 504.452806 368.006145 
L 510.160627 373.774541 
L 515.868448 377.074557 
L 521.576268 377.631879 
L 527.284089 373.250767 
L 532.99191 376.304839 
L 538.699731 373.384833 
L 544.407551 375.794539 
L 550.115372 382.236098 
L 555.823193 383.97241 
L 561.531014 387.388992 
L 567.238834 385.092024 
L 572.946655 388.713172 
L 578.654476 387.889975 
L 584.362297 387.199588 
L 590.070117 382.869084 
L 595.777938 378.677839 
L 601.485759 375.05697 
L 607.19358 373.587413 
L 612.9014 379.054516 
L 618.609221 375.293147 
L 624.317042 383.611243 
" clip-path="url(#p28d950665c)" style="fill: none; stroke: #7b3ab8; stroke-linecap: round"/>
   </g>
   <g id="patch_3">
    <path d="M 59.24 390.04 
L 59.24 57.0062 
" style="fill: none; stroke: #ffffff; stroke-width: 0.8; stroke-linejoin: miter; stroke-linecap: square"/>
   </g>
   <g id="patch_4">
    <path d="M 630.02765 390.04 
L 630.02765 57.0062 
" style="fill: none; stroke: #ffffff; stroke-width: 0.8; stroke-linejoin: miter; stroke-linecap: square"/>
   </g>
   <g id="patch_5">
    <path d="M 59.24 390.04 
L 630.02765 390.04 
" style="fill: none; stroke: #ffffff; stroke-width: 0.8; stroke-linejoin: miter; stroke-linecap: square"/>
   </g>
   <g id="patch_6">
    <path d="M 59.24 57.0062 
L 630.02765 57.0062 
" style="fill: none; stroke: #ffffff; stroke-width: 0.8; stroke-linejoin: miter; stroke-linecap: square"/>
   </g>
   <g id="legend_1">
    <g id="line2d_21">
     <path d="M 93.101665 41.274494 
L 101.431665 41.274494 
L 109.761665 41.274494 
" style="fill: none; stroke: #0000ff; stroke-width: 1.5; stroke-linecap: round"/>
    </g>
    <g id="text_16">
     <!-- Mean Reward -->
     <g style="fill: #262626" transform="translate(116.425665 44.189994) scale(0.0833 -0.0833)">
      <defs>
       <path id="DejaVuSans-4d" d="M 628 4666 
L 1569 4666 
L 2759 1491 
L 3956 4666 
L 4897 4666 
L 4897 0 
L 4281 0 
L 4281 4097 
L 3078 897 
L 2444 897 
L 1241 4097 
L 1241 0 
L 628 0 
L 628 4666 
z
" transform="scale(0.015625)"/>
       <path id="DejaVuSans-6e" d="M 3513 2113 
L 3513 0 
L 2938 0 
L 2938 2094 
Q 2938 2591 2744 2837 
Q 2550 3084 2163 3084 
Q 1697 3084 1428 2787 
Q 1159 2491 1159 1978 
L 1159 0 
L 581 0 
L 581 3500 
L 1159 3500 
L 1159 2956 
Q 1366 3272 1645 3428 
Q 1925 3584 2291 3584 
Q 2894 3584 3203 3211 
Q 3513 2838 3513 2113 
z
" transform="scale(0.015625)"/>
       <path id="DejaVuSans-20" transform="scale(0.015625)"/>
      </defs>
      <use xlink:href="#DejaVuSans-4d"/>
      <use xlink:href="#DejaVuSans-65" transform="translate(86.279297 0)"/>
      <use xlink:href="#DejaVuSans-61" transform="translate(147.802734 0)"/>
      <use xlink:href="#DejaVuSans-6e" transform="translate(209.082031 0)"/>
      <use xlink:href="#DejaVuSans-20" transform="translate(272.460938 0)"/>
      <use xlink:href="#DejaVuSans-52" transform="translate(304.248047 0)"/>
      <use xlink:href="#DejaVuSans-65" transform="translate(369.230469 0)"/>
      <use xlink:href="#DejaVuSans-77" transform="translate(430.753906 0)"/>
      <use xlink:href="#DejaVuSans-61" transform="translate(512.541016 0)"/>
      <use xlink:href="#DejaVuSans-72" transform="translate(573.820312 0)"/>
      <use xlink:href="#DejaVuSans-64" transform="translate(613.183594 0)"/>
     </g>
    </g>
    <g id="line2d_22">
     <path d="M 189.452433 41.274494 
L 197.782433 41.274494 
L 206.112433 41.274494 
" style="fill: none; stroke: #008000; stroke-opacity: 0.2; stroke-linecap: round"/>
    </g>
    <g id="text_17">
     <!-- Reward (individual runs) -->
     <g style="fill: #262626" transform="translate(212.776433 44.189994) scale(0.0833 -0.0833)">
      <defs>
       <path id="DejaVuSans-28" d="M 1984 4856 
Q 1566 4138 1362 3434 
Q 1159 2731 1159 2009 
Q 1159 1288 1364 580 
Q 1569 -128 1984 -844 
L 1484 -844 
Q 1016 -109 783 600 
Q 550 1309 550 2009 
Q 550 2706 781 3412 
Q 1013 4119 1484 4856 
L 1984 4856 
z
" transform="scale(0.015625)"/>
       <path id="DejaVuSans-69" d="M 603 3500 
L 1178 3500 
L 1178 0 
L 603 0 
L 603 3500 
z
M 603 4863 
L 1178 4863 
L 1178 4134 
L 603 4134 
L 603 4863 
z
" transform="scale(0.015625)"/>
       <path id="DejaVuSans-76" d="M 191 3500 
L 800 3500 
L 1894 563 
L 2988 3500 
L 3597 3500 
L 2284 0 
L 1503 0 
L 191 3500 
z
" transform="scale(0.015625)"/>
       <path id="DejaVuSans-75" d="M 544 1381 
L 544 3500 
L 1119 3500 
L 1119 1403 
Q 1119 906 1312 657 
Q 1506 409 1894 409 
Q 2359 409 2629 706 
Q 2900 1003 2900 1516 
L 2900 3500 
L 3475 3500 
L 3475 0 
L 2900 0 
L 2900 538 
Q 2691 219 2414 64 
Q 2138 -91 1772 -91 
Q 1169 -91 856 284 
Q 544 659 544 1381 
z
M 1991 3584 
L 1991 3584 
z
" transform="scale(0.015625)"/>
       <path id="DejaVuSans-6c" d="M 603 4863 
L 1178 4863 
L 1178 0 
L 603 0 
L 603 4863 
z
" transform="scale(0.015625)"/>
       <path id="DejaVuSans-29" d="M 513 4856 
L 1013 4856 
Q 1481 4119 1714 3412 
Q 1947 2706 1947 2009 
Q 1947 1309 1714 600 
Q 1481 -109 1013 -844 
L 513 -844 
Q 928 -128 1133 580 
Q 1338 1288 1338 2009 
Q 1338 2731 1133 3434 
Q 928 4138 513 4856 
z
" transform="scale(0.015625)"/>
      </defs>
      <use xlink:href="#DejaVuSans-52"/>
      <use xlink:href="#DejaVuSans-65" transform="translate(64.982422 0)"/>
      <use xlink:href="#DejaVuSans-77" transform="translate(126.505859 0)"/>
      <use xlink:href="#DejaVuSans-61" transform="translate(208.292969 0)"/>
      <use xlink:href="#DejaVuSans-72" transform="translate(269.572266 0)"/>
      <use xlink:href="#DejaVuSans-64" transform="translate(308.935547 0)"/>
      <use xlink:href="#DejaVuSans-20" transform="translate(372.412109 0)"/>
      <use xlink:href="#DejaVuSans-28" transform="translate(404.199219 0)"/>
      <use xlink:href="#DejaVuSans-69" transform="translate(443.212891 0)"/>
      <use xlink:href="#DejaVuSans-6e" transform="translate(470.996094 0)"/>
      <use xlink:href="#DejaVuSans-64" transform="translate(534.375 0)"/>
      <use xlink:href="#DejaVuSans-69" transform="translate(597.851562 0)"/>
      <use xlink:href="#DejaVuSans-76" transform="translate(625.634766 0)"/>
      <use xlink:href="#DejaVuSans-69" transform="translate(684.814453 0)"/>
      <use xlink:href="#DejaVuSans-64" transform="translate(712.597656 0)"/>
      <use xlink:href="#DejaVuSans-75" transform="translate(776.074219 0)"/>
      <use xlink:href="#DejaVuSans-61" transform="translate(839.453125 0)"/>
      <use xlink:href="#DejaVuSans-6c" transform="translate(900.732422 0)"/>
      <use xlink:href="#DejaVuSans-20" transform="translate(928.515625 0)"/>
      <use xlink:href="#DejaVuSans-72" transform="translate(960.302734 0)"/>
      <use xlink:href="#DejaVuSans-75" transform="translate(1001.416016 0)"/>
      <use xlink:href="#DejaVuSans-6e" transform="translate(1064.794922 0)"/>
      <use xlink:href="#DejaVuSans-73" transform="translate(1128.173828 0)"/>
      <use xlink:href="#DejaVuSans-29" transform="translate(1180.273438 0)"/>
     </g>
    </g>
    <g id="line2d_23">
     <path d="M 331.002561 41.274494 
L 339.332561 41.274494 
L 347.662561 41.274494 
" style="fill: none; stroke: #7b3ab8; stroke-linecap: round"/>
    </g>
    <g id="text_18">
     <!-- Entropy (normalized) -->
     <g style="fill: #262626" transform="translate(354.326561 44.189994) scale(0.0833 -0.0833)">
      <defs>
       <path id="DejaVuSans-45" d="M 628 4666 
L 3578 4666 
L 3578 4134 
L 1259 4134 
L 1259 2753 
L 3481 2753 
L 3481 2222 
L 1259 2222 
L 1259 531 
L 3634 531 
L 3634 0 
L 628 0 
L 628 4666 
z
" transform="scale(0.015625)"/>
       <path id="DejaVuSans-6f" d="M 1959 3097 
Q 1497 3097 1228 2736 
Q 959 2375 959 1747 
Q 959 1119 1226 758 
Q 1494 397 1959 397 
Q 2419 397 2687 759 
Q 2956 1122 2956 1747 
Q 2956 2369 2687 2733 
Q 2419 3097 1959 3097 
z
M 1959 3584 
Q 2709 3584 3137 3096 
Q 3566 2609 3566 1747 
Q 3566 888 3137 398 
Q 2709 -91 1959 -91 
Q 1206 -91 779 398 
Q 353 888 353 1747 
Q 353 2609 779 3096 
Q 1206 3584 1959 3584 
z
" transform="scale(0.015625)"/>
       <path id="DejaVuSans-79" d="M 2059 -325 
Q 1816 -950 1584 -1140 
Q 1353 -1331 966 -1331 
L 506 -1331 
L 506 -850 
L 844 -850 
Q 1081 -850 1212 -737 
Q 1344 -625 1503 -206 
L 1606 56 
L 191 3500 
L 800 3500 
L 1894 763 
L 2988 3500 
L 3597 3500 
L 2059 -325 
z
" transform="scale(0.015625)"/>
       <path id="DejaVuSans-6d" d="M 3328 2828 
Q 3544 3216 3844 3400 
Q 4144 3584 4550 3584 
Q 5097 3584 5394 3201 
Q 5691 2819 5691 2113 
L 5691 0 
L 5113 0 
L 5113 2094 
Q 5113 2597 4934 2840 
Q 4756 3084 4391 3084 
Q 3944 3084 3684 2787 
Q 3425 2491 3425 1978 
L 3425 0 
L 2847 0 
L 2847 2094 
Q 2847 2600 2669 2842 
Q 2491 3084 2119 3084 
Q 1678 3084 1418 2786 
Q 1159 2488 1159 1978 
L 1159 0 
L 581 0 
L 581 3500 
L 1159 3500 
L 1159 2956 
Q 1356 3278 1631 3431 
Q 1906 3584 2284 3584 
Q 2666 3584 2933 3390 
Q 3200 3197 3328 2828 
z
" transform="scale(0.015625)"/>
       <path id="DejaVuSans-7a" d="M 353 3500 
L 3084 3500 
L 3084 2975 
L 922 459 
L 3084 459 
L 3084 0 
L 275 0 
L 275 525 
L 2438 3041 
L 353 3041 
L 353 3500 
z
" transform="scale(0.015625)"/>
      </defs>
      <use xlink:href="#DejaVuSans-45"/>
      <use xlink:href="#DejaVuSans-6e" transform="translate(63.183594 0)"/>
      <use xlink:href="#DejaVuSans-74" transform="translate(126.5625 0)"/>
      <use xlink:href="#DejaVuSans-72" transform="translate(165.771484 0)"/>
      <use xlink:href="#DejaVuSans-6f" transform="translate(204.634766 0)"/>
      <use xlink:href="#DejaVuSans-70" transform="translate(265.816406 0)"/>
      <use xlink:href="#DejaVuSans-79" transform="translate(329.292969 0)"/>
      <use xlink:href="#DejaVuSans-20" transform="translate(388.472656 0)"/>
      <use xlink:href="#DejaVuSans-28" transform="translate(420.259766 0)"/>
      <use xlink:href="#DejaVuSans-6e" transform="translate(459.273438 0)"/>
      <use xlink:href="#DejaVuSans-6f" transform="translate(522.652344 0)"/>
      <use xlink:href="#DejaVuSans-72" transform="translate(583.833984 0)"/>
      <use xlink:href="#DejaVuSans-6d" transform="translate(623.197266 0)"/>
      <use xlink:href="#DejaVuSans-61" transform="translate(720.609375 0)"/>
      <use xlink:href="#DejaVuSans-6c" transform="translate(781.888672 0)"/>
      <use xlink:href="#DejaVuSans-69" transform="translate(809.671875 0)"/>
      <use xlink:href="#DejaVuSans-7a" transform="translate(837.455078 0)"/>
      <use xlink:href="#DejaVuSans-65" transform="translate(889.945312 0)"/>
      <use xlink:href="#DejaVuSans-64" transform="translate(951.46875 0)"/>
      <use xlink:href="#DejaVuSans-29" transform="translate(1014.945312 0)"/>
     </g>
    </g>
    <g id="patch_7">
     <path d="M 458.782158 44.189994 
L 475.442158 44.189994 
L 475.442158 38.358994 
L 458.782158 38.358994 
z
" style="fill: #0000ff; fill-opacity: 0.1"/>
    </g>
    <g id="text_19">
     <!-- Reward Standard Deviation -->
     <g style="fill: #262626" transform="translate(482.106158 44.189994) scale(0.0833 -0.0833)">
      <defs>
       <path id="DejaVuSans-44" d="M 1259 4147 
L 1259 519 
L 2022 519 
Q 2988 519 3436 956 
Q 3884 1394 3884 2338 
Q 3884 3275 3436 3711 
Q 2988 4147 2022 4147 
L 1259 4147 
z
M 628 4666 
L 1925 4666 
Q 3281 4666 3915 4102 
Q 4550 3538 4550 2338 
Q 4550 1131 3912 565 
Q 3275 0 1925 0 
L 628 0 
L 628 4666 
z
" transform="scale(0.015625)"/>
      </defs>
      <use xlink:href="#DejaVuSans-52"/>
      <use xlink:href="#DejaVuSans-65" transform="translate(64.982422 0)"/>
      <use xlink:href="#DejaVuSans-77" transform="translate(126.505859 0)"/>
      <use xlink:href="#DejaVuSans-61" transform="translate(208.292969 0)"/>
      <use xlink:href="#DejaVuSans-72" transform="translate(269.572266 0)"/>
      <use xlink:href="#DejaVuSans-64" transform="translate(308.935547 0)"/>
      <use xlink:href="#DejaVuSans-20" transform="translate(372.412109 0)"/>
      <use xlink:href="#DejaVuSans-53" transform="translate(404.199219 0)"/>
      <use xlink:href="#DejaVuSans-74" transform="translate(467.675781 0)"/>
      <use xlink:href="#DejaVuSans-61" transform="translate(506.884766 0)"/>
      <use xlink:href="#DejaVuSans-6e" transform="translate(568.164062 0)"/>
      <use xlink:href="#DejaVuSans-64" transform="translate(631.542969 0)"/>
      <use xlink:href="#DejaVuSans-61" transform="translate(695.019531 0)"/>
      <use xlink:href="#DejaVuSans-72" transform="translate(756.298828 0)"/>
      <use xlink:href="#DejaVuSans-64" transform="translate(795.662109 0)"/>
      <use xlink:href="#DejaVuSans-20" transform="translate(859.138672 0)"/>
      <use xlink:href="#DejaVuSans-44" transform="translate(890.925781 0)"/>
      <use xlink:href="#DejaVuSans-65" transform="translate(967.927734 0)"/>
      <use xlink:href="#DejaVuSans-76" transform="translate(1029.451172 0)"/>
      <use xlink:href="#DejaVuSans-69" transform="translate(1088.630859 0)"/>
      <use xlink:href="#DejaVuSans-61" transform="translate(1116.414062 0)"/>
      <use xlink:href="#DejaVuSans-74" transform="translate(1177.693359 0)"/>
      <use xlink:href="#DejaVuSans-69" transform="translate(1216.902344 0)"/>
      <use xlink:href="#DejaVuSans-6f" transform="translate(1244.685547 0)"/>
      <use xlink:href="#DejaVuSans-6e" transform="translate(1305.867188 0)"/>
     </g>
    </g>
   </g>
  </g>
  <g id="text_20">
   <!-- Rewards: Acrobot-v1 | CMU-Net (Alignment + Penalty + Margin) -->
   <g style="fill: #262626" transform="translate(107.205938 17.810625) scale(0.12 -0.12)">
    <defs>
     <path id="DejaVuSans-Bold-52" d="M 2297 2597 
Q 2675 2597 2839 2737 
Q 3003 2878 3003 3200 
Q 3003 3519 2839 3656 
Q 2675 3794 2297 3794 
L 1791 3794 
L 1791 2597 
L 2297 2597 
z
M 1791 1766 
L 1791 0 
L 588 0 
L 588 4666 
L 2425 4666 
Q 3347 4666 3776 4356 
Q 4206 4047 4206 3378 
Q 4206 2916 3982 2619 
Q 3759 2322 3309 2181 
Q 3556 2125 3751 1926 
Q 3947 1728 4147 1325 
L 4800 0 
L 3519 0 
L 2950 1159 
Q 2778 1509 2601 1637 
Q 2425 1766 2131 1766 
L 1791 1766 
z
" transform="scale(0.015625)"/>
     <path id="DejaVuSans-Bold-65" d="M 4031 1759 
L 4031 1441 
L 1416 1441 
Q 1456 1047 1700 850 
Q 1944 653 2381 653 
Q 2734 653 3104 758 
Q 3475 863 3866 1075 
L 3866 213 
Q 3469 63 3072 -14 
Q 2675 -91 2278 -91 
Q 1328 -91 801 392 
Q 275 875 275 1747 
Q 275 2603 792 3093 
Q 1309 3584 2216 3584 
Q 3041 3584 3536 3087 
Q 4031 2591 4031 1759 
z
M 2881 2131 
Q 2881 2450 2695 2645 
Q 2509 2841 2209 2841 
Q 1884 2841 1681 2658 
Q 1478 2475 1428 2131 
L 2881 2131 
z
" transform="scale(0.015625)"/>
     <path id="DejaVuSans-Bold-77" d="M 225 3500 
L 1313 3500 
L 1900 1088 
L 2491 3500 
L 3425 3500 
L 4013 1113 
L 4603 3500 
L 5691 3500 
L 4769 0 
L 3547 0 
L 2956 2406 
L 2369 0 
L 1147 0 
L 225 3500 
z
" transform="scale(0.015625)"/>
     <path id="DejaVuSans-Bold-61" d="M 2106 1575 
Q 1756 1575 1579 1456 
Q 1403 1338 1403 1106 
Q 1403 894 1545 773 
Q 1688 653 1941 653 
Q 2256 653 2472 879 
Q 2688 1106 2688 1447 
L 2688 1575 
L 2106 1575 
z
M 3816 1997 
L 3816 0 
L 2688 0 
L 2688 519 
Q 2463 200 2181 54 
Q 1900 -91 1497 -91 
Q 953 -91 614 226 
Q 275 544 275 1050 
Q 275 1666 698 1953 
Q 1122 2241 2028 2241 
L 2688 2241 
L 2688 2328 
Q 2688 2594 2478 2717 
Q 2269 2841 1825 2841 
Q 1466 2841 1156 2769 
Q 847 2697 581 2553 
L 581 3406 
Q 941 3494 1303 3539 
Q 1666 3584 2028 3584 
Q 2975 3584 3395 3211 
Q 3816 2838 3816 1997 
z
" transform="scale(0.015625)"/>
     <path id="DejaVuSans-Bold-72" d="M 3138 2547 
Q 2991 2616 2845 2648 
Q 2700 2681 2553 2681 
Q 2122 2681 1889 2404 
Q 1656 2128 1656 1613 
L 1656 0 
L 538 0 
L 538 3500 
L 1656 3500 
L 1656 2925 
Q 1872 3269 2151 3426 
Q 2431 3584 2822 3584 
Q 2878 3584 2943 3579 
Q 3009 3575 3134 3559 
L 3138 2547 
z
" transform="scale(0.015625)"/>
     <path id="DejaVuSans-Bold-64" d="M 2919 2988 
L 2919 4863 
L 4044 4863 
L 4044 0 
L 2919 0 
L 2919 506 
Q 2688 197 2409 53 
Q 2131 -91 1766 -91 
Q 1119 -91 703 423 
Q 288 938 288 1747 
Q 288 2556 703 3070 
Q 1119 3584 1766 3584 
Q 2128 3584 2408 3439 
Q 2688 3294 2919 2988 
z
M 2181 722 
Q 2541 722 2730 984 
Q 2919 1247 2919 1747 
Q 2919 2247 2730 2509 
Q 2541 2772 2181 2772 
Q 1825 2772 1636 2509 
Q 1447 2247 1447 1747 
Q 1447 1247 1636 984 
Q 1825 722 2181 722 
z
" transform="scale(0.015625)"/>
     <path id="DejaVuSans-Bold-73" d="M 3272 3391 
L 3272 2541 
Q 2913 2691 2578 2766 
Q 2244 2841 1947 2841 
Q 1628 2841 1473 2761 
Q 1319 2681 1319 2516 
Q 1319 2381 1436 2309 
Q 1553 2238 1856 2203 
L 2053 2175 
Q 2913 2066 3209 1816 
Q 3506 1566 3506 1031 
Q 3506 472 3093 190 
Q 2681 -91 1863 -91 
Q 1516 -91 1145 -36 
Q 775 19 384 128 
L 384 978 
Q 719 816 1070 734 
Q 1422 653 1784 653 
Q 2113 653 2278 743 
Q 2444 834 2444 1013 
Q 2444 1163 2330 1236 
Q 2216 1309 1875 1350 
L 1678 1375 
Q 931 1469 631 1722 
Q 331 1975 331 2491 
Q 331 3047 712 3315 
Q 1094 3584 1881 3584 
Q 2191 3584 2531 3537 
Q 2872 3491 3272 3391 
z
" transform="scale(0.015625)"/>
     <path id="DejaVuSans-Bold-3a" d="M 716 3500 
L 1844 3500 
L 1844 2291 
L 716 2291 
L 716 3500 
z
M 716 1209 
L 1844 1209 
L 1844 0 
L 716 0 
L 716 1209 
z
" transform="scale(0.015625)"/>
     <path id="DejaVuSans-Bold-20" transform="scale(0.015625)"/>
     <path id="DejaVuSans-Bold-41" d="M 3419 850 
L 1538 850 
L 1241 0 
L 31 0 
L 1759 4666 
L 3194 4666 
L 4922 0 
L 3713 0 
L 3419 850 
z
M 1838 1716 
L 3116 1716 
L 2478 3572 
L 1838 1716 
z
" transform="scale(0.015625)"/>
     <path id="DejaVuSans-Bold-63" d="M 3366 3391 
L 3366 2478 
Q 3138 2634 2908 2709 
Q 2678 2784 2431 2784 
Q 1963 2784 1702 2511 
Q 1441 2238 1441 1747 
Q 1441 1256 1702 982 
Q 1963 709 2431 709 
Q 2694 709 2930 787 
Q 3166 866 3366 1019 
L 3366 103 
Q 3103 6 2833 -42 
Q 2563 -91 2291 -91 
Q 1344 -91 809 395 
Q 275 881 275 1747 
Q 275 2613 809 3098 
Q 1344 3584 2291 3584 
Q 2566 3584 2833 3536 
Q 3100 3488 3366 3391 
z
" transform="scale(0.015625)"/>
     <path id="DejaVuSans-Bold-6f" d="M 2203 2784 
Q 1831 2784 1636 2517 
Q 1441 2250 1441 1747 
Q 1441 1244 1636 976 
Q 1831 709 2203 709 
Q 2569 709 2762 976 
Q 2956 1244 2956 1747 
Q 2956 2250 2762 2517 
Q 2569 2784 2203 2784 
z
M 2203 3584 
Q 3106 3584 3614 3096 
Q 4122 2609 4122 1747 
Q 4122 884 3614 396 
Q 3106 -91 2203 -91 
Q 1297 -91 786 396 
Q 275 884 275 1747 
Q 275 2609 786 3096 
Q 1297 3584 2203 3584 
z
" transform="scale(0.015625)"/>
     <path id="DejaVuSans-Bold-62" d="M 2400 722 
Q 2759 722 2948 984 
Q 3138 1247 3138 1747 
Q 3138 2247 2948 2509 
Q 2759 2772 2400 2772 
Q 2041 2772 1848 2508 
Q 1656 2244 1656 1747 
Q 1656 1250 1848 986 
Q 2041 722 2400 722 
z
M 1656 2988 
Q 1888 3294 2169 3439 
Q 2450 3584 2816 3584 
Q 3463 3584 3878 3070 
Q 4294 2556 4294 1747 
Q 4294 938 3878 423 
Q 3463 -91 2816 -91 
Q 2450 -91 2169 54 
Q 1888 200 1656 506 
L 1656 0 
L 538 0 
L 538 4863 
L 1656 4863 
L 1656 2988 
z
" transform="scale(0.015625)"/>
     <path id="DejaVuSans-Bold-74" d="M 1759 4494 
L 1759 3500 
L 2913 3500 
L 2913 2700 
L 1759 2700 
L 1759 1216 
Q 1759 972 1856 886 
Q 1953 800 2241 800 
L 2816 800 
L 2816 0 
L 1856 0 
Q 1194 0 917 276 
Q 641 553 641 1216 
L 641 2700 
L 84 2700 
L 84 3500 
L 641 3500 
L 641 4494 
L 1759 4494 
z
" transform="scale(0.015625)"/>
     <path id="DejaVuSans-Bold-2d" d="M 347 2297 
L 2309 2297 
L 2309 1388 
L 347 1388 
L 347 2297 
z
" transform="scale(0.015625)"/>
     <path id="DejaVuSans-Bold-76" d="M 97 3500 
L 1216 3500 
L 2088 1081 
L 2956 3500 
L 4078 3500 
L 2700 0 
L 1472 0 
L 97 3500 
z
" transform="scale(0.015625)"/>
     <path id="DejaVuSans-Bold-31" d="M 750 831 
L 1813 831 
L 1813 3847 
L 722 3622 
L 722 4441 
L 1806 4666 
L 2950 4666 
L 2950 831 
L 4013 831 
L 4013 0 
L 750 0 
L 750 831 
z
" transform="scale(0.015625)"/>
     <path id="DejaVuSans-Bold-7c" d="M 1522 4891 
L 1522 -1509 
L 813 -1509 
L 813 4891 
L 1522 4891 
z
" transform="scale(0.015625)"/>
     <path id="DejaVuSans-Bold-43" d="M 4288 256 
Q 3956 84 3597 -3 
Q 3238 -91 2847 -91 
Q 1681 -91 1000 561 
Q 319 1213 319 2328 
Q 319 3447 1000 4098 
Q 1681 4750 2847 4750 
Q 3238 4750 3597 4662 
Q 3956 4575 4288 4403 
L 4288 3438 
Q 3953 3666 3628 3772 
Q 3303 3878 2944 3878 
Q 2300 3878 1931 3465 
Q 1563 3053 1563 2328 
Q 1563 1606 1931 1193 
Q 2300 781 2944 781 
Q 3303 781 3628 887 
Q 3953 994 4288 1222 
L 4288 256 
z
" transform="scale(0.015625)"/>
     <path id="DejaVuSans-Bold-4d" d="M 588 4666 
L 2119 4666 
L 3181 2169 
L 4250 4666 
L 5778 4666 
L 5778 0 
L 4641 0 
L 4641 3413 
L 3566 897 
L 2803 897 
L 1728 3413 
L 1728 0 
L 588 0 
L 588 4666 
z
" transform="scale(0.015625)"/>
     <path id="DejaVuSans-Bold-55" d="M 588 4666 
L 1791 4666 
L 1791 1869 
Q 1791 1291 1980 1042 
Q 2169 794 2597 794 
Q 3028 794 3217 1042 
Q 3406 1291 3406 1869 
L 3406 4666 
L 4609 4666 
L 4609 1869 
Q 4609 878 4112 393 
Q 3616 -91 2597 -91 
Q 1581 -91 1084 393 
Q 588 878 588 1869 
L 588 4666 
z
" transform="scale(0.015625)"/>
     <path id="DejaVuSans-Bold-4e" d="M 588 4666 
L 1931 4666 
L 3628 1466 
L 3628 4666 
L 4769 4666 
L 4769 0 
L 3425 0 
L 1728 3200 
L 1728 0 
L 588 0 
L 588 4666 
z
" transform="scale(0.015625)"/>
     <path id="DejaVuSans-Bold-28" d="M 2413 -844 
L 1484 -844 
Q 1006 -72 778 623 
Q 550 1319 550 2003 
Q 550 2688 779 3389 
Q 1009 4091 1484 4856 
L 2413 4856 
Q 2013 4116 1813 3408 
Q 1613 2700 1613 2009 
Q 1613 1319 1811 609 
Q 2009 -100 2413 -844 
z
" transform="scale(0.015625)"/>
     <path id="DejaVuSans-Bold-6c" d="M 538 4863 
L 1656 4863 
L 1656 0 
L 538 0 
L 538 4863 
z
" transform="scale(0.015625)"/>
     <path id="DejaVuSans-Bold-69" d="M 538 3500 
L 1656 3500 
L 1656 0 
L 538 0 
L 538 3500 
z
M 538 4863 
L 1656 4863 
L 1656 3950 
L 538 3950 
L 538 4863 
z
" transform="scale(0.015625)"/>
     <path id="DejaVuSans-Bold-67" d="M 2919 594 
Q 2688 288 2409 144 
Q 2131 0 1766 0 
Q 1125 0 706 504 
Q 288 1009 288 1791 
Q 288 2575 706 3076 
Q 1125 3578 1766 3578 
Q 2131 3578 2409 3434 
Q 2688 3291 2919 2981 
L 2919 3500 
L 4044 3500 
L 4044 353 
Q 4044 -491 3511 -936 
Q 2978 -1381 1966 -1381 
Q 1638 -1381 1331 -1331 
Q 1025 -1281 716 -1178 
L 716 -306 
Q 1009 -475 1290 -558 
Q 1572 -641 1856 -641 
Q 2406 -641 2662 -400 
Q 2919 -159 2919 353 
L 2919 594 
z
M 2181 2772 
Q 1834 2772 1640 2515 
Q 1447 2259 1447 1791 
Q 1447 1309 1634 1061 
Q 1822 813 2181 813 
Q 2531 813 2725 1069 
Q 2919 1325 2919 1791 
Q 2919 2259 2725 2515 
Q 2531 2772 2181 2772 
z
" transform="scale(0.015625)"/>
     <path id="DejaVuSans-Bold-6e" d="M 4056 2131 
L 4056 0 
L 2931 0 
L 2931 347 
L 2931 1631 
Q 2931 2084 2911 2256 
Q 2891 2428 2841 2509 
Q 2775 2619 2662 2680 
Q 2550 2741 2406 2741 
Q 2056 2741 1856 2470 
Q 1656 2200 1656 1722 
L 1656 0 
L 538 0 
L 538 3500 
L 1656 3500 
L 1656 2988 
Q 1909 3294 2193 3439 
Q 2478 3584 2822 3584 
Q 3428 3584 3742 3212 
Q 4056 2841 4056 2131 
z
" transform="scale(0.015625)"/>
     <path id="DejaVuSans-Bold-6d" d="M 3781 2919 
Q 3994 3244 4286 3414 
Q 4578 3584 4928 3584 
Q 5531 3584 5847 3212 
Q 6163 2841 6163 2131 
L 6163 0 
L 5038 0 
L 5038 1825 
Q 5041 1866 5042 1909 
Q 5044 1953 5044 2034 
Q 5044 2406 4934 2573 
Q 4825 2741 4581 2741 
Q 4263 2741 4089 2478 
Q 3916 2216 3909 1719 
L 3909 0 
L 2784 0 
L 2784 1825 
Q 2784 2406 2684 2573 
Q 2584 2741 2328 2741 
Q 2006 2741 1831 2477 
Q 1656 2213 1656 1722 
L 1656 0 
L 531 0 
L 531 3500 
L 1656 3500 
L 1656 2988 
Q 1863 3284 2130 3434 
Q 2397 3584 2719 3584 
Q 3081 3584 3359 3409 
Q 3638 3234 3781 2919 
z
" transform="scale(0.015625)"/>
     <path id="DejaVuSans-Bold-2b" d="M 3053 4013 
L 3053 2375 
L 4684 2375 
L 4684 1638 
L 3053 1638 
L 3053 0 
L 2309 0 
L 2309 1638 
L 678 1638 
L 678 2375 
L 2309 2375 
L 2309 4013 
L 3053 4013 
z
" transform="scale(0.015625)"/>
     <path id="DejaVuSans-Bold-50" d="M 588 4666 
L 2584 4666 
Q 3475 4666 3951 4270 
Q 4428 3875 4428 3144 
Q 4428 2409 3951 2014 
Q 3475 1619 2584 1619 
L 1791 1619 
L 1791 0 
L 588 0 
L 588 4666 
z
M 1791 3794 
L 1791 2491 
L 2456 2491 
Q 2806 2491 2997 2661 
Q 3188 2831 3188 3144 
Q 3188 3456 2997 3625 
Q 2806 3794 2456 3794 
L 1791 3794 
z
" transform="scale(0.015625)"/>
     <path id="DejaVuSans-Bold-79" d="M 78 3500 
L 1197 3500 
L 2138 1125 
L 2938 3500 
L 4056 3500 
L 2584 -331 
Q 2363 -916 2067 -1148 
Q 1772 -1381 1288 -1381 
L 641 -1381 
L 641 -647 
L 991 -647 
Q 1275 -647 1404 -556 
Q 1534 -466 1606 -231 
L 1638 -134 
L 78 3500 
z
" transform="scale(0.015625)"/>
     <path id="DejaVuSans-Bold-29" d="M 513 -844 
Q 913 -100 1113 609 
Q 1313 1319 1313 2009 
Q 1313 2700 1113 3408 
Q 913 4116 513 4856 
L 1441 4856 
Q 1916 4091 2145 3389 
Q 2375 2688 2375 2003 
Q 2375 1319 2147 623 
Q 1919 -72 1441 -844 
L 513 -844 
z
" transform="scale(0.015625)"/>
    </defs>
    <use xlink:href="#DejaVuSans-Bold-52"/>
    <use xlink:href="#DejaVuSans-Bold-65" transform="translate(77.001953 0)"/>
    <use xlink:href="#DejaVuSans-Bold-77" transform="translate(144.824219 0)"/>
    <use xlink:href="#DejaVuSans-Bold-61" transform="translate(237.207031 0)"/>
    <use xlink:href="#DejaVuSans-Bold-72" transform="translate(304.6875 0)"/>
    <use xlink:href="#DejaVuSans-Bold-64" transform="translate(354.003906 0)"/>
    <use xlink:href="#DejaVuSans-Bold-73" transform="translate(425.585938 0)"/>
    <use xlink:href="#DejaVuSans-Bold-3a" transform="translate(485.107422 0)"/>
    <use xlink:href="#DejaVuSans-Bold-20" transform="translate(525.097656 0)"/>
    <use xlink:href="#DejaVuSans-Bold-41" transform="translate(559.912109 0)"/>
    <use xlink:href="#DejaVuSans-Bold-63" transform="translate(637.304688 0)"/>
    <use xlink:href="#DejaVuSans-Bold-72" transform="translate(696.582031 0)"/>
    <use xlink:href="#DejaVuSans-Bold-6f" transform="translate(745.898438 0)"/>
    <use xlink:href="#DejaVuSans-Bold-62" transform="translate(814.599609 0)"/>
    <use xlink:href="#DejaVuSans-Bold-6f" transform="translate(886.181641 0)"/>
    <use xlink:href="#DejaVuSans-Bold-74" transform="translate(954.882812 0)"/>
    <use xlink:href="#DejaVuSans-Bold-2d" transform="translate(1002.685547 0)"/>
    <use xlink:href="#DejaVuSans-Bold-76" transform="translate(1044.189453 0)"/>
    <use xlink:href="#DejaVuSans-Bold-31" transform="translate(1109.375 0)"/>
    <use xlink:href="#DejaVuSans-Bold-20" transform="translate(1178.955078 0)"/>
    <use xlink:href="#DejaVuSans-Bold-7c" transform="translate(1213.769531 0)"/>
    <use xlink:href="#DejaVuSans-Bold-20" transform="translate(1250.292969 0)"/>
    <use xlink:href="#DejaVuSans-Bold-43" transform="translate(1285.107422 0)"/>
    <use xlink:href="#DejaVuSans-Bold-4d" transform="translate(1358.496094 0)"/>
    <use xlink:href="#DejaVuSans-Bold-55" transform="translate(1458.007812 0)"/>
    <use xlink:href="#DejaVuSans-Bold-2d" transform="translate(1539.208984 0)"/>
    <use xlink:href="#DejaVuSans-Bold-4e" transform="translate(1580.712891 0)"/>
    <use xlink:href="#DejaVuSans-Bold-65" transform="translate(1664.404297 0)"/>
    <use xlink:href="#DejaVuSans-Bold-74" transform="translate(1732.226562 0)"/>
    <use xlink:href="#DejaVuSans-Bold-20" transform="translate(1780.029297 0)"/>
    <use xlink:href="#DejaVuSans-Bold-28" transform="translate(1814.84375 0)"/>
    <use xlink:href="#DejaVuSans-Bold-41" transform="translate(1860.546875 0)"/>
    <use xlink:href="#DejaVuSans-Bold-6c" transform="translate(1937.939453 0)"/>
    <use xlink:href="#DejaVuSans-Bold-69" transform="translate(1972.216797 0)"/>
    <use xlink:href="#DejaVuSans-Bold-67" transform="translate(2006.494141 0)"/>
    <use xlink:href="#DejaVuSans-Bold-6e" transform="translate(2078.076172 0)"/>
    <use xlink:href="#DejaVuSans-Bold-6d" transform="translate(2149.267578 0)"/>
    <use xlink:href="#DejaVuSans-Bold-65" transform="translate(2253.466797 0)"/>
    <use xlink:href="#DejaVuSans-Bold-6e" transform="translate(2321.289062 0)"/>
    <use xlink:href="#DejaVuSans-Bold-74" transform="translate(2392.480469 0)"/>
    <use xlink:href="#DejaVuSans-Bold-20" transform="translate(2440.283203 0)"/>
    <use xlink:href="#DejaVuSans-Bold-2b" transform="translate(2475.097656 0)"/>
    <use xlink:href="#DejaVuSans-Bold-20" transform="translate(2558.886719 0)"/>
    <use xlink:href="#DejaVuSans-Bold-50" transform="translate(2593.701172 0)"/>
    <use xlink:href="#DejaVuSans-Bold-65" transform="translate(2666.992188 0)"/>
    <use xlink:href="#DejaVuSans-Bold-6e" transform="translate(2734.814453 0)"/>
    <use xlink:href="#DejaVuSans-Bold-61" transform="translate(2806.005859 0)"/>
    <use xlink:href="#DejaVuSans-Bold-6c" transform="translate(2873.486328 0)"/>
    <use xlink:href="#DejaVuSans-Bold-74" transform="translate(2907.763672 0)"/>
    <use xlink:href="#DejaVuSans-Bold-79" transform="translate(2955.566406 0)"/>
    <use xlink:href="#DejaVuSans-Bold-20" transform="translate(3020.751953 0)"/>
    <use xlink:href="#DejaVuSans-Bold-2b" transform="translate(3055.566406 0)"/>
    <use xlink:href="#DejaVuSans-Bold-20" transform="translate(3139.355469 0)"/>
    <use xlink:href="#DejaVuSans-Bold-4d" transform="translate(3174.169922 0)"/>
    <use xlink:href="#DejaVuSans-Bold-61" transform="translate(3273.681641 0)"/>
    <use xlink:href="#DejaVuSans-Bold-72" transform="translate(3341.162109 0)"/>
    <use xlink:href="#DejaVuSans-Bold-67" transform="translate(3390.478516 0)"/>
    <use xlink:href="#DejaVuSans-Bold-69" transform="translate(3462.060547 0)"/>
    <use xlink:href="#DejaVuSans-Bold-6e" transform="translate(3496.337891 0)"/>
    <use xlink:href="#DejaVuSans-Bold-29" transform="translate(3567.529297 0)"/>
   </g>
  </g>
 </g>
 <defs>
  <clipPath id="p28d950665c">
   <rect x="59.24" y="57.0062" width="570.78765" height="333.0338"/>
  </clipPath>
 </defs>
</svg>
