<?xml version="1.0" encoding="utf-8" standalone="no"?>
<!DOCTYPE svg PUBLIC "-//W3C//DTD SVG 1.1//EN"
  "http://www.w3.org/Graphics/SVG/1.1/DTD/svg11.dtd">
<svg xmlns:xlink="http://www.w3.org/1999/xlink" width="648pt" height="432pt" viewBox="0 0 648 432" xmlns="http://www.w3.org/2000/svg" version="1.1">
 <metadata>
  <rdf:RDF xmlns:dc="http://purl.org/dc/elements/1.1/" xmlns:cc="http://creativecommons.org/ns#" xmlns:rdf="http://www.w3.org/1999/02/22-rdf-syntax-ns#">
   <cc:Work>
    <dc:type rdf:resource="http://purl.org/dc/dcmitype/StillImage"/>
    <dc:date>2025-07-31T00:18:57.939234</dc:date>
    <dc:format>image/svg+xml</dc:format>
    <dc:creator>
     <cc:Agent>
      <dc:title>Matplotlib v3.10.0, https://matplotlib.org/</dc:title>
     </cc:Agent>
    </dc:creator>
   </cc:Work>
  </rdf:RDF>
 </metadata>
 <defs>
  <style type="text/css">*{stroke-linejoin: round; stroke-linecap: butt}</style>
 </defs>
 <g id="figure_1">
  <g id="patch_1">
   <path d="M 0 432 
L 648 432 
L 648 0 
L 0 0 
z
" style="fill: #ffffff"/>
  </g>
  <g id="axes_1">
   <g id="patch_2">
    <path d="M 50.87 390.04 
L 626.58 390.04 
L 626.58 63.659 
L 50.87 63.659 
z
" style="fill: #eaeaf2"/>
   </g>
   <g id="matplotlib.axis_1">
    <g id="xtick_1">
     <g id="line2d_1">
      <path d="M 50.872811 390.04 
L 50.872811 63.659 
" clip-path="url(#p3440e26cae)" style="fill: none; stroke: #ffffff; stroke-width: 0.8; stroke-linecap: round"/>
     </g>
     <g id="text_1">
      <!-- 0 -->
      <g style="fill: #262626" transform="translate(47.691561 404.638438) scale(0.1 -0.1)">
       <defs>
        <path id="DejaVuSans-30" d="M 2034 4250 
Q 1547 4250 1301 3770 
Q 1056 3291 1056 2328 
Q 1056 1369 1301 889 
Q 1547 409 2034 409 
Q 2525 409 2770 889 
Q 3016 1369 3016 2328 
Q 3016 3291 2770 3770 
Q 2525 4250 2034 4250 
z
M 2034 4750 
Q 2819 4750 3233 4129 
Q 3647 3509 3647 2328 
Q 3647 1150 3233 529 
Q 2819 -91 2034 -91 
Q 1250 -91 836 529 
Q 422 1150 422 2328 
Q 422 3509 836 4129 
Q 1250 4750 2034 4750 
z
" transform="scale(0.015625)"/>
       </defs>
       <use xlink:href="#DejaVuSans-30"/>
      </g>
     </g>
    </g>
    <g id="xtick_2">
     <g id="line2d_2">
      <path d="M 144.574695 390.04 
L 144.574695 63.659 
" clip-path="url(#p3440e26cae)" style="fill: none; stroke: #ffffff; stroke-width: 0.8; stroke-linecap: round"/>
     </g>
     <g id="text_2">
      <!-- 100000 -->
      <g style="fill: #262626" transform="translate(125.487195 404.638438) scale(0.1 -0.1)">
       <defs>
        <path id="DejaVuSans-31" d="M 794 531 
L 1825 531 
L 1825 4091 
L 703 3866 
L 703 4441 
L 1819 4666 
L 2450 4666 
L 2450 531 
L 3481 531 
L 3481 0 
L 794 0 
L 794 531 
z
" transform="scale(0.015625)"/>
       </defs>
       <use xlink:href="#DejaVuSans-31"/>
       <use xlink:href="#DejaVuSans-30" transform="translate(63.623047 0)"/>
       <use xlink:href="#DejaVuSans-30" transform="translate(127.246094 0)"/>
       <use xlink:href="#DejaVuSans-30" transform="translate(190.869141 0)"/>
       <use xlink:href="#DejaVuSans-30" transform="translate(254.492188 0)"/>
       <use xlink:href="#DejaVuSans-30" transform="translate(318.115234 0)"/>
      </g>
     </g>
    </g>
    <g id="xtick_3">
     <g id="line2d_3">
      <path d="M 238.27658 390.04 
L 238.27658 63.659 
" clip-path="url(#p3440e26cae)" style="fill: none; stroke: #ffffff; stroke-width: 0.8; stroke-linecap: round"/>
     </g>
     <g id="text_3">
      <!-- 200000 -->
      <g style="fill: #262626" transform="translate(219.18908 404.638438) scale(0.1 -0.1)">
       <defs>
        <path id="DejaVuSans-32" d="M 1228 531 
L 3431 531 
L 3431 0 
L 469 0 
L 469 531 
Q 828 903 1448 1529 
Q 2069 2156 2228 2338 
Q 2531 2678 2651 2914 
Q 2772 3150 2772 3378 
Q 2772 3750 2511 3984 
Q 2250 4219 1831 4219 
Q 1534 4219 1204 4116 
Q 875 4013 500 3803 
L 500 4441 
Q 881 4594 1212 4672 
Q 1544 4750 1819 4750 
Q 2544 4750 2975 4387 
Q 3406 4025 3406 3419 
Q 3406 3131 3298 2873 
Q 3191 2616 2906 2266 
Q 2828 2175 2409 1742 
Q 1991 1309 1228 531 
z
" transform="scale(0.015625)"/>
       </defs>
       <use xlink:href="#DejaVuSans-32"/>
       <use xlink:href="#DejaVuSans-30" transform="translate(63.623047 0)"/>
       <use xlink:href="#DejaVuSans-30" transform="translate(127.246094 0)"/>
       <use xlink:href="#DejaVuSans-30" transform="translate(190.869141 0)"/>
       <use xlink:href="#DejaVuSans-30" transform="translate(254.492188 0)"/>
       <use xlink:href="#DejaVuSans-30" transform="translate(318.115234 0)"/>
      </g>
     </g>
    </g>
    <g id="xtick_4">
     <g id="line2d_4">
      <path d="M 331.978464 390.04 
L 331.978464 63.659 
" clip-path="url(#p3440e26cae)" style="fill: none; stroke: #ffffff; stroke-width: 0.8; stroke-linecap: round"/>
     </g>
     <g id="text_4">
      <!-- 300000 -->
      <g style="fill: #262626" transform="translate(312.890964 404.638438) scale(0.1 -0.1)">
       <defs>
        <path id="DejaVuSans-33" d="M 2597 2516 
Q 3050 2419 3304 2112 
Q 3559 1806 3559 1356 
Q 3559 666 3084 287 
Q 2609 -91 1734 -91 
Q 1441 -91 1130 -33 
Q 819 25 488 141 
L 488 750 
Q 750 597 1062 519 
Q 1375 441 1716 441 
Q 2309 441 2620 675 
Q 2931 909 2931 1356 
Q 2931 1769 2642 2001 
Q 2353 2234 1838 2234 
L 1294 2234 
L 1294 2753 
L 1863 2753 
Q 2328 2753 2575 2939 
Q 2822 3125 2822 3475 
Q 2822 3834 2567 4026 
Q 2313 4219 1838 4219 
Q 1578 4219 1281 4162 
Q 984 4106 628 3988 
L 628 4550 
Q 988 4650 1302 4700 
Q 1616 4750 1894 4750 
Q 2613 4750 3031 4423 
Q 3450 4097 3450 3541 
Q 3450 3153 3228 2886 
Q 3006 2619 2597 2516 
z
" transform="scale(0.015625)"/>
       </defs>
       <use xlink:href="#DejaVuSans-33"/>
       <use xlink:href="#DejaVuSans-30" transform="translate(63.623047 0)"/>
       <use xlink:href="#DejaVuSans-30" transform="translate(127.246094 0)"/>
       <use xlink:href="#DejaVuSans-30" transform="translate(190.869141 0)"/>
       <use xlink:href="#DejaVuSans-30" transform="translate(254.492188 0)"/>
       <use xlink:href="#DejaVuSans-30" transform="translate(318.115234 0)"/>
      </g>
     </g>
    </g>
    <g id="xtick_5">
     <g id="line2d_5">
      <path d="M 425.680349 390.04 
L 425.680349 63.659 
" clip-path="url(#p3440e26cae)" style="fill: none; stroke: #ffffff; stroke-width: 0.8; stroke-linecap: round"/>
     </g>
     <g id="text_5">
      <!-- 400000 -->
      <g style="fill: #262626" transform="translate(406.592849 404.638438) scale(0.1 -0.1)">
       <defs>
        <path id="DejaVuSans-34" d="M 2419 4116 
L 825 1625 
L 2419 1625 
L 2419 4116 
z
M 2253 4666 
L 3047 4666 
L 3047 1625 
L 3713 1625 
L 3713 1100 
L 3047 1100 
L 3047 0 
L 2419 0 
L 2419 1100 
L 313 1100 
L 313 1709 
L 2253 4666 
z
" transform="scale(0.015625)"/>
       </defs>
       <use xlink:href="#DejaVuSans-34"/>
       <use xlink:href="#DejaVuSans-30" transform="translate(63.623047 0)"/>
       <use xlink:href="#DejaVuSans-30" transform="translate(127.246094 0)"/>
       <use xlink:href="#DejaVuSans-30" transform="translate(190.869141 0)"/>
       <use xlink:href="#DejaVuSans-30" transform="translate(254.492188 0)"/>
       <use xlink:href="#DejaVuSans-30" transform="translate(318.115234 0)"/>
      </g>
     </g>
    </g>
    <g id="xtick_6">
     <g id="line2d_6">
      <path d="M 519.382233 390.04 
L 519.382233 63.659 
" clip-path="url(#p3440e26cae)" style="fill: none; stroke: #ffffff; stroke-width: 0.8; stroke-linecap: round"/>
     </g>
     <g id="text_6">
      <!-- 500000 -->
      <g style="fill: #262626" transform="translate(500.294733 404.638438) scale(0.1 -0.1)">
       <defs>
        <path id="DejaVuSans-35" d="M 691 4666 
L 3169 4666 
L 3169 4134 
L 1269 4134 
L 1269 2991 
Q 1406 3038 1543 3061 
Q 1681 3084 1819 3084 
Q 2600 3084 3056 2656 
Q 3513 2228 3513 1497 
Q 3513 744 3044 326 
Q 2575 -91 1722 -91 
Q 1428 -91 1123 -41 
Q 819 9 494 109 
L 494 744 
Q 775 591 1075 516 
Q 1375 441 1709 441 
Q 2250 441 2565 725 
Q 2881 1009 2881 1497 
Q 2881 1984 2565 2268 
Q 2250 2553 1709 2553 
Q 1456 2553 1204 2497 
Q 953 2441 691 2322 
L 691 4666 
z
" transform="scale(0.015625)"/>
       </defs>
       <use xlink:href="#DejaVuSans-35"/>
       <use xlink:href="#DejaVuSans-30" transform="translate(63.623047 0)"/>
       <use xlink:href="#DejaVuSans-30" transform="translate(127.246094 0)"/>
       <use xlink:href="#DejaVuSans-30" transform="translate(190.869141 0)"/>
       <use xlink:href="#DejaVuSans-30" transform="translate(254.492188 0)"/>
       <use xlink:href="#DejaVuSans-30" transform="translate(318.115234 0)"/>
      </g>
     </g>
    </g>
    <g id="xtick_7">
     <g id="line2d_7">
      <path d="M 613.084118 390.04 
L 613.084118 63.659 
" clip-path="url(#p3440e26cae)" style="fill: none; stroke: #ffffff; stroke-width: 0.8; stroke-linecap: round"/>
     </g>
     <g id="text_7">
      <!-- 600000 -->
      <g style="fill: #262626" transform="translate(593.996618 404.638438) scale(0.1 -0.1)">
       <defs>
        <path id="DejaVuSans-36" d="M 2113 2584 
Q 1688 2584 1439 2293 
Q 1191 2003 1191 1497 
Q 1191 994 1439 701 
Q 1688 409 2113 409 
Q 2538 409 2786 701 
Q 3034 994 3034 1497 
Q 3034 2003 2786 2293 
Q 2538 2584 2113 2584 
z
M 3366 4563 
L 3366 3988 
Q 3128 4100 2886 4159 
Q 2644 4219 2406 4219 
Q 1781 4219 1451 3797 
Q 1122 3375 1075 2522 
Q 1259 2794 1537 2939 
Q 1816 3084 2150 3084 
Q 2853 3084 3261 2657 
Q 3669 2231 3669 1497 
Q 3669 778 3244 343 
Q 2819 -91 2113 -91 
Q 1303 -91 875 529 
Q 447 1150 447 2328 
Q 447 3434 972 4092 
Q 1497 4750 2381 4750 
Q 2619 4750 2861 4703 
Q 3103 4656 3366 4563 
z
" transform="scale(0.015625)"/>
       </defs>
       <use xlink:href="#DejaVuSans-36"/>
       <use xlink:href="#DejaVuSans-30" transform="translate(63.623047 0)"/>
       <use xlink:href="#DejaVuSans-30" transform="translate(127.246094 0)"/>
       <use xlink:href="#DejaVuSans-30" transform="translate(190.869141 0)"/>
       <use xlink:href="#DejaVuSans-30" transform="translate(254.492188 0)"/>
       <use xlink:href="#DejaVuSans-30" transform="translate(318.115234 0)"/>
      </g>
     </g>
    </g>
    <g id="text_8">
     <!-- Steps -->
     <g style="fill: #262626" transform="translate(324.735156 418.316562) scale(0.1 -0.1)">
      <defs>
       <path id="DejaVuSans-53" d="M 3425 4513 
L 3425 3897 
Q 3066 4069 2747 4153 
Q 2428 4238 2131 4238 
Q 1616 4238 1336 4038 
Q 1056 3838 1056 3469 
Q 1056 3159 1242 3001 
Q 1428 2844 1947 2747 
L 2328 2669 
Q 3034 2534 3370 2195 
Q 3706 1856 3706 1288 
Q 3706 609 3251 259 
Q 2797 -91 1919 -91 
Q 1588 -91 1214 -16 
Q 841 59 441 206 
L 441 856 
Q 825 641 1194 531 
Q 1563 422 1919 422 
Q 2459 422 2753 634 
Q 3047 847 3047 1241 
Q 3047 1584 2836 1778 
Q 2625 1972 2144 2069 
L 1759 2144 
Q 1053 2284 737 2584 
Q 422 2884 422 3419 
Q 422 4038 858 4394 
Q 1294 4750 2059 4750 
Q 2388 4750 2728 4690 
Q 3069 4631 3425 4513 
z
" transform="scale(0.015625)"/>
       <path id="DejaVuSans-74" d="M 1172 4494 
L 1172 3500 
L 2356 3500 
L 2356 3053 
L 1172 3053 
L 1172 1153 
Q 1172 725 1289 603 
Q 1406 481 1766 481 
L 2356 481 
L 2356 0 
L 1766 0 
Q 1100 0 847 248 
Q 594 497 594 1153 
L 594 3053 
L 172 3053 
L 172 3500 
L 594 3500 
L 594 4494 
L 1172 4494 
z
" transform="scale(0.015625)"/>
       <path id="DejaVuSans-65" d="M 3597 1894 
L 3597 1613 
L 953 1613 
Q 991 1019 1311 708 
Q 1631 397 2203 397 
Q 2534 397 2845 478 
Q 3156 559 3463 722 
L 3463 178 
Q 3153 47 2828 -22 
Q 2503 -91 2169 -91 
Q 1331 -91 842 396 
Q 353 884 353 1716 
Q 353 2575 817 3079 
Q 1281 3584 2069 3584 
Q 2775 3584 3186 3129 
Q 3597 2675 3597 1894 
z
M 3022 2063 
Q 3016 2534 2758 2815 
Q 2500 3097 2075 3097 
Q 1594 3097 1305 2825 
Q 1016 2553 972 2059 
L 3022 2063 
z
" transform="scale(0.015625)"/>
       <path id="DejaVuSans-70" d="M 1159 525 
L 1159 -1331 
L 581 -1331 
L 581 3500 
L 1159 3500 
L 1159 2969 
Q 1341 3281 1617 3432 
Q 1894 3584 2278 3584 
Q 2916 3584 3314 3078 
Q 3713 2572 3713 1747 
Q 3713 922 3314 415 
Q 2916 -91 2278 -91 
Q 1894 -91 1617 61 
Q 1341 213 1159 525 
z
M 3116 1747 
Q 3116 2381 2855 2742 
Q 2594 3103 2138 3103 
Q 1681 3103 1420 2742 
Q 1159 2381 1159 1747 
Q 1159 1113 1420 752 
Q 1681 391 2138 391 
Q 2594 391 2855 752 
Q 3116 1113 3116 1747 
z
" transform="scale(0.015625)"/>
       <path id="DejaVuSans-73" d="M 2834 3397 
L 2834 2853 
Q 2591 2978 2328 3040 
Q 2066 3103 1784 3103 
Q 1356 3103 1142 2972 
Q 928 2841 928 2578 
Q 928 2378 1081 2264 
Q 1234 2150 1697 2047 
L 1894 2003 
Q 2506 1872 2764 1633 
Q 3022 1394 3022 966 
Q 3022 478 2636 193 
Q 2250 -91 1575 -91 
Q 1294 -91 989 -36 
Q 684 19 347 128 
L 347 722 
Q 666 556 975 473 
Q 1284 391 1588 391 
Q 1994 391 2212 530 
Q 2431 669 2431 922 
Q 2431 1156 2273 1281 
Q 2116 1406 1581 1522 
L 1381 1569 
Q 847 1681 609 1914 
Q 372 2147 372 2553 
Q 372 3047 722 3315 
Q 1072 3584 1716 3584 
Q 2034 3584 2315 3537 
Q 2597 3491 2834 3397 
z
" transform="scale(0.015625)"/>
      </defs>
      <use xlink:href="#DejaVuSans-53"/>
      <use xlink:href="#DejaVuSans-74" transform="translate(63.476562 0)"/>
      <use xlink:href="#DejaVuSans-65" transform="translate(102.685547 0)"/>
      <use xlink:href="#DejaVuSans-70" transform="translate(164.208984 0)"/>
      <use xlink:href="#DejaVuSans-73" transform="translate(227.685547 0)"/>
     </g>
    </g>
   </g>
   <g id="matplotlib.axis_2">
    <g id="ytick_1">
     <g id="line2d_8">
      <path d="M 50.87 390.04 
L 626.58 390.04 
" clip-path="url(#p3440e26cae)" style="fill: none; stroke: #ffffff; stroke-width: 0.8; stroke-linecap: round"/>
     </g>
     <g id="text_9">
      <!-- 0 -->
      <g style="fill: #262626" transform="translate(37.5075 393.839219) scale(0.1 -0.1)">
       <use xlink:href="#DejaVuSans-30"/>
      </g>
     </g>
    </g>
    <g id="ytick_2">
     <g id="line2d_9">
      <path d="M 50.87 358.657212 
L 626.58 358.657212 
" clip-path="url(#p3440e26cae)" style="fill: none; stroke: #ffffff; stroke-width: 0.8; stroke-linecap: round"/>
     </g>
     <g id="text_10">
      <!-- 50 -->
      <g style="fill: #262626" transform="translate(31.145 362.45643) scale(0.1 -0.1)">
       <use xlink:href="#DejaVuSans-35"/>
       <use xlink:href="#DejaVuSans-30" transform="translate(63.623047 0)"/>
      </g>
     </g>
    </g>
    <g id="ytick_3">
     <g id="line2d_10">
      <path d="M 50.87 327.274423 
L 626.58 327.274423 
" clip-path="url(#p3440e26cae)" style="fill: none; stroke: #ffffff; stroke-width: 0.8; stroke-linecap: round"/>
     </g>
     <g id="text_11">
      <!-- 100 -->
      <g style="fill: #262626" transform="translate(24.7825 331.073642) scale(0.1 -0.1)">
       <use xlink:href="#DejaVuSans-31"/>
       <use xlink:href="#DejaVuSans-30" transform="translate(63.623047 0)"/>
       <use xlink:href="#DejaVuSans-30" transform="translate(127.246094 0)"/>
      </g>
     </g>
    </g>
    <g id="ytick_4">
     <g id="line2d_11">
      <path d="M 50.87 295.891635 
L 626.58 295.891635 
" clip-path="url(#p3440e26cae)" style="fill: none; stroke: #ffffff; stroke-width: 0.8; stroke-linecap: round"/>
     </g>
     <g id="text_12">
      <!-- 150 -->
      <g style="fill: #262626" transform="translate(24.7825 299.690853) scale(0.1 -0.1)">
       <use xlink:href="#DejaVuSans-31"/>
       <use xlink:href="#DejaVuSans-35" transform="translate(63.623047 0)"/>
       <use xlink:href="#DejaVuSans-30" transform="translate(127.246094 0)"/>
      </g>
     </g>
    </g>
    <g id="ytick_5">
     <g id="line2d_12">
      <path d="M 50.87 264.508846 
L 626.58 264.508846 
" clip-path="url(#p3440e26cae)" style="fill: none; stroke: #ffffff; stroke-width: 0.8; stroke-linecap: round"/>
     </g>
     <g id="text_13">
      <!-- 200 -->
      <g style="fill: #262626" transform="translate(24.7825 268.308065) scale(0.1 -0.1)">
       <use xlink:href="#DejaVuSans-32"/>
       <use xlink:href="#DejaVuSans-30" transform="translate(63.623047 0)"/>
       <use xlink:href="#DejaVuSans-30" transform="translate(127.246094 0)"/>
      </g>
     </g>
    </g>
    <g id="ytick_6">
     <g id="line2d_13">
      <path d="M 50.87 233.126058 
L 626.58 233.126058 
" clip-path="url(#p3440e26cae)" style="fill: none; stroke: #ffffff; stroke-width: 0.8; stroke-linecap: round"/>
     </g>
     <g id="text_14">
      <!-- 250 -->
      <g style="fill: #262626" transform="translate(24.7825 236.925276) scale(0.1 -0.1)">
       <use xlink:href="#DejaVuSans-32"/>
       <use xlink:href="#DejaVuSans-35" transform="translate(63.623047 0)"/>
       <use xlink:href="#DejaVuSans-30" transform="translate(127.246094 0)"/>
      </g>
     </g>
    </g>
    <g id="ytick_7">
     <g id="line2d_14">
      <path d="M 50.87 201.743269 
L 626.58 201.743269 
" clip-path="url(#p3440e26cae)" style="fill: none; stroke: #ffffff; stroke-width: 0.8; stroke-linecap: round"/>
     </g>
     <g id="text_15">
      <!-- 300 -->
      <g style="fill: #262626" transform="translate(24.7825 205.542488) scale(0.1 -0.1)">
       <use xlink:href="#DejaVuSans-33"/>
       <use xlink:href="#DejaVuSans-30" transform="translate(63.623047 0)"/>
       <use xlink:href="#DejaVuSans-30" transform="translate(127.246094 0)"/>
      </g>
     </g>
    </g>
    <g id="ytick_8">
     <g id="line2d_15">
      <path d="M 50.87 170.360481 
L 626.58 170.360481 
" clip-path="url(#p3440e26cae)" style="fill: none; stroke: #ffffff; stroke-width: 0.8; stroke-linecap: round"/>
     </g>
     <g id="text_16">
      <!-- 350 -->
      <g style="fill: #262626" transform="translate(24.7825 174.1597) scale(0.1 -0.1)">
       <use xlink:href="#DejaVuSans-33"/>
       <use xlink:href="#DejaVuSans-35" transform="translate(63.623047 0)"/>
       <use xlink:href="#DejaVuSans-30" transform="translate(127.246094 0)"/>
      </g>
     </g>
    </g>
    <g id="ytick_9">
     <g id="line2d_16">
      <path d="M 50.87 138.977692 
L 626.58 138.977692 
" clip-path="url(#p3440e26cae)" style="fill: none; stroke: #ffffff; stroke-width: 0.8; stroke-linecap: round"/>
     </g>
     <g id="text_17">
      <!-- 400 -->
      <g style="fill: #262626" transform="translate(24.7825 142.776911) scale(0.1 -0.1)">
       <use xlink:href="#DejaVuSans-34"/>
       <use xlink:href="#DejaVuSans-30" transform="translate(63.623047 0)"/>
       <use xlink:href="#DejaVuSans-30" transform="translate(127.246094 0)"/>
      </g>
     </g>
    </g>
    <g id="ytick_10">
     <g id="line2d_17">
      <path d="M 50.87 107.594904 
L 626.58 107.594904 
" clip-path="url(#p3440e26cae)" style="fill: none; stroke: #ffffff; stroke-width: 0.8; stroke-linecap: round"/>
     </g>
     <g id="text_18">
      <!-- 450 -->
      <g style="fill: #262626" transform="translate(24.7825 111.394123) scale(0.1 -0.1)">
       <use xlink:href="#DejaVuSans-34"/>
       <use xlink:href="#DejaVuSans-35" transform="translate(63.623047 0)"/>
       <use xlink:href="#DejaVuSans-30" transform="translate(127.246094 0)"/>
      </g>
     </g>
    </g>
    <g id="ytick_11">
     <g id="line2d_18">
      <path d="M 50.87 76.212115 
L 626.58 76.212115 
" clip-path="url(#p3440e26cae)" style="fill: none; stroke: #ffffff; stroke-width: 0.8; stroke-linecap: round"/>
     </g>
     <g id="text_19">
      <!-- 500 -->
      <g style="fill: #262626" transform="translate(24.7825 80.011334) scale(0.1 -0.1)">
       <use xlink:href="#DejaVuSans-35"/>
       <use xlink:href="#DejaVuSans-30" transform="translate(63.623047 0)"/>
       <use xlink:href="#DejaVuSans-30" transform="translate(127.246094 0)"/>
      </g>
     </g>
    </g>
    <g id="text_20">
     <!-- Reward -->
     <g style="fill: #262626" transform="translate(18.702813 245.470594) rotate(-90) scale(0.1 -0.1)">
      <defs>
       <path id="DejaVuSans-52" d="M 2841 2188 
Q 3044 2119 3236 1894 
Q 3428 1669 3622 1275 
L 4263 0 
L 3584 0 
L 2988 1197 
Q 2756 1666 2539 1819 
Q 2322 1972 1947 1972 
L 1259 1972 
L 1259 0 
L 628 0 
L 628 4666 
L 2053 4666 
Q 2853 4666 3247 4331 
Q 3641 3997 3641 3322 
Q 3641 2881 3436 2590 
Q 3231 2300 2841 2188 
z
M 1259 4147 
L 1259 2491 
L 2053 2491 
Q 2509 2491 2742 2702 
Q 2975 2913 2975 3322 
Q 2975 3731 2742 3939 
Q 2509 4147 2053 4147 
L 1259 4147 
z
" transform="scale(0.015625)"/>
       <path id="DejaVuSans-77" d="M 269 3500 
L 844 3500 
L 1563 769 
L 2278 3500 
L 2956 3500 
L 3675 769 
L 4391 3500 
L 4966 3500 
L 4050 0 
L 3372 0 
L 2619 2869 
L 1863 0 
L 1184 0 
L 269 3500 
z
" transform="scale(0.015625)"/>
       <path id="DejaVuSans-61" d="M 2194 1759 
Q 1497 1759 1228 1600 
Q 959 1441 959 1056 
Q 959 750 1161 570 
Q 1363 391 1709 391 
Q 2188 391 2477 730 
Q 2766 1069 2766 1631 
L 2766 1759 
L 2194 1759 
z
M 3341 1997 
L 3341 0 
L 2766 0 
L 2766 531 
Q 2569 213 2275 61 
Q 1981 -91 1556 -91 
Q 1019 -91 701 211 
Q 384 513 384 1019 
Q 384 1609 779 1909 
Q 1175 2209 1959 2209 
L 2766 2209 
L 2766 2266 
Q 2766 2663 2505 2880 
Q 2244 3097 1772 3097 
Q 1472 3097 1187 3025 
Q 903 2953 641 2809 
L 641 3341 
Q 956 3463 1253 3523 
Q 1550 3584 1831 3584 
Q 2591 3584 2966 3190 
Q 3341 2797 3341 1997 
z
" transform="scale(0.015625)"/>
       <path id="DejaVuSans-72" d="M 2631 2963 
Q 2534 3019 2420 3045 
Q 2306 3072 2169 3072 
Q 1681 3072 1420 2755 
Q 1159 2438 1159 1844 
L 1159 0 
L 581 0 
L 581 3500 
L 1159 3500 
L 1159 2956 
Q 1341 3275 1631 3429 
Q 1922 3584 2338 3584 
Q 2397 3584 2469 3576 
Q 2541 3569 2628 3553 
L 2631 2963 
z
" transform="scale(0.015625)"/>
       <path id="DejaVuSans-64" d="M 2906 2969 
L 2906 4863 
L 3481 4863 
L 3481 0 
L 2906 0 
L 2906 525 
Q 2725 213 2448 61 
Q 2172 -91 1784 -91 
Q 1150 -91 751 415 
Q 353 922 353 1747 
Q 353 2572 751 3078 
Q 1150 3584 1784 3584 
Q 2172 3584 2448 3432 
Q 2725 3281 2906 2969 
z
M 947 1747 
Q 947 1113 1208 752 
Q 1469 391 1925 391 
Q 2381 391 2643 752 
Q 2906 1113 2906 1747 
Q 2906 2381 2643 2742 
Q 2381 3103 1925 3103 
Q 1469 3103 1208 2742 
Q 947 2381 947 1747 
z
" transform="scale(0.015625)"/>
      </defs>
      <use xlink:href="#DejaVuSans-52"/>
      <use xlink:href="#DejaVuSans-65" transform="translate(64.982422 0)"/>
      <use xlink:href="#DejaVuSans-77" transform="translate(126.505859 0)"/>
      <use xlink:href="#DejaVuSans-61" transform="translate(208.292969 0)"/>
      <use xlink:href="#DejaVuSans-72" transform="translate(269.572266 0)"/>
      <use xlink:href="#DejaVuSans-64" transform="translate(308.935547 0)"/>
     </g>
    </g>
   </g>
   <g id="line2d_19">
    <path d="M 50.872811 373.959097 
L 62.386899 368.015403 
L 73.900986 353.240159 
L 85.415074 327.540405 
L 96.929161 295.351532 
L 108.443249 263.969103 
L 119.957336 238.654585 
L 131.471424 220.303487 
L 142.985512 202.872424 
L 154.499599 186.539955 
L 166.013687 171.56303 
L 177.527774 162.722224 
L 189.041862 158.745387 
L 200.555949 146.178181 
L 212.070037 126.164634 
L 223.584124 110.349458 
L 235.098212 103.913013 
L 246.6123 102.271105 
L 258.126387 97.486465 
L 269.640475 89.961596 
L 281.154562 85.29892 
L 292.66865 83.321969 
L 304.182737 82.735493 
L 315.696825 82.608158 
L 327.210912 83.009846 
L 338.725 84.127637 
L 350.239088 84.459991 
L 361.753175 84.288541 
L 373.267263 84.513489 
L 384.78135 84.089845 
L 396.295438 84.744578 
L 407.809525 85.837736 
L 419.323613 86.14086 
L 430.8377 86.353627 
L 442.351788 87.171785 
L 453.865876 87.189696 
L 465.379963 86.788802 
L 476.894051 88.399422 
L 488.408138 91.472789 
L 499.922226 93.585224 
L 511.436313 93.308538 
L 522.950401 89.052524 
L 534.464488 84.060867 
L 545.978576 82.390478 
L 557.492664 84.166414 
L 569.006751 86.449194 
L 580.520839 85.543598 
L 592.034926 84.700065 
L 603.549014 86.029694 
L 615.063101 85.790317 
" clip-path="url(#p3440e26cae)" style="fill: none; stroke: #1f77b4; stroke-width: 1.5; stroke-linecap: round"/>
   </g>
   <g id="line2d_20">
    <path d="M 50.872811 371.928004 
L 62.386899 364.386798 
L 73.900986 349.142943 
L 85.415074 327.330311 
L 96.929161 301.132653 
L 108.443249 275.160292 
L 119.957336 254.577941 
L 131.471424 237.314804 
L 142.985512 219.42488 
L 154.499599 201.27373 
L 166.013687 185.28483 
L 177.527774 171.431249 
L 189.041862 157.681717 
L 200.555949 146.02466 
L 212.070037 138.746588 
L 223.584124 131.089934 
L 235.098212 118.378017 
L 246.6123 110.382276 
L 258.126387 107.820809 
L 269.640475 105.226771 
L 281.154562 101.212864 
L 292.66865 97.11612 
L 304.182737 95.106107 
L 315.696825 94.981482 
L 327.210912 92.651678 
L 338.725 90.021263 
L 350.239088 88.488003 
L 361.753175 87.420598 
L 373.267263 86.53728 
L 384.78135 85.285522 
L 396.295438 86.292062 
L 407.809525 91.353796 
L 419.323613 94.430165 
L 430.8377 91.104644 
L 442.351788 86.174264 
L 453.865876 83.251488 
L 465.379963 80.44679 
L 476.894051 78.850694 
L 488.408138 78.964156 
L 499.922226 80.296495 
L 511.436313 81.734233 
L 522.950401 82.107181 
L 534.464488 82.893478 
L 545.978576 84.496088 
L 557.492664 85.358669 
L 569.006751 86.414379 
L 580.520839 86.822589 
L 592.034926 86.173279 
L 603.549014 84.890568 
L 615.063101 84.092975 
" clip-path="url(#p3440e26cae)" style="fill: none; stroke-dasharray: 5.55,2.4; stroke-dashoffset: 0; stroke: #1f77b4; stroke-width: 1.5"/>
   </g>
   <g id="line2d_21">
    <path d="M 50.872811 373.937807 
L 62.386899 367.975251 
L 73.900986 353.824159 
L 85.415074 330.508443 
L 96.929161 301.442596 
L 108.443249 271.688562 
L 119.957336 244.871551 
L 131.471424 222.634879 
L 142.985512 203.393656 
L 154.499599 185.942306 
L 166.013687 170.23471 
L 177.527774 158.597516 
L 189.041862 150.608674 
L 200.555949 139.535592 
L 212.070037 127.698445 
L 223.584124 117.011409 
L 235.098212 105.683847 
L 246.6123 96.415178 
L 258.126387 93.600397 
L 269.640475 95.629959 
L 281.154562 97.729515 
L 292.66865 97.490267 
L 304.182737 96.27955 
L 315.696825 95.064329 
L 327.210912 94.480634 
L 338.725 93.354762 
L 350.239088 90.676648 
L 361.753175 87.028426 
L 373.267263 83.342163 
L 384.78135 80.96021 
L 396.295438 80.091589 
L 407.809525 80.732058 
L 419.323613 81.991881 
L 430.8377 83.244416 
L 442.351788 84.64336 
L 453.865876 85.55492 
L 465.379963 85.721362 
L 476.894051 87.171607 
L 488.408138 90.860173 
L 499.922226 92.997925 
L 511.436313 88.995861 
L 522.950401 84.68718 
L 534.464488 83.089744 
L 545.978576 84.02807 
L 557.492664 89.8198 
L 569.006751 96.750674 
L 580.520839 95.914255 
L 592.034926 89.537758 
L 603.549014 84.659998 
L 615.063101 83.77189 
" clip-path="url(#p3440e26cae)" style="fill: none; stroke: #ff7f0e; stroke-width: 1.5; stroke-linecap: round"/>
   </g>
   <g id="line2d_22">
    <path d="M 50.872811 371.828433 
L 62.386899 364.196801 
L 73.900986 348.184631 
L 85.415074 323.499525 
L 96.929161 293.730506 
L 108.443249 267.916334 
L 119.957336 251.379169 
L 131.471424 238.887274 
L 142.985512 224.434862 
L 154.499599 210.266739 
L 166.013687 200.00882 
L 177.527774 188.359962 
L 189.041862 175.889664 
L 200.555949 161.449155 
L 212.070037 145.09269 
L 223.584124 130.951201 
L 235.098212 119.634024 
L 246.6123 113.534869 
L 258.126387 111.088125 
L 269.640475 105.724419 
L 281.154562 96.459712 
L 292.66865 90.783206 
L 304.182737 91.42937 
L 315.696825 91.341097 
L 327.210912 88.796426 
L 338.725 88.101487 
L 350.239088 90.407854 
L 361.753175 93.372851 
L 373.267263 94.58242 
L 384.78135 94.096162 
L 396.295438 90.534393 
L 407.809525 89.838829 
L 419.323613 89.212313 
L 430.8377 84.913426 
L 442.351788 82.486419 
L 453.865876 83.718676 
L 465.379963 84.584702 
L 476.894051 84.563531 
L 488.408138 84.14278 
L 499.922226 83.931424 
L 511.436313 85.902407 
L 522.950401 87.894851 
L 534.464488 86.651066 
L 545.978576 85.895406 
L 557.492664 86.904799 
L 569.006751 86.293151 
L 580.520839 83.103573 
L 592.034926 80.546499 
L 603.549014 79.548452 
L 615.063101 78.23831 
" clip-path="url(#p3440e26cae)" style="fill: none; stroke-dasharray: 5.55,2.4; stroke-dashoffset: 0; stroke: #ff7f0e; stroke-width: 1.5"/>
   </g>
   <g id="line2d_23">
    <path d="M 50.872811 373.395905 
L 62.386899 367.994663 
L 73.900986 356.140097 
L 85.415074 335.914043 
L 96.929161 308.632371 
L 108.443249 280.622273 
L 119.957336 257.317082 
L 131.471424 239.296222 
L 142.985512 228.45455 
L 154.499599 219.765459 
L 166.013687 207.962904 
L 177.527774 193.270742 
L 189.041862 176.275588 
L 200.555949 155.733687 
L 212.070037 135.332744 
L 223.584124 120.006229 
L 235.098212 114.837532 
L 246.6123 115.212484 
L 258.126387 108.963282 
L 269.640475 98.596047 
L 281.154562 93.403065 
L 292.66865 90.795107 
L 304.182737 90.043669 
L 315.696825 93.519481 
L 327.210912 95.80273 
L 338.725 95.914926 
L 350.239088 94.780821 
L 361.753175 88.41273 
L 373.267263 82.004301 
L 384.78135 79.509114 
L 396.295438 79.42658 
L 407.809525 80.426142 
L 419.323613 83.045591 
L 430.8377 86.858426 
L 442.351788 87.452075 
L 453.865876 85.648866 
L 465.379963 82.213397 
L 476.894051 79.459868 
L 488.408138 78.482203 
L 499.922226 77.96751 
L 511.436313 78.431428 
L 522.950401 80.805985 
L 534.464488 84.080378 
L 545.978576 84.564612 
L 557.492664 83.45968 
L 569.006751 83.311928 
L 580.520839 82.226548 
L 592.034926 79.649576 
L 603.549014 78.926665 
L 615.063101 80.40721 
" clip-path="url(#p3440e26cae)" style="fill: none; stroke: #2ca02c; stroke-width: 1.5; stroke-linecap: round"/>
   </g>
   <g id="line2d_24">
    <path d="M 50.872811 372.354443 
L 62.386899 365.295122 
L 73.900986 351.083802 
L 85.415074 330.289338 
L 96.929161 304.402212 
L 108.443249 277.725575 
L 119.957336 256.486644 
L 131.471424 241.266039 
L 142.985512 226.643304 
L 154.499599 212.684513 
L 166.013687 203.825749 
L 177.527774 194.096224 
L 189.041862 179.830759 
L 200.555949 163.474932 
L 212.070037 148.910834 
L 223.584124 139.370474 
L 235.098212 133.961137 
L 246.6123 127.640761 
L 258.126387 120.351386 
L 269.640475 116.00143 
L 281.154562 110.395116 
L 292.66865 101.923548 
L 304.182737 95.222049 
L 315.696825 93.495482 
L 327.210912 94.902099 
L 338.725 96.182617 
L 350.239088 97.215334 
L 361.753175 96.652553 
L 373.267263 92.881227 
L 384.78135 87.893987 
L 396.295438 84.3705 
L 407.809525 82.648315 
L 419.323613 81.807012 
L 430.8377 83.141271 
L 442.351788 85.131362 
L 453.865876 84.182619 
L 465.379963 81.832177 
L 476.894051 80.316466 
L 488.408138 79.104189 
L 499.922226 78.254825 
L 511.436313 78.132755 
L 522.950401 78.014891 
L 534.464488 78.653963 
L 545.978576 81.957983 
L 557.492664 85.892717 
L 569.006751 85.629656 
L 580.520839 83.315753 
L 592.034926 82.322875 
L 603.549014 81.126337 
L 615.063101 80.974636 
" clip-path="url(#p3440e26cae)" style="fill: none; stroke-dasharray: 5.55,2.4; stroke-dashoffset: 0; stroke: #2ca02c; stroke-width: 1.5"/>
   </g>
   <g id="line2d_25">
    <path d="M 50.872811 373.280962 
L 62.386899 367.575682 
L 73.900986 354.781788 
L 85.415074 333.387181 
L 96.929161 306.156864 
L 108.443249 279.128538 
L 119.957336 257.877486 
L 131.471424 244.144121 
L 142.985512 237.441709 
L 154.499599 228.89604 
L 166.013687 210.901038 
L 177.527774 188.375399 
L 189.041862 168.475176 
L 200.555949 153.681879 
L 212.070037 142.007047 
L 223.584124 131.730773 
L 235.098212 124.811423 
L 246.6123 119.449445 
L 258.126387 115.112481 
L 269.640475 110.87289 
L 281.154562 106.601927 
L 292.66865 103.368898 
L 304.182737 101.663304 
L 315.696825 97.670406 
L 327.210912 95.098621 
L 338.725 96.410839 
L 350.239088 96.666798 
L 361.753175 94.565174 
L 373.267263 90.215227 
L 384.78135 87.111685 
L 396.295438 88.078353 
L 407.809525 92.40792 
L 419.323613 101.657379 
L 430.8377 115.438267 
L 442.351788 126.256786 
L 453.865876 132.79759 
L 465.379963 135.440507 
L 476.894051 134.67913 
L 488.408138 131.655455 
L 499.922226 130.087267 
L 511.436313 129.672974 
L 522.950401 128.557096 
L 534.464488 129.122682 
L 545.978576 130.19586 
L 557.492664 129.868487 
L 569.006751 129.952418 
L 580.520839 131.113243 
L 592.034926 132.584076 
L 603.549014 132.805324 
L 615.063101 132.308462 
" clip-path="url(#p3440e26cae)" style="fill: none; stroke: #d62728; stroke-width: 1.5; stroke-linecap: round"/>
   </g>
   <g id="line2d_26">
    <path d="M 50.872811 372.405202 
L 62.386899 365.340131 
L 73.900986 351.287451 
L 85.415074 331.235423 
L 96.929161 307.184412 
L 108.443249 283.6629 
L 119.957336 263.704004 
L 131.471424 244.377992 
L 142.985512 225.686504 
L 154.499599 210.500882 
L 166.013687 195.371059 
L 177.527774 179.65811 
L 189.041862 165.717565 
L 200.555949 152.43046 
L 212.070037 142.633885 
L 223.584124 137.762705 
L 235.098212 132.761459 
L 246.6123 125.606602 
L 258.126387 116.63584 
L 269.640475 108.605 
L 281.154562 103.098793 
L 292.66865 98.125794 
L 304.182737 94.564359 
L 315.696825 93.072995 
L 327.210912 90.783526 
L 338.725 88.137158 
L 350.239088 87.72718 
L 361.753175 85.638512 
L 373.267263 83.147252 
L 384.78135 83.655069 
L 396.295438 84.999024 
L 407.809525 84.700713 
L 419.323613 82.399511 
L 430.8377 80.768145 
L 442.351788 80.840736 
L 453.865876 80.710573 
L 465.379963 79.190599 
L 476.894051 77.981569 
L 488.408138 77.82326 
L 499.922226 78.920276 
L 511.436313 80.029524 
L 522.950401 79.919944 
L 534.464488 79.049473 
L 545.978576 77.597815 
L 557.492664 76.933882 
L 569.006751 77.617329 
L 580.520839 78.55182 
L 592.034926 78.451805 
L 603.549014 77.602659 
L 615.063101 77.293115 
" clip-path="url(#p3440e26cae)" style="fill: none; stroke-dasharray: 5.55,2.4; stroke-dashoffset: 0; stroke: #d62728; stroke-width: 1.5"/>
   </g>
   <g id="patch_3">
    <path d="M 50.87 390.04 
L 50.87 63.659 
" style="fill: none; stroke: #ffffff; stroke-width: 0.8; stroke-linejoin: miter; stroke-linecap: square"/>
   </g>
   <g id="patch_4">
    <path d="M 626.58 390.04 
L 626.58 63.659 
" style="fill: none; stroke: #ffffff; stroke-width: 0.8; stroke-linejoin: miter; stroke-linecap: square"/>
   </g>
   <g id="patch_5">
    <path d="M 50.87 390.04 
L 626.58 390.04 
" style="fill: none; stroke: #ffffff; stroke-width: 0.8; stroke-linejoin: miter; stroke-linecap: square"/>
   </g>
   <g id="patch_6">
    <path d="M 50.87 63.659 
L 626.58 63.659 
" style="fill: none; stroke: #ffffff; stroke-width: 0.8; stroke-linejoin: miter; stroke-linecap: square"/>
   </g>
   <g id="legend_1">
    <g id="line2d_27">
     <path d="M 81.254462 41.931898 
L 89.584462 41.931898 
L 97.914462 41.931898 
" style="fill: none; stroke: #1f77b4; stroke-width: 1.5; stroke-linecap: round"/>
    </g>
    <g id="text_21">
     <!-- GNN-Net (No modification) -->
     <g style="fill: #262626" transform="translate(104.578462 44.847398) scale(0.0833 -0.0833)">
      <defs>
       <path id="DejaVuSans-47" d="M 3809 666 
L 3809 1919 
L 2778 1919 
L 2778 2438 
L 4434 2438 
L 4434 434 
Q 4069 175 3628 42 
Q 3188 -91 2688 -91 
Q 1594 -91 976 548 
Q 359 1188 359 2328 
Q 359 3472 976 4111 
Q 1594 4750 2688 4750 
Q 3144 4750 3555 4637 
Q 3966 4525 4313 4306 
L 4313 3634 
Q 3963 3931 3569 4081 
Q 3175 4231 2741 4231 
Q 1884 4231 1454 3753 
Q 1025 3275 1025 2328 
Q 1025 1384 1454 906 
Q 1884 428 2741 428 
Q 3075 428 3337 486 
Q 3600 544 3809 666 
z
" transform="scale(0.015625)"/>
       <path id="DejaVuSans-4e" d="M 628 4666 
L 1478 4666 
L 3547 763 
L 3547 4666 
L 4159 4666 
L 4159 0 
L 3309 0 
L 1241 3903 
L 1241 0 
L 628 0 
L 628 4666 
z
" transform="scale(0.015625)"/>
       <path id="DejaVuSans-2d" d="M 313 2009 
L 1997 2009 
L 1997 1497 
L 313 1497 
L 313 2009 
z
" transform="scale(0.015625)"/>
       <path id="DejaVuSans-20" transform="scale(0.015625)"/>
       <path id="DejaVuSans-28" d="M 1984 4856 
Q 1566 4138 1362 3434 
Q 1159 2731 1159 2009 
Q 1159 1288 1364 580 
Q 1569 -128 1984 -844 
L 1484 -844 
Q 1016 -109 783 600 
Q 550 1309 550 2009 
Q 550 2706 781 3412 
Q 1013 4119 1484 4856 
L 1984 4856 
z
" transform="scale(0.015625)"/>
       <path id="DejaVuSans-6f" d="M 1959 3097 
Q 1497 3097 1228 2736 
Q 959 2375 959 1747 
Q 959 1119 1226 758 
Q 1494 397 1959 397 
Q 2419 397 2687 759 
Q 2956 1122 2956 1747 
Q 2956 2369 2687 2733 
Q 2419 3097 1959 3097 
z
M 1959 3584 
Q 2709 3584 3137 3096 
Q 3566 2609 3566 1747 
Q 3566 888 3137 398 
Q 2709 -91 1959 -91 
Q 1206 -91 779 398 
Q 353 888 353 1747 
Q 353 2609 779 3096 
Q 1206 3584 1959 3584 
z
" transform="scale(0.015625)"/>
       <path id="DejaVuSans-6d" d="M 3328 2828 
Q 3544 3216 3844 3400 
Q 4144 3584 4550 3584 
Q 5097 3584 5394 3201 
Q 5691 2819 5691 2113 
L 5691 0 
L 5113 0 
L 5113 2094 
Q 5113 2597 4934 2840 
Q 4756 3084 4391 3084 
Q 3944 3084 3684 2787 
Q 3425 2491 3425 1978 
L 3425 0 
L 2847 0 
L 2847 2094 
Q 2847 2600 2669 2842 
Q 2491 3084 2119 3084 
Q 1678 3084 1418 2786 
Q 1159 2488 1159 1978 
L 1159 0 
L 581 0 
L 581 3500 
L 1159 3500 
L 1159 2956 
Q 1356 3278 1631 3431 
Q 1906 3584 2284 3584 
Q 2666 3584 2933 3390 
Q 3200 3197 3328 2828 
z
" transform="scale(0.015625)"/>
       <path id="DejaVuSans-69" d="M 603 3500 
L 1178 3500 
L 1178 0 
L 603 0 
L 603 3500 
z
M 603 4863 
L 1178 4863 
L 1178 4134 
L 603 4134 
L 603 4863 
z
" transform="scale(0.015625)"/>
       <path id="DejaVuSans-66" d="M 2375 4863 
L 2375 4384 
L 1825 4384 
Q 1516 4384 1395 4259 
Q 1275 4134 1275 3809 
L 1275 3500 
L 2222 3500 
L 2222 3053 
L 1275 3053 
L 1275 0 
L 697 0 
L 697 3053 
L 147 3053 
L 147 3500 
L 697 3500 
L 697 3744 
Q 697 4328 969 4595 
Q 1241 4863 1831 4863 
L 2375 4863 
z
" transform="scale(0.015625)"/>
       <path id="DejaVuSans-63" d="M 3122 3366 
L 3122 2828 
Q 2878 2963 2633 3030 
Q 2388 3097 2138 3097 
Q 1578 3097 1268 2742 
Q 959 2388 959 1747 
Q 959 1106 1268 751 
Q 1578 397 2138 397 
Q 2388 397 2633 464 
Q 2878 531 3122 666 
L 3122 134 
Q 2881 22 2623 -34 
Q 2366 -91 2075 -91 
Q 1284 -91 818 406 
Q 353 903 353 1747 
Q 353 2603 823 3093 
Q 1294 3584 2113 3584 
Q 2378 3584 2631 3529 
Q 2884 3475 3122 3366 
z
" transform="scale(0.015625)"/>
       <path id="DejaVuSans-6e" d="M 3513 2113 
L 3513 0 
L 2938 0 
L 2938 2094 
Q 2938 2591 2744 2837 
Q 2550 3084 2163 3084 
Q 1697 3084 1428 2787 
Q 1159 2491 1159 1978 
L 1159 0 
L 581 0 
L 581 3500 
L 1159 3500 
L 1159 2956 
Q 1366 3272 1645 3428 
Q 1925 3584 2291 3584 
Q 2894 3584 3203 3211 
Q 3513 2838 3513 2113 
z
" transform="scale(0.015625)"/>
       <path id="DejaVuSans-29" d="M 513 4856 
L 1013 4856 
Q 1481 4119 1714 3412 
Q 1947 2706 1947 2009 
Q 1947 1309 1714 600 
Q 1481 -109 1013 -844 
L 513 -844 
Q 928 -128 1133 580 
Q 1338 1288 1338 2009 
Q 1338 2731 1133 3434 
Q 928 4138 513 4856 
z
" transform="scale(0.015625)"/>
      </defs>
      <use xlink:href="#DejaVuSans-47"/>
      <use xlink:href="#DejaVuSans-4e" transform="translate(77.490234 0)"/>
      <use xlink:href="#DejaVuSans-4e" transform="translate(152.294922 0)"/>
      <use xlink:href="#DejaVuSans-2d" transform="translate(227.099609 0)"/>
      <use xlink:href="#DejaVuSans-4e" transform="translate(263.183594 0)"/>
      <use xlink:href="#DejaVuSans-65" transform="translate(337.988281 0)"/>
      <use xlink:href="#DejaVuSans-74" transform="translate(399.511719 0)"/>
      <use xlink:href="#DejaVuSans-20" transform="translate(438.720703 0)"/>
      <use xlink:href="#DejaVuSans-28" transform="translate(470.507812 0)"/>
      <use xlink:href="#DejaVuSans-4e" transform="translate(509.521484 0)"/>
      <use xlink:href="#DejaVuSans-6f" transform="translate(584.326172 0)"/>
      <use xlink:href="#DejaVuSans-20" transform="translate(645.507812 0)"/>
      <use xlink:href="#DejaVuSans-6d" transform="translate(677.294922 0)"/>
      <use xlink:href="#DejaVuSans-6f" transform="translate(774.707031 0)"/>
      <use xlink:href="#DejaVuSans-64" transform="translate(835.888672 0)"/>
      <use xlink:href="#DejaVuSans-69" transform="translate(899.365234 0)"/>
      <use xlink:href="#DejaVuSans-66" transform="translate(927.148438 0)"/>
      <use xlink:href="#DejaVuSans-69" transform="translate(962.353516 0)"/>
      <use xlink:href="#DejaVuSans-63" transform="translate(990.136719 0)"/>
      <use xlink:href="#DejaVuSans-61" transform="translate(1045.117188 0)"/>
      <use xlink:href="#DejaVuSans-74" transform="translate(1106.396484 0)"/>
      <use xlink:href="#DejaVuSans-69" transform="translate(1145.605469 0)"/>
      <use xlink:href="#DejaVuSans-6f" transform="translate(1173.388672 0)"/>
      <use xlink:href="#DejaVuSans-6e" transform="translate(1234.570312 0)"/>
      <use xlink:href="#DejaVuSans-29" transform="translate(1297.949219 0)"/>
     </g>
    </g>
    <g id="line2d_28">
     <path d="M 81.254462 54.158777 
L 89.584462 54.158777 
L 97.914462 54.158777 
" style="fill: none; stroke-dasharray: 5.55,2.4; stroke-dashoffset: 0; stroke: #1f77b4; stroke-width: 1.5"/>
    </g>
    <g id="text_22">
     <!-- Baseline (No modification) -->
     <g style="fill: #262626" transform="translate(104.578462 57.074277) scale(0.0833 -0.0833)">
      <defs>
       <path id="DejaVuSans-42" d="M 1259 2228 
L 1259 519 
L 2272 519 
Q 2781 519 3026 730 
Q 3272 941 3272 1375 
Q 3272 1813 3026 2020 
Q 2781 2228 2272 2228 
L 1259 2228 
z
M 1259 4147 
L 1259 2741 
L 2194 2741 
Q 2656 2741 2882 2914 
Q 3109 3088 3109 3444 
Q 3109 3797 2882 3972 
Q 2656 4147 2194 4147 
L 1259 4147 
z
M 628 4666 
L 2241 4666 
Q 2963 4666 3353 4366 
Q 3744 4066 3744 3513 
Q 3744 3084 3544 2831 
Q 3344 2578 2956 2516 
Q 3422 2416 3680 2098 
Q 3938 1781 3938 1306 
Q 3938 681 3513 340 
Q 3088 0 2303 0 
L 628 0 
L 628 4666 
z
" transform="scale(0.015625)"/>
       <path id="DejaVuSans-6c" d="M 603 4863 
L 1178 4863 
L 1178 0 
L 603 0 
L 603 4863 
z
" transform="scale(0.015625)"/>
      </defs>
      <use xlink:href="#DejaVuSans-42"/>
      <use xlink:href="#DejaVuSans-61" transform="translate(68.603516 0)"/>
      <use xlink:href="#DejaVuSans-73" transform="translate(129.882812 0)"/>
      <use xlink:href="#DejaVuSans-65" transform="translate(181.982422 0)"/>
      <use xlink:href="#DejaVuSans-6c" transform="translate(243.505859 0)"/>
      <use xlink:href="#DejaVuSans-69" transform="translate(271.289062 0)"/>
      <use xlink:href="#DejaVuSans-6e" transform="translate(299.072266 0)"/>
      <use xlink:href="#DejaVuSans-65" transform="translate(362.451172 0)"/>
      <use xlink:href="#DejaVuSans-20" transform="translate(423.974609 0)"/>
      <use xlink:href="#DejaVuSans-28" transform="translate(455.761719 0)"/>
      <use xlink:href="#DejaVuSans-4e" transform="translate(494.775391 0)"/>
      <use xlink:href="#DejaVuSans-6f" transform="translate(569.580078 0)"/>
      <use xlink:href="#DejaVuSans-20" transform="translate(630.761719 0)"/>
      <use xlink:href="#DejaVuSans-6d" transform="translate(662.548828 0)"/>
      <use xlink:href="#DejaVuSans-6f" transform="translate(759.960938 0)"/>
      <use xlink:href="#DejaVuSans-64" transform="translate(821.142578 0)"/>
      <use xlink:href="#DejaVuSans-69" transform="translate(884.619141 0)"/>
      <use xlink:href="#DejaVuSans-66" transform="translate(912.402344 0)"/>
      <use xlink:href="#DejaVuSans-69" transform="translate(947.607422 0)"/>
      <use xlink:href="#DejaVuSans-63" transform="translate(975.390625 0)"/>
      <use xlink:href="#DejaVuSans-61" transform="translate(1030.371094 0)"/>
      <use xlink:href="#DejaVuSans-74" transform="translate(1091.650391 0)"/>
      <use xlink:href="#DejaVuSans-69" transform="translate(1130.859375 0)"/>
      <use xlink:href="#DejaVuSans-6f" transform="translate(1158.642578 0)"/>
      <use xlink:href="#DejaVuSans-6e" transform="translate(1219.824219 0)"/>
      <use xlink:href="#DejaVuSans-29" transform="translate(1283.203125 0)"/>
     </g>
    </g>
    <g id="line2d_29">
     <path d="M 232.60926 41.931898 
L 240.93926 41.931898 
L 249.26926 41.931898 
" style="fill: none; stroke: #ff7f0e; stroke-width: 1.5; stroke-linecap: round"/>
    </g>
    <g id="text_23">
     <!-- GNN-Net (Entropy) -->
     <g style="fill: #262626" transform="translate(255.93326 44.847398) scale(0.0833 -0.0833)">
      <defs>
       <path id="DejaVuSans-45" d="M 628 4666 
L 3578 4666 
L 3578 4134 
L 1259 4134 
L 1259 2753 
L 3481 2753 
L 3481 2222 
L 1259 2222 
L 1259 531 
L 3634 531 
L 3634 0 
L 628 0 
L 628 4666 
z
" transform="scale(0.015625)"/>
       <path id="DejaVuSans-79" d="M 2059 -325 
Q 1816 -950 1584 -1140 
Q 1353 -1331 966 -1331 
L 506 -1331 
L 506 -850 
L 844 -850 
Q 1081 -850 1212 -737 
Q 1344 -625 1503 -206 
L 1606 56 
L 191 3500 
L 800 3500 
L 1894 763 
L 2988 3500 
L 3597 3500 
L 2059 -325 
z
" transform="scale(0.015625)"/>
      </defs>
      <use xlink:href="#DejaVuSans-47"/>
      <use xlink:href="#DejaVuSans-4e" transform="translate(77.490234 0)"/>
      <use xlink:href="#DejaVuSans-4e" transform="translate(152.294922 0)"/>
      <use xlink:href="#DejaVuSans-2d" transform="translate(227.099609 0)"/>
      <use xlink:href="#DejaVuSans-4e" transform="translate(263.183594 0)"/>
      <use xlink:href="#DejaVuSans-65" transform="translate(337.988281 0)"/>
      <use xlink:href="#DejaVuSans-74" transform="translate(399.511719 0)"/>
      <use xlink:href="#DejaVuSans-20" transform="translate(438.720703 0)"/>
      <use xlink:href="#DejaVuSans-28" transform="translate(470.507812 0)"/>
      <use xlink:href="#DejaVuSans-45" transform="translate(509.521484 0)"/>
      <use xlink:href="#DejaVuSans-6e" transform="translate(572.705078 0)"/>
      <use xlink:href="#DejaVuSans-74" transform="translate(636.083984 0)"/>
      <use xlink:href="#DejaVuSans-72" transform="translate(675.292969 0)"/>
      <use xlink:href="#DejaVuSans-6f" transform="translate(714.15625 0)"/>
      <use xlink:href="#DejaVuSans-70" transform="translate(775.337891 0)"/>
      <use xlink:href="#DejaVuSans-79" transform="translate(838.814453 0)"/>
      <use xlink:href="#DejaVuSans-29" transform="translate(897.994141 0)"/>
     </g>
    </g>
    <g id="line2d_30">
     <path d="M 232.60926 54.158777 
L 240.93926 54.158777 
L 249.26926 54.158777 
" style="fill: none; stroke-dasharray: 5.55,2.4; stroke-dashoffset: 0; stroke: #ff7f0e; stroke-width: 1.5"/>
    </g>
    <g id="text_24">
     <!-- Baseline (Entropy) -->
     <g style="fill: #262626" transform="translate(255.93326 57.074277) scale(0.0833 -0.0833)">
      <use xlink:href="#DejaVuSans-42"/>
      <use xlink:href="#DejaVuSans-61" transform="translate(68.603516 0)"/>
      <use xlink:href="#DejaVuSans-73" transform="translate(129.882812 0)"/>
      <use xlink:href="#DejaVuSans-65" transform="translate(181.982422 0)"/>
      <use xlink:href="#DejaVuSans-6c" transform="translate(243.505859 0)"/>
      <use xlink:href="#DejaVuSans-69" transform="translate(271.289062 0)"/>
      <use xlink:href="#DejaVuSans-6e" transform="translate(299.072266 0)"/>
      <use xlink:href="#DejaVuSans-65" transform="translate(362.451172 0)"/>
      <use xlink:href="#DejaVuSans-20" transform="translate(423.974609 0)"/>
      <use xlink:href="#DejaVuSans-28" transform="translate(455.761719 0)"/>
      <use xlink:href="#DejaVuSans-45" transform="translate(494.775391 0)"/>
      <use xlink:href="#DejaVuSans-6e" transform="translate(557.958984 0)"/>
      <use xlink:href="#DejaVuSans-74" transform="translate(621.337891 0)"/>
      <use xlink:href="#DejaVuSans-72" transform="translate(660.546875 0)"/>
      <use xlink:href="#DejaVuSans-6f" transform="translate(699.410156 0)"/>
      <use xlink:href="#DejaVuSans-70" transform="translate(760.591797 0)"/>
      <use xlink:href="#DejaVuSans-79" transform="translate(824.068359 0)"/>
      <use xlink:href="#DejaVuSans-29" transform="translate(883.248047 0)"/>
     </g>
    </g>
    <g id="line2d_31">
     <path d="M 350.647963 41.931898 
L 358.977963 41.931898 
L 367.307963 41.931898 
" style="fill: none; stroke: #2ca02c; stroke-width: 1.5; stroke-linecap: round"/>
    </g>
    <g id="text_25">
     <!-- GNN-Net (Noise) -->
     <g style="fill: #262626" transform="translate(373.971963 44.847398) scale(0.0833 -0.0833)">
      <use xlink:href="#DejaVuSans-47"/>
      <use xlink:href="#DejaVuSans-4e" transform="translate(77.490234 0)"/>
      <use xlink:href="#DejaVuSans-4e" transform="translate(152.294922 0)"/>
      <use xlink:href="#DejaVuSans-2d" transform="translate(227.099609 0)"/>
      <use xlink:href="#DejaVuSans-4e" transform="translate(263.183594 0)"/>
      <use xlink:href="#DejaVuSans-65" transform="translate(337.988281 0)"/>
      <use xlink:href="#DejaVuSans-74" transform="translate(399.511719 0)"/>
      <use xlink:href="#DejaVuSans-20" transform="translate(438.720703 0)"/>
      <use xlink:href="#DejaVuSans-28" transform="translate(470.507812 0)"/>
      <use xlink:href="#DejaVuSans-4e" transform="translate(509.521484 0)"/>
      <use xlink:href="#DejaVuSans-6f" transform="translate(584.326172 0)"/>
      <use xlink:href="#DejaVuSans-69" transform="translate(645.507812 0)"/>
      <use xlink:href="#DejaVuSans-73" transform="translate(673.291016 0)"/>
      <use xlink:href="#DejaVuSans-65" transform="translate(725.390625 0)"/>
      <use xlink:href="#DejaVuSans-29" transform="translate(786.914062 0)"/>
     </g>
    </g>
    <g id="line2d_32">
     <path d="M 350.647963 54.158777 
L 358.977963 54.158777 
L 367.307963 54.158777 
" style="fill: none; stroke-dasharray: 5.55,2.4; stroke-dashoffset: 0; stroke: #2ca02c; stroke-width: 1.5"/>
    </g>
    <g id="text_26">
     <!-- Baseline (Noise) -->
     <g style="fill: #262626" transform="translate(373.971963 57.074277) scale(0.0833 -0.0833)">
      <use xlink:href="#DejaVuSans-42"/>
      <use xlink:href="#DejaVuSans-61" transform="translate(68.603516 0)"/>
      <use xlink:href="#DejaVuSans-73" transform="translate(129.882812 0)"/>
      <use xlink:href="#DejaVuSans-65" transform="translate(181.982422 0)"/>
      <use xlink:href="#DejaVuSans-6c" transform="translate(243.505859 0)"/>
      <use xlink:href="#DejaVuSans-69" transform="translate(271.289062 0)"/>
      <use xlink:href="#DejaVuSans-6e" transform="translate(299.072266 0)"/>
      <use xlink:href="#DejaVuSans-65" transform="translate(362.451172 0)"/>
      <use xlink:href="#DejaVuSans-20" transform="translate(423.974609 0)"/>
      <use xlink:href="#DejaVuSans-28" transform="translate(455.761719 0)"/>
      <use xlink:href="#DejaVuSans-4e" transform="translate(494.775391 0)"/>
      <use xlink:href="#DejaVuSans-6f" transform="translate(569.580078 0)"/>
      <use xlink:href="#DejaVuSans-69" transform="translate(630.761719 0)"/>
      <use xlink:href="#DejaVuSans-73" transform="translate(658.544922 0)"/>
      <use xlink:href="#DejaVuSans-65" transform="translate(710.644531 0)"/>
      <use xlink:href="#DejaVuSans-29" transform="translate(772.167969 0)"/>
     </g>
    </g>
    <g id="line2d_33">
     <path d="M 459.433859 41.931898 
L 467.763859 41.931898 
L 476.093859 41.931898 
" style="fill: none; stroke: #d62728; stroke-width: 1.5; stroke-linecap: round"/>
    </g>
    <g id="text_27">
     <!-- GNN-Net (Noise + Entropy) -->
     <g style="fill: #262626" transform="translate(482.757859 44.847398) scale(0.0833 -0.0833)">
      <defs>
       <path id="DejaVuSans-2b" d="M 2944 4013 
L 2944 2272 
L 4684 2272 
L 4684 1741 
L 2944 1741 
L 2944 0 
L 2419 0 
L 2419 1741 
L 678 1741 
L 678 2272 
L 2419 2272 
L 2419 4013 
L 2944 4013 
z
" transform="scale(0.015625)"/>
      </defs>
      <use xlink:href="#DejaVuSans-47"/>
      <use xlink:href="#DejaVuSans-4e" transform="translate(77.490234 0)"/>
      <use xlink:href="#DejaVuSans-4e" transform="translate(152.294922 0)"/>
      <use xlink:href="#DejaVuSans-2d" transform="translate(227.099609 0)"/>
      <use xlink:href="#DejaVuSans-4e" transform="translate(263.183594 0)"/>
      <use xlink:href="#DejaVuSans-65" transform="translate(337.988281 0)"/>
      <use xlink:href="#DejaVuSans-74" transform="translate(399.511719 0)"/>
      <use xlink:href="#DejaVuSans-20" transform="translate(438.720703 0)"/>
      <use xlink:href="#DejaVuSans-28" transform="translate(470.507812 0)"/>
      <use xlink:href="#DejaVuSans-4e" transform="translate(509.521484 0)"/>
      <use xlink:href="#DejaVuSans-6f" transform="translate(584.326172 0)"/>
      <use xlink:href="#DejaVuSans-69" transform="translate(645.507812 0)"/>
      <use xlink:href="#DejaVuSans-73" transform="translate(673.291016 0)"/>
      <use xlink:href="#DejaVuSans-65" transform="translate(725.390625 0)"/>
      <use xlink:href="#DejaVuSans-20" transform="translate(786.914062 0)"/>
      <use xlink:href="#DejaVuSans-2b" transform="translate(818.701172 0)"/>
      <use xlink:href="#DejaVuSans-20" transform="translate(902.490234 0)"/>
      <use xlink:href="#DejaVuSans-45" transform="translate(934.277344 0)"/>
      <use xlink:href="#DejaVuSans-6e" transform="translate(997.460938 0)"/>
      <use xlink:href="#DejaVuSans-74" transform="translate(1060.839844 0)"/>
      <use xlink:href="#DejaVuSans-72" transform="translate(1100.048828 0)"/>
      <use xlink:href="#DejaVuSans-6f" transform="translate(1138.912109 0)"/>
      <use xlink:href="#DejaVuSans-70" transform="translate(1200.09375 0)"/>
      <use xlink:href="#DejaVuSans-79" transform="translate(1263.570312 0)"/>
      <use xlink:href="#DejaVuSans-29" transform="translate(1322.75 0)"/>
     </g>
    </g>
    <g id="line2d_34">
     <path d="M 459.433859 54.158777 
L 467.763859 54.158777 
L 476.093859 54.158777 
" style="fill: none; stroke-dasharray: 5.55,2.4; stroke-dashoffset: 0; stroke: #d62728; stroke-width: 1.5"/>
    </g>
    <g id="text_28">
     <!-- Baseline (Noise + Entropy) -->
     <g style="fill: #262626" transform="translate(482.757859 57.074277) scale(0.0833 -0.0833)">
      <use xlink:href="#DejaVuSans-42"/>
      <use xlink:href="#DejaVuSans-61" transform="translate(68.603516 0)"/>
      <use xlink:href="#DejaVuSans-73" transform="translate(129.882812 0)"/>
      <use xlink:href="#DejaVuSans-65" transform="translate(181.982422 0)"/>
      <use xlink:href="#DejaVuSans-6c" transform="translate(243.505859 0)"/>
      <use xlink:href="#DejaVuSans-69" transform="translate(271.289062 0)"/>
      <use xlink:href="#DejaVuSans-6e" transform="translate(299.072266 0)"/>
      <use xlink:href="#DejaVuSans-65" transform="translate(362.451172 0)"/>
      <use xlink:href="#DejaVuSans-20" transform="translate(423.974609 0)"/>
      <use xlink:href="#DejaVuSans-28" transform="translate(455.761719 0)"/>
      <use xlink:href="#DejaVuSans-4e" transform="translate(494.775391 0)"/>
      <use xlink:href="#DejaVuSans-6f" transform="translate(569.580078 0)"/>
      <use xlink:href="#DejaVuSans-69" transform="translate(630.761719 0)"/>
      <use xlink:href="#DejaVuSans-73" transform="translate(658.544922 0)"/>
      <use xlink:href="#DejaVuSans-65" transform="translate(710.644531 0)"/>
      <use xlink:href="#DejaVuSans-20" transform="translate(772.167969 0)"/>
      <use xlink:href="#DejaVuSans-2b" transform="translate(803.955078 0)"/>
      <use xlink:href="#DejaVuSans-20" transform="translate(887.744141 0)"/>
      <use xlink:href="#DejaVuSans-45" transform="translate(919.53125 0)"/>
      <use xlink:href="#DejaVuSans-6e" transform="translate(982.714844 0)"/>
      <use xlink:href="#DejaVuSans-74" transform="translate(1046.09375 0)"/>
      <use xlink:href="#DejaVuSans-72" transform="translate(1085.302734 0)"/>
      <use xlink:href="#DejaVuSans-6f" transform="translate(1124.166016 0)"/>
      <use xlink:href="#DejaVuSans-70" transform="translate(1185.347656 0)"/>
      <use xlink:href="#DejaVuSans-79" transform="translate(1248.824219 0)"/>
      <use xlink:href="#DejaVuSans-29" transform="translate(1308.003906 0)"/>
     </g>
    </g>
   </g>
  </g>
  <g id="text_29">
   <!-- Rewards: CartPole-v1 (GNN-Net) -->
   <g style="fill: #262626" transform="translate(213.915 17.758125) scale(0.12 -0.12)">
    <defs>
     <path id="DejaVuSans-Bold-52" d="M 2297 2597 
Q 2675 2597 2839 2737 
Q 3003 2878 3003 3200 
Q 3003 3519 2839 3656 
Q 2675 3794 2297 3794 
L 1791 3794 
L 1791 2597 
L 2297 2597 
z
M 1791 1766 
L 1791 0 
L 588 0 
L 588 4666 
L 2425 4666 
Q 3347 4666 3776 4356 
Q 4206 4047 4206 3378 
Q 4206 2916 3982 2619 
Q 3759 2322 3309 2181 
Q 3556 2125 3751 1926 
Q 3947 1728 4147 1325 
L 4800 0 
L 3519 0 
L 2950 1159 
Q 2778 1509 2601 1637 
Q 2425 1766 2131 1766 
L 1791 1766 
z
" transform="scale(0.015625)"/>
     <path id="DejaVuSans-Bold-65" d="M 4031 1759 
L 4031 1441 
L 1416 1441 
Q 1456 1047 1700 850 
Q 1944 653 2381 653 
Q 2734 653 3104 758 
Q 3475 863 3866 1075 
L 3866 213 
Q 3469 63 3072 -14 
Q 2675 -91 2278 -91 
Q 1328 -91 801 392 
Q 275 875 275 1747 
Q 275 2603 792 3093 
Q 1309 3584 2216 3584 
Q 3041 3584 3536 3087 
Q 4031 2591 4031 1759 
z
M 2881 2131 
Q 2881 2450 2695 2645 
Q 2509 2841 2209 2841 
Q 1884 2841 1681 2658 
Q 1478 2475 1428 2131 
L 2881 2131 
z
" transform="scale(0.015625)"/>
     <path id="DejaVuSans-Bold-77" d="M 225 3500 
L 1313 3500 
L 1900 1088 
L 2491 3500 
L 3425 3500 
L 4013 1113 
L 4603 3500 
L 5691 3500 
L 4769 0 
L 3547 0 
L 2956 2406 
L 2369 0 
L 1147 0 
L 225 3500 
z
" transform="scale(0.015625)"/>
     <path id="DejaVuSans-Bold-61" d="M 2106 1575 
Q 1756 1575 1579 1456 
Q 1403 1338 1403 1106 
Q 1403 894 1545 773 
Q 1688 653 1941 653 
Q 2256 653 2472 879 
Q 2688 1106 2688 1447 
L 2688 1575 
L 2106 1575 
z
M 3816 1997 
L 3816 0 
L 2688 0 
L 2688 519 
Q 2463 200 2181 54 
Q 1900 -91 1497 -91 
Q 953 -91 614 226 
Q 275 544 275 1050 
Q 275 1666 698 1953 
Q 1122 2241 2028 2241 
L 2688 2241 
L 2688 2328 
Q 2688 2594 2478 2717 
Q 2269 2841 1825 2841 
Q 1466 2841 1156 2769 
Q 847 2697 581 2553 
L 581 3406 
Q 941 3494 1303 3539 
Q 1666 3584 2028 3584 
Q 2975 3584 3395 3211 
Q 3816 2838 3816 1997 
z
" transform="scale(0.015625)"/>
     <path id="DejaVuSans-Bold-72" d="M 3138 2547 
Q 2991 2616 2845 2648 
Q 2700 2681 2553 2681 
Q 2122 2681 1889 2404 
Q 1656 2128 1656 1613 
L 1656 0 
L 538 0 
L 538 3500 
L 1656 3500 
L 1656 2925 
Q 1872 3269 2151 3426 
Q 2431 3584 2822 3584 
Q 2878 3584 2943 3579 
Q 3009 3575 3134 3559 
L 3138 2547 
z
" transform="scale(0.015625)"/>
     <path id="DejaVuSans-Bold-64" d="M 2919 2988 
L 2919 4863 
L 4044 4863 
L 4044 0 
L 2919 0 
L 2919 506 
Q 2688 197 2409 53 
Q 2131 -91 1766 -91 
Q 1119 -91 703 423 
Q 288 938 288 1747 
Q 288 2556 703 3070 
Q 1119 3584 1766 3584 
Q 2128 3584 2408 3439 
Q 2688 3294 2919 2988 
z
M 2181 722 
Q 2541 722 2730 984 
Q 2919 1247 2919 1747 
Q 2919 2247 2730 2509 
Q 2541 2772 2181 2772 
Q 1825 2772 1636 2509 
Q 1447 2247 1447 1747 
Q 1447 1247 1636 984 
Q 1825 722 2181 722 
z
" transform="scale(0.015625)"/>
     <path id="DejaVuSans-Bold-73" d="M 3272 3391 
L 3272 2541 
Q 2913 2691 2578 2766 
Q 2244 2841 1947 2841 
Q 1628 2841 1473 2761 
Q 1319 2681 1319 2516 
Q 1319 2381 1436 2309 
Q 1553 2238 1856 2203 
L 2053 2175 
Q 2913 2066 3209 1816 
Q 3506 1566 3506 1031 
Q 3506 472 3093 190 
Q 2681 -91 1863 -91 
Q 1516 -91 1145 -36 
Q 775 19 384 128 
L 384 978 
Q 719 816 1070 734 
Q 1422 653 1784 653 
Q 2113 653 2278 743 
Q 2444 834 2444 1013 
Q 2444 1163 2330 1236 
Q 2216 1309 1875 1350 
L 1678 1375 
Q 931 1469 631 1722 
Q 331 1975 331 2491 
Q 331 3047 712 3315 
Q 1094 3584 1881 3584 
Q 2191 3584 2531 3537 
Q 2872 3491 3272 3391 
z
" transform="scale(0.015625)"/>
     <path id="DejaVuSans-Bold-3a" d="M 716 3500 
L 1844 3500 
L 1844 2291 
L 716 2291 
L 716 3500 
z
M 716 1209 
L 1844 1209 
L 1844 0 
L 716 0 
L 716 1209 
z
" transform="scale(0.015625)"/>
     <path id="DejaVuSans-Bold-20" transform="scale(0.015625)"/>
     <path id="DejaVuSans-Bold-43" d="M 4288 256 
Q 3956 84 3597 -3 
Q 3238 -91 2847 -91 
Q 1681 -91 1000 561 
Q 319 1213 319 2328 
Q 319 3447 1000 4098 
Q 1681 4750 2847 4750 
Q 3238 4750 3597 4662 
Q 3956 4575 4288 4403 
L 4288 3438 
Q 3953 3666 3628 3772 
Q 3303 3878 2944 3878 
Q 2300 3878 1931 3465 
Q 1563 3053 1563 2328 
Q 1563 1606 1931 1193 
Q 2300 781 2944 781 
Q 3303 781 3628 887 
Q 3953 994 4288 1222 
L 4288 256 
z
" transform="scale(0.015625)"/>
     <path id="DejaVuSans-Bold-74" d="M 1759 4494 
L 1759 3500 
L 2913 3500 
L 2913 2700 
L 1759 2700 
L 1759 1216 
Q 1759 972 1856 886 
Q 1953 800 2241 800 
L 2816 800 
L 2816 0 
L 1856 0 
Q 1194 0 917 276 
Q 641 553 641 1216 
L 641 2700 
L 84 2700 
L 84 3500 
L 641 3500 
L 641 4494 
L 1759 4494 
z
" transform="scale(0.015625)"/>
     <path id="DejaVuSans-Bold-50" d="M 588 4666 
L 2584 4666 
Q 3475 4666 3951 4270 
Q 4428 3875 4428 3144 
Q 4428 2409 3951 2014 
Q 3475 1619 2584 1619 
L 1791 1619 
L 1791 0 
L 588 0 
L 588 4666 
z
M 1791 3794 
L 1791 2491 
L 2456 2491 
Q 2806 2491 2997 2661 
Q 3188 2831 3188 3144 
Q 3188 3456 2997 3625 
Q 2806 3794 2456 3794 
L 1791 3794 
z
" transform="scale(0.015625)"/>
     <path id="DejaVuSans-Bold-6f" d="M 2203 2784 
Q 1831 2784 1636 2517 
Q 1441 2250 1441 1747 
Q 1441 1244 1636 976 
Q 1831 709 2203 709 
Q 2569 709 2762 976 
Q 2956 1244 2956 1747 
Q 2956 2250 2762 2517 
Q 2569 2784 2203 2784 
z
M 2203 3584 
Q 3106 3584 3614 3096 
Q 4122 2609 4122 1747 
Q 4122 884 3614 396 
Q 3106 -91 2203 -91 
Q 1297 -91 786 396 
Q 275 884 275 1747 
Q 275 2609 786 3096 
Q 1297 3584 2203 3584 
z
" transform="scale(0.015625)"/>
     <path id="DejaVuSans-Bold-6c" d="M 538 4863 
L 1656 4863 
L 1656 0 
L 538 0 
L 538 4863 
z
" transform="scale(0.015625)"/>
     <path id="DejaVuSans-Bold-2d" d="M 347 2297 
L 2309 2297 
L 2309 1388 
L 347 1388 
L 347 2297 
z
" transform="scale(0.015625)"/>
     <path id="DejaVuSans-Bold-76" d="M 97 3500 
L 1216 3500 
L 2088 1081 
L 2956 3500 
L 4078 3500 
L 2700 0 
L 1472 0 
L 97 3500 
z
" transform="scale(0.015625)"/>
     <path id="DejaVuSans-Bold-31" d="M 750 831 
L 1813 831 
L 1813 3847 
L 722 3622 
L 722 4441 
L 1806 4666 
L 2950 4666 
L 2950 831 
L 4013 831 
L 4013 0 
L 750 0 
L 750 831 
z
" transform="scale(0.015625)"/>
     <path id="DejaVuSans-Bold-28" d="M 2413 -844 
L 1484 -844 
Q 1006 -72 778 623 
Q 550 1319 550 2003 
Q 550 2688 779 3389 
Q 1009 4091 1484 4856 
L 2413 4856 
Q 2013 4116 1813 3408 
Q 1613 2700 1613 2009 
Q 1613 1319 1811 609 
Q 2009 -100 2413 -844 
z
" transform="scale(0.015625)"/>
     <path id="DejaVuSans-Bold-47" d="M 4781 347 
Q 4331 128 3847 18 
Q 3363 -91 2847 -91 
Q 1681 -91 1000 561 
Q 319 1213 319 2328 
Q 319 3456 1012 4103 
Q 1706 4750 2913 4750 
Q 3378 4750 3804 4662 
Q 4231 4575 4609 4403 
L 4609 3438 
Q 4219 3659 3833 3768 
Q 3447 3878 3059 3878 
Q 2341 3878 1952 3476 
Q 1563 3075 1563 2328 
Q 1563 1588 1938 1184 
Q 2313 781 3003 781 
Q 3191 781 3352 804 
Q 3513 828 3641 878 
L 3641 1784 
L 2906 1784 
L 2906 2591 
L 4781 2591 
L 4781 347 
z
" transform="scale(0.015625)"/>
     <path id="DejaVuSans-Bold-4e" d="M 588 4666 
L 1931 4666 
L 3628 1466 
L 3628 4666 
L 4769 4666 
L 4769 0 
L 3425 0 
L 1728 3200 
L 1728 0 
L 588 0 
L 588 4666 
z
" transform="scale(0.015625)"/>
     <path id="DejaVuSans-Bold-29" d="M 513 -844 
Q 913 -100 1113 609 
Q 1313 1319 1313 2009 
Q 1313 2700 1113 3408 
Q 913 4116 513 4856 
L 1441 4856 
Q 1916 4091 2145 3389 
Q 2375 2688 2375 2003 
Q 2375 1319 2147 623 
Q 1919 -72 1441 -844 
L 513 -844 
z
" transform="scale(0.015625)"/>
    </defs>
    <use xlink:href="#DejaVuSans-Bold-52"/>
    <use xlink:href="#DejaVuSans-Bold-65" transform="translate(77.001953 0)"/>
    <use xlink:href="#DejaVuSans-Bold-77" transform="translate(144.824219 0)"/>
    <use xlink:href="#DejaVuSans-Bold-61" transform="translate(237.207031 0)"/>
    <use xlink:href="#DejaVuSans-Bold-72" transform="translate(304.6875 0)"/>
    <use xlink:href="#DejaVuSans-Bold-64" transform="translate(354.003906 0)"/>
    <use xlink:href="#DejaVuSans-Bold-73" transform="translate(425.585938 0)"/>
    <use xlink:href="#DejaVuSans-Bold-3a" transform="translate(485.107422 0)"/>
    <use xlink:href="#DejaVuSans-Bold-20" transform="translate(525.097656 0)"/>
    <use xlink:href="#DejaVuSans-Bold-43" transform="translate(559.912109 0)"/>
    <use xlink:href="#DejaVuSans-Bold-61" transform="translate(633.300781 0)"/>
    <use xlink:href="#DejaVuSans-Bold-72" transform="translate(700.78125 0)"/>
    <use xlink:href="#DejaVuSans-Bold-74" transform="translate(750.097656 0)"/>
    <use xlink:href="#DejaVuSans-Bold-50" transform="translate(797.900391 0)"/>
    <use xlink:href="#DejaVuSans-Bold-6f" transform="translate(871.191406 0)"/>
    <use xlink:href="#DejaVuSans-Bold-6c" transform="translate(939.892578 0)"/>
    <use xlink:href="#DejaVuSans-Bold-65" transform="translate(974.169922 0)"/>
    <use xlink:href="#DejaVuSans-Bold-2d" transform="translate(1041.992188 0)"/>
    <use xlink:href="#DejaVuSans-Bold-76" transform="translate(1083.496094 0)"/>
    <use xlink:href="#DejaVuSans-Bold-31" transform="translate(1148.681641 0)"/>
    <use xlink:href="#DejaVuSans-Bold-20" transform="translate(1218.261719 0)"/>
    <use xlink:href="#DejaVuSans-Bold-28" transform="translate(1253.076172 0)"/>
    <use xlink:href="#DejaVuSans-Bold-47" transform="translate(1298.779297 0)"/>
    <use xlink:href="#DejaVuSans-Bold-4e" transform="translate(1380.859375 0)"/>
    <use xlink:href="#DejaVuSans-Bold-4e" transform="translate(1464.550781 0)"/>
    <use xlink:href="#DejaVuSans-Bold-2d" transform="translate(1548.242188 0)"/>
    <use xlink:href="#DejaVuSans-Bold-4e" transform="translate(1589.746094 0)"/>
    <use xlink:href="#DejaVuSans-Bold-65" transform="translate(1673.4375 0)"/>
    <use xlink:href="#DejaVuSans-Bold-74" transform="translate(1741.259766 0)"/>
    <use xlink:href="#DejaVuSans-Bold-29" transform="translate(1789.0625 0)"/>
   </g>
  </g>
 </g>
 <defs>
  <clipPath id="p3440e26cae">
   <rect x="50.87" y="63.659" width="575.71" height="326.381"/>
  </clipPath>
 </defs>
</svg>
