<?xml version="1.0" encoding="utf-8" standalone="no"?>
<!DOCTYPE svg PUBLIC "-//W3C//DTD SVG 1.1//EN"
  "http://www.w3.org/Graphics/SVG/1.1/DTD/svg11.dtd">
<svg xmlns:xlink="http://www.w3.org/1999/xlink" width="648pt" height="432pt" viewBox="0 0 648 432" xmlns="http://www.w3.org/2000/svg" version="1.1">
 <metadata>
  <rdf:RDF xmlns:dc="http://purl.org/dc/elements/1.1/" xmlns:cc="http://creativecommons.org/ns#" xmlns:rdf="http://www.w3.org/1999/02/22-rdf-syntax-ns#">
   <cc:Work>
    <dc:type rdf:resource="http://purl.org/dc/dcmitype/StillImage"/>
    <dc:date>2025-07-31T05:18:10.127590</dc:date>
    <dc:format>image/svg+xml</dc:format>
    <dc:creator>
     <cc:Agent>
      <dc:title>Matplotlib v3.10.0, https://matplotlib.org/</dc:title>
     </cc:Agent>
    </dc:creator>
   </cc:Work>
  </rdf:RDF>
 </metadata>
 <defs>
  <style type="text/css">*{stroke-linejoin: round; stroke-linecap: butt}</style>
 </defs>
 <g id="figure_1">
  <g id="patch_1">
   <path d="M 0 432 
L 648 432 
L 648 0 
L 0 0 
z
" style="fill: #ffffff"/>
  </g>
  <g id="axes_1">
   <g id="patch_2">
    <path d="M 44.44 400.52 
L 623.801429 400.52 
L 623.801429 39.6 
L 44.44 39.6 
z
" style="fill: #eaeaf2"/>
   </g>
   <g id="matplotlib.axis_1">
    <g id="xtick_1">
     <g id="line2d_1">
      <path d="M 55.503554 400.52 
L 55.503554 39.6 
" clip-path="url(#p2fa0b960c0)" style="fill: none; stroke: #ffffff; stroke-width: 0.8; stroke-linecap: round"/>
     </g>
     <g id="text_1">
      <!-- 0 -->
      <g style="fill: #262626" transform="translate(51.049804 418.157812) scale(0.14 -0.14)">
       <defs>
        <path id="DejaVuSans-30" d="M 2034 4250 
Q 1547 4250 1301 3770 
Q 1056 3291 1056 2328 
Q 1056 1369 1301 889 
Q 1547 409 2034 409 
Q 2525 409 2770 889 
Q 3016 1369 3016 2328 
Q 3016 3291 2770 3770 
Q 2525 4250 2034 4250 
z
M 2034 4750 
Q 2819 4750 3233 4129 
Q 3647 3509 3647 2328 
Q 3647 1150 3233 529 
Q 2819 -91 2034 -91 
Q 1250 -91 836 529 
Q 422 1150 422 2328 
Q 422 3509 836 4129 
Q 1250 4750 2034 4750 
z
" transform="scale(0.015625)"/>
       </defs>
       <use xlink:href="#DejaVuSans-30"/>
      </g>
     </g>
    </g>
    <g id="xtick_2">
     <g id="line2d_2">
      <path d="M 608.681239 400.52 
L 608.681239 39.6 
" clip-path="url(#p2fa0b960c0)" style="fill: none; stroke: #ffffff; stroke-width: 0.8; stroke-linecap: round"/>
     </g>
     <g id="text_2">
      <!-- 600000 -->
      <g style="fill: #262626" transform="translate(581.958739 418.157812) scale(0.14 -0.14)">
       <defs>
        <path id="DejaVuSans-36" d="M 2113 2584 
Q 1688 2584 1439 2293 
Q 1191 2003 1191 1497 
Q 1191 994 1439 701 
Q 1688 409 2113 409 
Q 2538 409 2786 701 
Q 3034 994 3034 1497 
Q 3034 2003 2786 2293 
Q 2538 2584 2113 2584 
z
M 3366 4563 
L 3366 3988 
Q 3128 4100 2886 4159 
Q 2644 4219 2406 4219 
Q 1781 4219 1451 3797 
Q 1122 3375 1075 2522 
Q 1259 2794 1537 2939 
Q 1816 3084 2150 3084 
Q 2853 3084 3261 2657 
Q 3669 2231 3669 1497 
Q 3669 778 3244 343 
Q 2819 -91 2113 -91 
Q 1303 -91 875 529 
Q 447 1150 447 2328 
Q 447 3434 972 4092 
Q 1497 4750 2381 4750 
Q 2619 4750 2861 4703 
Q 3103 4656 3366 4563 
z
" transform="scale(0.015625)"/>
       </defs>
       <use xlink:href="#DejaVuSans-36"/>
       <use xlink:href="#DejaVuSans-30" transform="translate(63.623047 0)"/>
       <use xlink:href="#DejaVuSans-30" transform="translate(127.246094 0)"/>
       <use xlink:href="#DejaVuSans-30" transform="translate(190.869141 0)"/>
       <use xlink:href="#DejaVuSans-30" transform="translate(254.492188 0)"/>
       <use xlink:href="#DejaVuSans-30" transform="translate(318.115234 0)"/>
      </g>
     </g>
    </g>
   </g>
   <g id="matplotlib.axis_2">
    <g id="ytick_1">
     <g id="line2d_3">
      <path d="M 44.44 390.305283 
L 623.801429 390.305283 
" clip-path="url(#p2fa0b960c0)" style="fill: none; stroke: #ffffff; stroke-width: 0.8; stroke-linecap: round"/>
     </g>
     <g id="text_3">
      <!-- 0 -->
      <g style="fill: #262626" transform="translate(28.5325 395.624189) scale(0.14 -0.14)">
       <use xlink:href="#DejaVuSans-30"/>
      </g>
     </g>
    </g>
    <g id="ytick_2">
     <g id="line2d_4">
      <path d="M 44.44 322.20717 
L 623.801429 322.20717 
" clip-path="url(#p2fa0b960c0)" style="fill: none; stroke: #ffffff; stroke-width: 0.8; stroke-linecap: round"/>
     </g>
     <g id="text_4">
      <!-- 100 -->
      <g style="fill: #262626" transform="translate(10.7175 327.526076) scale(0.14 -0.14)">
       <defs>
        <path id="DejaVuSans-31" d="M 794 531 
L 1825 531 
L 1825 4091 
L 703 3866 
L 703 4441 
L 1819 4666 
L 2450 4666 
L 2450 531 
L 3481 531 
L 3481 0 
L 794 0 
L 794 531 
z
" transform="scale(0.015625)"/>
       </defs>
       <use xlink:href="#DejaVuSans-31"/>
       <use xlink:href="#DejaVuSans-30" transform="translate(63.623047 0)"/>
       <use xlink:href="#DejaVuSans-30" transform="translate(127.246094 0)"/>
      </g>
     </g>
    </g>
    <g id="ytick_3">
     <g id="line2d_5">
      <path d="M 44.44 254.109057 
L 623.801429 254.109057 
" clip-path="url(#p2fa0b960c0)" style="fill: none; stroke: #ffffff; stroke-width: 0.8; stroke-linecap: round"/>
     </g>
     <g id="text_5">
      <!-- 200 -->
      <g style="fill: #262626" transform="translate(10.7175 259.427963) scale(0.14 -0.14)">
       <defs>
        <path id="DejaVuSans-32" d="M 1228 531 
L 3431 531 
L 3431 0 
L 469 0 
L 469 531 
Q 828 903 1448 1529 
Q 2069 2156 2228 2338 
Q 2531 2678 2651 2914 
Q 2772 3150 2772 3378 
Q 2772 3750 2511 3984 
Q 2250 4219 1831 4219 
Q 1534 4219 1204 4116 
Q 875 4013 500 3803 
L 500 4441 
Q 881 4594 1212 4672 
Q 1544 4750 1819 4750 
Q 2544 4750 2975 4387 
Q 3406 4025 3406 3419 
Q 3406 3131 3298 2873 
Q 3191 2616 2906 2266 
Q 2828 2175 2409 1742 
Q 1991 1309 1228 531 
z
" transform="scale(0.015625)"/>
       </defs>
       <use xlink:href="#DejaVuSans-32"/>
       <use xlink:href="#DejaVuSans-30" transform="translate(63.623047 0)"/>
       <use xlink:href="#DejaVuSans-30" transform="translate(127.246094 0)"/>
      </g>
     </g>
    </g>
    <g id="ytick_4">
     <g id="line2d_6">
      <path d="M 44.44 186.010943 
L 623.801429 186.010943 
" clip-path="url(#p2fa0b960c0)" style="fill: none; stroke: #ffffff; stroke-width: 0.8; stroke-linecap: round"/>
     </g>
     <g id="text_6">
      <!-- 300 -->
      <g style="fill: #262626" transform="translate(10.7175 191.32985) scale(0.14 -0.14)">
       <defs>
        <path id="DejaVuSans-33" d="M 2597 2516 
Q 3050 2419 3304 2112 
Q 3559 1806 3559 1356 
Q 3559 666 3084 287 
Q 2609 -91 1734 -91 
Q 1441 -91 1130 -33 
Q 819 25 488 141 
L 488 750 
Q 750 597 1062 519 
Q 1375 441 1716 441 
Q 2309 441 2620 675 
Q 2931 909 2931 1356 
Q 2931 1769 2642 2001 
Q 2353 2234 1838 2234 
L 1294 2234 
L 1294 2753 
L 1863 2753 
Q 2328 2753 2575 2939 
Q 2822 3125 2822 3475 
Q 2822 3834 2567 4026 
Q 2313 4219 1838 4219 
Q 1578 4219 1281 4162 
Q 984 4106 628 3988 
L 628 4550 
Q 988 4650 1302 4700 
Q 1616 4750 1894 4750 
Q 2613 4750 3031 4423 
Q 3450 4097 3450 3541 
Q 3450 3153 3228 2886 
Q 3006 2619 2597 2516 
z
" transform="scale(0.015625)"/>
       </defs>
       <use xlink:href="#DejaVuSans-33"/>
       <use xlink:href="#DejaVuSans-30" transform="translate(63.623047 0)"/>
       <use xlink:href="#DejaVuSans-30" transform="translate(127.246094 0)"/>
      </g>
     </g>
    </g>
    <g id="ytick_5">
     <g id="line2d_7">
      <path d="M 44.44 117.91283 
L 623.801429 117.91283 
" clip-path="url(#p2fa0b960c0)" style="fill: none; stroke: #ffffff; stroke-width: 0.8; stroke-linecap: round"/>
     </g>
     <g id="text_7">
      <!-- 400 -->
      <g style="fill: #262626" transform="translate(10.7175 123.231736) scale(0.14 -0.14)">
       <defs>
        <path id="DejaVuSans-34" d="M 2419 4116 
L 825 1625 
L 2419 1625 
L 2419 4116 
z
M 2253 4666 
L 3047 4666 
L 3047 1625 
L 3713 1625 
L 3713 1100 
L 3047 1100 
L 3047 0 
L 2419 0 
L 2419 1100 
L 313 1100 
L 313 1709 
L 2253 4666 
z
" transform="scale(0.015625)"/>
       </defs>
       <use xlink:href="#DejaVuSans-34"/>
       <use xlink:href="#DejaVuSans-30" transform="translate(63.623047 0)"/>
       <use xlink:href="#DejaVuSans-30" transform="translate(127.246094 0)"/>
      </g>
     </g>
    </g>
    <g id="ytick_6">
     <g id="line2d_8">
      <path d="M 44.44 49.814717 
L 623.801429 49.814717 
" clip-path="url(#p2fa0b960c0)" style="fill: none; stroke: #ffffff; stroke-width: 0.8; stroke-linecap: round"/>
     </g>
     <g id="text_8">
      <!-- 500 -->
      <g style="fill: #262626" transform="translate(10.7175 55.133623) scale(0.14 -0.14)">
       <defs>
        <path id="DejaVuSans-35" d="M 691 4666 
L 3169 4666 
L 3169 4134 
L 1269 4134 
L 1269 2991 
Q 1406 3038 1543 3061 
Q 1681 3084 1819 3084 
Q 2600 3084 3056 2656 
Q 3513 2228 3513 1497 
Q 3513 744 3044 326 
Q 2575 -91 1722 -91 
Q 1428 -91 1123 -41 
Q 819 9 494 109 
L 494 744 
Q 775 591 1075 516 
Q 1375 441 1709 441 
Q 2250 441 2565 725 
Q 2881 1009 2881 1497 
Q 2881 1984 2565 2268 
Q 2250 2553 1709 2553 
Q 1456 2553 1204 2497 
Q 953 2441 691 2322 
L 691 4666 
z
" transform="scale(0.015625)"/>
       </defs>
       <use xlink:href="#DejaVuSans-35"/>
       <use xlink:href="#DejaVuSans-30" transform="translate(63.623047 0)"/>
       <use xlink:href="#DejaVuSans-30" transform="translate(127.246094 0)"/>
      </g>
     </g>
    </g>
   </g>
   <g id="FillBetweenPolyCollection_1">
    <path d="M 55.503554 375.014409 
L 55.503554 376.671483 
L 66.832633 374.143206 
L 78.161712 359.384128 
L 89.490791 344.415915 
L 100.81987 298.08404 
L 112.148949 280.950141 
L 123.478028 262.194655 
L 134.807107 262.647258 
L 146.136186 248.975464 
L 157.465265 211.722195 
L 168.794344 153.101771 
L 180.123423 167.884294 
L 191.452502 182.877196 
L 202.781581 132.892787 
L 214.11066 128.275067 
L 225.439739 108.224737 
L 236.768818 107.892453 
L 248.097897 75.312541 
L 259.426976 71.094718 
L 270.756055 81.741184 
L 282.085134 81.329412 
L 293.414213 98.845859 
L 304.743292 113.524788 
L 316.072371 91.949938 
L 327.40145 82.754722 
L 338.730529 85.810306 
L 350.059608 64.499009 
L 361.388687 67.840631 
L 372.717766 61.894191 
L 384.046845 93.592579 
L 395.375924 73.885839 
L 406.705003 64.51005 
L 418.034082 69.552082 
L 429.363161 81.69106 
L 440.69224 66.756183 
L 452.021318 84.593431 
L 463.350397 65.27986 
L 474.679476 76.062194 
L 486.008555 55.603568 
L 497.337634 59.691136 
L 508.666713 85.221646 
L 519.995792 60.705697 
L 531.324871 90.889314 
L 542.65395 79.718332 
L 553.983029 79.808309 
L 565.312108 71.775867 
L 576.641187 60.599756 
L 587.970266 69.058768 
L 599.299345 62.091716 
L 610.628424 67.055207 
L 610.628424 47.947376 
L 610.628424 47.947376 
L 599.299345 51.412708 
L 587.970266 46.607772 
L 576.641187 46.673692 
L 565.312108 54.837445 
L 553.983029 51.725091 
L 542.65395 49.772124 
L 531.324871 52.510182 
L 519.995792 50.006705 
L 508.666713 50.533837 
L 497.337634 47.888753 
L 486.008555 50.222794 
L 474.679476 50.040382 
L 463.350397 49.382232 
L 452.021318 62.227995 
L 440.69224 53.28566 
L 429.363161 51.578842 
L 418.034082 49.553413 
L 406.705003 53.471826 
L 395.375924 53.136061 
L 384.046845 38.298336 
L 372.717766 51.116522 
L 361.388687 48.813331 
L 350.059608 52.767836 
L 338.730529 55.767565 
L 327.40145 52.473001 
L 316.072371 59.468111 
L 304.743292 65.779438 
L 293.414213 63.348717 
L 282.085134 53.489722 
L 270.756055 62.747882 
L 259.426976 55.382397 
L 248.097897 53.428836 
L 236.768818 48.105194 
L 225.439739 66.516915 
L 214.11066 54.621334 
L 202.781581 107.529496 
L 191.452502 126.681696 
L 180.123423 117.125229 
L 168.794344 104.328016 
L 157.465265 163.347082 
L 146.136186 173.966787 
L 134.807107 230.402001 
L 123.478028 228.675464 
L 112.148949 229.685455 
L 100.81987 271.013787 
L 89.490791 312.27311 
L 78.161712 349.536149 
L 66.832633 369.626281 
L 55.503554 375.014409 
z
" clip-path="url(#p2fa0b960c0)" style="fill: #0000ff; fill-opacity: 0.1"/>
   </g>
   <g id="line2d_9">
    <path d="M 55.503554 375.842946 
L 66.832633 371.884743 
L 78.161712 354.460139 
L 89.490791 328.344512 
L 100.81987 284.548913 
L 112.148949 255.317798 
L 123.478028 245.435059 
L 134.807107 246.524629 
L 146.136186 211.471125 
L 157.465265 187.534639 
L 168.794344 128.714893 
L 180.123423 142.504761 
L 191.452502 154.779446 
L 202.781581 120.211142 
L 214.11066 91.448201 
L 225.439739 87.370826 
L 236.768818 77.998824 
L 248.097897 64.370689 
L 259.426976 63.238558 
L 270.756055 72.244533 
L 282.085134 67.409567 
L 293.414213 81.097288 
L 304.743292 89.652113 
L 316.072371 75.709025 
L 327.40145 67.613861 
L 338.730529 70.788936 
L 350.059608 58.633423 
L 361.388687 58.326981 
L 372.717766 56.505357 
L 384.046845 65.945458 
L 395.375924 63.51095 
L 406.705003 58.990938 
L 418.034082 59.552747 
L 429.363161 66.634951 
L 440.69224 60.020922 
L 452.021318 73.410713 
L 463.350397 57.331046 
L 474.679476 63.051288 
L 486.008555 52.913181 
L 497.337634 53.789944 
L 508.666713 67.877742 
L 519.995792 55.356201 
L 531.324871 71.699748 
L 542.65395 64.745228 
L 553.983029 65.7667 
L 565.312108 63.306656 
L 576.641187 53.636724 
L 587.970266 57.83327 
L 599.299345 56.752212 
L 610.628424 57.501292 
" clip-path="url(#p2fa0b960c0)" style="fill: none; stroke: #0000ff; stroke-width: 2; stroke-linecap: round"/>
   </g>
   <g id="line2d_10">
    <path d="M 55.503554 374.812962 
L 66.832633 369.365113 
L 78.161712 355.064509 
L 89.490791 338.63584 
L 100.81987 298.287708 
L 112.148949 252.661972 
L 123.478028 246.405458 
L 134.807107 248.533524 
L 146.136186 185.032033 
L 157.465265 164.176986 
L 168.794344 94.887156 
L 180.123423 134.256377 
L 191.452502 202.524736 
L 202.781581 113.869505 
L 214.11066 58.752594 
L 225.439739 100.207321 
L 236.768818 76.67091 
L 248.097897 53.304745 
L 259.426976 70.797448 
L 270.756055 69.988783 
L 282.085134 55.815863 
L 293.414213 94.759472 
L 304.743292 65.860335 
L 316.072371 93.738 
L 327.40145 89.86492 
L 338.730529 67.988401 
L 350.059608 60.965783 
L 361.388687 57.986491 
L 372.717766 63.008726 
L 384.046845 120.721877 
L 395.375924 57.773684 
L 406.705003 55.347689 
L 418.034082 49.814717 
L 429.363161 49.814717 
L 440.69224 60.923222 
L 452.021318 66.371071 
L 463.350397 49.814717 
L 474.679476 63.306656 
L 486.008555 55.007198 
L 497.337634 49.814717 
L 508.666713 49.814717 
L 519.995792 53.943165 
L 531.324871 49.814717 
L 542.65395 59.731505 
L 553.983029 67.818156 
L 565.312108 65.349599 
L 576.641187 51.219241 
L 587.970266 49.814717 
L 599.299345 53.943165 
L 610.628424 66.456193 
" clip-path="url(#p2fa0b960c0)" style="fill: none; stroke: #008000; stroke-opacity: 0.27; stroke-width: 1.25; stroke-linecap: round"/>
   </g>
   <g id="line2d_11">
    <path d="M 55.503554 376.217486 
L 66.832633 373.153071 
L 78.161712 355.277316 
L 89.490791 328.293439 
L 100.81987 280.837566 
L 112.148949 242.149325 
L 123.478028 240.957608 
L 134.807107 260.833745 
L 146.136186 249.299627 
L 157.465265 204.184627 
L 168.794344 152.344939 
L 180.123423 174.136335 
L 191.452502 165.028212 
L 202.781581 130.085368 
L 214.11066 85.098052 
L 225.439739 120.636755 
L 236.768818 67.137175 
L 248.097897 58.029052 
L 259.426976 68.28633 
L 270.756055 61.17859 
L 282.085134 62.79592 
L 293.414213 64.668618 
L 304.743292 131.064278 
L 316.072371 66.711561 
L 327.40145 49.814717 
L 338.730529 49.814717 
L 350.059608 49.814717 
L 361.388687 58.156736 
L 372.717766 49.814717 
L 384.046845 49.814717 
L 395.375924 60.625292 
L 406.705003 63.306656 
L 418.034082 50.665943 
L 429.363161 67.562788 
L 440.69224 63.519462 
L 452.021318 60.071995 
L 463.350397 65.264476 
L 474.679476 49.814717 
L 486.008555 49.814717 
L 497.337634 49.814717 
L 508.666713 67.137175 
L 519.995792 49.814717 
L 531.324871 67.903278 
L 542.65395 49.814717 
L 553.983029 49.814717 
L 565.312108 57.943929 
L 576.641187 49.814717 
L 587.970266 49.814717 
L 599.299345 55.773302 
L 610.628424 49.814717 
" clip-path="url(#p2fa0b960c0)" style="fill: none; stroke: #008000; stroke-opacity: 0.27; stroke-width: 1.25; stroke-linecap: round"/>
   </g>
   <g id="line2d_12">
    <path d="M 55.503554 376.302608 
L 66.832633 369.620481 
L 78.161712 358.63966 
L 89.490791 352.127778 
L 100.81987 296.542693 
L 112.148949 304.714467 
L 123.478028 273.006283 
L 134.807107 258.067259 
L 146.136186 255.641264 
L 157.465265 183.287019 
L 168.794344 105.570047 
L 180.123423 170.731429 
L 191.452502 138.086896 
L 202.781581 140.044717 
L 214.11066 157.324613 
L 225.439739 82.969986 
L 236.768818 135.192726 
L 248.097897 74.585406 
L 259.426976 68.414014 
L 270.756055 76.96884 
L 282.085134 53.687797 
L 293.414213 54.964637 
L 304.743292 82.033637 
L 316.072371 63.306656 
L 327.40145 67.477665 
L 338.730529 84.07658 
L 350.059608 67.690472 
L 361.388687 49.814717 
L 372.717766 54.368778 
L 384.046845 49.814717 
L 395.375924 80.160939 
L 406.705003 63.391778 
L 418.034082 69.946222 
L 429.363161 79.011783 
L 440.69224 56.113792 
L 452.021318 87.651731 
L 463.350397 68.456575 
L 474.679476 49.814717 
L 486.008555 49.814717 
L 497.337634 52.15559 
L 508.666713 95.568137 
L 519.995792 62.497991 
L 531.324871 106.165906 
L 542.65395 77.607259 
L 553.983029 84.374509 
L 565.312108 72.79783 
L 576.641187 49.814717 
L 587.970266 78.458486 
L 599.299345 58.369542 
L 610.628424 49.814717 
" clip-path="url(#p2fa0b960c0)" style="fill: none; stroke: #008000; stroke-opacity: 0.27; stroke-width: 1.25; stroke-linecap: round"/>
   </g>
   <g id="line2d_13">
    <path d="M 55.503554 374.940646 
L 66.832633 371.876231 
L 78.161712 345.062599 
L 89.490791 315.865533 
L 100.81987 260.748623 
L 112.148949 245.639354 
L 123.478028 220.485613 
L 134.807107 215.718745 
L 146.136186 157.154368 
L 157.465265 161.197693 
L 168.794344 135.916269 
L 180.123423 120.126019 
L 191.452502 148.812349 
L 202.781581 108.379094 
L 214.11066 55.986108 
L 225.439739 63.859953 
L 236.768818 61.17859 
L 248.097897 80.331184 
L 259.426976 49.814717 
L 270.756055 65.05167 
L 282.085134 72.968075 
L 293.414213 98.547429 
L 304.743292 99.824269 
L 316.072371 96.802415 
L 327.40145 78.203118 
L 338.730529 91.014075 
L 350.059608 58.667472 
L 361.388687 75.862245 
L 372.717766 62.710797 
L 384.046845 59.561259 
L 395.375924 69.180118 
L 406.705003 49.814717 
L 418.034082 73.266005 
L 429.363161 49.814717 
L 440.69224 49.814717 
L 452.021318 85.864156 
L 463.350397 53.304745 
L 474.679476 84.885245 
L 486.008555 53.517552 
L 497.337634 65.434722 
L 508.666713 49.814717 
L 519.995792 60.710415 
L 531.324871 59.518698 
L 542.65395 86.757943 
L 553.983029 77.011401 
L 565.312108 70.627203 
L 576.641187 67.520226 
L 587.970266 61.263712 
L 599.299345 65.860335 
L 610.628424 71.606113 
" clip-path="url(#p2fa0b960c0)" style="fill: none; stroke: #008000; stroke-opacity: 0.27; stroke-width: 1.25; stroke-linecap: round"/>
   </g>
   <g id="line2d_14">
    <path d="M 55.503554 376.941028 
L 66.832633 375.408821 
L 78.161712 358.256608 
L 89.490791 306.799972 
L 100.81987 286.327976 
L 112.148949 231.423873 
L 123.478028 246.320335 
L 134.807107 249.469873 
L 146.136186 210.228335 
L 157.465265 224.826868 
L 168.794344 154.856057 
L 180.123423 113.273646 
L 191.452502 119.445038 
L 202.781581 108.677024 
L 214.11066 100.079637 
L 225.439739 69.180118 
L 236.768818 49.814717 
L 248.097897 55.603057 
L 259.426976 58.880278 
L 270.756055 88.034783 
L 282.085134 91.780179 
L 293.414213 92.546283 
L 304.743292 69.478047 
L 316.072371 57.986491 
L 327.40145 52.708887 
L 338.730529 61.050906 
L 350.059608 56.02867 
L 361.388687 49.814717 
L 372.717766 52.623764 
L 384.046845 49.814717 
L 395.375924 49.814717 
L 406.705003 63.093849 
L 418.034082 54.070849 
L 429.363161 86.97075 
L 440.69224 69.733415 
L 452.021318 67.094613 
L 463.350397 49.814717 
L 474.679476 67.435104 
L 486.008555 56.411722 
L 497.337634 51.729976 
L 508.666713 77.053962 
L 519.995792 49.814717 
L 531.324871 75.096142 
L 542.65395 49.814717 
L 553.983029 49.814717 
L 565.312108 49.814717 
L 576.641187 49.814717 
L 587.970266 49.814717 
L 599.299345 49.814717 
L 610.628424 49.814717 
" clip-path="url(#p2fa0b960c0)" style="fill: none; stroke: #008000; stroke-opacity: 0.27; stroke-width: 1.25; stroke-linecap: round"/>
   </g>
   <g id="line2d_15">
    <path d="M 55.503554 49.814717 
L 66.832633 96.156035 
L 78.161712 172.362346 
L 89.490791 242.353483 
L 100.81987 256.709964 
L 112.148949 285.793849 
L 123.478028 287.788806 
L 134.807107 307.507259 
L 146.136186 316.775627 
L 157.465265 325.37476 
L 168.794344 336.948654 
L 180.123423 333.890211 
L 191.452502 337.897626 
L 202.781581 348.822247 
L 214.11066 376.192182 
L 225.439739 372.851029 
L 236.768818 390.305283 
L 248.097897 363.157092 
L 259.426976 378.666947 
L 270.756055 375.820285 
L 282.085134 366.920524 
L 293.414213 353.197507 
L 304.743292 354.067875 
L 316.072371 356.342927 
L 327.40145 357.707085 
L 338.730529 362.598746 
L 350.059608 353.872342 
L 361.388687 368.337382 
L 372.717766 356.817726 
L 384.046845 362.814898 
L 395.375924 362.454863 
L 406.705003 359.426655 
L 418.034082 361.518429 
L 429.363161 350.32524 
L 440.69224 336.260861 
L 452.021318 343.33733 
L 463.350397 332.000944 
L 474.679476 345.191046 
L 486.008555 331.154874 
L 497.337634 338.340204 
L 508.666713 332.209073 
L 519.995792 344.261578 
L 531.324871 328.362588 
L 542.65395 337.886902 
L 553.983029 333.807043 
L 565.312108 339.739046 
L 576.641187 335.084419 
L 587.970266 349.811595 
L 599.299345 349.101555 
L 610.628424 345.913762 
" clip-path="url(#p2fa0b960c0)" style="fill: none; stroke: #7b3ab8; stroke-width: 1.5; stroke-linecap: round"/>
   </g>
   <g id="patch_3">
    <path d="M 44.44 400.52 
L 44.44 39.6 
" style="fill: none; stroke: #ffffff; stroke-width: 0.8; stroke-linejoin: miter; stroke-linecap: square"/>
   </g>
   <g id="patch_4">
    <path d="M 623.801429 400.52 
L 623.801429 39.6 
" style="fill: none; stroke: #ffffff; stroke-width: 0.8; stroke-linejoin: miter; stroke-linecap: square"/>
   </g>
   <g id="patch_5">
    <path d="M 44.44 400.52 
L 623.801429 400.52 
" style="fill: none; stroke: #ffffff; stroke-width: 0.8; stroke-linejoin: miter; stroke-linecap: square"/>
   </g>
   <g id="patch_6">
    <path d="M 44.44 39.6 
L 623.801429 39.6 
" style="fill: none; stroke: #ffffff; stroke-width: 0.8; stroke-linejoin: miter; stroke-linecap: square"/>
   </g>
  </g>
  <g id="text_9">
   <!-- CartPole-v1 | GNN_K-Net (Entropy) -->
   <g style="fill: #262626" transform="translate(149.236875 22.395938) scale(0.18 -0.18)">
    <defs>
     <path id="DejaVuSans-Bold-43" d="M 4288 256 
Q 3956 84 3597 -3 
Q 3238 -91 2847 -91 
Q 1681 -91 1000 561 
Q 319 1213 319 2328 
Q 319 3447 1000 4098 
Q 1681 4750 2847 4750 
Q 3238 4750 3597 4662 
Q 3956 4575 4288 4403 
L 4288 3438 
Q 3953 3666 3628 3772 
Q 3303 3878 2944 3878 
Q 2300 3878 1931 3465 
Q 1563 3053 1563 2328 
Q 1563 1606 1931 1193 
Q 2300 781 2944 781 
Q 3303 781 3628 887 
Q 3953 994 4288 1222 
L 4288 256 
z
" transform="scale(0.015625)"/>
     <path id="DejaVuSans-Bold-61" d="M 2106 1575 
Q 1756 1575 1579 1456 
Q 1403 1338 1403 1106 
Q 1403 894 1545 773 
Q 1688 653 1941 653 
Q 2256 653 2472 879 
Q 2688 1106 2688 1447 
L 2688 1575 
L 2106 1575 
z
M 3816 1997 
L 3816 0 
L 2688 0 
L 2688 519 
Q 2463 200 2181 54 
Q 1900 -91 1497 -91 
Q 953 -91 614 226 
Q 275 544 275 1050 
Q 275 1666 698 1953 
Q 1122 2241 2028 2241 
L 2688 2241 
L 2688 2328 
Q 2688 2594 2478 2717 
Q 2269 2841 1825 2841 
Q 1466 2841 1156 2769 
Q 847 2697 581 2553 
L 581 3406 
Q 941 3494 1303 3539 
Q 1666 3584 2028 3584 
Q 2975 3584 3395 3211 
Q 3816 2838 3816 1997 
z
" transform="scale(0.015625)"/>
     <path id="DejaVuSans-Bold-72" d="M 3138 2547 
Q 2991 2616 2845 2648 
Q 2700 2681 2553 2681 
Q 2122 2681 1889 2404 
Q 1656 2128 1656 1613 
L 1656 0 
L 538 0 
L 538 3500 
L 1656 3500 
L 1656 2925 
Q 1872 3269 2151 3426 
Q 2431 3584 2822 3584 
Q 2878 3584 2943 3579 
Q 3009 3575 3134 3559 
L 3138 2547 
z
" transform="scale(0.015625)"/>
     <path id="DejaVuSans-Bold-74" d="M 1759 4494 
L 1759 3500 
L 2913 3500 
L 2913 2700 
L 1759 2700 
L 1759 1216 
Q 1759 972 1856 886 
Q 1953 800 2241 800 
L 2816 800 
L 2816 0 
L 1856 0 
Q 1194 0 917 276 
Q 641 553 641 1216 
L 641 2700 
L 84 2700 
L 84 3500 
L 641 3500 
L 641 4494 
L 1759 4494 
z
" transform="scale(0.015625)"/>
     <path id="DejaVuSans-Bold-50" d="M 588 4666 
L 2584 4666 
Q 3475 4666 3951 4270 
Q 4428 3875 4428 3144 
Q 4428 2409 3951 2014 
Q 3475 1619 2584 1619 
L 1791 1619 
L 1791 0 
L 588 0 
L 588 4666 
z
M 1791 3794 
L 1791 2491 
L 2456 2491 
Q 2806 2491 2997 2661 
Q 3188 2831 3188 3144 
Q 3188 3456 2997 3625 
Q 2806 3794 2456 3794 
L 1791 3794 
z
" transform="scale(0.015625)"/>
     <path id="DejaVuSans-Bold-6f" d="M 2203 2784 
Q 1831 2784 1636 2517 
Q 1441 2250 1441 1747 
Q 1441 1244 1636 976 
Q 1831 709 2203 709 
Q 2569 709 2762 976 
Q 2956 1244 2956 1747 
Q 2956 2250 2762 2517 
Q 2569 2784 2203 2784 
z
M 2203 3584 
Q 3106 3584 3614 3096 
Q 4122 2609 4122 1747 
Q 4122 884 3614 396 
Q 3106 -91 2203 -91 
Q 1297 -91 786 396 
Q 275 884 275 1747 
Q 275 2609 786 3096 
Q 1297 3584 2203 3584 
z
" transform="scale(0.015625)"/>
     <path id="DejaVuSans-Bold-6c" d="M 538 4863 
L 1656 4863 
L 1656 0 
L 538 0 
L 538 4863 
z
" transform="scale(0.015625)"/>
     <path id="DejaVuSans-Bold-65" d="M 4031 1759 
L 4031 1441 
L 1416 1441 
Q 1456 1047 1700 850 
Q 1944 653 2381 653 
Q 2734 653 3104 758 
Q 3475 863 3866 1075 
L 3866 213 
Q 3469 63 3072 -14 
Q 2675 -91 2278 -91 
Q 1328 -91 801 392 
Q 275 875 275 1747 
Q 275 2603 792 3093 
Q 1309 3584 2216 3584 
Q 3041 3584 3536 3087 
Q 4031 2591 4031 1759 
z
M 2881 2131 
Q 2881 2450 2695 2645 
Q 2509 2841 2209 2841 
Q 1884 2841 1681 2658 
Q 1478 2475 1428 2131 
L 2881 2131 
z
" transform="scale(0.015625)"/>
     <path id="DejaVuSans-Bold-2d" d="M 347 2297 
L 2309 2297 
L 2309 1388 
L 347 1388 
L 347 2297 
z
" transform="scale(0.015625)"/>
     <path id="DejaVuSans-Bold-76" d="M 97 3500 
L 1216 3500 
L 2088 1081 
L 2956 3500 
L 4078 3500 
L 2700 0 
L 1472 0 
L 97 3500 
z
" transform="scale(0.015625)"/>
     <path id="DejaVuSans-Bold-31" d="M 750 831 
L 1813 831 
L 1813 3847 
L 722 3622 
L 722 4441 
L 1806 4666 
L 2950 4666 
L 2950 831 
L 4013 831 
L 4013 0 
L 750 0 
L 750 831 
z
" transform="scale(0.015625)"/>
     <path id="DejaVuSans-Bold-20" transform="scale(0.015625)"/>
     <path id="DejaVuSans-Bold-7c" d="M 1522 4891 
L 1522 -1509 
L 813 -1509 
L 813 4891 
L 1522 4891 
z
" transform="scale(0.015625)"/>
     <path id="DejaVuSans-Bold-47" d="M 4781 347 
Q 4331 128 3847 18 
Q 3363 -91 2847 -91 
Q 1681 -91 1000 561 
Q 319 1213 319 2328 
Q 319 3456 1012 4103 
Q 1706 4750 2913 4750 
Q 3378 4750 3804 4662 
Q 4231 4575 4609 4403 
L 4609 3438 
Q 4219 3659 3833 3768 
Q 3447 3878 3059 3878 
Q 2341 3878 1952 3476 
Q 1563 3075 1563 2328 
Q 1563 1588 1938 1184 
Q 2313 781 3003 781 
Q 3191 781 3352 804 
Q 3513 828 3641 878 
L 3641 1784 
L 2906 1784 
L 2906 2591 
L 4781 2591 
L 4781 347 
z
" transform="scale(0.015625)"/>
     <path id="DejaVuSans-Bold-4e" d="M 588 4666 
L 1931 4666 
L 3628 1466 
L 3628 4666 
L 4769 4666 
L 4769 0 
L 3425 0 
L 1728 3200 
L 1728 0 
L 588 0 
L 588 4666 
z
" transform="scale(0.015625)"/>
     <path id="DejaVuSans-Bold-5f" d="M 3200 -916 
L 3200 -1509 
L 0 -1509 
L 0 -916 
L 3200 -916 
z
" transform="scale(0.015625)"/>
     <path id="DejaVuSans-Bold-4b" d="M 588 4666 
L 1791 4666 
L 1791 2963 
L 3525 4666 
L 4922 4666 
L 2675 2456 
L 5153 0 
L 3647 0 
L 1791 1838 
L 1791 0 
L 588 0 
L 588 4666 
z
" transform="scale(0.015625)"/>
     <path id="DejaVuSans-Bold-28" d="M 2413 -844 
L 1484 -844 
Q 1006 -72 778 623 
Q 550 1319 550 2003 
Q 550 2688 779 3389 
Q 1009 4091 1484 4856 
L 2413 4856 
Q 2013 4116 1813 3408 
Q 1613 2700 1613 2009 
Q 1613 1319 1811 609 
Q 2009 -100 2413 -844 
z
" transform="scale(0.015625)"/>
     <path id="DejaVuSans-Bold-45" d="M 588 4666 
L 3834 4666 
L 3834 3756 
L 1791 3756 
L 1791 2888 
L 3713 2888 
L 3713 1978 
L 1791 1978 
L 1791 909 
L 3903 909 
L 3903 0 
L 588 0 
L 588 4666 
z
" transform="scale(0.015625)"/>
     <path id="DejaVuSans-Bold-6e" d="M 4056 2131 
L 4056 0 
L 2931 0 
L 2931 347 
L 2931 1631 
Q 2931 2084 2911 2256 
Q 2891 2428 2841 2509 
Q 2775 2619 2662 2680 
Q 2550 2741 2406 2741 
Q 2056 2741 1856 2470 
Q 1656 2200 1656 1722 
L 1656 0 
L 538 0 
L 538 3500 
L 1656 3500 
L 1656 2988 
Q 1909 3294 2193 3439 
Q 2478 3584 2822 3584 
Q 3428 3584 3742 3212 
Q 4056 2841 4056 2131 
z
" transform="scale(0.015625)"/>
     <path id="DejaVuSans-Bold-70" d="M 1656 506 
L 1656 -1331 
L 538 -1331 
L 538 3500 
L 1656 3500 
L 1656 2988 
Q 1888 3294 2169 3439 
Q 2450 3584 2816 3584 
Q 3463 3584 3878 3070 
Q 4294 2556 4294 1747 
Q 4294 938 3878 423 
Q 3463 -91 2816 -91 
Q 2450 -91 2169 54 
Q 1888 200 1656 506 
z
M 2400 2772 
Q 2041 2772 1848 2508 
Q 1656 2244 1656 1747 
Q 1656 1250 1848 986 
Q 2041 722 2400 722 
Q 2759 722 2948 984 
Q 3138 1247 3138 1747 
Q 3138 2247 2948 2509 
Q 2759 2772 2400 2772 
z
" transform="scale(0.015625)"/>
     <path id="DejaVuSans-Bold-79" d="M 78 3500 
L 1197 3500 
L 2138 1125 
L 2938 3500 
L 4056 3500 
L 2584 -331 
Q 2363 -916 2067 -1148 
Q 1772 -1381 1288 -1381 
L 641 -1381 
L 641 -647 
L 991 -647 
Q 1275 -647 1404 -556 
Q 1534 -466 1606 -231 
L 1638 -134 
L 78 3500 
z
" transform="scale(0.015625)"/>
     <path id="DejaVuSans-Bold-29" d="M 513 -844 
Q 913 -100 1113 609 
Q 1313 1319 1313 2009 
Q 1313 2700 1113 3408 
Q 913 4116 513 4856 
L 1441 4856 
Q 1916 4091 2145 3389 
Q 2375 2688 2375 2003 
Q 2375 1319 2147 623 
Q 1919 -72 1441 -844 
L 513 -844 
z
" transform="scale(0.015625)"/>
    </defs>
    <use xlink:href="#DejaVuSans-Bold-43"/>
    <use xlink:href="#DejaVuSans-Bold-61" transform="translate(73.388672 0)"/>
    <use xlink:href="#DejaVuSans-Bold-72" transform="translate(140.869141 0)"/>
    <use xlink:href="#DejaVuSans-Bold-74" transform="translate(190.185547 0)"/>
    <use xlink:href="#DejaVuSans-Bold-50" transform="translate(237.988281 0)"/>
    <use xlink:href="#DejaVuSans-Bold-6f" transform="translate(311.279297 0)"/>
    <use xlink:href="#DejaVuSans-Bold-6c" transform="translate(379.980469 0)"/>
    <use xlink:href="#DejaVuSans-Bold-65" transform="translate(414.257812 0)"/>
    <use xlink:href="#DejaVuSans-Bold-2d" transform="translate(482.080078 0)"/>
    <use xlink:href="#DejaVuSans-Bold-76" transform="translate(523.583984 0)"/>
    <use xlink:href="#DejaVuSans-Bold-31" transform="translate(588.769531 0)"/>
    <use xlink:href="#DejaVuSans-Bold-20" transform="translate(658.349609 0)"/>
    <use xlink:href="#DejaVuSans-Bold-7c" transform="translate(693.164062 0)"/>
    <use xlink:href="#DejaVuSans-Bold-20" transform="translate(729.6875 0)"/>
    <use xlink:href="#DejaVuSans-Bold-47" transform="translate(764.501953 0)"/>
    <use xlink:href="#DejaVuSans-Bold-4e" transform="translate(846.582031 0)"/>
    <use xlink:href="#DejaVuSans-Bold-4e" transform="translate(930.273438 0)"/>
    <use xlink:href="#DejaVuSans-Bold-5f" transform="translate(1013.964844 0)"/>
    <use xlink:href="#DejaVuSans-Bold-4b" transform="translate(1063.964844 0)"/>
    <use xlink:href="#DejaVuSans-Bold-2d" transform="translate(1132.705078 0)"/>
    <use xlink:href="#DejaVuSans-Bold-4e" transform="translate(1174.208984 0)"/>
    <use xlink:href="#DejaVuSans-Bold-65" transform="translate(1257.900391 0)"/>
    <use xlink:href="#DejaVuSans-Bold-74" transform="translate(1325.722656 0)"/>
    <use xlink:href="#DejaVuSans-Bold-20" transform="translate(1373.525391 0)"/>
    <use xlink:href="#DejaVuSans-Bold-28" transform="translate(1408.339844 0)"/>
    <use xlink:href="#DejaVuSans-Bold-45" transform="translate(1454.042969 0)"/>
    <use xlink:href="#DejaVuSans-Bold-6e" transform="translate(1522.353516 0)"/>
    <use xlink:href="#DejaVuSans-Bold-74" transform="translate(1593.544922 0)"/>
    <use xlink:href="#DejaVuSans-Bold-72" transform="translate(1641.347656 0)"/>
    <use xlink:href="#DejaVuSans-Bold-6f" transform="translate(1690.664062 0)"/>
    <use xlink:href="#DejaVuSans-Bold-70" transform="translate(1759.365234 0)"/>
    <use xlink:href="#DejaVuSans-Bold-79" transform="translate(1830.947266 0)"/>
    <use xlink:href="#DejaVuSans-Bold-29" transform="translate(1896.132812 0)"/>
   </g>
  </g>
 </g>
 <defs>
  <clipPath id="p2fa0b960c0">
   <rect x="44.44" y="39.6" width="579.361429" height="360.92"/>
  </clipPath>
 </defs>
</svg>
