<?xml version="1.0" encoding="utf-8" standalone="no"?>
<!DOCTYPE svg PUBLIC "-//W3C//DTD SVG 1.1//EN"
  "http://www.w3.org/Graphics/SVG/1.1/DTD/svg11.dtd">
<svg xmlns:xlink="http://www.w3.org/1999/xlink" width="648pt" height="432pt" viewBox="0 0 648 432" xmlns="http://www.w3.org/2000/svg" version="1.1">
 <metadata>
  <rdf:RDF xmlns:dc="http://purl.org/dc/elements/1.1/" xmlns:cc="http://creativecommons.org/ns#" xmlns:rdf="http://www.w3.org/1999/02/22-rdf-syntax-ns#">
   <cc:Work>
    <dc:type rdf:resource="http://purl.org/dc/dcmitype/StillImage"/>
    <dc:date>2025-07-31T05:18:09.505241</dc:date>
    <dc:format>image/svg+xml</dc:format>
    <dc:creator>
     <cc:Agent>
      <dc:title>Matplotlib v3.10.0, https://matplotlib.org/</dc:title>
     </cc:Agent>
    </dc:creator>
   </cc:Work>
  </rdf:RDF>
 </metadata>
 <defs>
  <style type="text/css">*{stroke-linejoin: round; stroke-linecap: butt}</style>
 </defs>
 <g id="figure_1">
  <g id="patch_1">
   <path d="M 0 432 
L 648 432 
L 648 0 
L 0 0 
z
" style="fill: #ffffff"/>
  </g>
  <g id="axes_1">
   <g id="patch_2">
    <path d="M 44.44 400.52 
L 623.801429 400.52 
L 623.801429 39.6 
L 44.44 39.6 
z
" style="fill: #eaeaf2"/>
   </g>
   <g id="matplotlib.axis_1">
    <g id="xtick_1">
     <g id="line2d_1">
      <path d="M 55.503554 400.52 
L 55.503554 39.6 
" clip-path="url(#pc4ad95b7fb)" style="fill: none; stroke: #ffffff; stroke-width: 0.8; stroke-linecap: round"/>
     </g>
     <g id="text_1">
      <!-- 0 -->
      <g style="fill: #262626" transform="translate(51.049804 418.157812) scale(0.14 -0.14)">
       <defs>
        <path id="DejaVuSans-30" d="M 2034 4250 
Q 1547 4250 1301 3770 
Q 1056 3291 1056 2328 
Q 1056 1369 1301 889 
Q 1547 409 2034 409 
Q 2525 409 2770 889 
Q 3016 1369 3016 2328 
Q 3016 3291 2770 3770 
Q 2525 4250 2034 4250 
z
M 2034 4750 
Q 2819 4750 3233 4129 
Q 3647 3509 3647 2328 
Q 3647 1150 3233 529 
Q 2819 -91 2034 -91 
Q 1250 -91 836 529 
Q 422 1150 422 2328 
Q 422 3509 836 4129 
Q 1250 4750 2034 4750 
z
" transform="scale(0.015625)"/>
       </defs>
       <use xlink:href="#DejaVuSans-30"/>
      </g>
     </g>
    </g>
    <g id="xtick_2">
     <g id="line2d_2">
      <path d="M 608.681239 400.52 
L 608.681239 39.6 
" clip-path="url(#pc4ad95b7fb)" style="fill: none; stroke: #ffffff; stroke-width: 0.8; stroke-linecap: round"/>
     </g>
     <g id="text_2">
      <!-- 600000 -->
      <g style="fill: #262626" transform="translate(581.958739 418.157812) scale(0.14 -0.14)">
       <defs>
        <path id="DejaVuSans-36" d="M 2113 2584 
Q 1688 2584 1439 2293 
Q 1191 2003 1191 1497 
Q 1191 994 1439 701 
Q 1688 409 2113 409 
Q 2538 409 2786 701 
Q 3034 994 3034 1497 
Q 3034 2003 2786 2293 
Q 2538 2584 2113 2584 
z
M 3366 4563 
L 3366 3988 
Q 3128 4100 2886 4159 
Q 2644 4219 2406 4219 
Q 1781 4219 1451 3797 
Q 1122 3375 1075 2522 
Q 1259 2794 1537 2939 
Q 1816 3084 2150 3084 
Q 2853 3084 3261 2657 
Q 3669 2231 3669 1497 
Q 3669 778 3244 343 
Q 2819 -91 2113 -91 
Q 1303 -91 875 529 
Q 447 1150 447 2328 
Q 447 3434 972 4092 
Q 1497 4750 2381 4750 
Q 2619 4750 2861 4703 
Q 3103 4656 3366 4563 
z
" transform="scale(0.015625)"/>
       </defs>
       <use xlink:href="#DejaVuSans-36"/>
       <use xlink:href="#DejaVuSans-30" transform="translate(63.623047 0)"/>
       <use xlink:href="#DejaVuSans-30" transform="translate(127.246094 0)"/>
       <use xlink:href="#DejaVuSans-30" transform="translate(190.869141 0)"/>
       <use xlink:href="#DejaVuSans-30" transform="translate(254.492188 0)"/>
       <use xlink:href="#DejaVuSans-30" transform="translate(318.115234 0)"/>
      </g>
     </g>
    </g>
   </g>
   <g id="matplotlib.axis_2">
    <g id="ytick_1">
     <g id="line2d_3">
      <path d="M 44.44 390.305283 
L 623.801429 390.305283 
" clip-path="url(#pc4ad95b7fb)" style="fill: none; stroke: #ffffff; stroke-width: 0.8; stroke-linecap: round"/>
     </g>
     <g id="text_3">
      <!-- 0 -->
      <g style="fill: #262626" transform="translate(28.5325 395.624189) scale(0.14 -0.14)">
       <use xlink:href="#DejaVuSans-30"/>
      </g>
     </g>
    </g>
    <g id="ytick_2">
     <g id="line2d_4">
      <path d="M 44.44 322.20717 
L 623.801429 322.20717 
" clip-path="url(#pc4ad95b7fb)" style="fill: none; stroke: #ffffff; stroke-width: 0.8; stroke-linecap: round"/>
     </g>
     <g id="text_4">
      <!-- 100 -->
      <g style="fill: #262626" transform="translate(10.7175 327.526076) scale(0.14 -0.14)">
       <defs>
        <path id="DejaVuSans-31" d="M 794 531 
L 1825 531 
L 1825 4091 
L 703 3866 
L 703 4441 
L 1819 4666 
L 2450 4666 
L 2450 531 
L 3481 531 
L 3481 0 
L 794 0 
L 794 531 
z
" transform="scale(0.015625)"/>
       </defs>
       <use xlink:href="#DejaVuSans-31"/>
       <use xlink:href="#DejaVuSans-30" transform="translate(63.623047 0)"/>
       <use xlink:href="#DejaVuSans-30" transform="translate(127.246094 0)"/>
      </g>
     </g>
    </g>
    <g id="ytick_3">
     <g id="line2d_5">
      <path d="M 44.44 254.109057 
L 623.801429 254.109057 
" clip-path="url(#pc4ad95b7fb)" style="fill: none; stroke: #ffffff; stroke-width: 0.8; stroke-linecap: round"/>
     </g>
     <g id="text_5">
      <!-- 200 -->
      <g style="fill: #262626" transform="translate(10.7175 259.427963) scale(0.14 -0.14)">
       <defs>
        <path id="DejaVuSans-32" d="M 1228 531 
L 3431 531 
L 3431 0 
L 469 0 
L 469 531 
Q 828 903 1448 1529 
Q 2069 2156 2228 2338 
Q 2531 2678 2651 2914 
Q 2772 3150 2772 3378 
Q 2772 3750 2511 3984 
Q 2250 4219 1831 4219 
Q 1534 4219 1204 4116 
Q 875 4013 500 3803 
L 500 4441 
Q 881 4594 1212 4672 
Q 1544 4750 1819 4750 
Q 2544 4750 2975 4387 
Q 3406 4025 3406 3419 
Q 3406 3131 3298 2873 
Q 3191 2616 2906 2266 
Q 2828 2175 2409 1742 
Q 1991 1309 1228 531 
z
" transform="scale(0.015625)"/>
       </defs>
       <use xlink:href="#DejaVuSans-32"/>
       <use xlink:href="#DejaVuSans-30" transform="translate(63.623047 0)"/>
       <use xlink:href="#DejaVuSans-30" transform="translate(127.246094 0)"/>
      </g>
     </g>
    </g>
    <g id="ytick_4">
     <g id="line2d_6">
      <path d="M 44.44 186.010943 
L 623.801429 186.010943 
" clip-path="url(#pc4ad95b7fb)" style="fill: none; stroke: #ffffff; stroke-width: 0.8; stroke-linecap: round"/>
     </g>
     <g id="text_6">
      <!-- 300 -->
      <g style="fill: #262626" transform="translate(10.7175 191.32985) scale(0.14 -0.14)">
       <defs>
        <path id="DejaVuSans-33" d="M 2597 2516 
Q 3050 2419 3304 2112 
Q 3559 1806 3559 1356 
Q 3559 666 3084 287 
Q 2609 -91 1734 -91 
Q 1441 -91 1130 -33 
Q 819 25 488 141 
L 488 750 
Q 750 597 1062 519 
Q 1375 441 1716 441 
Q 2309 441 2620 675 
Q 2931 909 2931 1356 
Q 2931 1769 2642 2001 
Q 2353 2234 1838 2234 
L 1294 2234 
L 1294 2753 
L 1863 2753 
Q 2328 2753 2575 2939 
Q 2822 3125 2822 3475 
Q 2822 3834 2567 4026 
Q 2313 4219 1838 4219 
Q 1578 4219 1281 4162 
Q 984 4106 628 3988 
L 628 4550 
Q 988 4650 1302 4700 
Q 1616 4750 1894 4750 
Q 2613 4750 3031 4423 
Q 3450 4097 3450 3541 
Q 3450 3153 3228 2886 
Q 3006 2619 2597 2516 
z
" transform="scale(0.015625)"/>
       </defs>
       <use xlink:href="#DejaVuSans-33"/>
       <use xlink:href="#DejaVuSans-30" transform="translate(63.623047 0)"/>
       <use xlink:href="#DejaVuSans-30" transform="translate(127.246094 0)"/>
      </g>
     </g>
    </g>
    <g id="ytick_5">
     <g id="line2d_7">
      <path d="M 44.44 117.91283 
L 623.801429 117.91283 
" clip-path="url(#pc4ad95b7fb)" style="fill: none; stroke: #ffffff; stroke-width: 0.8; stroke-linecap: round"/>
     </g>
     <g id="text_7">
      <!-- 400 -->
      <g style="fill: #262626" transform="translate(10.7175 123.231736) scale(0.14 -0.14)">
       <defs>
        <path id="DejaVuSans-34" d="M 2419 4116 
L 825 1625 
L 2419 1625 
L 2419 4116 
z
M 2253 4666 
L 3047 4666 
L 3047 1625 
L 3713 1625 
L 3713 1100 
L 3047 1100 
L 3047 0 
L 2419 0 
L 2419 1100 
L 313 1100 
L 313 1709 
L 2253 4666 
z
" transform="scale(0.015625)"/>
       </defs>
       <use xlink:href="#DejaVuSans-34"/>
       <use xlink:href="#DejaVuSans-30" transform="translate(63.623047 0)"/>
       <use xlink:href="#DejaVuSans-30" transform="translate(127.246094 0)"/>
      </g>
     </g>
    </g>
    <g id="ytick_6">
     <g id="line2d_8">
      <path d="M 44.44 49.814717 
L 623.801429 49.814717 
" clip-path="url(#pc4ad95b7fb)" style="fill: none; stroke: #ffffff; stroke-width: 0.8; stroke-linecap: round"/>
     </g>
     <g id="text_8">
      <!-- 500 -->
      <g style="fill: #262626" transform="translate(10.7175 55.133623) scale(0.14 -0.14)">
       <defs>
        <path id="DejaVuSans-35" d="M 691 4666 
L 3169 4666 
L 3169 4134 
L 1269 4134 
L 1269 2991 
Q 1406 3038 1543 3061 
Q 1681 3084 1819 3084 
Q 2600 3084 3056 2656 
Q 3513 2228 3513 1497 
Q 3513 744 3044 326 
Q 2575 -91 1722 -91 
Q 1428 -91 1123 -41 
Q 819 9 494 109 
L 494 744 
Q 775 591 1075 516 
Q 1375 441 1709 441 
Q 2250 441 2565 725 
Q 2881 1009 2881 1497 
Q 2881 1984 2565 2268 
Q 2250 2553 1709 2553 
Q 1456 2553 1204 2497 
Q 953 2441 691 2322 
L 691 4666 
z
" transform="scale(0.015625)"/>
       </defs>
       <use xlink:href="#DejaVuSans-35"/>
       <use xlink:href="#DejaVuSans-30" transform="translate(63.623047 0)"/>
       <use xlink:href="#DejaVuSans-30" transform="translate(127.246094 0)"/>
      </g>
     </g>
    </g>
   </g>
   <g id="FillBetweenPolyCollection_1">
    <path d="M 55.503554 373.95992 
L 55.503554 376.874746 
L 66.832633 373.465041 
L 78.161712 364.350631 
L 89.490791 344.834901 
L 100.81987 323.636995 
L 112.148949 293.078061 
L 123.478028 253.989161 
L 134.807107 255.392694 
L 146.136186 226.81828 
L 157.465265 211.264586 
L 168.794344 205.152808 
L 180.123423 170.883522 
L 191.452502 197.643431 
L 202.781581 168.339227 
L 214.11066 171.174161 
L 225.439739 153.190513 
L 236.768818 142.772548 
L 248.097897 115.097096 
L 259.426976 123.541075 
L 270.756055 112.069518 
L 282.085134 97.104609 
L 293.414213 105.902409 
L 304.743292 90.728505 
L 316.072371 130.537829 
L 327.40145 87.905296 
L 338.730529 113.235448 
L 350.059608 93.721697 
L 361.388687 99.191073 
L 372.717766 77.768422 
L 384.046845 71.363624 
L 395.375924 84.3491 
L 406.705003 98.09446 
L 418.034082 79.477164 
L 429.363161 82.220343 
L 440.69224 73.784216 
L 452.021318 77.822554 
L 463.350397 74.098086 
L 474.679476 75.926505 
L 486.008555 70.947793 
L 497.337634 78.351047 
L 508.666713 78.6821 
L 519.995792 64.366225 
L 531.324871 104.633025 
L 542.65395 72.571295 
L 553.983029 77.331377 
L 565.312108 76.331929 
L 576.641187 96.673028 
L 587.970266 62.313977 
L 599.299345 72.645 
L 610.628424 65.466397 
L 610.628424 47.152752 
L 610.628424 47.152752 
L 599.299345 48.503438 
L 587.970266 48.3814 
L 576.641187 42.742729 
L 565.312108 47.046722 
L 553.983029 46.881476 
L 542.65395 47.487572 
L 531.324871 38.630275 
L 519.995792 48.252924 
L 508.666713 45.718023 
L 497.337634 47.972848 
L 486.008555 50.166596 
L 474.679476 47.162729 
L 463.350397 51.578876 
L 452.021318 58.222346 
L 440.69224 46.325726 
L 429.363161 49.176861 
L 418.034082 51.153936 
L 406.705003 53.919447 
L 395.375924 52.478928 
L 384.046845 47.792944 
L 372.717766 47.142436 
L 361.388687 56.22774 
L 350.059608 63.501716 
L 338.730529 49.742256 
L 327.40145 61.503859 
L 316.072371 57.568079 
L 304.743292 62.017457 
L 293.414213 68.294459 
L 282.085134 64.170642 
L 270.756055 74.75955 
L 259.426976 67.850567 
L 248.097897 58.520938 
L 236.768818 85.596369 
L 225.439739 108.750774 
L 214.11066 89.626482 
L 202.781581 91.099454 
L 191.452502 107.744452 
L 180.123423 102.872788 
L 168.794344 151.700224 
L 157.465265 172.061588 
L 146.136186 162.568626 
L 134.807107 190.396474 
L 123.478028 233.680347 
L 112.148949 267.439404 
L 100.81987 294.338252 
L 89.490791 314.595073 
L 78.161712 351.464581 
L 66.832633 364.482057 
L 55.503554 373.95992 
z
" clip-path="url(#pc4ad95b7fb)" style="fill: #0000ff; fill-opacity: 0.1"/>
   </g>
   <g id="line2d_9">
    <path d="M 55.503554 375.417333 
L 66.832633 368.973549 
L 78.161712 357.907606 
L 89.490791 329.714987 
L 100.81987 308.987624 
L 112.148949 280.258732 
L 123.478028 243.834754 
L 134.807107 222.894584 
L 146.136186 194.693453 
L 157.465265 191.663087 
L 168.794344 178.426516 
L 180.123423 136.878155 
L 191.452502 152.693942 
L 202.781581 129.719341 
L 214.11066 130.400322 
L 225.439739 130.970643 
L 236.768818 114.184458 
L 248.097897 86.809017 
L 259.426976 95.695821 
L 270.756055 93.414534 
L 282.085134 80.637625 
L 293.414213 87.098434 
L 304.743292 76.372981 
L 316.072371 94.052954 
L 327.40145 74.704577 
L 338.730529 81.488852 
L 350.059608 78.611707 
L 361.388687 77.709407 
L 372.717766 62.455429 
L 384.046845 59.578284 
L 395.375924 68.414014 
L 406.705003 76.006954 
L 418.034082 65.31555 
L 429.363161 65.698602 
L 440.69224 60.054971 
L 452.021318 68.02245 
L 463.350397 62.838481 
L 474.679476 61.544617 
L 486.008555 60.557194 
L 497.337634 63.161947 
L 508.666713 62.200061 
L 519.995792 56.309575 
L 531.324871 71.63165 
L 542.65395 60.029434 
L 553.983029 62.106426 
L 565.312108 61.689325 
L 576.641187 69.707878 
L 587.970266 55.347689 
L 599.299345 60.574219 
L 610.628424 56.309575 
" clip-path="url(#pc4ad95b7fb)" style="fill: none; stroke: #0000ff; stroke-width: 2; stroke-linecap: round"/>
   </g>
   <g id="line2d_10">
    <path d="M 55.503554 376.430292 
L 66.832633 373.408439 
L 78.161712 362.895792 
L 89.490791 351.404236 
L 100.81987 335.358618 
L 112.148949 260.833745 
L 123.478028 240.191505 
L 134.807107 199.630566 
L 146.136186 215.420816 
L 157.465265 183.712632 
L 168.794344 161.197693 
L 180.123423 131.404769 
L 191.452502 163.538566 
L 202.781581 83.608406 
L 214.11066 82.586934 
L 225.439739 100.803179 
L 236.768818 63.77483 
L 248.097897 58.412104 
L 259.426976 79.054344 
L 270.756055 70.882571 
L 282.085134 64.285566 
L 293.414213 51.432047 
L 304.743292 73.393689 
L 316.072371 49.814717 
L 327.40145 62.625675 
L 338.730529 73.606495 
L 350.059608 71.052816 
L 361.388687 76.926278 
L 372.717766 55.773302 
L 384.046845 49.814717 
L 395.375924 96.97266 
L 406.705003 117.997953 
L 418.034082 65.009108 
L 429.363161 64.200443 
L 440.69224 84.246825 
L 452.021318 82.033637 
L 463.350397 49.814717 
L 474.679476 49.814717 
L 486.008555 66.328509 
L 497.337634 81.224972 
L 508.666713 90.971514 
L 519.995792 64.030198 
L 531.324871 56.198915 
L 542.65395 67.733033 
L 553.983029 85.310858 
L 565.312108 86.630259 
L 576.641187 49.814717 
L 587.970266 61.093467 
L 599.299345 55.475373 
L 610.628424 58.880278 
" clip-path="url(#pc4ad95b7fb)" style="fill: none; stroke: #008000; stroke-opacity: 0.27; stroke-width: 1.25; stroke-linecap: round"/>
   </g>
   <g id="line2d_11">
    <path d="M 55.503554 374.42991 
L 66.832633 368.088274 
L 78.161712 350.169958 
L 89.490791 326.420741 
L 100.81987 297.606726 
L 112.148949 295.13817 
L 123.478028 258.663118 
L 134.807107 204.780486 
L 146.136186 148.046245 
L 157.465265 197.162009 
L 168.794344 164.815406 
L 180.123423 121.487981 
L 191.452502 103.144052 
L 202.781581 119.019425 
L 214.11066 97.228028 
L 225.439739 131.234524 
L 236.768818 136.59725 
L 248.097897 114.380241 
L 259.426976 70.499519 
L 270.756055 111.996807 
L 282.085134 111.571193 
L 293.414213 100.845741 
L 304.743292 69.861099 
L 316.072371 132.936976 
L 327.40145 64.157882 
L 338.730529 55.517934 
L 350.059608 66.881807 
L 361.388687 62.79592 
L 372.717766 49.814717 
L 384.046845 63.945075 
L 395.375924 62.583113 
L 406.705003 77.820066 
L 418.034082 76.96884 
L 429.363161 69.988783 
L 440.69224 49.814717 
L 452.021318 67.733033 
L 463.350397 49.814717 
L 474.679476 49.814717 
L 486.008555 49.814717 
L 497.337634 49.814717 
L 508.666713 49.814717 
L 519.995792 49.814717 
L 531.324871 49.814717 
L 542.65395 49.814717 
L 553.983029 49.814717 
L 565.312108 70.286712 
L 576.641187 70.456958 
L 587.970266 49.814717 
L 599.299345 49.814717 
L 610.628424 49.814717 
" clip-path="url(#pc4ad95b7fb)" style="fill: none; stroke: #008000; stroke-opacity: 0.27; stroke-width: 1.25; stroke-linecap: round"/>
   </g>
   <g id="line2d_12">
    <path d="M 55.503554 374.983208 
L 66.832633 374.472472 
L 78.161712 364.342877 
L 89.490791 336.848264 
L 100.81987 314.716377 
L 112.148949 280.582198 
L 123.478028 236.403547 
L 134.807107 186.138627 
L 146.136186 164.985651 
L 157.465265 158.303524 
L 168.794344 147.450387 
L 180.123423 118.295882 
L 191.452502 106.336151 
L 202.781581 97.355712 
L 214.11066 118.381005 
L 225.439739 111.954245 
L 236.768818 111.954245 
L 248.097897 127.106075 
L 259.426976 112.933156 
L 270.756055 118.636373 
L 282.085134 81.863392 
L 293.414213 104.250646 
L 304.743292 89.609552 
L 316.072371 118.934302 
L 327.40145 81.437778 
L 338.730529 90.247972 
L 350.059608 79.011783 
L 361.388687 86.162085 
L 372.717766 66.243387 
L 384.046845 53.560113 
L 395.375924 72.925514 
L 406.705003 58.582349 
L 418.034082 84.970368 
L 429.363161 94.674349 
L 440.69224 49.814717 
L 452.021318 58.837717 
L 463.350397 70.371835 
L 474.679476 80.2035 
L 486.008555 59.688943 
L 497.337634 82.203882 
L 508.666713 70.584642 
L 519.995792 68.073524 
L 531.324871 136.59725 
L 542.65395 51.602292 
L 553.983029 75.394071 
L 565.312108 49.814717 
L 576.641187 56.965019 
L 587.970266 66.200825 
L 599.299345 81.522901 
L 610.628424 73.223443 
" clip-path="url(#pc4ad95b7fb)" style="fill: none; stroke: #008000; stroke-opacity: 0.27; stroke-width: 1.25; stroke-linecap: round"/>
   </g>
   <g id="line2d_13">
    <path d="M 55.503554 377.664571 
L 66.832633 366.598627 
L 78.161712 349.957151 
L 89.490791 305.012396 
L 100.81987 299.181495 
L 112.148949 292.712175 
L 123.478028 231.466434 
L 134.807107 263.940722 
L 146.136186 230.402401 
L 157.465265 203.503646 
L 168.794344 198.864462 
L 180.123423 109.741057 
L 191.452502 165.538948 
L 202.781581 164.474915 
L 214.11066 161.793552 
L 225.439739 155.068863 
L 236.768818 146.343792 
L 248.097897 71.052816 
L 259.426976 73.606495 
L 270.756055 86.289769 
L 282.085134 74.330038 
L 293.414213 90.290533 
L 304.743292 54.539024 
L 316.072371 49.814717 
L 327.40145 67.775594 
L 338.730529 49.814717 
L 350.059608 68.456575 
L 361.388687 49.814717 
L 372.717766 49.814717 
L 384.046845 80.756797 
L 395.375924 51.006434 
L 406.705003 66.073142 
L 418.034082 49.814717 
L 429.363161 49.814717 
L 440.69224 49.814717 
L 452.021318 75.479193 
L 463.350397 77.862627 
L 474.679476 78.075434 
L 486.008555 77.139085 
L 497.337634 52.751448 
L 508.666713 49.814717 
L 519.995792 49.814717 
L 531.324871 49.814717 
L 542.65395 49.814717 
L 553.983029 49.814717 
L 565.312108 51.304363 
L 576.641187 49.814717 
L 587.970266 49.814717 
L 599.299345 66.243387 
L 610.628424 49.814717 
" clip-path="url(#pc4ad95b7fb)" style="fill: none; stroke: #008000; stroke-opacity: 0.27; stroke-width: 1.25; stroke-linecap: round"/>
   </g>
   <g id="line2d_14">
    <path d="M 55.503554 373.578684 
L 66.832633 362.299934 
L 78.161712 362.17225 
L 89.490791 328.889297 
L 100.81987 298.074901 
L 112.148949 272.027373 
L 123.478028 252.449165 
L 134.807107 259.982519 
L 146.136186 214.612151 
L 157.465265 215.633623 
L 168.794344 219.804632 
L 180.123423 203.461085 
L 191.452502 224.911991 
L 202.781581 184.138245 
L 214.11066 192.01209 
L 225.439739 155.792406 
L 236.768818 112.252175 
L 248.097897 63.093849 
L 259.426976 142.38559 
L 270.756055 79.267151 
L 282.085134 71.137939 
L 293.414213 88.673203 
L 304.743292 94.461542 
L 316.072371 118.764057 
L 327.40145 97.525958 
L 338.730529 138.257142 
L 350.059608 107.655552 
L 361.388687 112.848033 
L 372.717766 90.631024 
L 384.046845 49.814717 
L 395.375924 58.582349 
L 406.705003 59.561259 
L 418.034082 49.814717 
L 429.363161 49.814717 
L 440.69224 66.583877 
L 452.021318 56.02867 
L 463.350397 66.328509 
L 474.679476 49.814717 
L 486.008555 49.814717 
L 497.337634 49.814717 
L 508.666713 49.814717 
L 519.995792 49.814717 
L 531.324871 65.732651 
L 542.65395 81.18241 
L 553.983029 50.197769 
L 565.312108 50.410575 
L 576.641187 121.487981 
L 587.970266 49.814717 
L 599.299345 49.814717 
L 610.628424 49.814717 
" clip-path="url(#pc4ad95b7fb)" style="fill: none; stroke: #008000; stroke-opacity: 0.27; stroke-width: 1.25; stroke-linecap: round"/>
   </g>
   <g id="line2d_15">
    <path d="M 55.503554 49.814717 
L 66.832633 86.137383 
L 78.161712 159.455998 
L 89.490791 218.205954 
L 100.81987 283.441659 
L 112.148949 292.133936 
L 123.478028 311.446346 
L 134.807107 338.346571 
L 146.136186 329.094783 
L 157.465265 355.651533 
L 168.794344 358.959298 
L 180.123423 365.164706 
L 191.452502 362.327367 
L 202.781581 353.183161 
L 214.11066 378.63187 
L 225.439739 368.270463 
L 236.768818 371.220827 
L 248.097897 380.286067 
L 259.426976 390.305283 
L 270.756055 378.405141 
L 282.085134 368.346337 
L 293.414213 364.824386 
L 304.743292 354.555017 
L 316.072371 363.777925 
L 327.40145 360.714674 
L 338.730529 354.515045 
L 350.059608 355.64543 
L 361.388687 350.447959 
L 372.717766 347.03406 
L 384.046845 345.990384 
L 395.375924 345.15205 
L 406.705003 350.86046 
L 418.034082 337.893785 
L 429.363161 332.081553 
L 440.69224 322.778774 
L 452.021318 321.388399 
L 463.350397 322.719933 
L 474.679476 311.884398 
L 486.008555 302.117273 
L 497.337634 302.668489 
L 508.666713 291.972073 
L 519.995792 296.33155 
L 531.324871 289.962789 
L 542.65395 286.770345 
L 553.983029 283.282648 
L 565.312108 286.155144 
L 576.641187 279.632354 
L 587.970266 277.953241 
L 599.299345 287.246723 
L 610.628424 274.549022 
" clip-path="url(#pc4ad95b7fb)" style="fill: none; stroke: #7b3ab8; stroke-width: 1.5; stroke-linecap: round"/>
   </g>
   <g id="patch_3">
    <path d="M 44.44 400.52 
L 44.44 39.6 
" style="fill: none; stroke: #ffffff; stroke-width: 0.8; stroke-linejoin: miter; stroke-linecap: square"/>
   </g>
   <g id="patch_4">
    <path d="M 623.801429 400.52 
L 623.801429 39.6 
" style="fill: none; stroke: #ffffff; stroke-width: 0.8; stroke-linejoin: miter; stroke-linecap: square"/>
   </g>
   <g id="patch_5">
    <path d="M 44.44 400.52 
L 623.801429 400.52 
" style="fill: none; stroke: #ffffff; stroke-width: 0.8; stroke-linejoin: miter; stroke-linecap: square"/>
   </g>
   <g id="patch_6">
    <path d="M 44.44 39.6 
L 623.801429 39.6 
" style="fill: none; stroke: #ffffff; stroke-width: 0.8; stroke-linejoin: miter; stroke-linecap: square"/>
   </g>
  </g>
  <g id="text_9">
   <!-- CartPole-v1 | GNN_K-Net (Noise + Entropy) -->
   <g style="fill: #262626" transform="translate(107.1675 22.395938) scale(0.18 -0.18)">
    <defs>
     <path id="DejaVuSans-Bold-43" d="M 4288 256 
Q 3956 84 3597 -3 
Q 3238 -91 2847 -91 
Q 1681 -91 1000 561 
Q 319 1213 319 2328 
Q 319 3447 1000 4098 
Q 1681 4750 2847 4750 
Q 3238 4750 3597 4662 
Q 3956 4575 4288 4403 
L 4288 3438 
Q 3953 3666 3628 3772 
Q 3303 3878 2944 3878 
Q 2300 3878 1931 3465 
Q 1563 3053 1563 2328 
Q 1563 1606 1931 1193 
Q 2300 781 2944 781 
Q 3303 781 3628 887 
Q 3953 994 4288 1222 
L 4288 256 
z
" transform="scale(0.015625)"/>
     <path id="DejaVuSans-Bold-61" d="M 2106 1575 
Q 1756 1575 1579 1456 
Q 1403 1338 1403 1106 
Q 1403 894 1545 773 
Q 1688 653 1941 653 
Q 2256 653 2472 879 
Q 2688 1106 2688 1447 
L 2688 1575 
L 2106 1575 
z
M 3816 1997 
L 3816 0 
L 2688 0 
L 2688 519 
Q 2463 200 2181 54 
Q 1900 -91 1497 -91 
Q 953 -91 614 226 
Q 275 544 275 1050 
Q 275 1666 698 1953 
Q 1122 2241 2028 2241 
L 2688 2241 
L 2688 2328 
Q 2688 2594 2478 2717 
Q 2269 2841 1825 2841 
Q 1466 2841 1156 2769 
Q 847 2697 581 2553 
L 581 3406 
Q 941 3494 1303 3539 
Q 1666 3584 2028 3584 
Q 2975 3584 3395 3211 
Q 3816 2838 3816 1997 
z
" transform="scale(0.015625)"/>
     <path id="DejaVuSans-Bold-72" d="M 3138 2547 
Q 2991 2616 2845 2648 
Q 2700 2681 2553 2681 
Q 2122 2681 1889 2404 
Q 1656 2128 1656 1613 
L 1656 0 
L 538 0 
L 538 3500 
L 1656 3500 
L 1656 2925 
Q 1872 3269 2151 3426 
Q 2431 3584 2822 3584 
Q 2878 3584 2943 3579 
Q 3009 3575 3134 3559 
L 3138 2547 
z
" transform="scale(0.015625)"/>
     <path id="DejaVuSans-Bold-74" d="M 1759 4494 
L 1759 3500 
L 2913 3500 
L 2913 2700 
L 1759 2700 
L 1759 1216 
Q 1759 972 1856 886 
Q 1953 800 2241 800 
L 2816 800 
L 2816 0 
L 1856 0 
Q 1194 0 917 276 
Q 641 553 641 1216 
L 641 2700 
L 84 2700 
L 84 3500 
L 641 3500 
L 641 4494 
L 1759 4494 
z
" transform="scale(0.015625)"/>
     <path id="DejaVuSans-Bold-50" d="M 588 4666 
L 2584 4666 
Q 3475 4666 3951 4270 
Q 4428 3875 4428 3144 
Q 4428 2409 3951 2014 
Q 3475 1619 2584 1619 
L 1791 1619 
L 1791 0 
L 588 0 
L 588 4666 
z
M 1791 3794 
L 1791 2491 
L 2456 2491 
Q 2806 2491 2997 2661 
Q 3188 2831 3188 3144 
Q 3188 3456 2997 3625 
Q 2806 3794 2456 3794 
L 1791 3794 
z
" transform="scale(0.015625)"/>
     <path id="DejaVuSans-Bold-6f" d="M 2203 2784 
Q 1831 2784 1636 2517 
Q 1441 2250 1441 1747 
Q 1441 1244 1636 976 
Q 1831 709 2203 709 
Q 2569 709 2762 976 
Q 2956 1244 2956 1747 
Q 2956 2250 2762 2517 
Q 2569 2784 2203 2784 
z
M 2203 3584 
Q 3106 3584 3614 3096 
Q 4122 2609 4122 1747 
Q 4122 884 3614 396 
Q 3106 -91 2203 -91 
Q 1297 -91 786 396 
Q 275 884 275 1747 
Q 275 2609 786 3096 
Q 1297 3584 2203 3584 
z
" transform="scale(0.015625)"/>
     <path id="DejaVuSans-Bold-6c" d="M 538 4863 
L 1656 4863 
L 1656 0 
L 538 0 
L 538 4863 
z
" transform="scale(0.015625)"/>
     <path id="DejaVuSans-Bold-65" d="M 4031 1759 
L 4031 1441 
L 1416 1441 
Q 1456 1047 1700 850 
Q 1944 653 2381 653 
Q 2734 653 3104 758 
Q 3475 863 3866 1075 
L 3866 213 
Q 3469 63 3072 -14 
Q 2675 -91 2278 -91 
Q 1328 -91 801 392 
Q 275 875 275 1747 
Q 275 2603 792 3093 
Q 1309 3584 2216 3584 
Q 3041 3584 3536 3087 
Q 4031 2591 4031 1759 
z
M 2881 2131 
Q 2881 2450 2695 2645 
Q 2509 2841 2209 2841 
Q 1884 2841 1681 2658 
Q 1478 2475 1428 2131 
L 2881 2131 
z
" transform="scale(0.015625)"/>
     <path id="DejaVuSans-Bold-2d" d="M 347 2297 
L 2309 2297 
L 2309 1388 
L 347 1388 
L 347 2297 
z
" transform="scale(0.015625)"/>
     <path id="DejaVuSans-Bold-76" d="M 97 3500 
L 1216 3500 
L 2088 1081 
L 2956 3500 
L 4078 3500 
L 2700 0 
L 1472 0 
L 97 3500 
z
" transform="scale(0.015625)"/>
     <path id="DejaVuSans-Bold-31" d="M 750 831 
L 1813 831 
L 1813 3847 
L 722 3622 
L 722 4441 
L 1806 4666 
L 2950 4666 
L 2950 831 
L 4013 831 
L 4013 0 
L 750 0 
L 750 831 
z
" transform="scale(0.015625)"/>
     <path id="DejaVuSans-Bold-20" transform="scale(0.015625)"/>
     <path id="DejaVuSans-Bold-7c" d="M 1522 4891 
L 1522 -1509 
L 813 -1509 
L 813 4891 
L 1522 4891 
z
" transform="scale(0.015625)"/>
     <path id="DejaVuSans-Bold-47" d="M 4781 347 
Q 4331 128 3847 18 
Q 3363 -91 2847 -91 
Q 1681 -91 1000 561 
Q 319 1213 319 2328 
Q 319 3456 1012 4103 
Q 1706 4750 2913 4750 
Q 3378 4750 3804 4662 
Q 4231 4575 4609 4403 
L 4609 3438 
Q 4219 3659 3833 3768 
Q 3447 3878 3059 3878 
Q 2341 3878 1952 3476 
Q 1563 3075 1563 2328 
Q 1563 1588 1938 1184 
Q 2313 781 3003 781 
Q 3191 781 3352 804 
Q 3513 828 3641 878 
L 3641 1784 
L 2906 1784 
L 2906 2591 
L 4781 2591 
L 4781 347 
z
" transform="scale(0.015625)"/>
     <path id="DejaVuSans-Bold-4e" d="M 588 4666 
L 1931 4666 
L 3628 1466 
L 3628 4666 
L 4769 4666 
L 4769 0 
L 3425 0 
L 1728 3200 
L 1728 0 
L 588 0 
L 588 4666 
z
" transform="scale(0.015625)"/>
     <path id="DejaVuSans-Bold-5f" d="M 3200 -916 
L 3200 -1509 
L 0 -1509 
L 0 -916 
L 3200 -916 
z
" transform="scale(0.015625)"/>
     <path id="DejaVuSans-Bold-4b" d="M 588 4666 
L 1791 4666 
L 1791 2963 
L 3525 4666 
L 4922 4666 
L 2675 2456 
L 5153 0 
L 3647 0 
L 1791 1838 
L 1791 0 
L 588 0 
L 588 4666 
z
" transform="scale(0.015625)"/>
     <path id="DejaVuSans-Bold-28" d="M 2413 -844 
L 1484 -844 
Q 1006 -72 778 623 
Q 550 1319 550 2003 
Q 550 2688 779 3389 
Q 1009 4091 1484 4856 
L 2413 4856 
Q 2013 4116 1813 3408 
Q 1613 2700 1613 2009 
Q 1613 1319 1811 609 
Q 2009 -100 2413 -844 
z
" transform="scale(0.015625)"/>
     <path id="DejaVuSans-Bold-69" d="M 538 3500 
L 1656 3500 
L 1656 0 
L 538 0 
L 538 3500 
z
M 538 4863 
L 1656 4863 
L 1656 3950 
L 538 3950 
L 538 4863 
z
" transform="scale(0.015625)"/>
     <path id="DejaVuSans-Bold-73" d="M 3272 3391 
L 3272 2541 
Q 2913 2691 2578 2766 
Q 2244 2841 1947 2841 
Q 1628 2841 1473 2761 
Q 1319 2681 1319 2516 
Q 1319 2381 1436 2309 
Q 1553 2238 1856 2203 
L 2053 2175 
Q 2913 2066 3209 1816 
Q 3506 1566 3506 1031 
Q 3506 472 3093 190 
Q 2681 -91 1863 -91 
Q 1516 -91 1145 -36 
Q 775 19 384 128 
L 384 978 
Q 719 816 1070 734 
Q 1422 653 1784 653 
Q 2113 653 2278 743 
Q 2444 834 2444 1013 
Q 2444 1163 2330 1236 
Q 2216 1309 1875 1350 
L 1678 1375 
Q 931 1469 631 1722 
Q 331 1975 331 2491 
Q 331 3047 712 3315 
Q 1094 3584 1881 3584 
Q 2191 3584 2531 3537 
Q 2872 3491 3272 3391 
z
" transform="scale(0.015625)"/>
     <path id="DejaVuSans-Bold-2b" d="M 3053 4013 
L 3053 2375 
L 4684 2375 
L 4684 1638 
L 3053 1638 
L 3053 0 
L 2309 0 
L 2309 1638 
L 678 1638 
L 678 2375 
L 2309 2375 
L 2309 4013 
L 3053 4013 
z
" transform="scale(0.015625)"/>
     <path id="DejaVuSans-Bold-45" d="M 588 4666 
L 3834 4666 
L 3834 3756 
L 1791 3756 
L 1791 2888 
L 3713 2888 
L 3713 1978 
L 1791 1978 
L 1791 909 
L 3903 909 
L 3903 0 
L 588 0 
L 588 4666 
z
" transform="scale(0.015625)"/>
     <path id="DejaVuSans-Bold-6e" d="M 4056 2131 
L 4056 0 
L 2931 0 
L 2931 347 
L 2931 1631 
Q 2931 2084 2911 2256 
Q 2891 2428 2841 2509 
Q 2775 2619 2662 2680 
Q 2550 2741 2406 2741 
Q 2056 2741 1856 2470 
Q 1656 2200 1656 1722 
L 1656 0 
L 538 0 
L 538 3500 
L 1656 3500 
L 1656 2988 
Q 1909 3294 2193 3439 
Q 2478 3584 2822 3584 
Q 3428 3584 3742 3212 
Q 4056 2841 4056 2131 
z
" transform="scale(0.015625)"/>
     <path id="DejaVuSans-Bold-70" d="M 1656 506 
L 1656 -1331 
L 538 -1331 
L 538 3500 
L 1656 3500 
L 1656 2988 
Q 1888 3294 2169 3439 
Q 2450 3584 2816 3584 
Q 3463 3584 3878 3070 
Q 4294 2556 4294 1747 
Q 4294 938 3878 423 
Q 3463 -91 2816 -91 
Q 2450 -91 2169 54 
Q 1888 200 1656 506 
z
M 2400 2772 
Q 2041 2772 1848 2508 
Q 1656 2244 1656 1747 
Q 1656 1250 1848 986 
Q 2041 722 2400 722 
Q 2759 722 2948 984 
Q 3138 1247 3138 1747 
Q 3138 2247 2948 2509 
Q 2759 2772 2400 2772 
z
" transform="scale(0.015625)"/>
     <path id="DejaVuSans-Bold-79" d="M 78 3500 
L 1197 3500 
L 2138 1125 
L 2938 3500 
L 4056 3500 
L 2584 -331 
Q 2363 -916 2067 -1148 
Q 1772 -1381 1288 -1381 
L 641 -1381 
L 641 -647 
L 991 -647 
Q 1275 -647 1404 -556 
Q 1534 -466 1606 -231 
L 1638 -134 
L 78 3500 
z
" transform="scale(0.015625)"/>
     <path id="DejaVuSans-Bold-29" d="M 513 -844 
Q 913 -100 1113 609 
Q 1313 1319 1313 2009 
Q 1313 2700 1113 3408 
Q 913 4116 513 4856 
L 1441 4856 
Q 1916 4091 2145 3389 
Q 2375 2688 2375 2003 
Q 2375 1319 2147 623 
Q 1919 -72 1441 -844 
L 513 -844 
z
" transform="scale(0.015625)"/>
    </defs>
    <use xlink:href="#DejaVuSans-Bold-43"/>
    <use xlink:href="#DejaVuSans-Bold-61" transform="translate(73.388672 0)"/>
    <use xlink:href="#DejaVuSans-Bold-72" transform="translate(140.869141 0)"/>
    <use xlink:href="#DejaVuSans-Bold-74" transform="translate(190.185547 0)"/>
    <use xlink:href="#DejaVuSans-Bold-50" transform="translate(237.988281 0)"/>
    <use xlink:href="#DejaVuSans-Bold-6f" transform="translate(311.279297 0)"/>
    <use xlink:href="#DejaVuSans-Bold-6c" transform="translate(379.980469 0)"/>
    <use xlink:href="#DejaVuSans-Bold-65" transform="translate(414.257812 0)"/>
    <use xlink:href="#DejaVuSans-Bold-2d" transform="translate(482.080078 0)"/>
    <use xlink:href="#DejaVuSans-Bold-76" transform="translate(523.583984 0)"/>
    <use xlink:href="#DejaVuSans-Bold-31" transform="translate(588.769531 0)"/>
    <use xlink:href="#DejaVuSans-Bold-20" transform="translate(658.349609 0)"/>
    <use xlink:href="#DejaVuSans-Bold-7c" transform="translate(693.164062 0)"/>
    <use xlink:href="#DejaVuSans-Bold-20" transform="translate(729.6875 0)"/>
    <use xlink:href="#DejaVuSans-Bold-47" transform="translate(764.501953 0)"/>
    <use xlink:href="#DejaVuSans-Bold-4e" transform="translate(846.582031 0)"/>
    <use xlink:href="#DejaVuSans-Bold-4e" transform="translate(930.273438 0)"/>
    <use xlink:href="#DejaVuSans-Bold-5f" transform="translate(1013.964844 0)"/>
    <use xlink:href="#DejaVuSans-Bold-4b" transform="translate(1063.964844 0)"/>
    <use xlink:href="#DejaVuSans-Bold-2d" transform="translate(1132.705078 0)"/>
    <use xlink:href="#DejaVuSans-Bold-4e" transform="translate(1174.208984 0)"/>
    <use xlink:href="#DejaVuSans-Bold-65" transform="translate(1257.900391 0)"/>
    <use xlink:href="#DejaVuSans-Bold-74" transform="translate(1325.722656 0)"/>
    <use xlink:href="#DejaVuSans-Bold-20" transform="translate(1373.525391 0)"/>
    <use xlink:href="#DejaVuSans-Bold-28" transform="translate(1408.339844 0)"/>
    <use xlink:href="#DejaVuSans-Bold-4e" transform="translate(1454.042969 0)"/>
    <use xlink:href="#DejaVuSans-Bold-6f" transform="translate(1537.734375 0)"/>
    <use xlink:href="#DejaVuSans-Bold-69" transform="translate(1606.435547 0)"/>
    <use xlink:href="#DejaVuSans-Bold-73" transform="translate(1640.712891 0)"/>
    <use xlink:href="#DejaVuSans-Bold-65" transform="translate(1700.234375 0)"/>
    <use xlink:href="#DejaVuSans-Bold-20" transform="translate(1768.056641 0)"/>
    <use xlink:href="#DejaVuSans-Bold-2b" transform="translate(1802.871094 0)"/>
    <use xlink:href="#DejaVuSans-Bold-20" transform="translate(1886.660156 0)"/>
    <use xlink:href="#DejaVuSans-Bold-45" transform="translate(1921.474609 0)"/>
    <use xlink:href="#DejaVuSans-Bold-6e" transform="translate(1989.785156 0)"/>
    <use xlink:href="#DejaVuSans-Bold-74" transform="translate(2060.976562 0)"/>
    <use xlink:href="#DejaVuSans-Bold-72" transform="translate(2108.779297 0)"/>
    <use xlink:href="#DejaVuSans-Bold-6f" transform="translate(2158.095703 0)"/>
    <use xlink:href="#DejaVuSans-Bold-70" transform="translate(2226.796875 0)"/>
    <use xlink:href="#DejaVuSans-Bold-79" transform="translate(2298.378906 0)"/>
    <use xlink:href="#DejaVuSans-Bold-29" transform="translate(2363.564453 0)"/>
   </g>
  </g>
 </g>
 <defs>
  <clipPath id="pc4ad95b7fb">
   <rect x="44.44" y="39.6" width="579.361429" height="360.92"/>
  </clipPath>
 </defs>
</svg>
