<?xml version="1.0" encoding="utf-8" standalone="no"?>
<!DOCTYPE svg PUBLIC "-//W3C//DTD SVG 1.1//EN"
  "http://www.w3.org/Graphics/SVG/1.1/DTD/svg11.dtd">
<svg xmlns:xlink="http://www.w3.org/1999/xlink" width="648pt" height="432pt" viewBox="0 0 648 432" xmlns="http://www.w3.org/2000/svg" version="1.1">
 <metadata>
  <rdf:RDF xmlns:dc="http://purl.org/dc/elements/1.1/" xmlns:cc="http://creativecommons.org/ns#" xmlns:rdf="http://www.w3.org/1999/02/22-rdf-syntax-ns#">
   <cc:Work>
    <dc:type rdf:resource="http://purl.org/dc/dcmitype/StillImage"/>
    <dc:date>2025-07-31T05:18:10.893051</dc:date>
    <dc:format>image/svg+xml</dc:format>
    <dc:creator>
     <cc:Agent>
      <dc:title>Matplotlib v3.10.0, https://matplotlib.org/</dc:title>
     </cc:Agent>
    </dc:creator>
   </cc:Work>
  </rdf:RDF>
 </metadata>
 <defs>
  <style type="text/css">*{stroke-linejoin: round; stroke-linecap: butt}</style>
 </defs>
 <g id="figure_1">
  <g id="patch_1">
   <path d="M 0 432 
L 648 432 
L 648 0 
L 0 0 
z
" style="fill: #ffffff"/>
  </g>
  <g id="axes_1">
   <g id="patch_2">
    <path d="M 44.44 400.52 
L 623.801429 400.52 
L 623.801429 39.6 
L 44.44 39.6 
z
" style="fill: #eaeaf2"/>
   </g>
   <g id="matplotlib.axis_1">
    <g id="xtick_1">
     <g id="line2d_1">
      <path d="M 55.503554 400.52 
L 55.503554 39.6 
" clip-path="url(#p868ca2b24d)" style="fill: none; stroke: #ffffff; stroke-width: 0.8; stroke-linecap: round"/>
     </g>
     <g id="text_1">
      <!-- 0 -->
      <g style="fill: #262626" transform="translate(51.049804 418.157812) scale(0.14 -0.14)">
       <defs>
        <path id="DejaVuSans-30" d="M 2034 4250 
Q 1547 4250 1301 3770 
Q 1056 3291 1056 2328 
Q 1056 1369 1301 889 
Q 1547 409 2034 409 
Q 2525 409 2770 889 
Q 3016 1369 3016 2328 
Q 3016 3291 2770 3770 
Q 2525 4250 2034 4250 
z
M 2034 4750 
Q 2819 4750 3233 4129 
Q 3647 3509 3647 2328 
Q 3647 1150 3233 529 
Q 2819 -91 2034 -91 
Q 1250 -91 836 529 
Q 422 1150 422 2328 
Q 422 3509 836 4129 
Q 1250 4750 2034 4750 
z
" transform="scale(0.015625)"/>
       </defs>
       <use xlink:href="#DejaVuSans-30"/>
      </g>
     </g>
    </g>
    <g id="xtick_2">
     <g id="line2d_2">
      <path d="M 608.681239 400.52 
L 608.681239 39.6 
" clip-path="url(#p868ca2b24d)" style="fill: none; stroke: #ffffff; stroke-width: 0.8; stroke-linecap: round"/>
     </g>
     <g id="text_2">
      <!-- 600000 -->
      <g style="fill: #262626" transform="translate(581.958739 418.157812) scale(0.14 -0.14)">
       <defs>
        <path id="DejaVuSans-36" d="M 2113 2584 
Q 1688 2584 1439 2293 
Q 1191 2003 1191 1497 
Q 1191 994 1439 701 
Q 1688 409 2113 409 
Q 2538 409 2786 701 
Q 3034 994 3034 1497 
Q 3034 2003 2786 2293 
Q 2538 2584 2113 2584 
z
M 3366 4563 
L 3366 3988 
Q 3128 4100 2886 4159 
Q 2644 4219 2406 4219 
Q 1781 4219 1451 3797 
Q 1122 3375 1075 2522 
Q 1259 2794 1537 2939 
Q 1816 3084 2150 3084 
Q 2853 3084 3261 2657 
Q 3669 2231 3669 1497 
Q 3669 778 3244 343 
Q 2819 -91 2113 -91 
Q 1303 -91 875 529 
Q 447 1150 447 2328 
Q 447 3434 972 4092 
Q 1497 4750 2381 4750 
Q 2619 4750 2861 4703 
Q 3103 4656 3366 4563 
z
" transform="scale(0.015625)"/>
       </defs>
       <use xlink:href="#DejaVuSans-36"/>
       <use xlink:href="#DejaVuSans-30" transform="translate(63.623047 0)"/>
       <use xlink:href="#DejaVuSans-30" transform="translate(127.246094 0)"/>
       <use xlink:href="#DejaVuSans-30" transform="translate(190.869141 0)"/>
       <use xlink:href="#DejaVuSans-30" transform="translate(254.492188 0)"/>
       <use xlink:href="#DejaVuSans-30" transform="translate(318.115234 0)"/>
      </g>
     </g>
    </g>
   </g>
   <g id="matplotlib.axis_2">
    <g id="ytick_1">
     <g id="line2d_3">
      <path d="M 44.44 390.305283 
L 623.801429 390.305283 
" clip-path="url(#p868ca2b24d)" style="fill: none; stroke: #ffffff; stroke-width: 0.8; stroke-linecap: round"/>
     </g>
     <g id="text_3">
      <!-- 0 -->
      <g style="fill: #262626" transform="translate(28.5325 395.624189) scale(0.14 -0.14)">
       <use xlink:href="#DejaVuSans-30"/>
      </g>
     </g>
    </g>
    <g id="ytick_2">
     <g id="line2d_4">
      <path d="M 44.44 322.20717 
L 623.801429 322.20717 
" clip-path="url(#p868ca2b24d)" style="fill: none; stroke: #ffffff; stroke-width: 0.8; stroke-linecap: round"/>
     </g>
     <g id="text_4">
      <!-- 100 -->
      <g style="fill: #262626" transform="translate(10.7175 327.526076) scale(0.14 -0.14)">
       <defs>
        <path id="DejaVuSans-31" d="M 794 531 
L 1825 531 
L 1825 4091 
L 703 3866 
L 703 4441 
L 1819 4666 
L 2450 4666 
L 2450 531 
L 3481 531 
L 3481 0 
L 794 0 
L 794 531 
z
" transform="scale(0.015625)"/>
       </defs>
       <use xlink:href="#DejaVuSans-31"/>
       <use xlink:href="#DejaVuSans-30" transform="translate(63.623047 0)"/>
       <use xlink:href="#DejaVuSans-30" transform="translate(127.246094 0)"/>
      </g>
     </g>
    </g>
    <g id="ytick_3">
     <g id="line2d_5">
      <path d="M 44.44 254.109057 
L 623.801429 254.109057 
" clip-path="url(#p868ca2b24d)" style="fill: none; stroke: #ffffff; stroke-width: 0.8; stroke-linecap: round"/>
     </g>
     <g id="text_5">
      <!-- 200 -->
      <g style="fill: #262626" transform="translate(10.7175 259.427963) scale(0.14 -0.14)">
       <defs>
        <path id="DejaVuSans-32" d="M 1228 531 
L 3431 531 
L 3431 0 
L 469 0 
L 469 531 
Q 828 903 1448 1529 
Q 2069 2156 2228 2338 
Q 2531 2678 2651 2914 
Q 2772 3150 2772 3378 
Q 2772 3750 2511 3984 
Q 2250 4219 1831 4219 
Q 1534 4219 1204 4116 
Q 875 4013 500 3803 
L 500 4441 
Q 881 4594 1212 4672 
Q 1544 4750 1819 4750 
Q 2544 4750 2975 4387 
Q 3406 4025 3406 3419 
Q 3406 3131 3298 2873 
Q 3191 2616 2906 2266 
Q 2828 2175 2409 1742 
Q 1991 1309 1228 531 
z
" transform="scale(0.015625)"/>
       </defs>
       <use xlink:href="#DejaVuSans-32"/>
       <use xlink:href="#DejaVuSans-30" transform="translate(63.623047 0)"/>
       <use xlink:href="#DejaVuSans-30" transform="translate(127.246094 0)"/>
      </g>
     </g>
    </g>
    <g id="ytick_4">
     <g id="line2d_6">
      <path d="M 44.44 186.010943 
L 623.801429 186.010943 
" clip-path="url(#p868ca2b24d)" style="fill: none; stroke: #ffffff; stroke-width: 0.8; stroke-linecap: round"/>
     </g>
     <g id="text_6">
      <!-- 300 -->
      <g style="fill: #262626" transform="translate(10.7175 191.32985) scale(0.14 -0.14)">
       <defs>
        <path id="DejaVuSans-33" d="M 2597 2516 
Q 3050 2419 3304 2112 
Q 3559 1806 3559 1356 
Q 3559 666 3084 287 
Q 2609 -91 1734 -91 
Q 1441 -91 1130 -33 
Q 819 25 488 141 
L 488 750 
Q 750 597 1062 519 
Q 1375 441 1716 441 
Q 2309 441 2620 675 
Q 2931 909 2931 1356 
Q 2931 1769 2642 2001 
Q 2353 2234 1838 2234 
L 1294 2234 
L 1294 2753 
L 1863 2753 
Q 2328 2753 2575 2939 
Q 2822 3125 2822 3475 
Q 2822 3834 2567 4026 
Q 2313 4219 1838 4219 
Q 1578 4219 1281 4162 
Q 984 4106 628 3988 
L 628 4550 
Q 988 4650 1302 4700 
Q 1616 4750 1894 4750 
Q 2613 4750 3031 4423 
Q 3450 4097 3450 3541 
Q 3450 3153 3228 2886 
Q 3006 2619 2597 2516 
z
" transform="scale(0.015625)"/>
       </defs>
       <use xlink:href="#DejaVuSans-33"/>
       <use xlink:href="#DejaVuSans-30" transform="translate(63.623047 0)"/>
       <use xlink:href="#DejaVuSans-30" transform="translate(127.246094 0)"/>
      </g>
     </g>
    </g>
    <g id="ytick_5">
     <g id="line2d_7">
      <path d="M 44.44 117.91283 
L 623.801429 117.91283 
" clip-path="url(#p868ca2b24d)" style="fill: none; stroke: #ffffff; stroke-width: 0.8; stroke-linecap: round"/>
     </g>
     <g id="text_7">
      <!-- 400 -->
      <g style="fill: #262626" transform="translate(10.7175 123.231736) scale(0.14 -0.14)">
       <defs>
        <path id="DejaVuSans-34" d="M 2419 4116 
L 825 1625 
L 2419 1625 
L 2419 4116 
z
M 2253 4666 
L 3047 4666 
L 3047 1625 
L 3713 1625 
L 3713 1100 
L 3047 1100 
L 3047 0 
L 2419 0 
L 2419 1100 
L 313 1100 
L 313 1709 
L 2253 4666 
z
" transform="scale(0.015625)"/>
       </defs>
       <use xlink:href="#DejaVuSans-34"/>
       <use xlink:href="#DejaVuSans-30" transform="translate(63.623047 0)"/>
       <use xlink:href="#DejaVuSans-30" transform="translate(127.246094 0)"/>
      </g>
     </g>
    </g>
    <g id="ytick_6">
     <g id="line2d_8">
      <path d="M 44.44 49.814717 
L 623.801429 49.814717 
" clip-path="url(#p868ca2b24d)" style="fill: none; stroke: #ffffff; stroke-width: 0.8; stroke-linecap: round"/>
     </g>
     <g id="text_8">
      <!-- 500 -->
      <g style="fill: #262626" transform="translate(10.7175 55.133623) scale(0.14 -0.14)">
       <defs>
        <path id="DejaVuSans-35" d="M 691 4666 
L 3169 4666 
L 3169 4134 
L 1269 4134 
L 1269 2991 
Q 1406 3038 1543 3061 
Q 1681 3084 1819 3084 
Q 2600 3084 3056 2656 
Q 3513 2228 3513 1497 
Q 3513 744 3044 326 
Q 2575 -91 1722 -91 
Q 1428 -91 1123 -41 
Q 819 9 494 109 
L 494 744 
Q 775 591 1075 516 
Q 1375 441 1709 441 
Q 2250 441 2565 725 
Q 2881 1009 2881 1497 
Q 2881 1984 2565 2268 
Q 2250 2553 1709 2553 
Q 1456 2553 1204 2497 
Q 953 2441 691 2322 
L 691 4666 
z
" transform="scale(0.015625)"/>
       </defs>
       <use xlink:href="#DejaVuSans-35"/>
       <use xlink:href="#DejaVuSans-30" transform="translate(63.623047 0)"/>
       <use xlink:href="#DejaVuSans-30" transform="translate(127.246094 0)"/>
      </g>
     </g>
    </g>
   </g>
   <g id="FillBetweenPolyCollection_1">
    <path d="M 55.503554 373.743746 
L 55.503554 376.852576 
L 66.832633 373.582357 
L 78.161712 366.154675 
L 89.490791 343.882254 
L 100.81987 312.768717 
L 112.148949 271.208223 
L 123.478028 267.69171 
L 134.807107 237.193884 
L 146.136186 239.536641 
L 157.465265 223.866776 
L 168.794344 221.139868 
L 180.123423 191.296998 
L 191.452502 183.032356 
L 202.781581 152.783812 
L 214.11066 143.328485 
L 225.439739 103.762052 
L 236.768818 90.381933 
L 248.097897 127.515595 
L 259.426976 112.147461 
L 270.756055 77.718304 
L 282.085134 85.099504 
L 293.414213 71.844151 
L 304.743292 64.733227 
L 316.072371 89.549708 
L 327.40145 96.099525 
L 338.730529 77.969878 
L 350.059608 120.092602 
L 361.388687 66.272763 
L 372.717766 59.438338 
L 384.046845 56.481646 
L 395.375924 54.076028 
L 406.705003 64.962593 
L 418.034082 50.606358 
L 429.363161 92.849635 
L 440.69224 69.800283 
L 452.021318 84.557768 
L 463.350397 58.650488 
L 474.679476 53.96836 
L 486.008555 62.072377 
L 497.337634 49.814717 
L 508.666713 58.420616 
L 519.995792 52.981279 
L 531.324871 84.387409 
L 542.65395 77.460792 
L 553.983029 65.433432 
L 565.312108 66.794756 
L 576.641187 70.082174 
L 587.970266 54.41134 
L 599.299345 49.814717 
L 610.628424 65.437898 
L 610.628424 47.981404 
L 610.628424 47.981404 
L 599.299345 49.814717 
L 587.970266 48.282509 
L 576.641187 47.831604 
L 565.312108 50.557211 
L 553.983029 44.819308 
L 542.65395 41.661727 
L 531.324871 42.515319 
L 519.995792 48.759196 
L 508.666713 46.946084 
L 497.337634 49.814717 
L 486.008555 45.72883 
L 474.679476 48.674416 
L 463.350397 49.848725 
L 452.021318 45.05186 
L 440.69224 46.002453 
L 429.363161 48.523942 
L 418.034082 49.550837 
L 406.705003 48.201341 
L 395.375924 49.383925 
L 384.046845 49.140422 
L 372.717766 48.022379 
L 361.388687 50.227978 
L 350.059608 44.587554 
L 338.730529 50.124567 
L 327.40145 53.83739 
L 316.072371 55.909757 
L 304.743292 48.14129 
L 293.414213 62.600443 
L 282.085134 55.899534 
L 270.756055 48.963105 
L 259.426976 69.540199 
L 248.097897 76.865761 
L 236.768818 77.481811 
L 225.439739 74.163187 
L 214.11066 85.619266 
L 202.781581 111.813302 
L 191.452502 148.79462 
L 180.123423 156.158495 
L 168.794344 171.805164 
L 157.465265 189.899254 
L 146.136186 195.101461 
L 134.807107 193.460478 
L 123.478028 233.325027 
L 112.148949 254.460032 
L 100.81987 296.762364 
L 89.490791 327.158447 
L 78.161712 353.201638 
L 66.832633 363.854005 
L 55.503554 373.743746 
z
" clip-path="url(#p868ca2b24d)" style="fill: #0000ff; fill-opacity: 0.1"/>
   </g>
   <g id="line2d_9">
    <path d="M 55.503554 375.298161 
L 66.832633 368.718181 
L 78.161712 359.678157 
L 89.490791 335.520351 
L 100.81987 304.765541 
L 112.148949 262.834127 
L 123.478028 250.508369 
L 134.807107 215.327181 
L 146.136186 217.319051 
L 157.465265 206.883015 
L 168.794344 196.472516 
L 180.123423 173.727746 
L 191.452502 165.913488 
L 202.781581 132.298557 
L 214.11066 114.473875 
L 225.439739 88.96262 
L 236.768818 83.931872 
L 248.097897 102.190678 
L 259.426976 90.84383 
L 270.756055 63.340705 
L 282.085134 70.499519 
L 293.414213 67.222297 
L 304.743292 56.437258 
L 316.072371 72.729732 
L 327.40145 74.968458 
L 338.730529 64.047223 
L 350.059608 82.340078 
L 361.388687 58.250371 
L 372.717766 53.730358 
L 384.046845 52.811034 
L 395.375924 51.729976 
L 406.705003 56.581967 
L 418.034082 50.078597 
L 429.363161 70.686789 
L 440.69224 57.901368 
L 452.021318 64.804814 
L 463.350397 54.249607 
L 474.679476 51.321388 
L 486.008555 53.900604 
L 497.337634 49.814717 
L 508.666713 52.68335 
L 519.995792 50.870238 
L 531.324871 63.451364 
L 542.65395 59.561259 
L 553.983029 55.12637 
L 565.312108 58.675984 
L 576.641187 58.956889 
L 587.970266 51.346925 
L 599.299345 49.814717 
L 610.628424 56.709651 
" clip-path="url(#p868ca2b24d)" style="fill: none; stroke: #0000ff; stroke-width: 2; stroke-linecap: round"/>
   </g>
   <g id="line2d_10">
    <path d="M 55.503554 373.834052 
L 66.832633 367.747783 
L 78.161712 349.531538 
L 89.490791 334.081778 
L 100.81987 307.566075 
L 112.148949 274.240561 
L 123.478028 256.152 
L 134.807107 197.970675 
L 146.136186 189.415849 
L 157.465265 216.314604 
L 168.794344 199.417759 
L 180.123423 188.181571 
L 191.452502 146.982212 
L 202.781581 159.835731 
L 214.11066 154.813495 
L 225.439739 112.081929 
L 236.768818 77.479575 
L 248.097897 135.022481 
L 259.426976 82.969986 
L 270.756055 61.604203 
L 282.085134 67.818156 
L 293.414213 69.861099 
L 304.743292 50.368014 
L 316.072371 79.096906 
L 327.40145 50.751066 
L 338.730529 57.901368 
L 350.059608 49.814717 
L 361.388687 71.861481 
L 372.717766 49.814717 
L 384.046845 49.814717 
L 395.375924 54.539024 
L 406.705003 49.814717 
L 418.034082 51.134118 
L 429.363161 77.139085 
L 440.69224 49.814717 
L 452.021318 54.624146 
L 463.350397 52.666325 
L 474.679476 56.581967 
L 486.008555 70.244151 
L 497.337634 49.814717 
L 508.666713 49.814717 
L 519.995792 49.814717 
L 531.324871 49.814717 
L 542.65395 53.091939 
L 553.983029 50.453137 
L 565.312108 61.221151 
L 576.641187 53.900604 
L 587.970266 49.814717 
L 599.299345 49.814717 
L 610.628424 63.562024 
" clip-path="url(#p868ca2b24d)" style="fill: none; stroke: #008000; stroke-opacity: 0.27; stroke-width: 1.25; stroke-linecap: round"/>
   </g>
   <g id="line2d_11">
    <path d="M 55.503554 373.578684 
L 66.832633 361.661514 
L 78.161712 361.746637 
L 89.490791 328.931858 
L 100.81987 316.163462 
L 112.148949 251.087203 
L 123.478028 232.232538 
L 134.807107 189.586094 
L 146.136186 211.462613 
L 157.465265 205.206099 
L 168.794344 207.121358 
L 180.123423 159.878292 
L 191.452502 189.543533 
L 202.781581 141.619486 
L 214.11066 85.821594 
L 225.439739 94.887156 
L 236.768818 86.119524 
L 248.097897 81.012165 
L 259.426976 93.014458 
L 270.756055 54.794392 
L 282.085134 63.604585 
L 293.414213 60.071995 
L 304.743292 49.814717 
L 316.072371 49.814717 
L 327.40145 69.478047 
L 338.730529 53.1345 
L 350.059608 62.583113 
L 361.388687 52.836571 
L 372.717766 49.814717 
L 384.046845 49.814717 
L 395.375924 49.814717 
L 406.705003 49.814717 
L 418.034082 49.814717 
L 429.363161 49.814717 
L 440.69224 49.814717 
L 452.021318 59.305892 
L 463.350397 49.814717 
L 474.679476 49.814717 
L 486.008555 49.814717 
L 497.337634 49.814717 
L 508.666713 49.814717 
L 519.995792 49.814717 
L 531.324871 49.814717 
L 542.65395 49.814717 
L 553.983029 49.814717 
L 565.312108 49.814717 
L 576.641187 49.814717 
L 587.970266 49.814717 
L 599.299345 49.814717 
L 610.628424 49.814717 
" clip-path="url(#p868ca2b24d)" style="fill: none; stroke: #008000; stroke-opacity: 0.27; stroke-width: 1.25; stroke-linecap: round"/>
   </g>
   <g id="line2d_12">
    <path d="M 55.503554 376.430292 
L 66.832633 373.706368 
L 78.161712 365.108981 
L 89.490791 341.317203 
L 100.81987 308.332179 
L 112.148949 255.854071 
L 123.478028 262.578759 
L 134.807107 248.916575 
L 146.136186 254.279302 
L 157.465265 231.211066 
L 168.794344 234.913901 
L 180.123423 196.778958 
L 191.452502 169.752519 
L 202.781581 140.512892 
L 214.11066 100.888302 
L 225.439739 67.179736 
L 236.768818 75.181264 
L 248.097897 65.562406 
L 259.426976 54.581585 
L 270.756055 59.518698 
L 282.085134 63.77483 
L 293.414213 65.39216 
L 304.743292 70.159028 
L 316.072371 89.737236 
L 327.40145 111.826561 
L 338.730529 89.439307 
L 350.059608 89.141377 
L 361.388687 53.347307 
L 372.717766 54.709269 
L 384.046845 49.814717 
L 395.375924 54.666708 
L 406.705003 72.15941 
L 418.034082 49.814717 
L 429.363161 109.783618 
L 440.69224 59.603821 
L 452.021318 103.825033 
L 463.350397 49.814717 
L 474.679476 49.814717 
L 486.008555 49.814717 
L 497.337634 49.814717 
L 508.666713 49.814717 
L 519.995792 49.814717 
L 531.324871 103.867594 
L 542.65395 95.270208 
L 553.983029 49.814717 
L 565.312108 71.308184 
L 576.641187 61.859571 
L 587.970266 57.475755 
L 599.299345 49.814717 
L 610.628424 70.54208 
" clip-path="url(#p868ca2b24d)" style="fill: none; stroke: #008000; stroke-opacity: 0.27; stroke-width: 1.25; stroke-linecap: round"/>
   </g>
   <g id="line2d_13">
    <path d="M 55.503554 374.983208 
L 66.832633 374.600156 
L 78.161712 366.896557 
L 89.490791 348.212137 
L 100.81987 293.435717 
L 112.148949 264.621703 
L 123.478028 228.827632 
L 134.807107 231.33875 
L 146.136186 227.635915 
L 157.465265 179.796991 
L 168.794344 177.115627 
L 180.123423 149.025156 
L 191.452502 177.413557 
L 202.781581 100.547811 
L 214.11066 143.066571 
L 225.439739 81.82083 
L 236.768818 90.035165 
L 248.097897 118.338443 
L 259.426976 109.953863 
L 270.756055 49.857278 
L 282.085134 58.241858 
L 293.414213 66.839245 
L 304.743292 49.814717 
L 316.072371 89.2265 
L 327.40145 82.161321 
L 338.730529 51.729976 
L 350.059608 153.02592 
L 361.388687 50.368014 
L 372.717766 49.814717 
L 384.046845 57.177825 
L 395.375924 49.814717 
L 406.705003 58.28442 
L 418.034082 49.814717 
L 429.363161 66.881807 
L 440.69224 80.458868 
L 452.021318 56.454283 
L 463.350397 59.90175 
L 474.679476 49.814717 
L 486.008555 49.814717 
L 497.337634 49.814717 
L 508.666713 64.157882 
L 519.995792 49.814717 
L 531.324871 49.814717 
L 542.65395 49.814717 
L 553.983029 49.814717 
L 565.312108 49.814717 
L 576.641187 49.814717 
L 587.970266 49.814717 
L 599.299345 49.814717 
L 610.628424 49.814717 
" clip-path="url(#p868ca2b24d)" style="fill: none; stroke: #008000; stroke-opacity: 0.27; stroke-width: 1.25; stroke-linecap: round"/>
   </g>
   <g id="line2d_14">
    <path d="M 55.503554 377.664571 
L 66.832633 365.875085 
L 78.161712 355.107071 
L 89.490791 325.058778 
L 100.81987 298.330269 
L 112.148949 268.367099 
L 123.478028 272.750915 
L 134.807107 208.823811 
L 146.136186 203.801575 
L 157.465265 201.886316 
L 168.794344 163.793934 
L 180.123423 174.774755 
L 191.452502 145.875618 
L 202.781581 118.976863 
L 214.11066 87.779415 
L 225.439739 88.843448 
L 236.768818 90.84383 
L 248.097897 111.017896 
L 259.426976 113.699259 
L 270.756055 90.928953 
L 282.085134 99.058165 
L 293.414213 73.946986 
L 304.743292 62.029816 
L 316.072371 55.773302 
L 327.40145 60.625292 
L 338.730529 68.030962 
L 350.059608 57.135264 
L 361.388687 62.838481 
L 372.717766 64.498373 
L 384.046845 57.433193 
L 395.375924 49.814717 
L 406.705003 52.836571 
L 418.034082 49.814717 
L 429.363161 49.814717 
L 440.69224 49.814717 
L 452.021318 49.814717 
L 463.350397 59.050524 
L 474.679476 50.580821 
L 486.008555 49.814717 
L 497.337634 49.814717 
L 508.666713 49.814717 
L 519.995792 55.092321 
L 531.324871 63.945075 
L 542.65395 49.814717 
L 553.983029 75.734561 
L 565.312108 61.221151 
L 576.641187 79.394835 
L 587.970266 49.814717 
L 599.299345 49.814717 
L 610.628424 49.814717 
" clip-path="url(#p868ca2b24d)" style="fill: none; stroke: #008000; stroke-opacity: 0.27; stroke-width: 1.25; stroke-linecap: round"/>
   </g>
   <g id="line2d_15">
    <path d="M 55.503554 49.814717 
L 66.832633 87.570056 
L 78.161712 156.647467 
L 89.490791 210.6256 
L 100.81987 269.194557 
L 112.148949 280.131975 
L 123.478028 311.841565 
L 134.807107 322.58643 
L 146.136186 335.798585 
L 157.465265 365.092435 
L 168.794344 347.602633 
L 180.123423 359.326549 
L 191.452502 362.042374 
L 202.781581 366.734801 
L 214.11066 367.516405 
L 225.439739 368.084178 
L 236.768818 376.7722 
L 248.097897 376.687426 
L 259.426976 382.275806 
L 270.756055 376.225324 
L 282.085134 387.430333 
L 293.414213 390.305283 
L 304.743292 388.247817 
L 316.072371 388.450547 
L 327.40145 384.894153 
L 338.730529 375.106911 
L 350.059608 378.344365 
L 361.388687 362.030592 
L 372.717766 366.222723 
L 384.046845 361.959955 
L 395.375924 359.520984 
L 406.705003 360.253631 
L 418.034082 340.98546 
L 429.363161 331.942641 
L 440.69224 316.508544 
L 452.021318 319.807869 
L 463.350397 306.65763 
L 474.679476 310.457149 
L 486.008555 314.428406 
L 497.337634 315.938663 
L 508.666713 312.857719 
L 519.995792 316.395877 
L 531.324871 317.292397 
L 542.65395 318.763808 
L 553.983029 296.462925 
L 565.312108 307.027604 
L 576.641187 301.289191 
L 587.970266 302.251815 
L 599.299345 295.743854 
L 610.628424 293.931787 
" clip-path="url(#p868ca2b24d)" style="fill: none; stroke: #7b3ab8; stroke-width: 1.5; stroke-linecap: round"/>
   </g>
   <g id="patch_3">
    <path d="M 44.44 400.52 
L 44.44 39.6 
" style="fill: none; stroke: #ffffff; stroke-width: 0.8; stroke-linejoin: miter; stroke-linecap: square"/>
   </g>
   <g id="patch_4">
    <path d="M 623.801429 400.52 
L 623.801429 39.6 
" style="fill: none; stroke: #ffffff; stroke-width: 0.8; stroke-linejoin: miter; stroke-linecap: square"/>
   </g>
   <g id="patch_5">
    <path d="M 44.44 400.52 
L 623.801429 400.52 
" style="fill: none; stroke: #ffffff; stroke-width: 0.8; stroke-linejoin: miter; stroke-linecap: square"/>
   </g>
   <g id="patch_6">
    <path d="M 44.44 39.6 
L 623.801429 39.6 
" style="fill: none; stroke: #ffffff; stroke-width: 0.8; stroke-linejoin: miter; stroke-linecap: square"/>
   </g>
  </g>
  <g id="text_9">
   <!-- CartPole-v1 | GNN-Net (Noise) -->
   <g style="fill: #262626" transform="translate(171.448594 22.395938) scale(0.18 -0.18)">
    <defs>
     <path id="DejaVuSans-Bold-43" d="M 4288 256 
Q 3956 84 3597 -3 
Q 3238 -91 2847 -91 
Q 1681 -91 1000 561 
Q 319 1213 319 2328 
Q 319 3447 1000 4098 
Q 1681 4750 2847 4750 
Q 3238 4750 3597 4662 
Q 3956 4575 4288 4403 
L 4288 3438 
Q 3953 3666 3628 3772 
Q 3303 3878 2944 3878 
Q 2300 3878 1931 3465 
Q 1563 3053 1563 2328 
Q 1563 1606 1931 1193 
Q 2300 781 2944 781 
Q 3303 781 3628 887 
Q 3953 994 4288 1222 
L 4288 256 
z
" transform="scale(0.015625)"/>
     <path id="DejaVuSans-Bold-61" d="M 2106 1575 
Q 1756 1575 1579 1456 
Q 1403 1338 1403 1106 
Q 1403 894 1545 773 
Q 1688 653 1941 653 
Q 2256 653 2472 879 
Q 2688 1106 2688 1447 
L 2688 1575 
L 2106 1575 
z
M 3816 1997 
L 3816 0 
L 2688 0 
L 2688 519 
Q 2463 200 2181 54 
Q 1900 -91 1497 -91 
Q 953 -91 614 226 
Q 275 544 275 1050 
Q 275 1666 698 1953 
Q 1122 2241 2028 2241 
L 2688 2241 
L 2688 2328 
Q 2688 2594 2478 2717 
Q 2269 2841 1825 2841 
Q 1466 2841 1156 2769 
Q 847 2697 581 2553 
L 581 3406 
Q 941 3494 1303 3539 
Q 1666 3584 2028 3584 
Q 2975 3584 3395 3211 
Q 3816 2838 3816 1997 
z
" transform="scale(0.015625)"/>
     <path id="DejaVuSans-Bold-72" d="M 3138 2547 
Q 2991 2616 2845 2648 
Q 2700 2681 2553 2681 
Q 2122 2681 1889 2404 
Q 1656 2128 1656 1613 
L 1656 0 
L 538 0 
L 538 3500 
L 1656 3500 
L 1656 2925 
Q 1872 3269 2151 3426 
Q 2431 3584 2822 3584 
Q 2878 3584 2943 3579 
Q 3009 3575 3134 3559 
L 3138 2547 
z
" transform="scale(0.015625)"/>
     <path id="DejaVuSans-Bold-74" d="M 1759 4494 
L 1759 3500 
L 2913 3500 
L 2913 2700 
L 1759 2700 
L 1759 1216 
Q 1759 972 1856 886 
Q 1953 800 2241 800 
L 2816 800 
L 2816 0 
L 1856 0 
Q 1194 0 917 276 
Q 641 553 641 1216 
L 641 2700 
L 84 2700 
L 84 3500 
L 641 3500 
L 641 4494 
L 1759 4494 
z
" transform="scale(0.015625)"/>
     <path id="DejaVuSans-Bold-50" d="M 588 4666 
L 2584 4666 
Q 3475 4666 3951 4270 
Q 4428 3875 4428 3144 
Q 4428 2409 3951 2014 
Q 3475 1619 2584 1619 
L 1791 1619 
L 1791 0 
L 588 0 
L 588 4666 
z
M 1791 3794 
L 1791 2491 
L 2456 2491 
Q 2806 2491 2997 2661 
Q 3188 2831 3188 3144 
Q 3188 3456 2997 3625 
Q 2806 3794 2456 3794 
L 1791 3794 
z
" transform="scale(0.015625)"/>
     <path id="DejaVuSans-Bold-6f" d="M 2203 2784 
Q 1831 2784 1636 2517 
Q 1441 2250 1441 1747 
Q 1441 1244 1636 976 
Q 1831 709 2203 709 
Q 2569 709 2762 976 
Q 2956 1244 2956 1747 
Q 2956 2250 2762 2517 
Q 2569 2784 2203 2784 
z
M 2203 3584 
Q 3106 3584 3614 3096 
Q 4122 2609 4122 1747 
Q 4122 884 3614 396 
Q 3106 -91 2203 -91 
Q 1297 -91 786 396 
Q 275 884 275 1747 
Q 275 2609 786 3096 
Q 1297 3584 2203 3584 
z
" transform="scale(0.015625)"/>
     <path id="DejaVuSans-Bold-6c" d="M 538 4863 
L 1656 4863 
L 1656 0 
L 538 0 
L 538 4863 
z
" transform="scale(0.015625)"/>
     <path id="DejaVuSans-Bold-65" d="M 4031 1759 
L 4031 1441 
L 1416 1441 
Q 1456 1047 1700 850 
Q 1944 653 2381 653 
Q 2734 653 3104 758 
Q 3475 863 3866 1075 
L 3866 213 
Q 3469 63 3072 -14 
Q 2675 -91 2278 -91 
Q 1328 -91 801 392 
Q 275 875 275 1747 
Q 275 2603 792 3093 
Q 1309 3584 2216 3584 
Q 3041 3584 3536 3087 
Q 4031 2591 4031 1759 
z
M 2881 2131 
Q 2881 2450 2695 2645 
Q 2509 2841 2209 2841 
Q 1884 2841 1681 2658 
Q 1478 2475 1428 2131 
L 2881 2131 
z
" transform="scale(0.015625)"/>
     <path id="DejaVuSans-Bold-2d" d="M 347 2297 
L 2309 2297 
L 2309 1388 
L 347 1388 
L 347 2297 
z
" transform="scale(0.015625)"/>
     <path id="DejaVuSans-Bold-76" d="M 97 3500 
L 1216 3500 
L 2088 1081 
L 2956 3500 
L 4078 3500 
L 2700 0 
L 1472 0 
L 97 3500 
z
" transform="scale(0.015625)"/>
     <path id="DejaVuSans-Bold-31" d="M 750 831 
L 1813 831 
L 1813 3847 
L 722 3622 
L 722 4441 
L 1806 4666 
L 2950 4666 
L 2950 831 
L 4013 831 
L 4013 0 
L 750 0 
L 750 831 
z
" transform="scale(0.015625)"/>
     <path id="DejaVuSans-Bold-20" transform="scale(0.015625)"/>
     <path id="DejaVuSans-Bold-7c" d="M 1522 4891 
L 1522 -1509 
L 813 -1509 
L 813 4891 
L 1522 4891 
z
" transform="scale(0.015625)"/>
     <path id="DejaVuSans-Bold-47" d="M 4781 347 
Q 4331 128 3847 18 
Q 3363 -91 2847 -91 
Q 1681 -91 1000 561 
Q 319 1213 319 2328 
Q 319 3456 1012 4103 
Q 1706 4750 2913 4750 
Q 3378 4750 3804 4662 
Q 4231 4575 4609 4403 
L 4609 3438 
Q 4219 3659 3833 3768 
Q 3447 3878 3059 3878 
Q 2341 3878 1952 3476 
Q 1563 3075 1563 2328 
Q 1563 1588 1938 1184 
Q 2313 781 3003 781 
Q 3191 781 3352 804 
Q 3513 828 3641 878 
L 3641 1784 
L 2906 1784 
L 2906 2591 
L 4781 2591 
L 4781 347 
z
" transform="scale(0.015625)"/>
     <path id="DejaVuSans-Bold-4e" d="M 588 4666 
L 1931 4666 
L 3628 1466 
L 3628 4666 
L 4769 4666 
L 4769 0 
L 3425 0 
L 1728 3200 
L 1728 0 
L 588 0 
L 588 4666 
z
" transform="scale(0.015625)"/>
     <path id="DejaVuSans-Bold-28" d="M 2413 -844 
L 1484 -844 
Q 1006 -72 778 623 
Q 550 1319 550 2003 
Q 550 2688 779 3389 
Q 1009 4091 1484 4856 
L 2413 4856 
Q 2013 4116 1813 3408 
Q 1613 2700 1613 2009 
Q 1613 1319 1811 609 
Q 2009 -100 2413 -844 
z
" transform="scale(0.015625)"/>
     <path id="DejaVuSans-Bold-69" d="M 538 3500 
L 1656 3500 
L 1656 0 
L 538 0 
L 538 3500 
z
M 538 4863 
L 1656 4863 
L 1656 3950 
L 538 3950 
L 538 4863 
z
" transform="scale(0.015625)"/>
     <path id="DejaVuSans-Bold-73" d="M 3272 3391 
L 3272 2541 
Q 2913 2691 2578 2766 
Q 2244 2841 1947 2841 
Q 1628 2841 1473 2761 
Q 1319 2681 1319 2516 
Q 1319 2381 1436 2309 
Q 1553 2238 1856 2203 
L 2053 2175 
Q 2913 2066 3209 1816 
Q 3506 1566 3506 1031 
Q 3506 472 3093 190 
Q 2681 -91 1863 -91 
Q 1516 -91 1145 -36 
Q 775 19 384 128 
L 384 978 
Q 719 816 1070 734 
Q 1422 653 1784 653 
Q 2113 653 2278 743 
Q 2444 834 2444 1013 
Q 2444 1163 2330 1236 
Q 2216 1309 1875 1350 
L 1678 1375 
Q 931 1469 631 1722 
Q 331 1975 331 2491 
Q 331 3047 712 3315 
Q 1094 3584 1881 3584 
Q 2191 3584 2531 3537 
Q 2872 3491 3272 3391 
z
" transform="scale(0.015625)"/>
     <path id="DejaVuSans-Bold-29" d="M 513 -844 
Q 913 -100 1113 609 
Q 1313 1319 1313 2009 
Q 1313 2700 1113 3408 
Q 913 4116 513 4856 
L 1441 4856 
Q 1916 4091 2145 3389 
Q 2375 2688 2375 2003 
Q 2375 1319 2147 623 
Q 1919 -72 1441 -844 
L 513 -844 
z
" transform="scale(0.015625)"/>
    </defs>
    <use xlink:href="#DejaVuSans-Bold-43"/>
    <use xlink:href="#DejaVuSans-Bold-61" transform="translate(73.388672 0)"/>
    <use xlink:href="#DejaVuSans-Bold-72" transform="translate(140.869141 0)"/>
    <use xlink:href="#DejaVuSans-Bold-74" transform="translate(190.185547 0)"/>
    <use xlink:href="#DejaVuSans-Bold-50" transform="translate(237.988281 0)"/>
    <use xlink:href="#DejaVuSans-Bold-6f" transform="translate(311.279297 0)"/>
    <use xlink:href="#DejaVuSans-Bold-6c" transform="translate(379.980469 0)"/>
    <use xlink:href="#DejaVuSans-Bold-65" transform="translate(414.257812 0)"/>
    <use xlink:href="#DejaVuSans-Bold-2d" transform="translate(482.080078 0)"/>
    <use xlink:href="#DejaVuSans-Bold-76" transform="translate(523.583984 0)"/>
    <use xlink:href="#DejaVuSans-Bold-31" transform="translate(588.769531 0)"/>
    <use xlink:href="#DejaVuSans-Bold-20" transform="translate(658.349609 0)"/>
    <use xlink:href="#DejaVuSans-Bold-7c" transform="translate(693.164062 0)"/>
    <use xlink:href="#DejaVuSans-Bold-20" transform="translate(729.6875 0)"/>
    <use xlink:href="#DejaVuSans-Bold-47" transform="translate(764.501953 0)"/>
    <use xlink:href="#DejaVuSans-Bold-4e" transform="translate(846.582031 0)"/>
    <use xlink:href="#DejaVuSans-Bold-4e" transform="translate(930.273438 0)"/>
    <use xlink:href="#DejaVuSans-Bold-2d" transform="translate(1013.964844 0)"/>
    <use xlink:href="#DejaVuSans-Bold-4e" transform="translate(1055.46875 0)"/>
    <use xlink:href="#DejaVuSans-Bold-65" transform="translate(1139.160156 0)"/>
    <use xlink:href="#DejaVuSans-Bold-74" transform="translate(1206.982422 0)"/>
    <use xlink:href="#DejaVuSans-Bold-20" transform="translate(1254.785156 0)"/>
    <use xlink:href="#DejaVuSans-Bold-28" transform="translate(1289.599609 0)"/>
    <use xlink:href="#DejaVuSans-Bold-4e" transform="translate(1335.302734 0)"/>
    <use xlink:href="#DejaVuSans-Bold-6f" transform="translate(1418.994141 0)"/>
    <use xlink:href="#DejaVuSans-Bold-69" transform="translate(1487.695312 0)"/>
    <use xlink:href="#DejaVuSans-Bold-73" transform="translate(1521.972656 0)"/>
    <use xlink:href="#DejaVuSans-Bold-65" transform="translate(1581.494141 0)"/>
    <use xlink:href="#DejaVuSans-Bold-29" transform="translate(1649.316406 0)"/>
   </g>
  </g>
 </g>
 <defs>
  <clipPath id="p868ca2b24d">
   <rect x="44.44" y="39.6" width="579.361429" height="360.92"/>
  </clipPath>
 </defs>
</svg>
