<?xml version="1.0" encoding="utf-8" standalone="no"?>
<!DOCTYPE svg PUBLIC "-//W3C//DTD SVG 1.1//EN"
  "http://www.w3.org/Graphics/SVG/1.1/DTD/svg11.dtd">
<svg xmlns:xlink="http://www.w3.org/1999/xlink" width="648pt" height="432pt" viewBox="0 0 648 432" xmlns="http://www.w3.org/2000/svg" version="1.1">
 <metadata>
  <rdf:RDF xmlns:dc="http://purl.org/dc/elements/1.1/" xmlns:cc="http://creativecommons.org/ns#" xmlns:rdf="http://www.w3.org/1999/02/22-rdf-syntax-ns#">
   <cc:Work>
    <dc:type rdf:resource="http://purl.org/dc/dcmitype/StillImage"/>
    <dc:date>2025-07-31T05:18:09.113031</dc:date>
    <dc:format>image/svg+xml</dc:format>
    <dc:creator>
     <cc:Agent>
      <dc:title>Matplotlib v3.10.0, https://matplotlib.org/</dc:title>
     </cc:Agent>
    </dc:creator>
   </cc:Work>
  </rdf:RDF>
 </metadata>
 <defs>
  <style type="text/css">*{stroke-linejoin: round; stroke-linecap: butt}</style>
 </defs>
 <g id="figure_1">
  <g id="patch_1">
   <path d="M 0 432 
L 648 432 
L 648 0 
L 0 0 
z
" style="fill: #ffffff"/>
  </g>
  <g id="axes_1">
   <g id="patch_2">
    <path d="M 44.44 400.52 
L 623.801429 400.52 
L 623.801429 39.6 
L 44.44 39.6 
z
" style="fill: #eaeaf2"/>
   </g>
   <g id="matplotlib.axis_1">
    <g id="xtick_1">
     <g id="line2d_1">
      <path d="M 55.503554 400.52 
L 55.503554 39.6 
" clip-path="url(#pa7e64a6e58)" style="fill: none; stroke: #ffffff; stroke-width: 0.8; stroke-linecap: round"/>
     </g>
     <g id="text_1">
      <!-- 0 -->
      <g style="fill: #262626" transform="translate(51.049804 418.157812) scale(0.14 -0.14)">
       <defs>
        <path id="DejaVuSans-30" d="M 2034 4250 
Q 1547 4250 1301 3770 
Q 1056 3291 1056 2328 
Q 1056 1369 1301 889 
Q 1547 409 2034 409 
Q 2525 409 2770 889 
Q 3016 1369 3016 2328 
Q 3016 3291 2770 3770 
Q 2525 4250 2034 4250 
z
M 2034 4750 
Q 2819 4750 3233 4129 
Q 3647 3509 3647 2328 
Q 3647 1150 3233 529 
Q 2819 -91 2034 -91 
Q 1250 -91 836 529 
Q 422 1150 422 2328 
Q 422 3509 836 4129 
Q 1250 4750 2034 4750 
z
" transform="scale(0.015625)"/>
       </defs>
       <use xlink:href="#DejaVuSans-30"/>
      </g>
     </g>
    </g>
    <g id="xtick_2">
     <g id="line2d_2">
      <path d="M 608.681239 400.52 
L 608.681239 39.6 
" clip-path="url(#pa7e64a6e58)" style="fill: none; stroke: #ffffff; stroke-width: 0.8; stroke-linecap: round"/>
     </g>
     <g id="text_2">
      <!-- 600000 -->
      <g style="fill: #262626" transform="translate(581.958739 418.157812) scale(0.14 -0.14)">
       <defs>
        <path id="DejaVuSans-36" d="M 2113 2584 
Q 1688 2584 1439 2293 
Q 1191 2003 1191 1497 
Q 1191 994 1439 701 
Q 1688 409 2113 409 
Q 2538 409 2786 701 
Q 3034 994 3034 1497 
Q 3034 2003 2786 2293 
Q 2538 2584 2113 2584 
z
M 3366 4563 
L 3366 3988 
Q 3128 4100 2886 4159 
Q 2644 4219 2406 4219 
Q 1781 4219 1451 3797 
Q 1122 3375 1075 2522 
Q 1259 2794 1537 2939 
Q 1816 3084 2150 3084 
Q 2853 3084 3261 2657 
Q 3669 2231 3669 1497 
Q 3669 778 3244 343 
Q 2819 -91 2113 -91 
Q 1303 -91 875 529 
Q 447 1150 447 2328 
Q 447 3434 972 4092 
Q 1497 4750 2381 4750 
Q 2619 4750 2861 4703 
Q 3103 4656 3366 4563 
z
" transform="scale(0.015625)"/>
       </defs>
       <use xlink:href="#DejaVuSans-36"/>
       <use xlink:href="#DejaVuSans-30" transform="translate(63.623047 0)"/>
       <use xlink:href="#DejaVuSans-30" transform="translate(127.246094 0)"/>
       <use xlink:href="#DejaVuSans-30" transform="translate(190.869141 0)"/>
       <use xlink:href="#DejaVuSans-30" transform="translate(254.492188 0)"/>
       <use xlink:href="#DejaVuSans-30" transform="translate(318.115234 0)"/>
      </g>
     </g>
    </g>
   </g>
   <g id="matplotlib.axis_2">
    <g id="ytick_1">
     <g id="line2d_3">
      <path d="M 44.44 390.305283 
L 623.801429 390.305283 
" clip-path="url(#pa7e64a6e58)" style="fill: none; stroke: #ffffff; stroke-width: 0.8; stroke-linecap: round"/>
     </g>
     <g id="text_3">
      <!-- 0 -->
      <g style="fill: #262626" transform="translate(28.5325 395.624189) scale(0.14 -0.14)">
       <use xlink:href="#DejaVuSans-30"/>
      </g>
     </g>
    </g>
    <g id="ytick_2">
     <g id="line2d_4">
      <path d="M 44.44 322.20717 
L 623.801429 322.20717 
" clip-path="url(#pa7e64a6e58)" style="fill: none; stroke: #ffffff; stroke-width: 0.8; stroke-linecap: round"/>
     </g>
     <g id="text_4">
      <!-- 100 -->
      <g style="fill: #262626" transform="translate(10.7175 327.526076) scale(0.14 -0.14)">
       <defs>
        <path id="DejaVuSans-31" d="M 794 531 
L 1825 531 
L 1825 4091 
L 703 3866 
L 703 4441 
L 1819 4666 
L 2450 4666 
L 2450 531 
L 3481 531 
L 3481 0 
L 794 0 
L 794 531 
z
" transform="scale(0.015625)"/>
       </defs>
       <use xlink:href="#DejaVuSans-31"/>
       <use xlink:href="#DejaVuSans-30" transform="translate(63.623047 0)"/>
       <use xlink:href="#DejaVuSans-30" transform="translate(127.246094 0)"/>
      </g>
     </g>
    </g>
    <g id="ytick_3">
     <g id="line2d_5">
      <path d="M 44.44 254.109057 
L 623.801429 254.109057 
" clip-path="url(#pa7e64a6e58)" style="fill: none; stroke: #ffffff; stroke-width: 0.8; stroke-linecap: round"/>
     </g>
     <g id="text_5">
      <!-- 200 -->
      <g style="fill: #262626" transform="translate(10.7175 259.427963) scale(0.14 -0.14)">
       <defs>
        <path id="DejaVuSans-32" d="M 1228 531 
L 3431 531 
L 3431 0 
L 469 0 
L 469 531 
Q 828 903 1448 1529 
Q 2069 2156 2228 2338 
Q 2531 2678 2651 2914 
Q 2772 3150 2772 3378 
Q 2772 3750 2511 3984 
Q 2250 4219 1831 4219 
Q 1534 4219 1204 4116 
Q 875 4013 500 3803 
L 500 4441 
Q 881 4594 1212 4672 
Q 1544 4750 1819 4750 
Q 2544 4750 2975 4387 
Q 3406 4025 3406 3419 
Q 3406 3131 3298 2873 
Q 3191 2616 2906 2266 
Q 2828 2175 2409 1742 
Q 1991 1309 1228 531 
z
" transform="scale(0.015625)"/>
       </defs>
       <use xlink:href="#DejaVuSans-32"/>
       <use xlink:href="#DejaVuSans-30" transform="translate(63.623047 0)"/>
       <use xlink:href="#DejaVuSans-30" transform="translate(127.246094 0)"/>
      </g>
     </g>
    </g>
    <g id="ytick_4">
     <g id="line2d_6">
      <path d="M 44.44 186.010943 
L 623.801429 186.010943 
" clip-path="url(#pa7e64a6e58)" style="fill: none; stroke: #ffffff; stroke-width: 0.8; stroke-linecap: round"/>
     </g>
     <g id="text_6">
      <!-- 300 -->
      <g style="fill: #262626" transform="translate(10.7175 191.32985) scale(0.14 -0.14)">
       <defs>
        <path id="DejaVuSans-33" d="M 2597 2516 
Q 3050 2419 3304 2112 
Q 3559 1806 3559 1356 
Q 3559 666 3084 287 
Q 2609 -91 1734 -91 
Q 1441 -91 1130 -33 
Q 819 25 488 141 
L 488 750 
Q 750 597 1062 519 
Q 1375 441 1716 441 
Q 2309 441 2620 675 
Q 2931 909 2931 1356 
Q 2931 1769 2642 2001 
Q 2353 2234 1838 2234 
L 1294 2234 
L 1294 2753 
L 1863 2753 
Q 2328 2753 2575 2939 
Q 2822 3125 2822 3475 
Q 2822 3834 2567 4026 
Q 2313 4219 1838 4219 
Q 1578 4219 1281 4162 
Q 984 4106 628 3988 
L 628 4550 
Q 988 4650 1302 4700 
Q 1616 4750 1894 4750 
Q 2613 4750 3031 4423 
Q 3450 4097 3450 3541 
Q 3450 3153 3228 2886 
Q 3006 2619 2597 2516 
z
" transform="scale(0.015625)"/>
       </defs>
       <use xlink:href="#DejaVuSans-33"/>
       <use xlink:href="#DejaVuSans-30" transform="translate(63.623047 0)"/>
       <use xlink:href="#DejaVuSans-30" transform="translate(127.246094 0)"/>
      </g>
     </g>
    </g>
    <g id="ytick_5">
     <g id="line2d_7">
      <path d="M 44.44 117.91283 
L 623.801429 117.91283 
" clip-path="url(#pa7e64a6e58)" style="fill: none; stroke: #ffffff; stroke-width: 0.8; stroke-linecap: round"/>
     </g>
     <g id="text_7">
      <!-- 400 -->
      <g style="fill: #262626" transform="translate(10.7175 123.231736) scale(0.14 -0.14)">
       <defs>
        <path id="DejaVuSans-34" d="M 2419 4116 
L 825 1625 
L 2419 1625 
L 2419 4116 
z
M 2253 4666 
L 3047 4666 
L 3047 1625 
L 3713 1625 
L 3713 1100 
L 3047 1100 
L 3047 0 
L 2419 0 
L 2419 1100 
L 313 1100 
L 313 1709 
L 2253 4666 
z
" transform="scale(0.015625)"/>
       </defs>
       <use xlink:href="#DejaVuSans-34"/>
       <use xlink:href="#DejaVuSans-30" transform="translate(63.623047 0)"/>
       <use xlink:href="#DejaVuSans-30" transform="translate(127.246094 0)"/>
      </g>
     </g>
    </g>
    <g id="ytick_6">
     <g id="line2d_8">
      <path d="M 44.44 49.814717 
L 623.801429 49.814717 
" clip-path="url(#pa7e64a6e58)" style="fill: none; stroke: #ffffff; stroke-width: 0.8; stroke-linecap: round"/>
     </g>
     <g id="text_8">
      <!-- 500 -->
      <g style="fill: #262626" transform="translate(10.7175 55.133623) scale(0.14 -0.14)">
       <defs>
        <path id="DejaVuSans-35" d="M 691 4666 
L 3169 4666 
L 3169 4134 
L 1269 4134 
L 1269 2991 
Q 1406 3038 1543 3061 
Q 1681 3084 1819 3084 
Q 2600 3084 3056 2656 
Q 3513 2228 3513 1497 
Q 3513 744 3044 326 
Q 2575 -91 1722 -91 
Q 1428 -91 1123 -41 
Q 819 9 494 109 
L 494 744 
Q 775 591 1075 516 
Q 1375 441 1709 441 
Q 2250 441 2565 725 
Q 2881 1009 2881 1497 
Q 2881 1984 2565 2268 
Q 2250 2553 1709 2553 
Q 1456 2553 1204 2497 
Q 953 2441 691 2322 
L 691 4666 
z
" transform="scale(0.015625)"/>
       </defs>
       <use xlink:href="#DejaVuSans-35"/>
       <use xlink:href="#DejaVuSans-30" transform="translate(63.623047 0)"/>
       <use xlink:href="#DejaVuSans-30" transform="translate(127.246094 0)"/>
      </g>
     </g>
    </g>
   </g>
   <g id="FillBetweenPolyCollection_1">
    <path d="M 55.503554 373.95992 
L 55.503554 376.874746 
L 66.832633 373.465041 
L 78.161712 365.357546 
L 89.490791 345.248128 
L 100.81987 328.852899 
L 112.148949 287.854702 
L 123.478028 252.595208 
L 134.807107 247.088592 
L 146.136186 249.921281 
L 157.465265 256.195624 
L 168.794344 182.987451 
L 180.123423 184.615568 
L 191.452502 167.75844 
L 202.781581 161.687549 
L 214.11066 120.262515 
L 225.439739 116.31522 
L 236.768818 97.278223 
L 248.097897 109.122208 
L 259.426976 93.6636 
L 270.756055 82.278799 
L 282.085134 73.703479 
L 293.414213 93.267807 
L 304.743292 86.436729 
L 316.072371 120.645659 
L 327.40145 106.279064 
L 338.730529 83.10272 
L 350.059608 83.864385 
L 361.388687 70.988735 
L 372.717766 64.788949 
L 384.046845 68.080929 
L 395.375924 99.609888 
L 406.705003 66.418059 
L 418.034082 66.084815 
L 429.363161 76.485059 
L 440.69224 92.064113 
L 452.021318 86.945213 
L 463.350397 71.673678 
L 474.679476 61.083527 
L 486.008555 55.12637 
L 497.337634 84.18724 
L 508.666713 73.122957 
L 519.995792 79.223275 
L 531.324871 61.49233 
L 542.65395 61.348917 
L 553.983029 64.231306 
L 565.312108 60.449074 
L 576.641187 61.868083 
L 587.970266 62.765206 
L 599.299345 66.172971 
L 610.628424 55.240476 
L 610.628424 50.024076 
L 610.628424 50.024076 
L 599.299345 45.850319 
L 587.970266 48.423883 
L 576.641187 45.796928 
L 565.312108 48.20336 
L 553.983029 46.361924 
L 542.65395 48.154743 
L 531.324871 48.539091 
L 519.995792 44.393719 
L 508.666713 48.434069 
L 497.337634 38.357209 
L 486.008555 48.044166 
L 474.679476 49.867218 
L 463.350397 49.372612 
L 452.021318 37.437885 
L 440.69224 44.678792 
L 429.363161 54.878096 
L 418.034082 48.458105 
L 406.705003 48.686671 
L 395.375924 45.202644 
L 384.046845 51.977939 
L 372.717766 49.158114 
L 361.388687 54.569056 
L 350.059608 45.098311 
L 338.730529 48.975465 
L 327.40145 52.408458 
L 316.072371 31.878985 
L 304.743292 61.55939 
L 293.414213 53.315276 
L 282.085134 51.956458 
L 270.756055 49.544018 
L 259.426976 62.351072 
L 248.097897 64.853341 
L 236.768818 74.109598 
L 225.439739 87.793744 
L 214.11066 87.591846 
L 202.781581 108.221217 
L 191.452502 144.76272 
L 180.123423 134.494085 
L 168.794344 168.48583 
L 157.465265 205.596601 
L 146.136186 221.574925 
L 134.807107 222.960529 
L 123.478028 208.601158 
L 112.148949 250.02014 
L 100.81987 302.486603 
L 89.490791 323.817729 
L 78.161712 349.248924 
L 66.832633 364.482057 
L 55.503554 373.95992 
z
" clip-path="url(#pa7e64a6e58)" style="fill: #0000ff; fill-opacity: 0.1"/>
   </g>
   <g id="line2d_9">
    <path d="M 55.503554 375.417333 
L 66.832633 368.973549 
L 78.161712 357.303235 
L 89.490791 334.532928 
L 100.81987 315.669751 
L 112.148949 268.937421 
L 123.478028 230.598183 
L 134.807107 235.02456 
L 146.136186 235.748103 
L 157.465265 230.896112 
L 168.794344 175.736641 
L 180.123423 159.554826 
L 191.452502 156.26058 
L 202.781581 134.954383 
L 214.11066 103.92718 
L 225.439739 102.054482 
L 236.768818 85.69391 
L 248.097897 86.987775 
L 259.426976 78.007336 
L 270.756055 65.911408 
L 282.085134 62.829969 
L 293.414213 73.291542 
L 304.743292 73.998059 
L 316.072371 76.262322 
L 327.40145 79.343761 
L 338.730529 66.039092 
L 350.059608 64.481348 
L 361.388687 62.778895 
L 372.717766 56.973531 
L 384.046845 60.029434 
L 395.375924 72.406266 
L 406.705003 57.552365 
L 418.034082 57.27146 
L 429.363161 65.681577 
L 440.69224 68.371453 
L 452.021318 62.191549 
L 463.350397 60.523145 
L 474.679476 55.475373 
L 486.008555 51.585268 
L 497.337634 61.272225 
L 508.666713 60.778513 
L 519.995792 61.808497 
L 531.324871 55.01571 
L 542.65395 54.75183 
L 553.983029 55.296615 
L 565.312108 54.326217 
L 576.641187 53.832506 
L 587.970266 55.594544 
L 599.299345 56.011645 
L 610.628424 52.632276 
" clip-path="url(#pa7e64a6e58)" style="fill: none; stroke: #0000ff; stroke-width: 2; stroke-linecap: round"/>
   </g>
   <g id="line2d_10">
    <path d="M 55.503554 373.578684 
L 66.832633 362.299934 
L 78.161712 364.342877 
L 89.490791 316.035778 
L 100.81987 307.268146 
L 112.148949 262.110585 
L 123.478028 196.608712 
L 134.807107 235.977934 
L 146.136186 235.552321 
L 157.465265 218.740599 
L 168.794344 178.264783 
L 180.123423 151.40859 
L 191.452502 149.067717 
L 202.781581 132.255995 
L 214.11066 94.844594 
L 225.439739 120.423948 
L 236.768818 88.417835 
L 248.097897 71.350745 
L 259.426976 69.946222 
L 270.756055 49.814717 
L 282.085134 64.157882 
L 293.414213 49.814717 
L 304.743292 88.417835 
L 316.072371 56.36916 
L 327.40145 51.219241 
L 338.730529 49.814717 
L 350.059608 49.814717 
L 361.388687 59.220769 
L 372.717766 52.581203 
L 384.046845 49.814717 
L 395.375924 49.814717 
L 406.705003 49.814717 
L 418.034082 49.814717 
L 429.363161 49.814717 
L 440.69224 65.604967 
L 452.021318 49.814717 
L 463.350397 49.814717 
L 474.679476 49.814717 
L 486.008555 49.814717 
L 497.337634 49.814717 
L 508.666713 49.814717 
L 519.995792 49.814717 
L 531.324871 49.814717 
L 542.65395 49.814717 
L 553.983029 49.814717 
L 565.312108 49.814717 
L 576.641187 49.814717 
L 587.970266 49.814717 
L 599.299345 49.814717 
L 610.628424 49.814717 
" clip-path="url(#pa7e64a6e58)" style="fill: none; stroke: #008000; stroke-opacity: 0.27; stroke-width: 1.25; stroke-linecap: round"/>
   </g>
   <g id="line2d_11">
    <path d="M 55.503554 376.430292 
L 66.832633 373.408439 
L 78.161712 362.895792 
L 89.490791 349.020802 
L 100.81987 340.59366 
L 112.148949 247.980226 
L 123.478028 219.889755 
L 134.807107 257.897014 
L 146.136186 260.620939 
L 157.465265 277.007047 
L 168.794344 186.521679 
L 180.123423 208.568443 
L 191.452502 178.732958 
L 202.781581 139.278613 
L 214.11066 103.569665 
L 225.439739 110.890212 
L 236.768818 105.101873 
L 248.097897 130.596104 
L 259.426976 106.463835 
L 270.756055 61.646764 
L 282.085134 80.416307 
L 293.414213 67.264858 
L 304.743292 58.880278 
L 316.072371 60.667854 
L 327.40145 95.227646 
L 338.730529 89.822358 
L 350.059608 69.988783 
L 361.388687 61.774448 
L 372.717766 58.667472 
L 384.046845 66.924368 
L 395.375924 64.753741 
L 406.705003 51.389486 
L 418.034082 71.223061 
L 429.363161 74.159792 
L 440.69224 49.814717 
L 452.021318 49.814717 
L 463.350397 49.814717 
L 474.679476 49.814717 
L 486.008555 58.667472 
L 497.337634 49.814717 
L 508.666713 82.714618 
L 519.995792 49.814717 
L 531.324871 60.965783 
L 542.65395 66.328509 
L 553.983029 54.198533 
L 565.312108 49.814717 
L 576.641187 49.814717 
L 587.970266 49.814717 
L 599.299345 54.624146 
L 610.628424 55.858425 
" clip-path="url(#pa7e64a6e58)" style="fill: none; stroke: #008000; stroke-opacity: 0.27; stroke-width: 1.25; stroke-linecap: round"/>
   </g>
   <g id="line2d_12">
    <path d="M 55.503554 377.664571 
L 66.832633 366.598627 
L 78.161712 346.977858 
L 89.490791 339.146575 
L 100.81987 316.929566 
L 112.148949 297.649288 
L 123.478028 238.872104 
L 134.807107 227.252863 
L 146.136186 232.189976 
L 157.465265 227.125179 
L 168.794344 177.796608 
L 180.123423 150.642486 
L 191.452502 149.833821 
L 202.781581 137.788967 
L 214.11066 135.362972 
L 225.439739 91.099198 
L 236.768818 76.075052 
L 248.097897 75.777123 
L 259.426976 62.242623 
L 270.756055 75.819684 
L 282.085134 66.711561 
L 293.414213 57.816245 
L 304.743292 60.114557 
L 316.072371 49.814717 
L 327.40145 49.814717 
L 338.730529 53.432429 
L 350.059608 100.207321 
L 361.388687 70.627203 
L 372.717766 52.325835 
L 384.046845 61.604203 
L 395.375924 74.07467 
L 406.705003 49.814717 
L 418.034082 64.157882 
L 429.363161 57.475755 
L 440.69224 62.668236 
L 452.021318 49.814717 
L 463.350397 60.965783 
L 474.679476 54.75183 
L 486.008555 49.814717 
L 497.337634 49.814717 
L 508.666713 49.814717 
L 519.995792 49.814717 
L 531.324871 49.814717 
L 542.65395 49.814717 
L 553.983029 49.814717 
L 565.312108 49.814717 
L 576.641187 49.814717 
L 587.970266 49.814717 
L 599.299345 49.814717 
L 610.628424 49.814717 
" clip-path="url(#pa7e64a6e58)" style="fill: none; stroke: #008000; stroke-opacity: 0.27; stroke-width: 1.25; stroke-linecap: round"/>
   </g>
   <g id="line2d_13">
    <path d="M 55.503554 374.42991 
L 66.832633 368.088274 
L 78.161712 347.956769 
L 89.490791 333.698726 
L 100.81987 309.736703 
L 112.148949 253.002462 
L 123.478028 263.259741 
L 134.807107 224.316132 
L 146.136186 233.849868 
L 157.465265 200.694599 
L 168.794344 171.029358 
L 180.123423 137.193108 
L 191.452502 155.28167 
L 202.781581 174.732193 
L 214.11066 96.206557 
L 225.439739 107.144816 
L 236.768818 71.81892 
L 248.097897 74.287476 
L 259.426976 68.92475 
L 270.756055 49.814717 
L 282.085134 49.814717 
L 293.414213 86.928189 
L 304.743292 85.651349 
L 316.072371 49.814717 
L 327.40145 79.735325 
L 338.730529 53.474991 
L 350.059608 49.814717 
L 361.388687 49.814717 
L 372.717766 49.814717 
L 384.046845 51.729976 
L 395.375924 49.814717 
L 406.705003 69.137557 
L 418.034082 49.814717 
L 429.363161 67.520226 
L 440.69224 49.814717 
L 452.021318 49.814717 
L 463.350397 61.731887 
L 474.679476 58.326981 
L 486.008555 49.814717 
L 497.337634 49.814717 
L 508.666713 56.284038 
L 519.995792 65.009108 
L 531.324871 49.814717 
L 542.65395 57.986491 
L 553.983029 49.814717 
L 565.312108 56.922458 
L 576.641187 49.814717 
L 587.970266 62.455429 
L 599.299345 49.814717 
L 610.628424 55.39025 
" clip-path="url(#pa7e64a6e58)" style="fill: none; stroke: #008000; stroke-opacity: 0.27; stroke-width: 1.25; stroke-linecap: round"/>
   </g>
   <g id="line2d_14">
    <path d="M 55.503554 374.983208 
L 66.832633 374.472472 
L 78.161712 364.342877 
L 89.490791 334.762759 
L 100.81987 303.820679 
L 112.148949 283.944542 
L 123.478028 234.360604 
L 134.807107 229.678858 
L 146.136186 216.52741 
L 157.465265 230.913137 
L 168.794344 165.070774 
L 180.123423 149.961505 
L 191.452502 148.386736 
L 202.781581 90.716146 
L 214.11066 89.652113 
L 225.439739 80.714236 
L 236.768818 87.055873 
L 248.097897 82.927425 
L 259.426976 82.45925 
L 270.756055 92.46116 
L 282.085134 53.049377 
L 293.414213 104.633698 
L 304.743292 76.926278 
L 316.072371 164.64516 
L 327.40145 120.721877 
L 338.730529 83.650967 
L 350.059608 52.581203 
L 361.388687 72.45734 
L 372.717766 71.478429 
L 384.046845 70.073906 
L 395.375924 123.573486 
L 406.705003 67.605349 
L 418.034082 51.346925 
L 429.363161 79.437396 
L 440.69224 113.954627 
L 452.021318 111.698877 
L 463.350397 80.288623 
L 474.679476 64.668618 
L 486.008555 49.814717 
L 497.337634 107.102255 
L 508.666713 65.264476 
L 519.995792 94.589226 
L 531.324871 64.668618 
L 542.65395 49.814717 
L 553.983029 72.840392 
L 565.312108 65.264476 
L 576.641187 69.90366 
L 587.970266 66.073142 
L 599.299345 75.989929 
L 610.628424 52.283274 
" clip-path="url(#pa7e64a6e58)" style="fill: none; stroke: #008000; stroke-opacity: 0.27; stroke-width: 1.25; stroke-linecap: round"/>
   </g>
   <g id="line2d_15">
    <path d="M 55.503554 49.814717 
L 66.832633 82.673449 
L 78.161712 149.969002 
L 89.490791 207.884645 
L 100.81987 262.080207 
L 112.148949 269.45955 
L 123.478028 279.306971 
L 134.807107 298.983133 
L 146.136186 310.569474 
L 157.465265 327.371745 
L 168.794344 324.833322 
L 180.123423 323.227674 
L 191.452502 327.982166 
L 202.781581 329.78329 
L 214.11066 336.779338 
L 225.439739 343.815666 
L 236.768818 353.759772 
L 248.097897 364.707378 
L 259.426976 367.173455 
L 270.756055 381.944463 
L 282.085134 379.06747 
L 293.414213 373.294156 
L 304.743292 385.372974 
L 316.072371 385.167482 
L 327.40145 385.027378 
L 338.730529 384.290493 
L 350.059608 390.305283 
L 361.388687 379.630654 
L 372.717766 370.938619 
L 384.046845 358.225196 
L 395.375924 366.174001 
L 406.705003 361.238191 
L 418.034082 353.59952 
L 429.363161 363.437824 
L 440.69224 366.175945 
L 452.021318 361.479097 
L 463.350397 359.330366 
L 474.679476 364.171837 
L 486.008555 356.816578 
L 497.337634 368.658018 
L 508.666713 361.512569 
L 519.995792 366.412046 
L 531.324871 348.107052 
L 542.65395 353.816687 
L 553.983029 345.867607 
L 565.312108 352.865145 
L 576.641187 356.965846 
L 587.970266 361.769266 
L 599.299345 368.94365 
L 610.628424 356.962243 
" clip-path="url(#pa7e64a6e58)" style="fill: none; stroke: #7b3ab8; stroke-width: 1.5; stroke-linecap: round"/>
   </g>
   <g id="patch_3">
    <path d="M 44.44 400.52 
L 44.44 39.6 
" style="fill: none; stroke: #ffffff; stroke-width: 0.8; stroke-linejoin: miter; stroke-linecap: square"/>
   </g>
   <g id="patch_4">
    <path d="M 623.801429 400.52 
L 623.801429 39.6 
" style="fill: none; stroke: #ffffff; stroke-width: 0.8; stroke-linejoin: miter; stroke-linecap: square"/>
   </g>
   <g id="patch_5">
    <path d="M 44.44 400.52 
L 623.801429 400.52 
" style="fill: none; stroke: #ffffff; stroke-width: 0.8; stroke-linejoin: miter; stroke-linecap: square"/>
   </g>
   <g id="patch_6">
    <path d="M 44.44 39.6 
L 623.801429 39.6 
" style="fill: none; stroke: #ffffff; stroke-width: 0.8; stroke-linejoin: miter; stroke-linecap: square"/>
   </g>
  </g>
  <g id="text_9">
   <!-- CartPole-v1 | GNN_K-Net (Noise) -->
   <g style="fill: #262626" transform="translate(160.7625 22.395938) scale(0.18 -0.18)">
    <defs>
     <path id="DejaVuSans-Bold-43" d="M 4288 256 
Q 3956 84 3597 -3 
Q 3238 -91 2847 -91 
Q 1681 -91 1000 561 
Q 319 1213 319 2328 
Q 319 3447 1000 4098 
Q 1681 4750 2847 4750 
Q 3238 4750 3597 4662 
Q 3956 4575 4288 4403 
L 4288 3438 
Q 3953 3666 3628 3772 
Q 3303 3878 2944 3878 
Q 2300 3878 1931 3465 
Q 1563 3053 1563 2328 
Q 1563 1606 1931 1193 
Q 2300 781 2944 781 
Q 3303 781 3628 887 
Q 3953 994 4288 1222 
L 4288 256 
z
" transform="scale(0.015625)"/>
     <path id="DejaVuSans-Bold-61" d="M 2106 1575 
Q 1756 1575 1579 1456 
Q 1403 1338 1403 1106 
Q 1403 894 1545 773 
Q 1688 653 1941 653 
Q 2256 653 2472 879 
Q 2688 1106 2688 1447 
L 2688 1575 
L 2106 1575 
z
M 3816 1997 
L 3816 0 
L 2688 0 
L 2688 519 
Q 2463 200 2181 54 
Q 1900 -91 1497 -91 
Q 953 -91 614 226 
Q 275 544 275 1050 
Q 275 1666 698 1953 
Q 1122 2241 2028 2241 
L 2688 2241 
L 2688 2328 
Q 2688 2594 2478 2717 
Q 2269 2841 1825 2841 
Q 1466 2841 1156 2769 
Q 847 2697 581 2553 
L 581 3406 
Q 941 3494 1303 3539 
Q 1666 3584 2028 3584 
Q 2975 3584 3395 3211 
Q 3816 2838 3816 1997 
z
" transform="scale(0.015625)"/>
     <path id="DejaVuSans-Bold-72" d="M 3138 2547 
Q 2991 2616 2845 2648 
Q 2700 2681 2553 2681 
Q 2122 2681 1889 2404 
Q 1656 2128 1656 1613 
L 1656 0 
L 538 0 
L 538 3500 
L 1656 3500 
L 1656 2925 
Q 1872 3269 2151 3426 
Q 2431 3584 2822 3584 
Q 2878 3584 2943 3579 
Q 3009 3575 3134 3559 
L 3138 2547 
z
" transform="scale(0.015625)"/>
     <path id="DejaVuSans-Bold-74" d="M 1759 4494 
L 1759 3500 
L 2913 3500 
L 2913 2700 
L 1759 2700 
L 1759 1216 
Q 1759 972 1856 886 
Q 1953 800 2241 800 
L 2816 800 
L 2816 0 
L 1856 0 
Q 1194 0 917 276 
Q 641 553 641 1216 
L 641 2700 
L 84 2700 
L 84 3500 
L 641 3500 
L 641 4494 
L 1759 4494 
z
" transform="scale(0.015625)"/>
     <path id="DejaVuSans-Bold-50" d="M 588 4666 
L 2584 4666 
Q 3475 4666 3951 4270 
Q 4428 3875 4428 3144 
Q 4428 2409 3951 2014 
Q 3475 1619 2584 1619 
L 1791 1619 
L 1791 0 
L 588 0 
L 588 4666 
z
M 1791 3794 
L 1791 2491 
L 2456 2491 
Q 2806 2491 2997 2661 
Q 3188 2831 3188 3144 
Q 3188 3456 2997 3625 
Q 2806 3794 2456 3794 
L 1791 3794 
z
" transform="scale(0.015625)"/>
     <path id="DejaVuSans-Bold-6f" d="M 2203 2784 
Q 1831 2784 1636 2517 
Q 1441 2250 1441 1747 
Q 1441 1244 1636 976 
Q 1831 709 2203 709 
Q 2569 709 2762 976 
Q 2956 1244 2956 1747 
Q 2956 2250 2762 2517 
Q 2569 2784 2203 2784 
z
M 2203 3584 
Q 3106 3584 3614 3096 
Q 4122 2609 4122 1747 
Q 4122 884 3614 396 
Q 3106 -91 2203 -91 
Q 1297 -91 786 396 
Q 275 884 275 1747 
Q 275 2609 786 3096 
Q 1297 3584 2203 3584 
z
" transform="scale(0.015625)"/>
     <path id="DejaVuSans-Bold-6c" d="M 538 4863 
L 1656 4863 
L 1656 0 
L 538 0 
L 538 4863 
z
" transform="scale(0.015625)"/>
     <path id="DejaVuSans-Bold-65" d="M 4031 1759 
L 4031 1441 
L 1416 1441 
Q 1456 1047 1700 850 
Q 1944 653 2381 653 
Q 2734 653 3104 758 
Q 3475 863 3866 1075 
L 3866 213 
Q 3469 63 3072 -14 
Q 2675 -91 2278 -91 
Q 1328 -91 801 392 
Q 275 875 275 1747 
Q 275 2603 792 3093 
Q 1309 3584 2216 3584 
Q 3041 3584 3536 3087 
Q 4031 2591 4031 1759 
z
M 2881 2131 
Q 2881 2450 2695 2645 
Q 2509 2841 2209 2841 
Q 1884 2841 1681 2658 
Q 1478 2475 1428 2131 
L 2881 2131 
z
" transform="scale(0.015625)"/>
     <path id="DejaVuSans-Bold-2d" d="M 347 2297 
L 2309 2297 
L 2309 1388 
L 347 1388 
L 347 2297 
z
" transform="scale(0.015625)"/>
     <path id="DejaVuSans-Bold-76" d="M 97 3500 
L 1216 3500 
L 2088 1081 
L 2956 3500 
L 4078 3500 
L 2700 0 
L 1472 0 
L 97 3500 
z
" transform="scale(0.015625)"/>
     <path id="DejaVuSans-Bold-31" d="M 750 831 
L 1813 831 
L 1813 3847 
L 722 3622 
L 722 4441 
L 1806 4666 
L 2950 4666 
L 2950 831 
L 4013 831 
L 4013 0 
L 750 0 
L 750 831 
z
" transform="scale(0.015625)"/>
     <path id="DejaVuSans-Bold-20" transform="scale(0.015625)"/>
     <path id="DejaVuSans-Bold-7c" d="M 1522 4891 
L 1522 -1509 
L 813 -1509 
L 813 4891 
L 1522 4891 
z
" transform="scale(0.015625)"/>
     <path id="DejaVuSans-Bold-47" d="M 4781 347 
Q 4331 128 3847 18 
Q 3363 -91 2847 -91 
Q 1681 -91 1000 561 
Q 319 1213 319 2328 
Q 319 3456 1012 4103 
Q 1706 4750 2913 4750 
Q 3378 4750 3804 4662 
Q 4231 4575 4609 4403 
L 4609 3438 
Q 4219 3659 3833 3768 
Q 3447 3878 3059 3878 
Q 2341 3878 1952 3476 
Q 1563 3075 1563 2328 
Q 1563 1588 1938 1184 
Q 2313 781 3003 781 
Q 3191 781 3352 804 
Q 3513 828 3641 878 
L 3641 1784 
L 2906 1784 
L 2906 2591 
L 4781 2591 
L 4781 347 
z
" transform="scale(0.015625)"/>
     <path id="DejaVuSans-Bold-4e" d="M 588 4666 
L 1931 4666 
L 3628 1466 
L 3628 4666 
L 4769 4666 
L 4769 0 
L 3425 0 
L 1728 3200 
L 1728 0 
L 588 0 
L 588 4666 
z
" transform="scale(0.015625)"/>
     <path id="DejaVuSans-Bold-5f" d="M 3200 -916 
L 3200 -1509 
L 0 -1509 
L 0 -916 
L 3200 -916 
z
" transform="scale(0.015625)"/>
     <path id="DejaVuSans-Bold-4b" d="M 588 4666 
L 1791 4666 
L 1791 2963 
L 3525 4666 
L 4922 4666 
L 2675 2456 
L 5153 0 
L 3647 0 
L 1791 1838 
L 1791 0 
L 588 0 
L 588 4666 
z
" transform="scale(0.015625)"/>
     <path id="DejaVuSans-Bold-28" d="M 2413 -844 
L 1484 -844 
Q 1006 -72 778 623 
Q 550 1319 550 2003 
Q 550 2688 779 3389 
Q 1009 4091 1484 4856 
L 2413 4856 
Q 2013 4116 1813 3408 
Q 1613 2700 1613 2009 
Q 1613 1319 1811 609 
Q 2009 -100 2413 -844 
z
" transform="scale(0.015625)"/>
     <path id="DejaVuSans-Bold-69" d="M 538 3500 
L 1656 3500 
L 1656 0 
L 538 0 
L 538 3500 
z
M 538 4863 
L 1656 4863 
L 1656 3950 
L 538 3950 
L 538 4863 
z
" transform="scale(0.015625)"/>
     <path id="DejaVuSans-Bold-73" d="M 3272 3391 
L 3272 2541 
Q 2913 2691 2578 2766 
Q 2244 2841 1947 2841 
Q 1628 2841 1473 2761 
Q 1319 2681 1319 2516 
Q 1319 2381 1436 2309 
Q 1553 2238 1856 2203 
L 2053 2175 
Q 2913 2066 3209 1816 
Q 3506 1566 3506 1031 
Q 3506 472 3093 190 
Q 2681 -91 1863 -91 
Q 1516 -91 1145 -36 
Q 775 19 384 128 
L 384 978 
Q 719 816 1070 734 
Q 1422 653 1784 653 
Q 2113 653 2278 743 
Q 2444 834 2444 1013 
Q 2444 1163 2330 1236 
Q 2216 1309 1875 1350 
L 1678 1375 
Q 931 1469 631 1722 
Q 331 1975 331 2491 
Q 331 3047 712 3315 
Q 1094 3584 1881 3584 
Q 2191 3584 2531 3537 
Q 2872 3491 3272 3391 
z
" transform="scale(0.015625)"/>
     <path id="DejaVuSans-Bold-29" d="M 513 -844 
Q 913 -100 1113 609 
Q 1313 1319 1313 2009 
Q 1313 2700 1113 3408 
Q 913 4116 513 4856 
L 1441 4856 
Q 1916 4091 2145 3389 
Q 2375 2688 2375 2003 
Q 2375 1319 2147 623 
Q 1919 -72 1441 -844 
L 513 -844 
z
" transform="scale(0.015625)"/>
    </defs>
    <use xlink:href="#DejaVuSans-Bold-43"/>
    <use xlink:href="#DejaVuSans-Bold-61" transform="translate(73.388672 0)"/>
    <use xlink:href="#DejaVuSans-Bold-72" transform="translate(140.869141 0)"/>
    <use xlink:href="#DejaVuSans-Bold-74" transform="translate(190.185547 0)"/>
    <use xlink:href="#DejaVuSans-Bold-50" transform="translate(237.988281 0)"/>
    <use xlink:href="#DejaVuSans-Bold-6f" transform="translate(311.279297 0)"/>
    <use xlink:href="#DejaVuSans-Bold-6c" transform="translate(379.980469 0)"/>
    <use xlink:href="#DejaVuSans-Bold-65" transform="translate(414.257812 0)"/>
    <use xlink:href="#DejaVuSans-Bold-2d" transform="translate(482.080078 0)"/>
    <use xlink:href="#DejaVuSans-Bold-76" transform="translate(523.583984 0)"/>
    <use xlink:href="#DejaVuSans-Bold-31" transform="translate(588.769531 0)"/>
    <use xlink:href="#DejaVuSans-Bold-20" transform="translate(658.349609 0)"/>
    <use xlink:href="#DejaVuSans-Bold-7c" transform="translate(693.164062 0)"/>
    <use xlink:href="#DejaVuSans-Bold-20" transform="translate(729.6875 0)"/>
    <use xlink:href="#DejaVuSans-Bold-47" transform="translate(764.501953 0)"/>
    <use xlink:href="#DejaVuSans-Bold-4e" transform="translate(846.582031 0)"/>
    <use xlink:href="#DejaVuSans-Bold-4e" transform="translate(930.273438 0)"/>
    <use xlink:href="#DejaVuSans-Bold-5f" transform="translate(1013.964844 0)"/>
    <use xlink:href="#DejaVuSans-Bold-4b" transform="translate(1063.964844 0)"/>
    <use xlink:href="#DejaVuSans-Bold-2d" transform="translate(1132.705078 0)"/>
    <use xlink:href="#DejaVuSans-Bold-4e" transform="translate(1174.208984 0)"/>
    <use xlink:href="#DejaVuSans-Bold-65" transform="translate(1257.900391 0)"/>
    <use xlink:href="#DejaVuSans-Bold-74" transform="translate(1325.722656 0)"/>
    <use xlink:href="#DejaVuSans-Bold-20" transform="translate(1373.525391 0)"/>
    <use xlink:href="#DejaVuSans-Bold-28" transform="translate(1408.339844 0)"/>
    <use xlink:href="#DejaVuSans-Bold-4e" transform="translate(1454.042969 0)"/>
    <use xlink:href="#DejaVuSans-Bold-6f" transform="translate(1537.734375 0)"/>
    <use xlink:href="#DejaVuSans-Bold-69" transform="translate(1606.435547 0)"/>
    <use xlink:href="#DejaVuSans-Bold-73" transform="translate(1640.712891 0)"/>
    <use xlink:href="#DejaVuSans-Bold-65" transform="translate(1700.234375 0)"/>
    <use xlink:href="#DejaVuSans-Bold-29" transform="translate(1768.056641 0)"/>
   </g>
  </g>
 </g>
 <defs>
  <clipPath id="pa7e64a6e58">
   <rect x="44.44" y="39.6" width="579.361429" height="360.92"/>
  </clipPath>
 </defs>
</svg>
