<?xml version="1.0" encoding="utf-8" standalone="no"?>
<!DOCTYPE svg PUBLIC "-//W3C//DTD SVG 1.1//EN"
  "http://www.w3.org/Graphics/SVG/1.1/DTD/svg11.dtd">
<svg xmlns:xlink="http://www.w3.org/1999/xlink" width="648pt" height="432pt" viewBox="0 0 648 432" xmlns="http://www.w3.org/2000/svg" version="1.1">
 <metadata>
  <rdf:RDF xmlns:dc="http://purl.org/dc/elements/1.1/" xmlns:cc="http://creativecommons.org/ns#" xmlns:rdf="http://www.w3.org/1999/02/22-rdf-syntax-ns#">
   <cc:Work>
    <dc:type rdf:resource="http://purl.org/dc/dcmitype/StillImage"/>
    <dc:date>2025-07-31T05:18:08.896491</dc:date>
    <dc:format>image/svg+xml</dc:format>
    <dc:creator>
     <cc:Agent>
      <dc:title>Matplotlib v3.10.0, https://matplotlib.org/</dc:title>
     </cc:Agent>
    </dc:creator>
   </cc:Work>
  </rdf:RDF>
 </metadata>
 <defs>
  <style type="text/css">*{stroke-linejoin: round; stroke-linecap: butt}</style>
 </defs>
 <g id="figure_1">
  <g id="patch_1">
   <path d="M 0 432 
L 648 432 
L 648 0 
L 0 0 
z
" style="fill: #ffffff"/>
  </g>
  <g id="axes_1">
   <g id="patch_2">
    <path d="M 44.44 400.52 
L 623.801429 400.52 
L 623.801429 39.6 
L 44.44 39.6 
z
" style="fill: #eaeaf2"/>
   </g>
   <g id="matplotlib.axis_1">
    <g id="xtick_1">
     <g id="line2d_1">
      <path d="M 55.503554 400.52 
L 55.503554 39.6 
" clip-path="url(#p70d27b6476)" style="fill: none; stroke: #ffffff; stroke-width: 0.8; stroke-linecap: round"/>
     </g>
     <g id="text_1">
      <!-- 0 -->
      <g style="fill: #262626" transform="translate(51.049804 418.157812) scale(0.14 -0.14)">
       <defs>
        <path id="DejaVuSans-30" d="M 2034 4250 
Q 1547 4250 1301 3770 
Q 1056 3291 1056 2328 
Q 1056 1369 1301 889 
Q 1547 409 2034 409 
Q 2525 409 2770 889 
Q 3016 1369 3016 2328 
Q 3016 3291 2770 3770 
Q 2525 4250 2034 4250 
z
M 2034 4750 
Q 2819 4750 3233 4129 
Q 3647 3509 3647 2328 
Q 3647 1150 3233 529 
Q 2819 -91 2034 -91 
Q 1250 -91 836 529 
Q 422 1150 422 2328 
Q 422 3509 836 4129 
Q 1250 4750 2034 4750 
z
" transform="scale(0.015625)"/>
       </defs>
       <use xlink:href="#DejaVuSans-30"/>
      </g>
     </g>
    </g>
    <g id="xtick_2">
     <g id="line2d_2">
      <path d="M 608.681239 400.52 
L 608.681239 39.6 
" clip-path="url(#p70d27b6476)" style="fill: none; stroke: #ffffff; stroke-width: 0.8; stroke-linecap: round"/>
     </g>
     <g id="text_2">
      <!-- 600000 -->
      <g style="fill: #262626" transform="translate(581.958739 418.157812) scale(0.14 -0.14)">
       <defs>
        <path id="DejaVuSans-36" d="M 2113 2584 
Q 1688 2584 1439 2293 
Q 1191 2003 1191 1497 
Q 1191 994 1439 701 
Q 1688 409 2113 409 
Q 2538 409 2786 701 
Q 3034 994 3034 1497 
Q 3034 2003 2786 2293 
Q 2538 2584 2113 2584 
z
M 3366 4563 
L 3366 3988 
Q 3128 4100 2886 4159 
Q 2644 4219 2406 4219 
Q 1781 4219 1451 3797 
Q 1122 3375 1075 2522 
Q 1259 2794 1537 2939 
Q 1816 3084 2150 3084 
Q 2853 3084 3261 2657 
Q 3669 2231 3669 1497 
Q 3669 778 3244 343 
Q 2819 -91 2113 -91 
Q 1303 -91 875 529 
Q 447 1150 447 2328 
Q 447 3434 972 4092 
Q 1497 4750 2381 4750 
Q 2619 4750 2861 4703 
Q 3103 4656 3366 4563 
z
" transform="scale(0.015625)"/>
       </defs>
       <use xlink:href="#DejaVuSans-36"/>
       <use xlink:href="#DejaVuSans-30" transform="translate(63.623047 0)"/>
       <use xlink:href="#DejaVuSans-30" transform="translate(127.246094 0)"/>
       <use xlink:href="#DejaVuSans-30" transform="translate(190.869141 0)"/>
       <use xlink:href="#DejaVuSans-30" transform="translate(254.492188 0)"/>
       <use xlink:href="#DejaVuSans-30" transform="translate(318.115234 0)"/>
      </g>
     </g>
    </g>
   </g>
   <g id="matplotlib.axis_2">
    <g id="ytick_1">
     <g id="line2d_3">
      <path d="M 44.44 390.305283 
L 623.801429 390.305283 
" clip-path="url(#p70d27b6476)" style="fill: none; stroke: #ffffff; stroke-width: 0.8; stroke-linecap: round"/>
     </g>
     <g id="text_3">
      <!-- 0 -->
      <g style="fill: #262626" transform="translate(28.5325 395.624189) scale(0.14 -0.14)">
       <use xlink:href="#DejaVuSans-30"/>
      </g>
     </g>
    </g>
    <g id="ytick_2">
     <g id="line2d_4">
      <path d="M 44.44 322.20717 
L 623.801429 322.20717 
" clip-path="url(#p70d27b6476)" style="fill: none; stroke: #ffffff; stroke-width: 0.8; stroke-linecap: round"/>
     </g>
     <g id="text_4">
      <!-- 100 -->
      <g style="fill: #262626" transform="translate(10.7175 327.526076) scale(0.14 -0.14)">
       <defs>
        <path id="DejaVuSans-31" d="M 794 531 
L 1825 531 
L 1825 4091 
L 703 3866 
L 703 4441 
L 1819 4666 
L 2450 4666 
L 2450 531 
L 3481 531 
L 3481 0 
L 794 0 
L 794 531 
z
" transform="scale(0.015625)"/>
       </defs>
       <use xlink:href="#DejaVuSans-31"/>
       <use xlink:href="#DejaVuSans-30" transform="translate(63.623047 0)"/>
       <use xlink:href="#DejaVuSans-30" transform="translate(127.246094 0)"/>
      </g>
     </g>
    </g>
    <g id="ytick_3">
     <g id="line2d_5">
      <path d="M 44.44 254.109057 
L 623.801429 254.109057 
" clip-path="url(#p70d27b6476)" style="fill: none; stroke: #ffffff; stroke-width: 0.8; stroke-linecap: round"/>
     </g>
     <g id="text_5">
      <!-- 200 -->
      <g style="fill: #262626" transform="translate(10.7175 259.427963) scale(0.14 -0.14)">
       <defs>
        <path id="DejaVuSans-32" d="M 1228 531 
L 3431 531 
L 3431 0 
L 469 0 
L 469 531 
Q 828 903 1448 1529 
Q 2069 2156 2228 2338 
Q 2531 2678 2651 2914 
Q 2772 3150 2772 3378 
Q 2772 3750 2511 3984 
Q 2250 4219 1831 4219 
Q 1534 4219 1204 4116 
Q 875 4013 500 3803 
L 500 4441 
Q 881 4594 1212 4672 
Q 1544 4750 1819 4750 
Q 2544 4750 2975 4387 
Q 3406 4025 3406 3419 
Q 3406 3131 3298 2873 
Q 3191 2616 2906 2266 
Q 2828 2175 2409 1742 
Q 1991 1309 1228 531 
z
" transform="scale(0.015625)"/>
       </defs>
       <use xlink:href="#DejaVuSans-32"/>
       <use xlink:href="#DejaVuSans-30" transform="translate(63.623047 0)"/>
       <use xlink:href="#DejaVuSans-30" transform="translate(127.246094 0)"/>
      </g>
     </g>
    </g>
    <g id="ytick_4">
     <g id="line2d_6">
      <path d="M 44.44 186.010943 
L 623.801429 186.010943 
" clip-path="url(#p70d27b6476)" style="fill: none; stroke: #ffffff; stroke-width: 0.8; stroke-linecap: round"/>
     </g>
     <g id="text_6">
      <!-- 300 -->
      <g style="fill: #262626" transform="translate(10.7175 191.32985) scale(0.14 -0.14)">
       <defs>
        <path id="DejaVuSans-33" d="M 2597 2516 
Q 3050 2419 3304 2112 
Q 3559 1806 3559 1356 
Q 3559 666 3084 287 
Q 2609 -91 1734 -91 
Q 1441 -91 1130 -33 
Q 819 25 488 141 
L 488 750 
Q 750 597 1062 519 
Q 1375 441 1716 441 
Q 2309 441 2620 675 
Q 2931 909 2931 1356 
Q 2931 1769 2642 2001 
Q 2353 2234 1838 2234 
L 1294 2234 
L 1294 2753 
L 1863 2753 
Q 2328 2753 2575 2939 
Q 2822 3125 2822 3475 
Q 2822 3834 2567 4026 
Q 2313 4219 1838 4219 
Q 1578 4219 1281 4162 
Q 984 4106 628 3988 
L 628 4550 
Q 988 4650 1302 4700 
Q 1616 4750 1894 4750 
Q 2613 4750 3031 4423 
Q 3450 4097 3450 3541 
Q 3450 3153 3228 2886 
Q 3006 2619 2597 2516 
z
" transform="scale(0.015625)"/>
       </defs>
       <use xlink:href="#DejaVuSans-33"/>
       <use xlink:href="#DejaVuSans-30" transform="translate(63.623047 0)"/>
       <use xlink:href="#DejaVuSans-30" transform="translate(127.246094 0)"/>
      </g>
     </g>
    </g>
    <g id="ytick_5">
     <g id="line2d_7">
      <path d="M 44.44 117.91283 
L 623.801429 117.91283 
" clip-path="url(#p70d27b6476)" style="fill: none; stroke: #ffffff; stroke-width: 0.8; stroke-linecap: round"/>
     </g>
     <g id="text_7">
      <!-- 400 -->
      <g style="fill: #262626" transform="translate(10.7175 123.231736) scale(0.14 -0.14)">
       <defs>
        <path id="DejaVuSans-34" d="M 2419 4116 
L 825 1625 
L 2419 1625 
L 2419 4116 
z
M 2253 4666 
L 3047 4666 
L 3047 1625 
L 3713 1625 
L 3713 1100 
L 3047 1100 
L 3047 0 
L 2419 0 
L 2419 1100 
L 313 1100 
L 313 1709 
L 2253 4666 
z
" transform="scale(0.015625)"/>
       </defs>
       <use xlink:href="#DejaVuSans-34"/>
       <use xlink:href="#DejaVuSans-30" transform="translate(63.623047 0)"/>
       <use xlink:href="#DejaVuSans-30" transform="translate(127.246094 0)"/>
      </g>
     </g>
    </g>
    <g id="ytick_6">
     <g id="line2d_8">
      <path d="M 44.44 49.814717 
L 623.801429 49.814717 
" clip-path="url(#p70d27b6476)" style="fill: none; stroke: #ffffff; stroke-width: 0.8; stroke-linecap: round"/>
     </g>
     <g id="text_8">
      <!-- 500 -->
      <g style="fill: #262626" transform="translate(10.7175 55.133623) scale(0.14 -0.14)">
       <defs>
        <path id="DejaVuSans-35" d="M 691 4666 
L 3169 4666 
L 3169 4134 
L 1269 4134 
L 1269 2991 
Q 1406 3038 1543 3061 
Q 1681 3084 1819 3084 
Q 2600 3084 3056 2656 
Q 3513 2228 3513 1497 
Q 3513 744 3044 326 
Q 2575 -91 1722 -91 
Q 1428 -91 1123 -41 
Q 819 9 494 109 
L 494 744 
Q 775 591 1075 516 
Q 1375 441 1709 441 
Q 2250 441 2565 725 
Q 2881 1009 2881 1497 
Q 2881 1984 2565 2268 
Q 2250 2553 1709 2553 
Q 1456 2553 1204 2497 
Q 953 2441 691 2322 
L 691 4666 
z
" transform="scale(0.015625)"/>
       </defs>
       <use xlink:href="#DejaVuSans-35"/>
       <use xlink:href="#DejaVuSans-30" transform="translate(63.623047 0)"/>
       <use xlink:href="#DejaVuSans-30" transform="translate(127.246094 0)"/>
      </g>
     </g>
    </g>
   </g>
   <g id="FillBetweenPolyCollection_1">
    <path d="M 55.503554 373.743746 
L 55.503554 376.852576 
L 66.832633 373.494263 
L 78.161712 366.666632 
L 89.490791 342.929676 
L 100.81987 305.72111 
L 112.148949 281.65066 
L 123.478028 266.361762 
L 134.807107 252.914368 
L 146.136186 256.332598 
L 157.465265 249.65465 
L 168.794344 223.726574 
L 180.123423 187.639791 
L 191.452502 167.00089 
L 202.781581 151.685264 
L 214.11066 166.295054 
L 225.439739 113.080553 
L 236.768818 137.47132 
L 248.097897 124.902595 
L 259.426976 118.07217 
L 270.756055 109.702445 
L 282.085134 106.422624 
L 293.414213 81.610913 
L 304.743292 98.602354 
L 316.072371 88.524512 
L 327.40145 78.109971 
L 338.730529 91.772635 
L 350.059608 84.25079 
L 361.388687 88.867819 
L 372.717766 71.807303 
L 384.046845 63.247305 
L 395.375924 70.323867 
L 406.705003 79.813942 
L 418.034082 91.417925 
L 429.363161 191.179113 
L 440.69224 189.407558 
L 452.021318 211.468616 
L 463.350397 213.601824 
L 474.679476 217.389182 
L 486.008555 210.000967 
L 497.337634 210.851772 
L 508.666713 214.102228 
L 519.995792 207.708705 
L 531.324871 208.633874 
L 542.65395 210.537026 
L 553.983029 207.635414 
L 565.312108 211.709863 
L 576.641187 210.065099 
L 587.970266 213.362714 
L 599.299345 212.036607 
L 610.628424 209.441693 
L 610.628424 11.078917 
L 610.628424 11.078917 
L 599.299345 10.101333 
L 587.970266 13.678289 
L 576.641187 4.786343 
L 565.312108 6.069797 
L 553.983029 3.402533 
L 542.65395 12.809655 
L 531.324871 5.349317 
L 519.995792 -2.816612 
L 508.666713 9.840311 
L 497.337634 2.34829 
L 486.008555 2.586212 
L 474.679476 19.338778 
L 463.350397 11.702678 
L 452.021318 22.705665 
L 440.69224 13.254322 
L 429.363161 13.951323 
L 418.034082 42.192468 
L 406.705003 55.652124 
L 395.375924 51.539601 
L 384.046845 54.01954 
L 372.717766 53.699414 
L 361.388687 60.643482 
L 350.059608 54.415888 
L 338.730529 64.088816 
L 327.40145 48.571438 
L 316.072371 53.155507 
L 304.743292 72.819516 
L 293.414213 60.920332 
L 282.085134 67.263508 
L 270.756055 58.552862 
L 259.426976 73.421619 
L 248.097897 58.453469 
L 236.768818 77.380122 
L 225.439739 89.768596 
L 214.11066 86.061423 
L 202.781581 107.685319 
L 191.452502 127.32105 
L 180.123423 150.213868 
L 168.794344 170.563396 
L 157.465265 202.161201 
L 146.136186 195.551351 
L 134.807107 193.606854 
L 123.478028 226.329982 
L 112.148949 244.102717 
L 100.81987 296.710743 
L 89.490791 319.258271 
L 78.161712 351.974651 
L 66.832633 363.380289 
L 55.503554 373.743746 
z
" clip-path="url(#p70d27b6476)" style="fill: #0000ff; fill-opacity: 0.1"/>
   </g>
   <g id="line2d_9">
    <path d="M 55.503554 375.298161 
L 66.832633 368.437276 
L 78.161712 359.320642 
L 89.490791 331.093974 
L 100.81987 301.215926 
L 112.148949 262.876689 
L 123.478028 246.345872 
L 134.807107 223.260611 
L 146.136186 225.941975 
L 157.465265 225.907925 
L 168.794344 197.144985 
L 180.123423 168.926829 
L 191.452502 147.16097 
L 202.781581 129.685292 
L 214.11066 126.178239 
L 225.439739 101.424575 
L 236.768818 107.425721 
L 248.097897 91.678032 
L 259.426976 95.746894 
L 270.756055 84.127654 
L 282.085134 86.843066 
L 293.414213 71.265623 
L 304.743292 85.710935 
L 316.072371 70.840009 
L 327.40145 63.340705 
L 338.730529 77.930725 
L 350.059608 69.333339 
L 361.388687 74.755651 
L 372.717766 62.753358 
L 384.046845 58.633423 
L 395.375924 60.931734 
L 406.705003 67.733033 
L 418.034082 66.805196 
L 429.363161 102.565218 
L 440.69224 101.33094 
L 452.021318 117.087141 
L 463.350397 112.652251 
L 474.679476 118.36398 
L 486.008555 106.29359 
L 497.337634 106.600031 
L 508.666713 111.97127 
L 519.995792 102.446046 
L 531.324871 106.991595 
L 542.65395 111.673341 
L 553.983029 105.518974 
L 565.312108 108.88983 
L 576.641187 107.425721 
L 587.970266 113.520502 
L 599.299345 111.06897 
L 610.628424 110.260305 
" clip-path="url(#p70d27b6476)" style="fill: none; stroke: #0000ff; stroke-width: 2; stroke-linecap: round"/>
   </g>
   <g id="line2d_10">
    <path d="M 55.503554 377.664571 
L 66.832633 364.470561 
L 78.161712 352.681075 
L 89.490791 311.864769 
L 100.81987 301.437245 
L 112.148949 280.284269 
L 123.478028 266.45184 
L 134.807107 248.065349 
L 146.136186 212.143594 
L 157.465265 224.231009 
L 168.794344 166.602981 
L 180.123423 146.939651 
L 191.452502 152.813113 
L 202.781581 127.872179 
L 214.11066 158.346085 
L 225.439739 120.083458 
L 236.768818 134.128693 
L 248.097897 157.87791 
L 259.426976 130.766349 
L 270.756055 125.701552 
L 282.085134 70.754887 
L 293.414213 79.011783 
L 304.743292 87.140995 
L 316.072371 73.734179 
L 327.40145 55.177443 
L 338.730529 76.67091 
L 350.059608 96.291679 
L 361.388687 70.031344 
L 372.717766 53.474991 
L 384.046845 60.455047 
L 395.375924 75.947368 
L 406.705003 87.481486 
L 418.034082 115.571958 
L 429.363161 279.092552 
L 440.69224 275.772769 
L 452.021318 304.969835 
L 463.350397 313.609783 
L 474.679476 315.950656 
L 486.008555 313.18417 
L 497.337634 314.716377 
L 508.666713 315.141991 
L 519.995792 312.971363 
L 531.324871 309.779264 
L 542.65395 309.31109 
L 553.983029 309.566458 
L 565.312108 313.013925 
L 576.641187 312.035014 
L 587.970266 312.54575 
L 599.299345 312.673434 
L 610.628424 307.778882 
" clip-path="url(#p70d27b6476)" style="fill: none; stroke: #008000; stroke-opacity: 0.27; stroke-width: 1.25; stroke-linecap: round"/>
   </g>
   <g id="line2d_11">
    <path d="M 55.503554 374.983208 
L 66.832633 374.600156 
L 78.161712 366.896557 
L 89.490791 344.892354 
L 100.81987 301.479807 
L 112.148949 274.921542 
L 123.478028 242.362132 
L 134.807107 252.832217 
L 146.136186 263.600231 
L 157.465265 224.784307 
L 168.794344 231.892047 
L 180.123423 198.864462 
L 191.452502 182.095302 
L 202.781581 152.3875 
L 214.11066 178.945764 
L 225.439739 96.717292 
L 236.768818 121.913594 
L 248.097897 77.564698 
L 259.426976 109.783618 
L 270.756055 49.814717 
L 282.085134 82.586934 
L 293.414213 72.031726 
L 304.743292 92.376038 
L 316.072371 102.12258 
L 327.40145 91.652495 
L 338.730529 89.566991 
L 350.059608 58.582349 
L 361.388687 81.097288 
L 372.717766 74.71309 
L 384.046845 58.539788 
L 395.375924 49.814717 
L 406.705003 49.814717 
L 418.034082 60.327363 
L 429.363161 69.56317 
L 440.69224 49.814717 
L 452.021318 55.432811 
L 463.350397 53.560113 
L 474.679476 80.714236 
L 486.008555 68.839627 
L 497.337634 51.176679 
L 508.666713 68.116085 
L 519.995792 49.814717 
L 531.324871 69.265241 
L 542.65395 64.668618 
L 553.983029 49.814717 
L 565.312108 49.814717 
L 576.641187 49.814717 
L 587.970266 70.371835 
L 599.299345 49.814717 
L 610.628424 72.116849 
" clip-path="url(#p70d27b6476)" style="fill: none; stroke: #008000; stroke-opacity: 0.27; stroke-width: 1.25; stroke-linecap: round"/>
   </g>
   <g id="line2d_12">
    <path d="M 55.503554 376.430292 
L 66.832633 373.706368 
L 78.161712 365.108981 
L 89.490791 341.359764 
L 100.81987 304.969835 
L 112.148949 276.198382 
L 123.478028 267.941486 
L 134.807107 240.744802 
L 146.136186 261.344481 
L 157.465265 266.15391 
L 168.794344 180.946146 
L 180.123423 177.541241 
L 191.452502 142.38559 
L 202.781581 154.558127 
L 214.11066 66.498755 
L 225.439739 100.207321 
L 236.768818 136.980302 
L 248.097897 72.882953 
L 259.426976 80.373745 
L 270.756055 66.498755 
L 282.085134 81.012165 
L 293.414213 51.687415 
L 304.743292 69.222679 
L 316.072371 69.690854 
L 327.40145 63.093849 
L 338.730529 82.289005 
L 350.059608 58.326981 
L 361.388687 49.814717 
L 372.717766 68.92475 
L 384.046845 49.814717 
L 395.375924 66.966929 
L 406.705003 69.733415 
L 418.034082 49.814717 
L 429.363161 49.814717 
L 440.69224 49.814717 
L 452.021318 82.289005 
L 463.350397 49.814717 
L 474.679476 63.221533 
L 486.008555 49.814717 
L 497.337634 66.839245 
L 508.666713 49.814717 
L 519.995792 49.814717 
L 531.324871 56.284038 
L 542.65395 66.371071 
L 553.983029 49.814717 
L 565.312108 49.814717 
L 576.641187 49.814717 
L 587.970266 56.879896 
L 599.299345 63.77483 
L 610.628424 69.988783 
" clip-path="url(#p70d27b6476)" style="fill: none; stroke: #008000; stroke-opacity: 0.27; stroke-width: 1.25; stroke-linecap: round"/>
   </g>
   <g id="line2d_13">
    <path d="M 55.503554 373.834052 
L 66.832633 367.747783 
L 78.161712 348.467505 
L 89.490791 332.081396 
L 100.81987 305.352887 
L 112.148949 252.023552 
L 123.478028 241.723712 
L 134.807107 184.223368 
L 146.136186 196.140538 
L 157.465265 191.458792 
L 168.794344 180.137481 
L 180.123423 169.582274 
L 191.452502 124.169344 
L 202.781581 95.951189 
L 214.11066 126.723024 
L 225.439739 84.417071 
L 236.768818 82.416689 
L 248.097897 78.92666 
L 259.426976 90.418217 
L 270.756055 89.481868 
L 282.085134 125.063132 
L 293.414213 72.925514 
L 304.743292 105.357241 
L 316.072371 58.199297 
L 327.40145 49.89984 
L 338.730529 51.942783 
L 350.059608 58.497226 
L 361.388687 81.991075 
L 372.717766 65.519844 
L 384.046845 62.497991 
L 395.375924 54.198533 
L 406.705003 63.902514 
L 418.034082 53.943165 
L 429.363161 49.814717 
L 440.69224 49.814717 
L 452.021318 66.498755 
L 463.350397 71.265623 
L 474.679476 70.456958 
L 486.008555 49.814717 
L 497.337634 49.814717 
L 508.666713 76.96884 
L 519.995792 49.814717 
L 531.324871 49.814717 
L 542.65395 58.539788 
L 553.983029 61.008344 
L 565.312108 49.814717 
L 576.641187 53.347307 
L 587.970266 74.798212 
L 599.299345 62.370307 
L 610.628424 51.602292 
" clip-path="url(#p70d27b6476)" style="fill: none; stroke: #008000; stroke-opacity: 0.27; stroke-width: 1.25; stroke-linecap: round"/>
   </g>
   <g id="line2d_14">
    <path d="M 55.503554 373.578684 
L 66.832633 361.661514 
L 78.161712 363.44909 
L 89.490791 325.271585 
L 100.81987 292.839858 
L 112.148949 230.955698 
L 123.478028 213.250189 
L 134.807107 190.437321 
L 146.136186 196.481028 
L 157.465265 222.911608 
L 168.794344 226.146269 
L 180.123423 151.706519 
L 191.452502 134.3415 
L 202.781581 117.657462 
L 214.11066 100.377566 
L 225.439739 105.697731 
L 236.768818 61.689325 
L 248.097897 71.137939 
L 259.426976 67.392542 
L 270.756055 89.141377 
L 282.085134 74.798212 
L 293.414213 80.671675 
L 304.743292 74.457722 
L 316.072371 50.453137 
L 327.40145 56.879896 
L 338.730529 89.183939 
L 350.059608 74.968458 
L 361.388687 90.84383 
L 372.717766 51.134118 
L 384.046845 61.859571 
L 395.375924 57.731123 
L 406.705003 67.733033 
L 418.034082 54.368778 
L 429.363161 64.540934 
L 440.69224 81.437778 
L 452.021318 76.245297 
L 463.350397 75.011019 
L 474.679476 61.476519 
L 486.008555 49.814717 
L 497.337634 50.453137 
L 508.666713 49.814717 
L 519.995792 49.814717 
L 531.324871 49.814717 
L 542.65395 59.476137 
L 553.983029 57.390632 
L 565.312108 81.991075 
L 576.641187 72.116849 
L 587.970266 53.006816 
L 599.299345 66.711561 
L 610.628424 49.814717 
" clip-path="url(#p70d27b6476)" style="fill: none; stroke: #008000; stroke-opacity: 0.27; stroke-width: 1.25; stroke-linecap: round"/>
   </g>
   <g id="line2d_15">
    <path d="M 55.503554 49.814717 
L 66.832633 81.64137 
L 78.161712 141.781362 
L 89.490791 182.260698 
L 100.81987 233.10093 
L 112.148949 243.975838 
L 123.478028 281.069922 
L 134.807107 296.864786 
L 146.136186 305.822702 
L 157.465265 307.4413 
L 168.794344 300.311629 
L 180.123423 294.44551 
L 191.452502 310.873686 
L 202.781581 319.344946 
L 214.11066 333.807991 
L 225.439739 323.507486 
L 236.768818 331.966499 
L 248.097897 339.122104 
L 259.426976 332.229617 
L 270.756055 336.33976 
L 282.085134 319.681785 
L 293.414213 308.065635 
L 304.743292 312.377428 
L 316.072371 306.084415 
L 327.40145 316.126346 
L 338.730529 319.364824 
L 350.059608 317.836381 
L 361.388687 317.698132 
L 372.717766 320.385042 
L 384.046845 315.002239 
L 395.375924 311.014682 
L 406.705003 318.543091 
L 418.034082 321.715218 
L 429.363161 372.932252 
L 440.69224 379.908797 
L 452.021318 390.305283 
L 463.350397 382.067962 
L 474.679476 383.210686 
L 486.008555 378.306317 
L 497.337634 386.398631 
L 508.666713 386.06239 
L 519.995792 384.923304 
L 531.324871 382.245692 
L 542.65395 382.635811 
L 553.983029 379.832825 
L 565.312108 379.727864 
L 576.641187 369.874322 
L 587.970266 371.82025 
L 599.299345 374.231388 
L 610.628424 372.477106 
" clip-path="url(#p70d27b6476)" style="fill: none; stroke: #7b3ab8; stroke-width: 1.5; stroke-linecap: round"/>
   </g>
   <g id="patch_3">
    <path d="M 44.44 400.52 
L 44.44 39.6 
" style="fill: none; stroke: #ffffff; stroke-width: 0.8; stroke-linejoin: miter; stroke-linecap: square"/>
   </g>
   <g id="patch_4">
    <path d="M 623.801429 400.52 
L 623.801429 39.6 
" style="fill: none; stroke: #ffffff; stroke-width: 0.8; stroke-linejoin: miter; stroke-linecap: square"/>
   </g>
   <g id="patch_5">
    <path d="M 44.44 400.52 
L 623.801429 400.52 
" style="fill: none; stroke: #ffffff; stroke-width: 0.8; stroke-linejoin: miter; stroke-linecap: square"/>
   </g>
   <g id="patch_6">
    <path d="M 44.44 39.6 
L 623.801429 39.6 
" style="fill: none; stroke: #ffffff; stroke-width: 0.8; stroke-linejoin: miter; stroke-linecap: square"/>
   </g>
  </g>
  <g id="text_9">
   <!-- CartPole-v1 | GNN-Net (Noise + Entropy) -->
   <g style="fill: #262626" transform="translate(117.853594 22.395938) scale(0.18 -0.18)">
    <defs>
     <path id="DejaVuSans-Bold-43" d="M 4288 256 
Q 3956 84 3597 -3 
Q 3238 -91 2847 -91 
Q 1681 -91 1000 561 
Q 319 1213 319 2328 
Q 319 3447 1000 4098 
Q 1681 4750 2847 4750 
Q 3238 4750 3597 4662 
Q 3956 4575 4288 4403 
L 4288 3438 
Q 3953 3666 3628 3772 
Q 3303 3878 2944 3878 
Q 2300 3878 1931 3465 
Q 1563 3053 1563 2328 
Q 1563 1606 1931 1193 
Q 2300 781 2944 781 
Q 3303 781 3628 887 
Q 3953 994 4288 1222 
L 4288 256 
z
" transform="scale(0.015625)"/>
     <path id="DejaVuSans-Bold-61" d="M 2106 1575 
Q 1756 1575 1579 1456 
Q 1403 1338 1403 1106 
Q 1403 894 1545 773 
Q 1688 653 1941 653 
Q 2256 653 2472 879 
Q 2688 1106 2688 1447 
L 2688 1575 
L 2106 1575 
z
M 3816 1997 
L 3816 0 
L 2688 0 
L 2688 519 
Q 2463 200 2181 54 
Q 1900 -91 1497 -91 
Q 953 -91 614 226 
Q 275 544 275 1050 
Q 275 1666 698 1953 
Q 1122 2241 2028 2241 
L 2688 2241 
L 2688 2328 
Q 2688 2594 2478 2717 
Q 2269 2841 1825 2841 
Q 1466 2841 1156 2769 
Q 847 2697 581 2553 
L 581 3406 
Q 941 3494 1303 3539 
Q 1666 3584 2028 3584 
Q 2975 3584 3395 3211 
Q 3816 2838 3816 1997 
z
" transform="scale(0.015625)"/>
     <path id="DejaVuSans-Bold-72" d="M 3138 2547 
Q 2991 2616 2845 2648 
Q 2700 2681 2553 2681 
Q 2122 2681 1889 2404 
Q 1656 2128 1656 1613 
L 1656 0 
L 538 0 
L 538 3500 
L 1656 3500 
L 1656 2925 
Q 1872 3269 2151 3426 
Q 2431 3584 2822 3584 
Q 2878 3584 2943 3579 
Q 3009 3575 3134 3559 
L 3138 2547 
z
" transform="scale(0.015625)"/>
     <path id="DejaVuSans-Bold-74" d="M 1759 4494 
L 1759 3500 
L 2913 3500 
L 2913 2700 
L 1759 2700 
L 1759 1216 
Q 1759 972 1856 886 
Q 1953 800 2241 800 
L 2816 800 
L 2816 0 
L 1856 0 
Q 1194 0 917 276 
Q 641 553 641 1216 
L 641 2700 
L 84 2700 
L 84 3500 
L 641 3500 
L 641 4494 
L 1759 4494 
z
" transform="scale(0.015625)"/>
     <path id="DejaVuSans-Bold-50" d="M 588 4666 
L 2584 4666 
Q 3475 4666 3951 4270 
Q 4428 3875 4428 3144 
Q 4428 2409 3951 2014 
Q 3475 1619 2584 1619 
L 1791 1619 
L 1791 0 
L 588 0 
L 588 4666 
z
M 1791 3794 
L 1791 2491 
L 2456 2491 
Q 2806 2491 2997 2661 
Q 3188 2831 3188 3144 
Q 3188 3456 2997 3625 
Q 2806 3794 2456 3794 
L 1791 3794 
z
" transform="scale(0.015625)"/>
     <path id="DejaVuSans-Bold-6f" d="M 2203 2784 
Q 1831 2784 1636 2517 
Q 1441 2250 1441 1747 
Q 1441 1244 1636 976 
Q 1831 709 2203 709 
Q 2569 709 2762 976 
Q 2956 1244 2956 1747 
Q 2956 2250 2762 2517 
Q 2569 2784 2203 2784 
z
M 2203 3584 
Q 3106 3584 3614 3096 
Q 4122 2609 4122 1747 
Q 4122 884 3614 396 
Q 3106 -91 2203 -91 
Q 1297 -91 786 396 
Q 275 884 275 1747 
Q 275 2609 786 3096 
Q 1297 3584 2203 3584 
z
" transform="scale(0.015625)"/>
     <path id="DejaVuSans-Bold-6c" d="M 538 4863 
L 1656 4863 
L 1656 0 
L 538 0 
L 538 4863 
z
" transform="scale(0.015625)"/>
     <path id="DejaVuSans-Bold-65" d="M 4031 1759 
L 4031 1441 
L 1416 1441 
Q 1456 1047 1700 850 
Q 1944 653 2381 653 
Q 2734 653 3104 758 
Q 3475 863 3866 1075 
L 3866 213 
Q 3469 63 3072 -14 
Q 2675 -91 2278 -91 
Q 1328 -91 801 392 
Q 275 875 275 1747 
Q 275 2603 792 3093 
Q 1309 3584 2216 3584 
Q 3041 3584 3536 3087 
Q 4031 2591 4031 1759 
z
M 2881 2131 
Q 2881 2450 2695 2645 
Q 2509 2841 2209 2841 
Q 1884 2841 1681 2658 
Q 1478 2475 1428 2131 
L 2881 2131 
z
" transform="scale(0.015625)"/>
     <path id="DejaVuSans-Bold-2d" d="M 347 2297 
L 2309 2297 
L 2309 1388 
L 347 1388 
L 347 2297 
z
" transform="scale(0.015625)"/>
     <path id="DejaVuSans-Bold-76" d="M 97 3500 
L 1216 3500 
L 2088 1081 
L 2956 3500 
L 4078 3500 
L 2700 0 
L 1472 0 
L 97 3500 
z
" transform="scale(0.015625)"/>
     <path id="DejaVuSans-Bold-31" d="M 750 831 
L 1813 831 
L 1813 3847 
L 722 3622 
L 722 4441 
L 1806 4666 
L 2950 4666 
L 2950 831 
L 4013 831 
L 4013 0 
L 750 0 
L 750 831 
z
" transform="scale(0.015625)"/>
     <path id="DejaVuSans-Bold-20" transform="scale(0.015625)"/>
     <path id="DejaVuSans-Bold-7c" d="M 1522 4891 
L 1522 -1509 
L 813 -1509 
L 813 4891 
L 1522 4891 
z
" transform="scale(0.015625)"/>
     <path id="DejaVuSans-Bold-47" d="M 4781 347 
Q 4331 128 3847 18 
Q 3363 -91 2847 -91 
Q 1681 -91 1000 561 
Q 319 1213 319 2328 
Q 319 3456 1012 4103 
Q 1706 4750 2913 4750 
Q 3378 4750 3804 4662 
Q 4231 4575 4609 4403 
L 4609 3438 
Q 4219 3659 3833 3768 
Q 3447 3878 3059 3878 
Q 2341 3878 1952 3476 
Q 1563 3075 1563 2328 
Q 1563 1588 1938 1184 
Q 2313 781 3003 781 
Q 3191 781 3352 804 
Q 3513 828 3641 878 
L 3641 1784 
L 2906 1784 
L 2906 2591 
L 4781 2591 
L 4781 347 
z
" transform="scale(0.015625)"/>
     <path id="DejaVuSans-Bold-4e" d="M 588 4666 
L 1931 4666 
L 3628 1466 
L 3628 4666 
L 4769 4666 
L 4769 0 
L 3425 0 
L 1728 3200 
L 1728 0 
L 588 0 
L 588 4666 
z
" transform="scale(0.015625)"/>
     <path id="DejaVuSans-Bold-28" d="M 2413 -844 
L 1484 -844 
Q 1006 -72 778 623 
Q 550 1319 550 2003 
Q 550 2688 779 3389 
Q 1009 4091 1484 4856 
L 2413 4856 
Q 2013 4116 1813 3408 
Q 1613 2700 1613 2009 
Q 1613 1319 1811 609 
Q 2009 -100 2413 -844 
z
" transform="scale(0.015625)"/>
     <path id="DejaVuSans-Bold-69" d="M 538 3500 
L 1656 3500 
L 1656 0 
L 538 0 
L 538 3500 
z
M 538 4863 
L 1656 4863 
L 1656 3950 
L 538 3950 
L 538 4863 
z
" transform="scale(0.015625)"/>
     <path id="DejaVuSans-Bold-73" d="M 3272 3391 
L 3272 2541 
Q 2913 2691 2578 2766 
Q 2244 2841 1947 2841 
Q 1628 2841 1473 2761 
Q 1319 2681 1319 2516 
Q 1319 2381 1436 2309 
Q 1553 2238 1856 2203 
L 2053 2175 
Q 2913 2066 3209 1816 
Q 3506 1566 3506 1031 
Q 3506 472 3093 190 
Q 2681 -91 1863 -91 
Q 1516 -91 1145 -36 
Q 775 19 384 128 
L 384 978 
Q 719 816 1070 734 
Q 1422 653 1784 653 
Q 2113 653 2278 743 
Q 2444 834 2444 1013 
Q 2444 1163 2330 1236 
Q 2216 1309 1875 1350 
L 1678 1375 
Q 931 1469 631 1722 
Q 331 1975 331 2491 
Q 331 3047 712 3315 
Q 1094 3584 1881 3584 
Q 2191 3584 2531 3537 
Q 2872 3491 3272 3391 
z
" transform="scale(0.015625)"/>
     <path id="DejaVuSans-Bold-2b" d="M 3053 4013 
L 3053 2375 
L 4684 2375 
L 4684 1638 
L 3053 1638 
L 3053 0 
L 2309 0 
L 2309 1638 
L 678 1638 
L 678 2375 
L 2309 2375 
L 2309 4013 
L 3053 4013 
z
" transform="scale(0.015625)"/>
     <path id="DejaVuSans-Bold-45" d="M 588 4666 
L 3834 4666 
L 3834 3756 
L 1791 3756 
L 1791 2888 
L 3713 2888 
L 3713 1978 
L 1791 1978 
L 1791 909 
L 3903 909 
L 3903 0 
L 588 0 
L 588 4666 
z
" transform="scale(0.015625)"/>
     <path id="DejaVuSans-Bold-6e" d="M 4056 2131 
L 4056 0 
L 2931 0 
L 2931 347 
L 2931 1631 
Q 2931 2084 2911 2256 
Q 2891 2428 2841 2509 
Q 2775 2619 2662 2680 
Q 2550 2741 2406 2741 
Q 2056 2741 1856 2470 
Q 1656 2200 1656 1722 
L 1656 0 
L 538 0 
L 538 3500 
L 1656 3500 
L 1656 2988 
Q 1909 3294 2193 3439 
Q 2478 3584 2822 3584 
Q 3428 3584 3742 3212 
Q 4056 2841 4056 2131 
z
" transform="scale(0.015625)"/>
     <path id="DejaVuSans-Bold-70" d="M 1656 506 
L 1656 -1331 
L 538 -1331 
L 538 3500 
L 1656 3500 
L 1656 2988 
Q 1888 3294 2169 3439 
Q 2450 3584 2816 3584 
Q 3463 3584 3878 3070 
Q 4294 2556 4294 1747 
Q 4294 938 3878 423 
Q 3463 -91 2816 -91 
Q 2450 -91 2169 54 
Q 1888 200 1656 506 
z
M 2400 2772 
Q 2041 2772 1848 2508 
Q 1656 2244 1656 1747 
Q 1656 1250 1848 986 
Q 2041 722 2400 722 
Q 2759 722 2948 984 
Q 3138 1247 3138 1747 
Q 3138 2247 2948 2509 
Q 2759 2772 2400 2772 
z
" transform="scale(0.015625)"/>
     <path id="DejaVuSans-Bold-79" d="M 78 3500 
L 1197 3500 
L 2138 1125 
L 2938 3500 
L 4056 3500 
L 2584 -331 
Q 2363 -916 2067 -1148 
Q 1772 -1381 1288 -1381 
L 641 -1381 
L 641 -647 
L 991 -647 
Q 1275 -647 1404 -556 
Q 1534 -466 1606 -231 
L 1638 -134 
L 78 3500 
z
" transform="scale(0.015625)"/>
     <path id="DejaVuSans-Bold-29" d="M 513 -844 
Q 913 -100 1113 609 
Q 1313 1319 1313 2009 
Q 1313 2700 1113 3408 
Q 913 4116 513 4856 
L 1441 4856 
Q 1916 4091 2145 3389 
Q 2375 2688 2375 2003 
Q 2375 1319 2147 623 
Q 1919 -72 1441 -844 
L 513 -844 
z
" transform="scale(0.015625)"/>
    </defs>
    <use xlink:href="#DejaVuSans-Bold-43"/>
    <use xlink:href="#DejaVuSans-Bold-61" transform="translate(73.388672 0)"/>
    <use xlink:href="#DejaVuSans-Bold-72" transform="translate(140.869141 0)"/>
    <use xlink:href="#DejaVuSans-Bold-74" transform="translate(190.185547 0)"/>
    <use xlink:href="#DejaVuSans-Bold-50" transform="translate(237.988281 0)"/>
    <use xlink:href="#DejaVuSans-Bold-6f" transform="translate(311.279297 0)"/>
    <use xlink:href="#DejaVuSans-Bold-6c" transform="translate(379.980469 0)"/>
    <use xlink:href="#DejaVuSans-Bold-65" transform="translate(414.257812 0)"/>
    <use xlink:href="#DejaVuSans-Bold-2d" transform="translate(482.080078 0)"/>
    <use xlink:href="#DejaVuSans-Bold-76" transform="translate(523.583984 0)"/>
    <use xlink:href="#DejaVuSans-Bold-31" transform="translate(588.769531 0)"/>
    <use xlink:href="#DejaVuSans-Bold-20" transform="translate(658.349609 0)"/>
    <use xlink:href="#DejaVuSans-Bold-7c" transform="translate(693.164062 0)"/>
    <use xlink:href="#DejaVuSans-Bold-20" transform="translate(729.6875 0)"/>
    <use xlink:href="#DejaVuSans-Bold-47" transform="translate(764.501953 0)"/>
    <use xlink:href="#DejaVuSans-Bold-4e" transform="translate(846.582031 0)"/>
    <use xlink:href="#DejaVuSans-Bold-4e" transform="translate(930.273438 0)"/>
    <use xlink:href="#DejaVuSans-Bold-2d" transform="translate(1013.964844 0)"/>
    <use xlink:href="#DejaVuSans-Bold-4e" transform="translate(1055.46875 0)"/>
    <use xlink:href="#DejaVuSans-Bold-65" transform="translate(1139.160156 0)"/>
    <use xlink:href="#DejaVuSans-Bold-74" transform="translate(1206.982422 0)"/>
    <use xlink:href="#DejaVuSans-Bold-20" transform="translate(1254.785156 0)"/>
    <use xlink:href="#DejaVuSans-Bold-28" transform="translate(1289.599609 0)"/>
    <use xlink:href="#DejaVuSans-Bold-4e" transform="translate(1335.302734 0)"/>
    <use xlink:href="#DejaVuSans-Bold-6f" transform="translate(1418.994141 0)"/>
    <use xlink:href="#DejaVuSans-Bold-69" transform="translate(1487.695312 0)"/>
    <use xlink:href="#DejaVuSans-Bold-73" transform="translate(1521.972656 0)"/>
    <use xlink:href="#DejaVuSans-Bold-65" transform="translate(1581.494141 0)"/>
    <use xlink:href="#DejaVuSans-Bold-20" transform="translate(1649.316406 0)"/>
    <use xlink:href="#DejaVuSans-Bold-2b" transform="translate(1684.130859 0)"/>
    <use xlink:href="#DejaVuSans-Bold-20" transform="translate(1767.919922 0)"/>
    <use xlink:href="#DejaVuSans-Bold-45" transform="translate(1802.734375 0)"/>
    <use xlink:href="#DejaVuSans-Bold-6e" transform="translate(1871.044922 0)"/>
    <use xlink:href="#DejaVuSans-Bold-74" transform="translate(1942.236328 0)"/>
    <use xlink:href="#DejaVuSans-Bold-72" transform="translate(1990.039062 0)"/>
    <use xlink:href="#DejaVuSans-Bold-6f" transform="translate(2039.355469 0)"/>
    <use xlink:href="#DejaVuSans-Bold-70" transform="translate(2108.056641 0)"/>
    <use xlink:href="#DejaVuSans-Bold-79" transform="translate(2179.638672 0)"/>
    <use xlink:href="#DejaVuSans-Bold-29" transform="translate(2244.824219 0)"/>
   </g>
  </g>
 </g>
 <defs>
  <clipPath id="p70d27b6476">
   <rect x="44.44" y="39.6" width="579.361429" height="360.92"/>
  </clipPath>
 </defs>
</svg>
