<?xml version="1.0" encoding="utf-8" standalone="no"?>
<!DOCTYPE svg PUBLIC "-//W3C//DTD SVG 1.1//EN"
  "http://www.w3.org/Graphics/SVG/1.1/DTD/svg11.dtd">
<svg xmlns:xlink="http://www.w3.org/1999/xlink" width="648pt" height="432pt" viewBox="0 0 648 432" xmlns="http://www.w3.org/2000/svg" version="1.1">
 <metadata>
  <rdf:RDF xmlns:dc="http://purl.org/dc/elements/1.1/" xmlns:cc="http://creativecommons.org/ns#" xmlns:rdf="http://www.w3.org/1999/02/22-rdf-syntax-ns#">
   <cc:Work>
    <dc:type rdf:resource="http://purl.org/dc/dcmitype/StillImage"/>
    <dc:date>2025-07-28T00:59:35.620156</dc:date>
    <dc:format>image/svg+xml</dc:format>
    <dc:creator>
     <cc:Agent>
      <dc:title>Matplotlib v3.10.0, https://matplotlib.org/</dc:title>
     </cc:Agent>
    </dc:creator>
   </cc:Work>
  </rdf:RDF>
 </metadata>
 <defs>
  <style type="text/css">*{stroke-linejoin: round; stroke-linecap: butt}</style>
 </defs>
 <g id="figure_1">
  <g id="patch_1">
   <path d="M 0 432 
L 648 432 
L 648 0 
L 0 0 
z
" style="fill: #ffffff"/>
  </g>
  <g id="axes_1">
   <g id="patch_2">
    <path d="M 59.24 390.04 
L 630.02765 390.04 
L 630.02765 57.0062 
L 59.24 57.0062 
z
" style="fill: #eaeaf2"/>
   </g>
   <g id="matplotlib.axis_1">
    <g id="xtick_1">
     <g id="line2d_1">
      <path d="M 59.242787 390.04 
L 59.242787 57.0062 
" clip-path="url(#p9084f58ffb)" style="fill: none; stroke: #ffffff; stroke-width: 0.8; stroke-linecap: round"/>
     </g>
     <g id="text_1">
      <!-- 0 -->
      <g style="fill: #262626" transform="translate(56.061537 404.638438) scale(0.1 -0.1)">
       <defs>
        <path id="DejaVuSans-30" d="M 2034 4250 
Q 1547 4250 1301 3770 
Q 1056 3291 1056 2328 
Q 1056 1369 1301 889 
Q 1547 409 2034 409 
Q 2525 409 2770 889 
Q 3016 1369 3016 2328 
Q 3016 3291 2770 3770 
Q 2525 4250 2034 4250 
z
M 2034 4750 
Q 2819 4750 3233 4129 
Q 3647 3509 3647 2328 
Q 3647 1150 3233 529 
Q 2819 -91 2034 -91 
Q 1250 -91 836 529 
Q 422 1150 422 2328 
Q 422 3509 836 4129 
Q 1250 4750 2034 4750 
z
" transform="scale(0.015625)"/>
       </defs>
       <use xlink:href="#DejaVuSans-30"/>
      </g>
     </g>
    </g>
    <g id="xtick_2">
     <g id="line2d_2">
      <path d="M 152.143515 390.04 
L 152.143515 57.0062 
" clip-path="url(#p9084f58ffb)" style="fill: none; stroke: #ffffff; stroke-width: 0.8; stroke-linecap: round"/>
     </g>
     <g id="text_2">
      <!-- 100000 -->
      <g style="fill: #262626" transform="translate(133.056015 404.638438) scale(0.1 -0.1)">
       <defs>
        <path id="DejaVuSans-31" d="M 794 531 
L 1825 531 
L 1825 4091 
L 703 3866 
L 703 4441 
L 1819 4666 
L 2450 4666 
L 2450 531 
L 3481 531 
L 3481 0 
L 794 0 
L 794 531 
z
" transform="scale(0.015625)"/>
       </defs>
       <use xlink:href="#DejaVuSans-31"/>
       <use xlink:href="#DejaVuSans-30" transform="translate(63.623047 0)"/>
       <use xlink:href="#DejaVuSans-30" transform="translate(127.246094 0)"/>
       <use xlink:href="#DejaVuSans-30" transform="translate(190.869141 0)"/>
       <use xlink:href="#DejaVuSans-30" transform="translate(254.492188 0)"/>
       <use xlink:href="#DejaVuSans-30" transform="translate(318.115234 0)"/>
      </g>
     </g>
    </g>
    <g id="xtick_3">
     <g id="line2d_3">
      <path d="M 245.044244 390.04 
L 245.044244 57.0062 
" clip-path="url(#p9084f58ffb)" style="fill: none; stroke: #ffffff; stroke-width: 0.8; stroke-linecap: round"/>
     </g>
     <g id="text_3">
      <!-- 200000 -->
      <g style="fill: #262626" transform="translate(225.956744 404.638438) scale(0.1 -0.1)">
       <defs>
        <path id="DejaVuSans-32" d="M 1228 531 
L 3431 531 
L 3431 0 
L 469 0 
L 469 531 
Q 828 903 1448 1529 
Q 2069 2156 2228 2338 
Q 2531 2678 2651 2914 
Q 2772 3150 2772 3378 
Q 2772 3750 2511 3984 
Q 2250 4219 1831 4219 
Q 1534 4219 1204 4116 
Q 875 4013 500 3803 
L 500 4441 
Q 881 4594 1212 4672 
Q 1544 4750 1819 4750 
Q 2544 4750 2975 4387 
Q 3406 4025 3406 3419 
Q 3406 3131 3298 2873 
Q 3191 2616 2906 2266 
Q 2828 2175 2409 1742 
Q 1991 1309 1228 531 
z
" transform="scale(0.015625)"/>
       </defs>
       <use xlink:href="#DejaVuSans-32"/>
       <use xlink:href="#DejaVuSans-30" transform="translate(63.623047 0)"/>
       <use xlink:href="#DejaVuSans-30" transform="translate(127.246094 0)"/>
       <use xlink:href="#DejaVuSans-30" transform="translate(190.869141 0)"/>
       <use xlink:href="#DejaVuSans-30" transform="translate(254.492188 0)"/>
       <use xlink:href="#DejaVuSans-30" transform="translate(318.115234 0)"/>
      </g>
     </g>
    </g>
    <g id="xtick_4">
     <g id="line2d_4">
      <path d="M 337.944972 390.04 
L 337.944972 57.0062 
" clip-path="url(#p9084f58ffb)" style="fill: none; stroke: #ffffff; stroke-width: 0.8; stroke-linecap: round"/>
     </g>
     <g id="text_4">
      <!-- 300000 -->
      <g style="fill: #262626" transform="translate(318.857472 404.638438) scale(0.1 -0.1)">
       <defs>
        <path id="DejaVuSans-33" d="M 2597 2516 
Q 3050 2419 3304 2112 
Q 3559 1806 3559 1356 
Q 3559 666 3084 287 
Q 2609 -91 1734 -91 
Q 1441 -91 1130 -33 
Q 819 25 488 141 
L 488 750 
Q 750 597 1062 519 
Q 1375 441 1716 441 
Q 2309 441 2620 675 
Q 2931 909 2931 1356 
Q 2931 1769 2642 2001 
Q 2353 2234 1838 2234 
L 1294 2234 
L 1294 2753 
L 1863 2753 
Q 2328 2753 2575 2939 
Q 2822 3125 2822 3475 
Q 2822 3834 2567 4026 
Q 2313 4219 1838 4219 
Q 1578 4219 1281 4162 
Q 984 4106 628 3988 
L 628 4550 
Q 988 4650 1302 4700 
Q 1616 4750 1894 4750 
Q 2613 4750 3031 4423 
Q 3450 4097 3450 3541 
Q 3450 3153 3228 2886 
Q 3006 2619 2597 2516 
z
" transform="scale(0.015625)"/>
       </defs>
       <use xlink:href="#DejaVuSans-33"/>
       <use xlink:href="#DejaVuSans-30" transform="translate(63.623047 0)"/>
       <use xlink:href="#DejaVuSans-30" transform="translate(127.246094 0)"/>
       <use xlink:href="#DejaVuSans-30" transform="translate(190.869141 0)"/>
       <use xlink:href="#DejaVuSans-30" transform="translate(254.492188 0)"/>
       <use xlink:href="#DejaVuSans-30" transform="translate(318.115234 0)"/>
      </g>
     </g>
    </g>
    <g id="xtick_5">
     <g id="line2d_5">
      <path d="M 430.845701 390.04 
L 430.845701 57.0062 
" clip-path="url(#p9084f58ffb)" style="fill: none; stroke: #ffffff; stroke-width: 0.8; stroke-linecap: round"/>
     </g>
     <g id="text_5">
      <!-- 400000 -->
      <g style="fill: #262626" transform="translate(411.758201 404.638438) scale(0.1 -0.1)">
       <defs>
        <path id="DejaVuSans-34" d="M 2419 4116 
L 825 1625 
L 2419 1625 
L 2419 4116 
z
M 2253 4666 
L 3047 4666 
L 3047 1625 
L 3713 1625 
L 3713 1100 
L 3047 1100 
L 3047 0 
L 2419 0 
L 2419 1100 
L 313 1100 
L 313 1709 
L 2253 4666 
z
" transform="scale(0.015625)"/>
       </defs>
       <use xlink:href="#DejaVuSans-34"/>
       <use xlink:href="#DejaVuSans-30" transform="translate(63.623047 0)"/>
       <use xlink:href="#DejaVuSans-30" transform="translate(127.246094 0)"/>
       <use xlink:href="#DejaVuSans-30" transform="translate(190.869141 0)"/>
       <use xlink:href="#DejaVuSans-30" transform="translate(254.492188 0)"/>
       <use xlink:href="#DejaVuSans-30" transform="translate(318.115234 0)"/>
      </g>
     </g>
    </g>
    <g id="xtick_6">
     <g id="line2d_6">
      <path d="M 523.746429 390.04 
L 523.746429 57.0062 
" clip-path="url(#p9084f58ffb)" style="fill: none; stroke: #ffffff; stroke-width: 0.8; stroke-linecap: round"/>
     </g>
     <g id="text_6">
      <!-- 500000 -->
      <g style="fill: #262626" transform="translate(504.658929 404.638438) scale(0.1 -0.1)">
       <defs>
        <path id="DejaVuSans-35" d="M 691 4666 
L 3169 4666 
L 3169 4134 
L 1269 4134 
L 1269 2991 
Q 1406 3038 1543 3061 
Q 1681 3084 1819 3084 
Q 2600 3084 3056 2656 
Q 3513 2228 3513 1497 
Q 3513 744 3044 326 
Q 2575 -91 1722 -91 
Q 1428 -91 1123 -41 
Q 819 9 494 109 
L 494 744 
Q 775 591 1075 516 
Q 1375 441 1709 441 
Q 2250 441 2565 725 
Q 2881 1009 2881 1497 
Q 2881 1984 2565 2268 
Q 2250 2553 1709 2553 
Q 1456 2553 1204 2497 
Q 953 2441 691 2322 
L 691 4666 
z
" transform="scale(0.015625)"/>
       </defs>
       <use xlink:href="#DejaVuSans-35"/>
       <use xlink:href="#DejaVuSans-30" transform="translate(63.623047 0)"/>
       <use xlink:href="#DejaVuSans-30" transform="translate(127.246094 0)"/>
       <use xlink:href="#DejaVuSans-30" transform="translate(190.869141 0)"/>
       <use xlink:href="#DejaVuSans-30" transform="translate(254.492188 0)"/>
       <use xlink:href="#DejaVuSans-30" transform="translate(318.115234 0)"/>
      </g>
     </g>
    </g>
    <g id="xtick_7">
     <g id="line2d_7">
      <path d="M 616.647158 390.04 
L 616.647158 57.0062 
" clip-path="url(#p9084f58ffb)" style="fill: none; stroke: #ffffff; stroke-width: 0.8; stroke-linecap: round"/>
     </g>
     <g id="text_7">
      <!-- 600000 -->
      <g style="fill: #262626" transform="translate(597.559658 404.638438) scale(0.1 -0.1)">
       <defs>
        <path id="DejaVuSans-36" d="M 2113 2584 
Q 1688 2584 1439 2293 
Q 1191 2003 1191 1497 
Q 1191 994 1439 701 
Q 1688 409 2113 409 
Q 2538 409 2786 701 
Q 3034 994 3034 1497 
Q 3034 2003 2786 2293 
Q 2538 2584 2113 2584 
z
M 3366 4563 
L 3366 3988 
Q 3128 4100 2886 4159 
Q 2644 4219 2406 4219 
Q 1781 4219 1451 3797 
Q 1122 3375 1075 2522 
Q 1259 2794 1537 2939 
Q 1816 3084 2150 3084 
Q 2853 3084 3261 2657 
Q 3669 2231 3669 1497 
Q 3669 778 3244 343 
Q 2819 -91 2113 -91 
Q 1303 -91 875 529 
Q 447 1150 447 2328 
Q 447 3434 972 4092 
Q 1497 4750 2381 4750 
Q 2619 4750 2861 4703 
Q 3103 4656 3366 4563 
z
" transform="scale(0.015625)"/>
       </defs>
       <use xlink:href="#DejaVuSans-36"/>
       <use xlink:href="#DejaVuSans-30" transform="translate(63.623047 0)"/>
       <use xlink:href="#DejaVuSans-30" transform="translate(127.246094 0)"/>
       <use xlink:href="#DejaVuSans-30" transform="translate(190.869141 0)"/>
       <use xlink:href="#DejaVuSans-30" transform="translate(254.492188 0)"/>
       <use xlink:href="#DejaVuSans-30" transform="translate(318.115234 0)"/>
      </g>
     </g>
    </g>
    <g id="text_8">
     <!-- Steps -->
     <g style="fill: #262626" transform="translate(330.643981 418.316562) scale(0.1 -0.1)">
      <defs>
       <path id="DejaVuSans-53" d="M 3425 4513 
L 3425 3897 
Q 3066 4069 2747 4153 
Q 2428 4238 2131 4238 
Q 1616 4238 1336 4038 
Q 1056 3838 1056 3469 
Q 1056 3159 1242 3001 
Q 1428 2844 1947 2747 
L 2328 2669 
Q 3034 2534 3370 2195 
Q 3706 1856 3706 1288 
Q 3706 609 3251 259 
Q 2797 -91 1919 -91 
Q 1588 -91 1214 -16 
Q 841 59 441 206 
L 441 856 
Q 825 641 1194 531 
Q 1563 422 1919 422 
Q 2459 422 2753 634 
Q 3047 847 3047 1241 
Q 3047 1584 2836 1778 
Q 2625 1972 2144 2069 
L 1759 2144 
Q 1053 2284 737 2584 
Q 422 2884 422 3419 
Q 422 4038 858 4394 
Q 1294 4750 2059 4750 
Q 2388 4750 2728 4690 
Q 3069 4631 3425 4513 
z
" transform="scale(0.015625)"/>
       <path id="DejaVuSans-74" d="M 1172 4494 
L 1172 3500 
L 2356 3500 
L 2356 3053 
L 1172 3053 
L 1172 1153 
Q 1172 725 1289 603 
Q 1406 481 1766 481 
L 2356 481 
L 2356 0 
L 1766 0 
Q 1100 0 847 248 
Q 594 497 594 1153 
L 594 3053 
L 172 3053 
L 172 3500 
L 594 3500 
L 594 4494 
L 1172 4494 
z
" transform="scale(0.015625)"/>
       <path id="DejaVuSans-65" d="M 3597 1894 
L 3597 1613 
L 953 1613 
Q 991 1019 1311 708 
Q 1631 397 2203 397 
Q 2534 397 2845 478 
Q 3156 559 3463 722 
L 3463 178 
Q 3153 47 2828 -22 
Q 2503 -91 2169 -91 
Q 1331 -91 842 396 
Q 353 884 353 1716 
Q 353 2575 817 3079 
Q 1281 3584 2069 3584 
Q 2775 3584 3186 3129 
Q 3597 2675 3597 1894 
z
M 3022 2063 
Q 3016 2534 2758 2815 
Q 2500 3097 2075 3097 
Q 1594 3097 1305 2825 
Q 1016 2553 972 2059 
L 3022 2063 
z
" transform="scale(0.015625)"/>
       <path id="DejaVuSans-70" d="M 1159 525 
L 1159 -1331 
L 581 -1331 
L 581 3500 
L 1159 3500 
L 1159 2969 
Q 1341 3281 1617 3432 
Q 1894 3584 2278 3584 
Q 2916 3584 3314 3078 
Q 3713 2572 3713 1747 
Q 3713 922 3314 415 
Q 2916 -91 2278 -91 
Q 1894 -91 1617 61 
Q 1341 213 1159 525 
z
M 3116 1747 
Q 3116 2381 2855 2742 
Q 2594 3103 2138 3103 
Q 1681 3103 1420 2742 
Q 1159 2381 1159 1747 
Q 1159 1113 1420 752 
Q 1681 391 2138 391 
Q 2594 391 2855 752 
Q 3116 1113 3116 1747 
z
" transform="scale(0.015625)"/>
       <path id="DejaVuSans-73" d="M 2834 3397 
L 2834 2853 
Q 2591 2978 2328 3040 
Q 2066 3103 1784 3103 
Q 1356 3103 1142 2972 
Q 928 2841 928 2578 
Q 928 2378 1081 2264 
Q 1234 2150 1697 2047 
L 1894 2003 
Q 2506 1872 2764 1633 
Q 3022 1394 3022 966 
Q 3022 478 2636 193 
Q 2250 -91 1575 -91 
Q 1294 -91 989 -36 
Q 684 19 347 128 
L 347 722 
Q 666 556 975 473 
Q 1284 391 1588 391 
Q 1994 391 2212 530 
Q 2431 669 2431 922 
Q 2431 1156 2273 1281 
Q 2116 1406 1581 1522 
L 1381 1569 
Q 847 1681 609 1914 
Q 372 2147 372 2553 
Q 372 3047 722 3315 
Q 1072 3584 1716 3584 
Q 2034 3584 2315 3537 
Q 2597 3491 2834 3397 
z
" transform="scale(0.015625)"/>
      </defs>
      <use xlink:href="#DejaVuSans-53"/>
      <use xlink:href="#DejaVuSans-74" transform="translate(63.476562 0)"/>
      <use xlink:href="#DejaVuSans-65" transform="translate(102.685547 0)"/>
      <use xlink:href="#DejaVuSans-70" transform="translate(164.208984 0)"/>
      <use xlink:href="#DejaVuSans-73" transform="translate(227.685547 0)"/>
     </g>
    </g>
   </g>
   <g id="matplotlib.axis_2">
    <g id="ytick_1">
     <g id="line2d_8">
      <path d="M 59.24 383.509925 
L 630.02765 383.509925 
" clip-path="url(#p9084f58ffb)" style="fill: none; stroke: #ffffff; stroke-width: 0.8; stroke-linecap: round"/>
     </g>
     <g id="text_9">
      <!-- −500 -->
      <g style="fill: #262626" transform="translate(24.772813 387.309144) scale(0.1 -0.1)">
       <defs>
        <path id="DejaVuSans-2212" d="M 678 2272 
L 4684 2272 
L 4684 1741 
L 678 1741 
L 678 2272 
z
" transform="scale(0.015625)"/>
       </defs>
       <use xlink:href="#DejaVuSans-2212"/>
       <use xlink:href="#DejaVuSans-35" transform="translate(83.789062 0)"/>
       <use xlink:href="#DejaVuSans-30" transform="translate(147.412109 0)"/>
       <use xlink:href="#DejaVuSans-30" transform="translate(211.035156 0)"/>
      </g>
     </g>
    </g>
    <g id="ytick_2">
     <g id="line2d_9">
      <path d="M 59.24 318.20918 
L 630.02765 318.20918 
" clip-path="url(#p9084f58ffb)" style="fill: none; stroke: #ffffff; stroke-width: 0.8; stroke-linecap: round"/>
     </g>
     <g id="text_10">
      <!-- −400 -->
      <g style="fill: #262626" transform="translate(24.772813 322.008399) scale(0.1 -0.1)">
       <use xlink:href="#DejaVuSans-2212"/>
       <use xlink:href="#DejaVuSans-34" transform="translate(83.789062 0)"/>
       <use xlink:href="#DejaVuSans-30" transform="translate(147.412109 0)"/>
       <use xlink:href="#DejaVuSans-30" transform="translate(211.035156 0)"/>
      </g>
     </g>
    </g>
    <g id="ytick_3">
     <g id="line2d_10">
      <path d="M 59.24 252.908435 
L 630.02765 252.908435 
" clip-path="url(#p9084f58ffb)" style="fill: none; stroke: #ffffff; stroke-width: 0.8; stroke-linecap: round"/>
     </g>
     <g id="text_11">
      <!-- −300 -->
      <g style="fill: #262626" transform="translate(24.772813 256.707654) scale(0.1 -0.1)">
       <use xlink:href="#DejaVuSans-2212"/>
       <use xlink:href="#DejaVuSans-33" transform="translate(83.789062 0)"/>
       <use xlink:href="#DejaVuSans-30" transform="translate(147.412109 0)"/>
       <use xlink:href="#DejaVuSans-30" transform="translate(211.035156 0)"/>
      </g>
     </g>
    </g>
    <g id="ytick_4">
     <g id="line2d_11">
      <path d="M 59.24 187.60769 
L 630.02765 187.60769 
" clip-path="url(#p9084f58ffb)" style="fill: none; stroke: #ffffff; stroke-width: 0.8; stroke-linecap: round"/>
     </g>
     <g id="text_12">
      <!-- −200 -->
      <g style="fill: #262626" transform="translate(24.772813 191.406909) scale(0.1 -0.1)">
       <use xlink:href="#DejaVuSans-2212"/>
       <use xlink:href="#DejaVuSans-32" transform="translate(83.789062 0)"/>
       <use xlink:href="#DejaVuSans-30" transform="translate(147.412109 0)"/>
       <use xlink:href="#DejaVuSans-30" transform="translate(211.035156 0)"/>
      </g>
     </g>
    </g>
    <g id="ytick_5">
     <g id="line2d_12">
      <path d="M 59.24 122.306945 
L 630.02765 122.306945 
" clip-path="url(#p9084f58ffb)" style="fill: none; stroke: #ffffff; stroke-width: 0.8; stroke-linecap: round"/>
     </g>
     <g id="text_13">
      <!-- −100 -->
      <g style="fill: #262626" transform="translate(24.772813 126.106164) scale(0.1 -0.1)">
       <use xlink:href="#DejaVuSans-2212"/>
       <use xlink:href="#DejaVuSans-31" transform="translate(83.789062 0)"/>
       <use xlink:href="#DejaVuSans-30" transform="translate(147.412109 0)"/>
       <use xlink:href="#DejaVuSans-30" transform="translate(211.035156 0)"/>
      </g>
     </g>
    </g>
    <g id="ytick_6">
     <g id="line2d_13">
      <path d="M 59.24 57.0062 
L 630.02765 57.0062 
" clip-path="url(#p9084f58ffb)" style="fill: none; stroke: #ffffff; stroke-width: 0.8; stroke-linecap: round"/>
     </g>
     <g id="text_14">
      <!-- 0 -->
      <g style="fill: #262626" transform="translate(45.8775 60.805419) scale(0.1 -0.1)">
       <use xlink:href="#DejaVuSans-30"/>
      </g>
     </g>
    </g>
    <g id="text_15">
     <!-- Reward -->
     <g style="fill: #262626" transform="translate(18.693125 242.144194) rotate(-90) scale(0.1 -0.1)">
      <defs>
       <path id="DejaVuSans-52" d="M 2841 2188 
Q 3044 2119 3236 1894 
Q 3428 1669 3622 1275 
L 4263 0 
L 3584 0 
L 2988 1197 
Q 2756 1666 2539 1819 
Q 2322 1972 1947 1972 
L 1259 1972 
L 1259 0 
L 628 0 
L 628 4666 
L 2053 4666 
Q 2853 4666 3247 4331 
Q 3641 3997 3641 3322 
Q 3641 2881 3436 2590 
Q 3231 2300 2841 2188 
z
M 1259 4147 
L 1259 2491 
L 2053 2491 
Q 2509 2491 2742 2702 
Q 2975 2913 2975 3322 
Q 2975 3731 2742 3939 
Q 2509 4147 2053 4147 
L 1259 4147 
z
" transform="scale(0.015625)"/>
       <path id="DejaVuSans-77" d="M 269 3500 
L 844 3500 
L 1563 769 
L 2278 3500 
L 2956 3500 
L 3675 769 
L 4391 3500 
L 4966 3500 
L 4050 0 
L 3372 0 
L 2619 2869 
L 1863 0 
L 1184 0 
L 269 3500 
z
" transform="scale(0.015625)"/>
       <path id="DejaVuSans-61" d="M 2194 1759 
Q 1497 1759 1228 1600 
Q 959 1441 959 1056 
Q 959 750 1161 570 
Q 1363 391 1709 391 
Q 2188 391 2477 730 
Q 2766 1069 2766 1631 
L 2766 1759 
L 2194 1759 
z
M 3341 1997 
L 3341 0 
L 2766 0 
L 2766 531 
Q 2569 213 2275 61 
Q 1981 -91 1556 -91 
Q 1019 -91 701 211 
Q 384 513 384 1019 
Q 384 1609 779 1909 
Q 1175 2209 1959 2209 
L 2766 2209 
L 2766 2266 
Q 2766 2663 2505 2880 
Q 2244 3097 1772 3097 
Q 1472 3097 1187 3025 
Q 903 2953 641 2809 
L 641 3341 
Q 956 3463 1253 3523 
Q 1550 3584 1831 3584 
Q 2591 3584 2966 3190 
Q 3341 2797 3341 1997 
z
" transform="scale(0.015625)"/>
       <path id="DejaVuSans-72" d="M 2631 2963 
Q 2534 3019 2420 3045 
Q 2306 3072 2169 3072 
Q 1681 3072 1420 2755 
Q 1159 2438 1159 1844 
L 1159 0 
L 581 0 
L 581 3500 
L 1159 3500 
L 1159 2956 
Q 1341 3275 1631 3429 
Q 1922 3584 2338 3584 
Q 2397 3584 2469 3576 
Q 2541 3569 2628 3553 
L 2631 2963 
z
" transform="scale(0.015625)"/>
       <path id="DejaVuSans-64" d="M 2906 2969 
L 2906 4863 
L 3481 4863 
L 3481 0 
L 2906 0 
L 2906 525 
Q 2725 213 2448 61 
Q 2172 -91 1784 -91 
Q 1150 -91 751 415 
Q 353 922 353 1747 
Q 353 2572 751 3078 
Q 1150 3584 1784 3584 
Q 2172 3584 2448 3432 
Q 2725 3281 2906 2969 
z
M 947 1747 
Q 947 1113 1208 752 
Q 1469 391 1925 391 
Q 2381 391 2643 752 
Q 2906 1113 2906 1747 
Q 2906 2381 2643 2742 
Q 2381 3103 1925 3103 
Q 1469 3103 1208 2742 
Q 947 2381 947 1747 
z
" transform="scale(0.015625)"/>
      </defs>
      <use xlink:href="#DejaVuSans-52"/>
      <use xlink:href="#DejaVuSans-65" transform="translate(64.982422 0)"/>
      <use xlink:href="#DejaVuSans-77" transform="translate(126.505859 0)"/>
      <use xlink:href="#DejaVuSans-61" transform="translate(208.292969 0)"/>
      <use xlink:href="#DejaVuSans-72" transform="translate(269.572266 0)"/>
      <use xlink:href="#DejaVuSans-64" transform="translate(308.935547 0)"/>
     </g>
    </g>
   </g>
   <g id="FillBetweenPolyCollection_1">
    <path d="M 59.242787 335.424755 
L 59.242787 394.732825 
L 64.950608 396.334532 
L 70.658429 389.349347 
L 76.366249 401.695022 
L 82.07407 406.799422 
L 87.781891 378.95495 
L 93.489712 380.25926 
L 99.197532 367.577673 
L 104.905353 373.912068 
L 110.613174 366.412315 
L 116.320995 362.366969 
L 122.028815 360.315324 
L 127.736636 357.827649 
L 133.444457 356.426288 
L 139.152278 357.813437 
L 144.860098 369.4397 
L 150.567919 370.492367 
L 156.27574 369.638767 
L 161.983561 367.44795 
L 167.691381 354.729591 
L 173.399202 354.145274 
L 179.107023 354.057437 
L 184.814844 353.679739 
L 190.522664 353.475757 
L 196.230485 354.116767 
L 201.938306 344.942364 
L 207.646127 339.516345 
L 213.353947 349.355286 
L 219.061768 340.454531 
L 224.769589 333.659015 
L 230.47741 310.712348 
L 236.18523 299.898377 
L 241.893051 295.269999 
L 247.600872 284.343111 
L 253.308693 279.798979 
L 259.016513 279.303727 
L 264.724334 279.376276 
L 270.432155 276.919798 
L 276.139976 276.061283 
L 281.847797 275.403581 
L 287.555617 274.641497 
L 293.263438 276.489038 
L 298.971259 275.80679 
L 304.67908 273.888295 
L 310.3869 276.447217 
L 316.094721 273.992588 
L 321.802542 276.804618 
L 327.510363 274.613876 
L 333.218183 275.772006 
L 338.926004 276.232754 
L 344.633825 274.617649 
L 350.341646 272.986536 
L 356.049466 276.316362 
L 361.757287 273.82714 
L 367.465108 273.446873 
L 373.172929 273.253882 
L 378.880749 273.860521 
L 384.58857 274.691297 
L 390.296391 274.156731 
L 396.004212 274.418263 
L 401.712032 274.476101 
L 407.419853 276.326084 
L 413.127674 274.025377 
L 418.835495 276.449938 
L 424.543315 273.211249 
L 430.251136 274.710268 
L 435.958957 274.703816 
L 441.666778 275.40879 
L 447.374598 274.37952 
L 453.082419 273.445469 
L 458.79024 273.10753 
L 464.498061 275.297066 
L 470.205881 274.35526 
L 475.913702 274.358431 
L 481.621523 274.051944 
L 487.329344 275.322268 
L 493.037165 276.385031 
L 498.744985 274.771252 
L 504.452806 274.751447 
L 510.160627 277.850295 
L 515.868448 273.121234 
L 521.576268 275.410288 
L 527.284089 273.110711 
L 532.99191 273.1953 
L 538.699731 272.776858 
L 544.407551 274.197586 
L 550.115372 273.662197 
L 555.823193 274.342392 
L 561.531014 273.35728 
L 567.238834 274.838965 
L 572.946655 274.726983 
L 578.654476 274.357981 
L 584.362297 274.113446 
L 590.070117 273.998795 
L 595.777938 273.156089 
L 601.485759 275.353908 
L 607.19358 272.814501 
L 612.9014 275.926917 
L 618.609221 274.003253 
L 624.317042 273.441748 
L 624.317042 52.993976 
L 624.317042 52.993976 
L 618.609221 54.9792 
L 612.9014 59.291757 
L 607.19358 51.400998 
L 601.485759 58.917905 
L 595.777938 52.398075 
L 590.070117 54.820406 
L 584.362297 55.260812 
L 578.654476 56.028438 
L 572.946655 57.063402 
L 567.238834 56.03721 
L 561.531014 52.849891 
L 555.823193 55.848124 
L 550.115372 53.850989 
L 544.407551 55.470525 
L 538.699731 51.210088 
L 532.99191 52.489465 
L 527.284089 52.18225 
L 521.576268 58.992127 
L 515.868448 52.269678 
L 510.160627 63.408698 
L 504.452806 55.537021 
L 498.744985 57.117084 
L 493.037165 60.270259 
L 487.329344 58.557741 
L 481.621523 55.126411 
L 475.913702 55.603533 
L 470.205881 55.802607 
L 464.498061 57.636082 
L 458.79024 52.218081 
L 453.082419 53.251458 
L 447.374598 55.941598 
L 441.666778 58.60182 
L 435.958957 56.727415 
L 430.251136 57.014816 
L 424.543315 52.604117 
L 418.835495 62.131724 
L 413.127674 54.989726 
L 407.419853 61.243416 
L 401.712032 56.367423 
L 396.004212 56.196709 
L 390.296391 55.086925 
L 384.58857 56.282829 
L 378.880749 54.534225 
L 373.172929 52.692087 
L 367.465108 53.250054 
L 361.757287 54.437005 
L 356.049466 61.710244 
L 350.341646 51.881969 
L 344.633825 56.552379 
L 338.926004 61.369397 
L 333.218183 59.054864 
L 327.510363 56.784704 
L 321.802542 62.364751 
L 316.094721 54.957214 
L 310.3869 62.101795 
L 304.67908 54.44115 
L 298.971259 60.130192 
L 293.263438 62.027323 
L 287.555617 56.855034 
L 281.847797 59.064134 
L 276.139976 60.85521 
L 270.432155 63.163781 
L 264.724334 69.620855 
L 259.016513 65.84066 
L 253.308693 66.422871 
L 247.600872 73.012516 
L 241.893051 78.90057 
L 236.18523 82.793939 
L 230.47741 86.639985 
L 224.769589 87.364838 
L 219.061768 85.891333 
L 213.353947 85.642926 
L 207.646127 93.849349 
L 201.938306 101.254926 
L 196.230485 92.407027 
L 190.522664 86.158808 
L 184.814844 87.652646 
L 179.107023 91.356244 
L 173.399202 91.692862 
L 167.691381 95.90815 
L 161.983561 131.34909 
L 156.27574 127.329853 
L 150.567919 132.777774 
L 144.860098 132.981532 
L 139.152278 119.205805 
L 133.444457 108.83882 
L 127.736636 118.96304 
L 122.028815 127.707094 
L 116.320995 138.94415 
L 110.613174 145.608126 
L 104.905353 162.041096 
L 99.197532 161.127108 
L 93.489712 181.781552 
L 87.781891 190.562798 
L 82.07407 244.115704 
L 76.366249 271.977414 
L 70.658429 318.181525 
L 64.950608 300.029913 
L 59.242787 335.424755 
z
" clip-path="url(#p9084f58ffb)" style="fill: #0000ff; fill-opacity: 0.1"/>
   </g>
   <g id="line2d_14">
    <path d="M 59.242787 365.07879 
L 64.950608 348.182222 
L 70.658429 353.765436 
L 76.366249 336.836218 
L 82.07407 325.457563 
L 87.781891 284.758874 
L 93.489712 281.020406 
L 99.197532 264.352391 
L 104.905353 267.976582 
L 110.613174 256.010221 
L 116.320995 250.65556 
L 122.028815 244.011209 
L 127.736636 238.395345 
L 133.444457 232.632554 
L 139.152278 238.509621 
L 144.860098 251.210616 
L 150.567919 251.635071 
L 156.27574 248.48431 
L 161.983561 249.39852 
L 167.691381 225.31887 
L 173.399202 222.919068 
L 179.107023 222.706841 
L 184.814844 220.666192 
L 190.522664 219.817283 
L 196.230485 223.261897 
L 201.938306 223.098645 
L 207.646127 216.682847 
L 213.353947 217.499106 
L 219.061768 213.172932 
L 224.769589 210.511927 
L 230.47741 198.676166 
L 236.18523 191.346158 
L 241.893051 187.085284 
L 247.600872 178.677813 
L 253.308693 173.110925 
L 259.016513 172.572194 
L 264.724334 174.498566 
L 270.432155 170.04179 
L 276.139976 168.458247 
L 281.847797 167.233858 
L 287.555617 165.748266 
L 293.263438 169.258181 
L 298.971259 167.968491 
L 304.67908 164.164723 
L 310.3869 169.274506 
L 316.094721 164.474901 
L 321.802542 169.584685 
L 327.510363 165.69929 
L 333.218183 167.413435 
L 338.926004 168.801076 
L 344.633825 165.585014 
L 350.341646 162.434253 
L 356.049466 169.013303 
L 361.757287 164.132072 
L 367.465108 163.348463 
L 373.172929 162.972984 
L 378.880749 164.197373 
L 384.58857 165.487063 
L 390.296391 164.621828 
L 396.004212 165.307486 
L 401.712032 165.421762 
L 407.419853 168.78475 
L 413.127674 164.507552 
L 418.835495 169.290831 
L 424.543315 162.907683 
L 430.251136 165.862542 
L 435.958957 165.715615 
L 441.666778 167.005305 
L 447.374598 165.160559 
L 453.082419 163.348463 
L 458.79024 162.662806 
L 464.498061 166.466574 
L 470.205881 165.078933 
L 475.913702 164.980982 
L 481.621523 164.589178 
L 487.329344 166.940004 
L 493.037165 168.327645 
L 498.744985 165.944168 
L 504.452806 165.144234 
L 510.160627 170.629496 
L 515.868448 162.695456 
L 521.576268 167.201207 
L 527.284089 162.64648 
L 532.99191 162.842383 
L 538.699731 161.993473 
L 544.407551 164.834055 
L 550.115372 163.756593 
L 555.823193 165.095258 
L 561.531014 163.103586 
L 567.238834 165.438087 
L 572.946655 165.895192 
L 578.654476 165.193209 
L 584.362297 164.687129 
L 590.070117 164.409601 
L 595.777938 162.777082 
L 601.485759 167.135907 
L 607.19358 162.107749 
L 612.9014 167.609337 
L 618.609221 164.491226 
L 624.317042 163.217862 
" clip-path="url(#p9084f58ffb)" style="fill: none; stroke: #0000ff; stroke-width: 1.5; stroke-linecap: round"/>
   </g>
   <g id="line2d_15">
    <path d="M 59.242787 367.837747 
L 64.950608 333.799733 
L 70.658429 327.759414 
L 76.366249 336.003633 
L 82.07407 338.125908 
L 87.781891 216.013514 
L 93.489712 202.381984 
L 99.197532 203.769625 
L 104.905353 176.18006 
L 110.613174 178.139082 
L 116.320995 172.343641 
L 122.028815 184.179401 
L 127.736636 158.71211 
L 133.444457 152.426914 
L 139.152278 145.815213 
L 144.860098 250.378031 
L 150.567919 255.602091 
L 156.27574 250.051528 
L 161.983561 240.256416 
L 167.691381 134.387583 
L 173.399202 123.449708 
L 179.107023 111.940452 
L 184.814844 118.878656 
L 190.522664 110.634437 
L 196.230485 117.899145 
L 201.938306 117.654267 
L 207.646127 112.430207 
L 213.353947 108.430537 
L 219.061768 112.675085 
L 224.769589 109.818178 
L 230.47741 112.430207 
L 236.18523 113.817848 
L 241.893051 109.899804 
L 247.600872 111.613948 
L 253.308693 110.307933 
L 259.016513 105.736881 
L 264.724334 110.144681 
L 270.432155 117.980771 
L 276.139976 112.838337 
L 281.847797 108.593789 
L 287.555617 108.75704 
L 293.263438 113.409719 
L 298.971259 108.920292 
L 304.67908 105.573629 
L 310.3869 117.327763 
L 316.094721 110.063055 
L 321.802542 108.512163 
L 327.510363 111.695574 
L 333.218183 128.83702 
L 338.926004 113.083215 
L 344.633825 109.328422 
L 350.341646 104.838996 
L 356.049466 110.063055 
L 361.757287 109.001918 
L 367.465108 111.042567 
L 373.172929 110.389559 
L 378.880749 107.532652 
L 384.58857 122.715075 
L 390.296391 117.491015 
L 396.004212 113.083215 
L 401.712032 112.266956 
L 407.419853 108.920292 
L 413.127674 107.532652 
L 418.835495 116.756382 
L 424.543315 106.55314 
L 430.251136 110.389559 
L 435.958957 111.858826 
L 441.666778 114.960611 
L 447.374598 111.042567 
L 453.082419 105.900133 
L 458.79024 110.797689 
L 464.498061 108.838666 
L 470.205881 109.981429 
L 475.913702 119.613289 
L 481.621523 108.675415 
L 487.329344 109.736552 
L 493.037165 113.001589 
L 498.744985 107.532652 
L 504.452806 129.081897 
L 510.160627 106.96127 
L 515.868448 109.491674 
L 521.576268 112.430207 
L 527.284089 112.511833 
L 532.99191 110.716063 
L 538.699731 110.307933 
L 544.407551 108.920292 
L 550.115372 110.144681 
L 555.823193 108.104033 
L 561.531014 109.16517 
L 567.238834 127.939134 
L 572.946655 108.267285 
L 578.654476 109.001918 
L 584.362297 111.695574 
L 590.070117 110.389559 
L 595.777938 109.246796 
L 601.485759 108.512163 
L 607.19358 107.3694 
L 612.9014 130.63279 
L 618.609221 108.75704 
L 624.317042 109.001918 
" clip-path="url(#p9084f58ffb)" style="fill: none; stroke: #008000; stroke-opacity: 0.2; stroke-linecap: round"/>
   </g>
   <g id="line2d_16">
    <path d="M 59.242787 383.509925 
L 64.950608 380.489766 
L 70.658429 383.509925 
L 76.366249 383.509925 
L 82.07407 372.490425 
L 87.781891 375.837088 
L 93.489712 383.509925 
L 99.197532 383.509925 
L 104.905353 383.509925 
L 110.613174 383.509925 
L 116.320995 383.509925 
L 122.028815 383.509925 
L 127.736636 383.509925 
L 133.444457 383.509925 
L 139.152278 383.509925 
L 144.860098 383.509925 
L 150.567919 383.509925 
L 156.27574 383.509925 
L 161.983561 383.509925 
L 167.691381 383.509925 
L 173.399202 383.509925 
L 179.107023 383.509925 
L 184.814844 383.509925 
L 190.522664 383.509925 
L 196.230485 383.509925 
L 201.938306 383.509925 
L 207.646127 383.509925 
L 213.353947 383.509925 
L 219.061768 383.509925 
L 224.769589 383.509925 
L 230.47741 383.509925 
L 236.18523 383.509925 
L 241.893051 383.509925 
L 247.600872 383.509925 
L 253.308693 383.509925 
L 259.016513 383.509925 
L 264.724334 383.509925 
L 270.432155 383.509925 
L 276.139976 383.509925 
L 281.847797 383.509925 
L 287.555617 383.509925 
L 293.263438 383.509925 
L 298.971259 383.509925 
L 304.67908 383.509925 
L 310.3869 383.509925 
L 316.094721 383.509925 
L 321.802542 383.509925 
L 327.510363 383.509925 
L 333.218183 383.509925 
L 338.926004 383.509925 
L 344.633825 383.509925 
L 350.341646 383.509925 
L 356.049466 383.509925 
L 361.757287 383.509925 
L 367.465108 383.509925 
L 373.172929 383.509925 
L 378.880749 383.509925 
L 384.58857 383.509925 
L 390.296391 383.509925 
L 396.004212 383.509925 
L 401.712032 383.509925 
L 407.419853 383.509925 
L 413.127674 383.509925 
L 418.835495 383.509925 
L 424.543315 383.509925 
L 430.251136 383.509925 
L 435.958957 383.509925 
L 441.666778 383.509925 
L 447.374598 383.509925 
L 453.082419 383.509925 
L 458.79024 383.509925 
L 464.498061 383.509925 
L 470.205881 383.509925 
L 475.913702 383.509925 
L 481.621523 383.509925 
L 487.329344 383.509925 
L 493.037165 383.509925 
L 498.744985 383.509925 
L 504.452806 383.509925 
L 510.160627 383.509925 
L 515.868448 383.509925 
L 521.576268 383.509925 
L 527.284089 383.509925 
L 532.99191 383.509925 
L 538.699731 383.509925 
L 544.407551 383.509925 
L 550.115372 383.509925 
L 555.823193 383.509925 
L 561.531014 383.509925 
L 567.238834 383.509925 
L 572.946655 383.509925 
L 578.654476 383.509925 
L 584.362297 383.509925 
L 590.070117 383.509925 
L 595.777938 383.509925 
L 601.485759 383.509925 
L 607.19358 383.509925 
L 612.9014 383.509925 
L 618.609221 383.509925 
L 624.317042 383.509925 
" clip-path="url(#p9084f58ffb)" style="fill: none; stroke: #008000; stroke-opacity: 0.2; stroke-linecap: round"/>
   </g>
   <g id="line2d_17">
    <path d="M 59.242787 383.509925 
L 64.950608 383.509925 
L 70.658429 377.79611 
L 76.366249 369.307013 
L 82.07407 367.592869 
L 87.781891 308.658946 
L 93.489712 301.720742 
L 99.197532 227.522771 
L 104.905353 273.47817 
L 110.613174 225.237245 
L 116.320995 198.219061 
L 122.028815 158.059103 
L 127.736636 151.69228 
L 133.444457 129.653279 
L 139.152278 162.875033 
L 144.860098 126.306616 
L 150.567919 118.633778 
L 156.27574 117.00126 
L 161.983561 125.40873 
L 167.691381 111.124193 
L 173.399202 117.082885 
L 179.107023 112.103704 
L 184.814844 108.185659 
L 190.522664 109.083544 
L 196.230485 113.083215 
L 201.938306 144.427573 
L 207.646127 115.531993 
L 213.353947 108.430537 
L 219.061768 106.308263 
L 224.769589 109.16517 
L 230.47741 111.205818 
L 236.18523 108.838666 
L 241.893051 109.491674 
L 247.600872 110.389559 
L 253.308693 108.185659 
L 259.016513 115.042237 
L 264.724334 120.919304 
L 270.432155 107.777529 
L 276.139976 108.430537 
L 281.847797 115.287115 
L 287.555617 110.552811 
L 293.263438 112.593459 
L 298.971259 119.776541 
L 304.67908 108.512163 
L 310.3869 109.981429 
L 316.094721 109.491674 
L 321.802542 112.756711 
L 327.510363 108.75704 
L 333.218183 104.920622 
L 338.926004 121.735564 
L 344.633825 106.389888 
L 350.341646 109.899804 
L 356.049466 117.817519 
L 361.757287 108.022407 
L 367.465108 105.083874 
L 373.172929 105.247125 
L 378.880749 110.144681 
L 384.58857 109.981429 
L 390.296391 103.532981 
L 396.004212 108.75704 
L 401.712032 112.593459 
L 407.419853 124.184342 
L 413.127674 110.634437 
L 418.835495 118.960282 
L 424.543315 107.451026 
L 430.251136 109.818178 
L 435.958957 105.492003 
L 441.666778 104.022736 
L 447.374598 105.002248 
L 453.082419 107.532652 
L 458.79024 104.430866 
L 464.498061 106.389888 
L 470.205881 117.00126 
L 475.913702 104.838996 
L 481.621523 109.654926 
L 487.329344 112.103704 
L 493.037165 132.673438 
L 498.744985 110.471185 
L 504.452806 104.267614 
L 510.160627 109.654926 
L 515.868448 104.267614 
L 521.576268 117.899145 
L 527.284089 105.655255 
L 532.99191 105.410377 
L 538.699731 107.777529 
L 544.407551 109.654926 
L 550.115372 104.594118 
L 555.823193 112.593459 
L 561.531014 102.879973 
L 567.238834 106.96127 
L 572.946655 112.103704 
L 578.654476 110.552811 
L 584.362297 111.940452 
L 590.070117 105.818507 
L 595.777938 105.655255 
L 601.485759 114.470856 
L 607.19358 105.492003 
L 612.9014 110.716063 
L 618.609221 110.879315 
L 624.317042 104.430866 
" clip-path="url(#p9084f58ffb)" style="fill: none; stroke: #008000; stroke-opacity: 0.2; stroke-linecap: round"/>
   </g>
   <g id="line2d_18">
    <path d="M 59.242787 307.026428 
L 64.950608 259.601762 
L 70.658429 296.251805 
L 76.366249 211.850592 
L 82.07407 165.568689 
L 87.781891 139.774894 
L 93.489712 133.979453 
L 99.197532 123.449708 
L 104.905353 123.20483 
L 110.613174 109.654926 
L 116.320995 115.695245 
L 122.028815 110.797689 
L 127.736636 114.552482 
L 133.444457 114.062726 
L 139.152278 116.838008 
L 144.860098 112.348581 
L 150.567919 116.919634 
L 156.27574 108.348911 
L 161.983561 114.307604 
L 167.691381 114.062726 
L 173.399202 107.042896 
L 179.107023 122.470197 
L 184.814844 109.246796 
L 190.522664 112.348581 
L 196.230485 118.307274 
L 201.938306 110.634437 
L 207.646127 122.470197 
L 213.353947 112.756711 
L 219.061768 109.654926 
L 224.769589 113.083215 
L 230.47741 111.124193 
L 236.18523 109.491674 
L 241.893051 106.716392 
L 247.600872 110.063055 
L 253.308693 108.675415 
L 259.016513 107.614277 
L 264.724334 120.266297 
L 270.432155 115.776871 
L 276.139976 120.674426 
L 281.847797 112.675085 
L 287.555617 113.654596 
L 293.263438 111.940452 
L 298.971259 116.429878 
L 304.67908 107.695903 
L 310.3869 120.511175 
L 316.094721 109.5733 
L 321.802542 113.001589 
L 327.510363 111.36907 
L 333.218183 110.634437 
L 338.926004 109.328422 
L 344.633825 110.471185 
L 350.341646 105.736881 
L 356.049466 113.654596 
L 361.757287 108.675415 
L 367.465108 107.695903 
L 373.172929 108.348911 
L 378.880749 108.675415 
L 384.58857 108.267285 
L 390.296391 108.75704 
L 396.004212 111.287444 
L 401.712032 108.430537 
L 407.419853 107.859155 
L 413.127674 108.022407 
L 418.835495 109.5733 
L 424.543315 108.593789 
L 430.251136 115.858497 
L 435.958957 108.75704 
L 441.666778 121.653938 
L 447.374598 111.695574 
L 453.082419 108.104033 
L 458.79024 108.512163 
L 464.498061 105.655255 
L 470.205881 105.818507 
L 475.913702 108.838666 
L 481.621523 110.226307 
L 487.329344 108.022407 
L 493.037165 102.14534 
L 498.744985 117.082885 
L 504.452806 102.635096 
L 510.160627 142.305298 
L 515.868448 106.471514 
L 521.576268 107.3694 
L 527.284089 104.920622 
L 532.99191 105.492003 
L 538.699731 103.451355 
L 544.407551 107.532652 
L 550.115372 108.267285 
L 555.823193 106.55314 
L 561.531014 113.164841 
L 567.238834 102.390218 
L 572.946655 110.307933 
L 578.654476 112.675085 
L 584.362297 106.96127 
L 590.070117 107.777529 
L 595.777938 105.818507 
L 601.485759 112.838337 
L 607.19358 108.512163 
L 612.9014 107.124522 
L 618.609221 110.226307 
L 624.317042 115.368741 
" clip-path="url(#p9084f58ffb)" style="fill: none; stroke: #008000; stroke-opacity: 0.2; stroke-linecap: round"/>
   </g>
   <g id="line2d_19">
    <path d="M 59.242787 383.509925 
L 64.950608 383.509925 
L 70.658429 383.509925 
L 76.366249 383.509925 
L 82.07407 383.509925 
L 87.781891 383.509925 
L 93.489712 383.509925 
L 99.197532 383.509925 
L 104.905353 383.509925 
L 110.613174 383.509925 
L 116.320995 383.509925 
L 122.028815 383.509925 
L 127.736636 383.509925 
L 133.444457 383.509925 
L 139.152278 383.509925 
L 144.860098 383.509925 
L 150.567919 383.509925 
L 156.27574 383.509925 
L 161.983561 383.509925 
L 167.691381 383.509925 
L 173.399202 383.509925 
L 179.107023 383.509925 
L 184.814844 383.509925 
L 190.522664 383.509925 
L 196.230485 383.509925 
L 201.938306 359.267024 
L 207.646127 349.471912 
L 213.353947 374.367821 
L 219.061768 353.716461 
L 224.769589 336.983145 
L 230.47741 275.110689 
L 236.18523 241.072675 
L 241.893051 225.808626 
L 247.600872 177.812578 
L 253.308693 154.875692 
L 259.016513 150.957647 
L 264.724334 137.65262 
L 270.432155 125.163853 
L 276.139976 116.838008 
L 281.847797 116.103374 
L 287.555617 112.266956 
L 293.263438 124.837349 
L 298.971259 111.205818 
L 304.67908 115.531993 
L 310.3869 115.042237 
L 316.094721 109.736552 
L 321.802542 130.143035 
L 327.510363 113.164841 
L 333.218183 109.16517 
L 338.926004 116.348252 
L 344.633825 118.225649 
L 350.341646 108.185659 
L 356.049466 120.021419 
L 361.757287 111.450696 
L 367.465108 109.410048 
L 373.172929 107.3694 
L 378.880749 111.124193 
L 384.58857 102.961599 
L 390.296391 109.818178 
L 396.004212 109.899804 
L 401.712032 110.307933 
L 407.419853 119.450038 
L 413.127674 112.838337 
L 418.835495 117.654267 
L 424.543315 108.430537 
L 430.251136 109.736552 
L 435.958957 118.960282 
L 441.666778 110.879315 
L 447.374598 114.552482 
L 453.082419 111.695574 
L 458.79024 106.063385 
L 464.498061 127.939134 
L 470.205881 109.083544 
L 475.913702 108.104033 
L 481.621523 110.879315 
L 487.329344 121.327434 
L 493.037165 110.307933 
L 498.744985 111.124193 
L 504.452806 106.226637 
L 510.160627 110.716063 
L 515.868448 109.736552 
L 521.576268 114.797359 
L 527.284089 106.634766 
L 532.99191 109.083544 
L 538.699731 104.920622 
L 544.407551 114.552482 
L 550.115372 112.266956 
L 555.823193 114.715733 
L 561.531014 106.798018 
L 567.238834 106.389888 
L 572.946655 115.287115 
L 578.654476 110.226307 
L 584.362297 109.328422 
L 590.070117 114.552482 
L 595.777938 109.654926 
L 601.485759 116.348252 
L 607.19358 105.655255 
L 612.9014 106.063385 
L 618.609221 109.083544 
L 624.317042 103.777859 
" clip-path="url(#p9084f58ffb)" style="fill: none; stroke: #008000; stroke-opacity: 0.2; stroke-linecap: round"/>
   </g>
   <g id="line2d_20">
    <path d="M 59.242787 57.0062 
L 64.950608 75.286366 
L 70.658429 87.006546 
L 76.366249 93.353451 
L 82.07407 97.782433 
L 87.781891 136.759773 
L 93.489712 146.788422 
L 99.197532 154.552671 
L 104.905353 188.27969 
L 110.613174 189.463318 
L 116.320995 199.898507 
L 122.028815 206.647386 
L 127.736636 199.965143 
L 133.444457 213.928327 
L 139.152278 231.95363 
L 144.860098 260.396353 
L 150.567919 274.147019 
L 156.27574 276.871683 
L 161.983561 277.388517 
L 167.691381 277.418367 
L 173.399202 289.948915 
L 179.107023 294.173952 
L 184.814844 304.544938 
L 190.522664 306.978268 
L 196.230485 313.612235 
L 201.938306 319.952507 
L 207.646127 320.228213 
L 213.353947 316.731531 
L 219.061768 320.698581 
L 224.769589 324.666044 
L 230.47741 334.745425 
L 236.18523 331.940236 
L 241.893051 331.766066 
L 247.600872 319.902043 
L 253.308693 318.47904 
L 259.016513 324.790195 
L 264.724334 326.828487 
L 270.432155 330.648823 
L 276.139976 329.50299 
L 281.847797 333.055116 
L 287.555617 331.481607 
L 293.263438 332.56833 
L 298.971259 334.763001 
L 304.67908 332.609109 
L 310.3869 336.894008 
L 316.094721 331.745419 
L 321.802542 340.543696 
L 327.510363 341.623684 
L 333.218183 347.448315 
L 338.926004 353.972712 
L 344.633825 351.276986 
L 350.341646 351.068499 
L 356.049466 352.948018 
L 361.757287 350.050426 
L 367.465108 350.206657 
L 373.172929 352.064599 
L 378.880749 352.889848 
L 384.58857 358.682749 
L 390.296391 364.149097 
L 396.004212 362.998772 
L 401.712032 354.421512 
L 407.419853 355.836281 
L 413.127674 354.751488 
L 418.835495 355.726051 
L 424.543315 353.114164 
L 430.251136 352.640327 
L 435.958957 355.434007 
L 441.666778 357.36789 
L 447.374598 363.80032 
L 453.082419 365.316771 
L 458.79024 368.673451 
L 464.498061 372.180412 
L 470.205881 365.839317 
L 475.913702 366.742664 
L 481.621523 368.979627 
L 487.329344 368.136817 
L 493.037165 363.482564 
L 498.744985 364.129453 
L 504.452806 363.127714 
L 510.160627 368.805626 
L 515.868448 372.053877 
L 521.576268 372.602457 
L 527.284089 368.290068 
L 532.99191 371.296233 
L 538.699731 368.422031 
L 544.407551 370.793938 
L 550.115372 377.134453 
L 555.823193 378.843528 
L 561.531014 382.206517 
L 567.238834 379.94558 
L 572.946655 383.509925 
L 578.654476 382.699641 
L 584.362297 382.020084 
L 590.070117 377.75751 
L 595.777938 373.632009 
L 601.485759 370.067939 
L 607.19358 368.621433 
L 612.9014 374.002777 
L 618.609221 370.30041 
L 624.317042 378.488026 
" clip-path="url(#p9084f58ffb)" style="fill: none; stroke: #7b3ab8; stroke-linecap: round"/>
   </g>
   <g id="patch_3">
    <path d="M 59.24 390.04 
L 59.24 57.0062 
" style="fill: none; stroke: #ffffff; stroke-width: 0.8; stroke-linejoin: miter; stroke-linecap: square"/>
   </g>
   <g id="patch_4">
    <path d="M 630.02765 390.04 
L 630.02765 57.0062 
" style="fill: none; stroke: #ffffff; stroke-width: 0.8; stroke-linejoin: miter; stroke-linecap: square"/>
   </g>
   <g id="patch_5">
    <path d="M 59.24 390.04 
L 630.02765 390.04 
" style="fill: none; stroke: #ffffff; stroke-width: 0.8; stroke-linejoin: miter; stroke-linecap: square"/>
   </g>
   <g id="patch_6">
    <path d="M 59.24 57.0062 
L 630.02765 57.0062 
" style="fill: none; stroke: #ffffff; stroke-width: 0.8; stroke-linejoin: miter; stroke-linecap: square"/>
   </g>
   <g id="legend_1">
    <g id="line2d_21">
     <path d="M 93.101665 41.274494 
L 101.431665 41.274494 
L 109.761665 41.274494 
" style="fill: none; stroke: #0000ff; stroke-width: 1.5; stroke-linecap: round"/>
    </g>
    <g id="text_16">
     <!-- Mean Reward -->
     <g style="fill: #262626" transform="translate(116.425665 44.189994) scale(0.0833 -0.0833)">
      <defs>
       <path id="DejaVuSans-4d" d="M 628 4666 
L 1569 4666 
L 2759 1491 
L 3956 4666 
L 4897 4666 
L 4897 0 
L 4281 0 
L 4281 4097 
L 3078 897 
L 2444 897 
L 1241 4097 
L 1241 0 
L 628 0 
L 628 4666 
z
" transform="scale(0.015625)"/>
       <path id="DejaVuSans-6e" d="M 3513 2113 
L 3513 0 
L 2938 0 
L 2938 2094 
Q 2938 2591 2744 2837 
Q 2550 3084 2163 3084 
Q 1697 3084 1428 2787 
Q 1159 2491 1159 1978 
L 1159 0 
L 581 0 
L 581 3500 
L 1159 3500 
L 1159 2956 
Q 1366 3272 1645 3428 
Q 1925 3584 2291 3584 
Q 2894 3584 3203 3211 
Q 3513 2838 3513 2113 
z
" transform="scale(0.015625)"/>
       <path id="DejaVuSans-20" transform="scale(0.015625)"/>
      </defs>
      <use xlink:href="#DejaVuSans-4d"/>
      <use xlink:href="#DejaVuSans-65" transform="translate(86.279297 0)"/>
      <use xlink:href="#DejaVuSans-61" transform="translate(147.802734 0)"/>
      <use xlink:href="#DejaVuSans-6e" transform="translate(209.082031 0)"/>
      <use xlink:href="#DejaVuSans-20" transform="translate(272.460938 0)"/>
      <use xlink:href="#DejaVuSans-52" transform="translate(304.248047 0)"/>
      <use xlink:href="#DejaVuSans-65" transform="translate(369.230469 0)"/>
      <use xlink:href="#DejaVuSans-77" transform="translate(430.753906 0)"/>
      <use xlink:href="#DejaVuSans-61" transform="translate(512.541016 0)"/>
      <use xlink:href="#DejaVuSans-72" transform="translate(573.820312 0)"/>
      <use xlink:href="#DejaVuSans-64" transform="translate(613.183594 0)"/>
     </g>
    </g>
    <g id="line2d_22">
     <path d="M 189.452433 41.274494 
L 197.782433 41.274494 
L 206.112433 41.274494 
" style="fill: none; stroke: #008000; stroke-opacity: 0.2; stroke-linecap: round"/>
    </g>
    <g id="text_17">
     <!-- Reward (individual runs) -->
     <g style="fill: #262626" transform="translate(212.776433 44.189994) scale(0.0833 -0.0833)">
      <defs>
       <path id="DejaVuSans-28" d="M 1984 4856 
Q 1566 4138 1362 3434 
Q 1159 2731 1159 2009 
Q 1159 1288 1364 580 
Q 1569 -128 1984 -844 
L 1484 -844 
Q 1016 -109 783 600 
Q 550 1309 550 2009 
Q 550 2706 781 3412 
Q 1013 4119 1484 4856 
L 1984 4856 
z
" transform="scale(0.015625)"/>
       <path id="DejaVuSans-69" d="M 603 3500 
L 1178 3500 
L 1178 0 
L 603 0 
L 603 3500 
z
M 603 4863 
L 1178 4863 
L 1178 4134 
L 603 4134 
L 603 4863 
z
" transform="scale(0.015625)"/>
       <path id="DejaVuSans-76" d="M 191 3500 
L 800 3500 
L 1894 563 
L 2988 3500 
L 3597 3500 
L 2284 0 
L 1503 0 
L 191 3500 
z
" transform="scale(0.015625)"/>
       <path id="DejaVuSans-75" d="M 544 1381 
L 544 3500 
L 1119 3500 
L 1119 1403 
Q 1119 906 1312 657 
Q 1506 409 1894 409 
Q 2359 409 2629 706 
Q 2900 1003 2900 1516 
L 2900 3500 
L 3475 3500 
L 3475 0 
L 2900 0 
L 2900 538 
Q 2691 219 2414 64 
Q 2138 -91 1772 -91 
Q 1169 -91 856 284 
Q 544 659 544 1381 
z
M 1991 3584 
L 1991 3584 
z
" transform="scale(0.015625)"/>
       <path id="DejaVuSans-6c" d="M 603 4863 
L 1178 4863 
L 1178 0 
L 603 0 
L 603 4863 
z
" transform="scale(0.015625)"/>
       <path id="DejaVuSans-29" d="M 513 4856 
L 1013 4856 
Q 1481 4119 1714 3412 
Q 1947 2706 1947 2009 
Q 1947 1309 1714 600 
Q 1481 -109 1013 -844 
L 513 -844 
Q 928 -128 1133 580 
Q 1338 1288 1338 2009 
Q 1338 2731 1133 3434 
Q 928 4138 513 4856 
z
" transform="scale(0.015625)"/>
      </defs>
      <use xlink:href="#DejaVuSans-52"/>
      <use xlink:href="#DejaVuSans-65" transform="translate(64.982422 0)"/>
      <use xlink:href="#DejaVuSans-77" transform="translate(126.505859 0)"/>
      <use xlink:href="#DejaVuSans-61" transform="translate(208.292969 0)"/>
      <use xlink:href="#DejaVuSans-72" transform="translate(269.572266 0)"/>
      <use xlink:href="#DejaVuSans-64" transform="translate(308.935547 0)"/>
      <use xlink:href="#DejaVuSans-20" transform="translate(372.412109 0)"/>
      <use xlink:href="#DejaVuSans-28" transform="translate(404.199219 0)"/>
      <use xlink:href="#DejaVuSans-69" transform="translate(443.212891 0)"/>
      <use xlink:href="#DejaVuSans-6e" transform="translate(470.996094 0)"/>
      <use xlink:href="#DejaVuSans-64" transform="translate(534.375 0)"/>
      <use xlink:href="#DejaVuSans-69" transform="translate(597.851562 0)"/>
      <use xlink:href="#DejaVuSans-76" transform="translate(625.634766 0)"/>
      <use xlink:href="#DejaVuSans-69" transform="translate(684.814453 0)"/>
      <use xlink:href="#DejaVuSans-64" transform="translate(712.597656 0)"/>
      <use xlink:href="#DejaVuSans-75" transform="translate(776.074219 0)"/>
      <use xlink:href="#DejaVuSans-61" transform="translate(839.453125 0)"/>
      <use xlink:href="#DejaVuSans-6c" transform="translate(900.732422 0)"/>
      <use xlink:href="#DejaVuSans-20" transform="translate(928.515625 0)"/>
      <use xlink:href="#DejaVuSans-72" transform="translate(960.302734 0)"/>
      <use xlink:href="#DejaVuSans-75" transform="translate(1001.416016 0)"/>
      <use xlink:href="#DejaVuSans-6e" transform="translate(1064.794922 0)"/>
      <use xlink:href="#DejaVuSans-73" transform="translate(1128.173828 0)"/>
      <use xlink:href="#DejaVuSans-29" transform="translate(1180.273438 0)"/>
     </g>
    </g>
    <g id="line2d_23">
     <path d="M 331.002561 41.274494 
L 339.332561 41.274494 
L 347.662561 41.274494 
" style="fill: none; stroke: #7b3ab8; stroke-linecap: round"/>
    </g>
    <g id="text_18">
     <!-- Entropy (normalized) -->
     <g style="fill: #262626" transform="translate(354.326561 44.189994) scale(0.0833 -0.0833)">
      <defs>
       <path id="DejaVuSans-45" d="M 628 4666 
L 3578 4666 
L 3578 4134 
L 1259 4134 
L 1259 2753 
L 3481 2753 
L 3481 2222 
L 1259 2222 
L 1259 531 
L 3634 531 
L 3634 0 
L 628 0 
L 628 4666 
z
" transform="scale(0.015625)"/>
       <path id="DejaVuSans-6f" d="M 1959 3097 
Q 1497 3097 1228 2736 
Q 959 2375 959 1747 
Q 959 1119 1226 758 
Q 1494 397 1959 397 
Q 2419 397 2687 759 
Q 2956 1122 2956 1747 
Q 2956 2369 2687 2733 
Q 2419 3097 1959 3097 
z
M 1959 3584 
Q 2709 3584 3137 3096 
Q 3566 2609 3566 1747 
Q 3566 888 3137 398 
Q 2709 -91 1959 -91 
Q 1206 -91 779 398 
Q 353 888 353 1747 
Q 353 2609 779 3096 
Q 1206 3584 1959 3584 
z
" transform="scale(0.015625)"/>
       <path id="DejaVuSans-79" d="M 2059 -325 
Q 1816 -950 1584 -1140 
Q 1353 -1331 966 -1331 
L 506 -1331 
L 506 -850 
L 844 -850 
Q 1081 -850 1212 -737 
Q 1344 -625 1503 -206 
L 1606 56 
L 191 3500 
L 800 3500 
L 1894 763 
L 2988 3500 
L 3597 3500 
L 2059 -325 
z
" transform="scale(0.015625)"/>
       <path id="DejaVuSans-6d" d="M 3328 2828 
Q 3544 3216 3844 3400 
Q 4144 3584 4550 3584 
Q 5097 3584 5394 3201 
Q 5691 2819 5691 2113 
L 5691 0 
L 5113 0 
L 5113 2094 
Q 5113 2597 4934 2840 
Q 4756 3084 4391 3084 
Q 3944 3084 3684 2787 
Q 3425 2491 3425 1978 
L 3425 0 
L 2847 0 
L 2847 2094 
Q 2847 2600 2669 2842 
Q 2491 3084 2119 3084 
Q 1678 3084 1418 2786 
Q 1159 2488 1159 1978 
L 1159 0 
L 581 0 
L 581 3500 
L 1159 3500 
L 1159 2956 
Q 1356 3278 1631 3431 
Q 1906 3584 2284 3584 
Q 2666 3584 2933 3390 
Q 3200 3197 3328 2828 
z
" transform="scale(0.015625)"/>
       <path id="DejaVuSans-7a" d="M 353 3500 
L 3084 3500 
L 3084 2975 
L 922 459 
L 3084 459 
L 3084 0 
L 275 0 
L 275 525 
L 2438 3041 
L 353 3041 
L 353 3500 
z
" transform="scale(0.015625)"/>
      </defs>
      <use xlink:href="#DejaVuSans-45"/>
      <use xlink:href="#DejaVuSans-6e" transform="translate(63.183594 0)"/>
      <use xlink:href="#DejaVuSans-74" transform="translate(126.5625 0)"/>
      <use xlink:href="#DejaVuSans-72" transform="translate(165.771484 0)"/>
      <use xlink:href="#DejaVuSans-6f" transform="translate(204.634766 0)"/>
      <use xlink:href="#DejaVuSans-70" transform="translate(265.816406 0)"/>
      <use xlink:href="#DejaVuSans-79" transform="translate(329.292969 0)"/>
      <use xlink:href="#DejaVuSans-20" transform="translate(388.472656 0)"/>
      <use xlink:href="#DejaVuSans-28" transform="translate(420.259766 0)"/>
      <use xlink:href="#DejaVuSans-6e" transform="translate(459.273438 0)"/>
      <use xlink:href="#DejaVuSans-6f" transform="translate(522.652344 0)"/>
      <use xlink:href="#DejaVuSans-72" transform="translate(583.833984 0)"/>
      <use xlink:href="#DejaVuSans-6d" transform="translate(623.197266 0)"/>
      <use xlink:href="#DejaVuSans-61" transform="translate(720.609375 0)"/>
      <use xlink:href="#DejaVuSans-6c" transform="translate(781.888672 0)"/>
      <use xlink:href="#DejaVuSans-69" transform="translate(809.671875 0)"/>
      <use xlink:href="#DejaVuSans-7a" transform="translate(837.455078 0)"/>
      <use xlink:href="#DejaVuSans-65" transform="translate(889.945312 0)"/>
      <use xlink:href="#DejaVuSans-64" transform="translate(951.46875 0)"/>
      <use xlink:href="#DejaVuSans-29" transform="translate(1014.945312 0)"/>
     </g>
    </g>
    <g id="patch_7">
     <path d="M 458.782158 44.189994 
L 475.442158 44.189994 
L 475.442158 38.358994 
L 458.782158 38.358994 
z
" style="fill: #0000ff; fill-opacity: 0.1"/>
    </g>
    <g id="text_19">
     <!-- Reward Standard Deviation -->
     <g style="fill: #262626" transform="translate(482.106158 44.189994) scale(0.0833 -0.0833)">
      <defs>
       <path id="DejaVuSans-44" d="M 1259 4147 
L 1259 519 
L 2022 519 
Q 2988 519 3436 956 
Q 3884 1394 3884 2338 
Q 3884 3275 3436 3711 
Q 2988 4147 2022 4147 
L 1259 4147 
z
M 628 4666 
L 1925 4666 
Q 3281 4666 3915 4102 
Q 4550 3538 4550 2338 
Q 4550 1131 3912 565 
Q 3275 0 1925 0 
L 628 0 
L 628 4666 
z
" transform="scale(0.015625)"/>
      </defs>
      <use xlink:href="#DejaVuSans-52"/>
      <use xlink:href="#DejaVuSans-65" transform="translate(64.982422 0)"/>
      <use xlink:href="#DejaVuSans-77" transform="translate(126.505859 0)"/>
      <use xlink:href="#DejaVuSans-61" transform="translate(208.292969 0)"/>
      <use xlink:href="#DejaVuSans-72" transform="translate(269.572266 0)"/>
      <use xlink:href="#DejaVuSans-64" transform="translate(308.935547 0)"/>
      <use xlink:href="#DejaVuSans-20" transform="translate(372.412109 0)"/>
      <use xlink:href="#DejaVuSans-53" transform="translate(404.199219 0)"/>
      <use xlink:href="#DejaVuSans-74" transform="translate(467.675781 0)"/>
      <use xlink:href="#DejaVuSans-61" transform="translate(506.884766 0)"/>
      <use xlink:href="#DejaVuSans-6e" transform="translate(568.164062 0)"/>
      <use xlink:href="#DejaVuSans-64" transform="translate(631.542969 0)"/>
      <use xlink:href="#DejaVuSans-61" transform="translate(695.019531 0)"/>
      <use xlink:href="#DejaVuSans-72" transform="translate(756.298828 0)"/>
      <use xlink:href="#DejaVuSans-64" transform="translate(795.662109 0)"/>
      <use xlink:href="#DejaVuSans-20" transform="translate(859.138672 0)"/>
      <use xlink:href="#DejaVuSans-44" transform="translate(890.925781 0)"/>
      <use xlink:href="#DejaVuSans-65" transform="translate(967.927734 0)"/>
      <use xlink:href="#DejaVuSans-76" transform="translate(1029.451172 0)"/>
      <use xlink:href="#DejaVuSans-69" transform="translate(1088.630859 0)"/>
      <use xlink:href="#DejaVuSans-61" transform="translate(1116.414062 0)"/>
      <use xlink:href="#DejaVuSans-74" transform="translate(1177.693359 0)"/>
      <use xlink:href="#DejaVuSans-69" transform="translate(1216.902344 0)"/>
      <use xlink:href="#DejaVuSans-6f" transform="translate(1244.685547 0)"/>
      <use xlink:href="#DejaVuSans-6e" transform="translate(1305.867188 0)"/>
     </g>
    </g>
   </g>
  </g>
  <g id="text_20">
   <!-- Rewards: Acrobot-v1 | CMU-Net (Alignment + Penalty + Margin) -->
   <g style="fill: #262626" transform="translate(107.205938 17.810625) scale(0.12 -0.12)">
    <defs>
     <path id="DejaVuSans-Bold-52" d="M 2297 2597 
Q 2675 2597 2839 2737 
Q 3003 2878 3003 3200 
Q 3003 3519 2839 3656 
Q 2675 3794 2297 3794 
L 1791 3794 
L 1791 2597 
L 2297 2597 
z
M 1791 1766 
L 1791 0 
L 588 0 
L 588 4666 
L 2425 4666 
Q 3347 4666 3776 4356 
Q 4206 4047 4206 3378 
Q 4206 2916 3982 2619 
Q 3759 2322 3309 2181 
Q 3556 2125 3751 1926 
Q 3947 1728 4147 1325 
L 4800 0 
L 3519 0 
L 2950 1159 
Q 2778 1509 2601 1637 
Q 2425 1766 2131 1766 
L 1791 1766 
z
" transform="scale(0.015625)"/>
     <path id="DejaVuSans-Bold-65" d="M 4031 1759 
L 4031 1441 
L 1416 1441 
Q 1456 1047 1700 850 
Q 1944 653 2381 653 
Q 2734 653 3104 758 
Q 3475 863 3866 1075 
L 3866 213 
Q 3469 63 3072 -14 
Q 2675 -91 2278 -91 
Q 1328 -91 801 392 
Q 275 875 275 1747 
Q 275 2603 792 3093 
Q 1309 3584 2216 3584 
Q 3041 3584 3536 3087 
Q 4031 2591 4031 1759 
z
M 2881 2131 
Q 2881 2450 2695 2645 
Q 2509 2841 2209 2841 
Q 1884 2841 1681 2658 
Q 1478 2475 1428 2131 
L 2881 2131 
z
" transform="scale(0.015625)"/>
     <path id="DejaVuSans-Bold-77" d="M 225 3500 
L 1313 3500 
L 1900 1088 
L 2491 3500 
L 3425 3500 
L 4013 1113 
L 4603 3500 
L 5691 3500 
L 4769 0 
L 3547 0 
L 2956 2406 
L 2369 0 
L 1147 0 
L 225 3500 
z
" transform="scale(0.015625)"/>
     <path id="DejaVuSans-Bold-61" d="M 2106 1575 
Q 1756 1575 1579 1456 
Q 1403 1338 1403 1106 
Q 1403 894 1545 773 
Q 1688 653 1941 653 
Q 2256 653 2472 879 
Q 2688 1106 2688 1447 
L 2688 1575 
L 2106 1575 
z
M 3816 1997 
L 3816 0 
L 2688 0 
L 2688 519 
Q 2463 200 2181 54 
Q 1900 -91 1497 -91 
Q 953 -91 614 226 
Q 275 544 275 1050 
Q 275 1666 698 1953 
Q 1122 2241 2028 2241 
L 2688 2241 
L 2688 2328 
Q 2688 2594 2478 2717 
Q 2269 2841 1825 2841 
Q 1466 2841 1156 2769 
Q 847 2697 581 2553 
L 581 3406 
Q 941 3494 1303 3539 
Q 1666 3584 2028 3584 
Q 2975 3584 3395 3211 
Q 3816 2838 3816 1997 
z
" transform="scale(0.015625)"/>
     <path id="DejaVuSans-Bold-72" d="M 3138 2547 
Q 2991 2616 2845 2648 
Q 2700 2681 2553 2681 
Q 2122 2681 1889 2404 
Q 1656 2128 1656 1613 
L 1656 0 
L 538 0 
L 538 3500 
L 1656 3500 
L 1656 2925 
Q 1872 3269 2151 3426 
Q 2431 3584 2822 3584 
Q 2878 3584 2943 3579 
Q 3009 3575 3134 3559 
L 3138 2547 
z
" transform="scale(0.015625)"/>
     <path id="DejaVuSans-Bold-64" d="M 2919 2988 
L 2919 4863 
L 4044 4863 
L 4044 0 
L 2919 0 
L 2919 506 
Q 2688 197 2409 53 
Q 2131 -91 1766 -91 
Q 1119 -91 703 423 
Q 288 938 288 1747 
Q 288 2556 703 3070 
Q 1119 3584 1766 3584 
Q 2128 3584 2408 3439 
Q 2688 3294 2919 2988 
z
M 2181 722 
Q 2541 722 2730 984 
Q 2919 1247 2919 1747 
Q 2919 2247 2730 2509 
Q 2541 2772 2181 2772 
Q 1825 2772 1636 2509 
Q 1447 2247 1447 1747 
Q 1447 1247 1636 984 
Q 1825 722 2181 722 
z
" transform="scale(0.015625)"/>
     <path id="DejaVuSans-Bold-73" d="M 3272 3391 
L 3272 2541 
Q 2913 2691 2578 2766 
Q 2244 2841 1947 2841 
Q 1628 2841 1473 2761 
Q 1319 2681 1319 2516 
Q 1319 2381 1436 2309 
Q 1553 2238 1856 2203 
L 2053 2175 
Q 2913 2066 3209 1816 
Q 3506 1566 3506 1031 
Q 3506 472 3093 190 
Q 2681 -91 1863 -91 
Q 1516 -91 1145 -36 
Q 775 19 384 128 
L 384 978 
Q 719 816 1070 734 
Q 1422 653 1784 653 
Q 2113 653 2278 743 
Q 2444 834 2444 1013 
Q 2444 1163 2330 1236 
Q 2216 1309 1875 1350 
L 1678 1375 
Q 931 1469 631 1722 
Q 331 1975 331 2491 
Q 331 3047 712 3315 
Q 1094 3584 1881 3584 
Q 2191 3584 2531 3537 
Q 2872 3491 3272 3391 
z
" transform="scale(0.015625)"/>
     <path id="DejaVuSans-Bold-3a" d="M 716 3500 
L 1844 3500 
L 1844 2291 
L 716 2291 
L 716 3500 
z
M 716 1209 
L 1844 1209 
L 1844 0 
L 716 0 
L 716 1209 
z
" transform="scale(0.015625)"/>
     <path id="DejaVuSans-Bold-20" transform="scale(0.015625)"/>
     <path id="DejaVuSans-Bold-41" d="M 3419 850 
L 1538 850 
L 1241 0 
L 31 0 
L 1759 4666 
L 3194 4666 
L 4922 0 
L 3713 0 
L 3419 850 
z
M 1838 1716 
L 3116 1716 
L 2478 3572 
L 1838 1716 
z
" transform="scale(0.015625)"/>
     <path id="DejaVuSans-Bold-63" d="M 3366 3391 
L 3366 2478 
Q 3138 2634 2908 2709 
Q 2678 2784 2431 2784 
Q 1963 2784 1702 2511 
Q 1441 2238 1441 1747 
Q 1441 1256 1702 982 
Q 1963 709 2431 709 
Q 2694 709 2930 787 
Q 3166 866 3366 1019 
L 3366 103 
Q 3103 6 2833 -42 
Q 2563 -91 2291 -91 
Q 1344 -91 809 395 
Q 275 881 275 1747 
Q 275 2613 809 3098 
Q 1344 3584 2291 3584 
Q 2566 3584 2833 3536 
Q 3100 3488 3366 3391 
z
" transform="scale(0.015625)"/>
     <path id="DejaVuSans-Bold-6f" d="M 2203 2784 
Q 1831 2784 1636 2517 
Q 1441 2250 1441 1747 
Q 1441 1244 1636 976 
Q 1831 709 2203 709 
Q 2569 709 2762 976 
Q 2956 1244 2956 1747 
Q 2956 2250 2762 2517 
Q 2569 2784 2203 2784 
z
M 2203 3584 
Q 3106 3584 3614 3096 
Q 4122 2609 4122 1747 
Q 4122 884 3614 396 
Q 3106 -91 2203 -91 
Q 1297 -91 786 396 
Q 275 884 275 1747 
Q 275 2609 786 3096 
Q 1297 3584 2203 3584 
z
" transform="scale(0.015625)"/>
     <path id="DejaVuSans-Bold-62" d="M 2400 722 
Q 2759 722 2948 984 
Q 3138 1247 3138 1747 
Q 3138 2247 2948 2509 
Q 2759 2772 2400 2772 
Q 2041 2772 1848 2508 
Q 1656 2244 1656 1747 
Q 1656 1250 1848 986 
Q 2041 722 2400 722 
z
M 1656 2988 
Q 1888 3294 2169 3439 
Q 2450 3584 2816 3584 
Q 3463 3584 3878 3070 
Q 4294 2556 4294 1747 
Q 4294 938 3878 423 
Q 3463 -91 2816 -91 
Q 2450 -91 2169 54 
Q 1888 200 1656 506 
L 1656 0 
L 538 0 
L 538 4863 
L 1656 4863 
L 1656 2988 
z
" transform="scale(0.015625)"/>
     <path id="DejaVuSans-Bold-74" d="M 1759 4494 
L 1759 3500 
L 2913 3500 
L 2913 2700 
L 1759 2700 
L 1759 1216 
Q 1759 972 1856 886 
Q 1953 800 2241 800 
L 2816 800 
L 2816 0 
L 1856 0 
Q 1194 0 917 276 
Q 641 553 641 1216 
L 641 2700 
L 84 2700 
L 84 3500 
L 641 3500 
L 641 4494 
L 1759 4494 
z
" transform="scale(0.015625)"/>
     <path id="DejaVuSans-Bold-2d" d="M 347 2297 
L 2309 2297 
L 2309 1388 
L 347 1388 
L 347 2297 
z
" transform="scale(0.015625)"/>
     <path id="DejaVuSans-Bold-76" d="M 97 3500 
L 1216 3500 
L 2088 1081 
L 2956 3500 
L 4078 3500 
L 2700 0 
L 1472 0 
L 97 3500 
z
" transform="scale(0.015625)"/>
     <path id="DejaVuSans-Bold-31" d="M 750 831 
L 1813 831 
L 1813 3847 
L 722 3622 
L 722 4441 
L 1806 4666 
L 2950 4666 
L 2950 831 
L 4013 831 
L 4013 0 
L 750 0 
L 750 831 
z
" transform="scale(0.015625)"/>
     <path id="DejaVuSans-Bold-7c" d="M 1522 4891 
L 1522 -1509 
L 813 -1509 
L 813 4891 
L 1522 4891 
z
" transform="scale(0.015625)"/>
     <path id="DejaVuSans-Bold-43" d="M 4288 256 
Q 3956 84 3597 -3 
Q 3238 -91 2847 -91 
Q 1681 -91 1000 561 
Q 319 1213 319 2328 
Q 319 3447 1000 4098 
Q 1681 4750 2847 4750 
Q 3238 4750 3597 4662 
Q 3956 4575 4288 4403 
L 4288 3438 
Q 3953 3666 3628 3772 
Q 3303 3878 2944 3878 
Q 2300 3878 1931 3465 
Q 1563 3053 1563 2328 
Q 1563 1606 1931 1193 
Q 2300 781 2944 781 
Q 3303 781 3628 887 
Q 3953 994 4288 1222 
L 4288 256 
z
" transform="scale(0.015625)"/>
     <path id="DejaVuSans-Bold-4d" d="M 588 4666 
L 2119 4666 
L 3181 2169 
L 4250 4666 
L 5778 4666 
L 5778 0 
L 4641 0 
L 4641 3413 
L 3566 897 
L 2803 897 
L 1728 3413 
L 1728 0 
L 588 0 
L 588 4666 
z
" transform="scale(0.015625)"/>
     <path id="DejaVuSans-Bold-55" d="M 588 4666 
L 1791 4666 
L 1791 1869 
Q 1791 1291 1980 1042 
Q 2169 794 2597 794 
Q 3028 794 3217 1042 
Q 3406 1291 3406 1869 
L 3406 4666 
L 4609 4666 
L 4609 1869 
Q 4609 878 4112 393 
Q 3616 -91 2597 -91 
Q 1581 -91 1084 393 
Q 588 878 588 1869 
L 588 4666 
z
" transform="scale(0.015625)"/>
     <path id="DejaVuSans-Bold-4e" d="M 588 4666 
L 1931 4666 
L 3628 1466 
L 3628 4666 
L 4769 4666 
L 4769 0 
L 3425 0 
L 1728 3200 
L 1728 0 
L 588 0 
L 588 4666 
z
" transform="scale(0.015625)"/>
     <path id="DejaVuSans-Bold-28" d="M 2413 -844 
L 1484 -844 
Q 1006 -72 778 623 
Q 550 1319 550 2003 
Q 550 2688 779 3389 
Q 1009 4091 1484 4856 
L 2413 4856 
Q 2013 4116 1813 3408 
Q 1613 2700 1613 2009 
Q 1613 1319 1811 609 
Q 2009 -100 2413 -844 
z
" transform="scale(0.015625)"/>
     <path id="DejaVuSans-Bold-6c" d="M 538 4863 
L 1656 4863 
L 1656 0 
L 538 0 
L 538 4863 
z
" transform="scale(0.015625)"/>
     <path id="DejaVuSans-Bold-69" d="M 538 3500 
L 1656 3500 
L 1656 0 
L 538 0 
L 538 3500 
z
M 538 4863 
L 1656 4863 
L 1656 3950 
L 538 3950 
L 538 4863 
z
" transform="scale(0.015625)"/>
     <path id="DejaVuSans-Bold-67" d="M 2919 594 
Q 2688 288 2409 144 
Q 2131 0 1766 0 
Q 1125 0 706 504 
Q 288 1009 288 1791 
Q 288 2575 706 3076 
Q 1125 3578 1766 3578 
Q 2131 3578 2409 3434 
Q 2688 3291 2919 2981 
L 2919 3500 
L 4044 3500 
L 4044 353 
Q 4044 -491 3511 -936 
Q 2978 -1381 1966 -1381 
Q 1638 -1381 1331 -1331 
Q 1025 -1281 716 -1178 
L 716 -306 
Q 1009 -475 1290 -558 
Q 1572 -641 1856 -641 
Q 2406 -641 2662 -400 
Q 2919 -159 2919 353 
L 2919 594 
z
M 2181 2772 
Q 1834 2772 1640 2515 
Q 1447 2259 1447 1791 
Q 1447 1309 1634 1061 
Q 1822 813 2181 813 
Q 2531 813 2725 1069 
Q 2919 1325 2919 1791 
Q 2919 2259 2725 2515 
Q 2531 2772 2181 2772 
z
" transform="scale(0.015625)"/>
     <path id="DejaVuSans-Bold-6e" d="M 4056 2131 
L 4056 0 
L 2931 0 
L 2931 347 
L 2931 1631 
Q 2931 2084 2911 2256 
Q 2891 2428 2841 2509 
Q 2775 2619 2662 2680 
Q 2550 2741 2406 2741 
Q 2056 2741 1856 2470 
Q 1656 2200 1656 1722 
L 1656 0 
L 538 0 
L 538 3500 
L 1656 3500 
L 1656 2988 
Q 1909 3294 2193 3439 
Q 2478 3584 2822 3584 
Q 3428 3584 3742 3212 
Q 4056 2841 4056 2131 
z
" transform="scale(0.015625)"/>
     <path id="DejaVuSans-Bold-6d" d="M 3781 2919 
Q 3994 3244 4286 3414 
Q 4578 3584 4928 3584 
Q 5531 3584 5847 3212 
Q 6163 2841 6163 2131 
L 6163 0 
L 5038 0 
L 5038 1825 
Q 5041 1866 5042 1909 
Q 5044 1953 5044 2034 
Q 5044 2406 4934 2573 
Q 4825 2741 4581 2741 
Q 4263 2741 4089 2478 
Q 3916 2216 3909 1719 
L 3909 0 
L 2784 0 
L 2784 1825 
Q 2784 2406 2684 2573 
Q 2584 2741 2328 2741 
Q 2006 2741 1831 2477 
Q 1656 2213 1656 1722 
L 1656 0 
L 531 0 
L 531 3500 
L 1656 3500 
L 1656 2988 
Q 1863 3284 2130 3434 
Q 2397 3584 2719 3584 
Q 3081 3584 3359 3409 
Q 3638 3234 3781 2919 
z
" transform="scale(0.015625)"/>
     <path id="DejaVuSans-Bold-2b" d="M 3053 4013 
L 3053 2375 
L 4684 2375 
L 4684 1638 
L 3053 1638 
L 3053 0 
L 2309 0 
L 2309 1638 
L 678 1638 
L 678 2375 
L 2309 2375 
L 2309 4013 
L 3053 4013 
z
" transform="scale(0.015625)"/>
     <path id="DejaVuSans-Bold-50" d="M 588 4666 
L 2584 4666 
Q 3475 4666 3951 4270 
Q 4428 3875 4428 3144 
Q 4428 2409 3951 2014 
Q 3475 1619 2584 1619 
L 1791 1619 
L 1791 0 
L 588 0 
L 588 4666 
z
M 1791 3794 
L 1791 2491 
L 2456 2491 
Q 2806 2491 2997 2661 
Q 3188 2831 3188 3144 
Q 3188 3456 2997 3625 
Q 2806 3794 2456 3794 
L 1791 3794 
z
" transform="scale(0.015625)"/>
     <path id="DejaVuSans-Bold-79" d="M 78 3500 
L 1197 3500 
L 2138 1125 
L 2938 3500 
L 4056 3500 
L 2584 -331 
Q 2363 -916 2067 -1148 
Q 1772 -1381 1288 -1381 
L 641 -1381 
L 641 -647 
L 991 -647 
Q 1275 -647 1404 -556 
Q 1534 -466 1606 -231 
L 1638 -134 
L 78 3500 
z
" transform="scale(0.015625)"/>
     <path id="DejaVuSans-Bold-29" d="M 513 -844 
Q 913 -100 1113 609 
Q 1313 1319 1313 2009 
Q 1313 2700 1113 3408 
Q 913 4116 513 4856 
L 1441 4856 
Q 1916 4091 2145 3389 
Q 2375 2688 2375 2003 
Q 2375 1319 2147 623 
Q 1919 -72 1441 -844 
L 513 -844 
z
" transform="scale(0.015625)"/>
    </defs>
    <use xlink:href="#DejaVuSans-Bold-52"/>
    <use xlink:href="#DejaVuSans-Bold-65" transform="translate(77.001953 0)"/>
    <use xlink:href="#DejaVuSans-Bold-77" transform="translate(144.824219 0)"/>
    <use xlink:href="#DejaVuSans-Bold-61" transform="translate(237.207031 0)"/>
    <use xlink:href="#DejaVuSans-Bold-72" transform="translate(304.6875 0)"/>
    <use xlink:href="#DejaVuSans-Bold-64" transform="translate(354.003906 0)"/>
    <use xlink:href="#DejaVuSans-Bold-73" transform="translate(425.585938 0)"/>
    <use xlink:href="#DejaVuSans-Bold-3a" transform="translate(485.107422 0)"/>
    <use xlink:href="#DejaVuSans-Bold-20" transform="translate(525.097656 0)"/>
    <use xlink:href="#DejaVuSans-Bold-41" transform="translate(559.912109 0)"/>
    <use xlink:href="#DejaVuSans-Bold-63" transform="translate(637.304688 0)"/>
    <use xlink:href="#DejaVuSans-Bold-72" transform="translate(696.582031 0)"/>
    <use xlink:href="#DejaVuSans-Bold-6f" transform="translate(745.898438 0)"/>
    <use xlink:href="#DejaVuSans-Bold-62" transform="translate(814.599609 0)"/>
    <use xlink:href="#DejaVuSans-Bold-6f" transform="translate(886.181641 0)"/>
    <use xlink:href="#DejaVuSans-Bold-74" transform="translate(954.882812 0)"/>
    <use xlink:href="#DejaVuSans-Bold-2d" transform="translate(1002.685547 0)"/>
    <use xlink:href="#DejaVuSans-Bold-76" transform="translate(1044.189453 0)"/>
    <use xlink:href="#DejaVuSans-Bold-31" transform="translate(1109.375 0)"/>
    <use xlink:href="#DejaVuSans-Bold-20" transform="translate(1178.955078 0)"/>
    <use xlink:href="#DejaVuSans-Bold-7c" transform="translate(1213.769531 0)"/>
    <use xlink:href="#DejaVuSans-Bold-20" transform="translate(1250.292969 0)"/>
    <use xlink:href="#DejaVuSans-Bold-43" transform="translate(1285.107422 0)"/>
    <use xlink:href="#DejaVuSans-Bold-4d" transform="translate(1358.496094 0)"/>
    <use xlink:href="#DejaVuSans-Bold-55" transform="translate(1458.007812 0)"/>
    <use xlink:href="#DejaVuSans-Bold-2d" transform="translate(1539.208984 0)"/>
    <use xlink:href="#DejaVuSans-Bold-4e" transform="translate(1580.712891 0)"/>
    <use xlink:href="#DejaVuSans-Bold-65" transform="translate(1664.404297 0)"/>
    <use xlink:href="#DejaVuSans-Bold-74" transform="translate(1732.226562 0)"/>
    <use xlink:href="#DejaVuSans-Bold-20" transform="translate(1780.029297 0)"/>
    <use xlink:href="#DejaVuSans-Bold-28" transform="translate(1814.84375 0)"/>
    <use xlink:href="#DejaVuSans-Bold-41" transform="translate(1860.546875 0)"/>
    <use xlink:href="#DejaVuSans-Bold-6c" transform="translate(1937.939453 0)"/>
    <use xlink:href="#DejaVuSans-Bold-69" transform="translate(1972.216797 0)"/>
    <use xlink:href="#DejaVuSans-Bold-67" transform="translate(2006.494141 0)"/>
    <use xlink:href="#DejaVuSans-Bold-6e" transform="translate(2078.076172 0)"/>
    <use xlink:href="#DejaVuSans-Bold-6d" transform="translate(2149.267578 0)"/>
    <use xlink:href="#DejaVuSans-Bold-65" transform="translate(2253.466797 0)"/>
    <use xlink:href="#DejaVuSans-Bold-6e" transform="translate(2321.289062 0)"/>
    <use xlink:href="#DejaVuSans-Bold-74" transform="translate(2392.480469 0)"/>
    <use xlink:href="#DejaVuSans-Bold-20" transform="translate(2440.283203 0)"/>
    <use xlink:href="#DejaVuSans-Bold-2b" transform="translate(2475.097656 0)"/>
    <use xlink:href="#DejaVuSans-Bold-20" transform="translate(2558.886719 0)"/>
    <use xlink:href="#DejaVuSans-Bold-50" transform="translate(2593.701172 0)"/>
    <use xlink:href="#DejaVuSans-Bold-65" transform="translate(2666.992188 0)"/>
    <use xlink:href="#DejaVuSans-Bold-6e" transform="translate(2734.814453 0)"/>
    <use xlink:href="#DejaVuSans-Bold-61" transform="translate(2806.005859 0)"/>
    <use xlink:href="#DejaVuSans-Bold-6c" transform="translate(2873.486328 0)"/>
    <use xlink:href="#DejaVuSans-Bold-74" transform="translate(2907.763672 0)"/>
    <use xlink:href="#DejaVuSans-Bold-79" transform="translate(2955.566406 0)"/>
    <use xlink:href="#DejaVuSans-Bold-20" transform="translate(3020.751953 0)"/>
    <use xlink:href="#DejaVuSans-Bold-2b" transform="translate(3055.566406 0)"/>
    <use xlink:href="#DejaVuSans-Bold-20" transform="translate(3139.355469 0)"/>
    <use xlink:href="#DejaVuSans-Bold-4d" transform="translate(3174.169922 0)"/>
    <use xlink:href="#DejaVuSans-Bold-61" transform="translate(3273.681641 0)"/>
    <use xlink:href="#DejaVuSans-Bold-72" transform="translate(3341.162109 0)"/>
    <use xlink:href="#DejaVuSans-Bold-67" transform="translate(3390.478516 0)"/>
    <use xlink:href="#DejaVuSans-Bold-69" transform="translate(3462.060547 0)"/>
    <use xlink:href="#DejaVuSans-Bold-6e" transform="translate(3496.337891 0)"/>
    <use xlink:href="#DejaVuSans-Bold-29" transform="translate(3567.529297 0)"/>
   </g>
  </g>
 </g>
 <defs>
  <clipPath id="p9084f58ffb">
   <rect x="59.24" y="57.0062" width="570.78765" height="333.0338"/>
  </clipPath>
 </defs>
</svg>
