<?xml version="1.0" encoding="utf-8" standalone="no"?>
<!DOCTYPE svg PUBLIC "-//W3C//DTD SVG 1.1//EN"
  "http://www.w3.org/Graphics/SVG/1.1/DTD/svg11.dtd">
<svg xmlns:xlink="http://www.w3.org/1999/xlink" width="648pt" height="432pt" viewBox="0 0 648 432" xmlns="http://www.w3.org/2000/svg" version="1.1">
 <metadata>
  <rdf:RDF xmlns:dc="http://purl.org/dc/elements/1.1/" xmlns:cc="http://creativecommons.org/ns#" xmlns:rdf="http://www.w3.org/1999/02/22-rdf-syntax-ns#">
   <cc:Work>
    <dc:type rdf:resource="http://purl.org/dc/dcmitype/StillImage"/>
    <dc:date>2025-07-24T05:09:39.189384</dc:date>
    <dc:format>image/svg+xml</dc:format>
    <dc:creator>
     <cc:Agent>
      <dc:title>Matplotlib v3.10.0, https://matplotlib.org/</dc:title>
     </cc:Agent>
    </dc:creator>
   </cc:Work>
  </rdf:RDF>
 </metadata>
 <defs>
  <style type="text/css">*{stroke-linejoin: round; stroke-linecap: butt}</style>
 </defs>
 <g id="figure_1">
  <g id="patch_1">
   <path d="M 0 432 
L 648 432 
L 648 0 
L 0 0 
z
" style="fill: #ffffff"/>
  </g>
  <g id="axes_1">
   <g id="patch_2">
    <path d="M 65.63 390.04 
L 632.205 390.04 
L 632.205 57.0062 
L 65.63 57.0062 
z
" style="fill: #eaeaf2"/>
   </g>
   <g id="matplotlib.axis_1">
    <g id="xtick_1">
     <g id="line2d_1">
      <path d="M 65.63083 390.04 
L 65.63083 57.0062 
" clip-path="url(#pdf12746aa6)" style="fill: none; stroke: #ffffff; stroke-width: 0.8; stroke-linecap: round"/>
     </g>
     <g id="text_1">
      <!-- 0.00 -->
      <g style="fill: #262626" transform="translate(54.498017 404.638438) scale(0.1 -0.1)">
       <defs>
        <path id="DejaVuSans-30" d="M 2034 4250 
Q 1547 4250 1301 3770 
Q 1056 3291 1056 2328 
Q 1056 1369 1301 889 
Q 1547 409 2034 409 
Q 2525 409 2770 889 
Q 3016 1369 3016 2328 
Q 3016 3291 2770 3770 
Q 2525 4250 2034 4250 
z
M 2034 4750 
Q 2819 4750 3233 4129 
Q 3647 3509 3647 2328 
Q 3647 1150 3233 529 
Q 2819 -91 2034 -91 
Q 1250 -91 836 529 
Q 422 1150 422 2328 
Q 422 3509 836 4129 
Q 1250 4750 2034 4750 
z
" transform="scale(0.015625)"/>
        <path id="DejaVuSans-2e" d="M 684 794 
L 1344 794 
L 1344 0 
L 684 0 
L 684 794 
z
" transform="scale(0.015625)"/>
       </defs>
       <use xlink:href="#DejaVuSans-30"/>
       <use xlink:href="#DejaVuSans-2e" transform="translate(63.623047 0)"/>
       <use xlink:href="#DejaVuSans-30" transform="translate(95.410156 0)"/>
       <use xlink:href="#DejaVuSans-30" transform="translate(159.033203 0)"/>
      </g>
     </g>
    </g>
    <g id="xtick_2">
     <g id="line2d_2">
      <path d="M 134.792615 390.04 
L 134.792615 57.0062 
" clip-path="url(#pdf12746aa6)" style="fill: none; stroke: #ffffff; stroke-width: 0.8; stroke-linecap: round"/>
     </g>
     <g id="text_2">
      <!-- 0.25 -->
      <g style="fill: #262626" transform="translate(123.659802 404.638438) scale(0.1 -0.1)">
       <defs>
        <path id="DejaVuSans-32" d="M 1228 531 
L 3431 531 
L 3431 0 
L 469 0 
L 469 531 
Q 828 903 1448 1529 
Q 2069 2156 2228 2338 
Q 2531 2678 2651 2914 
Q 2772 3150 2772 3378 
Q 2772 3750 2511 3984 
Q 2250 4219 1831 4219 
Q 1534 4219 1204 4116 
Q 875 4013 500 3803 
L 500 4441 
Q 881 4594 1212 4672 
Q 1544 4750 1819 4750 
Q 2544 4750 2975 4387 
Q 3406 4025 3406 3419 
Q 3406 3131 3298 2873 
Q 3191 2616 2906 2266 
Q 2828 2175 2409 1742 
Q 1991 1309 1228 531 
z
" transform="scale(0.015625)"/>
        <path id="DejaVuSans-35" d="M 691 4666 
L 3169 4666 
L 3169 4134 
L 1269 4134 
L 1269 2991 
Q 1406 3038 1543 3061 
Q 1681 3084 1819 3084 
Q 2600 3084 3056 2656 
Q 3513 2228 3513 1497 
Q 3513 744 3044 326 
Q 2575 -91 1722 -91 
Q 1428 -91 1123 -41 
Q 819 9 494 109 
L 494 744 
Q 775 591 1075 516 
Q 1375 441 1709 441 
Q 2250 441 2565 725 
Q 2881 1009 2881 1497 
Q 2881 1984 2565 2268 
Q 2250 2553 1709 2553 
Q 1456 2553 1204 2497 
Q 953 2441 691 2322 
L 691 4666 
z
" transform="scale(0.015625)"/>
       </defs>
       <use xlink:href="#DejaVuSans-30"/>
       <use xlink:href="#DejaVuSans-2e" transform="translate(63.623047 0)"/>
       <use xlink:href="#DejaVuSans-32" transform="translate(95.410156 0)"/>
       <use xlink:href="#DejaVuSans-35" transform="translate(159.033203 0)"/>
      </g>
     </g>
    </g>
    <g id="xtick_3">
     <g id="line2d_3">
      <path d="M 203.954399 390.04 
L 203.954399 57.0062 
" clip-path="url(#pdf12746aa6)" style="fill: none; stroke: #ffffff; stroke-width: 0.8; stroke-linecap: round"/>
     </g>
     <g id="text_3">
      <!-- 0.50 -->
      <g style="fill: #262626" transform="translate(192.821587 404.638438) scale(0.1 -0.1)">
       <use xlink:href="#DejaVuSans-30"/>
       <use xlink:href="#DejaVuSans-2e" transform="translate(63.623047 0)"/>
       <use xlink:href="#DejaVuSans-35" transform="translate(95.410156 0)"/>
       <use xlink:href="#DejaVuSans-30" transform="translate(159.033203 0)"/>
      </g>
     </g>
    </g>
    <g id="xtick_4">
     <g id="line2d_4">
      <path d="M 273.116184 390.04 
L 273.116184 57.0062 
" clip-path="url(#pdf12746aa6)" style="fill: none; stroke: #ffffff; stroke-width: 0.8; stroke-linecap: round"/>
     </g>
     <g id="text_4">
      <!-- 0.75 -->
      <g style="fill: #262626" transform="translate(261.983371 404.638438) scale(0.1 -0.1)">
       <defs>
        <path id="DejaVuSans-37" d="M 525 4666 
L 3525 4666 
L 3525 4397 
L 1831 0 
L 1172 0 
L 2766 4134 
L 525 4134 
L 525 4666 
z
" transform="scale(0.015625)"/>
       </defs>
       <use xlink:href="#DejaVuSans-30"/>
       <use xlink:href="#DejaVuSans-2e" transform="translate(63.623047 0)"/>
       <use xlink:href="#DejaVuSans-37" transform="translate(95.410156 0)"/>
       <use xlink:href="#DejaVuSans-35" transform="translate(159.033203 0)"/>
      </g>
     </g>
    </g>
    <g id="xtick_5">
     <g id="line2d_5">
      <path d="M 342.277969 390.04 
L 342.277969 57.0062 
" clip-path="url(#pdf12746aa6)" style="fill: none; stroke: #ffffff; stroke-width: 0.8; stroke-linecap: round"/>
     </g>
     <g id="text_5">
      <!-- 1.00 -->
      <g style="fill: #262626" transform="translate(331.145156 404.638438) scale(0.1 -0.1)">
       <defs>
        <path id="DejaVuSans-31" d="M 794 531 
L 1825 531 
L 1825 4091 
L 703 3866 
L 703 4441 
L 1819 4666 
L 2450 4666 
L 2450 531 
L 3481 531 
L 3481 0 
L 794 0 
L 794 531 
z
" transform="scale(0.015625)"/>
       </defs>
       <use xlink:href="#DejaVuSans-31"/>
       <use xlink:href="#DejaVuSans-2e" transform="translate(63.623047 0)"/>
       <use xlink:href="#DejaVuSans-30" transform="translate(95.410156 0)"/>
       <use xlink:href="#DejaVuSans-30" transform="translate(159.033203 0)"/>
      </g>
     </g>
    </g>
    <g id="xtick_6">
     <g id="line2d_6">
      <path d="M 411.439753 390.04 
L 411.439753 57.0062 
" clip-path="url(#pdf12746aa6)" style="fill: none; stroke: #ffffff; stroke-width: 0.8; stroke-linecap: round"/>
     </g>
     <g id="text_6">
      <!-- 1.25 -->
      <g style="fill: #262626" transform="translate(400.306941 404.638438) scale(0.1 -0.1)">
       <use xlink:href="#DejaVuSans-31"/>
       <use xlink:href="#DejaVuSans-2e" transform="translate(63.623047 0)"/>
       <use xlink:href="#DejaVuSans-32" transform="translate(95.410156 0)"/>
       <use xlink:href="#DejaVuSans-35" transform="translate(159.033203 0)"/>
      </g>
     </g>
    </g>
    <g id="xtick_7">
     <g id="line2d_7">
      <path d="M 480.601538 390.04 
L 480.601538 57.0062 
" clip-path="url(#pdf12746aa6)" style="fill: none; stroke: #ffffff; stroke-width: 0.8; stroke-linecap: round"/>
     </g>
     <g id="text_7">
      <!-- 1.50 -->
      <g style="fill: #262626" transform="translate(469.468726 404.638438) scale(0.1 -0.1)">
       <use xlink:href="#DejaVuSans-31"/>
       <use xlink:href="#DejaVuSans-2e" transform="translate(63.623047 0)"/>
       <use xlink:href="#DejaVuSans-35" transform="translate(95.410156 0)"/>
       <use xlink:href="#DejaVuSans-30" transform="translate(159.033203 0)"/>
      </g>
     </g>
    </g>
    <g id="xtick_8">
     <g id="line2d_8">
      <path d="M 549.763323 390.04 
L 549.763323 57.0062 
" clip-path="url(#pdf12746aa6)" style="fill: none; stroke: #ffffff; stroke-width: 0.8; stroke-linecap: round"/>
     </g>
     <g id="text_8">
      <!-- 1.75 -->
      <g style="fill: #262626" transform="translate(538.63051 404.638438) scale(0.1 -0.1)">
       <use xlink:href="#DejaVuSans-31"/>
       <use xlink:href="#DejaVuSans-2e" transform="translate(63.623047 0)"/>
       <use xlink:href="#DejaVuSans-37" transform="translate(95.410156 0)"/>
       <use xlink:href="#DejaVuSans-35" transform="translate(159.033203 0)"/>
      </g>
     </g>
    </g>
    <g id="xtick_9">
     <g id="line2d_9">
      <path d="M 618.925107 390.04 
L 618.925107 57.0062 
" clip-path="url(#pdf12746aa6)" style="fill: none; stroke: #ffffff; stroke-width: 0.8; stroke-linecap: round"/>
     </g>
     <g id="text_9">
      <!-- 2.00 -->
      <g style="fill: #262626" transform="translate(607.792295 404.638438) scale(0.1 -0.1)">
       <use xlink:href="#DejaVuSans-32"/>
       <use xlink:href="#DejaVuSans-2e" transform="translate(63.623047 0)"/>
       <use xlink:href="#DejaVuSans-30" transform="translate(95.410156 0)"/>
       <use xlink:href="#DejaVuSans-30" transform="translate(159.033203 0)"/>
      </g>
     </g>
    </g>
    <g id="text_10">
     <!-- Steps -->
     <g style="fill: #262626" transform="translate(334.927656 418.316562) scale(0.1 -0.1)">
      <defs>
       <path id="DejaVuSans-53" d="M 3425 4513 
L 3425 3897 
Q 3066 4069 2747 4153 
Q 2428 4238 2131 4238 
Q 1616 4238 1336 4038 
Q 1056 3838 1056 3469 
Q 1056 3159 1242 3001 
Q 1428 2844 1947 2747 
L 2328 2669 
Q 3034 2534 3370 2195 
Q 3706 1856 3706 1288 
Q 3706 609 3251 259 
Q 2797 -91 1919 -91 
Q 1588 -91 1214 -16 
Q 841 59 441 206 
L 441 856 
Q 825 641 1194 531 
Q 1563 422 1919 422 
Q 2459 422 2753 634 
Q 3047 847 3047 1241 
Q 3047 1584 2836 1778 
Q 2625 1972 2144 2069 
L 1759 2144 
Q 1053 2284 737 2584 
Q 422 2884 422 3419 
Q 422 4038 858 4394 
Q 1294 4750 2059 4750 
Q 2388 4750 2728 4690 
Q 3069 4631 3425 4513 
z
" transform="scale(0.015625)"/>
       <path id="DejaVuSans-74" d="M 1172 4494 
L 1172 3500 
L 2356 3500 
L 2356 3053 
L 1172 3053 
L 1172 1153 
Q 1172 725 1289 603 
Q 1406 481 1766 481 
L 2356 481 
L 2356 0 
L 1766 0 
Q 1100 0 847 248 
Q 594 497 594 1153 
L 594 3053 
L 172 3053 
L 172 3500 
L 594 3500 
L 594 4494 
L 1172 4494 
z
" transform="scale(0.015625)"/>
       <path id="DejaVuSans-65" d="M 3597 1894 
L 3597 1613 
L 953 1613 
Q 991 1019 1311 708 
Q 1631 397 2203 397 
Q 2534 397 2845 478 
Q 3156 559 3463 722 
L 3463 178 
Q 3153 47 2828 -22 
Q 2503 -91 2169 -91 
Q 1331 -91 842 396 
Q 353 884 353 1716 
Q 353 2575 817 3079 
Q 1281 3584 2069 3584 
Q 2775 3584 3186 3129 
Q 3597 2675 3597 1894 
z
M 3022 2063 
Q 3016 2534 2758 2815 
Q 2500 3097 2075 3097 
Q 1594 3097 1305 2825 
Q 1016 2553 972 2059 
L 3022 2063 
z
" transform="scale(0.015625)"/>
       <path id="DejaVuSans-70" d="M 1159 525 
L 1159 -1331 
L 581 -1331 
L 581 3500 
L 1159 3500 
L 1159 2969 
Q 1341 3281 1617 3432 
Q 1894 3584 2278 3584 
Q 2916 3584 3314 3078 
Q 3713 2572 3713 1747 
Q 3713 922 3314 415 
Q 2916 -91 2278 -91 
Q 1894 -91 1617 61 
Q 1341 213 1159 525 
z
M 3116 1747 
Q 3116 2381 2855 2742 
Q 2594 3103 2138 3103 
Q 1681 3103 1420 2742 
Q 1159 2381 1159 1747 
Q 1159 1113 1420 752 
Q 1681 391 2138 391 
Q 2594 391 2855 752 
Q 3116 1113 3116 1747 
z
" transform="scale(0.015625)"/>
       <path id="DejaVuSans-73" d="M 2834 3397 
L 2834 2853 
Q 2591 2978 2328 3040 
Q 2066 3103 1784 3103 
Q 1356 3103 1142 2972 
Q 928 2841 928 2578 
Q 928 2378 1081 2264 
Q 1234 2150 1697 2047 
L 1894 2003 
Q 2506 1872 2764 1633 
Q 3022 1394 3022 966 
Q 3022 478 2636 193 
Q 2250 -91 1575 -91 
Q 1294 -91 989 -36 
Q 684 19 347 128 
L 347 722 
Q 666 556 975 473 
Q 1284 391 1588 391 
Q 1994 391 2212 530 
Q 2431 669 2431 922 
Q 2431 1156 2273 1281 
Q 2116 1406 1581 1522 
L 1381 1569 
Q 847 1681 609 1914 
Q 372 2147 372 2553 
Q 372 3047 722 3315 
Q 1072 3584 1716 3584 
Q 2034 3584 2315 3537 
Q 2597 3491 2834 3397 
z
" transform="scale(0.015625)"/>
      </defs>
      <use xlink:href="#DejaVuSans-53"/>
      <use xlink:href="#DejaVuSans-74" transform="translate(63.476562 0)"/>
      <use xlink:href="#DejaVuSans-65" transform="translate(102.685547 0)"/>
      <use xlink:href="#DejaVuSans-70" transform="translate(164.208984 0)"/>
      <use xlink:href="#DejaVuSans-73" transform="translate(227.685547 0)"/>
     </g>
    </g>
    <g id="text_11">
     <!-- 1e6 -->
     <g style="fill: #262626" transform="translate(613.326875 417.316562) scale(0.1 -0.1)">
      <defs>
       <path id="DejaVuSans-36" d="M 2113 2584 
Q 1688 2584 1439 2293 
Q 1191 2003 1191 1497 
Q 1191 994 1439 701 
Q 1688 409 2113 409 
Q 2538 409 2786 701 
Q 3034 994 3034 1497 
Q 3034 2003 2786 2293 
Q 2538 2584 2113 2584 
z
M 3366 4563 
L 3366 3988 
Q 3128 4100 2886 4159 
Q 2644 4219 2406 4219 
Q 1781 4219 1451 3797 
Q 1122 3375 1075 2522 
Q 1259 2794 1537 2939 
Q 1816 3084 2150 3084 
Q 2853 3084 3261 2657 
Q 3669 2231 3669 1497 
Q 3669 778 3244 343 
Q 2819 -91 2113 -91 
Q 1303 -91 875 529 
Q 447 1150 447 2328 
Q 447 3434 972 4092 
Q 1497 4750 2381 4750 
Q 2619 4750 2861 4703 
Q 3103 4656 3366 4563 
z
" transform="scale(0.015625)"/>
      </defs>
      <use xlink:href="#DejaVuSans-31"/>
      <use xlink:href="#DejaVuSans-65" transform="translate(63.623047 0)"/>
      <use xlink:href="#DejaVuSans-36" transform="translate(125.146484 0)"/>
     </g>
    </g>
   </g>
   <g id="matplotlib.axis_2">
    <g id="ytick_1">
     <g id="line2d_10">
      <path d="M 65.63 390.04 
L 632.205 390.04 
" clip-path="url(#pdf12746aa6)" style="fill: none; stroke: #ffffff; stroke-width: 0.8; stroke-linecap: round"/>
     </g>
     <g id="text_12">
      <!-- −1600 -->
      <g style="fill: #262626" transform="translate(24.800313 393.839219) scale(0.1 -0.1)">
       <defs>
        <path id="DejaVuSans-2212" d="M 678 2272 
L 4684 2272 
L 4684 1741 
L 678 1741 
L 678 2272 
z
" transform="scale(0.015625)"/>
       </defs>
       <use xlink:href="#DejaVuSans-2212"/>
       <use xlink:href="#DejaVuSans-31" transform="translate(83.789062 0)"/>
       <use xlink:href="#DejaVuSans-36" transform="translate(147.412109 0)"/>
       <use xlink:href="#DejaVuSans-30" transform="translate(211.035156 0)"/>
       <use xlink:href="#DejaVuSans-30" transform="translate(274.658203 0)"/>
      </g>
     </g>
    </g>
    <g id="ytick_2">
     <g id="line2d_11">
      <path d="M 65.63 348.410775 
L 632.205 348.410775 
" clip-path="url(#pdf12746aa6)" style="fill: none; stroke: #ffffff; stroke-width: 0.8; stroke-linecap: round"/>
     </g>
     <g id="text_13">
      <!-- −1400 -->
      <g style="fill: #262626" transform="translate(24.800313 352.209994) scale(0.1 -0.1)">
       <defs>
        <path id="DejaVuSans-34" d="M 2419 4116 
L 825 1625 
L 2419 1625 
L 2419 4116 
z
M 2253 4666 
L 3047 4666 
L 3047 1625 
L 3713 1625 
L 3713 1100 
L 3047 1100 
L 3047 0 
L 2419 0 
L 2419 1100 
L 313 1100 
L 313 1709 
L 2253 4666 
z
" transform="scale(0.015625)"/>
       </defs>
       <use xlink:href="#DejaVuSans-2212"/>
       <use xlink:href="#DejaVuSans-31" transform="translate(83.789062 0)"/>
       <use xlink:href="#DejaVuSans-34" transform="translate(147.412109 0)"/>
       <use xlink:href="#DejaVuSans-30" transform="translate(211.035156 0)"/>
       <use xlink:href="#DejaVuSans-30" transform="translate(274.658203 0)"/>
      </g>
     </g>
    </g>
    <g id="ytick_3">
     <g id="line2d_12">
      <path d="M 65.63 306.78155 
L 632.205 306.78155 
" clip-path="url(#pdf12746aa6)" style="fill: none; stroke: #ffffff; stroke-width: 0.8; stroke-linecap: round"/>
     </g>
     <g id="text_14">
      <!-- −1200 -->
      <g style="fill: #262626" transform="translate(24.800313 310.580769) scale(0.1 -0.1)">
       <use xlink:href="#DejaVuSans-2212"/>
       <use xlink:href="#DejaVuSans-31" transform="translate(83.789062 0)"/>
       <use xlink:href="#DejaVuSans-32" transform="translate(147.412109 0)"/>
       <use xlink:href="#DejaVuSans-30" transform="translate(211.035156 0)"/>
       <use xlink:href="#DejaVuSans-30" transform="translate(274.658203 0)"/>
      </g>
     </g>
    </g>
    <g id="ytick_4">
     <g id="line2d_13">
      <path d="M 65.63 265.152325 
L 632.205 265.152325 
" clip-path="url(#pdf12746aa6)" style="fill: none; stroke: #ffffff; stroke-width: 0.8; stroke-linecap: round"/>
     </g>
     <g id="text_15">
      <!-- −1000 -->
      <g style="fill: #262626" transform="translate(24.800313 268.951544) scale(0.1 -0.1)">
       <use xlink:href="#DejaVuSans-2212"/>
       <use xlink:href="#DejaVuSans-31" transform="translate(83.789062 0)"/>
       <use xlink:href="#DejaVuSans-30" transform="translate(147.412109 0)"/>
       <use xlink:href="#DejaVuSans-30" transform="translate(211.035156 0)"/>
       <use xlink:href="#DejaVuSans-30" transform="translate(274.658203 0)"/>
      </g>
     </g>
    </g>
    <g id="ytick_5">
     <g id="line2d_14">
      <path d="M 65.63 223.5231 
L 632.205 223.5231 
" clip-path="url(#pdf12746aa6)" style="fill: none; stroke: #ffffff; stroke-width: 0.8; stroke-linecap: round"/>
     </g>
     <g id="text_16">
      <!-- −800 -->
      <g style="fill: #262626" transform="translate(31.162813 227.322319) scale(0.1 -0.1)">
       <defs>
        <path id="DejaVuSans-38" d="M 2034 2216 
Q 1584 2216 1326 1975 
Q 1069 1734 1069 1313 
Q 1069 891 1326 650 
Q 1584 409 2034 409 
Q 2484 409 2743 651 
Q 3003 894 3003 1313 
Q 3003 1734 2745 1975 
Q 2488 2216 2034 2216 
z
M 1403 2484 
Q 997 2584 770 2862 
Q 544 3141 544 3541 
Q 544 4100 942 4425 
Q 1341 4750 2034 4750 
Q 2731 4750 3128 4425 
Q 3525 4100 3525 3541 
Q 3525 3141 3298 2862 
Q 3072 2584 2669 2484 
Q 3125 2378 3379 2068 
Q 3634 1759 3634 1313 
Q 3634 634 3220 271 
Q 2806 -91 2034 -91 
Q 1263 -91 848 271 
Q 434 634 434 1313 
Q 434 1759 690 2068 
Q 947 2378 1403 2484 
z
M 1172 3481 
Q 1172 3119 1398 2916 
Q 1625 2713 2034 2713 
Q 2441 2713 2670 2916 
Q 2900 3119 2900 3481 
Q 2900 3844 2670 4047 
Q 2441 4250 2034 4250 
Q 1625 4250 1398 4047 
Q 1172 3844 1172 3481 
z
" transform="scale(0.015625)"/>
       </defs>
       <use xlink:href="#DejaVuSans-2212"/>
       <use xlink:href="#DejaVuSans-38" transform="translate(83.789062 0)"/>
       <use xlink:href="#DejaVuSans-30" transform="translate(147.412109 0)"/>
       <use xlink:href="#DejaVuSans-30" transform="translate(211.035156 0)"/>
      </g>
     </g>
    </g>
    <g id="ytick_6">
     <g id="line2d_15">
      <path d="M 65.63 181.893875 
L 632.205 181.893875 
" clip-path="url(#pdf12746aa6)" style="fill: none; stroke: #ffffff; stroke-width: 0.8; stroke-linecap: round"/>
     </g>
     <g id="text_17">
      <!-- −600 -->
      <g style="fill: #262626" transform="translate(31.162813 185.693094) scale(0.1 -0.1)">
       <use xlink:href="#DejaVuSans-2212"/>
       <use xlink:href="#DejaVuSans-36" transform="translate(83.789062 0)"/>
       <use xlink:href="#DejaVuSans-30" transform="translate(147.412109 0)"/>
       <use xlink:href="#DejaVuSans-30" transform="translate(211.035156 0)"/>
      </g>
     </g>
    </g>
    <g id="ytick_7">
     <g id="line2d_16">
      <path d="M 65.63 140.26465 
L 632.205 140.26465 
" clip-path="url(#pdf12746aa6)" style="fill: none; stroke: #ffffff; stroke-width: 0.8; stroke-linecap: round"/>
     </g>
     <g id="text_18">
      <!-- −400 -->
      <g style="fill: #262626" transform="translate(31.162813 144.063869) scale(0.1 -0.1)">
       <use xlink:href="#DejaVuSans-2212"/>
       <use xlink:href="#DejaVuSans-34" transform="translate(83.789062 0)"/>
       <use xlink:href="#DejaVuSans-30" transform="translate(147.412109 0)"/>
       <use xlink:href="#DejaVuSans-30" transform="translate(211.035156 0)"/>
      </g>
     </g>
    </g>
    <g id="ytick_8">
     <g id="line2d_17">
      <path d="M 65.63 98.635425 
L 632.205 98.635425 
" clip-path="url(#pdf12746aa6)" style="fill: none; stroke: #ffffff; stroke-width: 0.8; stroke-linecap: round"/>
     </g>
     <g id="text_19">
      <!-- −200 -->
      <g style="fill: #262626" transform="translate(31.162813 102.434644) scale(0.1 -0.1)">
       <use xlink:href="#DejaVuSans-2212"/>
       <use xlink:href="#DejaVuSans-32" transform="translate(83.789062 0)"/>
       <use xlink:href="#DejaVuSans-30" transform="translate(147.412109 0)"/>
       <use xlink:href="#DejaVuSans-30" transform="translate(211.035156 0)"/>
      </g>
     </g>
    </g>
    <g id="ytick_9">
     <g id="line2d_18">
      <path d="M 65.63 57.0062 
L 632.205 57.0062 
" clip-path="url(#pdf12746aa6)" style="fill: none; stroke: #ffffff; stroke-width: 0.8; stroke-linecap: round"/>
     </g>
     <g id="text_20">
      <!-- 0 -->
      <g style="fill: #262626" transform="translate(52.2675 60.805419) scale(0.1 -0.1)">
       <use xlink:href="#DejaVuSans-30"/>
      </g>
     </g>
    </g>
    <g id="text_21">
     <!-- Reward -->
     <g style="fill: #262626" transform="translate(18.720625 242.144194) rotate(-90) scale(0.1 -0.1)">
      <defs>
       <path id="DejaVuSans-52" d="M 2841 2188 
Q 3044 2119 3236 1894 
Q 3428 1669 3622 1275 
L 4263 0 
L 3584 0 
L 2988 1197 
Q 2756 1666 2539 1819 
Q 2322 1972 1947 1972 
L 1259 1972 
L 1259 0 
L 628 0 
L 628 4666 
L 2053 4666 
Q 2853 4666 3247 4331 
Q 3641 3997 3641 3322 
Q 3641 2881 3436 2590 
Q 3231 2300 2841 2188 
z
M 1259 4147 
L 1259 2491 
L 2053 2491 
Q 2509 2491 2742 2702 
Q 2975 2913 2975 3322 
Q 2975 3731 2742 3939 
Q 2509 4147 2053 4147 
L 1259 4147 
z
" transform="scale(0.015625)"/>
       <path id="DejaVuSans-77" d="M 269 3500 
L 844 3500 
L 1563 769 
L 2278 3500 
L 2956 3500 
L 3675 769 
L 4391 3500 
L 4966 3500 
L 4050 0 
L 3372 0 
L 2619 2869 
L 1863 0 
L 1184 0 
L 269 3500 
z
" transform="scale(0.015625)"/>
       <path id="DejaVuSans-61" d="M 2194 1759 
Q 1497 1759 1228 1600 
Q 959 1441 959 1056 
Q 959 750 1161 570 
Q 1363 391 1709 391 
Q 2188 391 2477 730 
Q 2766 1069 2766 1631 
L 2766 1759 
L 2194 1759 
z
M 3341 1997 
L 3341 0 
L 2766 0 
L 2766 531 
Q 2569 213 2275 61 
Q 1981 -91 1556 -91 
Q 1019 -91 701 211 
Q 384 513 384 1019 
Q 384 1609 779 1909 
Q 1175 2209 1959 2209 
L 2766 2209 
L 2766 2266 
Q 2766 2663 2505 2880 
Q 2244 3097 1772 3097 
Q 1472 3097 1187 3025 
Q 903 2953 641 2809 
L 641 3341 
Q 956 3463 1253 3523 
Q 1550 3584 1831 3584 
Q 2591 3584 2966 3190 
Q 3341 2797 3341 1997 
z
" transform="scale(0.015625)"/>
       <path id="DejaVuSans-72" d="M 2631 2963 
Q 2534 3019 2420 3045 
Q 2306 3072 2169 3072 
Q 1681 3072 1420 2755 
Q 1159 2438 1159 1844 
L 1159 0 
L 581 0 
L 581 3500 
L 1159 3500 
L 1159 2956 
Q 1341 3275 1631 3429 
Q 1922 3584 2338 3584 
Q 2397 3584 2469 3576 
Q 2541 3569 2628 3553 
L 2631 2963 
z
" transform="scale(0.015625)"/>
       <path id="DejaVuSans-64" d="M 2906 2969 
L 2906 4863 
L 3481 4863 
L 3481 0 
L 2906 0 
L 2906 525 
Q 2725 213 2448 61 
Q 2172 -91 1784 -91 
Q 1150 -91 751 415 
Q 353 922 353 1747 
Q 353 2572 751 3078 
Q 1150 3584 1784 3584 
Q 2172 3584 2448 3432 
Q 2725 3281 2906 2969 
z
M 947 1747 
Q 947 1113 1208 752 
Q 1469 391 1925 391 
Q 2381 391 2643 752 
Q 2906 1113 2906 1747 
Q 2906 2381 2643 2742 
Q 2381 3103 1925 3103 
Q 1469 3103 1208 2742 
Q 947 2381 947 1747 
z
" transform="scale(0.015625)"/>
      </defs>
      <use xlink:href="#DejaVuSans-52"/>
      <use xlink:href="#DejaVuSans-65" transform="translate(64.982422 0)"/>
      <use xlink:href="#DejaVuSans-77" transform="translate(126.505859 0)"/>
      <use xlink:href="#DejaVuSans-61" transform="translate(208.292969 0)"/>
      <use xlink:href="#DejaVuSans-72" transform="translate(269.572266 0)"/>
      <use xlink:href="#DejaVuSans-64" transform="translate(308.935547 0)"/>
     </g>
    </g>
   </g>
   <g id="FillBetweenPolyCollection_1">
    <path d="M 65.63083 299.659713 
L 65.63083 322.560138 
L 71.296563 326.978127 
L 76.962297 317.15161 
L 82.62803 334.271644 
L 88.293764 342.222268 
L 93.959497 340.524741 
L 99.62523 360.106236 
L 105.290964 358.632287 
L 110.956697 356.55516 
L 116.622431 368.669855 
L 122.288164 370.824556 
L 127.953897 379.231552 
L 133.619631 372.693223 
L 139.285364 359.507131 
L 144.951098 361.827224 
L 150.616831 367.50969 
L 156.282564 361.590635 
L 161.948298 358.480597 
L 167.614031 356.388765 
L 173.279765 348.560862 
L 178.945498 348.863575 
L 184.611231 339.249676 
L 190.276965 336.801501 
L 195.942698 339.626813 
L 201.608432 334.322286 
L 207.274165 337.569955 
L 212.939898 321.120039 
L 218.605632 314.651017 
L 224.271365 303.933626 
L 229.937099 292.397648 
L 235.602832 294.013596 
L 241.268565 288.514045 
L 246.934299 297.113037 
L 252.600032 290.583511 
L 258.265766 283.716426 
L 263.931499 263.790448 
L 269.597232 275.086943 
L 275.262966 287.872192 
L 280.928699 291.265649 
L 286.594433 268.962707 
L 292.260166 281.760932 
L 297.925899 224.593274 
L 303.591633 243.470145 
L 309.257366 263.780952 
L 314.9231 255.25563 
L 320.588833 245.117365 
L 326.254566 267.50309 
L 331.9203 258.827539 
L 337.586033 253.317156 
L 343.251767 241.001953 
L 348.9175 243.805047 
L 354.583233 234.188329 
L 360.248967 254.317774 
L 365.9147 249.265538 
L 371.580434 231.404484 
L 377.246167 240.699355 
L 382.9119 227.333462 
L 388.577634 219.27734 
L 394.243367 230.864022 
L 399.909101 215.108385 
L 405.574834 204.939985 
L 411.240567 197.707692 
L 416.906301 177.92118 
L 422.572034 205.099306 
L 428.237768 204.999205 
L 433.903501 211.947901 
L 439.569234 219.379238 
L 445.234968 197.39254 
L 450.900701 163.66399 
L 456.566435 204.201243 
L 462.232168 183.693989 
L 467.897901 210.774843 
L 473.563635 210.377251 
L 479.229368 208.007773 
L 484.895102 172.61507 
L 490.560835 196.619806 
L 496.226568 190.545471 
L 501.892302 170.102517 
L 507.558035 176.432558 
L 513.223769 181.295485 
L 518.889502 174.262706 
L 524.555235 166.210246 
L 530.220969 134.831754 
L 535.886702 168.74975 
L 541.552436 161.783155 
L 547.218169 145.587889 
L 552.883902 157.389521 
L 558.549636 133.962927 
L 564.215369 142.659088 
L 569.881103 141.93965 
L 575.546836 127.2432 
L 581.212569 126.618688 
L 586.878303 127.202021 
L 592.544036 123.434641 
L 598.20977 114.835891 
L 603.875503 105.989615 
L 609.541236 113.444406 
L 615.20697 102.5855 
L 620.872703 112.189159 
L 626.538437 106.058419 
L 626.538437 80.714481 
L 626.538437 80.714481 
L 620.872703 79.491539 
L 615.20697 84.777709 
L 609.541236 82.186684 
L 603.875503 84.585217 
L 598.20977 78.102912 
L 592.544036 73.897581 
L 586.878303 80.33387 
L 581.212569 81.4677 
L 575.546836 78.627837 
L 569.881103 79.354027 
L 564.215369 75.805317 
L 558.549636 85.289909 
L 552.883902 75.5158 
L 547.218169 72.837428 
L 541.552436 63.74194 
L 535.886702 60.695924 
L 530.220969 71.446396 
L 524.555235 64.847472 
L 518.889502 61.86124 
L 513.223769 62.636735 
L 507.558035 65.365217 
L 501.892302 65.067867 
L 496.226568 55.891372 
L 490.560835 63.421518 
L 484.895102 66.57204 
L 479.229368 50.750087 
L 473.563635 64.811565 
L 467.897901 58.282042 
L 462.232168 63.0212 
L 456.566435 66.645411 
L 450.900701 68.183466 
L 445.234968 57.75398 
L 439.569234 57.104272 
L 433.903501 56.915122 
L 428.237768 60.404268 
L 422.572034 71.724421 
L 416.906301 78.963822 
L 411.240567 75.014306 
L 405.574834 65.845831 
L 399.909101 74.70108 
L 394.243367 76.656254 
L 388.577634 73.898363 
L 382.9119 76.215269 
L 377.246167 72.201697 
L 371.580434 73.608509 
L 365.9147 73.846254 
L 360.248967 73.944811 
L 354.583233 94.507439 
L 348.9175 72.339234 
L 343.251767 75.096202 
L 337.586033 79.906164 
L 331.9203 74.363239 
L 326.254566 78.308539 
L 320.588833 73.987034 
L 314.9231 73.469462 
L 309.257366 84.523189 
L 303.591633 74.982494 
L 297.925899 83.292464 
L 292.260166 86.73036 
L 286.594433 77.246658 
L 280.928699 83.754388 
L 275.262966 78.502714 
L 269.597232 84.199965 
L 263.931499 83.179999 
L 258.265766 90.737272 
L 252.600032 88.401013 
L 246.934299 87.919235 
L 241.268565 86.136934 
L 235.602832 93.876063 
L 229.937099 100.993005 
L 224.271365 116.222755 
L 218.605632 110.111563 
L 212.939898 122.314012 
L 207.274165 121.071108 
L 201.608432 120.881536 
L 195.942698 132.577604 
L 190.276965 125.969377 
L 184.611231 123.460205 
L 178.945498 137.77395 
L 173.279765 139.216717 
L 167.614031 154.054176 
L 161.948298 156.327151 
L 156.282564 178.852929 
L 150.616831 188.075428 
L 144.951098 181.654185 
L 139.285364 180.122094 
L 133.619631 191.547339 
L 127.953897 198.310416 
L 122.288164 194.841396 
L 116.622431 218.557278 
L 110.956697 244.297135 
L 105.290964 259.844985 
L 99.62523 281.516662 
L 93.959497 276.520745 
L 88.293764 275.401113 
L 82.62803 286.799443 
L 76.962297 282.284259 
L 71.296563 299.658027 
L 65.63083 299.659713 
z
" clip-path="url(#pdf12746aa6)" style="fill: #0000ff; fill-opacity: 0.1"/>
   </g>
   <g id="line2d_19">
    <path d="M 65.63083 311.109925 
L 71.296563 313.318077 
L 76.962297 299.717935 
L 82.62803 310.535543 
L 88.293764 308.81169 
L 93.959497 308.522743 
L 99.62523 320.811449 
L 105.290964 309.238636 
L 110.956697 300.426147 
L 116.622431 293.613567 
L 122.288164 282.832976 
L 127.953897 288.770984 
L 133.619631 282.120281 
L 139.285364 269.814612 
L 144.951098 271.740704 
L 150.616831 277.792559 
L 156.282564 270.221782 
L 161.948298 257.403874 
L 167.614031 255.22147 
L 173.279765 243.888789 
L 178.945498 243.318762 
L 184.611231 231.35494 
L 190.276965 231.385439 
L 195.942698 236.102209 
L 201.608432 227.601911 
L 207.274165 229.320531 
L 212.939898 221.717026 
L 218.605632 212.38129 
L 224.271365 210.078191 
L 229.937099 196.695326 
L 235.602832 193.94483 
L 241.268565 187.32549 
L 246.934299 192.516136 
L 252.600032 189.492262 
L 258.265766 187.226849 
L 263.931499 173.485224 
L 269.597232 179.643454 
L 275.262966 183.187453 
L 280.928699 187.510018 
L 286.594433 173.104682 
L 292.260166 184.245646 
L 297.925899 153.942869 
L 303.591633 159.22632 
L 309.257366 174.15207 
L 314.9231 164.362546 
L 320.588833 159.552199 
L 326.254566 172.905814 
L 331.9203 166.595389 
L 337.586033 166.61166 
L 343.251767 158.049077 
L 348.9175 158.07214 
L 354.583233 164.347884 
L 360.248967 164.131292 
L 365.9147 161.555896 
L 371.580434 152.506496 
L 377.246167 156.450526 
L 382.9119 151.774365 
L 388.577634 146.587851 
L 394.243367 153.760138 
L 399.909101 144.904732 
L 405.574834 135.392908 
L 411.240567 136.360999 
L 416.906301 128.442501 
L 422.572034 138.411864 
L 428.237768 132.701737 
L 433.903501 134.431511 
L 439.569234 138.241755 
L 445.234968 127.57326 
L 450.900701 115.923728 
L 456.566435 135.423327 
L 462.232168 123.357595 
L 467.897901 134.528442 
L 473.563635 137.594408 
L 479.229368 129.37893 
L 484.895102 119.593555 
L 490.560835 130.020662 
L 496.226568 123.218421 
L 501.892302 117.585192 
L 507.558035 120.898887 
L 513.223769 121.96611 
L 518.889502 118.061973 
L 524.555235 115.528859 
L 530.220969 103.139075 
L 535.886702 114.722837 
L 541.552436 112.762547 
L 547.218169 109.212659 
L 552.883902 116.45266 
L 558.549636 109.626418 
L 564.215369 109.232203 
L 569.881103 110.646839 
L 575.546836 102.935519 
L 581.212569 104.043194 
L 586.878303 103.767945 
L 592.544036 98.666111 
L 598.20977 96.469401 
L 603.875503 95.287416 
L 609.541236 97.815545 
L 615.20697 93.681604 
L 620.872703 95.840349 
L 626.538437 93.38645 
" clip-path="url(#pdf12746aa6)" style="fill: none; stroke: #0000ff; stroke-width: 1.5; stroke-linecap: round"/>
   </g>
   <g id="line2d_20">
    <path d="M 65.63083 313.813114 
L 71.296563 317.952408 
L 76.962297 281.442811 
L 82.62803 269.594171 
L 88.293764 273.734151 
L 93.959497 267.937528 
L 99.62523 258.282881 
L 105.290964 227.591537 
L 110.956697 195.801793 
L 116.622431 158.147231 
L 122.288164 120.400413 
L 127.953897 116.594081 
L 133.619631 114.966856 
L 139.285364 105.803744 
L 144.951098 116.901296 
L 150.616831 127.595639 
L 156.282564 127.022616 
L 161.948298 115.878073 
L 167.614031 124.677725 
L 173.279765 127.463295 
L 178.945498 112.837007 
L 184.611231 101.104505 
L 190.276965 99.159829 
L 195.942698 108.09878 
L 201.608432 97.127192 
L 207.274165 98.28446 
L 212.939898 113.42744 
L 218.605632 94.110037 
L 224.271365 108.615452 
L 229.937099 96.165224 
L 235.602832 81.855751 
L 241.268565 98.060924 
L 246.934299 90.745828 
L 252.600032 88.174546 
L 258.265766 93.78781 
L 263.931499 96.806976 
L 269.597232 87.066457 
L 275.262966 92.404073 
L 280.928699 94.110641 
L 286.594433 94.712814 
L 292.260166 94.911984 
L 297.925899 93.827265 
L 303.591633 90.685207 
L 309.257366 91.90406 
L 314.9231 86.773876 
L 320.588833 90.878935 
L 326.254566 90.284661 
L 331.9203 86.575928 
L 337.586033 109.05229 
L 343.251767 92.955264 
L 348.9175 97.649774 
L 354.583233 120.524343 
L 360.248967 94.203605 
L 365.9147 85.259469 
L 371.580434 90.164713 
L 377.246167 90.820787 
L 382.9119 94.850984 
L 388.577634 91.903059 
L 394.243367 93.867144 
L 399.909101 89.592516 
L 405.574834 79.619656 
L 411.240567 95.486936 
L 416.906301 89.372754 
L 422.572034 90.508632 
L 428.237768 87.317927 
L 433.903501 87.408593 
L 439.569234 91.475477 
L 445.234968 84.895122 
L 450.900701 89.95543 
L 456.566435 93.185193 
L 462.232168 85.546989 
L 467.897901 86.417655 
L 473.563635 95.532855 
L 479.229368 94.890557 
L 484.895102 84.300052 
L 490.560835 89.957387 
L 496.226568 90.164614 
L 501.892302 86.692244 
L 507.558035 89.667944 
L 513.223769 90.072265 
L 518.889502 87.57081 
L 524.555235 89.444992 
L 530.220969 84.68566 
L 535.886702 89.528586 
L 541.552436 90.765377 
L 547.218169 90.570381 
L 552.883902 94.21801 
L 558.549636 96.172956 
L 564.215369 87.577404 
L 569.881103 87.795783 
L 575.546836 86.97201 
L 581.212569 87.564753 
L 586.878303 92.191756 
L 592.544036 83.303795 
L 598.20977 88.643319 
L 603.875503 85.963565 
L 609.541236 84.345901 
L 615.20697 86.500612 
L 620.872703 87.692137 
L 626.538437 91.328564 
" clip-path="url(#pdf12746aa6)" style="fill: none; stroke: #008000; stroke-opacity: 0.2; stroke-linecap: round"/>
   </g>
   <g id="line2d_21">
    <path d="M 65.63083 303.526845 
L 71.296563 299.498522 
L 76.962297 300.658363 
L 82.62803 316.817594 
L 88.293764 275.865837 
L 93.959497 280.311425 
L 99.62523 300.178302 
L 105.290964 278.830434 
L 110.956697 293.273756 
L 116.622431 270.257986 
L 122.288164 265.03356 
L 127.953897 296.487446 
L 133.619631 267.985742 
L 139.285364 251.882518 
L 144.951098 229.483147 
L 150.616831 222.828753 
L 156.282564 198.865712 
L 161.948298 155.747767 
L 167.614031 144.935546 
L 173.279765 112.744588 
L 178.945498 118.182765 
L 184.611231 103.245283 
L 190.276965 109.876744 
L 195.942698 115.412615 
L 201.608432 103.812733 
L 207.274165 103.446085 
L 212.939898 101.899599 
L 218.605632 97.801909 
L 224.271365 101.733172 
L 229.937099 98.869559 
L 235.602832 96.48722 
L 241.268565 90.299045 
L 246.934299 92.802903 
L 252.600032 119.861636 
L 258.265766 108.371565 
L 263.931499 86.162768 
L 269.597232 103.031242 
L 275.262966 87.663582 
L 280.928699 95.568275 
L 286.594433 92.830864 
L 292.260166 95.028257 
L 297.925899 96.326099 
L 303.591633 93.668294 
L 309.257366 93.578135 
L 314.9231 89.05602 
L 320.588833 88.492856 
L 326.254566 95.300612 
L 331.9203 96.644761 
L 337.586033 95.293501 
L 343.251767 90.356231 
L 348.9175 85.912744 
L 354.583233 92.607587 
L 360.248967 90.766494 
L 365.9147 92.53338 
L 371.580434 86.310951 
L 377.246167 84.367787 
L 382.9119 87.887058 
L 388.577634 89.770043 
L 394.243367 93.068791 
L 399.909101 91.850258 
L 405.574834 92.296338 
L 411.240567 92.010666 
L 416.906301 93.640739 
L 422.572034 89.85113 
L 428.237768 87.859823 
L 433.903501 92.590454 
L 439.569234 85.868698 
L 445.234968 87.61415 
L 450.900701 82.068743 
L 456.566435 87.537865 
L 462.232168 86.977866 
L 467.897901 93.516127 
L 473.563635 87.770237 
L 479.229368 85.698166 
L 484.895102 88.871496 
L 490.560835 85.603651 
L 496.226568 89.434281 
L 501.892302 87.006771 
L 507.558035 89.101857 
L 513.223769 84.615574 
L 518.889502 92.865011 
L 524.555235 90.474312 
L 530.220969 87.795367 
L 535.886702 90.044333 
L 541.552436 86.397685 
L 547.218169 90.144985 
L 552.883902 109.766474 
L 558.549636 103.201948 
L 564.215369 105.199271 
L 569.881103 102.373317 
L 575.546836 93.287989 
L 581.212569 99.999871 
L 586.878303 100.107258 
L 592.544036 86.37627 
L 598.20977 95.943779 
L 603.875503 96.772661 
L 609.541236 100.811846 
L 615.20697 91.023887 
L 620.872703 87.677366 
L 626.538437 86.491369 
" clip-path="url(#pdf12746aa6)" style="fill: none; stroke: #008000; stroke-opacity: 0.2; stroke-linecap: round"/>
   </g>
   <g id="line2d_22">
    <path d="M 65.63083 302.531249 
L 71.296563 328.751283 
L 76.962297 315.08848 
L 82.62803 328.305434 
L 88.293764 306.092553 
L 93.959497 311.624481 
L 99.62523 329.14393 
L 105.290964 331.700631 
L 110.956697 319.878322 
L 116.622431 332.071283 
L 122.288164 317.981186 
L 127.953897 326.501849 
L 133.619631 318.623182 
L 139.285364 305.985033 
L 144.951098 305.814204 
L 150.616831 325.599164 
L 156.282564 318.67214 
L 161.948298 312.571435 
L 167.614031 294.181685 
L 173.279765 278.332831 
L 178.945498 300.596952 
L 184.611231 278.731971 
L 190.276965 280.804672 
L 195.942698 283.112828 
L 201.608432 267.290292 
L 207.274165 266.321486 
L 212.939898 235.323579 
L 218.605632 221.40525 
L 224.271365 210.104596 
L 229.937099 180.485117 
L 235.602832 169.395738 
L 241.268565 127.678452 
L 246.934299 141.791768 
L 252.600032 114.573065 
L 258.265766 124.698914 
L 263.931499 122.683407 
L 269.597232 117.795763 
L 275.262966 118.263037 
L 280.928699 122.08813 
L 286.594433 99.238177 
L 292.260166 127.180621 
L 297.925899 105.400965 
L 303.591633 90.634266 
L 309.257366 119.12551 
L 314.9231 98.866675 
L 320.588833 101.85133 
L 326.254566 103.372731 
L 331.9203 95.306782 
L 337.586033 95.612269 
L 343.251767 92.795417 
L 348.9175 90.684326 
L 354.583233 124.539899 
L 360.248967 90.298539 
L 365.9147 94.775508 
L 371.580434 92.201199 
L 377.246167 95.177503 
L 382.9119 87.662165 
L 388.577634 91.312773 
L 394.243367 94.340064 
L 399.909101 94.842996 
L 405.574834 87.989474 
L 411.240567 96.35294 
L 416.906301 88.895758 
L 422.572034 129.965233 
L 428.237768 92.655655 
L 433.903501 87.125518 
L 439.569234 88.372817 
L 445.234968 88.177548 
L 450.900701 92.737103 
L 456.566435 110.178526 
L 462.232168 95.013246 
L 467.897901 96.201094 
L 473.563635 94.860859 
L 479.229368 87.705483 
L 484.895102 100.55692 
L 490.560835 87.992856 
L 496.226568 83.154937 
L 501.892302 86.416977 
L 507.558035 91.009989 
L 513.223769 88.491694 
L 518.889502 88.33822 
L 524.555235 88.210677 
L 530.220969 87.569009 
L 535.886702 79.453226 
L 541.552436 84.428545 
L 547.218169 92.498916 
L 552.883902 90.483831 
L 558.549636 91.165586 
L 564.215369 86.388867 
L 569.881103 92.075872 
L 575.546836 89.361069 
L 581.212569 89.738688 
L 586.878303 87.424077 
L 592.544036 79.629595 
L 598.20977 85.001969 
L 603.875503 87.519832 
L 609.541236 87.712616 
L 615.20697 89.788691 
L 620.872703 91.669978 
L 626.538437 82.496958 
" clip-path="url(#pdf12746aa6)" style="fill: none; stroke: #008000; stroke-opacity: 0.2; stroke-linecap: round"/>
   </g>
   <g id="line2d_23">
    <path d="M 65.63083 303.234993 
L 71.296563 294.981834 
L 76.962297 278.944344 
L 82.62803 301.05044 
L 88.293764 324.742997 
L 93.959497 325.400209 
L 99.62523 342.168118 
L 105.290964 347.336975 
L 110.956697 339.018176 
L 116.622431 337.244909 
L 122.288164 344.163549 
L 127.953897 322.493476 
L 133.619631 331.453999 
L 139.285364 319.57624 
L 144.951098 339.694541 
L 150.616831 356.63037 
L 156.282564 352.644069 
L 161.948298 352.061341 
L 167.614031 362.317213 
L 173.279765 358.509291 
L 178.945498 336.833945 
L 184.611231 324.04803 
L 190.276965 333.250741 
L 195.942698 330.311327 
L 201.608432 335.958834 
L 207.274165 335.691891 
L 212.939898 337.078464 
L 218.605632 329.210923 
L 224.271365 313.128396 
L 229.937099 341.637474 
L 235.602832 309.620135 
L 241.268565 312.823728 
L 246.934299 315.066415 
L 252.600032 303.905743 
L 258.265766 296.837561 
L 263.931499 252.430227 
L 269.597232 277.939761 
L 275.262966 280.044069 
L 280.928699 291.346698 
L 286.594433 268.601061 
L 292.260166 284.848686 
L 297.925899 206.716076 
L 303.591633 235.645601 
L 309.257366 274.333339 
L 314.9231 246.358347 
L 320.588833 213.423866 
L 326.254566 269.552992 
L 331.9203 248.260335 
L 337.586033 220.868893 
L 343.251767 227.757575 
L 348.9175 217.082655 
L 354.583233 199.217978 
L 360.248967 246.494942 
L 365.9147 246.076849 
L 371.580434 220.578085 
L 377.246167 221.056717 
L 382.9119 241.459658 
L 388.577634 189.743695 
L 394.243367 206.864553 
L 399.909101 181.034236 
L 405.574834 152.534038 
L 411.240567 145.417849 
L 416.906301 157.698976 
L 422.572034 113.379265 
L 428.237768 120.458469 
L 433.903501 117.155096 
L 439.569234 127.89959 
L 445.234968 111.267488 
L 450.900701 104.550479 
L 456.566435 114.740766 
L 462.232168 106.107809 
L 467.897901 110.276068 
L 473.563635 129.578888 
L 479.229368 92.096264 
L 484.895102 99.31998 
L 490.560835 126.826201 
L 496.226568 95.700951 
L 501.892302 106.292359 
L 507.558035 103.234779 
L 513.223769 107.025126 
L 518.889502 91.137035 
L 524.555235 92.664829 
L 530.220969 89.188588 
L 535.886702 92.170288 
L 541.552436 91.561585 
L 547.218169 90.903314 
L 552.883902 90.703368 
L 558.549636 99.95723 
L 564.215369 92.253716 
L 569.881103 98.576633 
L 575.546836 93.767251 
L 581.212569 94.536785 
L 586.878303 89.28806 
L 592.544036 97.230876 
L 598.20977 80.911198 
L 603.875503 90.813844 
L 609.541236 89.167781 
L 615.20697 89.862539 
L 620.872703 83.987569 
L 626.538437 88.548371 
" clip-path="url(#pdf12746aa6)" style="fill: none; stroke: #008000; stroke-opacity: 0.2; stroke-linecap: round"/>
   </g>
   <g id="line2d_24">
    <path d="M 65.63083 332.443426 
L 71.296563 325.406338 
L 76.962297 322.455677 
L 82.62803 336.910078 
L 88.293764 363.622913 
L 93.959497 357.340072 
L 99.62523 374.284015 
L 105.290964 360.733603 
L 110.956697 354.158689 
L 116.622431 370.346424 
L 122.288164 366.586174 
L 127.953897 381.778067 
L 133.619631 377.571624 
L 139.285364 365.825526 
L 144.951098 366.810333 
L 150.616831 356.308871 
L 156.282564 353.904373 
L 161.948298 350.760754 
L 167.614031 349.995184 
L 173.279765 342.393942 
L 178.945498 348.143141 
L 184.611231 349.644913 
L 190.276965 333.83521 
L 195.942698 343.575492 
L 201.608432 333.820504 
L 207.274165 342.858734 
L 212.939898 320.856048 
L 218.605632 319.378331 
L 224.271365 316.809338 
L 229.937099 266.319258 
L 235.602832 312.365304 
L 241.268565 307.765301 
L 246.934299 322.173768 
L 252.600032 320.946318 
L 258.265766 312.438397 
L 263.931499 309.34274 
L 269.597232 312.384049 
L 275.262966 337.562505 
L 280.928699 334.436349 
L 286.594433 310.140496 
L 292.260166 319.258685 
L 297.925899 267.443939 
L 303.591633 285.49823 
L 309.257366 291.819308 
L 314.9231 300.757813 
L 320.588833 303.114009 
L 326.254566 306.018076 
L 331.9203 306.189137 
L 337.586033 312.231347 
L 343.251767 286.3809 
L 348.9175 299.031202 
L 354.583233 284.849612 
L 360.248967 298.892881 
L 365.9147 289.134273 
L 371.580434 273.277535 
L 377.246167 290.829836 
L 382.9119 247.011962 
L 388.577634 270.209685 
L 394.243367 280.660139 
L 399.909101 267.203657 
L 405.574834 264.525033 
L 411.240567 252.536605 
L 416.906301 212.604277 
L 422.572034 268.355058 
L 428.237768 275.21681 
L 433.903501 287.877895 
L 439.569234 297.592194 
L 445.234968 265.911992 
L 450.900701 210.306884 
L 456.566435 271.474284 
L 462.232168 243.142063 
L 467.897901 286.231267 
L 473.563635 280.229201 
L 479.229368 286.504181 
L 484.895102 224.919325 
L 490.560835 259.723214 
L 496.226568 257.637325 
L 501.892302 221.517609 
L 507.558035 231.479867 
L 513.223769 239.625892 
L 518.889502 230.398788 
L 524.555235 216.849486 
L 530.220969 166.456754 
L 535.886702 222.417752 
L 541.552436 210.659543 
L 547.218169 181.945698 
L 552.883902 197.091619 
L 558.549636 157.634369 
L 564.215369 174.741756 
L 569.881103 172.412588 
L 575.546836 151.289274 
L 581.212569 148.375874 
L 586.878303 149.828574 
L 592.544036 146.790019 
L 598.20977 131.846741 
L 603.875503 115.36718 
L 609.541236 127.039581 
L 615.20697 111.232293 
L 620.872703 128.174694 
L 626.538437 118.066987 
" clip-path="url(#pdf12746aa6)" style="fill: none; stroke: #008000; stroke-opacity: 0.2; stroke-linecap: round"/>
   </g>
   <g id="line2d_25">
    <path d="M 65.63083 57.0062 
L 71.296563 73.784794 
L 76.962297 107.930672 
L 82.62803 120.385004 
L 88.293764 148.932972 
L 93.959497 184.430762 
L 99.62523 209.212239 
L 105.290964 237.008614 
L 110.956697 255.612428 
L 116.622431 260.837498 
L 122.288164 273.824692 
L 127.953897 276.782655 
L 133.619631 291.921984 
L 139.285364 303.599677 
L 144.951098 299.384879 
L 150.616831 309.175409 
L 156.282564 316.388399 
L 161.948298 309.024385 
L 167.614031 300.044266 
L 173.279765 302.504524 
L 178.945498 317.839467 
L 184.611231 322.618968 
L 190.276965 324.990223 
L 195.942698 331.910169 
L 201.608432 334.801352 
L 207.274165 345.981077 
L 212.939898 344.933573 
L 218.605632 346.663013 
L 224.271365 340.816866 
L 229.937099 339.854242 
L 235.602832 346.586919 
L 241.268565 346.710989 
L 246.934299 351.967237 
L 252.600032 350.452329 
L 258.265766 349.866465 
L 263.931499 348.174975 
L 269.597232 355.86991 
L 275.262966 363.342063 
L 280.928699 366.637542 
L 286.594433 368.004502 
L 292.260166 375.39428 
L 297.925899 366.389078 
L 303.591633 372.570867 
L 309.257366 377.58461 
L 314.9231 376.790898 
L 320.588833 375.543605 
L 326.254566 381.743408 
L 331.9203 377.114488 
L 337.586033 379.29603 
L 343.251767 376.913792 
L 348.9175 374.488823 
L 354.583233 372.691436 
L 360.248967 379.25949 
L 365.9147 386.477597 
L 371.580434 381.101812 
L 377.246167 382.215797 
L 382.9119 384.238523 
L 388.577634 381.485179 
L 394.243367 384.794789 
L 399.909101 379.915335 
L 405.574834 379.119492 
L 411.240567 381.774812 
L 416.906301 380.812222 
L 422.572034 381.84 
L 428.237768 380.286447 
L 433.903501 382.752626 
L 439.569234 386.652997 
L 445.234968 386.454578 
L 450.900701 386.05252 
L 456.566435 388.742257 
L 462.232168 386.334858 
L 467.897901 385.926754 
L 473.563635 390.04 
L 479.229368 387.414356 
L 484.895102 384.627447 
L 490.560835 385.154103 
L 496.226568 379.788129 
L 501.892302 380.087656 
L 507.558035 380.561479 
L 513.223769 383.847376 
L 518.889502 380.225515 
L 524.555235 380.623933 
L 530.220969 383.109784 
L 535.886702 381.839292 
L 541.552436 382.305463 
L 547.218169 381.729228 
L 552.883902 383.675017 
L 558.549636 380.121152 
L 564.215369 381.21433 
L 569.881103 379.582669 
L 575.546836 379.75718 
L 581.212569 380.927627 
L 586.878303 378.255485 
L 592.544036 377.102013 
L 598.20977 374.143601 
L 603.875503 371.593279 
L 609.541236 377.493314 
L 615.20697 377.733295 
L 620.872703 382.060421 
L 626.538437 382.46129 
" clip-path="url(#pdf12746aa6)" style="fill: none; stroke: #7b3ab8; stroke-linecap: round"/>
   </g>
   <g id="patch_3">
    <path d="M 65.63 390.04 
L 65.63 57.0062 
" style="fill: none; stroke: #ffffff; stroke-width: 0.8; stroke-linejoin: miter; stroke-linecap: square"/>
   </g>
   <g id="patch_4">
    <path d="M 632.205 390.04 
L 632.205 57.0062 
" style="fill: none; stroke: #ffffff; stroke-width: 0.8; stroke-linejoin: miter; stroke-linecap: square"/>
   </g>
   <g id="patch_5">
    <path d="M 65.63 390.04 
L 632.205 390.04 
" style="fill: none; stroke: #ffffff; stroke-width: 0.8; stroke-linejoin: miter; stroke-linecap: square"/>
   </g>
   <g id="patch_6">
    <path d="M 65.63 57.0062 
L 632.205 57.0062 
" style="fill: none; stroke: #ffffff; stroke-width: 0.8; stroke-linejoin: miter; stroke-linecap: square"/>
   </g>
   <g id="legend_1">
    <g id="line2d_26">
     <path d="M 97.385341 41.274494 
L 105.715341 41.274494 
L 114.045341 41.274494 
" style="fill: none; stroke: #0000ff; stroke-width: 1.5; stroke-linecap: round"/>
    </g>
    <g id="text_22">
     <!-- Mean Reward -->
     <g style="fill: #262626" transform="translate(120.709341 44.189994) scale(0.0833 -0.0833)">
      <defs>
       <path id="DejaVuSans-4d" d="M 628 4666 
L 1569 4666 
L 2759 1491 
L 3956 4666 
L 4897 4666 
L 4897 0 
L 4281 0 
L 4281 4097 
L 3078 897 
L 2444 897 
L 1241 4097 
L 1241 0 
L 628 0 
L 628 4666 
z
" transform="scale(0.015625)"/>
       <path id="DejaVuSans-6e" d="M 3513 2113 
L 3513 0 
L 2938 0 
L 2938 2094 
Q 2938 2591 2744 2837 
Q 2550 3084 2163 3084 
Q 1697 3084 1428 2787 
Q 1159 2491 1159 1978 
L 1159 0 
L 581 0 
L 581 3500 
L 1159 3500 
L 1159 2956 
Q 1366 3272 1645 3428 
Q 1925 3584 2291 3584 
Q 2894 3584 3203 3211 
Q 3513 2838 3513 2113 
z
" transform="scale(0.015625)"/>
       <path id="DejaVuSans-20" transform="scale(0.015625)"/>
      </defs>
      <use xlink:href="#DejaVuSans-4d"/>
      <use xlink:href="#DejaVuSans-65" transform="translate(86.279297 0)"/>
      <use xlink:href="#DejaVuSans-61" transform="translate(147.802734 0)"/>
      <use xlink:href="#DejaVuSans-6e" transform="translate(209.082031 0)"/>
      <use xlink:href="#DejaVuSans-20" transform="translate(272.460938 0)"/>
      <use xlink:href="#DejaVuSans-52" transform="translate(304.248047 0)"/>
      <use xlink:href="#DejaVuSans-65" transform="translate(369.230469 0)"/>
      <use xlink:href="#DejaVuSans-77" transform="translate(430.753906 0)"/>
      <use xlink:href="#DejaVuSans-61" transform="translate(512.541016 0)"/>
      <use xlink:href="#DejaVuSans-72" transform="translate(573.820312 0)"/>
      <use xlink:href="#DejaVuSans-64" transform="translate(613.183594 0)"/>
     </g>
    </g>
    <g id="line2d_27">
     <path d="M 193.736108 41.274494 
L 202.066108 41.274494 
L 210.396108 41.274494 
" style="fill: none; stroke: #008000; stroke-opacity: 0.2; stroke-linecap: round"/>
    </g>
    <g id="text_23">
     <!-- Reward (individual runs) -->
     <g style="fill: #262626" transform="translate(217.060108 44.189994) scale(0.0833 -0.0833)">
      <defs>
       <path id="DejaVuSans-28" d="M 1984 4856 
Q 1566 4138 1362 3434 
Q 1159 2731 1159 2009 
Q 1159 1288 1364 580 
Q 1569 -128 1984 -844 
L 1484 -844 
Q 1016 -109 783 600 
Q 550 1309 550 2009 
Q 550 2706 781 3412 
Q 1013 4119 1484 4856 
L 1984 4856 
z
" transform="scale(0.015625)"/>
       <path id="DejaVuSans-69" d="M 603 3500 
L 1178 3500 
L 1178 0 
L 603 0 
L 603 3500 
z
M 603 4863 
L 1178 4863 
L 1178 4134 
L 603 4134 
L 603 4863 
z
" transform="scale(0.015625)"/>
       <path id="DejaVuSans-76" d="M 191 3500 
L 800 3500 
L 1894 563 
L 2988 3500 
L 3597 3500 
L 2284 0 
L 1503 0 
L 191 3500 
z
" transform="scale(0.015625)"/>
       <path id="DejaVuSans-75" d="M 544 1381 
L 544 3500 
L 1119 3500 
L 1119 1403 
Q 1119 906 1312 657 
Q 1506 409 1894 409 
Q 2359 409 2629 706 
Q 2900 1003 2900 1516 
L 2900 3500 
L 3475 3500 
L 3475 0 
L 2900 0 
L 2900 538 
Q 2691 219 2414 64 
Q 2138 -91 1772 -91 
Q 1169 -91 856 284 
Q 544 659 544 1381 
z
M 1991 3584 
L 1991 3584 
z
" transform="scale(0.015625)"/>
       <path id="DejaVuSans-6c" d="M 603 4863 
L 1178 4863 
L 1178 0 
L 603 0 
L 603 4863 
z
" transform="scale(0.015625)"/>
       <path id="DejaVuSans-29" d="M 513 4856 
L 1013 4856 
Q 1481 4119 1714 3412 
Q 1947 2706 1947 2009 
Q 1947 1309 1714 600 
Q 1481 -109 1013 -844 
L 513 -844 
Q 928 -128 1133 580 
Q 1338 1288 1338 2009 
Q 1338 2731 1133 3434 
Q 928 4138 513 4856 
z
" transform="scale(0.015625)"/>
      </defs>
      <use xlink:href="#DejaVuSans-52"/>
      <use xlink:href="#DejaVuSans-65" transform="translate(64.982422 0)"/>
      <use xlink:href="#DejaVuSans-77" transform="translate(126.505859 0)"/>
      <use xlink:href="#DejaVuSans-61" transform="translate(208.292969 0)"/>
      <use xlink:href="#DejaVuSans-72" transform="translate(269.572266 0)"/>
      <use xlink:href="#DejaVuSans-64" transform="translate(308.935547 0)"/>
      <use xlink:href="#DejaVuSans-20" transform="translate(372.412109 0)"/>
      <use xlink:href="#DejaVuSans-28" transform="translate(404.199219 0)"/>
      <use xlink:href="#DejaVuSans-69" transform="translate(443.212891 0)"/>
      <use xlink:href="#DejaVuSans-6e" transform="translate(470.996094 0)"/>
      <use xlink:href="#DejaVuSans-64" transform="translate(534.375 0)"/>
      <use xlink:href="#DejaVuSans-69" transform="translate(597.851562 0)"/>
      <use xlink:href="#DejaVuSans-76" transform="translate(625.634766 0)"/>
      <use xlink:href="#DejaVuSans-69" transform="translate(684.814453 0)"/>
      <use xlink:href="#DejaVuSans-64" transform="translate(712.597656 0)"/>
      <use xlink:href="#DejaVuSans-75" transform="translate(776.074219 0)"/>
      <use xlink:href="#DejaVuSans-61" transform="translate(839.453125 0)"/>
      <use xlink:href="#DejaVuSans-6c" transform="translate(900.732422 0)"/>
      <use xlink:href="#DejaVuSans-20" transform="translate(928.515625 0)"/>
      <use xlink:href="#DejaVuSans-72" transform="translate(960.302734 0)"/>
      <use xlink:href="#DejaVuSans-75" transform="translate(1001.416016 0)"/>
      <use xlink:href="#DejaVuSans-6e" transform="translate(1064.794922 0)"/>
      <use xlink:href="#DejaVuSans-73" transform="translate(1128.173828 0)"/>
      <use xlink:href="#DejaVuSans-29" transform="translate(1180.273438 0)"/>
     </g>
    </g>
    <g id="line2d_28">
     <path d="M 335.286236 41.274494 
L 343.616236 41.274494 
L 351.946236 41.274494 
" style="fill: none; stroke: #7b3ab8; stroke-linecap: round"/>
    </g>
    <g id="text_24">
     <!-- Entropy (normalized) -->
     <g style="fill: #262626" transform="translate(358.610236 44.189994) scale(0.0833 -0.0833)">
      <defs>
       <path id="DejaVuSans-45" d="M 628 4666 
L 3578 4666 
L 3578 4134 
L 1259 4134 
L 1259 2753 
L 3481 2753 
L 3481 2222 
L 1259 2222 
L 1259 531 
L 3634 531 
L 3634 0 
L 628 0 
L 628 4666 
z
" transform="scale(0.015625)"/>
       <path id="DejaVuSans-6f" d="M 1959 3097 
Q 1497 3097 1228 2736 
Q 959 2375 959 1747 
Q 959 1119 1226 758 
Q 1494 397 1959 397 
Q 2419 397 2687 759 
Q 2956 1122 2956 1747 
Q 2956 2369 2687 2733 
Q 2419 3097 1959 3097 
z
M 1959 3584 
Q 2709 3584 3137 3096 
Q 3566 2609 3566 1747 
Q 3566 888 3137 398 
Q 2709 -91 1959 -91 
Q 1206 -91 779 398 
Q 353 888 353 1747 
Q 353 2609 779 3096 
Q 1206 3584 1959 3584 
z
" transform="scale(0.015625)"/>
       <path id="DejaVuSans-79" d="M 2059 -325 
Q 1816 -950 1584 -1140 
Q 1353 -1331 966 -1331 
L 506 -1331 
L 506 -850 
L 844 -850 
Q 1081 -850 1212 -737 
Q 1344 -625 1503 -206 
L 1606 56 
L 191 3500 
L 800 3500 
L 1894 763 
L 2988 3500 
L 3597 3500 
L 2059 -325 
z
" transform="scale(0.015625)"/>
       <path id="DejaVuSans-6d" d="M 3328 2828 
Q 3544 3216 3844 3400 
Q 4144 3584 4550 3584 
Q 5097 3584 5394 3201 
Q 5691 2819 5691 2113 
L 5691 0 
L 5113 0 
L 5113 2094 
Q 5113 2597 4934 2840 
Q 4756 3084 4391 3084 
Q 3944 3084 3684 2787 
Q 3425 2491 3425 1978 
L 3425 0 
L 2847 0 
L 2847 2094 
Q 2847 2600 2669 2842 
Q 2491 3084 2119 3084 
Q 1678 3084 1418 2786 
Q 1159 2488 1159 1978 
L 1159 0 
L 581 0 
L 581 3500 
L 1159 3500 
L 1159 2956 
Q 1356 3278 1631 3431 
Q 1906 3584 2284 3584 
Q 2666 3584 2933 3390 
Q 3200 3197 3328 2828 
z
" transform="scale(0.015625)"/>
       <path id="DejaVuSans-7a" d="M 353 3500 
L 3084 3500 
L 3084 2975 
L 922 459 
L 3084 459 
L 3084 0 
L 275 0 
L 275 525 
L 2438 3041 
L 353 3041 
L 353 3500 
z
" transform="scale(0.015625)"/>
      </defs>
      <use xlink:href="#DejaVuSans-45"/>
      <use xlink:href="#DejaVuSans-6e" transform="translate(63.183594 0)"/>
      <use xlink:href="#DejaVuSans-74" transform="translate(126.5625 0)"/>
      <use xlink:href="#DejaVuSans-72" transform="translate(165.771484 0)"/>
      <use xlink:href="#DejaVuSans-6f" transform="translate(204.634766 0)"/>
      <use xlink:href="#DejaVuSans-70" transform="translate(265.816406 0)"/>
      <use xlink:href="#DejaVuSans-79" transform="translate(329.292969 0)"/>
      <use xlink:href="#DejaVuSans-20" transform="translate(388.472656 0)"/>
      <use xlink:href="#DejaVuSans-28" transform="translate(420.259766 0)"/>
      <use xlink:href="#DejaVuSans-6e" transform="translate(459.273438 0)"/>
      <use xlink:href="#DejaVuSans-6f" transform="translate(522.652344 0)"/>
      <use xlink:href="#DejaVuSans-72" transform="translate(583.833984 0)"/>
      <use xlink:href="#DejaVuSans-6d" transform="translate(623.197266 0)"/>
      <use xlink:href="#DejaVuSans-61" transform="translate(720.609375 0)"/>
      <use xlink:href="#DejaVuSans-6c" transform="translate(781.888672 0)"/>
      <use xlink:href="#DejaVuSans-69" transform="translate(809.671875 0)"/>
      <use xlink:href="#DejaVuSans-7a" transform="translate(837.455078 0)"/>
      <use xlink:href="#DejaVuSans-65" transform="translate(889.945312 0)"/>
      <use xlink:href="#DejaVuSans-64" transform="translate(951.46875 0)"/>
      <use xlink:href="#DejaVuSans-29" transform="translate(1014.945312 0)"/>
     </g>
    </g>
    <g id="patch_7">
     <path d="M 463.065833 44.189994 
L 479.725833 44.189994 
L 479.725833 38.358994 
L 463.065833 38.358994 
z
" style="fill: #0000ff; fill-opacity: 0.1"/>
    </g>
    <g id="text_25">
     <!-- Reward Standard Deviation -->
     <g style="fill: #262626" transform="translate(486.389833 44.189994) scale(0.0833 -0.0833)">
      <defs>
       <path id="DejaVuSans-44" d="M 1259 4147 
L 1259 519 
L 2022 519 
Q 2988 519 3436 956 
Q 3884 1394 3884 2338 
Q 3884 3275 3436 3711 
Q 2988 4147 2022 4147 
L 1259 4147 
z
M 628 4666 
L 1925 4666 
Q 3281 4666 3915 4102 
Q 4550 3538 4550 2338 
Q 4550 1131 3912 565 
Q 3275 0 1925 0 
L 628 0 
L 628 4666 
z
" transform="scale(0.015625)"/>
      </defs>
      <use xlink:href="#DejaVuSans-52"/>
      <use xlink:href="#DejaVuSans-65" transform="translate(64.982422 0)"/>
      <use xlink:href="#DejaVuSans-77" transform="translate(126.505859 0)"/>
      <use xlink:href="#DejaVuSans-61" transform="translate(208.292969 0)"/>
      <use xlink:href="#DejaVuSans-72" transform="translate(269.572266 0)"/>
      <use xlink:href="#DejaVuSans-64" transform="translate(308.935547 0)"/>
      <use xlink:href="#DejaVuSans-20" transform="translate(372.412109 0)"/>
      <use xlink:href="#DejaVuSans-53" transform="translate(404.199219 0)"/>
      <use xlink:href="#DejaVuSans-74" transform="translate(467.675781 0)"/>
      <use xlink:href="#DejaVuSans-61" transform="translate(506.884766 0)"/>
      <use xlink:href="#DejaVuSans-6e" transform="translate(568.164062 0)"/>
      <use xlink:href="#DejaVuSans-64" transform="translate(631.542969 0)"/>
      <use xlink:href="#DejaVuSans-61" transform="translate(695.019531 0)"/>
      <use xlink:href="#DejaVuSans-72" transform="translate(756.298828 0)"/>
      <use xlink:href="#DejaVuSans-64" transform="translate(795.662109 0)"/>
      <use xlink:href="#DejaVuSans-20" transform="translate(859.138672 0)"/>
      <use xlink:href="#DejaVuSans-44" transform="translate(890.925781 0)"/>
      <use xlink:href="#DejaVuSans-65" transform="translate(967.927734 0)"/>
      <use xlink:href="#DejaVuSans-76" transform="translate(1029.451172 0)"/>
      <use xlink:href="#DejaVuSans-69" transform="translate(1088.630859 0)"/>
      <use xlink:href="#DejaVuSans-61" transform="translate(1116.414062 0)"/>
      <use xlink:href="#DejaVuSans-74" transform="translate(1177.693359 0)"/>
      <use xlink:href="#DejaVuSans-69" transform="translate(1216.902344 0)"/>
      <use xlink:href="#DejaVuSans-6f" transform="translate(1244.685547 0)"/>
      <use xlink:href="#DejaVuSans-6e" transform="translate(1305.867188 0)"/>
     </g>
    </g>
   </g>
  </g>
  <g id="text_26">
   <!-- Rewards: Pendulum-v1 (Discretized) | CMU-Net (Alignment + Margin) -->
   <g style="fill: #262626" transform="translate(89.1675 17.810625) scale(0.12 -0.12)">
    <defs>
     <path id="DejaVuSans-Bold-52" d="M 2297 2597 
Q 2675 2597 2839 2737 
Q 3003 2878 3003 3200 
Q 3003 3519 2839 3656 
Q 2675 3794 2297 3794 
L 1791 3794 
L 1791 2597 
L 2297 2597 
z
M 1791 1766 
L 1791 0 
L 588 0 
L 588 4666 
L 2425 4666 
Q 3347 4666 3776 4356 
Q 4206 4047 4206 3378 
Q 4206 2916 3982 2619 
Q 3759 2322 3309 2181 
Q 3556 2125 3751 1926 
Q 3947 1728 4147 1325 
L 4800 0 
L 3519 0 
L 2950 1159 
Q 2778 1509 2601 1637 
Q 2425 1766 2131 1766 
L 1791 1766 
z
" transform="scale(0.015625)"/>
     <path id="DejaVuSans-Bold-65" d="M 4031 1759 
L 4031 1441 
L 1416 1441 
Q 1456 1047 1700 850 
Q 1944 653 2381 653 
Q 2734 653 3104 758 
Q 3475 863 3866 1075 
L 3866 213 
Q 3469 63 3072 -14 
Q 2675 -91 2278 -91 
Q 1328 -91 801 392 
Q 275 875 275 1747 
Q 275 2603 792 3093 
Q 1309 3584 2216 3584 
Q 3041 3584 3536 3087 
Q 4031 2591 4031 1759 
z
M 2881 2131 
Q 2881 2450 2695 2645 
Q 2509 2841 2209 2841 
Q 1884 2841 1681 2658 
Q 1478 2475 1428 2131 
L 2881 2131 
z
" transform="scale(0.015625)"/>
     <path id="DejaVuSans-Bold-77" d="M 225 3500 
L 1313 3500 
L 1900 1088 
L 2491 3500 
L 3425 3500 
L 4013 1113 
L 4603 3500 
L 5691 3500 
L 4769 0 
L 3547 0 
L 2956 2406 
L 2369 0 
L 1147 0 
L 225 3500 
z
" transform="scale(0.015625)"/>
     <path id="DejaVuSans-Bold-61" d="M 2106 1575 
Q 1756 1575 1579 1456 
Q 1403 1338 1403 1106 
Q 1403 894 1545 773 
Q 1688 653 1941 653 
Q 2256 653 2472 879 
Q 2688 1106 2688 1447 
L 2688 1575 
L 2106 1575 
z
M 3816 1997 
L 3816 0 
L 2688 0 
L 2688 519 
Q 2463 200 2181 54 
Q 1900 -91 1497 -91 
Q 953 -91 614 226 
Q 275 544 275 1050 
Q 275 1666 698 1953 
Q 1122 2241 2028 2241 
L 2688 2241 
L 2688 2328 
Q 2688 2594 2478 2717 
Q 2269 2841 1825 2841 
Q 1466 2841 1156 2769 
Q 847 2697 581 2553 
L 581 3406 
Q 941 3494 1303 3539 
Q 1666 3584 2028 3584 
Q 2975 3584 3395 3211 
Q 3816 2838 3816 1997 
z
" transform="scale(0.015625)"/>
     <path id="DejaVuSans-Bold-72" d="M 3138 2547 
Q 2991 2616 2845 2648 
Q 2700 2681 2553 2681 
Q 2122 2681 1889 2404 
Q 1656 2128 1656 1613 
L 1656 0 
L 538 0 
L 538 3500 
L 1656 3500 
L 1656 2925 
Q 1872 3269 2151 3426 
Q 2431 3584 2822 3584 
Q 2878 3584 2943 3579 
Q 3009 3575 3134 3559 
L 3138 2547 
z
" transform="scale(0.015625)"/>
     <path id="DejaVuSans-Bold-64" d="M 2919 2988 
L 2919 4863 
L 4044 4863 
L 4044 0 
L 2919 0 
L 2919 506 
Q 2688 197 2409 53 
Q 2131 -91 1766 -91 
Q 1119 -91 703 423 
Q 288 938 288 1747 
Q 288 2556 703 3070 
Q 1119 3584 1766 3584 
Q 2128 3584 2408 3439 
Q 2688 3294 2919 2988 
z
M 2181 722 
Q 2541 722 2730 984 
Q 2919 1247 2919 1747 
Q 2919 2247 2730 2509 
Q 2541 2772 2181 2772 
Q 1825 2772 1636 2509 
Q 1447 2247 1447 1747 
Q 1447 1247 1636 984 
Q 1825 722 2181 722 
z
" transform="scale(0.015625)"/>
     <path id="DejaVuSans-Bold-73" d="M 3272 3391 
L 3272 2541 
Q 2913 2691 2578 2766 
Q 2244 2841 1947 2841 
Q 1628 2841 1473 2761 
Q 1319 2681 1319 2516 
Q 1319 2381 1436 2309 
Q 1553 2238 1856 2203 
L 2053 2175 
Q 2913 2066 3209 1816 
Q 3506 1566 3506 1031 
Q 3506 472 3093 190 
Q 2681 -91 1863 -91 
Q 1516 -91 1145 -36 
Q 775 19 384 128 
L 384 978 
Q 719 816 1070 734 
Q 1422 653 1784 653 
Q 2113 653 2278 743 
Q 2444 834 2444 1013 
Q 2444 1163 2330 1236 
Q 2216 1309 1875 1350 
L 1678 1375 
Q 931 1469 631 1722 
Q 331 1975 331 2491 
Q 331 3047 712 3315 
Q 1094 3584 1881 3584 
Q 2191 3584 2531 3537 
Q 2872 3491 3272 3391 
z
" transform="scale(0.015625)"/>
     <path id="DejaVuSans-Bold-3a" d="M 716 3500 
L 1844 3500 
L 1844 2291 
L 716 2291 
L 716 3500 
z
M 716 1209 
L 1844 1209 
L 1844 0 
L 716 0 
L 716 1209 
z
" transform="scale(0.015625)"/>
     <path id="DejaVuSans-Bold-20" transform="scale(0.015625)"/>
     <path id="DejaVuSans-Bold-50" d="M 588 4666 
L 2584 4666 
Q 3475 4666 3951 4270 
Q 4428 3875 4428 3144 
Q 4428 2409 3951 2014 
Q 3475 1619 2584 1619 
L 1791 1619 
L 1791 0 
L 588 0 
L 588 4666 
z
M 1791 3794 
L 1791 2491 
L 2456 2491 
Q 2806 2491 2997 2661 
Q 3188 2831 3188 3144 
Q 3188 3456 2997 3625 
Q 2806 3794 2456 3794 
L 1791 3794 
z
" transform="scale(0.015625)"/>
     <path id="DejaVuSans-Bold-6e" d="M 4056 2131 
L 4056 0 
L 2931 0 
L 2931 347 
L 2931 1631 
Q 2931 2084 2911 2256 
Q 2891 2428 2841 2509 
Q 2775 2619 2662 2680 
Q 2550 2741 2406 2741 
Q 2056 2741 1856 2470 
Q 1656 2200 1656 1722 
L 1656 0 
L 538 0 
L 538 3500 
L 1656 3500 
L 1656 2988 
Q 1909 3294 2193 3439 
Q 2478 3584 2822 3584 
Q 3428 3584 3742 3212 
Q 4056 2841 4056 2131 
z
" transform="scale(0.015625)"/>
     <path id="DejaVuSans-Bold-75" d="M 500 1363 
L 500 3500 
L 1625 3500 
L 1625 3150 
Q 1625 2866 1622 2436 
Q 1619 2006 1619 1863 
Q 1619 1441 1641 1255 
Q 1663 1069 1716 984 
Q 1784 875 1895 815 
Q 2006 756 2150 756 
Q 2500 756 2700 1025 
Q 2900 1294 2900 1772 
L 2900 3500 
L 4019 3500 
L 4019 0 
L 2900 0 
L 2900 506 
Q 2647 200 2364 54 
Q 2081 -91 1741 -91 
Q 1134 -91 817 281 
Q 500 653 500 1363 
z
" transform="scale(0.015625)"/>
     <path id="DejaVuSans-Bold-6c" d="M 538 4863 
L 1656 4863 
L 1656 0 
L 538 0 
L 538 4863 
z
" transform="scale(0.015625)"/>
     <path id="DejaVuSans-Bold-6d" d="M 3781 2919 
Q 3994 3244 4286 3414 
Q 4578 3584 4928 3584 
Q 5531 3584 5847 3212 
Q 6163 2841 6163 2131 
L 6163 0 
L 5038 0 
L 5038 1825 
Q 5041 1866 5042 1909 
Q 5044 1953 5044 2034 
Q 5044 2406 4934 2573 
Q 4825 2741 4581 2741 
Q 4263 2741 4089 2478 
Q 3916 2216 3909 1719 
L 3909 0 
L 2784 0 
L 2784 1825 
Q 2784 2406 2684 2573 
Q 2584 2741 2328 2741 
Q 2006 2741 1831 2477 
Q 1656 2213 1656 1722 
L 1656 0 
L 531 0 
L 531 3500 
L 1656 3500 
L 1656 2988 
Q 1863 3284 2130 3434 
Q 2397 3584 2719 3584 
Q 3081 3584 3359 3409 
Q 3638 3234 3781 2919 
z
" transform="scale(0.015625)"/>
     <path id="DejaVuSans-Bold-2d" d="M 347 2297 
L 2309 2297 
L 2309 1388 
L 347 1388 
L 347 2297 
z
" transform="scale(0.015625)"/>
     <path id="DejaVuSans-Bold-76" d="M 97 3500 
L 1216 3500 
L 2088 1081 
L 2956 3500 
L 4078 3500 
L 2700 0 
L 1472 0 
L 97 3500 
z
" transform="scale(0.015625)"/>
     <path id="DejaVuSans-Bold-31" d="M 750 831 
L 1813 831 
L 1813 3847 
L 722 3622 
L 722 4441 
L 1806 4666 
L 2950 4666 
L 2950 831 
L 4013 831 
L 4013 0 
L 750 0 
L 750 831 
z
" transform="scale(0.015625)"/>
     <path id="DejaVuSans-Bold-28" d="M 2413 -844 
L 1484 -844 
Q 1006 -72 778 623 
Q 550 1319 550 2003 
Q 550 2688 779 3389 
Q 1009 4091 1484 4856 
L 2413 4856 
Q 2013 4116 1813 3408 
Q 1613 2700 1613 2009 
Q 1613 1319 1811 609 
Q 2009 -100 2413 -844 
z
" transform="scale(0.015625)"/>
     <path id="DejaVuSans-Bold-44" d="M 1791 3756 
L 1791 909 
L 2222 909 
Q 2959 909 3348 1275 
Q 3738 1641 3738 2338 
Q 3738 3031 3350 3393 
Q 2963 3756 2222 3756 
L 1791 3756 
z
M 588 4666 
L 1856 4666 
Q 2919 4666 3439 4514 
Q 3959 4363 4331 4000 
Q 4659 3684 4818 3271 
Q 4978 2859 4978 2338 
Q 4978 1809 4818 1395 
Q 4659 981 4331 666 
Q 3956 303 3431 151 
Q 2906 0 1856 0 
L 588 0 
L 588 4666 
z
" transform="scale(0.015625)"/>
     <path id="DejaVuSans-Bold-69" d="M 538 3500 
L 1656 3500 
L 1656 0 
L 538 0 
L 538 3500 
z
M 538 4863 
L 1656 4863 
L 1656 3950 
L 538 3950 
L 538 4863 
z
" transform="scale(0.015625)"/>
     <path id="DejaVuSans-Bold-63" d="M 3366 3391 
L 3366 2478 
Q 3138 2634 2908 2709 
Q 2678 2784 2431 2784 
Q 1963 2784 1702 2511 
Q 1441 2238 1441 1747 
Q 1441 1256 1702 982 
Q 1963 709 2431 709 
Q 2694 709 2930 787 
Q 3166 866 3366 1019 
L 3366 103 
Q 3103 6 2833 -42 
Q 2563 -91 2291 -91 
Q 1344 -91 809 395 
Q 275 881 275 1747 
Q 275 2613 809 3098 
Q 1344 3584 2291 3584 
Q 2566 3584 2833 3536 
Q 3100 3488 3366 3391 
z
" transform="scale(0.015625)"/>
     <path id="DejaVuSans-Bold-74" d="M 1759 4494 
L 1759 3500 
L 2913 3500 
L 2913 2700 
L 1759 2700 
L 1759 1216 
Q 1759 972 1856 886 
Q 1953 800 2241 800 
L 2816 800 
L 2816 0 
L 1856 0 
Q 1194 0 917 276 
Q 641 553 641 1216 
L 641 2700 
L 84 2700 
L 84 3500 
L 641 3500 
L 641 4494 
L 1759 4494 
z
" transform="scale(0.015625)"/>
     <path id="DejaVuSans-Bold-7a" d="M 366 3500 
L 3419 3500 
L 3419 2719 
L 1575 800 
L 3419 800 
L 3419 0 
L 288 0 
L 288 781 
L 2131 2700 
L 366 2700 
L 366 3500 
z
" transform="scale(0.015625)"/>
     <path id="DejaVuSans-Bold-29" d="M 513 -844 
Q 913 -100 1113 609 
Q 1313 1319 1313 2009 
Q 1313 2700 1113 3408 
Q 913 4116 513 4856 
L 1441 4856 
Q 1916 4091 2145 3389 
Q 2375 2688 2375 2003 
Q 2375 1319 2147 623 
Q 1919 -72 1441 -844 
L 513 -844 
z
" transform="scale(0.015625)"/>
     <path id="DejaVuSans-Bold-7c" d="M 1522 4891 
L 1522 -1509 
L 813 -1509 
L 813 4891 
L 1522 4891 
z
" transform="scale(0.015625)"/>
     <path id="DejaVuSans-Bold-43" d="M 4288 256 
Q 3956 84 3597 -3 
Q 3238 -91 2847 -91 
Q 1681 -91 1000 561 
Q 319 1213 319 2328 
Q 319 3447 1000 4098 
Q 1681 4750 2847 4750 
Q 3238 4750 3597 4662 
Q 3956 4575 4288 4403 
L 4288 3438 
Q 3953 3666 3628 3772 
Q 3303 3878 2944 3878 
Q 2300 3878 1931 3465 
Q 1563 3053 1563 2328 
Q 1563 1606 1931 1193 
Q 2300 781 2944 781 
Q 3303 781 3628 887 
Q 3953 994 4288 1222 
L 4288 256 
z
" transform="scale(0.015625)"/>
     <path id="DejaVuSans-Bold-4d" d="M 588 4666 
L 2119 4666 
L 3181 2169 
L 4250 4666 
L 5778 4666 
L 5778 0 
L 4641 0 
L 4641 3413 
L 3566 897 
L 2803 897 
L 1728 3413 
L 1728 0 
L 588 0 
L 588 4666 
z
" transform="scale(0.015625)"/>
     <path id="DejaVuSans-Bold-55" d="M 588 4666 
L 1791 4666 
L 1791 1869 
Q 1791 1291 1980 1042 
Q 2169 794 2597 794 
Q 3028 794 3217 1042 
Q 3406 1291 3406 1869 
L 3406 4666 
L 4609 4666 
L 4609 1869 
Q 4609 878 4112 393 
Q 3616 -91 2597 -91 
Q 1581 -91 1084 393 
Q 588 878 588 1869 
L 588 4666 
z
" transform="scale(0.015625)"/>
     <path id="DejaVuSans-Bold-4e" d="M 588 4666 
L 1931 4666 
L 3628 1466 
L 3628 4666 
L 4769 4666 
L 4769 0 
L 3425 0 
L 1728 3200 
L 1728 0 
L 588 0 
L 588 4666 
z
" transform="scale(0.015625)"/>
     <path id="DejaVuSans-Bold-41" d="M 3419 850 
L 1538 850 
L 1241 0 
L 31 0 
L 1759 4666 
L 3194 4666 
L 4922 0 
L 3713 0 
L 3419 850 
z
M 1838 1716 
L 3116 1716 
L 2478 3572 
L 1838 1716 
z
" transform="scale(0.015625)"/>
     <path id="DejaVuSans-Bold-67" d="M 2919 594 
Q 2688 288 2409 144 
Q 2131 0 1766 0 
Q 1125 0 706 504 
Q 288 1009 288 1791 
Q 288 2575 706 3076 
Q 1125 3578 1766 3578 
Q 2131 3578 2409 3434 
Q 2688 3291 2919 2981 
L 2919 3500 
L 4044 3500 
L 4044 353 
Q 4044 -491 3511 -936 
Q 2978 -1381 1966 -1381 
Q 1638 -1381 1331 -1331 
Q 1025 -1281 716 -1178 
L 716 -306 
Q 1009 -475 1290 -558 
Q 1572 -641 1856 -641 
Q 2406 -641 2662 -400 
Q 2919 -159 2919 353 
L 2919 594 
z
M 2181 2772 
Q 1834 2772 1640 2515 
Q 1447 2259 1447 1791 
Q 1447 1309 1634 1061 
Q 1822 813 2181 813 
Q 2531 813 2725 1069 
Q 2919 1325 2919 1791 
Q 2919 2259 2725 2515 
Q 2531 2772 2181 2772 
z
" transform="scale(0.015625)"/>
     <path id="DejaVuSans-Bold-2b" d="M 3053 4013 
L 3053 2375 
L 4684 2375 
L 4684 1638 
L 3053 1638 
L 3053 0 
L 2309 0 
L 2309 1638 
L 678 1638 
L 678 2375 
L 2309 2375 
L 2309 4013 
L 3053 4013 
z
" transform="scale(0.015625)"/>
    </defs>
    <use xlink:href="#DejaVuSans-Bold-52"/>
    <use xlink:href="#DejaVuSans-Bold-65" transform="translate(77.001953 0)"/>
    <use xlink:href="#DejaVuSans-Bold-77" transform="translate(144.824219 0)"/>
    <use xlink:href="#DejaVuSans-Bold-61" transform="translate(237.207031 0)"/>
    <use xlink:href="#DejaVuSans-Bold-72" transform="translate(304.6875 0)"/>
    <use xlink:href="#DejaVuSans-Bold-64" transform="translate(354.003906 0)"/>
    <use xlink:href="#DejaVuSans-Bold-73" transform="translate(425.585938 0)"/>
    <use xlink:href="#DejaVuSans-Bold-3a" transform="translate(485.107422 0)"/>
    <use xlink:href="#DejaVuSans-Bold-20" transform="translate(525.097656 0)"/>
    <use xlink:href="#DejaVuSans-Bold-50" transform="translate(559.912109 0)"/>
    <use xlink:href="#DejaVuSans-Bold-65" transform="translate(633.203125 0)"/>
    <use xlink:href="#DejaVuSans-Bold-6e" transform="translate(701.025391 0)"/>
    <use xlink:href="#DejaVuSans-Bold-64" transform="translate(772.216797 0)"/>
    <use xlink:href="#DejaVuSans-Bold-75" transform="translate(843.798828 0)"/>
    <use xlink:href="#DejaVuSans-Bold-6c" transform="translate(914.990234 0)"/>
    <use xlink:href="#DejaVuSans-Bold-75" transform="translate(949.267578 0)"/>
    <use xlink:href="#DejaVuSans-Bold-6d" transform="translate(1020.458984 0)"/>
    <use xlink:href="#DejaVuSans-Bold-2d" transform="translate(1124.658203 0)"/>
    <use xlink:href="#DejaVuSans-Bold-76" transform="translate(1166.162109 0)"/>
    <use xlink:href="#DejaVuSans-Bold-31" transform="translate(1231.347656 0)"/>
    <use xlink:href="#DejaVuSans-Bold-20" transform="translate(1300.927734 0)"/>
    <use xlink:href="#DejaVuSans-Bold-28" transform="translate(1335.742188 0)"/>
    <use xlink:href="#DejaVuSans-Bold-44" transform="translate(1381.445312 0)"/>
    <use xlink:href="#DejaVuSans-Bold-69" transform="translate(1464.453125 0)"/>
    <use xlink:href="#DejaVuSans-Bold-73" transform="translate(1498.730469 0)"/>
    <use xlink:href="#DejaVuSans-Bold-63" transform="translate(1558.251953 0)"/>
    <use xlink:href="#DejaVuSans-Bold-72" transform="translate(1617.529297 0)"/>
    <use xlink:href="#DejaVuSans-Bold-65" transform="translate(1666.845703 0)"/>
    <use xlink:href="#DejaVuSans-Bold-74" transform="translate(1734.667969 0)"/>
    <use xlink:href="#DejaVuSans-Bold-69" transform="translate(1782.470703 0)"/>
    <use xlink:href="#DejaVuSans-Bold-7a" transform="translate(1816.748047 0)"/>
    <use xlink:href="#DejaVuSans-Bold-65" transform="translate(1874.951172 0)"/>
    <use xlink:href="#DejaVuSans-Bold-64" transform="translate(1942.773438 0)"/>
    <use xlink:href="#DejaVuSans-Bold-29" transform="translate(2014.355469 0)"/>
    <use xlink:href="#DejaVuSans-Bold-20" transform="translate(2060.058594 0)"/>
    <use xlink:href="#DejaVuSans-Bold-7c" transform="translate(2094.873047 0)"/>
    <use xlink:href="#DejaVuSans-Bold-20" transform="translate(2131.396484 0)"/>
    <use xlink:href="#DejaVuSans-Bold-43" transform="translate(2166.210938 0)"/>
    <use xlink:href="#DejaVuSans-Bold-4d" transform="translate(2239.599609 0)"/>
    <use xlink:href="#DejaVuSans-Bold-55" transform="translate(2339.111328 0)"/>
    <use xlink:href="#DejaVuSans-Bold-2d" transform="translate(2420.3125 0)"/>
    <use xlink:href="#DejaVuSans-Bold-4e" transform="translate(2461.816406 0)"/>
    <use xlink:href="#DejaVuSans-Bold-65" transform="translate(2545.507812 0)"/>
    <use xlink:href="#DejaVuSans-Bold-74" transform="translate(2613.330078 0)"/>
    <use xlink:href="#DejaVuSans-Bold-20" transform="translate(2661.132812 0)"/>
    <use xlink:href="#DejaVuSans-Bold-28" transform="translate(2695.947266 0)"/>
    <use xlink:href="#DejaVuSans-Bold-41" transform="translate(2741.650391 0)"/>
    <use xlink:href="#DejaVuSans-Bold-6c" transform="translate(2819.042969 0)"/>
    <use xlink:href="#DejaVuSans-Bold-69" transform="translate(2853.320312 0)"/>
    <use xlink:href="#DejaVuSans-Bold-67" transform="translate(2887.597656 0)"/>
    <use xlink:href="#DejaVuSans-Bold-6e" transform="translate(2959.179688 0)"/>
    <use xlink:href="#DejaVuSans-Bold-6d" transform="translate(3030.371094 0)"/>
    <use xlink:href="#DejaVuSans-Bold-65" transform="translate(3134.570312 0)"/>
    <use xlink:href="#DejaVuSans-Bold-6e" transform="translate(3202.392578 0)"/>
    <use xlink:href="#DejaVuSans-Bold-74" transform="translate(3273.583984 0)"/>
    <use xlink:href="#DejaVuSans-Bold-20" transform="translate(3321.386719 0)"/>
    <use xlink:href="#DejaVuSans-Bold-2b" transform="translate(3356.201172 0)"/>
    <use xlink:href="#DejaVuSans-Bold-20" transform="translate(3439.990234 0)"/>
    <use xlink:href="#DejaVuSans-Bold-4d" transform="translate(3474.804688 0)"/>
    <use xlink:href="#DejaVuSans-Bold-61" transform="translate(3574.316406 0)"/>
    <use xlink:href="#DejaVuSans-Bold-72" transform="translate(3641.796875 0)"/>
    <use xlink:href="#DejaVuSans-Bold-67" transform="translate(3691.113281 0)"/>
    <use xlink:href="#DejaVuSans-Bold-69" transform="translate(3762.695312 0)"/>
    <use xlink:href="#DejaVuSans-Bold-6e" transform="translate(3796.972656 0)"/>
    <use xlink:href="#DejaVuSans-Bold-29" transform="translate(3868.164062 0)"/>
   </g>
  </g>
 </g>
 <defs>
  <clipPath id="pdf12746aa6">
   <rect x="65.63" y="57.0062" width="566.575" height="333.0338"/>
  </clipPath>
 </defs>
</svg>
