<?xml version="1.0" encoding="utf-8" standalone="no"?>
<!DOCTYPE svg PUBLIC "-//W3C//DTD SVG 1.1//EN"
  "http://www.w3.org/Graphics/SVG/1.1/DTD/svg11.dtd">
<svg xmlns:xlink="http://www.w3.org/1999/xlink" width="648pt" height="432pt" viewBox="0 0 648 432" xmlns="http://www.w3.org/2000/svg" version="1.1">
 <metadata>
  <rdf:RDF xmlns:dc="http://purl.org/dc/elements/1.1/" xmlns:cc="http://creativecommons.org/ns#" xmlns:rdf="http://www.w3.org/1999/02/22-rdf-syntax-ns#">
   <cc:Work>
    <dc:type rdf:resource="http://purl.org/dc/dcmitype/StillImage"/>
    <dc:date>2025-07-24T05:09:45.974421</dc:date>
    <dc:format>image/svg+xml</dc:format>
    <dc:creator>
     <cc:Agent>
      <dc:title>Matplotlib v3.10.0, https://matplotlib.org/</dc:title>
     </cc:Agent>
    </dc:creator>
   </cc:Work>
  </rdf:RDF>
 </metadata>
 <defs>
  <style type="text/css">*{stroke-linejoin: round; stroke-linecap: butt}</style>
 </defs>
 <g id="figure_1">
  <g id="patch_1">
   <path d="M 0 432 
L 648 432 
L 648 0 
L 0 0 
z
" style="fill: #ffffff"/>
  </g>
  <g id="axes_1">
   <g id="patch_2">
    <path d="M 65.63 390.04 
L 632.205 390.04 
L 632.205 57.0062 
L 65.63 57.0062 
z
" style="fill: #eaeaf2"/>
   </g>
   <g id="matplotlib.axis_1">
    <g id="xtick_1">
     <g id="line2d_1">
      <path d="M 65.63083 390.04 
L 65.63083 57.0062 
" clip-path="url(#p9c48243bac)" style="fill: none; stroke: #ffffff; stroke-width: 0.8; stroke-linecap: round"/>
     </g>
     <g id="text_1">
      <!-- 0.00 -->
      <g style="fill: #262626" transform="translate(54.498017 404.638438) scale(0.1 -0.1)">
       <defs>
        <path id="DejaVuSans-30" d="M 2034 4250 
Q 1547 4250 1301 3770 
Q 1056 3291 1056 2328 
Q 1056 1369 1301 889 
Q 1547 409 2034 409 
Q 2525 409 2770 889 
Q 3016 1369 3016 2328 
Q 3016 3291 2770 3770 
Q 2525 4250 2034 4250 
z
M 2034 4750 
Q 2819 4750 3233 4129 
Q 3647 3509 3647 2328 
Q 3647 1150 3233 529 
Q 2819 -91 2034 -91 
Q 1250 -91 836 529 
Q 422 1150 422 2328 
Q 422 3509 836 4129 
Q 1250 4750 2034 4750 
z
" transform="scale(0.015625)"/>
        <path id="DejaVuSans-2e" d="M 684 794 
L 1344 794 
L 1344 0 
L 684 0 
L 684 794 
z
" transform="scale(0.015625)"/>
       </defs>
       <use xlink:href="#DejaVuSans-30"/>
       <use xlink:href="#DejaVuSans-2e" transform="translate(63.623047 0)"/>
       <use xlink:href="#DejaVuSans-30" transform="translate(95.410156 0)"/>
       <use xlink:href="#DejaVuSans-30" transform="translate(159.033203 0)"/>
      </g>
     </g>
    </g>
    <g id="xtick_2">
     <g id="line2d_2">
      <path d="M 134.792615 390.04 
L 134.792615 57.0062 
" clip-path="url(#p9c48243bac)" style="fill: none; stroke: #ffffff; stroke-width: 0.8; stroke-linecap: round"/>
     </g>
     <g id="text_2">
      <!-- 0.25 -->
      <g style="fill: #262626" transform="translate(123.659802 404.638438) scale(0.1 -0.1)">
       <defs>
        <path id="DejaVuSans-32" d="M 1228 531 
L 3431 531 
L 3431 0 
L 469 0 
L 469 531 
Q 828 903 1448 1529 
Q 2069 2156 2228 2338 
Q 2531 2678 2651 2914 
Q 2772 3150 2772 3378 
Q 2772 3750 2511 3984 
Q 2250 4219 1831 4219 
Q 1534 4219 1204 4116 
Q 875 4013 500 3803 
L 500 4441 
Q 881 4594 1212 4672 
Q 1544 4750 1819 4750 
Q 2544 4750 2975 4387 
Q 3406 4025 3406 3419 
Q 3406 3131 3298 2873 
Q 3191 2616 2906 2266 
Q 2828 2175 2409 1742 
Q 1991 1309 1228 531 
z
" transform="scale(0.015625)"/>
        <path id="DejaVuSans-35" d="M 691 4666 
L 3169 4666 
L 3169 4134 
L 1269 4134 
L 1269 2991 
Q 1406 3038 1543 3061 
Q 1681 3084 1819 3084 
Q 2600 3084 3056 2656 
Q 3513 2228 3513 1497 
Q 3513 744 3044 326 
Q 2575 -91 1722 -91 
Q 1428 -91 1123 -41 
Q 819 9 494 109 
L 494 744 
Q 775 591 1075 516 
Q 1375 441 1709 441 
Q 2250 441 2565 725 
Q 2881 1009 2881 1497 
Q 2881 1984 2565 2268 
Q 2250 2553 1709 2553 
Q 1456 2553 1204 2497 
Q 953 2441 691 2322 
L 691 4666 
z
" transform="scale(0.015625)"/>
       </defs>
       <use xlink:href="#DejaVuSans-30"/>
       <use xlink:href="#DejaVuSans-2e" transform="translate(63.623047 0)"/>
       <use xlink:href="#DejaVuSans-32" transform="translate(95.410156 0)"/>
       <use xlink:href="#DejaVuSans-35" transform="translate(159.033203 0)"/>
      </g>
     </g>
    </g>
    <g id="xtick_3">
     <g id="line2d_3">
      <path d="M 203.954399 390.04 
L 203.954399 57.0062 
" clip-path="url(#p9c48243bac)" style="fill: none; stroke: #ffffff; stroke-width: 0.8; stroke-linecap: round"/>
     </g>
     <g id="text_3">
      <!-- 0.50 -->
      <g style="fill: #262626" transform="translate(192.821587 404.638438) scale(0.1 -0.1)">
       <use xlink:href="#DejaVuSans-30"/>
       <use xlink:href="#DejaVuSans-2e" transform="translate(63.623047 0)"/>
       <use xlink:href="#DejaVuSans-35" transform="translate(95.410156 0)"/>
       <use xlink:href="#DejaVuSans-30" transform="translate(159.033203 0)"/>
      </g>
     </g>
    </g>
    <g id="xtick_4">
     <g id="line2d_4">
      <path d="M 273.116184 390.04 
L 273.116184 57.0062 
" clip-path="url(#p9c48243bac)" style="fill: none; stroke: #ffffff; stroke-width: 0.8; stroke-linecap: round"/>
     </g>
     <g id="text_4">
      <!-- 0.75 -->
      <g style="fill: #262626" transform="translate(261.983371 404.638438) scale(0.1 -0.1)">
       <defs>
        <path id="DejaVuSans-37" d="M 525 4666 
L 3525 4666 
L 3525 4397 
L 1831 0 
L 1172 0 
L 2766 4134 
L 525 4134 
L 525 4666 
z
" transform="scale(0.015625)"/>
       </defs>
       <use xlink:href="#DejaVuSans-30"/>
       <use xlink:href="#DejaVuSans-2e" transform="translate(63.623047 0)"/>
       <use xlink:href="#DejaVuSans-37" transform="translate(95.410156 0)"/>
       <use xlink:href="#DejaVuSans-35" transform="translate(159.033203 0)"/>
      </g>
     </g>
    </g>
    <g id="xtick_5">
     <g id="line2d_5">
      <path d="M 342.277969 390.04 
L 342.277969 57.0062 
" clip-path="url(#p9c48243bac)" style="fill: none; stroke: #ffffff; stroke-width: 0.8; stroke-linecap: round"/>
     </g>
     <g id="text_5">
      <!-- 1.00 -->
      <g style="fill: #262626" transform="translate(331.145156 404.638438) scale(0.1 -0.1)">
       <defs>
        <path id="DejaVuSans-31" d="M 794 531 
L 1825 531 
L 1825 4091 
L 703 3866 
L 703 4441 
L 1819 4666 
L 2450 4666 
L 2450 531 
L 3481 531 
L 3481 0 
L 794 0 
L 794 531 
z
" transform="scale(0.015625)"/>
       </defs>
       <use xlink:href="#DejaVuSans-31"/>
       <use xlink:href="#DejaVuSans-2e" transform="translate(63.623047 0)"/>
       <use xlink:href="#DejaVuSans-30" transform="translate(95.410156 0)"/>
       <use xlink:href="#DejaVuSans-30" transform="translate(159.033203 0)"/>
      </g>
     </g>
    </g>
    <g id="xtick_6">
     <g id="line2d_6">
      <path d="M 411.439753 390.04 
L 411.439753 57.0062 
" clip-path="url(#p9c48243bac)" style="fill: none; stroke: #ffffff; stroke-width: 0.8; stroke-linecap: round"/>
     </g>
     <g id="text_6">
      <!-- 1.25 -->
      <g style="fill: #262626" transform="translate(400.306941 404.638438) scale(0.1 -0.1)">
       <use xlink:href="#DejaVuSans-31"/>
       <use xlink:href="#DejaVuSans-2e" transform="translate(63.623047 0)"/>
       <use xlink:href="#DejaVuSans-32" transform="translate(95.410156 0)"/>
       <use xlink:href="#DejaVuSans-35" transform="translate(159.033203 0)"/>
      </g>
     </g>
    </g>
    <g id="xtick_7">
     <g id="line2d_7">
      <path d="M 480.601538 390.04 
L 480.601538 57.0062 
" clip-path="url(#p9c48243bac)" style="fill: none; stroke: #ffffff; stroke-width: 0.8; stroke-linecap: round"/>
     </g>
     <g id="text_7">
      <!-- 1.50 -->
      <g style="fill: #262626" transform="translate(469.468726 404.638438) scale(0.1 -0.1)">
       <use xlink:href="#DejaVuSans-31"/>
       <use xlink:href="#DejaVuSans-2e" transform="translate(63.623047 0)"/>
       <use xlink:href="#DejaVuSans-35" transform="translate(95.410156 0)"/>
       <use xlink:href="#DejaVuSans-30" transform="translate(159.033203 0)"/>
      </g>
     </g>
    </g>
    <g id="xtick_8">
     <g id="line2d_8">
      <path d="M 549.763323 390.04 
L 549.763323 57.0062 
" clip-path="url(#p9c48243bac)" style="fill: none; stroke: #ffffff; stroke-width: 0.8; stroke-linecap: round"/>
     </g>
     <g id="text_8">
      <!-- 1.75 -->
      <g style="fill: #262626" transform="translate(538.63051 404.638438) scale(0.1 -0.1)">
       <use xlink:href="#DejaVuSans-31"/>
       <use xlink:href="#DejaVuSans-2e" transform="translate(63.623047 0)"/>
       <use xlink:href="#DejaVuSans-37" transform="translate(95.410156 0)"/>
       <use xlink:href="#DejaVuSans-35" transform="translate(159.033203 0)"/>
      </g>
     </g>
    </g>
    <g id="xtick_9">
     <g id="line2d_9">
      <path d="M 618.925107 390.04 
L 618.925107 57.0062 
" clip-path="url(#p9c48243bac)" style="fill: none; stroke: #ffffff; stroke-width: 0.8; stroke-linecap: round"/>
     </g>
     <g id="text_9">
      <!-- 2.00 -->
      <g style="fill: #262626" transform="translate(607.792295 404.638438) scale(0.1 -0.1)">
       <use xlink:href="#DejaVuSans-32"/>
       <use xlink:href="#DejaVuSans-2e" transform="translate(63.623047 0)"/>
       <use xlink:href="#DejaVuSans-30" transform="translate(95.410156 0)"/>
       <use xlink:href="#DejaVuSans-30" transform="translate(159.033203 0)"/>
      </g>
     </g>
    </g>
    <g id="text_10">
     <!-- Steps -->
     <g style="fill: #262626" transform="translate(334.927656 418.316562) scale(0.1 -0.1)">
      <defs>
       <path id="DejaVuSans-53" d="M 3425 4513 
L 3425 3897 
Q 3066 4069 2747 4153 
Q 2428 4238 2131 4238 
Q 1616 4238 1336 4038 
Q 1056 3838 1056 3469 
Q 1056 3159 1242 3001 
Q 1428 2844 1947 2747 
L 2328 2669 
Q 3034 2534 3370 2195 
Q 3706 1856 3706 1288 
Q 3706 609 3251 259 
Q 2797 -91 1919 -91 
Q 1588 -91 1214 -16 
Q 841 59 441 206 
L 441 856 
Q 825 641 1194 531 
Q 1563 422 1919 422 
Q 2459 422 2753 634 
Q 3047 847 3047 1241 
Q 3047 1584 2836 1778 
Q 2625 1972 2144 2069 
L 1759 2144 
Q 1053 2284 737 2584 
Q 422 2884 422 3419 
Q 422 4038 858 4394 
Q 1294 4750 2059 4750 
Q 2388 4750 2728 4690 
Q 3069 4631 3425 4513 
z
" transform="scale(0.015625)"/>
       <path id="DejaVuSans-74" d="M 1172 4494 
L 1172 3500 
L 2356 3500 
L 2356 3053 
L 1172 3053 
L 1172 1153 
Q 1172 725 1289 603 
Q 1406 481 1766 481 
L 2356 481 
L 2356 0 
L 1766 0 
Q 1100 0 847 248 
Q 594 497 594 1153 
L 594 3053 
L 172 3053 
L 172 3500 
L 594 3500 
L 594 4494 
L 1172 4494 
z
" transform="scale(0.015625)"/>
       <path id="DejaVuSans-65" d="M 3597 1894 
L 3597 1613 
L 953 1613 
Q 991 1019 1311 708 
Q 1631 397 2203 397 
Q 2534 397 2845 478 
Q 3156 559 3463 722 
L 3463 178 
Q 3153 47 2828 -22 
Q 2503 -91 2169 -91 
Q 1331 -91 842 396 
Q 353 884 353 1716 
Q 353 2575 817 3079 
Q 1281 3584 2069 3584 
Q 2775 3584 3186 3129 
Q 3597 2675 3597 1894 
z
M 3022 2063 
Q 3016 2534 2758 2815 
Q 2500 3097 2075 3097 
Q 1594 3097 1305 2825 
Q 1016 2553 972 2059 
L 3022 2063 
z
" transform="scale(0.015625)"/>
       <path id="DejaVuSans-70" d="M 1159 525 
L 1159 -1331 
L 581 -1331 
L 581 3500 
L 1159 3500 
L 1159 2969 
Q 1341 3281 1617 3432 
Q 1894 3584 2278 3584 
Q 2916 3584 3314 3078 
Q 3713 2572 3713 1747 
Q 3713 922 3314 415 
Q 2916 -91 2278 -91 
Q 1894 -91 1617 61 
Q 1341 213 1159 525 
z
M 3116 1747 
Q 3116 2381 2855 2742 
Q 2594 3103 2138 3103 
Q 1681 3103 1420 2742 
Q 1159 2381 1159 1747 
Q 1159 1113 1420 752 
Q 1681 391 2138 391 
Q 2594 391 2855 752 
Q 3116 1113 3116 1747 
z
" transform="scale(0.015625)"/>
       <path id="DejaVuSans-73" d="M 2834 3397 
L 2834 2853 
Q 2591 2978 2328 3040 
Q 2066 3103 1784 3103 
Q 1356 3103 1142 2972 
Q 928 2841 928 2578 
Q 928 2378 1081 2264 
Q 1234 2150 1697 2047 
L 1894 2003 
Q 2506 1872 2764 1633 
Q 3022 1394 3022 966 
Q 3022 478 2636 193 
Q 2250 -91 1575 -91 
Q 1294 -91 989 -36 
Q 684 19 347 128 
L 347 722 
Q 666 556 975 473 
Q 1284 391 1588 391 
Q 1994 391 2212 530 
Q 2431 669 2431 922 
Q 2431 1156 2273 1281 
Q 2116 1406 1581 1522 
L 1381 1569 
Q 847 1681 609 1914 
Q 372 2147 372 2553 
Q 372 3047 722 3315 
Q 1072 3584 1716 3584 
Q 2034 3584 2315 3537 
Q 2597 3491 2834 3397 
z
" transform="scale(0.015625)"/>
      </defs>
      <use xlink:href="#DejaVuSans-53"/>
      <use xlink:href="#DejaVuSans-74" transform="translate(63.476562 0)"/>
      <use xlink:href="#DejaVuSans-65" transform="translate(102.685547 0)"/>
      <use xlink:href="#DejaVuSans-70" transform="translate(164.208984 0)"/>
      <use xlink:href="#DejaVuSans-73" transform="translate(227.685547 0)"/>
     </g>
    </g>
    <g id="text_11">
     <!-- 1e6 -->
     <g style="fill: #262626" transform="translate(613.326875 417.316562) scale(0.1 -0.1)">
      <defs>
       <path id="DejaVuSans-36" d="M 2113 2584 
Q 1688 2584 1439 2293 
Q 1191 2003 1191 1497 
Q 1191 994 1439 701 
Q 1688 409 2113 409 
Q 2538 409 2786 701 
Q 3034 994 3034 1497 
Q 3034 2003 2786 2293 
Q 2538 2584 2113 2584 
z
M 3366 4563 
L 3366 3988 
Q 3128 4100 2886 4159 
Q 2644 4219 2406 4219 
Q 1781 4219 1451 3797 
Q 1122 3375 1075 2522 
Q 1259 2794 1537 2939 
Q 1816 3084 2150 3084 
Q 2853 3084 3261 2657 
Q 3669 2231 3669 1497 
Q 3669 778 3244 343 
Q 2819 -91 2113 -91 
Q 1303 -91 875 529 
Q 447 1150 447 2328 
Q 447 3434 972 4092 
Q 1497 4750 2381 4750 
Q 2619 4750 2861 4703 
Q 3103 4656 3366 4563 
z
" transform="scale(0.015625)"/>
      </defs>
      <use xlink:href="#DejaVuSans-31"/>
      <use xlink:href="#DejaVuSans-65" transform="translate(63.623047 0)"/>
      <use xlink:href="#DejaVuSans-36" transform="translate(125.146484 0)"/>
     </g>
    </g>
   </g>
   <g id="matplotlib.axis_2">
    <g id="ytick_1">
     <g id="line2d_10">
      <path d="M 65.63 390.04 
L 632.205 390.04 
" clip-path="url(#p9c48243bac)" style="fill: none; stroke: #ffffff; stroke-width: 0.8; stroke-linecap: round"/>
     </g>
     <g id="text_12">
      <!-- −1600 -->
      <g style="fill: #262626" transform="translate(24.800313 393.839219) scale(0.1 -0.1)">
       <defs>
        <path id="DejaVuSans-2212" d="M 678 2272 
L 4684 2272 
L 4684 1741 
L 678 1741 
L 678 2272 
z
" transform="scale(0.015625)"/>
       </defs>
       <use xlink:href="#DejaVuSans-2212"/>
       <use xlink:href="#DejaVuSans-31" transform="translate(83.789062 0)"/>
       <use xlink:href="#DejaVuSans-36" transform="translate(147.412109 0)"/>
       <use xlink:href="#DejaVuSans-30" transform="translate(211.035156 0)"/>
       <use xlink:href="#DejaVuSans-30" transform="translate(274.658203 0)"/>
      </g>
     </g>
    </g>
    <g id="ytick_2">
     <g id="line2d_11">
      <path d="M 65.63 348.410775 
L 632.205 348.410775 
" clip-path="url(#p9c48243bac)" style="fill: none; stroke: #ffffff; stroke-width: 0.8; stroke-linecap: round"/>
     </g>
     <g id="text_13">
      <!-- −1400 -->
      <g style="fill: #262626" transform="translate(24.800313 352.209994) scale(0.1 -0.1)">
       <defs>
        <path id="DejaVuSans-34" d="M 2419 4116 
L 825 1625 
L 2419 1625 
L 2419 4116 
z
M 2253 4666 
L 3047 4666 
L 3047 1625 
L 3713 1625 
L 3713 1100 
L 3047 1100 
L 3047 0 
L 2419 0 
L 2419 1100 
L 313 1100 
L 313 1709 
L 2253 4666 
z
" transform="scale(0.015625)"/>
       </defs>
       <use xlink:href="#DejaVuSans-2212"/>
       <use xlink:href="#DejaVuSans-31" transform="translate(83.789062 0)"/>
       <use xlink:href="#DejaVuSans-34" transform="translate(147.412109 0)"/>
       <use xlink:href="#DejaVuSans-30" transform="translate(211.035156 0)"/>
       <use xlink:href="#DejaVuSans-30" transform="translate(274.658203 0)"/>
      </g>
     </g>
    </g>
    <g id="ytick_3">
     <g id="line2d_12">
      <path d="M 65.63 306.78155 
L 632.205 306.78155 
" clip-path="url(#p9c48243bac)" style="fill: none; stroke: #ffffff; stroke-width: 0.8; stroke-linecap: round"/>
     </g>
     <g id="text_14">
      <!-- −1200 -->
      <g style="fill: #262626" transform="translate(24.800313 310.580769) scale(0.1 -0.1)">
       <use xlink:href="#DejaVuSans-2212"/>
       <use xlink:href="#DejaVuSans-31" transform="translate(83.789062 0)"/>
       <use xlink:href="#DejaVuSans-32" transform="translate(147.412109 0)"/>
       <use xlink:href="#DejaVuSans-30" transform="translate(211.035156 0)"/>
       <use xlink:href="#DejaVuSans-30" transform="translate(274.658203 0)"/>
      </g>
     </g>
    </g>
    <g id="ytick_4">
     <g id="line2d_13">
      <path d="M 65.63 265.152325 
L 632.205 265.152325 
" clip-path="url(#p9c48243bac)" style="fill: none; stroke: #ffffff; stroke-width: 0.8; stroke-linecap: round"/>
     </g>
     <g id="text_15">
      <!-- −1000 -->
      <g style="fill: #262626" transform="translate(24.800313 268.951544) scale(0.1 -0.1)">
       <use xlink:href="#DejaVuSans-2212"/>
       <use xlink:href="#DejaVuSans-31" transform="translate(83.789062 0)"/>
       <use xlink:href="#DejaVuSans-30" transform="translate(147.412109 0)"/>
       <use xlink:href="#DejaVuSans-30" transform="translate(211.035156 0)"/>
       <use xlink:href="#DejaVuSans-30" transform="translate(274.658203 0)"/>
      </g>
     </g>
    </g>
    <g id="ytick_5">
     <g id="line2d_14">
      <path d="M 65.63 223.5231 
L 632.205 223.5231 
" clip-path="url(#p9c48243bac)" style="fill: none; stroke: #ffffff; stroke-width: 0.8; stroke-linecap: round"/>
     </g>
     <g id="text_16">
      <!-- −800 -->
      <g style="fill: #262626" transform="translate(31.162813 227.322319) scale(0.1 -0.1)">
       <defs>
        <path id="DejaVuSans-38" d="M 2034 2216 
Q 1584 2216 1326 1975 
Q 1069 1734 1069 1313 
Q 1069 891 1326 650 
Q 1584 409 2034 409 
Q 2484 409 2743 651 
Q 3003 894 3003 1313 
Q 3003 1734 2745 1975 
Q 2488 2216 2034 2216 
z
M 1403 2484 
Q 997 2584 770 2862 
Q 544 3141 544 3541 
Q 544 4100 942 4425 
Q 1341 4750 2034 4750 
Q 2731 4750 3128 4425 
Q 3525 4100 3525 3541 
Q 3525 3141 3298 2862 
Q 3072 2584 2669 2484 
Q 3125 2378 3379 2068 
Q 3634 1759 3634 1313 
Q 3634 634 3220 271 
Q 2806 -91 2034 -91 
Q 1263 -91 848 271 
Q 434 634 434 1313 
Q 434 1759 690 2068 
Q 947 2378 1403 2484 
z
M 1172 3481 
Q 1172 3119 1398 2916 
Q 1625 2713 2034 2713 
Q 2441 2713 2670 2916 
Q 2900 3119 2900 3481 
Q 2900 3844 2670 4047 
Q 2441 4250 2034 4250 
Q 1625 4250 1398 4047 
Q 1172 3844 1172 3481 
z
" transform="scale(0.015625)"/>
       </defs>
       <use xlink:href="#DejaVuSans-2212"/>
       <use xlink:href="#DejaVuSans-38" transform="translate(83.789062 0)"/>
       <use xlink:href="#DejaVuSans-30" transform="translate(147.412109 0)"/>
       <use xlink:href="#DejaVuSans-30" transform="translate(211.035156 0)"/>
      </g>
     </g>
    </g>
    <g id="ytick_6">
     <g id="line2d_15">
      <path d="M 65.63 181.893875 
L 632.205 181.893875 
" clip-path="url(#p9c48243bac)" style="fill: none; stroke: #ffffff; stroke-width: 0.8; stroke-linecap: round"/>
     </g>
     <g id="text_17">
      <!-- −600 -->
      <g style="fill: #262626" transform="translate(31.162813 185.693094) scale(0.1 -0.1)">
       <use xlink:href="#DejaVuSans-2212"/>
       <use xlink:href="#DejaVuSans-36" transform="translate(83.789062 0)"/>
       <use xlink:href="#DejaVuSans-30" transform="translate(147.412109 0)"/>
       <use xlink:href="#DejaVuSans-30" transform="translate(211.035156 0)"/>
      </g>
     </g>
    </g>
    <g id="ytick_7">
     <g id="line2d_16">
      <path d="M 65.63 140.26465 
L 632.205 140.26465 
" clip-path="url(#p9c48243bac)" style="fill: none; stroke: #ffffff; stroke-width: 0.8; stroke-linecap: round"/>
     </g>
     <g id="text_18">
      <!-- −400 -->
      <g style="fill: #262626" transform="translate(31.162813 144.063869) scale(0.1 -0.1)">
       <use xlink:href="#DejaVuSans-2212"/>
       <use xlink:href="#DejaVuSans-34" transform="translate(83.789062 0)"/>
       <use xlink:href="#DejaVuSans-30" transform="translate(147.412109 0)"/>
       <use xlink:href="#DejaVuSans-30" transform="translate(211.035156 0)"/>
      </g>
     </g>
    </g>
    <g id="ytick_8">
     <g id="line2d_17">
      <path d="M 65.63 98.635425 
L 632.205 98.635425 
" clip-path="url(#p9c48243bac)" style="fill: none; stroke: #ffffff; stroke-width: 0.8; stroke-linecap: round"/>
     </g>
     <g id="text_19">
      <!-- −200 -->
      <g style="fill: #262626" transform="translate(31.162813 102.434644) scale(0.1 -0.1)">
       <use xlink:href="#DejaVuSans-2212"/>
       <use xlink:href="#DejaVuSans-32" transform="translate(83.789062 0)"/>
       <use xlink:href="#DejaVuSans-30" transform="translate(147.412109 0)"/>
       <use xlink:href="#DejaVuSans-30" transform="translate(211.035156 0)"/>
      </g>
     </g>
    </g>
    <g id="ytick_9">
     <g id="line2d_18">
      <path d="M 65.63 57.0062 
L 632.205 57.0062 
" clip-path="url(#p9c48243bac)" style="fill: none; stroke: #ffffff; stroke-width: 0.8; stroke-linecap: round"/>
     </g>
     <g id="text_20">
      <!-- 0 -->
      <g style="fill: #262626" transform="translate(52.2675 60.805419) scale(0.1 -0.1)">
       <use xlink:href="#DejaVuSans-30"/>
      </g>
     </g>
    </g>
    <g id="text_21">
     <!-- Reward -->
     <g style="fill: #262626" transform="translate(18.720625 242.144194) rotate(-90) scale(0.1 -0.1)">
      <defs>
       <path id="DejaVuSans-52" d="M 2841 2188 
Q 3044 2119 3236 1894 
Q 3428 1669 3622 1275 
L 4263 0 
L 3584 0 
L 2988 1197 
Q 2756 1666 2539 1819 
Q 2322 1972 1947 1972 
L 1259 1972 
L 1259 0 
L 628 0 
L 628 4666 
L 2053 4666 
Q 2853 4666 3247 4331 
Q 3641 3997 3641 3322 
Q 3641 2881 3436 2590 
Q 3231 2300 2841 2188 
z
M 1259 4147 
L 1259 2491 
L 2053 2491 
Q 2509 2491 2742 2702 
Q 2975 2913 2975 3322 
Q 2975 3731 2742 3939 
Q 2509 4147 2053 4147 
L 1259 4147 
z
" transform="scale(0.015625)"/>
       <path id="DejaVuSans-77" d="M 269 3500 
L 844 3500 
L 1563 769 
L 2278 3500 
L 2956 3500 
L 3675 769 
L 4391 3500 
L 4966 3500 
L 4050 0 
L 3372 0 
L 2619 2869 
L 1863 0 
L 1184 0 
L 269 3500 
z
" transform="scale(0.015625)"/>
       <path id="DejaVuSans-61" d="M 2194 1759 
Q 1497 1759 1228 1600 
Q 959 1441 959 1056 
Q 959 750 1161 570 
Q 1363 391 1709 391 
Q 2188 391 2477 730 
Q 2766 1069 2766 1631 
L 2766 1759 
L 2194 1759 
z
M 3341 1997 
L 3341 0 
L 2766 0 
L 2766 531 
Q 2569 213 2275 61 
Q 1981 -91 1556 -91 
Q 1019 -91 701 211 
Q 384 513 384 1019 
Q 384 1609 779 1909 
Q 1175 2209 1959 2209 
L 2766 2209 
L 2766 2266 
Q 2766 2663 2505 2880 
Q 2244 3097 1772 3097 
Q 1472 3097 1187 3025 
Q 903 2953 641 2809 
L 641 3341 
Q 956 3463 1253 3523 
Q 1550 3584 1831 3584 
Q 2591 3584 2966 3190 
Q 3341 2797 3341 1997 
z
" transform="scale(0.015625)"/>
       <path id="DejaVuSans-72" d="M 2631 2963 
Q 2534 3019 2420 3045 
Q 2306 3072 2169 3072 
Q 1681 3072 1420 2755 
Q 1159 2438 1159 1844 
L 1159 0 
L 581 0 
L 581 3500 
L 1159 3500 
L 1159 2956 
Q 1341 3275 1631 3429 
Q 1922 3584 2338 3584 
Q 2397 3584 2469 3576 
Q 2541 3569 2628 3553 
L 2631 2963 
z
" transform="scale(0.015625)"/>
       <path id="DejaVuSans-64" d="M 2906 2969 
L 2906 4863 
L 3481 4863 
L 3481 0 
L 2906 0 
L 2906 525 
Q 2725 213 2448 61 
Q 2172 -91 1784 -91 
Q 1150 -91 751 415 
Q 353 922 353 1747 
Q 353 2572 751 3078 
Q 1150 3584 1784 3584 
Q 2172 3584 2448 3432 
Q 2725 3281 2906 2969 
z
M 947 1747 
Q 947 1113 1208 752 
Q 1469 391 1925 391 
Q 2381 391 2643 752 
Q 2906 1113 2906 1747 
Q 2906 2381 2643 2742 
Q 2381 3103 1925 3103 
Q 1469 3103 1208 2742 
Q 947 2381 947 1747 
z
" transform="scale(0.015625)"/>
      </defs>
      <use xlink:href="#DejaVuSans-52"/>
      <use xlink:href="#DejaVuSans-65" transform="translate(64.982422 0)"/>
      <use xlink:href="#DejaVuSans-77" transform="translate(126.505859 0)"/>
      <use xlink:href="#DejaVuSans-61" transform="translate(208.292969 0)"/>
      <use xlink:href="#DejaVuSans-72" transform="translate(269.572266 0)"/>
      <use xlink:href="#DejaVuSans-64" transform="translate(308.935547 0)"/>
     </g>
    </g>
   </g>
   <g id="FillBetweenPolyCollection_1">
    <path d="M 65.63083 290.932836 
L 65.63083 319.112034 
L 71.296563 322.948801 
L 76.962297 307.182158 
L 82.62803 293.244016 
L 88.293764 285.892041 
L 93.959497 302.246096 
L 99.62523 276.298298 
L 105.290964 279.217426 
L 110.956697 274.930427 
L 116.622431 260.802938 
L 122.288164 250.527849 
L 127.953897 253.065699 
L 133.619631 241.825511 
L 139.285364 229.064917 
L 144.951098 210.954925 
L 150.616831 173.534949 
L 156.282564 147.108595 
L 161.948298 149.191899 
L 167.614031 144.663253 
L 173.279765 127.25757 
L 178.945498 128.784801 
L 184.611231 118.392501 
L 190.276965 130.823714 
L 195.942698 114.562384 
L 201.608432 116.423306 
L 207.274165 114.376078 
L 212.939898 105.944534 
L 218.605632 112.869099 
L 224.271365 129.953131 
L 229.937099 106.530433 
L 235.602832 129.031711 
L 241.268565 123.429439 
L 246.934299 119.606495 
L 252.600032 118.884945 
L 258.265766 110.581168 
L 263.931499 115.079131 
L 269.597232 113.700992 
L 275.262966 121.501814 
L 280.928699 109.453933 
L 286.594433 120.32052 
L 292.260166 112.953581 
L 297.925899 118.814353 
L 303.591633 99.151477 
L 309.257366 104.319147 
L 314.9231 104.516563 
L 320.588833 99.4058 
L 326.254566 95.644494 
L 331.9203 104.63705 
L 337.586033 107.723624 
L 343.251767 92.157676 
L 348.9175 141.365866 
L 354.583233 98.015346 
L 360.248967 99.517335 
L 365.9147 99.356872 
L 371.580434 121.304131 
L 377.246167 97.826211 
L 382.9119 106.088311 
L 388.577634 97.684301 
L 394.243367 98.702732 
L 399.909101 99.058985 
L 405.574834 97.729284 
L 411.240567 98.700277 
L 416.906301 95.724894 
L 422.572034 99.103935 
L 428.237768 95.669593 
L 433.903501 96.211556 
L 439.569234 95.250584 
L 445.234968 93.883276 
L 450.900701 118.478303 
L 456.566435 133.174396 
L 462.232168 133.705803 
L 467.897901 128.721666 
L 473.563635 130.374018 
L 479.229368 116.857997 
L 484.895102 115.002861 
L 490.560835 94.991526 
L 496.226568 95.853252 
L 501.892302 95.293199 
L 507.558035 90.547102 
L 513.223769 93.00821 
L 518.889502 94.67244 
L 524.555235 94.413606 
L 530.220969 94.279526 
L 535.886702 94.877476 
L 541.552436 95.865831 
L 547.218169 90.981445 
L 552.883902 97.016639 
L 558.549636 93.207459 
L 564.215369 93.906772 
L 569.881103 94.808132 
L 575.546836 92.599905 
L 581.212569 99.04871 
L 586.878303 101.235438 
L 592.544036 95.309046 
L 598.20977 92.780348 
L 603.875503 94.609351 
L 609.541236 95.097048 
L 615.20697 93.724908 
L 620.872703 93.505623 
L 626.538437 94.002262 
L 626.538437 89.402917 
L 626.538437 89.402917 
L 620.872703 85.631758 
L 615.20697 88.970652 
L 609.541236 85.358131 
L 603.875503 87.944438 
L 598.20977 82.764423 
L 592.544036 85.763453 
L 586.878303 89.184014 
L 581.212569 88.515875 
L 575.546836 87.486728 
L 569.881103 85.729395 
L 564.215369 83.46402 
L 558.549636 87.495332 
L 552.883902 84.279275 
L 547.218169 86.832825 
L 541.552436 86.416999 
L 535.886702 84.924169 
L 530.220969 87.213301 
L 524.555235 84.096715 
L 518.889502 89.99141 
L 513.223769 85.315185 
L 507.558035 88.136431 
L 501.892302 88.706982 
L 496.226568 85.331088 
L 490.560835 88.97528 
L 484.895102 81.86636 
L 479.229368 80.758633 
L 473.563635 78.928215 
L 467.897901 80.971372 
L 462.232168 82.299606 
L 456.566435 76.823714 
L 450.900701 81.964171 
L 445.234968 87.700455 
L 439.569234 92.947551 
L 433.903501 92.112726 
L 428.237768 90.386277 
L 422.572034 88.413338 
L 416.906301 90.895152 
L 411.240567 89.877207 
L 405.574834 86.360941 
L 399.909101 89.129414 
L 394.243367 86.928097 
L 388.577634 90.88833 
L 382.9119 90.772857 
L 377.246167 90.468876 
L 371.580434 80.896421 
L 365.9147 90.657657 
L 360.248967 90.866146 
L 354.583233 90.010185 
L 348.9175 80.014308 
L 343.251767 85.398897 
L 337.586033 89.627401 
L 331.9203 91.654875 
L 326.254566 86.280284 
L 320.588833 91.872657 
L 314.9231 89.252386 
L 309.257366 89.454989 
L 303.591633 89.193644 
L 297.925899 91.45728 
L 292.260166 92.144017 
L 286.594433 86.159773 
L 280.928699 95.802613 
L 275.262966 102.824488 
L 269.597232 94.871743 
L 263.931499 98.713186 
L 258.265766 95.414178 
L 252.600032 98.429862 
L 246.934299 104.150121 
L 241.268565 93.495442 
L 235.602832 101.520737 
L 229.937099 92.607682 
L 224.271365 98.397341 
L 218.605632 96.422338 
L 212.939898 94.350603 
L 207.274165 103.609603 
L 201.608432 108.388915 
L 195.942698 106.200773 
L 190.276965 99.492143 
L 184.611231 98.775102 
L 178.945498 107.738572 
L 173.279765 103.36459 
L 167.614031 119.153385 
L 161.948298 111.878918 
L 156.282564 114.106569 
L 150.616831 131.609224 
L 144.951098 140.84926 
L 139.285364 159.00859 
L 133.619631 176.036513 
L 127.953897 202.22405 
L 122.288164 214.417 
L 116.622431 228.48579 
L 110.956697 236.557645 
L 105.290964 252.611225 
L 99.62523 262.062622 
L 93.959497 268.349252 
L 88.293764 268.858733 
L 82.62803 279.866052 
L 76.962297 268.611083 
L 71.296563 285.371054 
L 65.63083 290.932836 
z
" clip-path="url(#p9c48243bac)" style="fill: #0000ff; fill-opacity: 0.1"/>
   </g>
   <g id="line2d_19">
    <path d="M 65.63083 305.022435 
L 71.296563 304.159928 
L 76.962297 287.896621 
L 82.62803 286.555034 
L 88.293764 277.375387 
L 93.959497 285.297674 
L 99.62523 269.18046 
L 105.290964 265.914326 
L 110.956697 255.744036 
L 116.622431 244.644364 
L 122.288164 232.472424 
L 127.953897 227.644874 
L 133.619631 208.931012 
L 139.285364 194.036753 
L 144.951098 175.902093 
L 150.616831 152.572087 
L 156.282564 130.607582 
L 161.948298 130.535408 
L 167.614031 131.908319 
L 173.279765 115.31108 
L 178.945498 118.261686 
L 184.611231 108.583802 
L 190.276965 115.157928 
L 195.942698 110.381578 
L 201.608432 112.40611 
L 207.274165 108.992841 
L 212.939898 100.147569 
L 218.605632 104.645718 
L 224.271365 114.175236 
L 229.937099 99.569058 
L 235.602832 115.276224 
L 241.268565 108.462441 
L 246.934299 111.878308 
L 252.600032 108.657404 
L 258.265766 102.997673 
L 263.931499 106.896158 
L 269.597232 104.286367 
L 275.262966 112.163151 
L 280.928699 102.628273 
L 286.594433 103.240147 
L 292.260166 102.548799 
L 297.925899 105.135817 
L 303.591633 94.17256 
L 309.257366 96.887068 
L 314.9231 96.884475 
L 320.588833 95.639229 
L 326.254566 90.962389 
L 331.9203 98.145962 
L 337.586033 98.675512 
L 343.251767 88.778287 
L 348.9175 110.690087 
L 354.583233 94.012766 
L 360.248967 95.191741 
L 365.9147 95.007265 
L 371.580434 101.100276 
L 377.246167 94.147543 
L 382.9119 98.430584 
L 388.577634 94.286315 
L 394.243367 92.815414 
L 399.909101 94.094199 
L 405.574834 92.045113 
L 411.240567 94.288742 
L 416.906301 93.310023 
L 422.572034 93.758636 
L 428.237768 93.027935 
L 433.903501 94.162141 
L 439.569234 94.099067 
L 445.234968 90.791865 
L 450.900701 100.221237 
L 456.566435 104.999055 
L 462.232168 108.002704 
L 467.897901 104.846519 
L 473.563635 104.651117 
L 479.229368 98.808315 
L 484.895102 98.434611 
L 490.560835 91.983403 
L 496.226568 90.59217 
L 501.892302 92.000091 
L 507.558035 89.341766 
L 513.223769 89.161698 
L 518.889502 92.331925 
L 524.555235 89.255161 
L 530.220969 90.746413 
L 535.886702 89.900823 
L 541.552436 91.141415 
L 547.218169 88.907135 
L 552.883902 90.647957 
L 558.549636 90.351395 
L 564.215369 88.685396 
L 569.881103 90.268764 
L 575.546836 90.043316 
L 581.212569 93.782292 
L 586.878303 95.209726 
L 592.544036 90.53625 
L 598.20977 87.772385 
L 603.875503 91.276895 
L 609.541236 90.227589 
L 615.20697 91.34778 
L 620.872703 89.56869 
L 626.538437 91.702589 
" clip-path="url(#p9c48243bac)" style="fill: none; stroke: #0000ff; stroke-width: 1.5; stroke-linecap: round"/>
   </g>
   <g id="line2d_20">
    <path d="M 65.63083 283.149486 
L 71.296563 324.027985 
L 76.962297 279.92302 
L 82.62803 294.213619 
L 88.293764 287.580258 
L 93.959497 309.504715 
L 99.62523 271.012384 
L 105.290964 257.865078 
L 110.956697 272.131874 
L 116.622431 259.684215 
L 122.288164 254.643824 
L 127.953897 256.555157 
L 133.619631 216.799001 
L 139.285364 183.52564 
L 144.951098 175.169697 
L 150.616831 150.098785 
L 156.282564 155.652583 
L 161.948298 137.313561 
L 167.614031 139.962861 
L 173.279765 111.065477 
L 178.945498 137.508004 
L 184.611231 97.29889 
L 190.276965 100.421472 
L 195.942698 106.403459 
L 201.608432 109.312944 
L 207.274165 110.928373 
L 212.939898 95.647238 
L 218.605632 93.752491 
L 224.271365 117.863385 
L 229.937099 96.847957 
L 235.602832 109.135637 
L 241.268565 133.365705 
L 246.934299 118.02219 
L 252.600032 98.93316 
L 258.265766 97.491004 
L 263.931499 99.037703 
L 269.597232 95.289302 
L 275.262966 100.482306 
L 280.928699 95.061583 
L 286.594433 87.146123 
L 292.260166 98.858188 
L 297.925899 90.585898 
L 303.591633 95.878638 
L 309.257366 98.998896 
L 314.9231 93.944842 
L 320.588833 91.938333 
L 326.254566 93.781669 
L 331.9203 88.534527 
L 337.586033 92.045512 
L 343.251767 93.522316 
L 348.9175 92.31921 
L 354.583233 93.078011 
L 360.248967 96.857491 
L 365.9147 99.238331 
L 371.580434 140.955019 
L 377.246167 92.393529 
L 382.9119 95.702564 
L 388.577634 91.549651 
L 394.243367 87.832425 
L 399.909101 93.102621 
L 405.574834 96.963027 
L 411.240567 91.99077 
L 416.906301 89.305521 
L 422.572034 91.798851 
L 428.237768 92.166454 
L 433.903501 92.897818 
L 439.569234 93.91194 
L 445.234968 89.895705 
L 450.900701 87.403485 
L 456.566435 90.144134 
L 462.232168 99.63563 
L 467.897901 89.953683 
L 473.563635 87.79755 
L 479.229368 91.972203 
L 484.895102 92.676442 
L 490.560835 94.82815 
L 496.226568 86.03294 
L 501.892302 91.170339 
L 507.558035 89.150798 
L 513.223769 88.054 
L 518.889502 91.799384 
L 524.555235 84.510785 
L 530.220969 88.193817 
L 535.886702 88.199898 
L 541.552436 85.204394 
L 547.218169 87.916468 
L 552.883902 90.947616 
L 558.549636 88.83671 
L 564.215369 88.794451 
L 569.881103 94.320518 
L 575.546836 88.135067 
L 581.212569 90.838918 
L 586.878303 94.624854 
L 592.544036 90.149787 
L 598.20977 81.161897 
L 603.875503 87.092942 
L 609.541236 81.290358 
L 615.20697 90.383866 
L 620.872703 89.959746 
L 626.538437 89.018803 
" clip-path="url(#p9c48243bac)" style="fill: none; stroke: #008000; stroke-opacity: 0.2; stroke-linecap: round"/>
   </g>
   <g id="line2d_21">
    <path d="M 65.63083 320.141855 
L 71.296563 299.395935 
L 76.962297 283.853097 
L 82.62803 274.996089 
L 88.293764 282.826462 
L 93.959497 280.161936 
L 99.62523 259.666831 
L 105.290964 266.764356 
L 110.956697 263.278208 
L 116.622431 248.638833 
L 122.288164 237.318098 
L 127.953897 233.300756 
L 133.619631 235.445712 
L 139.285364 218.266501 
L 144.951098 203.768712 
L 150.616831 166.504299 
L 156.282564 136.770321 
L 161.948298 154.093071 
L 167.614031 137.435911 
L 173.279765 123.987458 
L 178.945498 108.273038 
L 184.611231 105.21943 
L 190.276965 107.980433 
L 195.942698 113.907233 
L 201.608432 118.628922 
L 207.274165 117.280121 
L 212.939898 100.655651 
L 218.605632 110.349818 
L 224.271365 112.470193 
L 229.937099 101.03859 
L 235.602832 100.510532 
L 241.268565 96.632624 
L 246.934299 110.244539 
L 252.600032 107.969692 
L 258.265766 117.603193 
L 263.931499 105.766294 
L 269.597232 111.327753 
L 275.262966 118.395454 
L 280.928699 101.016034 
L 286.594433 102.528014 
L 292.260166 109.457436 
L 297.925899 92.612266 
L 303.591633 102.856814 
L 309.257366 88.89946 
L 314.9231 99.634157 
L 320.588833 102.844402 
L 326.254566 96.116155 
L 331.9203 102.695945 
L 337.586033 93.76017 
L 343.251767 86.870128 
L 348.9175 171.006961 
L 354.583233 99.428786 
L 360.248967 90.603557 
L 365.9147 95.482827 
L 371.580434 97.027994 
L 377.246167 94.639712 
L 382.9119 91.511735 
L 388.577634 94.045527 
L 394.243367 103.262856 
L 399.909101 97.619907 
L 405.574834 83.044993 
L 411.240567 102.061948 
L 416.906301 95.304613 
L 422.572034 91.549291 
L 428.237768 95.248025 
L 433.903501 96.509011 
L 439.569234 95.827914 
L 445.234968 89.389729 
L 450.900701 92.993634 
L 456.566435 90.509498 
L 462.232168 89.283272 
L 467.897901 92.652992 
L 473.563635 88.314735 
L 479.229368 85.860698 
L 484.895102 87.133984 
L 490.560835 90.595777 
L 496.226568 93.388883 
L 501.892302 98.464203 
L 507.558035 90.836644 
L 513.223769 86.825137 
L 518.889502 96.462398 
L 524.555235 84.908985 
L 530.220969 95.080007 
L 535.886702 82.78 
L 541.552436 89.195259 
L 547.218169 89.795586 
L 552.883902 81.099094 
L 558.549636 86.015684 
L 564.215369 88.960465 
L 569.881103 85.168665 
L 575.546836 87.838434 
L 581.212569 90.164329 
L 586.878303 87.930062 
L 592.544036 88.814911 
L 598.20977 88.759061 
L 603.875503 89.414308 
L 609.541236 93.050154 
L 615.20697 87.353064 
L 620.872703 87.561225 
L 626.538437 91.680427 
" clip-path="url(#p9c48243bac)" style="fill: none; stroke: #008000; stroke-opacity: 0.2; stroke-linecap: round"/>
   </g>
   <g id="line2d_22">
    <path d="M 65.63083 300.646579 
L 71.296563 291.487659 
L 76.962297 266.84382 
L 82.62803 289.914964 
L 88.293764 267.926627 
L 93.959497 257.336386 
L 99.62523 265.536622 
L 105.290964 249.150332 
L 110.956697 229.036328 
L 116.622431 215.984928 
L 122.288164 200.548672 
L 127.953897 180.927924 
L 133.619631 147.956018 
L 139.285364 129.605386 
L 144.951098 111.967235 
L 150.616831 114.43617 
L 156.282564 104.572287 
L 161.948298 99.967983 
L 167.614031 107.054865 
L 173.279765 93.761873 
L 178.945498 109.406625 
L 184.611231 106.04998 
L 190.276965 103.868772 
L 195.942698 105.286104 
L 201.608432 109.752088 
L 207.274165 103.779193 
L 212.939898 92.030599 
L 218.605632 104.734768 
L 224.271365 100.520679 
L 229.937099 87.782062 
L 235.602832 141.029636 
L 241.268565 110.47226 
L 246.934299 101.26703 
L 252.600032 128.180396 
L 258.265766 103.156798 
L 263.931499 97.116526 
L 269.597232 94.614702 
L 275.262966 102.937207 
L 280.928699 97.283208 
L 286.594433 99.358021 
L 292.260166 97.38823 
L 297.925899 103.346248 
L 303.591633 90.190201 
L 309.257366 105.05354 
L 314.9231 96.997424 
L 320.588833 93.571593 
L 326.254566 94.013742 
L 331.9203 100.870238 
L 337.586033 116.486796 
L 343.251767 89.673061 
L 348.9175 91.470548 
L 354.583233 91.762151 
L 360.248967 98.236468 
L 365.9147 98.890851 
L 371.580434 87.387808 
L 377.246167 99.017708 
L 382.9119 113.319691 
L 388.577634 94.985745 
L 394.243367 94.78638 
L 399.909101 94.369888 
L 405.574834 93.874752 
L 411.240567 92.717891 
L 416.906301 91.700325 
L 422.572034 102.132473 
L 428.237768 96.14098 
L 433.903501 94.597427 
L 439.569234 94.894903 
L 445.234968 95.148228 
L 450.900701 135.670588 
L 456.566435 160.614887 
L 462.232168 158.969303 
L 467.897901 152.069535 
L 473.563635 153.950251 
L 479.229368 134.602703 
L 484.895102 131.357748 
L 490.560835 96.21927 
L 496.226568 89.476753 
L 501.892302 89.350953 
L 507.558035 89.240017 
L 513.223769 96.796453 
L 518.889502 91.092901 
L 524.555235 89.341048 
L 530.220969 89.231776 
L 535.886702 97.803874 
L 541.552436 99.257734 
L 547.218169 91.426195 
L 552.883902 99.956629 
L 558.549636 92.528639 
L 564.215369 97.986225 
L 569.881103 95.724134 
L 575.546836 90.37645 
L 581.212569 104.219818 
L 586.878303 105.919522 
L 592.544036 99.755227 
L 598.20977 90.218225 
L 603.875503 95.714256 
L 609.541236 95.749217 
L 615.20697 94.016157 
L 620.872703 96.457721 
L 626.538437 94.807558 
" clip-path="url(#p9c48243bac)" style="fill: none; stroke: #008000; stroke-opacity: 0.2; stroke-linecap: round"/>
   </g>
   <g id="line2d_23">
    <path d="M 65.63083 320.698543 
L 71.296563 327.276419 
L 76.962297 324.302429 
L 82.62803 283.661856 
L 88.293764 282.026462 
L 93.959497 290.869373 
L 99.62523 281.247974 
L 105.290964 289.103078 
L 110.956697 277.112888 
L 116.622431 259.347826 
L 122.288164 241.397882 
L 127.953897 241.034772 
L 133.619631 239.165 
L 139.285364 219.341997 
L 144.951098 211.646157 
L 150.616831 175.575083 
L 156.282564 129.59807 
L 161.948298 140.775986 
L 167.614031 141.833286 
L 173.279765 126.03821 
L 178.945498 116.480395 
L 184.611231 126.879346 
L 190.276965 143.586071 
L 195.942698 110.173406 
L 201.608432 108.615745 
L 207.274165 102.44209 
L 212.939898 104.163655 
L 218.605632 97.870858 
L 224.271365 97.946941 
L 229.937099 103.990191 
L 235.602832 115.622952 
L 241.268565 89.917484 
L 246.934299 106.96031 
L 252.600032 105.733814 
L 258.265766 97.65386 
L 263.931499 116.196342 
L 269.597232 101.396339 
L 275.262966 125.330534 
L 280.928699 114.309044 
L 286.594433 91.560463 
L 292.260166 88.496266 
L 297.925899 128.14732 
L 303.591633 88.820223 
L 309.257366 87.416989 
L 314.9231 85.196383 
L 320.588833 95.01333 
L 326.254566 87.034713 
L 331.9203 92.702585 
L 337.586033 94.067537 
L 343.251767 83.507452 
L 348.9175 92.193628 
L 354.583233 88.296188 
L 360.248967 89.632874 
L 365.9147 87.212929 
L 371.580434 88.578557 
L 377.246167 88.21327 
L 382.9119 96.919717 
L 388.577634 100.278178 
L 394.243367 91.07203 
L 399.909101 85.415774 
L 405.574834 98.195159 
L 411.240567 89.05668 
L 416.906301 95.148726 
L 422.572034 86.403751 
L 428.237768 88.608997 
L 433.903501 90.897949 
L 439.569234 92.583461 
L 445.234968 86.304561 
L 450.900701 86.404862 
L 456.566435 84.777461 
L 462.232168 96.283654 
L 467.897901 89.936764 
L 473.563635 86.665246 
L 479.229368 92.411254 
L 484.895102 89.527159 
L 490.560835 88.402645 
L 496.226568 84.806134 
L 501.892302 90.878876 
L 507.558035 90.200154 
L 513.223769 86.733171 
L 518.889502 89.460101 
L 524.555235 88.702789 
L 530.220969 86.44256 
L 535.886702 88.442371 
L 541.552436 92.850081 
L 547.218169 89.987468 
L 552.883902 87.091409 
L 558.549636 90.162337 
L 564.215369 85.030721 
L 569.881103 91.315604 
L 575.546836 89.02448 
L 581.212569 91.360316 
L 586.878303 91.611897 
L 592.544036 86.474894 
L 598.20977 83.458218 
L 603.875503 89.476994 
L 609.541236 90.361432 
L 615.20697 91.59181 
L 620.872703 89.377309 
L 626.538437 93.684688 
" clip-path="url(#p9c48243bac)" style="fill: none; stroke: #008000; stroke-opacity: 0.2; stroke-linecap: round"/>
   </g>
   <g id="line2d_24">
    <path d="M 65.63083 300.475711 
L 71.296563 278.611641 
L 76.962297 284.560738 
L 82.62803 289.98864 
L 88.293764 266.517128 
L 93.959497 288.615959 
L 99.62523 268.43849 
L 105.290964 266.688784 
L 110.956697 237.160884 
L 116.622431 239.566016 
L 122.288164 228.453646 
L 127.953897 226.405764 
L 133.619631 205.289329 
L 139.285364 219.444244 
L 144.951098 176.958662 
L 150.616831 156.246096 
L 156.282564 126.444648 
L 161.948298 120.52644 
L 167.614031 133.254673 
L 173.279765 121.702384 
L 178.945498 119.64037 
L 184.611231 107.471361 
L 190.276965 119.932893 
L 195.942698 116.137689 
L 201.608432 115.720854 
L 207.274165 110.534427 
L 212.939898 108.2407 
L 218.605632 116.520655 
L 224.271365 142.074982 
L 229.937099 108.18649 
L 235.602832 110.082363 
L 241.268565 111.924131 
L 246.934299 122.897472 
L 252.600032 102.469956 
L 258.265766 99.083509 
L 263.931499 116.363928 
L 269.597232 118.803741 
L 275.262966 113.670253 
L 280.928699 105.471495 
L 286.594433 135.608112 
L 292.260166 118.543874 
L 297.925899 110.987352 
L 303.591633 93.116927 
L 309.257366 104.066455 
L 314.9231 108.649568 
L 320.588833 94.828484 
L 326.254566 83.865666 
L 331.9203 105.926516 
L 337.586033 97.017547 
L 343.251767 90.318476 
L 348.9175 106.460088 
L 354.583233 97.498691 
L 360.248967 100.628313 
L 365.9147 94.211386 
L 371.580434 91.552003 
L 377.246167 96.473498 
L 382.9119 94.699215 
L 388.577634 90.572476 
L 394.243367 87.123381 
L 399.909101 99.962807 
L 405.574834 88.147633 
L 411.240567 95.616422 
L 416.906301 95.090931 
L 422.572034 96.908816 
L 428.237768 92.97522 
L 433.903501 95.908502 
L 439.569234 93.277118 
L 445.234968 93.221104 
L 450.900701 98.633615 
L 456.566435 98.949297 
L 462.232168 95.841663 
L 467.897901 99.619621 
L 473.563635 106.5278 
L 479.229368 89.194717 
L 484.895102 91.477723 
L 490.560835 89.871171 
L 496.226568 99.256141 
L 501.892302 90.136082 
L 507.558035 87.281219 
L 513.223769 87.399725 
L 518.889502 92.84484 
L 524.555235 98.812197 
L 530.220969 94.783906 
L 535.886702 92.277971 
L 541.552436 89.199608 
L 547.218169 85.409957 
L 552.883902 94.145036 
L 558.549636 94.213608 
L 564.215369 82.65512 
L 569.881103 84.814897 
L 575.546836 94.84215 
L 581.212569 92.328081 
L 586.878303 95.962294 
L 592.544036 87.486429 
L 598.20977 95.264527 
L 603.875503 94.685974 
L 609.541236 90.686787 
L 615.20697 93.394002 
L 620.872703 84.487451 
L 626.538437 89.321471 
" clip-path="url(#p9c48243bac)" style="fill: none; stroke: #008000; stroke-opacity: 0.2; stroke-linecap: round"/>
   </g>
   <g id="line2d_25">
    <path d="M 65.63083 57.0062 
L 71.296563 72.833834 
L 76.962297 93.637444 
L 82.62803 107.592886 
L 88.293764 137.165194 
L 93.959497 156.449755 
L 99.62523 179.048326 
L 105.290964 210.519622 
L 110.956697 247.259785 
L 116.622431 267.08166 
L 122.288164 285.582012 
L 127.953897 305.194865 
L 133.619631 311.142705 
L 139.285364 314.010672 
L 144.951098 315.105598 
L 150.616831 309.094899 
L 156.282564 289.713853 
L 161.948298 301.745397 
L 167.614031 300.510262 
L 173.279765 297.131105 
L 178.945498 301.349842 
L 184.611231 305.132347 
L 190.276965 304.645562 
L 195.942698 313.807092 
L 201.608432 323.940623 
L 207.274165 325.760828 
L 212.939898 330.769424 
L 218.605632 336.086107 
L 224.271365 335.797835 
L 229.937099 340.619617 
L 235.602832 345.096793 
L 241.268565 344.297903 
L 246.934299 348.23709 
L 252.600032 350.166489 
L 258.265766 345.98367 
L 263.931499 346.125701 
L 269.597232 344.496739 
L 275.262966 354.457991 
L 280.928699 354.446978 
L 286.594433 356.193908 
L 292.260166 357.539457 
L 297.925899 359.110347 
L 303.591633 356.354449 
L 309.257366 362.807908 
L 314.9231 363.983629 
L 320.588833 365.503393 
L 326.254566 367.876685 
L 331.9203 371.045318 
L 337.586033 372.651332 
L 343.251767 367.126046 
L 348.9175 375.015146 
L 354.583233 367.70905 
L 360.248967 370.723135 
L 365.9147 373.194267 
L 371.580434 371.845092 
L 377.246167 377.587961 
L 382.9119 379.758456 
L 388.577634 377.658564 
L 394.243367 379.238623 
L 399.909101 383.805076 
L 405.574834 383.82181 
L 411.240567 383.53976 
L 416.906301 383.317472 
L 422.572034 381.269528 
L 428.237768 381.363675 
L 433.903501 381.733248 
L 439.569234 374.430313 
L 445.234968 371.156882 
L 450.900701 379.816855 
L 456.566435 375.959332 
L 462.232168 375.700721 
L 467.897901 379.20043 
L 473.563635 380.521807 
L 479.229368 381.070611 
L 484.895102 375.518054 
L 490.560835 375.407902 
L 496.226568 375.071291 
L 501.892302 382.65078 
L 507.558035 388.744151 
L 513.223769 387.26307 
L 518.889502 390.04 
L 524.555235 386.184005 
L 530.220969 388.648469 
L 535.886702 387.199714 
L 541.552436 384.684913 
L 547.218169 383.494744 
L 552.883902 380.457827 
L 558.549636 376.648809 
L 564.215369 377.600541 
L 569.881103 379.617428 
L 575.546836 382.921308 
L 581.212569 382.831621 
L 586.878303 380.891092 
L 592.544036 379.252208 
L 598.20977 381.659456 
L 603.875503 376.86831 
L 609.541236 375.79777 
L 615.20697 377.074841 
L 620.872703 373.373096 
L 626.538437 375.944758 
" clip-path="url(#p9c48243bac)" style="fill: none; stroke: #7b3ab8; stroke-linecap: round"/>
   </g>
   <g id="patch_3">
    <path d="M 65.63 390.04 
L 65.63 57.0062 
" style="fill: none; stroke: #ffffff; stroke-width: 0.8; stroke-linejoin: miter; stroke-linecap: square"/>
   </g>
   <g id="patch_4">
    <path d="M 632.205 390.04 
L 632.205 57.0062 
" style="fill: none; stroke: #ffffff; stroke-width: 0.8; stroke-linejoin: miter; stroke-linecap: square"/>
   </g>
   <g id="patch_5">
    <path d="M 65.63 390.04 
L 632.205 390.04 
" style="fill: none; stroke: #ffffff; stroke-width: 0.8; stroke-linejoin: miter; stroke-linecap: square"/>
   </g>
   <g id="patch_6">
    <path d="M 65.63 57.0062 
L 632.205 57.0062 
" style="fill: none; stroke: #ffffff; stroke-width: 0.8; stroke-linejoin: miter; stroke-linecap: square"/>
   </g>
   <g id="legend_1">
    <g id="line2d_26">
     <path d="M 97.385341 41.274494 
L 105.715341 41.274494 
L 114.045341 41.274494 
" style="fill: none; stroke: #0000ff; stroke-width: 1.5; stroke-linecap: round"/>
    </g>
    <g id="text_22">
     <!-- Mean Reward -->
     <g style="fill: #262626" transform="translate(120.709341 44.189994) scale(0.0833 -0.0833)">
      <defs>
       <path id="DejaVuSans-4d" d="M 628 4666 
L 1569 4666 
L 2759 1491 
L 3956 4666 
L 4897 4666 
L 4897 0 
L 4281 0 
L 4281 4097 
L 3078 897 
L 2444 897 
L 1241 4097 
L 1241 0 
L 628 0 
L 628 4666 
z
" transform="scale(0.015625)"/>
       <path id="DejaVuSans-6e" d="M 3513 2113 
L 3513 0 
L 2938 0 
L 2938 2094 
Q 2938 2591 2744 2837 
Q 2550 3084 2163 3084 
Q 1697 3084 1428 2787 
Q 1159 2491 1159 1978 
L 1159 0 
L 581 0 
L 581 3500 
L 1159 3500 
L 1159 2956 
Q 1366 3272 1645 3428 
Q 1925 3584 2291 3584 
Q 2894 3584 3203 3211 
Q 3513 2838 3513 2113 
z
" transform="scale(0.015625)"/>
       <path id="DejaVuSans-20" transform="scale(0.015625)"/>
      </defs>
      <use xlink:href="#DejaVuSans-4d"/>
      <use xlink:href="#DejaVuSans-65" transform="translate(86.279297 0)"/>
      <use xlink:href="#DejaVuSans-61" transform="translate(147.802734 0)"/>
      <use xlink:href="#DejaVuSans-6e" transform="translate(209.082031 0)"/>
      <use xlink:href="#DejaVuSans-20" transform="translate(272.460938 0)"/>
      <use xlink:href="#DejaVuSans-52" transform="translate(304.248047 0)"/>
      <use xlink:href="#DejaVuSans-65" transform="translate(369.230469 0)"/>
      <use xlink:href="#DejaVuSans-77" transform="translate(430.753906 0)"/>
      <use xlink:href="#DejaVuSans-61" transform="translate(512.541016 0)"/>
      <use xlink:href="#DejaVuSans-72" transform="translate(573.820312 0)"/>
      <use xlink:href="#DejaVuSans-64" transform="translate(613.183594 0)"/>
     </g>
    </g>
    <g id="line2d_27">
     <path d="M 193.736108 41.274494 
L 202.066108 41.274494 
L 210.396108 41.274494 
" style="fill: none; stroke: #008000; stroke-opacity: 0.2; stroke-linecap: round"/>
    </g>
    <g id="text_23">
     <!-- Reward (individual runs) -->
     <g style="fill: #262626" transform="translate(217.060108 44.189994) scale(0.0833 -0.0833)">
      <defs>
       <path id="DejaVuSans-28" d="M 1984 4856 
Q 1566 4138 1362 3434 
Q 1159 2731 1159 2009 
Q 1159 1288 1364 580 
Q 1569 -128 1984 -844 
L 1484 -844 
Q 1016 -109 783 600 
Q 550 1309 550 2009 
Q 550 2706 781 3412 
Q 1013 4119 1484 4856 
L 1984 4856 
z
" transform="scale(0.015625)"/>
       <path id="DejaVuSans-69" d="M 603 3500 
L 1178 3500 
L 1178 0 
L 603 0 
L 603 3500 
z
M 603 4863 
L 1178 4863 
L 1178 4134 
L 603 4134 
L 603 4863 
z
" transform="scale(0.015625)"/>
       <path id="DejaVuSans-76" d="M 191 3500 
L 800 3500 
L 1894 563 
L 2988 3500 
L 3597 3500 
L 2284 0 
L 1503 0 
L 191 3500 
z
" transform="scale(0.015625)"/>
       <path id="DejaVuSans-75" d="M 544 1381 
L 544 3500 
L 1119 3500 
L 1119 1403 
Q 1119 906 1312 657 
Q 1506 409 1894 409 
Q 2359 409 2629 706 
Q 2900 1003 2900 1516 
L 2900 3500 
L 3475 3500 
L 3475 0 
L 2900 0 
L 2900 538 
Q 2691 219 2414 64 
Q 2138 -91 1772 -91 
Q 1169 -91 856 284 
Q 544 659 544 1381 
z
M 1991 3584 
L 1991 3584 
z
" transform="scale(0.015625)"/>
       <path id="DejaVuSans-6c" d="M 603 4863 
L 1178 4863 
L 1178 0 
L 603 0 
L 603 4863 
z
" transform="scale(0.015625)"/>
       <path id="DejaVuSans-29" d="M 513 4856 
L 1013 4856 
Q 1481 4119 1714 3412 
Q 1947 2706 1947 2009 
Q 1947 1309 1714 600 
Q 1481 -109 1013 -844 
L 513 -844 
Q 928 -128 1133 580 
Q 1338 1288 1338 2009 
Q 1338 2731 1133 3434 
Q 928 4138 513 4856 
z
" transform="scale(0.015625)"/>
      </defs>
      <use xlink:href="#DejaVuSans-52"/>
      <use xlink:href="#DejaVuSans-65" transform="translate(64.982422 0)"/>
      <use xlink:href="#DejaVuSans-77" transform="translate(126.505859 0)"/>
      <use xlink:href="#DejaVuSans-61" transform="translate(208.292969 0)"/>
      <use xlink:href="#DejaVuSans-72" transform="translate(269.572266 0)"/>
      <use xlink:href="#DejaVuSans-64" transform="translate(308.935547 0)"/>
      <use xlink:href="#DejaVuSans-20" transform="translate(372.412109 0)"/>
      <use xlink:href="#DejaVuSans-28" transform="translate(404.199219 0)"/>
      <use xlink:href="#DejaVuSans-69" transform="translate(443.212891 0)"/>
      <use xlink:href="#DejaVuSans-6e" transform="translate(470.996094 0)"/>
      <use xlink:href="#DejaVuSans-64" transform="translate(534.375 0)"/>
      <use xlink:href="#DejaVuSans-69" transform="translate(597.851562 0)"/>
      <use xlink:href="#DejaVuSans-76" transform="translate(625.634766 0)"/>
      <use xlink:href="#DejaVuSans-69" transform="translate(684.814453 0)"/>
      <use xlink:href="#DejaVuSans-64" transform="translate(712.597656 0)"/>
      <use xlink:href="#DejaVuSans-75" transform="translate(776.074219 0)"/>
      <use xlink:href="#DejaVuSans-61" transform="translate(839.453125 0)"/>
      <use xlink:href="#DejaVuSans-6c" transform="translate(900.732422 0)"/>
      <use xlink:href="#DejaVuSans-20" transform="translate(928.515625 0)"/>
      <use xlink:href="#DejaVuSans-72" transform="translate(960.302734 0)"/>
      <use xlink:href="#DejaVuSans-75" transform="translate(1001.416016 0)"/>
      <use xlink:href="#DejaVuSans-6e" transform="translate(1064.794922 0)"/>
      <use xlink:href="#DejaVuSans-73" transform="translate(1128.173828 0)"/>
      <use xlink:href="#DejaVuSans-29" transform="translate(1180.273438 0)"/>
     </g>
    </g>
    <g id="line2d_28">
     <path d="M 335.286236 41.274494 
L 343.616236 41.274494 
L 351.946236 41.274494 
" style="fill: none; stroke: #7b3ab8; stroke-linecap: round"/>
    </g>
    <g id="text_24">
     <!-- Entropy (normalized) -->
     <g style="fill: #262626" transform="translate(358.610236 44.189994) scale(0.0833 -0.0833)">
      <defs>
       <path id="DejaVuSans-45" d="M 628 4666 
L 3578 4666 
L 3578 4134 
L 1259 4134 
L 1259 2753 
L 3481 2753 
L 3481 2222 
L 1259 2222 
L 1259 531 
L 3634 531 
L 3634 0 
L 628 0 
L 628 4666 
z
" transform="scale(0.015625)"/>
       <path id="DejaVuSans-6f" d="M 1959 3097 
Q 1497 3097 1228 2736 
Q 959 2375 959 1747 
Q 959 1119 1226 758 
Q 1494 397 1959 397 
Q 2419 397 2687 759 
Q 2956 1122 2956 1747 
Q 2956 2369 2687 2733 
Q 2419 3097 1959 3097 
z
M 1959 3584 
Q 2709 3584 3137 3096 
Q 3566 2609 3566 1747 
Q 3566 888 3137 398 
Q 2709 -91 1959 -91 
Q 1206 -91 779 398 
Q 353 888 353 1747 
Q 353 2609 779 3096 
Q 1206 3584 1959 3584 
z
" transform="scale(0.015625)"/>
       <path id="DejaVuSans-79" d="M 2059 -325 
Q 1816 -950 1584 -1140 
Q 1353 -1331 966 -1331 
L 506 -1331 
L 506 -850 
L 844 -850 
Q 1081 -850 1212 -737 
Q 1344 -625 1503 -206 
L 1606 56 
L 191 3500 
L 800 3500 
L 1894 763 
L 2988 3500 
L 3597 3500 
L 2059 -325 
z
" transform="scale(0.015625)"/>
       <path id="DejaVuSans-6d" d="M 3328 2828 
Q 3544 3216 3844 3400 
Q 4144 3584 4550 3584 
Q 5097 3584 5394 3201 
Q 5691 2819 5691 2113 
L 5691 0 
L 5113 0 
L 5113 2094 
Q 5113 2597 4934 2840 
Q 4756 3084 4391 3084 
Q 3944 3084 3684 2787 
Q 3425 2491 3425 1978 
L 3425 0 
L 2847 0 
L 2847 2094 
Q 2847 2600 2669 2842 
Q 2491 3084 2119 3084 
Q 1678 3084 1418 2786 
Q 1159 2488 1159 1978 
L 1159 0 
L 581 0 
L 581 3500 
L 1159 3500 
L 1159 2956 
Q 1356 3278 1631 3431 
Q 1906 3584 2284 3584 
Q 2666 3584 2933 3390 
Q 3200 3197 3328 2828 
z
" transform="scale(0.015625)"/>
       <path id="DejaVuSans-7a" d="M 353 3500 
L 3084 3500 
L 3084 2975 
L 922 459 
L 3084 459 
L 3084 0 
L 275 0 
L 275 525 
L 2438 3041 
L 353 3041 
L 353 3500 
z
" transform="scale(0.015625)"/>
      </defs>
      <use xlink:href="#DejaVuSans-45"/>
      <use xlink:href="#DejaVuSans-6e" transform="translate(63.183594 0)"/>
      <use xlink:href="#DejaVuSans-74" transform="translate(126.5625 0)"/>
      <use xlink:href="#DejaVuSans-72" transform="translate(165.771484 0)"/>
      <use xlink:href="#DejaVuSans-6f" transform="translate(204.634766 0)"/>
      <use xlink:href="#DejaVuSans-70" transform="translate(265.816406 0)"/>
      <use xlink:href="#DejaVuSans-79" transform="translate(329.292969 0)"/>
      <use xlink:href="#DejaVuSans-20" transform="translate(388.472656 0)"/>
      <use xlink:href="#DejaVuSans-28" transform="translate(420.259766 0)"/>
      <use xlink:href="#DejaVuSans-6e" transform="translate(459.273438 0)"/>
      <use xlink:href="#DejaVuSans-6f" transform="translate(522.652344 0)"/>
      <use xlink:href="#DejaVuSans-72" transform="translate(583.833984 0)"/>
      <use xlink:href="#DejaVuSans-6d" transform="translate(623.197266 0)"/>
      <use xlink:href="#DejaVuSans-61" transform="translate(720.609375 0)"/>
      <use xlink:href="#DejaVuSans-6c" transform="translate(781.888672 0)"/>
      <use xlink:href="#DejaVuSans-69" transform="translate(809.671875 0)"/>
      <use xlink:href="#DejaVuSans-7a" transform="translate(837.455078 0)"/>
      <use xlink:href="#DejaVuSans-65" transform="translate(889.945312 0)"/>
      <use xlink:href="#DejaVuSans-64" transform="translate(951.46875 0)"/>
      <use xlink:href="#DejaVuSans-29" transform="translate(1014.945312 0)"/>
     </g>
    </g>
    <g id="patch_7">
     <path d="M 463.065833 44.189994 
L 479.725833 44.189994 
L 479.725833 38.358994 
L 463.065833 38.358994 
z
" style="fill: #0000ff; fill-opacity: 0.1"/>
    </g>
    <g id="text_25">
     <!-- Reward Standard Deviation -->
     <g style="fill: #262626" transform="translate(486.389833 44.189994) scale(0.0833 -0.0833)">
      <defs>
       <path id="DejaVuSans-44" d="M 1259 4147 
L 1259 519 
L 2022 519 
Q 2988 519 3436 956 
Q 3884 1394 3884 2338 
Q 3884 3275 3436 3711 
Q 2988 4147 2022 4147 
L 1259 4147 
z
M 628 4666 
L 1925 4666 
Q 3281 4666 3915 4102 
Q 4550 3538 4550 2338 
Q 4550 1131 3912 565 
Q 3275 0 1925 0 
L 628 0 
L 628 4666 
z
" transform="scale(0.015625)"/>
      </defs>
      <use xlink:href="#DejaVuSans-52"/>
      <use xlink:href="#DejaVuSans-65" transform="translate(64.982422 0)"/>
      <use xlink:href="#DejaVuSans-77" transform="translate(126.505859 0)"/>
      <use xlink:href="#DejaVuSans-61" transform="translate(208.292969 0)"/>
      <use xlink:href="#DejaVuSans-72" transform="translate(269.572266 0)"/>
      <use xlink:href="#DejaVuSans-64" transform="translate(308.935547 0)"/>
      <use xlink:href="#DejaVuSans-20" transform="translate(372.412109 0)"/>
      <use xlink:href="#DejaVuSans-53" transform="translate(404.199219 0)"/>
      <use xlink:href="#DejaVuSans-74" transform="translate(467.675781 0)"/>
      <use xlink:href="#DejaVuSans-61" transform="translate(506.884766 0)"/>
      <use xlink:href="#DejaVuSans-6e" transform="translate(568.164062 0)"/>
      <use xlink:href="#DejaVuSans-64" transform="translate(631.542969 0)"/>
      <use xlink:href="#DejaVuSans-61" transform="translate(695.019531 0)"/>
      <use xlink:href="#DejaVuSans-72" transform="translate(756.298828 0)"/>
      <use xlink:href="#DejaVuSans-64" transform="translate(795.662109 0)"/>
      <use xlink:href="#DejaVuSans-20" transform="translate(859.138672 0)"/>
      <use xlink:href="#DejaVuSans-44" transform="translate(890.925781 0)"/>
      <use xlink:href="#DejaVuSans-65" transform="translate(967.927734 0)"/>
      <use xlink:href="#DejaVuSans-76" transform="translate(1029.451172 0)"/>
      <use xlink:href="#DejaVuSans-69" transform="translate(1088.630859 0)"/>
      <use xlink:href="#DejaVuSans-61" transform="translate(1116.414062 0)"/>
      <use xlink:href="#DejaVuSans-74" transform="translate(1177.693359 0)"/>
      <use xlink:href="#DejaVuSans-69" transform="translate(1216.902344 0)"/>
      <use xlink:href="#DejaVuSans-6f" transform="translate(1244.685547 0)"/>
      <use xlink:href="#DejaVuSans-6e" transform="translate(1305.867188 0)"/>
     </g>
    </g>
   </g>
  </g>
  <g id="text_26">
   <!-- Rewards: Pendulum-v1 (Discretized) | CMU-Net (Alignment) -->
   <g style="fill: #262626" transform="translate(121.974375 17.810625) scale(0.12 -0.12)">
    <defs>
     <path id="DejaVuSans-Bold-52" d="M 2297 2597 
Q 2675 2597 2839 2737 
Q 3003 2878 3003 3200 
Q 3003 3519 2839 3656 
Q 2675 3794 2297 3794 
L 1791 3794 
L 1791 2597 
L 2297 2597 
z
M 1791 1766 
L 1791 0 
L 588 0 
L 588 4666 
L 2425 4666 
Q 3347 4666 3776 4356 
Q 4206 4047 4206 3378 
Q 4206 2916 3982 2619 
Q 3759 2322 3309 2181 
Q 3556 2125 3751 1926 
Q 3947 1728 4147 1325 
L 4800 0 
L 3519 0 
L 2950 1159 
Q 2778 1509 2601 1637 
Q 2425 1766 2131 1766 
L 1791 1766 
z
" transform="scale(0.015625)"/>
     <path id="DejaVuSans-Bold-65" d="M 4031 1759 
L 4031 1441 
L 1416 1441 
Q 1456 1047 1700 850 
Q 1944 653 2381 653 
Q 2734 653 3104 758 
Q 3475 863 3866 1075 
L 3866 213 
Q 3469 63 3072 -14 
Q 2675 -91 2278 -91 
Q 1328 -91 801 392 
Q 275 875 275 1747 
Q 275 2603 792 3093 
Q 1309 3584 2216 3584 
Q 3041 3584 3536 3087 
Q 4031 2591 4031 1759 
z
M 2881 2131 
Q 2881 2450 2695 2645 
Q 2509 2841 2209 2841 
Q 1884 2841 1681 2658 
Q 1478 2475 1428 2131 
L 2881 2131 
z
" transform="scale(0.015625)"/>
     <path id="DejaVuSans-Bold-77" d="M 225 3500 
L 1313 3500 
L 1900 1088 
L 2491 3500 
L 3425 3500 
L 4013 1113 
L 4603 3500 
L 5691 3500 
L 4769 0 
L 3547 0 
L 2956 2406 
L 2369 0 
L 1147 0 
L 225 3500 
z
" transform="scale(0.015625)"/>
     <path id="DejaVuSans-Bold-61" d="M 2106 1575 
Q 1756 1575 1579 1456 
Q 1403 1338 1403 1106 
Q 1403 894 1545 773 
Q 1688 653 1941 653 
Q 2256 653 2472 879 
Q 2688 1106 2688 1447 
L 2688 1575 
L 2106 1575 
z
M 3816 1997 
L 3816 0 
L 2688 0 
L 2688 519 
Q 2463 200 2181 54 
Q 1900 -91 1497 -91 
Q 953 -91 614 226 
Q 275 544 275 1050 
Q 275 1666 698 1953 
Q 1122 2241 2028 2241 
L 2688 2241 
L 2688 2328 
Q 2688 2594 2478 2717 
Q 2269 2841 1825 2841 
Q 1466 2841 1156 2769 
Q 847 2697 581 2553 
L 581 3406 
Q 941 3494 1303 3539 
Q 1666 3584 2028 3584 
Q 2975 3584 3395 3211 
Q 3816 2838 3816 1997 
z
" transform="scale(0.015625)"/>
     <path id="DejaVuSans-Bold-72" d="M 3138 2547 
Q 2991 2616 2845 2648 
Q 2700 2681 2553 2681 
Q 2122 2681 1889 2404 
Q 1656 2128 1656 1613 
L 1656 0 
L 538 0 
L 538 3500 
L 1656 3500 
L 1656 2925 
Q 1872 3269 2151 3426 
Q 2431 3584 2822 3584 
Q 2878 3584 2943 3579 
Q 3009 3575 3134 3559 
L 3138 2547 
z
" transform="scale(0.015625)"/>
     <path id="DejaVuSans-Bold-64" d="M 2919 2988 
L 2919 4863 
L 4044 4863 
L 4044 0 
L 2919 0 
L 2919 506 
Q 2688 197 2409 53 
Q 2131 -91 1766 -91 
Q 1119 -91 703 423 
Q 288 938 288 1747 
Q 288 2556 703 3070 
Q 1119 3584 1766 3584 
Q 2128 3584 2408 3439 
Q 2688 3294 2919 2988 
z
M 2181 722 
Q 2541 722 2730 984 
Q 2919 1247 2919 1747 
Q 2919 2247 2730 2509 
Q 2541 2772 2181 2772 
Q 1825 2772 1636 2509 
Q 1447 2247 1447 1747 
Q 1447 1247 1636 984 
Q 1825 722 2181 722 
z
" transform="scale(0.015625)"/>
     <path id="DejaVuSans-Bold-73" d="M 3272 3391 
L 3272 2541 
Q 2913 2691 2578 2766 
Q 2244 2841 1947 2841 
Q 1628 2841 1473 2761 
Q 1319 2681 1319 2516 
Q 1319 2381 1436 2309 
Q 1553 2238 1856 2203 
L 2053 2175 
Q 2913 2066 3209 1816 
Q 3506 1566 3506 1031 
Q 3506 472 3093 190 
Q 2681 -91 1863 -91 
Q 1516 -91 1145 -36 
Q 775 19 384 128 
L 384 978 
Q 719 816 1070 734 
Q 1422 653 1784 653 
Q 2113 653 2278 743 
Q 2444 834 2444 1013 
Q 2444 1163 2330 1236 
Q 2216 1309 1875 1350 
L 1678 1375 
Q 931 1469 631 1722 
Q 331 1975 331 2491 
Q 331 3047 712 3315 
Q 1094 3584 1881 3584 
Q 2191 3584 2531 3537 
Q 2872 3491 3272 3391 
z
" transform="scale(0.015625)"/>
     <path id="DejaVuSans-Bold-3a" d="M 716 3500 
L 1844 3500 
L 1844 2291 
L 716 2291 
L 716 3500 
z
M 716 1209 
L 1844 1209 
L 1844 0 
L 716 0 
L 716 1209 
z
" transform="scale(0.015625)"/>
     <path id="DejaVuSans-Bold-20" transform="scale(0.015625)"/>
     <path id="DejaVuSans-Bold-50" d="M 588 4666 
L 2584 4666 
Q 3475 4666 3951 4270 
Q 4428 3875 4428 3144 
Q 4428 2409 3951 2014 
Q 3475 1619 2584 1619 
L 1791 1619 
L 1791 0 
L 588 0 
L 588 4666 
z
M 1791 3794 
L 1791 2491 
L 2456 2491 
Q 2806 2491 2997 2661 
Q 3188 2831 3188 3144 
Q 3188 3456 2997 3625 
Q 2806 3794 2456 3794 
L 1791 3794 
z
" transform="scale(0.015625)"/>
     <path id="DejaVuSans-Bold-6e" d="M 4056 2131 
L 4056 0 
L 2931 0 
L 2931 347 
L 2931 1631 
Q 2931 2084 2911 2256 
Q 2891 2428 2841 2509 
Q 2775 2619 2662 2680 
Q 2550 2741 2406 2741 
Q 2056 2741 1856 2470 
Q 1656 2200 1656 1722 
L 1656 0 
L 538 0 
L 538 3500 
L 1656 3500 
L 1656 2988 
Q 1909 3294 2193 3439 
Q 2478 3584 2822 3584 
Q 3428 3584 3742 3212 
Q 4056 2841 4056 2131 
z
" transform="scale(0.015625)"/>
     <path id="DejaVuSans-Bold-75" d="M 500 1363 
L 500 3500 
L 1625 3500 
L 1625 3150 
Q 1625 2866 1622 2436 
Q 1619 2006 1619 1863 
Q 1619 1441 1641 1255 
Q 1663 1069 1716 984 
Q 1784 875 1895 815 
Q 2006 756 2150 756 
Q 2500 756 2700 1025 
Q 2900 1294 2900 1772 
L 2900 3500 
L 4019 3500 
L 4019 0 
L 2900 0 
L 2900 506 
Q 2647 200 2364 54 
Q 2081 -91 1741 -91 
Q 1134 -91 817 281 
Q 500 653 500 1363 
z
" transform="scale(0.015625)"/>
     <path id="DejaVuSans-Bold-6c" d="M 538 4863 
L 1656 4863 
L 1656 0 
L 538 0 
L 538 4863 
z
" transform="scale(0.015625)"/>
     <path id="DejaVuSans-Bold-6d" d="M 3781 2919 
Q 3994 3244 4286 3414 
Q 4578 3584 4928 3584 
Q 5531 3584 5847 3212 
Q 6163 2841 6163 2131 
L 6163 0 
L 5038 0 
L 5038 1825 
Q 5041 1866 5042 1909 
Q 5044 1953 5044 2034 
Q 5044 2406 4934 2573 
Q 4825 2741 4581 2741 
Q 4263 2741 4089 2478 
Q 3916 2216 3909 1719 
L 3909 0 
L 2784 0 
L 2784 1825 
Q 2784 2406 2684 2573 
Q 2584 2741 2328 2741 
Q 2006 2741 1831 2477 
Q 1656 2213 1656 1722 
L 1656 0 
L 531 0 
L 531 3500 
L 1656 3500 
L 1656 2988 
Q 1863 3284 2130 3434 
Q 2397 3584 2719 3584 
Q 3081 3584 3359 3409 
Q 3638 3234 3781 2919 
z
" transform="scale(0.015625)"/>
     <path id="DejaVuSans-Bold-2d" d="M 347 2297 
L 2309 2297 
L 2309 1388 
L 347 1388 
L 347 2297 
z
" transform="scale(0.015625)"/>
     <path id="DejaVuSans-Bold-76" d="M 97 3500 
L 1216 3500 
L 2088 1081 
L 2956 3500 
L 4078 3500 
L 2700 0 
L 1472 0 
L 97 3500 
z
" transform="scale(0.015625)"/>
     <path id="DejaVuSans-Bold-31" d="M 750 831 
L 1813 831 
L 1813 3847 
L 722 3622 
L 722 4441 
L 1806 4666 
L 2950 4666 
L 2950 831 
L 4013 831 
L 4013 0 
L 750 0 
L 750 831 
z
" transform="scale(0.015625)"/>
     <path id="DejaVuSans-Bold-28" d="M 2413 -844 
L 1484 -844 
Q 1006 -72 778 623 
Q 550 1319 550 2003 
Q 550 2688 779 3389 
Q 1009 4091 1484 4856 
L 2413 4856 
Q 2013 4116 1813 3408 
Q 1613 2700 1613 2009 
Q 1613 1319 1811 609 
Q 2009 -100 2413 -844 
z
" transform="scale(0.015625)"/>
     <path id="DejaVuSans-Bold-44" d="M 1791 3756 
L 1791 909 
L 2222 909 
Q 2959 909 3348 1275 
Q 3738 1641 3738 2338 
Q 3738 3031 3350 3393 
Q 2963 3756 2222 3756 
L 1791 3756 
z
M 588 4666 
L 1856 4666 
Q 2919 4666 3439 4514 
Q 3959 4363 4331 4000 
Q 4659 3684 4818 3271 
Q 4978 2859 4978 2338 
Q 4978 1809 4818 1395 
Q 4659 981 4331 666 
Q 3956 303 3431 151 
Q 2906 0 1856 0 
L 588 0 
L 588 4666 
z
" transform="scale(0.015625)"/>
     <path id="DejaVuSans-Bold-69" d="M 538 3500 
L 1656 3500 
L 1656 0 
L 538 0 
L 538 3500 
z
M 538 4863 
L 1656 4863 
L 1656 3950 
L 538 3950 
L 538 4863 
z
" transform="scale(0.015625)"/>
     <path id="DejaVuSans-Bold-63" d="M 3366 3391 
L 3366 2478 
Q 3138 2634 2908 2709 
Q 2678 2784 2431 2784 
Q 1963 2784 1702 2511 
Q 1441 2238 1441 1747 
Q 1441 1256 1702 982 
Q 1963 709 2431 709 
Q 2694 709 2930 787 
Q 3166 866 3366 1019 
L 3366 103 
Q 3103 6 2833 -42 
Q 2563 -91 2291 -91 
Q 1344 -91 809 395 
Q 275 881 275 1747 
Q 275 2613 809 3098 
Q 1344 3584 2291 3584 
Q 2566 3584 2833 3536 
Q 3100 3488 3366 3391 
z
" transform="scale(0.015625)"/>
     <path id="DejaVuSans-Bold-74" d="M 1759 4494 
L 1759 3500 
L 2913 3500 
L 2913 2700 
L 1759 2700 
L 1759 1216 
Q 1759 972 1856 886 
Q 1953 800 2241 800 
L 2816 800 
L 2816 0 
L 1856 0 
Q 1194 0 917 276 
Q 641 553 641 1216 
L 641 2700 
L 84 2700 
L 84 3500 
L 641 3500 
L 641 4494 
L 1759 4494 
z
" transform="scale(0.015625)"/>
     <path id="DejaVuSans-Bold-7a" d="M 366 3500 
L 3419 3500 
L 3419 2719 
L 1575 800 
L 3419 800 
L 3419 0 
L 288 0 
L 288 781 
L 2131 2700 
L 366 2700 
L 366 3500 
z
" transform="scale(0.015625)"/>
     <path id="DejaVuSans-Bold-29" d="M 513 -844 
Q 913 -100 1113 609 
Q 1313 1319 1313 2009 
Q 1313 2700 1113 3408 
Q 913 4116 513 4856 
L 1441 4856 
Q 1916 4091 2145 3389 
Q 2375 2688 2375 2003 
Q 2375 1319 2147 623 
Q 1919 -72 1441 -844 
L 513 -844 
z
" transform="scale(0.015625)"/>
     <path id="DejaVuSans-Bold-7c" d="M 1522 4891 
L 1522 -1509 
L 813 -1509 
L 813 4891 
L 1522 4891 
z
" transform="scale(0.015625)"/>
     <path id="DejaVuSans-Bold-43" d="M 4288 256 
Q 3956 84 3597 -3 
Q 3238 -91 2847 -91 
Q 1681 -91 1000 561 
Q 319 1213 319 2328 
Q 319 3447 1000 4098 
Q 1681 4750 2847 4750 
Q 3238 4750 3597 4662 
Q 3956 4575 4288 4403 
L 4288 3438 
Q 3953 3666 3628 3772 
Q 3303 3878 2944 3878 
Q 2300 3878 1931 3465 
Q 1563 3053 1563 2328 
Q 1563 1606 1931 1193 
Q 2300 781 2944 781 
Q 3303 781 3628 887 
Q 3953 994 4288 1222 
L 4288 256 
z
" transform="scale(0.015625)"/>
     <path id="DejaVuSans-Bold-4d" d="M 588 4666 
L 2119 4666 
L 3181 2169 
L 4250 4666 
L 5778 4666 
L 5778 0 
L 4641 0 
L 4641 3413 
L 3566 897 
L 2803 897 
L 1728 3413 
L 1728 0 
L 588 0 
L 588 4666 
z
" transform="scale(0.015625)"/>
     <path id="DejaVuSans-Bold-55" d="M 588 4666 
L 1791 4666 
L 1791 1869 
Q 1791 1291 1980 1042 
Q 2169 794 2597 794 
Q 3028 794 3217 1042 
Q 3406 1291 3406 1869 
L 3406 4666 
L 4609 4666 
L 4609 1869 
Q 4609 878 4112 393 
Q 3616 -91 2597 -91 
Q 1581 -91 1084 393 
Q 588 878 588 1869 
L 588 4666 
z
" transform="scale(0.015625)"/>
     <path id="DejaVuSans-Bold-4e" d="M 588 4666 
L 1931 4666 
L 3628 1466 
L 3628 4666 
L 4769 4666 
L 4769 0 
L 3425 0 
L 1728 3200 
L 1728 0 
L 588 0 
L 588 4666 
z
" transform="scale(0.015625)"/>
     <path id="DejaVuSans-Bold-41" d="M 3419 850 
L 1538 850 
L 1241 0 
L 31 0 
L 1759 4666 
L 3194 4666 
L 4922 0 
L 3713 0 
L 3419 850 
z
M 1838 1716 
L 3116 1716 
L 2478 3572 
L 1838 1716 
z
" transform="scale(0.015625)"/>
     <path id="DejaVuSans-Bold-67" d="M 2919 594 
Q 2688 288 2409 144 
Q 2131 0 1766 0 
Q 1125 0 706 504 
Q 288 1009 288 1791 
Q 288 2575 706 3076 
Q 1125 3578 1766 3578 
Q 2131 3578 2409 3434 
Q 2688 3291 2919 2981 
L 2919 3500 
L 4044 3500 
L 4044 353 
Q 4044 -491 3511 -936 
Q 2978 -1381 1966 -1381 
Q 1638 -1381 1331 -1331 
Q 1025 -1281 716 -1178 
L 716 -306 
Q 1009 -475 1290 -558 
Q 1572 -641 1856 -641 
Q 2406 -641 2662 -400 
Q 2919 -159 2919 353 
L 2919 594 
z
M 2181 2772 
Q 1834 2772 1640 2515 
Q 1447 2259 1447 1791 
Q 1447 1309 1634 1061 
Q 1822 813 2181 813 
Q 2531 813 2725 1069 
Q 2919 1325 2919 1791 
Q 2919 2259 2725 2515 
Q 2531 2772 2181 2772 
z
" transform="scale(0.015625)"/>
    </defs>
    <use xlink:href="#DejaVuSans-Bold-52"/>
    <use xlink:href="#DejaVuSans-Bold-65" transform="translate(77.001953 0)"/>
    <use xlink:href="#DejaVuSans-Bold-77" transform="translate(144.824219 0)"/>
    <use xlink:href="#DejaVuSans-Bold-61" transform="translate(237.207031 0)"/>
    <use xlink:href="#DejaVuSans-Bold-72" transform="translate(304.6875 0)"/>
    <use xlink:href="#DejaVuSans-Bold-64" transform="translate(354.003906 0)"/>
    <use xlink:href="#DejaVuSans-Bold-73" transform="translate(425.585938 0)"/>
    <use xlink:href="#DejaVuSans-Bold-3a" transform="translate(485.107422 0)"/>
    <use xlink:href="#DejaVuSans-Bold-20" transform="translate(525.097656 0)"/>
    <use xlink:href="#DejaVuSans-Bold-50" transform="translate(559.912109 0)"/>
    <use xlink:href="#DejaVuSans-Bold-65" transform="translate(633.203125 0)"/>
    <use xlink:href="#DejaVuSans-Bold-6e" transform="translate(701.025391 0)"/>
    <use xlink:href="#DejaVuSans-Bold-64" transform="translate(772.216797 0)"/>
    <use xlink:href="#DejaVuSans-Bold-75" transform="translate(843.798828 0)"/>
    <use xlink:href="#DejaVuSans-Bold-6c" transform="translate(914.990234 0)"/>
    <use xlink:href="#DejaVuSans-Bold-75" transform="translate(949.267578 0)"/>
    <use xlink:href="#DejaVuSans-Bold-6d" transform="translate(1020.458984 0)"/>
    <use xlink:href="#DejaVuSans-Bold-2d" transform="translate(1124.658203 0)"/>
    <use xlink:href="#DejaVuSans-Bold-76" transform="translate(1166.162109 0)"/>
    <use xlink:href="#DejaVuSans-Bold-31" transform="translate(1231.347656 0)"/>
    <use xlink:href="#DejaVuSans-Bold-20" transform="translate(1300.927734 0)"/>
    <use xlink:href="#DejaVuSans-Bold-28" transform="translate(1335.742188 0)"/>
    <use xlink:href="#DejaVuSans-Bold-44" transform="translate(1381.445312 0)"/>
    <use xlink:href="#DejaVuSans-Bold-69" transform="translate(1464.453125 0)"/>
    <use xlink:href="#DejaVuSans-Bold-73" transform="translate(1498.730469 0)"/>
    <use xlink:href="#DejaVuSans-Bold-63" transform="translate(1558.251953 0)"/>
    <use xlink:href="#DejaVuSans-Bold-72" transform="translate(1617.529297 0)"/>
    <use xlink:href="#DejaVuSans-Bold-65" transform="translate(1666.845703 0)"/>
    <use xlink:href="#DejaVuSans-Bold-74" transform="translate(1734.667969 0)"/>
    <use xlink:href="#DejaVuSans-Bold-69" transform="translate(1782.470703 0)"/>
    <use xlink:href="#DejaVuSans-Bold-7a" transform="translate(1816.748047 0)"/>
    <use xlink:href="#DejaVuSans-Bold-65" transform="translate(1874.951172 0)"/>
    <use xlink:href="#DejaVuSans-Bold-64" transform="translate(1942.773438 0)"/>
    <use xlink:href="#DejaVuSans-Bold-29" transform="translate(2014.355469 0)"/>
    <use xlink:href="#DejaVuSans-Bold-20" transform="translate(2060.058594 0)"/>
    <use xlink:href="#DejaVuSans-Bold-7c" transform="translate(2094.873047 0)"/>
    <use xlink:href="#DejaVuSans-Bold-20" transform="translate(2131.396484 0)"/>
    <use xlink:href="#DejaVuSans-Bold-43" transform="translate(2166.210938 0)"/>
    <use xlink:href="#DejaVuSans-Bold-4d" transform="translate(2239.599609 0)"/>
    <use xlink:href="#DejaVuSans-Bold-55" transform="translate(2339.111328 0)"/>
    <use xlink:href="#DejaVuSans-Bold-2d" transform="translate(2420.3125 0)"/>
    <use xlink:href="#DejaVuSans-Bold-4e" transform="translate(2461.816406 0)"/>
    <use xlink:href="#DejaVuSans-Bold-65" transform="translate(2545.507812 0)"/>
    <use xlink:href="#DejaVuSans-Bold-74" transform="translate(2613.330078 0)"/>
    <use xlink:href="#DejaVuSans-Bold-20" transform="translate(2661.132812 0)"/>
    <use xlink:href="#DejaVuSans-Bold-28" transform="translate(2695.947266 0)"/>
    <use xlink:href="#DejaVuSans-Bold-41" transform="translate(2741.650391 0)"/>
    <use xlink:href="#DejaVuSans-Bold-6c" transform="translate(2819.042969 0)"/>
    <use xlink:href="#DejaVuSans-Bold-69" transform="translate(2853.320312 0)"/>
    <use xlink:href="#DejaVuSans-Bold-67" transform="translate(2887.597656 0)"/>
    <use xlink:href="#DejaVuSans-Bold-6e" transform="translate(2959.179688 0)"/>
    <use xlink:href="#DejaVuSans-Bold-6d" transform="translate(3030.371094 0)"/>
    <use xlink:href="#DejaVuSans-Bold-65" transform="translate(3134.570312 0)"/>
    <use xlink:href="#DejaVuSans-Bold-6e" transform="translate(3202.392578 0)"/>
    <use xlink:href="#DejaVuSans-Bold-74" transform="translate(3273.583984 0)"/>
    <use xlink:href="#DejaVuSans-Bold-29" transform="translate(3321.386719 0)"/>
   </g>
  </g>
 </g>
 <defs>
  <clipPath id="p9c48243bac">
   <rect x="65.63" y="57.0062" width="566.575" height="333.0338"/>
  </clipPath>
 </defs>
</svg>
