<?xml version="1.0" encoding="utf-8" standalone="no"?>
<!DOCTYPE svg PUBLIC "-//W3C//DTD SVG 1.1//EN"
  "http://www.w3.org/Graphics/SVG/1.1/DTD/svg11.dtd">
<svg xmlns:xlink="http://www.w3.org/1999/xlink" width="576pt" height="432pt" viewBox="0 0 576 432" xmlns="http://www.w3.org/2000/svg" version="1.1">
 <metadata>
  <rdf:RDF xmlns:dc="http://purl.org/dc/elements/1.1/" xmlns:cc="http://creativecommons.org/ns#" xmlns:rdf="http://www.w3.org/1999/02/22-rdf-syntax-ns#">
   <cc:Work>
    <dc:type rdf:resource="http://purl.org/dc/dcmitype/StillImage"/>
    <dc:date>2025-07-07T22:28:06.339192</dc:date>
    <dc:format>image/svg+xml</dc:format>
    <dc:creator>
     <cc:Agent>
      <dc:title>Matplotlib v3.10.0, https://matplotlib.org/</dc:title>
     </cc:Agent>
    </dc:creator>
   </cc:Work>
  </rdf:RDF>
 </metadata>
 <defs>
  <style type="text/css">*{stroke-linejoin: round; stroke-linecap: butt}</style>
 </defs>
 <g id="figure_1">
  <g id="patch_1">
   <path d="M 0 432 
L 576 432 
L 576 0 
L 0 0 
z
" style="fill: #ffffff"/>
  </g>
  <g id="axes_1">
   <g id="patch_2">
    <path d="M 65.63 390.04 
L 558.39664 390.04 
L 558.39664 26.88 
L 65.63 26.88 
z
" style="fill: #eaeaf2"/>
   </g>
   <g id="matplotlib.axis_1">
    <g id="xtick_1">
     <g id="line2d_1">
      <path d="M 68.551541 390.04 
L 68.551541 26.88 
" clip-path="url(#p1c270df8e1)" style="fill: none; stroke: #ffffff; stroke-width: 0.8; stroke-linecap: round"/>
     </g>
     <g id="text_1">
      <!-- 0 -->
      <g style="fill: #262626" transform="translate(65.370291 404.638438) scale(0.1 -0.1)">
       <defs>
        <path id="DejaVuSans-30" d="M 2034 4250 
Q 1547 4250 1301 3770 
Q 1056 3291 1056 2328 
Q 1056 1369 1301 889 
Q 1547 409 2034 409 
Q 2525 409 2770 889 
Q 3016 1369 3016 2328 
Q 3016 3291 2770 3770 
Q 2525 4250 2034 4250 
z
M 2034 4750 
Q 2819 4750 3233 4129 
Q 3647 3509 3647 2328 
Q 3647 1150 3233 529 
Q 2819 -91 2034 -91 
Q 1250 -91 836 529 
Q 422 1150 422 2328 
Q 422 3509 836 4129 
Q 1250 4750 2034 4750 
z
" transform="scale(0.015625)"/>
       </defs>
       <use xlink:href="#DejaVuSans-30"/>
      </g>
     </g>
    </g>
    <g id="xtick_2">
     <g id="line2d_2">
      <path d="M 117.243897 390.04 
L 117.243897 26.88 
" clip-path="url(#p1c270df8e1)" style="fill: none; stroke: #ffffff; stroke-width: 0.8; stroke-linecap: round"/>
     </g>
     <g id="text_2">
      <!-- 50 -->
      <g style="fill: #262626" transform="translate(110.881397 404.638438) scale(0.1 -0.1)">
       <defs>
        <path id="DejaVuSans-35" d="M 691 4666 
L 3169 4666 
L 3169 4134 
L 1269 4134 
L 1269 2991 
Q 1406 3038 1543 3061 
Q 1681 3084 1819 3084 
Q 2600 3084 3056 2656 
Q 3513 2228 3513 1497 
Q 3513 744 3044 326 
Q 2575 -91 1722 -91 
Q 1428 -91 1123 -41 
Q 819 9 494 109 
L 494 744 
Q 775 591 1075 516 
Q 1375 441 1709 441 
Q 2250 441 2565 725 
Q 2881 1009 2881 1497 
Q 2881 1984 2565 2268 
Q 2250 2553 1709 2553 
Q 1456 2553 1204 2497 
Q 953 2441 691 2322 
L 691 4666 
z
" transform="scale(0.015625)"/>
       </defs>
       <use xlink:href="#DejaVuSans-35"/>
       <use xlink:href="#DejaVuSans-30" transform="translate(63.623047 0)"/>
      </g>
     </g>
    </g>
    <g id="xtick_3">
     <g id="line2d_3">
      <path d="M 165.936253 390.04 
L 165.936253 26.88 
" clip-path="url(#p1c270df8e1)" style="fill: none; stroke: #ffffff; stroke-width: 0.8; stroke-linecap: round"/>
     </g>
     <g id="text_3">
      <!-- 100 -->
      <g style="fill: #262626" transform="translate(156.392503 404.638438) scale(0.1 -0.1)">
       <defs>
        <path id="DejaVuSans-31" d="M 794 531 
L 1825 531 
L 1825 4091 
L 703 3866 
L 703 4441 
L 1819 4666 
L 2450 4666 
L 2450 531 
L 3481 531 
L 3481 0 
L 794 0 
L 794 531 
z
" transform="scale(0.015625)"/>
       </defs>
       <use xlink:href="#DejaVuSans-31"/>
       <use xlink:href="#DejaVuSans-30" transform="translate(63.623047 0)"/>
       <use xlink:href="#DejaVuSans-30" transform="translate(127.246094 0)"/>
      </g>
     </g>
    </g>
    <g id="xtick_4">
     <g id="line2d_4">
      <path d="M 214.628609 390.04 
L 214.628609 26.88 
" clip-path="url(#p1c270df8e1)" style="fill: none; stroke: #ffffff; stroke-width: 0.8; stroke-linecap: round"/>
     </g>
     <g id="text_4">
      <!-- 150 -->
      <g style="fill: #262626" transform="translate(205.084859 404.638438) scale(0.1 -0.1)">
       <use xlink:href="#DejaVuSans-31"/>
       <use xlink:href="#DejaVuSans-35" transform="translate(63.623047 0)"/>
       <use xlink:href="#DejaVuSans-30" transform="translate(127.246094 0)"/>
      </g>
     </g>
    </g>
    <g id="xtick_5">
     <g id="line2d_5">
      <path d="M 263.320964 390.04 
L 263.320964 26.88 
" clip-path="url(#p1c270df8e1)" style="fill: none; stroke: #ffffff; stroke-width: 0.8; stroke-linecap: round"/>
     </g>
     <g id="text_5">
      <!-- 200 -->
      <g style="fill: #262626" transform="translate(253.777214 404.638438) scale(0.1 -0.1)">
       <defs>
        <path id="DejaVuSans-32" d="M 1228 531 
L 3431 531 
L 3431 0 
L 469 0 
L 469 531 
Q 828 903 1448 1529 
Q 2069 2156 2228 2338 
Q 2531 2678 2651 2914 
Q 2772 3150 2772 3378 
Q 2772 3750 2511 3984 
Q 2250 4219 1831 4219 
Q 1534 4219 1204 4116 
Q 875 4013 500 3803 
L 500 4441 
Q 881 4594 1212 4672 
Q 1544 4750 1819 4750 
Q 2544 4750 2975 4387 
Q 3406 4025 3406 3419 
Q 3406 3131 3298 2873 
Q 3191 2616 2906 2266 
Q 2828 2175 2409 1742 
Q 1991 1309 1228 531 
z
" transform="scale(0.015625)"/>
       </defs>
       <use xlink:href="#DejaVuSans-32"/>
       <use xlink:href="#DejaVuSans-30" transform="translate(63.623047 0)"/>
       <use xlink:href="#DejaVuSans-30" transform="translate(127.246094 0)"/>
      </g>
     </g>
    </g>
    <g id="xtick_6">
     <g id="line2d_6">
      <path d="M 312.01332 390.04 
L 312.01332 26.88 
" clip-path="url(#p1c270df8e1)" style="fill: none; stroke: #ffffff; stroke-width: 0.8; stroke-linecap: round"/>
     </g>
     <g id="text_6">
      <!-- 250 -->
      <g style="fill: #262626" transform="translate(302.46957 404.638438) scale(0.1 -0.1)">
       <use xlink:href="#DejaVuSans-32"/>
       <use xlink:href="#DejaVuSans-35" transform="translate(63.623047 0)"/>
       <use xlink:href="#DejaVuSans-30" transform="translate(127.246094 0)"/>
      </g>
     </g>
    </g>
    <g id="xtick_7">
     <g id="line2d_7">
      <path d="M 360.705676 390.04 
L 360.705676 26.88 
" clip-path="url(#p1c270df8e1)" style="fill: none; stroke: #ffffff; stroke-width: 0.8; stroke-linecap: round"/>
     </g>
     <g id="text_7">
      <!-- 300 -->
      <g style="fill: #262626" transform="translate(351.161926 404.638438) scale(0.1 -0.1)">
       <defs>
        <path id="DejaVuSans-33" d="M 2597 2516 
Q 3050 2419 3304 2112 
Q 3559 1806 3559 1356 
Q 3559 666 3084 287 
Q 2609 -91 1734 -91 
Q 1441 -91 1130 -33 
Q 819 25 488 141 
L 488 750 
Q 750 597 1062 519 
Q 1375 441 1716 441 
Q 2309 441 2620 675 
Q 2931 909 2931 1356 
Q 2931 1769 2642 2001 
Q 2353 2234 1838 2234 
L 1294 2234 
L 1294 2753 
L 1863 2753 
Q 2328 2753 2575 2939 
Q 2822 3125 2822 3475 
Q 2822 3834 2567 4026 
Q 2313 4219 1838 4219 
Q 1578 4219 1281 4162 
Q 984 4106 628 3988 
L 628 4550 
Q 988 4650 1302 4700 
Q 1616 4750 1894 4750 
Q 2613 4750 3031 4423 
Q 3450 4097 3450 3541 
Q 3450 3153 3228 2886 
Q 3006 2619 2597 2516 
z
" transform="scale(0.015625)"/>
       </defs>
       <use xlink:href="#DejaVuSans-33"/>
       <use xlink:href="#DejaVuSans-30" transform="translate(63.623047 0)"/>
       <use xlink:href="#DejaVuSans-30" transform="translate(127.246094 0)"/>
      </g>
     </g>
    </g>
    <g id="xtick_8">
     <g id="line2d_8">
      <path d="M 409.398032 390.04 
L 409.398032 26.88 
" clip-path="url(#p1c270df8e1)" style="fill: none; stroke: #ffffff; stroke-width: 0.8; stroke-linecap: round"/>
     </g>
     <g id="text_8">
      <!-- 350 -->
      <g style="fill: #262626" transform="translate(399.854282 404.638438) scale(0.1 -0.1)">
       <use xlink:href="#DejaVuSans-33"/>
       <use xlink:href="#DejaVuSans-35" transform="translate(63.623047 0)"/>
       <use xlink:href="#DejaVuSans-30" transform="translate(127.246094 0)"/>
      </g>
     </g>
    </g>
    <g id="xtick_9">
     <g id="line2d_9">
      <path d="M 458.090387 390.04 
L 458.090387 26.88 
" clip-path="url(#p1c270df8e1)" style="fill: none; stroke: #ffffff; stroke-width: 0.8; stroke-linecap: round"/>
     </g>
     <g id="text_9">
      <!-- 400 -->
      <g style="fill: #262626" transform="translate(448.546637 404.638438) scale(0.1 -0.1)">
       <defs>
        <path id="DejaVuSans-34" d="M 2419 4116 
L 825 1625 
L 2419 1625 
L 2419 4116 
z
M 2253 4666 
L 3047 4666 
L 3047 1625 
L 3713 1625 
L 3713 1100 
L 3047 1100 
L 3047 0 
L 2419 0 
L 2419 1100 
L 313 1100 
L 313 1709 
L 2253 4666 
z
" transform="scale(0.015625)"/>
       </defs>
       <use xlink:href="#DejaVuSans-34"/>
       <use xlink:href="#DejaVuSans-30" transform="translate(63.623047 0)"/>
       <use xlink:href="#DejaVuSans-30" transform="translate(127.246094 0)"/>
      </g>
     </g>
    </g>
    <g id="xtick_10">
     <g id="line2d_10">
      <path d="M 506.782743 390.04 
L 506.782743 26.88 
" clip-path="url(#p1c270df8e1)" style="fill: none; stroke: #ffffff; stroke-width: 0.8; stroke-linecap: round"/>
     </g>
     <g id="text_10">
      <!-- 450 -->
      <g style="fill: #262626" transform="translate(497.238993 404.638438) scale(0.1 -0.1)">
       <use xlink:href="#DejaVuSans-34"/>
       <use xlink:href="#DejaVuSans-35" transform="translate(63.623047 0)"/>
       <use xlink:href="#DejaVuSans-30" transform="translate(127.246094 0)"/>
      </g>
     </g>
    </g>
    <g id="xtick_11">
     <g id="line2d_11">
      <path d="M 555.475099 390.04 
L 555.475099 26.88 
" clip-path="url(#p1c270df8e1)" style="fill: none; stroke: #ffffff; stroke-width: 0.8; stroke-linecap: round"/>
     </g>
     <g id="text_11">
      <!-- 500 -->
      <g style="fill: #262626" transform="translate(545.931349 404.638438) scale(0.1 -0.1)">
       <use xlink:href="#DejaVuSans-35"/>
       <use xlink:href="#DejaVuSans-30" transform="translate(63.623047 0)"/>
       <use xlink:href="#DejaVuSans-30" transform="translate(127.246094 0)"/>
      </g>
     </g>
    </g>
    <g id="text_12">
     <!-- Episode -->
     <g style="fill: #262626" transform="translate(292.37582 418.316562) scale(0.1 -0.1)">
      <defs>
       <path id="DejaVuSans-45" d="M 628 4666 
L 3578 4666 
L 3578 4134 
L 1259 4134 
L 1259 2753 
L 3481 2753 
L 3481 2222 
L 1259 2222 
L 1259 531 
L 3634 531 
L 3634 0 
L 628 0 
L 628 4666 
z
" transform="scale(0.015625)"/>
       <path id="DejaVuSans-70" d="M 1159 525 
L 1159 -1331 
L 581 -1331 
L 581 3500 
L 1159 3500 
L 1159 2969 
Q 1341 3281 1617 3432 
Q 1894 3584 2278 3584 
Q 2916 3584 3314 3078 
Q 3713 2572 3713 1747 
Q 3713 922 3314 415 
Q 2916 -91 2278 -91 
Q 1894 -91 1617 61 
Q 1341 213 1159 525 
z
M 3116 1747 
Q 3116 2381 2855 2742 
Q 2594 3103 2138 3103 
Q 1681 3103 1420 2742 
Q 1159 2381 1159 1747 
Q 1159 1113 1420 752 
Q 1681 391 2138 391 
Q 2594 391 2855 752 
Q 3116 1113 3116 1747 
z
" transform="scale(0.015625)"/>
       <path id="DejaVuSans-69" d="M 603 3500 
L 1178 3500 
L 1178 0 
L 603 0 
L 603 3500 
z
M 603 4863 
L 1178 4863 
L 1178 4134 
L 603 4134 
L 603 4863 
z
" transform="scale(0.015625)"/>
       <path id="DejaVuSans-73" d="M 2834 3397 
L 2834 2853 
Q 2591 2978 2328 3040 
Q 2066 3103 1784 3103 
Q 1356 3103 1142 2972 
Q 928 2841 928 2578 
Q 928 2378 1081 2264 
Q 1234 2150 1697 2047 
L 1894 2003 
Q 2506 1872 2764 1633 
Q 3022 1394 3022 966 
Q 3022 478 2636 193 
Q 2250 -91 1575 -91 
Q 1294 -91 989 -36 
Q 684 19 347 128 
L 347 722 
Q 666 556 975 473 
Q 1284 391 1588 391 
Q 1994 391 2212 530 
Q 2431 669 2431 922 
Q 2431 1156 2273 1281 
Q 2116 1406 1581 1522 
L 1381 1569 
Q 847 1681 609 1914 
Q 372 2147 372 2553 
Q 372 3047 722 3315 
Q 1072 3584 1716 3584 
Q 2034 3584 2315 3537 
Q 2597 3491 2834 3397 
z
" transform="scale(0.015625)"/>
       <path id="DejaVuSans-6f" d="M 1959 3097 
Q 1497 3097 1228 2736 
Q 959 2375 959 1747 
Q 959 1119 1226 758 
Q 1494 397 1959 397 
Q 2419 397 2687 759 
Q 2956 1122 2956 1747 
Q 2956 2369 2687 2733 
Q 2419 3097 1959 3097 
z
M 1959 3584 
Q 2709 3584 3137 3096 
Q 3566 2609 3566 1747 
Q 3566 888 3137 398 
Q 2709 -91 1959 -91 
Q 1206 -91 779 398 
Q 353 888 353 1747 
Q 353 2609 779 3096 
Q 1206 3584 1959 3584 
z
" transform="scale(0.015625)"/>
       <path id="DejaVuSans-64" d="M 2906 2969 
L 2906 4863 
L 3481 4863 
L 3481 0 
L 2906 0 
L 2906 525 
Q 2725 213 2448 61 
Q 2172 -91 1784 -91 
Q 1150 -91 751 415 
Q 353 922 353 1747 
Q 353 2572 751 3078 
Q 1150 3584 1784 3584 
Q 2172 3584 2448 3432 
Q 2725 3281 2906 2969 
z
M 947 1747 
Q 947 1113 1208 752 
Q 1469 391 1925 391 
Q 2381 391 2643 752 
Q 2906 1113 2906 1747 
Q 2906 2381 2643 2742 
Q 2381 3103 1925 3103 
Q 1469 3103 1208 2742 
Q 947 2381 947 1747 
z
" transform="scale(0.015625)"/>
       <path id="DejaVuSans-65" d="M 3597 1894 
L 3597 1613 
L 953 1613 
Q 991 1019 1311 708 
Q 1631 397 2203 397 
Q 2534 397 2845 478 
Q 3156 559 3463 722 
L 3463 178 
Q 3153 47 2828 -22 
Q 2503 -91 2169 -91 
Q 1331 -91 842 396 
Q 353 884 353 1716 
Q 353 2575 817 3079 
Q 1281 3584 2069 3584 
Q 2775 3584 3186 3129 
Q 3597 2675 3597 1894 
z
M 3022 2063 
Q 3016 2534 2758 2815 
Q 2500 3097 2075 3097 
Q 1594 3097 1305 2825 
Q 1016 2553 972 2059 
L 3022 2063 
z
" transform="scale(0.015625)"/>
      </defs>
      <use xlink:href="#DejaVuSans-45"/>
      <use xlink:href="#DejaVuSans-70" transform="translate(63.183594 0)"/>
      <use xlink:href="#DejaVuSans-69" transform="translate(126.660156 0)"/>
      <use xlink:href="#DejaVuSans-73" transform="translate(154.443359 0)"/>
      <use xlink:href="#DejaVuSans-6f" transform="translate(206.542969 0)"/>
      <use xlink:href="#DejaVuSans-64" transform="translate(267.724609 0)"/>
      <use xlink:href="#DejaVuSans-65" transform="translate(331.201172 0)"/>
     </g>
    </g>
   </g>
   <g id="matplotlib.axis_2">
    <g id="ytick_1">
     <g id="line2d_12">
      <path d="M 65.63 390.04 
L 558.39664 390.04 
" clip-path="url(#p1c270df8e1)" style="fill: none; stroke: #ffffff; stroke-width: 0.8; stroke-linecap: round"/>
     </g>
     <g id="text_13">
      <!-- −1600 -->
      <g style="fill: #262626" transform="translate(24.800313 393.839219) scale(0.1 -0.1)">
       <defs>
        <path id="DejaVuSans-2212" d="M 678 2272 
L 4684 2272 
L 4684 1741 
L 678 1741 
L 678 2272 
z
" transform="scale(0.015625)"/>
        <path id="DejaVuSans-36" d="M 2113 2584 
Q 1688 2584 1439 2293 
Q 1191 2003 1191 1497 
Q 1191 994 1439 701 
Q 1688 409 2113 409 
Q 2538 409 2786 701 
Q 3034 994 3034 1497 
Q 3034 2003 2786 2293 
Q 2538 2584 2113 2584 
z
M 3366 4563 
L 3366 3988 
Q 3128 4100 2886 4159 
Q 2644 4219 2406 4219 
Q 1781 4219 1451 3797 
Q 1122 3375 1075 2522 
Q 1259 2794 1537 2939 
Q 1816 3084 2150 3084 
Q 2853 3084 3261 2657 
Q 3669 2231 3669 1497 
Q 3669 778 3244 343 
Q 2819 -91 2113 -91 
Q 1303 -91 875 529 
Q 447 1150 447 2328 
Q 447 3434 972 4092 
Q 1497 4750 2381 4750 
Q 2619 4750 2861 4703 
Q 3103 4656 3366 4563 
z
" transform="scale(0.015625)"/>
       </defs>
       <use xlink:href="#DejaVuSans-2212"/>
       <use xlink:href="#DejaVuSans-31" transform="translate(83.789062 0)"/>
       <use xlink:href="#DejaVuSans-36" transform="translate(147.412109 0)"/>
       <use xlink:href="#DejaVuSans-30" transform="translate(211.035156 0)"/>
       <use xlink:href="#DejaVuSans-30" transform="translate(274.658203 0)"/>
      </g>
     </g>
    </g>
    <g id="ytick_2">
     <g id="line2d_13">
      <path d="M 65.63 344.645 
L 558.39664 344.645 
" clip-path="url(#p1c270df8e1)" style="fill: none; stroke: #ffffff; stroke-width: 0.8; stroke-linecap: round"/>
     </g>
     <g id="text_14">
      <!-- −1400 -->
      <g style="fill: #262626" transform="translate(24.800313 348.444219) scale(0.1 -0.1)">
       <use xlink:href="#DejaVuSans-2212"/>
       <use xlink:href="#DejaVuSans-31" transform="translate(83.789062 0)"/>
       <use xlink:href="#DejaVuSans-34" transform="translate(147.412109 0)"/>
       <use xlink:href="#DejaVuSans-30" transform="translate(211.035156 0)"/>
       <use xlink:href="#DejaVuSans-30" transform="translate(274.658203 0)"/>
      </g>
     </g>
    </g>
    <g id="ytick_3">
     <g id="line2d_14">
      <path d="M 65.63 299.25 
L 558.39664 299.25 
" clip-path="url(#p1c270df8e1)" style="fill: none; stroke: #ffffff; stroke-width: 0.8; stroke-linecap: round"/>
     </g>
     <g id="text_15">
      <!-- −1200 -->
      <g style="fill: #262626" transform="translate(24.800313 303.049219) scale(0.1 -0.1)">
       <use xlink:href="#DejaVuSans-2212"/>
       <use xlink:href="#DejaVuSans-31" transform="translate(83.789062 0)"/>
       <use xlink:href="#DejaVuSans-32" transform="translate(147.412109 0)"/>
       <use xlink:href="#DejaVuSans-30" transform="translate(211.035156 0)"/>
       <use xlink:href="#DejaVuSans-30" transform="translate(274.658203 0)"/>
      </g>
     </g>
    </g>
    <g id="ytick_4">
     <g id="line2d_15">
      <path d="M 65.63 253.855 
L 558.39664 253.855 
" clip-path="url(#p1c270df8e1)" style="fill: none; stroke: #ffffff; stroke-width: 0.8; stroke-linecap: round"/>
     </g>
     <g id="text_16">
      <!-- −1000 -->
      <g style="fill: #262626" transform="translate(24.800313 257.654219) scale(0.1 -0.1)">
       <use xlink:href="#DejaVuSans-2212"/>
       <use xlink:href="#DejaVuSans-31" transform="translate(83.789062 0)"/>
       <use xlink:href="#DejaVuSans-30" transform="translate(147.412109 0)"/>
       <use xlink:href="#DejaVuSans-30" transform="translate(211.035156 0)"/>
       <use xlink:href="#DejaVuSans-30" transform="translate(274.658203 0)"/>
      </g>
     </g>
    </g>
    <g id="ytick_5">
     <g id="line2d_16">
      <path d="M 65.63 208.46 
L 558.39664 208.46 
" clip-path="url(#p1c270df8e1)" style="fill: none; stroke: #ffffff; stroke-width: 0.8; stroke-linecap: round"/>
     </g>
     <g id="text_17">
      <!-- −800 -->
      <g style="fill: #262626" transform="translate(31.162813 212.259219) scale(0.1 -0.1)">
       <defs>
        <path id="DejaVuSans-38" d="M 2034 2216 
Q 1584 2216 1326 1975 
Q 1069 1734 1069 1313 
Q 1069 891 1326 650 
Q 1584 409 2034 409 
Q 2484 409 2743 651 
Q 3003 894 3003 1313 
Q 3003 1734 2745 1975 
Q 2488 2216 2034 2216 
z
M 1403 2484 
Q 997 2584 770 2862 
Q 544 3141 544 3541 
Q 544 4100 942 4425 
Q 1341 4750 2034 4750 
Q 2731 4750 3128 4425 
Q 3525 4100 3525 3541 
Q 3525 3141 3298 2862 
Q 3072 2584 2669 2484 
Q 3125 2378 3379 2068 
Q 3634 1759 3634 1313 
Q 3634 634 3220 271 
Q 2806 -91 2034 -91 
Q 1263 -91 848 271 
Q 434 634 434 1313 
Q 434 1759 690 2068 
Q 947 2378 1403 2484 
z
M 1172 3481 
Q 1172 3119 1398 2916 
Q 1625 2713 2034 2713 
Q 2441 2713 2670 2916 
Q 2900 3119 2900 3481 
Q 2900 3844 2670 4047 
Q 2441 4250 2034 4250 
Q 1625 4250 1398 4047 
Q 1172 3844 1172 3481 
z
" transform="scale(0.015625)"/>
       </defs>
       <use xlink:href="#DejaVuSans-2212"/>
       <use xlink:href="#DejaVuSans-38" transform="translate(83.789062 0)"/>
       <use xlink:href="#DejaVuSans-30" transform="translate(147.412109 0)"/>
       <use xlink:href="#DejaVuSans-30" transform="translate(211.035156 0)"/>
      </g>
     </g>
    </g>
    <g id="ytick_6">
     <g id="line2d_17">
      <path d="M 65.63 163.065 
L 558.39664 163.065 
" clip-path="url(#p1c270df8e1)" style="fill: none; stroke: #ffffff; stroke-width: 0.8; stroke-linecap: round"/>
     </g>
     <g id="text_18">
      <!-- −600 -->
      <g style="fill: #262626" transform="translate(31.162813 166.864219) scale(0.1 -0.1)">
       <use xlink:href="#DejaVuSans-2212"/>
       <use xlink:href="#DejaVuSans-36" transform="translate(83.789062 0)"/>
       <use xlink:href="#DejaVuSans-30" transform="translate(147.412109 0)"/>
       <use xlink:href="#DejaVuSans-30" transform="translate(211.035156 0)"/>
      </g>
     </g>
    </g>
    <g id="ytick_7">
     <g id="line2d_18">
      <path d="M 65.63 117.67 
L 558.39664 117.67 
" clip-path="url(#p1c270df8e1)" style="fill: none; stroke: #ffffff; stroke-width: 0.8; stroke-linecap: round"/>
     </g>
     <g id="text_19">
      <!-- −400 -->
      <g style="fill: #262626" transform="translate(31.162813 121.469219) scale(0.1 -0.1)">
       <use xlink:href="#DejaVuSans-2212"/>
       <use xlink:href="#DejaVuSans-34" transform="translate(83.789062 0)"/>
       <use xlink:href="#DejaVuSans-30" transform="translate(147.412109 0)"/>
       <use xlink:href="#DejaVuSans-30" transform="translate(211.035156 0)"/>
      </g>
     </g>
    </g>
    <g id="ytick_8">
     <g id="line2d_19">
      <path d="M 65.63 72.275 
L 558.39664 72.275 
" clip-path="url(#p1c270df8e1)" style="fill: none; stroke: #ffffff; stroke-width: 0.8; stroke-linecap: round"/>
     </g>
     <g id="text_20">
      <!-- −200 -->
      <g style="fill: #262626" transform="translate(31.162813 76.074219) scale(0.1 -0.1)">
       <use xlink:href="#DejaVuSans-2212"/>
       <use xlink:href="#DejaVuSans-32" transform="translate(83.789062 0)"/>
       <use xlink:href="#DejaVuSans-30" transform="translate(147.412109 0)"/>
       <use xlink:href="#DejaVuSans-30" transform="translate(211.035156 0)"/>
      </g>
     </g>
    </g>
    <g id="ytick_9">
     <g id="line2d_20">
      <path d="M 65.63 26.88 
L 558.39664 26.88 
" clip-path="url(#p1c270df8e1)" style="fill: none; stroke: #ffffff; stroke-width: 0.8; stroke-linecap: round"/>
     </g>
     <g id="text_21">
      <!-- 0 -->
      <g style="fill: #262626" transform="translate(52.2675 30.679219) scale(0.1 -0.1)">
       <use xlink:href="#DejaVuSans-30"/>
      </g>
     </g>
    </g>
    <g id="text_22">
     <!-- Reward -->
     <g style="fill: #262626" transform="translate(18.720625 227.081094) rotate(-90) scale(0.1 -0.1)">
      <defs>
       <path id="DejaVuSans-52" d="M 2841 2188 
Q 3044 2119 3236 1894 
Q 3428 1669 3622 1275 
L 4263 0 
L 3584 0 
L 2988 1197 
Q 2756 1666 2539 1819 
Q 2322 1972 1947 1972 
L 1259 1972 
L 1259 0 
L 628 0 
L 628 4666 
L 2053 4666 
Q 2853 4666 3247 4331 
Q 3641 3997 3641 3322 
Q 3641 2881 3436 2590 
Q 3231 2300 2841 2188 
z
M 1259 4147 
L 1259 2491 
L 2053 2491 
Q 2509 2491 2742 2702 
Q 2975 2913 2975 3322 
Q 2975 3731 2742 3939 
Q 2509 4147 2053 4147 
L 1259 4147 
z
" transform="scale(0.015625)"/>
       <path id="DejaVuSans-77" d="M 269 3500 
L 844 3500 
L 1563 769 
L 2278 3500 
L 2956 3500 
L 3675 769 
L 4391 3500 
L 4966 3500 
L 4050 0 
L 3372 0 
L 2619 2869 
L 1863 0 
L 1184 0 
L 269 3500 
z
" transform="scale(0.015625)"/>
       <path id="DejaVuSans-61" d="M 2194 1759 
Q 1497 1759 1228 1600 
Q 959 1441 959 1056 
Q 959 750 1161 570 
Q 1363 391 1709 391 
Q 2188 391 2477 730 
Q 2766 1069 2766 1631 
L 2766 1759 
L 2194 1759 
z
M 3341 1997 
L 3341 0 
L 2766 0 
L 2766 531 
Q 2569 213 2275 61 
Q 1981 -91 1556 -91 
Q 1019 -91 701 211 
Q 384 513 384 1019 
Q 384 1609 779 1909 
Q 1175 2209 1959 2209 
L 2766 2209 
L 2766 2266 
Q 2766 2663 2505 2880 
Q 2244 3097 1772 3097 
Q 1472 3097 1187 3025 
Q 903 2953 641 2809 
L 641 3341 
Q 956 3463 1253 3523 
Q 1550 3584 1831 3584 
Q 2591 3584 2966 3190 
Q 3341 2797 3341 1997 
z
" transform="scale(0.015625)"/>
       <path id="DejaVuSans-72" d="M 2631 2963 
Q 2534 3019 2420 3045 
Q 2306 3072 2169 3072 
Q 1681 3072 1420 2755 
Q 1159 2438 1159 1844 
L 1159 0 
L 581 0 
L 581 3500 
L 1159 3500 
L 1159 2956 
Q 1341 3275 1631 3429 
Q 1922 3584 2338 3584 
Q 2397 3584 2469 3576 
Q 2541 3569 2628 3553 
L 2631 2963 
z
" transform="scale(0.015625)"/>
      </defs>
      <use xlink:href="#DejaVuSans-52"/>
      <use xlink:href="#DejaVuSans-65" transform="translate(64.982422 0)"/>
      <use xlink:href="#DejaVuSans-77" transform="translate(126.505859 0)"/>
      <use xlink:href="#DejaVuSans-61" transform="translate(208.292969 0)"/>
      <use xlink:href="#DejaVuSans-72" transform="translate(269.572266 0)"/>
      <use xlink:href="#DejaVuSans-64" transform="translate(308.935547 0)"/>
     </g>
    </g>
   </g>
   <g id="line2d_21">
    <path d="M 68.551541 309.577585 
L 69.525388 292.245181 
L 70.499236 295.447971 
L 71.473083 288.157991 
L 72.44693 298.57269 
L 73.420777 299.979031 
L 74.394624 294.883412 
L 75.368471 297.626757 
L 76.342318 295.279487 
L 77.316165 296.771771 
L 79.26386 285.036963 
L 80.237707 282.434243 
L 81.211554 276.250858 
L 82.185401 272.116687 
L 83.159248 278.421695 
L 84.133095 281.445387 
L 85.106942 274.68735 
L 86.080789 290.237476 
L 87.054637 277.492646 
L 88.028484 282.984028 
L 89.002331 281.577011 
L 89.976178 274.954316 
L 90.950025 274.465296 
L 91.923872 265.347394 
L 92.897719 265.020254 
L 93.871566 262.411886 
L 94.845413 264.392177 
L 95.819261 258.240708 
L 97.766955 264.478779 
L 98.740802 270.666574 
L 99.714649 257.380885 
L 100.688496 262.854981 
L 101.662343 258.311313 
L 102.63619 263.658868 
L 103.610037 257.353045 
L 104.583885 253.930478 
L 105.557732 254.070096 
L 106.531579 258.80823 
L 107.505426 253.218995 
L 108.479273 254.163122 
L 109.45312 252.65861 
L 110.426967 249.68653 
L 111.400814 256.626118 
L 112.374662 249.094215 
L 113.348509 245.406679 
L 114.322356 250.99149 
L 115.296203 253.376079 
L 116.27005 249.087545 
L 117.243897 243.290857 
L 118.217744 250.735685 
L 119.191591 254.122951 
L 120.165438 255.898866 
L 121.139286 255.086797 
L 122.113133 249.76867 
L 123.08698 245.529279 
L 124.060827 246.266678 
L 126.008521 245.519673 
L 126.982368 243.517067 
L 127.956215 246.027089 
L 128.930062 255.229269 
L 129.90391 245.497533 
L 130.877757 249.826214 
L 131.851604 241.765067 
L 132.825451 244.600375 
L 133.799298 246.015992 
L 134.773145 248.144196 
L 135.746992 242.546139 
L 136.720839 239.817278 
L 137.694687 248.098474 
L 138.668534 250.575539 
L 139.642381 248.935497 
L 140.616228 237.128862 
L 141.590075 243.872101 
L 142.563922 253.911131 
L 143.537769 243.03016 
L 144.511616 241.81795 
L 145.485463 238.830241 
L 146.459311 246.747251 
L 147.433158 244.280594 
L 148.407005 246.589021 
L 149.380852 239.03625 
L 150.354699 251.86603 
L 151.328546 252.070345 
L 152.302393 247.768405 
L 153.27624 244.865507 
L 154.250087 247.159838 
L 155.223935 252.544938 
L 156.197782 244.717809 
L 157.171629 251.135001 
L 158.145476 247.741443 
L 159.119323 236.397413 
L 160.09317 240.784544 
L 161.067017 241.25042 
L 162.040864 243.15374 
L 163.014712 243.989704 
L 163.988559 242.671251 
L 164.962406 238.418295 
L 165.936253 239.530477 
L 166.9101 240.213753 
L 167.883947 237.421413 
L 168.857794 240.963487 
L 169.831641 243.023634 
L 170.805488 248.745392 
L 171.779336 243.91798 
L 172.753183 242.967485 
L 173.72703 242.609488 
L 174.700877 247.06074 
L 175.674724 243.946226 
L 176.648571 240.251813 
L 177.622418 240.174826 
L 178.596265 236.918162 
L 179.570112 239.932883 
L 180.54396 232.404572 
L 181.517807 233.770382 
L 182.491654 234.8646 
L 183.465501 238.295629 
L 184.439348 240.104214 
L 185.413195 235.967557 
L 186.387042 237.528863 
L 187.360889 237.482681 
L 188.334737 237.958977 
L 189.308584 235.892045 
L 190.282431 237.962875 
L 191.256278 239.299479 
L 192.230125 231.997595 
L 193.203972 229.821737 
L 194.177819 224.958079 
L 195.151666 238.482678 
L 196.125513 230.226697 
L 197.099361 231.814272 
L 198.073208 234.663247 
L 199.047055 229.401864 
L 200.020902 230.580547 
L 200.994749 229.626029 
L 201.968596 232.634137 
L 202.942443 237.637413 
L 203.91629 234.342663 
L 204.890137 237.834668 
L 205.863985 240.027032 
L 206.837832 234.077804 
L 207.811679 241.23076 
L 208.785526 239.681096 
L 209.759373 234.442779 
L 210.73322 238.025341 
L 211.707067 240.920854 
L 212.680914 230.405835 
L 213.654762 240.058002 
L 214.628609 239.504421 
L 215.602456 239.689669 
L 216.576303 234.198149 
L 217.55015 231.554763 
L 218.523997 239.581413 
L 219.497844 234.419582 
L 220.471691 239.204494 
L 221.445538 248.345769 
L 222.419386 245.657034 
L 223.393233 250.435772 
L 224.36708 253.114948 
L 225.340927 245.557353 
L 226.314774 246.539409 
L 227.288621 248.916105 
L 228.262468 245.792211 
L 229.236315 250.810803 
L 230.210162 246.044025 
L 231.18401 245.710507 
L 232.157857 248.949425 
L 233.131704 246.091321 
L 234.105551 246.721034 
L 235.079398 240.52132 
L 236.053245 240.765301 
L 237.027092 242.780058 
L 238.000939 241.605721 
L 238.974787 244.522647 
L 239.948634 241.03474 
L 240.922481 247.887614 
L 241.896328 242.31128 
L 242.870175 243.083176 
L 243.844022 233.169329 
L 244.817869 233.598401 
L 245.791716 239.686592 
L 246.765563 248.918491 
L 247.739411 244.221143 
L 248.713258 245.498326 
L 249.687105 244.020389 
L 250.660952 238.652904 
L 251.634799 237.911878 
L 252.608646 242.810657 
L 253.582493 238.951839 
L 254.55634 235.943535 
L 255.530187 229.852502 
L 256.504035 241.169176 
L 257.477882 232.874765 
L 258.451729 238.946035 
L 259.425576 245.947753 
L 260.399423 237.741359 
L 261.37327 232.492281 
L 262.347117 230.31808 
L 263.320964 231.264011 
L 264.294812 234.206905 
L 265.268659 227.258121 
L 266.242506 229.447442 
L 267.216353 231.033295 
L 268.1902 220.175142 
L 270.137894 230.30597 
L 271.111741 221.873605 
L 272.085588 231.202155 
L 273.059436 222.365172 
L 274.033283 222.260588 
L 275.980977 241.296981 
L 276.954824 233.323388 
L 277.928671 230.351673 
L 278.902518 226.180257 
L 279.876365 227.556151 
L 280.850212 232.399787 
L 281.82406 235.906442 
L 282.797907 231.215858 
L 283.771754 231.588851 
L 284.745601 238.507521 
L 285.719448 233.376365 
L 286.693295 235.508208 
L 287.667142 239.507006 
L 288.640989 232.817799 
L 289.614837 239.109198 
L 290.588684 232.006979 
L 291.562531 249.037166 
L 292.536378 232.519776 
L 293.510225 236.796134 
L 294.484072 235.104267 
L 295.457919 222.974398 
L 296.431766 241.036054 
L 297.405613 238.259703 
L 298.379461 240.938939 
L 299.353308 238.153088 
L 300.327155 238.577935 
L 301.301002 235.007726 
L 302.274849 235.20096 
L 303.248696 237.892833 
L 304.222543 230.887432 
L 305.19639 227.597339 
L 306.170237 235.554376 
L 307.144085 227.990067 
L 308.117932 227.927603 
L 309.091779 234.24273 
L 310.065626 243.094187 
L 311.039473 233.173236 
L 312.01332 238.935127 
L 312.987167 232.275446 
L 313.961014 230.920671 
L 314.934862 220.410181 
L 315.908709 227.388367 
L 316.882556 221.506105 
L 317.856403 231.736472 
L 318.83025 227.756294 
L 319.804097 224.827501 
L 320.777944 223.934263 
L 321.751791 228.292879 
L 322.725638 234.388344 
L 324.673333 235.593851 
L 325.64718 231.993832 
L 326.621027 229.675637 
L 327.594874 231.403227 
L 328.568721 237.653431 
L 329.542568 251.076662 
L 330.516415 234.122601 
L 331.490262 241.361471 
L 333.437957 252.54354 
L 334.411804 248.206314 
L 335.385651 242.460207 
L 336.359498 238.546462 
L 337.333345 245.354243 
L 338.307192 241.345319 
L 339.281039 233.731732 
L 340.254887 243.173461 
L 341.228734 237.818749 
L 342.202581 245.744586 
L 343.176428 247.572778 
L 344.150275 250.655907 
L 345.124122 250.178009 
L 347.071816 245.539678 
L 348.045663 248.361884 
L 349.019511 239.953623 
L 349.993358 249.482416 
L 350.967205 251.45528 
L 351.941052 248.648531 
L 352.914899 254.1779 
L 353.888746 256.024183 
L 354.862593 255.853493 
L 355.83644 249.870858 
L 356.810287 254.985579 
L 357.784135 256.683946 
L 358.757982 250.061114 
L 360.705676 252.482189 
L 361.679523 248.698277 
L 362.65337 250.051596 
L 363.627217 246.667583 
L 364.601064 248.826605 
L 365.574911 249.210697 
L 366.548759 240.980506 
L 367.522606 239.518746 
L 368.496453 242.696865 
L 369.4703 239.814851 
L 370.444147 238.027552 
L 371.417994 237.249004 
L 372.391841 235.007696 
L 373.365688 233.22009 
L 374.339536 235.547452 
L 375.313383 230.48373 
L 377.261077 241.722507 
L 378.234924 236.699266 
L 379.208771 241.713332 
L 380.182618 234.341168 
L 381.156465 240.778791 
L 382.130312 244.04976 
L 383.10416 239.672975 
L 384.078007 236.141495 
L 385.051854 238.3276 
L 386.025701 242.058207 
L 386.999548 253.1542 
L 387.973395 252.690766 
L 389.921089 244.553947 
L 390.894936 256.54768 
L 391.868784 248.918149 
L 392.842631 250.387254 
L 393.816478 252.444075 
L 394.790325 253.334527 
L 395.764172 244.634059 
L 396.738019 246.879064 
L 397.711866 246.358748 
L 398.685713 247.640973 
L 399.659561 251.150125 
L 400.633408 245.982229 
L 401.607255 250.712936 
L 402.581102 252.518686 
L 403.554949 255.193704 
L 404.528796 253.504956 
L 405.502643 255.735172 
L 406.47649 250.636986 
L 407.450337 244.189212 
L 408.424185 250.498255 
L 409.398032 243.255303 
L 410.371879 244.619265 
L 411.345726 251.960046 
L 412.319573 247.602129 
L 413.29342 247.736501 
L 414.267267 235.999621 
L 415.241114 238.562041 
L 416.214961 236.937338 
L 417.188809 232.534229 
L 418.162656 241.266081 
L 419.136503 239.448884 
L 420.11035 227.666514 
L 421.084197 230.618897 
L 422.058044 236.962168 
L 423.031891 232.167032 
L 424.005738 238.967147 
L 424.979586 227.504703 
L 425.953433 226.11175 
L 426.92728 231.138931 
L 427.901127 239.541108 
L 428.874974 236.324334 
L 429.848821 236.686567 
L 430.822668 242.594631 
L 431.796515 235.184757 
L 432.770362 231.474557 
L 433.74421 230.877108 
L 434.718057 232.942284 
L 435.691904 234.085669 
L 436.665751 232.503202 
L 437.639598 225.133119 
L 438.613445 224.373701 
L 439.587292 219.545082 
L 440.561139 227.276291 
L 441.534986 232.886455 
L 442.508834 234.245728 
L 443.482681 231.250625 
L 444.456528 236.973896 
L 445.430375 228.867855 
L 446.404222 226.653462 
L 447.378069 219.053597 
L 448.351916 229.205142 
L 449.325763 233.740699 
L 450.299611 224.52959 
L 451.273458 227.099704 
L 452.247305 226.696356 
L 453.221152 234.475567 
L 454.194999 234.295807 
L 455.168846 226.177669 
L 456.142693 227.949428 
L 457.11654 224.034139 
L 458.090387 230.776677 
L 459.064235 228.909099 
L 460.038082 233.67616 
L 461.011929 230.909647 
L 461.985776 229.566267 
L 462.959623 227.291432 
L 463.93347 221.283281 
L 464.907317 225.502337 
L 465.881164 220.593753 
L 466.855011 224.978398 
L 467.828859 230.623463 
L 468.802706 226.783274 
L 469.776553 223.70511 
L 470.7504 224.254201 
L 471.724247 235.170813 
L 472.698094 236.48011 
L 473.671941 239.868755 
L 474.645788 248.712255 
L 475.619636 230.868907 
L 476.593483 239.159443 
L 477.56733 233.169993 
L 478.541177 231.910728 
L 479.515024 232.913196 
L 480.488871 232.472343 
L 481.462718 234.95059 
L 482.436565 231.045975 
L 483.410412 236.248798 
L 484.38426 235.482557 
L 485.358107 234.959721 
L 486.331954 232.862586 
L 487.305801 232.244334 
L 488.279648 228.736315 
L 489.253495 218.542967 
L 490.227342 225.382191 
L 491.201189 222.353607 
L 492.175036 227.781663 
L 493.148884 238.254842 
L 494.122731 215.53607 
L 495.096578 218.615711 
L 496.070425 230.541233 
L 497.044272 220.731867 
L 498.018119 223.52568 
L 498.991966 224.25356 
L 499.965813 223.130994 
L 500.939661 231.218713 
L 501.913508 231.576494 
L 502.887355 234.551144 
L 503.861202 234.797651 
L 504.835049 232.775924 
L 505.808896 228.013339 
L 506.782743 225.564724 
L 507.75659 228.992569 
L 509.704285 231.928069 
L 510.678132 223.547496 
L 511.651979 231.449298 
L 512.625826 228.827152 
L 513.599673 227.623281 
L 514.57352 232.919644 
L 515.547367 235.846254 
L 516.521214 236.159015 
L 517.495061 231.098232 
L 518.468909 234.197875 
L 519.442756 235.657691 
L 520.416603 231.239028 
L 521.39045 240.344443 
L 522.364297 235.416202 
L 523.338144 232.704157 
L 524.311991 233.67456 
L 525.285838 234.118968 
L 526.259686 236.913998 
L 527.233533 240.228753 
L 528.20738 244.837705 
L 529.181227 236.700545 
L 530.155074 241.484656 
L 531.128921 244.44457 
L 532.102768 246.486916 
L 533.076615 246.162819 
L 534.050462 247.084677 
L 535.02431 243.624283 
L 535.998157 238.078712 
L 536.972004 247.446496 
L 537.945851 244.384428 
L 538.919698 245.120387 
L 539.893545 250.833137 
L 540.867392 251.659482 
L 541.841239 254.679888 
L 542.815086 256.909812 
L 543.788934 252.769666 
L 544.762781 256.088823 
L 545.736628 250.467587 
L 546.710475 259.257677 
L 547.684322 255.716128 
L 548.658169 259.00597 
L 549.632016 255.942541 
L 550.605863 252.136553 
L 551.579711 255.113939 
L 552.553558 256.533782 
L 553.527405 259.57583 
L 554.501252 263.369453 
L 554.501252 263.369453 
" clip-path="url(#p1c270df8e1)" style="fill: none; stroke: #1f77b4; stroke-width: 1.5; stroke-linecap: round"/>
   </g>
   <g id="line2d_22">
    <path d="M 68.551541 312.142482 
L 69.525388 311.986267 
L 70.499236 300.699084 
L 71.473083 288.071088 
L 72.44693 290.575309 
L 73.420777 298.926327 
L 74.394624 288.222881 
L 75.368471 287.41103 
L 76.342318 293.265468 
L 77.316165 287.518709 
L 78.290012 292.762097 
L 79.26386 285.114644 
L 81.211554 299.713874 
L 82.185401 288.497669 
L 83.159248 287.261716 
L 84.133095 282.00658 
L 86.080789 301.900023 
L 87.054637 299.121793 
L 88.028484 288.335912 
L 89.002331 283.837486 
L 89.976178 275.775025 
L 90.950025 271.742802 
L 91.923872 283.708891 
L 92.897719 284.919793 
L 93.871566 282.882704 
L 94.845413 289.336472 
L 95.819261 287.045961 
L 96.793108 281.172027 
L 97.766955 283.799233 
L 98.740802 271.935965 
L 99.714649 277.249216 
L 100.688496 280.787629 
L 101.662343 279.347771 
L 102.63619 290.472859 
L 103.610037 285.990834 
L 104.583885 279.961487 
L 105.557732 284.899166 
L 106.531579 276.693077 
L 107.505426 282.730775 
L 108.479273 270.21145 
L 109.45312 283.59062 
L 111.400814 272.717232 
L 112.374662 293.925316 
L 113.348509 284.974691 
L 114.322356 280.105238 
L 115.296203 279.745122 
L 116.27005 273.71833 
L 117.243897 281.45689 
L 118.217744 276.587543 
L 119.191591 273.255581 
L 120.165438 267.468489 
L 121.139286 277.854226 
L 122.113133 279.146028 
L 123.08698 279.685944 
L 124.060827 274.760622 
L 125.034674 274.720271 
L 126.008521 278.750212 
L 126.982368 275.035542 
L 127.956215 282.60987 
L 128.930062 269.668503 
L 129.90391 265.406614 
L 130.877757 268.896551 
L 131.851604 278.532277 
L 132.825451 272.312302 
L 133.799298 269.869765 
L 134.773145 267.061655 
L 135.746992 267.149686 
L 136.720839 272.059186 
L 137.694687 266.129092 
L 138.668534 273.172827 
L 139.642381 267.425177 
L 140.616228 272.97178 
L 141.590075 275.336628 
L 142.563922 269.807188 
L 143.537769 275.637979 
L 144.511616 262.409691 
L 145.485463 267.91286 
L 146.459311 265.950843 
L 147.433158 270.735633 
L 148.407005 267.789786 
L 149.380852 270.481505 
L 150.354699 268.985861 
L 151.328546 261.041615 
L 152.302393 267.097118 
L 153.27624 263.045204 
L 154.250087 262.952557 
L 155.223935 263.55907 
L 156.197782 256.846416 
L 157.171629 265.863516 
L 158.145476 262.744081 
L 159.119323 270.856435 
L 160.09317 272.115008 
L 161.067017 270.002032 
L 162.040864 271.785251 
L 163.014712 256.75936 
L 163.988559 257.538315 
L 164.962406 252.951529 
L 165.936253 247.109069 
L 166.9101 247.981338 
L 167.883947 250.662316 
L 168.857794 247.212189 
L 169.831641 252.339802 
L 170.805488 249.669187 
L 171.779336 250.053083 
L 172.753183 230.691921 
L 173.72703 228.331745 
L 174.700877 239.019514 
L 175.674724 239.025677 
L 176.648571 233.404282 
L 177.622418 240.295061 
L 178.596265 232.459459 
L 179.570112 226.735139 
L 180.54396 226.58289 
L 181.517807 226.907348 
L 182.491654 224.943866 
L 183.465501 226.682935 
L 184.439348 218.024401 
L 185.413195 205.487573 
L 186.387042 211.555478 
L 187.360889 214.554376 
L 188.334737 207.333235 
L 189.308584 217.47579 
L 190.282431 197.585667 
L 191.256278 204.166128 
L 192.230125 203.786538 
L 193.203972 214.976391 
L 194.177819 207.091669 
L 195.151666 216.177874 
L 196.125513 199.868624 
L 198.073208 192.561501 
L 199.047055 191.160031 
L 200.020902 202.921283 
L 200.994749 192.130201 
L 201.968596 201.581086 
L 202.942443 186.744406 
L 203.91629 195.686594 
L 204.890137 185.444278 
L 205.863985 202.520317 
L 206.837832 192.41479 
L 207.811679 190.373012 
L 208.785526 179.656607 
L 209.759373 182.021255 
L 210.73322 185.039407 
L 211.707067 175.172892 
L 212.680914 177.922229 
L 213.654762 168.428818 
L 214.628609 176.547194 
L 215.602456 167.271574 
L 216.576303 168.268224 
L 217.55015 174.827571 
L 218.523997 163.823531 
L 219.497844 169.685458 
L 220.471691 163.71736 
L 221.445538 160.232276 
L 222.419386 162.358552 
L 223.393233 154.191453 
L 224.36708 160.519803 
L 225.340927 153.495187 
L 226.314774 155.022861 
L 227.288621 154.605553 
L 228.262468 162.178629 
L 229.236315 150.568993 
L 230.210162 144.486253 
L 231.18401 154.008789 
L 232.157857 155.738614 
L 233.131704 160.19185 
L 234.105551 160.284891 
L 236.053245 153.019432 
L 237.027092 144.952237 
L 238.000939 156.690977 
L 238.974787 154.452629 
L 239.948634 149.681913 
L 240.922481 147.713424 
L 241.896328 152.709182 
L 242.870175 148.261475 
L 243.844022 155.351982 
L 245.791716 150.615941 
L 246.765563 142.415881 
L 247.739411 142.076356 
L 248.713258 139.823627 
L 249.687105 139.03482 
L 250.660952 149.320507 
L 251.634799 151.532954 
L 252.608646 141.998618 
L 253.582493 143.203996 
L 254.55634 139.527119 
L 255.530187 144.856631 
L 256.504035 141.780418 
L 257.477882 137.769474 
L 258.451729 134.683628 
L 259.425576 133.475533 
L 260.399423 137.78298 
L 261.37327 132.794262 
L 262.347117 134.442286 
L 263.320964 131.631525 
L 264.294812 133.857165 
L 265.268659 138.865574 
L 266.242506 130.352198 
L 267.216353 141.067678 
L 268.1902 139.480206 
L 269.164047 140.476156 
L 270.137894 143.926155 
L 271.111741 135.629698 
L 272.085588 132.269622 
L 273.059436 138.613562 
L 274.033283 139.644559 
L 275.00713 136.232406 
L 275.980977 128.021114 
L 276.954824 134.43233 
L 277.928671 130.747498 
L 278.902518 127.554181 
L 279.876365 136.250425 
L 280.850212 139.831381 
L 281.82406 129.80113 
L 282.797907 132.247034 
L 283.771754 130.995267 
L 284.745601 134.490172 
L 285.719448 127.07856 
L 286.693295 123.130005 
L 287.667142 124.043827 
L 288.640989 131.929707 
L 289.614837 130.364298 
L 290.588684 130.078106 
L 291.562531 122.679444 
L 292.536378 123.739653 
L 293.510225 133.409084 
L 294.484072 130.188288 
L 295.457919 127.596101 
L 296.431766 136.112333 
L 297.405613 127.268114 
L 298.379461 123.553043 
L 299.353308 124.326404 
L 300.327155 125.337643 
L 301.301002 119.367656 
L 302.274849 120.304297 
L 303.248696 120.667279 
L 304.222543 120.039114 
L 305.19639 134.991535 
L 306.170237 128.318444 
L 307.144085 118.440748 
L 308.117932 123.896995 
L 309.091779 124.175713 
L 310.065626 113.590392 
L 311.039473 116.940165 
L 312.01332 118.05315 
L 312.987167 114.372302 
L 313.961014 111.918463 
L 314.934862 118.393721 
L 315.908709 115.045257 
L 316.882556 113.646911 
L 317.856403 101.855825 
L 318.83025 118.938573 
L 319.804097 106.221313 
L 320.777944 124.141598 
L 321.751791 106.488796 
L 322.725638 109.577855 
L 323.699486 108.905586 
L 324.673333 110.35661 
L 325.64718 92.536103 
L 326.621027 94.125474 
L 327.594874 97.928899 
L 328.568721 98.914699 
L 329.542568 103.18841 
L 330.516415 105.880512 
L 331.490262 90.485845 
L 332.46411 92.682263 
L 333.437957 97.041475 
L 334.411804 94.310763 
L 335.385651 87.639117 
L 336.359498 86.727761 
L 337.333345 84.744819 
L 338.307192 98.475771 
L 339.281039 90.221034 
L 340.254887 80.460264 
L 341.228734 92.916868 
L 342.202581 93.260018 
L 343.176428 94.570556 
L 344.150275 96.750082 
L 345.124122 87.743826 
L 347.071816 89.363474 
L 348.045663 90.603296 
L 349.019511 97.404786 
L 349.993358 86.792228 
L 350.967205 93.247833 
L 351.941052 91.014207 
L 352.914899 77.532589 
L 353.888746 80.998176 
L 354.862593 86.932215 
L 355.83644 76.09621 
L 356.810287 85.801087 
L 357.784135 90.630047 
L 359.731829 77.292441 
L 360.705676 91.744966 
L 361.679523 84.343024 
L 362.65337 85.927162 
L 363.627217 101.734258 
L 364.601064 85.411037 
L 365.574911 79.28009 
L 366.548759 83.192934 
L 367.522606 76.107998 
L 368.496453 86.679632 
L 369.4703 77.519507 
L 370.444147 74.773649 
L 371.417994 80.966984 
L 372.391841 88.263453 
L 373.365688 82.371872 
L 374.339536 79.386432 
L 375.313383 80.09179 
L 376.28723 92.800848 
L 377.261077 80.198665 
L 378.234924 86.747068 
L 379.208771 76.067108 
L 380.182618 81.738335 
L 381.156465 88.684834 
L 382.130312 77.896477 
L 384.078007 88.231959 
L 386.025701 81.203067 
L 386.999548 90.512975 
L 387.973395 78.617888 
L 388.947242 73.453655 
L 389.921089 79.48258 
L 390.894936 76.876809 
L 391.868784 80.223968 
L 392.842631 81.089517 
L 393.816478 87.070634 
L 394.790325 85.293747 
L 396.738019 75.501572 
L 397.711866 77.467646 
L 398.685713 75.3361 
L 399.659561 79.443883 
L 400.633408 78.306341 
L 401.607255 79.591205 
L 402.581102 73.75796 
L 403.554949 73.237682 
L 404.528796 76.725024 
L 405.502643 72.623254 
L 406.47649 87.350328 
L 407.450337 72.940329 
L 408.424185 69.240568 
L 409.398032 75.916597 
L 410.371879 78.065904 
L 411.345726 73.36151 
L 412.319573 71.648737 
L 413.29342 77.469932 
L 414.267267 79.408274 
L 415.241114 72.737548 
L 416.214961 71.408284 
L 417.188809 72.962887 
L 418.162656 79.706112 
L 419.136503 79.19394 
L 420.11035 69.933885 
L 421.084197 72.841935 
L 422.058044 72.723535 
L 423.031891 75.089671 
L 424.005738 80.8682 
L 424.979586 70.376012 
L 425.953433 71.521499 
L 426.92728 79.377865 
L 427.901127 77.169986 
L 428.874974 85.295015 
L 429.848821 73.914451 
L 430.822668 74.613704 
L 431.796515 71.215658 
L 432.770362 88.086438 
L 433.74421 81.633231 
L 434.718057 78.132506 
L 435.691904 75.115279 
L 436.665751 73.521297 
L 437.639598 69.745625 
L 438.613445 73.172613 
L 439.587292 72.896528 
L 440.561139 73.168894 
L 441.534986 74.555142 
L 442.508834 75.498356 
L 443.482681 70.212274 
L 444.456528 74.004197 
L 445.430375 75.975503 
L 446.404222 85.659491 
L 447.378069 76.245258 
L 448.351916 71.171815 
L 449.325763 69.027424 
L 450.299611 74.631689 
L 451.273458 73.937913 
L 452.247305 73.731205 
L 453.221152 71.969172 
L 454.194999 76.511172 
L 455.168846 66.080207 
L 456.142693 73.423192 
L 457.11654 74.185386 
L 458.090387 73.082242 
L 459.064235 73.330281 
L 460.038082 68.680351 
L 461.985776 78.869464 
L 462.959623 66.833651 
L 463.93347 72.880808 
L 464.907317 66.161498 
L 465.881164 70.151593 
L 467.828859 73.81995 
L 468.802706 68.385985 
L 469.776553 69.996938 
L 470.7504 72.360812 
L 471.724247 70.415167 
L 472.698094 69.326673 
L 473.671941 76.487266 
L 474.645788 75.359473 
L 475.619636 71.669626 
L 476.593483 74.97633 
L 477.56733 75.948454 
L 478.541177 71.915531 
L 479.515024 73.666218 
L 480.488871 75.08529 
L 481.462718 71.247553 
L 482.436565 77.524347 
L 483.410412 71.528877 
L 484.38426 77.931202 
L 485.358107 66.525696 
L 486.331954 69.605622 
L 487.305801 73.329935 
L 488.279648 68.580441 
L 489.253495 73.614105 
L 490.227342 66.215445 
L 491.201189 68.451536 
L 492.175036 67.871097 
L 493.148884 68.444459 
L 494.122731 68.361598 
L 495.096578 71.940229 
L 496.070425 73.211237 
L 497.044272 69.611752 
L 498.018119 70.945661 
L 498.991966 65.807807 
L 499.965813 73.05818 
L 500.939661 72.033243 
L 501.913508 66.484827 
L 502.887355 72.493237 
L 503.861202 70.528587 
L 504.835049 73.314516 
L 505.808896 61.905243 
L 506.782743 71.70244 
L 507.75659 64.455065 
L 508.730437 60.953879 
L 509.704285 71.231232 
L 510.678132 66.503896 
L 511.651979 72.728899 
L 512.625826 66.814565 
L 513.599673 68.506261 
L 514.57352 67.703357 
L 515.547367 66.241311 
L 516.521214 67.937759 
L 517.495061 67.449543 
L 518.468909 63.186287 
L 519.442756 66.458638 
L 520.416603 80.82263 
L 522.364297 68.905 
L 523.338144 71.760975 
L 524.311991 67.954558 
L 525.285838 69.596105 
L 526.259686 67.448567 
L 527.233533 69.322809 
L 528.20738 68.558312 
L 529.181227 78.437696 
L 530.155074 67.072288 
L 531.128921 67.212264 
L 532.102768 74.8593 
L 533.076615 70.441777 
L 534.050462 71.773548 
L 535.02431 67.84361 
L 535.998157 69.640123 
L 536.972004 72.091374 
L 537.945851 62.977163 
L 538.919698 66.906515 
L 539.893545 74.421397 
L 540.867392 64.870905 
L 541.841239 80.040749 
L 542.815086 71.675186 
L 543.788934 69.612122 
L 544.762781 75.325922 
L 545.736628 67.510927 
L 546.710475 64.975946 
L 547.684322 72.966412 
L 548.658169 69.820526 
L 549.632016 74.493152 
L 550.605863 70.244644 
L 551.579711 73.762975 
L 552.553558 67.004706 
L 553.527405 66.43352 
L 554.501252 67.475552 
L 554.501252 67.475552 
" clip-path="url(#p1c270df8e1)" style="fill: none; stroke: #ff7f0e; stroke-width: 1.5; stroke-linecap: round"/>
   </g>
   <g id="line2d_23">
    <path d="M 68.551541 295.503092 
L 69.525388 292.065629 
L 70.499236 310.764548 
L 71.473083 292.557932 
L 73.420777 301.246704 
L 74.394624 289.114952 
L 75.368471 288.333563 
L 76.342318 296.905123 
L 77.316165 288.993177 
L 78.290012 289.949424 
L 79.26386 296.943251 
L 80.237707 289.234995 
L 81.211554 270.802756 
L 82.185401 290.892064 
L 83.159248 286.632582 
L 84.133095 279.712054 
L 85.106942 296.645048 
L 86.080789 273.854329 
L 88.028484 286.024107 
L 89.002331 285.156161 
L 89.976178 281.117253 
L 90.950025 273.619256 
L 91.923872 270.535321 
L 92.897719 268.329164 
L 93.871566 264.192935 
L 94.845413 273.376428 
L 95.819261 265.923204 
L 96.793108 265.296442 
L 97.766955 266.634626 
L 98.740802 271.513221 
L 99.714649 261.104453 
L 100.688496 264.10176 
L 101.662343 253.45197 
L 102.63619 252.465777 
L 103.610037 260.006344 
L 104.583885 259.06313 
L 105.557732 263.865422 
L 106.531579 261.384917 
L 107.505426 268.267713 
L 108.479273 259.561988 
L 109.45312 260.164005 
L 110.426967 263.528833 
L 112.374662 250.727219 
L 113.348509 248.693013 
L 114.322356 251.285328 
L 115.296203 247.938175 
L 116.27005 252.572229 
L 117.243897 254.61679 
L 118.217744 250.10028 
L 119.191591 243.29674 
L 120.165438 244.68046 
L 121.139286 246.666172 
L 122.113133 244.2223 
L 123.08698 239.033266 
L 124.060827 244.182992 
L 125.034674 243.288573 
L 126.008521 244.426954 
L 126.982368 239.499016 
L 127.956215 243.68788 
L 128.930062 243.034206 
L 129.90391 238.164015 
L 130.877757 245.357094 
L 131.851604 241.145786 
L 132.825451 242.369261 
L 133.799298 240.727414 
L 134.773145 244.01955 
L 135.746992 240.179479 
L 136.720839 239.569345 
L 137.694687 240.006559 
L 138.668534 237.680912 
L 139.642381 238.472497 
L 140.616228 247.71999 
L 141.590075 239.241914 
L 142.563922 243.465341 
L 143.537769 232.792294 
L 144.511616 237.24336 
L 145.485463 244.401238 
L 146.459311 234.398165 
L 147.433158 234.163442 
L 148.407005 241.524256 
L 149.380852 236.426434 
L 150.354699 238.916273 
L 151.328546 240.149026 
L 152.302393 244.249689 
L 154.250087 232.48214 
L 155.223935 236.41037 
L 156.197782 240.88959 
L 157.171629 238.263376 
L 158.145476 227.682855 
L 159.119323 236.502626 
L 160.09317 238.607586 
L 161.067017 229.306316 
L 162.040864 223.081894 
L 163.014712 231.038038 
L 163.988559 230.26547 
L 164.962406 228.951133 
L 165.936253 235.991163 
L 166.9101 234.282638 
L 167.883947 225.578998 
L 168.857794 239.560502 
L 169.831641 247.048055 
L 170.805488 228.783173 
L 171.779336 231.689411 
L 172.753183 226.173302 
L 173.72703 233.308407 
L 174.700877 234.236309 
L 175.674724 235.907934 
L 176.648571 229.126067 
L 177.622418 228.983772 
L 178.596265 222.860545 
L 179.570112 219.323378 
L 180.54396 223.004899 
L 181.517807 231.436505 
L 182.491654 226.86014 
L 183.465501 229.287532 
L 184.439348 221.732547 
L 185.413195 222.37168 
L 186.387042 225.099606 
L 187.360889 224.115144 
L 188.334737 224.401773 
L 189.308584 227.546218 
L 190.282431 223.866582 
L 192.230125 232.56433 
L 193.203972 227.60431 
L 194.177819 227.244898 
L 195.151666 235.265484 
L 196.125513 237.294853 
L 197.099361 230.371132 
L 198.073208 232.172626 
L 199.047055 235.848176 
L 200.020902 236.569158 
L 200.994749 238.026748 
L 201.968596 237.339672 
L 202.942443 239.886211 
L 203.91629 241.420879 
L 204.890137 248.243893 
L 205.863985 242.595296 
L 206.837832 246.006557 
L 207.811679 229.724394 
L 208.785526 243.490751 
L 209.759373 243.73079 
L 210.73322 237.913715 
L 211.707067 242.578101 
L 212.680914 249.613484 
L 213.654762 244.444356 
L 214.628609 255.897661 
L 215.602456 253.59132 
L 216.576303 266.36687 
L 217.55015 255.826062 
L 218.523997 265.584688 
L 219.497844 266.448519 
L 220.471691 251.331108 
L 222.419386 261.559704 
L 223.393233 253.268154 
L 224.36708 262.965365 
L 225.340927 249.058001 
L 226.314774 268.670663 
L 227.288621 257.39517 
L 228.262468 252.239742 
L 229.236315 252.999068 
L 230.210162 246.878787 
L 231.18401 255.59161 
L 232.157857 250.143499 
L 233.131704 260.836038 
L 234.105551 244.725629 
L 235.079398 255.992479 
L 236.053245 259.509808 
L 237.027092 270.493411 
L 238.000939 250.602217 
L 238.974787 245.422287 
L 239.948634 251.688506 
L 240.922481 251.607665 
L 241.896328 257.823352 
L 242.870175 252.441459 
L 243.844022 259.030718 
L 244.817869 257.380321 
L 245.791716 246.648202 
L 246.765563 250.96474 
L 247.739411 245.994926 
L 248.713258 262.542613 
L 249.687105 246.78544 
L 250.660952 248.323317 
L 251.634799 258.720108 
L 252.608646 251.836099 
L 253.582493 262.315689 
L 254.55634 259.052381 
L 255.530187 270.381052 
L 256.504035 261.122262 
L 257.477882 264.321418 
L 258.451729 259.165174 
L 259.425576 240.929245 
L 260.399423 254.275677 
L 261.37327 253.292139 
L 262.347117 248.989843 
L 263.320964 263.131144 
L 264.294812 261.48662 
L 266.242506 235.997768 
L 267.216353 257.118278 
L 268.1902 250.628315 
L 269.164047 249.477647 
L 270.137894 246.108901 
L 271.111741 248.882358 
L 272.085588 241.904033 
L 274.033283 250.88863 
L 275.00713 252.341423 
L 275.980977 250.630175 
L 276.954824 260.103373 
L 277.928671 262.835855 
L 278.902518 253.280756 
L 279.876365 248.539046 
L 280.850212 256.185975 
L 281.82406 253.624209 
L 282.797907 250.529962 
L 283.771754 269.389321 
L 284.745601 255.283916 
L 285.719448 261.542883 
L 286.693295 257.144704 
L 287.667142 256.661859 
L 288.640989 252.765507 
L 289.614837 243.276306 
L 290.588684 243.997813 
L 291.562531 245.474968 
L 292.536378 252.941344 
L 293.510225 253.399694 
L 294.484072 257.646103 
L 295.457919 250.306517 
L 296.431766 240.926435 
L 297.405613 251.709359 
L 298.379461 241.10785 
L 299.353308 248.738681 
L 300.327155 249.180025 
L 301.301002 241.231664 
L 302.274849 243.815863 
L 303.248696 246.958446 
L 304.222543 256.377762 
L 305.19639 245.966561 
L 306.170237 255.220033 
L 307.144085 261.0623 
L 308.117932 251.523774 
L 309.091779 250.12062 
L 310.065626 246.409008 
L 311.039473 257.765357 
L 312.01332 242.953305 
L 312.987167 247.170905 
L 313.961014 240.809176 
L 314.934862 242.408297 
L 315.908709 245.844942 
L 316.882556 250.233164 
L 317.856403 239.322887 
L 318.83025 244.409368 
L 319.804097 258.325189 
L 320.777944 256.713376 
L 321.751791 250.322153 
L 322.725638 264.729342 
L 323.699486 235.86535 
L 324.673333 247.925724 
L 325.64718 244.812092 
L 326.621027 252.154926 
L 327.594874 258.434946 
L 328.568721 250.721143 
L 329.542568 251.144287 
L 330.516415 249.676363 
L 331.490262 236.041813 
L 332.46411 249.194747 
L 333.437957 238.465171 
L 334.411804 237.539865 
L 335.385651 246.432665 
L 336.359498 234.675361 
L 337.333345 241.82382 
L 338.307192 236.89012 
L 339.281039 246.311199 
L 341.228734 232.912677 
L 342.202581 232.755514 
L 343.176428 252.900845 
L 344.150275 238.918901 
L 345.124122 247.560548 
L 346.097969 234.522476 
L 347.071816 257.08844 
L 348.045663 252.209394 
L 349.019511 237.594221 
L 350.967205 245.478057 
L 351.941052 238.920417 
L 352.914899 245.975657 
L 353.888746 244.009592 
L 354.862593 250.008245 
L 355.83644 254.299565 
L 356.810287 243.758514 
L 357.784135 241.579843 
L 358.757982 249.069459 
L 359.731829 259.410067 
L 360.705676 271.929252 
L 361.679523 246.636482 
L 362.65337 245.460485 
L 363.627217 220.320534 
L 364.601064 248.23182 
L 365.574911 229.013098 
L 366.548759 223.871599 
L 367.522606 231.816562 
L 368.496453 227.476592 
L 369.4703 235.932392 
L 370.444147 245.659093 
L 371.417994 230.081025 
L 373.365688 236.82686 
L 374.339536 223.937096 
L 375.313383 230.739504 
L 376.28723 226.207409 
L 377.261077 227.193657 
L 378.234924 230.19675 
L 379.208771 235.516247 
L 380.182618 250.805016 
L 381.156465 224.466393 
L 382.130312 219.242645 
L 383.10416 221.958237 
L 384.078007 240.345996 
L 385.051854 217.114745 
L 386.025701 224.802598 
L 386.999548 226.585166 
L 387.973395 230.306063 
L 388.947242 229.022332 
L 389.921089 234.873138 
L 390.894936 232.893868 
L 391.868784 230.221347 
L 392.842631 228.049633 
L 393.816478 228.871971 
L 394.790325 232.22898 
L 395.764172 228.287811 
L 396.738019 229.907608 
L 397.711866 233.554746 
L 398.685713 244.366957 
L 399.659561 235.264167 
L 400.633408 243.717869 
L 401.607255 227.90344 
L 402.581102 228.336792 
L 403.554949 233.700493 
L 404.528796 240.572333 
L 405.502643 232.517471 
L 406.47649 227.136862 
L 407.450337 240.49809 
L 408.424185 248.391585 
L 409.398032 253.159269 
L 410.371879 246.475525 
L 411.345726 251.768699 
L 412.319573 246.612376 
L 413.29342 266.965691 
L 414.267267 250.199614 
L 415.241114 254.414014 
L 416.214961 245.895573 
L 417.188809 271.289069 
L 418.162656 235.104721 
L 419.136503 243.036471 
L 420.11035 235.101306 
L 422.058044 248.84785 
L 423.031891 228.753943 
L 424.005738 229.307294 
L 424.979586 215.860549 
L 425.953433 245.562106 
L 426.92728 240.354154 
L 427.901127 231.636861 
L 428.874974 233.83135 
L 429.848821 244.421161 
L 430.822668 252.279622 
L 431.796515 245.762515 
L 432.770362 254.054682 
L 433.74421 251.808007 
L 434.718057 259.333666 
L 435.691904 252.396497 
L 436.665751 241.918158 
L 437.639598 235.621142 
L 438.613445 226.932583 
L 439.587292 242.035107 
L 440.561139 244.525025 
L 441.534986 228.817536 
L 442.508834 231.133934 
L 443.482681 236.671412 
L 444.456528 224.975422 
L 445.430375 240.381386 
L 446.404222 239.578222 
L 447.378069 223.149942 
L 448.351916 247.135393 
L 449.325763 257.476774 
L 450.299611 220.887005 
L 451.273458 241.972102 
L 452.247305 222.623668 
L 453.221152 235.895261 
L 454.194999 222.775069 
L 455.168846 236.955339 
L 456.142693 216.436902 
L 457.11654 220.235167 
L 458.090387 204.184122 
L 459.064235 224.950258 
L 460.038082 234.523089 
L 461.011929 226.609358 
L 461.985776 225.304214 
L 462.959623 210.074861 
L 463.93347 221.458135 
L 464.907317 209.140121 
L 465.881164 210.040407 
L 467.828859 220.460499 
L 468.802706 213.743554 
L 470.7504 234.863002 
L 471.724247 228.34873 
L 472.698094 230.706555 
L 473.671941 227.08945 
L 474.645788 219.249538 
L 475.619636 246.837168 
L 476.593483 229.088549 
L 477.56733 235.676191 
L 478.541177 249.784245 
L 479.515024 243.993046 
L 480.488871 230.011764 
L 481.462718 251.28567 
L 482.436565 228.802273 
L 483.410412 234.80914 
L 484.38426 215.873475 
L 485.358107 233.736028 
L 486.331954 231.50687 
L 487.305801 218.991622 
L 488.279648 232.846506 
L 489.253495 219.664217 
L 490.227342 226.412694 
L 491.201189 245.684219 
L 492.175036 236.29428 
L 493.148884 221.993931 
L 494.122731 226.31499 
L 495.096578 224.01562 
L 496.070425 227.250188 
L 497.044272 229.179341 
L 498.018119 232.123435 
L 498.991966 242.51425 
L 499.965813 229.629343 
L 500.939661 236.342 
L 501.913508 224.819649 
L 502.887355 224.751805 
L 503.861202 240.405477 
L 504.835049 225.523952 
L 505.808896 226.401659 
L 506.782743 228.566803 
L 507.75659 239.767419 
L 508.730437 242.737195 
L 509.704285 242.91557 
L 510.678132 236.966334 
L 511.651979 230.278542 
L 512.625826 224.990473 
L 513.599673 234.033012 
L 514.57352 244.179637 
L 515.547367 230.935676 
L 516.521214 234.241806 
L 517.495061 241.562634 
L 518.468909 242.012485 
L 520.416603 218.917818 
L 521.39045 235.763608 
L 522.364297 241.062256 
L 523.338144 240.06852 
L 524.311991 238.910119 
L 525.285838 229.057391 
L 526.259686 231.254807 
L 527.233533 233.908737 
L 528.20738 247.089127 
L 529.181227 252.262972 
L 530.155074 249.592389 
L 531.128921 246.289542 
L 532.102768 233.24544 
L 533.076615 217.848973 
L 534.050462 224.643451 
L 535.02431 223.198727 
L 535.998157 239.089024 
L 536.972004 220.423865 
L 537.945851 216.208649 
L 538.919698 229.487929 
L 539.893545 209.425504 
L 540.867392 221.332568 
L 541.841239 219.86742 
L 542.815086 212.069316 
L 543.788934 218.09748 
L 544.762781 229.060174 
L 545.736628 225.007922 
L 546.710475 214.030339 
L 547.684322 214.163086 
L 548.658169 214.566171 
L 549.632016 244.812789 
L 550.605863 223.409009 
L 551.579711 221.384246 
L 552.553558 225.345378 
L 553.527405 227.340602 
L 554.501252 237.32568 
L 554.501252 237.32568 
" clip-path="url(#p1c270df8e1)" style="fill: none; stroke: #2ca02c; stroke-width: 1.5; stroke-linecap: round"/>
   </g>
   <g id="patch_3">
    <path d="M 65.63 390.04 
L 65.63 26.88 
" style="fill: none; stroke: #ffffff; stroke-width: 0.8; stroke-linejoin: miter; stroke-linecap: square"/>
   </g>
   <g id="patch_4">
    <path d="M 558.39664 390.04 
L 558.39664 26.88 
" style="fill: none; stroke: #ffffff; stroke-width: 0.8; stroke-linejoin: miter; stroke-linecap: square"/>
   </g>
   <g id="patch_5">
    <path d="M 65.63 390.04 
L 558.39664 390.04 
" style="fill: none; stroke: #ffffff; stroke-width: 0.8; stroke-linejoin: miter; stroke-linecap: square"/>
   </g>
   <g id="patch_6">
    <path d="M 65.63 26.88 
L 558.39664 26.88 
" style="fill: none; stroke: #ffffff; stroke-width: 0.8; stroke-linejoin: miter; stroke-linecap: square"/>
   </g>
   <g id="text_23">
    <!-- Rewards over Episodes for Pendulum-v1 (noise) -->
    <g style="fill: #262626" transform="translate(168.850508 20.88) scale(0.12 -0.12)">
     <defs>
      <path id="DejaVuSans-20" transform="scale(0.015625)"/>
      <path id="DejaVuSans-76" d="M 191 3500 
L 800 3500 
L 1894 563 
L 2988 3500 
L 3597 3500 
L 2284 0 
L 1503 0 
L 191 3500 
z
" transform="scale(0.015625)"/>
      <path id="DejaVuSans-66" d="M 2375 4863 
L 2375 4384 
L 1825 4384 
Q 1516 4384 1395 4259 
Q 1275 4134 1275 3809 
L 1275 3500 
L 2222 3500 
L 2222 3053 
L 1275 3053 
L 1275 0 
L 697 0 
L 697 3053 
L 147 3053 
L 147 3500 
L 697 3500 
L 697 3744 
Q 697 4328 969 4595 
Q 1241 4863 1831 4863 
L 2375 4863 
z
" transform="scale(0.015625)"/>
      <path id="DejaVuSans-50" d="M 1259 4147 
L 1259 2394 
L 2053 2394 
Q 2494 2394 2734 2622 
Q 2975 2850 2975 3272 
Q 2975 3691 2734 3919 
Q 2494 4147 2053 4147 
L 1259 4147 
z
M 628 4666 
L 2053 4666 
Q 2838 4666 3239 4311 
Q 3641 3956 3641 3272 
Q 3641 2581 3239 2228 
Q 2838 1875 2053 1875 
L 1259 1875 
L 1259 0 
L 628 0 
L 628 4666 
z
" transform="scale(0.015625)"/>
      <path id="DejaVuSans-6e" d="M 3513 2113 
L 3513 0 
L 2938 0 
L 2938 2094 
Q 2938 2591 2744 2837 
Q 2550 3084 2163 3084 
Q 1697 3084 1428 2787 
Q 1159 2491 1159 1978 
L 1159 0 
L 581 0 
L 581 3500 
L 1159 3500 
L 1159 2956 
Q 1366 3272 1645 3428 
Q 1925 3584 2291 3584 
Q 2894 3584 3203 3211 
Q 3513 2838 3513 2113 
z
" transform="scale(0.015625)"/>
      <path id="DejaVuSans-75" d="M 544 1381 
L 544 3500 
L 1119 3500 
L 1119 1403 
Q 1119 906 1312 657 
Q 1506 409 1894 409 
Q 2359 409 2629 706 
Q 2900 1003 2900 1516 
L 2900 3500 
L 3475 3500 
L 3475 0 
L 2900 0 
L 2900 538 
Q 2691 219 2414 64 
Q 2138 -91 1772 -91 
Q 1169 -91 856 284 
Q 544 659 544 1381 
z
M 1991 3584 
L 1991 3584 
z
" transform="scale(0.015625)"/>
      <path id="DejaVuSans-6c" d="M 603 4863 
L 1178 4863 
L 1178 0 
L 603 0 
L 603 4863 
z
" transform="scale(0.015625)"/>
      <path id="DejaVuSans-6d" d="M 3328 2828 
Q 3544 3216 3844 3400 
Q 4144 3584 4550 3584 
Q 5097 3584 5394 3201 
Q 5691 2819 5691 2113 
L 5691 0 
L 5113 0 
L 5113 2094 
Q 5113 2597 4934 2840 
Q 4756 3084 4391 3084 
Q 3944 3084 3684 2787 
Q 3425 2491 3425 1978 
L 3425 0 
L 2847 0 
L 2847 2094 
Q 2847 2600 2669 2842 
Q 2491 3084 2119 3084 
Q 1678 3084 1418 2786 
Q 1159 2488 1159 1978 
L 1159 0 
L 581 0 
L 581 3500 
L 1159 3500 
L 1159 2956 
Q 1356 3278 1631 3431 
Q 1906 3584 2284 3584 
Q 2666 3584 2933 3390 
Q 3200 3197 3328 2828 
z
" transform="scale(0.015625)"/>
      <path id="DejaVuSans-2d" d="M 313 2009 
L 1997 2009 
L 1997 1497 
L 313 1497 
L 313 2009 
z
" transform="scale(0.015625)"/>
      <path id="DejaVuSans-28" d="M 1984 4856 
Q 1566 4138 1362 3434 
Q 1159 2731 1159 2009 
Q 1159 1288 1364 580 
Q 1569 -128 1984 -844 
L 1484 -844 
Q 1016 -109 783 600 
Q 550 1309 550 2009 
Q 550 2706 781 3412 
Q 1013 4119 1484 4856 
L 1984 4856 
z
" transform="scale(0.015625)"/>
      <path id="DejaVuSans-29" d="M 513 4856 
L 1013 4856 
Q 1481 4119 1714 3412 
Q 1947 2706 1947 2009 
Q 1947 1309 1714 600 
Q 1481 -109 1013 -844 
L 513 -844 
Q 928 -128 1133 580 
Q 1338 1288 1338 2009 
Q 1338 2731 1133 3434 
Q 928 4138 513 4856 
z
" transform="scale(0.015625)"/>
     </defs>
     <use xlink:href="#DejaVuSans-52"/>
     <use xlink:href="#DejaVuSans-65" transform="translate(64.982422 0)"/>
     <use xlink:href="#DejaVuSans-77" transform="translate(126.505859 0)"/>
     <use xlink:href="#DejaVuSans-61" transform="translate(208.292969 0)"/>
     <use xlink:href="#DejaVuSans-72" transform="translate(269.572266 0)"/>
     <use xlink:href="#DejaVuSans-64" transform="translate(308.935547 0)"/>
     <use xlink:href="#DejaVuSans-73" transform="translate(372.412109 0)"/>
     <use xlink:href="#DejaVuSans-20" transform="translate(424.511719 0)"/>
     <use xlink:href="#DejaVuSans-6f" transform="translate(456.298828 0)"/>
     <use xlink:href="#DejaVuSans-76" transform="translate(517.480469 0)"/>
     <use xlink:href="#DejaVuSans-65" transform="translate(576.660156 0)"/>
     <use xlink:href="#DejaVuSans-72" transform="translate(638.183594 0)"/>
     <use xlink:href="#DejaVuSans-20" transform="translate(679.296875 0)"/>
     <use xlink:href="#DejaVuSans-45" transform="translate(711.083984 0)"/>
     <use xlink:href="#DejaVuSans-70" transform="translate(774.267578 0)"/>
     <use xlink:href="#DejaVuSans-69" transform="translate(837.744141 0)"/>
     <use xlink:href="#DejaVuSans-73" transform="translate(865.527344 0)"/>
     <use xlink:href="#DejaVuSans-6f" transform="translate(917.626953 0)"/>
     <use xlink:href="#DejaVuSans-64" transform="translate(978.808594 0)"/>
     <use xlink:href="#DejaVuSans-65" transform="translate(1042.285156 0)"/>
     <use xlink:href="#DejaVuSans-73" transform="translate(1103.808594 0)"/>
     <use xlink:href="#DejaVuSans-20" transform="translate(1155.908203 0)"/>
     <use xlink:href="#DejaVuSans-66" transform="translate(1187.695312 0)"/>
     <use xlink:href="#DejaVuSans-6f" transform="translate(1222.900391 0)"/>
     <use xlink:href="#DejaVuSans-72" transform="translate(1284.082031 0)"/>
     <use xlink:href="#DejaVuSans-20" transform="translate(1325.195312 0)"/>
     <use xlink:href="#DejaVuSans-50" transform="translate(1356.982422 0)"/>
     <use xlink:href="#DejaVuSans-65" transform="translate(1413.660156 0)"/>
     <use xlink:href="#DejaVuSans-6e" transform="translate(1475.183594 0)"/>
     <use xlink:href="#DejaVuSans-64" transform="translate(1538.5625 0)"/>
     <use xlink:href="#DejaVuSans-75" transform="translate(1602.039062 0)"/>
     <use xlink:href="#DejaVuSans-6c" transform="translate(1665.417969 0)"/>
     <use xlink:href="#DejaVuSans-75" transform="translate(1693.201172 0)"/>
     <use xlink:href="#DejaVuSans-6d" transform="translate(1756.580078 0)"/>
     <use xlink:href="#DejaVuSans-2d" transform="translate(1853.992188 0)"/>
     <use xlink:href="#DejaVuSans-76" transform="translate(1887.451172 0)"/>
     <use xlink:href="#DejaVuSans-31" transform="translate(1946.630859 0)"/>
     <use xlink:href="#DejaVuSans-20" transform="translate(2010.253906 0)"/>
     <use xlink:href="#DejaVuSans-28" transform="translate(2042.041016 0)"/>
     <use xlink:href="#DejaVuSans-6e" transform="translate(2081.054688 0)"/>
     <use xlink:href="#DejaVuSans-6f" transform="translate(2144.433594 0)"/>
     <use xlink:href="#DejaVuSans-69" transform="translate(2205.615234 0)"/>
     <use xlink:href="#DejaVuSans-73" transform="translate(2233.398438 0)"/>
     <use xlink:href="#DejaVuSans-65" transform="translate(2285.498047 0)"/>
     <use xlink:href="#DejaVuSans-29" transform="translate(2347.021484 0)"/>
    </g>
   </g>
   <g id="legend_1">
    <g id="patch_7">
     <path d="M 72.63 79.74875 
L 249.744063 79.74875 
Q 251.744063 79.74875 251.744063 77.74875 
L 251.744063 33.88 
Q 251.744063 31.88 249.744063 31.88 
L 72.63 31.88 
Q 70.63 31.88 70.63 33.88 
L 70.63 77.74875 
Q 70.63 79.74875 72.63 79.74875 
z
" style="fill: #eaeaf2; opacity: 0.8; stroke: #cccccc; stroke-linejoin: miter"/>
    </g>
    <g id="line2d_24">
     <path d="M 74.63 39.978437 
L 84.63 39.978437 
L 94.63 39.978437 
" style="fill: none; stroke: #1f77b4; stroke-width: 1.5; stroke-linecap: round"/>
    </g>
    <g id="text_24">
     <!-- pendulum_GNN_K_noise_mlp -->
     <g style="fill: #262626" transform="translate(102.63 43.478437) scale(0.1 -0.1)">
      <defs>
       <path id="DejaVuSans-5f" d="M 3263 -1063 
L 3263 -1509 
L -63 -1509 
L -63 -1063 
L 3263 -1063 
z
" transform="scale(0.015625)"/>
       <path id="DejaVuSans-47" d="M 3809 666 
L 3809 1919 
L 2778 1919 
L 2778 2438 
L 4434 2438 
L 4434 434 
Q 4069 175 3628 42 
Q 3188 -91 2688 -91 
Q 1594 -91 976 548 
Q 359 1188 359 2328 
Q 359 3472 976 4111 
Q 1594 4750 2688 4750 
Q 3144 4750 3555 4637 
Q 3966 4525 4313 4306 
L 4313 3634 
Q 3963 3931 3569 4081 
Q 3175 4231 2741 4231 
Q 1884 4231 1454 3753 
Q 1025 3275 1025 2328 
Q 1025 1384 1454 906 
Q 1884 428 2741 428 
Q 3075 428 3337 486 
Q 3600 544 3809 666 
z
" transform="scale(0.015625)"/>
       <path id="DejaVuSans-4e" d="M 628 4666 
L 1478 4666 
L 3547 763 
L 3547 4666 
L 4159 4666 
L 4159 0 
L 3309 0 
L 1241 3903 
L 1241 0 
L 628 0 
L 628 4666 
z
" transform="scale(0.015625)"/>
       <path id="DejaVuSans-4b" d="M 628 4666 
L 1259 4666 
L 1259 2694 
L 3353 4666 
L 4166 4666 
L 1850 2491 
L 4331 0 
L 3500 0 
L 1259 2247 
L 1259 0 
L 628 0 
L 628 4666 
z
" transform="scale(0.015625)"/>
      </defs>
      <use xlink:href="#DejaVuSans-70"/>
      <use xlink:href="#DejaVuSans-65" transform="translate(63.476562 0)"/>
      <use xlink:href="#DejaVuSans-6e" transform="translate(125 0)"/>
      <use xlink:href="#DejaVuSans-64" transform="translate(188.378906 0)"/>
      <use xlink:href="#DejaVuSans-75" transform="translate(251.855469 0)"/>
      <use xlink:href="#DejaVuSans-6c" transform="translate(315.234375 0)"/>
      <use xlink:href="#DejaVuSans-75" transform="translate(343.017578 0)"/>
      <use xlink:href="#DejaVuSans-6d" transform="translate(406.396484 0)"/>
      <use xlink:href="#DejaVuSans-5f" transform="translate(503.808594 0)"/>
      <use xlink:href="#DejaVuSans-47" transform="translate(553.808594 0)"/>
      <use xlink:href="#DejaVuSans-4e" transform="translate(631.298828 0)"/>
      <use xlink:href="#DejaVuSans-4e" transform="translate(706.103516 0)"/>
      <use xlink:href="#DejaVuSans-5f" transform="translate(780.908203 0)"/>
      <use xlink:href="#DejaVuSans-4b" transform="translate(830.908203 0)"/>
      <use xlink:href="#DejaVuSans-5f" transform="translate(896.484375 0)"/>
      <use xlink:href="#DejaVuSans-6e" transform="translate(946.484375 0)"/>
      <use xlink:href="#DejaVuSans-6f" transform="translate(1009.863281 0)"/>
      <use xlink:href="#DejaVuSans-69" transform="translate(1071.044922 0)"/>
      <use xlink:href="#DejaVuSans-73" transform="translate(1098.828125 0)"/>
      <use xlink:href="#DejaVuSans-65" transform="translate(1150.927734 0)"/>
      <use xlink:href="#DejaVuSans-5f" transform="translate(1212.451172 0)"/>
      <use xlink:href="#DejaVuSans-6d" transform="translate(1262.451172 0)"/>
      <use xlink:href="#DejaVuSans-6c" transform="translate(1359.863281 0)"/>
      <use xlink:href="#DejaVuSans-70" transform="translate(1387.646484 0)"/>
     </g>
    </g>
    <g id="line2d_25">
     <path d="M 74.63 54.934687 
L 84.63 54.934687 
L 94.63 54.934687 
" style="fill: none; stroke: #ff7f0e; stroke-width: 1.5; stroke-linecap: round"/>
    </g>
    <g id="text_25">
     <!-- pendulum_logits_noise_mlp -->
     <g style="fill: #262626" transform="translate(102.63 58.434687) scale(0.1 -0.1)">
      <defs>
       <path id="DejaVuSans-67" d="M 2906 1791 
Q 2906 2416 2648 2759 
Q 2391 3103 1925 3103 
Q 1463 3103 1205 2759 
Q 947 2416 947 1791 
Q 947 1169 1205 825 
Q 1463 481 1925 481 
Q 2391 481 2648 825 
Q 2906 1169 2906 1791 
z
M 3481 434 
Q 3481 -459 3084 -895 
Q 2688 -1331 1869 -1331 
Q 1566 -1331 1297 -1286 
Q 1028 -1241 775 -1147 
L 775 -588 
Q 1028 -725 1275 -790 
Q 1522 -856 1778 -856 
Q 2344 -856 2625 -561 
Q 2906 -266 2906 331 
L 2906 616 
Q 2728 306 2450 153 
Q 2172 0 1784 0 
Q 1141 0 747 490 
Q 353 981 353 1791 
Q 353 2603 747 3093 
Q 1141 3584 1784 3584 
Q 2172 3584 2450 3431 
Q 2728 3278 2906 2969 
L 2906 3500 
L 3481 3500 
L 3481 434 
z
" transform="scale(0.015625)"/>
       <path id="DejaVuSans-74" d="M 1172 4494 
L 1172 3500 
L 2356 3500 
L 2356 3053 
L 1172 3053 
L 1172 1153 
Q 1172 725 1289 603 
Q 1406 481 1766 481 
L 2356 481 
L 2356 0 
L 1766 0 
Q 1100 0 847 248 
Q 594 497 594 1153 
L 594 3053 
L 172 3053 
L 172 3500 
L 594 3500 
L 594 4494 
L 1172 4494 
z
" transform="scale(0.015625)"/>
      </defs>
      <use xlink:href="#DejaVuSans-70"/>
      <use xlink:href="#DejaVuSans-65" transform="translate(63.476562 0)"/>
      <use xlink:href="#DejaVuSans-6e" transform="translate(125 0)"/>
      <use xlink:href="#DejaVuSans-64" transform="translate(188.378906 0)"/>
      <use xlink:href="#DejaVuSans-75" transform="translate(251.855469 0)"/>
      <use xlink:href="#DejaVuSans-6c" transform="translate(315.234375 0)"/>
      <use xlink:href="#DejaVuSans-75" transform="translate(343.017578 0)"/>
      <use xlink:href="#DejaVuSans-6d" transform="translate(406.396484 0)"/>
      <use xlink:href="#DejaVuSans-5f" transform="translate(503.808594 0)"/>
      <use xlink:href="#DejaVuSans-6c" transform="translate(553.808594 0)"/>
      <use xlink:href="#DejaVuSans-6f" transform="translate(581.591797 0)"/>
      <use xlink:href="#DejaVuSans-67" transform="translate(642.773438 0)"/>
      <use xlink:href="#DejaVuSans-69" transform="translate(706.25 0)"/>
      <use xlink:href="#DejaVuSans-74" transform="translate(734.033203 0)"/>
      <use xlink:href="#DejaVuSans-73" transform="translate(773.242188 0)"/>
      <use xlink:href="#DejaVuSans-5f" transform="translate(825.341797 0)"/>
      <use xlink:href="#DejaVuSans-6e" transform="translate(875.341797 0)"/>
      <use xlink:href="#DejaVuSans-6f" transform="translate(938.720703 0)"/>
      <use xlink:href="#DejaVuSans-69" transform="translate(999.902344 0)"/>
      <use xlink:href="#DejaVuSans-73" transform="translate(1027.685547 0)"/>
      <use xlink:href="#DejaVuSans-65" transform="translate(1079.785156 0)"/>
      <use xlink:href="#DejaVuSans-5f" transform="translate(1141.308594 0)"/>
      <use xlink:href="#DejaVuSans-6d" transform="translate(1191.308594 0)"/>
      <use xlink:href="#DejaVuSans-6c" transform="translate(1288.720703 0)"/>
      <use xlink:href="#DejaVuSans-70" transform="translate(1316.503906 0)"/>
     </g>
    </g>
    <g id="line2d_26">
     <path d="M 74.63 69.890938 
L 84.63 69.890938 
L 94.63 69.890938 
" style="fill: none; stroke: #2ca02c; stroke-width: 1.5; stroke-linecap: round"/>
    </g>
    <g id="text_26">
     <!-- pendulum_GNN_noise_mlp -->
     <g style="fill: #262626" transform="translate(102.63 73.390938) scale(0.1 -0.1)">
      <use xlink:href="#DejaVuSans-70"/>
      <use xlink:href="#DejaVuSans-65" transform="translate(63.476562 0)"/>
      <use xlink:href="#DejaVuSans-6e" transform="translate(125 0)"/>
      <use xlink:href="#DejaVuSans-64" transform="translate(188.378906 0)"/>
      <use xlink:href="#DejaVuSans-75" transform="translate(251.855469 0)"/>
      <use xlink:href="#DejaVuSans-6c" transform="translate(315.234375 0)"/>
      <use xlink:href="#DejaVuSans-75" transform="translate(343.017578 0)"/>
      <use xlink:href="#DejaVuSans-6d" transform="translate(406.396484 0)"/>
      <use xlink:href="#DejaVuSans-5f" transform="translate(503.808594 0)"/>
      <use xlink:href="#DejaVuSans-47" transform="translate(553.808594 0)"/>
      <use xlink:href="#DejaVuSans-4e" transform="translate(631.298828 0)"/>
      <use xlink:href="#DejaVuSans-4e" transform="translate(706.103516 0)"/>
      <use xlink:href="#DejaVuSans-5f" transform="translate(780.908203 0)"/>
      <use xlink:href="#DejaVuSans-6e" transform="translate(830.908203 0)"/>
      <use xlink:href="#DejaVuSans-6f" transform="translate(894.287109 0)"/>
      <use xlink:href="#DejaVuSans-69" transform="translate(955.46875 0)"/>
      <use xlink:href="#DejaVuSans-73" transform="translate(983.251953 0)"/>
      <use xlink:href="#DejaVuSans-65" transform="translate(1035.351562 0)"/>
      <use xlink:href="#DejaVuSans-5f" transform="translate(1096.875 0)"/>
      <use xlink:href="#DejaVuSans-6d" transform="translate(1146.875 0)"/>
      <use xlink:href="#DejaVuSans-6c" transform="translate(1244.287109 0)"/>
      <use xlink:href="#DejaVuSans-70" transform="translate(1272.070312 0)"/>
     </g>
    </g>
   </g>
  </g>
 </g>
 <defs>
  <clipPath id="p1c270df8e1">
   <rect x="65.63" y="26.88" width="492.76664" height="363.16"/>
  </clipPath>
 </defs>
</svg>
