<?xml version="1.0" encoding="utf-8" standalone="no"?>
<!DOCTYPE svg PUBLIC "-//W3C//DTD SVG 1.1//EN"
  "http://www.w3.org/Graphics/SVG/1.1/DTD/svg11.dtd">
<svg xmlns:xlink="http://www.w3.org/1999/xlink" width="648pt" height="432pt" viewBox="0 0 648 432" xmlns="http://www.w3.org/2000/svg" version="1.1">
 <metadata>
  <rdf:RDF xmlns:dc="http://purl.org/dc/elements/1.1/" xmlns:cc="http://creativecommons.org/ns#" xmlns:rdf="http://www.w3.org/1999/02/22-rdf-syntax-ns#">
   <cc:Work>
    <dc:type rdf:resource="http://purl.org/dc/dcmitype/StillImage"/>
    <dc:date>2025-07-09T11:35:12.291857</dc:date>
    <dc:format>image/svg+xml</dc:format>
    <dc:creator>
     <cc:Agent>
      <dc:title>Matplotlib v3.10.0, https://matplotlib.org/</dc:title>
     </cc:Agent>
    </dc:creator>
   </cc:Work>
  </rdf:RDF>
 </metadata>
 <defs>
  <style type="text/css">*{stroke-linejoin: round; stroke-linecap: butt}</style>
 </defs>
 <g id="figure_1">
  <g id="patch_1">
   <path d="M 0 432 
L 648 432 
L 648 0 
L 0 0 
z
" style="fill: #ffffff"/>
  </g>
  <g id="axes_1">
   <g id="patch_2">
    <path d="M 50.87 390.04 
L 637.2 390.04 
L 637.2 26.88 
L 50.87 26.88 
z
" style="fill: #eaeaf2"/>
   </g>
   <g id="matplotlib.axis_1">
    <g id="xtick_1">
     <g id="line2d_1">
      <path d="M 62.145577 390.04 
L 62.145577 26.88 
" clip-path="url(#p6ab3f0855e)" style="fill: none; stroke: #ffffff; stroke-width: 0.8; stroke-linecap: round"/>
     </g>
     <g id="text_1">
      <!-- 0 -->
      <g style="fill: #262626" transform="translate(58.964327 404.638438) scale(0.1 -0.1)">
       <defs>
        <path id="DejaVuSans-30" d="M 2034 4250 
Q 1547 4250 1301 3770 
Q 1056 3291 1056 2328 
Q 1056 1369 1301 889 
Q 1547 409 2034 409 
Q 2525 409 2770 889 
Q 3016 1369 3016 2328 
Q 3016 3291 2770 3770 
Q 2525 4250 2034 4250 
z
M 2034 4750 
Q 2819 4750 3233 4129 
Q 3647 3509 3647 2328 
Q 3647 1150 3233 529 
Q 2819 -91 2034 -91 
Q 1250 -91 836 529 
Q 422 1150 422 2328 
Q 422 3509 836 4129 
Q 1250 4750 2034 4750 
z
" transform="scale(0.015625)"/>
       </defs>
       <use xlink:href="#DejaVuSans-30"/>
      </g>
     </g>
    </g>
    <g id="xtick_2">
     <g id="line2d_2">
      <path d="M 99.730833 390.04 
L 99.730833 26.88 
" clip-path="url(#p6ab3f0855e)" style="fill: none; stroke: #ffffff; stroke-width: 0.8; stroke-linecap: round"/>
     </g>
     <g id="text_2">
      <!-- 10 -->
      <g style="fill: #262626" transform="translate(93.368333 404.638438) scale(0.1 -0.1)">
       <defs>
        <path id="DejaVuSans-31" d="M 794 531 
L 1825 531 
L 1825 4091 
L 703 3866 
L 703 4441 
L 1819 4666 
L 2450 4666 
L 2450 531 
L 3481 531 
L 3481 0 
L 794 0 
L 794 531 
z
" transform="scale(0.015625)"/>
       </defs>
       <use xlink:href="#DejaVuSans-31"/>
       <use xlink:href="#DejaVuSans-30" transform="translate(63.623047 0)"/>
      </g>
     </g>
    </g>
    <g id="xtick_3">
     <g id="line2d_3">
      <path d="M 137.31609 390.04 
L 137.31609 26.88 
" clip-path="url(#p6ab3f0855e)" style="fill: none; stroke: #ffffff; stroke-width: 0.8; stroke-linecap: round"/>
     </g>
     <g id="text_3">
      <!-- 20 -->
      <g style="fill: #262626" transform="translate(130.95359 404.638438) scale(0.1 -0.1)">
       <defs>
        <path id="DejaVuSans-32" d="M 1228 531 
L 3431 531 
L 3431 0 
L 469 0 
L 469 531 
Q 828 903 1448 1529 
Q 2069 2156 2228 2338 
Q 2531 2678 2651 2914 
Q 2772 3150 2772 3378 
Q 2772 3750 2511 3984 
Q 2250 4219 1831 4219 
Q 1534 4219 1204 4116 
Q 875 4013 500 3803 
L 500 4441 
Q 881 4594 1212 4672 
Q 1544 4750 1819 4750 
Q 2544 4750 2975 4387 
Q 3406 4025 3406 3419 
Q 3406 3131 3298 2873 
Q 3191 2616 2906 2266 
Q 2828 2175 2409 1742 
Q 1991 1309 1228 531 
z
" transform="scale(0.015625)"/>
       </defs>
       <use xlink:href="#DejaVuSans-32"/>
       <use xlink:href="#DejaVuSans-30" transform="translate(63.623047 0)"/>
      </g>
     </g>
    </g>
    <g id="xtick_4">
     <g id="line2d_4">
      <path d="M 174.901346 390.04 
L 174.901346 26.88 
" clip-path="url(#p6ab3f0855e)" style="fill: none; stroke: #ffffff; stroke-width: 0.8; stroke-linecap: round"/>
     </g>
     <g id="text_4">
      <!-- 30 -->
      <g style="fill: #262626" transform="translate(168.538846 404.638438) scale(0.1 -0.1)">
       <defs>
        <path id="DejaVuSans-33" d="M 2597 2516 
Q 3050 2419 3304 2112 
Q 3559 1806 3559 1356 
Q 3559 666 3084 287 
Q 2609 -91 1734 -91 
Q 1441 -91 1130 -33 
Q 819 25 488 141 
L 488 750 
Q 750 597 1062 519 
Q 1375 441 1716 441 
Q 2309 441 2620 675 
Q 2931 909 2931 1356 
Q 2931 1769 2642 2001 
Q 2353 2234 1838 2234 
L 1294 2234 
L 1294 2753 
L 1863 2753 
Q 2328 2753 2575 2939 
Q 2822 3125 2822 3475 
Q 2822 3834 2567 4026 
Q 2313 4219 1838 4219 
Q 1578 4219 1281 4162 
Q 984 4106 628 3988 
L 628 4550 
Q 988 4650 1302 4700 
Q 1616 4750 1894 4750 
Q 2613 4750 3031 4423 
Q 3450 4097 3450 3541 
Q 3450 3153 3228 2886 
Q 3006 2619 2597 2516 
z
" transform="scale(0.015625)"/>
       </defs>
       <use xlink:href="#DejaVuSans-33"/>
       <use xlink:href="#DejaVuSans-30" transform="translate(63.623047 0)"/>
      </g>
     </g>
    </g>
    <g id="xtick_5">
     <g id="line2d_5">
      <path d="M 212.486603 390.04 
L 212.486603 26.88 
" clip-path="url(#p6ab3f0855e)" style="fill: none; stroke: #ffffff; stroke-width: 0.8; stroke-linecap: round"/>
     </g>
     <g id="text_5">
      <!-- 40 -->
      <g style="fill: #262626" transform="translate(206.124103 404.638438) scale(0.1 -0.1)">
       <defs>
        <path id="DejaVuSans-34" d="M 2419 4116 
L 825 1625 
L 2419 1625 
L 2419 4116 
z
M 2253 4666 
L 3047 4666 
L 3047 1625 
L 3713 1625 
L 3713 1100 
L 3047 1100 
L 3047 0 
L 2419 0 
L 2419 1100 
L 313 1100 
L 313 1709 
L 2253 4666 
z
" transform="scale(0.015625)"/>
       </defs>
       <use xlink:href="#DejaVuSans-34"/>
       <use xlink:href="#DejaVuSans-30" transform="translate(63.623047 0)"/>
      </g>
     </g>
    </g>
    <g id="xtick_6">
     <g id="line2d_6">
      <path d="M 250.071859 390.04 
L 250.071859 26.88 
" clip-path="url(#p6ab3f0855e)" style="fill: none; stroke: #ffffff; stroke-width: 0.8; stroke-linecap: round"/>
     </g>
     <g id="text_6">
      <!-- 50 -->
      <g style="fill: #262626" transform="translate(243.709359 404.638438) scale(0.1 -0.1)">
       <defs>
        <path id="DejaVuSans-35" d="M 691 4666 
L 3169 4666 
L 3169 4134 
L 1269 4134 
L 1269 2991 
Q 1406 3038 1543 3061 
Q 1681 3084 1819 3084 
Q 2600 3084 3056 2656 
Q 3513 2228 3513 1497 
Q 3513 744 3044 326 
Q 2575 -91 1722 -91 
Q 1428 -91 1123 -41 
Q 819 9 494 109 
L 494 744 
Q 775 591 1075 516 
Q 1375 441 1709 441 
Q 2250 441 2565 725 
Q 2881 1009 2881 1497 
Q 2881 1984 2565 2268 
Q 2250 2553 1709 2553 
Q 1456 2553 1204 2497 
Q 953 2441 691 2322 
L 691 4666 
z
" transform="scale(0.015625)"/>
       </defs>
       <use xlink:href="#DejaVuSans-35"/>
       <use xlink:href="#DejaVuSans-30" transform="translate(63.623047 0)"/>
      </g>
     </g>
    </g>
    <g id="xtick_7">
     <g id="line2d_7">
      <path d="M 287.657115 390.04 
L 287.657115 26.88 
" clip-path="url(#p6ab3f0855e)" style="fill: none; stroke: #ffffff; stroke-width: 0.8; stroke-linecap: round"/>
     </g>
     <g id="text_7">
      <!-- 60 -->
      <g style="fill: #262626" transform="translate(281.294615 404.638438) scale(0.1 -0.1)">
       <defs>
        <path id="DejaVuSans-36" d="M 2113 2584 
Q 1688 2584 1439 2293 
Q 1191 2003 1191 1497 
Q 1191 994 1439 701 
Q 1688 409 2113 409 
Q 2538 409 2786 701 
Q 3034 994 3034 1497 
Q 3034 2003 2786 2293 
Q 2538 2584 2113 2584 
z
M 3366 4563 
L 3366 3988 
Q 3128 4100 2886 4159 
Q 2644 4219 2406 4219 
Q 1781 4219 1451 3797 
Q 1122 3375 1075 2522 
Q 1259 2794 1537 2939 
Q 1816 3084 2150 3084 
Q 2853 3084 3261 2657 
Q 3669 2231 3669 1497 
Q 3669 778 3244 343 
Q 2819 -91 2113 -91 
Q 1303 -91 875 529 
Q 447 1150 447 2328 
Q 447 3434 972 4092 
Q 1497 4750 2381 4750 
Q 2619 4750 2861 4703 
Q 3103 4656 3366 4563 
z
" transform="scale(0.015625)"/>
       </defs>
       <use xlink:href="#DejaVuSans-36"/>
       <use xlink:href="#DejaVuSans-30" transform="translate(63.623047 0)"/>
      </g>
     </g>
    </g>
    <g id="xtick_8">
     <g id="line2d_8">
      <path d="M 325.242372 390.04 
L 325.242372 26.88 
" clip-path="url(#p6ab3f0855e)" style="fill: none; stroke: #ffffff; stroke-width: 0.8; stroke-linecap: round"/>
     </g>
     <g id="text_8">
      <!-- 70 -->
      <g style="fill: #262626" transform="translate(318.879872 404.638438) scale(0.1 -0.1)">
       <defs>
        <path id="DejaVuSans-37" d="M 525 4666 
L 3525 4666 
L 3525 4397 
L 1831 0 
L 1172 0 
L 2766 4134 
L 525 4134 
L 525 4666 
z
" transform="scale(0.015625)"/>
       </defs>
       <use xlink:href="#DejaVuSans-37"/>
       <use xlink:href="#DejaVuSans-30" transform="translate(63.623047 0)"/>
      </g>
     </g>
    </g>
    <g id="xtick_9">
     <g id="line2d_9">
      <path d="M 362.827628 390.04 
L 362.827628 26.88 
" clip-path="url(#p6ab3f0855e)" style="fill: none; stroke: #ffffff; stroke-width: 0.8; stroke-linecap: round"/>
     </g>
     <g id="text_9">
      <!-- 80 -->
      <g style="fill: #262626" transform="translate(356.465128 404.638438) scale(0.1 -0.1)">
       <defs>
        <path id="DejaVuSans-38" d="M 2034 2216 
Q 1584 2216 1326 1975 
Q 1069 1734 1069 1313 
Q 1069 891 1326 650 
Q 1584 409 2034 409 
Q 2484 409 2743 651 
Q 3003 894 3003 1313 
Q 3003 1734 2745 1975 
Q 2488 2216 2034 2216 
z
M 1403 2484 
Q 997 2584 770 2862 
Q 544 3141 544 3541 
Q 544 4100 942 4425 
Q 1341 4750 2034 4750 
Q 2731 4750 3128 4425 
Q 3525 4100 3525 3541 
Q 3525 3141 3298 2862 
Q 3072 2584 2669 2484 
Q 3125 2378 3379 2068 
Q 3634 1759 3634 1313 
Q 3634 634 3220 271 
Q 2806 -91 2034 -91 
Q 1263 -91 848 271 
Q 434 634 434 1313 
Q 434 1759 690 2068 
Q 947 2378 1403 2484 
z
M 1172 3481 
Q 1172 3119 1398 2916 
Q 1625 2713 2034 2713 
Q 2441 2713 2670 2916 
Q 2900 3119 2900 3481 
Q 2900 3844 2670 4047 
Q 2441 4250 2034 4250 
Q 1625 4250 1398 4047 
Q 1172 3844 1172 3481 
z
" transform="scale(0.015625)"/>
       </defs>
       <use xlink:href="#DejaVuSans-38"/>
       <use xlink:href="#DejaVuSans-30" transform="translate(63.623047 0)"/>
      </g>
     </g>
    </g>
    <g id="xtick_10">
     <g id="line2d_10">
      <path d="M 400.412885 390.04 
L 400.412885 26.88 
" clip-path="url(#p6ab3f0855e)" style="fill: none; stroke: #ffffff; stroke-width: 0.8; stroke-linecap: round"/>
     </g>
     <g id="text_10">
      <!-- 90 -->
      <g style="fill: #262626" transform="translate(394.050385 404.638438) scale(0.1 -0.1)">
       <defs>
        <path id="DejaVuSans-39" d="M 703 97 
L 703 672 
Q 941 559 1184 500 
Q 1428 441 1663 441 
Q 2288 441 2617 861 
Q 2947 1281 2994 2138 
Q 2813 1869 2534 1725 
Q 2256 1581 1919 1581 
Q 1219 1581 811 2004 
Q 403 2428 403 3163 
Q 403 3881 828 4315 
Q 1253 4750 1959 4750 
Q 2769 4750 3195 4129 
Q 3622 3509 3622 2328 
Q 3622 1225 3098 567 
Q 2575 -91 1691 -91 
Q 1453 -91 1209 -44 
Q 966 3 703 97 
z
M 1959 2075 
Q 2384 2075 2632 2365 
Q 2881 2656 2881 3163 
Q 2881 3666 2632 3958 
Q 2384 4250 1959 4250 
Q 1534 4250 1286 3958 
Q 1038 3666 1038 3163 
Q 1038 2656 1286 2365 
Q 1534 2075 1959 2075 
z
" transform="scale(0.015625)"/>
       </defs>
       <use xlink:href="#DejaVuSans-39"/>
       <use xlink:href="#DejaVuSans-30" transform="translate(63.623047 0)"/>
      </g>
     </g>
    </g>
    <g id="xtick_11">
     <g id="line2d_11">
      <path d="M 437.998141 390.04 
L 437.998141 26.88 
" clip-path="url(#p6ab3f0855e)" style="fill: none; stroke: #ffffff; stroke-width: 0.8; stroke-linecap: round"/>
     </g>
     <g id="text_11">
      <!-- 100 -->
      <g style="fill: #262626" transform="translate(428.454391 404.638438) scale(0.1 -0.1)">
       <use xlink:href="#DejaVuSans-31"/>
       <use xlink:href="#DejaVuSans-30" transform="translate(63.623047 0)"/>
       <use xlink:href="#DejaVuSans-30" transform="translate(127.246094 0)"/>
      </g>
     </g>
    </g>
    <g id="xtick_12">
     <g id="line2d_12">
      <path d="M 475.583397 390.04 
L 475.583397 26.88 
" clip-path="url(#p6ab3f0855e)" style="fill: none; stroke: #ffffff; stroke-width: 0.8; stroke-linecap: round"/>
     </g>
     <g id="text_12">
      <!-- 110 -->
      <g style="fill: #262626" transform="translate(466.039647 404.638438) scale(0.1 -0.1)">
       <use xlink:href="#DejaVuSans-31"/>
       <use xlink:href="#DejaVuSans-31" transform="translate(63.623047 0)"/>
       <use xlink:href="#DejaVuSans-30" transform="translate(127.246094 0)"/>
      </g>
     </g>
    </g>
    <g id="xtick_13">
     <g id="line2d_13">
      <path d="M 513.168654 390.04 
L 513.168654 26.88 
" clip-path="url(#p6ab3f0855e)" style="fill: none; stroke: #ffffff; stroke-width: 0.8; stroke-linecap: round"/>
     </g>
     <g id="text_13">
      <!-- 120 -->
      <g style="fill: #262626" transform="translate(503.624904 404.638438) scale(0.1 -0.1)">
       <use xlink:href="#DejaVuSans-31"/>
       <use xlink:href="#DejaVuSans-32" transform="translate(63.623047 0)"/>
       <use xlink:href="#DejaVuSans-30" transform="translate(127.246094 0)"/>
      </g>
     </g>
    </g>
    <g id="xtick_14">
     <g id="line2d_14">
      <path d="M 550.75391 390.04 
L 550.75391 26.88 
" clip-path="url(#p6ab3f0855e)" style="fill: none; stroke: #ffffff; stroke-width: 0.8; stroke-linecap: round"/>
     </g>
     <g id="text_14">
      <!-- 130 -->
      <g style="fill: #262626" transform="translate(541.21016 404.638438) scale(0.1 -0.1)">
       <use xlink:href="#DejaVuSans-31"/>
       <use xlink:href="#DejaVuSans-33" transform="translate(63.623047 0)"/>
       <use xlink:href="#DejaVuSans-30" transform="translate(127.246094 0)"/>
      </g>
     </g>
    </g>
    <g id="xtick_15">
     <g id="line2d_15">
      <path d="M 588.339167 390.04 
L 588.339167 26.88 
" clip-path="url(#p6ab3f0855e)" style="fill: none; stroke: #ffffff; stroke-width: 0.8; stroke-linecap: round"/>
     </g>
     <g id="text_15">
      <!-- 140 -->
      <g style="fill: #262626" transform="translate(578.795417 404.638438) scale(0.1 -0.1)">
       <use xlink:href="#DejaVuSans-31"/>
       <use xlink:href="#DejaVuSans-34" transform="translate(63.623047 0)"/>
       <use xlink:href="#DejaVuSans-30" transform="translate(127.246094 0)"/>
      </g>
     </g>
    </g>
    <g id="xtick_16">
     <g id="line2d_16">
      <path d="M 625.924423 390.04 
L 625.924423 26.88 
" clip-path="url(#p6ab3f0855e)" style="fill: none; stroke: #ffffff; stroke-width: 0.8; stroke-linecap: round"/>
     </g>
     <g id="text_16">
      <!-- 150 -->
      <g style="fill: #262626" transform="translate(616.380673 404.638438) scale(0.1 -0.1)">
       <use xlink:href="#DejaVuSans-31"/>
       <use xlink:href="#DejaVuSans-35" transform="translate(63.623047 0)"/>
       <use xlink:href="#DejaVuSans-30" transform="translate(127.246094 0)"/>
      </g>
     </g>
    </g>
    <g id="text_17">
     <!-- Episode -->
     <g style="fill: #262626" transform="translate(324.3975 418.316562) scale(0.1 -0.1)">
      <defs>
       <path id="DejaVuSans-45" d="M 628 4666 
L 3578 4666 
L 3578 4134 
L 1259 4134 
L 1259 2753 
L 3481 2753 
L 3481 2222 
L 1259 2222 
L 1259 531 
L 3634 531 
L 3634 0 
L 628 0 
L 628 4666 
z
" transform="scale(0.015625)"/>
       <path id="DejaVuSans-70" d="M 1159 525 
L 1159 -1331 
L 581 -1331 
L 581 3500 
L 1159 3500 
L 1159 2969 
Q 1341 3281 1617 3432 
Q 1894 3584 2278 3584 
Q 2916 3584 3314 3078 
Q 3713 2572 3713 1747 
Q 3713 922 3314 415 
Q 2916 -91 2278 -91 
Q 1894 -91 1617 61 
Q 1341 213 1159 525 
z
M 3116 1747 
Q 3116 2381 2855 2742 
Q 2594 3103 2138 3103 
Q 1681 3103 1420 2742 
Q 1159 2381 1159 1747 
Q 1159 1113 1420 752 
Q 1681 391 2138 391 
Q 2594 391 2855 752 
Q 3116 1113 3116 1747 
z
" transform="scale(0.015625)"/>
       <path id="DejaVuSans-69" d="M 603 3500 
L 1178 3500 
L 1178 0 
L 603 0 
L 603 3500 
z
M 603 4863 
L 1178 4863 
L 1178 4134 
L 603 4134 
L 603 4863 
z
" transform="scale(0.015625)"/>
       <path id="DejaVuSans-73" d="M 2834 3397 
L 2834 2853 
Q 2591 2978 2328 3040 
Q 2066 3103 1784 3103 
Q 1356 3103 1142 2972 
Q 928 2841 928 2578 
Q 928 2378 1081 2264 
Q 1234 2150 1697 2047 
L 1894 2003 
Q 2506 1872 2764 1633 
Q 3022 1394 3022 966 
Q 3022 478 2636 193 
Q 2250 -91 1575 -91 
Q 1294 -91 989 -36 
Q 684 19 347 128 
L 347 722 
Q 666 556 975 473 
Q 1284 391 1588 391 
Q 1994 391 2212 530 
Q 2431 669 2431 922 
Q 2431 1156 2273 1281 
Q 2116 1406 1581 1522 
L 1381 1569 
Q 847 1681 609 1914 
Q 372 2147 372 2553 
Q 372 3047 722 3315 
Q 1072 3584 1716 3584 
Q 2034 3584 2315 3537 
Q 2597 3491 2834 3397 
z
" transform="scale(0.015625)"/>
       <path id="DejaVuSans-6f" d="M 1959 3097 
Q 1497 3097 1228 2736 
Q 959 2375 959 1747 
Q 959 1119 1226 758 
Q 1494 397 1959 397 
Q 2419 397 2687 759 
Q 2956 1122 2956 1747 
Q 2956 2369 2687 2733 
Q 2419 3097 1959 3097 
z
M 1959 3584 
Q 2709 3584 3137 3096 
Q 3566 2609 3566 1747 
Q 3566 888 3137 398 
Q 2709 -91 1959 -91 
Q 1206 -91 779 398 
Q 353 888 353 1747 
Q 353 2609 779 3096 
Q 1206 3584 1959 3584 
z
" transform="scale(0.015625)"/>
       <path id="DejaVuSans-64" d="M 2906 2969 
L 2906 4863 
L 3481 4863 
L 3481 0 
L 2906 0 
L 2906 525 
Q 2725 213 2448 61 
Q 2172 -91 1784 -91 
Q 1150 -91 751 415 
Q 353 922 353 1747 
Q 353 2572 751 3078 
Q 1150 3584 1784 3584 
Q 2172 3584 2448 3432 
Q 2725 3281 2906 2969 
z
M 947 1747 
Q 947 1113 1208 752 
Q 1469 391 1925 391 
Q 2381 391 2643 752 
Q 2906 1113 2906 1747 
Q 2906 2381 2643 2742 
Q 2381 3103 1925 3103 
Q 1469 3103 1208 2742 
Q 947 2381 947 1747 
z
" transform="scale(0.015625)"/>
       <path id="DejaVuSans-65" d="M 3597 1894 
L 3597 1613 
L 953 1613 
Q 991 1019 1311 708 
Q 1631 397 2203 397 
Q 2534 397 2845 478 
Q 3156 559 3463 722 
L 3463 178 
Q 3153 47 2828 -22 
Q 2503 -91 2169 -91 
Q 1331 -91 842 396 
Q 353 884 353 1716 
Q 353 2575 817 3079 
Q 1281 3584 2069 3584 
Q 2775 3584 3186 3129 
Q 3597 2675 3597 1894 
z
M 3022 2063 
Q 3016 2534 2758 2815 
Q 2500 3097 2075 3097 
Q 1594 3097 1305 2825 
Q 1016 2553 972 2059 
L 3022 2063 
z
" transform="scale(0.015625)"/>
      </defs>
      <use xlink:href="#DejaVuSans-45"/>
      <use xlink:href="#DejaVuSans-70" transform="translate(63.183594 0)"/>
      <use xlink:href="#DejaVuSans-69" transform="translate(126.660156 0)"/>
      <use xlink:href="#DejaVuSans-73" transform="translate(154.443359 0)"/>
      <use xlink:href="#DejaVuSans-6f" transform="translate(206.542969 0)"/>
      <use xlink:href="#DejaVuSans-64" transform="translate(267.724609 0)"/>
      <use xlink:href="#DejaVuSans-65" transform="translate(331.201172 0)"/>
     </g>
    </g>
   </g>
   <g id="matplotlib.axis_2">
    <g id="ytick_1">
     <g id="line2d_17">
      <path d="M 50.87 390.04 
L 637.2 390.04 
" clip-path="url(#p6ab3f0855e)" style="fill: none; stroke: #ffffff; stroke-width: 0.8; stroke-linecap: round"/>
     </g>
     <g id="text_18">
      <!-- 0 -->
      <g style="fill: #262626" transform="translate(37.5075 393.839219) scale(0.1 -0.1)">
       <use xlink:href="#DejaVuSans-30"/>
      </g>
     </g>
    </g>
    <g id="ytick_2">
     <g id="line2d_18">
      <path d="M 50.87 355.120769 
L 637.2 355.120769 
" clip-path="url(#p6ab3f0855e)" style="fill: none; stroke: #ffffff; stroke-width: 0.8; stroke-linecap: round"/>
     </g>
     <g id="text_19">
      <!-- 50 -->
      <g style="fill: #262626" transform="translate(31.145 358.919988) scale(0.1 -0.1)">
       <use xlink:href="#DejaVuSans-35"/>
       <use xlink:href="#DejaVuSans-30" transform="translate(63.623047 0)"/>
      </g>
     </g>
    </g>
    <g id="ytick_3">
     <g id="line2d_19">
      <path d="M 50.87 320.201538 
L 637.2 320.201538 
" clip-path="url(#p6ab3f0855e)" style="fill: none; stroke: #ffffff; stroke-width: 0.8; stroke-linecap: round"/>
     </g>
     <g id="text_20">
      <!-- 100 -->
      <g style="fill: #262626" transform="translate(24.7825 324.000757) scale(0.1 -0.1)">
       <use xlink:href="#DejaVuSans-31"/>
       <use xlink:href="#DejaVuSans-30" transform="translate(63.623047 0)"/>
       <use xlink:href="#DejaVuSans-30" transform="translate(127.246094 0)"/>
      </g>
     </g>
    </g>
    <g id="ytick_4">
     <g id="line2d_20">
      <path d="M 50.87 285.282308 
L 637.2 285.282308 
" clip-path="url(#p6ab3f0855e)" style="fill: none; stroke: #ffffff; stroke-width: 0.8; stroke-linecap: round"/>
     </g>
     <g id="text_21">
      <!-- 150 -->
      <g style="fill: #262626" transform="translate(24.7825 289.081526) scale(0.1 -0.1)">
       <use xlink:href="#DejaVuSans-31"/>
       <use xlink:href="#DejaVuSans-35" transform="translate(63.623047 0)"/>
       <use xlink:href="#DejaVuSans-30" transform="translate(127.246094 0)"/>
      </g>
     </g>
    </g>
    <g id="ytick_5">
     <g id="line2d_21">
      <path d="M 50.87 250.363077 
L 637.2 250.363077 
" clip-path="url(#p6ab3f0855e)" style="fill: none; stroke: #ffffff; stroke-width: 0.8; stroke-linecap: round"/>
     </g>
     <g id="text_22">
      <!-- 200 -->
      <g style="fill: #262626" transform="translate(24.7825 254.162296) scale(0.1 -0.1)">
       <use xlink:href="#DejaVuSans-32"/>
       <use xlink:href="#DejaVuSans-30" transform="translate(63.623047 0)"/>
       <use xlink:href="#DejaVuSans-30" transform="translate(127.246094 0)"/>
      </g>
     </g>
    </g>
    <g id="ytick_6">
     <g id="line2d_22">
      <path d="M 50.87 215.443846 
L 637.2 215.443846 
" clip-path="url(#p6ab3f0855e)" style="fill: none; stroke: #ffffff; stroke-width: 0.8; stroke-linecap: round"/>
     </g>
     <g id="text_23">
      <!-- 250 -->
      <g style="fill: #262626" transform="translate(24.7825 219.243065) scale(0.1 -0.1)">
       <use xlink:href="#DejaVuSans-32"/>
       <use xlink:href="#DejaVuSans-35" transform="translate(63.623047 0)"/>
       <use xlink:href="#DejaVuSans-30" transform="translate(127.246094 0)"/>
      </g>
     </g>
    </g>
    <g id="ytick_7">
     <g id="line2d_23">
      <path d="M 50.87 180.524615 
L 637.2 180.524615 
" clip-path="url(#p6ab3f0855e)" style="fill: none; stroke: #ffffff; stroke-width: 0.8; stroke-linecap: round"/>
     </g>
     <g id="text_24">
      <!-- 300 -->
      <g style="fill: #262626" transform="translate(24.7825 184.323834) scale(0.1 -0.1)">
       <use xlink:href="#DejaVuSans-33"/>
       <use xlink:href="#DejaVuSans-30" transform="translate(63.623047 0)"/>
       <use xlink:href="#DejaVuSans-30" transform="translate(127.246094 0)"/>
      </g>
     </g>
    </g>
    <g id="ytick_8">
     <g id="line2d_24">
      <path d="M 50.87 145.605385 
L 637.2 145.605385 
" clip-path="url(#p6ab3f0855e)" style="fill: none; stroke: #ffffff; stroke-width: 0.8; stroke-linecap: round"/>
     </g>
     <g id="text_25">
      <!-- 350 -->
      <g style="fill: #262626" transform="translate(24.7825 149.404603) scale(0.1 -0.1)">
       <use xlink:href="#DejaVuSans-33"/>
       <use xlink:href="#DejaVuSans-35" transform="translate(63.623047 0)"/>
       <use xlink:href="#DejaVuSans-30" transform="translate(127.246094 0)"/>
      </g>
     </g>
    </g>
    <g id="ytick_9">
     <g id="line2d_25">
      <path d="M 50.87 110.686154 
L 637.2 110.686154 
" clip-path="url(#p6ab3f0855e)" style="fill: none; stroke: #ffffff; stroke-width: 0.8; stroke-linecap: round"/>
     </g>
     <g id="text_26">
      <!-- 400 -->
      <g style="fill: #262626" transform="translate(24.7825 114.485373) scale(0.1 -0.1)">
       <use xlink:href="#DejaVuSans-34"/>
       <use xlink:href="#DejaVuSans-30" transform="translate(63.623047 0)"/>
       <use xlink:href="#DejaVuSans-30" transform="translate(127.246094 0)"/>
      </g>
     </g>
    </g>
    <g id="ytick_10">
     <g id="line2d_26">
      <path d="M 50.87 75.766923 
L 637.2 75.766923 
" clip-path="url(#p6ab3f0855e)" style="fill: none; stroke: #ffffff; stroke-width: 0.8; stroke-linecap: round"/>
     </g>
     <g id="text_27">
      <!-- 450 -->
      <g style="fill: #262626" transform="translate(24.7825 79.566142) scale(0.1 -0.1)">
       <use xlink:href="#DejaVuSans-34"/>
       <use xlink:href="#DejaVuSans-35" transform="translate(63.623047 0)"/>
       <use xlink:href="#DejaVuSans-30" transform="translate(127.246094 0)"/>
      </g>
     </g>
    </g>
    <g id="ytick_11">
     <g id="line2d_27">
      <path d="M 50.87 40.847692 
L 637.2 40.847692 
" clip-path="url(#p6ab3f0855e)" style="fill: none; stroke: #ffffff; stroke-width: 0.8; stroke-linecap: round"/>
     </g>
     <g id="text_28">
      <!-- 500 -->
      <g style="fill: #262626" transform="translate(24.7825 44.646911) scale(0.1 -0.1)">
       <use xlink:href="#DejaVuSans-35"/>
       <use xlink:href="#DejaVuSans-30" transform="translate(63.623047 0)"/>
       <use xlink:href="#DejaVuSans-30" transform="translate(127.246094 0)"/>
      </g>
     </g>
    </g>
    <g id="text_29">
     <!-- Reward -->
     <g style="fill: #262626" transform="translate(18.702813 227.081094) rotate(-90) scale(0.1 -0.1)">
      <defs>
       <path id="DejaVuSans-52" d="M 2841 2188 
Q 3044 2119 3236 1894 
Q 3428 1669 3622 1275 
L 4263 0 
L 3584 0 
L 2988 1197 
Q 2756 1666 2539 1819 
Q 2322 1972 1947 1972 
L 1259 1972 
L 1259 0 
L 628 0 
L 628 4666 
L 2053 4666 
Q 2853 4666 3247 4331 
Q 3641 3997 3641 3322 
Q 3641 2881 3436 2590 
Q 3231 2300 2841 2188 
z
M 1259 4147 
L 1259 2491 
L 2053 2491 
Q 2509 2491 2742 2702 
Q 2975 2913 2975 3322 
Q 2975 3731 2742 3939 
Q 2509 4147 2053 4147 
L 1259 4147 
z
" transform="scale(0.015625)"/>
       <path id="DejaVuSans-77" d="M 269 3500 
L 844 3500 
L 1563 769 
L 2278 3500 
L 2956 3500 
L 3675 769 
L 4391 3500 
L 4966 3500 
L 4050 0 
L 3372 0 
L 2619 2869 
L 1863 0 
L 1184 0 
L 269 3500 
z
" transform="scale(0.015625)"/>
       <path id="DejaVuSans-61" d="M 2194 1759 
Q 1497 1759 1228 1600 
Q 959 1441 959 1056 
Q 959 750 1161 570 
Q 1363 391 1709 391 
Q 2188 391 2477 730 
Q 2766 1069 2766 1631 
L 2766 1759 
L 2194 1759 
z
M 3341 1997 
L 3341 0 
L 2766 0 
L 2766 531 
Q 2569 213 2275 61 
Q 1981 -91 1556 -91 
Q 1019 -91 701 211 
Q 384 513 384 1019 
Q 384 1609 779 1909 
Q 1175 2209 1959 2209 
L 2766 2209 
L 2766 2266 
Q 2766 2663 2505 2880 
Q 2244 3097 1772 3097 
Q 1472 3097 1187 3025 
Q 903 2953 641 2809 
L 641 3341 
Q 956 3463 1253 3523 
Q 1550 3584 1831 3584 
Q 2591 3584 2966 3190 
Q 3341 2797 3341 1997 
z
" transform="scale(0.015625)"/>
       <path id="DejaVuSans-72" d="M 2631 2963 
Q 2534 3019 2420 3045 
Q 2306 3072 2169 3072 
Q 1681 3072 1420 2755 
Q 1159 2438 1159 1844 
L 1159 0 
L 581 0 
L 581 3500 
L 1159 3500 
L 1159 2956 
Q 1341 3275 1631 3429 
Q 1922 3584 2338 3584 
Q 2397 3584 2469 3576 
Q 2541 3569 2628 3553 
L 2631 2963 
z
" transform="scale(0.015625)"/>
      </defs>
      <use xlink:href="#DejaVuSans-52"/>
      <use xlink:href="#DejaVuSans-65" transform="translate(64.982422 0)"/>
      <use xlink:href="#DejaVuSans-77" transform="translate(126.505859 0)"/>
      <use xlink:href="#DejaVuSans-61" transform="translate(208.292969 0)"/>
      <use xlink:href="#DejaVuSans-72" transform="translate(269.572266 0)"/>
      <use xlink:href="#DejaVuSans-64" transform="translate(308.935547 0)"/>
     </g>
    </g>
   </g>
   <g id="line2d_28">
    <path d="M 62.145577 374.746204 
L 65.904103 373.231116 
L 69.662628 370.660827 
L 73.421154 368.242096 
L 77.179679 363.386347 
L 80.938205 358.217752 
L 84.696731 351.979546 
L 88.455256 342.225754 
L 92.213782 325.46422 
L 95.972308 317.742439 
L 99.730833 295.827677 
L 103.489359 289.184466 
L 107.247885 277.822521 
L 111.00641 268.76527 
L 114.764936 251.227655 
L 118.523462 254.532552 
L 122.281987 265.832531 
L 126.040513 241.191624 
L 129.799038 235.411826 
L 133.557564 242.763688 
L 137.31609 242.706238 
L 141.074615 238.286725 
L 144.833141 226.153494 
L 148.591667 234.515631 
L 152.350192 225.613289 
L 156.108718 224.708666 
L 159.867244 222.90522 
L 163.625769 213.221736 
L 167.384295 228.55987 
L 171.142821 222.682867 
L 174.901346 212.627537 
L 178.659872 235.977382 
L 182.418397 234.792081 
L 186.176923 216.285946 
L 189.935449 205.865037 
L 193.693974 206.023533 
L 197.4525 194.197501 
L 201.211026 213.246236 
L 204.969551 207.81789 
L 208.728077 191.336597 
L 212.486603 214.291298 
L 216.245128 221.950731 
L 220.003654 210.273558 
L 223.762179 229.273258 
L 227.520705 236.785452 
L 231.279231 226.881324 
L 235.037756 212.9391 
L 238.796282 211.944833 
L 242.554808 182.351062 
L 246.313333 168.598423 
L 250.071859 145.991285 
L 253.830385 167.209456 
L 257.58891 187.305706 
L 261.347436 194.760789 
L 265.105962 219.663148 
L 268.864487 209.074853 
L 272.623013 205.755729 
L 276.381538 207.68781 
L 280.140064 221.031671 
L 283.89859 198.708805 
L 287.657115 211.765687 
L 291.415641 204.93243 
L 295.174167 201.639387 
L 298.932692 160.368324 
L 302.691218 160.623637 
L 306.449744 164.447354 
L 310.208269 151.802137 
L 313.966795 173.888692 
L 317.725321 193.868738 
L 321.483846 206.244509 
L 325.242372 206.227771 
L 329.000897 205.475674 
L 332.759423 175.739834 
L 336.517949 170.813818 
L 340.276474 181.511462 
L 344.035 221.757644 
L 347.793526 210.206424 
L 351.552051 208.691208 
L 355.310577 222.208043 
L 359.069103 177.672266 
L 362.827628 178.652234 
L 366.586154 186.447878 
L 370.344679 196.387027 
L 374.103205 168.564003 
L 377.861731 159.056272 
L 381.620256 182.668268 
L 385.378782 173.31854 
L 389.137308 182.149841 
L 392.895833 141.531122 
L 396.654359 173.543798 
L 400.412885 171.721687 
L 404.17141 174.544697 
L 407.929936 146.462142 
L 411.688462 157.304103 
L 415.446987 103.266736 
L 419.205513 142.865024 
L 422.964038 133.982934 
L 426.722564 119.465236 
L 430.48109 58.937794 
L 434.239615 86.846019 
L 437.998141 113.384458 
L 441.756667 95.117997 
L 445.515192 92.101363 
L 449.273718 91.252015 
L 453.032244 88.925653 
L 456.790769 71.402019 
L 460.549295 88.058492 
L 464.307821 78.820416 
L 468.066346 118.283026 
L 471.824872 75.796022 
L 475.583397 99.903095 
L 479.341923 93.71502 
L 483.100449 76.081196 
L 486.858974 91.028179 
L 490.6175 71.017908 
L 494.376026 77.993994 
L 498.134551 63.66741 
L 501.893077 86.398665 
L 505.651603 105.161156 
L 509.410128 89.205838 
L 513.168654 87.892626 
L 516.927179 94.222901 
L 520.685705 71.423359 
L 524.444231 60.313224 
L 528.202756 76.436208 
L 531.961282 70.523219 
L 535.719808 44.915783 
L 539.478333 69.341785 
L 543.236859 67.037115 
L 546.995385 59.267587 
L 550.75391 49.507662 
L 554.512436 68.137071 
L 558.270962 53.697969 
L 562.029487 74.45396 
L 565.788013 70.955053 
L 569.546538 102.174652 
L 573.305064 87.517244 
L 577.06359 59.690497 
L 580.822115 59.773915 
L 584.580641 86.515697 
L 588.339167 75.796022 
L 592.097692 49.12355 
L 595.856218 81.82153 
L 599.614744 84.811004 
L 603.373269 64.361914 
L 607.131795 51.323462 
L 614.648846 44.985621 
L 618.407372 53.855106 
L 622.165897 49.10609 
L 622.165897 49.10609 
" clip-path="url(#p6ab3f0855e)" style="fill: none; stroke: #1f77b4; stroke-width: 1.5; stroke-linecap: round"/>
   </g>
   <g id="line2d_29">
    <path d="M 62.145577 374.341929 
L 65.904103 373.986232 
L 69.662628 373.382 
L 73.421154 370.605814 
L 77.179679 366.536908 
L 80.938205 363.596531 
L 88.455256 350.859789 
L 92.213782 339.57968 
L 95.972308 327.941808 
L 99.730833 314.704751 
L 103.489359 290.977672 
L 107.247885 278.146597 
L 111.00641 261.66839 
L 114.764936 238.264201 
L 118.523462 217.715003 
L 122.281987 234.060369 
L 126.040513 237.639475 
L 129.799038 219.518784 
L 133.557564 212.806488 
L 137.31609 222.346214 
L 141.074615 180.977261 
L 144.833141 228.952522 
L 148.591667 201.962364 
L 152.350192 224.229414 
L 156.108718 228.383714 
L 159.867244 187.980368 
L 163.625769 219.264376 
L 167.384295 202.779067 
L 171.142821 203.917213 
L 174.901346 165.159731 
L 178.659872 165.611141 
L 182.418397 154.980661 
L 186.176923 184.6576 
L 189.935449 186.700037 
L 193.693974 171.446093 
L 197.4525 172.396582 
L 201.211026 194.428289 
L 204.969551 199.291752 
L 208.728077 191.167146 
L 212.486603 206.228812 
L 216.245128 211.917639 
L 220.003654 203.982024 
L 223.762179 176.653058 
L 227.520705 168.652346 
L 231.279231 181.204958 
L 235.037756 183.852474 
L 238.796282 182.734376 
L 242.554808 182.491399 
L 246.313333 208.004796 
L 250.071859 156.878741 
L 253.830385 147.001028 
L 257.58891 139.671637 
L 261.347436 189.284063 
L 265.105962 224.245894 
L 272.623013 182.44214 
L 276.381538 197.780702 
L 280.140064 208.666429 
L 283.89859 223.220687 
L 287.657115 224.232589 
L 291.415641 208.159735 
L 295.174167 235.557417 
L 298.932692 237.249358 
L 302.691218 238.782191 
L 306.449744 234.670802 
L 310.208269 244.513084 
L 313.966795 253.104112 
L 317.725321 238.759546 
L 321.483846 215.045499 
L 325.242372 208.660413 
L 329.000897 213.909278 
L 332.759423 233.156418 
L 336.517949 227.005438 
L 340.276474 211.994729 
L 344.035 212.06343 
L 347.793526 215.287729 
L 351.552051 233.782343 
L 355.310577 195.889121 
L 359.069103 213.413949 
L 362.827628 230.112918 
L 366.586154 216.087265 
L 370.344679 221.491634 
L 374.103205 202.821586 
L 377.861731 181.195094 
L 385.378782 178.400828 
L 389.137308 171.027114 
L 396.654359 167.750329 
L 400.412885 184.0586 
L 404.17141 201.671812 
L 407.929936 183.199345 
L 411.688462 176.549103 
L 415.446987 168.273132 
L 419.205513 137.797057 
L 422.964038 154.243953 
L 426.722564 158.734299 
L 430.48109 168.589863 
L 434.239615 146.339658 
L 437.998141 128.521151 
L 441.756667 129.311905 
L 445.515192 133.241291 
L 449.273718 136.466723 
L 453.032244 142.189612 
L 456.790769 127.498045 
L 460.549295 138.514616 
L 464.307821 125.631197 
L 468.066346 138.302404 
L 471.824872 136.462366 
L 475.583397 146.79934 
L 479.341923 122.465927 
L 483.100449 119.095526 
L 486.858974 122.659958 
L 490.6175 109.102806 
L 494.376026 140.940597 
L 498.134551 150.37904 
L 501.893077 116.836927 
L 505.651603 146.445386 
L 509.410128 131.509126 
L 513.168654 145.497002 
L 516.927179 142.426349 
L 520.685705 122.945132 
L 524.444231 126.128811 
L 528.202756 119.388026 
L 531.961282 122.164616 
L 535.719808 133.768929 
L 539.478333 118.160033 
L 543.236859 105.71302 
L 546.995385 61.85161 
L 550.75391 98.334446 
L 554.512436 114.814771 
L 558.270962 148.288346 
L 562.029487 104.856305 
L 565.788013 125.203516 
L 569.546538 69.09735 
L 573.305064 82.398085 
L 577.06359 96.239292 
L 580.822115 74.09274 
L 584.580641 98.125975 
L 588.339167 51.812331 
L 592.097692 47.604563 
L 595.856218 69.592039 
L 599.614744 114.626207 
L 603.373269 78.438244 
L 607.131795 84.108142 
L 610.890321 70.878231 
L 614.648846 48.145812 
L 618.407372 68.032313 
L 622.165897 86.600614 
L 622.165897 86.600614 
" clip-path="url(#p6ab3f0855e)" style="fill: none; stroke: #ff7f0e; stroke-width: 1.5; stroke-linecap: round"/>
   </g>
   <g id="line2d_30">
    <path d="M 62.145577 374.61097 
L 65.904103 374.570095 
L 69.662628 372.434641 
L 73.421154 370.970264 
L 77.179679 366.057028 
L 80.938205 362.23154 
L 84.696731 357.79692 
L 92.213782 340.935895 
L 95.972308 326.623864 
L 99.730833 308.389256 
L 103.489359 296.108796 
L 107.247885 280.718189 
L 111.00641 255.832554 
L 114.764936 260.535258 
L 118.523462 254.942403 
L 122.281987 238.608697 
L 126.040513 221.53387 
L 129.799038 238.506003 
L 133.557564 226.241633 
L 137.31609 236.134243 
L 141.074615 219.755953 
L 144.833141 208.116566 
L 148.591667 202.937197 
L 152.350192 173.611912 
L 156.108718 192.664697 
L 159.867244 187.345342 
L 163.625769 160.001031 
L 167.384295 192.5003 
L 171.142821 190.698448 
L 174.901346 200.057927 
L 178.659872 247.374876 
L 182.418397 228.082391 
L 186.176923 223.221108 
L 189.935449 205.401807 
L 193.693974 223.841883 
L 197.4525 208.401025 
L 201.211026 220.642297 
L 204.969551 220.831689 
L 208.728077 223.308258 
L 212.486603 191.69509 
L 216.245128 212.500776 
L 220.003654 171.878712 
L 223.762179 132.877325 
L 227.520705 157.503725 
L 231.279231 151.542836 
L 235.037756 194.439656 
L 238.796282 194.415674 
L 242.554808 210.379893 
L 246.313333 211.563655 
L 250.071859 212.012752 
L 253.830385 187.866516 
L 257.58891 174.966399 
L 261.347436 197.585084 
L 265.105962 208.889598 
L 268.864487 213.528715 
L 272.623013 220.933501 
L 276.381538 214.872349 
L 280.140064 200.524171 
L 283.89859 184.01525 
L 287.657115 195.536224 
L 291.415641 247.938695 
L 295.174167 210.629526 
L 298.932692 236.476956 
L 302.691218 237.155893 
L 306.449744 241.943936 
L 310.208269 242.175365 
L 313.966795 221.476011 
L 317.725321 209.096112 
L 321.483846 216.717591 
L 325.242372 213.866021 
L 329.000897 196.866074 
L 332.759423 210.885552 
L 336.517949 203.078986 
L 340.276474 175.003813 
L 344.035 166.242511 
L 347.793526 191.866114 
L 351.552051 153.049001 
L 355.310577 116.470472 
L 359.069103 136.260787 
L 362.827628 120.723951 
L 366.586154 130.532423 
L 370.344679 179.265242 
L 374.103205 180.25831 
L 377.861731 131.403186 
L 381.620256 106.244745 
L 385.378782 116.544825 
L 389.137308 162.656198 
L 392.895833 118.366331 
L 400.412885 161.540732 
L 404.17141 171.039313 
L 407.929936 156.409761 
L 411.688462 136.920196 
L 419.205513 123.229142 
L 422.964038 153.698886 
L 426.722564 149.870627 
L 430.48109 113.137484 
L 434.239615 113.87231 
L 437.998141 98.600109 
L 441.756667 72.897197 
L 445.515192 83.076682 
L 449.273718 77.324321 
L 453.032244 95.294533 
L 460.549295 122.293306 
L 464.307821 81.662453 
L 468.066346 108.680984 
L 471.824872 89.632544 
L 475.583397 67.033623 
L 479.341923 70.750194 
L 483.100449 86.869299 
L 486.858974 87.113345 
L 490.6175 63.64995 
L 494.376026 64.365794 
L 498.134551 66.37365 
L 501.893077 77.425587 
L 505.651603 96.612928 
L 509.410128 101.460493 
L 513.168654 76.779581 
L 516.927179 82.217729 
L 520.685705 83.004904 
L 524.444231 87.051831 
L 528.202756 69.952871 
L 531.961282 89.729243 
L 535.719808 61.757328 
L 539.478333 58.505183 
L 543.236859 43.257119 
L 546.995385 77.130713 
L 550.75391 53.121802 
L 554.512436 43.414256 
L 558.270962 41.371481 
L 562.029487 58.289848 
L 565.788013 63.099002 
L 569.546538 53.104342 
L 573.305064 58.150171 
L 577.06359 43.67615 
L 580.822115 77.136709 
L 584.580641 45.579248 
L 588.339167 44.706267 
L 592.097692 73.64267 
L 595.856218 61.762372 
L 599.614744 51.061567 
L 603.373269 70.927435 
L 607.131795 57.032756 
L 610.890321 54.675708 
L 614.648846 53.470994 
L 618.407372 49.018792 
L 622.165897 46.993477 
L 622.165897 46.993477 
" clip-path="url(#p6ab3f0855e)" style="fill: none; stroke: #2ca02c; stroke-width: 1.5; stroke-linecap: round"/>
   </g>
   <g id="line2d_31">
    <path d="M 62.145577 374.439378 
L 69.662628 370.324069 
L 73.421154 366.575221 
L 77.179679 360.961705 
L 80.938205 355.947268 
L 84.696731 348.776953 
L 92.213782 325.977196 
L 95.972308 315.821159 
L 99.730833 296.411771 
L 103.489359 289.134949 
L 107.247885 266.720561 
L 111.00641 264.595674 
L 114.764936 264.164573 
L 118.523462 246.357786 
L 122.281987 240.382356 
L 126.040513 238.919781 
L 129.799038 212.774247 
L 133.557564 235.328408 
L 137.31609 202.515013 
L 141.074615 223.537918 
L 144.833141 208.588037 
L 148.591667 194.522571 
L 152.350192 216.51501 
L 156.108718 218.597713 
L 159.867244 192.667559 
L 163.625769 192.395721 
L 167.384295 170.281893 
L 171.142821 201.456814 
L 174.901346 174.08437 
L 178.659872 191.031424 
L 182.418397 197.897462 
L 186.176923 205.301077 
L 189.935449 195.796135 
L 193.693974 203.071923 
L 197.4525 214.796288 
L 201.211026 191.904241 
L 204.969551 212.866941 
L 208.728077 218.756933 
L 212.486603 215.74202 
L 216.245128 203.772046 
L 220.003654 178.441595 
L 223.762179 197.391239 
L 227.520705 184.450678 
L 231.279231 158.332774 
L 235.037756 164.384448 
L 238.796282 151.736426 
L 242.554808 179.392527 
L 246.313333 179.325885 
L 250.071859 200.651972 
L 253.830385 209.124823 
L 257.58891 164.96965 
L 261.347436 188.967309 
L 265.105962 182.184613 
L 268.864487 208.545217 
L 272.623013 233.493274 
L 276.381538 248.321365 
L 280.140064 250.420039 
L 283.89859 218.982845 
L 287.657115 202.29343 
L 291.415641 215.67679 
L 295.174167 201.205779 
L 298.932692 209.739893 
L 302.691218 219.67297 
L 306.449744 210.198772 
L 310.208269 185.045533 
L 313.966795 142.494171 
L 317.725321 211.173285 
L 321.483846 231.327832 
L 325.242372 254.089313 
L 329.000897 210.700263 
L 332.759423 207.793401 
L 336.517949 179.82321 
L 340.276474 189.387713 
L 344.035 168.386044 
L 347.793526 190.944514 
L 351.552051 169.999104 
L 355.310577 129.330703 
L 359.069103 147.396435 
L 362.827628 154.296217 
L 366.586154 141.049189 
L 370.344679 166.796561 
L 374.103205 178.909214 
L 377.861731 214.511004 
L 381.620256 229.035583 
L 385.378782 214.303275 
L 389.137308 197.970135 
L 392.895833 190.658334 
L 396.654359 167.967731 
L 400.412885 173.221954 
L 404.17141 160.248891 
L 407.929936 152.667417 
L 411.688462 122.096336 
L 415.446987 131.088962 
L 419.205513 145.079772 
L 422.964038 150.426112 
L 426.722564 142.532977 
L 430.48109 161.201781 
L 434.239615 142.156917 
L 437.998141 130.532563 
L 441.756667 128.369696 
L 445.515192 132.9072 
L 449.273718 107.724486 
L 453.032244 97.475045 
L 456.790769 145.09332 
L 460.549295 113.893961 
L 464.307821 95.698321 
L 468.066346 106.829674 
L 471.824872 101.420918 
L 475.583397 104.554792 
L 479.341923 118.381273 
L 483.100449 121.339165 
L 486.858974 145.789403 
L 490.6175 119.135776 
L 494.376026 104.185459 
L 498.134551 96.467043 
L 501.893077 99.647122 
L 505.651603 120.421635 
L 509.410128 136.217425 
L 513.168654 113.063836 
L 516.927179 86.577917 
L 520.685705 86.46864 
L 524.444231 81.319081 
L 528.202756 93.193768 
L 531.961282 69.044971 
L 535.719808 90.670557 
L 539.478333 104.885682 
L 543.236859 118.540384 
L 546.995385 84.155298 
L 550.75391 96.179153 
L 554.512436 88.377527 
L 558.270962 89.359905 
L 562.029487 75.127266 
L 565.788013 84.454329 
L 569.546538 93.423583 
L 573.305064 85.177656 
L 577.06359 87.700986 
L 580.822115 105.242634 
L 584.580641 91.860531 
L 588.339167 103.900754 
L 592.097692 103.684848 
L 595.856218 107.461298 
L 599.614744 84.405941 
L 603.373269 81.649786 
L 607.131795 78.208775 
L 610.890321 77.711289 
L 614.648846 60.821492 
L 618.407372 45.282435 
L 622.165897 50.345723 
L 622.165897 50.345723 
" clip-path="url(#p6ab3f0855e)" style="fill: none; stroke: #d62728; stroke-width: 1.5; stroke-linecap: round"/>
   </g>
   <g id="patch_3">
    <path d="M 50.87 390.04 
L 50.87 26.88 
" style="fill: none; stroke: #ffffff; stroke-width: 0.8; stroke-linejoin: miter; stroke-linecap: square"/>
   </g>
   <g id="patch_4">
    <path d="M 637.2 390.04 
L 637.2 26.88 
" style="fill: none; stroke: #ffffff; stroke-width: 0.8; stroke-linejoin: miter; stroke-linecap: square"/>
   </g>
   <g id="patch_5">
    <path d="M 50.87 390.04 
L 637.2 390.04 
" style="fill: none; stroke: #ffffff; stroke-width: 0.8; stroke-linejoin: miter; stroke-linecap: square"/>
   </g>
   <g id="patch_6">
    <path d="M 50.87 26.88 
L 637.2 26.88 
" style="fill: none; stroke: #ffffff; stroke-width: 0.8; stroke-linejoin: miter; stroke-linecap: square"/>
   </g>
   <g id="text_30">
    <!-- Rewards over Episodes for CartPole-v1 (Entropy) -->
    <g style="fill: #262626" transform="translate(198.225625 20.88) scale(0.12 -0.12)">
     <defs>
      <path id="DejaVuSans-20" transform="scale(0.015625)"/>
      <path id="DejaVuSans-76" d="M 191 3500 
L 800 3500 
L 1894 563 
L 2988 3500 
L 3597 3500 
L 2284 0 
L 1503 0 
L 191 3500 
z
" transform="scale(0.015625)"/>
      <path id="DejaVuSans-66" d="M 2375 4863 
L 2375 4384 
L 1825 4384 
Q 1516 4384 1395 4259 
Q 1275 4134 1275 3809 
L 1275 3500 
L 2222 3500 
L 2222 3053 
L 1275 3053 
L 1275 0 
L 697 0 
L 697 3053 
L 147 3053 
L 147 3500 
L 697 3500 
L 697 3744 
Q 697 4328 969 4595 
Q 1241 4863 1831 4863 
L 2375 4863 
z
" transform="scale(0.015625)"/>
      <path id="DejaVuSans-43" d="M 4122 4306 
L 4122 3641 
Q 3803 3938 3442 4084 
Q 3081 4231 2675 4231 
Q 1875 4231 1450 3742 
Q 1025 3253 1025 2328 
Q 1025 1406 1450 917 
Q 1875 428 2675 428 
Q 3081 428 3442 575 
Q 3803 722 4122 1019 
L 4122 359 
Q 3791 134 3420 21 
Q 3050 -91 2638 -91 
Q 1578 -91 968 557 
Q 359 1206 359 2328 
Q 359 3453 968 4101 
Q 1578 4750 2638 4750 
Q 3056 4750 3426 4639 
Q 3797 4528 4122 4306 
z
" transform="scale(0.015625)"/>
      <path id="DejaVuSans-74" d="M 1172 4494 
L 1172 3500 
L 2356 3500 
L 2356 3053 
L 1172 3053 
L 1172 1153 
Q 1172 725 1289 603 
Q 1406 481 1766 481 
L 2356 481 
L 2356 0 
L 1766 0 
Q 1100 0 847 248 
Q 594 497 594 1153 
L 594 3053 
L 172 3053 
L 172 3500 
L 594 3500 
L 594 4494 
L 1172 4494 
z
" transform="scale(0.015625)"/>
      <path id="DejaVuSans-50" d="M 1259 4147 
L 1259 2394 
L 2053 2394 
Q 2494 2394 2734 2622 
Q 2975 2850 2975 3272 
Q 2975 3691 2734 3919 
Q 2494 4147 2053 4147 
L 1259 4147 
z
M 628 4666 
L 2053 4666 
Q 2838 4666 3239 4311 
Q 3641 3956 3641 3272 
Q 3641 2581 3239 2228 
Q 2838 1875 2053 1875 
L 1259 1875 
L 1259 0 
L 628 0 
L 628 4666 
z
" transform="scale(0.015625)"/>
      <path id="DejaVuSans-6c" d="M 603 4863 
L 1178 4863 
L 1178 0 
L 603 0 
L 603 4863 
z
" transform="scale(0.015625)"/>
      <path id="DejaVuSans-2d" d="M 313 2009 
L 1997 2009 
L 1997 1497 
L 313 1497 
L 313 2009 
z
" transform="scale(0.015625)"/>
      <path id="DejaVuSans-28" d="M 1984 4856 
Q 1566 4138 1362 3434 
Q 1159 2731 1159 2009 
Q 1159 1288 1364 580 
Q 1569 -128 1984 -844 
L 1484 -844 
Q 1016 -109 783 600 
Q 550 1309 550 2009 
Q 550 2706 781 3412 
Q 1013 4119 1484 4856 
L 1984 4856 
z
" transform="scale(0.015625)"/>
      <path id="DejaVuSans-6e" d="M 3513 2113 
L 3513 0 
L 2938 0 
L 2938 2094 
Q 2938 2591 2744 2837 
Q 2550 3084 2163 3084 
Q 1697 3084 1428 2787 
Q 1159 2491 1159 1978 
L 1159 0 
L 581 0 
L 581 3500 
L 1159 3500 
L 1159 2956 
Q 1366 3272 1645 3428 
Q 1925 3584 2291 3584 
Q 2894 3584 3203 3211 
Q 3513 2838 3513 2113 
z
" transform="scale(0.015625)"/>
      <path id="DejaVuSans-79" d="M 2059 -325 
Q 1816 -950 1584 -1140 
Q 1353 -1331 966 -1331 
L 506 -1331 
L 506 -850 
L 844 -850 
Q 1081 -850 1212 -737 
Q 1344 -625 1503 -206 
L 1606 56 
L 191 3500 
L 800 3500 
L 1894 763 
L 2988 3500 
L 3597 3500 
L 2059 -325 
z
" transform="scale(0.015625)"/>
      <path id="DejaVuSans-29" d="M 513 4856 
L 1013 4856 
Q 1481 4119 1714 3412 
Q 1947 2706 1947 2009 
Q 1947 1309 1714 600 
Q 1481 -109 1013 -844 
L 513 -844 
Q 928 -128 1133 580 
Q 1338 1288 1338 2009 
Q 1338 2731 1133 3434 
Q 928 4138 513 4856 
z
" transform="scale(0.015625)"/>
     </defs>
     <use xlink:href="#DejaVuSans-52"/>
     <use xlink:href="#DejaVuSans-65" transform="translate(64.982422 0)"/>
     <use xlink:href="#DejaVuSans-77" transform="translate(126.505859 0)"/>
     <use xlink:href="#DejaVuSans-61" transform="translate(208.292969 0)"/>
     <use xlink:href="#DejaVuSans-72" transform="translate(269.572266 0)"/>
     <use xlink:href="#DejaVuSans-64" transform="translate(308.935547 0)"/>
     <use xlink:href="#DejaVuSans-73" transform="translate(372.412109 0)"/>
     <use xlink:href="#DejaVuSans-20" transform="translate(424.511719 0)"/>
     <use xlink:href="#DejaVuSans-6f" transform="translate(456.298828 0)"/>
     <use xlink:href="#DejaVuSans-76" transform="translate(517.480469 0)"/>
     <use xlink:href="#DejaVuSans-65" transform="translate(576.660156 0)"/>
     <use xlink:href="#DejaVuSans-72" transform="translate(638.183594 0)"/>
     <use xlink:href="#DejaVuSans-20" transform="translate(679.296875 0)"/>
     <use xlink:href="#DejaVuSans-45" transform="translate(711.083984 0)"/>
     <use xlink:href="#DejaVuSans-70" transform="translate(774.267578 0)"/>
     <use xlink:href="#DejaVuSans-69" transform="translate(837.744141 0)"/>
     <use xlink:href="#DejaVuSans-73" transform="translate(865.527344 0)"/>
     <use xlink:href="#DejaVuSans-6f" transform="translate(917.626953 0)"/>
     <use xlink:href="#DejaVuSans-64" transform="translate(978.808594 0)"/>
     <use xlink:href="#DejaVuSans-65" transform="translate(1042.285156 0)"/>
     <use xlink:href="#DejaVuSans-73" transform="translate(1103.808594 0)"/>
     <use xlink:href="#DejaVuSans-20" transform="translate(1155.908203 0)"/>
     <use xlink:href="#DejaVuSans-66" transform="translate(1187.695312 0)"/>
     <use xlink:href="#DejaVuSans-6f" transform="translate(1222.900391 0)"/>
     <use xlink:href="#DejaVuSans-72" transform="translate(1284.082031 0)"/>
     <use xlink:href="#DejaVuSans-20" transform="translate(1325.195312 0)"/>
     <use xlink:href="#DejaVuSans-43" transform="translate(1356.982422 0)"/>
     <use xlink:href="#DejaVuSans-61" transform="translate(1426.806641 0)"/>
     <use xlink:href="#DejaVuSans-72" transform="translate(1488.085938 0)"/>
     <use xlink:href="#DejaVuSans-74" transform="translate(1529.199219 0)"/>
     <use xlink:href="#DejaVuSans-50" transform="translate(1568.408203 0)"/>
     <use xlink:href="#DejaVuSans-6f" transform="translate(1625.085938 0)"/>
     <use xlink:href="#DejaVuSans-6c" transform="translate(1686.267578 0)"/>
     <use xlink:href="#DejaVuSans-65" transform="translate(1714.050781 0)"/>
     <use xlink:href="#DejaVuSans-2d" transform="translate(1775.574219 0)"/>
     <use xlink:href="#DejaVuSans-76" transform="translate(1809.033203 0)"/>
     <use xlink:href="#DejaVuSans-31" transform="translate(1868.212891 0)"/>
     <use xlink:href="#DejaVuSans-20" transform="translate(1931.835938 0)"/>
     <use xlink:href="#DejaVuSans-28" transform="translate(1963.623047 0)"/>
     <use xlink:href="#DejaVuSans-45" transform="translate(2002.636719 0)"/>
     <use xlink:href="#DejaVuSans-6e" transform="translate(2065.820312 0)"/>
     <use xlink:href="#DejaVuSans-74" transform="translate(2129.199219 0)"/>
     <use xlink:href="#DejaVuSans-72" transform="translate(2168.408203 0)"/>
     <use xlink:href="#DejaVuSans-6f" transform="translate(2207.271484 0)"/>
     <use xlink:href="#DejaVuSans-70" transform="translate(2268.453125 0)"/>
     <use xlink:href="#DejaVuSans-79" transform="translate(2331.929688 0)"/>
     <use xlink:href="#DejaVuSans-29" transform="translate(2391.109375 0)"/>
    </g>
   </g>
   <g id="legend_1">
    <g id="patch_7">
     <path d="M 57.87 94.14875 
L 173.021563 94.14875 
Q 175.021563 94.14875 175.021563 92.14875 
L 175.021563 33.88 
Q 175.021563 31.88 173.021563 31.88 
L 57.87 31.88 
Q 55.87 31.88 55.87 33.88 
L 55.87 92.14875 
Q 55.87 94.14875 57.87 94.14875 
z
" style="fill: #eaeaf2; opacity: 0.8; stroke: #cccccc; stroke-linejoin: miter"/>
    </g>
    <g id="line2d_32">
     <path d="M 59.87 39.978438 
L 69.87 39.978438 
L 79.87 39.978438 
" style="fill: none; stroke: #1f77b4; stroke-width: 1.5; stroke-linecap: round"/>
    </g>
    <g id="text_31">
     <!-- Logits (Baseline) -->
     <g style="fill: #262626" transform="translate(87.87 43.478438) scale(0.1 -0.1)">
      <defs>
       <path id="DejaVuSans-4c" d="M 628 4666 
L 1259 4666 
L 1259 531 
L 3531 531 
L 3531 0 
L 628 0 
L 628 4666 
z
" transform="scale(0.015625)"/>
       <path id="DejaVuSans-67" d="M 2906 1791 
Q 2906 2416 2648 2759 
Q 2391 3103 1925 3103 
Q 1463 3103 1205 2759 
Q 947 2416 947 1791 
Q 947 1169 1205 825 
Q 1463 481 1925 481 
Q 2391 481 2648 825 
Q 2906 1169 2906 1791 
z
M 3481 434 
Q 3481 -459 3084 -895 
Q 2688 -1331 1869 -1331 
Q 1566 -1331 1297 -1286 
Q 1028 -1241 775 -1147 
L 775 -588 
Q 1028 -725 1275 -790 
Q 1522 -856 1778 -856 
Q 2344 -856 2625 -561 
Q 2906 -266 2906 331 
L 2906 616 
Q 2728 306 2450 153 
Q 2172 0 1784 0 
Q 1141 0 747 490 
Q 353 981 353 1791 
Q 353 2603 747 3093 
Q 1141 3584 1784 3584 
Q 2172 3584 2450 3431 
Q 2728 3278 2906 2969 
L 2906 3500 
L 3481 3500 
L 3481 434 
z
" transform="scale(0.015625)"/>
       <path id="DejaVuSans-42" d="M 1259 2228 
L 1259 519 
L 2272 519 
Q 2781 519 3026 730 
Q 3272 941 3272 1375 
Q 3272 1813 3026 2020 
Q 2781 2228 2272 2228 
L 1259 2228 
z
M 1259 4147 
L 1259 2741 
L 2194 2741 
Q 2656 2741 2882 2914 
Q 3109 3088 3109 3444 
Q 3109 3797 2882 3972 
Q 2656 4147 2194 4147 
L 1259 4147 
z
M 628 4666 
L 2241 4666 
Q 2963 4666 3353 4366 
Q 3744 4066 3744 3513 
Q 3744 3084 3544 2831 
Q 3344 2578 2956 2516 
Q 3422 2416 3680 2098 
Q 3938 1781 3938 1306 
Q 3938 681 3513 340 
Q 3088 0 2303 0 
L 628 0 
L 628 4666 
z
" transform="scale(0.015625)"/>
      </defs>
      <use xlink:href="#DejaVuSans-4c"/>
      <use xlink:href="#DejaVuSans-6f" transform="translate(53.962891 0)"/>
      <use xlink:href="#DejaVuSans-67" transform="translate(115.144531 0)"/>
      <use xlink:href="#DejaVuSans-69" transform="translate(178.621094 0)"/>
      <use xlink:href="#DejaVuSans-74" transform="translate(206.404297 0)"/>
      <use xlink:href="#DejaVuSans-73" transform="translate(245.613281 0)"/>
      <use xlink:href="#DejaVuSans-20" transform="translate(297.712891 0)"/>
      <use xlink:href="#DejaVuSans-28" transform="translate(329.5 0)"/>
      <use xlink:href="#DejaVuSans-42" transform="translate(368.513672 0)"/>
      <use xlink:href="#DejaVuSans-61" transform="translate(437.117188 0)"/>
      <use xlink:href="#DejaVuSans-73" transform="translate(498.396484 0)"/>
      <use xlink:href="#DejaVuSans-65" transform="translate(550.496094 0)"/>
      <use xlink:href="#DejaVuSans-6c" transform="translate(612.019531 0)"/>
      <use xlink:href="#DejaVuSans-69" transform="translate(639.802734 0)"/>
      <use xlink:href="#DejaVuSans-6e" transform="translate(667.585938 0)"/>
      <use xlink:href="#DejaVuSans-65" transform="translate(730.964844 0)"/>
      <use xlink:href="#DejaVuSans-29" transform="translate(792.488281 0)"/>
     </g>
    </g>
    <g id="line2d_33">
     <path d="M 59.87 54.656563 
L 69.87 54.656563 
L 79.87 54.656563 
" style="fill: none; stroke: #ff7f0e; stroke-width: 1.5; stroke-linecap: round"/>
    </g>
    <g id="text_32">
     <!-- GNN -->
     <g style="fill: #262626" transform="translate(87.87 58.156563) scale(0.1 -0.1)">
      <defs>
       <path id="DejaVuSans-47" d="M 3809 666 
L 3809 1919 
L 2778 1919 
L 2778 2438 
L 4434 2438 
L 4434 434 
Q 4069 175 3628 42 
Q 3188 -91 2688 -91 
Q 1594 -91 976 548 
Q 359 1188 359 2328 
Q 359 3472 976 4111 
Q 1594 4750 2688 4750 
Q 3144 4750 3555 4637 
Q 3966 4525 4313 4306 
L 4313 3634 
Q 3963 3931 3569 4081 
Q 3175 4231 2741 4231 
Q 1884 4231 1454 3753 
Q 1025 3275 1025 2328 
Q 1025 1384 1454 906 
Q 1884 428 2741 428 
Q 3075 428 3337 486 
Q 3600 544 3809 666 
z
" transform="scale(0.015625)"/>
       <path id="DejaVuSans-4e" d="M 628 4666 
L 1478 4666 
L 3547 763 
L 3547 4666 
L 4159 4666 
L 4159 0 
L 3309 0 
L 1241 3903 
L 1241 0 
L 628 0 
L 628 4666 
z
" transform="scale(0.015625)"/>
      </defs>
      <use xlink:href="#DejaVuSans-47"/>
      <use xlink:href="#DejaVuSans-4e" transform="translate(77.490234 0)"/>
      <use xlink:href="#DejaVuSans-4e" transform="translate(152.294922 0)"/>
     </g>
    </g>
    <g id="line2d_34">
     <path d="M 59.87 69.334688 
L 69.87 69.334688 
L 79.87 69.334688 
" style="fill: none; stroke: #2ca02c; stroke-width: 1.5; stroke-linecap: round"/>
    </g>
    <g id="text_33">
     <!-- GNN_K -->
     <g style="fill: #262626" transform="translate(87.87 72.834688) scale(0.1 -0.1)">
      <defs>
       <path id="DejaVuSans-5f" d="M 3263 -1063 
L 3263 -1509 
L -63 -1509 
L -63 -1063 
L 3263 -1063 
z
" transform="scale(0.015625)"/>
       <path id="DejaVuSans-4b" d="M 628 4666 
L 1259 4666 
L 1259 2694 
L 3353 4666 
L 4166 4666 
L 1850 2491 
L 4331 0 
L 3500 0 
L 1259 2247 
L 1259 0 
L 628 0 
L 628 4666 
z
" transform="scale(0.015625)"/>
      </defs>
      <use xlink:href="#DejaVuSans-47"/>
      <use xlink:href="#DejaVuSans-4e" transform="translate(77.490234 0)"/>
      <use xlink:href="#DejaVuSans-4e" transform="translate(152.294922 0)"/>
      <use xlink:href="#DejaVuSans-5f" transform="translate(227.099609 0)"/>
      <use xlink:href="#DejaVuSans-4b" transform="translate(277.099609 0)"/>
     </g>
    </g>
    <g id="line2d_35">
     <path d="M 59.87 84.290938 
L 69.87 84.290938 
L 79.87 84.290938 
" style="fill: none; stroke: #d62728; stroke-width: 1.5; stroke-linecap: round"/>
    </g>
    <g id="text_34">
     <!-- GNN_N -->
     <g style="fill: #262626" transform="translate(87.87 87.790938) scale(0.1 -0.1)">
      <use xlink:href="#DejaVuSans-47"/>
      <use xlink:href="#DejaVuSans-4e" transform="translate(77.490234 0)"/>
      <use xlink:href="#DejaVuSans-4e" transform="translate(152.294922 0)"/>
      <use xlink:href="#DejaVuSans-5f" transform="translate(227.099609 0)"/>
      <use xlink:href="#DejaVuSans-4e" transform="translate(277.099609 0)"/>
     </g>
    </g>
   </g>
  </g>
 </g>
 <defs>
  <clipPath id="p6ab3f0855e">
   <rect x="50.87" y="26.88" width="586.33" height="363.16"/>
  </clipPath>
 </defs>
</svg>
