<?xml version="1.0" encoding="utf-8" standalone="no"?>
<!DOCTYPE svg PUBLIC "-//W3C//DTD SVG 1.1//EN"
  "http://www.w3.org/Graphics/SVG/1.1/DTD/svg11.dtd">
<svg xmlns:xlink="http://www.w3.org/1999/xlink" width="576pt" height="432pt" viewBox="0 0 576 432" xmlns="http://www.w3.org/2000/svg" version="1.1">
 <metadata>
  <rdf:RDF xmlns:dc="http://purl.org/dc/elements/1.1/" xmlns:cc="http://creativecommons.org/ns#" xmlns:rdf="http://www.w3.org/1999/02/22-rdf-syntax-ns#">
   <cc:Work>
    <dc:type rdf:resource="http://purl.org/dc/dcmitype/StillImage"/>
    <dc:date>2025-07-07T22:28:02.032687</dc:date>
    <dc:format>image/svg+xml</dc:format>
    <dc:creator>
     <cc:Agent>
      <dc:title>Matplotlib v3.10.0, https://matplotlib.org/</dc:title>
     </cc:Agent>
    </dc:creator>
   </cc:Work>
  </rdf:RDF>
 </metadata>
 <defs>
  <style type="text/css">*{stroke-linejoin: round; stroke-linecap: butt}</style>
 </defs>
 <g id="figure_1">
  <g id="patch_1">
   <path d="M 0 432 
L 576 432 
L 576 0 
L 0 0 
z
" style="fill: #ffffff"/>
  </g>
  <g id="axes_1">
   <g id="patch_2">
    <path d="M 50.87 390.04 
L 564.289615 390.04 
L 564.289615 26.88 
L 50.87 26.88 
z
" style="fill: #eaeaf2"/>
   </g>
   <g id="matplotlib.axis_1">
    <g id="xtick_1">
     <g id="line2d_1">
      <path d="M 60.743454 390.04 
L 60.743454 26.88 
" clip-path="url(#p8f90060488)" style="fill: none; stroke: #ffffff; stroke-width: 0.8; stroke-linecap: round"/>
     </g>
     <g id="text_1">
      <!-- 0 -->
      <g style="fill: #262626" transform="translate(57.562204 404.638438) scale(0.1 -0.1)">
       <defs>
        <path id="DejaVuSans-30" d="M 2034 4250 
Q 1547 4250 1301 3770 
Q 1056 3291 1056 2328 
Q 1056 1369 1301 889 
Q 1547 409 2034 409 
Q 2525 409 2770 889 
Q 3016 1369 3016 2328 
Q 3016 3291 2770 3770 
Q 2525 4250 2034 4250 
z
M 2034 4750 
Q 2819 4750 3233 4129 
Q 3647 3509 3647 2328 
Q 3647 1150 3233 529 
Q 2819 -91 2034 -91 
Q 1250 -91 836 529 
Q 422 1150 422 2328 
Q 422 3509 836 4129 
Q 1250 4750 2034 4750 
z
" transform="scale(0.015625)"/>
       </defs>
       <use xlink:href="#DejaVuSans-30"/>
      </g>
     </g>
    </g>
    <g id="xtick_2">
     <g id="line2d_2">
      <path d="M 93.654968 390.04 
L 93.654968 26.88 
" clip-path="url(#p8f90060488)" style="fill: none; stroke: #ffffff; stroke-width: 0.8; stroke-linecap: round"/>
     </g>
     <g id="text_2">
      <!-- 10 -->
      <g style="fill: #262626" transform="translate(87.292468 404.638438) scale(0.1 -0.1)">
       <defs>
        <path id="DejaVuSans-31" d="M 794 531 
L 1825 531 
L 1825 4091 
L 703 3866 
L 703 4441 
L 1819 4666 
L 2450 4666 
L 2450 531 
L 3481 531 
L 3481 0 
L 794 0 
L 794 531 
z
" transform="scale(0.015625)"/>
       </defs>
       <use xlink:href="#DejaVuSans-31"/>
       <use xlink:href="#DejaVuSans-30" transform="translate(63.623047 0)"/>
      </g>
     </g>
    </g>
    <g id="xtick_3">
     <g id="line2d_3">
      <path d="M 126.566482 390.04 
L 126.566482 26.88 
" clip-path="url(#p8f90060488)" style="fill: none; stroke: #ffffff; stroke-width: 0.8; stroke-linecap: round"/>
     </g>
     <g id="text_3">
      <!-- 20 -->
      <g style="fill: #262626" transform="translate(120.203982 404.638438) scale(0.1 -0.1)">
       <defs>
        <path id="DejaVuSans-32" d="M 1228 531 
L 3431 531 
L 3431 0 
L 469 0 
L 469 531 
Q 828 903 1448 1529 
Q 2069 2156 2228 2338 
Q 2531 2678 2651 2914 
Q 2772 3150 2772 3378 
Q 2772 3750 2511 3984 
Q 2250 4219 1831 4219 
Q 1534 4219 1204 4116 
Q 875 4013 500 3803 
L 500 4441 
Q 881 4594 1212 4672 
Q 1544 4750 1819 4750 
Q 2544 4750 2975 4387 
Q 3406 4025 3406 3419 
Q 3406 3131 3298 2873 
Q 3191 2616 2906 2266 
Q 2828 2175 2409 1742 
Q 1991 1309 1228 531 
z
" transform="scale(0.015625)"/>
       </defs>
       <use xlink:href="#DejaVuSans-32"/>
       <use xlink:href="#DejaVuSans-30" transform="translate(63.623047 0)"/>
      </g>
     </g>
    </g>
    <g id="xtick_4">
     <g id="line2d_4">
      <path d="M 159.477996 390.04 
L 159.477996 26.88 
" clip-path="url(#p8f90060488)" style="fill: none; stroke: #ffffff; stroke-width: 0.8; stroke-linecap: round"/>
     </g>
     <g id="text_4">
      <!-- 30 -->
      <g style="fill: #262626" transform="translate(153.115496 404.638438) scale(0.1 -0.1)">
       <defs>
        <path id="DejaVuSans-33" d="M 2597 2516 
Q 3050 2419 3304 2112 
Q 3559 1806 3559 1356 
Q 3559 666 3084 287 
Q 2609 -91 1734 -91 
Q 1441 -91 1130 -33 
Q 819 25 488 141 
L 488 750 
Q 750 597 1062 519 
Q 1375 441 1716 441 
Q 2309 441 2620 675 
Q 2931 909 2931 1356 
Q 2931 1769 2642 2001 
Q 2353 2234 1838 2234 
L 1294 2234 
L 1294 2753 
L 1863 2753 
Q 2328 2753 2575 2939 
Q 2822 3125 2822 3475 
Q 2822 3834 2567 4026 
Q 2313 4219 1838 4219 
Q 1578 4219 1281 4162 
Q 984 4106 628 3988 
L 628 4550 
Q 988 4650 1302 4700 
Q 1616 4750 1894 4750 
Q 2613 4750 3031 4423 
Q 3450 4097 3450 3541 
Q 3450 3153 3228 2886 
Q 3006 2619 2597 2516 
z
" transform="scale(0.015625)"/>
       </defs>
       <use xlink:href="#DejaVuSans-33"/>
       <use xlink:href="#DejaVuSans-30" transform="translate(63.623047 0)"/>
      </g>
     </g>
    </g>
    <g id="xtick_5">
     <g id="line2d_5">
      <path d="M 192.389509 390.04 
L 192.389509 26.88 
" clip-path="url(#p8f90060488)" style="fill: none; stroke: #ffffff; stroke-width: 0.8; stroke-linecap: round"/>
     </g>
     <g id="text_5">
      <!-- 40 -->
      <g style="fill: #262626" transform="translate(186.027009 404.638438) scale(0.1 -0.1)">
       <defs>
        <path id="DejaVuSans-34" d="M 2419 4116 
L 825 1625 
L 2419 1625 
L 2419 4116 
z
M 2253 4666 
L 3047 4666 
L 3047 1625 
L 3713 1625 
L 3713 1100 
L 3047 1100 
L 3047 0 
L 2419 0 
L 2419 1100 
L 313 1100 
L 313 1709 
L 2253 4666 
z
" transform="scale(0.015625)"/>
       </defs>
       <use xlink:href="#DejaVuSans-34"/>
       <use xlink:href="#DejaVuSans-30" transform="translate(63.623047 0)"/>
      </g>
     </g>
    </g>
    <g id="xtick_6">
     <g id="line2d_6">
      <path d="M 225.301023 390.04 
L 225.301023 26.88 
" clip-path="url(#p8f90060488)" style="fill: none; stroke: #ffffff; stroke-width: 0.8; stroke-linecap: round"/>
     </g>
     <g id="text_6">
      <!-- 50 -->
      <g style="fill: #262626" transform="translate(218.938523 404.638438) scale(0.1 -0.1)">
       <defs>
        <path id="DejaVuSans-35" d="M 691 4666 
L 3169 4666 
L 3169 4134 
L 1269 4134 
L 1269 2991 
Q 1406 3038 1543 3061 
Q 1681 3084 1819 3084 
Q 2600 3084 3056 2656 
Q 3513 2228 3513 1497 
Q 3513 744 3044 326 
Q 2575 -91 1722 -91 
Q 1428 -91 1123 -41 
Q 819 9 494 109 
L 494 744 
Q 775 591 1075 516 
Q 1375 441 1709 441 
Q 2250 441 2565 725 
Q 2881 1009 2881 1497 
Q 2881 1984 2565 2268 
Q 2250 2553 1709 2553 
Q 1456 2553 1204 2497 
Q 953 2441 691 2322 
L 691 4666 
z
" transform="scale(0.015625)"/>
       </defs>
       <use xlink:href="#DejaVuSans-35"/>
       <use xlink:href="#DejaVuSans-30" transform="translate(63.623047 0)"/>
      </g>
     </g>
    </g>
    <g id="xtick_7">
     <g id="line2d_7">
      <path d="M 258.212537 390.04 
L 258.212537 26.88 
" clip-path="url(#p8f90060488)" style="fill: none; stroke: #ffffff; stroke-width: 0.8; stroke-linecap: round"/>
     </g>
     <g id="text_7">
      <!-- 60 -->
      <g style="fill: #262626" transform="translate(251.850037 404.638438) scale(0.1 -0.1)">
       <defs>
        <path id="DejaVuSans-36" d="M 2113 2584 
Q 1688 2584 1439 2293 
Q 1191 2003 1191 1497 
Q 1191 994 1439 701 
Q 1688 409 2113 409 
Q 2538 409 2786 701 
Q 3034 994 3034 1497 
Q 3034 2003 2786 2293 
Q 2538 2584 2113 2584 
z
M 3366 4563 
L 3366 3988 
Q 3128 4100 2886 4159 
Q 2644 4219 2406 4219 
Q 1781 4219 1451 3797 
Q 1122 3375 1075 2522 
Q 1259 2794 1537 2939 
Q 1816 3084 2150 3084 
Q 2853 3084 3261 2657 
Q 3669 2231 3669 1497 
Q 3669 778 3244 343 
Q 2819 -91 2113 -91 
Q 1303 -91 875 529 
Q 447 1150 447 2328 
Q 447 3434 972 4092 
Q 1497 4750 2381 4750 
Q 2619 4750 2861 4703 
Q 3103 4656 3366 4563 
z
" transform="scale(0.015625)"/>
       </defs>
       <use xlink:href="#DejaVuSans-36"/>
       <use xlink:href="#DejaVuSans-30" transform="translate(63.623047 0)"/>
      </g>
     </g>
    </g>
    <g id="xtick_8">
     <g id="line2d_8">
      <path d="M 291.124051 390.04 
L 291.124051 26.88 
" clip-path="url(#p8f90060488)" style="fill: none; stroke: #ffffff; stroke-width: 0.8; stroke-linecap: round"/>
     </g>
     <g id="text_8">
      <!-- 70 -->
      <g style="fill: #262626" transform="translate(284.761551 404.638438) scale(0.1 -0.1)">
       <defs>
        <path id="DejaVuSans-37" d="M 525 4666 
L 3525 4666 
L 3525 4397 
L 1831 0 
L 1172 0 
L 2766 4134 
L 525 4134 
L 525 4666 
z
" transform="scale(0.015625)"/>
       </defs>
       <use xlink:href="#DejaVuSans-37"/>
       <use xlink:href="#DejaVuSans-30" transform="translate(63.623047 0)"/>
      </g>
     </g>
    </g>
    <g id="xtick_9">
     <g id="line2d_9">
      <path d="M 324.035565 390.04 
L 324.035565 26.88 
" clip-path="url(#p8f90060488)" style="fill: none; stroke: #ffffff; stroke-width: 0.8; stroke-linecap: round"/>
     </g>
     <g id="text_9">
      <!-- 80 -->
      <g style="fill: #262626" transform="translate(317.673065 404.638438) scale(0.1 -0.1)">
       <defs>
        <path id="DejaVuSans-38" d="M 2034 2216 
Q 1584 2216 1326 1975 
Q 1069 1734 1069 1313 
Q 1069 891 1326 650 
Q 1584 409 2034 409 
Q 2484 409 2743 651 
Q 3003 894 3003 1313 
Q 3003 1734 2745 1975 
Q 2488 2216 2034 2216 
z
M 1403 2484 
Q 997 2584 770 2862 
Q 544 3141 544 3541 
Q 544 4100 942 4425 
Q 1341 4750 2034 4750 
Q 2731 4750 3128 4425 
Q 3525 4100 3525 3541 
Q 3525 3141 3298 2862 
Q 3072 2584 2669 2484 
Q 3125 2378 3379 2068 
Q 3634 1759 3634 1313 
Q 3634 634 3220 271 
Q 2806 -91 2034 -91 
Q 1263 -91 848 271 
Q 434 634 434 1313 
Q 434 1759 690 2068 
Q 947 2378 1403 2484 
z
M 1172 3481 
Q 1172 3119 1398 2916 
Q 1625 2713 2034 2713 
Q 2441 2713 2670 2916 
Q 2900 3119 2900 3481 
Q 2900 3844 2670 4047 
Q 2441 4250 2034 4250 
Q 1625 4250 1398 4047 
Q 1172 3844 1172 3481 
z
" transform="scale(0.015625)"/>
       </defs>
       <use xlink:href="#DejaVuSans-38"/>
       <use xlink:href="#DejaVuSans-30" transform="translate(63.623047 0)"/>
      </g>
     </g>
    </g>
    <g id="xtick_10">
     <g id="line2d_10">
      <path d="M 356.947078 390.04 
L 356.947078 26.88 
" clip-path="url(#p8f90060488)" style="fill: none; stroke: #ffffff; stroke-width: 0.8; stroke-linecap: round"/>
     </g>
     <g id="text_10">
      <!-- 90 -->
      <g style="fill: #262626" transform="translate(350.584578 404.638438) scale(0.1 -0.1)">
       <defs>
        <path id="DejaVuSans-39" d="M 703 97 
L 703 672 
Q 941 559 1184 500 
Q 1428 441 1663 441 
Q 2288 441 2617 861 
Q 2947 1281 2994 2138 
Q 2813 1869 2534 1725 
Q 2256 1581 1919 1581 
Q 1219 1581 811 2004 
Q 403 2428 403 3163 
Q 403 3881 828 4315 
Q 1253 4750 1959 4750 
Q 2769 4750 3195 4129 
Q 3622 3509 3622 2328 
Q 3622 1225 3098 567 
Q 2575 -91 1691 -91 
Q 1453 -91 1209 -44 
Q 966 3 703 97 
z
M 1959 2075 
Q 2384 2075 2632 2365 
Q 2881 2656 2881 3163 
Q 2881 3666 2632 3958 
Q 2384 4250 1959 4250 
Q 1534 4250 1286 3958 
Q 1038 3666 1038 3163 
Q 1038 2656 1286 2365 
Q 1534 2075 1959 2075 
z
" transform="scale(0.015625)"/>
       </defs>
       <use xlink:href="#DejaVuSans-39"/>
       <use xlink:href="#DejaVuSans-30" transform="translate(63.623047 0)"/>
      </g>
     </g>
    </g>
    <g id="xtick_11">
     <g id="line2d_11">
      <path d="M 389.858592 390.04 
L 389.858592 26.88 
" clip-path="url(#p8f90060488)" style="fill: none; stroke: #ffffff; stroke-width: 0.8; stroke-linecap: round"/>
     </g>
     <g id="text_11">
      <!-- 100 -->
      <g style="fill: #262626" transform="translate(380.314842 404.638438) scale(0.1 -0.1)">
       <use xlink:href="#DejaVuSans-31"/>
       <use xlink:href="#DejaVuSans-30" transform="translate(63.623047 0)"/>
       <use xlink:href="#DejaVuSans-30" transform="translate(127.246094 0)"/>
      </g>
     </g>
    </g>
    <g id="xtick_12">
     <g id="line2d_12">
      <path d="M 422.770106 390.04 
L 422.770106 26.88 
" clip-path="url(#p8f90060488)" style="fill: none; stroke: #ffffff; stroke-width: 0.8; stroke-linecap: round"/>
     </g>
     <g id="text_12">
      <!-- 110 -->
      <g style="fill: #262626" transform="translate(413.226356 404.638438) scale(0.1 -0.1)">
       <use xlink:href="#DejaVuSans-31"/>
       <use xlink:href="#DejaVuSans-31" transform="translate(63.623047 0)"/>
       <use xlink:href="#DejaVuSans-30" transform="translate(127.246094 0)"/>
      </g>
     </g>
    </g>
    <g id="xtick_13">
     <g id="line2d_13">
      <path d="M 455.68162 390.04 
L 455.68162 26.88 
" clip-path="url(#p8f90060488)" style="fill: none; stroke: #ffffff; stroke-width: 0.8; stroke-linecap: round"/>
     </g>
     <g id="text_13">
      <!-- 120 -->
      <g style="fill: #262626" transform="translate(446.13787 404.638438) scale(0.1 -0.1)">
       <use xlink:href="#DejaVuSans-31"/>
       <use xlink:href="#DejaVuSans-32" transform="translate(63.623047 0)"/>
       <use xlink:href="#DejaVuSans-30" transform="translate(127.246094 0)"/>
      </g>
     </g>
    </g>
    <g id="xtick_14">
     <g id="line2d_14">
      <path d="M 488.593134 390.04 
L 488.593134 26.88 
" clip-path="url(#p8f90060488)" style="fill: none; stroke: #ffffff; stroke-width: 0.8; stroke-linecap: round"/>
     </g>
     <g id="text_14">
      <!-- 130 -->
      <g style="fill: #262626" transform="translate(479.049384 404.638438) scale(0.1 -0.1)">
       <use xlink:href="#DejaVuSans-31"/>
       <use xlink:href="#DejaVuSans-33" transform="translate(63.623047 0)"/>
       <use xlink:href="#DejaVuSans-30" transform="translate(127.246094 0)"/>
      </g>
     </g>
    </g>
    <g id="xtick_15">
     <g id="line2d_15">
      <path d="M 521.504647 390.04 
L 521.504647 26.88 
" clip-path="url(#p8f90060488)" style="fill: none; stroke: #ffffff; stroke-width: 0.8; stroke-linecap: round"/>
     </g>
     <g id="text_15">
      <!-- 140 -->
      <g style="fill: #262626" transform="translate(511.960897 404.638438) scale(0.1 -0.1)">
       <use xlink:href="#DejaVuSans-31"/>
       <use xlink:href="#DejaVuSans-34" transform="translate(63.623047 0)"/>
       <use xlink:href="#DejaVuSans-30" transform="translate(127.246094 0)"/>
      </g>
     </g>
    </g>
    <g id="xtick_16">
     <g id="line2d_16">
      <path d="M 554.416161 390.04 
L 554.416161 26.88 
" clip-path="url(#p8f90060488)" style="fill: none; stroke: #ffffff; stroke-width: 0.8; stroke-linecap: round"/>
     </g>
     <g id="text_16">
      <!-- 150 -->
      <g style="fill: #262626" transform="translate(544.872411 404.638438) scale(0.1 -0.1)">
       <use xlink:href="#DejaVuSans-31"/>
       <use xlink:href="#DejaVuSans-35" transform="translate(63.623047 0)"/>
       <use xlink:href="#DejaVuSans-30" transform="translate(127.246094 0)"/>
      </g>
     </g>
    </g>
    <g id="text_17">
     <!-- Episode -->
     <g style="fill: #262626" transform="translate(287.942308 418.316562) scale(0.1 -0.1)">
      <defs>
       <path id="DejaVuSans-45" d="M 628 4666 
L 3578 4666 
L 3578 4134 
L 1259 4134 
L 1259 2753 
L 3481 2753 
L 3481 2222 
L 1259 2222 
L 1259 531 
L 3634 531 
L 3634 0 
L 628 0 
L 628 4666 
z
" transform="scale(0.015625)"/>
       <path id="DejaVuSans-70" d="M 1159 525 
L 1159 -1331 
L 581 -1331 
L 581 3500 
L 1159 3500 
L 1159 2969 
Q 1341 3281 1617 3432 
Q 1894 3584 2278 3584 
Q 2916 3584 3314 3078 
Q 3713 2572 3713 1747 
Q 3713 922 3314 415 
Q 2916 -91 2278 -91 
Q 1894 -91 1617 61 
Q 1341 213 1159 525 
z
M 3116 1747 
Q 3116 2381 2855 2742 
Q 2594 3103 2138 3103 
Q 1681 3103 1420 2742 
Q 1159 2381 1159 1747 
Q 1159 1113 1420 752 
Q 1681 391 2138 391 
Q 2594 391 2855 752 
Q 3116 1113 3116 1747 
z
" transform="scale(0.015625)"/>
       <path id="DejaVuSans-69" d="M 603 3500 
L 1178 3500 
L 1178 0 
L 603 0 
L 603 3500 
z
M 603 4863 
L 1178 4863 
L 1178 4134 
L 603 4134 
L 603 4863 
z
" transform="scale(0.015625)"/>
       <path id="DejaVuSans-73" d="M 2834 3397 
L 2834 2853 
Q 2591 2978 2328 3040 
Q 2066 3103 1784 3103 
Q 1356 3103 1142 2972 
Q 928 2841 928 2578 
Q 928 2378 1081 2264 
Q 1234 2150 1697 2047 
L 1894 2003 
Q 2506 1872 2764 1633 
Q 3022 1394 3022 966 
Q 3022 478 2636 193 
Q 2250 -91 1575 -91 
Q 1294 -91 989 -36 
Q 684 19 347 128 
L 347 722 
Q 666 556 975 473 
Q 1284 391 1588 391 
Q 1994 391 2212 530 
Q 2431 669 2431 922 
Q 2431 1156 2273 1281 
Q 2116 1406 1581 1522 
L 1381 1569 
Q 847 1681 609 1914 
Q 372 2147 372 2553 
Q 372 3047 722 3315 
Q 1072 3584 1716 3584 
Q 2034 3584 2315 3537 
Q 2597 3491 2834 3397 
z
" transform="scale(0.015625)"/>
       <path id="DejaVuSans-6f" d="M 1959 3097 
Q 1497 3097 1228 2736 
Q 959 2375 959 1747 
Q 959 1119 1226 758 
Q 1494 397 1959 397 
Q 2419 397 2687 759 
Q 2956 1122 2956 1747 
Q 2956 2369 2687 2733 
Q 2419 3097 1959 3097 
z
M 1959 3584 
Q 2709 3584 3137 3096 
Q 3566 2609 3566 1747 
Q 3566 888 3137 398 
Q 2709 -91 1959 -91 
Q 1206 -91 779 398 
Q 353 888 353 1747 
Q 353 2609 779 3096 
Q 1206 3584 1959 3584 
z
" transform="scale(0.015625)"/>
       <path id="DejaVuSans-64" d="M 2906 2969 
L 2906 4863 
L 3481 4863 
L 3481 0 
L 2906 0 
L 2906 525 
Q 2725 213 2448 61 
Q 2172 -91 1784 -91 
Q 1150 -91 751 415 
Q 353 922 353 1747 
Q 353 2572 751 3078 
Q 1150 3584 1784 3584 
Q 2172 3584 2448 3432 
Q 2725 3281 2906 2969 
z
M 947 1747 
Q 947 1113 1208 752 
Q 1469 391 1925 391 
Q 2381 391 2643 752 
Q 2906 1113 2906 1747 
Q 2906 2381 2643 2742 
Q 2381 3103 1925 3103 
Q 1469 3103 1208 2742 
Q 947 2381 947 1747 
z
" transform="scale(0.015625)"/>
       <path id="DejaVuSans-65" d="M 3597 1894 
L 3597 1613 
L 953 1613 
Q 991 1019 1311 708 
Q 1631 397 2203 397 
Q 2534 397 2845 478 
Q 3156 559 3463 722 
L 3463 178 
Q 3153 47 2828 -22 
Q 2503 -91 2169 -91 
Q 1331 -91 842 396 
Q 353 884 353 1716 
Q 353 2575 817 3079 
Q 1281 3584 2069 3584 
Q 2775 3584 3186 3129 
Q 3597 2675 3597 1894 
z
M 3022 2063 
Q 3016 2534 2758 2815 
Q 2500 3097 2075 3097 
Q 1594 3097 1305 2825 
Q 1016 2553 972 2059 
L 3022 2063 
z
" transform="scale(0.015625)"/>
      </defs>
      <use xlink:href="#DejaVuSans-45"/>
      <use xlink:href="#DejaVuSans-70" transform="translate(63.183594 0)"/>
      <use xlink:href="#DejaVuSans-69" transform="translate(126.660156 0)"/>
      <use xlink:href="#DejaVuSans-73" transform="translate(154.443359 0)"/>
      <use xlink:href="#DejaVuSans-6f" transform="translate(206.542969 0)"/>
      <use xlink:href="#DejaVuSans-64" transform="translate(267.724609 0)"/>
      <use xlink:href="#DejaVuSans-65" transform="translate(331.201172 0)"/>
     </g>
    </g>
   </g>
   <g id="matplotlib.axis_2">
    <g id="ytick_1">
     <g id="line2d_17">
      <path d="M 50.87 390.04 
L 564.289615 390.04 
" clip-path="url(#p8f90060488)" style="fill: none; stroke: #ffffff; stroke-width: 0.8; stroke-linecap: round"/>
     </g>
     <g id="text_18">
      <!-- 0 -->
      <g style="fill: #262626" transform="translate(37.5075 393.839219) scale(0.1 -0.1)">
       <use xlink:href="#DejaVuSans-30"/>
      </g>
     </g>
    </g>
    <g id="ytick_2">
     <g id="line2d_18">
      <path d="M 50.87 355.120769 
L 564.289615 355.120769 
" clip-path="url(#p8f90060488)" style="fill: none; stroke: #ffffff; stroke-width: 0.8; stroke-linecap: round"/>
     </g>
     <g id="text_19">
      <!-- 50 -->
      <g style="fill: #262626" transform="translate(31.145 358.919988) scale(0.1 -0.1)">
       <use xlink:href="#DejaVuSans-35"/>
       <use xlink:href="#DejaVuSans-30" transform="translate(63.623047 0)"/>
      </g>
     </g>
    </g>
    <g id="ytick_3">
     <g id="line2d_19">
      <path d="M 50.87 320.201538 
L 564.289615 320.201538 
" clip-path="url(#p8f90060488)" style="fill: none; stroke: #ffffff; stroke-width: 0.8; stroke-linecap: round"/>
     </g>
     <g id="text_20">
      <!-- 100 -->
      <g style="fill: #262626" transform="translate(24.7825 324.000757) scale(0.1 -0.1)">
       <use xlink:href="#DejaVuSans-31"/>
       <use xlink:href="#DejaVuSans-30" transform="translate(63.623047 0)"/>
       <use xlink:href="#DejaVuSans-30" transform="translate(127.246094 0)"/>
      </g>
     </g>
    </g>
    <g id="ytick_4">
     <g id="line2d_20">
      <path d="M 50.87 285.282308 
L 564.289615 285.282308 
" clip-path="url(#p8f90060488)" style="fill: none; stroke: #ffffff; stroke-width: 0.8; stroke-linecap: round"/>
     </g>
     <g id="text_21">
      <!-- 150 -->
      <g style="fill: #262626" transform="translate(24.7825 289.081526) scale(0.1 -0.1)">
       <use xlink:href="#DejaVuSans-31"/>
       <use xlink:href="#DejaVuSans-35" transform="translate(63.623047 0)"/>
       <use xlink:href="#DejaVuSans-30" transform="translate(127.246094 0)"/>
      </g>
     </g>
    </g>
    <g id="ytick_5">
     <g id="line2d_21">
      <path d="M 50.87 250.363077 
L 564.289615 250.363077 
" clip-path="url(#p8f90060488)" style="fill: none; stroke: #ffffff; stroke-width: 0.8; stroke-linecap: round"/>
     </g>
     <g id="text_22">
      <!-- 200 -->
      <g style="fill: #262626" transform="translate(24.7825 254.162296) scale(0.1 -0.1)">
       <use xlink:href="#DejaVuSans-32"/>
       <use xlink:href="#DejaVuSans-30" transform="translate(63.623047 0)"/>
       <use xlink:href="#DejaVuSans-30" transform="translate(127.246094 0)"/>
      </g>
     </g>
    </g>
    <g id="ytick_6">
     <g id="line2d_22">
      <path d="M 50.87 215.443846 
L 564.289615 215.443846 
" clip-path="url(#p8f90060488)" style="fill: none; stroke: #ffffff; stroke-width: 0.8; stroke-linecap: round"/>
     </g>
     <g id="text_23">
      <!-- 250 -->
      <g style="fill: #262626" transform="translate(24.7825 219.243065) scale(0.1 -0.1)">
       <use xlink:href="#DejaVuSans-32"/>
       <use xlink:href="#DejaVuSans-35" transform="translate(63.623047 0)"/>
       <use xlink:href="#DejaVuSans-30" transform="translate(127.246094 0)"/>
      </g>
     </g>
    </g>
    <g id="ytick_7">
     <g id="line2d_23">
      <path d="M 50.87 180.524615 
L 564.289615 180.524615 
" clip-path="url(#p8f90060488)" style="fill: none; stroke: #ffffff; stroke-width: 0.8; stroke-linecap: round"/>
     </g>
     <g id="text_24">
      <!-- 300 -->
      <g style="fill: #262626" transform="translate(24.7825 184.323834) scale(0.1 -0.1)">
       <use xlink:href="#DejaVuSans-33"/>
       <use xlink:href="#DejaVuSans-30" transform="translate(63.623047 0)"/>
       <use xlink:href="#DejaVuSans-30" transform="translate(127.246094 0)"/>
      </g>
     </g>
    </g>
    <g id="ytick_8">
     <g id="line2d_24">
      <path d="M 50.87 145.605385 
L 564.289615 145.605385 
" clip-path="url(#p8f90060488)" style="fill: none; stroke: #ffffff; stroke-width: 0.8; stroke-linecap: round"/>
     </g>
     <g id="text_25">
      <!-- 350 -->
      <g style="fill: #262626" transform="translate(24.7825 149.404603) scale(0.1 -0.1)">
       <use xlink:href="#DejaVuSans-33"/>
       <use xlink:href="#DejaVuSans-35" transform="translate(63.623047 0)"/>
       <use xlink:href="#DejaVuSans-30" transform="translate(127.246094 0)"/>
      </g>
     </g>
    </g>
    <g id="ytick_9">
     <g id="line2d_25">
      <path d="M 50.87 110.686154 
L 564.289615 110.686154 
" clip-path="url(#p8f90060488)" style="fill: none; stroke: #ffffff; stroke-width: 0.8; stroke-linecap: round"/>
     </g>
     <g id="text_26">
      <!-- 400 -->
      <g style="fill: #262626" transform="translate(24.7825 114.485373) scale(0.1 -0.1)">
       <use xlink:href="#DejaVuSans-34"/>
       <use xlink:href="#DejaVuSans-30" transform="translate(63.623047 0)"/>
       <use xlink:href="#DejaVuSans-30" transform="translate(127.246094 0)"/>
      </g>
     </g>
    </g>
    <g id="ytick_10">
     <g id="line2d_26">
      <path d="M 50.87 75.766923 
L 564.289615 75.766923 
" clip-path="url(#p8f90060488)" style="fill: none; stroke: #ffffff; stroke-width: 0.8; stroke-linecap: round"/>
     </g>
     <g id="text_27">
      <!-- 450 -->
      <g style="fill: #262626" transform="translate(24.7825 79.566142) scale(0.1 -0.1)">
       <use xlink:href="#DejaVuSans-34"/>
       <use xlink:href="#DejaVuSans-35" transform="translate(63.623047 0)"/>
       <use xlink:href="#DejaVuSans-30" transform="translate(127.246094 0)"/>
      </g>
     </g>
    </g>
    <g id="ytick_11">
     <g id="line2d_27">
      <path d="M 50.87 40.847692 
L 564.289615 40.847692 
" clip-path="url(#p8f90060488)" style="fill: none; stroke: #ffffff; stroke-width: 0.8; stroke-linecap: round"/>
     </g>
     <g id="text_28">
      <!-- 500 -->
      <g style="fill: #262626" transform="translate(24.7825 44.646911) scale(0.1 -0.1)">
       <use xlink:href="#DejaVuSans-35"/>
       <use xlink:href="#DejaVuSans-30" transform="translate(63.623047 0)"/>
       <use xlink:href="#DejaVuSans-30" transform="translate(127.246094 0)"/>
      </g>
     </g>
    </g>
    <g id="text_29">
     <!-- Reward -->
     <g style="fill: #262626" transform="translate(18.702813 227.081094) rotate(-90) scale(0.1 -0.1)">
      <defs>
       <path id="DejaVuSans-52" d="M 2841 2188 
Q 3044 2119 3236 1894 
Q 3428 1669 3622 1275 
L 4263 0 
L 3584 0 
L 2988 1197 
Q 2756 1666 2539 1819 
Q 2322 1972 1947 1972 
L 1259 1972 
L 1259 0 
L 628 0 
L 628 4666 
L 2053 4666 
Q 2853 4666 3247 4331 
Q 3641 3997 3641 3322 
Q 3641 2881 3436 2590 
Q 3231 2300 2841 2188 
z
M 1259 4147 
L 1259 2491 
L 2053 2491 
Q 2509 2491 2742 2702 
Q 2975 2913 2975 3322 
Q 2975 3731 2742 3939 
Q 2509 4147 2053 4147 
L 1259 4147 
z
" transform="scale(0.015625)"/>
       <path id="DejaVuSans-77" d="M 269 3500 
L 844 3500 
L 1563 769 
L 2278 3500 
L 2956 3500 
L 3675 769 
L 4391 3500 
L 4966 3500 
L 4050 0 
L 3372 0 
L 2619 2869 
L 1863 0 
L 1184 0 
L 269 3500 
z
" transform="scale(0.015625)"/>
       <path id="DejaVuSans-61" d="M 2194 1759 
Q 1497 1759 1228 1600 
Q 959 1441 959 1056 
Q 959 750 1161 570 
Q 1363 391 1709 391 
Q 2188 391 2477 730 
Q 2766 1069 2766 1631 
L 2766 1759 
L 2194 1759 
z
M 3341 1997 
L 3341 0 
L 2766 0 
L 2766 531 
Q 2569 213 2275 61 
Q 1981 -91 1556 -91 
Q 1019 -91 701 211 
Q 384 513 384 1019 
Q 384 1609 779 1909 
Q 1175 2209 1959 2209 
L 2766 2209 
L 2766 2266 
Q 2766 2663 2505 2880 
Q 2244 3097 1772 3097 
Q 1472 3097 1187 3025 
Q 903 2953 641 2809 
L 641 3341 
Q 956 3463 1253 3523 
Q 1550 3584 1831 3584 
Q 2591 3584 2966 3190 
Q 3341 2797 3341 1997 
z
" transform="scale(0.015625)"/>
       <path id="DejaVuSans-72" d="M 2631 2963 
Q 2534 3019 2420 3045 
Q 2306 3072 2169 3072 
Q 1681 3072 1420 2755 
Q 1159 2438 1159 1844 
L 1159 0 
L 581 0 
L 581 3500 
L 1159 3500 
L 1159 2956 
Q 1341 3275 1631 3429 
Q 1922 3584 2338 3584 
Q 2397 3584 2469 3576 
Q 2541 3569 2628 3553 
L 2631 2963 
z
" transform="scale(0.015625)"/>
      </defs>
      <use xlink:href="#DejaVuSans-52"/>
      <use xlink:href="#DejaVuSans-65" transform="translate(64.982422 0)"/>
      <use xlink:href="#DejaVuSans-77" transform="translate(126.505859 0)"/>
      <use xlink:href="#DejaVuSans-61" transform="translate(208.292969 0)"/>
      <use xlink:href="#DejaVuSans-72" transform="translate(269.572266 0)"/>
      <use xlink:href="#DejaVuSans-64" transform="translate(308.935547 0)"/>
     </g>
    </g>
   </g>
   <g id="FillBetweenPolyCollection_1">
    <path d="M 60.743454 373.458884 
L 60.743454 375.419872 
L 64.034606 373.431632 
L 67.325757 371.79336 
L 70.616908 368.257752 
L 73.90806 363.304038 
L 77.199211 360.290291 
L 80.490362 357.244334 
L 83.781514 349.94697 
L 87.072665 343.622734 
L 90.363817 332.963581 
L 93.654968 327.965028 
L 96.946119 305.475614 
L 100.237271 290.885738 
L 103.528422 277.199123 
L 106.819573 278.927169 
L 110.110725 266.57975 
L 113.401876 262.777645 
L 116.693028 254.637564 
L 119.984179 240.608812 
L 123.27533 244.823564 
L 126.566482 237.415969 
L 129.857633 254.051201 
L 133.148785 228.462116 
L 136.439936 216.821923 
L 139.731087 226.927682 
L 143.022239 240.81324 
L 146.31339 221.316966 
L 149.604541 211.24046 
L 152.895693 198.462656 
L 156.186844 224.243495 
L 159.477996 213.391206 
L 162.769147 228.956977 
L 166.060298 229.744067 
L 169.35145 227.512302 
L 172.642601 234.54086 
L 175.933752 241.301122 
L 179.224904 245.774008 
L 182.516055 254.524959 
L 185.807207 229.595053 
L 189.098358 242.005347 
L 192.389509 236.462673 
L 195.680661 233.247409 
L 198.971812 216.520214 
L 202.262964 221.007055 
L 205.554115 227.341791 
L 208.845266 207.528692 
L 212.136418 208.110796 
L 215.427569 177.278564 
L 218.71872 210.100091 
L 222.009872 209.328431 
L 225.301023 239.777268 
L 228.592175 250.502881 
L 231.883326 241.534599 
L 235.174477 227.424012 
L 238.465629 212.381371 
L 241.75678 252.393693 
L 245.047931 275.950113 
L 248.339083 271.79353 
L 251.630234 275.096848 
L 254.921386 262.469161 
L 258.212537 272.266834 
L 261.503688 264.063777 
L 264.79484 265.99822 
L 268.085991 258.267694 
L 271.377143 262.558316 
L 274.668294 263.631437 
L 277.959445 238.730468 
L 281.250597 204.771536 
L 284.541748 246.986551 
L 287.832899 264.489589 
L 291.124051 282.04021 
L 294.415202 281.610483 
L 297.706354 270.641589 
L 300.997505 249.611695 
L 304.288656 269.781883 
L 307.579808 260.507933 
L 310.870959 259.467985 
L 314.16211 251.851599 
L 317.453262 218.276606 
L 320.744413 225.882409 
L 324.035565 226.349705 
L 327.326716 221.582929 
L 330.617867 243.945854 
L 333.909019 256.06644 
L 337.20017 273.810768 
L 340.491321 286.068644 
L 343.782473 289.496835 
L 347.073624 269.188446 
L 350.364776 262.742364 
L 353.655927 246.469747 
L 356.947078 243.715368 
L 360.23823 249.150883 
L 363.529381 229.827168 
L 366.820533 206.445972 
L 370.111684 215.732636 
L 373.402835 232.279094 
L 376.693987 247.183378 
L 379.985138 226.162125 
L 383.276289 239.4842 
L 386.567441 230.68068 
L 389.858592 215.70688 
L 393.149744 213.01962 
L 396.440895 215.284178 
L 399.732046 200.555733 
L 403.023198 191.622068 
L 406.314349 217.992484 
L 409.6055 195.679296 
L 412.896652 184.330787 
L 416.187803 196.24886 
L 419.478955 194.121159 
L 422.770106 194.469056 
L 426.061257 216.624534 
L 429.352409 214.827403 
L 432.64356 229.99498 
L 435.934712 193.095589 
L 439.225863 186.888608 
L 442.517014 179.47305 
L 445.808166 186.695328 
L 449.099317 203.914661 
L 452.390468 224.240626 
L 455.68162 194.050828 
L 458.972771 173.064052 
L 462.263923 162.498611 
L 465.555074 154.535986 
L 468.846225 158.904242 
L 472.137377 122.394482 
L 475.428528 129.912506 
L 478.719679 169.548857 
L 482.010831 192.133351 
L 485.301982 125.196317 
L 488.593134 160.969066 
L 491.884285 133.648084 
L 495.175436 143.661617 
L 498.466588 121.322161 
L 501.757739 144.454526 
L 505.048891 152.131348 
L 508.340042 162.239034 
L 511.631193 174.407907 
L 514.922345 171.458176 
L 518.213496 179.899391 
L 521.504647 176.743643 
L 524.795799 195.897975 
L 528.08695 201.651255 
L 531.378102 171.522438 
L 534.669253 163.253975 
L 537.960404 143.870288 
L 541.251556 138.71699 
L 544.542707 78.559585 
L 547.833858 54.151919 
L 551.12501 69.341785 
L 551.12501 31.349662 
L 551.12501 31.349662 
L 547.833858 36.41295 
L 544.542707 43.0834 
L 541.251556 16.705588 
L 537.960404 12.547262 
L 534.669253 0.045598 
L 531.378102 -2.710556 
L 528.08695 13.271341 
L 524.795799 11.471721 
L 521.504647 31.057864 
L 518.213496 3.821672 
L 514.922345 39.027092 
L 511.631193 0.994065 
L 508.340042 8.116277 
L 505.048891 34.715818 
L 501.757739 24.454132 
L 498.466588 28.932372 
L 495.175436 35.058193 
L 491.884285 43.10697 
L 488.593134 31.389241 
L 485.301982 43.114279 
L 482.010831 44.947417 
L 478.719679 40.222506 
L 475.428528 51.428607 
L 472.137377 15.69546 
L 468.846225 27.483294 
L 465.555074 8.102176 
L 462.263923 10.438669 
L 458.972771 0.091782 
L 455.68162 32.076844 
L 452.390468 48.194225 
L 449.099317 36.92861 
L 445.808166 12.598916 
L 442.517014 13.461036 
L 439.225863 21.48231 
L 435.934712 45.175964 
L 432.64356 61.583827 
L 429.352409 27.850927 
L 426.061257 20.138012 
L 422.770106 14.640529 
L 419.478955 8.720677 
L 416.187803 17.410488 
L 412.896652 7.065855 
L 409.6055 32.108627 
L 406.314349 72.194156 
L 403.023198 3.328022 
L 399.732046 14.893238 
L 396.440895 50.530223 
L 393.149744 43.719771 
L 389.858592 45.358247 
L 386.567441 53.633153 
L 383.276289 82.919362 
L 379.985138 58.90383 
L 376.693987 53.668847 
L 373.402835 57.880449 
L 370.111684 46.445287 
L 366.820533 37.7467 
L 363.529381 75.507666 
L 360.23823 71.346899 
L 356.947078 102.728541 
L 353.655927 89.465715 
L 350.364776 118.574304 
L 347.073624 126.751825 
L 343.782473 139.109715 
L 340.491321 172.002521 
L 337.20017 155.21124 
L 333.909019 101.751987 
L 330.617867 89.647267 
L 327.326716 60.515449 
L 324.035565 82.242728 
L 320.744413 68.910462 
L 317.453262 40.3848 
L 314.16211 88.146608 
L 310.870959 122.421043 
L 307.579808 76.264155 
L 304.288656 108.993544 
L 300.997505 110.034725 
L 297.706354 144.945213 
L 294.415202 139.790043 
L 291.124051 226.138415 
L 287.832899 198.166074 
L 284.541748 175.36002 
L 281.250597 80.216806 
L 277.959445 131.360598 
L 274.668294 156.766107 
L 271.377143 176.787624 
L 268.085991 161.212091 
L 264.79484 136.413338 
L 261.503688 167.289804 
L 258.212537 132.320027 
L 254.921386 175.496529 
L 251.630234 225.743231 
L 248.339083 224.8492 
L 245.047931 191.036434 
L 241.75678 164.696741 
L 238.465629 151.987855 
L 235.174477 150.510606 
L 231.883326 88.404702 
L 228.592175 167.746766 
L 225.301023 161.526675 
L 222.009872 149.323339 
L 218.71872 148.684963 
L 215.427569 126.194287 
L 212.136418 120.6581 
L 208.845266 109.136856 
L 205.554115 141.559566 
L 202.262964 173.775423 
L 198.971812 140.362976 
L 195.680661 174.296683 
L 192.389509 195.021368 
L 189.098358 195.508519 
L 185.807207 196.13883 
L 182.516055 129.283523 
L 179.224904 183.818569 
L 175.933752 164.842724 
L 172.642601 157.051409 
L 169.35145 183.089851 
L 166.060298 166.050857 
L 162.769147 153.105871 
L 159.477996 134.777535 
L 156.186844 178.670133 
L 152.895693 142.10113 
L 149.604541 173.550982 
L 146.31339 164.018152 
L 143.022239 196.382187 
L 139.731087 206.102337 
L 136.439936 172.223219 
L 133.148785 188.713958 
L 129.857633 193.024636 
L 126.566482 167.614057 
L 123.27533 225.833252 
L 119.984179 184.939681 
L 116.693028 223.201998 
L 113.401876 217.987067 
L 110.110725 226.135822 
L 106.819573 249.401977 
L 103.528422 251.992225 
L 100.237271 242.555383 
L 96.946119 272.794285 
L 93.654968 264.858515 
L 90.363817 298.678738 
L 87.072665 308.331658 
L 83.781514 325.084483 
L 80.490362 340.309572 
L 77.199211 351.604246 
L 73.90806 358.619372 
L 70.616908 364.89269 
L 67.325757 368.854778 
L 64.034606 371.319101 
L 60.743454 373.458884 
z
" clip-path="url(#p8f90060488)" style="fill: #0000ff; fill-opacity: 0.1"/>
   </g>
   <g id="line2d_28">
    <path d="M 60.743454 374.439378 
L 67.325757 370.324069 
L 70.616908 366.575221 
L 73.90806 360.961705 
L 77.199211 355.947268 
L 80.490362 348.776953 
L 87.072665 325.977196 
L 90.363817 315.821159 
L 93.654968 296.411771 
L 96.946119 289.134949 
L 100.237271 266.720561 
L 103.528422 264.595674 
L 106.819573 264.164573 
L 110.110725 246.357786 
L 113.401876 240.382356 
L 116.693028 238.919781 
L 119.984179 212.774247 
L 123.27533 235.328408 
L 126.566482 202.515013 
L 129.857633 223.537918 
L 133.148785 208.588037 
L 136.439936 194.522571 
L 139.731087 216.51501 
L 143.022239 218.597713 
L 146.31339 192.667559 
L 149.604541 192.395721 
L 152.895693 170.281893 
L 156.186844 201.456814 
L 159.477996 174.08437 
L 162.769147 191.031424 
L 166.060298 197.897462 
L 169.35145 205.301077 
L 172.642601 195.796135 
L 175.933752 203.071923 
L 179.224904 214.796288 
L 182.516055 191.904241 
L 185.807207 212.866941 
L 189.098358 218.756933 
L 192.389509 215.74202 
L 195.680661 203.772046 
L 198.971812 178.441595 
L 202.262964 197.391239 
L 205.554115 184.450678 
L 208.845266 158.332774 
L 212.136418 164.384448 
L 215.427569 151.736426 
L 218.71872 179.392527 
L 222.009872 179.325885 
L 225.301023 200.651972 
L 228.592175 209.124823 
L 231.883326 164.96965 
L 235.174477 188.967309 
L 238.465629 182.184613 
L 241.75678 208.545217 
L 245.047931 233.493274 
L 248.339083 248.321365 
L 251.630234 250.420039 
L 254.921386 218.982845 
L 258.212537 202.29343 
L 261.503688 215.67679 
L 264.79484 201.205779 
L 268.085991 209.739893 
L 271.377143 219.67297 
L 274.668294 210.198772 
L 277.959445 185.045533 
L 281.250597 142.494171 
L 284.541748 211.173285 
L 287.832899 231.327832 
L 291.124051 254.089313 
L 294.415202 210.700263 
L 297.706354 207.793401 
L 300.997505 179.82321 
L 304.288656 189.387713 
L 307.579808 168.386044 
L 310.870959 190.944514 
L 314.16211 169.999104 
L 317.453262 129.330703 
L 320.744413 147.396435 
L 324.035565 154.296217 
L 327.326716 141.049189 
L 330.617867 166.796561 
L 333.909019 178.909214 
L 337.20017 214.511004 
L 340.491321 229.035583 
L 343.782473 214.303275 
L 347.073624 197.970135 
L 350.364776 190.658334 
L 353.655927 167.967731 
L 356.947078 173.221954 
L 360.23823 160.248891 
L 363.529381 152.667417 
L 366.820533 122.096336 
L 370.111684 131.088962 
L 373.402835 145.079772 
L 376.693987 150.426112 
L 379.985138 142.532977 
L 383.276289 161.201781 
L 386.567441 142.156917 
L 389.858592 130.532563 
L 393.149744 128.369696 
L 396.440895 132.9072 
L 399.732046 107.724486 
L 403.023198 97.475045 
L 406.314349 145.09332 
L 409.6055 113.893961 
L 412.896652 95.698321 
L 416.187803 106.829674 
L 419.478955 101.420918 
L 422.770106 104.554792 
L 426.061257 118.381273 
L 429.352409 121.339165 
L 432.64356 145.789403 
L 435.934712 119.135776 
L 439.225863 104.185459 
L 442.517014 96.467043 
L 445.808166 99.647122 
L 449.099317 120.421635 
L 452.390468 136.217425 
L 455.68162 113.063836 
L 458.972771 86.577917 
L 462.263923 86.46864 
L 465.555074 81.319081 
L 468.846225 93.193768 
L 472.137377 69.044971 
L 475.428528 90.670557 
L 478.719679 104.885682 
L 482.010831 118.540384 
L 485.301982 84.155298 
L 488.593134 96.179153 
L 491.884285 88.377527 
L 495.175436 89.359905 
L 498.466588 75.127266 
L 501.757739 84.454329 
L 505.048891 93.423583 
L 508.340042 85.177656 
L 511.631193 87.700986 
L 514.922345 105.242634 
L 518.213496 91.860531 
L 521.504647 103.900754 
L 524.795799 103.684848 
L 528.08695 107.461298 
L 531.378102 84.405941 
L 534.669253 81.649786 
L 537.960404 78.208775 
L 541.251556 77.711289 
L 544.542707 60.821492 
L 547.833858 45.282435 
L 551.12501 50.345723 
L 551.12501 50.345723 
" clip-path="url(#p8f90060488)" style="fill: none; stroke: #0000ff; stroke-width: 1.5; stroke-linecap: round"/>
   </g>
   <g id="line2d_29">
    <path d="M 60.743454 376.379174 
L 64.034606 374.380844 
L 67.325757 372.125516 
L 70.616908 368.262594 
L 73.90806 362.104615 
L 77.199211 362.558565 
L 80.490362 355.492062 
L 83.781514 350.039768 
L 87.072665 348.502232 
L 90.363817 337.346196 
L 93.654968 319.20115 
L 96.946119 285.340506 
L 100.237271 288.344456 
L 103.528422 270.682744 
L 106.819573 259.919919 
L 110.110725 225.370885 
L 113.401876 212.101577 
L 116.693028 226.478323 
L 119.984179 238.010399 
L 123.27533 240.978534 
L 126.566482 247.091696 
L 129.857633 234.649423 
L 133.148785 224.610144 
L 136.439936 219.168564 
L 139.731087 234.952056 
L 143.022239 225.520538 
L 146.31339 227.166731 
L 149.604541 219.494477 
L 152.895693 207.711731 
L 156.186844 219.634154 
L 159.477996 159.890524 
L 162.769147 205.61274 
L 166.060298 196.529263 
L 169.35145 228.466665 
L 172.642601 235.327267 
L 175.933752 259.736134 
L 179.224904 243.641125 
L 182.516055 262.867487 
L 185.807207 227.223267 
L 189.098358 230.72101 
L 192.389509 220.831385 
L 195.680661 190.428979 
L 198.971812 150.075046 
L 202.262964 194.301839 
L 205.554115 142.889444 
L 208.845266 133.11206 
L 212.136418 127.21459 
L 215.427569 200.777769 
L 218.71872 130.628915 
L 222.009872 120.929128 
L 225.301023 138.342185 
L 228.592175 148.189408 
L 231.883326 50.188587 
L 235.174477 184.714923 
L 238.465629 189.925947 
L 241.75678 175.926917 
L 245.047931 252.862559 
L 248.339083 264.763103 
L 251.630234 245.66838 
L 254.921386 183.381643 
L 258.212537 128.233067 
L 261.503688 199.273556 
L 264.79484 162.436454 
L 268.085991 231.180779 
L 271.377143 267.224077 
L 274.668294 239.764063 
L 277.959445 174.549547 
L 281.250597 73.235279 
L 284.541748 222.660487 
L 287.832899 235.347808 
L 291.124051 241.325158 
L 294.415202 213.348692 
L 297.706354 187.042872 
L 300.997505 131.870487 
L 304.288656 82.576173 
L 307.579808 117.437205 
L 310.870959 112.868606 
L 314.16211 108.940192 
L 317.453262 79.608038 
L 320.744413 114.527269 
L 324.035565 90.956788 
L 327.326716 69.394163 
L 330.617867 55.339173 
L 333.909019 194.492308 
L 337.20017 229.586135 
L 340.491321 262.934 
L 343.782473 254.239112 
L 347.073624 213.671024 
L 350.364776 179.197685 
L 353.655927 103.935103 
L 356.947078 143.898222 
L 360.23823 223.265754 
L 363.529381 166.747392 
L 366.820533 96.631163 
L 370.111684 85.45701 
L 373.402835 103.527712 
L 376.693987 183.635601 
L 379.985138 98.639019 
L 383.276289 190.087112 
L 386.567441 160.690492 
L 393.149744 71.314721 
L 396.440895 111.229342 
L 399.732046 84.845923 
L 403.023198 57.259731 
L 406.314349 151.968444 
L 409.6055 102.742029 
L 412.896652 45.038 
L 416.187803 55.775663 
L 419.478955 89.560019 
L 422.770106 73.846365 
L 426.061257 172.651916 
L 429.352409 169.858378 
L 432.64356 205.616577 
L 435.934712 111.151744 
L 439.225863 136.681581 
L 442.517014 45.212596 
L 445.808166 64.854663 
L 449.099317 145.395869 
L 452.390468 203.571308 
L 455.68162 109.289385 
L 458.972771 50.974269 
L 462.263923 54.55349 
L 465.555074 56.82324 
L 468.846225 41.196885 
L 472.137377 40.847692 
L 475.428528 54.728087 
L 478.719679 207.237827 
L 482.010831 221.682749 
L 485.301982 138.272346 
L 488.593134 214.978256 
L 491.884285 159.509587 
L 495.175436 195.674189 
L 498.466588 165.541091 
L 501.757739 203.272 
L 505.048891 207.961154 
L 508.340042 238.141346 
L 511.631193 260.971872 
L 514.922345 237.006471 
L 518.213496 267.190821 
L 521.504647 240.462448 
L 524.795799 281.179298 
L 528.08695 293.688789 
L 531.378102 258.638935 
L 534.669253 244.858163 
L 537.960404 208.709423 
L 541.251556 199.063552 
L 544.542707 85.980798 
L 547.833858 40.847692 
L 551.12501 88.337846 
L 551.12501 88.337846 
" clip-path="url(#p8f90060488)" style="fill: none; stroke: #008000; stroke-opacity: 0.2; stroke-linecap: round"/>
   </g>
   <g id="line2d_30">
    <path d="M 60.743454 374.002096 
L 64.034606 371.77957 
L 67.325757 370.339525 
L 70.616908 368.684708 
L 73.90806 361.990593 
L 77.199211 356.4477 
L 80.490362 346.474103 
L 83.781514 332.496018 
L 87.072665 322.191935 
L 90.363817 301.730469 
L 93.654968 295.732211 
L 96.946119 267.854437 
L 100.237271 228.800452 
L 103.528422 253.156615 
L 106.819573 255.391446 
L 110.110725 259.480876 
L 113.401876 228.852831 
L 116.693028 230.957962 
L 119.984179 197.769343 
L 123.27533 222.471341 
L 126.566482 205.841058 
L 129.857633 251.636602 
L 133.148785 224.755641 
L 136.439936 177.323686 
L 139.731087 206.740899 
L 143.022239 246.460339 
L 146.31339 191.233179 
L 149.604541 162.436454 
L 152.895693 174.41375 
L 156.186844 234.125635 
L 159.477996 215.152853 
L 162.769147 244.776 
L 166.060298 257.696115 
L 169.35145 211.054 
L 172.642601 238.983516 
L 175.933752 170.281641 
L 179.224904 212.603749 
L 182.516055 220.171373 
L 185.807207 238.010399 
L 189.098358 226.867423 
L 192.389509 230.109923 
L 195.680661 213.022779 
L 198.971812 146.557727 
L 202.262964 184.270497 
L 205.554115 175.694122 
L 208.845266 154.620895 
L 212.136418 156.313949 
L 215.427569 133.034462 
L 218.71872 197.402244 
L 222.009872 206.418568 
L 225.301023 232.423322 
L 228.592175 197.447012 
L 231.883326 108.203009 
L 235.174477 201.359756 
L 238.465629 131.715291 
L 241.75678 154.754223 
L 245.047931 219.680713 
L 248.339083 228.538558 
L 251.630234 219.733923 
L 254.921386 198.843781 
L 258.212537 121.782709 
L 261.503688 137.147171 
L 264.79484 93.226538 
L 268.085991 120.725433 
L 271.377143 141.492675 
L 274.668294 119.066769 
L 277.959445 117.582702 
L 281.250597 103.003923 
L 284.541748 193.735724 
L 287.832899 219.308241 
L 291.124051 262.198858 
L 294.415202 217.585559 
L 297.706354 206.20368 
L 300.997505 129.123508 
L 304.288656 122.248299 
L 307.579808 69.132269 
L 310.870959 123.024282 
L 314.16211 200.133107 
L 317.453262 55.862962 
L 320.744413 108.435803 
L 324.035565 118.281087 
L 327.326716 93.313837 
L 330.617867 180.842063 
L 333.909019 97.591442 
L 337.20017 153.287615 
L 340.491321 173.731238 
L 343.782473 145.682983 
L 347.073624 161.947585 
L 350.364776 111.30694 
L 353.655927 131.792889 
L 356.947078 162.925323 
L 360.23823 60.838952 
L 363.529381 125.585026 
L 366.820533 70.529038 
L 370.111684 131.550394 
L 373.402835 174.68358 
L 376.693987 170.537715 
L 379.985138 132.491274 
L 383.276289 124.793523 
L 386.567441 75.592327 
L 389.858592 105.719863 
L 393.149744 83.972942 
L 396.440895 130.318521 
L 399.732046 75.679625 
L 403.023198 43.20474 
L 406.314349 105.186375 
L 409.6055 59.005692 
L 412.896652 40.847692 
L 416.187803 94.186817 
L 419.478955 40.847692 
L 422.770106 40.847692 
L 426.061257 50.01399 
L 429.352409 72.536894 
L 432.64356 105.40947 
L 435.934712 62.235721 
L 439.225863 40.847692 
L 442.517014 79.695337 
L 445.808166 40.847692 
L 449.099317 108.241808 
L 452.390468 84.496731 
L 455.68162 76.901798 
L 458.972771 40.847692 
L 465.555074 40.847692 
L 468.846225 45.561788 
L 472.137377 47.045856 
L 475.428528 51.323462 
L 478.719679 40.847692 
L 482.010831 45.125298 
L 485.301982 40.847692 
L 488.593134 40.847692 
L 491.884285 86.504587 
L 495.175436 61.450038 
L 498.466588 40.847692 
L 501.757739 40.847692 
L 505.048891 74.893942 
L 508.340042 40.847692 
L 511.631193 40.847692 
L 514.922345 66.426029 
L 518.213496 40.847692 
L 524.795799 40.847692 
L 528.08695 50.799673 
L 531.378102 40.847692 
L 551.12501 40.847692 
L 551.12501 40.847692 
" clip-path="url(#p8f90060488)" style="fill: none; stroke: #008000; stroke-opacity: 0.2; stroke-linecap: round"/>
   </g>
   <g id="line2d_31">
    <path d="M 60.743454 374.120939 
L 64.034606 371.928871 
L 67.325757 369.885871 
L 70.616908 364.332795 
L 73.90806 364.126605 
L 77.199211 358.247258 
L 80.490362 355.562785 
L 83.781514 345.094807 
L 87.072665 335.761548 
L 90.363817 325.206628 
L 93.654968 327.46149 
L 96.946119 310.356568 
L 100.237271 284.288453 
L 103.528422 285.718798 
L 106.819573 269.917846 
L 110.110725 261.921342 
L 113.401876 233.974318 
L 116.693028 266.425923 
L 119.984179 252.737585 
L 123.27533 245.901175 
L 126.566482 224.290051 
L 129.857633 237.181067 
L 133.148785 179.477038 
L 136.439936 211.812246 
L 139.731087 220.285979 
L 143.022239 217.213087 
L 146.31339 210.954231 
L 149.604541 183.667346 
L 152.895693 120.773932 
L 156.186844 196.909793 
L 159.477996 223.575038 
L 162.769147 183.318154 
L 166.060298 190.534795 
L 169.35145 163.953853 
L 172.642601 157.827115 
L 175.933752 220.532077 
L 179.224904 253.195415 
L 182.516055 231.260204 
L 185.807207 203.947361 
L 189.098358 237.05012 
L 192.389509 206.364846 
L 195.680661 195.000224 
L 198.971812 179.508783 
L 202.262964 232.0654 
L 205.554115 221.915544 
L 208.845266 125.701423 
L 212.136418 198.034115 
L 215.427569 147.312547 
L 218.71872 171.934485 
L 222.009872 194.201314 
L 225.301023 190.619448 
L 228.592175 206.149959 
L 231.883326 222.660487 
L 235.174477 199.148205 
L 238.465629 223.076192 
L 241.75678 266.394178 
L 245.047931 275.01909 
L 248.339083 278.328826 
L 251.630234 286.437328 
L 254.921386 287.014302 
L 258.212537 293.042137 
L 261.503688 280.131721 
L 264.79484 270.649487 
L 268.085991 255.950154 
L 271.377143 216.733172 
L 274.668294 194.37591 
L 277.959445 140.561496 
L 281.250597 101.694452 
L 284.541748 153.52041 
L 287.832899 180.778573 
L 291.124051 212.005645 
L 294.415202 81.354 
L 297.706354 111.733731 
L 300.997505 128.921752 
L 304.288656 188.636621 
L 307.579808 96.980356 
L 310.870959 181.642031 
L 314.16211 52.371038 
L 317.453262 52.982125 
L 320.744413 163.636406 
L 324.035565 158.049329 
L 327.326716 151.509909 
L 333.909019 91.131385 
L 337.20017 140.018308 
L 340.491321 147.491023 
L 343.782473 104.0515 
L 347.073624 85.389111 
L 350.364776 119.144368 
L 353.655927 91.044087 
L 356.947078 131.094504 
L 360.23823 85.8935 
L 363.529381 121.937906 
L 366.820533 93.488433 
L 370.111684 53.942404 
L 373.402835 108.823795 
L 376.693987 52.632933 
L 379.985138 107.281529 
L 383.276289 84.496731 
L 386.567441 45.910981 
L 389.858592 47.395048 
L 393.149744 77.949375 
L 396.440895 90.694894 
L 399.732046 46.87126 
L 403.023198 41.982567 
L 406.314349 58.22001 
L 409.6055 82.401577 
L 412.896652 40.847692 
L 416.187803 61.100846 
L 419.478955 47.918837 
L 422.770106 40.847692 
L 429.352409 40.847692 
L 432.64356 100.287983 
L 435.934712 76.8145 
L 439.225863 49.5775 
L 442.517014 56.299452 
L 445.808166 42.680952 
L 449.099317 40.847692 
L 452.390468 67.560904 
L 455.68162 40.847692 
L 458.972771 40.847692 
L 462.263923 58.22001 
L 465.555074 40.847692 
L 468.846225 135.059777 
L 472.137377 40.847692 
L 475.428528 91.596974 
L 478.719679 148.55412 
L 482.010831 191.645047 
L 485.301982 125.041838 
L 488.593134 111.074145 
L 491.884285 114.178077 
L 495.175436 67.473606 
L 498.466588 68.17199 
L 501.757739 63.283298 
L 505.048891 66.076837 
L 508.340042 40.847692 
L 511.631193 50.363183 
L 514.922345 65.378452 
L 518.213496 40.847692 
L 521.504647 115.031658 
L 524.795799 48.006135 
L 528.08695 80.91751 
L 531.378102 40.847692 
L 541.251556 40.847692 
L 544.542707 72.275 
L 547.833858 40.847692 
L 551.12501 40.847692 
L 551.12501 40.847692 
" clip-path="url(#p8f90060488)" style="fill: none; stroke: #008000; stroke-opacity: 0.2; stroke-linecap: round"/>
   </g>
   <g id="line2d_32">
    <path d="M 60.743454 374.006081 
L 64.034606 372.412591 
L 67.325757 371.424438 
L 70.616908 366.355129 
L 73.90806 358.93014 
L 77.199211 351.861641 
L 80.490362 353.161412 
L 83.781514 344.455608 
L 87.072665 328.033423 
L 90.363817 324.409753 
L 93.654968 302.090097 
L 96.946119 305.380265 
L 100.237271 284.857204 
L 103.528422 251.429032 
L 106.819573 246.172769 
L 110.110725 218.423621 
L 113.401876 278.75393 
L 116.693028 246.213851 
L 119.984179 196.480018 
L 123.27533 225.395827 
L 126.566482 192.074822 
L 129.857633 229.970246 
L 133.148785 224.435548 
L 136.439936 204.269692 
L 139.731087 213.049385 
L 143.022239 178.61993 
L 146.31339 141.903946 
L 149.604541 198.628893 
L 152.895693 168.334629 
L 156.186844 171.026585 
L 159.477996 120.541137 
L 162.769147 193.847645 
L 166.060298 164.144322 
L 169.35145 204.095096 
L 172.642601 202.013373 
L 175.933752 212.918917 
L 179.224904 168.652077 
L 182.516055 158.804854 
L 185.807207 194.957897 
L 189.098358 226.245528 
L 192.389509 180.905552 
L 195.680661 165.928377 
L 198.971812 165.160154 
L 202.262964 163.318958 
L 205.554115 245.227896 
L 208.845266 254.274031 
L 212.136418 228.975048 
L 215.427569 147.491023 
L 218.71872 223.265754 
L 222.009872 187.127524 
L 225.301023 190.619448 
L 228.592175 216.541308 
L 231.883326 182.503372 
L 235.174477 120.85153 
L 238.465629 194.899699 
L 241.75678 253.661004 
L 245.047931 262.934 
L 248.339083 255.445765 
L 251.630234 269.917846 
L 254.921386 252.070239 
L 258.212537 267.689667 
L 261.503688 248.966308 
L 264.79484 236.919173 
L 268.085991 243.091661 
L 271.377143 247.647137 
L 274.668294 218.470179 
L 277.959445 257.971794 
L 281.250597 226.990472 
L 284.541748 225.221231 
L 287.832899 237.486611 
L 291.124051 257.28041 
L 294.415202 246.327966 
L 297.706354 227.752875 
L 300.997505 201.176846 
L 304.288656 252.877262 
L 307.579808 266.321165 
L 310.870959 250.945064 
L 314.16211 199.595888 
L 317.453262 174.556601 
L 320.744413 60.315163 
L 324.035565 112.470915 
L 327.326716 98.115231 
L 330.617867 188.672436 
L 333.909019 214.2965 
L 337.20017 255.077173 
L 340.491321 273.187556 
L 343.782473 274.836903 
L 347.073624 230.435836 
L 350.364776 246.687368 
L 353.655927 212.949615 
L 356.947078 117.23351 
L 360.23823 131.948085 
L 363.529381 58.481904 
L 366.820533 61.188144 
L 370.111684 91.480577 
L 373.402835 40.847692 
L 376.693987 40.847692 
L 379.985138 69.394163 
L 383.276289 105.719863 
L 386.567441 128.456162 
L 389.858592 89.821913 
L 393.149744 113.402094 
L 396.440895 44.776106 
L 399.732046 40.847692 
L 403.023198 59.704077 
L 406.314349 133.645548 
L 409.6055 51.84725 
L 412.896652 81.441298 
L 416.187803 40.847692 
L 419.478955 45.299894 
L 422.770106 86.504587 
L 426.061257 40.847692 
L 432.64356 40.847692 
L 435.934712 81.877788 
L 439.225863 40.847692 
L 442.517014 40.847692 
L 445.808166 78.385865 
L 449.099317 40.847692 
L 452.390468 50.01399 
L 455.68162 69.219567 
L 458.972771 40.847692 
L 472.137377 40.847692 
L 475.428528 95.496288 
L 478.719679 40.847692 
L 482.010831 81.615894 
L 485.301982 75.766923 
L 488.593134 73.147981 
L 491.884285 40.847692 
L 495.175436 78.211269 
L 498.466588 44.950702 
L 501.757739 63.457894 
L 505.048891 40.847692 
L 511.631193 40.847692 
L 514.922345 73.409875 
L 518.213496 63.021404 
L 521.504647 71.576615 
L 524.795799 40.847692 
L 537.960404 40.847692 
L 541.251556 57.783519 
L 544.542707 40.847692 
L 551.12501 40.847692 
L 551.12501 40.847692 
" clip-path="url(#p8f90060488)" style="fill: none; stroke: #008000; stroke-opacity: 0.2; stroke-linecap: round"/>
   </g>
   <g id="line2d_33">
    <path d="M 60.743454 373.6886 
L 64.034606 371.374954 
L 67.325757 367.844996 
L 70.616908 365.24088 
L 73.90806 357.656571 
L 77.199211 350.621177 
L 83.781514 315.492431 
L 87.072665 295.396844 
L 90.363817 290.412749 
L 93.654968 237.573909 
L 96.946119 276.742969 
L 100.237271 247.312239 
L 103.528422 261.991181 
L 106.819573 289.420883 
L 110.110725 266.592205 
L 113.401876 248.229124 
L 116.693028 224.522846 
L 119.984179 178.873888 
L 123.27533 241.895163 
L 126.566482 143.277436 
L 129.857633 164.252254 
L 133.148785 189.661814 
L 136.439936 160.038667 
L 139.731087 207.546728 
L 143.022239 225.174672 
L 146.31339 192.079706 
L 149.604541 197.751436 
L 152.895693 180.175423 
L 156.186844 185.587904 
L 159.477996 151.2623 
L 162.769147 127.602581 
L 166.060298 180.582814 
L 169.35145 218.935769 
L 172.642601 144.829402 
L 175.933752 151.890846 
L 179.224904 195.889077 
L 182.516055 86.417288 
L 185.807207 200.195782 
L 189.098358 172.900583 
L 192.389509 240.498394 
L 195.680661 254.47987 
L 198.971812 250.906265 
L 202.262964 212.9995 
L 205.554115 136.526385 
L 212.136418 111.384538 
L 215.427569 130.066327 
L 218.71872 173.731238 
L 222.009872 187.952888 
L 225.301023 251.255457 
L 228.592175 277.296431 
L 231.883326 261.292796 
L 235.174477 238.762132 
L 238.465629 171.305938 
L 241.75678 191.989763 
L 245.047931 156.970007 
L 248.339083 214.530574 
L 251.630234 230.342718 
L 254.921386 173.604259 
L 258.212537 200.719571 
L 261.503688 212.865195 
L 264.79484 242.797244 
L 268.085991 197.751436 
L 271.377143 225.26779 
L 274.668294 279.316939 
L 277.959445 234.562125 
L 281.250597 207.546728 
L 284.541748 260.728575 
L 287.832899 283.717926 
L 291.124051 297.636491 
L 294.415202 294.885096 
L 297.706354 306.233846 
L 300.997505 308.023457 
L 304.288656 300.60021 
L 307.579808 292.059225 
L 310.870959 286.242587 
L 314.16211 288.955293 
L 317.453262 283.64379 
L 320.744413 290.067536 
L 324.035565 291.722966 
L 327.326716 292.912806 
L 330.617867 287.656815 
L 333.909019 297.034435 
L 337.20017 294.585788 
L 340.491321 287.834098 
L 343.782473 292.705877 
L 347.073624 298.407122 
L 350.364776 296.955308 
L 353.655927 300.11696 
L 356.947078 310.958213 
L 360.23823 299.298164 
L 363.529381 290.584858 
L 366.820533 288.6449 
L 373.402835 297.51608 
L 376.693987 304.47662 
L 379.985138 304.858901 
L 383.276289 300.911674 
L 386.567441 300.134621 
L 389.858592 294.41304 
L 393.149744 295.209346 
L 396.440895 287.517138 
L 399.732046 290.377929 
L 403.023198 285.224109 
L 406.314349 276.446224 
L 409.6055 273.473259 
L 412.896652 270.316923 
L 416.187803 282.237351 
L 419.478955 283.478147 
L 422.770106 280.727625 
L 426.061257 287.545074 
L 429.352409 282.605167 
L 432.64356 276.785295 
L 435.934712 263.599128 
L 439.225863 252.97283 
L 442.517014 260.280138 
L 445.808166 271.466438 
L 449.099317 266.775115 
L 452.390468 275.444194 
L 455.68162 269.060738 
L 458.972771 259.372238 
L 462.263923 237.874317 
L 465.555074 227.229087 
L 468.846225 203.302698 
L 472.137377 175.635923 
L 475.428528 160.207972 
L 478.719679 86.941077 
L 482.010831 52.632933 
L 485.301982 40.847692 
L 491.884285 40.847692 
L 495.175436 43.990423 
L 498.466588 56.124856 
L 501.757739 51.41076 
L 505.048891 77.338288 
L 508.340042 65.203856 
L 511.631193 45.47449 
L 514.922345 83.992342 
L 518.213496 47.395048 
L 521.504647 51.585356 
L 524.795799 107.543423 
L 528.08695 71.052827 
L 531.378102 40.847692 
L 534.669253 40.847692 
L 537.960404 59.791375 
L 541.251556 50.01399 
L 544.542707 64.156279 
L 547.833858 63.021404 
L 551.12501 40.847692 
L 551.12501 40.847692 
" clip-path="url(#p8f90060488)" style="fill: none; stroke: #008000; stroke-opacity: 0.2; stroke-linecap: round"/>
   </g>
   <g id="line2d_34">
    <path d="M 0 0 
" clip-path="url(#p8f90060488)" style="fill: none; stroke: #ff0000; stroke-linecap: round"/>
   </g>
   <g id="line2d_35">
    <path d="M 60.743454 40.847692 
L 64.034606 47.777635 
L 67.325757 65.766353 
L 70.616908 89.033438 
L 73.90806 119.10562 
L 77.199211 155.123299 
L 80.490362 177.238404 
L 83.781514 202.303743 
L 87.072665 214.769357 
L 90.363817 235.085901 
L 93.654968 249.849028 
L 96.946119 259.615616 
L 100.237271 264.842938 
L 103.528422 275.151905 
L 106.819573 284.263097 
L 110.110725 274.760235 
L 113.401876 281.730701 
L 116.693028 292.228713 
L 119.984179 299.089449 
L 123.27533 312.625291 
L 126.566482 306.076961 
L 129.857633 317.850252 
L 133.148785 321.287014 
L 136.439936 321.239334 
L 139.731087 340.167594 
L 143.022239 338.727868 
L 146.31339 328.934705 
L 149.604541 341.106142 
L 152.895693 336.134064 
L 156.186844 346.91528 
L 159.477996 338.787123 
L 162.769147 354.935076 
L 166.060298 360.413236 
L 169.35145 362.668089 
L 175.933752 360.787951 
L 179.224904 364.744157 
L 182.516055 364.092217 
L 185.807207 365.373411 
L 189.098358 362.816151 
L 192.389509 371.893066 
L 195.680661 364.810933 
L 198.971812 362.314198 
L 202.262964 363.485675 
L 205.554115 359.108052 
L 208.845266 365.259133 
L 212.136418 360.142883 
L 215.427569 361.133891 
L 218.71872 364.06598 
L 222.009872 357.419658 
L 225.301023 353.694187 
L 228.592175 354.051397 
L 231.883326 358.180944 
L 235.174477 359.027205 
L 238.465629 356.600206 
L 241.75678 354.452502 
L 245.047931 355.176525 
L 248.339083 349.770339 
L 251.630234 350.235638 
L 254.921386 351.998487 
L 258.212537 346.999423 
L 261.503688 360.596843 
L 264.79484 354.987357 
L 268.085991 351.837 
L 271.377143 348.268532 
L 274.668294 345.370486 
L 277.959445 351.757764 
L 281.250597 349.54465 
L 284.541748 353.630682 
L 287.832899 353.42523 
L 291.124051 349.338797 
L 294.415202 350.831062 
L 297.706354 357.476163 
L 300.997505 351.899481 
L 304.288656 361.383878 
L 307.579808 355.847691 
L 310.870959 363.268089 
L 314.16211 367.273039 
L 317.453262 360.111738 
L 320.744413 359.369189 
L 324.035565 363.754766 
L 327.326716 360.901573 
L 330.617867 361.467256 
L 333.909019 357.830646 
L 337.20017 362.100492 
L 340.491321 351.300586 
L 343.782473 351.034246 
L 347.073624 348.724004 
L 350.364776 348.053953 
L 353.655927 348.593042 
L 356.947078 356.600054 
L 360.23823 353.431124 
L 363.529381 350.948876 
L 366.820533 348.296427 
L 370.111684 359.715636 
L 373.402835 357.106421 
L 376.693987 359.531187 
L 379.985138 364.292748 
L 383.276289 362.273528 
L 386.567441 370.920028 
L 389.858592 375.826699 
L 393.149744 369.179292 
L 396.440895 370.713509 
L 399.732046 372.674613 
L 403.023198 366.00534 
L 406.314349 360.548479 
L 409.6055 361.732356 
L 412.896652 361.474009 
L 416.187803 368.482732 
L 419.478955 359.719531 
L 422.770106 367.863246 
L 426.061257 372.875108 
L 429.352409 369.818016 
L 432.64356 379.378701 
L 435.934712 380.587644 
L 439.225863 372.362895 
L 442.517014 366.372593 
L 445.808166 361.883719 
L 449.099317 372.743873 
L 452.390468 368.312571 
L 455.68162 360.885958 
L 458.972771 362.373095 
L 462.263923 369.859809 
L 465.555074 369.19689 
L 468.846225 364.002427 
L 472.137377 362.109279 
L 475.428528 359.04475 
L 478.719679 354.725459 
L 482.010831 353.640637 
L 485.301982 359.92839 
L 488.593134 368.641549 
L 491.884285 374.108922 
L 495.175436 361.85255 
L 498.466588 371.972442 
L 501.757739 374.177055 
L 505.048891 381.234098 
L 508.340042 382.182847 
L 511.631193 378.969386 
L 514.922345 383.306459 
L 518.213496 372.341569 
L 521.504647 374.959318 
L 524.795799 376.763404 
L 528.08695 383.987288 
L 531.378102 381.429217 
L 534.669253 381.380277 
L 537.960404 382.092363 
L 541.251556 387.048026 
L 544.542707 390.04 
L 547.833858 385.342117 
L 551.12501 389.787914 
L 551.12501 389.787914 
" clip-path="url(#p8f90060488)" style="fill: none; stroke: #800080; stroke-linecap: round"/>
   </g>
   <g id="patch_3">
    <path d="M 50.87 390.04 
L 50.87 26.88 
" style="fill: none; stroke: #ffffff; stroke-width: 0.8; stroke-linejoin: miter; stroke-linecap: square"/>
   </g>
   <g id="patch_4">
    <path d="M 564.289615 390.04 
L 564.289615 26.88 
" style="fill: none; stroke: #ffffff; stroke-width: 0.8; stroke-linejoin: miter; stroke-linecap: square"/>
   </g>
   <g id="patch_5">
    <path d="M 50.87 390.04 
L 564.289615 390.04 
" style="fill: none; stroke: #ffffff; stroke-width: 0.8; stroke-linejoin: miter; stroke-linecap: square"/>
   </g>
   <g id="patch_6">
    <path d="M 50.87 26.88 
L 564.289615 26.88 
" style="fill: none; stroke: #ffffff; stroke-width: 0.8; stroke-linejoin: miter; stroke-linecap: square"/>
   </g>
   <g id="text_30">
    <!-- cartpole_GNN_N_entropy_mlp -->
    <g style="fill: #262626" transform="translate(218.300745 20.88) scale(0.12 -0.12)">
     <defs>
      <path id="DejaVuSans-63" d="M 3122 3366 
L 3122 2828 
Q 2878 2963 2633 3030 
Q 2388 3097 2138 3097 
Q 1578 3097 1268 2742 
Q 959 2388 959 1747 
Q 959 1106 1268 751 
Q 1578 397 2138 397 
Q 2388 397 2633 464 
Q 2878 531 3122 666 
L 3122 134 
Q 2881 22 2623 -34 
Q 2366 -91 2075 -91 
Q 1284 -91 818 406 
Q 353 903 353 1747 
Q 353 2603 823 3093 
Q 1294 3584 2113 3584 
Q 2378 3584 2631 3529 
Q 2884 3475 3122 3366 
z
" transform="scale(0.015625)"/>
      <path id="DejaVuSans-74" d="M 1172 4494 
L 1172 3500 
L 2356 3500 
L 2356 3053 
L 1172 3053 
L 1172 1153 
Q 1172 725 1289 603 
Q 1406 481 1766 481 
L 2356 481 
L 2356 0 
L 1766 0 
Q 1100 0 847 248 
Q 594 497 594 1153 
L 594 3053 
L 172 3053 
L 172 3500 
L 594 3500 
L 594 4494 
L 1172 4494 
z
" transform="scale(0.015625)"/>
      <path id="DejaVuSans-6c" d="M 603 4863 
L 1178 4863 
L 1178 0 
L 603 0 
L 603 4863 
z
" transform="scale(0.015625)"/>
      <path id="DejaVuSans-5f" d="M 3263 -1063 
L 3263 -1509 
L -63 -1509 
L -63 -1063 
L 3263 -1063 
z
" transform="scale(0.015625)"/>
      <path id="DejaVuSans-47" d="M 3809 666 
L 3809 1919 
L 2778 1919 
L 2778 2438 
L 4434 2438 
L 4434 434 
Q 4069 175 3628 42 
Q 3188 -91 2688 -91 
Q 1594 -91 976 548 
Q 359 1188 359 2328 
Q 359 3472 976 4111 
Q 1594 4750 2688 4750 
Q 3144 4750 3555 4637 
Q 3966 4525 4313 4306 
L 4313 3634 
Q 3963 3931 3569 4081 
Q 3175 4231 2741 4231 
Q 1884 4231 1454 3753 
Q 1025 3275 1025 2328 
Q 1025 1384 1454 906 
Q 1884 428 2741 428 
Q 3075 428 3337 486 
Q 3600 544 3809 666 
z
" transform="scale(0.015625)"/>
      <path id="DejaVuSans-4e" d="M 628 4666 
L 1478 4666 
L 3547 763 
L 3547 4666 
L 4159 4666 
L 4159 0 
L 3309 0 
L 1241 3903 
L 1241 0 
L 628 0 
L 628 4666 
z
" transform="scale(0.015625)"/>
      <path id="DejaVuSans-6e" d="M 3513 2113 
L 3513 0 
L 2938 0 
L 2938 2094 
Q 2938 2591 2744 2837 
Q 2550 3084 2163 3084 
Q 1697 3084 1428 2787 
Q 1159 2491 1159 1978 
L 1159 0 
L 581 0 
L 581 3500 
L 1159 3500 
L 1159 2956 
Q 1366 3272 1645 3428 
Q 1925 3584 2291 3584 
Q 2894 3584 3203 3211 
Q 3513 2838 3513 2113 
z
" transform="scale(0.015625)"/>
      <path id="DejaVuSans-79" d="M 2059 -325 
Q 1816 -950 1584 -1140 
Q 1353 -1331 966 -1331 
L 506 -1331 
L 506 -850 
L 844 -850 
Q 1081 -850 1212 -737 
Q 1344 -625 1503 -206 
L 1606 56 
L 191 3500 
L 800 3500 
L 1894 763 
L 2988 3500 
L 3597 3500 
L 2059 -325 
z
" transform="scale(0.015625)"/>
      <path id="DejaVuSans-6d" d="M 3328 2828 
Q 3544 3216 3844 3400 
Q 4144 3584 4550 3584 
Q 5097 3584 5394 3201 
Q 5691 2819 5691 2113 
L 5691 0 
L 5113 0 
L 5113 2094 
Q 5113 2597 4934 2840 
Q 4756 3084 4391 3084 
Q 3944 3084 3684 2787 
Q 3425 2491 3425 1978 
L 3425 0 
L 2847 0 
L 2847 2094 
Q 2847 2600 2669 2842 
Q 2491 3084 2119 3084 
Q 1678 3084 1418 2786 
Q 1159 2488 1159 1978 
L 1159 0 
L 581 0 
L 581 3500 
L 1159 3500 
L 1159 2956 
Q 1356 3278 1631 3431 
Q 1906 3584 2284 3584 
Q 2666 3584 2933 3390 
Q 3200 3197 3328 2828 
z
" transform="scale(0.015625)"/>
     </defs>
     <use xlink:href="#DejaVuSans-63"/>
     <use xlink:href="#DejaVuSans-61" transform="translate(54.980469 0)"/>
     <use xlink:href="#DejaVuSans-72" transform="translate(116.259766 0)"/>
     <use xlink:href="#DejaVuSans-74" transform="translate(157.373047 0)"/>
     <use xlink:href="#DejaVuSans-70" transform="translate(196.582031 0)"/>
     <use xlink:href="#DejaVuSans-6f" transform="translate(260.058594 0)"/>
     <use xlink:href="#DejaVuSans-6c" transform="translate(321.240234 0)"/>
     <use xlink:href="#DejaVuSans-65" transform="translate(349.023438 0)"/>
     <use xlink:href="#DejaVuSans-5f" transform="translate(410.546875 0)"/>
     <use xlink:href="#DejaVuSans-47" transform="translate(460.546875 0)"/>
     <use xlink:href="#DejaVuSans-4e" transform="translate(538.037109 0)"/>
     <use xlink:href="#DejaVuSans-4e" transform="translate(612.841797 0)"/>
     <use xlink:href="#DejaVuSans-5f" transform="translate(687.646484 0)"/>
     <use xlink:href="#DejaVuSans-4e" transform="translate(737.646484 0)"/>
     <use xlink:href="#DejaVuSans-5f" transform="translate(812.451172 0)"/>
     <use xlink:href="#DejaVuSans-65" transform="translate(862.451172 0)"/>
     <use xlink:href="#DejaVuSans-6e" transform="translate(923.974609 0)"/>
     <use xlink:href="#DejaVuSans-74" transform="translate(987.353516 0)"/>
     <use xlink:href="#DejaVuSans-72" transform="translate(1026.5625 0)"/>
     <use xlink:href="#DejaVuSans-6f" transform="translate(1065.425781 0)"/>
     <use xlink:href="#DejaVuSans-70" transform="translate(1126.607422 0)"/>
     <use xlink:href="#DejaVuSans-79" transform="translate(1190.083984 0)"/>
     <use xlink:href="#DejaVuSans-5f" transform="translate(1249.263672 0)"/>
     <use xlink:href="#DejaVuSans-6d" transform="translate(1299.263672 0)"/>
     <use xlink:href="#DejaVuSans-6c" transform="translate(1396.675781 0)"/>
     <use xlink:href="#DejaVuSans-70" transform="translate(1424.458984 0)"/>
    </g>
   </g>
   <g id="legend_1">
    <g id="patch_7">
     <path d="M 57.87 385.04 
L 226.796563 385.04 
Q 228.796563 385.04 228.796563 383.04 
L 228.796563 310.649375 
Q 228.796563 308.649375 226.796563 308.649375 
L 57.87 308.649375 
Q 55.87 308.649375 55.87 310.649375 
L 55.87 383.04 
Q 55.87 385.04 57.87 385.04 
z
" style="fill: #eaeaf2; opacity: 0.8; stroke: #cccccc; stroke-linejoin: miter"/>
    </g>
    <g id="line2d_36">
     <path d="M 59.87 316.747813 
L 69.87 316.747813 
L 79.87 316.747813 
" style="fill: none; stroke: #0000ff; stroke-width: 1.5; stroke-linecap: round"/>
    </g>
    <g id="text_31">
     <!-- Mean Reward -->
     <g style="fill: #262626" transform="translate(87.87 320.247813) scale(0.1 -0.1)">
      <defs>
       <path id="DejaVuSans-4d" d="M 628 4666 
L 1569 4666 
L 2759 1491 
L 3956 4666 
L 4897 4666 
L 4897 0 
L 4281 0 
L 4281 4097 
L 3078 897 
L 2444 897 
L 1241 4097 
L 1241 0 
L 628 0 
L 628 4666 
z
" transform="scale(0.015625)"/>
       <path id="DejaVuSans-20" transform="scale(0.015625)"/>
      </defs>
      <use xlink:href="#DejaVuSans-4d"/>
      <use xlink:href="#DejaVuSans-65" transform="translate(86.279297 0)"/>
      <use xlink:href="#DejaVuSans-61" transform="translate(147.802734 0)"/>
      <use xlink:href="#DejaVuSans-6e" transform="translate(209.082031 0)"/>
      <use xlink:href="#DejaVuSans-20" transform="translate(272.460938 0)"/>
      <use xlink:href="#DejaVuSans-52" transform="translate(304.248047 0)"/>
      <use xlink:href="#DejaVuSans-65" transform="translate(369.230469 0)"/>
      <use xlink:href="#DejaVuSans-77" transform="translate(430.753906 0)"/>
      <use xlink:href="#DejaVuSans-61" transform="translate(512.541016 0)"/>
      <use xlink:href="#DejaVuSans-72" transform="translate(573.820312 0)"/>
      <use xlink:href="#DejaVuSans-64" transform="translate(613.183594 0)"/>
     </g>
    </g>
    <g id="line2d_37">
     <path d="M 59.87 331.425937 
L 69.87 331.425937 
L 79.87 331.425937 
" style="fill: none; stroke: #008000; stroke-opacity: 0.2; stroke-linecap: round"/>
    </g>
    <g id="text_32">
     <!-- Reward (individual runs) -->
     <g style="fill: #262626" transform="translate(87.87 334.925937) scale(0.1 -0.1)">
      <defs>
       <path id="DejaVuSans-28" d="M 1984 4856 
Q 1566 4138 1362 3434 
Q 1159 2731 1159 2009 
Q 1159 1288 1364 580 
Q 1569 -128 1984 -844 
L 1484 -844 
Q 1016 -109 783 600 
Q 550 1309 550 2009 
Q 550 2706 781 3412 
Q 1013 4119 1484 4856 
L 1984 4856 
z
" transform="scale(0.015625)"/>
       <path id="DejaVuSans-76" d="M 191 3500 
L 800 3500 
L 1894 563 
L 2988 3500 
L 3597 3500 
L 2284 0 
L 1503 0 
L 191 3500 
z
" transform="scale(0.015625)"/>
       <path id="DejaVuSans-75" d="M 544 1381 
L 544 3500 
L 1119 3500 
L 1119 1403 
Q 1119 906 1312 657 
Q 1506 409 1894 409 
Q 2359 409 2629 706 
Q 2900 1003 2900 1516 
L 2900 3500 
L 3475 3500 
L 3475 0 
L 2900 0 
L 2900 538 
Q 2691 219 2414 64 
Q 2138 -91 1772 -91 
Q 1169 -91 856 284 
Q 544 659 544 1381 
z
M 1991 3584 
L 1991 3584 
z
" transform="scale(0.015625)"/>
       <path id="DejaVuSans-29" d="M 513 4856 
L 1013 4856 
Q 1481 4119 1714 3412 
Q 1947 2706 1947 2009 
Q 1947 1309 1714 600 
Q 1481 -109 1013 -844 
L 513 -844 
Q 928 -128 1133 580 
Q 1338 1288 1338 2009 
Q 1338 2731 1133 3434 
Q 928 4138 513 4856 
z
" transform="scale(0.015625)"/>
      </defs>
      <use xlink:href="#DejaVuSans-52"/>
      <use xlink:href="#DejaVuSans-65" transform="translate(64.982422 0)"/>
      <use xlink:href="#DejaVuSans-77" transform="translate(126.505859 0)"/>
      <use xlink:href="#DejaVuSans-61" transform="translate(208.292969 0)"/>
      <use xlink:href="#DejaVuSans-72" transform="translate(269.572266 0)"/>
      <use xlink:href="#DejaVuSans-64" transform="translate(308.935547 0)"/>
      <use xlink:href="#DejaVuSans-20" transform="translate(372.412109 0)"/>
      <use xlink:href="#DejaVuSans-28" transform="translate(404.199219 0)"/>
      <use xlink:href="#DejaVuSans-69" transform="translate(443.212891 0)"/>
      <use xlink:href="#DejaVuSans-6e" transform="translate(470.996094 0)"/>
      <use xlink:href="#DejaVuSans-64" transform="translate(534.375 0)"/>
      <use xlink:href="#DejaVuSans-69" transform="translate(597.851562 0)"/>
      <use xlink:href="#DejaVuSans-76" transform="translate(625.634766 0)"/>
      <use xlink:href="#DejaVuSans-69" transform="translate(684.814453 0)"/>
      <use xlink:href="#DejaVuSans-64" transform="translate(712.597656 0)"/>
      <use xlink:href="#DejaVuSans-75" transform="translate(776.074219 0)"/>
      <use xlink:href="#DejaVuSans-61" transform="translate(839.453125 0)"/>
      <use xlink:href="#DejaVuSans-6c" transform="translate(900.732422 0)"/>
      <use xlink:href="#DejaVuSans-20" transform="translate(928.515625 0)"/>
      <use xlink:href="#DejaVuSans-72" transform="translate(960.302734 0)"/>
      <use xlink:href="#DejaVuSans-75" transform="translate(1001.416016 0)"/>
      <use xlink:href="#DejaVuSans-6e" transform="translate(1064.794922 0)"/>
      <use xlink:href="#DejaVuSans-73" transform="translate(1128.173828 0)"/>
      <use xlink:href="#DejaVuSans-29" transform="translate(1180.273438 0)"/>
     </g>
    </g>
    <g id="line2d_38">
     <path d="M 59.87 346.104062 
L 69.87 346.104062 
L 79.87 346.104062 
" style="fill: none; stroke: #ff0000; stroke-linecap: round"/>
    </g>
    <g id="text_33">
     <!-- Noise std (normalized) -->
     <g style="fill: #262626" transform="translate(87.87 349.604062) scale(0.1 -0.1)">
      <defs>
       <path id="DejaVuSans-7a" d="M 353 3500 
L 3084 3500 
L 3084 2975 
L 922 459 
L 3084 459 
L 3084 0 
L 275 0 
L 275 525 
L 2438 3041 
L 353 3041 
L 353 3500 
z
" transform="scale(0.015625)"/>
      </defs>
      <use xlink:href="#DejaVuSans-4e"/>
      <use xlink:href="#DejaVuSans-6f" transform="translate(74.804688 0)"/>
      <use xlink:href="#DejaVuSans-69" transform="translate(135.986328 0)"/>
      <use xlink:href="#DejaVuSans-73" transform="translate(163.769531 0)"/>
      <use xlink:href="#DejaVuSans-65" transform="translate(215.869141 0)"/>
      <use xlink:href="#DejaVuSans-20" transform="translate(277.392578 0)"/>
      <use xlink:href="#DejaVuSans-73" transform="translate(309.179688 0)"/>
      <use xlink:href="#DejaVuSans-74" transform="translate(361.279297 0)"/>
      <use xlink:href="#DejaVuSans-64" transform="translate(400.488281 0)"/>
      <use xlink:href="#DejaVuSans-20" transform="translate(463.964844 0)"/>
      <use xlink:href="#DejaVuSans-28" transform="translate(495.751953 0)"/>
      <use xlink:href="#DejaVuSans-6e" transform="translate(534.765625 0)"/>
      <use xlink:href="#DejaVuSans-6f" transform="translate(598.144531 0)"/>
      <use xlink:href="#DejaVuSans-72" transform="translate(659.326172 0)"/>
      <use xlink:href="#DejaVuSans-6d" transform="translate(698.689453 0)"/>
      <use xlink:href="#DejaVuSans-61" transform="translate(796.101562 0)"/>
      <use xlink:href="#DejaVuSans-6c" transform="translate(857.380859 0)"/>
      <use xlink:href="#DejaVuSans-69" transform="translate(885.164062 0)"/>
      <use xlink:href="#DejaVuSans-7a" transform="translate(912.947266 0)"/>
      <use xlink:href="#DejaVuSans-65" transform="translate(965.4375 0)"/>
      <use xlink:href="#DejaVuSans-64" transform="translate(1026.960938 0)"/>
      <use xlink:href="#DejaVuSans-29" transform="translate(1090.4375 0)"/>
     </g>
    </g>
    <g id="line2d_39">
     <path d="M 59.87 360.782187 
L 69.87 360.782187 
L 79.87 360.782187 
" style="fill: none; stroke: #800080; stroke-linecap: round"/>
    </g>
    <g id="text_34">
     <!-- Entropy (normalized) -->
     <g style="fill: #262626" transform="translate(87.87 364.282187) scale(0.1 -0.1)">
      <use xlink:href="#DejaVuSans-45"/>
      <use xlink:href="#DejaVuSans-6e" transform="translate(63.183594 0)"/>
      <use xlink:href="#DejaVuSans-74" transform="translate(126.5625 0)"/>
      <use xlink:href="#DejaVuSans-72" transform="translate(165.771484 0)"/>
      <use xlink:href="#DejaVuSans-6f" transform="translate(204.634766 0)"/>
      <use xlink:href="#DejaVuSans-70" transform="translate(265.816406 0)"/>
      <use xlink:href="#DejaVuSans-79" transform="translate(329.292969 0)"/>
      <use xlink:href="#DejaVuSans-20" transform="translate(388.472656 0)"/>
      <use xlink:href="#DejaVuSans-28" transform="translate(420.259766 0)"/>
      <use xlink:href="#DejaVuSans-6e" transform="translate(459.273438 0)"/>
      <use xlink:href="#DejaVuSans-6f" transform="translate(522.652344 0)"/>
      <use xlink:href="#DejaVuSans-72" transform="translate(583.833984 0)"/>
      <use xlink:href="#DejaVuSans-6d" transform="translate(623.197266 0)"/>
      <use xlink:href="#DejaVuSans-61" transform="translate(720.609375 0)"/>
      <use xlink:href="#DejaVuSans-6c" transform="translate(781.888672 0)"/>
      <use xlink:href="#DejaVuSans-69" transform="translate(809.671875 0)"/>
      <use xlink:href="#DejaVuSans-7a" transform="translate(837.455078 0)"/>
      <use xlink:href="#DejaVuSans-65" transform="translate(889.945312 0)"/>
      <use xlink:href="#DejaVuSans-64" transform="translate(951.46875 0)"/>
      <use xlink:href="#DejaVuSans-29" transform="translate(1014.945312 0)"/>
     </g>
    </g>
    <g id="patch_8">
     <path d="M 59.87 378.960312 
L 79.87 378.960312 
L 79.87 371.960312 
L 59.87 371.960312 
z
" style="fill: #0000ff; fill-opacity: 0.1"/>
    </g>
    <g id="text_35">
     <!-- Reward Standard Deviation -->
     <g style="fill: #262626" transform="translate(87.87 378.960312) scale(0.1 -0.1)">
      <defs>
       <path id="DejaVuSans-53" d="M 3425 4513 
L 3425 3897 
Q 3066 4069 2747 4153 
Q 2428 4238 2131 4238 
Q 1616 4238 1336 4038 
Q 1056 3838 1056 3469 
Q 1056 3159 1242 3001 
Q 1428 2844 1947 2747 
L 2328 2669 
Q 3034 2534 3370 2195 
Q 3706 1856 3706 1288 
Q 3706 609 3251 259 
Q 2797 -91 1919 -91 
Q 1588 -91 1214 -16 
Q 841 59 441 206 
L 441 856 
Q 825 641 1194 531 
Q 1563 422 1919 422 
Q 2459 422 2753 634 
Q 3047 847 3047 1241 
Q 3047 1584 2836 1778 
Q 2625 1972 2144 2069 
L 1759 2144 
Q 1053 2284 737 2584 
Q 422 2884 422 3419 
Q 422 4038 858 4394 
Q 1294 4750 2059 4750 
Q 2388 4750 2728 4690 
Q 3069 4631 3425 4513 
z
" transform="scale(0.015625)"/>
       <path id="DejaVuSans-44" d="M 1259 4147 
L 1259 519 
L 2022 519 
Q 2988 519 3436 956 
Q 3884 1394 3884 2338 
Q 3884 3275 3436 3711 
Q 2988 4147 2022 4147 
L 1259 4147 
z
M 628 4666 
L 1925 4666 
Q 3281 4666 3915 4102 
Q 4550 3538 4550 2338 
Q 4550 1131 3912 565 
Q 3275 0 1925 0 
L 628 0 
L 628 4666 
z
" transform="scale(0.015625)"/>
      </defs>
      <use xlink:href="#DejaVuSans-52"/>
      <use xlink:href="#DejaVuSans-65" transform="translate(64.982422 0)"/>
      <use xlink:href="#DejaVuSans-77" transform="translate(126.505859 0)"/>
      <use xlink:href="#DejaVuSans-61" transform="translate(208.292969 0)"/>
      <use xlink:href="#DejaVuSans-72" transform="translate(269.572266 0)"/>
      <use xlink:href="#DejaVuSans-64" transform="translate(308.935547 0)"/>
      <use xlink:href="#DejaVuSans-20" transform="translate(372.412109 0)"/>
      <use xlink:href="#DejaVuSans-53" transform="translate(404.199219 0)"/>
      <use xlink:href="#DejaVuSans-74" transform="translate(467.675781 0)"/>
      <use xlink:href="#DejaVuSans-61" transform="translate(506.884766 0)"/>
      <use xlink:href="#DejaVuSans-6e" transform="translate(568.164062 0)"/>
      <use xlink:href="#DejaVuSans-64" transform="translate(631.542969 0)"/>
      <use xlink:href="#DejaVuSans-61" transform="translate(695.019531 0)"/>
      <use xlink:href="#DejaVuSans-72" transform="translate(756.298828 0)"/>
      <use xlink:href="#DejaVuSans-64" transform="translate(795.662109 0)"/>
      <use xlink:href="#DejaVuSans-20" transform="translate(859.138672 0)"/>
      <use xlink:href="#DejaVuSans-44" transform="translate(890.925781 0)"/>
      <use xlink:href="#DejaVuSans-65" transform="translate(967.927734 0)"/>
      <use xlink:href="#DejaVuSans-76" transform="translate(1029.451172 0)"/>
      <use xlink:href="#DejaVuSans-69" transform="translate(1088.630859 0)"/>
      <use xlink:href="#DejaVuSans-61" transform="translate(1116.414062 0)"/>
      <use xlink:href="#DejaVuSans-74" transform="translate(1177.693359 0)"/>
      <use xlink:href="#DejaVuSans-69" transform="translate(1216.902344 0)"/>
      <use xlink:href="#DejaVuSans-6f" transform="translate(1244.685547 0)"/>
      <use xlink:href="#DejaVuSans-6e" transform="translate(1305.867188 0)"/>
     </g>
    </g>
   </g>
  </g>
 </g>
 <defs>
  <clipPath id="p8f90060488">
   <rect x="50.87" y="26.88" width="513.419615" height="363.16"/>
  </clipPath>
 </defs>
</svg>
