<?xml version="1.0" encoding="utf-8" standalone="no"?>
<!DOCTYPE svg PUBLIC "-//W3C//DTD SVG 1.1//EN"
  "http://www.w3.org/Graphics/SVG/1.1/DTD/svg11.dtd">
<svg xmlns:xlink="http://www.w3.org/1999/xlink" width="576pt" height="432pt" viewBox="0 0 576 432" xmlns="http://www.w3.org/2000/svg" version="1.1">
 <metadata>
  <rdf:RDF xmlns:dc="http://purl.org/dc/elements/1.1/" xmlns:cc="http://creativecommons.org/ns#" xmlns:rdf="http://www.w3.org/1999/02/22-rdf-syntax-ns#">
   <cc:Work>
    <dc:type rdf:resource="http://purl.org/dc/dcmitype/StillImage"/>
    <dc:date>2025-06-12T21:49:07.142943</dc:date>
    <dc:format>image/svg+xml</dc:format>
    <dc:creator>
     <cc:Agent>
      <dc:title>Matplotlib v3.10.0, https://matplotlib.org/</dc:title>
     </cc:Agent>
    </dc:creator>
   </cc:Work>
  </rdf:RDF>
 </metadata>
 <defs>
  <style type="text/css">*{stroke-linejoin: round; stroke-linecap: butt}</style>
 </defs>
 <g id="figure_1">
  <g id="patch_1">
   <path d="M 0 432 
L 576 432 
L 576 0 
L 0 0 
z
" style="fill: #ffffff"/>
  </g>
  <g id="axes_1">
   <g id="patch_2">
    <path d="M 48.62 390.04 
L 565.2 390.04 
L 565.2 25.49625 
L 48.62 25.49625 
z
" style="fill: #eaeaf2"/>
   </g>
   <g id="matplotlib.axis_1">
    <g id="xtick_1">
     <g id="line2d_1">
      <path d="M 58.554231 390.04 
L 58.554231 25.49625 
" clip-path="url(#p78a239ea3b)" style="fill: none; stroke: #ffffff; stroke-width: 0.8; stroke-linecap: round"/>
     </g>
     <g id="text_1">
      <!-- 0 -->
      <g style="fill: #262626" transform="translate(55.773762 404.197812) scale(0.1 -0.1)">
       <defs>
        <path id="ArialMT-30" d="M 266 2259 
Q 266 3072 433 3567 
Q 600 4063 929 4331 
Q 1259 4600 1759 4600 
Q 2128 4600 2406 4451 
Q 2684 4303 2865 4023 
Q 3047 3744 3150 3342 
Q 3253 2941 3253 2259 
Q 3253 1453 3087 958 
Q 2922 463 2592 192 
Q 2263 -78 1759 -78 
Q 1097 -78 719 397 
Q 266 969 266 2259 
z
M 844 2259 
Q 844 1131 1108 757 
Q 1372 384 1759 384 
Q 2147 384 2411 759 
Q 2675 1134 2675 2259 
Q 2675 3391 2411 3762 
Q 2147 4134 1753 4134 
Q 1366 4134 1134 3806 
Q 844 3388 844 2259 
z
" transform="scale(0.015625)"/>
       </defs>
       <use xlink:href="#ArialMT-30"/>
      </g>
     </g>
    </g>
    <g id="xtick_2">
     <g id="line2d_2">
      <path d="M 91.668333 390.04 
L 91.668333 25.49625 
" clip-path="url(#p78a239ea3b)" style="fill: none; stroke: #ffffff; stroke-width: 0.8; stroke-linecap: round"/>
     </g>
     <g id="text_2">
      <!-- 10 -->
      <g style="fill: #262626" transform="translate(86.107396 404.197812) scale(0.1 -0.1)">
       <defs>
        <path id="ArialMT-31" d="M 2384 0 
L 1822 0 
L 1822 3584 
Q 1619 3391 1289 3197 
Q 959 3003 697 2906 
L 697 3450 
Q 1169 3672 1522 3987 
Q 1875 4303 2022 4600 
L 2384 4600 
L 2384 0 
z
" transform="scale(0.015625)"/>
       </defs>
       <use xlink:href="#ArialMT-31"/>
       <use xlink:href="#ArialMT-30" transform="translate(55.615234 0)"/>
      </g>
     </g>
    </g>
    <g id="xtick_3">
     <g id="line2d_3">
      <path d="M 124.782436 390.04 
L 124.782436 25.49625 
" clip-path="url(#p78a239ea3b)" style="fill: none; stroke: #ffffff; stroke-width: 0.8; stroke-linecap: round"/>
     </g>
     <g id="text_3">
      <!-- 20 -->
      <g style="fill: #262626" transform="translate(119.221498 404.197812) scale(0.1 -0.1)">
       <defs>
        <path id="ArialMT-32" d="M 3222 541 
L 3222 0 
L 194 0 
Q 188 203 259 391 
Q 375 700 629 1000 
Q 884 1300 1366 1694 
Q 2113 2306 2375 2664 
Q 2638 3022 2638 3341 
Q 2638 3675 2398 3904 
Q 2159 4134 1775 4134 
Q 1369 4134 1125 3890 
Q 881 3647 878 3216 
L 300 3275 
Q 359 3922 746 4261 
Q 1134 4600 1788 4600 
Q 2447 4600 2831 4234 
Q 3216 3869 3216 3328 
Q 3216 3053 3103 2787 
Q 2991 2522 2730 2228 
Q 2469 1934 1863 1422 
Q 1356 997 1212 845 
Q 1069 694 975 541 
L 3222 541 
z
" transform="scale(0.015625)"/>
       </defs>
       <use xlink:href="#ArialMT-32"/>
       <use xlink:href="#ArialMT-30" transform="translate(55.615234 0)"/>
      </g>
     </g>
    </g>
    <g id="xtick_4">
     <g id="line2d_4">
      <path d="M 157.896538 390.04 
L 157.896538 25.49625 
" clip-path="url(#p78a239ea3b)" style="fill: none; stroke: #ffffff; stroke-width: 0.8; stroke-linecap: round"/>
     </g>
     <g id="text_4">
      <!-- 30 -->
      <g style="fill: #262626" transform="translate(152.335601 404.197812) scale(0.1 -0.1)">
       <defs>
        <path id="ArialMT-33" d="M 269 1209 
L 831 1284 
Q 928 806 1161 595 
Q 1394 384 1728 384 
Q 2125 384 2398 659 
Q 2672 934 2672 1341 
Q 2672 1728 2419 1979 
Q 2166 2231 1775 2231 
Q 1616 2231 1378 2169 
L 1441 2663 
Q 1497 2656 1531 2656 
Q 1891 2656 2178 2843 
Q 2466 3031 2466 3422 
Q 2466 3731 2256 3934 
Q 2047 4138 1716 4138 
Q 1388 4138 1169 3931 
Q 950 3725 888 3313 
L 325 3413 
Q 428 3978 793 4289 
Q 1159 4600 1703 4600 
Q 2078 4600 2393 4439 
Q 2709 4278 2876 4000 
Q 3044 3722 3044 3409 
Q 3044 3113 2884 2869 
Q 2725 2625 2413 2481 
Q 2819 2388 3044 2092 
Q 3269 1797 3269 1353 
Q 3269 753 2831 336 
Q 2394 -81 1725 -81 
Q 1122 -81 723 278 
Q 325 638 269 1209 
z
" transform="scale(0.015625)"/>
       </defs>
       <use xlink:href="#ArialMT-33"/>
       <use xlink:href="#ArialMT-30" transform="translate(55.615234 0)"/>
      </g>
     </g>
    </g>
    <g id="xtick_5">
     <g id="line2d_5">
      <path d="M 191.010641 390.04 
L 191.010641 25.49625 
" clip-path="url(#p78a239ea3b)" style="fill: none; stroke: #ffffff; stroke-width: 0.8; stroke-linecap: round"/>
     </g>
     <g id="text_5">
      <!-- 40 -->
      <g style="fill: #262626" transform="translate(185.449704 404.197812) scale(0.1 -0.1)">
       <defs>
        <path id="ArialMT-34" d="M 2069 0 
L 2069 1097 
L 81 1097 
L 81 1613 
L 2172 4581 
L 2631 4581 
L 2631 1613 
L 3250 1613 
L 3250 1097 
L 2631 1097 
L 2631 0 
L 2069 0 
z
M 2069 1613 
L 2069 3678 
L 634 1613 
L 2069 1613 
z
" transform="scale(0.015625)"/>
       </defs>
       <use xlink:href="#ArialMT-34"/>
       <use xlink:href="#ArialMT-30" transform="translate(55.615234 0)"/>
      </g>
     </g>
    </g>
    <g id="xtick_6">
     <g id="line2d_6">
      <path d="M 224.124744 390.04 
L 224.124744 25.49625 
" clip-path="url(#p78a239ea3b)" style="fill: none; stroke: #ffffff; stroke-width: 0.8; stroke-linecap: round"/>
     </g>
     <g id="text_6">
      <!-- 50 -->
      <g style="fill: #262626" transform="translate(218.563806 404.197812) scale(0.1 -0.1)">
       <defs>
        <path id="ArialMT-35" d="M 266 1200 
L 856 1250 
Q 922 819 1161 601 
Q 1400 384 1738 384 
Q 2144 384 2425 690 
Q 2706 997 2706 1503 
Q 2706 1984 2436 2262 
Q 2166 2541 1728 2541 
Q 1456 2541 1237 2417 
Q 1019 2294 894 2097 
L 366 2166 
L 809 4519 
L 3088 4519 
L 3088 3981 
L 1259 3981 
L 1013 2750 
Q 1425 3038 1878 3038 
Q 2478 3038 2890 2622 
Q 3303 2206 3303 1553 
Q 3303 931 2941 478 
Q 2500 -78 1738 -78 
Q 1113 -78 717 272 
Q 322 622 266 1200 
z
" transform="scale(0.015625)"/>
       </defs>
       <use xlink:href="#ArialMT-35"/>
       <use xlink:href="#ArialMT-30" transform="translate(55.615234 0)"/>
      </g>
     </g>
    </g>
    <g id="xtick_7">
     <g id="line2d_7">
      <path d="M 257.238846 390.04 
L 257.238846 25.49625 
" clip-path="url(#p78a239ea3b)" style="fill: none; stroke: #ffffff; stroke-width: 0.8; stroke-linecap: round"/>
     </g>
     <g id="text_7">
      <!-- 60 -->
      <g style="fill: #262626" transform="translate(251.677909 404.197812) scale(0.1 -0.1)">
       <defs>
        <path id="ArialMT-36" d="M 3184 3459 
L 2625 3416 
Q 2550 3747 2413 3897 
Q 2184 4138 1850 4138 
Q 1581 4138 1378 3988 
Q 1113 3794 959 3422 
Q 806 3050 800 2363 
Q 1003 2672 1297 2822 
Q 1591 2972 1913 2972 
Q 2475 2972 2870 2558 
Q 3266 2144 3266 1488 
Q 3266 1056 3080 686 
Q 2894 316 2569 119 
Q 2244 -78 1831 -78 
Q 1128 -78 684 439 
Q 241 956 241 2144 
Q 241 3472 731 4075 
Q 1159 4600 1884 4600 
Q 2425 4600 2770 4297 
Q 3116 3994 3184 3459 
z
M 888 1484 
Q 888 1194 1011 928 
Q 1134 663 1356 523 
Q 1578 384 1822 384 
Q 2178 384 2434 671 
Q 2691 959 2691 1453 
Q 2691 1928 2437 2201 
Q 2184 2475 1800 2475 
Q 1419 2475 1153 2201 
Q 888 1928 888 1484 
z
" transform="scale(0.015625)"/>
       </defs>
       <use xlink:href="#ArialMT-36"/>
       <use xlink:href="#ArialMT-30" transform="translate(55.615234 0)"/>
      </g>
     </g>
    </g>
    <g id="xtick_8">
     <g id="line2d_8">
      <path d="M 290.352949 390.04 
L 290.352949 25.49625 
" clip-path="url(#p78a239ea3b)" style="fill: none; stroke: #ffffff; stroke-width: 0.8; stroke-linecap: round"/>
     </g>
     <g id="text_8">
      <!-- 70 -->
      <g style="fill: #262626" transform="translate(284.792011 404.197812) scale(0.1 -0.1)">
       <defs>
        <path id="ArialMT-37" d="M 303 3981 
L 303 4522 
L 3269 4522 
L 3269 4084 
Q 2831 3619 2401 2847 
Q 1972 2075 1738 1259 
Q 1569 684 1522 0 
L 944 0 
Q 953 541 1156 1306 
Q 1359 2072 1739 2783 
Q 2119 3494 2547 3981 
L 303 3981 
z
" transform="scale(0.015625)"/>
       </defs>
       <use xlink:href="#ArialMT-37"/>
       <use xlink:href="#ArialMT-30" transform="translate(55.615234 0)"/>
      </g>
     </g>
    </g>
    <g id="xtick_9">
     <g id="line2d_9">
      <path d="M 323.467051 390.04 
L 323.467051 25.49625 
" clip-path="url(#p78a239ea3b)" style="fill: none; stroke: #ffffff; stroke-width: 0.8; stroke-linecap: round"/>
     </g>
     <g id="text_9">
      <!-- 80 -->
      <g style="fill: #262626" transform="translate(317.906114 404.197812) scale(0.1 -0.1)">
       <defs>
        <path id="ArialMT-38" d="M 1131 2484 
Q 781 2613 612 2850 
Q 444 3088 444 3419 
Q 444 3919 803 4259 
Q 1163 4600 1759 4600 
Q 2359 4600 2725 4251 
Q 3091 3903 3091 3403 
Q 3091 3084 2923 2848 
Q 2756 2613 2416 2484 
Q 2838 2347 3058 2040 
Q 3278 1734 3278 1309 
Q 3278 722 2862 322 
Q 2447 -78 1769 -78 
Q 1091 -78 675 323 
Q 259 725 259 1325 
Q 259 1772 486 2073 
Q 713 2375 1131 2484 
z
M 1019 3438 
Q 1019 3113 1228 2906 
Q 1438 2700 1772 2700 
Q 2097 2700 2305 2904 
Q 2513 3109 2513 3406 
Q 2513 3716 2298 3927 
Q 2084 4138 1766 4138 
Q 1444 4138 1231 3931 
Q 1019 3725 1019 3438 
z
M 838 1322 
Q 838 1081 952 856 
Q 1066 631 1291 507 
Q 1516 384 1775 384 
Q 2178 384 2440 643 
Q 2703 903 2703 1303 
Q 2703 1709 2433 1975 
Q 2163 2241 1756 2241 
Q 1359 2241 1098 1978 
Q 838 1716 838 1322 
z
" transform="scale(0.015625)"/>
       </defs>
       <use xlink:href="#ArialMT-38"/>
       <use xlink:href="#ArialMT-30" transform="translate(55.615234 0)"/>
      </g>
     </g>
    </g>
    <g id="xtick_10">
     <g id="line2d_10">
      <path d="M 356.581154 390.04 
L 356.581154 25.49625 
" clip-path="url(#p78a239ea3b)" style="fill: none; stroke: #ffffff; stroke-width: 0.8; stroke-linecap: round"/>
     </g>
     <g id="text_10">
      <!-- 90 -->
      <g style="fill: #262626" transform="translate(351.020216 404.197812) scale(0.1 -0.1)">
       <defs>
        <path id="ArialMT-39" d="M 350 1059 
L 891 1109 
Q 959 728 1153 556 
Q 1347 384 1650 384 
Q 1909 384 2104 503 
Q 2300 622 2425 820 
Q 2550 1019 2634 1356 
Q 2719 1694 2719 2044 
Q 2719 2081 2716 2156 
Q 2547 1888 2255 1720 
Q 1963 1553 1622 1553 
Q 1053 1553 659 1965 
Q 266 2378 266 3053 
Q 266 3750 677 4175 
Q 1088 4600 1706 4600 
Q 2153 4600 2523 4359 
Q 2894 4119 3086 3673 
Q 3278 3228 3278 2384 
Q 3278 1506 3087 986 
Q 2897 466 2520 194 
Q 2144 -78 1638 -78 
Q 1100 -78 759 220 
Q 419 519 350 1059 
z
M 2653 3081 
Q 2653 3566 2395 3850 
Q 2138 4134 1775 4134 
Q 1400 4134 1122 3828 
Q 844 3522 844 3034 
Q 844 2597 1108 2323 
Q 1372 2050 1759 2050 
Q 2150 2050 2401 2323 
Q 2653 2597 2653 3081 
z
" transform="scale(0.015625)"/>
       </defs>
       <use xlink:href="#ArialMT-39"/>
       <use xlink:href="#ArialMT-30" transform="translate(55.615234 0)"/>
      </g>
     </g>
    </g>
    <g id="xtick_11">
     <g id="line2d_11">
      <path d="M 389.695256 390.04 
L 389.695256 25.49625 
" clip-path="url(#p78a239ea3b)" style="fill: none; stroke: #ffffff; stroke-width: 0.8; stroke-linecap: round"/>
     </g>
     <g id="text_11">
      <!-- 100 -->
      <g style="fill: #262626" transform="translate(381.35385 404.197812) scale(0.1 -0.1)">
       <use xlink:href="#ArialMT-31"/>
       <use xlink:href="#ArialMT-30" transform="translate(55.615234 0)"/>
       <use xlink:href="#ArialMT-30" transform="translate(111.230469 0)"/>
      </g>
     </g>
    </g>
    <g id="xtick_12">
     <g id="line2d_12">
      <path d="M 422.809359 390.04 
L 422.809359 25.49625 
" clip-path="url(#p78a239ea3b)" style="fill: none; stroke: #ffffff; stroke-width: 0.8; stroke-linecap: round"/>
     </g>
     <g id="text_12">
      <!-- 110 -->
      <g style="fill: #262626" transform="translate(414.836703 404.197812) scale(0.1 -0.1)">
       <use xlink:href="#ArialMT-31"/>
       <use xlink:href="#ArialMT-31" transform="translate(48.240234 0)"/>
       <use xlink:href="#ArialMT-30" transform="translate(103.855469 0)"/>
      </g>
     </g>
    </g>
    <g id="xtick_13">
     <g id="line2d_13">
      <path d="M 455.923462 390.04 
L 455.923462 25.49625 
" clip-path="url(#p78a239ea3b)" style="fill: none; stroke: #ffffff; stroke-width: 0.8; stroke-linecap: round"/>
     </g>
     <g id="text_13">
      <!-- 120 -->
      <g style="fill: #262626" transform="translate(447.582055 404.197812) scale(0.1 -0.1)">
       <use xlink:href="#ArialMT-31"/>
       <use xlink:href="#ArialMT-32" transform="translate(55.615234 0)"/>
       <use xlink:href="#ArialMT-30" transform="translate(111.230469 0)"/>
      </g>
     </g>
    </g>
    <g id="xtick_14">
     <g id="line2d_14">
      <path d="M 489.037564 390.04 
L 489.037564 25.49625 
" clip-path="url(#p78a239ea3b)" style="fill: none; stroke: #ffffff; stroke-width: 0.8; stroke-linecap: round"/>
     </g>
     <g id="text_14">
      <!-- 130 -->
      <g style="fill: #262626" transform="translate(480.696158 404.197812) scale(0.1 -0.1)">
       <use xlink:href="#ArialMT-31"/>
       <use xlink:href="#ArialMT-33" transform="translate(55.615234 0)"/>
       <use xlink:href="#ArialMT-30" transform="translate(111.230469 0)"/>
      </g>
     </g>
    </g>
    <g id="xtick_15">
     <g id="line2d_15">
      <path d="M 522.151667 390.04 
L 522.151667 25.49625 
" clip-path="url(#p78a239ea3b)" style="fill: none; stroke: #ffffff; stroke-width: 0.8; stroke-linecap: round"/>
     </g>
     <g id="text_15">
      <!-- 140 -->
      <g style="fill: #262626" transform="translate(513.81026 404.197812) scale(0.1 -0.1)">
       <use xlink:href="#ArialMT-31"/>
       <use xlink:href="#ArialMT-34" transform="translate(55.615234 0)"/>
       <use xlink:href="#ArialMT-30" transform="translate(111.230469 0)"/>
      </g>
     </g>
    </g>
    <g id="xtick_16">
     <g id="line2d_16">
      <path d="M 555.265769 390.04 
L 555.265769 25.49625 
" clip-path="url(#p78a239ea3b)" style="fill: none; stroke: #ffffff; stroke-width: 0.8; stroke-linecap: round"/>
     </g>
     <g id="text_16">
      <!-- 150 -->
      <g style="fill: #262626" transform="translate(546.924363 404.197812) scale(0.1 -0.1)">
       <use xlink:href="#ArialMT-31"/>
       <use xlink:href="#ArialMT-35" transform="translate(55.615234 0)"/>
       <use xlink:href="#ArialMT-30" transform="translate(111.230469 0)"/>
      </g>
     </g>
    </g>
    <g id="text_17">
     <!-- Episode -->
     <g style="fill: #262626" transform="translate(288.842031 417.343125) scale(0.1 -0.1)">
      <defs>
       <path id="ArialMT-45" d="M 506 0 
L 506 4581 
L 3819 4581 
L 3819 4041 
L 1113 4041 
L 1113 2638 
L 3647 2638 
L 3647 2100 
L 1113 2100 
L 1113 541 
L 3925 541 
L 3925 0 
L 506 0 
z
" transform="scale(0.015625)"/>
       <path id="ArialMT-70" d="M 422 -1272 
L 422 3319 
L 934 3319 
L 934 2888 
Q 1116 3141 1344 3267 
Q 1572 3394 1897 3394 
Q 2322 3394 2647 3175 
Q 2972 2956 3137 2557 
Q 3303 2159 3303 1684 
Q 3303 1175 3120 767 
Q 2938 359 2589 142 
Q 2241 -75 1856 -75 
Q 1575 -75 1351 44 
Q 1128 163 984 344 
L 984 -1272 
L 422 -1272 
z
M 931 1641 
Q 931 1000 1190 694 
Q 1450 388 1819 388 
Q 2194 388 2461 705 
Q 2728 1022 2728 1688 
Q 2728 2322 2467 2637 
Q 2206 2953 1844 2953 
Q 1484 2953 1207 2617 
Q 931 2281 931 1641 
z
" transform="scale(0.015625)"/>
       <path id="ArialMT-69" d="M 425 3934 
L 425 4581 
L 988 4581 
L 988 3934 
L 425 3934 
z
M 425 0 
L 425 3319 
L 988 3319 
L 988 0 
L 425 0 
z
" transform="scale(0.015625)"/>
       <path id="ArialMT-73" d="M 197 991 
L 753 1078 
Q 800 744 1014 566 
Q 1228 388 1613 388 
Q 2000 388 2187 545 
Q 2375 703 2375 916 
Q 2375 1106 2209 1216 
Q 2094 1291 1634 1406 
Q 1016 1563 777 1677 
Q 538 1791 414 1992 
Q 291 2194 291 2438 
Q 291 2659 392 2848 
Q 494 3038 669 3163 
Q 800 3259 1026 3326 
Q 1253 3394 1513 3394 
Q 1903 3394 2198 3281 
Q 2494 3169 2634 2976 
Q 2775 2784 2828 2463 
L 2278 2388 
Q 2241 2644 2061 2787 
Q 1881 2931 1553 2931 
Q 1166 2931 1000 2803 
Q 834 2675 834 2503 
Q 834 2394 903 2306 
Q 972 2216 1119 2156 
Q 1203 2125 1616 2013 
Q 2213 1853 2448 1751 
Q 2684 1650 2818 1456 
Q 2953 1263 2953 975 
Q 2953 694 2789 445 
Q 2625 197 2315 61 
Q 2006 -75 1616 -75 
Q 969 -75 630 194 
Q 291 463 197 991 
z
" transform="scale(0.015625)"/>
       <path id="ArialMT-6f" d="M 213 1659 
Q 213 2581 725 3025 
Q 1153 3394 1769 3394 
Q 2453 3394 2887 2945 
Q 3322 2497 3322 1706 
Q 3322 1066 3130 698 
Q 2938 331 2570 128 
Q 2203 -75 1769 -75 
Q 1072 -75 642 372 
Q 213 819 213 1659 
z
M 791 1659 
Q 791 1022 1069 705 
Q 1347 388 1769 388 
Q 2188 388 2466 706 
Q 2744 1025 2744 1678 
Q 2744 2294 2464 2611 
Q 2184 2928 1769 2928 
Q 1347 2928 1069 2612 
Q 791 2297 791 1659 
z
" transform="scale(0.015625)"/>
       <path id="ArialMT-64" d="M 2575 0 
L 2575 419 
Q 2259 -75 1647 -75 
Q 1250 -75 917 144 
Q 584 363 401 755 
Q 219 1147 219 1656 
Q 219 2153 384 2558 
Q 550 2963 881 3178 
Q 1213 3394 1622 3394 
Q 1922 3394 2156 3267 
Q 2391 3141 2538 2938 
L 2538 4581 
L 3097 4581 
L 3097 0 
L 2575 0 
z
M 797 1656 
Q 797 1019 1065 703 
Q 1334 388 1700 388 
Q 2069 388 2326 689 
Q 2584 991 2584 1609 
Q 2584 2291 2321 2609 
Q 2059 2928 1675 2928 
Q 1300 2928 1048 2622 
Q 797 2316 797 1656 
z
" transform="scale(0.015625)"/>
       <path id="ArialMT-65" d="M 2694 1069 
L 3275 997 
Q 3138 488 2766 206 
Q 2394 -75 1816 -75 
Q 1088 -75 661 373 
Q 234 822 234 1631 
Q 234 2469 665 2931 
Q 1097 3394 1784 3394 
Q 2450 3394 2872 2941 
Q 3294 2488 3294 1666 
Q 3294 1616 3291 1516 
L 816 1516 
Q 847 969 1125 678 
Q 1403 388 1819 388 
Q 2128 388 2347 550 
Q 2566 713 2694 1069 
z
M 847 1978 
L 2700 1978 
Q 2663 2397 2488 2606 
Q 2219 2931 1791 2931 
Q 1403 2931 1139 2672 
Q 875 2413 847 1978 
z
" transform="scale(0.015625)"/>
      </defs>
      <use xlink:href="#ArialMT-45"/>
      <use xlink:href="#ArialMT-70" transform="translate(66.699219 0)"/>
      <use xlink:href="#ArialMT-69" transform="translate(122.314453 0)"/>
      <use xlink:href="#ArialMT-73" transform="translate(144.53125 0)"/>
      <use xlink:href="#ArialMT-6f" transform="translate(194.53125 0)"/>
      <use xlink:href="#ArialMT-64" transform="translate(250.146484 0)"/>
      <use xlink:href="#ArialMT-65" transform="translate(305.761719 0)"/>
     </g>
    </g>
   </g>
   <g id="matplotlib.axis_2">
    <g id="ytick_1">
     <g id="line2d_17">
      <path d="M 48.62 390.04 
L 565.2 390.04 
" clip-path="url(#p78a239ea3b)" style="fill: none; stroke: #ffffff; stroke-width: 0.8; stroke-linecap: round"/>
     </g>
     <g id="text_18">
      <!-- 0 -->
      <g style="fill: #262626" transform="translate(36.059063 393.618906) scale(0.1 -0.1)">
       <use xlink:href="#ArialMT-30"/>
      </g>
     </g>
    </g>
    <g id="ytick_2">
     <g id="line2d_18">
      <path d="M 48.62 354.987716 
L 565.2 354.987716 
" clip-path="url(#p78a239ea3b)" style="fill: none; stroke: #ffffff; stroke-width: 0.8; stroke-linecap: round"/>
     </g>
     <g id="text_19">
      <!-- 50 -->
      <g style="fill: #262626" transform="translate(30.498125 358.566623) scale(0.1 -0.1)">
       <use xlink:href="#ArialMT-35"/>
       <use xlink:href="#ArialMT-30" transform="translate(55.615234 0)"/>
      </g>
     </g>
    </g>
    <g id="ytick_3">
     <g id="line2d_19">
      <path d="M 48.62 319.935433 
L 565.2 319.935433 
" clip-path="url(#p78a239ea3b)" style="fill: none; stroke: #ffffff; stroke-width: 0.8; stroke-linecap: round"/>
     </g>
     <g id="text_20">
      <!-- 100 -->
      <g style="fill: #262626" transform="translate(24.937188 323.514339) scale(0.1 -0.1)">
       <use xlink:href="#ArialMT-31"/>
       <use xlink:href="#ArialMT-30" transform="translate(55.615234 0)"/>
       <use xlink:href="#ArialMT-30" transform="translate(111.230469 0)"/>
      </g>
     </g>
    </g>
    <g id="ytick_4">
     <g id="line2d_20">
      <path d="M 48.62 284.883149 
L 565.2 284.883149 
" clip-path="url(#p78a239ea3b)" style="fill: none; stroke: #ffffff; stroke-width: 0.8; stroke-linecap: round"/>
     </g>
     <g id="text_21">
      <!-- 150 -->
      <g style="fill: #262626" transform="translate(24.937188 288.462055) scale(0.1 -0.1)">
       <use xlink:href="#ArialMT-31"/>
       <use xlink:href="#ArialMT-35" transform="translate(55.615234 0)"/>
       <use xlink:href="#ArialMT-30" transform="translate(111.230469 0)"/>
      </g>
     </g>
    </g>
    <g id="ytick_5">
     <g id="line2d_21">
      <path d="M 48.62 249.830865 
L 565.2 249.830865 
" clip-path="url(#p78a239ea3b)" style="fill: none; stroke: #ffffff; stroke-width: 0.8; stroke-linecap: round"/>
     </g>
     <g id="text_22">
      <!-- 200 -->
      <g style="fill: #262626" transform="translate(24.937188 253.409772) scale(0.1 -0.1)">
       <use xlink:href="#ArialMT-32"/>
       <use xlink:href="#ArialMT-30" transform="translate(55.615234 0)"/>
       <use xlink:href="#ArialMT-30" transform="translate(111.230469 0)"/>
      </g>
     </g>
    </g>
    <g id="ytick_6">
     <g id="line2d_22">
      <path d="M 48.62 214.778582 
L 565.2 214.778582 
" clip-path="url(#p78a239ea3b)" style="fill: none; stroke: #ffffff; stroke-width: 0.8; stroke-linecap: round"/>
     </g>
     <g id="text_23">
      <!-- 250 -->
      <g style="fill: #262626" transform="translate(24.937188 218.357488) scale(0.1 -0.1)">
       <use xlink:href="#ArialMT-32"/>
       <use xlink:href="#ArialMT-35" transform="translate(55.615234 0)"/>
       <use xlink:href="#ArialMT-30" transform="translate(111.230469 0)"/>
      </g>
     </g>
    </g>
    <g id="ytick_7">
     <g id="line2d_23">
      <path d="M 48.62 179.726298 
L 565.2 179.726298 
" clip-path="url(#p78a239ea3b)" style="fill: none; stroke: #ffffff; stroke-width: 0.8; stroke-linecap: round"/>
     </g>
     <g id="text_24">
      <!-- 300 -->
      <g style="fill: #262626" transform="translate(24.937188 183.305204) scale(0.1 -0.1)">
       <use xlink:href="#ArialMT-33"/>
       <use xlink:href="#ArialMT-30" transform="translate(55.615234 0)"/>
       <use xlink:href="#ArialMT-30" transform="translate(111.230469 0)"/>
      </g>
     </g>
    </g>
    <g id="ytick_8">
     <g id="line2d_24">
      <path d="M 48.62 144.674014 
L 565.2 144.674014 
" clip-path="url(#p78a239ea3b)" style="fill: none; stroke: #ffffff; stroke-width: 0.8; stroke-linecap: round"/>
     </g>
     <g id="text_25">
      <!-- 350 -->
      <g style="fill: #262626" transform="translate(24.937188 148.252921) scale(0.1 -0.1)">
       <use xlink:href="#ArialMT-33"/>
       <use xlink:href="#ArialMT-35" transform="translate(55.615234 0)"/>
       <use xlink:href="#ArialMT-30" transform="translate(111.230469 0)"/>
      </g>
     </g>
    </g>
    <g id="ytick_9">
     <g id="line2d_25">
      <path d="M 48.62 109.621731 
L 565.2 109.621731 
" clip-path="url(#p78a239ea3b)" style="fill: none; stroke: #ffffff; stroke-width: 0.8; stroke-linecap: round"/>
     </g>
     <g id="text_26">
      <!-- 400 -->
      <g style="fill: #262626" transform="translate(24.937188 113.200637) scale(0.1 -0.1)">
       <use xlink:href="#ArialMT-34"/>
       <use xlink:href="#ArialMT-30" transform="translate(55.615234 0)"/>
       <use xlink:href="#ArialMT-30" transform="translate(111.230469 0)"/>
      </g>
     </g>
    </g>
    <g id="ytick_10">
     <g id="line2d_26">
      <path d="M 48.62 74.569447 
L 565.2 74.569447 
" clip-path="url(#p78a239ea3b)" style="fill: none; stroke: #ffffff; stroke-width: 0.8; stroke-linecap: round"/>
     </g>
     <g id="text_27">
      <!-- 450 -->
      <g style="fill: #262626" transform="translate(24.937188 78.148353) scale(0.1 -0.1)">
       <use xlink:href="#ArialMT-34"/>
       <use xlink:href="#ArialMT-35" transform="translate(55.615234 0)"/>
       <use xlink:href="#ArialMT-30" transform="translate(111.230469 0)"/>
      </g>
     </g>
    </g>
    <g id="ytick_11">
     <g id="line2d_27">
      <path d="M 48.62 39.517163 
L 565.2 39.517163 
" clip-path="url(#p78a239ea3b)" style="fill: none; stroke: #ffffff; stroke-width: 0.8; stroke-linecap: round"/>
     </g>
     <g id="text_28">
      <!-- 500 -->
      <g style="fill: #262626" transform="translate(24.937188 43.09607) scale(0.1 -0.1)">
       <use xlink:href="#ArialMT-35"/>
       <use xlink:href="#ArialMT-30" transform="translate(55.615234 0)"/>
       <use xlink:href="#ArialMT-30" transform="translate(111.230469 0)"/>
      </g>
     </g>
    </g>
    <g id="text_29">
     <!-- Reward -->
     <g style="fill: #262626" transform="translate(18.949688 224.99625) rotate(-90) scale(0.1 -0.1)">
      <defs>
       <path id="ArialMT-52" d="M 503 0 
L 503 4581 
L 2534 4581 
Q 3147 4581 3465 4457 
Q 3784 4334 3975 4021 
Q 4166 3709 4166 3331 
Q 4166 2844 3850 2509 
Q 3534 2175 2875 2084 
Q 3116 1969 3241 1856 
Q 3506 1613 3744 1247 
L 4541 0 
L 3778 0 
L 3172 953 
Q 2906 1366 2734 1584 
Q 2563 1803 2427 1890 
Q 2291 1978 2150 2013 
Q 2047 2034 1813 2034 
L 1109 2034 
L 1109 0 
L 503 0 
z
M 1109 2559 
L 2413 2559 
Q 2828 2559 3062 2645 
Q 3297 2731 3419 2920 
Q 3541 3109 3541 3331 
Q 3541 3656 3305 3865 
Q 3069 4075 2559 4075 
L 1109 4075 
L 1109 2559 
z
" transform="scale(0.015625)"/>
       <path id="ArialMT-77" d="M 1034 0 
L 19 3319 
L 600 3319 
L 1128 1403 
L 1325 691 
Q 1338 744 1497 1375 
L 2025 3319 
L 2603 3319 
L 3100 1394 
L 3266 759 
L 3456 1400 
L 4025 3319 
L 4572 3319 
L 3534 0 
L 2950 0 
L 2422 1988 
L 2294 2553 
L 1622 0 
L 1034 0 
z
" transform="scale(0.015625)"/>
       <path id="ArialMT-61" d="M 2588 409 
Q 2275 144 1986 34 
Q 1697 -75 1366 -75 
Q 819 -75 525 192 
Q 231 459 231 875 
Q 231 1119 342 1320 
Q 453 1522 633 1644 
Q 813 1766 1038 1828 
Q 1203 1872 1538 1913 
Q 2219 1994 2541 2106 
Q 2544 2222 2544 2253 
Q 2544 2597 2384 2738 
Q 2169 2928 1744 2928 
Q 1347 2928 1158 2789 
Q 969 2650 878 2297 
L 328 2372 
Q 403 2725 575 2942 
Q 747 3159 1072 3276 
Q 1397 3394 1825 3394 
Q 2250 3394 2515 3294 
Q 2781 3194 2906 3042 
Q 3031 2891 3081 2659 
Q 3109 2516 3109 2141 
L 3109 1391 
Q 3109 606 3145 398 
Q 3181 191 3288 0 
L 2700 0 
Q 2613 175 2588 409 
z
M 2541 1666 
Q 2234 1541 1622 1453 
Q 1275 1403 1131 1340 
Q 988 1278 909 1158 
Q 831 1038 831 891 
Q 831 666 1001 516 
Q 1172 366 1500 366 
Q 1825 366 2078 508 
Q 2331 650 2450 897 
Q 2541 1088 2541 1459 
L 2541 1666 
z
" transform="scale(0.015625)"/>
       <path id="ArialMT-72" d="M 416 0 
L 416 3319 
L 922 3319 
L 922 2816 
Q 1116 3169 1280 3281 
Q 1444 3394 1641 3394 
Q 1925 3394 2219 3213 
L 2025 2691 
Q 1819 2813 1613 2813 
Q 1428 2813 1281 2702 
Q 1134 2591 1072 2394 
Q 978 2094 978 1738 
L 978 0 
L 416 0 
z
" transform="scale(0.015625)"/>
      </defs>
      <use xlink:href="#ArialMT-52"/>
      <use xlink:href="#ArialMT-65" transform="translate(72.216797 0)"/>
      <use xlink:href="#ArialMT-77" transform="translate(127.832031 0)"/>
      <use xlink:href="#ArialMT-61" transform="translate(200.048828 0)"/>
      <use xlink:href="#ArialMT-72" transform="translate(255.664062 0)"/>
      <use xlink:href="#ArialMT-64" transform="translate(288.964844 0)"/>
     </g>
    </g>
   </g>
   <g id="FillBetweenPolyCollection_1">
    <path d="M 58.554231 373.817092 
L 58.554231 374.747137 
L 61.865641 374.545721 
L 65.177051 373.558951 
L 68.488462 371.481344 
L 71.799872 367.55219 
L 75.111282 365.07121 
L 78.422692 359.021757 
L 81.734103 352.667755 
L 85.045513 344.763282 
L 88.356923 334.788275 
L 91.668333 324.603251 
L 94.979744 306.650881 
L 98.291154 294.824895 
L 101.602564 272.270326 
L 104.913974 262.439477 
L 108.225385 232.803869 
L 111.536795 243.628424 
L 114.848205 258.954644 
L 118.159615 246.22433 
L 121.471026 245.046836 
L 124.782436 254.894771 
L 128.093846 204.867639 
L 131.405256 234.654491 
L 134.716667 229.679034 
L 138.028077 254.516111 
L 141.339487 248.204492 
L 144.650897 207.834118 
L 147.962308 236.484764 
L 151.273718 236.87443 
L 154.585128 232.789727 
L 157.896538 197.7397 
L 161.207949 204.607523 
L 164.519359 223.465599 
L 167.830769 240.811534 
L 171.142179 266.08975 
L 174.45359 221.500822 
L 177.765 223.479481 
L 181.07641 240.493982 
L 184.387821 247.079957 
L 187.699231 251.213313 
L 191.010641 246.141128 
L 194.322051 242.746559 
L 197.633462 247.884521 
L 200.944872 222.578104 
L 204.256282 218.429602 
L 207.567692 234.878233 
L 210.879103 210.047422 
L 214.190513 227.265901 
L 217.501923 235.21036 
L 220.813333 253.366589 
L 224.124744 201.365669 
L 227.436154 190.861492 
L 230.747564 199.781271 
L 234.058974 219.803049 
L 237.370385 259.109135 
L 240.681795 236.115307 
L 243.993205 226.549199 
L 247.304615 256.757061 
L 250.616026 284.979164 
L 253.927436 278.173415 
L 257.238846 268.483652 
L 260.550256 264.141592 
L 263.861667 280.467545 
L 267.173077 290.688752 
L 270.484487 288.130021 
L 273.795897 292.716242 
L 277.107308 288.522954 
L 280.418718 293.697254 
L 283.730128 293.004418 
L 287.041538 297.934876 
L 290.352949 294.299669 
L 293.664359 308.45781 
L 296.975769 291.641491 
L 300.287179 282.386036 
L 303.59859 272.978314 
L 306.91 283.312645 
L 310.22141 262.340968 
L 313.532821 270.05081 
L 316.844231 273.270681 
L 320.155641 293.053975 
L 323.467051 289.351677 
L 326.778462 302.005927 
L 330.089872 286.373036 
L 333.401282 285.14216 
L 336.712692 269.201457 
L 340.024103 268.747937 
L 343.335513 273.518094 
L 346.646923 271.704847 
L 349.958333 252.725512 
L 353.269744 256.756268 
L 356.581154 253.376482 
L 359.892564 257.159142 
L 363.203974 251.151754 
L 366.515385 249.358899 
L 369.826795 227.023343 
L 373.138205 207.690848 
L 376.449615 218.524561 
L 379.761026 225.811672 
L 383.072436 225.064421 
L 386.383846 195.116494 
L 389.695256 195.209862 
L 393.006667 223.258384 
L 396.318077 231.41126 
L 399.629487 217.479795 
L 402.940897 212.328549 
L 406.252308 185.482271 
L 409.563718 206.319669 
L 412.875128 180.439721 
L 416.186538 206.985188 
L 419.497949 226.644572 
L 422.809359 217.739863 
L 426.120769 168.723986 
L 429.432179 188.939749 
L 432.74359 199.16014 
L 436.055 191.556469 
L 439.36641 221.503483 
L 442.677821 228.97904 
L 445.989231 193.6673 
L 449.300641 213.015341 
L 452.612051 235.600588 
L 455.923462 252.300826 
L 459.234872 226.71788 
L 462.546282 206.881621 
L 465.857692 205.14104 
L 469.169103 188.325421 
L 472.480513 202.226122 
L 475.791923 197.597271 
L 479.103333 175.646085 
L 482.414744 157.416328 
L 485.726154 79.890588 
L 489.037564 137.303977 
L 492.348974 187.60206 
L 495.660385 233.401683 
L 498.971795 180.483774 
L 502.283205 200.893288 
L 505.594615 104.717129 
L 508.906026 123.177412 
L 512.217436 141.446658 
L 515.528846 110.97888 
L 518.840256 158.302925 
L 522.151667 68.26066 
L 525.463077 55.479799 
L 528.774487 105.247861 
L 532.085897 185.950472 
L 535.397308 130.245015 
L 538.708718 146.510026 
L 542.020128 103.705141 
L 545.331538 55.228686 
L 548.642949 120.120212 
L 551.954359 159.938863 
L 551.954359 10.949973 
L 551.954359 10.949973 
L 548.642949 13.49052 
L 545.331538 38.457496 
L 542.020128 35.619114 
L 538.708718 19.374872 
L 535.397308 24.256878 
L 532.085897 41.203121 
L 528.774487 31.494209 
L 525.463077 37.119762 
L 522.151667 32.786502 
L 518.840256 35.724463 
L 515.528846 34.79889 
L 512.217436 48.792986 
L 508.906026 39.274339 
L 505.594615 31.031793 
L 502.283205 47.495529 
L 498.971795 27.055563 
L 495.660385 61.332714 
L 492.348974 39.930098 
L 489.037564 57.141941 
L 485.726154 41.311636 
L 482.414744 51.842968 
L 479.103333 58.602091 
L 475.791923 67.987646 
L 472.480513 40.061736 
L 469.169103 48.388099 
L 465.857692 45.105417 
L 462.546282 36.973218 
L 459.234872 56.247851 
L 455.923462 36.829612 
L 452.612051 25.447501 
L 449.300641 78.019092 
L 445.989231 37.92458 
L 442.677821 69.952678 
L 439.36641 58.479423 
L 436.055 24.508232 
L 432.74359 44.122178 
L 429.432179 47.186542 
L 426.120769 74.168791 
L 422.809359 74.005176 
L 419.497949 44.347745 
L 416.186538 67.701227 
L 412.875128 68.807717 
L 409.563718 68.792787 
L 406.252308 67.51309 
L 402.940897 70.161905 
L 399.629487 53.521269 
L 396.318077 33.114359 
L 393.006667 33.37852 
L 389.695256 59.839508 
L 386.383846 95.705678 
L 383.072436 110.42772 
L 379.761026 89.894236 
L 376.449615 88.166437 
L 373.138205 65.981021 
L 369.826795 107.832922 
L 366.515385 102.112376 
L 363.203974 113.670686 
L 359.892564 144.749003 
L 356.581154 113.171015 
L 353.269744 77.050409 
L 349.958333 84.249719 
L 346.646923 68.680369 
L 343.335513 81.670743 
L 340.024103 89.217731 
L 336.712692 91.597206 
L 333.401282 119.074294 
L 330.089872 155.32579 
L 326.778462 128.842978 
L 323.467051 169.655417 
L 320.155641 132.427924 
L 316.844231 117.028013 
L 313.532821 196.323097 
L 310.22141 166.902771 
L 306.91 139.457925 
L 303.59859 149.654332 
L 300.287179 170.382418 
L 296.975769 173.475796 
L 293.664359 118.018522 
L 290.352949 121.638934 
L 287.041538 130.822558 
L 283.730128 183.361824 
L 280.418718 211.467435 
L 277.107308 199.39421 
L 273.795897 175.441353 
L 270.484487 188.281685 
L 267.173077 182.645606 
L 263.861667 189.470038 
L 260.550256 150.791841 
L 257.238846 178.717973 
L 253.927436 166.996695 
L 250.616026 130.971517 
L 247.304615 137.339209 
L 243.993205 136.753058 
L 240.681795 168.923762 
L 237.370385 188.119201 
L 234.058974 157.235194 
L 230.747564 77.654044 
L 227.436154 101.288459 
L 224.124744 110.614982 
L 220.813333 161.255785 
L 217.501923 128.190793 
L 214.190513 136.623056 
L 210.879103 156.086251 
L 207.567692 125.940234 
L 204.256282 117.18798 
L 200.944872 129.101873 
L 197.633462 158.661653 
L 194.322051 179.731319 
L 191.010641 164.915742 
L 187.699231 129.605446 
L 184.387821 150.04993 
L 181.07641 146.871916 
L 177.765 119.655109 
L 174.45359 119.725546 
L 171.142179 105.760749 
L 167.830769 126.938526 
L 164.519359 84.704428 
L 161.207949 124.904475 
L 157.896538 130.866037 
L 154.585128 173.626332 
L 151.273718 167.256662 
L 147.962308 200.742574 
L 144.650897 166.5868 
L 141.339487 207.331017 
L 138.028077 192.679139 
L 134.716667 172.812428 
L 131.405256 222.022968 
L 128.093846 155.493697 
L 124.782436 188.519728 
L 121.471026 179.215513 
L 118.159615 191.513763 
L 114.848205 215.162921 
L 111.536795 223.303654 
L 108.225385 201.312916 
L 104.913974 212.932302 
L 101.602564 250.088185 
L 98.291154 260.615605 
L 94.979744 274.549548 
L 91.668333 304.232151 
L 88.356923 320.622114 
L 85.045513 334.011539 
L 81.734103 348.753245 
L 78.422692 355.006916 
L 75.111282 361.920337 
L 71.799872 365.342519 
L 68.488462 369.582183 
L 65.177051 373.078105 
L 61.865641 373.304403 
L 58.554231 373.817092 
z
" clip-path="url(#p78a239ea3b)" style="fill: #0000ff; fill-opacity: 0.1"/>
   </g>
   <g id="line2d_28">
    <path d="M 58.554231 374.282114 
L 61.865641 373.925062 
L 65.177051 373.318528 
L 68.488462 370.531763 
L 71.799872 366.447354 
L 75.111282 363.495773 
L 81.734103 350.7105 
L 88.356923 327.705195 
L 91.668333 314.417701 
L 94.979744 290.600214 
L 98.291154 277.72025 
L 101.602564 261.179255 
L 104.913974 237.68589 
L 108.225385 217.058393 
L 111.536795 233.466039 
L 114.848205 237.058783 
L 118.159615 218.869047 
L 121.471026 212.131175 
L 124.782436 221.70725 
L 128.093846 180.180668 
L 131.405256 228.338729 
L 134.716667 201.245731 
L 138.028077 223.597625 
L 141.339487 227.767755 
L 144.650897 187.210459 
L 147.962308 218.613669 
L 151.273718 202.065546 
L 154.585128 203.208029 
L 157.896538 164.302868 
L 161.207949 164.755999 
L 164.519359 154.085013 
L 167.830769 183.87503 
L 171.142179 185.92525 
L 174.45359 170.613184 
L 177.765 171.567295 
L 181.07641 193.682949 
L 184.387821 198.564944 
L 187.699231 190.409379 
L 191.010641 205.528435 
L 194.322051 211.238939 
L 197.633462 203.273087 
L 200.944872 175.839988 
L 204.256282 167.808791 
L 207.567692 180.409233 
L 210.879103 183.066836 
L 214.190513 181.944478 
L 217.501923 181.700576 
L 220.813333 207.311187 
L 224.124744 155.990326 
L 227.436154 146.074975 
L 230.747564 138.717658 
L 234.058974 188.519122 
L 237.370385 223.614168 
L 243.993205 181.651129 
L 247.304615 197.048135 
L 250.616026 207.97534 
L 253.927436 222.585055 
L 257.238846 223.600812 
L 260.550256 207.466716 
L 263.861667 234.968792 
L 267.173077 236.667179 
L 270.484487 238.205853 
L 273.795897 234.078798 
L 277.107308 243.958582 
L 280.418718 252.582344 
L 283.730128 238.183121 
L 287.041538 214.378717 
L 290.352949 207.969301 
L 293.664359 213.238166 
L 296.975769 232.558644 
L 300.287179 226.384227 
L 303.59859 211.316323 
L 306.91 211.385285 
L 310.22141 214.62187 
L 313.532821 233.186954 
L 316.844231 195.149347 
L 320.155641 212.74095 
L 323.467051 229.503547 
L 326.778462 215.424453 
L 330.089872 220.849413 
L 333.401282 202.108227 
L 336.712692 180.399332 
L 343.335513 177.594418 
L 346.646923 170.192608 
L 353.269744 166.903338 
L 356.581154 183.273749 
L 359.892564 200.954072 
L 363.203974 182.41122 
L 366.515385 175.735638 
L 369.826795 167.428133 
L 373.138205 136.835934 
L 376.449615 153.345499 
L 379.761026 157.852954 
L 383.072436 167.74607 
L 386.383846 145.411086 
L 389.695256 127.524685 
L 393.006667 128.318452 
L 396.318077 132.26281 
L 399.629487 135.500532 
L 402.940897 141.245227 
L 406.252308 126.497681 
L 409.563718 137.556228 
L 412.875128 124.623719 
L 416.186538 137.343207 
L 419.497949 135.496158 
L 422.809359 145.872519 
L 426.120769 121.446389 
L 429.432179 118.063145 
L 432.74359 121.641159 
L 436.055 108.03235 
L 439.36641 139.991453 
L 442.677821 149.465859 
L 445.989231 115.79594 
L 449.300641 145.517217 
L 452.612051 130.524045 
L 455.923462 144.565219 
L 459.234872 141.482866 
L 462.546282 121.927419 
L 465.857692 125.123229 
L 469.169103 118.35676 
L 472.480513 121.143929 
L 475.791923 132.792459 
L 479.103333 117.124088 
L 482.414744 104.629648 
L 485.726154 60.601112 
L 489.037564 97.222959 
L 492.348974 113.766079 
L 495.660385 147.367198 
L 498.971795 103.769669 
L 502.283205 124.194408 
L 505.594615 67.874461 
L 508.906026 81.225876 
L 512.217436 95.119822 
L 515.528846 72.888885 
L 518.840256 97.013694 
L 522.151667 50.523581 
L 525.463077 46.29978 
L 528.774487 68.371035 
L 532.085897 113.576797 
L 535.397308 77.250947 
L 538.708718 82.942449 
L 542.020128 69.662127 
L 545.331538 46.843091 
L 548.642949 66.805366 
L 551.954359 85.444418 
L 551.954359 85.444418 
" clip-path="url(#p78a239ea3b)" style="fill: none; stroke: #0000ff; stroke-width: 1.5; stroke-linecap: round"/>
   </g>
   <g id="line2d_29">
    <path d="M 58.554231 374.897413 
L 61.865641 373.510526 
L 65.177051 373.385891 
L 68.488462 370.577156 
L 71.799872 366.332464 
L 75.111282 363.905826 
L 78.422692 356.329962 
L 81.734103 351.699713 
L 85.045513 342.463951 
L 88.356923 323.090138 
L 91.668333 319.604383 
L 94.979744 272.742313 
L 98.291154 268.325118 
L 101.602564 271.49955 
L 104.913974 238.9028 
L 108.225385 201.944053 
L 111.536795 233.400107 
L 114.848205 236.60447 
L 118.159615 255.754701 
L 121.471026 251.749517 
L 124.782436 259.25993 
L 128.093846 216.581271 
L 131.405256 220.153265 
L 134.716667 179.901559 
L 138.028077 260.146252 
L 141.339487 233.613342 
L 144.650897 169.981763 
L 147.962308 208.577024 
L 151.273718 251.739267 
L 154.585128 183.815731 
L 157.896538 135.770734 
L 161.207949 122.707917 
L 164.519359 81.842796 
L 167.830769 112.503807 
L 171.142179 134.438748 
L 174.45359 125.667887 
L 177.765 243.170931 
L 181.07641 246.091955 
L 184.387821 274.519865 
L 187.699231 301.877463 
L 191.010641 248.539465 
L 194.322051 211.542986 
L 197.633462 206.265884 
L 200.944872 97.528693 
L 204.256282 71.327111 
L 207.567692 97.616324 
L 210.879103 140.85721 
L 214.190513 218.28381 
L 217.501923 155.1897 
L 220.813333 225.294267 
L 224.124744 153.787608 
L 227.436154 108.998579 
L 230.747564 161.078483 
L 234.058974 167.617327 
L 237.370385 223.992325 
L 240.681795 239.052288 
L 243.993205 167.808522 
L 247.304615 215.229254 
L 250.616026 252.155385 
L 253.927436 224.067437 
L 257.238846 187.613062 
L 260.550256 140.156165 
L 263.861667 158.949854 
L 267.173077 138.676179 
L 270.484487 199.164383 
L 273.795897 242.737933 
L 277.107308 181.887856 
L 280.418718 209.27807 
L 283.730128 153.086562 
L 287.041538 90.226134 
L 290.352949 127.225767 
L 293.664359 187.671482 
L 296.975769 227.791742 
L 300.287179 241.913173 
L 303.59859 252.155385 
L 306.91 251.700321 
L 310.22141 212.174698 
L 313.532821 186.290635 
L 316.844231 136.962512 
L 320.155641 200.002696 
L 323.467051 182.822583 
L 326.778462 57.65672 
L 330.089872 173.863007 
L 333.401282 180.682269 
L 336.712692 118.579537 
L 340.024103 39.517163 
L 343.335513 58.270135 
L 346.646923 61.161949 
L 349.958333 59.672227 
L 353.269744 72.904464 
L 356.581154 58.88355 
L 359.892564 93.419786 
L 363.203974 52.048355 
L 366.515385 39.517163 
L 369.826795 73.956032 
L 373.138205 39.517163 
L 376.449615 177.686892 
L 379.761026 151.372895 
L 383.072436 174.181664 
L 386.383846 138.715126 
L 389.695256 86.224331 
L 393.006667 59.496965 
L 396.318077 39.517163 
L 399.629487 39.517163 
L 402.940897 49.244172 
L 406.252308 43.022392 
L 409.563718 39.517163 
L 412.875128 55.378322 
L 416.186538 42.671869 
L 419.497949 66.507422 
L 422.809359 75.796277 
L 426.120769 59.409334 
L 429.432179 39.517163 
L 439.36641 39.517163 
L 442.677821 50.996786 
L 445.989231 39.517163 
L 449.300641 77.636522 
L 452.612051 39.517163 
L 455.923462 61.862994 
L 459.234872 142.415089 
L 462.546282 89.291406 
L 465.857692 56.079367 
L 469.169103 79.301505 
L 472.480513 39.517163 
L 475.791923 76.760215 
L 479.103333 75.708646 
L 482.414744 51.347309 
L 485.726154 77.285999 
L 489.037564 109.855413 
L 492.348974 77.724153 
L 495.660385 77.899414 
L 498.971795 39.517163 
L 502.283205 144.60391 
L 505.594615 39.867686 
L 508.906026 99.281307 
L 512.217436 145.686636 
L 515.528846 89.379037 
L 518.840256 95.600817 
L 522.151667 48.806019 
L 525.463077 39.517163 
L 528.774487 39.517163 
L 532.085897 80.966489 
L 535.397308 39.517163 
L 548.642949 39.517163 
L 551.954359 77.110738 
L 551.954359 77.110738 
" clip-path="url(#p78a239ea3b)" style="fill: none; stroke: #008000; stroke-opacity: 0.2; stroke-linecap: round"/>
   </g>
   <g id="line2d_30">
    <path d="M 58.554231 374.488804 
L 61.865641 375.129298 
L 65.177051 372.881907 
L 68.488462 370.954889 
L 71.799872 368.436577 
L 75.111282 364.899723 
L 78.422692 360.475472 
L 81.734103 353.528783 
L 85.045513 344.09814 
L 88.356923 338.036432 
L 91.668333 323.218378 
L 94.979744 306.834642 
L 98.291154 298.565627 
L 104.913974 243.521454 
L 108.225385 214.428059 
L 111.536795 249.597183 
L 114.848205 241.885681 
L 118.159615 205.915361 
L 121.471026 171.951064 
L 124.782436 175.987388 
L 128.093846 143.482237 
L 131.405256 230.996105 
L 134.716667 195.904275 
L 138.028077 174.678769 
L 141.339487 196.843497 
L 144.650897 172.785946 
L 147.962308 229.64075 
L 151.273718 222.116193 
L 154.585128 249.954579 
L 157.896538 219.125065 
L 161.207949 201.984498 
L 164.519359 229.392688 
L 167.830769 252.856431 
L 171.142179 290.631724 
L 174.45359 250.376123 
L 177.765 216.133937 
L 181.07641 221.789038 
L 184.387821 179.796403 
L 187.699231 194.002137 
L 191.010641 255.263969 
L 194.322051 253.377332 
L 197.633462 194.272996 
L 200.944872 189.271305 
L 204.256282 220.714102 
L 207.567692 230.508294 
L 210.879103 204.379738 
L 214.190513 215.317848 
L 217.501923 263.184116 
L 220.813333 287.278388 
L 224.124744 232.699062 
L 227.436154 214.347169 
L 230.747564 59.058812 
L 234.058974 172.891103 
L 237.370385 227.967003 
L 240.681795 172.715841 
L 243.993205 134.547799 
L 247.304615 112.075391 
L 250.616026 132.966552 
L 253.927436 203.111179 
L 260.550256 257.468574 
L 263.861667 269.460144 
L 267.173077 284.939233 
L 270.484487 292.490793 
L 273.795897 301.829115 
L 277.107308 300.185284 
L 280.418718 297.176486 
L 283.730128 299.792054 
L 287.041538 283.188955 
L 290.352949 267.70753 
L 293.664359 250.974677 
L 296.975769 248.244288 
L 300.287179 227.967003 
L 303.59859 196.821027 
L 306.91 208.369021 
L 310.22141 238.473925 
L 313.532821 256.451852 
L 316.844231 270.83037 
L 320.155641 266.655962 
L 323.467051 273.889478 
L 326.778462 280.618455 
L 330.089872 293.633238 
L 333.401282 291.164518 
L 336.712692 281.699233 
L 340.024103 288.280524 
L 343.335513 287.631248 
L 346.646923 278.953471 
L 349.958333 270.83037 
L 353.269744 262.134217 
L 356.581154 253.89693 
L 359.892564 253.920298 
L 363.203974 243.740531 
L 366.515385 226.41594 
L 369.826795 248.207391 
L 373.138205 251.155063 
L 376.449615 230.683555 
L 379.761026 248.974032 
L 383.072436 253.336094 
L 386.383846 230.508294 
L 389.695256 227.178327 
L 393.006667 223.331339 
L 396.318077 203.561851 
L 399.629487 205.449282 
L 402.940897 209.385923 
L 406.252308 157.783569 
L 409.563718 136.027784 
L 412.875128 127.428291 
L 416.186538 151.05353 
L 419.497949 59.409334 
L 422.809359 173.480618 
L 426.120769 180.544185 
L 429.432179 237.005853 
L 432.74359 260.556864 
L 436.055 239.810036 
L 439.36641 260.546849 
L 442.677821 274.39933 
L 445.989231 264.986805 
L 449.300641 248.623509 
L 452.612051 276.088212 
L 455.923462 267.790988 
L 459.234872 247.688781 
L 462.546282 251.828846 
L 465.857692 236.77389 
L 469.169103 229.500541 
L 472.480513 256.619939 
L 475.791923 215.993728 
L 479.103333 192.754064 
L 482.414744 161.180453 
L 485.726154 89.466668 
L 489.037564 155.540222 
L 492.348974 180.894708 
L 495.660385 238.351242 
L 498.971795 177.155797 
L 502.283205 156.451582 
L 505.594615 90.167713 
L 508.906026 46.790512 
L 512.217436 39.517163 
L 515.528846 51.522571 
L 518.840256 56.692782 
L 522.151667 39.517163 
L 532.085897 39.517163 
L 535.397308 63.265086 
L 538.708718 39.517163 
L 542.020128 48.017342 
L 545.331538 39.517163 
L 551.954359 39.517163 
L 551.954359 39.517163 
" clip-path="url(#p78a239ea3b)" style="fill: none; stroke: #008000; stroke-opacity: 0.2; stroke-linecap: round"/>
   </g>
   <g id="line2d_31">
    <path d="M 58.554231 374.092236 
L 65.177051 373.317496 
L 68.488462 368.698865 
L 71.799872 365.722076 
L 75.111282 361.838152 
L 78.422692 354.38682 
L 81.734103 349.214399 
L 85.045513 340.253011 
L 88.356923 327.551338 
L 91.668333 310.200913 
L 94.979744 301.0072 
L 98.291154 285.767076 
L 101.602564 266.840447 
L 104.913974 194.565098 
L 108.225385 207.498492 
L 111.536795 235.196537 
L 114.848205 199.733063 
L 118.159615 210.27186 
L 121.471026 213.142808 
L 124.782436 256.373958 
L 128.093846 194.987523 
L 131.405256 238.366707 
L 134.716667 170.039122 
L 138.028077 202.05961 
L 141.339487 213.226266 
L 144.650897 179.535104 
L 147.962308 233.954243 
L 151.273718 166.725087 
L 154.585128 172.269721 
L 157.896538 128.783646 
L 161.207949 120.277625 
L 164.519359 61.950625 
L 167.830769 120.760568 
L 171.142179 64.491916 
L 174.45359 110.634352 
L 177.765 99.719461 
L 181.07641 107.956747 
L 184.387821 191.001449 
L 187.699231 185.054245 
L 191.010641 151.193739 
L 194.322051 168.649776 
L 197.633462 230.482005 
L 200.944872 186.15255 
L 204.256282 183.285453 
L 207.567692 222.928238 
L 214.190513 200.326256 
L 217.501923 226.322467 
L 220.813333 178.265786 
L 224.124744 152.9591 
L 227.436154 181.447047 
L 230.747564 241.987917 
L 234.058974 250.384322 
L 237.370385 278.025094 
L 240.681795 246.879094 
L 243.993205 267.427112 
L 247.304615 283.06043 
L 250.616026 306.298964 
L 253.927436 289.817432 
L 257.238846 286.509575 
L 260.550256 280.676875 
L 263.861667 290.517479 
L 267.173077 283.901685 
L 270.484487 293.521033 
L 273.795897 289.547799 
L 277.107308 281.728444 
L 280.418718 282.415468 
L 283.730128 295.580587 
L 287.041538 297.695363 
L 290.352949 276.616652 
L 293.664359 290.283797 
L 296.975769 282.166597 
L 300.287179 275.860996 
L 303.59859 241.457264 
L 306.91 237.170805 
L 310.22141 214.628358 
L 313.532821 240.840986 
L 316.844231 207.228859 
L 320.155641 239.52137 
L 323.467051 274.702747 
L 330.089872 248.467721 
L 333.401282 228.840733 
L 336.712692 217.744544 
L 340.024103 202.335021 
L 343.335513 69.749758 
L 346.646923 42.058454 
L 349.958333 130.723206 
L 353.269744 181.303651 
L 356.581154 162.340365 
L 359.892564 234.583122 
L 363.203974 178.324207 
L 366.515385 197.507366 
L 369.826795 158.484614 
L 373.138205 116.398506 
L 376.449615 188.030993 
L 379.761026 151.82468 
L 383.072436 109.933307 
L 386.383846 139.688801 
L 389.695256 55.20306 
L 393.006667 46.702882 
L 396.318077 58.182505 
L 399.629487 140.958472 
L 402.940897 146.286419 
L 406.252308 95.289241 
L 409.563718 153.857713 
L 412.875128 83.069626 
L 416.186538 77.285999 
L 419.497949 65.368223 
L 422.809359 52.837031 
L 426.120769 82.894364 
L 429.432179 61.249579 
L 432.74359 84.909871 
L 436.055 39.517163 
L 439.36641 99.719461 
L 442.677821 96.214232 
L 445.989231 88.434573 
L 449.300641 106.66176 
L 452.612051 57.130936 
L 455.923462 39.517163 
L 459.234872 44.862637 
L 462.546282 39.517163 
L 465.857692 46.177097 
L 469.169103 40.30584 
L 472.480513 55.465953 
L 475.791923 39.517163 
L 482.414744 39.517163 
L 485.726154 46.790512 
L 489.037564 50.821525 
L 492.348974 39.517163 
L 495.660385 48.280234 
L 498.971795 46.878143 
L 502.283205 39.517163 
L 505.594615 39.517163 
L 508.906026 154.208236 
L 512.217436 116.719818 
L 515.528846 43.635807 
L 518.840256 79.82729 
L 522.151667 39.517163 
L 525.463077 62.651671 
L 528.774487 39.517163 
L 532.085897 46.352359 
L 535.397308 39.517163 
L 538.708718 93.030317 
L 542.020128 101.910228 
L 545.331538 57.481459 
L 548.642949 39.517163 
L 551.954359 39.517163 
L 551.954359 39.517163 
" clip-path="url(#p78a239ea3b)" style="fill: none; stroke: #008000; stroke-opacity: 0.2; stroke-linecap: round"/>
   </g>
   <g id="line2d_32">
    <path d="M 58.554231 373.505581 
L 65.177051 373.39124 
L 68.488462 371.350218 
L 71.799872 366.560911 
L 81.734103 351.186271 
L 85.045513 328.951206 
L 88.356923 317.598614 
L 91.668333 296.325216 
L 94.979744 269.493527 
L 98.291154 249.461894 
L 101.602564 243.60393 
L 104.913974 271.818207 
L 108.225385 247.143524 
L 111.536795 231.453454 
L 114.848205 238.745581 
L 118.159615 179.407641 
L 121.471026 178.499468 
L 124.782436 223.518284 
L 128.093846 167.878626 
L 131.405256 223.378075 
L 134.716667 208.878114 
L 138.028077 238.08835 
L 141.339487 254.701288 
L 144.650897 226.743095 
L 147.962308 188.022005 
L 151.273718 158.905242 
L 154.585128 184.378692 
L 157.896538 153.647399 
L 161.207949 217.629501 
L 164.519359 217.629501 
L 167.830769 227.297254 
L 171.142179 193.154019 
L 174.45359 165.144548 
L 177.765 159.816601 
L 181.07641 190.943029 
L 184.387821 127.069979 
L 187.699231 136.331571 
L 191.010641 175.520024 
L 194.322051 237.523619 
L 197.633462 259.365087 
L 200.944872 241.944102 
L 204.256282 175.928967 
L 207.567692 218.003392 
L 210.879103 195.733508 
L 214.190513 180.427344 
L 217.501923 128.479859 
L 220.813333 154.558758 
L 224.124744 89.904821 
L 227.436154 129.017328 
L 230.747564 121.928977 
L 234.058974 170.192077 
L 237.370385 222.069457 
L 240.681795 185.568345 
L 243.993205 170.472495 
L 247.304615 150.749744 
L 250.616026 103.078638 
L 253.927436 129.640479 
L 257.238846 160.861796 
L 260.550256 147.05757 
L 263.861667 218.003392 
L 267.173077 252.48746 
L 270.484487 237.869274 
L 273.795897 187.554641 
L 277.107308 250.126043 
L 280.418718 277.107915 
L 283.730128 213.469963 
L 287.041538 139.455119 
L 290.352949 80.878858 
L 293.664359 39.517163 
L 296.975769 122.006871 
L 300.287179 119.699262 
L 306.91 75.971538 
L 310.22141 131.178885 
L 313.532821 197.198513 
L 316.844231 78.337568 
L 320.155641 64.404285 
L 323.467051 134.578957 
L 326.778462 188.022005 
L 330.089872 117.420864 
L 333.401282 52.66177 
L 336.712692 39.517163 
L 340.024103 117.878491 
L 343.335513 211.974399 
L 346.646923 194.74036 
L 349.958333 117.255339 
L 353.269744 53.8886 
L 356.581154 199.610503 
L 359.892564 217.582764 
L 363.203974 228.472341 
L 366.515385 249.277408 
L 369.826795 211.273353 
L 373.138205 105.85361 
L 376.449615 39.517163 
L 379.761026 42.321346 
L 383.072436 99.982353 
L 386.383846 74.481816 
L 389.695256 189.015153 
L 393.006667 263.517948 
L 396.318077 292.756431 
L 399.629487 243.910924 
L 402.940897 227.967003 
L 406.252308 218.183661 
L 409.563718 250.93778 
L 412.875128 218.721964 
L 416.186538 235.686238 
L 419.497949 281.29029 
L 422.809359 247.649834 
L 426.120769 169.465539 
L 429.432179 99.456569 
L 432.74359 76.584953 
L 436.055 46.965774 
L 439.36641 208.253464 
L 442.677821 202.309984 
L 445.989231 108.141745 
L 449.300641 202.21818 
L 452.612051 240.366749 
L 455.923462 283.81756 
L 459.234872 224.693371 
L 462.546282 189.482517 
L 465.857692 206.096401 
L 469.169103 168.719881 
L 472.480513 85.396708 
L 475.791923 170.893123 
L 479.103333 175.730338 
L 482.414744 165.074444 
L 485.726154 39.517163 
L 489.037564 116.710081 
L 492.348974 221.975984 
L 495.660385 260.580232 
L 498.971795 215.780076 
L 502.283205 240.882224 
L 505.594615 130.302578 
L 508.906026 66.33216 
L 512.217436 134.158329 
L 515.528846 140.389846 
L 518.840256 213.430417 
L 522.151667 85.260394 
L 525.463077 39.517163 
L 528.774487 94.987402 
L 532.085897 201.692396 
L 535.397308 62.826932 
L 538.708718 39.517163 
L 542.020128 39.517163 
L 545.331538 41.006886 
L 548.642949 173.416887 
L 551.954359 231.559863 
L 551.954359 231.559863 
" clip-path="url(#p78a239ea3b)" style="fill: none; stroke: #008000; stroke-opacity: 0.2; stroke-linecap: round"/>
   </g>
   <g id="line2d_33">
    <path d="M 58.554231 374.426538 
L 61.865641 373.878616 
L 65.177051 373.616105 
L 68.488462 371.077688 
L 71.799872 365.184744 
L 75.111282 365.355474 
L 78.422692 357.566563 
L 81.734103 347.923333 
L 85.045513 341.170743 
L 88.356923 332.249452 
L 91.668333 322.739615 
L 94.979744 302.923391 
L 98.291154 286.481533 
L 101.602564 252.856431 
L 104.913974 239.621888 
L 108.225385 214.277835 
L 111.536795 217.682914 
L 114.848205 268.325118 
L 118.159615 242.99567 
L 121.471026 245.313015 
L 124.782436 193.396689 
L 128.093846 177.973684 
L 131.405256 228.799495 
L 134.716667 251.505586 
L 138.028077 243.015144 
L 141.339487 240.45438 
L 144.650897 187.006388 
L 147.962308 232.874323 
L 151.273718 210.841941 
L 154.585128 225.621421 
L 157.896538 184.187498 
L 161.207949 161.180453 
L 164.519359 179.609457 
L 167.830769 205.95709 
L 171.142179 246.909842 
L 174.45359 201.243008 
L 177.765 138.995544 
L 181.07641 201.633975 
L 184.387821 220.437022 
L 187.699231 134.781481 
L 191.010641 197.124977 
L 194.322051 185.100982 
L 197.633462 125.979463 
L 200.944872 164.303293 
L 204.256282 187.788323 
L 207.567692 132.98992 
L 210.879103 162.589626 
L 214.190513 95.367135 
L 217.501923 135.326739 
L 220.813333 191.158735 
L 224.124744 150.601037 
L 227.436154 96.564755 
L 230.747564 109.5341 
L 234.058974 181.510778 
L 237.370385 166.01696 
L 240.681795 168.382104 
L 243.993205 167.999716 
L 247.304615 224.125857 
L 253.927436 266.288747 
L 257.238846 252.511334 
L 260.550256 211.974399 
L 263.861667 237.913089 
L 267.173077 223.331339 
L 270.484487 167.983783 
L 273.795897 148.724501 
L 277.107308 205.865287 
L 280.418718 196.933783 
L 287.041538 261.328014 
L 290.352949 287.417699 
L 293.664359 297.743711 
L 296.975769 282.583719 
L 300.287179 266.4807 
L 303.59859 268.59977 
L 306.91 283.71474 
L 310.22141 276.653482 
L 313.532821 285.152782 
L 316.844231 282.387426 
L 320.155641 293.120436 
L 323.467051 281.523972 
L 326.778462 289.426964 
L 330.089872 270.862236 
L 333.401282 257.191845 
L 336.712692 244.456182 
L 340.024103 246.902969 
L 346.646923 274.048807 
L 349.958333 263.956936 
L 353.269744 264.28576 
L 356.581154 241.637394 
L 359.892564 205.26439 
L 363.203974 209.470664 
L 366.515385 165.96031 
L 369.826795 145.219272 
L 373.138205 171.25533 
L 376.449615 130.808889 
L 379.761026 194.771817 
L 383.072436 201.296934 
L 386.383846 143.661393 
L 389.695256 80.002551 
L 393.006667 48.543127 
L 396.318077 67.296098 
L 399.629487 47.666819 
L 402.940897 73.342617 
L 406.252308 118.20954 
L 409.563718 107.4407 
L 412.875128 138.520391 
L 416.186538 180.0184 
L 419.497949 204.905522 
L 422.809359 179.598835 
L 426.120769 114.91852 
L 429.432179 153.086562 
L 432.74359 146.636942 
L 436.055 174.351615 
L 439.36641 91.920328 
L 442.677821 123.408962 
L 445.989231 77.899414 
L 449.300641 92.446112 
L 452.612051 39.517163 
L 455.923462 69.837389 
L 459.234872 47.75445 
L 462.546282 39.517163 
L 465.857692 80.489388 
L 469.169103 73.956032 
L 472.480513 168.719881 
L 475.791923 160.798065 
L 479.103333 101.910228 
L 482.414744 106.028872 
L 485.726154 49.945218 
L 489.037564 53.187554 
L 492.348974 48.718388 
L 495.660385 111.724868 
L 498.971795 39.517163 
L 522.151667 39.517163 
L 525.463077 50.295741 
L 528.774487 128.316282 
L 532.085897 199.355577 
L 535.397308 181.128389 
L 538.708718 203.130438 
L 542.020128 119.348739 
L 545.331538 56.692782 
L 548.642949 42.058454 
L 551.954359 39.517163 
L 551.954359 39.517163 
" clip-path="url(#p78a239ea3b)" style="fill: none; stroke: #008000; stroke-opacity: 0.2; stroke-linecap: round"/>
   </g>
   <g id="line2d_34">
    <path d="M 0 0 
" clip-path="url(#p78a239ea3b)" style="fill: none; stroke: #ff0000; stroke-linecap: round"/>
   </g>
   <g id="line2d_35">
    <path d="M 58.554231 39.517163 
L 61.865641 39.866571 
L 65.177051 43.810604 
L 68.488462 61.38471 
L 71.799872 88.043174 
L 75.111282 125.531956 
L 78.422692 151.366495 
L 81.734103 183.188323 
L 88.356923 231.708136 
L 91.668333 252.360758 
L 94.979744 260.818737 
L 98.291154 279.043106 
L 101.602564 283.573168 
L 104.913974 294.289658 
L 108.225385 294.727887 
L 111.536795 295.031363 
L 114.848205 295.90278 
L 118.159615 295.943022 
L 121.471026 302.132056 
L 124.782436 306.279917 
L 128.093846 312.448862 
L 131.405256 320.553824 
L 134.716667 315.412979 
L 138.028077 314.820539 
L 141.339487 313.006004 
L 144.650897 317.818703 
L 147.962308 320.76398 
L 151.273718 328.541412 
L 154.585128 325.489452 
L 157.896538 327.274709 
L 161.207949 326.745188 
L 167.830769 331.267904 
L 171.142179 328.685646 
L 174.45359 329.191877 
L 177.765 326.221768 
L 181.07641 319.467787 
L 184.387821 309.698676 
L 187.699231 325.159998 
L 191.010641 311.287129 
L 194.322051 323.442907 
L 197.633462 326.228838 
L 200.944872 324.665237 
L 204.256282 318.995765 
L 207.567692 334.137549 
L 210.879103 341.436397 
L 214.190513 346.058502 
L 217.501923 346.18932 
L 220.813333 343.831171 
L 224.124744 340.047622 
L 227.436154 349.6763 
L 230.747564 339.58754 
L 234.058974 333.559608 
L 237.370385 339.563685 
L 240.681795 325.444452 
L 243.993205 341.487113 
L 247.304615 339.636253 
L 250.616026 352.348366 
L 253.927436 339.894961 
L 257.238846 342.757483 
L 260.550256 327.31911 
L 263.861667 328.038294 
L 267.173077 336.101056 
L 270.484487 338.338124 
L 273.795897 352.862187 
L 277.107308 348.644317 
L 280.418718 345.239104 
L 287.041538 337.373694 
L 290.352949 320.395977 
L 293.664359 322.389091 
L 296.975769 322.142709 
L 300.287179 321.76826 
L 303.59859 310.233156 
L 306.91 315.591891 
L 310.22141 315.872323 
L 313.532821 314.176911 
L 316.844231 318.40419 
L 320.155641 329.763409 
L 323.467051 327.73217 
L 326.778462 321.669257 
L 330.089872 329.115697 
L 333.401282 329.163338 
L 336.712692 330.431077 
L 340.024103 337.15224 
L 343.335513 342.459917 
L 346.646923 334.991189 
L 349.958333 326.281272 
L 353.269744 332.882418 
L 356.581154 330.683134 
L 359.892564 343.024685 
L 363.203974 328.298953 
L 369.826795 338.33606 
L 373.138205 335.712555 
L 376.449615 333.42269 
L 379.761026 319.640237 
L 383.072436 322.303808 
L 386.383846 327.542249 
L 389.695256 328.274614 
L 393.006667 337.345049 
L 396.318077 340.371902 
L 399.629487 331.504248 
L 402.940897 330.108084 
L 406.252308 338.067671 
L 409.563718 335.175496 
L 412.875128 331.260378 
L 416.186538 345.445603 
L 419.497949 346.414299 
L 422.809359 349.504762 
L 426.120769 346.544895 
L 429.432179 338.863678 
L 432.74359 346.033232 
L 436.055 336.143124 
L 439.36641 329.987843 
L 442.677821 340.926845 
L 445.989231 341.579806 
L 449.300641 342.700206 
L 452.612051 344.978913 
L 455.923462 336.872342 
L 459.234872 339.447217 
L 462.546282 333.23248 
L 465.857692 330.296176 
L 469.169103 330.921781 
L 472.480513 346.601236 
L 475.791923 332.529208 
L 479.103333 338.699723 
L 482.414744 339.3768 
L 485.726154 346.282994 
L 489.037564 350.584689 
L 492.348974 353.455703 
L 495.660385 369.888007 
L 498.971795 355.866868 
L 502.283205 357.691221 
L 505.594615 352.096448 
L 508.906026 352.133176 
L 512.217436 359.267107 
L 515.528846 355.796295 
L 518.840256 369.918527 
L 522.151667 368.356745 
L 525.463077 361.219689 
L 528.774487 351.537158 
L 532.085897 365.116012 
L 535.397308 344.96032 
L 538.708718 353.056953 
L 542.020128 356.035417 
L 545.331538 364.063426 
L 548.642949 382.188344 
L 551.954359 390.04 
L 551.954359 390.04 
" clip-path="url(#p78a239ea3b)" style="fill: none; stroke: #800080; stroke-linecap: round"/>
   </g>
   <g id="patch_3">
    <path d="M 48.62 390.04 
L 48.62 25.49625 
" style="fill: none; stroke: #ffffff; stroke-width: 0.8; stroke-linejoin: miter; stroke-linecap: square"/>
   </g>
   <g id="patch_4">
    <path d="M 565.2 390.04 
L 565.2 25.49625 
" style="fill: none; stroke: #ffffff; stroke-width: 0.8; stroke-linejoin: miter; stroke-linecap: square"/>
   </g>
   <g id="patch_5">
    <path d="M 48.62 390.04 
L 565.2 390.04 
" style="fill: none; stroke: #ffffff; stroke-width: 0.8; stroke-linejoin: miter; stroke-linecap: square"/>
   </g>
   <g id="patch_6">
    <path d="M 48.62 25.49625 
L 565.2 25.49625 
" style="fill: none; stroke: #ffffff; stroke-width: 0.8; stroke-linejoin: miter; stroke-linecap: square"/>
   </g>
   <g id="text_30">
    <!-- cartpole_GNN_entropy_mlp -->
    <g style="fill: #262626" transform="translate(232.544687 19.49625) scale(0.12 -0.12)">
     <defs>
      <path id="ArialMT-63" d="M 2588 1216 
L 3141 1144 
Q 3050 572 2676 248 
Q 2303 -75 1759 -75 
Q 1078 -75 664 370 
Q 250 816 250 1647 
Q 250 2184 428 2587 
Q 606 2991 970 3192 
Q 1334 3394 1763 3394 
Q 2303 3394 2647 3120 
Q 2991 2847 3088 2344 
L 2541 2259 
Q 2463 2594 2264 2762 
Q 2066 2931 1784 2931 
Q 1359 2931 1093 2626 
Q 828 2322 828 1663 
Q 828 994 1084 691 
Q 1341 388 1753 388 
Q 2084 388 2306 591 
Q 2528 794 2588 1216 
z
" transform="scale(0.015625)"/>
      <path id="ArialMT-74" d="M 1650 503 
L 1731 6 
Q 1494 -44 1306 -44 
Q 1000 -44 831 53 
Q 663 150 594 308 
Q 525 466 525 972 
L 525 2881 
L 113 2881 
L 113 3319 
L 525 3319 
L 525 4141 
L 1084 4478 
L 1084 3319 
L 1650 3319 
L 1650 2881 
L 1084 2881 
L 1084 941 
Q 1084 700 1114 631 
Q 1144 563 1211 522 
Q 1278 481 1403 481 
Q 1497 481 1650 503 
z
" transform="scale(0.015625)"/>
      <path id="ArialMT-6c" d="M 409 0 
L 409 4581 
L 972 4581 
L 972 0 
L 409 0 
z
" transform="scale(0.015625)"/>
      <path id="ArialMT-5f" d="M -97 -1272 
L -97 -866 
L 3631 -866 
L 3631 -1272 
L -97 -1272 
z
" transform="scale(0.015625)"/>
      <path id="ArialMT-47" d="M 2638 1797 
L 2638 2334 
L 4578 2338 
L 4578 638 
Q 4131 281 3656 101 
Q 3181 -78 2681 -78 
Q 2006 -78 1454 211 
Q 903 500 622 1047 
Q 341 1594 341 2269 
Q 341 2938 620 3517 
Q 900 4097 1425 4378 
Q 1950 4659 2634 4659 
Q 3131 4659 3532 4498 
Q 3934 4338 4162 4050 
Q 4391 3763 4509 3300 
L 3963 3150 
Q 3859 3500 3706 3700 
Q 3553 3900 3268 4020 
Q 2984 4141 2638 4141 
Q 2222 4141 1919 4014 
Q 1616 3888 1430 3681 
Q 1244 3475 1141 3228 
Q 966 2803 966 2306 
Q 966 1694 1177 1281 
Q 1388 869 1791 669 
Q 2194 469 2647 469 
Q 3041 469 3416 620 
Q 3791 772 3984 944 
L 3984 1797 
L 2638 1797 
z
" transform="scale(0.015625)"/>
      <path id="ArialMT-4e" d="M 488 0 
L 488 4581 
L 1109 4581 
L 3516 984 
L 3516 4581 
L 4097 4581 
L 4097 0 
L 3475 0 
L 1069 3600 
L 1069 0 
L 488 0 
z
" transform="scale(0.015625)"/>
      <path id="ArialMT-6e" d="M 422 0 
L 422 3319 
L 928 3319 
L 928 2847 
Q 1294 3394 1984 3394 
Q 2284 3394 2536 3286 
Q 2788 3178 2913 3003 
Q 3038 2828 3088 2588 
Q 3119 2431 3119 2041 
L 3119 0 
L 2556 0 
L 2556 2019 
Q 2556 2363 2490 2533 
Q 2425 2703 2258 2804 
Q 2091 2906 1866 2906 
Q 1506 2906 1245 2678 
Q 984 2450 984 1813 
L 984 0 
L 422 0 
z
" transform="scale(0.015625)"/>
      <path id="ArialMT-79" d="M 397 -1278 
L 334 -750 
Q 519 -800 656 -800 
Q 844 -800 956 -737 
Q 1069 -675 1141 -563 
Q 1194 -478 1313 -144 
Q 1328 -97 1363 -6 
L 103 3319 
L 709 3319 
L 1400 1397 
Q 1534 1031 1641 628 
Q 1738 1016 1872 1384 
L 2581 3319 
L 3144 3319 
L 1881 -56 
Q 1678 -603 1566 -809 
Q 1416 -1088 1222 -1217 
Q 1028 -1347 759 -1347 
Q 597 -1347 397 -1278 
z
" transform="scale(0.015625)"/>
      <path id="ArialMT-6d" d="M 422 0 
L 422 3319 
L 925 3319 
L 925 2853 
Q 1081 3097 1340 3245 
Q 1600 3394 1931 3394 
Q 2300 3394 2536 3241 
Q 2772 3088 2869 2813 
Q 3263 3394 3894 3394 
Q 4388 3394 4653 3120 
Q 4919 2847 4919 2278 
L 4919 0 
L 4359 0 
L 4359 2091 
Q 4359 2428 4304 2576 
Q 4250 2725 4106 2815 
Q 3963 2906 3769 2906 
Q 3419 2906 3187 2673 
Q 2956 2441 2956 1928 
L 2956 0 
L 2394 0 
L 2394 2156 
Q 2394 2531 2256 2718 
Q 2119 2906 1806 2906 
Q 1569 2906 1367 2781 
Q 1166 2656 1075 2415 
Q 984 2175 984 1722 
L 984 0 
L 422 0 
z
" transform="scale(0.015625)"/>
     </defs>
     <use xlink:href="#ArialMT-63"/>
     <use xlink:href="#ArialMT-61" transform="translate(50 0)"/>
     <use xlink:href="#ArialMT-72" transform="translate(105.615234 0)"/>
     <use xlink:href="#ArialMT-74" transform="translate(138.916016 0)"/>
     <use xlink:href="#ArialMT-70" transform="translate(166.699219 0)"/>
     <use xlink:href="#ArialMT-6f" transform="translate(222.314453 0)"/>
     <use xlink:href="#ArialMT-6c" transform="translate(277.929688 0)"/>
     <use xlink:href="#ArialMT-65" transform="translate(300.146484 0)"/>
     <use xlink:href="#ArialMT-5f" transform="translate(355.761719 0)"/>
     <use xlink:href="#ArialMT-47" transform="translate(411.376953 0)"/>
     <use xlink:href="#ArialMT-4e" transform="translate(489.160156 0)"/>
     <use xlink:href="#ArialMT-4e" transform="translate(561.376953 0)"/>
     <use xlink:href="#ArialMT-5f" transform="translate(633.59375 0)"/>
     <use xlink:href="#ArialMT-65" transform="translate(689.208984 0)"/>
     <use xlink:href="#ArialMT-6e" transform="translate(744.824219 0)"/>
     <use xlink:href="#ArialMT-74" transform="translate(800.439453 0)"/>
     <use xlink:href="#ArialMT-72" transform="translate(828.222656 0)"/>
     <use xlink:href="#ArialMT-6f" transform="translate(861.523438 0)"/>
     <use xlink:href="#ArialMT-70" transform="translate(917.138672 0)"/>
     <use xlink:href="#ArialMT-79" transform="translate(972.753906 0)"/>
     <use xlink:href="#ArialMT-5f" transform="translate(1022.753906 0)"/>
     <use xlink:href="#ArialMT-6d" transform="translate(1078.369141 0)"/>
     <use xlink:href="#ArialMT-6c" transform="translate(1161.669922 0)"/>
     <use xlink:href="#ArialMT-70" transform="translate(1183.886719 0)"/>
    </g>
   </g>
   <g id="legend_1">
    <g id="patch_7">
     <path d="M 55.62 385.04 
L 209.902813 385.04 
Q 211.902813 385.04 211.902813 383.04 
L 211.902813 312.59625 
Q 211.902813 310.59625 209.902813 310.59625 
L 55.62 310.59625 
Q 53.62 310.59625 53.62 312.59625 
L 53.62 383.04 
Q 53.62 385.04 55.62 385.04 
z
" style="fill: #eaeaf2; opacity: 0.8; stroke: #cccccc; stroke-linejoin: miter"/>
    </g>
    <g id="line2d_36">
     <path d="M 57.62 318.254062 
L 67.62 318.254062 
L 77.62 318.254062 
" style="fill: none; stroke: #0000ff; stroke-width: 1.5; stroke-linecap: round"/>
    </g>
    <g id="text_31">
     <!-- Mean Reward -->
     <g style="fill: #262626" transform="translate(85.62 321.754062) scale(0.1 -0.1)">
      <defs>
       <path id="ArialMT-4d" d="M 475 0 
L 475 4581 
L 1388 4581 
L 2472 1338 
Q 2622 884 2691 659 
Q 2769 909 2934 1394 
L 4031 4581 
L 4847 4581 
L 4847 0 
L 4263 0 
L 4263 3834 
L 2931 0 
L 2384 0 
L 1059 3900 
L 1059 0 
L 475 0 
z
" transform="scale(0.015625)"/>
       <path id="ArialMT-20" transform="scale(0.015625)"/>
      </defs>
      <use xlink:href="#ArialMT-4d"/>
      <use xlink:href="#ArialMT-65" transform="translate(83.300781 0)"/>
      <use xlink:href="#ArialMT-61" transform="translate(138.916016 0)"/>
      <use xlink:href="#ArialMT-6e" transform="translate(194.53125 0)"/>
      <use xlink:href="#ArialMT-20" transform="translate(250.146484 0)"/>
      <use xlink:href="#ArialMT-52" transform="translate(277.929688 0)"/>
      <use xlink:href="#ArialMT-65" transform="translate(350.146484 0)"/>
      <use xlink:href="#ArialMT-77" transform="translate(405.761719 0)"/>
      <use xlink:href="#ArialMT-61" transform="translate(477.978516 0)"/>
      <use xlink:href="#ArialMT-72" transform="translate(533.59375 0)"/>
      <use xlink:href="#ArialMT-64" transform="translate(566.894531 0)"/>
     </g>
    </g>
    <g id="line2d_37">
     <path d="M 57.62 332.52125 
L 67.62 332.52125 
L 77.62 332.52125 
" style="fill: none; stroke: #008000; stroke-opacity: 0.2; stroke-linecap: round"/>
    </g>
    <g id="text_32">
     <!-- Reward (individual runs) -->
     <g style="fill: #262626" transform="translate(85.62 336.02125) scale(0.1 -0.1)">
      <defs>
       <path id="ArialMT-28" d="M 1497 -1347 
Q 1031 -759 709 28 
Q 388 816 388 1659 
Q 388 2403 628 3084 
Q 909 3875 1497 4659 
L 1900 4659 
Q 1522 4009 1400 3731 
Q 1209 3300 1100 2831 
Q 966 2247 966 1656 
Q 966 153 1900 -1347 
L 1497 -1347 
z
" transform="scale(0.015625)"/>
       <path id="ArialMT-76" d="M 1344 0 
L 81 3319 
L 675 3319 
L 1388 1331 
Q 1503 1009 1600 663 
Q 1675 925 1809 1294 
L 2547 3319 
L 3125 3319 
L 1869 0 
L 1344 0 
z
" transform="scale(0.015625)"/>
       <path id="ArialMT-75" d="M 2597 0 
L 2597 488 
Q 2209 -75 1544 -75 
Q 1250 -75 995 37 
Q 741 150 617 320 
Q 494 491 444 738 
Q 409 903 409 1263 
L 409 3319 
L 972 3319 
L 972 1478 
Q 972 1038 1006 884 
Q 1059 663 1231 536 
Q 1403 409 1656 409 
Q 1909 409 2131 539 
Q 2353 669 2445 892 
Q 2538 1116 2538 1541 
L 2538 3319 
L 3100 3319 
L 3100 0 
L 2597 0 
z
" transform="scale(0.015625)"/>
       <path id="ArialMT-29" d="M 791 -1347 
L 388 -1347 
Q 1322 153 1322 1656 
Q 1322 2244 1188 2822 
Q 1081 3291 891 3722 
Q 769 4003 388 4659 
L 791 4659 
Q 1378 3875 1659 3084 
Q 1900 2403 1900 1659 
Q 1900 816 1576 28 
Q 1253 -759 791 -1347 
z
" transform="scale(0.015625)"/>
      </defs>
      <use xlink:href="#ArialMT-52"/>
      <use xlink:href="#ArialMT-65" transform="translate(72.216797 0)"/>
      <use xlink:href="#ArialMT-77" transform="translate(127.832031 0)"/>
      <use xlink:href="#ArialMT-61" transform="translate(200.048828 0)"/>
      <use xlink:href="#ArialMT-72" transform="translate(255.664062 0)"/>
      <use xlink:href="#ArialMT-64" transform="translate(288.964844 0)"/>
      <use xlink:href="#ArialMT-20" transform="translate(344.580078 0)"/>
      <use xlink:href="#ArialMT-28" transform="translate(372.363281 0)"/>
      <use xlink:href="#ArialMT-69" transform="translate(405.664062 0)"/>
      <use xlink:href="#ArialMT-6e" transform="translate(427.880859 0)"/>
      <use xlink:href="#ArialMT-64" transform="translate(483.496094 0)"/>
      <use xlink:href="#ArialMT-69" transform="translate(539.111328 0)"/>
      <use xlink:href="#ArialMT-76" transform="translate(561.328125 0)"/>
      <use xlink:href="#ArialMT-69" transform="translate(611.328125 0)"/>
      <use xlink:href="#ArialMT-64" transform="translate(633.544922 0)"/>
      <use xlink:href="#ArialMT-75" transform="translate(689.160156 0)"/>
      <use xlink:href="#ArialMT-61" transform="translate(744.775391 0)"/>
      <use xlink:href="#ArialMT-6c" transform="translate(800.390625 0)"/>
      <use xlink:href="#ArialMT-20" transform="translate(822.607422 0)"/>
      <use xlink:href="#ArialMT-72" transform="translate(850.390625 0)"/>
      <use xlink:href="#ArialMT-75" transform="translate(883.691406 0)"/>
      <use xlink:href="#ArialMT-6e" transform="translate(939.306641 0)"/>
      <use xlink:href="#ArialMT-73" transform="translate(994.921875 0)"/>
      <use xlink:href="#ArialMT-29" transform="translate(1044.921875 0)"/>
     </g>
    </g>
    <g id="line2d_38">
     <path d="M 57.62 346.905625 
L 67.62 346.905625 
L 77.62 346.905625 
" style="fill: none; stroke: #ff0000; stroke-linecap: round"/>
    </g>
    <g id="text_33">
     <!-- Noise std (normalized) -->
     <g style="fill: #262626" transform="translate(85.62 350.405625) scale(0.1 -0.1)">
      <defs>
       <path id="ArialMT-7a" d="M 125 0 
L 125 456 
L 2238 2881 
Q 1878 2863 1603 2863 
L 250 2863 
L 250 3319 
L 2963 3319 
L 2963 2947 
L 1166 841 
L 819 456 
Q 1197 484 1528 484 
L 3063 484 
L 3063 0 
L 125 0 
z
" transform="scale(0.015625)"/>
      </defs>
      <use xlink:href="#ArialMT-4e"/>
      <use xlink:href="#ArialMT-6f" transform="translate(72.216797 0)"/>
      <use xlink:href="#ArialMT-69" transform="translate(127.832031 0)"/>
      <use xlink:href="#ArialMT-73" transform="translate(150.048828 0)"/>
      <use xlink:href="#ArialMT-65" transform="translate(200.048828 0)"/>
      <use xlink:href="#ArialMT-20" transform="translate(255.664062 0)"/>
      <use xlink:href="#ArialMT-73" transform="translate(283.447266 0)"/>
      <use xlink:href="#ArialMT-74" transform="translate(333.447266 0)"/>
      <use xlink:href="#ArialMT-64" transform="translate(361.230469 0)"/>
      <use xlink:href="#ArialMT-20" transform="translate(416.845703 0)"/>
      <use xlink:href="#ArialMT-28" transform="translate(444.628906 0)"/>
      <use xlink:href="#ArialMT-6e" transform="translate(477.929688 0)"/>
      <use xlink:href="#ArialMT-6f" transform="translate(533.544922 0)"/>
      <use xlink:href="#ArialMT-72" transform="translate(589.160156 0)"/>
      <use xlink:href="#ArialMT-6d" transform="translate(622.460938 0)"/>
      <use xlink:href="#ArialMT-61" transform="translate(705.761719 0)"/>
      <use xlink:href="#ArialMT-6c" transform="translate(761.376953 0)"/>
      <use xlink:href="#ArialMT-69" transform="translate(783.59375 0)"/>
      <use xlink:href="#ArialMT-7a" transform="translate(805.810547 0)"/>
      <use xlink:href="#ArialMT-65" transform="translate(855.810547 0)"/>
      <use xlink:href="#ArialMT-64" transform="translate(911.425781 0)"/>
      <use xlink:href="#ArialMT-29" transform="translate(967.041016 0)"/>
     </g>
    </g>
    <g id="line2d_39">
     <path d="M 57.62 361.29 
L 67.62 361.29 
L 77.62 361.29 
" style="fill: none; stroke: #800080; stroke-linecap: round"/>
    </g>
    <g id="text_34">
     <!-- Entropy (normalized) -->
     <g style="fill: #262626" transform="translate(85.62 364.79) scale(0.1 -0.1)">
      <use xlink:href="#ArialMT-45"/>
      <use xlink:href="#ArialMT-6e" transform="translate(66.699219 0)"/>
      <use xlink:href="#ArialMT-74" transform="translate(122.314453 0)"/>
      <use xlink:href="#ArialMT-72" transform="translate(150.097656 0)"/>
      <use xlink:href="#ArialMT-6f" transform="translate(183.398438 0)"/>
      <use xlink:href="#ArialMT-70" transform="translate(239.013672 0)"/>
      <use xlink:href="#ArialMT-79" transform="translate(294.628906 0)"/>
      <use xlink:href="#ArialMT-20" transform="translate(344.628906 0)"/>
      <use xlink:href="#ArialMT-28" transform="translate(372.412109 0)"/>
      <use xlink:href="#ArialMT-6e" transform="translate(405.712891 0)"/>
      <use xlink:href="#ArialMT-6f" transform="translate(461.328125 0)"/>
      <use xlink:href="#ArialMT-72" transform="translate(516.943359 0)"/>
      <use xlink:href="#ArialMT-6d" transform="translate(550.244141 0)"/>
      <use xlink:href="#ArialMT-61" transform="translate(633.544922 0)"/>
      <use xlink:href="#ArialMT-6c" transform="translate(689.160156 0)"/>
      <use xlink:href="#ArialMT-69" transform="translate(711.376953 0)"/>
      <use xlink:href="#ArialMT-7a" transform="translate(733.59375 0)"/>
      <use xlink:href="#ArialMT-65" transform="translate(783.59375 0)"/>
      <use xlink:href="#ArialMT-64" transform="translate(839.208984 0)"/>
      <use xlink:href="#ArialMT-29" transform="translate(894.824219 0)"/>
     </g>
    </g>
    <g id="patch_8">
     <path d="M 57.62 379.0525 
L 77.62 379.0525 
L 77.62 372.0525 
L 57.62 372.0525 
z
" style="fill: #0000ff; fill-opacity: 0.1"/>
    </g>
    <g id="text_35">
     <!-- Reward Standard Deviation -->
     <g style="fill: #262626" transform="translate(85.62 379.0525) scale(0.1 -0.1)">
      <defs>
       <path id="ArialMT-53" d="M 288 1472 
L 859 1522 
Q 900 1178 1048 958 
Q 1197 738 1509 602 
Q 1822 466 2213 466 
Q 2559 466 2825 569 
Q 3091 672 3220 851 
Q 3350 1031 3350 1244 
Q 3350 1459 3225 1620 
Q 3100 1781 2813 1891 
Q 2628 1963 1997 2114 
Q 1366 2266 1113 2400 
Q 784 2572 623 2826 
Q 463 3081 463 3397 
Q 463 3744 659 4045 
Q 856 4347 1234 4503 
Q 1613 4659 2075 4659 
Q 2584 4659 2973 4495 
Q 3363 4331 3572 4012 
Q 3781 3694 3797 3291 
L 3216 3247 
Q 3169 3681 2898 3903 
Q 2628 4125 2100 4125 
Q 1550 4125 1298 3923 
Q 1047 3722 1047 3438 
Q 1047 3191 1225 3031 
Q 1400 2872 2139 2705 
Q 2878 2538 3153 2413 
Q 3553 2228 3743 1945 
Q 3934 1663 3934 1294 
Q 3934 928 3725 604 
Q 3516 281 3123 101 
Q 2731 -78 2241 -78 
Q 1619 -78 1198 103 
Q 778 284 539 648 
Q 300 1013 288 1472 
z
" transform="scale(0.015625)"/>
       <path id="ArialMT-44" d="M 494 0 
L 494 4581 
L 2072 4581 
Q 2606 4581 2888 4516 
Q 3281 4425 3559 4188 
Q 3922 3881 4101 3404 
Q 4281 2928 4281 2316 
Q 4281 1794 4159 1391 
Q 4038 988 3847 723 
Q 3656 459 3429 307 
Q 3203 156 2883 78 
Q 2563 0 2147 0 
L 494 0 
z
M 1100 541 
L 2078 541 
Q 2531 541 2789 625 
Q 3047 709 3200 863 
Q 3416 1078 3536 1442 
Q 3656 1806 3656 2325 
Q 3656 3044 3420 3430 
Q 3184 3816 2847 3947 
Q 2603 4041 2063 4041 
L 1100 4041 
L 1100 541 
z
" transform="scale(0.015625)"/>
      </defs>
      <use xlink:href="#ArialMT-52"/>
      <use xlink:href="#ArialMT-65" transform="translate(72.216797 0)"/>
      <use xlink:href="#ArialMT-77" transform="translate(127.832031 0)"/>
      <use xlink:href="#ArialMT-61" transform="translate(200.048828 0)"/>
      <use xlink:href="#ArialMT-72" transform="translate(255.664062 0)"/>
      <use xlink:href="#ArialMT-64" transform="translate(288.964844 0)"/>
      <use xlink:href="#ArialMT-20" transform="translate(344.580078 0)"/>
      <use xlink:href="#ArialMT-53" transform="translate(372.363281 0)"/>
      <use xlink:href="#ArialMT-74" transform="translate(439.0625 0)"/>
      <use xlink:href="#ArialMT-61" transform="translate(466.845703 0)"/>
      <use xlink:href="#ArialMT-6e" transform="translate(522.460938 0)"/>
      <use xlink:href="#ArialMT-64" transform="translate(578.076172 0)"/>
      <use xlink:href="#ArialMT-61" transform="translate(633.691406 0)"/>
      <use xlink:href="#ArialMT-72" transform="translate(689.306641 0)"/>
      <use xlink:href="#ArialMT-64" transform="translate(722.607422 0)"/>
      <use xlink:href="#ArialMT-20" transform="translate(778.222656 0)"/>
      <use xlink:href="#ArialMT-44" transform="translate(806.005859 0)"/>
      <use xlink:href="#ArialMT-65" transform="translate(878.222656 0)"/>
      <use xlink:href="#ArialMT-76" transform="translate(933.837891 0)"/>
      <use xlink:href="#ArialMT-69" transform="translate(983.837891 0)"/>
      <use xlink:href="#ArialMT-61" transform="translate(1006.054688 0)"/>
      <use xlink:href="#ArialMT-74" transform="translate(1061.669922 0)"/>
      <use xlink:href="#ArialMT-69" transform="translate(1089.453125 0)"/>
      <use xlink:href="#ArialMT-6f" transform="translate(1111.669922 0)"/>
      <use xlink:href="#ArialMT-6e" transform="translate(1167.285156 0)"/>
     </g>
    </g>
   </g>
  </g>
 </g>
 <defs>
  <clipPath id="p78a239ea3b">
   <rect x="48.62" y="25.49625" width="516.58" height="364.54375"/>
  </clipPath>
 </defs>
</svg>
