<?xml version="1.0" encoding="utf-8" standalone="no"?>
<!DOCTYPE svg PUBLIC "-//W3C//DTD SVG 1.1//EN"
  "http://www.w3.org/Graphics/SVG/1.1/DTD/svg11.dtd">
<svg xmlns:xlink="http://www.w3.org/1999/xlink" width="576pt" height="432pt" viewBox="0 0 576 432" xmlns="http://www.w3.org/2000/svg" version="1.1">
 <metadata>
  <rdf:RDF xmlns:dc="http://purl.org/dc/elements/1.1/" xmlns:cc="http://creativecommons.org/ns#" xmlns:rdf="http://www.w3.org/1999/02/22-rdf-syntax-ns#">
   <cc:Work>
    <dc:type rdf:resource="http://purl.org/dc/dcmitype/StillImage"/>
    <dc:date>2025-07-07T22:28:01.880074</dc:date>
    <dc:format>image/svg+xml</dc:format>
    <dc:creator>
     <cc:Agent>
      <dc:title>Matplotlib v3.10.0, https://matplotlib.org/</dc:title>
     </cc:Agent>
    </dc:creator>
   </cc:Work>
  </rdf:RDF>
 </metadata>
 <defs>
  <style type="text/css">*{stroke-linejoin: round; stroke-linecap: butt}</style>
 </defs>
 <g id="figure_1">
  <g id="patch_1">
   <path d="M 0 432 
L 576 432 
L 576 0 
L 0 0 
z
" style="fill: #ffffff"/>
  </g>
  <g id="axes_1">
   <g id="patch_2">
    <path d="M 50.87 390.04 
L 564.289615 390.04 
L 564.289615 26.88 
L 50.87 26.88 
z
" style="fill: #eaeaf2"/>
   </g>
   <g id="matplotlib.axis_1">
    <g id="xtick_1">
     <g id="line2d_1">
      <path d="M 60.743454 390.04 
L 60.743454 26.88 
" clip-path="url(#p0d7d4318e7)" style="fill: none; stroke: #ffffff; stroke-width: 0.8; stroke-linecap: round"/>
     </g>
     <g id="text_1">
      <!-- 0 -->
      <g style="fill: #262626" transform="translate(57.562204 404.638438) scale(0.1 -0.1)">
       <defs>
        <path id="DejaVuSans-30" d="M 2034 4250 
Q 1547 4250 1301 3770 
Q 1056 3291 1056 2328 
Q 1056 1369 1301 889 
Q 1547 409 2034 409 
Q 2525 409 2770 889 
Q 3016 1369 3016 2328 
Q 3016 3291 2770 3770 
Q 2525 4250 2034 4250 
z
M 2034 4750 
Q 2819 4750 3233 4129 
Q 3647 3509 3647 2328 
Q 3647 1150 3233 529 
Q 2819 -91 2034 -91 
Q 1250 -91 836 529 
Q 422 1150 422 2328 
Q 422 3509 836 4129 
Q 1250 4750 2034 4750 
z
" transform="scale(0.015625)"/>
       </defs>
       <use xlink:href="#DejaVuSans-30"/>
      </g>
     </g>
    </g>
    <g id="xtick_2">
     <g id="line2d_2">
      <path d="M 93.654968 390.04 
L 93.654968 26.88 
" clip-path="url(#p0d7d4318e7)" style="fill: none; stroke: #ffffff; stroke-width: 0.8; stroke-linecap: round"/>
     </g>
     <g id="text_2">
      <!-- 10 -->
      <g style="fill: #262626" transform="translate(87.292468 404.638438) scale(0.1 -0.1)">
       <defs>
        <path id="DejaVuSans-31" d="M 794 531 
L 1825 531 
L 1825 4091 
L 703 3866 
L 703 4441 
L 1819 4666 
L 2450 4666 
L 2450 531 
L 3481 531 
L 3481 0 
L 794 0 
L 794 531 
z
" transform="scale(0.015625)"/>
       </defs>
       <use xlink:href="#DejaVuSans-31"/>
       <use xlink:href="#DejaVuSans-30" transform="translate(63.623047 0)"/>
      </g>
     </g>
    </g>
    <g id="xtick_3">
     <g id="line2d_3">
      <path d="M 126.566482 390.04 
L 126.566482 26.88 
" clip-path="url(#p0d7d4318e7)" style="fill: none; stroke: #ffffff; stroke-width: 0.8; stroke-linecap: round"/>
     </g>
     <g id="text_3">
      <!-- 20 -->
      <g style="fill: #262626" transform="translate(120.203982 404.638438) scale(0.1 -0.1)">
       <defs>
        <path id="DejaVuSans-32" d="M 1228 531 
L 3431 531 
L 3431 0 
L 469 0 
L 469 531 
Q 828 903 1448 1529 
Q 2069 2156 2228 2338 
Q 2531 2678 2651 2914 
Q 2772 3150 2772 3378 
Q 2772 3750 2511 3984 
Q 2250 4219 1831 4219 
Q 1534 4219 1204 4116 
Q 875 4013 500 3803 
L 500 4441 
Q 881 4594 1212 4672 
Q 1544 4750 1819 4750 
Q 2544 4750 2975 4387 
Q 3406 4025 3406 3419 
Q 3406 3131 3298 2873 
Q 3191 2616 2906 2266 
Q 2828 2175 2409 1742 
Q 1991 1309 1228 531 
z
" transform="scale(0.015625)"/>
       </defs>
       <use xlink:href="#DejaVuSans-32"/>
       <use xlink:href="#DejaVuSans-30" transform="translate(63.623047 0)"/>
      </g>
     </g>
    </g>
    <g id="xtick_4">
     <g id="line2d_4">
      <path d="M 159.477996 390.04 
L 159.477996 26.88 
" clip-path="url(#p0d7d4318e7)" style="fill: none; stroke: #ffffff; stroke-width: 0.8; stroke-linecap: round"/>
     </g>
     <g id="text_4">
      <!-- 30 -->
      <g style="fill: #262626" transform="translate(153.115496 404.638438) scale(0.1 -0.1)">
       <defs>
        <path id="DejaVuSans-33" d="M 2597 2516 
Q 3050 2419 3304 2112 
Q 3559 1806 3559 1356 
Q 3559 666 3084 287 
Q 2609 -91 1734 -91 
Q 1441 -91 1130 -33 
Q 819 25 488 141 
L 488 750 
Q 750 597 1062 519 
Q 1375 441 1716 441 
Q 2309 441 2620 675 
Q 2931 909 2931 1356 
Q 2931 1769 2642 2001 
Q 2353 2234 1838 2234 
L 1294 2234 
L 1294 2753 
L 1863 2753 
Q 2328 2753 2575 2939 
Q 2822 3125 2822 3475 
Q 2822 3834 2567 4026 
Q 2313 4219 1838 4219 
Q 1578 4219 1281 4162 
Q 984 4106 628 3988 
L 628 4550 
Q 988 4650 1302 4700 
Q 1616 4750 1894 4750 
Q 2613 4750 3031 4423 
Q 3450 4097 3450 3541 
Q 3450 3153 3228 2886 
Q 3006 2619 2597 2516 
z
" transform="scale(0.015625)"/>
       </defs>
       <use xlink:href="#DejaVuSans-33"/>
       <use xlink:href="#DejaVuSans-30" transform="translate(63.623047 0)"/>
      </g>
     </g>
    </g>
    <g id="xtick_5">
     <g id="line2d_5">
      <path d="M 192.389509 390.04 
L 192.389509 26.88 
" clip-path="url(#p0d7d4318e7)" style="fill: none; stroke: #ffffff; stroke-width: 0.8; stroke-linecap: round"/>
     </g>
     <g id="text_5">
      <!-- 40 -->
      <g style="fill: #262626" transform="translate(186.027009 404.638438) scale(0.1 -0.1)">
       <defs>
        <path id="DejaVuSans-34" d="M 2419 4116 
L 825 1625 
L 2419 1625 
L 2419 4116 
z
M 2253 4666 
L 3047 4666 
L 3047 1625 
L 3713 1625 
L 3713 1100 
L 3047 1100 
L 3047 0 
L 2419 0 
L 2419 1100 
L 313 1100 
L 313 1709 
L 2253 4666 
z
" transform="scale(0.015625)"/>
       </defs>
       <use xlink:href="#DejaVuSans-34"/>
       <use xlink:href="#DejaVuSans-30" transform="translate(63.623047 0)"/>
      </g>
     </g>
    </g>
    <g id="xtick_6">
     <g id="line2d_6">
      <path d="M 225.301023 390.04 
L 225.301023 26.88 
" clip-path="url(#p0d7d4318e7)" style="fill: none; stroke: #ffffff; stroke-width: 0.8; stroke-linecap: round"/>
     </g>
     <g id="text_6">
      <!-- 50 -->
      <g style="fill: #262626" transform="translate(218.938523 404.638438) scale(0.1 -0.1)">
       <defs>
        <path id="DejaVuSans-35" d="M 691 4666 
L 3169 4666 
L 3169 4134 
L 1269 4134 
L 1269 2991 
Q 1406 3038 1543 3061 
Q 1681 3084 1819 3084 
Q 2600 3084 3056 2656 
Q 3513 2228 3513 1497 
Q 3513 744 3044 326 
Q 2575 -91 1722 -91 
Q 1428 -91 1123 -41 
Q 819 9 494 109 
L 494 744 
Q 775 591 1075 516 
Q 1375 441 1709 441 
Q 2250 441 2565 725 
Q 2881 1009 2881 1497 
Q 2881 1984 2565 2268 
Q 2250 2553 1709 2553 
Q 1456 2553 1204 2497 
Q 953 2441 691 2322 
L 691 4666 
z
" transform="scale(0.015625)"/>
       </defs>
       <use xlink:href="#DejaVuSans-35"/>
       <use xlink:href="#DejaVuSans-30" transform="translate(63.623047 0)"/>
      </g>
     </g>
    </g>
    <g id="xtick_7">
     <g id="line2d_7">
      <path d="M 258.212537 390.04 
L 258.212537 26.88 
" clip-path="url(#p0d7d4318e7)" style="fill: none; stroke: #ffffff; stroke-width: 0.8; stroke-linecap: round"/>
     </g>
     <g id="text_7">
      <!-- 60 -->
      <g style="fill: #262626" transform="translate(251.850037 404.638438) scale(0.1 -0.1)">
       <defs>
        <path id="DejaVuSans-36" d="M 2113 2584 
Q 1688 2584 1439 2293 
Q 1191 2003 1191 1497 
Q 1191 994 1439 701 
Q 1688 409 2113 409 
Q 2538 409 2786 701 
Q 3034 994 3034 1497 
Q 3034 2003 2786 2293 
Q 2538 2584 2113 2584 
z
M 3366 4563 
L 3366 3988 
Q 3128 4100 2886 4159 
Q 2644 4219 2406 4219 
Q 1781 4219 1451 3797 
Q 1122 3375 1075 2522 
Q 1259 2794 1537 2939 
Q 1816 3084 2150 3084 
Q 2853 3084 3261 2657 
Q 3669 2231 3669 1497 
Q 3669 778 3244 343 
Q 2819 -91 2113 -91 
Q 1303 -91 875 529 
Q 447 1150 447 2328 
Q 447 3434 972 4092 
Q 1497 4750 2381 4750 
Q 2619 4750 2861 4703 
Q 3103 4656 3366 4563 
z
" transform="scale(0.015625)"/>
       </defs>
       <use xlink:href="#DejaVuSans-36"/>
       <use xlink:href="#DejaVuSans-30" transform="translate(63.623047 0)"/>
      </g>
     </g>
    </g>
    <g id="xtick_8">
     <g id="line2d_8">
      <path d="M 291.124051 390.04 
L 291.124051 26.88 
" clip-path="url(#p0d7d4318e7)" style="fill: none; stroke: #ffffff; stroke-width: 0.8; stroke-linecap: round"/>
     </g>
     <g id="text_8">
      <!-- 70 -->
      <g style="fill: #262626" transform="translate(284.761551 404.638438) scale(0.1 -0.1)">
       <defs>
        <path id="DejaVuSans-37" d="M 525 4666 
L 3525 4666 
L 3525 4397 
L 1831 0 
L 1172 0 
L 2766 4134 
L 525 4134 
L 525 4666 
z
" transform="scale(0.015625)"/>
       </defs>
       <use xlink:href="#DejaVuSans-37"/>
       <use xlink:href="#DejaVuSans-30" transform="translate(63.623047 0)"/>
      </g>
     </g>
    </g>
    <g id="xtick_9">
     <g id="line2d_9">
      <path d="M 324.035565 390.04 
L 324.035565 26.88 
" clip-path="url(#p0d7d4318e7)" style="fill: none; stroke: #ffffff; stroke-width: 0.8; stroke-linecap: round"/>
     </g>
     <g id="text_9">
      <!-- 80 -->
      <g style="fill: #262626" transform="translate(317.673065 404.638438) scale(0.1 -0.1)">
       <defs>
        <path id="DejaVuSans-38" d="M 2034 2216 
Q 1584 2216 1326 1975 
Q 1069 1734 1069 1313 
Q 1069 891 1326 650 
Q 1584 409 2034 409 
Q 2484 409 2743 651 
Q 3003 894 3003 1313 
Q 3003 1734 2745 1975 
Q 2488 2216 2034 2216 
z
M 1403 2484 
Q 997 2584 770 2862 
Q 544 3141 544 3541 
Q 544 4100 942 4425 
Q 1341 4750 2034 4750 
Q 2731 4750 3128 4425 
Q 3525 4100 3525 3541 
Q 3525 3141 3298 2862 
Q 3072 2584 2669 2484 
Q 3125 2378 3379 2068 
Q 3634 1759 3634 1313 
Q 3634 634 3220 271 
Q 2806 -91 2034 -91 
Q 1263 -91 848 271 
Q 434 634 434 1313 
Q 434 1759 690 2068 
Q 947 2378 1403 2484 
z
M 1172 3481 
Q 1172 3119 1398 2916 
Q 1625 2713 2034 2713 
Q 2441 2713 2670 2916 
Q 2900 3119 2900 3481 
Q 2900 3844 2670 4047 
Q 2441 4250 2034 4250 
Q 1625 4250 1398 4047 
Q 1172 3844 1172 3481 
z
" transform="scale(0.015625)"/>
       </defs>
       <use xlink:href="#DejaVuSans-38"/>
       <use xlink:href="#DejaVuSans-30" transform="translate(63.623047 0)"/>
      </g>
     </g>
    </g>
    <g id="xtick_10">
     <g id="line2d_10">
      <path d="M 356.947078 390.04 
L 356.947078 26.88 
" clip-path="url(#p0d7d4318e7)" style="fill: none; stroke: #ffffff; stroke-width: 0.8; stroke-linecap: round"/>
     </g>
     <g id="text_10">
      <!-- 90 -->
      <g style="fill: #262626" transform="translate(350.584578 404.638438) scale(0.1 -0.1)">
       <defs>
        <path id="DejaVuSans-39" d="M 703 97 
L 703 672 
Q 941 559 1184 500 
Q 1428 441 1663 441 
Q 2288 441 2617 861 
Q 2947 1281 2994 2138 
Q 2813 1869 2534 1725 
Q 2256 1581 1919 1581 
Q 1219 1581 811 2004 
Q 403 2428 403 3163 
Q 403 3881 828 4315 
Q 1253 4750 1959 4750 
Q 2769 4750 3195 4129 
Q 3622 3509 3622 2328 
Q 3622 1225 3098 567 
Q 2575 -91 1691 -91 
Q 1453 -91 1209 -44 
Q 966 3 703 97 
z
M 1959 2075 
Q 2384 2075 2632 2365 
Q 2881 2656 2881 3163 
Q 2881 3666 2632 3958 
Q 2384 4250 1959 4250 
Q 1534 4250 1286 3958 
Q 1038 3666 1038 3163 
Q 1038 2656 1286 2365 
Q 1534 2075 1959 2075 
z
" transform="scale(0.015625)"/>
       </defs>
       <use xlink:href="#DejaVuSans-39"/>
       <use xlink:href="#DejaVuSans-30" transform="translate(63.623047 0)"/>
      </g>
     </g>
    </g>
    <g id="xtick_11">
     <g id="line2d_11">
      <path d="M 389.858592 390.04 
L 389.858592 26.88 
" clip-path="url(#p0d7d4318e7)" style="fill: none; stroke: #ffffff; stroke-width: 0.8; stroke-linecap: round"/>
     </g>
     <g id="text_11">
      <!-- 100 -->
      <g style="fill: #262626" transform="translate(380.314842 404.638438) scale(0.1 -0.1)">
       <use xlink:href="#DejaVuSans-31"/>
       <use xlink:href="#DejaVuSans-30" transform="translate(63.623047 0)"/>
       <use xlink:href="#DejaVuSans-30" transform="translate(127.246094 0)"/>
      </g>
     </g>
    </g>
    <g id="xtick_12">
     <g id="line2d_12">
      <path d="M 422.770106 390.04 
L 422.770106 26.88 
" clip-path="url(#p0d7d4318e7)" style="fill: none; stroke: #ffffff; stroke-width: 0.8; stroke-linecap: round"/>
     </g>
     <g id="text_12">
      <!-- 110 -->
      <g style="fill: #262626" transform="translate(413.226356 404.638438) scale(0.1 -0.1)">
       <use xlink:href="#DejaVuSans-31"/>
       <use xlink:href="#DejaVuSans-31" transform="translate(63.623047 0)"/>
       <use xlink:href="#DejaVuSans-30" transform="translate(127.246094 0)"/>
      </g>
     </g>
    </g>
    <g id="xtick_13">
     <g id="line2d_13">
      <path d="M 455.68162 390.04 
L 455.68162 26.88 
" clip-path="url(#p0d7d4318e7)" style="fill: none; stroke: #ffffff; stroke-width: 0.8; stroke-linecap: round"/>
     </g>
     <g id="text_13">
      <!-- 120 -->
      <g style="fill: #262626" transform="translate(446.13787 404.638438) scale(0.1 -0.1)">
       <use xlink:href="#DejaVuSans-31"/>
       <use xlink:href="#DejaVuSans-32" transform="translate(63.623047 0)"/>
       <use xlink:href="#DejaVuSans-30" transform="translate(127.246094 0)"/>
      </g>
     </g>
    </g>
    <g id="xtick_14">
     <g id="line2d_14">
      <path d="M 488.593134 390.04 
L 488.593134 26.88 
" clip-path="url(#p0d7d4318e7)" style="fill: none; stroke: #ffffff; stroke-width: 0.8; stroke-linecap: round"/>
     </g>
     <g id="text_14">
      <!-- 130 -->
      <g style="fill: #262626" transform="translate(479.049384 404.638438) scale(0.1 -0.1)">
       <use xlink:href="#DejaVuSans-31"/>
       <use xlink:href="#DejaVuSans-33" transform="translate(63.623047 0)"/>
       <use xlink:href="#DejaVuSans-30" transform="translate(127.246094 0)"/>
      </g>
     </g>
    </g>
    <g id="xtick_15">
     <g id="line2d_15">
      <path d="M 521.504647 390.04 
L 521.504647 26.88 
" clip-path="url(#p0d7d4318e7)" style="fill: none; stroke: #ffffff; stroke-width: 0.8; stroke-linecap: round"/>
     </g>
     <g id="text_15">
      <!-- 140 -->
      <g style="fill: #262626" transform="translate(511.960897 404.638438) scale(0.1 -0.1)">
       <use xlink:href="#DejaVuSans-31"/>
       <use xlink:href="#DejaVuSans-34" transform="translate(63.623047 0)"/>
       <use xlink:href="#DejaVuSans-30" transform="translate(127.246094 0)"/>
      </g>
     </g>
    </g>
    <g id="xtick_16">
     <g id="line2d_16">
      <path d="M 554.416161 390.04 
L 554.416161 26.88 
" clip-path="url(#p0d7d4318e7)" style="fill: none; stroke: #ffffff; stroke-width: 0.8; stroke-linecap: round"/>
     </g>
     <g id="text_16">
      <!-- 150 -->
      <g style="fill: #262626" transform="translate(544.872411 404.638438) scale(0.1 -0.1)">
       <use xlink:href="#DejaVuSans-31"/>
       <use xlink:href="#DejaVuSans-35" transform="translate(63.623047 0)"/>
       <use xlink:href="#DejaVuSans-30" transform="translate(127.246094 0)"/>
      </g>
     </g>
    </g>
    <g id="text_17">
     <!-- Episode -->
     <g style="fill: #262626" transform="translate(287.942308 418.316562) scale(0.1 -0.1)">
      <defs>
       <path id="DejaVuSans-45" d="M 628 4666 
L 3578 4666 
L 3578 4134 
L 1259 4134 
L 1259 2753 
L 3481 2753 
L 3481 2222 
L 1259 2222 
L 1259 531 
L 3634 531 
L 3634 0 
L 628 0 
L 628 4666 
z
" transform="scale(0.015625)"/>
       <path id="DejaVuSans-70" d="M 1159 525 
L 1159 -1331 
L 581 -1331 
L 581 3500 
L 1159 3500 
L 1159 2969 
Q 1341 3281 1617 3432 
Q 1894 3584 2278 3584 
Q 2916 3584 3314 3078 
Q 3713 2572 3713 1747 
Q 3713 922 3314 415 
Q 2916 -91 2278 -91 
Q 1894 -91 1617 61 
Q 1341 213 1159 525 
z
M 3116 1747 
Q 3116 2381 2855 2742 
Q 2594 3103 2138 3103 
Q 1681 3103 1420 2742 
Q 1159 2381 1159 1747 
Q 1159 1113 1420 752 
Q 1681 391 2138 391 
Q 2594 391 2855 752 
Q 3116 1113 3116 1747 
z
" transform="scale(0.015625)"/>
       <path id="DejaVuSans-69" d="M 603 3500 
L 1178 3500 
L 1178 0 
L 603 0 
L 603 3500 
z
M 603 4863 
L 1178 4863 
L 1178 4134 
L 603 4134 
L 603 4863 
z
" transform="scale(0.015625)"/>
       <path id="DejaVuSans-73" d="M 2834 3397 
L 2834 2853 
Q 2591 2978 2328 3040 
Q 2066 3103 1784 3103 
Q 1356 3103 1142 2972 
Q 928 2841 928 2578 
Q 928 2378 1081 2264 
Q 1234 2150 1697 2047 
L 1894 2003 
Q 2506 1872 2764 1633 
Q 3022 1394 3022 966 
Q 3022 478 2636 193 
Q 2250 -91 1575 -91 
Q 1294 -91 989 -36 
Q 684 19 347 128 
L 347 722 
Q 666 556 975 473 
Q 1284 391 1588 391 
Q 1994 391 2212 530 
Q 2431 669 2431 922 
Q 2431 1156 2273 1281 
Q 2116 1406 1581 1522 
L 1381 1569 
Q 847 1681 609 1914 
Q 372 2147 372 2553 
Q 372 3047 722 3315 
Q 1072 3584 1716 3584 
Q 2034 3584 2315 3537 
Q 2597 3491 2834 3397 
z
" transform="scale(0.015625)"/>
       <path id="DejaVuSans-6f" d="M 1959 3097 
Q 1497 3097 1228 2736 
Q 959 2375 959 1747 
Q 959 1119 1226 758 
Q 1494 397 1959 397 
Q 2419 397 2687 759 
Q 2956 1122 2956 1747 
Q 2956 2369 2687 2733 
Q 2419 3097 1959 3097 
z
M 1959 3584 
Q 2709 3584 3137 3096 
Q 3566 2609 3566 1747 
Q 3566 888 3137 398 
Q 2709 -91 1959 -91 
Q 1206 -91 779 398 
Q 353 888 353 1747 
Q 353 2609 779 3096 
Q 1206 3584 1959 3584 
z
" transform="scale(0.015625)"/>
       <path id="DejaVuSans-64" d="M 2906 2969 
L 2906 4863 
L 3481 4863 
L 3481 0 
L 2906 0 
L 2906 525 
Q 2725 213 2448 61 
Q 2172 -91 1784 -91 
Q 1150 -91 751 415 
Q 353 922 353 1747 
Q 353 2572 751 3078 
Q 1150 3584 1784 3584 
Q 2172 3584 2448 3432 
Q 2725 3281 2906 2969 
z
M 947 1747 
Q 947 1113 1208 752 
Q 1469 391 1925 391 
Q 2381 391 2643 752 
Q 2906 1113 2906 1747 
Q 2906 2381 2643 2742 
Q 2381 3103 1925 3103 
Q 1469 3103 1208 2742 
Q 947 2381 947 1747 
z
" transform="scale(0.015625)"/>
       <path id="DejaVuSans-65" d="M 3597 1894 
L 3597 1613 
L 953 1613 
Q 991 1019 1311 708 
Q 1631 397 2203 397 
Q 2534 397 2845 478 
Q 3156 559 3463 722 
L 3463 178 
Q 3153 47 2828 -22 
Q 2503 -91 2169 -91 
Q 1331 -91 842 396 
Q 353 884 353 1716 
Q 353 2575 817 3079 
Q 1281 3584 2069 3584 
Q 2775 3584 3186 3129 
Q 3597 2675 3597 1894 
z
M 3022 2063 
Q 3016 2534 2758 2815 
Q 2500 3097 2075 3097 
Q 1594 3097 1305 2825 
Q 1016 2553 972 2059 
L 3022 2063 
z
" transform="scale(0.015625)"/>
      </defs>
      <use xlink:href="#DejaVuSans-45"/>
      <use xlink:href="#DejaVuSans-70" transform="translate(63.183594 0)"/>
      <use xlink:href="#DejaVuSans-69" transform="translate(126.660156 0)"/>
      <use xlink:href="#DejaVuSans-73" transform="translate(154.443359 0)"/>
      <use xlink:href="#DejaVuSans-6f" transform="translate(206.542969 0)"/>
      <use xlink:href="#DejaVuSans-64" transform="translate(267.724609 0)"/>
      <use xlink:href="#DejaVuSans-65" transform="translate(331.201172 0)"/>
     </g>
    </g>
   </g>
   <g id="matplotlib.axis_2">
    <g id="ytick_1">
     <g id="line2d_17">
      <path d="M 50.87 390.04 
L 564.289615 390.04 
" clip-path="url(#p0d7d4318e7)" style="fill: none; stroke: #ffffff; stroke-width: 0.8; stroke-linecap: round"/>
     </g>
     <g id="text_18">
      <!-- 0 -->
      <g style="fill: #262626" transform="translate(37.5075 393.839219) scale(0.1 -0.1)">
       <use xlink:href="#DejaVuSans-30"/>
      </g>
     </g>
    </g>
    <g id="ytick_2">
     <g id="line2d_18">
      <path d="M 50.87 355.120769 
L 564.289615 355.120769 
" clip-path="url(#p0d7d4318e7)" style="fill: none; stroke: #ffffff; stroke-width: 0.8; stroke-linecap: round"/>
     </g>
     <g id="text_19">
      <!-- 50 -->
      <g style="fill: #262626" transform="translate(31.145 358.919988) scale(0.1 -0.1)">
       <use xlink:href="#DejaVuSans-35"/>
       <use xlink:href="#DejaVuSans-30" transform="translate(63.623047 0)"/>
      </g>
     </g>
    </g>
    <g id="ytick_3">
     <g id="line2d_19">
      <path d="M 50.87 320.201538 
L 564.289615 320.201538 
" clip-path="url(#p0d7d4318e7)" style="fill: none; stroke: #ffffff; stroke-width: 0.8; stroke-linecap: round"/>
     </g>
     <g id="text_20">
      <!-- 100 -->
      <g style="fill: #262626" transform="translate(24.7825 324.000757) scale(0.1 -0.1)">
       <use xlink:href="#DejaVuSans-31"/>
       <use xlink:href="#DejaVuSans-30" transform="translate(63.623047 0)"/>
       <use xlink:href="#DejaVuSans-30" transform="translate(127.246094 0)"/>
      </g>
     </g>
    </g>
    <g id="ytick_4">
     <g id="line2d_20">
      <path d="M 50.87 285.282308 
L 564.289615 285.282308 
" clip-path="url(#p0d7d4318e7)" style="fill: none; stroke: #ffffff; stroke-width: 0.8; stroke-linecap: round"/>
     </g>
     <g id="text_21">
      <!-- 150 -->
      <g style="fill: #262626" transform="translate(24.7825 289.081526) scale(0.1 -0.1)">
       <use xlink:href="#DejaVuSans-31"/>
       <use xlink:href="#DejaVuSans-35" transform="translate(63.623047 0)"/>
       <use xlink:href="#DejaVuSans-30" transform="translate(127.246094 0)"/>
      </g>
     </g>
    </g>
    <g id="ytick_5">
     <g id="line2d_21">
      <path d="M 50.87 250.363077 
L 564.289615 250.363077 
" clip-path="url(#p0d7d4318e7)" style="fill: none; stroke: #ffffff; stroke-width: 0.8; stroke-linecap: round"/>
     </g>
     <g id="text_22">
      <!-- 200 -->
      <g style="fill: #262626" transform="translate(24.7825 254.162296) scale(0.1 -0.1)">
       <use xlink:href="#DejaVuSans-32"/>
       <use xlink:href="#DejaVuSans-30" transform="translate(63.623047 0)"/>
       <use xlink:href="#DejaVuSans-30" transform="translate(127.246094 0)"/>
      </g>
     </g>
    </g>
    <g id="ytick_6">
     <g id="line2d_22">
      <path d="M 50.87 215.443846 
L 564.289615 215.443846 
" clip-path="url(#p0d7d4318e7)" style="fill: none; stroke: #ffffff; stroke-width: 0.8; stroke-linecap: round"/>
     </g>
     <g id="text_23">
      <!-- 250 -->
      <g style="fill: #262626" transform="translate(24.7825 219.243065) scale(0.1 -0.1)">
       <use xlink:href="#DejaVuSans-32"/>
       <use xlink:href="#DejaVuSans-35" transform="translate(63.623047 0)"/>
       <use xlink:href="#DejaVuSans-30" transform="translate(127.246094 0)"/>
      </g>
     </g>
    </g>
    <g id="ytick_7">
     <g id="line2d_23">
      <path d="M 50.87 180.524615 
L 564.289615 180.524615 
" clip-path="url(#p0d7d4318e7)" style="fill: none; stroke: #ffffff; stroke-width: 0.8; stroke-linecap: round"/>
     </g>
     <g id="text_24">
      <!-- 300 -->
      <g style="fill: #262626" transform="translate(24.7825 184.323834) scale(0.1 -0.1)">
       <use xlink:href="#DejaVuSans-33"/>
       <use xlink:href="#DejaVuSans-30" transform="translate(63.623047 0)"/>
       <use xlink:href="#DejaVuSans-30" transform="translate(127.246094 0)"/>
      </g>
     </g>
    </g>
    <g id="ytick_8">
     <g id="line2d_24">
      <path d="M 50.87 145.605385 
L 564.289615 145.605385 
" clip-path="url(#p0d7d4318e7)" style="fill: none; stroke: #ffffff; stroke-width: 0.8; stroke-linecap: round"/>
     </g>
     <g id="text_25">
      <!-- 350 -->
      <g style="fill: #262626" transform="translate(24.7825 149.404603) scale(0.1 -0.1)">
       <use xlink:href="#DejaVuSans-33"/>
       <use xlink:href="#DejaVuSans-35" transform="translate(63.623047 0)"/>
       <use xlink:href="#DejaVuSans-30" transform="translate(127.246094 0)"/>
      </g>
     </g>
    </g>
    <g id="ytick_9">
     <g id="line2d_25">
      <path d="M 50.87 110.686154 
L 564.289615 110.686154 
" clip-path="url(#p0d7d4318e7)" style="fill: none; stroke: #ffffff; stroke-width: 0.8; stroke-linecap: round"/>
     </g>
     <g id="text_26">
      <!-- 400 -->
      <g style="fill: #262626" transform="translate(24.7825 114.485373) scale(0.1 -0.1)">
       <use xlink:href="#DejaVuSans-34"/>
       <use xlink:href="#DejaVuSans-30" transform="translate(63.623047 0)"/>
       <use xlink:href="#DejaVuSans-30" transform="translate(127.246094 0)"/>
      </g>
     </g>
    </g>
    <g id="ytick_10">
     <g id="line2d_26">
      <path d="M 50.87 75.766923 
L 564.289615 75.766923 
" clip-path="url(#p0d7d4318e7)" style="fill: none; stroke: #ffffff; stroke-width: 0.8; stroke-linecap: round"/>
     </g>
     <g id="text_27">
      <!-- 450 -->
      <g style="fill: #262626" transform="translate(24.7825 79.566142) scale(0.1 -0.1)">
       <use xlink:href="#DejaVuSans-34"/>
       <use xlink:href="#DejaVuSans-35" transform="translate(63.623047 0)"/>
       <use xlink:href="#DejaVuSans-30" transform="translate(127.246094 0)"/>
      </g>
     </g>
    </g>
    <g id="ytick_11">
     <g id="line2d_27">
      <path d="M 50.87 40.847692 
L 564.289615 40.847692 
" clip-path="url(#p0d7d4318e7)" style="fill: none; stroke: #ffffff; stroke-width: 0.8; stroke-linecap: round"/>
     </g>
     <g id="text_28">
      <!-- 500 -->
      <g style="fill: #262626" transform="translate(24.7825 44.646911) scale(0.1 -0.1)">
       <use xlink:href="#DejaVuSans-35"/>
       <use xlink:href="#DejaVuSans-30" transform="translate(63.623047 0)"/>
       <use xlink:href="#DejaVuSans-30" transform="translate(127.246094 0)"/>
      </g>
     </g>
    </g>
    <g id="text_29">
     <!-- Reward -->
     <g style="fill: #262626" transform="translate(18.702813 227.081094) rotate(-90) scale(0.1 -0.1)">
      <defs>
       <path id="DejaVuSans-52" d="M 2841 2188 
Q 3044 2119 3236 1894 
Q 3428 1669 3622 1275 
L 4263 0 
L 3584 0 
L 2988 1197 
Q 2756 1666 2539 1819 
Q 2322 1972 1947 1972 
L 1259 1972 
L 1259 0 
L 628 0 
L 628 4666 
L 2053 4666 
Q 2853 4666 3247 4331 
Q 3641 3997 3641 3322 
Q 3641 2881 3436 2590 
Q 3231 2300 2841 2188 
z
M 1259 4147 
L 1259 2491 
L 2053 2491 
Q 2509 2491 2742 2702 
Q 2975 2913 2975 3322 
Q 2975 3731 2742 3939 
Q 2509 4147 2053 4147 
L 1259 4147 
z
" transform="scale(0.015625)"/>
       <path id="DejaVuSans-77" d="M 269 3500 
L 844 3500 
L 1563 769 
L 2278 3500 
L 2956 3500 
L 3675 769 
L 4391 3500 
L 4966 3500 
L 4050 0 
L 3372 0 
L 2619 2869 
L 1863 0 
L 1184 0 
L 269 3500 
z
" transform="scale(0.015625)"/>
       <path id="DejaVuSans-61" d="M 2194 1759 
Q 1497 1759 1228 1600 
Q 959 1441 959 1056 
Q 959 750 1161 570 
Q 1363 391 1709 391 
Q 2188 391 2477 730 
Q 2766 1069 2766 1631 
L 2766 1759 
L 2194 1759 
z
M 3341 1997 
L 3341 0 
L 2766 0 
L 2766 531 
Q 2569 213 2275 61 
Q 1981 -91 1556 -91 
Q 1019 -91 701 211 
Q 384 513 384 1019 
Q 384 1609 779 1909 
Q 1175 2209 1959 2209 
L 2766 2209 
L 2766 2266 
Q 2766 2663 2505 2880 
Q 2244 3097 1772 3097 
Q 1472 3097 1187 3025 
Q 903 2953 641 2809 
L 641 3341 
Q 956 3463 1253 3523 
Q 1550 3584 1831 3584 
Q 2591 3584 2966 3190 
Q 3341 2797 3341 1997 
z
" transform="scale(0.015625)"/>
       <path id="DejaVuSans-72" d="M 2631 2963 
Q 2534 3019 2420 3045 
Q 2306 3072 2169 3072 
Q 1681 3072 1420 2755 
Q 1159 2438 1159 1844 
L 1159 0 
L 581 0 
L 581 3500 
L 1159 3500 
L 1159 2956 
Q 1341 3275 1631 3429 
Q 1922 3584 2338 3584 
Q 2397 3584 2469 3576 
Q 2541 3569 2628 3553 
L 2631 2963 
z
" transform="scale(0.015625)"/>
      </defs>
      <use xlink:href="#DejaVuSans-52"/>
      <use xlink:href="#DejaVuSans-65" transform="translate(64.982422 0)"/>
      <use xlink:href="#DejaVuSans-77" transform="translate(126.505859 0)"/>
      <use xlink:href="#DejaVuSans-61" transform="translate(208.292969 0)"/>
      <use xlink:href="#DejaVuSans-72" transform="translate(269.572266 0)"/>
      <use xlink:href="#DejaVuSans-64" transform="translate(308.935547 0)"/>
     </g>
    </g>
   </g>
   <g id="FillBetweenPolyCollection_1">
    <path d="M 60.743454 373.54811 
L 60.743454 374.796969 
L 64.034606 375.047035 
L 67.325757 373.79524 
L 70.616908 371.07321 
L 73.90806 368.565836 
L 77.199211 365.40735 
L 80.490362 361.289979 
L 83.781514 356.743779 
L 87.072665 355.58899 
L 90.363817 345.097567 
L 93.654968 347.193762 
L 96.946119 339.359291 
L 100.237271 334.808863 
L 103.528422 319.304261 
L 106.819573 308.739991 
L 110.110725 296.921791 
L 113.401876 271.292403 
L 116.693028 244.595686 
L 119.984179 242.353578 
L 123.27533 265.208511 
L 126.566482 244.516302 
L 129.857633 276.562414 
L 133.148785 256.307991 
L 136.439936 248.272863 
L 139.731087 252.368506 
L 143.022239 257.122661 
L 146.31339 250.72973 
L 149.604541 252.524546 
L 152.895693 261.505918 
L 156.186844 265.883157 
L 159.477996 257.705512 
L 162.769147 261.118517 
L 166.060298 257.665602 
L 169.35145 277.967693 
L 172.642601 268.216487 
L 175.933752 264.844541 
L 179.224904 275.854292 
L 182.516055 290.613019 
L 185.807207 295.675564 
L 189.098358 295.432675 
L 192.389509 297.469181 
L 195.680661 299.660701 
L 198.971812 290.385298 
L 202.262964 285.173869 
L 205.554115 292.11596 
L 208.845266 287.344372 
L 212.136418 292.123368 
L 215.427569 285.643915 
L 218.71872 277.928695 
L 222.009872 276.686511 
L 225.301023 277.357884 
L 228.592175 270.928105 
L 231.883326 276.517808 
L 235.174477 275.9977 
L 238.465629 269.650386 
L 241.75678 284.86029 
L 245.047931 291.572769 
L 248.339083 282.729072 
L 251.630234 283.195863 
L 254.921386 288.69804 
L 258.212537 289.60972 
L 261.503688 272.887448 
L 264.79484 260.3048 
L 268.085991 261.894125 
L 271.377143 271.679162 
L 274.668294 274.959576 
L 277.959445 275.202319 
L 281.250597 249.885263 
L 284.541748 252.22624 
L 287.832899 251.770241 
L 291.124051 245.174381 
L 294.415202 261.33596 
L 297.706354 265.32106 
L 300.997505 270.466603 
L 304.288656 267.599344 
L 307.579808 265.938683 
L 310.870959 243.165417 
L 314.16211 263.048935 
L 317.453262 245.887449 
L 320.744413 255.329627 
L 324.035565 271.962857 
L 327.326716 279.390579 
L 330.617867 279.155148 
L 333.909019 274.729187 
L 337.20017 279.864035 
L 340.491321 283.012679 
L 343.782473 293.866513 
L 347.073624 287.131715 
L 350.364776 281.703921 
L 353.655927 286.202941 
L 356.947078 285.322385 
L 360.23823 280.840994 
L 363.529381 278.847581 
L 366.820533 277.062147 
L 370.111684 278.763279 
L 373.402835 288.144023 
L 376.693987 278.020299 
L 379.985138 274.183612 
L 383.276289 277.439566 
L 386.567441 277.845107 
L 389.858592 279.878391 
L 393.149744 275.864012 
L 396.440895 277.825223 
L 399.732046 271.626829 
L 403.023198 273.637716 
L 406.314349 264.281379 
L 409.6055 262.446462 
L 412.896652 264.879097 
L 416.187803 271.641296 
L 419.478955 271.683779 
L 422.770106 270.359311 
L 426.061257 269.942349 
L 429.352409 270.829449 
L 432.64356 279.710819 
L 435.934712 271.399108 
L 439.225863 258.708732 
L 442.517014 252.031033 
L 445.808166 243.162041 
L 449.099317 242.84053 
L 452.390468 232.939592 
L 455.68162 250.331085 
L 458.972771 245.369026 
L 462.263923 244.129262 
L 465.555074 236.023872 
L 468.846225 248.388201 
L 472.137377 232.268777 
L 475.428528 249.875968 
L 478.719679 233.263147 
L 482.010831 215.702241 
L 485.301982 229.49905 
L 488.593134 237.223765 
L 491.884285 230.032269 
L 495.175436 220.974079 
L 498.466588 226.214572 
L 501.757739 213.085788 
L 505.048891 205.783185 
L 508.340042 220.090738 
L 511.631193 212.146297 
L 514.922345 193.396558 
L 518.213496 205.057678 
L 521.504647 185.14874 
L 524.795799 204.256798 
L 528.08695 201.706005 
L 531.378102 202.278402 
L 534.669253 176.720198 
L 537.960404 187.936321 
L 541.251556 166.31977 
L 544.542707 204.341103 
L 547.833858 177.977648 
L 551.12501 185.976084 
L 551.12501 77.321169 
L 551.12501 77.321169 
L 547.833858 53.691953 
L 544.542707 73.833154 
L 541.251556 37.793125 
L 537.960404 51.629801 
L 534.669253 66.247714 
L 531.378102 67.860552 
L 528.08695 59.681801 
L 524.795799 69.435946 
L 521.504647 87.402028 
L 518.213496 140.158304 
L 514.922345 159.257847 
L 511.631193 97.955776 
L 508.340042 113.860348 
L 505.048891 90.75975 
L 501.757739 108.424292 
L 498.466588 117.304782 
L 495.175436 120.502031 
L 491.884285 182.32719 
L 488.593134 153.499052 
L 485.301982 113.80772 
L 482.010831 152.03053 
L 478.719679 114.618795 
L 475.428528 108.748088 
L 472.137377 110.138665 
L 468.846225 105.365597 
L 465.555074 107.362712 
L 462.263923 113.146854 
L 458.972771 110.160459 
L 455.68162 91.52147 
L 452.390468 121.09772 
L 449.099317 149.871595 
L 445.808166 137.209097 
L 442.517014 114.232097 
L 439.225863 89.675277 
L 435.934712 84.890732 
L 432.64356 110.861987 
L 429.352409 107.192553 
L 426.061257 144.490506 
L 422.770106 114.925477 
L 419.478955 125.877341 
L 416.187803 81.306156 
L 412.896652 67.461352 
L 409.6055 114.352943 
L 406.314349 156.295537 
L 403.023198 165.496385 
L 399.732046 80.510415 
L 396.440895 114.311068 
L 393.149744 62.856865 
L 389.858592 92.464717 
L 386.567441 89.831976 
L 383.276289 58.559606 
L 379.985138 86.104047 
L 376.693987 76.640961 
L 373.402835 101.583467 
L 370.111684 93.438079 
L 366.820533 63.567792 
L 363.529381 77.666147 
L 360.23823 100.709805 
L 356.947078 105.138917 
L 353.655927 86.527005 
L 350.364776 99.638218 
L 347.073624 135.943535 
L 343.782473 118.666796 
L 340.491321 112.042229 
L 337.20017 94.538966 
L 333.909019 131.704539 
L 330.617867 145.861489 
L 327.326716 168.078833 
L 324.035565 189.259898 
L 320.744413 158.546556 
L 317.453262 140.190556 
L 314.16211 151.01879 
L 310.870959 100.404023 
L 307.579808 178.23574 
L 304.288656 154.184573 
L 300.997505 133.51621 
L 297.706354 151.734323 
L 294.415202 142.757065 
L 291.124051 77.451086 
L 287.832899 116.678642 
L 284.541748 112.23169 
L 281.250597 128.695167 
L 277.959445 135.046344 
L 274.668294 165.231723 
L 271.377143 139.080541 
L 268.085991 87.004734 
L 264.79484 46.090014 
L 261.503688 122.671949 
L 258.212537 134.827892 
L 254.921386 64.292451 
L 251.630234 100.938077 
L 248.339083 116.141219 
L 245.047931 157.01656 
L 241.75678 141.893675 
L 238.465629 119.459193 
L 235.174477 142.538596 
L 231.883326 176.515376 
L 228.592175 183.269806 
L 225.301023 200.618985 
L 222.009872 199.052755 
L 218.71872 161.122337 
L 215.427569 175.712166 
L 212.136418 146.420928 
L 208.845266 150.603762 
L 205.554115 146.579789 
L 202.262964 173.451697 
L 198.971812 155.669014 
L 195.680661 188.210729 
L 192.389509 163.616662 
L 189.098358 209.60965 
L 185.807207 216.230053 
L 182.516055 204.73453 
L 179.224904 190.946085 
L 175.933752 170.137565 
L 172.642601 178.876917 
L 169.35145 203.506031 
L 166.060298 210.508052 
L 162.769147 214.130089 
L 159.477996 168.97591 
L 156.186844 212.816078 
L 152.895693 209.56707 
L 149.604541 200.232104 
L 146.31339 200.988665 
L 143.022239 215.284475 
L 139.731087 208.572271 
L 136.439936 185.00602 
L 133.148785 183.096582 
L 129.857633 190.839354 
L 126.566482 210.890008 
L 123.27533 240.392972 
L 119.984179 218.712644 
L 116.693028 232.739719 
L 113.401876 242.166541 
L 110.110725 265.696029 
L 106.819573 270.964941 
L 103.528422 284.474967 
L 100.237271 304.770452 
L 96.946119 313.882316 
L 93.654968 331.370138 
L 90.363817 337.967894 
L 87.072665 345.689303 
L 83.781514 350.082905 
L 80.490362 355.590298 
L 77.199211 362.663028 
L 73.90806 366.282075 
L 70.616908 368.556683 
L 67.325757 371.667372 
L 64.034606 374.546488 
L 60.743454 373.54811 
z
" clip-path="url(#p0d7d4318e7)" style="fill: #0000ff; fill-opacity: 0.1"/>
   </g>
   <g id="line2d_28">
    <path d="M 60.743454 374.17254 
L 64.034606 374.796762 
L 67.325757 372.731306 
L 70.616908 369.814946 
L 73.90806 367.423955 
L 77.199211 364.035189 
L 80.490362 358.440139 
L 83.781514 353.413342 
L 87.072665 350.639146 
L 90.363817 341.532731 
L 93.654968 339.28195 
L 96.946119 326.620804 
L 100.237271 319.789657 
L 103.528422 301.889614 
L 106.819573 289.852466 
L 110.110725 281.30891 
L 113.401876 256.729472 
L 116.693028 238.667702 
L 119.984179 230.533111 
L 123.27533 252.800741 
L 126.566482 227.703155 
L 129.857633 233.700884 
L 133.148785 219.702287 
L 136.439936 216.639442 
L 139.731087 230.470388 
L 143.022239 236.203568 
L 146.31339 225.859198 
L 149.604541 226.378325 
L 152.895693 235.536494 
L 156.186844 239.349618 
L 159.477996 213.340711 
L 162.769147 237.624303 
L 166.060298 234.086827 
L 169.35145 240.736862 
L 172.642601 223.546702 
L 175.933752 217.491053 
L 179.224904 233.400189 
L 182.516055 247.673775 
L 185.807207 255.952808 
L 189.098358 252.521162 
L 192.389509 230.542922 
L 195.680661 243.935715 
L 198.971812 223.027156 
L 202.262964 229.312783 
L 205.554115 219.347875 
L 208.845266 218.974067 
L 212.136418 219.272148 
L 215.427569 230.67804 
L 218.71872 219.525516 
L 222.009872 237.869633 
L 225.301023 238.988435 
L 228.592175 227.098956 
L 231.883326 226.516592 
L 235.174477 209.268148 
L 238.465629 194.554789 
L 241.75678 213.376982 
L 245.047931 224.294664 
L 248.339083 199.435145 
L 251.630234 192.06697 
L 254.921386 176.495246 
L 258.212537 212.218806 
L 261.503688 197.779699 
L 264.79484 153.197407 
L 268.085991 174.449429 
L 271.377143 205.379852 
L 274.668294 220.09565 
L 277.959445 205.124332 
L 281.250597 189.290215 
L 284.541748 182.228965 
L 287.832899 184.224441 
L 291.124051 161.312734 
L 294.415202 202.046513 
L 297.706354 208.527691 
L 300.997505 201.991406 
L 304.288656 210.891959 
L 307.579808 222.087212 
L 310.870959 171.78472 
L 314.16211 207.033863 
L 317.453262 193.039003 
L 320.744413 206.938092 
L 324.035565 230.611378 
L 327.326716 223.734706 
L 330.617867 212.508319 
L 333.909019 203.216863 
L 337.20017 187.201501 
L 340.491321 197.527454 
L 343.782473 206.266654 
L 347.073624 211.537625 
L 350.364776 190.671069 
L 353.655927 186.364973 
L 356.947078 195.230651 
L 360.23823 190.775399 
L 363.529381 178.256864 
L 366.820533 170.31497 
L 370.111684 186.100679 
L 373.402835 194.863745 
L 376.693987 177.33063 
L 379.985138 180.143829 
L 383.276289 167.999586 
L 386.567441 183.838541 
L 389.858592 186.171554 
L 393.149744 169.360438 
L 396.440895 196.068145 
L 399.732046 176.068622 
L 403.023198 219.56705 
L 406.314349 210.288458 
L 412.896652 166.170225 
L 416.187803 176.473726 
L 419.478955 198.78056 
L 422.770106 192.642394 
L 426.061257 207.216428 
L 429.352409 189.011001 
L 432.64356 195.286403 
L 435.934712 178.14492 
L 439.225863 174.192004 
L 442.517014 183.131565 
L 445.808166 190.185569 
L 449.099317 196.356062 
L 452.390468 177.018656 
L 455.68162 170.926277 
L 458.972771 177.764743 
L 462.263923 178.638058 
L 465.555074 171.693292 
L 468.846225 176.876899 
L 472.137377 171.203721 
L 475.428528 179.312028 
L 478.719679 173.940971 
L 482.010831 183.866386 
L 485.301982 171.653385 
L 488.593134 195.361409 
L 491.884285 206.179729 
L 495.175436 170.738055 
L 498.466588 171.759677 
L 501.757739 160.75504 
L 505.048891 148.271468 
L 508.340042 166.975543 
L 511.631193 155.051037 
L 514.922345 176.327203 
L 518.213496 172.607991 
L 521.504647 136.275384 
L 524.795799 136.846372 
L 528.08695 130.693903 
L 531.378102 135.069477 
L 534.669253 121.483956 
L 537.960404 119.783061 
L 541.251556 102.056448 
L 544.542707 139.087128 
L 547.833858 115.8348 
L 551.12501 131.648627 
L 551.12501 131.648627 
" clip-path="url(#p0d7d4318e7)" style="fill: none; stroke: #0000ff; stroke-width: 1.5; stroke-linecap: round"/>
   </g>
   <g id="line2d_29">
    <path d="M 60.743454 374.797854 
L 64.034606 374.878421 
L 67.325757 371.909935 
L 70.616908 370.290094 
L 73.90806 367.939506 
L 77.199211 364.58486 
L 80.490362 362.358573 
L 83.781514 358.174172 
L 87.072665 355.03007 
L 90.363817 347.962327 
L 93.654968 345.319711 
L 96.946119 334.611066 
L 100.237271 331.573062 
L 103.528422 313.955985 
L 106.819573 301.417401 
L 110.110725 274.047425 
L 113.401876 260.655061 
L 116.693028 230.851957 
L 119.984179 229.149644 
L 123.27533 274.624351 
L 126.566482 248.56198 
L 129.857633 274.076409 
L 133.148785 247.937109 
L 136.439936 257.03265 
L 139.731087 257.052866 
L 143.022239 263.248273 
L 146.31339 250.767405 
L 149.604541 251.305896 
L 152.895693 272.711385 
L 156.186844 267.613177 
L 159.477996 267.683015 
L 162.769147 275.330327 
L 166.060298 280.480913 
L 169.35145 283.410637 
L 172.642601 278.41992 
L 175.933752 275.01909 
L 179.224904 284.835342 
L 182.516055 285.577778 
L 185.807207 287.672932 
L 189.098358 286.276163 
L 192.389509 287.098108 
L 195.680661 295.059692 
L 198.971812 294.050915 
L 202.262964 290.455527 
L 205.554115 293.714655 
L 208.845266 289.069701 
L 212.136418 294.635673 
L 215.427569 303.533426 
L 218.71872 302.253054 
L 222.009872 302.336409 
L 225.301023 305.670633 
L 228.592175 297.395668 
L 231.883326 297.371586 
L 235.174477 303.890878 
L 238.465629 302.268824 
L 241.75678 305.55799 
L 245.047931 303.845821 
L 248.339083 296.506346 
L 251.630234 302.327257 
L 254.921386 297.94956 
L 258.212537 281.99408 
L 261.503688 252.752287 
L 264.79484 238.534187 
L 268.085991 219.328611 
L 271.377143 201.077077 
L 274.668294 209.707115 
L 277.959445 189.661814 
L 281.250597 187.333865 
L 284.541748 193.502929 
L 287.832899 201.959651 
L 291.124051 200.312179 
L 294.415202 199.148205 
L 297.706354 205.72466 
L 300.997505 191.291378 
L 304.288656 190.418397 
L 307.579808 196.963515 
L 310.870959 181.746788 
L 314.16211 190.418397 
L 317.453262 179.244244 
L 320.744413 199.810775 
L 324.035565 193.03734 
L 327.326716 193.03734 
L 330.617867 191.806213 
L 333.909019 191.873365 
L 337.20017 190.592994 
L 340.491321 188.439641 
L 343.782473 199.219834 
L 347.073624 183.900141 
L 350.364776 195.029527 
L 353.655927 194.899699 
L 356.947078 191.349577 
L 360.23823 190.825788 
L 363.529381 194.259513 
L 366.820533 187.508462 
L 370.111684 187.974051 
L 373.402835 207.761615 
L 376.693987 195.656282 
L 379.985138 193.03734 
L 383.276289 192.397154 
L 386.567441 203.396712 
L 389.858592 204.793481 
L 393.149744 191.349577 
L 396.440895 200.992657 
L 399.732046 197.57684 
L 403.023198 208.782331 
L 406.314349 195.727911 
L 409.6055 190.127404 
L 412.896652 195.132494 
L 416.187803 190.418397 
L 419.478955 194.8415 
L 422.770106 199.542166 
L 426.061257 201.691041 
L 429.352409 185.413308 
L 432.64356 198.449821 
L 435.934712 194.143115 
L 439.225863 195.656282 
L 442.517014 182.794365 
L 445.808166 188.148647 
L 449.099317 199.090006 
L 452.390468 195.598083 
L 455.68162 188.788833 
L 458.972771 186.169891 
L 465.555074 198.25284 
L 468.846225 192.629949 
L 472.137377 186.053494 
L 475.428528 195.598083 
L 478.719679 200.253981 
L 482.010831 188.788833 
L 485.301982 183.783744 
L 491.884285 207.116953 
L 495.175436 181.804987 
L 498.466588 193.386532 
L 501.757739 189.196224 
L 505.048891 181.223 
L 508.340042 187.159269 
L 511.631193 187.799455 
L 514.922345 187.333865 
L 518.213496 181.281199 
L 521.504647 177.789276 
L 524.795799 178.138468 
L 528.08695 183.49275 
L 531.378102 179.651635 
L 534.669253 195.132494 
L 537.960404 192.513551 
L 541.251556 195.830878 
L 544.542707 185.529705 
L 547.833858 178.836853 
L 551.12501 172.842385 
L 551.12501 172.842385 
" clip-path="url(#p0d7d4318e7)" style="fill: none; stroke: #008000; stroke-opacity: 0.2; stroke-linecap: round"/>
   </g>
   <g id="line2d_30">
    <path d="M 60.743454 373.491691 
L 64.034606 374.490908 
L 67.325757 373.877385 
L 70.616908 371.260151 
L 73.90806 365.552496 
L 77.199211 361.391372 
L 80.490362 353.887259 
L 83.781514 347.733169 
L 87.072665 342.075942 
L 90.363817 337.866561 
L 93.654968 324.204475 
L 96.946119 303.71065 
L 100.237271 291.648352 
L 103.528422 278.443958 
L 106.819573 258.596664 
L 110.110725 268.521077 
L 113.401876 256.979352 
L 116.693028 238.737027 
L 119.984179 244.077615 
L 123.27533 238.590308 
L 126.566482 245.823577 
L 129.857633 276.933437 
L 133.148785 263.918087 
L 136.439936 227.098139 
L 139.731087 235.450511 
L 143.022239 249.703491 
L 146.31339 201.798485 
L 149.604541 217.040154 
L 152.895693 229.318421 
L 156.186844 252.053903 
L 159.477996 238.540423 
L 162.769147 232.055423 
L 166.060298 224.435548 
L 169.35145 259.846405 
L 172.642601 233.383601 
L 175.933752 202.290936 
L 179.224904 163.255469 
L 182.516055 220.379097 
L 185.807207 233.314276 
L 189.098358 215.712456 
L 192.389509 169.140946 
L 195.680661 169.40866 
L 198.971812 131.777369 
L 202.262964 137.923154 
L 205.554115 148.786915 
L 208.845266 149.027469 
L 212.136418 173.41379 
L 215.427569 147.421185 
L 218.71872 178.569138 
L 222.009872 215.024815 
L 225.301023 228.759713 
L 228.592175 194.438586 
L 231.883326 228.072968 
L 235.174477 166.747392 
L 238.465629 159.827035 
L 241.75678 166.347408 
L 245.047931 190.592994 
L 248.339083 148.678277 
L 251.630234 98.289827 
L 254.921386 40.847692 
L 258.212537 120.308342 
L 261.503688 133.820144 
L 264.79484 51.585356 
L 268.085991 163.220197 
L 271.377143 226.478323 
L 274.668294 252.768624 
L 277.959445 260.489654 
L 281.250597 163.763385 
L 284.541748 94.9725 
L 287.832899 125.614125 
L 291.124051 94.274115 
L 294.415202 119.241365 
L 297.706354 163.509427 
L 300.997505 101.083365 
L 304.288656 129.542538 
L 307.579808 173.985196 
L 310.870959 144.674205 
L 314.16211 191.524173 
L 317.453262 185.413308 
L 320.744413 209.308038 
L 324.035565 239.722982 
L 327.326716 254.398188 
L 330.617867 277.812629 
L 333.909019 291.205644 
L 337.20017 291.59463 
L 340.491321 292.839827 
L 343.782473 290.584858 
L 347.073624 297.254615 
L 350.364776 289.418893 
L 353.655927 300.367415 
L 356.947078 299.346329 
L 360.23823 291.6971 
L 363.529381 295.318353 
L 366.820533 295.433827 
L 370.111684 296.880481 
L 373.402835 292.912806 
L 376.693987 292.990405 
L 379.985138 293.438442 
L 383.276289 299.180162 
L 386.567441 297.3045 
L 389.858592 293.762692 
L 393.149744 296.107269 
L 396.440895 293.714655 
L 399.732046 290.226871 
L 403.023198 289.633781 
L 406.314349 287.807237 
L 409.6055 280.309809 
L 412.896652 288.955293 
L 416.187803 291.205644 
L 419.478955 288.586204 
L 422.770106 282.983458 
L 426.061257 288.586204 
L 429.352409 281.499391 
L 432.64356 279.877418 
L 435.934712 284.109022 
L 439.225863 274.502893 
L 442.517014 271.40985 
L 445.808166 271.496803 
L 449.099317 240.667855 
L 452.390468 220.856327 
L 455.68162 253.772837 
L 458.972771 218.452272 
L 462.263923 204.968077 
L 465.555074 188.963429 
L 468.846225 208.728609 
L 472.137377 159.293723 
L 475.428528 207.063231 
L 478.719679 167.895494 
L 482.010831 181.106603 
L 485.301982 150.005208 
L 488.593134 176.276109 
L 491.884285 198.736337 
L 495.175436 166.175986 
L 498.466588 177.159671 
L 501.757739 158.735015 
L 505.048891 133.523331 
L 508.340042 154.614546 
L 511.631193 183.201756 
L 514.922345 159.340282 
L 518.213496 145.139795 
L 521.504647 139.164726 
L 524.795799 162.430105 
L 528.08695 141.803068 
L 531.378102 159.650675 
L 534.669253 136.448786 
L 537.960404 105.360971 
L 541.251556 71.925808 
L 544.542707 176.974494 
L 547.833858 146.846957 
L 551.12501 179.768032 
L 551.12501 179.768032 
" clip-path="url(#p0d7d4318e7)" style="fill: none; stroke: #008000; stroke-opacity: 0.2; stroke-linecap: round"/>
   </g>
   <g id="line2d_31">
    <path d="M 60.743454 373.368745 
L 64.034606 375.026682 
L 67.325757 371.664935 
L 70.616908 368.586498 
L 73.90806 367.12829 
L 77.199211 365.372287 
L 80.490362 357.898066 
L 83.781514 353.32219 
L 87.072665 351.34359 
L 90.363817 339.032057 
L 93.654968 339.432981 
L 96.946119 332.058557 
L 100.237271 317.483501 
L 103.528422 300.576931 
L 106.819573 296.889942 
L 110.110725 265.483104 
L 113.401876 229.699109 
L 116.693028 233.951038 
L 119.984179 220.937805 
L 123.27533 243.89383 
L 126.566482 211.629592 
L 129.857633 221.406976 
L 133.148785 227.502621 
L 136.439936 224.941877 
L 139.731087 242.874842 
L 143.022239 238.071508 
L 146.31339 236.831875 
L 149.604541 231.899534 
L 152.895693 229.271862 
L 156.186844 255.913397 
L 159.477996 209.407808 
L 162.769147 252.127417 
L 166.060298 223.45199 
L 169.35145 226.571441 
L 172.642601 169.839331 
L 175.933752 203.621192 
L 179.224904 210.136123 
L 182.516055 175.845438 
L 185.807207 192.612041 
L 189.098358 187.101071 
L 192.389509 130.799631 
L 195.680661 183.508622 
L 198.971812 152.123641 
L 202.262964 194.434109 
L 205.554115 116.360529 
L 208.845266 125.662624 
L 212.136418 98.551721 
L 215.427569 193.735724 
L 218.71872 133.189658 
L 222.009872 201.767147 
L 225.301023 237.704856 
L 228.592175 213.814282 
L 231.883326 179.593436 
L 235.174477 202.443148 
L 238.465629 121.627513 
L 241.75678 127.272788 
L 245.047931 201.18516 
L 248.339083 118.678778 
L 251.630234 137.050173 
L 254.921386 161.2492 
L 258.212537 209.856769 
L 264.79484 47.133154 
L 268.085991 61.799231 
L 271.377143 108.591 
L 274.668294 179.572273 
L 277.959445 141.03414 
L 281.250597 139.738954 
L 284.541748 148.608438 
L 287.832899 125.274632 
L 291.124051 76.552606 
L 294.415202 207.869059 
L 297.706354 236.354303 
L 300.997505 252.264235 
L 304.288656 235.245104 
L 307.579808 222.911189 
L 310.870959 89.734615 
L 314.16211 130.066327 
L 317.453262 138.155949 
L 320.744413 156.906517 
L 324.035565 243.107637 
L 327.326716 245.823577 
L 330.617867 187.952888 
L 333.909019 158.106469 
L 337.20017 115.497248 
L 340.491321 137.015254 
L 343.782473 190.418397 
L 347.073624 193.793923 
L 350.364776 122.122202 
L 353.655927 80.306423 
L 356.947078 116.709721 
L 360.23823 80.966009 
L 363.529381 86.242692 
L 366.820533 45.212596 
L 370.111684 118.911573 
L 373.402835 149.027469 
L 376.693987 61.100846 
L 379.985138 45.998279 
L 383.276289 40.847692 
L 386.567441 94.448712 
L 389.858592 100.646875 
L 393.149744 50.974269 
L 396.440895 143.432632 
L 399.732046 65.727644 
L 403.023198 185.133954 
L 406.314349 171.064678 
L 409.6055 79.346144 
L 412.896652 61.450038 
L 416.187803 40.847692 
L 419.478955 83.012663 
L 422.770106 65.814942 
L 426.061257 130.328221 
L 429.352409 119.066769 
L 432.64356 40.847692 
L 435.934712 40.847692 
L 439.225863 62.061125 
L 442.517014 133.500051 
L 445.808166 122.481094 
L 449.099317 163.191979 
L 452.390468 88.948933 
L 455.68162 40.847692 
L 458.972771 63.894385 
L 462.263923 58.918394 
L 465.555074 64.243577 
L 468.846225 43.641231 
L 472.137377 65.553048 
L 475.428528 40.847692 
L 478.719679 66.600625 
L 482.010831 128.407663 
L 485.301982 71.314721 
L 488.593134 127.369786 
L 491.884285 165.392949 
L 495.175436 77.425587 
L 498.466588 67.211712 
L 501.757739 68.433885 
L 505.048891 52.720231 
L 508.340042 87.115673 
L 511.631193 62.672212 
L 514.922345 152.271783 
L 518.213496 125.439529 
L 521.504647 68.084692 
L 524.795799 52.894827 
L 528.08695 40.847692 
L 531.378102 74.10826 
L 534.669253 63.370596 
L 537.960404 53.942404 
L 541.251556 40.847692 
L 544.542707 64.592769 
L 547.833858 40.847692 
L 551.12501 81.974786 
L 551.12501 81.974786 
" clip-path="url(#p0d7d4318e7)" style="fill: none; stroke: #008000; stroke-opacity: 0.2; stroke-linecap: round"/>
   </g>
   <g id="line2d_32">
    <path d="M 60.743454 374.8018 
L 64.034606 375.07682 
L 67.325757 372.039252 
L 70.616908 368.080956 
L 73.90806 367.443506 
L 77.199211 364.259066 
L 80.490362 357.698141 
L 83.781514 353.846689 
L 87.072665 348.953496 
L 90.363817 340.28962 
L 93.654968 345.925372 
L 96.946119 322.756604 
L 100.237271 326.154436 
L 103.528422 289.015979 
L 106.819573 279.695231 
L 110.110725 291.878162 
L 113.401876 263.003838 
L 116.693028 242.187869 
L 119.984179 214.795346 
L 123.27533 255.833756 
L 126.566482 224.290051 
L 129.857633 159.363562 
L 133.148785 161.319038 
L 136.439936 160.193863 
L 139.731087 191.967379 
L 143.022239 201.36871 
L 146.31339 190.76759 
L 149.604541 180.778573 
L 152.895693 194.8415 
L 156.186844 192.826929 
L 159.477996 216.641077 
L 162.769147 212.166811 
L 166.060298 227.370107 
L 169.35145 258.219904 
L 172.642601 262.340373 
L 175.933752 262.734462 
L 179.224904 257.835792 
L 182.516055 279.695231 
L 185.807207 262.0261 
L 189.098358 280.102622 
L 192.389509 280.756775 
L 195.680661 276.02112 
L 198.971812 276.810599 
L 202.262964 271.219381 
L 205.554115 283.801732 
L 208.845266 281.678643 
L 212.136418 268.067127 
L 215.427569 268.155256 
L 218.71872 248.384321 
L 222.009872 262.834231 
L 225.301023 236.765118 
L 228.592175 254.443113 
L 231.883326 263.527627 
L 235.174477 258.84845 
L 238.465629 265.483104 
L 241.75678 291.245438 
L 245.047931 297.703577 
L 248.339083 304.904663 
L 251.630234 302.989737 
L 254.921386 311.900738 
L 258.212537 314.814 
L 261.503688 318.049759 
L 264.79484 316.884212 
L 268.085991 314.652212 
L 271.377143 312.259908 
L 274.668294 306.888582 
L 277.959445 309.006221 
L 281.250597 306.168373 
L 284.541748 306.386618 
L 287.832899 306.954759 
L 291.124051 306.037425 
L 294.415202 303.169965 
L 297.706354 299.514905 
L 300.997505 298.761131 
L 304.288656 301.818253 
L 307.579808 303.277351 
L 310.870959 301.9737 
L 314.16211 302.183215 
L 317.453262 293.613038 
L 320.744413 296.171934 
L 324.035565 296.780712 
L 327.326716 292.938672 
L 330.617867 293.895718 
L 333.909019 274.533258 
L 340.491321 292.789942 
L 343.782473 296.120202 
L 347.073624 289.687503 
L 350.364776 288.215523 
L 353.655927 290.785578 
L 356.947078 292.369618 
L 360.23823 290.788802 
L 363.529381 274.61607 
L 366.820533 274.01706 
L 370.111684 275.413829 
L 373.402835 283.769141 
L 376.693987 276.41586 
L 379.985138 265.328462 
L 383.276289 266.725231 
L 386.567441 266.87035 
L 389.858592 275.006077 
L 393.149744 267.523385 
L 396.440895 270.711465 
L 399.732046 262.568179 
L 403.023198 270.774955 
L 406.314349 255.582583 
L 409.6055 255.067984 
L 412.896652 244.465607 
L 416.187803 262.130858 
L 419.478955 261.921342 
L 422.770106 259.721431 
L 426.061257 267.357103 
L 429.352409 279.118304 
L 432.64356 263.248273 
L 435.934712 266.525692 
L 439.225863 248.655915 
L 442.517014 243.806021 
L 445.808166 221.589631 
L 449.099317 251.20849 
L 452.390468 241.242995 
L 455.68162 244.734919 
L 458.972771 265.20375 
L 462.263923 257.604223 
L 465.555074 258.817206 
L 468.846225 257.696115 
L 472.137377 252.936073 
L 475.428528 237.258095 
L 478.719679 245.35114 
L 482.010831 226.943913 
L 485.301982 224.057256 
L 488.593134 236.569981 
L 491.884285 228.014769 
L 495.175436 214.186754 
L 498.466588 224.569405 
L 501.757739 226.757677 
L 505.048891 226.399755 
L 508.340042 250.814973 
L 511.631193 222.776885 
L 514.922345 188.397315 
L 518.213496 209.757 
L 521.504647 199.542166 
L 524.795799 226.524882 
L 528.08695 227.010841 
L 531.378102 221.089122 
L 534.669253 159.922269 
L 537.960404 205.290408 
L 541.251556 160.830169 
L 544.542707 211.951923 
L 547.833858 171.794808 
L 551.12501 173.032853 
L 551.12501 173.032853 
" clip-path="url(#p0d7d4318e7)" style="fill: none; stroke: #008000; stroke-opacity: 0.2; stroke-linecap: round"/>
   </g>
   <g id="line2d_33">
    <path d="M 60.743454 374.402607 
L 64.034606 374.510977 
L 67.325757 374.165023 
L 70.616908 370.857033 
L 73.90806 369.055979 
L 77.199211 364.568361 
L 80.490362 360.358654 
L 83.781514 353.990489 
L 87.072665 355.792633 
L 90.363817 342.513089 
L 93.654968 341.527212 
L 96.946119 339.967141 
L 100.237271 332.088936 
L 103.528422 327.455215 
L 106.819573 312.663093 
L 110.110725 306.614783 
L 113.401876 273.31 
L 116.693028 247.61062 
L 119.984179 243.705144 
L 123.27533 251.061462 
L 126.566482 208.210577 
L 129.857633 236.724036 
L 133.148785 197.834577 
L 136.439936 213.930679 
L 139.731087 225.006343 
L 143.022239 228.625856 
L 146.31339 249.130633 
L 149.604541 250.867466 
L 152.895693 251.539304 
L 156.186844 228.340682 
L 159.477996 134.431231 
L 162.769147 216.441538 
L 166.060298 214.695577 
L 169.35145 175.635923 
L 172.642601 173.750285 
L 175.933752 143.789585 
L 179.224904 250.938217 
L 182.516055 276.871328 
L 185.807207 304.138692 
L 189.098358 293.4135 
L 192.389509 284.919148 
L 195.680661 295.680479 
L 198.971812 260.373256 
L 202.262964 252.531745 
L 205.554115 254.075543 
L 208.845266 249.431897 
L 212.136418 261.692427 
L 215.427569 240.544611 
L 218.71872 235.23141 
L 222.009872 207.385562 
L 225.301023 186.041854 
L 228.592175 175.403128 
L 231.883326 164.017343 
L 235.174477 114.410872 
L 238.465629 123.56747 
L 241.75678 176.461287 
L 245.047931 128.145769 
L 248.339083 128.407663 
L 251.630234 119.677856 
L 254.921386 70.529038 
L 258.212537 134.120838 
L 261.503688 156.906517 
L 264.79484 111.850128 
L 268.085991 113.246897 
L 271.377143 178.492951 
L 277.959445 125.429829 
L 281.250597 149.4465 
L 284.541748 167.674338 
L 287.832899 161.319038 
L 291.124051 129.387342 
L 294.415202 180.803969 
L 297.706354 137.535162 
L 300.997505 166.556923 
L 304.288656 197.4355 
L 307.579808 213.298808 
L 310.870959 140.794291 
L 314.16211 220.977201 
L 317.453262 168.768474 
L 320.744413 172.493192 
L 324.035565 180.408218 
L 327.326716 132.475754 
L 330.617867 111.074145 
L 333.909019 100.365581 
L 337.20017 54.640788 
L 340.491321 76.552606 
L 343.782473 54.989981 
L 347.073624 93.051942 
L 350.364776 58.569202 
L 353.655927 65.46575 
L 356.947078 76.37801 
L 360.23823 99.599298 
L 363.529381 40.847692 
L 366.820533 49.402904 
L 370.111684 51.323462 
L 373.402835 40.847692 
L 376.693987 60.48976 
L 379.985138 102.916625 
L 383.276289 40.847692 
L 386.567441 57.172433 
L 389.858592 56.648644 
L 393.149744 40.847692 
L 396.440895 71.489317 
L 399.732046 64.243577 
L 403.023198 143.510231 
L 406.314349 141.25988 
L 409.6055 137.147171 
L 412.896652 40.847692 
L 416.187803 97.766038 
L 419.478955 165.541091 
L 422.770106 155.149974 
L 426.061257 148.119569 
L 429.352409 79.957231 
L 432.64356 194.008811 
L 435.934712 105.099077 
L 439.225863 90.083808 
L 442.517014 84.147538 
L 445.808166 147.211669 
L 449.099317 127.621981 
L 452.390468 138.446942 
L 455.68162 126.487106 
L 458.972771 155.103415 
L 462.263923 179.535237 
L 465.555074 148.189408 
L 468.846225 181.68859 
L 472.137377 192.182266 
L 475.428528 215.793038 
L 478.719679 189.603615 
L 482.010831 194.084917 
L 485.301982 229.105995 
L 488.593134 240.934885 
L 491.884285 231.637639 
L 498.466588 196.471064 
L 501.757739 160.652399 
L 505.048891 147.491023 
L 508.340042 155.173254 
L 511.631193 118.804875 
L 514.922345 194.292769 
L 518.213496 201.422432 
L 521.504647 96.79606 
L 524.795799 64.243577 
L 528.08695 60.315163 
L 531.378102 40.847692 
L 534.669253 52.545635 
L 537.960404 41.807971 
L 541.251556 40.847692 
L 544.542707 56.38675 
L 547.833858 40.847692 
L 551.12501 50.625077 
L 551.12501 50.625077 
" clip-path="url(#p0d7d4318e7)" style="fill: none; stroke: #008000; stroke-opacity: 0.2; stroke-linecap: round"/>
   </g>
   <g id="line2d_34">
    <path d="M 60.743454 40.847692 
L 67.325757 62.445131 
L 73.90806 82.76616 
L 80.490362 101.886217 
L 87.072665 119.876279 
L 93.654968 136.803128 
L 100.237271 152.7296 
L 106.819573 167.714818 
L 113.401876 181.814409 
L 119.984179 195.080714 
L 126.566482 207.562981 
L 133.148785 219.307546 
L 139.731087 230.358007 
L 146.31339 240.755386 
L 152.895693 250.53828 
L 159.477996 259.743004 
L 166.060298 268.40373 
L 169.35145 259.165579 
L 172.642601 237.632413 
L 175.933752 230.107843 
L 182.516055 240.520006 
L 185.807207 234.007748 
L 192.389509 244.189427 
L 198.971812 253.769369 
L 205.554115 262.783136 
L 212.136418 271.26419 
L 218.71872 279.244013 
L 225.301023 286.752229 
L 231.883326 293.816709 
L 235.174477 297.190806 
L 238.465629 279.299098 
L 241.75678 272.843901 
L 248.339083 280.730364 
L 254.921386 288.150736 
L 258.212537 291.694811 
L 261.503688 286.582256 
L 268.085991 293.656781 
L 274.668294 300.313202 
L 281.250597 306.576229 
L 284.541748 309.56754 
L 287.832899 305.767863 
L 294.415202 311.708519 
L 300.997505 317.298083 
L 304.288656 302.703969 
L 307.579808 297.43852 
L 314.16211 303.87144 
L 320.744413 309.924175 
L 327.326716 315.619193 
L 333.909019 320.977636 
L 337.20017 317.171544 
L 343.782473 322.438243 
L 350.364776 327.39368 
L 356.947078 332.056251 
L 363.529381 336.443263 
L 370.111684 340.571003 
L 373.402835 343.908416 
L 376.693987 346.905983 
L 379.985138 349.615971 
L 383.276289 352.081695 
L 386.567441 354.339084 
L 389.858592 356.417968 
L 393.149744 358.343145 
L 396.440895 361.790746 
L 399.732046 359.429536 
L 403.023198 362.201169 
L 406.314349 364.649934 
L 409.6055 366.827587 
L 412.896652 364.038196 
L 416.187803 365.936879 
L 419.478955 367.66782 
L 422.770106 369.196417 
L 429.352409 371.882751 
L 435.934712 374.242825 
L 439.225863 371.610266 
L 445.808166 373.830154 
L 452.390468 375.720548 
L 455.68162 376.386594 
L 465.555074 378.95512 
L 475.428528 381.299345 
L 478.719679 378.168983 
L 488.593134 380.581859 
L 498.466588 382.773916 
L 508.340042 384.742107 
L 518.213496 386.53842 
L 521.504647 386.879931 
L 534.669253 389.050122 
L 541.251556 390.04 
L 544.542707 387.359838 
L 551.12501 388.449612 
L 551.12501 388.449612 
" clip-path="url(#p0d7d4318e7)" style="fill: none; stroke: #ff0000; stroke-linecap: round"/>
   </g>
   <g id="line2d_35">
    <path d="M 60.743454 40.847692 
L 64.034606 40.995101 
L 67.325757 42.710006 
L 70.616908 50.041832 
L 73.90806 62.63354 
L 80.490362 93.699558 
L 83.781514 102.230832 
L 87.072665 119.922732 
L 90.363817 134.591046 
L 93.654968 144.757921 
L 96.946119 148.865298 
L 100.237271 157.36322 
L 103.528422 159.847213 
L 106.819573 170.354617 
L 110.110725 176.181095 
L 113.401876 181.13088 
L 116.693028 184.10221 
L 119.984179 195.397623 
L 123.27533 204.157725 
L 126.566482 198.535617 
L 129.857633 212.437123 
L 133.148785 216.752213 
L 136.439936 222.323546 
L 139.731087 221.399469 
L 143.022239 227.206284 
L 146.31339 222.557249 
L 149.604541 223.516665 
L 152.895693 226.272974 
L 156.186844 230.185343 
L 159.477996 231.7106 
L 162.769147 240.08345 
L 166.060298 236.872785 
L 169.35145 244.583055 
L 172.642601 246.259074 
L 179.224904 254.804664 
L 182.516055 260.266359 
L 185.807207 260.011254 
L 189.098358 266.121268 
L 192.389509 265.352695 
L 195.680661 275.039039 
L 198.971812 271.188054 
L 202.262964 283.402952 
L 205.554115 280.77881 
L 208.845266 287.713333 
L 212.136418 290.662482 
L 215.427569 291.174746 
L 218.71872 287.996506 
L 222.009872 290.691529 
L 225.301023 290.951841 
L 228.592175 293.857095 
L 231.883326 293.441409 
L 235.174477 292.060948 
L 238.465629 302.635487 
L 241.75678 306.700583 
L 245.047931 316.602938 
L 248.339083 321.059053 
L 251.630234 328.130549 
L 254.921386 329.716367 
L 258.212537 329.811838 
L 261.503688 335.326467 
L 264.79484 337.853848 
L 268.085991 338.470266 
L 271.377143 335.219331 
L 274.668294 337.165595 
L 281.250597 351.855994 
L 284.541748 357.041317 
L 287.832899 359.149856 
L 291.124051 356.955653 
L 294.415202 360.740994 
L 297.706354 362.930092 
L 300.997505 363.524497 
L 304.288656 355.143118 
L 307.579808 360.947139 
L 310.870959 357.378211 
L 317.453262 345.952528 
L 320.744413 339.693761 
L 324.035565 344.194182 
L 327.326716 350.374757 
L 330.617867 353.208562 
L 333.909019 350.516743 
L 337.20017 356.227123 
L 340.491321 363.25671 
L 343.782473 359.886305 
L 347.073624 364.971727 
L 350.364776 368.682817 
L 353.655927 366.863156 
L 356.947078 375.038564 
L 360.23823 375.258935 
L 363.529381 372.858036 
L 366.820533 379.282013 
L 370.111684 376.491891 
L 373.402835 383.388671 
L 376.693987 376.591053 
L 379.985138 375.0002 
L 383.276289 384.153329 
L 386.567441 386.05565 
L 389.858592 390.04 
L 393.149744 387.541377 
L 396.440895 385.74001 
L 399.732046 373.737124 
L 403.023198 382.160392 
L 406.314349 377.876006 
L 409.6055 375.231168 
L 412.896652 372.309334 
L 416.187803 380.865806 
L 419.478955 382.613317 
L 422.770106 382.432313 
L 426.061257 384.85235 
L 429.352409 381.330251 
L 432.64356 371.293153 
L 435.934712 376.255722 
L 439.225863 374.38553 
L 442.517014 370.115289 
L 445.808166 360.641942 
L 449.099317 357.764976 
L 452.390468 358.962473 
L 455.68162 365.670835 
L 458.972771 364.8369 
L 462.263923 361.298566 
L 465.555074 356.59317 
L 468.846225 356.029275 
L 472.137377 352.705905 
L 475.428528 345.881899 
L 478.719679 347.981419 
L 482.010831 345.05304 
L 485.301982 342.827204 
L 488.593134 338.79848 
L 491.884285 336.741618 
L 495.175436 327.845524 
L 501.757739 341.198144 
L 505.048891 338.875501 
L 508.340042 345.044098 
L 511.631193 342.596167 
L 514.922345 314.589188 
L 518.213496 328.445215 
L 521.504647 334.172929 
L 524.795799 349.018061 
L 528.08695 345.041693 
L 531.378102 353.566333 
L 534.669253 331.505885 
L 537.960404 343.487914 
L 541.251556 334.171764 
L 544.542707 345.814956 
L 547.833858 331.95872 
L 551.12501 335.694891 
L 551.12501 335.694891 
" clip-path="url(#p0d7d4318e7)" style="fill: none; stroke: #800080; stroke-linecap: round"/>
   </g>
   <g id="patch_3">
    <path d="M 50.87 390.04 
L 50.87 26.88 
" style="fill: none; stroke: #ffffff; stroke-width: 0.8; stroke-linejoin: miter; stroke-linecap: square"/>
   </g>
   <g id="patch_4">
    <path d="M 564.289615 390.04 
L 564.289615 26.88 
" style="fill: none; stroke: #ffffff; stroke-width: 0.8; stroke-linejoin: miter; stroke-linecap: square"/>
   </g>
   <g id="patch_5">
    <path d="M 50.87 390.04 
L 564.289615 390.04 
" style="fill: none; stroke: #ffffff; stroke-width: 0.8; stroke-linejoin: miter; stroke-linecap: square"/>
   </g>
   <g id="patch_6">
    <path d="M 50.87 26.88 
L 564.289615 26.88 
" style="fill: none; stroke: #ffffff; stroke-width: 0.8; stroke-linejoin: miter; stroke-linecap: square"/>
   </g>
   <g id="text_30">
    <!-- cartpole_GNN_K_noise_entropy_mlp -->
    <g style="fill: #262626" transform="translate(199.896683 20.88) scale(0.12 -0.12)">
     <defs>
      <path id="DejaVuSans-63" d="M 3122 3366 
L 3122 2828 
Q 2878 2963 2633 3030 
Q 2388 3097 2138 3097 
Q 1578 3097 1268 2742 
Q 959 2388 959 1747 
Q 959 1106 1268 751 
Q 1578 397 2138 397 
Q 2388 397 2633 464 
Q 2878 531 3122 666 
L 3122 134 
Q 2881 22 2623 -34 
Q 2366 -91 2075 -91 
Q 1284 -91 818 406 
Q 353 903 353 1747 
Q 353 2603 823 3093 
Q 1294 3584 2113 3584 
Q 2378 3584 2631 3529 
Q 2884 3475 3122 3366 
z
" transform="scale(0.015625)"/>
      <path id="DejaVuSans-74" d="M 1172 4494 
L 1172 3500 
L 2356 3500 
L 2356 3053 
L 1172 3053 
L 1172 1153 
Q 1172 725 1289 603 
Q 1406 481 1766 481 
L 2356 481 
L 2356 0 
L 1766 0 
Q 1100 0 847 248 
Q 594 497 594 1153 
L 594 3053 
L 172 3053 
L 172 3500 
L 594 3500 
L 594 4494 
L 1172 4494 
z
" transform="scale(0.015625)"/>
      <path id="DejaVuSans-6c" d="M 603 4863 
L 1178 4863 
L 1178 0 
L 603 0 
L 603 4863 
z
" transform="scale(0.015625)"/>
      <path id="DejaVuSans-5f" d="M 3263 -1063 
L 3263 -1509 
L -63 -1509 
L -63 -1063 
L 3263 -1063 
z
" transform="scale(0.015625)"/>
      <path id="DejaVuSans-47" d="M 3809 666 
L 3809 1919 
L 2778 1919 
L 2778 2438 
L 4434 2438 
L 4434 434 
Q 4069 175 3628 42 
Q 3188 -91 2688 -91 
Q 1594 -91 976 548 
Q 359 1188 359 2328 
Q 359 3472 976 4111 
Q 1594 4750 2688 4750 
Q 3144 4750 3555 4637 
Q 3966 4525 4313 4306 
L 4313 3634 
Q 3963 3931 3569 4081 
Q 3175 4231 2741 4231 
Q 1884 4231 1454 3753 
Q 1025 3275 1025 2328 
Q 1025 1384 1454 906 
Q 1884 428 2741 428 
Q 3075 428 3337 486 
Q 3600 544 3809 666 
z
" transform="scale(0.015625)"/>
      <path id="DejaVuSans-4e" d="M 628 4666 
L 1478 4666 
L 3547 763 
L 3547 4666 
L 4159 4666 
L 4159 0 
L 3309 0 
L 1241 3903 
L 1241 0 
L 628 0 
L 628 4666 
z
" transform="scale(0.015625)"/>
      <path id="DejaVuSans-4b" d="M 628 4666 
L 1259 4666 
L 1259 2694 
L 3353 4666 
L 4166 4666 
L 1850 2491 
L 4331 0 
L 3500 0 
L 1259 2247 
L 1259 0 
L 628 0 
L 628 4666 
z
" transform="scale(0.015625)"/>
      <path id="DejaVuSans-6e" d="M 3513 2113 
L 3513 0 
L 2938 0 
L 2938 2094 
Q 2938 2591 2744 2837 
Q 2550 3084 2163 3084 
Q 1697 3084 1428 2787 
Q 1159 2491 1159 1978 
L 1159 0 
L 581 0 
L 581 3500 
L 1159 3500 
L 1159 2956 
Q 1366 3272 1645 3428 
Q 1925 3584 2291 3584 
Q 2894 3584 3203 3211 
Q 3513 2838 3513 2113 
z
" transform="scale(0.015625)"/>
      <path id="DejaVuSans-79" d="M 2059 -325 
Q 1816 -950 1584 -1140 
Q 1353 -1331 966 -1331 
L 506 -1331 
L 506 -850 
L 844 -850 
Q 1081 -850 1212 -737 
Q 1344 -625 1503 -206 
L 1606 56 
L 191 3500 
L 800 3500 
L 1894 763 
L 2988 3500 
L 3597 3500 
L 2059 -325 
z
" transform="scale(0.015625)"/>
      <path id="DejaVuSans-6d" d="M 3328 2828 
Q 3544 3216 3844 3400 
Q 4144 3584 4550 3584 
Q 5097 3584 5394 3201 
Q 5691 2819 5691 2113 
L 5691 0 
L 5113 0 
L 5113 2094 
Q 5113 2597 4934 2840 
Q 4756 3084 4391 3084 
Q 3944 3084 3684 2787 
Q 3425 2491 3425 1978 
L 3425 0 
L 2847 0 
L 2847 2094 
Q 2847 2600 2669 2842 
Q 2491 3084 2119 3084 
Q 1678 3084 1418 2786 
Q 1159 2488 1159 1978 
L 1159 0 
L 581 0 
L 581 3500 
L 1159 3500 
L 1159 2956 
Q 1356 3278 1631 3431 
Q 1906 3584 2284 3584 
Q 2666 3584 2933 3390 
Q 3200 3197 3328 2828 
z
" transform="scale(0.015625)"/>
     </defs>
     <use xlink:href="#DejaVuSans-63"/>
     <use xlink:href="#DejaVuSans-61" transform="translate(54.980469 0)"/>
     <use xlink:href="#DejaVuSans-72" transform="translate(116.259766 0)"/>
     <use xlink:href="#DejaVuSans-74" transform="translate(157.373047 0)"/>
     <use xlink:href="#DejaVuSans-70" transform="translate(196.582031 0)"/>
     <use xlink:href="#DejaVuSans-6f" transform="translate(260.058594 0)"/>
     <use xlink:href="#DejaVuSans-6c" transform="translate(321.240234 0)"/>
     <use xlink:href="#DejaVuSans-65" transform="translate(349.023438 0)"/>
     <use xlink:href="#DejaVuSans-5f" transform="translate(410.546875 0)"/>
     <use xlink:href="#DejaVuSans-47" transform="translate(460.546875 0)"/>
     <use xlink:href="#DejaVuSans-4e" transform="translate(538.037109 0)"/>
     <use xlink:href="#DejaVuSans-4e" transform="translate(612.841797 0)"/>
     <use xlink:href="#DejaVuSans-5f" transform="translate(687.646484 0)"/>
     <use xlink:href="#DejaVuSans-4b" transform="translate(737.646484 0)"/>
     <use xlink:href="#DejaVuSans-5f" transform="translate(803.222656 0)"/>
     <use xlink:href="#DejaVuSans-6e" transform="translate(853.222656 0)"/>
     <use xlink:href="#DejaVuSans-6f" transform="translate(916.601562 0)"/>
     <use xlink:href="#DejaVuSans-69" transform="translate(977.783203 0)"/>
     <use xlink:href="#DejaVuSans-73" transform="translate(1005.566406 0)"/>
     <use xlink:href="#DejaVuSans-65" transform="translate(1057.666016 0)"/>
     <use xlink:href="#DejaVuSans-5f" transform="translate(1119.189453 0)"/>
     <use xlink:href="#DejaVuSans-65" transform="translate(1169.189453 0)"/>
     <use xlink:href="#DejaVuSans-6e" transform="translate(1230.712891 0)"/>
     <use xlink:href="#DejaVuSans-74" transform="translate(1294.091797 0)"/>
     <use xlink:href="#DejaVuSans-72" transform="translate(1333.300781 0)"/>
     <use xlink:href="#DejaVuSans-6f" transform="translate(1372.164062 0)"/>
     <use xlink:href="#DejaVuSans-70" transform="translate(1433.345703 0)"/>
     <use xlink:href="#DejaVuSans-79" transform="translate(1496.822266 0)"/>
     <use xlink:href="#DejaVuSans-5f" transform="translate(1556.001953 0)"/>
     <use xlink:href="#DejaVuSans-6d" transform="translate(1606.001953 0)"/>
     <use xlink:href="#DejaVuSans-6c" transform="translate(1703.414062 0)"/>
     <use xlink:href="#DejaVuSans-70" transform="translate(1731.197266 0)"/>
    </g>
   </g>
   <g id="legend_1">
    <g id="patch_7">
     <path d="M 57.87 385.04 
L 226.796563 385.04 
Q 228.796563 385.04 228.796563 383.04 
L 228.796563 310.649375 
Q 228.796563 308.649375 226.796563 308.649375 
L 57.87 308.649375 
Q 55.87 308.649375 55.87 310.649375 
L 55.87 383.04 
Q 55.87 385.04 57.87 385.04 
z
" style="fill: #eaeaf2; opacity: 0.8; stroke: #cccccc; stroke-linejoin: miter"/>
    </g>
    <g id="line2d_36">
     <path d="M 59.87 316.747813 
L 69.87 316.747813 
L 79.87 316.747813 
" style="fill: none; stroke: #0000ff; stroke-width: 1.5; stroke-linecap: round"/>
    </g>
    <g id="text_31">
     <!-- Mean Reward -->
     <g style="fill: #262626" transform="translate(87.87 320.247813) scale(0.1 -0.1)">
      <defs>
       <path id="DejaVuSans-4d" d="M 628 4666 
L 1569 4666 
L 2759 1491 
L 3956 4666 
L 4897 4666 
L 4897 0 
L 4281 0 
L 4281 4097 
L 3078 897 
L 2444 897 
L 1241 4097 
L 1241 0 
L 628 0 
L 628 4666 
z
" transform="scale(0.015625)"/>
       <path id="DejaVuSans-20" transform="scale(0.015625)"/>
      </defs>
      <use xlink:href="#DejaVuSans-4d"/>
      <use xlink:href="#DejaVuSans-65" transform="translate(86.279297 0)"/>
      <use xlink:href="#DejaVuSans-61" transform="translate(147.802734 0)"/>
      <use xlink:href="#DejaVuSans-6e" transform="translate(209.082031 0)"/>
      <use xlink:href="#DejaVuSans-20" transform="translate(272.460938 0)"/>
      <use xlink:href="#DejaVuSans-52" transform="translate(304.248047 0)"/>
      <use xlink:href="#DejaVuSans-65" transform="translate(369.230469 0)"/>
      <use xlink:href="#DejaVuSans-77" transform="translate(430.753906 0)"/>
      <use xlink:href="#DejaVuSans-61" transform="translate(512.541016 0)"/>
      <use xlink:href="#DejaVuSans-72" transform="translate(573.820312 0)"/>
      <use xlink:href="#DejaVuSans-64" transform="translate(613.183594 0)"/>
     </g>
    </g>
    <g id="line2d_37">
     <path d="M 59.87 331.425937 
L 69.87 331.425937 
L 79.87 331.425937 
" style="fill: none; stroke: #008000; stroke-opacity: 0.2; stroke-linecap: round"/>
    </g>
    <g id="text_32">
     <!-- Reward (individual runs) -->
     <g style="fill: #262626" transform="translate(87.87 334.925937) scale(0.1 -0.1)">
      <defs>
       <path id="DejaVuSans-28" d="M 1984 4856 
Q 1566 4138 1362 3434 
Q 1159 2731 1159 2009 
Q 1159 1288 1364 580 
Q 1569 -128 1984 -844 
L 1484 -844 
Q 1016 -109 783 600 
Q 550 1309 550 2009 
Q 550 2706 781 3412 
Q 1013 4119 1484 4856 
L 1984 4856 
z
" transform="scale(0.015625)"/>
       <path id="DejaVuSans-76" d="M 191 3500 
L 800 3500 
L 1894 563 
L 2988 3500 
L 3597 3500 
L 2284 0 
L 1503 0 
L 191 3500 
z
" transform="scale(0.015625)"/>
       <path id="DejaVuSans-75" d="M 544 1381 
L 544 3500 
L 1119 3500 
L 1119 1403 
Q 1119 906 1312 657 
Q 1506 409 1894 409 
Q 2359 409 2629 706 
Q 2900 1003 2900 1516 
L 2900 3500 
L 3475 3500 
L 3475 0 
L 2900 0 
L 2900 538 
Q 2691 219 2414 64 
Q 2138 -91 1772 -91 
Q 1169 -91 856 284 
Q 544 659 544 1381 
z
M 1991 3584 
L 1991 3584 
z
" transform="scale(0.015625)"/>
       <path id="DejaVuSans-29" d="M 513 4856 
L 1013 4856 
Q 1481 4119 1714 3412 
Q 1947 2706 1947 2009 
Q 1947 1309 1714 600 
Q 1481 -109 1013 -844 
L 513 -844 
Q 928 -128 1133 580 
Q 1338 1288 1338 2009 
Q 1338 2731 1133 3434 
Q 928 4138 513 4856 
z
" transform="scale(0.015625)"/>
      </defs>
      <use xlink:href="#DejaVuSans-52"/>
      <use xlink:href="#DejaVuSans-65" transform="translate(64.982422 0)"/>
      <use xlink:href="#DejaVuSans-77" transform="translate(126.505859 0)"/>
      <use xlink:href="#DejaVuSans-61" transform="translate(208.292969 0)"/>
      <use xlink:href="#DejaVuSans-72" transform="translate(269.572266 0)"/>
      <use xlink:href="#DejaVuSans-64" transform="translate(308.935547 0)"/>
      <use xlink:href="#DejaVuSans-20" transform="translate(372.412109 0)"/>
      <use xlink:href="#DejaVuSans-28" transform="translate(404.199219 0)"/>
      <use xlink:href="#DejaVuSans-69" transform="translate(443.212891 0)"/>
      <use xlink:href="#DejaVuSans-6e" transform="translate(470.996094 0)"/>
      <use xlink:href="#DejaVuSans-64" transform="translate(534.375 0)"/>
      <use xlink:href="#DejaVuSans-69" transform="translate(597.851562 0)"/>
      <use xlink:href="#DejaVuSans-76" transform="translate(625.634766 0)"/>
      <use xlink:href="#DejaVuSans-69" transform="translate(684.814453 0)"/>
      <use xlink:href="#DejaVuSans-64" transform="translate(712.597656 0)"/>
      <use xlink:href="#DejaVuSans-75" transform="translate(776.074219 0)"/>
      <use xlink:href="#DejaVuSans-61" transform="translate(839.453125 0)"/>
      <use xlink:href="#DejaVuSans-6c" transform="translate(900.732422 0)"/>
      <use xlink:href="#DejaVuSans-20" transform="translate(928.515625 0)"/>
      <use xlink:href="#DejaVuSans-72" transform="translate(960.302734 0)"/>
      <use xlink:href="#DejaVuSans-75" transform="translate(1001.416016 0)"/>
      <use xlink:href="#DejaVuSans-6e" transform="translate(1064.794922 0)"/>
      <use xlink:href="#DejaVuSans-73" transform="translate(1128.173828 0)"/>
      <use xlink:href="#DejaVuSans-29" transform="translate(1180.273438 0)"/>
     </g>
    </g>
    <g id="line2d_38">
     <path d="M 59.87 346.104062 
L 69.87 346.104062 
L 79.87 346.104062 
" style="fill: none; stroke: #ff0000; stroke-linecap: round"/>
    </g>
    <g id="text_33">
     <!-- Noise std (normalized) -->
     <g style="fill: #262626" transform="translate(87.87 349.604062) scale(0.1 -0.1)">
      <defs>
       <path id="DejaVuSans-7a" d="M 353 3500 
L 3084 3500 
L 3084 2975 
L 922 459 
L 3084 459 
L 3084 0 
L 275 0 
L 275 525 
L 2438 3041 
L 353 3041 
L 353 3500 
z
" transform="scale(0.015625)"/>
      </defs>
      <use xlink:href="#DejaVuSans-4e"/>
      <use xlink:href="#DejaVuSans-6f" transform="translate(74.804688 0)"/>
      <use xlink:href="#DejaVuSans-69" transform="translate(135.986328 0)"/>
      <use xlink:href="#DejaVuSans-73" transform="translate(163.769531 0)"/>
      <use xlink:href="#DejaVuSans-65" transform="translate(215.869141 0)"/>
      <use xlink:href="#DejaVuSans-20" transform="translate(277.392578 0)"/>
      <use xlink:href="#DejaVuSans-73" transform="translate(309.179688 0)"/>
      <use xlink:href="#DejaVuSans-74" transform="translate(361.279297 0)"/>
      <use xlink:href="#DejaVuSans-64" transform="translate(400.488281 0)"/>
      <use xlink:href="#DejaVuSans-20" transform="translate(463.964844 0)"/>
      <use xlink:href="#DejaVuSans-28" transform="translate(495.751953 0)"/>
      <use xlink:href="#DejaVuSans-6e" transform="translate(534.765625 0)"/>
      <use xlink:href="#DejaVuSans-6f" transform="translate(598.144531 0)"/>
      <use xlink:href="#DejaVuSans-72" transform="translate(659.326172 0)"/>
      <use xlink:href="#DejaVuSans-6d" transform="translate(698.689453 0)"/>
      <use xlink:href="#DejaVuSans-61" transform="translate(796.101562 0)"/>
      <use xlink:href="#DejaVuSans-6c" transform="translate(857.380859 0)"/>
      <use xlink:href="#DejaVuSans-69" transform="translate(885.164062 0)"/>
      <use xlink:href="#DejaVuSans-7a" transform="translate(912.947266 0)"/>
      <use xlink:href="#DejaVuSans-65" transform="translate(965.4375 0)"/>
      <use xlink:href="#DejaVuSans-64" transform="translate(1026.960938 0)"/>
      <use xlink:href="#DejaVuSans-29" transform="translate(1090.4375 0)"/>
     </g>
    </g>
    <g id="line2d_39">
     <path d="M 59.87 360.782187 
L 69.87 360.782187 
L 79.87 360.782187 
" style="fill: none; stroke: #800080; stroke-linecap: round"/>
    </g>
    <g id="text_34">
     <!-- Entropy (normalized) -->
     <g style="fill: #262626" transform="translate(87.87 364.282187) scale(0.1 -0.1)">
      <use xlink:href="#DejaVuSans-45"/>
      <use xlink:href="#DejaVuSans-6e" transform="translate(63.183594 0)"/>
      <use xlink:href="#DejaVuSans-74" transform="translate(126.5625 0)"/>
      <use xlink:href="#DejaVuSans-72" transform="translate(165.771484 0)"/>
      <use xlink:href="#DejaVuSans-6f" transform="translate(204.634766 0)"/>
      <use xlink:href="#DejaVuSans-70" transform="translate(265.816406 0)"/>
      <use xlink:href="#DejaVuSans-79" transform="translate(329.292969 0)"/>
      <use xlink:href="#DejaVuSans-20" transform="translate(388.472656 0)"/>
      <use xlink:href="#DejaVuSans-28" transform="translate(420.259766 0)"/>
      <use xlink:href="#DejaVuSans-6e" transform="translate(459.273438 0)"/>
      <use xlink:href="#DejaVuSans-6f" transform="translate(522.652344 0)"/>
      <use xlink:href="#DejaVuSans-72" transform="translate(583.833984 0)"/>
      <use xlink:href="#DejaVuSans-6d" transform="translate(623.197266 0)"/>
      <use xlink:href="#DejaVuSans-61" transform="translate(720.609375 0)"/>
      <use xlink:href="#DejaVuSans-6c" transform="translate(781.888672 0)"/>
      <use xlink:href="#DejaVuSans-69" transform="translate(809.671875 0)"/>
      <use xlink:href="#DejaVuSans-7a" transform="translate(837.455078 0)"/>
      <use xlink:href="#DejaVuSans-65" transform="translate(889.945312 0)"/>
      <use xlink:href="#DejaVuSans-64" transform="translate(951.46875 0)"/>
      <use xlink:href="#DejaVuSans-29" transform="translate(1014.945312 0)"/>
     </g>
    </g>
    <g id="patch_8">
     <path d="M 59.87 378.960312 
L 79.87 378.960312 
L 79.87 371.960312 
L 59.87 371.960312 
z
" style="fill: #0000ff; fill-opacity: 0.1"/>
    </g>
    <g id="text_35">
     <!-- Reward Standard Deviation -->
     <g style="fill: #262626" transform="translate(87.87 378.960312) scale(0.1 -0.1)">
      <defs>
       <path id="DejaVuSans-53" d="M 3425 4513 
L 3425 3897 
Q 3066 4069 2747 4153 
Q 2428 4238 2131 4238 
Q 1616 4238 1336 4038 
Q 1056 3838 1056 3469 
Q 1056 3159 1242 3001 
Q 1428 2844 1947 2747 
L 2328 2669 
Q 3034 2534 3370 2195 
Q 3706 1856 3706 1288 
Q 3706 609 3251 259 
Q 2797 -91 1919 -91 
Q 1588 -91 1214 -16 
Q 841 59 441 206 
L 441 856 
Q 825 641 1194 531 
Q 1563 422 1919 422 
Q 2459 422 2753 634 
Q 3047 847 3047 1241 
Q 3047 1584 2836 1778 
Q 2625 1972 2144 2069 
L 1759 2144 
Q 1053 2284 737 2584 
Q 422 2884 422 3419 
Q 422 4038 858 4394 
Q 1294 4750 2059 4750 
Q 2388 4750 2728 4690 
Q 3069 4631 3425 4513 
z
" transform="scale(0.015625)"/>
       <path id="DejaVuSans-44" d="M 1259 4147 
L 1259 519 
L 2022 519 
Q 2988 519 3436 956 
Q 3884 1394 3884 2338 
Q 3884 3275 3436 3711 
Q 2988 4147 2022 4147 
L 1259 4147 
z
M 628 4666 
L 1925 4666 
Q 3281 4666 3915 4102 
Q 4550 3538 4550 2338 
Q 4550 1131 3912 565 
Q 3275 0 1925 0 
L 628 0 
L 628 4666 
z
" transform="scale(0.015625)"/>
      </defs>
      <use xlink:href="#DejaVuSans-52"/>
      <use xlink:href="#DejaVuSans-65" transform="translate(64.982422 0)"/>
      <use xlink:href="#DejaVuSans-77" transform="translate(126.505859 0)"/>
      <use xlink:href="#DejaVuSans-61" transform="translate(208.292969 0)"/>
      <use xlink:href="#DejaVuSans-72" transform="translate(269.572266 0)"/>
      <use xlink:href="#DejaVuSans-64" transform="translate(308.935547 0)"/>
      <use xlink:href="#DejaVuSans-20" transform="translate(372.412109 0)"/>
      <use xlink:href="#DejaVuSans-53" transform="translate(404.199219 0)"/>
      <use xlink:href="#DejaVuSans-74" transform="translate(467.675781 0)"/>
      <use xlink:href="#DejaVuSans-61" transform="translate(506.884766 0)"/>
      <use xlink:href="#DejaVuSans-6e" transform="translate(568.164062 0)"/>
      <use xlink:href="#DejaVuSans-64" transform="translate(631.542969 0)"/>
      <use xlink:href="#DejaVuSans-61" transform="translate(695.019531 0)"/>
      <use xlink:href="#DejaVuSans-72" transform="translate(756.298828 0)"/>
      <use xlink:href="#DejaVuSans-64" transform="translate(795.662109 0)"/>
      <use xlink:href="#DejaVuSans-20" transform="translate(859.138672 0)"/>
      <use xlink:href="#DejaVuSans-44" transform="translate(890.925781 0)"/>
      <use xlink:href="#DejaVuSans-65" transform="translate(967.927734 0)"/>
      <use xlink:href="#DejaVuSans-76" transform="translate(1029.451172 0)"/>
      <use xlink:href="#DejaVuSans-69" transform="translate(1088.630859 0)"/>
      <use xlink:href="#DejaVuSans-61" transform="translate(1116.414062 0)"/>
      <use xlink:href="#DejaVuSans-74" transform="translate(1177.693359 0)"/>
      <use xlink:href="#DejaVuSans-69" transform="translate(1216.902344 0)"/>
      <use xlink:href="#DejaVuSans-6f" transform="translate(1244.685547 0)"/>
      <use xlink:href="#DejaVuSans-6e" transform="translate(1305.867188 0)"/>
     </g>
    </g>
   </g>
  </g>
 </g>
 <defs>
  <clipPath id="p0d7d4318e7">
   <rect x="50.87" y="26.88" width="513.419615" height="363.16"/>
  </clipPath>
 </defs>
</svg>
