<?xml version="1.0" encoding="utf-8" standalone="no"?>
<!DOCTYPE svg PUBLIC "-//W3C//DTD SVG 1.1//EN"
  "http://www.w3.org/Graphics/SVG/1.1/DTD/svg11.dtd">
<svg xmlns:xlink="http://www.w3.org/1999/xlink" width="648pt" height="432pt" viewBox="0 0 648 432" xmlns="http://www.w3.org/2000/svg" version="1.1">
 <metadata>
  <rdf:RDF xmlns:dc="http://purl.org/dc/elements/1.1/" xmlns:cc="http://creativecommons.org/ns#" xmlns:rdf="http://www.w3.org/1999/02/22-rdf-syntax-ns#">
   <cc:Work>
    <dc:type rdf:resource="http://purl.org/dc/dcmitype/StillImage"/>
    <dc:date>2025-07-10T11:37:04.781919</dc:date>
    <dc:format>image/svg+xml</dc:format>
    <dc:creator>
     <cc:Agent>
      <dc:title>Matplotlib v3.10.0, https://matplotlib.org/</dc:title>
     </cc:Agent>
    </dc:creator>
   </cc:Work>
  </rdf:RDF>
 </metadata>
 <defs>
  <style type="text/css">*{stroke-linejoin: round; stroke-linecap: butt}</style>
 </defs>
 <g id="figure_1">
  <g id="patch_1">
   <path d="M 0 432 
L 648 432 
L 648 0 
L 0 0 
z
" style="fill: #ffffff"/>
  </g>
  <g id="axes_1">
   <g id="patch_2">
    <path d="M 50.87 390.04 
L 637.2 390.04 
L 637.2 26.88 
L 50.87 26.88 
z
" style="fill: #eaeaf2"/>
   </g>
   <g id="matplotlib.axis_1">
    <g id="xtick_1">
     <g id="line2d_1">
      <path d="M 62.145577 390.04 
L 62.145577 26.88 
" clip-path="url(#p8559a5a02f)" style="fill: none; stroke: #ffffff; stroke-width: 0.8; stroke-linecap: round"/>
     </g>
     <g id="text_1">
      <!-- 0 -->
      <g style="fill: #262626" transform="translate(58.964327 404.638438) scale(0.1 -0.1)">
       <defs>
        <path id="DejaVuSans-30" d="M 2034 4250 
Q 1547 4250 1301 3770 
Q 1056 3291 1056 2328 
Q 1056 1369 1301 889 
Q 1547 409 2034 409 
Q 2525 409 2770 889 
Q 3016 1369 3016 2328 
Q 3016 3291 2770 3770 
Q 2525 4250 2034 4250 
z
M 2034 4750 
Q 2819 4750 3233 4129 
Q 3647 3509 3647 2328 
Q 3647 1150 3233 529 
Q 2819 -91 2034 -91 
Q 1250 -91 836 529 
Q 422 1150 422 2328 
Q 422 3509 836 4129 
Q 1250 4750 2034 4750 
z
" transform="scale(0.015625)"/>
       </defs>
       <use xlink:href="#DejaVuSans-30"/>
      </g>
     </g>
    </g>
    <g id="xtick_2">
     <g id="line2d_2">
      <path d="M 99.730833 390.04 
L 99.730833 26.88 
" clip-path="url(#p8559a5a02f)" style="fill: none; stroke: #ffffff; stroke-width: 0.8; stroke-linecap: round"/>
     </g>
     <g id="text_2">
      <!-- 10 -->
      <g style="fill: #262626" transform="translate(93.368333 404.638438) scale(0.1 -0.1)">
       <defs>
        <path id="DejaVuSans-31" d="M 794 531 
L 1825 531 
L 1825 4091 
L 703 3866 
L 703 4441 
L 1819 4666 
L 2450 4666 
L 2450 531 
L 3481 531 
L 3481 0 
L 794 0 
L 794 531 
z
" transform="scale(0.015625)"/>
       </defs>
       <use xlink:href="#DejaVuSans-31"/>
       <use xlink:href="#DejaVuSans-30" transform="translate(63.623047 0)"/>
      </g>
     </g>
    </g>
    <g id="xtick_3">
     <g id="line2d_3">
      <path d="M 137.31609 390.04 
L 137.31609 26.88 
" clip-path="url(#p8559a5a02f)" style="fill: none; stroke: #ffffff; stroke-width: 0.8; stroke-linecap: round"/>
     </g>
     <g id="text_3">
      <!-- 20 -->
      <g style="fill: #262626" transform="translate(130.95359 404.638438) scale(0.1 -0.1)">
       <defs>
        <path id="DejaVuSans-32" d="M 1228 531 
L 3431 531 
L 3431 0 
L 469 0 
L 469 531 
Q 828 903 1448 1529 
Q 2069 2156 2228 2338 
Q 2531 2678 2651 2914 
Q 2772 3150 2772 3378 
Q 2772 3750 2511 3984 
Q 2250 4219 1831 4219 
Q 1534 4219 1204 4116 
Q 875 4013 500 3803 
L 500 4441 
Q 881 4594 1212 4672 
Q 1544 4750 1819 4750 
Q 2544 4750 2975 4387 
Q 3406 4025 3406 3419 
Q 3406 3131 3298 2873 
Q 3191 2616 2906 2266 
Q 2828 2175 2409 1742 
Q 1991 1309 1228 531 
z
" transform="scale(0.015625)"/>
       </defs>
       <use xlink:href="#DejaVuSans-32"/>
       <use xlink:href="#DejaVuSans-30" transform="translate(63.623047 0)"/>
      </g>
     </g>
    </g>
    <g id="xtick_4">
     <g id="line2d_4">
      <path d="M 174.901346 390.04 
L 174.901346 26.88 
" clip-path="url(#p8559a5a02f)" style="fill: none; stroke: #ffffff; stroke-width: 0.8; stroke-linecap: round"/>
     </g>
     <g id="text_4">
      <!-- 30 -->
      <g style="fill: #262626" transform="translate(168.538846 404.638438) scale(0.1 -0.1)">
       <defs>
        <path id="DejaVuSans-33" d="M 2597 2516 
Q 3050 2419 3304 2112 
Q 3559 1806 3559 1356 
Q 3559 666 3084 287 
Q 2609 -91 1734 -91 
Q 1441 -91 1130 -33 
Q 819 25 488 141 
L 488 750 
Q 750 597 1062 519 
Q 1375 441 1716 441 
Q 2309 441 2620 675 
Q 2931 909 2931 1356 
Q 2931 1769 2642 2001 
Q 2353 2234 1838 2234 
L 1294 2234 
L 1294 2753 
L 1863 2753 
Q 2328 2753 2575 2939 
Q 2822 3125 2822 3475 
Q 2822 3834 2567 4026 
Q 2313 4219 1838 4219 
Q 1578 4219 1281 4162 
Q 984 4106 628 3988 
L 628 4550 
Q 988 4650 1302 4700 
Q 1616 4750 1894 4750 
Q 2613 4750 3031 4423 
Q 3450 4097 3450 3541 
Q 3450 3153 3228 2886 
Q 3006 2619 2597 2516 
z
" transform="scale(0.015625)"/>
       </defs>
       <use xlink:href="#DejaVuSans-33"/>
       <use xlink:href="#DejaVuSans-30" transform="translate(63.623047 0)"/>
      </g>
     </g>
    </g>
    <g id="xtick_5">
     <g id="line2d_5">
      <path d="M 212.486603 390.04 
L 212.486603 26.88 
" clip-path="url(#p8559a5a02f)" style="fill: none; stroke: #ffffff; stroke-width: 0.8; stroke-linecap: round"/>
     </g>
     <g id="text_5">
      <!-- 40 -->
      <g style="fill: #262626" transform="translate(206.124103 404.638438) scale(0.1 -0.1)">
       <defs>
        <path id="DejaVuSans-34" d="M 2419 4116 
L 825 1625 
L 2419 1625 
L 2419 4116 
z
M 2253 4666 
L 3047 4666 
L 3047 1625 
L 3713 1625 
L 3713 1100 
L 3047 1100 
L 3047 0 
L 2419 0 
L 2419 1100 
L 313 1100 
L 313 1709 
L 2253 4666 
z
" transform="scale(0.015625)"/>
       </defs>
       <use xlink:href="#DejaVuSans-34"/>
       <use xlink:href="#DejaVuSans-30" transform="translate(63.623047 0)"/>
      </g>
     </g>
    </g>
    <g id="xtick_6">
     <g id="line2d_6">
      <path d="M 250.071859 390.04 
L 250.071859 26.88 
" clip-path="url(#p8559a5a02f)" style="fill: none; stroke: #ffffff; stroke-width: 0.8; stroke-linecap: round"/>
     </g>
     <g id="text_6">
      <!-- 50 -->
      <g style="fill: #262626" transform="translate(243.709359 404.638438) scale(0.1 -0.1)">
       <defs>
        <path id="DejaVuSans-35" d="M 691 4666 
L 3169 4666 
L 3169 4134 
L 1269 4134 
L 1269 2991 
Q 1406 3038 1543 3061 
Q 1681 3084 1819 3084 
Q 2600 3084 3056 2656 
Q 3513 2228 3513 1497 
Q 3513 744 3044 326 
Q 2575 -91 1722 -91 
Q 1428 -91 1123 -41 
Q 819 9 494 109 
L 494 744 
Q 775 591 1075 516 
Q 1375 441 1709 441 
Q 2250 441 2565 725 
Q 2881 1009 2881 1497 
Q 2881 1984 2565 2268 
Q 2250 2553 1709 2553 
Q 1456 2553 1204 2497 
Q 953 2441 691 2322 
L 691 4666 
z
" transform="scale(0.015625)"/>
       </defs>
       <use xlink:href="#DejaVuSans-35"/>
       <use xlink:href="#DejaVuSans-30" transform="translate(63.623047 0)"/>
      </g>
     </g>
    </g>
    <g id="xtick_7">
     <g id="line2d_7">
      <path d="M 287.657115 390.04 
L 287.657115 26.88 
" clip-path="url(#p8559a5a02f)" style="fill: none; stroke: #ffffff; stroke-width: 0.8; stroke-linecap: round"/>
     </g>
     <g id="text_7">
      <!-- 60 -->
      <g style="fill: #262626" transform="translate(281.294615 404.638438) scale(0.1 -0.1)">
       <defs>
        <path id="DejaVuSans-36" d="M 2113 2584 
Q 1688 2584 1439 2293 
Q 1191 2003 1191 1497 
Q 1191 994 1439 701 
Q 1688 409 2113 409 
Q 2538 409 2786 701 
Q 3034 994 3034 1497 
Q 3034 2003 2786 2293 
Q 2538 2584 2113 2584 
z
M 3366 4563 
L 3366 3988 
Q 3128 4100 2886 4159 
Q 2644 4219 2406 4219 
Q 1781 4219 1451 3797 
Q 1122 3375 1075 2522 
Q 1259 2794 1537 2939 
Q 1816 3084 2150 3084 
Q 2853 3084 3261 2657 
Q 3669 2231 3669 1497 
Q 3669 778 3244 343 
Q 2819 -91 2113 -91 
Q 1303 -91 875 529 
Q 447 1150 447 2328 
Q 447 3434 972 4092 
Q 1497 4750 2381 4750 
Q 2619 4750 2861 4703 
Q 3103 4656 3366 4563 
z
" transform="scale(0.015625)"/>
       </defs>
       <use xlink:href="#DejaVuSans-36"/>
       <use xlink:href="#DejaVuSans-30" transform="translate(63.623047 0)"/>
      </g>
     </g>
    </g>
    <g id="xtick_8">
     <g id="line2d_8">
      <path d="M 325.242372 390.04 
L 325.242372 26.88 
" clip-path="url(#p8559a5a02f)" style="fill: none; stroke: #ffffff; stroke-width: 0.8; stroke-linecap: round"/>
     </g>
     <g id="text_8">
      <!-- 70 -->
      <g style="fill: #262626" transform="translate(318.879872 404.638438) scale(0.1 -0.1)">
       <defs>
        <path id="DejaVuSans-37" d="M 525 4666 
L 3525 4666 
L 3525 4397 
L 1831 0 
L 1172 0 
L 2766 4134 
L 525 4134 
L 525 4666 
z
" transform="scale(0.015625)"/>
       </defs>
       <use xlink:href="#DejaVuSans-37"/>
       <use xlink:href="#DejaVuSans-30" transform="translate(63.623047 0)"/>
      </g>
     </g>
    </g>
    <g id="xtick_9">
     <g id="line2d_9">
      <path d="M 362.827628 390.04 
L 362.827628 26.88 
" clip-path="url(#p8559a5a02f)" style="fill: none; stroke: #ffffff; stroke-width: 0.8; stroke-linecap: round"/>
     </g>
     <g id="text_9">
      <!-- 80 -->
      <g style="fill: #262626" transform="translate(356.465128 404.638438) scale(0.1 -0.1)">
       <defs>
        <path id="DejaVuSans-38" d="M 2034 2216 
Q 1584 2216 1326 1975 
Q 1069 1734 1069 1313 
Q 1069 891 1326 650 
Q 1584 409 2034 409 
Q 2484 409 2743 651 
Q 3003 894 3003 1313 
Q 3003 1734 2745 1975 
Q 2488 2216 2034 2216 
z
M 1403 2484 
Q 997 2584 770 2862 
Q 544 3141 544 3541 
Q 544 4100 942 4425 
Q 1341 4750 2034 4750 
Q 2731 4750 3128 4425 
Q 3525 4100 3525 3541 
Q 3525 3141 3298 2862 
Q 3072 2584 2669 2484 
Q 3125 2378 3379 2068 
Q 3634 1759 3634 1313 
Q 3634 634 3220 271 
Q 2806 -91 2034 -91 
Q 1263 -91 848 271 
Q 434 634 434 1313 
Q 434 1759 690 2068 
Q 947 2378 1403 2484 
z
M 1172 3481 
Q 1172 3119 1398 2916 
Q 1625 2713 2034 2713 
Q 2441 2713 2670 2916 
Q 2900 3119 2900 3481 
Q 2900 3844 2670 4047 
Q 2441 4250 2034 4250 
Q 1625 4250 1398 4047 
Q 1172 3844 1172 3481 
z
" transform="scale(0.015625)"/>
       </defs>
       <use xlink:href="#DejaVuSans-38"/>
       <use xlink:href="#DejaVuSans-30" transform="translate(63.623047 0)"/>
      </g>
     </g>
    </g>
    <g id="xtick_10">
     <g id="line2d_10">
      <path d="M 400.412885 390.04 
L 400.412885 26.88 
" clip-path="url(#p8559a5a02f)" style="fill: none; stroke: #ffffff; stroke-width: 0.8; stroke-linecap: round"/>
     </g>
     <g id="text_10">
      <!-- 90 -->
      <g style="fill: #262626" transform="translate(394.050385 404.638438) scale(0.1 -0.1)">
       <defs>
        <path id="DejaVuSans-39" d="M 703 97 
L 703 672 
Q 941 559 1184 500 
Q 1428 441 1663 441 
Q 2288 441 2617 861 
Q 2947 1281 2994 2138 
Q 2813 1869 2534 1725 
Q 2256 1581 1919 1581 
Q 1219 1581 811 2004 
Q 403 2428 403 3163 
Q 403 3881 828 4315 
Q 1253 4750 1959 4750 
Q 2769 4750 3195 4129 
Q 3622 3509 3622 2328 
Q 3622 1225 3098 567 
Q 2575 -91 1691 -91 
Q 1453 -91 1209 -44 
Q 966 3 703 97 
z
M 1959 2075 
Q 2384 2075 2632 2365 
Q 2881 2656 2881 3163 
Q 2881 3666 2632 3958 
Q 2384 4250 1959 4250 
Q 1534 4250 1286 3958 
Q 1038 3666 1038 3163 
Q 1038 2656 1286 2365 
Q 1534 2075 1959 2075 
z
" transform="scale(0.015625)"/>
       </defs>
       <use xlink:href="#DejaVuSans-39"/>
       <use xlink:href="#DejaVuSans-30" transform="translate(63.623047 0)"/>
      </g>
     </g>
    </g>
    <g id="xtick_11">
     <g id="line2d_11">
      <path d="M 437.998141 390.04 
L 437.998141 26.88 
" clip-path="url(#p8559a5a02f)" style="fill: none; stroke: #ffffff; stroke-width: 0.8; stroke-linecap: round"/>
     </g>
     <g id="text_11">
      <!-- 100 -->
      <g style="fill: #262626" transform="translate(428.454391 404.638438) scale(0.1 -0.1)">
       <use xlink:href="#DejaVuSans-31"/>
       <use xlink:href="#DejaVuSans-30" transform="translate(63.623047 0)"/>
       <use xlink:href="#DejaVuSans-30" transform="translate(127.246094 0)"/>
      </g>
     </g>
    </g>
    <g id="xtick_12">
     <g id="line2d_12">
      <path d="M 475.583397 390.04 
L 475.583397 26.88 
" clip-path="url(#p8559a5a02f)" style="fill: none; stroke: #ffffff; stroke-width: 0.8; stroke-linecap: round"/>
     </g>
     <g id="text_12">
      <!-- 110 -->
      <g style="fill: #262626" transform="translate(466.039647 404.638438) scale(0.1 -0.1)">
       <use xlink:href="#DejaVuSans-31"/>
       <use xlink:href="#DejaVuSans-31" transform="translate(63.623047 0)"/>
       <use xlink:href="#DejaVuSans-30" transform="translate(127.246094 0)"/>
      </g>
     </g>
    </g>
    <g id="xtick_13">
     <g id="line2d_13">
      <path d="M 513.168654 390.04 
L 513.168654 26.88 
" clip-path="url(#p8559a5a02f)" style="fill: none; stroke: #ffffff; stroke-width: 0.8; stroke-linecap: round"/>
     </g>
     <g id="text_13">
      <!-- 120 -->
      <g style="fill: #262626" transform="translate(503.624904 404.638438) scale(0.1 -0.1)">
       <use xlink:href="#DejaVuSans-31"/>
       <use xlink:href="#DejaVuSans-32" transform="translate(63.623047 0)"/>
       <use xlink:href="#DejaVuSans-30" transform="translate(127.246094 0)"/>
      </g>
     </g>
    </g>
    <g id="xtick_14">
     <g id="line2d_14">
      <path d="M 550.75391 390.04 
L 550.75391 26.88 
" clip-path="url(#p8559a5a02f)" style="fill: none; stroke: #ffffff; stroke-width: 0.8; stroke-linecap: round"/>
     </g>
     <g id="text_14">
      <!-- 130 -->
      <g style="fill: #262626" transform="translate(541.21016 404.638438) scale(0.1 -0.1)">
       <use xlink:href="#DejaVuSans-31"/>
       <use xlink:href="#DejaVuSans-33" transform="translate(63.623047 0)"/>
       <use xlink:href="#DejaVuSans-30" transform="translate(127.246094 0)"/>
      </g>
     </g>
    </g>
    <g id="xtick_15">
     <g id="line2d_15">
      <path d="M 588.339167 390.04 
L 588.339167 26.88 
" clip-path="url(#p8559a5a02f)" style="fill: none; stroke: #ffffff; stroke-width: 0.8; stroke-linecap: round"/>
     </g>
     <g id="text_15">
      <!-- 140 -->
      <g style="fill: #262626" transform="translate(578.795417 404.638438) scale(0.1 -0.1)">
       <use xlink:href="#DejaVuSans-31"/>
       <use xlink:href="#DejaVuSans-34" transform="translate(63.623047 0)"/>
       <use xlink:href="#DejaVuSans-30" transform="translate(127.246094 0)"/>
      </g>
     </g>
    </g>
    <g id="xtick_16">
     <g id="line2d_16">
      <path d="M 625.924423 390.04 
L 625.924423 26.88 
" clip-path="url(#p8559a5a02f)" style="fill: none; stroke: #ffffff; stroke-width: 0.8; stroke-linecap: round"/>
     </g>
     <g id="text_16">
      <!-- 150 -->
      <g style="fill: #262626" transform="translate(616.380673 404.638438) scale(0.1 -0.1)">
       <use xlink:href="#DejaVuSans-31"/>
       <use xlink:href="#DejaVuSans-35" transform="translate(63.623047 0)"/>
       <use xlink:href="#DejaVuSans-30" transform="translate(127.246094 0)"/>
      </g>
     </g>
    </g>
    <g id="text_17">
     <!-- Episode -->
     <g style="fill: #262626" transform="translate(324.3975 418.316562) scale(0.1 -0.1)">
      <defs>
       <path id="DejaVuSans-45" d="M 628 4666 
L 3578 4666 
L 3578 4134 
L 1259 4134 
L 1259 2753 
L 3481 2753 
L 3481 2222 
L 1259 2222 
L 1259 531 
L 3634 531 
L 3634 0 
L 628 0 
L 628 4666 
z
" transform="scale(0.015625)"/>
       <path id="DejaVuSans-70" d="M 1159 525 
L 1159 -1331 
L 581 -1331 
L 581 3500 
L 1159 3500 
L 1159 2969 
Q 1341 3281 1617 3432 
Q 1894 3584 2278 3584 
Q 2916 3584 3314 3078 
Q 3713 2572 3713 1747 
Q 3713 922 3314 415 
Q 2916 -91 2278 -91 
Q 1894 -91 1617 61 
Q 1341 213 1159 525 
z
M 3116 1747 
Q 3116 2381 2855 2742 
Q 2594 3103 2138 3103 
Q 1681 3103 1420 2742 
Q 1159 2381 1159 1747 
Q 1159 1113 1420 752 
Q 1681 391 2138 391 
Q 2594 391 2855 752 
Q 3116 1113 3116 1747 
z
" transform="scale(0.015625)"/>
       <path id="DejaVuSans-69" d="M 603 3500 
L 1178 3500 
L 1178 0 
L 603 0 
L 603 3500 
z
M 603 4863 
L 1178 4863 
L 1178 4134 
L 603 4134 
L 603 4863 
z
" transform="scale(0.015625)"/>
       <path id="DejaVuSans-73" d="M 2834 3397 
L 2834 2853 
Q 2591 2978 2328 3040 
Q 2066 3103 1784 3103 
Q 1356 3103 1142 2972 
Q 928 2841 928 2578 
Q 928 2378 1081 2264 
Q 1234 2150 1697 2047 
L 1894 2003 
Q 2506 1872 2764 1633 
Q 3022 1394 3022 966 
Q 3022 478 2636 193 
Q 2250 -91 1575 -91 
Q 1294 -91 989 -36 
Q 684 19 347 128 
L 347 722 
Q 666 556 975 473 
Q 1284 391 1588 391 
Q 1994 391 2212 530 
Q 2431 669 2431 922 
Q 2431 1156 2273 1281 
Q 2116 1406 1581 1522 
L 1381 1569 
Q 847 1681 609 1914 
Q 372 2147 372 2553 
Q 372 3047 722 3315 
Q 1072 3584 1716 3584 
Q 2034 3584 2315 3537 
Q 2597 3491 2834 3397 
z
" transform="scale(0.015625)"/>
       <path id="DejaVuSans-6f" d="M 1959 3097 
Q 1497 3097 1228 2736 
Q 959 2375 959 1747 
Q 959 1119 1226 758 
Q 1494 397 1959 397 
Q 2419 397 2687 759 
Q 2956 1122 2956 1747 
Q 2956 2369 2687 2733 
Q 2419 3097 1959 3097 
z
M 1959 3584 
Q 2709 3584 3137 3096 
Q 3566 2609 3566 1747 
Q 3566 888 3137 398 
Q 2709 -91 1959 -91 
Q 1206 -91 779 398 
Q 353 888 353 1747 
Q 353 2609 779 3096 
Q 1206 3584 1959 3584 
z
" transform="scale(0.015625)"/>
       <path id="DejaVuSans-64" d="M 2906 2969 
L 2906 4863 
L 3481 4863 
L 3481 0 
L 2906 0 
L 2906 525 
Q 2725 213 2448 61 
Q 2172 -91 1784 -91 
Q 1150 -91 751 415 
Q 353 922 353 1747 
Q 353 2572 751 3078 
Q 1150 3584 1784 3584 
Q 2172 3584 2448 3432 
Q 2725 3281 2906 2969 
z
M 947 1747 
Q 947 1113 1208 752 
Q 1469 391 1925 391 
Q 2381 391 2643 752 
Q 2906 1113 2906 1747 
Q 2906 2381 2643 2742 
Q 2381 3103 1925 3103 
Q 1469 3103 1208 2742 
Q 947 2381 947 1747 
z
" transform="scale(0.015625)"/>
       <path id="DejaVuSans-65" d="M 3597 1894 
L 3597 1613 
L 953 1613 
Q 991 1019 1311 708 
Q 1631 397 2203 397 
Q 2534 397 2845 478 
Q 3156 559 3463 722 
L 3463 178 
Q 3153 47 2828 -22 
Q 2503 -91 2169 -91 
Q 1331 -91 842 396 
Q 353 884 353 1716 
Q 353 2575 817 3079 
Q 1281 3584 2069 3584 
Q 2775 3584 3186 3129 
Q 3597 2675 3597 1894 
z
M 3022 2063 
Q 3016 2534 2758 2815 
Q 2500 3097 2075 3097 
Q 1594 3097 1305 2825 
Q 1016 2553 972 2059 
L 3022 2063 
z
" transform="scale(0.015625)"/>
      </defs>
      <use xlink:href="#DejaVuSans-45"/>
      <use xlink:href="#DejaVuSans-70" transform="translate(63.183594 0)"/>
      <use xlink:href="#DejaVuSans-69" transform="translate(126.660156 0)"/>
      <use xlink:href="#DejaVuSans-73" transform="translate(154.443359 0)"/>
      <use xlink:href="#DejaVuSans-6f" transform="translate(206.542969 0)"/>
      <use xlink:href="#DejaVuSans-64" transform="translate(267.724609 0)"/>
      <use xlink:href="#DejaVuSans-65" transform="translate(331.201172 0)"/>
     </g>
    </g>
   </g>
   <g id="matplotlib.axis_2">
    <g id="ytick_1">
     <g id="line2d_17">
      <path d="M 50.87 390.04 
L 637.2 390.04 
" clip-path="url(#p8559a5a02f)" style="fill: none; stroke: #ffffff; stroke-width: 0.8; stroke-linecap: round"/>
     </g>
     <g id="text_18">
      <!-- 0 -->
      <g style="fill: #262626" transform="translate(37.5075 393.839219) scale(0.1 -0.1)">
       <use xlink:href="#DejaVuSans-30"/>
      </g>
     </g>
    </g>
    <g id="ytick_2">
     <g id="line2d_18">
      <path d="M 50.87 355.120769 
L 637.2 355.120769 
" clip-path="url(#p8559a5a02f)" style="fill: none; stroke: #ffffff; stroke-width: 0.8; stroke-linecap: round"/>
     </g>
     <g id="text_19">
      <!-- 50 -->
      <g style="fill: #262626" transform="translate(31.145 358.919988) scale(0.1 -0.1)">
       <use xlink:href="#DejaVuSans-35"/>
       <use xlink:href="#DejaVuSans-30" transform="translate(63.623047 0)"/>
      </g>
     </g>
    </g>
    <g id="ytick_3">
     <g id="line2d_19">
      <path d="M 50.87 320.201538 
L 637.2 320.201538 
" clip-path="url(#p8559a5a02f)" style="fill: none; stroke: #ffffff; stroke-width: 0.8; stroke-linecap: round"/>
     </g>
     <g id="text_20">
      <!-- 100 -->
      <g style="fill: #262626" transform="translate(24.7825 324.000757) scale(0.1 -0.1)">
       <use xlink:href="#DejaVuSans-31"/>
       <use xlink:href="#DejaVuSans-30" transform="translate(63.623047 0)"/>
       <use xlink:href="#DejaVuSans-30" transform="translate(127.246094 0)"/>
      </g>
     </g>
    </g>
    <g id="ytick_4">
     <g id="line2d_20">
      <path d="M 50.87 285.282308 
L 637.2 285.282308 
" clip-path="url(#p8559a5a02f)" style="fill: none; stroke: #ffffff; stroke-width: 0.8; stroke-linecap: round"/>
     </g>
     <g id="text_21">
      <!-- 150 -->
      <g style="fill: #262626" transform="translate(24.7825 289.081526) scale(0.1 -0.1)">
       <use xlink:href="#DejaVuSans-31"/>
       <use xlink:href="#DejaVuSans-35" transform="translate(63.623047 0)"/>
       <use xlink:href="#DejaVuSans-30" transform="translate(127.246094 0)"/>
      </g>
     </g>
    </g>
    <g id="ytick_5">
     <g id="line2d_21">
      <path d="M 50.87 250.363077 
L 637.2 250.363077 
" clip-path="url(#p8559a5a02f)" style="fill: none; stroke: #ffffff; stroke-width: 0.8; stroke-linecap: round"/>
     </g>
     <g id="text_22">
      <!-- 200 -->
      <g style="fill: #262626" transform="translate(24.7825 254.162296) scale(0.1 -0.1)">
       <use xlink:href="#DejaVuSans-32"/>
       <use xlink:href="#DejaVuSans-30" transform="translate(63.623047 0)"/>
       <use xlink:href="#DejaVuSans-30" transform="translate(127.246094 0)"/>
      </g>
     </g>
    </g>
    <g id="ytick_6">
     <g id="line2d_22">
      <path d="M 50.87 215.443846 
L 637.2 215.443846 
" clip-path="url(#p8559a5a02f)" style="fill: none; stroke: #ffffff; stroke-width: 0.8; stroke-linecap: round"/>
     </g>
     <g id="text_23">
      <!-- 250 -->
      <g style="fill: #262626" transform="translate(24.7825 219.243065) scale(0.1 -0.1)">
       <use xlink:href="#DejaVuSans-32"/>
       <use xlink:href="#DejaVuSans-35" transform="translate(63.623047 0)"/>
       <use xlink:href="#DejaVuSans-30" transform="translate(127.246094 0)"/>
      </g>
     </g>
    </g>
    <g id="ytick_7">
     <g id="line2d_23">
      <path d="M 50.87 180.524615 
L 637.2 180.524615 
" clip-path="url(#p8559a5a02f)" style="fill: none; stroke: #ffffff; stroke-width: 0.8; stroke-linecap: round"/>
     </g>
     <g id="text_24">
      <!-- 300 -->
      <g style="fill: #262626" transform="translate(24.7825 184.323834) scale(0.1 -0.1)">
       <use xlink:href="#DejaVuSans-33"/>
       <use xlink:href="#DejaVuSans-30" transform="translate(63.623047 0)"/>
       <use xlink:href="#DejaVuSans-30" transform="translate(127.246094 0)"/>
      </g>
     </g>
    </g>
    <g id="ytick_8">
     <g id="line2d_24">
      <path d="M 50.87 145.605385 
L 637.2 145.605385 
" clip-path="url(#p8559a5a02f)" style="fill: none; stroke: #ffffff; stroke-width: 0.8; stroke-linecap: round"/>
     </g>
     <g id="text_25">
      <!-- 350 -->
      <g style="fill: #262626" transform="translate(24.7825 149.404603) scale(0.1 -0.1)">
       <use xlink:href="#DejaVuSans-33"/>
       <use xlink:href="#DejaVuSans-35" transform="translate(63.623047 0)"/>
       <use xlink:href="#DejaVuSans-30" transform="translate(127.246094 0)"/>
      </g>
     </g>
    </g>
    <g id="ytick_9">
     <g id="line2d_25">
      <path d="M 50.87 110.686154 
L 637.2 110.686154 
" clip-path="url(#p8559a5a02f)" style="fill: none; stroke: #ffffff; stroke-width: 0.8; stroke-linecap: round"/>
     </g>
     <g id="text_26">
      <!-- 400 -->
      <g style="fill: #262626" transform="translate(24.7825 114.485373) scale(0.1 -0.1)">
       <use xlink:href="#DejaVuSans-34"/>
       <use xlink:href="#DejaVuSans-30" transform="translate(63.623047 0)"/>
       <use xlink:href="#DejaVuSans-30" transform="translate(127.246094 0)"/>
      </g>
     </g>
    </g>
    <g id="ytick_10">
     <g id="line2d_26">
      <path d="M 50.87 75.766923 
L 637.2 75.766923 
" clip-path="url(#p8559a5a02f)" style="fill: none; stroke: #ffffff; stroke-width: 0.8; stroke-linecap: round"/>
     </g>
     <g id="text_27">
      <!-- 450 -->
      <g style="fill: #262626" transform="translate(24.7825 79.566142) scale(0.1 -0.1)">
       <use xlink:href="#DejaVuSans-34"/>
       <use xlink:href="#DejaVuSans-35" transform="translate(63.623047 0)"/>
       <use xlink:href="#DejaVuSans-30" transform="translate(127.246094 0)"/>
      </g>
     </g>
    </g>
    <g id="ytick_11">
     <g id="line2d_27">
      <path d="M 50.87 40.847692 
L 637.2 40.847692 
" clip-path="url(#p8559a5a02f)" style="fill: none; stroke: #ffffff; stroke-width: 0.8; stroke-linecap: round"/>
     </g>
     <g id="text_28">
      <!-- 500 -->
      <g style="fill: #262626" transform="translate(24.7825 44.646911) scale(0.1 -0.1)">
       <use xlink:href="#DejaVuSans-35"/>
       <use xlink:href="#DejaVuSans-30" transform="translate(63.623047 0)"/>
       <use xlink:href="#DejaVuSans-30" transform="translate(127.246094 0)"/>
      </g>
     </g>
    </g>
    <g id="text_29">
     <!-- Reward -->
     <g style="fill: #262626" transform="translate(18.702813 227.081094) rotate(-90) scale(0.1 -0.1)">
      <defs>
       <path id="DejaVuSans-52" d="M 2841 2188 
Q 3044 2119 3236 1894 
Q 3428 1669 3622 1275 
L 4263 0 
L 3584 0 
L 2988 1197 
Q 2756 1666 2539 1819 
Q 2322 1972 1947 1972 
L 1259 1972 
L 1259 0 
L 628 0 
L 628 4666 
L 2053 4666 
Q 2853 4666 3247 4331 
Q 3641 3997 3641 3322 
Q 3641 2881 3436 2590 
Q 3231 2300 2841 2188 
z
M 1259 4147 
L 1259 2491 
L 2053 2491 
Q 2509 2491 2742 2702 
Q 2975 2913 2975 3322 
Q 2975 3731 2742 3939 
Q 2509 4147 2053 4147 
L 1259 4147 
z
" transform="scale(0.015625)"/>
       <path id="DejaVuSans-77" d="M 269 3500 
L 844 3500 
L 1563 769 
L 2278 3500 
L 2956 3500 
L 3675 769 
L 4391 3500 
L 4966 3500 
L 4050 0 
L 3372 0 
L 2619 2869 
L 1863 0 
L 1184 0 
L 269 3500 
z
" transform="scale(0.015625)"/>
       <path id="DejaVuSans-61" d="M 2194 1759 
Q 1497 1759 1228 1600 
Q 959 1441 959 1056 
Q 959 750 1161 570 
Q 1363 391 1709 391 
Q 2188 391 2477 730 
Q 2766 1069 2766 1631 
L 2766 1759 
L 2194 1759 
z
M 3341 1997 
L 3341 0 
L 2766 0 
L 2766 531 
Q 2569 213 2275 61 
Q 1981 -91 1556 -91 
Q 1019 -91 701 211 
Q 384 513 384 1019 
Q 384 1609 779 1909 
Q 1175 2209 1959 2209 
L 2766 2209 
L 2766 2266 
Q 2766 2663 2505 2880 
Q 2244 3097 1772 3097 
Q 1472 3097 1187 3025 
Q 903 2953 641 2809 
L 641 3341 
Q 956 3463 1253 3523 
Q 1550 3584 1831 3584 
Q 2591 3584 2966 3190 
Q 3341 2797 3341 1997 
z
" transform="scale(0.015625)"/>
       <path id="DejaVuSans-72" d="M 2631 2963 
Q 2534 3019 2420 3045 
Q 2306 3072 2169 3072 
Q 1681 3072 1420 2755 
Q 1159 2438 1159 1844 
L 1159 0 
L 581 0 
L 581 3500 
L 1159 3500 
L 1159 2956 
Q 1341 3275 1631 3429 
Q 1922 3584 2338 3584 
Q 2397 3584 2469 3576 
Q 2541 3569 2628 3553 
L 2631 2963 
z
" transform="scale(0.015625)"/>
      </defs>
      <use xlink:href="#DejaVuSans-52"/>
      <use xlink:href="#DejaVuSans-65" transform="translate(64.982422 0)"/>
      <use xlink:href="#DejaVuSans-77" transform="translate(126.505859 0)"/>
      <use xlink:href="#DejaVuSans-61" transform="translate(208.292969 0)"/>
      <use xlink:href="#DejaVuSans-72" transform="translate(269.572266 0)"/>
      <use xlink:href="#DejaVuSans-64" transform="translate(308.935547 0)"/>
     </g>
    </g>
   </g>
   <g id="FillBetweenPolyCollection_1">
    <path d="M 62.145577 373.54811 
L 62.145577 374.796969 
L 65.904103 375.047035 
L 69.662628 373.79524 
L 73.421154 371.07321 
L 77.179679 368.565836 
L 80.938205 365.40735 
L 84.696731 361.289979 
L 88.455256 356.743779 
L 92.213782 355.58899 
L 95.972308 345.097567 
L 99.730833 347.193762 
L 103.489359 339.359291 
L 107.247885 334.808863 
L 111.00641 319.304261 
L 114.764936 308.739991 
L 118.523462 296.921791 
L 122.281987 271.292403 
L 126.040513 244.595686 
L 129.799038 242.353578 
L 133.557564 265.208511 
L 137.31609 244.516302 
L 141.074615 276.562414 
L 144.833141 256.307991 
L 148.591667 248.272863 
L 152.350192 252.368506 
L 156.108718 257.122661 
L 159.867244 250.72973 
L 163.625769 252.524546 
L 167.384295 261.505918 
L 171.142821 265.883157 
L 174.901346 257.705512 
L 178.659872 261.118517 
L 182.418397 257.665602 
L 186.176923 277.967693 
L 189.935449 268.216487 
L 193.693974 264.844541 
L 197.4525 275.854292 
L 201.211026 290.613019 
L 204.969551 295.675564 
L 208.728077 295.432675 
L 212.486603 297.469181 
L 216.245128 299.660701 
L 220.003654 290.385298 
L 223.762179 285.173869 
L 227.520705 292.11596 
L 231.279231 287.344372 
L 235.037756 292.123368 
L 238.796282 285.643915 
L 242.554808 277.928695 
L 246.313333 276.686511 
L 250.071859 277.357884 
L 253.830385 270.928105 
L 257.58891 276.517808 
L 261.347436 275.9977 
L 265.105962 269.650386 
L 268.864487 284.86029 
L 272.623013 291.572769 
L 276.381538 282.729072 
L 280.140064 283.195863 
L 283.89859 288.69804 
L 287.657115 289.60972 
L 291.415641 272.887448 
L 295.174167 260.3048 
L 298.932692 261.894125 
L 302.691218 271.679162 
L 306.449744 274.959576 
L 310.208269 275.202319 
L 313.966795 249.885263 
L 317.725321 252.22624 
L 321.483846 251.770241 
L 325.242372 245.174381 
L 329.000897 261.33596 
L 332.759423 265.32106 
L 336.517949 270.466603 
L 340.276474 267.599344 
L 344.035 265.938683 
L 347.793526 243.165417 
L 351.552051 263.048935 
L 355.310577 245.887449 
L 359.069103 255.329627 
L 362.827628 271.962857 
L 366.586154 279.390579 
L 370.344679 279.155148 
L 374.103205 274.729187 
L 377.861731 279.864035 
L 381.620256 283.012679 
L 385.378782 293.866513 
L 389.137308 287.131715 
L 392.895833 281.703921 
L 396.654359 286.202941 
L 400.412885 285.322385 
L 404.17141 280.840994 
L 407.929936 278.847581 
L 411.688462 277.062147 
L 415.446987 278.763279 
L 419.205513 288.144023 
L 422.964038 278.020299 
L 426.722564 274.183612 
L 430.48109 277.439566 
L 434.239615 277.845107 
L 437.998141 279.878391 
L 441.756667 275.864012 
L 445.515192 277.825223 
L 449.273718 271.626829 
L 453.032244 273.637716 
L 456.790769 264.281379 
L 460.549295 262.446462 
L 464.307821 264.879097 
L 468.066346 271.641296 
L 471.824872 271.683779 
L 475.583397 270.359311 
L 479.341923 269.942349 
L 483.100449 270.829449 
L 486.858974 279.710819 
L 490.6175 271.399108 
L 494.376026 258.708732 
L 498.134551 252.031033 
L 501.893077 243.162041 
L 505.651603 242.84053 
L 509.410128 232.939592 
L 513.168654 250.331085 
L 516.927179 245.369026 
L 520.685705 244.129262 
L 524.444231 236.023872 
L 528.202756 248.388201 
L 531.961282 232.268777 
L 535.719808 249.875968 
L 539.478333 233.263147 
L 543.236859 215.702241 
L 546.995385 229.49905 
L 550.75391 237.223765 
L 554.512436 230.032269 
L 558.270962 220.974079 
L 562.029487 226.214572 
L 565.788013 213.085788 
L 569.546538 205.783185 
L 573.305064 220.090738 
L 577.06359 212.146297 
L 580.822115 193.396558 
L 584.580641 205.057678 
L 588.339167 185.14874 
L 592.097692 204.256798 
L 595.856218 201.706005 
L 599.614744 202.278402 
L 603.373269 176.720198 
L 607.131795 187.936321 
L 610.890321 166.31977 
L 614.648846 204.341103 
L 618.407372 177.977648 
L 622.165897 185.976084 
L 622.165897 77.321169 
L 622.165897 77.321169 
L 618.407372 53.691953 
L 614.648846 73.833154 
L 610.890321 37.793125 
L 607.131795 51.629801 
L 603.373269 66.247714 
L 599.614744 67.860552 
L 595.856218 59.681801 
L 592.097692 69.435946 
L 588.339167 87.402028 
L 584.580641 140.158304 
L 580.822115 159.257847 
L 577.06359 97.955776 
L 573.305064 113.860348 
L 569.546538 90.75975 
L 565.788013 108.424292 
L 562.029487 117.304782 
L 558.270962 120.502031 
L 554.512436 182.32719 
L 550.75391 153.499052 
L 546.995385 113.80772 
L 543.236859 152.03053 
L 539.478333 114.618795 
L 535.719808 108.748088 
L 531.961282 110.138665 
L 528.202756 105.365597 
L 524.444231 107.362712 
L 520.685705 113.146854 
L 516.927179 110.160459 
L 513.168654 91.52147 
L 509.410128 121.09772 
L 505.651603 149.871595 
L 501.893077 137.209097 
L 498.134551 114.232097 
L 494.376026 89.675277 
L 490.6175 84.890732 
L 486.858974 110.861987 
L 483.100449 107.192553 
L 479.341923 144.490506 
L 475.583397 114.925477 
L 471.824872 125.877341 
L 468.066346 81.306156 
L 464.307821 67.461352 
L 460.549295 114.352943 
L 456.790769 156.295537 
L 453.032244 165.496385 
L 449.273718 80.510415 
L 445.515192 114.311068 
L 441.756667 62.856865 
L 437.998141 92.464717 
L 434.239615 89.831976 
L 430.48109 58.559606 
L 426.722564 86.104047 
L 422.964038 76.640961 
L 419.205513 101.583467 
L 415.446987 93.438079 
L 411.688462 63.567792 
L 407.929936 77.666147 
L 404.17141 100.709805 
L 400.412885 105.138917 
L 396.654359 86.527005 
L 392.895833 99.638218 
L 389.137308 135.943535 
L 385.378782 118.666796 
L 381.620256 112.042229 
L 377.861731 94.538966 
L 374.103205 131.704539 
L 370.344679 145.861489 
L 366.586154 168.078833 
L 362.827628 189.259898 
L 359.069103 158.546556 
L 355.310577 140.190556 
L 351.552051 151.01879 
L 347.793526 100.404023 
L 344.035 178.23574 
L 340.276474 154.184573 
L 336.517949 133.51621 
L 332.759423 151.734323 
L 329.000897 142.757065 
L 325.242372 77.451086 
L 321.483846 116.678642 
L 317.725321 112.23169 
L 313.966795 128.695167 
L 310.208269 135.046344 
L 306.449744 165.231723 
L 302.691218 139.080541 
L 298.932692 87.004734 
L 295.174167 46.090014 
L 291.415641 122.671949 
L 287.657115 134.827892 
L 283.89859 64.292451 
L 280.140064 100.938077 
L 276.381538 116.141219 
L 272.623013 157.01656 
L 268.864487 141.893675 
L 265.105962 119.459193 
L 261.347436 142.538596 
L 257.58891 176.515376 
L 253.830385 183.269806 
L 250.071859 200.618985 
L 246.313333 199.052755 
L 242.554808 161.122337 
L 238.796282 175.712166 
L 235.037756 146.420928 
L 231.279231 150.603762 
L 227.520705 146.579789 
L 223.762179 173.451697 
L 220.003654 155.669014 
L 216.245128 188.210729 
L 212.486603 163.616662 
L 208.728077 209.60965 
L 204.969551 216.230053 
L 201.211026 204.73453 
L 197.4525 190.946085 
L 193.693974 170.137565 
L 189.935449 178.876917 
L 186.176923 203.506031 
L 182.418397 210.508052 
L 178.659872 214.130089 
L 174.901346 168.97591 
L 171.142821 212.816078 
L 167.384295 209.56707 
L 163.625769 200.232104 
L 159.867244 200.988665 
L 156.108718 215.284475 
L 152.350192 208.572271 
L 148.591667 185.00602 
L 144.833141 183.096582 
L 141.074615 190.839354 
L 137.31609 210.890008 
L 133.557564 240.392972 
L 129.799038 218.712644 
L 126.040513 232.739719 
L 122.281987 242.166541 
L 118.523462 265.696029 
L 114.764936 270.964941 
L 111.00641 284.474967 
L 107.247885 304.770452 
L 103.489359 313.882316 
L 99.730833 331.370138 
L 95.972308 337.967894 
L 92.213782 345.689303 
L 88.455256 350.082905 
L 84.696731 355.590298 
L 80.938205 362.663028 
L 77.179679 366.282075 
L 73.421154 368.556683 
L 69.662628 371.667372 
L 65.904103 374.546488 
L 62.145577 373.54811 
z
" clip-path="url(#p8559a5a02f)" style="fill: #0000ff; fill-opacity: 0.1"/>
   </g>
   <g id="line2d_28">
    <path d="M 62.145577 374.17254 
L 65.904103 374.796762 
L 69.662628 372.731306 
L 73.421154 369.814946 
L 77.179679 367.423955 
L 80.938205 364.035189 
L 84.696731 358.440139 
L 88.455256 353.413342 
L 92.213782 350.639146 
L 95.972308 341.532731 
L 99.730833 339.28195 
L 103.489359 326.620804 
L 107.247885 319.789657 
L 111.00641 301.889614 
L 114.764936 289.852466 
L 118.523462 281.30891 
L 122.281987 256.729472 
L 126.040513 238.667702 
L 129.799038 230.533111 
L 133.557564 252.800741 
L 137.31609 227.703155 
L 141.074615 233.700884 
L 144.833141 219.702287 
L 148.591667 216.639442 
L 152.350192 230.470388 
L 156.108718 236.203568 
L 159.867244 225.859198 
L 163.625769 226.378325 
L 167.384295 235.536494 
L 171.142821 239.349618 
L 174.901346 213.340711 
L 178.659872 237.624303 
L 182.418397 234.086827 
L 186.176923 240.736862 
L 189.935449 223.546702 
L 193.693974 217.491053 
L 197.4525 233.400189 
L 201.211026 247.673775 
L 204.969551 255.952808 
L 208.728077 252.521162 
L 212.486603 230.542922 
L 216.245128 243.935715 
L 220.003654 223.027156 
L 223.762179 229.312783 
L 227.520705 219.347875 
L 231.279231 218.974067 
L 235.037756 219.272148 
L 238.796282 230.67804 
L 242.554808 219.525516 
L 246.313333 237.869633 
L 250.071859 238.988435 
L 253.830385 227.098956 
L 257.58891 226.516592 
L 261.347436 209.268148 
L 265.105962 194.554789 
L 268.864487 213.376982 
L 272.623013 224.294664 
L 276.381538 199.435145 
L 280.140064 192.06697 
L 283.89859 176.495246 
L 287.657115 212.218806 
L 291.415641 197.779699 
L 295.174167 153.197407 
L 298.932692 174.449429 
L 302.691218 205.379852 
L 306.449744 220.09565 
L 310.208269 205.124332 
L 313.966795 189.290215 
L 317.725321 182.228965 
L 321.483846 184.224441 
L 325.242372 161.312734 
L 329.000897 202.046513 
L 332.759423 208.527691 
L 336.517949 201.991406 
L 340.276474 210.891959 
L 344.035 222.087212 
L 347.793526 171.78472 
L 351.552051 207.033863 
L 355.310577 193.039003 
L 359.069103 206.938092 
L 362.827628 230.611378 
L 366.586154 223.734706 
L 370.344679 212.508319 
L 374.103205 203.216863 
L 377.861731 187.201501 
L 381.620256 197.527454 
L 385.378782 206.266654 
L 389.137308 211.537625 
L 392.895833 190.671069 
L 396.654359 186.364973 
L 400.412885 195.230651 
L 404.17141 190.775399 
L 407.929936 178.256864 
L 411.688462 170.31497 
L 415.446987 186.100679 
L 419.205513 194.863745 
L 422.964038 177.33063 
L 426.722564 180.143829 
L 430.48109 167.999586 
L 434.239615 183.838541 
L 437.998141 186.171554 
L 441.756667 169.360438 
L 445.515192 196.068145 
L 449.273718 176.068622 
L 453.032244 219.56705 
L 456.790769 210.288458 
L 464.307821 166.170225 
L 468.066346 176.473726 
L 471.824872 198.78056 
L 475.583397 192.642394 
L 479.341923 207.216428 
L 483.100449 189.011001 
L 486.858974 195.286403 
L 490.6175 178.14492 
L 494.376026 174.192004 
L 498.134551 183.131565 
L 501.893077 190.185569 
L 505.651603 196.356062 
L 509.410128 177.018656 
L 513.168654 170.926277 
L 516.927179 177.764743 
L 520.685705 178.638058 
L 524.444231 171.693292 
L 528.202756 176.876899 
L 531.961282 171.203721 
L 535.719808 179.312028 
L 539.478333 173.940971 
L 543.236859 183.866386 
L 546.995385 171.653385 
L 550.75391 195.361409 
L 554.512436 206.179729 
L 558.270962 170.738055 
L 562.029487 171.759677 
L 565.788013 160.75504 
L 569.546538 148.271468 
L 573.305064 166.975543 
L 577.06359 155.051037 
L 580.822115 176.327203 
L 584.580641 172.607991 
L 588.339167 136.275384 
L 592.097692 136.846372 
L 595.856218 130.693903 
L 599.614744 135.069477 
L 603.373269 121.483956 
L 607.131795 119.783061 
L 610.890321 102.056448 
L 614.648846 139.087128 
L 618.407372 115.8348 
L 622.165897 131.648627 
L 622.165897 131.648627 
" clip-path="url(#p8559a5a02f)" style="fill: none; stroke: #0000ff; stroke-width: 1.5; stroke-linecap: round"/>
   </g>
   <g id="line2d_29">
    <path d="M 62.145577 374.797854 
L 65.904103 374.878421 
L 69.662628 371.909935 
L 73.421154 370.290094 
L 77.179679 367.939506 
L 80.938205 364.58486 
L 84.696731 362.358573 
L 88.455256 358.174172 
L 92.213782 355.03007 
L 95.972308 347.962327 
L 99.730833 345.319711 
L 103.489359 334.611066 
L 107.247885 331.573062 
L 111.00641 313.955985 
L 114.764936 301.417401 
L 118.523462 274.047425 
L 122.281987 260.655061 
L 126.040513 230.851957 
L 129.799038 229.149644 
L 133.557564 274.624351 
L 137.31609 248.56198 
L 141.074615 274.076409 
L 144.833141 247.937109 
L 148.591667 257.03265 
L 152.350192 257.052866 
L 156.108718 263.248273 
L 159.867244 250.767405 
L 163.625769 251.305896 
L 167.384295 272.711385 
L 171.142821 267.613177 
L 174.901346 267.683015 
L 178.659872 275.330327 
L 182.418397 280.480913 
L 186.176923 283.410637 
L 189.935449 278.41992 
L 193.693974 275.01909 
L 197.4525 284.835342 
L 201.211026 285.577778 
L 204.969551 287.672932 
L 208.728077 286.276163 
L 212.486603 287.098108 
L 216.245128 295.059692 
L 220.003654 294.050915 
L 223.762179 290.455527 
L 227.520705 293.714655 
L 231.279231 289.069701 
L 235.037756 294.635673 
L 238.796282 303.533426 
L 242.554808 302.253054 
L 246.313333 302.336409 
L 250.071859 305.670633 
L 253.830385 297.395668 
L 257.58891 297.371586 
L 261.347436 303.890878 
L 265.105962 302.268824 
L 268.864487 305.55799 
L 272.623013 303.845821 
L 276.381538 296.506346 
L 280.140064 302.327257 
L 283.89859 297.94956 
L 287.657115 281.99408 
L 291.415641 252.752287 
L 295.174167 238.534187 
L 298.932692 219.328611 
L 302.691218 201.077077 
L 306.449744 209.707115 
L 310.208269 189.661814 
L 313.966795 187.333865 
L 317.725321 193.502929 
L 321.483846 201.959651 
L 325.242372 200.312179 
L 329.000897 199.148205 
L 332.759423 205.72466 
L 336.517949 191.291378 
L 340.276474 190.418397 
L 344.035 196.963515 
L 347.793526 181.746788 
L 351.552051 190.418397 
L 355.310577 179.244244 
L 359.069103 199.810775 
L 362.827628 193.03734 
L 366.586154 193.03734 
L 370.344679 191.806213 
L 374.103205 191.873365 
L 377.861731 190.592994 
L 381.620256 188.439641 
L 385.378782 199.219834 
L 389.137308 183.900141 
L 392.895833 195.029527 
L 396.654359 194.899699 
L 400.412885 191.349577 
L 404.17141 190.825788 
L 407.929936 194.259513 
L 411.688462 187.508462 
L 415.446987 187.974051 
L 419.205513 207.761615 
L 422.964038 195.656282 
L 426.722564 193.03734 
L 430.48109 192.397154 
L 434.239615 203.396712 
L 437.998141 204.793481 
L 441.756667 191.349577 
L 445.515192 200.992657 
L 449.273718 197.57684 
L 453.032244 208.782331 
L 456.790769 195.727911 
L 460.549295 190.127404 
L 464.307821 195.132494 
L 468.066346 190.418397 
L 471.824872 194.8415 
L 475.583397 199.542166 
L 479.341923 201.691041 
L 483.100449 185.413308 
L 486.858974 198.449821 
L 490.6175 194.143115 
L 494.376026 195.656282 
L 498.134551 182.794365 
L 501.893077 188.148647 
L 505.651603 199.090006 
L 509.410128 195.598083 
L 513.168654 188.788833 
L 516.927179 186.169891 
L 524.444231 198.25284 
L 528.202756 192.629949 
L 531.961282 186.053494 
L 535.719808 195.598083 
L 539.478333 200.253981 
L 543.236859 188.788833 
L 546.995385 183.783744 
L 550.75391 195.656282 
L 554.512436 207.116953 
L 558.270962 181.804987 
L 562.029487 193.386532 
L 565.788013 189.196224 
L 569.546538 181.223 
L 573.305064 187.159269 
L 577.06359 187.799455 
L 580.822115 187.333865 
L 584.580641 181.281199 
L 588.339167 177.789276 
L 592.097692 178.138468 
L 595.856218 183.49275 
L 599.614744 179.651635 
L 603.373269 195.132494 
L 607.131795 192.513551 
L 610.890321 195.830878 
L 614.648846 185.529705 
L 618.407372 178.836853 
L 622.165897 172.842385 
L 622.165897 172.842385 
" clip-path="url(#p8559a5a02f)" style="fill: none; stroke: #008000; stroke-opacity: 0.2; stroke-linecap: round"/>
   </g>
   <g id="line2d_30">
    <path d="M 62.145577 373.491691 
L 65.904103 374.490908 
L 69.662628 373.877385 
L 73.421154 371.260151 
L 77.179679 365.552496 
L 80.938205 361.391372 
L 84.696731 353.887259 
L 88.455256 347.733169 
L 92.213782 342.075942 
L 95.972308 337.866561 
L 99.730833 324.204475 
L 103.489359 303.71065 
L 107.247885 291.648352 
L 111.00641 278.443958 
L 114.764936 258.596664 
L 118.523462 268.521077 
L 122.281987 256.979352 
L 126.040513 238.737027 
L 129.799038 244.077615 
L 133.557564 238.590308 
L 137.31609 245.823577 
L 141.074615 276.933437 
L 144.833141 263.918087 
L 148.591667 227.098139 
L 152.350192 235.450511 
L 156.108718 249.703491 
L 159.867244 201.798485 
L 163.625769 217.040154 
L 167.384295 229.318421 
L 171.142821 252.053903 
L 174.901346 238.540423 
L 178.659872 232.055423 
L 182.418397 224.435548 
L 186.176923 259.846405 
L 189.935449 233.383601 
L 193.693974 202.290936 
L 197.4525 163.255469 
L 201.211026 220.379097 
L 204.969551 233.314276 
L 208.728077 215.712456 
L 212.486603 169.140946 
L 216.245128 169.40866 
L 220.003654 131.777369 
L 223.762179 137.923154 
L 227.520705 148.786915 
L 231.279231 149.027469 
L 235.037756 173.41379 
L 238.796282 147.421185 
L 242.554808 178.569138 
L 246.313333 215.024815 
L 250.071859 228.759713 
L 253.830385 194.438586 
L 257.58891 228.072968 
L 261.347436 166.747392 
L 265.105962 159.827035 
L 268.864487 166.347408 
L 272.623013 190.592994 
L 276.381538 148.678277 
L 280.140064 98.289827 
L 283.89859 40.847692 
L 287.657115 120.308342 
L 291.415641 133.820144 
L 295.174167 51.585356 
L 298.932692 163.220197 
L 302.691218 226.478323 
L 306.449744 252.768624 
L 310.208269 260.489654 
L 313.966795 163.763385 
L 317.725321 94.9725 
L 321.483846 125.614125 
L 325.242372 94.274115 
L 329.000897 119.241365 
L 332.759423 163.509427 
L 336.517949 101.083365 
L 340.276474 129.542538 
L 344.035 173.985196 
L 347.793526 144.674205 
L 351.552051 191.524173 
L 355.310577 185.413308 
L 359.069103 209.308038 
L 362.827628 239.722982 
L 366.586154 254.398188 
L 370.344679 277.812629 
L 374.103205 291.205644 
L 377.861731 291.59463 
L 381.620256 292.839827 
L 385.378782 290.584858 
L 389.137308 297.254615 
L 392.895833 289.418893 
L 396.654359 300.367415 
L 400.412885 299.346329 
L 404.17141 291.6971 
L 407.929936 295.318353 
L 411.688462 295.433827 
L 415.446987 296.880481 
L 419.205513 292.912806 
L 422.964038 292.990405 
L 426.722564 293.438442 
L 430.48109 299.180162 
L 434.239615 297.3045 
L 437.998141 293.762692 
L 441.756667 296.107269 
L 445.515192 293.714655 
L 449.273718 290.226871 
L 453.032244 289.633781 
L 456.790769 287.807237 
L 460.549295 280.309809 
L 464.307821 288.955293 
L 468.066346 291.205644 
L 471.824872 288.586204 
L 475.583397 282.983458 
L 479.341923 288.586204 
L 483.100449 281.499391 
L 486.858974 279.877418 
L 490.6175 284.109022 
L 494.376026 274.502893 
L 498.134551 271.40985 
L 501.893077 271.496803 
L 505.651603 240.667855 
L 509.410128 220.856327 
L 513.168654 253.772837 
L 516.927179 218.452272 
L 520.685705 204.968077 
L 524.444231 188.963429 
L 528.202756 208.728609 
L 531.961282 159.293723 
L 535.719808 207.063231 
L 539.478333 167.895494 
L 543.236859 181.106603 
L 546.995385 150.005208 
L 550.75391 176.276109 
L 554.512436 198.736337 
L 558.270962 166.175986 
L 562.029487 177.159671 
L 565.788013 158.735015 
L 569.546538 133.523331 
L 573.305064 154.614546 
L 577.06359 183.201756 
L 580.822115 159.340282 
L 584.580641 145.139795 
L 588.339167 139.164726 
L 592.097692 162.430105 
L 595.856218 141.803068 
L 599.614744 159.650675 
L 603.373269 136.448786 
L 607.131795 105.360971 
L 610.890321 71.925808 
L 614.648846 176.974494 
L 618.407372 146.846957 
L 622.165897 179.768032 
L 622.165897 179.768032 
" clip-path="url(#p8559a5a02f)" style="fill: none; stroke: #008000; stroke-opacity: 0.2; stroke-linecap: round"/>
   </g>
   <g id="line2d_31">
    <path d="M 62.145577 373.368745 
L 65.904103 375.026682 
L 69.662628 371.664935 
L 73.421154 368.586498 
L 77.179679 367.12829 
L 80.938205 365.372287 
L 84.696731 357.898066 
L 88.455256 353.32219 
L 92.213782 351.34359 
L 95.972308 339.032057 
L 99.730833 339.432981 
L 103.489359 332.058557 
L 107.247885 317.483501 
L 111.00641 300.576931 
L 114.764936 296.889942 
L 118.523462 265.483104 
L 122.281987 229.699109 
L 126.040513 233.951038 
L 129.799038 220.937805 
L 133.557564 243.89383 
L 137.31609 211.629592 
L 141.074615 221.406976 
L 144.833141 227.502621 
L 148.591667 224.941877 
L 152.350192 242.874842 
L 156.108718 238.071508 
L 159.867244 236.831875 
L 163.625769 231.899534 
L 167.384295 229.271862 
L 171.142821 255.913397 
L 174.901346 209.407808 
L 178.659872 252.127417 
L 182.418397 223.45199 
L 186.176923 226.571441 
L 189.935449 169.839331 
L 193.693974 203.621192 
L 197.4525 210.136123 
L 201.211026 175.845438 
L 204.969551 192.612041 
L 208.728077 187.101071 
L 212.486603 130.799631 
L 216.245128 183.508622 
L 220.003654 152.123641 
L 223.762179 194.434109 
L 227.520705 116.360529 
L 231.279231 125.662624 
L 235.037756 98.551721 
L 238.796282 193.735724 
L 242.554808 133.189658 
L 246.313333 201.767147 
L 250.071859 237.704856 
L 253.830385 213.814282 
L 257.58891 179.593436 
L 261.347436 202.443148 
L 265.105962 121.627513 
L 268.864487 127.272788 
L 272.623013 201.18516 
L 276.381538 118.678778 
L 280.140064 137.050173 
L 283.89859 161.2492 
L 287.657115 209.856769 
L 295.174167 47.133154 
L 298.932692 61.799231 
L 302.691218 108.591 
L 306.449744 179.572273 
L 310.208269 141.03414 
L 313.966795 139.738954 
L 317.725321 148.608438 
L 321.483846 125.274632 
L 325.242372 76.552606 
L 329.000897 207.869059 
L 332.759423 236.354303 
L 336.517949 252.264235 
L 340.276474 235.245104 
L 344.035 222.911189 
L 347.793526 89.734615 
L 351.552051 130.066327 
L 355.310577 138.155949 
L 359.069103 156.906517 
L 362.827628 243.107637 
L 366.586154 245.823577 
L 370.344679 187.952888 
L 374.103205 158.106469 
L 377.861731 115.497248 
L 381.620256 137.015254 
L 385.378782 190.418397 
L 389.137308 193.793923 
L 392.895833 122.122202 
L 396.654359 80.306423 
L 400.412885 116.709721 
L 404.17141 80.966009 
L 407.929936 86.242692 
L 411.688462 45.212596 
L 415.446987 118.911573 
L 419.205513 149.027469 
L 422.964038 61.100846 
L 426.722564 45.998279 
L 430.48109 40.847692 
L 434.239615 94.448712 
L 437.998141 100.646875 
L 441.756667 50.974269 
L 445.515192 143.432632 
L 449.273718 65.727644 
L 453.032244 185.133954 
L 456.790769 171.064678 
L 460.549295 79.346144 
L 464.307821 61.450038 
L 468.066346 40.847692 
L 471.824872 83.012663 
L 475.583397 65.814942 
L 479.341923 130.328221 
L 483.100449 119.066769 
L 486.858974 40.847692 
L 490.6175 40.847692 
L 494.376026 62.061125 
L 498.134551 133.500051 
L 501.893077 122.481094 
L 505.651603 163.191979 
L 509.410128 88.948933 
L 513.168654 40.847692 
L 516.927179 63.894385 
L 520.685705 58.918394 
L 524.444231 64.243577 
L 528.202756 43.641231 
L 531.961282 65.553048 
L 535.719808 40.847692 
L 539.478333 66.600625 
L 543.236859 128.407663 
L 546.995385 71.314721 
L 550.75391 127.369786 
L 554.512436 165.392949 
L 558.270962 77.425587 
L 562.029487 67.211712 
L 565.788013 68.433885 
L 569.546538 52.720231 
L 573.305064 87.115673 
L 577.06359 62.672212 
L 580.822115 152.271783 
L 584.580641 125.439529 
L 588.339167 68.084692 
L 592.097692 52.894827 
L 595.856218 40.847692 
L 599.614744 74.10826 
L 603.373269 63.370596 
L 607.131795 53.942404 
L 610.890321 40.847692 
L 614.648846 64.592769 
L 618.407372 40.847692 
L 622.165897 81.974786 
L 622.165897 81.974786 
" clip-path="url(#p8559a5a02f)" style="fill: none; stroke: #008000; stroke-opacity: 0.2; stroke-linecap: round"/>
   </g>
   <g id="line2d_32">
    <path d="M 62.145577 374.8018 
L 65.904103 375.07682 
L 69.662628 372.039252 
L 73.421154 368.080956 
L 77.179679 367.443506 
L 80.938205 364.259066 
L 84.696731 357.698141 
L 88.455256 353.846689 
L 92.213782 348.953496 
L 95.972308 340.28962 
L 99.730833 345.925372 
L 103.489359 322.756604 
L 107.247885 326.154436 
L 111.00641 289.015979 
L 114.764936 279.695231 
L 118.523462 291.878162 
L 122.281987 263.003838 
L 126.040513 242.187869 
L 129.799038 214.795346 
L 133.557564 255.833756 
L 137.31609 224.290051 
L 141.074615 159.363562 
L 144.833141 161.319038 
L 148.591667 160.193863 
L 152.350192 191.967379 
L 156.108718 201.36871 
L 159.867244 190.76759 
L 163.625769 180.778573 
L 167.384295 194.8415 
L 171.142821 192.826929 
L 174.901346 216.641077 
L 178.659872 212.166811 
L 182.418397 227.370107 
L 186.176923 258.219904 
L 189.935449 262.340373 
L 193.693974 262.734462 
L 197.4525 257.835792 
L 201.211026 279.695231 
L 204.969551 262.0261 
L 208.728077 280.102622 
L 212.486603 280.756775 
L 216.245128 276.02112 
L 220.003654 276.810599 
L 223.762179 271.219381 
L 227.520705 283.801732 
L 231.279231 281.678643 
L 235.037756 268.067127 
L 238.796282 268.155256 
L 242.554808 248.384321 
L 246.313333 262.834231 
L 250.071859 236.765118 
L 253.830385 254.443113 
L 257.58891 263.527627 
L 261.347436 258.84845 
L 265.105962 265.483104 
L 268.864487 291.245438 
L 272.623013 297.703577 
L 276.381538 304.904663 
L 280.140064 302.989737 
L 283.89859 311.900738 
L 287.657115 314.814 
L 291.415641 318.049759 
L 295.174167 316.884212 
L 298.932692 314.652212 
L 302.691218 312.259908 
L 306.449744 306.888582 
L 310.208269 309.006221 
L 313.966795 306.168373 
L 317.725321 306.386618 
L 321.483846 306.954759 
L 325.242372 306.037425 
L 329.000897 303.169965 
L 332.759423 299.514905 
L 336.517949 298.761131 
L 340.276474 301.818253 
L 344.035 303.277351 
L 347.793526 301.9737 
L 351.552051 302.183215 
L 355.310577 293.613038 
L 359.069103 296.171934 
L 362.827628 296.780712 
L 366.586154 292.938672 
L 370.344679 293.895718 
L 374.103205 274.533258 
L 381.620256 292.789942 
L 385.378782 296.120202 
L 389.137308 289.687503 
L 392.895833 288.215523 
L 396.654359 290.785578 
L 400.412885 292.369618 
L 404.17141 290.788802 
L 407.929936 274.61607 
L 411.688462 274.01706 
L 415.446987 275.413829 
L 419.205513 283.769141 
L 422.964038 276.41586 
L 426.722564 265.328462 
L 430.48109 266.725231 
L 434.239615 266.87035 
L 437.998141 275.006077 
L 441.756667 267.523385 
L 445.515192 270.711465 
L 449.273718 262.568179 
L 453.032244 270.774955 
L 456.790769 255.582583 
L 460.549295 255.067984 
L 464.307821 244.465607 
L 468.066346 262.130858 
L 471.824872 261.921342 
L 475.583397 259.721431 
L 479.341923 267.357103 
L 483.100449 279.118304 
L 486.858974 263.248273 
L 490.6175 266.525692 
L 494.376026 248.655915 
L 498.134551 243.806021 
L 501.893077 221.589631 
L 505.651603 251.20849 
L 509.410128 241.242995 
L 513.168654 244.734919 
L 516.927179 265.20375 
L 520.685705 257.604223 
L 524.444231 258.817206 
L 528.202756 257.696115 
L 531.961282 252.936073 
L 535.719808 237.258095 
L 539.478333 245.35114 
L 543.236859 226.943913 
L 546.995385 224.057256 
L 550.75391 236.569981 
L 554.512436 228.014769 
L 558.270962 214.186754 
L 562.029487 224.569405 
L 565.788013 226.757677 
L 569.546538 226.399755 
L 573.305064 250.814973 
L 577.06359 222.776885 
L 580.822115 188.397315 
L 584.580641 209.757 
L 588.339167 199.542166 
L 592.097692 226.524882 
L 595.856218 227.010841 
L 599.614744 221.089122 
L 603.373269 159.922269 
L 607.131795 205.290408 
L 610.890321 160.830169 
L 614.648846 211.951923 
L 618.407372 171.794808 
L 622.165897 173.032853 
L 622.165897 173.032853 
" clip-path="url(#p8559a5a02f)" style="fill: none; stroke: #008000; stroke-opacity: 0.2; stroke-linecap: round"/>
   </g>
   <g id="line2d_33">
    <path d="M 62.145577 374.402607 
L 65.904103 374.510977 
L 69.662628 374.165023 
L 73.421154 370.857033 
L 77.179679 369.055979 
L 80.938205 364.568361 
L 84.696731 360.358654 
L 88.455256 353.990489 
L 92.213782 355.792633 
L 95.972308 342.513089 
L 99.730833 341.527212 
L 103.489359 339.967141 
L 107.247885 332.088936 
L 111.00641 327.455215 
L 114.764936 312.663093 
L 118.523462 306.614783 
L 122.281987 273.31 
L 126.040513 247.61062 
L 129.799038 243.705144 
L 133.557564 251.061462 
L 137.31609 208.210577 
L 141.074615 236.724036 
L 144.833141 197.834577 
L 148.591667 213.930679 
L 152.350192 225.006343 
L 156.108718 228.625856 
L 159.867244 249.130633 
L 163.625769 250.867466 
L 167.384295 251.539304 
L 171.142821 228.340682 
L 174.901346 134.431231 
L 178.659872 216.441538 
L 182.418397 214.695577 
L 186.176923 175.635923 
L 189.935449 173.750285 
L 193.693974 143.789585 
L 197.4525 250.938217 
L 201.211026 276.871328 
L 204.969551 304.138692 
L 208.728077 293.4135 
L 212.486603 284.919148 
L 216.245128 295.680479 
L 220.003654 260.373256 
L 223.762179 252.531745 
L 227.520705 254.075543 
L 231.279231 249.431897 
L 235.037756 261.692427 
L 238.796282 240.544611 
L 242.554808 235.23141 
L 246.313333 207.385562 
L 250.071859 186.041854 
L 253.830385 175.403128 
L 257.58891 164.017343 
L 261.347436 114.410872 
L 265.105962 123.56747 
L 268.864487 176.461287 
L 272.623013 128.145769 
L 276.381538 128.407663 
L 280.140064 119.677856 
L 283.89859 70.529038 
L 287.657115 134.120838 
L 291.415641 156.906517 
L 295.174167 111.850128 
L 298.932692 113.246897 
L 302.691218 178.492951 
L 306.449744 151.541654 
L 310.208269 125.429829 
L 313.966795 149.4465 
L 317.725321 167.674338 
L 321.483846 161.319038 
L 325.242372 129.387342 
L 329.000897 180.803969 
L 332.759423 137.535162 
L 336.517949 166.556923 
L 340.276474 197.4355 
L 344.035 213.298808 
L 347.793526 140.794291 
L 351.552051 220.977201 
L 355.310577 168.768474 
L 359.069103 172.493192 
L 362.827628 180.408218 
L 366.586154 132.475754 
L 370.344679 111.074145 
L 374.103205 100.365581 
L 377.861731 54.640788 
L 381.620256 76.552606 
L 385.378782 54.989981 
L 389.137308 93.051942 
L 392.895833 58.569202 
L 396.654359 65.46575 
L 400.412885 76.37801 
L 404.17141 99.599298 
L 407.929936 40.847692 
L 411.688462 49.402904 
L 415.446987 51.323462 
L 419.205513 40.847692 
L 422.964038 60.48976 
L 426.722564 102.916625 
L 430.48109 40.847692 
L 434.239615 57.172433 
L 437.998141 56.648644 
L 441.756667 40.847692 
L 445.515192 71.489317 
L 449.273718 64.243577 
L 453.032244 143.510231 
L 456.790769 141.25988 
L 460.549295 137.147171 
L 464.307821 40.847692 
L 468.066346 97.766038 
L 471.824872 165.541091 
L 475.583397 155.149974 
L 479.341923 148.119569 
L 483.100449 79.957231 
L 486.858974 194.008811 
L 490.6175 105.099077 
L 494.376026 90.083808 
L 498.134551 84.147538 
L 501.893077 147.211669 
L 505.651603 127.621981 
L 509.410128 138.446942 
L 513.168654 126.487106 
L 516.927179 155.103415 
L 520.685705 179.535237 
L 524.444231 148.189408 
L 528.202756 181.68859 
L 531.961282 192.182266 
L 535.719808 215.793038 
L 539.478333 189.603615 
L 543.236859 194.084917 
L 546.995385 229.105995 
L 550.75391 240.934885 
L 554.512436 231.637639 
L 562.029487 196.471064 
L 565.788013 160.652399 
L 569.546538 147.491023 
L 573.305064 155.173254 
L 577.06359 118.804875 
L 580.822115 194.292769 
L 584.580641 201.422432 
L 588.339167 96.79606 
L 592.097692 64.243577 
L 595.856218 60.315163 
L 599.614744 40.847692 
L 603.373269 52.545635 
L 607.131795 41.807971 
L 610.890321 40.847692 
L 614.648846 56.38675 
L 618.407372 40.847692 
L 622.165897 50.625077 
L 622.165897 50.625077 
" clip-path="url(#p8559a5a02f)" style="fill: none; stroke: #008000; stroke-opacity: 0.2; stroke-linecap: round"/>
   </g>
   <g id="line2d_34">
    <path d="M 62.145577 40.847692 
L 69.662628 62.445131 
L 77.179679 82.76616 
L 84.696731 101.886217 
L 92.213782 119.876279 
L 99.730833 136.803128 
L 107.247885 152.7296 
L 114.764936 167.714818 
L 122.281987 181.814409 
L 129.799038 195.080714 
L 137.31609 207.562981 
L 144.833141 219.307546 
L 152.350192 230.358007 
L 159.867244 240.755386 
L 167.384295 250.53828 
L 174.901346 259.743004 
L 182.418397 268.40373 
L 186.176923 259.165579 
L 189.935449 237.632413 
L 193.693974 230.107843 
L 201.211026 240.520006 
L 204.969551 234.007748 
L 212.486603 244.189427 
L 220.003654 253.769369 
L 227.520705 262.783136 
L 235.037756 271.26419 
L 242.554808 279.244013 
L 250.071859 286.752229 
L 257.58891 293.816709 
L 261.347436 297.190806 
L 265.105962 279.299098 
L 268.864487 272.843901 
L 276.381538 280.730364 
L 283.89859 288.150736 
L 287.657115 291.694811 
L 291.415641 286.582256 
L 298.932692 293.656781 
L 306.449744 300.313202 
L 313.966795 306.576229 
L 317.725321 309.56754 
L 321.483846 305.767863 
L 329.000897 311.708519 
L 336.517949 317.298083 
L 340.276474 302.703969 
L 344.035 297.43852 
L 351.552051 303.87144 
L 359.069103 309.924175 
L 366.586154 315.619193 
L 374.103205 320.977636 
L 377.861731 317.171544 
L 385.378782 322.438243 
L 392.895833 327.39368 
L 400.412885 332.056251 
L 407.929936 336.443263 
L 415.446987 340.571003 
L 419.205513 343.908416 
L 422.964038 346.905983 
L 426.722564 349.615971 
L 430.48109 352.081695 
L 434.239615 354.339084 
L 437.998141 356.417968 
L 441.756667 358.343145 
L 445.515192 361.790746 
L 449.273718 359.429536 
L 453.032244 362.201169 
L 456.790769 364.649934 
L 460.549295 366.827587 
L 464.307821 364.038196 
L 468.066346 365.936879 
L 471.824872 367.66782 
L 475.583397 369.196417 
L 483.100449 371.882751 
L 490.6175 374.242825 
L 494.376026 371.610266 
L 501.893077 373.830154 
L 509.410128 375.720548 
L 513.168654 376.386594 
L 524.444231 378.95512 
L 535.719808 381.299345 
L 539.478333 378.168983 
L 550.75391 380.581859 
L 562.029487 382.773916 
L 573.305064 384.742107 
L 584.580641 386.53842 
L 588.339167 386.879931 
L 603.373269 389.050122 
L 610.890321 390.04 
L 614.648846 387.359838 
L 622.165897 388.449612 
L 622.165897 388.449612 
" clip-path="url(#p8559a5a02f)" style="fill: none; stroke: #ff0000; stroke-linecap: round"/>
   </g>
   <g id="line2d_35">
    <path d="M 62.145577 40.847692 
L 65.904103 40.995101 
L 69.662628 42.710006 
L 73.421154 50.041832 
L 77.179679 62.63354 
L 84.696731 93.699558 
L 88.455256 102.230832 
L 92.213782 119.922732 
L 95.972308 134.591046 
L 99.730833 144.757921 
L 103.489359 148.865298 
L 107.247885 157.36322 
L 111.00641 159.847213 
L 114.764936 170.354617 
L 118.523462 176.181095 
L 122.281987 181.13088 
L 126.040513 184.10221 
L 129.799038 195.397623 
L 133.557564 204.157725 
L 137.31609 198.535617 
L 141.074615 212.437123 
L 144.833141 216.752213 
L 148.591667 222.323546 
L 152.350192 221.399469 
L 156.108718 227.206284 
L 159.867244 222.557249 
L 163.625769 223.516665 
L 167.384295 226.272974 
L 171.142821 230.185343 
L 174.901346 231.7106 
L 178.659872 240.08345 
L 182.418397 236.872785 
L 186.176923 244.583055 
L 189.935449 246.259074 
L 193.693974 250.445633 
L 197.4525 254.804664 
L 201.211026 260.266359 
L 204.969551 260.011254 
L 208.728077 266.121268 
L 212.486603 265.352695 
L 216.245128 275.039039 
L 220.003654 271.188054 
L 223.762179 283.402952 
L 227.520705 280.77881 
L 231.279231 287.713333 
L 235.037756 290.662482 
L 238.796282 291.174746 
L 242.554808 287.996506 
L 246.313333 290.691529 
L 250.071859 290.951841 
L 253.830385 293.857095 
L 257.58891 293.441409 
L 261.347436 292.060948 
L 265.105962 302.635487 
L 268.864487 306.700583 
L 272.623013 316.602938 
L 276.381538 321.059053 
L 280.140064 328.130549 
L 283.89859 329.716367 
L 287.657115 329.811838 
L 291.415641 335.326467 
L 295.174167 337.853848 
L 298.932692 338.470266 
L 302.691218 335.219331 
L 306.449744 337.165595 
L 313.966795 351.855994 
L 317.725321 357.041317 
L 321.483846 359.149856 
L 325.242372 356.955653 
L 329.000897 360.740994 
L 332.759423 362.930092 
L 336.517949 363.524497 
L 340.276474 355.143118 
L 344.035 360.947139 
L 347.793526 357.378211 
L 355.310577 345.952528 
L 359.069103 339.693761 
L 362.827628 344.194182 
L 366.586154 350.374757 
L 370.344679 353.208562 
L 374.103205 350.516743 
L 377.861731 356.227123 
L 381.620256 363.25671 
L 385.378782 359.886305 
L 389.137308 364.971727 
L 392.895833 368.682817 
L 396.654359 366.863156 
L 400.412885 375.038564 
L 404.17141 375.258935 
L 407.929936 372.858036 
L 411.688462 379.282013 
L 415.446987 376.491891 
L 419.205513 383.388671 
L 422.964038 376.591053 
L 426.722564 375.0002 
L 430.48109 384.153329 
L 434.239615 386.05565 
L 437.998141 390.04 
L 441.756667 387.541377 
L 445.515192 385.74001 
L 449.273718 373.737124 
L 453.032244 382.160392 
L 456.790769 377.876006 
L 460.549295 375.231168 
L 464.307821 372.309334 
L 468.066346 380.865806 
L 471.824872 382.613317 
L 475.583397 382.432313 
L 479.341923 384.85235 
L 483.100449 381.330251 
L 486.858974 371.293153 
L 490.6175 376.255722 
L 494.376026 374.38553 
L 498.134551 370.115289 
L 501.893077 360.641942 
L 505.651603 357.764976 
L 509.410128 358.962473 
L 513.168654 365.670835 
L 516.927179 364.8369 
L 520.685705 361.298566 
L 524.444231 356.59317 
L 528.202756 356.029275 
L 531.961282 352.705905 
L 535.719808 345.881899 
L 539.478333 347.981419 
L 543.236859 345.05304 
L 546.995385 342.827204 
L 550.75391 338.79848 
L 554.512436 336.741618 
L 558.270962 327.845524 
L 565.788013 341.198144 
L 569.546538 338.875501 
L 573.305064 345.044098 
L 577.06359 342.596167 
L 580.822115 314.589188 
L 584.580641 328.445215 
L 588.339167 334.172929 
L 592.097692 349.018061 
L 595.856218 345.041693 
L 599.614744 353.566333 
L 603.373269 331.505885 
L 607.131795 343.487914 
L 610.890321 334.171764 
L 614.648846 345.814956 
L 618.407372 331.95872 
L 622.165897 335.694891 
L 622.165897 335.694891 
" clip-path="url(#p8559a5a02f)" style="fill: none; stroke: #800080; stroke-linecap: round"/>
   </g>
   <g id="patch_3">
    <path d="M 50.87 390.04 
L 50.87 26.88 
" style="fill: none; stroke: #ffffff; stroke-width: 0.8; stroke-linejoin: miter; stroke-linecap: square"/>
   </g>
   <g id="patch_4">
    <path d="M 637.2 390.04 
L 637.2 26.88 
" style="fill: none; stroke: #ffffff; stroke-width: 0.8; stroke-linejoin: miter; stroke-linecap: square"/>
   </g>
   <g id="patch_5">
    <path d="M 50.87 390.04 
L 637.2 390.04 
" style="fill: none; stroke: #ffffff; stroke-width: 0.8; stroke-linejoin: miter; stroke-linecap: square"/>
   </g>
   <g id="patch_6">
    <path d="M 50.87 26.88 
L 637.2 26.88 
" style="fill: none; stroke: #ffffff; stroke-width: 0.8; stroke-linejoin: miter; stroke-linecap: square"/>
   </g>
   <g id="text_30">
    <!-- Rewards over Episodes for CartPole-v1 - GNN_K (Noise + Entropy) -->
    <g style="fill: #262626" transform="translate(146.2 20.88) scale(0.12 -0.12)">
     <defs>
      <path id="DejaVuSans-20" transform="scale(0.015625)"/>
      <path id="DejaVuSans-76" d="M 191 3500 
L 800 3500 
L 1894 563 
L 2988 3500 
L 3597 3500 
L 2284 0 
L 1503 0 
L 191 3500 
z
" transform="scale(0.015625)"/>
      <path id="DejaVuSans-66" d="M 2375 4863 
L 2375 4384 
L 1825 4384 
Q 1516 4384 1395 4259 
Q 1275 4134 1275 3809 
L 1275 3500 
L 2222 3500 
L 2222 3053 
L 1275 3053 
L 1275 0 
L 697 0 
L 697 3053 
L 147 3053 
L 147 3500 
L 697 3500 
L 697 3744 
Q 697 4328 969 4595 
Q 1241 4863 1831 4863 
L 2375 4863 
z
" transform="scale(0.015625)"/>
      <path id="DejaVuSans-43" d="M 4122 4306 
L 4122 3641 
Q 3803 3938 3442 4084 
Q 3081 4231 2675 4231 
Q 1875 4231 1450 3742 
Q 1025 3253 1025 2328 
Q 1025 1406 1450 917 
Q 1875 428 2675 428 
Q 3081 428 3442 575 
Q 3803 722 4122 1019 
L 4122 359 
Q 3791 134 3420 21 
Q 3050 -91 2638 -91 
Q 1578 -91 968 557 
Q 359 1206 359 2328 
Q 359 3453 968 4101 
Q 1578 4750 2638 4750 
Q 3056 4750 3426 4639 
Q 3797 4528 4122 4306 
z
" transform="scale(0.015625)"/>
      <path id="DejaVuSans-74" d="M 1172 4494 
L 1172 3500 
L 2356 3500 
L 2356 3053 
L 1172 3053 
L 1172 1153 
Q 1172 725 1289 603 
Q 1406 481 1766 481 
L 2356 481 
L 2356 0 
L 1766 0 
Q 1100 0 847 248 
Q 594 497 594 1153 
L 594 3053 
L 172 3053 
L 172 3500 
L 594 3500 
L 594 4494 
L 1172 4494 
z
" transform="scale(0.015625)"/>
      <path id="DejaVuSans-50" d="M 1259 4147 
L 1259 2394 
L 2053 2394 
Q 2494 2394 2734 2622 
Q 2975 2850 2975 3272 
Q 2975 3691 2734 3919 
Q 2494 4147 2053 4147 
L 1259 4147 
z
M 628 4666 
L 2053 4666 
Q 2838 4666 3239 4311 
Q 3641 3956 3641 3272 
Q 3641 2581 3239 2228 
Q 2838 1875 2053 1875 
L 1259 1875 
L 1259 0 
L 628 0 
L 628 4666 
z
" transform="scale(0.015625)"/>
      <path id="DejaVuSans-6c" d="M 603 4863 
L 1178 4863 
L 1178 0 
L 603 0 
L 603 4863 
z
" transform="scale(0.015625)"/>
      <path id="DejaVuSans-2d" d="M 313 2009 
L 1997 2009 
L 1997 1497 
L 313 1497 
L 313 2009 
z
" transform="scale(0.015625)"/>
      <path id="DejaVuSans-47" d="M 3809 666 
L 3809 1919 
L 2778 1919 
L 2778 2438 
L 4434 2438 
L 4434 434 
Q 4069 175 3628 42 
Q 3188 -91 2688 -91 
Q 1594 -91 976 548 
Q 359 1188 359 2328 
Q 359 3472 976 4111 
Q 1594 4750 2688 4750 
Q 3144 4750 3555 4637 
Q 3966 4525 4313 4306 
L 4313 3634 
Q 3963 3931 3569 4081 
Q 3175 4231 2741 4231 
Q 1884 4231 1454 3753 
Q 1025 3275 1025 2328 
Q 1025 1384 1454 906 
Q 1884 428 2741 428 
Q 3075 428 3337 486 
Q 3600 544 3809 666 
z
" transform="scale(0.015625)"/>
      <path id="DejaVuSans-4e" d="M 628 4666 
L 1478 4666 
L 3547 763 
L 3547 4666 
L 4159 4666 
L 4159 0 
L 3309 0 
L 1241 3903 
L 1241 0 
L 628 0 
L 628 4666 
z
" transform="scale(0.015625)"/>
      <path id="DejaVuSans-5f" d="M 3263 -1063 
L 3263 -1509 
L -63 -1509 
L -63 -1063 
L 3263 -1063 
z
" transform="scale(0.015625)"/>
      <path id="DejaVuSans-4b" d="M 628 4666 
L 1259 4666 
L 1259 2694 
L 3353 4666 
L 4166 4666 
L 1850 2491 
L 4331 0 
L 3500 0 
L 1259 2247 
L 1259 0 
L 628 0 
L 628 4666 
z
" transform="scale(0.015625)"/>
      <path id="DejaVuSans-28" d="M 1984 4856 
Q 1566 4138 1362 3434 
Q 1159 2731 1159 2009 
Q 1159 1288 1364 580 
Q 1569 -128 1984 -844 
L 1484 -844 
Q 1016 -109 783 600 
Q 550 1309 550 2009 
Q 550 2706 781 3412 
Q 1013 4119 1484 4856 
L 1984 4856 
z
" transform="scale(0.015625)"/>
      <path id="DejaVuSans-2b" d="M 2944 4013 
L 2944 2272 
L 4684 2272 
L 4684 1741 
L 2944 1741 
L 2944 0 
L 2419 0 
L 2419 1741 
L 678 1741 
L 678 2272 
L 2419 2272 
L 2419 4013 
L 2944 4013 
z
" transform="scale(0.015625)"/>
      <path id="DejaVuSans-6e" d="M 3513 2113 
L 3513 0 
L 2938 0 
L 2938 2094 
Q 2938 2591 2744 2837 
Q 2550 3084 2163 3084 
Q 1697 3084 1428 2787 
Q 1159 2491 1159 1978 
L 1159 0 
L 581 0 
L 581 3500 
L 1159 3500 
L 1159 2956 
Q 1366 3272 1645 3428 
Q 1925 3584 2291 3584 
Q 2894 3584 3203 3211 
Q 3513 2838 3513 2113 
z
" transform="scale(0.015625)"/>
      <path id="DejaVuSans-79" d="M 2059 -325 
Q 1816 -950 1584 -1140 
Q 1353 -1331 966 -1331 
L 506 -1331 
L 506 -850 
L 844 -850 
Q 1081 -850 1212 -737 
Q 1344 -625 1503 -206 
L 1606 56 
L 191 3500 
L 800 3500 
L 1894 763 
L 2988 3500 
L 3597 3500 
L 2059 -325 
z
" transform="scale(0.015625)"/>
      <path id="DejaVuSans-29" d="M 513 4856 
L 1013 4856 
Q 1481 4119 1714 3412 
Q 1947 2706 1947 2009 
Q 1947 1309 1714 600 
Q 1481 -109 1013 -844 
L 513 -844 
Q 928 -128 1133 580 
Q 1338 1288 1338 2009 
Q 1338 2731 1133 3434 
Q 928 4138 513 4856 
z
" transform="scale(0.015625)"/>
     </defs>
     <use xlink:href="#DejaVuSans-52"/>
     <use xlink:href="#DejaVuSans-65" transform="translate(64.982422 0)"/>
     <use xlink:href="#DejaVuSans-77" transform="translate(126.505859 0)"/>
     <use xlink:href="#DejaVuSans-61" transform="translate(208.292969 0)"/>
     <use xlink:href="#DejaVuSans-72" transform="translate(269.572266 0)"/>
     <use xlink:href="#DejaVuSans-64" transform="translate(308.935547 0)"/>
     <use xlink:href="#DejaVuSans-73" transform="translate(372.412109 0)"/>
     <use xlink:href="#DejaVuSans-20" transform="translate(424.511719 0)"/>
     <use xlink:href="#DejaVuSans-6f" transform="translate(456.298828 0)"/>
     <use xlink:href="#DejaVuSans-76" transform="translate(517.480469 0)"/>
     <use xlink:href="#DejaVuSans-65" transform="translate(576.660156 0)"/>
     <use xlink:href="#DejaVuSans-72" transform="translate(638.183594 0)"/>
     <use xlink:href="#DejaVuSans-20" transform="translate(679.296875 0)"/>
     <use xlink:href="#DejaVuSans-45" transform="translate(711.083984 0)"/>
     <use xlink:href="#DejaVuSans-70" transform="translate(774.267578 0)"/>
     <use xlink:href="#DejaVuSans-69" transform="translate(837.744141 0)"/>
     <use xlink:href="#DejaVuSans-73" transform="translate(865.527344 0)"/>
     <use xlink:href="#DejaVuSans-6f" transform="translate(917.626953 0)"/>
     <use xlink:href="#DejaVuSans-64" transform="translate(978.808594 0)"/>
     <use xlink:href="#DejaVuSans-65" transform="translate(1042.285156 0)"/>
     <use xlink:href="#DejaVuSans-73" transform="translate(1103.808594 0)"/>
     <use xlink:href="#DejaVuSans-20" transform="translate(1155.908203 0)"/>
     <use xlink:href="#DejaVuSans-66" transform="translate(1187.695312 0)"/>
     <use xlink:href="#DejaVuSans-6f" transform="translate(1222.900391 0)"/>
     <use xlink:href="#DejaVuSans-72" transform="translate(1284.082031 0)"/>
     <use xlink:href="#DejaVuSans-20" transform="translate(1325.195312 0)"/>
     <use xlink:href="#DejaVuSans-43" transform="translate(1356.982422 0)"/>
     <use xlink:href="#DejaVuSans-61" transform="translate(1426.806641 0)"/>
     <use xlink:href="#DejaVuSans-72" transform="translate(1488.085938 0)"/>
     <use xlink:href="#DejaVuSans-74" transform="translate(1529.199219 0)"/>
     <use xlink:href="#DejaVuSans-50" transform="translate(1568.408203 0)"/>
     <use xlink:href="#DejaVuSans-6f" transform="translate(1625.085938 0)"/>
     <use xlink:href="#DejaVuSans-6c" transform="translate(1686.267578 0)"/>
     <use xlink:href="#DejaVuSans-65" transform="translate(1714.050781 0)"/>
     <use xlink:href="#DejaVuSans-2d" transform="translate(1775.574219 0)"/>
     <use xlink:href="#DejaVuSans-76" transform="translate(1809.033203 0)"/>
     <use xlink:href="#DejaVuSans-31" transform="translate(1868.212891 0)"/>
     <use xlink:href="#DejaVuSans-20" transform="translate(1931.835938 0)"/>
     <use xlink:href="#DejaVuSans-2d" transform="translate(1963.623047 0)"/>
     <use xlink:href="#DejaVuSans-20" transform="translate(1999.707031 0)"/>
     <use xlink:href="#DejaVuSans-47" transform="translate(2031.494141 0)"/>
     <use xlink:href="#DejaVuSans-4e" transform="translate(2108.984375 0)"/>
     <use xlink:href="#DejaVuSans-4e" transform="translate(2183.789062 0)"/>
     <use xlink:href="#DejaVuSans-5f" transform="translate(2258.59375 0)"/>
     <use xlink:href="#DejaVuSans-4b" transform="translate(2308.59375 0)"/>
     <use xlink:href="#DejaVuSans-20" transform="translate(2374.169922 0)"/>
     <use xlink:href="#DejaVuSans-28" transform="translate(2405.957031 0)"/>
     <use xlink:href="#DejaVuSans-4e" transform="translate(2444.970703 0)"/>
     <use xlink:href="#DejaVuSans-6f" transform="translate(2519.775391 0)"/>
     <use xlink:href="#DejaVuSans-69" transform="translate(2580.957031 0)"/>
     <use xlink:href="#DejaVuSans-73" transform="translate(2608.740234 0)"/>
     <use xlink:href="#DejaVuSans-65" transform="translate(2660.839844 0)"/>
     <use xlink:href="#DejaVuSans-20" transform="translate(2722.363281 0)"/>
     <use xlink:href="#DejaVuSans-2b" transform="translate(2754.150391 0)"/>
     <use xlink:href="#DejaVuSans-20" transform="translate(2837.939453 0)"/>
     <use xlink:href="#DejaVuSans-45" transform="translate(2869.726562 0)"/>
     <use xlink:href="#DejaVuSans-6e" transform="translate(2932.910156 0)"/>
     <use xlink:href="#DejaVuSans-74" transform="translate(2996.289062 0)"/>
     <use xlink:href="#DejaVuSans-72" transform="translate(3035.498047 0)"/>
     <use xlink:href="#DejaVuSans-6f" transform="translate(3074.361328 0)"/>
     <use xlink:href="#DejaVuSans-70" transform="translate(3135.542969 0)"/>
     <use xlink:href="#DejaVuSans-79" transform="translate(3199.019531 0)"/>
     <use xlink:href="#DejaVuSans-29" transform="translate(3258.199219 0)"/>
    </g>
   </g>
   <g id="legend_1">
    <g id="patch_7">
     <path d="M 57.87 385.04 
L 226.796563 385.04 
Q 228.796563 385.04 228.796563 383.04 
L 228.796563 310.649375 
Q 228.796563 308.649375 226.796563 308.649375 
L 57.87 308.649375 
Q 55.87 308.649375 55.87 310.649375 
L 55.87 383.04 
Q 55.87 385.04 57.87 385.04 
z
" style="fill: #eaeaf2; opacity: 0.8; stroke: #cccccc; stroke-linejoin: miter"/>
    </g>
    <g id="line2d_36">
     <path d="M 59.87 316.747813 
L 69.87 316.747813 
L 79.87 316.747813 
" style="fill: none; stroke: #0000ff; stroke-width: 1.5; stroke-linecap: round"/>
    </g>
    <g id="text_31">
     <!-- Mean Reward -->
     <g style="fill: #262626" transform="translate(87.87 320.247813) scale(0.1 -0.1)">
      <defs>
       <path id="DejaVuSans-4d" d="M 628 4666 
L 1569 4666 
L 2759 1491 
L 3956 4666 
L 4897 4666 
L 4897 0 
L 4281 0 
L 4281 4097 
L 3078 897 
L 2444 897 
L 1241 4097 
L 1241 0 
L 628 0 
L 628 4666 
z
" transform="scale(0.015625)"/>
      </defs>
      <use xlink:href="#DejaVuSans-4d"/>
      <use xlink:href="#DejaVuSans-65" transform="translate(86.279297 0)"/>
      <use xlink:href="#DejaVuSans-61" transform="translate(147.802734 0)"/>
      <use xlink:href="#DejaVuSans-6e" transform="translate(209.082031 0)"/>
      <use xlink:href="#DejaVuSans-20" transform="translate(272.460938 0)"/>
      <use xlink:href="#DejaVuSans-52" transform="translate(304.248047 0)"/>
      <use xlink:href="#DejaVuSans-65" transform="translate(369.230469 0)"/>
      <use xlink:href="#DejaVuSans-77" transform="translate(430.753906 0)"/>
      <use xlink:href="#DejaVuSans-61" transform="translate(512.541016 0)"/>
      <use xlink:href="#DejaVuSans-72" transform="translate(573.820312 0)"/>
      <use xlink:href="#DejaVuSans-64" transform="translate(613.183594 0)"/>
     </g>
    </g>
    <g id="line2d_37">
     <path d="M 59.87 331.425937 
L 69.87 331.425937 
L 79.87 331.425937 
" style="fill: none; stroke: #008000; stroke-opacity: 0.2; stroke-linecap: round"/>
    </g>
    <g id="text_32">
     <!-- Reward (individual runs) -->
     <g style="fill: #262626" transform="translate(87.87 334.925937) scale(0.1 -0.1)">
      <defs>
       <path id="DejaVuSans-75" d="M 544 1381 
L 544 3500 
L 1119 3500 
L 1119 1403 
Q 1119 906 1312 657 
Q 1506 409 1894 409 
Q 2359 409 2629 706 
Q 2900 1003 2900 1516 
L 2900 3500 
L 3475 3500 
L 3475 0 
L 2900 0 
L 2900 538 
Q 2691 219 2414 64 
Q 2138 -91 1772 -91 
Q 1169 -91 856 284 
Q 544 659 544 1381 
z
M 1991 3584 
L 1991 3584 
z
" transform="scale(0.015625)"/>
      </defs>
      <use xlink:href="#DejaVuSans-52"/>
      <use xlink:href="#DejaVuSans-65" transform="translate(64.982422 0)"/>
      <use xlink:href="#DejaVuSans-77" transform="translate(126.505859 0)"/>
      <use xlink:href="#DejaVuSans-61" transform="translate(208.292969 0)"/>
      <use xlink:href="#DejaVuSans-72" transform="translate(269.572266 0)"/>
      <use xlink:href="#DejaVuSans-64" transform="translate(308.935547 0)"/>
      <use xlink:href="#DejaVuSans-20" transform="translate(372.412109 0)"/>
      <use xlink:href="#DejaVuSans-28" transform="translate(404.199219 0)"/>
      <use xlink:href="#DejaVuSans-69" transform="translate(443.212891 0)"/>
      <use xlink:href="#DejaVuSans-6e" transform="translate(470.996094 0)"/>
      <use xlink:href="#DejaVuSans-64" transform="translate(534.375 0)"/>
      <use xlink:href="#DejaVuSans-69" transform="translate(597.851562 0)"/>
      <use xlink:href="#DejaVuSans-76" transform="translate(625.634766 0)"/>
      <use xlink:href="#DejaVuSans-69" transform="translate(684.814453 0)"/>
      <use xlink:href="#DejaVuSans-64" transform="translate(712.597656 0)"/>
      <use xlink:href="#DejaVuSans-75" transform="translate(776.074219 0)"/>
      <use xlink:href="#DejaVuSans-61" transform="translate(839.453125 0)"/>
      <use xlink:href="#DejaVuSans-6c" transform="translate(900.732422 0)"/>
      <use xlink:href="#DejaVuSans-20" transform="translate(928.515625 0)"/>
      <use xlink:href="#DejaVuSans-72" transform="translate(960.302734 0)"/>
      <use xlink:href="#DejaVuSans-75" transform="translate(1001.416016 0)"/>
      <use xlink:href="#DejaVuSans-6e" transform="translate(1064.794922 0)"/>
      <use xlink:href="#DejaVuSans-73" transform="translate(1128.173828 0)"/>
      <use xlink:href="#DejaVuSans-29" transform="translate(1180.273438 0)"/>
     </g>
    </g>
    <g id="line2d_38">
     <path d="M 59.87 346.104062 
L 69.87 346.104062 
L 79.87 346.104062 
" style="fill: none; stroke: #ff0000; stroke-linecap: round"/>
    </g>
    <g id="text_33">
     <!-- Noise std (normalized) -->
     <g style="fill: #262626" transform="translate(87.87 349.604062) scale(0.1 -0.1)">
      <defs>
       <path id="DejaVuSans-6d" d="M 3328 2828 
Q 3544 3216 3844 3400 
Q 4144 3584 4550 3584 
Q 5097 3584 5394 3201 
Q 5691 2819 5691 2113 
L 5691 0 
L 5113 0 
L 5113 2094 
Q 5113 2597 4934 2840 
Q 4756 3084 4391 3084 
Q 3944 3084 3684 2787 
Q 3425 2491 3425 1978 
L 3425 0 
L 2847 0 
L 2847 2094 
Q 2847 2600 2669 2842 
Q 2491 3084 2119 3084 
Q 1678 3084 1418 2786 
Q 1159 2488 1159 1978 
L 1159 0 
L 581 0 
L 581 3500 
L 1159 3500 
L 1159 2956 
Q 1356 3278 1631 3431 
Q 1906 3584 2284 3584 
Q 2666 3584 2933 3390 
Q 3200 3197 3328 2828 
z
" transform="scale(0.015625)"/>
       <path id="DejaVuSans-7a" d="M 353 3500 
L 3084 3500 
L 3084 2975 
L 922 459 
L 3084 459 
L 3084 0 
L 275 0 
L 275 525 
L 2438 3041 
L 353 3041 
L 353 3500 
z
" transform="scale(0.015625)"/>
      </defs>
      <use xlink:href="#DejaVuSans-4e"/>
      <use xlink:href="#DejaVuSans-6f" transform="translate(74.804688 0)"/>
      <use xlink:href="#DejaVuSans-69" transform="translate(135.986328 0)"/>
      <use xlink:href="#DejaVuSans-73" transform="translate(163.769531 0)"/>
      <use xlink:href="#DejaVuSans-65" transform="translate(215.869141 0)"/>
      <use xlink:href="#DejaVuSans-20" transform="translate(277.392578 0)"/>
      <use xlink:href="#DejaVuSans-73" transform="translate(309.179688 0)"/>
      <use xlink:href="#DejaVuSans-74" transform="translate(361.279297 0)"/>
      <use xlink:href="#DejaVuSans-64" transform="translate(400.488281 0)"/>
      <use xlink:href="#DejaVuSans-20" transform="translate(463.964844 0)"/>
      <use xlink:href="#DejaVuSans-28" transform="translate(495.751953 0)"/>
      <use xlink:href="#DejaVuSans-6e" transform="translate(534.765625 0)"/>
      <use xlink:href="#DejaVuSans-6f" transform="translate(598.144531 0)"/>
      <use xlink:href="#DejaVuSans-72" transform="translate(659.326172 0)"/>
      <use xlink:href="#DejaVuSans-6d" transform="translate(698.689453 0)"/>
      <use xlink:href="#DejaVuSans-61" transform="translate(796.101562 0)"/>
      <use xlink:href="#DejaVuSans-6c" transform="translate(857.380859 0)"/>
      <use xlink:href="#DejaVuSans-69" transform="translate(885.164062 0)"/>
      <use xlink:href="#DejaVuSans-7a" transform="translate(912.947266 0)"/>
      <use xlink:href="#DejaVuSans-65" transform="translate(965.4375 0)"/>
      <use xlink:href="#DejaVuSans-64" transform="translate(1026.960938 0)"/>
      <use xlink:href="#DejaVuSans-29" transform="translate(1090.4375 0)"/>
     </g>
    </g>
    <g id="line2d_39">
     <path d="M 59.87 360.782187 
L 69.87 360.782187 
L 79.87 360.782187 
" style="fill: none; stroke: #800080; stroke-linecap: round"/>
    </g>
    <g id="text_34">
     <!-- Entropy (normalized) -->
     <g style="fill: #262626" transform="translate(87.87 364.282187) scale(0.1 -0.1)">
      <use xlink:href="#DejaVuSans-45"/>
      <use xlink:href="#DejaVuSans-6e" transform="translate(63.183594 0)"/>
      <use xlink:href="#DejaVuSans-74" transform="translate(126.5625 0)"/>
      <use xlink:href="#DejaVuSans-72" transform="translate(165.771484 0)"/>
      <use xlink:href="#DejaVuSans-6f" transform="translate(204.634766 0)"/>
      <use xlink:href="#DejaVuSans-70" transform="translate(265.816406 0)"/>
      <use xlink:href="#DejaVuSans-79" transform="translate(329.292969 0)"/>
      <use xlink:href="#DejaVuSans-20" transform="translate(388.472656 0)"/>
      <use xlink:href="#DejaVuSans-28" transform="translate(420.259766 0)"/>
      <use xlink:href="#DejaVuSans-6e" transform="translate(459.273438 0)"/>
      <use xlink:href="#DejaVuSans-6f" transform="translate(522.652344 0)"/>
      <use xlink:href="#DejaVuSans-72" transform="translate(583.833984 0)"/>
      <use xlink:href="#DejaVuSans-6d" transform="translate(623.197266 0)"/>
      <use xlink:href="#DejaVuSans-61" transform="translate(720.609375 0)"/>
      <use xlink:href="#DejaVuSans-6c" transform="translate(781.888672 0)"/>
      <use xlink:href="#DejaVuSans-69" transform="translate(809.671875 0)"/>
      <use xlink:href="#DejaVuSans-7a" transform="translate(837.455078 0)"/>
      <use xlink:href="#DejaVuSans-65" transform="translate(889.945312 0)"/>
      <use xlink:href="#DejaVuSans-64" transform="translate(951.46875 0)"/>
      <use xlink:href="#DejaVuSans-29" transform="translate(1014.945312 0)"/>
     </g>
    </g>
    <g id="patch_8">
     <path d="M 59.87 378.960312 
L 79.87 378.960312 
L 79.87 371.960312 
L 59.87 371.960312 
z
" style="fill: #0000ff; fill-opacity: 0.1"/>
    </g>
    <g id="text_35">
     <!-- Reward Standard Deviation -->
     <g style="fill: #262626" transform="translate(87.87 378.960312) scale(0.1 -0.1)">
      <defs>
       <path id="DejaVuSans-53" d="M 3425 4513 
L 3425 3897 
Q 3066 4069 2747 4153 
Q 2428 4238 2131 4238 
Q 1616 4238 1336 4038 
Q 1056 3838 1056 3469 
Q 1056 3159 1242 3001 
Q 1428 2844 1947 2747 
L 2328 2669 
Q 3034 2534 3370 2195 
Q 3706 1856 3706 1288 
Q 3706 609 3251 259 
Q 2797 -91 1919 -91 
Q 1588 -91 1214 -16 
Q 841 59 441 206 
L 441 856 
Q 825 641 1194 531 
Q 1563 422 1919 422 
Q 2459 422 2753 634 
Q 3047 847 3047 1241 
Q 3047 1584 2836 1778 
Q 2625 1972 2144 2069 
L 1759 2144 
Q 1053 2284 737 2584 
Q 422 2884 422 3419 
Q 422 4038 858 4394 
Q 1294 4750 2059 4750 
Q 2388 4750 2728 4690 
Q 3069 4631 3425 4513 
z
" transform="scale(0.015625)"/>
       <path id="DejaVuSans-44" d="M 1259 4147 
L 1259 519 
L 2022 519 
Q 2988 519 3436 956 
Q 3884 1394 3884 2338 
Q 3884 3275 3436 3711 
Q 2988 4147 2022 4147 
L 1259 4147 
z
M 628 4666 
L 1925 4666 
Q 3281 4666 3915 4102 
Q 4550 3538 4550 2338 
Q 4550 1131 3912 565 
Q 3275 0 1925 0 
L 628 0 
L 628 4666 
z
" transform="scale(0.015625)"/>
      </defs>
      <use xlink:href="#DejaVuSans-52"/>
      <use xlink:href="#DejaVuSans-65" transform="translate(64.982422 0)"/>
      <use xlink:href="#DejaVuSans-77" transform="translate(126.505859 0)"/>
      <use xlink:href="#DejaVuSans-61" transform="translate(208.292969 0)"/>
      <use xlink:href="#DejaVuSans-72" transform="translate(269.572266 0)"/>
      <use xlink:href="#DejaVuSans-64" transform="translate(308.935547 0)"/>
      <use xlink:href="#DejaVuSans-20" transform="translate(372.412109 0)"/>
      <use xlink:href="#DejaVuSans-53" transform="translate(404.199219 0)"/>
      <use xlink:href="#DejaVuSans-74" transform="translate(467.675781 0)"/>
      <use xlink:href="#DejaVuSans-61" transform="translate(506.884766 0)"/>
      <use xlink:href="#DejaVuSans-6e" transform="translate(568.164062 0)"/>
      <use xlink:href="#DejaVuSans-64" transform="translate(631.542969 0)"/>
      <use xlink:href="#DejaVuSans-61" transform="translate(695.019531 0)"/>
      <use xlink:href="#DejaVuSans-72" transform="translate(756.298828 0)"/>
      <use xlink:href="#DejaVuSans-64" transform="translate(795.662109 0)"/>
      <use xlink:href="#DejaVuSans-20" transform="translate(859.138672 0)"/>
      <use xlink:href="#DejaVuSans-44" transform="translate(890.925781 0)"/>
      <use xlink:href="#DejaVuSans-65" transform="translate(967.927734 0)"/>
      <use xlink:href="#DejaVuSans-76" transform="translate(1029.451172 0)"/>
      <use xlink:href="#DejaVuSans-69" transform="translate(1088.630859 0)"/>
      <use xlink:href="#DejaVuSans-61" transform="translate(1116.414062 0)"/>
      <use xlink:href="#DejaVuSans-74" transform="translate(1177.693359 0)"/>
      <use xlink:href="#DejaVuSans-69" transform="translate(1216.902344 0)"/>
      <use xlink:href="#DejaVuSans-6f" transform="translate(1244.685547 0)"/>
      <use xlink:href="#DejaVuSans-6e" transform="translate(1305.867188 0)"/>
     </g>
    </g>
   </g>
  </g>
 </g>
 <defs>
  <clipPath id="p8559a5a02f">
   <rect x="50.87" y="26.88" width="586.33" height="363.16"/>
  </clipPath>
 </defs>
</svg>
