<?xml version="1.0" encoding="utf-8" standalone="no"?>
<!DOCTYPE svg PUBLIC "-//W3C//DTD SVG 1.1//EN"
  "http://www.w3.org/Graphics/SVG/1.1/DTD/svg11.dtd">
<svg xmlns:xlink="http://www.w3.org/1999/xlink" width="576pt" height="432pt" viewBox="0 0 576 432" xmlns="http://www.w3.org/2000/svg" version="1.1">
 <metadata>
  <rdf:RDF xmlns:dc="http://purl.org/dc/elements/1.1/" xmlns:cc="http://creativecommons.org/ns#" xmlns:rdf="http://www.w3.org/1999/02/22-rdf-syntax-ns#">
   <cc:Work>
    <dc:type rdf:resource="http://purl.org/dc/dcmitype/StillImage"/>
    <dc:date>2025-06-12T21:49:07.708493</dc:date>
    <dc:format>image/svg+xml</dc:format>
    <dc:creator>
     <cc:Agent>
      <dc:title>Matplotlib v3.10.0, https://matplotlib.org/</dc:title>
     </cc:Agent>
    </dc:creator>
   </cc:Work>
  </rdf:RDF>
 </metadata>
 <defs>
  <style type="text/css">*{stroke-linejoin: round; stroke-linecap: butt}</style>
 </defs>
 <g id="figure_1">
  <g id="patch_1">
   <path d="M 0 432 
L 576 432 
L 576 0 
L 0 0 
z
" style="fill: #ffffff"/>
  </g>
  <g id="axes_1">
   <g id="patch_2">
    <path d="M 48.62 390.04 
L 565.2 390.04 
L 565.2 25.49625 
L 48.62 25.49625 
z
" style="fill: #eaeaf2"/>
   </g>
   <g id="matplotlib.axis_1">
    <g id="xtick_1">
     <g id="line2d_1">
      <path d="M 58.554231 390.04 
L 58.554231 25.49625 
" clip-path="url(#pe6dab75ece)" style="fill: none; stroke: #ffffff; stroke-width: 0.8; stroke-linecap: round"/>
     </g>
     <g id="text_1">
      <!-- 0 -->
      <g style="fill: #262626" transform="translate(55.773762 404.197812) scale(0.1 -0.1)">
       <defs>
        <path id="ArialMT-30" d="M 266 2259 
Q 266 3072 433 3567 
Q 600 4063 929 4331 
Q 1259 4600 1759 4600 
Q 2128 4600 2406 4451 
Q 2684 4303 2865 4023 
Q 3047 3744 3150 3342 
Q 3253 2941 3253 2259 
Q 3253 1453 3087 958 
Q 2922 463 2592 192 
Q 2263 -78 1759 -78 
Q 1097 -78 719 397 
Q 266 969 266 2259 
z
M 844 2259 
Q 844 1131 1108 757 
Q 1372 384 1759 384 
Q 2147 384 2411 759 
Q 2675 1134 2675 2259 
Q 2675 3391 2411 3762 
Q 2147 4134 1753 4134 
Q 1366 4134 1134 3806 
Q 844 3388 844 2259 
z
" transform="scale(0.015625)"/>
       </defs>
       <use xlink:href="#ArialMT-30"/>
      </g>
     </g>
    </g>
    <g id="xtick_2">
     <g id="line2d_2">
      <path d="M 91.668333 390.04 
L 91.668333 25.49625 
" clip-path="url(#pe6dab75ece)" style="fill: none; stroke: #ffffff; stroke-width: 0.8; stroke-linecap: round"/>
     </g>
     <g id="text_2">
      <!-- 10 -->
      <g style="fill: #262626" transform="translate(86.107396 404.197812) scale(0.1 -0.1)">
       <defs>
        <path id="ArialMT-31" d="M 2384 0 
L 1822 0 
L 1822 3584 
Q 1619 3391 1289 3197 
Q 959 3003 697 2906 
L 697 3450 
Q 1169 3672 1522 3987 
Q 1875 4303 2022 4600 
L 2384 4600 
L 2384 0 
z
" transform="scale(0.015625)"/>
       </defs>
       <use xlink:href="#ArialMT-31"/>
       <use xlink:href="#ArialMT-30" transform="translate(55.615234 0)"/>
      </g>
     </g>
    </g>
    <g id="xtick_3">
     <g id="line2d_3">
      <path d="M 124.782436 390.04 
L 124.782436 25.49625 
" clip-path="url(#pe6dab75ece)" style="fill: none; stroke: #ffffff; stroke-width: 0.8; stroke-linecap: round"/>
     </g>
     <g id="text_3">
      <!-- 20 -->
      <g style="fill: #262626" transform="translate(119.221498 404.197812) scale(0.1 -0.1)">
       <defs>
        <path id="ArialMT-32" d="M 3222 541 
L 3222 0 
L 194 0 
Q 188 203 259 391 
Q 375 700 629 1000 
Q 884 1300 1366 1694 
Q 2113 2306 2375 2664 
Q 2638 3022 2638 3341 
Q 2638 3675 2398 3904 
Q 2159 4134 1775 4134 
Q 1369 4134 1125 3890 
Q 881 3647 878 3216 
L 300 3275 
Q 359 3922 746 4261 
Q 1134 4600 1788 4600 
Q 2447 4600 2831 4234 
Q 3216 3869 3216 3328 
Q 3216 3053 3103 2787 
Q 2991 2522 2730 2228 
Q 2469 1934 1863 1422 
Q 1356 997 1212 845 
Q 1069 694 975 541 
L 3222 541 
z
" transform="scale(0.015625)"/>
       </defs>
       <use xlink:href="#ArialMT-32"/>
       <use xlink:href="#ArialMT-30" transform="translate(55.615234 0)"/>
      </g>
     </g>
    </g>
    <g id="xtick_4">
     <g id="line2d_4">
      <path d="M 157.896538 390.04 
L 157.896538 25.49625 
" clip-path="url(#pe6dab75ece)" style="fill: none; stroke: #ffffff; stroke-width: 0.8; stroke-linecap: round"/>
     </g>
     <g id="text_4">
      <!-- 30 -->
      <g style="fill: #262626" transform="translate(152.335601 404.197812) scale(0.1 -0.1)">
       <defs>
        <path id="ArialMT-33" d="M 269 1209 
L 831 1284 
Q 928 806 1161 595 
Q 1394 384 1728 384 
Q 2125 384 2398 659 
Q 2672 934 2672 1341 
Q 2672 1728 2419 1979 
Q 2166 2231 1775 2231 
Q 1616 2231 1378 2169 
L 1441 2663 
Q 1497 2656 1531 2656 
Q 1891 2656 2178 2843 
Q 2466 3031 2466 3422 
Q 2466 3731 2256 3934 
Q 2047 4138 1716 4138 
Q 1388 4138 1169 3931 
Q 950 3725 888 3313 
L 325 3413 
Q 428 3978 793 4289 
Q 1159 4600 1703 4600 
Q 2078 4600 2393 4439 
Q 2709 4278 2876 4000 
Q 3044 3722 3044 3409 
Q 3044 3113 2884 2869 
Q 2725 2625 2413 2481 
Q 2819 2388 3044 2092 
Q 3269 1797 3269 1353 
Q 3269 753 2831 336 
Q 2394 -81 1725 -81 
Q 1122 -81 723 278 
Q 325 638 269 1209 
z
" transform="scale(0.015625)"/>
       </defs>
       <use xlink:href="#ArialMT-33"/>
       <use xlink:href="#ArialMT-30" transform="translate(55.615234 0)"/>
      </g>
     </g>
    </g>
    <g id="xtick_5">
     <g id="line2d_5">
      <path d="M 191.010641 390.04 
L 191.010641 25.49625 
" clip-path="url(#pe6dab75ece)" style="fill: none; stroke: #ffffff; stroke-width: 0.8; stroke-linecap: round"/>
     </g>
     <g id="text_5">
      <!-- 40 -->
      <g style="fill: #262626" transform="translate(185.449704 404.197812) scale(0.1 -0.1)">
       <defs>
        <path id="ArialMT-34" d="M 2069 0 
L 2069 1097 
L 81 1097 
L 81 1613 
L 2172 4581 
L 2631 4581 
L 2631 1613 
L 3250 1613 
L 3250 1097 
L 2631 1097 
L 2631 0 
L 2069 0 
z
M 2069 1613 
L 2069 3678 
L 634 1613 
L 2069 1613 
z
" transform="scale(0.015625)"/>
       </defs>
       <use xlink:href="#ArialMT-34"/>
       <use xlink:href="#ArialMT-30" transform="translate(55.615234 0)"/>
      </g>
     </g>
    </g>
    <g id="xtick_6">
     <g id="line2d_6">
      <path d="M 224.124744 390.04 
L 224.124744 25.49625 
" clip-path="url(#pe6dab75ece)" style="fill: none; stroke: #ffffff; stroke-width: 0.8; stroke-linecap: round"/>
     </g>
     <g id="text_6">
      <!-- 50 -->
      <g style="fill: #262626" transform="translate(218.563806 404.197812) scale(0.1 -0.1)">
       <defs>
        <path id="ArialMT-35" d="M 266 1200 
L 856 1250 
Q 922 819 1161 601 
Q 1400 384 1738 384 
Q 2144 384 2425 690 
Q 2706 997 2706 1503 
Q 2706 1984 2436 2262 
Q 2166 2541 1728 2541 
Q 1456 2541 1237 2417 
Q 1019 2294 894 2097 
L 366 2166 
L 809 4519 
L 3088 4519 
L 3088 3981 
L 1259 3981 
L 1013 2750 
Q 1425 3038 1878 3038 
Q 2478 3038 2890 2622 
Q 3303 2206 3303 1553 
Q 3303 931 2941 478 
Q 2500 -78 1738 -78 
Q 1113 -78 717 272 
Q 322 622 266 1200 
z
" transform="scale(0.015625)"/>
       </defs>
       <use xlink:href="#ArialMT-35"/>
       <use xlink:href="#ArialMT-30" transform="translate(55.615234 0)"/>
      </g>
     </g>
    </g>
    <g id="xtick_7">
     <g id="line2d_7">
      <path d="M 257.238846 390.04 
L 257.238846 25.49625 
" clip-path="url(#pe6dab75ece)" style="fill: none; stroke: #ffffff; stroke-width: 0.8; stroke-linecap: round"/>
     </g>
     <g id="text_7">
      <!-- 60 -->
      <g style="fill: #262626" transform="translate(251.677909 404.197812) scale(0.1 -0.1)">
       <defs>
        <path id="ArialMT-36" d="M 3184 3459 
L 2625 3416 
Q 2550 3747 2413 3897 
Q 2184 4138 1850 4138 
Q 1581 4138 1378 3988 
Q 1113 3794 959 3422 
Q 806 3050 800 2363 
Q 1003 2672 1297 2822 
Q 1591 2972 1913 2972 
Q 2475 2972 2870 2558 
Q 3266 2144 3266 1488 
Q 3266 1056 3080 686 
Q 2894 316 2569 119 
Q 2244 -78 1831 -78 
Q 1128 -78 684 439 
Q 241 956 241 2144 
Q 241 3472 731 4075 
Q 1159 4600 1884 4600 
Q 2425 4600 2770 4297 
Q 3116 3994 3184 3459 
z
M 888 1484 
Q 888 1194 1011 928 
Q 1134 663 1356 523 
Q 1578 384 1822 384 
Q 2178 384 2434 671 
Q 2691 959 2691 1453 
Q 2691 1928 2437 2201 
Q 2184 2475 1800 2475 
Q 1419 2475 1153 2201 
Q 888 1928 888 1484 
z
" transform="scale(0.015625)"/>
       </defs>
       <use xlink:href="#ArialMT-36"/>
       <use xlink:href="#ArialMT-30" transform="translate(55.615234 0)"/>
      </g>
     </g>
    </g>
    <g id="xtick_8">
     <g id="line2d_8">
      <path d="M 290.352949 390.04 
L 290.352949 25.49625 
" clip-path="url(#pe6dab75ece)" style="fill: none; stroke: #ffffff; stroke-width: 0.8; stroke-linecap: round"/>
     </g>
     <g id="text_8">
      <!-- 70 -->
      <g style="fill: #262626" transform="translate(284.792011 404.197812) scale(0.1 -0.1)">
       <defs>
        <path id="ArialMT-37" d="M 303 3981 
L 303 4522 
L 3269 4522 
L 3269 4084 
Q 2831 3619 2401 2847 
Q 1972 2075 1738 1259 
Q 1569 684 1522 0 
L 944 0 
Q 953 541 1156 1306 
Q 1359 2072 1739 2783 
Q 2119 3494 2547 3981 
L 303 3981 
z
" transform="scale(0.015625)"/>
       </defs>
       <use xlink:href="#ArialMT-37"/>
       <use xlink:href="#ArialMT-30" transform="translate(55.615234 0)"/>
      </g>
     </g>
    </g>
    <g id="xtick_9">
     <g id="line2d_9">
      <path d="M 323.467051 390.04 
L 323.467051 25.49625 
" clip-path="url(#pe6dab75ece)" style="fill: none; stroke: #ffffff; stroke-width: 0.8; stroke-linecap: round"/>
     </g>
     <g id="text_9">
      <!-- 80 -->
      <g style="fill: #262626" transform="translate(317.906114 404.197812) scale(0.1 -0.1)">
       <defs>
        <path id="ArialMT-38" d="M 1131 2484 
Q 781 2613 612 2850 
Q 444 3088 444 3419 
Q 444 3919 803 4259 
Q 1163 4600 1759 4600 
Q 2359 4600 2725 4251 
Q 3091 3903 3091 3403 
Q 3091 3084 2923 2848 
Q 2756 2613 2416 2484 
Q 2838 2347 3058 2040 
Q 3278 1734 3278 1309 
Q 3278 722 2862 322 
Q 2447 -78 1769 -78 
Q 1091 -78 675 323 
Q 259 725 259 1325 
Q 259 1772 486 2073 
Q 713 2375 1131 2484 
z
M 1019 3438 
Q 1019 3113 1228 2906 
Q 1438 2700 1772 2700 
Q 2097 2700 2305 2904 
Q 2513 3109 2513 3406 
Q 2513 3716 2298 3927 
Q 2084 4138 1766 4138 
Q 1444 4138 1231 3931 
Q 1019 3725 1019 3438 
z
M 838 1322 
Q 838 1081 952 856 
Q 1066 631 1291 507 
Q 1516 384 1775 384 
Q 2178 384 2440 643 
Q 2703 903 2703 1303 
Q 2703 1709 2433 1975 
Q 2163 2241 1756 2241 
Q 1359 2241 1098 1978 
Q 838 1716 838 1322 
z
" transform="scale(0.015625)"/>
       </defs>
       <use xlink:href="#ArialMT-38"/>
       <use xlink:href="#ArialMT-30" transform="translate(55.615234 0)"/>
      </g>
     </g>
    </g>
    <g id="xtick_10">
     <g id="line2d_10">
      <path d="M 356.581154 390.04 
L 356.581154 25.49625 
" clip-path="url(#pe6dab75ece)" style="fill: none; stroke: #ffffff; stroke-width: 0.8; stroke-linecap: round"/>
     </g>
     <g id="text_10">
      <!-- 90 -->
      <g style="fill: #262626" transform="translate(351.020216 404.197812) scale(0.1 -0.1)">
       <defs>
        <path id="ArialMT-39" d="M 350 1059 
L 891 1109 
Q 959 728 1153 556 
Q 1347 384 1650 384 
Q 1909 384 2104 503 
Q 2300 622 2425 820 
Q 2550 1019 2634 1356 
Q 2719 1694 2719 2044 
Q 2719 2081 2716 2156 
Q 2547 1888 2255 1720 
Q 1963 1553 1622 1553 
Q 1053 1553 659 1965 
Q 266 2378 266 3053 
Q 266 3750 677 4175 
Q 1088 4600 1706 4600 
Q 2153 4600 2523 4359 
Q 2894 4119 3086 3673 
Q 3278 3228 3278 2384 
Q 3278 1506 3087 986 
Q 2897 466 2520 194 
Q 2144 -78 1638 -78 
Q 1100 -78 759 220 
Q 419 519 350 1059 
z
M 2653 3081 
Q 2653 3566 2395 3850 
Q 2138 4134 1775 4134 
Q 1400 4134 1122 3828 
Q 844 3522 844 3034 
Q 844 2597 1108 2323 
Q 1372 2050 1759 2050 
Q 2150 2050 2401 2323 
Q 2653 2597 2653 3081 
z
" transform="scale(0.015625)"/>
       </defs>
       <use xlink:href="#ArialMT-39"/>
       <use xlink:href="#ArialMT-30" transform="translate(55.615234 0)"/>
      </g>
     </g>
    </g>
    <g id="xtick_11">
     <g id="line2d_11">
      <path d="M 389.695256 390.04 
L 389.695256 25.49625 
" clip-path="url(#pe6dab75ece)" style="fill: none; stroke: #ffffff; stroke-width: 0.8; stroke-linecap: round"/>
     </g>
     <g id="text_11">
      <!-- 100 -->
      <g style="fill: #262626" transform="translate(381.35385 404.197812) scale(0.1 -0.1)">
       <use xlink:href="#ArialMT-31"/>
       <use xlink:href="#ArialMT-30" transform="translate(55.615234 0)"/>
       <use xlink:href="#ArialMT-30" transform="translate(111.230469 0)"/>
      </g>
     </g>
    </g>
    <g id="xtick_12">
     <g id="line2d_12">
      <path d="M 422.809359 390.04 
L 422.809359 25.49625 
" clip-path="url(#pe6dab75ece)" style="fill: none; stroke: #ffffff; stroke-width: 0.8; stroke-linecap: round"/>
     </g>
     <g id="text_12">
      <!-- 110 -->
      <g style="fill: #262626" transform="translate(414.836703 404.197812) scale(0.1 -0.1)">
       <use xlink:href="#ArialMT-31"/>
       <use xlink:href="#ArialMT-31" transform="translate(48.240234 0)"/>
       <use xlink:href="#ArialMT-30" transform="translate(103.855469 0)"/>
      </g>
     </g>
    </g>
    <g id="xtick_13">
     <g id="line2d_13">
      <path d="M 455.923462 390.04 
L 455.923462 25.49625 
" clip-path="url(#pe6dab75ece)" style="fill: none; stroke: #ffffff; stroke-width: 0.8; stroke-linecap: round"/>
     </g>
     <g id="text_13">
      <!-- 120 -->
      <g style="fill: #262626" transform="translate(447.582055 404.197812) scale(0.1 -0.1)">
       <use xlink:href="#ArialMT-31"/>
       <use xlink:href="#ArialMT-32" transform="translate(55.615234 0)"/>
       <use xlink:href="#ArialMT-30" transform="translate(111.230469 0)"/>
      </g>
     </g>
    </g>
    <g id="xtick_14">
     <g id="line2d_14">
      <path d="M 489.037564 390.04 
L 489.037564 25.49625 
" clip-path="url(#pe6dab75ece)" style="fill: none; stroke: #ffffff; stroke-width: 0.8; stroke-linecap: round"/>
     </g>
     <g id="text_14">
      <!-- 130 -->
      <g style="fill: #262626" transform="translate(480.696158 404.197812) scale(0.1 -0.1)">
       <use xlink:href="#ArialMT-31"/>
       <use xlink:href="#ArialMT-33" transform="translate(55.615234 0)"/>
       <use xlink:href="#ArialMT-30" transform="translate(111.230469 0)"/>
      </g>
     </g>
    </g>
    <g id="xtick_15">
     <g id="line2d_15">
      <path d="M 522.151667 390.04 
L 522.151667 25.49625 
" clip-path="url(#pe6dab75ece)" style="fill: none; stroke: #ffffff; stroke-width: 0.8; stroke-linecap: round"/>
     </g>
     <g id="text_15">
      <!-- 140 -->
      <g style="fill: #262626" transform="translate(513.81026 404.197812) scale(0.1 -0.1)">
       <use xlink:href="#ArialMT-31"/>
       <use xlink:href="#ArialMT-34" transform="translate(55.615234 0)"/>
       <use xlink:href="#ArialMT-30" transform="translate(111.230469 0)"/>
      </g>
     </g>
    </g>
    <g id="xtick_16">
     <g id="line2d_16">
      <path d="M 555.265769 390.04 
L 555.265769 25.49625 
" clip-path="url(#pe6dab75ece)" style="fill: none; stroke: #ffffff; stroke-width: 0.8; stroke-linecap: round"/>
     </g>
     <g id="text_16">
      <!-- 150 -->
      <g style="fill: #262626" transform="translate(546.924363 404.197812) scale(0.1 -0.1)">
       <use xlink:href="#ArialMT-31"/>
       <use xlink:href="#ArialMT-35" transform="translate(55.615234 0)"/>
       <use xlink:href="#ArialMT-30" transform="translate(111.230469 0)"/>
      </g>
     </g>
    </g>
    <g id="text_17">
     <!-- Episode -->
     <g style="fill: #262626" transform="translate(288.842031 417.343125) scale(0.1 -0.1)">
      <defs>
       <path id="ArialMT-45" d="M 506 0 
L 506 4581 
L 3819 4581 
L 3819 4041 
L 1113 4041 
L 1113 2638 
L 3647 2638 
L 3647 2100 
L 1113 2100 
L 1113 541 
L 3925 541 
L 3925 0 
L 506 0 
z
" transform="scale(0.015625)"/>
       <path id="ArialMT-70" d="M 422 -1272 
L 422 3319 
L 934 3319 
L 934 2888 
Q 1116 3141 1344 3267 
Q 1572 3394 1897 3394 
Q 2322 3394 2647 3175 
Q 2972 2956 3137 2557 
Q 3303 2159 3303 1684 
Q 3303 1175 3120 767 
Q 2938 359 2589 142 
Q 2241 -75 1856 -75 
Q 1575 -75 1351 44 
Q 1128 163 984 344 
L 984 -1272 
L 422 -1272 
z
M 931 1641 
Q 931 1000 1190 694 
Q 1450 388 1819 388 
Q 2194 388 2461 705 
Q 2728 1022 2728 1688 
Q 2728 2322 2467 2637 
Q 2206 2953 1844 2953 
Q 1484 2953 1207 2617 
Q 931 2281 931 1641 
z
" transform="scale(0.015625)"/>
       <path id="ArialMT-69" d="M 425 3934 
L 425 4581 
L 988 4581 
L 988 3934 
L 425 3934 
z
M 425 0 
L 425 3319 
L 988 3319 
L 988 0 
L 425 0 
z
" transform="scale(0.015625)"/>
       <path id="ArialMT-73" d="M 197 991 
L 753 1078 
Q 800 744 1014 566 
Q 1228 388 1613 388 
Q 2000 388 2187 545 
Q 2375 703 2375 916 
Q 2375 1106 2209 1216 
Q 2094 1291 1634 1406 
Q 1016 1563 777 1677 
Q 538 1791 414 1992 
Q 291 2194 291 2438 
Q 291 2659 392 2848 
Q 494 3038 669 3163 
Q 800 3259 1026 3326 
Q 1253 3394 1513 3394 
Q 1903 3394 2198 3281 
Q 2494 3169 2634 2976 
Q 2775 2784 2828 2463 
L 2278 2388 
Q 2241 2644 2061 2787 
Q 1881 2931 1553 2931 
Q 1166 2931 1000 2803 
Q 834 2675 834 2503 
Q 834 2394 903 2306 
Q 972 2216 1119 2156 
Q 1203 2125 1616 2013 
Q 2213 1853 2448 1751 
Q 2684 1650 2818 1456 
Q 2953 1263 2953 975 
Q 2953 694 2789 445 
Q 2625 197 2315 61 
Q 2006 -75 1616 -75 
Q 969 -75 630 194 
Q 291 463 197 991 
z
" transform="scale(0.015625)"/>
       <path id="ArialMT-6f" d="M 213 1659 
Q 213 2581 725 3025 
Q 1153 3394 1769 3394 
Q 2453 3394 2887 2945 
Q 3322 2497 3322 1706 
Q 3322 1066 3130 698 
Q 2938 331 2570 128 
Q 2203 -75 1769 -75 
Q 1072 -75 642 372 
Q 213 819 213 1659 
z
M 791 1659 
Q 791 1022 1069 705 
Q 1347 388 1769 388 
Q 2188 388 2466 706 
Q 2744 1025 2744 1678 
Q 2744 2294 2464 2611 
Q 2184 2928 1769 2928 
Q 1347 2928 1069 2612 
Q 791 2297 791 1659 
z
" transform="scale(0.015625)"/>
       <path id="ArialMT-64" d="M 2575 0 
L 2575 419 
Q 2259 -75 1647 -75 
Q 1250 -75 917 144 
Q 584 363 401 755 
Q 219 1147 219 1656 
Q 219 2153 384 2558 
Q 550 2963 881 3178 
Q 1213 3394 1622 3394 
Q 1922 3394 2156 3267 
Q 2391 3141 2538 2938 
L 2538 4581 
L 3097 4581 
L 3097 0 
L 2575 0 
z
M 797 1656 
Q 797 1019 1065 703 
Q 1334 388 1700 388 
Q 2069 388 2326 689 
Q 2584 991 2584 1609 
Q 2584 2291 2321 2609 
Q 2059 2928 1675 2928 
Q 1300 2928 1048 2622 
Q 797 2316 797 1656 
z
" transform="scale(0.015625)"/>
       <path id="ArialMT-65" d="M 2694 1069 
L 3275 997 
Q 3138 488 2766 206 
Q 2394 -75 1816 -75 
Q 1088 -75 661 373 
Q 234 822 234 1631 
Q 234 2469 665 2931 
Q 1097 3394 1784 3394 
Q 2450 3394 2872 2941 
Q 3294 2488 3294 1666 
Q 3294 1616 3291 1516 
L 816 1516 
Q 847 969 1125 678 
Q 1403 388 1819 388 
Q 2128 388 2347 550 
Q 2566 713 2694 1069 
z
M 847 1978 
L 2700 1978 
Q 2663 2397 2488 2606 
Q 2219 2931 1791 2931 
Q 1403 2931 1139 2672 
Q 875 2413 847 1978 
z
" transform="scale(0.015625)"/>
      </defs>
      <use xlink:href="#ArialMT-45"/>
      <use xlink:href="#ArialMT-70" transform="translate(66.699219 0)"/>
      <use xlink:href="#ArialMT-69" transform="translate(122.314453 0)"/>
      <use xlink:href="#ArialMT-73" transform="translate(144.53125 0)"/>
      <use xlink:href="#ArialMT-6f" transform="translate(194.53125 0)"/>
      <use xlink:href="#ArialMT-64" transform="translate(250.146484 0)"/>
      <use xlink:href="#ArialMT-65" transform="translate(305.761719 0)"/>
     </g>
    </g>
   </g>
   <g id="matplotlib.axis_2">
    <g id="ytick_1">
     <g id="line2d_17">
      <path d="M 48.62 390.04 
L 565.2 390.04 
" clip-path="url(#pe6dab75ece)" style="fill: none; stroke: #ffffff; stroke-width: 0.8; stroke-linecap: round"/>
     </g>
     <g id="text_18">
      <!-- 0 -->
      <g style="fill: #262626" transform="translate(36.059063 393.618906) scale(0.1 -0.1)">
       <use xlink:href="#ArialMT-30"/>
      </g>
     </g>
    </g>
    <g id="ytick_2">
     <g id="line2d_18">
      <path d="M 48.62 354.987716 
L 565.2 354.987716 
" clip-path="url(#pe6dab75ece)" style="fill: none; stroke: #ffffff; stroke-width: 0.8; stroke-linecap: round"/>
     </g>
     <g id="text_19">
      <!-- 50 -->
      <g style="fill: #262626" transform="translate(30.498125 358.566623) scale(0.1 -0.1)">
       <use xlink:href="#ArialMT-35"/>
       <use xlink:href="#ArialMT-30" transform="translate(55.615234 0)"/>
      </g>
     </g>
    </g>
    <g id="ytick_3">
     <g id="line2d_19">
      <path d="M 48.62 319.935433 
L 565.2 319.935433 
" clip-path="url(#pe6dab75ece)" style="fill: none; stroke: #ffffff; stroke-width: 0.8; stroke-linecap: round"/>
     </g>
     <g id="text_20">
      <!-- 100 -->
      <g style="fill: #262626" transform="translate(24.937188 323.514339) scale(0.1 -0.1)">
       <use xlink:href="#ArialMT-31"/>
       <use xlink:href="#ArialMT-30" transform="translate(55.615234 0)"/>
       <use xlink:href="#ArialMT-30" transform="translate(111.230469 0)"/>
      </g>
     </g>
    </g>
    <g id="ytick_4">
     <g id="line2d_20">
      <path d="M 48.62 284.883149 
L 565.2 284.883149 
" clip-path="url(#pe6dab75ece)" style="fill: none; stroke: #ffffff; stroke-width: 0.8; stroke-linecap: round"/>
     </g>
     <g id="text_21">
      <!-- 150 -->
      <g style="fill: #262626" transform="translate(24.937188 288.462055) scale(0.1 -0.1)">
       <use xlink:href="#ArialMT-31"/>
       <use xlink:href="#ArialMT-35" transform="translate(55.615234 0)"/>
       <use xlink:href="#ArialMT-30" transform="translate(111.230469 0)"/>
      </g>
     </g>
    </g>
    <g id="ytick_5">
     <g id="line2d_21">
      <path d="M 48.62 249.830865 
L 565.2 249.830865 
" clip-path="url(#pe6dab75ece)" style="fill: none; stroke: #ffffff; stroke-width: 0.8; stroke-linecap: round"/>
     </g>
     <g id="text_22">
      <!-- 200 -->
      <g style="fill: #262626" transform="translate(24.937188 253.409772) scale(0.1 -0.1)">
       <use xlink:href="#ArialMT-32"/>
       <use xlink:href="#ArialMT-30" transform="translate(55.615234 0)"/>
       <use xlink:href="#ArialMT-30" transform="translate(111.230469 0)"/>
      </g>
     </g>
    </g>
    <g id="ytick_6">
     <g id="line2d_22">
      <path d="M 48.62 214.778582 
L 565.2 214.778582 
" clip-path="url(#pe6dab75ece)" style="fill: none; stroke: #ffffff; stroke-width: 0.8; stroke-linecap: round"/>
     </g>
     <g id="text_23">
      <!-- 250 -->
      <g style="fill: #262626" transform="translate(24.937188 218.357488) scale(0.1 -0.1)">
       <use xlink:href="#ArialMT-32"/>
       <use xlink:href="#ArialMT-35" transform="translate(55.615234 0)"/>
       <use xlink:href="#ArialMT-30" transform="translate(111.230469 0)"/>
      </g>
     </g>
    </g>
    <g id="ytick_7">
     <g id="line2d_23">
      <path d="M 48.62 179.726298 
L 565.2 179.726298 
" clip-path="url(#pe6dab75ece)" style="fill: none; stroke: #ffffff; stroke-width: 0.8; stroke-linecap: round"/>
     </g>
     <g id="text_24">
      <!-- 300 -->
      <g style="fill: #262626" transform="translate(24.937188 183.305204) scale(0.1 -0.1)">
       <use xlink:href="#ArialMT-33"/>
       <use xlink:href="#ArialMT-30" transform="translate(55.615234 0)"/>
       <use xlink:href="#ArialMT-30" transform="translate(111.230469 0)"/>
      </g>
     </g>
    </g>
    <g id="ytick_8">
     <g id="line2d_24">
      <path d="M 48.62 144.674014 
L 565.2 144.674014 
" clip-path="url(#pe6dab75ece)" style="fill: none; stroke: #ffffff; stroke-width: 0.8; stroke-linecap: round"/>
     </g>
     <g id="text_25">
      <!-- 350 -->
      <g style="fill: #262626" transform="translate(24.937188 148.252921) scale(0.1 -0.1)">
       <use xlink:href="#ArialMT-33"/>
       <use xlink:href="#ArialMT-35" transform="translate(55.615234 0)"/>
       <use xlink:href="#ArialMT-30" transform="translate(111.230469 0)"/>
      </g>
     </g>
    </g>
    <g id="ytick_9">
     <g id="line2d_25">
      <path d="M 48.62 109.621731 
L 565.2 109.621731 
" clip-path="url(#pe6dab75ece)" style="fill: none; stroke: #ffffff; stroke-width: 0.8; stroke-linecap: round"/>
     </g>
     <g id="text_26">
      <!-- 400 -->
      <g style="fill: #262626" transform="translate(24.937188 113.200637) scale(0.1 -0.1)">
       <use xlink:href="#ArialMT-34"/>
       <use xlink:href="#ArialMT-30" transform="translate(55.615234 0)"/>
       <use xlink:href="#ArialMT-30" transform="translate(111.230469 0)"/>
      </g>
     </g>
    </g>
    <g id="ytick_10">
     <g id="line2d_26">
      <path d="M 48.62 74.569447 
L 565.2 74.569447 
" clip-path="url(#pe6dab75ece)" style="fill: none; stroke: #ffffff; stroke-width: 0.8; stroke-linecap: round"/>
     </g>
     <g id="text_27">
      <!-- 450 -->
      <g style="fill: #262626" transform="translate(24.937188 78.148353) scale(0.1 -0.1)">
       <use xlink:href="#ArialMT-34"/>
       <use xlink:href="#ArialMT-35" transform="translate(55.615234 0)"/>
       <use xlink:href="#ArialMT-30" transform="translate(111.230469 0)"/>
      </g>
     </g>
    </g>
    <g id="ytick_11">
     <g id="line2d_27">
      <path d="M 48.62 39.517163 
L 565.2 39.517163 
" clip-path="url(#pe6dab75ece)" style="fill: none; stroke: #ffffff; stroke-width: 0.8; stroke-linecap: round"/>
     </g>
     <g id="text_28">
      <!-- 500 -->
      <g style="fill: #262626" transform="translate(24.937188 43.09607) scale(0.1 -0.1)">
       <use xlink:href="#ArialMT-35"/>
       <use xlink:href="#ArialMT-30" transform="translate(55.615234 0)"/>
       <use xlink:href="#ArialMT-30" transform="translate(111.230469 0)"/>
      </g>
     </g>
    </g>
    <g id="text_29">
     <!-- Reward -->
     <g style="fill: #262626" transform="translate(18.949688 224.99625) rotate(-90) scale(0.1 -0.1)">
      <defs>
       <path id="ArialMT-52" d="M 503 0 
L 503 4581 
L 2534 4581 
Q 3147 4581 3465 4457 
Q 3784 4334 3975 4021 
Q 4166 3709 4166 3331 
Q 4166 2844 3850 2509 
Q 3534 2175 2875 2084 
Q 3116 1969 3241 1856 
Q 3506 1613 3744 1247 
L 4541 0 
L 3778 0 
L 3172 953 
Q 2906 1366 2734 1584 
Q 2563 1803 2427 1890 
Q 2291 1978 2150 2013 
Q 2047 2034 1813 2034 
L 1109 2034 
L 1109 0 
L 503 0 
z
M 1109 2559 
L 2413 2559 
Q 2828 2559 3062 2645 
Q 3297 2731 3419 2920 
Q 3541 3109 3541 3331 
Q 3541 3656 3305 3865 
Q 3069 4075 2559 4075 
L 1109 4075 
L 1109 2559 
z
" transform="scale(0.015625)"/>
       <path id="ArialMT-77" d="M 1034 0 
L 19 3319 
L 600 3319 
L 1128 1403 
L 1325 691 
Q 1338 744 1497 1375 
L 2025 3319 
L 2603 3319 
L 3100 1394 
L 3266 759 
L 3456 1400 
L 4025 3319 
L 4572 3319 
L 3534 0 
L 2950 0 
L 2422 1988 
L 2294 2553 
L 1622 0 
L 1034 0 
z
" transform="scale(0.015625)"/>
       <path id="ArialMT-61" d="M 2588 409 
Q 2275 144 1986 34 
Q 1697 -75 1366 -75 
Q 819 -75 525 192 
Q 231 459 231 875 
Q 231 1119 342 1320 
Q 453 1522 633 1644 
Q 813 1766 1038 1828 
Q 1203 1872 1538 1913 
Q 2219 1994 2541 2106 
Q 2544 2222 2544 2253 
Q 2544 2597 2384 2738 
Q 2169 2928 1744 2928 
Q 1347 2928 1158 2789 
Q 969 2650 878 2297 
L 328 2372 
Q 403 2725 575 2942 
Q 747 3159 1072 3276 
Q 1397 3394 1825 3394 
Q 2250 3394 2515 3294 
Q 2781 3194 2906 3042 
Q 3031 2891 3081 2659 
Q 3109 2516 3109 2141 
L 3109 1391 
Q 3109 606 3145 398 
Q 3181 191 3288 0 
L 2700 0 
Q 2613 175 2588 409 
z
M 2541 1666 
Q 2234 1541 1622 1453 
Q 1275 1403 1131 1340 
Q 988 1278 909 1158 
Q 831 1038 831 891 
Q 831 666 1001 516 
Q 1172 366 1500 366 
Q 1825 366 2078 508 
Q 2331 650 2450 897 
Q 2541 1088 2541 1459 
L 2541 1666 
z
" transform="scale(0.015625)"/>
       <path id="ArialMT-72" d="M 416 0 
L 416 3319 
L 922 3319 
L 922 2816 
Q 1116 3169 1280 3281 
Q 1444 3394 1641 3394 
Q 1925 3394 2219 3213 
L 2025 2691 
Q 1819 2813 1613 2813 
Q 1428 2813 1281 2702 
Q 1134 2591 1072 2394 
Q 978 2094 978 1738 
L 978 0 
L 416 0 
z
" transform="scale(0.015625)"/>
      </defs>
      <use xlink:href="#ArialMT-52"/>
      <use xlink:href="#ArialMT-65" transform="translate(72.216797 0)"/>
      <use xlink:href="#ArialMT-77" transform="translate(127.832031 0)"/>
      <use xlink:href="#ArialMT-61" transform="translate(200.048828 0)"/>
      <use xlink:href="#ArialMT-72" transform="translate(255.664062 0)"/>
      <use xlink:href="#ArialMT-64" transform="translate(288.964844 0)"/>
     </g>
    </g>
   </g>
   <g id="FillBetweenPolyCollection_1">
    <path d="M 58.554231 373.485271 
L 58.554231 374.738888 
L 61.865641 374.989907 
L 65.177051 373.733343 
L 68.488462 371.00094 
L 71.799872 368.484012 
L 75.111282 365.313492 
L 78.422692 361.180433 
L 81.734103 356.61691 
L 85.045513 355.457721 
L 88.356923 344.926323 
L 91.668333 347.030505 
L 94.979744 339.166182 
L 98.291154 334.598416 
L 101.602564 319.034736 
L 104.913974 308.430213 
L 108.225385 296.566983 
L 111.536795 270.839939 
L 114.848205 244.041499 
L 118.159615 241.790847 
L 121.471026 264.732865 
L 124.782436 243.961813 
L 128.093846 276.13003 
L 131.405256 255.798431 
L 134.716667 247.732687 
L 138.028077 251.843936 
L 141.339487 256.616205 
L 144.650897 250.198916 
L 147.962308 252.00057 
L 151.273718 261.016164 
L 154.585128 265.410082 
L 157.896538 257.201277 
L 161.207949 260.627287 
L 164.519359 257.161215 
L 167.830769 277.540663 
L 171.142179 267.752302 
L 174.45359 264.367508 
L 177.765 275.41921 
L 181.07641 290.234172 
L 184.387821 295.316006 
L 187.699231 295.072192 
L 191.010641 297.116458 
L 194.322051 299.316328 
L 197.633462 290.005583 
L 200.944872 284.774297 
L 204.256282 291.74284 
L 207.567692 286.953071 
L 210.879103 291.750276 
L 214.190513 285.246134 
L 217.501923 277.501517 
L 220.813333 276.2546 
L 224.124744 276.928531 
L 227.436154 270.474252 
L 230.747564 276.085254 
L 234.058974 275.563164 
L 237.370385 269.191665 
L 240.681795 284.459523 
L 243.993205 291.197579 
L 247.304615 282.320184 
L 250.616026 282.788754 
L 253.927436 288.311897 
L 257.238846 289.22705 
L 260.550256 272.441062 
L 263.861667 259.81047 
L 267.173077 261.40585 
L 270.484487 271.228172 
L 273.795897 274.521085 
L 277.107308 274.764753 
L 280.418718 249.351231 
L 283.730128 251.701128 
L 287.041538 251.243391 
L 290.352949 244.622399 
L 293.664359 260.845559 
L 296.975769 264.845843 
L 300.287179 270.010992 
L 303.59859 267.132808 
L 306.91 265.46582 
L 310.22141 242.60578 
L 313.532821 262.565061 
L 316.844231 245.338184 
L 320.155641 254.81634 
L 323.467051 271.512947 
L 326.778462 278.968971 
L 330.089872 278.732643 
L 333.401282 274.289818 
L 336.712692 279.444231 
L 340.024103 282.604873 
L 343.335513 293.500063 
L 346.646923 286.739603 
L 349.958333 281.291127 
L 353.269744 285.80729 
L 356.581154 284.923379 
L 359.892564 280.424912 
L 363.203974 278.423904 
L 366.515385 276.631667 
L 369.826795 278.339281 
L 373.138205 287.755768 
L 376.449615 277.59347 
L 379.761026 273.742164 
L 383.072436 277.010524 
L 386.383846 277.41761 
L 389.695256 279.458642 
L 393.006667 275.428967 
L 396.318077 277.39765 
L 399.629487 271.175639 
L 402.940897 273.194188 
L 406.252308 263.802201 
L 409.563718 261.960292 
L 412.875128 264.402196 
L 416.186538 271.190161 
L 419.497949 271.232806 
L 422.809359 269.903292 
L 426.120769 269.484741 
L 429.432179 270.37522 
L 432.74359 279.290432 
L 436.055 270.94705 
L 439.36641 258.20832 
L 442.677821 251.505177 
L 445.989231 242.602391 
L 449.300641 242.279655 
L 452.612051 232.340992 
L 455.923462 249.798751 
L 459.234872 244.817786 
L 462.546282 243.573297 
L 465.857692 235.437024 
L 469.169103 247.848464 
L 472.480513 231.66762 
L 475.791923 249.3419 
L 479.103333 232.66578 
L 482.414744 215.037961 
L 485.726154 228.88734 
L 489.037564 236.641489 
L 492.348974 229.42259 
L 495.660385 220.329886 
L 498.971795 225.590347 
L 502.283205 212.411538 
L 505.594615 205.081111 
L 508.906026 219.44318 
L 512.217436 211.468468 
L 515.528846 192.647287 
L 518.840256 204.352839 
L 522.151667 184.368042 
L 525.463077 203.548907 
L 528.774487 200.988395 
L 532.085897 201.562973 
L 535.397308 175.907384 
L 538.708718 187.166244 
L 542.020128 165.467328 
L 545.331538 203.633533 
L 548.642949 177.169626 
L 551.954359 185.198538 
L 551.954359 76.129615 
L 551.954359 76.129615 
L 548.642949 52.410364 
L 545.331538 72.62831 
L 542.020128 36.450958 
L 538.708718 50.340356 
L 535.397308 65.013967 
L 532.085897 66.63295 
L 528.774487 58.423036 
L 525.463077 68.214347 
L 522.151667 86.248885 
L 518.840256 139.206178 
L 515.528846 158.378497 
L 512.217436 96.842846 
L 508.906026 112.808019 
L 505.594615 89.619402 
L 502.283205 107.351251 
L 498.971795 116.265578 
L 495.660385 119.47501 
L 492.348974 181.535741 
L 489.037564 152.597759 
L 485.726154 112.755191 
L 482.414744 151.123642 
L 479.103333 113.569356 
L 475.791923 107.676281 
L 472.480513 109.072156 
L 469.169103 104.280901 
L 465.857692 106.285626 
L 462.546282 112.091807 
L 459.234872 109.094033 
L 455.923462 90.384024 
L 452.612051 120.072968 
L 449.300641 148.95648 
L 445.989231 136.245734 
L 442.677821 113.181185 
L 439.36641 88.530796 
L 436.055 83.72802 
L 432.74359 109.798233 
L 429.432179 106.114818 
L 426.120769 143.554888 
L 422.809359 113.877207 
L 419.497949 124.870801 
L 416.186538 80.129786 
L 412.875128 66.23223 
L 409.563718 113.302491 
L 406.252308 155.404899 
L 402.940897 164.640805 
L 399.629487 79.331013 
L 396.318077 113.260457 
L 393.006667 61.610197 
L 389.695256 91.330865 
L 386.383846 88.688092 
L 383.072436 57.296565 
L 379.761026 84.945959 
L 376.449615 75.446816 
L 373.138205 100.484359 
L 369.826795 92.307936 
L 366.515385 62.323834 
L 363.203974 76.475908 
L 359.892564 99.607369 
L 356.581154 104.053357 
L 353.269744 85.370528 
L 349.958333 98.531699 
L 346.646923 134.97535 
L 343.335513 117.632781 
L 340.024103 110.982973 
L 336.712692 93.413017 
L 333.401282 130.720203 
L 330.089872 144.931095 
L 326.778462 167.233094 
L 323.467051 188.494865 
L 320.155641 157.664496 
L 316.844231 139.238554 
L 313.532821 150.108047 
L 310.22141 99.300422 
L 306.91 177.428702 
L 303.59859 153.285892 
L 300.287179 132.538776 
L 296.975769 150.826306 
L 293.664359 141.814842 
L 290.352949 76.260027 
L 287.041538 115.637052 
L 283.730128 111.173156 
L 280.418718 127.699364 
L 277.107308 134.074741 
L 273.795897 164.375135 
L 270.484487 138.124309 
L 267.173077 85.850077 
L 263.861667 44.77946 
L 260.550256 121.653196 
L 257.238846 133.855456 
L 253.927436 63.051254 
L 250.616026 99.836511 
L 247.304615 115.097581 
L 243.993205 156.128669 
L 240.681795 140.948162 
L 237.370385 118.428197 
L 234.058974 141.59554 
L 230.747564 175.701782 
L 227.436154 182.481949 
L 224.124744 199.897233 
L 220.813333 198.325035 
L 217.501923 160.250092 
L 214.190513 174.895512 
L 210.879103 145.492665 
L 207.567692 149.691437 
L 204.256282 145.652132 
L 200.944872 172.62643 
L 197.633462 154.77599 
L 194.322051 187.441698 
L 191.010641 162.753921 
L 187.699231 208.922155 
L 184.387821 215.567784 
L 181.07641 204.02846 
L 177.765 190.187476 
L 174.45359 169.29967 
L 171.142179 178.072321 
L 167.830769 202.79528 
L 164.519359 209.823981 
L 161.207949 213.459819 
L 157.896538 168.133589 
L 154.585128 212.140801 
L 151.273718 208.879413 
L 147.962308 199.508878 
L 144.650897 200.268322 
L 141.339487 214.618603 
L 138.028077 207.880823 
L 134.716667 184.224779 
L 131.405256 182.308065 
L 128.093846 190.080339 
L 124.782436 210.207392 
L 121.471026 239.822771 
L 118.159615 218.059835 
L 114.848205 232.140357 
L 111.536795 241.603098 
L 108.225385 265.222241 
L 104.913974 270.511228 
L 101.602564 284.072732 
L 98.291154 304.445549 
L 94.979744 313.592132 
L 91.668333 331.146588 
L 88.356923 337.769483 
L 85.045513 345.520313 
L 81.734103 349.930656 
L 78.422692 355.459034 
L 75.111282 362.558713 
L 71.799872 366.19155 
L 68.488462 368.474825 
L 65.177051 371.597367 
L 61.865641 374.487453 
L 58.554231 373.485271 
z
" clip-path="url(#pe6dab75ece)" style="fill: #0000ff; fill-opacity: 0.1"/>
   </g>
   <g id="line2d_28">
    <path d="M 58.554231 374.11208 
L 61.865641 374.73868 
L 65.177051 372.665355 
L 68.488462 369.737883 
L 71.799872 367.337781 
L 75.111282 363.936103 
L 78.422692 358.319734 
L 81.734103 353.273783 
L 85.045513 350.489017 
L 88.356923 341.347903 
L 91.668333 339.088546 
L 94.979744 326.379157 
L 98.291154 319.521982 
L 101.602564 301.553734 
L 104.913974 289.470721 
L 108.225385 280.894612 
L 111.536795 256.221518 
L 114.848205 238.090928 
L 118.159615 229.925341 
L 121.471026 252.277818 
L 124.782436 227.084603 
L 128.093846 233.105184 
L 131.405256 219.053248 
L 134.716667 215.978733 
L 138.028077 229.86238 
L 141.339487 235.617404 
L 144.650897 225.233619 
L 147.962308 225.754724 
L 151.273718 234.947789 
L 154.585128 238.775441 
L 157.896538 212.667433 
L 161.207949 237.043553 
L 164.519359 233.492598 
L 167.830769 240.167972 
L 171.142179 222.912312 
L 174.45359 216.833589 
L 177.765 232.803343 
L 181.07641 247.131316 
L 184.387821 255.441895 
L 187.699231 251.997174 
L 191.010641 229.935189 
L 194.322051 243.379013 
L 197.633462 222.390786 
L 200.944872 228.700364 
L 204.256282 218.697486 
L 207.567692 218.322254 
L 210.879103 218.62147 
L 214.190513 230.070823 
L 217.501923 218.875804 
L 220.813333 237.289818 
L 224.124744 238.412882 
L 227.436154 226.478101 
L 230.747564 225.893518 
L 234.058974 208.579352 
L 237.370385 193.809931 
L 240.681795 212.703842 
L 243.993205 223.663124 
L 247.304615 198.708883 
L 250.616026 191.312633 
L 253.927436 175.681575 
L 257.238846 211.541253 
L 260.550256 197.047129 
L 263.861667 152.294965 
L 267.173077 173.627964 
L 270.484487 204.67624 
L 273.795897 219.44811 
L 277.107308 204.419747 
L 280.418718 188.525298 
L 283.730128 181.437142 
L 287.041538 183.440221 
L 290.352949 160.441213 
L 293.664359 201.3302 
L 296.975769 207.836074 
L 300.287179 201.274884 
L 303.59859 210.20935 
L 306.91 221.447261 
L 310.22141 170.953101 
L 313.532821 206.336554 
L 316.844231 192.288369 
L 320.155641 206.240418 
L 323.467051 230.003906 
L 326.778462 223.101032 
L 330.089872 211.831869 
L 333.401282 202.50501 
L 336.712692 186.428624 
L 340.024103 196.793923 
L 343.335513 205.566422 
L 346.646923 210.857477 
L 349.958333 189.911413 
L 353.269744 185.588909 
L 356.581154 194.488368 
L 359.892564 190.016141 
L 363.203974 177.449906 
L 366.515385 169.477751 
L 369.826795 185.323608 
L 373.138205 194.120064 
L 376.449615 176.520143 
L 379.761026 179.344061 
L 383.072436 167.153545 
L 386.383846 183.052851 
L 389.695256 185.394753 
L 393.006667 168.519582 
L 396.318077 195.329054 
L 399.629487 175.253326 
L 402.940897 218.917497 
L 406.252308 209.60355 
L 412.875128 165.317213 
L 416.186538 175.659974 
L 419.497949 198.051804 
L 422.809359 191.890249 
L 426.120769 206.519814 
L 429.432179 188.245019 
L 432.74359 194.544333 
L 436.055 177.337535 
L 439.36641 173.369558 
L 442.677821 182.343181 
L 445.989231 189.424063 
L 449.300641 195.618068 
L 452.612051 176.20698 
L 455.923462 170.091388 
L 459.234872 176.955909 
L 462.546282 177.832552 
L 465.857692 170.861325 
L 469.169103 176.064683 
L 472.480513 170.369888 
L 475.791923 178.50909 
L 479.103333 173.117568 
L 482.414744 183.080802 
L 485.726154 170.821265 
L 489.037564 194.619624 
L 492.348974 205.479166 
L 495.660385 169.902448 
L 498.971795 170.927962 
L 502.283205 159.881395 
L 505.594615 147.350256 
L 508.906026 166.1256 
L 512.217436 154.155657 
L 515.528846 175.512892 
L 518.840256 171.779509 
L 522.151667 135.308464 
L 525.463077 135.881627 
L 528.774487 129.705716 
L 532.085897 134.097962 
L 535.397308 120.460676 
L 538.708718 118.7533 
L 542.020128 100.959143 
L 545.331538 138.130921 
L 548.642949 114.789995 
L 551.954359 130.664077 
L 551.954359 130.664077 
" clip-path="url(#pe6dab75ece)" style="fill: none; stroke: #0000ff; stroke-width: 1.5; stroke-linecap: round"/>
   </g>
   <g id="line2d_29">
    <path d="M 58.554231 374.343023 
L 61.865641 374.451806 
L 65.177051 374.104535 
L 68.488462 370.78394 
L 71.799872 368.976023 
L 75.111282 364.471306 
L 78.422692 360.245559 
L 81.734103 353.853129 
L 85.045513 355.66214 
L 88.356923 342.331997 
L 91.668333 341.342363 
L 94.979744 339.776348 
L 98.291154 331.868125 
L 101.602564 327.216748 
L 104.913974 312.368263 
L 108.225385 306.296908 
L 111.536795 272.865223 
L 114.848205 247.067921 
L 118.159615 243.147563 
L 121.471026 250.531911 
L 124.782436 207.517752 
L 128.093846 236.139856 
L 131.405256 197.102216 
L 134.716667 213.259649 
L 138.028077 224.377515 
L 141.339487 228.010819 
L 144.650897 248.593726 
L 147.962308 250.337176 
L 151.273718 251.011574 
L 154.585128 227.724558 
L 157.896538 133.457284 
L 161.207949 215.780076 
L 164.519359 214.027461 
L 167.830769 174.818978 
L 171.142179 172.926155 
L 174.45359 142.851296 
L 177.765 250.408197 
L 181.07641 276.440121 
L 184.387821 303.811382 
L 187.699231 293.045324 
L 191.010641 284.518605 
L 194.322051 295.32094 
L 197.633462 259.879187 
L 200.944872 252.007797 
L 204.256282 253.557477 
L 207.567692 248.896138 
L 210.879103 261.203384 
L 214.190513 239.974988 
L 217.501923 234.641542 
L 220.813333 206.689593 
L 224.124744 185.264559 
L 227.436154 174.585296 
L 230.747564 163.156128 
L 234.058974 113.360641 
L 237.370385 122.552129 
L 240.681795 175.647487 
L 243.993205 127.147873 
L 247.304615 127.410765 
L 250.616026 118.647694 
L 253.927436 69.311605 
L 257.238846 133.145708 
L 260.550256 156.018208 
L 263.861667 110.79014 
L 267.173077 112.192232 
L 270.484487 177.686892 
L 277.107308 124.421584 
L 280.418718 148.529766 
L 283.730128 166.827058 
L 287.041538 160.447542 
L 290.352949 128.394176 
L 293.664359 180.006716 
L 296.975769 136.573042 
L 300.287179 165.705385 
L 303.59859 196.701618 
L 306.91 212.62537 
L 310.22141 139.844589 
L 313.532821 220.333021 
L 316.844231 167.925363 
L 320.155641 171.664273 
L 323.467051 179.609457 
L 326.778462 131.494356 
L 330.089872 110.011201 
L 333.401282 99.261834 
L 336.712692 53.362816 
L 340.024103 75.358123 
L 343.335513 53.713338 
L 346.646923 91.920328 
L 349.958333 57.306197 
L 353.269744 64.229023 
L 356.581154 75.182862 
L 359.892564 98.492631 
L 363.203974 39.517163 
L 366.515385 48.104973 
L 369.826795 50.032849 
L 373.138205 39.517163 
L 376.449615 59.234073 
L 379.761026 101.822598 
L 383.072436 39.517163 
L 386.383846 55.904106 
L 389.695256 55.378322 
L 393.006667 39.517163 
L 396.318077 70.275542 
L 399.629487 63.002194 
L 402.940897 142.570877 
L 406.252308 140.311952 
L 409.563718 136.183572 
L 412.875128 39.517163 
L 416.186538 96.652386 
L 419.497949 164.685682 
L 422.809359 154.254972 
L 426.120769 147.197779 
L 429.432179 78.775721 
L 432.74359 193.261872 
L 436.055 104.013365 
L 439.36641 88.940883 
L 442.677821 82.981995 
L 445.989231 146.286419 
L 449.300641 126.622088 
L 452.612051 137.488296 
L 455.923462 125.482889 
L 459.234872 154.208236 
L 462.546282 178.73315 
L 465.857692 147.267883 
L 469.169103 180.894708 
L 472.480513 191.428368 
L 475.791923 215.129105 
L 479.103333 188.839892 
L 482.414744 193.338268 
L 485.726154 228.492788 
L 489.037564 240.366749 
L 492.348974 231.034078 
L 498.971795 195.733508 
L 502.283205 159.778362 
L 505.594615 146.566838 
L 508.906026 154.27834 
L 512.217436 117.771387 
L 515.528846 193.546913 
L 518.840256 200.703742 
L 522.151667 95.678711 
L 525.463077 63.002194 
L 528.774487 59.058812 
L 532.085897 39.517163 
L 535.397308 51.259678 
L 538.708718 40.481101 
L 542.020128 39.517163 
L 545.331538 55.11543 
L 548.642949 39.517163 
L 551.954359 49.331803 
L 551.954359 49.331803 
" clip-path="url(#pe6dab75ece)" style="fill: none; stroke: #008000; stroke-opacity: 0.2; stroke-linecap: round"/>
   </g>
   <g id="line2d_30">
    <path d="M 58.554231 374.739777 
L 61.865641 374.820651 
L 65.177051 371.840854 
L 68.488462 370.214841 
L 71.799872 367.855297 
L 75.111282 364.487868 
L 78.422692 362.253099 
L 81.734103 358.052753 
L 85.045513 354.896671 
L 88.356923 347.801998 
L 91.668333 345.149313 
L 94.979744 334.399865 
L 98.291154 331.350285 
L 101.602564 313.666081 
L 104.913974 301.079721 
L 108.225385 273.605458 
L 111.536795 260.162065 
L 114.848205 230.245402 
L 118.159615 228.536603 
L 121.471026 274.184582 
L 124.782436 248.022905 
L 128.093846 273.634553 
L 131.405256 247.395654 
L 134.716667 256.525852 
L 138.028077 256.546145 
L 141.339487 262.765158 
L 144.650897 250.236734 
L 147.962308 250.777277 
L 151.273718 272.264327 
L 154.585128 267.146694 
L 157.896538 267.216798 
L 161.207949 274.893248 
L 164.519359 280.06346 
L 167.830769 283.004347 
L 171.142179 277.994613 
L 174.45359 274.580826 
L 177.765 284.43448 
L 181.07641 285.179745 
L 184.387821 287.282882 
L 187.699231 285.880791 
L 191.010641 286.705868 
L 194.322051 294.697788 
L 197.633462 293.685167 
L 200.944872 290.07608 
L 204.256282 293.347626 
L 207.567692 288.684974 
L 210.879103 294.272154 
L 214.190513 303.203809 
L 217.501923 301.918559 
L 220.813333 302.002232 
L 224.124744 305.34916 
L 227.436154 297.042665 
L 230.747564 297.018491 
L 234.058974 303.562624 
L 237.370385 301.934389 
L 240.681795 305.236088 
L 243.993205 303.517395 
L 247.304615 296.149954 
L 250.616026 301.993045 
L 253.927436 297.598667 
L 257.238846 281.582392 
L 260.550256 252.22918 
L 263.861667 237.956904 
L 267.173077 218.678148 
L 270.484487 200.357071 
L 273.795897 209.019992 
L 277.107308 188.898312 
L 280.418718 186.561493 
L 283.730128 192.754064 
L 287.041538 201.243008 
L 290.352949 199.589259 
L 293.664359 198.420849 
L 296.975769 205.022363 
L 300.287179 190.534086 
L 303.59859 189.657778 
L 306.91 196.227835 
L 310.22141 180.953128 
L 313.532821 189.657778 
L 316.844231 178.441048 
L 320.155641 199.085944 
L 323.467051 192.2867 
L 326.778462 192.2867 
L 330.089872 191.050882 
L 333.401282 191.11829 
L 336.712692 189.83304 
L 340.024103 187.671482 
L 343.335513 198.492751 
L 346.646923 183.114685 
L 349.958333 194.286477 
L 353.269744 194.156155 
L 356.581154 190.592506 
L 359.892564 190.066722 
L 363.203974 193.51353 
L 366.515385 186.736755 
L 369.826795 187.204119 
L 373.138205 207.067079 
L 376.449615 194.915621 
L 379.761026 192.2867 
L 383.072436 191.644075 
L 386.383846 202.685544 
L 389.695256 204.087635 
L 393.006667 190.592506 
L 396.318077 200.272329 
L 399.629487 196.843497 
L 402.940897 208.091685 
L 406.252308 194.987523 
L 409.563718 189.365676 
L 412.875128 194.389837 
L 416.186538 189.657778 
L 419.497949 194.097734 
L 422.809359 198.816311 
L 426.120769 200.973375 
L 429.432179 184.633618 
L 432.74359 197.719804 
L 436.055 193.396689 
L 439.36641 194.915621 
L 442.677821 182.004697 
L 445.989231 187.37938 
L 449.300641 198.362429 
L 452.612051 194.857201 
L 455.923462 188.022005 
L 459.234872 185.393084 
L 465.857692 197.522073 
L 469.169103 191.877756 
L 472.480513 185.276243 
L 475.791923 194.857201 
L 479.103333 199.530838 
L 482.414744 188.022005 
L 485.726154 182.997845 
L 492.348974 206.41996 
L 495.660385 181.011548 
L 498.971795 192.637223 
L 502.283205 188.430949 
L 505.594615 180.427344 
L 508.906026 186.386232 
L 512.217436 187.028857 
L 515.528846 186.561493 
L 518.840256 180.485764 
L 522.151667 176.980536 
L 525.463077 177.331059 
L 528.774487 182.705742 
L 532.085897 178.849991 
L 535.397308 194.389837 
L 538.708718 191.760915 
L 542.020128 195.090882 
L 545.331538 184.750459 
L 548.642949 178.032104 
L 551.954359 172.014796 
L 551.954359 172.014796 
" clip-path="url(#pe6dab75ece)" style="fill: none; stroke: #008000; stroke-opacity: 0.2; stroke-linecap: round"/>
   </g>
   <g id="line2d_31">
    <path d="M 58.554231 374.743738 
L 61.865641 375.019806 
L 65.177051 371.970664 
L 68.488462 367.997285 
L 71.799872 367.357407 
L 75.111282 364.160833 
L 78.422692 357.574909 
L 81.734103 353.708782 
L 85.045513 348.796944 
L 88.356923 340.100056 
L 91.668333 345.757282 
L 94.979744 322.500234 
L 98.291154 325.911012 
L 101.602564 288.631047 
L 104.913974 279.274784 
L 108.225385 291.504136 
L 111.536795 262.519792 
L 114.848205 241.624507 
L 118.159615 214.127611 
L 121.471026 255.32239 
L 124.782436 223.658494 
L 128.093846 158.484614 
L 131.405256 160.447542 
L 134.716667 159.31808 
L 138.028077 191.212662 
L 141.339487 200.649815 
L 144.650897 190.008301 
L 147.962308 179.981224 
L 151.273718 194.097734 
L 154.585128 192.075487 
L 157.896538 215.980374 
L 161.207949 211.48906 
L 164.519359 226.750285 
L 167.830769 257.717629 
L 171.142179 261.853799 
L 174.45359 262.249389 
L 177.765 257.332054 
L 181.07641 279.274784 
L 184.387821 261.538328 
L 187.699231 279.683727 
L 191.010641 280.340373 
L 194.322051 275.586674 
L 197.633462 276.37916 
L 200.944872 270.766638 
L 204.256282 283.396932 
L 207.567692 281.265753 
L 210.879103 267.602373 
L 214.190513 267.690838 
L 217.501923 247.844569 
L 220.813333 262.349538 
L 224.124744 236.181094 
L 227.436154 253.926448 
L 230.747564 263.045576 
L 234.058974 258.34857 
L 237.370385 265.008504 
L 240.681795 290.869001 
L 243.993205 297.351747 
L 247.304615 304.580271 
L 250.616026 302.658049 
L 253.927436 311.603004 
L 257.238846 314.527366 
L 260.550256 317.775454 
L 263.861667 316.605466 
L 267.173077 314.364962 
L 270.484487 311.963542 
L 273.795897 306.57175 
L 277.107308 308.697458 
L 280.418718 305.848796 
L 283.730128 306.067873 
L 287.041538 306.638179 
L 290.352949 305.71735 
L 293.664359 302.838964 
L 296.975769 299.169976 
L 300.287179 298.413331 
L 303.59859 301.482101 
L 306.91 302.946759 
L 310.22141 301.638141 
L 313.532821 301.848454 
L 316.844231 293.245622 
L 320.155641 295.814269 
L 323.467051 296.425365 
L 326.778462 292.568687 
L 330.089872 293.529379 
L 333.401282 274.093142 
L 340.024103 292.41939 
L 343.335513 295.762339 
L 346.646923 289.305129 
L 349.958333 287.827541 
L 353.269744 290.407389 
L 356.581154 291.997464 
L 359.892564 290.410625 
L 363.203974 274.17627 
L 366.515385 273.574978 
L 369.826795 274.977069 
L 373.138205 283.364217 
L 376.449615 275.982917 
L 379.761026 264.853273 
L 383.072436 266.255364 
L 386.383846 266.401036 
L 389.695256 274.567763 
L 393.006667 267.056559 
L 396.318077 270.256787 
L 399.629487 262.082473 
L 402.940897 270.320518 
L 406.252308 255.070259 
L 409.563718 254.553699 
L 412.875128 243.910924 
L 416.186538 261.643485 
L 419.497949 261.433171 
L 422.809359 259.224877 
L 426.120769 266.889643 
L 429.432179 278.695659 
L 432.74359 262.765158 
L 436.055 266.055065 
L 439.36641 248.117198 
L 442.677821 243.248825 
L 445.989231 220.947784 
L 449.300641 250.6795 
L 452.612051 240.676034 
L 455.923462 244.181262 
L 459.234872 264.728086 
L 462.546282 257.099602 
L 465.857692 258.317208 
L 469.169103 257.191845 
L 472.480513 252.413665 
L 475.791923 236.67595 
L 479.103333 244.799832 
L 482.414744 226.322467 
L 485.726154 223.424812 
L 489.037564 235.985213 
L 492.348974 227.397404 
L 495.660385 213.5167 
L 498.971795 223.938912 
L 502.283205 226.135522 
L 505.594615 225.776236 
L 508.906026 250.284483 
L 512.217436 222.139561 
L 515.528846 187.628995 
L 518.840256 209.070067 
L 522.151667 198.816311 
L 525.463077 225.90184 
L 528.774487 226.389651 
L 532.085897 220.445368 
L 535.397308 159.045451 
L 538.708718 204.586456 
L 542.020128 159.95681 
L 545.331538 211.273353 
L 548.642949 170.963227 
L 551.954359 172.20599 
L 551.954359 172.20599 
" clip-path="url(#pe6dab75ece)" style="fill: none; stroke: #008000; stroke-opacity: 0.2; stroke-linecap: round"/>
   </g>
   <g id="line2d_32">
    <path d="M 58.554231 373.305223 
L 61.865641 374.969476 
L 65.177051 371.59492 
L 68.488462 368.504753 
L 71.799872 367.040989 
L 75.111282 365.278295 
L 78.422692 357.775596 
L 81.734103 353.182284 
L 85.045513 351.196145 
L 88.356923 338.837701 
L 91.668333 339.240153 
L 94.979744 331.83763 
L 98.291154 317.207039 
L 101.602564 300.236049 
L 104.913974 296.535012 
L 108.225385 265.008504 
L 111.536795 229.088161 
L 114.848205 233.356292 
L 118.159615 220.293474 
L 121.471026 243.336969 
L 124.782436 210.949794 
L 128.093846 220.764433 
L 131.405256 226.883304 
L 134.716667 224.312803 
L 138.028077 242.314098 
L 141.339487 237.492462 
L 144.650897 236.248105 
L 147.962308 231.29697 
L 151.273718 228.659286 
L 154.585128 255.402334 
L 157.896538 208.719544 
L 161.207949 251.601928 
L 164.519359 222.817239 
L 167.830769 225.948576 
L 171.142179 169.000299 
L 174.45359 202.91088 
L 177.765 209.450635 
L 181.07641 175.029292 
L 184.387821 191.859781 
L 187.699231 186.327811 
L 191.010641 129.811846 
L 194.322051 182.721675 
L 197.633462 151.217107 
L 200.944872 193.688791 
L 204.256282 115.317727 
L 207.567692 124.655266 
L 210.879103 97.441062 
L 214.190513 192.987745 
L 217.501923 132.21098 
L 220.813333 201.049771 
L 224.124744 237.124413 
L 227.436154 213.142808 
L 230.747564 178.791571 
L 234.058974 201.728347 
L 237.370385 120.60478 
L 240.681795 126.271566 
L 243.993205 200.465566 
L 247.304615 117.644809 
L 250.616026 136.086205 
L 253.927436 160.377437 
L 257.238846 209.170216 
L 263.861667 45.826575 
L 267.173077 60.548534 
L 270.484487 107.518594 
L 273.795897 178.770327 
L 277.107308 140.085352 
L 280.418718 138.785231 
L 283.730128 147.688511 
L 287.041538 124.265796 
L 290.352949 75.358123 
L 293.664359 207.174933 
L 296.975769 235.768714 
L 300.287179 251.739267 
L 303.59859 234.655288 
L 306.91 222.274378 
L 310.22141 88.590361 
L 313.532821 129.075748 
L 316.844231 137.196194 
L 320.155641 156.018208 
L 323.467051 242.54778 
L 326.778462 245.274069 
L 330.089872 187.182875 
L 333.401282 157.222732 
L 336.712692 114.451157 
L 340.024103 136.051153 
L 343.335513 189.657778 
L 346.646923 193.046166 
L 349.958333 121.101354 
L 353.269744 79.126244 
L 356.581154 115.66825 
L 359.892564 79.788343 
L 363.203974 85.085132 
L 366.515385 43.898699 
L 369.826795 117.878491 
L 373.138205 148.109138 
L 376.449615 59.847488 
L 379.761026 44.687375 
L 383.072436 39.517163 
L 386.383846 93.322419 
L 389.695256 99.544199 
L 393.006667 49.682326 
L 396.318077 142.492983 
L 399.629487 64.491916 
L 402.940897 184.3532 
L 406.252308 170.230316 
L 409.563718 78.162306 
L 412.875128 60.198011 
L 416.186538 39.517163 
L 419.497949 81.842796 
L 422.809359 64.579546 
L 426.120769 129.33864 
L 429.432179 118.034279 
L 432.74359 39.517163 
L 436.055 39.517163 
L 439.36641 60.811426 
L 442.677821 132.522556 
L 445.989231 121.461613 
L 449.300641 162.327619 
L 452.612051 87.801684 
L 455.923462 39.517163 
L 459.234872 62.651671 
L 462.546282 57.65672 
L 465.857692 63.002194 
L 469.169103 42.321346 
L 472.480513 64.316654 
L 475.791923 39.517163 
L 479.103333 65.368223 
L 482.414744 127.410765 
L 485.726154 70.100281 
L 489.037564 126.368933 
L 492.348974 164.536975 
L 495.660385 76.234431 
L 498.971795 65.981638 
L 502.283205 67.208468 
L 505.594615 51.43494 
L 508.906026 85.961439 
L 512.217436 61.424841 
L 515.528846 151.365814 
L 518.840256 124.431321 
L 522.151667 66.857945 
L 525.463077 51.610201 
L 528.774487 39.517163 
L 532.085897 72.904464 
L 535.397308 62.125886 
L 538.708718 52.66177 
L 542.020128 39.517163 
L 545.331538 63.352716 
L 548.642949 39.517163 
L 551.954359 80.800964 
L 551.954359 80.800964 
" clip-path="url(#pe6dab75ece)" style="fill: none; stroke: #008000; stroke-opacity: 0.2; stroke-linecap: round"/>
   </g>
   <g id="line2d_33">
    <path d="M 58.554231 373.428637 
L 61.865641 374.431661 
L 65.177051 373.8158 
L 68.488462 371.188594 
L 71.799872 365.459191 
L 75.111282 361.282212 
L 78.422692 353.749506 
L 81.734103 347.571968 
L 85.045513 341.893185 
L 88.356923 337.667764 
L 91.668333 323.953621 
L 94.979744 303.381709 
L 98.291154 291.27345 
L 101.602564 278.018743 
L 104.913974 258.095825 
L 108.225385 268.058053 
L 111.536795 256.472351 
L 114.848205 238.160517 
L 118.159615 243.521454 
L 121.471026 238.013238 
L 124.782436 245.274069 
L 128.093846 276.502467 
L 131.405256 263.437525 
L 134.716667 226.477281 
L 138.028077 234.861478 
L 141.339487 249.168767 
L 144.650897 201.081228 
L 147.962308 216.380972 
L 151.273718 228.706022 
L 154.585128 251.528134 
L 157.896538 237.963164 
L 161.207949 231.453454 
L 164.519359 223.804545 
L 167.830769 259.350328 
L 171.142179 232.786692 
L 174.45359 201.575555 
L 177.765 162.391351 
L 181.07641 219.732638 
L 184.387821 232.717103 
L 187.699231 215.048215 
L 191.010641 168.299254 
L 194.322051 168.567988 
L 197.633462 130.79331 
L 200.944872 136.962512 
L 204.256282 147.867667 
L 207.567692 148.109138 
L 210.879103 172.588378 
L 214.190513 146.496733 
L 217.501923 177.76337 
L 220.813333 214.357954 
L 224.124744 228.145186 
L 227.436154 193.693285 
L 230.747564 227.455824 
L 234.058974 165.896579 
L 237.370385 158.949854 
L 240.681795 165.495071 
L 243.993205 189.83304 
L 247.304615 147.758615 
L 250.616026 97.17817 
L 253.927436 39.517163 
L 257.238846 119.280582 
L 260.550256 132.843869 
L 263.861667 50.295741 
L 267.173077 162.355944 
L 270.484487 225.855103 
L 273.795897 252.245578 
L 277.107308 259.996028 
L 280.418718 162.901202 
L 283.730128 93.848203 
L 287.041538 124.606582 
L 290.352949 93.147157 
L 293.664359 118.20954 
L 296.975769 162.646276 
L 300.287179 99.982353 
L 303.59859 128.549964 
L 306.91 173.161961 
L 310.22141 143.739287 
L 313.532821 190.767767 
L 316.844231 184.633618 
L 320.155641 208.619395 
L 323.467051 239.150228 
L 326.778462 253.881351 
L 330.089872 277.385008 
L 333.401282 290.829055 
L 336.712692 291.219523 
L 340.024103 292.469465 
L 343.335513 290.205903 
L 346.646923 296.901075 
L 349.958333 289.035496 
L 353.269744 300.025736 
L 356.581154 299.000758 
L 359.892564 291.322383 
L 363.203974 294.957435 
L 366.515385 295.073349 
L 369.826795 296.525515 
L 373.138205 292.542722 
L 376.449615 292.620616 
L 379.761026 293.070361 
L 383.072436 298.833958 
L 386.383846 296.95115 
L 389.695256 293.395846 
L 393.006667 295.749357 
L 396.318077 293.347626 
L 399.629487 289.846552 
L 402.940897 289.251203 
L 406.252308 287.417699 
L 409.563718 279.891704 
L 412.875128 288.57013 
L 416.186538 290.829055 
L 419.497949 288.199634 
L 422.809359 282.57554 
L 426.120769 288.199634 
L 429.432179 281.085818 
L 432.74359 279.457665 
L 436.055 283.705392 
L 439.36641 274.062661 
L 442.677821 270.957833 
L 445.989231 271.045117 
L 449.300641 240.098702 
L 452.612051 220.211686 
L 455.923462 253.253618 
L 459.234872 217.798471 
L 462.546282 204.262897 
L 465.857692 188.197267 
L 469.169103 208.037758 
L 472.480513 158.41451 
L 475.791923 206.366034 
L 479.103333 167.049055 
L 482.414744 180.310503 
L 485.726154 149.090602 
L 489.037564 175.461604 
L 492.348974 198.007412 
L 495.660385 165.322996 
L 498.971795 176.348533 
L 502.283205 157.853673 
L 505.594615 132.545924 
L 508.906026 153.717504 
L 512.217436 182.41364 
L 515.528846 158.461246 
L 518.840256 144.206651 
L 522.151667 138.208815 
L 525.463077 161.562842 
L 528.774487 140.85721 
L 532.085897 158.772822 
L 535.397308 135.482527 
L 538.708718 104.276258 
L 542.020128 70.713696 
L 545.331538 176.162649 
L 548.642949 145.920318 
L 551.954359 178.966832 
L 551.954359 178.966832 
" clip-path="url(#pe6dab75ece)" style="fill: none; stroke: #008000; stroke-opacity: 0.2; stroke-linecap: round"/>
   </g>
   <g id="line2d_34">
    <path d="M 58.554231 39.517163 
L 65.177051 61.196895 
L 71.799872 81.595354 
L 78.422692 100.788264 
L 85.045513 118.846873 
L 91.668333 135.838218 
L 98.291154 151.825375 
L 104.913974 166.867691 
L 111.536795 181.021006 
L 118.159615 194.33786 
L 124.782436 206.867688 
L 131.405256 218.657003 
L 138.028077 229.74957 
L 144.650897 240.186566 
L 151.273718 250.006736 
L 157.896538 259.246533 
L 164.519359 267.940258 
L 167.830769 258.666907 
L 171.142179 237.051694 
L 174.45359 229.498453 
L 181.07641 239.95029 
L 184.387821 233.413218 
L 191.010641 243.633692 
L 197.633462 253.250136 
L 204.256282 262.298249 
L 210.879103 270.811618 
L 217.501923 278.821847 
L 224.124744 286.358671 
L 230.747564 293.450069 
L 234.058974 296.837022 
L 237.370385 278.877142 
L 240.681795 272.397348 
L 247.304615 280.313861 
L 253.927436 287.762507 
L 257.238846 291.320086 
L 260.550256 286.18805 
L 267.173077 293.289532 
L 273.795897 299.971316 
L 280.418718 306.258207 
L 283.730128 309.260915 
L 287.041538 305.446761 
L 293.664359 311.410053 
L 300.287179 317.020914 
L 303.59859 302.371192 
L 306.91 297.08568 
L 313.532821 303.543112 
L 320.155641 309.618909 
L 326.778462 315.335627 
L 333.401282 320.714487 
L 336.712692 316.893894 
L 343.335513 322.18066 
L 349.958333 327.154979 
L 356.581154 331.835315 
L 363.203974 336.239043 
L 369.826795 340.382511 
L 373.138205 343.732641 
L 376.449615 346.741629 
L 379.761026 349.461943 
L 383.072436 351.937062 
L 386.383846 354.203052 
L 389.695256 356.289857 
L 393.006667 358.22237 
L 396.318077 361.683108 
L 399.629487 359.312901 
L 402.940897 362.095094 
L 406.252308 364.55319 
L 409.563718 366.739141 
L 412.875128 363.939122 
L 416.186538 365.845039 
L 419.497949 367.582576 
L 422.809359 369.116997 
L 429.432179 371.813566 
L 436.055 374.182633 
L 439.36641 371.540043 
L 445.989231 373.76839 
L 452.612051 375.665987 
L 455.923462 376.334571 
L 465.857692 378.912884 
L 475.791923 381.26604 
L 479.103333 378.123751 
L 489.037564 380.54582 
L 498.971795 382.74623 
L 508.906026 384.72192 
L 518.840256 386.525078 
L 522.151667 386.86789 
L 535.397308 389.04635 
L 542.020128 390.04 
L 545.331538 387.349626 
L 551.954359 388.443552 
L 551.954359 388.443552 
" clip-path="url(#pe6dab75ece)" style="fill: none; stroke: #ff0000; stroke-linecap: round"/>
   </g>
   <g id="line2d_35">
    <path d="M 58.554231 39.517163 
L 61.865641 39.665134 
L 65.177051 41.386574 
L 68.488462 48.746335 
L 71.799872 61.386022 
L 78.422692 92.570411 
L 81.734103 101.134192 
L 85.045513 118.893504 
L 88.356923 133.617708 
L 91.668333 143.823322 
L 94.979744 147.946349 
L 98.291154 156.476651 
L 101.602564 158.970109 
L 104.913974 169.517549 
L 108.225385 175.366227 
L 111.536795 180.334873 
L 114.848205 183.317524 
L 118.159615 194.655977 
L 121.471026 203.449457 
L 124.782436 197.805927 
L 128.093846 211.760402 
L 131.405256 216.091933 
L 134.716667 221.684495 
L 138.028077 220.756898 
L 141.339487 226.585838 
L 144.650897 221.919089 
L 147.962308 222.88216 
L 151.273718 225.648972 
L 154.585128 229.576248 
L 157.896538 231.107317 
L 161.207949 239.51207 
L 164.519359 236.289172 
L 167.830769 244.028819 
L 171.142179 245.711225 
L 177.765 254.289376 
L 181.07641 259.771882 
L 184.387821 259.515805 
L 187.699231 265.6491 
L 191.010641 264.877599 
L 194.322051 274.600851 
L 197.633462 270.735192 
L 200.944872 282.996633 
L 204.256282 280.362492 
L 207.567692 287.323437 
L 210.879103 290.283823 
L 214.190513 290.798039 
L 217.501923 287.60769 
L 220.813333 290.312981 
L 224.124744 290.574285 
L 227.436154 293.490609 
L 230.747564 293.073339 
L 234.058974 291.687618 
L 237.370385 302.302449 
L 240.681795 306.383035 
L 243.993205 316.323121 
L 247.304615 320.796214 
L 250.616026 327.894655 
L 253.927436 329.486516 
L 257.238846 329.58235 
L 260.550256 335.117991 
L 263.861667 337.655003 
L 267.173077 338.27377 
L 270.484487 335.010448 
L 273.795897 336.964128 
L 280.418718 351.710502 
L 283.730128 356.915582 
L 287.041538 359.032155 
L 290.352949 356.829592 
L 293.664359 360.629356 
L 296.975769 362.826795 
L 300.287179 363.423465 
L 303.59859 355.01015 
L 306.91 360.836286 
L 310.22141 357.253759 
L 316.844231 345.784542 
L 320.155641 339.501926 
L 323.467051 344.019496 
L 326.778462 350.22362 
L 330.089872 353.068223 
L 333.401282 350.366147 
L 336.712692 356.098286 
L 340.024103 363.154658 
L 343.335513 359.77141 
L 346.646923 364.876209 
L 349.958333 368.601439 
L 353.269744 366.774845 
L 356.581154 374.981404 
L 359.892564 375.202614 
L 363.203974 372.792567 
L 366.515385 379.241022 
L 369.826795 376.440269 
L 373.138205 383.363328 
L 376.449615 376.539808 
L 379.761026 374.942893 
L 383.072436 384.130899 
L 386.383846 386.040469 
L 389.695256 390.04 
L 393.006667 387.531857 
L 396.318077 385.723626 
L 399.629487 373.675005 
L 402.940897 382.130368 
L 406.252308 377.829657 
L 409.563718 375.174742 
L 412.875128 372.241775 
L 416.186538 380.830849 
L 419.497949 382.585019 
L 422.809359 382.403325 
L 426.120769 384.832584 
L 429.432179 381.297065 
L 432.74359 371.221722 
L 436.055 376.203199 
L 439.36641 374.325881 
L 442.677821 370.03937 
L 445.989231 360.529927 
L 449.300641 357.641998 
L 452.612051 358.844058 
L 455.923462 365.577981 
L 459.234872 364.740869 
L 462.546282 361.189052 
L 465.857692 356.465727 
L 469.169103 355.899684 
L 472.480513 352.563651 
L 475.791923 345.713643 
L 479.103333 347.821163 
L 482.414744 344.881626 
L 485.726154 342.647309 
L 489.037564 338.603234 
L 492.348974 336.538535 
L 495.660385 327.608544 
L 502.283205 341.012042 
L 505.594615 338.680549 
L 508.906026 344.87265 
L 512.217436 342.415392 
L 515.528846 314.301698 
L 518.840256 328.21052 
L 522.151667 333.960058 
L 525.463077 348.861755 
L 528.774487 344.870236 
L 532.085897 353.427357 
L 535.397308 331.282853 
L 538.708718 343.310537 
L 542.020128 333.958889 
L 545.331538 345.646445 
L 548.642949 331.737413 
L 551.954359 335.48782 
L 551.954359 335.48782 
" clip-path="url(#pe6dab75ece)" style="fill: none; stroke: #800080; stroke-linecap: round"/>
   </g>
   <g id="patch_3">
    <path d="M 48.62 390.04 
L 48.62 25.49625 
" style="fill: none; stroke: #ffffff; stroke-width: 0.8; stroke-linejoin: miter; stroke-linecap: square"/>
   </g>
   <g id="patch_4">
    <path d="M 565.2 390.04 
L 565.2 25.49625 
" style="fill: none; stroke: #ffffff; stroke-width: 0.8; stroke-linejoin: miter; stroke-linecap: square"/>
   </g>
   <g id="patch_5">
    <path d="M 48.62 390.04 
L 565.2 390.04 
" style="fill: none; stroke: #ffffff; stroke-width: 0.8; stroke-linejoin: miter; stroke-linecap: square"/>
   </g>
   <g id="patch_6">
    <path d="M 48.62 25.49625 
L 565.2 25.49625 
" style="fill: none; stroke: #ffffff; stroke-width: 0.8; stroke-linejoin: miter; stroke-linecap: square"/>
   </g>
   <g id="text_30">
    <!-- cartpole_GNN_K_noise_entropy_mlp -->
    <g style="fill: #262626" transform="translate(207.526562 19.49625) scale(0.12 -0.12)">
     <defs>
      <path id="ArialMT-63" d="M 2588 1216 
L 3141 1144 
Q 3050 572 2676 248 
Q 2303 -75 1759 -75 
Q 1078 -75 664 370 
Q 250 816 250 1647 
Q 250 2184 428 2587 
Q 606 2991 970 3192 
Q 1334 3394 1763 3394 
Q 2303 3394 2647 3120 
Q 2991 2847 3088 2344 
L 2541 2259 
Q 2463 2594 2264 2762 
Q 2066 2931 1784 2931 
Q 1359 2931 1093 2626 
Q 828 2322 828 1663 
Q 828 994 1084 691 
Q 1341 388 1753 388 
Q 2084 388 2306 591 
Q 2528 794 2588 1216 
z
" transform="scale(0.015625)"/>
      <path id="ArialMT-74" d="M 1650 503 
L 1731 6 
Q 1494 -44 1306 -44 
Q 1000 -44 831 53 
Q 663 150 594 308 
Q 525 466 525 972 
L 525 2881 
L 113 2881 
L 113 3319 
L 525 3319 
L 525 4141 
L 1084 4478 
L 1084 3319 
L 1650 3319 
L 1650 2881 
L 1084 2881 
L 1084 941 
Q 1084 700 1114 631 
Q 1144 563 1211 522 
Q 1278 481 1403 481 
Q 1497 481 1650 503 
z
" transform="scale(0.015625)"/>
      <path id="ArialMT-6c" d="M 409 0 
L 409 4581 
L 972 4581 
L 972 0 
L 409 0 
z
" transform="scale(0.015625)"/>
      <path id="ArialMT-5f" d="M -97 -1272 
L -97 -866 
L 3631 -866 
L 3631 -1272 
L -97 -1272 
z
" transform="scale(0.015625)"/>
      <path id="ArialMT-47" d="M 2638 1797 
L 2638 2334 
L 4578 2338 
L 4578 638 
Q 4131 281 3656 101 
Q 3181 -78 2681 -78 
Q 2006 -78 1454 211 
Q 903 500 622 1047 
Q 341 1594 341 2269 
Q 341 2938 620 3517 
Q 900 4097 1425 4378 
Q 1950 4659 2634 4659 
Q 3131 4659 3532 4498 
Q 3934 4338 4162 4050 
Q 4391 3763 4509 3300 
L 3963 3150 
Q 3859 3500 3706 3700 
Q 3553 3900 3268 4020 
Q 2984 4141 2638 4141 
Q 2222 4141 1919 4014 
Q 1616 3888 1430 3681 
Q 1244 3475 1141 3228 
Q 966 2803 966 2306 
Q 966 1694 1177 1281 
Q 1388 869 1791 669 
Q 2194 469 2647 469 
Q 3041 469 3416 620 
Q 3791 772 3984 944 
L 3984 1797 
L 2638 1797 
z
" transform="scale(0.015625)"/>
      <path id="ArialMT-4e" d="M 488 0 
L 488 4581 
L 1109 4581 
L 3516 984 
L 3516 4581 
L 4097 4581 
L 4097 0 
L 3475 0 
L 1069 3600 
L 1069 0 
L 488 0 
z
" transform="scale(0.015625)"/>
      <path id="ArialMT-4b" d="M 469 0 
L 469 4581 
L 1075 4581 
L 1075 2309 
L 3350 4581 
L 4172 4581 
L 2250 2725 
L 4256 0 
L 3456 0 
L 1825 2319 
L 1075 1588 
L 1075 0 
L 469 0 
z
" transform="scale(0.015625)"/>
      <path id="ArialMT-6e" d="M 422 0 
L 422 3319 
L 928 3319 
L 928 2847 
Q 1294 3394 1984 3394 
Q 2284 3394 2536 3286 
Q 2788 3178 2913 3003 
Q 3038 2828 3088 2588 
Q 3119 2431 3119 2041 
L 3119 0 
L 2556 0 
L 2556 2019 
Q 2556 2363 2490 2533 
Q 2425 2703 2258 2804 
Q 2091 2906 1866 2906 
Q 1506 2906 1245 2678 
Q 984 2450 984 1813 
L 984 0 
L 422 0 
z
" transform="scale(0.015625)"/>
      <path id="ArialMT-79" d="M 397 -1278 
L 334 -750 
Q 519 -800 656 -800 
Q 844 -800 956 -737 
Q 1069 -675 1141 -563 
Q 1194 -478 1313 -144 
Q 1328 -97 1363 -6 
L 103 3319 
L 709 3319 
L 1400 1397 
Q 1534 1031 1641 628 
Q 1738 1016 1872 1384 
L 2581 3319 
L 3144 3319 
L 1881 -56 
Q 1678 -603 1566 -809 
Q 1416 -1088 1222 -1217 
Q 1028 -1347 759 -1347 
Q 597 -1347 397 -1278 
z
" transform="scale(0.015625)"/>
      <path id="ArialMT-6d" d="M 422 0 
L 422 3319 
L 925 3319 
L 925 2853 
Q 1081 3097 1340 3245 
Q 1600 3394 1931 3394 
Q 2300 3394 2536 3241 
Q 2772 3088 2869 2813 
Q 3263 3394 3894 3394 
Q 4388 3394 4653 3120 
Q 4919 2847 4919 2278 
L 4919 0 
L 4359 0 
L 4359 2091 
Q 4359 2428 4304 2576 
Q 4250 2725 4106 2815 
Q 3963 2906 3769 2906 
Q 3419 2906 3187 2673 
Q 2956 2441 2956 1928 
L 2956 0 
L 2394 0 
L 2394 2156 
Q 2394 2531 2256 2718 
Q 2119 2906 1806 2906 
Q 1569 2906 1367 2781 
Q 1166 2656 1075 2415 
Q 984 2175 984 1722 
L 984 0 
L 422 0 
z
" transform="scale(0.015625)"/>
     </defs>
     <use xlink:href="#ArialMT-63"/>
     <use xlink:href="#ArialMT-61" transform="translate(50 0)"/>
     <use xlink:href="#ArialMT-72" transform="translate(105.615234 0)"/>
     <use xlink:href="#ArialMT-74" transform="translate(138.916016 0)"/>
     <use xlink:href="#ArialMT-70" transform="translate(166.699219 0)"/>
     <use xlink:href="#ArialMT-6f" transform="translate(222.314453 0)"/>
     <use xlink:href="#ArialMT-6c" transform="translate(277.929688 0)"/>
     <use xlink:href="#ArialMT-65" transform="translate(300.146484 0)"/>
     <use xlink:href="#ArialMT-5f" transform="translate(355.761719 0)"/>
     <use xlink:href="#ArialMT-47" transform="translate(411.376953 0)"/>
     <use xlink:href="#ArialMT-4e" transform="translate(489.160156 0)"/>
     <use xlink:href="#ArialMT-4e" transform="translate(561.376953 0)"/>
     <use xlink:href="#ArialMT-5f" transform="translate(633.59375 0)"/>
     <use xlink:href="#ArialMT-4b" transform="translate(689.208984 0)"/>
     <use xlink:href="#ArialMT-5f" transform="translate(755.908203 0)"/>
     <use xlink:href="#ArialMT-6e" transform="translate(811.523438 0)"/>
     <use xlink:href="#ArialMT-6f" transform="translate(867.138672 0)"/>
     <use xlink:href="#ArialMT-69" transform="translate(922.753906 0)"/>
     <use xlink:href="#ArialMT-73" transform="translate(944.970703 0)"/>
     <use xlink:href="#ArialMT-65" transform="translate(994.970703 0)"/>
     <use xlink:href="#ArialMT-5f" transform="translate(1050.585938 0)"/>
     <use xlink:href="#ArialMT-65" transform="translate(1106.201172 0)"/>
     <use xlink:href="#ArialMT-6e" transform="translate(1161.816406 0)"/>
     <use xlink:href="#ArialMT-74" transform="translate(1217.431641 0)"/>
     <use xlink:href="#ArialMT-72" transform="translate(1245.214844 0)"/>
     <use xlink:href="#ArialMT-6f" transform="translate(1278.515625 0)"/>
     <use xlink:href="#ArialMT-70" transform="translate(1334.130859 0)"/>
     <use xlink:href="#ArialMT-79" transform="translate(1389.746094 0)"/>
     <use xlink:href="#ArialMT-5f" transform="translate(1439.746094 0)"/>
     <use xlink:href="#ArialMT-6d" transform="translate(1495.361328 0)"/>
     <use xlink:href="#ArialMT-6c" transform="translate(1578.662109 0)"/>
     <use xlink:href="#ArialMT-70" transform="translate(1600.878906 0)"/>
    </g>
   </g>
   <g id="legend_1">
    <g id="patch_7">
     <path d="M 55.62 385.04 
L 209.902813 385.04 
Q 211.902813 385.04 211.902813 383.04 
L 211.902813 312.59625 
Q 211.902813 310.59625 209.902813 310.59625 
L 55.62 310.59625 
Q 53.62 310.59625 53.62 312.59625 
L 53.62 383.04 
Q 53.62 385.04 55.62 385.04 
z
" style="fill: #eaeaf2; opacity: 0.8; stroke: #cccccc; stroke-linejoin: miter"/>
    </g>
    <g id="line2d_36">
     <path d="M 57.62 318.254062 
L 67.62 318.254062 
L 77.62 318.254062 
" style="fill: none; stroke: #0000ff; stroke-width: 1.5; stroke-linecap: round"/>
    </g>
    <g id="text_31">
     <!-- Mean Reward -->
     <g style="fill: #262626" transform="translate(85.62 321.754062) scale(0.1 -0.1)">
      <defs>
       <path id="ArialMT-4d" d="M 475 0 
L 475 4581 
L 1388 4581 
L 2472 1338 
Q 2622 884 2691 659 
Q 2769 909 2934 1394 
L 4031 4581 
L 4847 4581 
L 4847 0 
L 4263 0 
L 4263 3834 
L 2931 0 
L 2384 0 
L 1059 3900 
L 1059 0 
L 475 0 
z
" transform="scale(0.015625)"/>
       <path id="ArialMT-20" transform="scale(0.015625)"/>
      </defs>
      <use xlink:href="#ArialMT-4d"/>
      <use xlink:href="#ArialMT-65" transform="translate(83.300781 0)"/>
      <use xlink:href="#ArialMT-61" transform="translate(138.916016 0)"/>
      <use xlink:href="#ArialMT-6e" transform="translate(194.53125 0)"/>
      <use xlink:href="#ArialMT-20" transform="translate(250.146484 0)"/>
      <use xlink:href="#ArialMT-52" transform="translate(277.929688 0)"/>
      <use xlink:href="#ArialMT-65" transform="translate(350.146484 0)"/>
      <use xlink:href="#ArialMT-77" transform="translate(405.761719 0)"/>
      <use xlink:href="#ArialMT-61" transform="translate(477.978516 0)"/>
      <use xlink:href="#ArialMT-72" transform="translate(533.59375 0)"/>
      <use xlink:href="#ArialMT-64" transform="translate(566.894531 0)"/>
     </g>
    </g>
    <g id="line2d_37">
     <path d="M 57.62 332.52125 
L 67.62 332.52125 
L 77.62 332.52125 
" style="fill: none; stroke: #008000; stroke-opacity: 0.2; stroke-linecap: round"/>
    </g>
    <g id="text_32">
     <!-- Reward (individual runs) -->
     <g style="fill: #262626" transform="translate(85.62 336.02125) scale(0.1 -0.1)">
      <defs>
       <path id="ArialMT-28" d="M 1497 -1347 
Q 1031 -759 709 28 
Q 388 816 388 1659 
Q 388 2403 628 3084 
Q 909 3875 1497 4659 
L 1900 4659 
Q 1522 4009 1400 3731 
Q 1209 3300 1100 2831 
Q 966 2247 966 1656 
Q 966 153 1900 -1347 
L 1497 -1347 
z
" transform="scale(0.015625)"/>
       <path id="ArialMT-76" d="M 1344 0 
L 81 3319 
L 675 3319 
L 1388 1331 
Q 1503 1009 1600 663 
Q 1675 925 1809 1294 
L 2547 3319 
L 3125 3319 
L 1869 0 
L 1344 0 
z
" transform="scale(0.015625)"/>
       <path id="ArialMT-75" d="M 2597 0 
L 2597 488 
Q 2209 -75 1544 -75 
Q 1250 -75 995 37 
Q 741 150 617 320 
Q 494 491 444 738 
Q 409 903 409 1263 
L 409 3319 
L 972 3319 
L 972 1478 
Q 972 1038 1006 884 
Q 1059 663 1231 536 
Q 1403 409 1656 409 
Q 1909 409 2131 539 
Q 2353 669 2445 892 
Q 2538 1116 2538 1541 
L 2538 3319 
L 3100 3319 
L 3100 0 
L 2597 0 
z
" transform="scale(0.015625)"/>
       <path id="ArialMT-29" d="M 791 -1347 
L 388 -1347 
Q 1322 153 1322 1656 
Q 1322 2244 1188 2822 
Q 1081 3291 891 3722 
Q 769 4003 388 4659 
L 791 4659 
Q 1378 3875 1659 3084 
Q 1900 2403 1900 1659 
Q 1900 816 1576 28 
Q 1253 -759 791 -1347 
z
" transform="scale(0.015625)"/>
      </defs>
      <use xlink:href="#ArialMT-52"/>
      <use xlink:href="#ArialMT-65" transform="translate(72.216797 0)"/>
      <use xlink:href="#ArialMT-77" transform="translate(127.832031 0)"/>
      <use xlink:href="#ArialMT-61" transform="translate(200.048828 0)"/>
      <use xlink:href="#ArialMT-72" transform="translate(255.664062 0)"/>
      <use xlink:href="#ArialMT-64" transform="translate(288.964844 0)"/>
      <use xlink:href="#ArialMT-20" transform="translate(344.580078 0)"/>
      <use xlink:href="#ArialMT-28" transform="translate(372.363281 0)"/>
      <use xlink:href="#ArialMT-69" transform="translate(405.664062 0)"/>
      <use xlink:href="#ArialMT-6e" transform="translate(427.880859 0)"/>
      <use xlink:href="#ArialMT-64" transform="translate(483.496094 0)"/>
      <use xlink:href="#ArialMT-69" transform="translate(539.111328 0)"/>
      <use xlink:href="#ArialMT-76" transform="translate(561.328125 0)"/>
      <use xlink:href="#ArialMT-69" transform="translate(611.328125 0)"/>
      <use xlink:href="#ArialMT-64" transform="translate(633.544922 0)"/>
      <use xlink:href="#ArialMT-75" transform="translate(689.160156 0)"/>
      <use xlink:href="#ArialMT-61" transform="translate(744.775391 0)"/>
      <use xlink:href="#ArialMT-6c" transform="translate(800.390625 0)"/>
      <use xlink:href="#ArialMT-20" transform="translate(822.607422 0)"/>
      <use xlink:href="#ArialMT-72" transform="translate(850.390625 0)"/>
      <use xlink:href="#ArialMT-75" transform="translate(883.691406 0)"/>
      <use xlink:href="#ArialMT-6e" transform="translate(939.306641 0)"/>
      <use xlink:href="#ArialMT-73" transform="translate(994.921875 0)"/>
      <use xlink:href="#ArialMT-29" transform="translate(1044.921875 0)"/>
     </g>
    </g>
    <g id="line2d_38">
     <path d="M 57.62 346.905625 
L 67.62 346.905625 
L 77.62 346.905625 
" style="fill: none; stroke: #ff0000; stroke-linecap: round"/>
    </g>
    <g id="text_33">
     <!-- Noise std (normalized) -->
     <g style="fill: #262626" transform="translate(85.62 350.405625) scale(0.1 -0.1)">
      <defs>
       <path id="ArialMT-7a" d="M 125 0 
L 125 456 
L 2238 2881 
Q 1878 2863 1603 2863 
L 250 2863 
L 250 3319 
L 2963 3319 
L 2963 2947 
L 1166 841 
L 819 456 
Q 1197 484 1528 484 
L 3063 484 
L 3063 0 
L 125 0 
z
" transform="scale(0.015625)"/>
      </defs>
      <use xlink:href="#ArialMT-4e"/>
      <use xlink:href="#ArialMT-6f" transform="translate(72.216797 0)"/>
      <use xlink:href="#ArialMT-69" transform="translate(127.832031 0)"/>
      <use xlink:href="#ArialMT-73" transform="translate(150.048828 0)"/>
      <use xlink:href="#ArialMT-65" transform="translate(200.048828 0)"/>
      <use xlink:href="#ArialMT-20" transform="translate(255.664062 0)"/>
      <use xlink:href="#ArialMT-73" transform="translate(283.447266 0)"/>
      <use xlink:href="#ArialMT-74" transform="translate(333.447266 0)"/>
      <use xlink:href="#ArialMT-64" transform="translate(361.230469 0)"/>
      <use xlink:href="#ArialMT-20" transform="translate(416.845703 0)"/>
      <use xlink:href="#ArialMT-28" transform="translate(444.628906 0)"/>
      <use xlink:href="#ArialMT-6e" transform="translate(477.929688 0)"/>
      <use xlink:href="#ArialMT-6f" transform="translate(533.544922 0)"/>
      <use xlink:href="#ArialMT-72" transform="translate(589.160156 0)"/>
      <use xlink:href="#ArialMT-6d" transform="translate(622.460938 0)"/>
      <use xlink:href="#ArialMT-61" transform="translate(705.761719 0)"/>
      <use xlink:href="#ArialMT-6c" transform="translate(761.376953 0)"/>
      <use xlink:href="#ArialMT-69" transform="translate(783.59375 0)"/>
      <use xlink:href="#ArialMT-7a" transform="translate(805.810547 0)"/>
      <use xlink:href="#ArialMT-65" transform="translate(855.810547 0)"/>
      <use xlink:href="#ArialMT-64" transform="translate(911.425781 0)"/>
      <use xlink:href="#ArialMT-29" transform="translate(967.041016 0)"/>
     </g>
    </g>
    <g id="line2d_39">
     <path d="M 57.62 361.29 
L 67.62 361.29 
L 77.62 361.29 
" style="fill: none; stroke: #800080; stroke-linecap: round"/>
    </g>
    <g id="text_34">
     <!-- Entropy (normalized) -->
     <g style="fill: #262626" transform="translate(85.62 364.79) scale(0.1 -0.1)">
      <use xlink:href="#ArialMT-45"/>
      <use xlink:href="#ArialMT-6e" transform="translate(66.699219 0)"/>
      <use xlink:href="#ArialMT-74" transform="translate(122.314453 0)"/>
      <use xlink:href="#ArialMT-72" transform="translate(150.097656 0)"/>
      <use xlink:href="#ArialMT-6f" transform="translate(183.398438 0)"/>
      <use xlink:href="#ArialMT-70" transform="translate(239.013672 0)"/>
      <use xlink:href="#ArialMT-79" transform="translate(294.628906 0)"/>
      <use xlink:href="#ArialMT-20" transform="translate(344.628906 0)"/>
      <use xlink:href="#ArialMT-28" transform="translate(372.412109 0)"/>
      <use xlink:href="#ArialMT-6e" transform="translate(405.712891 0)"/>
      <use xlink:href="#ArialMT-6f" transform="translate(461.328125 0)"/>
      <use xlink:href="#ArialMT-72" transform="translate(516.943359 0)"/>
      <use xlink:href="#ArialMT-6d" transform="translate(550.244141 0)"/>
      <use xlink:href="#ArialMT-61" transform="translate(633.544922 0)"/>
      <use xlink:href="#ArialMT-6c" transform="translate(689.160156 0)"/>
      <use xlink:href="#ArialMT-69" transform="translate(711.376953 0)"/>
      <use xlink:href="#ArialMT-7a" transform="translate(733.59375 0)"/>
      <use xlink:href="#ArialMT-65" transform="translate(783.59375 0)"/>
      <use xlink:href="#ArialMT-64" transform="translate(839.208984 0)"/>
      <use xlink:href="#ArialMT-29" transform="translate(894.824219 0)"/>
     </g>
    </g>
    <g id="patch_8">
     <path d="M 57.62 379.0525 
L 77.62 379.0525 
L 77.62 372.0525 
L 57.62 372.0525 
z
" style="fill: #0000ff; fill-opacity: 0.1"/>
    </g>
    <g id="text_35">
     <!-- Reward Standard Deviation -->
     <g style="fill: #262626" transform="translate(85.62 379.0525) scale(0.1 -0.1)">
      <defs>
       <path id="ArialMT-53" d="M 288 1472 
L 859 1522 
Q 900 1178 1048 958 
Q 1197 738 1509 602 
Q 1822 466 2213 466 
Q 2559 466 2825 569 
Q 3091 672 3220 851 
Q 3350 1031 3350 1244 
Q 3350 1459 3225 1620 
Q 3100 1781 2813 1891 
Q 2628 1963 1997 2114 
Q 1366 2266 1113 2400 
Q 784 2572 623 2826 
Q 463 3081 463 3397 
Q 463 3744 659 4045 
Q 856 4347 1234 4503 
Q 1613 4659 2075 4659 
Q 2584 4659 2973 4495 
Q 3363 4331 3572 4012 
Q 3781 3694 3797 3291 
L 3216 3247 
Q 3169 3681 2898 3903 
Q 2628 4125 2100 4125 
Q 1550 4125 1298 3923 
Q 1047 3722 1047 3438 
Q 1047 3191 1225 3031 
Q 1400 2872 2139 2705 
Q 2878 2538 3153 2413 
Q 3553 2228 3743 1945 
Q 3934 1663 3934 1294 
Q 3934 928 3725 604 
Q 3516 281 3123 101 
Q 2731 -78 2241 -78 
Q 1619 -78 1198 103 
Q 778 284 539 648 
Q 300 1013 288 1472 
z
" transform="scale(0.015625)"/>
       <path id="ArialMT-44" d="M 494 0 
L 494 4581 
L 2072 4581 
Q 2606 4581 2888 4516 
Q 3281 4425 3559 4188 
Q 3922 3881 4101 3404 
Q 4281 2928 4281 2316 
Q 4281 1794 4159 1391 
Q 4038 988 3847 723 
Q 3656 459 3429 307 
Q 3203 156 2883 78 
Q 2563 0 2147 0 
L 494 0 
z
M 1100 541 
L 2078 541 
Q 2531 541 2789 625 
Q 3047 709 3200 863 
Q 3416 1078 3536 1442 
Q 3656 1806 3656 2325 
Q 3656 3044 3420 3430 
Q 3184 3816 2847 3947 
Q 2603 4041 2063 4041 
L 1100 4041 
L 1100 541 
z
" transform="scale(0.015625)"/>
      </defs>
      <use xlink:href="#ArialMT-52"/>
      <use xlink:href="#ArialMT-65" transform="translate(72.216797 0)"/>
      <use xlink:href="#ArialMT-77" transform="translate(127.832031 0)"/>
      <use xlink:href="#ArialMT-61" transform="translate(200.048828 0)"/>
      <use xlink:href="#ArialMT-72" transform="translate(255.664062 0)"/>
      <use xlink:href="#ArialMT-64" transform="translate(288.964844 0)"/>
      <use xlink:href="#ArialMT-20" transform="translate(344.580078 0)"/>
      <use xlink:href="#ArialMT-53" transform="translate(372.363281 0)"/>
      <use xlink:href="#ArialMT-74" transform="translate(439.0625 0)"/>
      <use xlink:href="#ArialMT-61" transform="translate(466.845703 0)"/>
      <use xlink:href="#ArialMT-6e" transform="translate(522.460938 0)"/>
      <use xlink:href="#ArialMT-64" transform="translate(578.076172 0)"/>
      <use xlink:href="#ArialMT-61" transform="translate(633.691406 0)"/>
      <use xlink:href="#ArialMT-72" transform="translate(689.306641 0)"/>
      <use xlink:href="#ArialMT-64" transform="translate(722.607422 0)"/>
      <use xlink:href="#ArialMT-20" transform="translate(778.222656 0)"/>
      <use xlink:href="#ArialMT-44" transform="translate(806.005859 0)"/>
      <use xlink:href="#ArialMT-65" transform="translate(878.222656 0)"/>
      <use xlink:href="#ArialMT-76" transform="translate(933.837891 0)"/>
      <use xlink:href="#ArialMT-69" transform="translate(983.837891 0)"/>
      <use xlink:href="#ArialMT-61" transform="translate(1006.054688 0)"/>
      <use xlink:href="#ArialMT-74" transform="translate(1061.669922 0)"/>
      <use xlink:href="#ArialMT-69" transform="translate(1089.453125 0)"/>
      <use xlink:href="#ArialMT-6f" transform="translate(1111.669922 0)"/>
      <use xlink:href="#ArialMT-6e" transform="translate(1167.285156 0)"/>
     </g>
    </g>
   </g>
  </g>
 </g>
 <defs>
  <clipPath id="pe6dab75ece">
   <rect x="48.62" y="25.49625" width="516.58" height="364.54375"/>
  </clipPath>
 </defs>
</svg>
