<?xml version="1.0" encoding="utf-8" standalone="no"?>
<!DOCTYPE svg PUBLIC "-//W3C//DTD SVG 1.1//EN"
  "http://www.w3.org/Graphics/SVG/1.1/DTD/svg11.dtd">
<svg xmlns:xlink="http://www.w3.org/1999/xlink" width="576pt" height="432pt" viewBox="0 0 576 432" xmlns="http://www.w3.org/2000/svg" version="1.1">
 <metadata>
  <rdf:RDF xmlns:dc="http://purl.org/dc/elements/1.1/" xmlns:cc="http://creativecommons.org/ns#" xmlns:rdf="http://www.w3.org/1999/02/22-rdf-syntax-ns#">
   <cc:Work>
    <dc:type rdf:resource="http://purl.org/dc/dcmitype/StillImage"/>
    <dc:date>2025-07-07T22:28:01.730958</dc:date>
    <dc:format>image/svg+xml</dc:format>
    <dc:creator>
     <cc:Agent>
      <dc:title>Matplotlib v3.10.0, https://matplotlib.org/</dc:title>
     </cc:Agent>
    </dc:creator>
   </cc:Work>
  </rdf:RDF>
 </metadata>
 <defs>
  <style type="text/css">*{stroke-linejoin: round; stroke-linecap: butt}</style>
 </defs>
 <g id="figure_1">
  <g id="patch_1">
   <path d="M 0 432 
L 576 432 
L 576 0 
L 0 0 
z
" style="fill: #ffffff"/>
  </g>
  <g id="axes_1">
   <g id="patch_2">
    <path d="M 50.87 390.04 
L 564.289615 390.04 
L 564.289615 26.88 
L 50.87 26.88 
z
" style="fill: #eaeaf2"/>
   </g>
   <g id="matplotlib.axis_1">
    <g id="xtick_1">
     <g id="line2d_1">
      <path d="M 60.743454 390.04 
L 60.743454 26.88 
" clip-path="url(#p5db532ecd5)" style="fill: none; stroke: #ffffff; stroke-width: 0.8; stroke-linecap: round"/>
     </g>
     <g id="text_1">
      <!-- 0 -->
      <g style="fill: #262626" transform="translate(57.562204 404.638438) scale(0.1 -0.1)">
       <defs>
        <path id="DejaVuSans-30" d="M 2034 4250 
Q 1547 4250 1301 3770 
Q 1056 3291 1056 2328 
Q 1056 1369 1301 889 
Q 1547 409 2034 409 
Q 2525 409 2770 889 
Q 3016 1369 3016 2328 
Q 3016 3291 2770 3770 
Q 2525 4250 2034 4250 
z
M 2034 4750 
Q 2819 4750 3233 4129 
Q 3647 3509 3647 2328 
Q 3647 1150 3233 529 
Q 2819 -91 2034 -91 
Q 1250 -91 836 529 
Q 422 1150 422 2328 
Q 422 3509 836 4129 
Q 1250 4750 2034 4750 
z
" transform="scale(0.015625)"/>
       </defs>
       <use xlink:href="#DejaVuSans-30"/>
      </g>
     </g>
    </g>
    <g id="xtick_2">
     <g id="line2d_2">
      <path d="M 93.654968 390.04 
L 93.654968 26.88 
" clip-path="url(#p5db532ecd5)" style="fill: none; stroke: #ffffff; stroke-width: 0.8; stroke-linecap: round"/>
     </g>
     <g id="text_2">
      <!-- 10 -->
      <g style="fill: #262626" transform="translate(87.292468 404.638438) scale(0.1 -0.1)">
       <defs>
        <path id="DejaVuSans-31" d="M 794 531 
L 1825 531 
L 1825 4091 
L 703 3866 
L 703 4441 
L 1819 4666 
L 2450 4666 
L 2450 531 
L 3481 531 
L 3481 0 
L 794 0 
L 794 531 
z
" transform="scale(0.015625)"/>
       </defs>
       <use xlink:href="#DejaVuSans-31"/>
       <use xlink:href="#DejaVuSans-30" transform="translate(63.623047 0)"/>
      </g>
     </g>
    </g>
    <g id="xtick_3">
     <g id="line2d_3">
      <path d="M 126.566482 390.04 
L 126.566482 26.88 
" clip-path="url(#p5db532ecd5)" style="fill: none; stroke: #ffffff; stroke-width: 0.8; stroke-linecap: round"/>
     </g>
     <g id="text_3">
      <!-- 20 -->
      <g style="fill: #262626" transform="translate(120.203982 404.638438) scale(0.1 -0.1)">
       <defs>
        <path id="DejaVuSans-32" d="M 1228 531 
L 3431 531 
L 3431 0 
L 469 0 
L 469 531 
Q 828 903 1448 1529 
Q 2069 2156 2228 2338 
Q 2531 2678 2651 2914 
Q 2772 3150 2772 3378 
Q 2772 3750 2511 3984 
Q 2250 4219 1831 4219 
Q 1534 4219 1204 4116 
Q 875 4013 500 3803 
L 500 4441 
Q 881 4594 1212 4672 
Q 1544 4750 1819 4750 
Q 2544 4750 2975 4387 
Q 3406 4025 3406 3419 
Q 3406 3131 3298 2873 
Q 3191 2616 2906 2266 
Q 2828 2175 2409 1742 
Q 1991 1309 1228 531 
z
" transform="scale(0.015625)"/>
       </defs>
       <use xlink:href="#DejaVuSans-32"/>
       <use xlink:href="#DejaVuSans-30" transform="translate(63.623047 0)"/>
      </g>
     </g>
    </g>
    <g id="xtick_4">
     <g id="line2d_4">
      <path d="M 159.477996 390.04 
L 159.477996 26.88 
" clip-path="url(#p5db532ecd5)" style="fill: none; stroke: #ffffff; stroke-width: 0.8; stroke-linecap: round"/>
     </g>
     <g id="text_4">
      <!-- 30 -->
      <g style="fill: #262626" transform="translate(153.115496 404.638438) scale(0.1 -0.1)">
       <defs>
        <path id="DejaVuSans-33" d="M 2597 2516 
Q 3050 2419 3304 2112 
Q 3559 1806 3559 1356 
Q 3559 666 3084 287 
Q 2609 -91 1734 -91 
Q 1441 -91 1130 -33 
Q 819 25 488 141 
L 488 750 
Q 750 597 1062 519 
Q 1375 441 1716 441 
Q 2309 441 2620 675 
Q 2931 909 2931 1356 
Q 2931 1769 2642 2001 
Q 2353 2234 1838 2234 
L 1294 2234 
L 1294 2753 
L 1863 2753 
Q 2328 2753 2575 2939 
Q 2822 3125 2822 3475 
Q 2822 3834 2567 4026 
Q 2313 4219 1838 4219 
Q 1578 4219 1281 4162 
Q 984 4106 628 3988 
L 628 4550 
Q 988 4650 1302 4700 
Q 1616 4750 1894 4750 
Q 2613 4750 3031 4423 
Q 3450 4097 3450 3541 
Q 3450 3153 3228 2886 
Q 3006 2619 2597 2516 
z
" transform="scale(0.015625)"/>
       </defs>
       <use xlink:href="#DejaVuSans-33"/>
       <use xlink:href="#DejaVuSans-30" transform="translate(63.623047 0)"/>
      </g>
     </g>
    </g>
    <g id="xtick_5">
     <g id="line2d_5">
      <path d="M 192.389509 390.04 
L 192.389509 26.88 
" clip-path="url(#p5db532ecd5)" style="fill: none; stroke: #ffffff; stroke-width: 0.8; stroke-linecap: round"/>
     </g>
     <g id="text_5">
      <!-- 40 -->
      <g style="fill: #262626" transform="translate(186.027009 404.638438) scale(0.1 -0.1)">
       <defs>
        <path id="DejaVuSans-34" d="M 2419 4116 
L 825 1625 
L 2419 1625 
L 2419 4116 
z
M 2253 4666 
L 3047 4666 
L 3047 1625 
L 3713 1625 
L 3713 1100 
L 3047 1100 
L 3047 0 
L 2419 0 
L 2419 1100 
L 313 1100 
L 313 1709 
L 2253 4666 
z
" transform="scale(0.015625)"/>
       </defs>
       <use xlink:href="#DejaVuSans-34"/>
       <use xlink:href="#DejaVuSans-30" transform="translate(63.623047 0)"/>
      </g>
     </g>
    </g>
    <g id="xtick_6">
     <g id="line2d_6">
      <path d="M 225.301023 390.04 
L 225.301023 26.88 
" clip-path="url(#p5db532ecd5)" style="fill: none; stroke: #ffffff; stroke-width: 0.8; stroke-linecap: round"/>
     </g>
     <g id="text_6">
      <!-- 50 -->
      <g style="fill: #262626" transform="translate(218.938523 404.638438) scale(0.1 -0.1)">
       <defs>
        <path id="DejaVuSans-35" d="M 691 4666 
L 3169 4666 
L 3169 4134 
L 1269 4134 
L 1269 2991 
Q 1406 3038 1543 3061 
Q 1681 3084 1819 3084 
Q 2600 3084 3056 2656 
Q 3513 2228 3513 1497 
Q 3513 744 3044 326 
Q 2575 -91 1722 -91 
Q 1428 -91 1123 -41 
Q 819 9 494 109 
L 494 744 
Q 775 591 1075 516 
Q 1375 441 1709 441 
Q 2250 441 2565 725 
Q 2881 1009 2881 1497 
Q 2881 1984 2565 2268 
Q 2250 2553 1709 2553 
Q 1456 2553 1204 2497 
Q 953 2441 691 2322 
L 691 4666 
z
" transform="scale(0.015625)"/>
       </defs>
       <use xlink:href="#DejaVuSans-35"/>
       <use xlink:href="#DejaVuSans-30" transform="translate(63.623047 0)"/>
      </g>
     </g>
    </g>
    <g id="xtick_7">
     <g id="line2d_7">
      <path d="M 258.212537 390.04 
L 258.212537 26.88 
" clip-path="url(#p5db532ecd5)" style="fill: none; stroke: #ffffff; stroke-width: 0.8; stroke-linecap: round"/>
     </g>
     <g id="text_7">
      <!-- 60 -->
      <g style="fill: #262626" transform="translate(251.850037 404.638438) scale(0.1 -0.1)">
       <defs>
        <path id="DejaVuSans-36" d="M 2113 2584 
Q 1688 2584 1439 2293 
Q 1191 2003 1191 1497 
Q 1191 994 1439 701 
Q 1688 409 2113 409 
Q 2538 409 2786 701 
Q 3034 994 3034 1497 
Q 3034 2003 2786 2293 
Q 2538 2584 2113 2584 
z
M 3366 4563 
L 3366 3988 
Q 3128 4100 2886 4159 
Q 2644 4219 2406 4219 
Q 1781 4219 1451 3797 
Q 1122 3375 1075 2522 
Q 1259 2794 1537 2939 
Q 1816 3084 2150 3084 
Q 2853 3084 3261 2657 
Q 3669 2231 3669 1497 
Q 3669 778 3244 343 
Q 2819 -91 2113 -91 
Q 1303 -91 875 529 
Q 447 1150 447 2328 
Q 447 3434 972 4092 
Q 1497 4750 2381 4750 
Q 2619 4750 2861 4703 
Q 3103 4656 3366 4563 
z
" transform="scale(0.015625)"/>
       </defs>
       <use xlink:href="#DejaVuSans-36"/>
       <use xlink:href="#DejaVuSans-30" transform="translate(63.623047 0)"/>
      </g>
     </g>
    </g>
    <g id="xtick_8">
     <g id="line2d_8">
      <path d="M 291.124051 390.04 
L 291.124051 26.88 
" clip-path="url(#p5db532ecd5)" style="fill: none; stroke: #ffffff; stroke-width: 0.8; stroke-linecap: round"/>
     </g>
     <g id="text_8">
      <!-- 70 -->
      <g style="fill: #262626" transform="translate(284.761551 404.638438) scale(0.1 -0.1)">
       <defs>
        <path id="DejaVuSans-37" d="M 525 4666 
L 3525 4666 
L 3525 4397 
L 1831 0 
L 1172 0 
L 2766 4134 
L 525 4134 
L 525 4666 
z
" transform="scale(0.015625)"/>
       </defs>
       <use xlink:href="#DejaVuSans-37"/>
       <use xlink:href="#DejaVuSans-30" transform="translate(63.623047 0)"/>
      </g>
     </g>
    </g>
    <g id="xtick_9">
     <g id="line2d_9">
      <path d="M 324.035565 390.04 
L 324.035565 26.88 
" clip-path="url(#p5db532ecd5)" style="fill: none; stroke: #ffffff; stroke-width: 0.8; stroke-linecap: round"/>
     </g>
     <g id="text_9">
      <!-- 80 -->
      <g style="fill: #262626" transform="translate(317.673065 404.638438) scale(0.1 -0.1)">
       <defs>
        <path id="DejaVuSans-38" d="M 2034 2216 
Q 1584 2216 1326 1975 
Q 1069 1734 1069 1313 
Q 1069 891 1326 650 
Q 1584 409 2034 409 
Q 2484 409 2743 651 
Q 3003 894 3003 1313 
Q 3003 1734 2745 1975 
Q 2488 2216 2034 2216 
z
M 1403 2484 
Q 997 2584 770 2862 
Q 544 3141 544 3541 
Q 544 4100 942 4425 
Q 1341 4750 2034 4750 
Q 2731 4750 3128 4425 
Q 3525 4100 3525 3541 
Q 3525 3141 3298 2862 
Q 3072 2584 2669 2484 
Q 3125 2378 3379 2068 
Q 3634 1759 3634 1313 
Q 3634 634 3220 271 
Q 2806 -91 2034 -91 
Q 1263 -91 848 271 
Q 434 634 434 1313 
Q 434 1759 690 2068 
Q 947 2378 1403 2484 
z
M 1172 3481 
Q 1172 3119 1398 2916 
Q 1625 2713 2034 2713 
Q 2441 2713 2670 2916 
Q 2900 3119 2900 3481 
Q 2900 3844 2670 4047 
Q 2441 4250 2034 4250 
Q 1625 4250 1398 4047 
Q 1172 3844 1172 3481 
z
" transform="scale(0.015625)"/>
       </defs>
       <use xlink:href="#DejaVuSans-38"/>
       <use xlink:href="#DejaVuSans-30" transform="translate(63.623047 0)"/>
      </g>
     </g>
    </g>
    <g id="xtick_10">
     <g id="line2d_10">
      <path d="M 356.947078 390.04 
L 356.947078 26.88 
" clip-path="url(#p5db532ecd5)" style="fill: none; stroke: #ffffff; stroke-width: 0.8; stroke-linecap: round"/>
     </g>
     <g id="text_10">
      <!-- 90 -->
      <g style="fill: #262626" transform="translate(350.584578 404.638438) scale(0.1 -0.1)">
       <defs>
        <path id="DejaVuSans-39" d="M 703 97 
L 703 672 
Q 941 559 1184 500 
Q 1428 441 1663 441 
Q 2288 441 2617 861 
Q 2947 1281 2994 2138 
Q 2813 1869 2534 1725 
Q 2256 1581 1919 1581 
Q 1219 1581 811 2004 
Q 403 2428 403 3163 
Q 403 3881 828 4315 
Q 1253 4750 1959 4750 
Q 2769 4750 3195 4129 
Q 3622 3509 3622 2328 
Q 3622 1225 3098 567 
Q 2575 -91 1691 -91 
Q 1453 -91 1209 -44 
Q 966 3 703 97 
z
M 1959 2075 
Q 2384 2075 2632 2365 
Q 2881 2656 2881 3163 
Q 2881 3666 2632 3958 
Q 2384 4250 1959 4250 
Q 1534 4250 1286 3958 
Q 1038 3666 1038 3163 
Q 1038 2656 1286 2365 
Q 1534 2075 1959 2075 
z
" transform="scale(0.015625)"/>
       </defs>
       <use xlink:href="#DejaVuSans-39"/>
       <use xlink:href="#DejaVuSans-30" transform="translate(63.623047 0)"/>
      </g>
     </g>
    </g>
    <g id="xtick_11">
     <g id="line2d_11">
      <path d="M 389.858592 390.04 
L 389.858592 26.88 
" clip-path="url(#p5db532ecd5)" style="fill: none; stroke: #ffffff; stroke-width: 0.8; stroke-linecap: round"/>
     </g>
     <g id="text_11">
      <!-- 100 -->
      <g style="fill: #262626" transform="translate(380.314842 404.638438) scale(0.1 -0.1)">
       <use xlink:href="#DejaVuSans-31"/>
       <use xlink:href="#DejaVuSans-30" transform="translate(63.623047 0)"/>
       <use xlink:href="#DejaVuSans-30" transform="translate(127.246094 0)"/>
      </g>
     </g>
    </g>
    <g id="xtick_12">
     <g id="line2d_12">
      <path d="M 422.770106 390.04 
L 422.770106 26.88 
" clip-path="url(#p5db532ecd5)" style="fill: none; stroke: #ffffff; stroke-width: 0.8; stroke-linecap: round"/>
     </g>
     <g id="text_12">
      <!-- 110 -->
      <g style="fill: #262626" transform="translate(413.226356 404.638438) scale(0.1 -0.1)">
       <use xlink:href="#DejaVuSans-31"/>
       <use xlink:href="#DejaVuSans-31" transform="translate(63.623047 0)"/>
       <use xlink:href="#DejaVuSans-30" transform="translate(127.246094 0)"/>
      </g>
     </g>
    </g>
    <g id="xtick_13">
     <g id="line2d_13">
      <path d="M 455.68162 390.04 
L 455.68162 26.88 
" clip-path="url(#p5db532ecd5)" style="fill: none; stroke: #ffffff; stroke-width: 0.8; stroke-linecap: round"/>
     </g>
     <g id="text_13">
      <!-- 120 -->
      <g style="fill: #262626" transform="translate(446.13787 404.638438) scale(0.1 -0.1)">
       <use xlink:href="#DejaVuSans-31"/>
       <use xlink:href="#DejaVuSans-32" transform="translate(63.623047 0)"/>
       <use xlink:href="#DejaVuSans-30" transform="translate(127.246094 0)"/>
      </g>
     </g>
    </g>
    <g id="xtick_14">
     <g id="line2d_14">
      <path d="M 488.593134 390.04 
L 488.593134 26.88 
" clip-path="url(#p5db532ecd5)" style="fill: none; stroke: #ffffff; stroke-width: 0.8; stroke-linecap: round"/>
     </g>
     <g id="text_14">
      <!-- 130 -->
      <g style="fill: #262626" transform="translate(479.049384 404.638438) scale(0.1 -0.1)">
       <use xlink:href="#DejaVuSans-31"/>
       <use xlink:href="#DejaVuSans-33" transform="translate(63.623047 0)"/>
       <use xlink:href="#DejaVuSans-30" transform="translate(127.246094 0)"/>
      </g>
     </g>
    </g>
    <g id="xtick_15">
     <g id="line2d_15">
      <path d="M 521.504647 390.04 
L 521.504647 26.88 
" clip-path="url(#p5db532ecd5)" style="fill: none; stroke: #ffffff; stroke-width: 0.8; stroke-linecap: round"/>
     </g>
     <g id="text_15">
      <!-- 140 -->
      <g style="fill: #262626" transform="translate(511.960897 404.638438) scale(0.1 -0.1)">
       <use xlink:href="#DejaVuSans-31"/>
       <use xlink:href="#DejaVuSans-34" transform="translate(63.623047 0)"/>
       <use xlink:href="#DejaVuSans-30" transform="translate(127.246094 0)"/>
      </g>
     </g>
    </g>
    <g id="xtick_16">
     <g id="line2d_16">
      <path d="M 554.416161 390.04 
L 554.416161 26.88 
" clip-path="url(#p5db532ecd5)" style="fill: none; stroke: #ffffff; stroke-width: 0.8; stroke-linecap: round"/>
     </g>
     <g id="text_16">
      <!-- 150 -->
      <g style="fill: #262626" transform="translate(544.872411 404.638438) scale(0.1 -0.1)">
       <use xlink:href="#DejaVuSans-31"/>
       <use xlink:href="#DejaVuSans-35" transform="translate(63.623047 0)"/>
       <use xlink:href="#DejaVuSans-30" transform="translate(127.246094 0)"/>
      </g>
     </g>
    </g>
    <g id="text_17">
     <!-- Episode -->
     <g style="fill: #262626" transform="translate(287.942308 418.316562) scale(0.1 -0.1)">
      <defs>
       <path id="DejaVuSans-45" d="M 628 4666 
L 3578 4666 
L 3578 4134 
L 1259 4134 
L 1259 2753 
L 3481 2753 
L 3481 2222 
L 1259 2222 
L 1259 531 
L 3634 531 
L 3634 0 
L 628 0 
L 628 4666 
z
" transform="scale(0.015625)"/>
       <path id="DejaVuSans-70" d="M 1159 525 
L 1159 -1331 
L 581 -1331 
L 581 3500 
L 1159 3500 
L 1159 2969 
Q 1341 3281 1617 3432 
Q 1894 3584 2278 3584 
Q 2916 3584 3314 3078 
Q 3713 2572 3713 1747 
Q 3713 922 3314 415 
Q 2916 -91 2278 -91 
Q 1894 -91 1617 61 
Q 1341 213 1159 525 
z
M 3116 1747 
Q 3116 2381 2855 2742 
Q 2594 3103 2138 3103 
Q 1681 3103 1420 2742 
Q 1159 2381 1159 1747 
Q 1159 1113 1420 752 
Q 1681 391 2138 391 
Q 2594 391 2855 752 
Q 3116 1113 3116 1747 
z
" transform="scale(0.015625)"/>
       <path id="DejaVuSans-69" d="M 603 3500 
L 1178 3500 
L 1178 0 
L 603 0 
L 603 3500 
z
M 603 4863 
L 1178 4863 
L 1178 4134 
L 603 4134 
L 603 4863 
z
" transform="scale(0.015625)"/>
       <path id="DejaVuSans-73" d="M 2834 3397 
L 2834 2853 
Q 2591 2978 2328 3040 
Q 2066 3103 1784 3103 
Q 1356 3103 1142 2972 
Q 928 2841 928 2578 
Q 928 2378 1081 2264 
Q 1234 2150 1697 2047 
L 1894 2003 
Q 2506 1872 2764 1633 
Q 3022 1394 3022 966 
Q 3022 478 2636 193 
Q 2250 -91 1575 -91 
Q 1294 -91 989 -36 
Q 684 19 347 128 
L 347 722 
Q 666 556 975 473 
Q 1284 391 1588 391 
Q 1994 391 2212 530 
Q 2431 669 2431 922 
Q 2431 1156 2273 1281 
Q 2116 1406 1581 1522 
L 1381 1569 
Q 847 1681 609 1914 
Q 372 2147 372 2553 
Q 372 3047 722 3315 
Q 1072 3584 1716 3584 
Q 2034 3584 2315 3537 
Q 2597 3491 2834 3397 
z
" transform="scale(0.015625)"/>
       <path id="DejaVuSans-6f" d="M 1959 3097 
Q 1497 3097 1228 2736 
Q 959 2375 959 1747 
Q 959 1119 1226 758 
Q 1494 397 1959 397 
Q 2419 397 2687 759 
Q 2956 1122 2956 1747 
Q 2956 2369 2687 2733 
Q 2419 3097 1959 3097 
z
M 1959 3584 
Q 2709 3584 3137 3096 
Q 3566 2609 3566 1747 
Q 3566 888 3137 398 
Q 2709 -91 1959 -91 
Q 1206 -91 779 398 
Q 353 888 353 1747 
Q 353 2609 779 3096 
Q 1206 3584 1959 3584 
z
" transform="scale(0.015625)"/>
       <path id="DejaVuSans-64" d="M 2906 2969 
L 2906 4863 
L 3481 4863 
L 3481 0 
L 2906 0 
L 2906 525 
Q 2725 213 2448 61 
Q 2172 -91 1784 -91 
Q 1150 -91 751 415 
Q 353 922 353 1747 
Q 353 2572 751 3078 
Q 1150 3584 1784 3584 
Q 2172 3584 2448 3432 
Q 2725 3281 2906 2969 
z
M 947 1747 
Q 947 1113 1208 752 
Q 1469 391 1925 391 
Q 2381 391 2643 752 
Q 2906 1113 2906 1747 
Q 2906 2381 2643 2742 
Q 2381 3103 1925 3103 
Q 1469 3103 1208 2742 
Q 947 2381 947 1747 
z
" transform="scale(0.015625)"/>
       <path id="DejaVuSans-65" d="M 3597 1894 
L 3597 1613 
L 953 1613 
Q 991 1019 1311 708 
Q 1631 397 2203 397 
Q 2534 397 2845 478 
Q 3156 559 3463 722 
L 3463 178 
Q 3153 47 2828 -22 
Q 2503 -91 2169 -91 
Q 1331 -91 842 396 
Q 353 884 353 1716 
Q 353 2575 817 3079 
Q 1281 3584 2069 3584 
Q 2775 3584 3186 3129 
Q 3597 2675 3597 1894 
z
M 3022 2063 
Q 3016 2534 2758 2815 
Q 2500 3097 2075 3097 
Q 1594 3097 1305 2825 
Q 1016 2553 972 2059 
L 3022 2063 
z
" transform="scale(0.015625)"/>
      </defs>
      <use xlink:href="#DejaVuSans-45"/>
      <use xlink:href="#DejaVuSans-70" transform="translate(63.183594 0)"/>
      <use xlink:href="#DejaVuSans-69" transform="translate(126.660156 0)"/>
      <use xlink:href="#DejaVuSans-73" transform="translate(154.443359 0)"/>
      <use xlink:href="#DejaVuSans-6f" transform="translate(206.542969 0)"/>
      <use xlink:href="#DejaVuSans-64" transform="translate(267.724609 0)"/>
      <use xlink:href="#DejaVuSans-65" transform="translate(331.201172 0)"/>
     </g>
    </g>
   </g>
   <g id="matplotlib.axis_2">
    <g id="ytick_1">
     <g id="line2d_17">
      <path d="M 50.87 390.04 
L 564.289615 390.04 
" clip-path="url(#p5db532ecd5)" style="fill: none; stroke: #ffffff; stroke-width: 0.8; stroke-linecap: round"/>
     </g>
     <g id="text_18">
      <!-- 0 -->
      <g style="fill: #262626" transform="translate(37.5075 393.839219) scale(0.1 -0.1)">
       <use xlink:href="#DejaVuSans-30"/>
      </g>
     </g>
    </g>
    <g id="ytick_2">
     <g id="line2d_18">
      <path d="M 50.87 355.120769 
L 564.289615 355.120769 
" clip-path="url(#p5db532ecd5)" style="fill: none; stroke: #ffffff; stroke-width: 0.8; stroke-linecap: round"/>
     </g>
     <g id="text_19">
      <!-- 50 -->
      <g style="fill: #262626" transform="translate(31.145 358.919988) scale(0.1 -0.1)">
       <use xlink:href="#DejaVuSans-35"/>
       <use xlink:href="#DejaVuSans-30" transform="translate(63.623047 0)"/>
      </g>
     </g>
    </g>
    <g id="ytick_3">
     <g id="line2d_19">
      <path d="M 50.87 320.201538 
L 564.289615 320.201538 
" clip-path="url(#p5db532ecd5)" style="fill: none; stroke: #ffffff; stroke-width: 0.8; stroke-linecap: round"/>
     </g>
     <g id="text_20">
      <!-- 100 -->
      <g style="fill: #262626" transform="translate(24.7825 324.000757) scale(0.1 -0.1)">
       <use xlink:href="#DejaVuSans-31"/>
       <use xlink:href="#DejaVuSans-30" transform="translate(63.623047 0)"/>
       <use xlink:href="#DejaVuSans-30" transform="translate(127.246094 0)"/>
      </g>
     </g>
    </g>
    <g id="ytick_4">
     <g id="line2d_20">
      <path d="M 50.87 285.282308 
L 564.289615 285.282308 
" clip-path="url(#p5db532ecd5)" style="fill: none; stroke: #ffffff; stroke-width: 0.8; stroke-linecap: round"/>
     </g>
     <g id="text_21">
      <!-- 150 -->
      <g style="fill: #262626" transform="translate(24.7825 289.081526) scale(0.1 -0.1)">
       <use xlink:href="#DejaVuSans-31"/>
       <use xlink:href="#DejaVuSans-35" transform="translate(63.623047 0)"/>
       <use xlink:href="#DejaVuSans-30" transform="translate(127.246094 0)"/>
      </g>
     </g>
    </g>
    <g id="ytick_5">
     <g id="line2d_21">
      <path d="M 50.87 250.363077 
L 564.289615 250.363077 
" clip-path="url(#p5db532ecd5)" style="fill: none; stroke: #ffffff; stroke-width: 0.8; stroke-linecap: round"/>
     </g>
     <g id="text_22">
      <!-- 200 -->
      <g style="fill: #262626" transform="translate(24.7825 254.162296) scale(0.1 -0.1)">
       <use xlink:href="#DejaVuSans-32"/>
       <use xlink:href="#DejaVuSans-30" transform="translate(63.623047 0)"/>
       <use xlink:href="#DejaVuSans-30" transform="translate(127.246094 0)"/>
      </g>
     </g>
    </g>
    <g id="ytick_6">
     <g id="line2d_22">
      <path d="M 50.87 215.443846 
L 564.289615 215.443846 
" clip-path="url(#p5db532ecd5)" style="fill: none; stroke: #ffffff; stroke-width: 0.8; stroke-linecap: round"/>
     </g>
     <g id="text_23">
      <!-- 250 -->
      <g style="fill: #262626" transform="translate(24.7825 219.243065) scale(0.1 -0.1)">
       <use xlink:href="#DejaVuSans-32"/>
       <use xlink:href="#DejaVuSans-35" transform="translate(63.623047 0)"/>
       <use xlink:href="#DejaVuSans-30" transform="translate(127.246094 0)"/>
      </g>
     </g>
    </g>
    <g id="ytick_7">
     <g id="line2d_23">
      <path d="M 50.87 180.524615 
L 564.289615 180.524615 
" clip-path="url(#p5db532ecd5)" style="fill: none; stroke: #ffffff; stroke-width: 0.8; stroke-linecap: round"/>
     </g>
     <g id="text_24">
      <!-- 300 -->
      <g style="fill: #262626" transform="translate(24.7825 184.323834) scale(0.1 -0.1)">
       <use xlink:href="#DejaVuSans-33"/>
       <use xlink:href="#DejaVuSans-30" transform="translate(63.623047 0)"/>
       <use xlink:href="#DejaVuSans-30" transform="translate(127.246094 0)"/>
      </g>
     </g>
    </g>
    <g id="ytick_8">
     <g id="line2d_24">
      <path d="M 50.87 145.605385 
L 564.289615 145.605385 
" clip-path="url(#p5db532ecd5)" style="fill: none; stroke: #ffffff; stroke-width: 0.8; stroke-linecap: round"/>
     </g>
     <g id="text_25">
      <!-- 350 -->
      <g style="fill: #262626" transform="translate(24.7825 149.404603) scale(0.1 -0.1)">
       <use xlink:href="#DejaVuSans-33"/>
       <use xlink:href="#DejaVuSans-35" transform="translate(63.623047 0)"/>
       <use xlink:href="#DejaVuSans-30" transform="translate(127.246094 0)"/>
      </g>
     </g>
    </g>
    <g id="ytick_9">
     <g id="line2d_25">
      <path d="M 50.87 110.686154 
L 564.289615 110.686154 
" clip-path="url(#p5db532ecd5)" style="fill: none; stroke: #ffffff; stroke-width: 0.8; stroke-linecap: round"/>
     </g>
     <g id="text_26">
      <!-- 400 -->
      <g style="fill: #262626" transform="translate(24.7825 114.485373) scale(0.1 -0.1)">
       <use xlink:href="#DejaVuSans-34"/>
       <use xlink:href="#DejaVuSans-30" transform="translate(63.623047 0)"/>
       <use xlink:href="#DejaVuSans-30" transform="translate(127.246094 0)"/>
      </g>
     </g>
    </g>
    <g id="ytick_10">
     <g id="line2d_26">
      <path d="M 50.87 75.766923 
L 564.289615 75.766923 
" clip-path="url(#p5db532ecd5)" style="fill: none; stroke: #ffffff; stroke-width: 0.8; stroke-linecap: round"/>
     </g>
     <g id="text_27">
      <!-- 450 -->
      <g style="fill: #262626" transform="translate(24.7825 79.566142) scale(0.1 -0.1)">
       <use xlink:href="#DejaVuSans-34"/>
       <use xlink:href="#DejaVuSans-35" transform="translate(63.623047 0)"/>
       <use xlink:href="#DejaVuSans-30" transform="translate(127.246094 0)"/>
      </g>
     </g>
    </g>
    <g id="ytick_11">
     <g id="line2d_27">
      <path d="M 50.87 40.847692 
L 564.289615 40.847692 
" clip-path="url(#p5db532ecd5)" style="fill: none; stroke: #ffffff; stroke-width: 0.8; stroke-linecap: round"/>
     </g>
     <g id="text_28">
      <!-- 500 -->
      <g style="fill: #262626" transform="translate(24.7825 44.646911) scale(0.1 -0.1)">
       <use xlink:href="#DejaVuSans-35"/>
       <use xlink:href="#DejaVuSans-30" transform="translate(63.623047 0)"/>
       <use xlink:href="#DejaVuSans-30" transform="translate(127.246094 0)"/>
      </g>
     </g>
    </g>
    <g id="text_29">
     <!-- Reward -->
     <g style="fill: #262626" transform="translate(18.702813 227.081094) rotate(-90) scale(0.1 -0.1)">
      <defs>
       <path id="DejaVuSans-52" d="M 2841 2188 
Q 3044 2119 3236 1894 
Q 3428 1669 3622 1275 
L 4263 0 
L 3584 0 
L 2988 1197 
Q 2756 1666 2539 1819 
Q 2322 1972 1947 1972 
L 1259 1972 
L 1259 0 
L 628 0 
L 628 4666 
L 2053 4666 
Q 2853 4666 3247 4331 
Q 3641 3997 3641 3322 
Q 3641 2881 3436 2590 
Q 3231 2300 2841 2188 
z
M 1259 4147 
L 1259 2491 
L 2053 2491 
Q 2509 2491 2742 2702 
Q 2975 2913 2975 3322 
Q 2975 3731 2742 3939 
Q 2509 4147 2053 4147 
L 1259 4147 
z
" transform="scale(0.015625)"/>
       <path id="DejaVuSans-77" d="M 269 3500 
L 844 3500 
L 1563 769 
L 2278 3500 
L 2956 3500 
L 3675 769 
L 4391 3500 
L 4966 3500 
L 4050 0 
L 3372 0 
L 2619 2869 
L 1863 0 
L 1184 0 
L 269 3500 
z
" transform="scale(0.015625)"/>
       <path id="DejaVuSans-61" d="M 2194 1759 
Q 1497 1759 1228 1600 
Q 959 1441 959 1056 
Q 959 750 1161 570 
Q 1363 391 1709 391 
Q 2188 391 2477 730 
Q 2766 1069 2766 1631 
L 2766 1759 
L 2194 1759 
z
M 3341 1997 
L 3341 0 
L 2766 0 
L 2766 531 
Q 2569 213 2275 61 
Q 1981 -91 1556 -91 
Q 1019 -91 701 211 
Q 384 513 384 1019 
Q 384 1609 779 1909 
Q 1175 2209 1959 2209 
L 2766 2209 
L 2766 2266 
Q 2766 2663 2505 2880 
Q 2244 3097 1772 3097 
Q 1472 3097 1187 3025 
Q 903 2953 641 2809 
L 641 3341 
Q 956 3463 1253 3523 
Q 1550 3584 1831 3584 
Q 2591 3584 2966 3190 
Q 3341 2797 3341 1997 
z
" transform="scale(0.015625)"/>
       <path id="DejaVuSans-72" d="M 2631 2963 
Q 2534 3019 2420 3045 
Q 2306 3072 2169 3072 
Q 1681 3072 1420 2755 
Q 1159 2438 1159 1844 
L 1159 0 
L 581 0 
L 581 3500 
L 1159 3500 
L 1159 2956 
Q 1341 3275 1631 3429 
Q 1922 3584 2338 3584 
Q 2397 3584 2469 3576 
Q 2541 3569 2628 3553 
L 2631 2963 
z
" transform="scale(0.015625)"/>
      </defs>
      <use xlink:href="#DejaVuSans-52"/>
      <use xlink:href="#DejaVuSans-65" transform="translate(64.982422 0)"/>
      <use xlink:href="#DejaVuSans-77" transform="translate(126.505859 0)"/>
      <use xlink:href="#DejaVuSans-61" transform="translate(208.292969 0)"/>
      <use xlink:href="#DejaVuSans-72" transform="translate(269.572266 0)"/>
      <use xlink:href="#DejaVuSans-64" transform="translate(308.935547 0)"/>
     </g>
    </g>
   </g>
   <g id="FillBetweenPolyCollection_1">
    <path d="M 60.743454 374.311054 
L 60.743454 374.991995 
L 64.034606 375.102817 
L 67.325757 373.944909 
L 70.616908 371.76056 
L 73.90806 369.224369 
L 77.199211 365.171546 
L 80.490362 361.490654 
L 83.781514 356.097675 
L 87.072665 348.346196 
L 90.363817 345.259207 
L 93.654968 333.381164 
L 96.946119 324.572889 
L 100.237271 311.705928 
L 103.528422 307.561463 
L 106.819573 282.927062 
L 110.110725 295.420559 
L 113.401876 270.259111 
L 116.693028 255.848252 
L 119.984179 258.062701 
L 123.27533 256.951727 
L 126.566482 242.73793 
L 129.857633 233.613871 
L 133.148785 244.073007 
L 136.439936 234.623821 
L 139.731087 223.961124 
L 143.022239 226.901163 
L 146.31339 217.532966 
L 149.604541 236.166911 
L 152.895693 245.084586 
L 156.186844 263.882578 
L 159.477996 260.00198 
L 162.769147 242.741617 
L 166.060298 255.951422 
L 169.35145 265.117045 
L 172.642601 264.015117 
L 175.933752 254.768666 
L 179.224904 246.565209 
L 182.516055 235.418321 
L 185.807207 245.441258 
L 189.098358 264.578667 
L 192.389509 264.486082 
L 195.680661 249.972711 
L 198.971812 229.294357 
L 202.262964 231.973 
L 205.554115 225.399099 
L 208.845266 240.089462 
L 212.136418 221.190287 
L 215.427569 225.362197 
L 218.71872 231.699426 
L 222.009872 231.82411 
L 225.301023 242.977538 
L 228.592175 266.821106 
L 231.883326 281.33097 
L 235.174477 281.514232 
L 238.465629 279.386804 
L 241.75678 248.519166 
L 245.047931 278.335744 
L 248.339083 277.107098 
L 251.630234 253.154275 
L 254.921386 251.459821 
L 258.212537 268.224668 
L 261.503688 287.994425 
L 264.79484 288.190567 
L 268.085991 271.955655 
L 271.377143 263.659646 
L 274.668294 245.671064 
L 277.959445 224.208077 
L 281.250597 213.130532 
L 284.541748 240.03936 
L 287.832899 215.09188 
L 291.124051 225.292756 
L 294.415202 263.735086 
L 297.706354 289.837395 
L 300.997505 282.189461 
L 304.288656 287.04533 
L 307.579808 297.413695 
L 310.870959 279.029086 
L 314.16211 301.748095 
L 317.453262 288.825575 
L 320.744413 275.639676 
L 324.035565 265.292297 
L 327.326716 281.19828 
L 330.617867 278.292546 
L 333.909019 256.462289 
L 337.20017 257.832149 
L 340.491321 268.446198 
L 343.782473 263.663863 
L 347.073624 268.953393 
L 350.364776 244.868823 
L 353.655927 237.677079 
L 356.947078 234.141966 
L 360.23823 261.2394 
L 363.529381 251.098455 
L 366.820533 270.882103 
L 370.111684 265.324176 
L 373.402835 249.65903 
L 376.693987 251.927493 
L 379.985138 269.495151 
L 383.276289 277.899856 
L 386.567441 261.336051 
L 389.858592 264.114427 
L 393.149744 272.737705 
L 396.440895 283.234415 
L 399.732046 281.213198 
L 403.023198 279.8264 
L 406.314349 265.011481 
L 409.6055 266.128574 
L 412.896652 275.410442 
L 416.187803 271.913713 
L 419.478955 274.624951 
L 422.770106 266.178921 
L 426.061257 269.964925 
L 429.352409 272.595947 
L 432.64356 284.994461 
L 435.934712 274.349858 
L 439.225863 279.597758 
L 442.517014 287.422304 
L 445.808166 288.369877 
L 449.099317 272.551599 
L 452.390468 276.637752 
L 455.68162 271.572356 
L 458.972771 269.183391 
L 462.263923 269.321242 
L 465.555074 266.582687 
L 468.846225 256.96842 
L 472.137377 259.776019 
L 475.428528 262.667238 
L 478.719679 264.500908 
L 482.010831 270.131066 
L 485.301982 270.875792 
L 488.593134 282.460342 
L 491.884285 290.910234 
L 495.175436 276.498356 
L 498.466588 275.470208 
L 501.757739 274.584909 
L 505.048891 274.61711 
L 508.340042 273.91949 
L 511.631193 273.543803 
L 514.922345 269.611214 
L 518.213496 271.872314 
L 521.504647 271.581073 
L 524.795799 270.610092 
L 528.08695 270.194976 
L 531.378102 270.002706 
L 534.669253 268.677552 
L 537.960404 267.235274 
L 541.251556 271.153093 
L 544.542707 278.664078 
L 547.833858 275.187906 
L 551.12501 279.796981 
L 551.12501 48.617735 
L 551.12501 48.617735 
L 547.833858 33.60719 
L 544.542707 44.261869 
L 541.251556 17.449433 
L 537.960404 17.788971 
L 534.669253 17.667804 
L 531.378102 17.50908 
L 528.08695 26.58857 
L 524.795799 26.59631 
L 521.504647 17.360104 
L 518.213496 25.92655 
L 514.922345 17.397608 
L 511.631193 22.925145 
L 508.340042 17.136083 
L 505.048891 17.07366 
L 501.757739 17.119164 
L 498.466588 43.611181 
L 495.175436 30.27475 
L 491.884285 40.39535 
L 488.593134 46.46821 
L 485.301982 17.133582 
L 482.010831 17.164869 
L 478.719679 27.200282 
L 475.428528 25.78336 
L 472.137377 26.064172 
L 468.846225 30.744607 
L 465.555074 38.464411 
L 462.263923 29.902418 
L 458.972771 50.032601 
L 455.68162 34.517886 
L 452.390468 21.906859 
L 449.099317 41.123875 
L 445.808166 70.328014 
L 442.517014 63.738633 
L 439.225863 54.986576 
L 435.934712 48.064404 
L 432.64356 57.374533 
L 429.352409 29.299487 
L 426.061257 51.251467 
L 422.770106 33.792695 
L 419.478955 39.477314 
L 416.187803 49.867679 
L 412.896652 58.836339 
L 409.6055 74.444426 
L 406.314349 73.453155 
L 403.023198 107.751394 
L 399.732046 67.933102 
L 396.440895 59.218207 
L 393.149744 80.092225 
L 389.858592 72.597034 
L 386.567441 44.071278 
L 383.276289 75.236098 
L 379.985138 77.224981 
L 376.693987 56.363466 
L 373.402835 45.588068 
L 370.111684 43.371567 
L 366.820533 45.098219 
L 363.529381 42.002715 
L 360.23823 48.221803 
L 356.947078 56.862198 
L 353.655927 86.258921 
L 350.364776 64.527549 
L 347.073624 96.847623 
L 343.782473 79.182544 
L 340.491321 89.67285 
L 337.20017 129.151454 
L 333.909019 162.699261 
L 330.617867 125.638396 
L 327.326716 136.980949 
L 324.035565 167.116898 
L 320.744413 156.76278 
L 317.453262 113.79404 
L 314.16211 145.562415 
L 310.870959 122.720452 
L 307.579808 118.207975 
L 304.288656 165.115526 
L 300.997505 134.495195 
L 297.706354 133.649915 
L 294.415202 89.079673 
L 291.124051 75.411056 
L 287.832899 52.881728 
L 284.541748 45.796434 
L 281.250597 72.086828 
L 277.959445 60.342332 
L 274.668294 132.499825 
L 271.377143 131.272879 
L 268.085991 128.577914 
L 264.79484 139.60619 
L 261.503688 177.74059 
L 258.212537 155.952027 
L 254.921386 133.393705 
L 251.630234 146.326444 
L 248.339083 142.547329 
L 245.047931 161.879418 
L 241.75678 141.037721 
L 238.465629 148.627534 
L 235.174477 133.120032 
L 231.883326 105.385971 
L 228.592175 153.962443 
L 225.301023 148.864967 
L 222.009872 176.354518 
L 218.71872 170.622219 
L 215.427569 135.846976 
L 212.136418 103.360289 
L 208.845266 126.978736 
L 205.554115 123.393507 
L 202.262964 153.41244 
L 198.971812 188.422318 
L 195.680661 160.238141 
L 192.389509 185.728182 
L 189.098358 189.709566 
L 185.807207 184.594731 
L 182.516055 150.91103 
L 179.224904 148.916611 
L 175.933752 159.549045 
L 172.642601 208.887911 
L 169.35145 177.748669 
L 166.060298 177.14498 
L 162.769147 184.056185 
L 159.477996 225.267247 
L 156.186844 180.676201 
L 152.895693 186.817644 
L 149.604541 164.237907 
L 146.31339 160.945284 
L 143.022239 163.903973 
L 139.731087 169.361594 
L 136.439936 157.775724 
L 133.148785 207.486185 
L 129.857633 172.459226 
L 126.566482 200.393343 
L 123.27533 190.652883 
L 119.984179 173.556087 
L 116.693028 174.756343 
L 113.401876 193.913864 
L 110.110725 193.375206 
L 106.819573 214.254768 
L 103.528422 228.927179 
L 100.237271 268.300233 
L 96.946119 298.354769 
L 93.654968 303.788411 
L 90.363817 318.719023 
L 87.072665 339.866708 
L 83.781514 350.567051 
L 80.490362 356.759682 
L 77.199211 359.507037 
L 73.90806 365.633742 
L 70.616908 369.043887 
L 67.325757 372.833813 
L 64.034606 374.300366 
L 60.743454 374.311054 
z
" clip-path="url(#p5db532ecd5)" style="fill: #0000ff; fill-opacity: 0.1"/>
   </g>
   <g id="line2d_28">
    <path d="M 60.743454 374.651524 
L 64.034606 374.701591 
L 67.325757 373.389361 
L 73.90806 367.429056 
L 77.199211 362.339291 
L 80.490362 359.125168 
L 83.781514 353.332363 
L 87.072665 344.106452 
L 90.363817 331.989115 
L 93.654968 318.584787 
L 96.946119 311.463829 
L 103.528422 268.244321 
L 106.819573 248.590915 
L 110.110725 244.397883 
L 113.401876 232.086488 
L 116.693028 215.302298 
L 119.984179 215.809394 
L 123.27533 223.802305 
L 126.566482 221.565636 
L 129.857633 203.036549 
L 133.148785 225.779596 
L 136.439936 196.199772 
L 139.731087 196.661359 
L 143.022239 195.402568 
L 146.31339 189.239125 
L 149.604541 200.202409 
L 152.895693 215.951115 
L 156.186844 222.27939 
L 159.477996 242.634613 
L 162.769147 213.398901 
L 166.060298 216.548201 
L 169.35145 221.432857 
L 172.642601 236.451514 
L 175.933752 207.158856 
L 179.224904 197.74091 
L 182.516055 193.164675 
L 185.807207 215.017994 
L 189.098358 227.144116 
L 192.389509 225.107132 
L 195.680661 205.105426 
L 198.971812 208.858338 
L 202.262964 192.69272 
L 205.554115 174.396303 
L 208.845266 183.534099 
L 212.136418 162.275288 
L 215.427569 180.604586 
L 218.71872 201.160823 
L 222.009872 204.089314 
L 225.301023 195.921252 
L 228.592175 210.391774 
L 231.883326 193.358471 
L 235.174477 207.317132 
L 238.465629 214.007169 
L 241.75678 194.778443 
L 245.047931 220.107581 
L 251.630234 199.740359 
L 254.921386 192.426763 
L 258.212537 212.088348 
L 261.503688 232.867507 
L 264.79484 213.898379 
L 268.085991 200.266784 
L 271.377143 197.466262 
L 274.668294 189.085444 
L 277.959445 142.275205 
L 284.541748 142.917897 
L 287.832899 133.986804 
L 291.124051 150.351906 
L 294.415202 176.407379 
L 297.706354 211.743655 
L 300.997505 208.342328 
L 304.288656 226.080428 
L 307.579808 207.810835 
L 310.870959 200.874769 
L 314.16211 223.655255 
L 317.453262 201.309808 
L 320.744413 216.201228 
L 324.035565 216.204598 
L 330.617867 201.965471 
L 333.909019 209.580775 
L 337.20017 193.491801 
L 340.491321 179.059524 
L 343.782473 171.423203 
L 347.073624 182.900508 
L 350.364776 154.698186 
L 353.655927 161.968 
L 356.947078 145.502082 
L 360.23823 154.730601 
L 363.529381 146.550585 
L 366.820533 157.990161 
L 370.111684 154.347871 
L 373.402835 147.623549 
L 376.693987 154.14548 
L 379.985138 173.360066 
L 383.276289 176.567977 
L 386.567441 152.703664 
L 389.858592 168.35573 
L 393.149744 176.414965 
L 396.440895 171.226311 
L 399.732046 174.57315 
L 403.023198 193.788897 
L 406.314349 169.232318 
L 409.6055 170.2865 
L 412.896652 167.123391 
L 416.187803 160.890696 
L 419.478955 157.051132 
L 422.770106 149.985808 
L 426.061257 160.608196 
L 429.352409 150.947717 
L 432.64356 171.184497 
L 435.934712 161.207131 
L 439.225863 167.292167 
L 442.517014 175.580468 
L 445.808166 179.348946 
L 449.099317 156.837737 
L 452.390468 149.272305 
L 455.68162 153.045121 
L 458.972771 159.607996 
L 462.263923 149.61183 
L 465.555074 152.523549 
L 468.846225 143.856513 
L 472.137377 142.920096 
L 475.428528 144.225299 
L 478.719679 145.850595 
L 482.010831 143.647968 
L 485.301982 144.004687 
L 488.593134 164.464276 
L 491.884285 165.652792 
L 495.175436 153.386553 
L 498.466588 159.540695 
L 501.757739 145.852036 
L 505.048891 145.845385 
L 508.340042 145.527786 
L 511.631193 148.234474 
L 514.922345 143.504411 
L 518.213496 148.899432 
L 521.504647 144.470589 
L 524.795799 148.603201 
L 528.08695 148.391773 
L 531.378102 143.755893 
L 537.960404 142.512123 
L 541.251556 144.301263 
L 544.542707 161.462973 
L 547.833858 154.397548 
L 551.12501 164.207358 
L 551.12501 164.207358 
" clip-path="url(#p5db532ecd5)" style="fill: none; stroke: #0000ff; stroke-width: 1.5; stroke-linecap: round"/>
   </g>
   <g id="line2d_29">
    <path d="M 60.743454 374.356623 
L 64.034606 375.194557 
L 67.325757 373.416722 
L 70.616908 369.536281 
L 73.90806 364.33154 
L 77.199211 357.577737 
L 80.490362 355.235693 
L 83.781514 348.856796 
L 87.072665 336.559855 
L 90.363817 306.583038 
L 93.654968 295.163157 
L 96.946119 289.445754 
L 100.237271 257.114128 
L 103.528422 221.836751 
L 106.819573 224.6725 
L 110.110725 245.186814 
L 113.401876 187.683058 
L 116.693028 156.391547 
L 119.984179 220.65487 
L 123.27533 229.910385 
L 126.566482 185.46703 
L 129.857633 179.477038 
L 133.148785 212.068321 
L 136.439936 139.940709 
L 139.731087 164.112577 
L 143.022239 157.547762 
L 146.31339 215.583523 
L 149.604541 245.978774 
L 152.895693 199.434722 
L 156.186844 166.417246 
L 159.477996 230.438575 
L 162.769147 245.163991 
L 166.060298 216.235349 
L 169.35145 168.334629 
L 172.642601 230.24087 
L 175.933752 219.983346 
L 179.224904 239.421718 
L 182.516055 245.556548 
L 185.807207 273.473259 
L 189.098358 285.561662 
L 192.389509 270.044825 
L 195.680661 256.376944 
L 198.971812 181.096021 
L 202.262964 144.596607 
L 205.554115 126.28341 
L 208.845266 119.221966 
L 212.136418 202.067095 
L 215.427569 162.645969 
L 218.71872 196.703859 
L 222.009872 191.825748 
L 225.301023 130.520277 
L 228.592175 225.547144 
L 231.883326 228.320312 
L 235.174477 216.654379 
L 238.465629 217.422603 
L 241.75678 205.716346 
L 245.047931 245.433303 
L 248.339083 255.174171 
L 251.630234 205.317269 
L 254.921386 173.350301 
L 258.212537 235.216861 
L 261.503688 223.824462 
L 264.79484 149.859182 
L 268.085991 194.259513 
L 271.377143 158.315985 
L 274.668294 139.389762 
L 277.959445 84.584029 
L 281.250597 67.124413 
L 284.541748 61.013548 
L 287.832899 49.926692 
L 291.124051 52.371038 
L 297.706354 222.278038 
L 300.997505 232.111959 
L 304.288656 247.238725 
L 307.579808 246.405564 
L 310.870959 173.286811 
L 314.16211 262.200696 
L 317.453262 207.611962 
L 320.744413 238.038643 
L 324.035565 227.010841 
L 327.326716 238.53162 
L 330.617867 207.385562 
L 333.909019 215.892808 
L 337.20017 200.347994 
L 340.491321 204.753189 
L 343.782473 216.18879 
L 347.073624 177.731077 
L 350.364776 109.900471 
L 353.655927 176.969203 
L 356.947078 153.054821 
L 360.23823 247.364131 
L 363.529381 230.590062 
L 366.820533 288.722499 
L 370.111684 268.388051 
L 373.402835 210.125379 
L 376.693987 229.960269 
L 379.985138 258.909974 
L 383.276289 278.08591 
L 386.567441 251.392275 
L 389.858592 232.030481 
L 393.149744 225.439476 
L 396.440895 251.690008 
L 399.732046 279.027211 
L 403.023198 249.819889 
L 406.314349 227.360034 
L 409.6055 243.255986 
L 412.896652 265.552942 
L 416.187803 278.35666 
L 419.478955 279.782529 
L 422.770106 265.029154 
L 426.061257 266.146569 
L 429.352409 284.388375 
L 432.64356 285.718798 
L 435.934712 271.680436 
L 439.225863 283.012558 
L 442.517014 291.929895 
L 445.808166 277.978369 
L 449.099317 280.65551 
L 452.390468 296.865859 
L 455.68162 277.832872 
L 458.972771 267.822692 
L 462.263923 273.505003 
L 465.555074 264.031462 
L 468.846225 243.160986 
L 472.137377 253.435969 
L 475.428528 260.000785 
L 478.719679 262.724485 
L 482.010831 278.734952 
L 485.301982 280.421551 
L 488.593134 282.721564 
L 491.884285 313.896123 
L 495.175436 292.110957 
L 498.466588 289.553198 
L 501.757739 294.236596 
L 505.048891 292.690173 
L 508.340042 291.645368 
L 511.631193 288.048985 
L 514.922345 282.052279 
L 518.213496 288.046747 
L 521.504647 288.666787 
L 524.795799 286.260046 
L 528.08695 280.946503 
L 531.378102 286.595271 
L 534.669253 285.951593 
L 537.960404 283.565446 
L 544.542707 296.032442 
L 547.833858 295.633365 
L 551.12501 290.8195 
L 551.12501 290.8195 
" clip-path="url(#p5db532ecd5)" style="fill: none; stroke: #008000; stroke-opacity: 0.2; stroke-linecap: round"/>
   </g>
   <g id="line2d_30">
    <path d="M 60.743454 374.440037 
L 64.034606 374.214033 
L 67.325757 373.823343 
L 70.616908 372.166867 
L 73.90806 368.043724 
L 77.199211 361.88637 
L 80.490362 359.365396 
L 83.781514 356.115967 
L 87.072665 345.456027 
L 90.363817 341.356243 
L 93.654968 318.904538 
L 96.946119 325.328704 
L 100.237271 301.638025 
L 103.528422 290.198935 
L 106.819573 270.235294 
L 110.110725 281.729656 
L 113.401876 242.724495 
L 116.693028 196.121872 
L 119.984179 213.44181 
L 123.27533 198.575172 
L 126.566482 234.474827 
L 129.857633 180.334147 
L 133.148785 219.052167 
L 136.439936 221.779192 
L 139.731087 205.935071 
L 143.022239 194.37591 
L 146.31339 208.759308 
L 149.604541 199.904788 
L 152.895693 183.586763 
L 156.186844 197.984231 
L 159.477996 251.333056 
L 162.769147 203.272 
L 166.060298 232.903462 
L 169.35145 192.338955 
L 172.642601 228.407611 
L 175.933752 213.133805 
L 179.224904 200.253981 
L 182.516055 222.893282 
L 185.807207 191.233179 
L 189.098358 206.65584 
L 192.389509 239.928389 
L 195.680661 199.381 
L 198.971812 243.338149 
L 202.262964 232.117779 
L 205.554115 222.9864 
L 208.845266 276.768667 
L 212.136418 229.411538 
L 215.427569 234.605774 
L 218.71872 261.083281 
L 222.009872 223.275731 
L 225.301023 259.616673 
L 228.592175 258.045308 
L 231.883326 275.123986 
L 235.174477 286.092434 
L 238.465629 271.979744 
L 241.75678 252.088498 
L 245.047931 250.95119 
L 248.339083 239.072526 
L 251.630234 254.920955 
L 254.921386 257.898279 
L 258.212537 238.285131 
L 261.503688 262.584808 
L 264.79484 273.378024 
L 268.085991 262.767718 
L 271.377143 259.826188 
L 274.668294 274.502893 
L 277.959445 286.930495 
L 281.250597 271.473339 
L 284.541748 290.352063 
L 287.832899 277.536587 
L 291.124051 270.516462 
L 294.415202 295.163157 
L 297.706354 274.607 
L 300.997505 267.988974 
L 304.288656 277.949269 
L 307.579808 294.037058 
L 310.870959 303.237551 
L 314.16211 300.044714 
L 317.453262 295.109577 
L 320.744413 295.583481 
L 324.035565 295.184404 
L 327.326716 289.919582 
L 330.617867 280.422715 
L 333.909019 287.162574 
L 337.20017 299.798731 
L 340.491321 303.575479 
L 343.782473 298.936931 
L 347.073624 297.973642 
L 350.364776 296.705885 
L 353.655927 301.94721 
L 356.947078 305.950127 
L 360.23823 311.704526 
L 363.529381 308.646448 
L 366.820533 300.815345 
L 370.111684 305.295392 
L 373.402835 316.143358 
L 376.693987 309.450648 
L 379.985138 308.900406 
L 383.276289 308.76549 
L 386.567441 312.498767 
L 389.858592 312.00579 
L 393.149744 313.819079 
L 396.440895 316.166427 
L 399.732046 314.754138 
L 403.023198 319.55978 
L 406.314349 317.175205 
L 409.6055 320.863166 
L 412.896652 313.877278 
L 416.187803 312.239954 
L 419.478955 315.448643 
L 422.770106 315.565041 
L 426.061257 317.974258 
L 429.352409 314.459265 
L 432.64356 317.795991 
L 435.934712 322.157015 
L 439.225863 316.282825 
L 445.808166 320.587488 
L 449.099317 314.207071 
L 452.390468 313.159494 
L 455.68162 313.605684 
L 458.972771 314.342868 
L 462.263923 316.917243 
L 465.555074 315.720237 
L 468.846225 314.207071 
L 472.137377 314.090673 
L 475.428528 314.924855 
L 478.719679 316.05003 
L 482.010831 316.96181 
L 485.301982 317.058808 
L 488.593134 320.470148 
L 491.884285 316.787214 
L 495.175436 313.78028 
L 498.466588 312.189515 
L 501.757739 312.480509 
L 505.048891 313.993675 
L 508.340042 313.450487 
L 511.631193 314.342868 
L 514.922345 312.926699 
L 518.213496 309.725769 
L 521.504647 311.143079 
L 524.795799 308.459947 
L 528.08695 312.279862 
L 531.378102 309.641117 
L 534.669253 307.368721 
L 537.960404 306.452091 
L 541.251556 309.154364 
L 544.542707 308.667611 
L 547.833858 305.797356 
L 551.12501 305.273567 
L 551.12501 305.273567 
" clip-path="url(#p5db532ecd5)" style="fill: none; stroke: #008000; stroke-opacity: 0.2; stroke-linecap: round"/>
   </g>
   <g id="line2d_31">
    <path d="M 60.743454 374.330407 
L 64.034606 375.094569 
L 67.325757 373.578689 
L 70.616908 371.872688 
L 73.90806 368.200116 
L 77.199211 365.437815 
L 80.490362 361.982218 
L 87.072665 346.999232 
L 90.363817 332.713025 
L 93.654968 315.272938 
L 96.946119 309.027385 
L 100.237271 273.257946 
L 103.528422 255.368167 
L 106.819573 205.720183 
L 110.110725 153.478084 
L 113.401876 203.190371 
L 116.693028 202.872923 
L 119.984179 138.481862 
L 123.27533 186.111692 
L 126.566482 246.419258 
L 129.857633 243.85937 
L 133.148785 238.983516 
L 136.439936 230.209692 
L 139.731087 228.852831 
L 143.022239 216.641077 
L 146.31339 144.44141 
L 149.604541 147.065643 
L 152.895693 196.103964 
L 156.186844 209.204944 
L 159.477996 215.543615 
L 162.769147 162.785646 
L 166.060298 145.859343 
L 169.35145 201.027192 
L 172.642601 210.555154 
L 175.933752 154.125677 
L 179.224904 119.765154 
L 182.516055 186.937056 
L 185.807207 204.909878 
L 189.098358 241.15313 
L 192.389509 231.320456 
L 195.680661 171.038224 
L 198.971812 214.369408 
L 202.262964 209.457692 
L 205.554115 200.347994 
L 208.845266 217.688654 
L 212.136418 164.531608 
L 215.427569 216.733172 
L 218.71872 186.402686 
L 222.009872 157.477923 
L 225.301023 156.081154 
L 228.592175 165.096664 
L 231.883326 77.163692 
L 235.174477 125.072877 
L 238.465629 206.664154 
L 241.75678 176.450705 
L 245.047931 221.124041 
L 248.339083 237.340258 
L 251.630234 238.621486 
L 254.921386 230.994544 
L 258.212537 249.819889 
L 261.503688 276.840963 
L 264.79484 288.881675 
L 268.085991 264.497051 
L 271.377143 235.435106 
L 274.668294 220.332538 
L 277.959445 163.699895 
L 281.250597 112.082923 
L 284.541748 56.735942 
L 287.832899 83.972942 
L 291.124051 189.429019 
L 294.415202 240.323798 
L 297.706354 266.825 
L 300.997505 227.595738 
L 304.288656 273.758962 
L 307.579808 263.911738 
L 310.870959 246.953317 
L 314.16211 258.927478 
L 317.453262 264.156173 
L 320.744413 251.721047 
L 324.035565 229.74019 
L 327.326716 241.325158 
L 330.617867 233.383601 
L 333.909019 180.524615 
L 337.20017 193.968519 
L 340.491321 232.903462 
L 343.782473 206.955787 
L 347.073624 238.097697 
L 350.364776 214.885138 
L 353.655927 133.732846 
L 356.947078 141.589673 
L 360.23823 112.548513 
L 363.529381 88.16325 
L 366.820533 91.567875 
L 370.111684 51.84725 
L 373.402835 103.265817 
L 376.693987 67.910096 
L 379.985138 149.725854 
L 383.276289 154.493916 
L 386.567441 94.710606 
L 389.858592 157.731881 
L 393.149744 208.567444 
L 396.440895 206.579734 
L 399.732046 152.779699 
L 403.023198 201.675692 
L 406.314349 160.480977 
L 409.6055 111.77253 
L 412.896652 155.460368 
L 416.187803 87.988654 
L 419.478955 105.099077 
L 422.770106 75.155837 
L 426.061257 49.228308 
L 429.352409 48.966413 
L 432.64356 153.776485 
L 435.934712 86.242692 
L 439.225863 67.124413 
L 442.517014 153.287615 
L 445.808166 180.778573 
L 449.099317 78.560462 
L 452.390468 40.847692 
L 455.68162 92.091663 
L 458.972771 77.512885 
L 462.263923 53.68051 
L 465.555074 51.148865 
L 468.846225 77.774779 
L 472.137377 42.76825 
L 475.428528 43.990423 
L 478.719679 63.807087 
L 482.010831 40.847692 
L 495.175436 40.847692 
L 498.466588 52.458337 
L 501.757739 40.847692 
L 508.340042 40.847692 
L 511.631193 57.085135 
L 514.922345 40.847692 
L 524.795799 40.847692 
L 528.08695 67.037115 
L 531.378102 40.847692 
L 541.251556 40.847692 
L 544.542707 107.039034 
L 547.833858 40.847692 
L 551.12501 40.847692 
L 551.12501 40.847692 
" clip-path="url(#p5db532ecd5)" style="fill: none; stroke: #008000; stroke-opacity: 0.2; stroke-linecap: round"/>
   </g>
   <g id="line2d_32">
    <path d="M 60.743454 375.030583 
L 64.034606 374.714995 
L 67.325757 372.320202 
L 70.616908 368.774459 
L 73.90806 366.856018 
L 77.199211 361.755423 
L 80.490362 360.990172 
L 83.781514 355.783793 
L 87.072665 348.697747 
L 90.363817 343.484971 
L 93.654968 341.439913 
L 96.946119 324.511083 
L 100.237271 317.238123 
L 103.528422 332.903409 
L 106.819573 302.765203 
L 110.110725 302.118365 
L 113.401876 298.077712 
L 116.693028 268.625835 
L 119.984179 245.590782 
L 123.27533 282.09403 
L 126.566482 212.001808 
L 129.857633 236.765118 
L 133.148785 254.29149 
L 136.439936 229.178744 
L 139.731087 219.634154 
L 143.022239 242.434357 
L 146.31339 210.156077 
L 149.604541 231.588855 
L 152.895693 259.476996 
L 156.186844 283.494443 
L 159.477996 251.527051 
L 162.769147 217.592722 
L 166.060298 221.449954 
L 169.35145 262.829242 
L 172.642601 223.219195 
L 175.933752 162.087262 
L 179.224904 172.651916 
L 182.516055 120.725433 
L 185.807207 191.752491 
L 189.098358 172.632869 
L 192.389509 151.502855 
L 195.680661 143.789585 
L 198.971812 206.165308 
L 202.262964 146.614162 
L 205.554115 100.734173 
L 208.845266 150.005208 
L 212.136418 159.154046 
L 215.427569 106.651043 
L 218.71872 182.55628 
L 222.009872 210.380558 
L 225.301023 204.718654 
L 228.592175 126.749 
L 231.883326 100.123087 
L 235.174477 119.377162 
L 238.465629 96.194673 
L 241.75678 101.063966 
L 245.047931 108.678298 
L 248.339083 75.854221 
L 251.630234 101.374359 
L 254.921386 87.988654 
L 258.212537 100.287983 
L 261.503688 129.106048 
L 264.79484 101.694452 
L 268.085991 67.997394 
L 271.377143 85.718904 
L 274.668294 116.709721 
L 277.959445 49.490202 
L 281.250597 105.011779 
L 284.541748 78.822356 
L 287.832899 92.70275 
L 291.124051 137.573962 
L 294.415202 167.953692 
L 297.706354 234.518476 
L 300.997505 250.557073 
L 304.288656 219.983346 
L 307.579808 193.852122 
L 310.870959 210.71632 
L 314.16211 221.511062 
L 317.453262 198.037953 
L 320.744413 159.573077 
L 324.035565 173.831763 
L 327.326716 198.682615 
L 330.617867 231.812236 
L 333.909019 218.097708 
L 337.20017 174.704744 
L 340.491321 82.838067 
L 343.782473 40.847692 
L 350.364776 40.847692 
L 353.655927 96.281971 
L 356.947078 65.291154 
L 360.23823 40.847692 
L 363.529381 64.505471 
L 366.820533 40.847692 
L 373.402835 40.847692 
L 376.693987 79.869933 
L 379.985138 59.354885 
L 383.276289 52.371038 
L 386.567441 40.847692 
L 389.858592 99.162808 
L 393.149744 57.521625 
L 396.440895 40.847692 
L 399.732046 85.45701 
L 403.023198 99.773894 
L 406.314349 93.575731 
L 409.6055 108.852894 
L 412.896652 51.672654 
L 416.187803 77.425587 
L 419.478955 40.847692 
L 422.770106 53.331317 
L 426.061257 83.012663 
L 429.352409 58.045413 
L 432.64356 40.847692 
L 435.934712 40.847692 
L 439.225863 129.193346 
L 442.517014 52.545635 
L 445.808166 40.847692 
L 449.099317 63.719788 
L 452.390468 40.847692 
L 455.68162 40.847692 
L 458.972771 94.545709 
L 462.263923 47.30775 
L 465.555074 47.395048 
L 468.846225 43.292038 
L 472.137377 63.457894 
L 475.428528 61.36274 
L 478.719679 45.823683 
L 482.010831 40.847692 
L 485.301982 40.847692 
L 488.593134 137.434285 
L 491.884285 115.885239 
L 495.175436 79.346144 
L 498.466588 79.258846 
L 501.757739 40.847692 
L 521.504647 40.847692 
L 524.795799 66.164135 
L 528.08695 40.847692 
L 541.251556 40.847692 
L 544.542707 54.728087 
L 547.833858 88.861635 
L 551.12501 143.248337 
L 551.12501 143.248337 
" clip-path="url(#p5db532ecd5)" style="fill: none; stroke: #008000; stroke-opacity: 0.2; stroke-linecap: round"/>
   </g>
   <g id="line2d_33">
    <path d="M 60.743454 375.099971 
L 64.034606 374.289803 
L 67.325757 373.807848 
L 70.616908 369.660822 
L 73.90806 369.713881 
L 77.199211 365.039112 
L 80.490362 358.05236 
L 83.781514 351.510809 
L 87.072665 342.819398 
L 90.363817 335.808297 
L 93.654968 322.143388 
L 96.946119 309.006221 
L 100.237271 300.76718 
L 103.528422 240.914344 
L 106.819573 239.561395 
L 110.110725 239.476493 
L 113.401876 228.756803 
L 116.693028 252.499312 
L 119.984179 260.877645 
L 123.27533 222.320249 
L 126.566482 229.46526 
L 129.857633 174.74707 
L 133.148785 204.502487 
L 136.439936 159.890524 
L 139.731087 164.772162 
L 146.31339 167.255308 
L 149.604541 176.473985 
L 152.895693 241.15313 
L 156.186844 254.296085 
L 159.477996 264.330769 
L 162.769147 238.180145 
L 166.060298 266.292897 
L 169.35145 282.634266 
L 172.642601 289.834741 
L 175.933752 286.464189 
L 179.224904 256.611781 
L 182.516055 189.711059 
L 185.807207 213.721164 
L 189.098358 229.717082 
L 192.389509 232.739136 
L 195.680661 254.941376 
L 198.971812 199.322801 
L 202.262964 230.677361 
L 205.554115 221.629538 
L 208.845266 153.986 
L 212.136418 56.212154 
L 215.427569 182.386974 
L 218.71872 179.058008 
L 222.009872 237.486611 
L 225.301023 228.669505 
L 228.592175 276.520755 
L 231.883326 286.061275 
L 235.174477 289.388809 
L 238.465629 277.774673 
L 241.75678 238.572701 
L 245.047931 274.35107 
L 248.339083 241.694891 
L 251.630234 198.467728 
L 254.921386 211.902038 
L 258.212537 236.831875 
L 261.503688 271.981255 
L 264.79484 255.67856 
L 268.085991 211.812246 
L 271.377143 248.035128 
L 274.668294 194.492308 
L 277.959445 126.671402 
L 281.250597 157.350944 
L 284.541748 227.665577 
L 294.415202 40.847692 
L 297.706354 60.48976 
L 300.997505 63.457894 
L 304.288656 111.471837 
L 307.579808 40.847692 
L 310.870959 70.179846 
L 314.16211 75.592327 
L 317.453262 41.633375 
L 320.744413 136.089894 
L 324.035565 155.25579 
L 327.326716 76.989096 
L 330.617867 56.82324 
L 333.909019 146.226171 
L 337.20017 98.639019 
L 340.491321 71.227423 
L 343.782473 94.186817 
L 347.073624 159.852431 
L 350.364776 111.151744 
L 353.655927 100.908769 
L 356.947078 61.624635 
L 360.23823 61.188144 
L 363.529381 40.847692 
L 366.820533 67.997394 
L 370.111684 105.360971 
L 373.402835 67.7355 
L 376.693987 83.536452 
L 379.985138 89.909212 
L 383.276289 89.123529 
L 386.567441 64.068981 
L 389.858592 40.847692 
L 393.149744 76.727202 
L 396.440895 40.847692 
L 399.732046 40.847692 
L 403.023198 98.115231 
L 406.314349 47.569644 
L 409.6055 66.687923 
L 412.896652 49.053712 
L 416.187803 48.442625 
L 419.478955 44.077721 
L 422.770106 40.847692 
L 426.061257 86.679183 
L 429.352409 48.879115 
L 432.64356 57.783519 
L 435.934712 85.107817 
L 439.225863 40.847692 
L 442.517014 61.711933 
L 445.808166 76.552606 
L 449.099317 47.045856 
L 452.390468 54.640788 
L 455.68162 40.847692 
L 458.972771 43.815827 
L 462.263923 56.648644 
L 465.555074 84.322135 
L 468.846225 40.847692 
L 495.175436 40.847692 
L 498.466588 64.243577 
L 501.757739 40.847692 
L 514.922345 40.847692 
L 518.213496 65.02926 
L 521.504647 40.847692 
L 524.795799 41.284183 
L 528.08695 40.847692 
L 551.12501 40.847692 
L 551.12501 40.847692 
" clip-path="url(#p5db532ecd5)" style="fill: none; stroke: #008000; stroke-opacity: 0.2; stroke-linecap: round"/>
   </g>
   <g id="line2d_34">
    <path d="M 0 0 
" clip-path="url(#p5db532ecd5)" style="fill: none; stroke: #ff0000; stroke-linecap: round"/>
   </g>
   <g id="line2d_35">
    <path d="M 60.743454 40.847692 
L 64.034606 41.106277 
L 67.325757 44.334296 
L 70.616908 58.110148 
L 73.90806 77.346733 
L 77.199211 105.978426 
L 80.490362 130.088775 
L 83.781514 153.162192 
L 87.072665 171.751496 
L 90.363817 192.421062 
L 93.654968 204.644495 
L 96.946119 215.370355 
L 100.237271 219.274452 
L 103.528422 229.889389 
L 110.110725 246.117301 
L 113.401876 251.674786 
L 116.693028 256.823747 
L 119.984179 258.343524 
L 123.27533 264.384199 
L 126.566482 266.681056 
L 129.857633 265.761574 
L 133.148785 271.550702 
L 136.439936 269.656066 
L 139.731087 271.910526 
L 143.022239 279.515931 
L 146.31339 269.857922 
L 149.604541 265.653053 
L 152.895693 272.500305 
L 156.186844 271.176973 
L 159.477996 261.650334 
L 162.769147 268.394125 
L 166.060298 268.85591 
L 169.35145 275.880011 
L 172.642601 266.80645 
L 175.933752 261.968529 
L 179.224904 271.597235 
L 182.516055 267.852516 
L 185.807207 269.229544 
L 189.098358 272.943665 
L 192.389509 274.587036 
L 195.680661 266.889943 
L 198.971812 258.736708 
L 202.262964 256.675331 
L 205.554115 264.145258 
L 208.845266 267.943057 
L 212.136418 272.31017 
L 215.427569 273.938137 
L 218.71872 279.606557 
L 222.009872 282.43575 
L 225.301023 276.421644 
L 228.592175 271.73303 
L 231.883326 269.784752 
L 235.174477 275.028488 
L 238.465629 276.804133 
L 241.75678 283.776935 
L 245.047931 286.27527 
L 248.339083 283.581891 
L 251.630234 286.839225 
L 254.921386 283.09772 
L 258.212537 279.573695 
L 261.503688 276.653258 
L 264.79484 282.939956 
L 268.085991 280.517141 
L 271.377143 284.419759 
L 274.668294 285.655269 
L 277.959445 290.912672 
L 281.250597 290.211231 
L 284.541748 299.281254 
L 287.832899 299.848293 
L 291.124051 291.942745 
L 294.415202 294.540923 
L 297.706354 294.444181 
L 300.997505 299.316509 
L 304.288656 302.620575 
L 307.579808 304.422402 
L 310.870959 301.017578 
L 314.16211 308.037018 
L 317.453262 313.487621 
L 320.744413 312.700373 
L 324.035565 308.814793 
L 327.326716 312.253647 
L 330.617867 315.123588 
L 333.909019 313.493378 
L 337.20017 308.77266 
L 340.491321 314.033662 
L 343.782473 305.755508 
L 347.073624 312.206269 
L 350.364776 317.340656 
L 353.655927 321.787199 
L 356.947078 319.195439 
L 360.23823 328.560945 
L 363.529381 326.461003 
L 366.820533 338.535369 
L 370.111684 340.081099 
L 373.402835 333.844707 
L 376.693987 330.110262 
L 379.985138 333.615459 
L 383.276289 340.329464 
L 389.858592 335.716058 
L 393.149744 336.112804 
L 396.440895 335.500654 
L 399.732046 345.837449 
L 403.023198 335.239198 
L 406.314349 329.345571 
L 409.6055 331.692009 
L 412.896652 327.847593 
L 416.187803 336.201593 
L 419.478955 341.620931 
L 422.770106 334.979264 
L 426.061257 338.085121 
L 429.352409 330.581845 
L 432.64356 339.46826 
L 435.934712 335.174373 
L 439.225863 338.915203 
L 442.517014 340.671674 
L 445.808166 352.706954 
L 449.099317 349.665086 
L 452.390468 357.419095 
L 455.68162 360.419402 
L 458.972771 364.725673 
L 462.263923 360.809485 
L 465.555074 357.545365 
L 468.846225 357.610513 
L 472.137377 368.611241 
L 475.428528 370.340734 
L 478.719679 371.460709 
L 482.010831 374.890406 
L 485.301982 377.17688 
L 488.593134 383.445482 
L 491.884285 387.910142 
L 495.175436 378.902061 
L 498.466588 368.179637 
L 501.757739 377.868671 
L 505.048891 380.214017 
L 508.340042 384.840678 
L 511.631193 377.082384 
L 514.922345 372.072634 
L 518.213496 385.759907 
L 521.504647 390.04 
L 524.795799 382.057527 
L 528.08695 383.019719 
L 531.378102 381.982099 
L 534.669253 382.714096 
L 537.960404 373.634706 
L 541.251556 381.524536 
L 544.542707 386.393247 
L 547.833858 379.979431 
L 551.12501 370.510777 
L 551.12501 370.510777 
" clip-path="url(#p5db532ecd5)" style="fill: none; stroke: #800080; stroke-linecap: round"/>
   </g>
   <g id="patch_3">
    <path d="M 50.87 390.04 
L 50.87 26.88 
" style="fill: none; stroke: #ffffff; stroke-width: 0.8; stroke-linejoin: miter; stroke-linecap: square"/>
   </g>
   <g id="patch_4">
    <path d="M 564.289615 390.04 
L 564.289615 26.88 
" style="fill: none; stroke: #ffffff; stroke-width: 0.8; stroke-linejoin: miter; stroke-linecap: square"/>
   </g>
   <g id="patch_5">
    <path d="M 50.87 390.04 
L 564.289615 390.04 
" style="fill: none; stroke: #ffffff; stroke-width: 0.8; stroke-linejoin: miter; stroke-linecap: square"/>
   </g>
   <g id="patch_6">
    <path d="M 50.87 26.88 
L 564.289615 26.88 
" style="fill: none; stroke: #ffffff; stroke-width: 0.8; stroke-linejoin: miter; stroke-linecap: square"/>
   </g>
   <g id="text_30">
    <!-- cartpole_GNN_mlp -->
    <g style="fill: #262626" transform="translate(251.999183 20.88) scale(0.12 -0.12)">
     <defs>
      <path id="DejaVuSans-63" d="M 3122 3366 
L 3122 2828 
Q 2878 2963 2633 3030 
Q 2388 3097 2138 3097 
Q 1578 3097 1268 2742 
Q 959 2388 959 1747 
Q 959 1106 1268 751 
Q 1578 397 2138 397 
Q 2388 397 2633 464 
Q 2878 531 3122 666 
L 3122 134 
Q 2881 22 2623 -34 
Q 2366 -91 2075 -91 
Q 1284 -91 818 406 
Q 353 903 353 1747 
Q 353 2603 823 3093 
Q 1294 3584 2113 3584 
Q 2378 3584 2631 3529 
Q 2884 3475 3122 3366 
z
" transform="scale(0.015625)"/>
      <path id="DejaVuSans-74" d="M 1172 4494 
L 1172 3500 
L 2356 3500 
L 2356 3053 
L 1172 3053 
L 1172 1153 
Q 1172 725 1289 603 
Q 1406 481 1766 481 
L 2356 481 
L 2356 0 
L 1766 0 
Q 1100 0 847 248 
Q 594 497 594 1153 
L 594 3053 
L 172 3053 
L 172 3500 
L 594 3500 
L 594 4494 
L 1172 4494 
z
" transform="scale(0.015625)"/>
      <path id="DejaVuSans-6c" d="M 603 4863 
L 1178 4863 
L 1178 0 
L 603 0 
L 603 4863 
z
" transform="scale(0.015625)"/>
      <path id="DejaVuSans-5f" d="M 3263 -1063 
L 3263 -1509 
L -63 -1509 
L -63 -1063 
L 3263 -1063 
z
" transform="scale(0.015625)"/>
      <path id="DejaVuSans-47" d="M 3809 666 
L 3809 1919 
L 2778 1919 
L 2778 2438 
L 4434 2438 
L 4434 434 
Q 4069 175 3628 42 
Q 3188 -91 2688 -91 
Q 1594 -91 976 548 
Q 359 1188 359 2328 
Q 359 3472 976 4111 
Q 1594 4750 2688 4750 
Q 3144 4750 3555 4637 
Q 3966 4525 4313 4306 
L 4313 3634 
Q 3963 3931 3569 4081 
Q 3175 4231 2741 4231 
Q 1884 4231 1454 3753 
Q 1025 3275 1025 2328 
Q 1025 1384 1454 906 
Q 1884 428 2741 428 
Q 3075 428 3337 486 
Q 3600 544 3809 666 
z
" transform="scale(0.015625)"/>
      <path id="DejaVuSans-4e" d="M 628 4666 
L 1478 4666 
L 3547 763 
L 3547 4666 
L 4159 4666 
L 4159 0 
L 3309 0 
L 1241 3903 
L 1241 0 
L 628 0 
L 628 4666 
z
" transform="scale(0.015625)"/>
      <path id="DejaVuSans-6d" d="M 3328 2828 
Q 3544 3216 3844 3400 
Q 4144 3584 4550 3584 
Q 5097 3584 5394 3201 
Q 5691 2819 5691 2113 
L 5691 0 
L 5113 0 
L 5113 2094 
Q 5113 2597 4934 2840 
Q 4756 3084 4391 3084 
Q 3944 3084 3684 2787 
Q 3425 2491 3425 1978 
L 3425 0 
L 2847 0 
L 2847 2094 
Q 2847 2600 2669 2842 
Q 2491 3084 2119 3084 
Q 1678 3084 1418 2786 
Q 1159 2488 1159 1978 
L 1159 0 
L 581 0 
L 581 3500 
L 1159 3500 
L 1159 2956 
Q 1356 3278 1631 3431 
Q 1906 3584 2284 3584 
Q 2666 3584 2933 3390 
Q 3200 3197 3328 2828 
z
" transform="scale(0.015625)"/>
     </defs>
     <use xlink:href="#DejaVuSans-63"/>
     <use xlink:href="#DejaVuSans-61" transform="translate(54.980469 0)"/>
     <use xlink:href="#DejaVuSans-72" transform="translate(116.259766 0)"/>
     <use xlink:href="#DejaVuSans-74" transform="translate(157.373047 0)"/>
     <use xlink:href="#DejaVuSans-70" transform="translate(196.582031 0)"/>
     <use xlink:href="#DejaVuSans-6f" transform="translate(260.058594 0)"/>
     <use xlink:href="#DejaVuSans-6c" transform="translate(321.240234 0)"/>
     <use xlink:href="#DejaVuSans-65" transform="translate(349.023438 0)"/>
     <use xlink:href="#DejaVuSans-5f" transform="translate(410.546875 0)"/>
     <use xlink:href="#DejaVuSans-47" transform="translate(460.546875 0)"/>
     <use xlink:href="#DejaVuSans-4e" transform="translate(538.037109 0)"/>
     <use xlink:href="#DejaVuSans-4e" transform="translate(612.841797 0)"/>
     <use xlink:href="#DejaVuSans-5f" transform="translate(687.646484 0)"/>
     <use xlink:href="#DejaVuSans-6d" transform="translate(737.646484 0)"/>
     <use xlink:href="#DejaVuSans-6c" transform="translate(835.058594 0)"/>
     <use xlink:href="#DejaVuSans-70" transform="translate(862.841797 0)"/>
    </g>
   </g>
   <g id="legend_1">
    <g id="patch_7">
     <path d="M 57.87 385.04 
L 226.796563 385.04 
Q 228.796563 385.04 228.796563 383.04 
L 228.796563 310.649375 
Q 228.796563 308.649375 226.796563 308.649375 
L 57.87 308.649375 
Q 55.87 308.649375 55.87 310.649375 
L 55.87 383.04 
Q 55.87 385.04 57.87 385.04 
z
" style="fill: #eaeaf2; opacity: 0.8; stroke: #cccccc; stroke-linejoin: miter"/>
    </g>
    <g id="line2d_36">
     <path d="M 59.87 316.747813 
L 69.87 316.747813 
L 79.87 316.747813 
" style="fill: none; stroke: #0000ff; stroke-width: 1.5; stroke-linecap: round"/>
    </g>
    <g id="text_31">
     <!-- Mean Reward -->
     <g style="fill: #262626" transform="translate(87.87 320.247813) scale(0.1 -0.1)">
      <defs>
       <path id="DejaVuSans-4d" d="M 628 4666 
L 1569 4666 
L 2759 1491 
L 3956 4666 
L 4897 4666 
L 4897 0 
L 4281 0 
L 4281 4097 
L 3078 897 
L 2444 897 
L 1241 4097 
L 1241 0 
L 628 0 
L 628 4666 
z
" transform="scale(0.015625)"/>
       <path id="DejaVuSans-6e" d="M 3513 2113 
L 3513 0 
L 2938 0 
L 2938 2094 
Q 2938 2591 2744 2837 
Q 2550 3084 2163 3084 
Q 1697 3084 1428 2787 
Q 1159 2491 1159 1978 
L 1159 0 
L 581 0 
L 581 3500 
L 1159 3500 
L 1159 2956 
Q 1366 3272 1645 3428 
Q 1925 3584 2291 3584 
Q 2894 3584 3203 3211 
Q 3513 2838 3513 2113 
z
" transform="scale(0.015625)"/>
       <path id="DejaVuSans-20" transform="scale(0.015625)"/>
      </defs>
      <use xlink:href="#DejaVuSans-4d"/>
      <use xlink:href="#DejaVuSans-65" transform="translate(86.279297 0)"/>
      <use xlink:href="#DejaVuSans-61" transform="translate(147.802734 0)"/>
      <use xlink:href="#DejaVuSans-6e" transform="translate(209.082031 0)"/>
      <use xlink:href="#DejaVuSans-20" transform="translate(272.460938 0)"/>
      <use xlink:href="#DejaVuSans-52" transform="translate(304.248047 0)"/>
      <use xlink:href="#DejaVuSans-65" transform="translate(369.230469 0)"/>
      <use xlink:href="#DejaVuSans-77" transform="translate(430.753906 0)"/>
      <use xlink:href="#DejaVuSans-61" transform="translate(512.541016 0)"/>
      <use xlink:href="#DejaVuSans-72" transform="translate(573.820312 0)"/>
      <use xlink:href="#DejaVuSans-64" transform="translate(613.183594 0)"/>
     </g>
    </g>
    <g id="line2d_37">
     <path d="M 59.87 331.425937 
L 69.87 331.425937 
L 79.87 331.425937 
" style="fill: none; stroke: #008000; stroke-opacity: 0.2; stroke-linecap: round"/>
    </g>
    <g id="text_32">
     <!-- Reward (individual runs) -->
     <g style="fill: #262626" transform="translate(87.87 334.925937) scale(0.1 -0.1)">
      <defs>
       <path id="DejaVuSans-28" d="M 1984 4856 
Q 1566 4138 1362 3434 
Q 1159 2731 1159 2009 
Q 1159 1288 1364 580 
Q 1569 -128 1984 -844 
L 1484 -844 
Q 1016 -109 783 600 
Q 550 1309 550 2009 
Q 550 2706 781 3412 
Q 1013 4119 1484 4856 
L 1984 4856 
z
" transform="scale(0.015625)"/>
       <path id="DejaVuSans-76" d="M 191 3500 
L 800 3500 
L 1894 563 
L 2988 3500 
L 3597 3500 
L 2284 0 
L 1503 0 
L 191 3500 
z
" transform="scale(0.015625)"/>
       <path id="DejaVuSans-75" d="M 544 1381 
L 544 3500 
L 1119 3500 
L 1119 1403 
Q 1119 906 1312 657 
Q 1506 409 1894 409 
Q 2359 409 2629 706 
Q 2900 1003 2900 1516 
L 2900 3500 
L 3475 3500 
L 3475 0 
L 2900 0 
L 2900 538 
Q 2691 219 2414 64 
Q 2138 -91 1772 -91 
Q 1169 -91 856 284 
Q 544 659 544 1381 
z
M 1991 3584 
L 1991 3584 
z
" transform="scale(0.015625)"/>
       <path id="DejaVuSans-29" d="M 513 4856 
L 1013 4856 
Q 1481 4119 1714 3412 
Q 1947 2706 1947 2009 
Q 1947 1309 1714 600 
Q 1481 -109 1013 -844 
L 513 -844 
Q 928 -128 1133 580 
Q 1338 1288 1338 2009 
Q 1338 2731 1133 3434 
Q 928 4138 513 4856 
z
" transform="scale(0.015625)"/>
      </defs>
      <use xlink:href="#DejaVuSans-52"/>
      <use xlink:href="#DejaVuSans-65" transform="translate(64.982422 0)"/>
      <use xlink:href="#DejaVuSans-77" transform="translate(126.505859 0)"/>
      <use xlink:href="#DejaVuSans-61" transform="translate(208.292969 0)"/>
      <use xlink:href="#DejaVuSans-72" transform="translate(269.572266 0)"/>
      <use xlink:href="#DejaVuSans-64" transform="translate(308.935547 0)"/>
      <use xlink:href="#DejaVuSans-20" transform="translate(372.412109 0)"/>
      <use xlink:href="#DejaVuSans-28" transform="translate(404.199219 0)"/>
      <use xlink:href="#DejaVuSans-69" transform="translate(443.212891 0)"/>
      <use xlink:href="#DejaVuSans-6e" transform="translate(470.996094 0)"/>
      <use xlink:href="#DejaVuSans-64" transform="translate(534.375 0)"/>
      <use xlink:href="#DejaVuSans-69" transform="translate(597.851562 0)"/>
      <use xlink:href="#DejaVuSans-76" transform="translate(625.634766 0)"/>
      <use xlink:href="#DejaVuSans-69" transform="translate(684.814453 0)"/>
      <use xlink:href="#DejaVuSans-64" transform="translate(712.597656 0)"/>
      <use xlink:href="#DejaVuSans-75" transform="translate(776.074219 0)"/>
      <use xlink:href="#DejaVuSans-61" transform="translate(839.453125 0)"/>
      <use xlink:href="#DejaVuSans-6c" transform="translate(900.732422 0)"/>
      <use xlink:href="#DejaVuSans-20" transform="translate(928.515625 0)"/>
      <use xlink:href="#DejaVuSans-72" transform="translate(960.302734 0)"/>
      <use xlink:href="#DejaVuSans-75" transform="translate(1001.416016 0)"/>
      <use xlink:href="#DejaVuSans-6e" transform="translate(1064.794922 0)"/>
      <use xlink:href="#DejaVuSans-73" transform="translate(1128.173828 0)"/>
      <use xlink:href="#DejaVuSans-29" transform="translate(1180.273438 0)"/>
     </g>
    </g>
    <g id="line2d_38">
     <path d="M 59.87 346.104062 
L 69.87 346.104062 
L 79.87 346.104062 
" style="fill: none; stroke: #ff0000; stroke-linecap: round"/>
    </g>
    <g id="text_33">
     <!-- Noise std (normalized) -->
     <g style="fill: #262626" transform="translate(87.87 349.604062) scale(0.1 -0.1)">
      <defs>
       <path id="DejaVuSans-7a" d="M 353 3500 
L 3084 3500 
L 3084 2975 
L 922 459 
L 3084 459 
L 3084 0 
L 275 0 
L 275 525 
L 2438 3041 
L 353 3041 
L 353 3500 
z
" transform="scale(0.015625)"/>
      </defs>
      <use xlink:href="#DejaVuSans-4e"/>
      <use xlink:href="#DejaVuSans-6f" transform="translate(74.804688 0)"/>
      <use xlink:href="#DejaVuSans-69" transform="translate(135.986328 0)"/>
      <use xlink:href="#DejaVuSans-73" transform="translate(163.769531 0)"/>
      <use xlink:href="#DejaVuSans-65" transform="translate(215.869141 0)"/>
      <use xlink:href="#DejaVuSans-20" transform="translate(277.392578 0)"/>
      <use xlink:href="#DejaVuSans-73" transform="translate(309.179688 0)"/>
      <use xlink:href="#DejaVuSans-74" transform="translate(361.279297 0)"/>
      <use xlink:href="#DejaVuSans-64" transform="translate(400.488281 0)"/>
      <use xlink:href="#DejaVuSans-20" transform="translate(463.964844 0)"/>
      <use xlink:href="#DejaVuSans-28" transform="translate(495.751953 0)"/>
      <use xlink:href="#DejaVuSans-6e" transform="translate(534.765625 0)"/>
      <use xlink:href="#DejaVuSans-6f" transform="translate(598.144531 0)"/>
      <use xlink:href="#DejaVuSans-72" transform="translate(659.326172 0)"/>
      <use xlink:href="#DejaVuSans-6d" transform="translate(698.689453 0)"/>
      <use xlink:href="#DejaVuSans-61" transform="translate(796.101562 0)"/>
      <use xlink:href="#DejaVuSans-6c" transform="translate(857.380859 0)"/>
      <use xlink:href="#DejaVuSans-69" transform="translate(885.164062 0)"/>
      <use xlink:href="#DejaVuSans-7a" transform="translate(912.947266 0)"/>
      <use xlink:href="#DejaVuSans-65" transform="translate(965.4375 0)"/>
      <use xlink:href="#DejaVuSans-64" transform="translate(1026.960938 0)"/>
      <use xlink:href="#DejaVuSans-29" transform="translate(1090.4375 0)"/>
     </g>
    </g>
    <g id="line2d_39">
     <path d="M 59.87 360.782187 
L 69.87 360.782187 
L 79.87 360.782187 
" style="fill: none; stroke: #800080; stroke-linecap: round"/>
    </g>
    <g id="text_34">
     <!-- Entropy (normalized) -->
     <g style="fill: #262626" transform="translate(87.87 364.282187) scale(0.1 -0.1)">
      <defs>
       <path id="DejaVuSans-79" d="M 2059 -325 
Q 1816 -950 1584 -1140 
Q 1353 -1331 966 -1331 
L 506 -1331 
L 506 -850 
L 844 -850 
Q 1081 -850 1212 -737 
Q 1344 -625 1503 -206 
L 1606 56 
L 191 3500 
L 800 3500 
L 1894 763 
L 2988 3500 
L 3597 3500 
L 2059 -325 
z
" transform="scale(0.015625)"/>
      </defs>
      <use xlink:href="#DejaVuSans-45"/>
      <use xlink:href="#DejaVuSans-6e" transform="translate(63.183594 0)"/>
      <use xlink:href="#DejaVuSans-74" transform="translate(126.5625 0)"/>
      <use xlink:href="#DejaVuSans-72" transform="translate(165.771484 0)"/>
      <use xlink:href="#DejaVuSans-6f" transform="translate(204.634766 0)"/>
      <use xlink:href="#DejaVuSans-70" transform="translate(265.816406 0)"/>
      <use xlink:href="#DejaVuSans-79" transform="translate(329.292969 0)"/>
      <use xlink:href="#DejaVuSans-20" transform="translate(388.472656 0)"/>
      <use xlink:href="#DejaVuSans-28" transform="translate(420.259766 0)"/>
      <use xlink:href="#DejaVuSans-6e" transform="translate(459.273438 0)"/>
      <use xlink:href="#DejaVuSans-6f" transform="translate(522.652344 0)"/>
      <use xlink:href="#DejaVuSans-72" transform="translate(583.833984 0)"/>
      <use xlink:href="#DejaVuSans-6d" transform="translate(623.197266 0)"/>
      <use xlink:href="#DejaVuSans-61" transform="translate(720.609375 0)"/>
      <use xlink:href="#DejaVuSans-6c" transform="translate(781.888672 0)"/>
      <use xlink:href="#DejaVuSans-69" transform="translate(809.671875 0)"/>
      <use xlink:href="#DejaVuSans-7a" transform="translate(837.455078 0)"/>
      <use xlink:href="#DejaVuSans-65" transform="translate(889.945312 0)"/>
      <use xlink:href="#DejaVuSans-64" transform="translate(951.46875 0)"/>
      <use xlink:href="#DejaVuSans-29" transform="translate(1014.945312 0)"/>
     </g>
    </g>
    <g id="patch_8">
     <path d="M 59.87 378.960312 
L 79.87 378.960312 
L 79.87 371.960312 
L 59.87 371.960312 
z
" style="fill: #0000ff; fill-opacity: 0.1"/>
    </g>
    <g id="text_35">
     <!-- Reward Standard Deviation -->
     <g style="fill: #262626" transform="translate(87.87 378.960312) scale(0.1 -0.1)">
      <defs>
       <path id="DejaVuSans-53" d="M 3425 4513 
L 3425 3897 
Q 3066 4069 2747 4153 
Q 2428 4238 2131 4238 
Q 1616 4238 1336 4038 
Q 1056 3838 1056 3469 
Q 1056 3159 1242 3001 
Q 1428 2844 1947 2747 
L 2328 2669 
Q 3034 2534 3370 2195 
Q 3706 1856 3706 1288 
Q 3706 609 3251 259 
Q 2797 -91 1919 -91 
Q 1588 -91 1214 -16 
Q 841 59 441 206 
L 441 856 
Q 825 641 1194 531 
Q 1563 422 1919 422 
Q 2459 422 2753 634 
Q 3047 847 3047 1241 
Q 3047 1584 2836 1778 
Q 2625 1972 2144 2069 
L 1759 2144 
Q 1053 2284 737 2584 
Q 422 2884 422 3419 
Q 422 4038 858 4394 
Q 1294 4750 2059 4750 
Q 2388 4750 2728 4690 
Q 3069 4631 3425 4513 
z
" transform="scale(0.015625)"/>
       <path id="DejaVuSans-44" d="M 1259 4147 
L 1259 519 
L 2022 519 
Q 2988 519 3436 956 
Q 3884 1394 3884 2338 
Q 3884 3275 3436 3711 
Q 2988 4147 2022 4147 
L 1259 4147 
z
M 628 4666 
L 1925 4666 
Q 3281 4666 3915 4102 
Q 4550 3538 4550 2338 
Q 4550 1131 3912 565 
Q 3275 0 1925 0 
L 628 0 
L 628 4666 
z
" transform="scale(0.015625)"/>
      </defs>
      <use xlink:href="#DejaVuSans-52"/>
      <use xlink:href="#DejaVuSans-65" transform="translate(64.982422 0)"/>
      <use xlink:href="#DejaVuSans-77" transform="translate(126.505859 0)"/>
      <use xlink:href="#DejaVuSans-61" transform="translate(208.292969 0)"/>
      <use xlink:href="#DejaVuSans-72" transform="translate(269.572266 0)"/>
      <use xlink:href="#DejaVuSans-64" transform="translate(308.935547 0)"/>
      <use xlink:href="#DejaVuSans-20" transform="translate(372.412109 0)"/>
      <use xlink:href="#DejaVuSans-53" transform="translate(404.199219 0)"/>
      <use xlink:href="#DejaVuSans-74" transform="translate(467.675781 0)"/>
      <use xlink:href="#DejaVuSans-61" transform="translate(506.884766 0)"/>
      <use xlink:href="#DejaVuSans-6e" transform="translate(568.164062 0)"/>
      <use xlink:href="#DejaVuSans-64" transform="translate(631.542969 0)"/>
      <use xlink:href="#DejaVuSans-61" transform="translate(695.019531 0)"/>
      <use xlink:href="#DejaVuSans-72" transform="translate(756.298828 0)"/>
      <use xlink:href="#DejaVuSans-64" transform="translate(795.662109 0)"/>
      <use xlink:href="#DejaVuSans-20" transform="translate(859.138672 0)"/>
      <use xlink:href="#DejaVuSans-44" transform="translate(890.925781 0)"/>
      <use xlink:href="#DejaVuSans-65" transform="translate(967.927734 0)"/>
      <use xlink:href="#DejaVuSans-76" transform="translate(1029.451172 0)"/>
      <use xlink:href="#DejaVuSans-69" transform="translate(1088.630859 0)"/>
      <use xlink:href="#DejaVuSans-61" transform="translate(1116.414062 0)"/>
      <use xlink:href="#DejaVuSans-74" transform="translate(1177.693359 0)"/>
      <use xlink:href="#DejaVuSans-69" transform="translate(1216.902344 0)"/>
      <use xlink:href="#DejaVuSans-6f" transform="translate(1244.685547 0)"/>
      <use xlink:href="#DejaVuSans-6e" transform="translate(1305.867188 0)"/>
     </g>
    </g>
   </g>
  </g>
 </g>
 <defs>
  <clipPath id="p5db532ecd5">
   <rect x="50.87" y="26.88" width="513.419615" height="363.16"/>
  </clipPath>
 </defs>
</svg>
