<?xml version="1.0" encoding="utf-8" standalone="no"?>
<!DOCTYPE svg PUBLIC "-//W3C//DTD SVG 1.1//EN"
  "http://www.w3.org/Graphics/SVG/1.1/DTD/svg11.dtd">
<svg xmlns:xlink="http://www.w3.org/1999/xlink" width="576pt" height="432pt" viewBox="0 0 576 432" xmlns="http://www.w3.org/2000/svg" version="1.1">
 <metadata>
  <rdf:RDF xmlns:dc="http://purl.org/dc/elements/1.1/" xmlns:cc="http://creativecommons.org/ns#" xmlns:rdf="http://www.w3.org/1999/02/22-rdf-syntax-ns#">
   <cc:Work>
    <dc:type rdf:resource="http://purl.org/dc/dcmitype/StillImage"/>
    <dc:date>2025-07-07T18:57:51.941210</dc:date>
    <dc:format>image/svg+xml</dc:format>
    <dc:creator>
     <cc:Agent>
      <dc:title>Matplotlib v3.10.0, https://matplotlib.org/</dc:title>
     </cc:Agent>
    </dc:creator>
   </cc:Work>
  </rdf:RDF>
 </metadata>
 <defs>
  <style type="text/css">*{stroke-linejoin: round; stroke-linecap: butt}</style>
 </defs>
 <g id="figure_1">
  <g id="patch_1">
   <path d="M 0 432 
L 576 432 
L 576 0 
L 0 0 
z
" style="fill: #ffffff"/>
  </g>
  <g id="axes_1">
   <g id="patch_2">
    <path d="M 50.87 390.04 
L 564.289615 390.04 
L 564.289615 26.88 
L 50.87 26.88 
z
" style="fill: #eaeaf2"/>
   </g>
   <g id="matplotlib.axis_1">
    <g id="xtick_1">
     <g id="line2d_1">
      <path d="M 60.743454 390.04 
L 60.743454 26.88 
" clip-path="url(#peda0dd63f0)" style="fill: none; stroke: #ffffff; stroke-width: 0.8; stroke-linecap: round"/>
     </g>
     <g id="text_1">
      <!-- 0 -->
      <g style="fill: #262626" transform="translate(57.562204 404.638438) scale(0.1 -0.1)">
       <defs>
        <path id="DejaVuSans-30" d="M 2034 4250 
Q 1547 4250 1301 3770 
Q 1056 3291 1056 2328 
Q 1056 1369 1301 889 
Q 1547 409 2034 409 
Q 2525 409 2770 889 
Q 3016 1369 3016 2328 
Q 3016 3291 2770 3770 
Q 2525 4250 2034 4250 
z
M 2034 4750 
Q 2819 4750 3233 4129 
Q 3647 3509 3647 2328 
Q 3647 1150 3233 529 
Q 2819 -91 2034 -91 
Q 1250 -91 836 529 
Q 422 1150 422 2328 
Q 422 3509 836 4129 
Q 1250 4750 2034 4750 
z
" transform="scale(0.015625)"/>
       </defs>
       <use xlink:href="#DejaVuSans-30"/>
      </g>
     </g>
    </g>
    <g id="xtick_2">
     <g id="line2d_2">
      <path d="M 93.654968 390.04 
L 93.654968 26.88 
" clip-path="url(#peda0dd63f0)" style="fill: none; stroke: #ffffff; stroke-width: 0.8; stroke-linecap: round"/>
     </g>
     <g id="text_2">
      <!-- 10 -->
      <g style="fill: #262626" transform="translate(87.292468 404.638438) scale(0.1 -0.1)">
       <defs>
        <path id="DejaVuSans-31" d="M 794 531 
L 1825 531 
L 1825 4091 
L 703 3866 
L 703 4441 
L 1819 4666 
L 2450 4666 
L 2450 531 
L 3481 531 
L 3481 0 
L 794 0 
L 794 531 
z
" transform="scale(0.015625)"/>
       </defs>
       <use xlink:href="#DejaVuSans-31"/>
       <use xlink:href="#DejaVuSans-30" transform="translate(63.623047 0)"/>
      </g>
     </g>
    </g>
    <g id="xtick_3">
     <g id="line2d_3">
      <path d="M 126.566482 390.04 
L 126.566482 26.88 
" clip-path="url(#peda0dd63f0)" style="fill: none; stroke: #ffffff; stroke-width: 0.8; stroke-linecap: round"/>
     </g>
     <g id="text_3">
      <!-- 20 -->
      <g style="fill: #262626" transform="translate(120.203982 404.638438) scale(0.1 -0.1)">
       <defs>
        <path id="DejaVuSans-32" d="M 1228 531 
L 3431 531 
L 3431 0 
L 469 0 
L 469 531 
Q 828 903 1448 1529 
Q 2069 2156 2228 2338 
Q 2531 2678 2651 2914 
Q 2772 3150 2772 3378 
Q 2772 3750 2511 3984 
Q 2250 4219 1831 4219 
Q 1534 4219 1204 4116 
Q 875 4013 500 3803 
L 500 4441 
Q 881 4594 1212 4672 
Q 1544 4750 1819 4750 
Q 2544 4750 2975 4387 
Q 3406 4025 3406 3419 
Q 3406 3131 3298 2873 
Q 3191 2616 2906 2266 
Q 2828 2175 2409 1742 
Q 1991 1309 1228 531 
z
" transform="scale(0.015625)"/>
       </defs>
       <use xlink:href="#DejaVuSans-32"/>
       <use xlink:href="#DejaVuSans-30" transform="translate(63.623047 0)"/>
      </g>
     </g>
    </g>
    <g id="xtick_4">
     <g id="line2d_4">
      <path d="M 159.477996 390.04 
L 159.477996 26.88 
" clip-path="url(#peda0dd63f0)" style="fill: none; stroke: #ffffff; stroke-width: 0.8; stroke-linecap: round"/>
     </g>
     <g id="text_4">
      <!-- 30 -->
      <g style="fill: #262626" transform="translate(153.115496 404.638438) scale(0.1 -0.1)">
       <defs>
        <path id="DejaVuSans-33" d="M 2597 2516 
Q 3050 2419 3304 2112 
Q 3559 1806 3559 1356 
Q 3559 666 3084 287 
Q 2609 -91 1734 -91 
Q 1441 -91 1130 -33 
Q 819 25 488 141 
L 488 750 
Q 750 597 1062 519 
Q 1375 441 1716 441 
Q 2309 441 2620 675 
Q 2931 909 2931 1356 
Q 2931 1769 2642 2001 
Q 2353 2234 1838 2234 
L 1294 2234 
L 1294 2753 
L 1863 2753 
Q 2328 2753 2575 2939 
Q 2822 3125 2822 3475 
Q 2822 3834 2567 4026 
Q 2313 4219 1838 4219 
Q 1578 4219 1281 4162 
Q 984 4106 628 3988 
L 628 4550 
Q 988 4650 1302 4700 
Q 1616 4750 1894 4750 
Q 2613 4750 3031 4423 
Q 3450 4097 3450 3541 
Q 3450 3153 3228 2886 
Q 3006 2619 2597 2516 
z
" transform="scale(0.015625)"/>
       </defs>
       <use xlink:href="#DejaVuSans-33"/>
       <use xlink:href="#DejaVuSans-30" transform="translate(63.623047 0)"/>
      </g>
     </g>
    </g>
    <g id="xtick_5">
     <g id="line2d_5">
      <path d="M 192.389509 390.04 
L 192.389509 26.88 
" clip-path="url(#peda0dd63f0)" style="fill: none; stroke: #ffffff; stroke-width: 0.8; stroke-linecap: round"/>
     </g>
     <g id="text_5">
      <!-- 40 -->
      <g style="fill: #262626" transform="translate(186.027009 404.638438) scale(0.1 -0.1)">
       <defs>
        <path id="DejaVuSans-34" d="M 2419 4116 
L 825 1625 
L 2419 1625 
L 2419 4116 
z
M 2253 4666 
L 3047 4666 
L 3047 1625 
L 3713 1625 
L 3713 1100 
L 3047 1100 
L 3047 0 
L 2419 0 
L 2419 1100 
L 313 1100 
L 313 1709 
L 2253 4666 
z
" transform="scale(0.015625)"/>
       </defs>
       <use xlink:href="#DejaVuSans-34"/>
       <use xlink:href="#DejaVuSans-30" transform="translate(63.623047 0)"/>
      </g>
     </g>
    </g>
    <g id="xtick_6">
     <g id="line2d_6">
      <path d="M 225.301023 390.04 
L 225.301023 26.88 
" clip-path="url(#peda0dd63f0)" style="fill: none; stroke: #ffffff; stroke-width: 0.8; stroke-linecap: round"/>
     </g>
     <g id="text_6">
      <!-- 50 -->
      <g style="fill: #262626" transform="translate(218.938523 404.638438) scale(0.1 -0.1)">
       <defs>
        <path id="DejaVuSans-35" d="M 691 4666 
L 3169 4666 
L 3169 4134 
L 1269 4134 
L 1269 2991 
Q 1406 3038 1543 3061 
Q 1681 3084 1819 3084 
Q 2600 3084 3056 2656 
Q 3513 2228 3513 1497 
Q 3513 744 3044 326 
Q 2575 -91 1722 -91 
Q 1428 -91 1123 -41 
Q 819 9 494 109 
L 494 744 
Q 775 591 1075 516 
Q 1375 441 1709 441 
Q 2250 441 2565 725 
Q 2881 1009 2881 1497 
Q 2881 1984 2565 2268 
Q 2250 2553 1709 2553 
Q 1456 2553 1204 2497 
Q 953 2441 691 2322 
L 691 4666 
z
" transform="scale(0.015625)"/>
       </defs>
       <use xlink:href="#DejaVuSans-35"/>
       <use xlink:href="#DejaVuSans-30" transform="translate(63.623047 0)"/>
      </g>
     </g>
    </g>
    <g id="xtick_7">
     <g id="line2d_7">
      <path d="M 258.212537 390.04 
L 258.212537 26.88 
" clip-path="url(#peda0dd63f0)" style="fill: none; stroke: #ffffff; stroke-width: 0.8; stroke-linecap: round"/>
     </g>
     <g id="text_7">
      <!-- 60 -->
      <g style="fill: #262626" transform="translate(251.850037 404.638438) scale(0.1 -0.1)">
       <defs>
        <path id="DejaVuSans-36" d="M 2113 2584 
Q 1688 2584 1439 2293 
Q 1191 2003 1191 1497 
Q 1191 994 1439 701 
Q 1688 409 2113 409 
Q 2538 409 2786 701 
Q 3034 994 3034 1497 
Q 3034 2003 2786 2293 
Q 2538 2584 2113 2584 
z
M 3366 4563 
L 3366 3988 
Q 3128 4100 2886 4159 
Q 2644 4219 2406 4219 
Q 1781 4219 1451 3797 
Q 1122 3375 1075 2522 
Q 1259 2794 1537 2939 
Q 1816 3084 2150 3084 
Q 2853 3084 3261 2657 
Q 3669 2231 3669 1497 
Q 3669 778 3244 343 
Q 2819 -91 2113 -91 
Q 1303 -91 875 529 
Q 447 1150 447 2328 
Q 447 3434 972 4092 
Q 1497 4750 2381 4750 
Q 2619 4750 2861 4703 
Q 3103 4656 3366 4563 
z
" transform="scale(0.015625)"/>
       </defs>
       <use xlink:href="#DejaVuSans-36"/>
       <use xlink:href="#DejaVuSans-30" transform="translate(63.623047 0)"/>
      </g>
     </g>
    </g>
    <g id="xtick_8">
     <g id="line2d_8">
      <path d="M 291.124051 390.04 
L 291.124051 26.88 
" clip-path="url(#peda0dd63f0)" style="fill: none; stroke: #ffffff; stroke-width: 0.8; stroke-linecap: round"/>
     </g>
     <g id="text_8">
      <!-- 70 -->
      <g style="fill: #262626" transform="translate(284.761551 404.638438) scale(0.1 -0.1)">
       <defs>
        <path id="DejaVuSans-37" d="M 525 4666 
L 3525 4666 
L 3525 4397 
L 1831 0 
L 1172 0 
L 2766 4134 
L 525 4134 
L 525 4666 
z
" transform="scale(0.015625)"/>
       </defs>
       <use xlink:href="#DejaVuSans-37"/>
       <use xlink:href="#DejaVuSans-30" transform="translate(63.623047 0)"/>
      </g>
     </g>
    </g>
    <g id="xtick_9">
     <g id="line2d_9">
      <path d="M 324.035565 390.04 
L 324.035565 26.88 
" clip-path="url(#peda0dd63f0)" style="fill: none; stroke: #ffffff; stroke-width: 0.8; stroke-linecap: round"/>
     </g>
     <g id="text_9">
      <!-- 80 -->
      <g style="fill: #262626" transform="translate(317.673065 404.638438) scale(0.1 -0.1)">
       <defs>
        <path id="DejaVuSans-38" d="M 2034 2216 
Q 1584 2216 1326 1975 
Q 1069 1734 1069 1313 
Q 1069 891 1326 650 
Q 1584 409 2034 409 
Q 2484 409 2743 651 
Q 3003 894 3003 1313 
Q 3003 1734 2745 1975 
Q 2488 2216 2034 2216 
z
M 1403 2484 
Q 997 2584 770 2862 
Q 544 3141 544 3541 
Q 544 4100 942 4425 
Q 1341 4750 2034 4750 
Q 2731 4750 3128 4425 
Q 3525 4100 3525 3541 
Q 3525 3141 3298 2862 
Q 3072 2584 2669 2484 
Q 3125 2378 3379 2068 
Q 3634 1759 3634 1313 
Q 3634 634 3220 271 
Q 2806 -91 2034 -91 
Q 1263 -91 848 271 
Q 434 634 434 1313 
Q 434 1759 690 2068 
Q 947 2378 1403 2484 
z
M 1172 3481 
Q 1172 3119 1398 2916 
Q 1625 2713 2034 2713 
Q 2441 2713 2670 2916 
Q 2900 3119 2900 3481 
Q 2900 3844 2670 4047 
Q 2441 4250 2034 4250 
Q 1625 4250 1398 4047 
Q 1172 3844 1172 3481 
z
" transform="scale(0.015625)"/>
       </defs>
       <use xlink:href="#DejaVuSans-38"/>
       <use xlink:href="#DejaVuSans-30" transform="translate(63.623047 0)"/>
      </g>
     </g>
    </g>
    <g id="xtick_10">
     <g id="line2d_10">
      <path d="M 356.947078 390.04 
L 356.947078 26.88 
" clip-path="url(#peda0dd63f0)" style="fill: none; stroke: #ffffff; stroke-width: 0.8; stroke-linecap: round"/>
     </g>
     <g id="text_10">
      <!-- 90 -->
      <g style="fill: #262626" transform="translate(350.584578 404.638438) scale(0.1 -0.1)">
       <defs>
        <path id="DejaVuSans-39" d="M 703 97 
L 703 672 
Q 941 559 1184 500 
Q 1428 441 1663 441 
Q 2288 441 2617 861 
Q 2947 1281 2994 2138 
Q 2813 1869 2534 1725 
Q 2256 1581 1919 1581 
Q 1219 1581 811 2004 
Q 403 2428 403 3163 
Q 403 3881 828 4315 
Q 1253 4750 1959 4750 
Q 2769 4750 3195 4129 
Q 3622 3509 3622 2328 
Q 3622 1225 3098 567 
Q 2575 -91 1691 -91 
Q 1453 -91 1209 -44 
Q 966 3 703 97 
z
M 1959 2075 
Q 2384 2075 2632 2365 
Q 2881 2656 2881 3163 
Q 2881 3666 2632 3958 
Q 2384 4250 1959 4250 
Q 1534 4250 1286 3958 
Q 1038 3666 1038 3163 
Q 1038 2656 1286 2365 
Q 1534 2075 1959 2075 
z
" transform="scale(0.015625)"/>
       </defs>
       <use xlink:href="#DejaVuSans-39"/>
       <use xlink:href="#DejaVuSans-30" transform="translate(63.623047 0)"/>
      </g>
     </g>
    </g>
    <g id="xtick_11">
     <g id="line2d_11">
      <path d="M 389.858592 390.04 
L 389.858592 26.88 
" clip-path="url(#peda0dd63f0)" style="fill: none; stroke: #ffffff; stroke-width: 0.8; stroke-linecap: round"/>
     </g>
     <g id="text_11">
      <!-- 100 -->
      <g style="fill: #262626" transform="translate(380.314842 404.638438) scale(0.1 -0.1)">
       <use xlink:href="#DejaVuSans-31"/>
       <use xlink:href="#DejaVuSans-30" transform="translate(63.623047 0)"/>
       <use xlink:href="#DejaVuSans-30" transform="translate(127.246094 0)"/>
      </g>
     </g>
    </g>
    <g id="xtick_12">
     <g id="line2d_12">
      <path d="M 422.770106 390.04 
L 422.770106 26.88 
" clip-path="url(#peda0dd63f0)" style="fill: none; stroke: #ffffff; stroke-width: 0.8; stroke-linecap: round"/>
     </g>
     <g id="text_12">
      <!-- 110 -->
      <g style="fill: #262626" transform="translate(413.226356 404.638438) scale(0.1 -0.1)">
       <use xlink:href="#DejaVuSans-31"/>
       <use xlink:href="#DejaVuSans-31" transform="translate(63.623047 0)"/>
       <use xlink:href="#DejaVuSans-30" transform="translate(127.246094 0)"/>
      </g>
     </g>
    </g>
    <g id="xtick_13">
     <g id="line2d_13">
      <path d="M 455.68162 390.04 
L 455.68162 26.88 
" clip-path="url(#peda0dd63f0)" style="fill: none; stroke: #ffffff; stroke-width: 0.8; stroke-linecap: round"/>
     </g>
     <g id="text_13">
      <!-- 120 -->
      <g style="fill: #262626" transform="translate(446.13787 404.638438) scale(0.1 -0.1)">
       <use xlink:href="#DejaVuSans-31"/>
       <use xlink:href="#DejaVuSans-32" transform="translate(63.623047 0)"/>
       <use xlink:href="#DejaVuSans-30" transform="translate(127.246094 0)"/>
      </g>
     </g>
    </g>
    <g id="xtick_14">
     <g id="line2d_14">
      <path d="M 488.593134 390.04 
L 488.593134 26.88 
" clip-path="url(#peda0dd63f0)" style="fill: none; stroke: #ffffff; stroke-width: 0.8; stroke-linecap: round"/>
     </g>
     <g id="text_14">
      <!-- 130 -->
      <g style="fill: #262626" transform="translate(479.049384 404.638438) scale(0.1 -0.1)">
       <use xlink:href="#DejaVuSans-31"/>
       <use xlink:href="#DejaVuSans-33" transform="translate(63.623047 0)"/>
       <use xlink:href="#DejaVuSans-30" transform="translate(127.246094 0)"/>
      </g>
     </g>
    </g>
    <g id="xtick_15">
     <g id="line2d_15">
      <path d="M 521.504647 390.04 
L 521.504647 26.88 
" clip-path="url(#peda0dd63f0)" style="fill: none; stroke: #ffffff; stroke-width: 0.8; stroke-linecap: round"/>
     </g>
     <g id="text_15">
      <!-- 140 -->
      <g style="fill: #262626" transform="translate(511.960897 404.638438) scale(0.1 -0.1)">
       <use xlink:href="#DejaVuSans-31"/>
       <use xlink:href="#DejaVuSans-34" transform="translate(63.623047 0)"/>
       <use xlink:href="#DejaVuSans-30" transform="translate(127.246094 0)"/>
      </g>
     </g>
    </g>
    <g id="xtick_16">
     <g id="line2d_16">
      <path d="M 554.416161 390.04 
L 554.416161 26.88 
" clip-path="url(#peda0dd63f0)" style="fill: none; stroke: #ffffff; stroke-width: 0.8; stroke-linecap: round"/>
     </g>
     <g id="text_16">
      <!-- 150 -->
      <g style="fill: #262626" transform="translate(544.872411 404.638438) scale(0.1 -0.1)">
       <use xlink:href="#DejaVuSans-31"/>
       <use xlink:href="#DejaVuSans-35" transform="translate(63.623047 0)"/>
       <use xlink:href="#DejaVuSans-30" transform="translate(127.246094 0)"/>
      </g>
     </g>
    </g>
    <g id="text_17">
     <!-- Episode -->
     <g style="fill: #262626" transform="translate(287.942308 418.316562) scale(0.1 -0.1)">
      <defs>
       <path id="DejaVuSans-45" d="M 628 4666 
L 3578 4666 
L 3578 4134 
L 1259 4134 
L 1259 2753 
L 3481 2753 
L 3481 2222 
L 1259 2222 
L 1259 531 
L 3634 531 
L 3634 0 
L 628 0 
L 628 4666 
z
" transform="scale(0.015625)"/>
       <path id="DejaVuSans-70" d="M 1159 525 
L 1159 -1331 
L 581 -1331 
L 581 3500 
L 1159 3500 
L 1159 2969 
Q 1341 3281 1617 3432 
Q 1894 3584 2278 3584 
Q 2916 3584 3314 3078 
Q 3713 2572 3713 1747 
Q 3713 922 3314 415 
Q 2916 -91 2278 -91 
Q 1894 -91 1617 61 
Q 1341 213 1159 525 
z
M 3116 1747 
Q 3116 2381 2855 2742 
Q 2594 3103 2138 3103 
Q 1681 3103 1420 2742 
Q 1159 2381 1159 1747 
Q 1159 1113 1420 752 
Q 1681 391 2138 391 
Q 2594 391 2855 752 
Q 3116 1113 3116 1747 
z
" transform="scale(0.015625)"/>
       <path id="DejaVuSans-69" d="M 603 3500 
L 1178 3500 
L 1178 0 
L 603 0 
L 603 3500 
z
M 603 4863 
L 1178 4863 
L 1178 4134 
L 603 4134 
L 603 4863 
z
" transform="scale(0.015625)"/>
       <path id="DejaVuSans-73" d="M 2834 3397 
L 2834 2853 
Q 2591 2978 2328 3040 
Q 2066 3103 1784 3103 
Q 1356 3103 1142 2972 
Q 928 2841 928 2578 
Q 928 2378 1081 2264 
Q 1234 2150 1697 2047 
L 1894 2003 
Q 2506 1872 2764 1633 
Q 3022 1394 3022 966 
Q 3022 478 2636 193 
Q 2250 -91 1575 -91 
Q 1294 -91 989 -36 
Q 684 19 347 128 
L 347 722 
Q 666 556 975 473 
Q 1284 391 1588 391 
Q 1994 391 2212 530 
Q 2431 669 2431 922 
Q 2431 1156 2273 1281 
Q 2116 1406 1581 1522 
L 1381 1569 
Q 847 1681 609 1914 
Q 372 2147 372 2553 
Q 372 3047 722 3315 
Q 1072 3584 1716 3584 
Q 2034 3584 2315 3537 
Q 2597 3491 2834 3397 
z
" transform="scale(0.015625)"/>
       <path id="DejaVuSans-6f" d="M 1959 3097 
Q 1497 3097 1228 2736 
Q 959 2375 959 1747 
Q 959 1119 1226 758 
Q 1494 397 1959 397 
Q 2419 397 2687 759 
Q 2956 1122 2956 1747 
Q 2956 2369 2687 2733 
Q 2419 3097 1959 3097 
z
M 1959 3584 
Q 2709 3584 3137 3096 
Q 3566 2609 3566 1747 
Q 3566 888 3137 398 
Q 2709 -91 1959 -91 
Q 1206 -91 779 398 
Q 353 888 353 1747 
Q 353 2609 779 3096 
Q 1206 3584 1959 3584 
z
" transform="scale(0.015625)"/>
       <path id="DejaVuSans-64" d="M 2906 2969 
L 2906 4863 
L 3481 4863 
L 3481 0 
L 2906 0 
L 2906 525 
Q 2725 213 2448 61 
Q 2172 -91 1784 -91 
Q 1150 -91 751 415 
Q 353 922 353 1747 
Q 353 2572 751 3078 
Q 1150 3584 1784 3584 
Q 2172 3584 2448 3432 
Q 2725 3281 2906 2969 
z
M 947 1747 
Q 947 1113 1208 752 
Q 1469 391 1925 391 
Q 2381 391 2643 752 
Q 2906 1113 2906 1747 
Q 2906 2381 2643 2742 
Q 2381 3103 1925 3103 
Q 1469 3103 1208 2742 
Q 947 2381 947 1747 
z
" transform="scale(0.015625)"/>
       <path id="DejaVuSans-65" d="M 3597 1894 
L 3597 1613 
L 953 1613 
Q 991 1019 1311 708 
Q 1631 397 2203 397 
Q 2534 397 2845 478 
Q 3156 559 3463 722 
L 3463 178 
Q 3153 47 2828 -22 
Q 2503 -91 2169 -91 
Q 1331 -91 842 396 
Q 353 884 353 1716 
Q 353 2575 817 3079 
Q 1281 3584 2069 3584 
Q 2775 3584 3186 3129 
Q 3597 2675 3597 1894 
z
M 3022 2063 
Q 3016 2534 2758 2815 
Q 2500 3097 2075 3097 
Q 1594 3097 1305 2825 
Q 1016 2553 972 2059 
L 3022 2063 
z
" transform="scale(0.015625)"/>
      </defs>
      <use xlink:href="#DejaVuSans-45"/>
      <use xlink:href="#DejaVuSans-70" transform="translate(63.183594 0)"/>
      <use xlink:href="#DejaVuSans-69" transform="translate(126.660156 0)"/>
      <use xlink:href="#DejaVuSans-73" transform="translate(154.443359 0)"/>
      <use xlink:href="#DejaVuSans-6f" transform="translate(206.542969 0)"/>
      <use xlink:href="#DejaVuSans-64" transform="translate(267.724609 0)"/>
      <use xlink:href="#DejaVuSans-65" transform="translate(331.201172 0)"/>
     </g>
    </g>
   </g>
   <g id="matplotlib.axis_2">
    <g id="ytick_1">
     <g id="line2d_17">
      <path d="M 50.87 390.04 
L 564.289615 390.04 
" clip-path="url(#peda0dd63f0)" style="fill: none; stroke: #ffffff; stroke-width: 0.8; stroke-linecap: round"/>
     </g>
     <g id="text_18">
      <!-- 0 -->
      <g style="fill: #262626" transform="translate(37.5075 393.839219) scale(0.1 -0.1)">
       <use xlink:href="#DejaVuSans-30"/>
      </g>
     </g>
    </g>
    <g id="ytick_2">
     <g id="line2d_18">
      <path d="M 50.87 355.120769 
L 564.289615 355.120769 
" clip-path="url(#peda0dd63f0)" style="fill: none; stroke: #ffffff; stroke-width: 0.8; stroke-linecap: round"/>
     </g>
     <g id="text_19">
      <!-- 50 -->
      <g style="fill: #262626" transform="translate(31.145 358.919988) scale(0.1 -0.1)">
       <use xlink:href="#DejaVuSans-35"/>
       <use xlink:href="#DejaVuSans-30" transform="translate(63.623047 0)"/>
      </g>
     </g>
    </g>
    <g id="ytick_3">
     <g id="line2d_19">
      <path d="M 50.87 320.201538 
L 564.289615 320.201538 
" clip-path="url(#peda0dd63f0)" style="fill: none; stroke: #ffffff; stroke-width: 0.8; stroke-linecap: round"/>
     </g>
     <g id="text_20">
      <!-- 100 -->
      <g style="fill: #262626" transform="translate(24.7825 324.000757) scale(0.1 -0.1)">
       <use xlink:href="#DejaVuSans-31"/>
       <use xlink:href="#DejaVuSans-30" transform="translate(63.623047 0)"/>
       <use xlink:href="#DejaVuSans-30" transform="translate(127.246094 0)"/>
      </g>
     </g>
    </g>
    <g id="ytick_4">
     <g id="line2d_20">
      <path d="M 50.87 285.282308 
L 564.289615 285.282308 
" clip-path="url(#peda0dd63f0)" style="fill: none; stroke: #ffffff; stroke-width: 0.8; stroke-linecap: round"/>
     </g>
     <g id="text_21">
      <!-- 150 -->
      <g style="fill: #262626" transform="translate(24.7825 289.081526) scale(0.1 -0.1)">
       <use xlink:href="#DejaVuSans-31"/>
       <use xlink:href="#DejaVuSans-35" transform="translate(63.623047 0)"/>
       <use xlink:href="#DejaVuSans-30" transform="translate(127.246094 0)"/>
      </g>
     </g>
    </g>
    <g id="ytick_5">
     <g id="line2d_21">
      <path d="M 50.87 250.363077 
L 564.289615 250.363077 
" clip-path="url(#peda0dd63f0)" style="fill: none; stroke: #ffffff; stroke-width: 0.8; stroke-linecap: round"/>
     </g>
     <g id="text_22">
      <!-- 200 -->
      <g style="fill: #262626" transform="translate(24.7825 254.162296) scale(0.1 -0.1)">
       <use xlink:href="#DejaVuSans-32"/>
       <use xlink:href="#DejaVuSans-30" transform="translate(63.623047 0)"/>
       <use xlink:href="#DejaVuSans-30" transform="translate(127.246094 0)"/>
      </g>
     </g>
    </g>
    <g id="ytick_6">
     <g id="line2d_22">
      <path d="M 50.87 215.443846 
L 564.289615 215.443846 
" clip-path="url(#peda0dd63f0)" style="fill: none; stroke: #ffffff; stroke-width: 0.8; stroke-linecap: round"/>
     </g>
     <g id="text_23">
      <!-- 250 -->
      <g style="fill: #262626" transform="translate(24.7825 219.243065) scale(0.1 -0.1)">
       <use xlink:href="#DejaVuSans-32"/>
       <use xlink:href="#DejaVuSans-35" transform="translate(63.623047 0)"/>
       <use xlink:href="#DejaVuSans-30" transform="translate(127.246094 0)"/>
      </g>
     </g>
    </g>
    <g id="ytick_7">
     <g id="line2d_23">
      <path d="M 50.87 180.524615 
L 564.289615 180.524615 
" clip-path="url(#peda0dd63f0)" style="fill: none; stroke: #ffffff; stroke-width: 0.8; stroke-linecap: round"/>
     </g>
     <g id="text_24">
      <!-- 300 -->
      <g style="fill: #262626" transform="translate(24.7825 184.323834) scale(0.1 -0.1)">
       <use xlink:href="#DejaVuSans-33"/>
       <use xlink:href="#DejaVuSans-30" transform="translate(63.623047 0)"/>
       <use xlink:href="#DejaVuSans-30" transform="translate(127.246094 0)"/>
      </g>
     </g>
    </g>
    <g id="ytick_8">
     <g id="line2d_24">
      <path d="M 50.87 145.605385 
L 564.289615 145.605385 
" clip-path="url(#peda0dd63f0)" style="fill: none; stroke: #ffffff; stroke-width: 0.8; stroke-linecap: round"/>
     </g>
     <g id="text_25">
      <!-- 350 -->
      <g style="fill: #262626" transform="translate(24.7825 149.404603) scale(0.1 -0.1)">
       <use xlink:href="#DejaVuSans-33"/>
       <use xlink:href="#DejaVuSans-35" transform="translate(63.623047 0)"/>
       <use xlink:href="#DejaVuSans-30" transform="translate(127.246094 0)"/>
      </g>
     </g>
    </g>
    <g id="ytick_9">
     <g id="line2d_25">
      <path d="M 50.87 110.686154 
L 564.289615 110.686154 
" clip-path="url(#peda0dd63f0)" style="fill: none; stroke: #ffffff; stroke-width: 0.8; stroke-linecap: round"/>
     </g>
     <g id="text_26">
      <!-- 400 -->
      <g style="fill: #262626" transform="translate(24.7825 114.485373) scale(0.1 -0.1)">
       <use xlink:href="#DejaVuSans-34"/>
       <use xlink:href="#DejaVuSans-30" transform="translate(63.623047 0)"/>
       <use xlink:href="#DejaVuSans-30" transform="translate(127.246094 0)"/>
      </g>
     </g>
    </g>
    <g id="ytick_10">
     <g id="line2d_26">
      <path d="M 50.87 75.766923 
L 564.289615 75.766923 
" clip-path="url(#peda0dd63f0)" style="fill: none; stroke: #ffffff; stroke-width: 0.8; stroke-linecap: round"/>
     </g>
     <g id="text_27">
      <!-- 450 -->
      <g style="fill: #262626" transform="translate(24.7825 79.566142) scale(0.1 -0.1)">
       <use xlink:href="#DejaVuSans-34"/>
       <use xlink:href="#DejaVuSans-35" transform="translate(63.623047 0)"/>
       <use xlink:href="#DejaVuSans-30" transform="translate(127.246094 0)"/>
      </g>
     </g>
    </g>
    <g id="ytick_11">
     <g id="line2d_27">
      <path d="M 50.87 40.847692 
L 564.289615 40.847692 
" clip-path="url(#peda0dd63f0)" style="fill: none; stroke: #ffffff; stroke-width: 0.8; stroke-linecap: round"/>
     </g>
     <g id="text_28">
      <!-- 500 -->
      <g style="fill: #262626" transform="translate(24.7825 44.646911) scale(0.1 -0.1)">
       <use xlink:href="#DejaVuSans-35"/>
       <use xlink:href="#DejaVuSans-30" transform="translate(63.623047 0)"/>
       <use xlink:href="#DejaVuSans-30" transform="translate(127.246094 0)"/>
      </g>
     </g>
    </g>
    <g id="text_29">
     <!-- Reward -->
     <g style="fill: #262626" transform="translate(18.702813 227.081094) rotate(-90) scale(0.1 -0.1)">
      <defs>
       <path id="DejaVuSans-52" d="M 2841 2188 
Q 3044 2119 3236 1894 
Q 3428 1669 3622 1275 
L 4263 0 
L 3584 0 
L 2988 1197 
Q 2756 1666 2539 1819 
Q 2322 1972 1947 1972 
L 1259 1972 
L 1259 0 
L 628 0 
L 628 4666 
L 2053 4666 
Q 2853 4666 3247 4331 
Q 3641 3997 3641 3322 
Q 3641 2881 3436 2590 
Q 3231 2300 2841 2188 
z
M 1259 4147 
L 1259 2491 
L 2053 2491 
Q 2509 2491 2742 2702 
Q 2975 2913 2975 3322 
Q 2975 3731 2742 3939 
Q 2509 4147 2053 4147 
L 1259 4147 
z
" transform="scale(0.015625)"/>
       <path id="DejaVuSans-77" d="M 269 3500 
L 844 3500 
L 1563 769 
L 2278 3500 
L 2956 3500 
L 3675 769 
L 4391 3500 
L 4966 3500 
L 4050 0 
L 3372 0 
L 2619 2869 
L 1863 0 
L 1184 0 
L 269 3500 
z
" transform="scale(0.015625)"/>
       <path id="DejaVuSans-61" d="M 2194 1759 
Q 1497 1759 1228 1600 
Q 959 1441 959 1056 
Q 959 750 1161 570 
Q 1363 391 1709 391 
Q 2188 391 2477 730 
Q 2766 1069 2766 1631 
L 2766 1759 
L 2194 1759 
z
M 3341 1997 
L 3341 0 
L 2766 0 
L 2766 531 
Q 2569 213 2275 61 
Q 1981 -91 1556 -91 
Q 1019 -91 701 211 
Q 384 513 384 1019 
Q 384 1609 779 1909 
Q 1175 2209 1959 2209 
L 2766 2209 
L 2766 2266 
Q 2766 2663 2505 2880 
Q 2244 3097 1772 3097 
Q 1472 3097 1187 3025 
Q 903 2953 641 2809 
L 641 3341 
Q 956 3463 1253 3523 
Q 1550 3584 1831 3584 
Q 2591 3584 2966 3190 
Q 3341 2797 3341 1997 
z
" transform="scale(0.015625)"/>
       <path id="DejaVuSans-72" d="M 2631 2963 
Q 2534 3019 2420 3045 
Q 2306 3072 2169 3072 
Q 1681 3072 1420 2755 
Q 1159 2438 1159 1844 
L 1159 0 
L 581 0 
L 581 3500 
L 1159 3500 
L 1159 2956 
Q 1341 3275 1631 3429 
Q 1922 3584 2338 3584 
Q 2397 3584 2469 3576 
Q 2541 3569 2628 3553 
L 2631 2963 
z
" transform="scale(0.015625)"/>
      </defs>
      <use xlink:href="#DejaVuSans-52"/>
      <use xlink:href="#DejaVuSans-65" transform="translate(64.982422 0)"/>
      <use xlink:href="#DejaVuSans-77" transform="translate(126.505859 0)"/>
      <use xlink:href="#DejaVuSans-61" transform="translate(208.292969 0)"/>
      <use xlink:href="#DejaVuSans-72" transform="translate(269.572266 0)"/>
      <use xlink:href="#DejaVuSans-64" transform="translate(308.935547 0)"/>
     </g>
    </g>
   </g>
   <g id="FillBetweenPolyCollection_1">
    <path d="M 60.743454 374.68778 
L 60.743454 375.396325 
L 64.034606 373.93993 
L 67.325757 373.329816 
L 70.616908 370.610584 
L 73.90806 367.380267 
L 77.199211 364.888394 
L 80.490362 360.193275 
L 83.781514 355.584892 
L 87.072665 349.587868 
L 90.363817 336.397663 
L 93.654968 330.219663 
L 96.946119 317.084731 
L 100.237271 309.712914 
L 103.528422 297.884119 
L 106.819573 295.681951 
L 110.110725 286.738054 
L 113.401876 291.327112 
L 116.693028 273.235004 
L 119.984179 244.149776 
L 123.27533 251.143244 
L 126.566482 255.917619 
L 129.857633 249.597646 
L 133.148785 245.764739 
L 136.439936 238.049018 
L 139.731087 255.851618 
L 143.022239 276.167558 
L 146.31339 266.821502 
L 149.604541 245.541621 
L 152.895693 228.428783 
L 156.186844 225.663459 
L 159.477996 249.268894 
L 162.769147 237.054727 
L 166.060298 235.751312 
L 169.35145 231.533562 
L 172.642601 232.243033 
L 175.933752 250.343045 
L 179.224904 220.073411 
L 182.516055 217.372913 
L 185.807207 263.795973 
L 189.098358 241.781209 
L 192.389509 220.093824 
L 195.680661 225.651372 
L 198.971812 250.723988 
L 202.262964 182.261778 
L 205.554115 206.440186 
L 208.845266 207.79115 
L 212.136418 224.379885 
L 215.427569 239.328551 
L 218.71872 208.156059 
L 222.009872 217.805206 
L 225.301023 214.781019 
L 228.592175 207.850571 
L 231.883326 212.951589 
L 235.174477 228.376649 
L 238.465629 192.914356 
L 241.75678 155.63466 
L 245.047931 170.626044 
L 248.339083 177.793278 
L 251.630234 216.457488 
L 254.921386 226.478412 
L 258.212537 188.444092 
L 261.503688 195.206343 
L 264.79484 213.05342 
L 268.085991 198.472441 
L 271.377143 219.700139 
L 274.668294 216.01588 
L 277.959445 150.330383 
L 281.250597 131.728059 
L 284.541748 143.730703 
L 287.832899 172.817846 
L 291.124051 193.836603 
L 294.415202 214.760072 
L 297.706354 216.476145 
L 300.997505 220.07121 
L 304.288656 208.003641 
L 307.579808 167.922343 
L 310.870959 171.043817 
L 314.16211 164.629908 
L 317.453262 123.122713 
L 320.744413 139.393362 
L 324.035565 112.965315 
L 327.326716 157.589956 
L 330.617867 183.198126 
L 333.909019 152.14667 
L 337.20017 155.771441 
L 340.491321 127.836026 
L 343.782473 98.763219 
L 347.073624 134.735213 
L 350.364776 118.127429 
L 353.655927 83.670094 
L 356.947078 135.3678 
L 360.23823 187.073865 
L 363.529381 189.566554 
L 366.820533 206.412556 
L 370.111684 174.247424 
L 373.402835 110.261891 
L 376.693987 160.616357 
L 379.985138 108.828383 
L 383.276289 141.36226 
L 386.567441 75.502697 
L 389.858592 86.925336 
L 393.149744 94.767652 
L 396.440895 105.857487 
L 399.732046 104.455125 
L 403.023198 137.35096 
L 406.314349 164.449794 
L 409.6055 100.667431 
L 412.896652 139.319615 
L 416.187803 115.567554 
L 419.478955 139.286588 
L 422.770106 152.78934 
L 426.061257 202.537963 
L 429.352409 192.974061 
L 432.64356 182.180659 
L 435.934712 174.331596 
L 439.225863 108.722089 
L 442.517014 136.539233 
L 445.808166 108.694749 
L 449.099317 129.350414 
L 452.390468 95.836335 
L 455.68162 118.103249 
L 458.972771 115.028426 
L 462.263923 79.819276 
L 465.555074 125.596503 
L 468.846225 184.535798 
L 472.137377 173.333109 
L 475.428528 125.375396 
L 478.719679 142.195476 
L 482.010831 170.307672 
L 485.301982 100.472556 
L 488.593134 72.215311 
L 491.884285 88.255074 
L 495.175436 83.531114 
L 498.466588 47.868283 
L 501.757739 72.495328 
L 505.048891 56.681213 
L 508.340042 103.374892 
L 511.631193 72.778171 
L 514.922345 99.167881 
L 518.213496 138.921088 
L 521.504647 127.06898 
L 524.795799 83.857827 
L 528.08695 71.838188 
L 531.378102 69.165502 
L 534.669253 65.824109 
L 537.960404 57.158901 
L 541.251556 72.30138 
L 544.542707 42.576194 
L 547.833858 55.647363 
L 551.12501 75.755559 
L 551.12501 43.792272 
L 551.12501 43.792272 
L 547.833858 37.01266 
L 544.542707 40.271525 
L 541.251556 34.291416 
L 537.960404 38.993046 
L 534.669253 42.270214 
L 531.378102 42.59534 
L 528.08695 40.516281 
L 524.795799 44.105538 
L 521.504647 29.675592 
L 518.213496 44.424178 
L 514.922345 38.000194 
L 511.631193 39.192187 
L 508.340042 52.772172 
L 505.048891 42.159514 
L 501.757739 43.839934 
L 498.466588 38.680875 
L 495.175436 45.495348 
L 491.884285 37.869212 
L 488.593134 36.193285 
L 485.301982 34.474656 
L 482.010831 65.958005 
L 478.719679 41.359305 
L 475.428528 47.815357 
L 472.137377 33.768873 
L 468.846225 84.911402 
L 465.555074 66.632214 
L 462.263923 43.534751 
L 458.972771 38.138864 
L 455.68162 41.407701 
L 452.390468 47.281977 
L 449.099317 62.969094 
L 445.808166 52.476805 
L 442.517014 30.638428 
L 439.225863 43.630419 
L 435.934712 64.424139 
L 432.64356 48.700261 
L 429.352409 41.338578 
L 426.061257 55.723588 
L 422.770106 36.971087 
L 419.478955 28.682576 
L 416.187803 63.676642 
L 412.896652 40.901544 
L 409.6055 48.491907 
L 406.314349 38.983552 
L 403.023198 45.812725 
L 399.732046 38.51187 
L 396.440895 48.240983 
L 393.149744 48.525255 
L 389.858592 51.44396 
L 386.567441 43.870538 
L 383.276289 62.051475 
L 379.985138 50.003583 
L 376.693987 43.382469 
L 373.402835 67.255742 
L 370.111684 78.525032 
L 366.820533 69.491951 
L 363.529381 38.514327 
L 360.23823 53.356633 
L 356.947078 42.349121 
L 353.655927 42.302875 
L 350.364776 45.327843 
L 347.073624 38.124759 
L 343.782473 39.396562 
L 340.491321 47.407978 
L 337.20017 55.528609 
L 333.909019 75.598009 
L 330.617867 71.596118 
L 327.326716 46.849417 
L 324.035565 61.463907 
L 320.744413 42.959563 
L 317.453262 61.724079 
L 314.16211 63.537188 
L 310.870959 81.295879 
L 307.579808 116.250262 
L 304.288656 113.261125 
L 300.997505 74.192575 
L 297.706354 70.512723 
L 294.415202 99.795292 
L 291.124051 60.734992 
L 287.832899 54.161946 
L 284.541748 57.197983 
L 281.250597 65.480141 
L 277.959445 114.155888 
L 274.668294 77.239463 
L 271.377143 89.337124 
L 268.085991 93.033202 
L 264.79484 94.68701 
L 261.503688 69.755141 
L 258.212537 108.257532 
L 254.921386 72.188001 
L 251.630234 115.433339 
L 248.339083 111.795686 
L 245.047931 77.192184 
L 241.75678 108.607599 
L 238.465629 112.18039 
L 235.174477 158.343416 
L 231.883326 130.48088 
L 228.592175 153.045184 
L 225.301023 114.878062 
L 222.009872 145.246378 
L 218.71872 107.648218 
L 215.427569 103.003451 
L 212.136418 104.327402 
L 208.845266 124.877565 
L 205.554115 116.991611 
L 202.262964 115.238 
L 198.971812 151.431862 
L 195.680661 118.028907 
L 192.389509 119.884155 
L 189.098358 101.965014 
L 185.807207 127.56341 
L 182.516055 130.569355 
L 179.224904 164.921644 
L 175.933752 177.452932 
L 172.642601 167.530893 
L 169.35145 179.576543 
L 166.060298 172.978133 
L 162.769147 169.416028 
L 159.477996 196.877258 
L 156.186844 155.642738 
L 152.895693 176.119935 
L 149.604541 196.454326 
L 146.31339 222.796437 
L 143.022239 193.291808 
L 139.731087 229.390505 
L 136.439936 217.032048 
L 133.148785 210.853101 
L 129.857633 215.740396 
L 126.566482 229.547415 
L 123.27533 215.216657 
L 119.984179 217.956009 
L 116.693028 253.908288 
L 113.401876 235.969106 
L 110.110725 264.640634 
L 106.819573 253.673549 
L 103.528422 271.961559 
L 100.237271 280.815339 
L 96.946119 311.517061 
L 93.654968 302.866472 
L 90.363817 325.380819 
L 87.072665 338.680759 
L 83.781514 345.777358 
L 80.490362 353.818744 
L 77.199211 358.433156 
L 73.90806 363.013039 
L 70.616908 368.016019 
L 67.325757 369.092832 
L 64.034606 371.552448 
L 60.743454 374.68778 
z
" clip-path="url(#peda0dd63f0)" style="fill: #0000ff; fill-opacity: 0.1"/>
   </g>
   <g id="line2d_28">
    <path d="M 60.743454 375.042052 
L 64.034606 372.746189 
L 67.325757 371.211324 
L 70.616908 369.313301 
L 73.90806 365.196653 
L 77.199211 361.660775 
L 80.490362 357.00601 
L 87.072665 344.134314 
L 90.363817 330.889241 
L 93.654968 316.543067 
L 96.946119 314.300896 
L 100.237271 295.264127 
L 106.819573 274.67775 
L 110.110725 275.689344 
L 113.401876 263.648109 
L 116.693028 263.571646 
L 119.984179 231.052892 
L 123.27533 233.17995 
L 126.566482 242.732517 
L 129.857633 232.669021 
L 133.148785 228.30892 
L 136.439936 227.540533 
L 139.731087 242.621061 
L 143.022239 234.729683 
L 146.31339 244.808969 
L 149.604541 220.997974 
L 152.895693 202.274359 
L 156.186844 190.653099 
L 159.477996 223.073076 
L 162.769147 203.235378 
L 169.35145 205.555053 
L 172.642601 199.886963 
L 175.933752 213.897988 
L 179.224904 192.497528 
L 182.516055 173.971134 
L 185.807207 195.679692 
L 189.098358 171.873111 
L 192.389509 169.98899 
L 195.680661 171.840139 
L 198.971812 201.077925 
L 202.262964 148.749889 
L 205.554115 161.715898 
L 208.845266 166.334357 
L 212.136418 164.353643 
L 215.427569 171.166001 
L 218.71872 157.902139 
L 222.009872 181.525792 
L 225.301023 164.82954 
L 228.592175 180.447878 
L 231.883326 171.716234 
L 235.174477 193.360033 
L 238.465629 152.547373 
L 241.75678 132.12113 
L 245.047931 123.909114 
L 251.630234 165.945413 
L 254.921386 149.333206 
L 258.212537 148.350812 
L 261.503688 132.480742 
L 264.79484 153.870215 
L 268.085991 145.752821 
L 271.377143 154.518632 
L 274.668294 146.627672 
L 277.959445 132.243135 
L 281.250597 98.6041 
L 284.541748 100.464343 
L 287.832899 113.489896 
L 291.124051 127.285798 
L 294.415202 157.277682 
L 297.706354 143.494434 
L 300.997505 147.131892 
L 304.288656 160.632383 
L 307.579808 142.086302 
L 310.870959 126.169848 
L 314.16211 114.083548 
L 317.453262 92.423396 
L 320.744413 91.176462 
L 324.035565 87.214611 
L 327.326716 102.219687 
L 330.617867 127.397122 
L 333.909019 113.87234 
L 337.20017 105.650025 
L 343.782473 69.07989 
L 347.073624 86.429986 
L 350.364776 81.727636 
L 353.655927 62.986485 
L 356.947078 88.85846 
L 360.23823 120.215249 
L 363.529381 114.040441 
L 366.820533 137.952253 
L 370.111684 126.386228 
L 373.402835 88.758817 
L 376.693987 101.999413 
L 379.985138 79.415983 
L 383.276289 101.706868 
L 386.567441 59.686617 
L 389.858592 69.184648 
L 393.149744 71.646454 
L 396.440895 77.049235 
L 399.732046 71.483497 
L 403.023198 91.581843 
L 406.314349 101.716673 
L 409.6055 74.579669 
L 412.896652 90.110579 
L 416.187803 89.622098 
L 419.478955 83.984582 
L 422.770106 94.880213 
L 426.061257 129.130776 
L 429.352409 117.15632 
L 432.64356 115.44046 
L 435.934712 119.377868 
L 439.225863 76.176254 
L 442.517014 83.588831 
L 445.808166 80.585777 
L 449.099317 96.159754 
L 452.390468 71.559156 
L 455.68162 79.755475 
L 458.972771 76.583645 
L 462.263923 61.677013 
L 465.555074 96.114359 
L 468.846225 134.7236 
L 472.137377 103.550991 
L 475.428528 86.595377 
L 478.719679 91.77739 
L 482.010831 118.132839 
L 485.301982 67.473606 
L 488.593134 54.204298 
L 491.884285 63.062143 
L 495.175436 64.513231 
L 498.466588 43.274579 
L 501.757739 58.167631 
L 505.048891 49.420363 
L 508.340042 78.073532 
L 511.631193 55.985179 
L 514.922345 68.584037 
L 518.213496 91.672633 
L 521.504647 78.372286 
L 524.795799 63.981683 
L 528.08695 56.177235 
L 531.378102 55.880421 
L 534.669253 54.047162 
L 537.960404 48.075973 
L 541.251556 53.296398 
L 544.542707 41.42386 
L 547.833858 46.330012 
L 551.12501 59.773915 
L 551.12501 59.773915 
" clip-path="url(#peda0dd63f0)" style="fill: none; stroke: #0000ff; stroke-width: 1.5; stroke-linecap: round"/>
   </g>
   <g id="line2d_29">
    <path d="M 60.743454 374.726832 
L 64.034606 373.330184 
L 67.325757 370.151444 
L 70.616908 369.013251 
L 73.90806 363.568537 
L 77.199211 361.813622 
L 80.490362 354.601458 
L 83.781514 344.889435 
L 87.072665 338.050638 
L 90.363817 326.287462 
L 93.654968 323.394154 
L 96.946119 310.403613 
L 100.237271 307.884573 
L 103.528422 263.422869 
L 106.819573 251.718765 
L 110.110725 281.203742 
L 113.401876 210.605038 
L 116.693028 269.254381 
L 119.984179 218.486808 
L 123.27533 226.990472 
L 126.566482 220.937805 
L 129.857633 210.071657 
L 133.148785 233.43752 
L 136.439936 238.839731 
L 139.731087 246.095171 
L 143.022239 289.165326 
L 146.31339 285.785145 
L 149.604541 250.595872 
L 152.895693 208.943497 
L 156.186844 169.071108 
L 159.477996 228.538558 
L 162.769147 195.127203 
L 166.060298 146.233931 
L 169.35145 206.913577 
L 172.642601 239.31987 
L 175.933752 255.566042 
L 179.224904 203.072462 
L 182.516055 170.118685 
L 185.807207 236.145962 
L 189.098358 176.143839 
L 192.389509 145.395869 
L 195.680661 139.110408 
L 198.971812 217.166528 
L 202.262964 162.59941 
L 205.554115 104.788684 
L 208.845266 157.477923 
L 212.136418 147.62294 
L 215.427569 125.119436 
L 218.71872 163.204677 
L 222.009872 129.629837 
L 225.301023 116.535125 
L 228.592175 169.286972 
L 231.883326 182.561571 
L 235.174477 190.087112 
L 238.465629 142.811846 
L 241.75678 141.065885 
L 245.047931 178.302483 
L 248.339083 181.513994 
L 251.630234 185.667266 
L 254.921386 83.798346 
L 258.212537 111.77253 
L 261.503688 84.147538 
L 264.79484 106.583144 
L 268.085991 103.265817 
L 271.377143 93.663029 
L 274.668294 114.643667 
L 277.959445 123.489872 
L 281.250597 119.92035 
L 284.541748 181.096021 
L 287.832899 207.661846 
L 291.124051 242.105706 
L 294.415202 228.582207 
L 297.706354 228.314077 
L 300.997505 224.33661 
L 304.288656 207.761615 
L 307.579808 116.738821 
L 310.870959 136.060795 
L 314.16211 60.140567 
L 317.453262 62.410317 
L 320.744413 40.847692 
L 324.035565 116.447827 
L 327.326716 149.516338 
L 330.617867 205.666462 
L 333.909019 129.620137 
L 337.20017 65.378452 
L 340.491321 76.37801 
L 343.782473 46.347471 
L 347.073624 72.798788 
L 350.364776 86.068096 
L 353.655927 95.932779 
L 356.947078 169.159993 
L 360.23823 220.7815 
L 363.529381 227.017077 
L 370.111684 164.810962 
L 373.402835 88.59974 
L 376.693987 46.260173 
L 379.985138 86.853779 
L 383.276289 95.583587 
L 386.567441 76.203413 
L 389.858592 84.322135 
L 393.149744 69.394163 
L 396.440895 129.542538 
L 399.732046 58.6565 
L 403.023198 46.609365 
L 406.314349 49.228308 
L 409.6055 54.378894 
L 412.896652 40.847692 
L 416.187803 118.756376 
L 419.478955 40.847692 
L 422.770106 52.196442 
L 426.061257 55.251875 
L 429.352409 72.886087 
L 432.64356 52.545635 
L 435.934712 152.398762 
L 439.225863 126.205812 
L 442.517014 179.186045 
L 445.808166 131.2885 
L 449.099317 154.160596 
L 452.390468 40.847692 
L 455.68162 40.847692 
L 458.972771 72.187702 
L 462.263923 87.988654 
L 465.555074 90.520298 
L 468.846225 130.520277 
L 472.137377 40.847692 
L 475.428528 63.021404 
L 478.719679 65.378452 
L 482.010831 182.061062 
L 485.301982 40.847692 
L 488.593134 40.847692 
L 491.884285 47.74424 
L 495.175436 61.973827 
L 498.466588 52.458337 
L 501.757739 40.847692 
L 505.048891 58.6565 
L 508.340042 113.402094 
L 511.631193 53.593212 
L 514.922345 41.284183 
L 518.213496 151.192462 
L 521.504647 40.847692 
L 551.12501 40.847692 
L 551.12501 40.847692 
" clip-path="url(#peda0dd63f0)" style="fill: none; stroke: #008000; stroke-opacity: 0.2; stroke-linecap: round"/>
   </g>
   <g id="line2d_30">
    <path d="M 60.743454 375.509094 
L 64.034606 374.239553 
L 67.325757 373.685102 
L 73.90806 369.088462 
L 77.199211 366.674218 
L 80.490362 360.369918 
L 83.781514 358.733103 
L 87.072665 351.881041 
L 90.363817 336.166611 
L 93.654968 321.866917 
L 96.946119 314.235338 
L 100.237271 293.613038 
L 103.528422 288.570535 
L 106.819573 302.43929 
L 110.110725 291.9868 
L 113.401876 261.969564 
L 116.693028 268.965503 
L 119.984179 239.111325 
L 123.27533 253.311812 
L 126.566482 242.763009 
L 129.857633 237.751072 
L 133.148785 222.427692 
L 136.439936 208.908962 
L 139.731087 241.242995 
L 143.022239 167.128329 
L 146.31339 234.253672 
L 149.604541 244.776 
L 152.895693 219.384731 
L 156.186844 203.047519 
L 159.477996 198.25284 
L 162.769147 157.795371 
L 166.060298 211.552846 
L 169.35145 184.714923 
L 172.642601 184.07026 
L 175.933752 195.244414 
L 179.224904 148.84335 
L 182.516055 239.435412 
L 185.807207 280.08997 
L 189.098358 291.257376 
L 192.389509 260.035704 
L 195.680661 258.866937 
L 198.971812 243.954371 
L 202.262964 208.360231 
L 205.554115 144.519009 
L 208.845266 185.09586 
L 212.136418 131.637692 
L 215.427569 163.274515 
L 218.71872 160.707952 
L 222.009872 173.096343 
L 225.301023 207.869059 
L 228.592175 196.372574 
L 231.883326 117.359607 
L 235.174477 166.277569 
L 238.465629 166.487085 
L 241.75678 94.448712 
L 245.047931 135.269292 
L 248.339083 112.626111 
L 251.630234 176.508904 
L 254.921386 160.411138 
L 258.212537 128.456162 
L 261.503688 92.091663 
L 264.79484 108.591 
L 268.085991 147.15735 
L 271.377143 171.382126 
L 274.668294 119.590558 
L 277.959445 131.715291 
L 281.250597 103.779906 
L 284.541748 81.441298 
L 287.832899 77.425587 
L 291.124051 135.595205 
L 294.415202 204.120038 
L 297.706354 224.33661 
L 300.997505 189.370821 
L 304.288656 218.720882 
L 307.579808 179.884429 
L 310.870959 74.632048 
L 314.16211 156.462091 
L 317.453262 89.472721 
L 320.744413 80.131827 
L 324.035565 95.40899 
L 327.326716 179.88972 
L 330.617867 165.985517 
L 333.909019 86.941077 
L 337.20017 58.045413 
L 340.491321 46.609365 
L 343.782473 48.704519 
L 347.073624 95.496288 
L 350.364776 67.386308 
L 353.655927 40.847692 
L 356.947078 66.076837 
L 360.23823 66.076837 
L 363.529381 47.482346 
L 366.820533 50.275885 
L 370.111684 96.631163 
L 373.402835 66.862519 
L 376.693987 71.402019 
L 379.985138 40.847692 
L 383.276289 82.925365 
L 386.567441 41.109587 
L 389.858592 84.933221 
L 393.149744 40.847692 
L 396.440895 48.180731 
L 399.732046 40.847692 
L 403.023198 77.163692 
L 406.314349 53.244019 
L 409.6055 51.148865 
L 412.896652 40.847692 
L 416.187803 81.354 
L 419.478955 46.260173 
L 422.770106 86.155394 
L 426.061257 81.965087 
L 429.352409 65.291154 
L 432.64356 50.886971 
L 435.934712 65.640346 
L 439.225863 57.521625 
L 442.517014 54.291596 
L 445.808166 59.267587 
L 449.099317 58.569202 
L 452.390468 69.219567 
L 455.68162 70.00525 
L 458.972771 68.870375 
L 462.263923 70.092548 
L 465.555074 116.185933 
L 468.846225 190.302 
L 472.137377 198.100628 
L 475.428528 153.566969 
L 478.719679 117.67 
L 482.010831 161.223804 
L 485.301982 99.424702 
L 488.593134 86.155394 
L 491.884285 102.072744 
L 495.175436 92.916145 
L 498.466588 41.196885 
L 501.757739 73.671769 
L 505.048891 40.847692 
L 508.340042 94.361413 
L 511.631193 86.679183 
L 514.922345 63.719788 
L 518.213496 140.716692 
L 521.504647 109.202087 
L 524.795799 66.076837 
L 528.08695 77.862077 
L 531.378102 75.155837 
L 534.669253 65.116558 
L 537.960404 40.847692 
L 541.251556 54.029702 
L 544.542707 40.847692 
L 551.12501 40.847692 
L 551.12501 40.847692 
" clip-path="url(#peda0dd63f0)" style="fill: none; stroke: #008000; stroke-opacity: 0.2; stroke-linecap: round"/>
   </g>
   <g id="line2d_31">
    <path d="M 60.743454 374.679484 
L 64.034606 371.251514 
L 67.325757 368.204217 
L 70.616908 368.423333 
L 73.90806 362.963628 
L 77.199211 356.48305 
L 80.490362 352.751924 
L 83.781514 346.46538 
L 87.072665 340.504577 
L 90.363817 322.439951 
L 93.654968 291.774698 
L 96.946119 314.922572 
L 100.237271 272.965343 
L 103.528422 280.327103 
L 106.819573 269.47342 
L 110.110725 259.699377 
L 113.401876 284.72942 
L 116.693028 254.786179 
L 119.984179 212.600423 
L 123.27533 205.559018 
L 126.566482 262.158017 
L 129.857633 215.543615 
L 133.148785 205.142673 
L 136.439936 232.205077 
L 139.731087 225.788668 
L 143.022239 264.497051 
L 146.31339 247.826838 
L 149.604541 208.352556 
L 152.895693 193.686479 
L 156.186844 191.806213 
L 159.477996 212.899731 
L 162.769147 226.105851 
L 166.060298 238.446889 
L 169.35145 255.321608 
L 172.642601 238.359591 
L 175.933752 245.885199 
L 179.224904 215.211051 
L 182.516055 136.875577 
L 185.807207 82.925365 
L 189.098358 92.178962 
L 192.389509 111.074145 
L 195.680661 108.678298 
L 198.971812 104.245496 
L 202.262964 117.825197 
L 205.554115 202.723269 
L 208.845266 235.085913 
L 212.136418 259.408821 
L 215.427569 276.869948 
L 218.71872 221.496513 
L 222.009872 226.137861 
L 225.301023 240.192851 
L 228.592175 213.049385 
L 231.883326 149.097308 
L 235.174477 145.450188 
L 238.465629 80.393721 
L 241.75678 116.040436 
L 245.047931 71.402019 
L 248.339083 142.268658 
L 251.630234 177.905673 
L 254.921386 218.656415 
L 258.212537 164.531608 
L 261.503688 68.695779 
L 264.79484 107.456125 
L 268.085991 79.346144 
L 271.377143 85.8935 
L 274.668294 59.791375 
L 277.959445 145.838179 
L 281.250597 73.497173 
L 284.541748 61.973827 
L 287.832899 62.846808 
L 291.124051 65.90224 
L 294.415202 142.742008 
L 297.706354 98.202529 
L 300.997505 45.823683 
L 304.288656 105.535567 
L 307.579808 109.638577 
L 310.870959 88.337846 
L 314.16211 158.5255 
L 317.453262 72.275 
L 320.744413 137.085092 
L 324.035565 81.586795 
L 327.326716 45.212596 
L 333.909019 182.061062 
L 337.20017 198.508019 
L 340.491321 163.763385 
L 343.782473 96.631163 
L 347.073624 48.006135 
L 350.364776 65.727644 
L 353.655927 66.513327 
L 356.947078 56.735942 
L 360.23823 72.449596 
L 363.529381 74.457452 
L 366.820533 135.828 
L 370.111684 63.894385 
L 373.402835 78.560462 
L 376.693987 149.167146 
L 379.985138 130.240923 
L 383.276289 137.845556 
L 386.567441 75.592327 
L 389.858592 79.957231 
L 393.149744 56.124856 
L 396.440895 54.204298 
L 399.732046 70.179846 
L 403.023198 57.259731 
L 406.314349 50.886971 
L 409.6055 62.497615 
L 412.896652 142.579051 
L 416.187803 43.553933 
L 419.478955 40.847692 
L 422.770106 54.204298 
L 426.061257 81.615894 
L 429.352409 57.958115 
L 432.64356 92.615452 
L 435.934712 40.847692 
L 442.517014 40.847692 
L 445.808166 52.807529 
L 449.099317 72.973385 
L 452.390468 66.687923 
L 455.68162 40.847692 
L 458.972771 40.847692 
L 462.263923 41.458779 
L 465.555074 59.442183 
L 468.846225 65.203856 
L 472.137377 59.529481 
L 475.428528 40.847692 
L 478.719679 56.561346 
L 482.010831 53.593212 
L 485.301982 40.847692 
L 488.593134 40.847692 
L 491.884285 83.798346 
L 495.175436 40.847692 
L 501.757739 40.847692 
L 505.048891 53.244019 
L 508.340042 40.847692 
L 511.631193 40.847692 
L 514.922345 60.92625 
L 518.213496 40.847692 
L 521.504647 160.116265 
L 524.795799 56.648644 
L 528.08695 49.5775 
L 531.378102 60.664356 
L 534.669253 68.957673 
L 537.960404 55.426471 
L 541.251556 40.847692 
L 544.542707 40.847692 
L 547.833858 44.339615 
L 551.12501 70.354442 
L 551.12501 70.354442 
" clip-path="url(#peda0dd63f0)" style="fill: none; stroke: #008000; stroke-opacity: 0.2; stroke-linecap: round"/>
   </g>
   <g id="line2d_32">
    <path d="M 60.743454 374.86779 
L 64.034606 371.418005 
L 67.325757 370.445036 
L 70.616908 367.697417 
L 73.90806 364.454321 
L 77.199211 361.42078 
L 80.490362 356.398302 
L 83.781514 350.616695 
L 87.072665 340.841298 
L 90.363817 334.040956 
L 93.654968 313.696585 
L 96.946119 313.006061 
L 100.237271 288.271394 
L 103.528422 289.388809 
L 106.819573 253.891757 
L 110.110725 268.210684 
L 113.401876 281.881478 
L 116.693028 275.187476 
L 119.984179 238.613783 
L 123.27533 227.502621 
L 126.566482 246.560761 
L 129.857633 248.733513 
L 133.148785 258.155579 
L 136.439936 233.974318 
L 139.731087 234.669964 
L 143.022239 230.197221 
L 146.31339 233.7515 
L 149.604541 217.678677 
L 152.895693 232.717226 
L 156.186844 142.346256 
L 159.477996 204.327891 
L 162.769147 182.55628 
L 166.060298 203.022577 
L 169.35145 191.628931 
L 172.642601 172.144 
L 175.933752 218.1875 
L 179.224904 222.327923 
L 182.516055 203.195254 
L 185.807207 160.900008 
L 189.098358 187.624859 
L 192.389509 179.88972 
L 195.680661 206.311124 
L 198.971812 211.858805 
L 202.262964 129.612377 
L 205.554115 132.258479 
L 208.845266 113.916183 
L 212.136418 198.951225 
L 215.427569 210.608876 
L 218.71872 176.715245 
L 222.009872 218.563297 
L 225.301023 138.54394 
L 228.592175 133.344855 
L 231.883326 167.826713 
L 235.174477 228.713154 
L 238.465629 173.41379 
L 241.75678 155.693162 
L 245.047931 167.185469 
L 248.339083 182.852564 
L 251.630234 219.727272 
L 254.921386 242.95244 
L 258.212537 219.634154 
L 261.503688 210.654923 
L 264.79484 196.762058 
L 268.085991 230.342718 
L 271.377143 266.525692 
L 274.668294 265.064073 
L 277.959445 156.208133 
L 281.250597 144.674205 
L 284.541748 108.241808 
L 287.832899 158.938182 
L 291.124051 136.526385 
L 294.415202 148.271944 
L 297.706354 125.771262 
L 300.997505 202.980367 
L 304.288656 161.388877 
L 307.579808 149.485299 
L 310.870959 202.819201 
L 314.16211 150.33888 
L 317.453262 150.494077 
L 320.744413 156.970007 
L 324.035565 101.78175 
L 327.326716 95.632085 
L 330.617867 110.918949 
L 333.909019 91.567875 
L 337.20017 107.504624 
L 340.491321 85.544308 
L 343.782473 112.868606 
L 347.073624 175.001028 
L 350.364776 148.608438 
L 353.655927 70.790933 
L 356.947078 111.471837 
L 360.23823 180.143678 
L 363.529381 180.397636 
L 366.820533 230.633712 
L 370.111684 196.529263 
L 373.402835 129.46494 
L 376.693987 192.804545 
L 379.985138 71.227423 
L 383.276289 151.332138 
L 386.567441 64.680067 
L 389.858592 55.862962 
L 393.149744 108.15451 
L 396.440895 72.275 
L 399.732046 134.664026 
L 403.023198 175.007377 
L 406.314349 192.920942 
L 409.6055 83.099962 
L 412.896652 154.614546 
L 416.187803 100.123087 
L 419.478955 110.918949 
L 422.770106 73.933663 
L 426.061257 176.01686 
L 429.352409 129.542538 
L 432.64356 156.398601 
L 435.934712 165.160154 
L 439.225863 102.538333 
L 442.517014 102.771128 
L 445.808166 88.512442 
L 449.099317 87.814058 
L 452.390468 115.574846 
L 455.68162 109.463981 
L 458.972771 51.061567 
L 462.263923 40.847692 
L 465.555074 73.147981 
L 468.846225 190.175021 
L 472.137377 178.429462 
L 475.428528 101.607154 
L 478.719679 178.429462 
L 482.010831 132.947163 
L 485.301982 40.847692 
L 491.884285 40.847692 
L 495.175436 48.704519 
L 498.466588 40.847692 
L 501.757739 68.957673 
L 505.048891 40.847692 
L 508.340042 80.830212 
L 511.631193 40.847692 
L 514.922345 49.402904 
L 518.213496 40.847692 
L 521.504647 40.847692 
L 524.795799 100.297683 
L 528.08695 40.847692 
L 531.378102 61.886529 
L 534.669253 54.466192 
L 537.960404 40.93499 
L 544.542707 40.847692 
L 547.833858 64.767365 
L 551.12501 79.608038 
L 551.12501 79.608038 
" clip-path="url(#peda0dd63f0)" style="fill: none; stroke: #008000; stroke-opacity: 0.2; stroke-linecap: round"/>
   </g>
   <g id="line2d_33">
    <path d="M 60.743454 375.427061 
L 64.034606 373.491691 
L 67.325757 373.570821 
L 70.616908 370.014468 
L 77.199211 361.912203 
L 80.490362 360.908446 
L 83.781514 352.701014 
L 87.072665 349.394015 
L 90.363817 335.511225 
L 93.654968 331.982983 
L 96.946119 318.936896 
L 100.237271 313.586284 
L 103.528422 302.904879 
L 106.819573 295.865521 
L 110.110725 277.346119 
L 113.401876 279.055045 
L 116.693028 249.664692 
L 119.984179 246.452123 
L 123.27533 252.535829 
L 126.566482 241.242995 
L 129.857633 251.245247 
L 133.148785 222.381133 
L 136.439936 223.774577 
L 139.731087 265.308508 
L 143.022239 222.660487 
L 146.31339 222.427692 
L 149.604541 183.586763 
L 152.895693 156.639862 
L 156.186844 246.994398 
L 159.477996 271.34636 
L 162.769147 254.592184 
L 166.060298 222.567369 
L 169.35145 189.196224 
L 172.642601 165.541091 
L 175.933752 154.606786 
L 179.224904 173.032853 
L 182.516055 120.230744 
L 185.807207 218.337154 
L 189.098358 112.160521 
L 192.389509 153.54951 
L 195.680661 146.233931 
L 198.971812 228.164423 
L 202.262964 125.352231 
L 205.554115 224.290051 
L 208.845266 140.095906 
L 212.136418 84.147538 
L 215.427569 79.957231 
L 218.71872 67.386308 
L 222.009872 160.201623 
L 225.301023 121.006726 
L 228.592175 190.185603 
L 231.883326 241.735973 
L 235.174477 236.27214 
L 238.465629 199.630423 
L 241.75678 153.357454 
L 245.047931 67.386308 
L 248.339083 104.711085 
L 251.630234 69.917952 
L 254.921386 40.847692 
L 258.212537 117.359607 
L 261.503688 206.813808 
L 264.79484 249.958749 
L 268.085991 168.652077 
L 271.377143 155.128811 
L 274.668294 174.048685 
L 277.959445 103.964202 
L 281.250597 51.148865 
L 284.541748 69.56876 
L 287.832899 60.577058 
L 291.124051 56.299452 
L 294.415202 62.672212 
L 297.706354 40.847692 
L 300.997505 73.147981 
L 304.288656 109.754974 
L 307.579808 154.684385 
L 310.870959 128.99935 
L 314.16211 44.950702 
L 317.453262 87.464865 
L 320.744413 40.847692 
L 330.617867 40.847692 
L 333.909019 79.171548 
L 337.20017 98.813615 
L 340.491321 65.814942 
L 343.782473 40.847692 
L 356.947078 40.847692 
L 360.23823 61.624635 
L 363.529381 40.847692 
L 366.820533 76.727202 
L 370.111684 110.065368 
L 376.693987 50.363183 
L 379.985138 67.910096 
L 383.276289 40.847692 
L 389.858592 40.847692 
L 393.149744 83.711048 
L 396.440895 81.043607 
L 399.732046 53.069423 
L 403.023198 101.869048 
L 406.314349 162.303126 
L 409.6055 121.77301 
L 412.896652 71.663913 
L 416.187803 104.323094 
L 419.478955 181.048404 
L 422.770106 207.911269 
L 426.061257 250.804162 
L 429.352409 260.103704 
L 432.64356 224.755641 
L 435.934712 172.842385 
L 439.225863 53.767808 
L 442.517014 40.847692 
L 445.808166 71.052827 
L 449.099317 107.281529 
L 452.390468 65.46575 
L 455.68162 137.612761 
L 458.972771 149.950889 
L 462.263923 67.997394 
L 465.555074 141.2754 
L 468.846225 97.416846 
L 472.137377 40.847692 
L 475.428528 73.933663 
L 478.719679 40.847692 
L 482.010831 60.838952 
L 485.301982 115.40025 
L 488.593134 62.323019 
L 491.884285 40.847692 
L 495.175436 78.123971 
L 498.466588 41.022288 
L 501.757739 66.513327 
L 505.048891 53.505913 
L 508.340042 60.92625 
L 511.631193 57.958115 
L 514.922345 127.587062 
L 521.504647 40.847692 
L 528.08695 71.751212 
L 531.378102 40.847692 
L 534.669253 40.847692 
L 537.960404 62.323019 
L 541.251556 89.909212 
L 544.542707 43.728529 
L 547.833858 40.847692 
L 551.12501 67.211712 
L 551.12501 67.211712 
" clip-path="url(#peda0dd63f0)" style="fill: none; stroke: #008000; stroke-opacity: 0.2; stroke-linecap: round"/>
   </g>
   <g id="line2d_34">
    <path d="M 60.743454 40.847692 
L 70.616908 51.323814 
L 80.490362 61.488785 
L 90.363817 71.351846 
L 100.237271 80.921964 
L 110.110725 90.20784 
L 119.984179 99.217916 
L 129.857633 107.960384 
L 139.731087 116.443192 
L 149.604541 124.674052 
L 159.477996 132.660447 
L 169.35145 140.409638 
L 179.224904 147.928671 
L 189.098358 155.224381 
L 198.971812 162.303401 
L 205.554115 166.90555 
L 208.845266 202.831421 
L 212.136418 233.063041 
L 215.427569 258.50295 
L 218.71872 279.910632 
L 222.009872 297.925198 
L 225.301023 313.084454 
L 228.592175 325.840969 
L 231.883326 336.575576 
L 235.174477 345.608747 
L 238.465629 353.210161 
L 241.75678 359.606751 
L 245.047931 364.989481 
L 248.339083 369.519049 
L 251.630234 373.33068 
L 254.921386 376.538168 
L 258.212537 379.237269 
L 261.503688 381.508562 
L 264.79484 383.419855 
L 268.085991 385.028209 
L 271.377143 386.381638 
L 274.668294 387.520549 
L 277.959445 388.478942 
L 281.250597 389.28543 
L 284.541748 389.96409 
L 291.124051 390.04 
L 551.12501 390.04 
L 551.12501 390.04 
" clip-path="url(#peda0dd63f0)" style="fill: none; stroke: #ff0000; stroke-linecap: round"/>
   </g>
   <g id="line2d_35">
    <path d="M 60.743454 42.954997 
L 64.034606 40.847692 
L 67.325757 52.752372 
L 70.616908 72.729605 
L 73.90806 95.313068 
L 77.199211 129.261934 
L 83.781514 181.609257 
L 87.072665 203.133301 
L 90.363817 216.22146 
L 93.654968 227.311811 
L 96.946119 240.715289 
L 100.237271 241.711451 
L 103.528422 264.31479 
L 106.819573 264.988692 
L 110.110725 282.485494 
L 113.401876 285.527421 
L 116.693028 299.318251 
L 119.984179 296.174491 
L 123.27533 296.678705 
L 126.566482 320.966618 
L 129.857633 314.195987 
L 133.148785 319.547458 
L 136.439936 324.512701 
L 139.731087 320.444526 
L 143.022239 327.424588 
L 146.31339 337.297418 
L 149.604541 336.128178 
L 152.895693 334.345147 
L 156.186844 336.175919 
L 159.477996 345.004848 
L 162.769147 337.933934 
L 166.060298 348.49028 
L 169.35145 343.670447 
L 172.642601 359.432155 
L 175.933752 359.164271 
L 179.224904 361.588343 
L 182.516055 359.684543 
L 185.807207 362.720793 
L 189.098358 363.236948 
L 192.389509 356.80285 
L 195.680661 364.982289 
L 198.971812 366.294226 
L 202.262964 361.592509 
L 205.554115 368.422847 
L 208.845266 372.17101 
L 212.136418 371.457275 
L 215.427569 374.747789 
L 218.71872 367.040994 
L 222.009872 362.975852 
L 225.301023 365.194013 
L 228.592175 354.359916 
L 231.883326 348.973983 
L 235.174477 359.936289 
L 238.465629 356.633871 
L 241.75678 374.788998 
L 245.047931 375.495214 
L 248.339083 380.546074 
L 251.630234 381.571402 
L 254.921386 382.843284 
L 258.212537 387.694507 
L 261.503688 378.844304 
L 264.79484 376.517303 
L 268.085991 370.148787 
L 271.377143 384.318627 
L 274.668294 377.742001 
L 277.959445 369.720444 
L 281.250597 371.420726 
L 284.541748 384.825309 
L 287.832899 379.36804 
L 291.124051 377.256318 
L 294.415202 382.241516 
L 297.706354 376.237689 
L 300.997505 383.599969 
L 304.288656 382.910027 
L 307.579808 386.216885 
L 310.870959 382.202368 
L 314.16211 380.328141 
L 317.453262 376.045978 
L 320.744413 386.919664 
L 324.035565 390.04 
L 327.326716 379.150984 
L 330.617867 382.039214 
L 333.909019 377.710332 
L 337.20017 376.865693 
L 340.491321 369.285228 
L 343.782473 374.022068 
L 347.073624 379.429793 
L 350.364776 383.976358 
L 353.655927 379.90618 
L 356.947078 381.691851 
L 360.23823 374.076719 
L 363.529381 371.161188 
L 366.820533 374.222501 
L 370.111684 374.90999 
L 373.402835 364.271473 
L 376.693987 370.435282 
L 379.985138 379.613529 
L 383.276289 374.115607 
L 386.567441 381.327894 
L 389.858592 388.03216 
L 393.149744 388.631259 
L 396.440895 382.354904 
L 399.732046 381.914274 
L 403.023198 369.895898 
L 406.314349 369.730904 
L 409.6055 374.278221 
L 412.896652 382.317577 
L 416.187803 381.832079 
L 419.478955 378.074271 
L 422.770106 374.02867 
L 426.061257 379.175904 
L 429.352409 381.365638 
L 432.64356 372.376911 
L 435.934712 370.552497 
L 439.225863 374.525423 
L 442.517014 377.40791 
L 449.099317 382.721603 
L 452.390468 375.747299 
L 455.68162 364.411458 
L 458.972771 366.153638 
L 462.263923 373.537744 
L 465.555074 375.841864 
L 468.846225 371.933 
L 472.137377 374.418022 
L 475.428528 369.990599 
L 478.719679 366.240132 
L 482.010831 358.010026 
L 485.301982 377.228776 
L 488.593134 370.075318 
L 491.884285 378.440395 
L 495.175436 375.463276 
L 498.466588 371.593243 
L 501.757739 373.860992 
L 505.048891 373.365482 
L 508.340042 373.144436 
L 511.631193 368.409768 
L 514.922345 366.698751 
L 518.213496 373.767045 
L 521.504647 370.348671 
L 524.795799 378.40949 
L 528.08695 374.876375 
L 531.378102 372.487663 
L 534.669253 379.525002 
L 537.960404 383.718157 
L 541.251556 383.953882 
L 544.542707 380.306934 
L 547.833858 373.314674 
L 551.12501 373.827983 
L 551.12501 373.827983 
" clip-path="url(#peda0dd63f0)" style="fill: none; stroke: #800080; stroke-linecap: round"/>
   </g>
   <g id="patch_3">
    <path d="M 50.87 390.04 
L 50.87 26.88 
" style="fill: none; stroke: #ffffff; stroke-width: 0.8; stroke-linejoin: miter; stroke-linecap: square"/>
   </g>
   <g id="patch_4">
    <path d="M 564.289615 390.04 
L 564.289615 26.88 
" style="fill: none; stroke: #ffffff; stroke-width: 0.8; stroke-linejoin: miter; stroke-linecap: square"/>
   </g>
   <g id="patch_5">
    <path d="M 50.87 390.04 
L 564.289615 390.04 
" style="fill: none; stroke: #ffffff; stroke-width: 0.8; stroke-linejoin: miter; stroke-linecap: square"/>
   </g>
   <g id="patch_6">
    <path d="M 50.87 26.88 
L 564.289615 26.88 
" style="fill: none; stroke: #ffffff; stroke-width: 0.8; stroke-linejoin: miter; stroke-linecap: square"/>
   </g>
   <g id="text_30">
    <!-- cartpole_GNN_N_noise_entropy_mlp -->
    <g style="fill: #262626" transform="translate(199.34262 20.88) scale(0.12 -0.12)">
     <defs>
      <path id="DejaVuSans-63" d="M 3122 3366 
L 3122 2828 
Q 2878 2963 2633 3030 
Q 2388 3097 2138 3097 
Q 1578 3097 1268 2742 
Q 959 2388 959 1747 
Q 959 1106 1268 751 
Q 1578 397 2138 397 
Q 2388 397 2633 464 
Q 2878 531 3122 666 
L 3122 134 
Q 2881 22 2623 -34 
Q 2366 -91 2075 -91 
Q 1284 -91 818 406 
Q 353 903 353 1747 
Q 353 2603 823 3093 
Q 1294 3584 2113 3584 
Q 2378 3584 2631 3529 
Q 2884 3475 3122 3366 
z
" transform="scale(0.015625)"/>
      <path id="DejaVuSans-74" d="M 1172 4494 
L 1172 3500 
L 2356 3500 
L 2356 3053 
L 1172 3053 
L 1172 1153 
Q 1172 725 1289 603 
Q 1406 481 1766 481 
L 2356 481 
L 2356 0 
L 1766 0 
Q 1100 0 847 248 
Q 594 497 594 1153 
L 594 3053 
L 172 3053 
L 172 3500 
L 594 3500 
L 594 4494 
L 1172 4494 
z
" transform="scale(0.015625)"/>
      <path id="DejaVuSans-6c" d="M 603 4863 
L 1178 4863 
L 1178 0 
L 603 0 
L 603 4863 
z
" transform="scale(0.015625)"/>
      <path id="DejaVuSans-5f" d="M 3263 -1063 
L 3263 -1509 
L -63 -1509 
L -63 -1063 
L 3263 -1063 
z
" transform="scale(0.015625)"/>
      <path id="DejaVuSans-47" d="M 3809 666 
L 3809 1919 
L 2778 1919 
L 2778 2438 
L 4434 2438 
L 4434 434 
Q 4069 175 3628 42 
Q 3188 -91 2688 -91 
Q 1594 -91 976 548 
Q 359 1188 359 2328 
Q 359 3472 976 4111 
Q 1594 4750 2688 4750 
Q 3144 4750 3555 4637 
Q 3966 4525 4313 4306 
L 4313 3634 
Q 3963 3931 3569 4081 
Q 3175 4231 2741 4231 
Q 1884 4231 1454 3753 
Q 1025 3275 1025 2328 
Q 1025 1384 1454 906 
Q 1884 428 2741 428 
Q 3075 428 3337 486 
Q 3600 544 3809 666 
z
" transform="scale(0.015625)"/>
      <path id="DejaVuSans-4e" d="M 628 4666 
L 1478 4666 
L 3547 763 
L 3547 4666 
L 4159 4666 
L 4159 0 
L 3309 0 
L 1241 3903 
L 1241 0 
L 628 0 
L 628 4666 
z
" transform="scale(0.015625)"/>
      <path id="DejaVuSans-6e" d="M 3513 2113 
L 3513 0 
L 2938 0 
L 2938 2094 
Q 2938 2591 2744 2837 
Q 2550 3084 2163 3084 
Q 1697 3084 1428 2787 
Q 1159 2491 1159 1978 
L 1159 0 
L 581 0 
L 581 3500 
L 1159 3500 
L 1159 2956 
Q 1366 3272 1645 3428 
Q 1925 3584 2291 3584 
Q 2894 3584 3203 3211 
Q 3513 2838 3513 2113 
z
" transform="scale(0.015625)"/>
      <path id="DejaVuSans-79" d="M 2059 -325 
Q 1816 -950 1584 -1140 
Q 1353 -1331 966 -1331 
L 506 -1331 
L 506 -850 
L 844 -850 
Q 1081 -850 1212 -737 
Q 1344 -625 1503 -206 
L 1606 56 
L 191 3500 
L 800 3500 
L 1894 763 
L 2988 3500 
L 3597 3500 
L 2059 -325 
z
" transform="scale(0.015625)"/>
      <path id="DejaVuSans-6d" d="M 3328 2828 
Q 3544 3216 3844 3400 
Q 4144 3584 4550 3584 
Q 5097 3584 5394 3201 
Q 5691 2819 5691 2113 
L 5691 0 
L 5113 0 
L 5113 2094 
Q 5113 2597 4934 2840 
Q 4756 3084 4391 3084 
Q 3944 3084 3684 2787 
Q 3425 2491 3425 1978 
L 3425 0 
L 2847 0 
L 2847 2094 
Q 2847 2600 2669 2842 
Q 2491 3084 2119 3084 
Q 1678 3084 1418 2786 
Q 1159 2488 1159 1978 
L 1159 0 
L 581 0 
L 581 3500 
L 1159 3500 
L 1159 2956 
Q 1356 3278 1631 3431 
Q 1906 3584 2284 3584 
Q 2666 3584 2933 3390 
Q 3200 3197 3328 2828 
z
" transform="scale(0.015625)"/>
     </defs>
     <use xlink:href="#DejaVuSans-63"/>
     <use xlink:href="#DejaVuSans-61" transform="translate(54.980469 0)"/>
     <use xlink:href="#DejaVuSans-72" transform="translate(116.259766 0)"/>
     <use xlink:href="#DejaVuSans-74" transform="translate(157.373047 0)"/>
     <use xlink:href="#DejaVuSans-70" transform="translate(196.582031 0)"/>
     <use xlink:href="#DejaVuSans-6f" transform="translate(260.058594 0)"/>
     <use xlink:href="#DejaVuSans-6c" transform="translate(321.240234 0)"/>
     <use xlink:href="#DejaVuSans-65" transform="translate(349.023438 0)"/>
     <use xlink:href="#DejaVuSans-5f" transform="translate(410.546875 0)"/>
     <use xlink:href="#DejaVuSans-47" transform="translate(460.546875 0)"/>
     <use xlink:href="#DejaVuSans-4e" transform="translate(538.037109 0)"/>
     <use xlink:href="#DejaVuSans-4e" transform="translate(612.841797 0)"/>
     <use xlink:href="#DejaVuSans-5f" transform="translate(687.646484 0)"/>
     <use xlink:href="#DejaVuSans-4e" transform="translate(737.646484 0)"/>
     <use xlink:href="#DejaVuSans-5f" transform="translate(812.451172 0)"/>
     <use xlink:href="#DejaVuSans-6e" transform="translate(862.451172 0)"/>
     <use xlink:href="#DejaVuSans-6f" transform="translate(925.830078 0)"/>
     <use xlink:href="#DejaVuSans-69" transform="translate(987.011719 0)"/>
     <use xlink:href="#DejaVuSans-73" transform="translate(1014.794922 0)"/>
     <use xlink:href="#DejaVuSans-65" transform="translate(1066.894531 0)"/>
     <use xlink:href="#DejaVuSans-5f" transform="translate(1128.417969 0)"/>
     <use xlink:href="#DejaVuSans-65" transform="translate(1178.417969 0)"/>
     <use xlink:href="#DejaVuSans-6e" transform="translate(1239.941406 0)"/>
     <use xlink:href="#DejaVuSans-74" transform="translate(1303.320312 0)"/>
     <use xlink:href="#DejaVuSans-72" transform="translate(1342.529297 0)"/>
     <use xlink:href="#DejaVuSans-6f" transform="translate(1381.392578 0)"/>
     <use xlink:href="#DejaVuSans-70" transform="translate(1442.574219 0)"/>
     <use xlink:href="#DejaVuSans-79" transform="translate(1506.050781 0)"/>
     <use xlink:href="#DejaVuSans-5f" transform="translate(1565.230469 0)"/>
     <use xlink:href="#DejaVuSans-6d" transform="translate(1615.230469 0)"/>
     <use xlink:href="#DejaVuSans-6c" transform="translate(1712.642578 0)"/>
     <use xlink:href="#DejaVuSans-70" transform="translate(1740.425781 0)"/>
    </g>
   </g>
   <g id="legend_1">
    <g id="patch_7">
     <path d="M 57.87 385.04 
L 226.796563 385.04 
Q 228.796563 385.04 228.796563 383.04 
L 228.796563 310.649375 
Q 228.796563 308.649375 226.796563 308.649375 
L 57.87 308.649375 
Q 55.87 308.649375 55.87 310.649375 
L 55.87 383.04 
Q 55.87 385.04 57.87 385.04 
z
" style="fill: #eaeaf2; opacity: 0.8; stroke: #cccccc; stroke-linejoin: miter"/>
    </g>
    <g id="line2d_36">
     <path d="M 59.87 316.747813 
L 69.87 316.747813 
L 79.87 316.747813 
" style="fill: none; stroke: #0000ff; stroke-width: 1.5; stroke-linecap: round"/>
    </g>
    <g id="text_31">
     <!-- Mean Reward -->
     <g style="fill: #262626" transform="translate(87.87 320.247813) scale(0.1 -0.1)">
      <defs>
       <path id="DejaVuSans-4d" d="M 628 4666 
L 1569 4666 
L 2759 1491 
L 3956 4666 
L 4897 4666 
L 4897 0 
L 4281 0 
L 4281 4097 
L 3078 897 
L 2444 897 
L 1241 4097 
L 1241 0 
L 628 0 
L 628 4666 
z
" transform="scale(0.015625)"/>
       <path id="DejaVuSans-20" transform="scale(0.015625)"/>
      </defs>
      <use xlink:href="#DejaVuSans-4d"/>
      <use xlink:href="#DejaVuSans-65" transform="translate(86.279297 0)"/>
      <use xlink:href="#DejaVuSans-61" transform="translate(147.802734 0)"/>
      <use xlink:href="#DejaVuSans-6e" transform="translate(209.082031 0)"/>
      <use xlink:href="#DejaVuSans-20" transform="translate(272.460938 0)"/>
      <use xlink:href="#DejaVuSans-52" transform="translate(304.248047 0)"/>
      <use xlink:href="#DejaVuSans-65" transform="translate(369.230469 0)"/>
      <use xlink:href="#DejaVuSans-77" transform="translate(430.753906 0)"/>
      <use xlink:href="#DejaVuSans-61" transform="translate(512.541016 0)"/>
      <use xlink:href="#DejaVuSans-72" transform="translate(573.820312 0)"/>
      <use xlink:href="#DejaVuSans-64" transform="translate(613.183594 0)"/>
     </g>
    </g>
    <g id="line2d_37">
     <path d="M 59.87 331.425937 
L 69.87 331.425937 
L 79.87 331.425937 
" style="fill: none; stroke: #008000; stroke-opacity: 0.2; stroke-linecap: round"/>
    </g>
    <g id="text_32">
     <!-- Reward (individual runs) -->
     <g style="fill: #262626" transform="translate(87.87 334.925937) scale(0.1 -0.1)">
      <defs>
       <path id="DejaVuSans-28" d="M 1984 4856 
Q 1566 4138 1362 3434 
Q 1159 2731 1159 2009 
Q 1159 1288 1364 580 
Q 1569 -128 1984 -844 
L 1484 -844 
Q 1016 -109 783 600 
Q 550 1309 550 2009 
Q 550 2706 781 3412 
Q 1013 4119 1484 4856 
L 1984 4856 
z
" transform="scale(0.015625)"/>
       <path id="DejaVuSans-76" d="M 191 3500 
L 800 3500 
L 1894 563 
L 2988 3500 
L 3597 3500 
L 2284 0 
L 1503 0 
L 191 3500 
z
" transform="scale(0.015625)"/>
       <path id="DejaVuSans-75" d="M 544 1381 
L 544 3500 
L 1119 3500 
L 1119 1403 
Q 1119 906 1312 657 
Q 1506 409 1894 409 
Q 2359 409 2629 706 
Q 2900 1003 2900 1516 
L 2900 3500 
L 3475 3500 
L 3475 0 
L 2900 0 
L 2900 538 
Q 2691 219 2414 64 
Q 2138 -91 1772 -91 
Q 1169 -91 856 284 
Q 544 659 544 1381 
z
M 1991 3584 
L 1991 3584 
z
" transform="scale(0.015625)"/>
       <path id="DejaVuSans-29" d="M 513 4856 
L 1013 4856 
Q 1481 4119 1714 3412 
Q 1947 2706 1947 2009 
Q 1947 1309 1714 600 
Q 1481 -109 1013 -844 
L 513 -844 
Q 928 -128 1133 580 
Q 1338 1288 1338 2009 
Q 1338 2731 1133 3434 
Q 928 4138 513 4856 
z
" transform="scale(0.015625)"/>
      </defs>
      <use xlink:href="#DejaVuSans-52"/>
      <use xlink:href="#DejaVuSans-65" transform="translate(64.982422 0)"/>
      <use xlink:href="#DejaVuSans-77" transform="translate(126.505859 0)"/>
      <use xlink:href="#DejaVuSans-61" transform="translate(208.292969 0)"/>
      <use xlink:href="#DejaVuSans-72" transform="translate(269.572266 0)"/>
      <use xlink:href="#DejaVuSans-64" transform="translate(308.935547 0)"/>
      <use xlink:href="#DejaVuSans-20" transform="translate(372.412109 0)"/>
      <use xlink:href="#DejaVuSans-28" transform="translate(404.199219 0)"/>
      <use xlink:href="#DejaVuSans-69" transform="translate(443.212891 0)"/>
      <use xlink:href="#DejaVuSans-6e" transform="translate(470.996094 0)"/>
      <use xlink:href="#DejaVuSans-64" transform="translate(534.375 0)"/>
      <use xlink:href="#DejaVuSans-69" transform="translate(597.851562 0)"/>
      <use xlink:href="#DejaVuSans-76" transform="translate(625.634766 0)"/>
      <use xlink:href="#DejaVuSans-69" transform="translate(684.814453 0)"/>
      <use xlink:href="#DejaVuSans-64" transform="translate(712.597656 0)"/>
      <use xlink:href="#DejaVuSans-75" transform="translate(776.074219 0)"/>
      <use xlink:href="#DejaVuSans-61" transform="translate(839.453125 0)"/>
      <use xlink:href="#DejaVuSans-6c" transform="translate(900.732422 0)"/>
      <use xlink:href="#DejaVuSans-20" transform="translate(928.515625 0)"/>
      <use xlink:href="#DejaVuSans-72" transform="translate(960.302734 0)"/>
      <use xlink:href="#DejaVuSans-75" transform="translate(1001.416016 0)"/>
      <use xlink:href="#DejaVuSans-6e" transform="translate(1064.794922 0)"/>
      <use xlink:href="#DejaVuSans-73" transform="translate(1128.173828 0)"/>
      <use xlink:href="#DejaVuSans-29" transform="translate(1180.273438 0)"/>
     </g>
    </g>
    <g id="line2d_38">
     <path d="M 59.87 346.104062 
L 69.87 346.104062 
L 79.87 346.104062 
" style="fill: none; stroke: #ff0000; stroke-linecap: round"/>
    </g>
    <g id="text_33">
     <!-- Noise std (normalized) -->
     <g style="fill: #262626" transform="translate(87.87 349.604062) scale(0.1 -0.1)">
      <defs>
       <path id="DejaVuSans-7a" d="M 353 3500 
L 3084 3500 
L 3084 2975 
L 922 459 
L 3084 459 
L 3084 0 
L 275 0 
L 275 525 
L 2438 3041 
L 353 3041 
L 353 3500 
z
" transform="scale(0.015625)"/>
      </defs>
      <use xlink:href="#DejaVuSans-4e"/>
      <use xlink:href="#DejaVuSans-6f" transform="translate(74.804688 0)"/>
      <use xlink:href="#DejaVuSans-69" transform="translate(135.986328 0)"/>
      <use xlink:href="#DejaVuSans-73" transform="translate(163.769531 0)"/>
      <use xlink:href="#DejaVuSans-65" transform="translate(215.869141 0)"/>
      <use xlink:href="#DejaVuSans-20" transform="translate(277.392578 0)"/>
      <use xlink:href="#DejaVuSans-73" transform="translate(309.179688 0)"/>
      <use xlink:href="#DejaVuSans-74" transform="translate(361.279297 0)"/>
      <use xlink:href="#DejaVuSans-64" transform="translate(400.488281 0)"/>
      <use xlink:href="#DejaVuSans-20" transform="translate(463.964844 0)"/>
      <use xlink:href="#DejaVuSans-28" transform="translate(495.751953 0)"/>
      <use xlink:href="#DejaVuSans-6e" transform="translate(534.765625 0)"/>
      <use xlink:href="#DejaVuSans-6f" transform="translate(598.144531 0)"/>
      <use xlink:href="#DejaVuSans-72" transform="translate(659.326172 0)"/>
      <use xlink:href="#DejaVuSans-6d" transform="translate(698.689453 0)"/>
      <use xlink:href="#DejaVuSans-61" transform="translate(796.101562 0)"/>
      <use xlink:href="#DejaVuSans-6c" transform="translate(857.380859 0)"/>
      <use xlink:href="#DejaVuSans-69" transform="translate(885.164062 0)"/>
      <use xlink:href="#DejaVuSans-7a" transform="translate(912.947266 0)"/>
      <use xlink:href="#DejaVuSans-65" transform="translate(965.4375 0)"/>
      <use xlink:href="#DejaVuSans-64" transform="translate(1026.960938 0)"/>
      <use xlink:href="#DejaVuSans-29" transform="translate(1090.4375 0)"/>
     </g>
    </g>
    <g id="line2d_39">
     <path d="M 59.87 360.782187 
L 69.87 360.782187 
L 79.87 360.782187 
" style="fill: none; stroke: #800080; stroke-linecap: round"/>
    </g>
    <g id="text_34">
     <!-- Entropy (normalized) -->
     <g style="fill: #262626" transform="translate(87.87 364.282187) scale(0.1 -0.1)">
      <use xlink:href="#DejaVuSans-45"/>
      <use xlink:href="#DejaVuSans-6e" transform="translate(63.183594 0)"/>
      <use xlink:href="#DejaVuSans-74" transform="translate(126.5625 0)"/>
      <use xlink:href="#DejaVuSans-72" transform="translate(165.771484 0)"/>
      <use xlink:href="#DejaVuSans-6f" transform="translate(204.634766 0)"/>
      <use xlink:href="#DejaVuSans-70" transform="translate(265.816406 0)"/>
      <use xlink:href="#DejaVuSans-79" transform="translate(329.292969 0)"/>
      <use xlink:href="#DejaVuSans-20" transform="translate(388.472656 0)"/>
      <use xlink:href="#DejaVuSans-28" transform="translate(420.259766 0)"/>
      <use xlink:href="#DejaVuSans-6e" transform="translate(459.273438 0)"/>
      <use xlink:href="#DejaVuSans-6f" transform="translate(522.652344 0)"/>
      <use xlink:href="#DejaVuSans-72" transform="translate(583.833984 0)"/>
      <use xlink:href="#DejaVuSans-6d" transform="translate(623.197266 0)"/>
      <use xlink:href="#DejaVuSans-61" transform="translate(720.609375 0)"/>
      <use xlink:href="#DejaVuSans-6c" transform="translate(781.888672 0)"/>
      <use xlink:href="#DejaVuSans-69" transform="translate(809.671875 0)"/>
      <use xlink:href="#DejaVuSans-7a" transform="translate(837.455078 0)"/>
      <use xlink:href="#DejaVuSans-65" transform="translate(889.945312 0)"/>
      <use xlink:href="#DejaVuSans-64" transform="translate(951.46875 0)"/>
      <use xlink:href="#DejaVuSans-29" transform="translate(1014.945312 0)"/>
     </g>
    </g>
    <g id="patch_8">
     <path d="M 59.87 378.960312 
L 79.87 378.960312 
L 79.87 371.960312 
L 59.87 371.960312 
z
" style="fill: #0000ff; fill-opacity: 0.1"/>
    </g>
    <g id="text_35">
     <!-- Reward Standard Deviation -->
     <g style="fill: #262626" transform="translate(87.87 378.960312) scale(0.1 -0.1)">
      <defs>
       <path id="DejaVuSans-53" d="M 3425 4513 
L 3425 3897 
Q 3066 4069 2747 4153 
Q 2428 4238 2131 4238 
Q 1616 4238 1336 4038 
Q 1056 3838 1056 3469 
Q 1056 3159 1242 3001 
Q 1428 2844 1947 2747 
L 2328 2669 
Q 3034 2534 3370 2195 
Q 3706 1856 3706 1288 
Q 3706 609 3251 259 
Q 2797 -91 1919 -91 
Q 1588 -91 1214 -16 
Q 841 59 441 206 
L 441 856 
Q 825 641 1194 531 
Q 1563 422 1919 422 
Q 2459 422 2753 634 
Q 3047 847 3047 1241 
Q 3047 1584 2836 1778 
Q 2625 1972 2144 2069 
L 1759 2144 
Q 1053 2284 737 2584 
Q 422 2884 422 3419 
Q 422 4038 858 4394 
Q 1294 4750 2059 4750 
Q 2388 4750 2728 4690 
Q 3069 4631 3425 4513 
z
" transform="scale(0.015625)"/>
       <path id="DejaVuSans-44" d="M 1259 4147 
L 1259 519 
L 2022 519 
Q 2988 519 3436 956 
Q 3884 1394 3884 2338 
Q 3884 3275 3436 3711 
Q 2988 4147 2022 4147 
L 1259 4147 
z
M 628 4666 
L 1925 4666 
Q 3281 4666 3915 4102 
Q 4550 3538 4550 2338 
Q 4550 1131 3912 565 
Q 3275 0 1925 0 
L 628 0 
L 628 4666 
z
" transform="scale(0.015625)"/>
      </defs>
      <use xlink:href="#DejaVuSans-52"/>
      <use xlink:href="#DejaVuSans-65" transform="translate(64.982422 0)"/>
      <use xlink:href="#DejaVuSans-77" transform="translate(126.505859 0)"/>
      <use xlink:href="#DejaVuSans-61" transform="translate(208.292969 0)"/>
      <use xlink:href="#DejaVuSans-72" transform="translate(269.572266 0)"/>
      <use xlink:href="#DejaVuSans-64" transform="translate(308.935547 0)"/>
      <use xlink:href="#DejaVuSans-20" transform="translate(372.412109 0)"/>
      <use xlink:href="#DejaVuSans-53" transform="translate(404.199219 0)"/>
      <use xlink:href="#DejaVuSans-74" transform="translate(467.675781 0)"/>
      <use xlink:href="#DejaVuSans-61" transform="translate(506.884766 0)"/>
      <use xlink:href="#DejaVuSans-6e" transform="translate(568.164062 0)"/>
      <use xlink:href="#DejaVuSans-64" transform="translate(631.542969 0)"/>
      <use xlink:href="#DejaVuSans-61" transform="translate(695.019531 0)"/>
      <use xlink:href="#DejaVuSans-72" transform="translate(756.298828 0)"/>
      <use xlink:href="#DejaVuSans-64" transform="translate(795.662109 0)"/>
      <use xlink:href="#DejaVuSans-20" transform="translate(859.138672 0)"/>
      <use xlink:href="#DejaVuSans-44" transform="translate(890.925781 0)"/>
      <use xlink:href="#DejaVuSans-65" transform="translate(967.927734 0)"/>
      <use xlink:href="#DejaVuSans-76" transform="translate(1029.451172 0)"/>
      <use xlink:href="#DejaVuSans-69" transform="translate(1088.630859 0)"/>
      <use xlink:href="#DejaVuSans-61" transform="translate(1116.414062 0)"/>
      <use xlink:href="#DejaVuSans-74" transform="translate(1177.693359 0)"/>
      <use xlink:href="#DejaVuSans-69" transform="translate(1216.902344 0)"/>
      <use xlink:href="#DejaVuSans-6f" transform="translate(1244.685547 0)"/>
      <use xlink:href="#DejaVuSans-6e" transform="translate(1305.867188 0)"/>
     </g>
    </g>
   </g>
  </g>
 </g>
 <defs>
  <clipPath id="peda0dd63f0">
   <rect x="50.87" y="26.88" width="513.419615" height="363.16"/>
  </clipPath>
 </defs>
</svg>
