<?xml version="1.0" encoding="utf-8" standalone="no"?>
<!DOCTYPE svg PUBLIC "-//W3C//DTD SVG 1.1//EN"
  "http://www.w3.org/Graphics/SVG/1.1/DTD/svg11.dtd">
<svg xmlns:xlink="http://www.w3.org/1999/xlink" width="576pt" height="432pt" viewBox="0 0 576 432" xmlns="http://www.w3.org/2000/svg" version="1.1">
 <metadata>
  <rdf:RDF xmlns:dc="http://purl.org/dc/elements/1.1/" xmlns:cc="http://creativecommons.org/ns#" xmlns:rdf="http://www.w3.org/1999/02/22-rdf-syntax-ns#">
   <cc:Work>
    <dc:type rdf:resource="http://purl.org/dc/dcmitype/StillImage"/>
    <dc:date>2025-07-07T22:28:01.388459</dc:date>
    <dc:format>image/svg+xml</dc:format>
    <dc:creator>
     <cc:Agent>
      <dc:title>Matplotlib v3.10.0, https://matplotlib.org/</dc:title>
     </cc:Agent>
    </dc:creator>
   </cc:Work>
  </rdf:RDF>
 </metadata>
 <defs>
  <style type="text/css">*{stroke-linejoin: round; stroke-linecap: butt}</style>
 </defs>
 <g id="figure_1">
  <g id="patch_1">
   <path d="M 0 432 
L 576 432 
L 576 0 
L 0 0 
z
" style="fill: #ffffff"/>
  </g>
  <g id="axes_1">
   <g id="patch_2">
    <path d="M 50.87 390.04 
L 564.289615 390.04 
L 564.289615 26.88 
L 50.87 26.88 
z
" style="fill: #eaeaf2"/>
   </g>
   <g id="matplotlib.axis_1">
    <g id="xtick_1">
     <g id="line2d_1">
      <path d="M 60.743454 390.04 
L 60.743454 26.88 
" clip-path="url(#pd2367b8407)" style="fill: none; stroke: #ffffff; stroke-width: 0.8; stroke-linecap: round"/>
     </g>
     <g id="text_1">
      <!-- 0 -->
      <g style="fill: #262626" transform="translate(57.562204 404.638438) scale(0.1 -0.1)">
       <defs>
        <path id="DejaVuSans-30" d="M 2034 4250 
Q 1547 4250 1301 3770 
Q 1056 3291 1056 2328 
Q 1056 1369 1301 889 
Q 1547 409 2034 409 
Q 2525 409 2770 889 
Q 3016 1369 3016 2328 
Q 3016 3291 2770 3770 
Q 2525 4250 2034 4250 
z
M 2034 4750 
Q 2819 4750 3233 4129 
Q 3647 3509 3647 2328 
Q 3647 1150 3233 529 
Q 2819 -91 2034 -91 
Q 1250 -91 836 529 
Q 422 1150 422 2328 
Q 422 3509 836 4129 
Q 1250 4750 2034 4750 
z
" transform="scale(0.015625)"/>
       </defs>
       <use xlink:href="#DejaVuSans-30"/>
      </g>
     </g>
    </g>
    <g id="xtick_2">
     <g id="line2d_2">
      <path d="M 93.654968 390.04 
L 93.654968 26.88 
" clip-path="url(#pd2367b8407)" style="fill: none; stroke: #ffffff; stroke-width: 0.8; stroke-linecap: round"/>
     </g>
     <g id="text_2">
      <!-- 10 -->
      <g style="fill: #262626" transform="translate(87.292468 404.638438) scale(0.1 -0.1)">
       <defs>
        <path id="DejaVuSans-31" d="M 794 531 
L 1825 531 
L 1825 4091 
L 703 3866 
L 703 4441 
L 1819 4666 
L 2450 4666 
L 2450 531 
L 3481 531 
L 3481 0 
L 794 0 
L 794 531 
z
" transform="scale(0.015625)"/>
       </defs>
       <use xlink:href="#DejaVuSans-31"/>
       <use xlink:href="#DejaVuSans-30" transform="translate(63.623047 0)"/>
      </g>
     </g>
    </g>
    <g id="xtick_3">
     <g id="line2d_3">
      <path d="M 126.566482 390.04 
L 126.566482 26.88 
" clip-path="url(#pd2367b8407)" style="fill: none; stroke: #ffffff; stroke-width: 0.8; stroke-linecap: round"/>
     </g>
     <g id="text_3">
      <!-- 20 -->
      <g style="fill: #262626" transform="translate(120.203982 404.638438) scale(0.1 -0.1)">
       <defs>
        <path id="DejaVuSans-32" d="M 1228 531 
L 3431 531 
L 3431 0 
L 469 0 
L 469 531 
Q 828 903 1448 1529 
Q 2069 2156 2228 2338 
Q 2531 2678 2651 2914 
Q 2772 3150 2772 3378 
Q 2772 3750 2511 3984 
Q 2250 4219 1831 4219 
Q 1534 4219 1204 4116 
Q 875 4013 500 3803 
L 500 4441 
Q 881 4594 1212 4672 
Q 1544 4750 1819 4750 
Q 2544 4750 2975 4387 
Q 3406 4025 3406 3419 
Q 3406 3131 3298 2873 
Q 3191 2616 2906 2266 
Q 2828 2175 2409 1742 
Q 1991 1309 1228 531 
z
" transform="scale(0.015625)"/>
       </defs>
       <use xlink:href="#DejaVuSans-32"/>
       <use xlink:href="#DejaVuSans-30" transform="translate(63.623047 0)"/>
      </g>
     </g>
    </g>
    <g id="xtick_4">
     <g id="line2d_4">
      <path d="M 159.477996 390.04 
L 159.477996 26.88 
" clip-path="url(#pd2367b8407)" style="fill: none; stroke: #ffffff; stroke-width: 0.8; stroke-linecap: round"/>
     </g>
     <g id="text_4">
      <!-- 30 -->
      <g style="fill: #262626" transform="translate(153.115496 404.638438) scale(0.1 -0.1)">
       <defs>
        <path id="DejaVuSans-33" d="M 2597 2516 
Q 3050 2419 3304 2112 
Q 3559 1806 3559 1356 
Q 3559 666 3084 287 
Q 2609 -91 1734 -91 
Q 1441 -91 1130 -33 
Q 819 25 488 141 
L 488 750 
Q 750 597 1062 519 
Q 1375 441 1716 441 
Q 2309 441 2620 675 
Q 2931 909 2931 1356 
Q 2931 1769 2642 2001 
Q 2353 2234 1838 2234 
L 1294 2234 
L 1294 2753 
L 1863 2753 
Q 2328 2753 2575 2939 
Q 2822 3125 2822 3475 
Q 2822 3834 2567 4026 
Q 2313 4219 1838 4219 
Q 1578 4219 1281 4162 
Q 984 4106 628 3988 
L 628 4550 
Q 988 4650 1302 4700 
Q 1616 4750 1894 4750 
Q 2613 4750 3031 4423 
Q 3450 4097 3450 3541 
Q 3450 3153 3228 2886 
Q 3006 2619 2597 2516 
z
" transform="scale(0.015625)"/>
       </defs>
       <use xlink:href="#DejaVuSans-33"/>
       <use xlink:href="#DejaVuSans-30" transform="translate(63.623047 0)"/>
      </g>
     </g>
    </g>
    <g id="xtick_5">
     <g id="line2d_5">
      <path d="M 192.389509 390.04 
L 192.389509 26.88 
" clip-path="url(#pd2367b8407)" style="fill: none; stroke: #ffffff; stroke-width: 0.8; stroke-linecap: round"/>
     </g>
     <g id="text_5">
      <!-- 40 -->
      <g style="fill: #262626" transform="translate(186.027009 404.638438) scale(0.1 -0.1)">
       <defs>
        <path id="DejaVuSans-34" d="M 2419 4116 
L 825 1625 
L 2419 1625 
L 2419 4116 
z
M 2253 4666 
L 3047 4666 
L 3047 1625 
L 3713 1625 
L 3713 1100 
L 3047 1100 
L 3047 0 
L 2419 0 
L 2419 1100 
L 313 1100 
L 313 1709 
L 2253 4666 
z
" transform="scale(0.015625)"/>
       </defs>
       <use xlink:href="#DejaVuSans-34"/>
       <use xlink:href="#DejaVuSans-30" transform="translate(63.623047 0)"/>
      </g>
     </g>
    </g>
    <g id="xtick_6">
     <g id="line2d_6">
      <path d="M 225.301023 390.04 
L 225.301023 26.88 
" clip-path="url(#pd2367b8407)" style="fill: none; stroke: #ffffff; stroke-width: 0.8; stroke-linecap: round"/>
     </g>
     <g id="text_6">
      <!-- 50 -->
      <g style="fill: #262626" transform="translate(218.938523 404.638438) scale(0.1 -0.1)">
       <defs>
        <path id="DejaVuSans-35" d="M 691 4666 
L 3169 4666 
L 3169 4134 
L 1269 4134 
L 1269 2991 
Q 1406 3038 1543 3061 
Q 1681 3084 1819 3084 
Q 2600 3084 3056 2656 
Q 3513 2228 3513 1497 
Q 3513 744 3044 326 
Q 2575 -91 1722 -91 
Q 1428 -91 1123 -41 
Q 819 9 494 109 
L 494 744 
Q 775 591 1075 516 
Q 1375 441 1709 441 
Q 2250 441 2565 725 
Q 2881 1009 2881 1497 
Q 2881 1984 2565 2268 
Q 2250 2553 1709 2553 
Q 1456 2553 1204 2497 
Q 953 2441 691 2322 
L 691 4666 
z
" transform="scale(0.015625)"/>
       </defs>
       <use xlink:href="#DejaVuSans-35"/>
       <use xlink:href="#DejaVuSans-30" transform="translate(63.623047 0)"/>
      </g>
     </g>
    </g>
    <g id="xtick_7">
     <g id="line2d_7">
      <path d="M 258.212537 390.04 
L 258.212537 26.88 
" clip-path="url(#pd2367b8407)" style="fill: none; stroke: #ffffff; stroke-width: 0.8; stroke-linecap: round"/>
     </g>
     <g id="text_7">
      <!-- 60 -->
      <g style="fill: #262626" transform="translate(251.850037 404.638438) scale(0.1 -0.1)">
       <defs>
        <path id="DejaVuSans-36" d="M 2113 2584 
Q 1688 2584 1439 2293 
Q 1191 2003 1191 1497 
Q 1191 994 1439 701 
Q 1688 409 2113 409 
Q 2538 409 2786 701 
Q 3034 994 3034 1497 
Q 3034 2003 2786 2293 
Q 2538 2584 2113 2584 
z
M 3366 4563 
L 3366 3988 
Q 3128 4100 2886 4159 
Q 2644 4219 2406 4219 
Q 1781 4219 1451 3797 
Q 1122 3375 1075 2522 
Q 1259 2794 1537 2939 
Q 1816 3084 2150 3084 
Q 2853 3084 3261 2657 
Q 3669 2231 3669 1497 
Q 3669 778 3244 343 
Q 2819 -91 2113 -91 
Q 1303 -91 875 529 
Q 447 1150 447 2328 
Q 447 3434 972 4092 
Q 1497 4750 2381 4750 
Q 2619 4750 2861 4703 
Q 3103 4656 3366 4563 
z
" transform="scale(0.015625)"/>
       </defs>
       <use xlink:href="#DejaVuSans-36"/>
       <use xlink:href="#DejaVuSans-30" transform="translate(63.623047 0)"/>
      </g>
     </g>
    </g>
    <g id="xtick_8">
     <g id="line2d_8">
      <path d="M 291.124051 390.04 
L 291.124051 26.88 
" clip-path="url(#pd2367b8407)" style="fill: none; stroke: #ffffff; stroke-width: 0.8; stroke-linecap: round"/>
     </g>
     <g id="text_8">
      <!-- 70 -->
      <g style="fill: #262626" transform="translate(284.761551 404.638438) scale(0.1 -0.1)">
       <defs>
        <path id="DejaVuSans-37" d="M 525 4666 
L 3525 4666 
L 3525 4397 
L 1831 0 
L 1172 0 
L 2766 4134 
L 525 4134 
L 525 4666 
z
" transform="scale(0.015625)"/>
       </defs>
       <use xlink:href="#DejaVuSans-37"/>
       <use xlink:href="#DejaVuSans-30" transform="translate(63.623047 0)"/>
      </g>
     </g>
    </g>
    <g id="xtick_9">
     <g id="line2d_9">
      <path d="M 324.035565 390.04 
L 324.035565 26.88 
" clip-path="url(#pd2367b8407)" style="fill: none; stroke: #ffffff; stroke-width: 0.8; stroke-linecap: round"/>
     </g>
     <g id="text_9">
      <!-- 80 -->
      <g style="fill: #262626" transform="translate(317.673065 404.638438) scale(0.1 -0.1)">
       <defs>
        <path id="DejaVuSans-38" d="M 2034 2216 
Q 1584 2216 1326 1975 
Q 1069 1734 1069 1313 
Q 1069 891 1326 650 
Q 1584 409 2034 409 
Q 2484 409 2743 651 
Q 3003 894 3003 1313 
Q 3003 1734 2745 1975 
Q 2488 2216 2034 2216 
z
M 1403 2484 
Q 997 2584 770 2862 
Q 544 3141 544 3541 
Q 544 4100 942 4425 
Q 1341 4750 2034 4750 
Q 2731 4750 3128 4425 
Q 3525 4100 3525 3541 
Q 3525 3141 3298 2862 
Q 3072 2584 2669 2484 
Q 3125 2378 3379 2068 
Q 3634 1759 3634 1313 
Q 3634 634 3220 271 
Q 2806 -91 2034 -91 
Q 1263 -91 848 271 
Q 434 634 434 1313 
Q 434 1759 690 2068 
Q 947 2378 1403 2484 
z
M 1172 3481 
Q 1172 3119 1398 2916 
Q 1625 2713 2034 2713 
Q 2441 2713 2670 2916 
Q 2900 3119 2900 3481 
Q 2900 3844 2670 4047 
Q 2441 4250 2034 4250 
Q 1625 4250 1398 4047 
Q 1172 3844 1172 3481 
z
" transform="scale(0.015625)"/>
       </defs>
       <use xlink:href="#DejaVuSans-38"/>
       <use xlink:href="#DejaVuSans-30" transform="translate(63.623047 0)"/>
      </g>
     </g>
    </g>
    <g id="xtick_10">
     <g id="line2d_10">
      <path d="M 356.947078 390.04 
L 356.947078 26.88 
" clip-path="url(#pd2367b8407)" style="fill: none; stroke: #ffffff; stroke-width: 0.8; stroke-linecap: round"/>
     </g>
     <g id="text_10">
      <!-- 90 -->
      <g style="fill: #262626" transform="translate(350.584578 404.638438) scale(0.1 -0.1)">
       <defs>
        <path id="DejaVuSans-39" d="M 703 97 
L 703 672 
Q 941 559 1184 500 
Q 1428 441 1663 441 
Q 2288 441 2617 861 
Q 2947 1281 2994 2138 
Q 2813 1869 2534 1725 
Q 2256 1581 1919 1581 
Q 1219 1581 811 2004 
Q 403 2428 403 3163 
Q 403 3881 828 4315 
Q 1253 4750 1959 4750 
Q 2769 4750 3195 4129 
Q 3622 3509 3622 2328 
Q 3622 1225 3098 567 
Q 2575 -91 1691 -91 
Q 1453 -91 1209 -44 
Q 966 3 703 97 
z
M 1959 2075 
Q 2384 2075 2632 2365 
Q 2881 2656 2881 3163 
Q 2881 3666 2632 3958 
Q 2384 4250 1959 4250 
Q 1534 4250 1286 3958 
Q 1038 3666 1038 3163 
Q 1038 2656 1286 2365 
Q 1534 2075 1959 2075 
z
" transform="scale(0.015625)"/>
       </defs>
       <use xlink:href="#DejaVuSans-39"/>
       <use xlink:href="#DejaVuSans-30" transform="translate(63.623047 0)"/>
      </g>
     </g>
    </g>
    <g id="xtick_11">
     <g id="line2d_11">
      <path d="M 389.858592 390.04 
L 389.858592 26.88 
" clip-path="url(#pd2367b8407)" style="fill: none; stroke: #ffffff; stroke-width: 0.8; stroke-linecap: round"/>
     </g>
     <g id="text_11">
      <!-- 100 -->
      <g style="fill: #262626" transform="translate(380.314842 404.638438) scale(0.1 -0.1)">
       <use xlink:href="#DejaVuSans-31"/>
       <use xlink:href="#DejaVuSans-30" transform="translate(63.623047 0)"/>
       <use xlink:href="#DejaVuSans-30" transform="translate(127.246094 0)"/>
      </g>
     </g>
    </g>
    <g id="xtick_12">
     <g id="line2d_12">
      <path d="M 422.770106 390.04 
L 422.770106 26.88 
" clip-path="url(#pd2367b8407)" style="fill: none; stroke: #ffffff; stroke-width: 0.8; stroke-linecap: round"/>
     </g>
     <g id="text_12">
      <!-- 110 -->
      <g style="fill: #262626" transform="translate(413.226356 404.638438) scale(0.1 -0.1)">
       <use xlink:href="#DejaVuSans-31"/>
       <use xlink:href="#DejaVuSans-31" transform="translate(63.623047 0)"/>
       <use xlink:href="#DejaVuSans-30" transform="translate(127.246094 0)"/>
      </g>
     </g>
    </g>
    <g id="xtick_13">
     <g id="line2d_13">
      <path d="M 455.68162 390.04 
L 455.68162 26.88 
" clip-path="url(#pd2367b8407)" style="fill: none; stroke: #ffffff; stroke-width: 0.8; stroke-linecap: round"/>
     </g>
     <g id="text_13">
      <!-- 120 -->
      <g style="fill: #262626" transform="translate(446.13787 404.638438) scale(0.1 -0.1)">
       <use xlink:href="#DejaVuSans-31"/>
       <use xlink:href="#DejaVuSans-32" transform="translate(63.623047 0)"/>
       <use xlink:href="#DejaVuSans-30" transform="translate(127.246094 0)"/>
      </g>
     </g>
    </g>
    <g id="xtick_14">
     <g id="line2d_14">
      <path d="M 488.593134 390.04 
L 488.593134 26.88 
" clip-path="url(#pd2367b8407)" style="fill: none; stroke: #ffffff; stroke-width: 0.8; stroke-linecap: round"/>
     </g>
     <g id="text_14">
      <!-- 130 -->
      <g style="fill: #262626" transform="translate(479.049384 404.638438) scale(0.1 -0.1)">
       <use xlink:href="#DejaVuSans-31"/>
       <use xlink:href="#DejaVuSans-33" transform="translate(63.623047 0)"/>
       <use xlink:href="#DejaVuSans-30" transform="translate(127.246094 0)"/>
      </g>
     </g>
    </g>
    <g id="xtick_15">
     <g id="line2d_15">
      <path d="M 521.504647 390.04 
L 521.504647 26.88 
" clip-path="url(#pd2367b8407)" style="fill: none; stroke: #ffffff; stroke-width: 0.8; stroke-linecap: round"/>
     </g>
     <g id="text_15">
      <!-- 140 -->
      <g style="fill: #262626" transform="translate(511.960897 404.638438) scale(0.1 -0.1)">
       <use xlink:href="#DejaVuSans-31"/>
       <use xlink:href="#DejaVuSans-34" transform="translate(63.623047 0)"/>
       <use xlink:href="#DejaVuSans-30" transform="translate(127.246094 0)"/>
      </g>
     </g>
    </g>
    <g id="xtick_16">
     <g id="line2d_16">
      <path d="M 554.416161 390.04 
L 554.416161 26.88 
" clip-path="url(#pd2367b8407)" style="fill: none; stroke: #ffffff; stroke-width: 0.8; stroke-linecap: round"/>
     </g>
     <g id="text_16">
      <!-- 150 -->
      <g style="fill: #262626" transform="translate(544.872411 404.638438) scale(0.1 -0.1)">
       <use xlink:href="#DejaVuSans-31"/>
       <use xlink:href="#DejaVuSans-35" transform="translate(63.623047 0)"/>
       <use xlink:href="#DejaVuSans-30" transform="translate(127.246094 0)"/>
      </g>
     </g>
    </g>
    <g id="text_17">
     <!-- Episode -->
     <g style="fill: #262626" transform="translate(287.942308 418.316562) scale(0.1 -0.1)">
      <defs>
       <path id="DejaVuSans-45" d="M 628 4666 
L 3578 4666 
L 3578 4134 
L 1259 4134 
L 1259 2753 
L 3481 2753 
L 3481 2222 
L 1259 2222 
L 1259 531 
L 3634 531 
L 3634 0 
L 628 0 
L 628 4666 
z
" transform="scale(0.015625)"/>
       <path id="DejaVuSans-70" d="M 1159 525 
L 1159 -1331 
L 581 -1331 
L 581 3500 
L 1159 3500 
L 1159 2969 
Q 1341 3281 1617 3432 
Q 1894 3584 2278 3584 
Q 2916 3584 3314 3078 
Q 3713 2572 3713 1747 
Q 3713 922 3314 415 
Q 2916 -91 2278 -91 
Q 1894 -91 1617 61 
Q 1341 213 1159 525 
z
M 3116 1747 
Q 3116 2381 2855 2742 
Q 2594 3103 2138 3103 
Q 1681 3103 1420 2742 
Q 1159 2381 1159 1747 
Q 1159 1113 1420 752 
Q 1681 391 2138 391 
Q 2594 391 2855 752 
Q 3116 1113 3116 1747 
z
" transform="scale(0.015625)"/>
       <path id="DejaVuSans-69" d="M 603 3500 
L 1178 3500 
L 1178 0 
L 603 0 
L 603 3500 
z
M 603 4863 
L 1178 4863 
L 1178 4134 
L 603 4134 
L 603 4863 
z
" transform="scale(0.015625)"/>
       <path id="DejaVuSans-73" d="M 2834 3397 
L 2834 2853 
Q 2591 2978 2328 3040 
Q 2066 3103 1784 3103 
Q 1356 3103 1142 2972 
Q 928 2841 928 2578 
Q 928 2378 1081 2264 
Q 1234 2150 1697 2047 
L 1894 2003 
Q 2506 1872 2764 1633 
Q 3022 1394 3022 966 
Q 3022 478 2636 193 
Q 2250 -91 1575 -91 
Q 1294 -91 989 -36 
Q 684 19 347 128 
L 347 722 
Q 666 556 975 473 
Q 1284 391 1588 391 
Q 1994 391 2212 530 
Q 2431 669 2431 922 
Q 2431 1156 2273 1281 
Q 2116 1406 1581 1522 
L 1381 1569 
Q 847 1681 609 1914 
Q 372 2147 372 2553 
Q 372 3047 722 3315 
Q 1072 3584 1716 3584 
Q 2034 3584 2315 3537 
Q 2597 3491 2834 3397 
z
" transform="scale(0.015625)"/>
       <path id="DejaVuSans-6f" d="M 1959 3097 
Q 1497 3097 1228 2736 
Q 959 2375 959 1747 
Q 959 1119 1226 758 
Q 1494 397 1959 397 
Q 2419 397 2687 759 
Q 2956 1122 2956 1747 
Q 2956 2369 2687 2733 
Q 2419 3097 1959 3097 
z
M 1959 3584 
Q 2709 3584 3137 3096 
Q 3566 2609 3566 1747 
Q 3566 888 3137 398 
Q 2709 -91 1959 -91 
Q 1206 -91 779 398 
Q 353 888 353 1747 
Q 353 2609 779 3096 
Q 1206 3584 1959 3584 
z
" transform="scale(0.015625)"/>
       <path id="DejaVuSans-64" d="M 2906 2969 
L 2906 4863 
L 3481 4863 
L 3481 0 
L 2906 0 
L 2906 525 
Q 2725 213 2448 61 
Q 2172 -91 1784 -91 
Q 1150 -91 751 415 
Q 353 922 353 1747 
Q 353 2572 751 3078 
Q 1150 3584 1784 3584 
Q 2172 3584 2448 3432 
Q 2725 3281 2906 2969 
z
M 947 1747 
Q 947 1113 1208 752 
Q 1469 391 1925 391 
Q 2381 391 2643 752 
Q 2906 1113 2906 1747 
Q 2906 2381 2643 2742 
Q 2381 3103 1925 3103 
Q 1469 3103 1208 2742 
Q 947 2381 947 1747 
z
" transform="scale(0.015625)"/>
       <path id="DejaVuSans-65" d="M 3597 1894 
L 3597 1613 
L 953 1613 
Q 991 1019 1311 708 
Q 1631 397 2203 397 
Q 2534 397 2845 478 
Q 3156 559 3463 722 
L 3463 178 
Q 3153 47 2828 -22 
Q 2503 -91 2169 -91 
Q 1331 -91 842 396 
Q 353 884 353 1716 
Q 353 2575 817 3079 
Q 1281 3584 2069 3584 
Q 2775 3584 3186 3129 
Q 3597 2675 3597 1894 
z
M 3022 2063 
Q 3016 2534 2758 2815 
Q 2500 3097 2075 3097 
Q 1594 3097 1305 2825 
Q 1016 2553 972 2059 
L 3022 2063 
z
" transform="scale(0.015625)"/>
      </defs>
      <use xlink:href="#DejaVuSans-45"/>
      <use xlink:href="#DejaVuSans-70" transform="translate(63.183594 0)"/>
      <use xlink:href="#DejaVuSans-69" transform="translate(126.660156 0)"/>
      <use xlink:href="#DejaVuSans-73" transform="translate(154.443359 0)"/>
      <use xlink:href="#DejaVuSans-6f" transform="translate(206.542969 0)"/>
      <use xlink:href="#DejaVuSans-64" transform="translate(267.724609 0)"/>
      <use xlink:href="#DejaVuSans-65" transform="translate(331.201172 0)"/>
     </g>
    </g>
   </g>
   <g id="matplotlib.axis_2">
    <g id="ytick_1">
     <g id="line2d_17">
      <path d="M 50.87 390.04 
L 564.289615 390.04 
" clip-path="url(#pd2367b8407)" style="fill: none; stroke: #ffffff; stroke-width: 0.8; stroke-linecap: round"/>
     </g>
     <g id="text_18">
      <!-- 0 -->
      <g style="fill: #262626" transform="translate(37.5075 393.839219) scale(0.1 -0.1)">
       <use xlink:href="#DejaVuSans-30"/>
      </g>
     </g>
    </g>
    <g id="ytick_2">
     <g id="line2d_18">
      <path d="M 50.87 355.120769 
L 564.289615 355.120769 
" clip-path="url(#pd2367b8407)" style="fill: none; stroke: #ffffff; stroke-width: 0.8; stroke-linecap: round"/>
     </g>
     <g id="text_19">
      <!-- 50 -->
      <g style="fill: #262626" transform="translate(31.145 358.919988) scale(0.1 -0.1)">
       <use xlink:href="#DejaVuSans-35"/>
       <use xlink:href="#DejaVuSans-30" transform="translate(63.623047 0)"/>
      </g>
     </g>
    </g>
    <g id="ytick_3">
     <g id="line2d_19">
      <path d="M 50.87 320.201538 
L 564.289615 320.201538 
" clip-path="url(#pd2367b8407)" style="fill: none; stroke: #ffffff; stroke-width: 0.8; stroke-linecap: round"/>
     </g>
     <g id="text_20">
      <!-- 100 -->
      <g style="fill: #262626" transform="translate(24.7825 324.000757) scale(0.1 -0.1)">
       <use xlink:href="#DejaVuSans-31"/>
       <use xlink:href="#DejaVuSans-30" transform="translate(63.623047 0)"/>
       <use xlink:href="#DejaVuSans-30" transform="translate(127.246094 0)"/>
      </g>
     </g>
    </g>
    <g id="ytick_4">
     <g id="line2d_20">
      <path d="M 50.87 285.282308 
L 564.289615 285.282308 
" clip-path="url(#pd2367b8407)" style="fill: none; stroke: #ffffff; stroke-width: 0.8; stroke-linecap: round"/>
     </g>
     <g id="text_21">
      <!-- 150 -->
      <g style="fill: #262626" transform="translate(24.7825 289.081526) scale(0.1 -0.1)">
       <use xlink:href="#DejaVuSans-31"/>
       <use xlink:href="#DejaVuSans-35" transform="translate(63.623047 0)"/>
       <use xlink:href="#DejaVuSans-30" transform="translate(127.246094 0)"/>
      </g>
     </g>
    </g>
    <g id="ytick_5">
     <g id="line2d_21">
      <path d="M 50.87 250.363077 
L 564.289615 250.363077 
" clip-path="url(#pd2367b8407)" style="fill: none; stroke: #ffffff; stroke-width: 0.8; stroke-linecap: round"/>
     </g>
     <g id="text_22">
      <!-- 200 -->
      <g style="fill: #262626" transform="translate(24.7825 254.162296) scale(0.1 -0.1)">
       <use xlink:href="#DejaVuSans-32"/>
       <use xlink:href="#DejaVuSans-30" transform="translate(63.623047 0)"/>
       <use xlink:href="#DejaVuSans-30" transform="translate(127.246094 0)"/>
      </g>
     </g>
    </g>
    <g id="ytick_6">
     <g id="line2d_22">
      <path d="M 50.87 215.443846 
L 564.289615 215.443846 
" clip-path="url(#pd2367b8407)" style="fill: none; stroke: #ffffff; stroke-width: 0.8; stroke-linecap: round"/>
     </g>
     <g id="text_23">
      <!-- 250 -->
      <g style="fill: #262626" transform="translate(24.7825 219.243065) scale(0.1 -0.1)">
       <use xlink:href="#DejaVuSans-32"/>
       <use xlink:href="#DejaVuSans-35" transform="translate(63.623047 0)"/>
       <use xlink:href="#DejaVuSans-30" transform="translate(127.246094 0)"/>
      </g>
     </g>
    </g>
    <g id="ytick_7">
     <g id="line2d_23">
      <path d="M 50.87 180.524615 
L 564.289615 180.524615 
" clip-path="url(#pd2367b8407)" style="fill: none; stroke: #ffffff; stroke-width: 0.8; stroke-linecap: round"/>
     </g>
     <g id="text_24">
      <!-- 300 -->
      <g style="fill: #262626" transform="translate(24.7825 184.323834) scale(0.1 -0.1)">
       <use xlink:href="#DejaVuSans-33"/>
       <use xlink:href="#DejaVuSans-30" transform="translate(63.623047 0)"/>
       <use xlink:href="#DejaVuSans-30" transform="translate(127.246094 0)"/>
      </g>
     </g>
    </g>
    <g id="ytick_8">
     <g id="line2d_24">
      <path d="M 50.87 145.605385 
L 564.289615 145.605385 
" clip-path="url(#pd2367b8407)" style="fill: none; stroke: #ffffff; stroke-width: 0.8; stroke-linecap: round"/>
     </g>
     <g id="text_25">
      <!-- 350 -->
      <g style="fill: #262626" transform="translate(24.7825 149.404603) scale(0.1 -0.1)">
       <use xlink:href="#DejaVuSans-33"/>
       <use xlink:href="#DejaVuSans-35" transform="translate(63.623047 0)"/>
       <use xlink:href="#DejaVuSans-30" transform="translate(127.246094 0)"/>
      </g>
     </g>
    </g>
    <g id="ytick_9">
     <g id="line2d_25">
      <path d="M 50.87 110.686154 
L 564.289615 110.686154 
" clip-path="url(#pd2367b8407)" style="fill: none; stroke: #ffffff; stroke-width: 0.8; stroke-linecap: round"/>
     </g>
     <g id="text_26">
      <!-- 400 -->
      <g style="fill: #262626" transform="translate(24.7825 114.485373) scale(0.1 -0.1)">
       <use xlink:href="#DejaVuSans-34"/>
       <use xlink:href="#DejaVuSans-30" transform="translate(63.623047 0)"/>
       <use xlink:href="#DejaVuSans-30" transform="translate(127.246094 0)"/>
      </g>
     </g>
    </g>
    <g id="ytick_10">
     <g id="line2d_26">
      <path d="M 50.87 75.766923 
L 564.289615 75.766923 
" clip-path="url(#pd2367b8407)" style="fill: none; stroke: #ffffff; stroke-width: 0.8; stroke-linecap: round"/>
     </g>
     <g id="text_27">
      <!-- 450 -->
      <g style="fill: #262626" transform="translate(24.7825 79.566142) scale(0.1 -0.1)">
       <use xlink:href="#DejaVuSans-34"/>
       <use xlink:href="#DejaVuSans-35" transform="translate(63.623047 0)"/>
       <use xlink:href="#DejaVuSans-30" transform="translate(127.246094 0)"/>
      </g>
     </g>
    </g>
    <g id="ytick_11">
     <g id="line2d_27">
      <path d="M 50.87 40.847692 
L 564.289615 40.847692 
" clip-path="url(#pd2367b8407)" style="fill: none; stroke: #ffffff; stroke-width: 0.8; stroke-linecap: round"/>
     </g>
     <g id="text_28">
      <!-- 500 -->
      <g style="fill: #262626" transform="translate(24.7825 44.646911) scale(0.1 -0.1)">
       <use xlink:href="#DejaVuSans-35"/>
       <use xlink:href="#DejaVuSans-30" transform="translate(63.623047 0)"/>
       <use xlink:href="#DejaVuSans-30" transform="translate(127.246094 0)"/>
      </g>
     </g>
    </g>
    <g id="text_29">
     <!-- Reward -->
     <g style="fill: #262626" transform="translate(18.702813 227.081094) rotate(-90) scale(0.1 -0.1)">
      <defs>
       <path id="DejaVuSans-52" d="M 2841 2188 
Q 3044 2119 3236 1894 
Q 3428 1669 3622 1275 
L 4263 0 
L 3584 0 
L 2988 1197 
Q 2756 1666 2539 1819 
Q 2322 1972 1947 1972 
L 1259 1972 
L 1259 0 
L 628 0 
L 628 4666 
L 2053 4666 
Q 2853 4666 3247 4331 
Q 3641 3997 3641 3322 
Q 3641 2881 3436 2590 
Q 3231 2300 2841 2188 
z
M 1259 4147 
L 1259 2491 
L 2053 2491 
Q 2509 2491 2742 2702 
Q 2975 2913 2975 3322 
Q 2975 3731 2742 3939 
Q 2509 4147 2053 4147 
L 1259 4147 
z
" transform="scale(0.015625)"/>
       <path id="DejaVuSans-77" d="M 269 3500 
L 844 3500 
L 1563 769 
L 2278 3500 
L 2956 3500 
L 3675 769 
L 4391 3500 
L 4966 3500 
L 4050 0 
L 3372 0 
L 2619 2869 
L 1863 0 
L 1184 0 
L 269 3500 
z
" transform="scale(0.015625)"/>
       <path id="DejaVuSans-61" d="M 2194 1759 
Q 1497 1759 1228 1600 
Q 959 1441 959 1056 
Q 959 750 1161 570 
Q 1363 391 1709 391 
Q 2188 391 2477 730 
Q 2766 1069 2766 1631 
L 2766 1759 
L 2194 1759 
z
M 3341 1997 
L 3341 0 
L 2766 0 
L 2766 531 
Q 2569 213 2275 61 
Q 1981 -91 1556 -91 
Q 1019 -91 701 211 
Q 384 513 384 1019 
Q 384 1609 779 1909 
Q 1175 2209 1959 2209 
L 2766 2209 
L 2766 2266 
Q 2766 2663 2505 2880 
Q 2244 3097 1772 3097 
Q 1472 3097 1187 3025 
Q 903 2953 641 2809 
L 641 3341 
Q 956 3463 1253 3523 
Q 1550 3584 1831 3584 
Q 2591 3584 2966 3190 
Q 3341 2797 3341 1997 
z
" transform="scale(0.015625)"/>
       <path id="DejaVuSans-72" d="M 2631 2963 
Q 2534 3019 2420 3045 
Q 2306 3072 2169 3072 
Q 1681 3072 1420 2755 
Q 1159 2438 1159 1844 
L 1159 0 
L 581 0 
L 581 3500 
L 1159 3500 
L 1159 2956 
Q 1341 3275 1631 3429 
Q 1922 3584 2338 3584 
Q 2397 3584 2469 3576 
Q 2541 3569 2628 3553 
L 2631 2963 
z
" transform="scale(0.015625)"/>
      </defs>
      <use xlink:href="#DejaVuSans-52"/>
      <use xlink:href="#DejaVuSans-65" transform="translate(64.982422 0)"/>
      <use xlink:href="#DejaVuSans-77" transform="translate(126.505859 0)"/>
      <use xlink:href="#DejaVuSans-61" transform="translate(208.292969 0)"/>
      <use xlink:href="#DejaVuSans-72" transform="translate(269.572266 0)"/>
      <use xlink:href="#DejaVuSans-64" transform="translate(308.935547 0)"/>
     </g>
    </g>
   </g>
   <g id="FillBetweenPolyCollection_1">
    <path d="M 60.743454 374.272124 
L 60.743454 374.873116 
L 64.034606 374.392726 
L 67.325757 373.103646 
L 70.616908 371.342998 
L 73.90806 369.038798 
L 77.199211 365.420575 
L 80.490362 361.718262 
L 83.781514 357.016235 
L 87.072665 352.76465 
L 90.363817 347.620948 
L 93.654968 344.272408 
L 96.946119 338.126322 
L 100.237271 332.527892 
L 103.528422 320.450997 
L 106.819573 301.421773 
L 110.110725 303.858725 
L 113.401876 296.259228 
L 116.693028 281.141395 
L 119.984179 251.096445 
L 123.27533 262.948882 
L 126.566482 258.500269 
L 129.857633 236.964612 
L 133.148785 244.109416 
L 136.439936 243.254523 
L 139.731087 232.445026 
L 143.022239 222.366379 
L 146.31339 202.388887 
L 149.604541 211.555622 
L 152.895693 236.016347 
L 156.186844 228.362209 
L 159.477996 256.453458 
L 162.769147 242.746825 
L 166.060298 256.453005 
L 169.35145 263.832848 
L 172.642601 257.27287 
L 175.933752 241.199554 
L 179.224904 237.236611 
L 182.516055 238.561457 
L 185.807207 257.720298 
L 189.098358 264.050928 
L 192.389509 257.83562 
L 195.680661 260.917169 
L 198.971812 256.755588 
L 202.262964 251.052594 
L 205.554115 249.202484 
L 208.845266 246.943252 
L 212.136418 254.138289 
L 215.427569 245.926943 
L 218.71872 251.011489 
L 222.009872 253.538192 
L 225.301023 272.530465 
L 228.592175 282.930816 
L 231.883326 286.443548 
L 235.174477 277.50618 
L 238.465629 290.807299 
L 241.75678 284.099145 
L 245.047931 270.944266 
L 248.339083 264.395205 
L 251.630234 273.376545 
L 254.921386 278.435887 
L 258.212537 283.997158 
L 261.503688 274.604937 
L 264.79484 266.252274 
L 268.085991 281.9059 
L 271.377143 279.461624 
L 274.668294 271.388511 
L 277.959445 257.438896 
L 281.250597 269.079397 
L 284.541748 273.477453 
L 287.832899 275.406246 
L 291.124051 274.145979 
L 294.415202 266.824318 
L 297.706354 250.039915 
L 300.997505 250.49892 
L 304.288656 265.487623 
L 307.579808 246.540527 
L 310.870959 252.234702 
L 314.16211 268.491203 
L 317.453262 279.018164 
L 320.744413 273.78904 
L 324.035565 271.7875 
L 327.326716 287.646934 
L 330.617867 295.793549 
L 333.909019 291.340141 
L 337.20017 266.667306 
L 340.491321 278.568805 
L 343.782473 282.061397 
L 347.073624 267.350989 
L 350.364776 275.46317 
L 353.655927 266.43656 
L 356.947078 264.901495 
L 360.23823 266.492918 
L 363.529381 264.518463 
L 366.820533 268.697944 
L 370.111684 278.754492 
L 373.402835 276.807224 
L 376.693987 283.938431 
L 379.985138 276.401296 
L 383.276289 290.037409 
L 386.567441 296.987774 
L 389.858592 303.602074 
L 393.149744 324.454334 
L 396.440895 314.03987 
L 399.732046 305.781927 
L 403.023198 312.224804 
L 406.314349 305.784125 
L 409.6055 305.539056 
L 412.896652 303.541532 
L 416.187803 316.308145 
L 419.478955 335.726966 
L 422.770106 313.648033 
L 426.061257 305.740899 
L 429.352409 304.51587 
L 432.64356 305.035163 
L 435.934712 300.103653 
L 439.225863 297.554944 
L 442.517014 297.389608 
L 445.808166 297.790897 
L 449.099317 306.397181 
L 452.390468 297.566598 
L 455.68162 303.268513 
L 458.972771 310.008256 
L 462.263923 312.67921 
L 465.555074 320.794278 
L 468.846225 319.621212 
L 472.137377 319.821811 
L 475.428528 310.393319 
L 478.719679 308.041967 
L 482.010831 297.326034 
L 485.301982 291.837429 
L 488.593134 290.340745 
L 491.884285 291.047346 
L 495.175436 290.407087 
L 498.466588 288.873678 
L 501.757739 273.021229 
L 505.048891 276.170582 
L 508.340042 282.117494 
L 511.631193 276.380752 
L 514.922345 270.189741 
L 518.213496 274.7631 
L 521.504647 266.321657 
L 524.795799 266.459777 
L 528.08695 267.983845 
L 531.378102 268.029727 
L 534.669253 267.709005 
L 537.960404 264.331352 
L 541.251556 262.265703 
L 544.542707 264.02014 
L 547.833858 250.784456 
L 551.12501 256.549157 
L 551.12501 26.602029 
L 551.12501 26.602029 
L 547.833858 25.906262 
L 544.542707 58.82334 
L 541.251556 36.335078 
L 537.960404 17.032552 
L 534.669253 44.454377 
L 531.378102 32.11316 
L 528.08695 19.954541 
L 524.795799 16.20724 
L 521.504647 16.390991 
L 518.213496 57.454909 
L 514.922345 27.66675 
L 511.631193 30.459919 
L 508.340042 40.144434 
L 505.048891 42.347976 
L 501.757739 45.450984 
L 498.466588 63.036854 
L 495.175436 83.733022 
L 491.884285 62.272977 
L 488.593134 73.772913 
L 485.301982 70.692635 
L 482.010831 71.949169 
L 478.719679 74.461278 
L 475.428528 69.783503 
L 472.137377 68.317918 
L 468.846225 89.887663 
L 465.555074 74.017439 
L 462.263923 61.78549 
L 458.972771 88.857848 
L 455.68162 64.808419 
L 452.390468 38.366412 
L 449.099317 79.812806 
L 445.808166 40.666967 
L 442.517014 27.194966 
L 439.225863 25.339389 
L 435.934712 35.268806 
L 432.64356 55.128797 
L 429.352409 49.526958 
L 426.061257 52.927742 
L 422.770106 91.491977 
L 419.478955 71.460346 
L 416.187803 66.20178 
L 412.896652 19.086553 
L 409.6055 31.709954 
L 406.314349 30.756845 
L 403.023198 48.04935 
L 399.732046 26.614147 
L 396.440895 104.901036 
L 393.149744 85.49514 
L 389.858592 76.529246 
L 386.567441 123.607649 
L 383.276289 72.321681 
L 379.985138 63.264653 
L 376.693987 89.32092 
L 373.402835 90.576976 
L 370.111684 127.964939 
L 366.820533 68.888103 
L 363.529381 82.609829 
L 360.23823 94.153823 
L 356.947078 107.653428 
L 353.655927 85.71611 
L 350.364776 98.453974 
L 347.073624 130.727816 
L 343.782473 112.475645 
L 340.491321 102.534734 
L 337.20017 102.761986 
L 333.909019 98.948297 
L 330.617867 88.726279 
L 327.326716 99.16791 
L 324.035565 114.453718 
L 320.744413 170.617643 
L 317.453262 157.933529 
L 314.16211 163.336393 
L 310.870959 136.779848 
L 307.579808 119.266415 
L 304.288656 98.740034 
L 300.997505 85.181897 
L 297.706354 75.901521 
L 294.415202 94.591535 
L 291.124051 112.812465 
L 287.832899 84.178763 
L 284.541748 89.326711 
L 281.250597 77.380624 
L 277.959445 50.26539 
L 274.668294 124.376163 
L 271.377143 138.666205 
L 268.085991 130.881756 
L 264.79484 160.462302 
L 261.503688 101.064831 
L 258.212537 119.95493 
L 254.921386 202.564402 
L 251.630234 183.850272 
L 248.339083 166.660591 
L 245.047931 168.949583 
L 241.75678 108.008739 
L 238.465629 156.374629 
L 235.174477 79.833387 
L 231.883326 137.339139 
L 228.592175 135.982015 
L 225.301023 146.942307 
L 222.009872 156.844928 
L 218.71872 137.371548 
L 215.427569 119.808301 
L 212.136418 115.720181 
L 208.845266 192.300566 
L 205.554115 149.207624 
L 202.262964 148.187005 
L 198.971812 157.070383 
L 195.680661 169.185524 
L 192.389509 162.614207 
L 189.098358 176.78949 
L 185.807207 166.256233 
L 182.516055 161.848307 
L 179.224904 165.460357 
L 175.933752 141.490288 
L 172.642601 167.963595 
L 169.35145 189.52461 
L 166.060298 157.420486 
L 162.769147 188.886274 
L 159.477996 180.527253 
L 156.186844 181.754629 
L 152.895693 134.804221 
L 149.604541 160.13445 
L 146.31339 147.199347 
L 143.022239 183.291274 
L 139.731087 198.826456 
L 136.439936 147.133434 
L 133.148785 195.166482 
L 129.857633 203.541222 
L 126.566482 203.879992 
L 123.27533 226.53451 
L 119.984179 235.492464 
L 116.693028 220.7291 
L 113.401876 261.640592 
L 110.110725 245.951387 
L 106.819573 275.276987 
L 103.528422 285.083439 
L 100.237271 295.526101 
L 96.946119 319.322643 
L 93.654968 330.22191 
L 90.363817 339.766594 
L 87.072665 347.540895 
L 83.781514 350.078867 
L 80.490362 358.916913 
L 77.199211 363.916258 
L 73.90806 366.88345 
L 70.616908 370.292099 
L 67.325757 371.922671 
L 64.034606 373.696115 
L 60.743454 374.272124 
z
" clip-path="url(#pd2367b8407)" style="fill: #0000ff; fill-opacity: 0.1"/>
   </g>
   <g id="line2d_28">
    <path d="M 60.743454 374.57262 
L 64.034606 374.044421 
L 67.325757 372.513159 
L 70.616908 370.817549 
L 73.90806 367.961124 
L 77.199211 364.668417 
L 80.490362 360.317587 
L 83.781514 353.547551 
L 87.072665 350.152773 
L 93.654968 337.247159 
L 96.946119 328.724482 
L 100.237271 314.026996 
L 103.528422 302.767218 
L 106.819573 288.34938 
L 110.110725 274.905056 
L 113.401876 278.94991 
L 116.693028 250.935248 
L 119.984179 243.294455 
L 123.27533 244.741696 
L 126.566482 231.19013 
L 129.857633 220.252917 
L 133.148785 219.637949 
L 136.439936 195.193979 
L 139.731087 215.635741 
L 143.022239 202.828826 
L 146.31339 174.794117 
L 149.604541 185.845036 
L 152.895693 185.410284 
L 156.186844 205.058419 
L 159.477996 218.490355 
L 162.769147 215.816549 
L 166.060298 206.936746 
L 169.35145 226.678729 
L 172.642601 212.618232 
L 175.933752 191.344921 
L 179.224904 201.348484 
L 182.516055 200.204882 
L 185.807207 211.988265 
L 189.098358 220.420209 
L 192.389509 210.224913 
L 195.680661 215.051347 
L 198.971812 206.912986 
L 202.262964 199.6198 
L 205.554115 199.205054 
L 208.845266 219.621909 
L 212.136418 184.929235 
L 215.427569 182.867622 
L 222.009872 205.19156 
L 225.301023 209.736386 
L 228.592175 209.456416 
L 231.883326 211.891344 
L 235.174477 178.669783 
L 238.465629 223.590964 
L 241.75678 196.053942 
L 245.047931 219.946924 
L 248.339083 215.527898 
L 251.630234 228.613409 
L 254.921386 240.500144 
L 258.212537 201.976044 
L 261.503688 187.834884 
L 264.79484 213.357288 
L 268.085991 206.393828 
L 271.377143 209.063914 
L 274.668294 197.882337 
L 277.959445 153.852143 
L 281.250597 173.230011 
L 284.541748 181.402082 
L 287.832899 179.792504 
L 291.124051 193.479222 
L 294.415202 180.707927 
L 297.706354 162.970718 
L 300.997505 167.840409 
L 304.288656 182.113828 
L 307.579808 182.903471 
L 310.870959 194.507275 
L 314.16211 215.913798 
L 317.453262 218.475846 
L 320.744413 222.203342 
L 324.035565 193.120609 
L 327.326716 193.407422 
L 330.617867 192.259914 
L 333.909019 195.144219 
L 337.20017 184.714646 
L 340.491321 190.551769 
L 343.782473 197.268521 
L 347.073624 199.039402 
L 350.364776 186.958572 
L 353.655927 176.076335 
L 356.947078 186.277462 
L 360.23823 180.32337 
L 363.529381 173.564146 
L 366.820533 168.793024 
L 370.111684 203.359715 
L 373.402835 183.6921 
L 376.693987 186.629675 
L 379.985138 169.832975 
L 383.276289 181.179545 
L 386.567441 210.297711 
L 389.858592 190.06566 
L 393.149744 204.974737 
L 396.440895 209.470453 
L 399.732046 166.198037 
L 403.023198 180.137077 
L 406.314349 168.270485 
L 409.6055 168.624505 
L 412.896652 161.314042 
L 416.187803 191.254962 
L 419.478955 203.593656 
L 422.770106 202.570005 
L 426.061257 179.33432 
L 429.352409 177.021414 
L 432.64356 180.08198 
L 435.934712 167.68623 
L 439.225863 161.447167 
L 442.517014 162.292287 
L 445.808166 169.228932 
L 449.099317 193.104994 
L 452.390468 167.966505 
L 455.68162 184.038466 
L 458.972771 199.433052 
L 462.263923 187.23235 
L 465.555074 197.405859 
L 468.846225 204.754437 
L 472.137377 194.069864 
L 475.428528 190.088411 
L 478.719679 191.251623 
L 482.010831 184.637602 
L 485.301982 181.265032 
L 488.593134 182.056829 
L 491.884285 176.660162 
L 495.175436 187.070055 
L 498.466588 175.955266 
L 501.757739 159.236106 
L 505.048891 159.259279 
L 508.340042 161.130964 
L 511.631193 153.420335 
L 514.922345 148.928246 
L 518.213496 166.109005 
L 521.504647 141.356324 
L 524.795799 141.333508 
L 528.08695 143.969193 
L 534.669253 156.081691 
L 537.960404 140.681952 
L 541.251556 149.300391 
L 544.542707 161.42174 
L 547.833858 138.345359 
L 551.12501 141.575593 
L 551.12501 141.575593 
" clip-path="url(#pd2367b8407)" style="fill: none; stroke: #0000ff; stroke-width: 1.5; stroke-linecap: round"/>
   </g>
   <g id="line2d_29">
    <path d="M 60.743454 374.511917 
L 64.034606 374.076923 
L 67.325757 373.36499 
L 70.616908 370.975586 
L 73.90806 367.138804 
L 77.199211 366.0455 
L 80.490362 358.539606 
L 83.781514 349.01251 
L 87.072665 349.637929 
L 93.654968 327.375853 
L 96.946119 318.679418 
L 100.237271 304.068854 
L 103.528422 274.108154 
L 106.819573 265.029154 
L 110.110725 224.848759 
L 113.401876 260.140462 
L 116.693028 199.904788 
L 119.984179 236.351736 
L 126.566482 196.802349 
L 129.857633 198.275224 
L 133.148785 178.778654 
L 136.439936 169.350462 
L 139.731087 191.190853 
L 143.022239 188.439641 
L 146.31339 188.368012 
L 149.604541 161.287294 
L 152.895693 176.893015 
L 156.186844 212.231277 
L 159.477996 217.026851 
L 162.769147 207.121429 
L 166.060298 267.403662 
L 169.35145 240.411096 
L 172.642601 163.484031 
L 175.933752 175.053936 
L 179.224904 174.518508 
L 182.516055 157.896954 
L 185.807207 192.397154 
L 189.098358 194.37591 
L 192.389509 145.527786 
L 195.680661 167.325146 
L 198.971812 142.322977 
L 202.262964 188.963429 
L 205.554115 164.271301 
L 208.845266 212.799962 
L 212.136418 112.781308 
L 218.71872 143.510231 
L 222.009872 170.677392 
L 225.301023 108.940192 
L 228.592175 77.687481 
L 231.883326 134.353632 
L 235.174477 51.585356 
L 238.465629 143.580069 
L 241.75678 99.04641 
L 245.047931 153.706646 
L 248.339083 194.169976 
L 251.630234 244.159778 
L 254.921386 212.600423 
L 258.212537 127.912974 
L 261.503688 89.99651 
L 264.79484 141.694431 
L 268.085991 78.822356 
L 271.377143 151.037265 
L 274.668294 164.112577 
L 277.959445 81.004808 
L 281.250597 123.606269 
L 284.541748 196.84142 
L 287.832899 212.151462 
L 291.124051 217.239692 
L 294.415202 201.583598 
L 297.706354 182.794365 
L 300.997505 155.452608 
L 304.288656 213.057699 
L 307.579808 180.588105 
L 310.870959 223.448408 
L 314.16211 235.173212 
L 317.453262 225.70137 
L 320.744413 178.080269 
L 324.035565 71.576615 
L 327.326716 67.473606 
L 330.617867 61.711933 
L 333.909019 97.853337 
L 337.20017 83.62375 
L 340.491321 79.869933 
L 343.782473 45.561788 
L 347.073624 94.53601 
L 350.364776 120.618735 
L 353.655927 81.615894 
L 356.947078 129.821892 
L 360.23823 87.115673 
L 363.529381 65.46575 
L 366.820533 64.505471 
L 370.111684 98.202529 
L 373.402835 72.886087 
L 376.693987 67.211712 
L 379.985138 107.718019 
L 383.276289 113.479692 
L 386.567441 123.466592 
L 389.858592 110.686154 
L 393.149744 220.981038 
L 396.440895 137.923154 
L 399.732046 79.957231 
L 403.023198 50.275885 
L 406.314349 66.949817 
L 409.6055 55.339173 
L 412.896652 57.870817 
L 416.187803 173.9598 
L 419.478955 255.61934 
L 422.770106 172.905874 
L 426.061257 102.305538 
L 429.352409 113.1305 
L 432.64356 131.172103 
L 435.934712 106.583144 
L 439.225863 56.38675 
L 442.517014 79.52074 
L 445.808166 66.513327 
L 449.099317 137.535162 
L 452.390468 83.972942 
L 455.68162 69.132269 
L 458.972771 59.529481 
L 462.263923 44.514212 
L 465.555074 50.625077 
L 468.846225 44.863404 
L 472.137377 47.918837 
L 475.428528 59.354885 
L 478.719679 80.219125 
L 482.010831 81.266702 
L 485.301982 94.186817 
L 488.593134 71.663913 
L 491.884285 65.814942 
L 495.175436 49.926692 
L 498.466588 42.244462 
L 501.757739 58.831096 
L 505.048891 40.847692 
L 508.340042 48.442625 
L 511.631193 47.045856 
L 514.922345 40.847692 
L 518.213496 93.837625 
L 521.504647 40.847692 
L 524.795799 40.847692 
L 528.08695 51.148865 
L 531.378102 88.075952 
L 534.669253 56.38675 
L 537.960404 40.847692 
L 541.251556 68.084692 
L 544.542707 81.004808 
L 547.833858 40.847692 
L 551.12501 40.847692 
L 551.12501 40.847692 
" clip-path="url(#pd2367b8407)" style="fill: none; stroke: #008000; stroke-opacity: 0.2; stroke-linecap: round"/>
   </g>
   <g id="line2d_30">
    <path d="M 60.743454 375.049811 
L 64.034606 374.671593 
L 67.325757 372.148489 
L 70.616908 370.475254 
L 73.90806 369.269722 
L 77.199211 364.279585 
L 80.490362 361.471704 
L 83.781514 353.959818 
L 87.072665 353.216954 
L 90.363817 349.293948 
L 93.654968 342.983326 
L 96.946119 339.82346 
L 100.237271 321.196737 
L 103.528422 321.560557 
L 106.819573 303.742941 
L 110.110725 307.946015 
L 113.401876 298.576558 
L 116.693028 241.749667 
L 119.984179 232.018841 
L 123.27533 245.63871 
L 126.566482 242.886253 
L 129.857633 225.002986 
L 133.148785 238.956128 
L 136.439936 112.781308 
L 139.731087 213.947308 
L 143.022239 179.826231 
L 146.31339 182.619769 
L 149.604541 153.859021 
L 152.895693 146.621217 
L 156.186844 218.190826 
L 159.477996 219.773831 
L 162.769147 191.645047 
L 166.060298 186.053494 
L 169.35145 207.587019 
L 172.642601 201.534353 
L 175.933752 161.877746 
L 179.224904 171.026585 
L 182.516055 191.127364 
L 185.807207 157.033497 
L 189.098358 174.762942 
L 192.389509 189.720013 
L 195.680661 182.794365 
L 198.971812 209.856769 
L 202.262964 164.588748 
L 205.554115 187.217468 
L 208.845266 208.011038 
L 212.136418 205.117731 
L 215.427569 215.942692 
L 218.71872 196.480018 
L 222.009872 184.191135 
L 225.301023 191.815167 
L 228.592175 221.130692 
L 231.883326 234.300231 
L 235.174477 139.389762 
L 238.465629 209.31955 
L 241.75678 213.398577 
L 245.047931 212.596586 
L 248.339083 232.597918 
L 251.630234 238.88338 
L 254.921386 260.978523 
L 258.212537 223.265754 
L 261.503688 176.625301 
L 264.79484 178.662256 
L 268.085991 226.443404 
L 271.377143 184.598526 
L 274.668294 141.104684 
L 277.959445 69.306865 
L 281.250597 48.093433 
L 284.541748 102.567433 
L 287.832899 95.40899 
L 291.124051 82.983564 
L 294.415202 57.783519 
L 297.706354 68.695779 
L 300.997505 80.742913 
L 304.288656 137.535162 
L 307.579808 135.828 
L 310.870959 126.749 
L 314.16211 133.422453 
L 317.453262 109.910171 
L 320.744413 219.584269 
L 324.035565 229.986679 
L 327.326716 251.171733 
L 330.617867 296.755769 
L 333.909019 306.561214 
L 337.20017 304.968024 
L 340.491321 308.045281 
L 343.782473 307.761562 
L 347.073624 305.164445 
L 350.364776 307.694105 
L 353.655927 307.89251 
L 356.947078 305.033498 
L 360.23823 307.630615 
L 363.529381 305.469988 
L 366.820533 307.567126 
L 370.111684 307.897645 
L 373.402835 303.533426 
L 376.693987 306.594303 
L 379.985138 303.620536 
L 383.276289 303.440308 
L 386.567441 303.134764 
L 389.858592 303.598007 
L 393.149744 304.597007 
L 396.440895 302.494109 
L 399.732046 304.746963 
L 403.023198 303.215022 
L 406.314349 303.034794 
L 409.6055 302.696866 
L 412.896652 300.935756 
L 416.187803 301.345154 
L 419.478955 303.688122 
L 422.770106 297.329442 
L 426.061257 300.935756 
L 429.352409 297.379327 
L 432.64356 294.211654 
L 435.934712 291.767308 
L 439.225863 294.749299 
L 442.517014 294.461077 
L 445.808166 291.955761 
L 449.099317 291.084272 
L 452.390468 296.182096 
L 455.68162 292.214422 
L 458.972771 288.505621 
L 462.263923 283.885538 
L 465.555074 290.946983 
L 468.846225 283.494443 
L 472.137377 278.801298 
L 475.428528 278.414859 
L 478.719679 289.472615 
L 482.010831 265.893821 
L 485.301982 271.913231 
L 488.593134 266.489413 
L 491.884285 272.203469 
L 495.175436 265.261949 
L 498.466588 263.375085 
L 501.757739 257.975469 
L 505.048891 263.200051 
L 508.340042 275.626381 
L 511.631193 272.108234 
L 514.922345 257.861522 
L 518.213496 259.861108 
L 524.795799 256.338145 
L 528.08695 259.625862 
L 531.378102 254.630983 
L 534.669253 256.019992 
L 537.960404 261.327715 
L 541.251556 254.957713 
L 544.542707 262.135846 
L 547.833858 232.117779 
L 551.12501 255.077173 
L 551.12501 255.077173 
" clip-path="url(#pd2367b8407)" style="fill: none; stroke: #008000; stroke-opacity: 0.2; stroke-linecap: round"/>
   </g>
   <g id="line2d_31">
    <path d="M 60.743454 374.18136 
L 64.034606 373.956369 
L 70.616908 370.654838 
L 73.90806 368.049402 
L 80.490362 360.586388 
L 83.781514 358.313385 
L 87.072665 350.98948 
L 93.654968 341.667676 
L 96.946119 334.518423 
L 100.237271 328.842018 
L 106.819573 289.751969 
L 110.110725 285.765805 
L 113.401876 299.03326 
L 116.693028 287.350601 
L 119.984179 248.655915 
L 123.27533 263.998205 
L 126.566482 267.455121 
L 129.857633 239.476493 
L 133.148785 247.651701 
L 136.439936 237.66891 
L 139.731087 208.509885 
L 143.022239 236.962822 
L 146.31339 208.110808 
L 149.604541 219.311822 
L 152.895693 121.161923 
L 156.186844 161.2492 
L 159.477996 152.434034 
L 162.769147 185.222839 
L 166.060298 122.403496 
L 169.35145 167.953692 
L 172.642601 202.074769 
L 175.933752 137.923154 
L 179.224904 185.529705 
L 182.516055 165.229992 
L 185.807207 205.666462 
L 189.098358 209.507577 
L 192.389509 192.862744 
L 195.680661 231.556577 
L 198.971812 184.016538 
L 202.262964 146.792638 
L 205.554115 164.715727 
L 208.845266 192.10616 
L 212.136418 107.805317 
L 215.427569 131.404897 
L 218.71872 188.975069 
L 222.009872 179.593436 
L 225.301023 212.596586 
L 228.592175 221.449954 
L 231.883326 115.885239 
L 235.174477 113.867684 
L 238.465629 162.684063 
L 241.75678 90.607596 
L 245.047931 181.746788 
L 248.339083 150.075046 
L 251.630234 166.874371 
L 254.921386 190.76759 
L 258.212537 87.561863 
L 261.503688 99.279205 
L 264.79484 208.782331 
L 268.085991 170.980026 
L 271.377143 125.429829 
L 274.668294 113.56699 
L 277.959445 58.918394 
L 281.250597 123.10188 
L 284.541748 50.974269 
L 287.832899 40.847692 
L 291.124051 115.186855 
L 294.415202 105.186375 
L 297.706354 54.466192 
L 300.997505 77.338288 
L 304.288656 41.196885 
L 307.579808 97.67874 
L 310.870959 134.819222 
L 314.16211 177.731077 
L 317.453262 207.10979 
L 320.744413 153.846323 
L 324.035565 131.715291 
L 327.326716 91.131385 
L 330.617867 72.187702 
L 333.909019 63.370596 
L 337.20017 101.917547 
L 340.491321 97.67874 
L 343.782473 205.666462 
L 347.073624 171.212821 
L 350.364776 55.775663 
L 353.655927 73.759067 
L 356.947078 87.115673 
L 360.23823 115.312952 
L 363.529381 111.927726 
L 366.820533 180.594454 
L 370.111684 205.957455 
L 373.402835 140.646854 
L 376.693987 176.974494 
L 379.985138 89.99651 
L 383.276289 133.655248 
L 386.567441 166.429944 
L 389.858592 82.314279 
L 393.149744 90.820991 
L 396.440895 151.968444 
L 399.732046 40.847692 
L 403.023198 40.847692 
L 406.314349 44.426913 
L 409.6055 46.260173 
L 412.896652 40.847692 
L 419.478955 40.847692 
L 422.770106 99.424702 
L 426.061257 66.775221 
L 429.352409 42.942846 
L 432.64356 67.211712 
L 435.934712 40.847692 
L 439.225863 57.608923 
L 442.517014 40.847692 
L 449.099317 142.501453 
L 452.390468 66.426029 
L 455.68162 154.176469 
L 458.972771 197.017237 
L 462.263923 216.273178 
L 465.555074 243.85937 
L 468.846225 248.733513 
L 472.137377 256.582026 
L 475.428528 227.447332 
L 478.719679 201.153822 
L 482.010831 190.883987 
L 485.301982 153.478084 
L 488.593134 168.884872 
L 491.884285 160.271462 
L 495.175436 157.541413 
L 498.466588 168.931431 
L 501.757739 87.028375 
L 505.048891 76.901798 
L 508.340042 106.583144 
L 511.631193 60.92625 
L 514.922345 74.98124 
L 518.213496 108.591 
L 521.504647 40.847692 
L 531.378102 40.847692 
L 534.669253 107.543423 
L 537.960404 40.847692 
L 541.251556 67.29901 
L 544.542707 120.85153 
L 547.833858 65.90224 
L 551.12501 65.02926 
L 551.12501 65.02926 
" clip-path="url(#pd2367b8407)" style="fill: none; stroke: #008000; stroke-opacity: 0.2; stroke-linecap: round"/>
   </g>
   <g id="line2d_32">
    <path d="M 60.743454 374.377398 
L 64.034606 373.901879 
L 67.325757 373.015228 
L 70.616908 371.749873 
L 73.90806 368.947702 
L 77.199211 363.837146 
L 80.490362 362.104615 
L 83.781514 356.098508 
L 87.072665 351.461627 
L 90.363817 344.249249 
L 93.654968 344.063013 
L 96.946119 334.269 
L 100.237271 333.20338 
L 103.528422 317.47149 
L 106.819573 296.631058 
L 110.110725 293.104215 
L 113.401876 260.213976 
L 116.693028 251.340815 
L 119.984179 252.691026 
L 123.27533 263.81617 
L 126.566482 246.793556 
L 129.857633 235.368348 
L 133.148785 207.861385 
L 136.439936 220.285979 
L 139.731087 222.055221 
L 143.022239 205.451574 
L 146.31339 125.585026 
L 149.604541 209.480716 
L 152.895693 262.135846 
L 156.186844 228.975048 
L 159.477996 269.568654 
L 166.060298 231.739487 
L 169.35145 279.300492 
L 172.642601 297.082599 
L 179.224904 268.557834 
L 182.516055 259.686512 
L 185.807207 295.68583 
L 189.098358 301.874963 
L 192.389509 285.658361 
L 195.680661 296.352997 
L 198.971812 294.697567 
L 202.262964 294.934981 
L 205.554115 297.491997 
L 208.845266 272.07649 
L 212.136418 294.510962 
L 215.427569 291.774698 
L 218.71872 298.792438 
L 228.592175 305.377762 
L 231.883326 305.317216 
L 235.174477 305.011673 
L 238.465629 311.985249 
L 241.75678 308.56907 
L 245.047931 296.506346 
L 248.339083 297.708737 
L 251.630234 297.636491 
L 254.921386 299.827973 
L 258.212537 303.350194 
L 261.503688 303.688122 
L 264.79484 295.990872 
L 268.085991 291.36084 
L 271.377143 288.969778 
L 274.668294 274.041641 
L 277.959445 266.791744 
L 281.250597 283.065696 
L 284.541748 269.917846 
L 287.832899 274.290341 
L 291.124051 273.251045 
L 294.415202 275.187476 
L 297.706354 262.0261 
L 300.997505 253.23013 
L 304.288656 257.102488 
L 307.579808 279.391585 
L 310.870959 281.304552 
L 314.16211 261.836538 
L 317.453262 272.877667 
L 320.744413 274.502893 
L 324.035565 252.568502 
L 327.326716 268.067127 
L 330.617867 248.884145 
L 333.909019 246.74791 
L 337.20017 219.765101 
L 340.491321 246.832355 
L 343.782473 221.310277 
L 347.073624 216.092346 
L 350.364776 221.467413 
L 353.655927 239.764063 
L 356.947078 244.116415 
L 360.23823 257.126381 
L 363.529381 254.786179 
L 366.820533 241.982462 
L 370.111684 259.057965 
L 373.402835 285.198502 
L 376.693987 287.511766 
L 379.985138 293.538212 
L 383.276289 314.474785 
L 386.567441 326.121179 
L 389.858592 351.249723 
L 393.149744 359.420935 
L 396.440895 363.398681 
L 399.732046 364.590608 
L 403.023198 365.319701 
L 406.314349 366.276545 
L 409.6055 365.678331 
L 412.896652 366.068254 
L 416.187803 364.093349 
L 419.478955 363.870723 
L 422.770106 363.843862 
L 426.061257 361.975018 
L 429.352409 360.252378 
L 432.64356 360.070191 
L 435.934712 358.385311 
L 439.225863 357.64317 
L 442.517014 355.784235 
L 445.808166 355.085408 
L 449.099317 353.556388 
L 452.390468 352.403766 
L 455.68162 351.687045 
L 458.972771 352.950114 
L 462.263923 350.641131 
L 465.555074 348.528442 
L 468.846225 349.002086 
L 472.137377 346.199469 
L 475.428528 344.377286 
L 478.719679 344.564858 
L 482.010831 344.295808 
L 485.301982 342.145518 
L 488.593134 340.137245 
L 491.884285 339.536446 
L 495.175436 340.131366 
L 498.466588 338.188237 
L 501.757739 332.117726 
L 505.048891 334.254747 
L 508.340042 334.154978 
L 514.922345 330.10308 
L 518.213496 327.407598 
L 521.504647 326.154436 
L 524.795799 327.78632 
L 528.08695 327.375853 
L 531.378102 325.954897 
L 534.669253 319.610598 
L 537.960404 319.538968 
L 541.251556 315.312846 
L 544.542707 302.268824 
L 547.833858 312.011392 
L 551.12501 306.076146 
L 551.12501 306.076146 
" clip-path="url(#pd2367b8407)" style="fill: none; stroke: #008000; stroke-opacity: 0.2; stroke-linecap: round"/>
   </g>
   <g id="line2d_33">
    <path d="M 60.743454 374.742615 
L 64.034606 373.61534 
L 67.325757 371.75076 
L 70.616908 370.232193 
L 73.90806 366.39999 
L 77.199211 364.787196 
L 80.490362 358.885624 
L 83.781514 350.353535 
L 87.072665 345.457874 
L 90.363817 340.117971 
L 93.654968 330.145928 
L 96.946119 316.33211 
L 100.237271 282.823994 
L 103.528422 291.372222 
L 106.819573 286.591779 
L 110.110725 262.860486 
L 113.401876 276.785295 
L 116.693028 274.330367 
L 119.984179 246.754756 
L 123.27533 233.86374 
L 126.566482 202.013373 
L 129.857633 203.141533 
L 133.148785 224.941877 
L 136.439936 235.883236 
L 139.731087 242.475439 
L 143.022239 203.463864 
L 146.31339 169.286972 
L 149.604541 185.286329 
L 152.895693 220.239421 
L 156.186844 204.645746 
L 159.477996 233.648405 
L 162.769147 244.652756 
L 166.060298 227.08359 
L 169.35145 238.141346 
L 172.642601 198.91541 
L 175.933752 198.973609 
L 179.224904 207.10979 
L 182.516055 227.08359 
L 185.807207 209.158385 
L 189.098358 221.579654 
L 192.389509 237.355663 
L 195.680661 197.227647 
L 198.971812 203.671077 
L 202.262964 202.819201 
L 205.554115 182.328776 
L 208.845266 213.115897 
L 212.136418 204.430858 
L 215.427569 147.15735 
L 218.71872 143.199838 
L 222.009872 190.476596 
L 225.301023 232.205077 
L 228.592175 221.63619 
L 231.883326 269.600399 
L 235.174477 283.494443 
L 238.465629 290.385888 
L 241.75678 268.648056 
L 245.047931 255.178255 
L 248.339083 203.087811 
L 251.630234 195.513024 
L 254.921386 238.326213 
L 258.212537 267.789436 
L 261.503688 269.585282 
L 264.79484 241.656549 
L 268.085991 264.362514 
L 271.377143 295.284173 
L 274.668294 296.585792 
L 277.959445 293.238904 
L 281.250597 288.282775 
L 284.541748 286.709441 
L 287.832899 276.264037 
L 291.124051 278.734952 
L 294.415202 263.798667 
L 297.706354 246.871154 
L 300.997505 272.438104 
L 304.288656 261.676908 
L 307.579808 221.030923 
L 310.870959 206.215192 
L 314.16211 271.405709 
L 317.453262 276.780234 
L 320.744413 285.002954 
L 324.035565 279.75596 
L 327.326716 289.193262 
L 330.617867 281.76002 
L 333.909019 261.188038 
L 337.20017 213.298808 
L 340.491321 220.332538 
L 343.782473 206.042515 
L 347.073624 208.191391 
L 350.364776 229.236942 
L 353.655927 177.35014 
L 356.947078 165.299831 
L 360.23823 134.431231 
L 363.529381 130.171085 
L 366.820533 49.315606 
L 370.111684 145.682983 
L 373.402835 116.195632 
L 376.693987 94.856103 
L 379.985138 54.291596 
L 383.276289 40.847692 
L 386.567441 132.336077 
L 389.858592 102.480135 
L 393.149744 49.053712 
L 396.440895 91.567875 
L 399.732046 40.847692 
L 403.023198 141.027085 
L 406.314349 60.664356 
L 409.6055 73.147981 
L 412.896652 40.847692 
L 416.187803 76.028817 
L 419.478955 53.942404 
L 422.770106 79.346144 
L 426.061257 64.680067 
L 429.352409 71.402019 
L 432.64356 47.74424 
L 435.934712 40.847692 
L 452.390468 40.847692 
L 455.68162 52.982125 
L 458.972771 99.162808 
L 462.263923 40.847692 
L 465.555074 53.069423 
L 468.846225 97.67874 
L 472.137377 40.847692 
L 482.010831 40.847692 
L 485.301982 44.60151 
L 488.593134 63.108702 
L 491.884285 45.47449 
L 495.175436 122.488854 
L 498.466588 67.037115 
L 501.757739 60.227865 
L 505.048891 81.092106 
L 508.340042 40.847692 
L 511.631193 54.902683 
L 514.922345 40.847692 
L 551.12501 40.847692 
L 551.12501 40.847692 
" clip-path="url(#pd2367b8407)" style="fill: none; stroke: #008000; stroke-opacity: 0.2; stroke-linecap: round"/>
   </g>
   <g id="line2d_34">
    <path d="M 60.743454 40.847692 
L 67.325757 62.156579 
L 73.90806 82.206111 
L 80.490362 101.070715 
L 87.072665 118.820422 
L 93.654968 135.52112 
L 100.237271 151.234808 
L 106.819573 166.019816 
L 113.401876 179.93103 
L 119.984179 193.020092 
L 126.566482 205.33559 
L 133.148785 216.923242 
L 139.731087 227.826064 
L 146.31339 238.084529 
L 152.895693 247.736719 
L 159.477996 256.818465 
L 166.060298 265.363479 
L 169.35145 269.444699 
L 172.642601 260.603416 
L 175.933752 252.411373 
L 179.224904 256.881156 
L 182.516055 249.53457 
L 189.098358 258.510063 
L 192.389509 252.134788 
L 195.680661 256.612869 
L 198.971812 250.92464 
L 205.554115 259.817979 
L 212.136418 268.185722 
L 218.71872 276.058932 
L 225.301023 283.466834 
L 231.883326 290.43693 
L 238.465629 296.995093 
L 245.047931 303.165668 
L 248.339083 306.112823 
L 251.630234 299.728304 
L 254.921386 293.812618 
L 261.503688 300.171278 
L 264.79484 286.842282 
L 268.085991 282.341637 
L 274.668294 289.378232 
L 281.250597 295.998964 
L 287.832899 302.228411 
L 294.415202 308.089697 
L 300.997505 313.604582 
L 307.579808 318.793536 
L 314.16211 323.675824 
L 317.453262 318.468026 
L 324.035565 323.369551 
L 327.326716 325.710589 
L 330.617867 307.957007 
L 337.20017 313.479734 
L 343.782473 318.676067 
L 350.364776 323.565297 
L 356.947078 328.165574 
L 363.529381 332.493974 
L 370.111684 336.566565 
L 373.402835 338.511693 
L 376.693987 336.040918 
L 383.276289 339.903885 
L 389.858592 343.538551 
L 393.149744 345.274519 
L 396.440895 337.702631 
L 399.732046 340.960393 
L 403.023198 343.884072 
L 406.314349 346.525172 
L 409.6055 348.92637 
L 412.896652 351.123059 
L 416.187803 354.505177 
L 419.478955 357.457 
L 422.770106 360.049147 
L 426.061257 362.339989 
L 429.352409 364.377797 
L 432.64356 365.355272 
L 439.225863 368.252775 
L 445.808166 370.733437 
L 449.099317 368.506734 
L 455.68162 370.743223 
L 458.972771 371.773763 
L 462.263923 374.086284 
L 465.555074 376.025329 
L 468.846225 377.677989 
L 472.137377 379.122115 
L 475.428528 380.391861 
L 488.593134 382.746977 
L 498.466588 384.493752 
L 501.757739 385.118133 
L 505.048891 384.374482 
L 511.631193 385.449826 
L 524.795799 387.169613 
L 537.960404 388.692128 
L 551.12501 390.04 
L 551.12501 390.04 
" clip-path="url(#pd2367b8407)" style="fill: none; stroke: #ff0000; stroke-linecap: round"/>
   </g>
   <g id="line2d_35">
    <path d="M 60.743454 40.847692 
L 64.034606 41.036377 
L 67.325757 43.284529 
L 70.616908 51.237688 
L 73.90806 64.140809 
L 77.199211 79.883772 
L 80.490362 96.229462 
L 83.781514 110.238079 
L 87.072665 126.23346 
L 90.363817 136.404169 
L 93.654968 147.289178 
L 96.946119 160.724329 
L 100.237271 171.436248 
L 103.528422 174.398687 
L 106.819573 178.246679 
L 110.110725 182.777037 
L 113.401876 189.677331 
L 116.693028 188.111054 
L 119.984179 192.597467 
L 123.27533 198.191425 
L 126.566482 206.97366 
L 129.857633 211.605956 
L 133.148785 213.134155 
L 136.439936 210.82486 
L 139.731087 216.040735 
L 143.022239 217.648231 
L 146.31339 215.540096 
L 149.604541 224.6079 
L 152.895693 215.668938 
L 156.186844 224.613047 
L 159.477996 227.521733 
L 162.769147 234.875654 
L 166.060298 243.411082 
L 169.35145 248.125393 
L 172.642601 247.765967 
L 175.933752 242.520615 
L 179.224904 249.504865 
L 182.516055 252.058655 
L 185.807207 257.191747 
L 189.098358 268.218655 
L 192.389509 273.930138 
L 195.680661 273.012206 
L 198.971812 284.232095 
L 202.262964 285.36292 
L 205.554115 278.489818 
L 208.845266 288.214403 
L 212.136418 284.327057 
L 215.427569 297.423449 
L 218.71872 301.611152 
L 222.009872 297.86055 
L 225.301023 308.503149 
L 228.592175 308.814502 
L 231.883326 312.508418 
L 235.174477 311.983199 
L 238.465629 324.701761 
L 241.75678 319.053611 
L 245.047931 319.850495 
L 248.339083 317.756753 
L 251.630234 323.851201 
L 254.921386 318.89439 
L 258.212537 327.826076 
L 261.503688 326.256213 
L 264.79484 331.589054 
L 268.085991 335.785849 
L 271.377143 340.420453 
L 274.668294 343.709551 
L 277.959445 338.669535 
L 281.250597 337.874818 
L 284.541748 346.327121 
L 287.832899 342.059733 
L 291.124051 345.616623 
L 294.415202 352.595569 
L 297.706354 347.919051 
L 300.997505 346.210521 
L 304.288656 347.533819 
L 307.579808 353.611803 
L 314.16211 361.595638 
L 317.453262 363.59257 
L 320.744413 374.505247 
L 324.035565 374.675102 
L 327.326716 374.721136 
L 330.617867 375.270413 
L 333.909019 379.85299 
L 337.20017 378.365692 
L 340.491321 380.309212 
L 343.782473 377.357714 
L 347.073624 380.306189 
L 353.655927 385.573971 
L 356.947078 390.04 
L 360.23823 386.515808 
L 363.529381 389.563169 
L 366.820533 386.61618 
L 370.111684 387.516329 
L 373.402835 388.002483 
L 376.693987 385.152551 
L 379.985138 389.386294 
L 383.276289 382.066119 
L 386.567441 381.711592 
L 389.858592 368.197607 
L 393.149744 367.929291 
L 396.440895 367.942523 
L 399.732046 363.786376 
L 403.023198 364.247846 
L 406.314349 368.676858 
L 409.6055 369.634745 
L 412.896652 372.840056 
L 416.187803 381.173474 
L 419.478955 389.202638 
L 422.770106 387.284681 
L 426.061257 386.457558 
L 429.352409 378.716969 
L 432.64356 377.9217 
L 435.934712 380.525107 
L 439.225863 374.177087 
L 442.517014 377.458124 
L 445.808166 376.110353 
L 449.099317 377.22428 
L 452.390468 372.928567 
L 455.68162 369.090844 
L 458.972771 366.923651 
L 462.263923 360.916066 
L 465.555074 359.998177 
L 468.846225 360.038208 
L 472.137377 357.61183 
L 475.428528 364.53245 
L 478.719679 365.36341 
L 482.010831 365.620129 
L 485.301982 363.7409 
L 488.593134 366.147938 
L 491.884285 365.36656 
L 495.175436 361.951348 
L 498.466588 361.938675 
L 501.757739 363.007425 
L 505.048891 365.584535 
L 508.340042 364.157301 
L 511.631193 369.777473 
L 514.922345 359.616014 
L 518.213496 364.5748 
L 521.504647 357.952458 
L 524.795799 370.00385 
L 528.08695 372.223799 
L 531.378102 375.626895 
L 534.669253 363.35513 
L 537.960404 369.662652 
L 541.251556 370.769951 
L 544.542707 362.557192 
L 547.833858 356.931641 
L 551.12501 368.342652 
L 551.12501 368.342652 
" clip-path="url(#pd2367b8407)" style="fill: none; stroke: #800080; stroke-linecap: round"/>
   </g>
   <g id="patch_3">
    <path d="M 50.87 390.04 
L 50.87 26.88 
" style="fill: none; stroke: #ffffff; stroke-width: 0.8; stroke-linejoin: miter; stroke-linecap: square"/>
   </g>
   <g id="patch_4">
    <path d="M 564.289615 390.04 
L 564.289615 26.88 
" style="fill: none; stroke: #ffffff; stroke-width: 0.8; stroke-linejoin: miter; stroke-linecap: square"/>
   </g>
   <g id="patch_5">
    <path d="M 50.87 390.04 
L 564.289615 390.04 
" style="fill: none; stroke: #ffffff; stroke-width: 0.8; stroke-linejoin: miter; stroke-linecap: square"/>
   </g>
   <g id="patch_6">
    <path d="M 50.87 26.88 
L 564.289615 26.88 
" style="fill: none; stroke: #ffffff; stroke-width: 0.8; stroke-linejoin: miter; stroke-linecap: square"/>
   </g>
   <g id="text_30">
    <!-- cartpole_GNN_noise_entropy_mlp -->
    <g style="fill: #262626" transform="translate(206.83137 20.88) scale(0.12 -0.12)">
     <defs>
      <path id="DejaVuSans-63" d="M 3122 3366 
L 3122 2828 
Q 2878 2963 2633 3030 
Q 2388 3097 2138 3097 
Q 1578 3097 1268 2742 
Q 959 2388 959 1747 
Q 959 1106 1268 751 
Q 1578 397 2138 397 
Q 2388 397 2633 464 
Q 2878 531 3122 666 
L 3122 134 
Q 2881 22 2623 -34 
Q 2366 -91 2075 -91 
Q 1284 -91 818 406 
Q 353 903 353 1747 
Q 353 2603 823 3093 
Q 1294 3584 2113 3584 
Q 2378 3584 2631 3529 
Q 2884 3475 3122 3366 
z
" transform="scale(0.015625)"/>
      <path id="DejaVuSans-74" d="M 1172 4494 
L 1172 3500 
L 2356 3500 
L 2356 3053 
L 1172 3053 
L 1172 1153 
Q 1172 725 1289 603 
Q 1406 481 1766 481 
L 2356 481 
L 2356 0 
L 1766 0 
Q 1100 0 847 248 
Q 594 497 594 1153 
L 594 3053 
L 172 3053 
L 172 3500 
L 594 3500 
L 594 4494 
L 1172 4494 
z
" transform="scale(0.015625)"/>
      <path id="DejaVuSans-6c" d="M 603 4863 
L 1178 4863 
L 1178 0 
L 603 0 
L 603 4863 
z
" transform="scale(0.015625)"/>
      <path id="DejaVuSans-5f" d="M 3263 -1063 
L 3263 -1509 
L -63 -1509 
L -63 -1063 
L 3263 -1063 
z
" transform="scale(0.015625)"/>
      <path id="DejaVuSans-47" d="M 3809 666 
L 3809 1919 
L 2778 1919 
L 2778 2438 
L 4434 2438 
L 4434 434 
Q 4069 175 3628 42 
Q 3188 -91 2688 -91 
Q 1594 -91 976 548 
Q 359 1188 359 2328 
Q 359 3472 976 4111 
Q 1594 4750 2688 4750 
Q 3144 4750 3555 4637 
Q 3966 4525 4313 4306 
L 4313 3634 
Q 3963 3931 3569 4081 
Q 3175 4231 2741 4231 
Q 1884 4231 1454 3753 
Q 1025 3275 1025 2328 
Q 1025 1384 1454 906 
Q 1884 428 2741 428 
Q 3075 428 3337 486 
Q 3600 544 3809 666 
z
" transform="scale(0.015625)"/>
      <path id="DejaVuSans-4e" d="M 628 4666 
L 1478 4666 
L 3547 763 
L 3547 4666 
L 4159 4666 
L 4159 0 
L 3309 0 
L 1241 3903 
L 1241 0 
L 628 0 
L 628 4666 
z
" transform="scale(0.015625)"/>
      <path id="DejaVuSans-6e" d="M 3513 2113 
L 3513 0 
L 2938 0 
L 2938 2094 
Q 2938 2591 2744 2837 
Q 2550 3084 2163 3084 
Q 1697 3084 1428 2787 
Q 1159 2491 1159 1978 
L 1159 0 
L 581 0 
L 581 3500 
L 1159 3500 
L 1159 2956 
Q 1366 3272 1645 3428 
Q 1925 3584 2291 3584 
Q 2894 3584 3203 3211 
Q 3513 2838 3513 2113 
z
" transform="scale(0.015625)"/>
      <path id="DejaVuSans-79" d="M 2059 -325 
Q 1816 -950 1584 -1140 
Q 1353 -1331 966 -1331 
L 506 -1331 
L 506 -850 
L 844 -850 
Q 1081 -850 1212 -737 
Q 1344 -625 1503 -206 
L 1606 56 
L 191 3500 
L 800 3500 
L 1894 763 
L 2988 3500 
L 3597 3500 
L 2059 -325 
z
" transform="scale(0.015625)"/>
      <path id="DejaVuSans-6d" d="M 3328 2828 
Q 3544 3216 3844 3400 
Q 4144 3584 4550 3584 
Q 5097 3584 5394 3201 
Q 5691 2819 5691 2113 
L 5691 0 
L 5113 0 
L 5113 2094 
Q 5113 2597 4934 2840 
Q 4756 3084 4391 3084 
Q 3944 3084 3684 2787 
Q 3425 2491 3425 1978 
L 3425 0 
L 2847 0 
L 2847 2094 
Q 2847 2600 2669 2842 
Q 2491 3084 2119 3084 
Q 1678 3084 1418 2786 
Q 1159 2488 1159 1978 
L 1159 0 
L 581 0 
L 581 3500 
L 1159 3500 
L 1159 2956 
Q 1356 3278 1631 3431 
Q 1906 3584 2284 3584 
Q 2666 3584 2933 3390 
Q 3200 3197 3328 2828 
z
" transform="scale(0.015625)"/>
     </defs>
     <use xlink:href="#DejaVuSans-63"/>
     <use xlink:href="#DejaVuSans-61" transform="translate(54.980469 0)"/>
     <use xlink:href="#DejaVuSans-72" transform="translate(116.259766 0)"/>
     <use xlink:href="#DejaVuSans-74" transform="translate(157.373047 0)"/>
     <use xlink:href="#DejaVuSans-70" transform="translate(196.582031 0)"/>
     <use xlink:href="#DejaVuSans-6f" transform="translate(260.058594 0)"/>
     <use xlink:href="#DejaVuSans-6c" transform="translate(321.240234 0)"/>
     <use xlink:href="#DejaVuSans-65" transform="translate(349.023438 0)"/>
     <use xlink:href="#DejaVuSans-5f" transform="translate(410.546875 0)"/>
     <use xlink:href="#DejaVuSans-47" transform="translate(460.546875 0)"/>
     <use xlink:href="#DejaVuSans-4e" transform="translate(538.037109 0)"/>
     <use xlink:href="#DejaVuSans-4e" transform="translate(612.841797 0)"/>
     <use xlink:href="#DejaVuSans-5f" transform="translate(687.646484 0)"/>
     <use xlink:href="#DejaVuSans-6e" transform="translate(737.646484 0)"/>
     <use xlink:href="#DejaVuSans-6f" transform="translate(801.025391 0)"/>
     <use xlink:href="#DejaVuSans-69" transform="translate(862.207031 0)"/>
     <use xlink:href="#DejaVuSans-73" transform="translate(889.990234 0)"/>
     <use xlink:href="#DejaVuSans-65" transform="translate(942.089844 0)"/>
     <use xlink:href="#DejaVuSans-5f" transform="translate(1003.613281 0)"/>
     <use xlink:href="#DejaVuSans-65" transform="translate(1053.613281 0)"/>
     <use xlink:href="#DejaVuSans-6e" transform="translate(1115.136719 0)"/>
     <use xlink:href="#DejaVuSans-74" transform="translate(1178.515625 0)"/>
     <use xlink:href="#DejaVuSans-72" transform="translate(1217.724609 0)"/>
     <use xlink:href="#DejaVuSans-6f" transform="translate(1256.587891 0)"/>
     <use xlink:href="#DejaVuSans-70" transform="translate(1317.769531 0)"/>
     <use xlink:href="#DejaVuSans-79" transform="translate(1381.246094 0)"/>
     <use xlink:href="#DejaVuSans-5f" transform="translate(1440.425781 0)"/>
     <use xlink:href="#DejaVuSans-6d" transform="translate(1490.425781 0)"/>
     <use xlink:href="#DejaVuSans-6c" transform="translate(1587.837891 0)"/>
     <use xlink:href="#DejaVuSans-70" transform="translate(1615.621094 0)"/>
    </g>
   </g>
   <g id="legend_1">
    <g id="patch_7">
     <path d="M 57.87 385.04 
L 226.796563 385.04 
Q 228.796563 385.04 228.796563 383.04 
L 228.796563 310.649375 
Q 228.796563 308.649375 226.796563 308.649375 
L 57.87 308.649375 
Q 55.87 308.649375 55.87 310.649375 
L 55.87 383.04 
Q 55.87 385.04 57.87 385.04 
z
" style="fill: #eaeaf2; opacity: 0.8; stroke: #cccccc; stroke-linejoin: miter"/>
    </g>
    <g id="line2d_36">
     <path d="M 59.87 316.747813 
L 69.87 316.747813 
L 79.87 316.747813 
" style="fill: none; stroke: #0000ff; stroke-width: 1.5; stroke-linecap: round"/>
    </g>
    <g id="text_31">
     <!-- Mean Reward -->
     <g style="fill: #262626" transform="translate(87.87 320.247813) scale(0.1 -0.1)">
      <defs>
       <path id="DejaVuSans-4d" d="M 628 4666 
L 1569 4666 
L 2759 1491 
L 3956 4666 
L 4897 4666 
L 4897 0 
L 4281 0 
L 4281 4097 
L 3078 897 
L 2444 897 
L 1241 4097 
L 1241 0 
L 628 0 
L 628 4666 
z
" transform="scale(0.015625)"/>
       <path id="DejaVuSans-20" transform="scale(0.015625)"/>
      </defs>
      <use xlink:href="#DejaVuSans-4d"/>
      <use xlink:href="#DejaVuSans-65" transform="translate(86.279297 0)"/>
      <use xlink:href="#DejaVuSans-61" transform="translate(147.802734 0)"/>
      <use xlink:href="#DejaVuSans-6e" transform="translate(209.082031 0)"/>
      <use xlink:href="#DejaVuSans-20" transform="translate(272.460938 0)"/>
      <use xlink:href="#DejaVuSans-52" transform="translate(304.248047 0)"/>
      <use xlink:href="#DejaVuSans-65" transform="translate(369.230469 0)"/>
      <use xlink:href="#DejaVuSans-77" transform="translate(430.753906 0)"/>
      <use xlink:href="#DejaVuSans-61" transform="translate(512.541016 0)"/>
      <use xlink:href="#DejaVuSans-72" transform="translate(573.820312 0)"/>
      <use xlink:href="#DejaVuSans-64" transform="translate(613.183594 0)"/>
     </g>
    </g>
    <g id="line2d_37">
     <path d="M 59.87 331.425937 
L 69.87 331.425937 
L 79.87 331.425937 
" style="fill: none; stroke: #008000; stroke-opacity: 0.2; stroke-linecap: round"/>
    </g>
    <g id="text_32">
     <!-- Reward (individual runs) -->
     <g style="fill: #262626" transform="translate(87.87 334.925937) scale(0.1 -0.1)">
      <defs>
       <path id="DejaVuSans-28" d="M 1984 4856 
Q 1566 4138 1362 3434 
Q 1159 2731 1159 2009 
Q 1159 1288 1364 580 
Q 1569 -128 1984 -844 
L 1484 -844 
Q 1016 -109 783 600 
Q 550 1309 550 2009 
Q 550 2706 781 3412 
Q 1013 4119 1484 4856 
L 1984 4856 
z
" transform="scale(0.015625)"/>
       <path id="DejaVuSans-76" d="M 191 3500 
L 800 3500 
L 1894 563 
L 2988 3500 
L 3597 3500 
L 2284 0 
L 1503 0 
L 191 3500 
z
" transform="scale(0.015625)"/>
       <path id="DejaVuSans-75" d="M 544 1381 
L 544 3500 
L 1119 3500 
L 1119 1403 
Q 1119 906 1312 657 
Q 1506 409 1894 409 
Q 2359 409 2629 706 
Q 2900 1003 2900 1516 
L 2900 3500 
L 3475 3500 
L 3475 0 
L 2900 0 
L 2900 538 
Q 2691 219 2414 64 
Q 2138 -91 1772 -91 
Q 1169 -91 856 284 
Q 544 659 544 1381 
z
M 1991 3584 
L 1991 3584 
z
" transform="scale(0.015625)"/>
       <path id="DejaVuSans-29" d="M 513 4856 
L 1013 4856 
Q 1481 4119 1714 3412 
Q 1947 2706 1947 2009 
Q 1947 1309 1714 600 
Q 1481 -109 1013 -844 
L 513 -844 
Q 928 -128 1133 580 
Q 1338 1288 1338 2009 
Q 1338 2731 1133 3434 
Q 928 4138 513 4856 
z
" transform="scale(0.015625)"/>
      </defs>
      <use xlink:href="#DejaVuSans-52"/>
      <use xlink:href="#DejaVuSans-65" transform="translate(64.982422 0)"/>
      <use xlink:href="#DejaVuSans-77" transform="translate(126.505859 0)"/>
      <use xlink:href="#DejaVuSans-61" transform="translate(208.292969 0)"/>
      <use xlink:href="#DejaVuSans-72" transform="translate(269.572266 0)"/>
      <use xlink:href="#DejaVuSans-64" transform="translate(308.935547 0)"/>
      <use xlink:href="#DejaVuSans-20" transform="translate(372.412109 0)"/>
      <use xlink:href="#DejaVuSans-28" transform="translate(404.199219 0)"/>
      <use xlink:href="#DejaVuSans-69" transform="translate(443.212891 0)"/>
      <use xlink:href="#DejaVuSans-6e" transform="translate(470.996094 0)"/>
      <use xlink:href="#DejaVuSans-64" transform="translate(534.375 0)"/>
      <use xlink:href="#DejaVuSans-69" transform="translate(597.851562 0)"/>
      <use xlink:href="#DejaVuSans-76" transform="translate(625.634766 0)"/>
      <use xlink:href="#DejaVuSans-69" transform="translate(684.814453 0)"/>
      <use xlink:href="#DejaVuSans-64" transform="translate(712.597656 0)"/>
      <use xlink:href="#DejaVuSans-75" transform="translate(776.074219 0)"/>
      <use xlink:href="#DejaVuSans-61" transform="translate(839.453125 0)"/>
      <use xlink:href="#DejaVuSans-6c" transform="translate(900.732422 0)"/>
      <use xlink:href="#DejaVuSans-20" transform="translate(928.515625 0)"/>
      <use xlink:href="#DejaVuSans-72" transform="translate(960.302734 0)"/>
      <use xlink:href="#DejaVuSans-75" transform="translate(1001.416016 0)"/>
      <use xlink:href="#DejaVuSans-6e" transform="translate(1064.794922 0)"/>
      <use xlink:href="#DejaVuSans-73" transform="translate(1128.173828 0)"/>
      <use xlink:href="#DejaVuSans-29" transform="translate(1180.273438 0)"/>
     </g>
    </g>
    <g id="line2d_38">
     <path d="M 59.87 346.104062 
L 69.87 346.104062 
L 79.87 346.104062 
" style="fill: none; stroke: #ff0000; stroke-linecap: round"/>
    </g>
    <g id="text_33">
     <!-- Noise std (normalized) -->
     <g style="fill: #262626" transform="translate(87.87 349.604062) scale(0.1 -0.1)">
      <defs>
       <path id="DejaVuSans-7a" d="M 353 3500 
L 3084 3500 
L 3084 2975 
L 922 459 
L 3084 459 
L 3084 0 
L 275 0 
L 275 525 
L 2438 3041 
L 353 3041 
L 353 3500 
z
" transform="scale(0.015625)"/>
      </defs>
      <use xlink:href="#DejaVuSans-4e"/>
      <use xlink:href="#DejaVuSans-6f" transform="translate(74.804688 0)"/>
      <use xlink:href="#DejaVuSans-69" transform="translate(135.986328 0)"/>
      <use xlink:href="#DejaVuSans-73" transform="translate(163.769531 0)"/>
      <use xlink:href="#DejaVuSans-65" transform="translate(215.869141 0)"/>
      <use xlink:href="#DejaVuSans-20" transform="translate(277.392578 0)"/>
      <use xlink:href="#DejaVuSans-73" transform="translate(309.179688 0)"/>
      <use xlink:href="#DejaVuSans-74" transform="translate(361.279297 0)"/>
      <use xlink:href="#DejaVuSans-64" transform="translate(400.488281 0)"/>
      <use xlink:href="#DejaVuSans-20" transform="translate(463.964844 0)"/>
      <use xlink:href="#DejaVuSans-28" transform="translate(495.751953 0)"/>
      <use xlink:href="#DejaVuSans-6e" transform="translate(534.765625 0)"/>
      <use xlink:href="#DejaVuSans-6f" transform="translate(598.144531 0)"/>
      <use xlink:href="#DejaVuSans-72" transform="translate(659.326172 0)"/>
      <use xlink:href="#DejaVuSans-6d" transform="translate(698.689453 0)"/>
      <use xlink:href="#DejaVuSans-61" transform="translate(796.101562 0)"/>
      <use xlink:href="#DejaVuSans-6c" transform="translate(857.380859 0)"/>
      <use xlink:href="#DejaVuSans-69" transform="translate(885.164062 0)"/>
      <use xlink:href="#DejaVuSans-7a" transform="translate(912.947266 0)"/>
      <use xlink:href="#DejaVuSans-65" transform="translate(965.4375 0)"/>
      <use xlink:href="#DejaVuSans-64" transform="translate(1026.960938 0)"/>
      <use xlink:href="#DejaVuSans-29" transform="translate(1090.4375 0)"/>
     </g>
    </g>
    <g id="line2d_39">
     <path d="M 59.87 360.782187 
L 69.87 360.782187 
L 79.87 360.782187 
" style="fill: none; stroke: #800080; stroke-linecap: round"/>
    </g>
    <g id="text_34">
     <!-- Entropy (normalized) -->
     <g style="fill: #262626" transform="translate(87.87 364.282187) scale(0.1 -0.1)">
      <use xlink:href="#DejaVuSans-45"/>
      <use xlink:href="#DejaVuSans-6e" transform="translate(63.183594 0)"/>
      <use xlink:href="#DejaVuSans-74" transform="translate(126.5625 0)"/>
      <use xlink:href="#DejaVuSans-72" transform="translate(165.771484 0)"/>
      <use xlink:href="#DejaVuSans-6f" transform="translate(204.634766 0)"/>
      <use xlink:href="#DejaVuSans-70" transform="translate(265.816406 0)"/>
      <use xlink:href="#DejaVuSans-79" transform="translate(329.292969 0)"/>
      <use xlink:href="#DejaVuSans-20" transform="translate(388.472656 0)"/>
      <use xlink:href="#DejaVuSans-28" transform="translate(420.259766 0)"/>
      <use xlink:href="#DejaVuSans-6e" transform="translate(459.273438 0)"/>
      <use xlink:href="#DejaVuSans-6f" transform="translate(522.652344 0)"/>
      <use xlink:href="#DejaVuSans-72" transform="translate(583.833984 0)"/>
      <use xlink:href="#DejaVuSans-6d" transform="translate(623.197266 0)"/>
      <use xlink:href="#DejaVuSans-61" transform="translate(720.609375 0)"/>
      <use xlink:href="#DejaVuSans-6c" transform="translate(781.888672 0)"/>
      <use xlink:href="#DejaVuSans-69" transform="translate(809.671875 0)"/>
      <use xlink:href="#DejaVuSans-7a" transform="translate(837.455078 0)"/>
      <use xlink:href="#DejaVuSans-65" transform="translate(889.945312 0)"/>
      <use xlink:href="#DejaVuSans-64" transform="translate(951.46875 0)"/>
      <use xlink:href="#DejaVuSans-29" transform="translate(1014.945312 0)"/>
     </g>
    </g>
    <g id="patch_8">
     <path d="M 59.87 378.960312 
L 79.87 378.960312 
L 79.87 371.960312 
L 59.87 371.960312 
z
" style="fill: #0000ff; fill-opacity: 0.1"/>
    </g>
    <g id="text_35">
     <!-- Reward Standard Deviation -->
     <g style="fill: #262626" transform="translate(87.87 378.960312) scale(0.1 -0.1)">
      <defs>
       <path id="DejaVuSans-53" d="M 3425 4513 
L 3425 3897 
Q 3066 4069 2747 4153 
Q 2428 4238 2131 4238 
Q 1616 4238 1336 4038 
Q 1056 3838 1056 3469 
Q 1056 3159 1242 3001 
Q 1428 2844 1947 2747 
L 2328 2669 
Q 3034 2534 3370 2195 
Q 3706 1856 3706 1288 
Q 3706 609 3251 259 
Q 2797 -91 1919 -91 
Q 1588 -91 1214 -16 
Q 841 59 441 206 
L 441 856 
Q 825 641 1194 531 
Q 1563 422 1919 422 
Q 2459 422 2753 634 
Q 3047 847 3047 1241 
Q 3047 1584 2836 1778 
Q 2625 1972 2144 2069 
L 1759 2144 
Q 1053 2284 737 2584 
Q 422 2884 422 3419 
Q 422 4038 858 4394 
Q 1294 4750 2059 4750 
Q 2388 4750 2728 4690 
Q 3069 4631 3425 4513 
z
" transform="scale(0.015625)"/>
       <path id="DejaVuSans-44" d="M 1259 4147 
L 1259 519 
L 2022 519 
Q 2988 519 3436 956 
Q 3884 1394 3884 2338 
Q 3884 3275 3436 3711 
Q 2988 4147 2022 4147 
L 1259 4147 
z
M 628 4666 
L 1925 4666 
Q 3281 4666 3915 4102 
Q 4550 3538 4550 2338 
Q 4550 1131 3912 565 
Q 3275 0 1925 0 
L 628 0 
L 628 4666 
z
" transform="scale(0.015625)"/>
      </defs>
      <use xlink:href="#DejaVuSans-52"/>
      <use xlink:href="#DejaVuSans-65" transform="translate(64.982422 0)"/>
      <use xlink:href="#DejaVuSans-77" transform="translate(126.505859 0)"/>
      <use xlink:href="#DejaVuSans-61" transform="translate(208.292969 0)"/>
      <use xlink:href="#DejaVuSans-72" transform="translate(269.572266 0)"/>
      <use xlink:href="#DejaVuSans-64" transform="translate(308.935547 0)"/>
      <use xlink:href="#DejaVuSans-20" transform="translate(372.412109 0)"/>
      <use xlink:href="#DejaVuSans-53" transform="translate(404.199219 0)"/>
      <use xlink:href="#DejaVuSans-74" transform="translate(467.675781 0)"/>
      <use xlink:href="#DejaVuSans-61" transform="translate(506.884766 0)"/>
      <use xlink:href="#DejaVuSans-6e" transform="translate(568.164062 0)"/>
      <use xlink:href="#DejaVuSans-64" transform="translate(631.542969 0)"/>
      <use xlink:href="#DejaVuSans-61" transform="translate(695.019531 0)"/>
      <use xlink:href="#DejaVuSans-72" transform="translate(756.298828 0)"/>
      <use xlink:href="#DejaVuSans-64" transform="translate(795.662109 0)"/>
      <use xlink:href="#DejaVuSans-20" transform="translate(859.138672 0)"/>
      <use xlink:href="#DejaVuSans-44" transform="translate(890.925781 0)"/>
      <use xlink:href="#DejaVuSans-65" transform="translate(967.927734 0)"/>
      <use xlink:href="#DejaVuSans-76" transform="translate(1029.451172 0)"/>
      <use xlink:href="#DejaVuSans-69" transform="translate(1088.630859 0)"/>
      <use xlink:href="#DejaVuSans-61" transform="translate(1116.414062 0)"/>
      <use xlink:href="#DejaVuSans-74" transform="translate(1177.693359 0)"/>
      <use xlink:href="#DejaVuSans-69" transform="translate(1216.902344 0)"/>
      <use xlink:href="#DejaVuSans-6f" transform="translate(1244.685547 0)"/>
      <use xlink:href="#DejaVuSans-6e" transform="translate(1305.867188 0)"/>
     </g>
    </g>
   </g>
  </g>
 </g>
 <defs>
  <clipPath id="pd2367b8407">
   <rect x="50.87" y="26.88" width="513.419615" height="363.16"/>
  </clipPath>
 </defs>
</svg>
