<?xml version="1.0" encoding="utf-8" standalone="no"?>
<!DOCTYPE svg PUBLIC "-//W3C//DTD SVG 1.1//EN"
  "http://www.w3.org/Graphics/SVG/1.1/DTD/svg11.dtd">
<svg xmlns:xlink="http://www.w3.org/1999/xlink" width="576pt" height="432pt" viewBox="0 0 576 432" xmlns="http://www.w3.org/2000/svg" version="1.1">
 <metadata>
  <rdf:RDF xmlns:dc="http://purl.org/dc/elements/1.1/" xmlns:cc="http://creativecommons.org/ns#" xmlns:rdf="http://www.w3.org/1999/02/22-rdf-syntax-ns#">
   <cc:Work>
    <dc:type rdf:resource="http://purl.org/dc/dcmitype/StillImage"/>
    <dc:date>2025-06-12T21:49:07.521513</dc:date>
    <dc:format>image/svg+xml</dc:format>
    <dc:creator>
     <cc:Agent>
      <dc:title>Matplotlib v3.10.0, https://matplotlib.org/</dc:title>
     </cc:Agent>
    </dc:creator>
   </cc:Work>
  </rdf:RDF>
 </metadata>
 <defs>
  <style type="text/css">*{stroke-linejoin: round; stroke-linecap: butt}</style>
 </defs>
 <g id="figure_1">
  <g id="patch_1">
   <path d="M 0 432 
L 576 432 
L 576 0 
L 0 0 
z
" style="fill: #ffffff"/>
  </g>
  <g id="axes_1">
   <g id="patch_2">
    <path d="M 48.62 390.04 
L 565.2 390.04 
L 565.2 25.49625 
L 48.62 25.49625 
z
" style="fill: #eaeaf2"/>
   </g>
   <g id="matplotlib.axis_1">
    <g id="xtick_1">
     <g id="line2d_1">
      <path d="M 58.554231 390.04 
L 58.554231 25.49625 
" clip-path="url(#pfccd3d0f68)" style="fill: none; stroke: #ffffff; stroke-width: 0.8; stroke-linecap: round"/>
     </g>
     <g id="text_1">
      <!-- 0 -->
      <g style="fill: #262626" transform="translate(55.773762 404.197812) scale(0.1 -0.1)">
       <defs>
        <path id="ArialMT-30" d="M 266 2259 
Q 266 3072 433 3567 
Q 600 4063 929 4331 
Q 1259 4600 1759 4600 
Q 2128 4600 2406 4451 
Q 2684 4303 2865 4023 
Q 3047 3744 3150 3342 
Q 3253 2941 3253 2259 
Q 3253 1453 3087 958 
Q 2922 463 2592 192 
Q 2263 -78 1759 -78 
Q 1097 -78 719 397 
Q 266 969 266 2259 
z
M 844 2259 
Q 844 1131 1108 757 
Q 1372 384 1759 384 
Q 2147 384 2411 759 
Q 2675 1134 2675 2259 
Q 2675 3391 2411 3762 
Q 2147 4134 1753 4134 
Q 1366 4134 1134 3806 
Q 844 3388 844 2259 
z
" transform="scale(0.015625)"/>
       </defs>
       <use xlink:href="#ArialMT-30"/>
      </g>
     </g>
    </g>
    <g id="xtick_2">
     <g id="line2d_2">
      <path d="M 91.668333 390.04 
L 91.668333 25.49625 
" clip-path="url(#pfccd3d0f68)" style="fill: none; stroke: #ffffff; stroke-width: 0.8; stroke-linecap: round"/>
     </g>
     <g id="text_2">
      <!-- 10 -->
      <g style="fill: #262626" transform="translate(86.107396 404.197812) scale(0.1 -0.1)">
       <defs>
        <path id="ArialMT-31" d="M 2384 0 
L 1822 0 
L 1822 3584 
Q 1619 3391 1289 3197 
Q 959 3003 697 2906 
L 697 3450 
Q 1169 3672 1522 3987 
Q 1875 4303 2022 4600 
L 2384 4600 
L 2384 0 
z
" transform="scale(0.015625)"/>
       </defs>
       <use xlink:href="#ArialMT-31"/>
       <use xlink:href="#ArialMT-30" transform="translate(55.615234 0)"/>
      </g>
     </g>
    </g>
    <g id="xtick_3">
     <g id="line2d_3">
      <path d="M 124.782436 390.04 
L 124.782436 25.49625 
" clip-path="url(#pfccd3d0f68)" style="fill: none; stroke: #ffffff; stroke-width: 0.8; stroke-linecap: round"/>
     </g>
     <g id="text_3">
      <!-- 20 -->
      <g style="fill: #262626" transform="translate(119.221498 404.197812) scale(0.1 -0.1)">
       <defs>
        <path id="ArialMT-32" d="M 3222 541 
L 3222 0 
L 194 0 
Q 188 203 259 391 
Q 375 700 629 1000 
Q 884 1300 1366 1694 
Q 2113 2306 2375 2664 
Q 2638 3022 2638 3341 
Q 2638 3675 2398 3904 
Q 2159 4134 1775 4134 
Q 1369 4134 1125 3890 
Q 881 3647 878 3216 
L 300 3275 
Q 359 3922 746 4261 
Q 1134 4600 1788 4600 
Q 2447 4600 2831 4234 
Q 3216 3869 3216 3328 
Q 3216 3053 3103 2787 
Q 2991 2522 2730 2228 
Q 2469 1934 1863 1422 
Q 1356 997 1212 845 
Q 1069 694 975 541 
L 3222 541 
z
" transform="scale(0.015625)"/>
       </defs>
       <use xlink:href="#ArialMT-32"/>
       <use xlink:href="#ArialMT-30" transform="translate(55.615234 0)"/>
      </g>
     </g>
    </g>
    <g id="xtick_4">
     <g id="line2d_4">
      <path d="M 157.896538 390.04 
L 157.896538 25.49625 
" clip-path="url(#pfccd3d0f68)" style="fill: none; stroke: #ffffff; stroke-width: 0.8; stroke-linecap: round"/>
     </g>
     <g id="text_4">
      <!-- 30 -->
      <g style="fill: #262626" transform="translate(152.335601 404.197812) scale(0.1 -0.1)">
       <defs>
        <path id="ArialMT-33" d="M 269 1209 
L 831 1284 
Q 928 806 1161 595 
Q 1394 384 1728 384 
Q 2125 384 2398 659 
Q 2672 934 2672 1341 
Q 2672 1728 2419 1979 
Q 2166 2231 1775 2231 
Q 1616 2231 1378 2169 
L 1441 2663 
Q 1497 2656 1531 2656 
Q 1891 2656 2178 2843 
Q 2466 3031 2466 3422 
Q 2466 3731 2256 3934 
Q 2047 4138 1716 4138 
Q 1388 4138 1169 3931 
Q 950 3725 888 3313 
L 325 3413 
Q 428 3978 793 4289 
Q 1159 4600 1703 4600 
Q 2078 4600 2393 4439 
Q 2709 4278 2876 4000 
Q 3044 3722 3044 3409 
Q 3044 3113 2884 2869 
Q 2725 2625 2413 2481 
Q 2819 2388 3044 2092 
Q 3269 1797 3269 1353 
Q 3269 753 2831 336 
Q 2394 -81 1725 -81 
Q 1122 -81 723 278 
Q 325 638 269 1209 
z
" transform="scale(0.015625)"/>
       </defs>
       <use xlink:href="#ArialMT-33"/>
       <use xlink:href="#ArialMT-30" transform="translate(55.615234 0)"/>
      </g>
     </g>
    </g>
    <g id="xtick_5">
     <g id="line2d_5">
      <path d="M 191.010641 390.04 
L 191.010641 25.49625 
" clip-path="url(#pfccd3d0f68)" style="fill: none; stroke: #ffffff; stroke-width: 0.8; stroke-linecap: round"/>
     </g>
     <g id="text_5">
      <!-- 40 -->
      <g style="fill: #262626" transform="translate(185.449704 404.197812) scale(0.1 -0.1)">
       <defs>
        <path id="ArialMT-34" d="M 2069 0 
L 2069 1097 
L 81 1097 
L 81 1613 
L 2172 4581 
L 2631 4581 
L 2631 1613 
L 3250 1613 
L 3250 1097 
L 2631 1097 
L 2631 0 
L 2069 0 
z
M 2069 1613 
L 2069 3678 
L 634 1613 
L 2069 1613 
z
" transform="scale(0.015625)"/>
       </defs>
       <use xlink:href="#ArialMT-34"/>
       <use xlink:href="#ArialMT-30" transform="translate(55.615234 0)"/>
      </g>
     </g>
    </g>
    <g id="xtick_6">
     <g id="line2d_6">
      <path d="M 224.124744 390.04 
L 224.124744 25.49625 
" clip-path="url(#pfccd3d0f68)" style="fill: none; stroke: #ffffff; stroke-width: 0.8; stroke-linecap: round"/>
     </g>
     <g id="text_6">
      <!-- 50 -->
      <g style="fill: #262626" transform="translate(218.563806 404.197812) scale(0.1 -0.1)">
       <defs>
        <path id="ArialMT-35" d="M 266 1200 
L 856 1250 
Q 922 819 1161 601 
Q 1400 384 1738 384 
Q 2144 384 2425 690 
Q 2706 997 2706 1503 
Q 2706 1984 2436 2262 
Q 2166 2541 1728 2541 
Q 1456 2541 1237 2417 
Q 1019 2294 894 2097 
L 366 2166 
L 809 4519 
L 3088 4519 
L 3088 3981 
L 1259 3981 
L 1013 2750 
Q 1425 3038 1878 3038 
Q 2478 3038 2890 2622 
Q 3303 2206 3303 1553 
Q 3303 931 2941 478 
Q 2500 -78 1738 -78 
Q 1113 -78 717 272 
Q 322 622 266 1200 
z
" transform="scale(0.015625)"/>
       </defs>
       <use xlink:href="#ArialMT-35"/>
       <use xlink:href="#ArialMT-30" transform="translate(55.615234 0)"/>
      </g>
     </g>
    </g>
    <g id="xtick_7">
     <g id="line2d_7">
      <path d="M 257.238846 390.04 
L 257.238846 25.49625 
" clip-path="url(#pfccd3d0f68)" style="fill: none; stroke: #ffffff; stroke-width: 0.8; stroke-linecap: round"/>
     </g>
     <g id="text_7">
      <!-- 60 -->
      <g style="fill: #262626" transform="translate(251.677909 404.197812) scale(0.1 -0.1)">
       <defs>
        <path id="ArialMT-36" d="M 3184 3459 
L 2625 3416 
Q 2550 3747 2413 3897 
Q 2184 4138 1850 4138 
Q 1581 4138 1378 3988 
Q 1113 3794 959 3422 
Q 806 3050 800 2363 
Q 1003 2672 1297 2822 
Q 1591 2972 1913 2972 
Q 2475 2972 2870 2558 
Q 3266 2144 3266 1488 
Q 3266 1056 3080 686 
Q 2894 316 2569 119 
Q 2244 -78 1831 -78 
Q 1128 -78 684 439 
Q 241 956 241 2144 
Q 241 3472 731 4075 
Q 1159 4600 1884 4600 
Q 2425 4600 2770 4297 
Q 3116 3994 3184 3459 
z
M 888 1484 
Q 888 1194 1011 928 
Q 1134 663 1356 523 
Q 1578 384 1822 384 
Q 2178 384 2434 671 
Q 2691 959 2691 1453 
Q 2691 1928 2437 2201 
Q 2184 2475 1800 2475 
Q 1419 2475 1153 2201 
Q 888 1928 888 1484 
z
" transform="scale(0.015625)"/>
       </defs>
       <use xlink:href="#ArialMT-36"/>
       <use xlink:href="#ArialMT-30" transform="translate(55.615234 0)"/>
      </g>
     </g>
    </g>
    <g id="xtick_8">
     <g id="line2d_8">
      <path d="M 290.352949 390.04 
L 290.352949 25.49625 
" clip-path="url(#pfccd3d0f68)" style="fill: none; stroke: #ffffff; stroke-width: 0.8; stroke-linecap: round"/>
     </g>
     <g id="text_8">
      <!-- 70 -->
      <g style="fill: #262626" transform="translate(284.792011 404.197812) scale(0.1 -0.1)">
       <defs>
        <path id="ArialMT-37" d="M 303 3981 
L 303 4522 
L 3269 4522 
L 3269 4084 
Q 2831 3619 2401 2847 
Q 1972 2075 1738 1259 
Q 1569 684 1522 0 
L 944 0 
Q 953 541 1156 1306 
Q 1359 2072 1739 2783 
Q 2119 3494 2547 3981 
L 303 3981 
z
" transform="scale(0.015625)"/>
       </defs>
       <use xlink:href="#ArialMT-37"/>
       <use xlink:href="#ArialMT-30" transform="translate(55.615234 0)"/>
      </g>
     </g>
    </g>
    <g id="xtick_9">
     <g id="line2d_9">
      <path d="M 323.467051 390.04 
L 323.467051 25.49625 
" clip-path="url(#pfccd3d0f68)" style="fill: none; stroke: #ffffff; stroke-width: 0.8; stroke-linecap: round"/>
     </g>
     <g id="text_9">
      <!-- 80 -->
      <g style="fill: #262626" transform="translate(317.906114 404.197812) scale(0.1 -0.1)">
       <defs>
        <path id="ArialMT-38" d="M 1131 2484 
Q 781 2613 612 2850 
Q 444 3088 444 3419 
Q 444 3919 803 4259 
Q 1163 4600 1759 4600 
Q 2359 4600 2725 4251 
Q 3091 3903 3091 3403 
Q 3091 3084 2923 2848 
Q 2756 2613 2416 2484 
Q 2838 2347 3058 2040 
Q 3278 1734 3278 1309 
Q 3278 722 2862 322 
Q 2447 -78 1769 -78 
Q 1091 -78 675 323 
Q 259 725 259 1325 
Q 259 1772 486 2073 
Q 713 2375 1131 2484 
z
M 1019 3438 
Q 1019 3113 1228 2906 
Q 1438 2700 1772 2700 
Q 2097 2700 2305 2904 
Q 2513 3109 2513 3406 
Q 2513 3716 2298 3927 
Q 2084 4138 1766 4138 
Q 1444 4138 1231 3931 
Q 1019 3725 1019 3438 
z
M 838 1322 
Q 838 1081 952 856 
Q 1066 631 1291 507 
Q 1516 384 1775 384 
Q 2178 384 2440 643 
Q 2703 903 2703 1303 
Q 2703 1709 2433 1975 
Q 2163 2241 1756 2241 
Q 1359 2241 1098 1978 
Q 838 1716 838 1322 
z
" transform="scale(0.015625)"/>
       </defs>
       <use xlink:href="#ArialMT-38"/>
       <use xlink:href="#ArialMT-30" transform="translate(55.615234 0)"/>
      </g>
     </g>
    </g>
    <g id="xtick_10">
     <g id="line2d_10">
      <path d="M 356.581154 390.04 
L 356.581154 25.49625 
" clip-path="url(#pfccd3d0f68)" style="fill: none; stroke: #ffffff; stroke-width: 0.8; stroke-linecap: round"/>
     </g>
     <g id="text_10">
      <!-- 90 -->
      <g style="fill: #262626" transform="translate(351.020216 404.197812) scale(0.1 -0.1)">
       <defs>
        <path id="ArialMT-39" d="M 350 1059 
L 891 1109 
Q 959 728 1153 556 
Q 1347 384 1650 384 
Q 1909 384 2104 503 
Q 2300 622 2425 820 
Q 2550 1019 2634 1356 
Q 2719 1694 2719 2044 
Q 2719 2081 2716 2156 
Q 2547 1888 2255 1720 
Q 1963 1553 1622 1553 
Q 1053 1553 659 1965 
Q 266 2378 266 3053 
Q 266 3750 677 4175 
Q 1088 4600 1706 4600 
Q 2153 4600 2523 4359 
Q 2894 4119 3086 3673 
Q 3278 3228 3278 2384 
Q 3278 1506 3087 986 
Q 2897 466 2520 194 
Q 2144 -78 1638 -78 
Q 1100 -78 759 220 
Q 419 519 350 1059 
z
M 2653 3081 
Q 2653 3566 2395 3850 
Q 2138 4134 1775 4134 
Q 1400 4134 1122 3828 
Q 844 3522 844 3034 
Q 844 2597 1108 2323 
Q 1372 2050 1759 2050 
Q 2150 2050 2401 2323 
Q 2653 2597 2653 3081 
z
" transform="scale(0.015625)"/>
       </defs>
       <use xlink:href="#ArialMT-39"/>
       <use xlink:href="#ArialMT-30" transform="translate(55.615234 0)"/>
      </g>
     </g>
    </g>
    <g id="xtick_11">
     <g id="line2d_11">
      <path d="M 389.695256 390.04 
L 389.695256 25.49625 
" clip-path="url(#pfccd3d0f68)" style="fill: none; stroke: #ffffff; stroke-width: 0.8; stroke-linecap: round"/>
     </g>
     <g id="text_11">
      <!-- 100 -->
      <g style="fill: #262626" transform="translate(381.35385 404.197812) scale(0.1 -0.1)">
       <use xlink:href="#ArialMT-31"/>
       <use xlink:href="#ArialMT-30" transform="translate(55.615234 0)"/>
       <use xlink:href="#ArialMT-30" transform="translate(111.230469 0)"/>
      </g>
     </g>
    </g>
    <g id="xtick_12">
     <g id="line2d_12">
      <path d="M 422.809359 390.04 
L 422.809359 25.49625 
" clip-path="url(#pfccd3d0f68)" style="fill: none; stroke: #ffffff; stroke-width: 0.8; stroke-linecap: round"/>
     </g>
     <g id="text_12">
      <!-- 110 -->
      <g style="fill: #262626" transform="translate(414.836703 404.197812) scale(0.1 -0.1)">
       <use xlink:href="#ArialMT-31"/>
       <use xlink:href="#ArialMT-31" transform="translate(48.240234 0)"/>
       <use xlink:href="#ArialMT-30" transform="translate(103.855469 0)"/>
      </g>
     </g>
    </g>
    <g id="xtick_13">
     <g id="line2d_13">
      <path d="M 455.923462 390.04 
L 455.923462 25.49625 
" clip-path="url(#pfccd3d0f68)" style="fill: none; stroke: #ffffff; stroke-width: 0.8; stroke-linecap: round"/>
     </g>
     <g id="text_13">
      <!-- 120 -->
      <g style="fill: #262626" transform="translate(447.582055 404.197812) scale(0.1 -0.1)">
       <use xlink:href="#ArialMT-31"/>
       <use xlink:href="#ArialMT-32" transform="translate(55.615234 0)"/>
       <use xlink:href="#ArialMT-30" transform="translate(111.230469 0)"/>
      </g>
     </g>
    </g>
    <g id="xtick_14">
     <g id="line2d_14">
      <path d="M 489.037564 390.04 
L 489.037564 25.49625 
" clip-path="url(#pfccd3d0f68)" style="fill: none; stroke: #ffffff; stroke-width: 0.8; stroke-linecap: round"/>
     </g>
     <g id="text_14">
      <!-- 130 -->
      <g style="fill: #262626" transform="translate(480.696158 404.197812) scale(0.1 -0.1)">
       <use xlink:href="#ArialMT-31"/>
       <use xlink:href="#ArialMT-33" transform="translate(55.615234 0)"/>
       <use xlink:href="#ArialMT-30" transform="translate(111.230469 0)"/>
      </g>
     </g>
    </g>
    <g id="xtick_15">
     <g id="line2d_15">
      <path d="M 522.151667 390.04 
L 522.151667 25.49625 
" clip-path="url(#pfccd3d0f68)" style="fill: none; stroke: #ffffff; stroke-width: 0.8; stroke-linecap: round"/>
     </g>
     <g id="text_15">
      <!-- 140 -->
      <g style="fill: #262626" transform="translate(513.81026 404.197812) scale(0.1 -0.1)">
       <use xlink:href="#ArialMT-31"/>
       <use xlink:href="#ArialMT-34" transform="translate(55.615234 0)"/>
       <use xlink:href="#ArialMT-30" transform="translate(111.230469 0)"/>
      </g>
     </g>
    </g>
    <g id="xtick_16">
     <g id="line2d_16">
      <path d="M 555.265769 390.04 
L 555.265769 25.49625 
" clip-path="url(#pfccd3d0f68)" style="fill: none; stroke: #ffffff; stroke-width: 0.8; stroke-linecap: round"/>
     </g>
     <g id="text_16">
      <!-- 150 -->
      <g style="fill: #262626" transform="translate(546.924363 404.197812) scale(0.1 -0.1)">
       <use xlink:href="#ArialMT-31"/>
       <use xlink:href="#ArialMT-35" transform="translate(55.615234 0)"/>
       <use xlink:href="#ArialMT-30" transform="translate(111.230469 0)"/>
      </g>
     </g>
    </g>
    <g id="text_17">
     <!-- Episode -->
     <g style="fill: #262626" transform="translate(288.842031 417.343125) scale(0.1 -0.1)">
      <defs>
       <path id="ArialMT-45" d="M 506 0 
L 506 4581 
L 3819 4581 
L 3819 4041 
L 1113 4041 
L 1113 2638 
L 3647 2638 
L 3647 2100 
L 1113 2100 
L 1113 541 
L 3925 541 
L 3925 0 
L 506 0 
z
" transform="scale(0.015625)"/>
       <path id="ArialMT-70" d="M 422 -1272 
L 422 3319 
L 934 3319 
L 934 2888 
Q 1116 3141 1344 3267 
Q 1572 3394 1897 3394 
Q 2322 3394 2647 3175 
Q 2972 2956 3137 2557 
Q 3303 2159 3303 1684 
Q 3303 1175 3120 767 
Q 2938 359 2589 142 
Q 2241 -75 1856 -75 
Q 1575 -75 1351 44 
Q 1128 163 984 344 
L 984 -1272 
L 422 -1272 
z
M 931 1641 
Q 931 1000 1190 694 
Q 1450 388 1819 388 
Q 2194 388 2461 705 
Q 2728 1022 2728 1688 
Q 2728 2322 2467 2637 
Q 2206 2953 1844 2953 
Q 1484 2953 1207 2617 
Q 931 2281 931 1641 
z
" transform="scale(0.015625)"/>
       <path id="ArialMT-69" d="M 425 3934 
L 425 4581 
L 988 4581 
L 988 3934 
L 425 3934 
z
M 425 0 
L 425 3319 
L 988 3319 
L 988 0 
L 425 0 
z
" transform="scale(0.015625)"/>
       <path id="ArialMT-73" d="M 197 991 
L 753 1078 
Q 800 744 1014 566 
Q 1228 388 1613 388 
Q 2000 388 2187 545 
Q 2375 703 2375 916 
Q 2375 1106 2209 1216 
Q 2094 1291 1634 1406 
Q 1016 1563 777 1677 
Q 538 1791 414 1992 
Q 291 2194 291 2438 
Q 291 2659 392 2848 
Q 494 3038 669 3163 
Q 800 3259 1026 3326 
Q 1253 3394 1513 3394 
Q 1903 3394 2198 3281 
Q 2494 3169 2634 2976 
Q 2775 2784 2828 2463 
L 2278 2388 
Q 2241 2644 2061 2787 
Q 1881 2931 1553 2931 
Q 1166 2931 1000 2803 
Q 834 2675 834 2503 
Q 834 2394 903 2306 
Q 972 2216 1119 2156 
Q 1203 2125 1616 2013 
Q 2213 1853 2448 1751 
Q 2684 1650 2818 1456 
Q 2953 1263 2953 975 
Q 2953 694 2789 445 
Q 2625 197 2315 61 
Q 2006 -75 1616 -75 
Q 969 -75 630 194 
Q 291 463 197 991 
z
" transform="scale(0.015625)"/>
       <path id="ArialMT-6f" d="M 213 1659 
Q 213 2581 725 3025 
Q 1153 3394 1769 3394 
Q 2453 3394 2887 2945 
Q 3322 2497 3322 1706 
Q 3322 1066 3130 698 
Q 2938 331 2570 128 
Q 2203 -75 1769 -75 
Q 1072 -75 642 372 
Q 213 819 213 1659 
z
M 791 1659 
Q 791 1022 1069 705 
Q 1347 388 1769 388 
Q 2188 388 2466 706 
Q 2744 1025 2744 1678 
Q 2744 2294 2464 2611 
Q 2184 2928 1769 2928 
Q 1347 2928 1069 2612 
Q 791 2297 791 1659 
z
" transform="scale(0.015625)"/>
       <path id="ArialMT-64" d="M 2575 0 
L 2575 419 
Q 2259 -75 1647 -75 
Q 1250 -75 917 144 
Q 584 363 401 755 
Q 219 1147 219 1656 
Q 219 2153 384 2558 
Q 550 2963 881 3178 
Q 1213 3394 1622 3394 
Q 1922 3394 2156 3267 
Q 2391 3141 2538 2938 
L 2538 4581 
L 3097 4581 
L 3097 0 
L 2575 0 
z
M 797 1656 
Q 797 1019 1065 703 
Q 1334 388 1700 388 
Q 2069 388 2326 689 
Q 2584 991 2584 1609 
Q 2584 2291 2321 2609 
Q 2059 2928 1675 2928 
Q 1300 2928 1048 2622 
Q 797 2316 797 1656 
z
" transform="scale(0.015625)"/>
       <path id="ArialMT-65" d="M 2694 1069 
L 3275 997 
Q 3138 488 2766 206 
Q 2394 -75 1816 -75 
Q 1088 -75 661 373 
Q 234 822 234 1631 
Q 234 2469 665 2931 
Q 1097 3394 1784 3394 
Q 2450 3394 2872 2941 
Q 3294 2488 3294 1666 
Q 3294 1616 3291 1516 
L 816 1516 
Q 847 969 1125 678 
Q 1403 388 1819 388 
Q 2128 388 2347 550 
Q 2566 713 2694 1069 
z
M 847 1978 
L 2700 1978 
Q 2663 2397 2488 2606 
Q 2219 2931 1791 2931 
Q 1403 2931 1139 2672 
Q 875 2413 847 1978 
z
" transform="scale(0.015625)"/>
      </defs>
      <use xlink:href="#ArialMT-45"/>
      <use xlink:href="#ArialMT-70" transform="translate(66.699219 0)"/>
      <use xlink:href="#ArialMT-69" transform="translate(122.314453 0)"/>
      <use xlink:href="#ArialMT-73" transform="translate(144.53125 0)"/>
      <use xlink:href="#ArialMT-6f" transform="translate(194.53125 0)"/>
      <use xlink:href="#ArialMT-64" transform="translate(250.146484 0)"/>
      <use xlink:href="#ArialMT-65" transform="translate(305.761719 0)"/>
     </g>
    </g>
   </g>
   <g id="matplotlib.axis_2">
    <g id="ytick_1">
     <g id="line2d_17">
      <path d="M 48.62 390.04 
L 565.2 390.04 
" clip-path="url(#pfccd3d0f68)" style="fill: none; stroke: #ffffff; stroke-width: 0.8; stroke-linecap: round"/>
     </g>
     <g id="text_18">
      <!-- 0 -->
      <g style="fill: #262626" transform="translate(36.059063 393.618906) scale(0.1 -0.1)">
       <use xlink:href="#ArialMT-30"/>
      </g>
     </g>
    </g>
    <g id="ytick_2">
     <g id="line2d_18">
      <path d="M 48.62 354.987716 
L 565.2 354.987716 
" clip-path="url(#pfccd3d0f68)" style="fill: none; stroke: #ffffff; stroke-width: 0.8; stroke-linecap: round"/>
     </g>
     <g id="text_19">
      <!-- 50 -->
      <g style="fill: #262626" transform="translate(30.498125 358.566623) scale(0.1 -0.1)">
       <use xlink:href="#ArialMT-35"/>
       <use xlink:href="#ArialMT-30" transform="translate(55.615234 0)"/>
      </g>
     </g>
    </g>
    <g id="ytick_3">
     <g id="line2d_19">
      <path d="M 48.62 319.935433 
L 565.2 319.935433 
" clip-path="url(#pfccd3d0f68)" style="fill: none; stroke: #ffffff; stroke-width: 0.8; stroke-linecap: round"/>
     </g>
     <g id="text_20">
      <!-- 100 -->
      <g style="fill: #262626" transform="translate(24.937188 323.514339) scale(0.1 -0.1)">
       <use xlink:href="#ArialMT-31"/>
       <use xlink:href="#ArialMT-30" transform="translate(55.615234 0)"/>
       <use xlink:href="#ArialMT-30" transform="translate(111.230469 0)"/>
      </g>
     </g>
    </g>
    <g id="ytick_4">
     <g id="line2d_20">
      <path d="M 48.62 284.883149 
L 565.2 284.883149 
" clip-path="url(#pfccd3d0f68)" style="fill: none; stroke: #ffffff; stroke-width: 0.8; stroke-linecap: round"/>
     </g>
     <g id="text_21">
      <!-- 150 -->
      <g style="fill: #262626" transform="translate(24.937188 288.462055) scale(0.1 -0.1)">
       <use xlink:href="#ArialMT-31"/>
       <use xlink:href="#ArialMT-35" transform="translate(55.615234 0)"/>
       <use xlink:href="#ArialMT-30" transform="translate(111.230469 0)"/>
      </g>
     </g>
    </g>
    <g id="ytick_5">
     <g id="line2d_21">
      <path d="M 48.62 249.830865 
L 565.2 249.830865 
" clip-path="url(#pfccd3d0f68)" style="fill: none; stroke: #ffffff; stroke-width: 0.8; stroke-linecap: round"/>
     </g>
     <g id="text_22">
      <!-- 200 -->
      <g style="fill: #262626" transform="translate(24.937188 253.409772) scale(0.1 -0.1)">
       <use xlink:href="#ArialMT-32"/>
       <use xlink:href="#ArialMT-30" transform="translate(55.615234 0)"/>
       <use xlink:href="#ArialMT-30" transform="translate(111.230469 0)"/>
      </g>
     </g>
    </g>
    <g id="ytick_6">
     <g id="line2d_22">
      <path d="M 48.62 214.778582 
L 565.2 214.778582 
" clip-path="url(#pfccd3d0f68)" style="fill: none; stroke: #ffffff; stroke-width: 0.8; stroke-linecap: round"/>
     </g>
     <g id="text_23">
      <!-- 250 -->
      <g style="fill: #262626" transform="translate(24.937188 218.357488) scale(0.1 -0.1)">
       <use xlink:href="#ArialMT-32"/>
       <use xlink:href="#ArialMT-35" transform="translate(55.615234 0)"/>
       <use xlink:href="#ArialMT-30" transform="translate(111.230469 0)"/>
      </g>
     </g>
    </g>
    <g id="ytick_7">
     <g id="line2d_23">
      <path d="M 48.62 179.726298 
L 565.2 179.726298 
" clip-path="url(#pfccd3d0f68)" style="fill: none; stroke: #ffffff; stroke-width: 0.8; stroke-linecap: round"/>
     </g>
     <g id="text_24">
      <!-- 300 -->
      <g style="fill: #262626" transform="translate(24.937188 183.305204) scale(0.1 -0.1)">
       <use xlink:href="#ArialMT-33"/>
       <use xlink:href="#ArialMT-30" transform="translate(55.615234 0)"/>
       <use xlink:href="#ArialMT-30" transform="translate(111.230469 0)"/>
      </g>
     </g>
    </g>
    <g id="ytick_8">
     <g id="line2d_24">
      <path d="M 48.62 144.674014 
L 565.2 144.674014 
" clip-path="url(#pfccd3d0f68)" style="fill: none; stroke: #ffffff; stroke-width: 0.8; stroke-linecap: round"/>
     </g>
     <g id="text_25">
      <!-- 350 -->
      <g style="fill: #262626" transform="translate(24.937188 148.252921) scale(0.1 -0.1)">
       <use xlink:href="#ArialMT-33"/>
       <use xlink:href="#ArialMT-35" transform="translate(55.615234 0)"/>
       <use xlink:href="#ArialMT-30" transform="translate(111.230469 0)"/>
      </g>
     </g>
    </g>
    <g id="ytick_9">
     <g id="line2d_25">
      <path d="M 48.62 109.621731 
L 565.2 109.621731 
" clip-path="url(#pfccd3d0f68)" style="fill: none; stroke: #ffffff; stroke-width: 0.8; stroke-linecap: round"/>
     </g>
     <g id="text_26">
      <!-- 400 -->
      <g style="fill: #262626" transform="translate(24.937188 113.200637) scale(0.1 -0.1)">
       <use xlink:href="#ArialMT-34"/>
       <use xlink:href="#ArialMT-30" transform="translate(55.615234 0)"/>
       <use xlink:href="#ArialMT-30" transform="translate(111.230469 0)"/>
      </g>
     </g>
    </g>
    <g id="ytick_10">
     <g id="line2d_26">
      <path d="M 48.62 74.569447 
L 565.2 74.569447 
" clip-path="url(#pfccd3d0f68)" style="fill: none; stroke: #ffffff; stroke-width: 0.8; stroke-linecap: round"/>
     </g>
     <g id="text_27">
      <!-- 450 -->
      <g style="fill: #262626" transform="translate(24.937188 78.148353) scale(0.1 -0.1)">
       <use xlink:href="#ArialMT-34"/>
       <use xlink:href="#ArialMT-35" transform="translate(55.615234 0)"/>
       <use xlink:href="#ArialMT-30" transform="translate(111.230469 0)"/>
      </g>
     </g>
    </g>
    <g id="ytick_11">
     <g id="line2d_27">
      <path d="M 48.62 39.517163 
L 565.2 39.517163 
" clip-path="url(#pfccd3d0f68)" style="fill: none; stroke: #ffffff; stroke-width: 0.8; stroke-linecap: round"/>
     </g>
     <g id="text_28">
      <!-- 500 -->
      <g style="fill: #262626" transform="translate(24.937188 43.09607) scale(0.1 -0.1)">
       <use xlink:href="#ArialMT-35"/>
       <use xlink:href="#ArialMT-30" transform="translate(55.615234 0)"/>
       <use xlink:href="#ArialMT-30" transform="translate(111.230469 0)"/>
      </g>
     </g>
    </g>
    <g id="text_29">
     <!-- Reward -->
     <g style="fill: #262626" transform="translate(18.949688 224.99625) rotate(-90) scale(0.1 -0.1)">
      <defs>
       <path id="ArialMT-52" d="M 503 0 
L 503 4581 
L 2534 4581 
Q 3147 4581 3465 4457 
Q 3784 4334 3975 4021 
Q 4166 3709 4166 3331 
Q 4166 2844 3850 2509 
Q 3534 2175 2875 2084 
Q 3116 1969 3241 1856 
Q 3506 1613 3744 1247 
L 4541 0 
L 3778 0 
L 3172 953 
Q 2906 1366 2734 1584 
Q 2563 1803 2427 1890 
Q 2291 1978 2150 2013 
Q 2047 2034 1813 2034 
L 1109 2034 
L 1109 0 
L 503 0 
z
M 1109 2559 
L 2413 2559 
Q 2828 2559 3062 2645 
Q 3297 2731 3419 2920 
Q 3541 3109 3541 3331 
Q 3541 3656 3305 3865 
Q 3069 4075 2559 4075 
L 1109 4075 
L 1109 2559 
z
" transform="scale(0.015625)"/>
       <path id="ArialMT-77" d="M 1034 0 
L 19 3319 
L 600 3319 
L 1128 1403 
L 1325 691 
Q 1338 744 1497 1375 
L 2025 3319 
L 2603 3319 
L 3100 1394 
L 3266 759 
L 3456 1400 
L 4025 3319 
L 4572 3319 
L 3534 0 
L 2950 0 
L 2422 1988 
L 2294 2553 
L 1622 0 
L 1034 0 
z
" transform="scale(0.015625)"/>
       <path id="ArialMT-61" d="M 2588 409 
Q 2275 144 1986 34 
Q 1697 -75 1366 -75 
Q 819 -75 525 192 
Q 231 459 231 875 
Q 231 1119 342 1320 
Q 453 1522 633 1644 
Q 813 1766 1038 1828 
Q 1203 1872 1538 1913 
Q 2219 1994 2541 2106 
Q 2544 2222 2544 2253 
Q 2544 2597 2384 2738 
Q 2169 2928 1744 2928 
Q 1347 2928 1158 2789 
Q 969 2650 878 2297 
L 328 2372 
Q 403 2725 575 2942 
Q 747 3159 1072 3276 
Q 1397 3394 1825 3394 
Q 2250 3394 2515 3294 
Q 2781 3194 2906 3042 
Q 3031 2891 3081 2659 
Q 3109 2516 3109 2141 
L 3109 1391 
Q 3109 606 3145 398 
Q 3181 191 3288 0 
L 2700 0 
Q 2613 175 2588 409 
z
M 2541 1666 
Q 2234 1541 1622 1453 
Q 1275 1403 1131 1340 
Q 988 1278 909 1158 
Q 831 1038 831 891 
Q 831 666 1001 516 
Q 1172 366 1500 366 
Q 1825 366 2078 508 
Q 2331 650 2450 897 
Q 2541 1088 2541 1459 
L 2541 1666 
z
" transform="scale(0.015625)"/>
       <path id="ArialMT-72" d="M 416 0 
L 416 3319 
L 922 3319 
L 922 2816 
Q 1116 3169 1280 3281 
Q 1444 3394 1641 3394 
Q 1925 3394 2219 3213 
L 2025 2691 
Q 1819 2813 1613 2813 
Q 1428 2813 1281 2702 
Q 1134 2591 1072 2394 
Q 978 2094 978 1738 
L 978 0 
L 416 0 
z
" transform="scale(0.015625)"/>
      </defs>
      <use xlink:href="#ArialMT-52"/>
      <use xlink:href="#ArialMT-65" transform="translate(72.216797 0)"/>
      <use xlink:href="#ArialMT-77" transform="translate(127.832031 0)"/>
      <use xlink:href="#ArialMT-61" transform="translate(200.048828 0)"/>
      <use xlink:href="#ArialMT-72" transform="translate(255.664062 0)"/>
      <use xlink:href="#ArialMT-64" transform="translate(288.964844 0)"/>
     </g>
    </g>
   </g>
   <g id="FillBetweenPolyCollection_1">
    <path d="M 58.554231 374.372107 
L 58.554231 374.81344 
L 61.865641 374.071977 
L 65.177051 373.264053 
L 68.488462 372.10609 
L 71.799872 369.334194 
L 75.111282 366.341947 
L 78.422692 359.888417 
L 81.734103 354.341172 
L 85.045513 351.11573 
L 88.356923 338.915948 
L 91.668333 328.911551 
L 94.979744 312.634192 
L 98.291154 300.509844 
L 101.602564 280.730985 
L 104.913974 267.297628 
L 108.225385 242.540403 
L 111.536795 255.185684 
L 114.848205 248.477607 
L 118.159615 237.132234 
L 121.471026 251.395367 
L 124.782436 245.802533 
L 128.093846 253.369756 
L 131.405256 226.319684 
L 134.716667 231.218739 
L 138.028077 231.961815 
L 141.339487 238.043945 
L 144.650897 234.09874 
L 147.962308 240.133842 
L 151.273718 256.495702 
L 154.585128 267.152145 
L 157.896538 226.3795 
L 161.207949 230.536237 
L 164.519359 263.670513 
L 167.830769 259.35217 
L 171.142179 273.061795 
L 174.45359 240.259324 
L 177.765 214.719787 
L 181.07641 185.495183 
L 184.387821 228.292987 
L 187.699231 251.198438 
L 191.010641 285.448514 
L 194.322051 280.156665 
L 197.633462 249.292261 
L 200.944872 240.059103 
L 204.256282 220.176178 
L 207.567692 250.206278 
L 210.879103 252.416268 
L 214.190513 229.40645 
L 217.501923 255.55678 
L 220.813333 238.649753 
L 224.124744 268.606294 
L 227.436154 258.87129 
L 230.747564 237.297891 
L 234.058974 213.279897 
L 237.370385 217.476494 
L 240.681795 227.672081 
L 243.993205 188.559064 
L 247.304615 188.317967 
L 250.616026 214.842219 
L 253.927436 242.694692 
L 257.238846 241.755181 
L 260.550256 240.360561 
L 263.861667 206.71131 
L 267.173077 168.614157 
L 270.484487 133.01497 
L 273.795897 206.244559 
L 277.107308 222.557809 
L 280.418718 248.576138 
L 283.730128 234.215579 
L 287.041538 226.243559 
L 290.352949 216.58021 
L 293.664359 219.890995 
L 296.975769 250.311655 
L 300.287179 245.203778 
L 303.59859 213.387459 
L 306.91 228.492823 
L 310.22141 236.313717 
L 313.532821 232.020567 
L 316.844231 242.329044 
L 320.155641 260.949558 
L 323.467051 286.732287 
L 326.778462 267.492957 
L 330.089872 246.034469 
L 333.401282 240.406627 
L 336.712692 259.577802 
L 340.024103 227.365149 
L 343.335513 188.219419 
L 346.646923 192.172099 
L 349.958333 178.334133 
L 353.269744 185.217541 
L 356.581154 228.506148 
L 359.892564 221.207019 
L 363.203974 226.357516 
L 366.515385 214.503395 
L 369.826795 200.672986 
L 373.138205 186.746168 
L 376.449615 182.585694 
L 379.761026 176.490699 
L 383.072436 173.592148 
L 386.383846 170.757958 
L 389.695256 172.999047 
L 393.006667 209.183727 
L 396.318077 199.141691 
L 399.629487 189.359003 
L 402.940897 182.509259 
L 406.252308 199.919412 
L 409.563718 164.82168 
L 412.875128 156.876509 
L 416.186538 171.837007 
L 419.497949 158.945973 
L 422.809359 184.518714 
L 426.120769 177.664729 
L 429.432179 167.364722 
L 432.74359 198.943899 
L 436.055 202.404125 
L 439.36641 220.436606 
L 442.677821 227.286488 
L 445.989231 230.375239 
L 449.300641 219.810891 
L 452.612051 195.068413 
L 455.923462 180.105151 
L 459.234872 165.571189 
L 462.546282 137.434153 
L 465.857692 124.087225 
L 469.169103 125.735096 
L 472.480513 114.699386 
L 475.791923 125.999905 
L 479.103333 73.761147 
L 482.414744 92.335553 
L 485.726154 103.225345 
L 489.037564 111.456586 
L 492.348974 142.957121 
L 495.660385 121.031581 
L 498.971795 107.063682 
L 502.283205 108.572147 
L 505.594615 116.537265 
L 508.906026 114.264653 
L 512.217436 135.080529 
L 515.528846 104.367102 
L 518.840256 112.696868 
L 522.151667 100.17995 
L 525.463077 84.040649 
L 528.774487 94.987672 
L 532.085897 95.432005 
L 535.397308 85.957558 
L 538.708718 120.918135 
L 542.020128 119.551638 
L 545.331538 73.569374 
L 548.642949 46.562672 
L 551.954359 143.31354 
L 551.954359 5.731882 
L 551.954359 5.731882 
L 548.642949 37.16866 
L 545.331538 34.137721 
L 542.020128 34.720468 
L 538.708718 35.975883 
L 535.397308 38.921261 
L 532.085897 42.438749 
L 528.774487 36.675711 
L 525.463077 39.712602 
L 522.151667 43.46742 
L 518.840256 19.105166 
L 515.528846 38.707747 
L 512.217436 26.25656 
L 508.906026 38.585889 
L 505.594615 49.777248 
L 502.283205 38.845291 
L 498.971795 41.058696 
L 495.660385 45.068724 
L 492.348974 27.758401 
L 489.037564 38.62872 
L 485.726154 22.218205 
L 482.414744 24.905763 
L 479.103333 35.698563 
L 475.791923 30.593441 
L 472.480513 20.561991 
L 469.169103 14.840256 
L 465.857692 27.693832 
L 462.546282 28.054684 
L 459.234872 26.463203 
L 455.923462 25.257606 
L 452.612051 22.276383 
L 449.300641 27.58392 
L 445.989231 18.18811 
L 442.677821 53.525222 
L 439.36641 54.484023 
L 436.055 26.836607 
L 432.74359 41.459457 
L 429.432179 39.725055 
L 426.120769 35.043429 
L 422.809359 43.181361 
L 419.497949 32.039956 
L 416.186538 30.476201 
L 412.875128 8.018387 
L 409.563718 12.937404 
L 406.252308 42.788544 
L 402.940897 18.152803 
L 399.629487 23.33135 
L 396.318077 31.050829 
L 393.006667 54.154092 
L 389.695256 8.387948 
L 386.383846 0.0783 
L 383.072436 -5.174498 
L 379.761026 -4.231318 
L 376.449615 5.0573 
L 373.138205 5.237285 
L 369.826795 29.937575 
L 366.515385 43.998624 
L 363.203974 44.514773 
L 359.892564 39.718519 
L 356.581154 51.191669 
L 353.269744 19.814167 
L 349.958333 15.678695 
L 346.646923 18.795129 
L 343.335513 26.281858 
L 340.024103 64.300903 
L 336.712692 88.284074 
L 333.401282 75.311325 
L 330.089872 102.521524 
L 326.778462 128.903505 
L 323.467051 89.683996 
L 320.155641 96.379757 
L 316.844231 90.11382 
L 313.532821 115.655661 
L 310.22141 61.814024 
L 306.91 82.513693 
L 303.59859 60.088896 
L 300.287179 93.014936 
L 296.975769 104.666995 
L 293.664359 99.793192 
L 290.352949 82.857424 
L 287.041538 103.650233 
L 283.730128 83.575671 
L 280.418718 88.832451 
L 277.107308 104.94866 
L 273.795897 73.196257 
L 270.484487 95.769723 
L 267.173077 79.372815 
L 263.861667 64.719429 
L 260.550256 113.705444 
L 257.238846 103.768912 
L 253.927436 93.57612 
L 250.616026 124.992687 
L 247.304615 56.373452 
L 243.993205 56.219986 
L 240.681795 83.854935 
L 237.370385 40.961029 
L 234.058974 39.084968 
L 230.747564 51.951991 
L 227.436154 59.790178 
L 224.124744 151.619354 
L 220.813333 113.158301 
L 217.501923 138.145107 
L 214.190513 184.547023 
L 210.879103 156.659234 
L 207.567692 137.101971 
L 204.256282 153.655127 
L 200.944872 89.035879 
L 197.633462 164.214107 
L 194.322051 216.976987 
L 191.010641 222.292319 
L 187.699231 181.789274 
L 184.387821 175.219996 
L 181.07641 118.273466 
L 177.765 164.237607 
L 174.45359 123.37986 
L 171.142179 154.161014 
L 167.830769 162.15359 
L 164.519359 179.051774 
L 161.207949 132.913271 
L 157.896538 166.522754 
L 154.585128 162.759156 
L 151.273718 161.649786 
L 147.962308 150.824765 
L 144.650897 151.979297 
L 141.339487 175.306818 
L 138.028077 146.325542 
L 134.716667 159.013586 
L 131.405256 171.65437 
L 128.093846 157.61225 
L 124.782436 178.671751 
L 121.471026 217.956716 
L 118.159615 175.381841 
L 114.848205 212.33028 
L 111.536795 214.01144 
L 108.225385 222.909745 
L 104.913974 211.758376 
L 101.602564 239.593898 
L 98.291154 249.094119 
L 94.979744 289.373166 
L 91.668333 294.484377 
L 88.356923 324.342784 
L 85.045513 335.67101 
L 81.734103 344.869295 
L 78.422692 350.586731 
L 75.111282 357.081571 
L 71.799872 364.245102 
L 68.488462 369.667583 
L 65.177051 372.572182 
L 61.865641 373.43397 
L 58.554231 374.372107 
z
" clip-path="url(#pfccd3d0f68)" style="fill: #0000ff; fill-opacity: 0.1"/>
   </g>
   <g id="line2d_28">
    <path d="M 58.554231 374.592774 
L 65.177051 372.918118 
L 68.488462 370.886836 
L 71.799872 366.789648 
L 75.111282 361.711759 
L 78.422692 355.237574 
L 81.734103 349.605234 
L 85.045513 343.39337 
L 88.356923 331.629366 
L 91.668333 311.697964 
L 94.979744 301.003679 
L 98.291154 274.801982 
L 101.602564 260.162441 
L 104.913974 239.528002 
L 108.225385 232.725074 
L 111.536795 234.598562 
L 114.848205 230.403943 
L 118.159615 206.257038 
L 121.471026 234.676041 
L 124.782436 212.237142 
L 131.405256 198.987027 
L 134.716667 195.116163 
L 138.028077 189.143678 
L 141.339487 206.675382 
L 144.650897 193.039018 
L 147.962308 195.479304 
L 151.273718 209.072744 
L 154.585128 214.955651 
L 157.896538 196.451127 
L 161.207949 181.724754 
L 164.519359 221.361144 
L 167.830769 210.75288 
L 171.142179 213.611404 
L 174.45359 181.819592 
L 177.765 189.478697 
L 181.07641 151.884325 
L 184.387821 201.756491 
L 187.699231 216.493856 
L 191.010641 253.870416 
L 194.322051 248.566826 
L 200.944872 164.547491 
L 204.256282 186.915653 
L 207.567692 193.654125 
L 210.879103 204.537751 
L 214.190513 206.976736 
L 217.501923 196.850944 
L 220.813333 175.904027 
L 224.124744 210.112824 
L 227.436154 159.330734 
L 230.747564 144.624941 
L 234.058974 126.182433 
L 237.370385 129.218762 
L 240.681795 155.763508 
L 243.993205 122.389525 
L 247.304615 122.34571 
L 250.616026 169.917453 
L 253.927436 168.135406 
L 257.238846 172.762047 
L 260.550256 177.033002 
L 263.861667 135.71537 
L 267.173077 123.993486 
L 270.484487 114.392347 
L 273.795897 139.720408 
L 277.107308 163.753234 
L 280.418718 168.704295 
L 283.730128 158.895625 
L 287.041538 164.946896 
L 290.352949 149.718817 
L 293.664359 159.842094 
L 296.975769 177.489325 
L 300.287179 169.109357 
L 303.59859 136.738177 
L 306.91 155.503258 
L 310.22141 149.06387 
L 313.532821 173.838114 
L 316.844231 166.221432 
L 320.155641 178.664657 
L 323.467051 188.208142 
L 326.778462 198.198231 
L 330.089872 174.277997 
L 333.401282 157.858976 
L 336.712692 173.930938 
L 340.024103 145.833026 
L 343.335513 107.250639 
L 346.646923 105.483614 
L 349.958333 97.006414 
L 353.269744 102.515854 
L 356.581154 139.848908 
L 359.892564 130.462769 
L 363.203974 135.436144 
L 366.515385 129.25101 
L 369.826795 115.305281 
L 373.138205 95.991726 
L 376.449615 93.821497 
L 379.761026 86.12969 
L 383.072436 84.208825 
L 386.383846 85.418129 
L 389.695256 90.693498 
L 393.006667 131.668909 
L 396.318077 115.09626 
L 399.629487 106.345177 
L 402.940897 100.331031 
L 406.252308 121.353978 
L 409.563718 88.879542 
L 412.875128 82.447448 
L 416.186538 101.156604 
L 419.497949 95.492964 
L 422.809359 113.850038 
L 426.120769 106.354079 
L 429.432179 103.544889 
L 432.74359 120.201678 
L 436.055 114.620366 
L 439.36641 137.460314 
L 442.677821 140.405855 
L 445.989231 124.281674 
L 449.300641 123.697405 
L 452.612051 108.672398 
L 455.923462 102.681379 
L 459.234872 96.017196 
L 462.546282 82.744419 
L 465.857692 75.890529 
L 469.169103 70.287676 
L 472.480513 67.630688 
L 475.791923 78.296673 
L 479.103333 54.729855 
L 482.414744 58.620658 
L 485.726154 62.721775 
L 489.037564 75.042653 
L 492.348974 85.357761 
L 495.660385 83.050152 
L 498.971795 74.061189 
L 502.283205 73.708719 
L 505.594615 83.157257 
L 508.906026 76.425271 
L 512.217436 80.668544 
L 515.528846 71.537425 
L 518.840256 65.901017 
L 522.151667 71.823685 
L 525.463077 61.876626 
L 528.774487 65.831692 
L 532.085897 68.935377 
L 535.397308 62.43941 
L 538.708718 78.447009 
L 542.020128 77.136053 
L 545.331538 53.853547 
L 548.642949 41.865666 
L 551.954359 74.522711 
L 551.954359 74.522711 
" clip-path="url(#pfccd3d0f68)" style="fill: none; stroke: #0000ff; stroke-width: 1.5; stroke-linecap: round"/>
   </g>
   <g id="line2d_29">
    <path d="M 58.554231 374.231625 
L 61.865641 374.10152 
L 65.177051 372.421615 
L 68.488462 370.175334 
L 78.422692 354.092961 
L 81.734103 345.953273 
L 85.045513 335.859184 
L 88.356923 329.815286 
L 91.668333 300.692938 
L 94.979744 297.695363 
L 98.291154 294.913495 
L 101.602564 248.000357 
L 104.913974 199.355577 
L 108.225385 221.789038 
L 111.536795 212.224772 
L 114.848205 209.709482 
L 118.159615 208.619395 
L 121.471026 251.528134 
L 124.782436 260.014476 
L 128.093846 226.846582 
L 131.405256 223.518284 
L 134.716667 253.195885 
L 138.028077 254.816079 
L 141.339487 218.984856 
L 144.650897 235.108906 
L 147.962308 190.534086 
L 151.273718 161.709424 
L 154.585128 147.633985 
L 157.896538 212.475146 
L 161.207949 174.500321 
L 164.519359 218.823076 
L 167.830769 176.805274 
L 171.142179 152.449248 
L 174.45359 119.085847 
L 177.765 148.266873 
L 181.07641 121.89003 
L 187.699231 186.619914 
L 191.010641 229.41291 
L 194.322051 201.027301 
L 197.633462 150.749744 
L 200.944872 64.141393 
L 204.256282 149.160707 
L 207.567692 206.042474 
L 210.879103 162.200156 
L 214.190513 199.679136 
L 217.501923 168.665355 
L 220.813333 148.101349 
L 224.124744 201.709087 
L 227.436154 79.038613 
L 230.747564 66.507422 
L 234.058974 74.131294 
L 237.370385 39.517163 
L 240.681795 121.851083 
L 243.993205 82.28095 
L 247.304615 61.950625 
L 250.616026 157.923778 
L 253.927436 50.646264 
L 257.238846 86.136701 
L 260.550256 89.028514 
L 263.861667 120.926092 
L 267.173077 61.775364 
L 270.484487 83.683041 
L 273.795897 176.22107 
L 277.107308 204.53253 
L 280.418718 213.902275 
L 283.730128 192.291194 
L 287.041538 174.88271 
L 290.352949 125.745781 
L 293.664359 154.839177 
L 296.975769 205.197624 
L 300.287179 178.966832 
L 303.59859 143.201819 
L 306.91 61.249579 
L 310.22141 67.383729 
L 313.532821 130.964677 
L 316.844231 188.547789 
L 320.155641 186.444652 
L 323.467051 110.936191 
L 326.778462 166.087773 
L 330.089872 150.664768 
L 333.401282 108.570162 
L 336.712692 41.970823 
L 340.024103 43.898699 
L 343.335513 68.873451 
L 346.646923 39.517163 
L 349.958333 59.584596 
L 353.269744 117.644809 
L 356.581154 161.052991 
L 359.892564 107.4407 
L 363.203974 39.517163 
L 366.515385 43.197653 
L 369.826795 95.162664 
L 373.138205 87.801684 
L 376.449615 80.090182 
L 379.761026 39.517163 
L 409.563718 39.517163 
L 412.875128 49.419434 
L 416.186538 39.517163 
L 492.348974 39.517163 
L 495.660385 49.244172 
L 498.971795 117.771387 
L 502.283205 39.517163 
L 505.594615 73.517879 
L 508.906026 95.678711 
L 512.217436 39.517163 
L 542.020128 39.517163 
L 545.331538 39.955317 
L 548.642949 39.517163 
L 551.954359 39.517163 
L 551.954359 39.517163 
" clip-path="url(#pfccd3d0f68)" style="fill: none; stroke: #008000; stroke-opacity: 0.2; stroke-linecap: round"/>
   </g>
   <g id="line2d_30">
    <path d="M 58.554231 374.437658 
L 61.865641 373.408444 
L 65.177051 373.071211 
L 68.488462 370.780992 
L 71.799872 368.285329 
L 75.111282 364.620603 
L 78.422692 357.014836 
L 81.734103 351.442428 
L 85.045513 349.12823 
L 88.356923 327.263029 
L 91.668333 312.664588 
L 94.979744 294.542001 
L 98.291154 270.528404 
L 101.602564 250.119531 
L 104.913974 219.729717 
L 108.225385 225.714894 
L 111.536795 215.980374 
L 114.848205 244.689864 
L 118.159615 197.25244 
L 121.471026 210.922831 
L 124.782436 222.116193 
L 128.093846 226.045387 
L 131.405256 205.95709 
L 134.716667 140.234058 
L 138.028077 132.678344 
L 141.339487 240.387368 
L 144.650897 200.699248 
L 147.962308 232.479985 
L 151.273718 238.482689 
L 154.585128 267.643799 
L 157.896538 243.851358 
L 161.207949 266.095125 
L 164.519359 287.471625 
L 167.830769 270.798504 
L 171.142179 282.663171 
L 174.45359 239.782544 
L 177.765 201.890127 
L 181.07641 140.187322 
L 184.387821 232.755396 
L 187.699231 250.199837 
L 191.010641 281.917187 
L 194.322051 292.294203 
L 197.633462 282.13505 
L 200.944872 262.917051 
L 204.256282 238.820325 
L 207.567692 263.010524 
L 210.879103 244.61197 
L 214.190513 221.041256 
L 217.501923 193.801138 
L 220.813333 154.956018 
L 224.124744 212.575295 
L 227.436154 102.698905 
L 230.747564 67.033206 
L 234.058974 106.554656 
L 237.370385 139.906904 
L 240.681795 75.708646 
L 243.993205 79.564398 
L 247.304615 161.148588 
L 250.616026 198.438825 
L 253.927436 249.012979 
L 257.238846 267.392059 
L 260.550256 250.765593 
L 263.861667 221.134729 
L 267.173077 171.058824 
L 270.484487 124.34369 
L 273.795897 75.358123 
L 277.107308 114.840626 
L 280.418718 192.918703 
L 283.730128 99.807091 
L 287.041538 161.207008 
L 290.352949 87.451161 
L 293.664359 109.358839 
L 296.975769 175.812126 
L 300.287179 121.364246 
L 303.59859 84.208825 
L 306.91 158.440002 
L 310.22141 56.42989 
L 313.532821 165.160127 
L 316.844231 175.05266 
L 320.155641 181.537333 
L 323.467051 222.328304 
L 326.778462 176.730921 
L 330.089872 195.04145 
L 336.712692 248.797745 
L 340.024103 186.290635 
L 343.335513 106.739654 
L 346.646923 69.92502 
L 349.958333 39.517163 
L 353.269744 46.965774 
L 356.581154 177.062325 
L 359.892564 193.51353 
L 363.203974 209.170216 
L 366.515385 191.644075 
L 369.826795 122.707917 
L 373.138205 39.517163 
L 389.695256 39.517163 
L 393.006667 80.703597 
L 396.318077 39.517163 
L 399.629487 73.079725 
L 402.940897 111.374345 
L 406.252308 167.426133 
L 409.563718 90.255344 
L 412.875128 48.98128 
L 416.186538 138.014081 
L 419.497949 120.137416 
L 422.809359 170.472495 
L 426.120769 123.486856 
L 429.432179 100.897607 
L 432.74359 99.106046 
L 436.055 39.517163 
L 439.36641 76.847846 
L 442.677821 108.764897 
L 445.989231 39.517163 
L 472.480513 39.517163 
L 475.791923 143.505605 
L 479.103333 39.517163 
L 482.414744 39.517163 
L 485.726154 46.790512 
L 489.037564 81.317012 
L 492.348974 39.517163 
L 495.660385 81.317012 
L 498.971795 39.517163 
L 502.283205 76.98416 
L 505.594615 78.775721 
L 508.906026 39.517163 
L 518.840256 39.517163 
L 522.151667 87.421951 
L 525.463077 44.950267 
L 528.774487 92.007958 
L 532.085897 108.500058 
L 535.397308 44.687375 
L 538.708718 145.445165 
L 542.020128 123.486856 
L 545.331538 91.394543 
L 548.642949 51.259678 
L 551.954359 212.09124 
L 551.954359 212.09124 
" clip-path="url(#pfccd3d0f68)" style="fill: none; stroke: #008000; stroke-opacity: 0.2; stroke-linecap: round"/>
   </g>
   <g id="line2d_31">
    <path d="M 58.554231 374.771463 
L 61.865641 374.00721 
L 65.177051 372.621024 
L 68.488462 369.144491 
L 71.799872 362.817217 
L 75.111282 353.623014 
L 78.422692 346.793527 
L 81.734103 342.302758 
L 85.045513 332.325653 
L 88.356923 321.65115 
L 91.668333 286.150424 
L 94.979744 285.613405 
L 98.291154 228.145186 
L 101.602564 234.758383 
L 104.913974 242.985361 
L 108.225385 237.781643 
L 111.536795 228.317526 
L 114.848205 210.221785 
L 118.159615 155.04949 
L 121.471026 228.145186 
L 124.782436 207.918349 
L 128.093846 247.89268 
L 131.405256 185.276243 
L 134.716667 187.858428 
L 138.028077 153.787608 
L 141.339487 150.703007 
L 144.650897 114.840626 
L 147.962308 113.750111 
L 151.273718 189.961565 
L 154.585128 155.423381 
L 157.896538 195.499826 
L 161.207949 197.452739 
L 164.519359 172.843304 
L 167.830769 159.395974 
L 171.142179 159.714631 
L 174.45359 179.79003 
L 177.765 225.600974 
L 181.07641 210.722532 
L 184.387821 204.413121 
L 187.699231 165.195533 
L 191.010641 204.379738 
L 194.322051 229.921168 
L 197.633462 192.090194 
L 200.944872 236.423367 
L 204.256282 209.520739 
L 207.567692 231.892344 
L 210.879103 266.088448 
L 214.190513 243.026599 
L 217.501923 267.92452 
L 220.813333 276.34868 
L 224.124744 279.640547 
L 227.436154 285.719011 
L 230.747564 280.267932 
L 234.058974 291.342784 
L 237.370385 278.798073 
L 240.681795 262.344531 
L 243.993205 232.786692 
L 247.304615 234.144968 
L 250.616026 242.036887 
L 253.927436 245.218723 
L 257.238846 225.434476 
L 260.550256 248.502568 
L 263.861667 213.753977 
L 270.484487 123.11686 
L 273.795897 208.091685 
L 277.107308 249.683277 
L 280.418718 272.050965 
L 283.730128 282.750802 
L 287.041538 271.319439 
L 290.352949 277.113226 
L 293.664359 275.195972 
L 296.975769 281.377921 
L 300.287179 285.331818 
L 303.59859 275.506663 
L 306.91 284.182103 
L 310.22141 296.800925 
L 313.532821 287.067176 
L 316.844231 292.516757 
L 320.155641 298.444757 
L 323.467051 305.213474 
L 326.778462 296.300179 
L 330.089872 280.209511 
L 333.401282 288.280524 
L 336.712692 284.490563 
L 340.024103 272.538649 
L 343.335513 263.115681 
L 346.646923 274.279833 
L 349.958333 256.070172 
L 353.269744 258.068152 
L 356.581154 275.96075 
L 359.892564 272.325287 
L 363.203974 273.220298 
L 366.515385 262.449687 
L 369.826795 274.276023 
L 373.138205 273.605458 
L 376.449615 268.625566 
L 379.761026 266.796171 
L 383.072436 262.975472 
L 386.383846 255.789754 
L 389.695256 253.861878 
L 393.006667 263.851779 
L 396.318077 269.49201 
L 399.629487 265.520935 
L 402.940897 255.955791 
L 406.252308 245.079334 
L 409.563718 235.590875 
L 412.875128 231.121709 
L 416.186538 223.278761 
L 419.497949 207.929905 
L 422.809359 216.781569 
L 426.120769 235.57627 
L 429.432179 211.423577 
L 432.74359 234.583122 
L 436.055 224.161808 
L 439.36641 209.493776 
L 442.677821 207.71805 
L 445.989231 212.675445 
L 449.300641 215.74926 
L 452.612051 185.451504 
L 455.923462 202.393442 
L 459.234872 191.877756 
L 462.546282 169.269033 
L 465.857692 159.536183 
L 469.169103 180.750903 
L 472.480513 160.543139 
L 475.791923 129.426271 
L 479.103333 71.414742 
L 482.414744 125.658151 
L 485.726154 143.534815 
L 489.037564 138.802757 
L 492.348974 174.468456 
L 495.660385 145.452954 
L 498.971795 107.08044 
L 502.283205 134.625693 
L 505.594615 142.746139 
L 508.906026 139.591433 
L 512.217436 174.818978 
L 515.528846 123.029229 
L 518.840256 159.255764 
L 522.151667 80.703597 
L 525.463077 48.280234 
L 528.774487 39.517163 
L 532.085897 40.30584 
L 535.397308 96.389494 
L 538.708718 57.043305 
L 542.020128 49.156541 
L 545.331538 55.991737 
L 548.642949 39.517163 
L 551.954359 39.517163 
L 551.954359 39.517163 
" clip-path="url(#pfccd3d0f68)" style="fill: none; stroke: #008000; stroke-opacity: 0.2; stroke-linecap: round"/>
   </g>
   <g id="line2d_32">
    <path d="M 58.554231 374.75562 
L 65.177051 373.106046 
L 68.488462 371.617283 
L 71.799872 369.602646 
L 75.111282 365.185334 
L 78.422692 358.175805 
L 81.734103 353.641709 
L 85.045513 348.552745 
L 88.356923 337.159163 
L 91.668333 335.558736 
L 94.979744 319.511116 
L 98.291154 300.934678 
L 101.602564 290.595373 
L 104.913974 278.764932 
L 108.225385 229.062387 
L 111.536795 265.821383 
L 114.848205 254.655709 
L 118.159615 221.321675 
L 121.471026 255.824806 
L 124.782436 215.666573 
L 128.093846 214.478134 
L 131.405256 227.096956 
L 134.716667 191.197955 
L 138.028077 196.142451 
L 141.339487 196.659247 
L 144.650897 213.626864 
L 147.962308 202.105833 
L 151.273718 168.08894 
L 154.585128 248.896138 
L 157.896538 161.849633 
L 161.207949 144.829802 
L 164.519359 181.383315 
L 167.830769 178.133012 
L 171.142179 185.626766 
L 174.45359 115.385884 
L 177.765 184.957177 
L 181.07641 165.705385 
L 187.699231 229.376827 
L 191.010641 283.831581 
L 194.322051 249.363502 
L 197.633462 205.606568 
L 200.944872 153.577294 
L 204.256282 157.923778 
L 207.567692 99.261834 
L 214.190513 180.661026 
L 217.501923 249.675077 
L 220.813333 209.42059 
L 224.124744 249.64638 
L 227.436154 273.81882 
L 230.747564 232.818824 
L 234.058974 119.366266 
L 237.370385 148.354504 
L 240.681795 218.229884 
L 243.993205 162.901202 
L 247.304615 81.755165 
L 250.616026 126.914191 
L 253.927436 129.328904 
L 257.238846 105.503087 
L 260.550256 140.46774 
L 263.861667 44.862637 
L 267.173077 136.191362 
L 270.484487 103.925735 
L 273.795897 44.775006 
L 277.107308 87.2759 
L 280.418718 39.517163 
L 283.730128 67.383729 
L 287.041538 131.276253 
L 290.352949 108.842791 
L 293.664359 143.271923 
L 296.975769 55.465953 
L 300.287179 59.234073 
L 303.59859 51.522571 
L 306.91 121.188984 
L 310.22141 144.59612 
L 313.532821 130.964677 
L 316.844231 83.069626 
L 320.155641 39.517163 
L 323.467051 39.517163 
L 326.778462 98.79447 
L 330.089872 58.620658 
L 333.401282 87.538792 
L 336.712692 145.515269 
L 340.024103 152.130591 
L 343.335513 39.517163 
L 346.646923 96.379757 
L 349.958333 87.363531 
L 353.269744 50.383371 
L 356.581154 45.651313 
L 359.892564 39.517163 
L 363.203974 54.940168 
L 366.515385 99.982353 
L 369.826795 39.517163 
L 373.138205 39.517163 
L 376.449615 41.357408 
L 379.761026 39.517163 
L 383.072436 39.517163 
L 386.383846 52.749401 
L 389.695256 51.347309 
L 393.006667 110.478564 
L 396.318077 108.453321 
L 399.629487 46.790512 
L 402.940897 39.517163 
L 406.252308 115.230096 
L 409.563718 39.517163 
L 412.875128 43.197653 
L 416.186538 61.687733 
L 419.497949 70.100281 
L 422.809359 102.961797 
L 426.120769 46.52762 
L 429.432179 39.517163 
L 432.74359 40.130578 
L 436.055 50.032849 
L 439.36641 102.53338 
L 442.677821 73.254986 
L 445.989231 40.743993 
L 449.300641 60.285642 
L 452.612051 39.517163 
L 482.414744 39.517163 
L 485.726154 44.249222 
L 489.037564 76.059169 
L 492.348974 133.76886 
L 498.971795 66.419791 
L 502.283205 77.899414 
L 505.594615 81.229381 
L 508.906026 67.821883 
L 512.217436 109.972254 
L 515.528846 95.250294 
L 518.840256 42.584238 
L 522.151667 111.95855 
L 525.463077 94.899772 
L 528.774487 48.806019 
L 532.085897 71.502372 
L 535.397308 46.439989 
L 538.708718 39.517163 
L 542.020128 39.517163 
L 545.331538 42.408977 
L 548.642949 39.517163 
L 551.954359 41.970823 
L 551.954359 41.970823 
" clip-path="url(#pfccd3d0f68)" style="fill: none; stroke: #008000; stroke-opacity: 0.2; stroke-linecap: round"/>
   </g>
   <g id="line2d_33">
    <path d="M 58.554231 374.767502 
L 61.865641 373.331745 
L 65.177051 373.370692 
L 68.488462 372.716083 
L 71.799872 368.408535 
L 75.111282 365.70996 
L 81.734103 354.686 
L 85.045513 351.101037 
L 88.356923 342.258203 
L 91.668333 323.423135 
L 94.979744 307.656512 
L 98.291154 279.488145 
L 101.602564 277.338562 
L 104.913974 256.804425 
L 108.225385 249.277408 
L 111.536795 250.648752 
L 114.848205 232.742877 
L 118.159615 249.042189 
L 121.471026 226.95925 
L 124.782436 155.470118 
L 128.093846 112.192232 
L 131.405256 153.086562 
L 134.716667 203.094487 
L 138.028077 208.293909 
L 141.339487 226.642432 
L 144.650897 200.919448 
L 147.962308 238.526504 
L 151.273718 287.121103 
L 154.585128 255.180951 
L 157.896538 168.579672 
L 161.207949 125.745781 
L 164.519359 246.284399 
L 167.830769 268.631636 
L 171.142179 287.603206 
L 174.45359 255.053656 
L 177.765 186.678334 
L 181.07641 120.916356 
L 184.387821 219.335379 
L 187.699231 251.077169 
L 191.010641 269.810667 
L 194.322051 270.227956 
L 197.633462 203.184365 
L 200.944872 105.678349 
L 204.256282 179.152715 
L 207.567692 168.063447 
L 210.879103 210.372009 
L 214.190513 190.475665 
L 217.501923 104.188627 
L 220.813333 90.693498 
L 224.124744 106.992809 
L 227.436154 55.378322 
L 230.747564 76.497323 
L 234.058974 39.517163 
L 237.370385 39.517163 
L 240.681795 100.683398 
L 243.993205 54.414384 
L 247.304615 72.729202 
L 250.616026 124.273585 
L 253.927436 166.470162 
L 257.238846 179.34391 
L 260.550256 156.400597 
L 263.861667 77.899414 
L 267.173077 82.36858 
L 270.484487 136.892407 
L 273.795897 194.156155 
L 277.107308 162.433838 
L 280.418718 125.132366 
L 283.730128 152.245308 
L 287.041538 86.04907 
L 290.352949 149.441125 
L 293.664359 116.544557 
L 296.975769 169.593002 
L 300.287179 200.649815 
L 303.59859 129.25101 
L 306.91 152.455621 
L 310.22141 180.108687 
L 313.532821 155.033912 
L 316.844231 91.920328 
L 320.155641 187.37938 
L 323.467051 263.045576 
L 326.778462 253.077814 
L 330.089872 186.853596 
L 333.401282 83.069626 
L 336.712692 148.880288 
L 340.024103 74.306555 
L 343.335513 58.007243 
L 346.646923 47.316297 
L 349.958333 42.496608 
L 353.269744 39.517163 
L 359.892564 39.517163 
L 363.203974 100.332876 
L 366.515385 48.98128 
L 369.826795 44.862637 
L 373.138205 39.517163 
L 376.449615 39.517163 
L 379.761026 45.30079 
L 383.072436 39.517163 
L 386.383846 39.517163 
L 389.695256 69.223974 
L 393.006667 163.793442 
L 396.318077 118.501643 
L 399.629487 106.817548 
L 402.940897 55.290691 
L 406.252308 39.517163 
L 412.875128 39.517163 
L 416.186538 43.285284 
L 419.497949 39.780056 
L 422.809359 39.517163 
L 426.120769 86.662485 
L 429.432179 126.368933 
L 432.74359 187.671482 
L 436.055 219.872847 
L 439.36641 258.909407 
L 442.677821 272.774178 
L 445.989231 288.954607 
L 449.300641 263.417798 
L 452.612051 239.358996 
L 455.923462 192.461961 
L 459.234872 169.656733 
L 462.546282 125.901569 
L 465.857692 101.364971 
L 469.169103 52.135986 
L 472.480513 59.058812 
L 475.791923 39.517163 
L 479.103333 83.683041 
L 482.414744 48.893649 
L 485.726154 39.517163 
L 512.217436 39.517163 
L 515.528846 60.373272 
L 518.840256 48.630757 
L 522.151667 39.517163 
L 525.463077 81.735692 
L 528.774487 109.310155 
L 532.085897 84.85145 
L 535.397308 85.163026 
L 538.708718 110.712246 
L 542.020128 134.002541 
L 545.331538 39.517163 
L 551.954359 39.517163 
L 551.954359 39.517163 
" clip-path="url(#pfccd3d0f68)" style="fill: none; stroke: #008000; stroke-opacity: 0.2; stroke-linecap: round"/>
   </g>
   <g id="line2d_34">
    <path d="M 0 0 
" clip-path="url(#pfccd3d0f68)" style="fill: none; stroke: #ff0000; stroke-linecap: round"/>
   </g>
   <g id="line2d_35">
    <path d="M 58.554231 39.517163 
L 61.865641 39.861038 
L 65.177051 43.567686 
L 68.488462 58.721673 
L 71.799872 79.592736 
L 75.111282 111.85118 
L 81.734103 165.608398 
L 85.045513 189.908324 
L 88.356923 206.502054 
L 91.668333 219.114087 
L 94.979744 234.336587 
L 98.291154 238.0819 
L 101.602564 250.715536 
L 104.913974 262.489913 
L 108.225385 260.778564 
L 111.536795 262.58947 
L 114.848205 269.820621 
L 118.159615 272.682224 
L 121.471026 279.660228 
L 124.782436 272.269955 
L 128.093846 276.53705 
L 131.405256 282.9706 
L 134.716667 281.71463 
L 138.028077 282.426088 
L 141.339487 284.355383 
L 144.650897 294.224919 
L 151.273718 290.515931 
L 154.585128 287.0541 
L 157.896538 288.090479 
L 161.207949 290.596512 
L 164.519359 293.628932 
L 167.830769 292.540935 
L 171.142179 286.972559 
L 174.45359 293.460849 
L 177.765 303.640808 
L 181.07641 305.914752 
L 184.387821 311.431855 
L 187.699231 311.449859 
L 191.010641 306.816049 
L 194.322051 310.280428 
L 197.633462 303.364908 
L 200.944872 318.340652 
L 204.256282 323.991307 
L 207.567692 321.755223 
L 210.879103 312.823267 
L 214.190513 318.710041 
L 217.501923 308.626028 
L 220.813333 313.824641 
L 224.124744 304.71957 
L 227.436154 313.657762 
L 230.747564 320.336427 
L 234.058974 323.131487 
L 237.370385 326.338386 
L 240.681795 321.773479 
L 243.993205 317.939694 
L 247.304615 318.009827 
L 250.616026 311.509742 
L 253.927436 317.572851 
L 257.238846 325.066885 
L 260.550256 322.224769 
L 263.861667 318.839208 
L 267.173077 335.346808 
L 270.484487 328.815933 
L 273.795897 330.687431 
L 277.107308 334.217778 
L 280.418718 327.227178 
L 283.730128 319.082962 
L 287.041538 321.966951 
L 290.352949 333.375201 
L 293.664359 329.34271 
L 296.975769 325.950256 
L 300.287179 336.768955 
L 303.59859 338.041484 
L 306.91 320.614717 
L 310.22141 324.415194 
L 313.532821 335.356417 
L 316.844231 330.823422 
L 320.155641 326.686055 
L 323.467051 332.454835 
L 326.778462 319.565767 
L 330.089872 319.182255 
L 333.401282 328.680885 
L 336.712692 335.298569 
L 340.024103 340.131493 
L 343.335513 338.407822 
L 346.646923 353.204821 
L 349.958333 350.489308 
L 353.269744 339.474389 
L 356.581154 339.99375 
L 359.892564 338.867745 
L 363.203974 334.25488 
L 366.515385 353.832563 
L 369.826795 352.932476 
L 373.138205 347.891809 
L 379.761026 360.925651 
L 383.072436 361.196095 
L 386.383846 357.308015 
L 389.695256 340.154499 
L 393.006667 326.195126 
L 396.318077 321.434559 
L 399.629487 321.798967 
L 402.940897 325.929227 
L 406.252308 334.017294 
L 409.563718 327.73947 
L 412.875128 326.660139 
L 416.186538 335.661199 
L 419.497949 341.396553 
L 422.809359 336.707694 
L 426.120769 351.019714 
L 429.432179 333.0169 
L 432.74359 343.399998 
L 436.055 329.596935 
L 439.36641 339.874858 
L 442.677821 344.061644 
L 445.989231 343.501721 
L 449.300641 346.781986 
L 452.612051 347.307532 
L 455.923462 348.523835 
L 459.234872 359.667446 
L 462.546282 367.376669 
L 465.857692 367.257671 
L 469.169103 367.950082 
L 472.480513 366.307188 
L 475.791923 375.258747 
L 479.103333 362.49959 
L 482.414744 354.958254 
L 485.726154 355.060232 
L 489.037564 368.790914 
L 492.348974 371.045702 
L 495.660385 365.895443 
L 498.971795 359.267767 
L 502.283205 361.806254 
L 505.594615 351.604342 
L 508.906026 345.589619 
L 512.217436 354.801608 
L 515.528846 351.255492 
L 518.840256 353.464963 
L 522.151667 357.024947 
L 525.463077 350.353225 
L 528.774487 346.56202 
L 532.085897 359.119053 
L 535.397308 347.713732 
L 538.708718 364.637288 
L 542.020128 370.755811 
L 545.331538 371.619274 
L 548.642949 370.946606 
L 551.954359 390.04 
L 551.954359 390.04 
" clip-path="url(#pfccd3d0f68)" style="fill: none; stroke: #800080; stroke-linecap: round"/>
   </g>
   <g id="patch_3">
    <path d="M 48.62 390.04 
L 48.62 25.49625 
" style="fill: none; stroke: #ffffff; stroke-width: 0.8; stroke-linejoin: miter; stroke-linecap: square"/>
   </g>
   <g id="patch_4">
    <path d="M 565.2 390.04 
L 565.2 25.49625 
" style="fill: none; stroke: #ffffff; stroke-width: 0.8; stroke-linejoin: miter; stroke-linecap: square"/>
   </g>
   <g id="patch_5">
    <path d="M 48.62 390.04 
L 565.2 390.04 
" style="fill: none; stroke: #ffffff; stroke-width: 0.8; stroke-linejoin: miter; stroke-linecap: square"/>
   </g>
   <g id="patch_6">
    <path d="M 48.62 25.49625 
L 565.2 25.49625 
" style="fill: none; stroke: #ffffff; stroke-width: 0.8; stroke-linejoin: miter; stroke-linecap: square"/>
   </g>
   <g id="text_30">
    <!-- cartpole_GNN_K_mlp -->
    <g style="fill: #262626" transform="translate(248.553437 19.49625) scale(0.12 -0.12)">
     <defs>
      <path id="ArialMT-63" d="M 2588 1216 
L 3141 1144 
Q 3050 572 2676 248 
Q 2303 -75 1759 -75 
Q 1078 -75 664 370 
Q 250 816 250 1647 
Q 250 2184 428 2587 
Q 606 2991 970 3192 
Q 1334 3394 1763 3394 
Q 2303 3394 2647 3120 
Q 2991 2847 3088 2344 
L 2541 2259 
Q 2463 2594 2264 2762 
Q 2066 2931 1784 2931 
Q 1359 2931 1093 2626 
Q 828 2322 828 1663 
Q 828 994 1084 691 
Q 1341 388 1753 388 
Q 2084 388 2306 591 
Q 2528 794 2588 1216 
z
" transform="scale(0.015625)"/>
      <path id="ArialMT-74" d="M 1650 503 
L 1731 6 
Q 1494 -44 1306 -44 
Q 1000 -44 831 53 
Q 663 150 594 308 
Q 525 466 525 972 
L 525 2881 
L 113 2881 
L 113 3319 
L 525 3319 
L 525 4141 
L 1084 4478 
L 1084 3319 
L 1650 3319 
L 1650 2881 
L 1084 2881 
L 1084 941 
Q 1084 700 1114 631 
Q 1144 563 1211 522 
Q 1278 481 1403 481 
Q 1497 481 1650 503 
z
" transform="scale(0.015625)"/>
      <path id="ArialMT-6c" d="M 409 0 
L 409 4581 
L 972 4581 
L 972 0 
L 409 0 
z
" transform="scale(0.015625)"/>
      <path id="ArialMT-5f" d="M -97 -1272 
L -97 -866 
L 3631 -866 
L 3631 -1272 
L -97 -1272 
z
" transform="scale(0.015625)"/>
      <path id="ArialMT-47" d="M 2638 1797 
L 2638 2334 
L 4578 2338 
L 4578 638 
Q 4131 281 3656 101 
Q 3181 -78 2681 -78 
Q 2006 -78 1454 211 
Q 903 500 622 1047 
Q 341 1594 341 2269 
Q 341 2938 620 3517 
Q 900 4097 1425 4378 
Q 1950 4659 2634 4659 
Q 3131 4659 3532 4498 
Q 3934 4338 4162 4050 
Q 4391 3763 4509 3300 
L 3963 3150 
Q 3859 3500 3706 3700 
Q 3553 3900 3268 4020 
Q 2984 4141 2638 4141 
Q 2222 4141 1919 4014 
Q 1616 3888 1430 3681 
Q 1244 3475 1141 3228 
Q 966 2803 966 2306 
Q 966 1694 1177 1281 
Q 1388 869 1791 669 
Q 2194 469 2647 469 
Q 3041 469 3416 620 
Q 3791 772 3984 944 
L 3984 1797 
L 2638 1797 
z
" transform="scale(0.015625)"/>
      <path id="ArialMT-4e" d="M 488 0 
L 488 4581 
L 1109 4581 
L 3516 984 
L 3516 4581 
L 4097 4581 
L 4097 0 
L 3475 0 
L 1069 3600 
L 1069 0 
L 488 0 
z
" transform="scale(0.015625)"/>
      <path id="ArialMT-4b" d="M 469 0 
L 469 4581 
L 1075 4581 
L 1075 2309 
L 3350 4581 
L 4172 4581 
L 2250 2725 
L 4256 0 
L 3456 0 
L 1825 2319 
L 1075 1588 
L 1075 0 
L 469 0 
z
" transform="scale(0.015625)"/>
      <path id="ArialMT-6d" d="M 422 0 
L 422 3319 
L 925 3319 
L 925 2853 
Q 1081 3097 1340 3245 
Q 1600 3394 1931 3394 
Q 2300 3394 2536 3241 
Q 2772 3088 2869 2813 
Q 3263 3394 3894 3394 
Q 4388 3394 4653 3120 
Q 4919 2847 4919 2278 
L 4919 0 
L 4359 0 
L 4359 2091 
Q 4359 2428 4304 2576 
Q 4250 2725 4106 2815 
Q 3963 2906 3769 2906 
Q 3419 2906 3187 2673 
Q 2956 2441 2956 1928 
L 2956 0 
L 2394 0 
L 2394 2156 
Q 2394 2531 2256 2718 
Q 2119 2906 1806 2906 
Q 1569 2906 1367 2781 
Q 1166 2656 1075 2415 
Q 984 2175 984 1722 
L 984 0 
L 422 0 
z
" transform="scale(0.015625)"/>
     </defs>
     <use xlink:href="#ArialMT-63"/>
     <use xlink:href="#ArialMT-61" transform="translate(50 0)"/>
     <use xlink:href="#ArialMT-72" transform="translate(105.615234 0)"/>
     <use xlink:href="#ArialMT-74" transform="translate(138.916016 0)"/>
     <use xlink:href="#ArialMT-70" transform="translate(166.699219 0)"/>
     <use xlink:href="#ArialMT-6f" transform="translate(222.314453 0)"/>
     <use xlink:href="#ArialMT-6c" transform="translate(277.929688 0)"/>
     <use xlink:href="#ArialMT-65" transform="translate(300.146484 0)"/>
     <use xlink:href="#ArialMT-5f" transform="translate(355.761719 0)"/>
     <use xlink:href="#ArialMT-47" transform="translate(411.376953 0)"/>
     <use xlink:href="#ArialMT-4e" transform="translate(489.160156 0)"/>
     <use xlink:href="#ArialMT-4e" transform="translate(561.376953 0)"/>
     <use xlink:href="#ArialMT-5f" transform="translate(633.59375 0)"/>
     <use xlink:href="#ArialMT-4b" transform="translate(689.208984 0)"/>
     <use xlink:href="#ArialMT-5f" transform="translate(755.908203 0)"/>
     <use xlink:href="#ArialMT-6d" transform="translate(811.523438 0)"/>
     <use xlink:href="#ArialMT-6c" transform="translate(894.824219 0)"/>
     <use xlink:href="#ArialMT-70" transform="translate(917.041016 0)"/>
    </g>
   </g>
   <g id="legend_1">
    <g id="patch_7">
     <path d="M 55.62 385.04 
L 209.902813 385.04 
Q 211.902813 385.04 211.902813 383.04 
L 211.902813 312.59625 
Q 211.902813 310.59625 209.902813 310.59625 
L 55.62 310.59625 
Q 53.62 310.59625 53.62 312.59625 
L 53.62 383.04 
Q 53.62 385.04 55.62 385.04 
z
" style="fill: #eaeaf2; opacity: 0.8; stroke: #cccccc; stroke-linejoin: miter"/>
    </g>
    <g id="line2d_36">
     <path d="M 57.62 318.254062 
L 67.62 318.254062 
L 77.62 318.254062 
" style="fill: none; stroke: #0000ff; stroke-width: 1.5; stroke-linecap: round"/>
    </g>
    <g id="text_31">
     <!-- Mean Reward -->
     <g style="fill: #262626" transform="translate(85.62 321.754062) scale(0.1 -0.1)">
      <defs>
       <path id="ArialMT-4d" d="M 475 0 
L 475 4581 
L 1388 4581 
L 2472 1338 
Q 2622 884 2691 659 
Q 2769 909 2934 1394 
L 4031 4581 
L 4847 4581 
L 4847 0 
L 4263 0 
L 4263 3834 
L 2931 0 
L 2384 0 
L 1059 3900 
L 1059 0 
L 475 0 
z
" transform="scale(0.015625)"/>
       <path id="ArialMT-6e" d="M 422 0 
L 422 3319 
L 928 3319 
L 928 2847 
Q 1294 3394 1984 3394 
Q 2284 3394 2536 3286 
Q 2788 3178 2913 3003 
Q 3038 2828 3088 2588 
Q 3119 2431 3119 2041 
L 3119 0 
L 2556 0 
L 2556 2019 
Q 2556 2363 2490 2533 
Q 2425 2703 2258 2804 
Q 2091 2906 1866 2906 
Q 1506 2906 1245 2678 
Q 984 2450 984 1813 
L 984 0 
L 422 0 
z
" transform="scale(0.015625)"/>
       <path id="ArialMT-20" transform="scale(0.015625)"/>
      </defs>
      <use xlink:href="#ArialMT-4d"/>
      <use xlink:href="#ArialMT-65" transform="translate(83.300781 0)"/>
      <use xlink:href="#ArialMT-61" transform="translate(138.916016 0)"/>
      <use xlink:href="#ArialMT-6e" transform="translate(194.53125 0)"/>
      <use xlink:href="#ArialMT-20" transform="translate(250.146484 0)"/>
      <use xlink:href="#ArialMT-52" transform="translate(277.929688 0)"/>
      <use xlink:href="#ArialMT-65" transform="translate(350.146484 0)"/>
      <use xlink:href="#ArialMT-77" transform="translate(405.761719 0)"/>
      <use xlink:href="#ArialMT-61" transform="translate(477.978516 0)"/>
      <use xlink:href="#ArialMT-72" transform="translate(533.59375 0)"/>
      <use xlink:href="#ArialMT-64" transform="translate(566.894531 0)"/>
     </g>
    </g>
    <g id="line2d_37">
     <path d="M 57.62 332.52125 
L 67.62 332.52125 
L 77.62 332.52125 
" style="fill: none; stroke: #008000; stroke-opacity: 0.2; stroke-linecap: round"/>
    </g>
    <g id="text_32">
     <!-- Reward (individual runs) -->
     <g style="fill: #262626" transform="translate(85.62 336.02125) scale(0.1 -0.1)">
      <defs>
       <path id="ArialMT-28" d="M 1497 -1347 
Q 1031 -759 709 28 
Q 388 816 388 1659 
Q 388 2403 628 3084 
Q 909 3875 1497 4659 
L 1900 4659 
Q 1522 4009 1400 3731 
Q 1209 3300 1100 2831 
Q 966 2247 966 1656 
Q 966 153 1900 -1347 
L 1497 -1347 
z
" transform="scale(0.015625)"/>
       <path id="ArialMT-76" d="M 1344 0 
L 81 3319 
L 675 3319 
L 1388 1331 
Q 1503 1009 1600 663 
Q 1675 925 1809 1294 
L 2547 3319 
L 3125 3319 
L 1869 0 
L 1344 0 
z
" transform="scale(0.015625)"/>
       <path id="ArialMT-75" d="M 2597 0 
L 2597 488 
Q 2209 -75 1544 -75 
Q 1250 -75 995 37 
Q 741 150 617 320 
Q 494 491 444 738 
Q 409 903 409 1263 
L 409 3319 
L 972 3319 
L 972 1478 
Q 972 1038 1006 884 
Q 1059 663 1231 536 
Q 1403 409 1656 409 
Q 1909 409 2131 539 
Q 2353 669 2445 892 
Q 2538 1116 2538 1541 
L 2538 3319 
L 3100 3319 
L 3100 0 
L 2597 0 
z
" transform="scale(0.015625)"/>
       <path id="ArialMT-29" d="M 791 -1347 
L 388 -1347 
Q 1322 153 1322 1656 
Q 1322 2244 1188 2822 
Q 1081 3291 891 3722 
Q 769 4003 388 4659 
L 791 4659 
Q 1378 3875 1659 3084 
Q 1900 2403 1900 1659 
Q 1900 816 1576 28 
Q 1253 -759 791 -1347 
z
" transform="scale(0.015625)"/>
      </defs>
      <use xlink:href="#ArialMT-52"/>
      <use xlink:href="#ArialMT-65" transform="translate(72.216797 0)"/>
      <use xlink:href="#ArialMT-77" transform="translate(127.832031 0)"/>
      <use xlink:href="#ArialMT-61" transform="translate(200.048828 0)"/>
      <use xlink:href="#ArialMT-72" transform="translate(255.664062 0)"/>
      <use xlink:href="#ArialMT-64" transform="translate(288.964844 0)"/>
      <use xlink:href="#ArialMT-20" transform="translate(344.580078 0)"/>
      <use xlink:href="#ArialMT-28" transform="translate(372.363281 0)"/>
      <use xlink:href="#ArialMT-69" transform="translate(405.664062 0)"/>
      <use xlink:href="#ArialMT-6e" transform="translate(427.880859 0)"/>
      <use xlink:href="#ArialMT-64" transform="translate(483.496094 0)"/>
      <use xlink:href="#ArialMT-69" transform="translate(539.111328 0)"/>
      <use xlink:href="#ArialMT-76" transform="translate(561.328125 0)"/>
      <use xlink:href="#ArialMT-69" transform="translate(611.328125 0)"/>
      <use xlink:href="#ArialMT-64" transform="translate(633.544922 0)"/>
      <use xlink:href="#ArialMT-75" transform="translate(689.160156 0)"/>
      <use xlink:href="#ArialMT-61" transform="translate(744.775391 0)"/>
      <use xlink:href="#ArialMT-6c" transform="translate(800.390625 0)"/>
      <use xlink:href="#ArialMT-20" transform="translate(822.607422 0)"/>
      <use xlink:href="#ArialMT-72" transform="translate(850.390625 0)"/>
      <use xlink:href="#ArialMT-75" transform="translate(883.691406 0)"/>
      <use xlink:href="#ArialMT-6e" transform="translate(939.306641 0)"/>
      <use xlink:href="#ArialMT-73" transform="translate(994.921875 0)"/>
      <use xlink:href="#ArialMT-29" transform="translate(1044.921875 0)"/>
     </g>
    </g>
    <g id="line2d_38">
     <path d="M 57.62 346.905625 
L 67.62 346.905625 
L 77.62 346.905625 
" style="fill: none; stroke: #ff0000; stroke-linecap: round"/>
    </g>
    <g id="text_33">
     <!-- Noise std (normalized) -->
     <g style="fill: #262626" transform="translate(85.62 350.405625) scale(0.1 -0.1)">
      <defs>
       <path id="ArialMT-7a" d="M 125 0 
L 125 456 
L 2238 2881 
Q 1878 2863 1603 2863 
L 250 2863 
L 250 3319 
L 2963 3319 
L 2963 2947 
L 1166 841 
L 819 456 
Q 1197 484 1528 484 
L 3063 484 
L 3063 0 
L 125 0 
z
" transform="scale(0.015625)"/>
      </defs>
      <use xlink:href="#ArialMT-4e"/>
      <use xlink:href="#ArialMT-6f" transform="translate(72.216797 0)"/>
      <use xlink:href="#ArialMT-69" transform="translate(127.832031 0)"/>
      <use xlink:href="#ArialMT-73" transform="translate(150.048828 0)"/>
      <use xlink:href="#ArialMT-65" transform="translate(200.048828 0)"/>
      <use xlink:href="#ArialMT-20" transform="translate(255.664062 0)"/>
      <use xlink:href="#ArialMT-73" transform="translate(283.447266 0)"/>
      <use xlink:href="#ArialMT-74" transform="translate(333.447266 0)"/>
      <use xlink:href="#ArialMT-64" transform="translate(361.230469 0)"/>
      <use xlink:href="#ArialMT-20" transform="translate(416.845703 0)"/>
      <use xlink:href="#ArialMT-28" transform="translate(444.628906 0)"/>
      <use xlink:href="#ArialMT-6e" transform="translate(477.929688 0)"/>
      <use xlink:href="#ArialMT-6f" transform="translate(533.544922 0)"/>
      <use xlink:href="#ArialMT-72" transform="translate(589.160156 0)"/>
      <use xlink:href="#ArialMT-6d" transform="translate(622.460938 0)"/>
      <use xlink:href="#ArialMT-61" transform="translate(705.761719 0)"/>
      <use xlink:href="#ArialMT-6c" transform="translate(761.376953 0)"/>
      <use xlink:href="#ArialMT-69" transform="translate(783.59375 0)"/>
      <use xlink:href="#ArialMT-7a" transform="translate(805.810547 0)"/>
      <use xlink:href="#ArialMT-65" transform="translate(855.810547 0)"/>
      <use xlink:href="#ArialMT-64" transform="translate(911.425781 0)"/>
      <use xlink:href="#ArialMT-29" transform="translate(967.041016 0)"/>
     </g>
    </g>
    <g id="line2d_39">
     <path d="M 57.62 361.29 
L 67.62 361.29 
L 77.62 361.29 
" style="fill: none; stroke: #800080; stroke-linecap: round"/>
    </g>
    <g id="text_34">
     <!-- Entropy (normalized) -->
     <g style="fill: #262626" transform="translate(85.62 364.79) scale(0.1 -0.1)">
      <defs>
       <path id="ArialMT-79" d="M 397 -1278 
L 334 -750 
Q 519 -800 656 -800 
Q 844 -800 956 -737 
Q 1069 -675 1141 -563 
Q 1194 -478 1313 -144 
Q 1328 -97 1363 -6 
L 103 3319 
L 709 3319 
L 1400 1397 
Q 1534 1031 1641 628 
Q 1738 1016 1872 1384 
L 2581 3319 
L 3144 3319 
L 1881 -56 
Q 1678 -603 1566 -809 
Q 1416 -1088 1222 -1217 
Q 1028 -1347 759 -1347 
Q 597 -1347 397 -1278 
z
" transform="scale(0.015625)"/>
      </defs>
      <use xlink:href="#ArialMT-45"/>
      <use xlink:href="#ArialMT-6e" transform="translate(66.699219 0)"/>
      <use xlink:href="#ArialMT-74" transform="translate(122.314453 0)"/>
      <use xlink:href="#ArialMT-72" transform="translate(150.097656 0)"/>
      <use xlink:href="#ArialMT-6f" transform="translate(183.398438 0)"/>
      <use xlink:href="#ArialMT-70" transform="translate(239.013672 0)"/>
      <use xlink:href="#ArialMT-79" transform="translate(294.628906 0)"/>
      <use xlink:href="#ArialMT-20" transform="translate(344.628906 0)"/>
      <use xlink:href="#ArialMT-28" transform="translate(372.412109 0)"/>
      <use xlink:href="#ArialMT-6e" transform="translate(405.712891 0)"/>
      <use xlink:href="#ArialMT-6f" transform="translate(461.328125 0)"/>
      <use xlink:href="#ArialMT-72" transform="translate(516.943359 0)"/>
      <use xlink:href="#ArialMT-6d" transform="translate(550.244141 0)"/>
      <use xlink:href="#ArialMT-61" transform="translate(633.544922 0)"/>
      <use xlink:href="#ArialMT-6c" transform="translate(689.160156 0)"/>
      <use xlink:href="#ArialMT-69" transform="translate(711.376953 0)"/>
      <use xlink:href="#ArialMT-7a" transform="translate(733.59375 0)"/>
      <use xlink:href="#ArialMT-65" transform="translate(783.59375 0)"/>
      <use xlink:href="#ArialMT-64" transform="translate(839.208984 0)"/>
      <use xlink:href="#ArialMT-29" transform="translate(894.824219 0)"/>
     </g>
    </g>
    <g id="patch_8">
     <path d="M 57.62 379.0525 
L 77.62 379.0525 
L 77.62 372.0525 
L 57.62 372.0525 
z
" style="fill: #0000ff; fill-opacity: 0.1"/>
    </g>
    <g id="text_35">
     <!-- Reward Standard Deviation -->
     <g style="fill: #262626" transform="translate(85.62 379.0525) scale(0.1 -0.1)">
      <defs>
       <path id="ArialMT-53" d="M 288 1472 
L 859 1522 
Q 900 1178 1048 958 
Q 1197 738 1509 602 
Q 1822 466 2213 466 
Q 2559 466 2825 569 
Q 3091 672 3220 851 
Q 3350 1031 3350 1244 
Q 3350 1459 3225 1620 
Q 3100 1781 2813 1891 
Q 2628 1963 1997 2114 
Q 1366 2266 1113 2400 
Q 784 2572 623 2826 
Q 463 3081 463 3397 
Q 463 3744 659 4045 
Q 856 4347 1234 4503 
Q 1613 4659 2075 4659 
Q 2584 4659 2973 4495 
Q 3363 4331 3572 4012 
Q 3781 3694 3797 3291 
L 3216 3247 
Q 3169 3681 2898 3903 
Q 2628 4125 2100 4125 
Q 1550 4125 1298 3923 
Q 1047 3722 1047 3438 
Q 1047 3191 1225 3031 
Q 1400 2872 2139 2705 
Q 2878 2538 3153 2413 
Q 3553 2228 3743 1945 
Q 3934 1663 3934 1294 
Q 3934 928 3725 604 
Q 3516 281 3123 101 
Q 2731 -78 2241 -78 
Q 1619 -78 1198 103 
Q 778 284 539 648 
Q 300 1013 288 1472 
z
" transform="scale(0.015625)"/>
       <path id="ArialMT-44" d="M 494 0 
L 494 4581 
L 2072 4581 
Q 2606 4581 2888 4516 
Q 3281 4425 3559 4188 
Q 3922 3881 4101 3404 
Q 4281 2928 4281 2316 
Q 4281 1794 4159 1391 
Q 4038 988 3847 723 
Q 3656 459 3429 307 
Q 3203 156 2883 78 
Q 2563 0 2147 0 
L 494 0 
z
M 1100 541 
L 2078 541 
Q 2531 541 2789 625 
Q 3047 709 3200 863 
Q 3416 1078 3536 1442 
Q 3656 1806 3656 2325 
Q 3656 3044 3420 3430 
Q 3184 3816 2847 3947 
Q 2603 4041 2063 4041 
L 1100 4041 
L 1100 541 
z
" transform="scale(0.015625)"/>
      </defs>
      <use xlink:href="#ArialMT-52"/>
      <use xlink:href="#ArialMT-65" transform="translate(72.216797 0)"/>
      <use xlink:href="#ArialMT-77" transform="translate(127.832031 0)"/>
      <use xlink:href="#ArialMT-61" transform="translate(200.048828 0)"/>
      <use xlink:href="#ArialMT-72" transform="translate(255.664062 0)"/>
      <use xlink:href="#ArialMT-64" transform="translate(288.964844 0)"/>
      <use xlink:href="#ArialMT-20" transform="translate(344.580078 0)"/>
      <use xlink:href="#ArialMT-53" transform="translate(372.363281 0)"/>
      <use xlink:href="#ArialMT-74" transform="translate(439.0625 0)"/>
      <use xlink:href="#ArialMT-61" transform="translate(466.845703 0)"/>
      <use xlink:href="#ArialMT-6e" transform="translate(522.460938 0)"/>
      <use xlink:href="#ArialMT-64" transform="translate(578.076172 0)"/>
      <use xlink:href="#ArialMT-61" transform="translate(633.691406 0)"/>
      <use xlink:href="#ArialMT-72" transform="translate(689.306641 0)"/>
      <use xlink:href="#ArialMT-64" transform="translate(722.607422 0)"/>
      <use xlink:href="#ArialMT-20" transform="translate(778.222656 0)"/>
      <use xlink:href="#ArialMT-44" transform="translate(806.005859 0)"/>
      <use xlink:href="#ArialMT-65" transform="translate(878.222656 0)"/>
      <use xlink:href="#ArialMT-76" transform="translate(933.837891 0)"/>
      <use xlink:href="#ArialMT-69" transform="translate(983.837891 0)"/>
      <use xlink:href="#ArialMT-61" transform="translate(1006.054688 0)"/>
      <use xlink:href="#ArialMT-74" transform="translate(1061.669922 0)"/>
      <use xlink:href="#ArialMT-69" transform="translate(1089.453125 0)"/>
      <use xlink:href="#ArialMT-6f" transform="translate(1111.669922 0)"/>
      <use xlink:href="#ArialMT-6e" transform="translate(1167.285156 0)"/>
     </g>
    </g>
   </g>
  </g>
 </g>
 <defs>
  <clipPath id="pfccd3d0f68">
   <rect x="48.62" y="25.49625" width="516.58" height="364.54375"/>
  </clipPath>
 </defs>
</svg>
