<?xml version="1.0" encoding="utf-8" standalone="no"?>
<!DOCTYPE svg PUBLIC "-//W3C//DTD SVG 1.1//EN"
  "http://www.w3.org/Graphics/SVG/1.1/DTD/svg11.dtd">
<svg xmlns:xlink="http://www.w3.org/1999/xlink" width="576pt" height="432pt" viewBox="0 0 576 432" xmlns="http://www.w3.org/2000/svg" version="1.1">
 <metadata>
  <rdf:RDF xmlns:dc="http://purl.org/dc/elements/1.1/" xmlns:cc="http://creativecommons.org/ns#" xmlns:rdf="http://www.w3.org/1999/02/22-rdf-syntax-ns#">
   <cc:Work>
    <dc:type rdf:resource="http://purl.org/dc/dcmitype/StillImage"/>
    <dc:date>2025-06-12T21:49:07.889487</dc:date>
    <dc:format>image/svg+xml</dc:format>
    <dc:creator>
     <cc:Agent>
      <dc:title>Matplotlib v3.10.0, https://matplotlib.org/</dc:title>
     </cc:Agent>
    </dc:creator>
   </cc:Work>
  </rdf:RDF>
 </metadata>
 <defs>
  <style type="text/css">*{stroke-linejoin: round; stroke-linecap: butt}</style>
 </defs>
 <g id="figure_1">
  <g id="patch_1">
   <path d="M 0 432 
L 576 432 
L 576 0 
L 0 0 
z
" style="fill: #ffffff"/>
  </g>
  <g id="axes_1">
   <g id="patch_2">
    <path d="M 48.62 390.04 
L 565.2 390.04 
L 565.2 25.49625 
L 48.62 25.49625 
z
" style="fill: #eaeaf2"/>
   </g>
   <g id="matplotlib.axis_1">
    <g id="xtick_1">
     <g id="line2d_1">
      <path d="M 58.554231 390.04 
L 58.554231 25.49625 
" clip-path="url(#pa1f87f786b)" style="fill: none; stroke: #ffffff; stroke-width: 0.8; stroke-linecap: round"/>
     </g>
     <g id="text_1">
      <!-- 0 -->
      <g style="fill: #262626" transform="translate(55.773762 404.197812) scale(0.1 -0.1)">
       <defs>
        <path id="ArialMT-30" d="M 266 2259 
Q 266 3072 433 3567 
Q 600 4063 929 4331 
Q 1259 4600 1759 4600 
Q 2128 4600 2406 4451 
Q 2684 4303 2865 4023 
Q 3047 3744 3150 3342 
Q 3253 2941 3253 2259 
Q 3253 1453 3087 958 
Q 2922 463 2592 192 
Q 2263 -78 1759 -78 
Q 1097 -78 719 397 
Q 266 969 266 2259 
z
M 844 2259 
Q 844 1131 1108 757 
Q 1372 384 1759 384 
Q 2147 384 2411 759 
Q 2675 1134 2675 2259 
Q 2675 3391 2411 3762 
Q 2147 4134 1753 4134 
Q 1366 4134 1134 3806 
Q 844 3388 844 2259 
z
" transform="scale(0.015625)"/>
       </defs>
       <use xlink:href="#ArialMT-30"/>
      </g>
     </g>
    </g>
    <g id="xtick_2">
     <g id="line2d_2">
      <path d="M 91.668333 390.04 
L 91.668333 25.49625 
" clip-path="url(#pa1f87f786b)" style="fill: none; stroke: #ffffff; stroke-width: 0.8; stroke-linecap: round"/>
     </g>
     <g id="text_2">
      <!-- 10 -->
      <g style="fill: #262626" transform="translate(86.107396 404.197812) scale(0.1 -0.1)">
       <defs>
        <path id="ArialMT-31" d="M 2384 0 
L 1822 0 
L 1822 3584 
Q 1619 3391 1289 3197 
Q 959 3003 697 2906 
L 697 3450 
Q 1169 3672 1522 3987 
Q 1875 4303 2022 4600 
L 2384 4600 
L 2384 0 
z
" transform="scale(0.015625)"/>
       </defs>
       <use xlink:href="#ArialMT-31"/>
       <use xlink:href="#ArialMT-30" transform="translate(55.615234 0)"/>
      </g>
     </g>
    </g>
    <g id="xtick_3">
     <g id="line2d_3">
      <path d="M 124.782436 390.04 
L 124.782436 25.49625 
" clip-path="url(#pa1f87f786b)" style="fill: none; stroke: #ffffff; stroke-width: 0.8; stroke-linecap: round"/>
     </g>
     <g id="text_3">
      <!-- 20 -->
      <g style="fill: #262626" transform="translate(119.221498 404.197812) scale(0.1 -0.1)">
       <defs>
        <path id="ArialMT-32" d="M 3222 541 
L 3222 0 
L 194 0 
Q 188 203 259 391 
Q 375 700 629 1000 
Q 884 1300 1366 1694 
Q 2113 2306 2375 2664 
Q 2638 3022 2638 3341 
Q 2638 3675 2398 3904 
Q 2159 4134 1775 4134 
Q 1369 4134 1125 3890 
Q 881 3647 878 3216 
L 300 3275 
Q 359 3922 746 4261 
Q 1134 4600 1788 4600 
Q 2447 4600 2831 4234 
Q 3216 3869 3216 3328 
Q 3216 3053 3103 2787 
Q 2991 2522 2730 2228 
Q 2469 1934 1863 1422 
Q 1356 997 1212 845 
Q 1069 694 975 541 
L 3222 541 
z
" transform="scale(0.015625)"/>
       </defs>
       <use xlink:href="#ArialMT-32"/>
       <use xlink:href="#ArialMT-30" transform="translate(55.615234 0)"/>
      </g>
     </g>
    </g>
    <g id="xtick_4">
     <g id="line2d_4">
      <path d="M 157.896538 390.04 
L 157.896538 25.49625 
" clip-path="url(#pa1f87f786b)" style="fill: none; stroke: #ffffff; stroke-width: 0.8; stroke-linecap: round"/>
     </g>
     <g id="text_4">
      <!-- 30 -->
      <g style="fill: #262626" transform="translate(152.335601 404.197812) scale(0.1 -0.1)">
       <defs>
        <path id="ArialMT-33" d="M 269 1209 
L 831 1284 
Q 928 806 1161 595 
Q 1394 384 1728 384 
Q 2125 384 2398 659 
Q 2672 934 2672 1341 
Q 2672 1728 2419 1979 
Q 2166 2231 1775 2231 
Q 1616 2231 1378 2169 
L 1441 2663 
Q 1497 2656 1531 2656 
Q 1891 2656 2178 2843 
Q 2466 3031 2466 3422 
Q 2466 3731 2256 3934 
Q 2047 4138 1716 4138 
Q 1388 4138 1169 3931 
Q 950 3725 888 3313 
L 325 3413 
Q 428 3978 793 4289 
Q 1159 4600 1703 4600 
Q 2078 4600 2393 4439 
Q 2709 4278 2876 4000 
Q 3044 3722 3044 3409 
Q 3044 3113 2884 2869 
Q 2725 2625 2413 2481 
Q 2819 2388 3044 2092 
Q 3269 1797 3269 1353 
Q 3269 753 2831 336 
Q 2394 -81 1725 -81 
Q 1122 -81 723 278 
Q 325 638 269 1209 
z
" transform="scale(0.015625)"/>
       </defs>
       <use xlink:href="#ArialMT-33"/>
       <use xlink:href="#ArialMT-30" transform="translate(55.615234 0)"/>
      </g>
     </g>
    </g>
    <g id="xtick_5">
     <g id="line2d_5">
      <path d="M 191.010641 390.04 
L 191.010641 25.49625 
" clip-path="url(#pa1f87f786b)" style="fill: none; stroke: #ffffff; stroke-width: 0.8; stroke-linecap: round"/>
     </g>
     <g id="text_5">
      <!-- 40 -->
      <g style="fill: #262626" transform="translate(185.449704 404.197812) scale(0.1 -0.1)">
       <defs>
        <path id="ArialMT-34" d="M 2069 0 
L 2069 1097 
L 81 1097 
L 81 1613 
L 2172 4581 
L 2631 4581 
L 2631 1613 
L 3250 1613 
L 3250 1097 
L 2631 1097 
L 2631 0 
L 2069 0 
z
M 2069 1613 
L 2069 3678 
L 634 1613 
L 2069 1613 
z
" transform="scale(0.015625)"/>
       </defs>
       <use xlink:href="#ArialMT-34"/>
       <use xlink:href="#ArialMT-30" transform="translate(55.615234 0)"/>
      </g>
     </g>
    </g>
    <g id="xtick_6">
     <g id="line2d_6">
      <path d="M 224.124744 390.04 
L 224.124744 25.49625 
" clip-path="url(#pa1f87f786b)" style="fill: none; stroke: #ffffff; stroke-width: 0.8; stroke-linecap: round"/>
     </g>
     <g id="text_6">
      <!-- 50 -->
      <g style="fill: #262626" transform="translate(218.563806 404.197812) scale(0.1 -0.1)">
       <defs>
        <path id="ArialMT-35" d="M 266 1200 
L 856 1250 
Q 922 819 1161 601 
Q 1400 384 1738 384 
Q 2144 384 2425 690 
Q 2706 997 2706 1503 
Q 2706 1984 2436 2262 
Q 2166 2541 1728 2541 
Q 1456 2541 1237 2417 
Q 1019 2294 894 2097 
L 366 2166 
L 809 4519 
L 3088 4519 
L 3088 3981 
L 1259 3981 
L 1013 2750 
Q 1425 3038 1878 3038 
Q 2478 3038 2890 2622 
Q 3303 2206 3303 1553 
Q 3303 931 2941 478 
Q 2500 -78 1738 -78 
Q 1113 -78 717 272 
Q 322 622 266 1200 
z
" transform="scale(0.015625)"/>
       </defs>
       <use xlink:href="#ArialMT-35"/>
       <use xlink:href="#ArialMT-30" transform="translate(55.615234 0)"/>
      </g>
     </g>
    </g>
    <g id="xtick_7">
     <g id="line2d_7">
      <path d="M 257.238846 390.04 
L 257.238846 25.49625 
" clip-path="url(#pa1f87f786b)" style="fill: none; stroke: #ffffff; stroke-width: 0.8; stroke-linecap: round"/>
     </g>
     <g id="text_7">
      <!-- 60 -->
      <g style="fill: #262626" transform="translate(251.677909 404.197812) scale(0.1 -0.1)">
       <defs>
        <path id="ArialMT-36" d="M 3184 3459 
L 2625 3416 
Q 2550 3747 2413 3897 
Q 2184 4138 1850 4138 
Q 1581 4138 1378 3988 
Q 1113 3794 959 3422 
Q 806 3050 800 2363 
Q 1003 2672 1297 2822 
Q 1591 2972 1913 2972 
Q 2475 2972 2870 2558 
Q 3266 2144 3266 1488 
Q 3266 1056 3080 686 
Q 2894 316 2569 119 
Q 2244 -78 1831 -78 
Q 1128 -78 684 439 
Q 241 956 241 2144 
Q 241 3472 731 4075 
Q 1159 4600 1884 4600 
Q 2425 4600 2770 4297 
Q 3116 3994 3184 3459 
z
M 888 1484 
Q 888 1194 1011 928 
Q 1134 663 1356 523 
Q 1578 384 1822 384 
Q 2178 384 2434 671 
Q 2691 959 2691 1453 
Q 2691 1928 2437 2201 
Q 2184 2475 1800 2475 
Q 1419 2475 1153 2201 
Q 888 1928 888 1484 
z
" transform="scale(0.015625)"/>
       </defs>
       <use xlink:href="#ArialMT-36"/>
       <use xlink:href="#ArialMT-30" transform="translate(55.615234 0)"/>
      </g>
     </g>
    </g>
    <g id="xtick_8">
     <g id="line2d_8">
      <path d="M 290.352949 390.04 
L 290.352949 25.49625 
" clip-path="url(#pa1f87f786b)" style="fill: none; stroke: #ffffff; stroke-width: 0.8; stroke-linecap: round"/>
     </g>
     <g id="text_8">
      <!-- 70 -->
      <g style="fill: #262626" transform="translate(284.792011 404.197812) scale(0.1 -0.1)">
       <defs>
        <path id="ArialMT-37" d="M 303 3981 
L 303 4522 
L 3269 4522 
L 3269 4084 
Q 2831 3619 2401 2847 
Q 1972 2075 1738 1259 
Q 1569 684 1522 0 
L 944 0 
Q 953 541 1156 1306 
Q 1359 2072 1739 2783 
Q 2119 3494 2547 3981 
L 303 3981 
z
" transform="scale(0.015625)"/>
       </defs>
       <use xlink:href="#ArialMT-37"/>
       <use xlink:href="#ArialMT-30" transform="translate(55.615234 0)"/>
      </g>
     </g>
    </g>
    <g id="xtick_9">
     <g id="line2d_9">
      <path d="M 323.467051 390.04 
L 323.467051 25.49625 
" clip-path="url(#pa1f87f786b)" style="fill: none; stroke: #ffffff; stroke-width: 0.8; stroke-linecap: round"/>
     </g>
     <g id="text_9">
      <!-- 80 -->
      <g style="fill: #262626" transform="translate(317.906114 404.197812) scale(0.1 -0.1)">
       <defs>
        <path id="ArialMT-38" d="M 1131 2484 
Q 781 2613 612 2850 
Q 444 3088 444 3419 
Q 444 3919 803 4259 
Q 1163 4600 1759 4600 
Q 2359 4600 2725 4251 
Q 3091 3903 3091 3403 
Q 3091 3084 2923 2848 
Q 2756 2613 2416 2484 
Q 2838 2347 3058 2040 
Q 3278 1734 3278 1309 
Q 3278 722 2862 322 
Q 2447 -78 1769 -78 
Q 1091 -78 675 323 
Q 259 725 259 1325 
Q 259 1772 486 2073 
Q 713 2375 1131 2484 
z
M 1019 3438 
Q 1019 3113 1228 2906 
Q 1438 2700 1772 2700 
Q 2097 2700 2305 2904 
Q 2513 3109 2513 3406 
Q 2513 3716 2298 3927 
Q 2084 4138 1766 4138 
Q 1444 4138 1231 3931 
Q 1019 3725 1019 3438 
z
M 838 1322 
Q 838 1081 952 856 
Q 1066 631 1291 507 
Q 1516 384 1775 384 
Q 2178 384 2440 643 
Q 2703 903 2703 1303 
Q 2703 1709 2433 1975 
Q 2163 2241 1756 2241 
Q 1359 2241 1098 1978 
Q 838 1716 838 1322 
z
" transform="scale(0.015625)"/>
       </defs>
       <use xlink:href="#ArialMT-38"/>
       <use xlink:href="#ArialMT-30" transform="translate(55.615234 0)"/>
      </g>
     </g>
    </g>
    <g id="xtick_10">
     <g id="line2d_10">
      <path d="M 356.581154 390.04 
L 356.581154 25.49625 
" clip-path="url(#pa1f87f786b)" style="fill: none; stroke: #ffffff; stroke-width: 0.8; stroke-linecap: round"/>
     </g>
     <g id="text_10">
      <!-- 90 -->
      <g style="fill: #262626" transform="translate(351.020216 404.197812) scale(0.1 -0.1)">
       <defs>
        <path id="ArialMT-39" d="M 350 1059 
L 891 1109 
Q 959 728 1153 556 
Q 1347 384 1650 384 
Q 1909 384 2104 503 
Q 2300 622 2425 820 
Q 2550 1019 2634 1356 
Q 2719 1694 2719 2044 
Q 2719 2081 2716 2156 
Q 2547 1888 2255 1720 
Q 1963 1553 1622 1553 
Q 1053 1553 659 1965 
Q 266 2378 266 3053 
Q 266 3750 677 4175 
Q 1088 4600 1706 4600 
Q 2153 4600 2523 4359 
Q 2894 4119 3086 3673 
Q 3278 3228 3278 2384 
Q 3278 1506 3087 986 
Q 2897 466 2520 194 
Q 2144 -78 1638 -78 
Q 1100 -78 759 220 
Q 419 519 350 1059 
z
M 2653 3081 
Q 2653 3566 2395 3850 
Q 2138 4134 1775 4134 
Q 1400 4134 1122 3828 
Q 844 3522 844 3034 
Q 844 2597 1108 2323 
Q 1372 2050 1759 2050 
Q 2150 2050 2401 2323 
Q 2653 2597 2653 3081 
z
" transform="scale(0.015625)"/>
       </defs>
       <use xlink:href="#ArialMT-39"/>
       <use xlink:href="#ArialMT-30" transform="translate(55.615234 0)"/>
      </g>
     </g>
    </g>
    <g id="xtick_11">
     <g id="line2d_11">
      <path d="M 389.695256 390.04 
L 389.695256 25.49625 
" clip-path="url(#pa1f87f786b)" style="fill: none; stroke: #ffffff; stroke-width: 0.8; stroke-linecap: round"/>
     </g>
     <g id="text_11">
      <!-- 100 -->
      <g style="fill: #262626" transform="translate(381.35385 404.197812) scale(0.1 -0.1)">
       <use xlink:href="#ArialMT-31"/>
       <use xlink:href="#ArialMT-30" transform="translate(55.615234 0)"/>
       <use xlink:href="#ArialMT-30" transform="translate(111.230469 0)"/>
      </g>
     </g>
    </g>
    <g id="xtick_12">
     <g id="line2d_12">
      <path d="M 422.809359 390.04 
L 422.809359 25.49625 
" clip-path="url(#pa1f87f786b)" style="fill: none; stroke: #ffffff; stroke-width: 0.8; stroke-linecap: round"/>
     </g>
     <g id="text_12">
      <!-- 110 -->
      <g style="fill: #262626" transform="translate(414.836703 404.197812) scale(0.1 -0.1)">
       <use xlink:href="#ArialMT-31"/>
       <use xlink:href="#ArialMT-31" transform="translate(48.240234 0)"/>
       <use xlink:href="#ArialMT-30" transform="translate(103.855469 0)"/>
      </g>
     </g>
    </g>
    <g id="xtick_13">
     <g id="line2d_13">
      <path d="M 455.923462 390.04 
L 455.923462 25.49625 
" clip-path="url(#pa1f87f786b)" style="fill: none; stroke: #ffffff; stroke-width: 0.8; stroke-linecap: round"/>
     </g>
     <g id="text_13">
      <!-- 120 -->
      <g style="fill: #262626" transform="translate(447.582055 404.197812) scale(0.1 -0.1)">
       <use xlink:href="#ArialMT-31"/>
       <use xlink:href="#ArialMT-32" transform="translate(55.615234 0)"/>
       <use xlink:href="#ArialMT-30" transform="translate(111.230469 0)"/>
      </g>
     </g>
    </g>
    <g id="xtick_14">
     <g id="line2d_14">
      <path d="M 489.037564 390.04 
L 489.037564 25.49625 
" clip-path="url(#pa1f87f786b)" style="fill: none; stroke: #ffffff; stroke-width: 0.8; stroke-linecap: round"/>
     </g>
     <g id="text_14">
      <!-- 130 -->
      <g style="fill: #262626" transform="translate(480.696158 404.197812) scale(0.1 -0.1)">
       <use xlink:href="#ArialMT-31"/>
       <use xlink:href="#ArialMT-33" transform="translate(55.615234 0)"/>
       <use xlink:href="#ArialMT-30" transform="translate(111.230469 0)"/>
      </g>
     </g>
    </g>
    <g id="xtick_15">
     <g id="line2d_15">
      <path d="M 522.151667 390.04 
L 522.151667 25.49625 
" clip-path="url(#pa1f87f786b)" style="fill: none; stroke: #ffffff; stroke-width: 0.8; stroke-linecap: round"/>
     </g>
     <g id="text_15">
      <!-- 140 -->
      <g style="fill: #262626" transform="translate(513.81026 404.197812) scale(0.1 -0.1)">
       <use xlink:href="#ArialMT-31"/>
       <use xlink:href="#ArialMT-34" transform="translate(55.615234 0)"/>
       <use xlink:href="#ArialMT-30" transform="translate(111.230469 0)"/>
      </g>
     </g>
    </g>
    <g id="xtick_16">
     <g id="line2d_16">
      <path d="M 555.265769 390.04 
L 555.265769 25.49625 
" clip-path="url(#pa1f87f786b)" style="fill: none; stroke: #ffffff; stroke-width: 0.8; stroke-linecap: round"/>
     </g>
     <g id="text_16">
      <!-- 150 -->
      <g style="fill: #262626" transform="translate(546.924363 404.197812) scale(0.1 -0.1)">
       <use xlink:href="#ArialMT-31"/>
       <use xlink:href="#ArialMT-35" transform="translate(55.615234 0)"/>
       <use xlink:href="#ArialMT-30" transform="translate(111.230469 0)"/>
      </g>
     </g>
    </g>
    <g id="text_17">
     <!-- Episode -->
     <g style="fill: #262626" transform="translate(288.842031 417.343125) scale(0.1 -0.1)">
      <defs>
       <path id="ArialMT-45" d="M 506 0 
L 506 4581 
L 3819 4581 
L 3819 4041 
L 1113 4041 
L 1113 2638 
L 3647 2638 
L 3647 2100 
L 1113 2100 
L 1113 541 
L 3925 541 
L 3925 0 
L 506 0 
z
" transform="scale(0.015625)"/>
       <path id="ArialMT-70" d="M 422 -1272 
L 422 3319 
L 934 3319 
L 934 2888 
Q 1116 3141 1344 3267 
Q 1572 3394 1897 3394 
Q 2322 3394 2647 3175 
Q 2972 2956 3137 2557 
Q 3303 2159 3303 1684 
Q 3303 1175 3120 767 
Q 2938 359 2589 142 
Q 2241 -75 1856 -75 
Q 1575 -75 1351 44 
Q 1128 163 984 344 
L 984 -1272 
L 422 -1272 
z
M 931 1641 
Q 931 1000 1190 694 
Q 1450 388 1819 388 
Q 2194 388 2461 705 
Q 2728 1022 2728 1688 
Q 2728 2322 2467 2637 
Q 2206 2953 1844 2953 
Q 1484 2953 1207 2617 
Q 931 2281 931 1641 
z
" transform="scale(0.015625)"/>
       <path id="ArialMT-69" d="M 425 3934 
L 425 4581 
L 988 4581 
L 988 3934 
L 425 3934 
z
M 425 0 
L 425 3319 
L 988 3319 
L 988 0 
L 425 0 
z
" transform="scale(0.015625)"/>
       <path id="ArialMT-73" d="M 197 991 
L 753 1078 
Q 800 744 1014 566 
Q 1228 388 1613 388 
Q 2000 388 2187 545 
Q 2375 703 2375 916 
Q 2375 1106 2209 1216 
Q 2094 1291 1634 1406 
Q 1016 1563 777 1677 
Q 538 1791 414 1992 
Q 291 2194 291 2438 
Q 291 2659 392 2848 
Q 494 3038 669 3163 
Q 800 3259 1026 3326 
Q 1253 3394 1513 3394 
Q 1903 3394 2198 3281 
Q 2494 3169 2634 2976 
Q 2775 2784 2828 2463 
L 2278 2388 
Q 2241 2644 2061 2787 
Q 1881 2931 1553 2931 
Q 1166 2931 1000 2803 
Q 834 2675 834 2503 
Q 834 2394 903 2306 
Q 972 2216 1119 2156 
Q 1203 2125 1616 2013 
Q 2213 1853 2448 1751 
Q 2684 1650 2818 1456 
Q 2953 1263 2953 975 
Q 2953 694 2789 445 
Q 2625 197 2315 61 
Q 2006 -75 1616 -75 
Q 969 -75 630 194 
Q 291 463 197 991 
z
" transform="scale(0.015625)"/>
       <path id="ArialMT-6f" d="M 213 1659 
Q 213 2581 725 3025 
Q 1153 3394 1769 3394 
Q 2453 3394 2887 2945 
Q 3322 2497 3322 1706 
Q 3322 1066 3130 698 
Q 2938 331 2570 128 
Q 2203 -75 1769 -75 
Q 1072 -75 642 372 
Q 213 819 213 1659 
z
M 791 1659 
Q 791 1022 1069 705 
Q 1347 388 1769 388 
Q 2188 388 2466 706 
Q 2744 1025 2744 1678 
Q 2744 2294 2464 2611 
Q 2184 2928 1769 2928 
Q 1347 2928 1069 2612 
Q 791 2297 791 1659 
z
" transform="scale(0.015625)"/>
       <path id="ArialMT-64" d="M 2575 0 
L 2575 419 
Q 2259 -75 1647 -75 
Q 1250 -75 917 144 
Q 584 363 401 755 
Q 219 1147 219 1656 
Q 219 2153 384 2558 
Q 550 2963 881 3178 
Q 1213 3394 1622 3394 
Q 1922 3394 2156 3267 
Q 2391 3141 2538 2938 
L 2538 4581 
L 3097 4581 
L 3097 0 
L 2575 0 
z
M 797 1656 
Q 797 1019 1065 703 
Q 1334 388 1700 388 
Q 2069 388 2326 689 
Q 2584 991 2584 1609 
Q 2584 2291 2321 2609 
Q 2059 2928 1675 2928 
Q 1300 2928 1048 2622 
Q 797 2316 797 1656 
z
" transform="scale(0.015625)"/>
       <path id="ArialMT-65" d="M 2694 1069 
L 3275 997 
Q 3138 488 2766 206 
Q 2394 -75 1816 -75 
Q 1088 -75 661 373 
Q 234 822 234 1631 
Q 234 2469 665 2931 
Q 1097 3394 1784 3394 
Q 2450 3394 2872 2941 
Q 3294 2488 3294 1666 
Q 3294 1616 3291 1516 
L 816 1516 
Q 847 969 1125 678 
Q 1403 388 1819 388 
Q 2128 388 2347 550 
Q 2566 713 2694 1069 
z
M 847 1978 
L 2700 1978 
Q 2663 2397 2488 2606 
Q 2219 2931 1791 2931 
Q 1403 2931 1139 2672 
Q 875 2413 847 1978 
z
" transform="scale(0.015625)"/>
      </defs>
      <use xlink:href="#ArialMT-45"/>
      <use xlink:href="#ArialMT-70" transform="translate(66.699219 0)"/>
      <use xlink:href="#ArialMT-69" transform="translate(122.314453 0)"/>
      <use xlink:href="#ArialMT-73" transform="translate(144.53125 0)"/>
      <use xlink:href="#ArialMT-6f" transform="translate(194.53125 0)"/>
      <use xlink:href="#ArialMT-64" transform="translate(250.146484 0)"/>
      <use xlink:href="#ArialMT-65" transform="translate(305.761719 0)"/>
     </g>
    </g>
   </g>
   <g id="matplotlib.axis_2">
    <g id="ytick_1">
     <g id="line2d_17">
      <path d="M 48.62 390.04 
L 565.2 390.04 
" clip-path="url(#pa1f87f786b)" style="fill: none; stroke: #ffffff; stroke-width: 0.8; stroke-linecap: round"/>
     </g>
     <g id="text_18">
      <!-- 0 -->
      <g style="fill: #262626" transform="translate(36.059063 393.618906) scale(0.1 -0.1)">
       <use xlink:href="#ArialMT-30"/>
      </g>
     </g>
    </g>
    <g id="ytick_2">
     <g id="line2d_18">
      <path d="M 48.62 354.987716 
L 565.2 354.987716 
" clip-path="url(#pa1f87f786b)" style="fill: none; stroke: #ffffff; stroke-width: 0.8; stroke-linecap: round"/>
     </g>
     <g id="text_19">
      <!-- 50 -->
      <g style="fill: #262626" transform="translate(30.498125 358.566623) scale(0.1 -0.1)">
       <use xlink:href="#ArialMT-35"/>
       <use xlink:href="#ArialMT-30" transform="translate(55.615234 0)"/>
      </g>
     </g>
    </g>
    <g id="ytick_3">
     <g id="line2d_19">
      <path d="M 48.62 319.935433 
L 565.2 319.935433 
" clip-path="url(#pa1f87f786b)" style="fill: none; stroke: #ffffff; stroke-width: 0.8; stroke-linecap: round"/>
     </g>
     <g id="text_20">
      <!-- 100 -->
      <g style="fill: #262626" transform="translate(24.937188 323.514339) scale(0.1 -0.1)">
       <use xlink:href="#ArialMT-31"/>
       <use xlink:href="#ArialMT-30" transform="translate(55.615234 0)"/>
       <use xlink:href="#ArialMT-30" transform="translate(111.230469 0)"/>
      </g>
     </g>
    </g>
    <g id="ytick_4">
     <g id="line2d_20">
      <path d="M 48.62 284.883149 
L 565.2 284.883149 
" clip-path="url(#pa1f87f786b)" style="fill: none; stroke: #ffffff; stroke-width: 0.8; stroke-linecap: round"/>
     </g>
     <g id="text_21">
      <!-- 150 -->
      <g style="fill: #262626" transform="translate(24.937188 288.462055) scale(0.1 -0.1)">
       <use xlink:href="#ArialMT-31"/>
       <use xlink:href="#ArialMT-35" transform="translate(55.615234 0)"/>
       <use xlink:href="#ArialMT-30" transform="translate(111.230469 0)"/>
      </g>
     </g>
    </g>
    <g id="ytick_5">
     <g id="line2d_21">
      <path d="M 48.62 249.830865 
L 565.2 249.830865 
" clip-path="url(#pa1f87f786b)" style="fill: none; stroke: #ffffff; stroke-width: 0.8; stroke-linecap: round"/>
     </g>
     <g id="text_22">
      <!-- 200 -->
      <g style="fill: #262626" transform="translate(24.937188 253.409772) scale(0.1 -0.1)">
       <use xlink:href="#ArialMT-32"/>
       <use xlink:href="#ArialMT-30" transform="translate(55.615234 0)"/>
       <use xlink:href="#ArialMT-30" transform="translate(111.230469 0)"/>
      </g>
     </g>
    </g>
    <g id="ytick_6">
     <g id="line2d_22">
      <path d="M 48.62 214.778582 
L 565.2 214.778582 
" clip-path="url(#pa1f87f786b)" style="fill: none; stroke: #ffffff; stroke-width: 0.8; stroke-linecap: round"/>
     </g>
     <g id="text_23">
      <!-- 250 -->
      <g style="fill: #262626" transform="translate(24.937188 218.357488) scale(0.1 -0.1)">
       <use xlink:href="#ArialMT-32"/>
       <use xlink:href="#ArialMT-35" transform="translate(55.615234 0)"/>
       <use xlink:href="#ArialMT-30" transform="translate(111.230469 0)"/>
      </g>
     </g>
    </g>
    <g id="ytick_7">
     <g id="line2d_23">
      <path d="M 48.62 179.726298 
L 565.2 179.726298 
" clip-path="url(#pa1f87f786b)" style="fill: none; stroke: #ffffff; stroke-width: 0.8; stroke-linecap: round"/>
     </g>
     <g id="text_24">
      <!-- 300 -->
      <g style="fill: #262626" transform="translate(24.937188 183.305204) scale(0.1 -0.1)">
       <use xlink:href="#ArialMT-33"/>
       <use xlink:href="#ArialMT-30" transform="translate(55.615234 0)"/>
       <use xlink:href="#ArialMT-30" transform="translate(111.230469 0)"/>
      </g>
     </g>
    </g>
    <g id="ytick_8">
     <g id="line2d_24">
      <path d="M 48.62 144.674014 
L 565.2 144.674014 
" clip-path="url(#pa1f87f786b)" style="fill: none; stroke: #ffffff; stroke-width: 0.8; stroke-linecap: round"/>
     </g>
     <g id="text_25">
      <!-- 350 -->
      <g style="fill: #262626" transform="translate(24.937188 148.252921) scale(0.1 -0.1)">
       <use xlink:href="#ArialMT-33"/>
       <use xlink:href="#ArialMT-35" transform="translate(55.615234 0)"/>
       <use xlink:href="#ArialMT-30" transform="translate(111.230469 0)"/>
      </g>
     </g>
    </g>
    <g id="ytick_9">
     <g id="line2d_25">
      <path d="M 48.62 109.621731 
L 565.2 109.621731 
" clip-path="url(#pa1f87f786b)" style="fill: none; stroke: #ffffff; stroke-width: 0.8; stroke-linecap: round"/>
     </g>
     <g id="text_26">
      <!-- 400 -->
      <g style="fill: #262626" transform="translate(24.937188 113.200637) scale(0.1 -0.1)">
       <use xlink:href="#ArialMT-34"/>
       <use xlink:href="#ArialMT-30" transform="translate(55.615234 0)"/>
       <use xlink:href="#ArialMT-30" transform="translate(111.230469 0)"/>
      </g>
     </g>
    </g>
    <g id="ytick_10">
     <g id="line2d_26">
      <path d="M 48.62 74.569447 
L 565.2 74.569447 
" clip-path="url(#pa1f87f786b)" style="fill: none; stroke: #ffffff; stroke-width: 0.8; stroke-linecap: round"/>
     </g>
     <g id="text_27">
      <!-- 450 -->
      <g style="fill: #262626" transform="translate(24.937188 78.148353) scale(0.1 -0.1)">
       <use xlink:href="#ArialMT-34"/>
       <use xlink:href="#ArialMT-35" transform="translate(55.615234 0)"/>
       <use xlink:href="#ArialMT-30" transform="translate(111.230469 0)"/>
      </g>
     </g>
    </g>
    <g id="ytick_11">
     <g id="line2d_27">
      <path d="M 48.62 39.517163 
L 565.2 39.517163 
" clip-path="url(#pa1f87f786b)" style="fill: none; stroke: #ffffff; stroke-width: 0.8; stroke-linecap: round"/>
     </g>
     <g id="text_28">
      <!-- 500 -->
      <g style="fill: #262626" transform="translate(24.937188 43.09607) scale(0.1 -0.1)">
       <use xlink:href="#ArialMT-35"/>
       <use xlink:href="#ArialMT-30" transform="translate(55.615234 0)"/>
       <use xlink:href="#ArialMT-30" transform="translate(111.230469 0)"/>
      </g>
     </g>
    </g>
    <g id="text_29">
     <!-- Reward -->
     <g style="fill: #262626" transform="translate(18.949688 224.99625) rotate(-90) scale(0.1 -0.1)">
      <defs>
       <path id="ArialMT-52" d="M 503 0 
L 503 4581 
L 2534 4581 
Q 3147 4581 3465 4457 
Q 3784 4334 3975 4021 
Q 4166 3709 4166 3331 
Q 4166 2844 3850 2509 
Q 3534 2175 2875 2084 
Q 3116 1969 3241 1856 
Q 3506 1613 3744 1247 
L 4541 0 
L 3778 0 
L 3172 953 
Q 2906 1366 2734 1584 
Q 2563 1803 2427 1890 
Q 2291 1978 2150 2013 
Q 2047 2034 1813 2034 
L 1109 2034 
L 1109 0 
L 503 0 
z
M 1109 2559 
L 2413 2559 
Q 2828 2559 3062 2645 
Q 3297 2731 3419 2920 
Q 3541 3109 3541 3331 
Q 3541 3656 3305 3865 
Q 3069 4075 2559 4075 
L 1109 4075 
L 1109 2559 
z
" transform="scale(0.015625)"/>
       <path id="ArialMT-77" d="M 1034 0 
L 19 3319 
L 600 3319 
L 1128 1403 
L 1325 691 
Q 1338 744 1497 1375 
L 2025 3319 
L 2603 3319 
L 3100 1394 
L 3266 759 
L 3456 1400 
L 4025 3319 
L 4572 3319 
L 3534 0 
L 2950 0 
L 2422 1988 
L 2294 2553 
L 1622 0 
L 1034 0 
z
" transform="scale(0.015625)"/>
       <path id="ArialMT-61" d="M 2588 409 
Q 2275 144 1986 34 
Q 1697 -75 1366 -75 
Q 819 -75 525 192 
Q 231 459 231 875 
Q 231 1119 342 1320 
Q 453 1522 633 1644 
Q 813 1766 1038 1828 
Q 1203 1872 1538 1913 
Q 2219 1994 2541 2106 
Q 2544 2222 2544 2253 
Q 2544 2597 2384 2738 
Q 2169 2928 1744 2928 
Q 1347 2928 1158 2789 
Q 969 2650 878 2297 
L 328 2372 
Q 403 2725 575 2942 
Q 747 3159 1072 3276 
Q 1397 3394 1825 3394 
Q 2250 3394 2515 3294 
Q 2781 3194 2906 3042 
Q 3031 2891 3081 2659 
Q 3109 2516 3109 2141 
L 3109 1391 
Q 3109 606 3145 398 
Q 3181 191 3288 0 
L 2700 0 
Q 2613 175 2588 409 
z
M 2541 1666 
Q 2234 1541 1622 1453 
Q 1275 1403 1131 1340 
Q 988 1278 909 1158 
Q 831 1038 831 891 
Q 831 666 1001 516 
Q 1172 366 1500 366 
Q 1825 366 2078 508 
Q 2331 650 2450 897 
Q 2541 1088 2541 1459 
L 2541 1666 
z
" transform="scale(0.015625)"/>
       <path id="ArialMT-72" d="M 416 0 
L 416 3319 
L 922 3319 
L 922 2816 
Q 1116 3169 1280 3281 
Q 1444 3394 1641 3394 
Q 1925 3394 2219 3213 
L 2025 2691 
Q 1819 2813 1613 2813 
Q 1428 2813 1281 2702 
Q 1134 2591 1072 2394 
Q 978 2094 978 1738 
L 978 0 
L 416 0 
z
" transform="scale(0.015625)"/>
      </defs>
      <use xlink:href="#ArialMT-52"/>
      <use xlink:href="#ArialMT-65" transform="translate(72.216797 0)"/>
      <use xlink:href="#ArialMT-77" transform="translate(127.832031 0)"/>
      <use xlink:href="#ArialMT-61" transform="translate(200.048828 0)"/>
      <use xlink:href="#ArialMT-72" transform="translate(255.664062 0)"/>
      <use xlink:href="#ArialMT-64" transform="translate(288.964844 0)"/>
     </g>
    </g>
   </g>
   <g id="FillBetweenPolyCollection_1">
    <path d="M 58.554231 373.948551 
L 58.554231 374.978471 
L 61.865641 374.132107 
L 65.177051 373.191805 
L 68.488462 371.654487 
L 71.799872 368.651934 
L 75.111282 364.853335 
L 78.422692 361.411411 
L 81.734103 357.137129 
L 85.045513 353.255275 
L 88.356923 352.037704 
L 91.668333 347.16337 
L 94.979744 344.579226 
L 98.291154 337.7488 
L 101.602564 330.260588 
L 104.913974 327.512373 
L 108.225385 319.864895 
L 111.536795 321.360565 
L 114.848205 306.610429 
L 118.159615 290.71862 
L 121.471026 285.07804 
L 124.782436 277.712298 
L 128.093846 252.373644 
L 131.405256 272.031897 
L 134.716667 273.970421 
L 138.028077 278.646037 
L 141.339487 258.028889 
L 144.650897 259.575844 
L 147.962308 243.527484 
L 151.273718 226.078963 
L 154.585128 196.822353 
L 157.896538 214.93706 
L 161.207949 196.272285 
L 164.519359 210.550053 
L 167.830769 209.602407 
L 171.142179 253.006162 
L 174.45359 233.479815 
L 177.765 251.285829 
L 181.07641 263.7549 
L 184.387821 247.183373 
L 187.699231 254.810756 
L 191.010641 247.595759 
L 194.322051 242.645938 
L 197.633462 237.425805 
L 200.944872 228.695953 
L 204.256282 245.451579 
L 207.567692 263.439124 
L 210.879103 295.173762 
L 214.190513 276.546891 
L 217.501923 264.274693 
L 220.813333 248.965994 
L 224.124744 242.88935 
L 227.436154 231.991775 
L 230.747564 223.932284 
L 234.058974 223.809199 
L 237.370385 236.734791 
L 240.681795 220.68705 
L 243.993205 235.115653 
L 247.304615 231.305143 
L 250.616026 213.661176 
L 253.927436 175.090361 
L 257.238846 172.950793 
L 260.550256 167.996261 
L 263.861667 147.55249 
L 267.173077 149.911315 
L 270.484487 164.777019 
L 273.795897 213.937077 
L 277.107308 227.898902 
L 280.418718 199.350352 
L 283.730128 184.873809 
L 287.041538 213.601976 
L 290.352949 227.751499 
L 293.664359 131.502714 
L 296.975769 148.912867 
L 300.287179 167.742247 
L 303.59859 107.038867 
L 306.91 127.819335 
L 310.22141 107.401161 
L 313.532821 156.72612 
L 316.844231 137.640785 
L 320.155641 175.880732 
L 323.467051 177.709275 
L 326.778462 172.305275 
L 330.089872 187.943206 
L 333.401282 208.178199 
L 336.712692 204.513966 
L 340.024103 211.848507 
L 343.335513 201.920956 
L 346.646923 195.258711 
L 349.958333 190.321947 
L 353.269744 201.009597 
L 356.581154 178.955026 
L 359.892564 169.887632 
L 363.203974 144.427748 
L 366.515385 177.210022 
L 369.826795 190.142734 
L 373.138205 159.751137 
L 376.449615 149.762717 
L 379.761026 145.19376 
L 383.072436 134.257432 
L 386.383846 148.855523 
L 389.695256 173.17897 
L 393.006667 145.480831 
L 396.318077 144.46601 
L 399.629487 154.098674 
L 402.940897 154.064453 
L 406.252308 123.26078 
L 409.563718 111.049349 
L 412.875128 112.853613 
L 416.186538 100.377561 
L 419.497949 102.648457 
L 422.809359 98.673159 
L 426.120769 84.90528 
L 429.432179 94.414978 
L 432.74359 82.83398 
L 436.055 111.39437 
L 439.36641 109.5781 
L 442.677821 103.932328 
L 445.989231 96.00621 
L 449.300641 64.665074 
L 452.612051 117.02647 
L 455.923462 79.17081 
L 459.234872 86.079764 
L 462.546282 79.760996 
L 465.857692 62.273282 
L 469.169103 98.526377 
L 472.480513 71.025408 
L 475.791923 82.249916 
L 479.103333 82.529068 
L 482.414744 69.706779 
L 485.726154 74.807443 
L 489.037564 45.845872 
L 492.348974 64.253116 
L 495.660385 92.142435 
L 498.971795 84.584569 
L 502.283205 82.112503 
L 505.594615 64.366485 
L 508.906026 55.186014 
L 512.217436 47.163628 
L 515.528846 75.949925 
L 518.840256 67.428862 
L 522.151667 72.683797 
L 525.463077 56.590124 
L 528.774487 49.915657 
L 532.085897 53.404728 
L 535.397308 41.462565 
L 538.708718 51.438261 
L 542.020128 68.139805 
L 545.331538 94.6706 
L 548.642949 62.620276 
L 551.954359 60.124002 
L 551.954359 44.708806 
L 551.954359 44.708806 
L 548.642949 34.8165 
L 545.331538 35.399852 
L 542.020128 53.728413 
L 538.708718 38.672587 
L 535.397308 38.868696 
L 532.085897 39.15978 
L 528.774487 38.442578 
L 525.463077 40.110554 
L 522.151667 37.091383 
L 518.840256 43.713356 
L 515.528846 49.423521 
L 512.217436 38.670842 
L 508.906026 35.976403 
L 505.594615 43.130297 
L 502.283205 41.403172 
L 498.971795 43.698217 
L 495.660385 33.791847 
L 492.348974 44.365338 
L 489.037564 39.427761 
L 485.726154 36.054357 
L 482.414744 35.266238 
L 479.103333 36.776438 
L 475.791923 35.236766 
L 472.480513 40.221968 
L 469.169103 52.890915 
L 465.857692 38.072834 
L 462.546282 37.445267 
L 459.234872 33.911209 
L 455.923462 44.905701 
L 452.612051 20.640768 
L 449.300641 38.380068 
L 445.989231 51.099652 
L 442.677821 36.233182 
L 439.36641 50.656789 
L 436.055 47.019359 
L 432.74359 37.636041 
L 429.432179 45.014433 
L 426.120769 42.22078 
L 422.809359 39.116585 
L 419.497949 49.337461 
L 416.186538 52.636558 
L 412.875128 47.798009 
L 409.563718 46.873648 
L 406.252308 35.856331 
L 402.940897 38.362099 
L 399.629487 41.842029 
L 396.318077 46.813519 
L 393.006667 35.088278 
L 389.695256 40.265842 
L 386.383846 57.632802 
L 383.072436 44.925518 
L 379.761026 48.917215 
L 376.449615 59.213612 
L 373.138205 56.152797 
L 369.826795 55.276994 
L 366.515385 44.559541 
L 363.203974 45.099166 
L 359.892564 62.248059 
L 356.581154 27.902445 
L 353.269744 53.248264 
L 349.958333 29.155333 
L 346.646923 55.456816 
L 343.335513 58.520511 
L 340.024103 35.050427 
L 336.712692 66.930136 
L 333.401282 55.417307 
L 330.089872 49.804266 
L 326.778462 43.535718 
L 323.467051 50.276586 
L 320.155641 68.737579 
L 316.844231 41.69937 
L 313.532821 55.674357 
L 310.22141 55.314651 
L 306.91 69.425313 
L 303.59859 56.732408 
L 300.287179 76.212366 
L 296.975769 39.776687 
L 293.664359 66.034532 
L 290.352949 60.576419 
L 287.041538 32.34732 
L 283.730128 74.434413 
L 280.418718 79.189247 
L 277.107308 105.908724 
L 273.795897 77.581007 
L 270.484487 75.384866 
L 267.173077 102.527439 
L 263.861667 90.926886 
L 260.550256 64.366102 
L 257.238846 111.708019 
L 253.927436 111.450086 
L 250.616026 133.284128 
L 247.304615 152.887175 
L 243.993205 140.362848 
L 240.681795 116.45692 
L 237.370385 110.085624 
L 234.058974 111.271693 
L 230.747564 123.696608 
L 227.436154 132.047984 
L 224.124744 136.904865 
L 220.813333 128.357544 
L 217.501923 158.759458 
L 214.190513 159.459339 
L 210.879103 149.032837 
L 207.567692 169.281013 
L 204.256282 138.751227 
L 200.944872 129.87807 
L 197.633462 164.227593 
L 194.322051 164.058305 
L 191.010641 200.892411 
L 187.699231 157.36996 
L 184.387821 178.121963 
L 181.07641 158.728419 
L 177.765 156.786843 
L 174.45359 104.654761 
L 171.142179 124.044508 
L 167.830769 105.79734 
L 164.519359 101.975608 
L 161.207949 107.992296 
L 157.896538 138.964573 
L 154.585128 173.775072 
L 151.273718 149.100107 
L 147.962308 177.106521 
L 144.650897 192.353174 
L 141.339487 198.291125 
L 138.028077 211.7944 
L 134.716667 195.991574 
L 131.405256 207.064305 
L 128.093846 221.863263 
L 124.782436 229.231698 
L 121.471026 228.197591 
L 118.159615 248.217278 
L 114.848205 266.234018 
L 111.536795 246.032229 
L 108.225385 255.260412 
L 104.913974 248.888692 
L 101.602564 264.821413 
L 98.291154 275.711954 
L 94.979744 305.581603 
L 91.668333 319.516856 
L 88.356923 327.97219 
L 85.045513 341.982798 
L 81.734103 348.180228 
L 78.422692 357.018175 
L 75.111282 359.856534 
L 71.799872 364.829501 
L 68.488462 369.91251 
L 65.177051 372.095126 
L 61.865641 372.870518 
L 58.554231 373.948551 
z
" clip-path="url(#pa1f87f786b)" style="fill: #0000ff; fill-opacity: 0.1"/>
   </g>
   <g id="line2d_28">
    <path d="M 58.554231 374.463511 
L 65.177051 372.643466 
L 68.488462 370.783498 
L 71.799872 366.740718 
L 75.111282 362.354934 
L 78.422692 359.214793 
L 81.734103 352.658678 
L 85.045513 347.619037 
L 88.356923 340.004947 
L 91.668333 333.340113 
L 94.979744 325.080415 
L 98.291154 306.730377 
L 104.913974 288.200532 
L 108.225385 287.562653 
L 111.536795 283.696397 
L 114.848205 286.422223 
L 118.159615 269.467949 
L 121.471026 256.637816 
L 124.782436 253.471998 
L 128.093846 237.118453 
L 131.405256 239.548101 
L 134.716667 234.980997 
L 138.028077 245.220218 
L 141.339487 228.160007 
L 144.650897 225.964509 
L 147.962308 210.317003 
L 151.273718 187.589535 
L 154.585128 185.298712 
L 157.896538 176.950816 
L 161.207949 152.132291 
L 164.519359 156.26283 
L 167.830769 157.699873 
L 171.142179 188.525335 
L 174.45359 169.067288 
L 177.765 204.036336 
L 181.07641 211.24166 
L 184.387821 212.652668 
L 187.699231 206.090358 
L 191.010641 224.244085 
L 194.322051 203.352121 
L 197.633462 200.826699 
L 200.944872 179.287012 
L 204.256282 192.101403 
L 207.567692 216.360069 
L 210.879103 222.1033 
L 214.190513 218.003115 
L 217.501923 211.517076 
L 220.813333 188.661769 
L 224.124744 189.897108 
L 227.436154 182.01988 
L 230.747564 173.814446 
L 234.058974 167.540446 
L 237.370385 173.410207 
L 240.681795 168.571985 
L 243.993205 187.73925 
L 247.304615 192.096159 
L 250.616026 173.472652 
L 253.927436 143.270224 
L 257.238846 142.329406 
L 260.550256 116.181181 
L 263.861667 119.239688 
L 267.173077 126.219377 
L 270.484487 120.080943 
L 273.795897 145.759042 
L 277.107308 166.903813 
L 280.418718 139.2698 
L 283.730128 129.654111 
L 287.041538 122.974648 
L 290.352949 144.163959 
L 293.664359 98.768623 
L 296.975769 94.344777 
L 300.287179 121.977307 
L 303.59859 81.885638 
L 306.91 98.622324 
L 310.22141 81.357906 
L 313.532821 106.200238 
L 316.844231 89.670077 
L 320.155641 122.309155 
L 323.467051 113.99293 
L 326.778462 107.920497 
L 330.089872 118.873736 
L 333.401282 131.797753 
L 336.712692 135.722051 
L 340.024103 123.449467 
L 343.335513 130.220734 
L 346.646923 125.357763 
L 349.958333 109.73864 
L 353.269744 127.12893 
L 356.581154 103.428736 
L 359.892564 116.067846 
L 363.203974 94.763457 
L 366.515385 110.884781 
L 369.826795 122.709864 
L 373.138205 107.951967 
L 376.449615 104.488164 
L 383.072436 89.591475 
L 386.383846 103.244162 
L 389.695256 106.722406 
L 393.006667 90.284554 
L 396.318077 95.639764 
L 399.629487 97.970352 
L 402.940897 96.213276 
L 406.252308 79.558555 
L 409.563718 78.961498 
L 412.875128 80.325811 
L 416.186538 76.507059 
L 419.497949 75.992959 
L 422.809359 68.894872 
L 426.120769 63.56303 
L 429.432179 69.714706 
L 432.74359 60.23501 
L 436.055 79.206864 
L 439.36641 80.117445 
L 442.677821 70.082755 
L 445.989231 73.552931 
L 449.300641 51.522571 
L 452.612051 68.833619 
L 455.923462 62.038256 
L 459.234872 59.995487 
L 462.546282 58.603132 
L 465.857692 50.173058 
L 469.169103 75.708646 
L 472.480513 55.623688 
L 475.791923 58.743341 
L 479.103333 59.652753 
L 482.414744 52.486508 
L 485.726154 55.4309 
L 489.037564 42.636817 
L 492.348974 54.309227 
L 495.660385 62.967141 
L 498.971795 64.141393 
L 502.283205 61.757837 
L 508.906026 45.581209 
L 512.217436 42.917235 
L 515.528846 62.686723 
L 518.840256 55.571109 
L 522.151667 54.88759 
L 525.463077 48.350339 
L 528.774487 44.179117 
L 532.085897 46.282254 
L 535.397308 40.165631 
L 538.708718 45.055424 
L 542.020128 60.934109 
L 545.331538 65.035226 
L 548.642949 48.718388 
L 551.954359 52.416404 
L 551.954359 52.416404 
" clip-path="url(#pa1f87f786b)" style="fill: none; stroke: #0000ff; stroke-width: 1.5; stroke-linecap: round"/>
   </g>
   <g id="line2d_29">
    <path d="M 58.554231 373.616105 
L 61.865641 374.119211 
L 65.177051 371.803527 
L 68.488462 370.731199 
L 71.799872 367.145167 
L 75.111282 364.690975 
L 78.422692 360.192218 
L 81.734103 351.677223 
L 85.045513 340.211831 
L 88.356923 340.358348 
L 91.668333 325.047937 
L 94.979744 317.111777 
L 98.291154 265.25387 
L 101.602564 269.205219 
L 104.913974 272.136864 
L 108.225385 263.571361 
L 111.536795 227.660296 
L 114.848205 276.257239 
L 118.159615 264.587877 
L 121.471026 244.549655 
L 124.782436 254.074037 
L 128.093846 248.545615 
L 131.405256 255.049761 
L 134.716667 272.477689 
L 138.028077 267.256858 
L 141.339487 270.671041 
L 144.650897 235.284168 
L 147.962308 222.577715 
L 151.273718 193.747212 
L 154.585128 193.100092 
L 157.896538 162.270261 
L 161.207949 136.822303 
L 164.519359 82.28095 
L 167.830769 115.720828 
L 171.142179 102.786535 
L 174.45359 169.677977 
L 177.765 203.507924 
L 181.07641 231.703827 
L 184.387821 214.478134 
L 187.699231 174.53856 
L 191.010641 220.4948 
L 194.322051 199.180316 
L 197.633462 199.30165 
L 200.944872 156.101059 
L 204.256282 119.611632 
L 207.567692 136.388929 
L 210.879103 80.489388 
L 214.190513 105.240195 
L 217.501923 117.508495 
L 220.813333 93.585311 
L 224.124744 109.358839 
L 230.747564 150.632903 
L 234.058974 158.121345 
L 237.370385 161.218692 
L 240.681795 135.093057 
L 243.993205 164.513607 
L 247.304615 168.976931 
L 250.616026 131.509935 
L 253.927436 105.152565 
L 257.238846 133.301496 
L 260.550256 39.517163 
L 263.861667 66.33216 
L 267.173077 102.436013 
L 270.484487 39.517163 
L 273.795897 39.517163 
L 277.107308 109.621731 
L 280.418718 53.538077 
L 283.730128 60.723795 
L 287.041538 39.517163 
L 290.352949 79.652028 
L 293.664359 88.940883 
L 296.975769 59.146442 
L 300.287179 67.208468 
L 303.59859 62.213517 
L 306.91 54.151492 
L 310.22141 39.517163 
L 313.532821 51.873093 
L 316.844231 40.919255 
L 320.155641 47.141035 
L 323.467051 44.07396 
L 326.778462 39.517163 
L 330.089872 39.517163 
L 333.401282 56.517521 
L 336.712692 83.945933 
L 340.024103 46.790512 
L 343.335513 69.486866 
L 346.646923 51.347309 
L 349.958333 39.517163 
L 353.269744 39.517163 
L 356.581154 43.197653 
L 359.892564 39.517163 
L 363.203974 40.831624 
L 366.515385 39.517163 
L 373.138205 39.517163 
L 376.449615 45.914205 
L 379.761026 41.795562 
L 383.072436 41.795562 
L 386.383846 52.398878 
L 389.695256 39.517163 
L 406.252308 39.517163 
L 409.563718 62.213517 
L 412.875128 71.064219 
L 416.186538 76.672584 
L 419.497949 47.053404 
L 422.809359 39.517163 
L 426.120769 51.43494 
L 429.432179 39.517163 
L 512.217436 39.517163 
L 515.528846 45.563682 
L 518.840256 39.517163 
L 522.151667 82.193319 
L 525.463077 50.733894 
L 528.774487 39.517163 
L 532.085897 55.027799 
L 535.397308 39.517163 
L 538.708718 46.615251 
L 542.020128 57.130936 
L 545.331538 112.425913 
L 548.642949 76.409692 
L 551.954359 46.439989 
L 551.954359 46.439989 
" clip-path="url(#pa1f87f786b)" style="fill: none; stroke: #008000; stroke-opacity: 0.2; stroke-linecap: round"/>
   </g>
   <g id="line2d_30">
    <path d="M 58.554231 374.716576 
L 61.865641 372.468919 
L 65.177051 372.327216 
L 68.488462 370.25209 
L 71.799872 368.608032 
L 75.111282 362.557593 
L 78.422692 361.003141 
L 81.734103 355.697636 
L 85.045513 352.19327 
L 88.356923 348.966971 
L 91.668333 348.516526 
L 94.979744 346.931255 
L 98.291154 336.911735 
L 101.602564 333.541442 
L 104.913974 331.074269 
L 108.225385 320.249058 
L 111.536795 320.780283 
L 114.848205 298.600276 
L 118.159615 290.128009 
L 121.471026 265.891184 
L 124.782436 260.241394 
L 128.093846 248.935085 
L 131.405256 274.167165 
L 134.716667 267.957904 
L 138.028077 286.537617 
L 141.339487 246.909842 
L 144.650897 276.725527 
L 147.962308 262.683369 
L 151.273718 214.22776 
L 154.585128 199.939782 
L 157.896538 230.956559 
L 161.207949 220.013056 
L 164.519359 229.594014 
L 167.830769 256.767528 
L 171.142179 257.800648 
L 174.45359 228.238659 
L 177.765 223.938912 
L 181.07641 231.644916 
L 184.387821 204.763644 
L 187.699231 235.150144 
L 191.010641 201.027301 
L 194.322051 226.652543 
L 197.633462 173.09823 
L 200.944872 194.74036 
L 204.256282 194.178624 
L 207.567692 234.057338 
L 210.879103 223.798703 
L 214.190513 247.143524 
L 217.501923 231.438726 
L 220.813333 257.998047 
L 224.124744 229.807248 
L 227.436154 247.416153 
L 230.747564 250.064547 
L 234.058974 244.511166 
L 237.370385 251.675722 
L 240.681795 260.86311 
L 243.993205 245.780379 
L 247.304615 265.989968 
L 250.616026 248.516405 
L 253.927436 192.228279 
L 257.238846 157.547762 
L 260.550256 89.641929 
L 263.861667 119.592158 
L 267.173077 138.434708 
L 270.484487 170.612704 
L 273.795897 225.031375 
L 277.107308 215.526364 
L 280.418718 190.511616 
L 283.730128 182.705742 
L 287.041538 142.711087 
L 290.352949 192.452973 
L 293.664359 155.508357 
L 296.975769 200.699248 
L 300.287179 158.631196 
L 303.59859 80.791227 
L 306.91 101.822598 
L 310.22141 62.301148 
L 313.532821 185.860448 
L 316.844231 51.172048 
L 320.155641 98.054477 
L 323.467051 62.125886 
L 326.778462 66.24453 
L 330.089872 130.302578 
L 333.401282 146.699257 
L 336.712692 132.055192 
L 340.024103 98.093424 
L 343.335513 79.652028 
L 346.646923 98.317369 
L 349.958333 51.610201 
L 353.269744 82.193319 
L 356.581154 42.321346 
L 359.892564 74.043663 
L 363.203974 87.538792 
L 366.515385 59.496965 
L 369.826795 63.440347 
L 373.138205 72.816833 
L 376.449615 60.198011 
L 379.761026 68.610559 
L 383.072436 115.463778 
L 386.383846 186.035709 
L 389.695256 211.323428 
L 393.006667 182.939424 
L 396.318077 107.207018 
L 399.629487 72.028157 
L 402.940897 63.440347 
L 406.252308 50.558633 
L 409.563718 67.55899 
L 412.875128 76.760215 
L 416.186538 60.373272 
L 419.497949 87.100639 
L 422.809359 93.234788 
L 426.120769 98.843154 
L 429.432179 48.98128 
L 432.74359 46.702882 
L 436.055 70.713696 
L 439.36641 114.139581 
L 442.677821 125.044736 
L 445.989231 63.966131 
L 449.300641 65.981638 
L 452.612051 164.367025 
L 455.923462 85.523286 
L 459.234872 110.712246 
L 462.546282 97.090539 
L 465.857692 41.094516 
L 469.169103 96.389494 
L 472.480513 81.755165 
L 475.791923 100.508137 
L 479.103333 39.517163 
L 482.414744 61.424841 
L 485.726154 55.728845 
L 489.037564 48.280234 
L 492.348974 58.094874 
L 495.660385 118.735325 
L 498.971795 87.889315 
L 502.283205 78.337568 
L 505.594615 69.574497 
L 508.906026 39.517163 
L 512.217436 49.331803 
L 515.528846 55.027799 
L 518.840256 75.358123 
L 522.151667 70.01265 
L 525.463077 50.471002 
L 528.774487 50.295741 
L 532.085897 39.517163 
L 538.708718 39.517163 
L 542.020128 70.626065 
L 545.331538 87.363531 
L 548.642949 41.795562 
L 551.954359 53.099923 
L 551.954359 53.099923 
" clip-path="url(#pa1f87f786b)" style="fill: none; stroke: #008000; stroke-opacity: 0.2; stroke-linecap: round"/>
   </g>
   <g id="line2d_31">
    <path d="M 58.554231 374.47598 
L 61.865641 373.310108 
L 65.177051 372.791631 
L 68.488462 369.479481 
L 71.799872 363.15242 
L 75.111282 359.482198 
L 78.422692 357.349573 
L 81.734103 345.345465 
L 85.045513 341.65533 
L 88.356923 318.571236 
L 91.668333 319.013004 
L 94.979744 307.842395 
L 98.291154 300.851412 
L 101.602564 284.700268 
L 104.913974 270.862236 
L 108.225385 280.326352 
L 111.536795 258.628989 
L 114.848205 271.262833 
L 118.159615 249.51929 
L 121.471026 243.686406 
L 124.782436 226.789831 
L 128.093846 222.890682 
L 131.405256 228.198599 
L 134.716667 187.37938 
L 138.028077 204.155043 
L 141.339487 230.420663 
L 144.650897 231.603678 
L 147.962308 207.317453 
L 151.273718 241.459555 
L 154.585128 186.444652 
L 157.896538 200.465566 
L 161.207949 179.535104 
L 164.519359 173.799276 
L 167.830769 160.868169 
L 171.142179 226.743095 
L 174.45359 248.156145 
L 177.765 280.280632 
L 181.07641 284.686856 
L 184.387821 277.019245 
L 187.699231 281.757654 
L 191.010641 266.622578 
L 194.322051 261.923903 
L 197.633462 257.6759 
L 200.944872 255.361337 
L 204.256282 263.918545 
L 207.567692 276.343138 
L 210.879103 276.558232 
L 214.190513 268.344844 
L 217.501923 268.695367 
L 220.813333 242.075548 
L 224.124744 244.300394 
L 227.436154 229.624255 
L 230.747564 213.592197 
L 234.058974 217.909919 
L 237.370385 206.96693 
L 240.681795 191.351972 
L 243.993205 191.819336 
L 247.304615 170.612704 
L 250.616026 148.023455 
L 253.927436 144.463701 
L 257.238846 161.945231 
L 260.550256 163.742457 
L 263.861667 133.895437 
L 267.173077 151.684471 
L 270.484487 124.655266 
L 273.795897 96.477124 
L 277.107308 78.337568 
L 280.418718 97.353431 
L 283.730128 73.956032 
L 287.041538 67.55899 
L 290.352949 49.945218 
L 293.664359 54.852538 
L 296.975769 65.718745 
L 300.287179 159.473868 
L 303.59859 128.939434 
L 306.91 143.482237 
L 310.22141 99.281307 
L 313.532821 56.692782 
L 316.844231 102.377592 
L 320.155641 103.662843 
L 323.467051 83.420149 
L 326.778462 75.796277 
L 330.089872 39.517163 
L 333.401282 49.068911 
L 336.712692 50.383371 
L 340.024103 39.517163 
L 343.335513 81.930427 
L 346.646923 63.440347 
L 349.958333 52.223616 
L 353.269744 96.301863 
L 356.581154 45.651313 
L 359.892564 122.678706 
L 363.203974 41.883193 
L 366.515385 85.348024 
L 369.826795 146.932939 
L 373.138205 93.848203 
L 376.449615 112.513544 
L 379.761026 77.285999 
L 383.072436 66.33216 
L 386.383846 72.46631 
L 389.695256 45.21316 
L 393.006667 44.687375 
L 396.318077 39.517163 
L 399.629487 50.821525 
L 402.940897 45.914205 
L 406.252308 53.8886 
L 409.563718 52.749401 
L 412.875128 39.517163 
L 416.186538 58.620658 
L 419.497949 41.795562 
L 422.809359 55.465953 
L 426.120769 45.476052 
L 429.432179 76.672584 
L 432.74359 39.517163 
L 436.055 73.69314 
L 439.36641 58.708289 
L 442.677821 49.945218 
L 445.989231 69.574497 
L 449.300641 39.517163 
L 452.612051 43.811068 
L 455.923462 45.21316 
L 459.234872 41.53267 
L 462.546282 39.517163 
L 465.857692 54.414384 
L 469.169103 92.971896 
L 472.480513 63.352716 
L 475.791923 68.78582 
L 479.103333 51.259678 
L 482.414744 39.517163 
L 485.726154 39.517163 
L 489.037564 42.934761 
L 492.348974 48.017342 
L 495.660385 39.517163 
L 498.971795 76.1468 
L 502.283205 90.167713 
L 505.594615 52.837031 
L 508.906026 64.491916 
L 512.217436 39.517163 
L 515.528846 85.435655 
L 518.840256 60.022749 
L 522.151667 39.517163 
L 532.085897 39.517163 
L 535.397308 42.7595 
L 538.708718 56.692782 
L 542.020128 55.378322 
L 545.331538 46.001836 
L 548.642949 42.84713 
L 551.954359 66.945575 
L 551.954359 66.945575 
" clip-path="url(#pa1f87f786b)" style="fill: none; stroke: #008000; stroke-opacity: 0.2; stroke-linecap: round"/>
   </g>
   <g id="line2d_32">
    <path d="M 58.554231 374.321818 
L 61.865641 374.205335 
L 65.177051 373.437187 
L 68.488462 371.613867 
L 71.799872 368.058826 
L 75.111282 365.471823 
L 78.422692 361.600673 
L 81.734103 358.662163 
L 85.045513 354.113685 
L 88.356923 353.502606 
L 94.979744 349.750493 
L 98.291154 346.920127 
L 101.602564 339.344012 
L 104.913974 334.871998 
L 108.225385 328.784187 
L 111.536795 327.847234 
L 114.848205 320.105957 
L 118.159615 298.016071 
L 121.471026 306.484119 
L 124.782436 294.697788 
L 128.093846 250.642602 
L 131.405256 258.612385 
L 134.716667 259.461019 
L 138.028077 261.084493 
L 141.339487 208.218797 
L 144.650897 213.025968 
L 147.962308 198.399606 
L 151.273718 143.208192 
L 154.585128 166.114328 
L 157.896538 173.416887 
L 161.207949 133.948016 
L 164.519359 189.260519 
L 167.830769 121.773189 
L 171.142179 236.561072 
L 174.45359 125.57052 
L 177.765 170.039122 
L 181.07641 176.730921 
L 184.387821 188.678112 
L 187.699231 140.993525 
L 191.010641 205.164241 
L 194.322051 145.655478 
L 197.633462 153.016458 
L 200.944872 104.451519 
L 204.256282 147.733123 
L 207.567692 197.845632 
L 210.879103 268.131847 
L 214.190513 219.085005 
L 217.501923 245.170974 
L 220.813333 198.277045 
L 224.124744 221.134729 
L 227.436154 125.044736 
L 230.747564 114.840626 
L 234.058974 95.776079 
L 237.370385 61.600102 
L 240.681795 120.926092 
L 243.993205 111.101716 
L 247.304615 157.433046 
L 250.616026 167.872253 
L 253.927436 161.116722 
L 260.550256 182.939424 
L 263.861667 149.931857 
L 267.173077 145.219272 
L 270.484487 115.492988 
L 273.795897 170.963227 
L 277.107308 201.620494 
L 280.418718 136.261466 
L 283.730128 133.690966 
L 287.041538 74.043663 
L 290.352949 117.333233 
L 293.664359 104.636517 
L 296.975769 90.605867 
L 300.287179 159.905825 
L 303.59859 79.126244 
L 306.91 108.132009 
L 310.22141 106.895442 
L 313.532821 99.261834 
L 316.844231 78.425198 
L 320.155641 201.258415 
L 323.467051 180.719446 
L 326.778462 218.823076 
L 330.089872 180.661026 
L 333.401282 259.014564 
L 336.712692 249.558237 
L 340.024103 280.530824 
L 343.335513 256.878219 
L 346.646923 230.388532 
L 349.958333 244.964784 
L 353.269744 249.441396 
L 356.581154 222.817239 
L 359.892564 155.540222 
L 363.203974 157.838094 
L 366.515385 221.181466 
L 369.826795 230.435268 
L 373.138205 180.491075 
L 376.449615 139.766695 
L 379.761026 117.333233 
L 383.072436 59.935119 
L 386.383846 105.337563 
L 393.006667 60.636164 
L 396.318077 160.447542 
L 399.629487 183.582049 
L 402.940897 174.691516 
L 406.252308 95.600817 
L 409.563718 142.010041 
L 412.875128 74.832339 
L 416.186538 64.316654 
L 419.497949 96.146075 
L 422.809359 41.883193 
L 426.120769 44.512114 
L 429.432179 73.079725 
L 432.74359 86.925377 
L 436.055 73.956032 
L 439.36641 75.621016 
L 442.677821 41.883193 
L 445.989231 89.554298 
L 449.300641 43.635807 
L 452.612051 39.517163 
L 455.923462 70.01265 
L 459.234872 54.414384 
L 462.546282 62.213517 
L 465.857692 43.811068 
L 469.169103 91.657435 
L 472.480513 50.383371 
L 475.791923 39.517163 
L 479.103333 100.586031 
L 482.414744 82.456211 
L 485.726154 92.095589 
L 489.037564 39.517163 
L 492.348974 68.961082 
L 495.660385 56.692782 
L 498.971795 77.461261 
L 502.283205 39.517163 
L 505.594615 60.811426 
L 508.906026 44.07396 
L 512.217436 39.517163 
L 515.528846 61.687733 
L 518.840256 51.960724 
L 522.151667 39.517163 
L 528.774487 39.517163 
L 532.085897 42.584238 
L 535.397308 39.517163 
L 538.708718 39.517163 
L 542.020128 68.522928 
L 545.331538 39.517163 
L 548.642949 39.517163 
L 551.954359 45.914205 
L 551.954359 45.914205 
" clip-path="url(#pa1f87f786b)" style="fill: none; stroke: #008000; stroke-opacity: 0.2; stroke-linecap: round"/>
   </g>
   <g id="line2d_33">
    <path d="M 58.554231 375.187076 
L 61.865641 373.402989 
L 65.177051 372.857767 
L 68.488462 371.840854 
L 71.799872 366.739143 
L 75.111282 359.572082 
L 78.422692 355.92836 
L 81.734103 351.910905 
L 85.045513 349.921068 
L 88.356923 338.625575 
L 91.668333 322.512249 
L 94.979744 303.766153 
L 98.291154 283.71474 
L 101.602564 260.914064 
L 104.913974 232.057296 
L 108.225385 244.882308 
L 111.536795 283.565183 
L 114.848205 265.884811 
L 118.159615 245.088498 
L 121.471026 222.577715 
L 124.782436 231.556942 
L 128.093846 214.578283 
L 131.405256 181.712594 
L 134.716667 187.628995 
L 138.028077 207.067079 
L 141.339487 184.579691 
L 144.650897 173.183205 
L 147.962308 160.606871 
L 151.273718 145.304956 
L 154.585128 180.894708 
L 157.896538 117.644809 
L 161.207949 90.342975 
L 164.519359 106.379395 
L 167.830769 133.369653 
L 171.142179 118.735325 
L 174.45359 73.69314 
L 177.765 142.415089 
L 181.07641 131.441777 
L 184.387821 178.324207 
L 187.699231 198.011906 
L 191.010641 227.911504 
L 194.322051 183.348367 
L 197.633462 221.041256 
L 200.944872 185.780783 
L 204.256282 235.065091 
L 207.567692 237.165307 
L 210.879103 261.538328 
L 214.190513 250.202007 
L 217.501923 194.771817 
L 220.813333 151.372895 
L 224.124744 144.884328 
L 227.436154 177.750624 
L 230.747564 139.941956 
L 234.058974 121.383719 
L 237.370385 185.589589 
L 240.681795 134.625693 
L 243.993205 225.481212 
L 247.304615 197.468146 
L 250.616026 171.441213 
L 253.927436 113.389851 
L 257.238846 86.662485 
L 260.550256 105.064934 
L 263.861667 126.446827 
L 267.173077 93.322419 
L 270.484487 150.126592 
L 273.795897 196.80632 
L 277.107308 229.41291 
L 280.418718 218.684408 
L 283.730128 197.194019 
L 287.041538 291.042336 
L 290.352949 281.436341 
L 293.664359 89.904821 
L 296.975769 55.553583 
L 300.287179 64.667177 
L 303.59859 58.357766 
L 306.91 85.523286 
L 310.22141 98.79447 
L 316.844231 175.456293 
L 320.155641 161.429006 
L 323.467051 199.62521 
L 326.778462 139.221437 
L 330.089872 204.37075 
L 333.401282 147.688511 
L 336.712692 162.66752 
L 340.024103 152.315412 
L 343.335513 163.156128 
L 346.646923 183.295258 
L 349.958333 160.377437 
L 353.269744 168.19091 
L 356.581154 163.156128 
L 359.892564 188.559474 
L 363.203974 145.725583 
L 366.515385 148.880288 
L 369.826795 133.223602 
L 373.138205 153.086562 
L 376.449615 164.048368 
L 379.761026 180.252082 
L 383.072436 164.430756 
L 386.383846 99.982353 
L 389.695256 154.488654 
L 393.006667 123.642644 
L 396.318077 131.509935 
L 399.629487 143.902864 
L 402.940897 157.50315 
L 406.252308 158.227564 
L 409.563718 70.275542 
L 412.875128 139.455119 
L 416.186538 122.552129 
L 419.497949 107.869117 
L 422.809359 114.373263 
L 426.120769 77.548891 
L 429.432179 110.322776 
L 432.74359 88.512467 
L 436.055 138.15429 
L 439.36641 112.601175 
L 442.677821 94.023465 
L 445.989231 105.152565 
L 449.300641 68.961082 
L 452.612051 56.955675 
L 455.923462 69.92502 
L 459.234872 53.800969 
L 462.546282 54.677276 
L 465.857692 72.028157 
L 469.169103 58.007243 
L 472.480513 43.110023 
L 475.791923 45.388421 
L 479.103333 67.383729 
L 482.414744 39.517163 
L 485.726154 50.295741 
L 489.037564 42.934761 
L 492.348974 56.955675 
L 495.660385 60.373272 
L 498.971795 39.692425 
L 502.283205 61.249579 
L 505.594615 46.001836 
L 508.906026 40.30584 
L 512.217436 46.702882 
L 515.528846 65.718745 
L 518.840256 50.996786 
L 522.151667 43.197653 
L 525.463077 61.512471 
L 528.774487 52.048355 
L 532.085897 54.764907 
L 535.397308 39.517163 
L 538.708718 42.934761 
L 542.020128 53.012293 
L 545.331538 39.867686 
L 548.642949 43.022392 
L 551.954359 49.682326 
L 551.954359 49.682326 
" clip-path="url(#pa1f87f786b)" style="fill: none; stroke: #008000; stroke-opacity: 0.2; stroke-linecap: round"/>
   </g>
   <g id="line2d_34">
    <path d="M 58.554231 39.517163 
L 65.177051 60.372096 
L 71.799872 79.994502 
L 78.422692 98.457224 
L 85.045513 115.828799 
L 91.668333 132.173714 
L 98.291154 147.552644 
L 104.913974 162.02268 
L 111.536795 175.637536 
L 118.159615 188.447755 
L 124.782436 200.500889 
L 131.405256 211.841684 
L 138.028077 222.512237 
L 144.650897 232.552161 
L 151.273718 241.998725 
L 157.896538 250.886997 
L 164.519359 259.249972 
L 171.142179 267.118696 
L 177.765 274.522378 
L 181.07641 266.62508 
L 187.699231 274.057934 
L 191.010641 277.607971 
L 194.322051 270.929599 
L 200.944872 278.108056 
L 204.256282 281.53659 
L 207.567692 275.901414 
L 210.879103 270.704119 
L 214.190513 265.923504 
L 220.813333 273.397822 
L 227.436154 280.430408 
L 234.058974 287.047367 
L 240.681795 293.273265 
L 247.304615 299.131212 
L 253.927436 304.642954 
L 260.550256 309.828952 
L 267.173077 314.708458 
L 270.484487 317.03898 
L 273.795897 311.990293 
L 277.107308 314.40236 
L 280.418718 302.987439 
L 287.041538 308.271278 
L 293.664359 313.242842 
L 300.287179 317.920587 
L 306.91 322.321878 
L 313.532821 326.463051 
L 316.844231 328.440935 
L 320.155641 331.791013 
L 323.467051 334.789355 
L 326.778462 337.490605 
L 330.089872 339.940029 
L 333.401282 342.175154 
L 336.712692 344.227123 
L 340.024103 347.910446 
L 343.335513 351.090436 
L 346.646923 348.241371 
L 349.958333 350.820495 
L 353.269744 353.102066 
L 356.581154 355.13365 
L 359.892564 357.947865 
L 363.203974 360.379926 
L 366.515385 362.49355 
L 369.826795 364.319603 
L 373.138205 365.866362 
L 376.449615 362.97587 
L 379.761026 364.332818 
L 386.383846 366.6862 
L 393.006667 368.660812 
L 399.629487 370.221096 
L 406.252308 371.527975 
L 419.497949 373.759377 
L 432.74359 375.734821 
L 439.36641 376.63587 
L 442.677821 378.109832 
L 445.989231 379.356422 
L 449.300641 380.414605 
L 452.612051 381.316534 
L 455.923462 382.088749 
L 459.234872 383.649339 
L 462.546282 384.936046 
L 465.857692 385.996936 
L 469.169103 386.871639 
L 472.480513 387.592832 
L 479.103333 388.677723 
L 485.726154 389.415232 
L 492.348974 389.773224 
L 498.971795 390.0093 
L 512.217436 390.04 
L 551.954359 390.04 
L 551.954359 390.04 
" clip-path="url(#pa1f87f786b)" style="fill: none; stroke: #ff0000; stroke-linecap: round"/>
   </g>
   <g id="line2d_35">
    <path d="M 58.554231 39.517163 
L 61.865641 39.717317 
L 65.177051 42.086171 
L 68.488462 53.861079 
L 75.111282 91.501393 
L 78.422692 110.811148 
L 81.734103 129.070337 
L 85.045513 150.010147 
L 88.356923 168.653023 
L 91.668333 183.516147 
L 94.979744 194.521394 
L 98.291154 207.352711 
L 101.602564 216.547082 
L 104.913974 228.740901 
L 108.225385 238.17263 
L 111.536795 252.90598 
L 114.848205 260.255914 
L 118.159615 264.364783 
L 121.471026 267.746234 
L 124.782436 274.117278 
L 128.093846 281.025959 
L 131.405256 292.312666 
L 134.716667 288.646849 
L 138.028077 301.746255 
L 141.339487 309.115851 
L 144.650897 309.078944 
L 147.962308 310.434302 
L 151.273718 308.654323 
L 154.585128 308.739642 
L 157.896538 305.903107 
L 161.207949 312.73541 
L 164.519359 307.319637 
L 167.830769 300.407704 
L 171.142179 299.511433 
L 174.45359 294.444964 
L 177.765 299.55176 
L 181.07641 303.773922 
L 184.387821 308.333287 
L 187.699231 307.157898 
L 191.010641 314.682948 
L 194.322051 315.490228 
L 197.633462 317.912353 
L 200.944872 325.046672 
L 204.256282 316.724741 
L 207.567692 328.876887 
L 210.879103 334.879438 
L 214.190513 336.52079 
L 217.501923 342.694542 
L 220.813333 344.752735 
L 224.124744 349.719874 
L 227.436154 350.951143 
L 230.747564 351.374723 
L 234.058974 352.418626 
L 237.370385 355.020509 
L 240.681795 362.968366 
L 243.993205 358.097897 
L 247.304615 368.062968 
L 250.616026 373.370633 
L 253.927436 376.141603 
L 257.238846 368.098418 
L 260.550256 366.978908 
L 263.861667 369.420944 
L 267.173077 378.93895 
L 270.484487 371.045667 
L 273.795897 370.121301 
L 277.107308 365.35358 
L 280.418718 369.032841 
L 283.730128 371.926305 
L 287.041538 363.562839 
L 290.352949 375.780405 
L 293.664359 388.998473 
L 296.975769 380.053659 
L 300.287179 362.313011 
L 303.59859 356.880728 
L 306.91 359.115572 
L 310.22141 359.166341 
L 313.532821 364.977672 
L 316.844231 363.883944 
L 320.155641 358.528545 
L 323.467051 366.458988 
L 326.778462 364.752685 
L 330.089872 362.68685 
L 333.401282 365.184892 
L 336.712692 366.09235 
L 340.024103 360.538849 
L 343.335513 361.307791 
L 346.646923 357.029103 
L 349.958333 346.274395 
L 353.269744 343.473548 
L 356.581154 347.288089 
L 359.892564 348.243487 
L 363.203974 342.945053 
L 366.515385 347.104319 
L 369.826795 352.228841 
L 373.138205 348.976931 
L 376.449615 346.235726 
L 379.761026 346.948209 
L 383.072436 358.060454 
L 386.383846 363.766187 
L 389.695256 366.609068 
L 393.006667 358.775279 
L 396.318077 352.737465 
L 399.629487 344.415291 
L 402.940897 346.179079 
L 406.252308 362.780101 
L 409.563718 358.296961 
L 412.875128 367.182954 
L 416.186538 373.284712 
L 419.497949 380.958872 
L 422.809359 389.804993 
L 426.120769 386.492281 
L 429.432179 385.882182 
L 432.74359 378.71058 
L 436.055 370.304554 
L 439.36641 390.04 
L 442.677821 385.198717 
L 445.989231 382.488623 
L 449.300641 372.173071 
L 452.612051 364.197549 
L 455.923462 352.568273 
L 459.234872 361.248085 
L 462.546282 353.059483 
L 465.857692 351.818028 
L 469.169103 353.523725 
L 472.480513 342.615238 
L 475.791923 341.434895 
L 479.103333 345.218019 
L 482.414744 344.961372 
L 485.726154 337.586433 
L 489.037564 340.970211 
L 492.348974 335.861109 
L 495.660385 334.47835 
L 498.971795 326.96243 
L 502.283205 329.019757 
L 505.594615 335.049936 
L 508.906026 341.380343 
L 512.217436 346.383944 
L 515.528846 349.509188 
L 518.840256 345.6366 
L 522.151667 344.462982 
L 525.463077 344.996772 
L 528.774487 345.107545 
L 532.085897 337.717973 
L 535.397308 337.858144 
L 538.708718 347.374357 
L 542.020128 351.966381 
L 545.331538 344.328389 
L 548.642949 344.367034 
L 551.954359 351.351531 
L 551.954359 351.351531 
" clip-path="url(#pa1f87f786b)" style="fill: none; stroke: #800080; stroke-linecap: round"/>
   </g>
   <g id="patch_3">
    <path d="M 48.62 390.04 
L 48.62 25.49625 
" style="fill: none; stroke: #ffffff; stroke-width: 0.8; stroke-linejoin: miter; stroke-linecap: square"/>
   </g>
   <g id="patch_4">
    <path d="M 565.2 390.04 
L 565.2 25.49625 
" style="fill: none; stroke: #ffffff; stroke-width: 0.8; stroke-linejoin: miter; stroke-linecap: square"/>
   </g>
   <g id="patch_5">
    <path d="M 48.62 390.04 
L 565.2 390.04 
" style="fill: none; stroke: #ffffff; stroke-width: 0.8; stroke-linejoin: miter; stroke-linecap: square"/>
   </g>
   <g id="patch_6">
    <path d="M 48.62 25.49625 
L 565.2 25.49625 
" style="fill: none; stroke: #ffffff; stroke-width: 0.8; stroke-linejoin: miter; stroke-linecap: square"/>
   </g>
   <g id="text_30">
    <!-- cartpole_GNN_K_noise_mlp -->
    <g style="fill: #262626" transform="translate(230.874062 19.49625) scale(0.12 -0.12)">
     <defs>
      <path id="ArialMT-63" d="M 2588 1216 
L 3141 1144 
Q 3050 572 2676 248 
Q 2303 -75 1759 -75 
Q 1078 -75 664 370 
Q 250 816 250 1647 
Q 250 2184 428 2587 
Q 606 2991 970 3192 
Q 1334 3394 1763 3394 
Q 2303 3394 2647 3120 
Q 2991 2847 3088 2344 
L 2541 2259 
Q 2463 2594 2264 2762 
Q 2066 2931 1784 2931 
Q 1359 2931 1093 2626 
Q 828 2322 828 1663 
Q 828 994 1084 691 
Q 1341 388 1753 388 
Q 2084 388 2306 591 
Q 2528 794 2588 1216 
z
" transform="scale(0.015625)"/>
      <path id="ArialMT-74" d="M 1650 503 
L 1731 6 
Q 1494 -44 1306 -44 
Q 1000 -44 831 53 
Q 663 150 594 308 
Q 525 466 525 972 
L 525 2881 
L 113 2881 
L 113 3319 
L 525 3319 
L 525 4141 
L 1084 4478 
L 1084 3319 
L 1650 3319 
L 1650 2881 
L 1084 2881 
L 1084 941 
Q 1084 700 1114 631 
Q 1144 563 1211 522 
Q 1278 481 1403 481 
Q 1497 481 1650 503 
z
" transform="scale(0.015625)"/>
      <path id="ArialMT-6c" d="M 409 0 
L 409 4581 
L 972 4581 
L 972 0 
L 409 0 
z
" transform="scale(0.015625)"/>
      <path id="ArialMT-5f" d="M -97 -1272 
L -97 -866 
L 3631 -866 
L 3631 -1272 
L -97 -1272 
z
" transform="scale(0.015625)"/>
      <path id="ArialMT-47" d="M 2638 1797 
L 2638 2334 
L 4578 2338 
L 4578 638 
Q 4131 281 3656 101 
Q 3181 -78 2681 -78 
Q 2006 -78 1454 211 
Q 903 500 622 1047 
Q 341 1594 341 2269 
Q 341 2938 620 3517 
Q 900 4097 1425 4378 
Q 1950 4659 2634 4659 
Q 3131 4659 3532 4498 
Q 3934 4338 4162 4050 
Q 4391 3763 4509 3300 
L 3963 3150 
Q 3859 3500 3706 3700 
Q 3553 3900 3268 4020 
Q 2984 4141 2638 4141 
Q 2222 4141 1919 4014 
Q 1616 3888 1430 3681 
Q 1244 3475 1141 3228 
Q 966 2803 966 2306 
Q 966 1694 1177 1281 
Q 1388 869 1791 669 
Q 2194 469 2647 469 
Q 3041 469 3416 620 
Q 3791 772 3984 944 
L 3984 1797 
L 2638 1797 
z
" transform="scale(0.015625)"/>
      <path id="ArialMT-4e" d="M 488 0 
L 488 4581 
L 1109 4581 
L 3516 984 
L 3516 4581 
L 4097 4581 
L 4097 0 
L 3475 0 
L 1069 3600 
L 1069 0 
L 488 0 
z
" transform="scale(0.015625)"/>
      <path id="ArialMT-4b" d="M 469 0 
L 469 4581 
L 1075 4581 
L 1075 2309 
L 3350 4581 
L 4172 4581 
L 2250 2725 
L 4256 0 
L 3456 0 
L 1825 2319 
L 1075 1588 
L 1075 0 
L 469 0 
z
" transform="scale(0.015625)"/>
      <path id="ArialMT-6e" d="M 422 0 
L 422 3319 
L 928 3319 
L 928 2847 
Q 1294 3394 1984 3394 
Q 2284 3394 2536 3286 
Q 2788 3178 2913 3003 
Q 3038 2828 3088 2588 
Q 3119 2431 3119 2041 
L 3119 0 
L 2556 0 
L 2556 2019 
Q 2556 2363 2490 2533 
Q 2425 2703 2258 2804 
Q 2091 2906 1866 2906 
Q 1506 2906 1245 2678 
Q 984 2450 984 1813 
L 984 0 
L 422 0 
z
" transform="scale(0.015625)"/>
      <path id="ArialMT-6d" d="M 422 0 
L 422 3319 
L 925 3319 
L 925 2853 
Q 1081 3097 1340 3245 
Q 1600 3394 1931 3394 
Q 2300 3394 2536 3241 
Q 2772 3088 2869 2813 
Q 3263 3394 3894 3394 
Q 4388 3394 4653 3120 
Q 4919 2847 4919 2278 
L 4919 0 
L 4359 0 
L 4359 2091 
Q 4359 2428 4304 2576 
Q 4250 2725 4106 2815 
Q 3963 2906 3769 2906 
Q 3419 2906 3187 2673 
Q 2956 2441 2956 1928 
L 2956 0 
L 2394 0 
L 2394 2156 
Q 2394 2531 2256 2718 
Q 2119 2906 1806 2906 
Q 1569 2906 1367 2781 
Q 1166 2656 1075 2415 
Q 984 2175 984 1722 
L 984 0 
L 422 0 
z
" transform="scale(0.015625)"/>
     </defs>
     <use xlink:href="#ArialMT-63"/>
     <use xlink:href="#ArialMT-61" transform="translate(50 0)"/>
     <use xlink:href="#ArialMT-72" transform="translate(105.615234 0)"/>
     <use xlink:href="#ArialMT-74" transform="translate(138.916016 0)"/>
     <use xlink:href="#ArialMT-70" transform="translate(166.699219 0)"/>
     <use xlink:href="#ArialMT-6f" transform="translate(222.314453 0)"/>
     <use xlink:href="#ArialMT-6c" transform="translate(277.929688 0)"/>
     <use xlink:href="#ArialMT-65" transform="translate(300.146484 0)"/>
     <use xlink:href="#ArialMT-5f" transform="translate(355.761719 0)"/>
     <use xlink:href="#ArialMT-47" transform="translate(411.376953 0)"/>
     <use xlink:href="#ArialMT-4e" transform="translate(489.160156 0)"/>
     <use xlink:href="#ArialMT-4e" transform="translate(561.376953 0)"/>
     <use xlink:href="#ArialMT-5f" transform="translate(633.59375 0)"/>
     <use xlink:href="#ArialMT-4b" transform="translate(689.208984 0)"/>
     <use xlink:href="#ArialMT-5f" transform="translate(755.908203 0)"/>
     <use xlink:href="#ArialMT-6e" transform="translate(811.523438 0)"/>
     <use xlink:href="#ArialMT-6f" transform="translate(867.138672 0)"/>
     <use xlink:href="#ArialMT-69" transform="translate(922.753906 0)"/>
     <use xlink:href="#ArialMT-73" transform="translate(944.970703 0)"/>
     <use xlink:href="#ArialMT-65" transform="translate(994.970703 0)"/>
     <use xlink:href="#ArialMT-5f" transform="translate(1050.585938 0)"/>
     <use xlink:href="#ArialMT-6d" transform="translate(1106.201172 0)"/>
     <use xlink:href="#ArialMT-6c" transform="translate(1189.501953 0)"/>
     <use xlink:href="#ArialMT-70" transform="translate(1211.71875 0)"/>
    </g>
   </g>
   <g id="legend_1">
    <g id="patch_7">
     <path d="M 55.62 385.04 
L 209.902813 385.04 
Q 211.902813 385.04 211.902813 383.04 
L 211.902813 312.59625 
Q 211.902813 310.59625 209.902813 310.59625 
L 55.62 310.59625 
Q 53.62 310.59625 53.62 312.59625 
L 53.62 383.04 
Q 53.62 385.04 55.62 385.04 
z
" style="fill: #eaeaf2; opacity: 0.8; stroke: #cccccc; stroke-linejoin: miter"/>
    </g>
    <g id="line2d_36">
     <path d="M 57.62 318.254062 
L 67.62 318.254062 
L 77.62 318.254062 
" style="fill: none; stroke: #0000ff; stroke-width: 1.5; stroke-linecap: round"/>
    </g>
    <g id="text_31">
     <!-- Mean Reward -->
     <g style="fill: #262626" transform="translate(85.62 321.754062) scale(0.1 -0.1)">
      <defs>
       <path id="ArialMT-4d" d="M 475 0 
L 475 4581 
L 1388 4581 
L 2472 1338 
Q 2622 884 2691 659 
Q 2769 909 2934 1394 
L 4031 4581 
L 4847 4581 
L 4847 0 
L 4263 0 
L 4263 3834 
L 2931 0 
L 2384 0 
L 1059 3900 
L 1059 0 
L 475 0 
z
" transform="scale(0.015625)"/>
       <path id="ArialMT-20" transform="scale(0.015625)"/>
      </defs>
      <use xlink:href="#ArialMT-4d"/>
      <use xlink:href="#ArialMT-65" transform="translate(83.300781 0)"/>
      <use xlink:href="#ArialMT-61" transform="translate(138.916016 0)"/>
      <use xlink:href="#ArialMT-6e" transform="translate(194.53125 0)"/>
      <use xlink:href="#ArialMT-20" transform="translate(250.146484 0)"/>
      <use xlink:href="#ArialMT-52" transform="translate(277.929688 0)"/>
      <use xlink:href="#ArialMT-65" transform="translate(350.146484 0)"/>
      <use xlink:href="#ArialMT-77" transform="translate(405.761719 0)"/>
      <use xlink:href="#ArialMT-61" transform="translate(477.978516 0)"/>
      <use xlink:href="#ArialMT-72" transform="translate(533.59375 0)"/>
      <use xlink:href="#ArialMT-64" transform="translate(566.894531 0)"/>
     </g>
    </g>
    <g id="line2d_37">
     <path d="M 57.62 332.52125 
L 67.62 332.52125 
L 77.62 332.52125 
" style="fill: none; stroke: #008000; stroke-opacity: 0.2; stroke-linecap: round"/>
    </g>
    <g id="text_32">
     <!-- Reward (individual runs) -->
     <g style="fill: #262626" transform="translate(85.62 336.02125) scale(0.1 -0.1)">
      <defs>
       <path id="ArialMT-28" d="M 1497 -1347 
Q 1031 -759 709 28 
Q 388 816 388 1659 
Q 388 2403 628 3084 
Q 909 3875 1497 4659 
L 1900 4659 
Q 1522 4009 1400 3731 
Q 1209 3300 1100 2831 
Q 966 2247 966 1656 
Q 966 153 1900 -1347 
L 1497 -1347 
z
" transform="scale(0.015625)"/>
       <path id="ArialMT-76" d="M 1344 0 
L 81 3319 
L 675 3319 
L 1388 1331 
Q 1503 1009 1600 663 
Q 1675 925 1809 1294 
L 2547 3319 
L 3125 3319 
L 1869 0 
L 1344 0 
z
" transform="scale(0.015625)"/>
       <path id="ArialMT-75" d="M 2597 0 
L 2597 488 
Q 2209 -75 1544 -75 
Q 1250 -75 995 37 
Q 741 150 617 320 
Q 494 491 444 738 
Q 409 903 409 1263 
L 409 3319 
L 972 3319 
L 972 1478 
Q 972 1038 1006 884 
Q 1059 663 1231 536 
Q 1403 409 1656 409 
Q 1909 409 2131 539 
Q 2353 669 2445 892 
Q 2538 1116 2538 1541 
L 2538 3319 
L 3100 3319 
L 3100 0 
L 2597 0 
z
" transform="scale(0.015625)"/>
       <path id="ArialMT-29" d="M 791 -1347 
L 388 -1347 
Q 1322 153 1322 1656 
Q 1322 2244 1188 2822 
Q 1081 3291 891 3722 
Q 769 4003 388 4659 
L 791 4659 
Q 1378 3875 1659 3084 
Q 1900 2403 1900 1659 
Q 1900 816 1576 28 
Q 1253 -759 791 -1347 
z
" transform="scale(0.015625)"/>
      </defs>
      <use xlink:href="#ArialMT-52"/>
      <use xlink:href="#ArialMT-65" transform="translate(72.216797 0)"/>
      <use xlink:href="#ArialMT-77" transform="translate(127.832031 0)"/>
      <use xlink:href="#ArialMT-61" transform="translate(200.048828 0)"/>
      <use xlink:href="#ArialMT-72" transform="translate(255.664062 0)"/>
      <use xlink:href="#ArialMT-64" transform="translate(288.964844 0)"/>
      <use xlink:href="#ArialMT-20" transform="translate(344.580078 0)"/>
      <use xlink:href="#ArialMT-28" transform="translate(372.363281 0)"/>
      <use xlink:href="#ArialMT-69" transform="translate(405.664062 0)"/>
      <use xlink:href="#ArialMT-6e" transform="translate(427.880859 0)"/>
      <use xlink:href="#ArialMT-64" transform="translate(483.496094 0)"/>
      <use xlink:href="#ArialMT-69" transform="translate(539.111328 0)"/>
      <use xlink:href="#ArialMT-76" transform="translate(561.328125 0)"/>
      <use xlink:href="#ArialMT-69" transform="translate(611.328125 0)"/>
      <use xlink:href="#ArialMT-64" transform="translate(633.544922 0)"/>
      <use xlink:href="#ArialMT-75" transform="translate(689.160156 0)"/>
      <use xlink:href="#ArialMT-61" transform="translate(744.775391 0)"/>
      <use xlink:href="#ArialMT-6c" transform="translate(800.390625 0)"/>
      <use xlink:href="#ArialMT-20" transform="translate(822.607422 0)"/>
      <use xlink:href="#ArialMT-72" transform="translate(850.390625 0)"/>
      <use xlink:href="#ArialMT-75" transform="translate(883.691406 0)"/>
      <use xlink:href="#ArialMT-6e" transform="translate(939.306641 0)"/>
      <use xlink:href="#ArialMT-73" transform="translate(994.921875 0)"/>
      <use xlink:href="#ArialMT-29" transform="translate(1044.921875 0)"/>
     </g>
    </g>
    <g id="line2d_38">
     <path d="M 57.62 346.905625 
L 67.62 346.905625 
L 77.62 346.905625 
" style="fill: none; stroke: #ff0000; stroke-linecap: round"/>
    </g>
    <g id="text_33">
     <!-- Noise std (normalized) -->
     <g style="fill: #262626" transform="translate(85.62 350.405625) scale(0.1 -0.1)">
      <defs>
       <path id="ArialMT-7a" d="M 125 0 
L 125 456 
L 2238 2881 
Q 1878 2863 1603 2863 
L 250 2863 
L 250 3319 
L 2963 3319 
L 2963 2947 
L 1166 841 
L 819 456 
Q 1197 484 1528 484 
L 3063 484 
L 3063 0 
L 125 0 
z
" transform="scale(0.015625)"/>
      </defs>
      <use xlink:href="#ArialMT-4e"/>
      <use xlink:href="#ArialMT-6f" transform="translate(72.216797 0)"/>
      <use xlink:href="#ArialMT-69" transform="translate(127.832031 0)"/>
      <use xlink:href="#ArialMT-73" transform="translate(150.048828 0)"/>
      <use xlink:href="#ArialMT-65" transform="translate(200.048828 0)"/>
      <use xlink:href="#ArialMT-20" transform="translate(255.664062 0)"/>
      <use xlink:href="#ArialMT-73" transform="translate(283.447266 0)"/>
      <use xlink:href="#ArialMT-74" transform="translate(333.447266 0)"/>
      <use xlink:href="#ArialMT-64" transform="translate(361.230469 0)"/>
      <use xlink:href="#ArialMT-20" transform="translate(416.845703 0)"/>
      <use xlink:href="#ArialMT-28" transform="translate(444.628906 0)"/>
      <use xlink:href="#ArialMT-6e" transform="translate(477.929688 0)"/>
      <use xlink:href="#ArialMT-6f" transform="translate(533.544922 0)"/>
      <use xlink:href="#ArialMT-72" transform="translate(589.160156 0)"/>
      <use xlink:href="#ArialMT-6d" transform="translate(622.460938 0)"/>
      <use xlink:href="#ArialMT-61" transform="translate(705.761719 0)"/>
      <use xlink:href="#ArialMT-6c" transform="translate(761.376953 0)"/>
      <use xlink:href="#ArialMT-69" transform="translate(783.59375 0)"/>
      <use xlink:href="#ArialMT-7a" transform="translate(805.810547 0)"/>
      <use xlink:href="#ArialMT-65" transform="translate(855.810547 0)"/>
      <use xlink:href="#ArialMT-64" transform="translate(911.425781 0)"/>
      <use xlink:href="#ArialMT-29" transform="translate(967.041016 0)"/>
     </g>
    </g>
    <g id="line2d_39">
     <path d="M 57.62 361.29 
L 67.62 361.29 
L 77.62 361.29 
" style="fill: none; stroke: #800080; stroke-linecap: round"/>
    </g>
    <g id="text_34">
     <!-- Entropy (normalized) -->
     <g style="fill: #262626" transform="translate(85.62 364.79) scale(0.1 -0.1)">
      <defs>
       <path id="ArialMT-79" d="M 397 -1278 
L 334 -750 
Q 519 -800 656 -800 
Q 844 -800 956 -737 
Q 1069 -675 1141 -563 
Q 1194 -478 1313 -144 
Q 1328 -97 1363 -6 
L 103 3319 
L 709 3319 
L 1400 1397 
Q 1534 1031 1641 628 
Q 1738 1016 1872 1384 
L 2581 3319 
L 3144 3319 
L 1881 -56 
Q 1678 -603 1566 -809 
Q 1416 -1088 1222 -1217 
Q 1028 -1347 759 -1347 
Q 597 -1347 397 -1278 
z
" transform="scale(0.015625)"/>
      </defs>
      <use xlink:href="#ArialMT-45"/>
      <use xlink:href="#ArialMT-6e" transform="translate(66.699219 0)"/>
      <use xlink:href="#ArialMT-74" transform="translate(122.314453 0)"/>
      <use xlink:href="#ArialMT-72" transform="translate(150.097656 0)"/>
      <use xlink:href="#ArialMT-6f" transform="translate(183.398438 0)"/>
      <use xlink:href="#ArialMT-70" transform="translate(239.013672 0)"/>
      <use xlink:href="#ArialMT-79" transform="translate(294.628906 0)"/>
      <use xlink:href="#ArialMT-20" transform="translate(344.628906 0)"/>
      <use xlink:href="#ArialMT-28" transform="translate(372.412109 0)"/>
      <use xlink:href="#ArialMT-6e" transform="translate(405.712891 0)"/>
      <use xlink:href="#ArialMT-6f" transform="translate(461.328125 0)"/>
      <use xlink:href="#ArialMT-72" transform="translate(516.943359 0)"/>
      <use xlink:href="#ArialMT-6d" transform="translate(550.244141 0)"/>
      <use xlink:href="#ArialMT-61" transform="translate(633.544922 0)"/>
      <use xlink:href="#ArialMT-6c" transform="translate(689.160156 0)"/>
      <use xlink:href="#ArialMT-69" transform="translate(711.376953 0)"/>
      <use xlink:href="#ArialMT-7a" transform="translate(733.59375 0)"/>
      <use xlink:href="#ArialMT-65" transform="translate(783.59375 0)"/>
      <use xlink:href="#ArialMT-64" transform="translate(839.208984 0)"/>
      <use xlink:href="#ArialMT-29" transform="translate(894.824219 0)"/>
     </g>
    </g>
    <g id="patch_8">
     <path d="M 57.62 379.0525 
L 77.62 379.0525 
L 77.62 372.0525 
L 57.62 372.0525 
z
" style="fill: #0000ff; fill-opacity: 0.1"/>
    </g>
    <g id="text_35">
     <!-- Reward Standard Deviation -->
     <g style="fill: #262626" transform="translate(85.62 379.0525) scale(0.1 -0.1)">
      <defs>
       <path id="ArialMT-53" d="M 288 1472 
L 859 1522 
Q 900 1178 1048 958 
Q 1197 738 1509 602 
Q 1822 466 2213 466 
Q 2559 466 2825 569 
Q 3091 672 3220 851 
Q 3350 1031 3350 1244 
Q 3350 1459 3225 1620 
Q 3100 1781 2813 1891 
Q 2628 1963 1997 2114 
Q 1366 2266 1113 2400 
Q 784 2572 623 2826 
Q 463 3081 463 3397 
Q 463 3744 659 4045 
Q 856 4347 1234 4503 
Q 1613 4659 2075 4659 
Q 2584 4659 2973 4495 
Q 3363 4331 3572 4012 
Q 3781 3694 3797 3291 
L 3216 3247 
Q 3169 3681 2898 3903 
Q 2628 4125 2100 4125 
Q 1550 4125 1298 3923 
Q 1047 3722 1047 3438 
Q 1047 3191 1225 3031 
Q 1400 2872 2139 2705 
Q 2878 2538 3153 2413 
Q 3553 2228 3743 1945 
Q 3934 1663 3934 1294 
Q 3934 928 3725 604 
Q 3516 281 3123 101 
Q 2731 -78 2241 -78 
Q 1619 -78 1198 103 
Q 778 284 539 648 
Q 300 1013 288 1472 
z
" transform="scale(0.015625)"/>
       <path id="ArialMT-44" d="M 494 0 
L 494 4581 
L 2072 4581 
Q 2606 4581 2888 4516 
Q 3281 4425 3559 4188 
Q 3922 3881 4101 3404 
Q 4281 2928 4281 2316 
Q 4281 1794 4159 1391 
Q 4038 988 3847 723 
Q 3656 459 3429 307 
Q 3203 156 2883 78 
Q 2563 0 2147 0 
L 494 0 
z
M 1100 541 
L 2078 541 
Q 2531 541 2789 625 
Q 3047 709 3200 863 
Q 3416 1078 3536 1442 
Q 3656 1806 3656 2325 
Q 3656 3044 3420 3430 
Q 3184 3816 2847 3947 
Q 2603 4041 2063 4041 
L 1100 4041 
L 1100 541 
z
" transform="scale(0.015625)"/>
      </defs>
      <use xlink:href="#ArialMT-52"/>
      <use xlink:href="#ArialMT-65" transform="translate(72.216797 0)"/>
      <use xlink:href="#ArialMT-77" transform="translate(127.832031 0)"/>
      <use xlink:href="#ArialMT-61" transform="translate(200.048828 0)"/>
      <use xlink:href="#ArialMT-72" transform="translate(255.664062 0)"/>
      <use xlink:href="#ArialMT-64" transform="translate(288.964844 0)"/>
      <use xlink:href="#ArialMT-20" transform="translate(344.580078 0)"/>
      <use xlink:href="#ArialMT-53" transform="translate(372.363281 0)"/>
      <use xlink:href="#ArialMT-74" transform="translate(439.0625 0)"/>
      <use xlink:href="#ArialMT-61" transform="translate(466.845703 0)"/>
      <use xlink:href="#ArialMT-6e" transform="translate(522.460938 0)"/>
      <use xlink:href="#ArialMT-64" transform="translate(578.076172 0)"/>
      <use xlink:href="#ArialMT-61" transform="translate(633.691406 0)"/>
      <use xlink:href="#ArialMT-72" transform="translate(689.306641 0)"/>
      <use xlink:href="#ArialMT-64" transform="translate(722.607422 0)"/>
      <use xlink:href="#ArialMT-20" transform="translate(778.222656 0)"/>
      <use xlink:href="#ArialMT-44" transform="translate(806.005859 0)"/>
      <use xlink:href="#ArialMT-65" transform="translate(878.222656 0)"/>
      <use xlink:href="#ArialMT-76" transform="translate(933.837891 0)"/>
      <use xlink:href="#ArialMT-69" transform="translate(983.837891 0)"/>
      <use xlink:href="#ArialMT-61" transform="translate(1006.054688 0)"/>
      <use xlink:href="#ArialMT-74" transform="translate(1061.669922 0)"/>
      <use xlink:href="#ArialMT-69" transform="translate(1089.453125 0)"/>
      <use xlink:href="#ArialMT-6f" transform="translate(1111.669922 0)"/>
      <use xlink:href="#ArialMT-6e" transform="translate(1167.285156 0)"/>
     </g>
    </g>
   </g>
  </g>
 </g>
 <defs>
  <clipPath id="pa1f87f786b">
   <rect x="48.62" y="25.49625" width="516.58" height="364.54375"/>
  </clipPath>
 </defs>
</svg>
