<?xml version="1.0" encoding="utf-8" standalone="no"?>
<!DOCTYPE svg PUBLIC "-//W3C//DTD SVG 1.1//EN"
  "http://www.w3.org/Graphics/SVG/1.1/DTD/svg11.dtd">
<svg xmlns:xlink="http://www.w3.org/1999/xlink" width="576pt" height="432pt" viewBox="0 0 576 432" xmlns="http://www.w3.org/2000/svg" version="1.1">
 <metadata>
  <rdf:RDF xmlns:dc="http://purl.org/dc/elements/1.1/" xmlns:cc="http://creativecommons.org/ns#" xmlns:rdf="http://www.w3.org/1999/02/22-rdf-syntax-ns#">
   <cc:Work>
    <dc:type rdf:resource="http://purl.org/dc/dcmitype/StillImage"/>
    <dc:date>2025-06-12T21:49:08.466727</dc:date>
    <dc:format>image/svg+xml</dc:format>
    <dc:creator>
     <cc:Agent>
      <dc:title>Matplotlib v3.10.0, https://matplotlib.org/</dc:title>
     </cc:Agent>
    </dc:creator>
   </cc:Work>
  </rdf:RDF>
 </metadata>
 <defs>
  <style type="text/css">*{stroke-linejoin: round; stroke-linecap: butt}</style>
 </defs>
 <g id="figure_1">
  <g id="patch_1">
   <path d="M 0 432 
L 576 432 
L 576 0 
L 0 0 
z
" style="fill: #ffffff"/>
  </g>
  <g id="axes_1">
   <g id="patch_2">
    <path d="M 48.62 390.04 
L 565.2 390.04 
L 565.2 25.49625 
L 48.62 25.49625 
z
" style="fill: #eaeaf2"/>
   </g>
   <g id="matplotlib.axis_1">
    <g id="xtick_1">
     <g id="line2d_1">
      <path d="M 58.554231 390.04 
L 58.554231 25.49625 
" clip-path="url(#p0e07c4d981)" style="fill: none; stroke: #ffffff; stroke-width: 0.8; stroke-linecap: round"/>
     </g>
     <g id="text_1">
      <!-- 0 -->
      <g style="fill: #262626" transform="translate(55.773762 404.197812) scale(0.1 -0.1)">
       <defs>
        <path id="ArialMT-30" d="M 266 2259 
Q 266 3072 433 3567 
Q 600 4063 929 4331 
Q 1259 4600 1759 4600 
Q 2128 4600 2406 4451 
Q 2684 4303 2865 4023 
Q 3047 3744 3150 3342 
Q 3253 2941 3253 2259 
Q 3253 1453 3087 958 
Q 2922 463 2592 192 
Q 2263 -78 1759 -78 
Q 1097 -78 719 397 
Q 266 969 266 2259 
z
M 844 2259 
Q 844 1131 1108 757 
Q 1372 384 1759 384 
Q 2147 384 2411 759 
Q 2675 1134 2675 2259 
Q 2675 3391 2411 3762 
Q 2147 4134 1753 4134 
Q 1366 4134 1134 3806 
Q 844 3388 844 2259 
z
" transform="scale(0.015625)"/>
       </defs>
       <use xlink:href="#ArialMT-30"/>
      </g>
     </g>
    </g>
    <g id="xtick_2">
     <g id="line2d_2">
      <path d="M 91.668333 390.04 
L 91.668333 25.49625 
" clip-path="url(#p0e07c4d981)" style="fill: none; stroke: #ffffff; stroke-width: 0.8; stroke-linecap: round"/>
     </g>
     <g id="text_2">
      <!-- 10 -->
      <g style="fill: #262626" transform="translate(86.107396 404.197812) scale(0.1 -0.1)">
       <defs>
        <path id="ArialMT-31" d="M 2384 0 
L 1822 0 
L 1822 3584 
Q 1619 3391 1289 3197 
Q 959 3003 697 2906 
L 697 3450 
Q 1169 3672 1522 3987 
Q 1875 4303 2022 4600 
L 2384 4600 
L 2384 0 
z
" transform="scale(0.015625)"/>
       </defs>
       <use xlink:href="#ArialMT-31"/>
       <use xlink:href="#ArialMT-30" transform="translate(55.615234 0)"/>
      </g>
     </g>
    </g>
    <g id="xtick_3">
     <g id="line2d_3">
      <path d="M 124.782436 390.04 
L 124.782436 25.49625 
" clip-path="url(#p0e07c4d981)" style="fill: none; stroke: #ffffff; stroke-width: 0.8; stroke-linecap: round"/>
     </g>
     <g id="text_3">
      <!-- 20 -->
      <g style="fill: #262626" transform="translate(119.221498 404.197812) scale(0.1 -0.1)">
       <defs>
        <path id="ArialMT-32" d="M 3222 541 
L 3222 0 
L 194 0 
Q 188 203 259 391 
Q 375 700 629 1000 
Q 884 1300 1366 1694 
Q 2113 2306 2375 2664 
Q 2638 3022 2638 3341 
Q 2638 3675 2398 3904 
Q 2159 4134 1775 4134 
Q 1369 4134 1125 3890 
Q 881 3647 878 3216 
L 300 3275 
Q 359 3922 746 4261 
Q 1134 4600 1788 4600 
Q 2447 4600 2831 4234 
Q 3216 3869 3216 3328 
Q 3216 3053 3103 2787 
Q 2991 2522 2730 2228 
Q 2469 1934 1863 1422 
Q 1356 997 1212 845 
Q 1069 694 975 541 
L 3222 541 
z
" transform="scale(0.015625)"/>
       </defs>
       <use xlink:href="#ArialMT-32"/>
       <use xlink:href="#ArialMT-30" transform="translate(55.615234 0)"/>
      </g>
     </g>
    </g>
    <g id="xtick_4">
     <g id="line2d_4">
      <path d="M 157.896538 390.04 
L 157.896538 25.49625 
" clip-path="url(#p0e07c4d981)" style="fill: none; stroke: #ffffff; stroke-width: 0.8; stroke-linecap: round"/>
     </g>
     <g id="text_4">
      <!-- 30 -->
      <g style="fill: #262626" transform="translate(152.335601 404.197812) scale(0.1 -0.1)">
       <defs>
        <path id="ArialMT-33" d="M 269 1209 
L 831 1284 
Q 928 806 1161 595 
Q 1394 384 1728 384 
Q 2125 384 2398 659 
Q 2672 934 2672 1341 
Q 2672 1728 2419 1979 
Q 2166 2231 1775 2231 
Q 1616 2231 1378 2169 
L 1441 2663 
Q 1497 2656 1531 2656 
Q 1891 2656 2178 2843 
Q 2466 3031 2466 3422 
Q 2466 3731 2256 3934 
Q 2047 4138 1716 4138 
Q 1388 4138 1169 3931 
Q 950 3725 888 3313 
L 325 3413 
Q 428 3978 793 4289 
Q 1159 4600 1703 4600 
Q 2078 4600 2393 4439 
Q 2709 4278 2876 4000 
Q 3044 3722 3044 3409 
Q 3044 3113 2884 2869 
Q 2725 2625 2413 2481 
Q 2819 2388 3044 2092 
Q 3269 1797 3269 1353 
Q 3269 753 2831 336 
Q 2394 -81 1725 -81 
Q 1122 -81 723 278 
Q 325 638 269 1209 
z
" transform="scale(0.015625)"/>
       </defs>
       <use xlink:href="#ArialMT-33"/>
       <use xlink:href="#ArialMT-30" transform="translate(55.615234 0)"/>
      </g>
     </g>
    </g>
    <g id="xtick_5">
     <g id="line2d_5">
      <path d="M 191.010641 390.04 
L 191.010641 25.49625 
" clip-path="url(#p0e07c4d981)" style="fill: none; stroke: #ffffff; stroke-width: 0.8; stroke-linecap: round"/>
     </g>
     <g id="text_5">
      <!-- 40 -->
      <g style="fill: #262626" transform="translate(185.449704 404.197812) scale(0.1 -0.1)">
       <defs>
        <path id="ArialMT-34" d="M 2069 0 
L 2069 1097 
L 81 1097 
L 81 1613 
L 2172 4581 
L 2631 4581 
L 2631 1613 
L 3250 1613 
L 3250 1097 
L 2631 1097 
L 2631 0 
L 2069 0 
z
M 2069 1613 
L 2069 3678 
L 634 1613 
L 2069 1613 
z
" transform="scale(0.015625)"/>
       </defs>
       <use xlink:href="#ArialMT-34"/>
       <use xlink:href="#ArialMT-30" transform="translate(55.615234 0)"/>
      </g>
     </g>
    </g>
    <g id="xtick_6">
     <g id="line2d_6">
      <path d="M 224.124744 390.04 
L 224.124744 25.49625 
" clip-path="url(#p0e07c4d981)" style="fill: none; stroke: #ffffff; stroke-width: 0.8; stroke-linecap: round"/>
     </g>
     <g id="text_6">
      <!-- 50 -->
      <g style="fill: #262626" transform="translate(218.563806 404.197812) scale(0.1 -0.1)">
       <defs>
        <path id="ArialMT-35" d="M 266 1200 
L 856 1250 
Q 922 819 1161 601 
Q 1400 384 1738 384 
Q 2144 384 2425 690 
Q 2706 997 2706 1503 
Q 2706 1984 2436 2262 
Q 2166 2541 1728 2541 
Q 1456 2541 1237 2417 
Q 1019 2294 894 2097 
L 366 2166 
L 809 4519 
L 3088 4519 
L 3088 3981 
L 1259 3981 
L 1013 2750 
Q 1425 3038 1878 3038 
Q 2478 3038 2890 2622 
Q 3303 2206 3303 1553 
Q 3303 931 2941 478 
Q 2500 -78 1738 -78 
Q 1113 -78 717 272 
Q 322 622 266 1200 
z
" transform="scale(0.015625)"/>
       </defs>
       <use xlink:href="#ArialMT-35"/>
       <use xlink:href="#ArialMT-30" transform="translate(55.615234 0)"/>
      </g>
     </g>
    </g>
    <g id="xtick_7">
     <g id="line2d_7">
      <path d="M 257.238846 390.04 
L 257.238846 25.49625 
" clip-path="url(#p0e07c4d981)" style="fill: none; stroke: #ffffff; stroke-width: 0.8; stroke-linecap: round"/>
     </g>
     <g id="text_7">
      <!-- 60 -->
      <g style="fill: #262626" transform="translate(251.677909 404.197812) scale(0.1 -0.1)">
       <defs>
        <path id="ArialMT-36" d="M 3184 3459 
L 2625 3416 
Q 2550 3747 2413 3897 
Q 2184 4138 1850 4138 
Q 1581 4138 1378 3988 
Q 1113 3794 959 3422 
Q 806 3050 800 2363 
Q 1003 2672 1297 2822 
Q 1591 2972 1913 2972 
Q 2475 2972 2870 2558 
Q 3266 2144 3266 1488 
Q 3266 1056 3080 686 
Q 2894 316 2569 119 
Q 2244 -78 1831 -78 
Q 1128 -78 684 439 
Q 241 956 241 2144 
Q 241 3472 731 4075 
Q 1159 4600 1884 4600 
Q 2425 4600 2770 4297 
Q 3116 3994 3184 3459 
z
M 888 1484 
Q 888 1194 1011 928 
Q 1134 663 1356 523 
Q 1578 384 1822 384 
Q 2178 384 2434 671 
Q 2691 959 2691 1453 
Q 2691 1928 2437 2201 
Q 2184 2475 1800 2475 
Q 1419 2475 1153 2201 
Q 888 1928 888 1484 
z
" transform="scale(0.015625)"/>
       </defs>
       <use xlink:href="#ArialMT-36"/>
       <use xlink:href="#ArialMT-30" transform="translate(55.615234 0)"/>
      </g>
     </g>
    </g>
    <g id="xtick_8">
     <g id="line2d_8">
      <path d="M 290.352949 390.04 
L 290.352949 25.49625 
" clip-path="url(#p0e07c4d981)" style="fill: none; stroke: #ffffff; stroke-width: 0.8; stroke-linecap: round"/>
     </g>
     <g id="text_8">
      <!-- 70 -->
      <g style="fill: #262626" transform="translate(284.792011 404.197812) scale(0.1 -0.1)">
       <defs>
        <path id="ArialMT-37" d="M 303 3981 
L 303 4522 
L 3269 4522 
L 3269 4084 
Q 2831 3619 2401 2847 
Q 1972 2075 1738 1259 
Q 1569 684 1522 0 
L 944 0 
Q 953 541 1156 1306 
Q 1359 2072 1739 2783 
Q 2119 3494 2547 3981 
L 303 3981 
z
" transform="scale(0.015625)"/>
       </defs>
       <use xlink:href="#ArialMT-37"/>
       <use xlink:href="#ArialMT-30" transform="translate(55.615234 0)"/>
      </g>
     </g>
    </g>
    <g id="xtick_9">
     <g id="line2d_9">
      <path d="M 323.467051 390.04 
L 323.467051 25.49625 
" clip-path="url(#p0e07c4d981)" style="fill: none; stroke: #ffffff; stroke-width: 0.8; stroke-linecap: round"/>
     </g>
     <g id="text_9">
      <!-- 80 -->
      <g style="fill: #262626" transform="translate(317.906114 404.197812) scale(0.1 -0.1)">
       <defs>
        <path id="ArialMT-38" d="M 1131 2484 
Q 781 2613 612 2850 
Q 444 3088 444 3419 
Q 444 3919 803 4259 
Q 1163 4600 1759 4600 
Q 2359 4600 2725 4251 
Q 3091 3903 3091 3403 
Q 3091 3084 2923 2848 
Q 2756 2613 2416 2484 
Q 2838 2347 3058 2040 
Q 3278 1734 3278 1309 
Q 3278 722 2862 322 
Q 2447 -78 1769 -78 
Q 1091 -78 675 323 
Q 259 725 259 1325 
Q 259 1772 486 2073 
Q 713 2375 1131 2484 
z
M 1019 3438 
Q 1019 3113 1228 2906 
Q 1438 2700 1772 2700 
Q 2097 2700 2305 2904 
Q 2513 3109 2513 3406 
Q 2513 3716 2298 3927 
Q 2084 4138 1766 4138 
Q 1444 4138 1231 3931 
Q 1019 3725 1019 3438 
z
M 838 1322 
Q 838 1081 952 856 
Q 1066 631 1291 507 
Q 1516 384 1775 384 
Q 2178 384 2440 643 
Q 2703 903 2703 1303 
Q 2703 1709 2433 1975 
Q 2163 2241 1756 2241 
Q 1359 2241 1098 1978 
Q 838 1716 838 1322 
z
" transform="scale(0.015625)"/>
       </defs>
       <use xlink:href="#ArialMT-38"/>
       <use xlink:href="#ArialMT-30" transform="translate(55.615234 0)"/>
      </g>
     </g>
    </g>
    <g id="xtick_10">
     <g id="line2d_10">
      <path d="M 356.581154 390.04 
L 356.581154 25.49625 
" clip-path="url(#p0e07c4d981)" style="fill: none; stroke: #ffffff; stroke-width: 0.8; stroke-linecap: round"/>
     </g>
     <g id="text_10">
      <!-- 90 -->
      <g style="fill: #262626" transform="translate(351.020216 404.197812) scale(0.1 -0.1)">
       <defs>
        <path id="ArialMT-39" d="M 350 1059 
L 891 1109 
Q 959 728 1153 556 
Q 1347 384 1650 384 
Q 1909 384 2104 503 
Q 2300 622 2425 820 
Q 2550 1019 2634 1356 
Q 2719 1694 2719 2044 
Q 2719 2081 2716 2156 
Q 2547 1888 2255 1720 
Q 1963 1553 1622 1553 
Q 1053 1553 659 1965 
Q 266 2378 266 3053 
Q 266 3750 677 4175 
Q 1088 4600 1706 4600 
Q 2153 4600 2523 4359 
Q 2894 4119 3086 3673 
Q 3278 3228 3278 2384 
Q 3278 1506 3087 986 
Q 2897 466 2520 194 
Q 2144 -78 1638 -78 
Q 1100 -78 759 220 
Q 419 519 350 1059 
z
M 2653 3081 
Q 2653 3566 2395 3850 
Q 2138 4134 1775 4134 
Q 1400 4134 1122 3828 
Q 844 3522 844 3034 
Q 844 2597 1108 2323 
Q 1372 2050 1759 2050 
Q 2150 2050 2401 2323 
Q 2653 2597 2653 3081 
z
" transform="scale(0.015625)"/>
       </defs>
       <use xlink:href="#ArialMT-39"/>
       <use xlink:href="#ArialMT-30" transform="translate(55.615234 0)"/>
      </g>
     </g>
    </g>
    <g id="xtick_11">
     <g id="line2d_11">
      <path d="M 389.695256 390.04 
L 389.695256 25.49625 
" clip-path="url(#p0e07c4d981)" style="fill: none; stroke: #ffffff; stroke-width: 0.8; stroke-linecap: round"/>
     </g>
     <g id="text_11">
      <!-- 100 -->
      <g style="fill: #262626" transform="translate(381.35385 404.197812) scale(0.1 -0.1)">
       <use xlink:href="#ArialMT-31"/>
       <use xlink:href="#ArialMT-30" transform="translate(55.615234 0)"/>
       <use xlink:href="#ArialMT-30" transform="translate(111.230469 0)"/>
      </g>
     </g>
    </g>
    <g id="xtick_12">
     <g id="line2d_12">
      <path d="M 422.809359 390.04 
L 422.809359 25.49625 
" clip-path="url(#p0e07c4d981)" style="fill: none; stroke: #ffffff; stroke-width: 0.8; stroke-linecap: round"/>
     </g>
     <g id="text_12">
      <!-- 110 -->
      <g style="fill: #262626" transform="translate(414.836703 404.197812) scale(0.1 -0.1)">
       <use xlink:href="#ArialMT-31"/>
       <use xlink:href="#ArialMT-31" transform="translate(48.240234 0)"/>
       <use xlink:href="#ArialMT-30" transform="translate(103.855469 0)"/>
      </g>
     </g>
    </g>
    <g id="xtick_13">
     <g id="line2d_13">
      <path d="M 455.923462 390.04 
L 455.923462 25.49625 
" clip-path="url(#p0e07c4d981)" style="fill: none; stroke: #ffffff; stroke-width: 0.8; stroke-linecap: round"/>
     </g>
     <g id="text_13">
      <!-- 120 -->
      <g style="fill: #262626" transform="translate(447.582055 404.197812) scale(0.1 -0.1)">
       <use xlink:href="#ArialMT-31"/>
       <use xlink:href="#ArialMT-32" transform="translate(55.615234 0)"/>
       <use xlink:href="#ArialMT-30" transform="translate(111.230469 0)"/>
      </g>
     </g>
    </g>
    <g id="xtick_14">
     <g id="line2d_14">
      <path d="M 489.037564 390.04 
L 489.037564 25.49625 
" clip-path="url(#p0e07c4d981)" style="fill: none; stroke: #ffffff; stroke-width: 0.8; stroke-linecap: round"/>
     </g>
     <g id="text_14">
      <!-- 130 -->
      <g style="fill: #262626" transform="translate(480.696158 404.197812) scale(0.1 -0.1)">
       <use xlink:href="#ArialMT-31"/>
       <use xlink:href="#ArialMT-33" transform="translate(55.615234 0)"/>
       <use xlink:href="#ArialMT-30" transform="translate(111.230469 0)"/>
      </g>
     </g>
    </g>
    <g id="xtick_15">
     <g id="line2d_15">
      <path d="M 522.151667 390.04 
L 522.151667 25.49625 
" clip-path="url(#p0e07c4d981)" style="fill: none; stroke: #ffffff; stroke-width: 0.8; stroke-linecap: round"/>
     </g>
     <g id="text_15">
      <!-- 140 -->
      <g style="fill: #262626" transform="translate(513.81026 404.197812) scale(0.1 -0.1)">
       <use xlink:href="#ArialMT-31"/>
       <use xlink:href="#ArialMT-34" transform="translate(55.615234 0)"/>
       <use xlink:href="#ArialMT-30" transform="translate(111.230469 0)"/>
      </g>
     </g>
    </g>
    <g id="xtick_16">
     <g id="line2d_16">
      <path d="M 555.265769 390.04 
L 555.265769 25.49625 
" clip-path="url(#p0e07c4d981)" style="fill: none; stroke: #ffffff; stroke-width: 0.8; stroke-linecap: round"/>
     </g>
     <g id="text_16">
      <!-- 150 -->
      <g style="fill: #262626" transform="translate(546.924363 404.197812) scale(0.1 -0.1)">
       <use xlink:href="#ArialMT-31"/>
       <use xlink:href="#ArialMT-35" transform="translate(55.615234 0)"/>
       <use xlink:href="#ArialMT-30" transform="translate(111.230469 0)"/>
      </g>
     </g>
    </g>
    <g id="text_17">
     <!-- Episode -->
     <g style="fill: #262626" transform="translate(288.842031 417.343125) scale(0.1 -0.1)">
      <defs>
       <path id="ArialMT-45" d="M 506 0 
L 506 4581 
L 3819 4581 
L 3819 4041 
L 1113 4041 
L 1113 2638 
L 3647 2638 
L 3647 2100 
L 1113 2100 
L 1113 541 
L 3925 541 
L 3925 0 
L 506 0 
z
" transform="scale(0.015625)"/>
       <path id="ArialMT-70" d="M 422 -1272 
L 422 3319 
L 934 3319 
L 934 2888 
Q 1116 3141 1344 3267 
Q 1572 3394 1897 3394 
Q 2322 3394 2647 3175 
Q 2972 2956 3137 2557 
Q 3303 2159 3303 1684 
Q 3303 1175 3120 767 
Q 2938 359 2589 142 
Q 2241 -75 1856 -75 
Q 1575 -75 1351 44 
Q 1128 163 984 344 
L 984 -1272 
L 422 -1272 
z
M 931 1641 
Q 931 1000 1190 694 
Q 1450 388 1819 388 
Q 2194 388 2461 705 
Q 2728 1022 2728 1688 
Q 2728 2322 2467 2637 
Q 2206 2953 1844 2953 
Q 1484 2953 1207 2617 
Q 931 2281 931 1641 
z
" transform="scale(0.015625)"/>
       <path id="ArialMT-69" d="M 425 3934 
L 425 4581 
L 988 4581 
L 988 3934 
L 425 3934 
z
M 425 0 
L 425 3319 
L 988 3319 
L 988 0 
L 425 0 
z
" transform="scale(0.015625)"/>
       <path id="ArialMT-73" d="M 197 991 
L 753 1078 
Q 800 744 1014 566 
Q 1228 388 1613 388 
Q 2000 388 2187 545 
Q 2375 703 2375 916 
Q 2375 1106 2209 1216 
Q 2094 1291 1634 1406 
Q 1016 1563 777 1677 
Q 538 1791 414 1992 
Q 291 2194 291 2438 
Q 291 2659 392 2848 
Q 494 3038 669 3163 
Q 800 3259 1026 3326 
Q 1253 3394 1513 3394 
Q 1903 3394 2198 3281 
Q 2494 3169 2634 2976 
Q 2775 2784 2828 2463 
L 2278 2388 
Q 2241 2644 2061 2787 
Q 1881 2931 1553 2931 
Q 1166 2931 1000 2803 
Q 834 2675 834 2503 
Q 834 2394 903 2306 
Q 972 2216 1119 2156 
Q 1203 2125 1616 2013 
Q 2213 1853 2448 1751 
Q 2684 1650 2818 1456 
Q 2953 1263 2953 975 
Q 2953 694 2789 445 
Q 2625 197 2315 61 
Q 2006 -75 1616 -75 
Q 969 -75 630 194 
Q 291 463 197 991 
z
" transform="scale(0.015625)"/>
       <path id="ArialMT-6f" d="M 213 1659 
Q 213 2581 725 3025 
Q 1153 3394 1769 3394 
Q 2453 3394 2887 2945 
Q 3322 2497 3322 1706 
Q 3322 1066 3130 698 
Q 2938 331 2570 128 
Q 2203 -75 1769 -75 
Q 1072 -75 642 372 
Q 213 819 213 1659 
z
M 791 1659 
Q 791 1022 1069 705 
Q 1347 388 1769 388 
Q 2188 388 2466 706 
Q 2744 1025 2744 1678 
Q 2744 2294 2464 2611 
Q 2184 2928 1769 2928 
Q 1347 2928 1069 2612 
Q 791 2297 791 1659 
z
" transform="scale(0.015625)"/>
       <path id="ArialMT-64" d="M 2575 0 
L 2575 419 
Q 2259 -75 1647 -75 
Q 1250 -75 917 144 
Q 584 363 401 755 
Q 219 1147 219 1656 
Q 219 2153 384 2558 
Q 550 2963 881 3178 
Q 1213 3394 1622 3394 
Q 1922 3394 2156 3267 
Q 2391 3141 2538 2938 
L 2538 4581 
L 3097 4581 
L 3097 0 
L 2575 0 
z
M 797 1656 
Q 797 1019 1065 703 
Q 1334 388 1700 388 
Q 2069 388 2326 689 
Q 2584 991 2584 1609 
Q 2584 2291 2321 2609 
Q 2059 2928 1675 2928 
Q 1300 2928 1048 2622 
Q 797 2316 797 1656 
z
" transform="scale(0.015625)"/>
       <path id="ArialMT-65" d="M 2694 1069 
L 3275 997 
Q 3138 488 2766 206 
Q 2394 -75 1816 -75 
Q 1088 -75 661 373 
Q 234 822 234 1631 
Q 234 2469 665 2931 
Q 1097 3394 1784 3394 
Q 2450 3394 2872 2941 
Q 3294 2488 3294 1666 
Q 3294 1616 3291 1516 
L 816 1516 
Q 847 969 1125 678 
Q 1403 388 1819 388 
Q 2128 388 2347 550 
Q 2566 713 2694 1069 
z
M 847 1978 
L 2700 1978 
Q 2663 2397 2488 2606 
Q 2219 2931 1791 2931 
Q 1403 2931 1139 2672 
Q 875 2413 847 1978 
z
" transform="scale(0.015625)"/>
      </defs>
      <use xlink:href="#ArialMT-45"/>
      <use xlink:href="#ArialMT-70" transform="translate(66.699219 0)"/>
      <use xlink:href="#ArialMT-69" transform="translate(122.314453 0)"/>
      <use xlink:href="#ArialMT-73" transform="translate(144.53125 0)"/>
      <use xlink:href="#ArialMT-6f" transform="translate(194.53125 0)"/>
      <use xlink:href="#ArialMT-64" transform="translate(250.146484 0)"/>
      <use xlink:href="#ArialMT-65" transform="translate(305.761719 0)"/>
     </g>
    </g>
   </g>
   <g id="matplotlib.axis_2">
    <g id="ytick_1">
     <g id="line2d_17">
      <path d="M 48.62 390.04 
L 565.2 390.04 
" clip-path="url(#p0e07c4d981)" style="fill: none; stroke: #ffffff; stroke-width: 0.8; stroke-linecap: round"/>
     </g>
     <g id="text_18">
      <!-- 0 -->
      <g style="fill: #262626" transform="translate(36.059063 393.618906) scale(0.1 -0.1)">
       <use xlink:href="#ArialMT-30"/>
      </g>
     </g>
    </g>
    <g id="ytick_2">
     <g id="line2d_18">
      <path d="M 48.62 354.987716 
L 565.2 354.987716 
" clip-path="url(#p0e07c4d981)" style="fill: none; stroke: #ffffff; stroke-width: 0.8; stroke-linecap: round"/>
     </g>
     <g id="text_19">
      <!-- 50 -->
      <g style="fill: #262626" transform="translate(30.498125 358.566623) scale(0.1 -0.1)">
       <use xlink:href="#ArialMT-35"/>
       <use xlink:href="#ArialMT-30" transform="translate(55.615234 0)"/>
      </g>
     </g>
    </g>
    <g id="ytick_3">
     <g id="line2d_19">
      <path d="M 48.62 319.935433 
L 565.2 319.935433 
" clip-path="url(#p0e07c4d981)" style="fill: none; stroke: #ffffff; stroke-width: 0.8; stroke-linecap: round"/>
     </g>
     <g id="text_20">
      <!-- 100 -->
      <g style="fill: #262626" transform="translate(24.937188 323.514339) scale(0.1 -0.1)">
       <use xlink:href="#ArialMT-31"/>
       <use xlink:href="#ArialMT-30" transform="translate(55.615234 0)"/>
       <use xlink:href="#ArialMT-30" transform="translate(111.230469 0)"/>
      </g>
     </g>
    </g>
    <g id="ytick_4">
     <g id="line2d_20">
      <path d="M 48.62 284.883149 
L 565.2 284.883149 
" clip-path="url(#p0e07c4d981)" style="fill: none; stroke: #ffffff; stroke-width: 0.8; stroke-linecap: round"/>
     </g>
     <g id="text_21">
      <!-- 150 -->
      <g style="fill: #262626" transform="translate(24.937188 288.462055) scale(0.1 -0.1)">
       <use xlink:href="#ArialMT-31"/>
       <use xlink:href="#ArialMT-35" transform="translate(55.615234 0)"/>
       <use xlink:href="#ArialMT-30" transform="translate(111.230469 0)"/>
      </g>
     </g>
    </g>
    <g id="ytick_5">
     <g id="line2d_21">
      <path d="M 48.62 249.830865 
L 565.2 249.830865 
" clip-path="url(#p0e07c4d981)" style="fill: none; stroke: #ffffff; stroke-width: 0.8; stroke-linecap: round"/>
     </g>
     <g id="text_22">
      <!-- 200 -->
      <g style="fill: #262626" transform="translate(24.937188 253.409772) scale(0.1 -0.1)">
       <use xlink:href="#ArialMT-32"/>
       <use xlink:href="#ArialMT-30" transform="translate(55.615234 0)"/>
       <use xlink:href="#ArialMT-30" transform="translate(111.230469 0)"/>
      </g>
     </g>
    </g>
    <g id="ytick_6">
     <g id="line2d_22">
      <path d="M 48.62 214.778582 
L 565.2 214.778582 
" clip-path="url(#p0e07c4d981)" style="fill: none; stroke: #ffffff; stroke-width: 0.8; stroke-linecap: round"/>
     </g>
     <g id="text_23">
      <!-- 250 -->
      <g style="fill: #262626" transform="translate(24.937188 218.357488) scale(0.1 -0.1)">
       <use xlink:href="#ArialMT-32"/>
       <use xlink:href="#ArialMT-35" transform="translate(55.615234 0)"/>
       <use xlink:href="#ArialMT-30" transform="translate(111.230469 0)"/>
      </g>
     </g>
    </g>
    <g id="ytick_7">
     <g id="line2d_23">
      <path d="M 48.62 179.726298 
L 565.2 179.726298 
" clip-path="url(#p0e07c4d981)" style="fill: none; stroke: #ffffff; stroke-width: 0.8; stroke-linecap: round"/>
     </g>
     <g id="text_24">
      <!-- 300 -->
      <g style="fill: #262626" transform="translate(24.937188 183.305204) scale(0.1 -0.1)">
       <use xlink:href="#ArialMT-33"/>
       <use xlink:href="#ArialMT-30" transform="translate(55.615234 0)"/>
       <use xlink:href="#ArialMT-30" transform="translate(111.230469 0)"/>
      </g>
     </g>
    </g>
    <g id="ytick_8">
     <g id="line2d_24">
      <path d="M 48.62 144.674014 
L 565.2 144.674014 
" clip-path="url(#p0e07c4d981)" style="fill: none; stroke: #ffffff; stroke-width: 0.8; stroke-linecap: round"/>
     </g>
     <g id="text_25">
      <!-- 350 -->
      <g style="fill: #262626" transform="translate(24.937188 148.252921) scale(0.1 -0.1)">
       <use xlink:href="#ArialMT-33"/>
       <use xlink:href="#ArialMT-35" transform="translate(55.615234 0)"/>
       <use xlink:href="#ArialMT-30" transform="translate(111.230469 0)"/>
      </g>
     </g>
    </g>
    <g id="ytick_9">
     <g id="line2d_25">
      <path d="M 48.62 109.621731 
L 565.2 109.621731 
" clip-path="url(#p0e07c4d981)" style="fill: none; stroke: #ffffff; stroke-width: 0.8; stroke-linecap: round"/>
     </g>
     <g id="text_26">
      <!-- 400 -->
      <g style="fill: #262626" transform="translate(24.937188 113.200637) scale(0.1 -0.1)">
       <use xlink:href="#ArialMT-34"/>
       <use xlink:href="#ArialMT-30" transform="translate(55.615234 0)"/>
       <use xlink:href="#ArialMT-30" transform="translate(111.230469 0)"/>
      </g>
     </g>
    </g>
    <g id="ytick_10">
     <g id="line2d_26">
      <path d="M 48.62 74.569447 
L 565.2 74.569447 
" clip-path="url(#p0e07c4d981)" style="fill: none; stroke: #ffffff; stroke-width: 0.8; stroke-linecap: round"/>
     </g>
     <g id="text_27">
      <!-- 450 -->
      <g style="fill: #262626" transform="translate(24.937188 78.148353) scale(0.1 -0.1)">
       <use xlink:href="#ArialMT-34"/>
       <use xlink:href="#ArialMT-35" transform="translate(55.615234 0)"/>
       <use xlink:href="#ArialMT-30" transform="translate(111.230469 0)"/>
      </g>
     </g>
    </g>
    <g id="ytick_11">
     <g id="line2d_27">
      <path d="M 48.62 39.517163 
L 565.2 39.517163 
" clip-path="url(#p0e07c4d981)" style="fill: none; stroke: #ffffff; stroke-width: 0.8; stroke-linecap: round"/>
     </g>
     <g id="text_28">
      <!-- 500 -->
      <g style="fill: #262626" transform="translate(24.937188 43.09607) scale(0.1 -0.1)">
       <use xlink:href="#ArialMT-35"/>
       <use xlink:href="#ArialMT-30" transform="translate(55.615234 0)"/>
       <use xlink:href="#ArialMT-30" transform="translate(111.230469 0)"/>
      </g>
     </g>
    </g>
    <g id="text_29">
     <!-- Reward -->
     <g style="fill: #262626" transform="translate(18.949688 224.99625) rotate(-90) scale(0.1 -0.1)">
      <defs>
       <path id="ArialMT-52" d="M 503 0 
L 503 4581 
L 2534 4581 
Q 3147 4581 3465 4457 
Q 3784 4334 3975 4021 
Q 4166 3709 4166 3331 
Q 4166 2844 3850 2509 
Q 3534 2175 2875 2084 
Q 3116 1969 3241 1856 
Q 3506 1613 3744 1247 
L 4541 0 
L 3778 0 
L 3172 953 
Q 2906 1366 2734 1584 
Q 2563 1803 2427 1890 
Q 2291 1978 2150 2013 
Q 2047 2034 1813 2034 
L 1109 2034 
L 1109 0 
L 503 0 
z
M 1109 2559 
L 2413 2559 
Q 2828 2559 3062 2645 
Q 3297 2731 3419 2920 
Q 3541 3109 3541 3331 
Q 3541 3656 3305 3865 
Q 3069 4075 2559 4075 
L 1109 4075 
L 1109 2559 
z
" transform="scale(0.015625)"/>
       <path id="ArialMT-77" d="M 1034 0 
L 19 3319 
L 600 3319 
L 1128 1403 
L 1325 691 
Q 1338 744 1497 1375 
L 2025 3319 
L 2603 3319 
L 3100 1394 
L 3266 759 
L 3456 1400 
L 4025 3319 
L 4572 3319 
L 3534 0 
L 2950 0 
L 2422 1988 
L 2294 2553 
L 1622 0 
L 1034 0 
z
" transform="scale(0.015625)"/>
       <path id="ArialMT-61" d="M 2588 409 
Q 2275 144 1986 34 
Q 1697 -75 1366 -75 
Q 819 -75 525 192 
Q 231 459 231 875 
Q 231 1119 342 1320 
Q 453 1522 633 1644 
Q 813 1766 1038 1828 
Q 1203 1872 1538 1913 
Q 2219 1994 2541 2106 
Q 2544 2222 2544 2253 
Q 2544 2597 2384 2738 
Q 2169 2928 1744 2928 
Q 1347 2928 1158 2789 
Q 969 2650 878 2297 
L 328 2372 
Q 403 2725 575 2942 
Q 747 3159 1072 3276 
Q 1397 3394 1825 3394 
Q 2250 3394 2515 3294 
Q 2781 3194 2906 3042 
Q 3031 2891 3081 2659 
Q 3109 2516 3109 2141 
L 3109 1391 
Q 3109 606 3145 398 
Q 3181 191 3288 0 
L 2700 0 
Q 2613 175 2588 409 
z
M 2541 1666 
Q 2234 1541 1622 1453 
Q 1275 1403 1131 1340 
Q 988 1278 909 1158 
Q 831 1038 831 891 
Q 831 666 1001 516 
Q 1172 366 1500 366 
Q 1825 366 2078 508 
Q 2331 650 2450 897 
Q 2541 1088 2541 1459 
L 2541 1666 
z
" transform="scale(0.015625)"/>
       <path id="ArialMT-72" d="M 416 0 
L 416 3319 
L 922 3319 
L 922 2816 
Q 1116 3169 1280 3281 
Q 1444 3394 1641 3394 
Q 1925 3394 2219 3213 
L 2025 2691 
Q 1819 2813 1613 2813 
Q 1428 2813 1281 2702 
Q 1134 2591 1072 2394 
Q 978 2094 978 1738 
L 978 0 
L 416 0 
z
" transform="scale(0.015625)"/>
      </defs>
      <use xlink:href="#ArialMT-52"/>
      <use xlink:href="#ArialMT-65" transform="translate(72.216797 0)"/>
      <use xlink:href="#ArialMT-77" transform="translate(127.832031 0)"/>
      <use xlink:href="#ArialMT-61" transform="translate(200.048828 0)"/>
      <use xlink:href="#ArialMT-72" transform="translate(255.664062 0)"/>
      <use xlink:href="#ArialMT-64" transform="translate(288.964844 0)"/>
     </g>
    </g>
   </g>
   <g id="FillBetweenPolyCollection_1">
    <path d="M 58.554231 373.721902 
L 58.554231 374.783972 
L 61.865641 375.056725 
L 65.177051 373.311148 
L 68.488462 371.45666 
L 71.799872 369.124019 
L 75.111282 365.131004 
L 78.422692 361.124022 
L 81.734103 358.736004 
L 85.045513 354.259284 
L 88.356923 354.141979 
L 91.668333 355.8166 
L 94.979744 353.921241 
L 98.291154 347.944758 
L 101.602564 337.035417 
L 104.913974 343.43493 
L 108.225385 328.676643 
L 111.536795 304.507905 
L 114.848205 297.654329 
L 118.159615 274.226827 
L 121.471026 276.772699 
L 124.782436 269.798436 
L 128.093846 272.836377 
L 131.405256 267.727114 
L 134.716667 251.67672 
L 138.028077 266.695207 
L 141.339487 265.557577 
L 144.650897 273.930557 
L 147.962308 253.511821 
L 151.273718 232.163469 
L 154.585128 231.638236 
L 157.896538 234.274195 
L 161.207949 248.185001 
L 164.519359 231.052015 
L 167.830769 248.473688 
L 171.142179 251.015688 
L 174.45359 251.044929 
L 177.765 263.898205 
L 181.07641 258.871135 
L 184.387821 249.035503 
L 187.699231 249.819231 
L 191.010641 256.588426 
L 194.322051 255.001617 
L 197.633462 253.801774 
L 200.944872 245.01738 
L 204.256282 255.448964 
L 207.567692 237.3498 
L 210.879103 262.073534 
L 214.190513 268.635079 
L 217.501923 265.681334 
L 220.813333 287.196443 
L 224.124744 304.245174 
L 227.436154 283.769571 
L 230.747564 278.423084 
L 234.058974 295.599337 
L 237.370385 293.082108 
L 240.681795 284.517257 
L 243.993205 300.239355 
L 247.304615 321.799912 
L 250.616026 330.909142 
L 253.927436 338.554351 
L 257.238846 338.170205 
L 260.550256 339.063216 
L 263.861667 349.70405 
L 267.173077 341.746879 
L 270.484487 349.902953 
L 273.795897 352.084512 
L 277.107308 337.701043 
L 280.418718 329.270453 
L 283.730128 348.187318 
L 287.041538 333.545672 
L 290.352949 338.149281 
L 293.664359 343.747683 
L 296.975769 340.399341 
L 300.287179 342.331641 
L 303.59859 347.825482 
L 306.91 338.054388 
L 310.22141 362.634879 
L 313.532821 348.909608 
L 316.844231 370.774802 
L 320.155641 363.794197 
L 323.467051 365.637567 
L 326.778462 374.236125 
L 330.089872 385.360016 
L 333.401282 383.88747 
L 336.712692 382.950889 
L 340.024103 378.0034 
L 343.335513 376.437311 
L 346.646923 380.979147 
L 349.958333 377.250005 
L 353.269744 376.03677 
L 356.581154 371.553168 
L 359.892564 376.773632 
L 363.203974 373.677573 
L 366.515385 371.982221 
L 369.826795 372.869184 
L 373.138205 371.364055 
L 376.449615 367.84785 
L 379.761026 362.438944 
L 383.072436 359.995036 
L 386.383846 363.879225 
L 389.695256 359.483754 
L 393.006667 360.163163 
L 396.318077 361.730141 
L 399.629487 361.253138 
L 402.940897 355.48514 
L 406.252308 354.976063 
L 409.563718 353.795081 
L 412.875128 347.535063 
L 416.186538 348.394883 
L 419.497949 351.391018 
L 422.809359 348.860652 
L 426.120769 344.525453 
L 429.432179 343.294032 
L 432.74359 341.123305 
L 436.055 335.243083 
L 439.36641 338.176991 
L 442.677821 339.060978 
L 445.989231 338.905262 
L 449.300641 328.985553 
L 452.612051 323.871365 
L 455.923462 321.863478 
L 459.234872 321.414076 
L 462.546282 329.434262 
L 465.857692 325.986385 
L 469.169103 327.221743 
L 472.480513 326.247251 
L 475.791923 322.315958 
L 479.103333 323.752164 
L 482.414744 314.193922 
L 485.726154 312.783869 
L 489.037564 324.060796 
L 492.348974 323.365991 
L 495.660385 317.258651 
L 498.971795 314.90727 
L 502.283205 313.104009 
L 505.594615 320.469297 
L 508.906026 311.016621 
L 512.217436 313.039505 
L 515.528846 310.567816 
L 518.840256 305.007368 
L 522.151667 309.541183 
L 525.463077 312.406931 
L 528.774487 313.823442 
L 532.085897 309.311715 
L 535.397308 312.700845 
L 538.708718 312.43183 
L 542.020128 303.52873 
L 545.331538 310.875888 
L 548.642949 309.970547 
L 551.954359 309.645376 
L 551.954359 84.949032 
L 551.954359 84.949032 
L 548.642949 108.188528 
L 545.331538 84.510726 
L 542.020128 115.780423 
L 538.708718 105.038847 
L 535.397308 105.953133 
L 532.085897 86.069917 
L 528.774487 78.515872 
L 525.463077 81.09072 
L 522.151667 88.593523 
L 518.840256 70.159964 
L 515.528846 65.331889 
L 512.217436 74.840275 
L 508.906026 64.036394 
L 505.594615 66.018262 
L 502.283205 73.217286 
L 498.971795 65.894605 
L 495.660385 65.27787 
L 492.348974 66.583494 
L 489.037564 66.372267 
L 485.726154 77.040795 
L 482.414744 73.772326 
L 479.103333 66.300634 
L 475.791923 77.803244 
L 472.480513 70.407078 
L 469.169103 70.286057 
L 465.857692 91.109157 
L 462.546282 66.900811 
L 459.234872 84.675774 
L 455.923462 76.195509 
L 452.612051 74.410779 
L 449.300641 78.361773 
L 445.989231 68.549787 
L 442.677821 74.5864 
L 439.36641 81.437008 
L 436.055 73.608674 
L 432.74359 101.715644 
L 429.432179 92.597673 
L 426.120769 81.500619 
L 422.809359 81.276492 
L 419.497949 108.423575 
L 416.186538 103.180673 
L 412.875128 139.827431 
L 409.563718 91.025872 
L 406.252308 104.902805 
L 402.940897 90.213673 
L 399.629487 71.90678 
L 396.318077 78.875402 
L 393.006667 96.594193 
L 389.695256 97.074764 
L 386.383846 99.850846 
L 383.072436 146.741424 
L 379.761026 119.123805 
L 376.449615 111.716508 
L 373.138205 81.188637 
L 369.826795 81.750202 
L 366.515385 103.528366 
L 363.203974 99.785541 
L 359.892564 78.290221 
L 356.581154 153.488858 
L 353.269744 114.806771 
L 349.958333 111.936977 
L 346.646923 109.780758 
L 343.335513 150.707693 
L 340.024103 149.67721 
L 336.712692 111.686739 
L 333.401282 105.129652 
L 330.089872 127.092091 
L 326.778462 131.108317 
L 323.467051 166.881309 
L 320.155641 174.724412 
L 316.844231 166.178799 
L 313.532821 174.76058 
L 310.22141 179.186209 
L 306.91 203.396919 
L 303.59859 176.350245 
L 300.287179 171.881522 
L 296.975769 187.61381 
L 293.664359 182.91904 
L 290.352949 154.253446 
L 287.041538 170.911545 
L 283.730128 167.722458 
L 280.418718 219.887852 
L 277.107308 209.653022 
L 273.795897 178.686364 
L 270.484487 177.84443 
L 267.173077 165.989839 
L 263.861667 130.446951 
L 260.550256 149.104558 
L 257.238846 114.96726 
L 253.927436 104.441509 
L 250.616026 93.457003 
L 247.304615 106.336752 
L 243.993205 168.175716 
L 240.681795 148.154107 
L 237.370385 139.692076 
L 234.058974 172.992775 
L 230.747564 146.112535 
L 227.436154 153.530252 
L 224.124744 143.39103 
L 220.813333 137.513967 
L 217.501923 171.780044 
L 214.190513 177.529272 
L 210.879103 149.582612 
L 207.567692 162.023186 
L 204.256282 162.233172 
L 200.944872 178.645393 
L 197.633462 193.33031 
L 194.322051 161.500063 
L 191.010641 148.599851 
L 187.699231 157.008915 
L 184.387821 179.216198 
L 181.07641 213.260173 
L 177.765 206.93467 
L 174.45359 221.858937 
L 171.142179 182.772973 
L 167.830769 203.352274 
L 164.519359 172.428095 
L 161.207949 159.205099 
L 157.896538 186.128586 
L 154.585128 192.064108 
L 151.273718 168.567424 
L 147.962308 184.454344 
L 144.650897 163.011313 
L 141.339487 207.521612 
L 138.028077 183.599424 
L 134.716667 228.285194 
L 131.405256 217.453887 
L 128.093846 211.265609 
L 124.782436 224.643559 
L 121.471026 217.551168 
L 118.159615 263.323213 
L 114.848205 252.664878 
L 111.536795 261.048267 
L 108.225385 257.044879 
L 104.913974 265.249746 
L 101.602564 295.628541 
L 98.291154 300.601654 
L 94.979744 313.713179 
L 91.668333 324.623072 
L 88.356923 343.772049 
L 85.045513 350.43072 
L 81.734103 353.878623 
L 78.422692 359.502694 
L 75.111282 364.234857 
L 71.799872 366.905398 
L 68.488462 371.000074 
L 65.177051 372.206237 
L 61.865641 373.323659 
L 58.554231 373.721902 
z
" clip-path="url(#p0e07c4d981)" style="fill: #0000ff; fill-opacity: 0.1"/>
   </g>
   <g id="line2d_28">
    <path d="M 58.554231 374.252937 
L 61.865641 374.190192 
L 68.488462 371.228367 
L 75.111282 364.682931 
L 78.422692 360.313358 
L 85.045513 352.345002 
L 88.356923 348.957014 
L 91.668333 340.219836 
L 94.979744 333.81721 
L 98.291154 324.273206 
L 101.602564 316.331979 
L 104.913974 304.342338 
L 108.225385 292.860761 
L 111.536795 282.778086 
L 114.848205 275.159603 
L 118.159615 268.77502 
L 121.471026 247.161934 
L 124.782436 247.220997 
L 128.093846 242.050993 
L 131.405256 242.590501 
L 134.716667 239.980957 
L 138.028077 225.147315 
L 141.339487 236.539595 
L 144.650897 218.470935 
L 147.962308 218.983083 
L 151.273718 200.365447 
L 154.585128 211.851172 
L 157.896538 210.201391 
L 161.207949 203.69505 
L 164.519359 201.740055 
L 167.830769 225.912981 
L 171.142179 216.89433 
L 174.45359 236.451933 
L 177.765 235.416437 
L 181.07641 236.065654 
L 184.387821 214.125851 
L 187.699231 203.414073 
L 191.010641 202.594138 
L 194.322051 208.25084 
L 197.633462 223.566042 
L 200.944872 211.831387 
L 204.256282 208.841068 
L 207.567692 199.686493 
L 210.879103 205.828073 
L 214.190513 223.082175 
L 217.501923 218.730689 
L 220.813333 212.355205 
L 224.124744 223.818102 
L 227.436154 218.649912 
L 230.747564 212.26781 
L 234.058974 234.296056 
L 237.370385 216.387092 
L 240.681795 216.335682 
L 243.993205 234.207535 
L 247.304615 214.068332 
L 250.616026 212.183072 
L 253.927436 221.49793 
L 257.238846 226.568732 
L 260.550256 244.083887 
L 263.861667 240.0755 
L 267.173077 253.868359 
L 270.484487 263.873692 
L 273.795897 265.385438 
L 277.107308 273.677032 
L 280.418718 274.579152 
L 283.730128 257.954888 
L 287.041538 252.228609 
L 290.352949 246.201364 
L 293.664359 263.333362 
L 296.975769 264.006575 
L 300.287179 257.106582 
L 303.59859 262.087864 
L 306.91 270.725654 
L 310.22141 270.910544 
L 313.532821 261.835094 
L 316.844231 268.476801 
L 320.155641 269.259304 
L 323.467051 266.259438 
L 326.778462 252.672221 
L 330.089872 256.226053 
L 333.401282 244.508561 
L 336.712692 247.318814 
L 340.024103 263.840305 
L 343.335513 263.572502 
L 346.646923 245.379953 
L 349.958333 244.593491 
L 353.269744 245.421771 
L 356.581154 262.521013 
L 359.892564 227.531927 
L 363.203974 236.731557 
L 366.515385 237.755294 
L 369.826795 227.309693 
L 373.138205 226.276346 
L 376.449615 239.782179 
L 379.761026 240.781375 
L 383.072436 253.36823 
L 386.383846 231.865035 
L 389.695256 228.279259 
L 393.006667 228.378678 
L 396.318077 220.302772 
L 399.629487 216.579959 
L 402.940897 222.849407 
L 406.252308 229.939434 
L 409.563718 222.410476 
L 412.875128 243.681247 
L 416.186538 225.787778 
L 419.497949 229.907297 
L 422.809359 215.068572 
L 426.120769 213.013036 
L 429.432179 217.945852 
L 432.74359 221.419474 
L 436.055 204.425879 
L 439.36641 209.806999 
L 445.989231 203.727524 
L 449.300641 203.673663 
L 452.612051 199.141072 
L 455.923462 199.029494 
L 459.234872 203.044925 
L 462.546282 198.167536 
L 465.857692 208.547771 
L 469.169103 198.7539 
L 472.480513 198.327164 
L 475.791923 200.059601 
L 479.103333 195.026399 
L 482.414744 193.983124 
L 485.726154 194.912332 
L 489.037564 195.216532 
L 492.348974 194.974743 
L 495.660385 191.26826 
L 498.971795 190.400938 
L 502.283205 193.160647 
L 505.594615 193.243779 
L 508.906026 187.526507 
L 512.217436 193.93989 
L 515.528846 187.949852 
L 518.840256 187.583666 
L 522.151667 199.067353 
L 525.463077 196.748825 
L 528.774487 196.169657 
L 532.085897 197.690816 
L 535.397308 209.326989 
L 538.708718 208.735338 
L 542.020128 209.654577 
L 545.331538 197.693307 
L 548.642949 209.079538 
L 551.954359 197.297204 
L 551.954359 197.297204 
" clip-path="url(#p0e07c4d981)" style="fill: none; stroke: #0000ff; stroke-width: 1.5; stroke-linecap: round"/>
   </g>
   <g id="line2d_29">
    <path d="M 58.554231 374.330936 
L 61.865641 374.244185 
L 65.177051 372.99004 
L 68.488462 371.369791 
L 71.799872 367.658682 
L 75.111282 364.680155 
L 78.422692 359.671626 
L 81.734103 356.905034 
L 85.045513 352.232217 
L 88.356923 351.521984 
L 91.668333 349.675105 
L 98.291154 335.501508 
L 101.602564 331.289325 
L 104.913974 322.092496 
L 108.225385 319.783855 
L 111.536795 290.329735 
L 114.848205 270.231294 
L 118.159615 261.826536 
L 121.471026 236.210549 
L 124.782436 225.494566 
L 128.093846 188.898312 
L 131.405256 204.640383 
L 134.716667 222.790532 
L 138.028077 160.167124 
L 141.339487 242.160601 
L 144.650897 125.12263 
L 147.962308 195.249452 
L 151.273718 185.207201 
L 154.585128 193.396689 
L 157.896538 165.322996 
L 161.207949 147.166621 
L 164.519359 165.896579 
L 167.830769 205.728719 
L 171.142179 186.197489 
L 174.45359 239.354127 
L 177.765 259.109411 
L 181.07641 263.777985 
L 184.387821 218.984856 
L 187.699231 195.257156 
L 191.010641 212.783298 
L 194.322051 232.479985 
L 197.633462 232.717103 
L 200.944872 222.640308 
L 204.256282 255.727897 
L 207.567692 209.971411 
L 210.879103 221.920485 
L 214.190513 252.745739 
L 217.501923 267.229544 
L 220.813333 262.04909 
L 224.124744 253.151608 
L 227.436154 248.623509 
L 230.747564 198.53769 
L 234.058974 253.004019 
L 237.370385 235.06217 
L 240.681795 207.067079 
L 243.993205 169.070404 
L 247.304615 81.05412 
L 250.616026 73.517879 
L 253.927436 51.873093 
L 257.238846 87.626423 
L 260.550256 112.864067 
L 263.861667 44.599745 
L 267.173077 113.905899 
L 270.484487 105.678349 
L 273.795897 101.598653 
L 277.107308 165.424966 
L 280.418718 217.182167 
L 283.730128 252.155385 
L 287.041538 262.816902 
L 290.352949 260.235859 
L 293.664359 259.365087 
L 296.975769 272.073133 
L 300.287179 288.57712 
L 303.59859 263.536308 
L 306.91 286.177387 
L 310.22141 316.878095 
L 313.532821 335.330396 
L 316.844231 343.307583 
L 320.155641 347.826265 
L 323.467051 352.750132 
L 326.778462 353.642467 
L 330.089872 355.206793 
L 336.712692 353.159313 
L 340.024103 349.358732 
L 343.335513 347.26526 
L 346.646923 345.540839 
L 349.958333 342.574373 
L 353.269744 340.100056 
L 356.581154 338.56707 
L 359.892564 334.405015 
L 363.203974 331.456966 
L 366.515385 329.235972 
L 369.826795 330.451118 
L 373.138205 328.23114 
L 376.449615 328.969362 
L 379.761026 313.84023 
L 386.383846 320.35606 
L 389.695256 312.63631 
L 393.006667 311.2136 
L 396.318077 316.941778 
L 399.629487 316.235469 
L 402.940897 306.997953 
L 406.252308 309.249797 
L 409.563718 305.914519 
L 412.875128 300.958852 
L 416.186538 302.853286 
L 419.497949 310.778024 
L 422.809359 299.908895 
L 426.120769 297.051299 
L 429.432179 295.01205 
L 432.74359 294.749718 
L 436.055 280.554954 
L 439.36641 292.068867 
L 442.677821 295.874544 
L 445.989231 289.305129 
L 449.300641 279.975829 
L 452.612051 262.695053 
L 455.923462 276.714443 
L 459.234872 273.28403 
L 462.546282 288.496231 
L 465.857692 283.939434 
L 469.169103 283.312807 
L 472.480513 268.886561 
L 475.791923 269.523876 
L 479.103333 282.639803 
L 482.414744 261.433171 
L 485.726154 265.35402 
L 489.037564 273.971221 
L 492.348974 280.620791 
L 495.660385 269.429664 
L 498.971795 275.739075 
L 502.283205 277.202127 
L 505.594615 276.897324 
L 508.906026 257.787734 
L 512.217436 271.837603 
L 515.528846 261.748642 
L 518.840256 276.165798 
L 522.151667 276.37916 
L 525.463077 274.335598 
L 528.774487 275.387167 
L 532.085897 274.144404 
L 535.397308 279.183343 
L 542.020128 271.658878 
L 545.331538 276.043878 
L 548.642949 279.610066 
L 551.954359 277.554035 
L 551.954359 277.554035 
" clip-path="url(#p0e07c4d981)" style="fill: none; stroke: #008000; stroke-opacity: 0.2; stroke-linecap: round"/>
   </g>
   <g id="line2d_30">
    <path d="M 58.554231 373.488483 
L 61.865641 374.448908 
L 65.177051 373.5718 
L 68.488462 371.183792 
L 75.111282 364.821651 
L 78.422692 360.469297 
L 81.734103 359.552303 
L 85.045513 354.504563 
L 88.356923 353.727729 
L 91.668333 351.492362 
L 94.979744 347.440522 
L 98.291154 335.737002 
L 101.602564 329.360602 
L 104.913974 332.315601 
L 108.225385 315.553897 
L 111.536795 315.539687 
L 114.848205 302.070075 
L 118.159615 274.941047 
L 121.471026 281.405962 
L 124.782436 278.764932 
L 128.093846 279.274784 
L 131.405256 243.560401 
L 134.716667 250.843487 
L 138.028077 281.865605 
L 141.339487 262.338996 
L 144.650897 277.324048 
L 147.962308 262.818659 
L 151.273718 200.541962 
L 154.585128 210.194822 
L 157.896538 221.288292 
L 161.207949 229.763433 
L 164.519359 239.150228 
L 167.830769 246.895237 
L 171.142179 229.954159 
L 177.765 210.338626 
L 181.07641 240.799748 
L 184.387821 209.042753 
L 187.699231 135.170951 
L 191.010641 201.296934 
L 194.322051 127.69313 
L 197.633462 174.678769 
L 200.944872 155.470118 
L 204.256282 124.110008 
L 207.567692 147.223271 
L 210.879103 223.518284 
L 214.190513 255.824806 
L 217.501923 212.535236 
L 220.813333 218.769149 
L 224.124744 237.913089 
L 227.436154 154.909281 
L 230.747564 171.632407 
L 234.058974 140.748159 
L 237.370385 116.98271 
L 240.681795 139.275963 
L 243.993205 143.817181 
L 247.304615 85.260394 
L 250.616026 62.125886 
L 253.927436 110.556458 
L 257.238846 96.301863 
L 263.861667 202.860805 
L 267.173077 195.365009 
L 270.484487 253.815757 
L 273.795897 274.834828 
L 277.107308 254.944375 
L 280.418718 213.53827 
L 283.730128 91.131651 
L 287.041538 111.023822 
L 290.352949 80.791227 
L 293.664359 116.242718 
L 296.975769 127.926812 
L 300.287179 108.141745 
L 303.59859 103.31232 
L 306.91 156.280215 
L 310.22141 95.162664 
L 313.532821 122.415814 
L 316.844231 75.007601 
L 320.155641 100.069983 
L 323.467051 92.007958 
L 326.778462 63.177455 
L 330.089872 39.517163 
L 333.401282 39.604794 
L 336.712692 45.651313 
L 340.024103 98.142108 
L 343.335513 131.879931 
L 346.646923 42.7595 
L 349.958333 85.698547 
L 353.269744 65.894007 
L 356.581154 105.678349 
L 359.892564 39.517163 
L 369.826795 39.517163 
L 373.138205 41.006886 
L 376.449615 70.275542 
L 379.761026 131.967562 
L 383.072436 154.839177 
L 386.383846 74.218924 
L 389.695256 55.465953 
L 393.006667 41.795562 
L 396.318077 44.424483 
L 399.629487 40.218209 
L 402.940897 66.419791 
L 406.252308 115.230096 
L 409.563718 71.852895 
L 412.875128 117.771387 
L 416.186538 87.889315 
L 419.497949 69.223974 
L 422.809359 65.455853 
L 426.120769 39.517163 
L 429.432179 64.316654 
L 432.74359 47.491558 
L 436.055 46.001836 
L 439.36641 39.517163 
L 452.612051 39.517163 
L 455.923462 60.198011 
L 459.234872 75.270493 
L 462.546282 39.517163 
L 465.857692 98.560788 
L 469.169103 46.878143 
L 472.480513 48.455496 
L 475.791923 58.357766 
L 479.103333 39.517163 
L 482.414744 61.161949 
L 485.726154 69.749758 
L 489.037564 39.517163 
L 498.971795 39.517163 
L 502.283205 60.11038 
L 505.594615 39.517163 
L 508.906026 39.517163 
L 512.217436 62.476409 
L 515.528846 41.707931 
L 518.840256 42.408977 
L 522.151667 100.420506 
L 525.463077 77.811783 
L 528.774487 63.352716 
L 532.085897 80.002551 
L 535.397308 122.785811 
L 538.708718 53.187554 
L 542.020128 106.66176 
L 545.331538 57.481459 
L 548.642949 81.755165 
L 551.954359 77.37363 
L 551.954359 77.37363 
" clip-path="url(#p0e07c4d981)" style="fill: none; stroke: #008000; stroke-opacity: 0.2; stroke-linecap: round"/>
   </g>
   <g id="line2d_31">
    <path d="M 58.554231 374.00358 
L 61.865641 375.580464 
L 65.177051 372.297087 
L 68.488462 371.03441 
L 71.799872 369.63061 
L 75.111282 365.426924 
L 78.422692 361.523507 
L 81.734103 356.096966 
L 85.045513 348.805768 
L 88.356923 339.097348 
L 91.668333 309.568454 
L 94.979744 293.808 
L 98.291154 277.044184 
L 101.602564 275.60264 
L 104.913974 227.163722 
L 108.225385 224.73343 
L 111.536795 251.661374 
L 114.848205 260.591916 
L 118.159615 275.464753 
L 121.471026 226.369204 
L 124.782436 227.771295 
L 128.093846 264.218993 
L 131.405256 261.047596 
L 134.716667 251.823311 
L 138.028077 254.779423 
L 141.339487 272.009401 
L 144.650897 256.385642 
L 147.962308 257.892891 
L 151.273718 261.63795 
L 154.585128 245.25562 
L 157.896538 231.790623 
L 161.207949 223.103499 
L 164.519359 233.665577 
L 167.830769 258.723076 
L 171.142179 247.221418 
L 174.45359 255.697511 
L 177.765 248.623509 
L 181.07641 246.915991 
L 184.387821 264.586208 
L 187.699231 261.012544 
L 191.010641 262.975472 
L 194.322051 265.520935 
L 197.633462 268.45865 
L 200.944872 251.417442 
L 204.256282 244.01631 
L 207.567692 260.567933 
L 210.879103 248.935085 
L 214.190513 267.523923 
L 217.501923 272.464626 
L 220.813333 275.617154 
L 224.124744 283.510268 
L 227.436154 282.078966 
L 230.747564 289.628689 
L 234.058974 295.348759 
L 237.370385 293.120436 
L 240.681795 294.464107 
L 243.993205 306.683408 
L 247.304615 324.62047 
L 257.238846 350.891607 
L 260.550256 354.559805 
L 263.861667 357.963085 
L 267.173077 360.60362 
L 270.484487 360.253179 
L 273.795897 359.044329 
L 277.107308 359.482198 
L 280.418718 359.390913 
L 283.730128 359.50119 
L 287.041538 357.700095 
L 290.352949 358.654105 
L 293.664359 358.098103 
L 296.975769 358.811602 
L 300.287179 358.823323 
L 303.59859 358.501096 
L 306.91 358.460713 
L 310.22141 358.676173 
L 313.532821 358.142422 
L 316.844231 358.611098 
L 320.155641 356.736107 
L 323.467051 356.026303 
L 326.778462 356.761446 
L 330.089872 356.930373 
L 333.401282 355.872787 
L 336.712692 354.104581 
L 340.024103 355.21844 
L 343.335513 355.434633 
L 346.646923 353.193039 
L 349.958333 353.426721 
L 353.269744 352.173797 
L 356.581154 353.140366 
L 359.892564 353.679098 
L 363.203974 352.414014 
L 369.826795 352.212344 
L 373.138205 351.394857 
L 376.449615 351.057911 
L 379.761026 350.212478 
L 383.072436 349.80204 
L 386.383846 351.011786 
L 389.695256 348.540221 
L 393.006667 349.822659 
L 396.318077 348.572086 
L 399.629487 349.224709 
L 402.940897 348.462599 
L 406.252308 345.772358 
L 409.563718 348.274673 
L 412.875128 345.448898 
L 416.186538 347.009149 
L 419.497949 346.597424 
L 422.809359 345.806279 
L 426.120769 345.218306 
L 429.432179 346.111574 
L 432.74359 345.184384 
L 436.055 343.984864 
L 439.36641 344.308454 
L 442.677821 344.380091 
L 445.989231 342.8282 
L 449.300641 344.250033 
L 452.612051 342.614875 
L 455.923462 339.641189 
L 459.234872 340.380474 
L 462.546282 342.454988 
L 465.857692 340.979322 
L 469.169103 337.367203 
L 472.480513 337.461575 
L 475.791923 338.59912 
L 482.414744 335.825801 
L 489.037564 336.595577 
L 492.348974 333.868715 
L 495.660385 334.043977 
L 498.971795 331.609367 
L 502.283205 333.386747 
L 505.594615 333.664244 
L 508.906026 332.151526 
L 512.217436 330.313957 
L 515.528846 329.351751 
L 518.840256 331.34607 
L 522.151667 331.331154 
L 525.463077 329.796808 
L 528.774487 331.045483 
L 532.085897 326.293754 
L 535.397308 326.22854 
L 538.708718 326.685035 
L 542.020128 325.143201 
L 545.331538 324.056213 
L 548.642949 324.959593 
L 551.954359 324.859444 
L 551.954359 324.859444 
" clip-path="url(#p0e07c4d981)" style="fill: none; stroke: #008000; stroke-opacity: 0.2; stroke-linecap: round"/>
   </g>
   <g id="line2d_32">
    <path d="M 58.554231 374.321178 
L 61.865641 373.727045 
L 65.177051 372.004432 
L 68.488462 370.963659 
L 71.799872 368.554046 
L 75.111282 364.094758 
L 78.422692 359.201867 
L 81.734103 356.936965 
L 85.045513 353.146303 
L 88.356923 348.688927 
L 91.668333 342.8282 
L 94.979744 343.721789 
L 98.291154 334.030925 
L 101.602564 320.51065 
L 104.913974 313.275499 
L 108.225385 288.673989 
L 111.536795 267.690838 
L 114.848205 243.686406 
L 118.159615 266.055065 
L 121.471026 209.470664 
L 124.782436 233.913005 
L 128.093846 236.016142 
L 131.405256 227.297254 
L 134.716667 229.64075 
L 138.028077 220.99452 
L 141.339487 200.115043 
L 144.650897 187.114241 
L 147.962308 178.961521 
L 151.273718 177.097377 
L 154.585128 190.884608 
L 157.896538 205.815212 
L 161.207949 156.381477 
L 164.519359 181.020536 
L 167.830769 203.816777 
L 171.142179 253.608723 
L 174.45359 247.727728 
L 177.765 265.70955 
L 181.07641 233.847024 
L 184.387821 222.443348 
L 187.699231 248.516405 
L 191.010641 232.86556 
L 194.322051 190.879297 
L 197.633462 226.846582 
L 200.944872 232.538405 
L 204.256282 221.195846 
L 207.567692 203.620271 
L 210.879103 95.162664 
L 214.190513 188.893818 
L 217.501923 194.506678 
L 220.813333 237.43112 
L 224.124744 278.095752 
L 227.436154 280.560034 
L 230.747564 283.81756 
L 234.058974 295.350486 
L 237.370385 299.885526 
L 240.681795 294.87305 
L 243.993205 294.256389 
L 247.304615 296.149954 
L 250.616026 293.145473 
L 253.927436 294.973199 
L 257.238846 294.12193 
L 260.550256 300.586572 
L 263.861667 299.605108 
L 270.484487 301.587375 
L 273.795897 300.983831 
L 277.107308 304.648114 
L 280.418718 300.796886 
L 283.730128 295.524021 
L 287.041538 292.828333 
L 290.352949 291.270454 
L 293.664359 299.097454 
L 296.975769 303.601069 
L 300.287179 301.497931 
L 303.59859 306.547722 
L 306.91 304.359074 
L 310.22141 307.426149 
L 313.532821 287.471625 
L 316.844231 302.273605 
L 320.155641 304.218441 
L 323.467051 306.94418 
L 326.778462 336.623069 
L 330.089872 355.103078 
L 333.401282 360.131258 
L 336.712692 361.516204 
L 340.024103 363.084107 
L 343.335513 364.002106 
L 346.646923 363.555303 
L 349.958333 362.31683 
L 353.269744 361.889764 
L 356.581154 359.58346 
L 359.892564 359.412093 
L 363.203974 357.483105 
L 366.515385 354.780998 
L 369.826795 354.870875 
L 373.138205 353.705541 
L 376.449615 351.692802 
L 379.761026 349.090685 
L 383.072436 348.805768 
L 386.383846 346.52994 
L 389.695256 342.998647 
L 393.006667 342.526025 
L 396.318077 340.841616 
L 399.629487 337.704244 
L 406.252308 334.757541 
L 409.563718 332.82274 
L 412.875128 336.403133 
L 416.186538 325.380764 
L 419.497949 327.949659 
L 422.809359 324.654667 
L 426.120769 315.982314 
L 429.432179 317.168147 
L 432.74359 310.906814 
L 436.055 305.323012 
L 439.36641 303.741278 
L 442.677821 301.334354 
L 445.989231 307.469964 
L 449.300641 288.205496 
L 452.612051 290.680257 
L 455.923462 275.921957 
L 459.234872 278.798073 
L 462.546282 280.852136 
L 465.857692 279.742147 
L 469.169103 286.694184 
L 472.480513 297.315026 
L 475.791923 286.150424 
L 479.103333 276.279407 
L 482.414744 271.977536 
L 485.726154 263.785013 
L 489.037564 286.481533 
L 492.348974 281.349879 
L 495.660385 273.833334 
L 498.971795 263.606413 
L 502.283205 255.586819 
L 505.594615 276.623002 
L 508.906026 268.658949 
L 512.217436 265.554318 
L 515.528846 267.423773 
L 518.840256 232.18101 
L 522.151667 247.688781 
L 525.463077 262.282772 
L 528.774487 264.622929 
L 532.085897 259.470243 
L 535.397308 264.986805 
L 538.708718 267.602373 
L 542.020128 254.553699 
L 545.331538 265.954916 
L 548.642949 264.786506 
L 551.954359 258.593936 
L 551.954359 258.593936 
" clip-path="url(#p0e07c4d981)" style="fill: none; stroke: #008000; stroke-opacity: 0.2; stroke-linecap: round"/>
   </g>
   <g id="line2d_33">
    <path d="M 58.554231 375.120509 
L 61.865641 372.950358 
L 65.177051 372.930104 
L 68.488462 371.590183 
L 71.799872 366.247494 
L 75.111282 364.391166 
L 78.422692 360.700493 
L 81.734103 352.045299 
L 85.045513 353.036157 
L 88.356923 351.749083 
L 91.668333 347.535062 
L 94.979744 341.505106 
L 98.291154 339.052409 
L 101.602564 324.896679 
L 104.913974 326.864372 
L 108.225385 315.558634 
L 111.536795 288.668796 
L 114.848205 299.218324 
L 118.159615 265.587701 
L 121.471026 282.353289 
L 124.782436 270.16119 
L 128.093846 241.846734 
L 131.405256 276.40687 
L 134.716667 244.806705 
L 138.028077 207.929905 
L 141.339487 206.073931 
L 144.650897 246.408113 
L 147.962308 199.992891 
L 151.273718 177.342743 
L 154.585128 219.524122 
L 157.896538 226.789831 
L 161.207949 262.060218 
L 164.519359 188.967355 
L 167.830769 214.401096 
L 171.142179 167.489865 
L 174.45359 219.385453 
L 177.765 193.301092 
L 181.07641 194.987523 
L 184.387821 155.572088 
L 187.699231 177.11331 
L 191.010641 103.049428 
L 194.322051 224.680852 
L 197.633462 215.129105 
L 200.944872 197.09066 
L 204.256282 199.155278 
L 207.567692 177.049578 
L 210.879103 239.603846 
L 214.190513 150.422589 
L 217.501923 146.917361 
L 220.813333 67.909513 
L 224.124744 66.419791 
L 227.436154 127.077768 
L 230.747564 117.722703 
L 234.058974 187.028857 
L 237.370385 136.884618 
L 240.681795 145.998212 
L 243.993205 257.210294 
L 247.304615 283.256723 
L 250.616026 298.783193 
L 253.927436 307.890193 
L 257.238846 303.90184 
L 260.550256 303.17818 
L 263.861667 295.348759 
L 267.173077 298.904062 
L 270.484487 298.033799 
L 273.795897 290.46555 
L 277.107308 283.885507 
L 280.418718 281.987526 
L 283.730128 291.462193 
L 287.041538 236.77389 
L 290.352949 240.055173 
L 293.664359 283.863446 
L 296.975769 257.620262 
L 300.287179 228.492788 
L 303.59859 278.541872 
L 306.91 248.35088 
L 310.22141 276.40964 
L 313.532821 205.815212 
L 316.844231 263.184116 
L 320.155641 237.445725 
L 323.467051 223.568616 
L 326.778462 153.156667 
L 330.089872 174.372858 
L 333.401282 112.776436 
L 336.712692 122.162659 
L 340.024103 153.398138 
L 343.335513 119.280582 
L 346.646923 121.851083 
L 349.958333 78.950983 
L 353.269744 107.05123 
L 356.581154 155.635819 
L 359.892564 50.646264 
L 363.203974 102.786535 
L 366.515385 112.893277 
L 369.826795 59.496965 
L 373.138205 57.043305 
L 376.449615 96.915278 
L 379.761026 58.795919 
L 383.072436 96.301863 
L 386.383846 67.208468 
L 393.006667 96.535545 
L 396.318077 50.733894 
L 399.629487 39.517163 
L 402.940897 56.166998 
L 406.252308 44.687375 
L 409.563718 53.187554 
L 412.875128 117.823965 
L 416.186538 65.806376 
L 419.497949 94.987402 
L 422.809359 39.517163 
L 426.120769 67.296098 
L 429.432179 67.120837 
L 432.74359 108.764897 
L 436.055 46.264728 
L 439.36641 69.399235 
L 442.677821 53.012293 
L 445.989231 39.517163 
L 449.300641 66.419791 
L 452.612051 60.198011 
L 455.923462 42.671869 
L 459.234872 47.491558 
L 462.546282 39.517163 
L 472.480513 39.517163 
L 475.791923 47.666819 
L 479.103333 39.517163 
L 495.660385 39.517163 
L 498.971795 41.53267 
L 502.283205 39.517163 
L 515.528846 39.517163 
L 518.840256 55.816475 
L 522.151667 39.517163 
L 525.463077 39.517163 
L 528.774487 46.439989 
L 532.085897 48.543127 
L 535.397308 53.450446 
L 538.708718 120.750831 
L 542.020128 90.255344 
L 545.331538 64.930069 
L 548.642949 94.286357 
L 551.954359 48.104973 
L 551.954359 48.104973 
" clip-path="url(#p0e07c4d981)" style="fill: none; stroke: #008000; stroke-opacity: 0.2; stroke-linecap: round"/>
   </g>
   <g id="line2d_34">
    <path d="M 58.554231 39.517163 
L 65.177051 60.806872 
L 71.799872 80.838358 
L 78.422692 99.685984 
L 85.045513 117.419715 
L 91.668333 134.105382 
L 98.291154 149.804926 
L 104.913974 164.576628 
L 111.536795 178.475322 
L 118.159615 191.552603 
L 124.782436 203.857016 
L 131.405256 215.434239 
L 138.028077 226.327248 
L 144.650897 236.57648 
L 151.273718 246.219983 
L 154.585128 250.825857 
L 157.896538 240.847999 
L 164.519359 250.239055 
L 171.142179 259.075099 
L 177.765 267.388933 
L 181.07641 259.687977 
L 184.387821 252.568203 
L 191.010641 261.266595 
L 197.633462 269.450911 
L 204.256282 277.151535 
L 210.879103 284.397052 
L 214.190513 279.250575 
L 220.813333 286.372039 
L 224.124744 289.773351 
L 227.436154 285.452875 
L 234.058974 292.207782 
L 240.681795 298.563475 
L 247.304615 304.543546 
L 253.927436 310.170195 
L 260.550256 315.464309 
L 267.173077 320.445541 
L 273.795897 325.132382 
L 280.418718 329.542231 
L 287.041538 333.691458 
L 290.352949 335.673187 
L 293.664359 325.164735 
L 296.975769 321.373363 
L 300.287179 317.876599 
L 306.91 322.715264 
L 313.532821 327.267965 
L 320.155641 331.551601 
L 323.467051 328.872413 
L 330.089872 333.061226 
L 336.712692 337.00248 
L 343.335513 340.710806 
L 349.958333 344.19997 
L 356.581154 347.482924 
L 359.892564 350.571856 
L 363.203974 353.301193 
L 366.515385 355.72857 
L 369.826795 353.274582 
L 373.138205 355.37169 
L 376.449615 357.282531 
L 379.761026 359.034341 
L 383.072436 360.649741 
L 386.383846 358.174101 
L 389.695256 359.689164 
L 393.006667 362.233355 
L 396.318077 364.465631 
L 399.629487 366.436695 
L 402.940897 368.188472 
L 406.252308 369.75565 
L 409.563718 371.163391 
L 416.186538 373.456714 
L 422.809359 375.412042 
L 429.432179 377.114177 
L 436.055 378.622154 
L 442.677821 379.848671 
L 455.923462 382.021205 
L 469.169103 383.944534 
L 482.414744 385.647243 
L 495.660385 387.154639 
L 505.594615 388.170588 
L 508.906026 386.557994 
L 525.463077 388.285747 
L 542.020128 389.769428 
L 545.331538 390.04 
L 548.642949 388.962554 
L 551.954359 389.257332 
L 551.954359 389.257332 
" clip-path="url(#p0e07c4d981)" style="fill: none; stroke: #ff0000; stroke-linecap: round"/>
   </g>
   <g id="line2d_35">
    <path d="M 58.554231 39.517163 
L 61.865641 39.688823 
L 65.177051 41.71271 
L 68.488462 48.018262 
L 75.111282 73.464532 
L 78.422692 87.72741 
L 81.734103 100.482712 
L 88.356923 129.311721 
L 91.668333 139.284649 
L 94.979744 146.825371 
L 98.291154 160.228274 
L 101.602564 170.429877 
L 104.913974 173.554817 
L 108.225385 180.733555 
L 111.536795 190.680847 
L 118.159615 196.920952 
L 121.471026 202.892171 
L 124.782436 206.43974 
L 128.093846 216.227169 
L 131.405256 221.700257 
L 134.716667 223.958859 
L 138.028077 226.524899 
L 141.339487 230.748073 
L 144.650897 230.836213 
L 147.962308 233.316991 
L 151.273718 240.486554 
L 154.585128 247.097659 
L 157.896538 244.873471 
L 161.207949 248.5423 
L 164.519359 254.761559 
L 167.830769 248.067307 
L 171.142179 249.371564 
L 174.45359 257.673412 
L 177.765 258.312476 
L 181.07641 264.342832 
L 187.699231 282.373465 
L 191.010641 289.988628 
L 194.322051 308.239288 
L 197.633462 320.219756 
L 200.944872 321.34579 
L 204.256282 330.023821 
L 207.567692 329.871119 
L 210.879103 333.617668 
L 214.190513 332.132369 
L 217.501923 332.639854 
L 220.813333 329.443338 
L 224.124744 333.548043 
L 227.436154 327.352065 
L 230.747564 339.662821 
L 234.058974 363.66953 
L 237.370385 359.659321 
L 240.681795 339.924288 
L 243.993205 331.028091 
L 247.304615 321.133473 
L 250.616026 315.849225 
L 253.927436 321.141985 
L 257.238846 321.233955 
L 260.550256 318.502349 
L 263.861667 320.943518 
L 267.173077 318.910415 
L 270.484487 324.943267 
L 273.795897 337.792582 
L 277.107308 344.161517 
L 280.418718 342.308328 
L 283.730128 346.781256 
L 287.041538 346.238852 
L 290.352949 347.985337 
L 293.664359 344.250472 
L 296.975769 345.949423 
L 300.287179 343.808524 
L 303.59859 350.417611 
L 306.91 351.617784 
L 310.22141 348.863403 
L 313.532821 351.025941 
L 316.844231 349.743137 
L 320.155641 352.956845 
L 323.467051 357.086889 
L 326.778462 351.749795 
L 330.089872 347.97568 
L 333.401282 348.699855 
L 336.712692 358.819972 
L 340.024103 359.44109 
L 343.335513 364.240803 
L 346.646923 373.147584 
L 349.958333 374.478938 
L 353.269744 378.832867 
L 356.581154 378.48999 
L 359.892564 377.71101 
L 363.203974 378.283488 
L 366.515385 380.970715 
L 369.826795 384.067181 
L 373.138205 387.377158 
L 376.449615 390.04 
L 379.761026 386.961545 
L 383.072436 388.53637 
L 389.695256 389.357466 
L 393.006667 379.909332 
L 396.318077 381.489129 
L 402.940897 383.636783 
L 406.252308 383.51981 
L 409.563718 383.994036 
L 412.875128 379.860264 
L 416.186538 382.104355 
L 419.497949 382.881548 
L 422.809359 380.55677 
L 426.120769 378.855413 
L 429.432179 375.058139 
L 432.74359 379.704994 
L 436.055 375.854364 
L 439.36641 381.682885 
L 442.677821 377.346816 
L 445.989231 382.336119 
L 449.300641 375.558987 
L 452.612051 369.244433 
L 455.923462 375.933272 
L 459.234872 358.585766 
L 462.546282 366.198239 
L 465.857692 363.230666 
L 469.169103 362.409429 
L 472.480513 359.38071 
L 475.791923 353.749359 
L 479.103333 359.876024 
L 482.414744 352.723292 
L 485.726154 354.783563 
L 489.037564 355.035793 
L 492.348974 350.24869 
L 495.660385 338.925521 
L 498.971795 343.279752 
L 502.283205 344.826954 
L 505.594615 343.364378 
L 508.906026 335.886577 
L 512.217436 340.565266 
L 515.528846 335.772057 
L 518.840256 330.013675 
L 522.151667 336.165772 
L 525.463077 332.057025 
L 528.774487 326.387561 
L 532.085897 321.440566 
L 535.397308 324.252281 
L 538.708718 321.334004 
L 542.020128 318.739187 
L 545.331538 320.373379 
L 548.642949 320.752675 
L 551.954359 322.290938 
L 551.954359 322.290938 
" clip-path="url(#p0e07c4d981)" style="fill: none; stroke: #800080; stroke-linecap: round"/>
   </g>
   <g id="patch_3">
    <path d="M 48.62 390.04 
L 48.62 25.49625 
" style="fill: none; stroke: #ffffff; stroke-width: 0.8; stroke-linejoin: miter; stroke-linecap: square"/>
   </g>
   <g id="patch_4">
    <path d="M 565.2 390.04 
L 565.2 25.49625 
" style="fill: none; stroke: #ffffff; stroke-width: 0.8; stroke-linejoin: miter; stroke-linecap: square"/>
   </g>
   <g id="patch_5">
    <path d="M 48.62 390.04 
L 565.2 390.04 
" style="fill: none; stroke: #ffffff; stroke-width: 0.8; stroke-linejoin: miter; stroke-linecap: square"/>
   </g>
   <g id="patch_6">
    <path d="M 48.62 25.49625 
L 565.2 25.49625 
" style="fill: none; stroke: #ffffff; stroke-width: 0.8; stroke-linejoin: miter; stroke-linecap: square"/>
   </g>
   <g id="text_30">
    <!-- cartpole_GNN_noise_mlp -->
    <g style="fill: #262626" transform="translate(238.212812 19.49625) scale(0.12 -0.12)">
     <defs>
      <path id="ArialMT-63" d="M 2588 1216 
L 3141 1144 
Q 3050 572 2676 248 
Q 2303 -75 1759 -75 
Q 1078 -75 664 370 
Q 250 816 250 1647 
Q 250 2184 428 2587 
Q 606 2991 970 3192 
Q 1334 3394 1763 3394 
Q 2303 3394 2647 3120 
Q 2991 2847 3088 2344 
L 2541 2259 
Q 2463 2594 2264 2762 
Q 2066 2931 1784 2931 
Q 1359 2931 1093 2626 
Q 828 2322 828 1663 
Q 828 994 1084 691 
Q 1341 388 1753 388 
Q 2084 388 2306 591 
Q 2528 794 2588 1216 
z
" transform="scale(0.015625)"/>
      <path id="ArialMT-74" d="M 1650 503 
L 1731 6 
Q 1494 -44 1306 -44 
Q 1000 -44 831 53 
Q 663 150 594 308 
Q 525 466 525 972 
L 525 2881 
L 113 2881 
L 113 3319 
L 525 3319 
L 525 4141 
L 1084 4478 
L 1084 3319 
L 1650 3319 
L 1650 2881 
L 1084 2881 
L 1084 941 
Q 1084 700 1114 631 
Q 1144 563 1211 522 
Q 1278 481 1403 481 
Q 1497 481 1650 503 
z
" transform="scale(0.015625)"/>
      <path id="ArialMT-6c" d="M 409 0 
L 409 4581 
L 972 4581 
L 972 0 
L 409 0 
z
" transform="scale(0.015625)"/>
      <path id="ArialMT-5f" d="M -97 -1272 
L -97 -866 
L 3631 -866 
L 3631 -1272 
L -97 -1272 
z
" transform="scale(0.015625)"/>
      <path id="ArialMT-47" d="M 2638 1797 
L 2638 2334 
L 4578 2338 
L 4578 638 
Q 4131 281 3656 101 
Q 3181 -78 2681 -78 
Q 2006 -78 1454 211 
Q 903 500 622 1047 
Q 341 1594 341 2269 
Q 341 2938 620 3517 
Q 900 4097 1425 4378 
Q 1950 4659 2634 4659 
Q 3131 4659 3532 4498 
Q 3934 4338 4162 4050 
Q 4391 3763 4509 3300 
L 3963 3150 
Q 3859 3500 3706 3700 
Q 3553 3900 3268 4020 
Q 2984 4141 2638 4141 
Q 2222 4141 1919 4014 
Q 1616 3888 1430 3681 
Q 1244 3475 1141 3228 
Q 966 2803 966 2306 
Q 966 1694 1177 1281 
Q 1388 869 1791 669 
Q 2194 469 2647 469 
Q 3041 469 3416 620 
Q 3791 772 3984 944 
L 3984 1797 
L 2638 1797 
z
" transform="scale(0.015625)"/>
      <path id="ArialMT-4e" d="M 488 0 
L 488 4581 
L 1109 4581 
L 3516 984 
L 3516 4581 
L 4097 4581 
L 4097 0 
L 3475 0 
L 1069 3600 
L 1069 0 
L 488 0 
z
" transform="scale(0.015625)"/>
      <path id="ArialMT-6e" d="M 422 0 
L 422 3319 
L 928 3319 
L 928 2847 
Q 1294 3394 1984 3394 
Q 2284 3394 2536 3286 
Q 2788 3178 2913 3003 
Q 3038 2828 3088 2588 
Q 3119 2431 3119 2041 
L 3119 0 
L 2556 0 
L 2556 2019 
Q 2556 2363 2490 2533 
Q 2425 2703 2258 2804 
Q 2091 2906 1866 2906 
Q 1506 2906 1245 2678 
Q 984 2450 984 1813 
L 984 0 
L 422 0 
z
" transform="scale(0.015625)"/>
      <path id="ArialMT-6d" d="M 422 0 
L 422 3319 
L 925 3319 
L 925 2853 
Q 1081 3097 1340 3245 
Q 1600 3394 1931 3394 
Q 2300 3394 2536 3241 
Q 2772 3088 2869 2813 
Q 3263 3394 3894 3394 
Q 4388 3394 4653 3120 
Q 4919 2847 4919 2278 
L 4919 0 
L 4359 0 
L 4359 2091 
Q 4359 2428 4304 2576 
Q 4250 2725 4106 2815 
Q 3963 2906 3769 2906 
Q 3419 2906 3187 2673 
Q 2956 2441 2956 1928 
L 2956 0 
L 2394 0 
L 2394 2156 
Q 2394 2531 2256 2718 
Q 2119 2906 1806 2906 
Q 1569 2906 1367 2781 
Q 1166 2656 1075 2415 
Q 984 2175 984 1722 
L 984 0 
L 422 0 
z
" transform="scale(0.015625)"/>
     </defs>
     <use xlink:href="#ArialMT-63"/>
     <use xlink:href="#ArialMT-61" transform="translate(50 0)"/>
     <use xlink:href="#ArialMT-72" transform="translate(105.615234 0)"/>
     <use xlink:href="#ArialMT-74" transform="translate(138.916016 0)"/>
     <use xlink:href="#ArialMT-70" transform="translate(166.699219 0)"/>
     <use xlink:href="#ArialMT-6f" transform="translate(222.314453 0)"/>
     <use xlink:href="#ArialMT-6c" transform="translate(277.929688 0)"/>
     <use xlink:href="#ArialMT-65" transform="translate(300.146484 0)"/>
     <use xlink:href="#ArialMT-5f" transform="translate(355.761719 0)"/>
     <use xlink:href="#ArialMT-47" transform="translate(411.376953 0)"/>
     <use xlink:href="#ArialMT-4e" transform="translate(489.160156 0)"/>
     <use xlink:href="#ArialMT-4e" transform="translate(561.376953 0)"/>
     <use xlink:href="#ArialMT-5f" transform="translate(633.59375 0)"/>
     <use xlink:href="#ArialMT-6e" transform="translate(689.208984 0)"/>
     <use xlink:href="#ArialMT-6f" transform="translate(744.824219 0)"/>
     <use xlink:href="#ArialMT-69" transform="translate(800.439453 0)"/>
     <use xlink:href="#ArialMT-73" transform="translate(822.65625 0)"/>
     <use xlink:href="#ArialMT-65" transform="translate(872.65625 0)"/>
     <use xlink:href="#ArialMT-5f" transform="translate(928.271484 0)"/>
     <use xlink:href="#ArialMT-6d" transform="translate(983.886719 0)"/>
     <use xlink:href="#ArialMT-6c" transform="translate(1067.1875 0)"/>
     <use xlink:href="#ArialMT-70" transform="translate(1089.404297 0)"/>
    </g>
   </g>
   <g id="legend_1">
    <g id="patch_7">
     <path d="M 55.62 385.04 
L 209.902813 385.04 
Q 211.902813 385.04 211.902813 383.04 
L 211.902813 312.59625 
Q 211.902813 310.59625 209.902813 310.59625 
L 55.62 310.59625 
Q 53.62 310.59625 53.62 312.59625 
L 53.62 383.04 
Q 53.62 385.04 55.62 385.04 
z
" style="fill: #eaeaf2; opacity: 0.8; stroke: #cccccc; stroke-linejoin: miter"/>
    </g>
    <g id="line2d_36">
     <path d="M 57.62 318.254062 
L 67.62 318.254062 
L 77.62 318.254062 
" style="fill: none; stroke: #0000ff; stroke-width: 1.5; stroke-linecap: round"/>
    </g>
    <g id="text_31">
     <!-- Mean Reward -->
     <g style="fill: #262626" transform="translate(85.62 321.754062) scale(0.1 -0.1)">
      <defs>
       <path id="ArialMT-4d" d="M 475 0 
L 475 4581 
L 1388 4581 
L 2472 1338 
Q 2622 884 2691 659 
Q 2769 909 2934 1394 
L 4031 4581 
L 4847 4581 
L 4847 0 
L 4263 0 
L 4263 3834 
L 2931 0 
L 2384 0 
L 1059 3900 
L 1059 0 
L 475 0 
z
" transform="scale(0.015625)"/>
       <path id="ArialMT-20" transform="scale(0.015625)"/>
      </defs>
      <use xlink:href="#ArialMT-4d"/>
      <use xlink:href="#ArialMT-65" transform="translate(83.300781 0)"/>
      <use xlink:href="#ArialMT-61" transform="translate(138.916016 0)"/>
      <use xlink:href="#ArialMT-6e" transform="translate(194.53125 0)"/>
      <use xlink:href="#ArialMT-20" transform="translate(250.146484 0)"/>
      <use xlink:href="#ArialMT-52" transform="translate(277.929688 0)"/>
      <use xlink:href="#ArialMT-65" transform="translate(350.146484 0)"/>
      <use xlink:href="#ArialMT-77" transform="translate(405.761719 0)"/>
      <use xlink:href="#ArialMT-61" transform="translate(477.978516 0)"/>
      <use xlink:href="#ArialMT-72" transform="translate(533.59375 0)"/>
      <use xlink:href="#ArialMT-64" transform="translate(566.894531 0)"/>
     </g>
    </g>
    <g id="line2d_37">
     <path d="M 57.62 332.52125 
L 67.62 332.52125 
L 77.62 332.52125 
" style="fill: none; stroke: #008000; stroke-opacity: 0.2; stroke-linecap: round"/>
    </g>
    <g id="text_32">
     <!-- Reward (individual runs) -->
     <g style="fill: #262626" transform="translate(85.62 336.02125) scale(0.1 -0.1)">
      <defs>
       <path id="ArialMT-28" d="M 1497 -1347 
Q 1031 -759 709 28 
Q 388 816 388 1659 
Q 388 2403 628 3084 
Q 909 3875 1497 4659 
L 1900 4659 
Q 1522 4009 1400 3731 
Q 1209 3300 1100 2831 
Q 966 2247 966 1656 
Q 966 153 1900 -1347 
L 1497 -1347 
z
" transform="scale(0.015625)"/>
       <path id="ArialMT-76" d="M 1344 0 
L 81 3319 
L 675 3319 
L 1388 1331 
Q 1503 1009 1600 663 
Q 1675 925 1809 1294 
L 2547 3319 
L 3125 3319 
L 1869 0 
L 1344 0 
z
" transform="scale(0.015625)"/>
       <path id="ArialMT-75" d="M 2597 0 
L 2597 488 
Q 2209 -75 1544 -75 
Q 1250 -75 995 37 
Q 741 150 617 320 
Q 494 491 444 738 
Q 409 903 409 1263 
L 409 3319 
L 972 3319 
L 972 1478 
Q 972 1038 1006 884 
Q 1059 663 1231 536 
Q 1403 409 1656 409 
Q 1909 409 2131 539 
Q 2353 669 2445 892 
Q 2538 1116 2538 1541 
L 2538 3319 
L 3100 3319 
L 3100 0 
L 2597 0 
z
" transform="scale(0.015625)"/>
       <path id="ArialMT-29" d="M 791 -1347 
L 388 -1347 
Q 1322 153 1322 1656 
Q 1322 2244 1188 2822 
Q 1081 3291 891 3722 
Q 769 4003 388 4659 
L 791 4659 
Q 1378 3875 1659 3084 
Q 1900 2403 1900 1659 
Q 1900 816 1576 28 
Q 1253 -759 791 -1347 
z
" transform="scale(0.015625)"/>
      </defs>
      <use xlink:href="#ArialMT-52"/>
      <use xlink:href="#ArialMT-65" transform="translate(72.216797 0)"/>
      <use xlink:href="#ArialMT-77" transform="translate(127.832031 0)"/>
      <use xlink:href="#ArialMT-61" transform="translate(200.048828 0)"/>
      <use xlink:href="#ArialMT-72" transform="translate(255.664062 0)"/>
      <use xlink:href="#ArialMT-64" transform="translate(288.964844 0)"/>
      <use xlink:href="#ArialMT-20" transform="translate(344.580078 0)"/>
      <use xlink:href="#ArialMT-28" transform="translate(372.363281 0)"/>
      <use xlink:href="#ArialMT-69" transform="translate(405.664062 0)"/>
      <use xlink:href="#ArialMT-6e" transform="translate(427.880859 0)"/>
      <use xlink:href="#ArialMT-64" transform="translate(483.496094 0)"/>
      <use xlink:href="#ArialMT-69" transform="translate(539.111328 0)"/>
      <use xlink:href="#ArialMT-76" transform="translate(561.328125 0)"/>
      <use xlink:href="#ArialMT-69" transform="translate(611.328125 0)"/>
      <use xlink:href="#ArialMT-64" transform="translate(633.544922 0)"/>
      <use xlink:href="#ArialMT-75" transform="translate(689.160156 0)"/>
      <use xlink:href="#ArialMT-61" transform="translate(744.775391 0)"/>
      <use xlink:href="#ArialMT-6c" transform="translate(800.390625 0)"/>
      <use xlink:href="#ArialMT-20" transform="translate(822.607422 0)"/>
      <use xlink:href="#ArialMT-72" transform="translate(850.390625 0)"/>
      <use xlink:href="#ArialMT-75" transform="translate(883.691406 0)"/>
      <use xlink:href="#ArialMT-6e" transform="translate(939.306641 0)"/>
      <use xlink:href="#ArialMT-73" transform="translate(994.921875 0)"/>
      <use xlink:href="#ArialMT-29" transform="translate(1044.921875 0)"/>
     </g>
    </g>
    <g id="line2d_38">
     <path d="M 57.62 346.905625 
L 67.62 346.905625 
L 77.62 346.905625 
" style="fill: none; stroke: #ff0000; stroke-linecap: round"/>
    </g>
    <g id="text_33">
     <!-- Noise std (normalized) -->
     <g style="fill: #262626" transform="translate(85.62 350.405625) scale(0.1 -0.1)">
      <defs>
       <path id="ArialMT-7a" d="M 125 0 
L 125 456 
L 2238 2881 
Q 1878 2863 1603 2863 
L 250 2863 
L 250 3319 
L 2963 3319 
L 2963 2947 
L 1166 841 
L 819 456 
Q 1197 484 1528 484 
L 3063 484 
L 3063 0 
L 125 0 
z
" transform="scale(0.015625)"/>
      </defs>
      <use xlink:href="#ArialMT-4e"/>
      <use xlink:href="#ArialMT-6f" transform="translate(72.216797 0)"/>
      <use xlink:href="#ArialMT-69" transform="translate(127.832031 0)"/>
      <use xlink:href="#ArialMT-73" transform="translate(150.048828 0)"/>
      <use xlink:href="#ArialMT-65" transform="translate(200.048828 0)"/>
      <use xlink:href="#ArialMT-20" transform="translate(255.664062 0)"/>
      <use xlink:href="#ArialMT-73" transform="translate(283.447266 0)"/>
      <use xlink:href="#ArialMT-74" transform="translate(333.447266 0)"/>
      <use xlink:href="#ArialMT-64" transform="translate(361.230469 0)"/>
      <use xlink:href="#ArialMT-20" transform="translate(416.845703 0)"/>
      <use xlink:href="#ArialMT-28" transform="translate(444.628906 0)"/>
      <use xlink:href="#ArialMT-6e" transform="translate(477.929688 0)"/>
      <use xlink:href="#ArialMT-6f" transform="translate(533.544922 0)"/>
      <use xlink:href="#ArialMT-72" transform="translate(589.160156 0)"/>
      <use xlink:href="#ArialMT-6d" transform="translate(622.460938 0)"/>
      <use xlink:href="#ArialMT-61" transform="translate(705.761719 0)"/>
      <use xlink:href="#ArialMT-6c" transform="translate(761.376953 0)"/>
      <use xlink:href="#ArialMT-69" transform="translate(783.59375 0)"/>
      <use xlink:href="#ArialMT-7a" transform="translate(805.810547 0)"/>
      <use xlink:href="#ArialMT-65" transform="translate(855.810547 0)"/>
      <use xlink:href="#ArialMT-64" transform="translate(911.425781 0)"/>
      <use xlink:href="#ArialMT-29" transform="translate(967.041016 0)"/>
     </g>
    </g>
    <g id="line2d_39">
     <path d="M 57.62 361.29 
L 67.62 361.29 
L 77.62 361.29 
" style="fill: none; stroke: #800080; stroke-linecap: round"/>
    </g>
    <g id="text_34">
     <!-- Entropy (normalized) -->
     <g style="fill: #262626" transform="translate(85.62 364.79) scale(0.1 -0.1)">
      <defs>
       <path id="ArialMT-79" d="M 397 -1278 
L 334 -750 
Q 519 -800 656 -800 
Q 844 -800 956 -737 
Q 1069 -675 1141 -563 
Q 1194 -478 1313 -144 
Q 1328 -97 1363 -6 
L 103 3319 
L 709 3319 
L 1400 1397 
Q 1534 1031 1641 628 
Q 1738 1016 1872 1384 
L 2581 3319 
L 3144 3319 
L 1881 -56 
Q 1678 -603 1566 -809 
Q 1416 -1088 1222 -1217 
Q 1028 -1347 759 -1347 
Q 597 -1347 397 -1278 
z
" transform="scale(0.015625)"/>
      </defs>
      <use xlink:href="#ArialMT-45"/>
      <use xlink:href="#ArialMT-6e" transform="translate(66.699219 0)"/>
      <use xlink:href="#ArialMT-74" transform="translate(122.314453 0)"/>
      <use xlink:href="#ArialMT-72" transform="translate(150.097656 0)"/>
      <use xlink:href="#ArialMT-6f" transform="translate(183.398438 0)"/>
      <use xlink:href="#ArialMT-70" transform="translate(239.013672 0)"/>
      <use xlink:href="#ArialMT-79" transform="translate(294.628906 0)"/>
      <use xlink:href="#ArialMT-20" transform="translate(344.628906 0)"/>
      <use xlink:href="#ArialMT-28" transform="translate(372.412109 0)"/>
      <use xlink:href="#ArialMT-6e" transform="translate(405.712891 0)"/>
      <use xlink:href="#ArialMT-6f" transform="translate(461.328125 0)"/>
      <use xlink:href="#ArialMT-72" transform="translate(516.943359 0)"/>
      <use xlink:href="#ArialMT-6d" transform="translate(550.244141 0)"/>
      <use xlink:href="#ArialMT-61" transform="translate(633.544922 0)"/>
      <use xlink:href="#ArialMT-6c" transform="translate(689.160156 0)"/>
      <use xlink:href="#ArialMT-69" transform="translate(711.376953 0)"/>
      <use xlink:href="#ArialMT-7a" transform="translate(733.59375 0)"/>
      <use xlink:href="#ArialMT-65" transform="translate(783.59375 0)"/>
      <use xlink:href="#ArialMT-64" transform="translate(839.208984 0)"/>
      <use xlink:href="#ArialMT-29" transform="translate(894.824219 0)"/>
     </g>
    </g>
    <g id="patch_8">
     <path d="M 57.62 379.0525 
L 77.62 379.0525 
L 77.62 372.0525 
L 57.62 372.0525 
z
" style="fill: #0000ff; fill-opacity: 0.1"/>
    </g>
    <g id="text_35">
     <!-- Reward Standard Deviation -->
     <g style="fill: #262626" transform="translate(85.62 379.0525) scale(0.1 -0.1)">
      <defs>
       <path id="ArialMT-53" d="M 288 1472 
L 859 1522 
Q 900 1178 1048 958 
Q 1197 738 1509 602 
Q 1822 466 2213 466 
Q 2559 466 2825 569 
Q 3091 672 3220 851 
Q 3350 1031 3350 1244 
Q 3350 1459 3225 1620 
Q 3100 1781 2813 1891 
Q 2628 1963 1997 2114 
Q 1366 2266 1113 2400 
Q 784 2572 623 2826 
Q 463 3081 463 3397 
Q 463 3744 659 4045 
Q 856 4347 1234 4503 
Q 1613 4659 2075 4659 
Q 2584 4659 2973 4495 
Q 3363 4331 3572 4012 
Q 3781 3694 3797 3291 
L 3216 3247 
Q 3169 3681 2898 3903 
Q 2628 4125 2100 4125 
Q 1550 4125 1298 3923 
Q 1047 3722 1047 3438 
Q 1047 3191 1225 3031 
Q 1400 2872 2139 2705 
Q 2878 2538 3153 2413 
Q 3553 2228 3743 1945 
Q 3934 1663 3934 1294 
Q 3934 928 3725 604 
Q 3516 281 3123 101 
Q 2731 -78 2241 -78 
Q 1619 -78 1198 103 
Q 778 284 539 648 
Q 300 1013 288 1472 
z
" transform="scale(0.015625)"/>
       <path id="ArialMT-44" d="M 494 0 
L 494 4581 
L 2072 4581 
Q 2606 4581 2888 4516 
Q 3281 4425 3559 4188 
Q 3922 3881 4101 3404 
Q 4281 2928 4281 2316 
Q 4281 1794 4159 1391 
Q 4038 988 3847 723 
Q 3656 459 3429 307 
Q 3203 156 2883 78 
Q 2563 0 2147 0 
L 494 0 
z
M 1100 541 
L 2078 541 
Q 2531 541 2789 625 
Q 3047 709 3200 863 
Q 3416 1078 3536 1442 
Q 3656 1806 3656 2325 
Q 3656 3044 3420 3430 
Q 3184 3816 2847 3947 
Q 2603 4041 2063 4041 
L 1100 4041 
L 1100 541 
z
" transform="scale(0.015625)"/>
      </defs>
      <use xlink:href="#ArialMT-52"/>
      <use xlink:href="#ArialMT-65" transform="translate(72.216797 0)"/>
      <use xlink:href="#ArialMT-77" transform="translate(127.832031 0)"/>
      <use xlink:href="#ArialMT-61" transform="translate(200.048828 0)"/>
      <use xlink:href="#ArialMT-72" transform="translate(255.664062 0)"/>
      <use xlink:href="#ArialMT-64" transform="translate(288.964844 0)"/>
      <use xlink:href="#ArialMT-20" transform="translate(344.580078 0)"/>
      <use xlink:href="#ArialMT-53" transform="translate(372.363281 0)"/>
      <use xlink:href="#ArialMT-74" transform="translate(439.0625 0)"/>
      <use xlink:href="#ArialMT-61" transform="translate(466.845703 0)"/>
      <use xlink:href="#ArialMT-6e" transform="translate(522.460938 0)"/>
      <use xlink:href="#ArialMT-64" transform="translate(578.076172 0)"/>
      <use xlink:href="#ArialMT-61" transform="translate(633.691406 0)"/>
      <use xlink:href="#ArialMT-72" transform="translate(689.306641 0)"/>
      <use xlink:href="#ArialMT-64" transform="translate(722.607422 0)"/>
      <use xlink:href="#ArialMT-20" transform="translate(778.222656 0)"/>
      <use xlink:href="#ArialMT-44" transform="translate(806.005859 0)"/>
      <use xlink:href="#ArialMT-65" transform="translate(878.222656 0)"/>
      <use xlink:href="#ArialMT-76" transform="translate(933.837891 0)"/>
      <use xlink:href="#ArialMT-69" transform="translate(983.837891 0)"/>
      <use xlink:href="#ArialMT-61" transform="translate(1006.054688 0)"/>
      <use xlink:href="#ArialMT-74" transform="translate(1061.669922 0)"/>
      <use xlink:href="#ArialMT-69" transform="translate(1089.453125 0)"/>
      <use xlink:href="#ArialMT-6f" transform="translate(1111.669922 0)"/>
      <use xlink:href="#ArialMT-6e" transform="translate(1167.285156 0)"/>
     </g>
    </g>
   </g>
  </g>
 </g>
 <defs>
  <clipPath id="p0e07c4d981">
   <rect x="48.62" y="25.49625" width="516.58" height="364.54375"/>
  </clipPath>
 </defs>
</svg>
