<?xml version="1.0" encoding="utf-8" standalone="no"?>
<!DOCTYPE svg PUBLIC "-//W3C//DTD SVG 1.1//EN"
  "http://www.w3.org/Graphics/SVG/1.1/DTD/svg11.dtd">
<svg xmlns:xlink="http://www.w3.org/1999/xlink" width="648pt" height="432pt" viewBox="0 0 648 432" xmlns="http://www.w3.org/2000/svg" version="1.1">
 <metadata>
  <rdf:RDF xmlns:dc="http://purl.org/dc/elements/1.1/" xmlns:cc="http://creativecommons.org/ns#" xmlns:rdf="http://www.w3.org/1999/02/22-rdf-syntax-ns#">
   <cc:Work>
    <dc:type rdf:resource="http://purl.org/dc/dcmitype/StillImage"/>
    <dc:date>2025-07-22T19:35:49.185279</dc:date>
    <dc:format>image/svg+xml</dc:format>
    <dc:creator>
     <cc:Agent>
      <dc:title>Matplotlib v3.10.0, https://matplotlib.org/</dc:title>
     </cc:Agent>
    </dc:creator>
   </cc:Work>
  </rdf:RDF>
 </metadata>
 <defs>
  <style type="text/css">*{stroke-linejoin: round; stroke-linecap: butt}</style>
 </defs>
 <g id="figure_1">
  <g id="patch_1">
   <path d="M 0 432 
L 648 432 
L 648 0 
L 0 0 
z
" style="fill: #ffffff"/>
  </g>
  <g id="axes_1">
   <g id="patch_2">
    <path d="M 65.63 390.04 
L 637.2 390.04 
L 637.2 57.0062 
L 65.63 57.0062 
z
" style="fill: #eaeaf2"/>
   </g>
   <g id="matplotlib.axis_1">
    <g id="xtick_1">
     <g id="line2d_1">
      <path d="M 65.630837 390.04 
L 65.630837 57.0062 
" clip-path="url(#p0487e872b6)" style="fill: none; stroke: #ffffff; stroke-width: 0.8; stroke-linecap: round"/>
     </g>
     <g id="text_1">
      <!-- 0.00 -->
      <g style="fill: #262626" transform="translate(54.498025 404.638438) scale(0.1 -0.1)">
       <defs>
        <path id="DejaVuSans-30" d="M 2034 4250 
Q 1547 4250 1301 3770 
Q 1056 3291 1056 2328 
Q 1056 1369 1301 889 
Q 1547 409 2034 409 
Q 2525 409 2770 889 
Q 3016 1369 3016 2328 
Q 3016 3291 2770 3770 
Q 2525 4250 2034 4250 
z
M 2034 4750 
Q 2819 4750 3233 4129 
Q 3647 3509 3647 2328 
Q 3647 1150 3233 529 
Q 2819 -91 2034 -91 
Q 1250 -91 836 529 
Q 422 1150 422 2328 
Q 422 3509 836 4129 
Q 1250 4750 2034 4750 
z
" transform="scale(0.015625)"/>
        <path id="DejaVuSans-2e" d="M 684 794 
L 1344 794 
L 1344 0 
L 684 0 
L 684 794 
z
" transform="scale(0.015625)"/>
       </defs>
       <use xlink:href="#DejaVuSans-30"/>
       <use xlink:href="#DejaVuSans-2e" transform="translate(63.623047 0)"/>
       <use xlink:href="#DejaVuSans-30" transform="translate(95.410156 0)"/>
       <use xlink:href="#DejaVuSans-30" transform="translate(159.033203 0)"/>
      </g>
     </g>
    </g>
    <g id="xtick_2">
     <g id="line2d_2">
      <path d="M 135.402361 390.04 
L 135.402361 57.0062 
" clip-path="url(#p0487e872b6)" style="fill: none; stroke: #ffffff; stroke-width: 0.8; stroke-linecap: round"/>
     </g>
     <g id="text_2">
      <!-- 0.25 -->
      <g style="fill: #262626" transform="translate(124.269549 404.638438) scale(0.1 -0.1)">
       <defs>
        <path id="DejaVuSans-32" d="M 1228 531 
L 3431 531 
L 3431 0 
L 469 0 
L 469 531 
Q 828 903 1448 1529 
Q 2069 2156 2228 2338 
Q 2531 2678 2651 2914 
Q 2772 3150 2772 3378 
Q 2772 3750 2511 3984 
Q 2250 4219 1831 4219 
Q 1534 4219 1204 4116 
Q 875 4013 500 3803 
L 500 4441 
Q 881 4594 1212 4672 
Q 1544 4750 1819 4750 
Q 2544 4750 2975 4387 
Q 3406 4025 3406 3419 
Q 3406 3131 3298 2873 
Q 3191 2616 2906 2266 
Q 2828 2175 2409 1742 
Q 1991 1309 1228 531 
z
" transform="scale(0.015625)"/>
        <path id="DejaVuSans-35" d="M 691 4666 
L 3169 4666 
L 3169 4134 
L 1269 4134 
L 1269 2991 
Q 1406 3038 1543 3061 
Q 1681 3084 1819 3084 
Q 2600 3084 3056 2656 
Q 3513 2228 3513 1497 
Q 3513 744 3044 326 
Q 2575 -91 1722 -91 
Q 1428 -91 1123 -41 
Q 819 9 494 109 
L 494 744 
Q 775 591 1075 516 
Q 1375 441 1709 441 
Q 2250 441 2565 725 
Q 2881 1009 2881 1497 
Q 2881 1984 2565 2268 
Q 2250 2553 1709 2553 
Q 1456 2553 1204 2497 
Q 953 2441 691 2322 
L 691 4666 
z
" transform="scale(0.015625)"/>
       </defs>
       <use xlink:href="#DejaVuSans-30"/>
       <use xlink:href="#DejaVuSans-2e" transform="translate(63.623047 0)"/>
       <use xlink:href="#DejaVuSans-32" transform="translate(95.410156 0)"/>
       <use xlink:href="#DejaVuSans-35" transform="translate(159.033203 0)"/>
      </g>
     </g>
    </g>
    <g id="xtick_3">
     <g id="line2d_3">
      <path d="M 205.173885 390.04 
L 205.173885 57.0062 
" clip-path="url(#p0487e872b6)" style="fill: none; stroke: #ffffff; stroke-width: 0.8; stroke-linecap: round"/>
     </g>
     <g id="text_3">
      <!-- 0.50 -->
      <g style="fill: #262626" transform="translate(194.041073 404.638438) scale(0.1 -0.1)">
       <use xlink:href="#DejaVuSans-30"/>
       <use xlink:href="#DejaVuSans-2e" transform="translate(63.623047 0)"/>
       <use xlink:href="#DejaVuSans-35" transform="translate(95.410156 0)"/>
       <use xlink:href="#DejaVuSans-30" transform="translate(159.033203 0)"/>
      </g>
     </g>
    </g>
    <g id="xtick_4">
     <g id="line2d_4">
      <path d="M 274.94541 390.04 
L 274.94541 57.0062 
" clip-path="url(#p0487e872b6)" style="fill: none; stroke: #ffffff; stroke-width: 0.8; stroke-linecap: round"/>
     </g>
     <g id="text_4">
      <!-- 0.75 -->
      <g style="fill: #262626" transform="translate(263.812597 404.638438) scale(0.1 -0.1)">
       <defs>
        <path id="DejaVuSans-37" d="M 525 4666 
L 3525 4666 
L 3525 4397 
L 1831 0 
L 1172 0 
L 2766 4134 
L 525 4134 
L 525 4666 
z
" transform="scale(0.015625)"/>
       </defs>
       <use xlink:href="#DejaVuSans-30"/>
       <use xlink:href="#DejaVuSans-2e" transform="translate(63.623047 0)"/>
       <use xlink:href="#DejaVuSans-37" transform="translate(95.410156 0)"/>
       <use xlink:href="#DejaVuSans-35" transform="translate(159.033203 0)"/>
      </g>
     </g>
    </g>
    <g id="xtick_5">
     <g id="line2d_5">
      <path d="M 344.716934 390.04 
L 344.716934 57.0062 
" clip-path="url(#p0487e872b6)" style="fill: none; stroke: #ffffff; stroke-width: 0.8; stroke-linecap: round"/>
     </g>
     <g id="text_5">
      <!-- 1.00 -->
      <g style="fill: #262626" transform="translate(333.584121 404.638438) scale(0.1 -0.1)">
       <defs>
        <path id="DejaVuSans-31" d="M 794 531 
L 1825 531 
L 1825 4091 
L 703 3866 
L 703 4441 
L 1819 4666 
L 2450 4666 
L 2450 531 
L 3481 531 
L 3481 0 
L 794 0 
L 794 531 
z
" transform="scale(0.015625)"/>
       </defs>
       <use xlink:href="#DejaVuSans-31"/>
       <use xlink:href="#DejaVuSans-2e" transform="translate(63.623047 0)"/>
       <use xlink:href="#DejaVuSans-30" transform="translate(95.410156 0)"/>
       <use xlink:href="#DejaVuSans-30" transform="translate(159.033203 0)"/>
      </g>
     </g>
    </g>
    <g id="xtick_6">
     <g id="line2d_6">
      <path d="M 414.488458 390.04 
L 414.488458 57.0062 
" clip-path="url(#p0487e872b6)" style="fill: none; stroke: #ffffff; stroke-width: 0.8; stroke-linecap: round"/>
     </g>
     <g id="text_6">
      <!-- 1.25 -->
      <g style="fill: #262626" transform="translate(403.355645 404.638438) scale(0.1 -0.1)">
       <use xlink:href="#DejaVuSans-31"/>
       <use xlink:href="#DejaVuSans-2e" transform="translate(63.623047 0)"/>
       <use xlink:href="#DejaVuSans-32" transform="translate(95.410156 0)"/>
       <use xlink:href="#DejaVuSans-35" transform="translate(159.033203 0)"/>
      </g>
     </g>
    </g>
    <g id="xtick_7">
     <g id="line2d_7">
      <path d="M 484.259982 390.04 
L 484.259982 57.0062 
" clip-path="url(#p0487e872b6)" style="fill: none; stroke: #ffffff; stroke-width: 0.8; stroke-linecap: round"/>
     </g>
     <g id="text_7">
      <!-- 1.50 -->
      <g style="fill: #262626" transform="translate(473.127169 404.638438) scale(0.1 -0.1)">
       <use xlink:href="#DejaVuSans-31"/>
       <use xlink:href="#DejaVuSans-2e" transform="translate(63.623047 0)"/>
       <use xlink:href="#DejaVuSans-35" transform="translate(95.410156 0)"/>
       <use xlink:href="#DejaVuSans-30" transform="translate(159.033203 0)"/>
      </g>
     </g>
    </g>
    <g id="xtick_8">
     <g id="line2d_8">
      <path d="M 554.031506 390.04 
L 554.031506 57.0062 
" clip-path="url(#p0487e872b6)" style="fill: none; stroke: #ffffff; stroke-width: 0.8; stroke-linecap: round"/>
     </g>
     <g id="text_8">
      <!-- 1.75 -->
      <g style="fill: #262626" transform="translate(542.898694 404.638438) scale(0.1 -0.1)">
       <use xlink:href="#DejaVuSans-31"/>
       <use xlink:href="#DejaVuSans-2e" transform="translate(63.623047 0)"/>
       <use xlink:href="#DejaVuSans-37" transform="translate(95.410156 0)"/>
       <use xlink:href="#DejaVuSans-35" transform="translate(159.033203 0)"/>
      </g>
     </g>
    </g>
    <g id="xtick_9">
     <g id="line2d_9">
      <path d="M 623.80303 390.04 
L 623.80303 57.0062 
" clip-path="url(#p0487e872b6)" style="fill: none; stroke: #ffffff; stroke-width: 0.8; stroke-linecap: round"/>
     </g>
     <g id="text_9">
      <!-- 2.00 -->
      <g style="fill: #262626" transform="translate(612.670218 404.638438) scale(0.1 -0.1)">
       <use xlink:href="#DejaVuSans-32"/>
       <use xlink:href="#DejaVuSans-2e" transform="translate(63.623047 0)"/>
       <use xlink:href="#DejaVuSans-30" transform="translate(95.410156 0)"/>
       <use xlink:href="#DejaVuSans-30" transform="translate(159.033203 0)"/>
      </g>
     </g>
    </g>
    <g id="text_10">
     <!-- Steps -->
     <g style="fill: #262626" transform="translate(337.425156 418.316562) scale(0.1 -0.1)">
      <defs>
       <path id="DejaVuSans-53" d="M 3425 4513 
L 3425 3897 
Q 3066 4069 2747 4153 
Q 2428 4238 2131 4238 
Q 1616 4238 1336 4038 
Q 1056 3838 1056 3469 
Q 1056 3159 1242 3001 
Q 1428 2844 1947 2747 
L 2328 2669 
Q 3034 2534 3370 2195 
Q 3706 1856 3706 1288 
Q 3706 609 3251 259 
Q 2797 -91 1919 -91 
Q 1588 -91 1214 -16 
Q 841 59 441 206 
L 441 856 
Q 825 641 1194 531 
Q 1563 422 1919 422 
Q 2459 422 2753 634 
Q 3047 847 3047 1241 
Q 3047 1584 2836 1778 
Q 2625 1972 2144 2069 
L 1759 2144 
Q 1053 2284 737 2584 
Q 422 2884 422 3419 
Q 422 4038 858 4394 
Q 1294 4750 2059 4750 
Q 2388 4750 2728 4690 
Q 3069 4631 3425 4513 
z
" transform="scale(0.015625)"/>
       <path id="DejaVuSans-74" d="M 1172 4494 
L 1172 3500 
L 2356 3500 
L 2356 3053 
L 1172 3053 
L 1172 1153 
Q 1172 725 1289 603 
Q 1406 481 1766 481 
L 2356 481 
L 2356 0 
L 1766 0 
Q 1100 0 847 248 
Q 594 497 594 1153 
L 594 3053 
L 172 3053 
L 172 3500 
L 594 3500 
L 594 4494 
L 1172 4494 
z
" transform="scale(0.015625)"/>
       <path id="DejaVuSans-65" d="M 3597 1894 
L 3597 1613 
L 953 1613 
Q 991 1019 1311 708 
Q 1631 397 2203 397 
Q 2534 397 2845 478 
Q 3156 559 3463 722 
L 3463 178 
Q 3153 47 2828 -22 
Q 2503 -91 2169 -91 
Q 1331 -91 842 396 
Q 353 884 353 1716 
Q 353 2575 817 3079 
Q 1281 3584 2069 3584 
Q 2775 3584 3186 3129 
Q 3597 2675 3597 1894 
z
M 3022 2063 
Q 3016 2534 2758 2815 
Q 2500 3097 2075 3097 
Q 1594 3097 1305 2825 
Q 1016 2553 972 2059 
L 3022 2063 
z
" transform="scale(0.015625)"/>
       <path id="DejaVuSans-70" d="M 1159 525 
L 1159 -1331 
L 581 -1331 
L 581 3500 
L 1159 3500 
L 1159 2969 
Q 1341 3281 1617 3432 
Q 1894 3584 2278 3584 
Q 2916 3584 3314 3078 
Q 3713 2572 3713 1747 
Q 3713 922 3314 415 
Q 2916 -91 2278 -91 
Q 1894 -91 1617 61 
Q 1341 213 1159 525 
z
M 3116 1747 
Q 3116 2381 2855 2742 
Q 2594 3103 2138 3103 
Q 1681 3103 1420 2742 
Q 1159 2381 1159 1747 
Q 1159 1113 1420 752 
Q 1681 391 2138 391 
Q 2594 391 2855 752 
Q 3116 1113 3116 1747 
z
" transform="scale(0.015625)"/>
       <path id="DejaVuSans-73" d="M 2834 3397 
L 2834 2853 
Q 2591 2978 2328 3040 
Q 2066 3103 1784 3103 
Q 1356 3103 1142 2972 
Q 928 2841 928 2578 
Q 928 2378 1081 2264 
Q 1234 2150 1697 2047 
L 1894 2003 
Q 2506 1872 2764 1633 
Q 3022 1394 3022 966 
Q 3022 478 2636 193 
Q 2250 -91 1575 -91 
Q 1294 -91 989 -36 
Q 684 19 347 128 
L 347 722 
Q 666 556 975 473 
Q 1284 391 1588 391 
Q 1994 391 2212 530 
Q 2431 669 2431 922 
Q 2431 1156 2273 1281 
Q 2116 1406 1581 1522 
L 1381 1569 
Q 847 1681 609 1914 
Q 372 2147 372 2553 
Q 372 3047 722 3315 
Q 1072 3584 1716 3584 
Q 2034 3584 2315 3537 
Q 2597 3491 2834 3397 
z
" transform="scale(0.015625)"/>
      </defs>
      <use xlink:href="#DejaVuSans-53"/>
      <use xlink:href="#DejaVuSans-74" transform="translate(63.476562 0)"/>
      <use xlink:href="#DejaVuSans-65" transform="translate(102.685547 0)"/>
      <use xlink:href="#DejaVuSans-70" transform="translate(164.208984 0)"/>
      <use xlink:href="#DejaVuSans-73" transform="translate(227.685547 0)"/>
     </g>
    </g>
    <g id="text_11">
     <!-- 1e6 -->
     <g style="fill: #262626" transform="translate(618.321875 417.316562) scale(0.1 -0.1)">
      <defs>
       <path id="DejaVuSans-36" d="M 2113 2584 
Q 1688 2584 1439 2293 
Q 1191 2003 1191 1497 
Q 1191 994 1439 701 
Q 1688 409 2113 409 
Q 2538 409 2786 701 
Q 3034 994 3034 1497 
Q 3034 2003 2786 2293 
Q 2538 2584 2113 2584 
z
M 3366 4563 
L 3366 3988 
Q 3128 4100 2886 4159 
Q 2644 4219 2406 4219 
Q 1781 4219 1451 3797 
Q 1122 3375 1075 2522 
Q 1259 2794 1537 2939 
Q 1816 3084 2150 3084 
Q 2853 3084 3261 2657 
Q 3669 2231 3669 1497 
Q 3669 778 3244 343 
Q 2819 -91 2113 -91 
Q 1303 -91 875 529 
Q 447 1150 447 2328 
Q 447 3434 972 4092 
Q 1497 4750 2381 4750 
Q 2619 4750 2861 4703 
Q 3103 4656 3366 4563 
z
" transform="scale(0.015625)"/>
      </defs>
      <use xlink:href="#DejaVuSans-31"/>
      <use xlink:href="#DejaVuSans-65" transform="translate(63.623047 0)"/>
      <use xlink:href="#DejaVuSans-36" transform="translate(125.146484 0)"/>
     </g>
    </g>
   </g>
   <g id="matplotlib.axis_2">
    <g id="ytick_1">
     <g id="line2d_10">
      <path d="M 65.63 390.04 
L 637.2 390.04 
" clip-path="url(#p0487e872b6)" style="fill: none; stroke: #ffffff; stroke-width: 0.8; stroke-linecap: round"/>
     </g>
     <g id="text_12">
      <!-- −1600 -->
      <g style="fill: #262626" transform="translate(24.800313 393.839219) scale(0.1 -0.1)">
       <defs>
        <path id="DejaVuSans-2212" d="M 678 2272 
L 4684 2272 
L 4684 1741 
L 678 1741 
L 678 2272 
z
" transform="scale(0.015625)"/>
       </defs>
       <use xlink:href="#DejaVuSans-2212"/>
       <use xlink:href="#DejaVuSans-31" transform="translate(83.789062 0)"/>
       <use xlink:href="#DejaVuSans-36" transform="translate(147.412109 0)"/>
       <use xlink:href="#DejaVuSans-30" transform="translate(211.035156 0)"/>
       <use xlink:href="#DejaVuSans-30" transform="translate(274.658203 0)"/>
      </g>
     </g>
    </g>
    <g id="ytick_2">
     <g id="line2d_11">
      <path d="M 65.63 348.410775 
L 637.2 348.410775 
" clip-path="url(#p0487e872b6)" style="fill: none; stroke: #ffffff; stroke-width: 0.8; stroke-linecap: round"/>
     </g>
     <g id="text_13">
      <!-- −1400 -->
      <g style="fill: #262626" transform="translate(24.800313 352.209994) scale(0.1 -0.1)">
       <defs>
        <path id="DejaVuSans-34" d="M 2419 4116 
L 825 1625 
L 2419 1625 
L 2419 4116 
z
M 2253 4666 
L 3047 4666 
L 3047 1625 
L 3713 1625 
L 3713 1100 
L 3047 1100 
L 3047 0 
L 2419 0 
L 2419 1100 
L 313 1100 
L 313 1709 
L 2253 4666 
z
" transform="scale(0.015625)"/>
       </defs>
       <use xlink:href="#DejaVuSans-2212"/>
       <use xlink:href="#DejaVuSans-31" transform="translate(83.789062 0)"/>
       <use xlink:href="#DejaVuSans-34" transform="translate(147.412109 0)"/>
       <use xlink:href="#DejaVuSans-30" transform="translate(211.035156 0)"/>
       <use xlink:href="#DejaVuSans-30" transform="translate(274.658203 0)"/>
      </g>
     </g>
    </g>
    <g id="ytick_3">
     <g id="line2d_12">
      <path d="M 65.63 306.78155 
L 637.2 306.78155 
" clip-path="url(#p0487e872b6)" style="fill: none; stroke: #ffffff; stroke-width: 0.8; stroke-linecap: round"/>
     </g>
     <g id="text_14">
      <!-- −1200 -->
      <g style="fill: #262626" transform="translate(24.800313 310.580769) scale(0.1 -0.1)">
       <use xlink:href="#DejaVuSans-2212"/>
       <use xlink:href="#DejaVuSans-31" transform="translate(83.789062 0)"/>
       <use xlink:href="#DejaVuSans-32" transform="translate(147.412109 0)"/>
       <use xlink:href="#DejaVuSans-30" transform="translate(211.035156 0)"/>
       <use xlink:href="#DejaVuSans-30" transform="translate(274.658203 0)"/>
      </g>
     </g>
    </g>
    <g id="ytick_4">
     <g id="line2d_13">
      <path d="M 65.63 265.152325 
L 637.2 265.152325 
" clip-path="url(#p0487e872b6)" style="fill: none; stroke: #ffffff; stroke-width: 0.8; stroke-linecap: round"/>
     </g>
     <g id="text_15">
      <!-- −1000 -->
      <g style="fill: #262626" transform="translate(24.800313 268.951544) scale(0.1 -0.1)">
       <use xlink:href="#DejaVuSans-2212"/>
       <use xlink:href="#DejaVuSans-31" transform="translate(83.789062 0)"/>
       <use xlink:href="#DejaVuSans-30" transform="translate(147.412109 0)"/>
       <use xlink:href="#DejaVuSans-30" transform="translate(211.035156 0)"/>
       <use xlink:href="#DejaVuSans-30" transform="translate(274.658203 0)"/>
      </g>
     </g>
    </g>
    <g id="ytick_5">
     <g id="line2d_14">
      <path d="M 65.63 223.5231 
L 637.2 223.5231 
" clip-path="url(#p0487e872b6)" style="fill: none; stroke: #ffffff; stroke-width: 0.8; stroke-linecap: round"/>
     </g>
     <g id="text_16">
      <!-- −800 -->
      <g style="fill: #262626" transform="translate(31.162813 227.322319) scale(0.1 -0.1)">
       <defs>
        <path id="DejaVuSans-38" d="M 2034 2216 
Q 1584 2216 1326 1975 
Q 1069 1734 1069 1313 
Q 1069 891 1326 650 
Q 1584 409 2034 409 
Q 2484 409 2743 651 
Q 3003 894 3003 1313 
Q 3003 1734 2745 1975 
Q 2488 2216 2034 2216 
z
M 1403 2484 
Q 997 2584 770 2862 
Q 544 3141 544 3541 
Q 544 4100 942 4425 
Q 1341 4750 2034 4750 
Q 2731 4750 3128 4425 
Q 3525 4100 3525 3541 
Q 3525 3141 3298 2862 
Q 3072 2584 2669 2484 
Q 3125 2378 3379 2068 
Q 3634 1759 3634 1313 
Q 3634 634 3220 271 
Q 2806 -91 2034 -91 
Q 1263 -91 848 271 
Q 434 634 434 1313 
Q 434 1759 690 2068 
Q 947 2378 1403 2484 
z
M 1172 3481 
Q 1172 3119 1398 2916 
Q 1625 2713 2034 2713 
Q 2441 2713 2670 2916 
Q 2900 3119 2900 3481 
Q 2900 3844 2670 4047 
Q 2441 4250 2034 4250 
Q 1625 4250 1398 4047 
Q 1172 3844 1172 3481 
z
" transform="scale(0.015625)"/>
       </defs>
       <use xlink:href="#DejaVuSans-2212"/>
       <use xlink:href="#DejaVuSans-38" transform="translate(83.789062 0)"/>
       <use xlink:href="#DejaVuSans-30" transform="translate(147.412109 0)"/>
       <use xlink:href="#DejaVuSans-30" transform="translate(211.035156 0)"/>
      </g>
     </g>
    </g>
    <g id="ytick_6">
     <g id="line2d_15">
      <path d="M 65.63 181.893875 
L 637.2 181.893875 
" clip-path="url(#p0487e872b6)" style="fill: none; stroke: #ffffff; stroke-width: 0.8; stroke-linecap: round"/>
     </g>
     <g id="text_17">
      <!-- −600 -->
      <g style="fill: #262626" transform="translate(31.162813 185.693094) scale(0.1 -0.1)">
       <use xlink:href="#DejaVuSans-2212"/>
       <use xlink:href="#DejaVuSans-36" transform="translate(83.789062 0)"/>
       <use xlink:href="#DejaVuSans-30" transform="translate(147.412109 0)"/>
       <use xlink:href="#DejaVuSans-30" transform="translate(211.035156 0)"/>
      </g>
     </g>
    </g>
    <g id="ytick_7">
     <g id="line2d_16">
      <path d="M 65.63 140.26465 
L 637.2 140.26465 
" clip-path="url(#p0487e872b6)" style="fill: none; stroke: #ffffff; stroke-width: 0.8; stroke-linecap: round"/>
     </g>
     <g id="text_18">
      <!-- −400 -->
      <g style="fill: #262626" transform="translate(31.162813 144.063869) scale(0.1 -0.1)">
       <use xlink:href="#DejaVuSans-2212"/>
       <use xlink:href="#DejaVuSans-34" transform="translate(83.789062 0)"/>
       <use xlink:href="#DejaVuSans-30" transform="translate(147.412109 0)"/>
       <use xlink:href="#DejaVuSans-30" transform="translate(211.035156 0)"/>
      </g>
     </g>
    </g>
    <g id="ytick_8">
     <g id="line2d_17">
      <path d="M 65.63 98.635425 
L 637.2 98.635425 
" clip-path="url(#p0487e872b6)" style="fill: none; stroke: #ffffff; stroke-width: 0.8; stroke-linecap: round"/>
     </g>
     <g id="text_19">
      <!-- −200 -->
      <g style="fill: #262626" transform="translate(31.162813 102.434644) scale(0.1 -0.1)">
       <use xlink:href="#DejaVuSans-2212"/>
       <use xlink:href="#DejaVuSans-32" transform="translate(83.789062 0)"/>
       <use xlink:href="#DejaVuSans-30" transform="translate(147.412109 0)"/>
       <use xlink:href="#DejaVuSans-30" transform="translate(211.035156 0)"/>
      </g>
     </g>
    </g>
    <g id="ytick_9">
     <g id="line2d_18">
      <path d="M 65.63 57.0062 
L 637.2 57.0062 
" clip-path="url(#p0487e872b6)" style="fill: none; stroke: #ffffff; stroke-width: 0.8; stroke-linecap: round"/>
     </g>
     <g id="text_20">
      <!-- 0 -->
      <g style="fill: #262626" transform="translate(52.2675 60.805419) scale(0.1 -0.1)">
       <use xlink:href="#DejaVuSans-30"/>
      </g>
     </g>
    </g>
    <g id="text_21">
     <!-- Reward -->
     <g style="fill: #262626" transform="translate(18.720625 242.144194) rotate(-90) scale(0.1 -0.1)">
      <defs>
       <path id="DejaVuSans-52" d="M 2841 2188 
Q 3044 2119 3236 1894 
Q 3428 1669 3622 1275 
L 4263 0 
L 3584 0 
L 2988 1197 
Q 2756 1666 2539 1819 
Q 2322 1972 1947 1972 
L 1259 1972 
L 1259 0 
L 628 0 
L 628 4666 
L 2053 4666 
Q 2853 4666 3247 4331 
Q 3641 3997 3641 3322 
Q 3641 2881 3436 2590 
Q 3231 2300 2841 2188 
z
M 1259 4147 
L 1259 2491 
L 2053 2491 
Q 2509 2491 2742 2702 
Q 2975 2913 2975 3322 
Q 2975 3731 2742 3939 
Q 2509 4147 2053 4147 
L 1259 4147 
z
" transform="scale(0.015625)"/>
       <path id="DejaVuSans-77" d="M 269 3500 
L 844 3500 
L 1563 769 
L 2278 3500 
L 2956 3500 
L 3675 769 
L 4391 3500 
L 4966 3500 
L 4050 0 
L 3372 0 
L 2619 2869 
L 1863 0 
L 1184 0 
L 269 3500 
z
" transform="scale(0.015625)"/>
       <path id="DejaVuSans-61" d="M 2194 1759 
Q 1497 1759 1228 1600 
Q 959 1441 959 1056 
Q 959 750 1161 570 
Q 1363 391 1709 391 
Q 2188 391 2477 730 
Q 2766 1069 2766 1631 
L 2766 1759 
L 2194 1759 
z
M 3341 1997 
L 3341 0 
L 2766 0 
L 2766 531 
Q 2569 213 2275 61 
Q 1981 -91 1556 -91 
Q 1019 -91 701 211 
Q 384 513 384 1019 
Q 384 1609 779 1909 
Q 1175 2209 1959 2209 
L 2766 2209 
L 2766 2266 
Q 2766 2663 2505 2880 
Q 2244 3097 1772 3097 
Q 1472 3097 1187 3025 
Q 903 2953 641 2809 
L 641 3341 
Q 956 3463 1253 3523 
Q 1550 3584 1831 3584 
Q 2591 3584 2966 3190 
Q 3341 2797 3341 1997 
z
" transform="scale(0.015625)"/>
       <path id="DejaVuSans-72" d="M 2631 2963 
Q 2534 3019 2420 3045 
Q 2306 3072 2169 3072 
Q 1681 3072 1420 2755 
Q 1159 2438 1159 1844 
L 1159 0 
L 581 0 
L 581 3500 
L 1159 3500 
L 1159 2956 
Q 1341 3275 1631 3429 
Q 1922 3584 2338 3584 
Q 2397 3584 2469 3576 
Q 2541 3569 2628 3553 
L 2631 2963 
z
" transform="scale(0.015625)"/>
       <path id="DejaVuSans-64" d="M 2906 2969 
L 2906 4863 
L 3481 4863 
L 3481 0 
L 2906 0 
L 2906 525 
Q 2725 213 2448 61 
Q 2172 -91 1784 -91 
Q 1150 -91 751 415 
Q 353 922 353 1747 
Q 353 2572 751 3078 
Q 1150 3584 1784 3584 
Q 2172 3584 2448 3432 
Q 2725 3281 2906 2969 
z
M 947 1747 
Q 947 1113 1208 752 
Q 1469 391 1925 391 
Q 2381 391 2643 752 
Q 2906 1113 2906 1747 
Q 2906 2381 2643 2742 
Q 2381 3103 1925 3103 
Q 1469 3103 1208 2742 
Q 947 2381 947 1747 
z
" transform="scale(0.015625)"/>
      </defs>
      <use xlink:href="#DejaVuSans-52"/>
      <use xlink:href="#DejaVuSans-65" transform="translate(64.982422 0)"/>
      <use xlink:href="#DejaVuSans-77" transform="translate(126.505859 0)"/>
      <use xlink:href="#DejaVuSans-61" transform="translate(208.292969 0)"/>
      <use xlink:href="#DejaVuSans-72" transform="translate(269.572266 0)"/>
      <use xlink:href="#DejaVuSans-64" transform="translate(308.935547 0)"/>
     </g>
    </g>
   </g>
   <g id="FillBetweenPolyCollection_1">
    <path d="M 65.630837 297.034883 
L 65.630837 312.405639 
L 71.346521 307.859183 
L 77.062204 304.760156 
L 82.777887 301.966638 
L 88.49357 306.255999 
L 94.209254 297.032022 
L 99.924937 302.564697 
L 105.64062 303.905423 
L 111.356303 303.2566 
L 117.071987 311.997864 
L 122.78767 299.211617 
L 128.503353 288.849948 
L 134.219036 284.767333 
L 139.93472 288.075073 
L 145.650403 265.721548 
L 151.366086 256.697613 
L 157.081769 249.201263 
L 162.797453 236.909866 
L 168.513136 221.892291 
L 174.228819 216.615633 
L 179.944502 185.236103 
L 185.660186 193.899627 
L 191.375869 187.947927 
L 197.091552 189.187166 
L 202.807235 183.144807 
L 208.522919 159.62792 
L 214.238602 173.960923 
L 219.954285 169.242311 
L 225.669968 159.716188 
L 231.385652 139.075867 
L 237.101335 138.206971 
L 242.817018 121.896506 
L 248.532701 126.925914 
L 254.248385 147.074001 
L 259.964068 125.966492 
L 265.679751 119.084932 
L 271.395434 113.037395 
L 277.111118 118.112306 
L 282.826801 119.280608 
L 288.542484 152.106302 
L 294.258167 129.321656 
L 299.973851 118.024821 
L 305.689534 115.082766 
L 311.405217 140.366623 
L 317.1209 131.59635 
L 322.836584 116.421494 
L 328.552267 116.723193 
L 334.26795 136.207224 
L 339.983633 107.210704 
L 345.699317 129.132342 
L 351.415 135.632813 
L 357.130683 117.53991 
L 362.846367 110.163838 
L 368.56205 129.672632 
L 374.277733 130.052425 
L 379.993416 126.453609 
L 385.7091 172.958736 
L 391.424783 163.415782 
L 397.140466 138.498506 
L 402.856149 160.611633 
L 408.571833 146.886764 
L 414.287516 108.584899 
L 420.003199 137.679954 
L 425.718882 116.857757 
L 431.434566 105.129333 
L 437.150249 122.346938 
L 442.865932 110.170305 
L 448.581615 112.69962 
L 454.297299 115.70625 
L 460.012982 111.065898 
L 465.728665 104.64407 
L 471.444348 109.393668 
L 477.160032 134.417104 
L 482.875715 136.356156 
L 488.591398 119.357589 
L 494.307081 109.460344 
L 500.022765 137.273116 
L 505.738448 121.327598 
L 511.454131 103.908534 
L 517.169814 99.224983 
L 522.885498 98.745718 
L 528.601181 97.560117 
L 534.316864 99.044911 
L 540.032547 104.553904 
L 545.748231 97.752999 
L 551.463914 93.404062 
L 557.179597 98.594416 
L 562.89528 99.531641 
L 568.610964 102.250511 
L 574.326647 93.547018 
L 580.04233 99.223508 
L 585.758013 91.996735 
L 591.473697 92.384919 
L 597.18938 95.479317 
L 602.905063 99.670697 
L 608.620746 92.993298 
L 614.33643 101.583365 
L 620.052113 96.023902 
L 625.767796 95.896602 
L 631.483479 96.644225 
L 631.483479 85.753094 
L 631.483479 85.753094 
L 625.767796 84.760483 
L 620.052113 90.436371 
L 614.33643 85.920429 
L 608.620746 89.23083 
L 602.905063 93.051877 
L 597.18938 83.719111 
L 591.473697 83.949382 
L 585.758013 86.998144 
L 580.04233 86.724056 
L 574.326647 89.514001 
L 568.610964 84.819125 
L 562.89528 83.887579 
L 557.179597 87.896124 
L 551.463914 86.085019 
L 545.748231 89.306789 
L 540.032547 82.780719 
L 534.316864 88.72597 
L 528.601181 86.855945 
L 522.885498 90.965751 
L 517.169814 85.485086 
L 511.454131 90.327107 
L 505.738448 91.113457 
L 500.022765 88.64156 
L 494.307081 88.588329 
L 488.591398 81.939779 
L 482.875715 87.180769 
L 477.160032 82.341735 
L 471.444348 87.038816 
L 465.728665 88.254475 
L 460.012982 95.728871 
L 454.297299 90.74653 
L 448.581615 87.214073 
L 442.865932 86.58851 
L 437.150249 84.042034 
L 431.434566 91.412383 
L 425.718882 82.915539 
L 420.003199 82.990292 
L 414.287516 93.083224 
L 408.571833 77.583411 
L 402.856149 77.347487 
L 397.140466 79.710629 
L 391.424783 84.488021 
L 385.7091 87.890092 
L 379.993416 87.015346 
L 374.277733 83.752699 
L 368.56205 92.092319 
L 362.846367 85.830617 
L 357.130683 91.872334 
L 351.415 92.685426 
L 345.699317 98.366367 
L 339.983633 87.870406 
L 334.26795 83.855601 
L 328.552267 89.147213 
L 322.836584 96.038134 
L 317.1209 78.302099 
L 311.405217 76.764171 
L 305.689534 91.068366 
L 299.973851 86.625394 
L 294.258167 92.855069 
L 288.542484 83.458166 
L 282.826801 93.095456 
L 277.111118 94.887183 
L 271.395434 94.700636 
L 265.679751 95.565733 
L 259.964068 99.553069 
L 254.248385 86.544853 
L 248.532701 101.918088 
L 242.817018 100.932203 
L 237.101335 93.837674 
L 231.385652 104.126291 
L 225.669968 90.985128 
L 219.954285 103.788335 
L 214.238602 97.867761 
L 208.522919 100.300303 
L 202.807235 109.282078 
L 197.091552 99.571266 
L 191.375869 109.47325 
L 185.660186 110.760212 
L 179.944502 106.267959 
L 174.228819 119.886763 
L 168.513136 157.259252 
L 162.797453 149.625407 
L 157.081769 126.50688 
L 151.366086 151.565598 
L 145.650403 160.621086 
L 139.93472 167.407534 
L 134.219036 179.306502 
L 128.503353 206.743883 
L 122.78767 227.375962 
L 117.071987 242.014652 
L 111.356303 251.846103 
L 105.64062 272.395292 
L 99.924937 277.755873 
L 94.209254 275.90228 
L 88.49357 292.515527 
L 82.777887 288.343144 
L 77.062204 284.051122 
L 71.346521 288.42939 
L 65.630837 297.034883 
z
" clip-path="url(#p0487e872b6)" style="fill: #1f77b4; fill-opacity: 0.2"/>
   </g>
   <g id="FillBetweenPolyCollection_2">
    <path d="M 65.630837 299.995669 
L 65.630837 323.408946 
L 71.346521 316.887593 
L 77.062204 317.44501 
L 82.777887 300.652989 
L 88.49357 305.224228 
L 94.209254 282.56126 
L 99.924937 281.434518 
L 105.64062 269.36342 
L 111.356303 268.430084 
L 117.071987 262.099598 
L 122.78767 248.044957 
L 128.503353 253.640851 
L 134.219036 248.801229 
L 139.93472 241.727107 
L 145.650403 248.751908 
L 151.366086 235.399578 
L 157.081769 241.940524 
L 162.797453 227.104294 
L 168.513136 214.810941 
L 174.228819 242.278796 
L 179.944502 229.117295 
L 185.660186 241.103132 
L 191.375869 212.74047 
L 197.091552 196.861695 
L 202.807235 202.894572 
L 208.522919 195.075566 
L 214.238602 189.743988 
L 219.954285 196.564855 
L 225.669968 204.327691 
L 231.385652 193.972303 
L 237.101335 177.530923 
L 242.817018 213.890807 
L 248.532701 192.115601 
L 254.248385 183.117164 
L 259.964068 196.999473 
L 265.679751 166.756642 
L 271.395434 175.495399 
L 277.111118 187.623226 
L 282.826801 188.247623 
L 288.542484 225.552562 
L 294.258167 184.405999 
L 299.973851 186.630976 
L 305.689534 230.564879 
L 311.405217 187.214015 
L 317.1209 221.862016 
L 322.836584 229.228677 
L 328.552267 199.117858 
L 334.26795 178.169571 
L 339.983633 235.370932 
L 345.699317 205.965605 
L 351.415 204.988428 
L 357.130683 203.000466 
L 362.846367 219.774242 
L 368.56205 235.567312 
L 374.277733 218.275365 
L 379.993416 257.654875 
L 385.7091 222.774794 
L 391.424783 218.464793 
L 397.140466 239.022634 
L 402.856149 217.342889 
L 408.571833 212.206887 
L 414.287516 212.396491 
L 420.003199 210.347562 
L 425.718882 210.983219 
L 431.434566 195.990831 
L 437.150249 207.137876 
L 442.865932 145.259017 
L 448.581615 175.741083 
L 454.297299 180.241882 
L 460.012982 153.766959 
L 465.728665 149.095616 
L 471.444348 220.643179 
L 477.160032 235.532605 
L 482.875715 216.235977 
L 488.591398 268.78949 
L 494.307081 282.136138 
L 500.022765 265.467552 
L 505.738448 282.067878 
L 511.454131 277.269772 
L 517.169814 268.323721 
L 522.885498 265.017915 
L 528.601181 261.849247 
L 534.316864 276.763797 
L 540.032547 267.666111 
L 545.748231 291.741229 
L 551.463914 280.957414 
L 557.179597 266.884616 
L 562.89528 267.412015 
L 568.610964 276.651708 
L 574.326647 264.872271 
L 580.04233 268.144139 
L 585.758013 275.376117 
L 591.473697 273.469154 
L 597.18938 274.281309 
L 602.905063 265.843593 
L 608.620746 262.180776 
L 614.33643 262.206756 
L 620.052113 266.390217 
L 625.767796 257.550831 
L 631.483479 249.56184 
L 631.483479 76.49005 
L 631.483479 76.49005 
L 625.767796 89.903938 
L 620.052113 86.331575 
L 614.33643 80.350908 
L 608.620746 80.534839 
L 602.905063 86.682873 
L 597.18938 75.890157 
L 591.473697 84.747782 
L 585.758013 86.762514 
L 580.04233 86.706274 
L 574.326647 93.145553 
L 568.610964 93.077352 
L 562.89528 94.783403 
L 557.179597 94.72583 
L 551.463914 93.962926 
L 545.748231 90.996287 
L 540.032547 101.037355 
L 534.316864 93.22343 
L 528.601181 104.879332 
L 522.885498 104.344947 
L 517.169814 100.05249 
L 511.454131 104.42148 
L 505.738448 126.069691 
L 500.022765 102.152078 
L 494.307081 93.772286 
L 488.591398 109.414837 
L 482.875715 93.354019 
L 477.160032 92.936146 
L 471.444348 103.624896 
L 465.728665 100.920496 
L 460.012982 105.777972 
L 454.297299 118.472125 
L 448.581615 105.947263 
L 442.865932 119.512424 
L 437.150249 132.009231 
L 431.434566 136.362046 
L 425.718882 127.895868 
L 420.003199 150.163736 
L 414.287516 145.322866 
L 408.571833 138.365641 
L 402.856149 148.65104 
L 397.140466 134.148444 
L 391.424783 137.117155 
L 385.7091 162.066179 
L 379.993416 155.513526 
L 374.277733 146.296739 
L 368.56205 152.834827 
L 362.846367 149.866318 
L 357.130683 123.231354 
L 351.415 125.404117 
L 345.699317 130.172806 
L 339.983633 131.372904 
L 334.26795 128.930382 
L 328.552267 140.762804 
L 322.836584 120.700087 
L 317.1209 120.359222 
L 311.405217 102.267567 
L 305.689534 134.608929 
L 299.973851 123.249824 
L 294.258167 128.4085 
L 288.542484 131.771937 
L 282.826801 128.063019 
L 277.111118 146.448299 
L 271.395434 149.319163 
L 265.679751 153.882856 
L 259.964068 142.325802 
L 254.248385 134.896129 
L 248.532701 155.104453 
L 242.817018 158.520663 
L 237.101335 132.580957 
L 231.385652 142.388298 
L 225.669968 128.234129 
L 219.954285 134.655131 
L 214.238602 150.622697 
L 208.522919 156.039801 
L 202.807235 136.617553 
L 197.091552 140.554035 
L 191.375869 130.395877 
L 185.660186 150.643547 
L 179.944502 154.977859 
L 174.228819 154.702289 
L 168.513136 144.72938 
L 162.797453 142.239462 
L 157.081769 138.444663 
L 151.366086 158.292986 
L 145.650403 160.857041 
L 139.93472 178.202559 
L 134.219036 191.231306 
L 128.503353 212.675422 
L 122.78767 213.843687 
L 117.071987 218.229289 
L 111.356303 245.035903 
L 105.64062 247.855027 
L 99.924937 252.083454 
L 94.209254 259.864575 
L 88.49357 273.827118 
L 82.777887 283.896726 
L 77.062204 292.066012 
L 71.346521 286.671562 
L 65.630837 299.995669 
z
" clip-path="url(#p0487e872b6)" style="fill: #ff7f0e; fill-opacity: 0.2"/>
   </g>
   <g id="FillBetweenPolyCollection_3">
    <path d="M 65.630837 298.254667 
L 65.630837 331.187298 
L 71.346521 320.847157 
L 77.062204 321.994122 
L 82.777887 313.602449 
L 88.49357 302.962336 
L 94.209254 304.102214 
L 99.924937 282.145403 
L 105.64062 283.802079 
L 111.356303 273.535294 
L 117.071987 276.643331 
L 122.78767 261.450787 
L 128.503353 273.785791 
L 134.219036 260.767682 
L 139.93472 271.659713 
L 145.650403 263.856471 
L 151.366086 261.000428 
L 157.081769 267.67308 
L 162.797453 242.714949 
L 168.513136 250.213837 
L 174.228819 233.287363 
L 179.944502 223.213973 
L 185.660186 233.742437 
L 191.375869 233.575639 
L 197.091552 231.140066 
L 202.807235 209.094088 
L 208.522919 230.158071 
L 214.238602 226.50561 
L 219.954285 204.067131 
L 225.669968 218.795693 
L 231.385652 241.208558 
L 237.101335 240.422778 
L 242.817018 220.614326 
L 248.532701 228.452888 
L 254.248385 249.171855 
L 259.964068 253.883292 
L 265.679751 244.585883 
L 271.395434 285.325883 
L 277.111118 290.362296 
L 282.826801 273.072245 
L 288.542484 282.191872 
L 294.258167 297.794367 
L 299.973851 325.114207 
L 305.689534 319.012859 
L 311.405217 335.905207 
L 317.1209 315.220729 
L 322.836584 325.400325 
L 328.552267 322.342591 
L 334.26795 323.68149 
L 339.983633 305.062197 
L 345.699317 306.198219 
L 351.415 307.131532 
L 357.130683 300.975075 
L 362.846367 310.730547 
L 368.56205 304.600081 
L 374.277733 301.159883 
L 379.993416 298.697068 
L 385.7091 287.459833 
L 391.424783 290.555232 
L 397.140466 272.496234 
L 402.856149 280.198362 
L 408.571833 284.870997 
L 414.287516 278.226883 
L 420.003199 273.912267 
L 425.718882 276.51324 
L 431.434566 271.677608 
L 437.150249 283.844264 
L 442.865932 272.722917 
L 448.581615 255.936486 
L 454.297299 265.848187 
L 460.012982 274.901856 
L 465.728665 272.72611 
L 471.444348 254.755811 
L 477.160032 258.960973 
L 482.875715 266.425722 
L 488.591398 262.428358 
L 494.307081 253.787752 
L 500.022765 262.777506 
L 505.738448 259.174263 
L 511.454131 259.177924 
L 517.169814 260.615106 
L 522.885498 265.095301 
L 528.601181 262.665806 
L 534.316864 259.683382 
L 540.032547 255.678996 
L 545.748231 266.861873 
L 551.463914 258.950626 
L 557.179597 258.507669 
L 562.89528 258.584678 
L 568.610964 258.138646 
L 574.326647 243.815778 
L 580.04233 247.406215 
L 585.758013 236.254876 
L 591.473697 248.00268 
L 597.18938 240.160509 
L 602.905063 236.331043 
L 608.620746 206.64792 
L 614.33643 246.465019 
L 620.052113 240.34516 
L 625.767796 230.129062 
L 631.483479 249.190525 
L 631.483479 69.29883 
L 631.483479 69.29883 
L 625.767796 78.140985 
L 620.052113 75.56881 
L 614.33643 66.143487 
L 608.620746 83.149084 
L 602.905063 70.350555 
L 597.18938 78.2307 
L 591.473697 65.638187 
L 585.758013 67.972355 
L 580.04233 68.074684 
L 574.326647 63.321397 
L 568.610964 66.432109 
L 562.89528 84.411857 
L 557.179597 62.184126 
L 551.463914 65.185695 
L 545.748231 75.954749 
L 540.032547 77.990951 
L 534.316864 68.03869 
L 528.601181 68.652489 
L 522.885498 77.380618 
L 517.169814 72.974299 
L 511.454131 84.653592 
L 505.738448 77.188921 
L 500.022765 72.706625 
L 494.307081 66.131678 
L 488.591398 93.726698 
L 482.875715 87.99203 
L 477.160032 78.51719 
L 471.444348 111.674989 
L 465.728665 96.087323 
L 460.012982 80.043482 
L 454.297299 100.664229 
L 448.581615 92.83352 
L 442.865932 107.910588 
L 437.150249 116.719849 
L 431.434566 88.346855 
L 425.718882 96.853144 
L 420.003199 120.920315 
L 414.287516 103.376134 
L 408.571833 117.194516 
L 402.856149 119.238027 
L 397.140466 112.296641 
L 391.424783 132.879731 
L 385.7091 144.96964 
L 379.993416 161.597803 
L 374.277733 161.004718 
L 368.56205 158.273935 
L 362.846367 189.66636 
L 357.130683 168.791706 
L 351.415 148.604038 
L 345.699317 164.043545 
L 339.983633 187.458848 
L 334.26795 182.630059 
L 328.552267 194.351935 
L 322.836584 221.899041 
L 317.1209 205.243853 
L 311.405217 200.788299 
L 305.689534 215.882953 
L 299.973851 212.840084 
L 294.258167 218.117114 
L 288.542484 192.273971 
L 282.826801 229.266074 
L 277.111118 161.995456 
L 271.395434 179.231038 
L 265.679751 166.706615 
L 259.964068 144.909356 
L 254.248385 144.031095 
L 248.532701 140.260637 
L 242.817018 136.595077 
L 237.101335 152.321015 
L 231.385652 144.897328 
L 225.669968 126.465024 
L 219.954285 122.415642 
L 214.238602 132.321053 
L 208.522919 152.36769 
L 202.807235 131.940975 
L 197.091552 116.524164 
L 191.375869 144.304186 
L 185.660186 140.428473 
L 179.944502 132.227872 
L 174.228819 135.873355 
L 168.513136 154.584875 
L 162.797453 146.964746 
L 157.081769 154.717723 
L 151.366086 158.115233 
L 145.650403 168.233468 
L 139.93472 178.186707 
L 134.219036 200.084736 
L 128.503353 194.728351 
L 122.78767 205.637557 
L 117.071987 217.357042 
L 111.356303 224.978542 
L 105.64062 239.790908 
L 99.924937 253.367737 
L 94.209254 256.842503 
L 88.49357 270.535744 
L 82.777887 294.90725 
L 77.062204 295.836007 
L 71.346521 297.011403 
L 65.630837 298.254667 
z
" clip-path="url(#p0487e872b6)" style="fill: #2ca02c; fill-opacity: 0.2"/>
   </g>
   <g id="line2d_19">
    <path d="M 65.630837 304.720261 
L 71.346521 298.144286 
L 77.062204 294.405639 
L 82.777887 295.154891 
L 88.49357 299.385763 
L 94.209254 286.467151 
L 99.924937 290.160285 
L 105.64062 288.150357 
L 111.356303 277.551351 
L 117.071987 277.006258 
L 122.78767 263.293789 
L 128.503353 247.796916 
L 134.219036 232.036917 
L 139.93472 227.741304 
L 145.650403 213.171317 
L 151.366086 204.131605 
L 157.081769 187.854072 
L 162.797453 193.267636 
L 168.513136 189.575772 
L 174.228819 168.251198 
L 179.944502 145.752031 
L 185.660186 152.329919 
L 191.375869 148.710588 
L 197.091552 144.379216 
L 202.807235 146.213443 
L 208.522919 129.964112 
L 214.238602 135.914342 
L 219.954285 136.515323 
L 225.669968 125.350658 
L 231.385652 121.601079 
L 237.101335 116.022323 
L 242.817018 111.414355 
L 248.532701 114.422001 
L 254.248385 116.809427 
L 259.964068 112.75978 
L 265.679751 107.325332 
L 271.395434 103.869016 
L 277.111118 106.499745 
L 282.826801 106.188032 
L 288.542484 117.782234 
L 294.258167 111.088362 
L 299.973851 102.325107 
L 305.689534 103.075566 
L 311.405217 108.565397 
L 317.1209 104.949225 
L 322.836584 106.229814 
L 328.552267 102.935203 
L 334.26795 110.031413 
L 339.983633 97.540555 
L 345.699317 113.749354 
L 351.415 114.159119 
L 357.130683 104.706122 
L 362.846367 97.997227 
L 368.56205 110.882475 
L 374.277733 106.902562 
L 379.993416 106.734478 
L 385.7091 130.424414 
L 391.424783 123.951902 
L 397.140466 109.104568 
L 402.856149 118.97956 
L 408.571833 112.235087 
L 414.287516 100.834061 
L 420.003199 110.335123 
L 425.718882 99.886648 
L 431.434566 98.270858 
L 437.150249 103.194486 
L 442.865932 98.379408 
L 448.581615 99.956847 
L 454.297299 103.22639 
L 460.012982 103.397384 
L 465.728665 96.449272 
L 471.444348 98.216242 
L 477.160032 108.37942 
L 482.875715 111.768463 
L 488.591398 100.648684 
L 494.307081 99.024336 
L 500.022765 112.957338 
L 505.738448 106.220528 
L 511.454131 97.117821 
L 517.169814 92.355035 
L 522.885498 94.855735 
L 528.601181 92.208031 
L 534.316864 93.885441 
L 540.032547 93.667311 
L 545.748231 93.529894 
L 551.463914 89.744541 
L 557.179597 93.24527 
L 562.89528 91.70961 
L 568.610964 93.534818 
L 574.326647 91.53051 
L 580.04233 92.973782 
L 585.758013 89.49744 
L 591.473697 88.167151 
L 597.18938 89.599214 
L 602.905063 96.361287 
L 608.620746 91.112064 
L 614.33643 93.751897 
L 620.052113 93.230136 
L 625.767796 90.328543 
L 631.483479 91.198659 
" clip-path="url(#p0487e872b6)" style="fill: none; stroke: #1f77b4; stroke-width: 1.5; stroke-linecap: round"/>
   </g>
   <g id="line2d_20">
    <path d="M 65.630837 311.702308 
L 71.346521 301.779577 
L 77.062204 304.755511 
L 82.777887 292.274857 
L 88.49357 289.525673 
L 94.209254 271.212918 
L 99.924937 266.758986 
L 105.64062 258.609223 
L 111.356303 256.732994 
L 117.071987 240.164444 
L 122.78767 230.944322 
L 128.503353 233.158136 
L 134.219036 220.016267 
L 139.93472 209.964833 
L 145.650403 204.804474 
L 151.366086 196.846282 
L 157.081769 190.192594 
L 162.797453 184.671878 
L 168.513136 179.770161 
L 174.228819 198.490542 
L 179.944502 192.047577 
L 185.660186 195.873339 
L 191.375869 171.568174 
L 197.091552 168.707865 
L 202.807235 169.756063 
L 208.522919 175.557683 
L 214.238602 170.183342 
L 219.954285 165.609993 
L 225.669968 166.28091 
L 231.385652 168.180301 
L 237.101335 155.05594 
L 242.817018 186.205735 
L 248.532701 173.610027 
L 254.248385 159.006646 
L 259.964068 169.662637 
L 265.679751 160.319749 
L 271.395434 162.407281 
L 277.111118 167.035763 
L 282.826801 158.155321 
L 288.542484 178.662249 
L 294.258167 156.407249 
L 299.973851 154.9404 
L 305.689534 182.586904 
L 311.405217 144.740791 
L 317.1209 171.110619 
L 322.836584 174.964382 
L 328.552267 169.940331 
L 334.26795 153.549977 
L 339.983633 183.371918 
L 345.699317 168.069206 
L 351.415 165.196272 
L 357.130683 163.11591 
L 362.846367 184.82028 
L 368.56205 194.20107 
L 374.277733 182.286052 
L 379.993416 206.584201 
L 385.7091 192.420487 
L 391.424783 177.790974 
L 397.140466 186.585539 
L 402.856149 182.996965 
L 408.571833 175.286264 
L 414.287516 178.859678 
L 420.003199 180.255649 
L 425.718882 169.439544 
L 431.434566 166.176439 
L 437.150249 169.573554 
L 442.865932 132.38572 
L 448.581615 140.844173 
L 454.297299 149.357004 
L 460.012982 129.772465 
L 465.728665 125.008056 
L 471.444348 162.134037 
L 477.160032 164.234376 
L 482.875715 154.794998 
L 488.591398 189.102163 
L 494.307081 187.954212 
L 500.022765 183.809815 
L 505.738448 204.068785 
L 511.454131 190.845626 
L 517.169814 184.188106 
L 522.885498 184.681431 
L 528.601181 183.364289 
L 534.316864 184.993613 
L 540.032547 184.351733 
L 545.748231 191.368758 
L 551.463914 187.46017 
L 557.179597 180.805223 
L 562.89528 181.097709 
L 568.610964 184.86453 
L 574.326647 179.008912 
L 580.04233 177.425207 
L 585.758013 181.069315 
L 591.473697 179.108468 
L 597.18938 175.085733 
L 602.905063 176.263233 
L 608.620746 171.357807 
L 614.33643 171.278832 
L 620.052113 176.360896 
L 625.767796 173.727385 
L 631.483479 163.025945 
" clip-path="url(#p0487e872b6)" style="fill: none; stroke: #ff7f0e; stroke-width: 1.5; stroke-linecap: round"/>
   </g>
   <g id="line2d_21">
    <path d="M 65.630837 314.720982 
L 71.346521 308.92928 
L 77.062204 308.915065 
L 82.777887 304.25485 
L 88.49357 286.74904 
L 94.209254 280.472358 
L 99.924937 267.75657 
L 105.64062 261.796494 
L 111.356303 249.256918 
L 117.071987 247.000186 
L 122.78767 233.544172 
L 128.503353 234.257071 
L 134.219036 230.426209 
L 139.93472 224.92321 
L 145.650403 216.044969 
L 151.366086 209.55783 
L 157.081769 211.195401 
L 162.797453 194.839847 
L 168.513136 202.399356 
L 174.228819 184.580359 
L 179.944502 177.720922 
L 185.660186 187.085455 
L 191.375869 188.939912 
L 197.091552 173.832115 
L 202.807235 170.517532 
L 208.522919 191.262881 
L 214.238602 179.413331 
L 219.954285 163.241386 
L 225.669968 172.630358 
L 231.385652 193.052943 
L 237.101335 196.371897 
L 242.817018 178.604702 
L 248.532701 184.356763 
L 254.248385 196.601475 
L 259.964068 199.396324 
L 265.679751 205.646249 
L 271.395434 232.278461 
L 277.111118 226.178876 
L 282.826801 251.169159 
L 288.542484 237.232921 
L 294.258167 257.95574 
L 299.973851 268.977145 
L 305.689534 267.447906 
L 311.405217 268.346753 
L 317.1209 260.232291 
L 322.836584 273.649683 
L 328.552267 258.347263 
L 334.26795 253.155774 
L 339.983633 246.260522 
L 345.699317 235.120882 
L 351.415 227.867785 
L 357.130683 234.883391 
L 362.846367 250.198453 
L 368.56205 231.437008 
L 374.277733 231.0823 
L 379.993416 230.147436 
L 385.7091 216.214736 
L 391.424783 211.717481 
L 397.140466 192.396438 
L 402.856149 199.718195 
L 408.571833 201.032756 
L 414.287516 190.801508 
L 420.003199 197.416291 
L 425.718882 186.683192 
L 431.434566 180.012232 
L 437.150249 200.282056 
L 442.865932 190.316752 
L 448.581615 174.385003 
L 454.297299 183.256208 
L 460.012982 177.472669 
L 465.728665 184.406716 
L 471.444348 183.2154 
L 477.160032 168.739081 
L 482.875715 177.208876 
L 488.591398 178.077528 
L 494.307081 159.959715 
L 500.022765 167.742066 
L 505.738448 168.181592 
L 511.454131 171.915758 
L 517.169814 166.794703 
L 522.885498 171.237959 
L 528.601181 165.659148 
L 534.316864 163.861036 
L 540.032547 166.834974 
L 545.748231 171.408311 
L 551.463914 162.06816 
L 557.179597 160.345898 
L 562.89528 171.498267 
L 568.610964 162.285377 
L 574.326647 153.568588 
L 580.04233 157.74045 
L 585.758013 152.113616 
L 591.473697 156.820434 
L 597.18938 159.195604 
L 602.905063 153.340799 
L 608.620746 144.898502 
L 614.33643 156.304253 
L 620.052113 157.956985 
L 625.767796 154.135024 
L 631.483479 159.244677 
" clip-path="url(#p0487e872b6)" style="fill: none; stroke: #2ca02c; stroke-width: 1.5; stroke-linecap: round"/>
   </g>
   <g id="patch_3">
    <path d="M 65.63 390.04 
L 65.63 57.0062 
" style="fill: none; stroke: #ffffff; stroke-width: 0.8; stroke-linejoin: miter; stroke-linecap: square"/>
   </g>
   <g id="patch_4">
    <path d="M 637.2 390.04 
L 637.2 57.0062 
" style="fill: none; stroke: #ffffff; stroke-width: 0.8; stroke-linejoin: miter; stroke-linecap: square"/>
   </g>
   <g id="patch_5">
    <path d="M 65.63 390.04 
L 637.2 390.04 
" style="fill: none; stroke: #ffffff; stroke-width: 0.8; stroke-linejoin: miter; stroke-linecap: square"/>
   </g>
   <g id="patch_6">
    <path d="M 65.63 57.0062 
L 637.2 57.0062 
" style="fill: none; stroke: #ffffff; stroke-width: 0.8; stroke-linejoin: miter; stroke-linecap: square"/>
   </g>
   <g id="legend_1">
    <g id="line2d_22">
     <path d="M 241.404334 41.274494 
L 249.734334 41.274494 
L 258.064334 41.274494 
" style="fill: none; stroke: #1f77b4; stroke-width: 1.5; stroke-linecap: round"/>
    </g>
    <g id="text_22">
     <!-- Logits (Baseline) -->
     <g style="fill: #262626" transform="translate(264.728334 44.189994) scale(0.0833 -0.0833)">
      <defs>
       <path id="DejaVuSans-4c" d="M 628 4666 
L 1259 4666 
L 1259 531 
L 3531 531 
L 3531 0 
L 628 0 
L 628 4666 
z
" transform="scale(0.015625)"/>
       <path id="DejaVuSans-6f" d="M 1959 3097 
Q 1497 3097 1228 2736 
Q 959 2375 959 1747 
Q 959 1119 1226 758 
Q 1494 397 1959 397 
Q 2419 397 2687 759 
Q 2956 1122 2956 1747 
Q 2956 2369 2687 2733 
Q 2419 3097 1959 3097 
z
M 1959 3584 
Q 2709 3584 3137 3096 
Q 3566 2609 3566 1747 
Q 3566 888 3137 398 
Q 2709 -91 1959 -91 
Q 1206 -91 779 398 
Q 353 888 353 1747 
Q 353 2609 779 3096 
Q 1206 3584 1959 3584 
z
" transform="scale(0.015625)"/>
       <path id="DejaVuSans-67" d="M 2906 1791 
Q 2906 2416 2648 2759 
Q 2391 3103 1925 3103 
Q 1463 3103 1205 2759 
Q 947 2416 947 1791 
Q 947 1169 1205 825 
Q 1463 481 1925 481 
Q 2391 481 2648 825 
Q 2906 1169 2906 1791 
z
M 3481 434 
Q 3481 -459 3084 -895 
Q 2688 -1331 1869 -1331 
Q 1566 -1331 1297 -1286 
Q 1028 -1241 775 -1147 
L 775 -588 
Q 1028 -725 1275 -790 
Q 1522 -856 1778 -856 
Q 2344 -856 2625 -561 
Q 2906 -266 2906 331 
L 2906 616 
Q 2728 306 2450 153 
Q 2172 0 1784 0 
Q 1141 0 747 490 
Q 353 981 353 1791 
Q 353 2603 747 3093 
Q 1141 3584 1784 3584 
Q 2172 3584 2450 3431 
Q 2728 3278 2906 2969 
L 2906 3500 
L 3481 3500 
L 3481 434 
z
" transform="scale(0.015625)"/>
       <path id="DejaVuSans-69" d="M 603 3500 
L 1178 3500 
L 1178 0 
L 603 0 
L 603 3500 
z
M 603 4863 
L 1178 4863 
L 1178 4134 
L 603 4134 
L 603 4863 
z
" transform="scale(0.015625)"/>
       <path id="DejaVuSans-20" transform="scale(0.015625)"/>
       <path id="DejaVuSans-28" d="M 1984 4856 
Q 1566 4138 1362 3434 
Q 1159 2731 1159 2009 
Q 1159 1288 1364 580 
Q 1569 -128 1984 -844 
L 1484 -844 
Q 1016 -109 783 600 
Q 550 1309 550 2009 
Q 550 2706 781 3412 
Q 1013 4119 1484 4856 
L 1984 4856 
z
" transform="scale(0.015625)"/>
       <path id="DejaVuSans-42" d="M 1259 2228 
L 1259 519 
L 2272 519 
Q 2781 519 3026 730 
Q 3272 941 3272 1375 
Q 3272 1813 3026 2020 
Q 2781 2228 2272 2228 
L 1259 2228 
z
M 1259 4147 
L 1259 2741 
L 2194 2741 
Q 2656 2741 2882 2914 
Q 3109 3088 3109 3444 
Q 3109 3797 2882 3972 
Q 2656 4147 2194 4147 
L 1259 4147 
z
M 628 4666 
L 2241 4666 
Q 2963 4666 3353 4366 
Q 3744 4066 3744 3513 
Q 3744 3084 3544 2831 
Q 3344 2578 2956 2516 
Q 3422 2416 3680 2098 
Q 3938 1781 3938 1306 
Q 3938 681 3513 340 
Q 3088 0 2303 0 
L 628 0 
L 628 4666 
z
" transform="scale(0.015625)"/>
       <path id="DejaVuSans-6c" d="M 603 4863 
L 1178 4863 
L 1178 0 
L 603 0 
L 603 4863 
z
" transform="scale(0.015625)"/>
       <path id="DejaVuSans-6e" d="M 3513 2113 
L 3513 0 
L 2938 0 
L 2938 2094 
Q 2938 2591 2744 2837 
Q 2550 3084 2163 3084 
Q 1697 3084 1428 2787 
Q 1159 2491 1159 1978 
L 1159 0 
L 581 0 
L 581 3500 
L 1159 3500 
L 1159 2956 
Q 1366 3272 1645 3428 
Q 1925 3584 2291 3584 
Q 2894 3584 3203 3211 
Q 3513 2838 3513 2113 
z
" transform="scale(0.015625)"/>
       <path id="DejaVuSans-29" d="M 513 4856 
L 1013 4856 
Q 1481 4119 1714 3412 
Q 1947 2706 1947 2009 
Q 1947 1309 1714 600 
Q 1481 -109 1013 -844 
L 513 -844 
Q 928 -128 1133 580 
Q 1338 1288 1338 2009 
Q 1338 2731 1133 3434 
Q 928 4138 513 4856 
z
" transform="scale(0.015625)"/>
      </defs>
      <use xlink:href="#DejaVuSans-4c"/>
      <use xlink:href="#DejaVuSans-6f" transform="translate(53.962891 0)"/>
      <use xlink:href="#DejaVuSans-67" transform="translate(115.144531 0)"/>
      <use xlink:href="#DejaVuSans-69" transform="translate(178.621094 0)"/>
      <use xlink:href="#DejaVuSans-74" transform="translate(206.404297 0)"/>
      <use xlink:href="#DejaVuSans-73" transform="translate(245.613281 0)"/>
      <use xlink:href="#DejaVuSans-20" transform="translate(297.712891 0)"/>
      <use xlink:href="#DejaVuSans-28" transform="translate(329.5 0)"/>
      <use xlink:href="#DejaVuSans-42" transform="translate(368.513672 0)"/>
      <use xlink:href="#DejaVuSans-61" transform="translate(437.117188 0)"/>
      <use xlink:href="#DejaVuSans-73" transform="translate(498.396484 0)"/>
      <use xlink:href="#DejaVuSans-65" transform="translate(550.496094 0)"/>
      <use xlink:href="#DejaVuSans-6c" transform="translate(612.019531 0)"/>
      <use xlink:href="#DejaVuSans-69" transform="translate(639.802734 0)"/>
      <use xlink:href="#DejaVuSans-6e" transform="translate(667.585938 0)"/>
      <use xlink:href="#DejaVuSans-65" transform="translate(730.964844 0)"/>
      <use xlink:href="#DejaVuSans-29" transform="translate(792.488281 0)"/>
     </g>
    </g>
    <g id="line2d_23">
     <path d="M 350.653586 41.274494 
L 358.983586 41.274494 
L 367.313586 41.274494 
" style="fill: none; stroke: #ff7f0e; stroke-width: 1.5; stroke-linecap: round"/>
    </g>
    <g id="text_23">
     <!-- GNN -->
     <g style="fill: #262626" transform="translate(373.977586 44.189994) scale(0.0833 -0.0833)">
      <defs>
       <path id="DejaVuSans-47" d="M 3809 666 
L 3809 1919 
L 2778 1919 
L 2778 2438 
L 4434 2438 
L 4434 434 
Q 4069 175 3628 42 
Q 3188 -91 2688 -91 
Q 1594 -91 976 548 
Q 359 1188 359 2328 
Q 359 3472 976 4111 
Q 1594 4750 2688 4750 
Q 3144 4750 3555 4637 
Q 3966 4525 4313 4306 
L 4313 3634 
Q 3963 3931 3569 4081 
Q 3175 4231 2741 4231 
Q 1884 4231 1454 3753 
Q 1025 3275 1025 2328 
Q 1025 1384 1454 906 
Q 1884 428 2741 428 
Q 3075 428 3337 486 
Q 3600 544 3809 666 
z
" transform="scale(0.015625)"/>
       <path id="DejaVuSans-4e" d="M 628 4666 
L 1478 4666 
L 3547 763 
L 3547 4666 
L 4159 4666 
L 4159 0 
L 3309 0 
L 1241 3903 
L 1241 0 
L 628 0 
L 628 4666 
z
" transform="scale(0.015625)"/>
      </defs>
      <use xlink:href="#DejaVuSans-47"/>
      <use xlink:href="#DejaVuSans-4e" transform="translate(77.490234 0)"/>
      <use xlink:href="#DejaVuSans-4e" transform="translate(152.294922 0)"/>
     </g>
    </g>
    <g id="line2d_24">
     <path d="M 409.555797 41.274494 
L 417.885797 41.274494 
L 426.215797 41.274494 
" style="fill: none; stroke: #2ca02c; stroke-width: 1.5; stroke-linecap: round"/>
    </g>
    <g id="text_24">
     <!-- GNN_K -->
     <g style="fill: #262626" transform="translate(432.879797 44.189994) scale(0.0833 -0.0833)">
      <defs>
       <path id="DejaVuSans-5f" d="M 3263 -1063 
L 3263 -1509 
L -63 -1509 
L -63 -1063 
L 3263 -1063 
z
" transform="scale(0.015625)"/>
       <path id="DejaVuSans-4b" d="M 628 4666 
L 1259 4666 
L 1259 2694 
L 3353 4666 
L 4166 4666 
L 1850 2491 
L 4331 0 
L 3500 0 
L 1259 2247 
L 1259 0 
L 628 0 
L 628 4666 
z
" transform="scale(0.015625)"/>
      </defs>
      <use xlink:href="#DejaVuSans-47"/>
      <use xlink:href="#DejaVuSans-4e" transform="translate(77.490234 0)"/>
      <use xlink:href="#DejaVuSans-4e" transform="translate(152.294922 0)"/>
      <use xlink:href="#DejaVuSans-5f" transform="translate(227.099609 0)"/>
      <use xlink:href="#DejaVuSans-4b" transform="translate(277.099609 0)"/>
     </g>
    </g>
   </g>
  </g>
  <g id="text_25">
   <!-- Rewards: Pendulum-v1 (Discretized) (Noise + Entropy) -->
   <g style="fill: #262626" transform="translate(138.252188 17.758125) scale(0.12 -0.12)">
    <defs>
     <path id="DejaVuSans-Bold-52" d="M 2297 2597 
Q 2675 2597 2839 2737 
Q 3003 2878 3003 3200 
Q 3003 3519 2839 3656 
Q 2675 3794 2297 3794 
L 1791 3794 
L 1791 2597 
L 2297 2597 
z
M 1791 1766 
L 1791 0 
L 588 0 
L 588 4666 
L 2425 4666 
Q 3347 4666 3776 4356 
Q 4206 4047 4206 3378 
Q 4206 2916 3982 2619 
Q 3759 2322 3309 2181 
Q 3556 2125 3751 1926 
Q 3947 1728 4147 1325 
L 4800 0 
L 3519 0 
L 2950 1159 
Q 2778 1509 2601 1637 
Q 2425 1766 2131 1766 
L 1791 1766 
z
" transform="scale(0.015625)"/>
     <path id="DejaVuSans-Bold-65" d="M 4031 1759 
L 4031 1441 
L 1416 1441 
Q 1456 1047 1700 850 
Q 1944 653 2381 653 
Q 2734 653 3104 758 
Q 3475 863 3866 1075 
L 3866 213 
Q 3469 63 3072 -14 
Q 2675 -91 2278 -91 
Q 1328 -91 801 392 
Q 275 875 275 1747 
Q 275 2603 792 3093 
Q 1309 3584 2216 3584 
Q 3041 3584 3536 3087 
Q 4031 2591 4031 1759 
z
M 2881 2131 
Q 2881 2450 2695 2645 
Q 2509 2841 2209 2841 
Q 1884 2841 1681 2658 
Q 1478 2475 1428 2131 
L 2881 2131 
z
" transform="scale(0.015625)"/>
     <path id="DejaVuSans-Bold-77" d="M 225 3500 
L 1313 3500 
L 1900 1088 
L 2491 3500 
L 3425 3500 
L 4013 1113 
L 4603 3500 
L 5691 3500 
L 4769 0 
L 3547 0 
L 2956 2406 
L 2369 0 
L 1147 0 
L 225 3500 
z
" transform="scale(0.015625)"/>
     <path id="DejaVuSans-Bold-61" d="M 2106 1575 
Q 1756 1575 1579 1456 
Q 1403 1338 1403 1106 
Q 1403 894 1545 773 
Q 1688 653 1941 653 
Q 2256 653 2472 879 
Q 2688 1106 2688 1447 
L 2688 1575 
L 2106 1575 
z
M 3816 1997 
L 3816 0 
L 2688 0 
L 2688 519 
Q 2463 200 2181 54 
Q 1900 -91 1497 -91 
Q 953 -91 614 226 
Q 275 544 275 1050 
Q 275 1666 698 1953 
Q 1122 2241 2028 2241 
L 2688 2241 
L 2688 2328 
Q 2688 2594 2478 2717 
Q 2269 2841 1825 2841 
Q 1466 2841 1156 2769 
Q 847 2697 581 2553 
L 581 3406 
Q 941 3494 1303 3539 
Q 1666 3584 2028 3584 
Q 2975 3584 3395 3211 
Q 3816 2838 3816 1997 
z
" transform="scale(0.015625)"/>
     <path id="DejaVuSans-Bold-72" d="M 3138 2547 
Q 2991 2616 2845 2648 
Q 2700 2681 2553 2681 
Q 2122 2681 1889 2404 
Q 1656 2128 1656 1613 
L 1656 0 
L 538 0 
L 538 3500 
L 1656 3500 
L 1656 2925 
Q 1872 3269 2151 3426 
Q 2431 3584 2822 3584 
Q 2878 3584 2943 3579 
Q 3009 3575 3134 3559 
L 3138 2547 
z
" transform="scale(0.015625)"/>
     <path id="DejaVuSans-Bold-64" d="M 2919 2988 
L 2919 4863 
L 4044 4863 
L 4044 0 
L 2919 0 
L 2919 506 
Q 2688 197 2409 53 
Q 2131 -91 1766 -91 
Q 1119 -91 703 423 
Q 288 938 288 1747 
Q 288 2556 703 3070 
Q 1119 3584 1766 3584 
Q 2128 3584 2408 3439 
Q 2688 3294 2919 2988 
z
M 2181 722 
Q 2541 722 2730 984 
Q 2919 1247 2919 1747 
Q 2919 2247 2730 2509 
Q 2541 2772 2181 2772 
Q 1825 2772 1636 2509 
Q 1447 2247 1447 1747 
Q 1447 1247 1636 984 
Q 1825 722 2181 722 
z
" transform="scale(0.015625)"/>
     <path id="DejaVuSans-Bold-73" d="M 3272 3391 
L 3272 2541 
Q 2913 2691 2578 2766 
Q 2244 2841 1947 2841 
Q 1628 2841 1473 2761 
Q 1319 2681 1319 2516 
Q 1319 2381 1436 2309 
Q 1553 2238 1856 2203 
L 2053 2175 
Q 2913 2066 3209 1816 
Q 3506 1566 3506 1031 
Q 3506 472 3093 190 
Q 2681 -91 1863 -91 
Q 1516 -91 1145 -36 
Q 775 19 384 128 
L 384 978 
Q 719 816 1070 734 
Q 1422 653 1784 653 
Q 2113 653 2278 743 
Q 2444 834 2444 1013 
Q 2444 1163 2330 1236 
Q 2216 1309 1875 1350 
L 1678 1375 
Q 931 1469 631 1722 
Q 331 1975 331 2491 
Q 331 3047 712 3315 
Q 1094 3584 1881 3584 
Q 2191 3584 2531 3537 
Q 2872 3491 3272 3391 
z
" transform="scale(0.015625)"/>
     <path id="DejaVuSans-Bold-3a" d="M 716 3500 
L 1844 3500 
L 1844 2291 
L 716 2291 
L 716 3500 
z
M 716 1209 
L 1844 1209 
L 1844 0 
L 716 0 
L 716 1209 
z
" transform="scale(0.015625)"/>
     <path id="DejaVuSans-Bold-20" transform="scale(0.015625)"/>
     <path id="DejaVuSans-Bold-50" d="M 588 4666 
L 2584 4666 
Q 3475 4666 3951 4270 
Q 4428 3875 4428 3144 
Q 4428 2409 3951 2014 
Q 3475 1619 2584 1619 
L 1791 1619 
L 1791 0 
L 588 0 
L 588 4666 
z
M 1791 3794 
L 1791 2491 
L 2456 2491 
Q 2806 2491 2997 2661 
Q 3188 2831 3188 3144 
Q 3188 3456 2997 3625 
Q 2806 3794 2456 3794 
L 1791 3794 
z
" transform="scale(0.015625)"/>
     <path id="DejaVuSans-Bold-6e" d="M 4056 2131 
L 4056 0 
L 2931 0 
L 2931 347 
L 2931 1631 
Q 2931 2084 2911 2256 
Q 2891 2428 2841 2509 
Q 2775 2619 2662 2680 
Q 2550 2741 2406 2741 
Q 2056 2741 1856 2470 
Q 1656 2200 1656 1722 
L 1656 0 
L 538 0 
L 538 3500 
L 1656 3500 
L 1656 2988 
Q 1909 3294 2193 3439 
Q 2478 3584 2822 3584 
Q 3428 3584 3742 3212 
Q 4056 2841 4056 2131 
z
" transform="scale(0.015625)"/>
     <path id="DejaVuSans-Bold-75" d="M 500 1363 
L 500 3500 
L 1625 3500 
L 1625 3150 
Q 1625 2866 1622 2436 
Q 1619 2006 1619 1863 
Q 1619 1441 1641 1255 
Q 1663 1069 1716 984 
Q 1784 875 1895 815 
Q 2006 756 2150 756 
Q 2500 756 2700 1025 
Q 2900 1294 2900 1772 
L 2900 3500 
L 4019 3500 
L 4019 0 
L 2900 0 
L 2900 506 
Q 2647 200 2364 54 
Q 2081 -91 1741 -91 
Q 1134 -91 817 281 
Q 500 653 500 1363 
z
" transform="scale(0.015625)"/>
     <path id="DejaVuSans-Bold-6c" d="M 538 4863 
L 1656 4863 
L 1656 0 
L 538 0 
L 538 4863 
z
" transform="scale(0.015625)"/>
     <path id="DejaVuSans-Bold-6d" d="M 3781 2919 
Q 3994 3244 4286 3414 
Q 4578 3584 4928 3584 
Q 5531 3584 5847 3212 
Q 6163 2841 6163 2131 
L 6163 0 
L 5038 0 
L 5038 1825 
Q 5041 1866 5042 1909 
Q 5044 1953 5044 2034 
Q 5044 2406 4934 2573 
Q 4825 2741 4581 2741 
Q 4263 2741 4089 2478 
Q 3916 2216 3909 1719 
L 3909 0 
L 2784 0 
L 2784 1825 
Q 2784 2406 2684 2573 
Q 2584 2741 2328 2741 
Q 2006 2741 1831 2477 
Q 1656 2213 1656 1722 
L 1656 0 
L 531 0 
L 531 3500 
L 1656 3500 
L 1656 2988 
Q 1863 3284 2130 3434 
Q 2397 3584 2719 3584 
Q 3081 3584 3359 3409 
Q 3638 3234 3781 2919 
z
" transform="scale(0.015625)"/>
     <path id="DejaVuSans-Bold-2d" d="M 347 2297 
L 2309 2297 
L 2309 1388 
L 347 1388 
L 347 2297 
z
" transform="scale(0.015625)"/>
     <path id="DejaVuSans-Bold-76" d="M 97 3500 
L 1216 3500 
L 2088 1081 
L 2956 3500 
L 4078 3500 
L 2700 0 
L 1472 0 
L 97 3500 
z
" transform="scale(0.015625)"/>
     <path id="DejaVuSans-Bold-31" d="M 750 831 
L 1813 831 
L 1813 3847 
L 722 3622 
L 722 4441 
L 1806 4666 
L 2950 4666 
L 2950 831 
L 4013 831 
L 4013 0 
L 750 0 
L 750 831 
z
" transform="scale(0.015625)"/>
     <path id="DejaVuSans-Bold-28" d="M 2413 -844 
L 1484 -844 
Q 1006 -72 778 623 
Q 550 1319 550 2003 
Q 550 2688 779 3389 
Q 1009 4091 1484 4856 
L 2413 4856 
Q 2013 4116 1813 3408 
Q 1613 2700 1613 2009 
Q 1613 1319 1811 609 
Q 2009 -100 2413 -844 
z
" transform="scale(0.015625)"/>
     <path id="DejaVuSans-Bold-44" d="M 1791 3756 
L 1791 909 
L 2222 909 
Q 2959 909 3348 1275 
Q 3738 1641 3738 2338 
Q 3738 3031 3350 3393 
Q 2963 3756 2222 3756 
L 1791 3756 
z
M 588 4666 
L 1856 4666 
Q 2919 4666 3439 4514 
Q 3959 4363 4331 4000 
Q 4659 3684 4818 3271 
Q 4978 2859 4978 2338 
Q 4978 1809 4818 1395 
Q 4659 981 4331 666 
Q 3956 303 3431 151 
Q 2906 0 1856 0 
L 588 0 
L 588 4666 
z
" transform="scale(0.015625)"/>
     <path id="DejaVuSans-Bold-69" d="M 538 3500 
L 1656 3500 
L 1656 0 
L 538 0 
L 538 3500 
z
M 538 4863 
L 1656 4863 
L 1656 3950 
L 538 3950 
L 538 4863 
z
" transform="scale(0.015625)"/>
     <path id="DejaVuSans-Bold-63" d="M 3366 3391 
L 3366 2478 
Q 3138 2634 2908 2709 
Q 2678 2784 2431 2784 
Q 1963 2784 1702 2511 
Q 1441 2238 1441 1747 
Q 1441 1256 1702 982 
Q 1963 709 2431 709 
Q 2694 709 2930 787 
Q 3166 866 3366 1019 
L 3366 103 
Q 3103 6 2833 -42 
Q 2563 -91 2291 -91 
Q 1344 -91 809 395 
Q 275 881 275 1747 
Q 275 2613 809 3098 
Q 1344 3584 2291 3584 
Q 2566 3584 2833 3536 
Q 3100 3488 3366 3391 
z
" transform="scale(0.015625)"/>
     <path id="DejaVuSans-Bold-74" d="M 1759 4494 
L 1759 3500 
L 2913 3500 
L 2913 2700 
L 1759 2700 
L 1759 1216 
Q 1759 972 1856 886 
Q 1953 800 2241 800 
L 2816 800 
L 2816 0 
L 1856 0 
Q 1194 0 917 276 
Q 641 553 641 1216 
L 641 2700 
L 84 2700 
L 84 3500 
L 641 3500 
L 641 4494 
L 1759 4494 
z
" transform="scale(0.015625)"/>
     <path id="DejaVuSans-Bold-7a" d="M 366 3500 
L 3419 3500 
L 3419 2719 
L 1575 800 
L 3419 800 
L 3419 0 
L 288 0 
L 288 781 
L 2131 2700 
L 366 2700 
L 366 3500 
z
" transform="scale(0.015625)"/>
     <path id="DejaVuSans-Bold-29" d="M 513 -844 
Q 913 -100 1113 609 
Q 1313 1319 1313 2009 
Q 1313 2700 1113 3408 
Q 913 4116 513 4856 
L 1441 4856 
Q 1916 4091 2145 3389 
Q 2375 2688 2375 2003 
Q 2375 1319 2147 623 
Q 1919 -72 1441 -844 
L 513 -844 
z
" transform="scale(0.015625)"/>
     <path id="DejaVuSans-Bold-4e" d="M 588 4666 
L 1931 4666 
L 3628 1466 
L 3628 4666 
L 4769 4666 
L 4769 0 
L 3425 0 
L 1728 3200 
L 1728 0 
L 588 0 
L 588 4666 
z
" transform="scale(0.015625)"/>
     <path id="DejaVuSans-Bold-6f" d="M 2203 2784 
Q 1831 2784 1636 2517 
Q 1441 2250 1441 1747 
Q 1441 1244 1636 976 
Q 1831 709 2203 709 
Q 2569 709 2762 976 
Q 2956 1244 2956 1747 
Q 2956 2250 2762 2517 
Q 2569 2784 2203 2784 
z
M 2203 3584 
Q 3106 3584 3614 3096 
Q 4122 2609 4122 1747 
Q 4122 884 3614 396 
Q 3106 -91 2203 -91 
Q 1297 -91 786 396 
Q 275 884 275 1747 
Q 275 2609 786 3096 
Q 1297 3584 2203 3584 
z
" transform="scale(0.015625)"/>
     <path id="DejaVuSans-Bold-2b" d="M 3053 4013 
L 3053 2375 
L 4684 2375 
L 4684 1638 
L 3053 1638 
L 3053 0 
L 2309 0 
L 2309 1638 
L 678 1638 
L 678 2375 
L 2309 2375 
L 2309 4013 
L 3053 4013 
z
" transform="scale(0.015625)"/>
     <path id="DejaVuSans-Bold-45" d="M 588 4666 
L 3834 4666 
L 3834 3756 
L 1791 3756 
L 1791 2888 
L 3713 2888 
L 3713 1978 
L 1791 1978 
L 1791 909 
L 3903 909 
L 3903 0 
L 588 0 
L 588 4666 
z
" transform="scale(0.015625)"/>
     <path id="DejaVuSans-Bold-70" d="M 1656 506 
L 1656 -1331 
L 538 -1331 
L 538 3500 
L 1656 3500 
L 1656 2988 
Q 1888 3294 2169 3439 
Q 2450 3584 2816 3584 
Q 3463 3584 3878 3070 
Q 4294 2556 4294 1747 
Q 4294 938 3878 423 
Q 3463 -91 2816 -91 
Q 2450 -91 2169 54 
Q 1888 200 1656 506 
z
M 2400 2772 
Q 2041 2772 1848 2508 
Q 1656 2244 1656 1747 
Q 1656 1250 1848 986 
Q 2041 722 2400 722 
Q 2759 722 2948 984 
Q 3138 1247 3138 1747 
Q 3138 2247 2948 2509 
Q 2759 2772 2400 2772 
z
" transform="scale(0.015625)"/>
     <path id="DejaVuSans-Bold-79" d="M 78 3500 
L 1197 3500 
L 2138 1125 
L 2938 3500 
L 4056 3500 
L 2584 -331 
Q 2363 -916 2067 -1148 
Q 1772 -1381 1288 -1381 
L 641 -1381 
L 641 -647 
L 991 -647 
Q 1275 -647 1404 -556 
Q 1534 -466 1606 -231 
L 1638 -134 
L 78 3500 
z
" transform="scale(0.015625)"/>
    </defs>
    <use xlink:href="#DejaVuSans-Bold-52"/>
    <use xlink:href="#DejaVuSans-Bold-65" transform="translate(77.001953 0)"/>
    <use xlink:href="#DejaVuSans-Bold-77" transform="translate(144.824219 0)"/>
    <use xlink:href="#DejaVuSans-Bold-61" transform="translate(237.207031 0)"/>
    <use xlink:href="#DejaVuSans-Bold-72" transform="translate(304.6875 0)"/>
    <use xlink:href="#DejaVuSans-Bold-64" transform="translate(354.003906 0)"/>
    <use xlink:href="#DejaVuSans-Bold-73" transform="translate(425.585938 0)"/>
    <use xlink:href="#DejaVuSans-Bold-3a" transform="translate(485.107422 0)"/>
    <use xlink:href="#DejaVuSans-Bold-20" transform="translate(525.097656 0)"/>
    <use xlink:href="#DejaVuSans-Bold-50" transform="translate(559.912109 0)"/>
    <use xlink:href="#DejaVuSans-Bold-65" transform="translate(633.203125 0)"/>
    <use xlink:href="#DejaVuSans-Bold-6e" transform="translate(701.025391 0)"/>
    <use xlink:href="#DejaVuSans-Bold-64" transform="translate(772.216797 0)"/>
    <use xlink:href="#DejaVuSans-Bold-75" transform="translate(843.798828 0)"/>
    <use xlink:href="#DejaVuSans-Bold-6c" transform="translate(914.990234 0)"/>
    <use xlink:href="#DejaVuSans-Bold-75" transform="translate(949.267578 0)"/>
    <use xlink:href="#DejaVuSans-Bold-6d" transform="translate(1020.458984 0)"/>
    <use xlink:href="#DejaVuSans-Bold-2d" transform="translate(1124.658203 0)"/>
    <use xlink:href="#DejaVuSans-Bold-76" transform="translate(1166.162109 0)"/>
    <use xlink:href="#DejaVuSans-Bold-31" transform="translate(1231.347656 0)"/>
    <use xlink:href="#DejaVuSans-Bold-20" transform="translate(1300.927734 0)"/>
    <use xlink:href="#DejaVuSans-Bold-28" transform="translate(1335.742188 0)"/>
    <use xlink:href="#DejaVuSans-Bold-44" transform="translate(1381.445312 0)"/>
    <use xlink:href="#DejaVuSans-Bold-69" transform="translate(1464.453125 0)"/>
    <use xlink:href="#DejaVuSans-Bold-73" transform="translate(1498.730469 0)"/>
    <use xlink:href="#DejaVuSans-Bold-63" transform="translate(1558.251953 0)"/>
    <use xlink:href="#DejaVuSans-Bold-72" transform="translate(1617.529297 0)"/>
    <use xlink:href="#DejaVuSans-Bold-65" transform="translate(1666.845703 0)"/>
    <use xlink:href="#DejaVuSans-Bold-74" transform="translate(1734.667969 0)"/>
    <use xlink:href="#DejaVuSans-Bold-69" transform="translate(1782.470703 0)"/>
    <use xlink:href="#DejaVuSans-Bold-7a" transform="translate(1816.748047 0)"/>
    <use xlink:href="#DejaVuSans-Bold-65" transform="translate(1874.951172 0)"/>
    <use xlink:href="#DejaVuSans-Bold-64" transform="translate(1942.773438 0)"/>
    <use xlink:href="#DejaVuSans-Bold-29" transform="translate(2014.355469 0)"/>
    <use xlink:href="#DejaVuSans-Bold-20" transform="translate(2060.058594 0)"/>
    <use xlink:href="#DejaVuSans-Bold-28" transform="translate(2094.873047 0)"/>
    <use xlink:href="#DejaVuSans-Bold-4e" transform="translate(2140.576172 0)"/>
    <use xlink:href="#DejaVuSans-Bold-6f" transform="translate(2224.267578 0)"/>
    <use xlink:href="#DejaVuSans-Bold-69" transform="translate(2292.96875 0)"/>
    <use xlink:href="#DejaVuSans-Bold-73" transform="translate(2327.246094 0)"/>
    <use xlink:href="#DejaVuSans-Bold-65" transform="translate(2386.767578 0)"/>
    <use xlink:href="#DejaVuSans-Bold-20" transform="translate(2454.589844 0)"/>
    <use xlink:href="#DejaVuSans-Bold-2b" transform="translate(2489.404297 0)"/>
    <use xlink:href="#DejaVuSans-Bold-20" transform="translate(2573.193359 0)"/>
    <use xlink:href="#DejaVuSans-Bold-45" transform="translate(2608.007812 0)"/>
    <use xlink:href="#DejaVuSans-Bold-6e" transform="translate(2676.318359 0)"/>
    <use xlink:href="#DejaVuSans-Bold-74" transform="translate(2747.509766 0)"/>
    <use xlink:href="#DejaVuSans-Bold-72" transform="translate(2795.3125 0)"/>
    <use xlink:href="#DejaVuSans-Bold-6f" transform="translate(2844.628906 0)"/>
    <use xlink:href="#DejaVuSans-Bold-70" transform="translate(2913.330078 0)"/>
    <use xlink:href="#DejaVuSans-Bold-79" transform="translate(2984.912109 0)"/>
    <use xlink:href="#DejaVuSans-Bold-29" transform="translate(3050.097656 0)"/>
   </g>
  </g>
 </g>
 <defs>
  <clipPath id="p0487e872b6">
   <rect x="65.63" y="57.0062" width="571.57" height="333.0338"/>
  </clipPath>
 </defs>
</svg>
