<?xml version="1.0" encoding="utf-8" standalone="no"?>
<!DOCTYPE svg PUBLIC "-//W3C//DTD SVG 1.1//EN"
  "http://www.w3.org/Graphics/SVG/1.1/DTD/svg11.dtd">
<svg xmlns:xlink="http://www.w3.org/1999/xlink" width="648pt" height="432pt" viewBox="0 0 648 432" xmlns="http://www.w3.org/2000/svg" version="1.1">
 <metadata>
  <rdf:RDF xmlns:dc="http://purl.org/dc/elements/1.1/" xmlns:cc="http://creativecommons.org/ns#" xmlns:rdf="http://www.w3.org/1999/02/22-rdf-syntax-ns#">
   <cc:Work>
    <dc:type rdf:resource="http://purl.org/dc/dcmitype/StillImage"/>
    <dc:date>2025-07-22T19:35:48.967927</dc:date>
    <dc:format>image/svg+xml</dc:format>
    <dc:creator>
     <cc:Agent>
      <dc:title>Matplotlib v3.10.0, https://matplotlib.org/</dc:title>
     </cc:Agent>
    </dc:creator>
   </cc:Work>
  </rdf:RDF>
 </metadata>
 <defs>
  <style type="text/css">*{stroke-linejoin: round; stroke-linecap: butt}</style>
 </defs>
 <g id="figure_1">
  <g id="patch_1">
   <path d="M 0 432 
L 648 432 
L 648 0 
L 0 0 
z
" style="fill: #ffffff"/>
  </g>
  <g id="axes_1">
   <g id="patch_2">
    <path d="M 65.63 390.04 
L 637.2 390.04 
L 637.2 57.0062 
L 65.63 57.0062 
z
" style="fill: #eaeaf2"/>
   </g>
   <g id="matplotlib.axis_1">
    <g id="xtick_1">
     <g id="line2d_1">
      <path d="M 65.630837 390.04 
L 65.630837 57.0062 
" clip-path="url(#pd594db6094)" style="fill: none; stroke: #ffffff; stroke-width: 0.8; stroke-linecap: round"/>
     </g>
     <g id="text_1">
      <!-- 0.00 -->
      <g style="fill: #262626" transform="translate(54.498025 404.638438) scale(0.1 -0.1)">
       <defs>
        <path id="DejaVuSans-30" d="M 2034 4250 
Q 1547 4250 1301 3770 
Q 1056 3291 1056 2328 
Q 1056 1369 1301 889 
Q 1547 409 2034 409 
Q 2525 409 2770 889 
Q 3016 1369 3016 2328 
Q 3016 3291 2770 3770 
Q 2525 4250 2034 4250 
z
M 2034 4750 
Q 2819 4750 3233 4129 
Q 3647 3509 3647 2328 
Q 3647 1150 3233 529 
Q 2819 -91 2034 -91 
Q 1250 -91 836 529 
Q 422 1150 422 2328 
Q 422 3509 836 4129 
Q 1250 4750 2034 4750 
z
" transform="scale(0.015625)"/>
        <path id="DejaVuSans-2e" d="M 684 794 
L 1344 794 
L 1344 0 
L 684 0 
L 684 794 
z
" transform="scale(0.015625)"/>
       </defs>
       <use xlink:href="#DejaVuSans-30"/>
       <use xlink:href="#DejaVuSans-2e" transform="translate(63.623047 0)"/>
       <use xlink:href="#DejaVuSans-30" transform="translate(95.410156 0)"/>
       <use xlink:href="#DejaVuSans-30" transform="translate(159.033203 0)"/>
      </g>
     </g>
    </g>
    <g id="xtick_2">
     <g id="line2d_2">
      <path d="M 135.402361 390.04 
L 135.402361 57.0062 
" clip-path="url(#pd594db6094)" style="fill: none; stroke: #ffffff; stroke-width: 0.8; stroke-linecap: round"/>
     </g>
     <g id="text_2">
      <!-- 0.25 -->
      <g style="fill: #262626" transform="translate(124.269549 404.638438) scale(0.1 -0.1)">
       <defs>
        <path id="DejaVuSans-32" d="M 1228 531 
L 3431 531 
L 3431 0 
L 469 0 
L 469 531 
Q 828 903 1448 1529 
Q 2069 2156 2228 2338 
Q 2531 2678 2651 2914 
Q 2772 3150 2772 3378 
Q 2772 3750 2511 3984 
Q 2250 4219 1831 4219 
Q 1534 4219 1204 4116 
Q 875 4013 500 3803 
L 500 4441 
Q 881 4594 1212 4672 
Q 1544 4750 1819 4750 
Q 2544 4750 2975 4387 
Q 3406 4025 3406 3419 
Q 3406 3131 3298 2873 
Q 3191 2616 2906 2266 
Q 2828 2175 2409 1742 
Q 1991 1309 1228 531 
z
" transform="scale(0.015625)"/>
        <path id="DejaVuSans-35" d="M 691 4666 
L 3169 4666 
L 3169 4134 
L 1269 4134 
L 1269 2991 
Q 1406 3038 1543 3061 
Q 1681 3084 1819 3084 
Q 2600 3084 3056 2656 
Q 3513 2228 3513 1497 
Q 3513 744 3044 326 
Q 2575 -91 1722 -91 
Q 1428 -91 1123 -41 
Q 819 9 494 109 
L 494 744 
Q 775 591 1075 516 
Q 1375 441 1709 441 
Q 2250 441 2565 725 
Q 2881 1009 2881 1497 
Q 2881 1984 2565 2268 
Q 2250 2553 1709 2553 
Q 1456 2553 1204 2497 
Q 953 2441 691 2322 
L 691 4666 
z
" transform="scale(0.015625)"/>
       </defs>
       <use xlink:href="#DejaVuSans-30"/>
       <use xlink:href="#DejaVuSans-2e" transform="translate(63.623047 0)"/>
       <use xlink:href="#DejaVuSans-32" transform="translate(95.410156 0)"/>
       <use xlink:href="#DejaVuSans-35" transform="translate(159.033203 0)"/>
      </g>
     </g>
    </g>
    <g id="xtick_3">
     <g id="line2d_3">
      <path d="M 205.173885 390.04 
L 205.173885 57.0062 
" clip-path="url(#pd594db6094)" style="fill: none; stroke: #ffffff; stroke-width: 0.8; stroke-linecap: round"/>
     </g>
     <g id="text_3">
      <!-- 0.50 -->
      <g style="fill: #262626" transform="translate(194.041073 404.638438) scale(0.1 -0.1)">
       <use xlink:href="#DejaVuSans-30"/>
       <use xlink:href="#DejaVuSans-2e" transform="translate(63.623047 0)"/>
       <use xlink:href="#DejaVuSans-35" transform="translate(95.410156 0)"/>
       <use xlink:href="#DejaVuSans-30" transform="translate(159.033203 0)"/>
      </g>
     </g>
    </g>
    <g id="xtick_4">
     <g id="line2d_4">
      <path d="M 274.94541 390.04 
L 274.94541 57.0062 
" clip-path="url(#pd594db6094)" style="fill: none; stroke: #ffffff; stroke-width: 0.8; stroke-linecap: round"/>
     </g>
     <g id="text_4">
      <!-- 0.75 -->
      <g style="fill: #262626" transform="translate(263.812597 404.638438) scale(0.1 -0.1)">
       <defs>
        <path id="DejaVuSans-37" d="M 525 4666 
L 3525 4666 
L 3525 4397 
L 1831 0 
L 1172 0 
L 2766 4134 
L 525 4134 
L 525 4666 
z
" transform="scale(0.015625)"/>
       </defs>
       <use xlink:href="#DejaVuSans-30"/>
       <use xlink:href="#DejaVuSans-2e" transform="translate(63.623047 0)"/>
       <use xlink:href="#DejaVuSans-37" transform="translate(95.410156 0)"/>
       <use xlink:href="#DejaVuSans-35" transform="translate(159.033203 0)"/>
      </g>
     </g>
    </g>
    <g id="xtick_5">
     <g id="line2d_5">
      <path d="M 344.716934 390.04 
L 344.716934 57.0062 
" clip-path="url(#pd594db6094)" style="fill: none; stroke: #ffffff; stroke-width: 0.8; stroke-linecap: round"/>
     </g>
     <g id="text_5">
      <!-- 1.00 -->
      <g style="fill: #262626" transform="translate(333.584121 404.638438) scale(0.1 -0.1)">
       <defs>
        <path id="DejaVuSans-31" d="M 794 531 
L 1825 531 
L 1825 4091 
L 703 3866 
L 703 4441 
L 1819 4666 
L 2450 4666 
L 2450 531 
L 3481 531 
L 3481 0 
L 794 0 
L 794 531 
z
" transform="scale(0.015625)"/>
       </defs>
       <use xlink:href="#DejaVuSans-31"/>
       <use xlink:href="#DejaVuSans-2e" transform="translate(63.623047 0)"/>
       <use xlink:href="#DejaVuSans-30" transform="translate(95.410156 0)"/>
       <use xlink:href="#DejaVuSans-30" transform="translate(159.033203 0)"/>
      </g>
     </g>
    </g>
    <g id="xtick_6">
     <g id="line2d_6">
      <path d="M 414.488458 390.04 
L 414.488458 57.0062 
" clip-path="url(#pd594db6094)" style="fill: none; stroke: #ffffff; stroke-width: 0.8; stroke-linecap: round"/>
     </g>
     <g id="text_6">
      <!-- 1.25 -->
      <g style="fill: #262626" transform="translate(403.355645 404.638438) scale(0.1 -0.1)">
       <use xlink:href="#DejaVuSans-31"/>
       <use xlink:href="#DejaVuSans-2e" transform="translate(63.623047 0)"/>
       <use xlink:href="#DejaVuSans-32" transform="translate(95.410156 0)"/>
       <use xlink:href="#DejaVuSans-35" transform="translate(159.033203 0)"/>
      </g>
     </g>
    </g>
    <g id="xtick_7">
     <g id="line2d_7">
      <path d="M 484.259982 390.04 
L 484.259982 57.0062 
" clip-path="url(#pd594db6094)" style="fill: none; stroke: #ffffff; stroke-width: 0.8; stroke-linecap: round"/>
     </g>
     <g id="text_7">
      <!-- 1.50 -->
      <g style="fill: #262626" transform="translate(473.127169 404.638438) scale(0.1 -0.1)">
       <use xlink:href="#DejaVuSans-31"/>
       <use xlink:href="#DejaVuSans-2e" transform="translate(63.623047 0)"/>
       <use xlink:href="#DejaVuSans-35" transform="translate(95.410156 0)"/>
       <use xlink:href="#DejaVuSans-30" transform="translate(159.033203 0)"/>
      </g>
     </g>
    </g>
    <g id="xtick_8">
     <g id="line2d_8">
      <path d="M 554.031506 390.04 
L 554.031506 57.0062 
" clip-path="url(#pd594db6094)" style="fill: none; stroke: #ffffff; stroke-width: 0.8; stroke-linecap: round"/>
     </g>
     <g id="text_8">
      <!-- 1.75 -->
      <g style="fill: #262626" transform="translate(542.898694 404.638438) scale(0.1 -0.1)">
       <use xlink:href="#DejaVuSans-31"/>
       <use xlink:href="#DejaVuSans-2e" transform="translate(63.623047 0)"/>
       <use xlink:href="#DejaVuSans-37" transform="translate(95.410156 0)"/>
       <use xlink:href="#DejaVuSans-35" transform="translate(159.033203 0)"/>
      </g>
     </g>
    </g>
    <g id="xtick_9">
     <g id="line2d_9">
      <path d="M 623.80303 390.04 
L 623.80303 57.0062 
" clip-path="url(#pd594db6094)" style="fill: none; stroke: #ffffff; stroke-width: 0.8; stroke-linecap: round"/>
     </g>
     <g id="text_9">
      <!-- 2.00 -->
      <g style="fill: #262626" transform="translate(612.670218 404.638438) scale(0.1 -0.1)">
       <use xlink:href="#DejaVuSans-32"/>
       <use xlink:href="#DejaVuSans-2e" transform="translate(63.623047 0)"/>
       <use xlink:href="#DejaVuSans-30" transform="translate(95.410156 0)"/>
       <use xlink:href="#DejaVuSans-30" transform="translate(159.033203 0)"/>
      </g>
     </g>
    </g>
    <g id="text_10">
     <!-- Steps -->
     <g style="fill: #262626" transform="translate(337.425156 418.316562) scale(0.1 -0.1)">
      <defs>
       <path id="DejaVuSans-53" d="M 3425 4513 
L 3425 3897 
Q 3066 4069 2747 4153 
Q 2428 4238 2131 4238 
Q 1616 4238 1336 4038 
Q 1056 3838 1056 3469 
Q 1056 3159 1242 3001 
Q 1428 2844 1947 2747 
L 2328 2669 
Q 3034 2534 3370 2195 
Q 3706 1856 3706 1288 
Q 3706 609 3251 259 
Q 2797 -91 1919 -91 
Q 1588 -91 1214 -16 
Q 841 59 441 206 
L 441 856 
Q 825 641 1194 531 
Q 1563 422 1919 422 
Q 2459 422 2753 634 
Q 3047 847 3047 1241 
Q 3047 1584 2836 1778 
Q 2625 1972 2144 2069 
L 1759 2144 
Q 1053 2284 737 2584 
Q 422 2884 422 3419 
Q 422 4038 858 4394 
Q 1294 4750 2059 4750 
Q 2388 4750 2728 4690 
Q 3069 4631 3425 4513 
z
" transform="scale(0.015625)"/>
       <path id="DejaVuSans-74" d="M 1172 4494 
L 1172 3500 
L 2356 3500 
L 2356 3053 
L 1172 3053 
L 1172 1153 
Q 1172 725 1289 603 
Q 1406 481 1766 481 
L 2356 481 
L 2356 0 
L 1766 0 
Q 1100 0 847 248 
Q 594 497 594 1153 
L 594 3053 
L 172 3053 
L 172 3500 
L 594 3500 
L 594 4494 
L 1172 4494 
z
" transform="scale(0.015625)"/>
       <path id="DejaVuSans-65" d="M 3597 1894 
L 3597 1613 
L 953 1613 
Q 991 1019 1311 708 
Q 1631 397 2203 397 
Q 2534 397 2845 478 
Q 3156 559 3463 722 
L 3463 178 
Q 3153 47 2828 -22 
Q 2503 -91 2169 -91 
Q 1331 -91 842 396 
Q 353 884 353 1716 
Q 353 2575 817 3079 
Q 1281 3584 2069 3584 
Q 2775 3584 3186 3129 
Q 3597 2675 3597 1894 
z
M 3022 2063 
Q 3016 2534 2758 2815 
Q 2500 3097 2075 3097 
Q 1594 3097 1305 2825 
Q 1016 2553 972 2059 
L 3022 2063 
z
" transform="scale(0.015625)"/>
       <path id="DejaVuSans-70" d="M 1159 525 
L 1159 -1331 
L 581 -1331 
L 581 3500 
L 1159 3500 
L 1159 2969 
Q 1341 3281 1617 3432 
Q 1894 3584 2278 3584 
Q 2916 3584 3314 3078 
Q 3713 2572 3713 1747 
Q 3713 922 3314 415 
Q 2916 -91 2278 -91 
Q 1894 -91 1617 61 
Q 1341 213 1159 525 
z
M 3116 1747 
Q 3116 2381 2855 2742 
Q 2594 3103 2138 3103 
Q 1681 3103 1420 2742 
Q 1159 2381 1159 1747 
Q 1159 1113 1420 752 
Q 1681 391 2138 391 
Q 2594 391 2855 752 
Q 3116 1113 3116 1747 
z
" transform="scale(0.015625)"/>
       <path id="DejaVuSans-73" d="M 2834 3397 
L 2834 2853 
Q 2591 2978 2328 3040 
Q 2066 3103 1784 3103 
Q 1356 3103 1142 2972 
Q 928 2841 928 2578 
Q 928 2378 1081 2264 
Q 1234 2150 1697 2047 
L 1894 2003 
Q 2506 1872 2764 1633 
Q 3022 1394 3022 966 
Q 3022 478 2636 193 
Q 2250 -91 1575 -91 
Q 1294 -91 989 -36 
Q 684 19 347 128 
L 347 722 
Q 666 556 975 473 
Q 1284 391 1588 391 
Q 1994 391 2212 530 
Q 2431 669 2431 922 
Q 2431 1156 2273 1281 
Q 2116 1406 1581 1522 
L 1381 1569 
Q 847 1681 609 1914 
Q 372 2147 372 2553 
Q 372 3047 722 3315 
Q 1072 3584 1716 3584 
Q 2034 3584 2315 3537 
Q 2597 3491 2834 3397 
z
" transform="scale(0.015625)"/>
      </defs>
      <use xlink:href="#DejaVuSans-53"/>
      <use xlink:href="#DejaVuSans-74" transform="translate(63.476562 0)"/>
      <use xlink:href="#DejaVuSans-65" transform="translate(102.685547 0)"/>
      <use xlink:href="#DejaVuSans-70" transform="translate(164.208984 0)"/>
      <use xlink:href="#DejaVuSans-73" transform="translate(227.685547 0)"/>
     </g>
    </g>
    <g id="text_11">
     <!-- 1e6 -->
     <g style="fill: #262626" transform="translate(618.321875 417.316562) scale(0.1 -0.1)">
      <defs>
       <path id="DejaVuSans-36" d="M 2113 2584 
Q 1688 2584 1439 2293 
Q 1191 2003 1191 1497 
Q 1191 994 1439 701 
Q 1688 409 2113 409 
Q 2538 409 2786 701 
Q 3034 994 3034 1497 
Q 3034 2003 2786 2293 
Q 2538 2584 2113 2584 
z
M 3366 4563 
L 3366 3988 
Q 3128 4100 2886 4159 
Q 2644 4219 2406 4219 
Q 1781 4219 1451 3797 
Q 1122 3375 1075 2522 
Q 1259 2794 1537 2939 
Q 1816 3084 2150 3084 
Q 2853 3084 3261 2657 
Q 3669 2231 3669 1497 
Q 3669 778 3244 343 
Q 2819 -91 2113 -91 
Q 1303 -91 875 529 
Q 447 1150 447 2328 
Q 447 3434 972 4092 
Q 1497 4750 2381 4750 
Q 2619 4750 2861 4703 
Q 3103 4656 3366 4563 
z
" transform="scale(0.015625)"/>
      </defs>
      <use xlink:href="#DejaVuSans-31"/>
      <use xlink:href="#DejaVuSans-65" transform="translate(63.623047 0)"/>
      <use xlink:href="#DejaVuSans-36" transform="translate(125.146484 0)"/>
     </g>
    </g>
   </g>
   <g id="matplotlib.axis_2">
    <g id="ytick_1">
     <g id="line2d_10">
      <path d="M 65.63 390.04 
L 637.2 390.04 
" clip-path="url(#pd594db6094)" style="fill: none; stroke: #ffffff; stroke-width: 0.8; stroke-linecap: round"/>
     </g>
     <g id="text_12">
      <!-- −1600 -->
      <g style="fill: #262626" transform="translate(24.800313 393.839219) scale(0.1 -0.1)">
       <defs>
        <path id="DejaVuSans-2212" d="M 678 2272 
L 4684 2272 
L 4684 1741 
L 678 1741 
L 678 2272 
z
" transform="scale(0.015625)"/>
       </defs>
       <use xlink:href="#DejaVuSans-2212"/>
       <use xlink:href="#DejaVuSans-31" transform="translate(83.789062 0)"/>
       <use xlink:href="#DejaVuSans-36" transform="translate(147.412109 0)"/>
       <use xlink:href="#DejaVuSans-30" transform="translate(211.035156 0)"/>
       <use xlink:href="#DejaVuSans-30" transform="translate(274.658203 0)"/>
      </g>
     </g>
    </g>
    <g id="ytick_2">
     <g id="line2d_11">
      <path d="M 65.63 348.410775 
L 637.2 348.410775 
" clip-path="url(#pd594db6094)" style="fill: none; stroke: #ffffff; stroke-width: 0.8; stroke-linecap: round"/>
     </g>
     <g id="text_13">
      <!-- −1400 -->
      <g style="fill: #262626" transform="translate(24.800313 352.209994) scale(0.1 -0.1)">
       <defs>
        <path id="DejaVuSans-34" d="M 2419 4116 
L 825 1625 
L 2419 1625 
L 2419 4116 
z
M 2253 4666 
L 3047 4666 
L 3047 1625 
L 3713 1625 
L 3713 1100 
L 3047 1100 
L 3047 0 
L 2419 0 
L 2419 1100 
L 313 1100 
L 313 1709 
L 2253 4666 
z
" transform="scale(0.015625)"/>
       </defs>
       <use xlink:href="#DejaVuSans-2212"/>
       <use xlink:href="#DejaVuSans-31" transform="translate(83.789062 0)"/>
       <use xlink:href="#DejaVuSans-34" transform="translate(147.412109 0)"/>
       <use xlink:href="#DejaVuSans-30" transform="translate(211.035156 0)"/>
       <use xlink:href="#DejaVuSans-30" transform="translate(274.658203 0)"/>
      </g>
     </g>
    </g>
    <g id="ytick_3">
     <g id="line2d_12">
      <path d="M 65.63 306.78155 
L 637.2 306.78155 
" clip-path="url(#pd594db6094)" style="fill: none; stroke: #ffffff; stroke-width: 0.8; stroke-linecap: round"/>
     </g>
     <g id="text_14">
      <!-- −1200 -->
      <g style="fill: #262626" transform="translate(24.800313 310.580769) scale(0.1 -0.1)">
       <use xlink:href="#DejaVuSans-2212"/>
       <use xlink:href="#DejaVuSans-31" transform="translate(83.789062 0)"/>
       <use xlink:href="#DejaVuSans-32" transform="translate(147.412109 0)"/>
       <use xlink:href="#DejaVuSans-30" transform="translate(211.035156 0)"/>
       <use xlink:href="#DejaVuSans-30" transform="translate(274.658203 0)"/>
      </g>
     </g>
    </g>
    <g id="ytick_4">
     <g id="line2d_13">
      <path d="M 65.63 265.152325 
L 637.2 265.152325 
" clip-path="url(#pd594db6094)" style="fill: none; stroke: #ffffff; stroke-width: 0.8; stroke-linecap: round"/>
     </g>
     <g id="text_15">
      <!-- −1000 -->
      <g style="fill: #262626" transform="translate(24.800313 268.951544) scale(0.1 -0.1)">
       <use xlink:href="#DejaVuSans-2212"/>
       <use xlink:href="#DejaVuSans-31" transform="translate(83.789062 0)"/>
       <use xlink:href="#DejaVuSans-30" transform="translate(147.412109 0)"/>
       <use xlink:href="#DejaVuSans-30" transform="translate(211.035156 0)"/>
       <use xlink:href="#DejaVuSans-30" transform="translate(274.658203 0)"/>
      </g>
     </g>
    </g>
    <g id="ytick_5">
     <g id="line2d_14">
      <path d="M 65.63 223.5231 
L 637.2 223.5231 
" clip-path="url(#pd594db6094)" style="fill: none; stroke: #ffffff; stroke-width: 0.8; stroke-linecap: round"/>
     </g>
     <g id="text_16">
      <!-- −800 -->
      <g style="fill: #262626" transform="translate(31.162813 227.322319) scale(0.1 -0.1)">
       <defs>
        <path id="DejaVuSans-38" d="M 2034 2216 
Q 1584 2216 1326 1975 
Q 1069 1734 1069 1313 
Q 1069 891 1326 650 
Q 1584 409 2034 409 
Q 2484 409 2743 651 
Q 3003 894 3003 1313 
Q 3003 1734 2745 1975 
Q 2488 2216 2034 2216 
z
M 1403 2484 
Q 997 2584 770 2862 
Q 544 3141 544 3541 
Q 544 4100 942 4425 
Q 1341 4750 2034 4750 
Q 2731 4750 3128 4425 
Q 3525 4100 3525 3541 
Q 3525 3141 3298 2862 
Q 3072 2584 2669 2484 
Q 3125 2378 3379 2068 
Q 3634 1759 3634 1313 
Q 3634 634 3220 271 
Q 2806 -91 2034 -91 
Q 1263 -91 848 271 
Q 434 634 434 1313 
Q 434 1759 690 2068 
Q 947 2378 1403 2484 
z
M 1172 3481 
Q 1172 3119 1398 2916 
Q 1625 2713 2034 2713 
Q 2441 2713 2670 2916 
Q 2900 3119 2900 3481 
Q 2900 3844 2670 4047 
Q 2441 4250 2034 4250 
Q 1625 4250 1398 4047 
Q 1172 3844 1172 3481 
z
" transform="scale(0.015625)"/>
       </defs>
       <use xlink:href="#DejaVuSans-2212"/>
       <use xlink:href="#DejaVuSans-38" transform="translate(83.789062 0)"/>
       <use xlink:href="#DejaVuSans-30" transform="translate(147.412109 0)"/>
       <use xlink:href="#DejaVuSans-30" transform="translate(211.035156 0)"/>
      </g>
     </g>
    </g>
    <g id="ytick_6">
     <g id="line2d_15">
      <path d="M 65.63 181.893875 
L 637.2 181.893875 
" clip-path="url(#pd594db6094)" style="fill: none; stroke: #ffffff; stroke-width: 0.8; stroke-linecap: round"/>
     </g>
     <g id="text_17">
      <!-- −600 -->
      <g style="fill: #262626" transform="translate(31.162813 185.693094) scale(0.1 -0.1)">
       <use xlink:href="#DejaVuSans-2212"/>
       <use xlink:href="#DejaVuSans-36" transform="translate(83.789062 0)"/>
       <use xlink:href="#DejaVuSans-30" transform="translate(147.412109 0)"/>
       <use xlink:href="#DejaVuSans-30" transform="translate(211.035156 0)"/>
      </g>
     </g>
    </g>
    <g id="ytick_7">
     <g id="line2d_16">
      <path d="M 65.63 140.26465 
L 637.2 140.26465 
" clip-path="url(#pd594db6094)" style="fill: none; stroke: #ffffff; stroke-width: 0.8; stroke-linecap: round"/>
     </g>
     <g id="text_18">
      <!-- −400 -->
      <g style="fill: #262626" transform="translate(31.162813 144.063869) scale(0.1 -0.1)">
       <use xlink:href="#DejaVuSans-2212"/>
       <use xlink:href="#DejaVuSans-34" transform="translate(83.789062 0)"/>
       <use xlink:href="#DejaVuSans-30" transform="translate(147.412109 0)"/>
       <use xlink:href="#DejaVuSans-30" transform="translate(211.035156 0)"/>
      </g>
     </g>
    </g>
    <g id="ytick_8">
     <g id="line2d_17">
      <path d="M 65.63 98.635425 
L 637.2 98.635425 
" clip-path="url(#pd594db6094)" style="fill: none; stroke: #ffffff; stroke-width: 0.8; stroke-linecap: round"/>
     </g>
     <g id="text_19">
      <!-- −200 -->
      <g style="fill: #262626" transform="translate(31.162813 102.434644) scale(0.1 -0.1)">
       <use xlink:href="#DejaVuSans-2212"/>
       <use xlink:href="#DejaVuSans-32" transform="translate(83.789062 0)"/>
       <use xlink:href="#DejaVuSans-30" transform="translate(147.412109 0)"/>
       <use xlink:href="#DejaVuSans-30" transform="translate(211.035156 0)"/>
      </g>
     </g>
    </g>
    <g id="ytick_9">
     <g id="line2d_18">
      <path d="M 65.63 57.0062 
L 637.2 57.0062 
" clip-path="url(#pd594db6094)" style="fill: none; stroke: #ffffff; stroke-width: 0.8; stroke-linecap: round"/>
     </g>
     <g id="text_20">
      <!-- 0 -->
      <g style="fill: #262626" transform="translate(52.2675 60.805419) scale(0.1 -0.1)">
       <use xlink:href="#DejaVuSans-30"/>
      </g>
     </g>
    </g>
    <g id="text_21">
     <!-- Reward -->
     <g style="fill: #262626" transform="translate(18.720625 242.144194) rotate(-90) scale(0.1 -0.1)">
      <defs>
       <path id="DejaVuSans-52" d="M 2841 2188 
Q 3044 2119 3236 1894 
Q 3428 1669 3622 1275 
L 4263 0 
L 3584 0 
L 2988 1197 
Q 2756 1666 2539 1819 
Q 2322 1972 1947 1972 
L 1259 1972 
L 1259 0 
L 628 0 
L 628 4666 
L 2053 4666 
Q 2853 4666 3247 4331 
Q 3641 3997 3641 3322 
Q 3641 2881 3436 2590 
Q 3231 2300 2841 2188 
z
M 1259 4147 
L 1259 2491 
L 2053 2491 
Q 2509 2491 2742 2702 
Q 2975 2913 2975 3322 
Q 2975 3731 2742 3939 
Q 2509 4147 2053 4147 
L 1259 4147 
z
" transform="scale(0.015625)"/>
       <path id="DejaVuSans-77" d="M 269 3500 
L 844 3500 
L 1563 769 
L 2278 3500 
L 2956 3500 
L 3675 769 
L 4391 3500 
L 4966 3500 
L 4050 0 
L 3372 0 
L 2619 2869 
L 1863 0 
L 1184 0 
L 269 3500 
z
" transform="scale(0.015625)"/>
       <path id="DejaVuSans-61" d="M 2194 1759 
Q 1497 1759 1228 1600 
Q 959 1441 959 1056 
Q 959 750 1161 570 
Q 1363 391 1709 391 
Q 2188 391 2477 730 
Q 2766 1069 2766 1631 
L 2766 1759 
L 2194 1759 
z
M 3341 1997 
L 3341 0 
L 2766 0 
L 2766 531 
Q 2569 213 2275 61 
Q 1981 -91 1556 -91 
Q 1019 -91 701 211 
Q 384 513 384 1019 
Q 384 1609 779 1909 
Q 1175 2209 1959 2209 
L 2766 2209 
L 2766 2266 
Q 2766 2663 2505 2880 
Q 2244 3097 1772 3097 
Q 1472 3097 1187 3025 
Q 903 2953 641 2809 
L 641 3341 
Q 956 3463 1253 3523 
Q 1550 3584 1831 3584 
Q 2591 3584 2966 3190 
Q 3341 2797 3341 1997 
z
" transform="scale(0.015625)"/>
       <path id="DejaVuSans-72" d="M 2631 2963 
Q 2534 3019 2420 3045 
Q 2306 3072 2169 3072 
Q 1681 3072 1420 2755 
Q 1159 2438 1159 1844 
L 1159 0 
L 581 0 
L 581 3500 
L 1159 3500 
L 1159 2956 
Q 1341 3275 1631 3429 
Q 1922 3584 2338 3584 
Q 2397 3584 2469 3576 
Q 2541 3569 2628 3553 
L 2631 2963 
z
" transform="scale(0.015625)"/>
       <path id="DejaVuSans-64" d="M 2906 2969 
L 2906 4863 
L 3481 4863 
L 3481 0 
L 2906 0 
L 2906 525 
Q 2725 213 2448 61 
Q 2172 -91 1784 -91 
Q 1150 -91 751 415 
Q 353 922 353 1747 
Q 353 2572 751 3078 
Q 1150 3584 1784 3584 
Q 2172 3584 2448 3432 
Q 2725 3281 2906 2969 
z
M 947 1747 
Q 947 1113 1208 752 
Q 1469 391 1925 391 
Q 2381 391 2643 752 
Q 2906 1113 2906 1747 
Q 2906 2381 2643 2742 
Q 2381 3103 1925 3103 
Q 1469 3103 1208 2742 
Q 947 2381 947 1747 
z
" transform="scale(0.015625)"/>
      </defs>
      <use xlink:href="#DejaVuSans-52"/>
      <use xlink:href="#DejaVuSans-65" transform="translate(64.982422 0)"/>
      <use xlink:href="#DejaVuSans-77" transform="translate(126.505859 0)"/>
      <use xlink:href="#DejaVuSans-61" transform="translate(208.292969 0)"/>
      <use xlink:href="#DejaVuSans-72" transform="translate(269.572266 0)"/>
      <use xlink:href="#DejaVuSans-64" transform="translate(308.935547 0)"/>
     </g>
    </g>
   </g>
   <g id="FillBetweenPolyCollection_1">
    <path d="M 65.630837 299.779397 
L 65.630837 306.357203 
L 71.346521 318.034504 
L 77.062204 321.942423 
L 82.777887 311.758776 
L 88.49357 298.157082 
L 94.209254 324.899579 
L 99.924937 312.436707 
L 105.64062 313.528724 
L 111.356303 293.278892 
L 117.071987 280.283194 
L 122.78767 261.775832 
L 128.503353 254.381539 
L 134.219036 244.171024 
L 139.93472 226.800767 
L 145.650403 204.273016 
L 151.366086 179.180954 
L 157.081769 165.469587 
L 162.797453 144.434829 
L 168.513136 158.866593 
L 174.228819 165.675238 
L 179.944502 128.184799 
L 185.660186 127.703326 
L 191.375869 146.187382 
L 197.091552 151.160822 
L 202.807235 133.605866 
L 208.522919 124.187205 
L 214.238602 154.180292 
L 219.954285 124.543968 
L 225.669968 104.720161 
L 231.385652 113.109848 
L 237.101335 117.582219 
L 242.817018 132.210952 
L 248.532701 111.326926 
L 254.248385 120.278164 
L 259.964068 119.345667 
L 265.679751 102.557736 
L 271.395434 104.0242 
L 277.111118 113.240236 
L 282.826801 114.134754 
L 288.542484 105.105901 
L 294.258167 100.727238 
L 299.973851 102.253675 
L 305.689534 98.146474 
L 311.405217 108.502727 
L 317.1209 101.457163 
L 322.836584 98.885495 
L 328.552267 98.161548 
L 334.26795 103.884865 
L 339.983633 112.489994 
L 345.699317 132.212683 
L 351.415 122.236669 
L 357.130683 119.448786 
L 362.846367 143.062193 
L 368.56205 133.180034 
L 374.277733 151.177026 
L 379.993416 123.889111 
L 385.7091 143.267067 
L 391.424783 142.725415 
L 397.140466 123.223906 
L 402.856149 127.225311 
L 408.571833 126.438 
L 414.287516 126.071244 
L 420.003199 128.266611 
L 425.718882 109.081186 
L 431.434566 96.576513 
L 437.150249 100.372105 
L 442.865932 96.220272 
L 448.581615 110.485795 
L 454.297299 111.736435 
L 460.012982 109.814228 
L 465.728665 111.173864 
L 471.444348 109.451501 
L 477.160032 96.230624 
L 482.875715 94.51621 
L 488.591398 96.334246 
L 494.307081 95.707826 
L 500.022765 92.151381 
L 505.738448 100.709984 
L 511.454131 94.496249 
L 517.169814 93.333404 
L 522.885498 95.250518 
L 528.601181 99.921116 
L 534.316864 95.698326 
L 540.032547 139.416205 
L 545.748231 128.989471 
L 551.463914 131.704403 
L 557.179597 116.081976 
L 562.89528 141.391811 
L 568.610964 115.464399 
L 574.326647 128.118254 
L 580.04233 112.326145 
L 585.758013 113.92602 
L 591.473697 115.525681 
L 597.18938 131.743206 
L 602.905063 109.624768 
L 608.620746 111.893765 
L 614.33643 110.908128 
L 620.052113 102.362633 
L 625.767796 96.107182 
L 631.483479 101.286355 
L 631.483479 84.907943 
L 631.483479 84.907943 
L 625.767796 88.137031 
L 620.052113 84.657167 
L 614.33643 86.770444 
L 608.620746 83.418533 
L 602.905063 84.185157 
L 597.18938 75.593257 
L 591.473697 79.994834 
L 585.758013 78.180381 
L 580.04233 84.103088 
L 574.326647 82.027859 
L 568.610964 84.627718 
L 562.89528 75.075208 
L 557.179597 81.428111 
L 551.463914 76.043019 
L 545.748231 75.061478 
L 540.032547 76.258458 
L 534.316864 88.94606 
L 528.601181 83.191779 
L 522.885498 87.489466 
L 517.169814 85.195933 
L 511.454131 85.21038 
L 505.738448 89.241367 
L 500.022765 89.517346 
L 494.307081 89.167954 
L 488.591398 91.909257 
L 482.875715 89.210842 
L 477.160032 87.758256 
L 471.444348 90.167151 
L 465.728665 87.500471 
L 460.012982 82.527937 
L 454.297299 81.708289 
L 448.581615 87.438317 
L 442.865932 90.146277 
L 437.150249 85.136691 
L 431.434566 86.677484 
L 425.718882 84.594818 
L 420.003199 87.770012 
L 414.287516 84.028445 
L 408.571833 77.956337 
L 402.856149 84.63462 
L 397.140466 92.163773 
L 391.424783 80.336715 
L 385.7091 82.639248 
L 379.993416 91.068521 
L 374.277733 76.486065 
L 368.56205 75.846262 
L 362.846367 75.274622 
L 357.130683 86.44272 
L 351.415 78.732792 
L 345.699317 81.935427 
L 339.983633 92.562644 
L 334.26795 94.277547 
L 328.552267 89.978686 
L 322.836584 89.695174 
L 317.1209 92.55453 
L 311.405217 90.038535 
L 305.689534 87.876164 
L 299.973851 89.6902 
L 294.258167 90.007825 
L 288.542484 90.964238 
L 282.826801 88.016925 
L 277.111118 93.420592 
L 271.395434 97.27648 
L 265.679751 96.59871 
L 259.964068 94.303413 
L 254.248385 91.69988 
L 248.532701 95.230795 
L 242.817018 94.138131 
L 237.101335 92.777783 
L 231.385652 97.119769 
L 225.669968 95.417617 
L 219.954285 103.751672 
L 214.238602 94.467394 
L 208.522919 102.411703 
L 202.807235 106.741277 
L 197.091552 108.118642 
L 191.375869 117.930153 
L 185.660186 111.34405 
L 179.944502 110.634139 
L 174.228819 113.111794 
L 168.513136 102.443141 
L 162.797453 122.348819 
L 157.081769 135.24205 
L 151.366086 138.680527 
L 145.650403 137.613327 
L 139.93472 169.593272 
L 134.219036 195.211522 
L 128.503353 209.853143 
L 122.78767 235.793526 
L 117.071987 250.030932 
L 111.356303 263.881741 
L 105.64062 264.831699 
L 99.924937 285.059967 
L 94.209254 285.852963 
L 88.49357 279.336762 
L 82.777887 286.714997 
L 77.062204 284.351172 
L 71.346521 290.052708 
L 65.630837 299.779397 
z
" clip-path="url(#pd594db6094)" style="fill: #1f77b4; fill-opacity: 0.2"/>
   </g>
   <g id="FillBetweenPolyCollection_2">
    <path d="M 65.630837 298.100952 
L 65.630837 327.137225 
L 71.346521 299.770976 
L 77.062204 299.724198 
L 82.777887 300.258269 
L 88.49357 291.635526 
L 94.209254 279.909042 
L 99.924937 273.480581 
L 105.64062 261.355366 
L 111.356303 263.556737 
L 117.071987 256.705807 
L 122.78767 250.575486 
L 128.503353 246.26788 
L 134.219036 242.251977 
L 139.93472 242.341184 
L 145.650403 230.402636 
L 151.366086 245.890372 
L 157.081769 238.724885 
L 162.797453 223.482885 
L 168.513136 224.966252 
L 174.228819 218.597931 
L 179.944502 209.307896 
L 185.660186 206.833715 
L 191.375869 192.78098 
L 197.091552 165.187149 
L 202.807235 166.244667 
L 208.522919 189.244301 
L 214.238602 171.590175 
L 219.954285 204.809505 
L 225.669968 166.644423 
L 231.385652 199.55052 
L 237.101335 163.315305 
L 242.817018 171.349777 
L 248.532701 187.303112 
L 254.248385 203.668356 
L 259.964068 180.114147 
L 265.679751 155.178668 
L 271.395434 168.820396 
L 277.111118 172.749722 
L 282.826801 188.285212 
L 288.542484 138.561872 
L 294.258167 171.329298 
L 299.973851 158.921754 
L 305.689534 209.525 
L 311.405217 222.75804 
L 317.1209 213.17202 
L 322.836584 216.628902 
L 328.552267 223.784914 
L 334.26795 242.523433 
L 339.983633 229.279947 
L 345.699317 222.183093 
L 351.415 230.666103 
L 357.130683 229.342604 
L 362.846367 229.946183 
L 368.56205 225.061902 
L 374.277733 225.366966 
L 379.993416 194.596975 
L 385.7091 184.346445 
L 391.424783 178.04638 
L 397.140466 224.511497 
L 402.856149 202.311267 
L 408.571833 203.107645 
L 414.287516 207.100934 
L 420.003199 170.957584 
L 425.718882 207.552449 
L 431.434566 210.061342 
L 437.150249 246.271718 
L 442.865932 243.243086 
L 448.581615 279.563661 
L 454.297299 237.038067 
L 460.012982 228.460581 
L 465.728665 216.178772 
L 471.444348 272.09505 
L 477.160032 297.486349 
L 482.875715 263.368583 
L 488.591398 281.489505 
L 494.307081 307.038013 
L 500.022765 291.170699 
L 505.738448 294.202482 
L 511.454131 292.163904 
L 517.169814 299.723175 
L 522.885498 273.521873 
L 528.601181 284.621847 
L 534.316864 290.236944 
L 540.032547 257.540664 
L 545.748231 275.755105 
L 551.463914 285.878305 
L 557.179597 265.990075 
L 562.89528 239.427583 
L 568.610964 264.850435 
L 574.326647 254.33552 
L 580.04233 254.176198 
L 585.758013 280.857757 
L 591.473697 245.424862 
L 597.18938 258.919233 
L 602.905063 248.135153 
L 608.620746 253.719971 
L 614.33643 249.698822 
L 620.052113 257.839033 
L 625.767796 264.629259 
L 631.483479 256.094873 
L 631.483479 60.499891 
L 631.483479 60.499891 
L 625.767796 73.359069 
L 620.052113 58.886746 
L 614.33643 60.786291 
L 608.620746 74.475477 
L 602.905063 79.184025 
L 597.18938 82.229176 
L 591.473697 81.294754 
L 585.758013 80.82748 
L 580.04233 69.913366 
L 574.326647 91.191139 
L 568.610964 83.337964 
L 562.89528 87.49338 
L 557.179597 92.741224 
L 551.463914 80.941368 
L 545.748231 87.170602 
L 540.032547 92.573035 
L 534.316864 98.05676 
L 528.601181 104.851896 
L 522.885498 93.792296 
L 517.169814 102.07355 
L 511.454131 96.863219 
L 505.738448 96.2955 
L 500.022765 112.754622 
L 494.307081 97.836169 
L 488.591398 97.264248 
L 482.875715 101.322271 
L 477.160032 98.787775 
L 471.444348 78.817598 
L 465.728665 107.514937 
L 460.012982 97.76191 
L 454.297299 118.574711 
L 448.581615 89.760319 
L 442.865932 102.739225 
L 437.150249 102.917022 
L 431.434566 94.435816 
L 425.718882 135.535446 
L 420.003199 103.06501 
L 414.287516 119.467918 
L 408.571833 111.196629 
L 402.856149 122.187228 
L 397.140466 117.569634 
L 391.424783 116.088315 
L 385.7091 111.182656 
L 379.993416 115.461186 
L 374.277733 115.737625 
L 368.56205 131.750623 
L 362.846367 138.037455 
L 357.130683 111.87027 
L 351.415 104.572894 
L 345.699317 132.747995 
L 339.983633 126.4744 
L 334.26795 111.123699 
L 328.552267 121.594207 
L 322.836584 105.736186 
L 317.1209 106.717184 
L 311.405217 126.3251 
L 305.689534 112.863971 
L 299.973851 131.575331 
L 294.258167 144.020484 
L 288.542484 113.805797 
L 282.826801 149.863175 
L 277.111118 134.428242 
L 271.395434 124.753241 
L 265.679751 132.545354 
L 259.964068 137.250944 
L 254.248385 138.711077 
L 248.532701 133.422749 
L 242.817018 133.836108 
L 237.101335 134.579787 
L 231.385652 148.34816 
L 225.669968 129.362688 
L 219.954285 137.356136 
L 214.238602 144.397855 
L 208.522919 158.769305 
L 202.807235 132.564943 
L 197.091552 141.018141 
L 191.375869 127.572925 
L 185.660186 153.152391 
L 179.944502 149.789135 
L 174.228819 151.331133 
L 168.513136 172.916973 
L 162.797453 172.108768 
L 157.081769 190.8092 
L 151.366086 208.433822 
L 145.650403 219.016483 
L 139.93472 208.729053 
L 134.219036 219.806176 
L 128.503353 223.276979 
L 122.78767 236.871276 
L 117.071987 243.839891 
L 111.356303 250.429574 
L 105.64062 249.099189 
L 99.924937 259.786616 
L 94.209254 273.327652 
L 88.49357 280.866753 
L 82.777887 282.65483 
L 77.062204 271.565527 
L 71.346521 295.17926 
L 65.630837 298.100952 
z
" clip-path="url(#pd594db6094)" style="fill: #ff7f0e; fill-opacity: 0.2"/>
   </g>
   <g id="FillBetweenPolyCollection_3">
    <path d="M 65.630837 301.62275 
L 65.630837 306.950376 
L 71.346521 306.160642 
L 77.062204 304.655881 
L 82.777887 295.113884 
L 88.49357 289.018798 
L 94.209254 279.020906 
L 99.924937 271.247361 
L 105.64062 269.544697 
L 111.356303 256.035847 
L 117.071987 261.500406 
L 122.78767 252.280928 
L 128.503353 242.59601 
L 134.219036 243.907403 
L 139.93472 226.687901 
L 145.650403 230.555648 
L 151.366086 246.389013 
L 157.081769 246.653031 
L 162.797453 208.720217 
L 168.513136 211.772084 
L 174.228819 230.084052 
L 179.944502 230.089138 
L 185.660186 221.043253 
L 191.375869 223.175476 
L 197.091552 212.519434 
L 202.807235 216.801912 
L 208.522919 211.989941 
L 214.238602 272.060747 
L 219.954285 284.143455 
L 225.669968 315.266632 
L 231.385652 317.029586 
L 237.101335 315.831 
L 242.817018 310.462631 
L 248.532701 308.886325 
L 254.248385 317.408819 
L 259.964068 322.526794 
L 265.679751 313.144551 
L 271.395434 316.574564 
L 277.111118 317.665706 
L 282.826801 316.179096 
L 288.542484 314.549007 
L 294.258167 285.098651 
L 299.973851 295.03593 
L 305.689534 311.093734 
L 311.405217 325.294812 
L 317.1209 310.304269 
L 322.836584 336.025396 
L 328.552267 295.883199 
L 334.26795 311.186396 
L 339.983633 301.088673 
L 345.699317 327.650811 
L 351.415 308.535446 
L 357.130683 308.143267 
L 362.846367 284.689084 
L 368.56205 289.281293 
L 374.277733 289.092427 
L 379.993416 297.042917 
L 385.7091 293.120015 
L 391.424783 291.982335 
L 397.140466 287.277364 
L 402.856149 309.088797 
L 408.571833 311.980825 
L 414.287516 297.783902 
L 420.003199 294.938224 
L 425.718882 294.012462 
L 431.434566 307.866843 
L 437.150249 331.52822 
L 442.865932 322.087913 
L 448.581615 324.735158 
L 454.297299 312.816976 
L 460.012982 313.011207 
L 465.728665 282.293898 
L 471.444348 320.890839 
L 477.160032 305.473069 
L 482.875715 287.063146 
L 488.591398 327.720593 
L 494.307081 299.361587 
L 500.022765 293.736209 
L 505.738448 301.783552 
L 511.454131 286.379221 
L 517.169814 261.531894 
L 522.885498 279.314366 
L 528.601181 283.522654 
L 534.316864 288.451858 
L 540.032547 266.67174 
L 545.748231 301.505203 
L 551.463914 298.150743 
L 557.179597 318.644509 
L 562.89528 331.548885 
L 568.610964 345.94101 
L 574.326647 331.558725 
L 580.04233 326.158806 
L 585.758013 336.639016 
L 591.473697 328.174623 
L 597.18938 310.23081 
L 602.905063 323.568016 
L 608.620746 361.981442 
L 614.33643 342.869725 
L 620.052113 331.13891 
L 625.767796 348.813244 
L 631.483479 301.266978 
L 631.483479 171.692137 
L 631.483479 171.692137 
L 625.767796 210.019877 
L 620.052113 192.864675 
L 614.33643 195.33105 
L 608.620746 214.350013 
L 602.905063 197.493566 
L 597.18938 194.011329 
L 591.473697 192.536747 
L 585.758013 222.207977 
L 580.04233 204.875161 
L 574.326647 219.139048 
L 568.610964 219.380786 
L 562.89528 210.344035 
L 557.179597 220.351245 
L 551.463914 221.537385 
L 545.748231 205.958285 
L 540.032547 191.170205 
L 534.316864 219.003597 
L 528.601181 193.365942 
L 522.885498 204.258935 
L 517.169814 170.961295 
L 511.454131 179.933099 
L 505.738448 193.134209 
L 500.022765 188.965172 
L 494.307081 193.971034 
L 488.591398 202.949231 
L 482.875715 202.051371 
L 477.160032 203.297803 
L 471.444348 204.095883 
L 465.728665 222.213373 
L 460.012982 228.771916 
L 454.297299 216.311707 
L 448.581615 215.846109 
L 442.865932 237.693077 
L 437.150249 205.910547 
L 431.434566 230.157194 
L 425.718882 176.944585 
L 420.003199 214.986159 
L 414.287516 188.991071 
L 408.571833 179.840949 
L 402.856149 220.954345 
L 397.140466 199.412421 
L 391.424783 218.022867 
L 385.7091 155.403793 
L 379.993416 178.615008 
L 374.277733 173.585411 
L 368.56205 174.128517 
L 362.846367 172.763183 
L 357.130683 208.869985 
L 351.415 198.051752 
L 345.699317 222.988225 
L 339.983633 204.146533 
L 334.26795 213.138402 
L 328.552267 203.97526 
L 322.836584 237.576308 
L 317.1209 218.381591 
L 311.405217 237.087376 
L 305.689534 165.443262 
L 299.973851 144.016873 
L 294.258167 140.8636 
L 288.542484 176.985872 
L 282.826801 163.466602 
L 277.111118 114.621093 
L 271.395434 127.467644 
L 265.679751 136.196561 
L 259.964068 167.094804 
L 254.248385 154.630701 
L 248.532701 133.900062 
L 242.817018 137.921318 
L 237.101335 145.259257 
L 231.385652 160.689667 
L 225.669968 137.914597 
L 219.954285 138.124437 
L 214.238602 113.036354 
L 208.522919 151.184239 
L 202.807235 144.485322 
L 197.091552 140.160573 
L 191.375869 153.587132 
L 185.660186 130.79518 
L 179.944502 163.567102 
L 174.228819 136.574058 
L 168.513136 131.370231 
L 162.797453 135.116041 
L 157.081769 152.100046 
L 151.366086 149.732525 
L 145.650403 160.206115 
L 139.93472 180.076038 
L 134.219036 189.972207 
L 128.503353 201.267018 
L 122.78767 204.867588 
L 117.071987 210.862256 
L 111.356303 223.945659 
L 105.64062 243.025648 
L 99.924937 247.605935 
L 94.209254 252.209266 
L 88.49357 270.21064 
L 82.777887 278.005557 
L 77.062204 283.780819 
L 71.346521 290.948668 
L 65.630837 301.62275 
z
" clip-path="url(#pd594db6094)" style="fill: #2ca02c; fill-opacity: 0.2"/>
   </g>
   <g id="line2d_19">
    <path d="M 65.630837 303.0683 
L 71.346521 304.043606 
L 77.062204 303.146798 
L 82.777887 299.236886 
L 88.49357 288.746922 
L 94.209254 305.376271 
L 99.924937 298.748337 
L 105.64062 289.180212 
L 111.356303 278.580317 
L 117.071987 265.157063 
L 122.78767 248.784679 
L 128.503353 232.117341 
L 134.219036 219.691273 
L 139.93472 198.197019 
L 145.650403 170.943171 
L 151.366086 158.93074 
L 157.081769 150.355819 
L 162.797453 133.391824 
L 168.513136 130.654867 
L 174.228819 139.393516 
L 179.944502 119.409469 
L 185.660186 119.523688 
L 191.375869 132.058768 
L 197.091552 129.639732 
L 202.807235 120.173572 
L 208.522919 113.299454 
L 214.238602 124.323843 
L 219.954285 114.14782 
L 225.669968 100.068889 
L 231.385652 105.114809 
L 237.101335 105.180001 
L 242.817018 113.174542 
L 248.532701 103.27886 
L 254.248385 105.989022 
L 259.964068 106.82454 
L 265.679751 99.578223 
L 271.395434 100.65034 
L 277.111118 103.330414 
L 282.826801 101.07584 
L 288.542484 98.035069 
L 294.258167 95.367532 
L 299.973851 95.971937 
L 305.689534 93.011319 
L 311.405217 99.270631 
L 317.1209 97.005846 
L 322.836584 94.290334 
L 328.552267 94.070117 
L 334.26795 99.081206 
L 339.983633 102.526319 
L 345.699317 107.074055 
L 351.415 100.48473 
L 357.130683 102.945753 
L 362.846367 109.168408 
L 368.56205 104.513148 
L 374.277733 113.831545 
L 379.993416 107.478816 
L 385.7091 112.953157 
L 391.424783 111.531065 
L 397.140466 107.693839 
L 402.856149 105.929965 
L 408.571833 102.197168 
L 414.287516 105.049845 
L 420.003199 108.018311 
L 425.718882 96.838002 
L 431.434566 91.626999 
L 437.150249 92.754398 
L 442.865932 93.183274 
L 448.581615 98.962056 
L 454.297299 96.722362 
L 460.012982 96.171082 
L 465.728665 99.337168 
L 471.444348 99.809326 
L 477.160032 91.99444 
L 482.875715 91.863526 
L 488.591398 94.121751 
L 494.307081 92.43789 
L 500.022765 90.834364 
L 505.738448 94.975676 
L 511.454131 89.853314 
L 517.169814 89.264668 
L 522.885498 91.369992 
L 528.601181 91.556448 
L 534.316864 92.322193 
L 540.032547 107.837331 
L 545.748231 102.025474 
L 551.463914 103.873711 
L 557.179597 98.755044 
L 562.89528 108.23351 
L 568.610964 100.046058 
L 574.326647 105.073057 
L 580.04233 98.214617 
L 585.758013 96.0532 
L 591.473697 97.760257 
L 597.18938 103.668231 
L 602.905063 96.904963 
L 608.620746 97.656149 
L 614.33643 98.839286 
L 620.052113 93.5099 
L 625.767796 92.122106 
L 631.483479 93.097149 
" clip-path="url(#pd594db6094)" style="fill: none; stroke: #1f77b4; stroke-width: 1.5; stroke-linecap: round"/>
   </g>
   <g id="line2d_20">
    <path d="M 65.630837 312.619089 
L 71.346521 297.475118 
L 77.062204 285.644863 
L 82.777887 291.456549 
L 88.49357 286.25114 
L 94.209254 276.618347 
L 99.924937 266.633599 
L 105.64062 255.227278 
L 111.356303 256.993155 
L 117.071987 250.272849 
L 122.78767 243.723381 
L 128.503353 234.77243 
L 134.219036 231.029077 
L 139.93472 225.535119 
L 145.650403 224.70956 
L 151.366086 227.162097 
L 157.081769 214.767043 
L 162.797453 197.795827 
L 168.513136 198.941613 
L 174.228819 184.964532 
L 179.944502 179.548515 
L 185.660186 179.993053 
L 191.375869 160.176953 
L 197.091552 153.102645 
L 202.807235 149.404805 
L 208.522919 174.006803 
L 214.238602 157.994015 
L 219.954285 171.08282 
L 225.669968 148.003555 
L 231.385652 173.94934 
L 237.101335 148.947546 
L 242.817018 152.592943 
L 248.532701 160.36293 
L 254.248385 171.189716 
L 259.964068 158.682545 
L 265.679751 143.862011 
L 271.395434 146.786819 
L 277.111118 153.588982 
L 282.826801 169.074193 
L 288.542484 126.183835 
L 294.258167 157.674891 
L 299.973851 145.248543 
L 305.689534 161.194486 
L 311.405217 174.54157 
L 317.1209 159.944602 
L 322.836584 161.182544 
L 328.552267 172.68956 
L 334.26795 176.823566 
L 339.983633 177.877173 
L 345.699317 177.465544 
L 351.415 167.619499 
L 357.130683 170.606437 
L 362.846367 183.991819 
L 368.56205 178.406263 
L 374.277733 170.552295 
L 379.993416 155.029081 
L 385.7091 147.76455 
L 391.424783 147.067348 
L 397.140466 171.040566 
L 402.856149 162.249247 
L 408.571833 157.152137 
L 414.287516 163.284426 
L 420.003199 137.011297 
L 425.718882 171.543948 
L 431.434566 152.248579 
L 437.150249 174.59437 
L 442.865932 172.991155 
L 448.581615 184.66199 
L 454.297299 177.806389 
L 460.012982 163.111245 
L 465.728665 161.846855 
L 471.444348 175.456324 
L 477.160032 198.137062 
L 482.875715 182.345427 
L 488.591398 189.376876 
L 494.307081 202.437091 
L 500.022765 201.962661 
L 505.738448 195.248991 
L 511.454131 194.513561 
L 517.169814 200.898363 
L 522.885498 183.657084 
L 528.601181 194.736871 
L 534.316864 194.146852 
L 540.032547 175.05685 
L 545.748231 181.462853 
L 551.463914 183.409837 
L 557.179597 179.36565 
L 562.89528 163.460481 
L 568.610964 174.0942 
L 574.326647 172.76333 
L 580.04233 162.044782 
L 585.758013 180.842618 
L 591.473697 163.359808 
L 597.18938 170.574204 
L 602.905063 163.659589 
L 608.620746 164.097724 
L 614.33643 155.242556 
L 620.052113 158.362889 
L 625.767796 168.994164 
L 631.483479 158.297382 
" clip-path="url(#pd594db6094)" style="fill: none; stroke: #ff7f0e; stroke-width: 1.5; stroke-linecap: round"/>
   </g>
   <g id="line2d_21">
    <path d="M 65.630837 304.286563 
L 71.346521 298.554655 
L 77.062204 294.21835 
L 82.777887 286.55972 
L 88.49357 279.614719 
L 94.209254 265.615086 
L 99.924937 259.426648 
L 105.64062 256.285173 
L 111.356303 239.990753 
L 117.071987 236.181331 
L 122.78767 228.574258 
L 128.503353 221.931514 
L 134.219036 216.939805 
L 139.93472 203.38197 
L 145.650403 195.380881 
L 151.366086 198.060769 
L 157.081769 199.376539 
L 162.797453 171.918129 
L 168.513136 171.571158 
L 174.228819 183.329055 
L 179.944502 196.82812 
L 185.660186 175.919217 
L 191.375869 188.381304 
L 197.091552 176.340004 
L 202.807235 180.643617 
L 208.522919 181.58709 
L 214.238602 192.548551 
L 219.954285 211.133946 
L 225.669968 226.590614 
L 231.385652 238.859627 
L 237.101335 230.545129 
L 242.817018 224.191974 
L 248.532701 221.393194 
L 254.248385 236.01976 
L 259.964068 244.810799 
L 265.679751 224.670556 
L 271.395434 222.021104 
L 277.111118 216.1434 
L 282.826801 239.822849 
L 288.542484 245.76744 
L 294.258167 212.981125 
L 299.973851 219.526401 
L 305.689534 238.268498 
L 311.405217 281.191094 
L 317.1209 264.34293 
L 322.836584 286.800852 
L 328.552267 249.92923 
L 334.26795 262.162399 
L 339.983633 252.617603 
L 345.699317 275.319518 
L 351.415 253.293599 
L 357.130683 258.506626 
L 362.846367 228.726133 
L 368.56205 231.704905 
L 374.277733 231.338919 
L 379.993416 237.828963 
L 385.7091 224.261904 
L 391.424783 255.002601 
L 397.140466 243.344892 
L 402.856149 265.021571 
L 408.571833 245.910887 
L 414.287516 243.387487 
L 420.003199 254.962191 
L 425.718882 235.478524 
L 431.434566 269.012019 
L 437.150249 268.719383 
L 442.865932 279.890495 
L 448.581615 270.290633 
L 454.297299 264.564341 
L 460.012982 270.891562 
L 465.728665 252.253635 
L 471.444348 262.493361 
L 477.160032 254.385436 
L 482.875715 244.557259 
L 488.591398 265.334912 
L 494.307081 246.66631 
L 500.022765 241.35069 
L 505.738448 247.45888 
L 511.454131 233.15616 
L 517.169814 216.246595 
L 522.885498 241.786651 
L 528.601181 238.444298 
L 534.316864 253.727727 
L 540.032547 228.920973 
L 545.748231 253.731744 
L 551.463914 259.844064 
L 557.179597 269.497877 
L 562.89528 270.94646 
L 568.610964 282.660898 
L 574.326647 275.348886 
L 580.04233 265.516983 
L 585.758013 279.423496 
L 591.473697 260.355685 
L 597.18938 252.12107 
L 602.905063 260.530791 
L 608.620746 288.165727 
L 614.33643 269.100387 
L 620.052113 262.001793 
L 625.767796 279.41656 
L 631.483479 236.479558 
" clip-path="url(#pd594db6094)" style="fill: none; stroke: #2ca02c; stroke-width: 1.5; stroke-linecap: round"/>
   </g>
   <g id="patch_3">
    <path d="M 65.63 390.04 
L 65.63 57.0062 
" style="fill: none; stroke: #ffffff; stroke-width: 0.8; stroke-linejoin: miter; stroke-linecap: square"/>
   </g>
   <g id="patch_4">
    <path d="M 637.2 390.04 
L 637.2 57.0062 
" style="fill: none; stroke: #ffffff; stroke-width: 0.8; stroke-linejoin: miter; stroke-linecap: square"/>
   </g>
   <g id="patch_5">
    <path d="M 65.63 390.04 
L 637.2 390.04 
" style="fill: none; stroke: #ffffff; stroke-width: 0.8; stroke-linejoin: miter; stroke-linecap: square"/>
   </g>
   <g id="patch_6">
    <path d="M 65.63 57.0062 
L 637.2 57.0062 
" style="fill: none; stroke: #ffffff; stroke-width: 0.8; stroke-linejoin: miter; stroke-linecap: square"/>
   </g>
   <g id="legend_1">
    <g id="line2d_22">
     <path d="M 241.404334 41.274494 
L 249.734334 41.274494 
L 258.064334 41.274494 
" style="fill: none; stroke: #1f77b4; stroke-width: 1.5; stroke-linecap: round"/>
    </g>
    <g id="text_22">
     <!-- Logits (Baseline) -->
     <g style="fill: #262626" transform="translate(264.728334 44.189994) scale(0.0833 -0.0833)">
      <defs>
       <path id="DejaVuSans-4c" d="M 628 4666 
L 1259 4666 
L 1259 531 
L 3531 531 
L 3531 0 
L 628 0 
L 628 4666 
z
" transform="scale(0.015625)"/>
       <path id="DejaVuSans-6f" d="M 1959 3097 
Q 1497 3097 1228 2736 
Q 959 2375 959 1747 
Q 959 1119 1226 758 
Q 1494 397 1959 397 
Q 2419 397 2687 759 
Q 2956 1122 2956 1747 
Q 2956 2369 2687 2733 
Q 2419 3097 1959 3097 
z
M 1959 3584 
Q 2709 3584 3137 3096 
Q 3566 2609 3566 1747 
Q 3566 888 3137 398 
Q 2709 -91 1959 -91 
Q 1206 -91 779 398 
Q 353 888 353 1747 
Q 353 2609 779 3096 
Q 1206 3584 1959 3584 
z
" transform="scale(0.015625)"/>
       <path id="DejaVuSans-67" d="M 2906 1791 
Q 2906 2416 2648 2759 
Q 2391 3103 1925 3103 
Q 1463 3103 1205 2759 
Q 947 2416 947 1791 
Q 947 1169 1205 825 
Q 1463 481 1925 481 
Q 2391 481 2648 825 
Q 2906 1169 2906 1791 
z
M 3481 434 
Q 3481 -459 3084 -895 
Q 2688 -1331 1869 -1331 
Q 1566 -1331 1297 -1286 
Q 1028 -1241 775 -1147 
L 775 -588 
Q 1028 -725 1275 -790 
Q 1522 -856 1778 -856 
Q 2344 -856 2625 -561 
Q 2906 -266 2906 331 
L 2906 616 
Q 2728 306 2450 153 
Q 2172 0 1784 0 
Q 1141 0 747 490 
Q 353 981 353 1791 
Q 353 2603 747 3093 
Q 1141 3584 1784 3584 
Q 2172 3584 2450 3431 
Q 2728 3278 2906 2969 
L 2906 3500 
L 3481 3500 
L 3481 434 
z
" transform="scale(0.015625)"/>
       <path id="DejaVuSans-69" d="M 603 3500 
L 1178 3500 
L 1178 0 
L 603 0 
L 603 3500 
z
M 603 4863 
L 1178 4863 
L 1178 4134 
L 603 4134 
L 603 4863 
z
" transform="scale(0.015625)"/>
       <path id="DejaVuSans-20" transform="scale(0.015625)"/>
       <path id="DejaVuSans-28" d="M 1984 4856 
Q 1566 4138 1362 3434 
Q 1159 2731 1159 2009 
Q 1159 1288 1364 580 
Q 1569 -128 1984 -844 
L 1484 -844 
Q 1016 -109 783 600 
Q 550 1309 550 2009 
Q 550 2706 781 3412 
Q 1013 4119 1484 4856 
L 1984 4856 
z
" transform="scale(0.015625)"/>
       <path id="DejaVuSans-42" d="M 1259 2228 
L 1259 519 
L 2272 519 
Q 2781 519 3026 730 
Q 3272 941 3272 1375 
Q 3272 1813 3026 2020 
Q 2781 2228 2272 2228 
L 1259 2228 
z
M 1259 4147 
L 1259 2741 
L 2194 2741 
Q 2656 2741 2882 2914 
Q 3109 3088 3109 3444 
Q 3109 3797 2882 3972 
Q 2656 4147 2194 4147 
L 1259 4147 
z
M 628 4666 
L 2241 4666 
Q 2963 4666 3353 4366 
Q 3744 4066 3744 3513 
Q 3744 3084 3544 2831 
Q 3344 2578 2956 2516 
Q 3422 2416 3680 2098 
Q 3938 1781 3938 1306 
Q 3938 681 3513 340 
Q 3088 0 2303 0 
L 628 0 
L 628 4666 
z
" transform="scale(0.015625)"/>
       <path id="DejaVuSans-6c" d="M 603 4863 
L 1178 4863 
L 1178 0 
L 603 0 
L 603 4863 
z
" transform="scale(0.015625)"/>
       <path id="DejaVuSans-6e" d="M 3513 2113 
L 3513 0 
L 2938 0 
L 2938 2094 
Q 2938 2591 2744 2837 
Q 2550 3084 2163 3084 
Q 1697 3084 1428 2787 
Q 1159 2491 1159 1978 
L 1159 0 
L 581 0 
L 581 3500 
L 1159 3500 
L 1159 2956 
Q 1366 3272 1645 3428 
Q 1925 3584 2291 3584 
Q 2894 3584 3203 3211 
Q 3513 2838 3513 2113 
z
" transform="scale(0.015625)"/>
       <path id="DejaVuSans-29" d="M 513 4856 
L 1013 4856 
Q 1481 4119 1714 3412 
Q 1947 2706 1947 2009 
Q 1947 1309 1714 600 
Q 1481 -109 1013 -844 
L 513 -844 
Q 928 -128 1133 580 
Q 1338 1288 1338 2009 
Q 1338 2731 1133 3434 
Q 928 4138 513 4856 
z
" transform="scale(0.015625)"/>
      </defs>
      <use xlink:href="#DejaVuSans-4c"/>
      <use xlink:href="#DejaVuSans-6f" transform="translate(53.962891 0)"/>
      <use xlink:href="#DejaVuSans-67" transform="translate(115.144531 0)"/>
      <use xlink:href="#DejaVuSans-69" transform="translate(178.621094 0)"/>
      <use xlink:href="#DejaVuSans-74" transform="translate(206.404297 0)"/>
      <use xlink:href="#DejaVuSans-73" transform="translate(245.613281 0)"/>
      <use xlink:href="#DejaVuSans-20" transform="translate(297.712891 0)"/>
      <use xlink:href="#DejaVuSans-28" transform="translate(329.5 0)"/>
      <use xlink:href="#DejaVuSans-42" transform="translate(368.513672 0)"/>
      <use xlink:href="#DejaVuSans-61" transform="translate(437.117188 0)"/>
      <use xlink:href="#DejaVuSans-73" transform="translate(498.396484 0)"/>
      <use xlink:href="#DejaVuSans-65" transform="translate(550.496094 0)"/>
      <use xlink:href="#DejaVuSans-6c" transform="translate(612.019531 0)"/>
      <use xlink:href="#DejaVuSans-69" transform="translate(639.802734 0)"/>
      <use xlink:href="#DejaVuSans-6e" transform="translate(667.585938 0)"/>
      <use xlink:href="#DejaVuSans-65" transform="translate(730.964844 0)"/>
      <use xlink:href="#DejaVuSans-29" transform="translate(792.488281 0)"/>
     </g>
    </g>
    <g id="line2d_23">
     <path d="M 350.653586 41.274494 
L 358.983586 41.274494 
L 367.313586 41.274494 
" style="fill: none; stroke: #ff7f0e; stroke-width: 1.5; stroke-linecap: round"/>
    </g>
    <g id="text_23">
     <!-- GNN -->
     <g style="fill: #262626" transform="translate(373.977586 44.189994) scale(0.0833 -0.0833)">
      <defs>
       <path id="DejaVuSans-47" d="M 3809 666 
L 3809 1919 
L 2778 1919 
L 2778 2438 
L 4434 2438 
L 4434 434 
Q 4069 175 3628 42 
Q 3188 -91 2688 -91 
Q 1594 -91 976 548 
Q 359 1188 359 2328 
Q 359 3472 976 4111 
Q 1594 4750 2688 4750 
Q 3144 4750 3555 4637 
Q 3966 4525 4313 4306 
L 4313 3634 
Q 3963 3931 3569 4081 
Q 3175 4231 2741 4231 
Q 1884 4231 1454 3753 
Q 1025 3275 1025 2328 
Q 1025 1384 1454 906 
Q 1884 428 2741 428 
Q 3075 428 3337 486 
Q 3600 544 3809 666 
z
" transform="scale(0.015625)"/>
       <path id="DejaVuSans-4e" d="M 628 4666 
L 1478 4666 
L 3547 763 
L 3547 4666 
L 4159 4666 
L 4159 0 
L 3309 0 
L 1241 3903 
L 1241 0 
L 628 0 
L 628 4666 
z
" transform="scale(0.015625)"/>
      </defs>
      <use xlink:href="#DejaVuSans-47"/>
      <use xlink:href="#DejaVuSans-4e" transform="translate(77.490234 0)"/>
      <use xlink:href="#DejaVuSans-4e" transform="translate(152.294922 0)"/>
     </g>
    </g>
    <g id="line2d_24">
     <path d="M 409.555797 41.274494 
L 417.885797 41.274494 
L 426.215797 41.274494 
" style="fill: none; stroke: #2ca02c; stroke-width: 1.5; stroke-linecap: round"/>
    </g>
    <g id="text_24">
     <!-- GNN_K -->
     <g style="fill: #262626" transform="translate(432.879797 44.189994) scale(0.0833 -0.0833)">
      <defs>
       <path id="DejaVuSans-5f" d="M 3263 -1063 
L 3263 -1509 
L -63 -1509 
L -63 -1063 
L 3263 -1063 
z
" transform="scale(0.015625)"/>
       <path id="DejaVuSans-4b" d="M 628 4666 
L 1259 4666 
L 1259 2694 
L 3353 4666 
L 4166 4666 
L 1850 2491 
L 4331 0 
L 3500 0 
L 1259 2247 
L 1259 0 
L 628 0 
L 628 4666 
z
" transform="scale(0.015625)"/>
      </defs>
      <use xlink:href="#DejaVuSans-47"/>
      <use xlink:href="#DejaVuSans-4e" transform="translate(77.490234 0)"/>
      <use xlink:href="#DejaVuSans-4e" transform="translate(152.294922 0)"/>
      <use xlink:href="#DejaVuSans-5f" transform="translate(227.099609 0)"/>
      <use xlink:href="#DejaVuSans-4b" transform="translate(277.099609 0)"/>
     </g>
    </g>
   </g>
  </g>
  <g id="text_25">
   <!-- Rewards: Pendulum-v1 (Discretized) (Noise) -->
   <g style="fill: #262626" transform="translate(173.982188 17.758125) scale(0.12 -0.12)">
    <defs>
     <path id="DejaVuSans-Bold-52" d="M 2297 2597 
Q 2675 2597 2839 2737 
Q 3003 2878 3003 3200 
Q 3003 3519 2839 3656 
Q 2675 3794 2297 3794 
L 1791 3794 
L 1791 2597 
L 2297 2597 
z
M 1791 1766 
L 1791 0 
L 588 0 
L 588 4666 
L 2425 4666 
Q 3347 4666 3776 4356 
Q 4206 4047 4206 3378 
Q 4206 2916 3982 2619 
Q 3759 2322 3309 2181 
Q 3556 2125 3751 1926 
Q 3947 1728 4147 1325 
L 4800 0 
L 3519 0 
L 2950 1159 
Q 2778 1509 2601 1637 
Q 2425 1766 2131 1766 
L 1791 1766 
z
" transform="scale(0.015625)"/>
     <path id="DejaVuSans-Bold-65" d="M 4031 1759 
L 4031 1441 
L 1416 1441 
Q 1456 1047 1700 850 
Q 1944 653 2381 653 
Q 2734 653 3104 758 
Q 3475 863 3866 1075 
L 3866 213 
Q 3469 63 3072 -14 
Q 2675 -91 2278 -91 
Q 1328 -91 801 392 
Q 275 875 275 1747 
Q 275 2603 792 3093 
Q 1309 3584 2216 3584 
Q 3041 3584 3536 3087 
Q 4031 2591 4031 1759 
z
M 2881 2131 
Q 2881 2450 2695 2645 
Q 2509 2841 2209 2841 
Q 1884 2841 1681 2658 
Q 1478 2475 1428 2131 
L 2881 2131 
z
" transform="scale(0.015625)"/>
     <path id="DejaVuSans-Bold-77" d="M 225 3500 
L 1313 3500 
L 1900 1088 
L 2491 3500 
L 3425 3500 
L 4013 1113 
L 4603 3500 
L 5691 3500 
L 4769 0 
L 3547 0 
L 2956 2406 
L 2369 0 
L 1147 0 
L 225 3500 
z
" transform="scale(0.015625)"/>
     <path id="DejaVuSans-Bold-61" d="M 2106 1575 
Q 1756 1575 1579 1456 
Q 1403 1338 1403 1106 
Q 1403 894 1545 773 
Q 1688 653 1941 653 
Q 2256 653 2472 879 
Q 2688 1106 2688 1447 
L 2688 1575 
L 2106 1575 
z
M 3816 1997 
L 3816 0 
L 2688 0 
L 2688 519 
Q 2463 200 2181 54 
Q 1900 -91 1497 -91 
Q 953 -91 614 226 
Q 275 544 275 1050 
Q 275 1666 698 1953 
Q 1122 2241 2028 2241 
L 2688 2241 
L 2688 2328 
Q 2688 2594 2478 2717 
Q 2269 2841 1825 2841 
Q 1466 2841 1156 2769 
Q 847 2697 581 2553 
L 581 3406 
Q 941 3494 1303 3539 
Q 1666 3584 2028 3584 
Q 2975 3584 3395 3211 
Q 3816 2838 3816 1997 
z
" transform="scale(0.015625)"/>
     <path id="DejaVuSans-Bold-72" d="M 3138 2547 
Q 2991 2616 2845 2648 
Q 2700 2681 2553 2681 
Q 2122 2681 1889 2404 
Q 1656 2128 1656 1613 
L 1656 0 
L 538 0 
L 538 3500 
L 1656 3500 
L 1656 2925 
Q 1872 3269 2151 3426 
Q 2431 3584 2822 3584 
Q 2878 3584 2943 3579 
Q 3009 3575 3134 3559 
L 3138 2547 
z
" transform="scale(0.015625)"/>
     <path id="DejaVuSans-Bold-64" d="M 2919 2988 
L 2919 4863 
L 4044 4863 
L 4044 0 
L 2919 0 
L 2919 506 
Q 2688 197 2409 53 
Q 2131 -91 1766 -91 
Q 1119 -91 703 423 
Q 288 938 288 1747 
Q 288 2556 703 3070 
Q 1119 3584 1766 3584 
Q 2128 3584 2408 3439 
Q 2688 3294 2919 2988 
z
M 2181 722 
Q 2541 722 2730 984 
Q 2919 1247 2919 1747 
Q 2919 2247 2730 2509 
Q 2541 2772 2181 2772 
Q 1825 2772 1636 2509 
Q 1447 2247 1447 1747 
Q 1447 1247 1636 984 
Q 1825 722 2181 722 
z
" transform="scale(0.015625)"/>
     <path id="DejaVuSans-Bold-73" d="M 3272 3391 
L 3272 2541 
Q 2913 2691 2578 2766 
Q 2244 2841 1947 2841 
Q 1628 2841 1473 2761 
Q 1319 2681 1319 2516 
Q 1319 2381 1436 2309 
Q 1553 2238 1856 2203 
L 2053 2175 
Q 2913 2066 3209 1816 
Q 3506 1566 3506 1031 
Q 3506 472 3093 190 
Q 2681 -91 1863 -91 
Q 1516 -91 1145 -36 
Q 775 19 384 128 
L 384 978 
Q 719 816 1070 734 
Q 1422 653 1784 653 
Q 2113 653 2278 743 
Q 2444 834 2444 1013 
Q 2444 1163 2330 1236 
Q 2216 1309 1875 1350 
L 1678 1375 
Q 931 1469 631 1722 
Q 331 1975 331 2491 
Q 331 3047 712 3315 
Q 1094 3584 1881 3584 
Q 2191 3584 2531 3537 
Q 2872 3491 3272 3391 
z
" transform="scale(0.015625)"/>
     <path id="DejaVuSans-Bold-3a" d="M 716 3500 
L 1844 3500 
L 1844 2291 
L 716 2291 
L 716 3500 
z
M 716 1209 
L 1844 1209 
L 1844 0 
L 716 0 
L 716 1209 
z
" transform="scale(0.015625)"/>
     <path id="DejaVuSans-Bold-20" transform="scale(0.015625)"/>
     <path id="DejaVuSans-Bold-50" d="M 588 4666 
L 2584 4666 
Q 3475 4666 3951 4270 
Q 4428 3875 4428 3144 
Q 4428 2409 3951 2014 
Q 3475 1619 2584 1619 
L 1791 1619 
L 1791 0 
L 588 0 
L 588 4666 
z
M 1791 3794 
L 1791 2491 
L 2456 2491 
Q 2806 2491 2997 2661 
Q 3188 2831 3188 3144 
Q 3188 3456 2997 3625 
Q 2806 3794 2456 3794 
L 1791 3794 
z
" transform="scale(0.015625)"/>
     <path id="DejaVuSans-Bold-6e" d="M 4056 2131 
L 4056 0 
L 2931 0 
L 2931 347 
L 2931 1631 
Q 2931 2084 2911 2256 
Q 2891 2428 2841 2509 
Q 2775 2619 2662 2680 
Q 2550 2741 2406 2741 
Q 2056 2741 1856 2470 
Q 1656 2200 1656 1722 
L 1656 0 
L 538 0 
L 538 3500 
L 1656 3500 
L 1656 2988 
Q 1909 3294 2193 3439 
Q 2478 3584 2822 3584 
Q 3428 3584 3742 3212 
Q 4056 2841 4056 2131 
z
" transform="scale(0.015625)"/>
     <path id="DejaVuSans-Bold-75" d="M 500 1363 
L 500 3500 
L 1625 3500 
L 1625 3150 
Q 1625 2866 1622 2436 
Q 1619 2006 1619 1863 
Q 1619 1441 1641 1255 
Q 1663 1069 1716 984 
Q 1784 875 1895 815 
Q 2006 756 2150 756 
Q 2500 756 2700 1025 
Q 2900 1294 2900 1772 
L 2900 3500 
L 4019 3500 
L 4019 0 
L 2900 0 
L 2900 506 
Q 2647 200 2364 54 
Q 2081 -91 1741 -91 
Q 1134 -91 817 281 
Q 500 653 500 1363 
z
" transform="scale(0.015625)"/>
     <path id="DejaVuSans-Bold-6c" d="M 538 4863 
L 1656 4863 
L 1656 0 
L 538 0 
L 538 4863 
z
" transform="scale(0.015625)"/>
     <path id="DejaVuSans-Bold-6d" d="M 3781 2919 
Q 3994 3244 4286 3414 
Q 4578 3584 4928 3584 
Q 5531 3584 5847 3212 
Q 6163 2841 6163 2131 
L 6163 0 
L 5038 0 
L 5038 1825 
Q 5041 1866 5042 1909 
Q 5044 1953 5044 2034 
Q 5044 2406 4934 2573 
Q 4825 2741 4581 2741 
Q 4263 2741 4089 2478 
Q 3916 2216 3909 1719 
L 3909 0 
L 2784 0 
L 2784 1825 
Q 2784 2406 2684 2573 
Q 2584 2741 2328 2741 
Q 2006 2741 1831 2477 
Q 1656 2213 1656 1722 
L 1656 0 
L 531 0 
L 531 3500 
L 1656 3500 
L 1656 2988 
Q 1863 3284 2130 3434 
Q 2397 3584 2719 3584 
Q 3081 3584 3359 3409 
Q 3638 3234 3781 2919 
z
" transform="scale(0.015625)"/>
     <path id="DejaVuSans-Bold-2d" d="M 347 2297 
L 2309 2297 
L 2309 1388 
L 347 1388 
L 347 2297 
z
" transform="scale(0.015625)"/>
     <path id="DejaVuSans-Bold-76" d="M 97 3500 
L 1216 3500 
L 2088 1081 
L 2956 3500 
L 4078 3500 
L 2700 0 
L 1472 0 
L 97 3500 
z
" transform="scale(0.015625)"/>
     <path id="DejaVuSans-Bold-31" d="M 750 831 
L 1813 831 
L 1813 3847 
L 722 3622 
L 722 4441 
L 1806 4666 
L 2950 4666 
L 2950 831 
L 4013 831 
L 4013 0 
L 750 0 
L 750 831 
z
" transform="scale(0.015625)"/>
     <path id="DejaVuSans-Bold-28" d="M 2413 -844 
L 1484 -844 
Q 1006 -72 778 623 
Q 550 1319 550 2003 
Q 550 2688 779 3389 
Q 1009 4091 1484 4856 
L 2413 4856 
Q 2013 4116 1813 3408 
Q 1613 2700 1613 2009 
Q 1613 1319 1811 609 
Q 2009 -100 2413 -844 
z
" transform="scale(0.015625)"/>
     <path id="DejaVuSans-Bold-44" d="M 1791 3756 
L 1791 909 
L 2222 909 
Q 2959 909 3348 1275 
Q 3738 1641 3738 2338 
Q 3738 3031 3350 3393 
Q 2963 3756 2222 3756 
L 1791 3756 
z
M 588 4666 
L 1856 4666 
Q 2919 4666 3439 4514 
Q 3959 4363 4331 4000 
Q 4659 3684 4818 3271 
Q 4978 2859 4978 2338 
Q 4978 1809 4818 1395 
Q 4659 981 4331 666 
Q 3956 303 3431 151 
Q 2906 0 1856 0 
L 588 0 
L 588 4666 
z
" transform="scale(0.015625)"/>
     <path id="DejaVuSans-Bold-69" d="M 538 3500 
L 1656 3500 
L 1656 0 
L 538 0 
L 538 3500 
z
M 538 4863 
L 1656 4863 
L 1656 3950 
L 538 3950 
L 538 4863 
z
" transform="scale(0.015625)"/>
     <path id="DejaVuSans-Bold-63" d="M 3366 3391 
L 3366 2478 
Q 3138 2634 2908 2709 
Q 2678 2784 2431 2784 
Q 1963 2784 1702 2511 
Q 1441 2238 1441 1747 
Q 1441 1256 1702 982 
Q 1963 709 2431 709 
Q 2694 709 2930 787 
Q 3166 866 3366 1019 
L 3366 103 
Q 3103 6 2833 -42 
Q 2563 -91 2291 -91 
Q 1344 -91 809 395 
Q 275 881 275 1747 
Q 275 2613 809 3098 
Q 1344 3584 2291 3584 
Q 2566 3584 2833 3536 
Q 3100 3488 3366 3391 
z
" transform="scale(0.015625)"/>
     <path id="DejaVuSans-Bold-74" d="M 1759 4494 
L 1759 3500 
L 2913 3500 
L 2913 2700 
L 1759 2700 
L 1759 1216 
Q 1759 972 1856 886 
Q 1953 800 2241 800 
L 2816 800 
L 2816 0 
L 1856 0 
Q 1194 0 917 276 
Q 641 553 641 1216 
L 641 2700 
L 84 2700 
L 84 3500 
L 641 3500 
L 641 4494 
L 1759 4494 
z
" transform="scale(0.015625)"/>
     <path id="DejaVuSans-Bold-7a" d="M 366 3500 
L 3419 3500 
L 3419 2719 
L 1575 800 
L 3419 800 
L 3419 0 
L 288 0 
L 288 781 
L 2131 2700 
L 366 2700 
L 366 3500 
z
" transform="scale(0.015625)"/>
     <path id="DejaVuSans-Bold-29" d="M 513 -844 
Q 913 -100 1113 609 
Q 1313 1319 1313 2009 
Q 1313 2700 1113 3408 
Q 913 4116 513 4856 
L 1441 4856 
Q 1916 4091 2145 3389 
Q 2375 2688 2375 2003 
Q 2375 1319 2147 623 
Q 1919 -72 1441 -844 
L 513 -844 
z
" transform="scale(0.015625)"/>
     <path id="DejaVuSans-Bold-4e" d="M 588 4666 
L 1931 4666 
L 3628 1466 
L 3628 4666 
L 4769 4666 
L 4769 0 
L 3425 0 
L 1728 3200 
L 1728 0 
L 588 0 
L 588 4666 
z
" transform="scale(0.015625)"/>
     <path id="DejaVuSans-Bold-6f" d="M 2203 2784 
Q 1831 2784 1636 2517 
Q 1441 2250 1441 1747 
Q 1441 1244 1636 976 
Q 1831 709 2203 709 
Q 2569 709 2762 976 
Q 2956 1244 2956 1747 
Q 2956 2250 2762 2517 
Q 2569 2784 2203 2784 
z
M 2203 3584 
Q 3106 3584 3614 3096 
Q 4122 2609 4122 1747 
Q 4122 884 3614 396 
Q 3106 -91 2203 -91 
Q 1297 -91 786 396 
Q 275 884 275 1747 
Q 275 2609 786 3096 
Q 1297 3584 2203 3584 
z
" transform="scale(0.015625)"/>
    </defs>
    <use xlink:href="#DejaVuSans-Bold-52"/>
    <use xlink:href="#DejaVuSans-Bold-65" transform="translate(77.001953 0)"/>
    <use xlink:href="#DejaVuSans-Bold-77" transform="translate(144.824219 0)"/>
    <use xlink:href="#DejaVuSans-Bold-61" transform="translate(237.207031 0)"/>
    <use xlink:href="#DejaVuSans-Bold-72" transform="translate(304.6875 0)"/>
    <use xlink:href="#DejaVuSans-Bold-64" transform="translate(354.003906 0)"/>
    <use xlink:href="#DejaVuSans-Bold-73" transform="translate(425.585938 0)"/>
    <use xlink:href="#DejaVuSans-Bold-3a" transform="translate(485.107422 0)"/>
    <use xlink:href="#DejaVuSans-Bold-20" transform="translate(525.097656 0)"/>
    <use xlink:href="#DejaVuSans-Bold-50" transform="translate(559.912109 0)"/>
    <use xlink:href="#DejaVuSans-Bold-65" transform="translate(633.203125 0)"/>
    <use xlink:href="#DejaVuSans-Bold-6e" transform="translate(701.025391 0)"/>
    <use xlink:href="#DejaVuSans-Bold-64" transform="translate(772.216797 0)"/>
    <use xlink:href="#DejaVuSans-Bold-75" transform="translate(843.798828 0)"/>
    <use xlink:href="#DejaVuSans-Bold-6c" transform="translate(914.990234 0)"/>
    <use xlink:href="#DejaVuSans-Bold-75" transform="translate(949.267578 0)"/>
    <use xlink:href="#DejaVuSans-Bold-6d" transform="translate(1020.458984 0)"/>
    <use xlink:href="#DejaVuSans-Bold-2d" transform="translate(1124.658203 0)"/>
    <use xlink:href="#DejaVuSans-Bold-76" transform="translate(1166.162109 0)"/>
    <use xlink:href="#DejaVuSans-Bold-31" transform="translate(1231.347656 0)"/>
    <use xlink:href="#DejaVuSans-Bold-20" transform="translate(1300.927734 0)"/>
    <use xlink:href="#DejaVuSans-Bold-28" transform="translate(1335.742188 0)"/>
    <use xlink:href="#DejaVuSans-Bold-44" transform="translate(1381.445312 0)"/>
    <use xlink:href="#DejaVuSans-Bold-69" transform="translate(1464.453125 0)"/>
    <use xlink:href="#DejaVuSans-Bold-73" transform="translate(1498.730469 0)"/>
    <use xlink:href="#DejaVuSans-Bold-63" transform="translate(1558.251953 0)"/>
    <use xlink:href="#DejaVuSans-Bold-72" transform="translate(1617.529297 0)"/>
    <use xlink:href="#DejaVuSans-Bold-65" transform="translate(1666.845703 0)"/>
    <use xlink:href="#DejaVuSans-Bold-74" transform="translate(1734.667969 0)"/>
    <use xlink:href="#DejaVuSans-Bold-69" transform="translate(1782.470703 0)"/>
    <use xlink:href="#DejaVuSans-Bold-7a" transform="translate(1816.748047 0)"/>
    <use xlink:href="#DejaVuSans-Bold-65" transform="translate(1874.951172 0)"/>
    <use xlink:href="#DejaVuSans-Bold-64" transform="translate(1942.773438 0)"/>
    <use xlink:href="#DejaVuSans-Bold-29" transform="translate(2014.355469 0)"/>
    <use xlink:href="#DejaVuSans-Bold-20" transform="translate(2060.058594 0)"/>
    <use xlink:href="#DejaVuSans-Bold-28" transform="translate(2094.873047 0)"/>
    <use xlink:href="#DejaVuSans-Bold-4e" transform="translate(2140.576172 0)"/>
    <use xlink:href="#DejaVuSans-Bold-6f" transform="translate(2224.267578 0)"/>
    <use xlink:href="#DejaVuSans-Bold-69" transform="translate(2292.96875 0)"/>
    <use xlink:href="#DejaVuSans-Bold-73" transform="translate(2327.246094 0)"/>
    <use xlink:href="#DejaVuSans-Bold-65" transform="translate(2386.767578 0)"/>
    <use xlink:href="#DejaVuSans-Bold-29" transform="translate(2454.589844 0)"/>
   </g>
  </g>
 </g>
 <defs>
  <clipPath id="pd594db6094">
   <rect x="65.63" y="57.0062" width="571.57" height="333.0338"/>
  </clipPath>
 </defs>
</svg>
