<?xml version="1.0" encoding="utf-8" standalone="no"?>
<!DOCTYPE svg PUBLIC "-//W3C//DTD SVG 1.1//EN"
  "http://www.w3.org/Graphics/SVG/1.1/DTD/svg11.dtd">
<svg xmlns:xlink="http://www.w3.org/1999/xlink" width="648pt" height="432pt" viewBox="0 0 648 432" xmlns="http://www.w3.org/2000/svg" version="1.1">
 <metadata>
  <rdf:RDF xmlns:dc="http://purl.org/dc/elements/1.1/" xmlns:cc="http://creativecommons.org/ns#" xmlns:rdf="http://www.w3.org/1999/02/22-rdf-syntax-ns#">
   <cc:Work>
    <dc:type rdf:resource="http://purl.org/dc/dcmitype/StillImage"/>
    <dc:date>2025-07-17T10:28:41.587041</dc:date>
    <dc:format>image/svg+xml</dc:format>
    <dc:creator>
     <cc:Agent>
      <dc:title>Matplotlib v3.10.0, https://matplotlib.org/</dc:title>
     </cc:Agent>
    </dc:creator>
   </cc:Work>
  </rdf:RDF>
 </metadata>
 <defs>
  <style type="text/css">*{stroke-linejoin: round; stroke-linecap: butt}</style>
 </defs>
 <g id="figure_1">
  <g id="patch_1">
   <path d="M 0 432 
L 648 432 
L 648 0 
L 0 0 
z
" style="fill: #ffffff"/>
  </g>
  <g id="axes_1">
   <g id="patch_2">
    <path d="M 65.63 390.04 
L 637.2 390.04 
L 637.2 57.0062 
L 65.63 57.0062 
z
" style="fill: #eaeaf2"/>
   </g>
   <g id="matplotlib.axis_1">
    <g id="xtick_1">
     <g id="line2d_1">
      <path d="M 65.630837 390.04 
L 65.630837 57.0062 
" clip-path="url(#pad0d555904)" style="fill: none; stroke: #ffffff; stroke-width: 0.8; stroke-linecap: round"/>
     </g>
     <g id="text_1">
      <!-- 0.00 -->
      <g style="fill: #262626" transform="translate(54.498025 404.638438) scale(0.1 -0.1)">
       <defs>
        <path id="DejaVuSans-30" d="M 2034 4250 
Q 1547 4250 1301 3770 
Q 1056 3291 1056 2328 
Q 1056 1369 1301 889 
Q 1547 409 2034 409 
Q 2525 409 2770 889 
Q 3016 1369 3016 2328 
Q 3016 3291 2770 3770 
Q 2525 4250 2034 4250 
z
M 2034 4750 
Q 2819 4750 3233 4129 
Q 3647 3509 3647 2328 
Q 3647 1150 3233 529 
Q 2819 -91 2034 -91 
Q 1250 -91 836 529 
Q 422 1150 422 2328 
Q 422 3509 836 4129 
Q 1250 4750 2034 4750 
z
" transform="scale(0.015625)"/>
        <path id="DejaVuSans-2e" d="M 684 794 
L 1344 794 
L 1344 0 
L 684 0 
L 684 794 
z
" transform="scale(0.015625)"/>
       </defs>
       <use xlink:href="#DejaVuSans-30"/>
       <use xlink:href="#DejaVuSans-2e" transform="translate(63.623047 0)"/>
       <use xlink:href="#DejaVuSans-30" transform="translate(95.410156 0)"/>
       <use xlink:href="#DejaVuSans-30" transform="translate(159.033203 0)"/>
      </g>
     </g>
    </g>
    <g id="xtick_2">
     <g id="line2d_2">
      <path d="M 135.402361 390.04 
L 135.402361 57.0062 
" clip-path="url(#pad0d555904)" style="fill: none; stroke: #ffffff; stroke-width: 0.8; stroke-linecap: round"/>
     </g>
     <g id="text_2">
      <!-- 0.25 -->
      <g style="fill: #262626" transform="translate(124.269549 404.638438) scale(0.1 -0.1)">
       <defs>
        <path id="DejaVuSans-32" d="M 1228 531 
L 3431 531 
L 3431 0 
L 469 0 
L 469 531 
Q 828 903 1448 1529 
Q 2069 2156 2228 2338 
Q 2531 2678 2651 2914 
Q 2772 3150 2772 3378 
Q 2772 3750 2511 3984 
Q 2250 4219 1831 4219 
Q 1534 4219 1204 4116 
Q 875 4013 500 3803 
L 500 4441 
Q 881 4594 1212 4672 
Q 1544 4750 1819 4750 
Q 2544 4750 2975 4387 
Q 3406 4025 3406 3419 
Q 3406 3131 3298 2873 
Q 3191 2616 2906 2266 
Q 2828 2175 2409 1742 
Q 1991 1309 1228 531 
z
" transform="scale(0.015625)"/>
        <path id="DejaVuSans-35" d="M 691 4666 
L 3169 4666 
L 3169 4134 
L 1269 4134 
L 1269 2991 
Q 1406 3038 1543 3061 
Q 1681 3084 1819 3084 
Q 2600 3084 3056 2656 
Q 3513 2228 3513 1497 
Q 3513 744 3044 326 
Q 2575 -91 1722 -91 
Q 1428 -91 1123 -41 
Q 819 9 494 109 
L 494 744 
Q 775 591 1075 516 
Q 1375 441 1709 441 
Q 2250 441 2565 725 
Q 2881 1009 2881 1497 
Q 2881 1984 2565 2268 
Q 2250 2553 1709 2553 
Q 1456 2553 1204 2497 
Q 953 2441 691 2322 
L 691 4666 
z
" transform="scale(0.015625)"/>
       </defs>
       <use xlink:href="#DejaVuSans-30"/>
       <use xlink:href="#DejaVuSans-2e" transform="translate(63.623047 0)"/>
       <use xlink:href="#DejaVuSans-32" transform="translate(95.410156 0)"/>
       <use xlink:href="#DejaVuSans-35" transform="translate(159.033203 0)"/>
      </g>
     </g>
    </g>
    <g id="xtick_3">
     <g id="line2d_3">
      <path d="M 205.173885 390.04 
L 205.173885 57.0062 
" clip-path="url(#pad0d555904)" style="fill: none; stroke: #ffffff; stroke-width: 0.8; stroke-linecap: round"/>
     </g>
     <g id="text_3">
      <!-- 0.50 -->
      <g style="fill: #262626" transform="translate(194.041073 404.638438) scale(0.1 -0.1)">
       <use xlink:href="#DejaVuSans-30"/>
       <use xlink:href="#DejaVuSans-2e" transform="translate(63.623047 0)"/>
       <use xlink:href="#DejaVuSans-35" transform="translate(95.410156 0)"/>
       <use xlink:href="#DejaVuSans-30" transform="translate(159.033203 0)"/>
      </g>
     </g>
    </g>
    <g id="xtick_4">
     <g id="line2d_4">
      <path d="M 274.94541 390.04 
L 274.94541 57.0062 
" clip-path="url(#pad0d555904)" style="fill: none; stroke: #ffffff; stroke-width: 0.8; stroke-linecap: round"/>
     </g>
     <g id="text_4">
      <!-- 0.75 -->
      <g style="fill: #262626" transform="translate(263.812597 404.638438) scale(0.1 -0.1)">
       <defs>
        <path id="DejaVuSans-37" d="M 525 4666 
L 3525 4666 
L 3525 4397 
L 1831 0 
L 1172 0 
L 2766 4134 
L 525 4134 
L 525 4666 
z
" transform="scale(0.015625)"/>
       </defs>
       <use xlink:href="#DejaVuSans-30"/>
       <use xlink:href="#DejaVuSans-2e" transform="translate(63.623047 0)"/>
       <use xlink:href="#DejaVuSans-37" transform="translate(95.410156 0)"/>
       <use xlink:href="#DejaVuSans-35" transform="translate(159.033203 0)"/>
      </g>
     </g>
    </g>
    <g id="xtick_5">
     <g id="line2d_5">
      <path d="M 344.716934 390.04 
L 344.716934 57.0062 
" clip-path="url(#pad0d555904)" style="fill: none; stroke: #ffffff; stroke-width: 0.8; stroke-linecap: round"/>
     </g>
     <g id="text_5">
      <!-- 1.00 -->
      <g style="fill: #262626" transform="translate(333.584121 404.638438) scale(0.1 -0.1)">
       <defs>
        <path id="DejaVuSans-31" d="M 794 531 
L 1825 531 
L 1825 4091 
L 703 3866 
L 703 4441 
L 1819 4666 
L 2450 4666 
L 2450 531 
L 3481 531 
L 3481 0 
L 794 0 
L 794 531 
z
" transform="scale(0.015625)"/>
       </defs>
       <use xlink:href="#DejaVuSans-31"/>
       <use xlink:href="#DejaVuSans-2e" transform="translate(63.623047 0)"/>
       <use xlink:href="#DejaVuSans-30" transform="translate(95.410156 0)"/>
       <use xlink:href="#DejaVuSans-30" transform="translate(159.033203 0)"/>
      </g>
     </g>
    </g>
    <g id="xtick_6">
     <g id="line2d_6">
      <path d="M 414.488458 390.04 
L 414.488458 57.0062 
" clip-path="url(#pad0d555904)" style="fill: none; stroke: #ffffff; stroke-width: 0.8; stroke-linecap: round"/>
     </g>
     <g id="text_6">
      <!-- 1.25 -->
      <g style="fill: #262626" transform="translate(403.355645 404.638438) scale(0.1 -0.1)">
       <use xlink:href="#DejaVuSans-31"/>
       <use xlink:href="#DejaVuSans-2e" transform="translate(63.623047 0)"/>
       <use xlink:href="#DejaVuSans-32" transform="translate(95.410156 0)"/>
       <use xlink:href="#DejaVuSans-35" transform="translate(159.033203 0)"/>
      </g>
     </g>
    </g>
    <g id="xtick_7">
     <g id="line2d_7">
      <path d="M 484.259982 390.04 
L 484.259982 57.0062 
" clip-path="url(#pad0d555904)" style="fill: none; stroke: #ffffff; stroke-width: 0.8; stroke-linecap: round"/>
     </g>
     <g id="text_7">
      <!-- 1.50 -->
      <g style="fill: #262626" transform="translate(473.127169 404.638438) scale(0.1 -0.1)">
       <use xlink:href="#DejaVuSans-31"/>
       <use xlink:href="#DejaVuSans-2e" transform="translate(63.623047 0)"/>
       <use xlink:href="#DejaVuSans-35" transform="translate(95.410156 0)"/>
       <use xlink:href="#DejaVuSans-30" transform="translate(159.033203 0)"/>
      </g>
     </g>
    </g>
    <g id="xtick_8">
     <g id="line2d_8">
      <path d="M 554.031506 390.04 
L 554.031506 57.0062 
" clip-path="url(#pad0d555904)" style="fill: none; stroke: #ffffff; stroke-width: 0.8; stroke-linecap: round"/>
     </g>
     <g id="text_8">
      <!-- 1.75 -->
      <g style="fill: #262626" transform="translate(542.898694 404.638438) scale(0.1 -0.1)">
       <use xlink:href="#DejaVuSans-31"/>
       <use xlink:href="#DejaVuSans-2e" transform="translate(63.623047 0)"/>
       <use xlink:href="#DejaVuSans-37" transform="translate(95.410156 0)"/>
       <use xlink:href="#DejaVuSans-35" transform="translate(159.033203 0)"/>
      </g>
     </g>
    </g>
    <g id="xtick_9">
     <g id="line2d_9">
      <path d="M 623.80303 390.04 
L 623.80303 57.0062 
" clip-path="url(#pad0d555904)" style="fill: none; stroke: #ffffff; stroke-width: 0.8; stroke-linecap: round"/>
     </g>
     <g id="text_9">
      <!-- 2.00 -->
      <g style="fill: #262626" transform="translate(612.670218 404.638438) scale(0.1 -0.1)">
       <use xlink:href="#DejaVuSans-32"/>
       <use xlink:href="#DejaVuSans-2e" transform="translate(63.623047 0)"/>
       <use xlink:href="#DejaVuSans-30" transform="translate(95.410156 0)"/>
       <use xlink:href="#DejaVuSans-30" transform="translate(159.033203 0)"/>
      </g>
     </g>
    </g>
    <g id="text_10">
     <!-- Steps -->
     <g style="fill: #262626" transform="translate(337.425156 418.316562) scale(0.1 -0.1)">
      <defs>
       <path id="DejaVuSans-53" d="M 3425 4513 
L 3425 3897 
Q 3066 4069 2747 4153 
Q 2428 4238 2131 4238 
Q 1616 4238 1336 4038 
Q 1056 3838 1056 3469 
Q 1056 3159 1242 3001 
Q 1428 2844 1947 2747 
L 2328 2669 
Q 3034 2534 3370 2195 
Q 3706 1856 3706 1288 
Q 3706 609 3251 259 
Q 2797 -91 1919 -91 
Q 1588 -91 1214 -16 
Q 841 59 441 206 
L 441 856 
Q 825 641 1194 531 
Q 1563 422 1919 422 
Q 2459 422 2753 634 
Q 3047 847 3047 1241 
Q 3047 1584 2836 1778 
Q 2625 1972 2144 2069 
L 1759 2144 
Q 1053 2284 737 2584 
Q 422 2884 422 3419 
Q 422 4038 858 4394 
Q 1294 4750 2059 4750 
Q 2388 4750 2728 4690 
Q 3069 4631 3425 4513 
z
" transform="scale(0.015625)"/>
       <path id="DejaVuSans-74" d="M 1172 4494 
L 1172 3500 
L 2356 3500 
L 2356 3053 
L 1172 3053 
L 1172 1153 
Q 1172 725 1289 603 
Q 1406 481 1766 481 
L 2356 481 
L 2356 0 
L 1766 0 
Q 1100 0 847 248 
Q 594 497 594 1153 
L 594 3053 
L 172 3053 
L 172 3500 
L 594 3500 
L 594 4494 
L 1172 4494 
z
" transform="scale(0.015625)"/>
       <path id="DejaVuSans-65" d="M 3597 1894 
L 3597 1613 
L 953 1613 
Q 991 1019 1311 708 
Q 1631 397 2203 397 
Q 2534 397 2845 478 
Q 3156 559 3463 722 
L 3463 178 
Q 3153 47 2828 -22 
Q 2503 -91 2169 -91 
Q 1331 -91 842 396 
Q 353 884 353 1716 
Q 353 2575 817 3079 
Q 1281 3584 2069 3584 
Q 2775 3584 3186 3129 
Q 3597 2675 3597 1894 
z
M 3022 2063 
Q 3016 2534 2758 2815 
Q 2500 3097 2075 3097 
Q 1594 3097 1305 2825 
Q 1016 2553 972 2059 
L 3022 2063 
z
" transform="scale(0.015625)"/>
       <path id="DejaVuSans-70" d="M 1159 525 
L 1159 -1331 
L 581 -1331 
L 581 3500 
L 1159 3500 
L 1159 2969 
Q 1341 3281 1617 3432 
Q 1894 3584 2278 3584 
Q 2916 3584 3314 3078 
Q 3713 2572 3713 1747 
Q 3713 922 3314 415 
Q 2916 -91 2278 -91 
Q 1894 -91 1617 61 
Q 1341 213 1159 525 
z
M 3116 1747 
Q 3116 2381 2855 2742 
Q 2594 3103 2138 3103 
Q 1681 3103 1420 2742 
Q 1159 2381 1159 1747 
Q 1159 1113 1420 752 
Q 1681 391 2138 391 
Q 2594 391 2855 752 
Q 3116 1113 3116 1747 
z
" transform="scale(0.015625)"/>
       <path id="DejaVuSans-73" d="M 2834 3397 
L 2834 2853 
Q 2591 2978 2328 3040 
Q 2066 3103 1784 3103 
Q 1356 3103 1142 2972 
Q 928 2841 928 2578 
Q 928 2378 1081 2264 
Q 1234 2150 1697 2047 
L 1894 2003 
Q 2506 1872 2764 1633 
Q 3022 1394 3022 966 
Q 3022 478 2636 193 
Q 2250 -91 1575 -91 
Q 1294 -91 989 -36 
Q 684 19 347 128 
L 347 722 
Q 666 556 975 473 
Q 1284 391 1588 391 
Q 1994 391 2212 530 
Q 2431 669 2431 922 
Q 2431 1156 2273 1281 
Q 2116 1406 1581 1522 
L 1381 1569 
Q 847 1681 609 1914 
Q 372 2147 372 2553 
Q 372 3047 722 3315 
Q 1072 3584 1716 3584 
Q 2034 3584 2315 3537 
Q 2597 3491 2834 3397 
z
" transform="scale(0.015625)"/>
      </defs>
      <use xlink:href="#DejaVuSans-53"/>
      <use xlink:href="#DejaVuSans-74" transform="translate(63.476562 0)"/>
      <use xlink:href="#DejaVuSans-65" transform="translate(102.685547 0)"/>
      <use xlink:href="#DejaVuSans-70" transform="translate(164.208984 0)"/>
      <use xlink:href="#DejaVuSans-73" transform="translate(227.685547 0)"/>
     </g>
    </g>
    <g id="text_11">
     <!-- 1e6 -->
     <g style="fill: #262626" transform="translate(618.321875 417.316562) scale(0.1 -0.1)">
      <defs>
       <path id="DejaVuSans-36" d="M 2113 2584 
Q 1688 2584 1439 2293 
Q 1191 2003 1191 1497 
Q 1191 994 1439 701 
Q 1688 409 2113 409 
Q 2538 409 2786 701 
Q 3034 994 3034 1497 
Q 3034 2003 2786 2293 
Q 2538 2584 2113 2584 
z
M 3366 4563 
L 3366 3988 
Q 3128 4100 2886 4159 
Q 2644 4219 2406 4219 
Q 1781 4219 1451 3797 
Q 1122 3375 1075 2522 
Q 1259 2794 1537 2939 
Q 1816 3084 2150 3084 
Q 2853 3084 3261 2657 
Q 3669 2231 3669 1497 
Q 3669 778 3244 343 
Q 2819 -91 2113 -91 
Q 1303 -91 875 529 
Q 447 1150 447 2328 
Q 447 3434 972 4092 
Q 1497 4750 2381 4750 
Q 2619 4750 2861 4703 
Q 3103 4656 3366 4563 
z
" transform="scale(0.015625)"/>
      </defs>
      <use xlink:href="#DejaVuSans-31"/>
      <use xlink:href="#DejaVuSans-65" transform="translate(63.623047 0)"/>
      <use xlink:href="#DejaVuSans-36" transform="translate(125.146484 0)"/>
     </g>
    </g>
   </g>
   <g id="matplotlib.axis_2">
    <g id="ytick_1">
     <g id="line2d_10">
      <path d="M 65.63 390.04 
L 637.2 390.04 
" clip-path="url(#pad0d555904)" style="fill: none; stroke: #ffffff; stroke-width: 0.8; stroke-linecap: round"/>
     </g>
     <g id="text_12">
      <!-- −1600 -->
      <g style="fill: #262626" transform="translate(24.800313 393.839219) scale(0.1 -0.1)">
       <defs>
        <path id="DejaVuSans-2212" d="M 678 2272 
L 4684 2272 
L 4684 1741 
L 678 1741 
L 678 2272 
z
" transform="scale(0.015625)"/>
       </defs>
       <use xlink:href="#DejaVuSans-2212"/>
       <use xlink:href="#DejaVuSans-31" transform="translate(83.789062 0)"/>
       <use xlink:href="#DejaVuSans-36" transform="translate(147.412109 0)"/>
       <use xlink:href="#DejaVuSans-30" transform="translate(211.035156 0)"/>
       <use xlink:href="#DejaVuSans-30" transform="translate(274.658203 0)"/>
      </g>
     </g>
    </g>
    <g id="ytick_2">
     <g id="line2d_11">
      <path d="M 65.63 348.410775 
L 637.2 348.410775 
" clip-path="url(#pad0d555904)" style="fill: none; stroke: #ffffff; stroke-width: 0.8; stroke-linecap: round"/>
     </g>
     <g id="text_13">
      <!-- −1400 -->
      <g style="fill: #262626" transform="translate(24.800313 352.209994) scale(0.1 -0.1)">
       <defs>
        <path id="DejaVuSans-34" d="M 2419 4116 
L 825 1625 
L 2419 1625 
L 2419 4116 
z
M 2253 4666 
L 3047 4666 
L 3047 1625 
L 3713 1625 
L 3713 1100 
L 3047 1100 
L 3047 0 
L 2419 0 
L 2419 1100 
L 313 1100 
L 313 1709 
L 2253 4666 
z
" transform="scale(0.015625)"/>
       </defs>
       <use xlink:href="#DejaVuSans-2212"/>
       <use xlink:href="#DejaVuSans-31" transform="translate(83.789062 0)"/>
       <use xlink:href="#DejaVuSans-34" transform="translate(147.412109 0)"/>
       <use xlink:href="#DejaVuSans-30" transform="translate(211.035156 0)"/>
       <use xlink:href="#DejaVuSans-30" transform="translate(274.658203 0)"/>
      </g>
     </g>
    </g>
    <g id="ytick_3">
     <g id="line2d_12">
      <path d="M 65.63 306.78155 
L 637.2 306.78155 
" clip-path="url(#pad0d555904)" style="fill: none; stroke: #ffffff; stroke-width: 0.8; stroke-linecap: round"/>
     </g>
     <g id="text_14">
      <!-- −1200 -->
      <g style="fill: #262626" transform="translate(24.800313 310.580769) scale(0.1 -0.1)">
       <use xlink:href="#DejaVuSans-2212"/>
       <use xlink:href="#DejaVuSans-31" transform="translate(83.789062 0)"/>
       <use xlink:href="#DejaVuSans-32" transform="translate(147.412109 0)"/>
       <use xlink:href="#DejaVuSans-30" transform="translate(211.035156 0)"/>
       <use xlink:href="#DejaVuSans-30" transform="translate(274.658203 0)"/>
      </g>
     </g>
    </g>
    <g id="ytick_4">
     <g id="line2d_13">
      <path d="M 65.63 265.152325 
L 637.2 265.152325 
" clip-path="url(#pad0d555904)" style="fill: none; stroke: #ffffff; stroke-width: 0.8; stroke-linecap: round"/>
     </g>
     <g id="text_15">
      <!-- −1000 -->
      <g style="fill: #262626" transform="translate(24.800313 268.951544) scale(0.1 -0.1)">
       <use xlink:href="#DejaVuSans-2212"/>
       <use xlink:href="#DejaVuSans-31" transform="translate(83.789062 0)"/>
       <use xlink:href="#DejaVuSans-30" transform="translate(147.412109 0)"/>
       <use xlink:href="#DejaVuSans-30" transform="translate(211.035156 0)"/>
       <use xlink:href="#DejaVuSans-30" transform="translate(274.658203 0)"/>
      </g>
     </g>
    </g>
    <g id="ytick_5">
     <g id="line2d_14">
      <path d="M 65.63 223.5231 
L 637.2 223.5231 
" clip-path="url(#pad0d555904)" style="fill: none; stroke: #ffffff; stroke-width: 0.8; stroke-linecap: round"/>
     </g>
     <g id="text_16">
      <!-- −800 -->
      <g style="fill: #262626" transform="translate(31.162813 227.322319) scale(0.1 -0.1)">
       <defs>
        <path id="DejaVuSans-38" d="M 2034 2216 
Q 1584 2216 1326 1975 
Q 1069 1734 1069 1313 
Q 1069 891 1326 650 
Q 1584 409 2034 409 
Q 2484 409 2743 651 
Q 3003 894 3003 1313 
Q 3003 1734 2745 1975 
Q 2488 2216 2034 2216 
z
M 1403 2484 
Q 997 2584 770 2862 
Q 544 3141 544 3541 
Q 544 4100 942 4425 
Q 1341 4750 2034 4750 
Q 2731 4750 3128 4425 
Q 3525 4100 3525 3541 
Q 3525 3141 3298 2862 
Q 3072 2584 2669 2484 
Q 3125 2378 3379 2068 
Q 3634 1759 3634 1313 
Q 3634 634 3220 271 
Q 2806 -91 2034 -91 
Q 1263 -91 848 271 
Q 434 634 434 1313 
Q 434 1759 690 2068 
Q 947 2378 1403 2484 
z
M 1172 3481 
Q 1172 3119 1398 2916 
Q 1625 2713 2034 2713 
Q 2441 2713 2670 2916 
Q 2900 3119 2900 3481 
Q 2900 3844 2670 4047 
Q 2441 4250 2034 4250 
Q 1625 4250 1398 4047 
Q 1172 3844 1172 3481 
z
" transform="scale(0.015625)"/>
       </defs>
       <use xlink:href="#DejaVuSans-2212"/>
       <use xlink:href="#DejaVuSans-38" transform="translate(83.789062 0)"/>
       <use xlink:href="#DejaVuSans-30" transform="translate(147.412109 0)"/>
       <use xlink:href="#DejaVuSans-30" transform="translate(211.035156 0)"/>
      </g>
     </g>
    </g>
    <g id="ytick_6">
     <g id="line2d_15">
      <path d="M 65.63 181.893875 
L 637.2 181.893875 
" clip-path="url(#pad0d555904)" style="fill: none; stroke: #ffffff; stroke-width: 0.8; stroke-linecap: round"/>
     </g>
     <g id="text_17">
      <!-- −600 -->
      <g style="fill: #262626" transform="translate(31.162813 185.693094) scale(0.1 -0.1)">
       <use xlink:href="#DejaVuSans-2212"/>
       <use xlink:href="#DejaVuSans-36" transform="translate(83.789062 0)"/>
       <use xlink:href="#DejaVuSans-30" transform="translate(147.412109 0)"/>
       <use xlink:href="#DejaVuSans-30" transform="translate(211.035156 0)"/>
      </g>
     </g>
    </g>
    <g id="ytick_7">
     <g id="line2d_16">
      <path d="M 65.63 140.26465 
L 637.2 140.26465 
" clip-path="url(#pad0d555904)" style="fill: none; stroke: #ffffff; stroke-width: 0.8; stroke-linecap: round"/>
     </g>
     <g id="text_18">
      <!-- −400 -->
      <g style="fill: #262626" transform="translate(31.162813 144.063869) scale(0.1 -0.1)">
       <use xlink:href="#DejaVuSans-2212"/>
       <use xlink:href="#DejaVuSans-34" transform="translate(83.789062 0)"/>
       <use xlink:href="#DejaVuSans-30" transform="translate(147.412109 0)"/>
       <use xlink:href="#DejaVuSans-30" transform="translate(211.035156 0)"/>
      </g>
     </g>
    </g>
    <g id="ytick_8">
     <g id="line2d_17">
      <path d="M 65.63 98.635425 
L 637.2 98.635425 
" clip-path="url(#pad0d555904)" style="fill: none; stroke: #ffffff; stroke-width: 0.8; stroke-linecap: round"/>
     </g>
     <g id="text_19">
      <!-- −200 -->
      <g style="fill: #262626" transform="translate(31.162813 102.434644) scale(0.1 -0.1)">
       <use xlink:href="#DejaVuSans-2212"/>
       <use xlink:href="#DejaVuSans-32" transform="translate(83.789062 0)"/>
       <use xlink:href="#DejaVuSans-30" transform="translate(147.412109 0)"/>
       <use xlink:href="#DejaVuSans-30" transform="translate(211.035156 0)"/>
      </g>
     </g>
    </g>
    <g id="ytick_9">
     <g id="line2d_18">
      <path d="M 65.63 57.0062 
L 637.2 57.0062 
" clip-path="url(#pad0d555904)" style="fill: none; stroke: #ffffff; stroke-width: 0.8; stroke-linecap: round"/>
     </g>
     <g id="text_20">
      <!-- 0 -->
      <g style="fill: #262626" transform="translate(52.2675 60.805419) scale(0.1 -0.1)">
       <use xlink:href="#DejaVuSans-30"/>
      </g>
     </g>
    </g>
    <g id="text_21">
     <!-- Reward -->
     <g style="fill: #262626" transform="translate(18.720625 242.144194) rotate(-90) scale(0.1 -0.1)">
      <defs>
       <path id="DejaVuSans-52" d="M 2841 2188 
Q 3044 2119 3236 1894 
Q 3428 1669 3622 1275 
L 4263 0 
L 3584 0 
L 2988 1197 
Q 2756 1666 2539 1819 
Q 2322 1972 1947 1972 
L 1259 1972 
L 1259 0 
L 628 0 
L 628 4666 
L 2053 4666 
Q 2853 4666 3247 4331 
Q 3641 3997 3641 3322 
Q 3641 2881 3436 2590 
Q 3231 2300 2841 2188 
z
M 1259 4147 
L 1259 2491 
L 2053 2491 
Q 2509 2491 2742 2702 
Q 2975 2913 2975 3322 
Q 2975 3731 2742 3939 
Q 2509 4147 2053 4147 
L 1259 4147 
z
" transform="scale(0.015625)"/>
       <path id="DejaVuSans-77" d="M 269 3500 
L 844 3500 
L 1563 769 
L 2278 3500 
L 2956 3500 
L 3675 769 
L 4391 3500 
L 4966 3500 
L 4050 0 
L 3372 0 
L 2619 2869 
L 1863 0 
L 1184 0 
L 269 3500 
z
" transform="scale(0.015625)"/>
       <path id="DejaVuSans-61" d="M 2194 1759 
Q 1497 1759 1228 1600 
Q 959 1441 959 1056 
Q 959 750 1161 570 
Q 1363 391 1709 391 
Q 2188 391 2477 730 
Q 2766 1069 2766 1631 
L 2766 1759 
L 2194 1759 
z
M 3341 1997 
L 3341 0 
L 2766 0 
L 2766 531 
Q 2569 213 2275 61 
Q 1981 -91 1556 -91 
Q 1019 -91 701 211 
Q 384 513 384 1019 
Q 384 1609 779 1909 
Q 1175 2209 1959 2209 
L 2766 2209 
L 2766 2266 
Q 2766 2663 2505 2880 
Q 2244 3097 1772 3097 
Q 1472 3097 1187 3025 
Q 903 2953 641 2809 
L 641 3341 
Q 956 3463 1253 3523 
Q 1550 3584 1831 3584 
Q 2591 3584 2966 3190 
Q 3341 2797 3341 1997 
z
" transform="scale(0.015625)"/>
       <path id="DejaVuSans-72" d="M 2631 2963 
Q 2534 3019 2420 3045 
Q 2306 3072 2169 3072 
Q 1681 3072 1420 2755 
Q 1159 2438 1159 1844 
L 1159 0 
L 581 0 
L 581 3500 
L 1159 3500 
L 1159 2956 
Q 1341 3275 1631 3429 
Q 1922 3584 2338 3584 
Q 2397 3584 2469 3576 
Q 2541 3569 2628 3553 
L 2631 2963 
z
" transform="scale(0.015625)"/>
       <path id="DejaVuSans-64" d="M 2906 2969 
L 2906 4863 
L 3481 4863 
L 3481 0 
L 2906 0 
L 2906 525 
Q 2725 213 2448 61 
Q 2172 -91 1784 -91 
Q 1150 -91 751 415 
Q 353 922 353 1747 
Q 353 2572 751 3078 
Q 1150 3584 1784 3584 
Q 2172 3584 2448 3432 
Q 2725 3281 2906 2969 
z
M 947 1747 
Q 947 1113 1208 752 
Q 1469 391 1925 391 
Q 2381 391 2643 752 
Q 2906 1113 2906 1747 
Q 2906 2381 2643 2742 
Q 2381 3103 1925 3103 
Q 1469 3103 1208 2742 
Q 947 2381 947 1747 
z
" transform="scale(0.015625)"/>
      </defs>
      <use xlink:href="#DejaVuSans-52"/>
      <use xlink:href="#DejaVuSans-65" transform="translate(64.982422 0)"/>
      <use xlink:href="#DejaVuSans-77" transform="translate(126.505859 0)"/>
      <use xlink:href="#DejaVuSans-61" transform="translate(208.292969 0)"/>
      <use xlink:href="#DejaVuSans-72" transform="translate(269.572266 0)"/>
      <use xlink:href="#DejaVuSans-64" transform="translate(308.935547 0)"/>
     </g>
    </g>
   </g>
   <g id="FillBetweenPolyCollection_1">
    <path d="M 65.630837 300.352599 
L 65.630837 323.282165 
L 71.346521 321.082421 
L 77.062204 319.826977 
L 82.777887 332.86845 
L 88.49357 312.55263 
L 94.209254 301.287664 
L 99.924937 306.19329 
L 105.64062 304.922652 
L 111.356303 288.131618 
L 117.071987 309.97492 
L 122.78767 299.624729 
L 128.503353 289.613085 
L 134.219036 280.6076 
L 139.93472 290.391643 
L 145.650403 296.106477 
L 151.366086 277.145315 
L 157.081769 285.121651 
L 162.797453 292.269348 
L 168.513136 266.95493 
L 174.228819 276.36365 
L 179.944502 262.088899 
L 185.660186 275.164522 
L 191.375869 250.690439 
L 197.091552 247.988846 
L 202.807235 233.308726 
L 208.522919 236.259133 
L 214.238602 228.625049 
L 219.954285 223.031097 
L 225.669968 211.598299 
L 231.385652 201.199353 
L 237.101335 192.531114 
L 242.817018 179.780921 
L 248.532701 185.690599 
L 254.248385 176.331843 
L 259.964068 157.318078 
L 265.679751 138.559373 
L 271.395434 133.0185 
L 277.111118 163.61657 
L 282.826801 117.106399 
L 288.542484 113.983495 
L 294.258167 112.170005 
L 299.973851 109.037375 
L 305.689534 135.915084 
L 311.405217 104.943946 
L 317.1209 119.599965 
L 322.836584 129.587298 
L 328.552267 111.372383 
L 334.26795 112.765398 
L 339.983633 135.457007 
L 345.699317 119.150018 
L 351.415 101.012212 
L 357.130683 100.762227 
L 362.846367 100.026952 
L 368.56205 106.086945 
L 374.277733 111.035183 
L 379.993416 97.949539 
L 385.7091 104.432992 
L 391.424783 98.629112 
L 397.140466 97.281946 
L 402.856149 104.497784 
L 408.571833 103.065185 
L 414.287516 99.228728 
L 420.003199 103.356374 
L 425.718882 95.075636 
L 431.434566 102.131863 
L 437.150249 94.816759 
L 442.865932 93.499124 
L 448.581615 112.194476 
L 454.297299 93.700947 
L 460.012982 97.181685 
L 465.728665 94.922761 
L 471.444348 93.677848 
L 477.160032 92.622856 
L 482.875715 95.366168 
L 488.591398 96.468123 
L 494.307081 90.945972 
L 500.022765 95.372438 
L 505.738448 98.828405 
L 511.454131 99.054917 
L 517.169814 103.344217 
L 522.885498 103.270476 
L 528.601181 94.824436 
L 534.316864 90.12806 
L 540.032547 91.230589 
L 545.748231 94.19485 
L 551.463914 90.312079 
L 557.179597 88.04627 
L 562.89528 90.507687 
L 568.610964 92.264982 
L 574.326647 89.279676 
L 580.04233 90.487676 
L 585.758013 104.119268 
L 591.473697 89.863026 
L 597.18938 92.267786 
L 602.905063 87.53885 
L 608.620746 88.956686 
L 614.33643 96.372619 
L 620.052113 93.807607 
L 625.767796 90.68937 
L 631.483479 92.629607 
L 631.483479 86.741626 
L 631.483479 86.741626 
L 625.767796 84.532143 
L 620.052113 85.998646 
L 614.33643 82.976989 
L 608.620746 84.569209 
L 602.905063 82.271097 
L 597.18938 87.394413 
L 591.473697 84.699487 
L 585.758013 80.391466 
L 580.04233 85.126835 
L 574.326647 86.390582 
L 568.610964 84.598713 
L 562.89528 87.361816 
L 557.179597 84.550186 
L 551.463914 87.414444 
L 545.748231 85.310259 
L 540.032547 88.34263 
L 534.316864 87.436073 
L 528.601181 85.573813 
L 522.885498 87.053129 
L 517.169814 86.852329 
L 511.454131 88.303563 
L 505.738448 85.912648 
L 500.022765 86.424325 
L 494.307081 88.546455 
L 488.591398 88.203409 
L 482.875715 87.405159 
L 477.160032 87.642385 
L 471.444348 85.021853 
L 465.728665 87.807608 
L 460.012982 90.336366 
L 454.297299 86.555071 
L 448.581615 87.947783 
L 442.865932 88.297598 
L 437.150249 90.747391 
L 431.434566 90.851956 
L 425.718882 89.427058 
L 420.003199 92.064871 
L 414.287516 93.893347 
L 408.571833 83.279975 
L 402.856149 87.563708 
L 397.140466 85.338583 
L 391.424783 90.75894 
L 385.7091 91.458591 
L 379.993416 91.022256 
L 374.277733 86.37627 
L 368.56205 95.101818 
L 362.846367 90.634188 
L 357.130683 91.501273 
L 351.415 98.566487 
L 345.699317 103.219042 
L 339.983633 93.15588 
L 334.26795 93.032545 
L 328.552267 99.685636 
L 322.836584 97.527682 
L 317.1209 93.699383 
L 311.405217 97.607039 
L 305.689534 96.132053 
L 299.973851 99.279409 
L 294.258167 101.783571 
L 288.542484 107.913729 
L 282.826801 103.069035 
L 277.111118 105.990856 
L 271.395434 100.738651 
L 265.679751 113.357552 
L 259.964068 107.087051 
L 254.248385 115.291095 
L 248.532701 106.993966 
L 242.817018 110.819726 
L 237.101335 120.277508 
L 231.385652 135.601898 
L 225.669968 146.358177 
L 219.954285 159.698905 
L 214.238602 187.610637 
L 208.522919 200.29273 
L 202.807235 212.033499 
L 197.091552 212.484506 
L 191.375869 236.606912 
L 185.660186 231.536866 
L 179.944502 228.882242 
L 174.228819 242.967892 
L 168.513136 251.2111 
L 162.797453 246.580944 
L 157.081769 265.94794 
L 151.366086 263.450663 
L 145.650403 260.935225 
L 139.93472 273.014019 
L 134.219036 273.164202 
L 128.503353 278.791948 
L 122.78767 277.164839 
L 117.071987 270.315926 
L 111.356303 282.549704 
L 105.64062 280.086024 
L 99.924937 288.252372 
L 94.209254 276.889358 
L 88.49357 291.077884 
L 82.777887 286.970857 
L 77.062204 297.851752 
L 71.346521 302.2234 
L 65.630837 300.352599 
z
" clip-path="url(#pad0d555904)" style="fill: #1f77b4; fill-opacity: 0.2"/>
   </g>
   <g id="FillBetweenPolyCollection_2">
    <path d="M 65.630837 299.420396 
L 65.630837 323.051531 
L 71.346521 314.668289 
L 77.062204 311.788309 
L 82.777887 316.517577 
L 88.49357 308.510801 
L 94.209254 298.461602 
L 99.924937 307.28591 
L 105.64062 298.728953 
L 111.356303 298.44686 
L 117.071987 296.34487 
L 122.78767 292.804559 
L 128.503353 291.076594 
L 134.219036 300.494545 
L 139.93472 305.046154 
L 145.650403 291.160254 
L 151.366086 301.480503 
L 157.081769 300.122832 
L 162.797453 290.211531 
L 168.513136 287.966762 
L 174.228819 291.131208 
L 179.944502 294.712069 
L 185.660186 291.314254 
L 191.375869 290.844453 
L 197.091552 287.169602 
L 202.807235 298.575519 
L 208.522919 295.587258 
L 214.238602 299.716688 
L 219.954285 291.863989 
L 225.669968 281.22342 
L 231.385652 290.021711 
L 237.101335 289.140266 
L 242.817018 297.900621 
L 248.532701 307.123417 
L 254.248385 314.367223 
L 259.964068 327.434143 
L 265.679751 306.963356 
L 271.395434 307.020591 
L 277.111118 312.84742 
L 282.826801 313.367343 
L 288.542484 310.067573 
L 294.258167 314.856918 
L 299.973851 315.944089 
L 305.689534 319.242031 
L 311.405217 313.329009 
L 317.1209 321.829368 
L 322.836584 320.116484 
L 328.552267 344.826659 
L 334.26795 353.834673 
L 339.983633 340.121459 
L 345.699317 334.385531 
L 351.415 342.65996 
L 357.130683 339.633414 
L 362.846367 328.336667 
L 368.56205 329.604589 
L 374.277733 316.613822 
L 379.993416 313.851903 
L 385.7091 322.202667 
L 391.424783 320.463722 
L 397.140466 317.35414 
L 402.856149 318.762729 
L 408.571833 317.846571 
L 414.287516 321.179834 
L 420.003199 323.249877 
L 425.718882 329.190433 
L 431.434566 347.937872 
L 437.150249 345.452036 
L 442.865932 338.218304 
L 448.581615 345.406514 
L 454.297299 335.009743 
L 460.012982 341.50697 
L 465.728665 339.472919 
L 471.444348 335.69997 
L 477.160032 338.641705 
L 482.875715 336.953255 
L 488.591398 338.241503 
L 494.307081 330.618553 
L 500.022765 333.521424 
L 505.738448 337.422503 
L 511.454131 336.49602 
L 517.169814 333.350768 
L 522.885498 338.682364 
L 528.601181 333.799404 
L 534.316864 333.123359 
L 540.032547 343.14253 
L 545.748231 339.022846 
L 551.463914 337.905526 
L 557.179597 335.950172 
L 562.89528 333.889625 
L 568.610964 324.710487 
L 574.326647 320.409762 
L 580.04233 320.833094 
L 585.758013 326.864119 
L 591.473697 326.199387 
L 597.18938 321.206597 
L 602.905063 321.069105 
L 608.620746 325.061428 
L 614.33643 325.162811 
L 620.052113 323.587726 
L 625.767796 316.313178 
L 631.483479 321.434053 
L 631.483479 170.949716 
L 631.483479 170.949716 
L 625.767796 170.910293 
L 620.052113 172.333809 
L 614.33643 181.966218 
L 608.620746 178.469257 
L 602.905063 176.265153 
L 597.18938 167.064307 
L 591.473697 184.225186 
L 585.758013 165.262111 
L 580.04233 198.676198 
L 574.326647 180.157017 
L 568.610964 169.349675 
L 562.89528 179.957116 
L 557.179597 189.715387 
L 551.463914 190.532364 
L 545.748231 183.638535 
L 540.032547 185.235524 
L 534.316864 187.347933 
L 528.601181 185.562152 
L 522.885498 181.200398 
L 517.169814 187.060443 
L 511.454131 212.792558 
L 505.738448 220.813582 
L 500.022765 208.359879 
L 494.307081 210.507554 
L 488.591398 206.96115 
L 482.875715 221.198575 
L 477.160032 210.62431 
L 471.444348 208.138912 
L 465.728665 210.49901 
L 460.012982 215.215965 
L 454.297299 196.431887 
L 448.581615 209.892509 
L 442.865932 212.722456 
L 437.150249 232.472215 
L 431.434566 207.248193 
L 425.718882 217.129438 
L 420.003199 231.449454 
L 414.287516 221.96019 
L 408.571833 224.101493 
L 402.856149 228.900547 
L 397.140466 229.650327 
L 391.424783 226.40362 
L 385.7091 229.917966 
L 379.993416 233.087131 
L 374.277733 244.111153 
L 368.56205 244.934144 
L 362.846367 232.68973 
L 357.130683 222.924239 
L 351.415 217.70637 
L 345.699317 222.82893 
L 339.983633 227.148448 
L 334.26795 222.808074 
L 328.552267 227.384119 
L 322.836584 234.861626 
L 317.1209 223.479822 
L 311.405217 226.83199 
L 305.689534 220.52376 
L 299.973851 225.777666 
L 294.258167 226.57417 
L 288.542484 216.641437 
L 282.826801 219.169854 
L 277.111118 230.565214 
L 271.395434 228.153774 
L 265.679751 233.842528 
L 259.964068 215.794539 
L 254.248385 212.891276 
L 248.532701 214.873989 
L 242.817018 220.791226 
L 237.101335 211.291419 
L 231.385652 210.029427 
L 225.669968 227.7077 
L 219.954285 215.998655 
L 214.238602 221.365772 
L 208.522919 218.926115 
L 202.807235 219.925361 
L 197.091552 214.603363 
L 191.375869 222.719691 
L 185.660186 215.122124 
L 179.944502 233.117653 
L 174.228819 240.133916 
L 168.513136 246.484698 
L 162.797453 237.541927 
L 157.081769 233.364952 
L 151.366086 235.899635 
L 145.650403 245.807809 
L 139.93472 253.770944 
L 134.219036 247.267369 
L 128.503353 249.842616 
L 122.78767 247.218613 
L 117.071987 258.114062 
L 111.356303 262.68269 
L 105.64062 271.45549 
L 99.924937 282.074954 
L 94.209254 280.49702 
L 88.49357 292.584591 
L 82.777887 289.274997 
L 77.062204 296.850428 
L 71.346521 290.289554 
L 65.630837 299.420396 
z
" clip-path="url(#pad0d555904)" style="fill: #ff7f0e; fill-opacity: 0.2"/>
   </g>
   <g id="FillBetweenPolyCollection_3">
    <path d="M 65.630837 297.250851 
L 65.630837 319.862921 
L 71.346521 308.440963 
L 77.062204 308.47425 
L 82.777887 331.589741 
L 88.49357 307.282434 
L 94.209254 316.489485 
L 99.924937 317.666436 
L 105.64062 328.940286 
L 111.356303 294.957451 
L 117.071987 312.57962 
L 122.78767 303.760064 
L 128.503353 306.978541 
L 134.219036 323.091234 
L 139.93472 312.534304 
L 145.650403 309.156801 
L 151.366086 317.824141 
L 157.081769 305.894937 
L 162.797453 315.782515 
L 168.513136 308.347713 
L 174.228819 301.756414 
L 179.944502 311.063519 
L 185.660186 312.851764 
L 191.375869 300.63345 
L 197.091552 306.760607 
L 202.807235 302.199867 
L 208.522919 298.120713 
L 214.238602 301.552275 
L 219.954285 295.291096 
L 225.669968 311.849628 
L 231.385652 316.364317 
L 237.101335 305.296632 
L 242.817018 308.536905 
L 248.532701 306.870611 
L 254.248385 325.851741 
L 259.964068 323.73016 
L 265.679751 316.270623 
L 271.395434 316.337513 
L 277.111118 308.1594 
L 282.826801 317.002627 
L 288.542484 338.731211 
L 294.258167 338.241817 
L 299.973851 326.653115 
L 305.689534 332.048101 
L 311.405217 325.964085 
L 317.1209 345.048398 
L 322.836584 342.887252 
L 328.552267 347.020839 
L 334.26795 343.61029 
L 339.983633 349.935064 
L 345.699317 338.957626 
L 351.415 339.176173 
L 357.130683 335.701528 
L 362.846367 339.324159 
L 368.56205 342.189885 
L 374.277733 325.181754 
L 379.993416 323.538191 
L 385.7091 327.935569 
L 391.424783 324.746779 
L 397.140466 322.222242 
L 402.856149 329.52843 
L 408.571833 318.240786 
L 414.287516 319.409382 
L 420.003199 322.957775 
L 425.718882 324.379732 
L 431.434566 316.09393 
L 437.150249 323.59595 
L 442.865932 330.301907 
L 448.581615 323.816921 
L 454.297299 322.510884 
L 460.012982 329.461792 
L 465.728665 326.940387 
L 471.444348 321.524533 
L 477.160032 321.469173 
L 482.875715 327.767112 
L 488.591398 323.322159 
L 494.307081 327.434646 
L 500.022765 323.133936 
L 505.738448 317.802794 
L 511.454131 314.682724 
L 517.169814 318.685473 
L 522.885498 324.028981 
L 528.601181 312.681091 
L 534.316864 323.006244 
L 540.032547 322.091071 
L 545.748231 322.576766 
L 551.463914 323.968938 
L 557.179597 326.515225 
L 562.89528 325.736542 
L 568.610964 323.912179 
L 574.326647 321.294577 
L 580.04233 318.754777 
L 585.758013 326.058909 
L 591.473697 312.947282 
L 597.18938 312.562941 
L 602.905063 315.145404 
L 608.620746 317.450799 
L 614.33643 312.994435 
L 620.052113 314.95712 
L 625.767796 315.53372 
L 631.483479 321.389215 
L 631.483479 259.236489 
L 631.483479 259.236489 
L 625.767796 252.918296 
L 620.052113 269.682032 
L 614.33643 254.053441 
L 608.620746 245.191867 
L 602.905063 244.266914 
L 597.18938 262.148244 
L 591.473697 249.17494 
L 585.758013 253.573064 
L 580.04233 254.478862 
L 574.326647 248.910042 
L 568.610964 246.407593 
L 562.89528 259.278649 
L 557.179597 256.73623 
L 551.463914 259.626897 
L 545.748231 257.621038 
L 540.032547 264.918435 
L 534.316864 259.511337 
L 528.601181 261.455932 
L 522.885498 253.747556 
L 517.169814 248.890969 
L 511.454131 250.054221 
L 505.738448 263.726363 
L 500.022765 262.043766 
L 494.307081 263.164946 
L 488.591398 258.972744 
L 482.875715 263.705794 
L 477.160032 266.321986 
L 471.444348 271.090657 
L 465.728665 266.482638 
L 460.012982 261.429385 
L 454.297299 267.154456 
L 448.581615 268.500143 
L 442.865932 270.434862 
L 437.150249 271.13751 
L 431.434566 272.513197 
L 425.718882 271.651825 
L 420.003199 277.660544 
L 414.287516 277.899001 
L 408.571833 277.701535 
L 402.856149 276.962385 
L 397.140466 272.371241 
L 391.424783 265.457457 
L 385.7091 264.671198 
L 379.993416 259.458459 
L 374.277733 247.736539 
L 368.56205 250.19318 
L 362.846367 257.072181 
L 357.130683 261.882807 
L 351.415 260.5519 
L 345.699317 258.974686 
L 339.983633 254.906555 
L 334.26795 247.995724 
L 328.552267 259.740085 
L 322.836584 260.982586 
L 317.1209 266.303267 
L 311.405217 289.468144 
L 305.689534 277.967694 
L 299.973851 282.858326 
L 294.258167 271.460402 
L 288.542484 277.015943 
L 282.826801 262.26513 
L 277.111118 277.313716 
L 271.395434 281.620249 
L 265.679751 275.316667 
L 259.964068 278.335939 
L 254.248385 267.645043 
L 248.532701 257.92732 
L 242.817018 266.859908 
L 237.101335 264.907331 
L 231.385652 258.009097 
L 225.669968 262.244054 
L 219.954285 261.403836 
L 214.238602 273.306647 
L 208.522919 267.703603 
L 202.807235 262.505441 
L 197.091552 267.447182 
L 191.375869 264.316987 
L 185.660186 269.833837 
L 179.944502 274.939797 
L 174.228819 265.094674 
L 168.513136 267.557653 
L 162.797453 266.696165 
L 157.081769 273.235526 
L 151.366086 270.685137 
L 145.650403 272.753295 
L 139.93472 259.568046 
L 134.219036 274.552849 
L 128.503353 280.737383 
L 122.78767 272.870625 
L 117.071987 266.772243 
L 111.356303 265.071494 
L 105.64062 269.518422 
L 99.924937 290.964398 
L 94.209254 277.901127 
L 88.49357 282.597568 
L 82.777887 291.874905 
L 77.062204 289.82098 
L 71.346521 286.726666 
L 65.630837 297.250851 
z
" clip-path="url(#pad0d555904)" style="fill: #2ca02c; fill-opacity: 0.2"/>
   </g>
   <g id="FillBetweenPolyCollection_4">
    <path d="M 65.630837 297.701637 
L 65.630837 330.164053 
L 71.346521 306.815654 
L 77.062204 318.016006 
L 82.777887 315.494631 
L 88.49357 318.664271 
L 94.209254 310.214812 
L 99.924937 314.892536 
L 105.64062 316.66675 
L 111.356303 314.425229 
L 117.071987 301.885972 
L 122.78767 305.588426 
L 128.503353 317.718817 
L 134.219036 304.816469 
L 139.93472 295.265398 
L 145.650403 295.362208 
L 151.366086 287.85186 
L 157.081769 289.154453 
L 162.797453 284.354264 
L 168.513136 276.436457 
L 174.228819 281.9214 
L 179.944502 283.397599 
L 185.660186 290.564317 
L 191.375869 274.040723 
L 197.091552 271.38371 
L 202.807235 264.942156 
L 208.522919 266.342917 
L 214.238602 258.913208 
L 219.954285 246.048637 
L 225.669968 255.517627 
L 231.385652 252.236841 
L 237.101335 235.156997 
L 242.817018 234.510551 
L 248.532701 240.63502 
L 254.248385 222.269875 
L 259.964068 215.36677 
L 265.679751 197.450429 
L 271.395434 178.038671 
L 277.111118 166.00979 
L 282.826801 172.305496 
L 288.542484 156.025445 
L 294.258167 128.641768 
L 299.973851 133.352093 
L 305.689534 119.663809 
L 311.405217 117.411035 
L 317.1209 119.674397 
L 322.836584 123.477354 
L 328.552267 109.489347 
L 334.26795 135.893119 
L 339.983633 119.858545 
L 345.699317 104.722253 
L 351.415 109.904186 
L 357.130683 106.661672 
L 362.846367 101.073947 
L 368.56205 98.528879 
L 374.277733 102.472846 
L 379.993416 101.299516 
L 385.7091 98.518025 
L 391.424783 95.685065 
L 397.140466 94.029438 
L 402.856149 99.540754 
L 408.571833 103.154439 
L 414.287516 93.531089 
L 420.003199 98.422595 
L 425.718882 94.641267 
L 431.434566 101.420105 
L 437.150249 95.935183 
L 442.865932 93.800007 
L 448.581615 100.326721 
L 454.297299 124.861479 
L 460.012982 95.632315 
L 465.728665 91.892228 
L 471.444348 104.712672 
L 477.160032 97.141295 
L 482.875715 95.253874 
L 488.591398 93.615795 
L 494.307081 92.535046 
L 500.022765 92.512844 
L 505.738448 100.347304 
L 511.454131 96.666071 
L 517.169814 93.976318 
L 522.885498 98.372285 
L 528.601181 91.718635 
L 534.316864 90.790788 
L 540.032547 97.547898 
L 545.748231 96.404207 
L 551.463914 95.540054 
L 557.179597 95.224441 
L 562.89528 97.580293 
L 568.610964 95.001341 
L 574.326647 92.672983 
L 580.04233 96.967956 
L 585.758013 91.844105 
L 591.473697 95.478897 
L 597.18938 94.312517 
L 602.905063 93.24091 
L 608.620746 91.389449 
L 614.33643 94.077015 
L 620.052113 97.219704 
L 625.767796 94.838938 
L 631.483479 89.459094 
L 631.483479 84.470028 
L 631.483479 84.470028 
L 625.767796 84.567002 
L 620.052113 89.26417 
L 614.33643 85.854465 
L 608.620746 84.805918 
L 602.905063 88.286507 
L 597.18938 88.350295 
L 591.473697 87.947021 
L 585.758013 85.884957 
L 580.04233 84.256306 
L 574.326647 81.278818 
L 568.610964 88.972491 
L 562.89528 89.090766 
L 557.179597 82.678301 
L 551.463914 87.267468 
L 545.748231 89.061748 
L 540.032547 88.485548 
L 534.316864 84.814813 
L 528.601181 88.302698 
L 522.885498 86.377026 
L 517.169814 88.272217 
L 511.454131 86.83975 
L 505.738448 85.976148 
L 500.022765 84.911245 
L 494.307081 90.647648 
L 488.591398 89.888865 
L 482.875715 90.276062 
L 477.160032 84.840795 
L 471.444348 83.808921 
L 465.728665 88.327811 
L 460.012982 87.731142 
L 454.297299 79.968279 
L 448.581615 93.036732 
L 442.865932 86.098035 
L 437.150249 84.836163 
L 431.434566 91.052394 
L 425.718882 89.211217 
L 420.003199 88.69389 
L 414.287516 87.667461 
L 408.571833 86.700863 
L 402.856149 90.732991 
L 397.140466 82.318556 
L 391.424783 88.635442 
L 385.7091 86.365344 
L 379.993416 91.864174 
L 374.277733 90.171528 
L 368.56205 90.682155 
L 362.846367 94.487338 
L 357.130683 94.572581 
L 351.415 92.974262 
L 345.699317 98.670646 
L 339.983633 99.837815 
L 334.26795 86.78302 
L 328.552267 97.086601 
L 322.836584 100.442173 
L 317.1209 103.677055 
L 311.405217 103.102023 
L 305.689534 89.577807 
L 299.973851 109.314061 
L 294.258167 94.594654 
L 288.542484 104.439469 
L 282.826801 99.835168 
L 277.111118 116.369057 
L 271.395434 112.960356 
L 265.679751 133.179432 
L 259.964068 144.771472 
L 254.248385 164.497107 
L 248.532701 184.245803 
L 242.817018 198.422894 
L 237.101335 212.895201 
L 231.385652 214.755239 
L 225.669968 226.299653 
L 219.954285 237.839437 
L 214.238602 232.112898 
L 208.522919 237.37946 
L 202.807235 246.730456 
L 197.091552 248.859041 
L 191.375869 253.322255 
L 185.660186 256.344315 
L 179.944502 252.038226 
L 174.228819 261.859267 
L 168.513136 265.214323 
L 162.797453 254.631516 
L 157.081769 266.752396 
L 151.366086 278.891021 
L 145.650403 278.034306 
L 139.93472 281.588104 
L 134.219036 276.580708 
L 128.503353 295.511356 
L 122.78767 285.690748 
L 117.071987 287.867333 
L 111.356303 287.871486 
L 105.64062 283.234648 
L 99.924937 288.618321 
L 94.209254 294.94764 
L 88.49357 287.22425 
L 82.777887 307.515673 
L 77.062204 283.189665 
L 71.346521 286.266102 
L 65.630837 297.701637 
z
" clip-path="url(#pad0d555904)" style="fill: #d62728; fill-opacity: 0.2"/>
   </g>
   <g id="line2d_19">
    <path d="M 65.630837 311.817382 
L 71.346521 311.652911 
L 77.062204 308.839364 
L 82.777887 309.919653 
L 88.49357 301.815257 
L 94.209254 289.088511 
L 99.924937 297.222831 
L 105.64062 292.504338 
L 111.356303 285.340661 
L 117.071987 290.145423 
L 122.78767 288.394784 
L 128.503353 284.202517 
L 134.219036 276.885901 
L 139.93472 281.702831 
L 145.650403 278.520851 
L 151.366086 270.297989 
L 157.081769 275.534796 
L 162.797453 269.425146 
L 168.513136 259.083015 
L 174.228819 259.665771 
L 179.944502 245.48557 
L 185.660186 253.350694 
L 191.375869 243.648676 
L 197.091552 230.236676 
L 202.807235 222.671112 
L 208.522919 218.275932 
L 214.238602 208.117843 
L 219.954285 191.365001 
L 225.669968 178.978238 
L 231.385652 168.400625 
L 237.101335 156.404311 
L 242.817018 145.300324 
L 248.532701 146.342283 
L 254.248385 145.811469 
L 259.964068 132.202565 
L 265.679751 125.958463 
L 271.395434 116.878575 
L 277.111118 134.803713 
L 282.826801 110.087717 
L 288.542484 110.948612 
L 294.258167 106.976788 
L 299.973851 104.158392 
L 305.689534 116.023569 
L 311.405217 101.275493 
L 317.1209 106.649674 
L 322.836584 113.55749 
L 328.552267 105.52901 
L 334.26795 102.898971 
L 339.983633 114.306443 
L 345.699317 111.18453 
L 351.415 99.78935 
L 357.130683 96.13175 
L 362.846367 95.33057 
L 368.56205 100.594382 
L 374.277733 98.705727 
L 379.993416 94.485898 
L 385.7091 97.945791 
L 391.424783 94.694026 
L 397.140466 91.310265 
L 402.856149 96.030746 
L 408.571833 93.17258 
L 414.287516 96.561038 
L 420.003199 97.710623 
L 425.718882 92.251347 
L 431.434566 96.49191 
L 437.150249 92.782075 
L 442.865932 90.898361 
L 448.581615 100.07113 
L 454.297299 90.128009 
L 460.012982 93.759025 
L 465.728665 91.365185 
L 471.444348 89.34985 
L 477.160032 90.132621 
L 482.875715 91.385663 
L 488.591398 92.335766 
L 494.307081 89.746214 
L 500.022765 90.898382 
L 505.738448 92.370527 
L 511.454131 93.67924 
L 517.169814 95.098273 
L 522.885498 95.161803 
L 528.601181 90.199124 
L 534.316864 88.782067 
L 540.032547 89.78661 
L 545.748231 89.752555 
L 551.463914 88.863262 
L 557.179597 86.298228 
L 562.89528 88.934751 
L 568.610964 88.431847 
L 574.326647 87.835129 
L 580.04233 87.807256 
L 585.758013 92.255367 
L 591.473697 87.281257 
L 597.18938 89.8311 
L 602.905063 84.904973 
L 608.620746 86.762947 
L 614.33643 89.674804 
L 620.052113 89.903127 
L 625.767796 87.610757 
L 631.483479 89.685617 
" clip-path="url(#pad0d555904)" style="fill: none; stroke: #1f77b4; stroke-width: 1.5; stroke-linecap: round"/>
   </g>
   <g id="line2d_20">
    <path d="M 65.630837 311.235964 
L 71.346521 302.478921 
L 77.062204 304.319368 
L 82.777887 302.896287 
L 88.49357 300.547696 
L 94.209254 289.479311 
L 99.924937 294.680432 
L 105.64062 285.092222 
L 111.356303 280.564775 
L 117.071987 277.229466 
L 122.78767 270.011586 
L 128.503353 270.459605 
L 134.219036 273.880957 
L 139.93472 279.408549 
L 145.650403 268.484031 
L 151.366086 268.690069 
L 157.081769 266.743892 
L 162.797453 263.876729 
L 168.513136 267.22573 
L 174.228819 265.632562 
L 179.944502 263.914861 
L 185.660186 253.218189 
L 191.375869 256.782072 
L 197.091552 250.886482 
L 202.807235 259.25044 
L 208.522919 257.256687 
L 214.238602 260.54123 
L 219.954285 253.931322 
L 225.669968 254.46556 
L 231.385652 250.025569 
L 237.101335 250.215842 
L 242.817018 259.345924 
L 248.532701 260.998703 
L 254.248385 263.62925 
L 259.964068 271.614341 
L 265.679751 270.402942 
L 271.395434 267.587183 
L 277.111118 271.706317 
L 282.826801 266.268598 
L 288.542484 263.354505 
L 294.258167 270.715544 
L 299.973851 270.860877 
L 305.689534 269.882896 
L 311.405217 270.080499 
L 317.1209 272.654595 
L 322.836584 277.489055 
L 328.552267 286.105389 
L 334.26795 288.321373 
L 339.983633 283.634954 
L 345.699317 278.607231 
L 351.415 280.183165 
L 357.130683 281.278827 
L 362.846367 280.513198 
L 368.56205 287.269366 
L 374.277733 280.362488 
L 379.993416 273.469517 
L 385.7091 276.060317 
L 391.424783 273.433671 
L 397.140466 273.502233 
L 402.856149 273.831638 
L 408.571833 270.974032 
L 414.287516 271.570012 
L 420.003199 277.349666 
L 425.718882 273.159936 
L 431.434566 277.593032 
L 437.150249 288.962125 
L 442.865932 275.47038 
L 448.581615 277.649511 
L 454.297299 265.720815 
L 460.012982 278.361467 
L 465.728665 274.985965 
L 471.444348 271.919441 
L 477.160032 274.633007 
L 482.875715 279.075915 
L 488.591398 272.601326 
L 494.307081 270.563053 
L 500.022765 270.940651 
L 505.738448 279.118043 
L 511.454131 274.644289 
L 517.169814 260.205605 
L 522.885498 259.941381 
L 528.601181 259.680778 
L 534.316864 260.235646 
L 540.032547 264.189027 
L 545.748231 261.33069 
L 551.463914 264.218945 
L 557.179597 262.83278 
L 562.89528 256.923371 
L 568.610964 247.030081 
L 574.326647 250.283389 
L 580.04233 259.754646 
L 585.758013 246.063115 
L 591.473697 255.212286 
L 597.18938 244.135452 
L 602.905063 248.667129 
L 608.620746 251.765342 
L 614.33643 253.564514 
L 620.052113 247.960768 
L 625.767796 243.611735 
L 631.483479 246.191885 
" clip-path="url(#pad0d555904)" style="fill: none; stroke: #ff7f0e; stroke-width: 1.5; stroke-linecap: round"/>
   </g>
   <g id="line2d_21">
    <path d="M 65.630837 308.556886 
L 71.346521 297.583815 
L 77.062204 299.147615 
L 82.777887 311.732323 
L 88.49357 294.940001 
L 94.209254 297.195306 
L 99.924937 304.315417 
L 105.64062 299.229354 
L 111.356303 280.014473 
L 117.071987 289.675932 
L 122.78767 288.315345 
L 128.503353 293.857962 
L 134.219036 298.822041 
L 139.93472 286.051175 
L 145.650403 290.955048 
L 151.366086 294.254639 
L 157.081769 289.565231 
L 162.797453 291.23934 
L 168.513136 287.952683 
L 174.228819 283.425544 
L 179.944502 293.001658 
L 185.660186 291.342801 
L 191.375869 282.475218 
L 197.091552 287.103894 
L 202.807235 282.352654 
L 208.522919 282.912158 
L 214.238602 287.429461 
L 219.954285 278.347466 
L 225.669968 287.046841 
L 231.385652 287.186707 
L 237.101335 285.101981 
L 242.817018 287.698407 
L 248.532701 282.398965 
L 254.248385 296.748392 
L 259.964068 301.033049 
L 265.679751 295.793645 
L 271.395434 298.978881 
L 277.111118 292.736558 
L 282.826801 289.633879 
L 288.542484 307.873577 
L 294.258167 304.85111 
L 299.973851 304.75572 
L 305.689534 305.007897 
L 311.405217 307.716115 
L 317.1209 305.675832 
L 322.836584 301.934919 
L 328.552267 303.380462 
L 334.26795 295.803007 
L 339.983633 302.42081 
L 345.699317 298.966156 
L 351.415 299.864037 
L 357.130683 298.792167 
L 362.846367 298.19817 
L 368.56205 296.191533 
L 374.277733 286.459147 
L 379.993416 291.498325 
L 385.7091 296.303383 
L 391.424783 295.102118 
L 397.140466 297.296742 
L 402.856149 303.245408 
L 408.571833 297.97116 
L 414.287516 298.654192 
L 420.003199 300.309159 
L 425.718882 298.015778 
L 431.434566 294.303563 
L 437.150249 297.36673 
L 442.865932 300.368384 
L 448.581615 296.158532 
L 454.297299 294.83267 
L 460.012982 295.445588 
L 465.728665 296.711512 
L 471.444348 296.307595 
L 477.160032 293.89558 
L 482.875715 295.736453 
L 488.591398 291.147451 
L 494.307081 295.299796 
L 500.022765 292.588851 
L 505.738448 290.764579 
L 511.454131 282.368472 
L 517.169814 283.788221 
L 522.885498 288.888268 
L 528.601181 287.068512 
L 534.316864 291.258791 
L 540.032547 293.504753 
L 545.748231 290.098902 
L 551.463914 291.797918 
L 557.179597 291.625728 
L 562.89528 292.507595 
L 568.610964 285.159886 
L 574.326647 285.102309 
L 580.04233 286.616819 
L 585.758013 289.815986 
L 591.473697 281.061111 
L 597.18938 287.355593 
L 602.905063 279.706159 
L 608.620746 281.321333 
L 614.33643 283.523938 
L 620.052113 292.319576 
L 625.767796 284.226008 
L 631.483479 290.312852 
" clip-path="url(#pad0d555904)" style="fill: none; stroke: #2ca02c; stroke-width: 1.5; stroke-linecap: round"/>
   </g>
   <g id="line2d_22">
    <path d="M 65.630837 313.932845 
L 71.346521 296.540878 
L 77.062204 300.602836 
L 82.777887 311.505152 
L 88.49357 302.944261 
L 94.209254 302.581226 
L 99.924937 301.755429 
L 105.64062 299.950699 
L 111.356303 301.148358 
L 117.071987 294.876652 
L 122.78767 295.639587 
L 128.503353 306.615086 
L 134.219036 290.698588 
L 139.93472 288.426751 
L 145.650403 286.698257 
L 151.366086 283.37144 
L 157.081769 277.953424 
L 162.797453 269.49289 
L 168.513136 270.82539 
L 174.228819 271.890334 
L 179.944502 267.717912 
L 185.660186 273.454316 
L 191.375869 263.681489 
L 197.091552 260.121376 
L 202.807235 255.836306 
L 208.522919 251.861188 
L 214.238602 245.513053 
L 219.954285 241.944037 
L 225.669968 240.90864 
L 231.385652 233.49604 
L 237.101335 224.026099 
L 242.817018 216.466722 
L 248.532701 212.440411 
L 254.248385 193.383491 
L 259.964068 180.069121 
L 265.679751 165.31493 
L 271.395434 145.499514 
L 277.111118 141.189423 
L 282.826801 136.070332 
L 288.542484 130.232457 
L 294.258167 111.618211 
L 299.973851 121.333077 
L 305.689534 104.620808 
L 311.405217 110.256529 
L 317.1209 111.675726 
L 322.836584 111.959764 
L 328.552267 103.287974 
L 334.26795 111.338069 
L 339.983633 109.84818 
L 345.699317 101.69645 
L 351.415 101.439224 
L 357.130683 100.617127 
L 362.846367 97.780642 
L 368.56205 94.605517 
L 374.277733 96.322187 
L 379.993416 96.581845 
L 385.7091 92.441685 
L 391.424783 92.160253 
L 397.140466 88.173997 
L 402.856149 95.136873 
L 408.571833 94.927651 
L 414.287516 90.599275 
L 420.003199 93.558242 
L 425.718882 91.926242 
L 431.434566 96.23625 
L 437.150249 90.385673 
L 442.865932 89.949021 
L 448.581615 96.681727 
L 454.297299 102.414879 
L 460.012982 91.681728 
L 465.728665 90.110019 
L 471.444348 94.260796 
L 477.160032 90.991045 
L 482.875715 92.764968 
L 488.591398 91.75233 
L 494.307081 91.591347 
L 500.022765 88.712045 
L 505.738448 93.161726 
L 511.454131 91.752911 
L 517.169814 91.124267 
L 522.885498 92.374656 
L 528.601181 90.010667 
L 534.316864 87.8028 
L 540.032547 93.016723 
L 545.748231 92.732977 
L 551.463914 91.403761 
L 557.179597 88.951371 
L 562.89528 93.335529 
L 568.610964 91.986916 
L 574.326647 86.975901 
L 580.04233 90.612131 
L 585.758013 88.864531 
L 591.473697 91.712959 
L 597.18938 91.331406 
L 602.905063 90.763708 
L 608.620746 88.097683 
L 614.33643 89.96574 
L 620.052113 93.241937 
L 625.767796 89.70297 
L 631.483479 86.964561 
" clip-path="url(#pad0d555904)" style="fill: none; stroke: #d62728; stroke-width: 1.5; stroke-linecap: round"/>
   </g>
   <g id="patch_3">
    <path d="M 65.63 390.04 
L 65.63 57.0062 
" style="fill: none; stroke: #ffffff; stroke-width: 0.8; stroke-linejoin: miter; stroke-linecap: square"/>
   </g>
   <g id="patch_4">
    <path d="M 637.2 390.04 
L 637.2 57.0062 
" style="fill: none; stroke: #ffffff; stroke-width: 0.8; stroke-linejoin: miter; stroke-linecap: square"/>
   </g>
   <g id="patch_5">
    <path d="M 65.63 390.04 
L 637.2 390.04 
" style="fill: none; stroke: #ffffff; stroke-width: 0.8; stroke-linejoin: miter; stroke-linecap: square"/>
   </g>
   <g id="patch_6">
    <path d="M 65.63 57.0062 
L 637.2 57.0062 
" style="fill: none; stroke: #ffffff; stroke-width: 0.8; stroke-linejoin: miter; stroke-linecap: square"/>
   </g>
   <g id="legend_1">
    <g id="line2d_23">
     <path d="M 206.754788 41.274494 
L 215.084788 41.274494 
L 223.414788 41.274494 
" style="fill: none; stroke: #1f77b4; stroke-width: 1.5; stroke-linecap: round"/>
    </g>
    <g id="text_22">
     <!-- Logits (Baseline) -->
     <g style="fill: #262626" transform="translate(230.078788 44.189994) scale(0.0833 -0.0833)">
      <defs>
       <path id="DejaVuSans-4c" d="M 628 4666 
L 1259 4666 
L 1259 531 
L 3531 531 
L 3531 0 
L 628 0 
L 628 4666 
z
" transform="scale(0.015625)"/>
       <path id="DejaVuSans-6f" d="M 1959 3097 
Q 1497 3097 1228 2736 
Q 959 2375 959 1747 
Q 959 1119 1226 758 
Q 1494 397 1959 397 
Q 2419 397 2687 759 
Q 2956 1122 2956 1747 
Q 2956 2369 2687 2733 
Q 2419 3097 1959 3097 
z
M 1959 3584 
Q 2709 3584 3137 3096 
Q 3566 2609 3566 1747 
Q 3566 888 3137 398 
Q 2709 -91 1959 -91 
Q 1206 -91 779 398 
Q 353 888 353 1747 
Q 353 2609 779 3096 
Q 1206 3584 1959 3584 
z
" transform="scale(0.015625)"/>
       <path id="DejaVuSans-67" d="M 2906 1791 
Q 2906 2416 2648 2759 
Q 2391 3103 1925 3103 
Q 1463 3103 1205 2759 
Q 947 2416 947 1791 
Q 947 1169 1205 825 
Q 1463 481 1925 481 
Q 2391 481 2648 825 
Q 2906 1169 2906 1791 
z
M 3481 434 
Q 3481 -459 3084 -895 
Q 2688 -1331 1869 -1331 
Q 1566 -1331 1297 -1286 
Q 1028 -1241 775 -1147 
L 775 -588 
Q 1028 -725 1275 -790 
Q 1522 -856 1778 -856 
Q 2344 -856 2625 -561 
Q 2906 -266 2906 331 
L 2906 616 
Q 2728 306 2450 153 
Q 2172 0 1784 0 
Q 1141 0 747 490 
Q 353 981 353 1791 
Q 353 2603 747 3093 
Q 1141 3584 1784 3584 
Q 2172 3584 2450 3431 
Q 2728 3278 2906 2969 
L 2906 3500 
L 3481 3500 
L 3481 434 
z
" transform="scale(0.015625)"/>
       <path id="DejaVuSans-69" d="M 603 3500 
L 1178 3500 
L 1178 0 
L 603 0 
L 603 3500 
z
M 603 4863 
L 1178 4863 
L 1178 4134 
L 603 4134 
L 603 4863 
z
" transform="scale(0.015625)"/>
       <path id="DejaVuSans-20" transform="scale(0.015625)"/>
       <path id="DejaVuSans-28" d="M 1984 4856 
Q 1566 4138 1362 3434 
Q 1159 2731 1159 2009 
Q 1159 1288 1364 580 
Q 1569 -128 1984 -844 
L 1484 -844 
Q 1016 -109 783 600 
Q 550 1309 550 2009 
Q 550 2706 781 3412 
Q 1013 4119 1484 4856 
L 1984 4856 
z
" transform="scale(0.015625)"/>
       <path id="DejaVuSans-42" d="M 1259 2228 
L 1259 519 
L 2272 519 
Q 2781 519 3026 730 
Q 3272 941 3272 1375 
Q 3272 1813 3026 2020 
Q 2781 2228 2272 2228 
L 1259 2228 
z
M 1259 4147 
L 1259 2741 
L 2194 2741 
Q 2656 2741 2882 2914 
Q 3109 3088 3109 3444 
Q 3109 3797 2882 3972 
Q 2656 4147 2194 4147 
L 1259 4147 
z
M 628 4666 
L 2241 4666 
Q 2963 4666 3353 4366 
Q 3744 4066 3744 3513 
Q 3744 3084 3544 2831 
Q 3344 2578 2956 2516 
Q 3422 2416 3680 2098 
Q 3938 1781 3938 1306 
Q 3938 681 3513 340 
Q 3088 0 2303 0 
L 628 0 
L 628 4666 
z
" transform="scale(0.015625)"/>
       <path id="DejaVuSans-6c" d="M 603 4863 
L 1178 4863 
L 1178 0 
L 603 0 
L 603 4863 
z
" transform="scale(0.015625)"/>
       <path id="DejaVuSans-6e" d="M 3513 2113 
L 3513 0 
L 2938 0 
L 2938 2094 
Q 2938 2591 2744 2837 
Q 2550 3084 2163 3084 
Q 1697 3084 1428 2787 
Q 1159 2491 1159 1978 
L 1159 0 
L 581 0 
L 581 3500 
L 1159 3500 
L 1159 2956 
Q 1366 3272 1645 3428 
Q 1925 3584 2291 3584 
Q 2894 3584 3203 3211 
Q 3513 2838 3513 2113 
z
" transform="scale(0.015625)"/>
       <path id="DejaVuSans-29" d="M 513 4856 
L 1013 4856 
Q 1481 4119 1714 3412 
Q 1947 2706 1947 2009 
Q 1947 1309 1714 600 
Q 1481 -109 1013 -844 
L 513 -844 
Q 928 -128 1133 580 
Q 1338 1288 1338 2009 
Q 1338 2731 1133 3434 
Q 928 4138 513 4856 
z
" transform="scale(0.015625)"/>
      </defs>
      <use xlink:href="#DejaVuSans-4c"/>
      <use xlink:href="#DejaVuSans-6f" transform="translate(53.962891 0)"/>
      <use xlink:href="#DejaVuSans-67" transform="translate(115.144531 0)"/>
      <use xlink:href="#DejaVuSans-69" transform="translate(178.621094 0)"/>
      <use xlink:href="#DejaVuSans-74" transform="translate(206.404297 0)"/>
      <use xlink:href="#DejaVuSans-73" transform="translate(245.613281 0)"/>
      <use xlink:href="#DejaVuSans-20" transform="translate(297.712891 0)"/>
      <use xlink:href="#DejaVuSans-28" transform="translate(329.5 0)"/>
      <use xlink:href="#DejaVuSans-42" transform="translate(368.513672 0)"/>
      <use xlink:href="#DejaVuSans-61" transform="translate(437.117188 0)"/>
      <use xlink:href="#DejaVuSans-73" transform="translate(498.396484 0)"/>
      <use xlink:href="#DejaVuSans-65" transform="translate(550.496094 0)"/>
      <use xlink:href="#DejaVuSans-6c" transform="translate(612.019531 0)"/>
      <use xlink:href="#DejaVuSans-69" transform="translate(639.802734 0)"/>
      <use xlink:href="#DejaVuSans-6e" transform="translate(667.585938 0)"/>
      <use xlink:href="#DejaVuSans-65" transform="translate(730.964844 0)"/>
      <use xlink:href="#DejaVuSans-29" transform="translate(792.488281 0)"/>
     </g>
    </g>
    <g id="line2d_24">
     <path d="M 316.00404 41.274494 
L 324.33404 41.274494 
L 332.66404 41.274494 
" style="fill: none; stroke: #ff7f0e; stroke-width: 1.5; stroke-linecap: round"/>
    </g>
    <g id="text_23">
     <!-- GNN -->
     <g style="fill: #262626" transform="translate(339.32804 44.189994) scale(0.0833 -0.0833)">
      <defs>
       <path id="DejaVuSans-47" d="M 3809 666 
L 3809 1919 
L 2778 1919 
L 2778 2438 
L 4434 2438 
L 4434 434 
Q 4069 175 3628 42 
Q 3188 -91 2688 -91 
Q 1594 -91 976 548 
Q 359 1188 359 2328 
Q 359 3472 976 4111 
Q 1594 4750 2688 4750 
Q 3144 4750 3555 4637 
Q 3966 4525 4313 4306 
L 4313 3634 
Q 3963 3931 3569 4081 
Q 3175 4231 2741 4231 
Q 1884 4231 1454 3753 
Q 1025 3275 1025 2328 
Q 1025 1384 1454 906 
Q 1884 428 2741 428 
Q 3075 428 3337 486 
Q 3600 544 3809 666 
z
" transform="scale(0.015625)"/>
       <path id="DejaVuSans-4e" d="M 628 4666 
L 1478 4666 
L 3547 763 
L 3547 4666 
L 4159 4666 
L 4159 0 
L 3309 0 
L 1241 3903 
L 1241 0 
L 628 0 
L 628 4666 
z
" transform="scale(0.015625)"/>
      </defs>
      <use xlink:href="#DejaVuSans-47"/>
      <use xlink:href="#DejaVuSans-4e" transform="translate(77.490234 0)"/>
      <use xlink:href="#DejaVuSans-4e" transform="translate(152.294922 0)"/>
     </g>
    </g>
    <g id="line2d_25">
     <path d="M 374.906251 41.274494 
L 383.236251 41.274494 
L 391.566251 41.274494 
" style="fill: none; stroke: #2ca02c; stroke-width: 1.5; stroke-linecap: round"/>
    </g>
    <g id="text_24">
     <!-- GNN_K -->
     <g style="fill: #262626" transform="translate(398.230251 44.189994) scale(0.0833 -0.0833)">
      <defs>
       <path id="DejaVuSans-5f" d="M 3263 -1063 
L 3263 -1509 
L -63 -1509 
L -63 -1063 
L 3263 -1063 
z
" transform="scale(0.015625)"/>
       <path id="DejaVuSans-4b" d="M 628 4666 
L 1259 4666 
L 1259 2694 
L 3353 4666 
L 4166 4666 
L 1850 2491 
L 4331 0 
L 3500 0 
L 1259 2247 
L 1259 0 
L 628 0 
L 628 4666 
z
" transform="scale(0.015625)"/>
      </defs>
      <use xlink:href="#DejaVuSans-47"/>
      <use xlink:href="#DejaVuSans-4e" transform="translate(77.490234 0)"/>
      <use xlink:href="#DejaVuSans-4e" transform="translate(152.294922 0)"/>
      <use xlink:href="#DejaVuSans-5f" transform="translate(227.099609 0)"/>
      <use xlink:href="#DejaVuSans-4b" transform="translate(277.099609 0)"/>
     </g>
    </g>
    <g id="line2d_26">
     <path d="M 443.43612 41.274494 
L 451.76612 41.274494 
L 460.09612 41.274494 
" style="fill: none; stroke: #d62728; stroke-width: 1.5; stroke-linecap: round"/>
    </g>
    <g id="text_25">
     <!-- GNN_N -->
     <g style="fill: #262626" transform="translate(466.76012 44.189994) scale(0.0833 -0.0833)">
      <use xlink:href="#DejaVuSans-47"/>
      <use xlink:href="#DejaVuSans-4e" transform="translate(77.490234 0)"/>
      <use xlink:href="#DejaVuSans-4e" transform="translate(152.294922 0)"/>
      <use xlink:href="#DejaVuSans-5f" transform="translate(227.099609 0)"/>
      <use xlink:href="#DejaVuSans-4e" transform="translate(277.099609 0)"/>
     </g>
    </g>
   </g>
  </g>
  <g id="text_26">
   <!-- Rewards: Pendulum-v1 (Discretized) (Entropy) -->
   <g style="fill: #262626" transform="translate(166.298438 17.758125) scale(0.12 -0.12)">
    <defs>
     <path id="DejaVuSans-Bold-52" d="M 2297 2597 
Q 2675 2597 2839 2737 
Q 3003 2878 3003 3200 
Q 3003 3519 2839 3656 
Q 2675 3794 2297 3794 
L 1791 3794 
L 1791 2597 
L 2297 2597 
z
M 1791 1766 
L 1791 0 
L 588 0 
L 588 4666 
L 2425 4666 
Q 3347 4666 3776 4356 
Q 4206 4047 4206 3378 
Q 4206 2916 3982 2619 
Q 3759 2322 3309 2181 
Q 3556 2125 3751 1926 
Q 3947 1728 4147 1325 
L 4800 0 
L 3519 0 
L 2950 1159 
Q 2778 1509 2601 1637 
Q 2425 1766 2131 1766 
L 1791 1766 
z
" transform="scale(0.015625)"/>
     <path id="DejaVuSans-Bold-65" d="M 4031 1759 
L 4031 1441 
L 1416 1441 
Q 1456 1047 1700 850 
Q 1944 653 2381 653 
Q 2734 653 3104 758 
Q 3475 863 3866 1075 
L 3866 213 
Q 3469 63 3072 -14 
Q 2675 -91 2278 -91 
Q 1328 -91 801 392 
Q 275 875 275 1747 
Q 275 2603 792 3093 
Q 1309 3584 2216 3584 
Q 3041 3584 3536 3087 
Q 4031 2591 4031 1759 
z
M 2881 2131 
Q 2881 2450 2695 2645 
Q 2509 2841 2209 2841 
Q 1884 2841 1681 2658 
Q 1478 2475 1428 2131 
L 2881 2131 
z
" transform="scale(0.015625)"/>
     <path id="DejaVuSans-Bold-77" d="M 225 3500 
L 1313 3500 
L 1900 1088 
L 2491 3500 
L 3425 3500 
L 4013 1113 
L 4603 3500 
L 5691 3500 
L 4769 0 
L 3547 0 
L 2956 2406 
L 2369 0 
L 1147 0 
L 225 3500 
z
" transform="scale(0.015625)"/>
     <path id="DejaVuSans-Bold-61" d="M 2106 1575 
Q 1756 1575 1579 1456 
Q 1403 1338 1403 1106 
Q 1403 894 1545 773 
Q 1688 653 1941 653 
Q 2256 653 2472 879 
Q 2688 1106 2688 1447 
L 2688 1575 
L 2106 1575 
z
M 3816 1997 
L 3816 0 
L 2688 0 
L 2688 519 
Q 2463 200 2181 54 
Q 1900 -91 1497 -91 
Q 953 -91 614 226 
Q 275 544 275 1050 
Q 275 1666 698 1953 
Q 1122 2241 2028 2241 
L 2688 2241 
L 2688 2328 
Q 2688 2594 2478 2717 
Q 2269 2841 1825 2841 
Q 1466 2841 1156 2769 
Q 847 2697 581 2553 
L 581 3406 
Q 941 3494 1303 3539 
Q 1666 3584 2028 3584 
Q 2975 3584 3395 3211 
Q 3816 2838 3816 1997 
z
" transform="scale(0.015625)"/>
     <path id="DejaVuSans-Bold-72" d="M 3138 2547 
Q 2991 2616 2845 2648 
Q 2700 2681 2553 2681 
Q 2122 2681 1889 2404 
Q 1656 2128 1656 1613 
L 1656 0 
L 538 0 
L 538 3500 
L 1656 3500 
L 1656 2925 
Q 1872 3269 2151 3426 
Q 2431 3584 2822 3584 
Q 2878 3584 2943 3579 
Q 3009 3575 3134 3559 
L 3138 2547 
z
" transform="scale(0.015625)"/>
     <path id="DejaVuSans-Bold-64" d="M 2919 2988 
L 2919 4863 
L 4044 4863 
L 4044 0 
L 2919 0 
L 2919 506 
Q 2688 197 2409 53 
Q 2131 -91 1766 -91 
Q 1119 -91 703 423 
Q 288 938 288 1747 
Q 288 2556 703 3070 
Q 1119 3584 1766 3584 
Q 2128 3584 2408 3439 
Q 2688 3294 2919 2988 
z
M 2181 722 
Q 2541 722 2730 984 
Q 2919 1247 2919 1747 
Q 2919 2247 2730 2509 
Q 2541 2772 2181 2772 
Q 1825 2772 1636 2509 
Q 1447 2247 1447 1747 
Q 1447 1247 1636 984 
Q 1825 722 2181 722 
z
" transform="scale(0.015625)"/>
     <path id="DejaVuSans-Bold-73" d="M 3272 3391 
L 3272 2541 
Q 2913 2691 2578 2766 
Q 2244 2841 1947 2841 
Q 1628 2841 1473 2761 
Q 1319 2681 1319 2516 
Q 1319 2381 1436 2309 
Q 1553 2238 1856 2203 
L 2053 2175 
Q 2913 2066 3209 1816 
Q 3506 1566 3506 1031 
Q 3506 472 3093 190 
Q 2681 -91 1863 -91 
Q 1516 -91 1145 -36 
Q 775 19 384 128 
L 384 978 
Q 719 816 1070 734 
Q 1422 653 1784 653 
Q 2113 653 2278 743 
Q 2444 834 2444 1013 
Q 2444 1163 2330 1236 
Q 2216 1309 1875 1350 
L 1678 1375 
Q 931 1469 631 1722 
Q 331 1975 331 2491 
Q 331 3047 712 3315 
Q 1094 3584 1881 3584 
Q 2191 3584 2531 3537 
Q 2872 3491 3272 3391 
z
" transform="scale(0.015625)"/>
     <path id="DejaVuSans-Bold-3a" d="M 716 3500 
L 1844 3500 
L 1844 2291 
L 716 2291 
L 716 3500 
z
M 716 1209 
L 1844 1209 
L 1844 0 
L 716 0 
L 716 1209 
z
" transform="scale(0.015625)"/>
     <path id="DejaVuSans-Bold-20" transform="scale(0.015625)"/>
     <path id="DejaVuSans-Bold-50" d="M 588 4666 
L 2584 4666 
Q 3475 4666 3951 4270 
Q 4428 3875 4428 3144 
Q 4428 2409 3951 2014 
Q 3475 1619 2584 1619 
L 1791 1619 
L 1791 0 
L 588 0 
L 588 4666 
z
M 1791 3794 
L 1791 2491 
L 2456 2491 
Q 2806 2491 2997 2661 
Q 3188 2831 3188 3144 
Q 3188 3456 2997 3625 
Q 2806 3794 2456 3794 
L 1791 3794 
z
" transform="scale(0.015625)"/>
     <path id="DejaVuSans-Bold-6e" d="M 4056 2131 
L 4056 0 
L 2931 0 
L 2931 347 
L 2931 1631 
Q 2931 2084 2911 2256 
Q 2891 2428 2841 2509 
Q 2775 2619 2662 2680 
Q 2550 2741 2406 2741 
Q 2056 2741 1856 2470 
Q 1656 2200 1656 1722 
L 1656 0 
L 538 0 
L 538 3500 
L 1656 3500 
L 1656 2988 
Q 1909 3294 2193 3439 
Q 2478 3584 2822 3584 
Q 3428 3584 3742 3212 
Q 4056 2841 4056 2131 
z
" transform="scale(0.015625)"/>
     <path id="DejaVuSans-Bold-75" d="M 500 1363 
L 500 3500 
L 1625 3500 
L 1625 3150 
Q 1625 2866 1622 2436 
Q 1619 2006 1619 1863 
Q 1619 1441 1641 1255 
Q 1663 1069 1716 984 
Q 1784 875 1895 815 
Q 2006 756 2150 756 
Q 2500 756 2700 1025 
Q 2900 1294 2900 1772 
L 2900 3500 
L 4019 3500 
L 4019 0 
L 2900 0 
L 2900 506 
Q 2647 200 2364 54 
Q 2081 -91 1741 -91 
Q 1134 -91 817 281 
Q 500 653 500 1363 
z
" transform="scale(0.015625)"/>
     <path id="DejaVuSans-Bold-6c" d="M 538 4863 
L 1656 4863 
L 1656 0 
L 538 0 
L 538 4863 
z
" transform="scale(0.015625)"/>
     <path id="DejaVuSans-Bold-6d" d="M 3781 2919 
Q 3994 3244 4286 3414 
Q 4578 3584 4928 3584 
Q 5531 3584 5847 3212 
Q 6163 2841 6163 2131 
L 6163 0 
L 5038 0 
L 5038 1825 
Q 5041 1866 5042 1909 
Q 5044 1953 5044 2034 
Q 5044 2406 4934 2573 
Q 4825 2741 4581 2741 
Q 4263 2741 4089 2478 
Q 3916 2216 3909 1719 
L 3909 0 
L 2784 0 
L 2784 1825 
Q 2784 2406 2684 2573 
Q 2584 2741 2328 2741 
Q 2006 2741 1831 2477 
Q 1656 2213 1656 1722 
L 1656 0 
L 531 0 
L 531 3500 
L 1656 3500 
L 1656 2988 
Q 1863 3284 2130 3434 
Q 2397 3584 2719 3584 
Q 3081 3584 3359 3409 
Q 3638 3234 3781 2919 
z
" transform="scale(0.015625)"/>
     <path id="DejaVuSans-Bold-2d" d="M 347 2297 
L 2309 2297 
L 2309 1388 
L 347 1388 
L 347 2297 
z
" transform="scale(0.015625)"/>
     <path id="DejaVuSans-Bold-76" d="M 97 3500 
L 1216 3500 
L 2088 1081 
L 2956 3500 
L 4078 3500 
L 2700 0 
L 1472 0 
L 97 3500 
z
" transform="scale(0.015625)"/>
     <path id="DejaVuSans-Bold-31" d="M 750 831 
L 1813 831 
L 1813 3847 
L 722 3622 
L 722 4441 
L 1806 4666 
L 2950 4666 
L 2950 831 
L 4013 831 
L 4013 0 
L 750 0 
L 750 831 
z
" transform="scale(0.015625)"/>
     <path id="DejaVuSans-Bold-28" d="M 2413 -844 
L 1484 -844 
Q 1006 -72 778 623 
Q 550 1319 550 2003 
Q 550 2688 779 3389 
Q 1009 4091 1484 4856 
L 2413 4856 
Q 2013 4116 1813 3408 
Q 1613 2700 1613 2009 
Q 1613 1319 1811 609 
Q 2009 -100 2413 -844 
z
" transform="scale(0.015625)"/>
     <path id="DejaVuSans-Bold-44" d="M 1791 3756 
L 1791 909 
L 2222 909 
Q 2959 909 3348 1275 
Q 3738 1641 3738 2338 
Q 3738 3031 3350 3393 
Q 2963 3756 2222 3756 
L 1791 3756 
z
M 588 4666 
L 1856 4666 
Q 2919 4666 3439 4514 
Q 3959 4363 4331 4000 
Q 4659 3684 4818 3271 
Q 4978 2859 4978 2338 
Q 4978 1809 4818 1395 
Q 4659 981 4331 666 
Q 3956 303 3431 151 
Q 2906 0 1856 0 
L 588 0 
L 588 4666 
z
" transform="scale(0.015625)"/>
     <path id="DejaVuSans-Bold-69" d="M 538 3500 
L 1656 3500 
L 1656 0 
L 538 0 
L 538 3500 
z
M 538 4863 
L 1656 4863 
L 1656 3950 
L 538 3950 
L 538 4863 
z
" transform="scale(0.015625)"/>
     <path id="DejaVuSans-Bold-63" d="M 3366 3391 
L 3366 2478 
Q 3138 2634 2908 2709 
Q 2678 2784 2431 2784 
Q 1963 2784 1702 2511 
Q 1441 2238 1441 1747 
Q 1441 1256 1702 982 
Q 1963 709 2431 709 
Q 2694 709 2930 787 
Q 3166 866 3366 1019 
L 3366 103 
Q 3103 6 2833 -42 
Q 2563 -91 2291 -91 
Q 1344 -91 809 395 
Q 275 881 275 1747 
Q 275 2613 809 3098 
Q 1344 3584 2291 3584 
Q 2566 3584 2833 3536 
Q 3100 3488 3366 3391 
z
" transform="scale(0.015625)"/>
     <path id="DejaVuSans-Bold-74" d="M 1759 4494 
L 1759 3500 
L 2913 3500 
L 2913 2700 
L 1759 2700 
L 1759 1216 
Q 1759 972 1856 886 
Q 1953 800 2241 800 
L 2816 800 
L 2816 0 
L 1856 0 
Q 1194 0 917 276 
Q 641 553 641 1216 
L 641 2700 
L 84 2700 
L 84 3500 
L 641 3500 
L 641 4494 
L 1759 4494 
z
" transform="scale(0.015625)"/>
     <path id="DejaVuSans-Bold-7a" d="M 366 3500 
L 3419 3500 
L 3419 2719 
L 1575 800 
L 3419 800 
L 3419 0 
L 288 0 
L 288 781 
L 2131 2700 
L 366 2700 
L 366 3500 
z
" transform="scale(0.015625)"/>
     <path id="DejaVuSans-Bold-29" d="M 513 -844 
Q 913 -100 1113 609 
Q 1313 1319 1313 2009 
Q 1313 2700 1113 3408 
Q 913 4116 513 4856 
L 1441 4856 
Q 1916 4091 2145 3389 
Q 2375 2688 2375 2003 
Q 2375 1319 2147 623 
Q 1919 -72 1441 -844 
L 513 -844 
z
" transform="scale(0.015625)"/>
     <path id="DejaVuSans-Bold-45" d="M 588 4666 
L 3834 4666 
L 3834 3756 
L 1791 3756 
L 1791 2888 
L 3713 2888 
L 3713 1978 
L 1791 1978 
L 1791 909 
L 3903 909 
L 3903 0 
L 588 0 
L 588 4666 
z
" transform="scale(0.015625)"/>
     <path id="DejaVuSans-Bold-6f" d="M 2203 2784 
Q 1831 2784 1636 2517 
Q 1441 2250 1441 1747 
Q 1441 1244 1636 976 
Q 1831 709 2203 709 
Q 2569 709 2762 976 
Q 2956 1244 2956 1747 
Q 2956 2250 2762 2517 
Q 2569 2784 2203 2784 
z
M 2203 3584 
Q 3106 3584 3614 3096 
Q 4122 2609 4122 1747 
Q 4122 884 3614 396 
Q 3106 -91 2203 -91 
Q 1297 -91 786 396 
Q 275 884 275 1747 
Q 275 2609 786 3096 
Q 1297 3584 2203 3584 
z
" transform="scale(0.015625)"/>
     <path id="DejaVuSans-Bold-70" d="M 1656 506 
L 1656 -1331 
L 538 -1331 
L 538 3500 
L 1656 3500 
L 1656 2988 
Q 1888 3294 2169 3439 
Q 2450 3584 2816 3584 
Q 3463 3584 3878 3070 
Q 4294 2556 4294 1747 
Q 4294 938 3878 423 
Q 3463 -91 2816 -91 
Q 2450 -91 2169 54 
Q 1888 200 1656 506 
z
M 2400 2772 
Q 2041 2772 1848 2508 
Q 1656 2244 1656 1747 
Q 1656 1250 1848 986 
Q 2041 722 2400 722 
Q 2759 722 2948 984 
Q 3138 1247 3138 1747 
Q 3138 2247 2948 2509 
Q 2759 2772 2400 2772 
z
" transform="scale(0.015625)"/>
     <path id="DejaVuSans-Bold-79" d="M 78 3500 
L 1197 3500 
L 2138 1125 
L 2938 3500 
L 4056 3500 
L 2584 -331 
Q 2363 -916 2067 -1148 
Q 1772 -1381 1288 -1381 
L 641 -1381 
L 641 -647 
L 991 -647 
Q 1275 -647 1404 -556 
Q 1534 -466 1606 -231 
L 1638 -134 
L 78 3500 
z
" transform="scale(0.015625)"/>
    </defs>
    <use xlink:href="#DejaVuSans-Bold-52"/>
    <use xlink:href="#DejaVuSans-Bold-65" transform="translate(77.001953 0)"/>
    <use xlink:href="#DejaVuSans-Bold-77" transform="translate(144.824219 0)"/>
    <use xlink:href="#DejaVuSans-Bold-61" transform="translate(237.207031 0)"/>
    <use xlink:href="#DejaVuSans-Bold-72" transform="translate(304.6875 0)"/>
    <use xlink:href="#DejaVuSans-Bold-64" transform="translate(354.003906 0)"/>
    <use xlink:href="#DejaVuSans-Bold-73" transform="translate(425.585938 0)"/>
    <use xlink:href="#DejaVuSans-Bold-3a" transform="translate(485.107422 0)"/>
    <use xlink:href="#DejaVuSans-Bold-20" transform="translate(525.097656 0)"/>
    <use xlink:href="#DejaVuSans-Bold-50" transform="translate(559.912109 0)"/>
    <use xlink:href="#DejaVuSans-Bold-65" transform="translate(633.203125 0)"/>
    <use xlink:href="#DejaVuSans-Bold-6e" transform="translate(701.025391 0)"/>
    <use xlink:href="#DejaVuSans-Bold-64" transform="translate(772.216797 0)"/>
    <use xlink:href="#DejaVuSans-Bold-75" transform="translate(843.798828 0)"/>
    <use xlink:href="#DejaVuSans-Bold-6c" transform="translate(914.990234 0)"/>
    <use xlink:href="#DejaVuSans-Bold-75" transform="translate(949.267578 0)"/>
    <use xlink:href="#DejaVuSans-Bold-6d" transform="translate(1020.458984 0)"/>
    <use xlink:href="#DejaVuSans-Bold-2d" transform="translate(1124.658203 0)"/>
    <use xlink:href="#DejaVuSans-Bold-76" transform="translate(1166.162109 0)"/>
    <use xlink:href="#DejaVuSans-Bold-31" transform="translate(1231.347656 0)"/>
    <use xlink:href="#DejaVuSans-Bold-20" transform="translate(1300.927734 0)"/>
    <use xlink:href="#DejaVuSans-Bold-28" transform="translate(1335.742188 0)"/>
    <use xlink:href="#DejaVuSans-Bold-44" transform="translate(1381.445312 0)"/>
    <use xlink:href="#DejaVuSans-Bold-69" transform="translate(1464.453125 0)"/>
    <use xlink:href="#DejaVuSans-Bold-73" transform="translate(1498.730469 0)"/>
    <use xlink:href="#DejaVuSans-Bold-63" transform="translate(1558.251953 0)"/>
    <use xlink:href="#DejaVuSans-Bold-72" transform="translate(1617.529297 0)"/>
    <use xlink:href="#DejaVuSans-Bold-65" transform="translate(1666.845703 0)"/>
    <use xlink:href="#DejaVuSans-Bold-74" transform="translate(1734.667969 0)"/>
    <use xlink:href="#DejaVuSans-Bold-69" transform="translate(1782.470703 0)"/>
    <use xlink:href="#DejaVuSans-Bold-7a" transform="translate(1816.748047 0)"/>
    <use xlink:href="#DejaVuSans-Bold-65" transform="translate(1874.951172 0)"/>
    <use xlink:href="#DejaVuSans-Bold-64" transform="translate(1942.773438 0)"/>
    <use xlink:href="#DejaVuSans-Bold-29" transform="translate(2014.355469 0)"/>
    <use xlink:href="#DejaVuSans-Bold-20" transform="translate(2060.058594 0)"/>
    <use xlink:href="#DejaVuSans-Bold-28" transform="translate(2094.873047 0)"/>
    <use xlink:href="#DejaVuSans-Bold-45" transform="translate(2140.576172 0)"/>
    <use xlink:href="#DejaVuSans-Bold-6e" transform="translate(2208.886719 0)"/>
    <use xlink:href="#DejaVuSans-Bold-74" transform="translate(2280.078125 0)"/>
    <use xlink:href="#DejaVuSans-Bold-72" transform="translate(2327.880859 0)"/>
    <use xlink:href="#DejaVuSans-Bold-6f" transform="translate(2377.197266 0)"/>
    <use xlink:href="#DejaVuSans-Bold-70" transform="translate(2445.898438 0)"/>
    <use xlink:href="#DejaVuSans-Bold-79" transform="translate(2517.480469 0)"/>
    <use xlink:href="#DejaVuSans-Bold-29" transform="translate(2582.666016 0)"/>
   </g>
  </g>
 </g>
 <defs>
  <clipPath id="pad0d555904">
   <rect x="65.63" y="57.0062" width="571.57" height="333.0338"/>
  </clipPath>
 </defs>
</svg>
