<?xml version="1.0" encoding="utf-8" standalone="no"?>
<!DOCTYPE svg PUBLIC "-//W3C//DTD SVG 1.1//EN"
  "http://www.w3.org/Graphics/SVG/1.1/DTD/svg11.dtd">
<svg xmlns:xlink="http://www.w3.org/1999/xlink" width="648pt" height="432pt" viewBox="0 0 648 432" xmlns="http://www.w3.org/2000/svg" version="1.1">
 <metadata>
  <rdf:RDF xmlns:dc="http://purl.org/dc/elements/1.1/" xmlns:cc="http://creativecommons.org/ns#" xmlns:rdf="http://www.w3.org/1999/02/22-rdf-syntax-ns#">
   <cc:Work>
    <dc:type rdf:resource="http://purl.org/dc/dcmitype/StillImage"/>
    <dc:date>2025-07-17T10:28:41.696796</dc:date>
    <dc:format>image/svg+xml</dc:format>
    <dc:creator>
     <cc:Agent>
      <dc:title>Matplotlib v3.10.0, https://matplotlib.org/</dc:title>
     </cc:Agent>
    </dc:creator>
   </cc:Work>
  </rdf:RDF>
 </metadata>
 <defs>
  <style type="text/css">*{stroke-linejoin: round; stroke-linecap: butt}</style>
 </defs>
 <g id="figure_1">
  <g id="patch_1">
   <path d="M 0 432 
L 648 432 
L 648 0 
L 0 0 
z
" style="fill: #ffffff"/>
  </g>
  <g id="axes_1">
   <g id="patch_2">
    <path d="M 65.63 390.04 
L 637.2 390.04 
L 637.2 57.0062 
L 65.63 57.0062 
z
" style="fill: #eaeaf2"/>
   </g>
   <g id="matplotlib.axis_1">
    <g id="xtick_1">
     <g id="line2d_1">
      <path d="M 65.630837 390.04 
L 65.630837 57.0062 
" clip-path="url(#pefcebe436d)" style="fill: none; stroke: #ffffff; stroke-width: 0.8; stroke-linecap: round"/>
     </g>
     <g id="text_1">
      <!-- 0.00 -->
      <g style="fill: #262626" transform="translate(54.498025 404.638438) scale(0.1 -0.1)">
       <defs>
        <path id="DejaVuSans-30" d="M 2034 4250 
Q 1547 4250 1301 3770 
Q 1056 3291 1056 2328 
Q 1056 1369 1301 889 
Q 1547 409 2034 409 
Q 2525 409 2770 889 
Q 3016 1369 3016 2328 
Q 3016 3291 2770 3770 
Q 2525 4250 2034 4250 
z
M 2034 4750 
Q 2819 4750 3233 4129 
Q 3647 3509 3647 2328 
Q 3647 1150 3233 529 
Q 2819 -91 2034 -91 
Q 1250 -91 836 529 
Q 422 1150 422 2328 
Q 422 3509 836 4129 
Q 1250 4750 2034 4750 
z
" transform="scale(0.015625)"/>
        <path id="DejaVuSans-2e" d="M 684 794 
L 1344 794 
L 1344 0 
L 684 0 
L 684 794 
z
" transform="scale(0.015625)"/>
       </defs>
       <use xlink:href="#DejaVuSans-30"/>
       <use xlink:href="#DejaVuSans-2e" transform="translate(63.623047 0)"/>
       <use xlink:href="#DejaVuSans-30" transform="translate(95.410156 0)"/>
       <use xlink:href="#DejaVuSans-30" transform="translate(159.033203 0)"/>
      </g>
     </g>
    </g>
    <g id="xtick_2">
     <g id="line2d_2">
      <path d="M 135.402361 390.04 
L 135.402361 57.0062 
" clip-path="url(#pefcebe436d)" style="fill: none; stroke: #ffffff; stroke-width: 0.8; stroke-linecap: round"/>
     </g>
     <g id="text_2">
      <!-- 0.25 -->
      <g style="fill: #262626" transform="translate(124.269549 404.638438) scale(0.1 -0.1)">
       <defs>
        <path id="DejaVuSans-32" d="M 1228 531 
L 3431 531 
L 3431 0 
L 469 0 
L 469 531 
Q 828 903 1448 1529 
Q 2069 2156 2228 2338 
Q 2531 2678 2651 2914 
Q 2772 3150 2772 3378 
Q 2772 3750 2511 3984 
Q 2250 4219 1831 4219 
Q 1534 4219 1204 4116 
Q 875 4013 500 3803 
L 500 4441 
Q 881 4594 1212 4672 
Q 1544 4750 1819 4750 
Q 2544 4750 2975 4387 
Q 3406 4025 3406 3419 
Q 3406 3131 3298 2873 
Q 3191 2616 2906 2266 
Q 2828 2175 2409 1742 
Q 1991 1309 1228 531 
z
" transform="scale(0.015625)"/>
        <path id="DejaVuSans-35" d="M 691 4666 
L 3169 4666 
L 3169 4134 
L 1269 4134 
L 1269 2991 
Q 1406 3038 1543 3061 
Q 1681 3084 1819 3084 
Q 2600 3084 3056 2656 
Q 3513 2228 3513 1497 
Q 3513 744 3044 326 
Q 2575 -91 1722 -91 
Q 1428 -91 1123 -41 
Q 819 9 494 109 
L 494 744 
Q 775 591 1075 516 
Q 1375 441 1709 441 
Q 2250 441 2565 725 
Q 2881 1009 2881 1497 
Q 2881 1984 2565 2268 
Q 2250 2553 1709 2553 
Q 1456 2553 1204 2497 
Q 953 2441 691 2322 
L 691 4666 
z
" transform="scale(0.015625)"/>
       </defs>
       <use xlink:href="#DejaVuSans-30"/>
       <use xlink:href="#DejaVuSans-2e" transform="translate(63.623047 0)"/>
       <use xlink:href="#DejaVuSans-32" transform="translate(95.410156 0)"/>
       <use xlink:href="#DejaVuSans-35" transform="translate(159.033203 0)"/>
      </g>
     </g>
    </g>
    <g id="xtick_3">
     <g id="line2d_3">
      <path d="M 205.173885 390.04 
L 205.173885 57.0062 
" clip-path="url(#pefcebe436d)" style="fill: none; stroke: #ffffff; stroke-width: 0.8; stroke-linecap: round"/>
     </g>
     <g id="text_3">
      <!-- 0.50 -->
      <g style="fill: #262626" transform="translate(194.041073 404.638438) scale(0.1 -0.1)">
       <use xlink:href="#DejaVuSans-30"/>
       <use xlink:href="#DejaVuSans-2e" transform="translate(63.623047 0)"/>
       <use xlink:href="#DejaVuSans-35" transform="translate(95.410156 0)"/>
       <use xlink:href="#DejaVuSans-30" transform="translate(159.033203 0)"/>
      </g>
     </g>
    </g>
    <g id="xtick_4">
     <g id="line2d_4">
      <path d="M 274.94541 390.04 
L 274.94541 57.0062 
" clip-path="url(#pefcebe436d)" style="fill: none; stroke: #ffffff; stroke-width: 0.8; stroke-linecap: round"/>
     </g>
     <g id="text_4">
      <!-- 0.75 -->
      <g style="fill: #262626" transform="translate(263.812597 404.638438) scale(0.1 -0.1)">
       <defs>
        <path id="DejaVuSans-37" d="M 525 4666 
L 3525 4666 
L 3525 4397 
L 1831 0 
L 1172 0 
L 2766 4134 
L 525 4134 
L 525 4666 
z
" transform="scale(0.015625)"/>
       </defs>
       <use xlink:href="#DejaVuSans-30"/>
       <use xlink:href="#DejaVuSans-2e" transform="translate(63.623047 0)"/>
       <use xlink:href="#DejaVuSans-37" transform="translate(95.410156 0)"/>
       <use xlink:href="#DejaVuSans-35" transform="translate(159.033203 0)"/>
      </g>
     </g>
    </g>
    <g id="xtick_5">
     <g id="line2d_5">
      <path d="M 344.716934 390.04 
L 344.716934 57.0062 
" clip-path="url(#pefcebe436d)" style="fill: none; stroke: #ffffff; stroke-width: 0.8; stroke-linecap: round"/>
     </g>
     <g id="text_5">
      <!-- 1.00 -->
      <g style="fill: #262626" transform="translate(333.584121 404.638438) scale(0.1 -0.1)">
       <defs>
        <path id="DejaVuSans-31" d="M 794 531 
L 1825 531 
L 1825 4091 
L 703 3866 
L 703 4441 
L 1819 4666 
L 2450 4666 
L 2450 531 
L 3481 531 
L 3481 0 
L 794 0 
L 794 531 
z
" transform="scale(0.015625)"/>
       </defs>
       <use xlink:href="#DejaVuSans-31"/>
       <use xlink:href="#DejaVuSans-2e" transform="translate(63.623047 0)"/>
       <use xlink:href="#DejaVuSans-30" transform="translate(95.410156 0)"/>
       <use xlink:href="#DejaVuSans-30" transform="translate(159.033203 0)"/>
      </g>
     </g>
    </g>
    <g id="xtick_6">
     <g id="line2d_6">
      <path d="M 414.488458 390.04 
L 414.488458 57.0062 
" clip-path="url(#pefcebe436d)" style="fill: none; stroke: #ffffff; stroke-width: 0.8; stroke-linecap: round"/>
     </g>
     <g id="text_6">
      <!-- 1.25 -->
      <g style="fill: #262626" transform="translate(403.355645 404.638438) scale(0.1 -0.1)">
       <use xlink:href="#DejaVuSans-31"/>
       <use xlink:href="#DejaVuSans-2e" transform="translate(63.623047 0)"/>
       <use xlink:href="#DejaVuSans-32" transform="translate(95.410156 0)"/>
       <use xlink:href="#DejaVuSans-35" transform="translate(159.033203 0)"/>
      </g>
     </g>
    </g>
    <g id="xtick_7">
     <g id="line2d_7">
      <path d="M 484.259982 390.04 
L 484.259982 57.0062 
" clip-path="url(#pefcebe436d)" style="fill: none; stroke: #ffffff; stroke-width: 0.8; stroke-linecap: round"/>
     </g>
     <g id="text_7">
      <!-- 1.50 -->
      <g style="fill: #262626" transform="translate(473.127169 404.638438) scale(0.1 -0.1)">
       <use xlink:href="#DejaVuSans-31"/>
       <use xlink:href="#DejaVuSans-2e" transform="translate(63.623047 0)"/>
       <use xlink:href="#DejaVuSans-35" transform="translate(95.410156 0)"/>
       <use xlink:href="#DejaVuSans-30" transform="translate(159.033203 0)"/>
      </g>
     </g>
    </g>
    <g id="xtick_8">
     <g id="line2d_8">
      <path d="M 554.031506 390.04 
L 554.031506 57.0062 
" clip-path="url(#pefcebe436d)" style="fill: none; stroke: #ffffff; stroke-width: 0.8; stroke-linecap: round"/>
     </g>
     <g id="text_8">
      <!-- 1.75 -->
      <g style="fill: #262626" transform="translate(542.898694 404.638438) scale(0.1 -0.1)">
       <use xlink:href="#DejaVuSans-31"/>
       <use xlink:href="#DejaVuSans-2e" transform="translate(63.623047 0)"/>
       <use xlink:href="#DejaVuSans-37" transform="translate(95.410156 0)"/>
       <use xlink:href="#DejaVuSans-35" transform="translate(159.033203 0)"/>
      </g>
     </g>
    </g>
    <g id="xtick_9">
     <g id="line2d_9">
      <path d="M 623.80303 390.04 
L 623.80303 57.0062 
" clip-path="url(#pefcebe436d)" style="fill: none; stroke: #ffffff; stroke-width: 0.8; stroke-linecap: round"/>
     </g>
     <g id="text_9">
      <!-- 2.00 -->
      <g style="fill: #262626" transform="translate(612.670218 404.638438) scale(0.1 -0.1)">
       <use xlink:href="#DejaVuSans-32"/>
       <use xlink:href="#DejaVuSans-2e" transform="translate(63.623047 0)"/>
       <use xlink:href="#DejaVuSans-30" transform="translate(95.410156 0)"/>
       <use xlink:href="#DejaVuSans-30" transform="translate(159.033203 0)"/>
      </g>
     </g>
    </g>
    <g id="text_10">
     <!-- Steps -->
     <g style="fill: #262626" transform="translate(337.425156 418.316562) scale(0.1 -0.1)">
      <defs>
       <path id="DejaVuSans-53" d="M 3425 4513 
L 3425 3897 
Q 3066 4069 2747 4153 
Q 2428 4238 2131 4238 
Q 1616 4238 1336 4038 
Q 1056 3838 1056 3469 
Q 1056 3159 1242 3001 
Q 1428 2844 1947 2747 
L 2328 2669 
Q 3034 2534 3370 2195 
Q 3706 1856 3706 1288 
Q 3706 609 3251 259 
Q 2797 -91 1919 -91 
Q 1588 -91 1214 -16 
Q 841 59 441 206 
L 441 856 
Q 825 641 1194 531 
Q 1563 422 1919 422 
Q 2459 422 2753 634 
Q 3047 847 3047 1241 
Q 3047 1584 2836 1778 
Q 2625 1972 2144 2069 
L 1759 2144 
Q 1053 2284 737 2584 
Q 422 2884 422 3419 
Q 422 4038 858 4394 
Q 1294 4750 2059 4750 
Q 2388 4750 2728 4690 
Q 3069 4631 3425 4513 
z
" transform="scale(0.015625)"/>
       <path id="DejaVuSans-74" d="M 1172 4494 
L 1172 3500 
L 2356 3500 
L 2356 3053 
L 1172 3053 
L 1172 1153 
Q 1172 725 1289 603 
Q 1406 481 1766 481 
L 2356 481 
L 2356 0 
L 1766 0 
Q 1100 0 847 248 
Q 594 497 594 1153 
L 594 3053 
L 172 3053 
L 172 3500 
L 594 3500 
L 594 4494 
L 1172 4494 
z
" transform="scale(0.015625)"/>
       <path id="DejaVuSans-65" d="M 3597 1894 
L 3597 1613 
L 953 1613 
Q 991 1019 1311 708 
Q 1631 397 2203 397 
Q 2534 397 2845 478 
Q 3156 559 3463 722 
L 3463 178 
Q 3153 47 2828 -22 
Q 2503 -91 2169 -91 
Q 1331 -91 842 396 
Q 353 884 353 1716 
Q 353 2575 817 3079 
Q 1281 3584 2069 3584 
Q 2775 3584 3186 3129 
Q 3597 2675 3597 1894 
z
M 3022 2063 
Q 3016 2534 2758 2815 
Q 2500 3097 2075 3097 
Q 1594 3097 1305 2825 
Q 1016 2553 972 2059 
L 3022 2063 
z
" transform="scale(0.015625)"/>
       <path id="DejaVuSans-70" d="M 1159 525 
L 1159 -1331 
L 581 -1331 
L 581 3500 
L 1159 3500 
L 1159 2969 
Q 1341 3281 1617 3432 
Q 1894 3584 2278 3584 
Q 2916 3584 3314 3078 
Q 3713 2572 3713 1747 
Q 3713 922 3314 415 
Q 2916 -91 2278 -91 
Q 1894 -91 1617 61 
Q 1341 213 1159 525 
z
M 3116 1747 
Q 3116 2381 2855 2742 
Q 2594 3103 2138 3103 
Q 1681 3103 1420 2742 
Q 1159 2381 1159 1747 
Q 1159 1113 1420 752 
Q 1681 391 2138 391 
Q 2594 391 2855 752 
Q 3116 1113 3116 1747 
z
" transform="scale(0.015625)"/>
       <path id="DejaVuSans-73" d="M 2834 3397 
L 2834 2853 
Q 2591 2978 2328 3040 
Q 2066 3103 1784 3103 
Q 1356 3103 1142 2972 
Q 928 2841 928 2578 
Q 928 2378 1081 2264 
Q 1234 2150 1697 2047 
L 1894 2003 
Q 2506 1872 2764 1633 
Q 3022 1394 3022 966 
Q 3022 478 2636 193 
Q 2250 -91 1575 -91 
Q 1294 -91 989 -36 
Q 684 19 347 128 
L 347 722 
Q 666 556 975 473 
Q 1284 391 1588 391 
Q 1994 391 2212 530 
Q 2431 669 2431 922 
Q 2431 1156 2273 1281 
Q 2116 1406 1581 1522 
L 1381 1569 
Q 847 1681 609 1914 
Q 372 2147 372 2553 
Q 372 3047 722 3315 
Q 1072 3584 1716 3584 
Q 2034 3584 2315 3537 
Q 2597 3491 2834 3397 
z
" transform="scale(0.015625)"/>
      </defs>
      <use xlink:href="#DejaVuSans-53"/>
      <use xlink:href="#DejaVuSans-74" transform="translate(63.476562 0)"/>
      <use xlink:href="#DejaVuSans-65" transform="translate(102.685547 0)"/>
      <use xlink:href="#DejaVuSans-70" transform="translate(164.208984 0)"/>
      <use xlink:href="#DejaVuSans-73" transform="translate(227.685547 0)"/>
     </g>
    </g>
    <g id="text_11">
     <!-- 1e6 -->
     <g style="fill: #262626" transform="translate(618.321875 417.316562) scale(0.1 -0.1)">
      <defs>
       <path id="DejaVuSans-36" d="M 2113 2584 
Q 1688 2584 1439 2293 
Q 1191 2003 1191 1497 
Q 1191 994 1439 701 
Q 1688 409 2113 409 
Q 2538 409 2786 701 
Q 3034 994 3034 1497 
Q 3034 2003 2786 2293 
Q 2538 2584 2113 2584 
z
M 3366 4563 
L 3366 3988 
Q 3128 4100 2886 4159 
Q 2644 4219 2406 4219 
Q 1781 4219 1451 3797 
Q 1122 3375 1075 2522 
Q 1259 2794 1537 2939 
Q 1816 3084 2150 3084 
Q 2853 3084 3261 2657 
Q 3669 2231 3669 1497 
Q 3669 778 3244 343 
Q 2819 -91 2113 -91 
Q 1303 -91 875 529 
Q 447 1150 447 2328 
Q 447 3434 972 4092 
Q 1497 4750 2381 4750 
Q 2619 4750 2861 4703 
Q 3103 4656 3366 4563 
z
" transform="scale(0.015625)"/>
      </defs>
      <use xlink:href="#DejaVuSans-31"/>
      <use xlink:href="#DejaVuSans-65" transform="translate(63.623047 0)"/>
      <use xlink:href="#DejaVuSans-36" transform="translate(125.146484 0)"/>
     </g>
    </g>
   </g>
   <g id="matplotlib.axis_2">
    <g id="ytick_1">
     <g id="line2d_10">
      <path d="M 65.63 390.04 
L 637.2 390.04 
" clip-path="url(#pefcebe436d)" style="fill: none; stroke: #ffffff; stroke-width: 0.8; stroke-linecap: round"/>
     </g>
     <g id="text_12">
      <!-- −1600 -->
      <g style="fill: #262626" transform="translate(24.800313 393.839219) scale(0.1 -0.1)">
       <defs>
        <path id="DejaVuSans-2212" d="M 678 2272 
L 4684 2272 
L 4684 1741 
L 678 1741 
L 678 2272 
z
" transform="scale(0.015625)"/>
       </defs>
       <use xlink:href="#DejaVuSans-2212"/>
       <use xlink:href="#DejaVuSans-31" transform="translate(83.789062 0)"/>
       <use xlink:href="#DejaVuSans-36" transform="translate(147.412109 0)"/>
       <use xlink:href="#DejaVuSans-30" transform="translate(211.035156 0)"/>
       <use xlink:href="#DejaVuSans-30" transform="translate(274.658203 0)"/>
      </g>
     </g>
    </g>
    <g id="ytick_2">
     <g id="line2d_11">
      <path d="M 65.63 348.410775 
L 637.2 348.410775 
" clip-path="url(#pefcebe436d)" style="fill: none; stroke: #ffffff; stroke-width: 0.8; stroke-linecap: round"/>
     </g>
     <g id="text_13">
      <!-- −1400 -->
      <g style="fill: #262626" transform="translate(24.800313 352.209994) scale(0.1 -0.1)">
       <defs>
        <path id="DejaVuSans-34" d="M 2419 4116 
L 825 1625 
L 2419 1625 
L 2419 4116 
z
M 2253 4666 
L 3047 4666 
L 3047 1625 
L 3713 1625 
L 3713 1100 
L 3047 1100 
L 3047 0 
L 2419 0 
L 2419 1100 
L 313 1100 
L 313 1709 
L 2253 4666 
z
" transform="scale(0.015625)"/>
       </defs>
       <use xlink:href="#DejaVuSans-2212"/>
       <use xlink:href="#DejaVuSans-31" transform="translate(83.789062 0)"/>
       <use xlink:href="#DejaVuSans-34" transform="translate(147.412109 0)"/>
       <use xlink:href="#DejaVuSans-30" transform="translate(211.035156 0)"/>
       <use xlink:href="#DejaVuSans-30" transform="translate(274.658203 0)"/>
      </g>
     </g>
    </g>
    <g id="ytick_3">
     <g id="line2d_12">
      <path d="M 65.63 306.78155 
L 637.2 306.78155 
" clip-path="url(#pefcebe436d)" style="fill: none; stroke: #ffffff; stroke-width: 0.8; stroke-linecap: round"/>
     </g>
     <g id="text_14">
      <!-- −1200 -->
      <g style="fill: #262626" transform="translate(24.800313 310.580769) scale(0.1 -0.1)">
       <use xlink:href="#DejaVuSans-2212"/>
       <use xlink:href="#DejaVuSans-31" transform="translate(83.789062 0)"/>
       <use xlink:href="#DejaVuSans-32" transform="translate(147.412109 0)"/>
       <use xlink:href="#DejaVuSans-30" transform="translate(211.035156 0)"/>
       <use xlink:href="#DejaVuSans-30" transform="translate(274.658203 0)"/>
      </g>
     </g>
    </g>
    <g id="ytick_4">
     <g id="line2d_13">
      <path d="M 65.63 265.152325 
L 637.2 265.152325 
" clip-path="url(#pefcebe436d)" style="fill: none; stroke: #ffffff; stroke-width: 0.8; stroke-linecap: round"/>
     </g>
     <g id="text_15">
      <!-- −1000 -->
      <g style="fill: #262626" transform="translate(24.800313 268.951544) scale(0.1 -0.1)">
       <use xlink:href="#DejaVuSans-2212"/>
       <use xlink:href="#DejaVuSans-31" transform="translate(83.789062 0)"/>
       <use xlink:href="#DejaVuSans-30" transform="translate(147.412109 0)"/>
       <use xlink:href="#DejaVuSans-30" transform="translate(211.035156 0)"/>
       <use xlink:href="#DejaVuSans-30" transform="translate(274.658203 0)"/>
      </g>
     </g>
    </g>
    <g id="ytick_5">
     <g id="line2d_14">
      <path d="M 65.63 223.5231 
L 637.2 223.5231 
" clip-path="url(#pefcebe436d)" style="fill: none; stroke: #ffffff; stroke-width: 0.8; stroke-linecap: round"/>
     </g>
     <g id="text_16">
      <!-- −800 -->
      <g style="fill: #262626" transform="translate(31.162813 227.322319) scale(0.1 -0.1)">
       <defs>
        <path id="DejaVuSans-38" d="M 2034 2216 
Q 1584 2216 1326 1975 
Q 1069 1734 1069 1313 
Q 1069 891 1326 650 
Q 1584 409 2034 409 
Q 2484 409 2743 651 
Q 3003 894 3003 1313 
Q 3003 1734 2745 1975 
Q 2488 2216 2034 2216 
z
M 1403 2484 
Q 997 2584 770 2862 
Q 544 3141 544 3541 
Q 544 4100 942 4425 
Q 1341 4750 2034 4750 
Q 2731 4750 3128 4425 
Q 3525 4100 3525 3541 
Q 3525 3141 3298 2862 
Q 3072 2584 2669 2484 
Q 3125 2378 3379 2068 
Q 3634 1759 3634 1313 
Q 3634 634 3220 271 
Q 2806 -91 2034 -91 
Q 1263 -91 848 271 
Q 434 634 434 1313 
Q 434 1759 690 2068 
Q 947 2378 1403 2484 
z
M 1172 3481 
Q 1172 3119 1398 2916 
Q 1625 2713 2034 2713 
Q 2441 2713 2670 2916 
Q 2900 3119 2900 3481 
Q 2900 3844 2670 4047 
Q 2441 4250 2034 4250 
Q 1625 4250 1398 4047 
Q 1172 3844 1172 3481 
z
" transform="scale(0.015625)"/>
       </defs>
       <use xlink:href="#DejaVuSans-2212"/>
       <use xlink:href="#DejaVuSans-38" transform="translate(83.789062 0)"/>
       <use xlink:href="#DejaVuSans-30" transform="translate(147.412109 0)"/>
       <use xlink:href="#DejaVuSans-30" transform="translate(211.035156 0)"/>
      </g>
     </g>
    </g>
    <g id="ytick_6">
     <g id="line2d_15">
      <path d="M 65.63 181.893875 
L 637.2 181.893875 
" clip-path="url(#pefcebe436d)" style="fill: none; stroke: #ffffff; stroke-width: 0.8; stroke-linecap: round"/>
     </g>
     <g id="text_17">
      <!-- −600 -->
      <g style="fill: #262626" transform="translate(31.162813 185.693094) scale(0.1 -0.1)">
       <use xlink:href="#DejaVuSans-2212"/>
       <use xlink:href="#DejaVuSans-36" transform="translate(83.789062 0)"/>
       <use xlink:href="#DejaVuSans-30" transform="translate(147.412109 0)"/>
       <use xlink:href="#DejaVuSans-30" transform="translate(211.035156 0)"/>
      </g>
     </g>
    </g>
    <g id="ytick_7">
     <g id="line2d_16">
      <path d="M 65.63 140.26465 
L 637.2 140.26465 
" clip-path="url(#pefcebe436d)" style="fill: none; stroke: #ffffff; stroke-width: 0.8; stroke-linecap: round"/>
     </g>
     <g id="text_18">
      <!-- −400 -->
      <g style="fill: #262626" transform="translate(31.162813 144.063869) scale(0.1 -0.1)">
       <use xlink:href="#DejaVuSans-2212"/>
       <use xlink:href="#DejaVuSans-34" transform="translate(83.789062 0)"/>
       <use xlink:href="#DejaVuSans-30" transform="translate(147.412109 0)"/>
       <use xlink:href="#DejaVuSans-30" transform="translate(211.035156 0)"/>
      </g>
     </g>
    </g>
    <g id="ytick_8">
     <g id="line2d_17">
      <path d="M 65.63 98.635425 
L 637.2 98.635425 
" clip-path="url(#pefcebe436d)" style="fill: none; stroke: #ffffff; stroke-width: 0.8; stroke-linecap: round"/>
     </g>
     <g id="text_19">
      <!-- −200 -->
      <g style="fill: #262626" transform="translate(31.162813 102.434644) scale(0.1 -0.1)">
       <use xlink:href="#DejaVuSans-2212"/>
       <use xlink:href="#DejaVuSans-32" transform="translate(83.789062 0)"/>
       <use xlink:href="#DejaVuSans-30" transform="translate(147.412109 0)"/>
       <use xlink:href="#DejaVuSans-30" transform="translate(211.035156 0)"/>
      </g>
     </g>
    </g>
    <g id="ytick_9">
     <g id="line2d_18">
      <path d="M 65.63 57.0062 
L 637.2 57.0062 
" clip-path="url(#pefcebe436d)" style="fill: none; stroke: #ffffff; stroke-width: 0.8; stroke-linecap: round"/>
     </g>
     <g id="text_20">
      <!-- 0 -->
      <g style="fill: #262626" transform="translate(52.2675 60.805419) scale(0.1 -0.1)">
       <use xlink:href="#DejaVuSans-30"/>
      </g>
     </g>
    </g>
    <g id="text_21">
     <!-- Reward -->
     <g style="fill: #262626" transform="translate(18.720625 242.144194) rotate(-90) scale(0.1 -0.1)">
      <defs>
       <path id="DejaVuSans-52" d="M 2841 2188 
Q 3044 2119 3236 1894 
Q 3428 1669 3622 1275 
L 4263 0 
L 3584 0 
L 2988 1197 
Q 2756 1666 2539 1819 
Q 2322 1972 1947 1972 
L 1259 1972 
L 1259 0 
L 628 0 
L 628 4666 
L 2053 4666 
Q 2853 4666 3247 4331 
Q 3641 3997 3641 3322 
Q 3641 2881 3436 2590 
Q 3231 2300 2841 2188 
z
M 1259 4147 
L 1259 2491 
L 2053 2491 
Q 2509 2491 2742 2702 
Q 2975 2913 2975 3322 
Q 2975 3731 2742 3939 
Q 2509 4147 2053 4147 
L 1259 4147 
z
" transform="scale(0.015625)"/>
       <path id="DejaVuSans-77" d="M 269 3500 
L 844 3500 
L 1563 769 
L 2278 3500 
L 2956 3500 
L 3675 769 
L 4391 3500 
L 4966 3500 
L 4050 0 
L 3372 0 
L 2619 2869 
L 1863 0 
L 1184 0 
L 269 3500 
z
" transform="scale(0.015625)"/>
       <path id="DejaVuSans-61" d="M 2194 1759 
Q 1497 1759 1228 1600 
Q 959 1441 959 1056 
Q 959 750 1161 570 
Q 1363 391 1709 391 
Q 2188 391 2477 730 
Q 2766 1069 2766 1631 
L 2766 1759 
L 2194 1759 
z
M 3341 1997 
L 3341 0 
L 2766 0 
L 2766 531 
Q 2569 213 2275 61 
Q 1981 -91 1556 -91 
Q 1019 -91 701 211 
Q 384 513 384 1019 
Q 384 1609 779 1909 
Q 1175 2209 1959 2209 
L 2766 2209 
L 2766 2266 
Q 2766 2663 2505 2880 
Q 2244 3097 1772 3097 
Q 1472 3097 1187 3025 
Q 903 2953 641 2809 
L 641 3341 
Q 956 3463 1253 3523 
Q 1550 3584 1831 3584 
Q 2591 3584 2966 3190 
Q 3341 2797 3341 1997 
z
" transform="scale(0.015625)"/>
       <path id="DejaVuSans-72" d="M 2631 2963 
Q 2534 3019 2420 3045 
Q 2306 3072 2169 3072 
Q 1681 3072 1420 2755 
Q 1159 2438 1159 1844 
L 1159 0 
L 581 0 
L 581 3500 
L 1159 3500 
L 1159 2956 
Q 1341 3275 1631 3429 
Q 1922 3584 2338 3584 
Q 2397 3584 2469 3576 
Q 2541 3569 2628 3553 
L 2631 2963 
z
" transform="scale(0.015625)"/>
       <path id="DejaVuSans-64" d="M 2906 2969 
L 2906 4863 
L 3481 4863 
L 3481 0 
L 2906 0 
L 2906 525 
Q 2725 213 2448 61 
Q 2172 -91 1784 -91 
Q 1150 -91 751 415 
Q 353 922 353 1747 
Q 353 2572 751 3078 
Q 1150 3584 1784 3584 
Q 2172 3584 2448 3432 
Q 2725 3281 2906 2969 
z
M 947 1747 
Q 947 1113 1208 752 
Q 1469 391 1925 391 
Q 2381 391 2643 752 
Q 2906 1113 2906 1747 
Q 2906 2381 2643 2742 
Q 2381 3103 1925 3103 
Q 1469 3103 1208 2742 
Q 947 2381 947 1747 
z
" transform="scale(0.015625)"/>
      </defs>
      <use xlink:href="#DejaVuSans-52"/>
      <use xlink:href="#DejaVuSans-65" transform="translate(64.982422 0)"/>
      <use xlink:href="#DejaVuSans-77" transform="translate(126.505859 0)"/>
      <use xlink:href="#DejaVuSans-61" transform="translate(208.292969 0)"/>
      <use xlink:href="#DejaVuSans-72" transform="translate(269.572266 0)"/>
      <use xlink:href="#DejaVuSans-64" transform="translate(308.935547 0)"/>
     </g>
    </g>
   </g>
   <g id="FillBetweenPolyCollection_1">
    <path d="M 65.630837 300.13097 
L 65.630837 314.993131 
L 71.346521 304.578815 
L 77.062204 327.325808 
L 82.777887 317.116973 
L 88.49357 308.960921 
L 94.209254 307.817382 
L 99.924937 312.261142 
L 105.64062 294.099864 
L 111.356303 316.301363 
L 117.071987 302.322776 
L 122.78767 298.523665 
L 128.503353 283.665784 
L 134.219036 290.720707 
L 139.93472 284.620617 
L 145.650403 283.563786 
L 151.366086 281.219334 
L 157.081769 273.190206 
L 162.797453 280.524219 
L 168.513136 274.659549 
L 174.228819 261.085199 
L 179.944502 257.140805 
L 185.660186 249.637118 
L 191.375869 243.525507 
L 197.091552 242.971739 
L 202.807235 237.886223 
L 208.522919 224.968344 
L 214.238602 209.643093 
L 219.954285 197.263879 
L 225.669968 192.364508 
L 231.385652 171.995098 
L 237.101335 156.847019 
L 242.817018 158.232189 
L 248.532701 131.016363 
L 254.248385 130.040513 
L 259.964068 125.753179 
L 265.679751 131.005536 
L 271.395434 110.030061 
L 277.111118 117.722619 
L 282.826801 120.781825 
L 288.542484 110.195085 
L 294.258167 125.614913 
L 299.973851 114.956315 
L 305.689534 122.428261 
L 311.405217 112.802843 
L 317.1209 120.839971 
L 322.836584 107.735873 
L 328.552267 106.478975 
L 334.26795 113.981992 
L 339.983633 112.040051 
L 345.699317 106.086869 
L 351.415 99.227832 
L 357.130683 116.51218 
L 362.846367 108.075674 
L 368.56205 110.137691 
L 374.277733 101.640545 
L 379.993416 104.562036 
L 385.7091 103.466561 
L 391.424783 102.743873 
L 397.140466 98.647825 
L 402.856149 98.743056 
L 408.571833 101.114261 
L 414.287516 99.435876 
L 420.003199 106.872487 
L 425.718882 99.870436 
L 431.434566 99.060922 
L 437.150249 101.171992 
L 442.865932 102.601895 
L 448.581615 108.830593 
L 454.297299 102.574619 
L 460.012982 103.053355 
L 465.728665 100.921271 
L 471.444348 93.052782 
L 477.160032 99.690294 
L 482.875715 99.724725 
L 488.591398 96.364095 
L 494.307081 98.525252 
L 500.022765 96.95871 
L 505.738448 127.488669 
L 511.454131 106.809539 
L 517.169814 101.182489 
L 522.885498 96.942142 
L 528.601181 94.672051 
L 534.316864 91.098901 
L 540.032547 100.60555 
L 545.748231 95.868726 
L 551.463914 95.55906 
L 557.179597 95.108959 
L 562.89528 96.818829 
L 568.610964 94.663091 
L 574.326647 93.756377 
L 580.04233 99.831699 
L 585.758013 95.412335 
L 591.473697 96.710845 
L 597.18938 91.942066 
L 602.905063 87.555636 
L 608.620746 98.030089 
L 614.33643 91.708284 
L 620.052113 91.697916 
L 625.767796 91.504348 
L 631.483479 95.241215 
L 631.483479 89.979657 
L 631.483479 89.979657 
L 625.767796 86.831896 
L 620.052113 84.672655 
L 614.33643 88.403583 
L 608.620746 83.806227 
L 602.905063 83.976645 
L 597.18938 84.125855 
L 591.473697 87.036321 
L 585.758013 84.638161 
L 580.04233 89.508335 
L 574.326647 86.449053 
L 568.610964 89.16144 
L 562.89528 91.618268 
L 557.179597 85.119031 
L 551.463914 88.510302 
L 545.748231 86.234738 
L 540.032547 85.290431 
L 534.316864 87.031121 
L 528.601181 87.670505 
L 522.885498 90.135941 
L 517.169814 92.672706 
L 511.454131 87.842673 
L 505.738448 79.324788 
L 500.022765 90.765636 
L 494.307081 90.518746 
L 488.591398 90.308625 
L 482.875715 92.491864 
L 477.160032 90.481939 
L 471.444348 86.846754 
L 465.728665 95.444272 
L 460.012982 90.503578 
L 454.297299 85.256452 
L 448.581615 86.95027 
L 442.865932 90.784495 
L 437.150249 89.757824 
L 431.434566 92.99242 
L 425.718882 93.356981 
L 420.003199 90.5492 
L 414.287516 90.958134 
L 408.571833 94.048435 
L 402.856149 91.148753 
L 397.140466 90.347115 
L 391.424783 92.444156 
L 385.7091 90.043767 
L 379.993416 96.108323 
L 374.277733 92.249918 
L 368.56205 94.167249 
L 362.846367 96.22659 
L 357.130683 97.935032 
L 351.415 92.991665 
L 345.699317 94.206705 
L 339.983633 96.712961 
L 334.26795 95.602282 
L 328.552267 93.576997 
L 322.836584 100.821688 
L 317.1209 101.56273 
L 311.405217 98.088001 
L 305.689534 97.525075 
L 299.973851 96.755464 
L 294.258167 106.738939 
L 288.542484 99.290804 
L 282.826801 102.571461 
L 277.111118 96.621381 
L 271.395434 104.648466 
L 265.679751 102.066207 
L 259.964068 102.347995 
L 254.248385 107.024576 
L 248.532701 114.906096 
L 242.817018 110.868493 
L 237.101335 108.294469 
L 231.385652 120.353517 
L 225.669968 129.783739 
L 219.954285 126.047114 
L 214.238602 134.563066 
L 208.522919 176.892366 
L 202.807235 175.804911 
L 197.091552 202.783654 
L 191.375869 217.267867 
L 185.660186 231.461668 
L 179.944502 237.759446 
L 174.228819 242.389441 
L 168.513136 247.674226 
L 162.797453 256.096219 
L 157.081769 261.501863 
L 151.366086 255.091292 
L 145.650403 273.398784 
L 139.93472 262.325911 
L 134.219036 267.992251 
L 128.503353 273.281724 
L 122.78767 281.27842 
L 117.071987 278.077093 
L 111.356303 284.441022 
L 105.64062 275.938234 
L 99.924937 287.357543 
L 94.209254 277.970666 
L 88.49357 293.230044 
L 82.777887 276.829174 
L 77.062204 296.304303 
L 71.346521 285.767966 
L 65.630837 300.13097 
z
" clip-path="url(#pefcebe436d)" style="fill: #1f77b4; fill-opacity: 0.2"/>
   </g>
   <g id="FillBetweenPolyCollection_2">
    <path d="M 65.630837 297.297632 
L 65.630837 322.758916 
L 71.346521 322.126858 
L 77.062204 319.334818 
L 82.777887 304.411362 
L 88.49357 294.334638 
L 94.209254 300.321523 
L 99.924937 304.032234 
L 105.64062 284.203093 
L 111.356303 288.898811 
L 117.071987 274.061417 
L 122.78767 268.444976 
L 128.503353 264.48913 
L 134.219036 259.251208 
L 139.93472 250.811211 
L 145.650403 253.412365 
L 151.366086 254.313359 
L 157.081769 236.353874 
L 162.797453 265.945656 
L 168.513136 269.443318 
L 174.228819 264.083569 
L 179.944502 283.914269 
L 185.660186 281.005192 
L 191.375869 271.291379 
L 197.091552 283.13491 
L 202.807235 259.180589 
L 208.522919 265.59161 
L 214.238602 269.296826 
L 219.954285 259.327287 
L 225.669968 269.885181 
L 231.385652 260.902249 
L 237.101335 261.182814 
L 242.817018 267.89148 
L 248.532701 267.661102 
L 254.248385 273.525857 
L 259.964068 272.736484 
L 265.679751 267.767876 
L 271.395434 264.272617 
L 277.111118 264.085713 
L 282.826801 267.862756 
L 288.542484 269.798417 
L 294.258167 267.467387 
L 299.973851 274.98337 
L 305.689534 269.538649 
L 311.405217 271.857841 
L 317.1209 271.791256 
L 322.836584 265.372252 
L 328.552267 271.21357 
L 334.26795 269.407761 
L 339.983633 266.818908 
L 345.699317 274.385828 
L 351.415 255.548083 
L 357.130683 249.911687 
L 362.846367 248.577297 
L 368.56205 253.263375 
L 374.277733 253.101677 
L 379.993416 252.112808 
L 385.7091 276.043421 
L 391.424783 290.599779 
L 397.140466 286.672825 
L 402.856149 288.842323 
L 408.571833 287.549827 
L 414.287516 284.817393 
L 420.003199 281.465047 
L 425.718882 276.811004 
L 431.434566 278.573143 
L 437.150249 281.135355 
L 442.865932 280.390817 
L 448.581615 274.543825 
L 454.297299 274.550875 
L 460.012982 277.164834 
L 465.728665 271.806192 
L 471.444348 266.502285 
L 477.160032 271.382192 
L 482.875715 269.308313 
L 488.591398 276.562445 
L 494.307081 276.861207 
L 500.022765 278.567438 
L 505.738448 272.910665 
L 511.454131 272.771737 
L 517.169814 275.936693 
L 522.885498 269.842411 
L 528.601181 270.162866 
L 534.316864 272.75852 
L 540.032547 273.29416 
L 545.748231 282.45959 
L 551.463914 272.383538 
L 557.179597 269.870695 
L 562.89528 271.053633 
L 568.610964 266.160266 
L 574.326647 269.524097 
L 580.04233 265.12569 
L 585.758013 267.531066 
L 591.473697 264.391601 
L 597.18938 268.038955 
L 602.905063 265.84161 
L 608.620746 266.545869 
L 614.33643 271.690814 
L 620.052113 274.266976 
L 625.767796 266.58087 
L 631.483479 258.789285 
L 631.483479 84.192536 
L 631.483479 84.192536 
L 625.767796 83.319019 
L 620.052113 94.927528 
L 614.33643 82.260545 
L 608.620746 81.892872 
L 602.905063 73.793265 
L 597.18938 76.709415 
L 591.473697 76.0624 
L 585.758013 72.951006 
L 580.04233 76.049318 
L 574.326647 82.070699 
L 568.610964 79.858624 
L 562.89528 73.43767 
L 557.179597 86.266493 
L 551.463914 85.84293 
L 545.748231 114.917532 
L 540.032547 91.753617 
L 534.316864 82.969137 
L 528.601181 82.154538 
L 522.885498 81.37035 
L 517.169814 81.001555 
L 511.454131 82.890825 
L 505.738448 75.583868 
L 500.022765 83.112636 
L 494.307081 80.736105 
L 488.591398 84.190328 
L 482.875715 85.263578 
L 477.160032 90.737833 
L 471.444348 86.765204 
L 465.728665 81.968291 
L 460.012982 94.16811 
L 454.297299 91.250336 
L 448.581615 90.722044 
L 442.865932 92.599413 
L 437.150249 99.648227 
L 431.434566 94.522951 
L 425.718882 119.441343 
L 420.003199 103.129134 
L 414.287516 108.319758 
L 408.571833 108.439034 
L 402.856149 132.970255 
L 397.140466 117.266382 
L 391.424783 142.638109 
L 385.7091 138.835203 
L 379.993416 157.942155 
L 374.277733 159.913829 
L 368.56205 167.036023 
L 362.846367 149.494578 
L 357.130683 145.365561 
L 351.415 151.409792 
L 345.699317 156.251559 
L 339.983633 166.210925 
L 334.26795 160.694183 
L 328.552267 167.835688 
L 322.836584 187.216964 
L 317.1209 194.177394 
L 311.405217 170.765044 
L 305.689534 179.985027 
L 299.973851 166.955792 
L 294.258167 156.450387 
L 288.542484 156.88617 
L 282.826801 163.386067 
L 277.111118 163.902386 
L 271.395434 165.579135 
L 265.679751 167.153231 
L 259.964068 168.110472 
L 254.248385 168.974925 
L 248.532701 176.547828 
L 242.817018 178.111623 
L 237.101335 181.670045 
L 231.385652 179.604599 
L 225.669968 189.266285 
L 219.954285 189.875561 
L 214.238602 195.60292 
L 208.522919 193.738622 
L 202.807235 190.376758 
L 197.091552 203.668937 
L 191.375869 198.747906 
L 185.660186 214.78249 
L 179.944502 218.258435 
L 174.228819 197.777852 
L 168.513136 195.835994 
L 162.797453 207.31834 
L 157.081769 201.204873 
L 151.366086 203.539446 
L 145.650403 219.605759 
L 139.93472 222.290996 
L 134.219036 236.343282 
L 128.503353 240.103019 
L 122.78767 242.363359 
L 117.071987 250.558322 
L 111.356303 255.327556 
L 105.64062 255.559418 
L 99.924937 264.678744 
L 94.209254 275.331794 
L 88.49357 272.599883 
L 82.777887 285.250497 
L 77.062204 296.438652 
L 71.346521 294.726955 
L 65.630837 297.297632 
z
" clip-path="url(#pefcebe436d)" style="fill: #ff7f0e; fill-opacity: 0.2"/>
   </g>
   <g id="FillBetweenPolyCollection_3">
    <path d="M 65.630837 305.685282 
L 65.630837 321.423947 
L 71.346521 309.615979 
L 77.062204 308.513768 
L 82.777887 314.375883 
L 88.49357 288.905701 
L 94.209254 303.636779 
L 99.924937 291.637546 
L 105.64062 286.275896 
L 111.356303 277.296027 
L 117.071987 268.748665 
L 122.78767 279.988384 
L 128.503353 277.846229 
L 134.219036 263.517985 
L 139.93472 253.047904 
L 145.650403 257.171471 
L 151.366086 247.717064 
L 157.081769 236.865169 
L 162.797453 235.633747 
L 168.513136 251.126952 
L 174.228819 243.200298 
L 179.944502 246.657294 
L 185.660186 244.707224 
L 191.375869 229.266728 
L 197.091552 241.719294 
L 202.807235 233.567818 
L 208.522919 240.071969 
L 214.238602 235.856276 
L 219.954285 243.426113 
L 225.669968 246.720904 
L 231.385652 242.893735 
L 237.101335 235.172374 
L 242.817018 228.024018 
L 248.532701 233.834367 
L 254.248385 228.497639 
L 259.964068 227.249686 
L 265.679751 236.40272 
L 271.395434 216.855834 
L 277.111118 227.006819 
L 282.826801 245.765093 
L 288.542484 232.594646 
L 294.258167 201.443487 
L 299.973851 219.044638 
L 305.689534 215.511368 
L 311.405217 206.57814 
L 317.1209 219.634213 
L 322.836584 205.505716 
L 328.552267 201.275678 
L 334.26795 201.772166 
L 339.983633 194.270162 
L 345.699317 197.819996 
L 351.415 174.37304 
L 357.130683 177.086252 
L 362.846367 186.642875 
L 368.56205 182.357638 
L 374.277733 175.461123 
L 379.993416 174.830995 
L 385.7091 189.151252 
L 391.424783 182.641093 
L 397.140466 179.478089 
L 402.856149 171.059779 
L 408.571833 159.279551 
L 414.287516 180.150213 
L 420.003199 195.298049 
L 425.718882 175.356235 
L 431.434566 169.311376 
L 437.150249 166.229879 
L 442.865932 164.370634 
L 448.581615 156.35484 
L 454.297299 167.190992 
L 460.012982 159.685985 
L 465.728665 155.897324 
L 471.444348 157.616115 
L 477.160032 158.616354 
L 482.875715 155.820037 
L 488.591398 150.476326 
L 494.307081 153.599574 
L 500.022765 152.704214 
L 505.738448 161.246077 
L 511.454131 163.270087 
L 517.169814 168.010816 
L 522.885498 155.217685 
L 528.601181 149.596756 
L 534.316864 155.113697 
L 540.032547 162.758846 
L 545.748231 163.570352 
L 551.463914 149.747862 
L 557.179597 151.422977 
L 562.89528 145.008232 
L 568.610964 147.367009 
L 574.326647 149.49896 
L 580.04233 173.116036 
L 585.758013 145.700151 
L 591.473697 148.076009 
L 597.18938 144.186867 
L 602.905063 145.133574 
L 608.620746 142.381222 
L 614.33643 156.162692 
L 620.052113 144.564897 
L 625.767796 137.86614 
L 631.483479 141.104153 
L 631.483479 80.793283 
L 631.483479 80.793283 
L 625.767796 81.235303 
L 620.052113 94.331751 
L 614.33643 98.743964 
L 608.620746 96.53522 
L 602.905063 84.071151 
L 597.18938 73.649484 
L 591.473697 76.58745 
L 585.758013 92.8559 
L 580.04233 91.919125 
L 574.326647 85.607033 
L 568.610964 86.813987 
L 562.89528 82.594648 
L 557.179597 87.324086 
L 551.463914 86.403109 
L 545.748231 83.723113 
L 540.032547 88.054807 
L 534.316864 89.145887 
L 528.601181 91.221653 
L 522.885498 87.931365 
L 517.169814 81.669308 
L 511.454131 92.734399 
L 505.738448 93.895596 
L 500.022765 100.889616 
L 494.307081 93.741948 
L 488.591398 90.305999 
L 482.875715 94.547453 
L 477.160032 89.253997 
L 471.444348 91.378005 
L 465.728665 95.835426 
L 460.012982 90.757679 
L 454.297299 95.948141 
L 448.581615 104.895724 
L 442.865932 102.062888 
L 437.150249 95.524627 
L 431.434566 99.799625 
L 425.718882 101.525012 
L 420.003199 101.170403 
L 414.287516 114.84352 
L 408.571833 100.793829 
L 402.856149 101.464381 
L 397.140466 106.888479 
L 391.424783 94.623337 
L 385.7091 113.591955 
L 379.993416 99.187536 
L 374.277733 99.654894 
L 368.56205 112.995829 
L 362.846367 118.304535 
L 357.130683 120.824735 
L 351.415 112.177733 
L 345.699317 123.859248 
L 339.983633 123.631925 
L 334.26795 137.234114 
L 328.552267 125.204396 
L 322.836584 128.299842 
L 317.1209 138.223132 
L 311.405217 131.001242 
L 305.689534 139.667559 
L 299.973851 141.448667 
L 294.258167 141.815243 
L 288.542484 161.251832 
L 282.826801 147.56796 
L 277.111118 138.392845 
L 271.395434 135.343765 
L 265.679751 147.716286 
L 259.964068 152.862818 
L 254.248385 156.615543 
L 248.532701 150.401703 
L 242.817018 151.118851 
L 237.101335 157.329541 
L 231.385652 161.936339 
L 225.669968 161.916231 
L 219.954285 167.971525 
L 214.238602 179.808054 
L 208.522919 179.036665 
L 202.807235 181.192188 
L 197.091552 186.501706 
L 191.375869 191.829765 
L 185.660186 194.922544 
L 179.944502 197.848117 
L 174.228819 202.139187 
L 168.513136 197.503065 
L 162.797453 202.327663 
L 157.081769 209.073718 
L 151.366086 214.725432 
L 145.650403 223.944066 
L 139.93472 219.089982 
L 134.219036 219.555574 
L 128.503353 232.869058 
L 122.78767 238.934572 
L 117.071987 249.751318 
L 111.356303 251.655688 
L 105.64062 260.863201 
L 99.924937 267.849481 
L 94.209254 280.272859 
L 88.49357 280.126206 
L 82.777887 287.560465 
L 77.062204 289.488448 
L 71.346521 296.617287 
L 65.630837 305.685282 
z
" clip-path="url(#pefcebe436d)" style="fill: #2ca02c; fill-opacity: 0.2"/>
   </g>
   <g id="line2d_19">
    <path d="M 65.630837 307.56205 
L 71.346521 295.17339 
L 77.062204 311.815055 
L 82.777887 296.973074 
L 88.49357 301.095482 
L 94.209254 292.894024 
L 99.924937 299.809343 
L 105.64062 285.019049 
L 111.356303 300.371192 
L 117.071987 290.199934 
L 122.78767 289.901043 
L 128.503353 278.473754 
L 134.219036 279.356479 
L 139.93472 273.473264 
L 145.650403 278.481285 
L 151.366086 268.155313 
L 157.081769 267.346035 
L 162.797453 268.310219 
L 168.513136 261.166888 
L 174.228819 251.73732 
L 179.944502 247.450126 
L 185.660186 240.549393 
L 191.375869 230.396687 
L 197.091552 222.877696 
L 202.807235 206.845567 
L 208.522919 200.930355 
L 214.238602 172.103079 
L 219.954285 161.655497 
L 225.669968 161.074124 
L 231.385652 146.174307 
L 237.101335 132.570744 
L 242.817018 134.550341 
L 248.532701 122.96123 
L 254.248385 118.532544 
L 259.964068 114.050587 
L 265.679751 116.535872 
L 271.395434 107.339264 
L 277.111118 107.172 
L 282.826801 111.676643 
L 288.542484 104.742945 
L 294.258167 116.176926 
L 299.973851 105.855889 
L 305.689534 109.976668 
L 311.405217 105.445422 
L 317.1209 111.201351 
L 322.836584 104.278781 
L 328.552267 100.027986 
L 334.26795 104.792137 
L 339.983633 104.376506 
L 345.699317 100.146787 
L 351.415 96.109749 
L 357.130683 107.223606 
L 362.846367 102.151132 
L 368.56205 102.15247 
L 374.277733 96.945232 
L 379.993416 100.33518 
L 385.7091 96.755164 
L 391.424783 97.594015 
L 397.140466 94.49747 
L 402.856149 94.945904 
L 408.571833 97.581348 
L 414.287516 95.197005 
L 420.003199 98.710843 
L 425.718882 96.613709 
L 431.434566 96.026671 
L 437.150249 95.464908 
L 442.865932 96.693195 
L 448.581615 97.890431 
L 454.297299 93.915536 
L 460.012982 96.778466 
L 465.728665 98.182772 
L 471.444348 89.949768 
L 477.160032 95.086116 
L 482.875715 96.108294 
L 488.591398 93.33636 
L 494.307081 94.521999 
L 500.022765 93.862173 
L 505.738448 103.406729 
L 511.454131 97.326106 
L 517.169814 96.927598 
L 522.885498 93.539041 
L 528.601181 91.171278 
L 534.316864 89.065011 
L 540.032547 92.94799 
L 545.748231 91.051732 
L 551.463914 92.034681 
L 557.179597 90.113995 
L 562.89528 94.218549 
L 568.610964 91.912265 
L 574.326647 90.102715 
L 580.04233 94.670017 
L 585.758013 90.025248 
L 591.473697 91.873583 
L 597.18938 88.033961 
L 602.905063 85.766141 
L 608.620746 90.918158 
L 614.33643 90.055934 
L 620.052113 88.185285 
L 625.767796 89.168122 
L 631.483479 92.610436 
" clip-path="url(#pefcebe436d)" style="fill: none; stroke: #1f77b4; stroke-width: 1.5; stroke-linecap: round"/>
   </g>
   <g id="line2d_20">
    <path d="M 65.630837 310.028274 
L 71.346521 308.426906 
L 77.062204 307.886735 
L 82.777887 294.830929 
L 88.49357 283.46726 
L 94.209254 287.826659 
L 99.924937 284.355489 
L 105.64062 269.881256 
L 111.356303 272.113184 
L 117.071987 262.30987 
L 122.78767 255.404167 
L 128.503353 252.296074 
L 134.219036 247.797245 
L 139.93472 236.551103 
L 145.650403 236.509062 
L 151.366086 228.926402 
L 157.081769 218.779374 
L 162.797453 236.631998 
L 168.513136 232.639656 
L 174.228819 230.930711 
L 179.944502 251.086352 
L 185.660186 247.893841 
L 191.375869 235.019643 
L 197.091552 243.401924 
L 202.807235 224.778673 
L 208.522919 229.665116 
L 214.238602 232.449873 
L 219.954285 224.601424 
L 225.669968 229.575733 
L 231.385652 220.253424 
L 237.101335 221.42643 
L 242.817018 223.001551 
L 248.532701 222.104465 
L 254.248385 221.250391 
L 259.964068 220.423478 
L 265.679751 217.460554 
L 271.395434 214.925876 
L 277.111118 213.994049 
L 282.826801 215.624411 
L 288.542484 213.342293 
L 294.258167 211.958887 
L 299.973851 220.969581 
L 305.689534 224.761838 
L 311.405217 221.311442 
L 317.1209 232.984325 
L 322.836584 226.294608 
L 328.552267 219.524629 
L 334.26795 215.050972 
L 339.983633 216.514917 
L 345.699317 215.318694 
L 351.415 203.478938 
L 357.130683 197.638624 
L 362.846367 199.035938 
L 368.56205 210.149699 
L 374.277733 206.507753 
L 379.993416 205.027481 
L 385.7091 207.439312 
L 391.424783 216.618944 
L 397.140466 201.969603 
L 402.856149 210.906289 
L 408.571833 197.994431 
L 414.287516 196.568576 
L 420.003199 192.29709 
L 425.718882 198.126174 
L 431.434566 186.548047 
L 437.150249 190.391791 
L 442.865932 186.495115 
L 448.581615 182.632935 
L 454.297299 182.900606 
L 460.012982 185.666472 
L 465.728665 176.887242 
L 471.444348 176.633744 
L 477.160032 181.060013 
L 482.875715 177.285945 
L 488.591398 180.376386 
L 494.307081 178.798656 
L 500.022765 180.840037 
L 505.738448 174.247266 
L 511.454131 177.831281 
L 517.169814 178.469124 
L 522.885498 175.60638 
L 528.601181 176.158702 
L 534.316864 177.863828 
L 540.032547 182.523888 
L 545.748231 198.688561 
L 551.463914 179.113234 
L 557.179597 178.068594 
L 562.89528 172.245652 
L 568.610964 173.009445 
L 574.326647 175.797398 
L 580.04233 170.587504 
L 585.758013 170.241036 
L 591.473697 170.227001 
L 597.18938 172.374185 
L 602.905063 169.817437 
L 608.620746 174.219371 
L 614.33643 176.97568 
L 620.052113 184.597252 
L 625.767796 174.949945 
L 631.483479 171.49091 
" clip-path="url(#pefcebe436d)" style="fill: none; stroke: #ff7f0e; stroke-width: 1.5; stroke-linecap: round"/>
   </g>
   <g id="line2d_21">
    <path d="M 65.630837 313.554614 
L 71.346521 303.116633 
L 77.062204 299.001108 
L 82.777887 300.968174 
L 88.49357 284.515953 
L 94.209254 291.954819 
L 99.924937 279.743514 
L 105.64062 273.569549 
L 111.356303 264.475858 
L 117.071987 259.249992 
L 122.78767 259.461478 
L 128.503353 255.357644 
L 134.219036 241.53678 
L 139.93472 236.068943 
L 145.650403 240.557769 
L 151.366086 231.221248 
L 157.081769 222.969444 
L 162.797453 218.980705 
L 168.513136 224.315008 
L 174.228819 222.669743 
L 179.944502 222.252706 
L 185.660186 219.814884 
L 191.375869 210.548247 
L 197.091552 214.1105 
L 202.807235 207.380003 
L 208.522919 209.554317 
L 214.238602 207.832165 
L 219.954285 205.698819 
L 225.669968 204.318568 
L 231.385652 202.415037 
L 237.101335 196.250957 
L 242.817018 189.571434 
L 248.532701 192.118035 
L 254.248385 192.556591 
L 259.964068 190.056252 
L 265.679751 192.059503 
L 271.395434 176.0998 
L 277.111118 182.699832 
L 282.826801 196.666526 
L 288.542484 196.923239 
L 294.258167 171.629365 
L 299.973851 180.246653 
L 305.689534 177.589463 
L 311.405217 168.789691 
L 317.1209 178.928672 
L 322.836584 166.902779 
L 328.552267 163.240037 
L 334.26795 169.50314 
L 339.983633 158.951044 
L 345.699317 160.839622 
L 351.415 143.275386 
L 357.130683 148.955494 
L 362.846367 152.473705 
L 368.56205 147.676733 
L 374.277733 137.558008 
L 379.993416 137.009265 
L 385.7091 151.371603 
L 391.424783 138.632215 
L 397.140466 143.183284 
L 402.856149 136.26208 
L 408.571833 130.03669 
L 414.287516 147.496867 
L 420.003199 148.234226 
L 425.718882 138.440624 
L 431.434566 134.5555 
L 437.150249 130.877253 
L 442.865932 133.216761 
L 448.581615 130.625282 
L 454.297299 131.569567 
L 460.012982 125.221832 
L 465.728665 125.866375 
L 471.444348 124.49706 
L 477.160032 123.935176 
L 482.875715 125.183745 
L 488.591398 120.391163 
L 494.307081 123.670761 
L 500.022765 126.796915 
L 505.738448 127.570837 
L 511.454131 128.002243 
L 517.169814 124.840062 
L 522.885498 121.574525 
L 528.601181 120.409204 
L 534.316864 122.129792 
L 540.032547 125.406826 
L 545.748231 123.646733 
L 551.463914 118.075485 
L 557.179597 119.373531 
L 562.89528 113.80144 
L 568.610964 117.090498 
L 574.326647 117.552997 
L 580.04233 132.51758 
L 585.758013 119.278026 
L 591.473697 112.331729 
L 597.18938 108.918176 
L 602.905063 114.602363 
L 608.620746 119.458221 
L 614.33643 127.453328 
L 620.052113 119.448324 
L 625.767796 109.550721 
L 631.483479 110.948718 
" clip-path="url(#pefcebe436d)" style="fill: none; stroke: #2ca02c; stroke-width: 1.5; stroke-linecap: round"/>
   </g>
   <g id="patch_3">
    <path d="M 65.63 390.04 
L 65.63 57.0062 
" style="fill: none; stroke: #ffffff; stroke-width: 0.8; stroke-linejoin: miter; stroke-linecap: square"/>
   </g>
   <g id="patch_4">
    <path d="M 637.2 390.04 
L 637.2 57.0062 
" style="fill: none; stroke: #ffffff; stroke-width: 0.8; stroke-linejoin: miter; stroke-linecap: square"/>
   </g>
   <g id="patch_5">
    <path d="M 65.63 390.04 
L 637.2 390.04 
" style="fill: none; stroke: #ffffff; stroke-width: 0.8; stroke-linejoin: miter; stroke-linecap: square"/>
   </g>
   <g id="patch_6">
    <path d="M 65.63 57.0062 
L 637.2 57.0062 
" style="fill: none; stroke: #ffffff; stroke-width: 0.8; stroke-linejoin: miter; stroke-linecap: square"/>
   </g>
   <g id="legend_1">
    <g id="line2d_22">
     <path d="M 241.404334 41.274494 
L 249.734334 41.274494 
L 258.064334 41.274494 
" style="fill: none; stroke: #1f77b4; stroke-width: 1.5; stroke-linecap: round"/>
    </g>
    <g id="text_22">
     <!-- Logits (Baseline) -->
     <g style="fill: #262626" transform="translate(264.728334 44.189994) scale(0.0833 -0.0833)">
      <defs>
       <path id="DejaVuSans-4c" d="M 628 4666 
L 1259 4666 
L 1259 531 
L 3531 531 
L 3531 0 
L 628 0 
L 628 4666 
z
" transform="scale(0.015625)"/>
       <path id="DejaVuSans-6f" d="M 1959 3097 
Q 1497 3097 1228 2736 
Q 959 2375 959 1747 
Q 959 1119 1226 758 
Q 1494 397 1959 397 
Q 2419 397 2687 759 
Q 2956 1122 2956 1747 
Q 2956 2369 2687 2733 
Q 2419 3097 1959 3097 
z
M 1959 3584 
Q 2709 3584 3137 3096 
Q 3566 2609 3566 1747 
Q 3566 888 3137 398 
Q 2709 -91 1959 -91 
Q 1206 -91 779 398 
Q 353 888 353 1747 
Q 353 2609 779 3096 
Q 1206 3584 1959 3584 
z
" transform="scale(0.015625)"/>
       <path id="DejaVuSans-67" d="M 2906 1791 
Q 2906 2416 2648 2759 
Q 2391 3103 1925 3103 
Q 1463 3103 1205 2759 
Q 947 2416 947 1791 
Q 947 1169 1205 825 
Q 1463 481 1925 481 
Q 2391 481 2648 825 
Q 2906 1169 2906 1791 
z
M 3481 434 
Q 3481 -459 3084 -895 
Q 2688 -1331 1869 -1331 
Q 1566 -1331 1297 -1286 
Q 1028 -1241 775 -1147 
L 775 -588 
Q 1028 -725 1275 -790 
Q 1522 -856 1778 -856 
Q 2344 -856 2625 -561 
Q 2906 -266 2906 331 
L 2906 616 
Q 2728 306 2450 153 
Q 2172 0 1784 0 
Q 1141 0 747 490 
Q 353 981 353 1791 
Q 353 2603 747 3093 
Q 1141 3584 1784 3584 
Q 2172 3584 2450 3431 
Q 2728 3278 2906 2969 
L 2906 3500 
L 3481 3500 
L 3481 434 
z
" transform="scale(0.015625)"/>
       <path id="DejaVuSans-69" d="M 603 3500 
L 1178 3500 
L 1178 0 
L 603 0 
L 603 3500 
z
M 603 4863 
L 1178 4863 
L 1178 4134 
L 603 4134 
L 603 4863 
z
" transform="scale(0.015625)"/>
       <path id="DejaVuSans-20" transform="scale(0.015625)"/>
       <path id="DejaVuSans-28" d="M 1984 4856 
Q 1566 4138 1362 3434 
Q 1159 2731 1159 2009 
Q 1159 1288 1364 580 
Q 1569 -128 1984 -844 
L 1484 -844 
Q 1016 -109 783 600 
Q 550 1309 550 2009 
Q 550 2706 781 3412 
Q 1013 4119 1484 4856 
L 1984 4856 
z
" transform="scale(0.015625)"/>
       <path id="DejaVuSans-42" d="M 1259 2228 
L 1259 519 
L 2272 519 
Q 2781 519 3026 730 
Q 3272 941 3272 1375 
Q 3272 1813 3026 2020 
Q 2781 2228 2272 2228 
L 1259 2228 
z
M 1259 4147 
L 1259 2741 
L 2194 2741 
Q 2656 2741 2882 2914 
Q 3109 3088 3109 3444 
Q 3109 3797 2882 3972 
Q 2656 4147 2194 4147 
L 1259 4147 
z
M 628 4666 
L 2241 4666 
Q 2963 4666 3353 4366 
Q 3744 4066 3744 3513 
Q 3744 3084 3544 2831 
Q 3344 2578 2956 2516 
Q 3422 2416 3680 2098 
Q 3938 1781 3938 1306 
Q 3938 681 3513 340 
Q 3088 0 2303 0 
L 628 0 
L 628 4666 
z
" transform="scale(0.015625)"/>
       <path id="DejaVuSans-6c" d="M 603 4863 
L 1178 4863 
L 1178 0 
L 603 0 
L 603 4863 
z
" transform="scale(0.015625)"/>
       <path id="DejaVuSans-6e" d="M 3513 2113 
L 3513 0 
L 2938 0 
L 2938 2094 
Q 2938 2591 2744 2837 
Q 2550 3084 2163 3084 
Q 1697 3084 1428 2787 
Q 1159 2491 1159 1978 
L 1159 0 
L 581 0 
L 581 3500 
L 1159 3500 
L 1159 2956 
Q 1366 3272 1645 3428 
Q 1925 3584 2291 3584 
Q 2894 3584 3203 3211 
Q 3513 2838 3513 2113 
z
" transform="scale(0.015625)"/>
       <path id="DejaVuSans-29" d="M 513 4856 
L 1013 4856 
Q 1481 4119 1714 3412 
Q 1947 2706 1947 2009 
Q 1947 1309 1714 600 
Q 1481 -109 1013 -844 
L 513 -844 
Q 928 -128 1133 580 
Q 1338 1288 1338 2009 
Q 1338 2731 1133 3434 
Q 928 4138 513 4856 
z
" transform="scale(0.015625)"/>
      </defs>
      <use xlink:href="#DejaVuSans-4c"/>
      <use xlink:href="#DejaVuSans-6f" transform="translate(53.962891 0)"/>
      <use xlink:href="#DejaVuSans-67" transform="translate(115.144531 0)"/>
      <use xlink:href="#DejaVuSans-69" transform="translate(178.621094 0)"/>
      <use xlink:href="#DejaVuSans-74" transform="translate(206.404297 0)"/>
      <use xlink:href="#DejaVuSans-73" transform="translate(245.613281 0)"/>
      <use xlink:href="#DejaVuSans-20" transform="translate(297.712891 0)"/>
      <use xlink:href="#DejaVuSans-28" transform="translate(329.5 0)"/>
      <use xlink:href="#DejaVuSans-42" transform="translate(368.513672 0)"/>
      <use xlink:href="#DejaVuSans-61" transform="translate(437.117188 0)"/>
      <use xlink:href="#DejaVuSans-73" transform="translate(498.396484 0)"/>
      <use xlink:href="#DejaVuSans-65" transform="translate(550.496094 0)"/>
      <use xlink:href="#DejaVuSans-6c" transform="translate(612.019531 0)"/>
      <use xlink:href="#DejaVuSans-69" transform="translate(639.802734 0)"/>
      <use xlink:href="#DejaVuSans-6e" transform="translate(667.585938 0)"/>
      <use xlink:href="#DejaVuSans-65" transform="translate(730.964844 0)"/>
      <use xlink:href="#DejaVuSans-29" transform="translate(792.488281 0)"/>
     </g>
    </g>
    <g id="line2d_23">
     <path d="M 350.653586 41.274494 
L 358.983586 41.274494 
L 367.313586 41.274494 
" style="fill: none; stroke: #ff7f0e; stroke-width: 1.5; stroke-linecap: round"/>
    </g>
    <g id="text_23">
     <!-- GNN -->
     <g style="fill: #262626" transform="translate(373.977586 44.189994) scale(0.0833 -0.0833)">
      <defs>
       <path id="DejaVuSans-47" d="M 3809 666 
L 3809 1919 
L 2778 1919 
L 2778 2438 
L 4434 2438 
L 4434 434 
Q 4069 175 3628 42 
Q 3188 -91 2688 -91 
Q 1594 -91 976 548 
Q 359 1188 359 2328 
Q 359 3472 976 4111 
Q 1594 4750 2688 4750 
Q 3144 4750 3555 4637 
Q 3966 4525 4313 4306 
L 4313 3634 
Q 3963 3931 3569 4081 
Q 3175 4231 2741 4231 
Q 1884 4231 1454 3753 
Q 1025 3275 1025 2328 
Q 1025 1384 1454 906 
Q 1884 428 2741 428 
Q 3075 428 3337 486 
Q 3600 544 3809 666 
z
" transform="scale(0.015625)"/>
       <path id="DejaVuSans-4e" d="M 628 4666 
L 1478 4666 
L 3547 763 
L 3547 4666 
L 4159 4666 
L 4159 0 
L 3309 0 
L 1241 3903 
L 1241 0 
L 628 0 
L 628 4666 
z
" transform="scale(0.015625)"/>
      </defs>
      <use xlink:href="#DejaVuSans-47"/>
      <use xlink:href="#DejaVuSans-4e" transform="translate(77.490234 0)"/>
      <use xlink:href="#DejaVuSans-4e" transform="translate(152.294922 0)"/>
     </g>
    </g>
    <g id="line2d_24">
     <path d="M 409.555797 41.274494 
L 417.885797 41.274494 
L 426.215797 41.274494 
" style="fill: none; stroke: #2ca02c; stroke-width: 1.5; stroke-linecap: round"/>
    </g>
    <g id="text_24">
     <!-- GNN_K -->
     <g style="fill: #262626" transform="translate(432.879797 44.189994) scale(0.0833 -0.0833)">
      <defs>
       <path id="DejaVuSans-5f" d="M 3263 -1063 
L 3263 -1509 
L -63 -1509 
L -63 -1063 
L 3263 -1063 
z
" transform="scale(0.015625)"/>
       <path id="DejaVuSans-4b" d="M 628 4666 
L 1259 4666 
L 1259 2694 
L 3353 4666 
L 4166 4666 
L 1850 2491 
L 4331 0 
L 3500 0 
L 1259 2247 
L 1259 0 
L 628 0 
L 628 4666 
z
" transform="scale(0.015625)"/>
      </defs>
      <use xlink:href="#DejaVuSans-47"/>
      <use xlink:href="#DejaVuSans-4e" transform="translate(77.490234 0)"/>
      <use xlink:href="#DejaVuSans-4e" transform="translate(152.294922 0)"/>
      <use xlink:href="#DejaVuSans-5f" transform="translate(227.099609 0)"/>
      <use xlink:href="#DejaVuSans-4b" transform="translate(277.099609 0)"/>
     </g>
    </g>
   </g>
  </g>
  <g id="text_25">
   <!-- Rewards: Pendulum-v1 (Discretized) (Noise + Entropy) -->
   <g style="fill: #262626" transform="translate(138.252188 17.758125) scale(0.12 -0.12)">
    <defs>
     <path id="DejaVuSans-Bold-52" d="M 2297 2597 
Q 2675 2597 2839 2737 
Q 3003 2878 3003 3200 
Q 3003 3519 2839 3656 
Q 2675 3794 2297 3794 
L 1791 3794 
L 1791 2597 
L 2297 2597 
z
M 1791 1766 
L 1791 0 
L 588 0 
L 588 4666 
L 2425 4666 
Q 3347 4666 3776 4356 
Q 4206 4047 4206 3378 
Q 4206 2916 3982 2619 
Q 3759 2322 3309 2181 
Q 3556 2125 3751 1926 
Q 3947 1728 4147 1325 
L 4800 0 
L 3519 0 
L 2950 1159 
Q 2778 1509 2601 1637 
Q 2425 1766 2131 1766 
L 1791 1766 
z
" transform="scale(0.015625)"/>
     <path id="DejaVuSans-Bold-65" d="M 4031 1759 
L 4031 1441 
L 1416 1441 
Q 1456 1047 1700 850 
Q 1944 653 2381 653 
Q 2734 653 3104 758 
Q 3475 863 3866 1075 
L 3866 213 
Q 3469 63 3072 -14 
Q 2675 -91 2278 -91 
Q 1328 -91 801 392 
Q 275 875 275 1747 
Q 275 2603 792 3093 
Q 1309 3584 2216 3584 
Q 3041 3584 3536 3087 
Q 4031 2591 4031 1759 
z
M 2881 2131 
Q 2881 2450 2695 2645 
Q 2509 2841 2209 2841 
Q 1884 2841 1681 2658 
Q 1478 2475 1428 2131 
L 2881 2131 
z
" transform="scale(0.015625)"/>
     <path id="DejaVuSans-Bold-77" d="M 225 3500 
L 1313 3500 
L 1900 1088 
L 2491 3500 
L 3425 3500 
L 4013 1113 
L 4603 3500 
L 5691 3500 
L 4769 0 
L 3547 0 
L 2956 2406 
L 2369 0 
L 1147 0 
L 225 3500 
z
" transform="scale(0.015625)"/>
     <path id="DejaVuSans-Bold-61" d="M 2106 1575 
Q 1756 1575 1579 1456 
Q 1403 1338 1403 1106 
Q 1403 894 1545 773 
Q 1688 653 1941 653 
Q 2256 653 2472 879 
Q 2688 1106 2688 1447 
L 2688 1575 
L 2106 1575 
z
M 3816 1997 
L 3816 0 
L 2688 0 
L 2688 519 
Q 2463 200 2181 54 
Q 1900 -91 1497 -91 
Q 953 -91 614 226 
Q 275 544 275 1050 
Q 275 1666 698 1953 
Q 1122 2241 2028 2241 
L 2688 2241 
L 2688 2328 
Q 2688 2594 2478 2717 
Q 2269 2841 1825 2841 
Q 1466 2841 1156 2769 
Q 847 2697 581 2553 
L 581 3406 
Q 941 3494 1303 3539 
Q 1666 3584 2028 3584 
Q 2975 3584 3395 3211 
Q 3816 2838 3816 1997 
z
" transform="scale(0.015625)"/>
     <path id="DejaVuSans-Bold-72" d="M 3138 2547 
Q 2991 2616 2845 2648 
Q 2700 2681 2553 2681 
Q 2122 2681 1889 2404 
Q 1656 2128 1656 1613 
L 1656 0 
L 538 0 
L 538 3500 
L 1656 3500 
L 1656 2925 
Q 1872 3269 2151 3426 
Q 2431 3584 2822 3584 
Q 2878 3584 2943 3579 
Q 3009 3575 3134 3559 
L 3138 2547 
z
" transform="scale(0.015625)"/>
     <path id="DejaVuSans-Bold-64" d="M 2919 2988 
L 2919 4863 
L 4044 4863 
L 4044 0 
L 2919 0 
L 2919 506 
Q 2688 197 2409 53 
Q 2131 -91 1766 -91 
Q 1119 -91 703 423 
Q 288 938 288 1747 
Q 288 2556 703 3070 
Q 1119 3584 1766 3584 
Q 2128 3584 2408 3439 
Q 2688 3294 2919 2988 
z
M 2181 722 
Q 2541 722 2730 984 
Q 2919 1247 2919 1747 
Q 2919 2247 2730 2509 
Q 2541 2772 2181 2772 
Q 1825 2772 1636 2509 
Q 1447 2247 1447 1747 
Q 1447 1247 1636 984 
Q 1825 722 2181 722 
z
" transform="scale(0.015625)"/>
     <path id="DejaVuSans-Bold-73" d="M 3272 3391 
L 3272 2541 
Q 2913 2691 2578 2766 
Q 2244 2841 1947 2841 
Q 1628 2841 1473 2761 
Q 1319 2681 1319 2516 
Q 1319 2381 1436 2309 
Q 1553 2238 1856 2203 
L 2053 2175 
Q 2913 2066 3209 1816 
Q 3506 1566 3506 1031 
Q 3506 472 3093 190 
Q 2681 -91 1863 -91 
Q 1516 -91 1145 -36 
Q 775 19 384 128 
L 384 978 
Q 719 816 1070 734 
Q 1422 653 1784 653 
Q 2113 653 2278 743 
Q 2444 834 2444 1013 
Q 2444 1163 2330 1236 
Q 2216 1309 1875 1350 
L 1678 1375 
Q 931 1469 631 1722 
Q 331 1975 331 2491 
Q 331 3047 712 3315 
Q 1094 3584 1881 3584 
Q 2191 3584 2531 3537 
Q 2872 3491 3272 3391 
z
" transform="scale(0.015625)"/>
     <path id="DejaVuSans-Bold-3a" d="M 716 3500 
L 1844 3500 
L 1844 2291 
L 716 2291 
L 716 3500 
z
M 716 1209 
L 1844 1209 
L 1844 0 
L 716 0 
L 716 1209 
z
" transform="scale(0.015625)"/>
     <path id="DejaVuSans-Bold-20" transform="scale(0.015625)"/>
     <path id="DejaVuSans-Bold-50" d="M 588 4666 
L 2584 4666 
Q 3475 4666 3951 4270 
Q 4428 3875 4428 3144 
Q 4428 2409 3951 2014 
Q 3475 1619 2584 1619 
L 1791 1619 
L 1791 0 
L 588 0 
L 588 4666 
z
M 1791 3794 
L 1791 2491 
L 2456 2491 
Q 2806 2491 2997 2661 
Q 3188 2831 3188 3144 
Q 3188 3456 2997 3625 
Q 2806 3794 2456 3794 
L 1791 3794 
z
" transform="scale(0.015625)"/>
     <path id="DejaVuSans-Bold-6e" d="M 4056 2131 
L 4056 0 
L 2931 0 
L 2931 347 
L 2931 1631 
Q 2931 2084 2911 2256 
Q 2891 2428 2841 2509 
Q 2775 2619 2662 2680 
Q 2550 2741 2406 2741 
Q 2056 2741 1856 2470 
Q 1656 2200 1656 1722 
L 1656 0 
L 538 0 
L 538 3500 
L 1656 3500 
L 1656 2988 
Q 1909 3294 2193 3439 
Q 2478 3584 2822 3584 
Q 3428 3584 3742 3212 
Q 4056 2841 4056 2131 
z
" transform="scale(0.015625)"/>
     <path id="DejaVuSans-Bold-75" d="M 500 1363 
L 500 3500 
L 1625 3500 
L 1625 3150 
Q 1625 2866 1622 2436 
Q 1619 2006 1619 1863 
Q 1619 1441 1641 1255 
Q 1663 1069 1716 984 
Q 1784 875 1895 815 
Q 2006 756 2150 756 
Q 2500 756 2700 1025 
Q 2900 1294 2900 1772 
L 2900 3500 
L 4019 3500 
L 4019 0 
L 2900 0 
L 2900 506 
Q 2647 200 2364 54 
Q 2081 -91 1741 -91 
Q 1134 -91 817 281 
Q 500 653 500 1363 
z
" transform="scale(0.015625)"/>
     <path id="DejaVuSans-Bold-6c" d="M 538 4863 
L 1656 4863 
L 1656 0 
L 538 0 
L 538 4863 
z
" transform="scale(0.015625)"/>
     <path id="DejaVuSans-Bold-6d" d="M 3781 2919 
Q 3994 3244 4286 3414 
Q 4578 3584 4928 3584 
Q 5531 3584 5847 3212 
Q 6163 2841 6163 2131 
L 6163 0 
L 5038 0 
L 5038 1825 
Q 5041 1866 5042 1909 
Q 5044 1953 5044 2034 
Q 5044 2406 4934 2573 
Q 4825 2741 4581 2741 
Q 4263 2741 4089 2478 
Q 3916 2216 3909 1719 
L 3909 0 
L 2784 0 
L 2784 1825 
Q 2784 2406 2684 2573 
Q 2584 2741 2328 2741 
Q 2006 2741 1831 2477 
Q 1656 2213 1656 1722 
L 1656 0 
L 531 0 
L 531 3500 
L 1656 3500 
L 1656 2988 
Q 1863 3284 2130 3434 
Q 2397 3584 2719 3584 
Q 3081 3584 3359 3409 
Q 3638 3234 3781 2919 
z
" transform="scale(0.015625)"/>
     <path id="DejaVuSans-Bold-2d" d="M 347 2297 
L 2309 2297 
L 2309 1388 
L 347 1388 
L 347 2297 
z
" transform="scale(0.015625)"/>
     <path id="DejaVuSans-Bold-76" d="M 97 3500 
L 1216 3500 
L 2088 1081 
L 2956 3500 
L 4078 3500 
L 2700 0 
L 1472 0 
L 97 3500 
z
" transform="scale(0.015625)"/>
     <path id="DejaVuSans-Bold-31" d="M 750 831 
L 1813 831 
L 1813 3847 
L 722 3622 
L 722 4441 
L 1806 4666 
L 2950 4666 
L 2950 831 
L 4013 831 
L 4013 0 
L 750 0 
L 750 831 
z
" transform="scale(0.015625)"/>
     <path id="DejaVuSans-Bold-28" d="M 2413 -844 
L 1484 -844 
Q 1006 -72 778 623 
Q 550 1319 550 2003 
Q 550 2688 779 3389 
Q 1009 4091 1484 4856 
L 2413 4856 
Q 2013 4116 1813 3408 
Q 1613 2700 1613 2009 
Q 1613 1319 1811 609 
Q 2009 -100 2413 -844 
z
" transform="scale(0.015625)"/>
     <path id="DejaVuSans-Bold-44" d="M 1791 3756 
L 1791 909 
L 2222 909 
Q 2959 909 3348 1275 
Q 3738 1641 3738 2338 
Q 3738 3031 3350 3393 
Q 2963 3756 2222 3756 
L 1791 3756 
z
M 588 4666 
L 1856 4666 
Q 2919 4666 3439 4514 
Q 3959 4363 4331 4000 
Q 4659 3684 4818 3271 
Q 4978 2859 4978 2338 
Q 4978 1809 4818 1395 
Q 4659 981 4331 666 
Q 3956 303 3431 151 
Q 2906 0 1856 0 
L 588 0 
L 588 4666 
z
" transform="scale(0.015625)"/>
     <path id="DejaVuSans-Bold-69" d="M 538 3500 
L 1656 3500 
L 1656 0 
L 538 0 
L 538 3500 
z
M 538 4863 
L 1656 4863 
L 1656 3950 
L 538 3950 
L 538 4863 
z
" transform="scale(0.015625)"/>
     <path id="DejaVuSans-Bold-63" d="M 3366 3391 
L 3366 2478 
Q 3138 2634 2908 2709 
Q 2678 2784 2431 2784 
Q 1963 2784 1702 2511 
Q 1441 2238 1441 1747 
Q 1441 1256 1702 982 
Q 1963 709 2431 709 
Q 2694 709 2930 787 
Q 3166 866 3366 1019 
L 3366 103 
Q 3103 6 2833 -42 
Q 2563 -91 2291 -91 
Q 1344 -91 809 395 
Q 275 881 275 1747 
Q 275 2613 809 3098 
Q 1344 3584 2291 3584 
Q 2566 3584 2833 3536 
Q 3100 3488 3366 3391 
z
" transform="scale(0.015625)"/>
     <path id="DejaVuSans-Bold-74" d="M 1759 4494 
L 1759 3500 
L 2913 3500 
L 2913 2700 
L 1759 2700 
L 1759 1216 
Q 1759 972 1856 886 
Q 1953 800 2241 800 
L 2816 800 
L 2816 0 
L 1856 0 
Q 1194 0 917 276 
Q 641 553 641 1216 
L 641 2700 
L 84 2700 
L 84 3500 
L 641 3500 
L 641 4494 
L 1759 4494 
z
" transform="scale(0.015625)"/>
     <path id="DejaVuSans-Bold-7a" d="M 366 3500 
L 3419 3500 
L 3419 2719 
L 1575 800 
L 3419 800 
L 3419 0 
L 288 0 
L 288 781 
L 2131 2700 
L 366 2700 
L 366 3500 
z
" transform="scale(0.015625)"/>
     <path id="DejaVuSans-Bold-29" d="M 513 -844 
Q 913 -100 1113 609 
Q 1313 1319 1313 2009 
Q 1313 2700 1113 3408 
Q 913 4116 513 4856 
L 1441 4856 
Q 1916 4091 2145 3389 
Q 2375 2688 2375 2003 
Q 2375 1319 2147 623 
Q 1919 -72 1441 -844 
L 513 -844 
z
" transform="scale(0.015625)"/>
     <path id="DejaVuSans-Bold-4e" d="M 588 4666 
L 1931 4666 
L 3628 1466 
L 3628 4666 
L 4769 4666 
L 4769 0 
L 3425 0 
L 1728 3200 
L 1728 0 
L 588 0 
L 588 4666 
z
" transform="scale(0.015625)"/>
     <path id="DejaVuSans-Bold-6f" d="M 2203 2784 
Q 1831 2784 1636 2517 
Q 1441 2250 1441 1747 
Q 1441 1244 1636 976 
Q 1831 709 2203 709 
Q 2569 709 2762 976 
Q 2956 1244 2956 1747 
Q 2956 2250 2762 2517 
Q 2569 2784 2203 2784 
z
M 2203 3584 
Q 3106 3584 3614 3096 
Q 4122 2609 4122 1747 
Q 4122 884 3614 396 
Q 3106 -91 2203 -91 
Q 1297 -91 786 396 
Q 275 884 275 1747 
Q 275 2609 786 3096 
Q 1297 3584 2203 3584 
z
" transform="scale(0.015625)"/>
     <path id="DejaVuSans-Bold-2b" d="M 3053 4013 
L 3053 2375 
L 4684 2375 
L 4684 1638 
L 3053 1638 
L 3053 0 
L 2309 0 
L 2309 1638 
L 678 1638 
L 678 2375 
L 2309 2375 
L 2309 4013 
L 3053 4013 
z
" transform="scale(0.015625)"/>
     <path id="DejaVuSans-Bold-45" d="M 588 4666 
L 3834 4666 
L 3834 3756 
L 1791 3756 
L 1791 2888 
L 3713 2888 
L 3713 1978 
L 1791 1978 
L 1791 909 
L 3903 909 
L 3903 0 
L 588 0 
L 588 4666 
z
" transform="scale(0.015625)"/>
     <path id="DejaVuSans-Bold-70" d="M 1656 506 
L 1656 -1331 
L 538 -1331 
L 538 3500 
L 1656 3500 
L 1656 2988 
Q 1888 3294 2169 3439 
Q 2450 3584 2816 3584 
Q 3463 3584 3878 3070 
Q 4294 2556 4294 1747 
Q 4294 938 3878 423 
Q 3463 -91 2816 -91 
Q 2450 -91 2169 54 
Q 1888 200 1656 506 
z
M 2400 2772 
Q 2041 2772 1848 2508 
Q 1656 2244 1656 1747 
Q 1656 1250 1848 986 
Q 2041 722 2400 722 
Q 2759 722 2948 984 
Q 3138 1247 3138 1747 
Q 3138 2247 2948 2509 
Q 2759 2772 2400 2772 
z
" transform="scale(0.015625)"/>
     <path id="DejaVuSans-Bold-79" d="M 78 3500 
L 1197 3500 
L 2138 1125 
L 2938 3500 
L 4056 3500 
L 2584 -331 
Q 2363 -916 2067 -1148 
Q 1772 -1381 1288 -1381 
L 641 -1381 
L 641 -647 
L 991 -647 
Q 1275 -647 1404 -556 
Q 1534 -466 1606 -231 
L 1638 -134 
L 78 3500 
z
" transform="scale(0.015625)"/>
    </defs>
    <use xlink:href="#DejaVuSans-Bold-52"/>
    <use xlink:href="#DejaVuSans-Bold-65" transform="translate(77.001953 0)"/>
    <use xlink:href="#DejaVuSans-Bold-77" transform="translate(144.824219 0)"/>
    <use xlink:href="#DejaVuSans-Bold-61" transform="translate(237.207031 0)"/>
    <use xlink:href="#DejaVuSans-Bold-72" transform="translate(304.6875 0)"/>
    <use xlink:href="#DejaVuSans-Bold-64" transform="translate(354.003906 0)"/>
    <use xlink:href="#DejaVuSans-Bold-73" transform="translate(425.585938 0)"/>
    <use xlink:href="#DejaVuSans-Bold-3a" transform="translate(485.107422 0)"/>
    <use xlink:href="#DejaVuSans-Bold-20" transform="translate(525.097656 0)"/>
    <use xlink:href="#DejaVuSans-Bold-50" transform="translate(559.912109 0)"/>
    <use xlink:href="#DejaVuSans-Bold-65" transform="translate(633.203125 0)"/>
    <use xlink:href="#DejaVuSans-Bold-6e" transform="translate(701.025391 0)"/>
    <use xlink:href="#DejaVuSans-Bold-64" transform="translate(772.216797 0)"/>
    <use xlink:href="#DejaVuSans-Bold-75" transform="translate(843.798828 0)"/>
    <use xlink:href="#DejaVuSans-Bold-6c" transform="translate(914.990234 0)"/>
    <use xlink:href="#DejaVuSans-Bold-75" transform="translate(949.267578 0)"/>
    <use xlink:href="#DejaVuSans-Bold-6d" transform="translate(1020.458984 0)"/>
    <use xlink:href="#DejaVuSans-Bold-2d" transform="translate(1124.658203 0)"/>
    <use xlink:href="#DejaVuSans-Bold-76" transform="translate(1166.162109 0)"/>
    <use xlink:href="#DejaVuSans-Bold-31" transform="translate(1231.347656 0)"/>
    <use xlink:href="#DejaVuSans-Bold-20" transform="translate(1300.927734 0)"/>
    <use xlink:href="#DejaVuSans-Bold-28" transform="translate(1335.742188 0)"/>
    <use xlink:href="#DejaVuSans-Bold-44" transform="translate(1381.445312 0)"/>
    <use xlink:href="#DejaVuSans-Bold-69" transform="translate(1464.453125 0)"/>
    <use xlink:href="#DejaVuSans-Bold-73" transform="translate(1498.730469 0)"/>
    <use xlink:href="#DejaVuSans-Bold-63" transform="translate(1558.251953 0)"/>
    <use xlink:href="#DejaVuSans-Bold-72" transform="translate(1617.529297 0)"/>
    <use xlink:href="#DejaVuSans-Bold-65" transform="translate(1666.845703 0)"/>
    <use xlink:href="#DejaVuSans-Bold-74" transform="translate(1734.667969 0)"/>
    <use xlink:href="#DejaVuSans-Bold-69" transform="translate(1782.470703 0)"/>
    <use xlink:href="#DejaVuSans-Bold-7a" transform="translate(1816.748047 0)"/>
    <use xlink:href="#DejaVuSans-Bold-65" transform="translate(1874.951172 0)"/>
    <use xlink:href="#DejaVuSans-Bold-64" transform="translate(1942.773438 0)"/>
    <use xlink:href="#DejaVuSans-Bold-29" transform="translate(2014.355469 0)"/>
    <use xlink:href="#DejaVuSans-Bold-20" transform="translate(2060.058594 0)"/>
    <use xlink:href="#DejaVuSans-Bold-28" transform="translate(2094.873047 0)"/>
    <use xlink:href="#DejaVuSans-Bold-4e" transform="translate(2140.576172 0)"/>
    <use xlink:href="#DejaVuSans-Bold-6f" transform="translate(2224.267578 0)"/>
    <use xlink:href="#DejaVuSans-Bold-69" transform="translate(2292.96875 0)"/>
    <use xlink:href="#DejaVuSans-Bold-73" transform="translate(2327.246094 0)"/>
    <use xlink:href="#DejaVuSans-Bold-65" transform="translate(2386.767578 0)"/>
    <use xlink:href="#DejaVuSans-Bold-20" transform="translate(2454.589844 0)"/>
    <use xlink:href="#DejaVuSans-Bold-2b" transform="translate(2489.404297 0)"/>
    <use xlink:href="#DejaVuSans-Bold-20" transform="translate(2573.193359 0)"/>
    <use xlink:href="#DejaVuSans-Bold-45" transform="translate(2608.007812 0)"/>
    <use xlink:href="#DejaVuSans-Bold-6e" transform="translate(2676.318359 0)"/>
    <use xlink:href="#DejaVuSans-Bold-74" transform="translate(2747.509766 0)"/>
    <use xlink:href="#DejaVuSans-Bold-72" transform="translate(2795.3125 0)"/>
    <use xlink:href="#DejaVuSans-Bold-6f" transform="translate(2844.628906 0)"/>
    <use xlink:href="#DejaVuSans-Bold-70" transform="translate(2913.330078 0)"/>
    <use xlink:href="#DejaVuSans-Bold-79" transform="translate(2984.912109 0)"/>
    <use xlink:href="#DejaVuSans-Bold-29" transform="translate(3050.097656 0)"/>
   </g>
  </g>
 </g>
 <defs>
  <clipPath id="pefcebe436d">
   <rect x="65.63" y="57.0062" width="571.57" height="333.0338"/>
  </clipPath>
 </defs>
</svg>
