<?xml version="1.0" encoding="utf-8" standalone="no"?>
<!DOCTYPE svg PUBLIC "-//W3C//DTD SVG 1.1//EN"
  "http://www.w3.org/Graphics/SVG/1.1/DTD/svg11.dtd">
<svg xmlns:xlink="http://www.w3.org/1999/xlink" width="648pt" height="432pt" viewBox="0 0 648 432" xmlns="http://www.w3.org/2000/svg" version="1.1">
 <metadata>
  <rdf:RDF xmlns:dc="http://purl.org/dc/elements/1.1/" xmlns:cc="http://creativecommons.org/ns#" xmlns:rdf="http://www.w3.org/1999/02/22-rdf-syntax-ns#">
   <cc:Work>
    <dc:type rdf:resource="http://purl.org/dc/dcmitype/StillImage"/>
    <dc:date>2025-07-17T10:28:39.837345</dc:date>
    <dc:format>image/svg+xml</dc:format>
    <dc:creator>
     <cc:Agent>
      <dc:title>Matplotlib v3.10.0, https://matplotlib.org/</dc:title>
     </cc:Agent>
    </dc:creator>
   </cc:Work>
  </rdf:RDF>
 </metadata>
 <defs>
  <style type="text/css">*{stroke-linejoin: round; stroke-linecap: butt}</style>
 </defs>
 <g id="figure_1">
  <g id="patch_1">
   <path d="M 0 432 
L 648 432 
L 648 0 
L 0 0 
z
" style="fill: #ffffff"/>
  </g>
  <g id="axes_1">
   <g id="patch_2">
    <path d="M 65.63 390.04 
L 632.205 390.04 
L 632.205 57.0062 
L 65.63 57.0062 
z
" style="fill: #eaeaf2"/>
   </g>
   <g id="matplotlib.axis_1">
    <g id="xtick_1">
     <g id="line2d_1">
      <path d="M 65.63083 390.04 
L 65.63083 57.0062 
" clip-path="url(#p1139e3274b)" style="fill: none; stroke: #ffffff; stroke-width: 0.8; stroke-linecap: round"/>
     </g>
     <g id="text_1">
      <!-- 0.00 -->
      <g style="fill: #262626" transform="translate(54.498017 404.638438) scale(0.1 -0.1)">
       <defs>
        <path id="DejaVuSans-30" d="M 2034 4250 
Q 1547 4250 1301 3770 
Q 1056 3291 1056 2328 
Q 1056 1369 1301 889 
Q 1547 409 2034 409 
Q 2525 409 2770 889 
Q 3016 1369 3016 2328 
Q 3016 3291 2770 3770 
Q 2525 4250 2034 4250 
z
M 2034 4750 
Q 2819 4750 3233 4129 
Q 3647 3509 3647 2328 
Q 3647 1150 3233 529 
Q 2819 -91 2034 -91 
Q 1250 -91 836 529 
Q 422 1150 422 2328 
Q 422 3509 836 4129 
Q 1250 4750 2034 4750 
z
" transform="scale(0.015625)"/>
        <path id="DejaVuSans-2e" d="M 684 794 
L 1344 794 
L 1344 0 
L 684 0 
L 684 794 
z
" transform="scale(0.015625)"/>
       </defs>
       <use xlink:href="#DejaVuSans-30"/>
       <use xlink:href="#DejaVuSans-2e" transform="translate(63.623047 0)"/>
       <use xlink:href="#DejaVuSans-30" transform="translate(95.410156 0)"/>
       <use xlink:href="#DejaVuSans-30" transform="translate(159.033203 0)"/>
      </g>
     </g>
    </g>
    <g id="xtick_2">
     <g id="line2d_2">
      <path d="M 134.792615 390.04 
L 134.792615 57.0062 
" clip-path="url(#p1139e3274b)" style="fill: none; stroke: #ffffff; stroke-width: 0.8; stroke-linecap: round"/>
     </g>
     <g id="text_2">
      <!-- 0.25 -->
      <g style="fill: #262626" transform="translate(123.659802 404.638438) scale(0.1 -0.1)">
       <defs>
        <path id="DejaVuSans-32" d="M 1228 531 
L 3431 531 
L 3431 0 
L 469 0 
L 469 531 
Q 828 903 1448 1529 
Q 2069 2156 2228 2338 
Q 2531 2678 2651 2914 
Q 2772 3150 2772 3378 
Q 2772 3750 2511 3984 
Q 2250 4219 1831 4219 
Q 1534 4219 1204 4116 
Q 875 4013 500 3803 
L 500 4441 
Q 881 4594 1212 4672 
Q 1544 4750 1819 4750 
Q 2544 4750 2975 4387 
Q 3406 4025 3406 3419 
Q 3406 3131 3298 2873 
Q 3191 2616 2906 2266 
Q 2828 2175 2409 1742 
Q 1991 1309 1228 531 
z
" transform="scale(0.015625)"/>
        <path id="DejaVuSans-35" d="M 691 4666 
L 3169 4666 
L 3169 4134 
L 1269 4134 
L 1269 2991 
Q 1406 3038 1543 3061 
Q 1681 3084 1819 3084 
Q 2600 3084 3056 2656 
Q 3513 2228 3513 1497 
Q 3513 744 3044 326 
Q 2575 -91 1722 -91 
Q 1428 -91 1123 -41 
Q 819 9 494 109 
L 494 744 
Q 775 591 1075 516 
Q 1375 441 1709 441 
Q 2250 441 2565 725 
Q 2881 1009 2881 1497 
Q 2881 1984 2565 2268 
Q 2250 2553 1709 2553 
Q 1456 2553 1204 2497 
Q 953 2441 691 2322 
L 691 4666 
z
" transform="scale(0.015625)"/>
       </defs>
       <use xlink:href="#DejaVuSans-30"/>
       <use xlink:href="#DejaVuSans-2e" transform="translate(63.623047 0)"/>
       <use xlink:href="#DejaVuSans-32" transform="translate(95.410156 0)"/>
       <use xlink:href="#DejaVuSans-35" transform="translate(159.033203 0)"/>
      </g>
     </g>
    </g>
    <g id="xtick_3">
     <g id="line2d_3">
      <path d="M 203.954399 390.04 
L 203.954399 57.0062 
" clip-path="url(#p1139e3274b)" style="fill: none; stroke: #ffffff; stroke-width: 0.8; stroke-linecap: round"/>
     </g>
     <g id="text_3">
      <!-- 0.50 -->
      <g style="fill: #262626" transform="translate(192.821587 404.638438) scale(0.1 -0.1)">
       <use xlink:href="#DejaVuSans-30"/>
       <use xlink:href="#DejaVuSans-2e" transform="translate(63.623047 0)"/>
       <use xlink:href="#DejaVuSans-35" transform="translate(95.410156 0)"/>
       <use xlink:href="#DejaVuSans-30" transform="translate(159.033203 0)"/>
      </g>
     </g>
    </g>
    <g id="xtick_4">
     <g id="line2d_4">
      <path d="M 273.116184 390.04 
L 273.116184 57.0062 
" clip-path="url(#p1139e3274b)" style="fill: none; stroke: #ffffff; stroke-width: 0.8; stroke-linecap: round"/>
     </g>
     <g id="text_4">
      <!-- 0.75 -->
      <g style="fill: #262626" transform="translate(261.983371 404.638438) scale(0.1 -0.1)">
       <defs>
        <path id="DejaVuSans-37" d="M 525 4666 
L 3525 4666 
L 3525 4397 
L 1831 0 
L 1172 0 
L 2766 4134 
L 525 4134 
L 525 4666 
z
" transform="scale(0.015625)"/>
       </defs>
       <use xlink:href="#DejaVuSans-30"/>
       <use xlink:href="#DejaVuSans-2e" transform="translate(63.623047 0)"/>
       <use xlink:href="#DejaVuSans-37" transform="translate(95.410156 0)"/>
       <use xlink:href="#DejaVuSans-35" transform="translate(159.033203 0)"/>
      </g>
     </g>
    </g>
    <g id="xtick_5">
     <g id="line2d_5">
      <path d="M 342.277969 390.04 
L 342.277969 57.0062 
" clip-path="url(#p1139e3274b)" style="fill: none; stroke: #ffffff; stroke-width: 0.8; stroke-linecap: round"/>
     </g>
     <g id="text_5">
      <!-- 1.00 -->
      <g style="fill: #262626" transform="translate(331.145156 404.638438) scale(0.1 -0.1)">
       <defs>
        <path id="DejaVuSans-31" d="M 794 531 
L 1825 531 
L 1825 4091 
L 703 3866 
L 703 4441 
L 1819 4666 
L 2450 4666 
L 2450 531 
L 3481 531 
L 3481 0 
L 794 0 
L 794 531 
z
" transform="scale(0.015625)"/>
       </defs>
       <use xlink:href="#DejaVuSans-31"/>
       <use xlink:href="#DejaVuSans-2e" transform="translate(63.623047 0)"/>
       <use xlink:href="#DejaVuSans-30" transform="translate(95.410156 0)"/>
       <use xlink:href="#DejaVuSans-30" transform="translate(159.033203 0)"/>
      </g>
     </g>
    </g>
    <g id="xtick_6">
     <g id="line2d_6">
      <path d="M 411.439753 390.04 
L 411.439753 57.0062 
" clip-path="url(#p1139e3274b)" style="fill: none; stroke: #ffffff; stroke-width: 0.8; stroke-linecap: round"/>
     </g>
     <g id="text_6">
      <!-- 1.25 -->
      <g style="fill: #262626" transform="translate(400.306941 404.638438) scale(0.1 -0.1)">
       <use xlink:href="#DejaVuSans-31"/>
       <use xlink:href="#DejaVuSans-2e" transform="translate(63.623047 0)"/>
       <use xlink:href="#DejaVuSans-32" transform="translate(95.410156 0)"/>
       <use xlink:href="#DejaVuSans-35" transform="translate(159.033203 0)"/>
      </g>
     </g>
    </g>
    <g id="xtick_7">
     <g id="line2d_7">
      <path d="M 480.601538 390.04 
L 480.601538 57.0062 
" clip-path="url(#p1139e3274b)" style="fill: none; stroke: #ffffff; stroke-width: 0.8; stroke-linecap: round"/>
     </g>
     <g id="text_7">
      <!-- 1.50 -->
      <g style="fill: #262626" transform="translate(469.468726 404.638438) scale(0.1 -0.1)">
       <use xlink:href="#DejaVuSans-31"/>
       <use xlink:href="#DejaVuSans-2e" transform="translate(63.623047 0)"/>
       <use xlink:href="#DejaVuSans-35" transform="translate(95.410156 0)"/>
       <use xlink:href="#DejaVuSans-30" transform="translate(159.033203 0)"/>
      </g>
     </g>
    </g>
    <g id="xtick_8">
     <g id="line2d_8">
      <path d="M 549.763323 390.04 
L 549.763323 57.0062 
" clip-path="url(#p1139e3274b)" style="fill: none; stroke: #ffffff; stroke-width: 0.8; stroke-linecap: round"/>
     </g>
     <g id="text_8">
      <!-- 1.75 -->
      <g style="fill: #262626" transform="translate(538.63051 404.638438) scale(0.1 -0.1)">
       <use xlink:href="#DejaVuSans-31"/>
       <use xlink:href="#DejaVuSans-2e" transform="translate(63.623047 0)"/>
       <use xlink:href="#DejaVuSans-37" transform="translate(95.410156 0)"/>
       <use xlink:href="#DejaVuSans-35" transform="translate(159.033203 0)"/>
      </g>
     </g>
    </g>
    <g id="xtick_9">
     <g id="line2d_9">
      <path d="M 618.925107 390.04 
L 618.925107 57.0062 
" clip-path="url(#p1139e3274b)" style="fill: none; stroke: #ffffff; stroke-width: 0.8; stroke-linecap: round"/>
     </g>
     <g id="text_9">
      <!-- 2.00 -->
      <g style="fill: #262626" transform="translate(607.792295 404.638438) scale(0.1 -0.1)">
       <use xlink:href="#DejaVuSans-32"/>
       <use xlink:href="#DejaVuSans-2e" transform="translate(63.623047 0)"/>
       <use xlink:href="#DejaVuSans-30" transform="translate(95.410156 0)"/>
       <use xlink:href="#DejaVuSans-30" transform="translate(159.033203 0)"/>
      </g>
     </g>
    </g>
    <g id="text_10">
     <!-- Steps -->
     <g style="fill: #262626" transform="translate(334.927656 418.316562) scale(0.1 -0.1)">
      <defs>
       <path id="DejaVuSans-53" d="M 3425 4513 
L 3425 3897 
Q 3066 4069 2747 4153 
Q 2428 4238 2131 4238 
Q 1616 4238 1336 4038 
Q 1056 3838 1056 3469 
Q 1056 3159 1242 3001 
Q 1428 2844 1947 2747 
L 2328 2669 
Q 3034 2534 3370 2195 
Q 3706 1856 3706 1288 
Q 3706 609 3251 259 
Q 2797 -91 1919 -91 
Q 1588 -91 1214 -16 
Q 841 59 441 206 
L 441 856 
Q 825 641 1194 531 
Q 1563 422 1919 422 
Q 2459 422 2753 634 
Q 3047 847 3047 1241 
Q 3047 1584 2836 1778 
Q 2625 1972 2144 2069 
L 1759 2144 
Q 1053 2284 737 2584 
Q 422 2884 422 3419 
Q 422 4038 858 4394 
Q 1294 4750 2059 4750 
Q 2388 4750 2728 4690 
Q 3069 4631 3425 4513 
z
" transform="scale(0.015625)"/>
       <path id="DejaVuSans-74" d="M 1172 4494 
L 1172 3500 
L 2356 3500 
L 2356 3053 
L 1172 3053 
L 1172 1153 
Q 1172 725 1289 603 
Q 1406 481 1766 481 
L 2356 481 
L 2356 0 
L 1766 0 
Q 1100 0 847 248 
Q 594 497 594 1153 
L 594 3053 
L 172 3053 
L 172 3500 
L 594 3500 
L 594 4494 
L 1172 4494 
z
" transform="scale(0.015625)"/>
       <path id="DejaVuSans-65" d="M 3597 1894 
L 3597 1613 
L 953 1613 
Q 991 1019 1311 708 
Q 1631 397 2203 397 
Q 2534 397 2845 478 
Q 3156 559 3463 722 
L 3463 178 
Q 3153 47 2828 -22 
Q 2503 -91 2169 -91 
Q 1331 -91 842 396 
Q 353 884 353 1716 
Q 353 2575 817 3079 
Q 1281 3584 2069 3584 
Q 2775 3584 3186 3129 
Q 3597 2675 3597 1894 
z
M 3022 2063 
Q 3016 2534 2758 2815 
Q 2500 3097 2075 3097 
Q 1594 3097 1305 2825 
Q 1016 2553 972 2059 
L 3022 2063 
z
" transform="scale(0.015625)"/>
       <path id="DejaVuSans-70" d="M 1159 525 
L 1159 -1331 
L 581 -1331 
L 581 3500 
L 1159 3500 
L 1159 2969 
Q 1341 3281 1617 3432 
Q 1894 3584 2278 3584 
Q 2916 3584 3314 3078 
Q 3713 2572 3713 1747 
Q 3713 922 3314 415 
Q 2916 -91 2278 -91 
Q 1894 -91 1617 61 
Q 1341 213 1159 525 
z
M 3116 1747 
Q 3116 2381 2855 2742 
Q 2594 3103 2138 3103 
Q 1681 3103 1420 2742 
Q 1159 2381 1159 1747 
Q 1159 1113 1420 752 
Q 1681 391 2138 391 
Q 2594 391 2855 752 
Q 3116 1113 3116 1747 
z
" transform="scale(0.015625)"/>
       <path id="DejaVuSans-73" d="M 2834 3397 
L 2834 2853 
Q 2591 2978 2328 3040 
Q 2066 3103 1784 3103 
Q 1356 3103 1142 2972 
Q 928 2841 928 2578 
Q 928 2378 1081 2264 
Q 1234 2150 1697 2047 
L 1894 2003 
Q 2506 1872 2764 1633 
Q 3022 1394 3022 966 
Q 3022 478 2636 193 
Q 2250 -91 1575 -91 
Q 1294 -91 989 -36 
Q 684 19 347 128 
L 347 722 
Q 666 556 975 473 
Q 1284 391 1588 391 
Q 1994 391 2212 530 
Q 2431 669 2431 922 
Q 2431 1156 2273 1281 
Q 2116 1406 1581 1522 
L 1381 1569 
Q 847 1681 609 1914 
Q 372 2147 372 2553 
Q 372 3047 722 3315 
Q 1072 3584 1716 3584 
Q 2034 3584 2315 3537 
Q 2597 3491 2834 3397 
z
" transform="scale(0.015625)"/>
      </defs>
      <use xlink:href="#DejaVuSans-53"/>
      <use xlink:href="#DejaVuSans-74" transform="translate(63.476562 0)"/>
      <use xlink:href="#DejaVuSans-65" transform="translate(102.685547 0)"/>
      <use xlink:href="#DejaVuSans-70" transform="translate(164.208984 0)"/>
      <use xlink:href="#DejaVuSans-73" transform="translate(227.685547 0)"/>
     </g>
    </g>
    <g id="text_11">
     <!-- 1e6 -->
     <g style="fill: #262626" transform="translate(613.326875 417.316562) scale(0.1 -0.1)">
      <defs>
       <path id="DejaVuSans-36" d="M 2113 2584 
Q 1688 2584 1439 2293 
Q 1191 2003 1191 1497 
Q 1191 994 1439 701 
Q 1688 409 2113 409 
Q 2538 409 2786 701 
Q 3034 994 3034 1497 
Q 3034 2003 2786 2293 
Q 2538 2584 2113 2584 
z
M 3366 4563 
L 3366 3988 
Q 3128 4100 2886 4159 
Q 2644 4219 2406 4219 
Q 1781 4219 1451 3797 
Q 1122 3375 1075 2522 
Q 1259 2794 1537 2939 
Q 1816 3084 2150 3084 
Q 2853 3084 3261 2657 
Q 3669 2231 3669 1497 
Q 3669 778 3244 343 
Q 2819 -91 2113 -91 
Q 1303 -91 875 529 
Q 447 1150 447 2328 
Q 447 3434 972 4092 
Q 1497 4750 2381 4750 
Q 2619 4750 2861 4703 
Q 3103 4656 3366 4563 
z
" transform="scale(0.015625)"/>
      </defs>
      <use xlink:href="#DejaVuSans-31"/>
      <use xlink:href="#DejaVuSans-65" transform="translate(63.623047 0)"/>
      <use xlink:href="#DejaVuSans-36" transform="translate(125.146484 0)"/>
     </g>
    </g>
   </g>
   <g id="matplotlib.axis_2">
    <g id="ytick_1">
     <g id="line2d_10">
      <path d="M 65.63 390.04 
L 632.205 390.04 
" clip-path="url(#p1139e3274b)" style="fill: none; stroke: #ffffff; stroke-width: 0.8; stroke-linecap: round"/>
     </g>
     <g id="text_12">
      <!-- −1600 -->
      <g style="fill: #262626" transform="translate(24.800313 393.839219) scale(0.1 -0.1)">
       <defs>
        <path id="DejaVuSans-2212" d="M 678 2272 
L 4684 2272 
L 4684 1741 
L 678 1741 
L 678 2272 
z
" transform="scale(0.015625)"/>
       </defs>
       <use xlink:href="#DejaVuSans-2212"/>
       <use xlink:href="#DejaVuSans-31" transform="translate(83.789062 0)"/>
       <use xlink:href="#DejaVuSans-36" transform="translate(147.412109 0)"/>
       <use xlink:href="#DejaVuSans-30" transform="translate(211.035156 0)"/>
       <use xlink:href="#DejaVuSans-30" transform="translate(274.658203 0)"/>
      </g>
     </g>
    </g>
    <g id="ytick_2">
     <g id="line2d_11">
      <path d="M 65.63 348.410775 
L 632.205 348.410775 
" clip-path="url(#p1139e3274b)" style="fill: none; stroke: #ffffff; stroke-width: 0.8; stroke-linecap: round"/>
     </g>
     <g id="text_13">
      <!-- −1400 -->
      <g style="fill: #262626" transform="translate(24.800313 352.209994) scale(0.1 -0.1)">
       <defs>
        <path id="DejaVuSans-34" d="M 2419 4116 
L 825 1625 
L 2419 1625 
L 2419 4116 
z
M 2253 4666 
L 3047 4666 
L 3047 1625 
L 3713 1625 
L 3713 1100 
L 3047 1100 
L 3047 0 
L 2419 0 
L 2419 1100 
L 313 1100 
L 313 1709 
L 2253 4666 
z
" transform="scale(0.015625)"/>
       </defs>
       <use xlink:href="#DejaVuSans-2212"/>
       <use xlink:href="#DejaVuSans-31" transform="translate(83.789062 0)"/>
       <use xlink:href="#DejaVuSans-34" transform="translate(147.412109 0)"/>
       <use xlink:href="#DejaVuSans-30" transform="translate(211.035156 0)"/>
       <use xlink:href="#DejaVuSans-30" transform="translate(274.658203 0)"/>
      </g>
     </g>
    </g>
    <g id="ytick_3">
     <g id="line2d_12">
      <path d="M 65.63 306.78155 
L 632.205 306.78155 
" clip-path="url(#p1139e3274b)" style="fill: none; stroke: #ffffff; stroke-width: 0.8; stroke-linecap: round"/>
     </g>
     <g id="text_14">
      <!-- −1200 -->
      <g style="fill: #262626" transform="translate(24.800313 310.580769) scale(0.1 -0.1)">
       <use xlink:href="#DejaVuSans-2212"/>
       <use xlink:href="#DejaVuSans-31" transform="translate(83.789062 0)"/>
       <use xlink:href="#DejaVuSans-32" transform="translate(147.412109 0)"/>
       <use xlink:href="#DejaVuSans-30" transform="translate(211.035156 0)"/>
       <use xlink:href="#DejaVuSans-30" transform="translate(274.658203 0)"/>
      </g>
     </g>
    </g>
    <g id="ytick_4">
     <g id="line2d_13">
      <path d="M 65.63 265.152325 
L 632.205 265.152325 
" clip-path="url(#p1139e3274b)" style="fill: none; stroke: #ffffff; stroke-width: 0.8; stroke-linecap: round"/>
     </g>
     <g id="text_15">
      <!-- −1000 -->
      <g style="fill: #262626" transform="translate(24.800313 268.951544) scale(0.1 -0.1)">
       <use xlink:href="#DejaVuSans-2212"/>
       <use xlink:href="#DejaVuSans-31" transform="translate(83.789062 0)"/>
       <use xlink:href="#DejaVuSans-30" transform="translate(147.412109 0)"/>
       <use xlink:href="#DejaVuSans-30" transform="translate(211.035156 0)"/>
       <use xlink:href="#DejaVuSans-30" transform="translate(274.658203 0)"/>
      </g>
     </g>
    </g>
    <g id="ytick_5">
     <g id="line2d_14">
      <path d="M 65.63 223.5231 
L 632.205 223.5231 
" clip-path="url(#p1139e3274b)" style="fill: none; stroke: #ffffff; stroke-width: 0.8; stroke-linecap: round"/>
     </g>
     <g id="text_16">
      <!-- −800 -->
      <g style="fill: #262626" transform="translate(31.162813 227.322319) scale(0.1 -0.1)">
       <defs>
        <path id="DejaVuSans-38" d="M 2034 2216 
Q 1584 2216 1326 1975 
Q 1069 1734 1069 1313 
Q 1069 891 1326 650 
Q 1584 409 2034 409 
Q 2484 409 2743 651 
Q 3003 894 3003 1313 
Q 3003 1734 2745 1975 
Q 2488 2216 2034 2216 
z
M 1403 2484 
Q 997 2584 770 2862 
Q 544 3141 544 3541 
Q 544 4100 942 4425 
Q 1341 4750 2034 4750 
Q 2731 4750 3128 4425 
Q 3525 4100 3525 3541 
Q 3525 3141 3298 2862 
Q 3072 2584 2669 2484 
Q 3125 2378 3379 2068 
Q 3634 1759 3634 1313 
Q 3634 634 3220 271 
Q 2806 -91 2034 -91 
Q 1263 -91 848 271 
Q 434 634 434 1313 
Q 434 1759 690 2068 
Q 947 2378 1403 2484 
z
M 1172 3481 
Q 1172 3119 1398 2916 
Q 1625 2713 2034 2713 
Q 2441 2713 2670 2916 
Q 2900 3119 2900 3481 
Q 2900 3844 2670 4047 
Q 2441 4250 2034 4250 
Q 1625 4250 1398 4047 
Q 1172 3844 1172 3481 
z
" transform="scale(0.015625)"/>
       </defs>
       <use xlink:href="#DejaVuSans-2212"/>
       <use xlink:href="#DejaVuSans-38" transform="translate(83.789062 0)"/>
       <use xlink:href="#DejaVuSans-30" transform="translate(147.412109 0)"/>
       <use xlink:href="#DejaVuSans-30" transform="translate(211.035156 0)"/>
      </g>
     </g>
    </g>
    <g id="ytick_6">
     <g id="line2d_15">
      <path d="M 65.63 181.893875 
L 632.205 181.893875 
" clip-path="url(#p1139e3274b)" style="fill: none; stroke: #ffffff; stroke-width: 0.8; stroke-linecap: round"/>
     </g>
     <g id="text_17">
      <!-- −600 -->
      <g style="fill: #262626" transform="translate(31.162813 185.693094) scale(0.1 -0.1)">
       <use xlink:href="#DejaVuSans-2212"/>
       <use xlink:href="#DejaVuSans-36" transform="translate(83.789062 0)"/>
       <use xlink:href="#DejaVuSans-30" transform="translate(147.412109 0)"/>
       <use xlink:href="#DejaVuSans-30" transform="translate(211.035156 0)"/>
      </g>
     </g>
    </g>
    <g id="ytick_7">
     <g id="line2d_16">
      <path d="M 65.63 140.26465 
L 632.205 140.26465 
" clip-path="url(#p1139e3274b)" style="fill: none; stroke: #ffffff; stroke-width: 0.8; stroke-linecap: round"/>
     </g>
     <g id="text_18">
      <!-- −400 -->
      <g style="fill: #262626" transform="translate(31.162813 144.063869) scale(0.1 -0.1)">
       <use xlink:href="#DejaVuSans-2212"/>
       <use xlink:href="#DejaVuSans-34" transform="translate(83.789062 0)"/>
       <use xlink:href="#DejaVuSans-30" transform="translate(147.412109 0)"/>
       <use xlink:href="#DejaVuSans-30" transform="translate(211.035156 0)"/>
      </g>
     </g>
    </g>
    <g id="ytick_8">
     <g id="line2d_17">
      <path d="M 65.63 98.635425 
L 632.205 98.635425 
" clip-path="url(#p1139e3274b)" style="fill: none; stroke: #ffffff; stroke-width: 0.8; stroke-linecap: round"/>
     </g>
     <g id="text_19">
      <!-- −200 -->
      <g style="fill: #262626" transform="translate(31.162813 102.434644) scale(0.1 -0.1)">
       <use xlink:href="#DejaVuSans-2212"/>
       <use xlink:href="#DejaVuSans-32" transform="translate(83.789062 0)"/>
       <use xlink:href="#DejaVuSans-30" transform="translate(147.412109 0)"/>
       <use xlink:href="#DejaVuSans-30" transform="translate(211.035156 0)"/>
      </g>
     </g>
    </g>
    <g id="ytick_9">
     <g id="line2d_18">
      <path d="M 65.63 57.0062 
L 632.205 57.0062 
" clip-path="url(#p1139e3274b)" style="fill: none; stroke: #ffffff; stroke-width: 0.8; stroke-linecap: round"/>
     </g>
     <g id="text_20">
      <!-- 0 -->
      <g style="fill: #262626" transform="translate(52.2675 60.805419) scale(0.1 -0.1)">
       <use xlink:href="#DejaVuSans-30"/>
      </g>
     </g>
    </g>
    <g id="text_21">
     <!-- Reward -->
     <g style="fill: #262626" transform="translate(18.720625 242.144194) rotate(-90) scale(0.1 -0.1)">
      <defs>
       <path id="DejaVuSans-52" d="M 2841 2188 
Q 3044 2119 3236 1894 
Q 3428 1669 3622 1275 
L 4263 0 
L 3584 0 
L 2988 1197 
Q 2756 1666 2539 1819 
Q 2322 1972 1947 1972 
L 1259 1972 
L 1259 0 
L 628 0 
L 628 4666 
L 2053 4666 
Q 2853 4666 3247 4331 
Q 3641 3997 3641 3322 
Q 3641 2881 3436 2590 
Q 3231 2300 2841 2188 
z
M 1259 4147 
L 1259 2491 
L 2053 2491 
Q 2509 2491 2742 2702 
Q 2975 2913 2975 3322 
Q 2975 3731 2742 3939 
Q 2509 4147 2053 4147 
L 1259 4147 
z
" transform="scale(0.015625)"/>
       <path id="DejaVuSans-77" d="M 269 3500 
L 844 3500 
L 1563 769 
L 2278 3500 
L 2956 3500 
L 3675 769 
L 4391 3500 
L 4966 3500 
L 4050 0 
L 3372 0 
L 2619 2869 
L 1863 0 
L 1184 0 
L 269 3500 
z
" transform="scale(0.015625)"/>
       <path id="DejaVuSans-61" d="M 2194 1759 
Q 1497 1759 1228 1600 
Q 959 1441 959 1056 
Q 959 750 1161 570 
Q 1363 391 1709 391 
Q 2188 391 2477 730 
Q 2766 1069 2766 1631 
L 2766 1759 
L 2194 1759 
z
M 3341 1997 
L 3341 0 
L 2766 0 
L 2766 531 
Q 2569 213 2275 61 
Q 1981 -91 1556 -91 
Q 1019 -91 701 211 
Q 384 513 384 1019 
Q 384 1609 779 1909 
Q 1175 2209 1959 2209 
L 2766 2209 
L 2766 2266 
Q 2766 2663 2505 2880 
Q 2244 3097 1772 3097 
Q 1472 3097 1187 3025 
Q 903 2953 641 2809 
L 641 3341 
Q 956 3463 1253 3523 
Q 1550 3584 1831 3584 
Q 2591 3584 2966 3190 
Q 3341 2797 3341 1997 
z
" transform="scale(0.015625)"/>
       <path id="DejaVuSans-72" d="M 2631 2963 
Q 2534 3019 2420 3045 
Q 2306 3072 2169 3072 
Q 1681 3072 1420 2755 
Q 1159 2438 1159 1844 
L 1159 0 
L 581 0 
L 581 3500 
L 1159 3500 
L 1159 2956 
Q 1341 3275 1631 3429 
Q 1922 3584 2338 3584 
Q 2397 3584 2469 3576 
Q 2541 3569 2628 3553 
L 2631 2963 
z
" transform="scale(0.015625)"/>
       <path id="DejaVuSans-64" d="M 2906 2969 
L 2906 4863 
L 3481 4863 
L 3481 0 
L 2906 0 
L 2906 525 
Q 2725 213 2448 61 
Q 2172 -91 1784 -91 
Q 1150 -91 751 415 
Q 353 922 353 1747 
Q 353 2572 751 3078 
Q 1150 3584 1784 3584 
Q 2172 3584 2448 3432 
Q 2725 3281 2906 2969 
z
M 947 1747 
Q 947 1113 1208 752 
Q 1469 391 1925 391 
Q 2381 391 2643 752 
Q 2906 1113 2906 1747 
Q 2906 2381 2643 2742 
Q 2381 3103 1925 3103 
Q 1469 3103 1208 2742 
Q 947 2381 947 1747 
z
" transform="scale(0.015625)"/>
      </defs>
      <use xlink:href="#DejaVuSans-52"/>
      <use xlink:href="#DejaVuSans-65" transform="translate(64.982422 0)"/>
      <use xlink:href="#DejaVuSans-77" transform="translate(126.505859 0)"/>
      <use xlink:href="#DejaVuSans-61" transform="translate(208.292969 0)"/>
      <use xlink:href="#DejaVuSans-72" transform="translate(269.572266 0)"/>
      <use xlink:href="#DejaVuSans-64" transform="translate(308.935547 0)"/>
     </g>
    </g>
   </g>
   <g id="FillBetweenPolyCollection_1">
    <path d="M 65.63083 300.352599 
L 65.63083 323.282165 
L 71.296563 321.082421 
L 76.962297 319.826977 
L 82.62803 332.86845 
L 88.293764 312.55263 
L 93.959497 301.287664 
L 99.62523 306.19329 
L 105.290964 304.922652 
L 110.956697 288.131618 
L 116.622431 309.97492 
L 122.288164 299.624729 
L 127.953897 289.613085 
L 133.619631 280.6076 
L 139.285364 290.391643 
L 144.951098 296.106477 
L 150.616831 277.145315 
L 156.282564 285.121651 
L 161.948298 292.269348 
L 167.614031 266.95493 
L 173.279765 276.36365 
L 178.945498 262.088899 
L 184.611231 275.164522 
L 190.276965 250.690439 
L 195.942698 247.988846 
L 201.608432 233.308726 
L 207.274165 236.259133 
L 212.939898 228.625049 
L 218.605632 223.031097 
L 224.271365 211.598299 
L 229.937099 201.199353 
L 235.602832 192.531114 
L 241.268565 179.780921 
L 246.934299 185.690599 
L 252.600032 176.331843 
L 258.265766 157.318078 
L 263.931499 138.559373 
L 269.597232 133.0185 
L 275.262966 163.61657 
L 280.928699 117.106399 
L 286.594433 113.983495 
L 292.260166 112.170005 
L 297.925899 109.037375 
L 303.591633 135.915084 
L 309.257366 104.943946 
L 314.9231 119.599965 
L 320.588833 129.587298 
L 326.254566 111.372383 
L 331.9203 112.765398 
L 337.586033 135.457007 
L 343.251767 119.150018 
L 348.9175 101.012212 
L 354.583233 100.762227 
L 360.248967 100.026952 
L 365.9147 106.086945 
L 371.580434 111.035183 
L 377.246167 97.949539 
L 382.9119 104.432992 
L 388.577634 98.629112 
L 394.243367 97.281946 
L 399.909101 104.497784 
L 405.574834 103.065185 
L 411.240567 99.228728 
L 416.906301 103.356374 
L 422.572034 95.075636 
L 428.237768 102.131863 
L 433.903501 94.816759 
L 439.569234 93.499124 
L 445.234968 112.194476 
L 450.900701 93.700947 
L 456.566435 97.181685 
L 462.232168 94.922761 
L 467.897901 93.677848 
L 473.563635 92.622856 
L 479.229368 95.366168 
L 484.895102 96.468123 
L 490.560835 90.945972 
L 496.226568 95.372438 
L 501.892302 98.828405 
L 507.558035 99.054917 
L 513.223769 103.344217 
L 518.889502 103.270476 
L 524.555235 94.824436 
L 530.220969 90.12806 
L 535.886702 91.230589 
L 541.552436 94.19485 
L 547.218169 90.312079 
L 552.883902 88.04627 
L 558.549636 90.507687 
L 564.215369 92.264982 
L 569.881103 89.279676 
L 575.546836 90.487676 
L 581.212569 104.119268 
L 586.878303 89.863026 
L 592.544036 92.267786 
L 598.20977 87.53885 
L 603.875503 88.956686 
L 609.541236 96.372619 
L 615.20697 93.807607 
L 620.872703 90.68937 
L 626.538437 92.629607 
L 626.538437 86.741626 
L 626.538437 86.741626 
L 620.872703 84.532143 
L 615.20697 85.998646 
L 609.541236 82.976989 
L 603.875503 84.569209 
L 598.20977 82.271097 
L 592.544036 87.394413 
L 586.878303 84.699487 
L 581.212569 80.391466 
L 575.546836 85.126835 
L 569.881103 86.390582 
L 564.215369 84.598713 
L 558.549636 87.361816 
L 552.883902 84.550186 
L 547.218169 87.414444 
L 541.552436 85.310259 
L 535.886702 88.34263 
L 530.220969 87.436073 
L 524.555235 85.573813 
L 518.889502 87.053129 
L 513.223769 86.852329 
L 507.558035 88.303563 
L 501.892302 85.912648 
L 496.226568 86.424325 
L 490.560835 88.546455 
L 484.895102 88.203409 
L 479.229368 87.405159 
L 473.563635 87.642385 
L 467.897901 85.021853 
L 462.232168 87.807608 
L 456.566435 90.336366 
L 450.900701 86.555071 
L 445.234968 87.947783 
L 439.569234 88.297598 
L 433.903501 90.747391 
L 428.237768 90.851956 
L 422.572034 89.427058 
L 416.906301 92.064871 
L 411.240567 93.893347 
L 405.574834 83.279975 
L 399.909101 87.563708 
L 394.243367 85.338583 
L 388.577634 90.75894 
L 382.9119 91.458591 
L 377.246167 91.022256 
L 371.580434 86.37627 
L 365.9147 95.101818 
L 360.248967 90.634188 
L 354.583233 91.501273 
L 348.9175 98.566487 
L 343.251767 103.219042 
L 337.586033 93.15588 
L 331.9203 93.032545 
L 326.254566 99.685636 
L 320.588833 97.527682 
L 314.9231 93.699383 
L 309.257366 97.607039 
L 303.591633 96.132053 
L 297.925899 99.279409 
L 292.260166 101.783571 
L 286.594433 107.913729 
L 280.928699 103.069035 
L 275.262966 105.990856 
L 269.597232 100.738651 
L 263.931499 113.357552 
L 258.265766 107.087051 
L 252.600032 115.291095 
L 246.934299 106.993966 
L 241.268565 110.819726 
L 235.602832 120.277508 
L 229.937099 135.601898 
L 224.271365 146.358177 
L 218.605632 159.698905 
L 212.939898 187.610637 
L 207.274165 200.29273 
L 201.608432 212.033499 
L 195.942698 212.484506 
L 190.276965 236.606912 
L 184.611231 231.536866 
L 178.945498 228.882242 
L 173.279765 242.967892 
L 167.614031 251.2111 
L 161.948298 246.580944 
L 156.282564 265.94794 
L 150.616831 263.450663 
L 144.951098 260.935225 
L 139.285364 273.014019 
L 133.619631 273.164202 
L 127.953897 278.791948 
L 122.288164 277.164839 
L 116.622431 270.315926 
L 110.956697 282.549704 
L 105.290964 280.086024 
L 99.62523 288.252372 
L 93.959497 276.889358 
L 88.293764 291.077884 
L 82.62803 286.970857 
L 76.962297 297.851752 
L 71.296563 302.2234 
L 65.63083 300.352599 
z
" clip-path="url(#p1139e3274b)" style="fill: #0000ff; fill-opacity: 0.1"/>
   </g>
   <g id="line2d_19">
    <path d="M 65.63083 311.817382 
L 71.296563 311.652911 
L 76.962297 308.839364 
L 82.62803 309.919653 
L 88.293764 301.815257 
L 93.959497 289.088511 
L 99.62523 297.222831 
L 105.290964 292.504338 
L 110.956697 285.340661 
L 116.622431 290.145423 
L 122.288164 288.394784 
L 127.953897 284.202517 
L 133.619631 276.885901 
L 139.285364 281.702831 
L 144.951098 278.520851 
L 150.616831 270.297989 
L 156.282564 275.534796 
L 161.948298 269.425146 
L 167.614031 259.083015 
L 173.279765 259.665771 
L 178.945498 245.48557 
L 184.611231 253.350694 
L 190.276965 243.648676 
L 195.942698 230.236676 
L 201.608432 222.671112 
L 207.274165 218.275932 
L 212.939898 208.117843 
L 218.605632 191.365001 
L 224.271365 178.978238 
L 229.937099 168.400625 
L 235.602832 156.404311 
L 241.268565 145.300324 
L 246.934299 146.342283 
L 252.600032 145.811469 
L 258.265766 132.202565 
L 263.931499 125.958463 
L 269.597232 116.878575 
L 275.262966 134.803713 
L 280.928699 110.087717 
L 286.594433 110.948612 
L 292.260166 106.976788 
L 297.925899 104.158392 
L 303.591633 116.023569 
L 309.257366 101.275493 
L 314.9231 106.649674 
L 320.588833 113.55749 
L 326.254566 105.52901 
L 331.9203 102.898971 
L 337.586033 114.306443 
L 343.251767 111.18453 
L 348.9175 99.78935 
L 354.583233 96.13175 
L 360.248967 95.33057 
L 365.9147 100.594382 
L 371.580434 98.705727 
L 377.246167 94.485898 
L 382.9119 97.945791 
L 388.577634 94.694026 
L 394.243367 91.310265 
L 399.909101 96.030746 
L 405.574834 93.17258 
L 411.240567 96.561038 
L 416.906301 97.710623 
L 422.572034 92.251347 
L 428.237768 96.49191 
L 433.903501 92.782075 
L 439.569234 90.898361 
L 445.234968 100.07113 
L 450.900701 90.128009 
L 456.566435 93.759025 
L 462.232168 91.365185 
L 467.897901 89.34985 
L 473.563635 90.132621 
L 479.229368 91.385663 
L 484.895102 92.335766 
L 490.560835 89.746214 
L 496.226568 90.898382 
L 501.892302 92.370527 
L 507.558035 93.67924 
L 513.223769 95.098273 
L 518.889502 95.161803 
L 524.555235 90.199124 
L 530.220969 88.782067 
L 535.886702 89.78661 
L 541.552436 89.752555 
L 547.218169 88.863262 
L 552.883902 86.298228 
L 558.549636 88.934751 
L 564.215369 88.431847 
L 569.881103 87.835129 
L 575.546836 87.807256 
L 581.212569 92.255367 
L 586.878303 87.281257 
L 592.544036 89.8311 
L 598.20977 84.904973 
L 603.875503 86.762947 
L 609.541236 89.674804 
L 615.20697 89.903127 
L 620.872703 87.610757 
L 626.538437 89.685617 
" clip-path="url(#p1139e3274b)" style="fill: none; stroke: #0000ff; stroke-width: 1.5; stroke-linecap: round"/>
   </g>
   <g id="line2d_20">
    <path d="M 65.63083 332.885076 
L 71.296563 308.134578 
L 76.962297 317.823032 
L 82.62803 284.392757 
L 88.293764 297.279342 
L 93.959497 311.810372 
L 99.62523 304.129312 
L 105.290964 288.932504 
L 110.956697 289.446102 
L 116.622431 277.49511 
L 122.288164 278.591964 
L 127.953897 276.117605 
L 133.619631 283.554163 
L 139.285364 277.023144 
L 144.951098 269.609978 
L 150.616831 265.723135 
L 156.282564 275.71776 
L 161.948298 272.919604 
L 167.614031 253.772986 
L 173.279765 256.379241 
L 178.945498 263.738693 
L 184.611231 262.503651 
L 190.276965 245.684567 
L 195.942698 252.740326 
L 201.608432 236.207562 
L 207.274165 238.371653 
L 212.939898 233.780815 
L 218.605632 238.058106 
L 224.271365 220.656628 
L 229.937099 219.898725 
L 235.602832 215.172772 
L 241.268565 207.071352 
L 246.934299 219.31798 
L 252.600032 204.765879 
L 258.265766 174.464809 
L 263.931499 144.376128 
L 269.597232 147.72217 
L 275.262966 166.138305 
L 280.928699 123.614201 
L 286.594433 110.294196 
L 292.260166 112.376383 
L 297.925899 111.87804 
L 303.591633 149.704052 
L 309.257366 102.825214 
L 314.9231 130.297101 
L 320.588833 121.391428 
L 326.254566 115.024571 
L 331.9203 107.481554 
L 337.586033 99.367874 
L 343.251767 118.321909 
L 348.9175 98.523396 
L 354.583233 93.399902 
L 360.248967 98.568458 
L 365.9147 103.836239 
L 371.580434 93.947309 
L 377.246167 90.893866 
L 382.9119 108.191296 
L 388.577634 89.443064 
L 394.243367 85.732194 
L 399.909101 107.986836 
L 405.574834 109.093986 
L 411.240567 99.532231 
L 416.906301 89.633002 
L 422.572034 90.285247 
L 428.237768 101.134044 
L 433.903501 93.302343 
L 439.569234 87.372959 
L 445.234968 98.217689 
L 450.900701 89.833144 
L 456.566435 95.190762 
L 462.232168 86.748817 
L 467.897901 91.646603 
L 473.563635 88.208368 
L 479.229368 98.957097 
L 484.895102 97.293836 
L 490.560835 91.457577 
L 496.226568 89.478574 
L 501.892302 97.206095 
L 507.558035 96.87628 
L 513.223769 89.015632 
L 518.889502 106.683155 
L 524.555235 95.5044 
L 530.220969 88.345367 
L 535.886702 90.388486 
L 541.552436 97.892255 
L 547.218169 87.261719 
L 552.883902 83.472763 
L 558.549636 90.403634 
L 564.215369 94.752856 
L 569.881103 88.621208 
L 575.546836 91.326403 
L 581.212569 87.86289 
L 586.878303 84.303565 
L 592.544036 93.28608 
L 598.20977 82.90354 
L 603.875503 89.464888 
L 609.541236 85.633736 
L 615.20697 97.381636 
L 620.872703 88.073069 
L 626.538437 94.520671 
" clip-path="url(#p1139e3274b)" style="fill: none; stroke: #008000; stroke-opacity: 0.2; stroke-linecap: round"/>
   </g>
   <g id="line2d_21">
    <path d="M 65.63083 311.077402 
L 71.296563 310.946873 
L 76.962297 311.791755 
L 82.62803 297.512469 
L 88.293764 294.73178 
L 93.959497 281.344483 
L 99.62523 311.224917 
L 105.290964 282.31954 
L 110.956697 286.754693 
L 116.622431 278.936466 
L 122.288164 273.697099 
L 127.953897 287.83197 
L 133.619631 273.362079 
L 139.285364 276.938054 
L 144.951098 265.102428 
L 150.616831 262.759667 
L 156.282564 265.144898 
L 161.948298 235.579357 
L 167.614031 249.385274 
L 173.279765 245.817558 
L 178.945498 222.078415 
L 184.611231 229.377889 
L 190.276965 235.180277 
L 195.942698 200.453041 
L 201.608432 207.052868 
L 207.274165 198.925454 
L 212.939898 188.883384 
L 218.605632 158.092017 
L 224.271365 141.743393 
L 229.937099 121.626275 
L 235.602832 124.525525 
L 241.268565 111.681281 
L 246.934299 114.022371 
L 252.600032 123.755871 
L 258.265766 143.548819 
L 263.931499 116.674558 
L 269.597232 113.952003 
L 275.262966 172.352832 
L 280.928699 104.870299 
L 286.594433 112.33093 
L 292.260166 102.283301 
L 297.925899 105.962994 
L 303.591633 103.680689 
L 309.257366 99.945723 
L 314.9231 103.70605 
L 320.588833 105.886201 
L 326.254566 106.209015 
L 331.9203 118.915754 
L 337.586033 152.940102 
L 343.251767 112.256409 
L 348.9175 99.03718 
L 354.583233 91.479326 
L 360.248967 92.157351 
L 365.9147 98.703696 
L 371.580434 89.812903 
L 377.246167 100.003599 
L 382.9119 88.209897 
L 388.577634 92.982757 
L 394.243367 97.75244 
L 399.909101 84.739157 
L 405.574834 95.699368 
L 411.240567 91.570132 
L 416.906301 102.103792 
L 422.572034 89.663033 
L 428.237768 89.73208 
L 433.903501 94.677482 
L 439.569234 88.653025 
L 445.234968 123.070918 
L 450.900701 93.423046 
L 456.566435 87.783031 
L 462.232168 91.906617 
L 467.897901 91.478443 
L 473.563635 88.754513 
L 479.229368 88.393853 
L 484.895102 91.606467 
L 490.560835 88.348712 
L 496.226568 99.77335 
L 501.892302 86.138146 
L 507.558035 92.800363 
L 513.223769 88.233156 
L 518.889502 99.611597 
L 524.555235 94.340775 
L 530.220969 90.12616 
L 535.886702 89.223932 
L 541.552436 86.95504 
L 547.218169 91.077987 
L 552.883902 86.23165 
L 558.549636 88.216556 
L 564.215369 84.992437 
L 569.881103 87.774054 
L 575.546836 88.097875 
L 581.212569 89.228787 
L 586.878303 88.457763 
L 592.544036 86.708299 
L 598.20977 82.802539 
L 603.875503 87.779299 
L 609.541236 85.516283 
L 615.20697 87.996447 
L 620.872703 90.065299 
L 626.538437 85.656194 
" clip-path="url(#p1139e3274b)" style="fill: none; stroke: #008000; stroke-opacity: 0.2; stroke-linecap: round"/>
   </g>
   <g id="line2d_22">
    <path d="M 65.63083 302.599544 
L 71.296563 314.26022 
L 76.962297 294.285031 
L 82.62803 334.306441 
L 88.293764 321.614804 
L 93.959497 285.763298 
L 99.62523 287.563719 
L 105.290964 308.206928 
L 110.956697 286.026066 
L 116.622431 283.928698 
L 122.288164 304.084948 
L 127.953897 279.361636 
L 133.619631 273.800533 
L 139.285364 275.354859 
L 144.951098 269.693817 
L 150.616831 272.917242 
L 156.282564 266.523486 
L 161.948298 256.517914 
L 167.614031 256.398844 
L 173.279765 257.842627 
L 178.945498 229.513326 
L 184.611231 234.528127 
L 190.276965 235.741747 
L 195.942698 229.621073 
L 201.608432 214.045015 
L 207.274165 199.528187 
L 212.939898 179.396844 
L 218.605632 157.507601 
L 224.271365 139.753385 
L 229.937099 148.499684 
L 235.602832 116.862125 
L 241.268565 115.096086 
L 246.934299 115.818649 
L 252.600032 130.61633 
L 258.265766 103.401691 
L 263.931499 110.450688 
L 269.597232 112.557354 
L 275.262966 104.295466 
L 280.928699 105.486706 
L 286.594433 115.045862 
L 292.260166 99.803814 
L 297.925899 96.920141 
L 303.591633 89.968922 
L 309.257366 98.893295 
L 314.9231 91.093593 
L 320.588833 89.3838 
L 326.254566 96.739531 
L 331.9203 89.929449 
L 337.586033 119.8025 
L 343.251767 121.167857 
L 348.9175 98.851732 
L 354.583233 93.838319 
L 360.248967 87.576851 
L 365.9147 101.657611 
L 371.580434 121.082273 
L 377.246167 93.828251 
L 382.9119 95.728298 
L 388.577634 100.51855 
L 394.243367 83.564569 
L 399.909101 88.267057 
L 405.574834 95.529631 
L 411.240567 97.303074 
L 416.906301 99.01899 
L 422.572034 96.723808 
L 428.237768 94.747551 
L 433.903501 92.711681 
L 439.569234 91.58197 
L 445.234968 98.817964 
L 450.900701 89.885454 
L 456.566435 93.141099 
L 462.232168 87.839697 
L 467.897901 82.751001 
L 473.563635 90.39975 
L 479.229368 91.845797 
L 484.895102 89.077428 
L 490.560835 88.434974 
L 496.226568 88.448726 
L 501.892302 93.172224 
L 507.558035 85.205572 
L 513.223769 94.028049 
L 518.889502 90.376764 
L 524.555235 90.095073 
L 530.220969 89.249211 
L 535.886702 90.691631 
L 541.552436 88.307762 
L 547.218169 88.957281 
L 552.883902 86.556175 
L 558.549636 86.196869 
L 564.215369 86.506912 
L 569.881103 87.971703 
L 575.546836 89.921849 
L 581.212569 84.354729 
L 586.878303 84.11848 
L 592.544036 91.309607 
L 598.20977 87.51316 
L 603.875503 82.800757 
L 609.541236 86.025584 
L 615.20697 89.460057 
L 620.872703 82.762039 
L 626.538437 89.68787 
" clip-path="url(#p1139e3274b)" style="fill: none; stroke: #008000; stroke-opacity: 0.2; stroke-linecap: round"/>
   </g>
   <g id="line2d_23">
    <path d="M 65.63083 312.012561 
L 71.296563 327.014717 
L 76.962297 322.374682 
L 82.62803 292.806111 
L 88.293764 304.058668 
L 93.959497 276.595308 
L 99.62523 290.594554 
L 105.290964 277.281451 
L 110.956697 282.670111 
L 116.622431 280.796507 
L 122.288164 288.71041 
L 127.953897 289.621221 
L 133.619631 278.050294 
L 139.285364 280.43724 
L 144.951098 275.078785 
L 150.616831 267.80803 
L 156.282564 278.598638 
L 161.948298 277.839079 
L 167.614031 264.473157 
L 173.279765 246.689238 
L 178.945498 252.965787 
L 184.611231 250.165048 
L 190.276965 252.654734 
L 195.942698 225.504913 
L 201.608432 226.168984 
L 207.274165 214.526187 
L 212.939898 218.630929 
L 218.605632 215.207259 
L 224.271365 201.534228 
L 229.937099 179.708593 
L 235.602832 177.085234 
L 241.268565 152.817066 
L 246.934299 155.211743 
L 252.600032 145.659571 
L 258.265766 126.937062 
L 263.931499 121.80693 
L 269.597232 100.308894 
L 275.262966 108.832935 
L 280.928699 106.223951 
L 286.594433 105.771529 
L 292.260166 107.833109 
L 297.925899 103.77947 
L 303.591633 117.468175 
L 309.257366 107.605677 
L 314.9231 106.854596 
L 320.588833 137.644445 
L 326.254566 105.80587 
L 331.9203 96.646974 
L 337.586033 105.400471 
L 343.251767 102.120125 
L 348.9175 101.09225 
L 354.583233 97.364376 
L 360.248967 99.023606 
L 365.9147 91.241268 
L 371.580434 86.610761 
L 377.246167 96.626765 
L 382.9119 97.33598 
L 388.577634 97.747954 
L 394.243367 91.433345 
L 399.909101 98.455288 
L 405.574834 84.700961 
L 411.240567 96.710546 
L 416.906301 92.970345 
L 422.572034 90.134564 
L 428.237768 104.798678 
L 433.903501 88.95601 
L 439.569234 94.654996 
L 445.234968 91.35182 
L 450.900701 83.798234 
L 456.566435 94.455348 
L 462.232168 95.592863 
L 467.897901 86.080862 
L 473.563635 88.431015 
L 479.229368 88.994723 
L 484.895102 86.891725 
L 490.560835 90.466935 
L 496.226568 87.772477 
L 501.892302 84.139428 
L 507.558035 92.133798 
L 513.223769 110.951819 
L 518.889502 82.832667 
L 524.555235 88.528757 
L 530.220969 86.377489 
L 535.886702 91.373831 
L 541.552436 85.073759 
L 547.218169 87.333542 
L 552.883902 88.985458 
L 558.549636 90.265045 
L 564.215369 90.912986 
L 569.881103 85.233842 
L 575.546836 83.998354 
L 581.212569 84.174502 
L 586.878303 89.149539 
L 592.544036 87.481257 
L 598.20977 82.624662 
L 603.875503 86.897159 
L 609.541236 102.919255 
L 615.20697 86.051712 
L 620.872703 91.385128 
L 626.538437 87.978781 
" clip-path="url(#p1139e3274b)" style="fill: none; stroke: #008000; stroke-opacity: 0.2; stroke-linecap: round"/>
   </g>
   <g id="line2d_24">
    <path d="M 65.63083 300.512327 
L 71.296563 297.908166 
L 76.962297 297.922323 
L 82.62803 340.580489 
L 88.293764 291.39169 
L 93.959497 289.929093 
L 99.62523 292.601655 
L 105.290964 305.781269 
L 110.956697 281.806333 
L 116.622431 329.570336 
L 122.288164 296.8895 
L 127.953897 288.080152 
L 133.619631 275.662436 
L 139.285364 298.760857 
L 144.951098 313.119248 
L 150.616831 282.28187 
L 156.282564 291.689198 
L 161.948298 304.269777 
L 167.614031 271.384812 
L 173.279765 291.600192 
L 178.945498 259.131631 
L 184.611231 290.178755 
L 190.276965 248.982053 
L 195.942698 242.864026 
L 201.608432 229.881133 
L 207.274165 240.028177 
L 212.939898 219.897242 
L 218.605632 187.960022 
L 224.271365 191.203556 
L 229.937099 172.269851 
L 235.602832 148.375898 
L 241.268565 139.835833 
L 246.934299 127.340669 
L 252.600032 124.259693 
L 258.265766 112.660442 
L 263.931499 136.48401 
L 269.597232 109.852456 
L 275.262966 122.399025 
L 280.928699 110.243428 
L 286.594433 111.300542 
L 292.260166 112.587334 
L 297.925899 102.251314 
L 303.591633 119.296006 
L 309.257366 97.107554 
L 314.9231 101.297031 
L 320.588833 113.481577 
L 326.254566 103.86606 
L 331.9203 101.521126 
L 337.586033 94.02127 
L 343.251767 102.056353 
L 348.9175 101.442192 
L 354.583233 104.576828 
L 360.248967 99.326583 
L 365.9147 107.533094 
L 371.580434 102.075387 
L 377.246167 91.077008 
L 382.9119 100.263484 
L 388.577634 92.777807 
L 394.243367 98.068775 
L 399.909101 100.705393 
L 405.574834 80.838954 
L 411.240567 97.689205 
L 416.906301 104.826985 
L 422.572034 94.450083 
L 428.237768 92.047195 
L 433.903501 94.26286 
L 439.569234 92.228856 
L 445.234968 88.897258 
L 450.900701 93.700168 
L 456.566435 98.224886 
L 462.232168 94.73793 
L 467.897901 94.792344 
L 473.563635 94.869457 
L 479.229368 88.736846 
L 484.895102 96.809375 
L 490.560835 90.02287 
L 496.226568 89.018781 
L 501.892302 101.196739 
L 507.558035 101.380187 
L 513.223769 93.262709 
L 518.889502 96.30483 
L 524.555235 82.526618 
L 530.220969 89.812107 
L 535.886702 87.25517 
L 541.552436 90.533956 
L 547.218169 89.685779 
L 552.883902 86.245094 
L 558.549636 89.591654 
L 564.215369 84.994046 
L 569.881103 89.574837 
L 575.546836 85.691796 
L 581.212569 115.655928 
L 586.878303 90.376935 
L 592.544036 90.370255 
L 598.20977 88.680964 
L 603.875503 86.872632 
L 609.541236 88.279163 
L 615.20697 88.625783 
L 620.872703 85.768248 
L 626.538437 90.584568 
" clip-path="url(#p1139e3274b)" style="fill: none; stroke: #008000; stroke-opacity: 0.2; stroke-linecap: round"/>
   </g>
   <g id="line2d_25">
    <path d="M 65.63083 57.0062 
L 71.296563 61.485283 
L 76.962297 69.223799 
L 82.62803 77.729739 
L 88.293764 90.145279 
L 93.959497 102.710951 
L 99.62523 129.314402 
L 105.290964 130.317045 
L 110.956697 151.862904 
L 116.622431 162.432652 
L 122.288164 173.651134 
L 127.953897 160.51827 
L 133.619631 185.045094 
L 139.285364 185.202977 
L 144.951098 214.408574 
L 150.616831 220.365018 
L 156.282564 220.95632 
L 161.948298 229.544459 
L 167.614031 242.625055 
L 173.279765 248.845495 
L 178.945498 258.464423 
L 184.611231 270.911333 
L 190.276965 289.422475 
L 195.942698 303.435743 
L 201.608432 304.235037 
L 207.274165 335.054303 
L 212.939898 351.189713 
L 218.605632 352.157438 
L 224.271365 365.497997 
L 229.937099 358.316678 
L 235.602832 368.853189 
L 241.268565 365.566817 
L 246.934299 363.390304 
L 252.600032 390.04 
L 258.265766 369.059929 
L 263.931499 363.440027 
L 269.597232 373.784903 
L 275.262966 388.280575 
L 280.928699 368.944129 
L 286.594433 365.49173 
L 292.260166 368.864335 
L 297.925899 368.300528 
L 303.591633 388.614039 
L 309.257366 366.473211 
L 314.9231 371.048246 
L 320.588833 384.182014 
L 326.254566 369.808775 
L 331.9203 371.548851 
L 337.586033 370.590098 
L 343.251767 371.138259 
L 348.9175 340.180473 
L 354.583233 338.609474 
L 360.248967 354.264899 
L 365.9147 377.273024 
L 371.580434 383.453767 
L 377.246167 371.906431 
L 382.9119 367.994843 
L 388.577634 367.485392 
L 394.243367 356.798639 
L 399.909101 354.458488 
L 405.574834 348.061777 
L 411.240567 349.234925 
L 416.906301 339.318872 
L 422.572034 318.716019 
L 428.237768 324.524359 
L 433.903501 308.351405 
L 439.569234 315.471292 
L 445.234968 343.640625 
L 450.900701 308.142445 
L 456.566435 316.441815 
L 462.232168 322.19975 
L 467.897901 298.757729 
L 473.563635 289.269176 
L 479.229368 286.239442 
L 484.895102 286.069542 
L 490.560835 275.408841 
L 496.226568 276.482459 
L 501.892302 274.875712 
L 507.558035 262.996905 
L 513.223769 272.446154 
L 518.889502 273.724376 
L 524.555235 253.999958 
L 530.220969 244.333528 
L 535.886702 254.109771 
L 541.552436 252.773451 
L 547.218169 251.150694 
L 552.883902 237.147463 
L 558.549636 243.104323 
L 564.215369 244.983365 
L 569.881103 243.258034 
L 575.546836 237.60922 
L 581.212569 246.486015 
L 586.878303 231.76167 
L 592.544036 234.125395 
L 598.20977 219.250117 
L 603.875503 222.629154 
L 609.541236 232.824182 
L 615.20697 228.997437 
L 620.872703 226.992963 
L 626.538437 236.240836 
" clip-path="url(#p1139e3274b)" style="fill: none; stroke: #800080; stroke-linecap: round"/>
   </g>
   <g id="patch_3">
    <path d="M 65.63 390.04 
L 65.63 57.0062 
" style="fill: none; stroke: #ffffff; stroke-width: 0.8; stroke-linejoin: miter; stroke-linecap: square"/>
   </g>
   <g id="patch_4">
    <path d="M 632.205 390.04 
L 632.205 57.0062 
" style="fill: none; stroke: #ffffff; stroke-width: 0.8; stroke-linejoin: miter; stroke-linecap: square"/>
   </g>
   <g id="patch_5">
    <path d="M 65.63 390.04 
L 632.205 390.04 
" style="fill: none; stroke: #ffffff; stroke-width: 0.8; stroke-linejoin: miter; stroke-linecap: square"/>
   </g>
   <g id="patch_6">
    <path d="M 65.63 57.0062 
L 632.205 57.0062 
" style="fill: none; stroke: #ffffff; stroke-width: 0.8; stroke-linejoin: miter; stroke-linecap: square"/>
   </g>
   <g id="legend_1">
    <g id="line2d_26">
     <path d="M 97.385341 41.274494 
L 105.715341 41.274494 
L 114.045341 41.274494 
" style="fill: none; stroke: #0000ff; stroke-width: 1.5; stroke-linecap: round"/>
    </g>
    <g id="text_22">
     <!-- Mean Reward -->
     <g style="fill: #262626" transform="translate(120.709341 44.189994) scale(0.0833 -0.0833)">
      <defs>
       <path id="DejaVuSans-4d" d="M 628 4666 
L 1569 4666 
L 2759 1491 
L 3956 4666 
L 4897 4666 
L 4897 0 
L 4281 0 
L 4281 4097 
L 3078 897 
L 2444 897 
L 1241 4097 
L 1241 0 
L 628 0 
L 628 4666 
z
" transform="scale(0.015625)"/>
       <path id="DejaVuSans-6e" d="M 3513 2113 
L 3513 0 
L 2938 0 
L 2938 2094 
Q 2938 2591 2744 2837 
Q 2550 3084 2163 3084 
Q 1697 3084 1428 2787 
Q 1159 2491 1159 1978 
L 1159 0 
L 581 0 
L 581 3500 
L 1159 3500 
L 1159 2956 
Q 1366 3272 1645 3428 
Q 1925 3584 2291 3584 
Q 2894 3584 3203 3211 
Q 3513 2838 3513 2113 
z
" transform="scale(0.015625)"/>
       <path id="DejaVuSans-20" transform="scale(0.015625)"/>
      </defs>
      <use xlink:href="#DejaVuSans-4d"/>
      <use xlink:href="#DejaVuSans-65" transform="translate(86.279297 0)"/>
      <use xlink:href="#DejaVuSans-61" transform="translate(147.802734 0)"/>
      <use xlink:href="#DejaVuSans-6e" transform="translate(209.082031 0)"/>
      <use xlink:href="#DejaVuSans-20" transform="translate(272.460938 0)"/>
      <use xlink:href="#DejaVuSans-52" transform="translate(304.248047 0)"/>
      <use xlink:href="#DejaVuSans-65" transform="translate(369.230469 0)"/>
      <use xlink:href="#DejaVuSans-77" transform="translate(430.753906 0)"/>
      <use xlink:href="#DejaVuSans-61" transform="translate(512.541016 0)"/>
      <use xlink:href="#DejaVuSans-72" transform="translate(573.820312 0)"/>
      <use xlink:href="#DejaVuSans-64" transform="translate(613.183594 0)"/>
     </g>
    </g>
    <g id="line2d_27">
     <path d="M 193.736108 41.274494 
L 202.066108 41.274494 
L 210.396108 41.274494 
" style="fill: none; stroke: #008000; stroke-opacity: 0.2; stroke-linecap: round"/>
    </g>
    <g id="text_23">
     <!-- Reward (individual runs) -->
     <g style="fill: #262626" transform="translate(217.060108 44.189994) scale(0.0833 -0.0833)">
      <defs>
       <path id="DejaVuSans-28" d="M 1984 4856 
Q 1566 4138 1362 3434 
Q 1159 2731 1159 2009 
Q 1159 1288 1364 580 
Q 1569 -128 1984 -844 
L 1484 -844 
Q 1016 -109 783 600 
Q 550 1309 550 2009 
Q 550 2706 781 3412 
Q 1013 4119 1484 4856 
L 1984 4856 
z
" transform="scale(0.015625)"/>
       <path id="DejaVuSans-69" d="M 603 3500 
L 1178 3500 
L 1178 0 
L 603 0 
L 603 3500 
z
M 603 4863 
L 1178 4863 
L 1178 4134 
L 603 4134 
L 603 4863 
z
" transform="scale(0.015625)"/>
       <path id="DejaVuSans-76" d="M 191 3500 
L 800 3500 
L 1894 563 
L 2988 3500 
L 3597 3500 
L 2284 0 
L 1503 0 
L 191 3500 
z
" transform="scale(0.015625)"/>
       <path id="DejaVuSans-75" d="M 544 1381 
L 544 3500 
L 1119 3500 
L 1119 1403 
Q 1119 906 1312 657 
Q 1506 409 1894 409 
Q 2359 409 2629 706 
Q 2900 1003 2900 1516 
L 2900 3500 
L 3475 3500 
L 3475 0 
L 2900 0 
L 2900 538 
Q 2691 219 2414 64 
Q 2138 -91 1772 -91 
Q 1169 -91 856 284 
Q 544 659 544 1381 
z
M 1991 3584 
L 1991 3584 
z
" transform="scale(0.015625)"/>
       <path id="DejaVuSans-6c" d="M 603 4863 
L 1178 4863 
L 1178 0 
L 603 0 
L 603 4863 
z
" transform="scale(0.015625)"/>
       <path id="DejaVuSans-29" d="M 513 4856 
L 1013 4856 
Q 1481 4119 1714 3412 
Q 1947 2706 1947 2009 
Q 1947 1309 1714 600 
Q 1481 -109 1013 -844 
L 513 -844 
Q 928 -128 1133 580 
Q 1338 1288 1338 2009 
Q 1338 2731 1133 3434 
Q 928 4138 513 4856 
z
" transform="scale(0.015625)"/>
      </defs>
      <use xlink:href="#DejaVuSans-52"/>
      <use xlink:href="#DejaVuSans-65" transform="translate(64.982422 0)"/>
      <use xlink:href="#DejaVuSans-77" transform="translate(126.505859 0)"/>
      <use xlink:href="#DejaVuSans-61" transform="translate(208.292969 0)"/>
      <use xlink:href="#DejaVuSans-72" transform="translate(269.572266 0)"/>
      <use xlink:href="#DejaVuSans-64" transform="translate(308.935547 0)"/>
      <use xlink:href="#DejaVuSans-20" transform="translate(372.412109 0)"/>
      <use xlink:href="#DejaVuSans-28" transform="translate(404.199219 0)"/>
      <use xlink:href="#DejaVuSans-69" transform="translate(443.212891 0)"/>
      <use xlink:href="#DejaVuSans-6e" transform="translate(470.996094 0)"/>
      <use xlink:href="#DejaVuSans-64" transform="translate(534.375 0)"/>
      <use xlink:href="#DejaVuSans-69" transform="translate(597.851562 0)"/>
      <use xlink:href="#DejaVuSans-76" transform="translate(625.634766 0)"/>
      <use xlink:href="#DejaVuSans-69" transform="translate(684.814453 0)"/>
      <use xlink:href="#DejaVuSans-64" transform="translate(712.597656 0)"/>
      <use xlink:href="#DejaVuSans-75" transform="translate(776.074219 0)"/>
      <use xlink:href="#DejaVuSans-61" transform="translate(839.453125 0)"/>
      <use xlink:href="#DejaVuSans-6c" transform="translate(900.732422 0)"/>
      <use xlink:href="#DejaVuSans-20" transform="translate(928.515625 0)"/>
      <use xlink:href="#DejaVuSans-72" transform="translate(960.302734 0)"/>
      <use xlink:href="#DejaVuSans-75" transform="translate(1001.416016 0)"/>
      <use xlink:href="#DejaVuSans-6e" transform="translate(1064.794922 0)"/>
      <use xlink:href="#DejaVuSans-73" transform="translate(1128.173828 0)"/>
      <use xlink:href="#DejaVuSans-29" transform="translate(1180.273438 0)"/>
     </g>
    </g>
    <g id="line2d_28">
     <path d="M 335.286236 41.274494 
L 343.616236 41.274494 
L 351.946236 41.274494 
" style="fill: none; stroke: #800080; stroke-linecap: round"/>
    </g>
    <g id="text_24">
     <!-- Entropy (normalized) -->
     <g style="fill: #262626" transform="translate(358.610236 44.189994) scale(0.0833 -0.0833)">
      <defs>
       <path id="DejaVuSans-45" d="M 628 4666 
L 3578 4666 
L 3578 4134 
L 1259 4134 
L 1259 2753 
L 3481 2753 
L 3481 2222 
L 1259 2222 
L 1259 531 
L 3634 531 
L 3634 0 
L 628 0 
L 628 4666 
z
" transform="scale(0.015625)"/>
       <path id="DejaVuSans-6f" d="M 1959 3097 
Q 1497 3097 1228 2736 
Q 959 2375 959 1747 
Q 959 1119 1226 758 
Q 1494 397 1959 397 
Q 2419 397 2687 759 
Q 2956 1122 2956 1747 
Q 2956 2369 2687 2733 
Q 2419 3097 1959 3097 
z
M 1959 3584 
Q 2709 3584 3137 3096 
Q 3566 2609 3566 1747 
Q 3566 888 3137 398 
Q 2709 -91 1959 -91 
Q 1206 -91 779 398 
Q 353 888 353 1747 
Q 353 2609 779 3096 
Q 1206 3584 1959 3584 
z
" transform="scale(0.015625)"/>
       <path id="DejaVuSans-79" d="M 2059 -325 
Q 1816 -950 1584 -1140 
Q 1353 -1331 966 -1331 
L 506 -1331 
L 506 -850 
L 844 -850 
Q 1081 -850 1212 -737 
Q 1344 -625 1503 -206 
L 1606 56 
L 191 3500 
L 800 3500 
L 1894 763 
L 2988 3500 
L 3597 3500 
L 2059 -325 
z
" transform="scale(0.015625)"/>
       <path id="DejaVuSans-6d" d="M 3328 2828 
Q 3544 3216 3844 3400 
Q 4144 3584 4550 3584 
Q 5097 3584 5394 3201 
Q 5691 2819 5691 2113 
L 5691 0 
L 5113 0 
L 5113 2094 
Q 5113 2597 4934 2840 
Q 4756 3084 4391 3084 
Q 3944 3084 3684 2787 
Q 3425 2491 3425 1978 
L 3425 0 
L 2847 0 
L 2847 2094 
Q 2847 2600 2669 2842 
Q 2491 3084 2119 3084 
Q 1678 3084 1418 2786 
Q 1159 2488 1159 1978 
L 1159 0 
L 581 0 
L 581 3500 
L 1159 3500 
L 1159 2956 
Q 1356 3278 1631 3431 
Q 1906 3584 2284 3584 
Q 2666 3584 2933 3390 
Q 3200 3197 3328 2828 
z
" transform="scale(0.015625)"/>
       <path id="DejaVuSans-7a" d="M 353 3500 
L 3084 3500 
L 3084 2975 
L 922 459 
L 3084 459 
L 3084 0 
L 275 0 
L 275 525 
L 2438 3041 
L 353 3041 
L 353 3500 
z
" transform="scale(0.015625)"/>
      </defs>
      <use xlink:href="#DejaVuSans-45"/>
      <use xlink:href="#DejaVuSans-6e" transform="translate(63.183594 0)"/>
      <use xlink:href="#DejaVuSans-74" transform="translate(126.5625 0)"/>
      <use xlink:href="#DejaVuSans-72" transform="translate(165.771484 0)"/>
      <use xlink:href="#DejaVuSans-6f" transform="translate(204.634766 0)"/>
      <use xlink:href="#DejaVuSans-70" transform="translate(265.816406 0)"/>
      <use xlink:href="#DejaVuSans-79" transform="translate(329.292969 0)"/>
      <use xlink:href="#DejaVuSans-20" transform="translate(388.472656 0)"/>
      <use xlink:href="#DejaVuSans-28" transform="translate(420.259766 0)"/>
      <use xlink:href="#DejaVuSans-6e" transform="translate(459.273438 0)"/>
      <use xlink:href="#DejaVuSans-6f" transform="translate(522.652344 0)"/>
      <use xlink:href="#DejaVuSans-72" transform="translate(583.833984 0)"/>
      <use xlink:href="#DejaVuSans-6d" transform="translate(623.197266 0)"/>
      <use xlink:href="#DejaVuSans-61" transform="translate(720.609375 0)"/>
      <use xlink:href="#DejaVuSans-6c" transform="translate(781.888672 0)"/>
      <use xlink:href="#DejaVuSans-69" transform="translate(809.671875 0)"/>
      <use xlink:href="#DejaVuSans-7a" transform="translate(837.455078 0)"/>
      <use xlink:href="#DejaVuSans-65" transform="translate(889.945312 0)"/>
      <use xlink:href="#DejaVuSans-64" transform="translate(951.46875 0)"/>
      <use xlink:href="#DejaVuSans-29" transform="translate(1014.945312 0)"/>
     </g>
    </g>
    <g id="patch_7">
     <path d="M 463.065833 44.189994 
L 479.725833 44.189994 
L 479.725833 38.358994 
L 463.065833 38.358994 
z
" style="fill: #0000ff; fill-opacity: 0.1"/>
    </g>
    <g id="text_25">
     <!-- Reward Standard Deviation -->
     <g style="fill: #262626" transform="translate(486.389833 44.189994) scale(0.0833 -0.0833)">
      <defs>
       <path id="DejaVuSans-44" d="M 1259 4147 
L 1259 519 
L 2022 519 
Q 2988 519 3436 956 
Q 3884 1394 3884 2338 
Q 3884 3275 3436 3711 
Q 2988 4147 2022 4147 
L 1259 4147 
z
M 628 4666 
L 1925 4666 
Q 3281 4666 3915 4102 
Q 4550 3538 4550 2338 
Q 4550 1131 3912 565 
Q 3275 0 1925 0 
L 628 0 
L 628 4666 
z
" transform="scale(0.015625)"/>
      </defs>
      <use xlink:href="#DejaVuSans-52"/>
      <use xlink:href="#DejaVuSans-65" transform="translate(64.982422 0)"/>
      <use xlink:href="#DejaVuSans-77" transform="translate(126.505859 0)"/>
      <use xlink:href="#DejaVuSans-61" transform="translate(208.292969 0)"/>
      <use xlink:href="#DejaVuSans-72" transform="translate(269.572266 0)"/>
      <use xlink:href="#DejaVuSans-64" transform="translate(308.935547 0)"/>
      <use xlink:href="#DejaVuSans-20" transform="translate(372.412109 0)"/>
      <use xlink:href="#DejaVuSans-53" transform="translate(404.199219 0)"/>
      <use xlink:href="#DejaVuSans-74" transform="translate(467.675781 0)"/>
      <use xlink:href="#DejaVuSans-61" transform="translate(506.884766 0)"/>
      <use xlink:href="#DejaVuSans-6e" transform="translate(568.164062 0)"/>
      <use xlink:href="#DejaVuSans-64" transform="translate(631.542969 0)"/>
      <use xlink:href="#DejaVuSans-61" transform="translate(695.019531 0)"/>
      <use xlink:href="#DejaVuSans-72" transform="translate(756.298828 0)"/>
      <use xlink:href="#DejaVuSans-64" transform="translate(795.662109 0)"/>
      <use xlink:href="#DejaVuSans-20" transform="translate(859.138672 0)"/>
      <use xlink:href="#DejaVuSans-44" transform="translate(890.925781 0)"/>
      <use xlink:href="#DejaVuSans-65" transform="translate(967.927734 0)"/>
      <use xlink:href="#DejaVuSans-76" transform="translate(1029.451172 0)"/>
      <use xlink:href="#DejaVuSans-69" transform="translate(1088.630859 0)"/>
      <use xlink:href="#DejaVuSans-61" transform="translate(1116.414062 0)"/>
      <use xlink:href="#DejaVuSans-74" transform="translate(1177.693359 0)"/>
      <use xlink:href="#DejaVuSans-69" transform="translate(1216.902344 0)"/>
      <use xlink:href="#DejaVuSans-6f" transform="translate(1244.685547 0)"/>
      <use xlink:href="#DejaVuSans-6e" transform="translate(1305.867188 0)"/>
     </g>
    </g>
   </g>
  </g>
  <g id="text_26">
   <!-- Rewards: Pendulum-v1 (Discretized) - Logits (Baseline) (Entropy) -->
   <g style="fill: #262626" transform="translate(102.604688 17.758125) scale(0.12 -0.12)">
    <defs>
     <path id="DejaVuSans-Bold-52" d="M 2297 2597 
Q 2675 2597 2839 2737 
Q 3003 2878 3003 3200 
Q 3003 3519 2839 3656 
Q 2675 3794 2297 3794 
L 1791 3794 
L 1791 2597 
L 2297 2597 
z
M 1791 1766 
L 1791 0 
L 588 0 
L 588 4666 
L 2425 4666 
Q 3347 4666 3776 4356 
Q 4206 4047 4206 3378 
Q 4206 2916 3982 2619 
Q 3759 2322 3309 2181 
Q 3556 2125 3751 1926 
Q 3947 1728 4147 1325 
L 4800 0 
L 3519 0 
L 2950 1159 
Q 2778 1509 2601 1637 
Q 2425 1766 2131 1766 
L 1791 1766 
z
" transform="scale(0.015625)"/>
     <path id="DejaVuSans-Bold-65" d="M 4031 1759 
L 4031 1441 
L 1416 1441 
Q 1456 1047 1700 850 
Q 1944 653 2381 653 
Q 2734 653 3104 758 
Q 3475 863 3866 1075 
L 3866 213 
Q 3469 63 3072 -14 
Q 2675 -91 2278 -91 
Q 1328 -91 801 392 
Q 275 875 275 1747 
Q 275 2603 792 3093 
Q 1309 3584 2216 3584 
Q 3041 3584 3536 3087 
Q 4031 2591 4031 1759 
z
M 2881 2131 
Q 2881 2450 2695 2645 
Q 2509 2841 2209 2841 
Q 1884 2841 1681 2658 
Q 1478 2475 1428 2131 
L 2881 2131 
z
" transform="scale(0.015625)"/>
     <path id="DejaVuSans-Bold-77" d="M 225 3500 
L 1313 3500 
L 1900 1088 
L 2491 3500 
L 3425 3500 
L 4013 1113 
L 4603 3500 
L 5691 3500 
L 4769 0 
L 3547 0 
L 2956 2406 
L 2369 0 
L 1147 0 
L 225 3500 
z
" transform="scale(0.015625)"/>
     <path id="DejaVuSans-Bold-61" d="M 2106 1575 
Q 1756 1575 1579 1456 
Q 1403 1338 1403 1106 
Q 1403 894 1545 773 
Q 1688 653 1941 653 
Q 2256 653 2472 879 
Q 2688 1106 2688 1447 
L 2688 1575 
L 2106 1575 
z
M 3816 1997 
L 3816 0 
L 2688 0 
L 2688 519 
Q 2463 200 2181 54 
Q 1900 -91 1497 -91 
Q 953 -91 614 226 
Q 275 544 275 1050 
Q 275 1666 698 1953 
Q 1122 2241 2028 2241 
L 2688 2241 
L 2688 2328 
Q 2688 2594 2478 2717 
Q 2269 2841 1825 2841 
Q 1466 2841 1156 2769 
Q 847 2697 581 2553 
L 581 3406 
Q 941 3494 1303 3539 
Q 1666 3584 2028 3584 
Q 2975 3584 3395 3211 
Q 3816 2838 3816 1997 
z
" transform="scale(0.015625)"/>
     <path id="DejaVuSans-Bold-72" d="M 3138 2547 
Q 2991 2616 2845 2648 
Q 2700 2681 2553 2681 
Q 2122 2681 1889 2404 
Q 1656 2128 1656 1613 
L 1656 0 
L 538 0 
L 538 3500 
L 1656 3500 
L 1656 2925 
Q 1872 3269 2151 3426 
Q 2431 3584 2822 3584 
Q 2878 3584 2943 3579 
Q 3009 3575 3134 3559 
L 3138 2547 
z
" transform="scale(0.015625)"/>
     <path id="DejaVuSans-Bold-64" d="M 2919 2988 
L 2919 4863 
L 4044 4863 
L 4044 0 
L 2919 0 
L 2919 506 
Q 2688 197 2409 53 
Q 2131 -91 1766 -91 
Q 1119 -91 703 423 
Q 288 938 288 1747 
Q 288 2556 703 3070 
Q 1119 3584 1766 3584 
Q 2128 3584 2408 3439 
Q 2688 3294 2919 2988 
z
M 2181 722 
Q 2541 722 2730 984 
Q 2919 1247 2919 1747 
Q 2919 2247 2730 2509 
Q 2541 2772 2181 2772 
Q 1825 2772 1636 2509 
Q 1447 2247 1447 1747 
Q 1447 1247 1636 984 
Q 1825 722 2181 722 
z
" transform="scale(0.015625)"/>
     <path id="DejaVuSans-Bold-73" d="M 3272 3391 
L 3272 2541 
Q 2913 2691 2578 2766 
Q 2244 2841 1947 2841 
Q 1628 2841 1473 2761 
Q 1319 2681 1319 2516 
Q 1319 2381 1436 2309 
Q 1553 2238 1856 2203 
L 2053 2175 
Q 2913 2066 3209 1816 
Q 3506 1566 3506 1031 
Q 3506 472 3093 190 
Q 2681 -91 1863 -91 
Q 1516 -91 1145 -36 
Q 775 19 384 128 
L 384 978 
Q 719 816 1070 734 
Q 1422 653 1784 653 
Q 2113 653 2278 743 
Q 2444 834 2444 1013 
Q 2444 1163 2330 1236 
Q 2216 1309 1875 1350 
L 1678 1375 
Q 931 1469 631 1722 
Q 331 1975 331 2491 
Q 331 3047 712 3315 
Q 1094 3584 1881 3584 
Q 2191 3584 2531 3537 
Q 2872 3491 3272 3391 
z
" transform="scale(0.015625)"/>
     <path id="DejaVuSans-Bold-3a" d="M 716 3500 
L 1844 3500 
L 1844 2291 
L 716 2291 
L 716 3500 
z
M 716 1209 
L 1844 1209 
L 1844 0 
L 716 0 
L 716 1209 
z
" transform="scale(0.015625)"/>
     <path id="DejaVuSans-Bold-20" transform="scale(0.015625)"/>
     <path id="DejaVuSans-Bold-50" d="M 588 4666 
L 2584 4666 
Q 3475 4666 3951 4270 
Q 4428 3875 4428 3144 
Q 4428 2409 3951 2014 
Q 3475 1619 2584 1619 
L 1791 1619 
L 1791 0 
L 588 0 
L 588 4666 
z
M 1791 3794 
L 1791 2491 
L 2456 2491 
Q 2806 2491 2997 2661 
Q 3188 2831 3188 3144 
Q 3188 3456 2997 3625 
Q 2806 3794 2456 3794 
L 1791 3794 
z
" transform="scale(0.015625)"/>
     <path id="DejaVuSans-Bold-6e" d="M 4056 2131 
L 4056 0 
L 2931 0 
L 2931 347 
L 2931 1631 
Q 2931 2084 2911 2256 
Q 2891 2428 2841 2509 
Q 2775 2619 2662 2680 
Q 2550 2741 2406 2741 
Q 2056 2741 1856 2470 
Q 1656 2200 1656 1722 
L 1656 0 
L 538 0 
L 538 3500 
L 1656 3500 
L 1656 2988 
Q 1909 3294 2193 3439 
Q 2478 3584 2822 3584 
Q 3428 3584 3742 3212 
Q 4056 2841 4056 2131 
z
" transform="scale(0.015625)"/>
     <path id="DejaVuSans-Bold-75" d="M 500 1363 
L 500 3500 
L 1625 3500 
L 1625 3150 
Q 1625 2866 1622 2436 
Q 1619 2006 1619 1863 
Q 1619 1441 1641 1255 
Q 1663 1069 1716 984 
Q 1784 875 1895 815 
Q 2006 756 2150 756 
Q 2500 756 2700 1025 
Q 2900 1294 2900 1772 
L 2900 3500 
L 4019 3500 
L 4019 0 
L 2900 0 
L 2900 506 
Q 2647 200 2364 54 
Q 2081 -91 1741 -91 
Q 1134 -91 817 281 
Q 500 653 500 1363 
z
" transform="scale(0.015625)"/>
     <path id="DejaVuSans-Bold-6c" d="M 538 4863 
L 1656 4863 
L 1656 0 
L 538 0 
L 538 4863 
z
" transform="scale(0.015625)"/>
     <path id="DejaVuSans-Bold-6d" d="M 3781 2919 
Q 3994 3244 4286 3414 
Q 4578 3584 4928 3584 
Q 5531 3584 5847 3212 
Q 6163 2841 6163 2131 
L 6163 0 
L 5038 0 
L 5038 1825 
Q 5041 1866 5042 1909 
Q 5044 1953 5044 2034 
Q 5044 2406 4934 2573 
Q 4825 2741 4581 2741 
Q 4263 2741 4089 2478 
Q 3916 2216 3909 1719 
L 3909 0 
L 2784 0 
L 2784 1825 
Q 2784 2406 2684 2573 
Q 2584 2741 2328 2741 
Q 2006 2741 1831 2477 
Q 1656 2213 1656 1722 
L 1656 0 
L 531 0 
L 531 3500 
L 1656 3500 
L 1656 2988 
Q 1863 3284 2130 3434 
Q 2397 3584 2719 3584 
Q 3081 3584 3359 3409 
Q 3638 3234 3781 2919 
z
" transform="scale(0.015625)"/>
     <path id="DejaVuSans-Bold-2d" d="M 347 2297 
L 2309 2297 
L 2309 1388 
L 347 1388 
L 347 2297 
z
" transform="scale(0.015625)"/>
     <path id="DejaVuSans-Bold-76" d="M 97 3500 
L 1216 3500 
L 2088 1081 
L 2956 3500 
L 4078 3500 
L 2700 0 
L 1472 0 
L 97 3500 
z
" transform="scale(0.015625)"/>
     <path id="DejaVuSans-Bold-31" d="M 750 831 
L 1813 831 
L 1813 3847 
L 722 3622 
L 722 4441 
L 1806 4666 
L 2950 4666 
L 2950 831 
L 4013 831 
L 4013 0 
L 750 0 
L 750 831 
z
" transform="scale(0.015625)"/>
     <path id="DejaVuSans-Bold-28" d="M 2413 -844 
L 1484 -844 
Q 1006 -72 778 623 
Q 550 1319 550 2003 
Q 550 2688 779 3389 
Q 1009 4091 1484 4856 
L 2413 4856 
Q 2013 4116 1813 3408 
Q 1613 2700 1613 2009 
Q 1613 1319 1811 609 
Q 2009 -100 2413 -844 
z
" transform="scale(0.015625)"/>
     <path id="DejaVuSans-Bold-44" d="M 1791 3756 
L 1791 909 
L 2222 909 
Q 2959 909 3348 1275 
Q 3738 1641 3738 2338 
Q 3738 3031 3350 3393 
Q 2963 3756 2222 3756 
L 1791 3756 
z
M 588 4666 
L 1856 4666 
Q 2919 4666 3439 4514 
Q 3959 4363 4331 4000 
Q 4659 3684 4818 3271 
Q 4978 2859 4978 2338 
Q 4978 1809 4818 1395 
Q 4659 981 4331 666 
Q 3956 303 3431 151 
Q 2906 0 1856 0 
L 588 0 
L 588 4666 
z
" transform="scale(0.015625)"/>
     <path id="DejaVuSans-Bold-69" d="M 538 3500 
L 1656 3500 
L 1656 0 
L 538 0 
L 538 3500 
z
M 538 4863 
L 1656 4863 
L 1656 3950 
L 538 3950 
L 538 4863 
z
" transform="scale(0.015625)"/>
     <path id="DejaVuSans-Bold-63" d="M 3366 3391 
L 3366 2478 
Q 3138 2634 2908 2709 
Q 2678 2784 2431 2784 
Q 1963 2784 1702 2511 
Q 1441 2238 1441 1747 
Q 1441 1256 1702 982 
Q 1963 709 2431 709 
Q 2694 709 2930 787 
Q 3166 866 3366 1019 
L 3366 103 
Q 3103 6 2833 -42 
Q 2563 -91 2291 -91 
Q 1344 -91 809 395 
Q 275 881 275 1747 
Q 275 2613 809 3098 
Q 1344 3584 2291 3584 
Q 2566 3584 2833 3536 
Q 3100 3488 3366 3391 
z
" transform="scale(0.015625)"/>
     <path id="DejaVuSans-Bold-74" d="M 1759 4494 
L 1759 3500 
L 2913 3500 
L 2913 2700 
L 1759 2700 
L 1759 1216 
Q 1759 972 1856 886 
Q 1953 800 2241 800 
L 2816 800 
L 2816 0 
L 1856 0 
Q 1194 0 917 276 
Q 641 553 641 1216 
L 641 2700 
L 84 2700 
L 84 3500 
L 641 3500 
L 641 4494 
L 1759 4494 
z
" transform="scale(0.015625)"/>
     <path id="DejaVuSans-Bold-7a" d="M 366 3500 
L 3419 3500 
L 3419 2719 
L 1575 800 
L 3419 800 
L 3419 0 
L 288 0 
L 288 781 
L 2131 2700 
L 366 2700 
L 366 3500 
z
" transform="scale(0.015625)"/>
     <path id="DejaVuSans-Bold-29" d="M 513 -844 
Q 913 -100 1113 609 
Q 1313 1319 1313 2009 
Q 1313 2700 1113 3408 
Q 913 4116 513 4856 
L 1441 4856 
Q 1916 4091 2145 3389 
Q 2375 2688 2375 2003 
Q 2375 1319 2147 623 
Q 1919 -72 1441 -844 
L 513 -844 
z
" transform="scale(0.015625)"/>
     <path id="DejaVuSans-Bold-4c" d="M 588 4666 
L 1791 4666 
L 1791 909 
L 3903 909 
L 3903 0 
L 588 0 
L 588 4666 
z
" transform="scale(0.015625)"/>
     <path id="DejaVuSans-Bold-6f" d="M 2203 2784 
Q 1831 2784 1636 2517 
Q 1441 2250 1441 1747 
Q 1441 1244 1636 976 
Q 1831 709 2203 709 
Q 2569 709 2762 976 
Q 2956 1244 2956 1747 
Q 2956 2250 2762 2517 
Q 2569 2784 2203 2784 
z
M 2203 3584 
Q 3106 3584 3614 3096 
Q 4122 2609 4122 1747 
Q 4122 884 3614 396 
Q 3106 -91 2203 -91 
Q 1297 -91 786 396 
Q 275 884 275 1747 
Q 275 2609 786 3096 
Q 1297 3584 2203 3584 
z
" transform="scale(0.015625)"/>
     <path id="DejaVuSans-Bold-67" d="M 2919 594 
Q 2688 288 2409 144 
Q 2131 0 1766 0 
Q 1125 0 706 504 
Q 288 1009 288 1791 
Q 288 2575 706 3076 
Q 1125 3578 1766 3578 
Q 2131 3578 2409 3434 
Q 2688 3291 2919 2981 
L 2919 3500 
L 4044 3500 
L 4044 353 
Q 4044 -491 3511 -936 
Q 2978 -1381 1966 -1381 
Q 1638 -1381 1331 -1331 
Q 1025 -1281 716 -1178 
L 716 -306 
Q 1009 -475 1290 -558 
Q 1572 -641 1856 -641 
Q 2406 -641 2662 -400 
Q 2919 -159 2919 353 
L 2919 594 
z
M 2181 2772 
Q 1834 2772 1640 2515 
Q 1447 2259 1447 1791 
Q 1447 1309 1634 1061 
Q 1822 813 2181 813 
Q 2531 813 2725 1069 
Q 2919 1325 2919 1791 
Q 2919 2259 2725 2515 
Q 2531 2772 2181 2772 
z
" transform="scale(0.015625)"/>
     <path id="DejaVuSans-Bold-42" d="M 2456 2859 
Q 2741 2859 2887 2984 
Q 3034 3109 3034 3353 
Q 3034 3594 2887 3720 
Q 2741 3847 2456 3847 
L 1791 3847 
L 1791 2859 
L 2456 2859 
z
M 2497 819 
Q 2859 819 3042 972 
Q 3225 1125 3225 1434 
Q 3225 1738 3044 1889 
Q 2863 2041 2497 2041 
L 1791 2041 
L 1791 819 
L 2497 819 
z
M 3616 2497 
Q 4003 2384 4215 2081 
Q 4428 1778 4428 1338 
Q 4428 663 3972 331 
Q 3516 0 2584 0 
L 588 0 
L 588 4666 
L 2394 4666 
Q 3366 4666 3802 4372 
Q 4238 4078 4238 3431 
Q 4238 3091 4078 2852 
Q 3919 2613 3616 2497 
z
" transform="scale(0.015625)"/>
     <path id="DejaVuSans-Bold-45" d="M 588 4666 
L 3834 4666 
L 3834 3756 
L 1791 3756 
L 1791 2888 
L 3713 2888 
L 3713 1978 
L 1791 1978 
L 1791 909 
L 3903 909 
L 3903 0 
L 588 0 
L 588 4666 
z
" transform="scale(0.015625)"/>
     <path id="DejaVuSans-Bold-70" d="M 1656 506 
L 1656 -1331 
L 538 -1331 
L 538 3500 
L 1656 3500 
L 1656 2988 
Q 1888 3294 2169 3439 
Q 2450 3584 2816 3584 
Q 3463 3584 3878 3070 
Q 4294 2556 4294 1747 
Q 4294 938 3878 423 
Q 3463 -91 2816 -91 
Q 2450 -91 2169 54 
Q 1888 200 1656 506 
z
M 2400 2772 
Q 2041 2772 1848 2508 
Q 1656 2244 1656 1747 
Q 1656 1250 1848 986 
Q 2041 722 2400 722 
Q 2759 722 2948 984 
Q 3138 1247 3138 1747 
Q 3138 2247 2948 2509 
Q 2759 2772 2400 2772 
z
" transform="scale(0.015625)"/>
     <path id="DejaVuSans-Bold-79" d="M 78 3500 
L 1197 3500 
L 2138 1125 
L 2938 3500 
L 4056 3500 
L 2584 -331 
Q 2363 -916 2067 -1148 
Q 1772 -1381 1288 -1381 
L 641 -1381 
L 641 -647 
L 991 -647 
Q 1275 -647 1404 -556 
Q 1534 -466 1606 -231 
L 1638 -134 
L 78 3500 
z
" transform="scale(0.015625)"/>
    </defs>
    <use xlink:href="#DejaVuSans-Bold-52"/>
    <use xlink:href="#DejaVuSans-Bold-65" transform="translate(77.001953 0)"/>
    <use xlink:href="#DejaVuSans-Bold-77" transform="translate(144.824219 0)"/>
    <use xlink:href="#DejaVuSans-Bold-61" transform="translate(237.207031 0)"/>
    <use xlink:href="#DejaVuSans-Bold-72" transform="translate(304.6875 0)"/>
    <use xlink:href="#DejaVuSans-Bold-64" transform="translate(354.003906 0)"/>
    <use xlink:href="#DejaVuSans-Bold-73" transform="translate(425.585938 0)"/>
    <use xlink:href="#DejaVuSans-Bold-3a" transform="translate(485.107422 0)"/>
    <use xlink:href="#DejaVuSans-Bold-20" transform="translate(525.097656 0)"/>
    <use xlink:href="#DejaVuSans-Bold-50" transform="translate(559.912109 0)"/>
    <use xlink:href="#DejaVuSans-Bold-65" transform="translate(633.203125 0)"/>
    <use xlink:href="#DejaVuSans-Bold-6e" transform="translate(701.025391 0)"/>
    <use xlink:href="#DejaVuSans-Bold-64" transform="translate(772.216797 0)"/>
    <use xlink:href="#DejaVuSans-Bold-75" transform="translate(843.798828 0)"/>
    <use xlink:href="#DejaVuSans-Bold-6c" transform="translate(914.990234 0)"/>
    <use xlink:href="#DejaVuSans-Bold-75" transform="translate(949.267578 0)"/>
    <use xlink:href="#DejaVuSans-Bold-6d" transform="translate(1020.458984 0)"/>
    <use xlink:href="#DejaVuSans-Bold-2d" transform="translate(1124.658203 0)"/>
    <use xlink:href="#DejaVuSans-Bold-76" transform="translate(1166.162109 0)"/>
    <use xlink:href="#DejaVuSans-Bold-31" transform="translate(1231.347656 0)"/>
    <use xlink:href="#DejaVuSans-Bold-20" transform="translate(1300.927734 0)"/>
    <use xlink:href="#DejaVuSans-Bold-28" transform="translate(1335.742188 0)"/>
    <use xlink:href="#DejaVuSans-Bold-44" transform="translate(1381.445312 0)"/>
    <use xlink:href="#DejaVuSans-Bold-69" transform="translate(1464.453125 0)"/>
    <use xlink:href="#DejaVuSans-Bold-73" transform="translate(1498.730469 0)"/>
    <use xlink:href="#DejaVuSans-Bold-63" transform="translate(1558.251953 0)"/>
    <use xlink:href="#DejaVuSans-Bold-72" transform="translate(1617.529297 0)"/>
    <use xlink:href="#DejaVuSans-Bold-65" transform="translate(1666.845703 0)"/>
    <use xlink:href="#DejaVuSans-Bold-74" transform="translate(1734.667969 0)"/>
    <use xlink:href="#DejaVuSans-Bold-69" transform="translate(1782.470703 0)"/>
    <use xlink:href="#DejaVuSans-Bold-7a" transform="translate(1816.748047 0)"/>
    <use xlink:href="#DejaVuSans-Bold-65" transform="translate(1874.951172 0)"/>
    <use xlink:href="#DejaVuSans-Bold-64" transform="translate(1942.773438 0)"/>
    <use xlink:href="#DejaVuSans-Bold-29" transform="translate(2014.355469 0)"/>
    <use xlink:href="#DejaVuSans-Bold-20" transform="translate(2060.058594 0)"/>
    <use xlink:href="#DejaVuSans-Bold-2d" transform="translate(2094.873047 0)"/>
    <use xlink:href="#DejaVuSans-Bold-20" transform="translate(2136.376953 0)"/>
    <use xlink:href="#DejaVuSans-Bold-4c" transform="translate(2171.191406 0)"/>
    <use xlink:href="#DejaVuSans-Bold-6f" transform="translate(2234.912109 0)"/>
    <use xlink:href="#DejaVuSans-Bold-67" transform="translate(2303.613281 0)"/>
    <use xlink:href="#DejaVuSans-Bold-69" transform="translate(2375.195312 0)"/>
    <use xlink:href="#DejaVuSans-Bold-74" transform="translate(2409.472656 0)"/>
    <use xlink:href="#DejaVuSans-Bold-73" transform="translate(2457.275391 0)"/>
    <use xlink:href="#DejaVuSans-Bold-20" transform="translate(2516.796875 0)"/>
    <use xlink:href="#DejaVuSans-Bold-28" transform="translate(2551.611328 0)"/>
    <use xlink:href="#DejaVuSans-Bold-42" transform="translate(2597.314453 0)"/>
    <use xlink:href="#DejaVuSans-Bold-61" transform="translate(2673.535156 0)"/>
    <use xlink:href="#DejaVuSans-Bold-73" transform="translate(2741.015625 0)"/>
    <use xlink:href="#DejaVuSans-Bold-65" transform="translate(2800.537109 0)"/>
    <use xlink:href="#DejaVuSans-Bold-6c" transform="translate(2868.359375 0)"/>
    <use xlink:href="#DejaVuSans-Bold-69" transform="translate(2902.636719 0)"/>
    <use xlink:href="#DejaVuSans-Bold-6e" transform="translate(2936.914062 0)"/>
    <use xlink:href="#DejaVuSans-Bold-65" transform="translate(3008.105469 0)"/>
    <use xlink:href="#DejaVuSans-Bold-29" transform="translate(3075.927734 0)"/>
    <use xlink:href="#DejaVuSans-Bold-20" transform="translate(3121.630859 0)"/>
    <use xlink:href="#DejaVuSans-Bold-28" transform="translate(3156.445312 0)"/>
    <use xlink:href="#DejaVuSans-Bold-45" transform="translate(3202.148438 0)"/>
    <use xlink:href="#DejaVuSans-Bold-6e" transform="translate(3270.458984 0)"/>
    <use xlink:href="#DejaVuSans-Bold-74" transform="translate(3341.650391 0)"/>
    <use xlink:href="#DejaVuSans-Bold-72" transform="translate(3389.453125 0)"/>
    <use xlink:href="#DejaVuSans-Bold-6f" transform="translate(3438.769531 0)"/>
    <use xlink:href="#DejaVuSans-Bold-70" transform="translate(3507.470703 0)"/>
    <use xlink:href="#DejaVuSans-Bold-79" transform="translate(3579.052734 0)"/>
    <use xlink:href="#DejaVuSans-Bold-29" transform="translate(3644.238281 0)"/>
   </g>
  </g>
 </g>
 <defs>
  <clipPath id="p1139e3274b">
   <rect x="65.63" y="57.0062" width="566.575" height="333.0338"/>
  </clipPath>
 </defs>
</svg>
