<?xml version="1.0" encoding="utf-8" standalone="no"?>
<!DOCTYPE svg PUBLIC "-//W3C//DTD SVG 1.1//EN"
  "http://www.w3.org/Graphics/SVG/1.1/DTD/svg11.dtd">
<svg xmlns:xlink="http://www.w3.org/1999/xlink" width="648pt" height="432pt" viewBox="0 0 648 432" xmlns="http://www.w3.org/2000/svg" version="1.1">
 <metadata>
  <rdf:RDF xmlns:dc="http://purl.org/dc/elements/1.1/" xmlns:cc="http://creativecommons.org/ns#" xmlns:rdf="http://www.w3.org/1999/02/22-rdf-syntax-ns#">
   <cc:Work>
    <dc:type rdf:resource="http://purl.org/dc/dcmitype/StillImage"/>
    <dc:date>2025-07-16T23:45:04.458209</dc:date>
    <dc:format>image/svg+xml</dc:format>
    <dc:creator>
     <cc:Agent>
      <dc:title>Matplotlib v3.10.0, https://matplotlib.org/</dc:title>
     </cc:Agent>
    </dc:creator>
   </cc:Work>
  </rdf:RDF>
 </metadata>
 <defs>
  <style type="text/css">*{stroke-linejoin: round; stroke-linecap: butt}</style>
 </defs>
 <g id="figure_1">
  <g id="patch_1">
   <path d="M 0 432 
L 648 432 
L 648 0 
L 0 0 
z
" style="fill: #ffffff"/>
  </g>
  <g id="axes_1">
   <g id="patch_2">
    <path d="M 65.63 390.04 
L 632.205 390.04 
L 632.205 57.0062 
L 65.63 57.0062 
z
" style="fill: #eaeaf2"/>
   </g>
   <g id="matplotlib.axis_1">
    <g id="xtick_1">
     <g id="line2d_1">
      <path d="M 65.63083 390.04 
L 65.63083 57.0062 
" clip-path="url(#pa3fe708bdc)" style="fill: none; stroke: #ffffff; stroke-width: 0.8; stroke-linecap: round"/>
     </g>
     <g id="text_1">
      <!-- 0.00 -->
      <g style="fill: #262626" transform="translate(54.498017 404.638438) scale(0.1 -0.1)">
       <defs>
        <path id="DejaVuSans-30" d="M 2034 4250 
Q 1547 4250 1301 3770 
Q 1056 3291 1056 2328 
Q 1056 1369 1301 889 
Q 1547 409 2034 409 
Q 2525 409 2770 889 
Q 3016 1369 3016 2328 
Q 3016 3291 2770 3770 
Q 2525 4250 2034 4250 
z
M 2034 4750 
Q 2819 4750 3233 4129 
Q 3647 3509 3647 2328 
Q 3647 1150 3233 529 
Q 2819 -91 2034 -91 
Q 1250 -91 836 529 
Q 422 1150 422 2328 
Q 422 3509 836 4129 
Q 1250 4750 2034 4750 
z
" transform="scale(0.015625)"/>
        <path id="DejaVuSans-2e" d="M 684 794 
L 1344 794 
L 1344 0 
L 684 0 
L 684 794 
z
" transform="scale(0.015625)"/>
       </defs>
       <use xlink:href="#DejaVuSans-30"/>
       <use xlink:href="#DejaVuSans-2e" transform="translate(63.623047 0)"/>
       <use xlink:href="#DejaVuSans-30" transform="translate(95.410156 0)"/>
       <use xlink:href="#DejaVuSans-30" transform="translate(159.033203 0)"/>
      </g>
     </g>
    </g>
    <g id="xtick_2">
     <g id="line2d_2">
      <path d="M 134.792615 390.04 
L 134.792615 57.0062 
" clip-path="url(#pa3fe708bdc)" style="fill: none; stroke: #ffffff; stroke-width: 0.8; stroke-linecap: round"/>
     </g>
     <g id="text_2">
      <!-- 0.25 -->
      <g style="fill: #262626" transform="translate(123.659802 404.638438) scale(0.1 -0.1)">
       <defs>
        <path id="DejaVuSans-32" d="M 1228 531 
L 3431 531 
L 3431 0 
L 469 0 
L 469 531 
Q 828 903 1448 1529 
Q 2069 2156 2228 2338 
Q 2531 2678 2651 2914 
Q 2772 3150 2772 3378 
Q 2772 3750 2511 3984 
Q 2250 4219 1831 4219 
Q 1534 4219 1204 4116 
Q 875 4013 500 3803 
L 500 4441 
Q 881 4594 1212 4672 
Q 1544 4750 1819 4750 
Q 2544 4750 2975 4387 
Q 3406 4025 3406 3419 
Q 3406 3131 3298 2873 
Q 3191 2616 2906 2266 
Q 2828 2175 2409 1742 
Q 1991 1309 1228 531 
z
" transform="scale(0.015625)"/>
        <path id="DejaVuSans-35" d="M 691 4666 
L 3169 4666 
L 3169 4134 
L 1269 4134 
L 1269 2991 
Q 1406 3038 1543 3061 
Q 1681 3084 1819 3084 
Q 2600 3084 3056 2656 
Q 3513 2228 3513 1497 
Q 3513 744 3044 326 
Q 2575 -91 1722 -91 
Q 1428 -91 1123 -41 
Q 819 9 494 109 
L 494 744 
Q 775 591 1075 516 
Q 1375 441 1709 441 
Q 2250 441 2565 725 
Q 2881 1009 2881 1497 
Q 2881 1984 2565 2268 
Q 2250 2553 1709 2553 
Q 1456 2553 1204 2497 
Q 953 2441 691 2322 
L 691 4666 
z
" transform="scale(0.015625)"/>
       </defs>
       <use xlink:href="#DejaVuSans-30"/>
       <use xlink:href="#DejaVuSans-2e" transform="translate(63.623047 0)"/>
       <use xlink:href="#DejaVuSans-32" transform="translate(95.410156 0)"/>
       <use xlink:href="#DejaVuSans-35" transform="translate(159.033203 0)"/>
      </g>
     </g>
    </g>
    <g id="xtick_3">
     <g id="line2d_3">
      <path d="M 203.954399 390.04 
L 203.954399 57.0062 
" clip-path="url(#pa3fe708bdc)" style="fill: none; stroke: #ffffff; stroke-width: 0.8; stroke-linecap: round"/>
     </g>
     <g id="text_3">
      <!-- 0.50 -->
      <g style="fill: #262626" transform="translate(192.821587 404.638438) scale(0.1 -0.1)">
       <use xlink:href="#DejaVuSans-30"/>
       <use xlink:href="#DejaVuSans-2e" transform="translate(63.623047 0)"/>
       <use xlink:href="#DejaVuSans-35" transform="translate(95.410156 0)"/>
       <use xlink:href="#DejaVuSans-30" transform="translate(159.033203 0)"/>
      </g>
     </g>
    </g>
    <g id="xtick_4">
     <g id="line2d_4">
      <path d="M 273.116184 390.04 
L 273.116184 57.0062 
" clip-path="url(#pa3fe708bdc)" style="fill: none; stroke: #ffffff; stroke-width: 0.8; stroke-linecap: round"/>
     </g>
     <g id="text_4">
      <!-- 0.75 -->
      <g style="fill: #262626" transform="translate(261.983371 404.638438) scale(0.1 -0.1)">
       <defs>
        <path id="DejaVuSans-37" d="M 525 4666 
L 3525 4666 
L 3525 4397 
L 1831 0 
L 1172 0 
L 2766 4134 
L 525 4134 
L 525 4666 
z
" transform="scale(0.015625)"/>
       </defs>
       <use xlink:href="#DejaVuSans-30"/>
       <use xlink:href="#DejaVuSans-2e" transform="translate(63.623047 0)"/>
       <use xlink:href="#DejaVuSans-37" transform="translate(95.410156 0)"/>
       <use xlink:href="#DejaVuSans-35" transform="translate(159.033203 0)"/>
      </g>
     </g>
    </g>
    <g id="xtick_5">
     <g id="line2d_5">
      <path d="M 342.277969 390.04 
L 342.277969 57.0062 
" clip-path="url(#pa3fe708bdc)" style="fill: none; stroke: #ffffff; stroke-width: 0.8; stroke-linecap: round"/>
     </g>
     <g id="text_5">
      <!-- 1.00 -->
      <g style="fill: #262626" transform="translate(331.145156 404.638438) scale(0.1 -0.1)">
       <defs>
        <path id="DejaVuSans-31" d="M 794 531 
L 1825 531 
L 1825 4091 
L 703 3866 
L 703 4441 
L 1819 4666 
L 2450 4666 
L 2450 531 
L 3481 531 
L 3481 0 
L 794 0 
L 794 531 
z
" transform="scale(0.015625)"/>
       </defs>
       <use xlink:href="#DejaVuSans-31"/>
       <use xlink:href="#DejaVuSans-2e" transform="translate(63.623047 0)"/>
       <use xlink:href="#DejaVuSans-30" transform="translate(95.410156 0)"/>
       <use xlink:href="#DejaVuSans-30" transform="translate(159.033203 0)"/>
      </g>
     </g>
    </g>
    <g id="xtick_6">
     <g id="line2d_6">
      <path d="M 411.439753 390.04 
L 411.439753 57.0062 
" clip-path="url(#pa3fe708bdc)" style="fill: none; stroke: #ffffff; stroke-width: 0.8; stroke-linecap: round"/>
     </g>
     <g id="text_6">
      <!-- 1.25 -->
      <g style="fill: #262626" transform="translate(400.306941 404.638438) scale(0.1 -0.1)">
       <use xlink:href="#DejaVuSans-31"/>
       <use xlink:href="#DejaVuSans-2e" transform="translate(63.623047 0)"/>
       <use xlink:href="#DejaVuSans-32" transform="translate(95.410156 0)"/>
       <use xlink:href="#DejaVuSans-35" transform="translate(159.033203 0)"/>
      </g>
     </g>
    </g>
    <g id="xtick_7">
     <g id="line2d_7">
      <path d="M 480.601538 390.04 
L 480.601538 57.0062 
" clip-path="url(#pa3fe708bdc)" style="fill: none; stroke: #ffffff; stroke-width: 0.8; stroke-linecap: round"/>
     </g>
     <g id="text_7">
      <!-- 1.50 -->
      <g style="fill: #262626" transform="translate(469.468726 404.638438) scale(0.1 -0.1)">
       <use xlink:href="#DejaVuSans-31"/>
       <use xlink:href="#DejaVuSans-2e" transform="translate(63.623047 0)"/>
       <use xlink:href="#DejaVuSans-35" transform="translate(95.410156 0)"/>
       <use xlink:href="#DejaVuSans-30" transform="translate(159.033203 0)"/>
      </g>
     </g>
    </g>
    <g id="xtick_8">
     <g id="line2d_8">
      <path d="M 549.763323 390.04 
L 549.763323 57.0062 
" clip-path="url(#pa3fe708bdc)" style="fill: none; stroke: #ffffff; stroke-width: 0.8; stroke-linecap: round"/>
     </g>
     <g id="text_8">
      <!-- 1.75 -->
      <g style="fill: #262626" transform="translate(538.63051 404.638438) scale(0.1 -0.1)">
       <use xlink:href="#DejaVuSans-31"/>
       <use xlink:href="#DejaVuSans-2e" transform="translate(63.623047 0)"/>
       <use xlink:href="#DejaVuSans-37" transform="translate(95.410156 0)"/>
       <use xlink:href="#DejaVuSans-35" transform="translate(159.033203 0)"/>
      </g>
     </g>
    </g>
    <g id="xtick_9">
     <g id="line2d_9">
      <path d="M 618.925107 390.04 
L 618.925107 57.0062 
" clip-path="url(#pa3fe708bdc)" style="fill: none; stroke: #ffffff; stroke-width: 0.8; stroke-linecap: round"/>
     </g>
     <g id="text_9">
      <!-- 2.00 -->
      <g style="fill: #262626" transform="translate(607.792295 404.638438) scale(0.1 -0.1)">
       <use xlink:href="#DejaVuSans-32"/>
       <use xlink:href="#DejaVuSans-2e" transform="translate(63.623047 0)"/>
       <use xlink:href="#DejaVuSans-30" transform="translate(95.410156 0)"/>
       <use xlink:href="#DejaVuSans-30" transform="translate(159.033203 0)"/>
      </g>
     </g>
    </g>
    <g id="text_10">
     <!-- Steps -->
     <g style="fill: #262626" transform="translate(334.927656 418.316562) scale(0.1 -0.1)">
      <defs>
       <path id="DejaVuSans-53" d="M 3425 4513 
L 3425 3897 
Q 3066 4069 2747 4153 
Q 2428 4238 2131 4238 
Q 1616 4238 1336 4038 
Q 1056 3838 1056 3469 
Q 1056 3159 1242 3001 
Q 1428 2844 1947 2747 
L 2328 2669 
Q 3034 2534 3370 2195 
Q 3706 1856 3706 1288 
Q 3706 609 3251 259 
Q 2797 -91 1919 -91 
Q 1588 -91 1214 -16 
Q 841 59 441 206 
L 441 856 
Q 825 641 1194 531 
Q 1563 422 1919 422 
Q 2459 422 2753 634 
Q 3047 847 3047 1241 
Q 3047 1584 2836 1778 
Q 2625 1972 2144 2069 
L 1759 2144 
Q 1053 2284 737 2584 
Q 422 2884 422 3419 
Q 422 4038 858 4394 
Q 1294 4750 2059 4750 
Q 2388 4750 2728 4690 
Q 3069 4631 3425 4513 
z
" transform="scale(0.015625)"/>
       <path id="DejaVuSans-74" d="M 1172 4494 
L 1172 3500 
L 2356 3500 
L 2356 3053 
L 1172 3053 
L 1172 1153 
Q 1172 725 1289 603 
Q 1406 481 1766 481 
L 2356 481 
L 2356 0 
L 1766 0 
Q 1100 0 847 248 
Q 594 497 594 1153 
L 594 3053 
L 172 3053 
L 172 3500 
L 594 3500 
L 594 4494 
L 1172 4494 
z
" transform="scale(0.015625)"/>
       <path id="DejaVuSans-65" d="M 3597 1894 
L 3597 1613 
L 953 1613 
Q 991 1019 1311 708 
Q 1631 397 2203 397 
Q 2534 397 2845 478 
Q 3156 559 3463 722 
L 3463 178 
Q 3153 47 2828 -22 
Q 2503 -91 2169 -91 
Q 1331 -91 842 396 
Q 353 884 353 1716 
Q 353 2575 817 3079 
Q 1281 3584 2069 3584 
Q 2775 3584 3186 3129 
Q 3597 2675 3597 1894 
z
M 3022 2063 
Q 3016 2534 2758 2815 
Q 2500 3097 2075 3097 
Q 1594 3097 1305 2825 
Q 1016 2553 972 2059 
L 3022 2063 
z
" transform="scale(0.015625)"/>
       <path id="DejaVuSans-70" d="M 1159 525 
L 1159 -1331 
L 581 -1331 
L 581 3500 
L 1159 3500 
L 1159 2969 
Q 1341 3281 1617 3432 
Q 1894 3584 2278 3584 
Q 2916 3584 3314 3078 
Q 3713 2572 3713 1747 
Q 3713 922 3314 415 
Q 2916 -91 2278 -91 
Q 1894 -91 1617 61 
Q 1341 213 1159 525 
z
M 3116 1747 
Q 3116 2381 2855 2742 
Q 2594 3103 2138 3103 
Q 1681 3103 1420 2742 
Q 1159 2381 1159 1747 
Q 1159 1113 1420 752 
Q 1681 391 2138 391 
Q 2594 391 2855 752 
Q 3116 1113 3116 1747 
z
" transform="scale(0.015625)"/>
       <path id="DejaVuSans-73" d="M 2834 3397 
L 2834 2853 
Q 2591 2978 2328 3040 
Q 2066 3103 1784 3103 
Q 1356 3103 1142 2972 
Q 928 2841 928 2578 
Q 928 2378 1081 2264 
Q 1234 2150 1697 2047 
L 1894 2003 
Q 2506 1872 2764 1633 
Q 3022 1394 3022 966 
Q 3022 478 2636 193 
Q 2250 -91 1575 -91 
Q 1294 -91 989 -36 
Q 684 19 347 128 
L 347 722 
Q 666 556 975 473 
Q 1284 391 1588 391 
Q 1994 391 2212 530 
Q 2431 669 2431 922 
Q 2431 1156 2273 1281 
Q 2116 1406 1581 1522 
L 1381 1569 
Q 847 1681 609 1914 
Q 372 2147 372 2553 
Q 372 3047 722 3315 
Q 1072 3584 1716 3584 
Q 2034 3584 2315 3537 
Q 2597 3491 2834 3397 
z
" transform="scale(0.015625)"/>
      </defs>
      <use xlink:href="#DejaVuSans-53"/>
      <use xlink:href="#DejaVuSans-74" transform="translate(63.476562 0)"/>
      <use xlink:href="#DejaVuSans-65" transform="translate(102.685547 0)"/>
      <use xlink:href="#DejaVuSans-70" transform="translate(164.208984 0)"/>
      <use xlink:href="#DejaVuSans-73" transform="translate(227.685547 0)"/>
     </g>
    </g>
    <g id="text_11">
     <!-- 1e6 -->
     <g style="fill: #262626" transform="translate(613.326875 417.316562) scale(0.1 -0.1)">
      <defs>
       <path id="DejaVuSans-36" d="M 2113 2584 
Q 1688 2584 1439 2293 
Q 1191 2003 1191 1497 
Q 1191 994 1439 701 
Q 1688 409 2113 409 
Q 2538 409 2786 701 
Q 3034 994 3034 1497 
Q 3034 2003 2786 2293 
Q 2538 2584 2113 2584 
z
M 3366 4563 
L 3366 3988 
Q 3128 4100 2886 4159 
Q 2644 4219 2406 4219 
Q 1781 4219 1451 3797 
Q 1122 3375 1075 2522 
Q 1259 2794 1537 2939 
Q 1816 3084 2150 3084 
Q 2853 3084 3261 2657 
Q 3669 2231 3669 1497 
Q 3669 778 3244 343 
Q 2819 -91 2113 -91 
Q 1303 -91 875 529 
Q 447 1150 447 2328 
Q 447 3434 972 4092 
Q 1497 4750 2381 4750 
Q 2619 4750 2861 4703 
Q 3103 4656 3366 4563 
z
" transform="scale(0.015625)"/>
      </defs>
      <use xlink:href="#DejaVuSans-31"/>
      <use xlink:href="#DejaVuSans-65" transform="translate(63.623047 0)"/>
      <use xlink:href="#DejaVuSans-36" transform="translate(125.146484 0)"/>
     </g>
    </g>
   </g>
   <g id="matplotlib.axis_2">
    <g id="ytick_1">
     <g id="line2d_10">
      <path d="M 65.63 390.04 
L 632.205 390.04 
" clip-path="url(#pa3fe708bdc)" style="fill: none; stroke: #ffffff; stroke-width: 0.8; stroke-linecap: round"/>
     </g>
     <g id="text_12">
      <!-- −1600 -->
      <g style="fill: #262626" transform="translate(24.800313 393.839219) scale(0.1 -0.1)">
       <defs>
        <path id="DejaVuSans-2212" d="M 678 2272 
L 4684 2272 
L 4684 1741 
L 678 1741 
L 678 2272 
z
" transform="scale(0.015625)"/>
       </defs>
       <use xlink:href="#DejaVuSans-2212"/>
       <use xlink:href="#DejaVuSans-31" transform="translate(83.789062 0)"/>
       <use xlink:href="#DejaVuSans-36" transform="translate(147.412109 0)"/>
       <use xlink:href="#DejaVuSans-30" transform="translate(211.035156 0)"/>
       <use xlink:href="#DejaVuSans-30" transform="translate(274.658203 0)"/>
      </g>
     </g>
    </g>
    <g id="ytick_2">
     <g id="line2d_11">
      <path d="M 65.63 348.410775 
L 632.205 348.410775 
" clip-path="url(#pa3fe708bdc)" style="fill: none; stroke: #ffffff; stroke-width: 0.8; stroke-linecap: round"/>
     </g>
     <g id="text_13">
      <!-- −1400 -->
      <g style="fill: #262626" transform="translate(24.800313 352.209994) scale(0.1 -0.1)">
       <defs>
        <path id="DejaVuSans-34" d="M 2419 4116 
L 825 1625 
L 2419 1625 
L 2419 4116 
z
M 2253 4666 
L 3047 4666 
L 3047 1625 
L 3713 1625 
L 3713 1100 
L 3047 1100 
L 3047 0 
L 2419 0 
L 2419 1100 
L 313 1100 
L 313 1709 
L 2253 4666 
z
" transform="scale(0.015625)"/>
       </defs>
       <use xlink:href="#DejaVuSans-2212"/>
       <use xlink:href="#DejaVuSans-31" transform="translate(83.789062 0)"/>
       <use xlink:href="#DejaVuSans-34" transform="translate(147.412109 0)"/>
       <use xlink:href="#DejaVuSans-30" transform="translate(211.035156 0)"/>
       <use xlink:href="#DejaVuSans-30" transform="translate(274.658203 0)"/>
      </g>
     </g>
    </g>
    <g id="ytick_3">
     <g id="line2d_12">
      <path d="M 65.63 306.78155 
L 632.205 306.78155 
" clip-path="url(#pa3fe708bdc)" style="fill: none; stroke: #ffffff; stroke-width: 0.8; stroke-linecap: round"/>
     </g>
     <g id="text_14">
      <!-- −1200 -->
      <g style="fill: #262626" transform="translate(24.800313 310.580769) scale(0.1 -0.1)">
       <use xlink:href="#DejaVuSans-2212"/>
       <use xlink:href="#DejaVuSans-31" transform="translate(83.789062 0)"/>
       <use xlink:href="#DejaVuSans-32" transform="translate(147.412109 0)"/>
       <use xlink:href="#DejaVuSans-30" transform="translate(211.035156 0)"/>
       <use xlink:href="#DejaVuSans-30" transform="translate(274.658203 0)"/>
      </g>
     </g>
    </g>
    <g id="ytick_4">
     <g id="line2d_13">
      <path d="M 65.63 265.152325 
L 632.205 265.152325 
" clip-path="url(#pa3fe708bdc)" style="fill: none; stroke: #ffffff; stroke-width: 0.8; stroke-linecap: round"/>
     </g>
     <g id="text_15">
      <!-- −1000 -->
      <g style="fill: #262626" transform="translate(24.800313 268.951544) scale(0.1 -0.1)">
       <use xlink:href="#DejaVuSans-2212"/>
       <use xlink:href="#DejaVuSans-31" transform="translate(83.789062 0)"/>
       <use xlink:href="#DejaVuSans-30" transform="translate(147.412109 0)"/>
       <use xlink:href="#DejaVuSans-30" transform="translate(211.035156 0)"/>
       <use xlink:href="#DejaVuSans-30" transform="translate(274.658203 0)"/>
      </g>
     </g>
    </g>
    <g id="ytick_5">
     <g id="line2d_14">
      <path d="M 65.63 223.5231 
L 632.205 223.5231 
" clip-path="url(#pa3fe708bdc)" style="fill: none; stroke: #ffffff; stroke-width: 0.8; stroke-linecap: round"/>
     </g>
     <g id="text_16">
      <!-- −800 -->
      <g style="fill: #262626" transform="translate(31.162813 227.322319) scale(0.1 -0.1)">
       <defs>
        <path id="DejaVuSans-38" d="M 2034 2216 
Q 1584 2216 1326 1975 
Q 1069 1734 1069 1313 
Q 1069 891 1326 650 
Q 1584 409 2034 409 
Q 2484 409 2743 651 
Q 3003 894 3003 1313 
Q 3003 1734 2745 1975 
Q 2488 2216 2034 2216 
z
M 1403 2484 
Q 997 2584 770 2862 
Q 544 3141 544 3541 
Q 544 4100 942 4425 
Q 1341 4750 2034 4750 
Q 2731 4750 3128 4425 
Q 3525 4100 3525 3541 
Q 3525 3141 3298 2862 
Q 3072 2584 2669 2484 
Q 3125 2378 3379 2068 
Q 3634 1759 3634 1313 
Q 3634 634 3220 271 
Q 2806 -91 2034 -91 
Q 1263 -91 848 271 
Q 434 634 434 1313 
Q 434 1759 690 2068 
Q 947 2378 1403 2484 
z
M 1172 3481 
Q 1172 3119 1398 2916 
Q 1625 2713 2034 2713 
Q 2441 2713 2670 2916 
Q 2900 3119 2900 3481 
Q 2900 3844 2670 4047 
Q 2441 4250 2034 4250 
Q 1625 4250 1398 4047 
Q 1172 3844 1172 3481 
z
" transform="scale(0.015625)"/>
       </defs>
       <use xlink:href="#DejaVuSans-2212"/>
       <use xlink:href="#DejaVuSans-38" transform="translate(83.789062 0)"/>
       <use xlink:href="#DejaVuSans-30" transform="translate(147.412109 0)"/>
       <use xlink:href="#DejaVuSans-30" transform="translate(211.035156 0)"/>
      </g>
     </g>
    </g>
    <g id="ytick_6">
     <g id="line2d_15">
      <path d="M 65.63 181.893875 
L 632.205 181.893875 
" clip-path="url(#pa3fe708bdc)" style="fill: none; stroke: #ffffff; stroke-width: 0.8; stroke-linecap: round"/>
     </g>
     <g id="text_17">
      <!-- −600 -->
      <g style="fill: #262626" transform="translate(31.162813 185.693094) scale(0.1 -0.1)">
       <use xlink:href="#DejaVuSans-2212"/>
       <use xlink:href="#DejaVuSans-36" transform="translate(83.789062 0)"/>
       <use xlink:href="#DejaVuSans-30" transform="translate(147.412109 0)"/>
       <use xlink:href="#DejaVuSans-30" transform="translate(211.035156 0)"/>
      </g>
     </g>
    </g>
    <g id="ytick_7">
     <g id="line2d_16">
      <path d="M 65.63 140.26465 
L 632.205 140.26465 
" clip-path="url(#pa3fe708bdc)" style="fill: none; stroke: #ffffff; stroke-width: 0.8; stroke-linecap: round"/>
     </g>
     <g id="text_18">
      <!-- −400 -->
      <g style="fill: #262626" transform="translate(31.162813 144.063869) scale(0.1 -0.1)">
       <use xlink:href="#DejaVuSans-2212"/>
       <use xlink:href="#DejaVuSans-34" transform="translate(83.789062 0)"/>
       <use xlink:href="#DejaVuSans-30" transform="translate(147.412109 0)"/>
       <use xlink:href="#DejaVuSans-30" transform="translate(211.035156 0)"/>
      </g>
     </g>
    </g>
    <g id="ytick_8">
     <g id="line2d_17">
      <path d="M 65.63 98.635425 
L 632.205 98.635425 
" clip-path="url(#pa3fe708bdc)" style="fill: none; stroke: #ffffff; stroke-width: 0.8; stroke-linecap: round"/>
     </g>
     <g id="text_19">
      <!-- −200 -->
      <g style="fill: #262626" transform="translate(31.162813 102.434644) scale(0.1 -0.1)">
       <use xlink:href="#DejaVuSans-2212"/>
       <use xlink:href="#DejaVuSans-32" transform="translate(83.789062 0)"/>
       <use xlink:href="#DejaVuSans-30" transform="translate(147.412109 0)"/>
       <use xlink:href="#DejaVuSans-30" transform="translate(211.035156 0)"/>
      </g>
     </g>
    </g>
    <g id="ytick_9">
     <g id="line2d_18">
      <path d="M 65.63 57.0062 
L 632.205 57.0062 
" clip-path="url(#pa3fe708bdc)" style="fill: none; stroke: #ffffff; stroke-width: 0.8; stroke-linecap: round"/>
     </g>
     <g id="text_20">
      <!-- 0 -->
      <g style="fill: #262626" transform="translate(52.2675 60.805419) scale(0.1 -0.1)">
       <use xlink:href="#DejaVuSans-30"/>
      </g>
     </g>
    </g>
    <g id="text_21">
     <!-- Reward -->
     <g style="fill: #262626" transform="translate(18.720625 242.144194) rotate(-90) scale(0.1 -0.1)">
      <defs>
       <path id="DejaVuSans-52" d="M 2841 2188 
Q 3044 2119 3236 1894 
Q 3428 1669 3622 1275 
L 4263 0 
L 3584 0 
L 2988 1197 
Q 2756 1666 2539 1819 
Q 2322 1972 1947 1972 
L 1259 1972 
L 1259 0 
L 628 0 
L 628 4666 
L 2053 4666 
Q 2853 4666 3247 4331 
Q 3641 3997 3641 3322 
Q 3641 2881 3436 2590 
Q 3231 2300 2841 2188 
z
M 1259 4147 
L 1259 2491 
L 2053 2491 
Q 2509 2491 2742 2702 
Q 2975 2913 2975 3322 
Q 2975 3731 2742 3939 
Q 2509 4147 2053 4147 
L 1259 4147 
z
" transform="scale(0.015625)"/>
       <path id="DejaVuSans-77" d="M 269 3500 
L 844 3500 
L 1563 769 
L 2278 3500 
L 2956 3500 
L 3675 769 
L 4391 3500 
L 4966 3500 
L 4050 0 
L 3372 0 
L 2619 2869 
L 1863 0 
L 1184 0 
L 269 3500 
z
" transform="scale(0.015625)"/>
       <path id="DejaVuSans-61" d="M 2194 1759 
Q 1497 1759 1228 1600 
Q 959 1441 959 1056 
Q 959 750 1161 570 
Q 1363 391 1709 391 
Q 2188 391 2477 730 
Q 2766 1069 2766 1631 
L 2766 1759 
L 2194 1759 
z
M 3341 1997 
L 3341 0 
L 2766 0 
L 2766 531 
Q 2569 213 2275 61 
Q 1981 -91 1556 -91 
Q 1019 -91 701 211 
Q 384 513 384 1019 
Q 384 1609 779 1909 
Q 1175 2209 1959 2209 
L 2766 2209 
L 2766 2266 
Q 2766 2663 2505 2880 
Q 2244 3097 1772 3097 
Q 1472 3097 1187 3025 
Q 903 2953 641 2809 
L 641 3341 
Q 956 3463 1253 3523 
Q 1550 3584 1831 3584 
Q 2591 3584 2966 3190 
Q 3341 2797 3341 1997 
z
" transform="scale(0.015625)"/>
       <path id="DejaVuSans-72" d="M 2631 2963 
Q 2534 3019 2420 3045 
Q 2306 3072 2169 3072 
Q 1681 3072 1420 2755 
Q 1159 2438 1159 1844 
L 1159 0 
L 581 0 
L 581 3500 
L 1159 3500 
L 1159 2956 
Q 1341 3275 1631 3429 
Q 1922 3584 2338 3584 
Q 2397 3584 2469 3576 
Q 2541 3569 2628 3553 
L 2631 2963 
z
" transform="scale(0.015625)"/>
       <path id="DejaVuSans-64" d="M 2906 2969 
L 2906 4863 
L 3481 4863 
L 3481 0 
L 2906 0 
L 2906 525 
Q 2725 213 2448 61 
Q 2172 -91 1784 -91 
Q 1150 -91 751 415 
Q 353 922 353 1747 
Q 353 2572 751 3078 
Q 1150 3584 1784 3584 
Q 2172 3584 2448 3432 
Q 2725 3281 2906 2969 
z
M 947 1747 
Q 947 1113 1208 752 
Q 1469 391 1925 391 
Q 2381 391 2643 752 
Q 2906 1113 2906 1747 
Q 2906 2381 2643 2742 
Q 2381 3103 1925 3103 
Q 1469 3103 1208 2742 
Q 947 2381 947 1747 
z
" transform="scale(0.015625)"/>
      </defs>
      <use xlink:href="#DejaVuSans-52"/>
      <use xlink:href="#DejaVuSans-65" transform="translate(64.982422 0)"/>
      <use xlink:href="#DejaVuSans-77" transform="translate(126.505859 0)"/>
      <use xlink:href="#DejaVuSans-61" transform="translate(208.292969 0)"/>
      <use xlink:href="#DejaVuSans-72" transform="translate(269.572266 0)"/>
      <use xlink:href="#DejaVuSans-64" transform="translate(308.935547 0)"/>
     </g>
    </g>
   </g>
   <g id="FillBetweenPolyCollection_1">
    <path d="M 65.63083 300.13097 
L 65.63083 314.993131 
L 71.296563 304.578815 
L 76.962297 327.325808 
L 82.62803 317.116973 
L 88.293764 308.960921 
L 93.959497 307.817382 
L 99.62523 312.261142 
L 105.290964 294.099864 
L 110.956697 316.301363 
L 116.622431 302.322776 
L 122.288164 298.523665 
L 127.953897 283.665784 
L 133.619631 290.720707 
L 139.285364 284.620617 
L 144.951098 283.563786 
L 150.616831 281.219334 
L 156.282564 273.190206 
L 161.948298 280.524219 
L 167.614031 274.659549 
L 173.279765 261.085199 
L 178.945498 257.140805 
L 184.611231 249.637118 
L 190.276965 243.525507 
L 195.942698 242.971739 
L 201.608432 237.886223 
L 207.274165 224.968344 
L 212.939898 209.643093 
L 218.605632 197.263879 
L 224.271365 192.364508 
L 229.937099 171.995098 
L 235.602832 156.847019 
L 241.268565 158.232189 
L 246.934299 131.016363 
L 252.600032 130.040513 
L 258.265766 125.753179 
L 263.931499 131.005536 
L 269.597232 110.030061 
L 275.262966 117.722619 
L 280.928699 120.781825 
L 286.594433 110.195085 
L 292.260166 125.614913 
L 297.925899 114.956315 
L 303.591633 122.428261 
L 309.257366 112.802843 
L 314.9231 120.839971 
L 320.588833 107.735873 
L 326.254566 106.478975 
L 331.9203 113.981992 
L 337.586033 112.040051 
L 343.251767 106.086869 
L 348.9175 99.227832 
L 354.583233 116.51218 
L 360.248967 108.075674 
L 365.9147 110.137691 
L 371.580434 101.640545 
L 377.246167 104.562036 
L 382.9119 103.466561 
L 388.577634 102.743873 
L 394.243367 98.647825 
L 399.909101 98.743056 
L 405.574834 101.114261 
L 411.240567 99.435876 
L 416.906301 106.872487 
L 422.572034 99.870436 
L 428.237768 99.060922 
L 433.903501 101.171992 
L 439.569234 102.601895 
L 445.234968 108.830593 
L 450.900701 102.574619 
L 456.566435 103.053355 
L 462.232168 100.921271 
L 467.897901 93.052782 
L 473.563635 99.690294 
L 479.229368 99.724725 
L 484.895102 96.364095 
L 490.560835 98.525252 
L 496.226568 96.95871 
L 501.892302 127.488669 
L 507.558035 106.809539 
L 513.223769 101.182489 
L 518.889502 96.942142 
L 524.555235 94.672051 
L 530.220969 91.098901 
L 535.886702 100.60555 
L 541.552436 95.868726 
L 547.218169 95.55906 
L 552.883902 95.108959 
L 558.549636 96.818829 
L 564.215369 94.663091 
L 569.881103 93.756377 
L 575.546836 99.831699 
L 581.212569 95.412335 
L 586.878303 96.710845 
L 592.544036 91.942066 
L 598.20977 87.555636 
L 603.875503 98.030089 
L 609.541236 91.708284 
L 615.20697 91.697916 
L 620.872703 91.504348 
L 626.538437 95.241215 
L 626.538437 89.979657 
L 626.538437 89.979657 
L 620.872703 86.831896 
L 615.20697 84.672655 
L 609.541236 88.403583 
L 603.875503 83.806227 
L 598.20977 83.976645 
L 592.544036 84.125855 
L 586.878303 87.036321 
L 581.212569 84.638161 
L 575.546836 89.508335 
L 569.881103 86.449053 
L 564.215369 89.16144 
L 558.549636 91.618268 
L 552.883902 85.119031 
L 547.218169 88.510302 
L 541.552436 86.234738 
L 535.886702 85.290431 
L 530.220969 87.031121 
L 524.555235 87.670505 
L 518.889502 90.135941 
L 513.223769 92.672706 
L 507.558035 87.842673 
L 501.892302 79.324788 
L 496.226568 90.765636 
L 490.560835 90.518746 
L 484.895102 90.308625 
L 479.229368 92.491864 
L 473.563635 90.481939 
L 467.897901 86.846754 
L 462.232168 95.444272 
L 456.566435 90.503578 
L 450.900701 85.256452 
L 445.234968 86.95027 
L 439.569234 90.784495 
L 433.903501 89.757824 
L 428.237768 92.99242 
L 422.572034 93.356981 
L 416.906301 90.5492 
L 411.240567 90.958134 
L 405.574834 94.048435 
L 399.909101 91.148753 
L 394.243367 90.347115 
L 388.577634 92.444156 
L 382.9119 90.043767 
L 377.246167 96.108323 
L 371.580434 92.249918 
L 365.9147 94.167249 
L 360.248967 96.22659 
L 354.583233 97.935032 
L 348.9175 92.991665 
L 343.251767 94.206705 
L 337.586033 96.712961 
L 331.9203 95.602282 
L 326.254566 93.576997 
L 320.588833 100.821688 
L 314.9231 101.56273 
L 309.257366 98.088001 
L 303.591633 97.525075 
L 297.925899 96.755464 
L 292.260166 106.738939 
L 286.594433 99.290804 
L 280.928699 102.571461 
L 275.262966 96.621381 
L 269.597232 104.648466 
L 263.931499 102.066207 
L 258.265766 102.347995 
L 252.600032 107.024576 
L 246.934299 114.906096 
L 241.268565 110.868493 
L 235.602832 108.294469 
L 229.937099 120.353517 
L 224.271365 129.783739 
L 218.605632 126.047114 
L 212.939898 134.563066 
L 207.274165 176.892366 
L 201.608432 175.804911 
L 195.942698 202.783654 
L 190.276965 217.267867 
L 184.611231 231.461668 
L 178.945498 237.759446 
L 173.279765 242.389441 
L 167.614031 247.674226 
L 161.948298 256.096219 
L 156.282564 261.501863 
L 150.616831 255.091292 
L 144.951098 273.398784 
L 139.285364 262.325911 
L 133.619631 267.992251 
L 127.953897 273.281724 
L 122.288164 281.27842 
L 116.622431 278.077093 
L 110.956697 284.441022 
L 105.290964 275.938234 
L 99.62523 287.357543 
L 93.959497 277.970666 
L 88.293764 293.230044 
L 82.62803 276.829174 
L 76.962297 296.304303 
L 71.296563 285.767966 
L 65.63083 300.13097 
z
" clip-path="url(#pa3fe708bdc)" style="fill: #0000ff; fill-opacity: 0.1"/>
   </g>
   <g id="line2d_19">
    <path d="M 65.63083 307.56205 
L 71.296563 295.17339 
L 76.962297 311.815055 
L 82.62803 296.973074 
L 88.293764 301.095482 
L 93.959497 292.894024 
L 99.62523 299.809343 
L 105.290964 285.019049 
L 110.956697 300.371192 
L 116.622431 290.199934 
L 122.288164 289.901043 
L 127.953897 278.473754 
L 133.619631 279.356479 
L 139.285364 273.473264 
L 144.951098 278.481285 
L 150.616831 268.155313 
L 156.282564 267.346035 
L 161.948298 268.310219 
L 167.614031 261.166888 
L 173.279765 251.73732 
L 178.945498 247.450126 
L 184.611231 240.549393 
L 190.276965 230.396687 
L 195.942698 222.877696 
L 201.608432 206.845567 
L 207.274165 200.930355 
L 212.939898 172.103079 
L 218.605632 161.655497 
L 224.271365 161.074124 
L 229.937099 146.174307 
L 235.602832 132.570744 
L 241.268565 134.550341 
L 246.934299 122.96123 
L 252.600032 118.532544 
L 258.265766 114.050587 
L 263.931499 116.535872 
L 269.597232 107.339264 
L 275.262966 107.172 
L 280.928699 111.676643 
L 286.594433 104.742945 
L 292.260166 116.176926 
L 297.925899 105.855889 
L 303.591633 109.976668 
L 309.257366 105.445422 
L 314.9231 111.201351 
L 320.588833 104.278781 
L 326.254566 100.027986 
L 331.9203 104.792137 
L 337.586033 104.376506 
L 343.251767 100.146787 
L 348.9175 96.109749 
L 354.583233 107.223606 
L 360.248967 102.151132 
L 365.9147 102.15247 
L 371.580434 96.945232 
L 377.246167 100.33518 
L 382.9119 96.755164 
L 388.577634 97.594015 
L 394.243367 94.49747 
L 399.909101 94.945904 
L 405.574834 97.581348 
L 411.240567 95.197005 
L 416.906301 98.710843 
L 422.572034 96.613709 
L 428.237768 96.026671 
L 433.903501 95.464908 
L 439.569234 96.693195 
L 445.234968 97.890431 
L 450.900701 93.915536 
L 456.566435 96.778466 
L 462.232168 98.182772 
L 467.897901 89.949768 
L 473.563635 95.086116 
L 479.229368 96.108294 
L 484.895102 93.33636 
L 490.560835 94.521999 
L 496.226568 93.862173 
L 501.892302 103.406729 
L 507.558035 97.326106 
L 513.223769 96.927598 
L 518.889502 93.539041 
L 524.555235 91.171278 
L 530.220969 89.065011 
L 535.886702 92.94799 
L 541.552436 91.051732 
L 547.218169 92.034681 
L 552.883902 90.113995 
L 558.549636 94.218549 
L 564.215369 91.912265 
L 569.881103 90.102715 
L 575.546836 94.670017 
L 581.212569 90.025248 
L 586.878303 91.873583 
L 592.544036 88.033961 
L 598.20977 85.766141 
L 603.875503 90.918158 
L 609.541236 90.055934 
L 615.20697 88.185285 
L 620.872703 89.168122 
L 626.538437 92.610436 
" clip-path="url(#pa3fe708bdc)" style="fill: none; stroke: #0000ff; stroke-width: 1.5; stroke-linecap: round"/>
   </g>
   <g id="line2d_20">
    <path d="M 65.63083 304.937184 
L 71.296563 278.425845 
L 76.962297 311.624753 
L 82.62803 282.19633 
L 88.293764 305.625756 
L 93.959497 275.241212 
L 99.62523 285.627908 
L 105.290964 275.03749 
L 110.956697 309.823038 
L 116.622431 276.972557 
L 122.288164 282.71836 
L 127.953897 276.960958 
L 133.619631 294.273883 
L 139.285364 281.032447 
L 144.951098 286.371134 
L 150.616831 267.625101 
L 156.282564 261.044297 
L 161.948298 278.383333 
L 167.614031 254.272246 
L 173.279765 257.047292 
L 178.945498 245.818931 
L 184.611231 237.700404 
L 190.276965 233.305601 
L 195.942698 236.306012 
L 201.608432 218.063965 
L 207.274165 216.126424 
L 212.939898 195.446937 
L 218.605632 171.999905 
L 224.271365 174.979751 
L 229.937099 137.388768 
L 235.602832 128.820528 
L 241.268565 119.027589 
L 246.934299 128.111331 
L 252.600032 114.608163 
L 258.265766 106.166989 
L 263.931499 118.367673 
L 269.597232 104.8266 
L 275.262966 96.796807 
L 280.928699 127.343309 
L 286.594433 95.800928 
L 292.260166 102.300919 
L 297.925899 94.866273 
L 303.591633 97.951889 
L 309.257366 106.486537 
L 314.9231 128.393032 
L 320.588833 106.642026 
L 326.254566 88.149137 
L 331.9203 108.12104 
L 337.586033 103.568787 
L 343.251767 91.364265 
L 348.9175 98.564404 
L 354.583233 119.651922 
L 360.248967 96.516732 
L 365.9147 114.014836 
L 371.580434 89.982441 
L 377.246167 94.253179 
L 382.9119 98.434766 
L 388.577634 90.99095 
L 394.243367 90.484328 
L 399.909101 97.62234 
L 405.574834 97.329681 
L 411.240567 99.495983 
L 416.906301 106.0383 
L 422.572034 99.152343 
L 428.237768 99.055203 
L 433.903501 105.913439 
L 439.569234 91.542006 
L 445.234968 117.087113 
L 450.900701 107.423738 
L 456.566435 101.19939 
L 462.232168 101.052821 
L 467.897901 85.317265 
L 473.563635 92.242623 
L 479.229368 89.827915 
L 484.895102 90.686323 
L 490.560835 97.734772 
L 496.226568 94.215436 
L 501.892302 88.822345 
L 507.558035 87.985237 
L 513.223769 99.257532 
L 518.889502 87.251669 
L 524.555235 92.976561 
L 530.220969 90.056767 
L 535.886702 86.746521 
L 541.552436 97.859076 
L 547.218169 90.134068 
L 552.883902 83.294902 
L 558.549636 89.670099 
L 564.215369 94.94748 
L 569.881103 93.417786 
L 575.546836 100.367434 
L 581.212569 84.143666 
L 586.878303 84.82211 
L 592.544036 88.779856 
L 598.20977 86.23774 
L 603.875503 88.517211 
L 609.541236 93.12844 
L 615.20697 92.483605 
L 620.872703 84.986498 
L 626.538437 96.172317 
" clip-path="url(#pa3fe708bdc)" style="fill: none; stroke: #008000; stroke-opacity: 0.2; stroke-linecap: round"/>
   </g>
   <g id="line2d_21">
    <path d="M 65.63083 309.624696 
L 71.296563 307.342814 
L 76.962297 322.783804 
L 82.62803 278.360433 
L 88.293764 296.753602 
L 93.959497 280.989946 
L 99.62523 321.815335 
L 105.290964 276.449535 
L 110.956697 320.33174 
L 116.622431 312.344999 
L 122.288164 284.951791 
L 127.953897 276.011529 
L 133.619631 281.02175 
L 139.285364 289.046161 
L 144.951098 281.473373 
L 150.616831 282.960729 
L 156.282564 277.074437 
L 161.948298 284.284974 
L 167.614031 279.163371 
L 173.279765 256.894336 
L 178.945498 251.294471 
L 184.611231 241.455016 
L 190.276965 232.150625 
L 195.942698 209.288896 
L 201.608432 178.413605 
L 207.274165 178.53607 
L 212.939898 124.193099 
L 218.605632 111.085433 
L 224.271365 133.409235 
L 229.937099 119.751219 
L 235.602832 127.700369 
L 241.268565 117.156638 
L 246.934299 111.561041 
L 252.600032 103.724483 
L 258.265766 100.530429 
L 263.931499 101.792718 
L 269.597232 110.201322 
L 275.262966 95.772343 
L 280.928699 100.86636 
L 286.594433 102.85823 
L 292.260166 107.494789 
L 297.925899 101.051376 
L 303.591633 102.245883 
L 309.257366 101.63241 
L 314.9231 99.439032 
L 320.588833 109.824588 
L 326.254566 102.434265 
L 331.9203 94.97789 
L 337.586033 93.082033 
L 343.251767 94.830473 
L 348.9175 90.369761 
L 354.583233 105.181626 
L 360.248967 96.903476 
L 365.9147 101.227341 
L 371.580434 97.750149 
L 377.246167 97.856499 
L 382.9119 85.191837 
L 388.577634 99.779406 
L 394.243367 89.38987 
L 399.909101 87.924683 
L 405.574834 95.471656 
L 411.240567 90.643781 
L 416.906301 86.019663 
L 422.572034 92.507176 
L 428.237768 91.114573 
L 433.903501 90.908246 
L 439.569234 88.07106 
L 445.234968 88.650019 
L 450.900701 87.147261 
L 456.566435 90.894107 
L 462.232168 95.632429 
L 467.897901 92.428841 
L 473.563635 90.326022 
L 479.229368 94.822651 
L 484.895102 91.524233 
L 490.560835 93.119091 
L 496.226568 89.644482 
L 501.892302 87.033499 
L 507.558035 95.192517 
L 513.223769 92.811614 
L 518.889502 93.511244 
L 524.555235 96.81946 
L 530.220969 85.174916 
L 535.886702 82.762561 
L 541.552436 84.276071 
L 547.218169 87.711435 
L 552.883902 96.289755 
L 558.549636 94.985028 
L 564.215369 86.71783 
L 569.881103 83.969259 
L 575.546836 90.457355 
L 581.212569 87.858276 
L 586.878303 93.168702 
L 592.544036 80.405996 
L 598.20977 86.820287 
L 603.875503 89.886588 
L 609.541236 88.731454 
L 615.20697 92.091377 
L 620.872703 89.039282 
L 626.538437 92.126562 
" clip-path="url(#pa3fe708bdc)" style="fill: none; stroke: #008000; stroke-opacity: 0.2; stroke-linecap: round"/>
   </g>
   <g id="line2d_22">
    <path d="M 65.63083 310.243112 
L 71.296563 298.766061 
L 76.962297 316.706012 
L 82.62803 291.650956 
L 88.293764 302.480282 
L 93.959497 315.816783 
L 99.62523 290.404452 
L 105.290964 284.381522 
L 110.956697 279.683301 
L 116.622431 282.029239 
L 122.288164 291.072836 
L 127.953897 284.101425 
L 133.619631 264.125778 
L 139.285364 266.540044 
L 144.951098 273.476707 
L 150.616831 258.038724 
L 156.282564 261.55071 
L 161.948298 264.318165 
L 167.614031 260.628131 
L 173.279765 249.716027 
L 178.945498 236.087322 
L 184.611231 243.795942 
L 190.276965 210.314049 
L 195.942698 193.350617 
L 201.608432 173.689379 
L 207.274165 170.426673 
L 212.939898 137.731246 
L 218.605632 130.872489 
L 224.271365 123.188943 
L 229.937099 134.378017 
L 235.602832 102.7344 
L 241.268565 116.078482 
L 246.934299 114.884522 
L 252.600032 113.126634 
L 258.265766 107.467156 
L 263.931499 99.006645 
L 269.597232 103.655335 
L 275.262966 109.115443 
L 280.928699 114.456307 
L 286.594433 108.29854 
L 292.260166 125.978206 
L 297.925899 109.757633 
L 303.591633 102.232648 
L 309.257366 108.872365 
L 314.9231 105.951463 
L 320.588833 102.940117 
L 326.254566 102.330453 
L 331.9203 96.284791 
L 337.586033 100.284004 
L 343.251767 105.501202 
L 348.9175 99.078748 
L 354.583233 96.625905 
L 360.248967 99.395143 
L 365.9147 89.223191 
L 371.580434 95.117974 
L 377.246167 106.058402 
L 382.9119 97.877536 
L 388.577634 103.417665 
L 394.243367 95.919223 
L 399.909101 98.843908 
L 405.574834 96.122066 
L 411.240567 93.124264 
L 416.906301 95.43354 
L 422.572034 95.995353 
L 428.237768 95.030411 
L 433.903501 91.447231 
L 439.569234 99.867015 
L 445.234968 87.549248 
L 450.900701 86.37441 
L 456.566435 106.385029 
L 462.232168 94.899928 
L 467.897901 87.776152 
L 473.563635 100.68333 
L 479.229368 96.838003 
L 484.895102 91.418689 
L 490.560835 100.511346 
L 496.226568 95.358438 
L 501.892302 97.608653 
L 507.558035 115.307061 
L 513.223769 104.114668 
L 518.889502 94.653151 
L 524.555235 90.931765 
L 530.220969 90.365231 
L 535.886702 92.009216 
L 541.552436 87.490692 
L 547.218169 90.02099 
L 552.883902 85.166822 
L 558.549636 94.232926 
L 564.215369 92.420526 
L 569.881103 93.769496 
L 575.546836 87.232857 
L 581.212569 91.944927 
L 586.878303 93.477354 
L 592.544036 89.770143 
L 598.20977 82.222851 
L 603.875503 88.418096 
L 609.541236 88.900048 
L 615.20697 85.115877 
L 620.872703 89.057598 
L 626.538437 90.123313 
" clip-path="url(#pa3fe708bdc)" style="fill: none; stroke: #008000; stroke-opacity: 0.2; stroke-linecap: round"/>
   </g>
   <g id="line2d_23">
    <path d="M 65.63083 317.805893 
L 71.296563 295.252563 
L 76.962297 282.348421 
L 82.62803 297.802008 
L 88.293764 288.759098 
L 93.959497 303.719266 
L 99.62523 300.317487 
L 105.290964 289.382179 
L 110.956697 308.559709 
L 116.622431 288.728757 
L 122.288164 306.203004 
L 127.953897 284.481112 
L 133.619631 288.363936 
L 139.285364 273.811545 
L 144.951098 278.33897 
L 150.616831 282.244946 
L 156.282564 268.646444 
L 161.948298 265.34713 
L 167.614031 271.421922 
L 173.279765 260.5983 
L 178.945498 263.881073 
L 184.611231 253.908648 
L 190.276965 250.914669 
L 195.942698 250.785808 
L 201.608432 259.557647 
L 207.274165 235.836038 
L 212.939898 226.946227 
L 218.605632 207.326874 
L 224.271365 211.061064 
L 229.937099 195.311872 
L 235.602832 177.089799 
L 241.268565 177.551488 
L 246.934299 129.929307 
L 252.600032 137.91381 
L 258.265766 126.491012 
L 263.931499 126.485882 
L 269.597232 107.873788 
L 275.262966 124.787107 
L 280.928699 105.089693 
L 286.594433 104.770163 
L 292.260166 122.452821 
L 297.925899 121.401448 
L 303.591633 131.87407 
L 309.257366 94.093455 
L 314.9231 112.342786 
L 320.588833 100.853062 
L 326.254566 99.728936 
L 331.9203 104.223098 
L 337.586033 115.436068 
L 343.251767 103.082896 
L 348.9175 96.890189 
L 354.583233 98.373238 
L 360.248967 111.765061 
L 365.9147 105.160557 
L 371.580434 104.535121 
L 377.246167 99.584101 
L 382.9119 96.183957 
L 388.577634 91.924864 
L 394.243367 95.86949 
L 399.909101 95.579596 
L 405.574834 94.569012 
L 411.240567 91.690199 
L 416.906301 97.105564 
L 422.572034 94.035946 
L 428.237768 95.518065 
L 433.903501 91.78728 
L 439.569234 100.064236 
L 445.234968 93.751391 
L 450.900701 87.629281 
L 456.566435 89.769253 
L 462.232168 101.6122 
L 467.897901 93.909303 
L 473.563635 91.511818 
L 479.229368 99.971823 
L 484.895102 98.924275 
L 490.560835 91.503868 
L 496.226568 91.511706 
L 501.892302 92.545862 
L 507.558035 96.660466 
L 513.223769 95.204613 
L 518.889502 97.482495 
L 524.555235 87.702411 
L 530.220969 90.758373 
L 535.886702 101.512983 
L 541.552436 94.375005 
L 547.218169 95.199548 
L 552.883902 92.850607 
L 558.549636 94.454041 
L 564.215369 92.639375 
L 569.881103 88.206772 
L 575.546836 95.412296 
L 581.212569 99.545227 
L 586.878303 99.165277 
L 592.544036 89.779314 
L 598.20977 86.984316 
L 603.875503 83.343549 
L 609.541236 89.072338 
L 615.20697 87.253993 
L 620.872703 91.413277 
L 626.538437 89.547006 
" clip-path="url(#pa3fe708bdc)" style="fill: none; stroke: #008000; stroke-opacity: 0.2; stroke-linecap: round"/>
   </g>
   <g id="line2d_24">
    <path d="M 65.63083 295.199366 
L 71.296563 296.07967 
L 76.962297 325.612287 
L 82.62803 334.855641 
L 88.293764 311.858673 
L 93.959497 288.702912 
L 99.62523 300.881531 
L 105.290964 299.84452 
L 110.956697 283.458175 
L 116.622431 290.92412 
L 122.288164 284.559223 
L 127.953897 270.813745 
L 133.619631 268.997048 
L 139.285364 256.936123 
L 144.951098 272.746241 
L 150.616831 249.907063 
L 156.282564 268.414284 
L 161.948298 249.217493 
L 167.614031 240.348769 
L 173.279765 234.430645 
L 178.945498 240.168832 
L 184.611231 225.886955 
L 190.276965 225.298492 
L 195.942698 224.657148 
L 201.608432 204.503239 
L 207.274165 203.726569 
L 212.939898 176.197886 
L 218.605632 186.992783 
L 224.271365 162.731624 
L 229.937099 144.04166 
L 235.602832 126.508626 
L 241.268565 142.937508 
L 246.934299 130.319947 
L 252.600032 123.289633 
L 258.265766 129.597347 
L 263.931499 137.02644 
L 269.597232 110.139272 
L 275.262966 109.3883 
L 280.928699 110.627547 
L 286.594433 111.986863 
L 292.260166 122.657896 
L 297.925899 102.202716 
L 303.591633 115.578849 
L 309.257366 116.142345 
L 314.9231 109.880441 
L 320.588833 101.13411 
L 326.254566 107.49714 
L 331.9203 120.353866 
L 337.586033 109.511641 
L 343.251767 105.955098 
L 348.9175 95.645641 
L 354.583233 116.285341 
L 360.248967 106.175249 
L 365.9147 101.136423 
L 371.580434 97.340474 
L 377.246167 103.923717 
L 382.9119 106.087722 
L 388.577634 101.857188 
L 394.243367 100.824439 
L 399.909101 94.758995 
L 405.574834 104.414324 
L 411.240567 101.030797 
L 416.906301 108.957149 
L 422.572034 101.377727 
L 428.237768 99.415102 
L 433.903501 97.268345 
L 439.569234 103.921657 
L 445.234968 102.414385 
L 450.900701 101.002988 
L 456.566435 95.644552 
L 462.232168 97.716482 
L 467.897901 90.317279 
L 473.563635 100.666788 
L 479.229368 99.081081 
L 484.895102 94.128281 
L 490.560835 89.74092 
L 496.226568 98.580805 
L 501.892302 151.023284 
L 507.558035 91.485248 
L 513.223769 93.249561 
L 518.889502 94.796648 
L 524.555235 87.426193 
L 530.220969 88.969766 
L 535.886702 101.70867 
L 541.552436 91.257817 
L 547.218169 97.107363 
L 552.883902 92.967889 
L 558.549636 97.75065 
L 564.215369 92.836116 
L 569.881103 91.150261 
L 575.546836 99.880143 
L 581.212569 86.634142 
L 586.878303 88.734472 
L 592.544036 91.434495 
L 598.20977 86.565509 
L 603.875503 104.425346 
L 609.541236 90.44739 
L 615.20697 83.981574 
L 620.872703 91.343953 
L 626.538437 95.082982 
" clip-path="url(#pa3fe708bdc)" style="fill: none; stroke: #008000; stroke-opacity: 0.2; stroke-linecap: round"/>
   </g>
   <g id="line2d_25">
    <path d="M 65.63083 57.0062 
L 71.296563 66.036027 
L 76.962297 81.174334 
L 82.62803 91.867956 
L 88.293764 106.42229 
L 93.959497 120.836147 
L 99.62523 124.980718 
L 105.290964 141.384365 
L 110.956697 132.48418 
L 116.622431 162.902178 
L 122.288164 161.452464 
L 127.953897 174.325664 
L 133.619631 183.251836 
L 139.285364 182.151332 
L 144.951098 188.591299 
L 150.616831 194.627962 
L 156.282564 216.907215 
L 161.948298 225.272036 
L 167.614031 226.92821 
L 173.279765 242.64551 
L 178.945498 247.93249 
L 184.611231 273.400411 
L 190.276965 301.340626 
L 195.942698 320.394249 
L 201.608432 327.585732 
L 207.274165 346.067293 
L 212.939898 346.434517 
L 218.605632 355.348736 
L 224.271365 369.087532 
L 229.937099 357.294172 
L 235.602832 362.046817 
L 241.268565 374.51022 
L 246.934299 372.532531 
L 252.600032 357.355346 
L 258.265766 353.749654 
L 263.931499 355.716035 
L 269.597232 344.065015 
L 275.262966 346.672296 
L 280.928699 345.842541 
L 286.594433 349.005864 
L 292.260166 365.190072 
L 297.925899 359.863282 
L 303.591633 374.821381 
L 309.257366 369.252822 
L 314.9231 372.15814 
L 320.588833 365.513934 
L 326.254566 368.298322 
L 331.9203 384.864835 
L 337.586033 375.359365 
L 343.251767 368.16366 
L 348.9175 362.035877 
L 354.583233 379.893493 
L 360.248967 373.919061 
L 365.9147 376.782142 
L 371.580434 381.357976 
L 377.246167 390.04 
L 382.9119 383.330463 
L 388.577634 373.281007 
L 394.243367 363.047396 
L 399.909101 347.300761 
L 405.574834 351.584934 
L 411.240567 337.765169 
L 416.906301 338.862496 
L 422.572034 338.846581 
L 428.237768 333.357306 
L 433.903501 330.557111 
L 439.569234 337.42451 
L 445.234968 326.160874 
L 450.900701 314.788727 
L 456.566435 314.599056 
L 462.232168 317.742702 
L 467.897901 293.886189 
L 473.563635 310.653142 
L 479.229368 296.265646 
L 484.895102 290.554348 
L 490.560835 285.137902 
L 496.226568 283.142839 
L 501.892302 292.443375 
L 507.558035 286.259694 
L 513.223769 288.275269 
L 518.889502 267.528613 
L 524.555235 261.294816 
L 530.220969 261.662819 
L 535.886702 270.639309 
L 541.552436 268.306723 
L 547.218169 265.335059 
L 552.883902 264.522161 
L 558.549636 265.08126 
L 564.215369 258.315967 
L 569.881103 253.465283 
L 575.546836 267.139708 
L 581.212569 254.211964 
L 586.878303 257.404103 
L 592.544036 244.947931 
L 598.20977 243.47661 
L 603.875503 252.125242 
L 609.541236 240.567928 
L 615.20697 237.434073 
L 620.872703 241.216731 
L 626.538437 242.023101 
" clip-path="url(#pa3fe708bdc)" style="fill: none; stroke: #800080; stroke-linecap: round"/>
   </g>
   <g id="patch_3">
    <path d="M 65.63 390.04 
L 65.63 57.0062 
" style="fill: none; stroke: #ffffff; stroke-width: 0.8; stroke-linejoin: miter; stroke-linecap: square"/>
   </g>
   <g id="patch_4">
    <path d="M 632.205 390.04 
L 632.205 57.0062 
" style="fill: none; stroke: #ffffff; stroke-width: 0.8; stroke-linejoin: miter; stroke-linecap: square"/>
   </g>
   <g id="patch_5">
    <path d="M 65.63 390.04 
L 632.205 390.04 
" style="fill: none; stroke: #ffffff; stroke-width: 0.8; stroke-linejoin: miter; stroke-linecap: square"/>
   </g>
   <g id="patch_6">
    <path d="M 65.63 57.0062 
L 632.205 57.0062 
" style="fill: none; stroke: #ffffff; stroke-width: 0.8; stroke-linejoin: miter; stroke-linecap: square"/>
   </g>
   <g id="legend_1">
    <g id="line2d_26">
     <path d="M 97.385341 41.274494 
L 105.715341 41.274494 
L 114.045341 41.274494 
" style="fill: none; stroke: #0000ff; stroke-width: 1.5; stroke-linecap: round"/>
    </g>
    <g id="text_22">
     <!-- Mean Reward -->
     <g style="fill: #262626" transform="translate(120.709341 44.189994) scale(0.0833 -0.0833)">
      <defs>
       <path id="DejaVuSans-4d" d="M 628 4666 
L 1569 4666 
L 2759 1491 
L 3956 4666 
L 4897 4666 
L 4897 0 
L 4281 0 
L 4281 4097 
L 3078 897 
L 2444 897 
L 1241 4097 
L 1241 0 
L 628 0 
L 628 4666 
z
" transform="scale(0.015625)"/>
       <path id="DejaVuSans-6e" d="M 3513 2113 
L 3513 0 
L 2938 0 
L 2938 2094 
Q 2938 2591 2744 2837 
Q 2550 3084 2163 3084 
Q 1697 3084 1428 2787 
Q 1159 2491 1159 1978 
L 1159 0 
L 581 0 
L 581 3500 
L 1159 3500 
L 1159 2956 
Q 1366 3272 1645 3428 
Q 1925 3584 2291 3584 
Q 2894 3584 3203 3211 
Q 3513 2838 3513 2113 
z
" transform="scale(0.015625)"/>
       <path id="DejaVuSans-20" transform="scale(0.015625)"/>
      </defs>
      <use xlink:href="#DejaVuSans-4d"/>
      <use xlink:href="#DejaVuSans-65" transform="translate(86.279297 0)"/>
      <use xlink:href="#DejaVuSans-61" transform="translate(147.802734 0)"/>
      <use xlink:href="#DejaVuSans-6e" transform="translate(209.082031 0)"/>
      <use xlink:href="#DejaVuSans-20" transform="translate(272.460938 0)"/>
      <use xlink:href="#DejaVuSans-52" transform="translate(304.248047 0)"/>
      <use xlink:href="#DejaVuSans-65" transform="translate(369.230469 0)"/>
      <use xlink:href="#DejaVuSans-77" transform="translate(430.753906 0)"/>
      <use xlink:href="#DejaVuSans-61" transform="translate(512.541016 0)"/>
      <use xlink:href="#DejaVuSans-72" transform="translate(573.820312 0)"/>
      <use xlink:href="#DejaVuSans-64" transform="translate(613.183594 0)"/>
     </g>
    </g>
    <g id="line2d_27">
     <path d="M 193.736108 41.274494 
L 202.066108 41.274494 
L 210.396108 41.274494 
" style="fill: none; stroke: #008000; stroke-opacity: 0.2; stroke-linecap: round"/>
    </g>
    <g id="text_23">
     <!-- Reward (individual runs) -->
     <g style="fill: #262626" transform="translate(217.060108 44.189994) scale(0.0833 -0.0833)">
      <defs>
       <path id="DejaVuSans-28" d="M 1984 4856 
Q 1566 4138 1362 3434 
Q 1159 2731 1159 2009 
Q 1159 1288 1364 580 
Q 1569 -128 1984 -844 
L 1484 -844 
Q 1016 -109 783 600 
Q 550 1309 550 2009 
Q 550 2706 781 3412 
Q 1013 4119 1484 4856 
L 1984 4856 
z
" transform="scale(0.015625)"/>
       <path id="DejaVuSans-69" d="M 603 3500 
L 1178 3500 
L 1178 0 
L 603 0 
L 603 3500 
z
M 603 4863 
L 1178 4863 
L 1178 4134 
L 603 4134 
L 603 4863 
z
" transform="scale(0.015625)"/>
       <path id="DejaVuSans-76" d="M 191 3500 
L 800 3500 
L 1894 563 
L 2988 3500 
L 3597 3500 
L 2284 0 
L 1503 0 
L 191 3500 
z
" transform="scale(0.015625)"/>
       <path id="DejaVuSans-75" d="M 544 1381 
L 544 3500 
L 1119 3500 
L 1119 1403 
Q 1119 906 1312 657 
Q 1506 409 1894 409 
Q 2359 409 2629 706 
Q 2900 1003 2900 1516 
L 2900 3500 
L 3475 3500 
L 3475 0 
L 2900 0 
L 2900 538 
Q 2691 219 2414 64 
Q 2138 -91 1772 -91 
Q 1169 -91 856 284 
Q 544 659 544 1381 
z
M 1991 3584 
L 1991 3584 
z
" transform="scale(0.015625)"/>
       <path id="DejaVuSans-6c" d="M 603 4863 
L 1178 4863 
L 1178 0 
L 603 0 
L 603 4863 
z
" transform="scale(0.015625)"/>
       <path id="DejaVuSans-29" d="M 513 4856 
L 1013 4856 
Q 1481 4119 1714 3412 
Q 1947 2706 1947 2009 
Q 1947 1309 1714 600 
Q 1481 -109 1013 -844 
L 513 -844 
Q 928 -128 1133 580 
Q 1338 1288 1338 2009 
Q 1338 2731 1133 3434 
Q 928 4138 513 4856 
z
" transform="scale(0.015625)"/>
      </defs>
      <use xlink:href="#DejaVuSans-52"/>
      <use xlink:href="#DejaVuSans-65" transform="translate(64.982422 0)"/>
      <use xlink:href="#DejaVuSans-77" transform="translate(126.505859 0)"/>
      <use xlink:href="#DejaVuSans-61" transform="translate(208.292969 0)"/>
      <use xlink:href="#DejaVuSans-72" transform="translate(269.572266 0)"/>
      <use xlink:href="#DejaVuSans-64" transform="translate(308.935547 0)"/>
      <use xlink:href="#DejaVuSans-20" transform="translate(372.412109 0)"/>
      <use xlink:href="#DejaVuSans-28" transform="translate(404.199219 0)"/>
      <use xlink:href="#DejaVuSans-69" transform="translate(443.212891 0)"/>
      <use xlink:href="#DejaVuSans-6e" transform="translate(470.996094 0)"/>
      <use xlink:href="#DejaVuSans-64" transform="translate(534.375 0)"/>
      <use xlink:href="#DejaVuSans-69" transform="translate(597.851562 0)"/>
      <use xlink:href="#DejaVuSans-76" transform="translate(625.634766 0)"/>
      <use xlink:href="#DejaVuSans-69" transform="translate(684.814453 0)"/>
      <use xlink:href="#DejaVuSans-64" transform="translate(712.597656 0)"/>
      <use xlink:href="#DejaVuSans-75" transform="translate(776.074219 0)"/>
      <use xlink:href="#DejaVuSans-61" transform="translate(839.453125 0)"/>
      <use xlink:href="#DejaVuSans-6c" transform="translate(900.732422 0)"/>
      <use xlink:href="#DejaVuSans-20" transform="translate(928.515625 0)"/>
      <use xlink:href="#DejaVuSans-72" transform="translate(960.302734 0)"/>
      <use xlink:href="#DejaVuSans-75" transform="translate(1001.416016 0)"/>
      <use xlink:href="#DejaVuSans-6e" transform="translate(1064.794922 0)"/>
      <use xlink:href="#DejaVuSans-73" transform="translate(1128.173828 0)"/>
      <use xlink:href="#DejaVuSans-29" transform="translate(1180.273438 0)"/>
     </g>
    </g>
    <g id="line2d_28">
     <path d="M 335.286236 41.274494 
L 343.616236 41.274494 
L 351.946236 41.274494 
" style="fill: none; stroke: #800080; stroke-linecap: round"/>
    </g>
    <g id="text_24">
     <!-- Entropy (normalized) -->
     <g style="fill: #262626" transform="translate(358.610236 44.189994) scale(0.0833 -0.0833)">
      <defs>
       <path id="DejaVuSans-45" d="M 628 4666 
L 3578 4666 
L 3578 4134 
L 1259 4134 
L 1259 2753 
L 3481 2753 
L 3481 2222 
L 1259 2222 
L 1259 531 
L 3634 531 
L 3634 0 
L 628 0 
L 628 4666 
z
" transform="scale(0.015625)"/>
       <path id="DejaVuSans-6f" d="M 1959 3097 
Q 1497 3097 1228 2736 
Q 959 2375 959 1747 
Q 959 1119 1226 758 
Q 1494 397 1959 397 
Q 2419 397 2687 759 
Q 2956 1122 2956 1747 
Q 2956 2369 2687 2733 
Q 2419 3097 1959 3097 
z
M 1959 3584 
Q 2709 3584 3137 3096 
Q 3566 2609 3566 1747 
Q 3566 888 3137 398 
Q 2709 -91 1959 -91 
Q 1206 -91 779 398 
Q 353 888 353 1747 
Q 353 2609 779 3096 
Q 1206 3584 1959 3584 
z
" transform="scale(0.015625)"/>
       <path id="DejaVuSans-79" d="M 2059 -325 
Q 1816 -950 1584 -1140 
Q 1353 -1331 966 -1331 
L 506 -1331 
L 506 -850 
L 844 -850 
Q 1081 -850 1212 -737 
Q 1344 -625 1503 -206 
L 1606 56 
L 191 3500 
L 800 3500 
L 1894 763 
L 2988 3500 
L 3597 3500 
L 2059 -325 
z
" transform="scale(0.015625)"/>
       <path id="DejaVuSans-6d" d="M 3328 2828 
Q 3544 3216 3844 3400 
Q 4144 3584 4550 3584 
Q 5097 3584 5394 3201 
Q 5691 2819 5691 2113 
L 5691 0 
L 5113 0 
L 5113 2094 
Q 5113 2597 4934 2840 
Q 4756 3084 4391 3084 
Q 3944 3084 3684 2787 
Q 3425 2491 3425 1978 
L 3425 0 
L 2847 0 
L 2847 2094 
Q 2847 2600 2669 2842 
Q 2491 3084 2119 3084 
Q 1678 3084 1418 2786 
Q 1159 2488 1159 1978 
L 1159 0 
L 581 0 
L 581 3500 
L 1159 3500 
L 1159 2956 
Q 1356 3278 1631 3431 
Q 1906 3584 2284 3584 
Q 2666 3584 2933 3390 
Q 3200 3197 3328 2828 
z
" transform="scale(0.015625)"/>
       <path id="DejaVuSans-7a" d="M 353 3500 
L 3084 3500 
L 3084 2975 
L 922 459 
L 3084 459 
L 3084 0 
L 275 0 
L 275 525 
L 2438 3041 
L 353 3041 
L 353 3500 
z
" transform="scale(0.015625)"/>
      </defs>
      <use xlink:href="#DejaVuSans-45"/>
      <use xlink:href="#DejaVuSans-6e" transform="translate(63.183594 0)"/>
      <use xlink:href="#DejaVuSans-74" transform="translate(126.5625 0)"/>
      <use xlink:href="#DejaVuSans-72" transform="translate(165.771484 0)"/>
      <use xlink:href="#DejaVuSans-6f" transform="translate(204.634766 0)"/>
      <use xlink:href="#DejaVuSans-70" transform="translate(265.816406 0)"/>
      <use xlink:href="#DejaVuSans-79" transform="translate(329.292969 0)"/>
      <use xlink:href="#DejaVuSans-20" transform="translate(388.472656 0)"/>
      <use xlink:href="#DejaVuSans-28" transform="translate(420.259766 0)"/>
      <use xlink:href="#DejaVuSans-6e" transform="translate(459.273438 0)"/>
      <use xlink:href="#DejaVuSans-6f" transform="translate(522.652344 0)"/>
      <use xlink:href="#DejaVuSans-72" transform="translate(583.833984 0)"/>
      <use xlink:href="#DejaVuSans-6d" transform="translate(623.197266 0)"/>
      <use xlink:href="#DejaVuSans-61" transform="translate(720.609375 0)"/>
      <use xlink:href="#DejaVuSans-6c" transform="translate(781.888672 0)"/>
      <use xlink:href="#DejaVuSans-69" transform="translate(809.671875 0)"/>
      <use xlink:href="#DejaVuSans-7a" transform="translate(837.455078 0)"/>
      <use xlink:href="#DejaVuSans-65" transform="translate(889.945312 0)"/>
      <use xlink:href="#DejaVuSans-64" transform="translate(951.46875 0)"/>
      <use xlink:href="#DejaVuSans-29" transform="translate(1014.945312 0)"/>
     </g>
    </g>
    <g id="patch_7">
     <path d="M 463.065833 44.189994 
L 479.725833 44.189994 
L 479.725833 38.358994 
L 463.065833 38.358994 
z
" style="fill: #0000ff; fill-opacity: 0.1"/>
    </g>
    <g id="text_25">
     <!-- Reward Standard Deviation -->
     <g style="fill: #262626" transform="translate(486.389833 44.189994) scale(0.0833 -0.0833)">
      <defs>
       <path id="DejaVuSans-44" d="M 1259 4147 
L 1259 519 
L 2022 519 
Q 2988 519 3436 956 
Q 3884 1394 3884 2338 
Q 3884 3275 3436 3711 
Q 2988 4147 2022 4147 
L 1259 4147 
z
M 628 4666 
L 1925 4666 
Q 3281 4666 3915 4102 
Q 4550 3538 4550 2338 
Q 4550 1131 3912 565 
Q 3275 0 1925 0 
L 628 0 
L 628 4666 
z
" transform="scale(0.015625)"/>
      </defs>
      <use xlink:href="#DejaVuSans-52"/>
      <use xlink:href="#DejaVuSans-65" transform="translate(64.982422 0)"/>
      <use xlink:href="#DejaVuSans-77" transform="translate(126.505859 0)"/>
      <use xlink:href="#DejaVuSans-61" transform="translate(208.292969 0)"/>
      <use xlink:href="#DejaVuSans-72" transform="translate(269.572266 0)"/>
      <use xlink:href="#DejaVuSans-64" transform="translate(308.935547 0)"/>
      <use xlink:href="#DejaVuSans-20" transform="translate(372.412109 0)"/>
      <use xlink:href="#DejaVuSans-53" transform="translate(404.199219 0)"/>
      <use xlink:href="#DejaVuSans-74" transform="translate(467.675781 0)"/>
      <use xlink:href="#DejaVuSans-61" transform="translate(506.884766 0)"/>
      <use xlink:href="#DejaVuSans-6e" transform="translate(568.164062 0)"/>
      <use xlink:href="#DejaVuSans-64" transform="translate(631.542969 0)"/>
      <use xlink:href="#DejaVuSans-61" transform="translate(695.019531 0)"/>
      <use xlink:href="#DejaVuSans-72" transform="translate(756.298828 0)"/>
      <use xlink:href="#DejaVuSans-64" transform="translate(795.662109 0)"/>
      <use xlink:href="#DejaVuSans-20" transform="translate(859.138672 0)"/>
      <use xlink:href="#DejaVuSans-44" transform="translate(890.925781 0)"/>
      <use xlink:href="#DejaVuSans-65" transform="translate(967.927734 0)"/>
      <use xlink:href="#DejaVuSans-76" transform="translate(1029.451172 0)"/>
      <use xlink:href="#DejaVuSans-69" transform="translate(1088.630859 0)"/>
      <use xlink:href="#DejaVuSans-61" transform="translate(1116.414062 0)"/>
      <use xlink:href="#DejaVuSans-74" transform="translate(1177.693359 0)"/>
      <use xlink:href="#DejaVuSans-69" transform="translate(1216.902344 0)"/>
      <use xlink:href="#DejaVuSans-6f" transform="translate(1244.685547 0)"/>
      <use xlink:href="#DejaVuSans-6e" transform="translate(1305.867188 0)"/>
     </g>
    </g>
   </g>
  </g>
  <g id="text_26">
   <!-- Rewards: Pendulum-v1 (Discretized) - Logits (Baseline) (Noise + Entropy) -->
   <g style="fill: #262626" transform="translate(74.558437 17.758125) scale(0.12 -0.12)">
    <defs>
     <path id="DejaVuSans-Bold-52" d="M 2297 2597 
Q 2675 2597 2839 2737 
Q 3003 2878 3003 3200 
Q 3003 3519 2839 3656 
Q 2675 3794 2297 3794 
L 1791 3794 
L 1791 2597 
L 2297 2597 
z
M 1791 1766 
L 1791 0 
L 588 0 
L 588 4666 
L 2425 4666 
Q 3347 4666 3776 4356 
Q 4206 4047 4206 3378 
Q 4206 2916 3982 2619 
Q 3759 2322 3309 2181 
Q 3556 2125 3751 1926 
Q 3947 1728 4147 1325 
L 4800 0 
L 3519 0 
L 2950 1159 
Q 2778 1509 2601 1637 
Q 2425 1766 2131 1766 
L 1791 1766 
z
" transform="scale(0.015625)"/>
     <path id="DejaVuSans-Bold-65" d="M 4031 1759 
L 4031 1441 
L 1416 1441 
Q 1456 1047 1700 850 
Q 1944 653 2381 653 
Q 2734 653 3104 758 
Q 3475 863 3866 1075 
L 3866 213 
Q 3469 63 3072 -14 
Q 2675 -91 2278 -91 
Q 1328 -91 801 392 
Q 275 875 275 1747 
Q 275 2603 792 3093 
Q 1309 3584 2216 3584 
Q 3041 3584 3536 3087 
Q 4031 2591 4031 1759 
z
M 2881 2131 
Q 2881 2450 2695 2645 
Q 2509 2841 2209 2841 
Q 1884 2841 1681 2658 
Q 1478 2475 1428 2131 
L 2881 2131 
z
" transform="scale(0.015625)"/>
     <path id="DejaVuSans-Bold-77" d="M 225 3500 
L 1313 3500 
L 1900 1088 
L 2491 3500 
L 3425 3500 
L 4013 1113 
L 4603 3500 
L 5691 3500 
L 4769 0 
L 3547 0 
L 2956 2406 
L 2369 0 
L 1147 0 
L 225 3500 
z
" transform="scale(0.015625)"/>
     <path id="DejaVuSans-Bold-61" d="M 2106 1575 
Q 1756 1575 1579 1456 
Q 1403 1338 1403 1106 
Q 1403 894 1545 773 
Q 1688 653 1941 653 
Q 2256 653 2472 879 
Q 2688 1106 2688 1447 
L 2688 1575 
L 2106 1575 
z
M 3816 1997 
L 3816 0 
L 2688 0 
L 2688 519 
Q 2463 200 2181 54 
Q 1900 -91 1497 -91 
Q 953 -91 614 226 
Q 275 544 275 1050 
Q 275 1666 698 1953 
Q 1122 2241 2028 2241 
L 2688 2241 
L 2688 2328 
Q 2688 2594 2478 2717 
Q 2269 2841 1825 2841 
Q 1466 2841 1156 2769 
Q 847 2697 581 2553 
L 581 3406 
Q 941 3494 1303 3539 
Q 1666 3584 2028 3584 
Q 2975 3584 3395 3211 
Q 3816 2838 3816 1997 
z
" transform="scale(0.015625)"/>
     <path id="DejaVuSans-Bold-72" d="M 3138 2547 
Q 2991 2616 2845 2648 
Q 2700 2681 2553 2681 
Q 2122 2681 1889 2404 
Q 1656 2128 1656 1613 
L 1656 0 
L 538 0 
L 538 3500 
L 1656 3500 
L 1656 2925 
Q 1872 3269 2151 3426 
Q 2431 3584 2822 3584 
Q 2878 3584 2943 3579 
Q 3009 3575 3134 3559 
L 3138 2547 
z
" transform="scale(0.015625)"/>
     <path id="DejaVuSans-Bold-64" d="M 2919 2988 
L 2919 4863 
L 4044 4863 
L 4044 0 
L 2919 0 
L 2919 506 
Q 2688 197 2409 53 
Q 2131 -91 1766 -91 
Q 1119 -91 703 423 
Q 288 938 288 1747 
Q 288 2556 703 3070 
Q 1119 3584 1766 3584 
Q 2128 3584 2408 3439 
Q 2688 3294 2919 2988 
z
M 2181 722 
Q 2541 722 2730 984 
Q 2919 1247 2919 1747 
Q 2919 2247 2730 2509 
Q 2541 2772 2181 2772 
Q 1825 2772 1636 2509 
Q 1447 2247 1447 1747 
Q 1447 1247 1636 984 
Q 1825 722 2181 722 
z
" transform="scale(0.015625)"/>
     <path id="DejaVuSans-Bold-73" d="M 3272 3391 
L 3272 2541 
Q 2913 2691 2578 2766 
Q 2244 2841 1947 2841 
Q 1628 2841 1473 2761 
Q 1319 2681 1319 2516 
Q 1319 2381 1436 2309 
Q 1553 2238 1856 2203 
L 2053 2175 
Q 2913 2066 3209 1816 
Q 3506 1566 3506 1031 
Q 3506 472 3093 190 
Q 2681 -91 1863 -91 
Q 1516 -91 1145 -36 
Q 775 19 384 128 
L 384 978 
Q 719 816 1070 734 
Q 1422 653 1784 653 
Q 2113 653 2278 743 
Q 2444 834 2444 1013 
Q 2444 1163 2330 1236 
Q 2216 1309 1875 1350 
L 1678 1375 
Q 931 1469 631 1722 
Q 331 1975 331 2491 
Q 331 3047 712 3315 
Q 1094 3584 1881 3584 
Q 2191 3584 2531 3537 
Q 2872 3491 3272 3391 
z
" transform="scale(0.015625)"/>
     <path id="DejaVuSans-Bold-3a" d="M 716 3500 
L 1844 3500 
L 1844 2291 
L 716 2291 
L 716 3500 
z
M 716 1209 
L 1844 1209 
L 1844 0 
L 716 0 
L 716 1209 
z
" transform="scale(0.015625)"/>
     <path id="DejaVuSans-Bold-20" transform="scale(0.015625)"/>
     <path id="DejaVuSans-Bold-50" d="M 588 4666 
L 2584 4666 
Q 3475 4666 3951 4270 
Q 4428 3875 4428 3144 
Q 4428 2409 3951 2014 
Q 3475 1619 2584 1619 
L 1791 1619 
L 1791 0 
L 588 0 
L 588 4666 
z
M 1791 3794 
L 1791 2491 
L 2456 2491 
Q 2806 2491 2997 2661 
Q 3188 2831 3188 3144 
Q 3188 3456 2997 3625 
Q 2806 3794 2456 3794 
L 1791 3794 
z
" transform="scale(0.015625)"/>
     <path id="DejaVuSans-Bold-6e" d="M 4056 2131 
L 4056 0 
L 2931 0 
L 2931 347 
L 2931 1631 
Q 2931 2084 2911 2256 
Q 2891 2428 2841 2509 
Q 2775 2619 2662 2680 
Q 2550 2741 2406 2741 
Q 2056 2741 1856 2470 
Q 1656 2200 1656 1722 
L 1656 0 
L 538 0 
L 538 3500 
L 1656 3500 
L 1656 2988 
Q 1909 3294 2193 3439 
Q 2478 3584 2822 3584 
Q 3428 3584 3742 3212 
Q 4056 2841 4056 2131 
z
" transform="scale(0.015625)"/>
     <path id="DejaVuSans-Bold-75" d="M 500 1363 
L 500 3500 
L 1625 3500 
L 1625 3150 
Q 1625 2866 1622 2436 
Q 1619 2006 1619 1863 
Q 1619 1441 1641 1255 
Q 1663 1069 1716 984 
Q 1784 875 1895 815 
Q 2006 756 2150 756 
Q 2500 756 2700 1025 
Q 2900 1294 2900 1772 
L 2900 3500 
L 4019 3500 
L 4019 0 
L 2900 0 
L 2900 506 
Q 2647 200 2364 54 
Q 2081 -91 1741 -91 
Q 1134 -91 817 281 
Q 500 653 500 1363 
z
" transform="scale(0.015625)"/>
     <path id="DejaVuSans-Bold-6c" d="M 538 4863 
L 1656 4863 
L 1656 0 
L 538 0 
L 538 4863 
z
" transform="scale(0.015625)"/>
     <path id="DejaVuSans-Bold-6d" d="M 3781 2919 
Q 3994 3244 4286 3414 
Q 4578 3584 4928 3584 
Q 5531 3584 5847 3212 
Q 6163 2841 6163 2131 
L 6163 0 
L 5038 0 
L 5038 1825 
Q 5041 1866 5042 1909 
Q 5044 1953 5044 2034 
Q 5044 2406 4934 2573 
Q 4825 2741 4581 2741 
Q 4263 2741 4089 2478 
Q 3916 2216 3909 1719 
L 3909 0 
L 2784 0 
L 2784 1825 
Q 2784 2406 2684 2573 
Q 2584 2741 2328 2741 
Q 2006 2741 1831 2477 
Q 1656 2213 1656 1722 
L 1656 0 
L 531 0 
L 531 3500 
L 1656 3500 
L 1656 2988 
Q 1863 3284 2130 3434 
Q 2397 3584 2719 3584 
Q 3081 3584 3359 3409 
Q 3638 3234 3781 2919 
z
" transform="scale(0.015625)"/>
     <path id="DejaVuSans-Bold-2d" d="M 347 2297 
L 2309 2297 
L 2309 1388 
L 347 1388 
L 347 2297 
z
" transform="scale(0.015625)"/>
     <path id="DejaVuSans-Bold-76" d="M 97 3500 
L 1216 3500 
L 2088 1081 
L 2956 3500 
L 4078 3500 
L 2700 0 
L 1472 0 
L 97 3500 
z
" transform="scale(0.015625)"/>
     <path id="DejaVuSans-Bold-31" d="M 750 831 
L 1813 831 
L 1813 3847 
L 722 3622 
L 722 4441 
L 1806 4666 
L 2950 4666 
L 2950 831 
L 4013 831 
L 4013 0 
L 750 0 
L 750 831 
z
" transform="scale(0.015625)"/>
     <path id="DejaVuSans-Bold-28" d="M 2413 -844 
L 1484 -844 
Q 1006 -72 778 623 
Q 550 1319 550 2003 
Q 550 2688 779 3389 
Q 1009 4091 1484 4856 
L 2413 4856 
Q 2013 4116 1813 3408 
Q 1613 2700 1613 2009 
Q 1613 1319 1811 609 
Q 2009 -100 2413 -844 
z
" transform="scale(0.015625)"/>
     <path id="DejaVuSans-Bold-44" d="M 1791 3756 
L 1791 909 
L 2222 909 
Q 2959 909 3348 1275 
Q 3738 1641 3738 2338 
Q 3738 3031 3350 3393 
Q 2963 3756 2222 3756 
L 1791 3756 
z
M 588 4666 
L 1856 4666 
Q 2919 4666 3439 4514 
Q 3959 4363 4331 4000 
Q 4659 3684 4818 3271 
Q 4978 2859 4978 2338 
Q 4978 1809 4818 1395 
Q 4659 981 4331 666 
Q 3956 303 3431 151 
Q 2906 0 1856 0 
L 588 0 
L 588 4666 
z
" transform="scale(0.015625)"/>
     <path id="DejaVuSans-Bold-69" d="M 538 3500 
L 1656 3500 
L 1656 0 
L 538 0 
L 538 3500 
z
M 538 4863 
L 1656 4863 
L 1656 3950 
L 538 3950 
L 538 4863 
z
" transform="scale(0.015625)"/>
     <path id="DejaVuSans-Bold-63" d="M 3366 3391 
L 3366 2478 
Q 3138 2634 2908 2709 
Q 2678 2784 2431 2784 
Q 1963 2784 1702 2511 
Q 1441 2238 1441 1747 
Q 1441 1256 1702 982 
Q 1963 709 2431 709 
Q 2694 709 2930 787 
Q 3166 866 3366 1019 
L 3366 103 
Q 3103 6 2833 -42 
Q 2563 -91 2291 -91 
Q 1344 -91 809 395 
Q 275 881 275 1747 
Q 275 2613 809 3098 
Q 1344 3584 2291 3584 
Q 2566 3584 2833 3536 
Q 3100 3488 3366 3391 
z
" transform="scale(0.015625)"/>
     <path id="DejaVuSans-Bold-74" d="M 1759 4494 
L 1759 3500 
L 2913 3500 
L 2913 2700 
L 1759 2700 
L 1759 1216 
Q 1759 972 1856 886 
Q 1953 800 2241 800 
L 2816 800 
L 2816 0 
L 1856 0 
Q 1194 0 917 276 
Q 641 553 641 1216 
L 641 2700 
L 84 2700 
L 84 3500 
L 641 3500 
L 641 4494 
L 1759 4494 
z
" transform="scale(0.015625)"/>
     <path id="DejaVuSans-Bold-7a" d="M 366 3500 
L 3419 3500 
L 3419 2719 
L 1575 800 
L 3419 800 
L 3419 0 
L 288 0 
L 288 781 
L 2131 2700 
L 366 2700 
L 366 3500 
z
" transform="scale(0.015625)"/>
     <path id="DejaVuSans-Bold-29" d="M 513 -844 
Q 913 -100 1113 609 
Q 1313 1319 1313 2009 
Q 1313 2700 1113 3408 
Q 913 4116 513 4856 
L 1441 4856 
Q 1916 4091 2145 3389 
Q 2375 2688 2375 2003 
Q 2375 1319 2147 623 
Q 1919 -72 1441 -844 
L 513 -844 
z
" transform="scale(0.015625)"/>
     <path id="DejaVuSans-Bold-4c" d="M 588 4666 
L 1791 4666 
L 1791 909 
L 3903 909 
L 3903 0 
L 588 0 
L 588 4666 
z
" transform="scale(0.015625)"/>
     <path id="DejaVuSans-Bold-6f" d="M 2203 2784 
Q 1831 2784 1636 2517 
Q 1441 2250 1441 1747 
Q 1441 1244 1636 976 
Q 1831 709 2203 709 
Q 2569 709 2762 976 
Q 2956 1244 2956 1747 
Q 2956 2250 2762 2517 
Q 2569 2784 2203 2784 
z
M 2203 3584 
Q 3106 3584 3614 3096 
Q 4122 2609 4122 1747 
Q 4122 884 3614 396 
Q 3106 -91 2203 -91 
Q 1297 -91 786 396 
Q 275 884 275 1747 
Q 275 2609 786 3096 
Q 1297 3584 2203 3584 
z
" transform="scale(0.015625)"/>
     <path id="DejaVuSans-Bold-67" d="M 2919 594 
Q 2688 288 2409 144 
Q 2131 0 1766 0 
Q 1125 0 706 504 
Q 288 1009 288 1791 
Q 288 2575 706 3076 
Q 1125 3578 1766 3578 
Q 2131 3578 2409 3434 
Q 2688 3291 2919 2981 
L 2919 3500 
L 4044 3500 
L 4044 353 
Q 4044 -491 3511 -936 
Q 2978 -1381 1966 -1381 
Q 1638 -1381 1331 -1331 
Q 1025 -1281 716 -1178 
L 716 -306 
Q 1009 -475 1290 -558 
Q 1572 -641 1856 -641 
Q 2406 -641 2662 -400 
Q 2919 -159 2919 353 
L 2919 594 
z
M 2181 2772 
Q 1834 2772 1640 2515 
Q 1447 2259 1447 1791 
Q 1447 1309 1634 1061 
Q 1822 813 2181 813 
Q 2531 813 2725 1069 
Q 2919 1325 2919 1791 
Q 2919 2259 2725 2515 
Q 2531 2772 2181 2772 
z
" transform="scale(0.015625)"/>
     <path id="DejaVuSans-Bold-42" d="M 2456 2859 
Q 2741 2859 2887 2984 
Q 3034 3109 3034 3353 
Q 3034 3594 2887 3720 
Q 2741 3847 2456 3847 
L 1791 3847 
L 1791 2859 
L 2456 2859 
z
M 2497 819 
Q 2859 819 3042 972 
Q 3225 1125 3225 1434 
Q 3225 1738 3044 1889 
Q 2863 2041 2497 2041 
L 1791 2041 
L 1791 819 
L 2497 819 
z
M 3616 2497 
Q 4003 2384 4215 2081 
Q 4428 1778 4428 1338 
Q 4428 663 3972 331 
Q 3516 0 2584 0 
L 588 0 
L 588 4666 
L 2394 4666 
Q 3366 4666 3802 4372 
Q 4238 4078 4238 3431 
Q 4238 3091 4078 2852 
Q 3919 2613 3616 2497 
z
" transform="scale(0.015625)"/>
     <path id="DejaVuSans-Bold-4e" d="M 588 4666 
L 1931 4666 
L 3628 1466 
L 3628 4666 
L 4769 4666 
L 4769 0 
L 3425 0 
L 1728 3200 
L 1728 0 
L 588 0 
L 588 4666 
z
" transform="scale(0.015625)"/>
     <path id="DejaVuSans-Bold-2b" d="M 3053 4013 
L 3053 2375 
L 4684 2375 
L 4684 1638 
L 3053 1638 
L 3053 0 
L 2309 0 
L 2309 1638 
L 678 1638 
L 678 2375 
L 2309 2375 
L 2309 4013 
L 3053 4013 
z
" transform="scale(0.015625)"/>
     <path id="DejaVuSans-Bold-45" d="M 588 4666 
L 3834 4666 
L 3834 3756 
L 1791 3756 
L 1791 2888 
L 3713 2888 
L 3713 1978 
L 1791 1978 
L 1791 909 
L 3903 909 
L 3903 0 
L 588 0 
L 588 4666 
z
" transform="scale(0.015625)"/>
     <path id="DejaVuSans-Bold-70" d="M 1656 506 
L 1656 -1331 
L 538 -1331 
L 538 3500 
L 1656 3500 
L 1656 2988 
Q 1888 3294 2169 3439 
Q 2450 3584 2816 3584 
Q 3463 3584 3878 3070 
Q 4294 2556 4294 1747 
Q 4294 938 3878 423 
Q 3463 -91 2816 -91 
Q 2450 -91 2169 54 
Q 1888 200 1656 506 
z
M 2400 2772 
Q 2041 2772 1848 2508 
Q 1656 2244 1656 1747 
Q 1656 1250 1848 986 
Q 2041 722 2400 722 
Q 2759 722 2948 984 
Q 3138 1247 3138 1747 
Q 3138 2247 2948 2509 
Q 2759 2772 2400 2772 
z
" transform="scale(0.015625)"/>
     <path id="DejaVuSans-Bold-79" d="M 78 3500 
L 1197 3500 
L 2138 1125 
L 2938 3500 
L 4056 3500 
L 2584 -331 
Q 2363 -916 2067 -1148 
Q 1772 -1381 1288 -1381 
L 641 -1381 
L 641 -647 
L 991 -647 
Q 1275 -647 1404 -556 
Q 1534 -466 1606 -231 
L 1638 -134 
L 78 3500 
z
" transform="scale(0.015625)"/>
    </defs>
    <use xlink:href="#DejaVuSans-Bold-52"/>
    <use xlink:href="#DejaVuSans-Bold-65" transform="translate(77.001953 0)"/>
    <use xlink:href="#DejaVuSans-Bold-77" transform="translate(144.824219 0)"/>
    <use xlink:href="#DejaVuSans-Bold-61" transform="translate(237.207031 0)"/>
    <use xlink:href="#DejaVuSans-Bold-72" transform="translate(304.6875 0)"/>
    <use xlink:href="#DejaVuSans-Bold-64" transform="translate(354.003906 0)"/>
    <use xlink:href="#DejaVuSans-Bold-73" transform="translate(425.585938 0)"/>
    <use xlink:href="#DejaVuSans-Bold-3a" transform="translate(485.107422 0)"/>
    <use xlink:href="#DejaVuSans-Bold-20" transform="translate(525.097656 0)"/>
    <use xlink:href="#DejaVuSans-Bold-50" transform="translate(559.912109 0)"/>
    <use xlink:href="#DejaVuSans-Bold-65" transform="translate(633.203125 0)"/>
    <use xlink:href="#DejaVuSans-Bold-6e" transform="translate(701.025391 0)"/>
    <use xlink:href="#DejaVuSans-Bold-64" transform="translate(772.216797 0)"/>
    <use xlink:href="#DejaVuSans-Bold-75" transform="translate(843.798828 0)"/>
    <use xlink:href="#DejaVuSans-Bold-6c" transform="translate(914.990234 0)"/>
    <use xlink:href="#DejaVuSans-Bold-75" transform="translate(949.267578 0)"/>
    <use xlink:href="#DejaVuSans-Bold-6d" transform="translate(1020.458984 0)"/>
    <use xlink:href="#DejaVuSans-Bold-2d" transform="translate(1124.658203 0)"/>
    <use xlink:href="#DejaVuSans-Bold-76" transform="translate(1166.162109 0)"/>
    <use xlink:href="#DejaVuSans-Bold-31" transform="translate(1231.347656 0)"/>
    <use xlink:href="#DejaVuSans-Bold-20" transform="translate(1300.927734 0)"/>
    <use xlink:href="#DejaVuSans-Bold-28" transform="translate(1335.742188 0)"/>
    <use xlink:href="#DejaVuSans-Bold-44" transform="translate(1381.445312 0)"/>
    <use xlink:href="#DejaVuSans-Bold-69" transform="translate(1464.453125 0)"/>
    <use xlink:href="#DejaVuSans-Bold-73" transform="translate(1498.730469 0)"/>
    <use xlink:href="#DejaVuSans-Bold-63" transform="translate(1558.251953 0)"/>
    <use xlink:href="#DejaVuSans-Bold-72" transform="translate(1617.529297 0)"/>
    <use xlink:href="#DejaVuSans-Bold-65" transform="translate(1666.845703 0)"/>
    <use xlink:href="#DejaVuSans-Bold-74" transform="translate(1734.667969 0)"/>
    <use xlink:href="#DejaVuSans-Bold-69" transform="translate(1782.470703 0)"/>
    <use xlink:href="#DejaVuSans-Bold-7a" transform="translate(1816.748047 0)"/>
    <use xlink:href="#DejaVuSans-Bold-65" transform="translate(1874.951172 0)"/>
    <use xlink:href="#DejaVuSans-Bold-64" transform="translate(1942.773438 0)"/>
    <use xlink:href="#DejaVuSans-Bold-29" transform="translate(2014.355469 0)"/>
    <use xlink:href="#DejaVuSans-Bold-20" transform="translate(2060.058594 0)"/>
    <use xlink:href="#DejaVuSans-Bold-2d" transform="translate(2094.873047 0)"/>
    <use xlink:href="#DejaVuSans-Bold-20" transform="translate(2136.376953 0)"/>
    <use xlink:href="#DejaVuSans-Bold-4c" transform="translate(2171.191406 0)"/>
    <use xlink:href="#DejaVuSans-Bold-6f" transform="translate(2234.912109 0)"/>
    <use xlink:href="#DejaVuSans-Bold-67" transform="translate(2303.613281 0)"/>
    <use xlink:href="#DejaVuSans-Bold-69" transform="translate(2375.195312 0)"/>
    <use xlink:href="#DejaVuSans-Bold-74" transform="translate(2409.472656 0)"/>
    <use xlink:href="#DejaVuSans-Bold-73" transform="translate(2457.275391 0)"/>
    <use xlink:href="#DejaVuSans-Bold-20" transform="translate(2516.796875 0)"/>
    <use xlink:href="#DejaVuSans-Bold-28" transform="translate(2551.611328 0)"/>
    <use xlink:href="#DejaVuSans-Bold-42" transform="translate(2597.314453 0)"/>
    <use xlink:href="#DejaVuSans-Bold-61" transform="translate(2673.535156 0)"/>
    <use xlink:href="#DejaVuSans-Bold-73" transform="translate(2741.015625 0)"/>
    <use xlink:href="#DejaVuSans-Bold-65" transform="translate(2800.537109 0)"/>
    <use xlink:href="#DejaVuSans-Bold-6c" transform="translate(2868.359375 0)"/>
    <use xlink:href="#DejaVuSans-Bold-69" transform="translate(2902.636719 0)"/>
    <use xlink:href="#DejaVuSans-Bold-6e" transform="translate(2936.914062 0)"/>
    <use xlink:href="#DejaVuSans-Bold-65" transform="translate(3008.105469 0)"/>
    <use xlink:href="#DejaVuSans-Bold-29" transform="translate(3075.927734 0)"/>
    <use xlink:href="#DejaVuSans-Bold-20" transform="translate(3121.630859 0)"/>
    <use xlink:href="#DejaVuSans-Bold-28" transform="translate(3156.445312 0)"/>
    <use xlink:href="#DejaVuSans-Bold-4e" transform="translate(3202.148438 0)"/>
    <use xlink:href="#DejaVuSans-Bold-6f" transform="translate(3285.839844 0)"/>
    <use xlink:href="#DejaVuSans-Bold-69" transform="translate(3354.541016 0)"/>
    <use xlink:href="#DejaVuSans-Bold-73" transform="translate(3388.818359 0)"/>
    <use xlink:href="#DejaVuSans-Bold-65" transform="translate(3448.339844 0)"/>
    <use xlink:href="#DejaVuSans-Bold-20" transform="translate(3516.162109 0)"/>
    <use xlink:href="#DejaVuSans-Bold-2b" transform="translate(3550.976562 0)"/>
    <use xlink:href="#DejaVuSans-Bold-20" transform="translate(3634.765625 0)"/>
    <use xlink:href="#DejaVuSans-Bold-45" transform="translate(3669.580078 0)"/>
    <use xlink:href="#DejaVuSans-Bold-6e" transform="translate(3737.890625 0)"/>
    <use xlink:href="#DejaVuSans-Bold-74" transform="translate(3809.082031 0)"/>
    <use xlink:href="#DejaVuSans-Bold-72" transform="translate(3856.884766 0)"/>
    <use xlink:href="#DejaVuSans-Bold-6f" transform="translate(3906.201172 0)"/>
    <use xlink:href="#DejaVuSans-Bold-70" transform="translate(3974.902344 0)"/>
    <use xlink:href="#DejaVuSans-Bold-79" transform="translate(4046.484375 0)"/>
    <use xlink:href="#DejaVuSans-Bold-29" transform="translate(4111.669922 0)"/>
   </g>
  </g>
 </g>
 <defs>
  <clipPath id="pa3fe708bdc">
   <rect x="65.63" y="57.0062" width="566.575" height="333.0338"/>
  </clipPath>
 </defs>
</svg>
