<?xml version="1.0" encoding="utf-8" standalone="no"?>
<!DOCTYPE svg PUBLIC "-//W3C//DTD SVG 1.1//EN"
  "http://www.w3.org/Graphics/SVG/1.1/DTD/svg11.dtd">
<svg xmlns:xlink="http://www.w3.org/1999/xlink" width="648pt" height="432pt" viewBox="0 0 648 432" xmlns="http://www.w3.org/2000/svg" version="1.1">
 <metadata>
  <rdf:RDF xmlns:dc="http://purl.org/dc/elements/1.1/" xmlns:cc="http://creativecommons.org/ns#" xmlns:rdf="http://www.w3.org/1999/02/22-rdf-syntax-ns#">
   <cc:Work>
    <dc:type rdf:resource="http://purl.org/dc/dcmitype/StillImage"/>
    <dc:date>2025-07-17T10:28:41.261238</dc:date>
    <dc:format>image/svg+xml</dc:format>
    <dc:creator>
     <cc:Agent>
      <dc:title>Matplotlib v3.10.0, https://matplotlib.org/</dc:title>
     </cc:Agent>
    </dc:creator>
   </cc:Work>
  </rdf:RDF>
 </metadata>
 <defs>
  <style type="text/css">*{stroke-linejoin: round; stroke-linecap: butt}</style>
 </defs>
 <g id="figure_1">
  <g id="patch_1">
   <path d="M 0 432 
L 648 432 
L 648 0 
L 0 0 
z
" style="fill: #ffffff"/>
  </g>
  <g id="axes_1">
   <g id="patch_2">
    <path d="M 65.63 390.04 
L 632.205 390.04 
L 632.205 57.0062 
L 65.63 57.0062 
z
" style="fill: #eaeaf2"/>
   </g>
   <g id="matplotlib.axis_1">
    <g id="xtick_1">
     <g id="line2d_1">
      <path d="M 65.63083 390.04 
L 65.63083 57.0062 
" clip-path="url(#pbed31aec75)" style="fill: none; stroke: #ffffff; stroke-width: 0.8; stroke-linecap: round"/>
     </g>
     <g id="text_1">
      <!-- 0.00 -->
      <g style="fill: #262626" transform="translate(54.498017 404.638438) scale(0.1 -0.1)">
       <defs>
        <path id="DejaVuSans-30" d="M 2034 4250 
Q 1547 4250 1301 3770 
Q 1056 3291 1056 2328 
Q 1056 1369 1301 889 
Q 1547 409 2034 409 
Q 2525 409 2770 889 
Q 3016 1369 3016 2328 
Q 3016 3291 2770 3770 
Q 2525 4250 2034 4250 
z
M 2034 4750 
Q 2819 4750 3233 4129 
Q 3647 3509 3647 2328 
Q 3647 1150 3233 529 
Q 2819 -91 2034 -91 
Q 1250 -91 836 529 
Q 422 1150 422 2328 
Q 422 3509 836 4129 
Q 1250 4750 2034 4750 
z
" transform="scale(0.015625)"/>
        <path id="DejaVuSans-2e" d="M 684 794 
L 1344 794 
L 1344 0 
L 684 0 
L 684 794 
z
" transform="scale(0.015625)"/>
       </defs>
       <use xlink:href="#DejaVuSans-30"/>
       <use xlink:href="#DejaVuSans-2e" transform="translate(63.623047 0)"/>
       <use xlink:href="#DejaVuSans-30" transform="translate(95.410156 0)"/>
       <use xlink:href="#DejaVuSans-30" transform="translate(159.033203 0)"/>
      </g>
     </g>
    </g>
    <g id="xtick_2">
     <g id="line2d_2">
      <path d="M 134.792615 390.04 
L 134.792615 57.0062 
" clip-path="url(#pbed31aec75)" style="fill: none; stroke: #ffffff; stroke-width: 0.8; stroke-linecap: round"/>
     </g>
     <g id="text_2">
      <!-- 0.25 -->
      <g style="fill: #262626" transform="translate(123.659802 404.638438) scale(0.1 -0.1)">
       <defs>
        <path id="DejaVuSans-32" d="M 1228 531 
L 3431 531 
L 3431 0 
L 469 0 
L 469 531 
Q 828 903 1448 1529 
Q 2069 2156 2228 2338 
Q 2531 2678 2651 2914 
Q 2772 3150 2772 3378 
Q 2772 3750 2511 3984 
Q 2250 4219 1831 4219 
Q 1534 4219 1204 4116 
Q 875 4013 500 3803 
L 500 4441 
Q 881 4594 1212 4672 
Q 1544 4750 1819 4750 
Q 2544 4750 2975 4387 
Q 3406 4025 3406 3419 
Q 3406 3131 3298 2873 
Q 3191 2616 2906 2266 
Q 2828 2175 2409 1742 
Q 1991 1309 1228 531 
z
" transform="scale(0.015625)"/>
        <path id="DejaVuSans-35" d="M 691 4666 
L 3169 4666 
L 3169 4134 
L 1269 4134 
L 1269 2991 
Q 1406 3038 1543 3061 
Q 1681 3084 1819 3084 
Q 2600 3084 3056 2656 
Q 3513 2228 3513 1497 
Q 3513 744 3044 326 
Q 2575 -91 1722 -91 
Q 1428 -91 1123 -41 
Q 819 9 494 109 
L 494 744 
Q 775 591 1075 516 
Q 1375 441 1709 441 
Q 2250 441 2565 725 
Q 2881 1009 2881 1497 
Q 2881 1984 2565 2268 
Q 2250 2553 1709 2553 
Q 1456 2553 1204 2497 
Q 953 2441 691 2322 
L 691 4666 
z
" transform="scale(0.015625)"/>
       </defs>
       <use xlink:href="#DejaVuSans-30"/>
       <use xlink:href="#DejaVuSans-2e" transform="translate(63.623047 0)"/>
       <use xlink:href="#DejaVuSans-32" transform="translate(95.410156 0)"/>
       <use xlink:href="#DejaVuSans-35" transform="translate(159.033203 0)"/>
      </g>
     </g>
    </g>
    <g id="xtick_3">
     <g id="line2d_3">
      <path d="M 203.954399 390.04 
L 203.954399 57.0062 
" clip-path="url(#pbed31aec75)" style="fill: none; stroke: #ffffff; stroke-width: 0.8; stroke-linecap: round"/>
     </g>
     <g id="text_3">
      <!-- 0.50 -->
      <g style="fill: #262626" transform="translate(192.821587 404.638438) scale(0.1 -0.1)">
       <use xlink:href="#DejaVuSans-30"/>
       <use xlink:href="#DejaVuSans-2e" transform="translate(63.623047 0)"/>
       <use xlink:href="#DejaVuSans-35" transform="translate(95.410156 0)"/>
       <use xlink:href="#DejaVuSans-30" transform="translate(159.033203 0)"/>
      </g>
     </g>
    </g>
    <g id="xtick_4">
     <g id="line2d_4">
      <path d="M 273.116184 390.04 
L 273.116184 57.0062 
" clip-path="url(#pbed31aec75)" style="fill: none; stroke: #ffffff; stroke-width: 0.8; stroke-linecap: round"/>
     </g>
     <g id="text_4">
      <!-- 0.75 -->
      <g style="fill: #262626" transform="translate(261.983371 404.638438) scale(0.1 -0.1)">
       <defs>
        <path id="DejaVuSans-37" d="M 525 4666 
L 3525 4666 
L 3525 4397 
L 1831 0 
L 1172 0 
L 2766 4134 
L 525 4134 
L 525 4666 
z
" transform="scale(0.015625)"/>
       </defs>
       <use xlink:href="#DejaVuSans-30"/>
       <use xlink:href="#DejaVuSans-2e" transform="translate(63.623047 0)"/>
       <use xlink:href="#DejaVuSans-37" transform="translate(95.410156 0)"/>
       <use xlink:href="#DejaVuSans-35" transform="translate(159.033203 0)"/>
      </g>
     </g>
    </g>
    <g id="xtick_5">
     <g id="line2d_5">
      <path d="M 342.277969 390.04 
L 342.277969 57.0062 
" clip-path="url(#pbed31aec75)" style="fill: none; stroke: #ffffff; stroke-width: 0.8; stroke-linecap: round"/>
     </g>
     <g id="text_5">
      <!-- 1.00 -->
      <g style="fill: #262626" transform="translate(331.145156 404.638438) scale(0.1 -0.1)">
       <defs>
        <path id="DejaVuSans-31" d="M 794 531 
L 1825 531 
L 1825 4091 
L 703 3866 
L 703 4441 
L 1819 4666 
L 2450 4666 
L 2450 531 
L 3481 531 
L 3481 0 
L 794 0 
L 794 531 
z
" transform="scale(0.015625)"/>
       </defs>
       <use xlink:href="#DejaVuSans-31"/>
       <use xlink:href="#DejaVuSans-2e" transform="translate(63.623047 0)"/>
       <use xlink:href="#DejaVuSans-30" transform="translate(95.410156 0)"/>
       <use xlink:href="#DejaVuSans-30" transform="translate(159.033203 0)"/>
      </g>
     </g>
    </g>
    <g id="xtick_6">
     <g id="line2d_6">
      <path d="M 411.439753 390.04 
L 411.439753 57.0062 
" clip-path="url(#pbed31aec75)" style="fill: none; stroke: #ffffff; stroke-width: 0.8; stroke-linecap: round"/>
     </g>
     <g id="text_6">
      <!-- 1.25 -->
      <g style="fill: #262626" transform="translate(400.306941 404.638438) scale(0.1 -0.1)">
       <use xlink:href="#DejaVuSans-31"/>
       <use xlink:href="#DejaVuSans-2e" transform="translate(63.623047 0)"/>
       <use xlink:href="#DejaVuSans-32" transform="translate(95.410156 0)"/>
       <use xlink:href="#DejaVuSans-35" transform="translate(159.033203 0)"/>
      </g>
     </g>
    </g>
    <g id="xtick_7">
     <g id="line2d_7">
      <path d="M 480.601538 390.04 
L 480.601538 57.0062 
" clip-path="url(#pbed31aec75)" style="fill: none; stroke: #ffffff; stroke-width: 0.8; stroke-linecap: round"/>
     </g>
     <g id="text_7">
      <!-- 1.50 -->
      <g style="fill: #262626" transform="translate(469.468726 404.638438) scale(0.1 -0.1)">
       <use xlink:href="#DejaVuSans-31"/>
       <use xlink:href="#DejaVuSans-2e" transform="translate(63.623047 0)"/>
       <use xlink:href="#DejaVuSans-35" transform="translate(95.410156 0)"/>
       <use xlink:href="#DejaVuSans-30" transform="translate(159.033203 0)"/>
      </g>
     </g>
    </g>
    <g id="xtick_8">
     <g id="line2d_8">
      <path d="M 549.763323 390.04 
L 549.763323 57.0062 
" clip-path="url(#pbed31aec75)" style="fill: none; stroke: #ffffff; stroke-width: 0.8; stroke-linecap: round"/>
     </g>
     <g id="text_8">
      <!-- 1.75 -->
      <g style="fill: #262626" transform="translate(538.63051 404.638438) scale(0.1 -0.1)">
       <use xlink:href="#DejaVuSans-31"/>
       <use xlink:href="#DejaVuSans-2e" transform="translate(63.623047 0)"/>
       <use xlink:href="#DejaVuSans-37" transform="translate(95.410156 0)"/>
       <use xlink:href="#DejaVuSans-35" transform="translate(159.033203 0)"/>
      </g>
     </g>
    </g>
    <g id="xtick_9">
     <g id="line2d_9">
      <path d="M 618.925107 390.04 
L 618.925107 57.0062 
" clip-path="url(#pbed31aec75)" style="fill: none; stroke: #ffffff; stroke-width: 0.8; stroke-linecap: round"/>
     </g>
     <g id="text_9">
      <!-- 2.00 -->
      <g style="fill: #262626" transform="translate(607.792295 404.638438) scale(0.1 -0.1)">
       <use xlink:href="#DejaVuSans-32"/>
       <use xlink:href="#DejaVuSans-2e" transform="translate(63.623047 0)"/>
       <use xlink:href="#DejaVuSans-30" transform="translate(95.410156 0)"/>
       <use xlink:href="#DejaVuSans-30" transform="translate(159.033203 0)"/>
      </g>
     </g>
    </g>
    <g id="text_10">
     <!-- Steps -->
     <g style="fill: #262626" transform="translate(334.927656 418.316562) scale(0.1 -0.1)">
      <defs>
       <path id="DejaVuSans-53" d="M 3425 4513 
L 3425 3897 
Q 3066 4069 2747 4153 
Q 2428 4238 2131 4238 
Q 1616 4238 1336 4038 
Q 1056 3838 1056 3469 
Q 1056 3159 1242 3001 
Q 1428 2844 1947 2747 
L 2328 2669 
Q 3034 2534 3370 2195 
Q 3706 1856 3706 1288 
Q 3706 609 3251 259 
Q 2797 -91 1919 -91 
Q 1588 -91 1214 -16 
Q 841 59 441 206 
L 441 856 
Q 825 641 1194 531 
Q 1563 422 1919 422 
Q 2459 422 2753 634 
Q 3047 847 3047 1241 
Q 3047 1584 2836 1778 
Q 2625 1972 2144 2069 
L 1759 2144 
Q 1053 2284 737 2584 
Q 422 2884 422 3419 
Q 422 4038 858 4394 
Q 1294 4750 2059 4750 
Q 2388 4750 2728 4690 
Q 3069 4631 3425 4513 
z
" transform="scale(0.015625)"/>
       <path id="DejaVuSans-74" d="M 1172 4494 
L 1172 3500 
L 2356 3500 
L 2356 3053 
L 1172 3053 
L 1172 1153 
Q 1172 725 1289 603 
Q 1406 481 1766 481 
L 2356 481 
L 2356 0 
L 1766 0 
Q 1100 0 847 248 
Q 594 497 594 1153 
L 594 3053 
L 172 3053 
L 172 3500 
L 594 3500 
L 594 4494 
L 1172 4494 
z
" transform="scale(0.015625)"/>
       <path id="DejaVuSans-65" d="M 3597 1894 
L 3597 1613 
L 953 1613 
Q 991 1019 1311 708 
Q 1631 397 2203 397 
Q 2534 397 2845 478 
Q 3156 559 3463 722 
L 3463 178 
Q 3153 47 2828 -22 
Q 2503 -91 2169 -91 
Q 1331 -91 842 396 
Q 353 884 353 1716 
Q 353 2575 817 3079 
Q 1281 3584 2069 3584 
Q 2775 3584 3186 3129 
Q 3597 2675 3597 1894 
z
M 3022 2063 
Q 3016 2534 2758 2815 
Q 2500 3097 2075 3097 
Q 1594 3097 1305 2825 
Q 1016 2553 972 2059 
L 3022 2063 
z
" transform="scale(0.015625)"/>
       <path id="DejaVuSans-70" d="M 1159 525 
L 1159 -1331 
L 581 -1331 
L 581 3500 
L 1159 3500 
L 1159 2969 
Q 1341 3281 1617 3432 
Q 1894 3584 2278 3584 
Q 2916 3584 3314 3078 
Q 3713 2572 3713 1747 
Q 3713 922 3314 415 
Q 2916 -91 2278 -91 
Q 1894 -91 1617 61 
Q 1341 213 1159 525 
z
M 3116 1747 
Q 3116 2381 2855 2742 
Q 2594 3103 2138 3103 
Q 1681 3103 1420 2742 
Q 1159 2381 1159 1747 
Q 1159 1113 1420 752 
Q 1681 391 2138 391 
Q 2594 391 2855 752 
Q 3116 1113 3116 1747 
z
" transform="scale(0.015625)"/>
       <path id="DejaVuSans-73" d="M 2834 3397 
L 2834 2853 
Q 2591 2978 2328 3040 
Q 2066 3103 1784 3103 
Q 1356 3103 1142 2972 
Q 928 2841 928 2578 
Q 928 2378 1081 2264 
Q 1234 2150 1697 2047 
L 1894 2003 
Q 2506 1872 2764 1633 
Q 3022 1394 3022 966 
Q 3022 478 2636 193 
Q 2250 -91 1575 -91 
Q 1294 -91 989 -36 
Q 684 19 347 128 
L 347 722 
Q 666 556 975 473 
Q 1284 391 1588 391 
Q 1994 391 2212 530 
Q 2431 669 2431 922 
Q 2431 1156 2273 1281 
Q 2116 1406 1581 1522 
L 1381 1569 
Q 847 1681 609 1914 
Q 372 2147 372 2553 
Q 372 3047 722 3315 
Q 1072 3584 1716 3584 
Q 2034 3584 2315 3537 
Q 2597 3491 2834 3397 
z
" transform="scale(0.015625)"/>
      </defs>
      <use xlink:href="#DejaVuSans-53"/>
      <use xlink:href="#DejaVuSans-74" transform="translate(63.476562 0)"/>
      <use xlink:href="#DejaVuSans-65" transform="translate(102.685547 0)"/>
      <use xlink:href="#DejaVuSans-70" transform="translate(164.208984 0)"/>
      <use xlink:href="#DejaVuSans-73" transform="translate(227.685547 0)"/>
     </g>
    </g>
    <g id="text_11">
     <!-- 1e6 -->
     <g style="fill: #262626" transform="translate(613.326875 417.316562) scale(0.1 -0.1)">
      <defs>
       <path id="DejaVuSans-36" d="M 2113 2584 
Q 1688 2584 1439 2293 
Q 1191 2003 1191 1497 
Q 1191 994 1439 701 
Q 1688 409 2113 409 
Q 2538 409 2786 701 
Q 3034 994 3034 1497 
Q 3034 2003 2786 2293 
Q 2538 2584 2113 2584 
z
M 3366 4563 
L 3366 3988 
Q 3128 4100 2886 4159 
Q 2644 4219 2406 4219 
Q 1781 4219 1451 3797 
Q 1122 3375 1075 2522 
Q 1259 2794 1537 2939 
Q 1816 3084 2150 3084 
Q 2853 3084 3261 2657 
Q 3669 2231 3669 1497 
Q 3669 778 3244 343 
Q 2819 -91 2113 -91 
Q 1303 -91 875 529 
Q 447 1150 447 2328 
Q 447 3434 972 4092 
Q 1497 4750 2381 4750 
Q 2619 4750 2861 4703 
Q 3103 4656 3366 4563 
z
" transform="scale(0.015625)"/>
      </defs>
      <use xlink:href="#DejaVuSans-31"/>
      <use xlink:href="#DejaVuSans-65" transform="translate(63.623047 0)"/>
      <use xlink:href="#DejaVuSans-36" transform="translate(125.146484 0)"/>
     </g>
    </g>
   </g>
   <g id="matplotlib.axis_2">
    <g id="ytick_1">
     <g id="line2d_10">
      <path d="M 65.63 390.04 
L 632.205 390.04 
" clip-path="url(#pbed31aec75)" style="fill: none; stroke: #ffffff; stroke-width: 0.8; stroke-linecap: round"/>
     </g>
     <g id="text_12">
      <!-- −1600 -->
      <g style="fill: #262626" transform="translate(24.800313 393.839219) scale(0.1 -0.1)">
       <defs>
        <path id="DejaVuSans-2212" d="M 678 2272 
L 4684 2272 
L 4684 1741 
L 678 1741 
L 678 2272 
z
" transform="scale(0.015625)"/>
       </defs>
       <use xlink:href="#DejaVuSans-2212"/>
       <use xlink:href="#DejaVuSans-31" transform="translate(83.789062 0)"/>
       <use xlink:href="#DejaVuSans-36" transform="translate(147.412109 0)"/>
       <use xlink:href="#DejaVuSans-30" transform="translate(211.035156 0)"/>
       <use xlink:href="#DejaVuSans-30" transform="translate(274.658203 0)"/>
      </g>
     </g>
    </g>
    <g id="ytick_2">
     <g id="line2d_11">
      <path d="M 65.63 348.410775 
L 632.205 348.410775 
" clip-path="url(#pbed31aec75)" style="fill: none; stroke: #ffffff; stroke-width: 0.8; stroke-linecap: round"/>
     </g>
     <g id="text_13">
      <!-- −1400 -->
      <g style="fill: #262626" transform="translate(24.800313 352.209994) scale(0.1 -0.1)">
       <defs>
        <path id="DejaVuSans-34" d="M 2419 4116 
L 825 1625 
L 2419 1625 
L 2419 4116 
z
M 2253 4666 
L 3047 4666 
L 3047 1625 
L 3713 1625 
L 3713 1100 
L 3047 1100 
L 3047 0 
L 2419 0 
L 2419 1100 
L 313 1100 
L 313 1709 
L 2253 4666 
z
" transform="scale(0.015625)"/>
       </defs>
       <use xlink:href="#DejaVuSans-2212"/>
       <use xlink:href="#DejaVuSans-31" transform="translate(83.789062 0)"/>
       <use xlink:href="#DejaVuSans-34" transform="translate(147.412109 0)"/>
       <use xlink:href="#DejaVuSans-30" transform="translate(211.035156 0)"/>
       <use xlink:href="#DejaVuSans-30" transform="translate(274.658203 0)"/>
      </g>
     </g>
    </g>
    <g id="ytick_3">
     <g id="line2d_12">
      <path d="M 65.63 306.78155 
L 632.205 306.78155 
" clip-path="url(#pbed31aec75)" style="fill: none; stroke: #ffffff; stroke-width: 0.8; stroke-linecap: round"/>
     </g>
     <g id="text_14">
      <!-- −1200 -->
      <g style="fill: #262626" transform="translate(24.800313 310.580769) scale(0.1 -0.1)">
       <use xlink:href="#DejaVuSans-2212"/>
       <use xlink:href="#DejaVuSans-31" transform="translate(83.789062 0)"/>
       <use xlink:href="#DejaVuSans-32" transform="translate(147.412109 0)"/>
       <use xlink:href="#DejaVuSans-30" transform="translate(211.035156 0)"/>
       <use xlink:href="#DejaVuSans-30" transform="translate(274.658203 0)"/>
      </g>
     </g>
    </g>
    <g id="ytick_4">
     <g id="line2d_13">
      <path d="M 65.63 265.152325 
L 632.205 265.152325 
" clip-path="url(#pbed31aec75)" style="fill: none; stroke: #ffffff; stroke-width: 0.8; stroke-linecap: round"/>
     </g>
     <g id="text_15">
      <!-- −1000 -->
      <g style="fill: #262626" transform="translate(24.800313 268.951544) scale(0.1 -0.1)">
       <use xlink:href="#DejaVuSans-2212"/>
       <use xlink:href="#DejaVuSans-31" transform="translate(83.789062 0)"/>
       <use xlink:href="#DejaVuSans-30" transform="translate(147.412109 0)"/>
       <use xlink:href="#DejaVuSans-30" transform="translate(211.035156 0)"/>
       <use xlink:href="#DejaVuSans-30" transform="translate(274.658203 0)"/>
      </g>
     </g>
    </g>
    <g id="ytick_5">
     <g id="line2d_14">
      <path d="M 65.63 223.5231 
L 632.205 223.5231 
" clip-path="url(#pbed31aec75)" style="fill: none; stroke: #ffffff; stroke-width: 0.8; stroke-linecap: round"/>
     </g>
     <g id="text_16">
      <!-- −800 -->
      <g style="fill: #262626" transform="translate(31.162813 227.322319) scale(0.1 -0.1)">
       <defs>
        <path id="DejaVuSans-38" d="M 2034 2216 
Q 1584 2216 1326 1975 
Q 1069 1734 1069 1313 
Q 1069 891 1326 650 
Q 1584 409 2034 409 
Q 2484 409 2743 651 
Q 3003 894 3003 1313 
Q 3003 1734 2745 1975 
Q 2488 2216 2034 2216 
z
M 1403 2484 
Q 997 2584 770 2862 
Q 544 3141 544 3541 
Q 544 4100 942 4425 
Q 1341 4750 2034 4750 
Q 2731 4750 3128 4425 
Q 3525 4100 3525 3541 
Q 3525 3141 3298 2862 
Q 3072 2584 2669 2484 
Q 3125 2378 3379 2068 
Q 3634 1759 3634 1313 
Q 3634 634 3220 271 
Q 2806 -91 2034 -91 
Q 1263 -91 848 271 
Q 434 634 434 1313 
Q 434 1759 690 2068 
Q 947 2378 1403 2484 
z
M 1172 3481 
Q 1172 3119 1398 2916 
Q 1625 2713 2034 2713 
Q 2441 2713 2670 2916 
Q 2900 3119 2900 3481 
Q 2900 3844 2670 4047 
Q 2441 4250 2034 4250 
Q 1625 4250 1398 4047 
Q 1172 3844 1172 3481 
z
" transform="scale(0.015625)"/>
       </defs>
       <use xlink:href="#DejaVuSans-2212"/>
       <use xlink:href="#DejaVuSans-38" transform="translate(83.789062 0)"/>
       <use xlink:href="#DejaVuSans-30" transform="translate(147.412109 0)"/>
       <use xlink:href="#DejaVuSans-30" transform="translate(211.035156 0)"/>
      </g>
     </g>
    </g>
    <g id="ytick_6">
     <g id="line2d_15">
      <path d="M 65.63 181.893875 
L 632.205 181.893875 
" clip-path="url(#pbed31aec75)" style="fill: none; stroke: #ffffff; stroke-width: 0.8; stroke-linecap: round"/>
     </g>
     <g id="text_17">
      <!-- −600 -->
      <g style="fill: #262626" transform="translate(31.162813 185.693094) scale(0.1 -0.1)">
       <use xlink:href="#DejaVuSans-2212"/>
       <use xlink:href="#DejaVuSans-36" transform="translate(83.789062 0)"/>
       <use xlink:href="#DejaVuSans-30" transform="translate(147.412109 0)"/>
       <use xlink:href="#DejaVuSans-30" transform="translate(211.035156 0)"/>
      </g>
     </g>
    </g>
    <g id="ytick_7">
     <g id="line2d_16">
      <path d="M 65.63 140.26465 
L 632.205 140.26465 
" clip-path="url(#pbed31aec75)" style="fill: none; stroke: #ffffff; stroke-width: 0.8; stroke-linecap: round"/>
     </g>
     <g id="text_18">
      <!-- −400 -->
      <g style="fill: #262626" transform="translate(31.162813 144.063869) scale(0.1 -0.1)">
       <use xlink:href="#DejaVuSans-2212"/>
       <use xlink:href="#DejaVuSans-34" transform="translate(83.789062 0)"/>
       <use xlink:href="#DejaVuSans-30" transform="translate(147.412109 0)"/>
       <use xlink:href="#DejaVuSans-30" transform="translate(211.035156 0)"/>
      </g>
     </g>
    </g>
    <g id="ytick_8">
     <g id="line2d_17">
      <path d="M 65.63 98.635425 
L 632.205 98.635425 
" clip-path="url(#pbed31aec75)" style="fill: none; stroke: #ffffff; stroke-width: 0.8; stroke-linecap: round"/>
     </g>
     <g id="text_19">
      <!-- −200 -->
      <g style="fill: #262626" transform="translate(31.162813 102.434644) scale(0.1 -0.1)">
       <use xlink:href="#DejaVuSans-2212"/>
       <use xlink:href="#DejaVuSans-32" transform="translate(83.789062 0)"/>
       <use xlink:href="#DejaVuSans-30" transform="translate(147.412109 0)"/>
       <use xlink:href="#DejaVuSans-30" transform="translate(211.035156 0)"/>
      </g>
     </g>
    </g>
    <g id="ytick_9">
     <g id="line2d_18">
      <path d="M 65.63 57.0062 
L 632.205 57.0062 
" clip-path="url(#pbed31aec75)" style="fill: none; stroke: #ffffff; stroke-width: 0.8; stroke-linecap: round"/>
     </g>
     <g id="text_20">
      <!-- 0 -->
      <g style="fill: #262626" transform="translate(52.2675 60.805419) scale(0.1 -0.1)">
       <use xlink:href="#DejaVuSans-30"/>
      </g>
     </g>
    </g>
    <g id="text_21">
     <!-- Reward -->
     <g style="fill: #262626" transform="translate(18.720625 242.144194) rotate(-90) scale(0.1 -0.1)">
      <defs>
       <path id="DejaVuSans-52" d="M 2841 2188 
Q 3044 2119 3236 1894 
Q 3428 1669 3622 1275 
L 4263 0 
L 3584 0 
L 2988 1197 
Q 2756 1666 2539 1819 
Q 2322 1972 1947 1972 
L 1259 1972 
L 1259 0 
L 628 0 
L 628 4666 
L 2053 4666 
Q 2853 4666 3247 4331 
Q 3641 3997 3641 3322 
Q 3641 2881 3436 2590 
Q 3231 2300 2841 2188 
z
M 1259 4147 
L 1259 2491 
L 2053 2491 
Q 2509 2491 2742 2702 
Q 2975 2913 2975 3322 
Q 2975 3731 2742 3939 
Q 2509 4147 2053 4147 
L 1259 4147 
z
" transform="scale(0.015625)"/>
       <path id="DejaVuSans-77" d="M 269 3500 
L 844 3500 
L 1563 769 
L 2278 3500 
L 2956 3500 
L 3675 769 
L 4391 3500 
L 4966 3500 
L 4050 0 
L 3372 0 
L 2619 2869 
L 1863 0 
L 1184 0 
L 269 3500 
z
" transform="scale(0.015625)"/>
       <path id="DejaVuSans-61" d="M 2194 1759 
Q 1497 1759 1228 1600 
Q 959 1441 959 1056 
Q 959 750 1161 570 
Q 1363 391 1709 391 
Q 2188 391 2477 730 
Q 2766 1069 2766 1631 
L 2766 1759 
L 2194 1759 
z
M 3341 1997 
L 3341 0 
L 2766 0 
L 2766 531 
Q 2569 213 2275 61 
Q 1981 -91 1556 -91 
Q 1019 -91 701 211 
Q 384 513 384 1019 
Q 384 1609 779 1909 
Q 1175 2209 1959 2209 
L 2766 2209 
L 2766 2266 
Q 2766 2663 2505 2880 
Q 2244 3097 1772 3097 
Q 1472 3097 1187 3025 
Q 903 2953 641 2809 
L 641 3341 
Q 956 3463 1253 3523 
Q 1550 3584 1831 3584 
Q 2591 3584 2966 3190 
Q 3341 2797 3341 1997 
z
" transform="scale(0.015625)"/>
       <path id="DejaVuSans-72" d="M 2631 2963 
Q 2534 3019 2420 3045 
Q 2306 3072 2169 3072 
Q 1681 3072 1420 2755 
Q 1159 2438 1159 1844 
L 1159 0 
L 581 0 
L 581 3500 
L 1159 3500 
L 1159 2956 
Q 1341 3275 1631 3429 
Q 1922 3584 2338 3584 
Q 2397 3584 2469 3576 
Q 2541 3569 2628 3553 
L 2631 2963 
z
" transform="scale(0.015625)"/>
       <path id="DejaVuSans-64" d="M 2906 2969 
L 2906 4863 
L 3481 4863 
L 3481 0 
L 2906 0 
L 2906 525 
Q 2725 213 2448 61 
Q 2172 -91 1784 -91 
Q 1150 -91 751 415 
Q 353 922 353 1747 
Q 353 2572 751 3078 
Q 1150 3584 1784 3584 
Q 2172 3584 2448 3432 
Q 2725 3281 2906 2969 
z
M 947 1747 
Q 947 1113 1208 752 
Q 1469 391 1925 391 
Q 2381 391 2643 752 
Q 2906 1113 2906 1747 
Q 2906 2381 2643 2742 
Q 2381 3103 1925 3103 
Q 1469 3103 1208 2742 
Q 947 2381 947 1747 
z
" transform="scale(0.015625)"/>
      </defs>
      <use xlink:href="#DejaVuSans-52"/>
      <use xlink:href="#DejaVuSans-65" transform="translate(64.982422 0)"/>
      <use xlink:href="#DejaVuSans-77" transform="translate(126.505859 0)"/>
      <use xlink:href="#DejaVuSans-61" transform="translate(208.292969 0)"/>
      <use xlink:href="#DejaVuSans-72" transform="translate(269.572266 0)"/>
      <use xlink:href="#DejaVuSans-64" transform="translate(308.935547 0)"/>
     </g>
    </g>
   </g>
   <g id="FillBetweenPolyCollection_1">
    <path d="M 65.63083 297.297632 
L 65.63083 322.758916 
L 71.296563 322.126858 
L 76.962297 319.334818 
L 82.62803 304.411362 
L 88.293764 294.334638 
L 93.959497 300.321523 
L 99.62523 304.032234 
L 105.290964 284.203093 
L 110.956697 288.898811 
L 116.622431 274.061417 
L 122.288164 268.444976 
L 127.953897 264.48913 
L 133.619631 259.251208 
L 139.285364 250.811211 
L 144.951098 253.412365 
L 150.616831 254.313359 
L 156.282564 236.353874 
L 161.948298 265.945656 
L 167.614031 269.443318 
L 173.279765 264.083569 
L 178.945498 283.914269 
L 184.611231 281.005192 
L 190.276965 271.291379 
L 195.942698 283.13491 
L 201.608432 259.180589 
L 207.274165 265.59161 
L 212.939898 269.296826 
L 218.605632 259.327287 
L 224.271365 269.885181 
L 229.937099 260.902249 
L 235.602832 261.182814 
L 241.268565 267.89148 
L 246.934299 267.661102 
L 252.600032 273.525857 
L 258.265766 272.736484 
L 263.931499 267.767876 
L 269.597232 264.272617 
L 275.262966 264.085713 
L 280.928699 267.862756 
L 286.594433 269.798417 
L 292.260166 267.467387 
L 297.925899 274.98337 
L 303.591633 269.538649 
L 309.257366 271.857841 
L 314.9231 271.791256 
L 320.588833 265.372252 
L 326.254566 271.21357 
L 331.9203 269.407761 
L 337.586033 266.818908 
L 343.251767 274.385828 
L 348.9175 255.548083 
L 354.583233 249.911687 
L 360.248967 248.577297 
L 365.9147 253.263375 
L 371.580434 253.101677 
L 377.246167 252.112808 
L 382.9119 276.043421 
L 388.577634 290.599779 
L 394.243367 286.672825 
L 399.909101 288.842323 
L 405.574834 287.549827 
L 411.240567 284.817393 
L 416.906301 281.465047 
L 422.572034 276.811004 
L 428.237768 278.573143 
L 433.903501 281.135355 
L 439.569234 280.390817 
L 445.234968 274.543825 
L 450.900701 274.550875 
L 456.566435 277.164834 
L 462.232168 271.806192 
L 467.897901 266.502285 
L 473.563635 271.382192 
L 479.229368 269.308313 
L 484.895102 276.562445 
L 490.560835 276.861207 
L 496.226568 278.567438 
L 501.892302 272.910665 
L 507.558035 272.771737 
L 513.223769 275.936693 
L 518.889502 269.842411 
L 524.555235 270.162866 
L 530.220969 272.75852 
L 535.886702 273.29416 
L 541.552436 282.45959 
L 547.218169 272.383538 
L 552.883902 269.870695 
L 558.549636 271.053633 
L 564.215369 266.160266 
L 569.881103 269.524097 
L 575.546836 265.12569 
L 581.212569 267.531066 
L 586.878303 264.391601 
L 592.544036 268.038955 
L 598.20977 265.84161 
L 603.875503 266.545869 
L 609.541236 271.690814 
L 615.20697 274.266976 
L 620.872703 266.58087 
L 626.538437 258.789285 
L 626.538437 84.192536 
L 626.538437 84.192536 
L 620.872703 83.319019 
L 615.20697 94.927528 
L 609.541236 82.260545 
L 603.875503 81.892872 
L 598.20977 73.793265 
L 592.544036 76.709415 
L 586.878303 76.0624 
L 581.212569 72.951006 
L 575.546836 76.049318 
L 569.881103 82.070699 
L 564.215369 79.858624 
L 558.549636 73.43767 
L 552.883902 86.266493 
L 547.218169 85.84293 
L 541.552436 114.917532 
L 535.886702 91.753617 
L 530.220969 82.969137 
L 524.555235 82.154538 
L 518.889502 81.37035 
L 513.223769 81.001555 
L 507.558035 82.890825 
L 501.892302 75.583868 
L 496.226568 83.112636 
L 490.560835 80.736105 
L 484.895102 84.190328 
L 479.229368 85.263578 
L 473.563635 90.737833 
L 467.897901 86.765204 
L 462.232168 81.968291 
L 456.566435 94.16811 
L 450.900701 91.250336 
L 445.234968 90.722044 
L 439.569234 92.599413 
L 433.903501 99.648227 
L 428.237768 94.522951 
L 422.572034 119.441343 
L 416.906301 103.129134 
L 411.240567 108.319758 
L 405.574834 108.439034 
L 399.909101 132.970255 
L 394.243367 117.266382 
L 388.577634 142.638109 
L 382.9119 138.835203 
L 377.246167 157.942155 
L 371.580434 159.913829 
L 365.9147 167.036023 
L 360.248967 149.494578 
L 354.583233 145.365561 
L 348.9175 151.409792 
L 343.251767 156.251559 
L 337.586033 166.210925 
L 331.9203 160.694183 
L 326.254566 167.835688 
L 320.588833 187.216964 
L 314.9231 194.177394 
L 309.257366 170.765044 
L 303.591633 179.985027 
L 297.925899 166.955792 
L 292.260166 156.450387 
L 286.594433 156.88617 
L 280.928699 163.386067 
L 275.262966 163.902386 
L 269.597232 165.579135 
L 263.931499 167.153231 
L 258.265766 168.110472 
L 252.600032 168.974925 
L 246.934299 176.547828 
L 241.268565 178.111623 
L 235.602832 181.670045 
L 229.937099 179.604599 
L 224.271365 189.266285 
L 218.605632 189.875561 
L 212.939898 195.60292 
L 207.274165 193.738622 
L 201.608432 190.376758 
L 195.942698 203.668937 
L 190.276965 198.747906 
L 184.611231 214.78249 
L 178.945498 218.258435 
L 173.279765 197.777852 
L 167.614031 195.835994 
L 161.948298 207.31834 
L 156.282564 201.204873 
L 150.616831 203.539446 
L 144.951098 219.605759 
L 139.285364 222.290996 
L 133.619631 236.343282 
L 127.953897 240.103019 
L 122.288164 242.363359 
L 116.622431 250.558322 
L 110.956697 255.327556 
L 105.290964 255.559418 
L 99.62523 264.678744 
L 93.959497 275.331794 
L 88.293764 272.599883 
L 82.62803 285.250497 
L 76.962297 296.438652 
L 71.296563 294.726955 
L 65.63083 297.297632 
z
" clip-path="url(#pbed31aec75)" style="fill: #0000ff; fill-opacity: 0.1"/>
   </g>
   <g id="line2d_19">
    <path d="M 65.63083 310.028274 
L 71.296563 308.426906 
L 76.962297 307.886735 
L 82.62803 294.830929 
L 88.293764 283.46726 
L 93.959497 287.826659 
L 99.62523 284.355489 
L 105.290964 269.881256 
L 110.956697 272.113184 
L 116.622431 262.30987 
L 122.288164 255.404167 
L 127.953897 252.296074 
L 133.619631 247.797245 
L 139.285364 236.551103 
L 144.951098 236.509062 
L 150.616831 228.926402 
L 156.282564 218.779374 
L 161.948298 236.631998 
L 167.614031 232.639656 
L 173.279765 230.930711 
L 178.945498 251.086352 
L 184.611231 247.893841 
L 190.276965 235.019643 
L 195.942698 243.401924 
L 201.608432 224.778673 
L 207.274165 229.665116 
L 212.939898 232.449873 
L 218.605632 224.601424 
L 224.271365 229.575733 
L 229.937099 220.253424 
L 235.602832 221.42643 
L 241.268565 223.001551 
L 246.934299 222.104465 
L 252.600032 221.250391 
L 258.265766 220.423478 
L 263.931499 217.460554 
L 269.597232 214.925876 
L 275.262966 213.994049 
L 280.928699 215.624411 
L 286.594433 213.342293 
L 292.260166 211.958887 
L 297.925899 220.969581 
L 303.591633 224.761838 
L 309.257366 221.311442 
L 314.9231 232.984325 
L 320.588833 226.294608 
L 326.254566 219.524629 
L 331.9203 215.050972 
L 337.586033 216.514917 
L 343.251767 215.318694 
L 348.9175 203.478938 
L 354.583233 197.638624 
L 360.248967 199.035938 
L 365.9147 210.149699 
L 371.580434 206.507753 
L 377.246167 205.027481 
L 382.9119 207.439312 
L 388.577634 216.618944 
L 394.243367 201.969603 
L 399.909101 210.906289 
L 405.574834 197.994431 
L 411.240567 196.568576 
L 416.906301 192.29709 
L 422.572034 198.126174 
L 428.237768 186.548047 
L 433.903501 190.391791 
L 439.569234 186.495115 
L 445.234968 182.632935 
L 450.900701 182.900606 
L 456.566435 185.666472 
L 462.232168 176.887242 
L 467.897901 176.633744 
L 473.563635 181.060013 
L 479.229368 177.285945 
L 484.895102 180.376386 
L 490.560835 178.798656 
L 496.226568 180.840037 
L 501.892302 174.247266 
L 507.558035 177.831281 
L 513.223769 178.469124 
L 518.889502 175.60638 
L 524.555235 176.158702 
L 530.220969 177.863828 
L 535.886702 182.523888 
L 541.552436 198.688561 
L 547.218169 179.113234 
L 552.883902 178.068594 
L 558.549636 172.245652 
L 564.215369 173.009445 
L 569.881103 175.797398 
L 575.546836 170.587504 
L 581.212569 170.241036 
L 586.878303 170.227001 
L 592.544036 172.374185 
L 598.20977 169.817437 
L 603.875503 174.219371 
L 609.541236 176.97568 
L 615.20697 184.597252 
L 620.872703 174.949945 
L 626.538437 171.49091 
" clip-path="url(#pbed31aec75)" style="fill: none; stroke: #0000ff; stroke-width: 1.5; stroke-linecap: round"/>
   </g>
   <g id="line2d_20">
    <path d="M 65.63083 307.755424 
L 71.296563 324.74125 
L 76.962297 298.944589 
L 82.62803 299.954048 
L 88.293764 291.251615 
L 93.959497 295.175113 
L 99.62523 306.373652 
L 105.290964 271.307156 
L 110.956697 290.067663 
L 116.622431 261.496779 
L 122.288164 260.842267 
L 127.953897 255.149772 
L 133.619631 258.758289 
L 139.285364 240.336396 
L 144.951098 227.832577 
L 150.616831 234.367979 
L 156.282564 228.661876 
L 161.948298 239.671462 
L 167.614031 215.266528 
L 173.279765 221.020414 
L 178.945498 236.836107 
L 184.611231 250.625851 
L 190.276965 207.900979 
L 195.942698 214.252939 
L 201.608432 202.763426 
L 207.274165 220.771733 
L 212.939898 209.842535 
L 218.605632 199.656187 
L 224.271365 207.072057 
L 229.937099 203.813775 
L 235.602832 209.736413 
L 241.268565 193.970317 
L 246.934299 197.528545 
L 252.600032 200.080807 
L 258.265766 199.174132 
L 263.931499 203.870648 
L 269.597232 195.615415 
L 275.262966 187.962102 
L 280.928699 199.548533 
L 286.594433 190.016538 
L 292.260166 192.968711 
L 297.925899 245.987914 
L 303.591633 239.298277 
L 309.257366 230.292325 
L 314.9231 220.276334 
L 320.588833 211.924762 
L 326.254566 203.697651 
L 331.9203 198.608049 
L 337.586033 196.83629 
L 343.251767 180.758239 
L 348.9175 185.432683 
L 354.583233 176.31867 
L 360.248967 168.728867 
L 365.9147 164.192362 
L 371.580434 171.960442 
L 377.246167 153.058166 
L 382.9119 152.546969 
L 388.577634 176.312364 
L 394.243367 126.006614 
L 399.909101 156.659684 
L 405.574834 133.778725 
L 411.240567 129.703125 
L 416.906301 119.032052 
L 422.572034 125.755316 
L 428.237768 115.063834 
L 433.903501 116.031532 
L 439.569234 114.130365 
L 445.234968 120.979795 
L 450.900701 112.671599 
L 456.566435 110.654311 
L 462.232168 114.169241 
L 467.897901 106.741713 
L 473.563635 111.350657 
L 479.229368 108.019384 
L 484.895102 103.551349 
L 490.560835 107.122767 
L 496.226568 95.691739 
L 501.892302 86.779208 
L 507.558035 93.935494 
L 513.223769 95.133393 
L 518.889502 104.578924 
L 524.555235 94.8922 
L 530.220969 94.88322 
L 535.886702 94.684983 
L 541.552436 111.100326 
L 547.218169 103.722523 
L 552.883902 98.68874 
L 558.549636 92.61509 
L 564.215369 99.079717 
L 569.881103 99.022734 
L 575.546836 101.276139 
L 581.212569 97.958219 
L 586.878303 105.177423 
L 592.544036 102.178962 
L 598.20977 90.927605 
L 603.875503 98.435288 
L 609.541236 107.375541 
L 615.20697 108.565815 
L 620.872703 96.789111 
L 626.538437 99.806819 
" clip-path="url(#pbed31aec75)" style="fill: none; stroke: #008000; stroke-opacity: 0.2; stroke-linecap: round"/>
   </g>
   <g id="line2d_21">
    <path d="M 65.63083 306.231479 
L 71.296563 322.66298 
L 76.962297 301.920129 
L 82.62803 291.16807 
L 88.293764 293.518692 
L 93.959497 286.880856 
L 99.62523 306.956618 
L 105.290964 269.275433 
L 110.956697 283.035883 
L 116.622431 275.32429 
L 122.288164 258.539998 
L 127.953897 254.29888 
L 133.619631 262.659124 
L 139.285364 226.767124 
L 144.951098 236.710685 
L 150.616831 214.649669 
L 156.282564 211.292757 
L 161.948298 220.470831 
L 167.614031 216.947706 
L 173.279765 237.835582 
L 178.945498 271.241994 
L 184.611231 267.3775 
L 190.276965 256.875787 
L 195.942698 255.713284 
L 201.608432 215.343121 
L 207.274165 208.399083 
L 212.939898 227.226425 
L 218.605632 211.203197 
L 224.271365 214.531854 
L 229.937099 206.385747 
L 235.602832 222.173597 
L 241.268565 234.995087 
L 246.934299 221.502378 
L 252.600032 216.547033 
L 258.265766 207.603577 
L 263.931499 219.718932 
L 269.597232 204.128155 
L 275.262966 212.41689 
L 280.928699 208.070955 
L 286.594433 208.303131 
L 292.260166 205.376941 
L 297.925899 198.142116 
L 303.591633 191.095745 
L 309.257366 197.850904 
L 314.9231 187.00332 
L 320.588833 193.470498 
L 326.254566 187.918494 
L 331.9203 182.999631 
L 337.586033 183.577637 
L 343.251767 179.952385 
L 348.9175 170.035198 
L 354.583233 174.982003 
L 360.248967 177.567639 
L 365.9147 171.106886 
L 371.580434 174.615228 
L 377.246167 171.808017 
L 382.9119 163.12275 
L 388.577634 161.619991 
L 394.243367 161.994625 
L 399.909101 162.459325 
L 405.574834 142.279133 
L 411.240567 157.46888 
L 416.906301 154.723606 
L 422.572034 150.575704 
L 428.237768 124.282676 
L 433.903501 134.444322 
L 439.569234 133.035089 
L 445.234968 114.268233 
L 450.900701 116.814364 
L 456.566435 130.490229 
L 462.232168 109.015983 
L 467.897901 116.247198 
L 473.563635 110.079689 
L 479.229368 117.378321 
L 484.895102 106.786859 
L 490.560835 102.57671 
L 496.226568 110.328535 
L 501.892302 107.294918 
L 507.558035 110.329544 
L 513.223769 114.17539 
L 518.889502 107.345796 
L 524.555235 122.810738 
L 530.220969 130.02 
L 535.886702 127.949437 
L 541.552436 115.532598 
L 547.218169 121.071635 
L 552.883902 128.157961 
L 558.549636 119.736293 
L 564.215369 110.678046 
L 569.881103 115.827144 
L 575.546836 104.056915 
L 581.212569 104.874978 
L 586.878303 102.519139 
L 592.544036 99.711632 
L 598.20977 99.800133 
L 603.875503 114.154253 
L 609.541236 114.470776 
L 615.20697 137.097487 
L 620.872703 115.702505 
L 626.538437 131.622264 
" clip-path="url(#pbed31aec75)" style="fill: none; stroke: #008000; stroke-opacity: 0.2; stroke-linecap: round"/>
   </g>
   <g id="line2d_22">
    <path d="M 65.63083 305.80338 
L 71.296563 305.927005 
L 76.962297 307.420601 
L 82.62803 302.144712 
L 88.293764 271.35975 
L 93.959497 303.304887 
L 99.62523 281.58143 
L 105.290964 279.820999 
L 110.956697 283.921263 
L 116.622431 273.90079 
L 122.288164 273.329102 
L 127.953897 272.085262 
L 133.619631 244.316738 
L 139.285364 260.600194 
L 144.951098 256.553596 
L 150.616831 271.377087 
L 156.282564 244.601097 
L 161.948298 245.733905 
L 167.614031 254.559656 
L 173.279765 241.426352 
L 178.945498 274.831475 
L 184.611231 256.162939 
L 190.276965 253.519287 
L 195.942698 262.03186 
L 201.608432 249.003417 
L 207.274165 258.927463 
L 212.939898 272.309598 
L 218.605632 254.519758 
L 224.271365 270.749048 
L 229.937099 264.820064 
L 235.602832 244.32817 
L 241.268565 257.484787 
L 246.934299 261.679927 
L 252.600032 281.681199 
L 258.265766 287.751234 
L 263.931499 263.493798 
L 269.597232 254.844183 
L 275.262966 255.246555 
L 280.928699 276.261106 
L 286.594433 267.01675 
L 292.260166 272.676522 
L 297.925899 275.068623 
L 303.591633 262.131586 
L 309.257366 264.711184 
L 314.9231 270.562431 
L 320.588833 266.938376 
L 326.254566 278.249297 
L 331.9203 269.678042 
L 337.586033 272.478943 
L 343.251767 279.53054 
L 348.9175 251.508749 
L 354.583233 250.898948 
L 360.248967 236.756067 
L 365.9147 253.865892 
L 371.580434 257.931208 
L 377.246167 251.650622 
L 382.9119 241.015605 
L 388.577634 241.134669 
L 394.243367 235.689694 
L 399.909101 234.590858 
L 405.574834 227.571594 
L 411.240567 234.812628 
L 416.906301 222.374125 
L 422.572034 218.727104 
L 428.237768 233.681485 
L 433.903501 229.407341 
L 439.569234 221.981668 
L 445.234968 227.390728 
L 450.900701 222.846088 
L 456.566435 224.262145 
L 462.232168 224.633219 
L 467.897901 209.962583 
L 473.563635 218.659485 
L 479.229368 234.416342 
L 484.895102 255.15969 
L 490.560835 249.8041 
L 496.226568 249.027603 
L 501.892302 235.8277 
L 507.558035 230.905416 
L 513.223769 240.991587 
L 518.889502 223.051178 
L 524.555235 223.300727 
L 530.220969 229.0859 
L 535.886702 213.595788 
L 541.552436 219.453158 
L 547.218169 220.810569 
L 552.883902 224.253007 
L 558.549636 219.119851 
L 564.215369 217.42459 
L 569.881103 213.587952 
L 575.546836 201.533097 
L 581.212569 202.554144 
L 586.878303 203.769511 
L 592.544036 203.54367 
L 598.20977 214.918704 
L 603.875503 209.197894 
L 609.541236 218.922152 
L 615.20697 227.656986 
L 620.872703 219.729023 
L 626.538437 201.378591 
" clip-path="url(#pbed31aec75)" style="fill: none; stroke: #008000; stroke-opacity: 0.2; stroke-linecap: round"/>
   </g>
   <g id="line2d_23">
    <path d="M 65.63083 334.148238 
L 71.296563 300.315809 
L 76.962297 330.088306 
L 82.62803 303.23604 
L 88.293764 292.132946 
L 93.959497 287.993692 
L 99.62523 268.773922 
L 105.290964 285.315879 
L 110.956697 251.62582 
L 116.622431 243.23485 
L 122.288164 233.83281 
L 127.953897 235.737592 
L 133.619631 231.466547 
L 139.285364 218.431085 
L 144.951098 209.693603 
L 150.616831 194.483595 
L 156.282564 191.90883 
L 161.948298 194.284783 
L 167.614031 184.91167 
L 173.279765 176.139258 
L 178.945498 192.812077 
L 184.611231 184.893251 
L 190.276965 178.725967 
L 195.942698 185.305953 
L 201.608432 179.756262 
L 207.274165 179.787011 
L 212.939898 178.534629 
L 218.605632 182.461792 
L 224.271365 174.425673 
L 229.937099 159.685902 
L 235.602832 155.573624 
L 241.268565 152.038908 
L 246.934299 151.254983 
L 252.600032 137.09716 
L 258.265766 140.622721 
L 263.931499 130.312906 
L 269.597232 139.15323 
L 275.262966 136.211503 
L 280.928699 130.161215 
L 286.594433 122.694731 
L 292.260166 121.250011 
L 297.925899 126.006016 
L 303.591633 155.987573 
L 309.257366 136.701861 
L 314.9231 201.000408 
L 320.588833 181.206345 
L 326.254566 148.316073 
L 331.9203 139.621864 
L 337.586033 151.426474 
L 343.251767 144.487822 
L 348.9175 135.212674 
L 354.583233 122.944102 
L 360.248967 137.613787 
L 365.9147 192.750653 
L 371.580434 159.760983 
L 377.246167 177.60149 
L 382.9119 152.864816 
L 388.577634 152.994418 
L 394.243367 133.561717 
L 399.909101 146.974445 
L 405.574834 125.026785 
L 411.240567 109.632159 
L 416.906301 112.658559 
L 422.572034 152.651584 
L 428.237768 112.844618 
L 433.903501 120.229717 
L 439.569234 107.874909 
L 445.234968 106.676874 
L 450.900701 116.06343 
L 456.566435 114.193341 
L 462.232168 94.218598 
L 467.897901 111.003608 
L 473.563635 122.683862 
L 479.229368 94.786187 
L 484.895102 103.107923 
L 490.560835 96.546657 
L 496.226568 108.26648 
L 501.892302 101.425329 
L 507.558035 113.364511 
L 513.223769 100.834339 
L 518.889502 102.723245 
L 524.555235 100.133533 
L 530.220969 95.07172 
L 535.886702 130.170907 
L 541.552436 207.258467 
L 547.218169 105.61188 
L 552.883902 101.809098 
L 558.549636 84.716084 
L 564.215369 100.940865 
L 569.881103 106.723786 
L 575.546836 102.624503 
L 581.212569 97.934375 
L 586.878303 98.442216 
L 592.544036 109.174533 
L 598.20977 104.342293 
L 603.875503 108.553627 
L 609.541236 99.010357 
L 615.20697 108.483684 
L 620.872703 107.101264 
L 626.538437 95.813678 
" clip-path="url(#pbed31aec75)" style="fill: none; stroke: #008000; stroke-opacity: 0.2; stroke-linecap: round"/>
   </g>
   <g id="line2d_24">
    <path d="M 65.63083 296.202851 
L 71.296563 288.487488 
L 76.962297 301.060051 
L 82.62803 277.651777 
L 88.293764 269.073298 
L 93.959497 265.778746 
L 99.62523 258.091822 
L 105.290964 243.686812 
L 110.956697 251.915289 
L 116.622431 257.59264 
L 122.288164 250.47666 
L 127.953897 244.208866 
L 133.619631 241.785526 
L 139.285364 236.620716 
L 144.951098 251.75485 
L 150.616831 229.753681 
L 156.282564 217.432308 
L 161.948298 282.999009 
L 167.614031 291.51272 
L 173.279765 278.231948 
L 178.945498 279.710105 
L 184.611231 280.409663 
L 190.276965 278.076194 
L 195.942698 299.705581 
L 201.608432 277.027141 
L 207.274165 280.440288 
L 212.939898 274.336176 
L 218.605632 275.166186 
L 224.271365 281.100032 
L 229.937099 266.561632 
L 235.602832 275.320344 
L 241.268565 276.518657 
L 246.934299 278.556492 
L 252.600032 270.845756 
L 258.265766 266.965726 
L 263.931499 269.906484 
L 269.597232 280.888398 
L 275.262966 278.133198 
L 280.928699 264.080248 
L 286.594433 278.680318 
L 292.260166 267.522251 
L 297.925899 259.643238 
L 303.591633 275.29601 
L 309.257366 277.000938 
L 314.9231 286.079133 
L 320.588833 277.933058 
L 326.254566 279.441629 
L 331.9203 284.347274 
L 337.586033 278.255239 
L 343.251767 291.864481 
L 348.9175 275.205384 
L 354.583233 263.049395 
L 360.248967 274.513328 
L 365.9147 268.832702 
L 371.580434 268.270902 
L 377.246167 271.019111 
L 382.9119 327.64642 
L 388.577634 351.033278 
L 394.243367 352.595367 
L 399.909101 353.847133 
L 405.574834 361.315917 
L 411.240567 351.226088 
L 416.906301 352.697109 
L 422.572034 342.921159 
L 428.237768 346.867622 
L 433.903501 351.846042 
L 439.569234 355.453545 
L 445.234968 343.849044 
L 450.900701 346.107546 
L 456.566435 348.732333 
L 462.232168 342.399166 
L 467.897901 339.213619 
L 473.563635 342.52637 
L 479.229368 331.829493 
L 484.895102 333.276113 
L 490.560835 337.943047 
L 496.226568 340.885827 
L 501.892302 339.909177 
L 507.558035 340.621438 
L 513.223769 341.210909 
L 518.889502 340.332759 
L 524.555235 339.656311 
L 530.220969 340.258302 
L 535.886702 346.218327 
L 541.552436 340.098255 
L 547.218169 344.349564 
L 552.883902 337.434166 
L 558.549636 345.04094 
L 564.215369 336.924007 
L 569.881103 343.825374 
L 575.546836 343.446866 
L 581.212569 347.883464 
L 586.878303 341.226715 
L 592.544036 347.262127 
L 598.20977 339.09845 
L 603.875503 340.755791 
L 609.541236 345.099573 
L 615.20697 341.182289 
L 620.872703 335.42782 
L 626.538437 328.8332 
" clip-path="url(#pbed31aec75)" style="fill: none; stroke: #008000; stroke-opacity: 0.2; stroke-linecap: round"/>
   </g>
   <g id="line2d_25">
    <path d="M 65.63083 57.0062 
L 71.296563 57.794356 
L 76.962297 59.306715 
L 82.62803 58.216532 
L 88.293764 61.400623 
L 93.959497 67.499968 
L 99.62523 74.524334 
L 105.290964 80.992275 
L 110.956697 90.997229 
L 116.622431 98.320428 
L 122.288164 113.824597 
L 127.953897 132.935735 
L 133.619631 143.045972 
L 139.285364 152.795914 
L 144.951098 182.974322 
L 150.616831 191.414263 
L 156.282564 202.647818 
L 161.948298 226.373171 
L 167.614031 236.379359 
L 173.279765 255.084946 
L 178.945498 275.451163 
L 184.611231 290.440878 
L 190.276965 280.327537 
L 195.942698 294.7679 
L 201.608432 278.08921 
L 207.274165 295.877554 
L 212.939898 297.379076 
L 218.605632 293.589181 
L 224.271365 300.589628 
L 229.937099 297.025482 
L 235.602832 306.468459 
L 241.268565 305.071427 
L 246.934299 307.886593 
L 252.600032 305.311661 
L 258.265766 316.122408 
L 263.931499 312.475342 
L 269.597232 310.105621 
L 275.262966 301.112747 
L 280.928699 303.400513 
L 286.594433 300.349458 
L 292.260166 301.547223 
L 297.925899 314.395934 
L 303.591633 321.994265 
L 309.257366 317.217698 
L 314.9231 335.01257 
L 320.588833 327.931912 
L 326.254566 327.836105 
L 331.9203 330.201041 
L 337.586033 327.06059 
L 343.251767 326.139451 
L 348.9175 324.262741 
L 354.583233 311.835798 
L 360.248967 320.519718 
L 365.9147 332.738167 
L 371.580434 327.983571 
L 377.246167 328.012079 
L 382.9119 343.040213 
L 388.577634 350.1603 
L 394.243367 333.542116 
L 399.909101 339.307762 
L 405.574834 334.820266 
L 411.240567 332.787487 
L 416.906301 331.845132 
L 422.572034 341.19239 
L 428.237768 335.106192 
L 433.903501 339.319121 
L 439.569234 342.322332 
L 445.234968 346.486318 
L 450.900701 351.089489 
L 456.566435 352.146594 
L 462.232168 349.865657 
L 467.897901 353.727431 
L 473.563635 357.175843 
L 479.229368 352.061599 
L 484.895102 353.330923 
L 490.560835 359.176559 
L 496.226568 362.229614 
L 501.892302 364.050292 
L 507.558035 370.614229 
L 513.223769 369.488461 
L 518.889502 379.811471 
L 524.555235 382.475894 
L 530.220969 381.211146 
L 535.886702 385.922421 
L 541.552436 390.04 
L 547.218169 379.159357 
L 552.883902 378.24634 
L 558.549636 372.398769 
L 564.215369 375.704055 
L 569.881103 381.021441 
L 575.546836 380.794838 
L 581.212569 378.008795 
L 586.878303 374.876863 
L 592.544036 376.426203 
L 598.20977 378.625228 
L 603.875503 376.508778 
L 609.541236 377.421693 
L 615.20697 376.154368 
L 620.872703 373.190687 
L 626.538437 373.480573 
" clip-path="url(#pbed31aec75)" style="fill: none; stroke: #800080; stroke-linecap: round"/>
   </g>
   <g id="patch_3">
    <path d="M 65.63 390.04 
L 65.63 57.0062 
" style="fill: none; stroke: #ffffff; stroke-width: 0.8; stroke-linejoin: miter; stroke-linecap: square"/>
   </g>
   <g id="patch_4">
    <path d="M 632.205 390.04 
L 632.205 57.0062 
" style="fill: none; stroke: #ffffff; stroke-width: 0.8; stroke-linejoin: miter; stroke-linecap: square"/>
   </g>
   <g id="patch_5">
    <path d="M 65.63 390.04 
L 632.205 390.04 
" style="fill: none; stroke: #ffffff; stroke-width: 0.8; stroke-linejoin: miter; stroke-linecap: square"/>
   </g>
   <g id="patch_6">
    <path d="M 65.63 57.0062 
L 632.205 57.0062 
" style="fill: none; stroke: #ffffff; stroke-width: 0.8; stroke-linejoin: miter; stroke-linecap: square"/>
   </g>
   <g id="legend_1">
    <g id="line2d_26">
     <path d="M 97.385341 41.274494 
L 105.715341 41.274494 
L 114.045341 41.274494 
" style="fill: none; stroke: #0000ff; stroke-width: 1.5; stroke-linecap: round"/>
    </g>
    <g id="text_22">
     <!-- Mean Reward -->
     <g style="fill: #262626" transform="translate(120.709341 44.189994) scale(0.0833 -0.0833)">
      <defs>
       <path id="DejaVuSans-4d" d="M 628 4666 
L 1569 4666 
L 2759 1491 
L 3956 4666 
L 4897 4666 
L 4897 0 
L 4281 0 
L 4281 4097 
L 3078 897 
L 2444 897 
L 1241 4097 
L 1241 0 
L 628 0 
L 628 4666 
z
" transform="scale(0.015625)"/>
       <path id="DejaVuSans-6e" d="M 3513 2113 
L 3513 0 
L 2938 0 
L 2938 2094 
Q 2938 2591 2744 2837 
Q 2550 3084 2163 3084 
Q 1697 3084 1428 2787 
Q 1159 2491 1159 1978 
L 1159 0 
L 581 0 
L 581 3500 
L 1159 3500 
L 1159 2956 
Q 1366 3272 1645 3428 
Q 1925 3584 2291 3584 
Q 2894 3584 3203 3211 
Q 3513 2838 3513 2113 
z
" transform="scale(0.015625)"/>
       <path id="DejaVuSans-20" transform="scale(0.015625)"/>
      </defs>
      <use xlink:href="#DejaVuSans-4d"/>
      <use xlink:href="#DejaVuSans-65" transform="translate(86.279297 0)"/>
      <use xlink:href="#DejaVuSans-61" transform="translate(147.802734 0)"/>
      <use xlink:href="#DejaVuSans-6e" transform="translate(209.082031 0)"/>
      <use xlink:href="#DejaVuSans-20" transform="translate(272.460938 0)"/>
      <use xlink:href="#DejaVuSans-52" transform="translate(304.248047 0)"/>
      <use xlink:href="#DejaVuSans-65" transform="translate(369.230469 0)"/>
      <use xlink:href="#DejaVuSans-77" transform="translate(430.753906 0)"/>
      <use xlink:href="#DejaVuSans-61" transform="translate(512.541016 0)"/>
      <use xlink:href="#DejaVuSans-72" transform="translate(573.820312 0)"/>
      <use xlink:href="#DejaVuSans-64" transform="translate(613.183594 0)"/>
     </g>
    </g>
    <g id="line2d_27">
     <path d="M 193.736108 41.274494 
L 202.066108 41.274494 
L 210.396108 41.274494 
" style="fill: none; stroke: #008000; stroke-opacity: 0.2; stroke-linecap: round"/>
    </g>
    <g id="text_23">
     <!-- Reward (individual runs) -->
     <g style="fill: #262626" transform="translate(217.060108 44.189994) scale(0.0833 -0.0833)">
      <defs>
       <path id="DejaVuSans-28" d="M 1984 4856 
Q 1566 4138 1362 3434 
Q 1159 2731 1159 2009 
Q 1159 1288 1364 580 
Q 1569 -128 1984 -844 
L 1484 -844 
Q 1016 -109 783 600 
Q 550 1309 550 2009 
Q 550 2706 781 3412 
Q 1013 4119 1484 4856 
L 1984 4856 
z
" transform="scale(0.015625)"/>
       <path id="DejaVuSans-69" d="M 603 3500 
L 1178 3500 
L 1178 0 
L 603 0 
L 603 3500 
z
M 603 4863 
L 1178 4863 
L 1178 4134 
L 603 4134 
L 603 4863 
z
" transform="scale(0.015625)"/>
       <path id="DejaVuSans-76" d="M 191 3500 
L 800 3500 
L 1894 563 
L 2988 3500 
L 3597 3500 
L 2284 0 
L 1503 0 
L 191 3500 
z
" transform="scale(0.015625)"/>
       <path id="DejaVuSans-75" d="M 544 1381 
L 544 3500 
L 1119 3500 
L 1119 1403 
Q 1119 906 1312 657 
Q 1506 409 1894 409 
Q 2359 409 2629 706 
Q 2900 1003 2900 1516 
L 2900 3500 
L 3475 3500 
L 3475 0 
L 2900 0 
L 2900 538 
Q 2691 219 2414 64 
Q 2138 -91 1772 -91 
Q 1169 -91 856 284 
Q 544 659 544 1381 
z
M 1991 3584 
L 1991 3584 
z
" transform="scale(0.015625)"/>
       <path id="DejaVuSans-6c" d="M 603 4863 
L 1178 4863 
L 1178 0 
L 603 0 
L 603 4863 
z
" transform="scale(0.015625)"/>
       <path id="DejaVuSans-29" d="M 513 4856 
L 1013 4856 
Q 1481 4119 1714 3412 
Q 1947 2706 1947 2009 
Q 1947 1309 1714 600 
Q 1481 -109 1013 -844 
L 513 -844 
Q 928 -128 1133 580 
Q 1338 1288 1338 2009 
Q 1338 2731 1133 3434 
Q 928 4138 513 4856 
z
" transform="scale(0.015625)"/>
      </defs>
      <use xlink:href="#DejaVuSans-52"/>
      <use xlink:href="#DejaVuSans-65" transform="translate(64.982422 0)"/>
      <use xlink:href="#DejaVuSans-77" transform="translate(126.505859 0)"/>
      <use xlink:href="#DejaVuSans-61" transform="translate(208.292969 0)"/>
      <use xlink:href="#DejaVuSans-72" transform="translate(269.572266 0)"/>
      <use xlink:href="#DejaVuSans-64" transform="translate(308.935547 0)"/>
      <use xlink:href="#DejaVuSans-20" transform="translate(372.412109 0)"/>
      <use xlink:href="#DejaVuSans-28" transform="translate(404.199219 0)"/>
      <use xlink:href="#DejaVuSans-69" transform="translate(443.212891 0)"/>
      <use xlink:href="#DejaVuSans-6e" transform="translate(470.996094 0)"/>
      <use xlink:href="#DejaVuSans-64" transform="translate(534.375 0)"/>
      <use xlink:href="#DejaVuSans-69" transform="translate(597.851562 0)"/>
      <use xlink:href="#DejaVuSans-76" transform="translate(625.634766 0)"/>
      <use xlink:href="#DejaVuSans-69" transform="translate(684.814453 0)"/>
      <use xlink:href="#DejaVuSans-64" transform="translate(712.597656 0)"/>
      <use xlink:href="#DejaVuSans-75" transform="translate(776.074219 0)"/>
      <use xlink:href="#DejaVuSans-61" transform="translate(839.453125 0)"/>
      <use xlink:href="#DejaVuSans-6c" transform="translate(900.732422 0)"/>
      <use xlink:href="#DejaVuSans-20" transform="translate(928.515625 0)"/>
      <use xlink:href="#DejaVuSans-72" transform="translate(960.302734 0)"/>
      <use xlink:href="#DejaVuSans-75" transform="translate(1001.416016 0)"/>
      <use xlink:href="#DejaVuSans-6e" transform="translate(1064.794922 0)"/>
      <use xlink:href="#DejaVuSans-73" transform="translate(1128.173828 0)"/>
      <use xlink:href="#DejaVuSans-29" transform="translate(1180.273438 0)"/>
     </g>
    </g>
    <g id="line2d_28">
     <path d="M 335.286236 41.274494 
L 343.616236 41.274494 
L 351.946236 41.274494 
" style="fill: none; stroke: #800080; stroke-linecap: round"/>
    </g>
    <g id="text_24">
     <!-- Entropy (normalized) -->
     <g style="fill: #262626" transform="translate(358.610236 44.189994) scale(0.0833 -0.0833)">
      <defs>
       <path id="DejaVuSans-45" d="M 628 4666 
L 3578 4666 
L 3578 4134 
L 1259 4134 
L 1259 2753 
L 3481 2753 
L 3481 2222 
L 1259 2222 
L 1259 531 
L 3634 531 
L 3634 0 
L 628 0 
L 628 4666 
z
" transform="scale(0.015625)"/>
       <path id="DejaVuSans-6f" d="M 1959 3097 
Q 1497 3097 1228 2736 
Q 959 2375 959 1747 
Q 959 1119 1226 758 
Q 1494 397 1959 397 
Q 2419 397 2687 759 
Q 2956 1122 2956 1747 
Q 2956 2369 2687 2733 
Q 2419 3097 1959 3097 
z
M 1959 3584 
Q 2709 3584 3137 3096 
Q 3566 2609 3566 1747 
Q 3566 888 3137 398 
Q 2709 -91 1959 -91 
Q 1206 -91 779 398 
Q 353 888 353 1747 
Q 353 2609 779 3096 
Q 1206 3584 1959 3584 
z
" transform="scale(0.015625)"/>
       <path id="DejaVuSans-79" d="M 2059 -325 
Q 1816 -950 1584 -1140 
Q 1353 -1331 966 -1331 
L 506 -1331 
L 506 -850 
L 844 -850 
Q 1081 -850 1212 -737 
Q 1344 -625 1503 -206 
L 1606 56 
L 191 3500 
L 800 3500 
L 1894 763 
L 2988 3500 
L 3597 3500 
L 2059 -325 
z
" transform="scale(0.015625)"/>
       <path id="DejaVuSans-6d" d="M 3328 2828 
Q 3544 3216 3844 3400 
Q 4144 3584 4550 3584 
Q 5097 3584 5394 3201 
Q 5691 2819 5691 2113 
L 5691 0 
L 5113 0 
L 5113 2094 
Q 5113 2597 4934 2840 
Q 4756 3084 4391 3084 
Q 3944 3084 3684 2787 
Q 3425 2491 3425 1978 
L 3425 0 
L 2847 0 
L 2847 2094 
Q 2847 2600 2669 2842 
Q 2491 3084 2119 3084 
Q 1678 3084 1418 2786 
Q 1159 2488 1159 1978 
L 1159 0 
L 581 0 
L 581 3500 
L 1159 3500 
L 1159 2956 
Q 1356 3278 1631 3431 
Q 1906 3584 2284 3584 
Q 2666 3584 2933 3390 
Q 3200 3197 3328 2828 
z
" transform="scale(0.015625)"/>
       <path id="DejaVuSans-7a" d="M 353 3500 
L 3084 3500 
L 3084 2975 
L 922 459 
L 3084 459 
L 3084 0 
L 275 0 
L 275 525 
L 2438 3041 
L 353 3041 
L 353 3500 
z
" transform="scale(0.015625)"/>
      </defs>
      <use xlink:href="#DejaVuSans-45"/>
      <use xlink:href="#DejaVuSans-6e" transform="translate(63.183594 0)"/>
      <use xlink:href="#DejaVuSans-74" transform="translate(126.5625 0)"/>
      <use xlink:href="#DejaVuSans-72" transform="translate(165.771484 0)"/>
      <use xlink:href="#DejaVuSans-6f" transform="translate(204.634766 0)"/>
      <use xlink:href="#DejaVuSans-70" transform="translate(265.816406 0)"/>
      <use xlink:href="#DejaVuSans-79" transform="translate(329.292969 0)"/>
      <use xlink:href="#DejaVuSans-20" transform="translate(388.472656 0)"/>
      <use xlink:href="#DejaVuSans-28" transform="translate(420.259766 0)"/>
      <use xlink:href="#DejaVuSans-6e" transform="translate(459.273438 0)"/>
      <use xlink:href="#DejaVuSans-6f" transform="translate(522.652344 0)"/>
      <use xlink:href="#DejaVuSans-72" transform="translate(583.833984 0)"/>
      <use xlink:href="#DejaVuSans-6d" transform="translate(623.197266 0)"/>
      <use xlink:href="#DejaVuSans-61" transform="translate(720.609375 0)"/>
      <use xlink:href="#DejaVuSans-6c" transform="translate(781.888672 0)"/>
      <use xlink:href="#DejaVuSans-69" transform="translate(809.671875 0)"/>
      <use xlink:href="#DejaVuSans-7a" transform="translate(837.455078 0)"/>
      <use xlink:href="#DejaVuSans-65" transform="translate(889.945312 0)"/>
      <use xlink:href="#DejaVuSans-64" transform="translate(951.46875 0)"/>
      <use xlink:href="#DejaVuSans-29" transform="translate(1014.945312 0)"/>
     </g>
    </g>
    <g id="patch_7">
     <path d="M 463.065833 44.189994 
L 479.725833 44.189994 
L 479.725833 38.358994 
L 463.065833 38.358994 
z
" style="fill: #0000ff; fill-opacity: 0.1"/>
    </g>
    <g id="text_25">
     <!-- Reward Standard Deviation -->
     <g style="fill: #262626" transform="translate(486.389833 44.189994) scale(0.0833 -0.0833)">
      <defs>
       <path id="DejaVuSans-44" d="M 1259 4147 
L 1259 519 
L 2022 519 
Q 2988 519 3436 956 
Q 3884 1394 3884 2338 
Q 3884 3275 3436 3711 
Q 2988 4147 2022 4147 
L 1259 4147 
z
M 628 4666 
L 1925 4666 
Q 3281 4666 3915 4102 
Q 4550 3538 4550 2338 
Q 4550 1131 3912 565 
Q 3275 0 1925 0 
L 628 0 
L 628 4666 
z
" transform="scale(0.015625)"/>
      </defs>
      <use xlink:href="#DejaVuSans-52"/>
      <use xlink:href="#DejaVuSans-65" transform="translate(64.982422 0)"/>
      <use xlink:href="#DejaVuSans-77" transform="translate(126.505859 0)"/>
      <use xlink:href="#DejaVuSans-61" transform="translate(208.292969 0)"/>
      <use xlink:href="#DejaVuSans-72" transform="translate(269.572266 0)"/>
      <use xlink:href="#DejaVuSans-64" transform="translate(308.935547 0)"/>
      <use xlink:href="#DejaVuSans-20" transform="translate(372.412109 0)"/>
      <use xlink:href="#DejaVuSans-53" transform="translate(404.199219 0)"/>
      <use xlink:href="#DejaVuSans-74" transform="translate(467.675781 0)"/>
      <use xlink:href="#DejaVuSans-61" transform="translate(506.884766 0)"/>
      <use xlink:href="#DejaVuSans-6e" transform="translate(568.164062 0)"/>
      <use xlink:href="#DejaVuSans-64" transform="translate(631.542969 0)"/>
      <use xlink:href="#DejaVuSans-61" transform="translate(695.019531 0)"/>
      <use xlink:href="#DejaVuSans-72" transform="translate(756.298828 0)"/>
      <use xlink:href="#DejaVuSans-64" transform="translate(795.662109 0)"/>
      <use xlink:href="#DejaVuSans-20" transform="translate(859.138672 0)"/>
      <use xlink:href="#DejaVuSans-44" transform="translate(890.925781 0)"/>
      <use xlink:href="#DejaVuSans-65" transform="translate(967.927734 0)"/>
      <use xlink:href="#DejaVuSans-76" transform="translate(1029.451172 0)"/>
      <use xlink:href="#DejaVuSans-69" transform="translate(1088.630859 0)"/>
      <use xlink:href="#DejaVuSans-61" transform="translate(1116.414062 0)"/>
      <use xlink:href="#DejaVuSans-74" transform="translate(1177.693359 0)"/>
      <use xlink:href="#DejaVuSans-69" transform="translate(1216.902344 0)"/>
      <use xlink:href="#DejaVuSans-6f" transform="translate(1244.685547 0)"/>
      <use xlink:href="#DejaVuSans-6e" transform="translate(1305.867188 0)"/>
     </g>
    </g>
   </g>
  </g>
  <g id="text_26">
   <!-- Rewards: Pendulum-v1 (Discretized) - GNN (Noise + Entropy) -->
   <g style="fill: #262626" transform="translate(116.6175 17.758125) scale(0.12 -0.12)">
    <defs>
     <path id="DejaVuSans-Bold-52" d="M 2297 2597 
Q 2675 2597 2839 2737 
Q 3003 2878 3003 3200 
Q 3003 3519 2839 3656 
Q 2675 3794 2297 3794 
L 1791 3794 
L 1791 2597 
L 2297 2597 
z
M 1791 1766 
L 1791 0 
L 588 0 
L 588 4666 
L 2425 4666 
Q 3347 4666 3776 4356 
Q 4206 4047 4206 3378 
Q 4206 2916 3982 2619 
Q 3759 2322 3309 2181 
Q 3556 2125 3751 1926 
Q 3947 1728 4147 1325 
L 4800 0 
L 3519 0 
L 2950 1159 
Q 2778 1509 2601 1637 
Q 2425 1766 2131 1766 
L 1791 1766 
z
" transform="scale(0.015625)"/>
     <path id="DejaVuSans-Bold-65" d="M 4031 1759 
L 4031 1441 
L 1416 1441 
Q 1456 1047 1700 850 
Q 1944 653 2381 653 
Q 2734 653 3104 758 
Q 3475 863 3866 1075 
L 3866 213 
Q 3469 63 3072 -14 
Q 2675 -91 2278 -91 
Q 1328 -91 801 392 
Q 275 875 275 1747 
Q 275 2603 792 3093 
Q 1309 3584 2216 3584 
Q 3041 3584 3536 3087 
Q 4031 2591 4031 1759 
z
M 2881 2131 
Q 2881 2450 2695 2645 
Q 2509 2841 2209 2841 
Q 1884 2841 1681 2658 
Q 1478 2475 1428 2131 
L 2881 2131 
z
" transform="scale(0.015625)"/>
     <path id="DejaVuSans-Bold-77" d="M 225 3500 
L 1313 3500 
L 1900 1088 
L 2491 3500 
L 3425 3500 
L 4013 1113 
L 4603 3500 
L 5691 3500 
L 4769 0 
L 3547 0 
L 2956 2406 
L 2369 0 
L 1147 0 
L 225 3500 
z
" transform="scale(0.015625)"/>
     <path id="DejaVuSans-Bold-61" d="M 2106 1575 
Q 1756 1575 1579 1456 
Q 1403 1338 1403 1106 
Q 1403 894 1545 773 
Q 1688 653 1941 653 
Q 2256 653 2472 879 
Q 2688 1106 2688 1447 
L 2688 1575 
L 2106 1575 
z
M 3816 1997 
L 3816 0 
L 2688 0 
L 2688 519 
Q 2463 200 2181 54 
Q 1900 -91 1497 -91 
Q 953 -91 614 226 
Q 275 544 275 1050 
Q 275 1666 698 1953 
Q 1122 2241 2028 2241 
L 2688 2241 
L 2688 2328 
Q 2688 2594 2478 2717 
Q 2269 2841 1825 2841 
Q 1466 2841 1156 2769 
Q 847 2697 581 2553 
L 581 3406 
Q 941 3494 1303 3539 
Q 1666 3584 2028 3584 
Q 2975 3584 3395 3211 
Q 3816 2838 3816 1997 
z
" transform="scale(0.015625)"/>
     <path id="DejaVuSans-Bold-72" d="M 3138 2547 
Q 2991 2616 2845 2648 
Q 2700 2681 2553 2681 
Q 2122 2681 1889 2404 
Q 1656 2128 1656 1613 
L 1656 0 
L 538 0 
L 538 3500 
L 1656 3500 
L 1656 2925 
Q 1872 3269 2151 3426 
Q 2431 3584 2822 3584 
Q 2878 3584 2943 3579 
Q 3009 3575 3134 3559 
L 3138 2547 
z
" transform="scale(0.015625)"/>
     <path id="DejaVuSans-Bold-64" d="M 2919 2988 
L 2919 4863 
L 4044 4863 
L 4044 0 
L 2919 0 
L 2919 506 
Q 2688 197 2409 53 
Q 2131 -91 1766 -91 
Q 1119 -91 703 423 
Q 288 938 288 1747 
Q 288 2556 703 3070 
Q 1119 3584 1766 3584 
Q 2128 3584 2408 3439 
Q 2688 3294 2919 2988 
z
M 2181 722 
Q 2541 722 2730 984 
Q 2919 1247 2919 1747 
Q 2919 2247 2730 2509 
Q 2541 2772 2181 2772 
Q 1825 2772 1636 2509 
Q 1447 2247 1447 1747 
Q 1447 1247 1636 984 
Q 1825 722 2181 722 
z
" transform="scale(0.015625)"/>
     <path id="DejaVuSans-Bold-73" d="M 3272 3391 
L 3272 2541 
Q 2913 2691 2578 2766 
Q 2244 2841 1947 2841 
Q 1628 2841 1473 2761 
Q 1319 2681 1319 2516 
Q 1319 2381 1436 2309 
Q 1553 2238 1856 2203 
L 2053 2175 
Q 2913 2066 3209 1816 
Q 3506 1566 3506 1031 
Q 3506 472 3093 190 
Q 2681 -91 1863 -91 
Q 1516 -91 1145 -36 
Q 775 19 384 128 
L 384 978 
Q 719 816 1070 734 
Q 1422 653 1784 653 
Q 2113 653 2278 743 
Q 2444 834 2444 1013 
Q 2444 1163 2330 1236 
Q 2216 1309 1875 1350 
L 1678 1375 
Q 931 1469 631 1722 
Q 331 1975 331 2491 
Q 331 3047 712 3315 
Q 1094 3584 1881 3584 
Q 2191 3584 2531 3537 
Q 2872 3491 3272 3391 
z
" transform="scale(0.015625)"/>
     <path id="DejaVuSans-Bold-3a" d="M 716 3500 
L 1844 3500 
L 1844 2291 
L 716 2291 
L 716 3500 
z
M 716 1209 
L 1844 1209 
L 1844 0 
L 716 0 
L 716 1209 
z
" transform="scale(0.015625)"/>
     <path id="DejaVuSans-Bold-20" transform="scale(0.015625)"/>
     <path id="DejaVuSans-Bold-50" d="M 588 4666 
L 2584 4666 
Q 3475 4666 3951 4270 
Q 4428 3875 4428 3144 
Q 4428 2409 3951 2014 
Q 3475 1619 2584 1619 
L 1791 1619 
L 1791 0 
L 588 0 
L 588 4666 
z
M 1791 3794 
L 1791 2491 
L 2456 2491 
Q 2806 2491 2997 2661 
Q 3188 2831 3188 3144 
Q 3188 3456 2997 3625 
Q 2806 3794 2456 3794 
L 1791 3794 
z
" transform="scale(0.015625)"/>
     <path id="DejaVuSans-Bold-6e" d="M 4056 2131 
L 4056 0 
L 2931 0 
L 2931 347 
L 2931 1631 
Q 2931 2084 2911 2256 
Q 2891 2428 2841 2509 
Q 2775 2619 2662 2680 
Q 2550 2741 2406 2741 
Q 2056 2741 1856 2470 
Q 1656 2200 1656 1722 
L 1656 0 
L 538 0 
L 538 3500 
L 1656 3500 
L 1656 2988 
Q 1909 3294 2193 3439 
Q 2478 3584 2822 3584 
Q 3428 3584 3742 3212 
Q 4056 2841 4056 2131 
z
" transform="scale(0.015625)"/>
     <path id="DejaVuSans-Bold-75" d="M 500 1363 
L 500 3500 
L 1625 3500 
L 1625 3150 
Q 1625 2866 1622 2436 
Q 1619 2006 1619 1863 
Q 1619 1441 1641 1255 
Q 1663 1069 1716 984 
Q 1784 875 1895 815 
Q 2006 756 2150 756 
Q 2500 756 2700 1025 
Q 2900 1294 2900 1772 
L 2900 3500 
L 4019 3500 
L 4019 0 
L 2900 0 
L 2900 506 
Q 2647 200 2364 54 
Q 2081 -91 1741 -91 
Q 1134 -91 817 281 
Q 500 653 500 1363 
z
" transform="scale(0.015625)"/>
     <path id="DejaVuSans-Bold-6c" d="M 538 4863 
L 1656 4863 
L 1656 0 
L 538 0 
L 538 4863 
z
" transform="scale(0.015625)"/>
     <path id="DejaVuSans-Bold-6d" d="M 3781 2919 
Q 3994 3244 4286 3414 
Q 4578 3584 4928 3584 
Q 5531 3584 5847 3212 
Q 6163 2841 6163 2131 
L 6163 0 
L 5038 0 
L 5038 1825 
Q 5041 1866 5042 1909 
Q 5044 1953 5044 2034 
Q 5044 2406 4934 2573 
Q 4825 2741 4581 2741 
Q 4263 2741 4089 2478 
Q 3916 2216 3909 1719 
L 3909 0 
L 2784 0 
L 2784 1825 
Q 2784 2406 2684 2573 
Q 2584 2741 2328 2741 
Q 2006 2741 1831 2477 
Q 1656 2213 1656 1722 
L 1656 0 
L 531 0 
L 531 3500 
L 1656 3500 
L 1656 2988 
Q 1863 3284 2130 3434 
Q 2397 3584 2719 3584 
Q 3081 3584 3359 3409 
Q 3638 3234 3781 2919 
z
" transform="scale(0.015625)"/>
     <path id="DejaVuSans-Bold-2d" d="M 347 2297 
L 2309 2297 
L 2309 1388 
L 347 1388 
L 347 2297 
z
" transform="scale(0.015625)"/>
     <path id="DejaVuSans-Bold-76" d="M 97 3500 
L 1216 3500 
L 2088 1081 
L 2956 3500 
L 4078 3500 
L 2700 0 
L 1472 0 
L 97 3500 
z
" transform="scale(0.015625)"/>
     <path id="DejaVuSans-Bold-31" d="M 750 831 
L 1813 831 
L 1813 3847 
L 722 3622 
L 722 4441 
L 1806 4666 
L 2950 4666 
L 2950 831 
L 4013 831 
L 4013 0 
L 750 0 
L 750 831 
z
" transform="scale(0.015625)"/>
     <path id="DejaVuSans-Bold-28" d="M 2413 -844 
L 1484 -844 
Q 1006 -72 778 623 
Q 550 1319 550 2003 
Q 550 2688 779 3389 
Q 1009 4091 1484 4856 
L 2413 4856 
Q 2013 4116 1813 3408 
Q 1613 2700 1613 2009 
Q 1613 1319 1811 609 
Q 2009 -100 2413 -844 
z
" transform="scale(0.015625)"/>
     <path id="DejaVuSans-Bold-44" d="M 1791 3756 
L 1791 909 
L 2222 909 
Q 2959 909 3348 1275 
Q 3738 1641 3738 2338 
Q 3738 3031 3350 3393 
Q 2963 3756 2222 3756 
L 1791 3756 
z
M 588 4666 
L 1856 4666 
Q 2919 4666 3439 4514 
Q 3959 4363 4331 4000 
Q 4659 3684 4818 3271 
Q 4978 2859 4978 2338 
Q 4978 1809 4818 1395 
Q 4659 981 4331 666 
Q 3956 303 3431 151 
Q 2906 0 1856 0 
L 588 0 
L 588 4666 
z
" transform="scale(0.015625)"/>
     <path id="DejaVuSans-Bold-69" d="M 538 3500 
L 1656 3500 
L 1656 0 
L 538 0 
L 538 3500 
z
M 538 4863 
L 1656 4863 
L 1656 3950 
L 538 3950 
L 538 4863 
z
" transform="scale(0.015625)"/>
     <path id="DejaVuSans-Bold-63" d="M 3366 3391 
L 3366 2478 
Q 3138 2634 2908 2709 
Q 2678 2784 2431 2784 
Q 1963 2784 1702 2511 
Q 1441 2238 1441 1747 
Q 1441 1256 1702 982 
Q 1963 709 2431 709 
Q 2694 709 2930 787 
Q 3166 866 3366 1019 
L 3366 103 
Q 3103 6 2833 -42 
Q 2563 -91 2291 -91 
Q 1344 -91 809 395 
Q 275 881 275 1747 
Q 275 2613 809 3098 
Q 1344 3584 2291 3584 
Q 2566 3584 2833 3536 
Q 3100 3488 3366 3391 
z
" transform="scale(0.015625)"/>
     <path id="DejaVuSans-Bold-74" d="M 1759 4494 
L 1759 3500 
L 2913 3500 
L 2913 2700 
L 1759 2700 
L 1759 1216 
Q 1759 972 1856 886 
Q 1953 800 2241 800 
L 2816 800 
L 2816 0 
L 1856 0 
Q 1194 0 917 276 
Q 641 553 641 1216 
L 641 2700 
L 84 2700 
L 84 3500 
L 641 3500 
L 641 4494 
L 1759 4494 
z
" transform="scale(0.015625)"/>
     <path id="DejaVuSans-Bold-7a" d="M 366 3500 
L 3419 3500 
L 3419 2719 
L 1575 800 
L 3419 800 
L 3419 0 
L 288 0 
L 288 781 
L 2131 2700 
L 366 2700 
L 366 3500 
z
" transform="scale(0.015625)"/>
     <path id="DejaVuSans-Bold-29" d="M 513 -844 
Q 913 -100 1113 609 
Q 1313 1319 1313 2009 
Q 1313 2700 1113 3408 
Q 913 4116 513 4856 
L 1441 4856 
Q 1916 4091 2145 3389 
Q 2375 2688 2375 2003 
Q 2375 1319 2147 623 
Q 1919 -72 1441 -844 
L 513 -844 
z
" transform="scale(0.015625)"/>
     <path id="DejaVuSans-Bold-47" d="M 4781 347 
Q 4331 128 3847 18 
Q 3363 -91 2847 -91 
Q 1681 -91 1000 561 
Q 319 1213 319 2328 
Q 319 3456 1012 4103 
Q 1706 4750 2913 4750 
Q 3378 4750 3804 4662 
Q 4231 4575 4609 4403 
L 4609 3438 
Q 4219 3659 3833 3768 
Q 3447 3878 3059 3878 
Q 2341 3878 1952 3476 
Q 1563 3075 1563 2328 
Q 1563 1588 1938 1184 
Q 2313 781 3003 781 
Q 3191 781 3352 804 
Q 3513 828 3641 878 
L 3641 1784 
L 2906 1784 
L 2906 2591 
L 4781 2591 
L 4781 347 
z
" transform="scale(0.015625)"/>
     <path id="DejaVuSans-Bold-4e" d="M 588 4666 
L 1931 4666 
L 3628 1466 
L 3628 4666 
L 4769 4666 
L 4769 0 
L 3425 0 
L 1728 3200 
L 1728 0 
L 588 0 
L 588 4666 
z
" transform="scale(0.015625)"/>
     <path id="DejaVuSans-Bold-6f" d="M 2203 2784 
Q 1831 2784 1636 2517 
Q 1441 2250 1441 1747 
Q 1441 1244 1636 976 
Q 1831 709 2203 709 
Q 2569 709 2762 976 
Q 2956 1244 2956 1747 
Q 2956 2250 2762 2517 
Q 2569 2784 2203 2784 
z
M 2203 3584 
Q 3106 3584 3614 3096 
Q 4122 2609 4122 1747 
Q 4122 884 3614 396 
Q 3106 -91 2203 -91 
Q 1297 -91 786 396 
Q 275 884 275 1747 
Q 275 2609 786 3096 
Q 1297 3584 2203 3584 
z
" transform="scale(0.015625)"/>
     <path id="DejaVuSans-Bold-2b" d="M 3053 4013 
L 3053 2375 
L 4684 2375 
L 4684 1638 
L 3053 1638 
L 3053 0 
L 2309 0 
L 2309 1638 
L 678 1638 
L 678 2375 
L 2309 2375 
L 2309 4013 
L 3053 4013 
z
" transform="scale(0.015625)"/>
     <path id="DejaVuSans-Bold-45" d="M 588 4666 
L 3834 4666 
L 3834 3756 
L 1791 3756 
L 1791 2888 
L 3713 2888 
L 3713 1978 
L 1791 1978 
L 1791 909 
L 3903 909 
L 3903 0 
L 588 0 
L 588 4666 
z
" transform="scale(0.015625)"/>
     <path id="DejaVuSans-Bold-70" d="M 1656 506 
L 1656 -1331 
L 538 -1331 
L 538 3500 
L 1656 3500 
L 1656 2988 
Q 1888 3294 2169 3439 
Q 2450 3584 2816 3584 
Q 3463 3584 3878 3070 
Q 4294 2556 4294 1747 
Q 4294 938 3878 423 
Q 3463 -91 2816 -91 
Q 2450 -91 2169 54 
Q 1888 200 1656 506 
z
M 2400 2772 
Q 2041 2772 1848 2508 
Q 1656 2244 1656 1747 
Q 1656 1250 1848 986 
Q 2041 722 2400 722 
Q 2759 722 2948 984 
Q 3138 1247 3138 1747 
Q 3138 2247 2948 2509 
Q 2759 2772 2400 2772 
z
" transform="scale(0.015625)"/>
     <path id="DejaVuSans-Bold-79" d="M 78 3500 
L 1197 3500 
L 2138 1125 
L 2938 3500 
L 4056 3500 
L 2584 -331 
Q 2363 -916 2067 -1148 
Q 1772 -1381 1288 -1381 
L 641 -1381 
L 641 -647 
L 991 -647 
Q 1275 -647 1404 -556 
Q 1534 -466 1606 -231 
L 1638 -134 
L 78 3500 
z
" transform="scale(0.015625)"/>
    </defs>
    <use xlink:href="#DejaVuSans-Bold-52"/>
    <use xlink:href="#DejaVuSans-Bold-65" transform="translate(77.001953 0)"/>
    <use xlink:href="#DejaVuSans-Bold-77" transform="translate(144.824219 0)"/>
    <use xlink:href="#DejaVuSans-Bold-61" transform="translate(237.207031 0)"/>
    <use xlink:href="#DejaVuSans-Bold-72" transform="translate(304.6875 0)"/>
    <use xlink:href="#DejaVuSans-Bold-64" transform="translate(354.003906 0)"/>
    <use xlink:href="#DejaVuSans-Bold-73" transform="translate(425.585938 0)"/>
    <use xlink:href="#DejaVuSans-Bold-3a" transform="translate(485.107422 0)"/>
    <use xlink:href="#DejaVuSans-Bold-20" transform="translate(525.097656 0)"/>
    <use xlink:href="#DejaVuSans-Bold-50" transform="translate(559.912109 0)"/>
    <use xlink:href="#DejaVuSans-Bold-65" transform="translate(633.203125 0)"/>
    <use xlink:href="#DejaVuSans-Bold-6e" transform="translate(701.025391 0)"/>
    <use xlink:href="#DejaVuSans-Bold-64" transform="translate(772.216797 0)"/>
    <use xlink:href="#DejaVuSans-Bold-75" transform="translate(843.798828 0)"/>
    <use xlink:href="#DejaVuSans-Bold-6c" transform="translate(914.990234 0)"/>
    <use xlink:href="#DejaVuSans-Bold-75" transform="translate(949.267578 0)"/>
    <use xlink:href="#DejaVuSans-Bold-6d" transform="translate(1020.458984 0)"/>
    <use xlink:href="#DejaVuSans-Bold-2d" transform="translate(1124.658203 0)"/>
    <use xlink:href="#DejaVuSans-Bold-76" transform="translate(1166.162109 0)"/>
    <use xlink:href="#DejaVuSans-Bold-31" transform="translate(1231.347656 0)"/>
    <use xlink:href="#DejaVuSans-Bold-20" transform="translate(1300.927734 0)"/>
    <use xlink:href="#DejaVuSans-Bold-28" transform="translate(1335.742188 0)"/>
    <use xlink:href="#DejaVuSans-Bold-44" transform="translate(1381.445312 0)"/>
    <use xlink:href="#DejaVuSans-Bold-69" transform="translate(1464.453125 0)"/>
    <use xlink:href="#DejaVuSans-Bold-73" transform="translate(1498.730469 0)"/>
    <use xlink:href="#DejaVuSans-Bold-63" transform="translate(1558.251953 0)"/>
    <use xlink:href="#DejaVuSans-Bold-72" transform="translate(1617.529297 0)"/>
    <use xlink:href="#DejaVuSans-Bold-65" transform="translate(1666.845703 0)"/>
    <use xlink:href="#DejaVuSans-Bold-74" transform="translate(1734.667969 0)"/>
    <use xlink:href="#DejaVuSans-Bold-69" transform="translate(1782.470703 0)"/>
    <use xlink:href="#DejaVuSans-Bold-7a" transform="translate(1816.748047 0)"/>
    <use xlink:href="#DejaVuSans-Bold-65" transform="translate(1874.951172 0)"/>
    <use xlink:href="#DejaVuSans-Bold-64" transform="translate(1942.773438 0)"/>
    <use xlink:href="#DejaVuSans-Bold-29" transform="translate(2014.355469 0)"/>
    <use xlink:href="#DejaVuSans-Bold-20" transform="translate(2060.058594 0)"/>
    <use xlink:href="#DejaVuSans-Bold-2d" transform="translate(2094.873047 0)"/>
    <use xlink:href="#DejaVuSans-Bold-20" transform="translate(2136.376953 0)"/>
    <use xlink:href="#DejaVuSans-Bold-47" transform="translate(2171.191406 0)"/>
    <use xlink:href="#DejaVuSans-Bold-4e" transform="translate(2253.271484 0)"/>
    <use xlink:href="#DejaVuSans-Bold-4e" transform="translate(2336.962891 0)"/>
    <use xlink:href="#DejaVuSans-Bold-20" transform="translate(2420.654297 0)"/>
    <use xlink:href="#DejaVuSans-Bold-28" transform="translate(2455.46875 0)"/>
    <use xlink:href="#DejaVuSans-Bold-4e" transform="translate(2501.171875 0)"/>
    <use xlink:href="#DejaVuSans-Bold-6f" transform="translate(2584.863281 0)"/>
    <use xlink:href="#DejaVuSans-Bold-69" transform="translate(2653.564453 0)"/>
    <use xlink:href="#DejaVuSans-Bold-73" transform="translate(2687.841797 0)"/>
    <use xlink:href="#DejaVuSans-Bold-65" transform="translate(2747.363281 0)"/>
    <use xlink:href="#DejaVuSans-Bold-20" transform="translate(2815.185547 0)"/>
    <use xlink:href="#DejaVuSans-Bold-2b" transform="translate(2850 0)"/>
    <use xlink:href="#DejaVuSans-Bold-20" transform="translate(2933.789062 0)"/>
    <use xlink:href="#DejaVuSans-Bold-45" transform="translate(2968.603516 0)"/>
    <use xlink:href="#DejaVuSans-Bold-6e" transform="translate(3036.914062 0)"/>
    <use xlink:href="#DejaVuSans-Bold-74" transform="translate(3108.105469 0)"/>
    <use xlink:href="#DejaVuSans-Bold-72" transform="translate(3155.908203 0)"/>
    <use xlink:href="#DejaVuSans-Bold-6f" transform="translate(3205.224609 0)"/>
    <use xlink:href="#DejaVuSans-Bold-70" transform="translate(3273.925781 0)"/>
    <use xlink:href="#DejaVuSans-Bold-79" transform="translate(3345.507812 0)"/>
    <use xlink:href="#DejaVuSans-Bold-29" transform="translate(3410.693359 0)"/>
   </g>
  </g>
 </g>
 <defs>
  <clipPath id="pbed31aec75">
   <rect x="65.63" y="57.0062" width="566.575" height="333.0338"/>
  </clipPath>
 </defs>
</svg>
