<?xml version="1.0" encoding="utf-8" standalone="no"?>
<!DOCTYPE svg PUBLIC "-//W3C//DTD SVG 1.1//EN"
  "http://www.w3.org/Graphics/SVG/1.1/DTD/svg11.dtd">
<svg xmlns:xlink="http://www.w3.org/1999/xlink" width="648pt" height="432pt" viewBox="0 0 648 432" xmlns="http://www.w3.org/2000/svg" version="1.1">
 <metadata>
  <rdf:RDF xmlns:dc="http://purl.org/dc/elements/1.1/" xmlns:cc="http://creativecommons.org/ns#" xmlns:rdf="http://www.w3.org/1999/02/22-rdf-syntax-ns#">
   <cc:Work>
    <dc:type rdf:resource="http://purl.org/dc/dcmitype/StillImage"/>
    <dc:date>2025-07-23T12:54:10.004192</dc:date>
    <dc:format>image/svg+xml</dc:format>
    <dc:creator>
     <cc:Agent>
      <dc:title>Matplotlib v3.10.0, https://matplotlib.org/</dc:title>
     </cc:Agent>
    </dc:creator>
   </cc:Work>
  </rdf:RDF>
 </metadata>
 <defs>
  <style type="text/css">*{stroke-linejoin: round; stroke-linecap: butt}</style>
 </defs>
 <g id="figure_1">
  <g id="patch_1">
   <path d="M 0 432 
L 648 432 
L 648 0 
L 0 0 
z
" style="fill: #ffffff"/>
  </g>
  <g id="axes_1">
   <g id="patch_2">
    <path d="M 65.63 390.04 
L 632.205 390.04 
L 632.205 57.0062 
L 65.63 57.0062 
z
" style="fill: #eaeaf2"/>
   </g>
   <g id="matplotlib.axis_1">
    <g id="xtick_1">
     <g id="line2d_1">
      <path d="M 65.63083 390.04 
L 65.63083 57.0062 
" clip-path="url(#pb22b2298b0)" style="fill: none; stroke: #ffffff; stroke-width: 0.8; stroke-linecap: round"/>
     </g>
     <g id="text_1">
      <!-- 0.00 -->
      <g style="fill: #262626" transform="translate(54.498017 404.638438) scale(0.1 -0.1)">
       <defs>
        <path id="DejaVuSans-30" d="M 2034 4250 
Q 1547 4250 1301 3770 
Q 1056 3291 1056 2328 
Q 1056 1369 1301 889 
Q 1547 409 2034 409 
Q 2525 409 2770 889 
Q 3016 1369 3016 2328 
Q 3016 3291 2770 3770 
Q 2525 4250 2034 4250 
z
M 2034 4750 
Q 2819 4750 3233 4129 
Q 3647 3509 3647 2328 
Q 3647 1150 3233 529 
Q 2819 -91 2034 -91 
Q 1250 -91 836 529 
Q 422 1150 422 2328 
Q 422 3509 836 4129 
Q 1250 4750 2034 4750 
z
" transform="scale(0.015625)"/>
        <path id="DejaVuSans-2e" d="M 684 794 
L 1344 794 
L 1344 0 
L 684 0 
L 684 794 
z
" transform="scale(0.015625)"/>
       </defs>
       <use xlink:href="#DejaVuSans-30"/>
       <use xlink:href="#DejaVuSans-2e" transform="translate(63.623047 0)"/>
       <use xlink:href="#DejaVuSans-30" transform="translate(95.410156 0)"/>
       <use xlink:href="#DejaVuSans-30" transform="translate(159.033203 0)"/>
      </g>
     </g>
    </g>
    <g id="xtick_2">
     <g id="line2d_2">
      <path d="M 134.792615 390.04 
L 134.792615 57.0062 
" clip-path="url(#pb22b2298b0)" style="fill: none; stroke: #ffffff; stroke-width: 0.8; stroke-linecap: round"/>
     </g>
     <g id="text_2">
      <!-- 0.25 -->
      <g style="fill: #262626" transform="translate(123.659802 404.638438) scale(0.1 -0.1)">
       <defs>
        <path id="DejaVuSans-32" d="M 1228 531 
L 3431 531 
L 3431 0 
L 469 0 
L 469 531 
Q 828 903 1448 1529 
Q 2069 2156 2228 2338 
Q 2531 2678 2651 2914 
Q 2772 3150 2772 3378 
Q 2772 3750 2511 3984 
Q 2250 4219 1831 4219 
Q 1534 4219 1204 4116 
Q 875 4013 500 3803 
L 500 4441 
Q 881 4594 1212 4672 
Q 1544 4750 1819 4750 
Q 2544 4750 2975 4387 
Q 3406 4025 3406 3419 
Q 3406 3131 3298 2873 
Q 3191 2616 2906 2266 
Q 2828 2175 2409 1742 
Q 1991 1309 1228 531 
z
" transform="scale(0.015625)"/>
        <path id="DejaVuSans-35" d="M 691 4666 
L 3169 4666 
L 3169 4134 
L 1269 4134 
L 1269 2991 
Q 1406 3038 1543 3061 
Q 1681 3084 1819 3084 
Q 2600 3084 3056 2656 
Q 3513 2228 3513 1497 
Q 3513 744 3044 326 
Q 2575 -91 1722 -91 
Q 1428 -91 1123 -41 
Q 819 9 494 109 
L 494 744 
Q 775 591 1075 516 
Q 1375 441 1709 441 
Q 2250 441 2565 725 
Q 2881 1009 2881 1497 
Q 2881 1984 2565 2268 
Q 2250 2553 1709 2553 
Q 1456 2553 1204 2497 
Q 953 2441 691 2322 
L 691 4666 
z
" transform="scale(0.015625)"/>
       </defs>
       <use xlink:href="#DejaVuSans-30"/>
       <use xlink:href="#DejaVuSans-2e" transform="translate(63.623047 0)"/>
       <use xlink:href="#DejaVuSans-32" transform="translate(95.410156 0)"/>
       <use xlink:href="#DejaVuSans-35" transform="translate(159.033203 0)"/>
      </g>
     </g>
    </g>
    <g id="xtick_3">
     <g id="line2d_3">
      <path d="M 203.954399 390.04 
L 203.954399 57.0062 
" clip-path="url(#pb22b2298b0)" style="fill: none; stroke: #ffffff; stroke-width: 0.8; stroke-linecap: round"/>
     </g>
     <g id="text_3">
      <!-- 0.50 -->
      <g style="fill: #262626" transform="translate(192.821587 404.638438) scale(0.1 -0.1)">
       <use xlink:href="#DejaVuSans-30"/>
       <use xlink:href="#DejaVuSans-2e" transform="translate(63.623047 0)"/>
       <use xlink:href="#DejaVuSans-35" transform="translate(95.410156 0)"/>
       <use xlink:href="#DejaVuSans-30" transform="translate(159.033203 0)"/>
      </g>
     </g>
    </g>
    <g id="xtick_4">
     <g id="line2d_4">
      <path d="M 273.116184 390.04 
L 273.116184 57.0062 
" clip-path="url(#pb22b2298b0)" style="fill: none; stroke: #ffffff; stroke-width: 0.8; stroke-linecap: round"/>
     </g>
     <g id="text_4">
      <!-- 0.75 -->
      <g style="fill: #262626" transform="translate(261.983371 404.638438) scale(0.1 -0.1)">
       <defs>
        <path id="DejaVuSans-37" d="M 525 4666 
L 3525 4666 
L 3525 4397 
L 1831 0 
L 1172 0 
L 2766 4134 
L 525 4134 
L 525 4666 
z
" transform="scale(0.015625)"/>
       </defs>
       <use xlink:href="#DejaVuSans-30"/>
       <use xlink:href="#DejaVuSans-2e" transform="translate(63.623047 0)"/>
       <use xlink:href="#DejaVuSans-37" transform="translate(95.410156 0)"/>
       <use xlink:href="#DejaVuSans-35" transform="translate(159.033203 0)"/>
      </g>
     </g>
    </g>
    <g id="xtick_5">
     <g id="line2d_5">
      <path d="M 342.277969 390.04 
L 342.277969 57.0062 
" clip-path="url(#pb22b2298b0)" style="fill: none; stroke: #ffffff; stroke-width: 0.8; stroke-linecap: round"/>
     </g>
     <g id="text_5">
      <!-- 1.00 -->
      <g style="fill: #262626" transform="translate(331.145156 404.638438) scale(0.1 -0.1)">
       <defs>
        <path id="DejaVuSans-31" d="M 794 531 
L 1825 531 
L 1825 4091 
L 703 3866 
L 703 4441 
L 1819 4666 
L 2450 4666 
L 2450 531 
L 3481 531 
L 3481 0 
L 794 0 
L 794 531 
z
" transform="scale(0.015625)"/>
       </defs>
       <use xlink:href="#DejaVuSans-31"/>
       <use xlink:href="#DejaVuSans-2e" transform="translate(63.623047 0)"/>
       <use xlink:href="#DejaVuSans-30" transform="translate(95.410156 0)"/>
       <use xlink:href="#DejaVuSans-30" transform="translate(159.033203 0)"/>
      </g>
     </g>
    </g>
    <g id="xtick_6">
     <g id="line2d_6">
      <path d="M 411.439753 390.04 
L 411.439753 57.0062 
" clip-path="url(#pb22b2298b0)" style="fill: none; stroke: #ffffff; stroke-width: 0.8; stroke-linecap: round"/>
     </g>
     <g id="text_6">
      <!-- 1.25 -->
      <g style="fill: #262626" transform="translate(400.306941 404.638438) scale(0.1 -0.1)">
       <use xlink:href="#DejaVuSans-31"/>
       <use xlink:href="#DejaVuSans-2e" transform="translate(63.623047 0)"/>
       <use xlink:href="#DejaVuSans-32" transform="translate(95.410156 0)"/>
       <use xlink:href="#DejaVuSans-35" transform="translate(159.033203 0)"/>
      </g>
     </g>
    </g>
    <g id="xtick_7">
     <g id="line2d_7">
      <path d="M 480.601538 390.04 
L 480.601538 57.0062 
" clip-path="url(#pb22b2298b0)" style="fill: none; stroke: #ffffff; stroke-width: 0.8; stroke-linecap: round"/>
     </g>
     <g id="text_7">
      <!-- 1.50 -->
      <g style="fill: #262626" transform="translate(469.468726 404.638438) scale(0.1 -0.1)">
       <use xlink:href="#DejaVuSans-31"/>
       <use xlink:href="#DejaVuSans-2e" transform="translate(63.623047 0)"/>
       <use xlink:href="#DejaVuSans-35" transform="translate(95.410156 0)"/>
       <use xlink:href="#DejaVuSans-30" transform="translate(159.033203 0)"/>
      </g>
     </g>
    </g>
    <g id="xtick_8">
     <g id="line2d_8">
      <path d="M 549.763323 390.04 
L 549.763323 57.0062 
" clip-path="url(#pb22b2298b0)" style="fill: none; stroke: #ffffff; stroke-width: 0.8; stroke-linecap: round"/>
     </g>
     <g id="text_8">
      <!-- 1.75 -->
      <g style="fill: #262626" transform="translate(538.63051 404.638438) scale(0.1 -0.1)">
       <use xlink:href="#DejaVuSans-31"/>
       <use xlink:href="#DejaVuSans-2e" transform="translate(63.623047 0)"/>
       <use xlink:href="#DejaVuSans-37" transform="translate(95.410156 0)"/>
       <use xlink:href="#DejaVuSans-35" transform="translate(159.033203 0)"/>
      </g>
     </g>
    </g>
    <g id="xtick_9">
     <g id="line2d_9">
      <path d="M 618.925107 390.04 
L 618.925107 57.0062 
" clip-path="url(#pb22b2298b0)" style="fill: none; stroke: #ffffff; stroke-width: 0.8; stroke-linecap: round"/>
     </g>
     <g id="text_9">
      <!-- 2.00 -->
      <g style="fill: #262626" transform="translate(607.792295 404.638438) scale(0.1 -0.1)">
       <use xlink:href="#DejaVuSans-32"/>
       <use xlink:href="#DejaVuSans-2e" transform="translate(63.623047 0)"/>
       <use xlink:href="#DejaVuSans-30" transform="translate(95.410156 0)"/>
       <use xlink:href="#DejaVuSans-30" transform="translate(159.033203 0)"/>
      </g>
     </g>
    </g>
    <g id="text_10">
     <!-- Steps -->
     <g style="fill: #262626" transform="translate(334.927656 418.316562) scale(0.1 -0.1)">
      <defs>
       <path id="DejaVuSans-53" d="M 3425 4513 
L 3425 3897 
Q 3066 4069 2747 4153 
Q 2428 4238 2131 4238 
Q 1616 4238 1336 4038 
Q 1056 3838 1056 3469 
Q 1056 3159 1242 3001 
Q 1428 2844 1947 2747 
L 2328 2669 
Q 3034 2534 3370 2195 
Q 3706 1856 3706 1288 
Q 3706 609 3251 259 
Q 2797 -91 1919 -91 
Q 1588 -91 1214 -16 
Q 841 59 441 206 
L 441 856 
Q 825 641 1194 531 
Q 1563 422 1919 422 
Q 2459 422 2753 634 
Q 3047 847 3047 1241 
Q 3047 1584 2836 1778 
Q 2625 1972 2144 2069 
L 1759 2144 
Q 1053 2284 737 2584 
Q 422 2884 422 3419 
Q 422 4038 858 4394 
Q 1294 4750 2059 4750 
Q 2388 4750 2728 4690 
Q 3069 4631 3425 4513 
z
" transform="scale(0.015625)"/>
       <path id="DejaVuSans-74" d="M 1172 4494 
L 1172 3500 
L 2356 3500 
L 2356 3053 
L 1172 3053 
L 1172 1153 
Q 1172 725 1289 603 
Q 1406 481 1766 481 
L 2356 481 
L 2356 0 
L 1766 0 
Q 1100 0 847 248 
Q 594 497 594 1153 
L 594 3053 
L 172 3053 
L 172 3500 
L 594 3500 
L 594 4494 
L 1172 4494 
z
" transform="scale(0.015625)"/>
       <path id="DejaVuSans-65" d="M 3597 1894 
L 3597 1613 
L 953 1613 
Q 991 1019 1311 708 
Q 1631 397 2203 397 
Q 2534 397 2845 478 
Q 3156 559 3463 722 
L 3463 178 
Q 3153 47 2828 -22 
Q 2503 -91 2169 -91 
Q 1331 -91 842 396 
Q 353 884 353 1716 
Q 353 2575 817 3079 
Q 1281 3584 2069 3584 
Q 2775 3584 3186 3129 
Q 3597 2675 3597 1894 
z
M 3022 2063 
Q 3016 2534 2758 2815 
Q 2500 3097 2075 3097 
Q 1594 3097 1305 2825 
Q 1016 2553 972 2059 
L 3022 2063 
z
" transform="scale(0.015625)"/>
       <path id="DejaVuSans-70" d="M 1159 525 
L 1159 -1331 
L 581 -1331 
L 581 3500 
L 1159 3500 
L 1159 2969 
Q 1341 3281 1617 3432 
Q 1894 3584 2278 3584 
Q 2916 3584 3314 3078 
Q 3713 2572 3713 1747 
Q 3713 922 3314 415 
Q 2916 -91 2278 -91 
Q 1894 -91 1617 61 
Q 1341 213 1159 525 
z
M 3116 1747 
Q 3116 2381 2855 2742 
Q 2594 3103 2138 3103 
Q 1681 3103 1420 2742 
Q 1159 2381 1159 1747 
Q 1159 1113 1420 752 
Q 1681 391 2138 391 
Q 2594 391 2855 752 
Q 3116 1113 3116 1747 
z
" transform="scale(0.015625)"/>
       <path id="DejaVuSans-73" d="M 2834 3397 
L 2834 2853 
Q 2591 2978 2328 3040 
Q 2066 3103 1784 3103 
Q 1356 3103 1142 2972 
Q 928 2841 928 2578 
Q 928 2378 1081 2264 
Q 1234 2150 1697 2047 
L 1894 2003 
Q 2506 1872 2764 1633 
Q 3022 1394 3022 966 
Q 3022 478 2636 193 
Q 2250 -91 1575 -91 
Q 1294 -91 989 -36 
Q 684 19 347 128 
L 347 722 
Q 666 556 975 473 
Q 1284 391 1588 391 
Q 1994 391 2212 530 
Q 2431 669 2431 922 
Q 2431 1156 2273 1281 
Q 2116 1406 1581 1522 
L 1381 1569 
Q 847 1681 609 1914 
Q 372 2147 372 2553 
Q 372 3047 722 3315 
Q 1072 3584 1716 3584 
Q 2034 3584 2315 3537 
Q 2597 3491 2834 3397 
z
" transform="scale(0.015625)"/>
      </defs>
      <use xlink:href="#DejaVuSans-53"/>
      <use xlink:href="#DejaVuSans-74" transform="translate(63.476562 0)"/>
      <use xlink:href="#DejaVuSans-65" transform="translate(102.685547 0)"/>
      <use xlink:href="#DejaVuSans-70" transform="translate(164.208984 0)"/>
      <use xlink:href="#DejaVuSans-73" transform="translate(227.685547 0)"/>
     </g>
    </g>
    <g id="text_11">
     <!-- 1e6 -->
     <g style="fill: #262626" transform="translate(613.326875 417.316562) scale(0.1 -0.1)">
      <defs>
       <path id="DejaVuSans-36" d="M 2113 2584 
Q 1688 2584 1439 2293 
Q 1191 2003 1191 1497 
Q 1191 994 1439 701 
Q 1688 409 2113 409 
Q 2538 409 2786 701 
Q 3034 994 3034 1497 
Q 3034 2003 2786 2293 
Q 2538 2584 2113 2584 
z
M 3366 4563 
L 3366 3988 
Q 3128 4100 2886 4159 
Q 2644 4219 2406 4219 
Q 1781 4219 1451 3797 
Q 1122 3375 1075 2522 
Q 1259 2794 1537 2939 
Q 1816 3084 2150 3084 
Q 2853 3084 3261 2657 
Q 3669 2231 3669 1497 
Q 3669 778 3244 343 
Q 2819 -91 2113 -91 
Q 1303 -91 875 529 
Q 447 1150 447 2328 
Q 447 3434 972 4092 
Q 1497 4750 2381 4750 
Q 2619 4750 2861 4703 
Q 3103 4656 3366 4563 
z
" transform="scale(0.015625)"/>
      </defs>
      <use xlink:href="#DejaVuSans-31"/>
      <use xlink:href="#DejaVuSans-65" transform="translate(63.623047 0)"/>
      <use xlink:href="#DejaVuSans-36" transform="translate(125.146484 0)"/>
     </g>
    </g>
   </g>
   <g id="matplotlib.axis_2">
    <g id="ytick_1">
     <g id="line2d_10">
      <path d="M 65.63 390.04 
L 632.205 390.04 
" clip-path="url(#pb22b2298b0)" style="fill: none; stroke: #ffffff; stroke-width: 0.8; stroke-linecap: round"/>
     </g>
     <g id="text_12">
      <!-- −1600 -->
      <g style="fill: #262626" transform="translate(24.800313 393.839219) scale(0.1 -0.1)">
       <defs>
        <path id="DejaVuSans-2212" d="M 678 2272 
L 4684 2272 
L 4684 1741 
L 678 1741 
L 678 2272 
z
" transform="scale(0.015625)"/>
       </defs>
       <use xlink:href="#DejaVuSans-2212"/>
       <use xlink:href="#DejaVuSans-31" transform="translate(83.789062 0)"/>
       <use xlink:href="#DejaVuSans-36" transform="translate(147.412109 0)"/>
       <use xlink:href="#DejaVuSans-30" transform="translate(211.035156 0)"/>
       <use xlink:href="#DejaVuSans-30" transform="translate(274.658203 0)"/>
      </g>
     </g>
    </g>
    <g id="ytick_2">
     <g id="line2d_11">
      <path d="M 65.63 348.410775 
L 632.205 348.410775 
" clip-path="url(#pb22b2298b0)" style="fill: none; stroke: #ffffff; stroke-width: 0.8; stroke-linecap: round"/>
     </g>
     <g id="text_13">
      <!-- −1400 -->
      <g style="fill: #262626" transform="translate(24.800313 352.209994) scale(0.1 -0.1)">
       <defs>
        <path id="DejaVuSans-34" d="M 2419 4116 
L 825 1625 
L 2419 1625 
L 2419 4116 
z
M 2253 4666 
L 3047 4666 
L 3047 1625 
L 3713 1625 
L 3713 1100 
L 3047 1100 
L 3047 0 
L 2419 0 
L 2419 1100 
L 313 1100 
L 313 1709 
L 2253 4666 
z
" transform="scale(0.015625)"/>
       </defs>
       <use xlink:href="#DejaVuSans-2212"/>
       <use xlink:href="#DejaVuSans-31" transform="translate(83.789062 0)"/>
       <use xlink:href="#DejaVuSans-34" transform="translate(147.412109 0)"/>
       <use xlink:href="#DejaVuSans-30" transform="translate(211.035156 0)"/>
       <use xlink:href="#DejaVuSans-30" transform="translate(274.658203 0)"/>
      </g>
     </g>
    </g>
    <g id="ytick_3">
     <g id="line2d_12">
      <path d="M 65.63 306.78155 
L 632.205 306.78155 
" clip-path="url(#pb22b2298b0)" style="fill: none; stroke: #ffffff; stroke-width: 0.8; stroke-linecap: round"/>
     </g>
     <g id="text_14">
      <!-- −1200 -->
      <g style="fill: #262626" transform="translate(24.800313 310.580769) scale(0.1 -0.1)">
       <use xlink:href="#DejaVuSans-2212"/>
       <use xlink:href="#DejaVuSans-31" transform="translate(83.789062 0)"/>
       <use xlink:href="#DejaVuSans-32" transform="translate(147.412109 0)"/>
       <use xlink:href="#DejaVuSans-30" transform="translate(211.035156 0)"/>
       <use xlink:href="#DejaVuSans-30" transform="translate(274.658203 0)"/>
      </g>
     </g>
    </g>
    <g id="ytick_4">
     <g id="line2d_13">
      <path d="M 65.63 265.152325 
L 632.205 265.152325 
" clip-path="url(#pb22b2298b0)" style="fill: none; stroke: #ffffff; stroke-width: 0.8; stroke-linecap: round"/>
     </g>
     <g id="text_15">
      <!-- −1000 -->
      <g style="fill: #262626" transform="translate(24.800313 268.951544) scale(0.1 -0.1)">
       <use xlink:href="#DejaVuSans-2212"/>
       <use xlink:href="#DejaVuSans-31" transform="translate(83.789062 0)"/>
       <use xlink:href="#DejaVuSans-30" transform="translate(147.412109 0)"/>
       <use xlink:href="#DejaVuSans-30" transform="translate(211.035156 0)"/>
       <use xlink:href="#DejaVuSans-30" transform="translate(274.658203 0)"/>
      </g>
     </g>
    </g>
    <g id="ytick_5">
     <g id="line2d_14">
      <path d="M 65.63 223.5231 
L 632.205 223.5231 
" clip-path="url(#pb22b2298b0)" style="fill: none; stroke: #ffffff; stroke-width: 0.8; stroke-linecap: round"/>
     </g>
     <g id="text_16">
      <!-- −800 -->
      <g style="fill: #262626" transform="translate(31.162813 227.322319) scale(0.1 -0.1)">
       <defs>
        <path id="DejaVuSans-38" d="M 2034 2216 
Q 1584 2216 1326 1975 
Q 1069 1734 1069 1313 
Q 1069 891 1326 650 
Q 1584 409 2034 409 
Q 2484 409 2743 651 
Q 3003 894 3003 1313 
Q 3003 1734 2745 1975 
Q 2488 2216 2034 2216 
z
M 1403 2484 
Q 997 2584 770 2862 
Q 544 3141 544 3541 
Q 544 4100 942 4425 
Q 1341 4750 2034 4750 
Q 2731 4750 3128 4425 
Q 3525 4100 3525 3541 
Q 3525 3141 3298 2862 
Q 3072 2584 2669 2484 
Q 3125 2378 3379 2068 
Q 3634 1759 3634 1313 
Q 3634 634 3220 271 
Q 2806 -91 2034 -91 
Q 1263 -91 848 271 
Q 434 634 434 1313 
Q 434 1759 690 2068 
Q 947 2378 1403 2484 
z
M 1172 3481 
Q 1172 3119 1398 2916 
Q 1625 2713 2034 2713 
Q 2441 2713 2670 2916 
Q 2900 3119 2900 3481 
Q 2900 3844 2670 4047 
Q 2441 4250 2034 4250 
Q 1625 4250 1398 4047 
Q 1172 3844 1172 3481 
z
" transform="scale(0.015625)"/>
       </defs>
       <use xlink:href="#DejaVuSans-2212"/>
       <use xlink:href="#DejaVuSans-38" transform="translate(83.789062 0)"/>
       <use xlink:href="#DejaVuSans-30" transform="translate(147.412109 0)"/>
       <use xlink:href="#DejaVuSans-30" transform="translate(211.035156 0)"/>
      </g>
     </g>
    </g>
    <g id="ytick_6">
     <g id="line2d_15">
      <path d="M 65.63 181.893875 
L 632.205 181.893875 
" clip-path="url(#pb22b2298b0)" style="fill: none; stroke: #ffffff; stroke-width: 0.8; stroke-linecap: round"/>
     </g>
     <g id="text_17">
      <!-- −600 -->
      <g style="fill: #262626" transform="translate(31.162813 185.693094) scale(0.1 -0.1)">
       <use xlink:href="#DejaVuSans-2212"/>
       <use xlink:href="#DejaVuSans-36" transform="translate(83.789062 0)"/>
       <use xlink:href="#DejaVuSans-30" transform="translate(147.412109 0)"/>
       <use xlink:href="#DejaVuSans-30" transform="translate(211.035156 0)"/>
      </g>
     </g>
    </g>
    <g id="ytick_7">
     <g id="line2d_16">
      <path d="M 65.63 140.26465 
L 632.205 140.26465 
" clip-path="url(#pb22b2298b0)" style="fill: none; stroke: #ffffff; stroke-width: 0.8; stroke-linecap: round"/>
     </g>
     <g id="text_18">
      <!-- −400 -->
      <g style="fill: #262626" transform="translate(31.162813 144.063869) scale(0.1 -0.1)">
       <use xlink:href="#DejaVuSans-2212"/>
       <use xlink:href="#DejaVuSans-34" transform="translate(83.789062 0)"/>
       <use xlink:href="#DejaVuSans-30" transform="translate(147.412109 0)"/>
       <use xlink:href="#DejaVuSans-30" transform="translate(211.035156 0)"/>
      </g>
     </g>
    </g>
    <g id="ytick_8">
     <g id="line2d_17">
      <path d="M 65.63 98.635425 
L 632.205 98.635425 
" clip-path="url(#pb22b2298b0)" style="fill: none; stroke: #ffffff; stroke-width: 0.8; stroke-linecap: round"/>
     </g>
     <g id="text_19">
      <!-- −200 -->
      <g style="fill: #262626" transform="translate(31.162813 102.434644) scale(0.1 -0.1)">
       <use xlink:href="#DejaVuSans-2212"/>
       <use xlink:href="#DejaVuSans-32" transform="translate(83.789062 0)"/>
       <use xlink:href="#DejaVuSans-30" transform="translate(147.412109 0)"/>
       <use xlink:href="#DejaVuSans-30" transform="translate(211.035156 0)"/>
      </g>
     </g>
    </g>
    <g id="ytick_9">
     <g id="line2d_18">
      <path d="M 65.63 57.0062 
L 632.205 57.0062 
" clip-path="url(#pb22b2298b0)" style="fill: none; stroke: #ffffff; stroke-width: 0.8; stroke-linecap: round"/>
     </g>
     <g id="text_20">
      <!-- 0 -->
      <g style="fill: #262626" transform="translate(52.2675 60.805419) scale(0.1 -0.1)">
       <use xlink:href="#DejaVuSans-30"/>
      </g>
     </g>
    </g>
    <g id="text_21">
     <!-- Reward -->
     <g style="fill: #262626" transform="translate(18.720625 242.144194) rotate(-90) scale(0.1 -0.1)">
      <defs>
       <path id="DejaVuSans-52" d="M 2841 2188 
Q 3044 2119 3236 1894 
Q 3428 1669 3622 1275 
L 4263 0 
L 3584 0 
L 2988 1197 
Q 2756 1666 2539 1819 
Q 2322 1972 1947 1972 
L 1259 1972 
L 1259 0 
L 628 0 
L 628 4666 
L 2053 4666 
Q 2853 4666 3247 4331 
Q 3641 3997 3641 3322 
Q 3641 2881 3436 2590 
Q 3231 2300 2841 2188 
z
M 1259 4147 
L 1259 2491 
L 2053 2491 
Q 2509 2491 2742 2702 
Q 2975 2913 2975 3322 
Q 2975 3731 2742 3939 
Q 2509 4147 2053 4147 
L 1259 4147 
z
" transform="scale(0.015625)"/>
       <path id="DejaVuSans-77" d="M 269 3500 
L 844 3500 
L 1563 769 
L 2278 3500 
L 2956 3500 
L 3675 769 
L 4391 3500 
L 4966 3500 
L 4050 0 
L 3372 0 
L 2619 2869 
L 1863 0 
L 1184 0 
L 269 3500 
z
" transform="scale(0.015625)"/>
       <path id="DejaVuSans-61" d="M 2194 1759 
Q 1497 1759 1228 1600 
Q 959 1441 959 1056 
Q 959 750 1161 570 
Q 1363 391 1709 391 
Q 2188 391 2477 730 
Q 2766 1069 2766 1631 
L 2766 1759 
L 2194 1759 
z
M 3341 1997 
L 3341 0 
L 2766 0 
L 2766 531 
Q 2569 213 2275 61 
Q 1981 -91 1556 -91 
Q 1019 -91 701 211 
Q 384 513 384 1019 
Q 384 1609 779 1909 
Q 1175 2209 1959 2209 
L 2766 2209 
L 2766 2266 
Q 2766 2663 2505 2880 
Q 2244 3097 1772 3097 
Q 1472 3097 1187 3025 
Q 903 2953 641 2809 
L 641 3341 
Q 956 3463 1253 3523 
Q 1550 3584 1831 3584 
Q 2591 3584 2966 3190 
Q 3341 2797 3341 1997 
z
" transform="scale(0.015625)"/>
       <path id="DejaVuSans-72" d="M 2631 2963 
Q 2534 3019 2420 3045 
Q 2306 3072 2169 3072 
Q 1681 3072 1420 2755 
Q 1159 2438 1159 1844 
L 1159 0 
L 581 0 
L 581 3500 
L 1159 3500 
L 1159 2956 
Q 1341 3275 1631 3429 
Q 1922 3584 2338 3584 
Q 2397 3584 2469 3576 
Q 2541 3569 2628 3553 
L 2631 2963 
z
" transform="scale(0.015625)"/>
       <path id="DejaVuSans-64" d="M 2906 2969 
L 2906 4863 
L 3481 4863 
L 3481 0 
L 2906 0 
L 2906 525 
Q 2725 213 2448 61 
Q 2172 -91 1784 -91 
Q 1150 -91 751 415 
Q 353 922 353 1747 
Q 353 2572 751 3078 
Q 1150 3584 1784 3584 
Q 2172 3584 2448 3432 
Q 2725 3281 2906 2969 
z
M 947 1747 
Q 947 1113 1208 752 
Q 1469 391 1925 391 
Q 2381 391 2643 752 
Q 2906 1113 2906 1747 
Q 2906 2381 2643 2742 
Q 2381 3103 1925 3103 
Q 1469 3103 1208 2742 
Q 947 2381 947 1747 
z
" transform="scale(0.015625)"/>
      </defs>
      <use xlink:href="#DejaVuSans-52"/>
      <use xlink:href="#DejaVuSans-65" transform="translate(64.982422 0)"/>
      <use xlink:href="#DejaVuSans-77" transform="translate(126.505859 0)"/>
      <use xlink:href="#DejaVuSans-61" transform="translate(208.292969 0)"/>
      <use xlink:href="#DejaVuSans-72" transform="translate(269.572266 0)"/>
      <use xlink:href="#DejaVuSans-64" transform="translate(308.935547 0)"/>
     </g>
    </g>
   </g>
   <g id="FillBetweenPolyCollection_1">
    <path d="M 65.63083 306.277749 
L 65.63083 320.063754 
L 71.296563 313.226302 
L 76.962297 314.067473 
L 82.62803 311.647756 
L 88.293764 310.116054 
L 93.959497 312.60863 
L 99.62523 316.057406 
L 105.290964 304.674319 
L 110.956697 304.470429 
L 116.622431 303.603067 
L 122.288164 308.113435 
L 127.953897 299.626819 
L 133.619631 288.468642 
L 139.285364 289.885313 
L 144.951098 281.599568 
L 150.616831 272.76533 
L 156.282564 260.275264 
L 161.948298 250.465728 
L 167.614031 236.684905 
L 173.279765 226.434628 
L 178.945498 204.400624 
L 184.611231 182.990412 
L 190.276965 156.526507 
L 195.942698 144.389041 
L 201.608432 140.032321 
L 207.274165 128.295154 
L 212.939898 121.848874 
L 218.605632 115.928286 
L 224.271365 118.203417 
L 229.937099 123.177807 
L 235.602832 115.867977 
L 241.268565 135.166489 
L 246.934299 118.877321 
L 252.600032 114.977889 
L 258.265766 110.444724 
L 263.931499 112.143655 
L 269.597232 102.316685 
L 275.262966 105.523527 
L 280.928699 108.29011 
L 286.594433 100.722725 
L 292.260166 127.703651 
L 297.925899 103.967497 
L 303.591633 112.125168 
L 309.257366 98.664275 
L 314.9231 106.393719 
L 320.588833 104.836938 
L 326.254566 106.623947 
L 331.9203 108.622972 
L 337.586033 101.058119 
L 343.251767 102.596449 
L 348.9175 100.73047 
L 354.583233 109.597211 
L 360.248967 114.36675 
L 365.9147 92.786377 
L 371.580434 104.7415 
L 377.246167 93.771584 
L 382.9119 99.34184 
L 388.577634 95.846214 
L 394.243367 94.112029 
L 399.909101 97.854797 
L 405.574834 94.893693 
L 411.240567 94.480168 
L 416.906301 97.776051 
L 422.572034 98.791913 
L 428.237768 94.344462 
L 433.903501 93.417531 
L 439.569234 103.889255 
L 445.234968 92.852269 
L 450.900701 94.548824 
L 456.566435 94.538549 
L 462.232168 92.327462 
L 467.897901 92.917452 
L 473.563635 92.778665 
L 479.229368 93.002742 
L 484.895102 88.202129 
L 490.560835 90.476438 
L 496.226568 89.485276 
L 501.892302 90.844653 
L 507.558035 94.237639 
L 513.223769 92.132931 
L 518.889502 91.989475 
L 524.555235 90.721336 
L 530.220969 89.681079 
L 535.886702 91.825334 
L 541.552436 91.413131 
L 547.218169 92.361106 
L 552.883902 92.694626 
L 558.549636 114.925914 
L 564.215369 94.090866 
L 569.881103 87.736381 
L 575.546836 91.926221 
L 581.212569 90.464444 
L 586.878303 93.77411 
L 592.544036 96.627809 
L 598.20977 93.035929 
L 603.875503 86.824764 
L 609.541236 112.013885 
L 615.20697 139.656891 
L 620.872703 95.599291 
L 626.538437 149.286373 
L 626.538437 68.887303 
L 626.538437 68.887303 
L 620.872703 83.713085 
L 615.20697 71.922866 
L 609.541236 79.988288 
L 603.875503 82.769281 
L 598.20977 85.198071 
L 592.544036 83.947616 
L 586.878303 87.960921 
L 581.212569 86.06305 
L 575.546836 83.602113 
L 569.881103 84.734637 
L 564.215369 86.827907 
L 558.549636 79.966599 
L 552.883902 84.854486 
L 547.218169 87.843774 
L 541.552436 83.642172 
L 535.886702 83.887047 
L 530.220969 85.383051 
L 524.555235 85.40187 
L 518.889502 86.743023 
L 513.223769 85.995594 
L 507.558035 86.627809 
L 501.892302 84.629428 
L 496.226568 82.527365 
L 490.560835 85.191064 
L 484.895102 83.137821 
L 479.229368 86.303519 
L 473.563635 84.544351 
L 467.897901 84.845101 
L 462.232168 81.054723 
L 456.566435 84.772049 
L 450.900701 86.567583 
L 445.234968 86.395158 
L 439.569234 89.409584 
L 433.903501 86.892392 
L 428.237768 87.522989 
L 422.572034 85.25564 
L 416.906301 86.429626 
L 411.240567 88.944373 
L 405.574834 88.075345 
L 399.909101 81.922691 
L 394.243367 88.039241 
L 388.577634 89.537336 
L 382.9119 83.278105 
L 377.246167 86.772063 
L 371.580434 86.652183 
L 365.9147 87.298864 
L 360.248967 89.988303 
L 354.583233 96.863964 
L 348.9175 86.494919 
L 343.251767 85.863563 
L 337.586033 86.957147 
L 331.9203 80.546448 
L 326.254566 84.470304 
L 320.588833 94.162979 
L 314.9231 95.285916 
L 309.257366 90.838238 
L 303.591633 89.456119 
L 297.925899 89.443391 
L 292.260166 90.660075 
L 286.594433 92.907061 
L 280.928699 92.761494 
L 275.262966 89.84174 
L 269.597232 92.829162 
L 263.931499 93.961091 
L 258.265766 99.059312 
L 252.600032 95.376758 
L 246.934299 93.648889 
L 241.268565 93.849141 
L 235.602832 99.017292 
L 229.937099 100.535205 
L 224.271365 104.335353 
L 218.605632 100.710609 
L 212.939898 101.029968 
L 207.274165 105.964448 
L 201.608432 111.679206 
L 195.942698 95.979918 
L 190.276965 109.921074 
L 184.611231 115.234956 
L 178.945498 119.08088 
L 173.279765 124.305178 
L 167.614031 131.141288 
L 161.948298 146.924349 
L 156.282564 162.307617 
L 150.616831 176.728473 
L 144.951098 182.629294 
L 139.285364 208.681059 
L 133.619631 219.016312 
L 127.953897 235.027615 
L 122.288164 245.414587 
L 116.622431 259.417934 
L 110.956697 255.493627 
L 105.290964 268.756846 
L 99.62523 275.337851 
L 93.959497 273.455496 
L 88.293764 288.78206 
L 82.62803 279.193353 
L 76.962297 299.717219 
L 71.296563 285.814039 
L 65.63083 306.277749 
z
" clip-path="url(#pb22b2298b0)" style="fill: #0000ff; fill-opacity: 0.1"/>
   </g>
   <g id="line2d_19">
    <path d="M 65.63083 313.170751 
L 71.296563 299.52017 
L 76.962297 306.892346 
L 82.62803 295.420555 
L 88.293764 299.449057 
L 93.959497 293.032063 
L 99.62523 295.697628 
L 105.290964 286.715583 
L 110.956697 279.982028 
L 116.622431 281.510501 
L 122.288164 276.764011 
L 127.953897 267.327217 
L 133.619631 253.742477 
L 139.285364 249.283186 
L 144.951098 232.114431 
L 150.616831 224.746902 
L 156.282564 211.29144 
L 161.948298 198.695039 
L 167.614031 183.913096 
L 173.279765 175.369903 
L 178.945498 161.740752 
L 184.611231 149.112684 
L 190.276965 133.22379 
L 195.942698 120.184479 
L 201.608432 125.855764 
L 207.274165 117.129801 
L 212.939898 111.439421 
L 218.605632 108.319447 
L 224.271365 111.269385 
L 229.937099 111.856506 
L 235.602832 107.442635 
L 241.268565 114.507815 
L 246.934299 106.263105 
L 252.600032 105.177324 
L 258.265766 104.752018 
L 263.931499 103.052373 
L 269.597232 97.572923 
L 275.262966 97.682634 
L 280.928699 100.525802 
L 286.594433 96.814893 
L 292.260166 109.181863 
L 297.925899 96.705444 
L 303.591633 100.790643 
L 309.257366 94.751256 
L 314.9231 100.839817 
L 320.588833 99.499958 
L 326.254566 95.547125 
L 331.9203 94.58471 
L 337.586033 94.007633 
L 343.251767 94.230006 
L 348.9175 93.612694 
L 354.583233 103.230587 
L 360.248967 102.177526 
L 365.9147 90.04262 
L 371.580434 95.696841 
L 377.246167 90.271824 
L 382.9119 91.309973 
L 388.577634 92.691775 
L 394.243367 91.075635 
L 399.909101 89.888744 
L 405.574834 91.484519 
L 411.240567 91.712271 
L 416.906301 92.102839 
L 422.572034 92.023776 
L 428.237768 90.933725 
L 433.903501 90.154962 
L 439.569234 96.64942 
L 445.234968 89.623714 
L 450.900701 90.558204 
L 456.566435 89.655299 
L 462.232168 86.691093 
L 467.897901 88.881277 
L 473.563635 88.661508 
L 479.229368 89.65313 
L 484.895102 85.669975 
L 490.560835 87.833751 
L 496.226568 86.00632 
L 501.892302 87.73704 
L 507.558035 90.432724 
L 513.223769 89.064262 
L 518.889502 89.366249 
L 524.555235 88.061603 
L 530.220969 87.532065 
L 535.886702 87.85619 
L 541.552436 87.527652 
L 547.218169 90.10244 
L 552.883902 88.774556 
L 558.549636 97.446257 
L 564.215369 90.459386 
L 569.881103 86.235509 
L 575.546836 87.764167 
L 581.212569 88.263747 
L 586.878303 90.867516 
L 592.544036 90.287712 
L 598.20977 89.117 
L 603.875503 84.797023 
L 609.541236 96.001087 
L 615.20697 105.789879 
L 620.872703 89.656188 
L 626.538437 109.086838 
" clip-path="url(#pb22b2298b0)" style="fill: none; stroke: #0000ff; stroke-width: 1.5; stroke-linecap: round"/>
   </g>
   <g id="line2d_20">
    <path d="M 65.63083 316.156105 
L 71.296563 306.184637 
L 76.962297 297.631305 
L 82.62803 269.648712 
L 88.293764 289.236883 
L 93.959497 269.716378 
L 99.62523 306.480052 
L 105.290964 284.137335 
L 110.956697 264.373336 
L 116.622431 285.138022 
L 122.288164 292.830751 
L 127.953897 279.412442 
L 133.619631 260.116975 
L 139.285364 264.409144 
L 144.951098 263.904533 
L 150.616831 254.680808 
L 156.282564 227.017878 
L 161.948298 233.732341 
L 167.614031 211.624144 
L 173.279765 211.951734 
L 178.945498 151.646795 
L 184.611231 135.821574 
L 190.276965 127.571752 
L 195.942698 117.626116 
L 201.608432 123.376926 
L 207.274165 122.572657 
L 212.939898 109.09102 
L 218.605632 105.863901 
L 224.271365 111.013372 
L 229.937099 118.974868 
L 235.602832 101.59668 
L 241.268565 110.06573 
L 246.934299 103.434571 
L 252.600032 108.325758 
L 258.265766 105.694827 
L 263.931499 96.492037 
L 269.597232 96.642757 
L 275.262966 103.674549 
L 280.928699 110.8587 
L 286.594433 102.79806 
L 292.260166 145.960153 
L 297.925899 96.461034 
L 303.591633 111.763025 
L 309.257366 93.575049 
L 314.9231 110.164513 
L 320.588833 99.995774 
L 326.254566 87.911805 
L 331.9203 80.151026 
L 337.586033 107.862268 
L 343.251767 104.753003 
L 348.9175 97.493922 
L 354.583233 109.586995 
L 360.248967 92.186217 
L 365.9147 86.691595 
L 371.580434 98.521469 
L 377.246167 93.311129 
L 382.9119 84.168433 
L 388.577634 91.807056 
L 394.243367 93.660059 
L 399.909101 83.496124 
L 405.574834 95.679259 
L 411.240567 93.287196 
L 416.906301 89.377664 
L 422.572034 101.87013 
L 428.237768 89.803043 
L 433.903501 90.54033 
L 439.569234 103.014871 
L 445.234968 93.110721 
L 450.900701 96.609809 
L 456.566435 89.433681 
L 462.232168 90.152746 
L 467.897901 96.476641 
L 473.563635 85.668389 
L 479.229368 91.338411 
L 484.895102 84.56087 
L 490.560835 90.22874 
L 496.226568 89.432659 
L 501.892302 90.212229 
L 507.558035 86.60229 
L 513.223769 87.986852 
L 518.889502 90.97795 
L 524.555235 92.636562 
L 530.220969 89.17779 
L 535.886702 90.805908 
L 541.552436 91.383414 
L 547.218169 92.820192 
L 552.883902 86.342452 
L 558.549636 91.460473 
L 564.215369 92.021616 
L 569.881103 84.750076 
L 575.546836 91.298112 
L 581.212569 88.234096 
L 586.878303 89.17831 
L 592.544036 85.024698 
L 598.20977 88.592162 
L 603.875503 81.651869 
L 609.541236 83.756143 
L 615.20697 86.482386 
L 620.872703 85.631933 
L 626.538437 92.333486 
" clip-path="url(#pb22b2298b0)" style="fill: none; stroke: #008000; stroke-opacity: 0.2; stroke-linecap: round"/>
   </g>
   <g id="line2d_21">
    <path d="M 65.63083 322.050497 
L 71.296563 298.125655 
L 76.962297 308.220013 
L 82.62803 297.429301 
L 88.293764 290.848981 
L 93.959497 268.412149 
L 99.62523 255.839701 
L 105.290964 255.335488 
L 110.956697 257.690394 
L 116.622431 252.25066 
L 122.288164 223.117471 
L 127.953897 208.946263 
L 133.619631 194.728918 
L 139.285364 170.382287 
L 144.951098 138.689111 
L 150.616831 143.526255 
L 156.282564 131.746567 
L 161.948298 146.021005 
L 167.614031 122.216164 
L 173.279765 120.227048 
L 178.945498 122.210777 
L 184.611231 122.804079 
L 190.276965 108.668289 
L 195.942698 102.578905 
L 201.608432 112.43572 
L 207.274165 109.796626 
L 212.939898 111.92337 
L 218.605632 103.428367 
L 224.271365 116.174533 
L 229.937099 98.266149 
L 235.602832 103.408084 
L 241.268565 100.508932 
L 246.934299 94.820041 
L 252.600032 98.076052 
L 258.265766 106.313955 
L 263.931499 95.06597 
L 269.597232 95.046734 
L 275.262966 84.387595 
L 280.928699 96.655476 
L 286.594433 94.044279 
L 292.260166 99.218965 
L 297.925899 95.122372 
L 303.591633 104.76107 
L 309.257366 87.936349 
L 314.9231 95.120956 
L 320.588833 89.461238 
L 326.254566 89.973254 
L 331.9203 91.82841 
L 337.586033 90.971715 
L 343.251767 86.662031 
L 348.9175 96.351439 
L 354.583233 96.994918 
L 360.248967 91.658786 
L 365.9147 91.091657 
L 371.580434 94.507785 
L 377.246167 85.532234 
L 382.9119 91.069173 
L 388.577634 92.157758 
L 394.243367 93.23063 
L 399.909101 89.165552 
L 405.574834 93.332978 
L 411.240567 95.902568 
L 416.906301 87.080603 
L 422.572034 97.199418 
L 428.237768 85.556455 
L 433.903501 91.342968 
L 439.569234 104.050391 
L 445.234968 94.005316 
L 450.900701 93.093481 
L 456.566435 83.476568 
L 462.232168 87.890956 
L 467.897901 84.547106 
L 473.563635 89.262402 
L 479.229368 86.25469 
L 484.895102 90.069263 
L 490.560835 84.471612 
L 496.226568 89.063854 
L 501.892302 89.717855 
L 507.558035 95.381059 
L 513.223769 87.660612 
L 518.889502 89.22614 
L 524.555235 87.617235 
L 530.220969 90.722468 
L 535.886702 85.958498 
L 541.552436 87.335059 
L 547.218169 91.615904 
L 552.883902 82.255732 
L 558.549636 92.759494 
L 564.215369 83.701579 
L 569.881103 87.343799 
L 575.546836 92.074757 
L 581.212569 91.98066 
L 586.878303 86.265683 
L 592.544036 84.565859 
L 598.20977 94.674845 
L 603.875503 83.263035 
L 609.541236 91.387841 
L 615.20697 91.659765 
L 620.872703 82.692328 
L 626.538437 87.182333 
" clip-path="url(#pb22b2298b0)" style="fill: none; stroke: #008000; stroke-opacity: 0.2; stroke-linecap: round"/>
   </g>
   <g id="line2d_22">
    <path d="M 65.63083 303.885443 
L 71.296563 317.007232 
L 76.962297 319.455635 
L 82.62803 315.488293 
L 88.293764 316.258195 
L 93.959497 308.567877 
L 99.62523 312.786508 
L 105.290964 309.913283 
L 110.956697 324.695795 
L 116.622431 318.521061 
L 122.288164 315.514978 
L 127.953897 307.03255 
L 133.619631 301.495183 
L 139.285364 287.526972 
L 144.951098 269.739662 
L 150.616831 275.46909 
L 156.282564 268.303871 
L 161.948298 268.651723 
L 167.614031 250.985778 
L 173.279765 243.666851 
L 178.945498 239.843906 
L 184.611231 212.574409 
L 190.276965 177.104485 
L 195.942698 167.294638 
L 201.608432 146.12868 
L 207.274165 135.683905 
L 212.939898 116.744952 
L 218.605632 123.446851 
L 224.271365 119.86229 
L 229.937099 118.369464 
L 235.602832 111.792759 
L 241.268565 155.119169 
L 246.934299 118.864035 
L 252.600032 122.107397 
L 258.265766 114.134994 
L 263.931499 120.424556 
L 269.597232 106.888039 
L 275.262966 107.256938 
L 280.928699 108.882567 
L 286.594433 99.368199 
L 292.260166 102.077045 
L 297.925899 109.66674 
L 303.591633 111.521919 
L 309.257366 98.790826 
L 314.9231 101.039515 
L 320.588833 103.025915 
L 326.254566 117.097155 
L 331.9203 120.828163 
L 337.586033 91.113482 
L 343.251767 98.004077 
L 348.9175 103.176293 
L 354.583233 111.118824 
L 360.248967 110.523156 
L 365.9147 92.302785 
L 371.580434 88.418398 
L 377.246167 93.375915 
L 382.9119 106.549967 
L 388.577634 98.516044 
L 394.243367 92.855077 
L 399.909101 104.937132 
L 405.574834 93.516372 
L 411.240567 91.62621 
L 416.906301 102.565253 
L 422.572034 91.280713 
L 428.237768 96.091321 
L 433.903501 94.758686 
L 439.569234 98.593048 
L 445.234968 87.271915 
L 450.900701 88.106289 
L 456.566435 97.090438 
L 462.232168 94.387456 
L 467.897901 88.653265 
L 473.563635 89.258348 
L 479.229368 89.230894 
L 484.895102 85.048524 
L 490.560835 90.512812 
L 496.226568 81.141533 
L 501.892302 81.66886 
L 507.558035 93.040669 
L 513.223769 92.654743 
L 518.889502 85.244733 
L 524.555235 88.669632 
L 530.220969 86.779595 
L 535.886702 94.141799 
L 541.552436 80.851364 
L 547.218169 86.826661 
L 552.883902 92.816232 
L 558.549636 88.221549 
L 564.215369 94.542215 
L 569.881103 86.097379 
L 575.546836 80.322914 
L 581.212569 88.671957 
L 586.878303 92.223562 
L 592.544036 101.739657 
L 598.20977 85.785057 
L 603.875503 85.929227 
L 609.541236 86.362812 
L 615.20697 91.098501 
L 620.872703 90.25702 
L 626.538437 91.548873 
" clip-path="url(#pb22b2298b0)" style="fill: none; stroke: #008000; stroke-opacity: 0.2; stroke-linecap: round"/>
   </g>
   <g id="line2d_23">
    <path d="M 65.63083 317.369963 
L 71.296563 275.331662 
L 76.962297 305.392357 
L 82.62803 286.340163 
L 88.293764 293.166349 
L 93.959497 309.559104 
L 99.62523 300.309217 
L 105.290964 295.645153 
L 110.956697 287.422616 
L 116.622431 284.085653 
L 122.288164 287.915487 
L 127.953897 276.266119 
L 133.619631 266.530682 
L 139.285364 262.119371 
L 144.951098 264.133107 
L 150.616831 252.076503 
L 156.282564 247.4724 
L 161.948298 212.134485 
L 167.614031 213.758235 
L 173.279765 187.635226 
L 178.945498 169.0555 
L 184.611231 153.879249 
L 190.276965 131.917668 
L 195.942698 110.609196 
L 201.608432 137.776801 
L 207.274165 114.128472 
L 212.939898 125.561311 
L 218.605632 103.975651 
L 224.271365 109.881154 
L 229.937099 125.309533 
L 235.602832 98.583217 
L 241.268565 106.825415 
L 246.934299 91.342982 
L 252.600032 93.734768 
L 258.265766 98.749983 
L 263.931499 101.068631 
L 269.597232 95.460739 
L 275.262966 97.042277 
L 280.928699 93.243207 
L 286.594433 96.138682 
L 292.260166 102.380208 
L 297.925899 87.192329 
L 303.591633 82.410127 
L 309.257366 98.244705 
L 314.9231 102.631159 
L 320.588833 100.178111 
L 326.254566 87.84647 
L 331.9203 85.600728 
L 337.586033 88.095536 
L 343.251767 99.382947 
L 348.9175 87.562058 
L 354.583233 103.039619 
L 360.248967 94.317362 
L 365.9147 86.885332 
L 371.580434 85.658648 
L 377.246167 92.645614 
L 382.9119 85.335893 
L 388.577634 88.898716 
L 394.243367 90.092276 
L 399.909101 82.923744 
L 405.574834 87.875978 
L 411.240567 87.839863 
L 416.906301 87.994925 
L 422.572034 83.700184 
L 428.237768 92.088277 
L 433.903501 89.452766 
L 439.569234 84.34455 
L 445.234968 86.941583 
L 450.900701 89.914032 
L 456.566435 92.686717 
L 462.232168 78.295397 
L 467.897901 86.960406 
L 473.563635 95.620024 
L 479.229368 86.290723 
L 484.895102 82.395519 
L 490.560835 84.828802 
L 496.226568 82.508798 
L 501.892302 88.781601 
L 507.558035 85.448399 
L 513.223769 92.411195 
L 518.889502 93.067281 
L 524.555235 84.542029 
L 530.220969 84.684045 
L 535.886702 84.32723 
L 541.552436 86.639581 
L 547.218169 91.148523 
L 552.883902 91.08951 
L 558.549636 131.755212 
L 564.215369 90.495615 
L 569.881103 88.452282 
L 575.546836 87.774588 
L 581.212569 85.2553 
L 586.878303 94.783326 
L 592.544036 87.899057 
L 598.20977 84.199758 
L 603.875503 87.179303 
L 609.541236 90.988702 
L 615.20697 86.331978 
L 620.872703 89.483102 
L 626.538437 85.064859 
" clip-path="url(#pb22b2298b0)" style="fill: none; stroke: #008000; stroke-opacity: 0.2; stroke-linecap: round"/>
   </g>
   <g id="line2d_24">
    <path d="M 65.63083 306.391749 
L 71.296563 300.951666 
L 76.962297 303.762417 
L 82.62803 308.196306 
L 88.293764 307.734876 
L 93.959497 308.904806 
L 99.62523 303.072662 
L 105.290964 288.546655 
L 110.956697 265.727998 
L 116.622431 267.557106 
L 122.288164 264.441367 
L 127.953897 264.978711 
L 133.619631 245.840626 
L 139.285364 261.978155 
L 144.951098 224.10574 
L 150.616831 197.981853 
L 156.282564 181.916486 
L 161.948298 132.93564 
L 167.614031 120.981161 
L 173.279765 113.368655 
L 178.945498 125.946782 
L 184.611231 120.48411 
L 190.276965 120.856758 
L 195.942698 102.813542 
L 201.608432 109.560691 
L 207.274165 103.467347 
L 212.939898 93.876451 
L 218.605632 104.882466 
L 224.271365 99.415577 
L 229.937099 98.362514 
L 235.602832 121.832433 
L 241.268565 100.019827 
L 246.934299 122.853897 
L 252.600032 103.642644 
L 258.265766 98.866331 
L 263.931499 102.210671 
L 269.597232 93.826348 
L 275.262966 96.05181 
L 280.928699 92.989058 
L 286.594433 91.725244 
L 292.260166 96.272942 
L 297.925899 95.084745 
L 303.591633 93.497076 
L 309.257366 95.209353 
L 314.9231 95.242944 
L 320.588833 104.838755 
L 326.254566 94.90694 
L 331.9203 94.51522 
L 337.586033 91.995162 
L 343.251767 82.347972 
L 348.9175 83.47976 
L 354.583233 95.41258 
L 360.248967 122.20211 
L 365.9147 93.241734 
L 371.580434 111.377907 
L 377.246167 86.494225 
L 382.9119 89.426398 
L 388.577634 92.079302 
L 394.243367 85.540132 
L 399.909101 88.921169 
L 405.574834 87.01801 
L 411.240567 89.905518 
L 416.906301 93.495747 
L 422.572034 86.068437 
L 428.237768 91.12953 
L 433.903501 84.680058 
L 439.569234 93.244239 
L 445.234968 86.789034 
L 450.900701 85.067407 
L 456.566435 85.589091 
L 462.232168 82.728909 
L 467.897901 87.768966 
L 473.563635 83.498378 
L 479.229368 95.150934 
L 484.895102 86.275699 
L 490.560835 89.126789 
L 496.226568 87.884758 
L 501.892302 88.304657 
L 507.558035 91.691204 
L 513.223769 84.60791 
L 518.889502 88.315141 
L 524.555235 86.842557 
L 530.220969 86.296428 
L 535.886702 84.047518 
L 541.552436 91.42884 
L 547.218169 88.100919 
L 552.883902 91.368856 
L 558.549636 83.034556 
L 564.215369 91.535906 
L 569.881103 84.534009 
L 575.546836 87.350465 
L 581.212569 87.176722 
L 586.878303 91.886698 
L 592.544036 92.20929 
L 598.20977 92.333179 
L 603.875503 85.961679 
L 609.541236 127.509935 
L 615.20697 173.376762 
L 620.872703 100.216559 
L 626.538437 189.304637 
" clip-path="url(#pb22b2298b0)" style="fill: none; stroke: #008000; stroke-opacity: 0.2; stroke-linecap: round"/>
   </g>
   <g id="line2d_25">
    <path d="M 65.63083 57.0062 
L 71.296563 73.828336 
L 76.962297 80.42185 
L 82.62803 105.02494 
L 88.293764 124.860461 
L 93.959497 149.281888 
L 99.62523 177.087578 
L 105.290964 204.95685 
L 110.956697 232.849071 
L 116.622431 265.633968 
L 122.288164 297.381792 
L 127.953897 329.182737 
L 133.619631 338.606767 
L 139.285364 361.182813 
L 144.951098 370.255486 
L 150.616831 388.112581 
L 156.282564 390.04 
L 161.948298 383.743744 
L 167.614031 373.488581 
L 173.279765 361.243086 
L 178.945498 349.031037 
L 184.611231 347.894255 
L 190.276965 337.569943 
L 195.942698 326.02674 
L 201.608432 322.351623 
L 207.274165 302.462168 
L 212.939898 297.555068 
L 218.605632 287.558468 
L 224.271365 279.730089 
L 229.937099 275.736968 
L 235.602832 283.855225 
L 241.268565 290.705683 
L 246.934299 278.194426 
L 252.600032 270.782526 
L 258.265766 254.193222 
L 263.931499 254.346354 
L 269.597232 257.301513 
L 275.262966 251.118727 
L 280.928699 253.887815 
L 286.594433 263.403976 
L 292.260166 267.820257 
L 297.925899 250.189915 
L 303.591633 251.785178 
L 309.257366 234.591923 
L 314.9231 242.352639 
L 320.588833 243.659058 
L 326.254566 229.55269 
L 331.9203 225.953791 
L 337.586033 224.159761 
L 343.251767 227.835797 
L 348.9175 231.363948 
L 354.583233 253.339841 
L 360.248967 243.797216 
L 365.9147 221.800936 
L 371.580434 223.061315 
L 377.246167 208.990722 
L 382.9119 211.04296 
L 388.577634 208.469025 
L 394.243367 199.510685 
L 399.909101 196.71695 
L 405.574834 203.371947 
L 411.240567 196.214217 
L 416.906301 199.097847 
L 422.572034 199.531439 
L 428.237768 192.456627 
L 433.903501 187.755641 
L 439.569234 197.843587 
L 445.234968 188.655578 
L 450.900701 192.382521 
L 456.566435 191.435567 
L 462.232168 184.05077 
L 467.897901 180.641217 
L 473.563635 180.595423 
L 479.229368 184.402 
L 484.895102 177.061901 
L 490.560835 179.748481 
L 496.226568 175.41773 
L 501.892302 178.953723 
L 507.558035 180.996006 
L 513.223769 185.089815 
L 518.889502 180.12576 
L 524.555235 180.710497 
L 530.220969 177.715052 
L 535.886702 179.518549 
L 541.552436 176.943637 
L 547.218169 179.993718 
L 552.883902 177.936742 
L 558.549636 193.646825 
L 564.215369 184.192123 
L 569.881103 184.291149 
L 575.546836 185.785124 
L 581.212569 182.624493 
L 586.878303 193.248561 
L 592.544036 190.068456 
L 598.20977 183.3928 
L 603.875503 171.310501 
L 609.541236 194.39045 
L 615.20697 205.789526 
L 620.872703 191.507992 
L 626.538437 214.29587 
" clip-path="url(#pb22b2298b0)" style="fill: none; stroke: #800080; stroke-linecap: round"/>
   </g>
   <g id="patch_3">
    <path d="M 65.63 390.04 
L 65.63 57.0062 
" style="fill: none; stroke: #ffffff; stroke-width: 0.8; stroke-linejoin: miter; stroke-linecap: square"/>
   </g>
   <g id="patch_4">
    <path d="M 632.205 390.04 
L 632.205 57.0062 
" style="fill: none; stroke: #ffffff; stroke-width: 0.8; stroke-linejoin: miter; stroke-linecap: square"/>
   </g>
   <g id="patch_5">
    <path d="M 65.63 390.04 
L 632.205 390.04 
" style="fill: none; stroke: #ffffff; stroke-width: 0.8; stroke-linejoin: miter; stroke-linecap: square"/>
   </g>
   <g id="patch_6">
    <path d="M 65.63 57.0062 
L 632.205 57.0062 
" style="fill: none; stroke: #ffffff; stroke-width: 0.8; stroke-linejoin: miter; stroke-linecap: square"/>
   </g>
   <g id="legend_1">
    <g id="line2d_26">
     <path d="M 97.385341 41.274494 
L 105.715341 41.274494 
L 114.045341 41.274494 
" style="fill: none; stroke: #0000ff; stroke-width: 1.5; stroke-linecap: round"/>
    </g>
    <g id="text_22">
     <!-- Mean Reward -->
     <g style="fill: #262626" transform="translate(120.709341 44.189994) scale(0.0833 -0.0833)">
      <defs>
       <path id="DejaVuSans-4d" d="M 628 4666 
L 1569 4666 
L 2759 1491 
L 3956 4666 
L 4897 4666 
L 4897 0 
L 4281 0 
L 4281 4097 
L 3078 897 
L 2444 897 
L 1241 4097 
L 1241 0 
L 628 0 
L 628 4666 
z
" transform="scale(0.015625)"/>
       <path id="DejaVuSans-6e" d="M 3513 2113 
L 3513 0 
L 2938 0 
L 2938 2094 
Q 2938 2591 2744 2837 
Q 2550 3084 2163 3084 
Q 1697 3084 1428 2787 
Q 1159 2491 1159 1978 
L 1159 0 
L 581 0 
L 581 3500 
L 1159 3500 
L 1159 2956 
Q 1366 3272 1645 3428 
Q 1925 3584 2291 3584 
Q 2894 3584 3203 3211 
Q 3513 2838 3513 2113 
z
" transform="scale(0.015625)"/>
       <path id="DejaVuSans-20" transform="scale(0.015625)"/>
      </defs>
      <use xlink:href="#DejaVuSans-4d"/>
      <use xlink:href="#DejaVuSans-65" transform="translate(86.279297 0)"/>
      <use xlink:href="#DejaVuSans-61" transform="translate(147.802734 0)"/>
      <use xlink:href="#DejaVuSans-6e" transform="translate(209.082031 0)"/>
      <use xlink:href="#DejaVuSans-20" transform="translate(272.460938 0)"/>
      <use xlink:href="#DejaVuSans-52" transform="translate(304.248047 0)"/>
      <use xlink:href="#DejaVuSans-65" transform="translate(369.230469 0)"/>
      <use xlink:href="#DejaVuSans-77" transform="translate(430.753906 0)"/>
      <use xlink:href="#DejaVuSans-61" transform="translate(512.541016 0)"/>
      <use xlink:href="#DejaVuSans-72" transform="translate(573.820312 0)"/>
      <use xlink:href="#DejaVuSans-64" transform="translate(613.183594 0)"/>
     </g>
    </g>
    <g id="line2d_27">
     <path d="M 193.736108 41.274494 
L 202.066108 41.274494 
L 210.396108 41.274494 
" style="fill: none; stroke: #008000; stroke-opacity: 0.2; stroke-linecap: round"/>
    </g>
    <g id="text_23">
     <!-- Reward (individual runs) -->
     <g style="fill: #262626" transform="translate(217.060108 44.189994) scale(0.0833 -0.0833)">
      <defs>
       <path id="DejaVuSans-28" d="M 1984 4856 
Q 1566 4138 1362 3434 
Q 1159 2731 1159 2009 
Q 1159 1288 1364 580 
Q 1569 -128 1984 -844 
L 1484 -844 
Q 1016 -109 783 600 
Q 550 1309 550 2009 
Q 550 2706 781 3412 
Q 1013 4119 1484 4856 
L 1984 4856 
z
" transform="scale(0.015625)"/>
       <path id="DejaVuSans-69" d="M 603 3500 
L 1178 3500 
L 1178 0 
L 603 0 
L 603 3500 
z
M 603 4863 
L 1178 4863 
L 1178 4134 
L 603 4134 
L 603 4863 
z
" transform="scale(0.015625)"/>
       <path id="DejaVuSans-76" d="M 191 3500 
L 800 3500 
L 1894 563 
L 2988 3500 
L 3597 3500 
L 2284 0 
L 1503 0 
L 191 3500 
z
" transform="scale(0.015625)"/>
       <path id="DejaVuSans-75" d="M 544 1381 
L 544 3500 
L 1119 3500 
L 1119 1403 
Q 1119 906 1312 657 
Q 1506 409 1894 409 
Q 2359 409 2629 706 
Q 2900 1003 2900 1516 
L 2900 3500 
L 3475 3500 
L 3475 0 
L 2900 0 
L 2900 538 
Q 2691 219 2414 64 
Q 2138 -91 1772 -91 
Q 1169 -91 856 284 
Q 544 659 544 1381 
z
M 1991 3584 
L 1991 3584 
z
" transform="scale(0.015625)"/>
       <path id="DejaVuSans-6c" d="M 603 4863 
L 1178 4863 
L 1178 0 
L 603 0 
L 603 4863 
z
" transform="scale(0.015625)"/>
       <path id="DejaVuSans-29" d="M 513 4856 
L 1013 4856 
Q 1481 4119 1714 3412 
Q 1947 2706 1947 2009 
Q 1947 1309 1714 600 
Q 1481 -109 1013 -844 
L 513 -844 
Q 928 -128 1133 580 
Q 1338 1288 1338 2009 
Q 1338 2731 1133 3434 
Q 928 4138 513 4856 
z
" transform="scale(0.015625)"/>
      </defs>
      <use xlink:href="#DejaVuSans-52"/>
      <use xlink:href="#DejaVuSans-65" transform="translate(64.982422 0)"/>
      <use xlink:href="#DejaVuSans-77" transform="translate(126.505859 0)"/>
      <use xlink:href="#DejaVuSans-61" transform="translate(208.292969 0)"/>
      <use xlink:href="#DejaVuSans-72" transform="translate(269.572266 0)"/>
      <use xlink:href="#DejaVuSans-64" transform="translate(308.935547 0)"/>
      <use xlink:href="#DejaVuSans-20" transform="translate(372.412109 0)"/>
      <use xlink:href="#DejaVuSans-28" transform="translate(404.199219 0)"/>
      <use xlink:href="#DejaVuSans-69" transform="translate(443.212891 0)"/>
      <use xlink:href="#DejaVuSans-6e" transform="translate(470.996094 0)"/>
      <use xlink:href="#DejaVuSans-64" transform="translate(534.375 0)"/>
      <use xlink:href="#DejaVuSans-69" transform="translate(597.851562 0)"/>
      <use xlink:href="#DejaVuSans-76" transform="translate(625.634766 0)"/>
      <use xlink:href="#DejaVuSans-69" transform="translate(684.814453 0)"/>
      <use xlink:href="#DejaVuSans-64" transform="translate(712.597656 0)"/>
      <use xlink:href="#DejaVuSans-75" transform="translate(776.074219 0)"/>
      <use xlink:href="#DejaVuSans-61" transform="translate(839.453125 0)"/>
      <use xlink:href="#DejaVuSans-6c" transform="translate(900.732422 0)"/>
      <use xlink:href="#DejaVuSans-20" transform="translate(928.515625 0)"/>
      <use xlink:href="#DejaVuSans-72" transform="translate(960.302734 0)"/>
      <use xlink:href="#DejaVuSans-75" transform="translate(1001.416016 0)"/>
      <use xlink:href="#DejaVuSans-6e" transform="translate(1064.794922 0)"/>
      <use xlink:href="#DejaVuSans-73" transform="translate(1128.173828 0)"/>
      <use xlink:href="#DejaVuSans-29" transform="translate(1180.273438 0)"/>
     </g>
    </g>
    <g id="line2d_28">
     <path d="M 335.286236 41.274494 
L 343.616236 41.274494 
L 351.946236 41.274494 
" style="fill: none; stroke: #800080; stroke-linecap: round"/>
    </g>
    <g id="text_24">
     <!-- Entropy (normalized) -->
     <g style="fill: #262626" transform="translate(358.610236 44.189994) scale(0.0833 -0.0833)">
      <defs>
       <path id="DejaVuSans-45" d="M 628 4666 
L 3578 4666 
L 3578 4134 
L 1259 4134 
L 1259 2753 
L 3481 2753 
L 3481 2222 
L 1259 2222 
L 1259 531 
L 3634 531 
L 3634 0 
L 628 0 
L 628 4666 
z
" transform="scale(0.015625)"/>
       <path id="DejaVuSans-6f" d="M 1959 3097 
Q 1497 3097 1228 2736 
Q 959 2375 959 1747 
Q 959 1119 1226 758 
Q 1494 397 1959 397 
Q 2419 397 2687 759 
Q 2956 1122 2956 1747 
Q 2956 2369 2687 2733 
Q 2419 3097 1959 3097 
z
M 1959 3584 
Q 2709 3584 3137 3096 
Q 3566 2609 3566 1747 
Q 3566 888 3137 398 
Q 2709 -91 1959 -91 
Q 1206 -91 779 398 
Q 353 888 353 1747 
Q 353 2609 779 3096 
Q 1206 3584 1959 3584 
z
" transform="scale(0.015625)"/>
       <path id="DejaVuSans-79" d="M 2059 -325 
Q 1816 -950 1584 -1140 
Q 1353 -1331 966 -1331 
L 506 -1331 
L 506 -850 
L 844 -850 
Q 1081 -850 1212 -737 
Q 1344 -625 1503 -206 
L 1606 56 
L 191 3500 
L 800 3500 
L 1894 763 
L 2988 3500 
L 3597 3500 
L 2059 -325 
z
" transform="scale(0.015625)"/>
       <path id="DejaVuSans-6d" d="M 3328 2828 
Q 3544 3216 3844 3400 
Q 4144 3584 4550 3584 
Q 5097 3584 5394 3201 
Q 5691 2819 5691 2113 
L 5691 0 
L 5113 0 
L 5113 2094 
Q 5113 2597 4934 2840 
Q 4756 3084 4391 3084 
Q 3944 3084 3684 2787 
Q 3425 2491 3425 1978 
L 3425 0 
L 2847 0 
L 2847 2094 
Q 2847 2600 2669 2842 
Q 2491 3084 2119 3084 
Q 1678 3084 1418 2786 
Q 1159 2488 1159 1978 
L 1159 0 
L 581 0 
L 581 3500 
L 1159 3500 
L 1159 2956 
Q 1356 3278 1631 3431 
Q 1906 3584 2284 3584 
Q 2666 3584 2933 3390 
Q 3200 3197 3328 2828 
z
" transform="scale(0.015625)"/>
       <path id="DejaVuSans-7a" d="M 353 3500 
L 3084 3500 
L 3084 2975 
L 922 459 
L 3084 459 
L 3084 0 
L 275 0 
L 275 525 
L 2438 3041 
L 353 3041 
L 353 3500 
z
" transform="scale(0.015625)"/>
      </defs>
      <use xlink:href="#DejaVuSans-45"/>
      <use xlink:href="#DejaVuSans-6e" transform="translate(63.183594 0)"/>
      <use xlink:href="#DejaVuSans-74" transform="translate(126.5625 0)"/>
      <use xlink:href="#DejaVuSans-72" transform="translate(165.771484 0)"/>
      <use xlink:href="#DejaVuSans-6f" transform="translate(204.634766 0)"/>
      <use xlink:href="#DejaVuSans-70" transform="translate(265.816406 0)"/>
      <use xlink:href="#DejaVuSans-79" transform="translate(329.292969 0)"/>
      <use xlink:href="#DejaVuSans-20" transform="translate(388.472656 0)"/>
      <use xlink:href="#DejaVuSans-28" transform="translate(420.259766 0)"/>
      <use xlink:href="#DejaVuSans-6e" transform="translate(459.273438 0)"/>
      <use xlink:href="#DejaVuSans-6f" transform="translate(522.652344 0)"/>
      <use xlink:href="#DejaVuSans-72" transform="translate(583.833984 0)"/>
      <use xlink:href="#DejaVuSans-6d" transform="translate(623.197266 0)"/>
      <use xlink:href="#DejaVuSans-61" transform="translate(720.609375 0)"/>
      <use xlink:href="#DejaVuSans-6c" transform="translate(781.888672 0)"/>
      <use xlink:href="#DejaVuSans-69" transform="translate(809.671875 0)"/>
      <use xlink:href="#DejaVuSans-7a" transform="translate(837.455078 0)"/>
      <use xlink:href="#DejaVuSans-65" transform="translate(889.945312 0)"/>
      <use xlink:href="#DejaVuSans-64" transform="translate(951.46875 0)"/>
      <use xlink:href="#DejaVuSans-29" transform="translate(1014.945312 0)"/>
     </g>
    </g>
    <g id="patch_7">
     <path d="M 463.065833 44.189994 
L 479.725833 44.189994 
L 479.725833 38.358994 
L 463.065833 38.358994 
z
" style="fill: #0000ff; fill-opacity: 0.1"/>
    </g>
    <g id="text_25">
     <!-- Reward Standard Deviation -->
     <g style="fill: #262626" transform="translate(486.389833 44.189994) scale(0.0833 -0.0833)">
      <defs>
       <path id="DejaVuSans-44" d="M 1259 4147 
L 1259 519 
L 2022 519 
Q 2988 519 3436 956 
Q 3884 1394 3884 2338 
Q 3884 3275 3436 3711 
Q 2988 4147 2022 4147 
L 1259 4147 
z
M 628 4666 
L 1925 4666 
Q 3281 4666 3915 4102 
Q 4550 3538 4550 2338 
Q 4550 1131 3912 565 
Q 3275 0 1925 0 
L 628 0 
L 628 4666 
z
" transform="scale(0.015625)"/>
      </defs>
      <use xlink:href="#DejaVuSans-52"/>
      <use xlink:href="#DejaVuSans-65" transform="translate(64.982422 0)"/>
      <use xlink:href="#DejaVuSans-77" transform="translate(126.505859 0)"/>
      <use xlink:href="#DejaVuSans-61" transform="translate(208.292969 0)"/>
      <use xlink:href="#DejaVuSans-72" transform="translate(269.572266 0)"/>
      <use xlink:href="#DejaVuSans-64" transform="translate(308.935547 0)"/>
      <use xlink:href="#DejaVuSans-20" transform="translate(372.412109 0)"/>
      <use xlink:href="#DejaVuSans-53" transform="translate(404.199219 0)"/>
      <use xlink:href="#DejaVuSans-74" transform="translate(467.675781 0)"/>
      <use xlink:href="#DejaVuSans-61" transform="translate(506.884766 0)"/>
      <use xlink:href="#DejaVuSans-6e" transform="translate(568.164062 0)"/>
      <use xlink:href="#DejaVuSans-64" transform="translate(631.542969 0)"/>
      <use xlink:href="#DejaVuSans-61" transform="translate(695.019531 0)"/>
      <use xlink:href="#DejaVuSans-72" transform="translate(756.298828 0)"/>
      <use xlink:href="#DejaVuSans-64" transform="translate(795.662109 0)"/>
      <use xlink:href="#DejaVuSans-20" transform="translate(859.138672 0)"/>
      <use xlink:href="#DejaVuSans-44" transform="translate(890.925781 0)"/>
      <use xlink:href="#DejaVuSans-65" transform="translate(967.927734 0)"/>
      <use xlink:href="#DejaVuSans-76" transform="translate(1029.451172 0)"/>
      <use xlink:href="#DejaVuSans-69" transform="translate(1088.630859 0)"/>
      <use xlink:href="#DejaVuSans-61" transform="translate(1116.414062 0)"/>
      <use xlink:href="#DejaVuSans-74" transform="translate(1177.693359 0)"/>
      <use xlink:href="#DejaVuSans-69" transform="translate(1216.902344 0)"/>
      <use xlink:href="#DejaVuSans-6f" transform="translate(1244.685547 0)"/>
      <use xlink:href="#DejaVuSans-6e" transform="translate(1305.867188 0)"/>
     </g>
    </g>
   </g>
  </g>
  <g id="text_26">
   <!-- Rewards: Pendulum-v1 (Discretized) - CMU-Net (Entropy) -->
   <g style="fill: #262626" transform="translate(129.935625 17.758125) scale(0.12 -0.12)">
    <defs>
     <path id="DejaVuSans-Bold-52" d="M 2297 2597 
Q 2675 2597 2839 2737 
Q 3003 2878 3003 3200 
Q 3003 3519 2839 3656 
Q 2675 3794 2297 3794 
L 1791 3794 
L 1791 2597 
L 2297 2597 
z
M 1791 1766 
L 1791 0 
L 588 0 
L 588 4666 
L 2425 4666 
Q 3347 4666 3776 4356 
Q 4206 4047 4206 3378 
Q 4206 2916 3982 2619 
Q 3759 2322 3309 2181 
Q 3556 2125 3751 1926 
Q 3947 1728 4147 1325 
L 4800 0 
L 3519 0 
L 2950 1159 
Q 2778 1509 2601 1637 
Q 2425 1766 2131 1766 
L 1791 1766 
z
" transform="scale(0.015625)"/>
     <path id="DejaVuSans-Bold-65" d="M 4031 1759 
L 4031 1441 
L 1416 1441 
Q 1456 1047 1700 850 
Q 1944 653 2381 653 
Q 2734 653 3104 758 
Q 3475 863 3866 1075 
L 3866 213 
Q 3469 63 3072 -14 
Q 2675 -91 2278 -91 
Q 1328 -91 801 392 
Q 275 875 275 1747 
Q 275 2603 792 3093 
Q 1309 3584 2216 3584 
Q 3041 3584 3536 3087 
Q 4031 2591 4031 1759 
z
M 2881 2131 
Q 2881 2450 2695 2645 
Q 2509 2841 2209 2841 
Q 1884 2841 1681 2658 
Q 1478 2475 1428 2131 
L 2881 2131 
z
" transform="scale(0.015625)"/>
     <path id="DejaVuSans-Bold-77" d="M 225 3500 
L 1313 3500 
L 1900 1088 
L 2491 3500 
L 3425 3500 
L 4013 1113 
L 4603 3500 
L 5691 3500 
L 4769 0 
L 3547 0 
L 2956 2406 
L 2369 0 
L 1147 0 
L 225 3500 
z
" transform="scale(0.015625)"/>
     <path id="DejaVuSans-Bold-61" d="M 2106 1575 
Q 1756 1575 1579 1456 
Q 1403 1338 1403 1106 
Q 1403 894 1545 773 
Q 1688 653 1941 653 
Q 2256 653 2472 879 
Q 2688 1106 2688 1447 
L 2688 1575 
L 2106 1575 
z
M 3816 1997 
L 3816 0 
L 2688 0 
L 2688 519 
Q 2463 200 2181 54 
Q 1900 -91 1497 -91 
Q 953 -91 614 226 
Q 275 544 275 1050 
Q 275 1666 698 1953 
Q 1122 2241 2028 2241 
L 2688 2241 
L 2688 2328 
Q 2688 2594 2478 2717 
Q 2269 2841 1825 2841 
Q 1466 2841 1156 2769 
Q 847 2697 581 2553 
L 581 3406 
Q 941 3494 1303 3539 
Q 1666 3584 2028 3584 
Q 2975 3584 3395 3211 
Q 3816 2838 3816 1997 
z
" transform="scale(0.015625)"/>
     <path id="DejaVuSans-Bold-72" d="M 3138 2547 
Q 2991 2616 2845 2648 
Q 2700 2681 2553 2681 
Q 2122 2681 1889 2404 
Q 1656 2128 1656 1613 
L 1656 0 
L 538 0 
L 538 3500 
L 1656 3500 
L 1656 2925 
Q 1872 3269 2151 3426 
Q 2431 3584 2822 3584 
Q 2878 3584 2943 3579 
Q 3009 3575 3134 3559 
L 3138 2547 
z
" transform="scale(0.015625)"/>
     <path id="DejaVuSans-Bold-64" d="M 2919 2988 
L 2919 4863 
L 4044 4863 
L 4044 0 
L 2919 0 
L 2919 506 
Q 2688 197 2409 53 
Q 2131 -91 1766 -91 
Q 1119 -91 703 423 
Q 288 938 288 1747 
Q 288 2556 703 3070 
Q 1119 3584 1766 3584 
Q 2128 3584 2408 3439 
Q 2688 3294 2919 2988 
z
M 2181 722 
Q 2541 722 2730 984 
Q 2919 1247 2919 1747 
Q 2919 2247 2730 2509 
Q 2541 2772 2181 2772 
Q 1825 2772 1636 2509 
Q 1447 2247 1447 1747 
Q 1447 1247 1636 984 
Q 1825 722 2181 722 
z
" transform="scale(0.015625)"/>
     <path id="DejaVuSans-Bold-73" d="M 3272 3391 
L 3272 2541 
Q 2913 2691 2578 2766 
Q 2244 2841 1947 2841 
Q 1628 2841 1473 2761 
Q 1319 2681 1319 2516 
Q 1319 2381 1436 2309 
Q 1553 2238 1856 2203 
L 2053 2175 
Q 2913 2066 3209 1816 
Q 3506 1566 3506 1031 
Q 3506 472 3093 190 
Q 2681 -91 1863 -91 
Q 1516 -91 1145 -36 
Q 775 19 384 128 
L 384 978 
Q 719 816 1070 734 
Q 1422 653 1784 653 
Q 2113 653 2278 743 
Q 2444 834 2444 1013 
Q 2444 1163 2330 1236 
Q 2216 1309 1875 1350 
L 1678 1375 
Q 931 1469 631 1722 
Q 331 1975 331 2491 
Q 331 3047 712 3315 
Q 1094 3584 1881 3584 
Q 2191 3584 2531 3537 
Q 2872 3491 3272 3391 
z
" transform="scale(0.015625)"/>
     <path id="DejaVuSans-Bold-3a" d="M 716 3500 
L 1844 3500 
L 1844 2291 
L 716 2291 
L 716 3500 
z
M 716 1209 
L 1844 1209 
L 1844 0 
L 716 0 
L 716 1209 
z
" transform="scale(0.015625)"/>
     <path id="DejaVuSans-Bold-20" transform="scale(0.015625)"/>
     <path id="DejaVuSans-Bold-50" d="M 588 4666 
L 2584 4666 
Q 3475 4666 3951 4270 
Q 4428 3875 4428 3144 
Q 4428 2409 3951 2014 
Q 3475 1619 2584 1619 
L 1791 1619 
L 1791 0 
L 588 0 
L 588 4666 
z
M 1791 3794 
L 1791 2491 
L 2456 2491 
Q 2806 2491 2997 2661 
Q 3188 2831 3188 3144 
Q 3188 3456 2997 3625 
Q 2806 3794 2456 3794 
L 1791 3794 
z
" transform="scale(0.015625)"/>
     <path id="DejaVuSans-Bold-6e" d="M 4056 2131 
L 4056 0 
L 2931 0 
L 2931 347 
L 2931 1631 
Q 2931 2084 2911 2256 
Q 2891 2428 2841 2509 
Q 2775 2619 2662 2680 
Q 2550 2741 2406 2741 
Q 2056 2741 1856 2470 
Q 1656 2200 1656 1722 
L 1656 0 
L 538 0 
L 538 3500 
L 1656 3500 
L 1656 2988 
Q 1909 3294 2193 3439 
Q 2478 3584 2822 3584 
Q 3428 3584 3742 3212 
Q 4056 2841 4056 2131 
z
" transform="scale(0.015625)"/>
     <path id="DejaVuSans-Bold-75" d="M 500 1363 
L 500 3500 
L 1625 3500 
L 1625 3150 
Q 1625 2866 1622 2436 
Q 1619 2006 1619 1863 
Q 1619 1441 1641 1255 
Q 1663 1069 1716 984 
Q 1784 875 1895 815 
Q 2006 756 2150 756 
Q 2500 756 2700 1025 
Q 2900 1294 2900 1772 
L 2900 3500 
L 4019 3500 
L 4019 0 
L 2900 0 
L 2900 506 
Q 2647 200 2364 54 
Q 2081 -91 1741 -91 
Q 1134 -91 817 281 
Q 500 653 500 1363 
z
" transform="scale(0.015625)"/>
     <path id="DejaVuSans-Bold-6c" d="M 538 4863 
L 1656 4863 
L 1656 0 
L 538 0 
L 538 4863 
z
" transform="scale(0.015625)"/>
     <path id="DejaVuSans-Bold-6d" d="M 3781 2919 
Q 3994 3244 4286 3414 
Q 4578 3584 4928 3584 
Q 5531 3584 5847 3212 
Q 6163 2841 6163 2131 
L 6163 0 
L 5038 0 
L 5038 1825 
Q 5041 1866 5042 1909 
Q 5044 1953 5044 2034 
Q 5044 2406 4934 2573 
Q 4825 2741 4581 2741 
Q 4263 2741 4089 2478 
Q 3916 2216 3909 1719 
L 3909 0 
L 2784 0 
L 2784 1825 
Q 2784 2406 2684 2573 
Q 2584 2741 2328 2741 
Q 2006 2741 1831 2477 
Q 1656 2213 1656 1722 
L 1656 0 
L 531 0 
L 531 3500 
L 1656 3500 
L 1656 2988 
Q 1863 3284 2130 3434 
Q 2397 3584 2719 3584 
Q 3081 3584 3359 3409 
Q 3638 3234 3781 2919 
z
" transform="scale(0.015625)"/>
     <path id="DejaVuSans-Bold-2d" d="M 347 2297 
L 2309 2297 
L 2309 1388 
L 347 1388 
L 347 2297 
z
" transform="scale(0.015625)"/>
     <path id="DejaVuSans-Bold-76" d="M 97 3500 
L 1216 3500 
L 2088 1081 
L 2956 3500 
L 4078 3500 
L 2700 0 
L 1472 0 
L 97 3500 
z
" transform="scale(0.015625)"/>
     <path id="DejaVuSans-Bold-31" d="M 750 831 
L 1813 831 
L 1813 3847 
L 722 3622 
L 722 4441 
L 1806 4666 
L 2950 4666 
L 2950 831 
L 4013 831 
L 4013 0 
L 750 0 
L 750 831 
z
" transform="scale(0.015625)"/>
     <path id="DejaVuSans-Bold-28" d="M 2413 -844 
L 1484 -844 
Q 1006 -72 778 623 
Q 550 1319 550 2003 
Q 550 2688 779 3389 
Q 1009 4091 1484 4856 
L 2413 4856 
Q 2013 4116 1813 3408 
Q 1613 2700 1613 2009 
Q 1613 1319 1811 609 
Q 2009 -100 2413 -844 
z
" transform="scale(0.015625)"/>
     <path id="DejaVuSans-Bold-44" d="M 1791 3756 
L 1791 909 
L 2222 909 
Q 2959 909 3348 1275 
Q 3738 1641 3738 2338 
Q 3738 3031 3350 3393 
Q 2963 3756 2222 3756 
L 1791 3756 
z
M 588 4666 
L 1856 4666 
Q 2919 4666 3439 4514 
Q 3959 4363 4331 4000 
Q 4659 3684 4818 3271 
Q 4978 2859 4978 2338 
Q 4978 1809 4818 1395 
Q 4659 981 4331 666 
Q 3956 303 3431 151 
Q 2906 0 1856 0 
L 588 0 
L 588 4666 
z
" transform="scale(0.015625)"/>
     <path id="DejaVuSans-Bold-69" d="M 538 3500 
L 1656 3500 
L 1656 0 
L 538 0 
L 538 3500 
z
M 538 4863 
L 1656 4863 
L 1656 3950 
L 538 3950 
L 538 4863 
z
" transform="scale(0.015625)"/>
     <path id="DejaVuSans-Bold-63" d="M 3366 3391 
L 3366 2478 
Q 3138 2634 2908 2709 
Q 2678 2784 2431 2784 
Q 1963 2784 1702 2511 
Q 1441 2238 1441 1747 
Q 1441 1256 1702 982 
Q 1963 709 2431 709 
Q 2694 709 2930 787 
Q 3166 866 3366 1019 
L 3366 103 
Q 3103 6 2833 -42 
Q 2563 -91 2291 -91 
Q 1344 -91 809 395 
Q 275 881 275 1747 
Q 275 2613 809 3098 
Q 1344 3584 2291 3584 
Q 2566 3584 2833 3536 
Q 3100 3488 3366 3391 
z
" transform="scale(0.015625)"/>
     <path id="DejaVuSans-Bold-74" d="M 1759 4494 
L 1759 3500 
L 2913 3500 
L 2913 2700 
L 1759 2700 
L 1759 1216 
Q 1759 972 1856 886 
Q 1953 800 2241 800 
L 2816 800 
L 2816 0 
L 1856 0 
Q 1194 0 917 276 
Q 641 553 641 1216 
L 641 2700 
L 84 2700 
L 84 3500 
L 641 3500 
L 641 4494 
L 1759 4494 
z
" transform="scale(0.015625)"/>
     <path id="DejaVuSans-Bold-7a" d="M 366 3500 
L 3419 3500 
L 3419 2719 
L 1575 800 
L 3419 800 
L 3419 0 
L 288 0 
L 288 781 
L 2131 2700 
L 366 2700 
L 366 3500 
z
" transform="scale(0.015625)"/>
     <path id="DejaVuSans-Bold-29" d="M 513 -844 
Q 913 -100 1113 609 
Q 1313 1319 1313 2009 
Q 1313 2700 1113 3408 
Q 913 4116 513 4856 
L 1441 4856 
Q 1916 4091 2145 3389 
Q 2375 2688 2375 2003 
Q 2375 1319 2147 623 
Q 1919 -72 1441 -844 
L 513 -844 
z
" transform="scale(0.015625)"/>
     <path id="DejaVuSans-Bold-43" d="M 4288 256 
Q 3956 84 3597 -3 
Q 3238 -91 2847 -91 
Q 1681 -91 1000 561 
Q 319 1213 319 2328 
Q 319 3447 1000 4098 
Q 1681 4750 2847 4750 
Q 3238 4750 3597 4662 
Q 3956 4575 4288 4403 
L 4288 3438 
Q 3953 3666 3628 3772 
Q 3303 3878 2944 3878 
Q 2300 3878 1931 3465 
Q 1563 3053 1563 2328 
Q 1563 1606 1931 1193 
Q 2300 781 2944 781 
Q 3303 781 3628 887 
Q 3953 994 4288 1222 
L 4288 256 
z
" transform="scale(0.015625)"/>
     <path id="DejaVuSans-Bold-4d" d="M 588 4666 
L 2119 4666 
L 3181 2169 
L 4250 4666 
L 5778 4666 
L 5778 0 
L 4641 0 
L 4641 3413 
L 3566 897 
L 2803 897 
L 1728 3413 
L 1728 0 
L 588 0 
L 588 4666 
z
" transform="scale(0.015625)"/>
     <path id="DejaVuSans-Bold-55" d="M 588 4666 
L 1791 4666 
L 1791 1869 
Q 1791 1291 1980 1042 
Q 2169 794 2597 794 
Q 3028 794 3217 1042 
Q 3406 1291 3406 1869 
L 3406 4666 
L 4609 4666 
L 4609 1869 
Q 4609 878 4112 393 
Q 3616 -91 2597 -91 
Q 1581 -91 1084 393 
Q 588 878 588 1869 
L 588 4666 
z
" transform="scale(0.015625)"/>
     <path id="DejaVuSans-Bold-4e" d="M 588 4666 
L 1931 4666 
L 3628 1466 
L 3628 4666 
L 4769 4666 
L 4769 0 
L 3425 0 
L 1728 3200 
L 1728 0 
L 588 0 
L 588 4666 
z
" transform="scale(0.015625)"/>
     <path id="DejaVuSans-Bold-45" d="M 588 4666 
L 3834 4666 
L 3834 3756 
L 1791 3756 
L 1791 2888 
L 3713 2888 
L 3713 1978 
L 1791 1978 
L 1791 909 
L 3903 909 
L 3903 0 
L 588 0 
L 588 4666 
z
" transform="scale(0.015625)"/>
     <path id="DejaVuSans-Bold-6f" d="M 2203 2784 
Q 1831 2784 1636 2517 
Q 1441 2250 1441 1747 
Q 1441 1244 1636 976 
Q 1831 709 2203 709 
Q 2569 709 2762 976 
Q 2956 1244 2956 1747 
Q 2956 2250 2762 2517 
Q 2569 2784 2203 2784 
z
M 2203 3584 
Q 3106 3584 3614 3096 
Q 4122 2609 4122 1747 
Q 4122 884 3614 396 
Q 3106 -91 2203 -91 
Q 1297 -91 786 396 
Q 275 884 275 1747 
Q 275 2609 786 3096 
Q 1297 3584 2203 3584 
z
" transform="scale(0.015625)"/>
     <path id="DejaVuSans-Bold-70" d="M 1656 506 
L 1656 -1331 
L 538 -1331 
L 538 3500 
L 1656 3500 
L 1656 2988 
Q 1888 3294 2169 3439 
Q 2450 3584 2816 3584 
Q 3463 3584 3878 3070 
Q 4294 2556 4294 1747 
Q 4294 938 3878 423 
Q 3463 -91 2816 -91 
Q 2450 -91 2169 54 
Q 1888 200 1656 506 
z
M 2400 2772 
Q 2041 2772 1848 2508 
Q 1656 2244 1656 1747 
Q 1656 1250 1848 986 
Q 2041 722 2400 722 
Q 2759 722 2948 984 
Q 3138 1247 3138 1747 
Q 3138 2247 2948 2509 
Q 2759 2772 2400 2772 
z
" transform="scale(0.015625)"/>
     <path id="DejaVuSans-Bold-79" d="M 78 3500 
L 1197 3500 
L 2138 1125 
L 2938 3500 
L 4056 3500 
L 2584 -331 
Q 2363 -916 2067 -1148 
Q 1772 -1381 1288 -1381 
L 641 -1381 
L 641 -647 
L 991 -647 
Q 1275 -647 1404 -556 
Q 1534 -466 1606 -231 
L 1638 -134 
L 78 3500 
z
" transform="scale(0.015625)"/>
    </defs>
    <use xlink:href="#DejaVuSans-Bold-52"/>
    <use xlink:href="#DejaVuSans-Bold-65" transform="translate(77.001953 0)"/>
    <use xlink:href="#DejaVuSans-Bold-77" transform="translate(144.824219 0)"/>
    <use xlink:href="#DejaVuSans-Bold-61" transform="translate(237.207031 0)"/>
    <use xlink:href="#DejaVuSans-Bold-72" transform="translate(304.6875 0)"/>
    <use xlink:href="#DejaVuSans-Bold-64" transform="translate(354.003906 0)"/>
    <use xlink:href="#DejaVuSans-Bold-73" transform="translate(425.585938 0)"/>
    <use xlink:href="#DejaVuSans-Bold-3a" transform="translate(485.107422 0)"/>
    <use xlink:href="#DejaVuSans-Bold-20" transform="translate(525.097656 0)"/>
    <use xlink:href="#DejaVuSans-Bold-50" transform="translate(559.912109 0)"/>
    <use xlink:href="#DejaVuSans-Bold-65" transform="translate(633.203125 0)"/>
    <use xlink:href="#DejaVuSans-Bold-6e" transform="translate(701.025391 0)"/>
    <use xlink:href="#DejaVuSans-Bold-64" transform="translate(772.216797 0)"/>
    <use xlink:href="#DejaVuSans-Bold-75" transform="translate(843.798828 0)"/>
    <use xlink:href="#DejaVuSans-Bold-6c" transform="translate(914.990234 0)"/>
    <use xlink:href="#DejaVuSans-Bold-75" transform="translate(949.267578 0)"/>
    <use xlink:href="#DejaVuSans-Bold-6d" transform="translate(1020.458984 0)"/>
    <use xlink:href="#DejaVuSans-Bold-2d" transform="translate(1124.658203 0)"/>
    <use xlink:href="#DejaVuSans-Bold-76" transform="translate(1166.162109 0)"/>
    <use xlink:href="#DejaVuSans-Bold-31" transform="translate(1231.347656 0)"/>
    <use xlink:href="#DejaVuSans-Bold-20" transform="translate(1300.927734 0)"/>
    <use xlink:href="#DejaVuSans-Bold-28" transform="translate(1335.742188 0)"/>
    <use xlink:href="#DejaVuSans-Bold-44" transform="translate(1381.445312 0)"/>
    <use xlink:href="#DejaVuSans-Bold-69" transform="translate(1464.453125 0)"/>
    <use xlink:href="#DejaVuSans-Bold-73" transform="translate(1498.730469 0)"/>
    <use xlink:href="#DejaVuSans-Bold-63" transform="translate(1558.251953 0)"/>
    <use xlink:href="#DejaVuSans-Bold-72" transform="translate(1617.529297 0)"/>
    <use xlink:href="#DejaVuSans-Bold-65" transform="translate(1666.845703 0)"/>
    <use xlink:href="#DejaVuSans-Bold-74" transform="translate(1734.667969 0)"/>
    <use xlink:href="#DejaVuSans-Bold-69" transform="translate(1782.470703 0)"/>
    <use xlink:href="#DejaVuSans-Bold-7a" transform="translate(1816.748047 0)"/>
    <use xlink:href="#DejaVuSans-Bold-65" transform="translate(1874.951172 0)"/>
    <use xlink:href="#DejaVuSans-Bold-64" transform="translate(1942.773438 0)"/>
    <use xlink:href="#DejaVuSans-Bold-29" transform="translate(2014.355469 0)"/>
    <use xlink:href="#DejaVuSans-Bold-20" transform="translate(2060.058594 0)"/>
    <use xlink:href="#DejaVuSans-Bold-2d" transform="translate(2094.873047 0)"/>
    <use xlink:href="#DejaVuSans-Bold-20" transform="translate(2136.376953 0)"/>
    <use xlink:href="#DejaVuSans-Bold-43" transform="translate(2171.191406 0)"/>
    <use xlink:href="#DejaVuSans-Bold-4d" transform="translate(2244.580078 0)"/>
    <use xlink:href="#DejaVuSans-Bold-55" transform="translate(2344.091797 0)"/>
    <use xlink:href="#DejaVuSans-Bold-2d" transform="translate(2425.292969 0)"/>
    <use xlink:href="#DejaVuSans-Bold-4e" transform="translate(2466.796875 0)"/>
    <use xlink:href="#DejaVuSans-Bold-65" transform="translate(2550.488281 0)"/>
    <use xlink:href="#DejaVuSans-Bold-74" transform="translate(2618.310547 0)"/>
    <use xlink:href="#DejaVuSans-Bold-20" transform="translate(2666.113281 0)"/>
    <use xlink:href="#DejaVuSans-Bold-28" transform="translate(2700.927734 0)"/>
    <use xlink:href="#DejaVuSans-Bold-45" transform="translate(2746.630859 0)"/>
    <use xlink:href="#DejaVuSans-Bold-6e" transform="translate(2814.941406 0)"/>
    <use xlink:href="#DejaVuSans-Bold-74" transform="translate(2886.132812 0)"/>
    <use xlink:href="#DejaVuSans-Bold-72" transform="translate(2933.935547 0)"/>
    <use xlink:href="#DejaVuSans-Bold-6f" transform="translate(2983.251953 0)"/>
    <use xlink:href="#DejaVuSans-Bold-70" transform="translate(3051.953125 0)"/>
    <use xlink:href="#DejaVuSans-Bold-79" transform="translate(3123.535156 0)"/>
    <use xlink:href="#DejaVuSans-Bold-29" transform="translate(3188.720703 0)"/>
   </g>
  </g>
 </g>
 <defs>
  <clipPath id="pb22b2298b0">
   <rect x="65.63" y="57.0062" width="566.575" height="333.0338"/>
  </clipPath>
 </defs>
</svg>
