<?xml version="1.0" encoding="utf-8" standalone="no"?>
<!DOCTYPE svg PUBLIC "-//W3C//DTD SVG 1.1//EN"
  "http://www.w3.org/Graphics/SVG/1.1/DTD/svg11.dtd">
<svg xmlns:xlink="http://www.w3.org/1999/xlink" width="648pt" height="432pt" viewBox="0 0 648 432" xmlns="http://www.w3.org/2000/svg" version="1.1">
 <metadata>
  <rdf:RDF xmlns:dc="http://purl.org/dc/elements/1.1/" xmlns:cc="http://creativecommons.org/ns#" xmlns:rdf="http://www.w3.org/1999/02/22-rdf-syntax-ns#">
   <cc:Work>
    <dc:type rdf:resource="http://purl.org/dc/dcmitype/StillImage"/>
    <dc:date>2025-07-20T01:09:06.605138</dc:date>
    <dc:format>image/svg+xml</dc:format>
    <dc:creator>
     <cc:Agent>
      <dc:title>Matplotlib v3.10.0, https://matplotlib.org/</dc:title>
     </cc:Agent>
    </dc:creator>
   </cc:Work>
  </rdf:RDF>
 </metadata>
 <defs>
  <style type="text/css">*{stroke-linejoin: round; stroke-linecap: butt}</style>
 </defs>
 <g id="figure_1">
  <g id="patch_1">
   <path d="M 0 432 
L 648 432 
L 648 0 
L 0 0 
z
" style="fill: #ffffff"/>
  </g>
  <g id="axes_1">
   <g id="patch_2">
    <path d="M 65.63 390.04 
L 632.205 390.04 
L 632.205 57.0062 
L 65.63 57.0062 
z
" style="fill: #eaeaf2"/>
   </g>
   <g id="matplotlib.axis_1">
    <g id="xtick_1">
     <g id="line2d_1">
      <path d="M 65.63083 390.04 
L 65.63083 57.0062 
" clip-path="url(#p3b8118ded9)" style="fill: none; stroke: #ffffff; stroke-width: 0.8; stroke-linecap: round"/>
     </g>
     <g id="text_1">
      <!-- 0.00 -->
      <g style="fill: #262626" transform="translate(54.498017 404.638438) scale(0.1 -0.1)">
       <defs>
        <path id="DejaVuSans-30" d="M 2034 4250 
Q 1547 4250 1301 3770 
Q 1056 3291 1056 2328 
Q 1056 1369 1301 889 
Q 1547 409 2034 409 
Q 2525 409 2770 889 
Q 3016 1369 3016 2328 
Q 3016 3291 2770 3770 
Q 2525 4250 2034 4250 
z
M 2034 4750 
Q 2819 4750 3233 4129 
Q 3647 3509 3647 2328 
Q 3647 1150 3233 529 
Q 2819 -91 2034 -91 
Q 1250 -91 836 529 
Q 422 1150 422 2328 
Q 422 3509 836 4129 
Q 1250 4750 2034 4750 
z
" transform="scale(0.015625)"/>
        <path id="DejaVuSans-2e" d="M 684 794 
L 1344 794 
L 1344 0 
L 684 0 
L 684 794 
z
" transform="scale(0.015625)"/>
       </defs>
       <use xlink:href="#DejaVuSans-30"/>
       <use xlink:href="#DejaVuSans-2e" transform="translate(63.623047 0)"/>
       <use xlink:href="#DejaVuSans-30" transform="translate(95.410156 0)"/>
       <use xlink:href="#DejaVuSans-30" transform="translate(159.033203 0)"/>
      </g>
     </g>
    </g>
    <g id="xtick_2">
     <g id="line2d_2">
      <path d="M 134.792615 390.04 
L 134.792615 57.0062 
" clip-path="url(#p3b8118ded9)" style="fill: none; stroke: #ffffff; stroke-width: 0.8; stroke-linecap: round"/>
     </g>
     <g id="text_2">
      <!-- 0.25 -->
      <g style="fill: #262626" transform="translate(123.659802 404.638438) scale(0.1 -0.1)">
       <defs>
        <path id="DejaVuSans-32" d="M 1228 531 
L 3431 531 
L 3431 0 
L 469 0 
L 469 531 
Q 828 903 1448 1529 
Q 2069 2156 2228 2338 
Q 2531 2678 2651 2914 
Q 2772 3150 2772 3378 
Q 2772 3750 2511 3984 
Q 2250 4219 1831 4219 
Q 1534 4219 1204 4116 
Q 875 4013 500 3803 
L 500 4441 
Q 881 4594 1212 4672 
Q 1544 4750 1819 4750 
Q 2544 4750 2975 4387 
Q 3406 4025 3406 3419 
Q 3406 3131 3298 2873 
Q 3191 2616 2906 2266 
Q 2828 2175 2409 1742 
Q 1991 1309 1228 531 
z
" transform="scale(0.015625)"/>
        <path id="DejaVuSans-35" d="M 691 4666 
L 3169 4666 
L 3169 4134 
L 1269 4134 
L 1269 2991 
Q 1406 3038 1543 3061 
Q 1681 3084 1819 3084 
Q 2600 3084 3056 2656 
Q 3513 2228 3513 1497 
Q 3513 744 3044 326 
Q 2575 -91 1722 -91 
Q 1428 -91 1123 -41 
Q 819 9 494 109 
L 494 744 
Q 775 591 1075 516 
Q 1375 441 1709 441 
Q 2250 441 2565 725 
Q 2881 1009 2881 1497 
Q 2881 1984 2565 2268 
Q 2250 2553 1709 2553 
Q 1456 2553 1204 2497 
Q 953 2441 691 2322 
L 691 4666 
z
" transform="scale(0.015625)"/>
       </defs>
       <use xlink:href="#DejaVuSans-30"/>
       <use xlink:href="#DejaVuSans-2e" transform="translate(63.623047 0)"/>
       <use xlink:href="#DejaVuSans-32" transform="translate(95.410156 0)"/>
       <use xlink:href="#DejaVuSans-35" transform="translate(159.033203 0)"/>
      </g>
     </g>
    </g>
    <g id="xtick_3">
     <g id="line2d_3">
      <path d="M 203.954399 390.04 
L 203.954399 57.0062 
" clip-path="url(#p3b8118ded9)" style="fill: none; stroke: #ffffff; stroke-width: 0.8; stroke-linecap: round"/>
     </g>
     <g id="text_3">
      <!-- 0.50 -->
      <g style="fill: #262626" transform="translate(192.821587 404.638438) scale(0.1 -0.1)">
       <use xlink:href="#DejaVuSans-30"/>
       <use xlink:href="#DejaVuSans-2e" transform="translate(63.623047 0)"/>
       <use xlink:href="#DejaVuSans-35" transform="translate(95.410156 0)"/>
       <use xlink:href="#DejaVuSans-30" transform="translate(159.033203 0)"/>
      </g>
     </g>
    </g>
    <g id="xtick_4">
     <g id="line2d_4">
      <path d="M 273.116184 390.04 
L 273.116184 57.0062 
" clip-path="url(#p3b8118ded9)" style="fill: none; stroke: #ffffff; stroke-width: 0.8; stroke-linecap: round"/>
     </g>
     <g id="text_4">
      <!-- 0.75 -->
      <g style="fill: #262626" transform="translate(261.983371 404.638438) scale(0.1 -0.1)">
       <defs>
        <path id="DejaVuSans-37" d="M 525 4666 
L 3525 4666 
L 3525 4397 
L 1831 0 
L 1172 0 
L 2766 4134 
L 525 4134 
L 525 4666 
z
" transform="scale(0.015625)"/>
       </defs>
       <use xlink:href="#DejaVuSans-30"/>
       <use xlink:href="#DejaVuSans-2e" transform="translate(63.623047 0)"/>
       <use xlink:href="#DejaVuSans-37" transform="translate(95.410156 0)"/>
       <use xlink:href="#DejaVuSans-35" transform="translate(159.033203 0)"/>
      </g>
     </g>
    </g>
    <g id="xtick_5">
     <g id="line2d_5">
      <path d="M 342.277969 390.04 
L 342.277969 57.0062 
" clip-path="url(#p3b8118ded9)" style="fill: none; stroke: #ffffff; stroke-width: 0.8; stroke-linecap: round"/>
     </g>
     <g id="text_5">
      <!-- 1.00 -->
      <g style="fill: #262626" transform="translate(331.145156 404.638438) scale(0.1 -0.1)">
       <defs>
        <path id="DejaVuSans-31" d="M 794 531 
L 1825 531 
L 1825 4091 
L 703 3866 
L 703 4441 
L 1819 4666 
L 2450 4666 
L 2450 531 
L 3481 531 
L 3481 0 
L 794 0 
L 794 531 
z
" transform="scale(0.015625)"/>
       </defs>
       <use xlink:href="#DejaVuSans-31"/>
       <use xlink:href="#DejaVuSans-2e" transform="translate(63.623047 0)"/>
       <use xlink:href="#DejaVuSans-30" transform="translate(95.410156 0)"/>
       <use xlink:href="#DejaVuSans-30" transform="translate(159.033203 0)"/>
      </g>
     </g>
    </g>
    <g id="xtick_6">
     <g id="line2d_6">
      <path d="M 411.439753 390.04 
L 411.439753 57.0062 
" clip-path="url(#p3b8118ded9)" style="fill: none; stroke: #ffffff; stroke-width: 0.8; stroke-linecap: round"/>
     </g>
     <g id="text_6">
      <!-- 1.25 -->
      <g style="fill: #262626" transform="translate(400.306941 404.638438) scale(0.1 -0.1)">
       <use xlink:href="#DejaVuSans-31"/>
       <use xlink:href="#DejaVuSans-2e" transform="translate(63.623047 0)"/>
       <use xlink:href="#DejaVuSans-32" transform="translate(95.410156 0)"/>
       <use xlink:href="#DejaVuSans-35" transform="translate(159.033203 0)"/>
      </g>
     </g>
    </g>
    <g id="xtick_7">
     <g id="line2d_7">
      <path d="M 480.601538 390.04 
L 480.601538 57.0062 
" clip-path="url(#p3b8118ded9)" style="fill: none; stroke: #ffffff; stroke-width: 0.8; stroke-linecap: round"/>
     </g>
     <g id="text_7">
      <!-- 1.50 -->
      <g style="fill: #262626" transform="translate(469.468726 404.638438) scale(0.1 -0.1)">
       <use xlink:href="#DejaVuSans-31"/>
       <use xlink:href="#DejaVuSans-2e" transform="translate(63.623047 0)"/>
       <use xlink:href="#DejaVuSans-35" transform="translate(95.410156 0)"/>
       <use xlink:href="#DejaVuSans-30" transform="translate(159.033203 0)"/>
      </g>
     </g>
    </g>
    <g id="xtick_8">
     <g id="line2d_8">
      <path d="M 549.763323 390.04 
L 549.763323 57.0062 
" clip-path="url(#p3b8118ded9)" style="fill: none; stroke: #ffffff; stroke-width: 0.8; stroke-linecap: round"/>
     </g>
     <g id="text_8">
      <!-- 1.75 -->
      <g style="fill: #262626" transform="translate(538.63051 404.638438) scale(0.1 -0.1)">
       <use xlink:href="#DejaVuSans-31"/>
       <use xlink:href="#DejaVuSans-2e" transform="translate(63.623047 0)"/>
       <use xlink:href="#DejaVuSans-37" transform="translate(95.410156 0)"/>
       <use xlink:href="#DejaVuSans-35" transform="translate(159.033203 0)"/>
      </g>
     </g>
    </g>
    <g id="xtick_9">
     <g id="line2d_9">
      <path d="M 618.925107 390.04 
L 618.925107 57.0062 
" clip-path="url(#p3b8118ded9)" style="fill: none; stroke: #ffffff; stroke-width: 0.8; stroke-linecap: round"/>
     </g>
     <g id="text_9">
      <!-- 2.00 -->
      <g style="fill: #262626" transform="translate(607.792295 404.638438) scale(0.1 -0.1)">
       <use xlink:href="#DejaVuSans-32"/>
       <use xlink:href="#DejaVuSans-2e" transform="translate(63.623047 0)"/>
       <use xlink:href="#DejaVuSans-30" transform="translate(95.410156 0)"/>
       <use xlink:href="#DejaVuSans-30" transform="translate(159.033203 0)"/>
      </g>
     </g>
    </g>
    <g id="text_10">
     <!-- Steps -->
     <g style="fill: #262626" transform="translate(334.927656 418.316562) scale(0.1 -0.1)">
      <defs>
       <path id="DejaVuSans-53" d="M 3425 4513 
L 3425 3897 
Q 3066 4069 2747 4153 
Q 2428 4238 2131 4238 
Q 1616 4238 1336 4038 
Q 1056 3838 1056 3469 
Q 1056 3159 1242 3001 
Q 1428 2844 1947 2747 
L 2328 2669 
Q 3034 2534 3370 2195 
Q 3706 1856 3706 1288 
Q 3706 609 3251 259 
Q 2797 -91 1919 -91 
Q 1588 -91 1214 -16 
Q 841 59 441 206 
L 441 856 
Q 825 641 1194 531 
Q 1563 422 1919 422 
Q 2459 422 2753 634 
Q 3047 847 3047 1241 
Q 3047 1584 2836 1778 
Q 2625 1972 2144 2069 
L 1759 2144 
Q 1053 2284 737 2584 
Q 422 2884 422 3419 
Q 422 4038 858 4394 
Q 1294 4750 2059 4750 
Q 2388 4750 2728 4690 
Q 3069 4631 3425 4513 
z
" transform="scale(0.015625)"/>
       <path id="DejaVuSans-74" d="M 1172 4494 
L 1172 3500 
L 2356 3500 
L 2356 3053 
L 1172 3053 
L 1172 1153 
Q 1172 725 1289 603 
Q 1406 481 1766 481 
L 2356 481 
L 2356 0 
L 1766 0 
Q 1100 0 847 248 
Q 594 497 594 1153 
L 594 3053 
L 172 3053 
L 172 3500 
L 594 3500 
L 594 4494 
L 1172 4494 
z
" transform="scale(0.015625)"/>
       <path id="DejaVuSans-65" d="M 3597 1894 
L 3597 1613 
L 953 1613 
Q 991 1019 1311 708 
Q 1631 397 2203 397 
Q 2534 397 2845 478 
Q 3156 559 3463 722 
L 3463 178 
Q 3153 47 2828 -22 
Q 2503 -91 2169 -91 
Q 1331 -91 842 396 
Q 353 884 353 1716 
Q 353 2575 817 3079 
Q 1281 3584 2069 3584 
Q 2775 3584 3186 3129 
Q 3597 2675 3597 1894 
z
M 3022 2063 
Q 3016 2534 2758 2815 
Q 2500 3097 2075 3097 
Q 1594 3097 1305 2825 
Q 1016 2553 972 2059 
L 3022 2063 
z
" transform="scale(0.015625)"/>
       <path id="DejaVuSans-70" d="M 1159 525 
L 1159 -1331 
L 581 -1331 
L 581 3500 
L 1159 3500 
L 1159 2969 
Q 1341 3281 1617 3432 
Q 1894 3584 2278 3584 
Q 2916 3584 3314 3078 
Q 3713 2572 3713 1747 
Q 3713 922 3314 415 
Q 2916 -91 2278 -91 
Q 1894 -91 1617 61 
Q 1341 213 1159 525 
z
M 3116 1747 
Q 3116 2381 2855 2742 
Q 2594 3103 2138 3103 
Q 1681 3103 1420 2742 
Q 1159 2381 1159 1747 
Q 1159 1113 1420 752 
Q 1681 391 2138 391 
Q 2594 391 2855 752 
Q 3116 1113 3116 1747 
z
" transform="scale(0.015625)"/>
       <path id="DejaVuSans-73" d="M 2834 3397 
L 2834 2853 
Q 2591 2978 2328 3040 
Q 2066 3103 1784 3103 
Q 1356 3103 1142 2972 
Q 928 2841 928 2578 
Q 928 2378 1081 2264 
Q 1234 2150 1697 2047 
L 1894 2003 
Q 2506 1872 2764 1633 
Q 3022 1394 3022 966 
Q 3022 478 2636 193 
Q 2250 -91 1575 -91 
Q 1294 -91 989 -36 
Q 684 19 347 128 
L 347 722 
Q 666 556 975 473 
Q 1284 391 1588 391 
Q 1994 391 2212 530 
Q 2431 669 2431 922 
Q 2431 1156 2273 1281 
Q 2116 1406 1581 1522 
L 1381 1569 
Q 847 1681 609 1914 
Q 372 2147 372 2553 
Q 372 3047 722 3315 
Q 1072 3584 1716 3584 
Q 2034 3584 2315 3537 
Q 2597 3491 2834 3397 
z
" transform="scale(0.015625)"/>
      </defs>
      <use xlink:href="#DejaVuSans-53"/>
      <use xlink:href="#DejaVuSans-74" transform="translate(63.476562 0)"/>
      <use xlink:href="#DejaVuSans-65" transform="translate(102.685547 0)"/>
      <use xlink:href="#DejaVuSans-70" transform="translate(164.208984 0)"/>
      <use xlink:href="#DejaVuSans-73" transform="translate(227.685547 0)"/>
     </g>
    </g>
    <g id="text_11">
     <!-- 1e6 -->
     <g style="fill: #262626" transform="translate(613.326875 417.316562) scale(0.1 -0.1)">
      <defs>
       <path id="DejaVuSans-36" d="M 2113 2584 
Q 1688 2584 1439 2293 
Q 1191 2003 1191 1497 
Q 1191 994 1439 701 
Q 1688 409 2113 409 
Q 2538 409 2786 701 
Q 3034 994 3034 1497 
Q 3034 2003 2786 2293 
Q 2538 2584 2113 2584 
z
M 3366 4563 
L 3366 3988 
Q 3128 4100 2886 4159 
Q 2644 4219 2406 4219 
Q 1781 4219 1451 3797 
Q 1122 3375 1075 2522 
Q 1259 2794 1537 2939 
Q 1816 3084 2150 3084 
Q 2853 3084 3261 2657 
Q 3669 2231 3669 1497 
Q 3669 778 3244 343 
Q 2819 -91 2113 -91 
Q 1303 -91 875 529 
Q 447 1150 447 2328 
Q 447 3434 972 4092 
Q 1497 4750 2381 4750 
Q 2619 4750 2861 4703 
Q 3103 4656 3366 4563 
z
" transform="scale(0.015625)"/>
      </defs>
      <use xlink:href="#DejaVuSans-31"/>
      <use xlink:href="#DejaVuSans-65" transform="translate(63.623047 0)"/>
      <use xlink:href="#DejaVuSans-36" transform="translate(125.146484 0)"/>
     </g>
    </g>
   </g>
   <g id="matplotlib.axis_2">
    <g id="ytick_1">
     <g id="line2d_10">
      <path d="M 65.63 390.04 
L 632.205 390.04 
" clip-path="url(#p3b8118ded9)" style="fill: none; stroke: #ffffff; stroke-width: 0.8; stroke-linecap: round"/>
     </g>
     <g id="text_12">
      <!-- −1600 -->
      <g style="fill: #262626" transform="translate(24.800313 393.839219) scale(0.1 -0.1)">
       <defs>
        <path id="DejaVuSans-2212" d="M 678 2272 
L 4684 2272 
L 4684 1741 
L 678 1741 
L 678 2272 
z
" transform="scale(0.015625)"/>
       </defs>
       <use xlink:href="#DejaVuSans-2212"/>
       <use xlink:href="#DejaVuSans-31" transform="translate(83.789062 0)"/>
       <use xlink:href="#DejaVuSans-36" transform="translate(147.412109 0)"/>
       <use xlink:href="#DejaVuSans-30" transform="translate(211.035156 0)"/>
       <use xlink:href="#DejaVuSans-30" transform="translate(274.658203 0)"/>
      </g>
     </g>
    </g>
    <g id="ytick_2">
     <g id="line2d_11">
      <path d="M 65.63 348.410775 
L 632.205 348.410775 
" clip-path="url(#p3b8118ded9)" style="fill: none; stroke: #ffffff; stroke-width: 0.8; stroke-linecap: round"/>
     </g>
     <g id="text_13">
      <!-- −1400 -->
      <g style="fill: #262626" transform="translate(24.800313 352.209994) scale(0.1 -0.1)">
       <defs>
        <path id="DejaVuSans-34" d="M 2419 4116 
L 825 1625 
L 2419 1625 
L 2419 4116 
z
M 2253 4666 
L 3047 4666 
L 3047 1625 
L 3713 1625 
L 3713 1100 
L 3047 1100 
L 3047 0 
L 2419 0 
L 2419 1100 
L 313 1100 
L 313 1709 
L 2253 4666 
z
" transform="scale(0.015625)"/>
       </defs>
       <use xlink:href="#DejaVuSans-2212"/>
       <use xlink:href="#DejaVuSans-31" transform="translate(83.789062 0)"/>
       <use xlink:href="#DejaVuSans-34" transform="translate(147.412109 0)"/>
       <use xlink:href="#DejaVuSans-30" transform="translate(211.035156 0)"/>
       <use xlink:href="#DejaVuSans-30" transform="translate(274.658203 0)"/>
      </g>
     </g>
    </g>
    <g id="ytick_3">
     <g id="line2d_12">
      <path d="M 65.63 306.78155 
L 632.205 306.78155 
" clip-path="url(#p3b8118ded9)" style="fill: none; stroke: #ffffff; stroke-width: 0.8; stroke-linecap: round"/>
     </g>
     <g id="text_14">
      <!-- −1200 -->
      <g style="fill: #262626" transform="translate(24.800313 310.580769) scale(0.1 -0.1)">
       <use xlink:href="#DejaVuSans-2212"/>
       <use xlink:href="#DejaVuSans-31" transform="translate(83.789062 0)"/>
       <use xlink:href="#DejaVuSans-32" transform="translate(147.412109 0)"/>
       <use xlink:href="#DejaVuSans-30" transform="translate(211.035156 0)"/>
       <use xlink:href="#DejaVuSans-30" transform="translate(274.658203 0)"/>
      </g>
     </g>
    </g>
    <g id="ytick_4">
     <g id="line2d_13">
      <path d="M 65.63 265.152325 
L 632.205 265.152325 
" clip-path="url(#p3b8118ded9)" style="fill: none; stroke: #ffffff; stroke-width: 0.8; stroke-linecap: round"/>
     </g>
     <g id="text_15">
      <!-- −1000 -->
      <g style="fill: #262626" transform="translate(24.800313 268.951544) scale(0.1 -0.1)">
       <use xlink:href="#DejaVuSans-2212"/>
       <use xlink:href="#DejaVuSans-31" transform="translate(83.789062 0)"/>
       <use xlink:href="#DejaVuSans-30" transform="translate(147.412109 0)"/>
       <use xlink:href="#DejaVuSans-30" transform="translate(211.035156 0)"/>
       <use xlink:href="#DejaVuSans-30" transform="translate(274.658203 0)"/>
      </g>
     </g>
    </g>
    <g id="ytick_5">
     <g id="line2d_14">
      <path d="M 65.63 223.5231 
L 632.205 223.5231 
" clip-path="url(#p3b8118ded9)" style="fill: none; stroke: #ffffff; stroke-width: 0.8; stroke-linecap: round"/>
     </g>
     <g id="text_16">
      <!-- −800 -->
      <g style="fill: #262626" transform="translate(31.162813 227.322319) scale(0.1 -0.1)">
       <defs>
        <path id="DejaVuSans-38" d="M 2034 2216 
Q 1584 2216 1326 1975 
Q 1069 1734 1069 1313 
Q 1069 891 1326 650 
Q 1584 409 2034 409 
Q 2484 409 2743 651 
Q 3003 894 3003 1313 
Q 3003 1734 2745 1975 
Q 2488 2216 2034 2216 
z
M 1403 2484 
Q 997 2584 770 2862 
Q 544 3141 544 3541 
Q 544 4100 942 4425 
Q 1341 4750 2034 4750 
Q 2731 4750 3128 4425 
Q 3525 4100 3525 3541 
Q 3525 3141 3298 2862 
Q 3072 2584 2669 2484 
Q 3125 2378 3379 2068 
Q 3634 1759 3634 1313 
Q 3634 634 3220 271 
Q 2806 -91 2034 -91 
Q 1263 -91 848 271 
Q 434 634 434 1313 
Q 434 1759 690 2068 
Q 947 2378 1403 2484 
z
M 1172 3481 
Q 1172 3119 1398 2916 
Q 1625 2713 2034 2713 
Q 2441 2713 2670 2916 
Q 2900 3119 2900 3481 
Q 2900 3844 2670 4047 
Q 2441 4250 2034 4250 
Q 1625 4250 1398 4047 
Q 1172 3844 1172 3481 
z
" transform="scale(0.015625)"/>
       </defs>
       <use xlink:href="#DejaVuSans-2212"/>
       <use xlink:href="#DejaVuSans-38" transform="translate(83.789062 0)"/>
       <use xlink:href="#DejaVuSans-30" transform="translate(147.412109 0)"/>
       <use xlink:href="#DejaVuSans-30" transform="translate(211.035156 0)"/>
      </g>
     </g>
    </g>
    <g id="ytick_6">
     <g id="line2d_15">
      <path d="M 65.63 181.893875 
L 632.205 181.893875 
" clip-path="url(#p3b8118ded9)" style="fill: none; stroke: #ffffff; stroke-width: 0.8; stroke-linecap: round"/>
     </g>
     <g id="text_17">
      <!-- −600 -->
      <g style="fill: #262626" transform="translate(31.162813 185.693094) scale(0.1 -0.1)">
       <use xlink:href="#DejaVuSans-2212"/>
       <use xlink:href="#DejaVuSans-36" transform="translate(83.789062 0)"/>
       <use xlink:href="#DejaVuSans-30" transform="translate(147.412109 0)"/>
       <use xlink:href="#DejaVuSans-30" transform="translate(211.035156 0)"/>
      </g>
     </g>
    </g>
    <g id="ytick_7">
     <g id="line2d_16">
      <path d="M 65.63 140.26465 
L 632.205 140.26465 
" clip-path="url(#p3b8118ded9)" style="fill: none; stroke: #ffffff; stroke-width: 0.8; stroke-linecap: round"/>
     </g>
     <g id="text_18">
      <!-- −400 -->
      <g style="fill: #262626" transform="translate(31.162813 144.063869) scale(0.1 -0.1)">
       <use xlink:href="#DejaVuSans-2212"/>
       <use xlink:href="#DejaVuSans-34" transform="translate(83.789062 0)"/>
       <use xlink:href="#DejaVuSans-30" transform="translate(147.412109 0)"/>
       <use xlink:href="#DejaVuSans-30" transform="translate(211.035156 0)"/>
      </g>
     </g>
    </g>
    <g id="ytick_8">
     <g id="line2d_17">
      <path d="M 65.63 98.635425 
L 632.205 98.635425 
" clip-path="url(#p3b8118ded9)" style="fill: none; stroke: #ffffff; stroke-width: 0.8; stroke-linecap: round"/>
     </g>
     <g id="text_19">
      <!-- −200 -->
      <g style="fill: #262626" transform="translate(31.162813 102.434644) scale(0.1 -0.1)">
       <use xlink:href="#DejaVuSans-2212"/>
       <use xlink:href="#DejaVuSans-32" transform="translate(83.789062 0)"/>
       <use xlink:href="#DejaVuSans-30" transform="translate(147.412109 0)"/>
       <use xlink:href="#DejaVuSans-30" transform="translate(211.035156 0)"/>
      </g>
     </g>
    </g>
    <g id="ytick_9">
     <g id="line2d_18">
      <path d="M 65.63 57.0062 
L 632.205 57.0062 
" clip-path="url(#p3b8118ded9)" style="fill: none; stroke: #ffffff; stroke-width: 0.8; stroke-linecap: round"/>
     </g>
     <g id="text_20">
      <!-- 0 -->
      <g style="fill: #262626" transform="translate(52.2675 60.805419) scale(0.1 -0.1)">
       <use xlink:href="#DejaVuSans-30"/>
      </g>
     </g>
    </g>
    <g id="text_21">
     <!-- Reward -->
     <g style="fill: #262626" transform="translate(18.720625 242.144194) rotate(-90) scale(0.1 -0.1)">
      <defs>
       <path id="DejaVuSans-52" d="M 2841 2188 
Q 3044 2119 3236 1894 
Q 3428 1669 3622 1275 
L 4263 0 
L 3584 0 
L 2988 1197 
Q 2756 1666 2539 1819 
Q 2322 1972 1947 1972 
L 1259 1972 
L 1259 0 
L 628 0 
L 628 4666 
L 2053 4666 
Q 2853 4666 3247 4331 
Q 3641 3997 3641 3322 
Q 3641 2881 3436 2590 
Q 3231 2300 2841 2188 
z
M 1259 4147 
L 1259 2491 
L 2053 2491 
Q 2509 2491 2742 2702 
Q 2975 2913 2975 3322 
Q 2975 3731 2742 3939 
Q 2509 4147 2053 4147 
L 1259 4147 
z
" transform="scale(0.015625)"/>
       <path id="DejaVuSans-77" d="M 269 3500 
L 844 3500 
L 1563 769 
L 2278 3500 
L 2956 3500 
L 3675 769 
L 4391 3500 
L 4966 3500 
L 4050 0 
L 3372 0 
L 2619 2869 
L 1863 0 
L 1184 0 
L 269 3500 
z
" transform="scale(0.015625)"/>
       <path id="DejaVuSans-61" d="M 2194 1759 
Q 1497 1759 1228 1600 
Q 959 1441 959 1056 
Q 959 750 1161 570 
Q 1363 391 1709 391 
Q 2188 391 2477 730 
Q 2766 1069 2766 1631 
L 2766 1759 
L 2194 1759 
z
M 3341 1997 
L 3341 0 
L 2766 0 
L 2766 531 
Q 2569 213 2275 61 
Q 1981 -91 1556 -91 
Q 1019 -91 701 211 
Q 384 513 384 1019 
Q 384 1609 779 1909 
Q 1175 2209 1959 2209 
L 2766 2209 
L 2766 2266 
Q 2766 2663 2505 2880 
Q 2244 3097 1772 3097 
Q 1472 3097 1187 3025 
Q 903 2953 641 2809 
L 641 3341 
Q 956 3463 1253 3523 
Q 1550 3584 1831 3584 
Q 2591 3584 2966 3190 
Q 3341 2797 3341 1997 
z
" transform="scale(0.015625)"/>
       <path id="DejaVuSans-72" d="M 2631 2963 
Q 2534 3019 2420 3045 
Q 2306 3072 2169 3072 
Q 1681 3072 1420 2755 
Q 1159 2438 1159 1844 
L 1159 0 
L 581 0 
L 581 3500 
L 1159 3500 
L 1159 2956 
Q 1341 3275 1631 3429 
Q 1922 3584 2338 3584 
Q 2397 3584 2469 3576 
Q 2541 3569 2628 3553 
L 2631 2963 
z
" transform="scale(0.015625)"/>
       <path id="DejaVuSans-64" d="M 2906 2969 
L 2906 4863 
L 3481 4863 
L 3481 0 
L 2906 0 
L 2906 525 
Q 2725 213 2448 61 
Q 2172 -91 1784 -91 
Q 1150 -91 751 415 
Q 353 922 353 1747 
Q 353 2572 751 3078 
Q 1150 3584 1784 3584 
Q 2172 3584 2448 3432 
Q 2725 3281 2906 2969 
z
M 947 1747 
Q 947 1113 1208 752 
Q 1469 391 1925 391 
Q 2381 391 2643 752 
Q 2906 1113 2906 1747 
Q 2906 2381 2643 2742 
Q 2381 3103 1925 3103 
Q 1469 3103 1208 2742 
Q 947 2381 947 1747 
z
" transform="scale(0.015625)"/>
      </defs>
      <use xlink:href="#DejaVuSans-52"/>
      <use xlink:href="#DejaVuSans-65" transform="translate(64.982422 0)"/>
      <use xlink:href="#DejaVuSans-77" transform="translate(126.505859 0)"/>
      <use xlink:href="#DejaVuSans-61" transform="translate(208.292969 0)"/>
      <use xlink:href="#DejaVuSans-72" transform="translate(269.572266 0)"/>
      <use xlink:href="#DejaVuSans-64" transform="translate(308.935547 0)"/>
     </g>
    </g>
   </g>
   <g id="FillBetweenPolyCollection_1">
    <path d="M 65.63083 298.100952 
L 65.63083 327.137225 
L 71.296563 299.770976 
L 76.962297 299.724198 
L 82.62803 300.258269 
L 88.293764 291.635526 
L 93.959497 279.909042 
L 99.62523 273.480581 
L 105.290964 261.355366 
L 110.956697 263.556737 
L 116.622431 256.705807 
L 122.288164 250.575486 
L 127.953897 246.26788 
L 133.619631 242.251977 
L 139.285364 242.341184 
L 144.951098 230.402636 
L 150.616831 245.890372 
L 156.282564 238.724885 
L 161.948298 223.482885 
L 167.614031 224.966252 
L 173.279765 218.597931 
L 178.945498 209.307896 
L 184.611231 206.833715 
L 190.276965 192.78098 
L 195.942698 165.187149 
L 201.608432 166.244667 
L 207.274165 189.244301 
L 212.939898 171.590175 
L 218.605632 204.809505 
L 224.271365 166.644423 
L 229.937099 199.55052 
L 235.602832 163.315305 
L 241.268565 171.349777 
L 246.934299 187.303112 
L 252.600032 203.668356 
L 258.265766 180.114147 
L 263.931499 155.178668 
L 269.597232 168.820396 
L 275.262966 172.749722 
L 280.928699 188.285212 
L 286.594433 138.561872 
L 292.260166 171.329298 
L 297.925899 158.921754 
L 303.591633 209.525 
L 309.257366 222.75804 
L 314.9231 213.17202 
L 320.588833 216.628902 
L 326.254566 223.784914 
L 331.9203 242.523433 
L 337.586033 229.279947 
L 343.251767 222.183093 
L 348.9175 230.666103 
L 354.583233 229.342604 
L 360.248967 229.946183 
L 365.9147 225.061902 
L 371.580434 225.366966 
L 377.246167 194.596975 
L 382.9119 184.346445 
L 388.577634 178.04638 
L 394.243367 224.511497 
L 399.909101 202.311267 
L 405.574834 203.107645 
L 411.240567 207.100934 
L 416.906301 170.957584 
L 422.572034 207.552449 
L 428.237768 210.061342 
L 433.903501 246.271718 
L 439.569234 243.243086 
L 445.234968 279.563661 
L 450.900701 237.038067 
L 456.566435 228.460581 
L 462.232168 216.178772 
L 467.897901 272.09505 
L 473.563635 297.486349 
L 479.229368 263.368583 
L 484.895102 281.489505 
L 490.560835 307.038013 
L 496.226568 291.170699 
L 501.892302 294.202482 
L 507.558035 292.163904 
L 513.223769 299.723175 
L 518.889502 273.521873 
L 524.555235 284.621847 
L 530.220969 290.236944 
L 535.886702 257.540664 
L 541.552436 275.755105 
L 547.218169 285.878305 
L 552.883902 265.990075 
L 558.549636 239.427583 
L 564.215369 264.850435 
L 569.881103 254.33552 
L 575.546836 254.176198 
L 581.212569 280.857757 
L 586.878303 245.424862 
L 592.544036 258.919233 
L 598.20977 248.135153 
L 603.875503 253.719971 
L 609.541236 249.698822 
L 615.20697 257.839033 
L 620.872703 264.629259 
L 626.538437 256.094873 
L 626.538437 60.499891 
L 626.538437 60.499891 
L 620.872703 73.359069 
L 615.20697 58.886746 
L 609.541236 60.786291 
L 603.875503 74.475477 
L 598.20977 79.184025 
L 592.544036 82.229176 
L 586.878303 81.294754 
L 581.212569 80.82748 
L 575.546836 69.913366 
L 569.881103 91.191139 
L 564.215369 83.337964 
L 558.549636 87.49338 
L 552.883902 92.741224 
L 547.218169 80.941368 
L 541.552436 87.170602 
L 535.886702 92.573035 
L 530.220969 98.05676 
L 524.555235 104.851896 
L 518.889502 93.792296 
L 513.223769 102.07355 
L 507.558035 96.863219 
L 501.892302 96.2955 
L 496.226568 112.754622 
L 490.560835 97.836169 
L 484.895102 97.264248 
L 479.229368 101.322271 
L 473.563635 98.787775 
L 467.897901 78.817598 
L 462.232168 107.514937 
L 456.566435 97.76191 
L 450.900701 118.574711 
L 445.234968 89.760319 
L 439.569234 102.739225 
L 433.903501 102.917022 
L 428.237768 94.435816 
L 422.572034 135.535446 
L 416.906301 103.06501 
L 411.240567 119.467918 
L 405.574834 111.196629 
L 399.909101 122.187228 
L 394.243367 117.569634 
L 388.577634 116.088315 
L 382.9119 111.182656 
L 377.246167 115.461186 
L 371.580434 115.737625 
L 365.9147 131.750623 
L 360.248967 138.037455 
L 354.583233 111.87027 
L 348.9175 104.572894 
L 343.251767 132.747995 
L 337.586033 126.4744 
L 331.9203 111.123699 
L 326.254566 121.594207 
L 320.588833 105.736186 
L 314.9231 106.717184 
L 309.257366 126.3251 
L 303.591633 112.863971 
L 297.925899 131.575331 
L 292.260166 144.020484 
L 286.594433 113.805797 
L 280.928699 149.863175 
L 275.262966 134.428242 
L 269.597232 124.753241 
L 263.931499 132.545354 
L 258.265766 137.250944 
L 252.600032 138.711077 
L 246.934299 133.422749 
L 241.268565 133.836108 
L 235.602832 134.579787 
L 229.937099 148.34816 
L 224.271365 129.362688 
L 218.605632 137.356136 
L 212.939898 144.397855 
L 207.274165 158.769305 
L 201.608432 132.564943 
L 195.942698 141.018141 
L 190.276965 127.572925 
L 184.611231 153.152391 
L 178.945498 149.789135 
L 173.279765 151.331133 
L 167.614031 172.916973 
L 161.948298 172.108768 
L 156.282564 190.8092 
L 150.616831 208.433822 
L 144.951098 219.016483 
L 139.285364 208.729053 
L 133.619631 219.806176 
L 127.953897 223.276979 
L 122.288164 236.871276 
L 116.622431 243.839891 
L 110.956697 250.429574 
L 105.290964 249.099189 
L 99.62523 259.786616 
L 93.959497 273.327652 
L 88.293764 280.866753 
L 82.62803 282.65483 
L 76.962297 271.565527 
L 71.296563 295.17926 
L 65.63083 298.100952 
z
" clip-path="url(#p3b8118ded9)" style="fill: #0000ff; fill-opacity: 0.1"/>
   </g>
   <g id="line2d_19">
    <path d="M 65.63083 312.619089 
L 71.296563 297.475118 
L 76.962297 285.644863 
L 82.62803 291.456549 
L 88.293764 286.25114 
L 93.959497 276.618347 
L 99.62523 266.633599 
L 105.290964 255.227278 
L 110.956697 256.993155 
L 116.622431 250.272849 
L 122.288164 243.723381 
L 127.953897 234.77243 
L 133.619631 231.029077 
L 139.285364 225.535119 
L 144.951098 224.70956 
L 150.616831 227.162097 
L 156.282564 214.767043 
L 161.948298 197.795827 
L 167.614031 198.941613 
L 173.279765 184.964532 
L 178.945498 179.548515 
L 184.611231 179.993053 
L 190.276965 160.176953 
L 195.942698 153.102645 
L 201.608432 149.404805 
L 207.274165 174.006803 
L 212.939898 157.994015 
L 218.605632 171.08282 
L 224.271365 148.003555 
L 229.937099 173.94934 
L 235.602832 148.947546 
L 241.268565 152.592943 
L 246.934299 160.36293 
L 252.600032 171.189716 
L 258.265766 158.682545 
L 263.931499 143.862011 
L 269.597232 146.786819 
L 275.262966 153.588982 
L 280.928699 169.074193 
L 286.594433 126.183835 
L 292.260166 157.674891 
L 297.925899 145.248543 
L 303.591633 161.194486 
L 309.257366 174.54157 
L 314.9231 159.944602 
L 320.588833 161.182544 
L 326.254566 172.68956 
L 331.9203 176.823566 
L 337.586033 177.877173 
L 343.251767 177.465544 
L 348.9175 167.619499 
L 354.583233 170.606437 
L 360.248967 183.991819 
L 365.9147 178.406263 
L 371.580434 170.552295 
L 377.246167 155.029081 
L 382.9119 147.76455 
L 388.577634 147.067348 
L 394.243367 171.040566 
L 399.909101 162.249247 
L 405.574834 157.152137 
L 411.240567 163.284426 
L 416.906301 137.011297 
L 422.572034 171.543948 
L 428.237768 152.248579 
L 433.903501 174.59437 
L 439.569234 172.991155 
L 445.234968 184.66199 
L 450.900701 177.806389 
L 456.566435 163.111245 
L 462.232168 161.846855 
L 467.897901 175.456324 
L 473.563635 198.137062 
L 479.229368 182.345427 
L 484.895102 189.376876 
L 490.560835 202.437091 
L 496.226568 201.962661 
L 501.892302 195.248991 
L 507.558035 194.513561 
L 513.223769 200.898363 
L 518.889502 183.657084 
L 524.555235 194.736871 
L 530.220969 194.146852 
L 535.886702 175.05685 
L 541.552436 181.462853 
L 547.218169 183.409837 
L 552.883902 179.36565 
L 558.549636 163.460481 
L 564.215369 174.0942 
L 569.881103 172.76333 
L 575.546836 162.044782 
L 581.212569 180.842618 
L 586.878303 163.359808 
L 592.544036 170.574204 
L 598.20977 163.659589 
L 603.875503 164.097724 
L 609.541236 155.242556 
L 615.20697 158.362889 
L 620.872703 168.994164 
L 626.538437 158.297382 
" clip-path="url(#p3b8118ded9)" style="fill: none; stroke: #0000ff; stroke-width: 1.5; stroke-linecap: round"/>
   </g>
   <g id="line2d_20">
    <path d="M 65.63083 301.493086 
L 71.296563 296.162218 
L 76.962297 303.852897 
L 82.62803 299.419754 
L 88.293764 284.059533 
L 93.959497 270.20196 
L 99.62523 276.260125 
L 105.290964 256.592071 
L 110.956697 250.791258 
L 116.622431 245.539155 
L 122.288164 243.605232 
L 127.953897 227.896101 
L 133.619631 225.947085 
L 139.285364 215.475229 
L 144.951098 221.217847 
L 150.616831 227.618365 
L 156.282564 195.711777 
L 161.948298 180.915311 
L 167.614031 188.673223 
L 173.279765 173.235927 
L 178.945498 185.9817 
L 184.611231 177.90727 
L 190.276965 206.927425 
L 195.942698 142.468192 
L 201.608432 131.364669 
L 207.274165 172.402844 
L 212.939898 139.826691 
L 218.605632 206.740197 
L 224.271365 152.830468 
L 229.937099 203.23673 
L 235.602832 161.571233 
L 241.268565 121.778135 
L 246.934299 151.237512 
L 252.600032 148.340903 
L 258.265766 168.949356 
L 263.931499 148.399537 
L 269.597232 143.260362 
L 275.262966 144.210521 
L 280.928699 181.592987 
L 286.594433 133.41905 
L 292.260166 168.577326 
L 297.925899 158.785379 
L 303.591633 156.08921 
L 309.257366 212.771909 
L 314.9231 140.365569 
L 320.588833 202.414815 
L 326.254566 174.557451 
L 331.9203 124.361375 
L 337.586033 144.348309 
L 343.251767 194.795814 
L 348.9175 124.803386 
L 354.583233 138.785921 
L 360.248967 161.913186 
L 365.9147 103.919235 
L 371.580434 198.25017 
L 377.246167 140.076209 
L 382.9119 137.060821 
L 388.577634 156.03576 
L 394.243367 256.412052 
L 399.909101 226.36885 
L 405.574834 232.668193 
L 411.240567 235.283011 
L 416.906301 191.925872 
L 422.572034 236.997627 
L 428.237768 265.793421 
L 433.903501 308.496933 
L 439.569234 304.114304 
L 445.234968 368.572799 
L 450.900701 282.502345 
L 456.566435 289.509731 
L 462.232168 258.764199 
L 467.897901 361.307063 
L 473.563635 349.364745 
L 479.229368 287.373001 
L 484.895102 334.341035 
L 490.560835 329.73851 
L 496.226568 332.709102 
L 501.892302 345.930015 
L 507.558035 354.252105 
L 513.223769 354.623139 
L 518.889502 338.301918 
L 524.555235 324.66075 
L 530.220969 364.416417 
L 535.886702 306.619206 
L 541.552436 365.380879 
L 547.218169 380.505383 
L 552.883902 348.902994 
L 558.549636 312.295903 
L 564.215369 353.955675 
L 569.881103 331.892238 
L 575.546836 344.761989 
L 581.212569 374.591824 
L 586.878303 324.357048 
L 592.544036 340.836917 
L 598.20977 321.580092 
L 603.875503 340.602649 
L 609.541236 343.60948 
L 615.20697 356.842085 
L 620.872703 357.450418 
L 626.538437 352.594574 
" clip-path="url(#p3b8118ded9)" style="fill: none; stroke: #008000; stroke-opacity: 0.2; stroke-linecap: round"/>
   </g>
   <g id="line2d_21">
    <path d="M 65.63083 304.779886 
L 71.296563 299.83759 
L 76.962297 277.881935 
L 82.62803 304.247139 
L 88.293764 280.634496 
L 93.959497 279.521493 
L 99.62523 263.421095 
L 105.290964 247.194956 
L 110.956697 249.73326 
L 116.622431 255.882832 
L 122.288164 246.933462 
L 127.953897 252.616463 
L 133.619631 242.020346 
L 139.285364 247.22431 
L 144.951098 229.932687 
L 150.616831 240.206558 
L 156.282564 250.735246 
L 161.948298 227.735079 
L 167.614031 238.236688 
L 173.279765 220.413889 
L 178.945498 211.545779 
L 184.611231 214.311153 
L 190.276965 178.912715 
L 195.942698 148.054663 
L 201.608432 174.105707 
L 207.274165 163.495504 
L 212.939898 164.725396 
L 218.605632 213.013986 
L 224.271365 176.326461 
L 229.937099 175.823924 
L 235.602832 170.304785 
L 241.268565 180.89964 
L 246.934299 165.636593 
L 252.600032 183.137622 
L 258.265766 152.119436 
L 263.931499 151.899586 
L 269.597232 150.391997 
L 275.262966 173.564714 
L 280.928699 164.161063 
L 286.594433 118.355894 
L 292.260166 135.877606 
L 297.925899 129.378372 
L 303.591633 251.251655 
L 309.257366 247.977567 
L 314.9231 262.071729 
L 320.588833 249.063714 
L 326.254566 267.170898 
L 331.9203 283.697573 
L 337.586033 269.204428 
L 343.251767 236.337617 
L 348.9175 271.148057 
L 354.583233 269.986915 
L 360.248967 265.772288 
L 365.9147 234.7205 
L 371.580434 258.957217 
L 377.246167 229.433903 
L 382.9119 220.041734 
L 388.577634 198.04452 
L 394.243367 202.878349 
L 399.909101 182.519349 
L 405.574834 159.233937 
L 411.240567 166.050382 
L 416.906301 155.286745 
L 422.572034 143.284639 
L 428.237768 120.371069 
L 433.903501 146.580591 
L 439.569234 150.17033 
L 445.234968 142.216859 
L 450.900701 139.5099 
L 456.566435 147.585295 
L 462.232168 155.821273 
L 467.897901 166.980234 
L 473.563635 281.166756 
L 479.229368 271.62655 
L 484.895102 257.815587 
L 490.560835 322.530876 
L 496.226568 278.341506 
L 501.892302 281.577936 
L 507.558035 249.421726 
L 513.223769 280.505045 
L 518.889502 229.839722 
L 524.555235 278.454298 
L 530.220969 232.985648 
L 535.886702 237.396857 
L 541.552436 162.795845 
L 547.218169 185.621493 
L 552.883902 164.827393 
L 558.549636 124.726162 
L 564.215369 141.284916 
L 569.881103 150.918346 
L 575.546836 111.560974 
L 581.212569 177.681126 
L 586.878303 149.879916 
L 592.544036 166.136403 
L 598.20977 179.550796 
L 603.875503 129.656131 
L 609.541236 111.653507 
L 615.20697 102.119474 
L 620.872703 145.896431 
L 626.538437 128.76304 
" clip-path="url(#p3b8118ded9)" style="fill: none; stroke: #008000; stroke-opacity: 0.2; stroke-linecap: round"/>
   </g>
   <g id="line2d_22">
    <path d="M 65.63083 297.316961 
L 71.296563 300.08395 
L 76.962297 265.791477 
L 82.62803 281.793909 
L 88.293764 281.607173 
L 93.959497 277.805398 
L 99.62523 256.614917 
L 105.290964 265.220761 
L 110.956697 266.25815 
L 116.622431 259.900059 
L 122.288164 236.736832 
L 127.953897 222.732921 
L 133.619631 211.973171 
L 139.285364 209.390854 
L 144.951098 218.900701 
L 150.616831 203.477789 
L 156.282564 200.189133 
L 161.948298 181.094391 
L 167.614031 182.707394 
L 173.279765 155.360807 
L 178.945498 150.352656 
L 184.611231 149.000369 
L 190.276965 152.73378 
L 195.942698 169.136232 
L 201.608432 132.553644 
L 207.274165 157.159647 
L 212.939898 167.523715 
L 218.605632 128.158027 
L 224.271365 132.418987 
L 229.937099 190.472401 
L 235.602832 135.30766 
L 241.268565 154.672583 
L 246.934299 161.849305 
L 252.600032 203.915803 
L 258.265766 180.469086 
L 263.931499 155.972476 
L 269.597232 184.702922 
L 275.262966 138.961794 
L 280.928699 151.648895 
L 286.594433 105.933681 
L 292.260166 154.064104 
L 297.925899 141.353992 
L 303.591633 105.844841 
L 309.257366 157.412754 
L 314.9231 116.655639 
L 320.588833 133.828177 
L 326.254566 162.13021 
L 331.9203 223.762183 
L 337.586033 200.44438 
L 343.251767 200.753285 
L 348.9175 210.295383 
L 354.583233 195.400446 
L 360.248967 182.38163 
L 365.9147 192.712761 
L 371.580434 166.158593 
L 377.246167 133.977119 
L 382.9119 132.511321 
L 388.577634 147.362117 
L 394.243367 161.85049 
L 399.909101 161.508877 
L 405.574834 174.629821 
L 411.240567 179.510583 
L 416.906301 133.029861 
L 422.572034 172.046575 
L 428.237768 144.486761 
L 433.903501 159.785472 
L 439.569234 172.278062 
L 445.234968 152.042921 
L 450.900701 141.572318 
L 456.566435 126.556515 
L 462.232168 119.914524 
L 467.897901 98.427591 
L 473.563635 125.132477 
L 479.229368 129.310504 
L 484.895102 112.953357 
L 490.560835 95.713593 
L 496.226568 113.036677 
L 501.892302 110.675047 
L 507.558035 93.654742 
L 513.223769 114.999331 
L 518.889502 118.294382 
L 524.555235 116.118455 
L 530.220969 126.388913 
L 535.886702 111.59402 
L 541.552436 149.408061 
L 547.218169 133.283872 
L 552.883902 140.068316 
L 558.549636 139.804661 
L 564.215369 133.969972 
L 569.881103 127.934799 
L 575.546836 138.56186 
L 581.212569 127.202111 
L 586.878303 112.284039 
L 592.544036 127.795262 
L 598.20977 103.761879 
L 603.875503 113.202754 
L 609.541236 119.34964 
L 615.20697 116.066639 
L 620.872703 125.069231 
L 626.538437 108.808978 
" clip-path="url(#p3b8118ded9)" style="fill: none; stroke: #008000; stroke-opacity: 0.2; stroke-linecap: round"/>
   </g>
   <g id="line2d_23">
    <path d="M 65.63083 334.618979 
L 71.296563 293.979803 
L 76.962297 299.319177 
L 82.62803 284.257789 
L 88.293764 294.658186 
L 93.959497 278.245351 
L 99.62523 271.939133 
L 105.290964 250.737131 
L 110.956697 262.937767 
L 116.622431 246.632005 
L 122.288164 254.836994 
L 127.953897 243.954409 
L 133.619631 241.700461 
L 139.285364 244.671093 
L 144.951098 233.093629 
L 150.616831 254.283141 
L 156.282564 235.935985 
L 161.948298 229.884664 
L 167.614031 218.922388 
L 173.279765 228.943352 
L 178.945498 210.058532 
L 184.611231 206.379795 
L 190.276965 153.943339 
L 195.942698 165.858908 
L 201.608432 163.056871 
L 207.274165 201.614496 
L 212.939898 143.842788 
L 218.605632 164.105883 
L 224.271365 123.177616 
L 229.937099 172.533302 
L 235.602832 135.331166 
L 241.268565 151.418643 
L 246.934299 203.454899 
L 252.600032 200.89931 
L 258.265766 171.904291 
L 263.931499 138.723044 
L 269.597232 138.801336 
L 275.262966 179.337983 
L 280.928699 148.365624 
L 286.594433 133.057561 
L 292.260166 154.43998 
L 297.925899 163.612314 
L 303.591633 141.859829 
L 309.257366 129.230855 
L 314.9231 159.12896 
L 320.588833 106.943169 
L 326.254566 142.678956 
L 331.9203 132.015161 
L 337.586033 135.722074 
L 343.251767 146.963414 
L 348.9175 124.790582 
L 354.583233 151.644257 
L 360.248967 125.846216 
L 365.9147 149.098547 
L 371.580434 105.161686 
L 377.246167 114.758246 
L 382.9119 129.460941 
L 388.577634 129.293437 
L 394.243367 123.164352 
L 399.909101 121.742312 
L 405.574834 113.314799 
L 411.240567 119.377085 
L 416.906301 101.575365 
L 422.572034 171.262942 
L 428.237768 117.71578 
L 433.903501 165.154749 
L 439.569234 143.428429 
L 445.234968 165.017018 
L 450.900701 203.6273 
L 456.566435 148.725456 
L 462.232168 171.817638 
L 467.897901 148.892668 
L 473.563635 142.578183 
L 479.229368 134.402219 
L 484.895102 148.300625 
L 490.560835 169.480558 
L 496.226568 174.236907 
L 501.892302 122.928805 
L 507.558035 172.977045 
L 513.223769 144.737541 
L 518.889502 136.935478 
L 524.555235 151.835146 
L 530.220969 146.765876 
L 535.886702 121.841282 
L 541.552436 128.698021 
L 547.218169 110.723959 
L 552.883902 134.300599 
L 558.549636 141.529636 
L 564.215369 135.295208 
L 569.881103 150.900586 
L 575.546836 112.252979 
L 581.212569 122.660199 
L 586.878303 127.635489 
L 592.544036 126.586065 
L 598.20977 121.077105 
L 603.875503 141.691022 
L 609.541236 103.204133 
L 615.20697 116.677898 
L 620.872703 122.036631 
L 626.538437 107.90133 
" clip-path="url(#p3b8118ded9)" style="fill: none; stroke: #008000; stroke-opacity: 0.2; stroke-linecap: round"/>
   </g>
   <g id="line2d_24">
    <path d="M 65.63083 324.886531 
L 71.296563 297.31203 
L 76.962297 281.378827 
L 82.62803 287.564156 
L 88.293764 290.296312 
L 93.959497 277.317531 
L 99.62523 264.932723 
L 105.290964 256.39147 
L 110.956697 255.245341 
L 116.622431 243.410194 
L 122.288164 236.504385 
L 127.953897 226.662254 
L 133.619631 233.50432 
L 139.285364 210.914107 
L 144.951098 220.402935 
L 150.616831 210.224632 
L 156.282564 191.263072 
L 161.948298 169.349688 
L 167.614031 166.16837 
L 173.279765 146.868686 
L 178.945498 139.80391 
L 184.611231 152.366678 
L 190.276965 108.367505 
L 195.942698 139.995229 
L 201.608432 145.943134 
L 207.274165 175.361525 
L 212.939898 174.051484 
L 218.605632 143.396009 
L 224.271365 155.264244 
L 229.937099 127.680343 
L 235.602832 142.222886 
L 241.268565 154.195712 
L 246.934299 119.636342 
L 252.600032 119.654945 
L 258.265766 119.970558 
L 263.931499 124.315411 
L 269.597232 116.777476 
L 275.262966 131.869896 
L 280.928699 199.602397 
L 286.594433 140.152987 
L 292.260166 175.415438 
L 297.925899 133.112658 
L 303.591633 150.926892 
L 309.257366 125.314765 
L 314.9231 121.501112 
L 320.588833 113.662846 
L 326.254566 116.910288 
L 331.9203 120.281537 
L 337.586033 139.666675 
L 343.251767 108.477589 
L 348.9175 107.060085 
L 354.583233 97.214646 
L 360.248967 184.045774 
L 365.9147 211.580269 
L 371.580434 124.233812 
L 377.246167 156.899927 
L 382.9119 119.747934 
L 388.577634 104.600904 
L 394.243367 110.897586 
L 399.909101 119.106849 
L 405.574834 105.913934 
L 411.240567 116.201071 
L 416.906301 103.238642 
L 422.572034 134.127955 
L 428.237768 112.875862 
L 433.903501 92.954105 
L 439.569234 94.964652 
L 445.234968 95.460352 
L 450.900701 121.820082 
L 456.566435 103.17923 
L 462.232168 102.91664 
L 467.897901 101.674065 
L 473.563635 92.443149 
L 479.229368 89.014862 
L 484.895102 93.473776 
L 490.560835 94.721919 
L 496.226568 111.489112 
L 501.892302 115.133152 
L 507.558035 102.26219 
L 513.223769 109.626757 
L 518.889502 94.913921 
L 524.555235 102.615707 
L 530.220969 100.177406 
L 535.886702 97.832882 
L 541.552436 101.03146 
L 547.218169 106.914477 
L 552.883902 108.728946 
L 558.549636 98.946045 
L 564.215369 105.965227 
L 569.881103 102.17068 
L 575.546836 103.086108 
L 581.212569 102.077832 
L 586.878303 102.642549 
L 592.544036 91.516376 
L 598.20977 92.328073 
L 603.875503 95.336065 
L 609.541236 98.396022 
L 615.20697 100.108351 
L 620.872703 94.518111 
L 626.538437 93.41899 
" clip-path="url(#p3b8118ded9)" style="fill: none; stroke: #008000; stroke-opacity: 0.2; stroke-linecap: round"/>
   </g>
   <g id="line2d_25">
    <path d="M 65.63083 57.0062 
L 71.296563 59.178277 
L 76.962297 64.866565 
L 82.62803 68.889047 
L 88.293764 75.721149 
L 93.959497 89.852817 
L 99.62523 96.593751 
L 105.290964 108.95799 
L 110.956697 125.270949 
L 116.622431 141.007712 
L 122.288164 160.372589 
L 127.953897 176.696221 
L 133.619631 185.578932 
L 139.285364 197.06549 
L 144.951098 214.253608 
L 150.616831 233.856454 
L 156.282564 244.995891 
L 161.948298 255.033793 
L 167.614031 259.383718 
L 173.279765 251.062145 
L 178.945498 246.304312 
L 184.611231 252.529369 
L 190.276965 238.130247 
L 195.942698 232.605244 
L 201.608432 224.331811 
L 207.274165 239.958868 
L 212.939898 229.18936 
L 218.605632 227.509099 
L 224.271365 216.683195 
L 229.937099 232.424456 
L 235.602832 217.263876 
L 241.268565 216.953546 
L 246.934299 218.680041 
L 252.600032 225.665499 
L 258.265766 216.638864 
L 263.931499 206.357835 
L 269.597232 215.296112 
L 275.262966 229.169752 
L 280.928699 237.127537 
L 286.594433 214.975454 
L 292.260166 229.071187 
L 297.925899 225.352551 
L 303.591633 261.516394 
L 309.257366 269.082557 
L 314.9231 254.543272 
L 320.588833 264.384356 
L 326.254566 273.852162 
L 331.9203 270.835089 
L 337.586033 282.427051 
L 343.251767 290.117631 
L 348.9175 287.164803 
L 354.583233 287.826022 
L 360.248967 284.141733 
L 365.9147 290.787383 
L 371.580434 271.754681 
L 377.246167 269.014606 
L 382.9119 263.115821 
L 388.577634 255.179413 
L 394.243367 291.3651 
L 399.909101 268.038108 
L 405.574834 261.486285 
L 411.240567 274.755141 
L 416.906301 250.879992 
L 422.572034 290.162801 
L 428.237768 266.538784 
L 433.903501 294.635569 
L 439.569234 295.346519 
L 445.234968 305.258275 
L 450.900701 305.26484 
L 456.566435 285.430658 
L 462.232168 289.923982 
L 467.897901 301.672269 
L 473.563635 315.152667 
L 479.229368 308.176696 
L 484.895102 329.481583 
L 490.560835 336.354771 
L 496.226568 350.909301 
L 501.892302 347.199445 
L 507.558035 351.618242 
L 513.223769 360.678513 
L 518.889502 364.179141 
L 524.555235 377.593465 
L 530.220969 376.146669 
L 535.886702 362.69164 
L 541.552436 375.338315 
L 547.218169 370.940762 
L 552.883902 368.000109 
L 558.549636 365.056249 
L 564.215369 370.274825 
L 569.881103 367.965814 
L 575.546836 370.234098 
L 581.212569 386.325648 
L 586.878303 380.349073 
L 592.544036 390.04 
L 598.20977 380.215454 
L 603.875503 384.551546 
L 609.541236 382.99662 
L 615.20697 378.915789 
L 620.872703 381.547347 
L 626.538437 385.162378 
" clip-path="url(#p3b8118ded9)" style="fill: none; stroke: #800080; stroke-linecap: round"/>
   </g>
   <g id="patch_3">
    <path d="M 65.63 390.04 
L 65.63 57.0062 
" style="fill: none; stroke: #ffffff; stroke-width: 0.8; stroke-linejoin: miter; stroke-linecap: square"/>
   </g>
   <g id="patch_4">
    <path d="M 632.205 390.04 
L 632.205 57.0062 
" style="fill: none; stroke: #ffffff; stroke-width: 0.8; stroke-linejoin: miter; stroke-linecap: square"/>
   </g>
   <g id="patch_5">
    <path d="M 65.63 390.04 
L 632.205 390.04 
" style="fill: none; stroke: #ffffff; stroke-width: 0.8; stroke-linejoin: miter; stroke-linecap: square"/>
   </g>
   <g id="patch_6">
    <path d="M 65.63 57.0062 
L 632.205 57.0062 
" style="fill: none; stroke: #ffffff; stroke-width: 0.8; stroke-linejoin: miter; stroke-linecap: square"/>
   </g>
   <g id="legend_1">
    <g id="line2d_26">
     <path d="M 97.385341 41.274494 
L 105.715341 41.274494 
L 114.045341 41.274494 
" style="fill: none; stroke: #0000ff; stroke-width: 1.5; stroke-linecap: round"/>
    </g>
    <g id="text_22">
     <!-- Mean Reward -->
     <g style="fill: #262626" transform="translate(120.709341 44.189994) scale(0.0833 -0.0833)">
      <defs>
       <path id="DejaVuSans-4d" d="M 628 4666 
L 1569 4666 
L 2759 1491 
L 3956 4666 
L 4897 4666 
L 4897 0 
L 4281 0 
L 4281 4097 
L 3078 897 
L 2444 897 
L 1241 4097 
L 1241 0 
L 628 0 
L 628 4666 
z
" transform="scale(0.015625)"/>
       <path id="DejaVuSans-6e" d="M 3513 2113 
L 3513 0 
L 2938 0 
L 2938 2094 
Q 2938 2591 2744 2837 
Q 2550 3084 2163 3084 
Q 1697 3084 1428 2787 
Q 1159 2491 1159 1978 
L 1159 0 
L 581 0 
L 581 3500 
L 1159 3500 
L 1159 2956 
Q 1366 3272 1645 3428 
Q 1925 3584 2291 3584 
Q 2894 3584 3203 3211 
Q 3513 2838 3513 2113 
z
" transform="scale(0.015625)"/>
       <path id="DejaVuSans-20" transform="scale(0.015625)"/>
      </defs>
      <use xlink:href="#DejaVuSans-4d"/>
      <use xlink:href="#DejaVuSans-65" transform="translate(86.279297 0)"/>
      <use xlink:href="#DejaVuSans-61" transform="translate(147.802734 0)"/>
      <use xlink:href="#DejaVuSans-6e" transform="translate(209.082031 0)"/>
      <use xlink:href="#DejaVuSans-20" transform="translate(272.460938 0)"/>
      <use xlink:href="#DejaVuSans-52" transform="translate(304.248047 0)"/>
      <use xlink:href="#DejaVuSans-65" transform="translate(369.230469 0)"/>
      <use xlink:href="#DejaVuSans-77" transform="translate(430.753906 0)"/>
      <use xlink:href="#DejaVuSans-61" transform="translate(512.541016 0)"/>
      <use xlink:href="#DejaVuSans-72" transform="translate(573.820312 0)"/>
      <use xlink:href="#DejaVuSans-64" transform="translate(613.183594 0)"/>
     </g>
    </g>
    <g id="line2d_27">
     <path d="M 193.736108 41.274494 
L 202.066108 41.274494 
L 210.396108 41.274494 
" style="fill: none; stroke: #008000; stroke-opacity: 0.2; stroke-linecap: round"/>
    </g>
    <g id="text_23">
     <!-- Reward (individual runs) -->
     <g style="fill: #262626" transform="translate(217.060108 44.189994) scale(0.0833 -0.0833)">
      <defs>
       <path id="DejaVuSans-28" d="M 1984 4856 
Q 1566 4138 1362 3434 
Q 1159 2731 1159 2009 
Q 1159 1288 1364 580 
Q 1569 -128 1984 -844 
L 1484 -844 
Q 1016 -109 783 600 
Q 550 1309 550 2009 
Q 550 2706 781 3412 
Q 1013 4119 1484 4856 
L 1984 4856 
z
" transform="scale(0.015625)"/>
       <path id="DejaVuSans-69" d="M 603 3500 
L 1178 3500 
L 1178 0 
L 603 0 
L 603 3500 
z
M 603 4863 
L 1178 4863 
L 1178 4134 
L 603 4134 
L 603 4863 
z
" transform="scale(0.015625)"/>
       <path id="DejaVuSans-76" d="M 191 3500 
L 800 3500 
L 1894 563 
L 2988 3500 
L 3597 3500 
L 2284 0 
L 1503 0 
L 191 3500 
z
" transform="scale(0.015625)"/>
       <path id="DejaVuSans-75" d="M 544 1381 
L 544 3500 
L 1119 3500 
L 1119 1403 
Q 1119 906 1312 657 
Q 1506 409 1894 409 
Q 2359 409 2629 706 
Q 2900 1003 2900 1516 
L 2900 3500 
L 3475 3500 
L 3475 0 
L 2900 0 
L 2900 538 
Q 2691 219 2414 64 
Q 2138 -91 1772 -91 
Q 1169 -91 856 284 
Q 544 659 544 1381 
z
M 1991 3584 
L 1991 3584 
z
" transform="scale(0.015625)"/>
       <path id="DejaVuSans-6c" d="M 603 4863 
L 1178 4863 
L 1178 0 
L 603 0 
L 603 4863 
z
" transform="scale(0.015625)"/>
       <path id="DejaVuSans-29" d="M 513 4856 
L 1013 4856 
Q 1481 4119 1714 3412 
Q 1947 2706 1947 2009 
Q 1947 1309 1714 600 
Q 1481 -109 1013 -844 
L 513 -844 
Q 928 -128 1133 580 
Q 1338 1288 1338 2009 
Q 1338 2731 1133 3434 
Q 928 4138 513 4856 
z
" transform="scale(0.015625)"/>
      </defs>
      <use xlink:href="#DejaVuSans-52"/>
      <use xlink:href="#DejaVuSans-65" transform="translate(64.982422 0)"/>
      <use xlink:href="#DejaVuSans-77" transform="translate(126.505859 0)"/>
      <use xlink:href="#DejaVuSans-61" transform="translate(208.292969 0)"/>
      <use xlink:href="#DejaVuSans-72" transform="translate(269.572266 0)"/>
      <use xlink:href="#DejaVuSans-64" transform="translate(308.935547 0)"/>
      <use xlink:href="#DejaVuSans-20" transform="translate(372.412109 0)"/>
      <use xlink:href="#DejaVuSans-28" transform="translate(404.199219 0)"/>
      <use xlink:href="#DejaVuSans-69" transform="translate(443.212891 0)"/>
      <use xlink:href="#DejaVuSans-6e" transform="translate(470.996094 0)"/>
      <use xlink:href="#DejaVuSans-64" transform="translate(534.375 0)"/>
      <use xlink:href="#DejaVuSans-69" transform="translate(597.851562 0)"/>
      <use xlink:href="#DejaVuSans-76" transform="translate(625.634766 0)"/>
      <use xlink:href="#DejaVuSans-69" transform="translate(684.814453 0)"/>
      <use xlink:href="#DejaVuSans-64" transform="translate(712.597656 0)"/>
      <use xlink:href="#DejaVuSans-75" transform="translate(776.074219 0)"/>
      <use xlink:href="#DejaVuSans-61" transform="translate(839.453125 0)"/>
      <use xlink:href="#DejaVuSans-6c" transform="translate(900.732422 0)"/>
      <use xlink:href="#DejaVuSans-20" transform="translate(928.515625 0)"/>
      <use xlink:href="#DejaVuSans-72" transform="translate(960.302734 0)"/>
      <use xlink:href="#DejaVuSans-75" transform="translate(1001.416016 0)"/>
      <use xlink:href="#DejaVuSans-6e" transform="translate(1064.794922 0)"/>
      <use xlink:href="#DejaVuSans-73" transform="translate(1128.173828 0)"/>
      <use xlink:href="#DejaVuSans-29" transform="translate(1180.273438 0)"/>
     </g>
    </g>
    <g id="line2d_28">
     <path d="M 335.286236 41.274494 
L 343.616236 41.274494 
L 351.946236 41.274494 
" style="fill: none; stroke: #800080; stroke-linecap: round"/>
    </g>
    <g id="text_24">
     <!-- Entropy (normalized) -->
     <g style="fill: #262626" transform="translate(358.610236 44.189994) scale(0.0833 -0.0833)">
      <defs>
       <path id="DejaVuSans-45" d="M 628 4666 
L 3578 4666 
L 3578 4134 
L 1259 4134 
L 1259 2753 
L 3481 2753 
L 3481 2222 
L 1259 2222 
L 1259 531 
L 3634 531 
L 3634 0 
L 628 0 
L 628 4666 
z
" transform="scale(0.015625)"/>
       <path id="DejaVuSans-6f" d="M 1959 3097 
Q 1497 3097 1228 2736 
Q 959 2375 959 1747 
Q 959 1119 1226 758 
Q 1494 397 1959 397 
Q 2419 397 2687 759 
Q 2956 1122 2956 1747 
Q 2956 2369 2687 2733 
Q 2419 3097 1959 3097 
z
M 1959 3584 
Q 2709 3584 3137 3096 
Q 3566 2609 3566 1747 
Q 3566 888 3137 398 
Q 2709 -91 1959 -91 
Q 1206 -91 779 398 
Q 353 888 353 1747 
Q 353 2609 779 3096 
Q 1206 3584 1959 3584 
z
" transform="scale(0.015625)"/>
       <path id="DejaVuSans-79" d="M 2059 -325 
Q 1816 -950 1584 -1140 
Q 1353 -1331 966 -1331 
L 506 -1331 
L 506 -850 
L 844 -850 
Q 1081 -850 1212 -737 
Q 1344 -625 1503 -206 
L 1606 56 
L 191 3500 
L 800 3500 
L 1894 763 
L 2988 3500 
L 3597 3500 
L 2059 -325 
z
" transform="scale(0.015625)"/>
       <path id="DejaVuSans-6d" d="M 3328 2828 
Q 3544 3216 3844 3400 
Q 4144 3584 4550 3584 
Q 5097 3584 5394 3201 
Q 5691 2819 5691 2113 
L 5691 0 
L 5113 0 
L 5113 2094 
Q 5113 2597 4934 2840 
Q 4756 3084 4391 3084 
Q 3944 3084 3684 2787 
Q 3425 2491 3425 1978 
L 3425 0 
L 2847 0 
L 2847 2094 
Q 2847 2600 2669 2842 
Q 2491 3084 2119 3084 
Q 1678 3084 1418 2786 
Q 1159 2488 1159 1978 
L 1159 0 
L 581 0 
L 581 3500 
L 1159 3500 
L 1159 2956 
Q 1356 3278 1631 3431 
Q 1906 3584 2284 3584 
Q 2666 3584 2933 3390 
Q 3200 3197 3328 2828 
z
" transform="scale(0.015625)"/>
       <path id="DejaVuSans-7a" d="M 353 3500 
L 3084 3500 
L 3084 2975 
L 922 459 
L 3084 459 
L 3084 0 
L 275 0 
L 275 525 
L 2438 3041 
L 353 3041 
L 353 3500 
z
" transform="scale(0.015625)"/>
      </defs>
      <use xlink:href="#DejaVuSans-45"/>
      <use xlink:href="#DejaVuSans-6e" transform="translate(63.183594 0)"/>
      <use xlink:href="#DejaVuSans-74" transform="translate(126.5625 0)"/>
      <use xlink:href="#DejaVuSans-72" transform="translate(165.771484 0)"/>
      <use xlink:href="#DejaVuSans-6f" transform="translate(204.634766 0)"/>
      <use xlink:href="#DejaVuSans-70" transform="translate(265.816406 0)"/>
      <use xlink:href="#DejaVuSans-79" transform="translate(329.292969 0)"/>
      <use xlink:href="#DejaVuSans-20" transform="translate(388.472656 0)"/>
      <use xlink:href="#DejaVuSans-28" transform="translate(420.259766 0)"/>
      <use xlink:href="#DejaVuSans-6e" transform="translate(459.273438 0)"/>
      <use xlink:href="#DejaVuSans-6f" transform="translate(522.652344 0)"/>
      <use xlink:href="#DejaVuSans-72" transform="translate(583.833984 0)"/>
      <use xlink:href="#DejaVuSans-6d" transform="translate(623.197266 0)"/>
      <use xlink:href="#DejaVuSans-61" transform="translate(720.609375 0)"/>
      <use xlink:href="#DejaVuSans-6c" transform="translate(781.888672 0)"/>
      <use xlink:href="#DejaVuSans-69" transform="translate(809.671875 0)"/>
      <use xlink:href="#DejaVuSans-7a" transform="translate(837.455078 0)"/>
      <use xlink:href="#DejaVuSans-65" transform="translate(889.945312 0)"/>
      <use xlink:href="#DejaVuSans-64" transform="translate(951.46875 0)"/>
      <use xlink:href="#DejaVuSans-29" transform="translate(1014.945312 0)"/>
     </g>
    </g>
    <g id="patch_7">
     <path d="M 463.065833 44.189994 
L 479.725833 44.189994 
L 479.725833 38.358994 
L 463.065833 38.358994 
z
" style="fill: #0000ff; fill-opacity: 0.1"/>
    </g>
    <g id="text_25">
     <!-- Reward Standard Deviation -->
     <g style="fill: #262626" transform="translate(486.389833 44.189994) scale(0.0833 -0.0833)">
      <defs>
       <path id="DejaVuSans-44" d="M 1259 4147 
L 1259 519 
L 2022 519 
Q 2988 519 3436 956 
Q 3884 1394 3884 2338 
Q 3884 3275 3436 3711 
Q 2988 4147 2022 4147 
L 1259 4147 
z
M 628 4666 
L 1925 4666 
Q 3281 4666 3915 4102 
Q 4550 3538 4550 2338 
Q 4550 1131 3912 565 
Q 3275 0 1925 0 
L 628 0 
L 628 4666 
z
" transform="scale(0.015625)"/>
      </defs>
      <use xlink:href="#DejaVuSans-52"/>
      <use xlink:href="#DejaVuSans-65" transform="translate(64.982422 0)"/>
      <use xlink:href="#DejaVuSans-77" transform="translate(126.505859 0)"/>
      <use xlink:href="#DejaVuSans-61" transform="translate(208.292969 0)"/>
      <use xlink:href="#DejaVuSans-72" transform="translate(269.572266 0)"/>
      <use xlink:href="#DejaVuSans-64" transform="translate(308.935547 0)"/>
      <use xlink:href="#DejaVuSans-20" transform="translate(372.412109 0)"/>
      <use xlink:href="#DejaVuSans-53" transform="translate(404.199219 0)"/>
      <use xlink:href="#DejaVuSans-74" transform="translate(467.675781 0)"/>
      <use xlink:href="#DejaVuSans-61" transform="translate(506.884766 0)"/>
      <use xlink:href="#DejaVuSans-6e" transform="translate(568.164062 0)"/>
      <use xlink:href="#DejaVuSans-64" transform="translate(631.542969 0)"/>
      <use xlink:href="#DejaVuSans-61" transform="translate(695.019531 0)"/>
      <use xlink:href="#DejaVuSans-72" transform="translate(756.298828 0)"/>
      <use xlink:href="#DejaVuSans-64" transform="translate(795.662109 0)"/>
      <use xlink:href="#DejaVuSans-20" transform="translate(859.138672 0)"/>
      <use xlink:href="#DejaVuSans-44" transform="translate(890.925781 0)"/>
      <use xlink:href="#DejaVuSans-65" transform="translate(967.927734 0)"/>
      <use xlink:href="#DejaVuSans-76" transform="translate(1029.451172 0)"/>
      <use xlink:href="#DejaVuSans-69" transform="translate(1088.630859 0)"/>
      <use xlink:href="#DejaVuSans-61" transform="translate(1116.414062 0)"/>
      <use xlink:href="#DejaVuSans-74" transform="translate(1177.693359 0)"/>
      <use xlink:href="#DejaVuSans-69" transform="translate(1216.902344 0)"/>
      <use xlink:href="#DejaVuSans-6f" transform="translate(1244.685547 0)"/>
      <use xlink:href="#DejaVuSans-6e" transform="translate(1305.867188 0)"/>
     </g>
    </g>
   </g>
  </g>
  <g id="text_26">
   <!-- Rewards: Pendulum-v1 (Discretized) - GNN (Noise) -->
   <g style="fill: #262626" transform="translate(152.3475 17.758125) scale(0.12 -0.12)">
    <defs>
     <path id="DejaVuSans-Bold-52" d="M 2297 2597 
Q 2675 2597 2839 2737 
Q 3003 2878 3003 3200 
Q 3003 3519 2839 3656 
Q 2675 3794 2297 3794 
L 1791 3794 
L 1791 2597 
L 2297 2597 
z
M 1791 1766 
L 1791 0 
L 588 0 
L 588 4666 
L 2425 4666 
Q 3347 4666 3776 4356 
Q 4206 4047 4206 3378 
Q 4206 2916 3982 2619 
Q 3759 2322 3309 2181 
Q 3556 2125 3751 1926 
Q 3947 1728 4147 1325 
L 4800 0 
L 3519 0 
L 2950 1159 
Q 2778 1509 2601 1637 
Q 2425 1766 2131 1766 
L 1791 1766 
z
" transform="scale(0.015625)"/>
     <path id="DejaVuSans-Bold-65" d="M 4031 1759 
L 4031 1441 
L 1416 1441 
Q 1456 1047 1700 850 
Q 1944 653 2381 653 
Q 2734 653 3104 758 
Q 3475 863 3866 1075 
L 3866 213 
Q 3469 63 3072 -14 
Q 2675 -91 2278 -91 
Q 1328 -91 801 392 
Q 275 875 275 1747 
Q 275 2603 792 3093 
Q 1309 3584 2216 3584 
Q 3041 3584 3536 3087 
Q 4031 2591 4031 1759 
z
M 2881 2131 
Q 2881 2450 2695 2645 
Q 2509 2841 2209 2841 
Q 1884 2841 1681 2658 
Q 1478 2475 1428 2131 
L 2881 2131 
z
" transform="scale(0.015625)"/>
     <path id="DejaVuSans-Bold-77" d="M 225 3500 
L 1313 3500 
L 1900 1088 
L 2491 3500 
L 3425 3500 
L 4013 1113 
L 4603 3500 
L 5691 3500 
L 4769 0 
L 3547 0 
L 2956 2406 
L 2369 0 
L 1147 0 
L 225 3500 
z
" transform="scale(0.015625)"/>
     <path id="DejaVuSans-Bold-61" d="M 2106 1575 
Q 1756 1575 1579 1456 
Q 1403 1338 1403 1106 
Q 1403 894 1545 773 
Q 1688 653 1941 653 
Q 2256 653 2472 879 
Q 2688 1106 2688 1447 
L 2688 1575 
L 2106 1575 
z
M 3816 1997 
L 3816 0 
L 2688 0 
L 2688 519 
Q 2463 200 2181 54 
Q 1900 -91 1497 -91 
Q 953 -91 614 226 
Q 275 544 275 1050 
Q 275 1666 698 1953 
Q 1122 2241 2028 2241 
L 2688 2241 
L 2688 2328 
Q 2688 2594 2478 2717 
Q 2269 2841 1825 2841 
Q 1466 2841 1156 2769 
Q 847 2697 581 2553 
L 581 3406 
Q 941 3494 1303 3539 
Q 1666 3584 2028 3584 
Q 2975 3584 3395 3211 
Q 3816 2838 3816 1997 
z
" transform="scale(0.015625)"/>
     <path id="DejaVuSans-Bold-72" d="M 3138 2547 
Q 2991 2616 2845 2648 
Q 2700 2681 2553 2681 
Q 2122 2681 1889 2404 
Q 1656 2128 1656 1613 
L 1656 0 
L 538 0 
L 538 3500 
L 1656 3500 
L 1656 2925 
Q 1872 3269 2151 3426 
Q 2431 3584 2822 3584 
Q 2878 3584 2943 3579 
Q 3009 3575 3134 3559 
L 3138 2547 
z
" transform="scale(0.015625)"/>
     <path id="DejaVuSans-Bold-64" d="M 2919 2988 
L 2919 4863 
L 4044 4863 
L 4044 0 
L 2919 0 
L 2919 506 
Q 2688 197 2409 53 
Q 2131 -91 1766 -91 
Q 1119 -91 703 423 
Q 288 938 288 1747 
Q 288 2556 703 3070 
Q 1119 3584 1766 3584 
Q 2128 3584 2408 3439 
Q 2688 3294 2919 2988 
z
M 2181 722 
Q 2541 722 2730 984 
Q 2919 1247 2919 1747 
Q 2919 2247 2730 2509 
Q 2541 2772 2181 2772 
Q 1825 2772 1636 2509 
Q 1447 2247 1447 1747 
Q 1447 1247 1636 984 
Q 1825 722 2181 722 
z
" transform="scale(0.015625)"/>
     <path id="DejaVuSans-Bold-73" d="M 3272 3391 
L 3272 2541 
Q 2913 2691 2578 2766 
Q 2244 2841 1947 2841 
Q 1628 2841 1473 2761 
Q 1319 2681 1319 2516 
Q 1319 2381 1436 2309 
Q 1553 2238 1856 2203 
L 2053 2175 
Q 2913 2066 3209 1816 
Q 3506 1566 3506 1031 
Q 3506 472 3093 190 
Q 2681 -91 1863 -91 
Q 1516 -91 1145 -36 
Q 775 19 384 128 
L 384 978 
Q 719 816 1070 734 
Q 1422 653 1784 653 
Q 2113 653 2278 743 
Q 2444 834 2444 1013 
Q 2444 1163 2330 1236 
Q 2216 1309 1875 1350 
L 1678 1375 
Q 931 1469 631 1722 
Q 331 1975 331 2491 
Q 331 3047 712 3315 
Q 1094 3584 1881 3584 
Q 2191 3584 2531 3537 
Q 2872 3491 3272 3391 
z
" transform="scale(0.015625)"/>
     <path id="DejaVuSans-Bold-3a" d="M 716 3500 
L 1844 3500 
L 1844 2291 
L 716 2291 
L 716 3500 
z
M 716 1209 
L 1844 1209 
L 1844 0 
L 716 0 
L 716 1209 
z
" transform="scale(0.015625)"/>
     <path id="DejaVuSans-Bold-20" transform="scale(0.015625)"/>
     <path id="DejaVuSans-Bold-50" d="M 588 4666 
L 2584 4666 
Q 3475 4666 3951 4270 
Q 4428 3875 4428 3144 
Q 4428 2409 3951 2014 
Q 3475 1619 2584 1619 
L 1791 1619 
L 1791 0 
L 588 0 
L 588 4666 
z
M 1791 3794 
L 1791 2491 
L 2456 2491 
Q 2806 2491 2997 2661 
Q 3188 2831 3188 3144 
Q 3188 3456 2997 3625 
Q 2806 3794 2456 3794 
L 1791 3794 
z
" transform="scale(0.015625)"/>
     <path id="DejaVuSans-Bold-6e" d="M 4056 2131 
L 4056 0 
L 2931 0 
L 2931 347 
L 2931 1631 
Q 2931 2084 2911 2256 
Q 2891 2428 2841 2509 
Q 2775 2619 2662 2680 
Q 2550 2741 2406 2741 
Q 2056 2741 1856 2470 
Q 1656 2200 1656 1722 
L 1656 0 
L 538 0 
L 538 3500 
L 1656 3500 
L 1656 2988 
Q 1909 3294 2193 3439 
Q 2478 3584 2822 3584 
Q 3428 3584 3742 3212 
Q 4056 2841 4056 2131 
z
" transform="scale(0.015625)"/>
     <path id="DejaVuSans-Bold-75" d="M 500 1363 
L 500 3500 
L 1625 3500 
L 1625 3150 
Q 1625 2866 1622 2436 
Q 1619 2006 1619 1863 
Q 1619 1441 1641 1255 
Q 1663 1069 1716 984 
Q 1784 875 1895 815 
Q 2006 756 2150 756 
Q 2500 756 2700 1025 
Q 2900 1294 2900 1772 
L 2900 3500 
L 4019 3500 
L 4019 0 
L 2900 0 
L 2900 506 
Q 2647 200 2364 54 
Q 2081 -91 1741 -91 
Q 1134 -91 817 281 
Q 500 653 500 1363 
z
" transform="scale(0.015625)"/>
     <path id="DejaVuSans-Bold-6c" d="M 538 4863 
L 1656 4863 
L 1656 0 
L 538 0 
L 538 4863 
z
" transform="scale(0.015625)"/>
     <path id="DejaVuSans-Bold-6d" d="M 3781 2919 
Q 3994 3244 4286 3414 
Q 4578 3584 4928 3584 
Q 5531 3584 5847 3212 
Q 6163 2841 6163 2131 
L 6163 0 
L 5038 0 
L 5038 1825 
Q 5041 1866 5042 1909 
Q 5044 1953 5044 2034 
Q 5044 2406 4934 2573 
Q 4825 2741 4581 2741 
Q 4263 2741 4089 2478 
Q 3916 2216 3909 1719 
L 3909 0 
L 2784 0 
L 2784 1825 
Q 2784 2406 2684 2573 
Q 2584 2741 2328 2741 
Q 2006 2741 1831 2477 
Q 1656 2213 1656 1722 
L 1656 0 
L 531 0 
L 531 3500 
L 1656 3500 
L 1656 2988 
Q 1863 3284 2130 3434 
Q 2397 3584 2719 3584 
Q 3081 3584 3359 3409 
Q 3638 3234 3781 2919 
z
" transform="scale(0.015625)"/>
     <path id="DejaVuSans-Bold-2d" d="M 347 2297 
L 2309 2297 
L 2309 1388 
L 347 1388 
L 347 2297 
z
" transform="scale(0.015625)"/>
     <path id="DejaVuSans-Bold-76" d="M 97 3500 
L 1216 3500 
L 2088 1081 
L 2956 3500 
L 4078 3500 
L 2700 0 
L 1472 0 
L 97 3500 
z
" transform="scale(0.015625)"/>
     <path id="DejaVuSans-Bold-31" d="M 750 831 
L 1813 831 
L 1813 3847 
L 722 3622 
L 722 4441 
L 1806 4666 
L 2950 4666 
L 2950 831 
L 4013 831 
L 4013 0 
L 750 0 
L 750 831 
z
" transform="scale(0.015625)"/>
     <path id="DejaVuSans-Bold-28" d="M 2413 -844 
L 1484 -844 
Q 1006 -72 778 623 
Q 550 1319 550 2003 
Q 550 2688 779 3389 
Q 1009 4091 1484 4856 
L 2413 4856 
Q 2013 4116 1813 3408 
Q 1613 2700 1613 2009 
Q 1613 1319 1811 609 
Q 2009 -100 2413 -844 
z
" transform="scale(0.015625)"/>
     <path id="DejaVuSans-Bold-44" d="M 1791 3756 
L 1791 909 
L 2222 909 
Q 2959 909 3348 1275 
Q 3738 1641 3738 2338 
Q 3738 3031 3350 3393 
Q 2963 3756 2222 3756 
L 1791 3756 
z
M 588 4666 
L 1856 4666 
Q 2919 4666 3439 4514 
Q 3959 4363 4331 4000 
Q 4659 3684 4818 3271 
Q 4978 2859 4978 2338 
Q 4978 1809 4818 1395 
Q 4659 981 4331 666 
Q 3956 303 3431 151 
Q 2906 0 1856 0 
L 588 0 
L 588 4666 
z
" transform="scale(0.015625)"/>
     <path id="DejaVuSans-Bold-69" d="M 538 3500 
L 1656 3500 
L 1656 0 
L 538 0 
L 538 3500 
z
M 538 4863 
L 1656 4863 
L 1656 3950 
L 538 3950 
L 538 4863 
z
" transform="scale(0.015625)"/>
     <path id="DejaVuSans-Bold-63" d="M 3366 3391 
L 3366 2478 
Q 3138 2634 2908 2709 
Q 2678 2784 2431 2784 
Q 1963 2784 1702 2511 
Q 1441 2238 1441 1747 
Q 1441 1256 1702 982 
Q 1963 709 2431 709 
Q 2694 709 2930 787 
Q 3166 866 3366 1019 
L 3366 103 
Q 3103 6 2833 -42 
Q 2563 -91 2291 -91 
Q 1344 -91 809 395 
Q 275 881 275 1747 
Q 275 2613 809 3098 
Q 1344 3584 2291 3584 
Q 2566 3584 2833 3536 
Q 3100 3488 3366 3391 
z
" transform="scale(0.015625)"/>
     <path id="DejaVuSans-Bold-74" d="M 1759 4494 
L 1759 3500 
L 2913 3500 
L 2913 2700 
L 1759 2700 
L 1759 1216 
Q 1759 972 1856 886 
Q 1953 800 2241 800 
L 2816 800 
L 2816 0 
L 1856 0 
Q 1194 0 917 276 
Q 641 553 641 1216 
L 641 2700 
L 84 2700 
L 84 3500 
L 641 3500 
L 641 4494 
L 1759 4494 
z
" transform="scale(0.015625)"/>
     <path id="DejaVuSans-Bold-7a" d="M 366 3500 
L 3419 3500 
L 3419 2719 
L 1575 800 
L 3419 800 
L 3419 0 
L 288 0 
L 288 781 
L 2131 2700 
L 366 2700 
L 366 3500 
z
" transform="scale(0.015625)"/>
     <path id="DejaVuSans-Bold-29" d="M 513 -844 
Q 913 -100 1113 609 
Q 1313 1319 1313 2009 
Q 1313 2700 1113 3408 
Q 913 4116 513 4856 
L 1441 4856 
Q 1916 4091 2145 3389 
Q 2375 2688 2375 2003 
Q 2375 1319 2147 623 
Q 1919 -72 1441 -844 
L 513 -844 
z
" transform="scale(0.015625)"/>
     <path id="DejaVuSans-Bold-47" d="M 4781 347 
Q 4331 128 3847 18 
Q 3363 -91 2847 -91 
Q 1681 -91 1000 561 
Q 319 1213 319 2328 
Q 319 3456 1012 4103 
Q 1706 4750 2913 4750 
Q 3378 4750 3804 4662 
Q 4231 4575 4609 4403 
L 4609 3438 
Q 4219 3659 3833 3768 
Q 3447 3878 3059 3878 
Q 2341 3878 1952 3476 
Q 1563 3075 1563 2328 
Q 1563 1588 1938 1184 
Q 2313 781 3003 781 
Q 3191 781 3352 804 
Q 3513 828 3641 878 
L 3641 1784 
L 2906 1784 
L 2906 2591 
L 4781 2591 
L 4781 347 
z
" transform="scale(0.015625)"/>
     <path id="DejaVuSans-Bold-4e" d="M 588 4666 
L 1931 4666 
L 3628 1466 
L 3628 4666 
L 4769 4666 
L 4769 0 
L 3425 0 
L 1728 3200 
L 1728 0 
L 588 0 
L 588 4666 
z
" transform="scale(0.015625)"/>
     <path id="DejaVuSans-Bold-6f" d="M 2203 2784 
Q 1831 2784 1636 2517 
Q 1441 2250 1441 1747 
Q 1441 1244 1636 976 
Q 1831 709 2203 709 
Q 2569 709 2762 976 
Q 2956 1244 2956 1747 
Q 2956 2250 2762 2517 
Q 2569 2784 2203 2784 
z
M 2203 3584 
Q 3106 3584 3614 3096 
Q 4122 2609 4122 1747 
Q 4122 884 3614 396 
Q 3106 -91 2203 -91 
Q 1297 -91 786 396 
Q 275 884 275 1747 
Q 275 2609 786 3096 
Q 1297 3584 2203 3584 
z
" transform="scale(0.015625)"/>
    </defs>
    <use xlink:href="#DejaVuSans-Bold-52"/>
    <use xlink:href="#DejaVuSans-Bold-65" transform="translate(77.001953 0)"/>
    <use xlink:href="#DejaVuSans-Bold-77" transform="translate(144.824219 0)"/>
    <use xlink:href="#DejaVuSans-Bold-61" transform="translate(237.207031 0)"/>
    <use xlink:href="#DejaVuSans-Bold-72" transform="translate(304.6875 0)"/>
    <use xlink:href="#DejaVuSans-Bold-64" transform="translate(354.003906 0)"/>
    <use xlink:href="#DejaVuSans-Bold-73" transform="translate(425.585938 0)"/>
    <use xlink:href="#DejaVuSans-Bold-3a" transform="translate(485.107422 0)"/>
    <use xlink:href="#DejaVuSans-Bold-20" transform="translate(525.097656 0)"/>
    <use xlink:href="#DejaVuSans-Bold-50" transform="translate(559.912109 0)"/>
    <use xlink:href="#DejaVuSans-Bold-65" transform="translate(633.203125 0)"/>
    <use xlink:href="#DejaVuSans-Bold-6e" transform="translate(701.025391 0)"/>
    <use xlink:href="#DejaVuSans-Bold-64" transform="translate(772.216797 0)"/>
    <use xlink:href="#DejaVuSans-Bold-75" transform="translate(843.798828 0)"/>
    <use xlink:href="#DejaVuSans-Bold-6c" transform="translate(914.990234 0)"/>
    <use xlink:href="#DejaVuSans-Bold-75" transform="translate(949.267578 0)"/>
    <use xlink:href="#DejaVuSans-Bold-6d" transform="translate(1020.458984 0)"/>
    <use xlink:href="#DejaVuSans-Bold-2d" transform="translate(1124.658203 0)"/>
    <use xlink:href="#DejaVuSans-Bold-76" transform="translate(1166.162109 0)"/>
    <use xlink:href="#DejaVuSans-Bold-31" transform="translate(1231.347656 0)"/>
    <use xlink:href="#DejaVuSans-Bold-20" transform="translate(1300.927734 0)"/>
    <use xlink:href="#DejaVuSans-Bold-28" transform="translate(1335.742188 0)"/>
    <use xlink:href="#DejaVuSans-Bold-44" transform="translate(1381.445312 0)"/>
    <use xlink:href="#DejaVuSans-Bold-69" transform="translate(1464.453125 0)"/>
    <use xlink:href="#DejaVuSans-Bold-73" transform="translate(1498.730469 0)"/>
    <use xlink:href="#DejaVuSans-Bold-63" transform="translate(1558.251953 0)"/>
    <use xlink:href="#DejaVuSans-Bold-72" transform="translate(1617.529297 0)"/>
    <use xlink:href="#DejaVuSans-Bold-65" transform="translate(1666.845703 0)"/>
    <use xlink:href="#DejaVuSans-Bold-74" transform="translate(1734.667969 0)"/>
    <use xlink:href="#DejaVuSans-Bold-69" transform="translate(1782.470703 0)"/>
    <use xlink:href="#DejaVuSans-Bold-7a" transform="translate(1816.748047 0)"/>
    <use xlink:href="#DejaVuSans-Bold-65" transform="translate(1874.951172 0)"/>
    <use xlink:href="#DejaVuSans-Bold-64" transform="translate(1942.773438 0)"/>
    <use xlink:href="#DejaVuSans-Bold-29" transform="translate(2014.355469 0)"/>
    <use xlink:href="#DejaVuSans-Bold-20" transform="translate(2060.058594 0)"/>
    <use xlink:href="#DejaVuSans-Bold-2d" transform="translate(2094.873047 0)"/>
    <use xlink:href="#DejaVuSans-Bold-20" transform="translate(2136.376953 0)"/>
    <use xlink:href="#DejaVuSans-Bold-47" transform="translate(2171.191406 0)"/>
    <use xlink:href="#DejaVuSans-Bold-4e" transform="translate(2253.271484 0)"/>
    <use xlink:href="#DejaVuSans-Bold-4e" transform="translate(2336.962891 0)"/>
    <use xlink:href="#DejaVuSans-Bold-20" transform="translate(2420.654297 0)"/>
    <use xlink:href="#DejaVuSans-Bold-28" transform="translate(2455.46875 0)"/>
    <use xlink:href="#DejaVuSans-Bold-4e" transform="translate(2501.171875 0)"/>
    <use xlink:href="#DejaVuSans-Bold-6f" transform="translate(2584.863281 0)"/>
    <use xlink:href="#DejaVuSans-Bold-69" transform="translate(2653.564453 0)"/>
    <use xlink:href="#DejaVuSans-Bold-73" transform="translate(2687.841797 0)"/>
    <use xlink:href="#DejaVuSans-Bold-65" transform="translate(2747.363281 0)"/>
    <use xlink:href="#DejaVuSans-Bold-29" transform="translate(2815.185547 0)"/>
   </g>
  </g>
 </g>
 <defs>
  <clipPath id="p3b8118ded9">
   <rect x="65.63" y="57.0062" width="566.575" height="333.0338"/>
  </clipPath>
 </defs>
</svg>
