<?xml version="1.0" encoding="utf-8" standalone="no"?>
<!DOCTYPE svg PUBLIC "-//W3C//DTD SVG 1.1//EN"
  "http://www.w3.org/Graphics/SVG/1.1/DTD/svg11.dtd">
<svg xmlns:xlink="http://www.w3.org/1999/xlink" width="648pt" height="432pt" viewBox="0 0 648 432" xmlns="http://www.w3.org/2000/svg" version="1.1">
 <metadata>
  <rdf:RDF xmlns:dc="http://purl.org/dc/elements/1.1/" xmlns:cc="http://creativecommons.org/ns#" xmlns:rdf="http://www.w3.org/1999/02/22-rdf-syntax-ns#">
   <cc:Work>
    <dc:type rdf:resource="http://purl.org/dc/dcmitype/StillImage"/>
    <dc:date>2025-07-20T01:09:05.328379</dc:date>
    <dc:format>image/svg+xml</dc:format>
    <dc:creator>
     <cc:Agent>
      <dc:title>Matplotlib v3.10.0, https://matplotlib.org/</dc:title>
     </cc:Agent>
    </dc:creator>
   </cc:Work>
  </rdf:RDF>
 </metadata>
 <defs>
  <style type="text/css">*{stroke-linejoin: round; stroke-linecap: butt}</style>
 </defs>
 <g id="figure_1">
  <g id="patch_1">
   <path d="M 0 432 
L 648 432 
L 648 0 
L 0 0 
z
" style="fill: #ffffff"/>
  </g>
  <g id="axes_1">
   <g id="patch_2">
    <path d="M 65.63 390.04 
L 632.205 390.04 
L 632.205 57.0062 
L 65.63 57.0062 
z
" style="fill: #eaeaf2"/>
   </g>
   <g id="matplotlib.axis_1">
    <g id="xtick_1">
     <g id="line2d_1">
      <path d="M 65.63083 390.04 
L 65.63083 57.0062 
" clip-path="url(#pd4eab19184)" style="fill: none; stroke: #ffffff; stroke-width: 0.8; stroke-linecap: round"/>
     </g>
     <g id="text_1">
      <!-- 0.00 -->
      <g style="fill: #262626" transform="translate(54.498017 404.638438) scale(0.1 -0.1)">
       <defs>
        <path id="DejaVuSans-30" d="M 2034 4250 
Q 1547 4250 1301 3770 
Q 1056 3291 1056 2328 
Q 1056 1369 1301 889 
Q 1547 409 2034 409 
Q 2525 409 2770 889 
Q 3016 1369 3016 2328 
Q 3016 3291 2770 3770 
Q 2525 4250 2034 4250 
z
M 2034 4750 
Q 2819 4750 3233 4129 
Q 3647 3509 3647 2328 
Q 3647 1150 3233 529 
Q 2819 -91 2034 -91 
Q 1250 -91 836 529 
Q 422 1150 422 2328 
Q 422 3509 836 4129 
Q 1250 4750 2034 4750 
z
" transform="scale(0.015625)"/>
        <path id="DejaVuSans-2e" d="M 684 794 
L 1344 794 
L 1344 0 
L 684 0 
L 684 794 
z
" transform="scale(0.015625)"/>
       </defs>
       <use xlink:href="#DejaVuSans-30"/>
       <use xlink:href="#DejaVuSans-2e" transform="translate(63.623047 0)"/>
       <use xlink:href="#DejaVuSans-30" transform="translate(95.410156 0)"/>
       <use xlink:href="#DejaVuSans-30" transform="translate(159.033203 0)"/>
      </g>
     </g>
    </g>
    <g id="xtick_2">
     <g id="line2d_2">
      <path d="M 134.792615 390.04 
L 134.792615 57.0062 
" clip-path="url(#pd4eab19184)" style="fill: none; stroke: #ffffff; stroke-width: 0.8; stroke-linecap: round"/>
     </g>
     <g id="text_2">
      <!-- 0.25 -->
      <g style="fill: #262626" transform="translate(123.659802 404.638438) scale(0.1 -0.1)">
       <defs>
        <path id="DejaVuSans-32" d="M 1228 531 
L 3431 531 
L 3431 0 
L 469 0 
L 469 531 
Q 828 903 1448 1529 
Q 2069 2156 2228 2338 
Q 2531 2678 2651 2914 
Q 2772 3150 2772 3378 
Q 2772 3750 2511 3984 
Q 2250 4219 1831 4219 
Q 1534 4219 1204 4116 
Q 875 4013 500 3803 
L 500 4441 
Q 881 4594 1212 4672 
Q 1544 4750 1819 4750 
Q 2544 4750 2975 4387 
Q 3406 4025 3406 3419 
Q 3406 3131 3298 2873 
Q 3191 2616 2906 2266 
Q 2828 2175 2409 1742 
Q 1991 1309 1228 531 
z
" transform="scale(0.015625)"/>
        <path id="DejaVuSans-35" d="M 691 4666 
L 3169 4666 
L 3169 4134 
L 1269 4134 
L 1269 2991 
Q 1406 3038 1543 3061 
Q 1681 3084 1819 3084 
Q 2600 3084 3056 2656 
Q 3513 2228 3513 1497 
Q 3513 744 3044 326 
Q 2575 -91 1722 -91 
Q 1428 -91 1123 -41 
Q 819 9 494 109 
L 494 744 
Q 775 591 1075 516 
Q 1375 441 1709 441 
Q 2250 441 2565 725 
Q 2881 1009 2881 1497 
Q 2881 1984 2565 2268 
Q 2250 2553 1709 2553 
Q 1456 2553 1204 2497 
Q 953 2441 691 2322 
L 691 4666 
z
" transform="scale(0.015625)"/>
       </defs>
       <use xlink:href="#DejaVuSans-30"/>
       <use xlink:href="#DejaVuSans-2e" transform="translate(63.623047 0)"/>
       <use xlink:href="#DejaVuSans-32" transform="translate(95.410156 0)"/>
       <use xlink:href="#DejaVuSans-35" transform="translate(159.033203 0)"/>
      </g>
     </g>
    </g>
    <g id="xtick_3">
     <g id="line2d_3">
      <path d="M 203.954399 390.04 
L 203.954399 57.0062 
" clip-path="url(#pd4eab19184)" style="fill: none; stroke: #ffffff; stroke-width: 0.8; stroke-linecap: round"/>
     </g>
     <g id="text_3">
      <!-- 0.50 -->
      <g style="fill: #262626" transform="translate(192.821587 404.638438) scale(0.1 -0.1)">
       <use xlink:href="#DejaVuSans-30"/>
       <use xlink:href="#DejaVuSans-2e" transform="translate(63.623047 0)"/>
       <use xlink:href="#DejaVuSans-35" transform="translate(95.410156 0)"/>
       <use xlink:href="#DejaVuSans-30" transform="translate(159.033203 0)"/>
      </g>
     </g>
    </g>
    <g id="xtick_4">
     <g id="line2d_4">
      <path d="M 273.116184 390.04 
L 273.116184 57.0062 
" clip-path="url(#pd4eab19184)" style="fill: none; stroke: #ffffff; stroke-width: 0.8; stroke-linecap: round"/>
     </g>
     <g id="text_4">
      <!-- 0.75 -->
      <g style="fill: #262626" transform="translate(261.983371 404.638438) scale(0.1 -0.1)">
       <defs>
        <path id="DejaVuSans-37" d="M 525 4666 
L 3525 4666 
L 3525 4397 
L 1831 0 
L 1172 0 
L 2766 4134 
L 525 4134 
L 525 4666 
z
" transform="scale(0.015625)"/>
       </defs>
       <use xlink:href="#DejaVuSans-30"/>
       <use xlink:href="#DejaVuSans-2e" transform="translate(63.623047 0)"/>
       <use xlink:href="#DejaVuSans-37" transform="translate(95.410156 0)"/>
       <use xlink:href="#DejaVuSans-35" transform="translate(159.033203 0)"/>
      </g>
     </g>
    </g>
    <g id="xtick_5">
     <g id="line2d_5">
      <path d="M 342.277969 390.04 
L 342.277969 57.0062 
" clip-path="url(#pd4eab19184)" style="fill: none; stroke: #ffffff; stroke-width: 0.8; stroke-linecap: round"/>
     </g>
     <g id="text_5">
      <!-- 1.00 -->
      <g style="fill: #262626" transform="translate(331.145156 404.638438) scale(0.1 -0.1)">
       <defs>
        <path id="DejaVuSans-31" d="M 794 531 
L 1825 531 
L 1825 4091 
L 703 3866 
L 703 4441 
L 1819 4666 
L 2450 4666 
L 2450 531 
L 3481 531 
L 3481 0 
L 794 0 
L 794 531 
z
" transform="scale(0.015625)"/>
       </defs>
       <use xlink:href="#DejaVuSans-31"/>
       <use xlink:href="#DejaVuSans-2e" transform="translate(63.623047 0)"/>
       <use xlink:href="#DejaVuSans-30" transform="translate(95.410156 0)"/>
       <use xlink:href="#DejaVuSans-30" transform="translate(159.033203 0)"/>
      </g>
     </g>
    </g>
    <g id="xtick_6">
     <g id="line2d_6">
      <path d="M 411.439753 390.04 
L 411.439753 57.0062 
" clip-path="url(#pd4eab19184)" style="fill: none; stroke: #ffffff; stroke-width: 0.8; stroke-linecap: round"/>
     </g>
     <g id="text_6">
      <!-- 1.25 -->
      <g style="fill: #262626" transform="translate(400.306941 404.638438) scale(0.1 -0.1)">
       <use xlink:href="#DejaVuSans-31"/>
       <use xlink:href="#DejaVuSans-2e" transform="translate(63.623047 0)"/>
       <use xlink:href="#DejaVuSans-32" transform="translate(95.410156 0)"/>
       <use xlink:href="#DejaVuSans-35" transform="translate(159.033203 0)"/>
      </g>
     </g>
    </g>
    <g id="xtick_7">
     <g id="line2d_7">
      <path d="M 480.601538 390.04 
L 480.601538 57.0062 
" clip-path="url(#pd4eab19184)" style="fill: none; stroke: #ffffff; stroke-width: 0.8; stroke-linecap: round"/>
     </g>
     <g id="text_7">
      <!-- 1.50 -->
      <g style="fill: #262626" transform="translate(469.468726 404.638438) scale(0.1 -0.1)">
       <use xlink:href="#DejaVuSans-31"/>
       <use xlink:href="#DejaVuSans-2e" transform="translate(63.623047 0)"/>
       <use xlink:href="#DejaVuSans-35" transform="translate(95.410156 0)"/>
       <use xlink:href="#DejaVuSans-30" transform="translate(159.033203 0)"/>
      </g>
     </g>
    </g>
    <g id="xtick_8">
     <g id="line2d_8">
      <path d="M 549.763323 390.04 
L 549.763323 57.0062 
" clip-path="url(#pd4eab19184)" style="fill: none; stroke: #ffffff; stroke-width: 0.8; stroke-linecap: round"/>
     </g>
     <g id="text_8">
      <!-- 1.75 -->
      <g style="fill: #262626" transform="translate(538.63051 404.638438) scale(0.1 -0.1)">
       <use xlink:href="#DejaVuSans-31"/>
       <use xlink:href="#DejaVuSans-2e" transform="translate(63.623047 0)"/>
       <use xlink:href="#DejaVuSans-37" transform="translate(95.410156 0)"/>
       <use xlink:href="#DejaVuSans-35" transform="translate(159.033203 0)"/>
      </g>
     </g>
    </g>
    <g id="xtick_9">
     <g id="line2d_9">
      <path d="M 618.925107 390.04 
L 618.925107 57.0062 
" clip-path="url(#pd4eab19184)" style="fill: none; stroke: #ffffff; stroke-width: 0.8; stroke-linecap: round"/>
     </g>
     <g id="text_9">
      <!-- 2.00 -->
      <g style="fill: #262626" transform="translate(607.792295 404.638438) scale(0.1 -0.1)">
       <use xlink:href="#DejaVuSans-32"/>
       <use xlink:href="#DejaVuSans-2e" transform="translate(63.623047 0)"/>
       <use xlink:href="#DejaVuSans-30" transform="translate(95.410156 0)"/>
       <use xlink:href="#DejaVuSans-30" transform="translate(159.033203 0)"/>
      </g>
     </g>
    </g>
    <g id="text_10">
     <!-- Steps -->
     <g style="fill: #262626" transform="translate(334.927656 418.316562) scale(0.1 -0.1)">
      <defs>
       <path id="DejaVuSans-53" d="M 3425 4513 
L 3425 3897 
Q 3066 4069 2747 4153 
Q 2428 4238 2131 4238 
Q 1616 4238 1336 4038 
Q 1056 3838 1056 3469 
Q 1056 3159 1242 3001 
Q 1428 2844 1947 2747 
L 2328 2669 
Q 3034 2534 3370 2195 
Q 3706 1856 3706 1288 
Q 3706 609 3251 259 
Q 2797 -91 1919 -91 
Q 1588 -91 1214 -16 
Q 841 59 441 206 
L 441 856 
Q 825 641 1194 531 
Q 1563 422 1919 422 
Q 2459 422 2753 634 
Q 3047 847 3047 1241 
Q 3047 1584 2836 1778 
Q 2625 1972 2144 2069 
L 1759 2144 
Q 1053 2284 737 2584 
Q 422 2884 422 3419 
Q 422 4038 858 4394 
Q 1294 4750 2059 4750 
Q 2388 4750 2728 4690 
Q 3069 4631 3425 4513 
z
" transform="scale(0.015625)"/>
       <path id="DejaVuSans-74" d="M 1172 4494 
L 1172 3500 
L 2356 3500 
L 2356 3053 
L 1172 3053 
L 1172 1153 
Q 1172 725 1289 603 
Q 1406 481 1766 481 
L 2356 481 
L 2356 0 
L 1766 0 
Q 1100 0 847 248 
Q 594 497 594 1153 
L 594 3053 
L 172 3053 
L 172 3500 
L 594 3500 
L 594 4494 
L 1172 4494 
z
" transform="scale(0.015625)"/>
       <path id="DejaVuSans-65" d="M 3597 1894 
L 3597 1613 
L 953 1613 
Q 991 1019 1311 708 
Q 1631 397 2203 397 
Q 2534 397 2845 478 
Q 3156 559 3463 722 
L 3463 178 
Q 3153 47 2828 -22 
Q 2503 -91 2169 -91 
Q 1331 -91 842 396 
Q 353 884 353 1716 
Q 353 2575 817 3079 
Q 1281 3584 2069 3584 
Q 2775 3584 3186 3129 
Q 3597 2675 3597 1894 
z
M 3022 2063 
Q 3016 2534 2758 2815 
Q 2500 3097 2075 3097 
Q 1594 3097 1305 2825 
Q 1016 2553 972 2059 
L 3022 2063 
z
" transform="scale(0.015625)"/>
       <path id="DejaVuSans-70" d="M 1159 525 
L 1159 -1331 
L 581 -1331 
L 581 3500 
L 1159 3500 
L 1159 2969 
Q 1341 3281 1617 3432 
Q 1894 3584 2278 3584 
Q 2916 3584 3314 3078 
Q 3713 2572 3713 1747 
Q 3713 922 3314 415 
Q 2916 -91 2278 -91 
Q 1894 -91 1617 61 
Q 1341 213 1159 525 
z
M 3116 1747 
Q 3116 2381 2855 2742 
Q 2594 3103 2138 3103 
Q 1681 3103 1420 2742 
Q 1159 2381 1159 1747 
Q 1159 1113 1420 752 
Q 1681 391 2138 391 
Q 2594 391 2855 752 
Q 3116 1113 3116 1747 
z
" transform="scale(0.015625)"/>
       <path id="DejaVuSans-73" d="M 2834 3397 
L 2834 2853 
Q 2591 2978 2328 3040 
Q 2066 3103 1784 3103 
Q 1356 3103 1142 2972 
Q 928 2841 928 2578 
Q 928 2378 1081 2264 
Q 1234 2150 1697 2047 
L 1894 2003 
Q 2506 1872 2764 1633 
Q 3022 1394 3022 966 
Q 3022 478 2636 193 
Q 2250 -91 1575 -91 
Q 1294 -91 989 -36 
Q 684 19 347 128 
L 347 722 
Q 666 556 975 473 
Q 1284 391 1588 391 
Q 1994 391 2212 530 
Q 2431 669 2431 922 
Q 2431 1156 2273 1281 
Q 2116 1406 1581 1522 
L 1381 1569 
Q 847 1681 609 1914 
Q 372 2147 372 2553 
Q 372 3047 722 3315 
Q 1072 3584 1716 3584 
Q 2034 3584 2315 3537 
Q 2597 3491 2834 3397 
z
" transform="scale(0.015625)"/>
      </defs>
      <use xlink:href="#DejaVuSans-53"/>
      <use xlink:href="#DejaVuSans-74" transform="translate(63.476562 0)"/>
      <use xlink:href="#DejaVuSans-65" transform="translate(102.685547 0)"/>
      <use xlink:href="#DejaVuSans-70" transform="translate(164.208984 0)"/>
      <use xlink:href="#DejaVuSans-73" transform="translate(227.685547 0)"/>
     </g>
    </g>
    <g id="text_11">
     <!-- 1e6 -->
     <g style="fill: #262626" transform="translate(613.326875 417.316562) scale(0.1 -0.1)">
      <defs>
       <path id="DejaVuSans-36" d="M 2113 2584 
Q 1688 2584 1439 2293 
Q 1191 2003 1191 1497 
Q 1191 994 1439 701 
Q 1688 409 2113 409 
Q 2538 409 2786 701 
Q 3034 994 3034 1497 
Q 3034 2003 2786 2293 
Q 2538 2584 2113 2584 
z
M 3366 4563 
L 3366 3988 
Q 3128 4100 2886 4159 
Q 2644 4219 2406 4219 
Q 1781 4219 1451 3797 
Q 1122 3375 1075 2522 
Q 1259 2794 1537 2939 
Q 1816 3084 2150 3084 
Q 2853 3084 3261 2657 
Q 3669 2231 3669 1497 
Q 3669 778 3244 343 
Q 2819 -91 2113 -91 
Q 1303 -91 875 529 
Q 447 1150 447 2328 
Q 447 3434 972 4092 
Q 1497 4750 2381 4750 
Q 2619 4750 2861 4703 
Q 3103 4656 3366 4563 
z
" transform="scale(0.015625)"/>
      </defs>
      <use xlink:href="#DejaVuSans-31"/>
      <use xlink:href="#DejaVuSans-65" transform="translate(63.623047 0)"/>
      <use xlink:href="#DejaVuSans-36" transform="translate(125.146484 0)"/>
     </g>
    </g>
   </g>
   <g id="matplotlib.axis_2">
    <g id="ytick_1">
     <g id="line2d_10">
      <path d="M 65.63 390.04 
L 632.205 390.04 
" clip-path="url(#pd4eab19184)" style="fill: none; stroke: #ffffff; stroke-width: 0.8; stroke-linecap: round"/>
     </g>
     <g id="text_12">
      <!-- −1600 -->
      <g style="fill: #262626" transform="translate(24.800313 393.839219) scale(0.1 -0.1)">
       <defs>
        <path id="DejaVuSans-2212" d="M 678 2272 
L 4684 2272 
L 4684 1741 
L 678 1741 
L 678 2272 
z
" transform="scale(0.015625)"/>
       </defs>
       <use xlink:href="#DejaVuSans-2212"/>
       <use xlink:href="#DejaVuSans-31" transform="translate(83.789062 0)"/>
       <use xlink:href="#DejaVuSans-36" transform="translate(147.412109 0)"/>
       <use xlink:href="#DejaVuSans-30" transform="translate(211.035156 0)"/>
       <use xlink:href="#DejaVuSans-30" transform="translate(274.658203 0)"/>
      </g>
     </g>
    </g>
    <g id="ytick_2">
     <g id="line2d_11">
      <path d="M 65.63 348.410775 
L 632.205 348.410775 
" clip-path="url(#pd4eab19184)" style="fill: none; stroke: #ffffff; stroke-width: 0.8; stroke-linecap: round"/>
     </g>
     <g id="text_13">
      <!-- −1400 -->
      <g style="fill: #262626" transform="translate(24.800313 352.209994) scale(0.1 -0.1)">
       <defs>
        <path id="DejaVuSans-34" d="M 2419 4116 
L 825 1625 
L 2419 1625 
L 2419 4116 
z
M 2253 4666 
L 3047 4666 
L 3047 1625 
L 3713 1625 
L 3713 1100 
L 3047 1100 
L 3047 0 
L 2419 0 
L 2419 1100 
L 313 1100 
L 313 1709 
L 2253 4666 
z
" transform="scale(0.015625)"/>
       </defs>
       <use xlink:href="#DejaVuSans-2212"/>
       <use xlink:href="#DejaVuSans-31" transform="translate(83.789062 0)"/>
       <use xlink:href="#DejaVuSans-34" transform="translate(147.412109 0)"/>
       <use xlink:href="#DejaVuSans-30" transform="translate(211.035156 0)"/>
       <use xlink:href="#DejaVuSans-30" transform="translate(274.658203 0)"/>
      </g>
     </g>
    </g>
    <g id="ytick_3">
     <g id="line2d_12">
      <path d="M 65.63 306.78155 
L 632.205 306.78155 
" clip-path="url(#pd4eab19184)" style="fill: none; stroke: #ffffff; stroke-width: 0.8; stroke-linecap: round"/>
     </g>
     <g id="text_14">
      <!-- −1200 -->
      <g style="fill: #262626" transform="translate(24.800313 310.580769) scale(0.1 -0.1)">
       <use xlink:href="#DejaVuSans-2212"/>
       <use xlink:href="#DejaVuSans-31" transform="translate(83.789062 0)"/>
       <use xlink:href="#DejaVuSans-32" transform="translate(147.412109 0)"/>
       <use xlink:href="#DejaVuSans-30" transform="translate(211.035156 0)"/>
       <use xlink:href="#DejaVuSans-30" transform="translate(274.658203 0)"/>
      </g>
     </g>
    </g>
    <g id="ytick_4">
     <g id="line2d_13">
      <path d="M 65.63 265.152325 
L 632.205 265.152325 
" clip-path="url(#pd4eab19184)" style="fill: none; stroke: #ffffff; stroke-width: 0.8; stroke-linecap: round"/>
     </g>
     <g id="text_15">
      <!-- −1000 -->
      <g style="fill: #262626" transform="translate(24.800313 268.951544) scale(0.1 -0.1)">
       <use xlink:href="#DejaVuSans-2212"/>
       <use xlink:href="#DejaVuSans-31" transform="translate(83.789062 0)"/>
       <use xlink:href="#DejaVuSans-30" transform="translate(147.412109 0)"/>
       <use xlink:href="#DejaVuSans-30" transform="translate(211.035156 0)"/>
       <use xlink:href="#DejaVuSans-30" transform="translate(274.658203 0)"/>
      </g>
     </g>
    </g>
    <g id="ytick_5">
     <g id="line2d_14">
      <path d="M 65.63 223.5231 
L 632.205 223.5231 
" clip-path="url(#pd4eab19184)" style="fill: none; stroke: #ffffff; stroke-width: 0.8; stroke-linecap: round"/>
     </g>
     <g id="text_16">
      <!-- −800 -->
      <g style="fill: #262626" transform="translate(31.162813 227.322319) scale(0.1 -0.1)">
       <defs>
        <path id="DejaVuSans-38" d="M 2034 2216 
Q 1584 2216 1326 1975 
Q 1069 1734 1069 1313 
Q 1069 891 1326 650 
Q 1584 409 2034 409 
Q 2484 409 2743 651 
Q 3003 894 3003 1313 
Q 3003 1734 2745 1975 
Q 2488 2216 2034 2216 
z
M 1403 2484 
Q 997 2584 770 2862 
Q 544 3141 544 3541 
Q 544 4100 942 4425 
Q 1341 4750 2034 4750 
Q 2731 4750 3128 4425 
Q 3525 4100 3525 3541 
Q 3525 3141 3298 2862 
Q 3072 2584 2669 2484 
Q 3125 2378 3379 2068 
Q 3634 1759 3634 1313 
Q 3634 634 3220 271 
Q 2806 -91 2034 -91 
Q 1263 -91 848 271 
Q 434 634 434 1313 
Q 434 1759 690 2068 
Q 947 2378 1403 2484 
z
M 1172 3481 
Q 1172 3119 1398 2916 
Q 1625 2713 2034 2713 
Q 2441 2713 2670 2916 
Q 2900 3119 2900 3481 
Q 2900 3844 2670 4047 
Q 2441 4250 2034 4250 
Q 1625 4250 1398 4047 
Q 1172 3844 1172 3481 
z
" transform="scale(0.015625)"/>
       </defs>
       <use xlink:href="#DejaVuSans-2212"/>
       <use xlink:href="#DejaVuSans-38" transform="translate(83.789062 0)"/>
       <use xlink:href="#DejaVuSans-30" transform="translate(147.412109 0)"/>
       <use xlink:href="#DejaVuSans-30" transform="translate(211.035156 0)"/>
      </g>
     </g>
    </g>
    <g id="ytick_6">
     <g id="line2d_15">
      <path d="M 65.63 181.893875 
L 632.205 181.893875 
" clip-path="url(#pd4eab19184)" style="fill: none; stroke: #ffffff; stroke-width: 0.8; stroke-linecap: round"/>
     </g>
     <g id="text_17">
      <!-- −600 -->
      <g style="fill: #262626" transform="translate(31.162813 185.693094) scale(0.1 -0.1)">
       <use xlink:href="#DejaVuSans-2212"/>
       <use xlink:href="#DejaVuSans-36" transform="translate(83.789062 0)"/>
       <use xlink:href="#DejaVuSans-30" transform="translate(147.412109 0)"/>
       <use xlink:href="#DejaVuSans-30" transform="translate(211.035156 0)"/>
      </g>
     </g>
    </g>
    <g id="ytick_7">
     <g id="line2d_16">
      <path d="M 65.63 140.26465 
L 632.205 140.26465 
" clip-path="url(#pd4eab19184)" style="fill: none; stroke: #ffffff; stroke-width: 0.8; stroke-linecap: round"/>
     </g>
     <g id="text_18">
      <!-- −400 -->
      <g style="fill: #262626" transform="translate(31.162813 144.063869) scale(0.1 -0.1)">
       <use xlink:href="#DejaVuSans-2212"/>
       <use xlink:href="#DejaVuSans-34" transform="translate(83.789062 0)"/>
       <use xlink:href="#DejaVuSans-30" transform="translate(147.412109 0)"/>
       <use xlink:href="#DejaVuSans-30" transform="translate(211.035156 0)"/>
      </g>
     </g>
    </g>
    <g id="ytick_8">
     <g id="line2d_17">
      <path d="M 65.63 98.635425 
L 632.205 98.635425 
" clip-path="url(#pd4eab19184)" style="fill: none; stroke: #ffffff; stroke-width: 0.8; stroke-linecap: round"/>
     </g>
     <g id="text_19">
      <!-- −200 -->
      <g style="fill: #262626" transform="translate(31.162813 102.434644) scale(0.1 -0.1)">
       <use xlink:href="#DejaVuSans-2212"/>
       <use xlink:href="#DejaVuSans-32" transform="translate(83.789062 0)"/>
       <use xlink:href="#DejaVuSans-30" transform="translate(147.412109 0)"/>
       <use xlink:href="#DejaVuSans-30" transform="translate(211.035156 0)"/>
      </g>
     </g>
    </g>
    <g id="ytick_9">
     <g id="line2d_18">
      <path d="M 65.63 57.0062 
L 632.205 57.0062 
" clip-path="url(#pd4eab19184)" style="fill: none; stroke: #ffffff; stroke-width: 0.8; stroke-linecap: round"/>
     </g>
     <g id="text_20">
      <!-- 0 -->
      <g style="fill: #262626" transform="translate(52.2675 60.805419) scale(0.1 -0.1)">
       <use xlink:href="#DejaVuSans-30"/>
      </g>
     </g>
    </g>
    <g id="text_21">
     <!-- Reward -->
     <g style="fill: #262626" transform="translate(18.720625 242.144194) rotate(-90) scale(0.1 -0.1)">
      <defs>
       <path id="DejaVuSans-52" d="M 2841 2188 
Q 3044 2119 3236 1894 
Q 3428 1669 3622 1275 
L 4263 0 
L 3584 0 
L 2988 1197 
Q 2756 1666 2539 1819 
Q 2322 1972 1947 1972 
L 1259 1972 
L 1259 0 
L 628 0 
L 628 4666 
L 2053 4666 
Q 2853 4666 3247 4331 
Q 3641 3997 3641 3322 
Q 3641 2881 3436 2590 
Q 3231 2300 2841 2188 
z
M 1259 4147 
L 1259 2491 
L 2053 2491 
Q 2509 2491 2742 2702 
Q 2975 2913 2975 3322 
Q 2975 3731 2742 3939 
Q 2509 4147 2053 4147 
L 1259 4147 
z
" transform="scale(0.015625)"/>
       <path id="DejaVuSans-77" d="M 269 3500 
L 844 3500 
L 1563 769 
L 2278 3500 
L 2956 3500 
L 3675 769 
L 4391 3500 
L 4966 3500 
L 4050 0 
L 3372 0 
L 2619 2869 
L 1863 0 
L 1184 0 
L 269 3500 
z
" transform="scale(0.015625)"/>
       <path id="DejaVuSans-61" d="M 2194 1759 
Q 1497 1759 1228 1600 
Q 959 1441 959 1056 
Q 959 750 1161 570 
Q 1363 391 1709 391 
Q 2188 391 2477 730 
Q 2766 1069 2766 1631 
L 2766 1759 
L 2194 1759 
z
M 3341 1997 
L 3341 0 
L 2766 0 
L 2766 531 
Q 2569 213 2275 61 
Q 1981 -91 1556 -91 
Q 1019 -91 701 211 
Q 384 513 384 1019 
Q 384 1609 779 1909 
Q 1175 2209 1959 2209 
L 2766 2209 
L 2766 2266 
Q 2766 2663 2505 2880 
Q 2244 3097 1772 3097 
Q 1472 3097 1187 3025 
Q 903 2953 641 2809 
L 641 3341 
Q 956 3463 1253 3523 
Q 1550 3584 1831 3584 
Q 2591 3584 2966 3190 
Q 3341 2797 3341 1997 
z
" transform="scale(0.015625)"/>
       <path id="DejaVuSans-72" d="M 2631 2963 
Q 2534 3019 2420 3045 
Q 2306 3072 2169 3072 
Q 1681 3072 1420 2755 
Q 1159 2438 1159 1844 
L 1159 0 
L 581 0 
L 581 3500 
L 1159 3500 
L 1159 2956 
Q 1341 3275 1631 3429 
Q 1922 3584 2338 3584 
Q 2397 3584 2469 3576 
Q 2541 3569 2628 3553 
L 2631 2963 
z
" transform="scale(0.015625)"/>
       <path id="DejaVuSans-64" d="M 2906 2969 
L 2906 4863 
L 3481 4863 
L 3481 0 
L 2906 0 
L 2906 525 
Q 2725 213 2448 61 
Q 2172 -91 1784 -91 
Q 1150 -91 751 415 
Q 353 922 353 1747 
Q 353 2572 751 3078 
Q 1150 3584 1784 3584 
Q 2172 3584 2448 3432 
Q 2725 3281 2906 2969 
z
M 947 1747 
Q 947 1113 1208 752 
Q 1469 391 1925 391 
Q 2381 391 2643 752 
Q 2906 1113 2906 1747 
Q 2906 2381 2643 2742 
Q 2381 3103 1925 3103 
Q 1469 3103 1208 2742 
Q 947 2381 947 1747 
z
" transform="scale(0.015625)"/>
      </defs>
      <use xlink:href="#DejaVuSans-52"/>
      <use xlink:href="#DejaVuSans-65" transform="translate(64.982422 0)"/>
      <use xlink:href="#DejaVuSans-77" transform="translate(126.505859 0)"/>
      <use xlink:href="#DejaVuSans-61" transform="translate(208.292969 0)"/>
      <use xlink:href="#DejaVuSans-72" transform="translate(269.572266 0)"/>
      <use xlink:href="#DejaVuSans-64" transform="translate(308.935547 0)"/>
     </g>
    </g>
   </g>
   <g id="FillBetweenPolyCollection_1">
    <path d="M 65.63083 298.254667 
L 65.63083 331.187298 
L 71.296563 320.847157 
L 76.962297 321.994122 
L 82.62803 313.602449 
L 88.293764 302.962336 
L 93.959497 304.102214 
L 99.62523 282.145403 
L 105.290964 283.802079 
L 110.956697 273.535294 
L 116.622431 276.643331 
L 122.288164 261.450787 
L 127.953897 273.785791 
L 133.619631 260.767682 
L 139.285364 271.659713 
L 144.951098 263.856471 
L 150.616831 261.000428 
L 156.282564 267.67308 
L 161.948298 242.714949 
L 167.614031 250.213837 
L 173.279765 233.287363 
L 178.945498 223.213973 
L 184.611231 233.742437 
L 190.276965 233.575639 
L 195.942698 231.140066 
L 201.608432 209.094088 
L 207.274165 230.158071 
L 212.939898 226.50561 
L 218.605632 204.067131 
L 224.271365 218.795693 
L 229.937099 241.208558 
L 235.602832 240.422778 
L 241.268565 220.614326 
L 246.934299 228.452888 
L 252.600032 249.171855 
L 258.265766 253.883292 
L 263.931499 244.585883 
L 269.597232 285.325883 
L 275.262966 290.362296 
L 280.928699 273.072245 
L 286.594433 282.191872 
L 292.260166 297.794367 
L 297.925899 325.114207 
L 303.591633 319.012859 
L 309.257366 335.905207 
L 314.9231 315.220729 
L 320.588833 325.400325 
L 326.254566 322.342591 
L 331.9203 323.68149 
L 337.586033 305.062197 
L 343.251767 306.198219 
L 348.9175 307.131532 
L 354.583233 300.975075 
L 360.248967 310.730547 
L 365.9147 304.600081 
L 371.580434 301.159883 
L 377.246167 298.697068 
L 382.9119 287.459833 
L 388.577634 290.555232 
L 394.243367 272.496234 
L 399.909101 280.198362 
L 405.574834 284.870997 
L 411.240567 278.226883 
L 416.906301 273.912267 
L 422.572034 276.51324 
L 428.237768 271.677608 
L 433.903501 283.844264 
L 439.569234 272.722917 
L 445.234968 255.936486 
L 450.900701 265.848187 
L 456.566435 274.901856 
L 462.232168 272.72611 
L 467.897901 254.755811 
L 473.563635 258.960973 
L 479.229368 266.425722 
L 484.895102 262.428358 
L 490.560835 253.787752 
L 496.226568 262.777506 
L 501.892302 259.174263 
L 507.558035 259.177924 
L 513.223769 260.615106 
L 518.889502 265.095301 
L 524.555235 262.665806 
L 530.220969 259.683382 
L 535.886702 255.678996 
L 541.552436 266.861873 
L 547.218169 258.950626 
L 552.883902 258.507669 
L 558.549636 258.584678 
L 564.215369 258.138646 
L 569.881103 243.815778 
L 575.546836 247.406215 
L 581.212569 236.254876 
L 586.878303 248.00268 
L 592.544036 240.160509 
L 598.20977 236.331043 
L 603.875503 206.64792 
L 609.541236 246.465019 
L 615.20697 240.34516 
L 620.872703 230.129062 
L 626.538437 249.190525 
L 626.538437 69.29883 
L 626.538437 69.29883 
L 620.872703 78.140985 
L 615.20697 75.56881 
L 609.541236 66.143487 
L 603.875503 83.149084 
L 598.20977 70.350555 
L 592.544036 78.2307 
L 586.878303 65.638187 
L 581.212569 67.972355 
L 575.546836 68.074684 
L 569.881103 63.321397 
L 564.215369 66.432109 
L 558.549636 84.411857 
L 552.883902 62.184126 
L 547.218169 65.185695 
L 541.552436 75.954749 
L 535.886702 77.990951 
L 530.220969 68.03869 
L 524.555235 68.652489 
L 518.889502 77.380618 
L 513.223769 72.974299 
L 507.558035 84.653592 
L 501.892302 77.188921 
L 496.226568 72.706625 
L 490.560835 66.131678 
L 484.895102 93.726698 
L 479.229368 87.99203 
L 473.563635 78.51719 
L 467.897901 111.674989 
L 462.232168 96.087323 
L 456.566435 80.043482 
L 450.900701 100.664229 
L 445.234968 92.83352 
L 439.569234 107.910588 
L 433.903501 116.719849 
L 428.237768 88.346855 
L 422.572034 96.853144 
L 416.906301 120.920315 
L 411.240567 103.376134 
L 405.574834 117.194516 
L 399.909101 119.238027 
L 394.243367 112.296641 
L 388.577634 132.879731 
L 382.9119 144.96964 
L 377.246167 161.597803 
L 371.580434 161.004718 
L 365.9147 158.273935 
L 360.248967 189.66636 
L 354.583233 168.791706 
L 348.9175 148.604038 
L 343.251767 164.043545 
L 337.586033 187.458848 
L 331.9203 182.630059 
L 326.254566 194.351935 
L 320.588833 221.899041 
L 314.9231 205.243853 
L 309.257366 200.788299 
L 303.591633 215.882953 
L 297.925899 212.840084 
L 292.260166 218.117114 
L 286.594433 192.273971 
L 280.928699 229.266074 
L 275.262966 161.995456 
L 269.597232 179.231038 
L 263.931499 166.706615 
L 258.265766 144.909356 
L 252.600032 144.031095 
L 246.934299 140.260637 
L 241.268565 136.595077 
L 235.602832 152.321015 
L 229.937099 144.897328 
L 224.271365 126.465024 
L 218.605632 122.415642 
L 212.939898 132.321053 
L 207.274165 152.36769 
L 201.608432 131.940975 
L 195.942698 116.524164 
L 190.276965 144.304186 
L 184.611231 140.428473 
L 178.945498 132.227872 
L 173.279765 135.873355 
L 167.614031 154.584875 
L 161.948298 146.964746 
L 156.282564 154.717723 
L 150.616831 158.115233 
L 144.951098 168.233468 
L 139.285364 178.186707 
L 133.619631 200.084736 
L 127.953897 194.728351 
L 122.288164 205.637557 
L 116.622431 217.357042 
L 110.956697 224.978542 
L 105.290964 239.790908 
L 99.62523 253.367737 
L 93.959497 256.842503 
L 88.293764 270.535744 
L 82.62803 294.90725 
L 76.962297 295.836007 
L 71.296563 297.011403 
L 65.63083 298.254667 
z
" clip-path="url(#pd4eab19184)" style="fill: #0000ff; fill-opacity: 0.1"/>
   </g>
   <g id="line2d_19">
    <path d="M 65.63083 314.720982 
L 71.296563 308.92928 
L 76.962297 308.915065 
L 82.62803 304.25485 
L 88.293764 286.74904 
L 93.959497 280.472358 
L 99.62523 267.75657 
L 105.290964 261.796494 
L 110.956697 249.256918 
L 116.622431 247.000186 
L 122.288164 233.544172 
L 127.953897 234.257071 
L 133.619631 230.426209 
L 139.285364 224.92321 
L 144.951098 216.044969 
L 150.616831 209.55783 
L 156.282564 211.195401 
L 161.948298 194.839847 
L 167.614031 202.399356 
L 173.279765 184.580359 
L 178.945498 177.720922 
L 184.611231 187.085455 
L 190.276965 188.939912 
L 195.942698 173.832115 
L 201.608432 170.517532 
L 207.274165 191.262881 
L 212.939898 179.413331 
L 218.605632 163.241386 
L 224.271365 172.630358 
L 229.937099 193.052943 
L 235.602832 196.371897 
L 241.268565 178.604702 
L 246.934299 184.356763 
L 252.600032 196.601475 
L 258.265766 199.396324 
L 263.931499 205.646249 
L 269.597232 232.278461 
L 275.262966 226.178876 
L 280.928699 251.169159 
L 286.594433 237.232921 
L 292.260166 257.95574 
L 297.925899 268.977145 
L 303.591633 267.447906 
L 309.257366 268.346753 
L 314.9231 260.232291 
L 320.588833 273.649683 
L 326.254566 258.347263 
L 331.9203 253.155774 
L 337.586033 246.260522 
L 343.251767 235.120882 
L 348.9175 227.867785 
L 354.583233 234.883391 
L 360.248967 250.198453 
L 365.9147 231.437008 
L 371.580434 231.0823 
L 377.246167 230.147436 
L 382.9119 216.214736 
L 388.577634 211.717481 
L 394.243367 192.396438 
L 399.909101 199.718195 
L 405.574834 201.032756 
L 411.240567 190.801508 
L 416.906301 197.416291 
L 422.572034 186.683192 
L 428.237768 180.012232 
L 433.903501 200.282056 
L 439.569234 190.316752 
L 445.234968 174.385003 
L 450.900701 183.256208 
L 456.566435 177.472669 
L 462.232168 184.406716 
L 467.897901 183.2154 
L 473.563635 168.739081 
L 479.229368 177.208876 
L 484.895102 178.077528 
L 490.560835 159.959715 
L 496.226568 167.742066 
L 501.892302 168.181592 
L 507.558035 171.915758 
L 513.223769 166.794703 
L 518.889502 171.237959 
L 524.555235 165.659148 
L 530.220969 163.861036 
L 535.886702 166.834974 
L 541.552436 171.408311 
L 547.218169 162.06816 
L 552.883902 160.345898 
L 558.549636 171.498267 
L 564.215369 162.285377 
L 569.881103 153.568588 
L 575.546836 157.74045 
L 581.212569 152.113616 
L 586.878303 156.820434 
L 592.544036 159.195604 
L 598.20977 153.340799 
L 603.875503 144.898502 
L 609.541236 156.304253 
L 615.20697 157.956985 
L 620.872703 154.135024 
L 626.538437 159.244677 
" clip-path="url(#pd4eab19184)" style="fill: none; stroke: #0000ff; stroke-width: 1.5; stroke-linecap: round"/>
   </g>
   <g id="line2d_20">
    <path d="M 65.63083 306.709628 
L 71.296563 291.564543 
L 76.962297 317.648893 
L 82.62803 313.129747 
L 88.293764 291.550849 
L 93.959497 294.773031 
L 99.62523 275.302171 
L 105.290964 271.69315 
L 110.956697 236.637138 
L 116.622431 253.263427 
L 122.288164 230.760666 
L 127.953897 229.522805 
L 133.619631 225.800484 
L 139.285364 215.229734 
L 144.951098 209.07331 
L 150.616831 218.412654 
L 156.282564 209.497184 
L 161.948298 190.597748 
L 167.614031 205.220221 
L 173.279765 168.02618 
L 178.945498 161.728861 
L 184.611231 186.275553 
L 190.276965 182.650519 
L 195.942698 181.284531 
L 201.608432 184.101109 
L 207.274165 172.50646 
L 212.939898 190.070603 
L 218.605632 140.117707 
L 224.271365 209.576503 
L 229.937099 210.729883 
L 235.602832 236.891216 
L 241.268565 183.556254 
L 246.934299 219.419124 
L 252.600032 222.991869 
L 258.265766 217.942846 
L 263.931499 215.607987 
L 269.597232 189.638587 
L 275.262966 204.511536 
L 280.928699 243.484099 
L 286.594433 169.869093 
L 292.260166 218.238079 
L 297.925899 185.481136 
L 303.591633 216.224879 
L 309.257366 230.764276 
L 314.9231 205.459767 
L 320.588833 272.271824 
L 326.254566 192.904821 
L 331.9203 178.808787 
L 337.586033 206.964595 
L 343.251767 180.030625 
L 348.9175 163.248698 
L 354.583233 184.401928 
L 360.248967 216.758423 
L 365.9147 182.267335 
L 371.580434 198.787953 
L 377.246167 187.018267 
L 382.9119 186.185719 
L 388.577634 155.342724 
L 394.243367 141.010271 
L 399.909101 191.052745 
L 405.574834 185.759777 
L 411.240567 155.205539 
L 416.906301 191.188712 
L 422.572034 144.405903 
L 428.237768 149.752583 
L 433.903501 181.796974 
L 439.569234 135.29535 
L 445.234968 140.290988 
L 450.900701 158.365746 
L 456.566435 103.375416 
L 462.232168 153.862438 
L 467.897901 116.63498 
L 473.563635 96.090994 
L 479.229368 123.358004 
L 484.895102 132.917987 
L 490.560835 117.628136 
L 496.226568 119.907283 
L 501.892302 105.069622 
L 507.558035 136.316159 
L 513.223769 108.629875 
L 518.889502 122.142921 
L 524.555235 101.584264 
L 530.220969 106.813144 
L 535.886702 107.850655 
L 541.552436 97.056031 
L 547.218169 98.84369 
L 552.883902 106.374632 
L 558.549636 144.476722 
L 564.215369 115.056164 
L 569.881103 105.327241 
L 575.546836 96.974694 
L 581.212569 100.465893 
L 586.878303 107.808186 
L 592.544036 116.993906 
L 598.20977 88.815341 
L 603.875503 90.047431 
L 609.541236 96.701796 
L 615.20697 99.509364 
L 620.872703 94.430359 
L 626.538437 87.643242 
" clip-path="url(#pd4eab19184)" style="fill: none; stroke: #008000; stroke-opacity: 0.2; stroke-linecap: round"/>
   </g>
   <g id="line2d_21">
    <path d="M 65.63083 340.611764 
L 71.296563 303.662382 
L 76.962297 328.02432 
L 82.62803 298.372164 
L 88.293764 290.403665 
L 93.959497 262.770143 
L 99.62523 266.338173 
L 105.290964 243.666977 
L 110.956697 248.339879 
L 116.622431 236.219186 
L 122.288164 225.46487 
L 127.953897 227.152975 
L 133.619631 228.074461 
L 139.285364 230.628502 
L 144.951098 205.851702 
L 150.616831 204.12986 
L 156.282564 211.351394 
L 161.948298 174.150018 
L 167.614031 207.274647 
L 173.279765 160.595703 
L 178.945498 157.648341 
L 184.611231 183.860522 
L 190.276965 153.763219 
L 195.942698 149.737337 
L 201.608432 138.761198 
L 207.274165 168.573532 
L 212.939898 132.033722 
L 218.605632 146.448405 
L 224.271365 109.70794 
L 229.937099 146.64461 
L 235.602832 143.534372 
L 241.268565 158.750227 
L 246.934299 171.486428 
L 252.600032 191.552393 
L 258.265766 219.205194 
L 263.931499 236.324507 
L 269.597232 239.516306 
L 275.262966 195.747547 
L 280.928699 226.943229 
L 286.594433 239.368451 
L 292.260166 202.946596 
L 297.925899 239.64033 
L 303.591633 209.852198 
L 309.257366 163.481037 
L 314.9231 196.2615 
L 320.588833 194.011638 
L 326.254566 186.56276 
L 331.9203 174.945623 
L 337.586033 172.80595 
L 343.251767 146.522775 
L 348.9175 145.168598 
L 354.583233 196.73899 
L 360.248967 207.278447 
L 365.9147 193.000411 
L 371.580434 172.918414 
L 377.246167 211.156817 
L 382.9119 213.622639 
L 388.577634 181.249561 
L 394.243367 192.709054 
L 399.909101 191.222119 
L 405.574834 170.204993 
L 411.240567 159.031517 
L 416.906301 192.926311 
L 422.572034 174.468177 
L 428.237768 156.761004 
L 433.903501 183.703842 
L 439.569234 176.640827 
L 445.234968 146.296125 
L 450.900701 148.06634 
L 456.566435 139.899151 
L 462.232168 152.839677 
L 467.897901 174.863294 
L 473.563635 128.209975 
L 479.229368 139.357135 
L 484.895102 176.992099 
L 490.560835 116.260383 
L 496.226568 132.30344 
L 501.892302 154.89788 
L 507.558035 126.332188 
L 513.223769 114.987882 
L 518.889502 136.965005 
L 524.555235 138.14767 
L 530.220969 111.625339 
L 535.886702 144.492211 
L 541.552436 147.812551 
L 547.218169 118.041883 
L 552.883902 107.181484 
L 558.549636 129.437752 
L 564.215369 113.038154 
L 569.881103 113.520786 
L 575.546836 112.913812 
L 581.212569 107.41533 
L 586.878303 103.126456 
L 592.544036 95.264971 
L 598.20977 98.776501 
L 603.875503 142.940338 
L 609.541236 100.493717 
L 615.20697 114.361724 
L 620.872703 116.340345 
L 626.538437 96.22108 
" clip-path="url(#pd4eab19184)" style="fill: none; stroke: #008000; stroke-opacity: 0.2; stroke-linecap: round"/>
   </g>
   <g id="line2d_22">
    <path d="M 65.63083 290.977746 
L 71.296563 319.164905 
L 76.962297 289.573048 
L 82.62803 317.854968 
L 88.293764 308.204835 
L 93.959497 318.52643 
L 99.62523 285.05439 
L 105.290964 295.274647 
L 110.956697 294.57828 
L 116.622431 294.78442 
L 122.288164 277.821701 
L 127.953897 292.40383 
L 133.619631 274.519171 
L 139.285364 300.140456 
L 144.951098 290.712402 
L 150.616831 281.886522 
L 156.282564 295.979736 
L 161.948298 278.753675 
L 167.614031 277.038048 
L 173.279765 277.421383 
L 178.945498 267.245425 
L 184.611231 263.627731 
L 190.276965 270.370659 
L 195.942698 280.849277 
L 201.608432 237.883094 
L 207.274165 245.818496 
L 212.939898 263.601434 
L 218.605632 244.568305 
L 224.271365 239.314133 
L 229.937099 270.137215 
L 235.602832 259.254423 
L 241.268565 257.386043 
L 246.934299 250.104783 
L 252.600032 281.375186 
L 258.265766 281.724759 
L 263.931499 249.904085 
L 269.597232 234.03554 
L 275.262966 201.302483 
L 280.928699 231.112158 
L 286.594433 209.171209 
L 292.260166 290.962052 
L 297.925899 350.252721 
L 303.591633 350.741715 
L 309.257366 361.407598 
L 314.9231 346.555203 
L 320.588833 357.488885 
L 326.254566 357.790856 
L 331.9203 357.00934 
L 337.586033 347.637504 
L 343.251767 350.396914 
L 348.9175 360.952279 
L 354.583233 353.089173 
L 360.248967 355.135352 
L 365.9147 370.976383 
L 371.580434 354.797552 
L 377.246167 353.78943 
L 382.9119 338.263719 
L 388.577634 357.412517 
L 394.243367 345.886022 
L 399.909101 349.170482 
L 405.574834 365.282161 
L 411.240567 363.926407 
L 416.906301 340.30652 
L 422.572034 362.737374 
L 428.237768 358.802085 
L 433.903501 362.250808 
L 439.569234 351.92767 
L 445.234968 335.158763 
L 450.900701 344.752639 
L 456.566435 366.971725 
L 462.232168 359.558136 
L 467.897901 320.420668 
L 473.563635 345.89858 
L 479.229368 353.853551 
L 484.895102 341.288104 
L 490.560835 346.968477 
L 496.226568 357.369184 
L 501.892302 346.229541 
L 507.558035 345.374363 
L 513.223769 350.261603 
L 518.889502 358.206947 
L 524.555235 358.019836 
L 530.220969 351.864643 
L 535.886702 341.500874 
L 541.552436 356.902684 
L 547.218169 355.006103 
L 552.883902 356.394854 
L 558.549636 343.588526 
L 564.215369 351.197527 
L 569.881103 333.979202 
L 575.546836 336.029708 
L 581.212569 318.561594 
L 586.878303 336.989383 
L 592.544036 316.090634 
L 598.20977 307.908772 
L 603.875503 262.798834 
L 609.541236 332.273274 
L 615.20697 318.948622 
L 620.872703 298.742921 
L 626.538437 325.438373 
" clip-path="url(#pd4eab19184)" style="fill: none; stroke: #008000; stroke-opacity: 0.2; stroke-linecap: round"/>
   </g>
   <g id="line2d_23">
    <path d="M 65.63083 313.1668 
L 71.296563 305.144647 
L 76.962297 306.009453 
L 82.62803 296.63039 
L 88.293764 285.398425 
L 93.959497 252.528622 
L 99.62523 241.854904 
L 105.290964 232.513165 
L 110.956697 222.688893 
L 116.622431 202.797112 
L 122.288164 191.321116 
L 127.953897 170.566236 
L 133.619631 180.698545 
L 139.285364 153.249241 
L 144.951098 142.300955 
L 150.616831 121.565477 
L 156.282564 118.131539 
L 161.948298 131.934084 
L 167.614031 126.310953 
L 173.279765 135.787031 
L 178.945498 139.904538 
L 184.611231 116.292415 
L 190.276965 143.90533 
L 195.942698 117.49944 
L 201.608432 130.114643 
L 207.274165 142.073932 
L 212.939898 139.620051 
L 218.605632 137.765205 
L 224.271365 157.599487 
L 229.937099 200.638299 
L 235.602832 166.835674 
L 241.268565 137.760471 
L 246.934299 148.687298 
L 252.600032 155.365494 
L 258.265766 143.928811 
L 263.931499 141.078259 
L 269.597232 325.358791 
L 275.262966 353.042315 
L 280.928699 277.427508 
L 286.594433 298.457322 
L 292.260166 301.81514 
L 297.925899 305.016159 
L 303.591633 286.919996 
L 309.257366 309.343593 
L 314.9231 281.4005 
L 320.588833 269.637019 
L 326.254566 292.045403 
L 331.9203 302.542519 
L 337.586033 253.745815 
L 343.251767 267.809262 
L 348.9175 270.943978 
L 354.583233 261.488405 
L 360.248967 280.296045 
L 365.9147 237.481286 
L 371.580434 260.659296 
L 377.246167 244.633753 
L 382.9119 224.303416 
L 388.577634 227.078038 
L 394.243367 159.016435 
L 399.909101 157.568692 
L 405.574834 140.689941 
L 411.240567 151.612694 
L 416.906301 136.167515 
L 422.572034 122.235383 
L 428.237768 98.095581 
L 433.903501 139.099046 
L 439.569234 156.207788 
L 445.234968 142.316783 
L 450.900701 155.193281 
L 456.566435 167.032606 
L 462.232168 126.290863 
L 467.897901 164.791411 
L 473.563635 149.92442 
L 479.229368 152.82982 
L 484.895102 124.913647 
L 490.560835 98.371957 
L 496.226568 114.011997 
L 501.892302 130.976943 
L 507.558035 139.615839 
L 513.223769 158.183951 
L 518.889502 127.715719 
L 524.555235 122.641501 
L 530.220969 151.72972 
L 535.886702 137.824951 
L 541.552436 152.449946 
L 547.218169 126.267863 
L 552.883902 120.955626 
L 558.549636 135.814439 
L 564.215369 141.790825 
L 569.881103 106.982998 
L 575.546836 127.238645 
L 581.212569 133.96325 
L 586.878303 138.395225 
L 592.544036 156.219543 
L 598.20977 172.854176 
L 603.875503 126.309743 
L 609.541236 150.305216 
L 615.20697 150.466702 
L 620.872703 161.087568 
L 626.538437 183.671682 
" clip-path="url(#pd4eab19184)" style="fill: none; stroke: #008000; stroke-opacity: 0.2; stroke-linecap: round"/>
   </g>
   <g id="line2d_24">
    <path d="M 65.63083 322.138974 
L 71.296563 325.109922 
L 76.962297 303.319609 
L 82.62803 295.286979 
L 88.293764 258.187426 
L 93.959497 273.763566 
L 99.62523 270.23321 
L 105.290964 265.834528 
L 110.956697 244.0404 
L 116.622431 247.936788 
L 122.288164 242.352508 
L 127.953897 251.639509 
L 133.619631 243.038385 
L 139.285364 225.368118 
L 144.951098 232.286478 
L 150.616831 221.794639 
L 156.282564 221.017154 
L 161.948298 198.763712 
L 167.614031 196.15291 
L 173.279765 181.071498 
L 178.945498 162.077447 
L 184.611231 185.371055 
L 190.276965 194.009833 
L 195.942698 139.78999 
L 201.608432 161.727613 
L 207.274165 227.341983 
L 212.939898 171.740847 
L 218.605632 147.30731 
L 224.271365 146.953728 
L 229.937099 137.114707 
L 235.602832 175.343799 
L 241.268565 155.570514 
L 246.934299 132.08618 
L 252.600032 131.722435 
L 258.265766 134.180011 
L 263.931499 185.316409 
L 269.597232 172.843079 
L 275.262966 176.290497 
L 280.928699 276.878803 
L 286.594433 269.298532 
L 292.260166 275.816835 
L 297.925899 264.495379 
L 303.591633 273.500743 
L 309.257366 276.73726 
L 314.9231 271.484486 
L 320.588833 274.839049 
L 326.254566 262.432476 
L 331.9203 252.472602 
L 337.586033 250.148748 
L 343.251767 230.844835 
L 348.9175 199.025371 
L 354.583233 178.698457 
L 360.248967 191.524 
L 365.9147 173.459626 
L 371.580434 168.248286 
L 377.246167 154.138912 
L 382.9119 118.698188 
L 388.577634 137.504567 
L 394.243367 123.360405 
L 399.909101 109.576935 
L 405.574834 143.226911 
L 411.240567 124.231384 
L 416.906301 126.492395 
L 422.572034 129.569125 
L 428.237768 136.649906 
L 433.903501 134.559612 
L 439.569234 131.512127 
L 445.234968 107.862357 
L 450.900701 109.903033 
L 456.566435 110.084446 
L 462.232168 129.482467 
L 467.897901 139.366649 
L 473.563635 123.571437 
L 479.229368 116.645869 
L 484.895102 114.275802 
L 490.560835 120.569622 
L 496.226568 115.118424 
L 501.892302 103.733974 
L 507.558035 111.940242 
L 513.223769 101.910204 
L 518.889502 111.159205 
L 524.555235 107.902467 
L 530.220969 97.272335 
L 535.886702 102.506176 
L 541.552436 102.820343 
L 547.218169 112.181263 
L 552.883902 110.822893 
L 558.549636 104.173897 
L 564.215369 90.344217 
L 569.881103 108.032711 
L 575.546836 115.545389 
L 581.212569 100.16201 
L 586.878303 97.782919 
L 592.544036 111.408969 
L 598.20977 98.349206 
L 603.875503 102.396166 
L 609.541236 101.747261 
L 615.20697 106.498514 
L 620.872703 100.073925 
L 626.538437 103.24901 
" clip-path="url(#pd4eab19184)" style="fill: none; stroke: #008000; stroke-opacity: 0.2; stroke-linecap: round"/>
   </g>
   <g id="line2d_25">
    <path d="M 65.63083 57.0062 
L 71.296563 58.998881 
L 76.962297 64.525295 
L 82.62803 70.629537 
L 88.293764 78.39045 
L 93.959497 96.509914 
L 99.62523 111.231885 
L 105.290964 131.299065 
L 110.956697 144.839765 
L 116.622431 167.212857 
L 122.288164 179.509151 
L 127.953897 210.365601 
L 133.619631 233.507993 
L 139.285364 243.353188 
L 144.951098 256.648663 
L 150.616831 252.986472 
L 156.282564 261.07745 
L 161.948298 256.472759 
L 167.614031 249.496983 
L 173.279765 249.937813 
L 178.945498 240.714513 
L 184.611231 248.847264 
L 190.276965 246.133304 
L 195.942698 245.251372 
L 201.608432 240.305766 
L 207.274165 252.093039 
L 212.939898 246.989448 
L 218.605632 235.832915 
L 224.271365 261.468774 
L 229.937099 278.804616 
L 235.602832 282.564829 
L 241.268565 270.787148 
L 246.934299 273.02736 
L 252.600032 285.412633 
L 258.265766 300.449273 
L 263.931499 307.478626 
L 269.597232 345.117102 
L 275.262966 342.867841 
L 280.928699 371.142746 
L 286.594433 361.951871 
L 292.260166 373.668068 
L 297.925899 379.602908 
L 303.591633 384.999354 
L 309.257366 380.738489 
L 314.9231 382.926419 
L 320.588833 382.030262 
L 326.254566 379.092935 
L 331.9203 373.25976 
L 337.586033 371.80322 
L 343.251767 362.786484 
L 348.9175 352.766755 
L 354.583233 381.436411 
L 360.248967 390.04 
L 365.9147 371.246706 
L 371.580434 374.748291 
L 377.246167 366.063992 
L 382.9119 359.879511 
L 388.577634 347.463326 
L 394.243367 325.335321 
L 399.909101 336.469479 
L 405.574834 333.188422 
L 411.240567 326.138878 
L 416.906301 345.14452 
L 422.572034 332.456985 
L 428.237768 330.36948 
L 433.903501 355.419025 
L 439.569234 339.193367 
L 445.234968 333.701947 
L 450.900701 336.143477 
L 456.566435 329.109632 
L 462.232168 340.969074 
L 467.897901 353.539562 
L 473.563635 327.621443 
L 479.229368 338.723693 
L 484.895102 343.05585 
L 490.560835 328.797495 
L 496.226568 334.085133 
L 501.892302 341.346109 
L 507.558035 356.635089 
L 513.223769 344.741943 
L 518.889502 349.686142 
L 524.555235 357.014369 
L 530.220969 362.021539 
L 535.886702 369.771983 
L 541.552436 368.308165 
L 547.218169 359.72321 
L 552.883902 361.603854 
L 558.549636 378.33342 
L 564.215369 370.728276 
L 569.881103 365.366667 
L 575.546836 375.822942 
L 581.212569 363.046699 
L 586.878303 372.915306 
L 592.544036 373.420229 
L 598.20977 375.717611 
L 603.875503 360.745389 
L 609.541236 359.140235 
L 615.20697 358.206777 
L 620.872703 360.056665 
L 626.538437 356.646128 
" clip-path="url(#pd4eab19184)" style="fill: none; stroke: #800080; stroke-linecap: round"/>
   </g>
   <g id="patch_3">
    <path d="M 65.63 390.04 
L 65.63 57.0062 
" style="fill: none; stroke: #ffffff; stroke-width: 0.8; stroke-linejoin: miter; stroke-linecap: square"/>
   </g>
   <g id="patch_4">
    <path d="M 632.205 390.04 
L 632.205 57.0062 
" style="fill: none; stroke: #ffffff; stroke-width: 0.8; stroke-linejoin: miter; stroke-linecap: square"/>
   </g>
   <g id="patch_5">
    <path d="M 65.63 390.04 
L 632.205 390.04 
" style="fill: none; stroke: #ffffff; stroke-width: 0.8; stroke-linejoin: miter; stroke-linecap: square"/>
   </g>
   <g id="patch_6">
    <path d="M 65.63 57.0062 
L 632.205 57.0062 
" style="fill: none; stroke: #ffffff; stroke-width: 0.8; stroke-linejoin: miter; stroke-linecap: square"/>
   </g>
   <g id="legend_1">
    <g id="line2d_26">
     <path d="M 97.385341 41.274494 
L 105.715341 41.274494 
L 114.045341 41.274494 
" style="fill: none; stroke: #0000ff; stroke-width: 1.5; stroke-linecap: round"/>
    </g>
    <g id="text_22">
     <!-- Mean Reward -->
     <g style="fill: #262626" transform="translate(120.709341 44.189994) scale(0.0833 -0.0833)">
      <defs>
       <path id="DejaVuSans-4d" d="M 628 4666 
L 1569 4666 
L 2759 1491 
L 3956 4666 
L 4897 4666 
L 4897 0 
L 4281 0 
L 4281 4097 
L 3078 897 
L 2444 897 
L 1241 4097 
L 1241 0 
L 628 0 
L 628 4666 
z
" transform="scale(0.015625)"/>
       <path id="DejaVuSans-6e" d="M 3513 2113 
L 3513 0 
L 2938 0 
L 2938 2094 
Q 2938 2591 2744 2837 
Q 2550 3084 2163 3084 
Q 1697 3084 1428 2787 
Q 1159 2491 1159 1978 
L 1159 0 
L 581 0 
L 581 3500 
L 1159 3500 
L 1159 2956 
Q 1366 3272 1645 3428 
Q 1925 3584 2291 3584 
Q 2894 3584 3203 3211 
Q 3513 2838 3513 2113 
z
" transform="scale(0.015625)"/>
       <path id="DejaVuSans-20" transform="scale(0.015625)"/>
      </defs>
      <use xlink:href="#DejaVuSans-4d"/>
      <use xlink:href="#DejaVuSans-65" transform="translate(86.279297 0)"/>
      <use xlink:href="#DejaVuSans-61" transform="translate(147.802734 0)"/>
      <use xlink:href="#DejaVuSans-6e" transform="translate(209.082031 0)"/>
      <use xlink:href="#DejaVuSans-20" transform="translate(272.460938 0)"/>
      <use xlink:href="#DejaVuSans-52" transform="translate(304.248047 0)"/>
      <use xlink:href="#DejaVuSans-65" transform="translate(369.230469 0)"/>
      <use xlink:href="#DejaVuSans-77" transform="translate(430.753906 0)"/>
      <use xlink:href="#DejaVuSans-61" transform="translate(512.541016 0)"/>
      <use xlink:href="#DejaVuSans-72" transform="translate(573.820312 0)"/>
      <use xlink:href="#DejaVuSans-64" transform="translate(613.183594 0)"/>
     </g>
    </g>
    <g id="line2d_27">
     <path d="M 193.736108 41.274494 
L 202.066108 41.274494 
L 210.396108 41.274494 
" style="fill: none; stroke: #008000; stroke-opacity: 0.2; stroke-linecap: round"/>
    </g>
    <g id="text_23">
     <!-- Reward (individual runs) -->
     <g style="fill: #262626" transform="translate(217.060108 44.189994) scale(0.0833 -0.0833)">
      <defs>
       <path id="DejaVuSans-28" d="M 1984 4856 
Q 1566 4138 1362 3434 
Q 1159 2731 1159 2009 
Q 1159 1288 1364 580 
Q 1569 -128 1984 -844 
L 1484 -844 
Q 1016 -109 783 600 
Q 550 1309 550 2009 
Q 550 2706 781 3412 
Q 1013 4119 1484 4856 
L 1984 4856 
z
" transform="scale(0.015625)"/>
       <path id="DejaVuSans-69" d="M 603 3500 
L 1178 3500 
L 1178 0 
L 603 0 
L 603 3500 
z
M 603 4863 
L 1178 4863 
L 1178 4134 
L 603 4134 
L 603 4863 
z
" transform="scale(0.015625)"/>
       <path id="DejaVuSans-76" d="M 191 3500 
L 800 3500 
L 1894 563 
L 2988 3500 
L 3597 3500 
L 2284 0 
L 1503 0 
L 191 3500 
z
" transform="scale(0.015625)"/>
       <path id="DejaVuSans-75" d="M 544 1381 
L 544 3500 
L 1119 3500 
L 1119 1403 
Q 1119 906 1312 657 
Q 1506 409 1894 409 
Q 2359 409 2629 706 
Q 2900 1003 2900 1516 
L 2900 3500 
L 3475 3500 
L 3475 0 
L 2900 0 
L 2900 538 
Q 2691 219 2414 64 
Q 2138 -91 1772 -91 
Q 1169 -91 856 284 
Q 544 659 544 1381 
z
M 1991 3584 
L 1991 3584 
z
" transform="scale(0.015625)"/>
       <path id="DejaVuSans-6c" d="M 603 4863 
L 1178 4863 
L 1178 0 
L 603 0 
L 603 4863 
z
" transform="scale(0.015625)"/>
       <path id="DejaVuSans-29" d="M 513 4856 
L 1013 4856 
Q 1481 4119 1714 3412 
Q 1947 2706 1947 2009 
Q 1947 1309 1714 600 
Q 1481 -109 1013 -844 
L 513 -844 
Q 928 -128 1133 580 
Q 1338 1288 1338 2009 
Q 1338 2731 1133 3434 
Q 928 4138 513 4856 
z
" transform="scale(0.015625)"/>
      </defs>
      <use xlink:href="#DejaVuSans-52"/>
      <use xlink:href="#DejaVuSans-65" transform="translate(64.982422 0)"/>
      <use xlink:href="#DejaVuSans-77" transform="translate(126.505859 0)"/>
      <use xlink:href="#DejaVuSans-61" transform="translate(208.292969 0)"/>
      <use xlink:href="#DejaVuSans-72" transform="translate(269.572266 0)"/>
      <use xlink:href="#DejaVuSans-64" transform="translate(308.935547 0)"/>
      <use xlink:href="#DejaVuSans-20" transform="translate(372.412109 0)"/>
      <use xlink:href="#DejaVuSans-28" transform="translate(404.199219 0)"/>
      <use xlink:href="#DejaVuSans-69" transform="translate(443.212891 0)"/>
      <use xlink:href="#DejaVuSans-6e" transform="translate(470.996094 0)"/>
      <use xlink:href="#DejaVuSans-64" transform="translate(534.375 0)"/>
      <use xlink:href="#DejaVuSans-69" transform="translate(597.851562 0)"/>
      <use xlink:href="#DejaVuSans-76" transform="translate(625.634766 0)"/>
      <use xlink:href="#DejaVuSans-69" transform="translate(684.814453 0)"/>
      <use xlink:href="#DejaVuSans-64" transform="translate(712.597656 0)"/>
      <use xlink:href="#DejaVuSans-75" transform="translate(776.074219 0)"/>
      <use xlink:href="#DejaVuSans-61" transform="translate(839.453125 0)"/>
      <use xlink:href="#DejaVuSans-6c" transform="translate(900.732422 0)"/>
      <use xlink:href="#DejaVuSans-20" transform="translate(928.515625 0)"/>
      <use xlink:href="#DejaVuSans-72" transform="translate(960.302734 0)"/>
      <use xlink:href="#DejaVuSans-75" transform="translate(1001.416016 0)"/>
      <use xlink:href="#DejaVuSans-6e" transform="translate(1064.794922 0)"/>
      <use xlink:href="#DejaVuSans-73" transform="translate(1128.173828 0)"/>
      <use xlink:href="#DejaVuSans-29" transform="translate(1180.273438 0)"/>
     </g>
    </g>
    <g id="line2d_28">
     <path d="M 335.286236 41.274494 
L 343.616236 41.274494 
L 351.946236 41.274494 
" style="fill: none; stroke: #800080; stroke-linecap: round"/>
    </g>
    <g id="text_24">
     <!-- Entropy (normalized) -->
     <g style="fill: #262626" transform="translate(358.610236 44.189994) scale(0.0833 -0.0833)">
      <defs>
       <path id="DejaVuSans-45" d="M 628 4666 
L 3578 4666 
L 3578 4134 
L 1259 4134 
L 1259 2753 
L 3481 2753 
L 3481 2222 
L 1259 2222 
L 1259 531 
L 3634 531 
L 3634 0 
L 628 0 
L 628 4666 
z
" transform="scale(0.015625)"/>
       <path id="DejaVuSans-6f" d="M 1959 3097 
Q 1497 3097 1228 2736 
Q 959 2375 959 1747 
Q 959 1119 1226 758 
Q 1494 397 1959 397 
Q 2419 397 2687 759 
Q 2956 1122 2956 1747 
Q 2956 2369 2687 2733 
Q 2419 3097 1959 3097 
z
M 1959 3584 
Q 2709 3584 3137 3096 
Q 3566 2609 3566 1747 
Q 3566 888 3137 398 
Q 2709 -91 1959 -91 
Q 1206 -91 779 398 
Q 353 888 353 1747 
Q 353 2609 779 3096 
Q 1206 3584 1959 3584 
z
" transform="scale(0.015625)"/>
       <path id="DejaVuSans-79" d="M 2059 -325 
Q 1816 -950 1584 -1140 
Q 1353 -1331 966 -1331 
L 506 -1331 
L 506 -850 
L 844 -850 
Q 1081 -850 1212 -737 
Q 1344 -625 1503 -206 
L 1606 56 
L 191 3500 
L 800 3500 
L 1894 763 
L 2988 3500 
L 3597 3500 
L 2059 -325 
z
" transform="scale(0.015625)"/>
       <path id="DejaVuSans-6d" d="M 3328 2828 
Q 3544 3216 3844 3400 
Q 4144 3584 4550 3584 
Q 5097 3584 5394 3201 
Q 5691 2819 5691 2113 
L 5691 0 
L 5113 0 
L 5113 2094 
Q 5113 2597 4934 2840 
Q 4756 3084 4391 3084 
Q 3944 3084 3684 2787 
Q 3425 2491 3425 1978 
L 3425 0 
L 2847 0 
L 2847 2094 
Q 2847 2600 2669 2842 
Q 2491 3084 2119 3084 
Q 1678 3084 1418 2786 
Q 1159 2488 1159 1978 
L 1159 0 
L 581 0 
L 581 3500 
L 1159 3500 
L 1159 2956 
Q 1356 3278 1631 3431 
Q 1906 3584 2284 3584 
Q 2666 3584 2933 3390 
Q 3200 3197 3328 2828 
z
" transform="scale(0.015625)"/>
       <path id="DejaVuSans-7a" d="M 353 3500 
L 3084 3500 
L 3084 2975 
L 922 459 
L 3084 459 
L 3084 0 
L 275 0 
L 275 525 
L 2438 3041 
L 353 3041 
L 353 3500 
z
" transform="scale(0.015625)"/>
      </defs>
      <use xlink:href="#DejaVuSans-45"/>
      <use xlink:href="#DejaVuSans-6e" transform="translate(63.183594 0)"/>
      <use xlink:href="#DejaVuSans-74" transform="translate(126.5625 0)"/>
      <use xlink:href="#DejaVuSans-72" transform="translate(165.771484 0)"/>
      <use xlink:href="#DejaVuSans-6f" transform="translate(204.634766 0)"/>
      <use xlink:href="#DejaVuSans-70" transform="translate(265.816406 0)"/>
      <use xlink:href="#DejaVuSans-79" transform="translate(329.292969 0)"/>
      <use xlink:href="#DejaVuSans-20" transform="translate(388.472656 0)"/>
      <use xlink:href="#DejaVuSans-28" transform="translate(420.259766 0)"/>
      <use xlink:href="#DejaVuSans-6e" transform="translate(459.273438 0)"/>
      <use xlink:href="#DejaVuSans-6f" transform="translate(522.652344 0)"/>
      <use xlink:href="#DejaVuSans-72" transform="translate(583.833984 0)"/>
      <use xlink:href="#DejaVuSans-6d" transform="translate(623.197266 0)"/>
      <use xlink:href="#DejaVuSans-61" transform="translate(720.609375 0)"/>
      <use xlink:href="#DejaVuSans-6c" transform="translate(781.888672 0)"/>
      <use xlink:href="#DejaVuSans-69" transform="translate(809.671875 0)"/>
      <use xlink:href="#DejaVuSans-7a" transform="translate(837.455078 0)"/>
      <use xlink:href="#DejaVuSans-65" transform="translate(889.945312 0)"/>
      <use xlink:href="#DejaVuSans-64" transform="translate(951.46875 0)"/>
      <use xlink:href="#DejaVuSans-29" transform="translate(1014.945312 0)"/>
     </g>
    </g>
    <g id="patch_7">
     <path d="M 463.065833 44.189994 
L 479.725833 44.189994 
L 479.725833 38.358994 
L 463.065833 38.358994 
z
" style="fill: #0000ff; fill-opacity: 0.1"/>
    </g>
    <g id="text_25">
     <!-- Reward Standard Deviation -->
     <g style="fill: #262626" transform="translate(486.389833 44.189994) scale(0.0833 -0.0833)">
      <defs>
       <path id="DejaVuSans-44" d="M 1259 4147 
L 1259 519 
L 2022 519 
Q 2988 519 3436 956 
Q 3884 1394 3884 2338 
Q 3884 3275 3436 3711 
Q 2988 4147 2022 4147 
L 1259 4147 
z
M 628 4666 
L 1925 4666 
Q 3281 4666 3915 4102 
Q 4550 3538 4550 2338 
Q 4550 1131 3912 565 
Q 3275 0 1925 0 
L 628 0 
L 628 4666 
z
" transform="scale(0.015625)"/>
      </defs>
      <use xlink:href="#DejaVuSans-52"/>
      <use xlink:href="#DejaVuSans-65" transform="translate(64.982422 0)"/>
      <use xlink:href="#DejaVuSans-77" transform="translate(126.505859 0)"/>
      <use xlink:href="#DejaVuSans-61" transform="translate(208.292969 0)"/>
      <use xlink:href="#DejaVuSans-72" transform="translate(269.572266 0)"/>
      <use xlink:href="#DejaVuSans-64" transform="translate(308.935547 0)"/>
      <use xlink:href="#DejaVuSans-20" transform="translate(372.412109 0)"/>
      <use xlink:href="#DejaVuSans-53" transform="translate(404.199219 0)"/>
      <use xlink:href="#DejaVuSans-74" transform="translate(467.675781 0)"/>
      <use xlink:href="#DejaVuSans-61" transform="translate(506.884766 0)"/>
      <use xlink:href="#DejaVuSans-6e" transform="translate(568.164062 0)"/>
      <use xlink:href="#DejaVuSans-64" transform="translate(631.542969 0)"/>
      <use xlink:href="#DejaVuSans-61" transform="translate(695.019531 0)"/>
      <use xlink:href="#DejaVuSans-72" transform="translate(756.298828 0)"/>
      <use xlink:href="#DejaVuSans-64" transform="translate(795.662109 0)"/>
      <use xlink:href="#DejaVuSans-20" transform="translate(859.138672 0)"/>
      <use xlink:href="#DejaVuSans-44" transform="translate(890.925781 0)"/>
      <use xlink:href="#DejaVuSans-65" transform="translate(967.927734 0)"/>
      <use xlink:href="#DejaVuSans-76" transform="translate(1029.451172 0)"/>
      <use xlink:href="#DejaVuSans-69" transform="translate(1088.630859 0)"/>
      <use xlink:href="#DejaVuSans-61" transform="translate(1116.414062 0)"/>
      <use xlink:href="#DejaVuSans-74" transform="translate(1177.693359 0)"/>
      <use xlink:href="#DejaVuSans-69" transform="translate(1216.902344 0)"/>
      <use xlink:href="#DejaVuSans-6f" transform="translate(1244.685547 0)"/>
      <use xlink:href="#DejaVuSans-6e" transform="translate(1305.867188 0)"/>
     </g>
    </g>
   </g>
  </g>
  <g id="text_26">
   <!-- Rewards: Pendulum-v1 (Discretized) - GNN_K (Noise + Entropy) -->
   <g style="fill: #262626" transform="translate(108.968438 17.758125) scale(0.12 -0.12)">
    <defs>
     <path id="DejaVuSans-Bold-52" d="M 2297 2597 
Q 2675 2597 2839 2737 
Q 3003 2878 3003 3200 
Q 3003 3519 2839 3656 
Q 2675 3794 2297 3794 
L 1791 3794 
L 1791 2597 
L 2297 2597 
z
M 1791 1766 
L 1791 0 
L 588 0 
L 588 4666 
L 2425 4666 
Q 3347 4666 3776 4356 
Q 4206 4047 4206 3378 
Q 4206 2916 3982 2619 
Q 3759 2322 3309 2181 
Q 3556 2125 3751 1926 
Q 3947 1728 4147 1325 
L 4800 0 
L 3519 0 
L 2950 1159 
Q 2778 1509 2601 1637 
Q 2425 1766 2131 1766 
L 1791 1766 
z
" transform="scale(0.015625)"/>
     <path id="DejaVuSans-Bold-65" d="M 4031 1759 
L 4031 1441 
L 1416 1441 
Q 1456 1047 1700 850 
Q 1944 653 2381 653 
Q 2734 653 3104 758 
Q 3475 863 3866 1075 
L 3866 213 
Q 3469 63 3072 -14 
Q 2675 -91 2278 -91 
Q 1328 -91 801 392 
Q 275 875 275 1747 
Q 275 2603 792 3093 
Q 1309 3584 2216 3584 
Q 3041 3584 3536 3087 
Q 4031 2591 4031 1759 
z
M 2881 2131 
Q 2881 2450 2695 2645 
Q 2509 2841 2209 2841 
Q 1884 2841 1681 2658 
Q 1478 2475 1428 2131 
L 2881 2131 
z
" transform="scale(0.015625)"/>
     <path id="DejaVuSans-Bold-77" d="M 225 3500 
L 1313 3500 
L 1900 1088 
L 2491 3500 
L 3425 3500 
L 4013 1113 
L 4603 3500 
L 5691 3500 
L 4769 0 
L 3547 0 
L 2956 2406 
L 2369 0 
L 1147 0 
L 225 3500 
z
" transform="scale(0.015625)"/>
     <path id="DejaVuSans-Bold-61" d="M 2106 1575 
Q 1756 1575 1579 1456 
Q 1403 1338 1403 1106 
Q 1403 894 1545 773 
Q 1688 653 1941 653 
Q 2256 653 2472 879 
Q 2688 1106 2688 1447 
L 2688 1575 
L 2106 1575 
z
M 3816 1997 
L 3816 0 
L 2688 0 
L 2688 519 
Q 2463 200 2181 54 
Q 1900 -91 1497 -91 
Q 953 -91 614 226 
Q 275 544 275 1050 
Q 275 1666 698 1953 
Q 1122 2241 2028 2241 
L 2688 2241 
L 2688 2328 
Q 2688 2594 2478 2717 
Q 2269 2841 1825 2841 
Q 1466 2841 1156 2769 
Q 847 2697 581 2553 
L 581 3406 
Q 941 3494 1303 3539 
Q 1666 3584 2028 3584 
Q 2975 3584 3395 3211 
Q 3816 2838 3816 1997 
z
" transform="scale(0.015625)"/>
     <path id="DejaVuSans-Bold-72" d="M 3138 2547 
Q 2991 2616 2845 2648 
Q 2700 2681 2553 2681 
Q 2122 2681 1889 2404 
Q 1656 2128 1656 1613 
L 1656 0 
L 538 0 
L 538 3500 
L 1656 3500 
L 1656 2925 
Q 1872 3269 2151 3426 
Q 2431 3584 2822 3584 
Q 2878 3584 2943 3579 
Q 3009 3575 3134 3559 
L 3138 2547 
z
" transform="scale(0.015625)"/>
     <path id="DejaVuSans-Bold-64" d="M 2919 2988 
L 2919 4863 
L 4044 4863 
L 4044 0 
L 2919 0 
L 2919 506 
Q 2688 197 2409 53 
Q 2131 -91 1766 -91 
Q 1119 -91 703 423 
Q 288 938 288 1747 
Q 288 2556 703 3070 
Q 1119 3584 1766 3584 
Q 2128 3584 2408 3439 
Q 2688 3294 2919 2988 
z
M 2181 722 
Q 2541 722 2730 984 
Q 2919 1247 2919 1747 
Q 2919 2247 2730 2509 
Q 2541 2772 2181 2772 
Q 1825 2772 1636 2509 
Q 1447 2247 1447 1747 
Q 1447 1247 1636 984 
Q 1825 722 2181 722 
z
" transform="scale(0.015625)"/>
     <path id="DejaVuSans-Bold-73" d="M 3272 3391 
L 3272 2541 
Q 2913 2691 2578 2766 
Q 2244 2841 1947 2841 
Q 1628 2841 1473 2761 
Q 1319 2681 1319 2516 
Q 1319 2381 1436 2309 
Q 1553 2238 1856 2203 
L 2053 2175 
Q 2913 2066 3209 1816 
Q 3506 1566 3506 1031 
Q 3506 472 3093 190 
Q 2681 -91 1863 -91 
Q 1516 -91 1145 -36 
Q 775 19 384 128 
L 384 978 
Q 719 816 1070 734 
Q 1422 653 1784 653 
Q 2113 653 2278 743 
Q 2444 834 2444 1013 
Q 2444 1163 2330 1236 
Q 2216 1309 1875 1350 
L 1678 1375 
Q 931 1469 631 1722 
Q 331 1975 331 2491 
Q 331 3047 712 3315 
Q 1094 3584 1881 3584 
Q 2191 3584 2531 3537 
Q 2872 3491 3272 3391 
z
" transform="scale(0.015625)"/>
     <path id="DejaVuSans-Bold-3a" d="M 716 3500 
L 1844 3500 
L 1844 2291 
L 716 2291 
L 716 3500 
z
M 716 1209 
L 1844 1209 
L 1844 0 
L 716 0 
L 716 1209 
z
" transform="scale(0.015625)"/>
     <path id="DejaVuSans-Bold-20" transform="scale(0.015625)"/>
     <path id="DejaVuSans-Bold-50" d="M 588 4666 
L 2584 4666 
Q 3475 4666 3951 4270 
Q 4428 3875 4428 3144 
Q 4428 2409 3951 2014 
Q 3475 1619 2584 1619 
L 1791 1619 
L 1791 0 
L 588 0 
L 588 4666 
z
M 1791 3794 
L 1791 2491 
L 2456 2491 
Q 2806 2491 2997 2661 
Q 3188 2831 3188 3144 
Q 3188 3456 2997 3625 
Q 2806 3794 2456 3794 
L 1791 3794 
z
" transform="scale(0.015625)"/>
     <path id="DejaVuSans-Bold-6e" d="M 4056 2131 
L 4056 0 
L 2931 0 
L 2931 347 
L 2931 1631 
Q 2931 2084 2911 2256 
Q 2891 2428 2841 2509 
Q 2775 2619 2662 2680 
Q 2550 2741 2406 2741 
Q 2056 2741 1856 2470 
Q 1656 2200 1656 1722 
L 1656 0 
L 538 0 
L 538 3500 
L 1656 3500 
L 1656 2988 
Q 1909 3294 2193 3439 
Q 2478 3584 2822 3584 
Q 3428 3584 3742 3212 
Q 4056 2841 4056 2131 
z
" transform="scale(0.015625)"/>
     <path id="DejaVuSans-Bold-75" d="M 500 1363 
L 500 3500 
L 1625 3500 
L 1625 3150 
Q 1625 2866 1622 2436 
Q 1619 2006 1619 1863 
Q 1619 1441 1641 1255 
Q 1663 1069 1716 984 
Q 1784 875 1895 815 
Q 2006 756 2150 756 
Q 2500 756 2700 1025 
Q 2900 1294 2900 1772 
L 2900 3500 
L 4019 3500 
L 4019 0 
L 2900 0 
L 2900 506 
Q 2647 200 2364 54 
Q 2081 -91 1741 -91 
Q 1134 -91 817 281 
Q 500 653 500 1363 
z
" transform="scale(0.015625)"/>
     <path id="DejaVuSans-Bold-6c" d="M 538 4863 
L 1656 4863 
L 1656 0 
L 538 0 
L 538 4863 
z
" transform="scale(0.015625)"/>
     <path id="DejaVuSans-Bold-6d" d="M 3781 2919 
Q 3994 3244 4286 3414 
Q 4578 3584 4928 3584 
Q 5531 3584 5847 3212 
Q 6163 2841 6163 2131 
L 6163 0 
L 5038 0 
L 5038 1825 
Q 5041 1866 5042 1909 
Q 5044 1953 5044 2034 
Q 5044 2406 4934 2573 
Q 4825 2741 4581 2741 
Q 4263 2741 4089 2478 
Q 3916 2216 3909 1719 
L 3909 0 
L 2784 0 
L 2784 1825 
Q 2784 2406 2684 2573 
Q 2584 2741 2328 2741 
Q 2006 2741 1831 2477 
Q 1656 2213 1656 1722 
L 1656 0 
L 531 0 
L 531 3500 
L 1656 3500 
L 1656 2988 
Q 1863 3284 2130 3434 
Q 2397 3584 2719 3584 
Q 3081 3584 3359 3409 
Q 3638 3234 3781 2919 
z
" transform="scale(0.015625)"/>
     <path id="DejaVuSans-Bold-2d" d="M 347 2297 
L 2309 2297 
L 2309 1388 
L 347 1388 
L 347 2297 
z
" transform="scale(0.015625)"/>
     <path id="DejaVuSans-Bold-76" d="M 97 3500 
L 1216 3500 
L 2088 1081 
L 2956 3500 
L 4078 3500 
L 2700 0 
L 1472 0 
L 97 3500 
z
" transform="scale(0.015625)"/>
     <path id="DejaVuSans-Bold-31" d="M 750 831 
L 1813 831 
L 1813 3847 
L 722 3622 
L 722 4441 
L 1806 4666 
L 2950 4666 
L 2950 831 
L 4013 831 
L 4013 0 
L 750 0 
L 750 831 
z
" transform="scale(0.015625)"/>
     <path id="DejaVuSans-Bold-28" d="M 2413 -844 
L 1484 -844 
Q 1006 -72 778 623 
Q 550 1319 550 2003 
Q 550 2688 779 3389 
Q 1009 4091 1484 4856 
L 2413 4856 
Q 2013 4116 1813 3408 
Q 1613 2700 1613 2009 
Q 1613 1319 1811 609 
Q 2009 -100 2413 -844 
z
" transform="scale(0.015625)"/>
     <path id="DejaVuSans-Bold-44" d="M 1791 3756 
L 1791 909 
L 2222 909 
Q 2959 909 3348 1275 
Q 3738 1641 3738 2338 
Q 3738 3031 3350 3393 
Q 2963 3756 2222 3756 
L 1791 3756 
z
M 588 4666 
L 1856 4666 
Q 2919 4666 3439 4514 
Q 3959 4363 4331 4000 
Q 4659 3684 4818 3271 
Q 4978 2859 4978 2338 
Q 4978 1809 4818 1395 
Q 4659 981 4331 666 
Q 3956 303 3431 151 
Q 2906 0 1856 0 
L 588 0 
L 588 4666 
z
" transform="scale(0.015625)"/>
     <path id="DejaVuSans-Bold-69" d="M 538 3500 
L 1656 3500 
L 1656 0 
L 538 0 
L 538 3500 
z
M 538 4863 
L 1656 4863 
L 1656 3950 
L 538 3950 
L 538 4863 
z
" transform="scale(0.015625)"/>
     <path id="DejaVuSans-Bold-63" d="M 3366 3391 
L 3366 2478 
Q 3138 2634 2908 2709 
Q 2678 2784 2431 2784 
Q 1963 2784 1702 2511 
Q 1441 2238 1441 1747 
Q 1441 1256 1702 982 
Q 1963 709 2431 709 
Q 2694 709 2930 787 
Q 3166 866 3366 1019 
L 3366 103 
Q 3103 6 2833 -42 
Q 2563 -91 2291 -91 
Q 1344 -91 809 395 
Q 275 881 275 1747 
Q 275 2613 809 3098 
Q 1344 3584 2291 3584 
Q 2566 3584 2833 3536 
Q 3100 3488 3366 3391 
z
" transform="scale(0.015625)"/>
     <path id="DejaVuSans-Bold-74" d="M 1759 4494 
L 1759 3500 
L 2913 3500 
L 2913 2700 
L 1759 2700 
L 1759 1216 
Q 1759 972 1856 886 
Q 1953 800 2241 800 
L 2816 800 
L 2816 0 
L 1856 0 
Q 1194 0 917 276 
Q 641 553 641 1216 
L 641 2700 
L 84 2700 
L 84 3500 
L 641 3500 
L 641 4494 
L 1759 4494 
z
" transform="scale(0.015625)"/>
     <path id="DejaVuSans-Bold-7a" d="M 366 3500 
L 3419 3500 
L 3419 2719 
L 1575 800 
L 3419 800 
L 3419 0 
L 288 0 
L 288 781 
L 2131 2700 
L 366 2700 
L 366 3500 
z
" transform="scale(0.015625)"/>
     <path id="DejaVuSans-Bold-29" d="M 513 -844 
Q 913 -100 1113 609 
Q 1313 1319 1313 2009 
Q 1313 2700 1113 3408 
Q 913 4116 513 4856 
L 1441 4856 
Q 1916 4091 2145 3389 
Q 2375 2688 2375 2003 
Q 2375 1319 2147 623 
Q 1919 -72 1441 -844 
L 513 -844 
z
" transform="scale(0.015625)"/>
     <path id="DejaVuSans-Bold-47" d="M 4781 347 
Q 4331 128 3847 18 
Q 3363 -91 2847 -91 
Q 1681 -91 1000 561 
Q 319 1213 319 2328 
Q 319 3456 1012 4103 
Q 1706 4750 2913 4750 
Q 3378 4750 3804 4662 
Q 4231 4575 4609 4403 
L 4609 3438 
Q 4219 3659 3833 3768 
Q 3447 3878 3059 3878 
Q 2341 3878 1952 3476 
Q 1563 3075 1563 2328 
Q 1563 1588 1938 1184 
Q 2313 781 3003 781 
Q 3191 781 3352 804 
Q 3513 828 3641 878 
L 3641 1784 
L 2906 1784 
L 2906 2591 
L 4781 2591 
L 4781 347 
z
" transform="scale(0.015625)"/>
     <path id="DejaVuSans-Bold-4e" d="M 588 4666 
L 1931 4666 
L 3628 1466 
L 3628 4666 
L 4769 4666 
L 4769 0 
L 3425 0 
L 1728 3200 
L 1728 0 
L 588 0 
L 588 4666 
z
" transform="scale(0.015625)"/>
     <path id="DejaVuSans-Bold-5f" d="M 3200 -916 
L 3200 -1509 
L 0 -1509 
L 0 -916 
L 3200 -916 
z
" transform="scale(0.015625)"/>
     <path id="DejaVuSans-Bold-4b" d="M 588 4666 
L 1791 4666 
L 1791 2963 
L 3525 4666 
L 4922 4666 
L 2675 2456 
L 5153 0 
L 3647 0 
L 1791 1838 
L 1791 0 
L 588 0 
L 588 4666 
z
" transform="scale(0.015625)"/>
     <path id="DejaVuSans-Bold-6f" d="M 2203 2784 
Q 1831 2784 1636 2517 
Q 1441 2250 1441 1747 
Q 1441 1244 1636 976 
Q 1831 709 2203 709 
Q 2569 709 2762 976 
Q 2956 1244 2956 1747 
Q 2956 2250 2762 2517 
Q 2569 2784 2203 2784 
z
M 2203 3584 
Q 3106 3584 3614 3096 
Q 4122 2609 4122 1747 
Q 4122 884 3614 396 
Q 3106 -91 2203 -91 
Q 1297 -91 786 396 
Q 275 884 275 1747 
Q 275 2609 786 3096 
Q 1297 3584 2203 3584 
z
" transform="scale(0.015625)"/>
     <path id="DejaVuSans-Bold-2b" d="M 3053 4013 
L 3053 2375 
L 4684 2375 
L 4684 1638 
L 3053 1638 
L 3053 0 
L 2309 0 
L 2309 1638 
L 678 1638 
L 678 2375 
L 2309 2375 
L 2309 4013 
L 3053 4013 
z
" transform="scale(0.015625)"/>
     <path id="DejaVuSans-Bold-45" d="M 588 4666 
L 3834 4666 
L 3834 3756 
L 1791 3756 
L 1791 2888 
L 3713 2888 
L 3713 1978 
L 1791 1978 
L 1791 909 
L 3903 909 
L 3903 0 
L 588 0 
L 588 4666 
z
" transform="scale(0.015625)"/>
     <path id="DejaVuSans-Bold-70" d="M 1656 506 
L 1656 -1331 
L 538 -1331 
L 538 3500 
L 1656 3500 
L 1656 2988 
Q 1888 3294 2169 3439 
Q 2450 3584 2816 3584 
Q 3463 3584 3878 3070 
Q 4294 2556 4294 1747 
Q 4294 938 3878 423 
Q 3463 -91 2816 -91 
Q 2450 -91 2169 54 
Q 1888 200 1656 506 
z
M 2400 2772 
Q 2041 2772 1848 2508 
Q 1656 2244 1656 1747 
Q 1656 1250 1848 986 
Q 2041 722 2400 722 
Q 2759 722 2948 984 
Q 3138 1247 3138 1747 
Q 3138 2247 2948 2509 
Q 2759 2772 2400 2772 
z
" transform="scale(0.015625)"/>
     <path id="DejaVuSans-Bold-79" d="M 78 3500 
L 1197 3500 
L 2138 1125 
L 2938 3500 
L 4056 3500 
L 2584 -331 
Q 2363 -916 2067 -1148 
Q 1772 -1381 1288 -1381 
L 641 -1381 
L 641 -647 
L 991 -647 
Q 1275 -647 1404 -556 
Q 1534 -466 1606 -231 
L 1638 -134 
L 78 3500 
z
" transform="scale(0.015625)"/>
    </defs>
    <use xlink:href="#DejaVuSans-Bold-52"/>
    <use xlink:href="#DejaVuSans-Bold-65" transform="translate(77.001953 0)"/>
    <use xlink:href="#DejaVuSans-Bold-77" transform="translate(144.824219 0)"/>
    <use xlink:href="#DejaVuSans-Bold-61" transform="translate(237.207031 0)"/>
    <use xlink:href="#DejaVuSans-Bold-72" transform="translate(304.6875 0)"/>
    <use xlink:href="#DejaVuSans-Bold-64" transform="translate(354.003906 0)"/>
    <use xlink:href="#DejaVuSans-Bold-73" transform="translate(425.585938 0)"/>
    <use xlink:href="#DejaVuSans-Bold-3a" transform="translate(485.107422 0)"/>
    <use xlink:href="#DejaVuSans-Bold-20" transform="translate(525.097656 0)"/>
    <use xlink:href="#DejaVuSans-Bold-50" transform="translate(559.912109 0)"/>
    <use xlink:href="#DejaVuSans-Bold-65" transform="translate(633.203125 0)"/>
    <use xlink:href="#DejaVuSans-Bold-6e" transform="translate(701.025391 0)"/>
    <use xlink:href="#DejaVuSans-Bold-64" transform="translate(772.216797 0)"/>
    <use xlink:href="#DejaVuSans-Bold-75" transform="translate(843.798828 0)"/>
    <use xlink:href="#DejaVuSans-Bold-6c" transform="translate(914.990234 0)"/>
    <use xlink:href="#DejaVuSans-Bold-75" transform="translate(949.267578 0)"/>
    <use xlink:href="#DejaVuSans-Bold-6d" transform="translate(1020.458984 0)"/>
    <use xlink:href="#DejaVuSans-Bold-2d" transform="translate(1124.658203 0)"/>
    <use xlink:href="#DejaVuSans-Bold-76" transform="translate(1166.162109 0)"/>
    <use xlink:href="#DejaVuSans-Bold-31" transform="translate(1231.347656 0)"/>
    <use xlink:href="#DejaVuSans-Bold-20" transform="translate(1300.927734 0)"/>
    <use xlink:href="#DejaVuSans-Bold-28" transform="translate(1335.742188 0)"/>
    <use xlink:href="#DejaVuSans-Bold-44" transform="translate(1381.445312 0)"/>
    <use xlink:href="#DejaVuSans-Bold-69" transform="translate(1464.453125 0)"/>
    <use xlink:href="#DejaVuSans-Bold-73" transform="translate(1498.730469 0)"/>
    <use xlink:href="#DejaVuSans-Bold-63" transform="translate(1558.251953 0)"/>
    <use xlink:href="#DejaVuSans-Bold-72" transform="translate(1617.529297 0)"/>
    <use xlink:href="#DejaVuSans-Bold-65" transform="translate(1666.845703 0)"/>
    <use xlink:href="#DejaVuSans-Bold-74" transform="translate(1734.667969 0)"/>
    <use xlink:href="#DejaVuSans-Bold-69" transform="translate(1782.470703 0)"/>
    <use xlink:href="#DejaVuSans-Bold-7a" transform="translate(1816.748047 0)"/>
    <use xlink:href="#DejaVuSans-Bold-65" transform="translate(1874.951172 0)"/>
    <use xlink:href="#DejaVuSans-Bold-64" transform="translate(1942.773438 0)"/>
    <use xlink:href="#DejaVuSans-Bold-29" transform="translate(2014.355469 0)"/>
    <use xlink:href="#DejaVuSans-Bold-20" transform="translate(2060.058594 0)"/>
    <use xlink:href="#DejaVuSans-Bold-2d" transform="translate(2094.873047 0)"/>
    <use xlink:href="#DejaVuSans-Bold-20" transform="translate(2136.376953 0)"/>
    <use xlink:href="#DejaVuSans-Bold-47" transform="translate(2171.191406 0)"/>
    <use xlink:href="#DejaVuSans-Bold-4e" transform="translate(2253.271484 0)"/>
    <use xlink:href="#DejaVuSans-Bold-4e" transform="translate(2336.962891 0)"/>
    <use xlink:href="#DejaVuSans-Bold-5f" transform="translate(2420.654297 0)"/>
    <use xlink:href="#DejaVuSans-Bold-4b" transform="translate(2470.654297 0)"/>
    <use xlink:href="#DejaVuSans-Bold-20" transform="translate(2548.144531 0)"/>
    <use xlink:href="#DejaVuSans-Bold-28" transform="translate(2582.958984 0)"/>
    <use xlink:href="#DejaVuSans-Bold-4e" transform="translate(2628.662109 0)"/>
    <use xlink:href="#DejaVuSans-Bold-6f" transform="translate(2712.353516 0)"/>
    <use xlink:href="#DejaVuSans-Bold-69" transform="translate(2781.054688 0)"/>
    <use xlink:href="#DejaVuSans-Bold-73" transform="translate(2815.332031 0)"/>
    <use xlink:href="#DejaVuSans-Bold-65" transform="translate(2874.853516 0)"/>
    <use xlink:href="#DejaVuSans-Bold-20" transform="translate(2942.675781 0)"/>
    <use xlink:href="#DejaVuSans-Bold-2b" transform="translate(2977.490234 0)"/>
    <use xlink:href="#DejaVuSans-Bold-20" transform="translate(3061.279297 0)"/>
    <use xlink:href="#DejaVuSans-Bold-45" transform="translate(3096.09375 0)"/>
    <use xlink:href="#DejaVuSans-Bold-6e" transform="translate(3164.404297 0)"/>
    <use xlink:href="#DejaVuSans-Bold-74" transform="translate(3235.595703 0)"/>
    <use xlink:href="#DejaVuSans-Bold-72" transform="translate(3283.398438 0)"/>
    <use xlink:href="#DejaVuSans-Bold-6f" transform="translate(3332.714844 0)"/>
    <use xlink:href="#DejaVuSans-Bold-70" transform="translate(3401.416016 0)"/>
    <use xlink:href="#DejaVuSans-Bold-79" transform="translate(3472.998047 0)"/>
    <use xlink:href="#DejaVuSans-Bold-29" transform="translate(3538.183594 0)"/>
   </g>
  </g>
 </g>
 <defs>
  <clipPath id="pd4eab19184">
   <rect x="65.63" y="57.0062" width="566.575" height="333.0338"/>
  </clipPath>
 </defs>
</svg>
