<?xml version="1.0" encoding="utf-8" standalone="no"?>
<!DOCTYPE svg PUBLIC "-//W3C//DTD SVG 1.1//EN"
  "http://www.w3.org/Graphics/SVG/1.1/DTD/svg11.dtd">
<svg xmlns:xlink="http://www.w3.org/1999/xlink" width="648pt" height="432pt" viewBox="0 0 648 432" xmlns="http://www.w3.org/2000/svg" version="1.1">
 <metadata>
  <rdf:RDF xmlns:dc="http://purl.org/dc/elements/1.1/" xmlns:cc="http://creativecommons.org/ns#" xmlns:rdf="http://www.w3.org/1999/02/22-rdf-syntax-ns#">
   <cc:Work>
    <dc:type rdf:resource="http://purl.org/dc/dcmitype/StillImage"/>
    <dc:date>2025-07-24T00:48:54.951201</dc:date>
    <dc:format>image/svg+xml</dc:format>
    <dc:creator>
     <cc:Agent>
      <dc:title>Matplotlib v3.10.0, https://matplotlib.org/</dc:title>
     </cc:Agent>
    </dc:creator>
   </cc:Work>
  </rdf:RDF>
 </metadata>
 <defs>
  <style type="text/css">*{stroke-linejoin: round; stroke-linecap: butt}</style>
 </defs>
 <g id="figure_1">
  <g id="patch_1">
   <path d="M 0 432 
L 648 432 
L 648 0 
L 0 0 
z
" style="fill: #ffffff"/>
  </g>
  <g id="axes_1">
   <g id="patch_2">
    <path d="M 65.63 390.04 
L 632.205 390.04 
L 632.205 57.0062 
L 65.63 57.0062 
z
" style="fill: #eaeaf2"/>
   </g>
   <g id="matplotlib.axis_1">
    <g id="xtick_1">
     <g id="line2d_1">
      <path d="M 65.63083 390.04 
L 65.63083 57.0062 
" clip-path="url(#p3669dc9fc4)" style="fill: none; stroke: #ffffff; stroke-width: 0.8; stroke-linecap: round"/>
     </g>
     <g id="text_1">
      <!-- 0.00 -->
      <g style="fill: #262626" transform="translate(54.498017 404.638438) scale(0.1 -0.1)">
       <defs>
        <path id="DejaVuSans-30" d="M 2034 4250 
Q 1547 4250 1301 3770 
Q 1056 3291 1056 2328 
Q 1056 1369 1301 889 
Q 1547 409 2034 409 
Q 2525 409 2770 889 
Q 3016 1369 3016 2328 
Q 3016 3291 2770 3770 
Q 2525 4250 2034 4250 
z
M 2034 4750 
Q 2819 4750 3233 4129 
Q 3647 3509 3647 2328 
Q 3647 1150 3233 529 
Q 2819 -91 2034 -91 
Q 1250 -91 836 529 
Q 422 1150 422 2328 
Q 422 3509 836 4129 
Q 1250 4750 2034 4750 
z
" transform="scale(0.015625)"/>
        <path id="DejaVuSans-2e" d="M 684 794 
L 1344 794 
L 1344 0 
L 684 0 
L 684 794 
z
" transform="scale(0.015625)"/>
       </defs>
       <use xlink:href="#DejaVuSans-30"/>
       <use xlink:href="#DejaVuSans-2e" transform="translate(63.623047 0)"/>
       <use xlink:href="#DejaVuSans-30" transform="translate(95.410156 0)"/>
       <use xlink:href="#DejaVuSans-30" transform="translate(159.033203 0)"/>
      </g>
     </g>
    </g>
    <g id="xtick_2">
     <g id="line2d_2">
      <path d="M 134.792615 390.04 
L 134.792615 57.0062 
" clip-path="url(#p3669dc9fc4)" style="fill: none; stroke: #ffffff; stroke-width: 0.8; stroke-linecap: round"/>
     </g>
     <g id="text_2">
      <!-- 0.25 -->
      <g style="fill: #262626" transform="translate(123.659802 404.638438) scale(0.1 -0.1)">
       <defs>
        <path id="DejaVuSans-32" d="M 1228 531 
L 3431 531 
L 3431 0 
L 469 0 
L 469 531 
Q 828 903 1448 1529 
Q 2069 2156 2228 2338 
Q 2531 2678 2651 2914 
Q 2772 3150 2772 3378 
Q 2772 3750 2511 3984 
Q 2250 4219 1831 4219 
Q 1534 4219 1204 4116 
Q 875 4013 500 3803 
L 500 4441 
Q 881 4594 1212 4672 
Q 1544 4750 1819 4750 
Q 2544 4750 2975 4387 
Q 3406 4025 3406 3419 
Q 3406 3131 3298 2873 
Q 3191 2616 2906 2266 
Q 2828 2175 2409 1742 
Q 1991 1309 1228 531 
z
" transform="scale(0.015625)"/>
        <path id="DejaVuSans-35" d="M 691 4666 
L 3169 4666 
L 3169 4134 
L 1269 4134 
L 1269 2991 
Q 1406 3038 1543 3061 
Q 1681 3084 1819 3084 
Q 2600 3084 3056 2656 
Q 3513 2228 3513 1497 
Q 3513 744 3044 326 
Q 2575 -91 1722 -91 
Q 1428 -91 1123 -41 
Q 819 9 494 109 
L 494 744 
Q 775 591 1075 516 
Q 1375 441 1709 441 
Q 2250 441 2565 725 
Q 2881 1009 2881 1497 
Q 2881 1984 2565 2268 
Q 2250 2553 1709 2553 
Q 1456 2553 1204 2497 
Q 953 2441 691 2322 
L 691 4666 
z
" transform="scale(0.015625)"/>
       </defs>
       <use xlink:href="#DejaVuSans-30"/>
       <use xlink:href="#DejaVuSans-2e" transform="translate(63.623047 0)"/>
       <use xlink:href="#DejaVuSans-32" transform="translate(95.410156 0)"/>
       <use xlink:href="#DejaVuSans-35" transform="translate(159.033203 0)"/>
      </g>
     </g>
    </g>
    <g id="xtick_3">
     <g id="line2d_3">
      <path d="M 203.954399 390.04 
L 203.954399 57.0062 
" clip-path="url(#p3669dc9fc4)" style="fill: none; stroke: #ffffff; stroke-width: 0.8; stroke-linecap: round"/>
     </g>
     <g id="text_3">
      <!-- 0.50 -->
      <g style="fill: #262626" transform="translate(192.821587 404.638438) scale(0.1 -0.1)">
       <use xlink:href="#DejaVuSans-30"/>
       <use xlink:href="#DejaVuSans-2e" transform="translate(63.623047 0)"/>
       <use xlink:href="#DejaVuSans-35" transform="translate(95.410156 0)"/>
       <use xlink:href="#DejaVuSans-30" transform="translate(159.033203 0)"/>
      </g>
     </g>
    </g>
    <g id="xtick_4">
     <g id="line2d_4">
      <path d="M 273.116184 390.04 
L 273.116184 57.0062 
" clip-path="url(#p3669dc9fc4)" style="fill: none; stroke: #ffffff; stroke-width: 0.8; stroke-linecap: round"/>
     </g>
     <g id="text_4">
      <!-- 0.75 -->
      <g style="fill: #262626" transform="translate(261.983371 404.638438) scale(0.1 -0.1)">
       <defs>
        <path id="DejaVuSans-37" d="M 525 4666 
L 3525 4666 
L 3525 4397 
L 1831 0 
L 1172 0 
L 2766 4134 
L 525 4134 
L 525 4666 
z
" transform="scale(0.015625)"/>
       </defs>
       <use xlink:href="#DejaVuSans-30"/>
       <use xlink:href="#DejaVuSans-2e" transform="translate(63.623047 0)"/>
       <use xlink:href="#DejaVuSans-37" transform="translate(95.410156 0)"/>
       <use xlink:href="#DejaVuSans-35" transform="translate(159.033203 0)"/>
      </g>
     </g>
    </g>
    <g id="xtick_5">
     <g id="line2d_5">
      <path d="M 342.277969 390.04 
L 342.277969 57.0062 
" clip-path="url(#p3669dc9fc4)" style="fill: none; stroke: #ffffff; stroke-width: 0.8; stroke-linecap: round"/>
     </g>
     <g id="text_5">
      <!-- 1.00 -->
      <g style="fill: #262626" transform="translate(331.145156 404.638438) scale(0.1 -0.1)">
       <defs>
        <path id="DejaVuSans-31" d="M 794 531 
L 1825 531 
L 1825 4091 
L 703 3866 
L 703 4441 
L 1819 4666 
L 2450 4666 
L 2450 531 
L 3481 531 
L 3481 0 
L 794 0 
L 794 531 
z
" transform="scale(0.015625)"/>
       </defs>
       <use xlink:href="#DejaVuSans-31"/>
       <use xlink:href="#DejaVuSans-2e" transform="translate(63.623047 0)"/>
       <use xlink:href="#DejaVuSans-30" transform="translate(95.410156 0)"/>
       <use xlink:href="#DejaVuSans-30" transform="translate(159.033203 0)"/>
      </g>
     </g>
    </g>
    <g id="xtick_6">
     <g id="line2d_6">
      <path d="M 411.439753 390.04 
L 411.439753 57.0062 
" clip-path="url(#p3669dc9fc4)" style="fill: none; stroke: #ffffff; stroke-width: 0.8; stroke-linecap: round"/>
     </g>
     <g id="text_6">
      <!-- 1.25 -->
      <g style="fill: #262626" transform="translate(400.306941 404.638438) scale(0.1 -0.1)">
       <use xlink:href="#DejaVuSans-31"/>
       <use xlink:href="#DejaVuSans-2e" transform="translate(63.623047 0)"/>
       <use xlink:href="#DejaVuSans-32" transform="translate(95.410156 0)"/>
       <use xlink:href="#DejaVuSans-35" transform="translate(159.033203 0)"/>
      </g>
     </g>
    </g>
    <g id="xtick_7">
     <g id="line2d_7">
      <path d="M 480.601538 390.04 
L 480.601538 57.0062 
" clip-path="url(#p3669dc9fc4)" style="fill: none; stroke: #ffffff; stroke-width: 0.8; stroke-linecap: round"/>
     </g>
     <g id="text_7">
      <!-- 1.50 -->
      <g style="fill: #262626" transform="translate(469.468726 404.638438) scale(0.1 -0.1)">
       <use xlink:href="#DejaVuSans-31"/>
       <use xlink:href="#DejaVuSans-2e" transform="translate(63.623047 0)"/>
       <use xlink:href="#DejaVuSans-35" transform="translate(95.410156 0)"/>
       <use xlink:href="#DejaVuSans-30" transform="translate(159.033203 0)"/>
      </g>
     </g>
    </g>
    <g id="xtick_8">
     <g id="line2d_8">
      <path d="M 549.763323 390.04 
L 549.763323 57.0062 
" clip-path="url(#p3669dc9fc4)" style="fill: none; stroke: #ffffff; stroke-width: 0.8; stroke-linecap: round"/>
     </g>
     <g id="text_8">
      <!-- 1.75 -->
      <g style="fill: #262626" transform="translate(538.63051 404.638438) scale(0.1 -0.1)">
       <use xlink:href="#DejaVuSans-31"/>
       <use xlink:href="#DejaVuSans-2e" transform="translate(63.623047 0)"/>
       <use xlink:href="#DejaVuSans-37" transform="translate(95.410156 0)"/>
       <use xlink:href="#DejaVuSans-35" transform="translate(159.033203 0)"/>
      </g>
     </g>
    </g>
    <g id="xtick_9">
     <g id="line2d_9">
      <path d="M 618.925107 390.04 
L 618.925107 57.0062 
" clip-path="url(#p3669dc9fc4)" style="fill: none; stroke: #ffffff; stroke-width: 0.8; stroke-linecap: round"/>
     </g>
     <g id="text_9">
      <!-- 2.00 -->
      <g style="fill: #262626" transform="translate(607.792295 404.638438) scale(0.1 -0.1)">
       <use xlink:href="#DejaVuSans-32"/>
       <use xlink:href="#DejaVuSans-2e" transform="translate(63.623047 0)"/>
       <use xlink:href="#DejaVuSans-30" transform="translate(95.410156 0)"/>
       <use xlink:href="#DejaVuSans-30" transform="translate(159.033203 0)"/>
      </g>
     </g>
    </g>
    <g id="text_10">
     <!-- Steps -->
     <g style="fill: #262626" transform="translate(334.927656 418.316562) scale(0.1 -0.1)">
      <defs>
       <path id="DejaVuSans-53" d="M 3425 4513 
L 3425 3897 
Q 3066 4069 2747 4153 
Q 2428 4238 2131 4238 
Q 1616 4238 1336 4038 
Q 1056 3838 1056 3469 
Q 1056 3159 1242 3001 
Q 1428 2844 1947 2747 
L 2328 2669 
Q 3034 2534 3370 2195 
Q 3706 1856 3706 1288 
Q 3706 609 3251 259 
Q 2797 -91 1919 -91 
Q 1588 -91 1214 -16 
Q 841 59 441 206 
L 441 856 
Q 825 641 1194 531 
Q 1563 422 1919 422 
Q 2459 422 2753 634 
Q 3047 847 3047 1241 
Q 3047 1584 2836 1778 
Q 2625 1972 2144 2069 
L 1759 2144 
Q 1053 2284 737 2584 
Q 422 2884 422 3419 
Q 422 4038 858 4394 
Q 1294 4750 2059 4750 
Q 2388 4750 2728 4690 
Q 3069 4631 3425 4513 
z
" transform="scale(0.015625)"/>
       <path id="DejaVuSans-74" d="M 1172 4494 
L 1172 3500 
L 2356 3500 
L 2356 3053 
L 1172 3053 
L 1172 1153 
Q 1172 725 1289 603 
Q 1406 481 1766 481 
L 2356 481 
L 2356 0 
L 1766 0 
Q 1100 0 847 248 
Q 594 497 594 1153 
L 594 3053 
L 172 3053 
L 172 3500 
L 594 3500 
L 594 4494 
L 1172 4494 
z
" transform="scale(0.015625)"/>
       <path id="DejaVuSans-65" d="M 3597 1894 
L 3597 1613 
L 953 1613 
Q 991 1019 1311 708 
Q 1631 397 2203 397 
Q 2534 397 2845 478 
Q 3156 559 3463 722 
L 3463 178 
Q 3153 47 2828 -22 
Q 2503 -91 2169 -91 
Q 1331 -91 842 396 
Q 353 884 353 1716 
Q 353 2575 817 3079 
Q 1281 3584 2069 3584 
Q 2775 3584 3186 3129 
Q 3597 2675 3597 1894 
z
M 3022 2063 
Q 3016 2534 2758 2815 
Q 2500 3097 2075 3097 
Q 1594 3097 1305 2825 
Q 1016 2553 972 2059 
L 3022 2063 
z
" transform="scale(0.015625)"/>
       <path id="DejaVuSans-70" d="M 1159 525 
L 1159 -1331 
L 581 -1331 
L 581 3500 
L 1159 3500 
L 1159 2969 
Q 1341 3281 1617 3432 
Q 1894 3584 2278 3584 
Q 2916 3584 3314 3078 
Q 3713 2572 3713 1747 
Q 3713 922 3314 415 
Q 2916 -91 2278 -91 
Q 1894 -91 1617 61 
Q 1341 213 1159 525 
z
M 3116 1747 
Q 3116 2381 2855 2742 
Q 2594 3103 2138 3103 
Q 1681 3103 1420 2742 
Q 1159 2381 1159 1747 
Q 1159 1113 1420 752 
Q 1681 391 2138 391 
Q 2594 391 2855 752 
Q 3116 1113 3116 1747 
z
" transform="scale(0.015625)"/>
       <path id="DejaVuSans-73" d="M 2834 3397 
L 2834 2853 
Q 2591 2978 2328 3040 
Q 2066 3103 1784 3103 
Q 1356 3103 1142 2972 
Q 928 2841 928 2578 
Q 928 2378 1081 2264 
Q 1234 2150 1697 2047 
L 1894 2003 
Q 2506 1872 2764 1633 
Q 3022 1394 3022 966 
Q 3022 478 2636 193 
Q 2250 -91 1575 -91 
Q 1294 -91 989 -36 
Q 684 19 347 128 
L 347 722 
Q 666 556 975 473 
Q 1284 391 1588 391 
Q 1994 391 2212 530 
Q 2431 669 2431 922 
Q 2431 1156 2273 1281 
Q 2116 1406 1581 1522 
L 1381 1569 
Q 847 1681 609 1914 
Q 372 2147 372 2553 
Q 372 3047 722 3315 
Q 1072 3584 1716 3584 
Q 2034 3584 2315 3537 
Q 2597 3491 2834 3397 
z
" transform="scale(0.015625)"/>
      </defs>
      <use xlink:href="#DejaVuSans-53"/>
      <use xlink:href="#DejaVuSans-74" transform="translate(63.476562 0)"/>
      <use xlink:href="#DejaVuSans-65" transform="translate(102.685547 0)"/>
      <use xlink:href="#DejaVuSans-70" transform="translate(164.208984 0)"/>
      <use xlink:href="#DejaVuSans-73" transform="translate(227.685547 0)"/>
     </g>
    </g>
    <g id="text_11">
     <!-- 1e6 -->
     <g style="fill: #262626" transform="translate(613.326875 417.316562) scale(0.1 -0.1)">
      <defs>
       <path id="DejaVuSans-36" d="M 2113 2584 
Q 1688 2584 1439 2293 
Q 1191 2003 1191 1497 
Q 1191 994 1439 701 
Q 1688 409 2113 409 
Q 2538 409 2786 701 
Q 3034 994 3034 1497 
Q 3034 2003 2786 2293 
Q 2538 2584 2113 2584 
z
M 3366 4563 
L 3366 3988 
Q 3128 4100 2886 4159 
Q 2644 4219 2406 4219 
Q 1781 4219 1451 3797 
Q 1122 3375 1075 2522 
Q 1259 2794 1537 2939 
Q 1816 3084 2150 3084 
Q 2853 3084 3261 2657 
Q 3669 2231 3669 1497 
Q 3669 778 3244 343 
Q 2819 -91 2113 -91 
Q 1303 -91 875 529 
Q 447 1150 447 2328 
Q 447 3434 972 4092 
Q 1497 4750 2381 4750 
Q 2619 4750 2861 4703 
Q 3103 4656 3366 4563 
z
" transform="scale(0.015625)"/>
      </defs>
      <use xlink:href="#DejaVuSans-31"/>
      <use xlink:href="#DejaVuSans-65" transform="translate(63.623047 0)"/>
      <use xlink:href="#DejaVuSans-36" transform="translate(125.146484 0)"/>
     </g>
    </g>
   </g>
   <g id="matplotlib.axis_2">
    <g id="ytick_1">
     <g id="line2d_10">
      <path d="M 65.63 390.04 
L 632.205 390.04 
" clip-path="url(#p3669dc9fc4)" style="fill: none; stroke: #ffffff; stroke-width: 0.8; stroke-linecap: round"/>
     </g>
     <g id="text_12">
      <!-- −1600 -->
      <g style="fill: #262626" transform="translate(24.800313 393.839219) scale(0.1 -0.1)">
       <defs>
        <path id="DejaVuSans-2212" d="M 678 2272 
L 4684 2272 
L 4684 1741 
L 678 1741 
L 678 2272 
z
" transform="scale(0.015625)"/>
       </defs>
       <use xlink:href="#DejaVuSans-2212"/>
       <use xlink:href="#DejaVuSans-31" transform="translate(83.789062 0)"/>
       <use xlink:href="#DejaVuSans-36" transform="translate(147.412109 0)"/>
       <use xlink:href="#DejaVuSans-30" transform="translate(211.035156 0)"/>
       <use xlink:href="#DejaVuSans-30" transform="translate(274.658203 0)"/>
      </g>
     </g>
    </g>
    <g id="ytick_2">
     <g id="line2d_11">
      <path d="M 65.63 348.410775 
L 632.205 348.410775 
" clip-path="url(#p3669dc9fc4)" style="fill: none; stroke: #ffffff; stroke-width: 0.8; stroke-linecap: round"/>
     </g>
     <g id="text_13">
      <!-- −1400 -->
      <g style="fill: #262626" transform="translate(24.800313 352.209994) scale(0.1 -0.1)">
       <defs>
        <path id="DejaVuSans-34" d="M 2419 4116 
L 825 1625 
L 2419 1625 
L 2419 4116 
z
M 2253 4666 
L 3047 4666 
L 3047 1625 
L 3713 1625 
L 3713 1100 
L 3047 1100 
L 3047 0 
L 2419 0 
L 2419 1100 
L 313 1100 
L 313 1709 
L 2253 4666 
z
" transform="scale(0.015625)"/>
       </defs>
       <use xlink:href="#DejaVuSans-2212"/>
       <use xlink:href="#DejaVuSans-31" transform="translate(83.789062 0)"/>
       <use xlink:href="#DejaVuSans-34" transform="translate(147.412109 0)"/>
       <use xlink:href="#DejaVuSans-30" transform="translate(211.035156 0)"/>
       <use xlink:href="#DejaVuSans-30" transform="translate(274.658203 0)"/>
      </g>
     </g>
    </g>
    <g id="ytick_3">
     <g id="line2d_12">
      <path d="M 65.63 306.78155 
L 632.205 306.78155 
" clip-path="url(#p3669dc9fc4)" style="fill: none; stroke: #ffffff; stroke-width: 0.8; stroke-linecap: round"/>
     </g>
     <g id="text_14">
      <!-- −1200 -->
      <g style="fill: #262626" transform="translate(24.800313 310.580769) scale(0.1 -0.1)">
       <use xlink:href="#DejaVuSans-2212"/>
       <use xlink:href="#DejaVuSans-31" transform="translate(83.789062 0)"/>
       <use xlink:href="#DejaVuSans-32" transform="translate(147.412109 0)"/>
       <use xlink:href="#DejaVuSans-30" transform="translate(211.035156 0)"/>
       <use xlink:href="#DejaVuSans-30" transform="translate(274.658203 0)"/>
      </g>
     </g>
    </g>
    <g id="ytick_4">
     <g id="line2d_13">
      <path d="M 65.63 265.152325 
L 632.205 265.152325 
" clip-path="url(#p3669dc9fc4)" style="fill: none; stroke: #ffffff; stroke-width: 0.8; stroke-linecap: round"/>
     </g>
     <g id="text_15">
      <!-- −1000 -->
      <g style="fill: #262626" transform="translate(24.800313 268.951544) scale(0.1 -0.1)">
       <use xlink:href="#DejaVuSans-2212"/>
       <use xlink:href="#DejaVuSans-31" transform="translate(83.789062 0)"/>
       <use xlink:href="#DejaVuSans-30" transform="translate(147.412109 0)"/>
       <use xlink:href="#DejaVuSans-30" transform="translate(211.035156 0)"/>
       <use xlink:href="#DejaVuSans-30" transform="translate(274.658203 0)"/>
      </g>
     </g>
    </g>
    <g id="ytick_5">
     <g id="line2d_14">
      <path d="M 65.63 223.5231 
L 632.205 223.5231 
" clip-path="url(#p3669dc9fc4)" style="fill: none; stroke: #ffffff; stroke-width: 0.8; stroke-linecap: round"/>
     </g>
     <g id="text_16">
      <!-- −800 -->
      <g style="fill: #262626" transform="translate(31.162813 227.322319) scale(0.1 -0.1)">
       <defs>
        <path id="DejaVuSans-38" d="M 2034 2216 
Q 1584 2216 1326 1975 
Q 1069 1734 1069 1313 
Q 1069 891 1326 650 
Q 1584 409 2034 409 
Q 2484 409 2743 651 
Q 3003 894 3003 1313 
Q 3003 1734 2745 1975 
Q 2488 2216 2034 2216 
z
M 1403 2484 
Q 997 2584 770 2862 
Q 544 3141 544 3541 
Q 544 4100 942 4425 
Q 1341 4750 2034 4750 
Q 2731 4750 3128 4425 
Q 3525 4100 3525 3541 
Q 3525 3141 3298 2862 
Q 3072 2584 2669 2484 
Q 3125 2378 3379 2068 
Q 3634 1759 3634 1313 
Q 3634 634 3220 271 
Q 2806 -91 2034 -91 
Q 1263 -91 848 271 
Q 434 634 434 1313 
Q 434 1759 690 2068 
Q 947 2378 1403 2484 
z
M 1172 3481 
Q 1172 3119 1398 2916 
Q 1625 2713 2034 2713 
Q 2441 2713 2670 2916 
Q 2900 3119 2900 3481 
Q 2900 3844 2670 4047 
Q 2441 4250 2034 4250 
Q 1625 4250 1398 4047 
Q 1172 3844 1172 3481 
z
" transform="scale(0.015625)"/>
       </defs>
       <use xlink:href="#DejaVuSans-2212"/>
       <use xlink:href="#DejaVuSans-38" transform="translate(83.789062 0)"/>
       <use xlink:href="#DejaVuSans-30" transform="translate(147.412109 0)"/>
       <use xlink:href="#DejaVuSans-30" transform="translate(211.035156 0)"/>
      </g>
     </g>
    </g>
    <g id="ytick_6">
     <g id="line2d_15">
      <path d="M 65.63 181.893875 
L 632.205 181.893875 
" clip-path="url(#p3669dc9fc4)" style="fill: none; stroke: #ffffff; stroke-width: 0.8; stroke-linecap: round"/>
     </g>
     <g id="text_17">
      <!-- −600 -->
      <g style="fill: #262626" transform="translate(31.162813 185.693094) scale(0.1 -0.1)">
       <use xlink:href="#DejaVuSans-2212"/>
       <use xlink:href="#DejaVuSans-36" transform="translate(83.789062 0)"/>
       <use xlink:href="#DejaVuSans-30" transform="translate(147.412109 0)"/>
       <use xlink:href="#DejaVuSans-30" transform="translate(211.035156 0)"/>
      </g>
     </g>
    </g>
    <g id="ytick_7">
     <g id="line2d_16">
      <path d="M 65.63 140.26465 
L 632.205 140.26465 
" clip-path="url(#p3669dc9fc4)" style="fill: none; stroke: #ffffff; stroke-width: 0.8; stroke-linecap: round"/>
     </g>
     <g id="text_18">
      <!-- −400 -->
      <g style="fill: #262626" transform="translate(31.162813 144.063869) scale(0.1 -0.1)">
       <use xlink:href="#DejaVuSans-2212"/>
       <use xlink:href="#DejaVuSans-34" transform="translate(83.789062 0)"/>
       <use xlink:href="#DejaVuSans-30" transform="translate(147.412109 0)"/>
       <use xlink:href="#DejaVuSans-30" transform="translate(211.035156 0)"/>
      </g>
     </g>
    </g>
    <g id="ytick_8">
     <g id="line2d_17">
      <path d="M 65.63 98.635425 
L 632.205 98.635425 
" clip-path="url(#p3669dc9fc4)" style="fill: none; stroke: #ffffff; stroke-width: 0.8; stroke-linecap: round"/>
     </g>
     <g id="text_19">
      <!-- −200 -->
      <g style="fill: #262626" transform="translate(31.162813 102.434644) scale(0.1 -0.1)">
       <use xlink:href="#DejaVuSans-2212"/>
       <use xlink:href="#DejaVuSans-32" transform="translate(83.789062 0)"/>
       <use xlink:href="#DejaVuSans-30" transform="translate(147.412109 0)"/>
       <use xlink:href="#DejaVuSans-30" transform="translate(211.035156 0)"/>
      </g>
     </g>
    </g>
    <g id="ytick_9">
     <g id="line2d_18">
      <path d="M 65.63 57.0062 
L 632.205 57.0062 
" clip-path="url(#p3669dc9fc4)" style="fill: none; stroke: #ffffff; stroke-width: 0.8; stroke-linecap: round"/>
     </g>
     <g id="text_20">
      <!-- 0 -->
      <g style="fill: #262626" transform="translate(52.2675 60.805419) scale(0.1 -0.1)">
       <use xlink:href="#DejaVuSans-30"/>
      </g>
     </g>
    </g>
    <g id="text_21">
     <!-- Reward -->
     <g style="fill: #262626" transform="translate(18.720625 242.144194) rotate(-90) scale(0.1 -0.1)">
      <defs>
       <path id="DejaVuSans-52" d="M 2841 2188 
Q 3044 2119 3236 1894 
Q 3428 1669 3622 1275 
L 4263 0 
L 3584 0 
L 2988 1197 
Q 2756 1666 2539 1819 
Q 2322 1972 1947 1972 
L 1259 1972 
L 1259 0 
L 628 0 
L 628 4666 
L 2053 4666 
Q 2853 4666 3247 4331 
Q 3641 3997 3641 3322 
Q 3641 2881 3436 2590 
Q 3231 2300 2841 2188 
z
M 1259 4147 
L 1259 2491 
L 2053 2491 
Q 2509 2491 2742 2702 
Q 2975 2913 2975 3322 
Q 2975 3731 2742 3939 
Q 2509 4147 2053 4147 
L 1259 4147 
z
" transform="scale(0.015625)"/>
       <path id="DejaVuSans-77" d="M 269 3500 
L 844 3500 
L 1563 769 
L 2278 3500 
L 2956 3500 
L 3675 769 
L 4391 3500 
L 4966 3500 
L 4050 0 
L 3372 0 
L 2619 2869 
L 1863 0 
L 1184 0 
L 269 3500 
z
" transform="scale(0.015625)"/>
       <path id="DejaVuSans-61" d="M 2194 1759 
Q 1497 1759 1228 1600 
Q 959 1441 959 1056 
Q 959 750 1161 570 
Q 1363 391 1709 391 
Q 2188 391 2477 730 
Q 2766 1069 2766 1631 
L 2766 1759 
L 2194 1759 
z
M 3341 1997 
L 3341 0 
L 2766 0 
L 2766 531 
Q 2569 213 2275 61 
Q 1981 -91 1556 -91 
Q 1019 -91 701 211 
Q 384 513 384 1019 
Q 384 1609 779 1909 
Q 1175 2209 1959 2209 
L 2766 2209 
L 2766 2266 
Q 2766 2663 2505 2880 
Q 2244 3097 1772 3097 
Q 1472 3097 1187 3025 
Q 903 2953 641 2809 
L 641 3341 
Q 956 3463 1253 3523 
Q 1550 3584 1831 3584 
Q 2591 3584 2966 3190 
Q 3341 2797 3341 1997 
z
" transform="scale(0.015625)"/>
       <path id="DejaVuSans-72" d="M 2631 2963 
Q 2534 3019 2420 3045 
Q 2306 3072 2169 3072 
Q 1681 3072 1420 2755 
Q 1159 2438 1159 1844 
L 1159 0 
L 581 0 
L 581 3500 
L 1159 3500 
L 1159 2956 
Q 1341 3275 1631 3429 
Q 1922 3584 2338 3584 
Q 2397 3584 2469 3576 
Q 2541 3569 2628 3553 
L 2631 2963 
z
" transform="scale(0.015625)"/>
       <path id="DejaVuSans-64" d="M 2906 2969 
L 2906 4863 
L 3481 4863 
L 3481 0 
L 2906 0 
L 2906 525 
Q 2725 213 2448 61 
Q 2172 -91 1784 -91 
Q 1150 -91 751 415 
Q 353 922 353 1747 
Q 353 2572 751 3078 
Q 1150 3584 1784 3584 
Q 2172 3584 2448 3432 
Q 2725 3281 2906 2969 
z
M 947 1747 
Q 947 1113 1208 752 
Q 1469 391 1925 391 
Q 2381 391 2643 752 
Q 2906 1113 2906 1747 
Q 2906 2381 2643 2742 
Q 2381 3103 1925 3103 
Q 1469 3103 1208 2742 
Q 947 2381 947 1747 
z
" transform="scale(0.015625)"/>
      </defs>
      <use xlink:href="#DejaVuSans-52"/>
      <use xlink:href="#DejaVuSans-65" transform="translate(64.982422 0)"/>
      <use xlink:href="#DejaVuSans-77" transform="translate(126.505859 0)"/>
      <use xlink:href="#DejaVuSans-61" transform="translate(208.292969 0)"/>
      <use xlink:href="#DejaVuSans-72" transform="translate(269.572266 0)"/>
      <use xlink:href="#DejaVuSans-64" transform="translate(308.935547 0)"/>
     </g>
    </g>
   </g>
   <g id="FillBetweenPolyCollection_1">
    <path d="M 65.63083 297.80612 
L 65.63083 315.593061 
L 71.296563 301.301818 
L 76.962297 299.21274 
L 82.62803 299.908299 
L 88.293764 294.221551 
L 93.959497 298.393961 
L 99.62523 302.41031 
L 105.290964 300.401802 
L 110.956697 301.52045 
L 116.622431 293.425805 
L 122.288164 300.272856 
L 127.953897 301.428645 
L 133.619631 305.679968 
L 139.285364 300.770354 
L 144.951098 293.444222 
L 150.616831 283.46904 
L 156.282564 292.61928 
L 161.948298 278.373169 
L 167.614031 254.601936 
L 173.279765 249.263177 
L 178.945498 240.877967 
L 184.611231 240.006985 
L 190.276965 217.425156 
L 195.942698 224.923239 
L 201.608432 216.989993 
L 207.274165 233.697621 
L 212.939898 218.547823 
L 218.605632 216.632377 
L 224.271365 223.362248 
L 229.937099 213.178377 
L 235.602832 188.801797 
L 241.268565 190.87027 
L 246.934299 183.548454 
L 252.600032 168.251375 
L 258.265766 170.750438 
L 263.931499 161.021106 
L 269.597232 117.275182 
L 275.262966 146.196384 
L 280.928699 112.991017 
L 286.594433 113.742028 
L 292.260166 137.985133 
L 297.925899 115.87854 
L 303.591633 120.977717 
L 309.257366 99.00219 
L 314.9231 116.252804 
L 320.588833 127.452509 
L 326.254566 103.782289 
L 331.9203 105.623842 
L 337.586033 108.64277 
L 343.251767 104.434575 
L 348.9175 100.280724 
L 354.583233 104.966153 
L 360.248967 99.96447 
L 365.9147 99.533599 
L 371.580434 97.787457 
L 377.246167 93.251806 
L 382.9119 107.987067 
L 388.577634 106.321408 
L 394.243367 100.808142 
L 399.909101 98.516387 
L 405.574834 96.829983 
L 411.240567 112.510315 
L 416.906301 96.301904 
L 422.572034 91.335534 
L 428.237768 95.2917 
L 433.903501 114.718404 
L 439.569234 94.688918 
L 445.234968 91.714176 
L 450.900701 96.305083 
L 456.566435 93.560084 
L 462.232168 91.717018 
L 467.897901 96.112499 
L 473.563635 103.976583 
L 479.229368 124.380308 
L 484.895102 96.88143 
L 490.560835 94.039351 
L 496.226568 100.917749 
L 501.892302 90.436128 
L 507.558035 91.802523 
L 513.223769 99.197755 
L 518.889502 88.004358 
L 524.555235 91.915451 
L 530.220969 93.03064 
L 535.886702 92.567309 
L 541.552436 106.997129 
L 547.218169 93.472446 
L 552.883902 94.379699 
L 558.549636 86.711484 
L 564.215369 91.844856 
L 569.881103 92.668606 
L 575.546836 95.969135 
L 581.212569 91.155018 
L 586.878303 91.610014 
L 592.544036 87.896227 
L 598.20977 91.419562 
L 603.875503 100.141171 
L 609.541236 94.256105 
L 615.20697 99.028682 
L 620.872703 97.097976 
L 626.538437 94.822182 
L 626.538437 87.342334 
L 626.538437 87.342334 
L 620.872703 88.666495 
L 615.20697 82.534303 
L 609.541236 86.939805 
L 603.875503 85.053626 
L 598.20977 85.164349 
L 592.544036 85.865486 
L 586.878303 81.962332 
L 581.212569 86.779761 
L 575.546836 88.031453 
L 569.881103 89.122164 
L 564.215369 86.78286 
L 558.549636 82.122788 
L 552.883902 90.1595 
L 547.218169 85.758165 
L 541.552436 84.535811 
L 535.886702 86.277566 
L 530.220969 87.1573 
L 524.555235 86.962054 
L 518.889502 82.594415 
L 513.223769 83.683285 
L 507.558035 86.647657 
L 501.892302 85.988007 
L 496.226568 89.179796 
L 490.560835 82.870087 
L 484.895102 84.186679 
L 479.229368 83.742353 
L 473.563635 85.911244 
L 467.897901 85.946061 
L 462.232168 87.275579 
L 456.566435 81.586395 
L 450.900701 88.07246 
L 445.234968 85.106397 
L 439.569234 84.140761 
L 433.903501 78.103737 
L 428.237768 88.773529 
L 422.572034 87.318646 
L 416.906301 82.376762 
L 411.240567 82.195294 
L 405.574834 86.797265 
L 399.909101 85.29187 
L 394.243367 87.027851 
L 388.577634 91.566614 
L 382.9119 85.806167 
L 377.246167 84.538258 
L 371.580434 88.372436 
L 365.9147 88.664029 
L 360.248967 90.154729 
L 354.583233 88.957291 
L 348.9175 91.473593 
L 343.251767 87.47443 
L 337.586033 85.362385 
L 331.9203 91.748823 
L 326.254566 90.088901 
L 320.588833 83.563653 
L 314.9231 87.275655 
L 309.257366 91.728118 
L 303.591633 95.654178 
L 297.925899 88.099633 
L 292.260166 87.371802 
L 286.594433 91.459787 
L 280.928699 85.088206 
L 275.262966 94.851882 
L 269.597232 91.907537 
L 263.931499 86.977953 
L 258.265766 80.403026 
L 252.600032 89.588291 
L 246.934299 76.384086 
L 241.268565 75.036821 
L 235.602832 68.295228 
L 229.937099 69.744224 
L 224.271365 56.910437 
L 218.605632 65.905001 
L 212.939898 68.687968 
L 207.274165 55.330033 
L 201.608432 74.119005 
L 195.942698 76.718465 
L 190.276965 73.89755 
L 184.611231 88.543623 
L 178.945498 98.934734 
L 173.279765 95.14148 
L 167.614031 101.001083 
L 161.948298 110.739075 
L 156.282564 125.4128 
L 150.616831 127.72507 
L 144.951098 144.814184 
L 139.285364 157.271504 
L 133.619631 161.808685 
L 127.953897 163.842805 
L 122.288164 173.323286 
L 116.622431 208.576932 
L 110.956697 228.589983 
L 105.290964 249.453227 
L 99.62523 260.155918 
L 93.959497 280.146432 
L 88.293764 277.582131 
L 82.62803 286.061481 
L 76.962297 291.815888 
L 71.296563 283.631172 
L 65.63083 297.80612 
z
" clip-path="url(#p3669dc9fc4)" style="fill: #0000ff; fill-opacity: 0.1"/>
   </g>
   <g id="line2d_19">
    <path d="M 65.63083 306.69959 
L 71.296563 292.466495 
L 76.962297 295.514314 
L 82.62803 292.98489 
L 88.293764 285.901841 
L 93.959497 289.270196 
L 99.62523 281.283114 
L 105.290964 274.927515 
L 110.956697 265.055216 
L 116.622431 251.001369 
L 122.288164 236.798071 
L 127.953897 232.635725 
L 133.619631 233.744326 
L 139.285364 229.020929 
L 144.951098 219.129203 
L 150.616831 205.597055 
L 156.282564 209.01604 
L 161.948298 194.556122 
L 167.614031 177.801509 
L 173.279765 172.202328 
L 178.945498 169.906351 
L 184.611231 164.275304 
L 190.276965 145.661353 
L 195.942698 150.820852 
L 201.608432 145.554499 
L 207.274165 144.513827 
L 212.939898 143.617896 
L 218.605632 141.268689 
L 224.271365 140.136342 
L 229.937099 141.461301 
L 235.602832 128.548513 
L 241.268565 132.953545 
L 246.934299 129.96627 
L 252.600032 128.919833 
L 258.265766 125.576732 
L 263.931499 123.99953 
L 269.597232 104.59136 
L 275.262966 120.524133 
L 280.928699 99.039612 
L 286.594433 102.600907 
L 292.260166 112.678467 
L 297.925899 101.989087 
L 303.591633 108.315947 
L 309.257366 95.365154 
L 314.9231 101.76423 
L 320.588833 105.508081 
L 326.254566 96.935595 
L 331.9203 98.686332 
L 337.586033 97.002578 
L 343.251767 95.954503 
L 348.9175 95.877159 
L 354.583233 96.961722 
L 360.248967 95.0596 
L 365.9147 94.098814 
L 371.580434 93.079947 
L 377.246167 88.895032 
L 382.9119 96.896617 
L 388.577634 98.944011 
L 394.243367 93.917997 
L 399.909101 91.904129 
L 405.574834 91.813624 
L 411.240567 97.352804 
L 416.906301 89.339333 
L 422.572034 89.32709 
L 428.237768 92.032615 
L 433.903501 96.41107 
L 439.569234 89.41484 
L 445.234968 88.410286 
L 450.900701 92.188772 
L 456.566435 87.57324 
L 462.232168 89.496298 
L 467.897901 91.02928 
L 473.563635 94.943914 
L 479.229368 104.06133 
L 484.895102 90.534055 
L 490.560835 88.454719 
L 496.226568 95.048772 
L 501.892302 88.212067 
L 507.558035 89.22509 
L 513.223769 91.44052 
L 518.889502 85.299386 
L 524.555235 89.438752 
L 530.220969 90.09397 
L 535.886702 89.422437 
L 541.552436 95.76647 
L 547.218169 89.615306 
L 552.883902 92.269599 
L 558.549636 84.417136 
L 564.215369 89.313858 
L 569.881103 90.895385 
L 575.546836 92.000294 
L 581.212569 88.96739 
L 586.878303 86.786173 
L 592.544036 86.880857 
L 598.20977 88.291955 
L 603.875503 92.597399 
L 609.541236 90.597955 
L 615.20697 90.781492 
L 620.872703 92.882236 
L 626.538437 91.082258 
" clip-path="url(#p3669dc9fc4)" style="fill: none; stroke: #0000ff; stroke-width: 1.5; stroke-linecap: round"/>
   </g>
   <g id="line2d_20">
    <path d="M 65.63083 317.920013 
L 71.296563 278.374486 
L 76.962297 292.009839 
L 82.62803 296.426987 
L 88.293764 280.166655 
L 93.959497 277.744974 
L 99.62523 259.680874 
L 105.290964 236.007155 
L 110.956697 214.256615 
L 116.622431 175.923256 
L 122.288164 114.274479 
L 127.953897 105.827413 
L 133.619631 103.962053 
L 139.285364 114.095001 
L 144.951098 104.676321 
L 150.616831 109.539777 
L 156.282564 117.59756 
L 161.948298 100.76422 
L 167.614031 112.98663 
L 173.279765 111.845907 
L 178.945498 98.179444 
L 184.611231 104.651633 
L 190.276965 98.065612 
L 195.942698 96.421787 
L 201.608432 102.07279 
L 207.274165 100.797819 
L 212.939898 99.80031 
L 218.605632 97.856303 
L 224.271365 94.70871 
L 229.937099 105.221177 
L 235.602832 91.165976 
L 241.268565 113.864667 
L 246.934299 92.360677 
L 252.600032 97.125421 
L 258.265766 97.149664 
L 263.931499 96.552538 
L 269.597232 92.374129 
L 275.262966 91.941638 
L 280.928699 91.000598 
L 286.594433 92.922618 
L 292.260166 88.431835 
L 297.925899 90.523627 
L 303.591633 90.254002 
L 309.257366 92.986507 
L 314.9231 99.811978 
L 320.588833 92.155482 
L 326.254566 84.106403 
L 331.9203 91.563951 
L 337.586033 93.997254 
L 343.251767 91.935075 
L 348.9175 90.880222 
L 354.583233 96.820893 
L 360.248967 90.343594 
L 365.9147 90.599895 
L 371.580434 92.894685 
L 377.246167 89.090494 
L 382.9119 88.684821 
L 388.577634 87.388834 
L 394.243367 91.836682 
L 399.909101 88.751439 
L 405.574834 87.434074 
L 411.240567 86.854086 
L 416.906301 86.003185 
L 422.572034 89.486018 
L 428.237768 89.28869 
L 433.903501 87.345955 
L 439.569234 91.595482 
L 445.234968 86.310446 
L 450.900701 94.632435 
L 456.566435 79.678084 
L 462.232168 88.340912 
L 467.897901 89.688381 
L 473.563635 85.533189 
L 479.229368 85.512036 
L 484.895102 84.418753 
L 490.560835 88.973076 
L 496.226568 87.413589 
L 501.892302 84.457994 
L 507.558035 86.894334 
L 513.223769 80.733156 
L 518.889502 87.64453 
L 524.555235 86.220278 
L 530.220969 85.232135 
L 535.886702 85.253784 
L 541.552436 117.692236 
L 547.218169 89.307197 
L 552.883902 91.096974 
L 558.549636 87.739271 
L 564.215369 84.314703 
L 569.881103 94.051911 
L 575.546836 96.076432 
L 581.212569 88.174312 
L 586.878303 95.123987 
L 592.544036 87.614134 
L 598.20977 88.72139 
L 603.875503 86.734611 
L 609.541236 90.597526 
L 615.20697 89.393 
L 620.872703 94.139558 
L 626.538437 87.550084 
" clip-path="url(#p3669dc9fc4)" style="fill: none; stroke: #008000; stroke-opacity: 0.2; stroke-linecap: round"/>
   </g>
   <g id="line2d_21">
    <path d="M 65.63083 300.315367 
L 71.296563 297.456813 
L 76.962297 295.75301 
L 82.62803 297.214801 
L 88.293764 288.589205 
L 93.959497 304.252426 
L 99.62523 321.495645 
L 105.290964 313.657257 
L 110.956697 323.989033 
L 116.622431 299.427863 
L 122.288164 288.656609 
L 127.953897 306.440763 
L 133.619631 313.778184 
L 139.285364 321.647525 
L 144.951098 317.330126 
L 150.616831 323.330959 
L 156.282564 333.045675 
L 161.948298 316.825028 
L 167.614031 295.115695 
L 173.279765 312.373469 
L 178.945498 297.104833 
L 184.611231 310.476339 
L 190.276965 287.493507 
L 195.942698 297.59837 
L 201.608432 287.917131 
L 207.274165 322.844176 
L 212.939898 292.547801 
L 218.605632 291.759135 
L 224.271365 306.427255 
L 229.937099 284.524204 
L 235.602832 248.501172 
L 241.268565 247.940806 
L 246.934299 235.656612 
L 252.600032 203.323964 
L 258.265766 213.480209 
L 263.931499 194.269812 
L 269.597232 128.219028 
L 275.262966 164.216728 
L 280.928699 126.283513 
L 286.594433 117.648079 
L 292.260166 121.803772 
L 297.925899 128.292971 
L 303.591633 113.989385 
L 309.257366 96.119347 
L 314.9231 124.087213 
L 320.588833 147.79244 
L 326.254566 103.562708 
L 331.9203 102.056904 
L 337.586033 93.643502 
L 343.251767 110.009029 
L 348.9175 103.995974 
L 354.583233 110.475265 
L 360.248967 95.932597 
L 365.9147 101.277351 
L 371.580434 95.21577 
L 377.246167 88.957189 
L 382.9119 89.609482 
L 388.577634 97.204543 
L 394.243367 94.353486 
L 399.909101 99.114817 
L 405.574834 101.002954 
L 411.240567 93.31371 
L 416.906301 99.262527 
L 422.572034 91.667468 
L 428.237768 97.153313 
L 433.903501 132.868848 
L 439.569234 91.713331 
L 445.234968 84.39738 
L 450.900701 91.89701 
L 456.566435 98.101069 
L 462.232168 87.746304 
L 467.897901 98.992324 
L 473.563635 90.677746 
L 479.229368 143.090879 
L 484.895102 101.457215 
L 490.560835 95.870202 
L 496.226568 98.811724 
L 501.892302 89.949949 
L 507.558035 87.023476 
L 513.223769 98.779105 
L 518.889502 80.870267 
L 524.555235 88.33255 
L 530.220969 93.131477 
L 535.886702 90.833246 
L 541.552436 91.500207 
L 547.218169 93.360043 
L 552.883902 91.832011 
L 558.549636 81.535545 
L 564.215369 91.182548 
L 569.881103 91.09062 
L 575.546836 89.175584 
L 581.212569 86.83352 
L 586.878303 85.546409 
L 592.544036 84.957263 
L 598.20977 89.709162 
L 603.875503 106.507717 
L 609.541236 97.262508 
L 615.20697 102.22777 
L 620.872703 99.915552 
L 626.538437 96.362811 
" clip-path="url(#p3669dc9fc4)" style="fill: none; stroke: #008000; stroke-opacity: 0.2; stroke-linecap: round"/>
   </g>
   <g id="line2d_22">
    <path d="M 65.63083 309.172821 
L 71.296563 299.200695 
L 76.962297 296.577429 
L 82.62803 301.620807 
L 88.293764 279.303386 
L 93.959497 283.001416 
L 99.62523 270.551958 
L 105.290964 287.328638 
L 110.956697 281.354255 
L 116.622431 281.625829 
L 122.288164 279.375065 
L 127.953897 258.118895 
L 133.619631 284.593154 
L 139.285364 282.437517 
L 144.951098 280.825554 
L 150.616831 264.829767 
L 156.282564 283.097793 
L 161.948298 269.369931 
L 167.614031 244.053971 
L 173.279765 198.988555 
L 178.945498 193.503625 
L 184.611231 163.143193 
L 190.276965 130.376739 
L 195.942698 123.374961 
L 201.608432 119.480618 
L 207.274165 102.351959 
L 212.939898 98.585275 
L 218.605632 100.651961 
L 224.271365 97.469672 
L 229.937099 100.31999 
L 235.602832 99.266979 
L 241.268565 98.533841 
L 246.934299 95.032129 
L 252.600032 129.034862 
L 258.265766 90.988091 
L 263.931499 93.688572 
L 269.597232 101.419822 
L 275.262966 124.691201 
L 280.928699 94.08969 
L 286.594433 96.99665 
L 292.260166 89.032448 
L 297.925899 100.470099 
L 303.591633 107.43663 
L 309.257366 90.675704 
L 314.9231 94.765348 
L 320.588833 98.477785 
L 326.254566 96.058598 
L 331.9203 94.134152 
L 337.586033 91.522257 
L 343.251767 83.972042 
L 348.9175 93.532512 
L 354.583233 85.376859 
L 360.248967 90.199964 
L 365.9147 94.338825 
L 371.580434 89.009471 
L 377.246167 86.014027 
L 382.9119 87.309354 
L 388.577634 98.631332 
L 394.243367 93.606619 
L 399.909101 92.94526 
L 405.574834 93.036854 
L 411.240567 93.094119 
L 416.906301 85.141962 
L 422.572034 86.370123 
L 428.237768 94.115224 
L 433.903501 87.51741 
L 439.569234 87.039465 
L 445.234968 88.743826 
L 450.900701 87.303152 
L 456.566435 85.961903 
L 462.232168 88.376667 
L 467.897901 90.745985 
L 473.563635 86.961277 
L 479.229368 95.525697 
L 484.895102 89.61276 
L 490.560835 78.823013 
L 496.226568 90.080631 
L 501.892302 90.687678 
L 507.558035 91.648053 
L 513.223769 85.018588 
L 518.889502 87.680472 
L 524.555235 91.829266 
L 530.220969 89.668826 
L 535.886702 89.002149 
L 541.552436 94.163092 
L 547.218169 84.38628 
L 552.883902 90.56587 
L 558.549636 86.379975 
L 564.215369 90.629818 
L 569.881103 90.924416 
L 575.546836 94.87555 
L 581.212569 87.112718 
L 586.878303 83.537057 
L 592.544036 86.992497 
L 598.20977 82.201693 
L 603.875503 92.734021 
L 609.541236 90.121168 
L 615.20697 78.079455 
L 620.872703 90.922826 
L 626.538437 92.751783 
" clip-path="url(#p3669dc9fc4)" style="fill: none; stroke: #008000; stroke-opacity: 0.2; stroke-linecap: round"/>
   </g>
   <g id="line2d_23">
    <path d="M 65.63083 293.145832 
L 71.296563 285.947167 
L 76.962297 301.738993 
L 82.62803 285.920532 
L 88.293764 280.334873 
L 93.959497 287.877263 
L 99.62523 278.315533 
L 105.290964 267.93538 
L 110.956697 256.755901 
L 116.622431 243.033038 
L 122.288164 239.964762 
L 127.953897 222.872093 
L 133.619631 237.588279 
L 139.285364 195.929885 
L 144.951098 200.387632 
L 150.616831 150.137676 
L 156.282564 151.993606 
L 161.948298 127.939441 
L 167.614031 111.808955 
L 173.279765 117.995623 
L 178.945498 120.941237 
L 184.611231 128.444168 
L 190.276965 109.201227 
L 195.942698 125.119355 
L 201.608432 105.470571 
L 207.274165 99.802503 
L 212.939898 121.934205 
L 218.605632 110.055987 
L 224.271365 105.432329 
L 229.937099 102.035766 
L 235.602832 108.573236 
L 241.268565 109.655629 
L 246.934299 114.002313 
L 252.600032 119.289389 
L 258.265766 122.136305 
L 263.931499 126.818113 
L 269.597232 105.613455 
L 275.262966 124.4161 
L 280.928699 96.398163 
L 286.594433 114.31818 
L 292.260166 107.360134 
L 297.925899 100.340479 
L 303.591633 101.638408 
L 309.257366 101.521252 
L 314.9231 109.380043 
L 320.588833 103.282844 
L 326.254566 100.638695 
L 331.9203 110.69185 
L 337.586033 119.612844 
L 343.251767 96.482564 
L 348.9175 95.119089 
L 354.583233 97.045453 
L 360.248967 95.179971 
L 365.9147 98.310355 
L 371.580434 100.750177 
L 377.246167 96.653587 
L 382.9119 102.810978 
L 388.577634 101.116008 
L 394.243367 105.639891 
L 399.909101 97.798255 
L 405.574834 87.679049 
L 411.240567 86.41116 
L 416.906301 95.638297 
L 422.572034 91.261533 
L 428.237768 91.39622 
L 433.903501 89.830154 
L 439.569234 96.147109 
L 445.234968 94.237134 
L 450.900701 88.503028 
L 456.566435 85.853253 
L 462.232168 89.173568 
L 467.897901 92.540493 
L 473.563635 104.570863 
L 479.229368 103.223615 
L 484.895102 92.852934 
L 490.560835 91.10245 
L 496.226568 95.225726 
L 501.892302 87.150268 
L 507.558035 93.003829 
L 513.223769 100.983499 
L 518.889502 86.846981 
L 524.555235 88.00762 
L 530.220969 93.161056 
L 535.886702 94.53685 
L 541.552436 88.076001 
L 547.218169 86.554193 
L 552.883902 96.406718 
L 558.549636 83.561248 
L 564.215369 89.931077 
L 569.881103 89.250124 
L 575.546836 85.6136 
L 581.212569 92.750047 
L 586.878303 88.558135 
L 592.544036 87.821906 
L 598.20977 89.856421 
L 603.875503 85.102059 
L 609.541236 88.754317 
L 615.20697 96.702405 
L 620.872703 92.355979 
L 626.538437 86.13708 
" clip-path="url(#p3669dc9fc4)" style="fill: none; stroke: #008000; stroke-opacity: 0.2; stroke-linecap: round"/>
   </g>
   <g id="line2d_24">
    <path d="M 65.63083 312.943918 
L 71.296563 301.353314 
L 76.962297 291.492298 
L 82.62803 283.741322 
L 88.293764 301.115086 
L 93.959497 293.474903 
L 99.62523 276.371559 
L 105.290964 269.709142 
L 110.956697 248.920277 
L 116.622431 254.996857 
L 122.288164 261.71944 
L 127.953897 269.91946 
L 133.619631 228.799963 
L 139.285364 230.994717 
L 144.951098 192.426382 
L 150.616831 180.147093 
L 156.282564 159.345568 
L 161.948298 157.881987 
L 167.614031 125.042295 
L 173.279765 119.808088 
L 178.945498 139.802614 
L 184.611231 114.661187 
L 190.276965 103.16968 
L 195.942698 111.589786 
L 201.608432 112.831383 
L 207.274165 96.772678 
L 212.939898 105.221887 
L 218.605632 106.020058 
L 224.271365 96.643745 
L 229.937099 115.205366 
L 235.602832 95.235199 
L 241.268565 94.772784 
L 246.934299 112.779617 
L 252.600032 95.825529 
L 258.265766 104.129389 
L 263.931499 108.668612 
L 269.597232 95.330365 
L 275.262966 97.355 
L 280.928699 87.426095 
L 286.594433 91.11901 
L 292.260166 156.764148 
L 297.925899 90.318257 
L 303.591633 128.261311 
L 309.257366 95.522961 
L 314.9231 80.776565 
L 320.588833 85.831854 
L 326.254566 100.311571 
L 331.9203 94.984803 
L 337.586033 86.237031 
L 343.251767 97.373802 
L 348.9175 95.857997 
L 354.583233 95.090139 
L 360.248967 103.641871 
L 365.9147 85.967645 
L 371.580434 87.52963 
L 377.246167 83.759863 
L 382.9119 116.068451 
L 388.577634 110.379338 
L 394.243367 84.153304 
L 399.909101 80.910873 
L 405.574834 89.91519 
L 411.240567 127.090948 
L 416.906301 80.650693 
L 422.572034 87.850306 
L 428.237768 88.209625 
L 433.903501 84.492984 
L 439.569234 80.57881 
L 445.234968 88.362646 
L 450.900701 98.608234 
L 456.566435 88.27189 
L 462.232168 93.844039 
L 467.897901 83.179217 
L 473.563635 106.976495 
L 479.229368 92.954424 
L 484.895102 84.32861 
L 490.560835 87.504853 
L 496.226568 103.712192 
L 501.892302 88.814447 
L 507.558035 87.555758 
L 513.223769 91.688252 
L 518.889502 83.454682 
L 524.555235 92.804048 
L 530.220969 89.276354 
L 535.886702 87.486157 
L 541.552436 87.400814 
L 547.218169 94.468815 
L 552.883902 91.446424 
L 558.549636 82.869641 
L 564.215369 90.511146 
L 569.881103 89.159854 
L 575.546836 94.260304 
L 581.212569 89.96635 
L 586.878303 81.165278 
L 592.544036 87.018482 
L 598.20977 90.971111 
L 603.875503 91.908584 
L 609.541236 86.254256 
L 615.20697 87.504833 
L 620.872703 87.077264 
L 626.538437 92.609533 
" clip-path="url(#p3669dc9fc4)" style="fill: none; stroke: #008000; stroke-opacity: 0.2; stroke-linecap: round"/>
   </g>
   <g id="line2d_25">
    <path d="M 65.63083 57.0062 
L 71.296563 67.124649 
L 76.962297 89.64554 
L 82.62803 118.445737 
L 88.293764 146.445364 
L 93.959497 179.238212 
L 99.62523 203.073891 
L 105.290964 222.108958 
L 110.956697 253.613312 
L 116.622431 280.807523 
L 122.288164 279.998574 
L 127.953897 284.854011 
L 133.619631 290.927477 
L 139.285364 280.511195 
L 144.951098 292.094717 
L 150.616831 294.385468 
L 156.282564 298.794565 
L 161.948298 309.180162 
L 167.614031 313.683991 
L 173.279765 310.813217 
L 178.945498 318.423494 
L 184.611231 319.163155 
L 190.276965 318.062035 
L 195.942698 318.168278 
L 201.608432 315.348774 
L 207.274165 313.627827 
L 212.939898 314.71254 
L 218.605632 323.003831 
L 224.271365 325.759128 
L 229.937099 324.061936 
L 235.602832 323.235155 
L 241.268565 325.548942 
L 246.934299 328.07962 
L 252.600032 334.431372 
L 258.265766 333.280931 
L 263.931499 333.495817 
L 269.597232 337.854467 
L 275.262966 333.612911 
L 280.928699 340.659706 
L 286.594433 345.277321 
L 292.260166 348.487481 
L 297.925899 348.614299 
L 303.591633 351.755716 
L 309.257366 350.530949 
L 314.9231 352.866762 
L 320.588833 352.923908 
L 326.254566 355.190275 
L 331.9203 354.196205 
L 337.586033 357.718222 
L 343.251767 358.453129 
L 348.9175 359.838738 
L 354.583233 361.986108 
L 360.248967 360.887281 
L 365.9147 359.85535 
L 371.580434 362.605446 
L 377.246167 360.255567 
L 382.9119 360.420993 
L 388.577634 362.168417 
L 394.243367 361.333379 
L 399.909101 368.490865 
L 405.574834 368.399547 
L 411.240567 365.661317 
L 416.906301 368.182141 
L 422.572034 370.290375 
L 428.237768 372.10132 
L 433.903501 371.995523 
L 439.569234 371.007633 
L 445.234968 374.035036 
L 450.900701 378.566267 
L 456.566435 378.28601 
L 462.232168 376.606795 
L 467.897901 375.253961 
L 473.563635 374.278576 
L 479.229368 376.759914 
L 484.895102 376.977105 
L 490.560835 373.665867 
L 496.226568 375.990357 
L 501.892302 372.838971 
L 507.558035 378.286778 
L 513.223769 380.521476 
L 518.889502 377.891172 
L 524.555235 376.742399 
L 530.220969 380.938808 
L 535.886702 379.884602 
L 541.552436 381.744728 
L 547.218169 379.768805 
L 552.883902 382.814743 
L 558.549636 382.034175 
L 564.215369 381.980148 
L 569.881103 380.927074 
L 575.546836 381.355206 
L 581.212569 378.166535 
L 586.878303 381.261917 
L 592.544036 382.551254 
L 598.20977 384.672336 
L 603.875503 383.92609 
L 609.541236 386.716999 
L 615.20697 386.656056 
L 620.872703 388.923904 
L 626.538437 390.04 
" clip-path="url(#p3669dc9fc4)" style="fill: none; stroke: #7b3ab8; stroke-linecap: round"/>
   </g>
   <g id="patch_3">
    <path d="M 65.63 390.04 
L 65.63 57.0062 
" style="fill: none; stroke: #ffffff; stroke-width: 0.8; stroke-linejoin: miter; stroke-linecap: square"/>
   </g>
   <g id="patch_4">
    <path d="M 632.205 390.04 
L 632.205 57.0062 
" style="fill: none; stroke: #ffffff; stroke-width: 0.8; stroke-linejoin: miter; stroke-linecap: square"/>
   </g>
   <g id="patch_5">
    <path d="M 65.63 390.04 
L 632.205 390.04 
" style="fill: none; stroke: #ffffff; stroke-width: 0.8; stroke-linejoin: miter; stroke-linecap: square"/>
   </g>
   <g id="patch_6">
    <path d="M 65.63 57.0062 
L 632.205 57.0062 
" style="fill: none; stroke: #ffffff; stroke-width: 0.8; stroke-linejoin: miter; stroke-linecap: square"/>
   </g>
   <g id="legend_1">
    <g id="line2d_26">
     <path d="M 97.385341 41.274494 
L 105.715341 41.274494 
L 114.045341 41.274494 
" style="fill: none; stroke: #0000ff; stroke-width: 1.5; stroke-linecap: round"/>
    </g>
    <g id="text_22">
     <!-- Mean Reward -->
     <g style="fill: #262626" transform="translate(120.709341 44.189994) scale(0.0833 -0.0833)">
      <defs>
       <path id="DejaVuSans-4d" d="M 628 4666 
L 1569 4666 
L 2759 1491 
L 3956 4666 
L 4897 4666 
L 4897 0 
L 4281 0 
L 4281 4097 
L 3078 897 
L 2444 897 
L 1241 4097 
L 1241 0 
L 628 0 
L 628 4666 
z
" transform="scale(0.015625)"/>
       <path id="DejaVuSans-6e" d="M 3513 2113 
L 3513 0 
L 2938 0 
L 2938 2094 
Q 2938 2591 2744 2837 
Q 2550 3084 2163 3084 
Q 1697 3084 1428 2787 
Q 1159 2491 1159 1978 
L 1159 0 
L 581 0 
L 581 3500 
L 1159 3500 
L 1159 2956 
Q 1366 3272 1645 3428 
Q 1925 3584 2291 3584 
Q 2894 3584 3203 3211 
Q 3513 2838 3513 2113 
z
" transform="scale(0.015625)"/>
       <path id="DejaVuSans-20" transform="scale(0.015625)"/>
      </defs>
      <use xlink:href="#DejaVuSans-4d"/>
      <use xlink:href="#DejaVuSans-65" transform="translate(86.279297 0)"/>
      <use xlink:href="#DejaVuSans-61" transform="translate(147.802734 0)"/>
      <use xlink:href="#DejaVuSans-6e" transform="translate(209.082031 0)"/>
      <use xlink:href="#DejaVuSans-20" transform="translate(272.460938 0)"/>
      <use xlink:href="#DejaVuSans-52" transform="translate(304.248047 0)"/>
      <use xlink:href="#DejaVuSans-65" transform="translate(369.230469 0)"/>
      <use xlink:href="#DejaVuSans-77" transform="translate(430.753906 0)"/>
      <use xlink:href="#DejaVuSans-61" transform="translate(512.541016 0)"/>
      <use xlink:href="#DejaVuSans-72" transform="translate(573.820312 0)"/>
      <use xlink:href="#DejaVuSans-64" transform="translate(613.183594 0)"/>
     </g>
    </g>
    <g id="line2d_27">
     <path d="M 193.736108 41.274494 
L 202.066108 41.274494 
L 210.396108 41.274494 
" style="fill: none; stroke: #008000; stroke-opacity: 0.2; stroke-linecap: round"/>
    </g>
    <g id="text_23">
     <!-- Reward (individual runs) -->
     <g style="fill: #262626" transform="translate(217.060108 44.189994) scale(0.0833 -0.0833)">
      <defs>
       <path id="DejaVuSans-28" d="M 1984 4856 
Q 1566 4138 1362 3434 
Q 1159 2731 1159 2009 
Q 1159 1288 1364 580 
Q 1569 -128 1984 -844 
L 1484 -844 
Q 1016 -109 783 600 
Q 550 1309 550 2009 
Q 550 2706 781 3412 
Q 1013 4119 1484 4856 
L 1984 4856 
z
" transform="scale(0.015625)"/>
       <path id="DejaVuSans-69" d="M 603 3500 
L 1178 3500 
L 1178 0 
L 603 0 
L 603 3500 
z
M 603 4863 
L 1178 4863 
L 1178 4134 
L 603 4134 
L 603 4863 
z
" transform="scale(0.015625)"/>
       <path id="DejaVuSans-76" d="M 191 3500 
L 800 3500 
L 1894 563 
L 2988 3500 
L 3597 3500 
L 2284 0 
L 1503 0 
L 191 3500 
z
" transform="scale(0.015625)"/>
       <path id="DejaVuSans-75" d="M 544 1381 
L 544 3500 
L 1119 3500 
L 1119 1403 
Q 1119 906 1312 657 
Q 1506 409 1894 409 
Q 2359 409 2629 706 
Q 2900 1003 2900 1516 
L 2900 3500 
L 3475 3500 
L 3475 0 
L 2900 0 
L 2900 538 
Q 2691 219 2414 64 
Q 2138 -91 1772 -91 
Q 1169 -91 856 284 
Q 544 659 544 1381 
z
M 1991 3584 
L 1991 3584 
z
" transform="scale(0.015625)"/>
       <path id="DejaVuSans-6c" d="M 603 4863 
L 1178 4863 
L 1178 0 
L 603 0 
L 603 4863 
z
" transform="scale(0.015625)"/>
       <path id="DejaVuSans-29" d="M 513 4856 
L 1013 4856 
Q 1481 4119 1714 3412 
Q 1947 2706 1947 2009 
Q 1947 1309 1714 600 
Q 1481 -109 1013 -844 
L 513 -844 
Q 928 -128 1133 580 
Q 1338 1288 1338 2009 
Q 1338 2731 1133 3434 
Q 928 4138 513 4856 
z
" transform="scale(0.015625)"/>
      </defs>
      <use xlink:href="#DejaVuSans-52"/>
      <use xlink:href="#DejaVuSans-65" transform="translate(64.982422 0)"/>
      <use xlink:href="#DejaVuSans-77" transform="translate(126.505859 0)"/>
      <use xlink:href="#DejaVuSans-61" transform="translate(208.292969 0)"/>
      <use xlink:href="#DejaVuSans-72" transform="translate(269.572266 0)"/>
      <use xlink:href="#DejaVuSans-64" transform="translate(308.935547 0)"/>
      <use xlink:href="#DejaVuSans-20" transform="translate(372.412109 0)"/>
      <use xlink:href="#DejaVuSans-28" transform="translate(404.199219 0)"/>
      <use xlink:href="#DejaVuSans-69" transform="translate(443.212891 0)"/>
      <use xlink:href="#DejaVuSans-6e" transform="translate(470.996094 0)"/>
      <use xlink:href="#DejaVuSans-64" transform="translate(534.375 0)"/>
      <use xlink:href="#DejaVuSans-69" transform="translate(597.851562 0)"/>
      <use xlink:href="#DejaVuSans-76" transform="translate(625.634766 0)"/>
      <use xlink:href="#DejaVuSans-69" transform="translate(684.814453 0)"/>
      <use xlink:href="#DejaVuSans-64" transform="translate(712.597656 0)"/>
      <use xlink:href="#DejaVuSans-75" transform="translate(776.074219 0)"/>
      <use xlink:href="#DejaVuSans-61" transform="translate(839.453125 0)"/>
      <use xlink:href="#DejaVuSans-6c" transform="translate(900.732422 0)"/>
      <use xlink:href="#DejaVuSans-20" transform="translate(928.515625 0)"/>
      <use xlink:href="#DejaVuSans-72" transform="translate(960.302734 0)"/>
      <use xlink:href="#DejaVuSans-75" transform="translate(1001.416016 0)"/>
      <use xlink:href="#DejaVuSans-6e" transform="translate(1064.794922 0)"/>
      <use xlink:href="#DejaVuSans-73" transform="translate(1128.173828 0)"/>
      <use xlink:href="#DejaVuSans-29" transform="translate(1180.273438 0)"/>
     </g>
    </g>
    <g id="line2d_28">
     <path d="M 335.286236 41.274494 
L 343.616236 41.274494 
L 351.946236 41.274494 
" style="fill: none; stroke: #7b3ab8; stroke-linecap: round"/>
    </g>
    <g id="text_24">
     <!-- Entropy (normalized) -->
     <g style="fill: #262626" transform="translate(358.610236 44.189994) scale(0.0833 -0.0833)">
      <defs>
       <path id="DejaVuSans-45" d="M 628 4666 
L 3578 4666 
L 3578 4134 
L 1259 4134 
L 1259 2753 
L 3481 2753 
L 3481 2222 
L 1259 2222 
L 1259 531 
L 3634 531 
L 3634 0 
L 628 0 
L 628 4666 
z
" transform="scale(0.015625)"/>
       <path id="DejaVuSans-6f" d="M 1959 3097 
Q 1497 3097 1228 2736 
Q 959 2375 959 1747 
Q 959 1119 1226 758 
Q 1494 397 1959 397 
Q 2419 397 2687 759 
Q 2956 1122 2956 1747 
Q 2956 2369 2687 2733 
Q 2419 3097 1959 3097 
z
M 1959 3584 
Q 2709 3584 3137 3096 
Q 3566 2609 3566 1747 
Q 3566 888 3137 398 
Q 2709 -91 1959 -91 
Q 1206 -91 779 398 
Q 353 888 353 1747 
Q 353 2609 779 3096 
Q 1206 3584 1959 3584 
z
" transform="scale(0.015625)"/>
       <path id="DejaVuSans-79" d="M 2059 -325 
Q 1816 -950 1584 -1140 
Q 1353 -1331 966 -1331 
L 506 -1331 
L 506 -850 
L 844 -850 
Q 1081 -850 1212 -737 
Q 1344 -625 1503 -206 
L 1606 56 
L 191 3500 
L 800 3500 
L 1894 763 
L 2988 3500 
L 3597 3500 
L 2059 -325 
z
" transform="scale(0.015625)"/>
       <path id="DejaVuSans-6d" d="M 3328 2828 
Q 3544 3216 3844 3400 
Q 4144 3584 4550 3584 
Q 5097 3584 5394 3201 
Q 5691 2819 5691 2113 
L 5691 0 
L 5113 0 
L 5113 2094 
Q 5113 2597 4934 2840 
Q 4756 3084 4391 3084 
Q 3944 3084 3684 2787 
Q 3425 2491 3425 1978 
L 3425 0 
L 2847 0 
L 2847 2094 
Q 2847 2600 2669 2842 
Q 2491 3084 2119 3084 
Q 1678 3084 1418 2786 
Q 1159 2488 1159 1978 
L 1159 0 
L 581 0 
L 581 3500 
L 1159 3500 
L 1159 2956 
Q 1356 3278 1631 3431 
Q 1906 3584 2284 3584 
Q 2666 3584 2933 3390 
Q 3200 3197 3328 2828 
z
" transform="scale(0.015625)"/>
       <path id="DejaVuSans-7a" d="M 353 3500 
L 3084 3500 
L 3084 2975 
L 922 459 
L 3084 459 
L 3084 0 
L 275 0 
L 275 525 
L 2438 3041 
L 353 3041 
L 353 3500 
z
" transform="scale(0.015625)"/>
      </defs>
      <use xlink:href="#DejaVuSans-45"/>
      <use xlink:href="#DejaVuSans-6e" transform="translate(63.183594 0)"/>
      <use xlink:href="#DejaVuSans-74" transform="translate(126.5625 0)"/>
      <use xlink:href="#DejaVuSans-72" transform="translate(165.771484 0)"/>
      <use xlink:href="#DejaVuSans-6f" transform="translate(204.634766 0)"/>
      <use xlink:href="#DejaVuSans-70" transform="translate(265.816406 0)"/>
      <use xlink:href="#DejaVuSans-79" transform="translate(329.292969 0)"/>
      <use xlink:href="#DejaVuSans-20" transform="translate(388.472656 0)"/>
      <use xlink:href="#DejaVuSans-28" transform="translate(420.259766 0)"/>
      <use xlink:href="#DejaVuSans-6e" transform="translate(459.273438 0)"/>
      <use xlink:href="#DejaVuSans-6f" transform="translate(522.652344 0)"/>
      <use xlink:href="#DejaVuSans-72" transform="translate(583.833984 0)"/>
      <use xlink:href="#DejaVuSans-6d" transform="translate(623.197266 0)"/>
      <use xlink:href="#DejaVuSans-61" transform="translate(720.609375 0)"/>
      <use xlink:href="#DejaVuSans-6c" transform="translate(781.888672 0)"/>
      <use xlink:href="#DejaVuSans-69" transform="translate(809.671875 0)"/>
      <use xlink:href="#DejaVuSans-7a" transform="translate(837.455078 0)"/>
      <use xlink:href="#DejaVuSans-65" transform="translate(889.945312 0)"/>
      <use xlink:href="#DejaVuSans-64" transform="translate(951.46875 0)"/>
      <use xlink:href="#DejaVuSans-29" transform="translate(1014.945312 0)"/>
     </g>
    </g>
    <g id="patch_7">
     <path d="M 463.065833 44.189994 
L 479.725833 44.189994 
L 479.725833 38.358994 
L 463.065833 38.358994 
z
" style="fill: #0000ff; fill-opacity: 0.1"/>
    </g>
    <g id="text_25">
     <!-- Reward Standard Deviation -->
     <g style="fill: #262626" transform="translate(486.389833 44.189994) scale(0.0833 -0.0833)">
      <defs>
       <path id="DejaVuSans-44" d="M 1259 4147 
L 1259 519 
L 2022 519 
Q 2988 519 3436 956 
Q 3884 1394 3884 2338 
Q 3884 3275 3436 3711 
Q 2988 4147 2022 4147 
L 1259 4147 
z
M 628 4666 
L 1925 4666 
Q 3281 4666 3915 4102 
Q 4550 3538 4550 2338 
Q 4550 1131 3912 565 
Q 3275 0 1925 0 
L 628 0 
L 628 4666 
z
" transform="scale(0.015625)"/>
      </defs>
      <use xlink:href="#DejaVuSans-52"/>
      <use xlink:href="#DejaVuSans-65" transform="translate(64.982422 0)"/>
      <use xlink:href="#DejaVuSans-77" transform="translate(126.505859 0)"/>
      <use xlink:href="#DejaVuSans-61" transform="translate(208.292969 0)"/>
      <use xlink:href="#DejaVuSans-72" transform="translate(269.572266 0)"/>
      <use xlink:href="#DejaVuSans-64" transform="translate(308.935547 0)"/>
      <use xlink:href="#DejaVuSans-20" transform="translate(372.412109 0)"/>
      <use xlink:href="#DejaVuSans-53" transform="translate(404.199219 0)"/>
      <use xlink:href="#DejaVuSans-74" transform="translate(467.675781 0)"/>
      <use xlink:href="#DejaVuSans-61" transform="translate(506.884766 0)"/>
      <use xlink:href="#DejaVuSans-6e" transform="translate(568.164062 0)"/>
      <use xlink:href="#DejaVuSans-64" transform="translate(631.542969 0)"/>
      <use xlink:href="#DejaVuSans-61" transform="translate(695.019531 0)"/>
      <use xlink:href="#DejaVuSans-72" transform="translate(756.298828 0)"/>
      <use xlink:href="#DejaVuSans-64" transform="translate(795.662109 0)"/>
      <use xlink:href="#DejaVuSans-20" transform="translate(859.138672 0)"/>
      <use xlink:href="#DejaVuSans-44" transform="translate(890.925781 0)"/>
      <use xlink:href="#DejaVuSans-65" transform="translate(967.927734 0)"/>
      <use xlink:href="#DejaVuSans-76" transform="translate(1029.451172 0)"/>
      <use xlink:href="#DejaVuSans-69" transform="translate(1088.630859 0)"/>
      <use xlink:href="#DejaVuSans-61" transform="translate(1116.414062 0)"/>
      <use xlink:href="#DejaVuSans-74" transform="translate(1177.693359 0)"/>
      <use xlink:href="#DejaVuSans-69" transform="translate(1216.902344 0)"/>
      <use xlink:href="#DejaVuSans-6f" transform="translate(1244.685547 0)"/>
      <use xlink:href="#DejaVuSans-6e" transform="translate(1305.867188 0)"/>
     </g>
    </g>
   </g>
  </g>
  <g id="text_26">
   <!-- Rewards: Pendulum-v1 (Discretized) | CMU-Net (Alignment + Penalty + Margin) -->
   <g style="fill: #262626" transform="translate(54.338437 17.810625) scale(0.12 -0.12)">
    <defs>
     <path id="DejaVuSans-Bold-52" d="M 2297 2597 
Q 2675 2597 2839 2737 
Q 3003 2878 3003 3200 
Q 3003 3519 2839 3656 
Q 2675 3794 2297 3794 
L 1791 3794 
L 1791 2597 
L 2297 2597 
z
M 1791 1766 
L 1791 0 
L 588 0 
L 588 4666 
L 2425 4666 
Q 3347 4666 3776 4356 
Q 4206 4047 4206 3378 
Q 4206 2916 3982 2619 
Q 3759 2322 3309 2181 
Q 3556 2125 3751 1926 
Q 3947 1728 4147 1325 
L 4800 0 
L 3519 0 
L 2950 1159 
Q 2778 1509 2601 1637 
Q 2425 1766 2131 1766 
L 1791 1766 
z
" transform="scale(0.015625)"/>
     <path id="DejaVuSans-Bold-65" d="M 4031 1759 
L 4031 1441 
L 1416 1441 
Q 1456 1047 1700 850 
Q 1944 653 2381 653 
Q 2734 653 3104 758 
Q 3475 863 3866 1075 
L 3866 213 
Q 3469 63 3072 -14 
Q 2675 -91 2278 -91 
Q 1328 -91 801 392 
Q 275 875 275 1747 
Q 275 2603 792 3093 
Q 1309 3584 2216 3584 
Q 3041 3584 3536 3087 
Q 4031 2591 4031 1759 
z
M 2881 2131 
Q 2881 2450 2695 2645 
Q 2509 2841 2209 2841 
Q 1884 2841 1681 2658 
Q 1478 2475 1428 2131 
L 2881 2131 
z
" transform="scale(0.015625)"/>
     <path id="DejaVuSans-Bold-77" d="M 225 3500 
L 1313 3500 
L 1900 1088 
L 2491 3500 
L 3425 3500 
L 4013 1113 
L 4603 3500 
L 5691 3500 
L 4769 0 
L 3547 0 
L 2956 2406 
L 2369 0 
L 1147 0 
L 225 3500 
z
" transform="scale(0.015625)"/>
     <path id="DejaVuSans-Bold-61" d="M 2106 1575 
Q 1756 1575 1579 1456 
Q 1403 1338 1403 1106 
Q 1403 894 1545 773 
Q 1688 653 1941 653 
Q 2256 653 2472 879 
Q 2688 1106 2688 1447 
L 2688 1575 
L 2106 1575 
z
M 3816 1997 
L 3816 0 
L 2688 0 
L 2688 519 
Q 2463 200 2181 54 
Q 1900 -91 1497 -91 
Q 953 -91 614 226 
Q 275 544 275 1050 
Q 275 1666 698 1953 
Q 1122 2241 2028 2241 
L 2688 2241 
L 2688 2328 
Q 2688 2594 2478 2717 
Q 2269 2841 1825 2841 
Q 1466 2841 1156 2769 
Q 847 2697 581 2553 
L 581 3406 
Q 941 3494 1303 3539 
Q 1666 3584 2028 3584 
Q 2975 3584 3395 3211 
Q 3816 2838 3816 1997 
z
" transform="scale(0.015625)"/>
     <path id="DejaVuSans-Bold-72" d="M 3138 2547 
Q 2991 2616 2845 2648 
Q 2700 2681 2553 2681 
Q 2122 2681 1889 2404 
Q 1656 2128 1656 1613 
L 1656 0 
L 538 0 
L 538 3500 
L 1656 3500 
L 1656 2925 
Q 1872 3269 2151 3426 
Q 2431 3584 2822 3584 
Q 2878 3584 2943 3579 
Q 3009 3575 3134 3559 
L 3138 2547 
z
" transform="scale(0.015625)"/>
     <path id="DejaVuSans-Bold-64" d="M 2919 2988 
L 2919 4863 
L 4044 4863 
L 4044 0 
L 2919 0 
L 2919 506 
Q 2688 197 2409 53 
Q 2131 -91 1766 -91 
Q 1119 -91 703 423 
Q 288 938 288 1747 
Q 288 2556 703 3070 
Q 1119 3584 1766 3584 
Q 2128 3584 2408 3439 
Q 2688 3294 2919 2988 
z
M 2181 722 
Q 2541 722 2730 984 
Q 2919 1247 2919 1747 
Q 2919 2247 2730 2509 
Q 2541 2772 2181 2772 
Q 1825 2772 1636 2509 
Q 1447 2247 1447 1747 
Q 1447 1247 1636 984 
Q 1825 722 2181 722 
z
" transform="scale(0.015625)"/>
     <path id="DejaVuSans-Bold-73" d="M 3272 3391 
L 3272 2541 
Q 2913 2691 2578 2766 
Q 2244 2841 1947 2841 
Q 1628 2841 1473 2761 
Q 1319 2681 1319 2516 
Q 1319 2381 1436 2309 
Q 1553 2238 1856 2203 
L 2053 2175 
Q 2913 2066 3209 1816 
Q 3506 1566 3506 1031 
Q 3506 472 3093 190 
Q 2681 -91 1863 -91 
Q 1516 -91 1145 -36 
Q 775 19 384 128 
L 384 978 
Q 719 816 1070 734 
Q 1422 653 1784 653 
Q 2113 653 2278 743 
Q 2444 834 2444 1013 
Q 2444 1163 2330 1236 
Q 2216 1309 1875 1350 
L 1678 1375 
Q 931 1469 631 1722 
Q 331 1975 331 2491 
Q 331 3047 712 3315 
Q 1094 3584 1881 3584 
Q 2191 3584 2531 3537 
Q 2872 3491 3272 3391 
z
" transform="scale(0.015625)"/>
     <path id="DejaVuSans-Bold-3a" d="M 716 3500 
L 1844 3500 
L 1844 2291 
L 716 2291 
L 716 3500 
z
M 716 1209 
L 1844 1209 
L 1844 0 
L 716 0 
L 716 1209 
z
" transform="scale(0.015625)"/>
     <path id="DejaVuSans-Bold-20" transform="scale(0.015625)"/>
     <path id="DejaVuSans-Bold-50" d="M 588 4666 
L 2584 4666 
Q 3475 4666 3951 4270 
Q 4428 3875 4428 3144 
Q 4428 2409 3951 2014 
Q 3475 1619 2584 1619 
L 1791 1619 
L 1791 0 
L 588 0 
L 588 4666 
z
M 1791 3794 
L 1791 2491 
L 2456 2491 
Q 2806 2491 2997 2661 
Q 3188 2831 3188 3144 
Q 3188 3456 2997 3625 
Q 2806 3794 2456 3794 
L 1791 3794 
z
" transform="scale(0.015625)"/>
     <path id="DejaVuSans-Bold-6e" d="M 4056 2131 
L 4056 0 
L 2931 0 
L 2931 347 
L 2931 1631 
Q 2931 2084 2911 2256 
Q 2891 2428 2841 2509 
Q 2775 2619 2662 2680 
Q 2550 2741 2406 2741 
Q 2056 2741 1856 2470 
Q 1656 2200 1656 1722 
L 1656 0 
L 538 0 
L 538 3500 
L 1656 3500 
L 1656 2988 
Q 1909 3294 2193 3439 
Q 2478 3584 2822 3584 
Q 3428 3584 3742 3212 
Q 4056 2841 4056 2131 
z
" transform="scale(0.015625)"/>
     <path id="DejaVuSans-Bold-75" d="M 500 1363 
L 500 3500 
L 1625 3500 
L 1625 3150 
Q 1625 2866 1622 2436 
Q 1619 2006 1619 1863 
Q 1619 1441 1641 1255 
Q 1663 1069 1716 984 
Q 1784 875 1895 815 
Q 2006 756 2150 756 
Q 2500 756 2700 1025 
Q 2900 1294 2900 1772 
L 2900 3500 
L 4019 3500 
L 4019 0 
L 2900 0 
L 2900 506 
Q 2647 200 2364 54 
Q 2081 -91 1741 -91 
Q 1134 -91 817 281 
Q 500 653 500 1363 
z
" transform="scale(0.015625)"/>
     <path id="DejaVuSans-Bold-6c" d="M 538 4863 
L 1656 4863 
L 1656 0 
L 538 0 
L 538 4863 
z
" transform="scale(0.015625)"/>
     <path id="DejaVuSans-Bold-6d" d="M 3781 2919 
Q 3994 3244 4286 3414 
Q 4578 3584 4928 3584 
Q 5531 3584 5847 3212 
Q 6163 2841 6163 2131 
L 6163 0 
L 5038 0 
L 5038 1825 
Q 5041 1866 5042 1909 
Q 5044 1953 5044 2034 
Q 5044 2406 4934 2573 
Q 4825 2741 4581 2741 
Q 4263 2741 4089 2478 
Q 3916 2216 3909 1719 
L 3909 0 
L 2784 0 
L 2784 1825 
Q 2784 2406 2684 2573 
Q 2584 2741 2328 2741 
Q 2006 2741 1831 2477 
Q 1656 2213 1656 1722 
L 1656 0 
L 531 0 
L 531 3500 
L 1656 3500 
L 1656 2988 
Q 1863 3284 2130 3434 
Q 2397 3584 2719 3584 
Q 3081 3584 3359 3409 
Q 3638 3234 3781 2919 
z
" transform="scale(0.015625)"/>
     <path id="DejaVuSans-Bold-2d" d="M 347 2297 
L 2309 2297 
L 2309 1388 
L 347 1388 
L 347 2297 
z
" transform="scale(0.015625)"/>
     <path id="DejaVuSans-Bold-76" d="M 97 3500 
L 1216 3500 
L 2088 1081 
L 2956 3500 
L 4078 3500 
L 2700 0 
L 1472 0 
L 97 3500 
z
" transform="scale(0.015625)"/>
     <path id="DejaVuSans-Bold-31" d="M 750 831 
L 1813 831 
L 1813 3847 
L 722 3622 
L 722 4441 
L 1806 4666 
L 2950 4666 
L 2950 831 
L 4013 831 
L 4013 0 
L 750 0 
L 750 831 
z
" transform="scale(0.015625)"/>
     <path id="DejaVuSans-Bold-28" d="M 2413 -844 
L 1484 -844 
Q 1006 -72 778 623 
Q 550 1319 550 2003 
Q 550 2688 779 3389 
Q 1009 4091 1484 4856 
L 2413 4856 
Q 2013 4116 1813 3408 
Q 1613 2700 1613 2009 
Q 1613 1319 1811 609 
Q 2009 -100 2413 -844 
z
" transform="scale(0.015625)"/>
     <path id="DejaVuSans-Bold-44" d="M 1791 3756 
L 1791 909 
L 2222 909 
Q 2959 909 3348 1275 
Q 3738 1641 3738 2338 
Q 3738 3031 3350 3393 
Q 2963 3756 2222 3756 
L 1791 3756 
z
M 588 4666 
L 1856 4666 
Q 2919 4666 3439 4514 
Q 3959 4363 4331 4000 
Q 4659 3684 4818 3271 
Q 4978 2859 4978 2338 
Q 4978 1809 4818 1395 
Q 4659 981 4331 666 
Q 3956 303 3431 151 
Q 2906 0 1856 0 
L 588 0 
L 588 4666 
z
" transform="scale(0.015625)"/>
     <path id="DejaVuSans-Bold-69" d="M 538 3500 
L 1656 3500 
L 1656 0 
L 538 0 
L 538 3500 
z
M 538 4863 
L 1656 4863 
L 1656 3950 
L 538 3950 
L 538 4863 
z
" transform="scale(0.015625)"/>
     <path id="DejaVuSans-Bold-63" d="M 3366 3391 
L 3366 2478 
Q 3138 2634 2908 2709 
Q 2678 2784 2431 2784 
Q 1963 2784 1702 2511 
Q 1441 2238 1441 1747 
Q 1441 1256 1702 982 
Q 1963 709 2431 709 
Q 2694 709 2930 787 
Q 3166 866 3366 1019 
L 3366 103 
Q 3103 6 2833 -42 
Q 2563 -91 2291 -91 
Q 1344 -91 809 395 
Q 275 881 275 1747 
Q 275 2613 809 3098 
Q 1344 3584 2291 3584 
Q 2566 3584 2833 3536 
Q 3100 3488 3366 3391 
z
" transform="scale(0.015625)"/>
     <path id="DejaVuSans-Bold-74" d="M 1759 4494 
L 1759 3500 
L 2913 3500 
L 2913 2700 
L 1759 2700 
L 1759 1216 
Q 1759 972 1856 886 
Q 1953 800 2241 800 
L 2816 800 
L 2816 0 
L 1856 0 
Q 1194 0 917 276 
Q 641 553 641 1216 
L 641 2700 
L 84 2700 
L 84 3500 
L 641 3500 
L 641 4494 
L 1759 4494 
z
" transform="scale(0.015625)"/>
     <path id="DejaVuSans-Bold-7a" d="M 366 3500 
L 3419 3500 
L 3419 2719 
L 1575 800 
L 3419 800 
L 3419 0 
L 288 0 
L 288 781 
L 2131 2700 
L 366 2700 
L 366 3500 
z
" transform="scale(0.015625)"/>
     <path id="DejaVuSans-Bold-29" d="M 513 -844 
Q 913 -100 1113 609 
Q 1313 1319 1313 2009 
Q 1313 2700 1113 3408 
Q 913 4116 513 4856 
L 1441 4856 
Q 1916 4091 2145 3389 
Q 2375 2688 2375 2003 
Q 2375 1319 2147 623 
Q 1919 -72 1441 -844 
L 513 -844 
z
" transform="scale(0.015625)"/>
     <path id="DejaVuSans-Bold-7c" d="M 1522 4891 
L 1522 -1509 
L 813 -1509 
L 813 4891 
L 1522 4891 
z
" transform="scale(0.015625)"/>
     <path id="DejaVuSans-Bold-43" d="M 4288 256 
Q 3956 84 3597 -3 
Q 3238 -91 2847 -91 
Q 1681 -91 1000 561 
Q 319 1213 319 2328 
Q 319 3447 1000 4098 
Q 1681 4750 2847 4750 
Q 3238 4750 3597 4662 
Q 3956 4575 4288 4403 
L 4288 3438 
Q 3953 3666 3628 3772 
Q 3303 3878 2944 3878 
Q 2300 3878 1931 3465 
Q 1563 3053 1563 2328 
Q 1563 1606 1931 1193 
Q 2300 781 2944 781 
Q 3303 781 3628 887 
Q 3953 994 4288 1222 
L 4288 256 
z
" transform="scale(0.015625)"/>
     <path id="DejaVuSans-Bold-4d" d="M 588 4666 
L 2119 4666 
L 3181 2169 
L 4250 4666 
L 5778 4666 
L 5778 0 
L 4641 0 
L 4641 3413 
L 3566 897 
L 2803 897 
L 1728 3413 
L 1728 0 
L 588 0 
L 588 4666 
z
" transform="scale(0.015625)"/>
     <path id="DejaVuSans-Bold-55" d="M 588 4666 
L 1791 4666 
L 1791 1869 
Q 1791 1291 1980 1042 
Q 2169 794 2597 794 
Q 3028 794 3217 1042 
Q 3406 1291 3406 1869 
L 3406 4666 
L 4609 4666 
L 4609 1869 
Q 4609 878 4112 393 
Q 3616 -91 2597 -91 
Q 1581 -91 1084 393 
Q 588 878 588 1869 
L 588 4666 
z
" transform="scale(0.015625)"/>
     <path id="DejaVuSans-Bold-4e" d="M 588 4666 
L 1931 4666 
L 3628 1466 
L 3628 4666 
L 4769 4666 
L 4769 0 
L 3425 0 
L 1728 3200 
L 1728 0 
L 588 0 
L 588 4666 
z
" transform="scale(0.015625)"/>
     <path id="DejaVuSans-Bold-41" d="M 3419 850 
L 1538 850 
L 1241 0 
L 31 0 
L 1759 4666 
L 3194 4666 
L 4922 0 
L 3713 0 
L 3419 850 
z
M 1838 1716 
L 3116 1716 
L 2478 3572 
L 1838 1716 
z
" transform="scale(0.015625)"/>
     <path id="DejaVuSans-Bold-67" d="M 2919 594 
Q 2688 288 2409 144 
Q 2131 0 1766 0 
Q 1125 0 706 504 
Q 288 1009 288 1791 
Q 288 2575 706 3076 
Q 1125 3578 1766 3578 
Q 2131 3578 2409 3434 
Q 2688 3291 2919 2981 
L 2919 3500 
L 4044 3500 
L 4044 353 
Q 4044 -491 3511 -936 
Q 2978 -1381 1966 -1381 
Q 1638 -1381 1331 -1331 
Q 1025 -1281 716 -1178 
L 716 -306 
Q 1009 -475 1290 -558 
Q 1572 -641 1856 -641 
Q 2406 -641 2662 -400 
Q 2919 -159 2919 353 
L 2919 594 
z
M 2181 2772 
Q 1834 2772 1640 2515 
Q 1447 2259 1447 1791 
Q 1447 1309 1634 1061 
Q 1822 813 2181 813 
Q 2531 813 2725 1069 
Q 2919 1325 2919 1791 
Q 2919 2259 2725 2515 
Q 2531 2772 2181 2772 
z
" transform="scale(0.015625)"/>
     <path id="DejaVuSans-Bold-2b" d="M 3053 4013 
L 3053 2375 
L 4684 2375 
L 4684 1638 
L 3053 1638 
L 3053 0 
L 2309 0 
L 2309 1638 
L 678 1638 
L 678 2375 
L 2309 2375 
L 2309 4013 
L 3053 4013 
z
" transform="scale(0.015625)"/>
     <path id="DejaVuSans-Bold-79" d="M 78 3500 
L 1197 3500 
L 2138 1125 
L 2938 3500 
L 4056 3500 
L 2584 -331 
Q 2363 -916 2067 -1148 
Q 1772 -1381 1288 -1381 
L 641 -1381 
L 641 -647 
L 991 -647 
Q 1275 -647 1404 -556 
Q 1534 -466 1606 -231 
L 1638 -134 
L 78 3500 
z
" transform="scale(0.015625)"/>
    </defs>
    <use xlink:href="#DejaVuSans-Bold-52"/>
    <use xlink:href="#DejaVuSans-Bold-65" transform="translate(77.001953 0)"/>
    <use xlink:href="#DejaVuSans-Bold-77" transform="translate(144.824219 0)"/>
    <use xlink:href="#DejaVuSans-Bold-61" transform="translate(237.207031 0)"/>
    <use xlink:href="#DejaVuSans-Bold-72" transform="translate(304.6875 0)"/>
    <use xlink:href="#DejaVuSans-Bold-64" transform="translate(354.003906 0)"/>
    <use xlink:href="#DejaVuSans-Bold-73" transform="translate(425.585938 0)"/>
    <use xlink:href="#DejaVuSans-Bold-3a" transform="translate(485.107422 0)"/>
    <use xlink:href="#DejaVuSans-Bold-20" transform="translate(525.097656 0)"/>
    <use xlink:href="#DejaVuSans-Bold-50" transform="translate(559.912109 0)"/>
    <use xlink:href="#DejaVuSans-Bold-65" transform="translate(633.203125 0)"/>
    <use xlink:href="#DejaVuSans-Bold-6e" transform="translate(701.025391 0)"/>
    <use xlink:href="#DejaVuSans-Bold-64" transform="translate(772.216797 0)"/>
    <use xlink:href="#DejaVuSans-Bold-75" transform="translate(843.798828 0)"/>
    <use xlink:href="#DejaVuSans-Bold-6c" transform="translate(914.990234 0)"/>
    <use xlink:href="#DejaVuSans-Bold-75" transform="translate(949.267578 0)"/>
    <use xlink:href="#DejaVuSans-Bold-6d" transform="translate(1020.458984 0)"/>
    <use xlink:href="#DejaVuSans-Bold-2d" transform="translate(1124.658203 0)"/>
    <use xlink:href="#DejaVuSans-Bold-76" transform="translate(1166.162109 0)"/>
    <use xlink:href="#DejaVuSans-Bold-31" transform="translate(1231.347656 0)"/>
    <use xlink:href="#DejaVuSans-Bold-20" transform="translate(1300.927734 0)"/>
    <use xlink:href="#DejaVuSans-Bold-28" transform="translate(1335.742188 0)"/>
    <use xlink:href="#DejaVuSans-Bold-44" transform="translate(1381.445312 0)"/>
    <use xlink:href="#DejaVuSans-Bold-69" transform="translate(1464.453125 0)"/>
    <use xlink:href="#DejaVuSans-Bold-73" transform="translate(1498.730469 0)"/>
    <use xlink:href="#DejaVuSans-Bold-63" transform="translate(1558.251953 0)"/>
    <use xlink:href="#DejaVuSans-Bold-72" transform="translate(1617.529297 0)"/>
    <use xlink:href="#DejaVuSans-Bold-65" transform="translate(1666.845703 0)"/>
    <use xlink:href="#DejaVuSans-Bold-74" transform="translate(1734.667969 0)"/>
    <use xlink:href="#DejaVuSans-Bold-69" transform="translate(1782.470703 0)"/>
    <use xlink:href="#DejaVuSans-Bold-7a" transform="translate(1816.748047 0)"/>
    <use xlink:href="#DejaVuSans-Bold-65" transform="translate(1874.951172 0)"/>
    <use xlink:href="#DejaVuSans-Bold-64" transform="translate(1942.773438 0)"/>
    <use xlink:href="#DejaVuSans-Bold-29" transform="translate(2014.355469 0)"/>
    <use xlink:href="#DejaVuSans-Bold-20" transform="translate(2060.058594 0)"/>
    <use xlink:href="#DejaVuSans-Bold-7c" transform="translate(2094.873047 0)"/>
    <use xlink:href="#DejaVuSans-Bold-20" transform="translate(2131.396484 0)"/>
    <use xlink:href="#DejaVuSans-Bold-43" transform="translate(2166.210938 0)"/>
    <use xlink:href="#DejaVuSans-Bold-4d" transform="translate(2239.599609 0)"/>
    <use xlink:href="#DejaVuSans-Bold-55" transform="translate(2339.111328 0)"/>
    <use xlink:href="#DejaVuSans-Bold-2d" transform="translate(2420.3125 0)"/>
    <use xlink:href="#DejaVuSans-Bold-4e" transform="translate(2461.816406 0)"/>
    <use xlink:href="#DejaVuSans-Bold-65" transform="translate(2545.507812 0)"/>
    <use xlink:href="#DejaVuSans-Bold-74" transform="translate(2613.330078 0)"/>
    <use xlink:href="#DejaVuSans-Bold-20" transform="translate(2661.132812 0)"/>
    <use xlink:href="#DejaVuSans-Bold-28" transform="translate(2695.947266 0)"/>
    <use xlink:href="#DejaVuSans-Bold-41" transform="translate(2741.650391 0)"/>
    <use xlink:href="#DejaVuSans-Bold-6c" transform="translate(2819.042969 0)"/>
    <use xlink:href="#DejaVuSans-Bold-69" transform="translate(2853.320312 0)"/>
    <use xlink:href="#DejaVuSans-Bold-67" transform="translate(2887.597656 0)"/>
    <use xlink:href="#DejaVuSans-Bold-6e" transform="translate(2959.179688 0)"/>
    <use xlink:href="#DejaVuSans-Bold-6d" transform="translate(3030.371094 0)"/>
    <use xlink:href="#DejaVuSans-Bold-65" transform="translate(3134.570312 0)"/>
    <use xlink:href="#DejaVuSans-Bold-6e" transform="translate(3202.392578 0)"/>
    <use xlink:href="#DejaVuSans-Bold-74" transform="translate(3273.583984 0)"/>
    <use xlink:href="#DejaVuSans-Bold-20" transform="translate(3321.386719 0)"/>
    <use xlink:href="#DejaVuSans-Bold-2b" transform="translate(3356.201172 0)"/>
    <use xlink:href="#DejaVuSans-Bold-20" transform="translate(3439.990234 0)"/>
    <use xlink:href="#DejaVuSans-Bold-50" transform="translate(3474.804688 0)"/>
    <use xlink:href="#DejaVuSans-Bold-65" transform="translate(3548.095703 0)"/>
    <use xlink:href="#DejaVuSans-Bold-6e" transform="translate(3615.917969 0)"/>
    <use xlink:href="#DejaVuSans-Bold-61" transform="translate(3687.109375 0)"/>
    <use xlink:href="#DejaVuSans-Bold-6c" transform="translate(3754.589844 0)"/>
    <use xlink:href="#DejaVuSans-Bold-74" transform="translate(3788.867188 0)"/>
    <use xlink:href="#DejaVuSans-Bold-79" transform="translate(3836.669922 0)"/>
    <use xlink:href="#DejaVuSans-Bold-20" transform="translate(3901.855469 0)"/>
    <use xlink:href="#DejaVuSans-Bold-2b" transform="translate(3936.669922 0)"/>
    <use xlink:href="#DejaVuSans-Bold-20" transform="translate(4020.458984 0)"/>
    <use xlink:href="#DejaVuSans-Bold-4d" transform="translate(4055.273438 0)"/>
    <use xlink:href="#DejaVuSans-Bold-61" transform="translate(4154.785156 0)"/>
    <use xlink:href="#DejaVuSans-Bold-72" transform="translate(4222.265625 0)"/>
    <use xlink:href="#DejaVuSans-Bold-67" transform="translate(4271.582031 0)"/>
    <use xlink:href="#DejaVuSans-Bold-69" transform="translate(4343.164062 0)"/>
    <use xlink:href="#DejaVuSans-Bold-6e" transform="translate(4377.441406 0)"/>
    <use xlink:href="#DejaVuSans-Bold-29" transform="translate(4448.632812 0)"/>
   </g>
  </g>
 </g>
 <defs>
  <clipPath id="p3669dc9fc4">
   <rect x="65.63" y="57.0062" width="566.575" height="333.0338"/>
  </clipPath>
 </defs>
</svg>
