<?xml version="1.0" encoding="utf-8" standalone="no"?>
<!DOCTYPE svg PUBLIC "-//W3C//DTD SVG 1.1//EN"
  "http://www.w3.org/Graphics/SVG/1.1/DTD/svg11.dtd">
<svg xmlns:xlink="http://www.w3.org/1999/xlink" width="648pt" height="432pt" viewBox="0 0 648 432" xmlns="http://www.w3.org/2000/svg" version="1.1">
 <metadata>
  <rdf:RDF xmlns:dc="http://purl.org/dc/elements/1.1/" xmlns:cc="http://creativecommons.org/ns#" xmlns:rdf="http://www.w3.org/1999/02/22-rdf-syntax-ns#">
   <cc:Work>
    <dc:type rdf:resource="http://purl.org/dc/dcmitype/StillImage"/>
    <dc:date>2025-07-17T10:28:40.059731</dc:date>
    <dc:format>image/svg+xml</dc:format>
    <dc:creator>
     <cc:Agent>
      <dc:title>Matplotlib v3.10.0, https://matplotlib.org/</dc:title>
     </cc:Agent>
    </dc:creator>
   </cc:Work>
  </rdf:RDF>
 </metadata>
 <defs>
  <style type="text/css">*{stroke-linejoin: round; stroke-linecap: butt}</style>
 </defs>
 <g id="figure_1">
  <g id="patch_1">
   <path d="M 0 432 
L 648 432 
L 648 0 
L 0 0 
z
" style="fill: #ffffff"/>
  </g>
  <g id="axes_1">
   <g id="patch_2">
    <path d="M 65.63 390.04 
L 632.205 390.04 
L 632.205 57.0062 
L 65.63 57.0062 
z
" style="fill: #eaeaf2"/>
   </g>
   <g id="matplotlib.axis_1">
    <g id="xtick_1">
     <g id="line2d_1">
      <path d="M 65.63083 390.04 
L 65.63083 57.0062 
" clip-path="url(#p29b7952680)" style="fill: none; stroke: #ffffff; stroke-width: 0.8; stroke-linecap: round"/>
     </g>
     <g id="text_1">
      <!-- 0.00 -->
      <g style="fill: #262626" transform="translate(54.498017 404.638438) scale(0.1 -0.1)">
       <defs>
        <path id="DejaVuSans-30" d="M 2034 4250 
Q 1547 4250 1301 3770 
Q 1056 3291 1056 2328 
Q 1056 1369 1301 889 
Q 1547 409 2034 409 
Q 2525 409 2770 889 
Q 3016 1369 3016 2328 
Q 3016 3291 2770 3770 
Q 2525 4250 2034 4250 
z
M 2034 4750 
Q 2819 4750 3233 4129 
Q 3647 3509 3647 2328 
Q 3647 1150 3233 529 
Q 2819 -91 2034 -91 
Q 1250 -91 836 529 
Q 422 1150 422 2328 
Q 422 3509 836 4129 
Q 1250 4750 2034 4750 
z
" transform="scale(0.015625)"/>
        <path id="DejaVuSans-2e" d="M 684 794 
L 1344 794 
L 1344 0 
L 684 0 
L 684 794 
z
" transform="scale(0.015625)"/>
       </defs>
       <use xlink:href="#DejaVuSans-30"/>
       <use xlink:href="#DejaVuSans-2e" transform="translate(63.623047 0)"/>
       <use xlink:href="#DejaVuSans-30" transform="translate(95.410156 0)"/>
       <use xlink:href="#DejaVuSans-30" transform="translate(159.033203 0)"/>
      </g>
     </g>
    </g>
    <g id="xtick_2">
     <g id="line2d_2">
      <path d="M 134.792615 390.04 
L 134.792615 57.0062 
" clip-path="url(#p29b7952680)" style="fill: none; stroke: #ffffff; stroke-width: 0.8; stroke-linecap: round"/>
     </g>
     <g id="text_2">
      <!-- 0.25 -->
      <g style="fill: #262626" transform="translate(123.659802 404.638438) scale(0.1 -0.1)">
       <defs>
        <path id="DejaVuSans-32" d="M 1228 531 
L 3431 531 
L 3431 0 
L 469 0 
L 469 531 
Q 828 903 1448 1529 
Q 2069 2156 2228 2338 
Q 2531 2678 2651 2914 
Q 2772 3150 2772 3378 
Q 2772 3750 2511 3984 
Q 2250 4219 1831 4219 
Q 1534 4219 1204 4116 
Q 875 4013 500 3803 
L 500 4441 
Q 881 4594 1212 4672 
Q 1544 4750 1819 4750 
Q 2544 4750 2975 4387 
Q 3406 4025 3406 3419 
Q 3406 3131 3298 2873 
Q 3191 2616 2906 2266 
Q 2828 2175 2409 1742 
Q 1991 1309 1228 531 
z
" transform="scale(0.015625)"/>
        <path id="DejaVuSans-35" d="M 691 4666 
L 3169 4666 
L 3169 4134 
L 1269 4134 
L 1269 2991 
Q 1406 3038 1543 3061 
Q 1681 3084 1819 3084 
Q 2600 3084 3056 2656 
Q 3513 2228 3513 1497 
Q 3513 744 3044 326 
Q 2575 -91 1722 -91 
Q 1428 -91 1123 -41 
Q 819 9 494 109 
L 494 744 
Q 775 591 1075 516 
Q 1375 441 1709 441 
Q 2250 441 2565 725 
Q 2881 1009 2881 1497 
Q 2881 1984 2565 2268 
Q 2250 2553 1709 2553 
Q 1456 2553 1204 2497 
Q 953 2441 691 2322 
L 691 4666 
z
" transform="scale(0.015625)"/>
       </defs>
       <use xlink:href="#DejaVuSans-30"/>
       <use xlink:href="#DejaVuSans-2e" transform="translate(63.623047 0)"/>
       <use xlink:href="#DejaVuSans-32" transform="translate(95.410156 0)"/>
       <use xlink:href="#DejaVuSans-35" transform="translate(159.033203 0)"/>
      </g>
     </g>
    </g>
    <g id="xtick_3">
     <g id="line2d_3">
      <path d="M 203.954399 390.04 
L 203.954399 57.0062 
" clip-path="url(#p29b7952680)" style="fill: none; stroke: #ffffff; stroke-width: 0.8; stroke-linecap: round"/>
     </g>
     <g id="text_3">
      <!-- 0.50 -->
      <g style="fill: #262626" transform="translate(192.821587 404.638438) scale(0.1 -0.1)">
       <use xlink:href="#DejaVuSans-30"/>
       <use xlink:href="#DejaVuSans-2e" transform="translate(63.623047 0)"/>
       <use xlink:href="#DejaVuSans-35" transform="translate(95.410156 0)"/>
       <use xlink:href="#DejaVuSans-30" transform="translate(159.033203 0)"/>
      </g>
     </g>
    </g>
    <g id="xtick_4">
     <g id="line2d_4">
      <path d="M 273.116184 390.04 
L 273.116184 57.0062 
" clip-path="url(#p29b7952680)" style="fill: none; stroke: #ffffff; stroke-width: 0.8; stroke-linecap: round"/>
     </g>
     <g id="text_4">
      <!-- 0.75 -->
      <g style="fill: #262626" transform="translate(261.983371 404.638438) scale(0.1 -0.1)">
       <defs>
        <path id="DejaVuSans-37" d="M 525 4666 
L 3525 4666 
L 3525 4397 
L 1831 0 
L 1172 0 
L 2766 4134 
L 525 4134 
L 525 4666 
z
" transform="scale(0.015625)"/>
       </defs>
       <use xlink:href="#DejaVuSans-30"/>
       <use xlink:href="#DejaVuSans-2e" transform="translate(63.623047 0)"/>
       <use xlink:href="#DejaVuSans-37" transform="translate(95.410156 0)"/>
       <use xlink:href="#DejaVuSans-35" transform="translate(159.033203 0)"/>
      </g>
     </g>
    </g>
    <g id="xtick_5">
     <g id="line2d_5">
      <path d="M 342.277969 390.04 
L 342.277969 57.0062 
" clip-path="url(#p29b7952680)" style="fill: none; stroke: #ffffff; stroke-width: 0.8; stroke-linecap: round"/>
     </g>
     <g id="text_5">
      <!-- 1.00 -->
      <g style="fill: #262626" transform="translate(331.145156 404.638438) scale(0.1 -0.1)">
       <defs>
        <path id="DejaVuSans-31" d="M 794 531 
L 1825 531 
L 1825 4091 
L 703 3866 
L 703 4441 
L 1819 4666 
L 2450 4666 
L 2450 531 
L 3481 531 
L 3481 0 
L 794 0 
L 794 531 
z
" transform="scale(0.015625)"/>
       </defs>
       <use xlink:href="#DejaVuSans-31"/>
       <use xlink:href="#DejaVuSans-2e" transform="translate(63.623047 0)"/>
       <use xlink:href="#DejaVuSans-30" transform="translate(95.410156 0)"/>
       <use xlink:href="#DejaVuSans-30" transform="translate(159.033203 0)"/>
      </g>
     </g>
    </g>
    <g id="xtick_6">
     <g id="line2d_6">
      <path d="M 411.439753 390.04 
L 411.439753 57.0062 
" clip-path="url(#p29b7952680)" style="fill: none; stroke: #ffffff; stroke-width: 0.8; stroke-linecap: round"/>
     </g>
     <g id="text_6">
      <!-- 1.25 -->
      <g style="fill: #262626" transform="translate(400.306941 404.638438) scale(0.1 -0.1)">
       <use xlink:href="#DejaVuSans-31"/>
       <use xlink:href="#DejaVuSans-2e" transform="translate(63.623047 0)"/>
       <use xlink:href="#DejaVuSans-32" transform="translate(95.410156 0)"/>
       <use xlink:href="#DejaVuSans-35" transform="translate(159.033203 0)"/>
      </g>
     </g>
    </g>
    <g id="xtick_7">
     <g id="line2d_7">
      <path d="M 480.601538 390.04 
L 480.601538 57.0062 
" clip-path="url(#p29b7952680)" style="fill: none; stroke: #ffffff; stroke-width: 0.8; stroke-linecap: round"/>
     </g>
     <g id="text_7">
      <!-- 1.50 -->
      <g style="fill: #262626" transform="translate(469.468726 404.638438) scale(0.1 -0.1)">
       <use xlink:href="#DejaVuSans-31"/>
       <use xlink:href="#DejaVuSans-2e" transform="translate(63.623047 0)"/>
       <use xlink:href="#DejaVuSans-35" transform="translate(95.410156 0)"/>
       <use xlink:href="#DejaVuSans-30" transform="translate(159.033203 0)"/>
      </g>
     </g>
    </g>
    <g id="xtick_8">
     <g id="line2d_8">
      <path d="M 549.763323 390.04 
L 549.763323 57.0062 
" clip-path="url(#p29b7952680)" style="fill: none; stroke: #ffffff; stroke-width: 0.8; stroke-linecap: round"/>
     </g>
     <g id="text_8">
      <!-- 1.75 -->
      <g style="fill: #262626" transform="translate(538.63051 404.638438) scale(0.1 -0.1)">
       <use xlink:href="#DejaVuSans-31"/>
       <use xlink:href="#DejaVuSans-2e" transform="translate(63.623047 0)"/>
       <use xlink:href="#DejaVuSans-37" transform="translate(95.410156 0)"/>
       <use xlink:href="#DejaVuSans-35" transform="translate(159.033203 0)"/>
      </g>
     </g>
    </g>
    <g id="xtick_9">
     <g id="line2d_9">
      <path d="M 618.925107 390.04 
L 618.925107 57.0062 
" clip-path="url(#p29b7952680)" style="fill: none; stroke: #ffffff; stroke-width: 0.8; stroke-linecap: round"/>
     </g>
     <g id="text_9">
      <!-- 2.00 -->
      <g style="fill: #262626" transform="translate(607.792295 404.638438) scale(0.1 -0.1)">
       <use xlink:href="#DejaVuSans-32"/>
       <use xlink:href="#DejaVuSans-2e" transform="translate(63.623047 0)"/>
       <use xlink:href="#DejaVuSans-30" transform="translate(95.410156 0)"/>
       <use xlink:href="#DejaVuSans-30" transform="translate(159.033203 0)"/>
      </g>
     </g>
    </g>
    <g id="text_10">
     <!-- Steps -->
     <g style="fill: #262626" transform="translate(334.927656 418.316562) scale(0.1 -0.1)">
      <defs>
       <path id="DejaVuSans-53" d="M 3425 4513 
L 3425 3897 
Q 3066 4069 2747 4153 
Q 2428 4238 2131 4238 
Q 1616 4238 1336 4038 
Q 1056 3838 1056 3469 
Q 1056 3159 1242 3001 
Q 1428 2844 1947 2747 
L 2328 2669 
Q 3034 2534 3370 2195 
Q 3706 1856 3706 1288 
Q 3706 609 3251 259 
Q 2797 -91 1919 -91 
Q 1588 -91 1214 -16 
Q 841 59 441 206 
L 441 856 
Q 825 641 1194 531 
Q 1563 422 1919 422 
Q 2459 422 2753 634 
Q 3047 847 3047 1241 
Q 3047 1584 2836 1778 
Q 2625 1972 2144 2069 
L 1759 2144 
Q 1053 2284 737 2584 
Q 422 2884 422 3419 
Q 422 4038 858 4394 
Q 1294 4750 2059 4750 
Q 2388 4750 2728 4690 
Q 3069 4631 3425 4513 
z
" transform="scale(0.015625)"/>
       <path id="DejaVuSans-74" d="M 1172 4494 
L 1172 3500 
L 2356 3500 
L 2356 3053 
L 1172 3053 
L 1172 1153 
Q 1172 725 1289 603 
Q 1406 481 1766 481 
L 2356 481 
L 2356 0 
L 1766 0 
Q 1100 0 847 248 
Q 594 497 594 1153 
L 594 3053 
L 172 3053 
L 172 3500 
L 594 3500 
L 594 4494 
L 1172 4494 
z
" transform="scale(0.015625)"/>
       <path id="DejaVuSans-65" d="M 3597 1894 
L 3597 1613 
L 953 1613 
Q 991 1019 1311 708 
Q 1631 397 2203 397 
Q 2534 397 2845 478 
Q 3156 559 3463 722 
L 3463 178 
Q 3153 47 2828 -22 
Q 2503 -91 2169 -91 
Q 1331 -91 842 396 
Q 353 884 353 1716 
Q 353 2575 817 3079 
Q 1281 3584 2069 3584 
Q 2775 3584 3186 3129 
Q 3597 2675 3597 1894 
z
M 3022 2063 
Q 3016 2534 2758 2815 
Q 2500 3097 2075 3097 
Q 1594 3097 1305 2825 
Q 1016 2553 972 2059 
L 3022 2063 
z
" transform="scale(0.015625)"/>
       <path id="DejaVuSans-70" d="M 1159 525 
L 1159 -1331 
L 581 -1331 
L 581 3500 
L 1159 3500 
L 1159 2969 
Q 1341 3281 1617 3432 
Q 1894 3584 2278 3584 
Q 2916 3584 3314 3078 
Q 3713 2572 3713 1747 
Q 3713 922 3314 415 
Q 2916 -91 2278 -91 
Q 1894 -91 1617 61 
Q 1341 213 1159 525 
z
M 3116 1747 
Q 3116 2381 2855 2742 
Q 2594 3103 2138 3103 
Q 1681 3103 1420 2742 
Q 1159 2381 1159 1747 
Q 1159 1113 1420 752 
Q 1681 391 2138 391 
Q 2594 391 2855 752 
Q 3116 1113 3116 1747 
z
" transform="scale(0.015625)"/>
       <path id="DejaVuSans-73" d="M 2834 3397 
L 2834 2853 
Q 2591 2978 2328 3040 
Q 2066 3103 1784 3103 
Q 1356 3103 1142 2972 
Q 928 2841 928 2578 
Q 928 2378 1081 2264 
Q 1234 2150 1697 2047 
L 1894 2003 
Q 2506 1872 2764 1633 
Q 3022 1394 3022 966 
Q 3022 478 2636 193 
Q 2250 -91 1575 -91 
Q 1294 -91 989 -36 
Q 684 19 347 128 
L 347 722 
Q 666 556 975 473 
Q 1284 391 1588 391 
Q 1994 391 2212 530 
Q 2431 669 2431 922 
Q 2431 1156 2273 1281 
Q 2116 1406 1581 1522 
L 1381 1569 
Q 847 1681 609 1914 
Q 372 2147 372 2553 
Q 372 3047 722 3315 
Q 1072 3584 1716 3584 
Q 2034 3584 2315 3537 
Q 2597 3491 2834 3397 
z
" transform="scale(0.015625)"/>
      </defs>
      <use xlink:href="#DejaVuSans-53"/>
      <use xlink:href="#DejaVuSans-74" transform="translate(63.476562 0)"/>
      <use xlink:href="#DejaVuSans-65" transform="translate(102.685547 0)"/>
      <use xlink:href="#DejaVuSans-70" transform="translate(164.208984 0)"/>
      <use xlink:href="#DejaVuSans-73" transform="translate(227.685547 0)"/>
     </g>
    </g>
    <g id="text_11">
     <!-- 1e6 -->
     <g style="fill: #262626" transform="translate(613.326875 417.316562) scale(0.1 -0.1)">
      <defs>
       <path id="DejaVuSans-36" d="M 2113 2584 
Q 1688 2584 1439 2293 
Q 1191 2003 1191 1497 
Q 1191 994 1439 701 
Q 1688 409 2113 409 
Q 2538 409 2786 701 
Q 3034 994 3034 1497 
Q 3034 2003 2786 2293 
Q 2538 2584 2113 2584 
z
M 3366 4563 
L 3366 3988 
Q 3128 4100 2886 4159 
Q 2644 4219 2406 4219 
Q 1781 4219 1451 3797 
Q 1122 3375 1075 2522 
Q 1259 2794 1537 2939 
Q 1816 3084 2150 3084 
Q 2853 3084 3261 2657 
Q 3669 2231 3669 1497 
Q 3669 778 3244 343 
Q 2819 -91 2113 -91 
Q 1303 -91 875 529 
Q 447 1150 447 2328 
Q 447 3434 972 4092 
Q 1497 4750 2381 4750 
Q 2619 4750 2861 4703 
Q 3103 4656 3366 4563 
z
" transform="scale(0.015625)"/>
      </defs>
      <use xlink:href="#DejaVuSans-31"/>
      <use xlink:href="#DejaVuSans-65" transform="translate(63.623047 0)"/>
      <use xlink:href="#DejaVuSans-36" transform="translate(125.146484 0)"/>
     </g>
    </g>
   </g>
   <g id="matplotlib.axis_2">
    <g id="ytick_1">
     <g id="line2d_10">
      <path d="M 65.63 390.04 
L 632.205 390.04 
" clip-path="url(#p29b7952680)" style="fill: none; stroke: #ffffff; stroke-width: 0.8; stroke-linecap: round"/>
     </g>
     <g id="text_12">
      <!-- −1600 -->
      <g style="fill: #262626" transform="translate(24.800313 393.839219) scale(0.1 -0.1)">
       <defs>
        <path id="DejaVuSans-2212" d="M 678 2272 
L 4684 2272 
L 4684 1741 
L 678 1741 
L 678 2272 
z
" transform="scale(0.015625)"/>
       </defs>
       <use xlink:href="#DejaVuSans-2212"/>
       <use xlink:href="#DejaVuSans-31" transform="translate(83.789062 0)"/>
       <use xlink:href="#DejaVuSans-36" transform="translate(147.412109 0)"/>
       <use xlink:href="#DejaVuSans-30" transform="translate(211.035156 0)"/>
       <use xlink:href="#DejaVuSans-30" transform="translate(274.658203 0)"/>
      </g>
     </g>
    </g>
    <g id="ytick_2">
     <g id="line2d_11">
      <path d="M 65.63 348.410775 
L 632.205 348.410775 
" clip-path="url(#p29b7952680)" style="fill: none; stroke: #ffffff; stroke-width: 0.8; stroke-linecap: round"/>
     </g>
     <g id="text_13">
      <!-- −1400 -->
      <g style="fill: #262626" transform="translate(24.800313 352.209994) scale(0.1 -0.1)">
       <defs>
        <path id="DejaVuSans-34" d="M 2419 4116 
L 825 1625 
L 2419 1625 
L 2419 4116 
z
M 2253 4666 
L 3047 4666 
L 3047 1625 
L 3713 1625 
L 3713 1100 
L 3047 1100 
L 3047 0 
L 2419 0 
L 2419 1100 
L 313 1100 
L 313 1709 
L 2253 4666 
z
" transform="scale(0.015625)"/>
       </defs>
       <use xlink:href="#DejaVuSans-2212"/>
       <use xlink:href="#DejaVuSans-31" transform="translate(83.789062 0)"/>
       <use xlink:href="#DejaVuSans-34" transform="translate(147.412109 0)"/>
       <use xlink:href="#DejaVuSans-30" transform="translate(211.035156 0)"/>
       <use xlink:href="#DejaVuSans-30" transform="translate(274.658203 0)"/>
      </g>
     </g>
    </g>
    <g id="ytick_3">
     <g id="line2d_12">
      <path d="M 65.63 306.78155 
L 632.205 306.78155 
" clip-path="url(#p29b7952680)" style="fill: none; stroke: #ffffff; stroke-width: 0.8; stroke-linecap: round"/>
     </g>
     <g id="text_14">
      <!-- −1200 -->
      <g style="fill: #262626" transform="translate(24.800313 310.580769) scale(0.1 -0.1)">
       <use xlink:href="#DejaVuSans-2212"/>
       <use xlink:href="#DejaVuSans-31" transform="translate(83.789062 0)"/>
       <use xlink:href="#DejaVuSans-32" transform="translate(147.412109 0)"/>
       <use xlink:href="#DejaVuSans-30" transform="translate(211.035156 0)"/>
       <use xlink:href="#DejaVuSans-30" transform="translate(274.658203 0)"/>
      </g>
     </g>
    </g>
    <g id="ytick_4">
     <g id="line2d_13">
      <path d="M 65.63 265.152325 
L 632.205 265.152325 
" clip-path="url(#p29b7952680)" style="fill: none; stroke: #ffffff; stroke-width: 0.8; stroke-linecap: round"/>
     </g>
     <g id="text_15">
      <!-- −1000 -->
      <g style="fill: #262626" transform="translate(24.800313 268.951544) scale(0.1 -0.1)">
       <use xlink:href="#DejaVuSans-2212"/>
       <use xlink:href="#DejaVuSans-31" transform="translate(83.789062 0)"/>
       <use xlink:href="#DejaVuSans-30" transform="translate(147.412109 0)"/>
       <use xlink:href="#DejaVuSans-30" transform="translate(211.035156 0)"/>
       <use xlink:href="#DejaVuSans-30" transform="translate(274.658203 0)"/>
      </g>
     </g>
    </g>
    <g id="ytick_5">
     <g id="line2d_14">
      <path d="M 65.63 223.5231 
L 632.205 223.5231 
" clip-path="url(#p29b7952680)" style="fill: none; stroke: #ffffff; stroke-width: 0.8; stroke-linecap: round"/>
     </g>
     <g id="text_16">
      <!-- −800 -->
      <g style="fill: #262626" transform="translate(31.162813 227.322319) scale(0.1 -0.1)">
       <defs>
        <path id="DejaVuSans-38" d="M 2034 2216 
Q 1584 2216 1326 1975 
Q 1069 1734 1069 1313 
Q 1069 891 1326 650 
Q 1584 409 2034 409 
Q 2484 409 2743 651 
Q 3003 894 3003 1313 
Q 3003 1734 2745 1975 
Q 2488 2216 2034 2216 
z
M 1403 2484 
Q 997 2584 770 2862 
Q 544 3141 544 3541 
Q 544 4100 942 4425 
Q 1341 4750 2034 4750 
Q 2731 4750 3128 4425 
Q 3525 4100 3525 3541 
Q 3525 3141 3298 2862 
Q 3072 2584 2669 2484 
Q 3125 2378 3379 2068 
Q 3634 1759 3634 1313 
Q 3634 634 3220 271 
Q 2806 -91 2034 -91 
Q 1263 -91 848 271 
Q 434 634 434 1313 
Q 434 1759 690 2068 
Q 947 2378 1403 2484 
z
M 1172 3481 
Q 1172 3119 1398 2916 
Q 1625 2713 2034 2713 
Q 2441 2713 2670 2916 
Q 2900 3119 2900 3481 
Q 2900 3844 2670 4047 
Q 2441 4250 2034 4250 
Q 1625 4250 1398 4047 
Q 1172 3844 1172 3481 
z
" transform="scale(0.015625)"/>
       </defs>
       <use xlink:href="#DejaVuSans-2212"/>
       <use xlink:href="#DejaVuSans-38" transform="translate(83.789062 0)"/>
       <use xlink:href="#DejaVuSans-30" transform="translate(147.412109 0)"/>
       <use xlink:href="#DejaVuSans-30" transform="translate(211.035156 0)"/>
      </g>
     </g>
    </g>
    <g id="ytick_6">
     <g id="line2d_15">
      <path d="M 65.63 181.893875 
L 632.205 181.893875 
" clip-path="url(#p29b7952680)" style="fill: none; stroke: #ffffff; stroke-width: 0.8; stroke-linecap: round"/>
     </g>
     <g id="text_17">
      <!-- −600 -->
      <g style="fill: #262626" transform="translate(31.162813 185.693094) scale(0.1 -0.1)">
       <use xlink:href="#DejaVuSans-2212"/>
       <use xlink:href="#DejaVuSans-36" transform="translate(83.789062 0)"/>
       <use xlink:href="#DejaVuSans-30" transform="translate(147.412109 0)"/>
       <use xlink:href="#DejaVuSans-30" transform="translate(211.035156 0)"/>
      </g>
     </g>
    </g>
    <g id="ytick_7">
     <g id="line2d_16">
      <path d="M 65.63 140.26465 
L 632.205 140.26465 
" clip-path="url(#p29b7952680)" style="fill: none; stroke: #ffffff; stroke-width: 0.8; stroke-linecap: round"/>
     </g>
     <g id="text_18">
      <!-- −400 -->
      <g style="fill: #262626" transform="translate(31.162813 144.063869) scale(0.1 -0.1)">
       <use xlink:href="#DejaVuSans-2212"/>
       <use xlink:href="#DejaVuSans-34" transform="translate(83.789062 0)"/>
       <use xlink:href="#DejaVuSans-30" transform="translate(147.412109 0)"/>
       <use xlink:href="#DejaVuSans-30" transform="translate(211.035156 0)"/>
      </g>
     </g>
    </g>
    <g id="ytick_8">
     <g id="line2d_17">
      <path d="M 65.63 98.635425 
L 632.205 98.635425 
" clip-path="url(#p29b7952680)" style="fill: none; stroke: #ffffff; stroke-width: 0.8; stroke-linecap: round"/>
     </g>
     <g id="text_19">
      <!-- −200 -->
      <g style="fill: #262626" transform="translate(31.162813 102.434644) scale(0.1 -0.1)">
       <use xlink:href="#DejaVuSans-2212"/>
       <use xlink:href="#DejaVuSans-32" transform="translate(83.789062 0)"/>
       <use xlink:href="#DejaVuSans-30" transform="translate(147.412109 0)"/>
       <use xlink:href="#DejaVuSans-30" transform="translate(211.035156 0)"/>
      </g>
     </g>
    </g>
    <g id="ytick_9">
     <g id="line2d_18">
      <path d="M 65.63 57.0062 
L 632.205 57.0062 
" clip-path="url(#p29b7952680)" style="fill: none; stroke: #ffffff; stroke-width: 0.8; stroke-linecap: round"/>
     </g>
     <g id="text_20">
      <!-- 0 -->
      <g style="fill: #262626" transform="translate(52.2675 60.805419) scale(0.1 -0.1)">
       <use xlink:href="#DejaVuSans-30"/>
      </g>
     </g>
    </g>
    <g id="text_21">
     <!-- Reward -->
     <g style="fill: #262626" transform="translate(18.720625 242.144194) rotate(-90) scale(0.1 -0.1)">
      <defs>
       <path id="DejaVuSans-52" d="M 2841 2188 
Q 3044 2119 3236 1894 
Q 3428 1669 3622 1275 
L 4263 0 
L 3584 0 
L 2988 1197 
Q 2756 1666 2539 1819 
Q 2322 1972 1947 1972 
L 1259 1972 
L 1259 0 
L 628 0 
L 628 4666 
L 2053 4666 
Q 2853 4666 3247 4331 
Q 3641 3997 3641 3322 
Q 3641 2881 3436 2590 
Q 3231 2300 2841 2188 
z
M 1259 4147 
L 1259 2491 
L 2053 2491 
Q 2509 2491 2742 2702 
Q 2975 2913 2975 3322 
Q 2975 3731 2742 3939 
Q 2509 4147 2053 4147 
L 1259 4147 
z
" transform="scale(0.015625)"/>
       <path id="DejaVuSans-77" d="M 269 3500 
L 844 3500 
L 1563 769 
L 2278 3500 
L 2956 3500 
L 3675 769 
L 4391 3500 
L 4966 3500 
L 4050 0 
L 3372 0 
L 2619 2869 
L 1863 0 
L 1184 0 
L 269 3500 
z
" transform="scale(0.015625)"/>
       <path id="DejaVuSans-61" d="M 2194 1759 
Q 1497 1759 1228 1600 
Q 959 1441 959 1056 
Q 959 750 1161 570 
Q 1363 391 1709 391 
Q 2188 391 2477 730 
Q 2766 1069 2766 1631 
L 2766 1759 
L 2194 1759 
z
M 3341 1997 
L 3341 0 
L 2766 0 
L 2766 531 
Q 2569 213 2275 61 
Q 1981 -91 1556 -91 
Q 1019 -91 701 211 
Q 384 513 384 1019 
Q 384 1609 779 1909 
Q 1175 2209 1959 2209 
L 2766 2209 
L 2766 2266 
Q 2766 2663 2505 2880 
Q 2244 3097 1772 3097 
Q 1472 3097 1187 3025 
Q 903 2953 641 2809 
L 641 3341 
Q 956 3463 1253 3523 
Q 1550 3584 1831 3584 
Q 2591 3584 2966 3190 
Q 3341 2797 3341 1997 
z
" transform="scale(0.015625)"/>
       <path id="DejaVuSans-72" d="M 2631 2963 
Q 2534 3019 2420 3045 
Q 2306 3072 2169 3072 
Q 1681 3072 1420 2755 
Q 1159 2438 1159 1844 
L 1159 0 
L 581 0 
L 581 3500 
L 1159 3500 
L 1159 2956 
Q 1341 3275 1631 3429 
Q 1922 3584 2338 3584 
Q 2397 3584 2469 3576 
Q 2541 3569 2628 3553 
L 2631 2963 
z
" transform="scale(0.015625)"/>
       <path id="DejaVuSans-64" d="M 2906 2969 
L 2906 4863 
L 3481 4863 
L 3481 0 
L 2906 0 
L 2906 525 
Q 2725 213 2448 61 
Q 2172 -91 1784 -91 
Q 1150 -91 751 415 
Q 353 922 353 1747 
Q 353 2572 751 3078 
Q 1150 3584 1784 3584 
Q 2172 3584 2448 3432 
Q 2725 3281 2906 2969 
z
M 947 1747 
Q 947 1113 1208 752 
Q 1469 391 1925 391 
Q 2381 391 2643 752 
Q 2906 1113 2906 1747 
Q 2906 2381 2643 2742 
Q 2381 3103 1925 3103 
Q 1469 3103 1208 2742 
Q 947 2381 947 1747 
z
" transform="scale(0.015625)"/>
      </defs>
      <use xlink:href="#DejaVuSans-52"/>
      <use xlink:href="#DejaVuSans-65" transform="translate(64.982422 0)"/>
      <use xlink:href="#DejaVuSans-77" transform="translate(126.505859 0)"/>
      <use xlink:href="#DejaVuSans-61" transform="translate(208.292969 0)"/>
      <use xlink:href="#DejaVuSans-72" transform="translate(269.572266 0)"/>
      <use xlink:href="#DejaVuSans-64" transform="translate(308.935547 0)"/>
     </g>
    </g>
   </g>
   <g id="FillBetweenPolyCollection_1">
    <path d="M 65.63083 312.678922 
L 65.63083 327.199763 
L 71.296563 312.541537 
L 76.962297 305.150104 
L 82.62803 314.528448 
L 88.293764 315.014999 
L 93.959497 307.282539 
L 99.62523 302.202337 
L 105.290964 314.641035 
L 110.956697 304.269038 
L 116.622431 323.20547 
L 122.288164 312.88845 
L 127.953897 314.261169 
L 133.619631 311.570819 
L 139.285364 310.243693 
L 144.951098 300.694413 
L 150.616831 299.997998 
L 156.282564 299.216078 
L 161.948298 289.751925 
L 167.614031 282.088572 
L 173.279765 290.59634 
L 178.945498 275.424932 
L 184.611231 277.152071 
L 190.276965 255.320674 
L 195.942698 251.686629 
L 201.608432 250.17595 
L 207.274165 247.579128 
L 212.939898 238.886 
L 218.605632 248.861888 
L 224.271365 236.301996 
L 229.937099 235.957467 
L 235.602832 240.529529 
L 241.268565 227.696906 
L 246.934299 215.856039 
L 252.600032 224.964091 
L 258.265766 235.830722 
L 263.931499 230.525026 
L 269.597232 223.809062 
L 275.262966 230.538577 
L 280.928699 230.403597 
L 286.594433 227.894425 
L 292.260166 216.114495 
L 297.925899 227.752999 
L 303.591633 217.343862 
L 309.257366 217.339658 
L 314.9231 216.063709 
L 320.588833 211.046648 
L 326.254566 198.499614 
L 331.9203 195.606285 
L 337.586033 206.014151 
L 343.251767 207.015182 
L 348.9175 230.051368 
L 354.583233 207.973633 
L 360.248967 216.008135 
L 365.9147 204.518905 
L 371.580434 201.08983 
L 377.246167 203.901032 
L 382.9119 216.696092 
L 388.577634 203.547798 
L 394.243367 214.856778 
L 399.909101 191.966281 
L 405.574834 195.738896 
L 411.240567 207.929376 
L 416.906301 192.578508 
L 422.572034 180.960037 
L 428.237768 190.889997 
L 433.903501 211.864302 
L 439.569234 210.616527 
L 445.234968 211.809143 
L 450.900701 206.883837 
L 456.566435 190.196162 
L 462.232168 215.383685 
L 467.897901 191.218496 
L 473.563635 220.282581 
L 479.229368 196.675458 
L 484.895102 198.191329 
L 490.560835 192.851059 
L 496.226568 181.561397 
L 501.892302 203.077846 
L 507.558035 199.943001 
L 513.223769 198.13745 
L 518.889502 181.935028 
L 524.555235 181.481354 
L 530.220969 179.403541 
L 535.886702 165.647038 
L 541.552436 179.601282 
L 547.218169 183.765177 
L 552.883902 169.902405 
L 558.549636 153.116189 
L 564.215369 203.898571 
L 569.881103 173.754351 
L 575.546836 170.380482 
L 581.212569 158.254556 
L 586.878303 173.954094 
L 592.544036 142.288425 
L 598.20977 146.802631 
L 603.875503 138.001797 
L 609.541236 138.623866 
L 615.20697 117.777032 
L 620.872703 104.802144 
L 626.538437 112.049614 
L 626.538437 81.155906 
L 626.538437 81.155906 
L 620.872703 84.916702 
L 615.20697 83.380525 
L 609.541236 74.721497 
L 603.875503 80.718106 
L 598.20977 74.308449 
L 592.544036 79.684321 
L 586.878303 64.918337 
L 581.212569 70.599039 
L 575.546836 70.775694 
L 569.881103 62.816223 
L 564.215369 56.580907 
L 558.549636 74.796471 
L 552.883902 69.536305 
L 547.218169 64.913713 
L 541.552436 65.109162 
L 535.886702 70.905805 
L 530.220969 67.329198 
L 524.555235 66.593393 
L 518.889502 68.370779 
L 513.223769 64.191078 
L 507.558035 68.767544 
L 501.892302 64.284572 
L 496.226568 76.610265 
L 490.560835 79.623149 
L 484.895102 66.234469 
L 479.229368 77.857245 
L 473.563635 79.44474 
L 467.897901 80.38121 
L 462.232168 70.867471 
L 456.566435 66.026453 
L 450.900701 64.124715 
L 445.234968 80.612688 
L 439.569234 59.750251 
L 433.903501 64.430423 
L 428.237768 59.847536 
L 422.572034 62.477517 
L 416.906301 63.889011 
L 411.240567 67.353982 
L 405.574834 59.458367 
L 399.909101 64.024407 
L 394.243367 59.957638 
L 388.577634 61.660335 
L 382.9119 55.937436 
L 377.246167 63.659334 
L 371.580434 68.179686 
L 365.9147 69.687274 
L 360.248967 62.34603 
L 354.583233 66.426665 
L 348.9175 62.64322 
L 343.251767 72.569381 
L 337.586033 68.099126 
L 331.9203 69.041542 
L 326.254566 69.138129 
L 320.588833 73.307655 
L 314.9231 67.646489 
L 309.257366 73.503258 
L 303.591633 72.689495 
L 297.925899 68.787296 
L 292.260166 79.154112 
L 286.594433 78.45811 
L 280.928699 76.202693 
L 275.262966 90.502319 
L 269.597232 91.434977 
L 263.931499 79.508352 
L 258.265766 102.590106 
L 252.600032 96.513669 
L 246.934299 111.902392 
L 241.268565 107.017546 
L 235.602832 108.729016 
L 229.937099 126.700266 
L 224.271365 125.213808 
L 218.605632 124.920196 
L 212.939898 137.530148 
L 207.274165 155.175886 
L 201.608432 178.240045 
L 195.942698 188.084271 
L 190.276965 206.073404 
L 184.611231 215.023413 
L 178.945498 223.05817 
L 173.279765 230.892151 
L 167.614031 233.947364 
L 161.948298 245.945973 
L 156.282564 247.48755 
L 150.616831 251.496172 
L 144.951098 257.494934 
L 139.285364 266.861834 
L 133.619631 263.540961 
L 127.953897 269.367578 
L 122.288164 286.005397 
L 116.622431 278.233484 
L 110.956697 281.944 
L 105.290964 278.615192 
L 99.62523 283.165233 
L 93.959497 285.948142 
L 88.293764 293.511407 
L 82.62803 296.837218 
L 76.962297 287.408401 
L 71.296563 298.337189 
L 65.63083 312.678922 
z
" clip-path="url(#p29b7952680)" style="fill: #0000ff; fill-opacity: 0.1"/>
   </g>
   <g id="line2d_19">
    <path d="M 65.63083 319.939342 
L 71.296563 305.439363 
L 76.962297 296.279252 
L 82.62803 305.682833 
L 88.293764 304.263203 
L 93.959497 296.615341 
L 99.62523 292.683785 
L 105.290964 296.628113 
L 110.956697 293.106519 
L 116.622431 300.719477 
L 122.288164 299.446924 
L 127.953897 291.814373 
L 133.619631 287.55589 
L 139.285364 288.552763 
L 144.951098 279.094673 
L 150.616831 275.747085 
L 156.282564 273.351814 
L 161.948298 267.848949 
L 167.614031 258.017968 
L 173.279765 260.744245 
L 178.945498 249.241551 
L 184.611231 246.087742 
L 190.276965 230.697039 
L 195.942698 219.88545 
L 201.608432 214.207998 
L 207.274165 201.377507 
L 212.939898 188.208074 
L 218.605632 186.891042 
L 224.271365 180.757902 
L 229.937099 181.328866 
L 235.602832 174.629272 
L 241.268565 167.357226 
L 246.934299 163.879215 
L 252.600032 160.73888 
L 258.265766 169.210414 
L 263.931499 155.016689 
L 269.597232 157.622019 
L 275.262966 160.520448 
L 280.928699 153.303145 
L 286.594433 153.176268 
L 292.260166 147.634303 
L 297.925899 148.270148 
L 303.591633 145.016679 
L 309.257366 145.421458 
L 314.9231 141.855099 
L 320.588833 142.177152 
L 326.254566 133.818872 
L 331.9203 132.323914 
L 337.586033 137.056639 
L 343.251767 139.792282 
L 348.9175 146.347294 
L 354.583233 137.200149 
L 360.248967 139.177083 
L 365.9147 137.10309 
L 371.580434 134.634758 
L 377.246167 133.780183 
L 382.9119 136.316764 
L 388.577634 132.604066 
L 394.243367 137.407208 
L 399.909101 127.995344 
L 405.574834 127.598631 
L 411.240567 137.641679 
L 416.906301 128.23376 
L 422.572034 121.718777 
L 428.237768 125.368766 
L 433.903501 138.147363 
L 439.569234 135.183389 
L 445.234968 146.210915 
L 450.900701 135.504276 
L 456.566435 128.111308 
L 462.232168 143.125578 
L 467.897901 135.799853 
L 473.563635 149.86366 
L 479.229368 137.266352 
L 484.895102 132.212899 
L 490.560835 136.237104 
L 496.226568 129.085831 
L 501.892302 133.681209 
L 507.558035 134.355272 
L 513.223769 131.164264 
L 518.889502 125.152904 
L 524.555235 124.037374 
L 530.220969 123.366369 
L 535.886702 118.276422 
L 541.552436 122.355222 
L 547.218169 124.339445 
L 552.883902 119.719355 
L 558.549636 113.95633 
L 564.215369 130.239739 
L 569.881103 118.285287 
L 575.546836 120.578088 
L 581.212569 114.426798 
L 586.878303 119.436216 
L 592.544036 110.986373 
L 598.20977 110.55554 
L 603.875503 109.359951 
L 609.541236 106.672681 
L 615.20697 100.578778 
L 620.872703 94.859423 
L 626.538437 96.60276 
" clip-path="url(#p29b7952680)" style="fill: none; stroke: #0000ff; stroke-width: 1.5; stroke-linecap: round"/>
   </g>
   <g id="line2d_20">
    <path d="M 65.63083 312.195303 
L 71.296563 305.16626 
L 76.962297 303.665985 
L 82.62803 303.390845 
L 88.293764 313.107588 
L 93.959497 312.393487 
L 99.62523 286.713901 
L 105.290964 281.619849 
L 110.956697 297.332746 
L 116.622431 290.529636 
L 122.288164 290.43114 
L 127.953897 277.654495 
L 133.619631 261.443864 
L 139.285364 275.157594 
L 144.951098 257.949 
L 150.616831 252.608765 
L 156.282564 249.122691 
L 161.948298 256.844427 
L 167.614031 232.60036 
L 173.279765 243.270628 
L 178.945498 234.003892 
L 184.611231 226.070307 
L 190.276965 227.480276 
L 195.942698 209.090267 
L 201.608432 195.725685 
L 207.274165 180.409387 
L 212.939898 159.679377 
L 218.605632 169.434709 
L 224.271365 147.274621 
L 229.937099 131.412802 
L 235.602832 121.242367 
L 241.268565 114.623473 
L 246.934299 117.861749 
L 252.600032 122.947142 
L 258.265766 154.291509 
L 263.931499 119.489941 
L 269.597232 142.395356 
L 275.262966 125.627771 
L 280.928699 138.040437 
L 286.594433 100.08599 
L 292.260166 112.587613 
L 297.925899 113.519734 
L 303.591633 113.147208 
L 309.257366 122.558793 
L 314.9231 102.450985 
L 320.588833 110.84437 
L 326.254566 103.476354 
L 331.9203 103.06097 
L 337.586033 99.609672 
L 343.251767 109.813614 
L 348.9175 104.737226 
L 354.583233 102.018863 
L 360.248967 103.162035 
L 365.9147 91.647277 
L 371.580434 106.717078 
L 377.246167 92.763392 
L 382.9119 96.529639 
L 388.577634 97.846619 
L 394.243367 94.413738 
L 399.909101 106.800006 
L 405.574834 91.44801 
L 411.240567 113.592793 
L 416.906301 97.037997 
L 422.572034 93.056193 
L 428.237768 88.507666 
L 433.903501 107.748119 
L 439.569234 97.232296 
L 445.234968 98.871054 
L 450.900701 102.393155 
L 456.566435 92.749413 
L 462.232168 99.923786 
L 467.897901 97.78874 
L 473.563635 98.052799 
L 479.229368 94.423615 
L 484.895102 78.908092 
L 490.560835 100.959885 
L 496.226568 95.134063 
L 501.892302 90.094094 
L 507.558035 93.289437 
L 513.223769 86.352266 
L 518.889502 88.831712 
L 524.555235 85.255728 
L 530.220969 100.96359 
L 535.886702 92.291617 
L 541.552436 93.999207 
L 547.218169 93.820636 
L 552.883902 93.671148 
L 558.549636 95.635902 
L 564.215369 92.199537 
L 569.881103 90.387758 
L 575.546836 99.297204 
L 581.212569 91.322687 
L 586.878303 97.515077 
L 592.544036 89.30218 
L 598.20977 89.851186 
L 603.875503 91.524407 
L 609.541236 91.402641 
L 615.20697 92.741815 
L 620.872703 85.048008 
L 626.538437 89.019777 
" clip-path="url(#p29b7952680)" style="fill: none; stroke: #008000; stroke-opacity: 0.2; stroke-linecap: round"/>
   </g>
   <g id="line2d_21">
    <path d="M 65.63083 320.73772 
L 71.296563 299.805331 
L 76.962297 301.45408 
L 82.62803 300.479159 
L 88.293764 288.556359 
L 93.959497 287.192491 
L 99.62523 282.072209 
L 105.290964 287.536218 
L 110.956697 271.830517 
L 116.622431 264.975176 
L 122.288164 278.884596 
L 127.953897 267.417168 
L 133.619631 267.408286 
L 139.285364 260.334158 
L 144.951098 256.685971 
L 150.616831 252.700608 
L 156.282564 241.242582 
L 161.948298 237.936688 
L 167.614031 226.706037 
L 173.279765 221.252902 
L 178.945498 213.011825 
L 184.611231 211.070071 
L 190.276965 199.309736 
L 195.942698 180.406482 
L 201.608432 161.68514 
L 207.274165 153.631795 
L 212.939898 123.283 
L 218.605632 112.181593 
L 224.271365 127.275139 
L 229.937099 150.942609 
L 235.602832 134.175841 
L 241.268565 142.618635 
L 246.934299 161.044749 
L 252.600032 140.143815 
L 258.265766 162.901732 
L 263.931499 129.537307 
L 269.597232 132.914284 
L 275.262966 133.153813 
L 280.928699 116.966636 
L 286.594433 145.009069 
L 292.260166 140.286133 
L 297.925899 115.897517 
L 303.591633 105.800405 
L 309.257366 112.04938 
L 314.9231 117.769721 
L 320.588833 126.498762 
L 326.254566 108.112068 
L 331.9203 101.08895 
L 337.586033 106.249058 
L 343.251767 115.575302 
L 348.9175 103.582672 
L 354.583233 108.996754 
L 360.248967 101.201264 
L 365.9147 114.393231 
L 371.580434 113.78543 
L 377.246167 110.146401 
L 382.9119 97.747753 
L 388.577634 95.453793 
L 394.243367 109.720412 
L 399.909101 101.847632 
L 405.574834 103.343581 
L 411.240567 94.779554 
L 416.906301 100.521555 
L 422.572034 99.590536 
L 428.237768 97.821878 
L 433.903501 104.738527 
L 439.569234 96.52194 
L 445.234968 105.583394 
L 450.900701 88.2176 
L 456.566435 92.586227 
L 462.232168 148.264635 
L 467.897901 144.317611 
L 473.563635 179.273779 
L 479.229368 141.224026 
L 484.895102 141.44862 
L 490.560835 166.219606 
L 496.226568 141.064922 
L 501.892302 132.554011 
L 507.558035 140.345082 
L 513.223769 117.727989 
L 518.889502 113.561724 
L 524.555235 97.906677 
L 530.220969 96.645794 
L 535.886702 100.357005 
L 541.552436 97.672139 
L 547.218169 93.011317 
L 552.883902 91.894274 
L 558.549636 93.855632 
L 564.215369 97.23143 
L 569.881103 99.648473 
L 575.546836 95.349665 
L 581.212569 89.824174 
L 586.878303 85.910804 
L 592.544036 94.008591 
L 598.20977 94.752744 
L 603.875503 94.150217 
L 609.541236 93.692952 
L 615.20697 93.623194 
L 620.872703 88.032431 
L 626.538437 83.572867 
" clip-path="url(#p29b7952680)" style="fill: none; stroke: #008000; stroke-opacity: 0.2; stroke-linecap: round"/>
   </g>
   <g id="line2d_22">
    <path d="M 65.63083 333.329389 
L 71.296563 314.513965 
L 76.962297 304.818862 
L 82.62803 293.402401 
L 88.293764 305.02674 
L 93.959497 306.425241 
L 99.62523 300.144478 
L 105.290964 278.04112 
L 110.956697 295.192821 
L 116.622431 305.586345 
L 122.288164 305.629962 
L 127.953897 320.351501 
L 133.619631 293.136179 
L 139.285364 305.520402 
L 144.951098 306.12494 
L 150.616831 308.163558 
L 156.282564 312.723435 
L 161.948298 296.548435 
L 167.614031 279.695967 
L 173.279765 297.205877 
L 178.945498 274.972299 
L 184.611231 292.806015 
L 190.276965 261.531327 
L 195.942698 273.4337 
L 201.608432 261.548486 
L 207.274165 264.973699 
L 212.939898 260.157743 
L 218.605632 286.02001 
L 224.271365 267.078923 
L 229.937099 282.559518 
L 235.602832 293.128787 
L 241.268565 280.718065 
L 246.934299 259.317915 
L 252.600032 288.628912 
L 258.265766 296.596081 
L 263.931499 304.030617 
L 269.597232 287.509825 
L 275.262966 299.274592 
L 280.928699 305.342256 
L 286.594433 299.495568 
L 292.260166 281.66065 
L 297.925899 306.712067 
L 303.591633 289.534772 
L 309.257366 288.233723 
L 314.9231 289.640555 
L 320.588833 277.768609 
L 326.254566 262.854577 
L 331.9203 258.570718 
L 337.586033 274.42473 
L 343.251767 272.998557 
L 348.9175 313.719667 
L 354.583233 278.501139 
L 360.248967 292.763743 
L 365.9147 271.013871 
L 371.580434 266.462201 
L 377.246167 273.502243 
L 382.9119 296.71719 
L 388.577634 274.435045 
L 394.243367 291.890457 
L 399.909101 255.070266 
L 405.574834 263.499978 
L 411.240567 277.266969 
L 416.906301 256.812477 
L 422.572034 239.805436 
L 428.237768 256.123478 
L 433.903501 285.192417 
L 439.569234 286.011214 
L 445.234968 269.390825 
L 450.900701 277.537894 
L 456.566435 251.737182 
L 462.232168 281.501173 
L 467.897901 240.631151 
L 473.563635 275.869813 
L 479.229368 251.176096 
L 484.895102 256.92761 
L 490.560835 234.044374 
L 496.226568 226.991898 
L 501.892302 268.332248 
L 507.558035 259.699496 
L 513.223769 263.443347 
L 518.889502 237.292244 
L 524.555235 238.309988 
L 530.220969 235.224667 
L 535.886702 212.707937 
L 541.552436 236.745378 
L 547.218169 242.843727 
L 552.883902 220.017802 
L 558.549636 192.025011 
L 564.215369 277.503723 
L 569.881103 228.408755 
L 575.546836 220.099838 
L 581.212569 201.98576 
L 586.878303 227.972928 
L 592.544036 172.7558 
L 598.20977 182.943459 
L 603.875503 166.298999 
L 609.541236 170.460712 
L 615.20697 134.356336 
L 620.872703 113.54129 
L 626.538437 126.908942 
" clip-path="url(#p29b7952680)" style="fill: none; stroke: #008000; stroke-opacity: 0.2; stroke-linecap: round"/>
   </g>
   <g id="line2d_23">
    <path d="M 65.63083 317.921852 
L 71.296563 295.700182 
L 76.962297 282.850929 
L 82.62803 318.074589 
L 88.293764 296.498411 
L 93.959497 290.001523 
L 99.62523 287.058076 
L 105.290964 312.593805 
L 110.956697 296.335347 
L 116.622431 309.428043 
L 122.288164 304.534436 
L 127.953897 276.09997 
L 133.619631 286.247508 
L 139.285364 281.06239 
L 144.951098 271.289746 
L 150.616831 263.54721 
L 156.282564 277.79241 
L 161.948298 258.392134 
L 167.614031 265.893939 
L 173.279765 248.069938 
L 178.945498 241.017106 
L 184.611231 228.100665 
L 190.276965 209.362887 
L 195.942698 202.300435 
L 201.608432 205.460118 
L 207.274165 159.799815 
L 212.939898 164.289236 
L 218.605632 141.786688 
L 224.271365 136.400053 
L 229.937099 148.062951 
L 235.602832 124.343097 
L 241.268565 123.753024 
L 246.934299 116.207555 
L 252.600032 126.622489 
L 258.265766 110.340133 
L 263.931499 94.913743 
L 269.597232 104.140907 
L 275.262966 108.711726 
L 280.928699 105.219678 
L 286.594433 109.739819 
L 292.260166 103.266135 
L 297.925899 97.196382 
L 303.591633 105.068312 
L 309.257366 108.518768 
L 314.9231 97.663395 
L 320.588833 88.421133 
L 326.254566 100.699433 
L 331.9203 92.680582 
L 337.586033 111.609673 
L 343.251767 89.238045 
L 348.9175 107.478095 
L 354.583233 96.024986 
L 360.248967 102.477475 
L 365.9147 109.18964 
L 371.580434 97.53733 
L 377.246167 97.589134 
L 382.9119 103.651303 
L 388.577634 94.797715 
L 394.243367 96.070411 
L 399.909101 89.087821 
L 405.574834 89.035611 
L 411.240567 109.869006 
L 416.906301 93.945159 
L 422.572034 91.786233 
L 428.237768 87.203008 
L 433.903501 91.826393 
L 439.569234 95.544788 
L 445.234968 158.859636 
L 450.900701 110.593864 
L 456.566435 108.303033 
L 462.232168 97.105892 
L 467.897901 100.500407 
L 473.563635 97.736564 
L 479.229368 97.984104 
L 484.895102 95.979548 
L 490.560835 94.265591 
L 496.226568 92.473102 
L 501.892302 89.96772 
L 507.558035 89.970096 
L 513.223769 93.72845 
L 518.889502 89.187131 
L 524.555235 103.586683 
L 530.220969 90.444201 
L 535.886702 96.869344 
L 541.552436 90.074231 
L 547.218169 102.937043 
L 552.883902 95.634343 
L 558.549636 89.279033 
L 564.215369 91.667183 
L 569.881103 79.090878 
L 575.546836 95.145366 
L 581.212569 96.017449 
L 586.878303 87.102982 
L 592.544036 104.827259 
L 598.20977 94.503755 
L 603.875503 93.890094 
L 609.541236 87.820345 
L 615.20697 95.983353 
L 620.872703 94.235698 
L 626.538437 91.367508 
" clip-path="url(#p29b7952680)" style="fill: none; stroke: #008000; stroke-opacity: 0.2; stroke-linecap: round"/>
   </g>
   <g id="line2d_24">
    <path d="M 65.63083 315.512448 
L 71.296563 312.011077 
L 76.962297 288.606406 
L 82.62803 313.067172 
L 88.293764 318.126916 
L 93.959497 287.063961 
L 99.62523 307.43026 
L 105.290964 323.349575 
L 110.956697 304.841163 
L 116.622431 333.078185 
L 122.288164 317.754484 
L 127.953897 317.548732 
L 133.619631 329.543612 
L 139.285364 320.689274 
L 144.951098 303.42371 
L 150.616831 301.715282 
L 156.282564 285.877952 
L 161.948298 289.523059 
L 167.614031 285.193535 
L 173.279765 293.921882 
L 178.945498 283.202633 
L 184.611231 272.391652 
L 190.276965 255.80097 
L 195.942698 234.196364 
L 201.608432 246.620561 
L 207.274165 248.072837 
L 212.939898 233.631013 
L 218.605632 225.032209 
L 224.271365 225.760773 
L 229.937099 193.666451 
L 235.602832 200.25627 
L 241.268565 175.072933 
L 246.934299 164.96411 
L 252.600032 125.352043 
L 258.265766 121.922616 
L 263.931499 127.111838 
L 269.597232 121.149724 
L 275.262966 135.834336 
L 280.928699 100.946719 
L 286.594433 111.550892 
L 292.260166 100.370986 
L 297.925899 108.025038 
L 303.591633 111.532698 
L 309.257366 95.746625 
L 314.9231 101.750839 
L 320.588833 107.352883 
L 326.254566 93.951926 
L 331.9203 106.218348 
L 337.586033 93.390061 
L 343.251767 111.33589 
L 348.9175 102.218807 
L 354.583233 100.459001 
L 360.248967 96.280895 
L 365.9147 99.271431 
L 371.580434 88.671751 
L 377.246167 94.899746 
L 382.9119 86.937933 
L 388.577634 100.487159 
L 394.243367 94.941023 
L 399.909101 87.170995 
L 405.574834 90.665977 
L 411.240567 92.700074 
L 416.906301 92.85161 
L 422.572034 84.355486 
L 428.237768 97.187803 
L 433.903501 101.231358 
L 439.569234 100.606709 
L 445.234968 98.349668 
L 450.900701 98.778869 
L 456.566435 95.180682 
L 462.232168 88.832404 
L 467.897901 95.761357 
L 473.563635 98.385346 
L 479.229368 101.523918 
L 484.895102 87.800626 
L 490.560835 85.696063 
L 496.226568 89.765173 
L 501.892302 87.457973 
L 507.558035 88.472251 
L 513.223769 94.569269 
L 518.889502 96.891707 
L 524.555235 95.127792 
L 530.220969 93.553596 
L 535.886702 89.156206 
L 541.552436 93.285157 
L 547.218169 89.084503 
L 552.883902 97.379208 
L 558.549636 98.98607 
L 564.215369 92.596824 
L 569.881103 93.890571 
L 575.546836 92.998368 
L 581.212569 92.983919 
L 586.878303 98.679287 
L 592.544036 94.038035 
L 598.20977 90.726554 
L 603.875503 100.936039 
L 609.541236 89.986757 
L 615.20697 86.189195 
L 620.872703 93.439689 
L 626.538437 92.144707 
" clip-path="url(#p29b7952680)" style="fill: none; stroke: #008000; stroke-opacity: 0.2; stroke-linecap: round"/>
   </g>
   <g id="line2d_25">
    <path d="M 65.63083 57.0062 
L 71.296563 61.061422 
L 76.962297 66.630432 
L 82.62803 69.536488 
L 88.293764 71.590607 
L 93.959497 83.873963 
L 99.62523 84.654069 
L 105.290964 93.075254 
L 110.956697 107.240064 
L 116.622431 111.115195 
L 122.288164 112.544388 
L 127.953897 126.23801 
L 133.619631 133.13701 
L 139.285364 139.108506 
L 144.951098 153.286377 
L 150.616831 158.579233 
L 156.282564 159.623085 
L 161.948298 159.530826 
L 167.614031 176.726893 
L 173.279765 185.481089 
L 178.945498 199.458853 
L 184.611231 207.965924 
L 190.276965 222.12531 
L 195.942698 230.523196 
L 201.608432 234.170697 
L 207.274165 240.169321 
L 212.939898 246.191541 
L 218.605632 253.693682 
L 224.271365 255.052113 
L 229.937099 265.669974 
L 235.602832 272.291121 
L 241.268565 272.005855 
L 246.934299 277.763877 
L 252.600032 278.873292 
L 258.265766 284.361838 
L 263.931499 295.977198 
L 269.597232 296.329869 
L 275.262966 308.518003 
L 280.928699 313.315251 
L 286.594433 324.909866 
L 292.260166 327.141214 
L 297.925899 335.665888 
L 303.591633 338.667236 
L 309.257366 337.502627 
L 314.9231 343.564235 
L 320.588833 348.870198 
L 326.254566 344.519917 
L 331.9203 349.558907 
L 337.586033 354.060721 
L 343.251767 359.635042 
L 348.9175 367.343532 
L 354.583233 364.002046 
L 360.248967 367.051669 
L 365.9147 367.667502 
L 371.580434 367.550018 
L 377.246167 369.432763 
L 382.9119 373.419568 
L 388.577634 374.828275 
L 394.243367 376.851968 
L 399.909101 373.097577 
L 405.574834 372.855845 
L 411.240567 377.74347 
L 416.906301 377.2323 
L 422.572034 375.151491 
L 428.237768 378.475269 
L 433.903501 383.053972 
L 439.569234 383.222008 
L 445.234968 384.695315 
L 450.900701 384.575387 
L 456.566435 382.669785 
L 462.232168 386.562061 
L 467.897901 383.174518 
L 473.563635 385.966419 
L 479.229368 385.89771 
L 484.895102 383.728104 
L 490.560835 383.865983 
L 496.226568 382.752149 
L 501.892302 385.175746 
L 507.558035 388.512331 
L 513.223769 386.332739 
L 518.889502 385.699516 
L 524.555235 383.978236 
L 530.220969 383.958122 
L 535.886702 383.767042 
L 541.552436 382.24336 
L 547.218169 384.967519 
L 552.883902 385.609599 
L 558.549636 383.181993 
L 564.215369 390.04 
L 569.881103 384.451266 
L 575.546836 384.128091 
L 581.212569 382.779537 
L 586.878303 384.238069 
L 592.544036 379.958676 
L 598.20977 376.876303 
L 603.875503 380.326325 
L 609.541236 379.247254 
L 615.20697 375.059428 
L 620.872703 373.222579 
L 626.538437 373.987604 
" clip-path="url(#p29b7952680)" style="fill: none; stroke: #800080; stroke-linecap: round"/>
   </g>
   <g id="patch_3">
    <path d="M 65.63 390.04 
L 65.63 57.0062 
" style="fill: none; stroke: #ffffff; stroke-width: 0.8; stroke-linejoin: miter; stroke-linecap: square"/>
   </g>
   <g id="patch_4">
    <path d="M 632.205 390.04 
L 632.205 57.0062 
" style="fill: none; stroke: #ffffff; stroke-width: 0.8; stroke-linejoin: miter; stroke-linecap: square"/>
   </g>
   <g id="patch_5">
    <path d="M 65.63 390.04 
L 632.205 390.04 
" style="fill: none; stroke: #ffffff; stroke-width: 0.8; stroke-linejoin: miter; stroke-linecap: square"/>
   </g>
   <g id="patch_6">
    <path d="M 65.63 57.0062 
L 632.205 57.0062 
" style="fill: none; stroke: #ffffff; stroke-width: 0.8; stroke-linejoin: miter; stroke-linecap: square"/>
   </g>
   <g id="legend_1">
    <g id="line2d_26">
     <path d="M 97.385341 41.274494 
L 105.715341 41.274494 
L 114.045341 41.274494 
" style="fill: none; stroke: #0000ff; stroke-width: 1.5; stroke-linecap: round"/>
    </g>
    <g id="text_22">
     <!-- Mean Reward -->
     <g style="fill: #262626" transform="translate(120.709341 44.189994) scale(0.0833 -0.0833)">
      <defs>
       <path id="DejaVuSans-4d" d="M 628 4666 
L 1569 4666 
L 2759 1491 
L 3956 4666 
L 4897 4666 
L 4897 0 
L 4281 0 
L 4281 4097 
L 3078 897 
L 2444 897 
L 1241 4097 
L 1241 0 
L 628 0 
L 628 4666 
z
" transform="scale(0.015625)"/>
       <path id="DejaVuSans-6e" d="M 3513 2113 
L 3513 0 
L 2938 0 
L 2938 2094 
Q 2938 2591 2744 2837 
Q 2550 3084 2163 3084 
Q 1697 3084 1428 2787 
Q 1159 2491 1159 1978 
L 1159 0 
L 581 0 
L 581 3500 
L 1159 3500 
L 1159 2956 
Q 1366 3272 1645 3428 
Q 1925 3584 2291 3584 
Q 2894 3584 3203 3211 
Q 3513 2838 3513 2113 
z
" transform="scale(0.015625)"/>
       <path id="DejaVuSans-20" transform="scale(0.015625)"/>
      </defs>
      <use xlink:href="#DejaVuSans-4d"/>
      <use xlink:href="#DejaVuSans-65" transform="translate(86.279297 0)"/>
      <use xlink:href="#DejaVuSans-61" transform="translate(147.802734 0)"/>
      <use xlink:href="#DejaVuSans-6e" transform="translate(209.082031 0)"/>
      <use xlink:href="#DejaVuSans-20" transform="translate(272.460938 0)"/>
      <use xlink:href="#DejaVuSans-52" transform="translate(304.248047 0)"/>
      <use xlink:href="#DejaVuSans-65" transform="translate(369.230469 0)"/>
      <use xlink:href="#DejaVuSans-77" transform="translate(430.753906 0)"/>
      <use xlink:href="#DejaVuSans-61" transform="translate(512.541016 0)"/>
      <use xlink:href="#DejaVuSans-72" transform="translate(573.820312 0)"/>
      <use xlink:href="#DejaVuSans-64" transform="translate(613.183594 0)"/>
     </g>
    </g>
    <g id="line2d_27">
     <path d="M 193.736108 41.274494 
L 202.066108 41.274494 
L 210.396108 41.274494 
" style="fill: none; stroke: #008000; stroke-opacity: 0.2; stroke-linecap: round"/>
    </g>
    <g id="text_23">
     <!-- Reward (individual runs) -->
     <g style="fill: #262626" transform="translate(217.060108 44.189994) scale(0.0833 -0.0833)">
      <defs>
       <path id="DejaVuSans-28" d="M 1984 4856 
Q 1566 4138 1362 3434 
Q 1159 2731 1159 2009 
Q 1159 1288 1364 580 
Q 1569 -128 1984 -844 
L 1484 -844 
Q 1016 -109 783 600 
Q 550 1309 550 2009 
Q 550 2706 781 3412 
Q 1013 4119 1484 4856 
L 1984 4856 
z
" transform="scale(0.015625)"/>
       <path id="DejaVuSans-69" d="M 603 3500 
L 1178 3500 
L 1178 0 
L 603 0 
L 603 3500 
z
M 603 4863 
L 1178 4863 
L 1178 4134 
L 603 4134 
L 603 4863 
z
" transform="scale(0.015625)"/>
       <path id="DejaVuSans-76" d="M 191 3500 
L 800 3500 
L 1894 563 
L 2988 3500 
L 3597 3500 
L 2284 0 
L 1503 0 
L 191 3500 
z
" transform="scale(0.015625)"/>
       <path id="DejaVuSans-75" d="M 544 1381 
L 544 3500 
L 1119 3500 
L 1119 1403 
Q 1119 906 1312 657 
Q 1506 409 1894 409 
Q 2359 409 2629 706 
Q 2900 1003 2900 1516 
L 2900 3500 
L 3475 3500 
L 3475 0 
L 2900 0 
L 2900 538 
Q 2691 219 2414 64 
Q 2138 -91 1772 -91 
Q 1169 -91 856 284 
Q 544 659 544 1381 
z
M 1991 3584 
L 1991 3584 
z
" transform="scale(0.015625)"/>
       <path id="DejaVuSans-6c" d="M 603 4863 
L 1178 4863 
L 1178 0 
L 603 0 
L 603 4863 
z
" transform="scale(0.015625)"/>
       <path id="DejaVuSans-29" d="M 513 4856 
L 1013 4856 
Q 1481 4119 1714 3412 
Q 1947 2706 1947 2009 
Q 1947 1309 1714 600 
Q 1481 -109 1013 -844 
L 513 -844 
Q 928 -128 1133 580 
Q 1338 1288 1338 2009 
Q 1338 2731 1133 3434 
Q 928 4138 513 4856 
z
" transform="scale(0.015625)"/>
      </defs>
      <use xlink:href="#DejaVuSans-52"/>
      <use xlink:href="#DejaVuSans-65" transform="translate(64.982422 0)"/>
      <use xlink:href="#DejaVuSans-77" transform="translate(126.505859 0)"/>
      <use xlink:href="#DejaVuSans-61" transform="translate(208.292969 0)"/>
      <use xlink:href="#DejaVuSans-72" transform="translate(269.572266 0)"/>
      <use xlink:href="#DejaVuSans-64" transform="translate(308.935547 0)"/>
      <use xlink:href="#DejaVuSans-20" transform="translate(372.412109 0)"/>
      <use xlink:href="#DejaVuSans-28" transform="translate(404.199219 0)"/>
      <use xlink:href="#DejaVuSans-69" transform="translate(443.212891 0)"/>
      <use xlink:href="#DejaVuSans-6e" transform="translate(470.996094 0)"/>
      <use xlink:href="#DejaVuSans-64" transform="translate(534.375 0)"/>
      <use xlink:href="#DejaVuSans-69" transform="translate(597.851562 0)"/>
      <use xlink:href="#DejaVuSans-76" transform="translate(625.634766 0)"/>
      <use xlink:href="#DejaVuSans-69" transform="translate(684.814453 0)"/>
      <use xlink:href="#DejaVuSans-64" transform="translate(712.597656 0)"/>
      <use xlink:href="#DejaVuSans-75" transform="translate(776.074219 0)"/>
      <use xlink:href="#DejaVuSans-61" transform="translate(839.453125 0)"/>
      <use xlink:href="#DejaVuSans-6c" transform="translate(900.732422 0)"/>
      <use xlink:href="#DejaVuSans-20" transform="translate(928.515625 0)"/>
      <use xlink:href="#DejaVuSans-72" transform="translate(960.302734 0)"/>
      <use xlink:href="#DejaVuSans-75" transform="translate(1001.416016 0)"/>
      <use xlink:href="#DejaVuSans-6e" transform="translate(1064.794922 0)"/>
      <use xlink:href="#DejaVuSans-73" transform="translate(1128.173828 0)"/>
      <use xlink:href="#DejaVuSans-29" transform="translate(1180.273438 0)"/>
     </g>
    </g>
    <g id="line2d_28">
     <path d="M 335.286236 41.274494 
L 343.616236 41.274494 
L 351.946236 41.274494 
" style="fill: none; stroke: #800080; stroke-linecap: round"/>
    </g>
    <g id="text_24">
     <!-- Entropy (normalized) -->
     <g style="fill: #262626" transform="translate(358.610236 44.189994) scale(0.0833 -0.0833)">
      <defs>
       <path id="DejaVuSans-45" d="M 628 4666 
L 3578 4666 
L 3578 4134 
L 1259 4134 
L 1259 2753 
L 3481 2753 
L 3481 2222 
L 1259 2222 
L 1259 531 
L 3634 531 
L 3634 0 
L 628 0 
L 628 4666 
z
" transform="scale(0.015625)"/>
       <path id="DejaVuSans-6f" d="M 1959 3097 
Q 1497 3097 1228 2736 
Q 959 2375 959 1747 
Q 959 1119 1226 758 
Q 1494 397 1959 397 
Q 2419 397 2687 759 
Q 2956 1122 2956 1747 
Q 2956 2369 2687 2733 
Q 2419 3097 1959 3097 
z
M 1959 3584 
Q 2709 3584 3137 3096 
Q 3566 2609 3566 1747 
Q 3566 888 3137 398 
Q 2709 -91 1959 -91 
Q 1206 -91 779 398 
Q 353 888 353 1747 
Q 353 2609 779 3096 
Q 1206 3584 1959 3584 
z
" transform="scale(0.015625)"/>
       <path id="DejaVuSans-79" d="M 2059 -325 
Q 1816 -950 1584 -1140 
Q 1353 -1331 966 -1331 
L 506 -1331 
L 506 -850 
L 844 -850 
Q 1081 -850 1212 -737 
Q 1344 -625 1503 -206 
L 1606 56 
L 191 3500 
L 800 3500 
L 1894 763 
L 2988 3500 
L 3597 3500 
L 2059 -325 
z
" transform="scale(0.015625)"/>
       <path id="DejaVuSans-6d" d="M 3328 2828 
Q 3544 3216 3844 3400 
Q 4144 3584 4550 3584 
Q 5097 3584 5394 3201 
Q 5691 2819 5691 2113 
L 5691 0 
L 5113 0 
L 5113 2094 
Q 5113 2597 4934 2840 
Q 4756 3084 4391 3084 
Q 3944 3084 3684 2787 
Q 3425 2491 3425 1978 
L 3425 0 
L 2847 0 
L 2847 2094 
Q 2847 2600 2669 2842 
Q 2491 3084 2119 3084 
Q 1678 3084 1418 2786 
Q 1159 2488 1159 1978 
L 1159 0 
L 581 0 
L 581 3500 
L 1159 3500 
L 1159 2956 
Q 1356 3278 1631 3431 
Q 1906 3584 2284 3584 
Q 2666 3584 2933 3390 
Q 3200 3197 3328 2828 
z
" transform="scale(0.015625)"/>
       <path id="DejaVuSans-7a" d="M 353 3500 
L 3084 3500 
L 3084 2975 
L 922 459 
L 3084 459 
L 3084 0 
L 275 0 
L 275 525 
L 2438 3041 
L 353 3041 
L 353 3500 
z
" transform="scale(0.015625)"/>
      </defs>
      <use xlink:href="#DejaVuSans-45"/>
      <use xlink:href="#DejaVuSans-6e" transform="translate(63.183594 0)"/>
      <use xlink:href="#DejaVuSans-74" transform="translate(126.5625 0)"/>
      <use xlink:href="#DejaVuSans-72" transform="translate(165.771484 0)"/>
      <use xlink:href="#DejaVuSans-6f" transform="translate(204.634766 0)"/>
      <use xlink:href="#DejaVuSans-70" transform="translate(265.816406 0)"/>
      <use xlink:href="#DejaVuSans-79" transform="translate(329.292969 0)"/>
      <use xlink:href="#DejaVuSans-20" transform="translate(388.472656 0)"/>
      <use xlink:href="#DejaVuSans-28" transform="translate(420.259766 0)"/>
      <use xlink:href="#DejaVuSans-6e" transform="translate(459.273438 0)"/>
      <use xlink:href="#DejaVuSans-6f" transform="translate(522.652344 0)"/>
      <use xlink:href="#DejaVuSans-72" transform="translate(583.833984 0)"/>
      <use xlink:href="#DejaVuSans-6d" transform="translate(623.197266 0)"/>
      <use xlink:href="#DejaVuSans-61" transform="translate(720.609375 0)"/>
      <use xlink:href="#DejaVuSans-6c" transform="translate(781.888672 0)"/>
      <use xlink:href="#DejaVuSans-69" transform="translate(809.671875 0)"/>
      <use xlink:href="#DejaVuSans-7a" transform="translate(837.455078 0)"/>
      <use xlink:href="#DejaVuSans-65" transform="translate(889.945312 0)"/>
      <use xlink:href="#DejaVuSans-64" transform="translate(951.46875 0)"/>
      <use xlink:href="#DejaVuSans-29" transform="translate(1014.945312 0)"/>
     </g>
    </g>
    <g id="patch_7">
     <path d="M 463.065833 44.189994 
L 479.725833 44.189994 
L 479.725833 38.358994 
L 463.065833 38.358994 
z
" style="fill: #0000ff; fill-opacity: 0.1"/>
    </g>
    <g id="text_25">
     <!-- Reward Standard Deviation -->
     <g style="fill: #262626" transform="translate(486.389833 44.189994) scale(0.0833 -0.0833)">
      <defs>
       <path id="DejaVuSans-44" d="M 1259 4147 
L 1259 519 
L 2022 519 
Q 2988 519 3436 956 
Q 3884 1394 3884 2338 
Q 3884 3275 3436 3711 
Q 2988 4147 2022 4147 
L 1259 4147 
z
M 628 4666 
L 1925 4666 
Q 3281 4666 3915 4102 
Q 4550 3538 4550 2338 
Q 4550 1131 3912 565 
Q 3275 0 1925 0 
L 628 0 
L 628 4666 
z
" transform="scale(0.015625)"/>
      </defs>
      <use xlink:href="#DejaVuSans-52"/>
      <use xlink:href="#DejaVuSans-65" transform="translate(64.982422 0)"/>
      <use xlink:href="#DejaVuSans-77" transform="translate(126.505859 0)"/>
      <use xlink:href="#DejaVuSans-61" transform="translate(208.292969 0)"/>
      <use xlink:href="#DejaVuSans-72" transform="translate(269.572266 0)"/>
      <use xlink:href="#DejaVuSans-64" transform="translate(308.935547 0)"/>
      <use xlink:href="#DejaVuSans-20" transform="translate(372.412109 0)"/>
      <use xlink:href="#DejaVuSans-53" transform="translate(404.199219 0)"/>
      <use xlink:href="#DejaVuSans-74" transform="translate(467.675781 0)"/>
      <use xlink:href="#DejaVuSans-61" transform="translate(506.884766 0)"/>
      <use xlink:href="#DejaVuSans-6e" transform="translate(568.164062 0)"/>
      <use xlink:href="#DejaVuSans-64" transform="translate(631.542969 0)"/>
      <use xlink:href="#DejaVuSans-61" transform="translate(695.019531 0)"/>
      <use xlink:href="#DejaVuSans-72" transform="translate(756.298828 0)"/>
      <use xlink:href="#DejaVuSans-64" transform="translate(795.662109 0)"/>
      <use xlink:href="#DejaVuSans-20" transform="translate(859.138672 0)"/>
      <use xlink:href="#DejaVuSans-44" transform="translate(890.925781 0)"/>
      <use xlink:href="#DejaVuSans-65" transform="translate(967.927734 0)"/>
      <use xlink:href="#DejaVuSans-76" transform="translate(1029.451172 0)"/>
      <use xlink:href="#DejaVuSans-69" transform="translate(1088.630859 0)"/>
      <use xlink:href="#DejaVuSans-61" transform="translate(1116.414062 0)"/>
      <use xlink:href="#DejaVuSans-74" transform="translate(1177.693359 0)"/>
      <use xlink:href="#DejaVuSans-69" transform="translate(1216.902344 0)"/>
      <use xlink:href="#DejaVuSans-6f" transform="translate(1244.685547 0)"/>
      <use xlink:href="#DejaVuSans-6e" transform="translate(1305.867188 0)"/>
     </g>
    </g>
   </g>
  </g>
  <g id="text_26">
   <!-- Rewards: Pendulum-v1 (Discretized) - Logits (Baseline) (Noise) -->
   <g style="fill: #262626" transform="translate(110.288438 17.758125) scale(0.12 -0.12)">
    <defs>
     <path id="DejaVuSans-Bold-52" d="M 2297 2597 
Q 2675 2597 2839 2737 
Q 3003 2878 3003 3200 
Q 3003 3519 2839 3656 
Q 2675 3794 2297 3794 
L 1791 3794 
L 1791 2597 
L 2297 2597 
z
M 1791 1766 
L 1791 0 
L 588 0 
L 588 4666 
L 2425 4666 
Q 3347 4666 3776 4356 
Q 4206 4047 4206 3378 
Q 4206 2916 3982 2619 
Q 3759 2322 3309 2181 
Q 3556 2125 3751 1926 
Q 3947 1728 4147 1325 
L 4800 0 
L 3519 0 
L 2950 1159 
Q 2778 1509 2601 1637 
Q 2425 1766 2131 1766 
L 1791 1766 
z
" transform="scale(0.015625)"/>
     <path id="DejaVuSans-Bold-65" d="M 4031 1759 
L 4031 1441 
L 1416 1441 
Q 1456 1047 1700 850 
Q 1944 653 2381 653 
Q 2734 653 3104 758 
Q 3475 863 3866 1075 
L 3866 213 
Q 3469 63 3072 -14 
Q 2675 -91 2278 -91 
Q 1328 -91 801 392 
Q 275 875 275 1747 
Q 275 2603 792 3093 
Q 1309 3584 2216 3584 
Q 3041 3584 3536 3087 
Q 4031 2591 4031 1759 
z
M 2881 2131 
Q 2881 2450 2695 2645 
Q 2509 2841 2209 2841 
Q 1884 2841 1681 2658 
Q 1478 2475 1428 2131 
L 2881 2131 
z
" transform="scale(0.015625)"/>
     <path id="DejaVuSans-Bold-77" d="M 225 3500 
L 1313 3500 
L 1900 1088 
L 2491 3500 
L 3425 3500 
L 4013 1113 
L 4603 3500 
L 5691 3500 
L 4769 0 
L 3547 0 
L 2956 2406 
L 2369 0 
L 1147 0 
L 225 3500 
z
" transform="scale(0.015625)"/>
     <path id="DejaVuSans-Bold-61" d="M 2106 1575 
Q 1756 1575 1579 1456 
Q 1403 1338 1403 1106 
Q 1403 894 1545 773 
Q 1688 653 1941 653 
Q 2256 653 2472 879 
Q 2688 1106 2688 1447 
L 2688 1575 
L 2106 1575 
z
M 3816 1997 
L 3816 0 
L 2688 0 
L 2688 519 
Q 2463 200 2181 54 
Q 1900 -91 1497 -91 
Q 953 -91 614 226 
Q 275 544 275 1050 
Q 275 1666 698 1953 
Q 1122 2241 2028 2241 
L 2688 2241 
L 2688 2328 
Q 2688 2594 2478 2717 
Q 2269 2841 1825 2841 
Q 1466 2841 1156 2769 
Q 847 2697 581 2553 
L 581 3406 
Q 941 3494 1303 3539 
Q 1666 3584 2028 3584 
Q 2975 3584 3395 3211 
Q 3816 2838 3816 1997 
z
" transform="scale(0.015625)"/>
     <path id="DejaVuSans-Bold-72" d="M 3138 2547 
Q 2991 2616 2845 2648 
Q 2700 2681 2553 2681 
Q 2122 2681 1889 2404 
Q 1656 2128 1656 1613 
L 1656 0 
L 538 0 
L 538 3500 
L 1656 3500 
L 1656 2925 
Q 1872 3269 2151 3426 
Q 2431 3584 2822 3584 
Q 2878 3584 2943 3579 
Q 3009 3575 3134 3559 
L 3138 2547 
z
" transform="scale(0.015625)"/>
     <path id="DejaVuSans-Bold-64" d="M 2919 2988 
L 2919 4863 
L 4044 4863 
L 4044 0 
L 2919 0 
L 2919 506 
Q 2688 197 2409 53 
Q 2131 -91 1766 -91 
Q 1119 -91 703 423 
Q 288 938 288 1747 
Q 288 2556 703 3070 
Q 1119 3584 1766 3584 
Q 2128 3584 2408 3439 
Q 2688 3294 2919 2988 
z
M 2181 722 
Q 2541 722 2730 984 
Q 2919 1247 2919 1747 
Q 2919 2247 2730 2509 
Q 2541 2772 2181 2772 
Q 1825 2772 1636 2509 
Q 1447 2247 1447 1747 
Q 1447 1247 1636 984 
Q 1825 722 2181 722 
z
" transform="scale(0.015625)"/>
     <path id="DejaVuSans-Bold-73" d="M 3272 3391 
L 3272 2541 
Q 2913 2691 2578 2766 
Q 2244 2841 1947 2841 
Q 1628 2841 1473 2761 
Q 1319 2681 1319 2516 
Q 1319 2381 1436 2309 
Q 1553 2238 1856 2203 
L 2053 2175 
Q 2913 2066 3209 1816 
Q 3506 1566 3506 1031 
Q 3506 472 3093 190 
Q 2681 -91 1863 -91 
Q 1516 -91 1145 -36 
Q 775 19 384 128 
L 384 978 
Q 719 816 1070 734 
Q 1422 653 1784 653 
Q 2113 653 2278 743 
Q 2444 834 2444 1013 
Q 2444 1163 2330 1236 
Q 2216 1309 1875 1350 
L 1678 1375 
Q 931 1469 631 1722 
Q 331 1975 331 2491 
Q 331 3047 712 3315 
Q 1094 3584 1881 3584 
Q 2191 3584 2531 3537 
Q 2872 3491 3272 3391 
z
" transform="scale(0.015625)"/>
     <path id="DejaVuSans-Bold-3a" d="M 716 3500 
L 1844 3500 
L 1844 2291 
L 716 2291 
L 716 3500 
z
M 716 1209 
L 1844 1209 
L 1844 0 
L 716 0 
L 716 1209 
z
" transform="scale(0.015625)"/>
     <path id="DejaVuSans-Bold-20" transform="scale(0.015625)"/>
     <path id="DejaVuSans-Bold-50" d="M 588 4666 
L 2584 4666 
Q 3475 4666 3951 4270 
Q 4428 3875 4428 3144 
Q 4428 2409 3951 2014 
Q 3475 1619 2584 1619 
L 1791 1619 
L 1791 0 
L 588 0 
L 588 4666 
z
M 1791 3794 
L 1791 2491 
L 2456 2491 
Q 2806 2491 2997 2661 
Q 3188 2831 3188 3144 
Q 3188 3456 2997 3625 
Q 2806 3794 2456 3794 
L 1791 3794 
z
" transform="scale(0.015625)"/>
     <path id="DejaVuSans-Bold-6e" d="M 4056 2131 
L 4056 0 
L 2931 0 
L 2931 347 
L 2931 1631 
Q 2931 2084 2911 2256 
Q 2891 2428 2841 2509 
Q 2775 2619 2662 2680 
Q 2550 2741 2406 2741 
Q 2056 2741 1856 2470 
Q 1656 2200 1656 1722 
L 1656 0 
L 538 0 
L 538 3500 
L 1656 3500 
L 1656 2988 
Q 1909 3294 2193 3439 
Q 2478 3584 2822 3584 
Q 3428 3584 3742 3212 
Q 4056 2841 4056 2131 
z
" transform="scale(0.015625)"/>
     <path id="DejaVuSans-Bold-75" d="M 500 1363 
L 500 3500 
L 1625 3500 
L 1625 3150 
Q 1625 2866 1622 2436 
Q 1619 2006 1619 1863 
Q 1619 1441 1641 1255 
Q 1663 1069 1716 984 
Q 1784 875 1895 815 
Q 2006 756 2150 756 
Q 2500 756 2700 1025 
Q 2900 1294 2900 1772 
L 2900 3500 
L 4019 3500 
L 4019 0 
L 2900 0 
L 2900 506 
Q 2647 200 2364 54 
Q 2081 -91 1741 -91 
Q 1134 -91 817 281 
Q 500 653 500 1363 
z
" transform="scale(0.015625)"/>
     <path id="DejaVuSans-Bold-6c" d="M 538 4863 
L 1656 4863 
L 1656 0 
L 538 0 
L 538 4863 
z
" transform="scale(0.015625)"/>
     <path id="DejaVuSans-Bold-6d" d="M 3781 2919 
Q 3994 3244 4286 3414 
Q 4578 3584 4928 3584 
Q 5531 3584 5847 3212 
Q 6163 2841 6163 2131 
L 6163 0 
L 5038 0 
L 5038 1825 
Q 5041 1866 5042 1909 
Q 5044 1953 5044 2034 
Q 5044 2406 4934 2573 
Q 4825 2741 4581 2741 
Q 4263 2741 4089 2478 
Q 3916 2216 3909 1719 
L 3909 0 
L 2784 0 
L 2784 1825 
Q 2784 2406 2684 2573 
Q 2584 2741 2328 2741 
Q 2006 2741 1831 2477 
Q 1656 2213 1656 1722 
L 1656 0 
L 531 0 
L 531 3500 
L 1656 3500 
L 1656 2988 
Q 1863 3284 2130 3434 
Q 2397 3584 2719 3584 
Q 3081 3584 3359 3409 
Q 3638 3234 3781 2919 
z
" transform="scale(0.015625)"/>
     <path id="DejaVuSans-Bold-2d" d="M 347 2297 
L 2309 2297 
L 2309 1388 
L 347 1388 
L 347 2297 
z
" transform="scale(0.015625)"/>
     <path id="DejaVuSans-Bold-76" d="M 97 3500 
L 1216 3500 
L 2088 1081 
L 2956 3500 
L 4078 3500 
L 2700 0 
L 1472 0 
L 97 3500 
z
" transform="scale(0.015625)"/>
     <path id="DejaVuSans-Bold-31" d="M 750 831 
L 1813 831 
L 1813 3847 
L 722 3622 
L 722 4441 
L 1806 4666 
L 2950 4666 
L 2950 831 
L 4013 831 
L 4013 0 
L 750 0 
L 750 831 
z
" transform="scale(0.015625)"/>
     <path id="DejaVuSans-Bold-28" d="M 2413 -844 
L 1484 -844 
Q 1006 -72 778 623 
Q 550 1319 550 2003 
Q 550 2688 779 3389 
Q 1009 4091 1484 4856 
L 2413 4856 
Q 2013 4116 1813 3408 
Q 1613 2700 1613 2009 
Q 1613 1319 1811 609 
Q 2009 -100 2413 -844 
z
" transform="scale(0.015625)"/>
     <path id="DejaVuSans-Bold-44" d="M 1791 3756 
L 1791 909 
L 2222 909 
Q 2959 909 3348 1275 
Q 3738 1641 3738 2338 
Q 3738 3031 3350 3393 
Q 2963 3756 2222 3756 
L 1791 3756 
z
M 588 4666 
L 1856 4666 
Q 2919 4666 3439 4514 
Q 3959 4363 4331 4000 
Q 4659 3684 4818 3271 
Q 4978 2859 4978 2338 
Q 4978 1809 4818 1395 
Q 4659 981 4331 666 
Q 3956 303 3431 151 
Q 2906 0 1856 0 
L 588 0 
L 588 4666 
z
" transform="scale(0.015625)"/>
     <path id="DejaVuSans-Bold-69" d="M 538 3500 
L 1656 3500 
L 1656 0 
L 538 0 
L 538 3500 
z
M 538 4863 
L 1656 4863 
L 1656 3950 
L 538 3950 
L 538 4863 
z
" transform="scale(0.015625)"/>
     <path id="DejaVuSans-Bold-63" d="M 3366 3391 
L 3366 2478 
Q 3138 2634 2908 2709 
Q 2678 2784 2431 2784 
Q 1963 2784 1702 2511 
Q 1441 2238 1441 1747 
Q 1441 1256 1702 982 
Q 1963 709 2431 709 
Q 2694 709 2930 787 
Q 3166 866 3366 1019 
L 3366 103 
Q 3103 6 2833 -42 
Q 2563 -91 2291 -91 
Q 1344 -91 809 395 
Q 275 881 275 1747 
Q 275 2613 809 3098 
Q 1344 3584 2291 3584 
Q 2566 3584 2833 3536 
Q 3100 3488 3366 3391 
z
" transform="scale(0.015625)"/>
     <path id="DejaVuSans-Bold-74" d="M 1759 4494 
L 1759 3500 
L 2913 3500 
L 2913 2700 
L 1759 2700 
L 1759 1216 
Q 1759 972 1856 886 
Q 1953 800 2241 800 
L 2816 800 
L 2816 0 
L 1856 0 
Q 1194 0 917 276 
Q 641 553 641 1216 
L 641 2700 
L 84 2700 
L 84 3500 
L 641 3500 
L 641 4494 
L 1759 4494 
z
" transform="scale(0.015625)"/>
     <path id="DejaVuSans-Bold-7a" d="M 366 3500 
L 3419 3500 
L 3419 2719 
L 1575 800 
L 3419 800 
L 3419 0 
L 288 0 
L 288 781 
L 2131 2700 
L 366 2700 
L 366 3500 
z
" transform="scale(0.015625)"/>
     <path id="DejaVuSans-Bold-29" d="M 513 -844 
Q 913 -100 1113 609 
Q 1313 1319 1313 2009 
Q 1313 2700 1113 3408 
Q 913 4116 513 4856 
L 1441 4856 
Q 1916 4091 2145 3389 
Q 2375 2688 2375 2003 
Q 2375 1319 2147 623 
Q 1919 -72 1441 -844 
L 513 -844 
z
" transform="scale(0.015625)"/>
     <path id="DejaVuSans-Bold-4c" d="M 588 4666 
L 1791 4666 
L 1791 909 
L 3903 909 
L 3903 0 
L 588 0 
L 588 4666 
z
" transform="scale(0.015625)"/>
     <path id="DejaVuSans-Bold-6f" d="M 2203 2784 
Q 1831 2784 1636 2517 
Q 1441 2250 1441 1747 
Q 1441 1244 1636 976 
Q 1831 709 2203 709 
Q 2569 709 2762 976 
Q 2956 1244 2956 1747 
Q 2956 2250 2762 2517 
Q 2569 2784 2203 2784 
z
M 2203 3584 
Q 3106 3584 3614 3096 
Q 4122 2609 4122 1747 
Q 4122 884 3614 396 
Q 3106 -91 2203 -91 
Q 1297 -91 786 396 
Q 275 884 275 1747 
Q 275 2609 786 3096 
Q 1297 3584 2203 3584 
z
" transform="scale(0.015625)"/>
     <path id="DejaVuSans-Bold-67" d="M 2919 594 
Q 2688 288 2409 144 
Q 2131 0 1766 0 
Q 1125 0 706 504 
Q 288 1009 288 1791 
Q 288 2575 706 3076 
Q 1125 3578 1766 3578 
Q 2131 3578 2409 3434 
Q 2688 3291 2919 2981 
L 2919 3500 
L 4044 3500 
L 4044 353 
Q 4044 -491 3511 -936 
Q 2978 -1381 1966 -1381 
Q 1638 -1381 1331 -1331 
Q 1025 -1281 716 -1178 
L 716 -306 
Q 1009 -475 1290 -558 
Q 1572 -641 1856 -641 
Q 2406 -641 2662 -400 
Q 2919 -159 2919 353 
L 2919 594 
z
M 2181 2772 
Q 1834 2772 1640 2515 
Q 1447 2259 1447 1791 
Q 1447 1309 1634 1061 
Q 1822 813 2181 813 
Q 2531 813 2725 1069 
Q 2919 1325 2919 1791 
Q 2919 2259 2725 2515 
Q 2531 2772 2181 2772 
z
" transform="scale(0.015625)"/>
     <path id="DejaVuSans-Bold-42" d="M 2456 2859 
Q 2741 2859 2887 2984 
Q 3034 3109 3034 3353 
Q 3034 3594 2887 3720 
Q 2741 3847 2456 3847 
L 1791 3847 
L 1791 2859 
L 2456 2859 
z
M 2497 819 
Q 2859 819 3042 972 
Q 3225 1125 3225 1434 
Q 3225 1738 3044 1889 
Q 2863 2041 2497 2041 
L 1791 2041 
L 1791 819 
L 2497 819 
z
M 3616 2497 
Q 4003 2384 4215 2081 
Q 4428 1778 4428 1338 
Q 4428 663 3972 331 
Q 3516 0 2584 0 
L 588 0 
L 588 4666 
L 2394 4666 
Q 3366 4666 3802 4372 
Q 4238 4078 4238 3431 
Q 4238 3091 4078 2852 
Q 3919 2613 3616 2497 
z
" transform="scale(0.015625)"/>
     <path id="DejaVuSans-Bold-4e" d="M 588 4666 
L 1931 4666 
L 3628 1466 
L 3628 4666 
L 4769 4666 
L 4769 0 
L 3425 0 
L 1728 3200 
L 1728 0 
L 588 0 
L 588 4666 
z
" transform="scale(0.015625)"/>
    </defs>
    <use xlink:href="#DejaVuSans-Bold-52"/>
    <use xlink:href="#DejaVuSans-Bold-65" transform="translate(77.001953 0)"/>
    <use xlink:href="#DejaVuSans-Bold-77" transform="translate(144.824219 0)"/>
    <use xlink:href="#DejaVuSans-Bold-61" transform="translate(237.207031 0)"/>
    <use xlink:href="#DejaVuSans-Bold-72" transform="translate(304.6875 0)"/>
    <use xlink:href="#DejaVuSans-Bold-64" transform="translate(354.003906 0)"/>
    <use xlink:href="#DejaVuSans-Bold-73" transform="translate(425.585938 0)"/>
    <use xlink:href="#DejaVuSans-Bold-3a" transform="translate(485.107422 0)"/>
    <use xlink:href="#DejaVuSans-Bold-20" transform="translate(525.097656 0)"/>
    <use xlink:href="#DejaVuSans-Bold-50" transform="translate(559.912109 0)"/>
    <use xlink:href="#DejaVuSans-Bold-65" transform="translate(633.203125 0)"/>
    <use xlink:href="#DejaVuSans-Bold-6e" transform="translate(701.025391 0)"/>
    <use xlink:href="#DejaVuSans-Bold-64" transform="translate(772.216797 0)"/>
    <use xlink:href="#DejaVuSans-Bold-75" transform="translate(843.798828 0)"/>
    <use xlink:href="#DejaVuSans-Bold-6c" transform="translate(914.990234 0)"/>
    <use xlink:href="#DejaVuSans-Bold-75" transform="translate(949.267578 0)"/>
    <use xlink:href="#DejaVuSans-Bold-6d" transform="translate(1020.458984 0)"/>
    <use xlink:href="#DejaVuSans-Bold-2d" transform="translate(1124.658203 0)"/>
    <use xlink:href="#DejaVuSans-Bold-76" transform="translate(1166.162109 0)"/>
    <use xlink:href="#DejaVuSans-Bold-31" transform="translate(1231.347656 0)"/>
    <use xlink:href="#DejaVuSans-Bold-20" transform="translate(1300.927734 0)"/>
    <use xlink:href="#DejaVuSans-Bold-28" transform="translate(1335.742188 0)"/>
    <use xlink:href="#DejaVuSans-Bold-44" transform="translate(1381.445312 0)"/>
    <use xlink:href="#DejaVuSans-Bold-69" transform="translate(1464.453125 0)"/>
    <use xlink:href="#DejaVuSans-Bold-73" transform="translate(1498.730469 0)"/>
    <use xlink:href="#DejaVuSans-Bold-63" transform="translate(1558.251953 0)"/>
    <use xlink:href="#DejaVuSans-Bold-72" transform="translate(1617.529297 0)"/>
    <use xlink:href="#DejaVuSans-Bold-65" transform="translate(1666.845703 0)"/>
    <use xlink:href="#DejaVuSans-Bold-74" transform="translate(1734.667969 0)"/>
    <use xlink:href="#DejaVuSans-Bold-69" transform="translate(1782.470703 0)"/>
    <use xlink:href="#DejaVuSans-Bold-7a" transform="translate(1816.748047 0)"/>
    <use xlink:href="#DejaVuSans-Bold-65" transform="translate(1874.951172 0)"/>
    <use xlink:href="#DejaVuSans-Bold-64" transform="translate(1942.773438 0)"/>
    <use xlink:href="#DejaVuSans-Bold-29" transform="translate(2014.355469 0)"/>
    <use xlink:href="#DejaVuSans-Bold-20" transform="translate(2060.058594 0)"/>
    <use xlink:href="#DejaVuSans-Bold-2d" transform="translate(2094.873047 0)"/>
    <use xlink:href="#DejaVuSans-Bold-20" transform="translate(2136.376953 0)"/>
    <use xlink:href="#DejaVuSans-Bold-4c" transform="translate(2171.191406 0)"/>
    <use xlink:href="#DejaVuSans-Bold-6f" transform="translate(2234.912109 0)"/>
    <use xlink:href="#DejaVuSans-Bold-67" transform="translate(2303.613281 0)"/>
    <use xlink:href="#DejaVuSans-Bold-69" transform="translate(2375.195312 0)"/>
    <use xlink:href="#DejaVuSans-Bold-74" transform="translate(2409.472656 0)"/>
    <use xlink:href="#DejaVuSans-Bold-73" transform="translate(2457.275391 0)"/>
    <use xlink:href="#DejaVuSans-Bold-20" transform="translate(2516.796875 0)"/>
    <use xlink:href="#DejaVuSans-Bold-28" transform="translate(2551.611328 0)"/>
    <use xlink:href="#DejaVuSans-Bold-42" transform="translate(2597.314453 0)"/>
    <use xlink:href="#DejaVuSans-Bold-61" transform="translate(2673.535156 0)"/>
    <use xlink:href="#DejaVuSans-Bold-73" transform="translate(2741.015625 0)"/>
    <use xlink:href="#DejaVuSans-Bold-65" transform="translate(2800.537109 0)"/>
    <use xlink:href="#DejaVuSans-Bold-6c" transform="translate(2868.359375 0)"/>
    <use xlink:href="#DejaVuSans-Bold-69" transform="translate(2902.636719 0)"/>
    <use xlink:href="#DejaVuSans-Bold-6e" transform="translate(2936.914062 0)"/>
    <use xlink:href="#DejaVuSans-Bold-65" transform="translate(3008.105469 0)"/>
    <use xlink:href="#DejaVuSans-Bold-29" transform="translate(3075.927734 0)"/>
    <use xlink:href="#DejaVuSans-Bold-20" transform="translate(3121.630859 0)"/>
    <use xlink:href="#DejaVuSans-Bold-28" transform="translate(3156.445312 0)"/>
    <use xlink:href="#DejaVuSans-Bold-4e" transform="translate(3202.148438 0)"/>
    <use xlink:href="#DejaVuSans-Bold-6f" transform="translate(3285.839844 0)"/>
    <use xlink:href="#DejaVuSans-Bold-69" transform="translate(3354.541016 0)"/>
    <use xlink:href="#DejaVuSans-Bold-73" transform="translate(3388.818359 0)"/>
    <use xlink:href="#DejaVuSans-Bold-65" transform="translate(3448.339844 0)"/>
    <use xlink:href="#DejaVuSans-Bold-29" transform="translate(3516.162109 0)"/>
   </g>
  </g>
 </g>
 <defs>
  <clipPath id="p29b7952680">
   <rect x="65.63" y="57.0062" width="566.575" height="333.0338"/>
  </clipPath>
 </defs>
</svg>
