<?xml version="1.0" encoding="utf-8" standalone="no"?>
<!DOCTYPE svg PUBLIC "-//W3C//DTD SVG 1.1//EN"
  "http://www.w3.org/Graphics/SVG/1.1/DTD/svg11.dtd">
<svg xmlns:xlink="http://www.w3.org/1999/xlink" width="648pt" height="432pt" viewBox="0 0 648 432" xmlns="http://www.w3.org/2000/svg" version="1.1">
 <metadata>
  <rdf:RDF xmlns:dc="http://purl.org/dc/elements/1.1/" xmlns:cc="http://creativecommons.org/ns#" xmlns:rdf="http://www.w3.org/1999/02/22-rdf-syntax-ns#">
   <cc:Work>
    <dc:type rdf:resource="http://purl.org/dc/dcmitype/StillImage"/>
    <dc:date>2025-07-16T23:45:03.657086</dc:date>
    <dc:format>image/svg+xml</dc:format>
    <dc:creator>
     <cc:Agent>
      <dc:title>Matplotlib v3.10.0, https://matplotlib.org/</dc:title>
     </cc:Agent>
    </dc:creator>
   </cc:Work>
  </rdf:RDF>
 </metadata>
 <defs>
  <style type="text/css">*{stroke-linejoin: round; stroke-linecap: butt}</style>
 </defs>
 <g id="figure_1">
  <g id="patch_1">
   <path d="M 0 432 
L 648 432 
L 648 0 
L 0 0 
z
" style="fill: #ffffff"/>
  </g>
  <g id="axes_1">
   <g id="patch_2">
    <path d="M 65.63 390.04 
L 632.205 390.04 
L 632.205 57.0062 
L 65.63 57.0062 
z
" style="fill: #eaeaf2"/>
   </g>
   <g id="matplotlib.axis_1">
    <g id="xtick_1">
     <g id="line2d_1">
      <path d="M 65.63083 390.04 
L 65.63083 57.0062 
" clip-path="url(#pf72c37201b)" style="fill: none; stroke: #ffffff; stroke-width: 0.8; stroke-linecap: round"/>
     </g>
     <g id="text_1">
      <!-- 0.00 -->
      <g style="fill: #262626" transform="translate(54.498017 404.638438) scale(0.1 -0.1)">
       <defs>
        <path id="DejaVuSans-30" d="M 2034 4250 
Q 1547 4250 1301 3770 
Q 1056 3291 1056 2328 
Q 1056 1369 1301 889 
Q 1547 409 2034 409 
Q 2525 409 2770 889 
Q 3016 1369 3016 2328 
Q 3016 3291 2770 3770 
Q 2525 4250 2034 4250 
z
M 2034 4750 
Q 2819 4750 3233 4129 
Q 3647 3509 3647 2328 
Q 3647 1150 3233 529 
Q 2819 -91 2034 -91 
Q 1250 -91 836 529 
Q 422 1150 422 2328 
Q 422 3509 836 4129 
Q 1250 4750 2034 4750 
z
" transform="scale(0.015625)"/>
        <path id="DejaVuSans-2e" d="M 684 794 
L 1344 794 
L 1344 0 
L 684 0 
L 684 794 
z
" transform="scale(0.015625)"/>
       </defs>
       <use xlink:href="#DejaVuSans-30"/>
       <use xlink:href="#DejaVuSans-2e" transform="translate(63.623047 0)"/>
       <use xlink:href="#DejaVuSans-30" transform="translate(95.410156 0)"/>
       <use xlink:href="#DejaVuSans-30" transform="translate(159.033203 0)"/>
      </g>
     </g>
    </g>
    <g id="xtick_2">
     <g id="line2d_2">
      <path d="M 134.792615 390.04 
L 134.792615 57.0062 
" clip-path="url(#pf72c37201b)" style="fill: none; stroke: #ffffff; stroke-width: 0.8; stroke-linecap: round"/>
     </g>
     <g id="text_2">
      <!-- 0.25 -->
      <g style="fill: #262626" transform="translate(123.659802 404.638438) scale(0.1 -0.1)">
       <defs>
        <path id="DejaVuSans-32" d="M 1228 531 
L 3431 531 
L 3431 0 
L 469 0 
L 469 531 
Q 828 903 1448 1529 
Q 2069 2156 2228 2338 
Q 2531 2678 2651 2914 
Q 2772 3150 2772 3378 
Q 2772 3750 2511 3984 
Q 2250 4219 1831 4219 
Q 1534 4219 1204 4116 
Q 875 4013 500 3803 
L 500 4441 
Q 881 4594 1212 4672 
Q 1544 4750 1819 4750 
Q 2544 4750 2975 4387 
Q 3406 4025 3406 3419 
Q 3406 3131 3298 2873 
Q 3191 2616 2906 2266 
Q 2828 2175 2409 1742 
Q 1991 1309 1228 531 
z
" transform="scale(0.015625)"/>
        <path id="DejaVuSans-35" d="M 691 4666 
L 3169 4666 
L 3169 4134 
L 1269 4134 
L 1269 2991 
Q 1406 3038 1543 3061 
Q 1681 3084 1819 3084 
Q 2600 3084 3056 2656 
Q 3513 2228 3513 1497 
Q 3513 744 3044 326 
Q 2575 -91 1722 -91 
Q 1428 -91 1123 -41 
Q 819 9 494 109 
L 494 744 
Q 775 591 1075 516 
Q 1375 441 1709 441 
Q 2250 441 2565 725 
Q 2881 1009 2881 1497 
Q 2881 1984 2565 2268 
Q 2250 2553 1709 2553 
Q 1456 2553 1204 2497 
Q 953 2441 691 2322 
L 691 4666 
z
" transform="scale(0.015625)"/>
       </defs>
       <use xlink:href="#DejaVuSans-30"/>
       <use xlink:href="#DejaVuSans-2e" transform="translate(63.623047 0)"/>
       <use xlink:href="#DejaVuSans-32" transform="translate(95.410156 0)"/>
       <use xlink:href="#DejaVuSans-35" transform="translate(159.033203 0)"/>
      </g>
     </g>
    </g>
    <g id="xtick_3">
     <g id="line2d_3">
      <path d="M 203.954399 390.04 
L 203.954399 57.0062 
" clip-path="url(#pf72c37201b)" style="fill: none; stroke: #ffffff; stroke-width: 0.8; stroke-linecap: round"/>
     </g>
     <g id="text_3">
      <!-- 0.50 -->
      <g style="fill: #262626" transform="translate(192.821587 404.638438) scale(0.1 -0.1)">
       <use xlink:href="#DejaVuSans-30"/>
       <use xlink:href="#DejaVuSans-2e" transform="translate(63.623047 0)"/>
       <use xlink:href="#DejaVuSans-35" transform="translate(95.410156 0)"/>
       <use xlink:href="#DejaVuSans-30" transform="translate(159.033203 0)"/>
      </g>
     </g>
    </g>
    <g id="xtick_4">
     <g id="line2d_4">
      <path d="M 273.116184 390.04 
L 273.116184 57.0062 
" clip-path="url(#pf72c37201b)" style="fill: none; stroke: #ffffff; stroke-width: 0.8; stroke-linecap: round"/>
     </g>
     <g id="text_4">
      <!-- 0.75 -->
      <g style="fill: #262626" transform="translate(261.983371 404.638438) scale(0.1 -0.1)">
       <defs>
        <path id="DejaVuSans-37" d="M 525 4666 
L 3525 4666 
L 3525 4397 
L 1831 0 
L 1172 0 
L 2766 4134 
L 525 4134 
L 525 4666 
z
" transform="scale(0.015625)"/>
       </defs>
       <use xlink:href="#DejaVuSans-30"/>
       <use xlink:href="#DejaVuSans-2e" transform="translate(63.623047 0)"/>
       <use xlink:href="#DejaVuSans-37" transform="translate(95.410156 0)"/>
       <use xlink:href="#DejaVuSans-35" transform="translate(159.033203 0)"/>
      </g>
     </g>
    </g>
    <g id="xtick_5">
     <g id="line2d_5">
      <path d="M 342.277969 390.04 
L 342.277969 57.0062 
" clip-path="url(#pf72c37201b)" style="fill: none; stroke: #ffffff; stroke-width: 0.8; stroke-linecap: round"/>
     </g>
     <g id="text_5">
      <!-- 1.00 -->
      <g style="fill: #262626" transform="translate(331.145156 404.638438) scale(0.1 -0.1)">
       <defs>
        <path id="DejaVuSans-31" d="M 794 531 
L 1825 531 
L 1825 4091 
L 703 3866 
L 703 4441 
L 1819 4666 
L 2450 4666 
L 2450 531 
L 3481 531 
L 3481 0 
L 794 0 
L 794 531 
z
" transform="scale(0.015625)"/>
       </defs>
       <use xlink:href="#DejaVuSans-31"/>
       <use xlink:href="#DejaVuSans-2e" transform="translate(63.623047 0)"/>
       <use xlink:href="#DejaVuSans-30" transform="translate(95.410156 0)"/>
       <use xlink:href="#DejaVuSans-30" transform="translate(159.033203 0)"/>
      </g>
     </g>
    </g>
    <g id="xtick_6">
     <g id="line2d_6">
      <path d="M 411.439753 390.04 
L 411.439753 57.0062 
" clip-path="url(#pf72c37201b)" style="fill: none; stroke: #ffffff; stroke-width: 0.8; stroke-linecap: round"/>
     </g>
     <g id="text_6">
      <!-- 1.25 -->
      <g style="fill: #262626" transform="translate(400.306941 404.638438) scale(0.1 -0.1)">
       <use xlink:href="#DejaVuSans-31"/>
       <use xlink:href="#DejaVuSans-2e" transform="translate(63.623047 0)"/>
       <use xlink:href="#DejaVuSans-32" transform="translate(95.410156 0)"/>
       <use xlink:href="#DejaVuSans-35" transform="translate(159.033203 0)"/>
      </g>
     </g>
    </g>
    <g id="xtick_7">
     <g id="line2d_7">
      <path d="M 480.601538 390.04 
L 480.601538 57.0062 
" clip-path="url(#pf72c37201b)" style="fill: none; stroke: #ffffff; stroke-width: 0.8; stroke-linecap: round"/>
     </g>
     <g id="text_7">
      <!-- 1.50 -->
      <g style="fill: #262626" transform="translate(469.468726 404.638438) scale(0.1 -0.1)">
       <use xlink:href="#DejaVuSans-31"/>
       <use xlink:href="#DejaVuSans-2e" transform="translate(63.623047 0)"/>
       <use xlink:href="#DejaVuSans-35" transform="translate(95.410156 0)"/>
       <use xlink:href="#DejaVuSans-30" transform="translate(159.033203 0)"/>
      </g>
     </g>
    </g>
    <g id="xtick_8">
     <g id="line2d_8">
      <path d="M 549.763323 390.04 
L 549.763323 57.0062 
" clip-path="url(#pf72c37201b)" style="fill: none; stroke: #ffffff; stroke-width: 0.8; stroke-linecap: round"/>
     </g>
     <g id="text_8">
      <!-- 1.75 -->
      <g style="fill: #262626" transform="translate(538.63051 404.638438) scale(0.1 -0.1)">
       <use xlink:href="#DejaVuSans-31"/>
       <use xlink:href="#DejaVuSans-2e" transform="translate(63.623047 0)"/>
       <use xlink:href="#DejaVuSans-37" transform="translate(95.410156 0)"/>
       <use xlink:href="#DejaVuSans-35" transform="translate(159.033203 0)"/>
      </g>
     </g>
    </g>
    <g id="xtick_9">
     <g id="line2d_9">
      <path d="M 618.925107 390.04 
L 618.925107 57.0062 
" clip-path="url(#pf72c37201b)" style="fill: none; stroke: #ffffff; stroke-width: 0.8; stroke-linecap: round"/>
     </g>
     <g id="text_9">
      <!-- 2.00 -->
      <g style="fill: #262626" transform="translate(607.792295 404.638438) scale(0.1 -0.1)">
       <use xlink:href="#DejaVuSans-32"/>
       <use xlink:href="#DejaVuSans-2e" transform="translate(63.623047 0)"/>
       <use xlink:href="#DejaVuSans-30" transform="translate(95.410156 0)"/>
       <use xlink:href="#DejaVuSans-30" transform="translate(159.033203 0)"/>
      </g>
     </g>
    </g>
    <g id="text_10">
     <!-- Steps -->
     <g style="fill: #262626" transform="translate(334.927656 418.316562) scale(0.1 -0.1)">
      <defs>
       <path id="DejaVuSans-53" d="M 3425 4513 
L 3425 3897 
Q 3066 4069 2747 4153 
Q 2428 4238 2131 4238 
Q 1616 4238 1336 4038 
Q 1056 3838 1056 3469 
Q 1056 3159 1242 3001 
Q 1428 2844 1947 2747 
L 2328 2669 
Q 3034 2534 3370 2195 
Q 3706 1856 3706 1288 
Q 3706 609 3251 259 
Q 2797 -91 1919 -91 
Q 1588 -91 1214 -16 
Q 841 59 441 206 
L 441 856 
Q 825 641 1194 531 
Q 1563 422 1919 422 
Q 2459 422 2753 634 
Q 3047 847 3047 1241 
Q 3047 1584 2836 1778 
Q 2625 1972 2144 2069 
L 1759 2144 
Q 1053 2284 737 2584 
Q 422 2884 422 3419 
Q 422 4038 858 4394 
Q 1294 4750 2059 4750 
Q 2388 4750 2728 4690 
Q 3069 4631 3425 4513 
z
" transform="scale(0.015625)"/>
       <path id="DejaVuSans-74" d="M 1172 4494 
L 1172 3500 
L 2356 3500 
L 2356 3053 
L 1172 3053 
L 1172 1153 
Q 1172 725 1289 603 
Q 1406 481 1766 481 
L 2356 481 
L 2356 0 
L 1766 0 
Q 1100 0 847 248 
Q 594 497 594 1153 
L 594 3053 
L 172 3053 
L 172 3500 
L 594 3500 
L 594 4494 
L 1172 4494 
z
" transform="scale(0.015625)"/>
       <path id="DejaVuSans-65" d="M 3597 1894 
L 3597 1613 
L 953 1613 
Q 991 1019 1311 708 
Q 1631 397 2203 397 
Q 2534 397 2845 478 
Q 3156 559 3463 722 
L 3463 178 
Q 3153 47 2828 -22 
Q 2503 -91 2169 -91 
Q 1331 -91 842 396 
Q 353 884 353 1716 
Q 353 2575 817 3079 
Q 1281 3584 2069 3584 
Q 2775 3584 3186 3129 
Q 3597 2675 3597 1894 
z
M 3022 2063 
Q 3016 2534 2758 2815 
Q 2500 3097 2075 3097 
Q 1594 3097 1305 2825 
Q 1016 2553 972 2059 
L 3022 2063 
z
" transform="scale(0.015625)"/>
       <path id="DejaVuSans-70" d="M 1159 525 
L 1159 -1331 
L 581 -1331 
L 581 3500 
L 1159 3500 
L 1159 2969 
Q 1341 3281 1617 3432 
Q 1894 3584 2278 3584 
Q 2916 3584 3314 3078 
Q 3713 2572 3713 1747 
Q 3713 922 3314 415 
Q 2916 -91 2278 -91 
Q 1894 -91 1617 61 
Q 1341 213 1159 525 
z
M 3116 1747 
Q 3116 2381 2855 2742 
Q 2594 3103 2138 3103 
Q 1681 3103 1420 2742 
Q 1159 2381 1159 1747 
Q 1159 1113 1420 752 
Q 1681 391 2138 391 
Q 2594 391 2855 752 
Q 3116 1113 3116 1747 
z
" transform="scale(0.015625)"/>
       <path id="DejaVuSans-73" d="M 2834 3397 
L 2834 2853 
Q 2591 2978 2328 3040 
Q 2066 3103 1784 3103 
Q 1356 3103 1142 2972 
Q 928 2841 928 2578 
Q 928 2378 1081 2264 
Q 1234 2150 1697 2047 
L 1894 2003 
Q 2506 1872 2764 1633 
Q 3022 1394 3022 966 
Q 3022 478 2636 193 
Q 2250 -91 1575 -91 
Q 1294 -91 989 -36 
Q 684 19 347 128 
L 347 722 
Q 666 556 975 473 
Q 1284 391 1588 391 
Q 1994 391 2212 530 
Q 2431 669 2431 922 
Q 2431 1156 2273 1281 
Q 2116 1406 1581 1522 
L 1381 1569 
Q 847 1681 609 1914 
Q 372 2147 372 2553 
Q 372 3047 722 3315 
Q 1072 3584 1716 3584 
Q 2034 3584 2315 3537 
Q 2597 3491 2834 3397 
z
" transform="scale(0.015625)"/>
      </defs>
      <use xlink:href="#DejaVuSans-53"/>
      <use xlink:href="#DejaVuSans-74" transform="translate(63.476562 0)"/>
      <use xlink:href="#DejaVuSans-65" transform="translate(102.685547 0)"/>
      <use xlink:href="#DejaVuSans-70" transform="translate(164.208984 0)"/>
      <use xlink:href="#DejaVuSans-73" transform="translate(227.685547 0)"/>
     </g>
    </g>
    <g id="text_11">
     <!-- 1e6 -->
     <g style="fill: #262626" transform="translate(613.326875 417.316562) scale(0.1 -0.1)">
      <defs>
       <path id="DejaVuSans-36" d="M 2113 2584 
Q 1688 2584 1439 2293 
Q 1191 2003 1191 1497 
Q 1191 994 1439 701 
Q 1688 409 2113 409 
Q 2538 409 2786 701 
Q 3034 994 3034 1497 
Q 3034 2003 2786 2293 
Q 2538 2584 2113 2584 
z
M 3366 4563 
L 3366 3988 
Q 3128 4100 2886 4159 
Q 2644 4219 2406 4219 
Q 1781 4219 1451 3797 
Q 1122 3375 1075 2522 
Q 1259 2794 1537 2939 
Q 1816 3084 2150 3084 
Q 2853 3084 3261 2657 
Q 3669 2231 3669 1497 
Q 3669 778 3244 343 
Q 2819 -91 2113 -91 
Q 1303 -91 875 529 
Q 447 1150 447 2328 
Q 447 3434 972 4092 
Q 1497 4750 2381 4750 
Q 2619 4750 2861 4703 
Q 3103 4656 3366 4563 
z
" transform="scale(0.015625)"/>
      </defs>
      <use xlink:href="#DejaVuSans-31"/>
      <use xlink:href="#DejaVuSans-65" transform="translate(63.623047 0)"/>
      <use xlink:href="#DejaVuSans-36" transform="translate(125.146484 0)"/>
     </g>
    </g>
   </g>
   <g id="matplotlib.axis_2">
    <g id="ytick_1">
     <g id="line2d_10">
      <path d="M 65.63 390.04 
L 632.205 390.04 
" clip-path="url(#pf72c37201b)" style="fill: none; stroke: #ffffff; stroke-width: 0.8; stroke-linecap: round"/>
     </g>
     <g id="text_12">
      <!-- −1600 -->
      <g style="fill: #262626" transform="translate(24.800313 393.839219) scale(0.1 -0.1)">
       <defs>
        <path id="DejaVuSans-2212" d="M 678 2272 
L 4684 2272 
L 4684 1741 
L 678 1741 
L 678 2272 
z
" transform="scale(0.015625)"/>
       </defs>
       <use xlink:href="#DejaVuSans-2212"/>
       <use xlink:href="#DejaVuSans-31" transform="translate(83.789062 0)"/>
       <use xlink:href="#DejaVuSans-36" transform="translate(147.412109 0)"/>
       <use xlink:href="#DejaVuSans-30" transform="translate(211.035156 0)"/>
       <use xlink:href="#DejaVuSans-30" transform="translate(274.658203 0)"/>
      </g>
     </g>
    </g>
    <g id="ytick_2">
     <g id="line2d_11">
      <path d="M 65.63 348.410775 
L 632.205 348.410775 
" clip-path="url(#pf72c37201b)" style="fill: none; stroke: #ffffff; stroke-width: 0.8; stroke-linecap: round"/>
     </g>
     <g id="text_13">
      <!-- −1400 -->
      <g style="fill: #262626" transform="translate(24.800313 352.209994) scale(0.1 -0.1)">
       <defs>
        <path id="DejaVuSans-34" d="M 2419 4116 
L 825 1625 
L 2419 1625 
L 2419 4116 
z
M 2253 4666 
L 3047 4666 
L 3047 1625 
L 3713 1625 
L 3713 1100 
L 3047 1100 
L 3047 0 
L 2419 0 
L 2419 1100 
L 313 1100 
L 313 1709 
L 2253 4666 
z
" transform="scale(0.015625)"/>
       </defs>
       <use xlink:href="#DejaVuSans-2212"/>
       <use xlink:href="#DejaVuSans-31" transform="translate(83.789062 0)"/>
       <use xlink:href="#DejaVuSans-34" transform="translate(147.412109 0)"/>
       <use xlink:href="#DejaVuSans-30" transform="translate(211.035156 0)"/>
       <use xlink:href="#DejaVuSans-30" transform="translate(274.658203 0)"/>
      </g>
     </g>
    </g>
    <g id="ytick_3">
     <g id="line2d_12">
      <path d="M 65.63 306.78155 
L 632.205 306.78155 
" clip-path="url(#pf72c37201b)" style="fill: none; stroke: #ffffff; stroke-width: 0.8; stroke-linecap: round"/>
     </g>
     <g id="text_14">
      <!-- −1200 -->
      <g style="fill: #262626" transform="translate(24.800313 310.580769) scale(0.1 -0.1)">
       <use xlink:href="#DejaVuSans-2212"/>
       <use xlink:href="#DejaVuSans-31" transform="translate(83.789062 0)"/>
       <use xlink:href="#DejaVuSans-32" transform="translate(147.412109 0)"/>
       <use xlink:href="#DejaVuSans-30" transform="translate(211.035156 0)"/>
       <use xlink:href="#DejaVuSans-30" transform="translate(274.658203 0)"/>
      </g>
     </g>
    </g>
    <g id="ytick_4">
     <g id="line2d_13">
      <path d="M 65.63 265.152325 
L 632.205 265.152325 
" clip-path="url(#pf72c37201b)" style="fill: none; stroke: #ffffff; stroke-width: 0.8; stroke-linecap: round"/>
     </g>
     <g id="text_15">
      <!-- −1000 -->
      <g style="fill: #262626" transform="translate(24.800313 268.951544) scale(0.1 -0.1)">
       <use xlink:href="#DejaVuSans-2212"/>
       <use xlink:href="#DejaVuSans-31" transform="translate(83.789062 0)"/>
       <use xlink:href="#DejaVuSans-30" transform="translate(147.412109 0)"/>
       <use xlink:href="#DejaVuSans-30" transform="translate(211.035156 0)"/>
       <use xlink:href="#DejaVuSans-30" transform="translate(274.658203 0)"/>
      </g>
     </g>
    </g>
    <g id="ytick_5">
     <g id="line2d_14">
      <path d="M 65.63 223.5231 
L 632.205 223.5231 
" clip-path="url(#pf72c37201b)" style="fill: none; stroke: #ffffff; stroke-width: 0.8; stroke-linecap: round"/>
     </g>
     <g id="text_16">
      <!-- −800 -->
      <g style="fill: #262626" transform="translate(31.162813 227.322319) scale(0.1 -0.1)">
       <defs>
        <path id="DejaVuSans-38" d="M 2034 2216 
Q 1584 2216 1326 1975 
Q 1069 1734 1069 1313 
Q 1069 891 1326 650 
Q 1584 409 2034 409 
Q 2484 409 2743 651 
Q 3003 894 3003 1313 
Q 3003 1734 2745 1975 
Q 2488 2216 2034 2216 
z
M 1403 2484 
Q 997 2584 770 2862 
Q 544 3141 544 3541 
Q 544 4100 942 4425 
Q 1341 4750 2034 4750 
Q 2731 4750 3128 4425 
Q 3525 4100 3525 3541 
Q 3525 3141 3298 2862 
Q 3072 2584 2669 2484 
Q 3125 2378 3379 2068 
Q 3634 1759 3634 1313 
Q 3634 634 3220 271 
Q 2806 -91 2034 -91 
Q 1263 -91 848 271 
Q 434 634 434 1313 
Q 434 1759 690 2068 
Q 947 2378 1403 2484 
z
M 1172 3481 
Q 1172 3119 1398 2916 
Q 1625 2713 2034 2713 
Q 2441 2713 2670 2916 
Q 2900 3119 2900 3481 
Q 2900 3844 2670 4047 
Q 2441 4250 2034 4250 
Q 1625 4250 1398 4047 
Q 1172 3844 1172 3481 
z
" transform="scale(0.015625)"/>
       </defs>
       <use xlink:href="#DejaVuSans-2212"/>
       <use xlink:href="#DejaVuSans-38" transform="translate(83.789062 0)"/>
       <use xlink:href="#DejaVuSans-30" transform="translate(147.412109 0)"/>
       <use xlink:href="#DejaVuSans-30" transform="translate(211.035156 0)"/>
      </g>
     </g>
    </g>
    <g id="ytick_6">
     <g id="line2d_15">
      <path d="M 65.63 181.893875 
L 632.205 181.893875 
" clip-path="url(#pf72c37201b)" style="fill: none; stroke: #ffffff; stroke-width: 0.8; stroke-linecap: round"/>
     </g>
     <g id="text_17">
      <!-- −600 -->
      <g style="fill: #262626" transform="translate(31.162813 185.693094) scale(0.1 -0.1)">
       <use xlink:href="#DejaVuSans-2212"/>
       <use xlink:href="#DejaVuSans-36" transform="translate(83.789062 0)"/>
       <use xlink:href="#DejaVuSans-30" transform="translate(147.412109 0)"/>
       <use xlink:href="#DejaVuSans-30" transform="translate(211.035156 0)"/>
      </g>
     </g>
    </g>
    <g id="ytick_7">
     <g id="line2d_16">
      <path d="M 65.63 140.26465 
L 632.205 140.26465 
" clip-path="url(#pf72c37201b)" style="fill: none; stroke: #ffffff; stroke-width: 0.8; stroke-linecap: round"/>
     </g>
     <g id="text_18">
      <!-- −400 -->
      <g style="fill: #262626" transform="translate(31.162813 144.063869) scale(0.1 -0.1)">
       <use xlink:href="#DejaVuSans-2212"/>
       <use xlink:href="#DejaVuSans-34" transform="translate(83.789062 0)"/>
       <use xlink:href="#DejaVuSans-30" transform="translate(147.412109 0)"/>
       <use xlink:href="#DejaVuSans-30" transform="translate(211.035156 0)"/>
      </g>
     </g>
    </g>
    <g id="ytick_8">
     <g id="line2d_17">
      <path d="M 65.63 98.635425 
L 632.205 98.635425 
" clip-path="url(#pf72c37201b)" style="fill: none; stroke: #ffffff; stroke-width: 0.8; stroke-linecap: round"/>
     </g>
     <g id="text_19">
      <!-- −200 -->
      <g style="fill: #262626" transform="translate(31.162813 102.434644) scale(0.1 -0.1)">
       <use xlink:href="#DejaVuSans-2212"/>
       <use xlink:href="#DejaVuSans-32" transform="translate(83.789062 0)"/>
       <use xlink:href="#DejaVuSans-30" transform="translate(147.412109 0)"/>
       <use xlink:href="#DejaVuSans-30" transform="translate(211.035156 0)"/>
      </g>
     </g>
    </g>
    <g id="ytick_9">
     <g id="line2d_18">
      <path d="M 65.63 57.0062 
L 632.205 57.0062 
" clip-path="url(#pf72c37201b)" style="fill: none; stroke: #ffffff; stroke-width: 0.8; stroke-linecap: round"/>
     </g>
     <g id="text_20">
      <!-- 0 -->
      <g style="fill: #262626" transform="translate(52.2675 60.805419) scale(0.1 -0.1)">
       <use xlink:href="#DejaVuSans-30"/>
      </g>
     </g>
    </g>
    <g id="text_21">
     <!-- Reward -->
     <g style="fill: #262626" transform="translate(18.720625 242.144194) rotate(-90) scale(0.1 -0.1)">
      <defs>
       <path id="DejaVuSans-52" d="M 2841 2188 
Q 3044 2119 3236 1894 
Q 3428 1669 3622 1275 
L 4263 0 
L 3584 0 
L 2988 1197 
Q 2756 1666 2539 1819 
Q 2322 1972 1947 1972 
L 1259 1972 
L 1259 0 
L 628 0 
L 628 4666 
L 2053 4666 
Q 2853 4666 3247 4331 
Q 3641 3997 3641 3322 
Q 3641 2881 3436 2590 
Q 3231 2300 2841 2188 
z
M 1259 4147 
L 1259 2491 
L 2053 2491 
Q 2509 2491 2742 2702 
Q 2975 2913 2975 3322 
Q 2975 3731 2742 3939 
Q 2509 4147 2053 4147 
L 1259 4147 
z
" transform="scale(0.015625)"/>
       <path id="DejaVuSans-77" d="M 269 3500 
L 844 3500 
L 1563 769 
L 2278 3500 
L 2956 3500 
L 3675 769 
L 4391 3500 
L 4966 3500 
L 4050 0 
L 3372 0 
L 2619 2869 
L 1863 0 
L 1184 0 
L 269 3500 
z
" transform="scale(0.015625)"/>
       <path id="DejaVuSans-61" d="M 2194 1759 
Q 1497 1759 1228 1600 
Q 959 1441 959 1056 
Q 959 750 1161 570 
Q 1363 391 1709 391 
Q 2188 391 2477 730 
Q 2766 1069 2766 1631 
L 2766 1759 
L 2194 1759 
z
M 3341 1997 
L 3341 0 
L 2766 0 
L 2766 531 
Q 2569 213 2275 61 
Q 1981 -91 1556 -91 
Q 1019 -91 701 211 
Q 384 513 384 1019 
Q 384 1609 779 1909 
Q 1175 2209 1959 2209 
L 2766 2209 
L 2766 2266 
Q 2766 2663 2505 2880 
Q 2244 3097 1772 3097 
Q 1472 3097 1187 3025 
Q 903 2953 641 2809 
L 641 3341 
Q 956 3463 1253 3523 
Q 1550 3584 1831 3584 
Q 2591 3584 2966 3190 
Q 3341 2797 3341 1997 
z
" transform="scale(0.015625)"/>
       <path id="DejaVuSans-72" d="M 2631 2963 
Q 2534 3019 2420 3045 
Q 2306 3072 2169 3072 
Q 1681 3072 1420 2755 
Q 1159 2438 1159 1844 
L 1159 0 
L 581 0 
L 581 3500 
L 1159 3500 
L 1159 2956 
Q 1341 3275 1631 3429 
Q 1922 3584 2338 3584 
Q 2397 3584 2469 3576 
Q 2541 3569 2628 3553 
L 2631 2963 
z
" transform="scale(0.015625)"/>
       <path id="DejaVuSans-64" d="M 2906 2969 
L 2906 4863 
L 3481 4863 
L 3481 0 
L 2906 0 
L 2906 525 
Q 2725 213 2448 61 
Q 2172 -91 1784 -91 
Q 1150 -91 751 415 
Q 353 922 353 1747 
Q 353 2572 751 3078 
Q 1150 3584 1784 3584 
Q 2172 3584 2448 3432 
Q 2725 3281 2906 2969 
z
M 947 1747 
Q 947 1113 1208 752 
Q 1469 391 1925 391 
Q 2381 391 2643 752 
Q 2906 1113 2906 1747 
Q 2906 2381 2643 2742 
Q 2381 3103 1925 3103 
Q 1469 3103 1208 2742 
Q 947 2381 947 1747 
z
" transform="scale(0.015625)"/>
      </defs>
      <use xlink:href="#DejaVuSans-52"/>
      <use xlink:href="#DejaVuSans-65" transform="translate(64.982422 0)"/>
      <use xlink:href="#DejaVuSans-77" transform="translate(126.505859 0)"/>
      <use xlink:href="#DejaVuSans-61" transform="translate(208.292969 0)"/>
      <use xlink:href="#DejaVuSans-72" transform="translate(269.572266 0)"/>
      <use xlink:href="#DejaVuSans-64" transform="translate(308.935547 0)"/>
     </g>
    </g>
   </g>
   <g id="FillBetweenPolyCollection_1">
    <path d="M 65.63083 297.701637 
L 65.63083 330.164053 
L 71.296563 306.815654 
L 76.962297 318.016006 
L 82.62803 315.494631 
L 88.293764 318.664271 
L 93.959497 310.214812 
L 99.62523 314.892536 
L 105.290964 316.66675 
L 110.956697 314.425229 
L 116.622431 301.885972 
L 122.288164 305.588426 
L 127.953897 317.718817 
L 133.619631 304.816469 
L 139.285364 295.265398 
L 144.951098 295.362208 
L 150.616831 287.85186 
L 156.282564 289.154453 
L 161.948298 284.354264 
L 167.614031 276.436457 
L 173.279765 281.9214 
L 178.945498 283.397599 
L 184.611231 290.564317 
L 190.276965 274.040723 
L 195.942698 271.38371 
L 201.608432 264.942156 
L 207.274165 266.342917 
L 212.939898 258.913208 
L 218.605632 246.048637 
L 224.271365 255.517627 
L 229.937099 252.236841 
L 235.602832 235.156997 
L 241.268565 234.510551 
L 246.934299 240.63502 
L 252.600032 222.269875 
L 258.265766 215.36677 
L 263.931499 197.450429 
L 269.597232 178.038671 
L 275.262966 166.00979 
L 280.928699 172.305496 
L 286.594433 156.025445 
L 292.260166 128.641768 
L 297.925899 133.352093 
L 303.591633 119.663809 
L 309.257366 117.411035 
L 314.9231 119.674397 
L 320.588833 123.477354 
L 326.254566 109.489347 
L 331.9203 135.893119 
L 337.586033 119.858545 
L 343.251767 104.722253 
L 348.9175 109.904186 
L 354.583233 106.661672 
L 360.248967 101.073947 
L 365.9147 98.528879 
L 371.580434 102.472846 
L 377.246167 101.299516 
L 382.9119 98.518025 
L 388.577634 95.685065 
L 394.243367 94.029438 
L 399.909101 99.540754 
L 405.574834 103.154439 
L 411.240567 93.531089 
L 416.906301 98.422595 
L 422.572034 94.641267 
L 428.237768 101.420105 
L 433.903501 95.935183 
L 439.569234 93.800007 
L 445.234968 100.326721 
L 450.900701 124.861479 
L 456.566435 95.632315 
L 462.232168 91.892228 
L 467.897901 104.712672 
L 473.563635 97.141295 
L 479.229368 95.253874 
L 484.895102 93.615795 
L 490.560835 92.535046 
L 496.226568 92.512844 
L 501.892302 100.347304 
L 507.558035 96.666071 
L 513.223769 93.976318 
L 518.889502 98.372285 
L 524.555235 91.718635 
L 530.220969 90.790788 
L 535.886702 97.547898 
L 541.552436 96.404207 
L 547.218169 95.540054 
L 552.883902 95.224441 
L 558.549636 97.580293 
L 564.215369 95.001341 
L 569.881103 92.672983 
L 575.546836 96.967956 
L 581.212569 91.844105 
L 586.878303 95.478897 
L 592.544036 94.312517 
L 598.20977 93.24091 
L 603.875503 91.389449 
L 609.541236 94.077015 
L 615.20697 97.219704 
L 620.872703 94.838938 
L 626.538437 89.459094 
L 626.538437 84.470028 
L 626.538437 84.470028 
L 620.872703 84.567002 
L 615.20697 89.26417 
L 609.541236 85.854465 
L 603.875503 84.805918 
L 598.20977 88.286507 
L 592.544036 88.350295 
L 586.878303 87.947021 
L 581.212569 85.884957 
L 575.546836 84.256306 
L 569.881103 81.278818 
L 564.215369 88.972491 
L 558.549636 89.090766 
L 552.883902 82.678301 
L 547.218169 87.267468 
L 541.552436 89.061748 
L 535.886702 88.485548 
L 530.220969 84.814813 
L 524.555235 88.302698 
L 518.889502 86.377026 
L 513.223769 88.272217 
L 507.558035 86.83975 
L 501.892302 85.976148 
L 496.226568 84.911245 
L 490.560835 90.647648 
L 484.895102 89.888865 
L 479.229368 90.276062 
L 473.563635 84.840795 
L 467.897901 83.808921 
L 462.232168 88.327811 
L 456.566435 87.731142 
L 450.900701 79.968279 
L 445.234968 93.036732 
L 439.569234 86.098035 
L 433.903501 84.836163 
L 428.237768 91.052394 
L 422.572034 89.211217 
L 416.906301 88.69389 
L 411.240567 87.667461 
L 405.574834 86.700863 
L 399.909101 90.732991 
L 394.243367 82.318556 
L 388.577634 88.635442 
L 382.9119 86.365344 
L 377.246167 91.864174 
L 371.580434 90.171528 
L 365.9147 90.682155 
L 360.248967 94.487338 
L 354.583233 94.572581 
L 348.9175 92.974262 
L 343.251767 98.670646 
L 337.586033 99.837815 
L 331.9203 86.78302 
L 326.254566 97.086601 
L 320.588833 100.442173 
L 314.9231 103.677055 
L 309.257366 103.102023 
L 303.591633 89.577807 
L 297.925899 109.314061 
L 292.260166 94.594654 
L 286.594433 104.439469 
L 280.928699 99.835168 
L 275.262966 116.369057 
L 269.597232 112.960356 
L 263.931499 133.179432 
L 258.265766 144.771472 
L 252.600032 164.497107 
L 246.934299 184.245803 
L 241.268565 198.422894 
L 235.602832 212.895201 
L 229.937099 214.755239 
L 224.271365 226.299653 
L 218.605632 237.839437 
L 212.939898 232.112898 
L 207.274165 237.37946 
L 201.608432 246.730456 
L 195.942698 248.859041 
L 190.276965 253.322255 
L 184.611231 256.344315 
L 178.945498 252.038226 
L 173.279765 261.859267 
L 167.614031 265.214323 
L 161.948298 254.631516 
L 156.282564 266.752396 
L 150.616831 278.891021 
L 144.951098 278.034306 
L 139.285364 281.588104 
L 133.619631 276.580708 
L 127.953897 295.511356 
L 122.288164 285.690748 
L 116.622431 287.867333 
L 110.956697 287.871486 
L 105.290964 283.234648 
L 99.62523 288.618321 
L 93.959497 294.94764 
L 88.293764 287.22425 
L 82.62803 307.515673 
L 76.962297 283.189665 
L 71.296563 286.266102 
L 65.63083 297.701637 
z
" clip-path="url(#pf72c37201b)" style="fill: #0000ff; fill-opacity: 0.1"/>
   </g>
   <g id="line2d_19">
    <path d="M 65.63083 313.932845 
L 71.296563 296.540878 
L 76.962297 300.602836 
L 82.62803 311.505152 
L 88.293764 302.944261 
L 93.959497 302.581226 
L 99.62523 301.755429 
L 105.290964 299.950699 
L 110.956697 301.148358 
L 116.622431 294.876652 
L 122.288164 295.639587 
L 127.953897 306.615086 
L 133.619631 290.698588 
L 139.285364 288.426751 
L 144.951098 286.698257 
L 150.616831 283.37144 
L 156.282564 277.953424 
L 161.948298 269.49289 
L 167.614031 270.82539 
L 173.279765 271.890334 
L 178.945498 267.717912 
L 184.611231 273.454316 
L 190.276965 263.681489 
L 195.942698 260.121376 
L 201.608432 255.836306 
L 207.274165 251.861188 
L 212.939898 245.513053 
L 218.605632 241.944037 
L 224.271365 240.90864 
L 229.937099 233.49604 
L 235.602832 224.026099 
L 241.268565 216.466722 
L 246.934299 212.440411 
L 252.600032 193.383491 
L 258.265766 180.069121 
L 263.931499 165.31493 
L 269.597232 145.499514 
L 275.262966 141.189423 
L 280.928699 136.070332 
L 286.594433 130.232457 
L 292.260166 111.618211 
L 297.925899 121.333077 
L 303.591633 104.620808 
L 309.257366 110.256529 
L 314.9231 111.675726 
L 320.588833 111.959764 
L 326.254566 103.287974 
L 331.9203 111.338069 
L 337.586033 109.84818 
L 343.251767 101.69645 
L 348.9175 101.439224 
L 354.583233 100.617127 
L 360.248967 97.780642 
L 365.9147 94.605517 
L 371.580434 96.322187 
L 377.246167 96.581845 
L 382.9119 92.441685 
L 388.577634 92.160253 
L 394.243367 88.173997 
L 399.909101 95.136873 
L 405.574834 94.927651 
L 411.240567 90.599275 
L 416.906301 93.558242 
L 422.572034 91.926242 
L 428.237768 96.23625 
L 433.903501 90.385673 
L 439.569234 89.949021 
L 445.234968 96.681727 
L 450.900701 102.414879 
L 456.566435 91.681728 
L 462.232168 90.110019 
L 467.897901 94.260796 
L 473.563635 90.991045 
L 479.229368 92.764968 
L 484.895102 91.75233 
L 490.560835 91.591347 
L 496.226568 88.712045 
L 501.892302 93.161726 
L 507.558035 91.752911 
L 513.223769 91.124267 
L 518.889502 92.374656 
L 524.555235 90.010667 
L 530.220969 87.8028 
L 535.886702 93.016723 
L 541.552436 92.732977 
L 547.218169 91.403761 
L 552.883902 88.951371 
L 558.549636 93.335529 
L 564.215369 91.986916 
L 569.881103 86.975901 
L 575.546836 90.612131 
L 581.212569 88.864531 
L 586.878303 91.712959 
L 592.544036 91.331406 
L 598.20977 90.763708 
L 603.875503 88.097683 
L 609.541236 89.96574 
L 615.20697 93.241937 
L 620.872703 89.70297 
L 626.538437 86.964561 
" clip-path="url(#pf72c37201b)" style="fill: none; stroke: #0000ff; stroke-width: 1.5; stroke-linecap: round"/>
   </g>
   <g id="line2d_20">
    <path d="M 65.63083 324.516452 
L 71.296563 287.647477 
L 76.962297 275.778289 
L 82.62803 318.500188 
L 88.293764 276.52407 
L 93.959497 307.653729 
L 99.62523 285.81521 
L 105.290964 274.661136 
L 110.956697 321.137817 
L 116.622431 294.431858 
L 122.288164 313.880933 
L 127.953897 318.244507 
L 133.619631 291.390826 
L 139.285364 291.34622 
L 144.951098 299.280336 
L 150.616831 282.786831 
L 156.282564 261.049346 
L 161.948298 284.500303 
L 167.614031 268.062861 
L 173.279765 279.053382 
L 178.945498 258.308113 
L 184.611231 254.89443 
L 190.276965 260.001679 
L 195.942698 243.824887 
L 201.608432 248.738027 
L 207.274165 233.605078 
L 212.939898 247.778669 
L 218.605632 238.344292 
L 224.271365 225.467817 
L 229.937099 213.809854 
L 235.602832 214.227953 
L 241.268565 199.23974 
L 246.934299 178.104449 
L 252.600032 175.894523 
L 258.265766 157.686063 
L 263.931499 148.380902 
L 269.597232 120.842511 
L 275.262966 129.228511 
L 280.928699 109.743751 
L 286.594433 103.348648 
L 292.260166 98.543572 
L 297.925899 125.831998 
L 303.591633 94.039082 
L 309.257366 105.439242 
L 314.9231 113.344694 
L 320.588833 100.629602 
L 326.254566 107.225052 
L 331.9203 101.642909 
L 337.586033 97.691341 
L 343.251767 102.038866 
L 348.9175 98.969752 
L 354.583233 94.715859 
L 360.248967 98.81332 
L 365.9147 100.79111 
L 371.580434 87.243312 
L 377.246167 94.901282 
L 382.9119 94.10783 
L 388.577634 94.414337 
L 394.243367 84.529884 
L 399.909101 102.324307 
L 405.574834 91.019394 
L 411.240567 86.652908 
L 416.906301 89.262705 
L 422.572034 91.430725 
L 428.237768 87.91915 
L 433.903501 90.32483 
L 439.569234 97.048477 
L 445.234968 102.34603 
L 450.900701 147.03545 
L 456.566435 98.515774 
L 462.232168 90.684335 
L 467.897901 90.510631 
L 473.563635 99.311266 
L 479.229368 92.371729 
L 484.895102 90.397932 
L 490.560835 91.665665 
L 496.226568 87.876326 
L 501.892302 91.160299 
L 507.558035 86.365755 
L 513.223769 86.925697 
L 518.889502 89.690015 
L 524.555235 89.528803 
L 530.220969 88.462412 
L 535.886702 93.378036 
L 541.552436 87.103041 
L 547.218169 97.363189 
L 552.883902 81.955118 
L 558.549636 88.368851 
L 564.215369 86.81022 
L 569.881103 86.179991 
L 575.546836 84.081112 
L 581.212569 86.350492 
L 586.878303 90.135121 
L 592.544036 88.244492 
L 598.20977 87.744712 
L 603.875503 82.864919 
L 609.541236 94.6363 
L 615.20697 90.265446 
L 620.872703 88.038352 
L 626.538437 85.842665 
" clip-path="url(#pf72c37201b)" style="fill: none; stroke: #008000; stroke-opacity: 0.2; stroke-linecap: round"/>
   </g>
   <g id="line2d_21">
    <path d="M 65.63083 319.552068 
L 71.296563 297.514512 
L 76.962297 318.517757 
L 82.62803 313.002426 
L 88.293764 315.136773 
L 93.959497 291.65221 
L 99.62523 290.633136 
L 105.290964 293.24868 
L 110.956697 298.437885 
L 116.622431 282.915236 
L 122.288164 296.436704 
L 127.953897 314.350741 
L 133.619631 289.381073 
L 139.285364 287.79381 
L 144.951098 280.987262 
L 150.616831 284.083424 
L 156.282564 286.522042 
L 161.948298 258.860054 
L 167.614031 270.889859 
L 173.279765 265.805158 
L 178.945498 275.42657 
L 184.611231 283.137418 
L 190.276965 264.379869 
L 195.942698 255.589024 
L 201.608432 260.680502 
L 207.274165 249.455946 
L 212.939898 259.097405 
L 218.605632 243.65053 
L 224.271365 263.038524 
L 229.937099 261.910553 
L 235.602832 243.506778 
L 241.268565 236.521997 
L 246.934299 247.635362 
L 252.600032 234.072888 
L 258.265766 225.091769 
L 263.931499 222.058112 
L 269.597232 205.017934 
L 275.262966 186.977228 
L 280.928699 198.673406 
L 286.594433 176.73813 
L 292.260166 139.889245 
L 297.925899 139.678817 
L 303.591633 126.068225 
L 309.257366 117.612705 
L 314.9231 123.414371 
L 320.588833 122.968193 
L 326.254566 103.388666 
L 331.9203 158.797936 
L 337.586033 99.095119 
L 343.251767 103.988971 
L 348.9175 117.916863 
L 354.583233 106.229576 
L 360.248967 95.276497 
L 365.9147 96.391167 
L 371.580434 99.814332 
L 377.246167 98.454168 
L 382.9119 94.102389 
L 388.577634 85.380501 
L 394.243367 84.653751 
L 399.909101 92.864288 
L 405.574834 89.873134 
L 411.240567 93.897845 
L 416.906301 102.665993 
L 422.572034 93.788137 
L 428.237768 94.807118 
L 433.903501 85.996672 
L 439.569234 87.2181 
L 445.234968 94.367447 
L 450.900701 93.824507 
L 456.566435 87.02948 
L 462.232168 87.84373 
L 467.897901 113.026681 
L 473.563635 85.776775 
L 479.229368 93.642811 
L 484.895102 91.29249 
L 490.560835 91.343996 
L 496.226568 89.519692 
L 501.892302 89.245025 
L 507.558035 98.979274 
L 513.223769 90.8322 
L 518.889502 94.893745 
L 524.555235 91.034941 
L 530.220969 86.658522 
L 535.886702 97.532049 
L 541.552436 97.393029 
L 547.218169 90.964341 
L 552.883902 88.735183 
L 558.549636 89.349269 
L 564.215369 90.566541 
L 569.881103 86.770803 
L 575.546836 82.148299 
L 581.212569 84.409244 
L 586.878303 98.840487 
L 592.544036 93.746396 
L 598.20977 94.870669 
L 603.875503 90.060185 
L 609.541236 83.745969 
L 615.20697 100.163059 
L 620.872703 86.307719 
L 626.538437 89.022673 
" clip-path="url(#pf72c37201b)" style="fill: none; stroke: #008000; stroke-opacity: 0.2; stroke-linecap: round"/>
   </g>
   <g id="line2d_22">
    <path d="M 65.63083 323.260684 
L 71.296563 314.531474 
L 76.962297 307.414518 
L 82.62803 307.059746 
L 88.293764 310.528678 
L 93.959497 295.071528 
L 99.62523 318.617628 
L 105.290964 295.479671 
L 110.956697 285.938606 
L 116.622431 293.836026 
L 122.288164 293.09516 
L 127.953897 307.766185 
L 133.619631 313.269091 
L 139.285364 296.044251 
L 144.951098 283.641734 
L 150.616831 278.014282 
L 156.282564 285.79443 
L 161.948298 270.47209 
L 167.614031 261.905658 
L 173.279765 270.845733 
L 178.945498 261.6656 
L 184.611231 269.016235 
L 190.276965 250.747832 
L 195.942698 258.263839 
L 201.608432 252.377446 
L 207.274165 265.678808 
L 212.939898 243.491564 
L 218.605632 243.500244 
L 224.271365 235.096004 
L 229.937099 219.494054 
L 235.602832 221.048553 
L 241.268565 211.64622 
L 246.934299 222.237664 
L 252.600032 194.608374 
L 258.265766 199.3657 
L 263.931499 171.75117 
L 269.597232 151.466226 
L 275.262966 136.263869 
L 280.928699 153.787005 
L 286.594433 113.327468 
L 292.260166 117.352536 
L 297.925899 120.691425 
L 303.591633 119.416636 
L 309.257366 120.191346 
L 314.9231 115.097537 
L 320.588833 104.275346 
L 326.254566 103.589193 
L 331.9203 99.819998 
L 337.586033 121.212404 
L 343.251767 100.137059 
L 348.9175 95.407108 
L 354.583233 102.9993 
L 360.248967 92.79936 
L 365.9147 91.016865 
L 371.580434 98.860254 
L 377.246167 92.039728 
L 382.9119 102.122655 
L 388.577634 92.2507 
L 394.243367 97.398263 
L 399.909101 92.663041 
L 405.574834 88.887588 
L 411.240567 88.098358 
L 416.906301 89.598591 
L 422.572034 95.31073 
L 428.237768 95.274376 
L 433.903501 87.324081 
L 439.569234 88.717796 
L 445.234968 95.90141 
L 450.900701 86.63013 
L 456.566435 91.321517 
L 462.232168 88.645916 
L 467.897901 82.665555 
L 473.563635 97.420859 
L 479.229368 96.961092 
L 484.895102 94.76079 
L 490.560835 93.322579 
L 496.226568 84.804187 
L 501.892302 90.666132 
L 507.558035 95.484022 
L 513.223769 90.919696 
L 518.889502 88.52675 
L 524.555235 92.740325 
L 530.220969 87.440936 
L 535.886702 96.406682 
L 541.552436 91.752223 
L 547.218169 94.678383 
L 552.883902 100.384517 
L 558.549636 100.20831 
L 564.215369 93.013398 
L 569.881103 79.380793 
L 575.546836 98.293238 
L 581.212569 91.779594 
L 586.878303 87.769138 
L 592.544036 95.944553 
L 598.20977 91.418028 
L 603.875503 88.143866 
L 609.541236 93.535524 
L 615.20697 88.552341 
L 620.872703 92.071766 
L 626.538437 87.813141 
" clip-path="url(#pf72c37201b)" style="fill: none; stroke: #008000; stroke-opacity: 0.2; stroke-linecap: round"/>
   </g>
   <g id="line2d_23">
    <path d="M 65.63083 281.664228 
L 71.296563 297.565257 
L 76.962297 284.33485 
L 82.62803 309.003691 
L 88.293764 293.829653 
L 93.959497 309.744509 
L 99.62523 298.231054 
L 105.290964 314.446915 
L 110.956697 311.090398 
L 116.622431 303.933294 
L 122.288164 284.309215 
L 127.953897 306.594154 
L 133.619631 290.774361 
L 139.285364 275.798789 
L 144.951098 293.950078 
L 150.616831 291.33178 
L 156.282564 288.362898 
L 161.948298 286.190369 
L 167.614031 275.464567 
L 173.279765 286.25565 
L 178.945498 294.118034 
L 184.611231 301.526574 
L 190.276965 282.330511 
L 195.942698 278.07126 
L 201.608432 271.19174 
L 207.274165 271.018151 
L 212.939898 256.040907 
L 218.605632 247.852326 
L 224.271365 252.815283 
L 229.937099 249.384213 
L 235.602832 228.178262 
L 241.268565 238.719521 
L 246.934299 233.610148 
L 252.600032 212.080595 
L 258.265766 194.100327 
L 263.931499 158.717336 
L 269.597232 136.800906 
L 275.262966 140.858982 
L 280.928699 118.5919 
L 286.594433 137.574739 
L 292.260166 111.803669 
L 297.925899 117.931531 
L 303.591633 89.410819 
L 309.257366 105.048748 
L 314.9231 106.865793 
L 320.588833 128.663565 
L 326.254566 110.263705 
L 331.9203 107.992493 
L 337.586033 111.048105 
L 343.251767 96.834648 
L 348.9175 94.954012 
L 354.583233 106.935646 
L 360.248967 101.800722 
L 365.9147 89.861598 
L 371.580434 91.387299 
L 377.246167 92.639074 
L 382.9119 85.324298 
L 388.577634 93.593082 
L 394.243367 92.554707 
L 399.909101 97.856407 
L 405.574834 111.047442 
L 411.240567 93.80328 
L 416.906301 92.474475 
L 422.572034 87.269965 
L 428.237768 103.153675 
L 433.903501 87.172386 
L 439.569234 90.599938 
L 445.234968 91.85575 
L 450.900701 92.717647 
L 456.566435 88.783573 
L 462.232168 90.405207 
L 467.897901 97.005155 
L 473.563635 87.941483 
L 479.229368 91.286564 
L 484.895102 92.821464 
L 490.560835 91.108033 
L 496.226568 95.57197 
L 501.892302 87.43901 
L 507.558035 91.205891 
L 513.223769 91.033292 
L 518.889502 102.85028 
L 524.555235 88.874731 
L 530.220969 92.830771 
L 535.886702 84.612658 
L 541.552436 91.351077 
L 547.218169 86.536974 
L 552.883902 88.858291 
L 558.549636 94.117455 
L 564.215369 94.616087 
L 569.881103 85.487077 
L 575.546836 93.282321 
L 581.212569 90.024709 
L 586.878303 91.533358 
L 592.544036 89.475154 
L 598.20977 91.06629 
L 603.875503 92.688472 
L 609.541236 86.807373 
L 615.20697 93.412013 
L 620.872703 98.409214 
L 626.538437 82.658501 
" clip-path="url(#pf72c37201b)" style="fill: none; stroke: #008000; stroke-opacity: 0.2; stroke-linecap: round"/>
   </g>
   <g id="line2d_24">
    <path d="M 65.63083 320.670793 
L 71.296563 285.445668 
L 76.962297 316.968764 
L 82.62803 309.959707 
L 88.293764 318.702129 
L 93.959497 308.784154 
L 99.62523 315.480115 
L 105.290964 321.917091 
L 110.956697 289.137082 
L 116.622431 299.266848 
L 122.288164 290.475923 
L 127.953897 286.119846 
L 133.619631 268.677591 
L 139.285364 291.150684 
L 144.951098 275.631875 
L 150.616831 280.640885 
L 156.282564 268.038405 
L 161.948298 247.441634 
L 167.614031 277.804004 
L 173.279765 257.491746 
L 178.945498 249.071244 
L 184.611231 258.696923 
L 190.276965 260.947555 
L 195.942698 264.857868 
L 201.608432 246.193815 
L 207.274165 239.547958 
L 212.939898 221.15672 
L 218.605632 236.372793 
L 224.271365 228.125572 
L 229.937099 222.881526 
L 235.602832 213.16895 
L 241.268565 196.206132 
L 246.934299 180.614433 
L 252.600032 150.261075 
L 258.265766 124.101744 
L 263.931499 125.667133 
L 269.597232 113.369991 
L 275.262966 112.618526 
L 280.928699 99.555599 
L 286.594433 120.173301 
L 292.260166 90.502031 
L 297.925899 102.531614 
L 303.591633 94.169279 
L 309.257366 102.990604 
L 314.9231 99.656234 
L 320.588833 103.26211 
L 326.254566 91.973254 
L 331.9203 88.437011 
L 337.586033 120.193931 
L 343.251767 105.482704 
L 348.9175 99.948384 
L 354.583233 92.205251 
L 360.248967 100.213314 
L 365.9147 94.966846 
L 371.580434 104.305737 
L 377.246167 104.874972 
L 382.9119 86.551252 
L 388.577634 95.162647 
L 394.243367 81.733379 
L 399.909101 89.976321 
L 405.574834 93.810698 
L 411.240567 90.543982 
L 416.906301 93.789448 
L 422.572034 91.831653 
L 428.237768 100.02693 
L 433.903501 101.110396 
L 439.569234 86.160794 
L 445.234968 98.937996 
L 450.900701 91.86666 
L 456.566435 92.758298 
L 462.232168 92.970909 
L 467.897901 88.095959 
L 473.563635 84.504841 
L 479.229368 89.562642 
L 484.895102 89.488973 
L 490.560835 90.516461 
L 496.226568 85.788048 
L 501.892302 107.298165 
L 507.558035 86.729611 
L 513.223769 95.91045 
L 518.889502 85.912489 
L 524.555235 87.874532 
L 530.220969 83.621359 
L 535.886702 93.154192 
L 541.552436 96.065518 
L 547.218169 87.475918 
L 552.883902 84.823747 
L 558.549636 94.633761 
L 564.215369 94.928333 
L 569.881103 97.060838 
L 575.546836 95.255684 
L 581.212569 91.758616 
L 586.878303 90.286692 
L 592.544036 89.246437 
L 598.20977 88.718842 
L 603.875503 86.730974 
L 609.541236 91.103536 
L 615.20697 93.816827 
L 620.872703 83.6878 
L 626.538437 89.485824 
" clip-path="url(#pf72c37201b)" style="fill: none; stroke: #008000; stroke-opacity: 0.2; stroke-linecap: round"/>
   </g>
   <g id="line2d_25">
    <path d="M 65.63083 57.0062 
L 71.296563 61.379162 
L 76.962297 67.057204 
L 82.62803 69.692245 
L 88.293764 82.580782 
L 93.959497 89.629161 
L 99.62523 93.317795 
L 105.290964 99.902524 
L 110.956697 106.300424 
L 116.622431 112.67154 
L 122.288164 122.20909 
L 127.953897 143.44142 
L 133.619631 158.04789 
L 139.285364 168.809897 
L 144.951098 165.028979 
L 150.616831 168.268115 
L 156.282564 180.309978 
L 161.948298 195.438283 
L 167.614031 186.428193 
L 173.279765 194.143327 
L 178.945498 204.643096 
L 184.611231 209.038797 
L 190.276965 211.027077 
L 195.942698 228.118659 
L 201.608432 221.950968 
L 207.274165 232.758843 
L 212.939898 245.262114 
L 218.605632 262.355341 
L 224.271365 263.743521 
L 229.937099 277.190893 
L 235.602832 280.109263 
L 241.268565 301.094035 
L 246.934299 312.71172 
L 252.600032 312.041107 
L 258.265766 326.180236 
L 263.931499 335.965992 
L 269.597232 334.628725 
L 275.262966 341.002175 
L 280.928699 347.781685 
L 286.594433 349.860752 
L 292.260166 348.477433 
L 297.925899 359.834484 
L 303.591633 362.381131 
L 309.257366 359.295847 
L 314.9231 369.908507 
L 320.588833 365.987928 
L 326.254566 368.586392 
L 331.9203 390.04 
L 337.586033 377.20136 
L 343.251767 367.556214 
L 348.9175 371.115379 
L 354.583233 361.682991 
L 360.248967 356.358203 
L 365.9147 358.307545 
L 371.580434 359.918822 
L 377.246167 366.634429 
L 382.9119 368.259523 
L 388.577634 361.397799 
L 394.243367 367.08322 
L 399.909101 376.224595 
L 405.574834 382.161163 
L 411.240567 373.775258 
L 416.906301 375.620331 
L 422.572034 363.680013 
L 428.237768 357.217371 
L 433.903501 343.427632 
L 439.569234 336.373082 
L 445.234968 339.360107 
L 450.900701 347.90308 
L 456.566435 321.081618 
L 462.232168 310.451118 
L 467.897901 308.485353 
L 473.563635 299.674915 
L 479.229368 303.742007 
L 484.895102 299.192957 
L 490.560835 292.974013 
L 496.226568 282.707458 
L 501.892302 284.975549 
L 507.558035 275.489668 
L 513.223769 274.604547 
L 518.889502 270.662706 
L 524.555235 264.901381 
L 530.220969 257.22875 
L 535.886702 265.50215 
L 541.552436 262.408036 
L 547.218169 261.324207 
L 552.883902 257.853692 
L 558.549636 253.683386 
L 564.215369 249.575203 
L 569.881103 240.134285 
L 575.546836 247.153791 
L 581.212569 236.359481 
L 586.878303 234.341538 
L 592.544036 238.09083 
L 598.20977 236.669813 
L 603.875503 236.234749 
L 609.541236 235.006643 
L 615.20697 237.899289 
L 620.872703 231.006224 
L 626.538437 221.992341 
" clip-path="url(#pf72c37201b)" style="fill: none; stroke: #800080; stroke-linecap: round"/>
   </g>
   <g id="patch_3">
    <path d="M 65.63 390.04 
L 65.63 57.0062 
" style="fill: none; stroke: #ffffff; stroke-width: 0.8; stroke-linejoin: miter; stroke-linecap: square"/>
   </g>
   <g id="patch_4">
    <path d="M 632.205 390.04 
L 632.205 57.0062 
" style="fill: none; stroke: #ffffff; stroke-width: 0.8; stroke-linejoin: miter; stroke-linecap: square"/>
   </g>
   <g id="patch_5">
    <path d="M 65.63 390.04 
L 632.205 390.04 
" style="fill: none; stroke: #ffffff; stroke-width: 0.8; stroke-linejoin: miter; stroke-linecap: square"/>
   </g>
   <g id="patch_6">
    <path d="M 65.63 57.0062 
L 632.205 57.0062 
" style="fill: none; stroke: #ffffff; stroke-width: 0.8; stroke-linejoin: miter; stroke-linecap: square"/>
   </g>
   <g id="legend_1">
    <g id="line2d_26">
     <path d="M 97.385341 41.274494 
L 105.715341 41.274494 
L 114.045341 41.274494 
" style="fill: none; stroke: #0000ff; stroke-width: 1.5; stroke-linecap: round"/>
    </g>
    <g id="text_22">
     <!-- Mean Reward -->
     <g style="fill: #262626" transform="translate(120.709341 44.189994) scale(0.0833 -0.0833)">
      <defs>
       <path id="DejaVuSans-4d" d="M 628 4666 
L 1569 4666 
L 2759 1491 
L 3956 4666 
L 4897 4666 
L 4897 0 
L 4281 0 
L 4281 4097 
L 3078 897 
L 2444 897 
L 1241 4097 
L 1241 0 
L 628 0 
L 628 4666 
z
" transform="scale(0.015625)"/>
       <path id="DejaVuSans-6e" d="M 3513 2113 
L 3513 0 
L 2938 0 
L 2938 2094 
Q 2938 2591 2744 2837 
Q 2550 3084 2163 3084 
Q 1697 3084 1428 2787 
Q 1159 2491 1159 1978 
L 1159 0 
L 581 0 
L 581 3500 
L 1159 3500 
L 1159 2956 
Q 1366 3272 1645 3428 
Q 1925 3584 2291 3584 
Q 2894 3584 3203 3211 
Q 3513 2838 3513 2113 
z
" transform="scale(0.015625)"/>
       <path id="DejaVuSans-20" transform="scale(0.015625)"/>
      </defs>
      <use xlink:href="#DejaVuSans-4d"/>
      <use xlink:href="#DejaVuSans-65" transform="translate(86.279297 0)"/>
      <use xlink:href="#DejaVuSans-61" transform="translate(147.802734 0)"/>
      <use xlink:href="#DejaVuSans-6e" transform="translate(209.082031 0)"/>
      <use xlink:href="#DejaVuSans-20" transform="translate(272.460938 0)"/>
      <use xlink:href="#DejaVuSans-52" transform="translate(304.248047 0)"/>
      <use xlink:href="#DejaVuSans-65" transform="translate(369.230469 0)"/>
      <use xlink:href="#DejaVuSans-77" transform="translate(430.753906 0)"/>
      <use xlink:href="#DejaVuSans-61" transform="translate(512.541016 0)"/>
      <use xlink:href="#DejaVuSans-72" transform="translate(573.820312 0)"/>
      <use xlink:href="#DejaVuSans-64" transform="translate(613.183594 0)"/>
     </g>
    </g>
    <g id="line2d_27">
     <path d="M 193.736108 41.274494 
L 202.066108 41.274494 
L 210.396108 41.274494 
" style="fill: none; stroke: #008000; stroke-opacity: 0.2; stroke-linecap: round"/>
    </g>
    <g id="text_23">
     <!-- Reward (individual runs) -->
     <g style="fill: #262626" transform="translate(217.060108 44.189994) scale(0.0833 -0.0833)">
      <defs>
       <path id="DejaVuSans-28" d="M 1984 4856 
Q 1566 4138 1362 3434 
Q 1159 2731 1159 2009 
Q 1159 1288 1364 580 
Q 1569 -128 1984 -844 
L 1484 -844 
Q 1016 -109 783 600 
Q 550 1309 550 2009 
Q 550 2706 781 3412 
Q 1013 4119 1484 4856 
L 1984 4856 
z
" transform="scale(0.015625)"/>
       <path id="DejaVuSans-69" d="M 603 3500 
L 1178 3500 
L 1178 0 
L 603 0 
L 603 3500 
z
M 603 4863 
L 1178 4863 
L 1178 4134 
L 603 4134 
L 603 4863 
z
" transform="scale(0.015625)"/>
       <path id="DejaVuSans-76" d="M 191 3500 
L 800 3500 
L 1894 563 
L 2988 3500 
L 3597 3500 
L 2284 0 
L 1503 0 
L 191 3500 
z
" transform="scale(0.015625)"/>
       <path id="DejaVuSans-75" d="M 544 1381 
L 544 3500 
L 1119 3500 
L 1119 1403 
Q 1119 906 1312 657 
Q 1506 409 1894 409 
Q 2359 409 2629 706 
Q 2900 1003 2900 1516 
L 2900 3500 
L 3475 3500 
L 3475 0 
L 2900 0 
L 2900 538 
Q 2691 219 2414 64 
Q 2138 -91 1772 -91 
Q 1169 -91 856 284 
Q 544 659 544 1381 
z
M 1991 3584 
L 1991 3584 
z
" transform="scale(0.015625)"/>
       <path id="DejaVuSans-6c" d="M 603 4863 
L 1178 4863 
L 1178 0 
L 603 0 
L 603 4863 
z
" transform="scale(0.015625)"/>
       <path id="DejaVuSans-29" d="M 513 4856 
L 1013 4856 
Q 1481 4119 1714 3412 
Q 1947 2706 1947 2009 
Q 1947 1309 1714 600 
Q 1481 -109 1013 -844 
L 513 -844 
Q 928 -128 1133 580 
Q 1338 1288 1338 2009 
Q 1338 2731 1133 3434 
Q 928 4138 513 4856 
z
" transform="scale(0.015625)"/>
      </defs>
      <use xlink:href="#DejaVuSans-52"/>
      <use xlink:href="#DejaVuSans-65" transform="translate(64.982422 0)"/>
      <use xlink:href="#DejaVuSans-77" transform="translate(126.505859 0)"/>
      <use xlink:href="#DejaVuSans-61" transform="translate(208.292969 0)"/>
      <use xlink:href="#DejaVuSans-72" transform="translate(269.572266 0)"/>
      <use xlink:href="#DejaVuSans-64" transform="translate(308.935547 0)"/>
      <use xlink:href="#DejaVuSans-20" transform="translate(372.412109 0)"/>
      <use xlink:href="#DejaVuSans-28" transform="translate(404.199219 0)"/>
      <use xlink:href="#DejaVuSans-69" transform="translate(443.212891 0)"/>
      <use xlink:href="#DejaVuSans-6e" transform="translate(470.996094 0)"/>
      <use xlink:href="#DejaVuSans-64" transform="translate(534.375 0)"/>
      <use xlink:href="#DejaVuSans-69" transform="translate(597.851562 0)"/>
      <use xlink:href="#DejaVuSans-76" transform="translate(625.634766 0)"/>
      <use xlink:href="#DejaVuSans-69" transform="translate(684.814453 0)"/>
      <use xlink:href="#DejaVuSans-64" transform="translate(712.597656 0)"/>
      <use xlink:href="#DejaVuSans-75" transform="translate(776.074219 0)"/>
      <use xlink:href="#DejaVuSans-61" transform="translate(839.453125 0)"/>
      <use xlink:href="#DejaVuSans-6c" transform="translate(900.732422 0)"/>
      <use xlink:href="#DejaVuSans-20" transform="translate(928.515625 0)"/>
      <use xlink:href="#DejaVuSans-72" transform="translate(960.302734 0)"/>
      <use xlink:href="#DejaVuSans-75" transform="translate(1001.416016 0)"/>
      <use xlink:href="#DejaVuSans-6e" transform="translate(1064.794922 0)"/>
      <use xlink:href="#DejaVuSans-73" transform="translate(1128.173828 0)"/>
      <use xlink:href="#DejaVuSans-29" transform="translate(1180.273438 0)"/>
     </g>
    </g>
    <g id="line2d_28">
     <path d="M 335.286236 41.274494 
L 343.616236 41.274494 
L 351.946236 41.274494 
" style="fill: none; stroke: #800080; stroke-linecap: round"/>
    </g>
    <g id="text_24">
     <!-- Entropy (normalized) -->
     <g style="fill: #262626" transform="translate(358.610236 44.189994) scale(0.0833 -0.0833)">
      <defs>
       <path id="DejaVuSans-45" d="M 628 4666 
L 3578 4666 
L 3578 4134 
L 1259 4134 
L 1259 2753 
L 3481 2753 
L 3481 2222 
L 1259 2222 
L 1259 531 
L 3634 531 
L 3634 0 
L 628 0 
L 628 4666 
z
" transform="scale(0.015625)"/>
       <path id="DejaVuSans-6f" d="M 1959 3097 
Q 1497 3097 1228 2736 
Q 959 2375 959 1747 
Q 959 1119 1226 758 
Q 1494 397 1959 397 
Q 2419 397 2687 759 
Q 2956 1122 2956 1747 
Q 2956 2369 2687 2733 
Q 2419 3097 1959 3097 
z
M 1959 3584 
Q 2709 3584 3137 3096 
Q 3566 2609 3566 1747 
Q 3566 888 3137 398 
Q 2709 -91 1959 -91 
Q 1206 -91 779 398 
Q 353 888 353 1747 
Q 353 2609 779 3096 
Q 1206 3584 1959 3584 
z
" transform="scale(0.015625)"/>
       <path id="DejaVuSans-79" d="M 2059 -325 
Q 1816 -950 1584 -1140 
Q 1353 -1331 966 -1331 
L 506 -1331 
L 506 -850 
L 844 -850 
Q 1081 -850 1212 -737 
Q 1344 -625 1503 -206 
L 1606 56 
L 191 3500 
L 800 3500 
L 1894 763 
L 2988 3500 
L 3597 3500 
L 2059 -325 
z
" transform="scale(0.015625)"/>
       <path id="DejaVuSans-6d" d="M 3328 2828 
Q 3544 3216 3844 3400 
Q 4144 3584 4550 3584 
Q 5097 3584 5394 3201 
Q 5691 2819 5691 2113 
L 5691 0 
L 5113 0 
L 5113 2094 
Q 5113 2597 4934 2840 
Q 4756 3084 4391 3084 
Q 3944 3084 3684 2787 
Q 3425 2491 3425 1978 
L 3425 0 
L 2847 0 
L 2847 2094 
Q 2847 2600 2669 2842 
Q 2491 3084 2119 3084 
Q 1678 3084 1418 2786 
Q 1159 2488 1159 1978 
L 1159 0 
L 581 0 
L 581 3500 
L 1159 3500 
L 1159 2956 
Q 1356 3278 1631 3431 
Q 1906 3584 2284 3584 
Q 2666 3584 2933 3390 
Q 3200 3197 3328 2828 
z
" transform="scale(0.015625)"/>
       <path id="DejaVuSans-7a" d="M 353 3500 
L 3084 3500 
L 3084 2975 
L 922 459 
L 3084 459 
L 3084 0 
L 275 0 
L 275 525 
L 2438 3041 
L 353 3041 
L 353 3500 
z
" transform="scale(0.015625)"/>
      </defs>
      <use xlink:href="#DejaVuSans-45"/>
      <use xlink:href="#DejaVuSans-6e" transform="translate(63.183594 0)"/>
      <use xlink:href="#DejaVuSans-74" transform="translate(126.5625 0)"/>
      <use xlink:href="#DejaVuSans-72" transform="translate(165.771484 0)"/>
      <use xlink:href="#DejaVuSans-6f" transform="translate(204.634766 0)"/>
      <use xlink:href="#DejaVuSans-70" transform="translate(265.816406 0)"/>
      <use xlink:href="#DejaVuSans-79" transform="translate(329.292969 0)"/>
      <use xlink:href="#DejaVuSans-20" transform="translate(388.472656 0)"/>
      <use xlink:href="#DejaVuSans-28" transform="translate(420.259766 0)"/>
      <use xlink:href="#DejaVuSans-6e" transform="translate(459.273438 0)"/>
      <use xlink:href="#DejaVuSans-6f" transform="translate(522.652344 0)"/>
      <use xlink:href="#DejaVuSans-72" transform="translate(583.833984 0)"/>
      <use xlink:href="#DejaVuSans-6d" transform="translate(623.197266 0)"/>
      <use xlink:href="#DejaVuSans-61" transform="translate(720.609375 0)"/>
      <use xlink:href="#DejaVuSans-6c" transform="translate(781.888672 0)"/>
      <use xlink:href="#DejaVuSans-69" transform="translate(809.671875 0)"/>
      <use xlink:href="#DejaVuSans-7a" transform="translate(837.455078 0)"/>
      <use xlink:href="#DejaVuSans-65" transform="translate(889.945312 0)"/>
      <use xlink:href="#DejaVuSans-64" transform="translate(951.46875 0)"/>
      <use xlink:href="#DejaVuSans-29" transform="translate(1014.945312 0)"/>
     </g>
    </g>
    <g id="patch_7">
     <path d="M 463.065833 44.189994 
L 479.725833 44.189994 
L 479.725833 38.358994 
L 463.065833 38.358994 
z
" style="fill: #0000ff; fill-opacity: 0.1"/>
    </g>
    <g id="text_25">
     <!-- Reward Standard Deviation -->
     <g style="fill: #262626" transform="translate(486.389833 44.189994) scale(0.0833 -0.0833)">
      <defs>
       <path id="DejaVuSans-44" d="M 1259 4147 
L 1259 519 
L 2022 519 
Q 2988 519 3436 956 
Q 3884 1394 3884 2338 
Q 3884 3275 3436 3711 
Q 2988 4147 2022 4147 
L 1259 4147 
z
M 628 4666 
L 1925 4666 
Q 3281 4666 3915 4102 
Q 4550 3538 4550 2338 
Q 4550 1131 3912 565 
Q 3275 0 1925 0 
L 628 0 
L 628 4666 
z
" transform="scale(0.015625)"/>
      </defs>
      <use xlink:href="#DejaVuSans-52"/>
      <use xlink:href="#DejaVuSans-65" transform="translate(64.982422 0)"/>
      <use xlink:href="#DejaVuSans-77" transform="translate(126.505859 0)"/>
      <use xlink:href="#DejaVuSans-61" transform="translate(208.292969 0)"/>
      <use xlink:href="#DejaVuSans-72" transform="translate(269.572266 0)"/>
      <use xlink:href="#DejaVuSans-64" transform="translate(308.935547 0)"/>
      <use xlink:href="#DejaVuSans-20" transform="translate(372.412109 0)"/>
      <use xlink:href="#DejaVuSans-53" transform="translate(404.199219 0)"/>
      <use xlink:href="#DejaVuSans-74" transform="translate(467.675781 0)"/>
      <use xlink:href="#DejaVuSans-61" transform="translate(506.884766 0)"/>
      <use xlink:href="#DejaVuSans-6e" transform="translate(568.164062 0)"/>
      <use xlink:href="#DejaVuSans-64" transform="translate(631.542969 0)"/>
      <use xlink:href="#DejaVuSans-61" transform="translate(695.019531 0)"/>
      <use xlink:href="#DejaVuSans-72" transform="translate(756.298828 0)"/>
      <use xlink:href="#DejaVuSans-64" transform="translate(795.662109 0)"/>
      <use xlink:href="#DejaVuSans-20" transform="translate(859.138672 0)"/>
      <use xlink:href="#DejaVuSans-44" transform="translate(890.925781 0)"/>
      <use xlink:href="#DejaVuSans-65" transform="translate(967.927734 0)"/>
      <use xlink:href="#DejaVuSans-76" transform="translate(1029.451172 0)"/>
      <use xlink:href="#DejaVuSans-69" transform="translate(1088.630859 0)"/>
      <use xlink:href="#DejaVuSans-61" transform="translate(1116.414062 0)"/>
      <use xlink:href="#DejaVuSans-74" transform="translate(1177.693359 0)"/>
      <use xlink:href="#DejaVuSans-69" transform="translate(1216.902344 0)"/>
      <use xlink:href="#DejaVuSans-6f" transform="translate(1244.685547 0)"/>
      <use xlink:href="#DejaVuSans-6e" transform="translate(1305.867188 0)"/>
     </g>
    </g>
   </g>
  </g>
  <g id="text_26">
   <!-- Rewards: Pendulum-v1 (Discretized) - GNN_N (Entropy) -->
   <g style="fill: #262626" transform="translate(136.6425 17.758125) scale(0.12 -0.12)">
    <defs>
     <path id="DejaVuSans-Bold-52" d="M 2297 2597 
Q 2675 2597 2839 2737 
Q 3003 2878 3003 3200 
Q 3003 3519 2839 3656 
Q 2675 3794 2297 3794 
L 1791 3794 
L 1791 2597 
L 2297 2597 
z
M 1791 1766 
L 1791 0 
L 588 0 
L 588 4666 
L 2425 4666 
Q 3347 4666 3776 4356 
Q 4206 4047 4206 3378 
Q 4206 2916 3982 2619 
Q 3759 2322 3309 2181 
Q 3556 2125 3751 1926 
Q 3947 1728 4147 1325 
L 4800 0 
L 3519 0 
L 2950 1159 
Q 2778 1509 2601 1637 
Q 2425 1766 2131 1766 
L 1791 1766 
z
" transform="scale(0.015625)"/>
     <path id="DejaVuSans-Bold-65" d="M 4031 1759 
L 4031 1441 
L 1416 1441 
Q 1456 1047 1700 850 
Q 1944 653 2381 653 
Q 2734 653 3104 758 
Q 3475 863 3866 1075 
L 3866 213 
Q 3469 63 3072 -14 
Q 2675 -91 2278 -91 
Q 1328 -91 801 392 
Q 275 875 275 1747 
Q 275 2603 792 3093 
Q 1309 3584 2216 3584 
Q 3041 3584 3536 3087 
Q 4031 2591 4031 1759 
z
M 2881 2131 
Q 2881 2450 2695 2645 
Q 2509 2841 2209 2841 
Q 1884 2841 1681 2658 
Q 1478 2475 1428 2131 
L 2881 2131 
z
" transform="scale(0.015625)"/>
     <path id="DejaVuSans-Bold-77" d="M 225 3500 
L 1313 3500 
L 1900 1088 
L 2491 3500 
L 3425 3500 
L 4013 1113 
L 4603 3500 
L 5691 3500 
L 4769 0 
L 3547 0 
L 2956 2406 
L 2369 0 
L 1147 0 
L 225 3500 
z
" transform="scale(0.015625)"/>
     <path id="DejaVuSans-Bold-61" d="M 2106 1575 
Q 1756 1575 1579 1456 
Q 1403 1338 1403 1106 
Q 1403 894 1545 773 
Q 1688 653 1941 653 
Q 2256 653 2472 879 
Q 2688 1106 2688 1447 
L 2688 1575 
L 2106 1575 
z
M 3816 1997 
L 3816 0 
L 2688 0 
L 2688 519 
Q 2463 200 2181 54 
Q 1900 -91 1497 -91 
Q 953 -91 614 226 
Q 275 544 275 1050 
Q 275 1666 698 1953 
Q 1122 2241 2028 2241 
L 2688 2241 
L 2688 2328 
Q 2688 2594 2478 2717 
Q 2269 2841 1825 2841 
Q 1466 2841 1156 2769 
Q 847 2697 581 2553 
L 581 3406 
Q 941 3494 1303 3539 
Q 1666 3584 2028 3584 
Q 2975 3584 3395 3211 
Q 3816 2838 3816 1997 
z
" transform="scale(0.015625)"/>
     <path id="DejaVuSans-Bold-72" d="M 3138 2547 
Q 2991 2616 2845 2648 
Q 2700 2681 2553 2681 
Q 2122 2681 1889 2404 
Q 1656 2128 1656 1613 
L 1656 0 
L 538 0 
L 538 3500 
L 1656 3500 
L 1656 2925 
Q 1872 3269 2151 3426 
Q 2431 3584 2822 3584 
Q 2878 3584 2943 3579 
Q 3009 3575 3134 3559 
L 3138 2547 
z
" transform="scale(0.015625)"/>
     <path id="DejaVuSans-Bold-64" d="M 2919 2988 
L 2919 4863 
L 4044 4863 
L 4044 0 
L 2919 0 
L 2919 506 
Q 2688 197 2409 53 
Q 2131 -91 1766 -91 
Q 1119 -91 703 423 
Q 288 938 288 1747 
Q 288 2556 703 3070 
Q 1119 3584 1766 3584 
Q 2128 3584 2408 3439 
Q 2688 3294 2919 2988 
z
M 2181 722 
Q 2541 722 2730 984 
Q 2919 1247 2919 1747 
Q 2919 2247 2730 2509 
Q 2541 2772 2181 2772 
Q 1825 2772 1636 2509 
Q 1447 2247 1447 1747 
Q 1447 1247 1636 984 
Q 1825 722 2181 722 
z
" transform="scale(0.015625)"/>
     <path id="DejaVuSans-Bold-73" d="M 3272 3391 
L 3272 2541 
Q 2913 2691 2578 2766 
Q 2244 2841 1947 2841 
Q 1628 2841 1473 2761 
Q 1319 2681 1319 2516 
Q 1319 2381 1436 2309 
Q 1553 2238 1856 2203 
L 2053 2175 
Q 2913 2066 3209 1816 
Q 3506 1566 3506 1031 
Q 3506 472 3093 190 
Q 2681 -91 1863 -91 
Q 1516 -91 1145 -36 
Q 775 19 384 128 
L 384 978 
Q 719 816 1070 734 
Q 1422 653 1784 653 
Q 2113 653 2278 743 
Q 2444 834 2444 1013 
Q 2444 1163 2330 1236 
Q 2216 1309 1875 1350 
L 1678 1375 
Q 931 1469 631 1722 
Q 331 1975 331 2491 
Q 331 3047 712 3315 
Q 1094 3584 1881 3584 
Q 2191 3584 2531 3537 
Q 2872 3491 3272 3391 
z
" transform="scale(0.015625)"/>
     <path id="DejaVuSans-Bold-3a" d="M 716 3500 
L 1844 3500 
L 1844 2291 
L 716 2291 
L 716 3500 
z
M 716 1209 
L 1844 1209 
L 1844 0 
L 716 0 
L 716 1209 
z
" transform="scale(0.015625)"/>
     <path id="DejaVuSans-Bold-20" transform="scale(0.015625)"/>
     <path id="DejaVuSans-Bold-50" d="M 588 4666 
L 2584 4666 
Q 3475 4666 3951 4270 
Q 4428 3875 4428 3144 
Q 4428 2409 3951 2014 
Q 3475 1619 2584 1619 
L 1791 1619 
L 1791 0 
L 588 0 
L 588 4666 
z
M 1791 3794 
L 1791 2491 
L 2456 2491 
Q 2806 2491 2997 2661 
Q 3188 2831 3188 3144 
Q 3188 3456 2997 3625 
Q 2806 3794 2456 3794 
L 1791 3794 
z
" transform="scale(0.015625)"/>
     <path id="DejaVuSans-Bold-6e" d="M 4056 2131 
L 4056 0 
L 2931 0 
L 2931 347 
L 2931 1631 
Q 2931 2084 2911 2256 
Q 2891 2428 2841 2509 
Q 2775 2619 2662 2680 
Q 2550 2741 2406 2741 
Q 2056 2741 1856 2470 
Q 1656 2200 1656 1722 
L 1656 0 
L 538 0 
L 538 3500 
L 1656 3500 
L 1656 2988 
Q 1909 3294 2193 3439 
Q 2478 3584 2822 3584 
Q 3428 3584 3742 3212 
Q 4056 2841 4056 2131 
z
" transform="scale(0.015625)"/>
     <path id="DejaVuSans-Bold-75" d="M 500 1363 
L 500 3500 
L 1625 3500 
L 1625 3150 
Q 1625 2866 1622 2436 
Q 1619 2006 1619 1863 
Q 1619 1441 1641 1255 
Q 1663 1069 1716 984 
Q 1784 875 1895 815 
Q 2006 756 2150 756 
Q 2500 756 2700 1025 
Q 2900 1294 2900 1772 
L 2900 3500 
L 4019 3500 
L 4019 0 
L 2900 0 
L 2900 506 
Q 2647 200 2364 54 
Q 2081 -91 1741 -91 
Q 1134 -91 817 281 
Q 500 653 500 1363 
z
" transform="scale(0.015625)"/>
     <path id="DejaVuSans-Bold-6c" d="M 538 4863 
L 1656 4863 
L 1656 0 
L 538 0 
L 538 4863 
z
" transform="scale(0.015625)"/>
     <path id="DejaVuSans-Bold-6d" d="M 3781 2919 
Q 3994 3244 4286 3414 
Q 4578 3584 4928 3584 
Q 5531 3584 5847 3212 
Q 6163 2841 6163 2131 
L 6163 0 
L 5038 0 
L 5038 1825 
Q 5041 1866 5042 1909 
Q 5044 1953 5044 2034 
Q 5044 2406 4934 2573 
Q 4825 2741 4581 2741 
Q 4263 2741 4089 2478 
Q 3916 2216 3909 1719 
L 3909 0 
L 2784 0 
L 2784 1825 
Q 2784 2406 2684 2573 
Q 2584 2741 2328 2741 
Q 2006 2741 1831 2477 
Q 1656 2213 1656 1722 
L 1656 0 
L 531 0 
L 531 3500 
L 1656 3500 
L 1656 2988 
Q 1863 3284 2130 3434 
Q 2397 3584 2719 3584 
Q 3081 3584 3359 3409 
Q 3638 3234 3781 2919 
z
" transform="scale(0.015625)"/>
     <path id="DejaVuSans-Bold-2d" d="M 347 2297 
L 2309 2297 
L 2309 1388 
L 347 1388 
L 347 2297 
z
" transform="scale(0.015625)"/>
     <path id="DejaVuSans-Bold-76" d="M 97 3500 
L 1216 3500 
L 2088 1081 
L 2956 3500 
L 4078 3500 
L 2700 0 
L 1472 0 
L 97 3500 
z
" transform="scale(0.015625)"/>
     <path id="DejaVuSans-Bold-31" d="M 750 831 
L 1813 831 
L 1813 3847 
L 722 3622 
L 722 4441 
L 1806 4666 
L 2950 4666 
L 2950 831 
L 4013 831 
L 4013 0 
L 750 0 
L 750 831 
z
" transform="scale(0.015625)"/>
     <path id="DejaVuSans-Bold-28" d="M 2413 -844 
L 1484 -844 
Q 1006 -72 778 623 
Q 550 1319 550 2003 
Q 550 2688 779 3389 
Q 1009 4091 1484 4856 
L 2413 4856 
Q 2013 4116 1813 3408 
Q 1613 2700 1613 2009 
Q 1613 1319 1811 609 
Q 2009 -100 2413 -844 
z
" transform="scale(0.015625)"/>
     <path id="DejaVuSans-Bold-44" d="M 1791 3756 
L 1791 909 
L 2222 909 
Q 2959 909 3348 1275 
Q 3738 1641 3738 2338 
Q 3738 3031 3350 3393 
Q 2963 3756 2222 3756 
L 1791 3756 
z
M 588 4666 
L 1856 4666 
Q 2919 4666 3439 4514 
Q 3959 4363 4331 4000 
Q 4659 3684 4818 3271 
Q 4978 2859 4978 2338 
Q 4978 1809 4818 1395 
Q 4659 981 4331 666 
Q 3956 303 3431 151 
Q 2906 0 1856 0 
L 588 0 
L 588 4666 
z
" transform="scale(0.015625)"/>
     <path id="DejaVuSans-Bold-69" d="M 538 3500 
L 1656 3500 
L 1656 0 
L 538 0 
L 538 3500 
z
M 538 4863 
L 1656 4863 
L 1656 3950 
L 538 3950 
L 538 4863 
z
" transform="scale(0.015625)"/>
     <path id="DejaVuSans-Bold-63" d="M 3366 3391 
L 3366 2478 
Q 3138 2634 2908 2709 
Q 2678 2784 2431 2784 
Q 1963 2784 1702 2511 
Q 1441 2238 1441 1747 
Q 1441 1256 1702 982 
Q 1963 709 2431 709 
Q 2694 709 2930 787 
Q 3166 866 3366 1019 
L 3366 103 
Q 3103 6 2833 -42 
Q 2563 -91 2291 -91 
Q 1344 -91 809 395 
Q 275 881 275 1747 
Q 275 2613 809 3098 
Q 1344 3584 2291 3584 
Q 2566 3584 2833 3536 
Q 3100 3488 3366 3391 
z
" transform="scale(0.015625)"/>
     <path id="DejaVuSans-Bold-74" d="M 1759 4494 
L 1759 3500 
L 2913 3500 
L 2913 2700 
L 1759 2700 
L 1759 1216 
Q 1759 972 1856 886 
Q 1953 800 2241 800 
L 2816 800 
L 2816 0 
L 1856 0 
Q 1194 0 917 276 
Q 641 553 641 1216 
L 641 2700 
L 84 2700 
L 84 3500 
L 641 3500 
L 641 4494 
L 1759 4494 
z
" transform="scale(0.015625)"/>
     <path id="DejaVuSans-Bold-7a" d="M 366 3500 
L 3419 3500 
L 3419 2719 
L 1575 800 
L 3419 800 
L 3419 0 
L 288 0 
L 288 781 
L 2131 2700 
L 366 2700 
L 366 3500 
z
" transform="scale(0.015625)"/>
     <path id="DejaVuSans-Bold-29" d="M 513 -844 
Q 913 -100 1113 609 
Q 1313 1319 1313 2009 
Q 1313 2700 1113 3408 
Q 913 4116 513 4856 
L 1441 4856 
Q 1916 4091 2145 3389 
Q 2375 2688 2375 2003 
Q 2375 1319 2147 623 
Q 1919 -72 1441 -844 
L 513 -844 
z
" transform="scale(0.015625)"/>
     <path id="DejaVuSans-Bold-47" d="M 4781 347 
Q 4331 128 3847 18 
Q 3363 -91 2847 -91 
Q 1681 -91 1000 561 
Q 319 1213 319 2328 
Q 319 3456 1012 4103 
Q 1706 4750 2913 4750 
Q 3378 4750 3804 4662 
Q 4231 4575 4609 4403 
L 4609 3438 
Q 4219 3659 3833 3768 
Q 3447 3878 3059 3878 
Q 2341 3878 1952 3476 
Q 1563 3075 1563 2328 
Q 1563 1588 1938 1184 
Q 2313 781 3003 781 
Q 3191 781 3352 804 
Q 3513 828 3641 878 
L 3641 1784 
L 2906 1784 
L 2906 2591 
L 4781 2591 
L 4781 347 
z
" transform="scale(0.015625)"/>
     <path id="DejaVuSans-Bold-4e" d="M 588 4666 
L 1931 4666 
L 3628 1466 
L 3628 4666 
L 4769 4666 
L 4769 0 
L 3425 0 
L 1728 3200 
L 1728 0 
L 588 0 
L 588 4666 
z
" transform="scale(0.015625)"/>
     <path id="DejaVuSans-Bold-5f" d="M 3200 -916 
L 3200 -1509 
L 0 -1509 
L 0 -916 
L 3200 -916 
z
" transform="scale(0.015625)"/>
     <path id="DejaVuSans-Bold-45" d="M 588 4666 
L 3834 4666 
L 3834 3756 
L 1791 3756 
L 1791 2888 
L 3713 2888 
L 3713 1978 
L 1791 1978 
L 1791 909 
L 3903 909 
L 3903 0 
L 588 0 
L 588 4666 
z
" transform="scale(0.015625)"/>
     <path id="DejaVuSans-Bold-6f" d="M 2203 2784 
Q 1831 2784 1636 2517 
Q 1441 2250 1441 1747 
Q 1441 1244 1636 976 
Q 1831 709 2203 709 
Q 2569 709 2762 976 
Q 2956 1244 2956 1747 
Q 2956 2250 2762 2517 
Q 2569 2784 2203 2784 
z
M 2203 3584 
Q 3106 3584 3614 3096 
Q 4122 2609 4122 1747 
Q 4122 884 3614 396 
Q 3106 -91 2203 -91 
Q 1297 -91 786 396 
Q 275 884 275 1747 
Q 275 2609 786 3096 
Q 1297 3584 2203 3584 
z
" transform="scale(0.015625)"/>
     <path id="DejaVuSans-Bold-70" d="M 1656 506 
L 1656 -1331 
L 538 -1331 
L 538 3500 
L 1656 3500 
L 1656 2988 
Q 1888 3294 2169 3439 
Q 2450 3584 2816 3584 
Q 3463 3584 3878 3070 
Q 4294 2556 4294 1747 
Q 4294 938 3878 423 
Q 3463 -91 2816 -91 
Q 2450 -91 2169 54 
Q 1888 200 1656 506 
z
M 2400 2772 
Q 2041 2772 1848 2508 
Q 1656 2244 1656 1747 
Q 1656 1250 1848 986 
Q 2041 722 2400 722 
Q 2759 722 2948 984 
Q 3138 1247 3138 1747 
Q 3138 2247 2948 2509 
Q 2759 2772 2400 2772 
z
" transform="scale(0.015625)"/>
     <path id="DejaVuSans-Bold-79" d="M 78 3500 
L 1197 3500 
L 2138 1125 
L 2938 3500 
L 4056 3500 
L 2584 -331 
Q 2363 -916 2067 -1148 
Q 1772 -1381 1288 -1381 
L 641 -1381 
L 641 -647 
L 991 -647 
Q 1275 -647 1404 -556 
Q 1534 -466 1606 -231 
L 1638 -134 
L 78 3500 
z
" transform="scale(0.015625)"/>
    </defs>
    <use xlink:href="#DejaVuSans-Bold-52"/>
    <use xlink:href="#DejaVuSans-Bold-65" transform="translate(77.001953 0)"/>
    <use xlink:href="#DejaVuSans-Bold-77" transform="translate(144.824219 0)"/>
    <use xlink:href="#DejaVuSans-Bold-61" transform="translate(237.207031 0)"/>
    <use xlink:href="#DejaVuSans-Bold-72" transform="translate(304.6875 0)"/>
    <use xlink:href="#DejaVuSans-Bold-64" transform="translate(354.003906 0)"/>
    <use xlink:href="#DejaVuSans-Bold-73" transform="translate(425.585938 0)"/>
    <use xlink:href="#DejaVuSans-Bold-3a" transform="translate(485.107422 0)"/>
    <use xlink:href="#DejaVuSans-Bold-20" transform="translate(525.097656 0)"/>
    <use xlink:href="#DejaVuSans-Bold-50" transform="translate(559.912109 0)"/>
    <use xlink:href="#DejaVuSans-Bold-65" transform="translate(633.203125 0)"/>
    <use xlink:href="#DejaVuSans-Bold-6e" transform="translate(701.025391 0)"/>
    <use xlink:href="#DejaVuSans-Bold-64" transform="translate(772.216797 0)"/>
    <use xlink:href="#DejaVuSans-Bold-75" transform="translate(843.798828 0)"/>
    <use xlink:href="#DejaVuSans-Bold-6c" transform="translate(914.990234 0)"/>
    <use xlink:href="#DejaVuSans-Bold-75" transform="translate(949.267578 0)"/>
    <use xlink:href="#DejaVuSans-Bold-6d" transform="translate(1020.458984 0)"/>
    <use xlink:href="#DejaVuSans-Bold-2d" transform="translate(1124.658203 0)"/>
    <use xlink:href="#DejaVuSans-Bold-76" transform="translate(1166.162109 0)"/>
    <use xlink:href="#DejaVuSans-Bold-31" transform="translate(1231.347656 0)"/>
    <use xlink:href="#DejaVuSans-Bold-20" transform="translate(1300.927734 0)"/>
    <use xlink:href="#DejaVuSans-Bold-28" transform="translate(1335.742188 0)"/>
    <use xlink:href="#DejaVuSans-Bold-44" transform="translate(1381.445312 0)"/>
    <use xlink:href="#DejaVuSans-Bold-69" transform="translate(1464.453125 0)"/>
    <use xlink:href="#DejaVuSans-Bold-73" transform="translate(1498.730469 0)"/>
    <use xlink:href="#DejaVuSans-Bold-63" transform="translate(1558.251953 0)"/>
    <use xlink:href="#DejaVuSans-Bold-72" transform="translate(1617.529297 0)"/>
    <use xlink:href="#DejaVuSans-Bold-65" transform="translate(1666.845703 0)"/>
    <use xlink:href="#DejaVuSans-Bold-74" transform="translate(1734.667969 0)"/>
    <use xlink:href="#DejaVuSans-Bold-69" transform="translate(1782.470703 0)"/>
    <use xlink:href="#DejaVuSans-Bold-7a" transform="translate(1816.748047 0)"/>
    <use xlink:href="#DejaVuSans-Bold-65" transform="translate(1874.951172 0)"/>
    <use xlink:href="#DejaVuSans-Bold-64" transform="translate(1942.773438 0)"/>
    <use xlink:href="#DejaVuSans-Bold-29" transform="translate(2014.355469 0)"/>
    <use xlink:href="#DejaVuSans-Bold-20" transform="translate(2060.058594 0)"/>
    <use xlink:href="#DejaVuSans-Bold-2d" transform="translate(2094.873047 0)"/>
    <use xlink:href="#DejaVuSans-Bold-20" transform="translate(2136.376953 0)"/>
    <use xlink:href="#DejaVuSans-Bold-47" transform="translate(2171.191406 0)"/>
    <use xlink:href="#DejaVuSans-Bold-4e" transform="translate(2253.271484 0)"/>
    <use xlink:href="#DejaVuSans-Bold-4e" transform="translate(2336.962891 0)"/>
    <use xlink:href="#DejaVuSans-Bold-5f" transform="translate(2420.654297 0)"/>
    <use xlink:href="#DejaVuSans-Bold-4e" transform="translate(2470.654297 0)"/>
    <use xlink:href="#DejaVuSans-Bold-20" transform="translate(2554.345703 0)"/>
    <use xlink:href="#DejaVuSans-Bold-28" transform="translate(2589.160156 0)"/>
    <use xlink:href="#DejaVuSans-Bold-45" transform="translate(2634.863281 0)"/>
    <use xlink:href="#DejaVuSans-Bold-6e" transform="translate(2703.173828 0)"/>
    <use xlink:href="#DejaVuSans-Bold-74" transform="translate(2774.365234 0)"/>
    <use xlink:href="#DejaVuSans-Bold-72" transform="translate(2822.167969 0)"/>
    <use xlink:href="#DejaVuSans-Bold-6f" transform="translate(2871.484375 0)"/>
    <use xlink:href="#DejaVuSans-Bold-70" transform="translate(2940.185547 0)"/>
    <use xlink:href="#DejaVuSans-Bold-79" transform="translate(3011.767578 0)"/>
    <use xlink:href="#DejaVuSans-Bold-29" transform="translate(3076.953125 0)"/>
   </g>
  </g>
 </g>
 <defs>
  <clipPath id="pf72c37201b">
   <rect x="65.63" y="57.0062" width="566.575" height="333.0338"/>
  </clipPath>
 </defs>
</svg>
