<?xml version="1.0" encoding="utf-8" standalone="no"?>
<!DOCTYPE svg PUBLIC "-//W3C//DTD SVG 1.1//EN"
  "http://www.w3.org/Graphics/SVG/1.1/DTD/svg11.dtd">
<svg xmlns:xlink="http://www.w3.org/1999/xlink" width="648pt" height="432pt" viewBox="0 0 648 432" xmlns="http://www.w3.org/2000/svg" version="1.1">
 <metadata>
  <rdf:RDF xmlns:dc="http://purl.org/dc/elements/1.1/" xmlns:cc="http://creativecommons.org/ns#" xmlns:rdf="http://www.w3.org/1999/02/22-rdf-syntax-ns#">
   <cc:Work>
    <dc:type rdf:resource="http://purl.org/dc/dcmitype/StillImage"/>
    <dc:date>2025-07-22T19:35:47.778926</dc:date>
    <dc:format>image/svg+xml</dc:format>
    <dc:creator>
     <cc:Agent>
      <dc:title>Matplotlib v3.10.0, https://matplotlib.org/</dc:title>
     </cc:Agent>
    </dc:creator>
   </cc:Work>
  </rdf:RDF>
 </metadata>
 <defs>
  <style type="text/css">*{stroke-linejoin: round; stroke-linecap: butt}</style>
 </defs>
 <g id="figure_1">
  <g id="patch_1">
   <path d="M 0 432 
L 648 432 
L 648 0 
L 0 0 
z
" style="fill: #ffffff"/>
  </g>
  <g id="axes_1">
   <g id="patch_2">
    <path d="M 65.63 390.04 
L 632.205 390.04 
L 632.205 57.0062 
L 65.63 57.0062 
z
" style="fill: #eaeaf2"/>
   </g>
   <g id="matplotlib.axis_1">
    <g id="xtick_1">
     <g id="line2d_1">
      <path d="M 65.63083 390.04 
L 65.63083 57.0062 
" clip-path="url(#p29f471cdd3)" style="fill: none; stroke: #ffffff; stroke-width: 0.8; stroke-linecap: round"/>
     </g>
     <g id="text_1">
      <!-- 0.00 -->
      <g style="fill: #262626" transform="translate(54.498017 404.638438) scale(0.1 -0.1)">
       <defs>
        <path id="DejaVuSans-30" d="M 2034 4250 
Q 1547 4250 1301 3770 
Q 1056 3291 1056 2328 
Q 1056 1369 1301 889 
Q 1547 409 2034 409 
Q 2525 409 2770 889 
Q 3016 1369 3016 2328 
Q 3016 3291 2770 3770 
Q 2525 4250 2034 4250 
z
M 2034 4750 
Q 2819 4750 3233 4129 
Q 3647 3509 3647 2328 
Q 3647 1150 3233 529 
Q 2819 -91 2034 -91 
Q 1250 -91 836 529 
Q 422 1150 422 2328 
Q 422 3509 836 4129 
Q 1250 4750 2034 4750 
z
" transform="scale(0.015625)"/>
        <path id="DejaVuSans-2e" d="M 684 794 
L 1344 794 
L 1344 0 
L 684 0 
L 684 794 
z
" transform="scale(0.015625)"/>
       </defs>
       <use xlink:href="#DejaVuSans-30"/>
       <use xlink:href="#DejaVuSans-2e" transform="translate(63.623047 0)"/>
       <use xlink:href="#DejaVuSans-30" transform="translate(95.410156 0)"/>
       <use xlink:href="#DejaVuSans-30" transform="translate(159.033203 0)"/>
      </g>
     </g>
    </g>
    <g id="xtick_2">
     <g id="line2d_2">
      <path d="M 134.792615 390.04 
L 134.792615 57.0062 
" clip-path="url(#p29f471cdd3)" style="fill: none; stroke: #ffffff; stroke-width: 0.8; stroke-linecap: round"/>
     </g>
     <g id="text_2">
      <!-- 0.25 -->
      <g style="fill: #262626" transform="translate(123.659802 404.638438) scale(0.1 -0.1)">
       <defs>
        <path id="DejaVuSans-32" d="M 1228 531 
L 3431 531 
L 3431 0 
L 469 0 
L 469 531 
Q 828 903 1448 1529 
Q 2069 2156 2228 2338 
Q 2531 2678 2651 2914 
Q 2772 3150 2772 3378 
Q 2772 3750 2511 3984 
Q 2250 4219 1831 4219 
Q 1534 4219 1204 4116 
Q 875 4013 500 3803 
L 500 4441 
Q 881 4594 1212 4672 
Q 1544 4750 1819 4750 
Q 2544 4750 2975 4387 
Q 3406 4025 3406 3419 
Q 3406 3131 3298 2873 
Q 3191 2616 2906 2266 
Q 2828 2175 2409 1742 
Q 1991 1309 1228 531 
z
" transform="scale(0.015625)"/>
        <path id="DejaVuSans-35" d="M 691 4666 
L 3169 4666 
L 3169 4134 
L 1269 4134 
L 1269 2991 
Q 1406 3038 1543 3061 
Q 1681 3084 1819 3084 
Q 2600 3084 3056 2656 
Q 3513 2228 3513 1497 
Q 3513 744 3044 326 
Q 2575 -91 1722 -91 
Q 1428 -91 1123 -41 
Q 819 9 494 109 
L 494 744 
Q 775 591 1075 516 
Q 1375 441 1709 441 
Q 2250 441 2565 725 
Q 2881 1009 2881 1497 
Q 2881 1984 2565 2268 
Q 2250 2553 1709 2553 
Q 1456 2553 1204 2497 
Q 953 2441 691 2322 
L 691 4666 
z
" transform="scale(0.015625)"/>
       </defs>
       <use xlink:href="#DejaVuSans-30"/>
       <use xlink:href="#DejaVuSans-2e" transform="translate(63.623047 0)"/>
       <use xlink:href="#DejaVuSans-32" transform="translate(95.410156 0)"/>
       <use xlink:href="#DejaVuSans-35" transform="translate(159.033203 0)"/>
      </g>
     </g>
    </g>
    <g id="xtick_3">
     <g id="line2d_3">
      <path d="M 203.954399 390.04 
L 203.954399 57.0062 
" clip-path="url(#p29f471cdd3)" style="fill: none; stroke: #ffffff; stroke-width: 0.8; stroke-linecap: round"/>
     </g>
     <g id="text_3">
      <!-- 0.50 -->
      <g style="fill: #262626" transform="translate(192.821587 404.638438) scale(0.1 -0.1)">
       <use xlink:href="#DejaVuSans-30"/>
       <use xlink:href="#DejaVuSans-2e" transform="translate(63.623047 0)"/>
       <use xlink:href="#DejaVuSans-35" transform="translate(95.410156 0)"/>
       <use xlink:href="#DejaVuSans-30" transform="translate(159.033203 0)"/>
      </g>
     </g>
    </g>
    <g id="xtick_4">
     <g id="line2d_4">
      <path d="M 273.116184 390.04 
L 273.116184 57.0062 
" clip-path="url(#p29f471cdd3)" style="fill: none; stroke: #ffffff; stroke-width: 0.8; stroke-linecap: round"/>
     </g>
     <g id="text_4">
      <!-- 0.75 -->
      <g style="fill: #262626" transform="translate(261.983371 404.638438) scale(0.1 -0.1)">
       <defs>
        <path id="DejaVuSans-37" d="M 525 4666 
L 3525 4666 
L 3525 4397 
L 1831 0 
L 1172 0 
L 2766 4134 
L 525 4134 
L 525 4666 
z
" transform="scale(0.015625)"/>
       </defs>
       <use xlink:href="#DejaVuSans-30"/>
       <use xlink:href="#DejaVuSans-2e" transform="translate(63.623047 0)"/>
       <use xlink:href="#DejaVuSans-37" transform="translate(95.410156 0)"/>
       <use xlink:href="#DejaVuSans-35" transform="translate(159.033203 0)"/>
      </g>
     </g>
    </g>
    <g id="xtick_5">
     <g id="line2d_5">
      <path d="M 342.277969 390.04 
L 342.277969 57.0062 
" clip-path="url(#p29f471cdd3)" style="fill: none; stroke: #ffffff; stroke-width: 0.8; stroke-linecap: round"/>
     </g>
     <g id="text_5">
      <!-- 1.00 -->
      <g style="fill: #262626" transform="translate(331.145156 404.638438) scale(0.1 -0.1)">
       <defs>
        <path id="DejaVuSans-31" d="M 794 531 
L 1825 531 
L 1825 4091 
L 703 3866 
L 703 4441 
L 1819 4666 
L 2450 4666 
L 2450 531 
L 3481 531 
L 3481 0 
L 794 0 
L 794 531 
z
" transform="scale(0.015625)"/>
       </defs>
       <use xlink:href="#DejaVuSans-31"/>
       <use xlink:href="#DejaVuSans-2e" transform="translate(63.623047 0)"/>
       <use xlink:href="#DejaVuSans-30" transform="translate(95.410156 0)"/>
       <use xlink:href="#DejaVuSans-30" transform="translate(159.033203 0)"/>
      </g>
     </g>
    </g>
    <g id="xtick_6">
     <g id="line2d_6">
      <path d="M 411.439753 390.04 
L 411.439753 57.0062 
" clip-path="url(#p29f471cdd3)" style="fill: none; stroke: #ffffff; stroke-width: 0.8; stroke-linecap: round"/>
     </g>
     <g id="text_6">
      <!-- 1.25 -->
      <g style="fill: #262626" transform="translate(400.306941 404.638438) scale(0.1 -0.1)">
       <use xlink:href="#DejaVuSans-31"/>
       <use xlink:href="#DejaVuSans-2e" transform="translate(63.623047 0)"/>
       <use xlink:href="#DejaVuSans-32" transform="translate(95.410156 0)"/>
       <use xlink:href="#DejaVuSans-35" transform="translate(159.033203 0)"/>
      </g>
     </g>
    </g>
    <g id="xtick_7">
     <g id="line2d_7">
      <path d="M 480.601538 390.04 
L 480.601538 57.0062 
" clip-path="url(#p29f471cdd3)" style="fill: none; stroke: #ffffff; stroke-width: 0.8; stroke-linecap: round"/>
     </g>
     <g id="text_7">
      <!-- 1.50 -->
      <g style="fill: #262626" transform="translate(469.468726 404.638438) scale(0.1 -0.1)">
       <use xlink:href="#DejaVuSans-31"/>
       <use xlink:href="#DejaVuSans-2e" transform="translate(63.623047 0)"/>
       <use xlink:href="#DejaVuSans-35" transform="translate(95.410156 0)"/>
       <use xlink:href="#DejaVuSans-30" transform="translate(159.033203 0)"/>
      </g>
     </g>
    </g>
    <g id="xtick_8">
     <g id="line2d_8">
      <path d="M 549.763323 390.04 
L 549.763323 57.0062 
" clip-path="url(#p29f471cdd3)" style="fill: none; stroke: #ffffff; stroke-width: 0.8; stroke-linecap: round"/>
     </g>
     <g id="text_8">
      <!-- 1.75 -->
      <g style="fill: #262626" transform="translate(538.63051 404.638438) scale(0.1 -0.1)">
       <use xlink:href="#DejaVuSans-31"/>
       <use xlink:href="#DejaVuSans-2e" transform="translate(63.623047 0)"/>
       <use xlink:href="#DejaVuSans-37" transform="translate(95.410156 0)"/>
       <use xlink:href="#DejaVuSans-35" transform="translate(159.033203 0)"/>
      </g>
     </g>
    </g>
    <g id="xtick_9">
     <g id="line2d_9">
      <path d="M 618.925107 390.04 
L 618.925107 57.0062 
" clip-path="url(#p29f471cdd3)" style="fill: none; stroke: #ffffff; stroke-width: 0.8; stroke-linecap: round"/>
     </g>
     <g id="text_9">
      <!-- 2.00 -->
      <g style="fill: #262626" transform="translate(607.792295 404.638438) scale(0.1 -0.1)">
       <use xlink:href="#DejaVuSans-32"/>
       <use xlink:href="#DejaVuSans-2e" transform="translate(63.623047 0)"/>
       <use xlink:href="#DejaVuSans-30" transform="translate(95.410156 0)"/>
       <use xlink:href="#DejaVuSans-30" transform="translate(159.033203 0)"/>
      </g>
     </g>
    </g>
    <g id="text_10">
     <!-- Steps -->
     <g style="fill: #262626" transform="translate(334.927656 418.316562) scale(0.1 -0.1)">
      <defs>
       <path id="DejaVuSans-53" d="M 3425 4513 
L 3425 3897 
Q 3066 4069 2747 4153 
Q 2428 4238 2131 4238 
Q 1616 4238 1336 4038 
Q 1056 3838 1056 3469 
Q 1056 3159 1242 3001 
Q 1428 2844 1947 2747 
L 2328 2669 
Q 3034 2534 3370 2195 
Q 3706 1856 3706 1288 
Q 3706 609 3251 259 
Q 2797 -91 1919 -91 
Q 1588 -91 1214 -16 
Q 841 59 441 206 
L 441 856 
Q 825 641 1194 531 
Q 1563 422 1919 422 
Q 2459 422 2753 634 
Q 3047 847 3047 1241 
Q 3047 1584 2836 1778 
Q 2625 1972 2144 2069 
L 1759 2144 
Q 1053 2284 737 2584 
Q 422 2884 422 3419 
Q 422 4038 858 4394 
Q 1294 4750 2059 4750 
Q 2388 4750 2728 4690 
Q 3069 4631 3425 4513 
z
" transform="scale(0.015625)"/>
       <path id="DejaVuSans-74" d="M 1172 4494 
L 1172 3500 
L 2356 3500 
L 2356 3053 
L 1172 3053 
L 1172 1153 
Q 1172 725 1289 603 
Q 1406 481 1766 481 
L 2356 481 
L 2356 0 
L 1766 0 
Q 1100 0 847 248 
Q 594 497 594 1153 
L 594 3053 
L 172 3053 
L 172 3500 
L 594 3500 
L 594 4494 
L 1172 4494 
z
" transform="scale(0.015625)"/>
       <path id="DejaVuSans-65" d="M 3597 1894 
L 3597 1613 
L 953 1613 
Q 991 1019 1311 708 
Q 1631 397 2203 397 
Q 2534 397 2845 478 
Q 3156 559 3463 722 
L 3463 178 
Q 3153 47 2828 -22 
Q 2503 -91 2169 -91 
Q 1331 -91 842 396 
Q 353 884 353 1716 
Q 353 2575 817 3079 
Q 1281 3584 2069 3584 
Q 2775 3584 3186 3129 
Q 3597 2675 3597 1894 
z
M 3022 2063 
Q 3016 2534 2758 2815 
Q 2500 3097 2075 3097 
Q 1594 3097 1305 2825 
Q 1016 2553 972 2059 
L 3022 2063 
z
" transform="scale(0.015625)"/>
       <path id="DejaVuSans-70" d="M 1159 525 
L 1159 -1331 
L 581 -1331 
L 581 3500 
L 1159 3500 
L 1159 2969 
Q 1341 3281 1617 3432 
Q 1894 3584 2278 3584 
Q 2916 3584 3314 3078 
Q 3713 2572 3713 1747 
Q 3713 922 3314 415 
Q 2916 -91 2278 -91 
Q 1894 -91 1617 61 
Q 1341 213 1159 525 
z
M 3116 1747 
Q 3116 2381 2855 2742 
Q 2594 3103 2138 3103 
Q 1681 3103 1420 2742 
Q 1159 2381 1159 1747 
Q 1159 1113 1420 752 
Q 1681 391 2138 391 
Q 2594 391 2855 752 
Q 3116 1113 3116 1747 
z
" transform="scale(0.015625)"/>
       <path id="DejaVuSans-73" d="M 2834 3397 
L 2834 2853 
Q 2591 2978 2328 3040 
Q 2066 3103 1784 3103 
Q 1356 3103 1142 2972 
Q 928 2841 928 2578 
Q 928 2378 1081 2264 
Q 1234 2150 1697 2047 
L 1894 2003 
Q 2506 1872 2764 1633 
Q 3022 1394 3022 966 
Q 3022 478 2636 193 
Q 2250 -91 1575 -91 
Q 1294 -91 989 -36 
Q 684 19 347 128 
L 347 722 
Q 666 556 975 473 
Q 1284 391 1588 391 
Q 1994 391 2212 530 
Q 2431 669 2431 922 
Q 2431 1156 2273 1281 
Q 2116 1406 1581 1522 
L 1381 1569 
Q 847 1681 609 1914 
Q 372 2147 372 2553 
Q 372 3047 722 3315 
Q 1072 3584 1716 3584 
Q 2034 3584 2315 3537 
Q 2597 3491 2834 3397 
z
" transform="scale(0.015625)"/>
      </defs>
      <use xlink:href="#DejaVuSans-53"/>
      <use xlink:href="#DejaVuSans-74" transform="translate(63.476562 0)"/>
      <use xlink:href="#DejaVuSans-65" transform="translate(102.685547 0)"/>
      <use xlink:href="#DejaVuSans-70" transform="translate(164.208984 0)"/>
      <use xlink:href="#DejaVuSans-73" transform="translate(227.685547 0)"/>
     </g>
    </g>
    <g id="text_11">
     <!-- 1e6 -->
     <g style="fill: #262626" transform="translate(613.326875 417.316562) scale(0.1 -0.1)">
      <defs>
       <path id="DejaVuSans-36" d="M 2113 2584 
Q 1688 2584 1439 2293 
Q 1191 2003 1191 1497 
Q 1191 994 1439 701 
Q 1688 409 2113 409 
Q 2538 409 2786 701 
Q 3034 994 3034 1497 
Q 3034 2003 2786 2293 
Q 2538 2584 2113 2584 
z
M 3366 4563 
L 3366 3988 
Q 3128 4100 2886 4159 
Q 2644 4219 2406 4219 
Q 1781 4219 1451 3797 
Q 1122 3375 1075 2522 
Q 1259 2794 1537 2939 
Q 1816 3084 2150 3084 
Q 2853 3084 3261 2657 
Q 3669 2231 3669 1497 
Q 3669 778 3244 343 
Q 2819 -91 2113 -91 
Q 1303 -91 875 529 
Q 447 1150 447 2328 
Q 447 3434 972 4092 
Q 1497 4750 2381 4750 
Q 2619 4750 2861 4703 
Q 3103 4656 3366 4563 
z
" transform="scale(0.015625)"/>
      </defs>
      <use xlink:href="#DejaVuSans-31"/>
      <use xlink:href="#DejaVuSans-65" transform="translate(63.623047 0)"/>
      <use xlink:href="#DejaVuSans-36" transform="translate(125.146484 0)"/>
     </g>
    </g>
   </g>
   <g id="matplotlib.axis_2">
    <g id="ytick_1">
     <g id="line2d_10">
      <path d="M 65.63 390.04 
L 632.205 390.04 
" clip-path="url(#p29f471cdd3)" style="fill: none; stroke: #ffffff; stroke-width: 0.8; stroke-linecap: round"/>
     </g>
     <g id="text_12">
      <!-- −1600 -->
      <g style="fill: #262626" transform="translate(24.800313 393.839219) scale(0.1 -0.1)">
       <defs>
        <path id="DejaVuSans-2212" d="M 678 2272 
L 4684 2272 
L 4684 1741 
L 678 1741 
L 678 2272 
z
" transform="scale(0.015625)"/>
       </defs>
       <use xlink:href="#DejaVuSans-2212"/>
       <use xlink:href="#DejaVuSans-31" transform="translate(83.789062 0)"/>
       <use xlink:href="#DejaVuSans-36" transform="translate(147.412109 0)"/>
       <use xlink:href="#DejaVuSans-30" transform="translate(211.035156 0)"/>
       <use xlink:href="#DejaVuSans-30" transform="translate(274.658203 0)"/>
      </g>
     </g>
    </g>
    <g id="ytick_2">
     <g id="line2d_11">
      <path d="M 65.63 348.410775 
L 632.205 348.410775 
" clip-path="url(#p29f471cdd3)" style="fill: none; stroke: #ffffff; stroke-width: 0.8; stroke-linecap: round"/>
     </g>
     <g id="text_13">
      <!-- −1400 -->
      <g style="fill: #262626" transform="translate(24.800313 352.209994) scale(0.1 -0.1)">
       <defs>
        <path id="DejaVuSans-34" d="M 2419 4116 
L 825 1625 
L 2419 1625 
L 2419 4116 
z
M 2253 4666 
L 3047 4666 
L 3047 1625 
L 3713 1625 
L 3713 1100 
L 3047 1100 
L 3047 0 
L 2419 0 
L 2419 1100 
L 313 1100 
L 313 1709 
L 2253 4666 
z
" transform="scale(0.015625)"/>
       </defs>
       <use xlink:href="#DejaVuSans-2212"/>
       <use xlink:href="#DejaVuSans-31" transform="translate(83.789062 0)"/>
       <use xlink:href="#DejaVuSans-34" transform="translate(147.412109 0)"/>
       <use xlink:href="#DejaVuSans-30" transform="translate(211.035156 0)"/>
       <use xlink:href="#DejaVuSans-30" transform="translate(274.658203 0)"/>
      </g>
     </g>
    </g>
    <g id="ytick_3">
     <g id="line2d_12">
      <path d="M 65.63 306.78155 
L 632.205 306.78155 
" clip-path="url(#p29f471cdd3)" style="fill: none; stroke: #ffffff; stroke-width: 0.8; stroke-linecap: round"/>
     </g>
     <g id="text_14">
      <!-- −1200 -->
      <g style="fill: #262626" transform="translate(24.800313 310.580769) scale(0.1 -0.1)">
       <use xlink:href="#DejaVuSans-2212"/>
       <use xlink:href="#DejaVuSans-31" transform="translate(83.789062 0)"/>
       <use xlink:href="#DejaVuSans-32" transform="translate(147.412109 0)"/>
       <use xlink:href="#DejaVuSans-30" transform="translate(211.035156 0)"/>
       <use xlink:href="#DejaVuSans-30" transform="translate(274.658203 0)"/>
      </g>
     </g>
    </g>
    <g id="ytick_4">
     <g id="line2d_13">
      <path d="M 65.63 265.152325 
L 632.205 265.152325 
" clip-path="url(#p29f471cdd3)" style="fill: none; stroke: #ffffff; stroke-width: 0.8; stroke-linecap: round"/>
     </g>
     <g id="text_15">
      <!-- −1000 -->
      <g style="fill: #262626" transform="translate(24.800313 268.951544) scale(0.1 -0.1)">
       <use xlink:href="#DejaVuSans-2212"/>
       <use xlink:href="#DejaVuSans-31" transform="translate(83.789062 0)"/>
       <use xlink:href="#DejaVuSans-30" transform="translate(147.412109 0)"/>
       <use xlink:href="#DejaVuSans-30" transform="translate(211.035156 0)"/>
       <use xlink:href="#DejaVuSans-30" transform="translate(274.658203 0)"/>
      </g>
     </g>
    </g>
    <g id="ytick_5">
     <g id="line2d_14">
      <path d="M 65.63 223.5231 
L 632.205 223.5231 
" clip-path="url(#p29f471cdd3)" style="fill: none; stroke: #ffffff; stroke-width: 0.8; stroke-linecap: round"/>
     </g>
     <g id="text_16">
      <!-- −800 -->
      <g style="fill: #262626" transform="translate(31.162813 227.322319) scale(0.1 -0.1)">
       <defs>
        <path id="DejaVuSans-38" d="M 2034 2216 
Q 1584 2216 1326 1975 
Q 1069 1734 1069 1313 
Q 1069 891 1326 650 
Q 1584 409 2034 409 
Q 2484 409 2743 651 
Q 3003 894 3003 1313 
Q 3003 1734 2745 1975 
Q 2488 2216 2034 2216 
z
M 1403 2484 
Q 997 2584 770 2862 
Q 544 3141 544 3541 
Q 544 4100 942 4425 
Q 1341 4750 2034 4750 
Q 2731 4750 3128 4425 
Q 3525 4100 3525 3541 
Q 3525 3141 3298 2862 
Q 3072 2584 2669 2484 
Q 3125 2378 3379 2068 
Q 3634 1759 3634 1313 
Q 3634 634 3220 271 
Q 2806 -91 2034 -91 
Q 1263 -91 848 271 
Q 434 634 434 1313 
Q 434 1759 690 2068 
Q 947 2378 1403 2484 
z
M 1172 3481 
Q 1172 3119 1398 2916 
Q 1625 2713 2034 2713 
Q 2441 2713 2670 2916 
Q 2900 3119 2900 3481 
Q 2900 3844 2670 4047 
Q 2441 4250 2034 4250 
Q 1625 4250 1398 4047 
Q 1172 3844 1172 3481 
z
" transform="scale(0.015625)"/>
       </defs>
       <use xlink:href="#DejaVuSans-2212"/>
       <use xlink:href="#DejaVuSans-38" transform="translate(83.789062 0)"/>
       <use xlink:href="#DejaVuSans-30" transform="translate(147.412109 0)"/>
       <use xlink:href="#DejaVuSans-30" transform="translate(211.035156 0)"/>
      </g>
     </g>
    </g>
    <g id="ytick_6">
     <g id="line2d_15">
      <path d="M 65.63 181.893875 
L 632.205 181.893875 
" clip-path="url(#p29f471cdd3)" style="fill: none; stroke: #ffffff; stroke-width: 0.8; stroke-linecap: round"/>
     </g>
     <g id="text_17">
      <!-- −600 -->
      <g style="fill: #262626" transform="translate(31.162813 185.693094) scale(0.1 -0.1)">
       <use xlink:href="#DejaVuSans-2212"/>
       <use xlink:href="#DejaVuSans-36" transform="translate(83.789062 0)"/>
       <use xlink:href="#DejaVuSans-30" transform="translate(147.412109 0)"/>
       <use xlink:href="#DejaVuSans-30" transform="translate(211.035156 0)"/>
      </g>
     </g>
    </g>
    <g id="ytick_7">
     <g id="line2d_16">
      <path d="M 65.63 140.26465 
L 632.205 140.26465 
" clip-path="url(#p29f471cdd3)" style="fill: none; stroke: #ffffff; stroke-width: 0.8; stroke-linecap: round"/>
     </g>
     <g id="text_18">
      <!-- −400 -->
      <g style="fill: #262626" transform="translate(31.162813 144.063869) scale(0.1 -0.1)">
       <use xlink:href="#DejaVuSans-2212"/>
       <use xlink:href="#DejaVuSans-34" transform="translate(83.789062 0)"/>
       <use xlink:href="#DejaVuSans-30" transform="translate(147.412109 0)"/>
       <use xlink:href="#DejaVuSans-30" transform="translate(211.035156 0)"/>
      </g>
     </g>
    </g>
    <g id="ytick_8">
     <g id="line2d_17">
      <path d="M 65.63 98.635425 
L 632.205 98.635425 
" clip-path="url(#p29f471cdd3)" style="fill: none; stroke: #ffffff; stroke-width: 0.8; stroke-linecap: round"/>
     </g>
     <g id="text_19">
      <!-- −200 -->
      <g style="fill: #262626" transform="translate(31.162813 102.434644) scale(0.1 -0.1)">
       <use xlink:href="#DejaVuSans-2212"/>
       <use xlink:href="#DejaVuSans-32" transform="translate(83.789062 0)"/>
       <use xlink:href="#DejaVuSans-30" transform="translate(147.412109 0)"/>
       <use xlink:href="#DejaVuSans-30" transform="translate(211.035156 0)"/>
      </g>
     </g>
    </g>
    <g id="ytick_9">
     <g id="line2d_18">
      <path d="M 65.63 57.0062 
L 632.205 57.0062 
" clip-path="url(#p29f471cdd3)" style="fill: none; stroke: #ffffff; stroke-width: 0.8; stroke-linecap: round"/>
     </g>
     <g id="text_20">
      <!-- 0 -->
      <g style="fill: #262626" transform="translate(52.2675 60.805419) scale(0.1 -0.1)">
       <use xlink:href="#DejaVuSans-30"/>
      </g>
     </g>
    </g>
    <g id="text_21">
     <!-- Reward -->
     <g style="fill: #262626" transform="translate(18.720625 242.144194) rotate(-90) scale(0.1 -0.1)">
      <defs>
       <path id="DejaVuSans-52" d="M 2841 2188 
Q 3044 2119 3236 1894 
Q 3428 1669 3622 1275 
L 4263 0 
L 3584 0 
L 2988 1197 
Q 2756 1666 2539 1819 
Q 2322 1972 1947 1972 
L 1259 1972 
L 1259 0 
L 628 0 
L 628 4666 
L 2053 4666 
Q 2853 4666 3247 4331 
Q 3641 3997 3641 3322 
Q 3641 2881 3436 2590 
Q 3231 2300 2841 2188 
z
M 1259 4147 
L 1259 2491 
L 2053 2491 
Q 2509 2491 2742 2702 
Q 2975 2913 2975 3322 
Q 2975 3731 2742 3939 
Q 2509 4147 2053 4147 
L 1259 4147 
z
" transform="scale(0.015625)"/>
       <path id="DejaVuSans-77" d="M 269 3500 
L 844 3500 
L 1563 769 
L 2278 3500 
L 2956 3500 
L 3675 769 
L 4391 3500 
L 4966 3500 
L 4050 0 
L 3372 0 
L 2619 2869 
L 1863 0 
L 1184 0 
L 269 3500 
z
" transform="scale(0.015625)"/>
       <path id="DejaVuSans-61" d="M 2194 1759 
Q 1497 1759 1228 1600 
Q 959 1441 959 1056 
Q 959 750 1161 570 
Q 1363 391 1709 391 
Q 2188 391 2477 730 
Q 2766 1069 2766 1631 
L 2766 1759 
L 2194 1759 
z
M 3341 1997 
L 3341 0 
L 2766 0 
L 2766 531 
Q 2569 213 2275 61 
Q 1981 -91 1556 -91 
Q 1019 -91 701 211 
Q 384 513 384 1019 
Q 384 1609 779 1909 
Q 1175 2209 1959 2209 
L 2766 2209 
L 2766 2266 
Q 2766 2663 2505 2880 
Q 2244 3097 1772 3097 
Q 1472 3097 1187 3025 
Q 903 2953 641 2809 
L 641 3341 
Q 956 3463 1253 3523 
Q 1550 3584 1831 3584 
Q 2591 3584 2966 3190 
Q 3341 2797 3341 1997 
z
" transform="scale(0.015625)"/>
       <path id="DejaVuSans-72" d="M 2631 2963 
Q 2534 3019 2420 3045 
Q 2306 3072 2169 3072 
Q 1681 3072 1420 2755 
Q 1159 2438 1159 1844 
L 1159 0 
L 581 0 
L 581 3500 
L 1159 3500 
L 1159 2956 
Q 1341 3275 1631 3429 
Q 1922 3584 2338 3584 
Q 2397 3584 2469 3576 
Q 2541 3569 2628 3553 
L 2631 2963 
z
" transform="scale(0.015625)"/>
       <path id="DejaVuSans-64" d="M 2906 2969 
L 2906 4863 
L 3481 4863 
L 3481 0 
L 2906 0 
L 2906 525 
Q 2725 213 2448 61 
Q 2172 -91 1784 -91 
Q 1150 -91 751 415 
Q 353 922 353 1747 
Q 353 2572 751 3078 
Q 1150 3584 1784 3584 
Q 2172 3584 2448 3432 
Q 2725 3281 2906 2969 
z
M 947 1747 
Q 947 1113 1208 752 
Q 1469 391 1925 391 
Q 2381 391 2643 752 
Q 2906 1113 2906 1747 
Q 2906 2381 2643 2742 
Q 2381 3103 1925 3103 
Q 1469 3103 1208 2742 
Q 947 2381 947 1747 
z
" transform="scale(0.015625)"/>
      </defs>
      <use xlink:href="#DejaVuSans-52"/>
      <use xlink:href="#DejaVuSans-65" transform="translate(64.982422 0)"/>
      <use xlink:href="#DejaVuSans-77" transform="translate(126.505859 0)"/>
      <use xlink:href="#DejaVuSans-61" transform="translate(208.292969 0)"/>
      <use xlink:href="#DejaVuSans-72" transform="translate(269.572266 0)"/>
      <use xlink:href="#DejaVuSans-64" transform="translate(308.935547 0)"/>
     </g>
    </g>
   </g>
   <g id="FillBetweenPolyCollection_1">
    <path d="M 65.63083 299.779397 
L 65.63083 306.357203 
L 71.296563 318.034504 
L 76.962297 321.942423 
L 82.62803 311.758776 
L 88.293764 298.157082 
L 93.959497 324.899579 
L 99.62523 312.436707 
L 105.290964 313.528724 
L 110.956697 293.278892 
L 116.622431 280.283194 
L 122.288164 261.775832 
L 127.953897 254.381539 
L 133.619631 244.171024 
L 139.285364 226.800767 
L 144.951098 204.273016 
L 150.616831 179.180954 
L 156.282564 165.469587 
L 161.948298 144.434829 
L 167.614031 158.866593 
L 173.279765 165.675238 
L 178.945498 128.184799 
L 184.611231 127.703326 
L 190.276965 146.187382 
L 195.942698 151.160822 
L 201.608432 133.605866 
L 207.274165 124.187205 
L 212.939898 154.180292 
L 218.605632 124.543968 
L 224.271365 104.720161 
L 229.937099 113.109848 
L 235.602832 117.582219 
L 241.268565 132.210952 
L 246.934299 111.326926 
L 252.600032 120.278164 
L 258.265766 119.345667 
L 263.931499 102.557736 
L 269.597232 104.0242 
L 275.262966 113.240236 
L 280.928699 114.134754 
L 286.594433 105.105901 
L 292.260166 100.727238 
L 297.925899 102.253675 
L 303.591633 98.146474 
L 309.257366 108.502727 
L 314.9231 101.457163 
L 320.588833 98.885495 
L 326.254566 98.161548 
L 331.9203 103.884865 
L 337.586033 112.489994 
L 343.251767 132.212683 
L 348.9175 122.236669 
L 354.583233 119.448786 
L 360.248967 143.062193 
L 365.9147 133.180034 
L 371.580434 151.177026 
L 377.246167 123.889111 
L 382.9119 143.267067 
L 388.577634 142.725415 
L 394.243367 123.223906 
L 399.909101 127.225311 
L 405.574834 126.438 
L 411.240567 126.071244 
L 416.906301 128.266611 
L 422.572034 109.081186 
L 428.237768 96.576513 
L 433.903501 100.372105 
L 439.569234 96.220272 
L 445.234968 110.485795 
L 450.900701 111.736435 
L 456.566435 109.814228 
L 462.232168 111.173864 
L 467.897901 109.451501 
L 473.563635 96.230624 
L 479.229368 94.51621 
L 484.895102 96.334246 
L 490.560835 95.707826 
L 496.226568 92.151381 
L 501.892302 100.709984 
L 507.558035 94.496249 
L 513.223769 93.333404 
L 518.889502 95.250518 
L 524.555235 99.921116 
L 530.220969 95.698326 
L 535.886702 139.416205 
L 541.552436 128.989471 
L 547.218169 131.704403 
L 552.883902 116.081976 
L 558.549636 141.391811 
L 564.215369 115.464399 
L 569.881103 128.118254 
L 575.546836 112.326145 
L 581.212569 113.92602 
L 586.878303 115.525681 
L 592.544036 131.743206 
L 598.20977 109.624768 
L 603.875503 111.893765 
L 609.541236 110.908128 
L 615.20697 102.362633 
L 620.872703 96.107182 
L 626.538437 101.286355 
L 626.538437 84.907943 
L 626.538437 84.907943 
L 620.872703 88.137031 
L 615.20697 84.657167 
L 609.541236 86.770444 
L 603.875503 83.418533 
L 598.20977 84.185157 
L 592.544036 75.593257 
L 586.878303 79.994834 
L 581.212569 78.180381 
L 575.546836 84.103088 
L 569.881103 82.027859 
L 564.215369 84.627718 
L 558.549636 75.075208 
L 552.883902 81.428111 
L 547.218169 76.043019 
L 541.552436 75.061478 
L 535.886702 76.258458 
L 530.220969 88.94606 
L 524.555235 83.191779 
L 518.889502 87.489466 
L 513.223769 85.195933 
L 507.558035 85.21038 
L 501.892302 89.241367 
L 496.226568 89.517346 
L 490.560835 89.167954 
L 484.895102 91.909257 
L 479.229368 89.210842 
L 473.563635 87.758256 
L 467.897901 90.167151 
L 462.232168 87.500471 
L 456.566435 82.527937 
L 450.900701 81.708289 
L 445.234968 87.438317 
L 439.569234 90.146277 
L 433.903501 85.136691 
L 428.237768 86.677484 
L 422.572034 84.594818 
L 416.906301 87.770012 
L 411.240567 84.028445 
L 405.574834 77.956337 
L 399.909101 84.63462 
L 394.243367 92.163773 
L 388.577634 80.336715 
L 382.9119 82.639248 
L 377.246167 91.068521 
L 371.580434 76.486065 
L 365.9147 75.846262 
L 360.248967 75.274622 
L 354.583233 86.44272 
L 348.9175 78.732792 
L 343.251767 81.935427 
L 337.586033 92.562644 
L 331.9203 94.277547 
L 326.254566 89.978686 
L 320.588833 89.695174 
L 314.9231 92.55453 
L 309.257366 90.038535 
L 303.591633 87.876164 
L 297.925899 89.6902 
L 292.260166 90.007825 
L 286.594433 90.964238 
L 280.928699 88.016925 
L 275.262966 93.420592 
L 269.597232 97.27648 
L 263.931499 96.59871 
L 258.265766 94.303413 
L 252.600032 91.69988 
L 246.934299 95.230795 
L 241.268565 94.138131 
L 235.602832 92.777783 
L 229.937099 97.119769 
L 224.271365 95.417617 
L 218.605632 103.751672 
L 212.939898 94.467394 
L 207.274165 102.411703 
L 201.608432 106.741277 
L 195.942698 108.118642 
L 190.276965 117.930153 
L 184.611231 111.34405 
L 178.945498 110.634139 
L 173.279765 113.111794 
L 167.614031 102.443141 
L 161.948298 122.348819 
L 156.282564 135.24205 
L 150.616831 138.680527 
L 144.951098 137.613327 
L 139.285364 169.593272 
L 133.619631 195.211522 
L 127.953897 209.853143 
L 122.288164 235.793526 
L 116.622431 250.030932 
L 110.956697 263.881741 
L 105.290964 264.831699 
L 99.62523 285.059967 
L 93.959497 285.852963 
L 88.293764 279.336762 
L 82.62803 286.714997 
L 76.962297 284.351172 
L 71.296563 290.052708 
L 65.63083 299.779397 
z
" clip-path="url(#p29f471cdd3)" style="fill: #0000ff; fill-opacity: 0.1"/>
   </g>
   <g id="line2d_19">
    <path d="M 65.63083 303.0683 
L 71.296563 304.043606 
L 76.962297 303.146798 
L 82.62803 299.236886 
L 88.293764 288.746922 
L 93.959497 305.376271 
L 99.62523 298.748337 
L 105.290964 289.180212 
L 110.956697 278.580317 
L 116.622431 265.157063 
L 122.288164 248.784679 
L 127.953897 232.117341 
L 133.619631 219.691273 
L 139.285364 198.197019 
L 144.951098 170.943171 
L 150.616831 158.93074 
L 156.282564 150.355819 
L 161.948298 133.391824 
L 167.614031 130.654867 
L 173.279765 139.393516 
L 178.945498 119.409469 
L 184.611231 119.523688 
L 190.276965 132.058768 
L 195.942698 129.639732 
L 201.608432 120.173572 
L 207.274165 113.299454 
L 212.939898 124.323843 
L 218.605632 114.14782 
L 224.271365 100.068889 
L 229.937099 105.114809 
L 235.602832 105.180001 
L 241.268565 113.174542 
L 246.934299 103.27886 
L 252.600032 105.989022 
L 258.265766 106.82454 
L 263.931499 99.578223 
L 269.597232 100.65034 
L 275.262966 103.330414 
L 280.928699 101.07584 
L 286.594433 98.035069 
L 292.260166 95.367532 
L 297.925899 95.971937 
L 303.591633 93.011319 
L 309.257366 99.270631 
L 314.9231 97.005846 
L 320.588833 94.290334 
L 326.254566 94.070117 
L 331.9203 99.081206 
L 337.586033 102.526319 
L 343.251767 107.074055 
L 348.9175 100.48473 
L 354.583233 102.945753 
L 360.248967 109.168408 
L 365.9147 104.513148 
L 371.580434 113.831545 
L 377.246167 107.478816 
L 382.9119 112.953157 
L 388.577634 111.531065 
L 394.243367 107.693839 
L 399.909101 105.929965 
L 405.574834 102.197168 
L 411.240567 105.049845 
L 416.906301 108.018311 
L 422.572034 96.838002 
L 428.237768 91.626999 
L 433.903501 92.754398 
L 439.569234 93.183274 
L 445.234968 98.962056 
L 450.900701 96.722362 
L 456.566435 96.171082 
L 462.232168 99.337168 
L 467.897901 99.809326 
L 473.563635 91.99444 
L 479.229368 91.863526 
L 484.895102 94.121751 
L 490.560835 92.43789 
L 496.226568 90.834364 
L 501.892302 94.975676 
L 507.558035 89.853314 
L 513.223769 89.264668 
L 518.889502 91.369992 
L 524.555235 91.556448 
L 530.220969 92.322193 
L 535.886702 107.837331 
L 541.552436 102.025474 
L 547.218169 103.873711 
L 552.883902 98.755044 
L 558.549636 108.23351 
L 564.215369 100.046058 
L 569.881103 105.073057 
L 575.546836 98.214617 
L 581.212569 96.0532 
L 586.878303 97.760257 
L 592.544036 103.668231 
L 598.20977 96.904963 
L 603.875503 97.656149 
L 609.541236 98.839286 
L 615.20697 93.5099 
L 620.872703 92.122106 
L 626.538437 93.097149 
" clip-path="url(#p29f471cdd3)" style="fill: none; stroke: #0000ff; stroke-width: 1.5; stroke-linecap: round"/>
   </g>
   <g id="line2d_20">
    <path d="M 65.63083 304.970414 
L 71.296563 302.972549 
L 76.962297 278.509815 
L 82.62803 281.54474 
L 88.293764 274.182829 
L 93.959497 290.729139 
L 99.62523 287.903819 
L 105.290964 269.319441 
L 110.956697 277.450497 
L 116.622431 258.076318 
L 122.288164 240.705903 
L 127.953897 229.016573 
L 133.619631 215.79865 
L 139.285364 192.806116 
L 144.951098 156.124154 
L 150.616831 150.115845 
L 156.282564 133.862255 
L 161.948298 150.39273 
L 167.614031 178.692656 
L 173.279765 188.765489 
L 178.945498 111.362967 
L 184.611231 120.705082 
L 190.276965 157.399 
L 195.942698 110.218355 
L 201.608432 113.681288 
L 207.274165 97.458811 
L 212.939898 106.454442 
L 218.605632 117.070787 
L 224.271365 102.133983 
L 229.937099 92.986235 
L 235.602832 100.049396 
L 241.268565 103.425487 
L 246.934299 96.005302 
L 252.600032 91.692753 
L 258.265766 99.712469 
L 263.931499 103.771633 
L 269.597232 102.156618 
L 275.262966 104.54965 
L 280.928699 86.935925 
L 286.594433 108.428053 
L 292.260166 89.729156 
L 297.925899 98.336047 
L 303.591633 88.618302 
L 309.257366 102.076479 
L 314.9231 98.781777 
L 320.588833 101.61938 
L 326.254566 99.539845 
L 331.9203 96.205256 
L 337.586033 107.533542 
L 343.251767 90.890047 
L 348.9175 91.465726 
L 354.583233 91.104729 
L 360.248967 89.946344 
L 365.9147 95.009263 
L 371.580434 95.615344 
L 377.246167 86.394628 
L 382.9119 92.688262 
L 388.577634 93.050196 
L 394.243367 104.163821 
L 399.909101 94.012413 
L 405.574834 89.407764 
L 411.240567 89.55362 
L 416.906301 108.935428 
L 422.572034 100.418928 
L 428.237768 89.818925 
L 433.903501 88.178703 
L 439.569234 89.483049 
L 445.234968 89.440021 
L 450.900701 93.56321 
L 456.566435 93.388294 
L 462.232168 96.36469 
L 467.897901 88.746273 
L 473.563635 91.778522 
L 479.229368 88.867321 
L 484.895102 96.453796 
L 490.560835 90.890674 
L 496.226568 91.725283 
L 501.892302 102.965155 
L 507.558035 93.419089 
L 513.223769 90.981964 
L 518.889502 94.433227 
L 524.555235 89.176421 
L 530.220969 94.40683 
L 535.886702 93.006376 
L 541.552436 82.318663 
L 547.218169 86.946608 
L 552.883902 93.729472 
L 558.549636 91.395458 
L 564.215369 93.096486 
L 569.881103 95.459226 
L 575.546836 92.712693 
L 581.212569 88.573776 
L 586.878303 93.616285 
L 592.544036 89.301989 
L 598.20977 92.57292 
L 603.875503 91.571226 
L 609.541236 93.097919 
L 615.20697 85.468155 
L 620.872703 87.188363 
L 626.538437 85.907848 
" clip-path="url(#p29f471cdd3)" style="fill: none; stroke: #008000; stroke-opacity: 0.2; stroke-linecap: round"/>
   </g>
   <g id="line2d_21">
    <path d="M 65.63083 298.72718 
L 71.296563 279.973649 
L 76.962297 325.770532 
L 82.62803 296.402325 
L 88.293764 296.37506 
L 93.959497 324.922578 
L 99.62523 286.193826 
L 105.290964 278.075921 
L 110.956697 268.006179 
L 116.622431 252.057323 
L 122.288164 241.989953 
L 127.953897 215.929453 
L 133.619631 231.177611 
L 139.285364 216.114695 
L 144.951098 220.392708 
L 150.616831 197.837253 
L 156.282564 169.110357 
L 161.948298 142.255271 
L 167.614031 140.95789 
L 173.279765 135.604046 
L 178.945498 136.500856 
L 184.611231 133.621211 
L 190.276965 127.854564 
L 195.942698 170.821895 
L 201.608432 129.719506 
L 207.274165 128.804188 
L 212.939898 180.843253 
L 218.605632 102.728425 
L 224.271365 106.150846 
L 229.937099 112.792948 
L 235.602832 129.109338 
L 241.268565 150.092255 
L 246.934299 118.148886 
L 252.600032 133.017864 
L 258.265766 115.403959 
L 263.931499 95.927014 
L 269.597232 100.706417 
L 275.262966 118.040068 
L 280.928699 104.516819 
L 286.594433 97.838552 
L 292.260166 90.027782 
L 297.925899 102.087851 
L 303.591633 92.786971 
L 309.257366 87.164754 
L 314.9231 95.386739 
L 320.588833 95.774212 
L 326.254566 91.438 
L 331.9203 92.507275 
L 337.586033 88.978222 
L 343.251767 86.060277 
L 348.9175 84.060224 
L 354.583233 100.884963 
L 360.248967 91.68828 
L 365.9147 89.943269 
L 371.580434 94.827881 
L 377.246167 97.472789 
L 382.9119 104.405356 
L 388.577634 98.985453 
L 394.243367 106.945196 
L 399.909101 103.788583 
L 405.574834 97.699179 
L 411.240567 100.059525 
L 416.906301 92.644299 
L 422.572034 100.496622 
L 428.237768 98.78711 
L 433.903501 95.430398 
L 439.569234 98.641752 
L 445.234968 92.054141 
L 450.900701 83.819681 
L 456.566435 85.91336 
L 462.232168 89.400697 
L 467.897901 97.418281 
L 473.563635 85.369361 
L 479.229368 92.484248 
L 484.895102 90.624956 
L 490.560835 87.427098 
L 496.226568 89.122858 
L 501.892302 98.883217 
L 507.558035 93.970085 
L 513.223769 94.421461 
L 518.889502 94.649207 
L 524.555235 95.866149 
L 530.220969 88.391484 
L 535.886702 89.103898 
L 541.552436 95.832861 
L 547.218169 91.952092 
L 552.883902 92.136952 
L 558.549636 96.669424 
L 564.215369 94.755828 
L 569.881103 90.461311 
L 575.546836 85.654884 
L 581.212569 89.853348 
L 586.878303 90.786917 
L 592.544036 89.628119 
L 598.20977 85.444041 
L 603.875503 92.764213 
L 609.541236 97.723977 
L 615.20697 85.625307 
L 620.872703 95.99884 
L 626.538437 90.780938 
" clip-path="url(#p29f471cdd3)" style="fill: none; stroke: #008000; stroke-opacity: 0.2; stroke-linecap: round"/>
   </g>
   <g id="line2d_22">
    <path d="M 65.63083 306.247592 
L 71.296563 303.744633 
L 76.962297 289.223159 
L 82.62803 317.63358 
L 88.293764 301.180836 
L 93.959497 333.132675 
L 99.62523 322.163645 
L 105.290964 333.955932 
L 110.956697 284.159266 
L 116.622431 267.727412 
L 122.288164 258.744404 
L 127.953897 237.802265 
L 133.619631 220.137407 
L 139.285364 192.229005 
L 144.951098 149.048001 
L 150.616831 148.352357 
L 156.282564 135.752177 
L 161.948298 123.179621 
L 167.614031 126.991633 
L 173.279765 120.883329 
L 178.945498 116.16481 
L 184.611231 114.694947 
L 190.276965 114.4223 
L 195.942698 129.903707 
L 201.608432 141.25928 
L 207.274165 121.157595 
L 212.939898 127.314815 
L 218.605632 119.595291 
L 224.271365 91.925185 
L 229.937099 112.758938 
L 235.602832 103.865809 
L 241.268565 110.680625 
L 246.934299 104.805452 
L 252.600032 101.477975 
L 258.265766 127.13489 
L 263.931499 100.124206 
L 269.597232 94.164212 
L 275.262966 104.728644 
L 280.928699 124.687347 
L 286.594433 99.268314 
L 292.260166 104.306531 
L 297.925899 90.665741 
L 303.591633 101.785208 
L 309.257366 96.888666 
L 314.9231 104.269438 
L 320.588833 87.635057 
L 326.254566 93.11142 
L 331.9203 97.622365 
L 337.586033 98.601709 
L 343.251767 155.904729 
L 348.9175 143.579871 
L 354.583233 134.138322 
L 360.248967 176.896847 
L 365.9147 161.460408 
L 371.580434 188.072197 
L 377.246167 121.002396 
L 382.9119 172.98342 
L 388.577634 173.790078 
L 394.243367 136.890275 
L 399.909101 147.629067 
L 405.574834 150.022626 
L 411.240567 146.528342 
L 416.906301 146.552119 
L 422.572034 113.203519 
L 428.237768 95.686908 
L 433.903501 104.794962 
L 439.569234 92.128043 
L 445.234968 99.748668 
L 450.900701 91.475301 
L 456.566435 89.299291 
L 462.232168 98.132166 
L 467.897901 92.680187 
L 473.563635 98.760881 
L 479.229368 94.802765 
L 484.895102 92.818249 
L 490.560835 97.23777 
L 496.226568 91.226548 
L 501.892302 88.944702 
L 507.558035 81.183458 
L 513.223769 91.899908 
L 518.889502 90.371425 
L 524.555235 82.625361 
L 530.220969 93.369181 
L 535.886702 170.82085 
L 541.552436 155.213645 
L 547.218169 159.274393 
L 552.883902 132.390372 
L 558.549636 174.29536 
L 564.215369 129.719604 
L 569.881103 150.832409 
L 575.546836 125.728491 
L 581.212569 131.601361 
L 586.878303 132.60019 
L 592.544036 159.812806 
L 598.20977 121.723555 
L 603.875503 125.690759 
L 609.541236 122.328095 
L 615.20697 108.098584 
L 620.872703 93.8038 
L 626.538437 109.0297 
" clip-path="url(#p29f471cdd3)" style="fill: none; stroke: #008000; stroke-opacity: 0.2; stroke-linecap: round"/>
   </g>
   <g id="line2d_23">
    <path d="M 65.63083 305.956925 
L 71.296563 322.868117 
L 76.962297 323.896154 
L 82.62803 308.11966 
L 88.293764 287.168045 
L 93.959497 287.376679 
L 99.62523 306.26885 
L 105.290964 269.116947 
L 110.956697 260.227064 
L 116.622431 254.460927 
L 122.288164 233.618478 
L 127.953897 206.654977 
L 133.619631 178.143467 
L 139.285364 152.001204 
L 144.951098 130.450435 
L 150.616831 140.323945 
L 156.282564 167.22581 
L 161.948298 128.337416 
L 167.614031 108.677418 
L 173.279765 113.761685 
L 178.945498 115.868549 
L 184.611231 119.612578 
L 190.276965 127.059555 
L 195.942698 118.552038 
L 201.608432 104.04824 
L 207.274165 107.156059 
L 212.939898 97.700469 
L 218.605632 129.220918 
L 224.271365 100.613536 
L 229.937099 108.518694 
L 235.602832 99.226744 
L 241.268565 96.18304 
L 246.934299 97.001388 
L 252.600032 97.890156 
L 258.265766 98.178546 
L 263.931499 101.542247 
L 269.597232 102.637361 
L 275.262966 102.448012 
L 280.928699 94.500809 
L 286.594433 86.192795 
L 292.260166 97.20665 
L 297.925899 102.166906 
L 303.591633 87.266951 
L 309.257366 95.166158 
L 314.9231 90.745677 
L 320.588833 94.444446 
L 326.254566 97.830064 
L 331.9203 103.47263 
L 337.586033 98.893613 
L 343.251767 102.699032 
L 348.9175 90.751662 
L 354.583233 101.186315 
L 360.248967 94.127177 
L 365.9147 91.469239 
L 371.580434 101.783027 
L 377.246167 101.020006 
L 382.9119 94.179405 
L 388.577634 94.778533 
L 394.243367 91.361083 
L 399.909101 91.967472 
L 405.574834 87.531341 
L 411.240567 95.907206 
L 416.906301 100.3424 
L 422.572034 94.438652 
L 428.237768 85.026705 
L 433.903501 93.413515 
L 439.569234 92.035052 
L 445.234968 92.595373 
L 450.900701 88.720894 
L 456.566435 89.212138 
L 462.232168 90.711127 
L 467.897901 104.014487 
L 473.563635 92.047067 
L 479.229368 88.664194 
L 484.895102 96.371848 
L 490.560835 94.146456 
L 496.226568 89.514923 
L 501.892302 96.025923 
L 507.558035 89.236147 
L 513.223769 85.242567 
L 518.889502 84.232624 
L 524.555235 105.576805 
L 530.220969 88.492094 
L 535.886702 95.91714 
L 541.552436 90.286257 
L 547.218169 93.940369 
L 552.883902 93.186248 
L 558.549636 87.55681 
L 564.215369 97.648048 
L 569.881103 97.749037 
L 575.546836 95.216606 
L 581.212569 85.039411 
L 586.878303 88.818634 
L 592.544036 89.256168 
L 598.20977 93.430048 
L 603.875503 85.873934 
L 609.541236 91.94438 
L 615.20697 99.242994 
L 620.872703 87.508018 
L 626.538437 88.511594 
" clip-path="url(#p29f471cdd3)" style="fill: none; stroke: #008000; stroke-opacity: 0.2; stroke-linecap: round"/>
   </g>
   <g id="line2d_24">
    <path d="M 65.63083 299.439389 
L 71.296563 310.659084 
L 76.962297 298.334328 
L 82.62803 292.484126 
L 88.293764 284.82784 
L 93.959497 290.720285 
L 99.62523 291.211545 
L 105.290964 295.432817 
L 110.956697 303.058577 
L 116.622431 293.463336 
L 122.288164 268.864657 
L 127.953897 271.183436 
L 133.619631 253.199231 
L 139.285364 237.834077 
L 144.951098 198.700558 
L 150.616831 158.024301 
L 156.282564 145.828495 
L 161.948298 122.794081 
L 167.614031 97.954737 
L 173.279765 137.953029 
L 178.945498 117.150163 
L 184.611231 108.984623 
L 190.276965 133.558417 
L 195.942698 118.702664 
L 201.608432 112.159544 
L 207.274165 111.920616 
L 212.939898 109.306236 
L 218.605632 102.12368 
L 224.271365 99.520895 
L 229.937099 98.517229 
L 235.602832 93.64872 
L 241.268565 105.491301 
L 246.934299 100.433274 
L 252.600032 105.866362 
L 258.265766 93.692837 
L 263.931499 96.526014 
L 269.597232 103.587093 
L 275.262966 86.885696 
L 280.928699 94.7383 
L 286.594433 98.447631 
L 292.260166 95.567539 
L 297.925899 86.60314 
L 303.591633 94.599162 
L 309.257366 115.057097 
L 314.9231 95.845599 
L 320.588833 91.978578 
L 326.254566 88.431255 
L 331.9203 105.598507 
L 337.586033 118.624509 
L 343.251767 99.816192 
L 348.9175 92.566168 
L 354.583233 87.414437 
L 360.248967 93.183391 
L 365.9147 84.683559 
L 371.580434 88.859277 
L 377.246167 131.50426 
L 382.9119 100.509343 
L 388.577634 97.051063 
L 394.243367 99.108822 
L 399.909101 92.252291 
L 405.574834 86.324932 
L 411.240567 93.20053 
L 416.906301 91.61731 
L 422.572034 75.632289 
L 428.237768 88.815344 
L 433.903501 81.954411 
L 439.569234 93.628476 
L 445.234968 120.972076 
L 450.900701 126.032725 
L 456.566435 123.042329 
L 462.232168 122.07716 
L 467.897901 116.187403 
L 473.563635 92.016372 
L 479.229368 94.499104 
L 484.895102 94.339908 
L 490.560835 92.48745 
L 496.226568 92.582206 
L 501.892302 88.059381 
L 507.558035 91.457794 
L 513.223769 83.777443 
L 518.889502 93.163477 
L 524.555235 84.537502 
L 530.220969 96.951376 
L 535.886702 90.338393 
L 541.552436 86.475945 
L 547.218169 87.255094 
L 552.883902 82.332174 
L 558.549636 91.250497 
L 564.215369 85.010326 
L 569.881103 90.8633 
L 575.546836 91.76041 
L 581.212569 85.198104 
L 586.878303 82.979261 
L 592.544036 90.342075 
L 598.20977 91.35425 
L 603.875503 92.380613 
L 609.541236 89.102057 
L 615.20697 89.11446 
L 620.872703 96.11151 
L 626.538437 91.255663 
" clip-path="url(#p29f471cdd3)" style="fill: none; stroke: #008000; stroke-opacity: 0.2; stroke-linecap: round"/>
   </g>
   <g id="line2d_25">
    <path d="M 65.63083 57.0062 
L 71.296563 61.576551 
L 76.962297 72.538804 
L 82.62803 79.878751 
L 88.293764 98.138433 
L 93.959497 124.344006 
L 99.62523 148.137043 
L 105.290964 164.726821 
L 110.956697 185.084991 
L 116.622431 203.159512 
L 122.288164 217.026953 
L 127.953897 238.379604 
L 133.619631 243.613515 
L 139.285364 249.823939 
L 144.951098 250.496226 
L 150.616831 255.637487 
L 156.282564 263.751899 
L 161.948298 282.355943 
L 167.614031 287.909277 
L 173.279765 300.723429 
L 178.945498 307.333579 
L 184.611231 318.127335 
L 190.276965 325.314947 
L 195.942698 332.318638 
L 201.608432 342.527075 
L 207.274165 347.429336 
L 212.939898 349.471098 
L 218.605632 352.664321 
L 224.271365 357.143435 
L 229.937099 360.152574 
L 235.602832 360.434842 
L 241.268565 365.892903 
L 246.934299 367.406243 
L 252.600032 368.248356 
L 258.265766 368.849087 
L 263.931499 370.018396 
L 269.597232 372.614648 
L 275.262966 371.797116 
L 280.928699 372.429154 
L 286.594433 373.214589 
L 292.260166 373.975203 
L 297.925899 375.470308 
L 303.591633 375.962645 
L 309.257366 375.747289 
L 314.9231 377.109255 
L 320.588833 378.896763 
L 326.254566 378.592743 
L 331.9203 380.094168 
L 337.586033 383.408273 
L 343.251767 383.302176 
L 348.9175 384.626202 
L 354.583233 385.781263 
L 360.248967 388.116073 
L 365.9147 387.865075 
L 371.580434 389.602157 
L 377.246167 388.063482 
L 382.9119 387.944898 
L 388.577634 387.457686 
L 394.243367 385.922656 
L 399.909101 386.867346 
L 405.574834 388.139515 
L 411.240567 388.005391 
L 416.906301 387.252694 
L 422.572034 386.476819 
L 428.237768 387.240076 
L 433.903501 386.003584 
L 439.569234 387.793575 
L 445.234968 390.04 
L 450.900701 389.079805 
L 456.566435 389.78146 
L 462.232168 389.28602 
L 467.897901 388.965613 
L 473.563635 387.075198 
L 479.229368 383.890888 
L 484.895102 373.733673 
L 490.560835 373.303696 
L 496.226568 371.604078 
L 501.892302 367.093471 
L 507.558035 362.680284 
L 513.223769 363.523035 
L 518.889502 366.78261 
L 524.555235 362.712746 
L 530.220969 360.253453 
L 535.886702 375.597741 
L 541.552436 373.797764 
L 547.218169 375.480599 
L 552.883902 372.359575 
L 558.549636 381.942705 
L 564.215369 374.313477 
L 569.881103 382.107214 
L 575.546836 381.648334 
L 581.212569 378.776092 
L 586.878303 379.849941 
L 592.544036 381.012986 
L 598.20977 376.976718 
L 603.875503 377.684851 
L 609.541236 379.758145 
L 615.20697 379.081231 
L 620.872703 382.727898 
L 626.538437 382.886921 
" clip-path="url(#p29f471cdd3)" style="fill: none; stroke: #800080; stroke-linecap: round"/>
   </g>
   <g id="patch_3">
    <path d="M 65.63 390.04 
L 65.63 57.0062 
" style="fill: none; stroke: #ffffff; stroke-width: 0.8; stroke-linejoin: miter; stroke-linecap: square"/>
   </g>
   <g id="patch_4">
    <path d="M 632.205 390.04 
L 632.205 57.0062 
" style="fill: none; stroke: #ffffff; stroke-width: 0.8; stroke-linejoin: miter; stroke-linecap: square"/>
   </g>
   <g id="patch_5">
    <path d="M 65.63 390.04 
L 632.205 390.04 
" style="fill: none; stroke: #ffffff; stroke-width: 0.8; stroke-linejoin: miter; stroke-linecap: square"/>
   </g>
   <g id="patch_6">
    <path d="M 65.63 57.0062 
L 632.205 57.0062 
" style="fill: none; stroke: #ffffff; stroke-width: 0.8; stroke-linejoin: miter; stroke-linecap: square"/>
   </g>
   <g id="legend_1">
    <g id="line2d_26">
     <path d="M 97.385341 41.274494 
L 105.715341 41.274494 
L 114.045341 41.274494 
" style="fill: none; stroke: #0000ff; stroke-width: 1.5; stroke-linecap: round"/>
    </g>
    <g id="text_22">
     <!-- Mean Reward -->
     <g style="fill: #262626" transform="translate(120.709341 44.189994) scale(0.0833 -0.0833)">
      <defs>
       <path id="DejaVuSans-4d" d="M 628 4666 
L 1569 4666 
L 2759 1491 
L 3956 4666 
L 4897 4666 
L 4897 0 
L 4281 0 
L 4281 4097 
L 3078 897 
L 2444 897 
L 1241 4097 
L 1241 0 
L 628 0 
L 628 4666 
z
" transform="scale(0.015625)"/>
       <path id="DejaVuSans-6e" d="M 3513 2113 
L 3513 0 
L 2938 0 
L 2938 2094 
Q 2938 2591 2744 2837 
Q 2550 3084 2163 3084 
Q 1697 3084 1428 2787 
Q 1159 2491 1159 1978 
L 1159 0 
L 581 0 
L 581 3500 
L 1159 3500 
L 1159 2956 
Q 1366 3272 1645 3428 
Q 1925 3584 2291 3584 
Q 2894 3584 3203 3211 
Q 3513 2838 3513 2113 
z
" transform="scale(0.015625)"/>
       <path id="DejaVuSans-20" transform="scale(0.015625)"/>
      </defs>
      <use xlink:href="#DejaVuSans-4d"/>
      <use xlink:href="#DejaVuSans-65" transform="translate(86.279297 0)"/>
      <use xlink:href="#DejaVuSans-61" transform="translate(147.802734 0)"/>
      <use xlink:href="#DejaVuSans-6e" transform="translate(209.082031 0)"/>
      <use xlink:href="#DejaVuSans-20" transform="translate(272.460938 0)"/>
      <use xlink:href="#DejaVuSans-52" transform="translate(304.248047 0)"/>
      <use xlink:href="#DejaVuSans-65" transform="translate(369.230469 0)"/>
      <use xlink:href="#DejaVuSans-77" transform="translate(430.753906 0)"/>
      <use xlink:href="#DejaVuSans-61" transform="translate(512.541016 0)"/>
      <use xlink:href="#DejaVuSans-72" transform="translate(573.820312 0)"/>
      <use xlink:href="#DejaVuSans-64" transform="translate(613.183594 0)"/>
     </g>
    </g>
    <g id="line2d_27">
     <path d="M 193.736108 41.274494 
L 202.066108 41.274494 
L 210.396108 41.274494 
" style="fill: none; stroke: #008000; stroke-opacity: 0.2; stroke-linecap: round"/>
    </g>
    <g id="text_23">
     <!-- Reward (individual runs) -->
     <g style="fill: #262626" transform="translate(217.060108 44.189994) scale(0.0833 -0.0833)">
      <defs>
       <path id="DejaVuSans-28" d="M 1984 4856 
Q 1566 4138 1362 3434 
Q 1159 2731 1159 2009 
Q 1159 1288 1364 580 
Q 1569 -128 1984 -844 
L 1484 -844 
Q 1016 -109 783 600 
Q 550 1309 550 2009 
Q 550 2706 781 3412 
Q 1013 4119 1484 4856 
L 1984 4856 
z
" transform="scale(0.015625)"/>
       <path id="DejaVuSans-69" d="M 603 3500 
L 1178 3500 
L 1178 0 
L 603 0 
L 603 3500 
z
M 603 4863 
L 1178 4863 
L 1178 4134 
L 603 4134 
L 603 4863 
z
" transform="scale(0.015625)"/>
       <path id="DejaVuSans-76" d="M 191 3500 
L 800 3500 
L 1894 563 
L 2988 3500 
L 3597 3500 
L 2284 0 
L 1503 0 
L 191 3500 
z
" transform="scale(0.015625)"/>
       <path id="DejaVuSans-75" d="M 544 1381 
L 544 3500 
L 1119 3500 
L 1119 1403 
Q 1119 906 1312 657 
Q 1506 409 1894 409 
Q 2359 409 2629 706 
Q 2900 1003 2900 1516 
L 2900 3500 
L 3475 3500 
L 3475 0 
L 2900 0 
L 2900 538 
Q 2691 219 2414 64 
Q 2138 -91 1772 -91 
Q 1169 -91 856 284 
Q 544 659 544 1381 
z
M 1991 3584 
L 1991 3584 
z
" transform="scale(0.015625)"/>
       <path id="DejaVuSans-6c" d="M 603 4863 
L 1178 4863 
L 1178 0 
L 603 0 
L 603 4863 
z
" transform="scale(0.015625)"/>
       <path id="DejaVuSans-29" d="M 513 4856 
L 1013 4856 
Q 1481 4119 1714 3412 
Q 1947 2706 1947 2009 
Q 1947 1309 1714 600 
Q 1481 -109 1013 -844 
L 513 -844 
Q 928 -128 1133 580 
Q 1338 1288 1338 2009 
Q 1338 2731 1133 3434 
Q 928 4138 513 4856 
z
" transform="scale(0.015625)"/>
      </defs>
      <use xlink:href="#DejaVuSans-52"/>
      <use xlink:href="#DejaVuSans-65" transform="translate(64.982422 0)"/>
      <use xlink:href="#DejaVuSans-77" transform="translate(126.505859 0)"/>
      <use xlink:href="#DejaVuSans-61" transform="translate(208.292969 0)"/>
      <use xlink:href="#DejaVuSans-72" transform="translate(269.572266 0)"/>
      <use xlink:href="#DejaVuSans-64" transform="translate(308.935547 0)"/>
      <use xlink:href="#DejaVuSans-20" transform="translate(372.412109 0)"/>
      <use xlink:href="#DejaVuSans-28" transform="translate(404.199219 0)"/>
      <use xlink:href="#DejaVuSans-69" transform="translate(443.212891 0)"/>
      <use xlink:href="#DejaVuSans-6e" transform="translate(470.996094 0)"/>
      <use xlink:href="#DejaVuSans-64" transform="translate(534.375 0)"/>
      <use xlink:href="#DejaVuSans-69" transform="translate(597.851562 0)"/>
      <use xlink:href="#DejaVuSans-76" transform="translate(625.634766 0)"/>
      <use xlink:href="#DejaVuSans-69" transform="translate(684.814453 0)"/>
      <use xlink:href="#DejaVuSans-64" transform="translate(712.597656 0)"/>
      <use xlink:href="#DejaVuSans-75" transform="translate(776.074219 0)"/>
      <use xlink:href="#DejaVuSans-61" transform="translate(839.453125 0)"/>
      <use xlink:href="#DejaVuSans-6c" transform="translate(900.732422 0)"/>
      <use xlink:href="#DejaVuSans-20" transform="translate(928.515625 0)"/>
      <use xlink:href="#DejaVuSans-72" transform="translate(960.302734 0)"/>
      <use xlink:href="#DejaVuSans-75" transform="translate(1001.416016 0)"/>
      <use xlink:href="#DejaVuSans-6e" transform="translate(1064.794922 0)"/>
      <use xlink:href="#DejaVuSans-73" transform="translate(1128.173828 0)"/>
      <use xlink:href="#DejaVuSans-29" transform="translate(1180.273438 0)"/>
     </g>
    </g>
    <g id="line2d_28">
     <path d="M 335.286236 41.274494 
L 343.616236 41.274494 
L 351.946236 41.274494 
" style="fill: none; stroke: #800080; stroke-linecap: round"/>
    </g>
    <g id="text_24">
     <!-- Entropy (normalized) -->
     <g style="fill: #262626" transform="translate(358.610236 44.189994) scale(0.0833 -0.0833)">
      <defs>
       <path id="DejaVuSans-45" d="M 628 4666 
L 3578 4666 
L 3578 4134 
L 1259 4134 
L 1259 2753 
L 3481 2753 
L 3481 2222 
L 1259 2222 
L 1259 531 
L 3634 531 
L 3634 0 
L 628 0 
L 628 4666 
z
" transform="scale(0.015625)"/>
       <path id="DejaVuSans-6f" d="M 1959 3097 
Q 1497 3097 1228 2736 
Q 959 2375 959 1747 
Q 959 1119 1226 758 
Q 1494 397 1959 397 
Q 2419 397 2687 759 
Q 2956 1122 2956 1747 
Q 2956 2369 2687 2733 
Q 2419 3097 1959 3097 
z
M 1959 3584 
Q 2709 3584 3137 3096 
Q 3566 2609 3566 1747 
Q 3566 888 3137 398 
Q 2709 -91 1959 -91 
Q 1206 -91 779 398 
Q 353 888 353 1747 
Q 353 2609 779 3096 
Q 1206 3584 1959 3584 
z
" transform="scale(0.015625)"/>
       <path id="DejaVuSans-79" d="M 2059 -325 
Q 1816 -950 1584 -1140 
Q 1353 -1331 966 -1331 
L 506 -1331 
L 506 -850 
L 844 -850 
Q 1081 -850 1212 -737 
Q 1344 -625 1503 -206 
L 1606 56 
L 191 3500 
L 800 3500 
L 1894 763 
L 2988 3500 
L 3597 3500 
L 2059 -325 
z
" transform="scale(0.015625)"/>
       <path id="DejaVuSans-6d" d="M 3328 2828 
Q 3544 3216 3844 3400 
Q 4144 3584 4550 3584 
Q 5097 3584 5394 3201 
Q 5691 2819 5691 2113 
L 5691 0 
L 5113 0 
L 5113 2094 
Q 5113 2597 4934 2840 
Q 4756 3084 4391 3084 
Q 3944 3084 3684 2787 
Q 3425 2491 3425 1978 
L 3425 0 
L 2847 0 
L 2847 2094 
Q 2847 2600 2669 2842 
Q 2491 3084 2119 3084 
Q 1678 3084 1418 2786 
Q 1159 2488 1159 1978 
L 1159 0 
L 581 0 
L 581 3500 
L 1159 3500 
L 1159 2956 
Q 1356 3278 1631 3431 
Q 1906 3584 2284 3584 
Q 2666 3584 2933 3390 
Q 3200 3197 3328 2828 
z
" transform="scale(0.015625)"/>
       <path id="DejaVuSans-7a" d="M 353 3500 
L 3084 3500 
L 3084 2975 
L 922 459 
L 3084 459 
L 3084 0 
L 275 0 
L 275 525 
L 2438 3041 
L 353 3041 
L 353 3500 
z
" transform="scale(0.015625)"/>
      </defs>
      <use xlink:href="#DejaVuSans-45"/>
      <use xlink:href="#DejaVuSans-6e" transform="translate(63.183594 0)"/>
      <use xlink:href="#DejaVuSans-74" transform="translate(126.5625 0)"/>
      <use xlink:href="#DejaVuSans-72" transform="translate(165.771484 0)"/>
      <use xlink:href="#DejaVuSans-6f" transform="translate(204.634766 0)"/>
      <use xlink:href="#DejaVuSans-70" transform="translate(265.816406 0)"/>
      <use xlink:href="#DejaVuSans-79" transform="translate(329.292969 0)"/>
      <use xlink:href="#DejaVuSans-20" transform="translate(388.472656 0)"/>
      <use xlink:href="#DejaVuSans-28" transform="translate(420.259766 0)"/>
      <use xlink:href="#DejaVuSans-6e" transform="translate(459.273438 0)"/>
      <use xlink:href="#DejaVuSans-6f" transform="translate(522.652344 0)"/>
      <use xlink:href="#DejaVuSans-72" transform="translate(583.833984 0)"/>
      <use xlink:href="#DejaVuSans-6d" transform="translate(623.197266 0)"/>
      <use xlink:href="#DejaVuSans-61" transform="translate(720.609375 0)"/>
      <use xlink:href="#DejaVuSans-6c" transform="translate(781.888672 0)"/>
      <use xlink:href="#DejaVuSans-69" transform="translate(809.671875 0)"/>
      <use xlink:href="#DejaVuSans-7a" transform="translate(837.455078 0)"/>
      <use xlink:href="#DejaVuSans-65" transform="translate(889.945312 0)"/>
      <use xlink:href="#DejaVuSans-64" transform="translate(951.46875 0)"/>
      <use xlink:href="#DejaVuSans-29" transform="translate(1014.945312 0)"/>
     </g>
    </g>
    <g id="patch_7">
     <path d="M 463.065833 44.189994 
L 479.725833 44.189994 
L 479.725833 38.358994 
L 463.065833 38.358994 
z
" style="fill: #0000ff; fill-opacity: 0.1"/>
    </g>
    <g id="text_25">
     <!-- Reward Standard Deviation -->
     <g style="fill: #262626" transform="translate(486.389833 44.189994) scale(0.0833 -0.0833)">
      <defs>
       <path id="DejaVuSans-44" d="M 1259 4147 
L 1259 519 
L 2022 519 
Q 2988 519 3436 956 
Q 3884 1394 3884 2338 
Q 3884 3275 3436 3711 
Q 2988 4147 2022 4147 
L 1259 4147 
z
M 628 4666 
L 1925 4666 
Q 3281 4666 3915 4102 
Q 4550 3538 4550 2338 
Q 4550 1131 3912 565 
Q 3275 0 1925 0 
L 628 0 
L 628 4666 
z
" transform="scale(0.015625)"/>
      </defs>
      <use xlink:href="#DejaVuSans-52"/>
      <use xlink:href="#DejaVuSans-65" transform="translate(64.982422 0)"/>
      <use xlink:href="#DejaVuSans-77" transform="translate(126.505859 0)"/>
      <use xlink:href="#DejaVuSans-61" transform="translate(208.292969 0)"/>
      <use xlink:href="#DejaVuSans-72" transform="translate(269.572266 0)"/>
      <use xlink:href="#DejaVuSans-64" transform="translate(308.935547 0)"/>
      <use xlink:href="#DejaVuSans-20" transform="translate(372.412109 0)"/>
      <use xlink:href="#DejaVuSans-53" transform="translate(404.199219 0)"/>
      <use xlink:href="#DejaVuSans-74" transform="translate(467.675781 0)"/>
      <use xlink:href="#DejaVuSans-61" transform="translate(506.884766 0)"/>
      <use xlink:href="#DejaVuSans-6e" transform="translate(568.164062 0)"/>
      <use xlink:href="#DejaVuSans-64" transform="translate(631.542969 0)"/>
      <use xlink:href="#DejaVuSans-61" transform="translate(695.019531 0)"/>
      <use xlink:href="#DejaVuSans-72" transform="translate(756.298828 0)"/>
      <use xlink:href="#DejaVuSans-64" transform="translate(795.662109 0)"/>
      <use xlink:href="#DejaVuSans-20" transform="translate(859.138672 0)"/>
      <use xlink:href="#DejaVuSans-44" transform="translate(890.925781 0)"/>
      <use xlink:href="#DejaVuSans-65" transform="translate(967.927734 0)"/>
      <use xlink:href="#DejaVuSans-76" transform="translate(1029.451172 0)"/>
      <use xlink:href="#DejaVuSans-69" transform="translate(1088.630859 0)"/>
      <use xlink:href="#DejaVuSans-61" transform="translate(1116.414062 0)"/>
      <use xlink:href="#DejaVuSans-74" transform="translate(1177.693359 0)"/>
      <use xlink:href="#DejaVuSans-69" transform="translate(1216.902344 0)"/>
      <use xlink:href="#DejaVuSans-6f" transform="translate(1244.685547 0)"/>
      <use xlink:href="#DejaVuSans-6e" transform="translate(1305.867188 0)"/>
     </g>
    </g>
   </g>
  </g>
  <g id="text_26">
   <!-- Rewards: Pendulum-v1 (Discretized) - Logits (Baseline) (Noise) -->
   <g style="fill: #262626" transform="translate(110.288438 17.758125) scale(0.12 -0.12)">
    <defs>
     <path id="DejaVuSans-Bold-52" d="M 2297 2597 
Q 2675 2597 2839 2737 
Q 3003 2878 3003 3200 
Q 3003 3519 2839 3656 
Q 2675 3794 2297 3794 
L 1791 3794 
L 1791 2597 
L 2297 2597 
z
M 1791 1766 
L 1791 0 
L 588 0 
L 588 4666 
L 2425 4666 
Q 3347 4666 3776 4356 
Q 4206 4047 4206 3378 
Q 4206 2916 3982 2619 
Q 3759 2322 3309 2181 
Q 3556 2125 3751 1926 
Q 3947 1728 4147 1325 
L 4800 0 
L 3519 0 
L 2950 1159 
Q 2778 1509 2601 1637 
Q 2425 1766 2131 1766 
L 1791 1766 
z
" transform="scale(0.015625)"/>
     <path id="DejaVuSans-Bold-65" d="M 4031 1759 
L 4031 1441 
L 1416 1441 
Q 1456 1047 1700 850 
Q 1944 653 2381 653 
Q 2734 653 3104 758 
Q 3475 863 3866 1075 
L 3866 213 
Q 3469 63 3072 -14 
Q 2675 -91 2278 -91 
Q 1328 -91 801 392 
Q 275 875 275 1747 
Q 275 2603 792 3093 
Q 1309 3584 2216 3584 
Q 3041 3584 3536 3087 
Q 4031 2591 4031 1759 
z
M 2881 2131 
Q 2881 2450 2695 2645 
Q 2509 2841 2209 2841 
Q 1884 2841 1681 2658 
Q 1478 2475 1428 2131 
L 2881 2131 
z
" transform="scale(0.015625)"/>
     <path id="DejaVuSans-Bold-77" d="M 225 3500 
L 1313 3500 
L 1900 1088 
L 2491 3500 
L 3425 3500 
L 4013 1113 
L 4603 3500 
L 5691 3500 
L 4769 0 
L 3547 0 
L 2956 2406 
L 2369 0 
L 1147 0 
L 225 3500 
z
" transform="scale(0.015625)"/>
     <path id="DejaVuSans-Bold-61" d="M 2106 1575 
Q 1756 1575 1579 1456 
Q 1403 1338 1403 1106 
Q 1403 894 1545 773 
Q 1688 653 1941 653 
Q 2256 653 2472 879 
Q 2688 1106 2688 1447 
L 2688 1575 
L 2106 1575 
z
M 3816 1997 
L 3816 0 
L 2688 0 
L 2688 519 
Q 2463 200 2181 54 
Q 1900 -91 1497 -91 
Q 953 -91 614 226 
Q 275 544 275 1050 
Q 275 1666 698 1953 
Q 1122 2241 2028 2241 
L 2688 2241 
L 2688 2328 
Q 2688 2594 2478 2717 
Q 2269 2841 1825 2841 
Q 1466 2841 1156 2769 
Q 847 2697 581 2553 
L 581 3406 
Q 941 3494 1303 3539 
Q 1666 3584 2028 3584 
Q 2975 3584 3395 3211 
Q 3816 2838 3816 1997 
z
" transform="scale(0.015625)"/>
     <path id="DejaVuSans-Bold-72" d="M 3138 2547 
Q 2991 2616 2845 2648 
Q 2700 2681 2553 2681 
Q 2122 2681 1889 2404 
Q 1656 2128 1656 1613 
L 1656 0 
L 538 0 
L 538 3500 
L 1656 3500 
L 1656 2925 
Q 1872 3269 2151 3426 
Q 2431 3584 2822 3584 
Q 2878 3584 2943 3579 
Q 3009 3575 3134 3559 
L 3138 2547 
z
" transform="scale(0.015625)"/>
     <path id="DejaVuSans-Bold-64" d="M 2919 2988 
L 2919 4863 
L 4044 4863 
L 4044 0 
L 2919 0 
L 2919 506 
Q 2688 197 2409 53 
Q 2131 -91 1766 -91 
Q 1119 -91 703 423 
Q 288 938 288 1747 
Q 288 2556 703 3070 
Q 1119 3584 1766 3584 
Q 2128 3584 2408 3439 
Q 2688 3294 2919 2988 
z
M 2181 722 
Q 2541 722 2730 984 
Q 2919 1247 2919 1747 
Q 2919 2247 2730 2509 
Q 2541 2772 2181 2772 
Q 1825 2772 1636 2509 
Q 1447 2247 1447 1747 
Q 1447 1247 1636 984 
Q 1825 722 2181 722 
z
" transform="scale(0.015625)"/>
     <path id="DejaVuSans-Bold-73" d="M 3272 3391 
L 3272 2541 
Q 2913 2691 2578 2766 
Q 2244 2841 1947 2841 
Q 1628 2841 1473 2761 
Q 1319 2681 1319 2516 
Q 1319 2381 1436 2309 
Q 1553 2238 1856 2203 
L 2053 2175 
Q 2913 2066 3209 1816 
Q 3506 1566 3506 1031 
Q 3506 472 3093 190 
Q 2681 -91 1863 -91 
Q 1516 -91 1145 -36 
Q 775 19 384 128 
L 384 978 
Q 719 816 1070 734 
Q 1422 653 1784 653 
Q 2113 653 2278 743 
Q 2444 834 2444 1013 
Q 2444 1163 2330 1236 
Q 2216 1309 1875 1350 
L 1678 1375 
Q 931 1469 631 1722 
Q 331 1975 331 2491 
Q 331 3047 712 3315 
Q 1094 3584 1881 3584 
Q 2191 3584 2531 3537 
Q 2872 3491 3272 3391 
z
" transform="scale(0.015625)"/>
     <path id="DejaVuSans-Bold-3a" d="M 716 3500 
L 1844 3500 
L 1844 2291 
L 716 2291 
L 716 3500 
z
M 716 1209 
L 1844 1209 
L 1844 0 
L 716 0 
L 716 1209 
z
" transform="scale(0.015625)"/>
     <path id="DejaVuSans-Bold-20" transform="scale(0.015625)"/>
     <path id="DejaVuSans-Bold-50" d="M 588 4666 
L 2584 4666 
Q 3475 4666 3951 4270 
Q 4428 3875 4428 3144 
Q 4428 2409 3951 2014 
Q 3475 1619 2584 1619 
L 1791 1619 
L 1791 0 
L 588 0 
L 588 4666 
z
M 1791 3794 
L 1791 2491 
L 2456 2491 
Q 2806 2491 2997 2661 
Q 3188 2831 3188 3144 
Q 3188 3456 2997 3625 
Q 2806 3794 2456 3794 
L 1791 3794 
z
" transform="scale(0.015625)"/>
     <path id="DejaVuSans-Bold-6e" d="M 4056 2131 
L 4056 0 
L 2931 0 
L 2931 347 
L 2931 1631 
Q 2931 2084 2911 2256 
Q 2891 2428 2841 2509 
Q 2775 2619 2662 2680 
Q 2550 2741 2406 2741 
Q 2056 2741 1856 2470 
Q 1656 2200 1656 1722 
L 1656 0 
L 538 0 
L 538 3500 
L 1656 3500 
L 1656 2988 
Q 1909 3294 2193 3439 
Q 2478 3584 2822 3584 
Q 3428 3584 3742 3212 
Q 4056 2841 4056 2131 
z
" transform="scale(0.015625)"/>
     <path id="DejaVuSans-Bold-75" d="M 500 1363 
L 500 3500 
L 1625 3500 
L 1625 3150 
Q 1625 2866 1622 2436 
Q 1619 2006 1619 1863 
Q 1619 1441 1641 1255 
Q 1663 1069 1716 984 
Q 1784 875 1895 815 
Q 2006 756 2150 756 
Q 2500 756 2700 1025 
Q 2900 1294 2900 1772 
L 2900 3500 
L 4019 3500 
L 4019 0 
L 2900 0 
L 2900 506 
Q 2647 200 2364 54 
Q 2081 -91 1741 -91 
Q 1134 -91 817 281 
Q 500 653 500 1363 
z
" transform="scale(0.015625)"/>
     <path id="DejaVuSans-Bold-6c" d="M 538 4863 
L 1656 4863 
L 1656 0 
L 538 0 
L 538 4863 
z
" transform="scale(0.015625)"/>
     <path id="DejaVuSans-Bold-6d" d="M 3781 2919 
Q 3994 3244 4286 3414 
Q 4578 3584 4928 3584 
Q 5531 3584 5847 3212 
Q 6163 2841 6163 2131 
L 6163 0 
L 5038 0 
L 5038 1825 
Q 5041 1866 5042 1909 
Q 5044 1953 5044 2034 
Q 5044 2406 4934 2573 
Q 4825 2741 4581 2741 
Q 4263 2741 4089 2478 
Q 3916 2216 3909 1719 
L 3909 0 
L 2784 0 
L 2784 1825 
Q 2784 2406 2684 2573 
Q 2584 2741 2328 2741 
Q 2006 2741 1831 2477 
Q 1656 2213 1656 1722 
L 1656 0 
L 531 0 
L 531 3500 
L 1656 3500 
L 1656 2988 
Q 1863 3284 2130 3434 
Q 2397 3584 2719 3584 
Q 3081 3584 3359 3409 
Q 3638 3234 3781 2919 
z
" transform="scale(0.015625)"/>
     <path id="DejaVuSans-Bold-2d" d="M 347 2297 
L 2309 2297 
L 2309 1388 
L 347 1388 
L 347 2297 
z
" transform="scale(0.015625)"/>
     <path id="DejaVuSans-Bold-76" d="M 97 3500 
L 1216 3500 
L 2088 1081 
L 2956 3500 
L 4078 3500 
L 2700 0 
L 1472 0 
L 97 3500 
z
" transform="scale(0.015625)"/>
     <path id="DejaVuSans-Bold-31" d="M 750 831 
L 1813 831 
L 1813 3847 
L 722 3622 
L 722 4441 
L 1806 4666 
L 2950 4666 
L 2950 831 
L 4013 831 
L 4013 0 
L 750 0 
L 750 831 
z
" transform="scale(0.015625)"/>
     <path id="DejaVuSans-Bold-28" d="M 2413 -844 
L 1484 -844 
Q 1006 -72 778 623 
Q 550 1319 550 2003 
Q 550 2688 779 3389 
Q 1009 4091 1484 4856 
L 2413 4856 
Q 2013 4116 1813 3408 
Q 1613 2700 1613 2009 
Q 1613 1319 1811 609 
Q 2009 -100 2413 -844 
z
" transform="scale(0.015625)"/>
     <path id="DejaVuSans-Bold-44" d="M 1791 3756 
L 1791 909 
L 2222 909 
Q 2959 909 3348 1275 
Q 3738 1641 3738 2338 
Q 3738 3031 3350 3393 
Q 2963 3756 2222 3756 
L 1791 3756 
z
M 588 4666 
L 1856 4666 
Q 2919 4666 3439 4514 
Q 3959 4363 4331 4000 
Q 4659 3684 4818 3271 
Q 4978 2859 4978 2338 
Q 4978 1809 4818 1395 
Q 4659 981 4331 666 
Q 3956 303 3431 151 
Q 2906 0 1856 0 
L 588 0 
L 588 4666 
z
" transform="scale(0.015625)"/>
     <path id="DejaVuSans-Bold-69" d="M 538 3500 
L 1656 3500 
L 1656 0 
L 538 0 
L 538 3500 
z
M 538 4863 
L 1656 4863 
L 1656 3950 
L 538 3950 
L 538 4863 
z
" transform="scale(0.015625)"/>
     <path id="DejaVuSans-Bold-63" d="M 3366 3391 
L 3366 2478 
Q 3138 2634 2908 2709 
Q 2678 2784 2431 2784 
Q 1963 2784 1702 2511 
Q 1441 2238 1441 1747 
Q 1441 1256 1702 982 
Q 1963 709 2431 709 
Q 2694 709 2930 787 
Q 3166 866 3366 1019 
L 3366 103 
Q 3103 6 2833 -42 
Q 2563 -91 2291 -91 
Q 1344 -91 809 395 
Q 275 881 275 1747 
Q 275 2613 809 3098 
Q 1344 3584 2291 3584 
Q 2566 3584 2833 3536 
Q 3100 3488 3366 3391 
z
" transform="scale(0.015625)"/>
     <path id="DejaVuSans-Bold-74" d="M 1759 4494 
L 1759 3500 
L 2913 3500 
L 2913 2700 
L 1759 2700 
L 1759 1216 
Q 1759 972 1856 886 
Q 1953 800 2241 800 
L 2816 800 
L 2816 0 
L 1856 0 
Q 1194 0 917 276 
Q 641 553 641 1216 
L 641 2700 
L 84 2700 
L 84 3500 
L 641 3500 
L 641 4494 
L 1759 4494 
z
" transform="scale(0.015625)"/>
     <path id="DejaVuSans-Bold-7a" d="M 366 3500 
L 3419 3500 
L 3419 2719 
L 1575 800 
L 3419 800 
L 3419 0 
L 288 0 
L 288 781 
L 2131 2700 
L 366 2700 
L 366 3500 
z
" transform="scale(0.015625)"/>
     <path id="DejaVuSans-Bold-29" d="M 513 -844 
Q 913 -100 1113 609 
Q 1313 1319 1313 2009 
Q 1313 2700 1113 3408 
Q 913 4116 513 4856 
L 1441 4856 
Q 1916 4091 2145 3389 
Q 2375 2688 2375 2003 
Q 2375 1319 2147 623 
Q 1919 -72 1441 -844 
L 513 -844 
z
" transform="scale(0.015625)"/>
     <path id="DejaVuSans-Bold-4c" d="M 588 4666 
L 1791 4666 
L 1791 909 
L 3903 909 
L 3903 0 
L 588 0 
L 588 4666 
z
" transform="scale(0.015625)"/>
     <path id="DejaVuSans-Bold-6f" d="M 2203 2784 
Q 1831 2784 1636 2517 
Q 1441 2250 1441 1747 
Q 1441 1244 1636 976 
Q 1831 709 2203 709 
Q 2569 709 2762 976 
Q 2956 1244 2956 1747 
Q 2956 2250 2762 2517 
Q 2569 2784 2203 2784 
z
M 2203 3584 
Q 3106 3584 3614 3096 
Q 4122 2609 4122 1747 
Q 4122 884 3614 396 
Q 3106 -91 2203 -91 
Q 1297 -91 786 396 
Q 275 884 275 1747 
Q 275 2609 786 3096 
Q 1297 3584 2203 3584 
z
" transform="scale(0.015625)"/>
     <path id="DejaVuSans-Bold-67" d="M 2919 594 
Q 2688 288 2409 144 
Q 2131 0 1766 0 
Q 1125 0 706 504 
Q 288 1009 288 1791 
Q 288 2575 706 3076 
Q 1125 3578 1766 3578 
Q 2131 3578 2409 3434 
Q 2688 3291 2919 2981 
L 2919 3500 
L 4044 3500 
L 4044 353 
Q 4044 -491 3511 -936 
Q 2978 -1381 1966 -1381 
Q 1638 -1381 1331 -1331 
Q 1025 -1281 716 -1178 
L 716 -306 
Q 1009 -475 1290 -558 
Q 1572 -641 1856 -641 
Q 2406 -641 2662 -400 
Q 2919 -159 2919 353 
L 2919 594 
z
M 2181 2772 
Q 1834 2772 1640 2515 
Q 1447 2259 1447 1791 
Q 1447 1309 1634 1061 
Q 1822 813 2181 813 
Q 2531 813 2725 1069 
Q 2919 1325 2919 1791 
Q 2919 2259 2725 2515 
Q 2531 2772 2181 2772 
z
" transform="scale(0.015625)"/>
     <path id="DejaVuSans-Bold-42" d="M 2456 2859 
Q 2741 2859 2887 2984 
Q 3034 3109 3034 3353 
Q 3034 3594 2887 3720 
Q 2741 3847 2456 3847 
L 1791 3847 
L 1791 2859 
L 2456 2859 
z
M 2497 819 
Q 2859 819 3042 972 
Q 3225 1125 3225 1434 
Q 3225 1738 3044 1889 
Q 2863 2041 2497 2041 
L 1791 2041 
L 1791 819 
L 2497 819 
z
M 3616 2497 
Q 4003 2384 4215 2081 
Q 4428 1778 4428 1338 
Q 4428 663 3972 331 
Q 3516 0 2584 0 
L 588 0 
L 588 4666 
L 2394 4666 
Q 3366 4666 3802 4372 
Q 4238 4078 4238 3431 
Q 4238 3091 4078 2852 
Q 3919 2613 3616 2497 
z
" transform="scale(0.015625)"/>
     <path id="DejaVuSans-Bold-4e" d="M 588 4666 
L 1931 4666 
L 3628 1466 
L 3628 4666 
L 4769 4666 
L 4769 0 
L 3425 0 
L 1728 3200 
L 1728 0 
L 588 0 
L 588 4666 
z
" transform="scale(0.015625)"/>
    </defs>
    <use xlink:href="#DejaVuSans-Bold-52"/>
    <use xlink:href="#DejaVuSans-Bold-65" transform="translate(77.001953 0)"/>
    <use xlink:href="#DejaVuSans-Bold-77" transform="translate(144.824219 0)"/>
    <use xlink:href="#DejaVuSans-Bold-61" transform="translate(237.207031 0)"/>
    <use xlink:href="#DejaVuSans-Bold-72" transform="translate(304.6875 0)"/>
    <use xlink:href="#DejaVuSans-Bold-64" transform="translate(354.003906 0)"/>
    <use xlink:href="#DejaVuSans-Bold-73" transform="translate(425.585938 0)"/>
    <use xlink:href="#DejaVuSans-Bold-3a" transform="translate(485.107422 0)"/>
    <use xlink:href="#DejaVuSans-Bold-20" transform="translate(525.097656 0)"/>
    <use xlink:href="#DejaVuSans-Bold-50" transform="translate(559.912109 0)"/>
    <use xlink:href="#DejaVuSans-Bold-65" transform="translate(633.203125 0)"/>
    <use xlink:href="#DejaVuSans-Bold-6e" transform="translate(701.025391 0)"/>
    <use xlink:href="#DejaVuSans-Bold-64" transform="translate(772.216797 0)"/>
    <use xlink:href="#DejaVuSans-Bold-75" transform="translate(843.798828 0)"/>
    <use xlink:href="#DejaVuSans-Bold-6c" transform="translate(914.990234 0)"/>
    <use xlink:href="#DejaVuSans-Bold-75" transform="translate(949.267578 0)"/>
    <use xlink:href="#DejaVuSans-Bold-6d" transform="translate(1020.458984 0)"/>
    <use xlink:href="#DejaVuSans-Bold-2d" transform="translate(1124.658203 0)"/>
    <use xlink:href="#DejaVuSans-Bold-76" transform="translate(1166.162109 0)"/>
    <use xlink:href="#DejaVuSans-Bold-31" transform="translate(1231.347656 0)"/>
    <use xlink:href="#DejaVuSans-Bold-20" transform="translate(1300.927734 0)"/>
    <use xlink:href="#DejaVuSans-Bold-28" transform="translate(1335.742188 0)"/>
    <use xlink:href="#DejaVuSans-Bold-44" transform="translate(1381.445312 0)"/>
    <use xlink:href="#DejaVuSans-Bold-69" transform="translate(1464.453125 0)"/>
    <use xlink:href="#DejaVuSans-Bold-73" transform="translate(1498.730469 0)"/>
    <use xlink:href="#DejaVuSans-Bold-63" transform="translate(1558.251953 0)"/>
    <use xlink:href="#DejaVuSans-Bold-72" transform="translate(1617.529297 0)"/>
    <use xlink:href="#DejaVuSans-Bold-65" transform="translate(1666.845703 0)"/>
    <use xlink:href="#DejaVuSans-Bold-74" transform="translate(1734.667969 0)"/>
    <use xlink:href="#DejaVuSans-Bold-69" transform="translate(1782.470703 0)"/>
    <use xlink:href="#DejaVuSans-Bold-7a" transform="translate(1816.748047 0)"/>
    <use xlink:href="#DejaVuSans-Bold-65" transform="translate(1874.951172 0)"/>
    <use xlink:href="#DejaVuSans-Bold-64" transform="translate(1942.773438 0)"/>
    <use xlink:href="#DejaVuSans-Bold-29" transform="translate(2014.355469 0)"/>
    <use xlink:href="#DejaVuSans-Bold-20" transform="translate(2060.058594 0)"/>
    <use xlink:href="#DejaVuSans-Bold-2d" transform="translate(2094.873047 0)"/>
    <use xlink:href="#DejaVuSans-Bold-20" transform="translate(2136.376953 0)"/>
    <use xlink:href="#DejaVuSans-Bold-4c" transform="translate(2171.191406 0)"/>
    <use xlink:href="#DejaVuSans-Bold-6f" transform="translate(2234.912109 0)"/>
    <use xlink:href="#DejaVuSans-Bold-67" transform="translate(2303.613281 0)"/>
    <use xlink:href="#DejaVuSans-Bold-69" transform="translate(2375.195312 0)"/>
    <use xlink:href="#DejaVuSans-Bold-74" transform="translate(2409.472656 0)"/>
    <use xlink:href="#DejaVuSans-Bold-73" transform="translate(2457.275391 0)"/>
    <use xlink:href="#DejaVuSans-Bold-20" transform="translate(2516.796875 0)"/>
    <use xlink:href="#DejaVuSans-Bold-28" transform="translate(2551.611328 0)"/>
    <use xlink:href="#DejaVuSans-Bold-42" transform="translate(2597.314453 0)"/>
    <use xlink:href="#DejaVuSans-Bold-61" transform="translate(2673.535156 0)"/>
    <use xlink:href="#DejaVuSans-Bold-73" transform="translate(2741.015625 0)"/>
    <use xlink:href="#DejaVuSans-Bold-65" transform="translate(2800.537109 0)"/>
    <use xlink:href="#DejaVuSans-Bold-6c" transform="translate(2868.359375 0)"/>
    <use xlink:href="#DejaVuSans-Bold-69" transform="translate(2902.636719 0)"/>
    <use xlink:href="#DejaVuSans-Bold-6e" transform="translate(2936.914062 0)"/>
    <use xlink:href="#DejaVuSans-Bold-65" transform="translate(3008.105469 0)"/>
    <use xlink:href="#DejaVuSans-Bold-29" transform="translate(3075.927734 0)"/>
    <use xlink:href="#DejaVuSans-Bold-20" transform="translate(3121.630859 0)"/>
    <use xlink:href="#DejaVuSans-Bold-28" transform="translate(3156.445312 0)"/>
    <use xlink:href="#DejaVuSans-Bold-4e" transform="translate(3202.148438 0)"/>
    <use xlink:href="#DejaVuSans-Bold-6f" transform="translate(3285.839844 0)"/>
    <use xlink:href="#DejaVuSans-Bold-69" transform="translate(3354.541016 0)"/>
    <use xlink:href="#DejaVuSans-Bold-73" transform="translate(3388.818359 0)"/>
    <use xlink:href="#DejaVuSans-Bold-65" transform="translate(3448.339844 0)"/>
    <use xlink:href="#DejaVuSans-Bold-29" transform="translate(3516.162109 0)"/>
   </g>
  </g>
 </g>
 <defs>
  <clipPath id="p29f471cdd3">
   <rect x="65.63" y="57.0062" width="566.575" height="333.0338"/>
  </clipPath>
 </defs>
</svg>
