<?xml version="1.0" encoding="utf-8" standalone="no"?>
<!DOCTYPE svg PUBLIC "-//W3C//DTD SVG 1.1//EN"
  "http://www.w3.org/Graphics/SVG/1.1/DTD/svg11.dtd">
<svg xmlns:xlink="http://www.w3.org/1999/xlink" width="648pt" height="432pt" viewBox="0 0 648 432" xmlns="http://www.w3.org/2000/svg" version="1.1">
 <metadata>
  <rdf:RDF xmlns:dc="http://purl.org/dc/elements/1.1/" xmlns:cc="http://creativecommons.org/ns#" xmlns:rdf="http://www.w3.org/1999/02/22-rdf-syntax-ns#">
   <cc:Work>
    <dc:type rdf:resource="http://purl.org/dc/dcmitype/StillImage"/>
    <dc:date>2025-07-18T15:35:15.805681</dc:date>
    <dc:format>image/svg+xml</dc:format>
    <dc:creator>
     <cc:Agent>
      <dc:title>Matplotlib v3.10.0, https://matplotlib.org/</dc:title>
     </cc:Agent>
    </dc:creator>
   </cc:Work>
  </rdf:RDF>
 </metadata>
 <defs>
  <style type="text/css">*{stroke-linejoin: round; stroke-linecap: butt}</style>
 </defs>
 <g id="figure_1">
  <g id="patch_1">
   <path d="M 0 432 
L 648 432 
L 648 0 
L 0 0 
z
" style="fill: #ffffff"/>
  </g>
  <g id="axes_1">
   <g id="patch_2">
    <path d="M 50.87 390.04 
L 630.02765 390.04 
L 630.02765 57.0062 
L 50.87 57.0062 
z
" style="fill: #eaeaf2"/>
   </g>
   <g id="matplotlib.axis_1">
    <g id="xtick_1">
     <g id="line2d_1">
      <path d="M 50.872828 390.04 
L 50.872828 57.0062 
" clip-path="url(#pa3b9a63e53)" style="fill: none; stroke: #ffffff; stroke-width: 0.8; stroke-linecap: round"/>
     </g>
     <g id="text_1">
      <!-- 0 -->
      <g style="fill: #262626" transform="translate(47.691578 404.638438) scale(0.1 -0.1)">
       <defs>
        <path id="DejaVuSans-30" d="M 2034 4250 
Q 1547 4250 1301 3770 
Q 1056 3291 1056 2328 
Q 1056 1369 1301 889 
Q 1547 409 2034 409 
Q 2525 409 2770 889 
Q 3016 1369 3016 2328 
Q 3016 3291 2770 3770 
Q 2525 4250 2034 4250 
z
M 2034 4750 
Q 2819 4750 3233 4129 
Q 3647 3509 3647 2328 
Q 3647 1150 3233 529 
Q 2819 -91 2034 -91 
Q 1250 -91 836 529 
Q 422 1150 422 2328 
Q 422 3509 836 4129 
Q 1250 4750 2034 4750 
z
" transform="scale(0.015625)"/>
       </defs>
       <use xlink:href="#DejaVuSans-30"/>
      </g>
     </g>
    </g>
    <g id="xtick_2">
     <g id="line2d_2">
      <path d="M 145.135848 390.04 
L 145.135848 57.0062 
" clip-path="url(#pa3b9a63e53)" style="fill: none; stroke: #ffffff; stroke-width: 0.8; stroke-linecap: round"/>
     </g>
     <g id="text_2">
      <!-- 100000 -->
      <g style="fill: #262626" transform="translate(126.048348 404.638438) scale(0.1 -0.1)">
       <defs>
        <path id="DejaVuSans-31" d="M 794 531 
L 1825 531 
L 1825 4091 
L 703 3866 
L 703 4441 
L 1819 4666 
L 2450 4666 
L 2450 531 
L 3481 531 
L 3481 0 
L 794 0 
L 794 531 
z
" transform="scale(0.015625)"/>
       </defs>
       <use xlink:href="#DejaVuSans-31"/>
       <use xlink:href="#DejaVuSans-30" transform="translate(63.623047 0)"/>
       <use xlink:href="#DejaVuSans-30" transform="translate(127.246094 0)"/>
       <use xlink:href="#DejaVuSans-30" transform="translate(190.869141 0)"/>
       <use xlink:href="#DejaVuSans-30" transform="translate(254.492188 0)"/>
       <use xlink:href="#DejaVuSans-30" transform="translate(318.115234 0)"/>
      </g>
     </g>
    </g>
    <g id="xtick_3">
     <g id="line2d_3">
      <path d="M 239.398868 390.04 
L 239.398868 57.0062 
" clip-path="url(#pa3b9a63e53)" style="fill: none; stroke: #ffffff; stroke-width: 0.8; stroke-linecap: round"/>
     </g>
     <g id="text_3">
      <!-- 200000 -->
      <g style="fill: #262626" transform="translate(220.311368 404.638438) scale(0.1 -0.1)">
       <defs>
        <path id="DejaVuSans-32" d="M 1228 531 
L 3431 531 
L 3431 0 
L 469 0 
L 469 531 
Q 828 903 1448 1529 
Q 2069 2156 2228 2338 
Q 2531 2678 2651 2914 
Q 2772 3150 2772 3378 
Q 2772 3750 2511 3984 
Q 2250 4219 1831 4219 
Q 1534 4219 1204 4116 
Q 875 4013 500 3803 
L 500 4441 
Q 881 4594 1212 4672 
Q 1544 4750 1819 4750 
Q 2544 4750 2975 4387 
Q 3406 4025 3406 3419 
Q 3406 3131 3298 2873 
Q 3191 2616 2906 2266 
Q 2828 2175 2409 1742 
Q 1991 1309 1228 531 
z
" transform="scale(0.015625)"/>
       </defs>
       <use xlink:href="#DejaVuSans-32"/>
       <use xlink:href="#DejaVuSans-30" transform="translate(63.623047 0)"/>
       <use xlink:href="#DejaVuSans-30" transform="translate(127.246094 0)"/>
       <use xlink:href="#DejaVuSans-30" transform="translate(190.869141 0)"/>
       <use xlink:href="#DejaVuSans-30" transform="translate(254.492188 0)"/>
       <use xlink:href="#DejaVuSans-30" transform="translate(318.115234 0)"/>
      </g>
     </g>
    </g>
    <g id="xtick_4">
     <g id="line2d_4">
      <path d="M 333.661887 390.04 
L 333.661887 57.0062 
" clip-path="url(#pa3b9a63e53)" style="fill: none; stroke: #ffffff; stroke-width: 0.8; stroke-linecap: round"/>
     </g>
     <g id="text_4">
      <!-- 300000 -->
      <g style="fill: #262626" transform="translate(314.574387 404.638438) scale(0.1 -0.1)">
       <defs>
        <path id="DejaVuSans-33" d="M 2597 2516 
Q 3050 2419 3304 2112 
Q 3559 1806 3559 1356 
Q 3559 666 3084 287 
Q 2609 -91 1734 -91 
Q 1441 -91 1130 -33 
Q 819 25 488 141 
L 488 750 
Q 750 597 1062 519 
Q 1375 441 1716 441 
Q 2309 441 2620 675 
Q 2931 909 2931 1356 
Q 2931 1769 2642 2001 
Q 2353 2234 1838 2234 
L 1294 2234 
L 1294 2753 
L 1863 2753 
Q 2328 2753 2575 2939 
Q 2822 3125 2822 3475 
Q 2822 3834 2567 4026 
Q 2313 4219 1838 4219 
Q 1578 4219 1281 4162 
Q 984 4106 628 3988 
L 628 4550 
Q 988 4650 1302 4700 
Q 1616 4750 1894 4750 
Q 2613 4750 3031 4423 
Q 3450 4097 3450 3541 
Q 3450 3153 3228 2886 
Q 3006 2619 2597 2516 
z
" transform="scale(0.015625)"/>
       </defs>
       <use xlink:href="#DejaVuSans-33"/>
       <use xlink:href="#DejaVuSans-30" transform="translate(63.623047 0)"/>
       <use xlink:href="#DejaVuSans-30" transform="translate(127.246094 0)"/>
       <use xlink:href="#DejaVuSans-30" transform="translate(190.869141 0)"/>
       <use xlink:href="#DejaVuSans-30" transform="translate(254.492188 0)"/>
       <use xlink:href="#DejaVuSans-30" transform="translate(318.115234 0)"/>
      </g>
     </g>
    </g>
    <g id="xtick_5">
     <g id="line2d_5">
      <path d="M 427.924907 390.04 
L 427.924907 57.0062 
" clip-path="url(#pa3b9a63e53)" style="fill: none; stroke: #ffffff; stroke-width: 0.8; stroke-linecap: round"/>
     </g>
     <g id="text_5">
      <!-- 400000 -->
      <g style="fill: #262626" transform="translate(408.837407 404.638438) scale(0.1 -0.1)">
       <defs>
        <path id="DejaVuSans-34" d="M 2419 4116 
L 825 1625 
L 2419 1625 
L 2419 4116 
z
M 2253 4666 
L 3047 4666 
L 3047 1625 
L 3713 1625 
L 3713 1100 
L 3047 1100 
L 3047 0 
L 2419 0 
L 2419 1100 
L 313 1100 
L 313 1709 
L 2253 4666 
z
" transform="scale(0.015625)"/>
       </defs>
       <use xlink:href="#DejaVuSans-34"/>
       <use xlink:href="#DejaVuSans-30" transform="translate(63.623047 0)"/>
       <use xlink:href="#DejaVuSans-30" transform="translate(127.246094 0)"/>
       <use xlink:href="#DejaVuSans-30" transform="translate(190.869141 0)"/>
       <use xlink:href="#DejaVuSans-30" transform="translate(254.492188 0)"/>
       <use xlink:href="#DejaVuSans-30" transform="translate(318.115234 0)"/>
      </g>
     </g>
    </g>
    <g id="xtick_6">
     <g id="line2d_6">
      <path d="M 522.187927 390.04 
L 522.187927 57.0062 
" clip-path="url(#pa3b9a63e53)" style="fill: none; stroke: #ffffff; stroke-width: 0.8; stroke-linecap: round"/>
     </g>
     <g id="text_6">
      <!-- 500000 -->
      <g style="fill: #262626" transform="translate(503.100427 404.638438) scale(0.1 -0.1)">
       <defs>
        <path id="DejaVuSans-35" d="M 691 4666 
L 3169 4666 
L 3169 4134 
L 1269 4134 
L 1269 2991 
Q 1406 3038 1543 3061 
Q 1681 3084 1819 3084 
Q 2600 3084 3056 2656 
Q 3513 2228 3513 1497 
Q 3513 744 3044 326 
Q 2575 -91 1722 -91 
Q 1428 -91 1123 -41 
Q 819 9 494 109 
L 494 744 
Q 775 591 1075 516 
Q 1375 441 1709 441 
Q 2250 441 2565 725 
Q 2881 1009 2881 1497 
Q 2881 1984 2565 2268 
Q 2250 2553 1709 2553 
Q 1456 2553 1204 2497 
Q 953 2441 691 2322 
L 691 4666 
z
" transform="scale(0.015625)"/>
       </defs>
       <use xlink:href="#DejaVuSans-35"/>
       <use xlink:href="#DejaVuSans-30" transform="translate(63.623047 0)"/>
       <use xlink:href="#DejaVuSans-30" transform="translate(127.246094 0)"/>
       <use xlink:href="#DejaVuSans-30" transform="translate(190.869141 0)"/>
       <use xlink:href="#DejaVuSans-30" transform="translate(254.492188 0)"/>
       <use xlink:href="#DejaVuSans-30" transform="translate(318.115234 0)"/>
      </g>
     </g>
    </g>
    <g id="xtick_7">
     <g id="line2d_7">
      <path d="M 616.450947 390.04 
L 616.450947 57.0062 
" clip-path="url(#pa3b9a63e53)" style="fill: none; stroke: #ffffff; stroke-width: 0.8; stroke-linecap: round"/>
     </g>
     <g id="text_7">
      <!-- 600000 -->
      <g style="fill: #262626" transform="translate(597.363447 404.638438) scale(0.1 -0.1)">
       <defs>
        <path id="DejaVuSans-36" d="M 2113 2584 
Q 1688 2584 1439 2293 
Q 1191 2003 1191 1497 
Q 1191 994 1439 701 
Q 1688 409 2113 409 
Q 2538 409 2786 701 
Q 3034 994 3034 1497 
Q 3034 2003 2786 2293 
Q 2538 2584 2113 2584 
z
M 3366 4563 
L 3366 3988 
Q 3128 4100 2886 4159 
Q 2644 4219 2406 4219 
Q 1781 4219 1451 3797 
Q 1122 3375 1075 2522 
Q 1259 2794 1537 2939 
Q 1816 3084 2150 3084 
Q 2853 3084 3261 2657 
Q 3669 2231 3669 1497 
Q 3669 778 3244 343 
Q 2819 -91 2113 -91 
Q 1303 -91 875 529 
Q 447 1150 447 2328 
Q 447 3434 972 4092 
Q 1497 4750 2381 4750 
Q 2619 4750 2861 4703 
Q 3103 4656 3366 4563 
z
" transform="scale(0.015625)"/>
       </defs>
       <use xlink:href="#DejaVuSans-36"/>
       <use xlink:href="#DejaVuSans-30" transform="translate(63.623047 0)"/>
       <use xlink:href="#DejaVuSans-30" transform="translate(127.246094 0)"/>
       <use xlink:href="#DejaVuSans-30" transform="translate(190.869141 0)"/>
       <use xlink:href="#DejaVuSans-30" transform="translate(254.492188 0)"/>
       <use xlink:href="#DejaVuSans-30" transform="translate(318.115234 0)"/>
      </g>
     </g>
    </g>
    <g id="text_8">
     <!-- Steps -->
     <g style="fill: #262626" transform="translate(326.458981 418.316562) scale(0.1 -0.1)">
      <defs>
       <path id="DejaVuSans-53" d="M 3425 4513 
L 3425 3897 
Q 3066 4069 2747 4153 
Q 2428 4238 2131 4238 
Q 1616 4238 1336 4038 
Q 1056 3838 1056 3469 
Q 1056 3159 1242 3001 
Q 1428 2844 1947 2747 
L 2328 2669 
Q 3034 2534 3370 2195 
Q 3706 1856 3706 1288 
Q 3706 609 3251 259 
Q 2797 -91 1919 -91 
Q 1588 -91 1214 -16 
Q 841 59 441 206 
L 441 856 
Q 825 641 1194 531 
Q 1563 422 1919 422 
Q 2459 422 2753 634 
Q 3047 847 3047 1241 
Q 3047 1584 2836 1778 
Q 2625 1972 2144 2069 
L 1759 2144 
Q 1053 2284 737 2584 
Q 422 2884 422 3419 
Q 422 4038 858 4394 
Q 1294 4750 2059 4750 
Q 2388 4750 2728 4690 
Q 3069 4631 3425 4513 
z
" transform="scale(0.015625)"/>
       <path id="DejaVuSans-74" d="M 1172 4494 
L 1172 3500 
L 2356 3500 
L 2356 3053 
L 1172 3053 
L 1172 1153 
Q 1172 725 1289 603 
Q 1406 481 1766 481 
L 2356 481 
L 2356 0 
L 1766 0 
Q 1100 0 847 248 
Q 594 497 594 1153 
L 594 3053 
L 172 3053 
L 172 3500 
L 594 3500 
L 594 4494 
L 1172 4494 
z
" transform="scale(0.015625)"/>
       <path id="DejaVuSans-65" d="M 3597 1894 
L 3597 1613 
L 953 1613 
Q 991 1019 1311 708 
Q 1631 397 2203 397 
Q 2534 397 2845 478 
Q 3156 559 3463 722 
L 3463 178 
Q 3153 47 2828 -22 
Q 2503 -91 2169 -91 
Q 1331 -91 842 396 
Q 353 884 353 1716 
Q 353 2575 817 3079 
Q 1281 3584 2069 3584 
Q 2775 3584 3186 3129 
Q 3597 2675 3597 1894 
z
M 3022 2063 
Q 3016 2534 2758 2815 
Q 2500 3097 2075 3097 
Q 1594 3097 1305 2825 
Q 1016 2553 972 2059 
L 3022 2063 
z
" transform="scale(0.015625)"/>
       <path id="DejaVuSans-70" d="M 1159 525 
L 1159 -1331 
L 581 -1331 
L 581 3500 
L 1159 3500 
L 1159 2969 
Q 1341 3281 1617 3432 
Q 1894 3584 2278 3584 
Q 2916 3584 3314 3078 
Q 3713 2572 3713 1747 
Q 3713 922 3314 415 
Q 2916 -91 2278 -91 
Q 1894 -91 1617 61 
Q 1341 213 1159 525 
z
M 3116 1747 
Q 3116 2381 2855 2742 
Q 2594 3103 2138 3103 
Q 1681 3103 1420 2742 
Q 1159 2381 1159 1747 
Q 1159 1113 1420 752 
Q 1681 391 2138 391 
Q 2594 391 2855 752 
Q 3116 1113 3116 1747 
z
" transform="scale(0.015625)"/>
       <path id="DejaVuSans-73" d="M 2834 3397 
L 2834 2853 
Q 2591 2978 2328 3040 
Q 2066 3103 1784 3103 
Q 1356 3103 1142 2972 
Q 928 2841 928 2578 
Q 928 2378 1081 2264 
Q 1234 2150 1697 2047 
L 1894 2003 
Q 2506 1872 2764 1633 
Q 3022 1394 3022 966 
Q 3022 478 2636 193 
Q 2250 -91 1575 -91 
Q 1294 -91 989 -36 
Q 684 19 347 128 
L 347 722 
Q 666 556 975 473 
Q 1284 391 1588 391 
Q 1994 391 2212 530 
Q 2431 669 2431 922 
Q 2431 1156 2273 1281 
Q 2116 1406 1581 1522 
L 1381 1569 
Q 847 1681 609 1914 
Q 372 2147 372 2553 
Q 372 3047 722 3315 
Q 1072 3584 1716 3584 
Q 2034 3584 2315 3537 
Q 2597 3491 2834 3397 
z
" transform="scale(0.015625)"/>
      </defs>
      <use xlink:href="#DejaVuSans-53"/>
      <use xlink:href="#DejaVuSans-74" transform="translate(63.476562 0)"/>
      <use xlink:href="#DejaVuSans-65" transform="translate(102.685547 0)"/>
      <use xlink:href="#DejaVuSans-70" transform="translate(164.208984 0)"/>
      <use xlink:href="#DejaVuSans-73" transform="translate(227.685547 0)"/>
     </g>
    </g>
   </g>
   <g id="matplotlib.axis_2">
    <g id="ytick_1">
     <g id="line2d_8">
      <path d="M 50.87 390.04 
L 630.02765 390.04 
" clip-path="url(#pa3b9a63e53)" style="fill: none; stroke: #ffffff; stroke-width: 0.8; stroke-linecap: round"/>
     </g>
     <g id="text_9">
      <!-- 0 -->
      <g style="fill: #262626" transform="translate(37.5075 393.839219) scale(0.1 -0.1)">
       <use xlink:href="#DejaVuSans-30"/>
      </g>
     </g>
    </g>
    <g id="ytick_2">
     <g id="line2d_9">
      <path d="M 50.87 358.017519 
L 630.02765 358.017519 
" clip-path="url(#pa3b9a63e53)" style="fill: none; stroke: #ffffff; stroke-width: 0.8; stroke-linecap: round"/>
     </g>
     <g id="text_10">
      <!-- 50 -->
      <g style="fill: #262626" transform="translate(31.145 361.816738) scale(0.1 -0.1)">
       <use xlink:href="#DejaVuSans-35"/>
       <use xlink:href="#DejaVuSans-30" transform="translate(63.623047 0)"/>
      </g>
     </g>
    </g>
    <g id="ytick_3">
     <g id="line2d_10">
      <path d="M 50.87 325.995038 
L 630.02765 325.995038 
" clip-path="url(#pa3b9a63e53)" style="fill: none; stroke: #ffffff; stroke-width: 0.8; stroke-linecap: round"/>
     </g>
     <g id="text_11">
      <!-- 100 -->
      <g style="fill: #262626" transform="translate(24.7825 329.794257) scale(0.1 -0.1)">
       <use xlink:href="#DejaVuSans-31"/>
       <use xlink:href="#DejaVuSans-30" transform="translate(63.623047 0)"/>
       <use xlink:href="#DejaVuSans-30" transform="translate(127.246094 0)"/>
      </g>
     </g>
    </g>
    <g id="ytick_4">
     <g id="line2d_11">
      <path d="M 50.87 293.972558 
L 630.02765 293.972558 
" clip-path="url(#pa3b9a63e53)" style="fill: none; stroke: #ffffff; stroke-width: 0.8; stroke-linecap: round"/>
     </g>
     <g id="text_12">
      <!-- 150 -->
      <g style="fill: #262626" transform="translate(24.7825 297.771776) scale(0.1 -0.1)">
       <use xlink:href="#DejaVuSans-31"/>
       <use xlink:href="#DejaVuSans-35" transform="translate(63.623047 0)"/>
       <use xlink:href="#DejaVuSans-30" transform="translate(127.246094 0)"/>
      </g>
     </g>
    </g>
    <g id="ytick_5">
     <g id="line2d_12">
      <path d="M 50.87 261.950077 
L 630.02765 261.950077 
" clip-path="url(#pa3b9a63e53)" style="fill: none; stroke: #ffffff; stroke-width: 0.8; stroke-linecap: round"/>
     </g>
     <g id="text_13">
      <!-- 200 -->
      <g style="fill: #262626" transform="translate(24.7825 265.749296) scale(0.1 -0.1)">
       <use xlink:href="#DejaVuSans-32"/>
       <use xlink:href="#DejaVuSans-30" transform="translate(63.623047 0)"/>
       <use xlink:href="#DejaVuSans-30" transform="translate(127.246094 0)"/>
      </g>
     </g>
    </g>
    <g id="ytick_6">
     <g id="line2d_13">
      <path d="M 50.87 229.927596 
L 630.02765 229.927596 
" clip-path="url(#pa3b9a63e53)" style="fill: none; stroke: #ffffff; stroke-width: 0.8; stroke-linecap: round"/>
     </g>
     <g id="text_14">
      <!-- 250 -->
      <g style="fill: #262626" transform="translate(24.7825 233.726815) scale(0.1 -0.1)">
       <use xlink:href="#DejaVuSans-32"/>
       <use xlink:href="#DejaVuSans-35" transform="translate(63.623047 0)"/>
       <use xlink:href="#DejaVuSans-30" transform="translate(127.246094 0)"/>
      </g>
     </g>
    </g>
    <g id="ytick_7">
     <g id="line2d_14">
      <path d="M 50.87 197.905115 
L 630.02765 197.905115 
" clip-path="url(#pa3b9a63e53)" style="fill: none; stroke: #ffffff; stroke-width: 0.8; stroke-linecap: round"/>
     </g>
     <g id="text_15">
      <!-- 300 -->
      <g style="fill: #262626" transform="translate(24.7825 201.704334) scale(0.1 -0.1)">
       <use xlink:href="#DejaVuSans-33"/>
       <use xlink:href="#DejaVuSans-30" transform="translate(63.623047 0)"/>
       <use xlink:href="#DejaVuSans-30" transform="translate(127.246094 0)"/>
      </g>
     </g>
    </g>
    <g id="ytick_8">
     <g id="line2d_15">
      <path d="M 50.87 165.882635 
L 630.02765 165.882635 
" clip-path="url(#pa3b9a63e53)" style="fill: none; stroke: #ffffff; stroke-width: 0.8; stroke-linecap: round"/>
     </g>
     <g id="text_16">
      <!-- 350 -->
      <g style="fill: #262626" transform="translate(24.7825 169.681853) scale(0.1 -0.1)">
       <use xlink:href="#DejaVuSans-33"/>
       <use xlink:href="#DejaVuSans-35" transform="translate(63.623047 0)"/>
       <use xlink:href="#DejaVuSans-30" transform="translate(127.246094 0)"/>
      </g>
     </g>
    </g>
    <g id="ytick_9">
     <g id="line2d_16">
      <path d="M 50.87 133.860154 
L 630.02765 133.860154 
" clip-path="url(#pa3b9a63e53)" style="fill: none; stroke: #ffffff; stroke-width: 0.8; stroke-linecap: round"/>
     </g>
     <g id="text_17">
      <!-- 400 -->
      <g style="fill: #262626" transform="translate(24.7825 137.659373) scale(0.1 -0.1)">
       <use xlink:href="#DejaVuSans-34"/>
       <use xlink:href="#DejaVuSans-30" transform="translate(63.623047 0)"/>
       <use xlink:href="#DejaVuSans-30" transform="translate(127.246094 0)"/>
      </g>
     </g>
    </g>
    <g id="ytick_10">
     <g id="line2d_17">
      <path d="M 50.87 101.837673 
L 630.02765 101.837673 
" clip-path="url(#pa3b9a63e53)" style="fill: none; stroke: #ffffff; stroke-width: 0.8; stroke-linecap: round"/>
     </g>
     <g id="text_18">
      <!-- 450 -->
      <g style="fill: #262626" transform="translate(24.7825 105.636892) scale(0.1 -0.1)">
       <use xlink:href="#DejaVuSans-34"/>
       <use xlink:href="#DejaVuSans-35" transform="translate(63.623047 0)"/>
       <use xlink:href="#DejaVuSans-30" transform="translate(127.246094 0)"/>
      </g>
     </g>
    </g>
    <g id="ytick_11">
     <g id="line2d_18">
      <path d="M 50.87 69.815192 
L 630.02765 69.815192 
" clip-path="url(#pa3b9a63e53)" style="fill: none; stroke: #ffffff; stroke-width: 0.8; stroke-linecap: round"/>
     </g>
     <g id="text_19">
      <!-- 500 -->
      <g style="fill: #262626" transform="translate(24.7825 73.614411) scale(0.1 -0.1)">
       <use xlink:href="#DejaVuSans-35"/>
       <use xlink:href="#DejaVuSans-30" transform="translate(63.623047 0)"/>
       <use xlink:href="#DejaVuSans-30" transform="translate(127.246094 0)"/>
      </g>
     </g>
    </g>
    <g id="text_20">
     <!-- Reward -->
     <g style="fill: #262626" transform="translate(18.702813 242.144194) rotate(-90) scale(0.1 -0.1)">
      <defs>
       <path id="DejaVuSans-52" d="M 2841 2188 
Q 3044 2119 3236 1894 
Q 3428 1669 3622 1275 
L 4263 0 
L 3584 0 
L 2988 1197 
Q 2756 1666 2539 1819 
Q 2322 1972 1947 1972 
L 1259 1972 
L 1259 0 
L 628 0 
L 628 4666 
L 2053 4666 
Q 2853 4666 3247 4331 
Q 3641 3997 3641 3322 
Q 3641 2881 3436 2590 
Q 3231 2300 2841 2188 
z
M 1259 4147 
L 1259 2491 
L 2053 2491 
Q 2509 2491 2742 2702 
Q 2975 2913 2975 3322 
Q 2975 3731 2742 3939 
Q 2509 4147 2053 4147 
L 1259 4147 
z
" transform="scale(0.015625)"/>
       <path id="DejaVuSans-77" d="M 269 3500 
L 844 3500 
L 1563 769 
L 2278 3500 
L 2956 3500 
L 3675 769 
L 4391 3500 
L 4966 3500 
L 4050 0 
L 3372 0 
L 2619 2869 
L 1863 0 
L 1184 0 
L 269 3500 
z
" transform="scale(0.015625)"/>
       <path id="DejaVuSans-61" d="M 2194 1759 
Q 1497 1759 1228 1600 
Q 959 1441 959 1056 
Q 959 750 1161 570 
Q 1363 391 1709 391 
Q 2188 391 2477 730 
Q 2766 1069 2766 1631 
L 2766 1759 
L 2194 1759 
z
M 3341 1997 
L 3341 0 
L 2766 0 
L 2766 531 
Q 2569 213 2275 61 
Q 1981 -91 1556 -91 
Q 1019 -91 701 211 
Q 384 513 384 1019 
Q 384 1609 779 1909 
Q 1175 2209 1959 2209 
L 2766 2209 
L 2766 2266 
Q 2766 2663 2505 2880 
Q 2244 3097 1772 3097 
Q 1472 3097 1187 3025 
Q 903 2953 641 2809 
L 641 3341 
Q 956 3463 1253 3523 
Q 1550 3584 1831 3584 
Q 2591 3584 2966 3190 
Q 3341 2797 3341 1997 
z
" transform="scale(0.015625)"/>
       <path id="DejaVuSans-72" d="M 2631 2963 
Q 2534 3019 2420 3045 
Q 2306 3072 2169 3072 
Q 1681 3072 1420 2755 
Q 1159 2438 1159 1844 
L 1159 0 
L 581 0 
L 581 3500 
L 1159 3500 
L 1159 2956 
Q 1341 3275 1631 3429 
Q 1922 3584 2338 3584 
Q 2397 3584 2469 3576 
Q 2541 3569 2628 3553 
L 2631 2963 
z
" transform="scale(0.015625)"/>
       <path id="DejaVuSans-64" d="M 2906 2969 
L 2906 4863 
L 3481 4863 
L 3481 0 
L 2906 0 
L 2906 525 
Q 2725 213 2448 61 
Q 2172 -91 1784 -91 
Q 1150 -91 751 415 
Q 353 922 353 1747 
Q 353 2572 751 3078 
Q 1150 3584 1784 3584 
Q 2172 3584 2448 3432 
Q 2725 3281 2906 2969 
z
M 947 1747 
Q 947 1113 1208 752 
Q 1469 391 1925 391 
Q 2381 391 2643 752 
Q 2906 1113 2906 1747 
Q 2906 2381 2643 2742 
Q 2381 3103 1925 3103 
Q 1469 3103 1208 2742 
Q 947 2381 947 1747 
z
" transform="scale(0.015625)"/>
      </defs>
      <use xlink:href="#DejaVuSans-52"/>
      <use xlink:href="#DejaVuSans-65" transform="translate(64.982422 0)"/>
      <use xlink:href="#DejaVuSans-77" transform="translate(126.505859 0)"/>
      <use xlink:href="#DejaVuSans-61" transform="translate(208.292969 0)"/>
      <use xlink:href="#DejaVuSans-72" transform="translate(269.572266 0)"/>
      <use xlink:href="#DejaVuSans-64" transform="translate(308.935547 0)"/>
     </g>
    </g>
   </g>
   <g id="FillBetweenPolyCollection_1">
    <path d="M 50.872828 372.186225 
L 50.872828 375.903317 
L 62.455868 369.251287 
L 74.038908 356.373835 
L 85.621948 330.169136 
L 97.204987 313.115915 
L 108.788027 285.417267 
L 120.371067 254.710816 
L 131.954107 244.587526 
L 143.537147 245.182714 
L 155.120187 224.343031 
L 166.703227 214.014484 
L 178.286267 183.400971 
L 189.869306 186.837306 
L 201.452346 149.679237 
L 213.035386 158.127015 
L 224.618426 178.168047 
L 236.201466 171.907516 
L 247.784506 118.601575 
L 259.367546 108.119729 
L 270.950586 125.003059 
L 282.533625 99.486043 
L 294.116665 167.840522 
L 305.699705 115.055011 
L 317.282745 106.551574 
L 328.865785 113.199234 
L 340.448825 109.316851 
L 352.031865 91.70007 
L 363.614905 87.820642 
L 375.197944 108.644469 
L 386.780984 100.578214 
L 398.364024 116.056776 
L 409.947064 124.243087 
L 421.530104 104.501271 
L 433.113144 90.176764 
L 444.696184 86.050524 
L 456.279224 92.528187 
L 467.862263 100.261618 
L 479.445303 86.898791 
L 491.028343 92.279104 
L 502.611383 78.893365 
L 514.194423 111.203895 
L 525.777463 77.538842 
L 537.360503 87.280475 
L 548.943543 96.731619 
L 560.526583 76.051926 
L 572.109622 80.102176 
L 583.692662 90.513094 
L 595.275702 74.786682 
L 606.858742 87.067828 
L 618.441782 82.233527 
L 618.441782 70.349951 
L 618.441782 70.349951 
L 606.858742 70.190932 
L 595.275702 68.158029 
L 583.692662 74.607186 
L 572.109622 67.16557 
L 560.526583 69.02228 
L 548.943543 62.288378 
L 537.360503 73.628848 
L 525.777463 70.929748 
L 514.194423 69.863579 
L 502.611383 68.374382 
L 491.028343 73.257467 
L 479.445303 67.429913 
L 467.862263 73.712877 
L 456.279224 76.594903 
L 444.696184 69.57509 
L 433.113144 75.455875 
L 421.530104 75.893732 
L 409.947064 62.892648 
L 398.364024 77.755646 
L 386.780984 69.76173 
L 375.197944 72.775253 
L 363.614905 74.449636 
L 352.031865 74.621052 
L 340.448825 77.914951 
L 328.865785 74.000546 
L 317.282745 79.67152 
L 305.699705 82.680165 
L 294.116665 84.268826 
L 282.533625 89.058681 
L 270.950586 88.054874 
L 259.367546 77.382859 
L 247.784506 91.110009 
L 236.201466 84.877114 
L 224.618426 122.71154 
L 213.035386 102.884583 
L 201.452346 98.315223 
L 189.869306 127.475711 
L 178.286267 143.384803 
L 166.703227 173.277767 
L 155.120187 178.239955 
L 143.537147 211.934557 
L 131.954107 213.234239 
L 120.371067 240.865453 
L 108.788027 249.802834 
L 97.204987 276.750549 
L 85.621948 294.473742 
L 74.038908 343.137603 
L 62.455868 359.512688 
L 50.872828 372.186225 
z
" clip-path="url(#pa3b9a63e53)" style="fill: #1f77b4; fill-opacity: 0.2"/>
   </g>
   <g id="FillBetweenPolyCollection_2">
    <path d="M 50.872828 374.400865 
L 50.872828 377.579408 
L 62.455868 374.530434 
L 74.038908 366.964917 
L 85.621948 345.698095 
L 97.204987 300.727504 
L 108.788027 283.338631 
L 120.371067 267.596737 
L 131.954107 238.347768 
L 143.537147 232.085869 
L 155.120187 207.031758 
L 166.703227 209.048041 
L 178.286267 183.582893 
L 189.869306 167.733532 
L 201.452346 170.419149 
L 213.035386 141.615506 
L 224.618426 148.510361 
L 236.201466 153.161448 
L 247.784506 130.193413 
L 259.367546 119.643159 
L 270.950586 120.70098 
L 282.533625 115.030358 
L 294.116665 98.511203 
L 305.699705 101.098966 
L 317.282745 119.696025 
L 328.865785 100.025318 
L 340.448825 98.297133 
L 352.031865 87.518992 
L 363.614905 83.746346 
L 375.197944 84.670091 
L 386.780984 90.38882 
L 398.364024 88.45884 
L 409.947064 85.257539 
L 421.530104 87.838593 
L 433.113144 92.886332 
L 444.696184 98.812142 
L 456.279224 91.328763 
L 467.862263 94.346421 
L 479.445303 85.980812 
L 491.028343 82.279943 
L 502.611383 129.271838 
L 514.194423 80.320314 
L 525.777463 79.133793 
L 537.360503 82.980896 
L 548.943543 101.253403 
L 560.526583 80.022715 
L 572.109622 96.073284 
L 583.692662 93.094129 
L 595.275702 88.895407 
L 606.858742 94.257073 
L 618.441782 104.630065 
L 618.441782 65.805946 
L 618.441782 65.805946 
L 606.858742 67.180621 
L 595.275702 71.837792 
L 583.692662 71.818004 
L 572.109622 85.218348 
L 560.526583 67.084919 
L 548.943543 66.508731 
L 537.360503 71.89219 
L 525.777463 69.38283 
L 514.194423 67.635915 
L 502.611383 55.910526 
L 491.028343 65.660275 
L 479.445303 69.084408 
L 467.862263 75.385096 
L 456.279224 73.519325 
L 444.696184 71.287633 
L 433.113144 68.343216 
L 421.530104 73.406966 
L 409.947064 70.352063 
L 398.364024 68.239527 
L 386.780984 66.453648 
L 375.197944 70.795411 
L 363.614905 73.256234 
L 352.031865 71.004657 
L 340.448825 75.725396 
L 328.865785 74.477549 
L 317.282745 70.289711 
L 305.699705 77.342666 
L 294.116665 84.141385 
L 282.533625 78.702008 
L 270.950586 82.846276 
L 259.367546 85.521233 
L 247.784506 96.009748 
L 236.201466 65.51643 
L 224.618426 97.658817 
L 213.035386 81.001137 
L 201.452346 123.047233 
L 189.869306 113.019926 
L 178.286267 130.041641 
L 166.703227 155.716395 
L 155.120187 151.232114 
L 143.537147 175.492623 
L 131.954107 209.290847 
L 120.371067 244.503133 
L 108.788027 261.376135 
L 97.204987 287.249634 
L 85.621948 337.481879 
L 74.038908 356.995686 
L 62.455868 369.892533 
L 50.872828 374.400865 
z
" clip-path="url(#pa3b9a63e53)" style="fill: #ff7f0e; fill-opacity: 0.2"/>
   </g>
   <g id="FillBetweenPolyCollection_3">
    <path d="M 50.872828 373.490255 
L 50.872828 376.504624 
L 62.455868 369.776566 
L 74.038908 354.863885 
L 85.621948 332.200948 
L 97.204987 306.991266 
L 108.788027 273.668072 
L 120.371067 260.098557 
L 131.954107 259.846022 
L 143.537147 222.04093 
L 155.120187 217.44425 
L 166.703227 216.797179 
L 178.286267 158.972044 
L 189.869306 128.996153 
L 201.452346 141.101956 
L 213.035386 123.761224 
L 224.618426 144.632314 
L 236.201466 92.388769 
L 247.784506 122.436385 
L 259.367546 105.178219 
L 270.950586 143.293647 
L 282.533625 81.502628 
L 294.116665 82.064771 
L 305.699705 82.022583 
L 317.282745 93.361219 
L 328.865785 94.697076 
L 340.448825 80.302137 
L 352.031865 100.187192 
L 363.614905 87.212314 
L 375.197944 106.97934 
L 386.780984 89.284202 
L 398.364024 102.870902 
L 409.947064 95.635889 
L 421.530104 79.758173 
L 433.113144 90.619315 
L 444.696184 103.146055 
L 456.279224 97.786908 
L 467.862263 84.932021 
L 479.445303 107.538481 
L 491.028343 92.425254 
L 502.611383 90.779907 
L 514.194423 84.585393 
L 525.777463 82.126894 
L 537.360503 88.664967 
L 548.943543 87.233936 
L 560.526583 90.846213 
L 572.109622 84.441066 
L 583.692662 107.161792 
L 595.275702 115.973156 
L 606.858742 92.617111 
L 618.441782 78.022392 
L 618.441782 69.869793 
L 618.441782 69.869793 
L 606.858742 63.296705 
L 595.275702 61.3637 
L 583.692662 66.812704 
L 572.109622 73.890448 
L 560.526583 67.61339 
L 548.943543 64.981284 
L 537.360503 70.48312 
L 525.777463 69.271752 
L 514.194423 66.364939 
L 502.611383 71.282226 
L 491.028343 74.168059 
L 479.445303 73.769162 
L 467.862263 76.521684 
L 456.279224 73.353598 
L 444.696184 66.56945 
L 433.113144 67.504052 
L 421.530104 66.500866 
L 409.947064 75.120347 
L 398.364024 68.253593 
L 386.780984 71.769222 
L 375.197944 76.377742 
L 363.614905 71.343357 
L 352.031865 69.144044 
L 340.448825 70.792296 
L 328.865785 68.389775 
L 317.282745 75.297545 
L 305.699705 76.485054 
L 294.116665 74.217303 
L 282.533625 70.520457 
L 270.950586 63.007543 
L 259.367546 79.395717 
L 247.784506 70.12716 
L 236.201466 71.290498 
L 224.618426 79.297251 
L 213.035386 72.725075 
L 201.452346 83.676205 
L 189.869306 110.608416 
L 178.286267 112.062591 
L 166.703227 159.815575 
L 155.120187 194.857559 
L 143.537147 172.872671 
L 131.954107 186.191469 
L 120.371067 232.547655 
L 108.788027 237.182921 
L 97.204987 273.748792 
L 85.621948 310.838845 
L 74.038908 348.009914 
L 62.455868 366.704827 
L 50.872828 373.490255 
z
" clip-path="url(#pa3b9a63e53)" style="fill: #2ca02c; fill-opacity: 0.2"/>
   </g>
   <g id="FillBetweenPolyCollection_4">
    <path d="M 50.872828 371.69101 
L 50.872828 375.245722 
L 62.455868 371.482577 
L 74.038908 363.183061 
L 85.621948 352.770852 
L 97.204987 323.780104 
L 108.788027 288.604627 
L 120.371067 249.774545 
L 131.954107 254.725049 
L 143.537147 237.3118 
L 155.120187 214.048376 
L 166.703227 190.2966 
L 178.286267 212.191532 
L 189.869306 203.137118 
L 201.452346 189.437397 
L 213.035386 185.80328 
L 224.618426 184.489998 
L 236.201466 134.999552 
L 247.784506 139.355087 
L 259.367546 145.642342 
L 270.950586 120.246955 
L 282.533625 98.676237 
L 294.116665 113.660384 
L 305.699705 104.335841 
L 317.282745 111.150848 
L 328.865785 87.069847 
L 340.448825 88.866892 
L 352.031865 92.543803 
L 363.614905 99.561374 
L 375.197944 95.077216 
L 386.780984 88.56523 
L 398.364024 96.962413 
L 409.947064 89.82341 
L 421.530104 120.83455 
L 433.113144 106.828914 
L 444.696184 93.567682 
L 456.279224 118.003754 
L 467.862263 85.105019 
L 479.445303 89.400686 
L 491.028343 84.792258 
L 502.611383 73.705644 
L 514.194423 85.472868 
L 525.777463 77.067851 
L 537.360503 90.541743 
L 548.943543 86.104802 
L 560.526583 83.160813 
L 572.109622 86.132641 
L 583.692662 81.27588 
L 595.275702 88.965118 
L 606.858742 85.606144 
L 618.441782 104.06313 
L 618.441782 69.33496 
L 618.441782 69.33496 
L 606.858742 67.377615 
L 595.275702 72.872857 
L 583.692662 68.521643 
L 572.109622 70.613759 
L 560.526583 67.885586 
L 548.943543 68.672216 
L 537.360503 62.906342 
L 525.777463 68.198491 
L 514.194423 67.334768 
L 502.611383 69.575303 
L 491.028343 72.194311 
L 479.445303 70.291782 
L 467.862263 66.886043 
L 456.279224 74.15951 
L 444.696184 78.357374 
L 433.113144 78.545585 
L 421.530104 79.734616 
L 409.947064 69.5008 
L 398.364024 69.726968 
L 386.780984 83.071624 
L 375.197944 76.959919 
L 363.614905 85.268743 
L 352.031865 81.286591 
L 340.448825 70.633442 
L 328.865785 69.228238 
L 317.282745 79.859607 
L 305.699705 74.762252 
L 294.116665 88.06159 
L 282.533625 75.378314 
L 270.950586 85.926145 
L 259.367546 96.604082 
L 247.784506 89.297794 
L 236.201466 94.05361 
L 224.618426 135.635099 
L 213.035386 142.951876 
L 201.452346 155.345011 
L 189.869306 136.345569 
L 178.286267 165.622064 
L 166.703227 158.376539 
L 155.120187 181.809888 
L 143.537147 199.647318 
L 131.954107 217.106552 
L 120.371067 243.848353 
L 108.788027 249.881767 
L 97.204987 285.620074 
L 85.621948 334.379909 
L 74.038908 352.547764 
L 62.455868 366.61595 
L 50.872828 371.69101 
z
" clip-path="url(#pa3b9a63e53)" style="fill: #d62728; fill-opacity: 0.2"/>
   </g>
   <g id="line2d_19">
    <path d="M 50.872828 374.044771 
L 62.455868 364.381987 
L 74.038908 349.755719 
L 85.621948 312.321439 
L 97.204987 294.933232 
L 108.788027 267.61005 
L 120.371067 247.788135 
L 131.954107 228.910882 
L 143.537147 228.558635 
L 155.120187 201.291493 
L 166.703227 193.646125 
L 178.286267 163.392887 
L 189.869306 157.156509 
L 201.452346 123.99723 
L 213.035386 130.505799 
L 224.618426 150.439793 
L 236.201466 128.392315 
L 247.784506 104.855792 
L 259.367546 92.751294 
L 270.950586 106.528967 
L 282.533625 94.272362 
L 294.116665 126.054674 
L 305.699705 98.867588 
L 317.282745 93.111547 
L 328.865785 93.59989 
L 340.448825 93.615901 
L 352.031865 83.160561 
L 363.614905 81.135139 
L 375.197944 90.709861 
L 386.780984 85.169972 
L 398.364024 96.906211 
L 409.947064 93.567867 
L 421.530104 90.197501 
L 433.113144 82.81632 
L 444.696184 77.812807 
L 456.279224 84.561545 
L 467.862263 86.987248 
L 479.445303 77.164352 
L 491.028343 82.768286 
L 502.611383 73.633873 
L 514.194423 90.533737 
L 525.777463 74.234295 
L 537.360503 80.454662 
L 548.943543 79.509998 
L 560.526583 72.537103 
L 572.109622 73.633873 
L 583.692662 82.56014 
L 595.275702 71.472356 
L 606.858742 78.62938 
L 618.441782 76.291739 
" clip-path="url(#pa3b9a63e53)" style="fill: none; stroke: #1f77b4; stroke-width: 1.5; stroke-linecap: round"/>
   </g>
   <g id="line2d_20">
    <path d="M 50.872828 375.990137 
L 62.455868 372.211484 
L 74.038908 361.980301 
L 85.621948 341.589987 
L 97.204987 293.988569 
L 108.788027 272.357383 
L 120.371067 256.049935 
L 131.954107 223.819308 
L 143.537147 203.789246 
L 155.120187 179.131936 
L 166.703227 182.382218 
L 178.286267 156.812267 
L 189.869306 140.376729 
L 201.452346 146.733191 
L 213.035386 111.308322 
L 224.618426 123.084589 
L 236.201466 109.338939 
L 247.784506 113.101581 
L 259.367546 102.582196 
L 270.950586 101.773628 
L 282.533625 96.866183 
L 294.116665 91.326294 
L 305.699705 89.220816 
L 317.282745 94.992868 
L 328.865785 87.251433 
L 340.448825 87.011264 
L 352.031865 79.261824 
L 363.614905 78.50129 
L 375.197944 77.732751 
L 386.780984 78.421234 
L 398.364024 78.349183 
L 409.947064 77.804801 
L 421.530104 80.62278 
L 433.113144 80.614774 
L 444.696184 85.049888 
L 456.279224 82.424044 
L 467.862263 84.865758 
L 479.445303 77.53261 
L 491.028343 73.970109 
L 502.611383 92.591182 
L 514.194423 73.978115 
L 525.777463 74.258312 
L 537.360503 77.436543 
L 548.943543 83.881067 
L 560.526583 73.553817 
L 572.109622 90.645816 
L 583.692662 82.456067 
L 595.275702 80.3666 
L 606.858742 80.718847 
L 618.441782 85.218006 
" clip-path="url(#pa3b9a63e53)" style="fill: none; stroke: #ff7f0e; stroke-width: 1.5; stroke-linecap: round"/>
   </g>
   <g id="line2d_21">
    <path d="M 50.872828 374.99744 
L 62.455868 368.240696 
L 74.038908 351.436899 
L 85.621948 321.519897 
L 97.204987 290.370029 
L 108.788027 255.425496 
L 120.371067 246.323106 
L 131.954107 223.018746 
L 143.537147 197.456801 
L 155.120187 206.150904 
L 166.703227 188.306377 
L 178.286267 135.517317 
L 189.869306 119.802285 
L 201.452346 112.38908 
L 213.035386 98.24315 
L 224.618426 111.964783 
L 236.201466 81.839634 
L 247.784506 96.281773 
L 259.367546 92.286968 
L 270.950586 103.150595 
L 282.533625 76.011542 
L 294.116665 78.141037 
L 305.699705 79.253819 
L 317.282745 84.329382 
L 328.865785 81.543426 
L 340.448825 75.547216 
L 352.031865 84.665618 
L 363.614905 79.277835 
L 375.197944 91.678541 
L 386.780984 80.526712 
L 398.364024 85.562247 
L 409.947064 85.378118 
L 421.530104 73.129519 
L 433.113144 79.061684 
L 444.696184 84.857753 
L 456.279224 85.570253 
L 467.862263 80.726853 
L 479.445303 90.653822 
L 491.028343 83.296657 
L 502.611383 81.031066 
L 514.194423 75.475166 
L 525.777463 75.699323 
L 537.360503 79.574043 
L 548.943543 76.10761 
L 560.526583 79.229802 
L 572.109622 79.165757 
L 583.692662 86.987248 
L 595.275702 88.668428 
L 606.858742 77.956908 
L 618.441782 73.946092 
" clip-path="url(#pa3b9a63e53)" style="fill: none; stroke: #2ca02c; stroke-width: 1.5; stroke-linecap: round"/>
   </g>
   <g id="line2d_22">
    <path d="M 50.872828 373.468366 
L 62.455868 369.049264 
L 74.038908 357.865412 
L 85.621948 343.57538 
L 97.204987 304.700089 
L 108.788027 269.243197 
L 120.371067 246.811449 
L 131.954107 235.9158 
L 143.537147 218.479559 
L 155.120187 197.929132 
L 166.703227 174.33657 
L 178.286267 188.906798 
L 189.869306 169.741344 
L 201.452346 172.391204 
L 213.035386 164.377578 
L 224.618426 160.062549 
L 236.201466 114.526581 
L 247.784506 114.326441 
L 259.367546 121.123212 
L 270.950586 103.08655 
L 282.533625 87.027276 
L 294.116665 100.860987 
L 305.699705 89.549046 
L 317.282745 95.505228 
L 328.865785 78.149043 
L 340.448825 79.750167 
L 352.031865 86.915197 
L 363.614905 92.415058 
L 375.197944 86.018568 
L 386.780984 85.818427 
L 398.364024 83.34469 
L 409.947064 79.662105 
L 421.530104 100.284583 
L 433.113144 92.687249 
L 444.696184 85.962528 
L 456.279224 96.081632 
L 467.862263 75.995531 
L 479.445303 79.846234 
L 491.028343 78.493285 
L 502.611383 71.640474 
L 514.194423 76.403818 
L 525.777463 72.633171 
L 537.360503 76.724043 
L 548.943543 77.388509 
L 560.526583 75.5232 
L 572.109622 78.3732 
L 583.692662 74.898761 
L 595.275702 80.918988 
L 606.858742 76.49188 
L 618.441782 86.699045 
" clip-path="url(#pa3b9a63e53)" style="fill: none; stroke: #d62728; stroke-width: 1.5; stroke-linecap: round"/>
   </g>
   <g id="patch_3">
    <path d="M 50.87 390.04 
L 50.87 57.0062 
" style="fill: none; stroke: #ffffff; stroke-width: 0.8; stroke-linejoin: miter; stroke-linecap: square"/>
   </g>
   <g id="patch_4">
    <path d="M 630.02765 390.04 
L 630.02765 57.0062 
" style="fill: none; stroke: #ffffff; stroke-width: 0.8; stroke-linejoin: miter; stroke-linecap: square"/>
   </g>
   <g id="patch_5">
    <path d="M 50.87 390.04 
L 630.02765 390.04 
" style="fill: none; stroke: #ffffff; stroke-width: 0.8; stroke-linejoin: miter; stroke-linecap: square"/>
   </g>
   <g id="patch_6">
    <path d="M 50.87 57.0062 
L 630.02765 57.0062 
" style="fill: none; stroke: #ffffff; stroke-width: 0.8; stroke-linejoin: miter; stroke-linecap: square"/>
   </g>
   <g id="legend_1">
    <g id="line2d_23">
     <path d="M 195.788613 41.274494 
L 204.118613 41.274494 
L 212.448613 41.274494 
" style="fill: none; stroke: #1f77b4; stroke-width: 1.5; stroke-linecap: round"/>
    </g>
    <g id="text_21">
     <!-- Logits (Baseline) -->
     <g style="fill: #262626" transform="translate(219.112613 44.189994) scale(0.0833 -0.0833)">
      <defs>
       <path id="DejaVuSans-4c" d="M 628 4666 
L 1259 4666 
L 1259 531 
L 3531 531 
L 3531 0 
L 628 0 
L 628 4666 
z
" transform="scale(0.015625)"/>
       <path id="DejaVuSans-6f" d="M 1959 3097 
Q 1497 3097 1228 2736 
Q 959 2375 959 1747 
Q 959 1119 1226 758 
Q 1494 397 1959 397 
Q 2419 397 2687 759 
Q 2956 1122 2956 1747 
Q 2956 2369 2687 2733 
Q 2419 3097 1959 3097 
z
M 1959 3584 
Q 2709 3584 3137 3096 
Q 3566 2609 3566 1747 
Q 3566 888 3137 398 
Q 2709 -91 1959 -91 
Q 1206 -91 779 398 
Q 353 888 353 1747 
Q 353 2609 779 3096 
Q 1206 3584 1959 3584 
z
" transform="scale(0.015625)"/>
       <path id="DejaVuSans-67" d="M 2906 1791 
Q 2906 2416 2648 2759 
Q 2391 3103 1925 3103 
Q 1463 3103 1205 2759 
Q 947 2416 947 1791 
Q 947 1169 1205 825 
Q 1463 481 1925 481 
Q 2391 481 2648 825 
Q 2906 1169 2906 1791 
z
M 3481 434 
Q 3481 -459 3084 -895 
Q 2688 -1331 1869 -1331 
Q 1566 -1331 1297 -1286 
Q 1028 -1241 775 -1147 
L 775 -588 
Q 1028 -725 1275 -790 
Q 1522 -856 1778 -856 
Q 2344 -856 2625 -561 
Q 2906 -266 2906 331 
L 2906 616 
Q 2728 306 2450 153 
Q 2172 0 1784 0 
Q 1141 0 747 490 
Q 353 981 353 1791 
Q 353 2603 747 3093 
Q 1141 3584 1784 3584 
Q 2172 3584 2450 3431 
Q 2728 3278 2906 2969 
L 2906 3500 
L 3481 3500 
L 3481 434 
z
" transform="scale(0.015625)"/>
       <path id="DejaVuSans-69" d="M 603 3500 
L 1178 3500 
L 1178 0 
L 603 0 
L 603 3500 
z
M 603 4863 
L 1178 4863 
L 1178 4134 
L 603 4134 
L 603 4863 
z
" transform="scale(0.015625)"/>
       <path id="DejaVuSans-20" transform="scale(0.015625)"/>
       <path id="DejaVuSans-28" d="M 1984 4856 
Q 1566 4138 1362 3434 
Q 1159 2731 1159 2009 
Q 1159 1288 1364 580 
Q 1569 -128 1984 -844 
L 1484 -844 
Q 1016 -109 783 600 
Q 550 1309 550 2009 
Q 550 2706 781 3412 
Q 1013 4119 1484 4856 
L 1984 4856 
z
" transform="scale(0.015625)"/>
       <path id="DejaVuSans-42" d="M 1259 2228 
L 1259 519 
L 2272 519 
Q 2781 519 3026 730 
Q 3272 941 3272 1375 
Q 3272 1813 3026 2020 
Q 2781 2228 2272 2228 
L 1259 2228 
z
M 1259 4147 
L 1259 2741 
L 2194 2741 
Q 2656 2741 2882 2914 
Q 3109 3088 3109 3444 
Q 3109 3797 2882 3972 
Q 2656 4147 2194 4147 
L 1259 4147 
z
M 628 4666 
L 2241 4666 
Q 2963 4666 3353 4366 
Q 3744 4066 3744 3513 
Q 3744 3084 3544 2831 
Q 3344 2578 2956 2516 
Q 3422 2416 3680 2098 
Q 3938 1781 3938 1306 
Q 3938 681 3513 340 
Q 3088 0 2303 0 
L 628 0 
L 628 4666 
z
" transform="scale(0.015625)"/>
       <path id="DejaVuSans-6c" d="M 603 4863 
L 1178 4863 
L 1178 0 
L 603 0 
L 603 4863 
z
" transform="scale(0.015625)"/>
       <path id="DejaVuSans-6e" d="M 3513 2113 
L 3513 0 
L 2938 0 
L 2938 2094 
Q 2938 2591 2744 2837 
Q 2550 3084 2163 3084 
Q 1697 3084 1428 2787 
Q 1159 2491 1159 1978 
L 1159 0 
L 581 0 
L 581 3500 
L 1159 3500 
L 1159 2956 
Q 1366 3272 1645 3428 
Q 1925 3584 2291 3584 
Q 2894 3584 3203 3211 
Q 3513 2838 3513 2113 
z
" transform="scale(0.015625)"/>
       <path id="DejaVuSans-29" d="M 513 4856 
L 1013 4856 
Q 1481 4119 1714 3412 
Q 1947 2706 1947 2009 
Q 1947 1309 1714 600 
Q 1481 -109 1013 -844 
L 513 -844 
Q 928 -128 1133 580 
Q 1338 1288 1338 2009 
Q 1338 2731 1133 3434 
Q 928 4138 513 4856 
z
" transform="scale(0.015625)"/>
      </defs>
      <use xlink:href="#DejaVuSans-4c"/>
      <use xlink:href="#DejaVuSans-6f" transform="translate(53.962891 0)"/>
      <use xlink:href="#DejaVuSans-67" transform="translate(115.144531 0)"/>
      <use xlink:href="#DejaVuSans-69" transform="translate(178.621094 0)"/>
      <use xlink:href="#DejaVuSans-74" transform="translate(206.404297 0)"/>
      <use xlink:href="#DejaVuSans-73" transform="translate(245.613281 0)"/>
      <use xlink:href="#DejaVuSans-20" transform="translate(297.712891 0)"/>
      <use xlink:href="#DejaVuSans-28" transform="translate(329.5 0)"/>
      <use xlink:href="#DejaVuSans-42" transform="translate(368.513672 0)"/>
      <use xlink:href="#DejaVuSans-61" transform="translate(437.117188 0)"/>
      <use xlink:href="#DejaVuSans-73" transform="translate(498.396484 0)"/>
      <use xlink:href="#DejaVuSans-65" transform="translate(550.496094 0)"/>
      <use xlink:href="#DejaVuSans-6c" transform="translate(612.019531 0)"/>
      <use xlink:href="#DejaVuSans-69" transform="translate(639.802734 0)"/>
      <use xlink:href="#DejaVuSans-6e" transform="translate(667.585938 0)"/>
      <use xlink:href="#DejaVuSans-65" transform="translate(730.964844 0)"/>
      <use xlink:href="#DejaVuSans-29" transform="translate(792.488281 0)"/>
     </g>
    </g>
    <g id="line2d_24">
     <path d="M 305.037865 41.274494 
L 313.367865 41.274494 
L 321.697865 41.274494 
" style="fill: none; stroke: #ff7f0e; stroke-width: 1.5; stroke-linecap: round"/>
    </g>
    <g id="text_22">
     <!-- GNN -->
     <g style="fill: #262626" transform="translate(328.361865 44.189994) scale(0.0833 -0.0833)">
      <defs>
       <path id="DejaVuSans-47" d="M 3809 666 
L 3809 1919 
L 2778 1919 
L 2778 2438 
L 4434 2438 
L 4434 434 
Q 4069 175 3628 42 
Q 3188 -91 2688 -91 
Q 1594 -91 976 548 
Q 359 1188 359 2328 
Q 359 3472 976 4111 
Q 1594 4750 2688 4750 
Q 3144 4750 3555 4637 
Q 3966 4525 4313 4306 
L 4313 3634 
Q 3963 3931 3569 4081 
Q 3175 4231 2741 4231 
Q 1884 4231 1454 3753 
Q 1025 3275 1025 2328 
Q 1025 1384 1454 906 
Q 1884 428 2741 428 
Q 3075 428 3337 486 
Q 3600 544 3809 666 
z
" transform="scale(0.015625)"/>
       <path id="DejaVuSans-4e" d="M 628 4666 
L 1478 4666 
L 3547 763 
L 3547 4666 
L 4159 4666 
L 4159 0 
L 3309 0 
L 1241 3903 
L 1241 0 
L 628 0 
L 628 4666 
z
" transform="scale(0.015625)"/>
      </defs>
      <use xlink:href="#DejaVuSans-47"/>
      <use xlink:href="#DejaVuSans-4e" transform="translate(77.490234 0)"/>
      <use xlink:href="#DejaVuSans-4e" transform="translate(152.294922 0)"/>
     </g>
    </g>
    <g id="line2d_25">
     <path d="M 363.940076 41.274494 
L 372.270076 41.274494 
L 380.600076 41.274494 
" style="fill: none; stroke: #2ca02c; stroke-width: 1.5; stroke-linecap: round"/>
    </g>
    <g id="text_23">
     <!-- GNN_K -->
     <g style="fill: #262626" transform="translate(387.264076 44.189994) scale(0.0833 -0.0833)">
      <defs>
       <path id="DejaVuSans-5f" d="M 3263 -1063 
L 3263 -1509 
L -63 -1509 
L -63 -1063 
L 3263 -1063 
z
" transform="scale(0.015625)"/>
       <path id="DejaVuSans-4b" d="M 628 4666 
L 1259 4666 
L 1259 2694 
L 3353 4666 
L 4166 4666 
L 1850 2491 
L 4331 0 
L 3500 0 
L 1259 2247 
L 1259 0 
L 628 0 
L 628 4666 
z
" transform="scale(0.015625)"/>
      </defs>
      <use xlink:href="#DejaVuSans-47"/>
      <use xlink:href="#DejaVuSans-4e" transform="translate(77.490234 0)"/>
      <use xlink:href="#DejaVuSans-4e" transform="translate(152.294922 0)"/>
      <use xlink:href="#DejaVuSans-5f" transform="translate(227.099609 0)"/>
      <use xlink:href="#DejaVuSans-4b" transform="translate(277.099609 0)"/>
     </g>
    </g>
    <g id="line2d_26">
     <path d="M 432.469944 41.274494 
L 440.799944 41.274494 
L 449.129944 41.274494 
" style="fill: none; stroke: #d62728; stroke-width: 1.5; stroke-linecap: round"/>
    </g>
    <g id="text_24">
     <!-- GNN_N -->
     <g style="fill: #262626" transform="translate(455.793944 44.189994) scale(0.0833 -0.0833)">
      <use xlink:href="#DejaVuSans-47"/>
      <use xlink:href="#DejaVuSans-4e" transform="translate(77.490234 0)"/>
      <use xlink:href="#DejaVuSans-4e" transform="translate(152.294922 0)"/>
      <use xlink:href="#DejaVuSans-5f" transform="translate(227.099609 0)"/>
      <use xlink:href="#DejaVuSans-4e" transform="translate(277.099609 0)"/>
     </g>
    </g>
   </g>
  </g>
  <g id="text_25">
   <!-- Rewards: CartPole-v1 (Entropy) -->
   <g style="fill: #262626" transform="translate(216.80625 17.758125) scale(0.12 -0.12)">
    <defs>
     <path id="DejaVuSans-Bold-52" d="M 2297 2597 
Q 2675 2597 2839 2737 
Q 3003 2878 3003 3200 
Q 3003 3519 2839 3656 
Q 2675 3794 2297 3794 
L 1791 3794 
L 1791 2597 
L 2297 2597 
z
M 1791 1766 
L 1791 0 
L 588 0 
L 588 4666 
L 2425 4666 
Q 3347 4666 3776 4356 
Q 4206 4047 4206 3378 
Q 4206 2916 3982 2619 
Q 3759 2322 3309 2181 
Q 3556 2125 3751 1926 
Q 3947 1728 4147 1325 
L 4800 0 
L 3519 0 
L 2950 1159 
Q 2778 1509 2601 1637 
Q 2425 1766 2131 1766 
L 1791 1766 
z
" transform="scale(0.015625)"/>
     <path id="DejaVuSans-Bold-65" d="M 4031 1759 
L 4031 1441 
L 1416 1441 
Q 1456 1047 1700 850 
Q 1944 653 2381 653 
Q 2734 653 3104 758 
Q 3475 863 3866 1075 
L 3866 213 
Q 3469 63 3072 -14 
Q 2675 -91 2278 -91 
Q 1328 -91 801 392 
Q 275 875 275 1747 
Q 275 2603 792 3093 
Q 1309 3584 2216 3584 
Q 3041 3584 3536 3087 
Q 4031 2591 4031 1759 
z
M 2881 2131 
Q 2881 2450 2695 2645 
Q 2509 2841 2209 2841 
Q 1884 2841 1681 2658 
Q 1478 2475 1428 2131 
L 2881 2131 
z
" transform="scale(0.015625)"/>
     <path id="DejaVuSans-Bold-77" d="M 225 3500 
L 1313 3500 
L 1900 1088 
L 2491 3500 
L 3425 3500 
L 4013 1113 
L 4603 3500 
L 5691 3500 
L 4769 0 
L 3547 0 
L 2956 2406 
L 2369 0 
L 1147 0 
L 225 3500 
z
" transform="scale(0.015625)"/>
     <path id="DejaVuSans-Bold-61" d="M 2106 1575 
Q 1756 1575 1579 1456 
Q 1403 1338 1403 1106 
Q 1403 894 1545 773 
Q 1688 653 1941 653 
Q 2256 653 2472 879 
Q 2688 1106 2688 1447 
L 2688 1575 
L 2106 1575 
z
M 3816 1997 
L 3816 0 
L 2688 0 
L 2688 519 
Q 2463 200 2181 54 
Q 1900 -91 1497 -91 
Q 953 -91 614 226 
Q 275 544 275 1050 
Q 275 1666 698 1953 
Q 1122 2241 2028 2241 
L 2688 2241 
L 2688 2328 
Q 2688 2594 2478 2717 
Q 2269 2841 1825 2841 
Q 1466 2841 1156 2769 
Q 847 2697 581 2553 
L 581 3406 
Q 941 3494 1303 3539 
Q 1666 3584 2028 3584 
Q 2975 3584 3395 3211 
Q 3816 2838 3816 1997 
z
" transform="scale(0.015625)"/>
     <path id="DejaVuSans-Bold-72" d="M 3138 2547 
Q 2991 2616 2845 2648 
Q 2700 2681 2553 2681 
Q 2122 2681 1889 2404 
Q 1656 2128 1656 1613 
L 1656 0 
L 538 0 
L 538 3500 
L 1656 3500 
L 1656 2925 
Q 1872 3269 2151 3426 
Q 2431 3584 2822 3584 
Q 2878 3584 2943 3579 
Q 3009 3575 3134 3559 
L 3138 2547 
z
" transform="scale(0.015625)"/>
     <path id="DejaVuSans-Bold-64" d="M 2919 2988 
L 2919 4863 
L 4044 4863 
L 4044 0 
L 2919 0 
L 2919 506 
Q 2688 197 2409 53 
Q 2131 -91 1766 -91 
Q 1119 -91 703 423 
Q 288 938 288 1747 
Q 288 2556 703 3070 
Q 1119 3584 1766 3584 
Q 2128 3584 2408 3439 
Q 2688 3294 2919 2988 
z
M 2181 722 
Q 2541 722 2730 984 
Q 2919 1247 2919 1747 
Q 2919 2247 2730 2509 
Q 2541 2772 2181 2772 
Q 1825 2772 1636 2509 
Q 1447 2247 1447 1747 
Q 1447 1247 1636 984 
Q 1825 722 2181 722 
z
" transform="scale(0.015625)"/>
     <path id="DejaVuSans-Bold-73" d="M 3272 3391 
L 3272 2541 
Q 2913 2691 2578 2766 
Q 2244 2841 1947 2841 
Q 1628 2841 1473 2761 
Q 1319 2681 1319 2516 
Q 1319 2381 1436 2309 
Q 1553 2238 1856 2203 
L 2053 2175 
Q 2913 2066 3209 1816 
Q 3506 1566 3506 1031 
Q 3506 472 3093 190 
Q 2681 -91 1863 -91 
Q 1516 -91 1145 -36 
Q 775 19 384 128 
L 384 978 
Q 719 816 1070 734 
Q 1422 653 1784 653 
Q 2113 653 2278 743 
Q 2444 834 2444 1013 
Q 2444 1163 2330 1236 
Q 2216 1309 1875 1350 
L 1678 1375 
Q 931 1469 631 1722 
Q 331 1975 331 2491 
Q 331 3047 712 3315 
Q 1094 3584 1881 3584 
Q 2191 3584 2531 3537 
Q 2872 3491 3272 3391 
z
" transform="scale(0.015625)"/>
     <path id="DejaVuSans-Bold-3a" d="M 716 3500 
L 1844 3500 
L 1844 2291 
L 716 2291 
L 716 3500 
z
M 716 1209 
L 1844 1209 
L 1844 0 
L 716 0 
L 716 1209 
z
" transform="scale(0.015625)"/>
     <path id="DejaVuSans-Bold-20" transform="scale(0.015625)"/>
     <path id="DejaVuSans-Bold-43" d="M 4288 256 
Q 3956 84 3597 -3 
Q 3238 -91 2847 -91 
Q 1681 -91 1000 561 
Q 319 1213 319 2328 
Q 319 3447 1000 4098 
Q 1681 4750 2847 4750 
Q 3238 4750 3597 4662 
Q 3956 4575 4288 4403 
L 4288 3438 
Q 3953 3666 3628 3772 
Q 3303 3878 2944 3878 
Q 2300 3878 1931 3465 
Q 1563 3053 1563 2328 
Q 1563 1606 1931 1193 
Q 2300 781 2944 781 
Q 3303 781 3628 887 
Q 3953 994 4288 1222 
L 4288 256 
z
" transform="scale(0.015625)"/>
     <path id="DejaVuSans-Bold-74" d="M 1759 4494 
L 1759 3500 
L 2913 3500 
L 2913 2700 
L 1759 2700 
L 1759 1216 
Q 1759 972 1856 886 
Q 1953 800 2241 800 
L 2816 800 
L 2816 0 
L 1856 0 
Q 1194 0 917 276 
Q 641 553 641 1216 
L 641 2700 
L 84 2700 
L 84 3500 
L 641 3500 
L 641 4494 
L 1759 4494 
z
" transform="scale(0.015625)"/>
     <path id="DejaVuSans-Bold-50" d="M 588 4666 
L 2584 4666 
Q 3475 4666 3951 4270 
Q 4428 3875 4428 3144 
Q 4428 2409 3951 2014 
Q 3475 1619 2584 1619 
L 1791 1619 
L 1791 0 
L 588 0 
L 588 4666 
z
M 1791 3794 
L 1791 2491 
L 2456 2491 
Q 2806 2491 2997 2661 
Q 3188 2831 3188 3144 
Q 3188 3456 2997 3625 
Q 2806 3794 2456 3794 
L 1791 3794 
z
" transform="scale(0.015625)"/>
     <path id="DejaVuSans-Bold-6f" d="M 2203 2784 
Q 1831 2784 1636 2517 
Q 1441 2250 1441 1747 
Q 1441 1244 1636 976 
Q 1831 709 2203 709 
Q 2569 709 2762 976 
Q 2956 1244 2956 1747 
Q 2956 2250 2762 2517 
Q 2569 2784 2203 2784 
z
M 2203 3584 
Q 3106 3584 3614 3096 
Q 4122 2609 4122 1747 
Q 4122 884 3614 396 
Q 3106 -91 2203 -91 
Q 1297 -91 786 396 
Q 275 884 275 1747 
Q 275 2609 786 3096 
Q 1297 3584 2203 3584 
z
" transform="scale(0.015625)"/>
     <path id="DejaVuSans-Bold-6c" d="M 538 4863 
L 1656 4863 
L 1656 0 
L 538 0 
L 538 4863 
z
" transform="scale(0.015625)"/>
     <path id="DejaVuSans-Bold-2d" d="M 347 2297 
L 2309 2297 
L 2309 1388 
L 347 1388 
L 347 2297 
z
" transform="scale(0.015625)"/>
     <path id="DejaVuSans-Bold-76" d="M 97 3500 
L 1216 3500 
L 2088 1081 
L 2956 3500 
L 4078 3500 
L 2700 0 
L 1472 0 
L 97 3500 
z
" transform="scale(0.015625)"/>
     <path id="DejaVuSans-Bold-31" d="M 750 831 
L 1813 831 
L 1813 3847 
L 722 3622 
L 722 4441 
L 1806 4666 
L 2950 4666 
L 2950 831 
L 4013 831 
L 4013 0 
L 750 0 
L 750 831 
z
" transform="scale(0.015625)"/>
     <path id="DejaVuSans-Bold-28" d="M 2413 -844 
L 1484 -844 
Q 1006 -72 778 623 
Q 550 1319 550 2003 
Q 550 2688 779 3389 
Q 1009 4091 1484 4856 
L 2413 4856 
Q 2013 4116 1813 3408 
Q 1613 2700 1613 2009 
Q 1613 1319 1811 609 
Q 2009 -100 2413 -844 
z
" transform="scale(0.015625)"/>
     <path id="DejaVuSans-Bold-45" d="M 588 4666 
L 3834 4666 
L 3834 3756 
L 1791 3756 
L 1791 2888 
L 3713 2888 
L 3713 1978 
L 1791 1978 
L 1791 909 
L 3903 909 
L 3903 0 
L 588 0 
L 588 4666 
z
" transform="scale(0.015625)"/>
     <path id="DejaVuSans-Bold-6e" d="M 4056 2131 
L 4056 0 
L 2931 0 
L 2931 347 
L 2931 1631 
Q 2931 2084 2911 2256 
Q 2891 2428 2841 2509 
Q 2775 2619 2662 2680 
Q 2550 2741 2406 2741 
Q 2056 2741 1856 2470 
Q 1656 2200 1656 1722 
L 1656 0 
L 538 0 
L 538 3500 
L 1656 3500 
L 1656 2988 
Q 1909 3294 2193 3439 
Q 2478 3584 2822 3584 
Q 3428 3584 3742 3212 
Q 4056 2841 4056 2131 
z
" transform="scale(0.015625)"/>
     <path id="DejaVuSans-Bold-70" d="M 1656 506 
L 1656 -1331 
L 538 -1331 
L 538 3500 
L 1656 3500 
L 1656 2988 
Q 1888 3294 2169 3439 
Q 2450 3584 2816 3584 
Q 3463 3584 3878 3070 
Q 4294 2556 4294 1747 
Q 4294 938 3878 423 
Q 3463 -91 2816 -91 
Q 2450 -91 2169 54 
Q 1888 200 1656 506 
z
M 2400 2772 
Q 2041 2772 1848 2508 
Q 1656 2244 1656 1747 
Q 1656 1250 1848 986 
Q 2041 722 2400 722 
Q 2759 722 2948 984 
Q 3138 1247 3138 1747 
Q 3138 2247 2948 2509 
Q 2759 2772 2400 2772 
z
" transform="scale(0.015625)"/>
     <path id="DejaVuSans-Bold-79" d="M 78 3500 
L 1197 3500 
L 2138 1125 
L 2938 3500 
L 4056 3500 
L 2584 -331 
Q 2363 -916 2067 -1148 
Q 1772 -1381 1288 -1381 
L 641 -1381 
L 641 -647 
L 991 -647 
Q 1275 -647 1404 -556 
Q 1534 -466 1606 -231 
L 1638 -134 
L 78 3500 
z
" transform="scale(0.015625)"/>
     <path id="DejaVuSans-Bold-29" d="M 513 -844 
Q 913 -100 1113 609 
Q 1313 1319 1313 2009 
Q 1313 2700 1113 3408 
Q 913 4116 513 4856 
L 1441 4856 
Q 1916 4091 2145 3389 
Q 2375 2688 2375 2003 
Q 2375 1319 2147 623 
Q 1919 -72 1441 -844 
L 513 -844 
z
" transform="scale(0.015625)"/>
    </defs>
    <use xlink:href="#DejaVuSans-Bold-52"/>
    <use xlink:href="#DejaVuSans-Bold-65" transform="translate(77.001953 0)"/>
    <use xlink:href="#DejaVuSans-Bold-77" transform="translate(144.824219 0)"/>
    <use xlink:href="#DejaVuSans-Bold-61" transform="translate(237.207031 0)"/>
    <use xlink:href="#DejaVuSans-Bold-72" transform="translate(304.6875 0)"/>
    <use xlink:href="#DejaVuSans-Bold-64" transform="translate(354.003906 0)"/>
    <use xlink:href="#DejaVuSans-Bold-73" transform="translate(425.585938 0)"/>
    <use xlink:href="#DejaVuSans-Bold-3a" transform="translate(485.107422 0)"/>
    <use xlink:href="#DejaVuSans-Bold-20" transform="translate(525.097656 0)"/>
    <use xlink:href="#DejaVuSans-Bold-43" transform="translate(559.912109 0)"/>
    <use xlink:href="#DejaVuSans-Bold-61" transform="translate(633.300781 0)"/>
    <use xlink:href="#DejaVuSans-Bold-72" transform="translate(700.78125 0)"/>
    <use xlink:href="#DejaVuSans-Bold-74" transform="translate(750.097656 0)"/>
    <use xlink:href="#DejaVuSans-Bold-50" transform="translate(797.900391 0)"/>
    <use xlink:href="#DejaVuSans-Bold-6f" transform="translate(871.191406 0)"/>
    <use xlink:href="#DejaVuSans-Bold-6c" transform="translate(939.892578 0)"/>
    <use xlink:href="#DejaVuSans-Bold-65" transform="translate(974.169922 0)"/>
    <use xlink:href="#DejaVuSans-Bold-2d" transform="translate(1041.992188 0)"/>
    <use xlink:href="#DejaVuSans-Bold-76" transform="translate(1083.496094 0)"/>
    <use xlink:href="#DejaVuSans-Bold-31" transform="translate(1148.681641 0)"/>
    <use xlink:href="#DejaVuSans-Bold-20" transform="translate(1218.261719 0)"/>
    <use xlink:href="#DejaVuSans-Bold-28" transform="translate(1253.076172 0)"/>
    <use xlink:href="#DejaVuSans-Bold-45" transform="translate(1298.779297 0)"/>
    <use xlink:href="#DejaVuSans-Bold-6e" transform="translate(1367.089844 0)"/>
    <use xlink:href="#DejaVuSans-Bold-74" transform="translate(1438.28125 0)"/>
    <use xlink:href="#DejaVuSans-Bold-72" transform="translate(1486.083984 0)"/>
    <use xlink:href="#DejaVuSans-Bold-6f" transform="translate(1535.400391 0)"/>
    <use xlink:href="#DejaVuSans-Bold-70" transform="translate(1604.101562 0)"/>
    <use xlink:href="#DejaVuSans-Bold-79" transform="translate(1675.683594 0)"/>
    <use xlink:href="#DejaVuSans-Bold-29" transform="translate(1740.869141 0)"/>
   </g>
  </g>
 </g>
 <defs>
  <clipPath id="pa3b9a63e53">
   <rect x="50.87" y="57.0062" width="579.15765" height="333.0338"/>
  </clipPath>
 </defs>
</svg>
