<?xml version="1.0" encoding="utf-8" standalone="no"?>
<!DOCTYPE svg PUBLIC "-//W3C//DTD SVG 1.1//EN"
  "http://www.w3.org/Graphics/SVG/1.1/DTD/svg11.dtd">
<svg xmlns:xlink="http://www.w3.org/1999/xlink" width="648pt" height="432pt" viewBox="0 0 648 432" xmlns="http://www.w3.org/2000/svg" version="1.1">
 <metadata>
  <rdf:RDF xmlns:dc="http://purl.org/dc/elements/1.1/" xmlns:cc="http://creativecommons.org/ns#" xmlns:rdf="http://www.w3.org/1999/02/22-rdf-syntax-ns#">
   <cc:Work>
    <dc:type rdf:resource="http://purl.org/dc/dcmitype/StillImage"/>
    <dc:date>2025-07-27T14:37:13.706238</dc:date>
    <dc:format>image/svg+xml</dc:format>
    <dc:creator>
     <cc:Agent>
      <dc:title>Matplotlib v3.10.0, https://matplotlib.org/</dc:title>
     </cc:Agent>
    </dc:creator>
   </cc:Work>
  </rdf:RDF>
 </metadata>
 <defs>
  <style type="text/css">*{stroke-linejoin: round; stroke-linecap: butt}</style>
 </defs>
 <g id="figure_1">
  <g id="patch_1">
   <path d="M 0 432 
L 648 432 
L 648 0 
L 0 0 
z
" style="fill: #ffffff"/>
  </g>
  <g id="axes_1">
   <g id="patch_2">
    <path d="M 31.88 390.04 
L 630.02765 390.04 
L 630.02765 60.48 
L 31.88 60.48 
z
" style="fill: #eaeaf2"/>
   </g>
   <g id="matplotlib.axis_1">
    <g id="xtick_1">
     <g id="line2d_1">
      <path d="M 31.882921 390.04 
L 31.882921 60.48 
" clip-path="url(#p56561037f7)" style="fill: none; stroke: #ffffff; stroke-width: 0.8; stroke-linecap: round"/>
     </g>
     <g id="text_1">
      <!-- 0 -->
      <g style="fill: #262626" transform="translate(28.701671 404.638438) scale(0.1 -0.1)">
       <defs>
        <path id="DejaVuSans-30" d="M 2034 4250 
Q 1547 4250 1301 3770 
Q 1056 3291 1056 2328 
Q 1056 1369 1301 889 
Q 1547 409 2034 409 
Q 2525 409 2770 889 
Q 3016 1369 3016 2328 
Q 3016 3291 2770 3770 
Q 2525 4250 2034 4250 
z
M 2034 4750 
Q 2819 4750 3233 4129 
Q 3647 3509 3647 2328 
Q 3647 1150 3233 529 
Q 2819 -91 2034 -91 
Q 1250 -91 836 529 
Q 422 1150 422 2328 
Q 422 3509 836 4129 
Q 1250 4750 2034 4750 
z
" transform="scale(0.015625)"/>
       </defs>
       <use xlink:href="#DejaVuSans-30"/>
      </g>
     </g>
    </g>
    <g id="xtick_2">
     <g id="line2d_2">
      <path d="M 129.236731 390.04 
L 129.236731 60.48 
" clip-path="url(#p56561037f7)" style="fill: none; stroke: #ffffff; stroke-width: 0.8; stroke-linecap: round"/>
     </g>
     <g id="text_2">
      <!-- 100000 -->
      <g style="fill: #262626" transform="translate(110.149231 404.638438) scale(0.1 -0.1)">
       <defs>
        <path id="DejaVuSans-31" d="M 794 531 
L 1825 531 
L 1825 4091 
L 703 3866 
L 703 4441 
L 1819 4666 
L 2450 4666 
L 2450 531 
L 3481 531 
L 3481 0 
L 794 0 
L 794 531 
z
" transform="scale(0.015625)"/>
       </defs>
       <use xlink:href="#DejaVuSans-31"/>
       <use xlink:href="#DejaVuSans-30" transform="translate(63.623047 0)"/>
       <use xlink:href="#DejaVuSans-30" transform="translate(127.246094 0)"/>
       <use xlink:href="#DejaVuSans-30" transform="translate(190.869141 0)"/>
       <use xlink:href="#DejaVuSans-30" transform="translate(254.492188 0)"/>
       <use xlink:href="#DejaVuSans-30" transform="translate(318.115234 0)"/>
      </g>
     </g>
    </g>
    <g id="xtick_3">
     <g id="line2d_3">
      <path d="M 226.590541 390.04 
L 226.590541 60.48 
" clip-path="url(#p56561037f7)" style="fill: none; stroke: #ffffff; stroke-width: 0.8; stroke-linecap: round"/>
     </g>
     <g id="text_3">
      <!-- 200000 -->
      <g style="fill: #262626" transform="translate(207.503041 404.638438) scale(0.1 -0.1)">
       <defs>
        <path id="DejaVuSans-32" d="M 1228 531 
L 3431 531 
L 3431 0 
L 469 0 
L 469 531 
Q 828 903 1448 1529 
Q 2069 2156 2228 2338 
Q 2531 2678 2651 2914 
Q 2772 3150 2772 3378 
Q 2772 3750 2511 3984 
Q 2250 4219 1831 4219 
Q 1534 4219 1204 4116 
Q 875 4013 500 3803 
L 500 4441 
Q 881 4594 1212 4672 
Q 1544 4750 1819 4750 
Q 2544 4750 2975 4387 
Q 3406 4025 3406 3419 
Q 3406 3131 3298 2873 
Q 3191 2616 2906 2266 
Q 2828 2175 2409 1742 
Q 1991 1309 1228 531 
z
" transform="scale(0.015625)"/>
       </defs>
       <use xlink:href="#DejaVuSans-32"/>
       <use xlink:href="#DejaVuSans-30" transform="translate(63.623047 0)"/>
       <use xlink:href="#DejaVuSans-30" transform="translate(127.246094 0)"/>
       <use xlink:href="#DejaVuSans-30" transform="translate(190.869141 0)"/>
       <use xlink:href="#DejaVuSans-30" transform="translate(254.492188 0)"/>
       <use xlink:href="#DejaVuSans-30" transform="translate(318.115234 0)"/>
      </g>
     </g>
    </g>
    <g id="xtick_4">
     <g id="line2d_4">
      <path d="M 323.944351 390.04 
L 323.944351 60.48 
" clip-path="url(#p56561037f7)" style="fill: none; stroke: #ffffff; stroke-width: 0.8; stroke-linecap: round"/>
     </g>
     <g id="text_4">
      <!-- 300000 -->
      <g style="fill: #262626" transform="translate(304.856851 404.638438) scale(0.1 -0.1)">
       <defs>
        <path id="DejaVuSans-33" d="M 2597 2516 
Q 3050 2419 3304 2112 
Q 3559 1806 3559 1356 
Q 3559 666 3084 287 
Q 2609 -91 1734 -91 
Q 1441 -91 1130 -33 
Q 819 25 488 141 
L 488 750 
Q 750 597 1062 519 
Q 1375 441 1716 441 
Q 2309 441 2620 675 
Q 2931 909 2931 1356 
Q 2931 1769 2642 2001 
Q 2353 2234 1838 2234 
L 1294 2234 
L 1294 2753 
L 1863 2753 
Q 2328 2753 2575 2939 
Q 2822 3125 2822 3475 
Q 2822 3834 2567 4026 
Q 2313 4219 1838 4219 
Q 1578 4219 1281 4162 
Q 984 4106 628 3988 
L 628 4550 
Q 988 4650 1302 4700 
Q 1616 4750 1894 4750 
Q 2613 4750 3031 4423 
Q 3450 4097 3450 3541 
Q 3450 3153 3228 2886 
Q 3006 2619 2597 2516 
z
" transform="scale(0.015625)"/>
       </defs>
       <use xlink:href="#DejaVuSans-33"/>
       <use xlink:href="#DejaVuSans-30" transform="translate(63.623047 0)"/>
       <use xlink:href="#DejaVuSans-30" transform="translate(127.246094 0)"/>
       <use xlink:href="#DejaVuSans-30" transform="translate(190.869141 0)"/>
       <use xlink:href="#DejaVuSans-30" transform="translate(254.492188 0)"/>
       <use xlink:href="#DejaVuSans-30" transform="translate(318.115234 0)"/>
      </g>
     </g>
    </g>
    <g id="xtick_5">
     <g id="line2d_5">
      <path d="M 421.29816 390.04 
L 421.29816 60.48 
" clip-path="url(#p56561037f7)" style="fill: none; stroke: #ffffff; stroke-width: 0.8; stroke-linecap: round"/>
     </g>
     <g id="text_5">
      <!-- 400000 -->
      <g style="fill: #262626" transform="translate(402.21066 404.638438) scale(0.1 -0.1)">
       <defs>
        <path id="DejaVuSans-34" d="M 2419 4116 
L 825 1625 
L 2419 1625 
L 2419 4116 
z
M 2253 4666 
L 3047 4666 
L 3047 1625 
L 3713 1625 
L 3713 1100 
L 3047 1100 
L 3047 0 
L 2419 0 
L 2419 1100 
L 313 1100 
L 313 1709 
L 2253 4666 
z
" transform="scale(0.015625)"/>
       </defs>
       <use xlink:href="#DejaVuSans-34"/>
       <use xlink:href="#DejaVuSans-30" transform="translate(63.623047 0)"/>
       <use xlink:href="#DejaVuSans-30" transform="translate(127.246094 0)"/>
       <use xlink:href="#DejaVuSans-30" transform="translate(190.869141 0)"/>
       <use xlink:href="#DejaVuSans-30" transform="translate(254.492188 0)"/>
       <use xlink:href="#DejaVuSans-30" transform="translate(318.115234 0)"/>
      </g>
     </g>
    </g>
    <g id="xtick_6">
     <g id="line2d_6">
      <path d="M 518.65197 390.04 
L 518.65197 60.48 
" clip-path="url(#p56561037f7)" style="fill: none; stroke: #ffffff; stroke-width: 0.8; stroke-linecap: round"/>
     </g>
     <g id="text_6">
      <!-- 500000 -->
      <g style="fill: #262626" transform="translate(499.56447 404.638438) scale(0.1 -0.1)">
       <defs>
        <path id="DejaVuSans-35" d="M 691 4666 
L 3169 4666 
L 3169 4134 
L 1269 4134 
L 1269 2991 
Q 1406 3038 1543 3061 
Q 1681 3084 1819 3084 
Q 2600 3084 3056 2656 
Q 3513 2228 3513 1497 
Q 3513 744 3044 326 
Q 2575 -91 1722 -91 
Q 1428 -91 1123 -41 
Q 819 9 494 109 
L 494 744 
Q 775 591 1075 516 
Q 1375 441 1709 441 
Q 2250 441 2565 725 
Q 2881 1009 2881 1497 
Q 2881 1984 2565 2268 
Q 2250 2553 1709 2553 
Q 1456 2553 1204 2497 
Q 953 2441 691 2322 
L 691 4666 
z
" transform="scale(0.015625)"/>
       </defs>
       <use xlink:href="#DejaVuSans-35"/>
       <use xlink:href="#DejaVuSans-30" transform="translate(63.623047 0)"/>
       <use xlink:href="#DejaVuSans-30" transform="translate(127.246094 0)"/>
       <use xlink:href="#DejaVuSans-30" transform="translate(190.869141 0)"/>
       <use xlink:href="#DejaVuSans-30" transform="translate(254.492188 0)"/>
       <use xlink:href="#DejaVuSans-30" transform="translate(318.115234 0)"/>
      </g>
     </g>
    </g>
    <g id="xtick_7">
     <g id="line2d_7">
      <path d="M 616.00578 390.04 
L 616.00578 60.48 
" clip-path="url(#p56561037f7)" style="fill: none; stroke: #ffffff; stroke-width: 0.8; stroke-linecap: round"/>
     </g>
     <g id="text_7">
      <!-- 600000 -->
      <g style="fill: #262626" transform="translate(596.91828 404.638438) scale(0.1 -0.1)">
       <defs>
        <path id="DejaVuSans-36" d="M 2113 2584 
Q 1688 2584 1439 2293 
Q 1191 2003 1191 1497 
Q 1191 994 1439 701 
Q 1688 409 2113 409 
Q 2538 409 2786 701 
Q 3034 994 3034 1497 
Q 3034 2003 2786 2293 
Q 2538 2584 2113 2584 
z
M 3366 4563 
L 3366 3988 
Q 3128 4100 2886 4159 
Q 2644 4219 2406 4219 
Q 1781 4219 1451 3797 
Q 1122 3375 1075 2522 
Q 1259 2794 1537 2939 
Q 1816 3084 2150 3084 
Q 2853 3084 3261 2657 
Q 3669 2231 3669 1497 
Q 3669 778 3244 343 
Q 2819 -91 2113 -91 
Q 1303 -91 875 529 
Q 447 1150 447 2328 
Q 447 3434 972 4092 
Q 1497 4750 2381 4750 
Q 2619 4750 2861 4703 
Q 3103 4656 3366 4563 
z
" transform="scale(0.015625)"/>
       </defs>
       <use xlink:href="#DejaVuSans-36"/>
       <use xlink:href="#DejaVuSans-30" transform="translate(63.623047 0)"/>
       <use xlink:href="#DejaVuSans-30" transform="translate(127.246094 0)"/>
       <use xlink:href="#DejaVuSans-30" transform="translate(190.869141 0)"/>
       <use xlink:href="#DejaVuSans-30" transform="translate(254.492188 0)"/>
       <use xlink:href="#DejaVuSans-30" transform="translate(318.115234 0)"/>
      </g>
     </g>
    </g>
    <g id="text_8">
     <!-- Steps -->
     <g style="fill: #262626" transform="translate(316.963981 418.316562) scale(0.1 -0.1)">
      <defs>
       <path id="DejaVuSans-53" d="M 3425 4513 
L 3425 3897 
Q 3066 4069 2747 4153 
Q 2428 4238 2131 4238 
Q 1616 4238 1336 4038 
Q 1056 3838 1056 3469 
Q 1056 3159 1242 3001 
Q 1428 2844 1947 2747 
L 2328 2669 
Q 3034 2534 3370 2195 
Q 3706 1856 3706 1288 
Q 3706 609 3251 259 
Q 2797 -91 1919 -91 
Q 1588 -91 1214 -16 
Q 841 59 441 206 
L 441 856 
Q 825 641 1194 531 
Q 1563 422 1919 422 
Q 2459 422 2753 634 
Q 3047 847 3047 1241 
Q 3047 1584 2836 1778 
Q 2625 1972 2144 2069 
L 1759 2144 
Q 1053 2284 737 2584 
Q 422 2884 422 3419 
Q 422 4038 858 4394 
Q 1294 4750 2059 4750 
Q 2388 4750 2728 4690 
Q 3069 4631 3425 4513 
z
" transform="scale(0.015625)"/>
       <path id="DejaVuSans-74" d="M 1172 4494 
L 1172 3500 
L 2356 3500 
L 2356 3053 
L 1172 3053 
L 1172 1153 
Q 1172 725 1289 603 
Q 1406 481 1766 481 
L 2356 481 
L 2356 0 
L 1766 0 
Q 1100 0 847 248 
Q 594 497 594 1153 
L 594 3053 
L 172 3053 
L 172 3500 
L 594 3500 
L 594 4494 
L 1172 4494 
z
" transform="scale(0.015625)"/>
       <path id="DejaVuSans-65" d="M 3597 1894 
L 3597 1613 
L 953 1613 
Q 991 1019 1311 708 
Q 1631 397 2203 397 
Q 2534 397 2845 478 
Q 3156 559 3463 722 
L 3463 178 
Q 3153 47 2828 -22 
Q 2503 -91 2169 -91 
Q 1331 -91 842 396 
Q 353 884 353 1716 
Q 353 2575 817 3079 
Q 1281 3584 2069 3584 
Q 2775 3584 3186 3129 
Q 3597 2675 3597 1894 
z
M 3022 2063 
Q 3016 2534 2758 2815 
Q 2500 3097 2075 3097 
Q 1594 3097 1305 2825 
Q 1016 2553 972 2059 
L 3022 2063 
z
" transform="scale(0.015625)"/>
       <path id="DejaVuSans-70" d="M 1159 525 
L 1159 -1331 
L 581 -1331 
L 581 3500 
L 1159 3500 
L 1159 2969 
Q 1341 3281 1617 3432 
Q 1894 3584 2278 3584 
Q 2916 3584 3314 3078 
Q 3713 2572 3713 1747 
Q 3713 922 3314 415 
Q 2916 -91 2278 -91 
Q 1894 -91 1617 61 
Q 1341 213 1159 525 
z
M 3116 1747 
Q 3116 2381 2855 2742 
Q 2594 3103 2138 3103 
Q 1681 3103 1420 2742 
Q 1159 2381 1159 1747 
Q 1159 1113 1420 752 
Q 1681 391 2138 391 
Q 2594 391 2855 752 
Q 3116 1113 3116 1747 
z
" transform="scale(0.015625)"/>
       <path id="DejaVuSans-73" d="M 2834 3397 
L 2834 2853 
Q 2591 2978 2328 3040 
Q 2066 3103 1784 3103 
Q 1356 3103 1142 2972 
Q 928 2841 928 2578 
Q 928 2378 1081 2264 
Q 1234 2150 1697 2047 
L 1894 2003 
Q 2506 1872 2764 1633 
Q 3022 1394 3022 966 
Q 3022 478 2636 193 
Q 2250 -91 1575 -91 
Q 1294 -91 989 -36 
Q 684 19 347 128 
L 347 722 
Q 666 556 975 473 
Q 1284 391 1588 391 
Q 1994 391 2212 530 
Q 2431 669 2431 922 
Q 2431 1156 2273 1281 
Q 2116 1406 1581 1522 
L 1381 1569 
Q 847 1681 609 1914 
Q 372 2147 372 2553 
Q 372 3047 722 3315 
Q 1072 3584 1716 3584 
Q 2034 3584 2315 3537 
Q 2597 3491 2834 3397 
z
" transform="scale(0.015625)"/>
      </defs>
      <use xlink:href="#DejaVuSans-53"/>
      <use xlink:href="#DejaVuSans-74" transform="translate(63.476562 0)"/>
      <use xlink:href="#DejaVuSans-65" transform="translate(102.685547 0)"/>
      <use xlink:href="#DejaVuSans-70" transform="translate(164.208984 0)"/>
      <use xlink:href="#DejaVuSans-73" transform="translate(227.685547 0)"/>
     </g>
    </g>
   </g>
   <g id="matplotlib.axis_2">
    <g id="ytick_1">
     <g id="line2d_8">
      <path d="M 31.88 390.04 
L 630.02765 390.04 
" clip-path="url(#p56561037f7)" style="fill: none; stroke: #ffffff; stroke-width: 0.8; stroke-linecap: round"/>
     </g>
    </g>
    <g id="ytick_2">
     <g id="line2d_9">
      <path d="M 31.88 352.59 
L 630.02765 352.59 
" clip-path="url(#p56561037f7)" style="fill: none; stroke: #ffffff; stroke-width: 0.8; stroke-linecap: round"/>
     </g>
    </g>
    <g id="ytick_3">
     <g id="line2d_10">
      <path d="M 31.88 315.14 
L 630.02765 315.14 
" clip-path="url(#p56561037f7)" style="fill: none; stroke: #ffffff; stroke-width: 0.8; stroke-linecap: round"/>
     </g>
    </g>
    <g id="ytick_4">
     <g id="line2d_11">
      <path d="M 31.88 277.69 
L 630.02765 277.69 
" clip-path="url(#p56561037f7)" style="fill: none; stroke: #ffffff; stroke-width: 0.8; stroke-linecap: round"/>
     </g>
    </g>
    <g id="ytick_5">
     <g id="line2d_12">
      <path d="M 31.88 240.24 
L 630.02765 240.24 
" clip-path="url(#p56561037f7)" style="fill: none; stroke: #ffffff; stroke-width: 0.8; stroke-linecap: round"/>
     </g>
    </g>
    <g id="ytick_6">
     <g id="line2d_13">
      <path d="M 31.88 202.79 
L 630.02765 202.79 
" clip-path="url(#p56561037f7)" style="fill: none; stroke: #ffffff; stroke-width: 0.8; stroke-linecap: round"/>
     </g>
    </g>
    <g id="ytick_7">
     <g id="line2d_14">
      <path d="M 31.88 165.34 
L 630.02765 165.34 
" clip-path="url(#p56561037f7)" style="fill: none; stroke: #ffffff; stroke-width: 0.8; stroke-linecap: round"/>
     </g>
    </g>
    <g id="ytick_8">
     <g id="line2d_15">
      <path d="M 31.88 127.89 
L 630.02765 127.89 
" clip-path="url(#p56561037f7)" style="fill: none; stroke: #ffffff; stroke-width: 0.8; stroke-linecap: round"/>
     </g>
    </g>
    <g id="ytick_9">
     <g id="line2d_16">
      <path d="M 31.88 90.44 
L 630.02765 90.44 
" clip-path="url(#p56561037f7)" style="fill: none; stroke: #ffffff; stroke-width: 0.8; stroke-linecap: round"/>
     </g>
    </g>
    <g id="text_9">
     <!-- Normalized Axis -->
     <g style="fill: #262626" transform="translate(18.800313 265.577969) rotate(-90) scale(0.1 -0.1)">
      <defs>
       <path id="DejaVuSans-4e" d="M 628 4666 
L 1478 4666 
L 3547 763 
L 3547 4666 
L 4159 4666 
L 4159 0 
L 3309 0 
L 1241 3903 
L 1241 0 
L 628 0 
L 628 4666 
z
" transform="scale(0.015625)"/>
       <path id="DejaVuSans-6f" d="M 1959 3097 
Q 1497 3097 1228 2736 
Q 959 2375 959 1747 
Q 959 1119 1226 758 
Q 1494 397 1959 397 
Q 2419 397 2687 759 
Q 2956 1122 2956 1747 
Q 2956 2369 2687 2733 
Q 2419 3097 1959 3097 
z
M 1959 3584 
Q 2709 3584 3137 3096 
Q 3566 2609 3566 1747 
Q 3566 888 3137 398 
Q 2709 -91 1959 -91 
Q 1206 -91 779 398 
Q 353 888 353 1747 
Q 353 2609 779 3096 
Q 1206 3584 1959 3584 
z
" transform="scale(0.015625)"/>
       <path id="DejaVuSans-72" d="M 2631 2963 
Q 2534 3019 2420 3045 
Q 2306 3072 2169 3072 
Q 1681 3072 1420 2755 
Q 1159 2438 1159 1844 
L 1159 0 
L 581 0 
L 581 3500 
L 1159 3500 
L 1159 2956 
Q 1341 3275 1631 3429 
Q 1922 3584 2338 3584 
Q 2397 3584 2469 3576 
Q 2541 3569 2628 3553 
L 2631 2963 
z
" transform="scale(0.015625)"/>
       <path id="DejaVuSans-6d" d="M 3328 2828 
Q 3544 3216 3844 3400 
Q 4144 3584 4550 3584 
Q 5097 3584 5394 3201 
Q 5691 2819 5691 2113 
L 5691 0 
L 5113 0 
L 5113 2094 
Q 5113 2597 4934 2840 
Q 4756 3084 4391 3084 
Q 3944 3084 3684 2787 
Q 3425 2491 3425 1978 
L 3425 0 
L 2847 0 
L 2847 2094 
Q 2847 2600 2669 2842 
Q 2491 3084 2119 3084 
Q 1678 3084 1418 2786 
Q 1159 2488 1159 1978 
L 1159 0 
L 581 0 
L 581 3500 
L 1159 3500 
L 1159 2956 
Q 1356 3278 1631 3431 
Q 1906 3584 2284 3584 
Q 2666 3584 2933 3390 
Q 3200 3197 3328 2828 
z
" transform="scale(0.015625)"/>
       <path id="DejaVuSans-61" d="M 2194 1759 
Q 1497 1759 1228 1600 
Q 959 1441 959 1056 
Q 959 750 1161 570 
Q 1363 391 1709 391 
Q 2188 391 2477 730 
Q 2766 1069 2766 1631 
L 2766 1759 
L 2194 1759 
z
M 3341 1997 
L 3341 0 
L 2766 0 
L 2766 531 
Q 2569 213 2275 61 
Q 1981 -91 1556 -91 
Q 1019 -91 701 211 
Q 384 513 384 1019 
Q 384 1609 779 1909 
Q 1175 2209 1959 2209 
L 2766 2209 
L 2766 2266 
Q 2766 2663 2505 2880 
Q 2244 3097 1772 3097 
Q 1472 3097 1187 3025 
Q 903 2953 641 2809 
L 641 3341 
Q 956 3463 1253 3523 
Q 1550 3584 1831 3584 
Q 2591 3584 2966 3190 
Q 3341 2797 3341 1997 
z
" transform="scale(0.015625)"/>
       <path id="DejaVuSans-6c" d="M 603 4863 
L 1178 4863 
L 1178 0 
L 603 0 
L 603 4863 
z
" transform="scale(0.015625)"/>
       <path id="DejaVuSans-69" d="M 603 3500 
L 1178 3500 
L 1178 0 
L 603 0 
L 603 3500 
z
M 603 4863 
L 1178 4863 
L 1178 4134 
L 603 4134 
L 603 4863 
z
" transform="scale(0.015625)"/>
       <path id="DejaVuSans-7a" d="M 353 3500 
L 3084 3500 
L 3084 2975 
L 922 459 
L 3084 459 
L 3084 0 
L 275 0 
L 275 525 
L 2438 3041 
L 353 3041 
L 353 3500 
z
" transform="scale(0.015625)"/>
       <path id="DejaVuSans-64" d="M 2906 2969 
L 2906 4863 
L 3481 4863 
L 3481 0 
L 2906 0 
L 2906 525 
Q 2725 213 2448 61 
Q 2172 -91 1784 -91 
Q 1150 -91 751 415 
Q 353 922 353 1747 
Q 353 2572 751 3078 
Q 1150 3584 1784 3584 
Q 2172 3584 2448 3432 
Q 2725 3281 2906 2969 
z
M 947 1747 
Q 947 1113 1208 752 
Q 1469 391 1925 391 
Q 2381 391 2643 752 
Q 2906 1113 2906 1747 
Q 2906 2381 2643 2742 
Q 2381 3103 1925 3103 
Q 1469 3103 1208 2742 
Q 947 2381 947 1747 
z
" transform="scale(0.015625)"/>
       <path id="DejaVuSans-20" transform="scale(0.015625)"/>
       <path id="DejaVuSans-41" d="M 2188 4044 
L 1331 1722 
L 3047 1722 
L 2188 4044 
z
M 1831 4666 
L 2547 4666 
L 4325 0 
L 3669 0 
L 3244 1197 
L 1141 1197 
L 716 0 
L 50 0 
L 1831 4666 
z
" transform="scale(0.015625)"/>
       <path id="DejaVuSans-78" d="M 3513 3500 
L 2247 1797 
L 3578 0 
L 2900 0 
L 1881 1375 
L 863 0 
L 184 0 
L 1544 1831 
L 300 3500 
L 978 3500 
L 1906 2253 
L 2834 3500 
L 3513 3500 
z
" transform="scale(0.015625)"/>
      </defs>
      <use xlink:href="#DejaVuSans-4e"/>
      <use xlink:href="#DejaVuSans-6f" transform="translate(74.804688 0)"/>
      <use xlink:href="#DejaVuSans-72" transform="translate(135.986328 0)"/>
      <use xlink:href="#DejaVuSans-6d" transform="translate(175.349609 0)"/>
      <use xlink:href="#DejaVuSans-61" transform="translate(272.761719 0)"/>
      <use xlink:href="#DejaVuSans-6c" transform="translate(334.041016 0)"/>
      <use xlink:href="#DejaVuSans-69" transform="translate(361.824219 0)"/>
      <use xlink:href="#DejaVuSans-7a" transform="translate(389.607422 0)"/>
      <use xlink:href="#DejaVuSans-65" transform="translate(442.097656 0)"/>
      <use xlink:href="#DejaVuSans-64" transform="translate(503.621094 0)"/>
      <use xlink:href="#DejaVuSans-20" transform="translate(567.097656 0)"/>
      <use xlink:href="#DejaVuSans-41" transform="translate(598.884766 0)"/>
      <use xlink:href="#DejaVuSans-78" transform="translate(667.292969 0)"/>
      <use xlink:href="#DejaVuSans-69" transform="translate(726.472656 0)"/>
      <use xlink:href="#DejaVuSans-73" transform="translate(754.255859 0)"/>
     </g>
    </g>
   </g>
   <g id="FillBetweenPolyCollection_1">
    <path d="M 31.882921 390.04 
L 31.882921 390.04 
L 35.870533 390.04 
L 39.858145 390.04 
L 43.845757 390.04 
L 47.833369 390.04 
L 51.820981 390.04 
L 55.808593 390.04 
L 59.796205 390.04 
L 63.783817 390.04 
L 67.771429 390.04 
L 71.759041 390.04 
L 75.746653 390.04 
L 79.734265 390.04 
L 83.721877 390.04 
L 87.709489 390.04 
L 91.697101 390.04 
L 95.684714 390.04 
L 99.672326 390.04 
L 103.659938 390.04 
L 107.64755 390.04 
L 111.635162 390.04 
L 115.622774 390.04 
L 119.610386 390.04 
L 123.597998 390.04 
L 127.58561 390.04 
L 131.573222 390.04 
L 135.560834 390.04 
L 139.548446 390.04 
L 143.536058 390.04 
L 147.52367 390.04 
L 151.511282 390.04 
L 155.498894 390.04 
L 159.486506 390.04 
L 163.474118 390.04 
L 167.461731 390.04 
L 171.449343 390.04 
L 175.436955 390.04 
L 179.424567 390.04 
L 183.412179 390.04 
L 187.399791 390.04 
L 191.387403 390.04 
L 195.375015 390.04 
L 199.362627 390.04 
L 203.350239 390.04 
L 207.337851 390.04 
L 211.325463 390.04 
L 215.313075 390.04 
L 219.300687 390.04 
L 223.288299 390.04 
L 227.275911 390.04 
L 231.263523 390.04 
L 235.251135 390.04 
L 239.238748 390.04 
L 243.22636 390.04 
L 247.213972 390.04 
L 251.201584 390.04 
L 255.189196 390.04 
L 259.176808 390.04 
L 263.16442 390.04 
L 267.152032 390.04 
L 271.139644 390.04 
L 275.127256 390.04 
L 279.114868 390.04 
L 283.10248 390.04 
L 287.090092 390.04 
L 291.077704 390.04 
L 295.065316 390.04 
L 299.052928 390.04 
L 303.04054 390.04 
L 307.028153 390.04 
L 311.015765 390.04 
L 315.003377 390.04 
L 318.990989 390.04 
L 322.978601 390.04 
L 326.966213 390.04 
L 330.953825 390.04 
L 334.941437 390.04 
L 338.929049 390.04 
L 342.916661 390.04 
L 346.904273 390.04 
L 350.891885 390.04 
L 354.879497 390.04 
L 358.867109 390.04 
L 362.854721 390.04 
L 366.842333 390.04 
L 370.829945 390.04 
L 374.817557 390.04 
L 378.80517 390.04 
L 382.792782 390.04 
L 386.780394 390.04 
L 390.768006 390.04 
L 394.755618 390.04 
L 398.74323 390.04 
L 402.730842 390.04 
L 406.718454 390.04 
L 410.706066 390.04 
L 414.693678 390.04 
L 418.68129 390.04 
L 422.668902 390.04 
L 426.656514 390.04 
L 430.644126 390.04 
L 434.631738 390.04 
L 438.61935 390.04 
L 442.606962 390.04 
L 446.594574 390.04 
L 450.582187 390.04 
L 454.569799 390.04 
L 458.557411 390.04 
L 462.545023 390.04 
L 466.532635 390.04 
L 470.520247 390.04 
L 474.507859 390.04 
L 478.495471 390.04 
L 482.483083 390.04 
L 486.470695 390.04 
L 490.458307 390.04 
L 494.445919 390.04 
L 498.433531 390.04 
L 502.421143 390.04 
L 506.408755 390.04 
L 510.396367 390.04 
L 514.383979 390.04 
L 518.371591 390.04 
L 522.359204 390.04 
L 526.346816 390.04 
L 530.334428 390.04 
L 534.32204 390.04 
L 538.309652 390.04 
L 542.297264 390.04 
L 546.284876 390.04 
L 550.272488 390.04 
L 554.2601 390.04 
L 558.247712 390.04 
L 562.235324 390.04 
L 566.222936 390.04 
L 570.210548 390.04 
L 574.19816 390.04 
L 578.185772 390.04 
L 582.173384 390.04 
L 586.160996 390.04 
L 590.148609 390.04 
L 594.136221 390.04 
L 598.123833 390.04 
L 602.111445 390.04 
L 606.099057 390.04 
L 610.086669 390.04 
L 614.074281 390.04 
L 618.061893 390.04 
L 622.049505 390.04 
L 626.037117 390.04 
L 626.037117 390.04 
L 626.037117 390.04 
L 622.049505 390.04 
L 618.061893 390.04 
L 614.074281 390.04 
L 610.086669 390.04 
L 606.099057 390.04 
L 602.111445 390.04 
L 598.123833 390.04 
L 594.136221 390.04 
L 590.148609 390.04 
L 586.160996 390.04 
L 582.173384 390.04 
L 578.185772 390.04 
L 574.19816 390.04 
L 570.210548 390.04 
L 566.222936 390.04 
L 562.235324 390.04 
L 558.247712 390.04 
L 554.2601 390.04 
L 550.272488 390.04 
L 546.284876 390.04 
L 542.297264 390.04 
L 538.309652 390.04 
L 534.32204 390.04 
L 530.334428 390.04 
L 526.346816 390.04 
L 522.359204 390.04 
L 518.371591 390.04 
L 514.383979 390.04 
L 510.396367 390.04 
L 506.408755 390.04 
L 502.421143 390.04 
L 498.433531 390.04 
L 494.445919 390.04 
L 490.458307 390.04 
L 486.470695 390.04 
L 482.483083 390.04 
L 478.495471 390.04 
L 474.507859 390.04 
L 470.520247 390.04 
L 466.532635 390.04 
L 462.545023 390.04 
L 458.557411 390.04 
L 454.569799 390.04 
L 450.582187 390.04 
L 446.594574 390.04 
L 442.606962 390.04 
L 438.61935 390.04 
L 434.631738 390.04 
L 430.644126 390.04 
L 426.656514 390.04 
L 422.668902 390.04 
L 418.68129 390.04 
L 414.693678 390.04 
L 410.706066 390.04 
L 406.718454 390.04 
L 402.730842 390.04 
L 398.74323 390.04 
L 394.755618 390.04 
L 390.768006 390.04 
L 386.780394 390.04 
L 382.792782 390.04 
L 378.80517 390.04 
L 374.817557 390.04 
L 370.829945 390.04 
L 366.842333 390.04 
L 362.854721 390.04 
L 358.867109 390.04 
L 354.879497 390.04 
L 350.891885 390.04 
L 346.904273 390.04 
L 342.916661 390.04 
L 338.929049 390.04 
L 334.941437 390.04 
L 330.953825 390.04 
L 326.966213 390.04 
L 322.978601 390.04 
L 318.990989 390.04 
L 315.003377 390.04 
L 311.015765 390.04 
L 307.028153 390.04 
L 303.04054 390.04 
L 299.052928 390.04 
L 295.065316 390.04 
L 291.077704 390.04 
L 287.090092 390.04 
L 283.10248 390.04 
L 279.114868 390.04 
L 275.127256 390.04 
L 271.139644 390.04 
L 267.152032 390.04 
L 263.16442 390.04 
L 259.176808 390.04 
L 255.189196 390.04 
L 251.201584 390.04 
L 247.213972 390.04 
L 243.22636 390.04 
L 239.238748 390.04 
L 235.251135 390.04 
L 231.263523 390.04 
L 227.275911 390.04 
L 223.288299 390.04 
L 219.300687 390.04 
L 215.313075 390.04 
L 211.325463 390.04 
L 207.337851 390.04 
L 203.350239 390.04 
L 199.362627 390.04 
L 195.375015 390.04 
L 191.387403 390.04 
L 187.399791 390.04 
L 183.412179 390.04 
L 179.424567 390.04 
L 175.436955 390.04 
L 171.449343 390.04 
L 167.461731 390.04 
L 163.474118 390.04 
L 159.486506 390.04 
L 155.498894 390.04 
L 151.511282 390.04 
L 147.52367 390.04 
L 143.536058 390.04 
L 139.548446 390.04 
L 135.560834 390.04 
L 131.573222 390.04 
L 127.58561 390.04 
L 123.597998 390.04 
L 119.610386 390.04 
L 115.622774 390.04 
L 111.635162 390.04 
L 107.64755 390.04 
L 103.659938 390.04 
L 99.672326 390.04 
L 95.684714 390.04 
L 91.697101 390.04 
L 87.709489 390.04 
L 83.721877 390.04 
L 79.734265 390.04 
L 75.746653 390.04 
L 71.759041 390.04 
L 67.771429 390.04 
L 63.783817 390.04 
L 59.796205 390.04 
L 55.808593 390.04 
L 51.820981 390.04 
L 47.833369 390.04 
L 43.845757 390.04 
L 39.858145 390.04 
L 35.870533 390.04 
L 31.882921 390.04 
z
" clip-path="url(#p56561037f7)" style="fill: #00b899; fill-opacity: 0.2"/>
   </g>
   <g id="FillBetweenPolyCollection_2">
    <path d="M 31.882921 390.04 
L 31.882921 390.04 
L 35.870533 390.04 
L 39.858145 390.04 
L 43.845757 390.04 
L 47.833369 390.04 
L 51.820981 390.04 
L 55.808593 390.04 
L 59.796205 390.04 
L 63.783817 390.04 
L 67.771429 390.04 
L 71.759041 390.04 
L 75.746653 390.04 
L 79.734265 390.04 
L 83.721877 390.04 
L 87.709489 390.04 
L 91.697101 390.04 
L 95.684714 390.04 
L 99.672326 390.04 
L 103.659938 390.04 
L 107.64755 390.04 
L 111.635162 390.04 
L 115.622774 390.04 
L 119.610386 390.04 
L 123.597998 390.04 
L 127.58561 390.04 
L 131.573222 390.04 
L 135.560834 390.04 
L 139.548446 390.04 
L 143.536058 390.04 
L 147.52367 390.04 
L 151.511282 390.04 
L 155.498894 390.04 
L 159.486506 390.04 
L 163.474118 390.04 
L 167.461731 390.04 
L 171.449343 390.04 
L 175.436955 390.04 
L 179.424567 390.04 
L 183.412179 390.04 
L 187.399791 390.04 
L 191.387403 390.04 
L 195.375015 390.04 
L 199.362627 390.04 
L 203.350239 390.04 
L 207.337851 390.04 
L 211.325463 390.04 
L 215.313075 390.04 
L 219.300687 390.04 
L 223.288299 390.04 
L 227.275911 390.04 
L 231.263523 390.04 
L 235.251135 390.04 
L 239.238748 390.04 
L 243.22636 390.04 
L 247.213972 390.04 
L 251.201584 390.04 
L 255.189196 390.04 
L 259.176808 390.04 
L 263.16442 390.04 
L 267.152032 390.04 
L 271.139644 390.04 
L 275.127256 390.04 
L 279.114868 390.04 
L 283.10248 390.04 
L 287.090092 390.04 
L 291.077704 390.04 
L 295.065316 390.04 
L 299.052928 390.04 
L 303.04054 390.04 
L 307.028153 390.04 
L 311.015765 390.04 
L 315.003377 390.04 
L 318.990989 390.04 
L 322.978601 390.04 
L 326.966213 390.04 
L 330.953825 390.04 
L 334.941437 390.04 
L 338.929049 390.04 
L 342.916661 390.04 
L 346.904273 390.04 
L 350.891885 390.04 
L 354.879497 390.04 
L 358.867109 390.04 
L 362.854721 390.04 
L 366.842333 390.04 
L 370.829945 390.04 
L 374.817557 390.04 
L 378.80517 390.04 
L 382.792782 390.04 
L 386.780394 390.04 
L 390.768006 390.04 
L 394.755618 390.04 
L 398.74323 390.04 
L 402.730842 390.04 
L 406.718454 390.04 
L 410.706066 390.04 
L 414.693678 390.04 
L 418.68129 390.04 
L 422.668902 390.04 
L 426.656514 390.04 
L 430.644126 390.04 
L 434.631738 390.04 
L 438.61935 390.04 
L 442.606962 390.04 
L 446.594574 390.04 
L 450.582187 390.04 
L 454.569799 390.04 
L 458.557411 390.04 
L 462.545023 390.04 
L 466.532635 390.04 
L 470.520247 390.04 
L 474.507859 390.04 
L 478.495471 390.04 
L 482.483083 390.04 
L 486.470695 390.04 
L 490.458307 390.04 
L 494.445919 390.04 
L 498.433531 390.04 
L 502.421143 390.04 
L 506.408755 390.04 
L 510.396367 390.04 
L 514.383979 390.04 
L 518.371591 390.04 
L 522.359204 390.04 
L 526.346816 390.04 
L 530.334428 390.04 
L 534.32204 390.04 
L 538.309652 390.04 
L 542.297264 390.04 
L 546.284876 390.04 
L 550.272488 390.04 
L 554.2601 390.04 
L 558.247712 390.04 
L 562.235324 390.04 
L 566.222936 390.04 
L 570.210548 390.04 
L 574.19816 390.04 
L 578.185772 390.04 
L 582.173384 390.04 
L 586.160996 390.04 
L 590.148609 390.04 
L 594.136221 390.04 
L 598.123833 390.04 
L 602.111445 390.04 
L 606.099057 390.04 
L 610.086669 390.04 
L 614.074281 390.04 
L 618.061893 390.04 
L 622.049505 390.04 
L 626.037117 390.04 
L 626.037117 390.04 
L 626.037117 390.04 
L 622.049505 390.04 
L 618.061893 390.04 
L 614.074281 390.04 
L 610.086669 390.04 
L 606.099057 390.04 
L 602.111445 390.04 
L 598.123833 390.04 
L 594.136221 390.04 
L 590.148609 390.04 
L 586.160996 390.04 
L 582.173384 390.04 
L 578.185772 390.04 
L 574.19816 390.04 
L 570.210548 390.04 
L 566.222936 390.04 
L 562.235324 390.04 
L 558.247712 390.04 
L 554.2601 390.04 
L 550.272488 390.04 
L 546.284876 390.04 
L 542.297264 390.04 
L 538.309652 390.04 
L 534.32204 390.04 
L 530.334428 390.04 
L 526.346816 390.04 
L 522.359204 390.04 
L 518.371591 390.04 
L 514.383979 390.04 
L 510.396367 390.04 
L 506.408755 390.04 
L 502.421143 390.04 
L 498.433531 390.04 
L 494.445919 390.04 
L 490.458307 390.04 
L 486.470695 390.04 
L 482.483083 390.04 
L 478.495471 390.04 
L 474.507859 390.04 
L 470.520247 390.04 
L 466.532635 390.04 
L 462.545023 390.04 
L 458.557411 390.04 
L 454.569799 390.04 
L 450.582187 390.04 
L 446.594574 390.04 
L 442.606962 390.04 
L 438.61935 390.04 
L 434.631738 390.04 
L 430.644126 390.04 
L 426.656514 390.04 
L 422.668902 390.04 
L 418.68129 390.04 
L 414.693678 390.04 
L 410.706066 390.04 
L 406.718454 390.04 
L 402.730842 390.04 
L 398.74323 390.04 
L 394.755618 390.04 
L 390.768006 390.04 
L 386.780394 390.04 
L 382.792782 390.04 
L 378.80517 390.04 
L 374.817557 390.04 
L 370.829945 390.04 
L 366.842333 390.04 
L 362.854721 390.04 
L 358.867109 390.04 
L 354.879497 390.04 
L 350.891885 390.04 
L 346.904273 390.04 
L 342.916661 390.04 
L 338.929049 390.04 
L 334.941437 390.04 
L 330.953825 390.04 
L 326.966213 390.04 
L 322.978601 390.04 
L 318.990989 390.04 
L 315.003377 390.04 
L 311.015765 390.04 
L 307.028153 390.04 
L 303.04054 390.04 
L 299.052928 390.04 
L 295.065316 390.04 
L 291.077704 390.04 
L 287.090092 390.04 
L 283.10248 390.04 
L 279.114868 390.04 
L 275.127256 390.04 
L 271.139644 390.04 
L 267.152032 390.04 
L 263.16442 390.04 
L 259.176808 390.04 
L 255.189196 390.04 
L 251.201584 390.04 
L 247.213972 390.04 
L 243.22636 390.04 
L 239.238748 390.04 
L 235.251135 390.04 
L 231.263523 390.04 
L 227.275911 390.04 
L 223.288299 390.04 
L 219.300687 390.04 
L 215.313075 390.04 
L 211.325463 390.04 
L 207.337851 390.04 
L 203.350239 390.04 
L 199.362627 390.04 
L 195.375015 390.04 
L 191.387403 390.04 
L 187.399791 390.04 
L 183.412179 390.04 
L 179.424567 390.04 
L 175.436955 390.04 
L 171.449343 390.04 
L 167.461731 390.04 
L 163.474118 390.04 
L 159.486506 390.04 
L 155.498894 390.04 
L 151.511282 390.04 
L 147.52367 390.04 
L 143.536058 390.04 
L 139.548446 390.04 
L 135.560834 390.04 
L 131.573222 390.04 
L 127.58561 390.04 
L 123.597998 390.04 
L 119.610386 390.04 
L 115.622774 390.04 
L 111.635162 390.04 
L 107.64755 390.04 
L 103.659938 390.04 
L 99.672326 390.04 
L 95.684714 390.04 
L 91.697101 390.04 
L 87.709489 390.04 
L 83.721877 390.04 
L 79.734265 390.04 
L 75.746653 390.04 
L 71.759041 390.04 
L 67.771429 390.04 
L 63.783817 390.04 
L 59.796205 390.04 
L 55.808593 390.04 
L 51.820981 390.04 
L 47.833369 390.04 
L 43.845757 390.04 
L 39.858145 390.04 
L 35.870533 390.04 
L 31.882921 390.04 
z
" clip-path="url(#p56561037f7)" style="fill: #2ca02c; fill-opacity: 0.2"/>
   </g>
   <g id="FillBetweenPolyCollection_3">
    <path d="M 31.882921 390.04 
L 31.882921 390.04 
L 35.870533 390.04 
L 39.858145 390.04 
L 43.845757 390.04 
L 47.833369 390.04 
L 51.820981 390.04 
L 55.808593 390.04 
L 59.796205 390.04 
L 63.783817 390.04 
L 67.771429 390.04 
L 71.759041 390.04 
L 75.746653 390.04 
L 79.734265 390.04 
L 83.721877 390.04 
L 87.709489 390.04 
L 91.697101 390.04 
L 95.684714 390.04 
L 99.672326 390.04 
L 103.659938 390.04 
L 107.64755 390.04 
L 111.635162 390.04 
L 115.622774 390.04 
L 119.610386 390.04 
L 123.597998 390.04 
L 127.58561 390.04 
L 131.573222 390.04 
L 135.560834 390.04 
L 139.548446 390.04 
L 143.536058 390.04 
L 147.52367 390.04 
L 151.511282 390.04 
L 155.498894 390.04 
L 159.486506 390.04 
L 163.474118 390.04 
L 167.461731 390.04 
L 171.449343 390.04 
L 175.436955 390.04 
L 179.424567 390.04 
L 183.412179 390.04 
L 187.399791 390.04 
L 191.387403 390.04 
L 195.375015 390.04 
L 199.362627 390.04 
L 203.350239 390.04 
L 207.337851 390.04 
L 211.325463 390.04 
L 215.313075 390.04 
L 219.300687 390.04 
L 223.288299 390.04 
L 227.275911 390.04 
L 231.263523 390.04 
L 235.251135 390.04 
L 239.238748 390.04 
L 243.22636 390.04 
L 247.213972 390.04 
L 251.201584 390.04 
L 255.189196 390.04 
L 259.176808 390.04 
L 263.16442 390.04 
L 267.152032 390.04 
L 271.139644 390.04 
L 275.127256 390.04 
L 279.114868 390.04 
L 283.10248 390.04 
L 287.090092 390.04 
L 291.077704 390.04 
L 295.065316 390.04 
L 299.052928 390.04 
L 303.04054 390.04 
L 307.028153 390.04 
L 311.015765 390.04 
L 315.003377 390.04 
L 318.990989 390.04 
L 322.978601 390.04 
L 326.966213 390.04 
L 330.953825 390.04 
L 334.941437 390.04 
L 338.929049 390.04 
L 342.916661 390.04 
L 346.904273 390.04 
L 350.891885 390.04 
L 354.879497 390.04 
L 358.867109 390.04 
L 362.854721 390.04 
L 366.842333 390.04 
L 370.829945 390.04 
L 374.817557 390.04 
L 378.80517 390.04 
L 382.792782 390.04 
L 386.780394 390.04 
L 390.768006 390.04 
L 394.755618 390.04 
L 398.74323 390.04 
L 402.730842 390.04 
L 406.718454 390.04 
L 410.706066 390.04 
L 414.693678 390.04 
L 418.68129 390.04 
L 422.668902 390.04 
L 426.656514 390.04 
L 430.644126 390.04 
L 434.631738 390.04 
L 438.61935 390.04 
L 442.606962 390.04 
L 446.594574 390.04 
L 450.582187 390.04 
L 454.569799 390.04 
L 458.557411 390.04 
L 462.545023 390.04 
L 466.532635 390.04 
L 470.520247 390.04 
L 474.507859 390.04 
L 478.495471 390.04 
L 482.483083 390.04 
L 486.470695 390.04 
L 490.458307 390.04 
L 494.445919 390.04 
L 498.433531 390.04 
L 502.421143 390.04 
L 506.408755 390.04 
L 510.396367 390.04 
L 514.383979 390.04 
L 518.371591 390.04 
L 522.359204 390.04 
L 526.346816 390.04 
L 530.334428 390.04 
L 534.32204 390.04 
L 538.309652 390.04 
L 542.297264 390.04 
L 546.284876 390.04 
L 550.272488 390.04 
L 554.2601 390.04 
L 558.247712 390.04 
L 562.235324 390.04 
L 566.222936 390.04 
L 570.210548 390.04 
L 574.19816 390.04 
L 578.185772 390.04 
L 582.173384 390.04 
L 586.160996 390.04 
L 590.148609 390.04 
L 594.136221 390.04 
L 598.123833 390.04 
L 602.111445 390.04 
L 606.099057 390.04 
L 610.086669 390.04 
L 614.074281 390.04 
L 618.061893 390.04 
L 622.049505 390.04 
L 626.037117 390.04 
L 626.037117 390.04 
L 626.037117 390.04 
L 622.049505 390.04 
L 618.061893 390.04 
L 614.074281 390.04 
L 610.086669 390.04 
L 606.099057 390.04 
L 602.111445 390.04 
L 598.123833 390.04 
L 594.136221 390.04 
L 590.148609 390.04 
L 586.160996 390.04 
L 582.173384 390.04 
L 578.185772 390.04 
L 574.19816 390.04 
L 570.210548 390.04 
L 566.222936 390.04 
L 562.235324 390.04 
L 558.247712 390.04 
L 554.2601 390.04 
L 550.272488 390.04 
L 546.284876 390.04 
L 542.297264 390.04 
L 538.309652 390.04 
L 534.32204 390.04 
L 530.334428 390.04 
L 526.346816 390.04 
L 522.359204 390.04 
L 518.371591 390.04 
L 514.383979 390.04 
L 510.396367 390.04 
L 506.408755 390.04 
L 502.421143 390.04 
L 498.433531 390.04 
L 494.445919 390.04 
L 490.458307 390.04 
L 486.470695 390.04 
L 482.483083 390.04 
L 478.495471 390.04 
L 474.507859 390.04 
L 470.520247 390.04 
L 466.532635 390.04 
L 462.545023 390.04 
L 458.557411 390.04 
L 454.569799 390.04 
L 450.582187 390.04 
L 446.594574 390.04 
L 442.606962 390.04 
L 438.61935 390.04 
L 434.631738 390.04 
L 430.644126 390.04 
L 426.656514 390.04 
L 422.668902 390.04 
L 418.68129 390.04 
L 414.693678 390.04 
L 410.706066 390.04 
L 406.718454 390.04 
L 402.730842 390.04 
L 398.74323 390.04 
L 394.755618 390.04 
L 390.768006 390.04 
L 386.780394 390.04 
L 382.792782 390.04 
L 378.80517 390.04 
L 374.817557 390.04 
L 370.829945 390.04 
L 366.842333 390.04 
L 362.854721 390.04 
L 358.867109 390.04 
L 354.879497 390.04 
L 350.891885 390.04 
L 346.904273 390.04 
L 342.916661 390.04 
L 338.929049 390.04 
L 334.941437 390.04 
L 330.953825 390.04 
L 326.966213 390.04 
L 322.978601 390.04 
L 318.990989 390.04 
L 315.003377 390.04 
L 311.015765 390.04 
L 307.028153 390.04 
L 303.04054 390.04 
L 299.052928 390.04 
L 295.065316 390.04 
L 291.077704 390.04 
L 287.090092 390.04 
L 283.10248 390.04 
L 279.114868 390.04 
L 275.127256 390.04 
L 271.139644 390.04 
L 267.152032 390.04 
L 263.16442 390.04 
L 259.176808 390.04 
L 255.189196 390.04 
L 251.201584 390.04 
L 247.213972 390.04 
L 243.22636 390.04 
L 239.238748 390.04 
L 235.251135 390.04 
L 231.263523 390.04 
L 227.275911 390.04 
L 223.288299 390.04 
L 219.300687 390.04 
L 215.313075 390.04 
L 211.325463 390.04 
L 207.337851 390.04 
L 203.350239 390.04 
L 199.362627 390.04 
L 195.375015 390.04 
L 191.387403 390.04 
L 187.399791 390.04 
L 183.412179 390.04 
L 179.424567 390.04 
L 175.436955 390.04 
L 171.449343 390.04 
L 167.461731 390.04 
L 163.474118 390.04 
L 159.486506 390.04 
L 155.498894 390.04 
L 151.511282 390.04 
L 147.52367 390.04 
L 143.536058 390.04 
L 139.548446 390.04 
L 135.560834 390.04 
L 131.573222 390.04 
L 127.58561 390.04 
L 123.597998 390.04 
L 119.610386 390.04 
L 115.622774 390.04 
L 111.635162 390.04 
L 107.64755 390.04 
L 103.659938 390.04 
L 99.672326 390.04 
L 95.684714 390.04 
L 91.697101 390.04 
L 87.709489 390.04 
L 83.721877 390.04 
L 79.734265 390.04 
L 75.746653 390.04 
L 71.759041 390.04 
L 67.771429 390.04 
L 63.783817 390.04 
L 59.796205 390.04 
L 55.808593 390.04 
L 51.820981 390.04 
L 47.833369 390.04 
L 43.845757 390.04 
L 39.858145 390.04 
L 35.870533 390.04 
L 31.882921 390.04 
z
" clip-path="url(#p56561037f7)" style="fill: #d62728; fill-opacity: 0.2"/>
   </g>
   <g id="line2d_17">
    <path d="M 31.88 240.24 
L 630.02765 240.24 
" clip-path="url(#p56561037f7)" style="fill: none; stroke-dasharray: 2.96,1.28; stroke-dashoffset: 0; stroke: #808080; stroke-width: 0.8"/>
   </g>
   <g id="line2d_18">
    <path d="M 31.882921 390.04 
L 626.037117 390.04 
L 626.037117 390.04 
" clip-path="url(#p56561037f7)" style="fill: none; stroke: #00b899; stroke-width: 1.5; stroke-linecap: round"/>
   </g>
   <g id="line2d_19">
    <path d="M 31.882921 390.04 
L 626.037117 390.04 
L 626.037117 390.04 
" clip-path="url(#p56561037f7)" style="fill: none; stroke: #2ca02c; stroke-width: 1.5; stroke-linecap: round"/>
   </g>
   <g id="line2d_20">
    <path d="M 31.882921 390.04 
L 626.037117 390.04 
L 626.037117 390.04 
" clip-path="url(#p56561037f7)" style="fill: none; stroke: #d62728; stroke-width: 1.5; stroke-linecap: round"/>
   </g>
   <g id="line2d_21">
    <path d="M 86.196455 433 
L 87.709489 410.978355 
L 91.697101 365.400163 
L 95.684714 321.142571 
L 99.672326 281.495679 
L 103.659938 271.668752 
L 107.64755 284.879909 
L 111.635162 287.649586 
L 115.622774 274.008672 
L 119.610386 252.747052 
L 123.597998 240.905773 
L 127.58561 249.090262 
L 131.573222 258.383326 
L 135.560834 242.769394 
L 139.548446 237.510988 
L 143.536058 251.303532 
L 147.52367 267.646932 
L 151.511282 283.041268 
L 155.498894 277.293936 
L 159.486506 246.02653 
L 163.474118 217.764303 
L 167.461731 209.992259 
L 171.449343 205.492205 
L 175.436955 195.003744 
L 179.424567 195.882696 
L 183.412179 201.376629 
L 187.399791 197.807899 
L 191.387403 178.529308 
L 195.375015 168.713623 
L 199.362627 188.673082 
L 203.350239 204.616858 
L 207.337851 210.054736 
L 211.325463 230.179605 
L 215.313075 244.799334 
L 219.300687 228.299657 
L 223.288299 205.156772 
L 231.263523 165.78524 
L 235.251135 159.638987 
L 239.238748 159.986814 
L 243.22636 147.444637 
L 247.213972 142.224344 
L 251.201584 155.413419 
L 255.189196 159.980581 
L 259.176808 167.331094 
L 263.16442 188.200126 
L 267.152032 187.475088 
L 271.139644 173.300841 
L 275.127256 170.598373 
L 279.114868 171.007554 
L 283.10248 172.031819 
L 287.090092 171.405063 
L 291.077704 161.656498 
L 295.065316 147.030551 
L 299.052928 134.460437 
L 303.04054 132.837572 
L 307.028153 131.399153 
L 311.015765 122.636369 
L 315.003377 120.087684 
L 318.990989 140.864134 
L 322.978601 166.239732 
L 326.966213 172.452346 
L 334.941437 194.804412 
L 338.929049 195.367611 
L 342.916661 193.416232 
L 346.904273 168.130184 
L 350.891885 146.259381 
L 354.879497 145.363943 
L 358.867109 162.933893 
L 362.854721 173.658719 
L 366.842333 167.870751 
L 370.829945 159.143014 
L 374.817557 154.462514 
L 378.80517 150.190661 
L 382.792782 150.679038 
L 386.780394 164.316067 
L 390.768006 165.101014 
L 394.755618 152.580914 
L 398.74323 144.032339 
L 402.730842 144.939019 
L 406.718454 147.876555 
L 410.706066 152.63758 
L 414.693678 163.912165 
L 418.68129 178.157002 
L 422.668902 174.378844 
L 426.656514 162.443397 
L 430.644126 151.571687 
L 434.631738 143.590149 
L 438.61935 150.563984 
L 442.606962 149.667554 
L 446.594574 133.393052 
L 450.582187 131.048609 
L 454.569799 143.847549 
L 458.557411 153.299979 
L 462.545023 151.333668 
L 466.532635 140.715139 
L 470.520247 131.13331 
L 474.507859 138.061382 
L 478.495471 151.238126 
L 482.483083 151.974008 
L 486.470695 154.674858 
L 490.458307 151.488107 
L 494.445919 147.747877 
L 502.421143 173.506394 
L 506.408755 163.84571 
L 510.396367 147.490639 
L 514.383979 136.80662 
L 518.371591 129.099469 
L 522.359204 130.577736 
L 526.346816 136.176562 
L 530.334428 138.655139 
L 534.32204 143.677588 
L 538.309652 154.715343 
L 542.297264 162.790535 
L 546.284876 155.716407 
L 550.272488 139.064527 
L 554.2601 132.432096 
L 558.247712 136.403687 
L 562.235324 142.496263 
L 566.222936 147.733951 
L 570.210548 147.574387 
L 574.19816 150.806269 
L 578.185772 154.399783 
L 582.173384 147.287421 
L 586.160996 151.716792 
L 590.148609 159.728258 
L 594.136221 156.714663 
L 598.123833 145.25447 
L 602.111445 133.202756 
L 606.099057 128.084854 
L 610.086669 135.013977 
L 614.074281 134.134642 
L 618.061893 124.823711 
L 622.049505 124.02635 
L 626.037117 124.429814 
L 626.037117 124.429814 
" clip-path="url(#p56561037f7)" style="fill: none; stroke: #1f77b4; stroke-width: 0.7; stroke-linecap: round"/>
   </g>
   <g id="line2d_22">
    <path d="M 86.196455 433 
L 87.709489 410.978355 
L 91.697101 365.400163 
L 95.684714 321.142571 
L 99.672326 281.495679 
L 103.659938 271.668752 
L 107.64755 284.879909 
L 111.635162 287.649586 
L 115.622774 274.008672 
L 119.610386 252.747052 
L 123.597998 240.905773 
L 127.58561 249.090262 
L 131.573222 258.383326 
L 135.560834 242.769394 
L 139.548446 237.510988 
L 143.536058 251.303532 
L 147.52367 267.646932 
L 151.511282 283.041268 
L 155.498894 277.293936 
L 159.486506 246.02653 
L 163.474118 217.764303 
L 167.461731 209.992259 
L 171.449343 205.492205 
L 175.436955 195.003744 
L 179.424567 195.882696 
L 183.412179 201.376629 
L 187.399791 197.807899 
L 191.387403 178.529308 
L 195.375015 168.713623 
L 199.362627 188.673082 
L 203.350239 204.616858 
L 207.337851 210.054736 
L 211.325463 230.179605 
L 215.313075 244.799334 
L 219.300687 228.299657 
L 223.288299 205.156772 
L 231.263523 165.78524 
L 235.251135 159.638987 
L 239.238748 159.986814 
L 243.22636 147.444637 
L 247.213972 142.224344 
L 251.201584 155.413419 
L 255.189196 159.980581 
L 259.176808 167.331094 
L 263.16442 188.200126 
L 267.152032 187.475088 
L 271.139644 173.300841 
L 275.127256 170.598373 
L 279.114868 171.007554 
L 283.10248 172.031819 
L 287.090092 171.405063 
L 291.077704 161.656498 
L 295.065316 147.030551 
L 299.052928 134.460437 
L 303.04054 132.837572 
L 307.028153 131.399153 
L 311.015765 122.636369 
L 315.003377 120.087684 
L 318.990989 140.864134 
L 322.978601 166.239732 
L 326.966213 172.452346 
L 334.941437 194.804412 
L 338.929049 195.367611 
L 342.916661 193.416232 
L 346.904273 168.130184 
L 350.891885 146.259381 
L 354.879497 145.363943 
L 358.867109 162.933893 
L 362.854721 173.658719 
L 366.842333 167.870751 
L 370.829945 159.143014 
L 374.817557 154.462514 
L 378.80517 150.190661 
L 382.792782 150.679038 
L 386.780394 164.316067 
L 390.768006 165.101014 
L 394.755618 152.580914 
L 398.74323 144.032339 
L 402.730842 144.939019 
L 406.718454 147.876555 
L 410.706066 152.63758 
L 414.693678 163.912165 
L 418.68129 178.157002 
L 422.668902 174.378844 
L 426.656514 162.443397 
L 430.644126 151.571687 
L 434.631738 143.590149 
L 438.61935 150.563984 
L 442.606962 149.667554 
L 446.594574 133.393052 
L 450.582187 131.048609 
L 454.569799 143.847549 
L 458.557411 153.299979 
L 462.545023 151.333668 
L 466.532635 140.715139 
L 470.520247 131.13331 
L 474.507859 138.061382 
L 478.495471 151.238126 
L 482.483083 151.974008 
L 486.470695 154.674858 
L 490.458307 151.488107 
L 494.445919 147.747877 
L 502.421143 173.506394 
L 506.408755 163.84571 
L 510.396367 147.490639 
L 514.383979 136.80662 
L 518.371591 129.099469 
L 522.359204 130.577736 
L 526.346816 136.176562 
L 530.334428 138.655139 
L 534.32204 143.677588 
L 538.309652 154.715343 
L 542.297264 162.790535 
L 546.284876 155.716407 
L 550.272488 139.064527 
L 554.2601 132.432096 
L 558.247712 136.403687 
L 562.235324 142.496263 
L 566.222936 147.733951 
L 570.210548 147.574387 
L 574.19816 150.806269 
L 578.185772 154.399783 
L 582.173384 147.287421 
L 586.160996 151.716792 
L 590.148609 159.728258 
L 594.136221 156.714663 
L 598.123833 145.25447 
L 602.111445 133.202756 
L 606.099057 128.084854 
L 610.086669 135.013977 
L 614.074281 134.134642 
L 618.061893 124.823711 
L 622.049505 124.02635 
L 626.037117 124.429814 
L 626.037117 124.429814 
" clip-path="url(#p56561037f7)" style="fill: none; stroke: #ff7f0e; stroke-width: 0.7; stroke-linecap: round"/>
   </g>
   <g id="line2d_23">
    <path d="M 31.882921 390.04 
L 43.845757 384.720548 
L 55.808593 372.753732 
L 67.771429 344.976973 
L 79.734265 317.278326 
L 91.697101 278.839228 
L 103.659938 246.891268 
L 115.622774 250.781265 
L 127.58561 259.068987 
L 139.548446 211.98285 
L 151.511282 196.469733 
L 163.474118 190.197309 
L 175.436955 188.705363 
L 187.399791 165.732515 
L 199.362627 154.859273 
L 211.325463 134.776582 
L 223.288299 131.847368 
L 235.251135 117.255977 
L 247.213972 136.393508 
L 259.176808 111.499095 
L 271.139644 103.695669 
L 283.10248 112.522367 
L 295.065316 110.819518 
L 307.028153 100.571175 
L 318.990989 115.982745 
L 330.953825 102.516173 
L 342.916661 100.774267 
L 354.879497 102.594285 
L 366.842333 94.837727 
L 378.80517 97.313889 
L 390.768006 100.344649 
L 402.730842 111.366304 
L 414.693678 108.890142 
L 426.656514 102.664586 
L 438.61935 103.422276 
L 450.582187 106.093719 
L 462.545023 95.978167 
L 474.507859 96.329673 
L 486.470695 94.533088 
L 498.433531 98.048145 
L 510.396367 102.672397 
L 522.359204 101.610069 
L 534.32204 101.797539 
L 546.284876 99.766617 
L 558.247712 95.68134 
L 570.210548 97.227965 
L 582.173384 100.680532 
L 594.136221 97.798185 
L 606.099057 96.657745 
L 618.061893 90.44 
" clip-path="url(#p56561037f7)" style="fill: none; stroke: #000000; stroke-width: 1.5; stroke-linecap: round"/>
   </g>
   <g id="line2d_24">
    <path d="M 31.882921 90.44 
L 43.845757 92.245113 
L 55.808593 163.590939 
L 67.771429 226.093649 
L 79.734265 265.468002 
L 91.697101 295.385265 
L 103.659938 306.429339 
L 115.622774 310.053489 
L 127.58561 334.814985 
L 139.548446 335.308821 
L 151.511282 337.665745 
L 163.474118 348.704911 
L 175.436955 356.2015 
L 187.399791 358.152211 
L 199.362627 371.866841 
L 211.325463 364.26837 
L 223.288299 368.0357 
L 235.251135 371.946389 
L 247.213972 379.023286 
L 259.176808 383.855646 
L 271.139644 383.460623 
L 283.10248 390.04 
L 295.065316 383.82385 
L 307.028153 383.845451 
L 318.990989 370.032079 
L 330.953825 365.378485 
L 342.916661 362.162617 
L 354.879497 373.926936 
L 366.842333 378.415977 
L 378.80517 379.595534 
L 390.768006 372.74849 
L 402.730842 370.319014 
L 414.693678 369.583021 
L 426.656514 367.0431 
L 438.61935 364.099804 
L 450.582187 370.184422 
L 462.545023 370.207211 
L 474.507859 364.142626 
L 486.470695 359.454868 
L 498.433531 361.952008 
L 510.396367 368.032891 
L 522.359204 364.613385 
L 534.32204 362.651276 
L 546.284876 356.790464 
L 558.247712 353.161167 
L 570.210548 358.795141 
L 582.173384 350.596968 
L 594.136221 345.94079 
L 606.099057 353.313566 
L 618.061893 360.587925 
" clip-path="url(#p56561037f7)" style="fill: none; stroke: #7b3ab8; stroke-width: 1.5; stroke-linecap: round"/>
   </g>
   <g id="patch_3">
    <path d="M 31.88 390.04 
L 31.88 60.48 
" style="fill: none; stroke: #ffffff; stroke-width: 0.8; stroke-linejoin: miter; stroke-linecap: square"/>
   </g>
   <g id="patch_4">
    <path d="M 630.02765 390.04 
L 630.02765 60.48 
" style="fill: none; stroke: #ffffff; stroke-width: 0.8; stroke-linejoin: miter; stroke-linecap: square"/>
   </g>
   <g id="patch_5">
    <path d="M 31.88 390.04 
L 630.02765 390.04 
" style="fill: none; stroke: #ffffff; stroke-width: 0.8; stroke-linejoin: miter; stroke-linecap: square"/>
   </g>
   <g id="patch_6">
    <path d="M 31.88 60.48 
L 630.02765 60.48 
" style="fill: none; stroke: #ffffff; stroke-width: 0.8; stroke-linejoin: miter; stroke-linecap: square"/>
   </g>
  </g>
  <g id="text_10">
   <!-- Objectives: CartPole-v1 | CMU-Net (Entropy) -->
   <g style="fill: #262626" transform="translate(174.2925 17.810625) scale(0.12 -0.12)">
    <defs>
     <path id="DejaVuSans-Bold-4f" d="M 2719 3878 
Q 2169 3878 1866 3472 
Q 1563 3066 1563 2328 
Q 1563 1594 1866 1187 
Q 2169 781 2719 781 
Q 3272 781 3575 1187 
Q 3878 1594 3878 2328 
Q 3878 3066 3575 3472 
Q 3272 3878 2719 3878 
z
M 2719 4750 
Q 3844 4750 4481 4106 
Q 5119 3463 5119 2328 
Q 5119 1197 4481 553 
Q 3844 -91 2719 -91 
Q 1597 -91 958 553 
Q 319 1197 319 2328 
Q 319 3463 958 4106 
Q 1597 4750 2719 4750 
z
" transform="scale(0.015625)"/>
     <path id="DejaVuSans-Bold-62" d="M 2400 722 
Q 2759 722 2948 984 
Q 3138 1247 3138 1747 
Q 3138 2247 2948 2509 
Q 2759 2772 2400 2772 
Q 2041 2772 1848 2508 
Q 1656 2244 1656 1747 
Q 1656 1250 1848 986 
Q 2041 722 2400 722 
z
M 1656 2988 
Q 1888 3294 2169 3439 
Q 2450 3584 2816 3584 
Q 3463 3584 3878 3070 
Q 4294 2556 4294 1747 
Q 4294 938 3878 423 
Q 3463 -91 2816 -91 
Q 2450 -91 2169 54 
Q 1888 200 1656 506 
L 1656 0 
L 538 0 
L 538 4863 
L 1656 4863 
L 1656 2988 
z
" transform="scale(0.015625)"/>
     <path id="DejaVuSans-Bold-6a" d="M 538 3500 
L 1656 3500 
L 1656 63 
Q 1656 -641 1318 -1011 
Q 981 -1381 341 -1381 
L -213 -1381 
L -213 -647 
L -19 -647 
Q 300 -647 419 -503 
Q 538 -359 538 63 
L 538 3500 
z
M 538 4863 
L 1656 4863 
L 1656 3950 
L 538 3950 
L 538 4863 
z
" transform="scale(0.015625)"/>
     <path id="DejaVuSans-Bold-65" d="M 4031 1759 
L 4031 1441 
L 1416 1441 
Q 1456 1047 1700 850 
Q 1944 653 2381 653 
Q 2734 653 3104 758 
Q 3475 863 3866 1075 
L 3866 213 
Q 3469 63 3072 -14 
Q 2675 -91 2278 -91 
Q 1328 -91 801 392 
Q 275 875 275 1747 
Q 275 2603 792 3093 
Q 1309 3584 2216 3584 
Q 3041 3584 3536 3087 
Q 4031 2591 4031 1759 
z
M 2881 2131 
Q 2881 2450 2695 2645 
Q 2509 2841 2209 2841 
Q 1884 2841 1681 2658 
Q 1478 2475 1428 2131 
L 2881 2131 
z
" transform="scale(0.015625)"/>
     <path id="DejaVuSans-Bold-63" d="M 3366 3391 
L 3366 2478 
Q 3138 2634 2908 2709 
Q 2678 2784 2431 2784 
Q 1963 2784 1702 2511 
Q 1441 2238 1441 1747 
Q 1441 1256 1702 982 
Q 1963 709 2431 709 
Q 2694 709 2930 787 
Q 3166 866 3366 1019 
L 3366 103 
Q 3103 6 2833 -42 
Q 2563 -91 2291 -91 
Q 1344 -91 809 395 
Q 275 881 275 1747 
Q 275 2613 809 3098 
Q 1344 3584 2291 3584 
Q 2566 3584 2833 3536 
Q 3100 3488 3366 3391 
z
" transform="scale(0.015625)"/>
     <path id="DejaVuSans-Bold-74" d="M 1759 4494 
L 1759 3500 
L 2913 3500 
L 2913 2700 
L 1759 2700 
L 1759 1216 
Q 1759 972 1856 886 
Q 1953 800 2241 800 
L 2816 800 
L 2816 0 
L 1856 0 
Q 1194 0 917 276 
Q 641 553 641 1216 
L 641 2700 
L 84 2700 
L 84 3500 
L 641 3500 
L 641 4494 
L 1759 4494 
z
" transform="scale(0.015625)"/>
     <path id="DejaVuSans-Bold-69" d="M 538 3500 
L 1656 3500 
L 1656 0 
L 538 0 
L 538 3500 
z
M 538 4863 
L 1656 4863 
L 1656 3950 
L 538 3950 
L 538 4863 
z
" transform="scale(0.015625)"/>
     <path id="DejaVuSans-Bold-76" d="M 97 3500 
L 1216 3500 
L 2088 1081 
L 2956 3500 
L 4078 3500 
L 2700 0 
L 1472 0 
L 97 3500 
z
" transform="scale(0.015625)"/>
     <path id="DejaVuSans-Bold-73" d="M 3272 3391 
L 3272 2541 
Q 2913 2691 2578 2766 
Q 2244 2841 1947 2841 
Q 1628 2841 1473 2761 
Q 1319 2681 1319 2516 
Q 1319 2381 1436 2309 
Q 1553 2238 1856 2203 
L 2053 2175 
Q 2913 2066 3209 1816 
Q 3506 1566 3506 1031 
Q 3506 472 3093 190 
Q 2681 -91 1863 -91 
Q 1516 -91 1145 -36 
Q 775 19 384 128 
L 384 978 
Q 719 816 1070 734 
Q 1422 653 1784 653 
Q 2113 653 2278 743 
Q 2444 834 2444 1013 
Q 2444 1163 2330 1236 
Q 2216 1309 1875 1350 
L 1678 1375 
Q 931 1469 631 1722 
Q 331 1975 331 2491 
Q 331 3047 712 3315 
Q 1094 3584 1881 3584 
Q 2191 3584 2531 3537 
Q 2872 3491 3272 3391 
z
" transform="scale(0.015625)"/>
     <path id="DejaVuSans-Bold-3a" d="M 716 3500 
L 1844 3500 
L 1844 2291 
L 716 2291 
L 716 3500 
z
M 716 1209 
L 1844 1209 
L 1844 0 
L 716 0 
L 716 1209 
z
" transform="scale(0.015625)"/>
     <path id="DejaVuSans-Bold-20" transform="scale(0.015625)"/>
     <path id="DejaVuSans-Bold-43" d="M 4288 256 
Q 3956 84 3597 -3 
Q 3238 -91 2847 -91 
Q 1681 -91 1000 561 
Q 319 1213 319 2328 
Q 319 3447 1000 4098 
Q 1681 4750 2847 4750 
Q 3238 4750 3597 4662 
Q 3956 4575 4288 4403 
L 4288 3438 
Q 3953 3666 3628 3772 
Q 3303 3878 2944 3878 
Q 2300 3878 1931 3465 
Q 1563 3053 1563 2328 
Q 1563 1606 1931 1193 
Q 2300 781 2944 781 
Q 3303 781 3628 887 
Q 3953 994 4288 1222 
L 4288 256 
z
" transform="scale(0.015625)"/>
     <path id="DejaVuSans-Bold-61" d="M 2106 1575 
Q 1756 1575 1579 1456 
Q 1403 1338 1403 1106 
Q 1403 894 1545 773 
Q 1688 653 1941 653 
Q 2256 653 2472 879 
Q 2688 1106 2688 1447 
L 2688 1575 
L 2106 1575 
z
M 3816 1997 
L 3816 0 
L 2688 0 
L 2688 519 
Q 2463 200 2181 54 
Q 1900 -91 1497 -91 
Q 953 -91 614 226 
Q 275 544 275 1050 
Q 275 1666 698 1953 
Q 1122 2241 2028 2241 
L 2688 2241 
L 2688 2328 
Q 2688 2594 2478 2717 
Q 2269 2841 1825 2841 
Q 1466 2841 1156 2769 
Q 847 2697 581 2553 
L 581 3406 
Q 941 3494 1303 3539 
Q 1666 3584 2028 3584 
Q 2975 3584 3395 3211 
Q 3816 2838 3816 1997 
z
" transform="scale(0.015625)"/>
     <path id="DejaVuSans-Bold-72" d="M 3138 2547 
Q 2991 2616 2845 2648 
Q 2700 2681 2553 2681 
Q 2122 2681 1889 2404 
Q 1656 2128 1656 1613 
L 1656 0 
L 538 0 
L 538 3500 
L 1656 3500 
L 1656 2925 
Q 1872 3269 2151 3426 
Q 2431 3584 2822 3584 
Q 2878 3584 2943 3579 
Q 3009 3575 3134 3559 
L 3138 2547 
z
" transform="scale(0.015625)"/>
     <path id="DejaVuSans-Bold-50" d="M 588 4666 
L 2584 4666 
Q 3475 4666 3951 4270 
Q 4428 3875 4428 3144 
Q 4428 2409 3951 2014 
Q 3475 1619 2584 1619 
L 1791 1619 
L 1791 0 
L 588 0 
L 588 4666 
z
M 1791 3794 
L 1791 2491 
L 2456 2491 
Q 2806 2491 2997 2661 
Q 3188 2831 3188 3144 
Q 3188 3456 2997 3625 
Q 2806 3794 2456 3794 
L 1791 3794 
z
" transform="scale(0.015625)"/>
     <path id="DejaVuSans-Bold-6f" d="M 2203 2784 
Q 1831 2784 1636 2517 
Q 1441 2250 1441 1747 
Q 1441 1244 1636 976 
Q 1831 709 2203 709 
Q 2569 709 2762 976 
Q 2956 1244 2956 1747 
Q 2956 2250 2762 2517 
Q 2569 2784 2203 2784 
z
M 2203 3584 
Q 3106 3584 3614 3096 
Q 4122 2609 4122 1747 
Q 4122 884 3614 396 
Q 3106 -91 2203 -91 
Q 1297 -91 786 396 
Q 275 884 275 1747 
Q 275 2609 786 3096 
Q 1297 3584 2203 3584 
z
" transform="scale(0.015625)"/>
     <path id="DejaVuSans-Bold-6c" d="M 538 4863 
L 1656 4863 
L 1656 0 
L 538 0 
L 538 4863 
z
" transform="scale(0.015625)"/>
     <path id="DejaVuSans-Bold-2d" d="M 347 2297 
L 2309 2297 
L 2309 1388 
L 347 1388 
L 347 2297 
z
" transform="scale(0.015625)"/>
     <path id="DejaVuSans-Bold-31" d="M 750 831 
L 1813 831 
L 1813 3847 
L 722 3622 
L 722 4441 
L 1806 4666 
L 2950 4666 
L 2950 831 
L 4013 831 
L 4013 0 
L 750 0 
L 750 831 
z
" transform="scale(0.015625)"/>
     <path id="DejaVuSans-Bold-7c" d="M 1522 4891 
L 1522 -1509 
L 813 -1509 
L 813 4891 
L 1522 4891 
z
" transform="scale(0.015625)"/>
     <path id="DejaVuSans-Bold-4d" d="M 588 4666 
L 2119 4666 
L 3181 2169 
L 4250 4666 
L 5778 4666 
L 5778 0 
L 4641 0 
L 4641 3413 
L 3566 897 
L 2803 897 
L 1728 3413 
L 1728 0 
L 588 0 
L 588 4666 
z
" transform="scale(0.015625)"/>
     <path id="DejaVuSans-Bold-55" d="M 588 4666 
L 1791 4666 
L 1791 1869 
Q 1791 1291 1980 1042 
Q 2169 794 2597 794 
Q 3028 794 3217 1042 
Q 3406 1291 3406 1869 
L 3406 4666 
L 4609 4666 
L 4609 1869 
Q 4609 878 4112 393 
Q 3616 -91 2597 -91 
Q 1581 -91 1084 393 
Q 588 878 588 1869 
L 588 4666 
z
" transform="scale(0.015625)"/>
     <path id="DejaVuSans-Bold-4e" d="M 588 4666 
L 1931 4666 
L 3628 1466 
L 3628 4666 
L 4769 4666 
L 4769 0 
L 3425 0 
L 1728 3200 
L 1728 0 
L 588 0 
L 588 4666 
z
" transform="scale(0.015625)"/>
     <path id="DejaVuSans-Bold-28" d="M 2413 -844 
L 1484 -844 
Q 1006 -72 778 623 
Q 550 1319 550 2003 
Q 550 2688 779 3389 
Q 1009 4091 1484 4856 
L 2413 4856 
Q 2013 4116 1813 3408 
Q 1613 2700 1613 2009 
Q 1613 1319 1811 609 
Q 2009 -100 2413 -844 
z
" transform="scale(0.015625)"/>
     <path id="DejaVuSans-Bold-45" d="M 588 4666 
L 3834 4666 
L 3834 3756 
L 1791 3756 
L 1791 2888 
L 3713 2888 
L 3713 1978 
L 1791 1978 
L 1791 909 
L 3903 909 
L 3903 0 
L 588 0 
L 588 4666 
z
" transform="scale(0.015625)"/>
     <path id="DejaVuSans-Bold-6e" d="M 4056 2131 
L 4056 0 
L 2931 0 
L 2931 347 
L 2931 1631 
Q 2931 2084 2911 2256 
Q 2891 2428 2841 2509 
Q 2775 2619 2662 2680 
Q 2550 2741 2406 2741 
Q 2056 2741 1856 2470 
Q 1656 2200 1656 1722 
L 1656 0 
L 538 0 
L 538 3500 
L 1656 3500 
L 1656 2988 
Q 1909 3294 2193 3439 
Q 2478 3584 2822 3584 
Q 3428 3584 3742 3212 
Q 4056 2841 4056 2131 
z
" transform="scale(0.015625)"/>
     <path id="DejaVuSans-Bold-70" d="M 1656 506 
L 1656 -1331 
L 538 -1331 
L 538 3500 
L 1656 3500 
L 1656 2988 
Q 1888 3294 2169 3439 
Q 2450 3584 2816 3584 
Q 3463 3584 3878 3070 
Q 4294 2556 4294 1747 
Q 4294 938 3878 423 
Q 3463 -91 2816 -91 
Q 2450 -91 2169 54 
Q 1888 200 1656 506 
z
M 2400 2772 
Q 2041 2772 1848 2508 
Q 1656 2244 1656 1747 
Q 1656 1250 1848 986 
Q 2041 722 2400 722 
Q 2759 722 2948 984 
Q 3138 1247 3138 1747 
Q 3138 2247 2948 2509 
Q 2759 2772 2400 2772 
z
" transform="scale(0.015625)"/>
     <path id="DejaVuSans-Bold-79" d="M 78 3500 
L 1197 3500 
L 2138 1125 
L 2938 3500 
L 4056 3500 
L 2584 -331 
Q 2363 -916 2067 -1148 
Q 1772 -1381 1288 -1381 
L 641 -1381 
L 641 -647 
L 991 -647 
Q 1275 -647 1404 -556 
Q 1534 -466 1606 -231 
L 1638 -134 
L 78 3500 
z
" transform="scale(0.015625)"/>
     <path id="DejaVuSans-Bold-29" d="M 513 -844 
Q 913 -100 1113 609 
Q 1313 1319 1313 2009 
Q 1313 2700 1113 3408 
Q 913 4116 513 4856 
L 1441 4856 
Q 1916 4091 2145 3389 
Q 2375 2688 2375 2003 
Q 2375 1319 2147 623 
Q 1919 -72 1441 -844 
L 513 -844 
z
" transform="scale(0.015625)"/>
    </defs>
    <use xlink:href="#DejaVuSans-Bold-4f"/>
    <use xlink:href="#DejaVuSans-Bold-62" transform="translate(85.009766 0)"/>
    <use xlink:href="#DejaVuSans-Bold-6a" transform="translate(156.591797 0)"/>
    <use xlink:href="#DejaVuSans-Bold-65" transform="translate(190.869141 0)"/>
    <use xlink:href="#DejaVuSans-Bold-63" transform="translate(258.691406 0)"/>
    <use xlink:href="#DejaVuSans-Bold-74" transform="translate(317.96875 0)"/>
    <use xlink:href="#DejaVuSans-Bold-69" transform="translate(365.771484 0)"/>
    <use xlink:href="#DejaVuSans-Bold-76" transform="translate(400.048828 0)"/>
    <use xlink:href="#DejaVuSans-Bold-65" transform="translate(465.234375 0)"/>
    <use xlink:href="#DejaVuSans-Bold-73" transform="translate(533.056641 0)"/>
    <use xlink:href="#DejaVuSans-Bold-3a" transform="translate(592.578125 0)"/>
    <use xlink:href="#DejaVuSans-Bold-20" transform="translate(632.568359 0)"/>
    <use xlink:href="#DejaVuSans-Bold-43" transform="translate(667.382812 0)"/>
    <use xlink:href="#DejaVuSans-Bold-61" transform="translate(740.771484 0)"/>
    <use xlink:href="#DejaVuSans-Bold-72" transform="translate(808.251953 0)"/>
    <use xlink:href="#DejaVuSans-Bold-74" transform="translate(857.568359 0)"/>
    <use xlink:href="#DejaVuSans-Bold-50" transform="translate(905.371094 0)"/>
    <use xlink:href="#DejaVuSans-Bold-6f" transform="translate(978.662109 0)"/>
    <use xlink:href="#DejaVuSans-Bold-6c" transform="translate(1047.363281 0)"/>
    <use xlink:href="#DejaVuSans-Bold-65" transform="translate(1081.640625 0)"/>
    <use xlink:href="#DejaVuSans-Bold-2d" transform="translate(1149.462891 0)"/>
    <use xlink:href="#DejaVuSans-Bold-76" transform="translate(1190.966797 0)"/>
    <use xlink:href="#DejaVuSans-Bold-31" transform="translate(1256.152344 0)"/>
    <use xlink:href="#DejaVuSans-Bold-20" transform="translate(1325.732422 0)"/>
    <use xlink:href="#DejaVuSans-Bold-7c" transform="translate(1360.546875 0)"/>
    <use xlink:href="#DejaVuSans-Bold-20" transform="translate(1397.070312 0)"/>
    <use xlink:href="#DejaVuSans-Bold-43" transform="translate(1431.884766 0)"/>
    <use xlink:href="#DejaVuSans-Bold-4d" transform="translate(1505.273438 0)"/>
    <use xlink:href="#DejaVuSans-Bold-55" transform="translate(1604.785156 0)"/>
    <use xlink:href="#DejaVuSans-Bold-2d" transform="translate(1685.986328 0)"/>
    <use xlink:href="#DejaVuSans-Bold-4e" transform="translate(1727.490234 0)"/>
    <use xlink:href="#DejaVuSans-Bold-65" transform="translate(1811.181641 0)"/>
    <use xlink:href="#DejaVuSans-Bold-74" transform="translate(1879.003906 0)"/>
    <use xlink:href="#DejaVuSans-Bold-20" transform="translate(1926.806641 0)"/>
    <use xlink:href="#DejaVuSans-Bold-28" transform="translate(1961.621094 0)"/>
    <use xlink:href="#DejaVuSans-Bold-45" transform="translate(2007.324219 0)"/>
    <use xlink:href="#DejaVuSans-Bold-6e" transform="translate(2075.634766 0)"/>
    <use xlink:href="#DejaVuSans-Bold-74" transform="translate(2146.826172 0)"/>
    <use xlink:href="#DejaVuSans-Bold-72" transform="translate(2194.628906 0)"/>
    <use xlink:href="#DejaVuSans-Bold-6f" transform="translate(2243.945312 0)"/>
    <use xlink:href="#DejaVuSans-Bold-70" transform="translate(2312.646484 0)"/>
    <use xlink:href="#DejaVuSans-Bold-79" transform="translate(2384.228516 0)"/>
    <use xlink:href="#DejaVuSans-Bold-29" transform="translate(2449.414062 0)"/>
   </g>
  </g>
  <g id="legend_1">
   <g id="line2d_25">
    <path d="M 117.150892 32.510998 
L 125.480892 32.510998 
L 133.810892 32.510998 
" style="fill: none; stroke: #00b899; stroke-width: 1.5; stroke-linecap: round"/>
   </g>
   <g id="text_11">
    <!-- Alignment Loss (smoothed) -->
    <g style="fill: #262626" transform="translate(140.474892 35.426498) scale(0.0833 -0.0833)">
     <defs>
      <path id="DejaVuSans-67" d="M 2906 1791 
Q 2906 2416 2648 2759 
Q 2391 3103 1925 3103 
Q 1463 3103 1205 2759 
Q 947 2416 947 1791 
Q 947 1169 1205 825 
Q 1463 481 1925 481 
Q 2391 481 2648 825 
Q 2906 1169 2906 1791 
z
M 3481 434 
Q 3481 -459 3084 -895 
Q 2688 -1331 1869 -1331 
Q 1566 -1331 1297 -1286 
Q 1028 -1241 775 -1147 
L 775 -588 
Q 1028 -725 1275 -790 
Q 1522 -856 1778 -856 
Q 2344 -856 2625 -561 
Q 2906 -266 2906 331 
L 2906 616 
Q 2728 306 2450 153 
Q 2172 0 1784 0 
Q 1141 0 747 490 
Q 353 981 353 1791 
Q 353 2603 747 3093 
Q 1141 3584 1784 3584 
Q 2172 3584 2450 3431 
Q 2728 3278 2906 2969 
L 2906 3500 
L 3481 3500 
L 3481 434 
z
" transform="scale(0.015625)"/>
      <path id="DejaVuSans-6e" d="M 3513 2113 
L 3513 0 
L 2938 0 
L 2938 2094 
Q 2938 2591 2744 2837 
Q 2550 3084 2163 3084 
Q 1697 3084 1428 2787 
Q 1159 2491 1159 1978 
L 1159 0 
L 581 0 
L 581 3500 
L 1159 3500 
L 1159 2956 
Q 1366 3272 1645 3428 
Q 1925 3584 2291 3584 
Q 2894 3584 3203 3211 
Q 3513 2838 3513 2113 
z
" transform="scale(0.015625)"/>
      <path id="DejaVuSans-4c" d="M 628 4666 
L 1259 4666 
L 1259 531 
L 3531 531 
L 3531 0 
L 628 0 
L 628 4666 
z
" transform="scale(0.015625)"/>
      <path id="DejaVuSans-28" d="M 1984 4856 
Q 1566 4138 1362 3434 
Q 1159 2731 1159 2009 
Q 1159 1288 1364 580 
Q 1569 -128 1984 -844 
L 1484 -844 
Q 1016 -109 783 600 
Q 550 1309 550 2009 
Q 550 2706 781 3412 
Q 1013 4119 1484 4856 
L 1984 4856 
z
" transform="scale(0.015625)"/>
      <path id="DejaVuSans-68" d="M 3513 2113 
L 3513 0 
L 2938 0 
L 2938 2094 
Q 2938 2591 2744 2837 
Q 2550 3084 2163 3084 
Q 1697 3084 1428 2787 
Q 1159 2491 1159 1978 
L 1159 0 
L 581 0 
L 581 4863 
L 1159 4863 
L 1159 2956 
Q 1366 3272 1645 3428 
Q 1925 3584 2291 3584 
Q 2894 3584 3203 3211 
Q 3513 2838 3513 2113 
z
" transform="scale(0.015625)"/>
      <path id="DejaVuSans-29" d="M 513 4856 
L 1013 4856 
Q 1481 4119 1714 3412 
Q 1947 2706 1947 2009 
Q 1947 1309 1714 600 
Q 1481 -109 1013 -844 
L 513 -844 
Q 928 -128 1133 580 
Q 1338 1288 1338 2009 
Q 1338 2731 1133 3434 
Q 928 4138 513 4856 
z
" transform="scale(0.015625)"/>
     </defs>
     <use xlink:href="#DejaVuSans-41"/>
     <use xlink:href="#DejaVuSans-6c" transform="translate(68.408203 0)"/>
     <use xlink:href="#DejaVuSans-69" transform="translate(96.191406 0)"/>
     <use xlink:href="#DejaVuSans-67" transform="translate(123.974609 0)"/>
     <use xlink:href="#DejaVuSans-6e" transform="translate(187.451172 0)"/>
     <use xlink:href="#DejaVuSans-6d" transform="translate(250.830078 0)"/>
     <use xlink:href="#DejaVuSans-65" transform="translate(348.242188 0)"/>
     <use xlink:href="#DejaVuSans-6e" transform="translate(409.765625 0)"/>
     <use xlink:href="#DejaVuSans-74" transform="translate(473.144531 0)"/>
     <use xlink:href="#DejaVuSans-20" transform="translate(512.353516 0)"/>
     <use xlink:href="#DejaVuSans-4c" transform="translate(544.140625 0)"/>
     <use xlink:href="#DejaVuSans-6f" transform="translate(598.103516 0)"/>
     <use xlink:href="#DejaVuSans-73" transform="translate(659.285156 0)"/>
     <use xlink:href="#DejaVuSans-73" transform="translate(711.384766 0)"/>
     <use xlink:href="#DejaVuSans-20" transform="translate(763.484375 0)"/>
     <use xlink:href="#DejaVuSans-28" transform="translate(795.271484 0)"/>
     <use xlink:href="#DejaVuSans-73" transform="translate(834.285156 0)"/>
     <use xlink:href="#DejaVuSans-6d" transform="translate(886.384766 0)"/>
     <use xlink:href="#DejaVuSans-6f" transform="translate(983.796875 0)"/>
     <use xlink:href="#DejaVuSans-6f" transform="translate(1044.978516 0)"/>
     <use xlink:href="#DejaVuSans-74" transform="translate(1106.160156 0)"/>
     <use xlink:href="#DejaVuSans-68" transform="translate(1145.369141 0)"/>
     <use xlink:href="#DejaVuSans-65" transform="translate(1208.748047 0)"/>
     <use xlink:href="#DejaVuSans-64" transform="translate(1270.271484 0)"/>
     <use xlink:href="#DejaVuSans-29" transform="translate(1333.748047 0)"/>
    </g>
   </g>
   <g id="line2d_26">
    <path d="M 271.484967 32.510998 
L 279.814967 32.510998 
L 288.144967 32.510998 
" style="fill: none; stroke: #2ca02c; stroke-width: 1.5; stroke-linecap: round"/>
   </g>
   <g id="text_12">
    <!-- Penalty Loss (smoothed) -->
    <g style="fill: #262626" transform="translate(294.808967 35.426498) scale(0.0833 -0.0833)">
     <defs>
      <path id="DejaVuSans-50" d="M 1259 4147 
L 1259 2394 
L 2053 2394 
Q 2494 2394 2734 2622 
Q 2975 2850 2975 3272 
Q 2975 3691 2734 3919 
Q 2494 4147 2053 4147 
L 1259 4147 
z
M 628 4666 
L 2053 4666 
Q 2838 4666 3239 4311 
Q 3641 3956 3641 3272 
Q 3641 2581 3239 2228 
Q 2838 1875 2053 1875 
L 1259 1875 
L 1259 0 
L 628 0 
L 628 4666 
z
" transform="scale(0.015625)"/>
      <path id="DejaVuSans-79" d="M 2059 -325 
Q 1816 -950 1584 -1140 
Q 1353 -1331 966 -1331 
L 506 -1331 
L 506 -850 
L 844 -850 
Q 1081 -850 1212 -737 
Q 1344 -625 1503 -206 
L 1606 56 
L 191 3500 
L 800 3500 
L 1894 763 
L 2988 3500 
L 3597 3500 
L 2059 -325 
z
" transform="scale(0.015625)"/>
     </defs>
     <use xlink:href="#DejaVuSans-50"/>
     <use xlink:href="#DejaVuSans-65" transform="translate(56.677734 0)"/>
     <use xlink:href="#DejaVuSans-6e" transform="translate(118.201172 0)"/>
     <use xlink:href="#DejaVuSans-61" transform="translate(181.580078 0)"/>
     <use xlink:href="#DejaVuSans-6c" transform="translate(242.859375 0)"/>
     <use xlink:href="#DejaVuSans-74" transform="translate(270.642578 0)"/>
     <use xlink:href="#DejaVuSans-79" transform="translate(309.851562 0)"/>
     <use xlink:href="#DejaVuSans-20" transform="translate(369.03125 0)"/>
     <use xlink:href="#DejaVuSans-4c" transform="translate(400.818359 0)"/>
     <use xlink:href="#DejaVuSans-6f" transform="translate(454.78125 0)"/>
     <use xlink:href="#DejaVuSans-73" transform="translate(515.962891 0)"/>
     <use xlink:href="#DejaVuSans-73" transform="translate(568.0625 0)"/>
     <use xlink:href="#DejaVuSans-20" transform="translate(620.162109 0)"/>
     <use xlink:href="#DejaVuSans-28" transform="translate(651.949219 0)"/>
     <use xlink:href="#DejaVuSans-73" transform="translate(690.962891 0)"/>
     <use xlink:href="#DejaVuSans-6d" transform="translate(743.0625 0)"/>
     <use xlink:href="#DejaVuSans-6f" transform="translate(840.474609 0)"/>
     <use xlink:href="#DejaVuSans-6f" transform="translate(901.65625 0)"/>
     <use xlink:href="#DejaVuSans-74" transform="translate(962.837891 0)"/>
     <use xlink:href="#DejaVuSans-68" transform="translate(1002.046875 0)"/>
     <use xlink:href="#DejaVuSans-65" transform="translate(1065.425781 0)"/>
     <use xlink:href="#DejaVuSans-64" transform="translate(1126.949219 0)"/>
     <use xlink:href="#DejaVuSans-29" transform="translate(1190.425781 0)"/>
    </g>
   </g>
   <g id="line2d_27">
    <path d="M 413.881111 32.510998 
L 422.211111 32.510998 
L 430.541111 32.510998 
" style="fill: none; stroke: #d62728; stroke-width: 1.5; stroke-linecap: round"/>
   </g>
   <g id="text_13">
    <!-- Margin Loss (smoothed) -->
    <g style="fill: #262626" transform="translate(437.205111 35.426498) scale(0.0833 -0.0833)">
     <defs>
      <path id="DejaVuSans-4d" d="M 628 4666 
L 1569 4666 
L 2759 1491 
L 3956 4666 
L 4897 4666 
L 4897 0 
L 4281 0 
L 4281 4097 
L 3078 897 
L 2444 897 
L 1241 4097 
L 1241 0 
L 628 0 
L 628 4666 
z
" transform="scale(0.015625)"/>
     </defs>
     <use xlink:href="#DejaVuSans-4d"/>
     <use xlink:href="#DejaVuSans-61" transform="translate(86.279297 0)"/>
     <use xlink:href="#DejaVuSans-72" transform="translate(147.558594 0)"/>
     <use xlink:href="#DejaVuSans-67" transform="translate(186.921875 0)"/>
     <use xlink:href="#DejaVuSans-69" transform="translate(250.398438 0)"/>
     <use xlink:href="#DejaVuSans-6e" transform="translate(278.181641 0)"/>
     <use xlink:href="#DejaVuSans-20" transform="translate(341.560547 0)"/>
     <use xlink:href="#DejaVuSans-4c" transform="translate(373.347656 0)"/>
     <use xlink:href="#DejaVuSans-6f" transform="translate(427.310547 0)"/>
     <use xlink:href="#DejaVuSans-73" transform="translate(488.492188 0)"/>
     <use xlink:href="#DejaVuSans-73" transform="translate(540.591797 0)"/>
     <use xlink:href="#DejaVuSans-20" transform="translate(592.691406 0)"/>
     <use xlink:href="#DejaVuSans-28" transform="translate(624.478516 0)"/>
     <use xlink:href="#DejaVuSans-73" transform="translate(663.492188 0)"/>
     <use xlink:href="#DejaVuSans-6d" transform="translate(715.591797 0)"/>
     <use xlink:href="#DejaVuSans-6f" transform="translate(813.003906 0)"/>
     <use xlink:href="#DejaVuSans-6f" transform="translate(874.185547 0)"/>
     <use xlink:href="#DejaVuSans-74" transform="translate(935.367188 0)"/>
     <use xlink:href="#DejaVuSans-68" transform="translate(974.576172 0)"/>
     <use xlink:href="#DejaVuSans-65" transform="translate(1037.955078 0)"/>
     <use xlink:href="#DejaVuSans-64" transform="translate(1099.478516 0)"/>
     <use xlink:href="#DejaVuSans-29" transform="translate(1162.955078 0)"/>
    </g>
   </g>
  </g>
  <g id="legend_2">
   <g id="line2d_28">
    <path d="M 121.262768 49.790998 
L 129.592768 49.790998 
L 137.922768 49.790998 
" style="fill: none; stroke: #1f77b4; stroke-width: 0.7; stroke-linecap: round"/>
   </g>
   <g id="text_14">
    <!-- PPO Loss (centered x5) -->
    <g style="fill: #262626" transform="translate(144.586768 52.706498) scale(0.0833 -0.0833)">
     <defs>
      <path id="DejaVuSans-4f" d="M 2522 4238 
Q 1834 4238 1429 3725 
Q 1025 3213 1025 2328 
Q 1025 1447 1429 934 
Q 1834 422 2522 422 
Q 3209 422 3611 934 
Q 4013 1447 4013 2328 
Q 4013 3213 3611 3725 
Q 3209 4238 2522 4238 
z
M 2522 4750 
Q 3503 4750 4090 4092 
Q 4678 3434 4678 2328 
Q 4678 1225 4090 567 
Q 3503 -91 2522 -91 
Q 1538 -91 948 565 
Q 359 1222 359 2328 
Q 359 3434 948 4092 
Q 1538 4750 2522 4750 
z
" transform="scale(0.015625)"/>
      <path id="DejaVuSans-63" d="M 3122 3366 
L 3122 2828 
Q 2878 2963 2633 3030 
Q 2388 3097 2138 3097 
Q 1578 3097 1268 2742 
Q 959 2388 959 1747 
Q 959 1106 1268 751 
Q 1578 397 2138 397 
Q 2388 397 2633 464 
Q 2878 531 3122 666 
L 3122 134 
Q 2881 22 2623 -34 
Q 2366 -91 2075 -91 
Q 1284 -91 818 406 
Q 353 903 353 1747 
Q 353 2603 823 3093 
Q 1294 3584 2113 3584 
Q 2378 3584 2631 3529 
Q 2884 3475 3122 3366 
z
" transform="scale(0.015625)"/>
     </defs>
     <use xlink:href="#DejaVuSans-50"/>
     <use xlink:href="#DejaVuSans-50" transform="translate(60.302734 0)"/>
     <use xlink:href="#DejaVuSans-4f" transform="translate(120.605469 0)"/>
     <use xlink:href="#DejaVuSans-20" transform="translate(199.316406 0)"/>
     <use xlink:href="#DejaVuSans-4c" transform="translate(231.103516 0)"/>
     <use xlink:href="#DejaVuSans-6f" transform="translate(285.066406 0)"/>
     <use xlink:href="#DejaVuSans-73" transform="translate(346.248047 0)"/>
     <use xlink:href="#DejaVuSans-73" transform="translate(398.347656 0)"/>
     <use xlink:href="#DejaVuSans-20" transform="translate(450.447266 0)"/>
     <use xlink:href="#DejaVuSans-28" transform="translate(482.234375 0)"/>
     <use xlink:href="#DejaVuSans-63" transform="translate(521.248047 0)"/>
     <use xlink:href="#DejaVuSans-65" transform="translate(576.228516 0)"/>
     <use xlink:href="#DejaVuSans-6e" transform="translate(637.751953 0)"/>
     <use xlink:href="#DejaVuSans-74" transform="translate(701.130859 0)"/>
     <use xlink:href="#DejaVuSans-65" transform="translate(740.339844 0)"/>
     <use xlink:href="#DejaVuSans-72" transform="translate(801.863281 0)"/>
     <use xlink:href="#DejaVuSans-65" transform="translate(840.726562 0)"/>
     <use xlink:href="#DejaVuSans-64" transform="translate(902.25 0)"/>
     <use xlink:href="#DejaVuSans-20" transform="translate(965.726562 0)"/>
     <use xlink:href="#DejaVuSans-78" transform="translate(997.513672 0)"/>
     <use xlink:href="#DejaVuSans-35" transform="translate(1056.693359 0)"/>
     <use xlink:href="#DejaVuSans-29" transform="translate(1120.316406 0)"/>
    </g>
   </g>
   <g id="line2d_29">
    <path d="M 257.820102 49.790998 
L 266.150102 49.790998 
L 274.480102 49.790998 
" style="fill: none; stroke: #ff7f0e; stroke-width: 0.7; stroke-linecap: round"/>
   </g>
   <g id="text_15">
    <!-- Mixed Loss (centered x5) -->
    <g style="fill: #262626" transform="translate(281.144102 52.706498) scale(0.0833 -0.0833)">
     <use xlink:href="#DejaVuSans-4d"/>
     <use xlink:href="#DejaVuSans-69" transform="translate(86.279297 0)"/>
     <use xlink:href="#DejaVuSans-78" transform="translate(114.0625 0)"/>
     <use xlink:href="#DejaVuSans-65" transform="translate(170.117188 0)"/>
     <use xlink:href="#DejaVuSans-64" transform="translate(231.640625 0)"/>
     <use xlink:href="#DejaVuSans-20" transform="translate(295.117188 0)"/>
     <use xlink:href="#DejaVuSans-4c" transform="translate(326.904297 0)"/>
     <use xlink:href="#DejaVuSans-6f" transform="translate(380.867188 0)"/>
     <use xlink:href="#DejaVuSans-73" transform="translate(442.048828 0)"/>
     <use xlink:href="#DejaVuSans-73" transform="translate(494.148438 0)"/>
     <use xlink:href="#DejaVuSans-20" transform="translate(546.248047 0)"/>
     <use xlink:href="#DejaVuSans-28" transform="translate(578.035156 0)"/>
     <use xlink:href="#DejaVuSans-63" transform="translate(617.048828 0)"/>
     <use xlink:href="#DejaVuSans-65" transform="translate(672.029297 0)"/>
     <use xlink:href="#DejaVuSans-6e" transform="translate(733.552734 0)"/>
     <use xlink:href="#DejaVuSans-74" transform="translate(796.931641 0)"/>
     <use xlink:href="#DejaVuSans-65" transform="translate(836.140625 0)"/>
     <use xlink:href="#DejaVuSans-72" transform="translate(897.664062 0)"/>
     <use xlink:href="#DejaVuSans-65" transform="translate(936.527344 0)"/>
     <use xlink:href="#DejaVuSans-64" transform="translate(998.050781 0)"/>
     <use xlink:href="#DejaVuSans-20" transform="translate(1061.527344 0)"/>
     <use xlink:href="#DejaVuSans-78" transform="translate(1093.314453 0)"/>
     <use xlink:href="#DejaVuSans-35" transform="translate(1152.494141 0)"/>
     <use xlink:href="#DejaVuSans-29" transform="translate(1216.117188 0)"/>
    </g>
   </g>
   <g id="line2d_30">
    <path d="M 402.35992 49.790998 
L 410.68992 49.790998 
L 419.01992 49.790998 
" style="fill: none; stroke: #000000; stroke-width: 1.5; stroke-linecap: round"/>
   </g>
   <g id="text_16">
    <!-- reward -->
    <g style="fill: #262626" transform="translate(425.68392 52.706498) scale(0.0833 -0.0833)">
     <defs>
      <path id="DejaVuSans-77" d="M 269 3500 
L 844 3500 
L 1563 769 
L 2278 3500 
L 2956 3500 
L 3675 769 
L 4391 3500 
L 4966 3500 
L 4050 0 
L 3372 0 
L 2619 2869 
L 1863 0 
L 1184 0 
L 269 3500 
z
" transform="scale(0.015625)"/>
     </defs>
     <use xlink:href="#DejaVuSans-72"/>
     <use xlink:href="#DejaVuSans-65" transform="translate(38.863281 0)"/>
     <use xlink:href="#DejaVuSans-77" transform="translate(100.386719 0)"/>
     <use xlink:href="#DejaVuSans-61" transform="translate(182.173828 0)"/>
     <use xlink:href="#DejaVuSans-72" transform="translate(243.453125 0)"/>
     <use xlink:href="#DejaVuSans-64" transform="translate(282.816406 0)"/>
    </g>
   </g>
   <g id="line2d_31">
    <path d="M 471.190449 49.790998 
L 479.520449 49.790998 
L 487.850449 49.790998 
" style="fill: none; stroke: #7b3ab8; stroke-width: 1.5; stroke-linecap: round"/>
   </g>
   <g id="text_17">
    <!-- entropy -->
    <g style="fill: #262626" transform="translate(494.514449 52.706498) scale(0.0833 -0.0833)">
     <use xlink:href="#DejaVuSans-65"/>
     <use xlink:href="#DejaVuSans-6e" transform="translate(61.523438 0)"/>
     <use xlink:href="#DejaVuSans-74" transform="translate(124.902344 0)"/>
     <use xlink:href="#DejaVuSans-72" transform="translate(164.111328 0)"/>
     <use xlink:href="#DejaVuSans-6f" transform="translate(202.974609 0)"/>
     <use xlink:href="#DejaVuSans-70" transform="translate(264.15625 0)"/>
     <use xlink:href="#DejaVuSans-79" transform="translate(327.632812 0)"/>
    </g>
   </g>
  </g>
 </g>
 <defs>
  <clipPath id="p56561037f7">
   <rect x="31.88" y="60.48" width="598.14765" height="329.56"/>
  </clipPath>
 </defs>
</svg>
