<?xml version="1.0" encoding="utf-8" standalone="no"?>
<!DOCTYPE svg PUBLIC "-//W3C//DTD SVG 1.1//EN"
  "http://www.w3.org/Graphics/SVG/1.1/DTD/svg11.dtd">
<svg xmlns:xlink="http://www.w3.org/1999/xlink" width="648pt" height="432pt" viewBox="0 0 648 432" xmlns="http://www.w3.org/2000/svg" version="1.1">
 <metadata>
  <rdf:RDF xmlns:dc="http://purl.org/dc/elements/1.1/" xmlns:cc="http://creativecommons.org/ns#" xmlns:rdf="http://www.w3.org/1999/02/22-rdf-syntax-ns#">
   <cc:Work>
    <dc:type rdf:resource="http://purl.org/dc/dcmitype/StillImage"/>
    <dc:date>2025-07-31T05:18:14.842865</dc:date>
    <dc:format>image/svg+xml</dc:format>
    <dc:creator>
     <cc:Agent>
      <dc:title>Matplotlib v3.10.0, https://matplotlib.org/</dc:title>
     </cc:Agent>
    </dc:creator>
   </cc:Work>
  </rdf:RDF>
 </metadata>
 <defs>
  <style type="text/css">*{stroke-linejoin: round; stroke-linecap: butt}</style>
 </defs>
 <g id="figure_1">
  <g id="patch_1">
   <path d="M 0 432 
L 648 432 
L 648 0 
L 0 0 
z
" style="fill: #ffffff"/>
  </g>
  <g id="axes_1">
   <g id="patch_2">
    <path d="M 47.5 400.52 
L 622.485 400.52 
L 622.485 39.6 
L 47.5 39.6 
z
" style="fill: #eaeaf2"/>
   </g>
   <g id="matplotlib.axis_1">
    <g id="xtick_1">
     <g id="line2d_1">
      <path d="M 58.410531 400.52 
L 58.410531 39.6 
" clip-path="url(#p3166f77070)" style="fill: none; stroke: #ffffff; stroke-width: 0.8; stroke-linecap: round"/>
     </g>
     <g id="text_1">
      <!-- 0 -->
      <g style="fill: #262626" transform="translate(53.956781 418.157812) scale(0.14 -0.14)">
       <defs>
        <path id="DejaVuSans-30" d="M 2034 4250 
Q 1547 4250 1301 3770 
Q 1056 3291 1056 2328 
Q 1056 1369 1301 889 
Q 1547 409 2034 409 
Q 2525 409 2770 889 
Q 3016 1369 3016 2328 
Q 3016 3291 2770 3770 
Q 2525 4250 2034 4250 
z
M 2034 4750 
Q 2819 4750 3233 4129 
Q 3647 3509 3647 2328 
Q 3647 1150 3233 529 
Q 2819 -91 2034 -91 
Q 1250 -91 836 529 
Q 422 1150 422 2328 
Q 422 3509 836 4129 
Q 1250 4750 2034 4750 
z
" transform="scale(0.015625)"/>
       </defs>
       <use xlink:href="#DejaVuSans-30"/>
      </g>
     </g>
    </g>
    <g id="xtick_2">
     <g id="line2d_2">
      <path d="M 603.937097 400.52 
L 603.937097 39.6 
" clip-path="url(#p3166f77070)" style="fill: none; stroke: #ffffff; stroke-width: 0.8; stroke-linecap: round"/>
     </g>
     <g id="text_2">
      <!-- 1000000 -->
      <g style="fill: #262626" transform="translate(572.760847 418.157812) scale(0.14 -0.14)">
       <defs>
        <path id="DejaVuSans-31" d="M 794 531 
L 1825 531 
L 1825 4091 
L 703 3866 
L 703 4441 
L 1819 4666 
L 2450 4666 
L 2450 531 
L 3481 531 
L 3481 0 
L 794 0 
L 794 531 
z
" transform="scale(0.015625)"/>
       </defs>
       <use xlink:href="#DejaVuSans-31"/>
       <use xlink:href="#DejaVuSans-30" transform="translate(63.623047 0)"/>
       <use xlink:href="#DejaVuSans-30" transform="translate(127.246094 0)"/>
       <use xlink:href="#DejaVuSans-30" transform="translate(190.869141 0)"/>
       <use xlink:href="#DejaVuSans-30" transform="translate(254.492188 0)"/>
       <use xlink:href="#DejaVuSans-30" transform="translate(318.115234 0)"/>
       <use xlink:href="#DejaVuSans-30" transform="translate(381.738281 0)"/>
      </g>
     </g>
    </g>
   </g>
   <g id="matplotlib.axis_2">
    <g id="ytick_1">
     <g id="line2d_3">
      <path d="M 47.5 390.305283 
L 622.485 390.305283 
" clip-path="url(#p3166f77070)" style="fill: none; stroke: #ffffff; stroke-width: 0.8; stroke-linecap: round"/>
     </g>
     <g id="text_3">
      <!-- −21 -->
      <g style="fill: #262626" transform="translate(10.953438 395.624189) scale(0.14 -0.14)">
       <defs>
        <path id="DejaVuSans-2212" d="M 678 2272 
L 4684 2272 
L 4684 1741 
L 678 1741 
L 678 2272 
z
" transform="scale(0.015625)"/>
        <path id="DejaVuSans-32" d="M 1228 531 
L 3431 531 
L 3431 0 
L 469 0 
L 469 531 
Q 828 903 1448 1529 
Q 2069 2156 2228 2338 
Q 2531 2678 2651 2914 
Q 2772 3150 2772 3378 
Q 2772 3750 2511 3984 
Q 2250 4219 1831 4219 
Q 1534 4219 1204 4116 
Q 875 4013 500 3803 
L 500 4441 
Q 881 4594 1212 4672 
Q 1544 4750 1819 4750 
Q 2544 4750 2975 4387 
Q 3406 4025 3406 3419 
Q 3406 3131 3298 2873 
Q 3191 2616 2906 2266 
Q 2828 2175 2409 1742 
Q 1991 1309 1228 531 
z
" transform="scale(0.015625)"/>
       </defs>
       <use xlink:href="#DejaVuSans-2212"/>
       <use xlink:href="#DejaVuSans-32" transform="translate(83.789062 0)"/>
       <use xlink:href="#DejaVuSans-31" transform="translate(147.412109 0)"/>
      </g>
     </g>
    </g>
    <g id="ytick_2">
     <g id="line2d_4">
      <path d="M 47.5 365.984528 
L 622.485 365.984528 
" clip-path="url(#p3166f77070)" style="fill: none; stroke: #ffffff; stroke-width: 0.8; stroke-linecap: round"/>
     </g>
     <g id="text_4">
      <!-- −18 -->
      <g style="fill: #262626" transform="translate(10.953438 371.303435) scale(0.14 -0.14)">
       <defs>
        <path id="DejaVuSans-38" d="M 2034 2216 
Q 1584 2216 1326 1975 
Q 1069 1734 1069 1313 
Q 1069 891 1326 650 
Q 1584 409 2034 409 
Q 2484 409 2743 651 
Q 3003 894 3003 1313 
Q 3003 1734 2745 1975 
Q 2488 2216 2034 2216 
z
M 1403 2484 
Q 997 2584 770 2862 
Q 544 3141 544 3541 
Q 544 4100 942 4425 
Q 1341 4750 2034 4750 
Q 2731 4750 3128 4425 
Q 3525 4100 3525 3541 
Q 3525 3141 3298 2862 
Q 3072 2584 2669 2484 
Q 3125 2378 3379 2068 
Q 3634 1759 3634 1313 
Q 3634 634 3220 271 
Q 2806 -91 2034 -91 
Q 1263 -91 848 271 
Q 434 634 434 1313 
Q 434 1759 690 2068 
Q 947 2378 1403 2484 
z
M 1172 3481 
Q 1172 3119 1398 2916 
Q 1625 2713 2034 2713 
Q 2441 2713 2670 2916 
Q 2900 3119 2900 3481 
Q 2900 3844 2670 4047 
Q 2441 4250 2034 4250 
Q 1625 4250 1398 4047 
Q 1172 3844 1172 3481 
z
" transform="scale(0.015625)"/>
       </defs>
       <use xlink:href="#DejaVuSans-2212"/>
       <use xlink:href="#DejaVuSans-31" transform="translate(83.789062 0)"/>
       <use xlink:href="#DejaVuSans-38" transform="translate(147.412109 0)"/>
      </g>
     </g>
    </g>
    <g id="ytick_3">
     <g id="line2d_5">
      <path d="M 47.5 341.663774 
L 622.485 341.663774 
" clip-path="url(#p3166f77070)" style="fill: none; stroke: #ffffff; stroke-width: 0.8; stroke-linecap: round"/>
     </g>
     <g id="text_5">
      <!-- −15 -->
      <g style="fill: #262626" transform="translate(10.953438 346.98268) scale(0.14 -0.14)">
       <defs>
        <path id="DejaVuSans-35" d="M 691 4666 
L 3169 4666 
L 3169 4134 
L 1269 4134 
L 1269 2991 
Q 1406 3038 1543 3061 
Q 1681 3084 1819 3084 
Q 2600 3084 3056 2656 
Q 3513 2228 3513 1497 
Q 3513 744 3044 326 
Q 2575 -91 1722 -91 
Q 1428 -91 1123 -41 
Q 819 9 494 109 
L 494 744 
Q 775 591 1075 516 
Q 1375 441 1709 441 
Q 2250 441 2565 725 
Q 2881 1009 2881 1497 
Q 2881 1984 2565 2268 
Q 2250 2553 1709 2553 
Q 1456 2553 1204 2497 
Q 953 2441 691 2322 
L 691 4666 
z
" transform="scale(0.015625)"/>
       </defs>
       <use xlink:href="#DejaVuSans-2212"/>
       <use xlink:href="#DejaVuSans-31" transform="translate(83.789062 0)"/>
       <use xlink:href="#DejaVuSans-35" transform="translate(147.412109 0)"/>
      </g>
     </g>
    </g>
    <g id="ytick_4">
     <g id="line2d_6">
      <path d="M 47.5 317.343019 
L 622.485 317.343019 
" clip-path="url(#p3166f77070)" style="fill: none; stroke: #ffffff; stroke-width: 0.8; stroke-linecap: round"/>
     </g>
     <g id="text_6">
      <!-- −12 -->
      <g style="fill: #262626" transform="translate(10.953438 322.661925) scale(0.14 -0.14)">
       <use xlink:href="#DejaVuSans-2212"/>
       <use xlink:href="#DejaVuSans-31" transform="translate(83.789062 0)"/>
       <use xlink:href="#DejaVuSans-32" transform="translate(147.412109 0)"/>
      </g>
     </g>
    </g>
    <g id="ytick_5">
     <g id="line2d_7">
      <path d="M 47.5 293.022264 
L 622.485 293.022264 
" clip-path="url(#p3166f77070)" style="fill: none; stroke: #ffffff; stroke-width: 0.8; stroke-linecap: round"/>
     </g>
     <g id="text_7">
      <!-- −9 -->
      <g style="fill: #262626" transform="translate(19.860938 298.34117) scale(0.14 -0.14)">
       <defs>
        <path id="DejaVuSans-39" d="M 703 97 
L 703 672 
Q 941 559 1184 500 
Q 1428 441 1663 441 
Q 2288 441 2617 861 
Q 2947 1281 2994 2138 
Q 2813 1869 2534 1725 
Q 2256 1581 1919 1581 
Q 1219 1581 811 2004 
Q 403 2428 403 3163 
Q 403 3881 828 4315 
Q 1253 4750 1959 4750 
Q 2769 4750 3195 4129 
Q 3622 3509 3622 2328 
Q 3622 1225 3098 567 
Q 2575 -91 1691 -91 
Q 1453 -91 1209 -44 
Q 966 3 703 97 
z
M 1959 2075 
Q 2384 2075 2632 2365 
Q 2881 2656 2881 3163 
Q 2881 3666 2632 3958 
Q 2384 4250 1959 4250 
Q 1534 4250 1286 3958 
Q 1038 3666 1038 3163 
Q 1038 2656 1286 2365 
Q 1534 2075 1959 2075 
z
" transform="scale(0.015625)"/>
       </defs>
       <use xlink:href="#DejaVuSans-2212"/>
       <use xlink:href="#DejaVuSans-39" transform="translate(83.789062 0)"/>
      </g>
     </g>
    </g>
    <g id="ytick_6">
     <g id="line2d_8">
      <path d="M 47.5 268.701509 
L 622.485 268.701509 
" clip-path="url(#p3166f77070)" style="fill: none; stroke: #ffffff; stroke-width: 0.8; stroke-linecap: round"/>
     </g>
     <g id="text_8">
      <!-- −6 -->
      <g style="fill: #262626" transform="translate(19.860938 274.020416) scale(0.14 -0.14)">
       <defs>
        <path id="DejaVuSans-36" d="M 2113 2584 
Q 1688 2584 1439 2293 
Q 1191 2003 1191 1497 
Q 1191 994 1439 701 
Q 1688 409 2113 409 
Q 2538 409 2786 701 
Q 3034 994 3034 1497 
Q 3034 2003 2786 2293 
Q 2538 2584 2113 2584 
z
M 3366 4563 
L 3366 3988 
Q 3128 4100 2886 4159 
Q 2644 4219 2406 4219 
Q 1781 4219 1451 3797 
Q 1122 3375 1075 2522 
Q 1259 2794 1537 2939 
Q 1816 3084 2150 3084 
Q 2853 3084 3261 2657 
Q 3669 2231 3669 1497 
Q 3669 778 3244 343 
Q 2819 -91 2113 -91 
Q 1303 -91 875 529 
Q 447 1150 447 2328 
Q 447 3434 972 4092 
Q 1497 4750 2381 4750 
Q 2619 4750 2861 4703 
Q 3103 4656 3366 4563 
z
" transform="scale(0.015625)"/>
       </defs>
       <use xlink:href="#DejaVuSans-2212"/>
       <use xlink:href="#DejaVuSans-36" transform="translate(83.789062 0)"/>
      </g>
     </g>
    </g>
    <g id="ytick_7">
     <g id="line2d_9">
      <path d="M 47.5 244.380755 
L 622.485 244.380755 
" clip-path="url(#p3166f77070)" style="fill: none; stroke: #ffffff; stroke-width: 0.8; stroke-linecap: round"/>
     </g>
     <g id="text_9">
      <!-- −3 -->
      <g style="fill: #262626" transform="translate(19.860938 249.699661) scale(0.14 -0.14)">
       <defs>
        <path id="DejaVuSans-33" d="M 2597 2516 
Q 3050 2419 3304 2112 
Q 3559 1806 3559 1356 
Q 3559 666 3084 287 
Q 2609 -91 1734 -91 
Q 1441 -91 1130 -33 
Q 819 25 488 141 
L 488 750 
Q 750 597 1062 519 
Q 1375 441 1716 441 
Q 2309 441 2620 675 
Q 2931 909 2931 1356 
Q 2931 1769 2642 2001 
Q 2353 2234 1838 2234 
L 1294 2234 
L 1294 2753 
L 1863 2753 
Q 2328 2753 2575 2939 
Q 2822 3125 2822 3475 
Q 2822 3834 2567 4026 
Q 2313 4219 1838 4219 
Q 1578 4219 1281 4162 
Q 984 4106 628 3988 
L 628 4550 
Q 988 4650 1302 4700 
Q 1616 4750 1894 4750 
Q 2613 4750 3031 4423 
Q 3450 4097 3450 3541 
Q 3450 3153 3228 2886 
Q 3006 2619 2597 2516 
z
" transform="scale(0.015625)"/>
       </defs>
       <use xlink:href="#DejaVuSans-2212"/>
       <use xlink:href="#DejaVuSans-33" transform="translate(83.789062 0)"/>
      </g>
     </g>
    </g>
    <g id="ytick_8">
     <g id="line2d_10">
      <path d="M 47.5 220.06 
L 622.485 220.06 
" clip-path="url(#p3166f77070)" style="fill: none; stroke: #ffffff; stroke-width: 0.8; stroke-linecap: round"/>
     </g>
     <g id="text_10">
      <!-- 0 -->
      <g style="fill: #262626" transform="translate(31.5925 225.378906) scale(0.14 -0.14)">
       <use xlink:href="#DejaVuSans-30"/>
      </g>
     </g>
    </g>
    <g id="ytick_9">
     <g id="line2d_11">
      <path d="M 47.5 195.739245 
L 622.485 195.739245 
" clip-path="url(#p3166f77070)" style="fill: none; stroke: #ffffff; stroke-width: 0.8; stroke-linecap: round"/>
     </g>
     <g id="text_11">
      <!-- 3 -->
      <g style="fill: #262626" transform="translate(31.5925 201.058152) scale(0.14 -0.14)">
       <use xlink:href="#DejaVuSans-33"/>
      </g>
     </g>
    </g>
    <g id="ytick_10">
     <g id="line2d_12">
      <path d="M 47.5 171.418491 
L 622.485 171.418491 
" clip-path="url(#p3166f77070)" style="fill: none; stroke: #ffffff; stroke-width: 0.8; stroke-linecap: round"/>
     </g>
     <g id="text_12">
      <!-- 6 -->
      <g style="fill: #262626" transform="translate(31.5925 176.737397) scale(0.14 -0.14)">
       <use xlink:href="#DejaVuSans-36"/>
      </g>
     </g>
    </g>
    <g id="ytick_11">
     <g id="line2d_13">
      <path d="M 47.5 147.097736 
L 622.485 147.097736 
" clip-path="url(#p3166f77070)" style="fill: none; stroke: #ffffff; stroke-width: 0.8; stroke-linecap: round"/>
     </g>
     <g id="text_13">
      <!-- 9 -->
      <g style="fill: #262626" transform="translate(31.5925 152.416642) scale(0.14 -0.14)">
       <use xlink:href="#DejaVuSans-39"/>
      </g>
     </g>
    </g>
    <g id="ytick_12">
     <g id="line2d_14">
      <path d="M 47.5 122.776981 
L 622.485 122.776981 
" clip-path="url(#p3166f77070)" style="fill: none; stroke: #ffffff; stroke-width: 0.8; stroke-linecap: round"/>
     </g>
     <g id="text_14">
      <!-- 12 -->
      <g style="fill: #262626" transform="translate(22.685 128.095887) scale(0.14 -0.14)">
       <use xlink:href="#DejaVuSans-31"/>
       <use xlink:href="#DejaVuSans-32" transform="translate(63.623047 0)"/>
      </g>
     </g>
    </g>
    <g id="ytick_13">
     <g id="line2d_15">
      <path d="M 47.5 98.456226 
L 622.485 98.456226 
" clip-path="url(#p3166f77070)" style="fill: none; stroke: #ffffff; stroke-width: 0.8; stroke-linecap: round"/>
     </g>
     <g id="text_15">
      <!-- 15 -->
      <g style="fill: #262626" transform="translate(22.685 103.775133) scale(0.14 -0.14)">
       <use xlink:href="#DejaVuSans-31"/>
       <use xlink:href="#DejaVuSans-35" transform="translate(63.623047 0)"/>
      </g>
     </g>
    </g>
    <g id="ytick_14">
     <g id="line2d_16">
      <path d="M 47.5 74.135472 
L 622.485 74.135472 
" clip-path="url(#p3166f77070)" style="fill: none; stroke: #ffffff; stroke-width: 0.8; stroke-linecap: round"/>
     </g>
     <g id="text_16">
      <!-- 18 -->
      <g style="fill: #262626" transform="translate(22.685 79.454378) scale(0.14 -0.14)">
       <use xlink:href="#DejaVuSans-31"/>
       <use xlink:href="#DejaVuSans-38" transform="translate(63.623047 0)"/>
      </g>
     </g>
    </g>
    <g id="ytick_15">
     <g id="line2d_17">
      <path d="M 47.5 49.814717 
L 622.485 49.814717 
" clip-path="url(#p3166f77070)" style="fill: none; stroke: #ffffff; stroke-width: 0.8; stroke-linecap: round"/>
     </g>
     <g id="text_17">
      <!-- 21 -->
      <g style="fill: #262626" transform="translate(22.685 55.133623) scale(0.14 -0.14)">
       <use xlink:href="#DejaVuSans-32"/>
       <use xlink:href="#DejaVuSans-31" transform="translate(63.623047 0)"/>
      </g>
     </g>
    </g>
   </g>
   <g id="FillBetweenPolyCollection_1">
    <path d="M 58.410531 383.476145 
L 58.410531 387.406119 
L 63.996723 386.525122 
L 69.582915 386.54278 
L 75.169107 385.059846 
L 80.755299 380.024832 
L 86.341491 382.77797 
L 91.927683 381.125188 
L 97.513876 373.686851 
L 103.100068 362.333417 
L 108.68626 360.174533 
L 114.272452 359.961141 
L 119.858644 351.973992 
L 125.444836 333.539529 
L 131.031028 321.180356 
L 136.61722 309.091913 
L 142.203412 319.443103 
L 147.789604 278.411317 
L 153.375796 272.41092 
L 158.961988 253.816458 
L 164.54818 247.275223 
L 170.134372 187.313882 
L 175.720564 152.73267 
L 181.306756 129.328457 
L 186.892948 129.626441 
L 192.47914 137.618407 
L 198.065332 119.073752 
L 203.651524 100.151361 
L 209.237716 98.158014 
L 214.823908 117.216291 
L 220.4101 119.217589 
L 225.996292 110.317374 
L 231.582484 120.780716 
L 237.168676 109.268977 
L 242.754868 101.942172 
L 248.34106 106.873837 
L 253.927252 106.148818 
L 259.513444 102.928318 
L 265.099636 107.913708 
L 270.685828 102.409585 
L 276.27202 91.349732 
L 281.858213 121.324109 
L 287.444405 102.74251 
L 293.030597 84.008165 
L 298.616789 106.483467 
L 304.202981 70.330512 
L 309.789173 77.296449 
L 315.375365 90.089807 
L 320.961557 73.859572 
L 326.547749 67.953212 
L 332.133941 135.296474 
L 337.720133 71.175206 
L 343.306325 65.627611 
L 348.892517 66.731099 
L 354.478709 65.296932 
L 360.064901 90.612682 
L 365.651093 101.293648 
L 371.237285 111.979105 
L 376.823477 109.726529 
L 382.409669 104.416423 
L 387.995861 83.780065 
L 393.582053 116.673014 
L 399.168245 86.001242 
L 404.754437 138.511754 
L 410.340629 146.875734 
L 415.926821 143.477482 
L 421.513013 102.004383 
L 427.099205 95.680812 
L 432.685397 89.21551 
L 438.271589 85.206035 
L 443.857781 103.977348 
L 449.443973 174.626668 
L 455.030165 172.478384 
L 460.616357 172.22283 
L 466.20255 151.422274 
L 471.788742 108.661092 
L 477.374934 88.93582 
L 482.961126 88.576395 
L 488.547318 98.129967 
L 494.13351 84.082203 
L 499.719702 105.46795 
L 505.305894 61.697177 
L 510.892086 62.124351 
L 516.478278 66.207789 
L 522.06447 68.966636 
L 527.650662 96.929569 
L 533.236854 97.649358 
L 538.823046 86.936883 
L 544.409238 101.628554 
L 549.99543 133.266234 
L 555.581622 99.725538 
L 561.167814 71.458599 
L 566.754006 71.129084 
L 572.340198 59.964332 
L 577.92639 62.089299 
L 583.512582 89.874418 
L 589.098774 88.654181 
L 594.684966 87.950373 
L 600.271158 81.762083 
L 605.85735 70.910786 
L 611.443542 58.272908 
L 611.443542 51.490174 
L 611.443542 51.490174 
L 605.85735 48.175252 
L 600.271158 47.862948 
L 594.684966 43.296042 
L 589.098774 50.293806 
L 583.512582 46.236149 
L 577.92639 50.105859 
L 572.340198 52.230825 
L 566.754006 55.25318 
L 561.167814 54.923665 
L 555.581622 53.409557 
L 549.99543 47.432383 
L 544.409238 62.045534 
L 538.823046 49.579029 
L 533.236854 54.675044 
L 527.650662 45.666531 
L 522.06447 53.767515 
L 516.478278 55.71567 
L 510.892086 53.718919 
L 505.305894 55.767477 
L 499.719702 42.802993 
L 494.13351 47.569558 
L 488.547318 53.383744 
L 482.961126 50.776938 
L 477.374934 49.606821 
L 471.788742 53.796958 
L 466.20255 43.868795 
L 460.616357 36.444655 
L 455.030165 32.946333 
L 449.443973 38.094275 
L 443.857781 42.672212 
L 438.271589 49.283147 
L 432.685397 45.679019 
L 427.099205 57.859628 
L 421.513013 49.914673 
L 415.926821 46.138744 
L 410.340629 59.765021 
L 404.754437 46.645667 
L 399.168245 52.136053 
L 393.582053 51.054534 
L 387.995861 47.061005 
L 382.409669 42.233137 
L 376.823477 50.299445 
L 371.237285 44.804102 
L 365.651093 41.302453 
L 360.064901 54.010148 
L 354.478709 53.789105 
L 348.892517 53.16563 
L 343.306325 56.295848 
L 337.720133 59.260518 
L 332.133941 34.052457 
L 326.547749 53.970247 
L 320.961557 53.73873 
L 315.375365 49.668872 
L 309.789173 56.787388 
L 304.202981 61.321249 
L 298.616789 46.246282 
L 293.030597 59.398627 
L 287.444405 49.581892 
L 281.858213 46.808784 
L 276.27202 53.273098 
L 270.685828 44.239975 
L 265.099636 53.73365 
L 259.513444 53.449544 
L 253.927252 42.122125 
L 248.34106 59.232326 
L 242.754868 45.112733 
L 237.168676 60.079954 
L 231.582484 70.86224 
L 225.996292 78.082815 
L 220.4101 72.830713 
L 214.823908 66.725092 
L 209.237716 57.409156 
L 203.651524 61.090651 
L 198.065332 67.705053 
L 192.47914 52.403165 
L 186.892948 72.150163 
L 181.306756 75.690914 
L 175.720564 76.607456 
L 170.134372 84.182219 
L 164.54818 93.129682 
L 158.961988 96.316749 
L 153.375796 114.203419 
L 147.789604 111.851136 
L 142.203412 119.460859 
L 136.61722 101.843182 
L 131.031028 104.347191 
L 125.444836 160.491477 
L 119.858644 177.322108 
L 114.272452 202.978671 
L 108.68626 236.003643 
L 103.100068 293.835954 
L 97.513876 318.963652 
L 91.927683 351.654561 
L 86.341491 362.567502 
L 80.755299 372.616866 
L 75.169107 376.499462 
L 69.582915 379.475333 
L 63.996723 383.54645 
L 58.410531 383.476145 
z
" clip-path="url(#p3166f77070)" style="fill: #0000ff; fill-opacity: 0.1"/>
   </g>
   <g id="line2d_18">
    <path d="M 58.410531 385.441132 
L 63.996723 385.035786 
L 69.582915 383.009057 
L 75.169107 380.779654 
L 80.755299 376.320849 
L 86.341491 372.672736 
L 91.927683 366.389874 
L 97.513876 346.325252 
L 103.100068 328.084686 
L 108.68626 298.089088 
L 114.272452 281.469906 
L 119.858644 264.64805 
L 125.444836 247.015503 
L 131.031028 212.763774 
L 136.61722 205.467547 
L 142.203412 219.451981 
L 147.789604 195.131226 
L 153.375796 193.30717 
L 158.961988 175.066604 
L 164.54818 170.202453 
L 170.134372 135.74805 
L 175.720564 114.670063 
L 181.306756 102.509686 
L 186.892948 100.888302 
L 192.47914 95.010786 
L 198.065332 93.389403 
L 203.651524 80.621006 
L 209.237716 77.783585 
L 214.823908 91.970692 
L 220.4101 96.024151 
L 225.996292 94.200094 
L 231.582484 95.821478 
L 237.168676 84.674465 
L 242.754868 73.527453 
L 248.34106 83.053082 
L 253.927252 74.135472 
L 259.513444 78.188931 
L 265.099636 80.823679 
L 270.685828 73.32478 
L 276.27202 72.311415 
L 281.858213 84.066447 
L 287.444405 76.162201 
L 293.030597 71.703396 
L 298.616789 76.364874 
L 304.202981 65.825881 
L 309.789173 67.041918 
L 315.375365 69.87934 
L 320.961557 63.799151 
L 326.547749 60.96173 
L 332.133941 84.674465 
L 337.720133 65.217862 
L 343.306325 60.96173 
L 348.892517 59.948365 
L 354.478709 59.543019 
L 360.064901 72.311415 
L 365.651093 71.29805 
L 371.237285 78.391604 
L 376.823477 80.012987 
L 382.409669 73.32478 
L 387.995861 65.420535 
L 393.582053 83.863774 
L 399.168245 69.068648 
L 404.754437 92.578711 
L 410.340629 103.320377 
L 415.926821 94.808113 
L 421.513013 75.959528 
L 427.099205 76.77022 
L 432.685397 67.447264 
L 438.271589 67.244591 
L 443.857781 73.32478 
L 449.443973 106.360472 
L 455.030165 102.712358 
L 460.616357 104.333742 
L 466.20255 97.645535 
L 471.788742 81.229025 
L 477.374934 69.271321 
L 482.961126 69.676667 
L 488.547318 75.756855 
L 494.13351 65.825881 
L 499.719702 74.135472 
L 505.305894 58.732327 
L 510.892086 57.921635 
L 516.478278 60.96173 
L 522.06447 61.367075 
L 527.650662 71.29805 
L 533.236854 76.162201 
L 538.823046 68.257956 
L 544.409238 81.837044 
L 549.99543 90.349308 
L 555.581622 76.567547 
L 561.167814 63.191132 
L 566.754006 63.191132 
L 572.340198 56.097579 
L 577.92639 56.097579 
L 583.512582 68.055283 
L 589.098774 69.473994 
L 594.684966 65.623208 
L 600.271158 64.812516 
L 605.85735 59.543019 
L 611.443542 54.881541 
" clip-path="url(#p3166f77070)" style="fill: none; stroke: #0000ff; stroke-width: 2; stroke-linecap: round"/>
   </g>
   <g id="line2d_19">
    <path d="M 58.410531 387.265189 
L 63.996723 384.225094 
L 69.582915 384.225094 
L 75.169107 381.185 
L 80.755299 377.131541 
L 86.341491 376.118176 
L 91.927683 381.185 
L 97.513876 373.078082 
L 103.100068 370.037987 
L 108.68626 364.971164 
L 114.272452 351.797421 
L 119.858644 355.850881 
L 125.444836 324.436572 
L 131.031028 306.196006 
L 136.61722 298.089088 
L 142.203412 277.821792 
L 147.789604 232.220377 
L 153.375796 209.926352 
L 158.961988 182.565503 
L 164.54818 167.365031 
L 170.134372 114.670063 
L 175.720564 77.175566 
L 181.306756 81.229025 
L 186.892948 88.322579 
L 192.47914 61.975094 
L 198.065332 93.389403 
L 203.651524 83.255755 
L 209.237716 70.082013 
L 214.823908 79.202296 
L 220.4101 67.041918 
L 225.996292 100.482956 
L 231.582484 59.948365 
L 237.168676 78.188931 
L 242.754868 52.854811 
L 248.34106 68.055283 
L 253.927252 59.948365 
L 259.513444 77.175566 
L 265.099636 59.948365 
L 270.685828 61.975094 
L 276.27202 72.108742 
L 281.858213 56.90827 
L 287.444405 74.135472 
L 293.030597 67.041918 
L 298.616789 57.921635 
L 304.202981 58.935 
L 309.789173 57.921635 
L 315.375365 57.921635 
L 320.961557 57.921635 
L 326.547749 58.935 
L 332.133941 62.988459 
L 337.720133 64.001824 
L 343.306325 66.028553 
L 348.892517 57.921635 
L 354.478709 62.988459 
L 360.064901 73.122107 
L 365.651093 57.921635 
L 371.237285 82.24239 
L 376.823477 118.723522 
L 382.409669 58.935 
L 387.995861 58.935 
L 393.582053 104.536415 
L 399.168245 57.921635 
L 404.754437 121.763616 
L 410.340629 80.21566 
L 415.926821 57.921635 
L 421.513013 59.948365 
L 427.099205 58.935 
L 432.685397 59.948365 
L 438.271589 68.055283 
L 443.857781 61.975094 
L 449.443973 65.015189 
L 455.030165 58.935 
L 460.616357 59.948365 
L 466.20255 62.988459 
L 471.788742 62.988459 
L 477.374934 58.935 
L 482.961126 56.90827 
L 488.547318 103.52305 
L 494.13351 55.894906 
L 499.719702 57.921635 
L 505.305894 57.921635 
L 510.892086 58.935 
L 516.478278 57.921635 
L 522.06447 57.921635 
L 527.650662 57.921635 
L 533.236854 59.948365 
L 538.823046 57.921635 
L 544.409238 57.921635 
L 549.99543 57.921635 
L 555.581622 57.921635 
L 561.167814 64.001824 
L 566.754006 64.001824 
L 572.340198 57.921635 
L 577.92639 67.041918 
L 583.512582 57.921635 
L 589.098774 57.921635 
L 594.684966 58.935 
L 600.271158 57.921635 
L 605.85735 57.921635 
L 611.443542 57.921635 
" clip-path="url(#p3166f77070)" style="fill: none; stroke: #008000; stroke-opacity: 0.27; stroke-width: 1.25; stroke-linecap: round"/>
   </g>
   <g id="line2d_20">
    <path d="M 58.410531 386.251824 
L 63.996723 386.251824 
L 69.582915 378.144906 
L 75.169107 381.185 
L 80.755299 370.037987 
L 86.341491 352.810786 
L 91.927683 341.663774 
L 97.513876 336.59695 
L 103.100068 314.302925 
L 108.68626 270.728239 
L 114.272452 269.714874 
L 119.858644 233.233742 
L 125.444836 202.832799 
L 131.031028 88.322579 
L 136.61722 87.309214 
L 142.203412 131.897264 
L 147.789604 134.937358 
L 153.375796 141.017547 
L 158.961988 121.763616 
L 164.54818 111.629969 
L 170.134372 121.763616 
L 175.720564 133.923994 
L 181.306756 122.776981 
L 186.892948 131.897264 
L 192.47914 174.458585 
L 198.065332 132.910629 
L 203.651524 114.670063 
L 209.237716 116.696792 
L 214.823908 126.83044 
L 220.4101 121.763616 
L 225.996292 121.763616 
L 231.582484 135.950723 
L 237.168676 130.883899 
L 242.754868 129.870535 
L 248.34106 124.803711 
L 253.927252 137.977453 
L 259.513444 125.817075 
L 265.099636 127.843805 
L 270.685828 130.883899 
L 276.27202 108.589874 
L 281.858213 153.177925 
L 287.444405 127.843805 
L 293.030597 92.376038 
L 298.616789 74.135472 
L 304.202981 62.988459 
L 309.789173 78.188931 
L 315.375365 57.921635 
L 320.961557 57.921635 
L 326.547749 71.095377 
L 332.133941 64.001824 
L 337.720133 74.135472 
L 343.306325 58.935 
L 348.892517 64.001824 
L 354.478709 67.041918 
L 360.064901 103.52305 
L 365.651093 130.883899 
L 371.237285 142.030912 
L 376.823477 113.656698 
L 382.409669 134.937358 
L 387.995861 101.496321 
L 393.582053 138.990818 
L 399.168245 78.188931 
L 404.754437 169.391761 
L 410.340629 135.950723 
L 415.926821 137.977453 
L 421.513013 121.763616 
L 427.099205 107.576509 
L 432.685397 110.616604 
L 438.271589 101.496321 
L 443.857781 133.923994 
L 449.443973 127.843805 
L 455.030165 111.629969 
L 460.616357 135.950723 
L 466.20255 107.576509 
L 471.788742 116.696792 
L 477.374934 106.563145 
L 482.961126 103.52305 
L 488.547318 102.509686 
L 494.13351 101.496321 
L 499.719702 135.950723 
L 505.305894 64.001824 
L 510.892086 64.001824 
L 516.478278 60.96173 
L 522.06447 69.068648 
L 527.650662 121.763616 
L 533.236854 110.616604 
L 538.823046 105.54978 
L 544.409238 108.589874 
L 549.99543 171.418491 
L 555.581622 98.456226 
L 561.167814 78.188931 
L 566.754006 78.188931 
L 572.340198 60.96173 
L 577.92639 51.841447 
L 583.512582 111.629969 
L 589.098774 104.536415 
L 594.684966 109.603239 
L 600.271158 97.442862 
L 605.85735 81.229025 
L 611.443542 56.90827 
" clip-path="url(#p3166f77070)" style="fill: none; stroke: #008000; stroke-opacity: 0.27; stroke-width: 1.25; stroke-linecap: round"/>
   </g>
   <g id="line2d_21">
    <path d="M 58.410531 387.265189 
L 63.996723 384.225094 
L 69.582915 380.171635 
L 75.169107 373.078082 
L 80.755299 378.144906 
L 86.341491 375.104811 
L 91.927683 357.87761 
L 97.513876 305.182642 
L 103.100068 295.048994 
L 108.68626 290.995535 
L 114.272452 272.754969 
L 119.858644 301.129182 
L 125.444836 279.848522 
L 131.031028 275.795063 
L 136.61722 265.661415 
L 142.203412 274.781698 
L 147.789604 263.634686 
L 153.375796 246.407484 
L 158.961988 221.073365 
L 164.54818 200.806069 
L 170.134372 154.191289 
L 175.720564 132.910629 
L 181.306756 116.696792 
L 186.892948 133.923994 
L 192.47914 104.536415 
L 198.065332 108.589874 
L 203.651524 82.24239 
L 209.237716 78.188931 
L 214.823908 69.068648 
L 220.4101 123.790346 
L 225.996292 74.135472 
L 231.582484 105.54978 
L 237.168676 56.90827 
L 242.754868 62.988459 
L 248.34106 91.362673 
L 253.927252 60.96173 
L 259.513444 60.96173 
L 265.099636 93.389403 
L 270.685828 61.975094 
L 276.27202 66.028553 
L 281.858213 61.975094 
L 287.444405 62.988459 
L 293.030597 62.988459 
L 298.616789 134.937358 
L 304.202981 68.055283 
L 309.789173 74.135472 
L 315.375365 108.589874 
L 320.961557 78.188931 
L 326.547749 57.921635 
L 332.133941 57.921635 
L 337.720133 68.055283 
L 343.306325 64.001824 
L 348.892517 57.921635 
L 354.478709 59.948365 
L 360.064901 76.162201 
L 365.651093 57.921635 
L 371.237285 57.921635 
L 376.823477 58.935 
L 382.409669 57.921635 
L 387.995861 57.921635 
L 393.582053 57.921635 
L 399.168245 97.442862 
L 404.754437 57.921635 
L 410.340629 172.431855 
L 415.926821 168.378396 
L 421.513013 87.309214 
L 427.099205 71.095377 
L 432.685397 55.894906 
L 438.271589 52.854811 
L 443.857781 62.988459 
L 449.443973 57.921635 
L 455.030165 53.868176 
L 460.616357 51.841447 
L 466.20255 56.90827 
L 471.788742 55.894906 
L 477.374934 51.841447 
L 482.961126 52.854811 
L 488.547318 53.868176 
L 494.13351 50.828082 
L 499.719702 50.828082 
L 505.305894 54.881541 
L 510.892086 50.828082 
L 516.478278 56.90827 
L 522.06447 50.828082 
L 527.650662 50.828082 
L 533.236854 57.921635 
L 538.823046 58.935 
L 544.409238 98.456226 
L 549.99543 68.055283 
L 555.581622 57.921635 
L 561.167814 53.868176 
L 566.754006 56.90827 
L 572.340198 53.868176 
L 577.92639 52.854811 
L 583.512582 54.881541 
L 589.098774 75.148836 
L 594.684966 50.828082 
L 600.271158 54.881541 
L 605.85735 50.828082 
L 611.443542 51.841447 
" clip-path="url(#p3166f77070)" style="fill: none; stroke: #008000; stroke-opacity: 0.27; stroke-width: 1.25; stroke-linecap: round"/>
   </g>
   <g id="line2d_22">
    <path d="M 58.410531 384.225094 
L 63.996723 383.21173 
L 69.582915 388.278553 
L 75.169107 382.198365 
L 80.755299 375.104811 
L 86.341491 380.171635 
L 91.927683 378.144906 
L 97.513876 380.171635 
L 103.100068 368.011258 
L 108.68626 363.957799 
L 114.272452 366.997893 
L 119.858644 323.423208 
L 125.444836 328.490031 
L 131.031028 319.369748 
L 136.61722 304.169277 
L 142.203412 339.637044 
L 147.789604 281.875252 
L 153.375796 297.075723 
L 158.961988 288.968805 
L 164.54818 297.075723 
L 170.134372 222.08673 
L 175.720564 165.338302 
L 181.306756 130.883899 
L 186.892948 92.376038 
L 192.47914 64.001824 
L 198.065332 68.055283 
L 203.651524 59.948365 
L 209.237716 62.988459 
L 214.823908 117.710157 
L 220.4101 76.162201 
L 225.996292 88.322579 
L 231.582484 92.376038 
L 237.168676 80.21566 
L 242.754868 62.988459 
L 248.34106 55.894906 
L 253.927252 53.868176 
L 259.513444 69.068648 
L 265.099636 53.868176 
L 270.685828 50.828082 
L 276.27202 54.881541 
L 281.858213 54.881541 
L 287.444405 54.881541 
L 293.030597 78.188931 
L 298.616789 52.854811 
L 304.202981 72.108742 
L 309.789173 51.841447 
L 315.375365 53.868176 
L 320.961557 51.841447 
L 326.547749 50.828082 
L 332.133941 52.854811 
L 337.720133 55.894906 
L 343.306325 52.854811 
L 348.892517 49.814717 
L 354.478709 49.814717 
L 360.064901 49.814717 
L 365.651093 49.814717 
L 371.237285 49.814717 
L 376.823477 50.828082 
L 382.409669 50.828082 
L 387.995861 49.814717 
L 393.582053 58.935 
L 399.168245 49.814717 
L 404.754437 51.841447 
L 410.340629 60.96173 
L 415.926821 51.841447 
L 421.513013 49.814717 
L 427.099205 88.322579 
L 432.685397 51.841447 
L 438.271589 53.868176 
L 443.857781 49.814717 
L 449.443973 49.814717 
L 455.030165 53.868176 
L 460.616357 49.814717 
L 466.20255 61.975094 
L 471.788742 57.921635 
L 477.374934 57.921635 
L 482.961126 57.921635 
L 488.547318 60.96173 
L 494.13351 62.988459 
L 499.719702 67.041918 
L 505.305894 57.921635 
L 510.892086 57.921635 
L 516.478278 57.921635 
L 522.06447 57.921635 
L 527.650662 61.975094 
L 533.236854 59.948365 
L 538.823046 60.96173 
L 544.409238 61.975094 
L 549.99543 57.921635 
L 555.581622 57.921635 
L 561.167814 57.921635 
L 566.754006 59.948365 
L 572.340198 57.921635 
L 577.92639 57.921635 
L 583.512582 57.921635 
L 589.098774 57.921635 
L 594.684966 58.935 
L 600.271158 64.001824 
L 605.85735 57.921635 
L 611.443542 57.921635 
" clip-path="url(#p3166f77070)" style="fill: none; stroke: #008000; stroke-opacity: 0.27; stroke-width: 1.25; stroke-linecap: round"/>
   </g>
   <g id="line2d_23">
    <path d="M 58.410531 382.198365 
L 63.996723 387.265189 
L 69.582915 384.225094 
L 75.169107 386.251824 
L 80.755299 381.185 
L 86.341491 379.15827 
L 91.927683 373.078082 
L 97.513876 336.59695 
L 103.100068 293.022264 
L 108.68626 199.792704 
L 114.272452 146.084371 
L 119.858644 109.603239 
L 125.444836 99.469591 
L 131.031028 74.135472 
L 136.61722 72.108742 
L 142.203412 73.122107 
L 147.789604 62.988459 
L 153.375796 72.108742 
L 158.961988 60.96173 
L 164.54818 74.135472 
L 170.134372 66.028553 
L 175.720564 64.001824 
L 181.306756 60.96173 
L 186.892948 57.921635 
L 192.47914 70.082013 
L 198.065332 64.001824 
L 203.651524 62.988459 
L 209.237716 60.96173 
L 214.823908 67.041918 
L 220.4101 91.362673 
L 225.996292 86.295849 
L 231.582484 85.282484 
L 237.168676 77.175566 
L 242.754868 58.935 
L 248.34106 75.148836 
L 253.927252 57.921635 
L 259.513444 57.921635 
L 265.099636 69.068648 
L 270.685828 60.96173 
L 276.27202 59.948365 
L 281.858213 93.389403 
L 287.444405 60.96173 
L 293.030597 57.921635 
L 298.616789 61.975094 
L 304.202981 67.041918 
L 309.789173 73.122107 
L 315.375365 71.095377 
L 320.961557 73.122107 
L 326.547749 66.028553 
L 332.133941 185.605597 
L 337.720133 64.001824 
L 343.306325 62.988459 
L 348.892517 70.082013 
L 354.478709 57.921635 
L 360.064901 58.935 
L 365.651093 59.948365 
L 371.237285 59.948365 
L 376.823477 57.921635 
L 382.409669 64.001824 
L 387.995861 58.935 
L 393.582053 58.935 
L 399.168245 61.975094 
L 404.754437 61.975094 
L 410.340629 67.041918 
L 415.926821 57.921635 
L 421.513013 60.96173 
L 427.099205 57.921635 
L 432.685397 58.935 
L 438.271589 59.948365 
L 443.857781 57.921635 
L 449.443973 231.207013 
L 455.030165 235.260472 
L 460.616357 224.113459 
L 466.20255 198.77934 
L 471.788742 112.643333 
L 477.374934 71.095377 
L 482.961126 77.175566 
L 488.547318 57.921635 
L 494.13351 57.921635 
L 499.719702 58.935 
L 505.305894 58.935 
L 510.892086 57.921635 
L 516.478278 71.095377 
L 522.06447 71.095377 
L 527.650662 64.001824 
L 533.236854 92.376038 
L 538.823046 57.921635 
L 544.409238 82.24239 
L 549.99543 96.429497 
L 555.581622 110.616604 
L 561.167814 61.975094 
L 566.754006 56.90827 
L 572.340198 49.814717 
L 577.92639 50.828082 
L 583.512582 57.921635 
L 589.098774 51.841447 
L 594.684966 49.814717 
L 600.271158 49.814717 
L 605.85735 49.814717 
L 611.443542 49.814717 
" clip-path="url(#p3166f77070)" style="fill: none; stroke: #008000; stroke-opacity: 0.27; stroke-width: 1.25; stroke-linecap: round"/>
   </g>
   <g id="line2d_24">
    <path d="M 58.410531 49.814717 
L 63.996723 70.132491 
L 69.582915 106.402462 
L 75.169107 143.668263 
L 80.755299 180.274413 
L 86.341491 195.080001 
L 91.927683 226.146174 
L 97.513876 234.852769 
L 103.100068 254.845509 
L 108.68626 259.937878 
L 114.272452 277.374388 
L 119.858644 277.887008 
L 125.444836 277.52605 
L 131.031028 294.666418 
L 136.61722 295.90773 
L 142.203412 300.297006 
L 147.789604 318.201542 
L 153.375796 332.438183 
L 158.961988 339.698665 
L 164.54818 336.752091 
L 170.134372 343.126294 
L 175.720564 347.055037 
L 181.306756 326.054331 
L 186.892948 339.451651 
L 192.47914 341.730907 
L 198.065332 333.927999 
L 203.651524 331.308726 
L 209.237716 332.544493 
L 214.823908 324.827755 
L 220.4101 326.264658 
L 225.996292 315.770243 
L 231.582484 337.047173 
L 237.168676 330.950361 
L 242.754868 335.481797 
L 248.34106 343.443248 
L 253.927252 344.339337 
L 259.513444 332.18135 
L 265.099636 341.596039 
L 270.685828 338.673498 
L 276.27202 346.4995 
L 281.858213 336.140781 
L 287.444405 338.814726 
L 293.030597 341.490711 
L 298.616789 342.476716 
L 304.202981 336.039866 
L 309.789173 332.007962 
L 315.375365 330.356108 
L 320.961557 346.602576 
L 326.547749 339.232387 
L 332.133941 358.53011 
L 337.720133 338.454381 
L 343.306325 322.081651 
L 348.892517 348.334658 
L 354.478709 339.354439 
L 360.064901 349.391507 
L 365.651093 357.462926 
L 371.237285 355.14869 
L 376.823477 361.311903 
L 382.409669 365.676375 
L 387.995861 367.72437 
L 393.582053 354.763228 
L 399.168245 354.595126 
L 404.754437 341.512537 
L 410.340629 349.274895 
L 415.926821 347.080332 
L 421.513013 363.326964 
L 427.099205 359.490879 
L 432.685397 352.298317 
L 438.271589 358.215188 
L 443.857781 349.921747 
L 449.443973 372.455841 
L 455.030165 381.543401 
L 460.616357 390.305283 
L 466.20255 360.62921 
L 471.788742 352.27393 
L 477.374934 352.686948 
L 482.961126 356.698429 
L 488.547318 346.612687 
L 494.13351 348.010573 
L 499.719702 341.38216 
L 505.305894 329.706729 
L 510.892086 340.34065 
L 516.478278 347.489317 
L 522.06447 344.617862 
L 527.650662 356.396597 
L 533.236854 359.588069 
L 538.823046 353.82143 
L 544.409238 355.772041 
L 549.99543 354.035339 
L 555.581622 356.021054 
L 561.167814 351.032439 
L 566.754006 340.312059 
L 572.340198 344.708776 
L 577.92639 344.653509 
L 583.512582 347.397422 
L 589.098774 353.582835 
L 594.684966 360.816304 
L 600.271158 355.694963 
L 605.85735 363.206774 
L 611.443542 360.719919 
" clip-path="url(#p3166f77070)" style="fill: none; stroke: #7b3ab8; stroke-width: 1.5; stroke-linecap: round"/>
   </g>
   <g id="patch_3">
    <path d="M 47.5 400.52 
L 47.5 39.6 
" style="fill: none; stroke: #ffffff; stroke-width: 0.8; stroke-linejoin: miter; stroke-linecap: square"/>
   </g>
   <g id="patch_4">
    <path d="M 622.485 400.52 
L 622.485 39.6 
" style="fill: none; stroke: #ffffff; stroke-width: 0.8; stroke-linejoin: miter; stroke-linecap: square"/>
   </g>
   <g id="patch_5">
    <path d="M 47.5 400.52 
L 622.485 400.52 
" style="fill: none; stroke: #ffffff; stroke-width: 0.8; stroke-linejoin: miter; stroke-linecap: square"/>
   </g>
   <g id="patch_6">
    <path d="M 47.5 39.6 
L 622.485 39.6 
" style="fill: none; stroke: #ffffff; stroke-width: 0.8; stroke-linejoin: miter; stroke-linecap: square"/>
   </g>
  </g>
  <g id="text_18">
   <!-- Pong-v5 | Logits (Baseline) -->
   <g style="fill: #262626" transform="translate(187.41375 22.395938) scale(0.18 -0.18)">
    <defs>
     <path id="DejaVuSans-Bold-50" d="M 588 4666 
L 2584 4666 
Q 3475 4666 3951 4270 
Q 4428 3875 4428 3144 
Q 4428 2409 3951 2014 
Q 3475 1619 2584 1619 
L 1791 1619 
L 1791 0 
L 588 0 
L 588 4666 
z
M 1791 3794 
L 1791 2491 
L 2456 2491 
Q 2806 2491 2997 2661 
Q 3188 2831 3188 3144 
Q 3188 3456 2997 3625 
Q 2806 3794 2456 3794 
L 1791 3794 
z
" transform="scale(0.015625)"/>
     <path id="DejaVuSans-Bold-6f" d="M 2203 2784 
Q 1831 2784 1636 2517 
Q 1441 2250 1441 1747 
Q 1441 1244 1636 976 
Q 1831 709 2203 709 
Q 2569 709 2762 976 
Q 2956 1244 2956 1747 
Q 2956 2250 2762 2517 
Q 2569 2784 2203 2784 
z
M 2203 3584 
Q 3106 3584 3614 3096 
Q 4122 2609 4122 1747 
Q 4122 884 3614 396 
Q 3106 -91 2203 -91 
Q 1297 -91 786 396 
Q 275 884 275 1747 
Q 275 2609 786 3096 
Q 1297 3584 2203 3584 
z
" transform="scale(0.015625)"/>
     <path id="DejaVuSans-Bold-6e" d="M 4056 2131 
L 4056 0 
L 2931 0 
L 2931 347 
L 2931 1631 
Q 2931 2084 2911 2256 
Q 2891 2428 2841 2509 
Q 2775 2619 2662 2680 
Q 2550 2741 2406 2741 
Q 2056 2741 1856 2470 
Q 1656 2200 1656 1722 
L 1656 0 
L 538 0 
L 538 3500 
L 1656 3500 
L 1656 2988 
Q 1909 3294 2193 3439 
Q 2478 3584 2822 3584 
Q 3428 3584 3742 3212 
Q 4056 2841 4056 2131 
z
" transform="scale(0.015625)"/>
     <path id="DejaVuSans-Bold-67" d="M 2919 594 
Q 2688 288 2409 144 
Q 2131 0 1766 0 
Q 1125 0 706 504 
Q 288 1009 288 1791 
Q 288 2575 706 3076 
Q 1125 3578 1766 3578 
Q 2131 3578 2409 3434 
Q 2688 3291 2919 2981 
L 2919 3500 
L 4044 3500 
L 4044 353 
Q 4044 -491 3511 -936 
Q 2978 -1381 1966 -1381 
Q 1638 -1381 1331 -1331 
Q 1025 -1281 716 -1178 
L 716 -306 
Q 1009 -475 1290 -558 
Q 1572 -641 1856 -641 
Q 2406 -641 2662 -400 
Q 2919 -159 2919 353 
L 2919 594 
z
M 2181 2772 
Q 1834 2772 1640 2515 
Q 1447 2259 1447 1791 
Q 1447 1309 1634 1061 
Q 1822 813 2181 813 
Q 2531 813 2725 1069 
Q 2919 1325 2919 1791 
Q 2919 2259 2725 2515 
Q 2531 2772 2181 2772 
z
" transform="scale(0.015625)"/>
     <path id="DejaVuSans-Bold-2d" d="M 347 2297 
L 2309 2297 
L 2309 1388 
L 347 1388 
L 347 2297 
z
" transform="scale(0.015625)"/>
     <path id="DejaVuSans-Bold-76" d="M 97 3500 
L 1216 3500 
L 2088 1081 
L 2956 3500 
L 4078 3500 
L 2700 0 
L 1472 0 
L 97 3500 
z
" transform="scale(0.015625)"/>
     <path id="DejaVuSans-Bold-35" d="M 678 4666 
L 3669 4666 
L 3669 3781 
L 1638 3781 
L 1638 3059 
Q 1775 3097 1914 3117 
Q 2053 3138 2203 3138 
Q 3056 3138 3531 2711 
Q 4006 2284 4006 1522 
Q 4006 766 3489 337 
Q 2972 -91 2053 -91 
Q 1656 -91 1267 -14 
Q 878 63 494 219 
L 494 1166 
Q 875 947 1217 837 
Q 1559 728 1863 728 
Q 2300 728 2551 942 
Q 2803 1156 2803 1522 
Q 2803 1891 2551 2103 
Q 2300 2316 1863 2316 
Q 1603 2316 1309 2248 
Q 1016 2181 678 2041 
L 678 4666 
z
" transform="scale(0.015625)"/>
     <path id="DejaVuSans-Bold-20" transform="scale(0.015625)"/>
     <path id="DejaVuSans-Bold-7c" d="M 1522 4891 
L 1522 -1509 
L 813 -1509 
L 813 4891 
L 1522 4891 
z
" transform="scale(0.015625)"/>
     <path id="DejaVuSans-Bold-4c" d="M 588 4666 
L 1791 4666 
L 1791 909 
L 3903 909 
L 3903 0 
L 588 0 
L 588 4666 
z
" transform="scale(0.015625)"/>
     <path id="DejaVuSans-Bold-69" d="M 538 3500 
L 1656 3500 
L 1656 0 
L 538 0 
L 538 3500 
z
M 538 4863 
L 1656 4863 
L 1656 3950 
L 538 3950 
L 538 4863 
z
" transform="scale(0.015625)"/>
     <path id="DejaVuSans-Bold-74" d="M 1759 4494 
L 1759 3500 
L 2913 3500 
L 2913 2700 
L 1759 2700 
L 1759 1216 
Q 1759 972 1856 886 
Q 1953 800 2241 800 
L 2816 800 
L 2816 0 
L 1856 0 
Q 1194 0 917 276 
Q 641 553 641 1216 
L 641 2700 
L 84 2700 
L 84 3500 
L 641 3500 
L 641 4494 
L 1759 4494 
z
" transform="scale(0.015625)"/>
     <path id="DejaVuSans-Bold-73" d="M 3272 3391 
L 3272 2541 
Q 2913 2691 2578 2766 
Q 2244 2841 1947 2841 
Q 1628 2841 1473 2761 
Q 1319 2681 1319 2516 
Q 1319 2381 1436 2309 
Q 1553 2238 1856 2203 
L 2053 2175 
Q 2913 2066 3209 1816 
Q 3506 1566 3506 1031 
Q 3506 472 3093 190 
Q 2681 -91 1863 -91 
Q 1516 -91 1145 -36 
Q 775 19 384 128 
L 384 978 
Q 719 816 1070 734 
Q 1422 653 1784 653 
Q 2113 653 2278 743 
Q 2444 834 2444 1013 
Q 2444 1163 2330 1236 
Q 2216 1309 1875 1350 
L 1678 1375 
Q 931 1469 631 1722 
Q 331 1975 331 2491 
Q 331 3047 712 3315 
Q 1094 3584 1881 3584 
Q 2191 3584 2531 3537 
Q 2872 3491 3272 3391 
z
" transform="scale(0.015625)"/>
     <path id="DejaVuSans-Bold-28" d="M 2413 -844 
L 1484 -844 
Q 1006 -72 778 623 
Q 550 1319 550 2003 
Q 550 2688 779 3389 
Q 1009 4091 1484 4856 
L 2413 4856 
Q 2013 4116 1813 3408 
Q 1613 2700 1613 2009 
Q 1613 1319 1811 609 
Q 2009 -100 2413 -844 
z
" transform="scale(0.015625)"/>
     <path id="DejaVuSans-Bold-42" d="M 2456 2859 
Q 2741 2859 2887 2984 
Q 3034 3109 3034 3353 
Q 3034 3594 2887 3720 
Q 2741 3847 2456 3847 
L 1791 3847 
L 1791 2859 
L 2456 2859 
z
M 2497 819 
Q 2859 819 3042 972 
Q 3225 1125 3225 1434 
Q 3225 1738 3044 1889 
Q 2863 2041 2497 2041 
L 1791 2041 
L 1791 819 
L 2497 819 
z
M 3616 2497 
Q 4003 2384 4215 2081 
Q 4428 1778 4428 1338 
Q 4428 663 3972 331 
Q 3516 0 2584 0 
L 588 0 
L 588 4666 
L 2394 4666 
Q 3366 4666 3802 4372 
Q 4238 4078 4238 3431 
Q 4238 3091 4078 2852 
Q 3919 2613 3616 2497 
z
" transform="scale(0.015625)"/>
     <path id="DejaVuSans-Bold-61" d="M 2106 1575 
Q 1756 1575 1579 1456 
Q 1403 1338 1403 1106 
Q 1403 894 1545 773 
Q 1688 653 1941 653 
Q 2256 653 2472 879 
Q 2688 1106 2688 1447 
L 2688 1575 
L 2106 1575 
z
M 3816 1997 
L 3816 0 
L 2688 0 
L 2688 519 
Q 2463 200 2181 54 
Q 1900 -91 1497 -91 
Q 953 -91 614 226 
Q 275 544 275 1050 
Q 275 1666 698 1953 
Q 1122 2241 2028 2241 
L 2688 2241 
L 2688 2328 
Q 2688 2594 2478 2717 
Q 2269 2841 1825 2841 
Q 1466 2841 1156 2769 
Q 847 2697 581 2553 
L 581 3406 
Q 941 3494 1303 3539 
Q 1666 3584 2028 3584 
Q 2975 3584 3395 3211 
Q 3816 2838 3816 1997 
z
" transform="scale(0.015625)"/>
     <path id="DejaVuSans-Bold-65" d="M 4031 1759 
L 4031 1441 
L 1416 1441 
Q 1456 1047 1700 850 
Q 1944 653 2381 653 
Q 2734 653 3104 758 
Q 3475 863 3866 1075 
L 3866 213 
Q 3469 63 3072 -14 
Q 2675 -91 2278 -91 
Q 1328 -91 801 392 
Q 275 875 275 1747 
Q 275 2603 792 3093 
Q 1309 3584 2216 3584 
Q 3041 3584 3536 3087 
Q 4031 2591 4031 1759 
z
M 2881 2131 
Q 2881 2450 2695 2645 
Q 2509 2841 2209 2841 
Q 1884 2841 1681 2658 
Q 1478 2475 1428 2131 
L 2881 2131 
z
" transform="scale(0.015625)"/>
     <path id="DejaVuSans-Bold-6c" d="M 538 4863 
L 1656 4863 
L 1656 0 
L 538 0 
L 538 4863 
z
" transform="scale(0.015625)"/>
     <path id="DejaVuSans-Bold-29" d="M 513 -844 
Q 913 -100 1113 609 
Q 1313 1319 1313 2009 
Q 1313 2700 1113 3408 
Q 913 4116 513 4856 
L 1441 4856 
Q 1916 4091 2145 3389 
Q 2375 2688 2375 2003 
Q 2375 1319 2147 623 
Q 1919 -72 1441 -844 
L 513 -844 
z
" transform="scale(0.015625)"/>
    </defs>
    <use xlink:href="#DejaVuSans-Bold-50"/>
    <use xlink:href="#DejaVuSans-Bold-6f" transform="translate(73.291016 0)"/>
    <use xlink:href="#DejaVuSans-Bold-6e" transform="translate(141.992188 0)"/>
    <use xlink:href="#DejaVuSans-Bold-67" transform="translate(213.183594 0)"/>
    <use xlink:href="#DejaVuSans-Bold-2d" transform="translate(284.765625 0)"/>
    <use xlink:href="#DejaVuSans-Bold-76" transform="translate(326.269531 0)"/>
    <use xlink:href="#DejaVuSans-Bold-35" transform="translate(391.455078 0)"/>
    <use xlink:href="#DejaVuSans-Bold-20" transform="translate(461.035156 0)"/>
    <use xlink:href="#DejaVuSans-Bold-7c" transform="translate(495.849609 0)"/>
    <use xlink:href="#DejaVuSans-Bold-20" transform="translate(532.373047 0)"/>
    <use xlink:href="#DejaVuSans-Bold-4c" transform="translate(567.1875 0)"/>
    <use xlink:href="#DejaVuSans-Bold-6f" transform="translate(630.908203 0)"/>
    <use xlink:href="#DejaVuSans-Bold-67" transform="translate(699.609375 0)"/>
    <use xlink:href="#DejaVuSans-Bold-69" transform="translate(771.191406 0)"/>
    <use xlink:href="#DejaVuSans-Bold-74" transform="translate(805.46875 0)"/>
    <use xlink:href="#DejaVuSans-Bold-73" transform="translate(853.271484 0)"/>
    <use xlink:href="#DejaVuSans-Bold-20" transform="translate(912.792969 0)"/>
    <use xlink:href="#DejaVuSans-Bold-28" transform="translate(947.607422 0)"/>
    <use xlink:href="#DejaVuSans-Bold-42" transform="translate(993.310547 0)"/>
    <use xlink:href="#DejaVuSans-Bold-61" transform="translate(1069.53125 0)"/>
    <use xlink:href="#DejaVuSans-Bold-73" transform="translate(1137.011719 0)"/>
    <use xlink:href="#DejaVuSans-Bold-65" transform="translate(1196.533203 0)"/>
    <use xlink:href="#DejaVuSans-Bold-6c" transform="translate(1264.355469 0)"/>
    <use xlink:href="#DejaVuSans-Bold-69" transform="translate(1298.632812 0)"/>
    <use xlink:href="#DejaVuSans-Bold-6e" transform="translate(1332.910156 0)"/>
    <use xlink:href="#DejaVuSans-Bold-65" transform="translate(1404.101562 0)"/>
    <use xlink:href="#DejaVuSans-Bold-29" transform="translate(1471.923828 0)"/>
   </g>
  </g>
 </g>
 <defs>
  <clipPath id="p3166f77070">
   <rect x="47.5" y="39.6" width="574.985" height="360.92"/>
  </clipPath>
 </defs>
</svg>
