<?xml version="1.0" encoding="utf-8" standalone="no"?>
<!DOCTYPE svg PUBLIC "-//W3C//DTD SVG 1.1//EN"
  "http://www.w3.org/Graphics/SVG/1.1/DTD/svg11.dtd">
<svg xmlns:xlink="http://www.w3.org/1999/xlink" width="648pt" height="432pt" viewBox="0 0 648 432" xmlns="http://www.w3.org/2000/svg" version="1.1">
 <metadata>
  <rdf:RDF xmlns:dc="http://purl.org/dc/elements/1.1/" xmlns:cc="http://creativecommons.org/ns#" xmlns:rdf="http://www.w3.org/1999/02/22-rdf-syntax-ns#">
   <cc:Work>
    <dc:type rdf:resource="http://purl.org/dc/dcmitype/StillImage"/>
    <dc:date>2025-07-31T00:19:01.868331</dc:date>
    <dc:format>image/svg+xml</dc:format>
    <dc:creator>
     <cc:Agent>
      <dc:title>Matplotlib v3.10.0, https://matplotlib.org/</dc:title>
     </cc:Agent>
    </dc:creator>
   </cc:Work>
  </rdf:RDF>
 </metadata>
 <defs>
  <style type="text/css">*{stroke-linejoin: round; stroke-linecap: butt}</style>
 </defs>
 <g id="figure_1">
  <g id="patch_1">
   <path d="M 0 432 
L 648 432 
L 648 0 
L 0 0 
z
" style="fill: #ffffff"/>
  </g>
  <g id="axes_1">
   <g id="patch_2">
    <path d="M 65.63 390.04 
L 608.94 390.04 
L 608.94 63.659 
L 65.63 63.659 
z
" style="fill: #eaeaf2"/>
   </g>
   <g id="matplotlib.axis_1">
    <g id="xtick_1">
     <g id="line2d_1">
      <path d="M 65.630796 390.04 
L 65.630796 63.659 
" clip-path="url(#p41a2bd46b4)" style="fill: none; stroke: #ffffff; stroke-width: 0.8; stroke-linecap: round"/>
     </g>
     <g id="text_1">
      <!-- 0.00 -->
      <g style="fill: #262626" transform="translate(54.497983 404.638438) scale(0.1 -0.1)">
       <defs>
        <path id="DejaVuSans-30" d="M 2034 4250 
Q 1547 4250 1301 3770 
Q 1056 3291 1056 2328 
Q 1056 1369 1301 889 
Q 1547 409 2034 409 
Q 2525 409 2770 889 
Q 3016 1369 3016 2328 
Q 3016 3291 2770 3770 
Q 2525 4250 2034 4250 
z
M 2034 4750 
Q 2819 4750 3233 4129 
Q 3647 3509 3647 2328 
Q 3647 1150 3233 529 
Q 2819 -91 2034 -91 
Q 1250 -91 836 529 
Q 422 1150 422 2328 
Q 422 3509 836 4129 
Q 1250 4750 2034 4750 
z
" transform="scale(0.015625)"/>
        <path id="DejaVuSans-2e" d="M 684 794 
L 1344 794 
L 1344 0 
L 684 0 
L 684 794 
z
" transform="scale(0.015625)"/>
       </defs>
       <use xlink:href="#DejaVuSans-30"/>
       <use xlink:href="#DejaVuSans-2e" transform="translate(63.623047 0)"/>
       <use xlink:href="#DejaVuSans-30" transform="translate(95.410156 0)"/>
       <use xlink:href="#DejaVuSans-30" transform="translate(159.033203 0)"/>
      </g>
     </g>
    </g>
    <g id="xtick_2">
     <g id="line2d_2">
      <path d="M 131.952623 390.04 
L 131.952623 63.659 
" clip-path="url(#p41a2bd46b4)" style="fill: none; stroke: #ffffff; stroke-width: 0.8; stroke-linecap: round"/>
     </g>
     <g id="text_2">
      <!-- 0.25 -->
      <g style="fill: #262626" transform="translate(120.819811 404.638438) scale(0.1 -0.1)">
       <defs>
        <path id="DejaVuSans-32" d="M 1228 531 
L 3431 531 
L 3431 0 
L 469 0 
L 469 531 
Q 828 903 1448 1529 
Q 2069 2156 2228 2338 
Q 2531 2678 2651 2914 
Q 2772 3150 2772 3378 
Q 2772 3750 2511 3984 
Q 2250 4219 1831 4219 
Q 1534 4219 1204 4116 
Q 875 4013 500 3803 
L 500 4441 
Q 881 4594 1212 4672 
Q 1544 4750 1819 4750 
Q 2544 4750 2975 4387 
Q 3406 4025 3406 3419 
Q 3406 3131 3298 2873 
Q 3191 2616 2906 2266 
Q 2828 2175 2409 1742 
Q 1991 1309 1228 531 
z
" transform="scale(0.015625)"/>
        <path id="DejaVuSans-35" d="M 691 4666 
L 3169 4666 
L 3169 4134 
L 1269 4134 
L 1269 2991 
Q 1406 3038 1543 3061 
Q 1681 3084 1819 3084 
Q 2600 3084 3056 2656 
Q 3513 2228 3513 1497 
Q 3513 744 3044 326 
Q 2575 -91 1722 -91 
Q 1428 -91 1123 -41 
Q 819 9 494 109 
L 494 744 
Q 775 591 1075 516 
Q 1375 441 1709 441 
Q 2250 441 2565 725 
Q 2881 1009 2881 1497 
Q 2881 1984 2565 2268 
Q 2250 2553 1709 2553 
Q 1456 2553 1204 2497 
Q 953 2441 691 2322 
L 691 4666 
z
" transform="scale(0.015625)"/>
       </defs>
       <use xlink:href="#DejaVuSans-30"/>
       <use xlink:href="#DejaVuSans-2e" transform="translate(63.623047 0)"/>
       <use xlink:href="#DejaVuSans-32" transform="translate(95.410156 0)"/>
       <use xlink:href="#DejaVuSans-35" transform="translate(159.033203 0)"/>
      </g>
     </g>
    </g>
    <g id="xtick_3">
     <g id="line2d_3">
      <path d="M 198.27445 390.04 
L 198.27445 63.659 
" clip-path="url(#p41a2bd46b4)" style="fill: none; stroke: #ffffff; stroke-width: 0.8; stroke-linecap: round"/>
     </g>
     <g id="text_3">
      <!-- 0.50 -->
      <g style="fill: #262626" transform="translate(187.141638 404.638438) scale(0.1 -0.1)">
       <use xlink:href="#DejaVuSans-30"/>
       <use xlink:href="#DejaVuSans-2e" transform="translate(63.623047 0)"/>
       <use xlink:href="#DejaVuSans-35" transform="translate(95.410156 0)"/>
       <use xlink:href="#DejaVuSans-30" transform="translate(159.033203 0)"/>
      </g>
     </g>
    </g>
    <g id="xtick_4">
     <g id="line2d_4">
      <path d="M 264.596277 390.04 
L 264.596277 63.659 
" clip-path="url(#p41a2bd46b4)" style="fill: none; stroke: #ffffff; stroke-width: 0.8; stroke-linecap: round"/>
     </g>
     <g id="text_4">
      <!-- 0.75 -->
      <g style="fill: #262626" transform="translate(253.463465 404.638438) scale(0.1 -0.1)">
       <defs>
        <path id="DejaVuSans-37" d="M 525 4666 
L 3525 4666 
L 3525 4397 
L 1831 0 
L 1172 0 
L 2766 4134 
L 525 4134 
L 525 4666 
z
" transform="scale(0.015625)"/>
       </defs>
       <use xlink:href="#DejaVuSans-30"/>
       <use xlink:href="#DejaVuSans-2e" transform="translate(63.623047 0)"/>
       <use xlink:href="#DejaVuSans-37" transform="translate(95.410156 0)"/>
       <use xlink:href="#DejaVuSans-35" transform="translate(159.033203 0)"/>
      </g>
     </g>
    </g>
    <g id="xtick_5">
     <g id="line2d_5">
      <path d="M 330.918105 390.04 
L 330.918105 63.659 
" clip-path="url(#p41a2bd46b4)" style="fill: none; stroke: #ffffff; stroke-width: 0.8; stroke-linecap: round"/>
     </g>
     <g id="text_5">
      <!-- 1.00 -->
      <g style="fill: #262626" transform="translate(319.785292 404.638438) scale(0.1 -0.1)">
       <defs>
        <path id="DejaVuSans-31" d="M 794 531 
L 1825 531 
L 1825 4091 
L 703 3866 
L 703 4441 
L 1819 4666 
L 2450 4666 
L 2450 531 
L 3481 531 
L 3481 0 
L 794 0 
L 794 531 
z
" transform="scale(0.015625)"/>
       </defs>
       <use xlink:href="#DejaVuSans-31"/>
       <use xlink:href="#DejaVuSans-2e" transform="translate(63.623047 0)"/>
       <use xlink:href="#DejaVuSans-30" transform="translate(95.410156 0)"/>
       <use xlink:href="#DejaVuSans-30" transform="translate(159.033203 0)"/>
      </g>
     </g>
    </g>
    <g id="xtick_6">
     <g id="line2d_6">
      <path d="M 397.239932 390.04 
L 397.239932 63.659 
" clip-path="url(#p41a2bd46b4)" style="fill: none; stroke: #ffffff; stroke-width: 0.8; stroke-linecap: round"/>
     </g>
     <g id="text_6">
      <!-- 1.25 -->
      <g style="fill: #262626" transform="translate(386.107119 404.638438) scale(0.1 -0.1)">
       <use xlink:href="#DejaVuSans-31"/>
       <use xlink:href="#DejaVuSans-2e" transform="translate(63.623047 0)"/>
       <use xlink:href="#DejaVuSans-32" transform="translate(95.410156 0)"/>
       <use xlink:href="#DejaVuSans-35" transform="translate(159.033203 0)"/>
      </g>
     </g>
    </g>
    <g id="xtick_7">
     <g id="line2d_7">
      <path d="M 463.561759 390.04 
L 463.561759 63.659 
" clip-path="url(#p41a2bd46b4)" style="fill: none; stroke: #ffffff; stroke-width: 0.8; stroke-linecap: round"/>
     </g>
     <g id="text_7">
      <!-- 1.50 -->
      <g style="fill: #262626" transform="translate(452.428946 404.638438) scale(0.1 -0.1)">
       <use xlink:href="#DejaVuSans-31"/>
       <use xlink:href="#DejaVuSans-2e" transform="translate(63.623047 0)"/>
       <use xlink:href="#DejaVuSans-35" transform="translate(95.410156 0)"/>
       <use xlink:href="#DejaVuSans-30" transform="translate(159.033203 0)"/>
      </g>
     </g>
    </g>
    <g id="xtick_8">
     <g id="line2d_8">
      <path d="M 529.883586 390.04 
L 529.883586 63.659 
" clip-path="url(#p41a2bd46b4)" style="fill: none; stroke: #ffffff; stroke-width: 0.8; stroke-linecap: round"/>
     </g>
     <g id="text_8">
      <!-- 1.75 -->
      <g style="fill: #262626" transform="translate(518.750774 404.638438) scale(0.1 -0.1)">
       <use xlink:href="#DejaVuSans-31"/>
       <use xlink:href="#DejaVuSans-2e" transform="translate(63.623047 0)"/>
       <use xlink:href="#DejaVuSans-37" transform="translate(95.410156 0)"/>
       <use xlink:href="#DejaVuSans-35" transform="translate(159.033203 0)"/>
      </g>
     </g>
    </g>
    <g id="xtick_9">
     <g id="line2d_9">
      <path d="M 596.205413 390.04 
L 596.205413 63.659 
" clip-path="url(#p41a2bd46b4)" style="fill: none; stroke: #ffffff; stroke-width: 0.8; stroke-linecap: round"/>
     </g>
     <g id="text_9">
      <!-- 2.00 -->
      <g style="fill: #262626" transform="translate(585.072601 404.638438) scale(0.1 -0.1)">
       <use xlink:href="#DejaVuSans-32"/>
       <use xlink:href="#DejaVuSans-2e" transform="translate(63.623047 0)"/>
       <use xlink:href="#DejaVuSans-30" transform="translate(95.410156 0)"/>
       <use xlink:href="#DejaVuSans-30" transform="translate(159.033203 0)"/>
      </g>
     </g>
    </g>
    <g id="text_10">
     <!-- Steps -->
     <g style="fill: #262626" transform="translate(323.295156 418.316562) scale(0.1 -0.1)">
      <defs>
       <path id="DejaVuSans-53" d="M 3425 4513 
L 3425 3897 
Q 3066 4069 2747 4153 
Q 2428 4238 2131 4238 
Q 1616 4238 1336 4038 
Q 1056 3838 1056 3469 
Q 1056 3159 1242 3001 
Q 1428 2844 1947 2747 
L 2328 2669 
Q 3034 2534 3370 2195 
Q 3706 1856 3706 1288 
Q 3706 609 3251 259 
Q 2797 -91 1919 -91 
Q 1588 -91 1214 -16 
Q 841 59 441 206 
L 441 856 
Q 825 641 1194 531 
Q 1563 422 1919 422 
Q 2459 422 2753 634 
Q 3047 847 3047 1241 
Q 3047 1584 2836 1778 
Q 2625 1972 2144 2069 
L 1759 2144 
Q 1053 2284 737 2584 
Q 422 2884 422 3419 
Q 422 4038 858 4394 
Q 1294 4750 2059 4750 
Q 2388 4750 2728 4690 
Q 3069 4631 3425 4513 
z
" transform="scale(0.015625)"/>
       <path id="DejaVuSans-74" d="M 1172 4494 
L 1172 3500 
L 2356 3500 
L 2356 3053 
L 1172 3053 
L 1172 1153 
Q 1172 725 1289 603 
Q 1406 481 1766 481 
L 2356 481 
L 2356 0 
L 1766 0 
Q 1100 0 847 248 
Q 594 497 594 1153 
L 594 3053 
L 172 3053 
L 172 3500 
L 594 3500 
L 594 4494 
L 1172 4494 
z
" transform="scale(0.015625)"/>
       <path id="DejaVuSans-65" d="M 3597 1894 
L 3597 1613 
L 953 1613 
Q 991 1019 1311 708 
Q 1631 397 2203 397 
Q 2534 397 2845 478 
Q 3156 559 3463 722 
L 3463 178 
Q 3153 47 2828 -22 
Q 2503 -91 2169 -91 
Q 1331 -91 842 396 
Q 353 884 353 1716 
Q 353 2575 817 3079 
Q 1281 3584 2069 3584 
Q 2775 3584 3186 3129 
Q 3597 2675 3597 1894 
z
M 3022 2063 
Q 3016 2534 2758 2815 
Q 2500 3097 2075 3097 
Q 1594 3097 1305 2825 
Q 1016 2553 972 2059 
L 3022 2063 
z
" transform="scale(0.015625)"/>
       <path id="DejaVuSans-70" d="M 1159 525 
L 1159 -1331 
L 581 -1331 
L 581 3500 
L 1159 3500 
L 1159 2969 
Q 1341 3281 1617 3432 
Q 1894 3584 2278 3584 
Q 2916 3584 3314 3078 
Q 3713 2572 3713 1747 
Q 3713 922 3314 415 
Q 2916 -91 2278 -91 
Q 1894 -91 1617 61 
Q 1341 213 1159 525 
z
M 3116 1747 
Q 3116 2381 2855 2742 
Q 2594 3103 2138 3103 
Q 1681 3103 1420 2742 
Q 1159 2381 1159 1747 
Q 1159 1113 1420 752 
Q 1681 391 2138 391 
Q 2594 391 2855 752 
Q 3116 1113 3116 1747 
z
" transform="scale(0.015625)"/>
       <path id="DejaVuSans-73" d="M 2834 3397 
L 2834 2853 
Q 2591 2978 2328 3040 
Q 2066 3103 1784 3103 
Q 1356 3103 1142 2972 
Q 928 2841 928 2578 
Q 928 2378 1081 2264 
Q 1234 2150 1697 2047 
L 1894 2003 
Q 2506 1872 2764 1633 
Q 3022 1394 3022 966 
Q 3022 478 2636 193 
Q 2250 -91 1575 -91 
Q 1294 -91 989 -36 
Q 684 19 347 128 
L 347 722 
Q 666 556 975 473 
Q 1284 391 1588 391 
Q 1994 391 2212 530 
Q 2431 669 2431 922 
Q 2431 1156 2273 1281 
Q 2116 1406 1581 1522 
L 1381 1569 
Q 847 1681 609 1914 
Q 372 2147 372 2553 
Q 372 3047 722 3315 
Q 1072 3584 1716 3584 
Q 2034 3584 2315 3537 
Q 2597 3491 2834 3397 
z
" transform="scale(0.015625)"/>
      </defs>
      <use xlink:href="#DejaVuSans-53"/>
      <use xlink:href="#DejaVuSans-74" transform="translate(63.476562 0)"/>
      <use xlink:href="#DejaVuSans-65" transform="translate(102.685547 0)"/>
      <use xlink:href="#DejaVuSans-70" transform="translate(164.208984 0)"/>
      <use xlink:href="#DejaVuSans-73" transform="translate(227.685547 0)"/>
     </g>
    </g>
    <g id="text_11">
     <!-- 1e6 -->
     <g style="fill: #262626" transform="translate(590.061875 417.316562) scale(0.1 -0.1)">
      <defs>
       <path id="DejaVuSans-36" d="M 2113 2584 
Q 1688 2584 1439 2293 
Q 1191 2003 1191 1497 
Q 1191 994 1439 701 
Q 1688 409 2113 409 
Q 2538 409 2786 701 
Q 3034 994 3034 1497 
Q 3034 2003 2786 2293 
Q 2538 2584 2113 2584 
z
M 3366 4563 
L 3366 3988 
Q 3128 4100 2886 4159 
Q 2644 4219 2406 4219 
Q 1781 4219 1451 3797 
Q 1122 3375 1075 2522 
Q 1259 2794 1537 2939 
Q 1816 3084 2150 3084 
Q 2853 3084 3261 2657 
Q 3669 2231 3669 1497 
Q 3669 778 3244 343 
Q 2819 -91 2113 -91 
Q 1303 -91 875 529 
Q 447 1150 447 2328 
Q 447 3434 972 4092 
Q 1497 4750 2381 4750 
Q 2619 4750 2861 4703 
Q 3103 4656 3366 4563 
z
" transform="scale(0.015625)"/>
      </defs>
      <use xlink:href="#DejaVuSans-31"/>
      <use xlink:href="#DejaVuSans-65" transform="translate(63.623047 0)"/>
      <use xlink:href="#DejaVuSans-36" transform="translate(125.146484 0)"/>
     </g>
    </g>
   </g>
   <g id="matplotlib.axis_2">
    <g id="ytick_1">
     <g id="line2d_10">
      <path d="M 65.63 390.04 
L 608.94 390.04 
" clip-path="url(#p41a2bd46b4)" style="fill: none; stroke: #ffffff; stroke-width: 0.8; stroke-linecap: round"/>
     </g>
     <g id="text_12">
      <!-- −1600 -->
      <g style="fill: #262626" transform="translate(24.800313 393.839219) scale(0.1 -0.1)">
       <defs>
        <path id="DejaVuSans-2212" d="M 678 2272 
L 4684 2272 
L 4684 1741 
L 678 1741 
L 678 2272 
z
" transform="scale(0.015625)"/>
       </defs>
       <use xlink:href="#DejaVuSans-2212"/>
       <use xlink:href="#DejaVuSans-31" transform="translate(83.789062 0)"/>
       <use xlink:href="#DejaVuSans-36" transform="translate(147.412109 0)"/>
       <use xlink:href="#DejaVuSans-30" transform="translate(211.035156 0)"/>
       <use xlink:href="#DejaVuSans-30" transform="translate(274.658203 0)"/>
      </g>
     </g>
    </g>
    <g id="ytick_2">
     <g id="line2d_11">
      <path d="M 65.63 349.242375 
L 608.94 349.242375 
" clip-path="url(#p41a2bd46b4)" style="fill: none; stroke: #ffffff; stroke-width: 0.8; stroke-linecap: round"/>
     </g>
     <g id="text_13">
      <!-- −1400 -->
      <g style="fill: #262626" transform="translate(24.800313 353.041594) scale(0.1 -0.1)">
       <defs>
        <path id="DejaVuSans-34" d="M 2419 4116 
L 825 1625 
L 2419 1625 
L 2419 4116 
z
M 2253 4666 
L 3047 4666 
L 3047 1625 
L 3713 1625 
L 3713 1100 
L 3047 1100 
L 3047 0 
L 2419 0 
L 2419 1100 
L 313 1100 
L 313 1709 
L 2253 4666 
z
" transform="scale(0.015625)"/>
       </defs>
       <use xlink:href="#DejaVuSans-2212"/>
       <use xlink:href="#DejaVuSans-31" transform="translate(83.789062 0)"/>
       <use xlink:href="#DejaVuSans-34" transform="translate(147.412109 0)"/>
       <use xlink:href="#DejaVuSans-30" transform="translate(211.035156 0)"/>
       <use xlink:href="#DejaVuSans-30" transform="translate(274.658203 0)"/>
      </g>
     </g>
    </g>
    <g id="ytick_3">
     <g id="line2d_12">
      <path d="M 65.63 308.44475 
L 608.94 308.44475 
" clip-path="url(#p41a2bd46b4)" style="fill: none; stroke: #ffffff; stroke-width: 0.8; stroke-linecap: round"/>
     </g>
     <g id="text_14">
      <!-- −1200 -->
      <g style="fill: #262626" transform="translate(24.800313 312.243969) scale(0.1 -0.1)">
       <use xlink:href="#DejaVuSans-2212"/>
       <use xlink:href="#DejaVuSans-31" transform="translate(83.789062 0)"/>
       <use xlink:href="#DejaVuSans-32" transform="translate(147.412109 0)"/>
       <use xlink:href="#DejaVuSans-30" transform="translate(211.035156 0)"/>
       <use xlink:href="#DejaVuSans-30" transform="translate(274.658203 0)"/>
      </g>
     </g>
    </g>
    <g id="ytick_4">
     <g id="line2d_13">
      <path d="M 65.63 267.647125 
L 608.94 267.647125 
" clip-path="url(#p41a2bd46b4)" style="fill: none; stroke: #ffffff; stroke-width: 0.8; stroke-linecap: round"/>
     </g>
     <g id="text_15">
      <!-- −1000 -->
      <g style="fill: #262626" transform="translate(24.800313 271.446344) scale(0.1 -0.1)">
       <use xlink:href="#DejaVuSans-2212"/>
       <use xlink:href="#DejaVuSans-31" transform="translate(83.789062 0)"/>
       <use xlink:href="#DejaVuSans-30" transform="translate(147.412109 0)"/>
       <use xlink:href="#DejaVuSans-30" transform="translate(211.035156 0)"/>
       <use xlink:href="#DejaVuSans-30" transform="translate(274.658203 0)"/>
      </g>
     </g>
    </g>
    <g id="ytick_5">
     <g id="line2d_14">
      <path d="M 65.63 226.8495 
L 608.94 226.8495 
" clip-path="url(#p41a2bd46b4)" style="fill: none; stroke: #ffffff; stroke-width: 0.8; stroke-linecap: round"/>
     </g>
     <g id="text_16">
      <!-- −800 -->
      <g style="fill: #262626" transform="translate(31.162813 230.648719) scale(0.1 -0.1)">
       <defs>
        <path id="DejaVuSans-38" d="M 2034 2216 
Q 1584 2216 1326 1975 
Q 1069 1734 1069 1313 
Q 1069 891 1326 650 
Q 1584 409 2034 409 
Q 2484 409 2743 651 
Q 3003 894 3003 1313 
Q 3003 1734 2745 1975 
Q 2488 2216 2034 2216 
z
M 1403 2484 
Q 997 2584 770 2862 
Q 544 3141 544 3541 
Q 544 4100 942 4425 
Q 1341 4750 2034 4750 
Q 2731 4750 3128 4425 
Q 3525 4100 3525 3541 
Q 3525 3141 3298 2862 
Q 3072 2584 2669 2484 
Q 3125 2378 3379 2068 
Q 3634 1759 3634 1313 
Q 3634 634 3220 271 
Q 2806 -91 2034 -91 
Q 1263 -91 848 271 
Q 434 634 434 1313 
Q 434 1759 690 2068 
Q 947 2378 1403 2484 
z
M 1172 3481 
Q 1172 3119 1398 2916 
Q 1625 2713 2034 2713 
Q 2441 2713 2670 2916 
Q 2900 3119 2900 3481 
Q 2900 3844 2670 4047 
Q 2441 4250 2034 4250 
Q 1625 4250 1398 4047 
Q 1172 3844 1172 3481 
z
" transform="scale(0.015625)"/>
       </defs>
       <use xlink:href="#DejaVuSans-2212"/>
       <use xlink:href="#DejaVuSans-38" transform="translate(83.789062 0)"/>
       <use xlink:href="#DejaVuSans-30" transform="translate(147.412109 0)"/>
       <use xlink:href="#DejaVuSans-30" transform="translate(211.035156 0)"/>
      </g>
     </g>
    </g>
    <g id="ytick_6">
     <g id="line2d_15">
      <path d="M 65.63 186.051875 
L 608.94 186.051875 
" clip-path="url(#p41a2bd46b4)" style="fill: none; stroke: #ffffff; stroke-width: 0.8; stroke-linecap: round"/>
     </g>
     <g id="text_17">
      <!-- −600 -->
      <g style="fill: #262626" transform="translate(31.162813 189.851094) scale(0.1 -0.1)">
       <use xlink:href="#DejaVuSans-2212"/>
       <use xlink:href="#DejaVuSans-36" transform="translate(83.789062 0)"/>
       <use xlink:href="#DejaVuSans-30" transform="translate(147.412109 0)"/>
       <use xlink:href="#DejaVuSans-30" transform="translate(211.035156 0)"/>
      </g>
     </g>
    </g>
    <g id="ytick_7">
     <g id="line2d_16">
      <path d="M 65.63 145.25425 
L 608.94 145.25425 
" clip-path="url(#p41a2bd46b4)" style="fill: none; stroke: #ffffff; stroke-width: 0.8; stroke-linecap: round"/>
     </g>
     <g id="text_18">
      <!-- −400 -->
      <g style="fill: #262626" transform="translate(31.162813 149.053469) scale(0.1 -0.1)">
       <use xlink:href="#DejaVuSans-2212"/>
       <use xlink:href="#DejaVuSans-34" transform="translate(83.789062 0)"/>
       <use xlink:href="#DejaVuSans-30" transform="translate(147.412109 0)"/>
       <use xlink:href="#DejaVuSans-30" transform="translate(211.035156 0)"/>
      </g>
     </g>
    </g>
    <g id="ytick_8">
     <g id="line2d_17">
      <path d="M 65.63 104.456625 
L 608.94 104.456625 
" clip-path="url(#p41a2bd46b4)" style="fill: none; stroke: #ffffff; stroke-width: 0.8; stroke-linecap: round"/>
     </g>
     <g id="text_19">
      <!-- −200 -->
      <g style="fill: #262626" transform="translate(31.162813 108.255844) scale(0.1 -0.1)">
       <use xlink:href="#DejaVuSans-2212"/>
       <use xlink:href="#DejaVuSans-32" transform="translate(83.789062 0)"/>
       <use xlink:href="#DejaVuSans-30" transform="translate(147.412109 0)"/>
       <use xlink:href="#DejaVuSans-30" transform="translate(211.035156 0)"/>
      </g>
     </g>
    </g>
    <g id="ytick_9">
     <g id="line2d_18">
      <path d="M 65.63 63.659 
L 608.94 63.659 
" clip-path="url(#p41a2bd46b4)" style="fill: none; stroke: #ffffff; stroke-width: 0.8; stroke-linecap: round"/>
     </g>
     <g id="text_20">
      <!-- 0 -->
      <g style="fill: #262626" transform="translate(52.2675 67.458219) scale(0.1 -0.1)">
       <use xlink:href="#DejaVuSans-30"/>
      </g>
     </g>
    </g>
    <g id="text_21">
     <!-- Reward -->
     <g style="fill: #262626" transform="translate(18.720625 245.470594) rotate(-90) scale(0.1 -0.1)">
      <defs>
       <path id="DejaVuSans-52" d="M 2841 2188 
Q 3044 2119 3236 1894 
Q 3428 1669 3622 1275 
L 4263 0 
L 3584 0 
L 2988 1197 
Q 2756 1666 2539 1819 
Q 2322 1972 1947 1972 
L 1259 1972 
L 1259 0 
L 628 0 
L 628 4666 
L 2053 4666 
Q 2853 4666 3247 4331 
Q 3641 3997 3641 3322 
Q 3641 2881 3436 2590 
Q 3231 2300 2841 2188 
z
M 1259 4147 
L 1259 2491 
L 2053 2491 
Q 2509 2491 2742 2702 
Q 2975 2913 2975 3322 
Q 2975 3731 2742 3939 
Q 2509 4147 2053 4147 
L 1259 4147 
z
" transform="scale(0.015625)"/>
       <path id="DejaVuSans-77" d="M 269 3500 
L 844 3500 
L 1563 769 
L 2278 3500 
L 2956 3500 
L 3675 769 
L 4391 3500 
L 4966 3500 
L 4050 0 
L 3372 0 
L 2619 2869 
L 1863 0 
L 1184 0 
L 269 3500 
z
" transform="scale(0.015625)"/>
       <path id="DejaVuSans-61" d="M 2194 1759 
Q 1497 1759 1228 1600 
Q 959 1441 959 1056 
Q 959 750 1161 570 
Q 1363 391 1709 391 
Q 2188 391 2477 730 
Q 2766 1069 2766 1631 
L 2766 1759 
L 2194 1759 
z
M 3341 1997 
L 3341 0 
L 2766 0 
L 2766 531 
Q 2569 213 2275 61 
Q 1981 -91 1556 -91 
Q 1019 -91 701 211 
Q 384 513 384 1019 
Q 384 1609 779 1909 
Q 1175 2209 1959 2209 
L 2766 2209 
L 2766 2266 
Q 2766 2663 2505 2880 
Q 2244 3097 1772 3097 
Q 1472 3097 1187 3025 
Q 903 2953 641 2809 
L 641 3341 
Q 956 3463 1253 3523 
Q 1550 3584 1831 3584 
Q 2591 3584 2966 3190 
Q 3341 2797 3341 1997 
z
" transform="scale(0.015625)"/>
       <path id="DejaVuSans-72" d="M 2631 2963 
Q 2534 3019 2420 3045 
Q 2306 3072 2169 3072 
Q 1681 3072 1420 2755 
Q 1159 2438 1159 1844 
L 1159 0 
L 581 0 
L 581 3500 
L 1159 3500 
L 1159 2956 
Q 1341 3275 1631 3429 
Q 1922 3584 2338 3584 
Q 2397 3584 2469 3576 
Q 2541 3569 2628 3553 
L 2631 2963 
z
" transform="scale(0.015625)"/>
       <path id="DejaVuSans-64" d="M 2906 2969 
L 2906 4863 
L 3481 4863 
L 3481 0 
L 2906 0 
L 2906 525 
Q 2725 213 2448 61 
Q 2172 -91 1784 -91 
Q 1150 -91 751 415 
Q 353 922 353 1747 
Q 353 2572 751 3078 
Q 1150 3584 1784 3584 
Q 2172 3584 2448 3432 
Q 2725 3281 2906 2969 
z
M 947 1747 
Q 947 1113 1208 752 
Q 1469 391 1925 391 
Q 2381 391 2643 752 
Q 2906 1113 2906 1747 
Q 2906 2381 2643 2742 
Q 2381 3103 1925 3103 
Q 1469 3103 1208 2742 
Q 947 2381 947 1747 
z
" transform="scale(0.015625)"/>
      </defs>
      <use xlink:href="#DejaVuSans-52"/>
      <use xlink:href="#DejaVuSans-65" transform="translate(64.982422 0)"/>
      <use xlink:href="#DejaVuSans-77" transform="translate(126.505859 0)"/>
      <use xlink:href="#DejaVuSans-61" transform="translate(208.292969 0)"/>
      <use xlink:href="#DejaVuSans-72" transform="translate(269.572266 0)"/>
      <use xlink:href="#DejaVuSans-64" transform="translate(308.935547 0)"/>
     </g>
    </g>
   </g>
   <g id="line2d_19">
    <path d="M 65.630796 312.289164 
L 71.06388 311.040012 
L 76.496964 310.059526 
L 81.930048 308.432111 
L 87.363132 305.992637 
L 92.796216 302.68202 
L 98.2293 301.299096 
L 103.662384 302.053167 
L 109.095469 303.642816 
L 114.528553 305.797677 
L 119.961637 305.825488 
L 125.394721 306.891173 
L 130.827805 309.331239 
L 136.260889 310.2082 
L 141.693973 311.166255 
L 147.127057 312.014487 
L 152.560141 310.353116 
L 157.993225 308.52461 
L 163.426309 307.227899 
L 168.859393 306.186713 
L 174.292478 307.384318 
L 179.725562 308.717018 
L 185.158646 308.062237 
L 190.59173 307.85984 
L 196.024814 308.892674 
L 201.457898 308.300103 
L 206.890982 307.384334 
L 212.324066 306.760374 
L 217.75715 303.410797 
L 223.190234 300.909112 
L 228.623318 300.212644 
L 234.056402 299.223411 
L 239.489487 299.729145 
L 244.922571 300.469486 
L 250.355655 300.398076 
L 255.788739 297.256884 
L 261.221823 290.468922 
L 266.654907 285.7071 
L 272.087991 283.086683 
L 277.521075 280.631397 
L 282.954159 281.670424 
L 288.387243 282.931741 
L 293.820327 278.200924 
L 299.253411 274.613893 
L 304.686496 278.461578 
L 310.11958 282.814722 
L 315.552664 283.210609 
L 320.985748 278.963434 
L 326.418832 272.788088 
L 331.851916 268.379757 
L 337.285 266.557547 
L 342.718084 264.344919 
L 348.151168 260.908514 
L 353.584252 256.610861 
L 359.017336 253.44537 
L 364.45042 250.992512 
L 369.883504 245.755713 
L 375.316589 241.05053 
L 380.749673 240.577197 
L 386.182757 242.179088 
L 391.615841 242.588492 
L 397.048925 243.633683 
L 402.482009 243.707197 
L 407.915093 239.972928 
L 413.348177 234.419547 
L 418.781261 229.689824 
L 424.214345 228.931459 
L 429.647429 229.04646 
L 435.080513 227.193154 
L 440.513598 222.630176 
L 445.946682 217.356521 
L 451.379766 214.461983 
L 456.81285 212.286024 
L 462.245934 210.987538 
L 467.679018 211.602555 
L 473.112102 211.313059 
L 478.545186 210.479223 
L 483.97827 207.90235 
L 489.411354 202.801512 
L 494.844438 197.032518 
L 500.277522 195.096501 
L 505.710607 200.832831 
L 511.143691 211.234205 
L 516.576775 214.365537 
L 522.009859 209.882814 
L 527.442943 204.579383 
L 532.876027 199.567335 
L 538.309111 196.168271 
L 543.742195 195.354578 
L 549.175279 196.098799 
L 554.608363 195.679492 
L 560.041447 194.614558 
L 565.474531 193.478995 
L 570.907616 192.311094 
L 576.3407 187.797748 
L 581.773784 180.954886 
L 587.206868 176.294586 
L 592.639952 172.477363 
L 598.073036 171.402005 
L 603.50612 171.782078 
" clip-path="url(#p41a2bd46b4)" style="fill: none; stroke: #1f77b4; stroke-width: 1.5; stroke-linecap: round"/>
   </g>
   <g id="line2d_20">
    <path d="M 65.630796 309.933836 
L 71.06388 306.723484 
L 76.496964 302.593955 
L 81.930048 298.507642 
L 87.363132 295.939989 
L 92.796216 292.15626 
L 98.2293 286.637114 
L 103.662384 282.792383 
L 109.095469 281.607498 
L 114.528553 280.172402 
L 119.961637 275.165808 
L 125.394721 269.44599 
L 130.827805 264.191096 
L 136.260889 257.646659 
L 141.693973 251.629421 
L 147.127057 246.174039 
L 152.560141 237.360613 
L 157.993225 224.673083 
L 163.426309 210.588286 
L 168.859393 198.790293 
L 174.292478 188.718728 
L 179.725562 176.979559 
L 185.158646 162.905339 
L 190.59173 152.601104 
L 196.024814 145.995863 
L 201.457898 137.374584 
L 206.890982 128.568768 
L 212.324066 123.424871 
L 217.75715 119.556091 
L 223.190234 117.516462 
L 228.623318 116.461928 
L 234.056402 112.331794 
L 239.489487 108.63421 
L 244.922571 108.568818 
L 250.355655 109.434421 
L 255.788739 109.08671 
L 261.221823 107.49924 
L 266.654907 105.822864 
L 272.087991 105.294188 
L 277.521075 105.026691 
L 282.954159 105.126018 
L 288.387243 105.364984 
L 293.820327 103.966182 
L 299.253411 103.551489 
L 304.686496 103.626165 
L 310.11958 103.122926 
L 315.552664 102.913897 
L 320.985748 102.262492 
L 326.418832 99.830265 
L 331.851916 97.876382 
L 337.285 97.813196 
L 342.718084 99.627483 
L 348.151168 101.272314 
L 353.584252 99.681024 
L 359.017336 97.981664 
L 364.45042 98.196275 
L 369.883504 98.421812 
L 375.316589 97.596872 
L 380.749673 96.367057 
L 386.182757 95.81949 
L 391.615841 98.091081 
L 397.048925 100.717747 
L 402.482009 100.235168 
L 407.915093 98.974146 
L 413.348177 98.18571 
L 418.781261 97.614768 
L 424.214345 96.832394 
L 429.647429 96.328533 
L 435.080513 97.488699 
L 440.513598 99.700736 
L 445.946682 101.175703 
L 451.379766 101.705077 
L 456.81285 100.650676 
L 462.245934 99.557627 
L 467.679018 101.743881 
L 473.112102 104.737025 
L 478.545186 104.545487 
L 483.97827 100.885707 
L 489.411354 96.903358 
L 494.844438 94.843136 
L 500.277522 94.101123 
L 505.710607 94.184519 
L 511.143691 95.047368 
L 516.576775 95.57417 
L 522.009859 95.421477 
L 527.442943 95.081426 
L 532.876027 94.23995 
L 538.309111 93.807546 
L 543.742195 94.81639 
L 549.175279 95.779718 
L 554.608363 95.361547 
L 560.041447 94.67136 
L 565.474531 94.694785 
L 570.907616 94.717378 
L 576.3407 93.960557 
L 581.773784 93.22538 
L 587.206868 93.238722 
L 592.639952 93.383048 
L 598.073036 93.524598 
L 603.50612 93.586785 
" clip-path="url(#p41a2bd46b4)" style="fill: none; stroke-dasharray: 5.55,2.4; stroke-dashoffset: 0; stroke: #1f77b4; stroke-width: 1.5"/>
   </g>
   <g id="line2d_21">
    <path d="M 65.630796 311.621508 
L 71.06388 308.835737 
L 76.496964 302.774397 
L 81.930048 294.38868 
L 87.363132 288.679716 
L 92.796216 284.528239 
L 98.2293 281.953591 
L 103.662384 282.694073 
L 109.095469 285.429322 
L 114.528553 287.155137 
L 119.961637 284.608586 
L 125.394721 282.067869 
L 130.827805 281.183321 
L 136.260889 278.409903 
L 141.693973 275.197413 
L 147.127057 274.372342 
L 152.560141 273.51431 
L 157.993225 272.724887 
L 163.426309 272.99434 
L 168.859393 274.709294 
L 174.292478 275.733691 
L 179.725562 271.753426 
L 185.158646 265.651633 
L 190.59173 262.207421 
L 196.024814 260.803265 
L 201.457898 257.932193 
L 206.890982 254.7756 
L 212.324066 252.370088 
L 217.75715 248.308478 
L 223.190234 245.479076 
L 228.623318 247.739268 
L 234.056402 253.20534 
L 239.489487 255.684738 
L 244.922571 256.288798 
L 250.355655 255.723825 
L 255.788739 250.800472 
L 261.221823 245.042544 
L 266.654907 242.396206 
L 272.087991 239.087165 
L 277.521075 234.149553 
L 282.954159 231.836948 
L 288.387243 229.262111 
L 293.820327 222.288379 
L 299.253411 215.669025 
L 304.686496 209.255437 
L 310.11958 202.757149 
L 315.552664 201.324207 
L 320.985748 201.676699 
L 326.418832 198.333967 
L 331.851916 192.235434 
L 337.285 188.145756 
L 342.718084 187.892964 
L 348.151168 189.740381 
L 353.584252 191.775642 
L 359.017336 191.155576 
L 364.45042 185.024116 
L 369.883504 175.475159 
L 375.316589 167.465707 
L 380.749673 162.657065 
L 386.182757 159.442755 
L 391.615841 157.835939 
L 397.048925 159.621316 
L 402.482009 163.05226 
L 407.915093 166.964143 
L 413.348177 172.391951 
L 418.781261 178.876916 
L 424.214345 180.025218 
L 429.647429 177.026278 
L 435.080513 173.698625 
L 440.513598 168.265954 
L 445.946682 164.260727 
L 451.379766 165.02111 
L 456.81285 165.769885 
L 462.245934 164.694655 
L 467.679018 163.447959 
L 473.112102 162.132505 
L 478.545186 160.112255 
L 483.97827 156.953001 
L 489.411354 154.57575 
L 494.844438 153.66019 
L 500.277522 153.508751 
L 505.710607 155.343898 
L 511.143691 164.226775 
L 516.576775 176.754522 
L 522.009859 182.149563 
L 527.442943 180.74074 
L 532.876027 176.766677 
L 538.309111 174.737571 
L 543.742195 180.651258 
L 549.175279 190.269267 
L 554.608363 192.133943 
L 560.041447 184.442758 
L 565.474531 175.175664 
L 570.907616 172.363842 
L 576.3407 171.033307 
L 581.773784 165.735232 
L 587.206868 159.72519 
L 592.639952 156.87461 
L 598.073036 159.27656 
L 603.50612 162.99164 
" clip-path="url(#p41a2bd46b4)" style="fill: none; stroke: #ff7f0e; stroke-width: 1.5; stroke-linecap: round"/>
   </g>
   <g id="line2d_22">
    <path d="M 65.630796 309.380402 
L 71.06388 306.704329 
L 76.496964 303.331273 
L 81.930048 300.015985 
L 87.363132 298.670714 
L 92.796216 295.620873 
L 98.2293 289.515177 
L 103.662384 282.761237 
L 109.095469 277.155271 
L 114.528553 273.107919 
L 119.961637 265.845392 
L 125.394721 256.231355 
L 130.827805 247.028152 
L 136.260889 237.887096 
L 141.693973 228.629682 
L 147.127057 216.783588 
L 152.560141 200.781598 
L 157.993225 186.253751 
L 163.426309 174.054731 
L 168.859393 163.116447 
L 174.292478 153.809112 
L 179.725562 143.777743 
L 185.158646 133.233615 
L 190.59173 126.355741 
L 196.024814 122.912493 
L 201.457898 119.569841 
L 206.890982 116.656899 
L 212.324066 114.161163 
L 217.75715 110.769064 
L 223.190234 107.739275 
L 228.623318 106.422708 
L 234.056402 106.619846 
L 239.489487 107.846442 
L 244.922571 109.360596 
L 250.355655 109.913203 
L 255.788739 108.937844 
L 261.221823 106.559656 
L 266.654907 105.20119 
L 272.087991 105.160632 
L 277.521075 105.761952 
L 282.954159 107.417238 
L 288.387243 107.901788 
L 293.820327 104.9279 
L 299.253411 103.206933 
L 304.686496 104.129268 
L 310.11958 104.229916 
L 315.552664 102.542632 
L 320.985748 99.848184 
L 326.418832 97.51551 
L 331.851916 96.583658 
L 337.285 96.716167 
L 342.718084 97.684488 
L 348.151168 99.463777 
L 353.584252 100.27164 
L 359.017336 99.560454 
L 364.45042 98.842805 
L 369.883504 98.906833 
L 375.316589 98.594093 
L 380.749673 97.498614 
L 386.182757 96.994892 
L 391.615841 97.491176 
L 397.048925 97.614641 
L 402.482009 97.565225 
L 407.915093 97.250072 
L 413.348177 96.583204 
L 418.781261 96.385895 
L 424.214345 96.468088 
L 429.647429 96.312883 
L 435.080513 96.581104 
L 440.513598 96.350306 
L 445.946682 95.397393 
L 451.379766 95.869027 
L 456.81285 96.396369 
L 462.245934 95.204074 
L 467.679018 94.448903 
L 473.112102 94.661436 
L 478.545186 94.663972 
L 483.97827 94.146867 
L 489.411354 93.809636 
L 494.844438 93.76429 
L 500.277522 93.607879 
L 505.710607 93.754728 
L 511.143691 94.533311 
L 516.576775 95.204817 
L 522.009859 95.335401 
L 527.442943 95.135769 
L 532.876027 94.270448 
L 538.309111 93.830881 
L 543.742195 94.593217 
L 549.175279 95.354895 
L 554.608363 95.035243 
L 560.041447 94.504746 
L 565.474531 94.738485 
L 570.907616 94.944774 
L 576.3407 94.148201 
L 581.773784 93.211012 
L 587.206868 93.164658 
L 592.639952 93.380591 
L 598.073036 93.704199 
L 603.50612 93.875147 
" clip-path="url(#p41a2bd46b4)" style="fill: none; stroke-dasharray: 5.55,2.4; stroke-dashoffset: 0; stroke: #ff7f0e; stroke-width: 1.5"/>
   </g>
   <g id="line2d_23">
    <path d="M 65.630796 311.469904 
L 71.06388 306.947964 
L 76.496964 299.215296 
L 81.930048 291.04252 
L 87.363132 284.613484 
L 92.796216 277.234342 
L 98.2293 268.976921 
L 103.662384 262.46177 
L 109.095469 258.913878 
L 114.528553 256.363629 
L 119.961637 250.599336 
L 125.394721 245.296307 
L 130.827805 242.957684 
L 136.260889 239.52971 
L 141.693973 234.534422 
L 147.127057 230.738779 
L 152.560141 225.275087 
L 157.993225 217.638738 
L 163.426309 208.044464 
L 168.859393 201.389229 
L 174.292478 201.725728 
L 179.725562 200.200213 
L 185.158646 193.826884 
L 190.59173 191.649325 
L 196.024814 191.434611 
L 201.457898 186.079754 
L 206.890982 182.323305 
L 212.324066 180.717801 
L 217.75715 173.797585 
L 223.190234 163.558447 
L 228.623318 156.144683 
L 234.056402 153.830955 
L 239.489487 154.736583 
L 244.922571 159.870113 
L 250.355655 170.996782 
L 255.788739 183.184233 
L 261.221823 188.74031 
L 266.654907 189.151027 
L 272.087991 187.485969 
L 277.521075 186.358187 
L 282.954159 194.304088 
L 288.387243 199.491438 
L 293.820327 187.066945 
L 299.253411 179.490356 
L 304.686496 186.588915 
L 310.11958 194.000092 
L 315.552664 194.221074 
L 320.985748 185.099357 
L 326.418832 176.53973 
L 331.851916 173.524814 
L 337.285 178.889685 
L 342.718084 190.554687 
L 348.151168 196.669577 
L 353.584252 199.02222 
L 359.017336 206.317731 
L 364.45042 210.04034 
L 369.883504 205.282955 
L 375.316589 197.648285 
L 380.749673 187.552375 
L 386.182757 176.692709 
L 391.615841 173.688748 
L 397.048925 173.957618 
L 402.482009 171.22132 
L 407.915093 171.502639 
L 413.348177 177.160052 
L 418.781261 184.348817 
L 424.214345 187.586615 
L 429.647429 184.862988 
L 435.080513 180.476743 
L 440.513598 178.102303 
L 445.946682 183.553301 
L 451.379766 192.846438 
L 456.81285 200.077956 
L 462.245934 206.867418 
L 467.679018 210.733055 
L 473.112102 211.623432 
L 478.545186 210.089467 
L 483.97827 206.434322 
L 489.411354 204.95934 
L 494.844438 202.822222 
L 500.277522 198.830355 
L 505.710607 198.576793 
L 511.143691 204.953532 
L 516.576775 215.607839 
L 522.009859 223.286424 
L 527.442943 224.839008 
L 532.876027 220.128289 
L 538.309111 215.234746 
L 543.742195 216.74906 
L 549.175279 218.399918 
L 554.608363 215.553528 
L 560.041447 212.00961 
L 565.474531 213.185456 
L 570.907616 214.799626 
L 576.3407 211.764356 
L 581.773784 209.671844 
L 587.206868 211.086832 
L 592.639952 211.246194 
L 598.073036 208.148599 
L 603.50612 205.986852 
" clip-path="url(#p41a2bd46b4)" style="fill: none; stroke: #2ca02c; stroke-width: 1.5; stroke-linecap: round"/>
   </g>
   <g id="line2d_24">
    <path d="M 65.630796 311.141909 
L 71.06388 310.402863 
L 76.496964 307.467327 
L 81.930048 301.865575 
L 87.363132 297.635089 
L 92.796216 293.113485 
L 98.2293 287.54342 
L 103.662384 281.250109 
L 109.095469 274.276594 
L 114.528553 266.940509 
L 119.961637 257.605692 
L 125.394721 245.707477 
L 130.827805 229.538713 
L 136.260889 211.027102 
L 141.693973 195.991009 
L 147.127057 186.14003 
L 152.560141 176.809588 
L 157.993225 165.744776 
L 163.426309 154.99022 
L 168.859393 148.640356 
L 174.292478 147.685792 
L 179.725562 145.641552 
L 185.158646 140.190765 
L 190.59173 137.878384 
L 196.024814 136.363017 
L 201.457898 132.532152 
L 206.890982 132.405233 
L 212.324066 135.387792 
L 217.75715 134.28138 
L 223.190234 129.013188 
L 228.623318 124.46497 
L 234.056402 120.716459 
L 239.489487 117.818002 
L 244.922571 117.756382 
L 250.355655 119.99026 
L 255.788739 121.813081 
L 261.221823 121.109409 
L 266.654907 119.223825 
L 272.087991 118.616776 
L 277.521075 118.637517 
L 282.954159 120.425757 
L 288.387243 121.291644 
L 293.820327 117.87505 
L 299.253411 116.070131 
L 304.686496 117.93553 
L 310.11958 119.285722 
L 315.552664 119.239616 
L 320.985748 117.027412 
L 326.418832 114.604814 
L 331.851916 111.665933 
L 337.285 109.168535 
L 342.718084 109.442342 
L 348.151168 111.740359 
L 353.584252 114.891912 
L 359.017336 116.190044 
L 364.45042 117.091361 
L 369.883504 122.396364 
L 375.316589 127.597407 
L 380.749673 126.341393 
L 386.182757 121.530222 
L 391.615841 120.927952 
L 397.048925 122.559336 
L 402.482009 124.274899 
L 407.915093 126.671506 
L 413.348177 127.521135 
L 418.781261 123.82485 
L 424.214345 120.433486 
L 429.647429 120.650466 
L 435.080513 119.653408 
L 440.513598 116.340321 
L 445.946682 116.247369 
L 451.379766 119.176206 
L 456.81285 119.924773 
L 462.245934 116.068286 
L 467.679018 111.446776 
L 473.112102 110.809419 
L 478.545186 109.035202 
L 483.97827 103.52853 
L 489.411354 100.7237 
L 494.844438 102.985686 
L 500.277522 107.433809 
L 505.710607 110.986718 
L 511.143691 113.130944 
L 516.576775 113.807532 
L 522.009859 112.731242 
L 527.442943 111.265553 
L 532.876027 110.179155 
L 538.309111 109.742516 
L 543.742195 110.160134 
L 549.175279 108.687576 
L 554.608363 106.92816 
L 560.041447 106.425055 
L 565.474531 104.66209 
L 570.907616 101.949432 
L 576.3407 99.363704 
L 581.773784 97.501556 
L 587.206868 96.776764 
L 592.639952 96.604899 
L 598.073036 96.539678 
L 603.50612 96.410145 
" clip-path="url(#p41a2bd46b4)" style="fill: none; stroke-dasharray: 5.55,2.4; stroke-dashoffset: 0; stroke: #2ca02c; stroke-width: 1.5"/>
   </g>
   <g id="line2d_25">
    <path d="M 65.630796 311.842173 
L 71.06388 308.543167 
L 76.496964 302.92445 
L 81.930048 295.346612 
L 87.363132 287.318244 
L 92.796216 278.308637 
L 98.2293 267.965996 
L 103.662384 258.858381 
L 109.095469 252.978108 
L 114.528553 248.906079 
L 119.961637 242.119005 
L 125.394721 233.833547 
L 130.827805 226.312759 
L 136.260889 219.172924 
L 141.693973 213.24259 
L 147.127057 208.888468 
L 152.560141 202.587331 
L 157.993225 196.512573 
L 163.426309 192.262992 
L 168.859393 191.431014 
L 174.292478 194.668527 
L 179.725562 193.935281 
L 185.158646 189.186103 
L 190.59173 189.238403 
L 196.024814 190.893451 
L 201.457898 188.370719 
L 206.890982 186.558429 
L 212.324066 185.59306 
L 217.75715 177.118972 
L 223.190234 163.640939 
L 228.623318 154.775012 
L 234.056402 152.835276 
L 239.489487 156.286119 
L 244.922571 163.966632 
L 250.355655 169.638153 
L 255.788739 166.335254 
L 261.221823 158.531915 
L 266.654907 157.074005 
L 272.087991 157.882999 
L 277.521075 153.986033 
L 282.954159 155.052145 
L 288.387243 162.692756 
L 293.820327 167.362503 
L 299.253411 178.069156 
L 304.686496 194.758685 
L 310.11958 201.311686 
L 315.552664 199.711299 
L 320.985748 196.968351 
L 326.418832 194.142463 
L 331.851916 198.308819 
L 337.285 209.760736 
L 342.718084 216.02518 
L 348.151168 213.227856 
L 353.584252 205.968685 
L 359.017336 203.704059 
L 364.45042 204.39308 
L 369.883504 201.738515 
L 375.316589 195.959536 
L 380.749673 191.741444 
L 386.182757 189.690286 
L 391.615841 193.097336 
L 397.048925 202.331883 
L 402.482009 207.858336 
L 407.915093 205.100955 
L 413.348177 199.398223 
L 418.781261 198.471267 
L 424.214345 198.79944 
L 429.647429 194.203548 
L 435.080513 189.46472 
L 440.513598 188.819844 
L 445.946682 191.274165 
L 451.379766 191.971766 
L 456.81285 188.119167 
L 462.245934 182.148808 
L 467.679018 178.144147 
L 473.112102 177.256231 
L 478.545186 173.612892 
L 483.97827 166.135864 
L 489.411354 158.697818 
L 494.844438 154.603662 
L 500.277522 154.940267 
L 505.710607 155.751985 
L 511.143691 153.886747 
L 516.576775 149.798666 
L 522.009859 144.558201 
L 527.442943 140.594808 
L 532.876027 136.660388 
L 538.309111 133.836768 
L 543.742195 136.286808 
L 549.175279 141.055729 
L 554.608363 139.479773 
L 560.041447 133.920748 
L 565.474531 130.75314 
L 570.907616 128.916463 
L 576.3407 125.727086 
L 581.773784 122.532568 
L 587.206868 122.132074 
L 592.639952 123.52482 
L 598.073036 128.824211 
L 603.50612 137.188475 
" clip-path="url(#p41a2bd46b4)" style="fill: none; stroke: #d62728; stroke-width: 1.5; stroke-linecap: round"/>
   </g>
   <g id="line2d_26">
    <path d="M 65.630796 310.869019 
L 71.06388 308.475063 
L 76.496964 303.016435 
L 81.930048 296.541438 
L 87.363132 292.896189 
L 92.796216 289.377592 
L 98.2293 283.67612 
L 103.662384 277.211364 
L 109.095469 272.317143 
L 114.528553 268.006502 
L 119.961637 259.155316 
L 125.394721 247.110848 
L 130.827805 233.644614 
L 136.260889 218.060495 
L 141.693973 204.037704 
L 147.127057 193.030756 
L 152.560141 180.80105 
L 157.993225 169.716133 
L 163.426309 162.889814 
L 168.859393 159.915321 
L 174.292478 158.829721 
L 179.725562 154.480044 
L 185.158646 148.112098 
L 190.59173 145.352049 
L 196.024814 144.13296 
L 201.457898 141.847585 
L 206.890982 141.859365 
L 212.324066 144.914987 
L 217.75715 143.274867 
L 223.190234 135.174905 
L 228.623318 127.796849 
L 234.056402 123.162292 
L 239.489487 121.347947 
L 244.922571 122.543441 
L 250.355655 123.445004 
L 255.788739 123.433382 
L 261.221823 121.887271 
L 266.654907 119.850156 
L 272.087991 119.424052 
L 277.521075 119.967033 
L 282.954159 122.960651 
L 288.387243 124.792605 
L 293.820327 121.221614 
L 299.253411 119.03601 
L 304.686496 120.602648 
L 310.11958 121.993248 
L 315.552664 120.465917 
L 320.985748 117.112146 
L 326.418832 118.207435 
L 331.851916 122.325295 
L 337.285 124.702101 
L 342.718084 125.410294 
L 348.151168 126.148897 
L 353.584252 127.123184 
L 359.017336 127.157481 
L 364.45042 126.807176 
L 369.883504 125.838572 
L 375.316589 121.922958 
L 380.749673 116.656618 
L 386.182757 111.190309 
L 391.615841 108.567884 
L 397.048925 109.590341 
L 402.482009 116.908457 
L 407.915093 127.811543 
L 413.348177 134.874346 
L 418.781261 136.22443 
L 424.214345 135.338001 
L 429.647429 135.212836 
L 435.080513 132.833525 
L 440.513598 129.459833 
L 445.946682 129.075569 
L 451.379766 130.795697 
L 456.81285 131.69068 
L 462.245934 130.602037 
L 467.679018 128.560409 
L 473.112102 125.539008 
L 478.545186 120.282879 
L 483.97827 115.522766 
L 489.411354 115.403428 
L 494.844438 115.796698 
L 500.277522 115.808766 
L 505.710607 116.30725 
L 511.143691 117.863483 
L 516.576775 118.240516 
L 522.009859 116.006365 
L 527.442943 112.693761 
L 532.876027 109.545884 
L 538.309111 107.435165 
L 543.742195 107.842817 
L 549.175279 109.908616 
L 554.608363 111.59106 
L 560.041447 113.14499 
L 565.474531 113.44931 
L 570.907616 111.743944 
L 576.3407 108.196512 
L 581.773784 105.952411 
L 587.206868 105.807646 
L 592.639952 106.081571 
L 598.073036 105.537032 
L 603.50612 104.918418 
" clip-path="url(#p41a2bd46b4)" style="fill: none; stroke-dasharray: 5.55,2.4; stroke-dashoffset: 0; stroke: #d62728; stroke-width: 1.5"/>
   </g>
   <g id="patch_3">
    <path d="M 65.63 390.04 
L 65.63 63.659 
" style="fill: none; stroke: #ffffff; stroke-width: 0.8; stroke-linejoin: miter; stroke-linecap: square"/>
   </g>
   <g id="patch_4">
    <path d="M 608.94 390.04 
L 608.94 63.659 
" style="fill: none; stroke: #ffffff; stroke-width: 0.8; stroke-linejoin: miter; stroke-linecap: square"/>
   </g>
   <g id="patch_5">
    <path d="M 65.63 390.04 
L 608.94 390.04 
" style="fill: none; stroke: #ffffff; stroke-width: 0.8; stroke-linejoin: miter; stroke-linecap: square"/>
   </g>
   <g id="patch_6">
    <path d="M 65.63 63.659 
L 608.94 63.659 
" style="fill: none; stroke: #ffffff; stroke-width: 0.8; stroke-linejoin: miter; stroke-linecap: square"/>
   </g>
   <g id="legend_1">
    <g id="line2d_27">
     <path d="M 62.308446 41.931898 
L 70.638446 41.931898 
L 78.968446 41.931898 
" style="fill: none; stroke: #1f77b4; stroke-width: 1.5; stroke-linecap: round"/>
    </g>
    <g id="text_22">
     <!-- GNN_K-Net (No modification) -->
     <g style="fill: #262626" transform="translate(85.632446 44.847398) scale(0.0833 -0.0833)">
      <defs>
       <path id="DejaVuSans-47" d="M 3809 666 
L 3809 1919 
L 2778 1919 
L 2778 2438 
L 4434 2438 
L 4434 434 
Q 4069 175 3628 42 
Q 3188 -91 2688 -91 
Q 1594 -91 976 548 
Q 359 1188 359 2328 
Q 359 3472 976 4111 
Q 1594 4750 2688 4750 
Q 3144 4750 3555 4637 
Q 3966 4525 4313 4306 
L 4313 3634 
Q 3963 3931 3569 4081 
Q 3175 4231 2741 4231 
Q 1884 4231 1454 3753 
Q 1025 3275 1025 2328 
Q 1025 1384 1454 906 
Q 1884 428 2741 428 
Q 3075 428 3337 486 
Q 3600 544 3809 666 
z
" transform="scale(0.015625)"/>
       <path id="DejaVuSans-4e" d="M 628 4666 
L 1478 4666 
L 3547 763 
L 3547 4666 
L 4159 4666 
L 4159 0 
L 3309 0 
L 1241 3903 
L 1241 0 
L 628 0 
L 628 4666 
z
" transform="scale(0.015625)"/>
       <path id="DejaVuSans-5f" d="M 3263 -1063 
L 3263 -1509 
L -63 -1509 
L -63 -1063 
L 3263 -1063 
z
" transform="scale(0.015625)"/>
       <path id="DejaVuSans-4b" d="M 628 4666 
L 1259 4666 
L 1259 2694 
L 3353 4666 
L 4166 4666 
L 1850 2491 
L 4331 0 
L 3500 0 
L 1259 2247 
L 1259 0 
L 628 0 
L 628 4666 
z
" transform="scale(0.015625)"/>
       <path id="DejaVuSans-2d" d="M 313 2009 
L 1997 2009 
L 1997 1497 
L 313 1497 
L 313 2009 
z
" transform="scale(0.015625)"/>
       <path id="DejaVuSans-20" transform="scale(0.015625)"/>
       <path id="DejaVuSans-28" d="M 1984 4856 
Q 1566 4138 1362 3434 
Q 1159 2731 1159 2009 
Q 1159 1288 1364 580 
Q 1569 -128 1984 -844 
L 1484 -844 
Q 1016 -109 783 600 
Q 550 1309 550 2009 
Q 550 2706 781 3412 
Q 1013 4119 1484 4856 
L 1984 4856 
z
" transform="scale(0.015625)"/>
       <path id="DejaVuSans-6f" d="M 1959 3097 
Q 1497 3097 1228 2736 
Q 959 2375 959 1747 
Q 959 1119 1226 758 
Q 1494 397 1959 397 
Q 2419 397 2687 759 
Q 2956 1122 2956 1747 
Q 2956 2369 2687 2733 
Q 2419 3097 1959 3097 
z
M 1959 3584 
Q 2709 3584 3137 3096 
Q 3566 2609 3566 1747 
Q 3566 888 3137 398 
Q 2709 -91 1959 -91 
Q 1206 -91 779 398 
Q 353 888 353 1747 
Q 353 2609 779 3096 
Q 1206 3584 1959 3584 
z
" transform="scale(0.015625)"/>
       <path id="DejaVuSans-6d" d="M 3328 2828 
Q 3544 3216 3844 3400 
Q 4144 3584 4550 3584 
Q 5097 3584 5394 3201 
Q 5691 2819 5691 2113 
L 5691 0 
L 5113 0 
L 5113 2094 
Q 5113 2597 4934 2840 
Q 4756 3084 4391 3084 
Q 3944 3084 3684 2787 
Q 3425 2491 3425 1978 
L 3425 0 
L 2847 0 
L 2847 2094 
Q 2847 2600 2669 2842 
Q 2491 3084 2119 3084 
Q 1678 3084 1418 2786 
Q 1159 2488 1159 1978 
L 1159 0 
L 581 0 
L 581 3500 
L 1159 3500 
L 1159 2956 
Q 1356 3278 1631 3431 
Q 1906 3584 2284 3584 
Q 2666 3584 2933 3390 
Q 3200 3197 3328 2828 
z
" transform="scale(0.015625)"/>
       <path id="DejaVuSans-69" d="M 603 3500 
L 1178 3500 
L 1178 0 
L 603 0 
L 603 3500 
z
M 603 4863 
L 1178 4863 
L 1178 4134 
L 603 4134 
L 603 4863 
z
" transform="scale(0.015625)"/>
       <path id="DejaVuSans-66" d="M 2375 4863 
L 2375 4384 
L 1825 4384 
Q 1516 4384 1395 4259 
Q 1275 4134 1275 3809 
L 1275 3500 
L 2222 3500 
L 2222 3053 
L 1275 3053 
L 1275 0 
L 697 0 
L 697 3053 
L 147 3053 
L 147 3500 
L 697 3500 
L 697 3744 
Q 697 4328 969 4595 
Q 1241 4863 1831 4863 
L 2375 4863 
z
" transform="scale(0.015625)"/>
       <path id="DejaVuSans-63" d="M 3122 3366 
L 3122 2828 
Q 2878 2963 2633 3030 
Q 2388 3097 2138 3097 
Q 1578 3097 1268 2742 
Q 959 2388 959 1747 
Q 959 1106 1268 751 
Q 1578 397 2138 397 
Q 2388 397 2633 464 
Q 2878 531 3122 666 
L 3122 134 
Q 2881 22 2623 -34 
Q 2366 -91 2075 -91 
Q 1284 -91 818 406 
Q 353 903 353 1747 
Q 353 2603 823 3093 
Q 1294 3584 2113 3584 
Q 2378 3584 2631 3529 
Q 2884 3475 3122 3366 
z
" transform="scale(0.015625)"/>
       <path id="DejaVuSans-6e" d="M 3513 2113 
L 3513 0 
L 2938 0 
L 2938 2094 
Q 2938 2591 2744 2837 
Q 2550 3084 2163 3084 
Q 1697 3084 1428 2787 
Q 1159 2491 1159 1978 
L 1159 0 
L 581 0 
L 581 3500 
L 1159 3500 
L 1159 2956 
Q 1366 3272 1645 3428 
Q 1925 3584 2291 3584 
Q 2894 3584 3203 3211 
Q 3513 2838 3513 2113 
z
" transform="scale(0.015625)"/>
       <path id="DejaVuSans-29" d="M 513 4856 
L 1013 4856 
Q 1481 4119 1714 3412 
Q 1947 2706 1947 2009 
Q 1947 1309 1714 600 
Q 1481 -109 1013 -844 
L 513 -844 
Q 928 -128 1133 580 
Q 1338 1288 1338 2009 
Q 1338 2731 1133 3434 
Q 928 4138 513 4856 
z
" transform="scale(0.015625)"/>
      </defs>
      <use xlink:href="#DejaVuSans-47"/>
      <use xlink:href="#DejaVuSans-4e" transform="translate(77.490234 0)"/>
      <use xlink:href="#DejaVuSans-4e" transform="translate(152.294922 0)"/>
      <use xlink:href="#DejaVuSans-5f" transform="translate(227.099609 0)"/>
      <use xlink:href="#DejaVuSans-4b" transform="translate(277.099609 0)"/>
      <use xlink:href="#DejaVuSans-2d" transform="translate(332.175781 0)"/>
      <use xlink:href="#DejaVuSans-4e" transform="translate(368.259766 0)"/>
      <use xlink:href="#DejaVuSans-65" transform="translate(443.064453 0)"/>
      <use xlink:href="#DejaVuSans-74" transform="translate(504.587891 0)"/>
      <use xlink:href="#DejaVuSans-20" transform="translate(543.796875 0)"/>
      <use xlink:href="#DejaVuSans-28" transform="translate(575.583984 0)"/>
      <use xlink:href="#DejaVuSans-4e" transform="translate(614.597656 0)"/>
      <use xlink:href="#DejaVuSans-6f" transform="translate(689.402344 0)"/>
      <use xlink:href="#DejaVuSans-20" transform="translate(750.583984 0)"/>
      <use xlink:href="#DejaVuSans-6d" transform="translate(782.371094 0)"/>
      <use xlink:href="#DejaVuSans-6f" transform="translate(879.783203 0)"/>
      <use xlink:href="#DejaVuSans-64" transform="translate(940.964844 0)"/>
      <use xlink:href="#DejaVuSans-69" transform="translate(1004.441406 0)"/>
      <use xlink:href="#DejaVuSans-66" transform="translate(1032.224609 0)"/>
      <use xlink:href="#DejaVuSans-69" transform="translate(1067.429688 0)"/>
      <use xlink:href="#DejaVuSans-63" transform="translate(1095.212891 0)"/>
      <use xlink:href="#DejaVuSans-61" transform="translate(1150.193359 0)"/>
      <use xlink:href="#DejaVuSans-74" transform="translate(1211.472656 0)"/>
      <use xlink:href="#DejaVuSans-69" transform="translate(1250.681641 0)"/>
      <use xlink:href="#DejaVuSans-6f" transform="translate(1278.464844 0)"/>
      <use xlink:href="#DejaVuSans-6e" transform="translate(1339.646484 0)"/>
      <use xlink:href="#DejaVuSans-29" transform="translate(1403.025391 0)"/>
     </g>
    </g>
    <g id="line2d_28">
     <path d="M 62.308446 54.390455 
L 70.638446 54.390455 
L 78.968446 54.390455 
" style="fill: none; stroke-dasharray: 5.55,2.4; stroke-dashoffset: 0; stroke: #1f77b4; stroke-width: 1.5"/>
    </g>
    <g id="text_23">
     <!-- Baseline (No modification) -->
     <g style="fill: #262626" transform="translate(85.632446 57.305955) scale(0.0833 -0.0833)">
      <defs>
       <path id="DejaVuSans-42" d="M 1259 2228 
L 1259 519 
L 2272 519 
Q 2781 519 3026 730 
Q 3272 941 3272 1375 
Q 3272 1813 3026 2020 
Q 2781 2228 2272 2228 
L 1259 2228 
z
M 1259 4147 
L 1259 2741 
L 2194 2741 
Q 2656 2741 2882 2914 
Q 3109 3088 3109 3444 
Q 3109 3797 2882 3972 
Q 2656 4147 2194 4147 
L 1259 4147 
z
M 628 4666 
L 2241 4666 
Q 2963 4666 3353 4366 
Q 3744 4066 3744 3513 
Q 3744 3084 3544 2831 
Q 3344 2578 2956 2516 
Q 3422 2416 3680 2098 
Q 3938 1781 3938 1306 
Q 3938 681 3513 340 
Q 3088 0 2303 0 
L 628 0 
L 628 4666 
z
" transform="scale(0.015625)"/>
       <path id="DejaVuSans-6c" d="M 603 4863 
L 1178 4863 
L 1178 0 
L 603 0 
L 603 4863 
z
" transform="scale(0.015625)"/>
      </defs>
      <use xlink:href="#DejaVuSans-42"/>
      <use xlink:href="#DejaVuSans-61" transform="translate(68.603516 0)"/>
      <use xlink:href="#DejaVuSans-73" transform="translate(129.882812 0)"/>
      <use xlink:href="#DejaVuSans-65" transform="translate(181.982422 0)"/>
      <use xlink:href="#DejaVuSans-6c" transform="translate(243.505859 0)"/>
      <use xlink:href="#DejaVuSans-69" transform="translate(271.289062 0)"/>
      <use xlink:href="#DejaVuSans-6e" transform="translate(299.072266 0)"/>
      <use xlink:href="#DejaVuSans-65" transform="translate(362.451172 0)"/>
      <use xlink:href="#DejaVuSans-20" transform="translate(423.974609 0)"/>
      <use xlink:href="#DejaVuSans-28" transform="translate(455.761719 0)"/>
      <use xlink:href="#DejaVuSans-4e" transform="translate(494.775391 0)"/>
      <use xlink:href="#DejaVuSans-6f" transform="translate(569.580078 0)"/>
      <use xlink:href="#DejaVuSans-20" transform="translate(630.761719 0)"/>
      <use xlink:href="#DejaVuSans-6d" transform="translate(662.548828 0)"/>
      <use xlink:href="#DejaVuSans-6f" transform="translate(759.960938 0)"/>
      <use xlink:href="#DejaVuSans-64" transform="translate(821.142578 0)"/>
      <use xlink:href="#DejaVuSans-69" transform="translate(884.619141 0)"/>
      <use xlink:href="#DejaVuSans-66" transform="translate(912.402344 0)"/>
      <use xlink:href="#DejaVuSans-69" transform="translate(947.607422 0)"/>
      <use xlink:href="#DejaVuSans-63" transform="translate(975.390625 0)"/>
      <use xlink:href="#DejaVuSans-61" transform="translate(1030.371094 0)"/>
      <use xlink:href="#DejaVuSans-74" transform="translate(1091.650391 0)"/>
      <use xlink:href="#DejaVuSans-69" transform="translate(1130.859375 0)"/>
      <use xlink:href="#DejaVuSans-6f" transform="translate(1158.642578 0)"/>
      <use xlink:href="#DejaVuSans-6e" transform="translate(1219.824219 0)"/>
      <use xlink:href="#DejaVuSans-29" transform="translate(1283.203125 0)"/>
     </g>
    </g>
    <g id="line2d_29">
     <path d="M 222.416252 41.931898 
L 230.746252 41.931898 
L 239.076252 41.931898 
" style="fill: none; stroke: #ff7f0e; stroke-width: 1.5; stroke-linecap: round"/>
    </g>
    <g id="text_24">
     <!-- GNN_K-Net (Entropy) -->
     <g style="fill: #262626" transform="translate(245.740252 44.847398) scale(0.0833 -0.0833)">
      <defs>
       <path id="DejaVuSans-45" d="M 628 4666 
L 3578 4666 
L 3578 4134 
L 1259 4134 
L 1259 2753 
L 3481 2753 
L 3481 2222 
L 1259 2222 
L 1259 531 
L 3634 531 
L 3634 0 
L 628 0 
L 628 4666 
z
" transform="scale(0.015625)"/>
       <path id="DejaVuSans-79" d="M 2059 -325 
Q 1816 -950 1584 -1140 
Q 1353 -1331 966 -1331 
L 506 -1331 
L 506 -850 
L 844 -850 
Q 1081 -850 1212 -737 
Q 1344 -625 1503 -206 
L 1606 56 
L 191 3500 
L 800 3500 
L 1894 763 
L 2988 3500 
L 3597 3500 
L 2059 -325 
z
" transform="scale(0.015625)"/>
      </defs>
      <use xlink:href="#DejaVuSans-47"/>
      <use xlink:href="#DejaVuSans-4e" transform="translate(77.490234 0)"/>
      <use xlink:href="#DejaVuSans-4e" transform="translate(152.294922 0)"/>
      <use xlink:href="#DejaVuSans-5f" transform="translate(227.099609 0)"/>
      <use xlink:href="#DejaVuSans-4b" transform="translate(277.099609 0)"/>
      <use xlink:href="#DejaVuSans-2d" transform="translate(332.175781 0)"/>
      <use xlink:href="#DejaVuSans-4e" transform="translate(368.259766 0)"/>
      <use xlink:href="#DejaVuSans-65" transform="translate(443.064453 0)"/>
      <use xlink:href="#DejaVuSans-74" transform="translate(504.587891 0)"/>
      <use xlink:href="#DejaVuSans-20" transform="translate(543.796875 0)"/>
      <use xlink:href="#DejaVuSans-28" transform="translate(575.583984 0)"/>
      <use xlink:href="#DejaVuSans-45" transform="translate(614.597656 0)"/>
      <use xlink:href="#DejaVuSans-6e" transform="translate(677.78125 0)"/>
      <use xlink:href="#DejaVuSans-74" transform="translate(741.160156 0)"/>
      <use xlink:href="#DejaVuSans-72" transform="translate(780.369141 0)"/>
      <use xlink:href="#DejaVuSans-6f" transform="translate(819.232422 0)"/>
      <use xlink:href="#DejaVuSans-70" transform="translate(880.414062 0)"/>
      <use xlink:href="#DejaVuSans-79" transform="translate(943.890625 0)"/>
      <use xlink:href="#DejaVuSans-29" transform="translate(1003.070312 0)"/>
     </g>
    </g>
    <g id="line2d_30">
     <path d="M 222.416252 54.390455 
L 230.746252 54.390455 
L 239.076252 54.390455 
" style="fill: none; stroke-dasharray: 5.55,2.4; stroke-dashoffset: 0; stroke: #ff7f0e; stroke-width: 1.5"/>
    </g>
    <g id="text_25">
     <!-- Baseline (Entropy) -->
     <g style="fill: #262626" transform="translate(245.740252 57.305955) scale(0.0833 -0.0833)">
      <use xlink:href="#DejaVuSans-42"/>
      <use xlink:href="#DejaVuSans-61" transform="translate(68.603516 0)"/>
      <use xlink:href="#DejaVuSans-73" transform="translate(129.882812 0)"/>
      <use xlink:href="#DejaVuSans-65" transform="translate(181.982422 0)"/>
      <use xlink:href="#DejaVuSans-6c" transform="translate(243.505859 0)"/>
      <use xlink:href="#DejaVuSans-69" transform="translate(271.289062 0)"/>
      <use xlink:href="#DejaVuSans-6e" transform="translate(299.072266 0)"/>
      <use xlink:href="#DejaVuSans-65" transform="translate(362.451172 0)"/>
      <use xlink:href="#DejaVuSans-20" transform="translate(423.974609 0)"/>
      <use xlink:href="#DejaVuSans-28" transform="translate(455.761719 0)"/>
      <use xlink:href="#DejaVuSans-45" transform="translate(494.775391 0)"/>
      <use xlink:href="#DejaVuSans-6e" transform="translate(557.958984 0)"/>
      <use xlink:href="#DejaVuSans-74" transform="translate(621.337891 0)"/>
      <use xlink:href="#DejaVuSans-72" transform="translate(660.546875 0)"/>
      <use xlink:href="#DejaVuSans-6f" transform="translate(699.410156 0)"/>
      <use xlink:href="#DejaVuSans-70" transform="translate(760.591797 0)"/>
      <use xlink:href="#DejaVuSans-79" transform="translate(824.068359 0)"/>
      <use xlink:href="#DejaVuSans-29" transform="translate(883.248047 0)"/>
     </g>
    </g>
    <g id="line2d_31">
     <path d="M 349.207963 41.931898 
L 357.537963 41.931898 
L 365.867963 41.931898 
" style="fill: none; stroke: #2ca02c; stroke-width: 1.5; stroke-linecap: round"/>
    </g>
    <g id="text_26">
     <!-- GNN_K-Net (Noise) -->
     <g style="fill: #262626" transform="translate(372.531963 44.847398) scale(0.0833 -0.0833)">
      <use xlink:href="#DejaVuSans-47"/>
      <use xlink:href="#DejaVuSans-4e" transform="translate(77.490234 0)"/>
      <use xlink:href="#DejaVuSans-4e" transform="translate(152.294922 0)"/>
      <use xlink:href="#DejaVuSans-5f" transform="translate(227.099609 0)"/>
      <use xlink:href="#DejaVuSans-4b" transform="translate(277.099609 0)"/>
      <use xlink:href="#DejaVuSans-2d" transform="translate(332.175781 0)"/>
      <use xlink:href="#DejaVuSans-4e" transform="translate(368.259766 0)"/>
      <use xlink:href="#DejaVuSans-65" transform="translate(443.064453 0)"/>
      <use xlink:href="#DejaVuSans-74" transform="translate(504.587891 0)"/>
      <use xlink:href="#DejaVuSans-20" transform="translate(543.796875 0)"/>
      <use xlink:href="#DejaVuSans-28" transform="translate(575.583984 0)"/>
      <use xlink:href="#DejaVuSans-4e" transform="translate(614.597656 0)"/>
      <use xlink:href="#DejaVuSans-6f" transform="translate(689.402344 0)"/>
      <use xlink:href="#DejaVuSans-69" transform="translate(750.583984 0)"/>
      <use xlink:href="#DejaVuSans-73" transform="translate(778.367188 0)"/>
      <use xlink:href="#DejaVuSans-65" transform="translate(830.466797 0)"/>
      <use xlink:href="#DejaVuSans-29" transform="translate(891.990234 0)"/>
     </g>
    </g>
    <g id="line2d_32">
     <path d="M 349.207963 54.390455 
L 357.537963 54.390455 
L 365.867963 54.390455 
" style="fill: none; stroke-dasharray: 5.55,2.4; stroke-dashoffset: 0; stroke: #2ca02c; stroke-width: 1.5"/>
    </g>
    <g id="text_27">
     <!-- Baseline (Noise) -->
     <g style="fill: #262626" transform="translate(372.531963 57.305955) scale(0.0833 -0.0833)">
      <use xlink:href="#DejaVuSans-42"/>
      <use xlink:href="#DejaVuSans-61" transform="translate(68.603516 0)"/>
      <use xlink:href="#DejaVuSans-73" transform="translate(129.882812 0)"/>
      <use xlink:href="#DejaVuSans-65" transform="translate(181.982422 0)"/>
      <use xlink:href="#DejaVuSans-6c" transform="translate(243.505859 0)"/>
      <use xlink:href="#DejaVuSans-69" transform="translate(271.289062 0)"/>
      <use xlink:href="#DejaVuSans-6e" transform="translate(299.072266 0)"/>
      <use xlink:href="#DejaVuSans-65" transform="translate(362.451172 0)"/>
      <use xlink:href="#DejaVuSans-20" transform="translate(423.974609 0)"/>
      <use xlink:href="#DejaVuSans-28" transform="translate(455.761719 0)"/>
      <use xlink:href="#DejaVuSans-4e" transform="translate(494.775391 0)"/>
      <use xlink:href="#DejaVuSans-6f" transform="translate(569.580078 0)"/>
      <use xlink:href="#DejaVuSans-69" transform="translate(630.761719 0)"/>
      <use xlink:href="#DejaVuSans-73" transform="translate(658.544922 0)"/>
      <use xlink:href="#DejaVuSans-65" transform="translate(710.644531 0)"/>
      <use xlink:href="#DejaVuSans-29" transform="translate(772.167969 0)"/>
     </g>
    </g>
    <g id="line2d_33">
     <path d="M 466.746866 41.931898 
L 475.076866 41.931898 
L 483.406866 41.931898 
" style="fill: none; stroke: #d62728; stroke-width: 1.5; stroke-linecap: round"/>
    </g>
    <g id="text_28">
     <!-- GNN_K-Net (Noise + Entropy) -->
     <g style="fill: #262626" transform="translate(490.070866 44.847398) scale(0.0833 -0.0833)">
      <defs>
       <path id="DejaVuSans-2b" d="M 2944 4013 
L 2944 2272 
L 4684 2272 
L 4684 1741 
L 2944 1741 
L 2944 0 
L 2419 0 
L 2419 1741 
L 678 1741 
L 678 2272 
L 2419 2272 
L 2419 4013 
L 2944 4013 
z
" transform="scale(0.015625)"/>
      </defs>
      <use xlink:href="#DejaVuSans-47"/>
      <use xlink:href="#DejaVuSans-4e" transform="translate(77.490234 0)"/>
      <use xlink:href="#DejaVuSans-4e" transform="translate(152.294922 0)"/>
      <use xlink:href="#DejaVuSans-5f" transform="translate(227.099609 0)"/>
      <use xlink:href="#DejaVuSans-4b" transform="translate(277.099609 0)"/>
      <use xlink:href="#DejaVuSans-2d" transform="translate(332.175781 0)"/>
      <use xlink:href="#DejaVuSans-4e" transform="translate(368.259766 0)"/>
      <use xlink:href="#DejaVuSans-65" transform="translate(443.064453 0)"/>
      <use xlink:href="#DejaVuSans-74" transform="translate(504.587891 0)"/>
      <use xlink:href="#DejaVuSans-20" transform="translate(543.796875 0)"/>
      <use xlink:href="#DejaVuSans-28" transform="translate(575.583984 0)"/>
      <use xlink:href="#DejaVuSans-4e" transform="translate(614.597656 0)"/>
      <use xlink:href="#DejaVuSans-6f" transform="translate(689.402344 0)"/>
      <use xlink:href="#DejaVuSans-69" transform="translate(750.583984 0)"/>
      <use xlink:href="#DejaVuSans-73" transform="translate(778.367188 0)"/>
      <use xlink:href="#DejaVuSans-65" transform="translate(830.466797 0)"/>
      <use xlink:href="#DejaVuSans-20" transform="translate(891.990234 0)"/>
      <use xlink:href="#DejaVuSans-2b" transform="translate(923.777344 0)"/>
      <use xlink:href="#DejaVuSans-20" transform="translate(1007.566406 0)"/>
      <use xlink:href="#DejaVuSans-45" transform="translate(1039.353516 0)"/>
      <use xlink:href="#DejaVuSans-6e" transform="translate(1102.537109 0)"/>
      <use xlink:href="#DejaVuSans-74" transform="translate(1165.916016 0)"/>
      <use xlink:href="#DejaVuSans-72" transform="translate(1205.125 0)"/>
      <use xlink:href="#DejaVuSans-6f" transform="translate(1243.988281 0)"/>
      <use xlink:href="#DejaVuSans-70" transform="translate(1305.169922 0)"/>
      <use xlink:href="#DejaVuSans-79" transform="translate(1368.646484 0)"/>
      <use xlink:href="#DejaVuSans-29" transform="translate(1427.826172 0)"/>
     </g>
    </g>
    <g id="line2d_34">
     <path d="M 466.746866 54.390455 
L 475.076866 54.390455 
L 483.406866 54.390455 
" style="fill: none; stroke-dasharray: 5.55,2.4; stroke-dashoffset: 0; stroke: #d62728; stroke-width: 1.5"/>
    </g>
    <g id="text_29">
     <!-- Baseline (Noise + Entropy) -->
     <g style="fill: #262626" transform="translate(490.070866 57.305955) scale(0.0833 -0.0833)">
      <use xlink:href="#DejaVuSans-42"/>
      <use xlink:href="#DejaVuSans-61" transform="translate(68.603516 0)"/>
      <use xlink:href="#DejaVuSans-73" transform="translate(129.882812 0)"/>
      <use xlink:href="#DejaVuSans-65" transform="translate(181.982422 0)"/>
      <use xlink:href="#DejaVuSans-6c" transform="translate(243.505859 0)"/>
      <use xlink:href="#DejaVuSans-69" transform="translate(271.289062 0)"/>
      <use xlink:href="#DejaVuSans-6e" transform="translate(299.072266 0)"/>
      <use xlink:href="#DejaVuSans-65" transform="translate(362.451172 0)"/>
      <use xlink:href="#DejaVuSans-20" transform="translate(423.974609 0)"/>
      <use xlink:href="#DejaVuSans-28" transform="translate(455.761719 0)"/>
      <use xlink:href="#DejaVuSans-4e" transform="translate(494.775391 0)"/>
      <use xlink:href="#DejaVuSans-6f" transform="translate(569.580078 0)"/>
      <use xlink:href="#DejaVuSans-69" transform="translate(630.761719 0)"/>
      <use xlink:href="#DejaVuSans-73" transform="translate(658.544922 0)"/>
      <use xlink:href="#DejaVuSans-65" transform="translate(710.644531 0)"/>
      <use xlink:href="#DejaVuSans-20" transform="translate(772.167969 0)"/>
      <use xlink:href="#DejaVuSans-2b" transform="translate(803.955078 0)"/>
      <use xlink:href="#DejaVuSans-20" transform="translate(887.744141 0)"/>
      <use xlink:href="#DejaVuSans-45" transform="translate(919.53125 0)"/>
      <use xlink:href="#DejaVuSans-6e" transform="translate(982.714844 0)"/>
      <use xlink:href="#DejaVuSans-74" transform="translate(1046.09375 0)"/>
      <use xlink:href="#DejaVuSans-72" transform="translate(1085.302734 0)"/>
      <use xlink:href="#DejaVuSans-6f" transform="translate(1124.166016 0)"/>
      <use xlink:href="#DejaVuSans-70" transform="translate(1185.347656 0)"/>
      <use xlink:href="#DejaVuSans-79" transform="translate(1248.824219 0)"/>
      <use xlink:href="#DejaVuSans-29" transform="translate(1308.003906 0)"/>
     </g>
    </g>
   </g>
  </g>
  <g id="text_30">
   <!-- Rewards: Pendulum-v1 (Discretized) (GNN_K-Net) -->
   <g style="fill: #262626" transform="translate(156.283125 17.758125) scale(0.12 -0.12)">
    <defs>
     <path id="DejaVuSans-Bold-52" d="M 2297 2597 
Q 2675 2597 2839 2737 
Q 3003 2878 3003 3200 
Q 3003 3519 2839 3656 
Q 2675 3794 2297 3794 
L 1791 3794 
L 1791 2597 
L 2297 2597 
z
M 1791 1766 
L 1791 0 
L 588 0 
L 588 4666 
L 2425 4666 
Q 3347 4666 3776 4356 
Q 4206 4047 4206 3378 
Q 4206 2916 3982 2619 
Q 3759 2322 3309 2181 
Q 3556 2125 3751 1926 
Q 3947 1728 4147 1325 
L 4800 0 
L 3519 0 
L 2950 1159 
Q 2778 1509 2601 1637 
Q 2425 1766 2131 1766 
L 1791 1766 
z
" transform="scale(0.015625)"/>
     <path id="DejaVuSans-Bold-65" d="M 4031 1759 
L 4031 1441 
L 1416 1441 
Q 1456 1047 1700 850 
Q 1944 653 2381 653 
Q 2734 653 3104 758 
Q 3475 863 3866 1075 
L 3866 213 
Q 3469 63 3072 -14 
Q 2675 -91 2278 -91 
Q 1328 -91 801 392 
Q 275 875 275 1747 
Q 275 2603 792 3093 
Q 1309 3584 2216 3584 
Q 3041 3584 3536 3087 
Q 4031 2591 4031 1759 
z
M 2881 2131 
Q 2881 2450 2695 2645 
Q 2509 2841 2209 2841 
Q 1884 2841 1681 2658 
Q 1478 2475 1428 2131 
L 2881 2131 
z
" transform="scale(0.015625)"/>
     <path id="DejaVuSans-Bold-77" d="M 225 3500 
L 1313 3500 
L 1900 1088 
L 2491 3500 
L 3425 3500 
L 4013 1113 
L 4603 3500 
L 5691 3500 
L 4769 0 
L 3547 0 
L 2956 2406 
L 2369 0 
L 1147 0 
L 225 3500 
z
" transform="scale(0.015625)"/>
     <path id="DejaVuSans-Bold-61" d="M 2106 1575 
Q 1756 1575 1579 1456 
Q 1403 1338 1403 1106 
Q 1403 894 1545 773 
Q 1688 653 1941 653 
Q 2256 653 2472 879 
Q 2688 1106 2688 1447 
L 2688 1575 
L 2106 1575 
z
M 3816 1997 
L 3816 0 
L 2688 0 
L 2688 519 
Q 2463 200 2181 54 
Q 1900 -91 1497 -91 
Q 953 -91 614 226 
Q 275 544 275 1050 
Q 275 1666 698 1953 
Q 1122 2241 2028 2241 
L 2688 2241 
L 2688 2328 
Q 2688 2594 2478 2717 
Q 2269 2841 1825 2841 
Q 1466 2841 1156 2769 
Q 847 2697 581 2553 
L 581 3406 
Q 941 3494 1303 3539 
Q 1666 3584 2028 3584 
Q 2975 3584 3395 3211 
Q 3816 2838 3816 1997 
z
" transform="scale(0.015625)"/>
     <path id="DejaVuSans-Bold-72" d="M 3138 2547 
Q 2991 2616 2845 2648 
Q 2700 2681 2553 2681 
Q 2122 2681 1889 2404 
Q 1656 2128 1656 1613 
L 1656 0 
L 538 0 
L 538 3500 
L 1656 3500 
L 1656 2925 
Q 1872 3269 2151 3426 
Q 2431 3584 2822 3584 
Q 2878 3584 2943 3579 
Q 3009 3575 3134 3559 
L 3138 2547 
z
" transform="scale(0.015625)"/>
     <path id="DejaVuSans-Bold-64" d="M 2919 2988 
L 2919 4863 
L 4044 4863 
L 4044 0 
L 2919 0 
L 2919 506 
Q 2688 197 2409 53 
Q 2131 -91 1766 -91 
Q 1119 -91 703 423 
Q 288 938 288 1747 
Q 288 2556 703 3070 
Q 1119 3584 1766 3584 
Q 2128 3584 2408 3439 
Q 2688 3294 2919 2988 
z
M 2181 722 
Q 2541 722 2730 984 
Q 2919 1247 2919 1747 
Q 2919 2247 2730 2509 
Q 2541 2772 2181 2772 
Q 1825 2772 1636 2509 
Q 1447 2247 1447 1747 
Q 1447 1247 1636 984 
Q 1825 722 2181 722 
z
" transform="scale(0.015625)"/>
     <path id="DejaVuSans-Bold-73" d="M 3272 3391 
L 3272 2541 
Q 2913 2691 2578 2766 
Q 2244 2841 1947 2841 
Q 1628 2841 1473 2761 
Q 1319 2681 1319 2516 
Q 1319 2381 1436 2309 
Q 1553 2238 1856 2203 
L 2053 2175 
Q 2913 2066 3209 1816 
Q 3506 1566 3506 1031 
Q 3506 472 3093 190 
Q 2681 -91 1863 -91 
Q 1516 -91 1145 -36 
Q 775 19 384 128 
L 384 978 
Q 719 816 1070 734 
Q 1422 653 1784 653 
Q 2113 653 2278 743 
Q 2444 834 2444 1013 
Q 2444 1163 2330 1236 
Q 2216 1309 1875 1350 
L 1678 1375 
Q 931 1469 631 1722 
Q 331 1975 331 2491 
Q 331 3047 712 3315 
Q 1094 3584 1881 3584 
Q 2191 3584 2531 3537 
Q 2872 3491 3272 3391 
z
" transform="scale(0.015625)"/>
     <path id="DejaVuSans-Bold-3a" d="M 716 3500 
L 1844 3500 
L 1844 2291 
L 716 2291 
L 716 3500 
z
M 716 1209 
L 1844 1209 
L 1844 0 
L 716 0 
L 716 1209 
z
" transform="scale(0.015625)"/>
     <path id="DejaVuSans-Bold-20" transform="scale(0.015625)"/>
     <path id="DejaVuSans-Bold-50" d="M 588 4666 
L 2584 4666 
Q 3475 4666 3951 4270 
Q 4428 3875 4428 3144 
Q 4428 2409 3951 2014 
Q 3475 1619 2584 1619 
L 1791 1619 
L 1791 0 
L 588 0 
L 588 4666 
z
M 1791 3794 
L 1791 2491 
L 2456 2491 
Q 2806 2491 2997 2661 
Q 3188 2831 3188 3144 
Q 3188 3456 2997 3625 
Q 2806 3794 2456 3794 
L 1791 3794 
z
" transform="scale(0.015625)"/>
     <path id="DejaVuSans-Bold-6e" d="M 4056 2131 
L 4056 0 
L 2931 0 
L 2931 347 
L 2931 1631 
Q 2931 2084 2911 2256 
Q 2891 2428 2841 2509 
Q 2775 2619 2662 2680 
Q 2550 2741 2406 2741 
Q 2056 2741 1856 2470 
Q 1656 2200 1656 1722 
L 1656 0 
L 538 0 
L 538 3500 
L 1656 3500 
L 1656 2988 
Q 1909 3294 2193 3439 
Q 2478 3584 2822 3584 
Q 3428 3584 3742 3212 
Q 4056 2841 4056 2131 
z
" transform="scale(0.015625)"/>
     <path id="DejaVuSans-Bold-75" d="M 500 1363 
L 500 3500 
L 1625 3500 
L 1625 3150 
Q 1625 2866 1622 2436 
Q 1619 2006 1619 1863 
Q 1619 1441 1641 1255 
Q 1663 1069 1716 984 
Q 1784 875 1895 815 
Q 2006 756 2150 756 
Q 2500 756 2700 1025 
Q 2900 1294 2900 1772 
L 2900 3500 
L 4019 3500 
L 4019 0 
L 2900 0 
L 2900 506 
Q 2647 200 2364 54 
Q 2081 -91 1741 -91 
Q 1134 -91 817 281 
Q 500 653 500 1363 
z
" transform="scale(0.015625)"/>
     <path id="DejaVuSans-Bold-6c" d="M 538 4863 
L 1656 4863 
L 1656 0 
L 538 0 
L 538 4863 
z
" transform="scale(0.015625)"/>
     <path id="DejaVuSans-Bold-6d" d="M 3781 2919 
Q 3994 3244 4286 3414 
Q 4578 3584 4928 3584 
Q 5531 3584 5847 3212 
Q 6163 2841 6163 2131 
L 6163 0 
L 5038 0 
L 5038 1825 
Q 5041 1866 5042 1909 
Q 5044 1953 5044 2034 
Q 5044 2406 4934 2573 
Q 4825 2741 4581 2741 
Q 4263 2741 4089 2478 
Q 3916 2216 3909 1719 
L 3909 0 
L 2784 0 
L 2784 1825 
Q 2784 2406 2684 2573 
Q 2584 2741 2328 2741 
Q 2006 2741 1831 2477 
Q 1656 2213 1656 1722 
L 1656 0 
L 531 0 
L 531 3500 
L 1656 3500 
L 1656 2988 
Q 1863 3284 2130 3434 
Q 2397 3584 2719 3584 
Q 3081 3584 3359 3409 
Q 3638 3234 3781 2919 
z
" transform="scale(0.015625)"/>
     <path id="DejaVuSans-Bold-2d" d="M 347 2297 
L 2309 2297 
L 2309 1388 
L 347 1388 
L 347 2297 
z
" transform="scale(0.015625)"/>
     <path id="DejaVuSans-Bold-76" d="M 97 3500 
L 1216 3500 
L 2088 1081 
L 2956 3500 
L 4078 3500 
L 2700 0 
L 1472 0 
L 97 3500 
z
" transform="scale(0.015625)"/>
     <path id="DejaVuSans-Bold-31" d="M 750 831 
L 1813 831 
L 1813 3847 
L 722 3622 
L 722 4441 
L 1806 4666 
L 2950 4666 
L 2950 831 
L 4013 831 
L 4013 0 
L 750 0 
L 750 831 
z
" transform="scale(0.015625)"/>
     <path id="DejaVuSans-Bold-28" d="M 2413 -844 
L 1484 -844 
Q 1006 -72 778 623 
Q 550 1319 550 2003 
Q 550 2688 779 3389 
Q 1009 4091 1484 4856 
L 2413 4856 
Q 2013 4116 1813 3408 
Q 1613 2700 1613 2009 
Q 1613 1319 1811 609 
Q 2009 -100 2413 -844 
z
" transform="scale(0.015625)"/>
     <path id="DejaVuSans-Bold-44" d="M 1791 3756 
L 1791 909 
L 2222 909 
Q 2959 909 3348 1275 
Q 3738 1641 3738 2338 
Q 3738 3031 3350 3393 
Q 2963 3756 2222 3756 
L 1791 3756 
z
M 588 4666 
L 1856 4666 
Q 2919 4666 3439 4514 
Q 3959 4363 4331 4000 
Q 4659 3684 4818 3271 
Q 4978 2859 4978 2338 
Q 4978 1809 4818 1395 
Q 4659 981 4331 666 
Q 3956 303 3431 151 
Q 2906 0 1856 0 
L 588 0 
L 588 4666 
z
" transform="scale(0.015625)"/>
     <path id="DejaVuSans-Bold-69" d="M 538 3500 
L 1656 3500 
L 1656 0 
L 538 0 
L 538 3500 
z
M 538 4863 
L 1656 4863 
L 1656 3950 
L 538 3950 
L 538 4863 
z
" transform="scale(0.015625)"/>
     <path id="DejaVuSans-Bold-63" d="M 3366 3391 
L 3366 2478 
Q 3138 2634 2908 2709 
Q 2678 2784 2431 2784 
Q 1963 2784 1702 2511 
Q 1441 2238 1441 1747 
Q 1441 1256 1702 982 
Q 1963 709 2431 709 
Q 2694 709 2930 787 
Q 3166 866 3366 1019 
L 3366 103 
Q 3103 6 2833 -42 
Q 2563 -91 2291 -91 
Q 1344 -91 809 395 
Q 275 881 275 1747 
Q 275 2613 809 3098 
Q 1344 3584 2291 3584 
Q 2566 3584 2833 3536 
Q 3100 3488 3366 3391 
z
" transform="scale(0.015625)"/>
     <path id="DejaVuSans-Bold-74" d="M 1759 4494 
L 1759 3500 
L 2913 3500 
L 2913 2700 
L 1759 2700 
L 1759 1216 
Q 1759 972 1856 886 
Q 1953 800 2241 800 
L 2816 800 
L 2816 0 
L 1856 0 
Q 1194 0 917 276 
Q 641 553 641 1216 
L 641 2700 
L 84 2700 
L 84 3500 
L 641 3500 
L 641 4494 
L 1759 4494 
z
" transform="scale(0.015625)"/>
     <path id="DejaVuSans-Bold-7a" d="M 366 3500 
L 3419 3500 
L 3419 2719 
L 1575 800 
L 3419 800 
L 3419 0 
L 288 0 
L 288 781 
L 2131 2700 
L 366 2700 
L 366 3500 
z
" transform="scale(0.015625)"/>
     <path id="DejaVuSans-Bold-29" d="M 513 -844 
Q 913 -100 1113 609 
Q 1313 1319 1313 2009 
Q 1313 2700 1113 3408 
Q 913 4116 513 4856 
L 1441 4856 
Q 1916 4091 2145 3389 
Q 2375 2688 2375 2003 
Q 2375 1319 2147 623 
Q 1919 -72 1441 -844 
L 513 -844 
z
" transform="scale(0.015625)"/>
     <path id="DejaVuSans-Bold-47" d="M 4781 347 
Q 4331 128 3847 18 
Q 3363 -91 2847 -91 
Q 1681 -91 1000 561 
Q 319 1213 319 2328 
Q 319 3456 1012 4103 
Q 1706 4750 2913 4750 
Q 3378 4750 3804 4662 
Q 4231 4575 4609 4403 
L 4609 3438 
Q 4219 3659 3833 3768 
Q 3447 3878 3059 3878 
Q 2341 3878 1952 3476 
Q 1563 3075 1563 2328 
Q 1563 1588 1938 1184 
Q 2313 781 3003 781 
Q 3191 781 3352 804 
Q 3513 828 3641 878 
L 3641 1784 
L 2906 1784 
L 2906 2591 
L 4781 2591 
L 4781 347 
z
" transform="scale(0.015625)"/>
     <path id="DejaVuSans-Bold-4e" d="M 588 4666 
L 1931 4666 
L 3628 1466 
L 3628 4666 
L 4769 4666 
L 4769 0 
L 3425 0 
L 1728 3200 
L 1728 0 
L 588 0 
L 588 4666 
z
" transform="scale(0.015625)"/>
     <path id="DejaVuSans-Bold-5f" d="M 3200 -916 
L 3200 -1509 
L 0 -1509 
L 0 -916 
L 3200 -916 
z
" transform="scale(0.015625)"/>
     <path id="DejaVuSans-Bold-4b" d="M 588 4666 
L 1791 4666 
L 1791 2963 
L 3525 4666 
L 4922 4666 
L 2675 2456 
L 5153 0 
L 3647 0 
L 1791 1838 
L 1791 0 
L 588 0 
L 588 4666 
z
" transform="scale(0.015625)"/>
    </defs>
    <use xlink:href="#DejaVuSans-Bold-52"/>
    <use xlink:href="#DejaVuSans-Bold-65" transform="translate(77.001953 0)"/>
    <use xlink:href="#DejaVuSans-Bold-77" transform="translate(144.824219 0)"/>
    <use xlink:href="#DejaVuSans-Bold-61" transform="translate(237.207031 0)"/>
    <use xlink:href="#DejaVuSans-Bold-72" transform="translate(304.6875 0)"/>
    <use xlink:href="#DejaVuSans-Bold-64" transform="translate(354.003906 0)"/>
    <use xlink:href="#DejaVuSans-Bold-73" transform="translate(425.585938 0)"/>
    <use xlink:href="#DejaVuSans-Bold-3a" transform="translate(485.107422 0)"/>
    <use xlink:href="#DejaVuSans-Bold-20" transform="translate(525.097656 0)"/>
    <use xlink:href="#DejaVuSans-Bold-50" transform="translate(559.912109 0)"/>
    <use xlink:href="#DejaVuSans-Bold-65" transform="translate(633.203125 0)"/>
    <use xlink:href="#DejaVuSans-Bold-6e" transform="translate(701.025391 0)"/>
    <use xlink:href="#DejaVuSans-Bold-64" transform="translate(772.216797 0)"/>
    <use xlink:href="#DejaVuSans-Bold-75" transform="translate(843.798828 0)"/>
    <use xlink:href="#DejaVuSans-Bold-6c" transform="translate(914.990234 0)"/>
    <use xlink:href="#DejaVuSans-Bold-75" transform="translate(949.267578 0)"/>
    <use xlink:href="#DejaVuSans-Bold-6d" transform="translate(1020.458984 0)"/>
    <use xlink:href="#DejaVuSans-Bold-2d" transform="translate(1124.658203 0)"/>
    <use xlink:href="#DejaVuSans-Bold-76" transform="translate(1166.162109 0)"/>
    <use xlink:href="#DejaVuSans-Bold-31" transform="translate(1231.347656 0)"/>
    <use xlink:href="#DejaVuSans-Bold-20" transform="translate(1300.927734 0)"/>
    <use xlink:href="#DejaVuSans-Bold-28" transform="translate(1335.742188 0)"/>
    <use xlink:href="#DejaVuSans-Bold-44" transform="translate(1381.445312 0)"/>
    <use xlink:href="#DejaVuSans-Bold-69" transform="translate(1464.453125 0)"/>
    <use xlink:href="#DejaVuSans-Bold-73" transform="translate(1498.730469 0)"/>
    <use xlink:href="#DejaVuSans-Bold-63" transform="translate(1558.251953 0)"/>
    <use xlink:href="#DejaVuSans-Bold-72" transform="translate(1617.529297 0)"/>
    <use xlink:href="#DejaVuSans-Bold-65" transform="translate(1666.845703 0)"/>
    <use xlink:href="#DejaVuSans-Bold-74" transform="translate(1734.667969 0)"/>
    <use xlink:href="#DejaVuSans-Bold-69" transform="translate(1782.470703 0)"/>
    <use xlink:href="#DejaVuSans-Bold-7a" transform="translate(1816.748047 0)"/>
    <use xlink:href="#DejaVuSans-Bold-65" transform="translate(1874.951172 0)"/>
    <use xlink:href="#DejaVuSans-Bold-64" transform="translate(1942.773438 0)"/>
    <use xlink:href="#DejaVuSans-Bold-29" transform="translate(2014.355469 0)"/>
    <use xlink:href="#DejaVuSans-Bold-20" transform="translate(2060.058594 0)"/>
    <use xlink:href="#DejaVuSans-Bold-28" transform="translate(2094.873047 0)"/>
    <use xlink:href="#DejaVuSans-Bold-47" transform="translate(2140.576172 0)"/>
    <use xlink:href="#DejaVuSans-Bold-4e" transform="translate(2222.65625 0)"/>
    <use xlink:href="#DejaVuSans-Bold-4e" transform="translate(2306.347656 0)"/>
    <use xlink:href="#DejaVuSans-Bold-5f" transform="translate(2390.039062 0)"/>
    <use xlink:href="#DejaVuSans-Bold-4b" transform="translate(2440.039062 0)"/>
    <use xlink:href="#DejaVuSans-Bold-2d" transform="translate(2508.779297 0)"/>
    <use xlink:href="#DejaVuSans-Bold-4e" transform="translate(2550.283203 0)"/>
    <use xlink:href="#DejaVuSans-Bold-65" transform="translate(2633.974609 0)"/>
    <use xlink:href="#DejaVuSans-Bold-74" transform="translate(2701.796875 0)"/>
    <use xlink:href="#DejaVuSans-Bold-29" transform="translate(2749.599609 0)"/>
   </g>
  </g>
 </g>
 <defs>
  <clipPath id="p41a2bd46b4">
   <rect x="65.63" y="63.659" width="543.31" height="326.381"/>
  </clipPath>
 </defs>
</svg>
