<?xml version="1.0" encoding="utf-8" standalone="no"?>
<!DOCTYPE svg PUBLIC "-//W3C//DTD SVG 1.1//EN"
  "http://www.w3.org/Graphics/SVG/1.1/DTD/svg11.dtd">
<svg xmlns:xlink="http://www.w3.org/1999/xlink" width="648pt" height="432pt" viewBox="0 0 648 432" xmlns="http://www.w3.org/2000/svg" version="1.1">
 <metadata>
  <rdf:RDF xmlns:dc="http://purl.org/dc/elements/1.1/" xmlns:cc="http://creativecommons.org/ns#" xmlns:rdf="http://www.w3.org/1999/02/22-rdf-syntax-ns#">
   <cc:Work>
    <dc:type rdf:resource="http://purl.org/dc/dcmitype/StillImage"/>
    <dc:date>2025-07-27T14:37:21.367414</dc:date>
    <dc:format>image/svg+xml</dc:format>
    <dc:creator>
     <cc:Agent>
      <dc:title>Matplotlib v3.10.0, https://matplotlib.org/</dc:title>
     </cc:Agent>
    </dc:creator>
   </cc:Work>
  </rdf:RDF>
 </metadata>
 <defs>
  <style type="text/css">*{stroke-linejoin: round; stroke-linecap: butt}</style>
 </defs>
 <g id="figure_1">
  <g id="patch_1">
   <path d="M 0 432 
L 648 432 
L 648 0 
L 0 0 
z
" style="fill: #ffffff"/>
  </g>
  <g id="axes_1">
   <g id="patch_2">
    <path d="M 65.63 390.04 
L 637.2 390.04 
L 637.2 57.0062 
L 65.63 57.0062 
z
" style="fill: #eaeaf2"/>
   </g>
   <g id="matplotlib.axis_1">
    <g id="xtick_1">
     <g id="line2d_1">
      <path d="M 65.630837 390.04 
L 65.630837 57.0062 
" clip-path="url(#peddc999d49)" style="fill: none; stroke: #ffffff; stroke-width: 0.8; stroke-linecap: round"/>
     </g>
     <g id="text_1">
      <!-- 0.00 -->
      <g style="fill: #262626" transform="translate(54.498025 404.638438) scale(0.1 -0.1)">
       <defs>
        <path id="DejaVuSans-30" d="M 2034 4250 
Q 1547 4250 1301 3770 
Q 1056 3291 1056 2328 
Q 1056 1369 1301 889 
Q 1547 409 2034 409 
Q 2525 409 2770 889 
Q 3016 1369 3016 2328 
Q 3016 3291 2770 3770 
Q 2525 4250 2034 4250 
z
M 2034 4750 
Q 2819 4750 3233 4129 
Q 3647 3509 3647 2328 
Q 3647 1150 3233 529 
Q 2819 -91 2034 -91 
Q 1250 -91 836 529 
Q 422 1150 422 2328 
Q 422 3509 836 4129 
Q 1250 4750 2034 4750 
z
" transform="scale(0.015625)"/>
        <path id="DejaVuSans-2e" d="M 684 794 
L 1344 794 
L 1344 0 
L 684 0 
L 684 794 
z
" transform="scale(0.015625)"/>
       </defs>
       <use xlink:href="#DejaVuSans-30"/>
       <use xlink:href="#DejaVuSans-2e" transform="translate(63.623047 0)"/>
       <use xlink:href="#DejaVuSans-30" transform="translate(95.410156 0)"/>
       <use xlink:href="#DejaVuSans-30" transform="translate(159.033203 0)"/>
      </g>
     </g>
    </g>
    <g id="xtick_2">
     <g id="line2d_2">
      <path d="M 135.402361 390.04 
L 135.402361 57.0062 
" clip-path="url(#peddc999d49)" style="fill: none; stroke: #ffffff; stroke-width: 0.8; stroke-linecap: round"/>
     </g>
     <g id="text_2">
      <!-- 0.25 -->
      <g style="fill: #262626" transform="translate(124.269549 404.638438) scale(0.1 -0.1)">
       <defs>
        <path id="DejaVuSans-32" d="M 1228 531 
L 3431 531 
L 3431 0 
L 469 0 
L 469 531 
Q 828 903 1448 1529 
Q 2069 2156 2228 2338 
Q 2531 2678 2651 2914 
Q 2772 3150 2772 3378 
Q 2772 3750 2511 3984 
Q 2250 4219 1831 4219 
Q 1534 4219 1204 4116 
Q 875 4013 500 3803 
L 500 4441 
Q 881 4594 1212 4672 
Q 1544 4750 1819 4750 
Q 2544 4750 2975 4387 
Q 3406 4025 3406 3419 
Q 3406 3131 3298 2873 
Q 3191 2616 2906 2266 
Q 2828 2175 2409 1742 
Q 1991 1309 1228 531 
z
" transform="scale(0.015625)"/>
        <path id="DejaVuSans-35" d="M 691 4666 
L 3169 4666 
L 3169 4134 
L 1269 4134 
L 1269 2991 
Q 1406 3038 1543 3061 
Q 1681 3084 1819 3084 
Q 2600 3084 3056 2656 
Q 3513 2228 3513 1497 
Q 3513 744 3044 326 
Q 2575 -91 1722 -91 
Q 1428 -91 1123 -41 
Q 819 9 494 109 
L 494 744 
Q 775 591 1075 516 
Q 1375 441 1709 441 
Q 2250 441 2565 725 
Q 2881 1009 2881 1497 
Q 2881 1984 2565 2268 
Q 2250 2553 1709 2553 
Q 1456 2553 1204 2497 
Q 953 2441 691 2322 
L 691 4666 
z
" transform="scale(0.015625)"/>
       </defs>
       <use xlink:href="#DejaVuSans-30"/>
       <use xlink:href="#DejaVuSans-2e" transform="translate(63.623047 0)"/>
       <use xlink:href="#DejaVuSans-32" transform="translate(95.410156 0)"/>
       <use xlink:href="#DejaVuSans-35" transform="translate(159.033203 0)"/>
      </g>
     </g>
    </g>
    <g id="xtick_3">
     <g id="line2d_3">
      <path d="M 205.173885 390.04 
L 205.173885 57.0062 
" clip-path="url(#peddc999d49)" style="fill: none; stroke: #ffffff; stroke-width: 0.8; stroke-linecap: round"/>
     </g>
     <g id="text_3">
      <!-- 0.50 -->
      <g style="fill: #262626" transform="translate(194.041073 404.638438) scale(0.1 -0.1)">
       <use xlink:href="#DejaVuSans-30"/>
       <use xlink:href="#DejaVuSans-2e" transform="translate(63.623047 0)"/>
       <use xlink:href="#DejaVuSans-35" transform="translate(95.410156 0)"/>
       <use xlink:href="#DejaVuSans-30" transform="translate(159.033203 0)"/>
      </g>
     </g>
    </g>
    <g id="xtick_4">
     <g id="line2d_4">
      <path d="M 274.94541 390.04 
L 274.94541 57.0062 
" clip-path="url(#peddc999d49)" style="fill: none; stroke: #ffffff; stroke-width: 0.8; stroke-linecap: round"/>
     </g>
     <g id="text_4">
      <!-- 0.75 -->
      <g style="fill: #262626" transform="translate(263.812597 404.638438) scale(0.1 -0.1)">
       <defs>
        <path id="DejaVuSans-37" d="M 525 4666 
L 3525 4666 
L 3525 4397 
L 1831 0 
L 1172 0 
L 2766 4134 
L 525 4134 
L 525 4666 
z
" transform="scale(0.015625)"/>
       </defs>
       <use xlink:href="#DejaVuSans-30"/>
       <use xlink:href="#DejaVuSans-2e" transform="translate(63.623047 0)"/>
       <use xlink:href="#DejaVuSans-37" transform="translate(95.410156 0)"/>
       <use xlink:href="#DejaVuSans-35" transform="translate(159.033203 0)"/>
      </g>
     </g>
    </g>
    <g id="xtick_5">
     <g id="line2d_5">
      <path d="M 344.716934 390.04 
L 344.716934 57.0062 
" clip-path="url(#peddc999d49)" style="fill: none; stroke: #ffffff; stroke-width: 0.8; stroke-linecap: round"/>
     </g>
     <g id="text_5">
      <!-- 1.00 -->
      <g style="fill: #262626" transform="translate(333.584121 404.638438) scale(0.1 -0.1)">
       <defs>
        <path id="DejaVuSans-31" d="M 794 531 
L 1825 531 
L 1825 4091 
L 703 3866 
L 703 4441 
L 1819 4666 
L 2450 4666 
L 2450 531 
L 3481 531 
L 3481 0 
L 794 0 
L 794 531 
z
" transform="scale(0.015625)"/>
       </defs>
       <use xlink:href="#DejaVuSans-31"/>
       <use xlink:href="#DejaVuSans-2e" transform="translate(63.623047 0)"/>
       <use xlink:href="#DejaVuSans-30" transform="translate(95.410156 0)"/>
       <use xlink:href="#DejaVuSans-30" transform="translate(159.033203 0)"/>
      </g>
     </g>
    </g>
    <g id="xtick_6">
     <g id="line2d_6">
      <path d="M 414.488458 390.04 
L 414.488458 57.0062 
" clip-path="url(#peddc999d49)" style="fill: none; stroke: #ffffff; stroke-width: 0.8; stroke-linecap: round"/>
     </g>
     <g id="text_6">
      <!-- 1.25 -->
      <g style="fill: #262626" transform="translate(403.355645 404.638438) scale(0.1 -0.1)">
       <use xlink:href="#DejaVuSans-31"/>
       <use xlink:href="#DejaVuSans-2e" transform="translate(63.623047 0)"/>
       <use xlink:href="#DejaVuSans-32" transform="translate(95.410156 0)"/>
       <use xlink:href="#DejaVuSans-35" transform="translate(159.033203 0)"/>
      </g>
     </g>
    </g>
    <g id="xtick_7">
     <g id="line2d_7">
      <path d="M 484.259982 390.04 
L 484.259982 57.0062 
" clip-path="url(#peddc999d49)" style="fill: none; stroke: #ffffff; stroke-width: 0.8; stroke-linecap: round"/>
     </g>
     <g id="text_7">
      <!-- 1.50 -->
      <g style="fill: #262626" transform="translate(473.127169 404.638438) scale(0.1 -0.1)">
       <use xlink:href="#DejaVuSans-31"/>
       <use xlink:href="#DejaVuSans-2e" transform="translate(63.623047 0)"/>
       <use xlink:href="#DejaVuSans-35" transform="translate(95.410156 0)"/>
       <use xlink:href="#DejaVuSans-30" transform="translate(159.033203 0)"/>
      </g>
     </g>
    </g>
    <g id="xtick_8">
     <g id="line2d_8">
      <path d="M 554.031506 390.04 
L 554.031506 57.0062 
" clip-path="url(#peddc999d49)" style="fill: none; stroke: #ffffff; stroke-width: 0.8; stroke-linecap: round"/>
     </g>
     <g id="text_8">
      <!-- 1.75 -->
      <g style="fill: #262626" transform="translate(542.898694 404.638438) scale(0.1 -0.1)">
       <use xlink:href="#DejaVuSans-31"/>
       <use xlink:href="#DejaVuSans-2e" transform="translate(63.623047 0)"/>
       <use xlink:href="#DejaVuSans-37" transform="translate(95.410156 0)"/>
       <use xlink:href="#DejaVuSans-35" transform="translate(159.033203 0)"/>
      </g>
     </g>
    </g>
    <g id="xtick_9">
     <g id="line2d_9">
      <path d="M 623.80303 390.04 
L 623.80303 57.0062 
" clip-path="url(#peddc999d49)" style="fill: none; stroke: #ffffff; stroke-width: 0.8; stroke-linecap: round"/>
     </g>
     <g id="text_9">
      <!-- 2.00 -->
      <g style="fill: #262626" transform="translate(612.670218 404.638438) scale(0.1 -0.1)">
       <use xlink:href="#DejaVuSans-32"/>
       <use xlink:href="#DejaVuSans-2e" transform="translate(63.623047 0)"/>
       <use xlink:href="#DejaVuSans-30" transform="translate(95.410156 0)"/>
       <use xlink:href="#DejaVuSans-30" transform="translate(159.033203 0)"/>
      </g>
     </g>
    </g>
    <g id="text_10">
     <!-- Steps -->
     <g style="fill: #262626" transform="translate(337.425156 418.316562) scale(0.1 -0.1)">
      <defs>
       <path id="DejaVuSans-53" d="M 3425 4513 
L 3425 3897 
Q 3066 4069 2747 4153 
Q 2428 4238 2131 4238 
Q 1616 4238 1336 4038 
Q 1056 3838 1056 3469 
Q 1056 3159 1242 3001 
Q 1428 2844 1947 2747 
L 2328 2669 
Q 3034 2534 3370 2195 
Q 3706 1856 3706 1288 
Q 3706 609 3251 259 
Q 2797 -91 1919 -91 
Q 1588 -91 1214 -16 
Q 841 59 441 206 
L 441 856 
Q 825 641 1194 531 
Q 1563 422 1919 422 
Q 2459 422 2753 634 
Q 3047 847 3047 1241 
Q 3047 1584 2836 1778 
Q 2625 1972 2144 2069 
L 1759 2144 
Q 1053 2284 737 2584 
Q 422 2884 422 3419 
Q 422 4038 858 4394 
Q 1294 4750 2059 4750 
Q 2388 4750 2728 4690 
Q 3069 4631 3425 4513 
z
" transform="scale(0.015625)"/>
       <path id="DejaVuSans-74" d="M 1172 4494 
L 1172 3500 
L 2356 3500 
L 2356 3053 
L 1172 3053 
L 1172 1153 
Q 1172 725 1289 603 
Q 1406 481 1766 481 
L 2356 481 
L 2356 0 
L 1766 0 
Q 1100 0 847 248 
Q 594 497 594 1153 
L 594 3053 
L 172 3053 
L 172 3500 
L 594 3500 
L 594 4494 
L 1172 4494 
z
" transform="scale(0.015625)"/>
       <path id="DejaVuSans-65" d="M 3597 1894 
L 3597 1613 
L 953 1613 
Q 991 1019 1311 708 
Q 1631 397 2203 397 
Q 2534 397 2845 478 
Q 3156 559 3463 722 
L 3463 178 
Q 3153 47 2828 -22 
Q 2503 -91 2169 -91 
Q 1331 -91 842 396 
Q 353 884 353 1716 
Q 353 2575 817 3079 
Q 1281 3584 2069 3584 
Q 2775 3584 3186 3129 
Q 3597 2675 3597 1894 
z
M 3022 2063 
Q 3016 2534 2758 2815 
Q 2500 3097 2075 3097 
Q 1594 3097 1305 2825 
Q 1016 2553 972 2059 
L 3022 2063 
z
" transform="scale(0.015625)"/>
       <path id="DejaVuSans-70" d="M 1159 525 
L 1159 -1331 
L 581 -1331 
L 581 3500 
L 1159 3500 
L 1159 2969 
Q 1341 3281 1617 3432 
Q 1894 3584 2278 3584 
Q 2916 3584 3314 3078 
Q 3713 2572 3713 1747 
Q 3713 922 3314 415 
Q 2916 -91 2278 -91 
Q 1894 -91 1617 61 
Q 1341 213 1159 525 
z
M 3116 1747 
Q 3116 2381 2855 2742 
Q 2594 3103 2138 3103 
Q 1681 3103 1420 2742 
Q 1159 2381 1159 1747 
Q 1159 1113 1420 752 
Q 1681 391 2138 391 
Q 2594 391 2855 752 
Q 3116 1113 3116 1747 
z
" transform="scale(0.015625)"/>
       <path id="DejaVuSans-73" d="M 2834 3397 
L 2834 2853 
Q 2591 2978 2328 3040 
Q 2066 3103 1784 3103 
Q 1356 3103 1142 2972 
Q 928 2841 928 2578 
Q 928 2378 1081 2264 
Q 1234 2150 1697 2047 
L 1894 2003 
Q 2506 1872 2764 1633 
Q 3022 1394 3022 966 
Q 3022 478 2636 193 
Q 2250 -91 1575 -91 
Q 1294 -91 989 -36 
Q 684 19 347 128 
L 347 722 
Q 666 556 975 473 
Q 1284 391 1588 391 
Q 1994 391 2212 530 
Q 2431 669 2431 922 
Q 2431 1156 2273 1281 
Q 2116 1406 1581 1522 
L 1381 1569 
Q 847 1681 609 1914 
Q 372 2147 372 2553 
Q 372 3047 722 3315 
Q 1072 3584 1716 3584 
Q 2034 3584 2315 3537 
Q 2597 3491 2834 3397 
z
" transform="scale(0.015625)"/>
      </defs>
      <use xlink:href="#DejaVuSans-53"/>
      <use xlink:href="#DejaVuSans-74" transform="translate(63.476562 0)"/>
      <use xlink:href="#DejaVuSans-65" transform="translate(102.685547 0)"/>
      <use xlink:href="#DejaVuSans-70" transform="translate(164.208984 0)"/>
      <use xlink:href="#DejaVuSans-73" transform="translate(227.685547 0)"/>
     </g>
    </g>
    <g id="text_11">
     <!-- 1e6 -->
     <g style="fill: #262626" transform="translate(618.321875 417.316562) scale(0.1 -0.1)">
      <defs>
       <path id="DejaVuSans-36" d="M 2113 2584 
Q 1688 2584 1439 2293 
Q 1191 2003 1191 1497 
Q 1191 994 1439 701 
Q 1688 409 2113 409 
Q 2538 409 2786 701 
Q 3034 994 3034 1497 
Q 3034 2003 2786 2293 
Q 2538 2584 2113 2584 
z
M 3366 4563 
L 3366 3988 
Q 3128 4100 2886 4159 
Q 2644 4219 2406 4219 
Q 1781 4219 1451 3797 
Q 1122 3375 1075 2522 
Q 1259 2794 1537 2939 
Q 1816 3084 2150 3084 
Q 2853 3084 3261 2657 
Q 3669 2231 3669 1497 
Q 3669 778 3244 343 
Q 2819 -91 2113 -91 
Q 1303 -91 875 529 
Q 447 1150 447 2328 
Q 447 3434 972 4092 
Q 1497 4750 2381 4750 
Q 2619 4750 2861 4703 
Q 3103 4656 3366 4563 
z
" transform="scale(0.015625)"/>
      </defs>
      <use xlink:href="#DejaVuSans-31"/>
      <use xlink:href="#DejaVuSans-65" transform="translate(63.623047 0)"/>
      <use xlink:href="#DejaVuSans-36" transform="translate(125.146484 0)"/>
     </g>
    </g>
   </g>
   <g id="matplotlib.axis_2">
    <g id="ytick_1">
     <g id="line2d_10">
      <path d="M 65.63 390.04 
L 637.2 390.04 
" clip-path="url(#peddc999d49)" style="fill: none; stroke: #ffffff; stroke-width: 0.8; stroke-linecap: round"/>
     </g>
     <g id="text_12">
      <!-- −1600 -->
      <g style="fill: #262626" transform="translate(24.800313 393.839219) scale(0.1 -0.1)">
       <defs>
        <path id="DejaVuSans-2212" d="M 678 2272 
L 4684 2272 
L 4684 1741 
L 678 1741 
L 678 2272 
z
" transform="scale(0.015625)"/>
       </defs>
       <use xlink:href="#DejaVuSans-2212"/>
       <use xlink:href="#DejaVuSans-31" transform="translate(83.789062 0)"/>
       <use xlink:href="#DejaVuSans-36" transform="translate(147.412109 0)"/>
       <use xlink:href="#DejaVuSans-30" transform="translate(211.035156 0)"/>
       <use xlink:href="#DejaVuSans-30" transform="translate(274.658203 0)"/>
      </g>
     </g>
    </g>
    <g id="ytick_2">
     <g id="line2d_11">
      <path d="M 65.63 348.410775 
L 637.2 348.410775 
" clip-path="url(#peddc999d49)" style="fill: none; stroke: #ffffff; stroke-width: 0.8; stroke-linecap: round"/>
     </g>
     <g id="text_13">
      <!-- −1400 -->
      <g style="fill: #262626" transform="translate(24.800313 352.209994) scale(0.1 -0.1)">
       <defs>
        <path id="DejaVuSans-34" d="M 2419 4116 
L 825 1625 
L 2419 1625 
L 2419 4116 
z
M 2253 4666 
L 3047 4666 
L 3047 1625 
L 3713 1625 
L 3713 1100 
L 3047 1100 
L 3047 0 
L 2419 0 
L 2419 1100 
L 313 1100 
L 313 1709 
L 2253 4666 
z
" transform="scale(0.015625)"/>
       </defs>
       <use xlink:href="#DejaVuSans-2212"/>
       <use xlink:href="#DejaVuSans-31" transform="translate(83.789062 0)"/>
       <use xlink:href="#DejaVuSans-34" transform="translate(147.412109 0)"/>
       <use xlink:href="#DejaVuSans-30" transform="translate(211.035156 0)"/>
       <use xlink:href="#DejaVuSans-30" transform="translate(274.658203 0)"/>
      </g>
     </g>
    </g>
    <g id="ytick_3">
     <g id="line2d_12">
      <path d="M 65.63 306.78155 
L 637.2 306.78155 
" clip-path="url(#peddc999d49)" style="fill: none; stroke: #ffffff; stroke-width: 0.8; stroke-linecap: round"/>
     </g>
     <g id="text_14">
      <!-- −1200 -->
      <g style="fill: #262626" transform="translate(24.800313 310.580769) scale(0.1 -0.1)">
       <use xlink:href="#DejaVuSans-2212"/>
       <use xlink:href="#DejaVuSans-31" transform="translate(83.789062 0)"/>
       <use xlink:href="#DejaVuSans-32" transform="translate(147.412109 0)"/>
       <use xlink:href="#DejaVuSans-30" transform="translate(211.035156 0)"/>
       <use xlink:href="#DejaVuSans-30" transform="translate(274.658203 0)"/>
      </g>
     </g>
    </g>
    <g id="ytick_4">
     <g id="line2d_13">
      <path d="M 65.63 265.152325 
L 637.2 265.152325 
" clip-path="url(#peddc999d49)" style="fill: none; stroke: #ffffff; stroke-width: 0.8; stroke-linecap: round"/>
     </g>
     <g id="text_15">
      <!-- −1000 -->
      <g style="fill: #262626" transform="translate(24.800313 268.951544) scale(0.1 -0.1)">
       <use xlink:href="#DejaVuSans-2212"/>
       <use xlink:href="#DejaVuSans-31" transform="translate(83.789062 0)"/>
       <use xlink:href="#DejaVuSans-30" transform="translate(147.412109 0)"/>
       <use xlink:href="#DejaVuSans-30" transform="translate(211.035156 0)"/>
       <use xlink:href="#DejaVuSans-30" transform="translate(274.658203 0)"/>
      </g>
     </g>
    </g>
    <g id="ytick_5">
     <g id="line2d_14">
      <path d="M 65.63 223.5231 
L 637.2 223.5231 
" clip-path="url(#peddc999d49)" style="fill: none; stroke: #ffffff; stroke-width: 0.8; stroke-linecap: round"/>
     </g>
     <g id="text_16">
      <!-- −800 -->
      <g style="fill: #262626" transform="translate(31.162813 227.322319) scale(0.1 -0.1)">
       <defs>
        <path id="DejaVuSans-38" d="M 2034 2216 
Q 1584 2216 1326 1975 
Q 1069 1734 1069 1313 
Q 1069 891 1326 650 
Q 1584 409 2034 409 
Q 2484 409 2743 651 
Q 3003 894 3003 1313 
Q 3003 1734 2745 1975 
Q 2488 2216 2034 2216 
z
M 1403 2484 
Q 997 2584 770 2862 
Q 544 3141 544 3541 
Q 544 4100 942 4425 
Q 1341 4750 2034 4750 
Q 2731 4750 3128 4425 
Q 3525 4100 3525 3541 
Q 3525 3141 3298 2862 
Q 3072 2584 2669 2484 
Q 3125 2378 3379 2068 
Q 3634 1759 3634 1313 
Q 3634 634 3220 271 
Q 2806 -91 2034 -91 
Q 1263 -91 848 271 
Q 434 634 434 1313 
Q 434 1759 690 2068 
Q 947 2378 1403 2484 
z
M 1172 3481 
Q 1172 3119 1398 2916 
Q 1625 2713 2034 2713 
Q 2441 2713 2670 2916 
Q 2900 3119 2900 3481 
Q 2900 3844 2670 4047 
Q 2441 4250 2034 4250 
Q 1625 4250 1398 4047 
Q 1172 3844 1172 3481 
z
" transform="scale(0.015625)"/>
       </defs>
       <use xlink:href="#DejaVuSans-2212"/>
       <use xlink:href="#DejaVuSans-38" transform="translate(83.789062 0)"/>
       <use xlink:href="#DejaVuSans-30" transform="translate(147.412109 0)"/>
       <use xlink:href="#DejaVuSans-30" transform="translate(211.035156 0)"/>
      </g>
     </g>
    </g>
    <g id="ytick_6">
     <g id="line2d_15">
      <path d="M 65.63 181.893875 
L 637.2 181.893875 
" clip-path="url(#peddc999d49)" style="fill: none; stroke: #ffffff; stroke-width: 0.8; stroke-linecap: round"/>
     </g>
     <g id="text_17">
      <!-- −600 -->
      <g style="fill: #262626" transform="translate(31.162813 185.693094) scale(0.1 -0.1)">
       <use xlink:href="#DejaVuSans-2212"/>
       <use xlink:href="#DejaVuSans-36" transform="translate(83.789062 0)"/>
       <use xlink:href="#DejaVuSans-30" transform="translate(147.412109 0)"/>
       <use xlink:href="#DejaVuSans-30" transform="translate(211.035156 0)"/>
      </g>
     </g>
    </g>
    <g id="ytick_7">
     <g id="line2d_16">
      <path d="M 65.63 140.26465 
L 637.2 140.26465 
" clip-path="url(#peddc999d49)" style="fill: none; stroke: #ffffff; stroke-width: 0.8; stroke-linecap: round"/>
     </g>
     <g id="text_18">
      <!-- −400 -->
      <g style="fill: #262626" transform="translate(31.162813 144.063869) scale(0.1 -0.1)">
       <use xlink:href="#DejaVuSans-2212"/>
       <use xlink:href="#DejaVuSans-34" transform="translate(83.789062 0)"/>
       <use xlink:href="#DejaVuSans-30" transform="translate(147.412109 0)"/>
       <use xlink:href="#DejaVuSans-30" transform="translate(211.035156 0)"/>
      </g>
     </g>
    </g>
    <g id="ytick_8">
     <g id="line2d_17">
      <path d="M 65.63 98.635425 
L 637.2 98.635425 
" clip-path="url(#peddc999d49)" style="fill: none; stroke: #ffffff; stroke-width: 0.8; stroke-linecap: round"/>
     </g>
     <g id="text_19">
      <!-- −200 -->
      <g style="fill: #262626" transform="translate(31.162813 102.434644) scale(0.1 -0.1)">
       <use xlink:href="#DejaVuSans-2212"/>
       <use xlink:href="#DejaVuSans-32" transform="translate(83.789062 0)"/>
       <use xlink:href="#DejaVuSans-30" transform="translate(147.412109 0)"/>
       <use xlink:href="#DejaVuSans-30" transform="translate(211.035156 0)"/>
      </g>
     </g>
    </g>
    <g id="ytick_9">
     <g id="line2d_18">
      <path d="M 65.63 57.0062 
L 637.2 57.0062 
" clip-path="url(#peddc999d49)" style="fill: none; stroke: #ffffff; stroke-width: 0.8; stroke-linecap: round"/>
     </g>
     <g id="text_20">
      <!-- 0 -->
      <g style="fill: #262626" transform="translate(52.2675 60.805419) scale(0.1 -0.1)">
       <use xlink:href="#DejaVuSans-30"/>
      </g>
     </g>
    </g>
    <g id="text_21">
     <!-- Reward -->
     <g style="fill: #262626" transform="translate(18.720625 242.144194) rotate(-90) scale(0.1 -0.1)">
      <defs>
       <path id="DejaVuSans-52" d="M 2841 2188 
Q 3044 2119 3236 1894 
Q 3428 1669 3622 1275 
L 4263 0 
L 3584 0 
L 2988 1197 
Q 2756 1666 2539 1819 
Q 2322 1972 1947 1972 
L 1259 1972 
L 1259 0 
L 628 0 
L 628 4666 
L 2053 4666 
Q 2853 4666 3247 4331 
Q 3641 3997 3641 3322 
Q 3641 2881 3436 2590 
Q 3231 2300 2841 2188 
z
M 1259 4147 
L 1259 2491 
L 2053 2491 
Q 2509 2491 2742 2702 
Q 2975 2913 2975 3322 
Q 2975 3731 2742 3939 
Q 2509 4147 2053 4147 
L 1259 4147 
z
" transform="scale(0.015625)"/>
       <path id="DejaVuSans-77" d="M 269 3500 
L 844 3500 
L 1563 769 
L 2278 3500 
L 2956 3500 
L 3675 769 
L 4391 3500 
L 4966 3500 
L 4050 0 
L 3372 0 
L 2619 2869 
L 1863 0 
L 1184 0 
L 269 3500 
z
" transform="scale(0.015625)"/>
       <path id="DejaVuSans-61" d="M 2194 1759 
Q 1497 1759 1228 1600 
Q 959 1441 959 1056 
Q 959 750 1161 570 
Q 1363 391 1709 391 
Q 2188 391 2477 730 
Q 2766 1069 2766 1631 
L 2766 1759 
L 2194 1759 
z
M 3341 1997 
L 3341 0 
L 2766 0 
L 2766 531 
Q 2569 213 2275 61 
Q 1981 -91 1556 -91 
Q 1019 -91 701 211 
Q 384 513 384 1019 
Q 384 1609 779 1909 
Q 1175 2209 1959 2209 
L 2766 2209 
L 2766 2266 
Q 2766 2663 2505 2880 
Q 2244 3097 1772 3097 
Q 1472 3097 1187 3025 
Q 903 2953 641 2809 
L 641 3341 
Q 956 3463 1253 3523 
Q 1550 3584 1831 3584 
Q 2591 3584 2966 3190 
Q 3341 2797 3341 1997 
z
" transform="scale(0.015625)"/>
       <path id="DejaVuSans-72" d="M 2631 2963 
Q 2534 3019 2420 3045 
Q 2306 3072 2169 3072 
Q 1681 3072 1420 2755 
Q 1159 2438 1159 1844 
L 1159 0 
L 581 0 
L 581 3500 
L 1159 3500 
L 1159 2956 
Q 1341 3275 1631 3429 
Q 1922 3584 2338 3584 
Q 2397 3584 2469 3576 
Q 2541 3569 2628 3553 
L 2631 2963 
z
" transform="scale(0.015625)"/>
       <path id="DejaVuSans-64" d="M 2906 2969 
L 2906 4863 
L 3481 4863 
L 3481 0 
L 2906 0 
L 2906 525 
Q 2725 213 2448 61 
Q 2172 -91 1784 -91 
Q 1150 -91 751 415 
Q 353 922 353 1747 
Q 353 2572 751 3078 
Q 1150 3584 1784 3584 
Q 2172 3584 2448 3432 
Q 2725 3281 2906 2969 
z
M 947 1747 
Q 947 1113 1208 752 
Q 1469 391 1925 391 
Q 2381 391 2643 752 
Q 2906 1113 2906 1747 
Q 2906 2381 2643 2742 
Q 2381 3103 1925 3103 
Q 1469 3103 1208 2742 
Q 947 2381 947 1747 
z
" transform="scale(0.015625)"/>
      </defs>
      <use xlink:href="#DejaVuSans-52"/>
      <use xlink:href="#DejaVuSans-65" transform="translate(64.982422 0)"/>
      <use xlink:href="#DejaVuSans-77" transform="translate(126.505859 0)"/>
      <use xlink:href="#DejaVuSans-61" transform="translate(208.292969 0)"/>
      <use xlink:href="#DejaVuSans-72" transform="translate(269.572266 0)"/>
      <use xlink:href="#DejaVuSans-64" transform="translate(308.935547 0)"/>
     </g>
    </g>
   </g>
   <g id="FillBetweenPolyCollection_1">
    <path d="M 65.630837 300.861661 
L 65.630837 321.939925 
L 71.346521 314.623314 
L 77.062204 322.891927 
L 82.777887 301.354439 
L 88.49357 305.817103 
L 94.209254 305.543098 
L 99.924937 295.154734 
L 105.64062 287.963873 
L 111.356303 296.035366 
L 117.071987 303.304362 
L 122.78767 302.415493 
L 128.503353 303.128217 
L 134.219036 309.440636 
L 139.93472 303.090936 
L 145.650403 299.752961 
L 151.366086 303.92415 
L 157.081769 301.944696 
L 162.797453 293.041908 
L 168.513136 267.457707 
L 174.228819 266.258733 
L 179.944502 248.263395 
L 185.660186 248.089287 
L 191.375869 205.520921 
L 197.091552 193.913844 
L 202.807235 190.657963 
L 208.522919 179.660198 
L 214.238602 134.111132 
L 219.954285 143.669939 
L 225.669968 129.272358 
L 231.385652 125.409021 
L 237.101335 134.909719 
L 242.817018 119.680977 
L 248.532701 109.566041 
L 254.248385 112.613669 
L 259.964068 118.358156 
L 265.679751 112.994499 
L 271.395434 109.426873 
L 277.111118 102.651644 
L 282.826801 107.646602 
L 288.542484 113.007182 
L 294.258167 97.599393 
L 299.973851 113.850515 
L 305.689534 101.197307 
L 311.405217 113.554651 
L 317.1209 104.438449 
L 322.836584 103.349124 
L 328.552267 102.087848 
L 334.26795 114.22435 
L 339.983633 97.207341 
L 345.699317 92.706389 
L 351.415 97.914969 
L 357.130683 96.722746 
L 362.846367 124.149715 
L 368.56205 95.362086 
L 374.277733 91.904751 
L 379.993416 96.110196 
L 385.7091 101.851648 
L 391.424783 93.165544 
L 397.140466 93.988635 
L 402.856149 90.762348 
L 408.571833 95.955379 
L 414.287516 115.236576 
L 420.003199 95.399003 
L 425.718882 100.108396 
L 431.434566 95.261619 
L 437.150249 96.838817 
L 442.865932 95.6702 
L 448.581615 91.989205 
L 454.297299 91.861257 
L 460.012982 101.596198 
L 465.728665 111.656279 
L 471.444348 111.14628 
L 477.160032 105.082846 
L 482.875715 93.863933 
L 488.591398 107.936134 
L 494.307081 127.190719 
L 500.022765 126.047843 
L 505.738448 105.869162 
L 511.454131 94.62004 
L 517.169814 92.05992 
L 522.885498 91.113282 
L 528.601181 92.577051 
L 534.316864 92.076719 
L 540.032547 92.617028 
L 545.748231 92.741666 
L 551.463914 93.111244 
L 557.179597 91.029546 
L 562.89528 88.748206 
L 568.610964 91.514228 
L 574.326647 94.874473 
L 580.04233 91.637453 
L 585.758013 89.939575 
L 591.473697 92.275778 
L 597.18938 93.38953 
L 602.905063 90.959997 
L 608.620746 88.379911 
L 614.33643 92.128033 
L 620.052113 89.416688 
L 625.767796 90.740276 
L 631.483479 89.441321 
L 631.483479 85.482837 
L 631.483479 85.482837 
L 625.767796 84.999338 
L 620.052113 84.095862 
L 614.33643 83.99131 
L 608.620746 83.180976 
L 602.905063 85.235185 
L 597.18938 85.862438 
L 591.473697 84.943616 
L 585.758013 85.761687 
L 580.04233 86.697139 
L 574.326647 88.114104 
L 568.610964 86.288745 
L 562.89528 83.21918 
L 557.179597 85.312573 
L 551.463914 87.253844 
L 545.748231 84.231393 
L 540.032547 88.45456 
L 534.316864 87.045361 
L 528.601181 81.440332 
L 522.885498 84.860707 
L 517.169814 85.068113 
L 511.454131 83.240755 
L 505.738448 83.562172 
L 500.022765 77.457269 
L 494.307081 74.430812 
L 488.591398 85.088527 
L 482.875715 82.688696 
L 477.160032 89.158329 
L 471.444348 82.458198 
L 465.728665 77.831493 
L 460.012982 89.724093 
L 454.297299 88.369704 
L 448.581615 85.971178 
L 442.865932 86.523305 
L 437.150249 87.650787 
L 431.434566 87.404922 
L 425.718882 87.857113 
L 420.003199 88.169122 
L 414.287516 85.875487 
L 408.571833 85.229569 
L 402.856149 81.95265 
L 397.140466 90.247889 
L 391.424783 87.645471 
L 385.7091 86.680911 
L 379.993416 88.267364 
L 374.277733 89.663 
L 368.56205 87.180724 
L 362.846367 79.646002 
L 357.130683 84.849314 
L 351.415 85.214305 
L 345.699317 89.308533 
L 339.983633 86.651958 
L 334.26795 86.243099 
L 328.552267 89.086352 
L 322.836584 91.382573 
L 317.1209 91.196899 
L 311.405217 85.578492 
L 305.689534 84.454453 
L 299.973851 98.425721 
L 294.258167 92.929555 
L 288.542484 88.115971 
L 282.826801 91.760599 
L 277.111118 93.629215 
L 271.395434 95.52698 
L 265.679751 94.891194 
L 259.964068 90.782686 
L 254.248385 94.2987 
L 248.532701 88.65139 
L 242.817018 89.931794 
L 237.101335 100.371759 
L 231.385652 90.730089 
L 225.669968 95.475749 
L 219.954285 98.784109 
L 214.238602 98.751804 
L 208.522919 88.20887 
L 202.807235 99.245867 
L 197.091552 94.577061 
L 191.375869 99.137732 
L 185.660186 110.515468 
L 179.944502 117.933374 
L 174.228819 125.172736 
L 168.513136 136.823326 
L 162.797453 156.998825 
L 157.081769 166.534275 
L 151.366086 193.035374 
L 145.650403 191.366466 
L 139.93472 205.740714 
L 134.219036 219.252618 
L 128.503353 228.255893 
L 122.78767 239.441015 
L 117.071987 265.224902 
L 111.356303 257.931908 
L 105.64062 271.723945 
L 99.924937 268.737392 
L 94.209254 279.026868 
L 88.49357 287.840491 
L 82.777887 281.879433 
L 77.062204 285.861536 
L 71.346521 290.627671 
L 65.630837 300.861661 
z
" clip-path="url(#peddc999d49)" style="fill: #1f77b4; fill-opacity: 0.2"/>
   </g>
   <g id="FillBetweenPolyCollection_2">
    <path d="M 65.630837 301.887582 
L 65.630837 321.077197 
L 71.346521 316.280653 
L 77.062204 324.122622 
L 82.777887 322.006128 
L 88.49357 307.046301 
L 94.209254 296.023124 
L 99.924937 297.204895 
L 105.64062 297.496695 
L 111.356303 280.881026 
L 117.071987 303.61679 
L 122.78767 289.743557 
L 128.503353 287.312931 
L 134.219036 292.448151 
L 139.93472 286.874565 
L 145.650403 287.031262 
L 151.366086 295.666227 
L 157.081769 283.133252 
L 162.797453 273.58767 
L 168.513136 291.54782 
L 174.228819 276.494333 
L 179.944502 277.990011 
L 185.660186 294.097919 
L 191.375869 271.423441 
L 197.091552 285.694781 
L 202.807235 282.110304 
L 208.522919 279.676209 
L 214.238602 272.02124 
L 219.954285 274.088142 
L 225.669968 258.952709 
L 231.385652 255.328804 
L 237.101335 246.542427 
L 242.817018 235.140741 
L 248.532701 237.341454 
L 254.248385 214.542852 
L 259.964068 255.453427 
L 265.679751 238.327728 
L 271.395434 253.334304 
L 277.111118 262.289327 
L 282.826801 262.231365 
L 288.542484 255.410667 
L 294.258167 229.779362 
L 299.973851 288.012137 
L 305.689534 262.678554 
L 311.405217 259.439655 
L 317.1209 253.829171 
L 322.836584 253.49382 
L 328.552267 260.141501 
L 334.26795 264.779525 
L 339.983633 261.313807 
L 345.699317 264.339953 
L 351.415 262.016155 
L 357.130683 261.725214 
L 362.846367 252.27083 
L 368.56205 238.361655 
L 374.277733 267.531526 
L 379.993416 261.935571 
L 385.7091 267.348088 
L 391.424783 283.607305 
L 397.140466 292.828967 
L 402.856149 267.062032 
L 408.571833 284.830285 
L 414.287516 270.02597 
L 420.003199 273.780031 
L 425.718882 276.62619 
L 431.434566 277.87686 
L 437.150249 276.469221 
L 442.865932 262.183633 
L 448.581615 261.478322 
L 454.297299 246.782217 
L 460.012982 244.101394 
L 465.728665 231.951163 
L 471.444348 235.654957 
L 477.160032 233.644074 
L 482.875715 241.82284 
L 488.591398 238.760523 
L 494.307081 239.478268 
L 500.022765 237.105454 
L 505.738448 224.867138 
L 511.454131 262.737658 
L 517.169814 268.053205 
L 522.885498 263.533921 
L 528.601181 257.000155 
L 534.316864 251.696129 
L 540.032547 254.153103 
L 545.748231 234.0634 
L 551.463914 278.788915 
L 557.179597 282.299948 
L 562.89528 283.13306 
L 568.610964 288.983144 
L 574.326647 272.611257 
L 580.04233 281.715809 
L 585.758013 263.695283 
L 591.473697 271.101486 
L 597.18938 270.637247 
L 602.905063 262.870345 
L 608.620746 250.853071 
L 614.33643 254.016666 
L 620.052113 262.45375 
L 625.767796 269.740979 
L 631.483479 274.996611 
L 631.483479 152.736002 
L 631.483479 152.736002 
L 625.767796 153.145188 
L 620.052113 127.210043 
L 614.33643 121.884403 
L 608.620746 116.528531 
L 602.905063 125.248878 
L 597.18938 129.622501 
L 591.473697 122.459212 
L 585.758013 122.52952 
L 580.04233 124.422869 
L 574.326647 142.693804 
L 568.610964 133.089107 
L 562.89528 136.69276 
L 557.179597 120.984496 
L 551.463914 137.915386 
L 545.748231 111.513224 
L 540.032547 125.559608 
L 534.316864 121.443152 
L 528.601181 111.111967 
L 522.885498 105.129407 
L 517.169814 120.849633 
L 511.454131 96.045147 
L 505.738448 80.594941 
L 500.022765 90.616868 
L 494.307081 82.106938 
L 488.591398 72.888255 
L 482.875715 86.112077 
L 477.160032 69.816971 
L 471.444348 77.282153 
L 465.728665 74.304009 
L 460.012982 65.979809 
L 454.297299 76.62267 
L 448.581615 85.767704 
L 442.865932 86.822901 
L 437.150249 89.61519 
L 431.434566 86.570388 
L 425.718882 90.54015 
L 420.003199 93.406167 
L 414.287516 93.83017 
L 408.571833 91.229393 
L 402.856149 84.973986 
L 397.140466 126.862385 
L 391.424783 99.728224 
L 385.7091 87.871693 
L 379.993416 92.502556 
L 374.277733 88.765202 
L 368.56205 93.341772 
L 362.846367 101.081289 
L 357.130683 99.683787 
L 351.415 97.050756 
L 345.699317 95.999741 
L 339.983633 106.94574 
L 334.26795 121.344311 
L 328.552267 127.537489 
L 322.836584 126.697747 
L 317.1209 131.356733 
L 311.405217 142.744955 
L 305.689534 161.428079 
L 299.973851 153.352632 
L 294.258167 137.819703 
L 288.542484 144.98117 
L 282.826801 161.261518 
L 277.111118 195.594284 
L 271.395434 161.315156 
L 265.679751 147.945017 
L 259.964068 142.860306 
L 254.248385 133.986627 
L 248.532701 132.882414 
L 242.817018 138.246969 
L 237.101335 144.145281 
L 231.385652 163.054154 
L 225.669968 156.430815 
L 219.954285 161.69471 
L 214.238602 158.256009 
L 208.522919 171.906958 
L 202.807235 190.847281 
L 197.091552 184.157004 
L 191.375869 201.658157 
L 185.660186 220.830722 
L 179.944502 228.230512 
L 174.228819 233.148015 
L 168.513136 237.123396 
L 162.797453 252.247211 
L 157.081769 250.585343 
L 151.366086 260.079944 
L 145.650403 255.865504 
L 139.93472 256.734713 
L 134.219036 262.997449 
L 128.503353 260.447287 
L 122.78767 262.255388 
L 117.071987 276.707896 
L 111.356303 259.817558 
L 105.64062 275.354959 
L 99.924937 270.267418 
L 94.209254 284.761443 
L 88.49357 284.392889 
L 82.777887 264.110718 
L 77.062204 287.756036 
L 71.346521 296.645248 
L 65.630837 301.887582 
z
" clip-path="url(#peddc999d49)" style="fill: #ff7f0e; fill-opacity: 0.2"/>
   </g>
   <g id="FillBetweenPolyCollection_3">
    <path d="M 65.630837 306.023427 
L 65.630837 319.28879 
L 71.346521 315.960008 
L 77.062204 328.654504 
L 82.777887 334.670815 
L 88.49357 329.354263 
L 94.209254 313.838593 
L 99.924937 309.46483 
L 105.64062 319.524955 
L 111.356303 309.351843 
L 117.071987 331.379728 
L 122.78767 317.136614 
L 128.503353 326.097395 
L 134.219036 328.396636 
L 139.93472 326.705382 
L 145.650403 319.094472 
L 151.366086 333.327353 
L 157.081769 327.340878 
L 162.797453 323.835399 
L 168.513136 323.252586 
L 174.228819 311.576311 
L 179.944502 321.67143 
L 185.660186 323.839991 
L 191.375869 321.044485 
L 197.091552 331.661325 
L 202.807235 339.857459 
L 208.522919 328.991715 
L 214.238602 319.447522 
L 219.954285 334.83193 
L 225.669968 320.157322 
L 231.385652 318.742402 
L 237.101335 318.673293 
L 242.817018 311.865354 
L 248.532701 316.938908 
L 254.248385 316.876738 
L 259.964068 325.676673 
L 265.679751 318.591342 
L 271.395434 313.581085 
L 277.111118 297.712027 
L 282.826801 305.665268 
L 288.542484 295.118549 
L 294.258167 293.297257 
L 299.973851 306.791462 
L 305.689534 294.121071 
L 311.405217 277.801185 
L 317.1209 311.070612 
L 322.836584 299.141606 
L 328.552267 312.822682 
L 334.26795 292.466438 
L 339.983633 306.990329 
L 345.699317 295.911873 
L 351.415 310.124672 
L 357.130683 294.414473 
L 362.846367 302.453267 
L 368.56205 321.247705 
L 374.277733 289.91075 
L 379.993416 286.731522 
L 385.7091 289.70947 
L 391.424783 286.599637 
L 397.140466 284.430228 
L 402.856149 307.649525 
L 408.571833 297.405655 
L 414.287516 294.945663 
L 420.003199 293.159631 
L 425.718882 295.143036 
L 431.434566 309.980964 
L 437.150249 292.317891 
L 442.865932 300.069112 
L 448.581615 302.551301 
L 454.297299 298.916039 
L 460.012982 294.120606 
L 465.728665 283.452726 
L 471.444348 289.797711 
L 477.160032 285.738339 
L 482.875715 279.636213 
L 488.591398 280.861407 
L 494.307081 276.359095 
L 500.022765 279.380035 
L 505.738448 280.72484 
L 511.454131 288.177843 
L 517.169814 269.030346 
L 522.885498 265.931193 
L 528.601181 266.604209 
L 534.316864 314.820573 
L 540.032547 310.523383 
L 545.748231 291.033343 
L 551.463914 285.746707 
L 557.179597 276.039704 
L 562.89528 267.5488 
L 568.610964 261.965946 
L 574.326647 272.205388 
L 580.04233 267.057282 
L 585.758013 270.661104 
L 591.473697 263.660328 
L 597.18938 263.640677 
L 602.905063 268.69369 
L 608.620746 240.005487 
L 614.33643 254.576594 
L 620.052113 225.935092 
L 625.767796 236.787951 
L 631.483479 238.922281 
L 631.483479 95.297163 
L 631.483479 95.297163 
L 625.767796 101.130981 
L 620.052113 95.288762 
L 614.33643 103.988666 
L 608.620746 95.328549 
L 602.905063 110.018136 
L 597.18938 118.210194 
L 591.473697 109.263721 
L 585.758013 116.192476 
L 580.04233 110.542292 
L 574.326647 121.829204 
L 568.610964 112.222308 
L 562.89528 118.303123 
L 557.179597 108.622855 
L 551.463914 122.260021 
L 545.748231 113.656238 
L 540.032547 120.905875 
L 534.316864 122.646773 
L 528.601181 106.768818 
L 522.885498 113.376291 
L 517.169814 108.335311 
L 511.454131 115.913813 
L 505.738448 126.974157 
L 500.022765 141.880467 
L 494.307081 130.408987 
L 488.591398 147.360257 
L 482.875715 122.984821 
L 477.160032 134.824873 
L 471.444348 133.822354 
L 465.728665 135.46246 
L 460.012982 148.210566 
L 454.297299 153.121781 
L 448.581615 148.425131 
L 442.865932 157.535335 
L 437.150249 144.054112 
L 431.434566 161.625928 
L 425.718882 172.523982 
L 420.003199 200.271575 
L 414.287516 185.412877 
L 408.571833 175.222922 
L 402.856149 180.719269 
L 397.140466 183.759485 
L 391.424783 185.059134 
L 385.7091 190.784495 
L 379.993416 223.144543 
L 374.277733 202.991536 
L 368.56205 186.075744 
L 362.846367 217.460501 
L 357.130683 227.058481 
L 351.415 224.650417 
L 345.699317 226.490855 
L 339.983633 234.572416 
L 334.26795 259.570082 
L 328.552267 260.456837 
L 322.836584 260.062892 
L 317.1209 253.135384 
L 311.405217 243.208095 
L 305.689534 257.709587 
L 299.973851 272.685096 
L 294.258167 260.308536 
L 288.542484 251.810242 
L 282.826801 263.99439 
L 277.111118 265.626736 
L 271.395434 253.364073 
L 265.679751 285.280465 
L 259.964068 272.459853 
L 254.248385 278.537695 
L 248.532701 284.544741 
L 242.817018 271.910703 
L 237.101335 287.654796 
L 231.385652 273.737617 
L 225.669968 276.391506 
L 219.954285 290.129666 
L 214.238602 282.541672 
L 208.522919 285.956102 
L 202.807235 281.223963 
L 197.091552 274.551737 
L 191.375869 290.852018 
L 185.660186 295.345156 
L 179.944502 290.954318 
L 174.228819 288.931919 
L 168.513136 292.841934 
L 162.797453 288.219331 
L 157.081769 285.819875 
L 151.366086 297.8722 
L 145.650403 295.681797 
L 139.93472 288.471993 
L 134.219036 293.850245 
L 128.503353 281.358907 
L 122.78767 282.468649 
L 117.071987 292.287677 
L 111.356303 282.182108 
L 105.64062 287.634084 
L 99.924937 284.657481 
L 94.209254 282.16781 
L 88.49357 286.779447 
L 82.777887 273.774129 
L 77.062204 294.910581 
L 71.346521 296.772065 
L 65.630837 306.023427 
z
" clip-path="url(#peddc999d49)" style="fill: #2ca02c; fill-opacity: 0.2"/>
   </g>
   <g id="FillBetweenPolyCollection_4">
    <path d="M 65.630837 297.748021 
L 65.630837 321.027019 
L 71.346521 314.307288 
L 77.062204 318.189488 
L 82.777887 303.171055 
L 88.49357 303.0604 
L 94.209254 308.505054 
L 99.924937 296.357223 
L 105.64062 283.415284 
L 111.356303 278.10686 
L 117.071987 285.744081 
L 122.78767 272.568414 
L 128.503353 274.401974 
L 134.219036 255.601158 
L 139.93472 253.978697 
L 145.650403 233.155361 
L 151.366086 228.749439 
L 157.081769 195.821944 
L 162.797453 181.031387 
L 168.513136 154.528766 
L 174.228819 143.068021 
L 179.944502 135.989068 
L 185.660186 142.654842 
L 191.375869 129.482294 
L 197.091552 120.383438 
L 202.807235 134.415061 
L 208.522919 117.260725 
L 214.238602 112.052576 
L 219.954285 124.468625 
L 225.669968 116.682243 
L 231.385652 130.401914 
L 237.101335 137.212023 
L 242.817018 102.055425 
L 248.532701 106.893905 
L 254.248385 111.35917 
L 259.964068 113.680683 
L 265.679751 112.840766 
L 271.395434 105.867222 
L 277.111118 136.063713 
L 282.826801 107.845222 
L 288.542484 114.684295 
L 294.258167 100.338868 
L 299.973851 116.351042 
L 305.689534 119.482969 
L 311.405217 134.840103 
L 317.1209 106.551864 
L 322.836584 95.509254 
L 328.552267 104.423631 
L 334.26795 101.673581 
L 339.983633 94.896645 
L 345.699317 109.433129 
L 351.415 101.031832 
L 357.130683 93.807515 
L 362.846367 97.123325 
L 368.56205 96.177055 
L 374.277733 95.198385 
L 379.993416 106.127439 
L 385.7091 135.335429 
L 391.424783 117.483784 
L 397.140466 95.193683 
L 402.856149 101.496303 
L 408.571833 106.335144 
L 414.287516 159.295948 
L 420.003199 127.955929 
L 425.718882 148.186671 
L 431.434566 138.473081 
L 437.150249 148.557722 
L 442.865932 122.217117 
L 448.581615 103.964834 
L 454.297299 100.842591 
L 460.012982 124.589797 
L 465.728665 110.173156 
L 471.444348 112.840541 
L 477.160032 114.986717 
L 482.875715 94.252421 
L 488.591398 90.847238 
L 494.307081 94.236375 
L 500.022765 163.35591 
L 505.738448 145.781966 
L 511.454131 120.911183 
L 517.169814 146.110142 
L 522.885498 171.940391 
L 528.601181 140.933009 
L 534.316864 143.531186 
L 540.032547 161.129405 
L 545.748231 153.406561 
L 551.463914 168.689564 
L 557.179597 182.115637 
L 562.89528 166.361955 
L 568.610964 176.239059 
L 574.326647 175.973267 
L 580.04233 164.123647 
L 585.758013 136.550549 
L 591.473697 163.326853 
L 597.18938 135.039998 
L 602.905063 144.000002 
L 608.620746 126.167516 
L 614.33643 130.811762 
L 620.052113 163.664386 
L 625.767796 144.375527 
L 631.483479 138.3584 
L 631.483479 73.363028 
L 631.483479 73.363028 
L 625.767796 69.713914 
L 620.052113 62.822997 
L 614.33643 75.321451 
L 608.620746 73.013179 
L 602.905063 70.041263 
L 597.18938 72.712701 
L 591.473697 63.621703 
L 585.758013 71.594289 
L 580.04233 64.126091 
L 574.326647 63.387158 
L 568.610964 60.917326 
L 562.89528 60.843688 
L 557.179597 66.876408 
L 551.463914 75.568622 
L 545.748231 82.439231 
L 540.032547 66.944207 
L 534.316864 70.769158 
L 528.601181 71.353914 
L 522.885498 67.666722 
L 517.169814 77.413572 
L 511.454131 75.853092 
L 505.738448 66.661694 
L 500.022765 66.557876 
L 494.307081 82.224245 
L 488.591398 84.148481 
L 482.875715 84.780521 
L 477.160032 86.961935 
L 471.444348 84.028112 
L 465.728665 83.249995 
L 460.012982 81.060337 
L 454.297299 88.074773 
L 448.581615 83.225258 
L 442.865932 81.136361 
L 437.150249 70.411649 
L 431.434566 77.842629 
L 425.718882 76.078899 
L 420.003199 80.993154 
L 414.287516 77.353173 
L 408.571833 84.662332 
L 402.856149 85.210512 
L 397.140466 90.416022 
L 391.424783 82.980621 
L 385.7091 79.335607 
L 379.993416 89.601333 
L 374.277733 88.781942 
L 368.56205 85.968104 
L 362.846367 92.035035 
L 357.130683 89.475988 
L 351.415 86.141767 
L 345.699317 81.830566 
L 339.983633 85.984029 
L 334.26795 87.565451 
L 328.552267 91.002031 
L 322.836584 93.237901 
L 317.1209 95.091577 
L 311.405217 79.469252 
L 305.689534 84.866224 
L 299.973851 97.508309 
L 294.258167 87.105553 
L 288.542484 85.023438 
L 282.826801 89.301173 
L 277.111118 93.335957 
L 271.395434 93.015145 
L 265.679751 87.516886 
L 259.964068 90.941329 
L 254.248385 91.996537 
L 248.532701 95.635303 
L 242.817018 91.162561 
L 237.101335 92.6885 
L 231.385652 97.007206 
L 225.669968 97.778381 
L 219.954285 109.148275 
L 214.238602 99.701143 
L 208.522919 102.657673 
L 202.807235 104.881411 
L 197.091552 102.811749 
L 191.375869 104.705974 
L 185.660186 110.392226 
L 179.944502 115.264048 
L 174.228819 110.894384 
L 168.513136 124.502172 
L 162.797453 124.578489 
L 157.081769 140.404622 
L 151.366086 171.147416 
L 145.650403 198.495485 
L 139.93472 218.786425 
L 134.219036 231.52737 
L 128.503353 224.447356 
L 122.78767 233.39107 
L 117.071987 253.14715 
L 111.356303 250.259199 
L 105.64062 267.482679 
L 99.924937 266.099111 
L 94.209254 278.175701 
L 88.49357 284.381646 
L 82.777887 276.90281 
L 77.062204 286.58689 
L 71.346521 290.818972 
L 65.630837 297.748021 
z
" clip-path="url(#peddc999d49)" style="fill: #d62728; fill-opacity: 0.2"/>
   </g>
   <g id="line2d_19">
    <path d="M 65.630837 311.400793 
L 71.346521 302.625493 
L 77.062204 304.376731 
L 82.777887 291.616936 
L 88.49357 296.828797 
L 94.209254 292.284983 
L 99.924937 281.946063 
L 105.64062 279.843909 
L 111.356303 276.983637 
L 117.071987 284.264632 
L 122.78767 270.928254 
L 128.503353 265.692055 
L 134.219036 264.346627 
L 139.93472 254.415825 
L 145.650403 245.559714 
L 151.366086 248.479762 
L 157.081769 234.239486 
L 162.797453 225.020367 
L 168.513136 202.140516 
L 174.228819 195.715734 
L 179.944502 183.098385 
L 185.660186 179.302377 
L 191.375869 152.329327 
L 197.091552 144.245453 
L 202.807235 144.951915 
L 208.522919 133.934534 
L 214.238602 116.431468 
L 219.954285 121.227024 
L 225.669968 112.374054 
L 231.385652 108.069555 
L 237.101335 117.640739 
L 242.817018 104.806385 
L 248.532701 99.108716 
L 254.248385 103.456184 
L 259.964068 104.570421 
L 265.679751 103.942847 
L 271.395434 102.476927 
L 277.111118 98.14043 
L 282.826801 99.703601 
L 288.542484 100.561577 
L 294.258167 95.264474 
L 299.973851 106.138118 
L 305.689534 92.82588 
L 311.405217 99.566571 
L 317.1209 97.817674 
L 322.836584 97.365849 
L 328.552267 95.5871 
L 334.26795 100.233725 
L 339.983633 91.92965 
L 345.699317 91.007461 
L 351.415 91.564637 
L 357.130683 90.78603 
L 362.846367 101.897858 
L 368.56205 91.271405 
L 374.277733 90.783876 
L 379.993416 92.18878 
L 385.7091 94.266279 
L 391.424783 90.405508 
L 397.140466 92.118262 
L 402.856149 86.357499 
L 408.571833 90.592474 
L 414.287516 100.556031 
L 420.003199 91.784062 
L 425.718882 93.982755 
L 431.434566 91.33327 
L 437.150249 92.244802 
L 442.865932 91.096753 
L 448.581615 88.980191 
L 454.297299 90.11548 
L 460.012982 95.660145 
L 465.728665 94.743886 
L 471.444348 96.802239 
L 477.160032 97.120587 
L 482.875715 88.276314 
L 488.591398 96.512331 
L 494.307081 100.810765 
L 500.022765 101.752556 
L 505.738448 94.715667 
L 511.454131 88.930397 
L 517.169814 88.564016 
L 522.885498 87.986995 
L 528.601181 87.008692 
L 534.316864 89.56104 
L 540.032547 90.535794 
L 545.748231 88.48653 
L 551.463914 90.182544 
L 557.179597 88.17106 
L 562.89528 85.983693 
L 568.610964 88.901486 
L 574.326647 91.494288 
L 580.04233 89.167296 
L 585.758013 87.850631 
L 591.473697 88.609697 
L 597.18938 89.625984 
L 602.905063 88.097591 
L 608.620746 85.780443 
L 614.33643 88.059671 
L 620.052113 86.756275 
L 625.767796 87.869807 
L 631.483479 87.462079 
" clip-path="url(#peddc999d49)" style="fill: none; stroke: #1f77b4; stroke-width: 1.5; stroke-linecap: round"/>
   </g>
   <g id="line2d_20">
    <path d="M 65.630837 311.482389 
L 71.346521 306.462951 
L 77.062204 305.939329 
L 82.777887 293.058423 
L 88.49357 295.719595 
L 94.209254 290.392283 
L 99.924937 283.736157 
L 105.64062 286.425827 
L 111.356303 270.349292 
L 117.071987 290.162343 
L 122.78767 275.999472 
L 128.503353 273.880109 
L 134.219036 277.7228 
L 139.93472 271.804639 
L 145.650403 271.448383 
L 151.366086 277.873085 
L 157.081769 266.859297 
L 162.797453 262.917441 
L 168.513136 264.335608 
L 174.228819 254.821174 
L 179.944502 253.110262 
L 185.660186 257.464321 
L 191.375869 236.540799 
L 197.091552 234.925893 
L 202.807235 236.478792 
L 208.522919 225.791584 
L 214.238602 215.138625 
L 219.954285 217.891426 
L 225.669968 207.691762 
L 231.385652 209.191479 
L 237.101335 195.343854 
L 242.817018 186.693855 
L 248.532701 185.111934 
L 254.248385 174.26474 
L 259.964068 199.156866 
L 265.679751 193.136372 
L 271.395434 207.32473 
L 277.111118 228.941805 
L 282.826801 211.746442 
L 288.542484 200.195919 
L 294.258167 183.799532 
L 299.973851 220.682384 
L 305.689534 212.053317 
L 311.405217 201.092305 
L 317.1209 192.592952 
L 322.836584 190.095783 
L 328.552267 193.839495 
L 334.26795 193.061918 
L 339.983633 184.129773 
L 345.699317 180.169847 
L 351.415 179.533455 
L 357.130683 180.7045 
L 362.846367 176.676059 
L 368.56205 165.851714 
L 374.277733 178.148364 
L 379.993416 177.219063 
L 385.7091 177.609891 
L 391.424783 191.667765 
L 397.140466 209.845676 
L 402.856149 176.018009 
L 408.571833 188.029839 
L 414.287516 181.92807 
L 420.003199 183.593099 
L 425.718882 183.58317 
L 431.434566 182.223624 
L 437.150249 183.042205 
L 442.865932 174.503267 
L 448.581615 173.623013 
L 454.297299 161.702443 
L 460.012982 155.040601 
L 465.728665 153.127586 
L 471.444348 156.468555 
L 477.160032 151.730522 
L 482.875715 163.967459 
L 488.591398 155.824389 
L 494.307081 160.792603 
L 500.022765 163.861161 
L 505.738448 152.73104 
L 511.454131 179.391402 
L 517.169814 194.451419 
L 522.885498 184.331664 
L 528.601181 184.056061 
L 534.316864 186.56964 
L 540.032547 189.856356 
L 545.748231 172.788312 
L 551.463914 208.352151 
L 557.179597 201.642222 
L 562.89528 209.91291 
L 568.610964 211.036125 
L 574.326647 207.652531 
L 580.04233 203.069339 
L 585.758013 193.112402 
L 591.473697 196.780349 
L 597.18938 200.129874 
L 602.905063 194.059611 
L 608.620746 183.690801 
L 614.33643 187.950535 
L 620.052113 194.831897 
L 625.767796 211.443083 
L 631.483479 213.866307 
" clip-path="url(#peddc999d49)" style="fill: none; stroke: #ff7f0e; stroke-width: 1.5; stroke-linecap: round"/>
   </g>
   <g id="line2d_21">
    <path d="M 65.630837 312.656108 
L 71.346521 306.366037 
L 77.062204 311.782542 
L 82.777887 304.222472 
L 88.49357 308.066855 
L 94.209254 298.003201 
L 99.924937 297.061156 
L 105.64062 303.579519 
L 111.356303 295.766975 
L 117.071987 311.833702 
L 122.78767 299.802631 
L 128.503353 303.728151 
L 134.219036 311.123441 
L 139.93472 307.588688 
L 145.650403 307.388135 
L 151.366086 315.599777 
L 157.081769 306.580376 
L 162.797453 306.027365 
L 168.513136 308.04726 
L 174.228819 300.254115 
L 179.944502 306.312874 
L 185.660186 309.592574 
L 191.375869 305.948252 
L 197.091552 303.106531 
L 202.807235 310.540711 
L 208.522919 307.473909 
L 214.238602 300.994597 
L 219.954285 312.480798 
L 225.669968 298.274414 
L 231.385652 296.24001 
L 237.101335 303.164044 
L 242.817018 291.888029 
L 248.532701 300.741825 
L 254.248385 297.707216 
L 259.964068 299.068263 
L 265.679751 301.935903 
L 271.395434 283.472579 
L 277.111118 281.669381 
L 282.826801 284.829829 
L 288.542484 273.464396 
L 294.258167 276.802896 
L 299.973851 289.738279 
L 305.689534 275.915329 
L 311.405217 260.50464 
L 317.1209 282.102998 
L 322.836584 279.602249 
L 328.552267 286.639759 
L 334.26795 276.01826 
L 339.983633 270.781372 
L 345.699317 261.201364 
L 351.415 267.387544 
L 357.130683 260.736477 
L 362.846367 259.956884 
L 368.56205 253.661724 
L 374.277733 246.451143 
L 379.993416 254.938033 
L 385.7091 240.246983 
L 391.424783 235.829386 
L 397.140466 234.094856 
L 402.856149 244.184397 
L 408.571833 236.314289 
L 414.287516 240.17927 
L 420.003199 246.715603 
L 425.718882 233.833509 
L 431.434566 235.803446 
L 437.150249 218.186001 
L 442.865932 228.802223 
L 448.581615 225.488216 
L 454.297299 226.01891 
L 460.012982 221.165586 
L 465.728665 209.457593 
L 471.444348 211.810032 
L 477.160032 210.281606 
L 482.875715 201.310517 
L 488.591398 214.110832 
L 494.307081 203.384041 
L 500.022765 210.630251 
L 505.738448 203.849498 
L 511.454131 202.045828 
L 517.169814 188.682828 
L 522.885498 189.653742 
L 528.601181 186.686513 
L 534.316864 218.733673 
L 540.032547 215.714629 
L 545.748231 202.344791 
L 551.463914 204.003364 
L 557.179597 192.33128 
L 562.89528 192.925962 
L 568.610964 187.094127 
L 574.326647 197.017296 
L 580.04233 188.799787 
L 585.758013 193.42679 
L 591.473697 186.462024 
L 597.18938 190.925435 
L 602.905063 189.355913 
L 608.620746 167.667018 
L 614.33643 179.28263 
L 620.052113 160.611927 
L 625.767796 168.959466 
L 631.483479 167.109722 
" clip-path="url(#peddc999d49)" style="fill: none; stroke: #2ca02c; stroke-width: 1.5; stroke-linecap: round"/>
   </g>
   <g id="line2d_22">
    <path d="M 65.630837 309.38752 
L 71.346521 302.56313 
L 77.062204 302.388189 
L 82.777887 290.036932 
L 88.49357 293.721023 
L 94.209254 293.340378 
L 99.924937 281.228167 
L 105.64062 275.448982 
L 111.356303 264.18303 
L 117.071987 269.445616 
L 122.78767 252.979742 
L 128.503353 249.424665 
L 134.219036 243.564264 
L 139.93472 236.382561 
L 145.650403 215.825423 
L 151.366086 199.948427 
L 157.081769 168.113283 
L 162.797453 152.804938 
L 168.513136 139.515469 
L 174.228819 126.981203 
L 179.944502 125.626558 
L 185.660186 126.523534 
L 191.375869 117.094134 
L 197.091552 111.597593 
L 202.807235 119.648236 
L 208.522919 109.959199 
L 214.238602 105.87686 
L 219.954285 116.80845 
L 225.669968 107.230312 
L 231.385652 113.70456 
L 237.101335 114.950262 
L 242.817018 96.608993 
L 248.532701 101.264604 
L 254.248385 101.677853 
L 259.964068 102.311006 
L 265.679751 100.178826 
L 271.395434 99.441183 
L 277.111118 114.699835 
L 282.826801 98.573198 
L 288.542484 99.853867 
L 294.258167 93.722211 
L 299.973851 106.929676 
L 305.689534 102.174597 
L 311.405217 107.154677 
L 317.1209 100.82172 
L 322.836584 94.373577 
L 328.552267 97.712831 
L 334.26795 94.619516 
L 339.983633 90.440337 
L 345.699317 95.631848 
L 351.415 93.5868 
L 357.130683 91.641751 
L 362.846367 94.57918 
L 368.56205 91.072579 
L 374.277733 91.990163 
L 379.993416 97.864386 
L 385.7091 107.335518 
L 391.424783 100.232203 
L 397.140466 92.804853 
L 402.856149 93.353407 
L 408.571833 95.498738 
L 414.287516 118.32456 
L 420.003199 104.474541 
L 425.718882 112.132785 
L 431.434566 108.157855 
L 437.150249 109.484685 
L 442.865932 101.676739 
L 448.581615 93.595046 
L 454.297299 94.458682 
L 460.012982 102.825067 
L 465.728665 96.711575 
L 471.444348 98.434327 
L 477.160032 100.974326 
L 482.875715 89.516471 
L 488.591398 87.49786 
L 494.307081 88.23031 
L 500.022765 114.956893 
L 505.738448 106.22183 
L 511.454131 98.382137 
L 517.169814 111.761857 
L 522.885498 119.803556 
L 528.601181 106.143461 
L 534.316864 107.150172 
L 540.032547 114.036806 
L 545.748231 117.922896 
L 551.463914 122.129093 
L 557.179597 124.496023 
L 562.89528 113.602822 
L 568.610964 118.578192 
L 574.326647 119.680212 
L 580.04233 114.124869 
L 585.758013 104.072419 
L 591.473697 113.474278 
L 597.18938 103.87635 
L 602.905063 107.020633 
L 608.620746 99.590347 
L 614.33643 103.066607 
L 620.052113 113.243691 
L 625.767796 107.04472 
L 631.483479 105.860714 
" clip-path="url(#peddc999d49)" style="fill: none; stroke: #d62728; stroke-width: 1.5; stroke-linecap: round"/>
   </g>
   <g id="patch_3">
    <path d="M 65.63 390.04 
L 65.63 57.0062 
" style="fill: none; stroke: #ffffff; stroke-width: 0.8; stroke-linejoin: miter; stroke-linecap: square"/>
   </g>
   <g id="patch_4">
    <path d="M 637.2 390.04 
L 637.2 57.0062 
" style="fill: none; stroke: #ffffff; stroke-width: 0.8; stroke-linejoin: miter; stroke-linecap: square"/>
   </g>
   <g id="patch_5">
    <path d="M 65.63 390.04 
L 637.2 390.04 
" style="fill: none; stroke: #ffffff; stroke-width: 0.8; stroke-linejoin: miter; stroke-linecap: square"/>
   </g>
   <g id="patch_6">
    <path d="M 65.63 57.0062 
L 637.2 57.0062 
" style="fill: none; stroke: #ffffff; stroke-width: 0.8; stroke-linejoin: miter; stroke-linecap: square"/>
   </g>
   <g id="legend_1">
    <g id="line2d_23">
     <path d="M 185.856901 41.274494 
L 194.186901 41.274494 
L 202.516901 41.274494 
" style="fill: none; stroke: #1f77b4; stroke-width: 1.5; stroke-linecap: round"/>
    </g>
    <g id="text_22">
     <!-- Logits (Baseline) -->
     <g style="fill: #262626" transform="translate(209.180901 44.189994) scale(0.0833 -0.0833)">
      <defs>
       <path id="DejaVuSans-4c" d="M 628 4666 
L 1259 4666 
L 1259 531 
L 3531 531 
L 3531 0 
L 628 0 
L 628 4666 
z
" transform="scale(0.015625)"/>
       <path id="DejaVuSans-6f" d="M 1959 3097 
Q 1497 3097 1228 2736 
Q 959 2375 959 1747 
Q 959 1119 1226 758 
Q 1494 397 1959 397 
Q 2419 397 2687 759 
Q 2956 1122 2956 1747 
Q 2956 2369 2687 2733 
Q 2419 3097 1959 3097 
z
M 1959 3584 
Q 2709 3584 3137 3096 
Q 3566 2609 3566 1747 
Q 3566 888 3137 398 
Q 2709 -91 1959 -91 
Q 1206 -91 779 398 
Q 353 888 353 1747 
Q 353 2609 779 3096 
Q 1206 3584 1959 3584 
z
" transform="scale(0.015625)"/>
       <path id="DejaVuSans-67" d="M 2906 1791 
Q 2906 2416 2648 2759 
Q 2391 3103 1925 3103 
Q 1463 3103 1205 2759 
Q 947 2416 947 1791 
Q 947 1169 1205 825 
Q 1463 481 1925 481 
Q 2391 481 2648 825 
Q 2906 1169 2906 1791 
z
M 3481 434 
Q 3481 -459 3084 -895 
Q 2688 -1331 1869 -1331 
Q 1566 -1331 1297 -1286 
Q 1028 -1241 775 -1147 
L 775 -588 
Q 1028 -725 1275 -790 
Q 1522 -856 1778 -856 
Q 2344 -856 2625 -561 
Q 2906 -266 2906 331 
L 2906 616 
Q 2728 306 2450 153 
Q 2172 0 1784 0 
Q 1141 0 747 490 
Q 353 981 353 1791 
Q 353 2603 747 3093 
Q 1141 3584 1784 3584 
Q 2172 3584 2450 3431 
Q 2728 3278 2906 2969 
L 2906 3500 
L 3481 3500 
L 3481 434 
z
" transform="scale(0.015625)"/>
       <path id="DejaVuSans-69" d="M 603 3500 
L 1178 3500 
L 1178 0 
L 603 0 
L 603 3500 
z
M 603 4863 
L 1178 4863 
L 1178 4134 
L 603 4134 
L 603 4863 
z
" transform="scale(0.015625)"/>
       <path id="DejaVuSans-20" transform="scale(0.015625)"/>
       <path id="DejaVuSans-28" d="M 1984 4856 
Q 1566 4138 1362 3434 
Q 1159 2731 1159 2009 
Q 1159 1288 1364 580 
Q 1569 -128 1984 -844 
L 1484 -844 
Q 1016 -109 783 600 
Q 550 1309 550 2009 
Q 550 2706 781 3412 
Q 1013 4119 1484 4856 
L 1984 4856 
z
" transform="scale(0.015625)"/>
       <path id="DejaVuSans-42" d="M 1259 2228 
L 1259 519 
L 2272 519 
Q 2781 519 3026 730 
Q 3272 941 3272 1375 
Q 3272 1813 3026 2020 
Q 2781 2228 2272 2228 
L 1259 2228 
z
M 1259 4147 
L 1259 2741 
L 2194 2741 
Q 2656 2741 2882 2914 
Q 3109 3088 3109 3444 
Q 3109 3797 2882 3972 
Q 2656 4147 2194 4147 
L 1259 4147 
z
M 628 4666 
L 2241 4666 
Q 2963 4666 3353 4366 
Q 3744 4066 3744 3513 
Q 3744 3084 3544 2831 
Q 3344 2578 2956 2516 
Q 3422 2416 3680 2098 
Q 3938 1781 3938 1306 
Q 3938 681 3513 340 
Q 3088 0 2303 0 
L 628 0 
L 628 4666 
z
" transform="scale(0.015625)"/>
       <path id="DejaVuSans-6c" d="M 603 4863 
L 1178 4863 
L 1178 0 
L 603 0 
L 603 4863 
z
" transform="scale(0.015625)"/>
       <path id="DejaVuSans-6e" d="M 3513 2113 
L 3513 0 
L 2938 0 
L 2938 2094 
Q 2938 2591 2744 2837 
Q 2550 3084 2163 3084 
Q 1697 3084 1428 2787 
Q 1159 2491 1159 1978 
L 1159 0 
L 581 0 
L 581 3500 
L 1159 3500 
L 1159 2956 
Q 1366 3272 1645 3428 
Q 1925 3584 2291 3584 
Q 2894 3584 3203 3211 
Q 3513 2838 3513 2113 
z
" transform="scale(0.015625)"/>
       <path id="DejaVuSans-29" d="M 513 4856 
L 1013 4856 
Q 1481 4119 1714 3412 
Q 1947 2706 1947 2009 
Q 1947 1309 1714 600 
Q 1481 -109 1013 -844 
L 513 -844 
Q 928 -128 1133 580 
Q 1338 1288 1338 2009 
Q 1338 2731 1133 3434 
Q 928 4138 513 4856 
z
" transform="scale(0.015625)"/>
      </defs>
      <use xlink:href="#DejaVuSans-4c"/>
      <use xlink:href="#DejaVuSans-6f" transform="translate(53.962891 0)"/>
      <use xlink:href="#DejaVuSans-67" transform="translate(115.144531 0)"/>
      <use xlink:href="#DejaVuSans-69" transform="translate(178.621094 0)"/>
      <use xlink:href="#DejaVuSans-74" transform="translate(206.404297 0)"/>
      <use xlink:href="#DejaVuSans-73" transform="translate(245.613281 0)"/>
      <use xlink:href="#DejaVuSans-20" transform="translate(297.712891 0)"/>
      <use xlink:href="#DejaVuSans-28" transform="translate(329.5 0)"/>
      <use xlink:href="#DejaVuSans-42" transform="translate(368.513672 0)"/>
      <use xlink:href="#DejaVuSans-61" transform="translate(437.117188 0)"/>
      <use xlink:href="#DejaVuSans-73" transform="translate(498.396484 0)"/>
      <use xlink:href="#DejaVuSans-65" transform="translate(550.496094 0)"/>
      <use xlink:href="#DejaVuSans-6c" transform="translate(612.019531 0)"/>
      <use xlink:href="#DejaVuSans-69" transform="translate(639.802734 0)"/>
      <use xlink:href="#DejaVuSans-6e" transform="translate(667.585938 0)"/>
      <use xlink:href="#DejaVuSans-65" transform="translate(730.964844 0)"/>
      <use xlink:href="#DejaVuSans-29" transform="translate(792.488281 0)"/>
     </g>
    </g>
    <g id="line2d_24">
     <path d="M 295.106152 41.274494 
L 303.436152 41.274494 
L 311.766152 41.274494 
" style="fill: none; stroke: #ff7f0e; stroke-width: 1.5; stroke-linecap: round"/>
    </g>
    <g id="text_23">
     <!-- GNN-Net -->
     <g style="fill: #262626" transform="translate(318.430152 44.189994) scale(0.0833 -0.0833)">
      <defs>
       <path id="DejaVuSans-47" d="M 3809 666 
L 3809 1919 
L 2778 1919 
L 2778 2438 
L 4434 2438 
L 4434 434 
Q 4069 175 3628 42 
Q 3188 -91 2688 -91 
Q 1594 -91 976 548 
Q 359 1188 359 2328 
Q 359 3472 976 4111 
Q 1594 4750 2688 4750 
Q 3144 4750 3555 4637 
Q 3966 4525 4313 4306 
L 4313 3634 
Q 3963 3931 3569 4081 
Q 3175 4231 2741 4231 
Q 1884 4231 1454 3753 
Q 1025 3275 1025 2328 
Q 1025 1384 1454 906 
Q 1884 428 2741 428 
Q 3075 428 3337 486 
Q 3600 544 3809 666 
z
" transform="scale(0.015625)"/>
       <path id="DejaVuSans-4e" d="M 628 4666 
L 1478 4666 
L 3547 763 
L 3547 4666 
L 4159 4666 
L 4159 0 
L 3309 0 
L 1241 3903 
L 1241 0 
L 628 0 
L 628 4666 
z
" transform="scale(0.015625)"/>
       <path id="DejaVuSans-2d" d="M 313 2009 
L 1997 2009 
L 1997 1497 
L 313 1497 
L 313 2009 
z
" transform="scale(0.015625)"/>
      </defs>
      <use xlink:href="#DejaVuSans-47"/>
      <use xlink:href="#DejaVuSans-4e" transform="translate(77.490234 0)"/>
      <use xlink:href="#DejaVuSans-4e" transform="translate(152.294922 0)"/>
      <use xlink:href="#DejaVuSans-2d" transform="translate(227.099609 0)"/>
      <use xlink:href="#DejaVuSans-4e" transform="translate(263.183594 0)"/>
      <use xlink:href="#DejaVuSans-65" transform="translate(337.988281 0)"/>
      <use xlink:href="#DejaVuSans-74" transform="translate(399.511719 0)"/>
     </g>
    </g>
    <g id="line2d_25">
     <path d="M 371.636726 41.274494 
L 379.966726 41.274494 
L 388.296726 41.274494 
" style="fill: none; stroke: #2ca02c; stroke-width: 1.5; stroke-linecap: round"/>
    </g>
    <g id="text_24">
     <!-- GNN_K-Net -->
     <g style="fill: #262626" transform="translate(394.960726 44.189994) scale(0.0833 -0.0833)">
      <defs>
       <path id="DejaVuSans-5f" d="M 3263 -1063 
L 3263 -1509 
L -63 -1509 
L -63 -1063 
L 3263 -1063 
z
" transform="scale(0.015625)"/>
       <path id="DejaVuSans-4b" d="M 628 4666 
L 1259 4666 
L 1259 2694 
L 3353 4666 
L 4166 4666 
L 1850 2491 
L 4331 0 
L 3500 0 
L 1259 2247 
L 1259 0 
L 628 0 
L 628 4666 
z
" transform="scale(0.015625)"/>
      </defs>
      <use xlink:href="#DejaVuSans-47"/>
      <use xlink:href="#DejaVuSans-4e" transform="translate(77.490234 0)"/>
      <use xlink:href="#DejaVuSans-4e" transform="translate(152.294922 0)"/>
      <use xlink:href="#DejaVuSans-5f" transform="translate(227.099609 0)"/>
      <use xlink:href="#DejaVuSans-4b" transform="translate(277.099609 0)"/>
      <use xlink:href="#DejaVuSans-2d" transform="translate(332.175781 0)"/>
      <use xlink:href="#DejaVuSans-4e" transform="translate(368.259766 0)"/>
      <use xlink:href="#DejaVuSans-65" transform="translate(443.064453 0)"/>
      <use xlink:href="#DejaVuSans-74" transform="translate(504.587891 0)"/>
     </g>
    </g>
    <g id="line2d_26">
     <path d="M 456.920307 41.274494 
L 465.250307 41.274494 
L 473.580307 41.274494 
" style="fill: none; stroke: #d62728; stroke-width: 1.5; stroke-linecap: round"/>
    </g>
    <g id="text_25">
     <!-- CMU-Net -->
     <g style="fill: #262626" transform="translate(480.244307 44.189994) scale(0.0833 -0.0833)">
      <defs>
       <path id="DejaVuSans-43" d="M 4122 4306 
L 4122 3641 
Q 3803 3938 3442 4084 
Q 3081 4231 2675 4231 
Q 1875 4231 1450 3742 
Q 1025 3253 1025 2328 
Q 1025 1406 1450 917 
Q 1875 428 2675 428 
Q 3081 428 3442 575 
Q 3803 722 4122 1019 
L 4122 359 
Q 3791 134 3420 21 
Q 3050 -91 2638 -91 
Q 1578 -91 968 557 
Q 359 1206 359 2328 
Q 359 3453 968 4101 
Q 1578 4750 2638 4750 
Q 3056 4750 3426 4639 
Q 3797 4528 4122 4306 
z
" transform="scale(0.015625)"/>
       <path id="DejaVuSans-4d" d="M 628 4666 
L 1569 4666 
L 2759 1491 
L 3956 4666 
L 4897 4666 
L 4897 0 
L 4281 0 
L 4281 4097 
L 3078 897 
L 2444 897 
L 1241 4097 
L 1241 0 
L 628 0 
L 628 4666 
z
" transform="scale(0.015625)"/>
       <path id="DejaVuSans-55" d="M 556 4666 
L 1191 4666 
L 1191 1831 
Q 1191 1081 1462 751 
Q 1734 422 2344 422 
Q 2950 422 3222 751 
Q 3494 1081 3494 1831 
L 3494 4666 
L 4128 4666 
L 4128 1753 
Q 4128 841 3676 375 
Q 3225 -91 2344 -91 
Q 1459 -91 1007 375 
Q 556 841 556 1753 
L 556 4666 
z
" transform="scale(0.015625)"/>
      </defs>
      <use xlink:href="#DejaVuSans-43"/>
      <use xlink:href="#DejaVuSans-4d" transform="translate(69.824219 0)"/>
      <use xlink:href="#DejaVuSans-55" transform="translate(156.103516 0)"/>
      <use xlink:href="#DejaVuSans-2d" transform="translate(229.296875 0)"/>
      <use xlink:href="#DejaVuSans-4e" transform="translate(265.380859 0)"/>
      <use xlink:href="#DejaVuSans-65" transform="translate(340.185547 0)"/>
      <use xlink:href="#DejaVuSans-74" transform="translate(401.708984 0)"/>
     </g>
    </g>
   </g>
  </g>
  <g id="text_26">
   <!-- Rewards: Pendulum-v1 (Discretized) (No modification) -->
   <g style="fill: #262626" transform="translate(139.274063 17.758125) scale(0.12 -0.12)">
    <defs>
     <path id="DejaVuSans-Bold-52" d="M 2297 2597 
Q 2675 2597 2839 2737 
Q 3003 2878 3003 3200 
Q 3003 3519 2839 3656 
Q 2675 3794 2297 3794 
L 1791 3794 
L 1791 2597 
L 2297 2597 
z
M 1791 1766 
L 1791 0 
L 588 0 
L 588 4666 
L 2425 4666 
Q 3347 4666 3776 4356 
Q 4206 4047 4206 3378 
Q 4206 2916 3982 2619 
Q 3759 2322 3309 2181 
Q 3556 2125 3751 1926 
Q 3947 1728 4147 1325 
L 4800 0 
L 3519 0 
L 2950 1159 
Q 2778 1509 2601 1637 
Q 2425 1766 2131 1766 
L 1791 1766 
z
" transform="scale(0.015625)"/>
     <path id="DejaVuSans-Bold-65" d="M 4031 1759 
L 4031 1441 
L 1416 1441 
Q 1456 1047 1700 850 
Q 1944 653 2381 653 
Q 2734 653 3104 758 
Q 3475 863 3866 1075 
L 3866 213 
Q 3469 63 3072 -14 
Q 2675 -91 2278 -91 
Q 1328 -91 801 392 
Q 275 875 275 1747 
Q 275 2603 792 3093 
Q 1309 3584 2216 3584 
Q 3041 3584 3536 3087 
Q 4031 2591 4031 1759 
z
M 2881 2131 
Q 2881 2450 2695 2645 
Q 2509 2841 2209 2841 
Q 1884 2841 1681 2658 
Q 1478 2475 1428 2131 
L 2881 2131 
z
" transform="scale(0.015625)"/>
     <path id="DejaVuSans-Bold-77" d="M 225 3500 
L 1313 3500 
L 1900 1088 
L 2491 3500 
L 3425 3500 
L 4013 1113 
L 4603 3500 
L 5691 3500 
L 4769 0 
L 3547 0 
L 2956 2406 
L 2369 0 
L 1147 0 
L 225 3500 
z
" transform="scale(0.015625)"/>
     <path id="DejaVuSans-Bold-61" d="M 2106 1575 
Q 1756 1575 1579 1456 
Q 1403 1338 1403 1106 
Q 1403 894 1545 773 
Q 1688 653 1941 653 
Q 2256 653 2472 879 
Q 2688 1106 2688 1447 
L 2688 1575 
L 2106 1575 
z
M 3816 1997 
L 3816 0 
L 2688 0 
L 2688 519 
Q 2463 200 2181 54 
Q 1900 -91 1497 -91 
Q 953 -91 614 226 
Q 275 544 275 1050 
Q 275 1666 698 1953 
Q 1122 2241 2028 2241 
L 2688 2241 
L 2688 2328 
Q 2688 2594 2478 2717 
Q 2269 2841 1825 2841 
Q 1466 2841 1156 2769 
Q 847 2697 581 2553 
L 581 3406 
Q 941 3494 1303 3539 
Q 1666 3584 2028 3584 
Q 2975 3584 3395 3211 
Q 3816 2838 3816 1997 
z
" transform="scale(0.015625)"/>
     <path id="DejaVuSans-Bold-72" d="M 3138 2547 
Q 2991 2616 2845 2648 
Q 2700 2681 2553 2681 
Q 2122 2681 1889 2404 
Q 1656 2128 1656 1613 
L 1656 0 
L 538 0 
L 538 3500 
L 1656 3500 
L 1656 2925 
Q 1872 3269 2151 3426 
Q 2431 3584 2822 3584 
Q 2878 3584 2943 3579 
Q 3009 3575 3134 3559 
L 3138 2547 
z
" transform="scale(0.015625)"/>
     <path id="DejaVuSans-Bold-64" d="M 2919 2988 
L 2919 4863 
L 4044 4863 
L 4044 0 
L 2919 0 
L 2919 506 
Q 2688 197 2409 53 
Q 2131 -91 1766 -91 
Q 1119 -91 703 423 
Q 288 938 288 1747 
Q 288 2556 703 3070 
Q 1119 3584 1766 3584 
Q 2128 3584 2408 3439 
Q 2688 3294 2919 2988 
z
M 2181 722 
Q 2541 722 2730 984 
Q 2919 1247 2919 1747 
Q 2919 2247 2730 2509 
Q 2541 2772 2181 2772 
Q 1825 2772 1636 2509 
Q 1447 2247 1447 1747 
Q 1447 1247 1636 984 
Q 1825 722 2181 722 
z
" transform="scale(0.015625)"/>
     <path id="DejaVuSans-Bold-73" d="M 3272 3391 
L 3272 2541 
Q 2913 2691 2578 2766 
Q 2244 2841 1947 2841 
Q 1628 2841 1473 2761 
Q 1319 2681 1319 2516 
Q 1319 2381 1436 2309 
Q 1553 2238 1856 2203 
L 2053 2175 
Q 2913 2066 3209 1816 
Q 3506 1566 3506 1031 
Q 3506 472 3093 190 
Q 2681 -91 1863 -91 
Q 1516 -91 1145 -36 
Q 775 19 384 128 
L 384 978 
Q 719 816 1070 734 
Q 1422 653 1784 653 
Q 2113 653 2278 743 
Q 2444 834 2444 1013 
Q 2444 1163 2330 1236 
Q 2216 1309 1875 1350 
L 1678 1375 
Q 931 1469 631 1722 
Q 331 1975 331 2491 
Q 331 3047 712 3315 
Q 1094 3584 1881 3584 
Q 2191 3584 2531 3537 
Q 2872 3491 3272 3391 
z
" transform="scale(0.015625)"/>
     <path id="DejaVuSans-Bold-3a" d="M 716 3500 
L 1844 3500 
L 1844 2291 
L 716 2291 
L 716 3500 
z
M 716 1209 
L 1844 1209 
L 1844 0 
L 716 0 
L 716 1209 
z
" transform="scale(0.015625)"/>
     <path id="DejaVuSans-Bold-20" transform="scale(0.015625)"/>
     <path id="DejaVuSans-Bold-50" d="M 588 4666 
L 2584 4666 
Q 3475 4666 3951 4270 
Q 4428 3875 4428 3144 
Q 4428 2409 3951 2014 
Q 3475 1619 2584 1619 
L 1791 1619 
L 1791 0 
L 588 0 
L 588 4666 
z
M 1791 3794 
L 1791 2491 
L 2456 2491 
Q 2806 2491 2997 2661 
Q 3188 2831 3188 3144 
Q 3188 3456 2997 3625 
Q 2806 3794 2456 3794 
L 1791 3794 
z
" transform="scale(0.015625)"/>
     <path id="DejaVuSans-Bold-6e" d="M 4056 2131 
L 4056 0 
L 2931 0 
L 2931 347 
L 2931 1631 
Q 2931 2084 2911 2256 
Q 2891 2428 2841 2509 
Q 2775 2619 2662 2680 
Q 2550 2741 2406 2741 
Q 2056 2741 1856 2470 
Q 1656 2200 1656 1722 
L 1656 0 
L 538 0 
L 538 3500 
L 1656 3500 
L 1656 2988 
Q 1909 3294 2193 3439 
Q 2478 3584 2822 3584 
Q 3428 3584 3742 3212 
Q 4056 2841 4056 2131 
z
" transform="scale(0.015625)"/>
     <path id="DejaVuSans-Bold-75" d="M 500 1363 
L 500 3500 
L 1625 3500 
L 1625 3150 
Q 1625 2866 1622 2436 
Q 1619 2006 1619 1863 
Q 1619 1441 1641 1255 
Q 1663 1069 1716 984 
Q 1784 875 1895 815 
Q 2006 756 2150 756 
Q 2500 756 2700 1025 
Q 2900 1294 2900 1772 
L 2900 3500 
L 4019 3500 
L 4019 0 
L 2900 0 
L 2900 506 
Q 2647 200 2364 54 
Q 2081 -91 1741 -91 
Q 1134 -91 817 281 
Q 500 653 500 1363 
z
" transform="scale(0.015625)"/>
     <path id="DejaVuSans-Bold-6c" d="M 538 4863 
L 1656 4863 
L 1656 0 
L 538 0 
L 538 4863 
z
" transform="scale(0.015625)"/>
     <path id="DejaVuSans-Bold-6d" d="M 3781 2919 
Q 3994 3244 4286 3414 
Q 4578 3584 4928 3584 
Q 5531 3584 5847 3212 
Q 6163 2841 6163 2131 
L 6163 0 
L 5038 0 
L 5038 1825 
Q 5041 1866 5042 1909 
Q 5044 1953 5044 2034 
Q 5044 2406 4934 2573 
Q 4825 2741 4581 2741 
Q 4263 2741 4089 2478 
Q 3916 2216 3909 1719 
L 3909 0 
L 2784 0 
L 2784 1825 
Q 2784 2406 2684 2573 
Q 2584 2741 2328 2741 
Q 2006 2741 1831 2477 
Q 1656 2213 1656 1722 
L 1656 0 
L 531 0 
L 531 3500 
L 1656 3500 
L 1656 2988 
Q 1863 3284 2130 3434 
Q 2397 3584 2719 3584 
Q 3081 3584 3359 3409 
Q 3638 3234 3781 2919 
z
" transform="scale(0.015625)"/>
     <path id="DejaVuSans-Bold-2d" d="M 347 2297 
L 2309 2297 
L 2309 1388 
L 347 1388 
L 347 2297 
z
" transform="scale(0.015625)"/>
     <path id="DejaVuSans-Bold-76" d="M 97 3500 
L 1216 3500 
L 2088 1081 
L 2956 3500 
L 4078 3500 
L 2700 0 
L 1472 0 
L 97 3500 
z
" transform="scale(0.015625)"/>
     <path id="DejaVuSans-Bold-31" d="M 750 831 
L 1813 831 
L 1813 3847 
L 722 3622 
L 722 4441 
L 1806 4666 
L 2950 4666 
L 2950 831 
L 4013 831 
L 4013 0 
L 750 0 
L 750 831 
z
" transform="scale(0.015625)"/>
     <path id="DejaVuSans-Bold-28" d="M 2413 -844 
L 1484 -844 
Q 1006 -72 778 623 
Q 550 1319 550 2003 
Q 550 2688 779 3389 
Q 1009 4091 1484 4856 
L 2413 4856 
Q 2013 4116 1813 3408 
Q 1613 2700 1613 2009 
Q 1613 1319 1811 609 
Q 2009 -100 2413 -844 
z
" transform="scale(0.015625)"/>
     <path id="DejaVuSans-Bold-44" d="M 1791 3756 
L 1791 909 
L 2222 909 
Q 2959 909 3348 1275 
Q 3738 1641 3738 2338 
Q 3738 3031 3350 3393 
Q 2963 3756 2222 3756 
L 1791 3756 
z
M 588 4666 
L 1856 4666 
Q 2919 4666 3439 4514 
Q 3959 4363 4331 4000 
Q 4659 3684 4818 3271 
Q 4978 2859 4978 2338 
Q 4978 1809 4818 1395 
Q 4659 981 4331 666 
Q 3956 303 3431 151 
Q 2906 0 1856 0 
L 588 0 
L 588 4666 
z
" transform="scale(0.015625)"/>
     <path id="DejaVuSans-Bold-69" d="M 538 3500 
L 1656 3500 
L 1656 0 
L 538 0 
L 538 3500 
z
M 538 4863 
L 1656 4863 
L 1656 3950 
L 538 3950 
L 538 4863 
z
" transform="scale(0.015625)"/>
     <path id="DejaVuSans-Bold-63" d="M 3366 3391 
L 3366 2478 
Q 3138 2634 2908 2709 
Q 2678 2784 2431 2784 
Q 1963 2784 1702 2511 
Q 1441 2238 1441 1747 
Q 1441 1256 1702 982 
Q 1963 709 2431 709 
Q 2694 709 2930 787 
Q 3166 866 3366 1019 
L 3366 103 
Q 3103 6 2833 -42 
Q 2563 -91 2291 -91 
Q 1344 -91 809 395 
Q 275 881 275 1747 
Q 275 2613 809 3098 
Q 1344 3584 2291 3584 
Q 2566 3584 2833 3536 
Q 3100 3488 3366 3391 
z
" transform="scale(0.015625)"/>
     <path id="DejaVuSans-Bold-74" d="M 1759 4494 
L 1759 3500 
L 2913 3500 
L 2913 2700 
L 1759 2700 
L 1759 1216 
Q 1759 972 1856 886 
Q 1953 800 2241 800 
L 2816 800 
L 2816 0 
L 1856 0 
Q 1194 0 917 276 
Q 641 553 641 1216 
L 641 2700 
L 84 2700 
L 84 3500 
L 641 3500 
L 641 4494 
L 1759 4494 
z
" transform="scale(0.015625)"/>
     <path id="DejaVuSans-Bold-7a" d="M 366 3500 
L 3419 3500 
L 3419 2719 
L 1575 800 
L 3419 800 
L 3419 0 
L 288 0 
L 288 781 
L 2131 2700 
L 366 2700 
L 366 3500 
z
" transform="scale(0.015625)"/>
     <path id="DejaVuSans-Bold-29" d="M 513 -844 
Q 913 -100 1113 609 
Q 1313 1319 1313 2009 
Q 1313 2700 1113 3408 
Q 913 4116 513 4856 
L 1441 4856 
Q 1916 4091 2145 3389 
Q 2375 2688 2375 2003 
Q 2375 1319 2147 623 
Q 1919 -72 1441 -844 
L 513 -844 
z
" transform="scale(0.015625)"/>
     <path id="DejaVuSans-Bold-4e" d="M 588 4666 
L 1931 4666 
L 3628 1466 
L 3628 4666 
L 4769 4666 
L 4769 0 
L 3425 0 
L 1728 3200 
L 1728 0 
L 588 0 
L 588 4666 
z
" transform="scale(0.015625)"/>
     <path id="DejaVuSans-Bold-6f" d="M 2203 2784 
Q 1831 2784 1636 2517 
Q 1441 2250 1441 1747 
Q 1441 1244 1636 976 
Q 1831 709 2203 709 
Q 2569 709 2762 976 
Q 2956 1244 2956 1747 
Q 2956 2250 2762 2517 
Q 2569 2784 2203 2784 
z
M 2203 3584 
Q 3106 3584 3614 3096 
Q 4122 2609 4122 1747 
Q 4122 884 3614 396 
Q 3106 -91 2203 -91 
Q 1297 -91 786 396 
Q 275 884 275 1747 
Q 275 2609 786 3096 
Q 1297 3584 2203 3584 
z
" transform="scale(0.015625)"/>
     <path id="DejaVuSans-Bold-66" d="M 2841 4863 
L 2841 4128 
L 2222 4128 
Q 1984 4128 1890 4042 
Q 1797 3956 1797 3744 
L 1797 3500 
L 2753 3500 
L 2753 2700 
L 1797 2700 
L 1797 0 
L 678 0 
L 678 2700 
L 122 2700 
L 122 3500 
L 678 3500 
L 678 3744 
Q 678 4316 997 4589 
Q 1316 4863 1984 4863 
L 2841 4863 
z
" transform="scale(0.015625)"/>
    </defs>
    <use xlink:href="#DejaVuSans-Bold-52"/>
    <use xlink:href="#DejaVuSans-Bold-65" transform="translate(77.001953 0)"/>
    <use xlink:href="#DejaVuSans-Bold-77" transform="translate(144.824219 0)"/>
    <use xlink:href="#DejaVuSans-Bold-61" transform="translate(237.207031 0)"/>
    <use xlink:href="#DejaVuSans-Bold-72" transform="translate(304.6875 0)"/>
    <use xlink:href="#DejaVuSans-Bold-64" transform="translate(354.003906 0)"/>
    <use xlink:href="#DejaVuSans-Bold-73" transform="translate(425.585938 0)"/>
    <use xlink:href="#DejaVuSans-Bold-3a" transform="translate(485.107422 0)"/>
    <use xlink:href="#DejaVuSans-Bold-20" transform="translate(525.097656 0)"/>
    <use xlink:href="#DejaVuSans-Bold-50" transform="translate(559.912109 0)"/>
    <use xlink:href="#DejaVuSans-Bold-65" transform="translate(633.203125 0)"/>
    <use xlink:href="#DejaVuSans-Bold-6e" transform="translate(701.025391 0)"/>
    <use xlink:href="#DejaVuSans-Bold-64" transform="translate(772.216797 0)"/>
    <use xlink:href="#DejaVuSans-Bold-75" transform="translate(843.798828 0)"/>
    <use xlink:href="#DejaVuSans-Bold-6c" transform="translate(914.990234 0)"/>
    <use xlink:href="#DejaVuSans-Bold-75" transform="translate(949.267578 0)"/>
    <use xlink:href="#DejaVuSans-Bold-6d" transform="translate(1020.458984 0)"/>
    <use xlink:href="#DejaVuSans-Bold-2d" transform="translate(1124.658203 0)"/>
    <use xlink:href="#DejaVuSans-Bold-76" transform="translate(1166.162109 0)"/>
    <use xlink:href="#DejaVuSans-Bold-31" transform="translate(1231.347656 0)"/>
    <use xlink:href="#DejaVuSans-Bold-20" transform="translate(1300.927734 0)"/>
    <use xlink:href="#DejaVuSans-Bold-28" transform="translate(1335.742188 0)"/>
    <use xlink:href="#DejaVuSans-Bold-44" transform="translate(1381.445312 0)"/>
    <use xlink:href="#DejaVuSans-Bold-69" transform="translate(1464.453125 0)"/>
    <use xlink:href="#DejaVuSans-Bold-73" transform="translate(1498.730469 0)"/>
    <use xlink:href="#DejaVuSans-Bold-63" transform="translate(1558.251953 0)"/>
    <use xlink:href="#DejaVuSans-Bold-72" transform="translate(1617.529297 0)"/>
    <use xlink:href="#DejaVuSans-Bold-65" transform="translate(1666.845703 0)"/>
    <use xlink:href="#DejaVuSans-Bold-74" transform="translate(1734.667969 0)"/>
    <use xlink:href="#DejaVuSans-Bold-69" transform="translate(1782.470703 0)"/>
    <use xlink:href="#DejaVuSans-Bold-7a" transform="translate(1816.748047 0)"/>
    <use xlink:href="#DejaVuSans-Bold-65" transform="translate(1874.951172 0)"/>
    <use xlink:href="#DejaVuSans-Bold-64" transform="translate(1942.773438 0)"/>
    <use xlink:href="#DejaVuSans-Bold-29" transform="translate(2014.355469 0)"/>
    <use xlink:href="#DejaVuSans-Bold-20" transform="translate(2060.058594 0)"/>
    <use xlink:href="#DejaVuSans-Bold-28" transform="translate(2094.873047 0)"/>
    <use xlink:href="#DejaVuSans-Bold-4e" transform="translate(2140.576172 0)"/>
    <use xlink:href="#DejaVuSans-Bold-6f" transform="translate(2224.267578 0)"/>
    <use xlink:href="#DejaVuSans-Bold-20" transform="translate(2292.96875 0)"/>
    <use xlink:href="#DejaVuSans-Bold-6d" transform="translate(2327.783203 0)"/>
    <use xlink:href="#DejaVuSans-Bold-6f" transform="translate(2431.982422 0)"/>
    <use xlink:href="#DejaVuSans-Bold-64" transform="translate(2500.683594 0)"/>
    <use xlink:href="#DejaVuSans-Bold-69" transform="translate(2572.265625 0)"/>
    <use xlink:href="#DejaVuSans-Bold-66" transform="translate(2606.542969 0)"/>
    <use xlink:href="#DejaVuSans-Bold-69" transform="translate(2650.048828 0)"/>
    <use xlink:href="#DejaVuSans-Bold-63" transform="translate(2684.326172 0)"/>
    <use xlink:href="#DejaVuSans-Bold-61" transform="translate(2743.603516 0)"/>
    <use xlink:href="#DejaVuSans-Bold-74" transform="translate(2811.083984 0)"/>
    <use xlink:href="#DejaVuSans-Bold-69" transform="translate(2858.886719 0)"/>
    <use xlink:href="#DejaVuSans-Bold-6f" transform="translate(2893.164062 0)"/>
    <use xlink:href="#DejaVuSans-Bold-6e" transform="translate(2961.865234 0)"/>
    <use xlink:href="#DejaVuSans-Bold-29" transform="translate(3033.056641 0)"/>
   </g>
  </g>
 </g>
 <defs>
  <clipPath id="peddc999d49">
   <rect x="65.63" y="57.0062" width="571.57" height="333.0338"/>
  </clipPath>
 </defs>
</svg>
