<?xml version="1.0" encoding="utf-8" standalone="no"?>
<!DOCTYPE svg PUBLIC "-//W3C//DTD SVG 1.1//EN"
  "http://www.w3.org/Graphics/SVG/1.1/DTD/svg11.dtd">
<svg xmlns:xlink="http://www.w3.org/1999/xlink" width="648pt" height="432pt" viewBox="0 0 648 432" xmlns="http://www.w3.org/2000/svg" version="1.1">
 <metadata>
  <rdf:RDF xmlns:dc="http://purl.org/dc/elements/1.1/" xmlns:cc="http://creativecommons.org/ns#" xmlns:rdf="http://www.w3.org/1999/02/22-rdf-syntax-ns#">
   <cc:Work>
    <dc:type rdf:resource="http://purl.org/dc/dcmitype/StillImage"/>
    <dc:date>2025-07-27T14:37:21.626727</dc:date>
    <dc:format>image/svg+xml</dc:format>
    <dc:creator>
     <cc:Agent>
      <dc:title>Matplotlib v3.10.0, https://matplotlib.org/</dc:title>
     </cc:Agent>
    </dc:creator>
   </cc:Work>
  </rdf:RDF>
 </metadata>
 <defs>
  <style type="text/css">*{stroke-linejoin: round; stroke-linecap: butt}</style>
 </defs>
 <g id="figure_1">
  <g id="patch_1">
   <path d="M 0 432 
L 648 432 
L 648 0 
L 0 0 
z
" style="fill: #ffffff"/>
  </g>
  <g id="axes_1">
   <g id="patch_2">
    <path d="M 65.63 390.04 
L 637.2 390.04 
L 637.2 57.0062 
L 65.63 57.0062 
z
" style="fill: #eaeaf2"/>
   </g>
   <g id="matplotlib.axis_1">
    <g id="xtick_1">
     <g id="line2d_1">
      <path d="M 65.630837 390.04 
L 65.630837 57.0062 
" clip-path="url(#pebc2a93741)" style="fill: none; stroke: #ffffff; stroke-width: 0.8; stroke-linecap: round"/>
     </g>
     <g id="text_1">
      <!-- 0.00 -->
      <g style="fill: #262626" transform="translate(54.498025 404.638438) scale(0.1 -0.1)">
       <defs>
        <path id="DejaVuSans-30" d="M 2034 4250 
Q 1547 4250 1301 3770 
Q 1056 3291 1056 2328 
Q 1056 1369 1301 889 
Q 1547 409 2034 409 
Q 2525 409 2770 889 
Q 3016 1369 3016 2328 
Q 3016 3291 2770 3770 
Q 2525 4250 2034 4250 
z
M 2034 4750 
Q 2819 4750 3233 4129 
Q 3647 3509 3647 2328 
Q 3647 1150 3233 529 
Q 2819 -91 2034 -91 
Q 1250 -91 836 529 
Q 422 1150 422 2328 
Q 422 3509 836 4129 
Q 1250 4750 2034 4750 
z
" transform="scale(0.015625)"/>
        <path id="DejaVuSans-2e" d="M 684 794 
L 1344 794 
L 1344 0 
L 684 0 
L 684 794 
z
" transform="scale(0.015625)"/>
       </defs>
       <use xlink:href="#DejaVuSans-30"/>
       <use xlink:href="#DejaVuSans-2e" transform="translate(63.623047 0)"/>
       <use xlink:href="#DejaVuSans-30" transform="translate(95.410156 0)"/>
       <use xlink:href="#DejaVuSans-30" transform="translate(159.033203 0)"/>
      </g>
     </g>
    </g>
    <g id="xtick_2">
     <g id="line2d_2">
      <path d="M 135.402361 390.04 
L 135.402361 57.0062 
" clip-path="url(#pebc2a93741)" style="fill: none; stroke: #ffffff; stroke-width: 0.8; stroke-linecap: round"/>
     </g>
     <g id="text_2">
      <!-- 0.25 -->
      <g style="fill: #262626" transform="translate(124.269549 404.638438) scale(0.1 -0.1)">
       <defs>
        <path id="DejaVuSans-32" d="M 1228 531 
L 3431 531 
L 3431 0 
L 469 0 
L 469 531 
Q 828 903 1448 1529 
Q 2069 2156 2228 2338 
Q 2531 2678 2651 2914 
Q 2772 3150 2772 3378 
Q 2772 3750 2511 3984 
Q 2250 4219 1831 4219 
Q 1534 4219 1204 4116 
Q 875 4013 500 3803 
L 500 4441 
Q 881 4594 1212 4672 
Q 1544 4750 1819 4750 
Q 2544 4750 2975 4387 
Q 3406 4025 3406 3419 
Q 3406 3131 3298 2873 
Q 3191 2616 2906 2266 
Q 2828 2175 2409 1742 
Q 1991 1309 1228 531 
z
" transform="scale(0.015625)"/>
        <path id="DejaVuSans-35" d="M 691 4666 
L 3169 4666 
L 3169 4134 
L 1269 4134 
L 1269 2991 
Q 1406 3038 1543 3061 
Q 1681 3084 1819 3084 
Q 2600 3084 3056 2656 
Q 3513 2228 3513 1497 
Q 3513 744 3044 326 
Q 2575 -91 1722 -91 
Q 1428 -91 1123 -41 
Q 819 9 494 109 
L 494 744 
Q 775 591 1075 516 
Q 1375 441 1709 441 
Q 2250 441 2565 725 
Q 2881 1009 2881 1497 
Q 2881 1984 2565 2268 
Q 2250 2553 1709 2553 
Q 1456 2553 1204 2497 
Q 953 2441 691 2322 
L 691 4666 
z
" transform="scale(0.015625)"/>
       </defs>
       <use xlink:href="#DejaVuSans-30"/>
       <use xlink:href="#DejaVuSans-2e" transform="translate(63.623047 0)"/>
       <use xlink:href="#DejaVuSans-32" transform="translate(95.410156 0)"/>
       <use xlink:href="#DejaVuSans-35" transform="translate(159.033203 0)"/>
      </g>
     </g>
    </g>
    <g id="xtick_3">
     <g id="line2d_3">
      <path d="M 205.173885 390.04 
L 205.173885 57.0062 
" clip-path="url(#pebc2a93741)" style="fill: none; stroke: #ffffff; stroke-width: 0.8; stroke-linecap: round"/>
     </g>
     <g id="text_3">
      <!-- 0.50 -->
      <g style="fill: #262626" transform="translate(194.041073 404.638438) scale(0.1 -0.1)">
       <use xlink:href="#DejaVuSans-30"/>
       <use xlink:href="#DejaVuSans-2e" transform="translate(63.623047 0)"/>
       <use xlink:href="#DejaVuSans-35" transform="translate(95.410156 0)"/>
       <use xlink:href="#DejaVuSans-30" transform="translate(159.033203 0)"/>
      </g>
     </g>
    </g>
    <g id="xtick_4">
     <g id="line2d_4">
      <path d="M 274.94541 390.04 
L 274.94541 57.0062 
" clip-path="url(#pebc2a93741)" style="fill: none; stroke: #ffffff; stroke-width: 0.8; stroke-linecap: round"/>
     </g>
     <g id="text_4">
      <!-- 0.75 -->
      <g style="fill: #262626" transform="translate(263.812597 404.638438) scale(0.1 -0.1)">
       <defs>
        <path id="DejaVuSans-37" d="M 525 4666 
L 3525 4666 
L 3525 4397 
L 1831 0 
L 1172 0 
L 2766 4134 
L 525 4134 
L 525 4666 
z
" transform="scale(0.015625)"/>
       </defs>
       <use xlink:href="#DejaVuSans-30"/>
       <use xlink:href="#DejaVuSans-2e" transform="translate(63.623047 0)"/>
       <use xlink:href="#DejaVuSans-37" transform="translate(95.410156 0)"/>
       <use xlink:href="#DejaVuSans-35" transform="translate(159.033203 0)"/>
      </g>
     </g>
    </g>
    <g id="xtick_5">
     <g id="line2d_5">
      <path d="M 344.716934 390.04 
L 344.716934 57.0062 
" clip-path="url(#pebc2a93741)" style="fill: none; stroke: #ffffff; stroke-width: 0.8; stroke-linecap: round"/>
     </g>
     <g id="text_5">
      <!-- 1.00 -->
      <g style="fill: #262626" transform="translate(333.584121 404.638438) scale(0.1 -0.1)">
       <defs>
        <path id="DejaVuSans-31" d="M 794 531 
L 1825 531 
L 1825 4091 
L 703 3866 
L 703 4441 
L 1819 4666 
L 2450 4666 
L 2450 531 
L 3481 531 
L 3481 0 
L 794 0 
L 794 531 
z
" transform="scale(0.015625)"/>
       </defs>
       <use xlink:href="#DejaVuSans-31"/>
       <use xlink:href="#DejaVuSans-2e" transform="translate(63.623047 0)"/>
       <use xlink:href="#DejaVuSans-30" transform="translate(95.410156 0)"/>
       <use xlink:href="#DejaVuSans-30" transform="translate(159.033203 0)"/>
      </g>
     </g>
    </g>
    <g id="xtick_6">
     <g id="line2d_6">
      <path d="M 414.488458 390.04 
L 414.488458 57.0062 
" clip-path="url(#pebc2a93741)" style="fill: none; stroke: #ffffff; stroke-width: 0.8; stroke-linecap: round"/>
     </g>
     <g id="text_6">
      <!-- 1.25 -->
      <g style="fill: #262626" transform="translate(403.355645 404.638438) scale(0.1 -0.1)">
       <use xlink:href="#DejaVuSans-31"/>
       <use xlink:href="#DejaVuSans-2e" transform="translate(63.623047 0)"/>
       <use xlink:href="#DejaVuSans-32" transform="translate(95.410156 0)"/>
       <use xlink:href="#DejaVuSans-35" transform="translate(159.033203 0)"/>
      </g>
     </g>
    </g>
    <g id="xtick_7">
     <g id="line2d_7">
      <path d="M 484.259982 390.04 
L 484.259982 57.0062 
" clip-path="url(#pebc2a93741)" style="fill: none; stroke: #ffffff; stroke-width: 0.8; stroke-linecap: round"/>
     </g>
     <g id="text_7">
      <!-- 1.50 -->
      <g style="fill: #262626" transform="translate(473.127169 404.638438) scale(0.1 -0.1)">
       <use xlink:href="#DejaVuSans-31"/>
       <use xlink:href="#DejaVuSans-2e" transform="translate(63.623047 0)"/>
       <use xlink:href="#DejaVuSans-35" transform="translate(95.410156 0)"/>
       <use xlink:href="#DejaVuSans-30" transform="translate(159.033203 0)"/>
      </g>
     </g>
    </g>
    <g id="xtick_8">
     <g id="line2d_8">
      <path d="M 554.031506 390.04 
L 554.031506 57.0062 
" clip-path="url(#pebc2a93741)" style="fill: none; stroke: #ffffff; stroke-width: 0.8; stroke-linecap: round"/>
     </g>
     <g id="text_8">
      <!-- 1.75 -->
      <g style="fill: #262626" transform="translate(542.898694 404.638438) scale(0.1 -0.1)">
       <use xlink:href="#DejaVuSans-31"/>
       <use xlink:href="#DejaVuSans-2e" transform="translate(63.623047 0)"/>
       <use xlink:href="#DejaVuSans-37" transform="translate(95.410156 0)"/>
       <use xlink:href="#DejaVuSans-35" transform="translate(159.033203 0)"/>
      </g>
     </g>
    </g>
    <g id="xtick_9">
     <g id="line2d_9">
      <path d="M 623.80303 390.04 
L 623.80303 57.0062 
" clip-path="url(#pebc2a93741)" style="fill: none; stroke: #ffffff; stroke-width: 0.8; stroke-linecap: round"/>
     </g>
     <g id="text_9">
      <!-- 2.00 -->
      <g style="fill: #262626" transform="translate(612.670218 404.638438) scale(0.1 -0.1)">
       <use xlink:href="#DejaVuSans-32"/>
       <use xlink:href="#DejaVuSans-2e" transform="translate(63.623047 0)"/>
       <use xlink:href="#DejaVuSans-30" transform="translate(95.410156 0)"/>
       <use xlink:href="#DejaVuSans-30" transform="translate(159.033203 0)"/>
      </g>
     </g>
    </g>
    <g id="text_10">
     <!-- Steps -->
     <g style="fill: #262626" transform="translate(337.425156 418.316562) scale(0.1 -0.1)">
      <defs>
       <path id="DejaVuSans-53" d="M 3425 4513 
L 3425 3897 
Q 3066 4069 2747 4153 
Q 2428 4238 2131 4238 
Q 1616 4238 1336 4038 
Q 1056 3838 1056 3469 
Q 1056 3159 1242 3001 
Q 1428 2844 1947 2747 
L 2328 2669 
Q 3034 2534 3370 2195 
Q 3706 1856 3706 1288 
Q 3706 609 3251 259 
Q 2797 -91 1919 -91 
Q 1588 -91 1214 -16 
Q 841 59 441 206 
L 441 856 
Q 825 641 1194 531 
Q 1563 422 1919 422 
Q 2459 422 2753 634 
Q 3047 847 3047 1241 
Q 3047 1584 2836 1778 
Q 2625 1972 2144 2069 
L 1759 2144 
Q 1053 2284 737 2584 
Q 422 2884 422 3419 
Q 422 4038 858 4394 
Q 1294 4750 2059 4750 
Q 2388 4750 2728 4690 
Q 3069 4631 3425 4513 
z
" transform="scale(0.015625)"/>
       <path id="DejaVuSans-74" d="M 1172 4494 
L 1172 3500 
L 2356 3500 
L 2356 3053 
L 1172 3053 
L 1172 1153 
Q 1172 725 1289 603 
Q 1406 481 1766 481 
L 2356 481 
L 2356 0 
L 1766 0 
Q 1100 0 847 248 
Q 594 497 594 1153 
L 594 3053 
L 172 3053 
L 172 3500 
L 594 3500 
L 594 4494 
L 1172 4494 
z
" transform="scale(0.015625)"/>
       <path id="DejaVuSans-65" d="M 3597 1894 
L 3597 1613 
L 953 1613 
Q 991 1019 1311 708 
Q 1631 397 2203 397 
Q 2534 397 2845 478 
Q 3156 559 3463 722 
L 3463 178 
Q 3153 47 2828 -22 
Q 2503 -91 2169 -91 
Q 1331 -91 842 396 
Q 353 884 353 1716 
Q 353 2575 817 3079 
Q 1281 3584 2069 3584 
Q 2775 3584 3186 3129 
Q 3597 2675 3597 1894 
z
M 3022 2063 
Q 3016 2534 2758 2815 
Q 2500 3097 2075 3097 
Q 1594 3097 1305 2825 
Q 1016 2553 972 2059 
L 3022 2063 
z
" transform="scale(0.015625)"/>
       <path id="DejaVuSans-70" d="M 1159 525 
L 1159 -1331 
L 581 -1331 
L 581 3500 
L 1159 3500 
L 1159 2969 
Q 1341 3281 1617 3432 
Q 1894 3584 2278 3584 
Q 2916 3584 3314 3078 
Q 3713 2572 3713 1747 
Q 3713 922 3314 415 
Q 2916 -91 2278 -91 
Q 1894 -91 1617 61 
Q 1341 213 1159 525 
z
M 3116 1747 
Q 3116 2381 2855 2742 
Q 2594 3103 2138 3103 
Q 1681 3103 1420 2742 
Q 1159 2381 1159 1747 
Q 1159 1113 1420 752 
Q 1681 391 2138 391 
Q 2594 391 2855 752 
Q 3116 1113 3116 1747 
z
" transform="scale(0.015625)"/>
       <path id="DejaVuSans-73" d="M 2834 3397 
L 2834 2853 
Q 2591 2978 2328 3040 
Q 2066 3103 1784 3103 
Q 1356 3103 1142 2972 
Q 928 2841 928 2578 
Q 928 2378 1081 2264 
Q 1234 2150 1697 2047 
L 1894 2003 
Q 2506 1872 2764 1633 
Q 3022 1394 3022 966 
Q 3022 478 2636 193 
Q 2250 -91 1575 -91 
Q 1294 -91 989 -36 
Q 684 19 347 128 
L 347 722 
Q 666 556 975 473 
Q 1284 391 1588 391 
Q 1994 391 2212 530 
Q 2431 669 2431 922 
Q 2431 1156 2273 1281 
Q 2116 1406 1581 1522 
L 1381 1569 
Q 847 1681 609 1914 
Q 372 2147 372 2553 
Q 372 3047 722 3315 
Q 1072 3584 1716 3584 
Q 2034 3584 2315 3537 
Q 2597 3491 2834 3397 
z
" transform="scale(0.015625)"/>
      </defs>
      <use xlink:href="#DejaVuSans-53"/>
      <use xlink:href="#DejaVuSans-74" transform="translate(63.476562 0)"/>
      <use xlink:href="#DejaVuSans-65" transform="translate(102.685547 0)"/>
      <use xlink:href="#DejaVuSans-70" transform="translate(164.208984 0)"/>
      <use xlink:href="#DejaVuSans-73" transform="translate(227.685547 0)"/>
     </g>
    </g>
    <g id="text_11">
     <!-- 1e6 -->
     <g style="fill: #262626" transform="translate(618.321875 417.316562) scale(0.1 -0.1)">
      <defs>
       <path id="DejaVuSans-36" d="M 2113 2584 
Q 1688 2584 1439 2293 
Q 1191 2003 1191 1497 
Q 1191 994 1439 701 
Q 1688 409 2113 409 
Q 2538 409 2786 701 
Q 3034 994 3034 1497 
Q 3034 2003 2786 2293 
Q 2538 2584 2113 2584 
z
M 3366 4563 
L 3366 3988 
Q 3128 4100 2886 4159 
Q 2644 4219 2406 4219 
Q 1781 4219 1451 3797 
Q 1122 3375 1075 2522 
Q 1259 2794 1537 2939 
Q 1816 3084 2150 3084 
Q 2853 3084 3261 2657 
Q 3669 2231 3669 1497 
Q 3669 778 3244 343 
Q 2819 -91 2113 -91 
Q 1303 -91 875 529 
Q 447 1150 447 2328 
Q 447 3434 972 4092 
Q 1497 4750 2381 4750 
Q 2619 4750 2861 4703 
Q 3103 4656 3366 4563 
z
" transform="scale(0.015625)"/>
      </defs>
      <use xlink:href="#DejaVuSans-31"/>
      <use xlink:href="#DejaVuSans-65" transform="translate(63.623047 0)"/>
      <use xlink:href="#DejaVuSans-36" transform="translate(125.146484 0)"/>
     </g>
    </g>
   </g>
   <g id="matplotlib.axis_2">
    <g id="ytick_1">
     <g id="line2d_10">
      <path d="M 65.63 390.04 
L 637.2 390.04 
" clip-path="url(#pebc2a93741)" style="fill: none; stroke: #ffffff; stroke-width: 0.8; stroke-linecap: round"/>
     </g>
     <g id="text_12">
      <!-- −1600 -->
      <g style="fill: #262626" transform="translate(24.800313 393.839219) scale(0.1 -0.1)">
       <defs>
        <path id="DejaVuSans-2212" d="M 678 2272 
L 4684 2272 
L 4684 1741 
L 678 1741 
L 678 2272 
z
" transform="scale(0.015625)"/>
       </defs>
       <use xlink:href="#DejaVuSans-2212"/>
       <use xlink:href="#DejaVuSans-31" transform="translate(83.789062 0)"/>
       <use xlink:href="#DejaVuSans-36" transform="translate(147.412109 0)"/>
       <use xlink:href="#DejaVuSans-30" transform="translate(211.035156 0)"/>
       <use xlink:href="#DejaVuSans-30" transform="translate(274.658203 0)"/>
      </g>
     </g>
    </g>
    <g id="ytick_2">
     <g id="line2d_11">
      <path d="M 65.63 348.410775 
L 637.2 348.410775 
" clip-path="url(#pebc2a93741)" style="fill: none; stroke: #ffffff; stroke-width: 0.8; stroke-linecap: round"/>
     </g>
     <g id="text_13">
      <!-- −1400 -->
      <g style="fill: #262626" transform="translate(24.800313 352.209994) scale(0.1 -0.1)">
       <defs>
        <path id="DejaVuSans-34" d="M 2419 4116 
L 825 1625 
L 2419 1625 
L 2419 4116 
z
M 2253 4666 
L 3047 4666 
L 3047 1625 
L 3713 1625 
L 3713 1100 
L 3047 1100 
L 3047 0 
L 2419 0 
L 2419 1100 
L 313 1100 
L 313 1709 
L 2253 4666 
z
" transform="scale(0.015625)"/>
       </defs>
       <use xlink:href="#DejaVuSans-2212"/>
       <use xlink:href="#DejaVuSans-31" transform="translate(83.789062 0)"/>
       <use xlink:href="#DejaVuSans-34" transform="translate(147.412109 0)"/>
       <use xlink:href="#DejaVuSans-30" transform="translate(211.035156 0)"/>
       <use xlink:href="#DejaVuSans-30" transform="translate(274.658203 0)"/>
      </g>
     </g>
    </g>
    <g id="ytick_3">
     <g id="line2d_12">
      <path d="M 65.63 306.78155 
L 637.2 306.78155 
" clip-path="url(#pebc2a93741)" style="fill: none; stroke: #ffffff; stroke-width: 0.8; stroke-linecap: round"/>
     </g>
     <g id="text_14">
      <!-- −1200 -->
      <g style="fill: #262626" transform="translate(24.800313 310.580769) scale(0.1 -0.1)">
       <use xlink:href="#DejaVuSans-2212"/>
       <use xlink:href="#DejaVuSans-31" transform="translate(83.789062 0)"/>
       <use xlink:href="#DejaVuSans-32" transform="translate(147.412109 0)"/>
       <use xlink:href="#DejaVuSans-30" transform="translate(211.035156 0)"/>
       <use xlink:href="#DejaVuSans-30" transform="translate(274.658203 0)"/>
      </g>
     </g>
    </g>
    <g id="ytick_4">
     <g id="line2d_13">
      <path d="M 65.63 265.152325 
L 637.2 265.152325 
" clip-path="url(#pebc2a93741)" style="fill: none; stroke: #ffffff; stroke-width: 0.8; stroke-linecap: round"/>
     </g>
     <g id="text_15">
      <!-- −1000 -->
      <g style="fill: #262626" transform="translate(24.800313 268.951544) scale(0.1 -0.1)">
       <use xlink:href="#DejaVuSans-2212"/>
       <use xlink:href="#DejaVuSans-31" transform="translate(83.789062 0)"/>
       <use xlink:href="#DejaVuSans-30" transform="translate(147.412109 0)"/>
       <use xlink:href="#DejaVuSans-30" transform="translate(211.035156 0)"/>
       <use xlink:href="#DejaVuSans-30" transform="translate(274.658203 0)"/>
      </g>
     </g>
    </g>
    <g id="ytick_5">
     <g id="line2d_14">
      <path d="M 65.63 223.5231 
L 637.2 223.5231 
" clip-path="url(#pebc2a93741)" style="fill: none; stroke: #ffffff; stroke-width: 0.8; stroke-linecap: round"/>
     </g>
     <g id="text_16">
      <!-- −800 -->
      <g style="fill: #262626" transform="translate(31.162813 227.322319) scale(0.1 -0.1)">
       <defs>
        <path id="DejaVuSans-38" d="M 2034 2216 
Q 1584 2216 1326 1975 
Q 1069 1734 1069 1313 
Q 1069 891 1326 650 
Q 1584 409 2034 409 
Q 2484 409 2743 651 
Q 3003 894 3003 1313 
Q 3003 1734 2745 1975 
Q 2488 2216 2034 2216 
z
M 1403 2484 
Q 997 2584 770 2862 
Q 544 3141 544 3541 
Q 544 4100 942 4425 
Q 1341 4750 2034 4750 
Q 2731 4750 3128 4425 
Q 3525 4100 3525 3541 
Q 3525 3141 3298 2862 
Q 3072 2584 2669 2484 
Q 3125 2378 3379 2068 
Q 3634 1759 3634 1313 
Q 3634 634 3220 271 
Q 2806 -91 2034 -91 
Q 1263 -91 848 271 
Q 434 634 434 1313 
Q 434 1759 690 2068 
Q 947 2378 1403 2484 
z
M 1172 3481 
Q 1172 3119 1398 2916 
Q 1625 2713 2034 2713 
Q 2441 2713 2670 2916 
Q 2900 3119 2900 3481 
Q 2900 3844 2670 4047 
Q 2441 4250 2034 4250 
Q 1625 4250 1398 4047 
Q 1172 3844 1172 3481 
z
" transform="scale(0.015625)"/>
       </defs>
       <use xlink:href="#DejaVuSans-2212"/>
       <use xlink:href="#DejaVuSans-38" transform="translate(83.789062 0)"/>
       <use xlink:href="#DejaVuSans-30" transform="translate(147.412109 0)"/>
       <use xlink:href="#DejaVuSans-30" transform="translate(211.035156 0)"/>
      </g>
     </g>
    </g>
    <g id="ytick_6">
     <g id="line2d_15">
      <path d="M 65.63 181.893875 
L 637.2 181.893875 
" clip-path="url(#pebc2a93741)" style="fill: none; stroke: #ffffff; stroke-width: 0.8; stroke-linecap: round"/>
     </g>
     <g id="text_17">
      <!-- −600 -->
      <g style="fill: #262626" transform="translate(31.162813 185.693094) scale(0.1 -0.1)">
       <use xlink:href="#DejaVuSans-2212"/>
       <use xlink:href="#DejaVuSans-36" transform="translate(83.789062 0)"/>
       <use xlink:href="#DejaVuSans-30" transform="translate(147.412109 0)"/>
       <use xlink:href="#DejaVuSans-30" transform="translate(211.035156 0)"/>
      </g>
     </g>
    </g>
    <g id="ytick_7">
     <g id="line2d_16">
      <path d="M 65.63 140.26465 
L 637.2 140.26465 
" clip-path="url(#pebc2a93741)" style="fill: none; stroke: #ffffff; stroke-width: 0.8; stroke-linecap: round"/>
     </g>
     <g id="text_18">
      <!-- −400 -->
      <g style="fill: #262626" transform="translate(31.162813 144.063869) scale(0.1 -0.1)">
       <use xlink:href="#DejaVuSans-2212"/>
       <use xlink:href="#DejaVuSans-34" transform="translate(83.789062 0)"/>
       <use xlink:href="#DejaVuSans-30" transform="translate(147.412109 0)"/>
       <use xlink:href="#DejaVuSans-30" transform="translate(211.035156 0)"/>
      </g>
     </g>
    </g>
    <g id="ytick_8">
     <g id="line2d_17">
      <path d="M 65.63 98.635425 
L 637.2 98.635425 
" clip-path="url(#pebc2a93741)" style="fill: none; stroke: #ffffff; stroke-width: 0.8; stroke-linecap: round"/>
     </g>
     <g id="text_19">
      <!-- −200 -->
      <g style="fill: #262626" transform="translate(31.162813 102.434644) scale(0.1 -0.1)">
       <use xlink:href="#DejaVuSans-2212"/>
       <use xlink:href="#DejaVuSans-32" transform="translate(83.789062 0)"/>
       <use xlink:href="#DejaVuSans-30" transform="translate(147.412109 0)"/>
       <use xlink:href="#DejaVuSans-30" transform="translate(211.035156 0)"/>
      </g>
     </g>
    </g>
    <g id="ytick_9">
     <g id="line2d_18">
      <path d="M 65.63 57.0062 
L 637.2 57.0062 
" clip-path="url(#pebc2a93741)" style="fill: none; stroke: #ffffff; stroke-width: 0.8; stroke-linecap: round"/>
     </g>
     <g id="text_20">
      <!-- 0 -->
      <g style="fill: #262626" transform="translate(52.2675 60.805419) scale(0.1 -0.1)">
       <use xlink:href="#DejaVuSans-30"/>
      </g>
     </g>
    </g>
    <g id="text_21">
     <!-- Reward -->
     <g style="fill: #262626" transform="translate(18.720625 242.144194) rotate(-90) scale(0.1 -0.1)">
      <defs>
       <path id="DejaVuSans-52" d="M 2841 2188 
Q 3044 2119 3236 1894 
Q 3428 1669 3622 1275 
L 4263 0 
L 3584 0 
L 2988 1197 
Q 2756 1666 2539 1819 
Q 2322 1972 1947 1972 
L 1259 1972 
L 1259 0 
L 628 0 
L 628 4666 
L 2053 4666 
Q 2853 4666 3247 4331 
Q 3641 3997 3641 3322 
Q 3641 2881 3436 2590 
Q 3231 2300 2841 2188 
z
M 1259 4147 
L 1259 2491 
L 2053 2491 
Q 2509 2491 2742 2702 
Q 2975 2913 2975 3322 
Q 2975 3731 2742 3939 
Q 2509 4147 2053 4147 
L 1259 4147 
z
" transform="scale(0.015625)"/>
       <path id="DejaVuSans-77" d="M 269 3500 
L 844 3500 
L 1563 769 
L 2278 3500 
L 2956 3500 
L 3675 769 
L 4391 3500 
L 4966 3500 
L 4050 0 
L 3372 0 
L 2619 2869 
L 1863 0 
L 1184 0 
L 269 3500 
z
" transform="scale(0.015625)"/>
       <path id="DejaVuSans-61" d="M 2194 1759 
Q 1497 1759 1228 1600 
Q 959 1441 959 1056 
Q 959 750 1161 570 
Q 1363 391 1709 391 
Q 2188 391 2477 730 
Q 2766 1069 2766 1631 
L 2766 1759 
L 2194 1759 
z
M 3341 1997 
L 3341 0 
L 2766 0 
L 2766 531 
Q 2569 213 2275 61 
Q 1981 -91 1556 -91 
Q 1019 -91 701 211 
Q 384 513 384 1019 
Q 384 1609 779 1909 
Q 1175 2209 1959 2209 
L 2766 2209 
L 2766 2266 
Q 2766 2663 2505 2880 
Q 2244 3097 1772 3097 
Q 1472 3097 1187 3025 
Q 903 2953 641 2809 
L 641 3341 
Q 956 3463 1253 3523 
Q 1550 3584 1831 3584 
Q 2591 3584 2966 3190 
Q 3341 2797 3341 1997 
z
" transform="scale(0.015625)"/>
       <path id="DejaVuSans-72" d="M 2631 2963 
Q 2534 3019 2420 3045 
Q 2306 3072 2169 3072 
Q 1681 3072 1420 2755 
Q 1159 2438 1159 1844 
L 1159 0 
L 581 0 
L 581 3500 
L 1159 3500 
L 1159 2956 
Q 1341 3275 1631 3429 
Q 1922 3584 2338 3584 
Q 2397 3584 2469 3576 
Q 2541 3569 2628 3553 
L 2631 2963 
z
" transform="scale(0.015625)"/>
       <path id="DejaVuSans-64" d="M 2906 2969 
L 2906 4863 
L 3481 4863 
L 3481 0 
L 2906 0 
L 2906 525 
Q 2725 213 2448 61 
Q 2172 -91 1784 -91 
Q 1150 -91 751 415 
Q 353 922 353 1747 
Q 353 2572 751 3078 
Q 1150 3584 1784 3584 
Q 2172 3584 2448 3432 
Q 2725 3281 2906 2969 
z
M 947 1747 
Q 947 1113 1208 752 
Q 1469 391 1925 391 
Q 2381 391 2643 752 
Q 2906 1113 2906 1747 
Q 2906 2381 2643 2742 
Q 2381 3103 1925 3103 
Q 1469 3103 1208 2742 
Q 947 2381 947 1747 
z
" transform="scale(0.015625)"/>
      </defs>
      <use xlink:href="#DejaVuSans-52"/>
      <use xlink:href="#DejaVuSans-65" transform="translate(64.982422 0)"/>
      <use xlink:href="#DejaVuSans-77" transform="translate(126.505859 0)"/>
      <use xlink:href="#DejaVuSans-61" transform="translate(208.292969 0)"/>
      <use xlink:href="#DejaVuSans-72" transform="translate(269.572266 0)"/>
      <use xlink:href="#DejaVuSans-64" transform="translate(308.935547 0)"/>
     </g>
    </g>
   </g>
   <g id="FillBetweenPolyCollection_1">
    <path d="M 65.630837 299.625964 
L 65.630837 321.700041 
L 71.346521 311.457042 
L 77.062204 320.08961 
L 82.777887 298.200849 
L 88.49357 309.720959 
L 94.209254 313.586222 
L 99.924937 297.661224 
L 105.64062 297.610737 
L 111.356303 278.586599 
L 117.071987 291.247654 
L 122.78767 282.410327 
L 128.503353 271.354126 
L 134.219036 273.843707 
L 139.93472 266.021355 
L 145.650403 260.229956 
L 151.366086 259.889595 
L 157.081769 232.49599 
L 162.797453 223.9711 
L 168.513136 223.070958 
L 174.228819 204.635727 
L 179.944502 188.45841 
L 185.660186 169.547027 
L 191.375869 143.713684 
L 197.091552 133.765557 
L 202.807235 130.557857 
L 208.522919 122.17809 
L 214.238602 118.007363 
L 219.954285 119.550209 
L 225.669968 110.52536 
L 231.385652 102.708331 
L 237.101335 106.516993 
L 242.817018 105.982068 
L 248.532701 110.672091 
L 254.248385 118.241692 
L 259.964068 118.582069 
L 265.679751 121.426669 
L 271.395434 103.946398 
L 277.111118 105.341934 
L 282.826801 108.323377 
L 288.542484 106.940571 
L 294.258167 105.292348 
L 299.973851 122.031818 
L 305.689534 98.97098 
L 311.405217 105.71764 
L 317.1209 104.478771 
L 322.836584 107.734253 
L 328.552267 106.913069 
L 334.26795 98.299636 
L 339.983633 94.073793 
L 345.699317 96.433999 
L 351.415 96.801645 
L 357.130683 91.286661 
L 362.846367 101.381309 
L 368.56205 104.193996 
L 374.277733 97.393763 
L 379.993416 94.857722 
L 385.7091 101.050838 
L 391.424783 95.85131 
L 397.140466 93.451878 
L 402.856149 93.489229 
L 408.571833 102.097741 
L 414.287516 92.666934 
L 420.003199 95.845634 
L 425.718882 94.460837 
L 431.434566 93.405449 
L 437.150249 93.90021 
L 442.865932 96.156108 
L 448.581615 90.392035 
L 454.297299 92.979673 
L 460.012982 99.259869 
L 465.728665 88.012287 
L 471.444348 91.219507 
L 477.160032 98.959785 
L 482.875715 91.46104 
L 488.591398 90.614765 
L 494.307081 94.972308 
L 500.022765 91.902409 
L 505.738448 92.791741 
L 511.454131 90.771196 
L 517.169814 92.435559 
L 522.885498 90.432071 
L 528.601181 92.956686 
L 534.316864 90.53849 
L 540.032547 91.563564 
L 545.748231 92.332949 
L 551.463914 94.594947 
L 557.179597 90.361098 
L 562.89528 89.187697 
L 568.610964 90.805184 
L 574.326647 92.740622 
L 580.04233 91.568231 
L 585.758013 89.454168 
L 591.473697 92.245744 
L 597.18938 93.539136 
L 602.905063 91.941137 
L 608.620746 87.857404 
L 614.33643 92.352003 
L 620.052113 88.875262 
L 625.767796 91.541631 
L 631.483479 90.18562 
L 631.483479 85.298393 
L 631.483479 85.298393 
L 625.767796 85.12396 
L 620.052113 83.846009 
L 614.33643 84.199662 
L 608.620746 82.661554 
L 602.905063 85.460665 
L 597.18938 86.215377 
L 591.473697 85.264905 
L 585.758013 85.437036 
L 580.04233 86.662621 
L 574.326647 88.560787 
L 568.610964 86.16884 
L 562.89528 84.257816 
L 557.179597 84.673415 
L 551.463914 87.048017 
L 545.748231 84.105469 
L 540.032547 89.157093 
L 534.316864 86.302171 
L 528.601181 81.253746 
L 522.885498 84.166629 
L 517.169814 84.092317 
L 511.454131 83.961064 
L 505.738448 82.556652 
L 500.022765 86.981258 
L 494.307081 82.435785 
L 488.591398 85.87646 
L 482.875715 82.521977 
L 477.160032 88.776015 
L 471.444348 87.690148 
L 465.728665 85.178618 
L 460.012982 86.129844 
L 454.297299 88.454711 
L 448.581615 87.511716 
L 442.865932 87.619554 
L 437.150249 85.453785 
L 431.434566 86.752017 
L 425.718882 89.124774 
L 420.003199 88.385082 
L 414.287516 88.405839 
L 408.571833 85.236121 
L 402.856149 84.159544 
L 397.140466 89.603512 
L 391.424783 90.744305 
L 385.7091 86.541053 
L 379.993416 88.085133 
L 374.277733 90.085689 
L 368.56205 86.530973 
L 362.846367 88.810971 
L 357.130683 88.183098 
L 351.415 85.635197 
L 345.699317 83.354822 
L 339.983633 86.823629 
L 334.26795 88.988394 
L 328.552267 88.33224 
L 322.836584 90.034366 
L 317.1209 96.396363 
L 311.405217 84.095573 
L 305.689534 91.63401 
L 299.973851 96.343441 
L 294.258167 94.104496 
L 288.542484 92.011145 
L 282.826801 90.187968 
L 277.111118 93.29704 
L 271.395434 91.919676 
L 265.679751 91.922686 
L 259.964068 87.814668 
L 254.248385 93.160617 
L 248.532701 90.946127 
L 242.817018 95.703742 
L 237.101335 92.789547 
L 231.385652 99.207727 
L 225.669968 97.844861 
L 219.954285 101.868014 
L 214.238602 101.950679 
L 208.522919 103.648913 
L 202.807235 109.256822 
L 197.091552 101.931897 
L 191.375869 104.693153 
L 185.660186 112.453902 
L 179.944502 112.065207 
L 174.228819 106.80397 
L 168.513136 116.682246 
L 162.797453 140.899553 
L 157.081769 148.642056 
L 151.366086 184.087841 
L 145.650403 187.329329 
L 139.93472 204.023584 
L 134.219036 215.335202 
L 128.503353 233.780045 
L 122.78767 243.346097 
L 117.071987 264.988032 
L 111.356303 256.962018 
L 105.64062 269.598067 
L 99.924937 273.104505 
L 94.209254 279.018673 
L 88.49357 291.698729 
L 82.777887 284.733365 
L 77.062204 292.530572 
L 71.346521 292.411053 
L 65.630837 299.625964 
z
" clip-path="url(#pebc2a93741)" style="fill: #1f77b4; fill-opacity: 0.2"/>
   </g>
   <g id="FillBetweenPolyCollection_2">
    <path d="M 65.630837 301.645673 
L 65.630837 321.549301 
L 71.346521 316.030614 
L 77.062204 325.628773 
L 82.777887 306.744125 
L 88.49357 312.352052 
L 94.209254 291.573694 
L 99.924937 291.929706 
L 105.64062 289.366781 
L 111.356303 277.002221 
L 117.071987 297.146319 
L 122.78767 288.951984 
L 128.503353 291.35125 
L 134.219036 285.01099 
L 139.93472 281.459557 
L 145.650403 274.893623 
L 151.366086 268.565186 
L 157.081769 272.044403 
L 162.797453 278.194653 
L 168.513136 283.976458 
L 174.228819 269.606703 
L 179.944502 268.632556 
L 185.660186 271.879565 
L 191.375869 258.976748 
L 197.091552 264.604265 
L 202.807235 268.396411 
L 208.522919 261.424665 
L 214.238602 257.547951 
L 219.954285 261.474099 
L 225.669968 243.213101 
L 231.385652 243.391188 
L 237.101335 232.002285 
L 242.817018 225.981235 
L 248.532701 224.375128 
L 254.248385 221.857584 
L 259.964068 215.217848 
L 265.679751 199.508635 
L 271.395434 186.466586 
L 277.111118 181.199032 
L 282.826801 199.202306 
L 288.542484 172.429624 
L 294.258167 166.312307 
L 299.973851 256.081258 
L 305.689534 261.613597 
L 311.405217 241.398522 
L 317.1209 215.871134 
L 322.836584 237.867443 
L 328.552267 221.976773 
L 334.26795 224.159131 
L 339.983633 196.768253 
L 345.699317 200.895911 
L 351.415 220.062349 
L 357.130683 211.025946 
L 362.846367 199.544325 
L 368.56205 189.9505 
L 374.277733 185.381149 
L 379.993416 179.993537 
L 385.7091 203.728061 
L 391.424783 202.872977 
L 397.140466 198.913119 
L 402.856149 188.285722 
L 408.571833 168.944492 
L 414.287516 162.356961 
L 420.003199 173.111699 
L 425.718882 200.311421 
L 431.434566 182.543738 
L 437.150249 197.267747 
L 442.865932 188.680604 
L 448.581615 201.73137 
L 454.297299 210.76291 
L 460.012982 215.176976 
L 465.728665 243.9837 
L 471.444348 251.916441 
L 477.160032 257.054229 
L 482.875715 246.615711 
L 488.591398 249.319102 
L 494.307081 242.444148 
L 500.022765 249.483957 
L 505.738448 229.531292 
L 511.454131 238.812926 
L 517.169814 235.073632 
L 522.885498 242.304733 
L 528.601181 235.652863 
L 534.316864 231.311218 
L 540.032547 223.164932 
L 545.748231 215.620185 
L 551.463914 227.155993 
L 557.179597 225.147932 
L 562.89528 217.137471 
L 568.610964 225.914913 
L 574.326647 257.564362 
L 580.04233 218.915009 
L 585.758013 213.637832 
L 591.473697 218.735075 
L 597.18938 211.549019 
L 602.905063 207.886014 
L 608.620746 195.514526 
L 614.33643 212.767529 
L 620.052113 225.520955 
L 625.767796 197.585326 
L 631.483479 172.703846 
L 631.483479 92.923621 
L 631.483479 92.923621 
L 625.767796 98.235518 
L 620.052113 87.968078 
L 614.33643 90.582427 
L 608.620746 88.271909 
L 602.905063 91.609108 
L 597.18938 116.979313 
L 591.473697 94.353869 
L 585.758013 99.784044 
L 580.04233 100.925134 
L 574.326647 115.155821 
L 568.610964 93.043446 
L 562.89528 90.654275 
L 557.179597 98.518535 
L 551.463914 92.209081 
L 545.748231 93.697459 
L 540.032547 92.761254 
L 534.316864 90.697957 
L 528.601181 76.462735 
L 522.885498 100.066001 
L 517.169814 77.507278 
L 511.454131 82.268963 
L 505.738448 74.669977 
L 500.022765 82.455054 
L 494.307081 75.237279 
L 488.591398 70.86044 
L 482.875715 75.449165 
L 477.160032 84.172568 
L 471.444348 79.306005 
L 465.728665 75.974625 
L 460.012982 60.339442 
L 454.297299 65.635406 
L 448.581615 69.909436 
L 442.865932 82.843323 
L 437.150249 71.056543 
L 431.434566 80.742231 
L 425.718882 79.695907 
L 420.003199 86.621766 
L 414.287516 90.423995 
L 408.571833 69.900455 
L 402.856149 67.904926 
L 397.140466 89.617216 
L 391.424783 77.685981 
L 385.7091 87.21931 
L 379.993416 81.166503 
L 374.277733 83.072238 
L 368.56205 76.031905 
L 362.846367 103.003236 
L 357.130683 79.656532 
L 351.415 82.65861 
L 345.699317 98.384508 
L 339.983633 103.394349 
L 334.26795 94.975193 
L 328.552267 108.186693 
L 322.836584 99.19233 
L 317.1209 128.296875 
L 311.405217 123.134601 
L 305.689534 154.584282 
L 299.973851 118.40209 
L 294.258167 104.989801 
L 288.542484 100.934699 
L 282.826801 98.328526 
L 277.111118 102.715225 
L 271.395434 105.00329 
L 265.679751 98.339167 
L 259.964068 109.286487 
L 254.248385 102.54407 
L 248.532701 113.697097 
L 242.817018 114.84656 
L 237.101335 109.334665 
L 231.385652 118.260566 
L 225.669968 135.392457 
L 219.954285 140.886625 
L 214.238602 136.810959 
L 208.522919 149.878362 
L 202.807235 161.877719 
L 197.091552 156.85238 
L 191.375869 177.82512 
L 185.660186 186.419677 
L 179.944502 195.266652 
L 174.228819 199.009868 
L 168.513136 204.078657 
L 162.797453 223.497646 
L 157.081769 218.293011 
L 151.366086 241.470713 
L 145.650403 231.113864 
L 139.93472 228.251683 
L 134.219036 245.814775 
L 128.503353 240.783227 
L 122.78767 243.633352 
L 117.071987 258.367503 
L 111.356303 247.751165 
L 105.64062 244.745179 
L 99.924937 242.28214 
L 94.209254 269.371144 
L 88.49357 275.762719 
L 82.777887 276.685617 
L 77.062204 290.334643 
L 71.346521 297.728303 
L 65.630837 301.645673 
z
" clip-path="url(#pebc2a93741)" style="fill: #ff7f0e; fill-opacity: 0.2"/>
   </g>
   <g id="FillBetweenPolyCollection_3">
    <path d="M 65.630837 305.097345 
L 65.630837 319.068889 
L 71.346521 313.527007 
L 77.062204 326.042958 
L 82.777887 299.678686 
L 88.49357 296.527238 
L 94.209254 291.177402 
L 99.924937 286.295673 
L 105.64062 294.413754 
L 111.356303 299.727701 
L 117.071987 315.602203 
L 122.78767 311.160147 
L 128.503353 309.379467 
L 134.219036 310.798082 
L 139.93472 313.26781 
L 145.650403 306.774318 
L 151.366086 307.15859 
L 157.081769 308.94708 
L 162.797453 299.890791 
L 168.513136 307.621313 
L 174.228819 299.432224 
L 179.944502 334.613462 
L 185.660186 318.298965 
L 191.375869 309.811179 
L 197.091552 326.864266 
L 202.807235 319.222168 
L 208.522919 321.880958 
L 214.238602 318.171042 
L 219.954285 310.05006 
L 225.669968 302.325561 
L 231.385652 307.720681 
L 237.101335 307.326344 
L 242.817018 277.660198 
L 248.532701 281.080983 
L 254.248385 276.754042 
L 259.964068 282.790318 
L 265.679751 271.003668 
L 271.395434 276.113799 
L 277.111118 280.254848 
L 282.826801 283.0428 
L 288.542484 260.354869 
L 294.258167 258.00635 
L 299.973851 266.39164 
L 305.689534 251.493424 
L 311.405217 252.485795 
L 317.1209 252.597799 
L 322.836584 239.408136 
L 328.552267 238.483543 
L 334.26795 259.152049 
L 339.983633 240.861103 
L 345.699317 238.692755 
L 351.415 239.821648 
L 357.130683 233.899348 
L 362.846367 238.117262 
L 368.56205 225.072972 
L 374.277733 217.481896 
L 379.993416 225.338696 
L 385.7091 214.922059 
L 391.424783 203.190306 
L 397.140466 201.058849 
L 402.856149 204.112527 
L 408.571833 201.723376 
L 414.287516 216.616136 
L 420.003199 214.763395 
L 425.718882 229.391249 
L 431.434566 236.217342 
L 437.150249 264.373981 
L 442.865932 248.405765 
L 448.581615 241.915995 
L 454.297299 247.030464 
L 460.012982 237.636084 
L 465.728665 230.197127 
L 471.444348 241.60017 
L 477.160032 240.945538 
L 482.875715 233.703421 
L 488.591398 240.070097 
L 494.307081 236.894758 
L 500.022765 234.953857 
L 505.738448 231.20371 
L 511.454131 230.665329 
L 517.169814 229.483511 
L 522.885498 232.457832 
L 528.601181 227.501721 
L 534.316864 232.60347 
L 540.032547 257.451975 
L 545.748231 258.234698 
L 551.463914 256.694795 
L 557.179597 255.243637 
L 562.89528 248.948448 
L 568.610964 252.77458 
L 574.326647 273.167244 
L 580.04233 260.319844 
L 585.758013 256.617895 
L 591.473697 230.804292 
L 597.18938 237.130115 
L 602.905063 243.094638 
L 608.620746 232.232046 
L 614.33643 223.724139 
L 620.052113 217.984809 
L 625.767796 223.974837 
L 631.483479 229.194314 
L 631.483479 93.192713 
L 631.483479 93.192713 
L 625.767796 85.53013 
L 620.052113 73.628325 
L 614.33643 88.003657 
L 608.620746 85.161931 
L 602.905063 101.720222 
L 597.18938 100.136778 
L 591.473697 89.856016 
L 585.758013 113.19117 
L 580.04233 123.580037 
L 574.326647 118.601739 
L 568.610964 88.318689 
L 562.89528 78.050944 
L 557.179597 91.74335 
L 551.463914 99.102143 
L 545.748231 99.587772 
L 540.032547 110.286614 
L 534.316864 71.941831 
L 528.601181 62.673593 
L 522.885498 68.830225 
L 517.169814 65.093516 
L 511.454131 69.280436 
L 505.738448 68.284361 
L 500.022765 82.193167 
L 494.307081 75.504954 
L 488.591398 79.907591 
L 482.875715 84.045109 
L 477.160032 84.026037 
L 471.444348 85.705012 
L 465.728665 74.838494 
L 460.012982 89.157971 
L 454.297299 101.401168 
L 448.581615 95.477102 
L 442.865932 107.76654 
L 437.150249 101.680051 
L 431.434566 85.610123 
L 425.718882 100.727141 
L 420.003199 97.573454 
L 414.287516 97.303767 
L 408.571833 93.364751 
L 402.856149 108.929644 
L 397.140466 112.581549 
L 391.424783 118.720811 
L 385.7091 122.843001 
L 379.993416 141.604769 
L 374.277733 165.755108 
L 368.56205 151.55879 
L 362.846367 132.528282 
L 357.130683 132.608489 
L 351.415 122.597551 
L 345.699317 132.90119 
L 339.983633 153.905938 
L 334.26795 141.920445 
L 328.552267 158.210478 
L 322.836584 140.561962 
L 317.1209 168.983892 
L 311.405217 171.359283 
L 305.689534 175.629093 
L 299.973851 203.727616 
L 294.258167 194.92051 
L 288.542484 193.080916 
L 282.826801 195.927195 
L 277.111118 202.40869 
L 271.395434 197.318684 
L 265.679751 226.314875 
L 259.964068 234.789399 
L 254.248385 226.638167 
L 248.532701 223.281043 
L 242.817018 237.757429 
L 237.101335 169.46989 
L 231.385652 174.606551 
L 225.669968 182.512517 
L 219.954285 200.401721 
L 214.238602 177.444581 
L 208.522919 189.979165 
L 202.807235 203.472403 
L 197.091552 186.417062 
L 191.375869 212.691283 
L 185.660186 220.023652 
L 179.944502 226.762258 
L 174.228819 239.364919 
L 168.513136 233.136998 
L 162.797453 240.410787 
L 157.081769 229.872432 
L 151.366086 244.765083 
L 145.650403 227.2469 
L 139.93472 243.021733 
L 134.219036 252.598512 
L 128.503353 245.974931 
L 122.78767 247.317601 
L 117.071987 271.315956 
L 111.356303 259.484802 
L 105.64062 269.468311 
L 99.924937 265.18264 
L 94.209254 272.274497 
L 88.49357 282.031702 
L 82.777887 269.303467 
L 77.062204 289.803301 
L 71.346521 299.23246 
L 65.630837 305.097345 
z
" clip-path="url(#pebc2a93741)" style="fill: #2ca02c; fill-opacity: 0.2"/>
   </g>
   <g id="FillBetweenPolyCollection_4">
    <path d="M 65.630837 297.156227 
L 65.630837 321.692295 
L 71.346521 312.081654 
L 77.062204 318.12157 
L 82.777887 304.084644 
L 88.49357 302.616175 
L 94.209254 298.559959 
L 99.924937 286.194507 
L 105.64062 276.170379 
L 111.356303 261.049749 
L 117.071987 262.301629 
L 122.78767 248.504807 
L 128.503353 247.273214 
L 134.219036 251.724217 
L 139.93472 241.237186 
L 145.650403 229.302093 
L 151.366086 219.952618 
L 157.081769 185.023374 
L 162.797453 171.036927 
L 168.513136 151.272219 
L 174.228819 142.172066 
L 179.944502 136.648175 
L 185.660186 144.848376 
L 191.375869 121.842533 
L 197.091552 119.740667 
L 202.807235 122.135215 
L 208.522919 123.318342 
L 214.238602 109.695911 
L 219.954285 111.495383 
L 225.669968 107.418695 
L 231.385652 114.982383 
L 237.101335 111.821241 
L 242.817018 107.230914 
L 248.532701 106.253414 
L 254.248385 114.553399 
L 259.964068 100.596103 
L 265.679751 102.569389 
L 271.395434 106.808511 
L 277.111118 107.735191 
L 282.826801 116.505843 
L 288.542484 106.502024 
L 294.258167 100.545162 
L 299.973851 113.129554 
L 305.689534 102.280508 
L 311.405217 91.751225 
L 317.1209 100.059398 
L 322.836584 108.019624 
L 328.552267 101.7747 
L 334.26795 103.542768 
L 339.983633 95.158169 
L 345.699317 95.542486 
L 351.415 98.839393 
L 357.130683 100.802705 
L 362.846367 94.018357 
L 368.56205 126.532122 
L 374.277733 91.101079 
L 379.993416 93.846576 
L 385.7091 95.312635 
L 391.424783 92.998302 
L 397.140466 95.180048 
L 402.856149 91.603407 
L 408.571833 98.48944 
L 414.287516 93.281985 
L 420.003199 96.380261 
L 425.718882 94.426475 
L 431.434566 103.207542 
L 437.150249 113.817573 
L 442.865932 96.553786 
L 448.581615 90.153824 
L 454.297299 124.427406 
L 460.012982 91.666241 
L 465.728665 93.103074 
L 471.444348 95.001045 
L 477.160032 94.818221 
L 482.875715 89.563938 
L 488.591398 89.972495 
L 494.307081 93.345772 
L 500.022765 91.095868 
L 505.738448 88.185196 
L 511.454131 91.759929 
L 517.169814 92.278368 
L 522.885498 89.974759 
L 528.601181 93.753232 
L 534.316864 90.705003 
L 540.032547 93.233341 
L 545.748231 93.527408 
L 551.463914 93.681639 
L 557.179597 90.179037 
L 562.89528 89.09484 
L 568.610964 92.038106 
L 574.326647 93.258603 
L 580.04233 90.333804 
L 585.758013 89.62637 
L 591.473697 92.466906 
L 597.18938 91.881868 
L 602.905063 91.919386 
L 608.620746 89.070554 
L 614.33643 91.887343 
L 620.052113 88.719124 
L 625.767796 90.565259 
L 631.483479 89.462671 
L 631.483479 84.906526 
L 631.483479 84.906526 
L 625.767796 84.573851 
L 620.052113 83.891094 
L 614.33643 83.523875 
L 608.620746 82.956278 
L 602.905063 85.748306 
L 597.18938 85.914368 
L 591.473697 84.82369 
L 585.758013 85.863358 
L 580.04233 86.656304 
L 574.326647 88.439348 
L 568.610964 86.106287 
L 562.89528 84.248244 
L 557.179597 84.992133 
L 551.463914 87.838669 
L 545.748231 84.001519 
L 540.032547 88.394243 
L 534.316864 86.909285 
L 528.601181 80.941461 
L 522.885498 84.737596 
L 517.169814 85.193943 
L 511.454131 83.59015 
L 505.738448 82.579664 
L 500.022765 86.146336 
L 494.307081 82.138435 
L 488.591398 83.677702 
L 482.875715 83.809447 
L 477.160032 89.478573 
L 471.444348 86.957228 
L 465.728665 84.001487 
L 460.012982 86.000406 
L 454.297299 79.017364 
L 448.581615 86.483023 
L 442.865932 87.836866 
L 437.150249 82.532025 
L 431.434566 88.128972 
L 425.718882 88.893842 
L 420.003199 87.241193 
L 414.287516 88.268927 
L 408.571833 82.406554 
L 402.856149 81.461779 
L 397.140466 88.644979 
L 391.424783 86.32325 
L 385.7091 88.192942 
L 379.993416 87.221142 
L 374.277733 88.766827 
L 368.56205 78.86607 
L 362.846367 85.948467 
L 357.130683 87.354194 
L 351.415 85.511902 
L 345.699317 87.160012 
L 339.983633 86.616826 
L 334.26795 84.250119 
L 328.552267 87.271096 
L 322.836584 87.142933 
L 317.1209 91.661204 
L 311.405217 86.654272 
L 305.689534 90.442309 
L 299.973851 96.344706 
L 294.258167 89.355044 
L 288.542484 86.465384 
L 282.826801 83.373775 
L 277.111118 87.678364 
L 271.395434 90.934729 
L 265.679751 92.600216 
L 259.964068 94.644873 
L 254.248385 86.597398 
L 248.532701 88.605233 
L 242.817018 94.85282 
L 237.101335 99.357482 
L 231.385652 101.525515 
L 225.669968 99.954494 
L 219.954285 109.81209 
L 214.238602 97.250674 
L 208.522919 99.217672 
L 202.807235 114.552229 
L 197.091552 106.560386 
L 191.375869 109.933212 
L 185.660186 113.477857 
L 179.944502 114.040499 
L 174.228819 112.479185 
L 168.513136 112.340282 
L 162.797453 126.204121 
L 157.081769 128.769135 
L 151.366086 144.410278 
L 145.650403 150.135516 
L 139.93472 166.935059 
L 134.219036 192.11035 
L 128.503353 223.352567 
L 122.78767 227.52097 
L 117.071987 247.186516 
L 111.356303 239.989648 
L 105.64062 255.635913 
L 99.924937 258.509021 
L 94.209254 270.212484 
L 88.49357 283.694369 
L 82.777887 280.913851 
L 77.062204 288.038838 
L 71.346521 291.940472 
L 65.630837 297.156227 
z
" clip-path="url(#pebc2a93741)" style="fill: #d62728; fill-opacity: 0.2"/>
   </g>
   <g id="line2d_19">
    <path d="M 65.630837 310.663002 
L 71.346521 301.934047 
L 77.062204 306.310091 
L 82.777887 291.467107 
L 88.49357 300.709844 
L 94.209254 296.302447 
L 99.924937 285.382864 
L 105.64062 283.604402 
L 111.356303 267.774309 
L 117.071987 278.117843 
L 122.78767 262.878212 
L 128.503353 252.567085 
L 134.219036 244.589455 
L 139.93472 235.02247 
L 145.650403 223.779642 
L 151.366086 221.988718 
L 157.081769 190.569023 
L 162.797453 182.435326 
L 168.513136 169.876602 
L 174.228819 155.719849 
L 179.944502 150.261809 
L 185.660186 141.000464 
L 191.375869 124.203418 
L 197.091552 117.848727 
L 202.807235 119.907339 
L 208.522919 112.913502 
L 214.238602 109.979021 
L 219.954285 110.709111 
L 225.669968 104.18511 
L 231.385652 100.958029 
L 237.101335 99.65327 
L 242.817018 100.842905 
L 248.532701 100.809109 
L 254.248385 105.701155 
L 259.964068 103.198369 
L 265.679751 106.674678 
L 271.395434 97.933037 
L 277.111118 99.319487 
L 282.826801 99.255673 
L 288.542484 99.475858 
L 294.258167 99.698422 
L 299.973851 109.18763 
L 305.689534 95.302495 
L 311.405217 94.906607 
L 317.1209 100.437567 
L 322.836584 98.88431 
L 328.552267 97.622654 
L 334.26795 93.644015 
L 339.983633 90.448711 
L 345.699317 89.89441 
L 351.415 91.218421 
L 357.130683 89.734879 
L 362.846367 95.09614 
L 368.56205 95.362485 
L 374.277733 93.739726 
L 379.993416 91.471428 
L 385.7091 93.795945 
L 391.424783 93.297807 
L 397.140466 91.527695 
L 402.856149 88.824387 
L 408.571833 93.666931 
L 414.287516 90.536386 
L 420.003199 92.115358 
L 425.718882 91.792805 
L 431.434566 90.078733 
L 437.150249 89.676997 
L 442.865932 91.887831 
L 448.581615 88.951875 
L 454.297299 90.717192 
L 460.012982 92.694856 
L 465.728665 86.595453 
L 471.444348 89.454827 
L 477.160032 93.8679 
L 482.875715 86.991508 
L 488.591398 88.245613 
L 494.307081 88.704047 
L 500.022765 89.441833 
L 505.738448 87.674197 
L 511.454131 87.36613 
L 517.169814 88.263938 
L 522.885498 87.29935 
L 528.601181 87.105216 
L 534.316864 88.420331 
L 540.032547 90.360328 
L 545.748231 88.219209 
L 551.463914 90.821482 
L 557.179597 87.517257 
L 562.89528 86.722757 
L 568.610964 88.487012 
L 574.326647 90.650705 
L 580.04233 89.115426 
L 585.758013 87.445602 
L 591.473697 88.755325 
L 597.18938 89.877256 
L 602.905063 88.700901 
L 608.620746 85.259479 
L 614.33643 88.275833 
L 620.052113 86.360636 
L 625.767796 88.332795 
L 631.483479 87.742006 
" clip-path="url(#pebc2a93741)" style="fill: none; stroke: #1f77b4; stroke-width: 1.5; stroke-linecap: round"/>
   </g>
   <g id="line2d_20">
    <path d="M 65.630837 311.597487 
L 71.346521 306.879459 
L 77.062204 307.981708 
L 82.777887 291.714871 
L 88.49357 294.057386 
L 94.209254 280.472419 
L 99.924937 267.105923 
L 105.64062 267.05598 
L 111.356303 262.376693 
L 117.071987 277.756911 
L 122.78767 266.292668 
L 128.503353 266.067238 
L 134.219036 265.412882 
L 139.93472 254.85562 
L 145.650403 253.003744 
L 151.366086 255.01795 
L 157.081769 245.168707 
L 162.797453 250.84615 
L 168.513136 244.027558 
L 174.228819 234.308286 
L 179.944502 231.949604 
L 185.660186 229.149621 
L 191.375869 218.400934 
L 197.091552 210.728323 
L 202.807235 215.137065 
L 208.522919 205.651514 
L 214.238602 197.179455 
L 219.954285 201.180362 
L 225.669968 189.302779 
L 231.385652 180.825877 
L 237.101335 170.668475 
L 242.817018 170.413897 
L 248.532701 169.036113 
L 254.248385 162.200827 
L 259.964068 162.252168 
L 265.679751 148.923901 
L 271.395434 145.734938 
L 277.111118 141.957129 
L 282.826801 148.765416 
L 288.542484 136.682162 
L 294.258167 135.651054 
L 299.973851 187.241674 
L 305.689534 208.09894 
L 311.405217 182.266561 
L 317.1209 172.084004 
L 322.836584 168.529886 
L 328.552267 165.081733 
L 334.26795 159.567162 
L 339.983633 150.081301 
L 345.699317 149.640209 
L 351.415 151.36048 
L 357.130683 145.341239 
L 362.846367 151.273781 
L 368.56205 132.991203 
L 374.277733 134.226694 
L 379.993416 130.58002 
L 385.7091 145.473686 
L 391.424783 140.279479 
L 397.140466 144.265167 
L 402.856149 128.095324 
L 408.571833 119.422473 
L 414.287516 126.390478 
L 420.003199 129.866732 
L 425.718882 140.003664 
L 431.434566 131.642985 
L 437.150249 134.162145 
L 442.865932 135.761963 
L 448.581615 135.820403 
L 454.297299 138.199158 
L 460.012982 137.758209 
L 465.728665 159.979162 
L 471.444348 165.611223 
L 477.160032 170.613398 
L 482.875715 161.032438 
L 488.591398 160.089771 
L 494.307081 158.840714 
L 500.022765 165.969506 
L 505.738448 152.100635 
L 511.454131 160.540945 
L 517.169814 156.290455 
L 522.885498 171.185367 
L 528.601181 156.057799 
L 534.316864 161.004588 
L 540.032547 157.963093 
L 545.748231 154.658822 
L 551.463914 159.682537 
L 557.179597 161.833234 
L 562.89528 153.895873 
L 568.610964 159.47918 
L 574.326647 186.360091 
L 580.04233 159.920071 
L 585.758013 156.710938 
L 591.473697 156.544472 
L 597.18938 164.264166 
L 602.905063 149.747561 
L 608.620746 141.893217 
L 614.33643 151.674978 
L 620.052113 156.744517 
L 625.767796 147.910422 
L 631.483479 132.813734 
" clip-path="url(#pebc2a93741)" style="fill: none; stroke: #ff7f0e; stroke-width: 1.5; stroke-linecap: round"/>
   </g>
   <g id="line2d_21">
    <path d="M 65.630837 312.083117 
L 71.346521 306.379733 
L 77.062204 307.92313 
L 82.777887 284.491076 
L 88.49357 289.27947 
L 94.209254 281.72595 
L 99.924937 275.739156 
L 105.64062 281.941032 
L 111.356303 279.606251 
L 117.071987 293.459079 
L 122.78767 279.238874 
L 128.503353 277.677199 
L 134.219036 281.698297 
L 139.93472 278.144771 
L 145.650403 267.010609 
L 151.366086 275.961837 
L 157.081769 269.409756 
L 162.797453 270.150789 
L 168.513136 270.379156 
L 174.228819 269.398571 
L 179.944502 280.68786 
L 185.660186 269.161309 
L 191.375869 261.251231 
L 197.091552 256.640664 
L 202.807235 261.347285 
L 208.522919 255.930062 
L 214.238602 247.807811 
L 219.954285 255.22589 
L 225.669968 242.419039 
L 231.385652 241.163616 
L 237.101335 238.398117 
L 242.817018 257.708814 
L 248.532701 252.181013 
L 254.248385 251.696105 
L 259.964068 258.789859 
L 265.679751 248.659272 
L 271.395434 236.716242 
L 277.111118 241.331769 
L 282.826801 239.484998 
L 288.542484 226.717892 
L 294.258167 226.46343 
L 299.973851 235.059628 
L 305.689534 213.561259 
L 311.405217 211.922539 
L 317.1209 210.790845 
L 322.836584 189.985049 
L 328.552267 198.34701 
L 334.26795 200.536247 
L 339.983633 197.383521 
L 345.699317 185.796972 
L 351.415 181.2096 
L 357.130683 183.253918 
L 362.846367 185.322772 
L 368.56205 188.315881 
L 374.277733 191.618502 
L 379.993416 183.471733 
L 385.7091 168.88253 
L 391.424783 160.955559 
L 397.140466 156.820199 
L 402.856149 156.521086 
L 408.571833 147.544063 
L 414.287516 156.959951 
L 420.003199 156.168425 
L 425.718882 165.059195 
L 431.434566 160.913733 
L 437.150249 183.027016 
L 442.865932 178.086152 
L 448.581615 168.696549 
L 454.297299 174.215816 
L 460.012982 163.397028 
L 465.728665 152.51781 
L 471.444348 163.652591 
L 477.160032 162.485787 
L 482.875715 158.874265 
L 488.591398 159.988844 
L 494.307081 156.199856 
L 500.022765 158.573512 
L 505.738448 149.744036 
L 511.454131 149.972882 
L 517.169814 147.288513 
L 522.885498 150.644028 
L 528.601181 145.087657 
L 534.316864 152.27265 
L 540.032547 183.869295 
L 545.748231 178.911235 
L 551.463914 177.898469 
L 557.179597 173.493494 
L 562.89528 163.499696 
L 568.610964 170.546635 
L 574.326647 195.884491 
L 580.04233 191.94994 
L 585.758013 184.904532 
L 591.473697 160.330154 
L 597.18938 168.633447 
L 602.905063 172.40743 
L 608.620746 158.696988 
L 614.33643 155.863898 
L 620.052113 145.806567 
L 625.767796 154.752484 
L 631.483479 161.193514 
" clip-path="url(#pebc2a93741)" style="fill: none; stroke: #2ca02c; stroke-width: 1.5; stroke-linecap: round"/>
   </g>
   <g id="line2d_22">
    <path d="M 65.630837 309.424261 
L 71.346521 302.011063 
L 77.062204 303.080204 
L 82.777887 292.499248 
L 88.49357 293.155272 
L 94.209254 284.386222 
L 99.924937 272.351764 
L 105.64062 265.903146 
L 111.356303 250.519698 
L 117.071987 254.744072 
L 122.78767 238.012889 
L 128.503353 235.31289 
L 134.219036 221.917284 
L 139.93472 204.086123 
L 145.650403 189.718804 
L 151.366086 182.181448 
L 157.081769 156.896254 
L 162.797453 148.620524 
L 168.513136 131.806251 
L 174.228819 127.325626 
L 179.944502 125.344337 
L 185.660186 129.163117 
L 191.375869 115.887872 
L 197.091552 113.150526 
L 202.807235 118.343722 
L 208.522919 111.268007 
L 214.238602 103.473292 
L 219.954285 110.653736 
L 225.669968 103.686595 
L 231.385652 108.253949 
L 237.101335 105.589362 
L 242.817018 101.041867 
L 248.532701 97.429324 
L 254.248385 100.575398 
L 259.964068 97.620488 
L 265.679751 97.584802 
L 271.395434 98.87162 
L 277.111118 97.706778 
L 282.826801 99.939809 
L 288.542484 96.483704 
L 294.258167 94.950103 
L 299.973851 104.73713 
L 305.689534 96.361408 
L 311.405217 89.202748 
L 317.1209 95.860301 
L 322.836584 97.581279 
L 328.552267 94.522898 
L 334.26795 93.896443 
L 339.983633 90.887497 
L 345.699317 91.351249 
L 351.415 92.175647 
L 357.130683 94.078449 
L 362.846367 89.983412 
L 368.56205 102.699096 
L 374.277733 89.933953 
L 379.993416 90.533859 
L 385.7091 91.752788 
L 391.424783 89.660776 
L 397.140466 91.912513 
L 402.856149 86.532593 
L 408.571833 90.447997 
L 414.287516 90.775456 
L 420.003199 91.810727 
L 425.718882 91.660159 
L 431.434566 95.668257 
L 437.150249 98.174799 
L 442.865932 92.195326 
L 448.581615 88.318423 
L 454.297299 101.722385 
L 460.012982 88.833323 
L 465.728665 88.552281 
L 471.444348 90.979137 
L 477.160032 92.148397 
L 482.875715 86.686693 
L 488.591398 86.825099 
L 494.307081 87.742104 
L 500.022765 88.621102 
L 505.738448 85.38243 
L 511.454131 87.675039 
L 517.169814 88.736155 
L 522.885498 87.356178 
L 528.601181 87.347347 
L 534.316864 88.807144 
L 540.032547 90.813792 
L 545.748231 88.764463 
L 551.463914 90.760154 
L 557.179597 87.585585 
L 562.89528 86.671542 
L 568.610964 89.072196 
L 574.326647 90.848976 
L 580.04233 88.495054 
L 585.758013 87.744864 
L 591.473697 88.645298 
L 597.18938 88.898118 
L 602.905063 88.833846 
L 608.620746 86.013416 
L 614.33643 87.705609 
L 620.052113 86.305109 
L 625.767796 87.569555 
L 631.483479 87.184598 
" clip-path="url(#pebc2a93741)" style="fill: none; stroke: #d62728; stroke-width: 1.5; stroke-linecap: round"/>
   </g>
   <g id="patch_3">
    <path d="M 65.63 390.04 
L 65.63 57.0062 
" style="fill: none; stroke: #ffffff; stroke-width: 0.8; stroke-linejoin: miter; stroke-linecap: square"/>
   </g>
   <g id="patch_4">
    <path d="M 637.2 390.04 
L 637.2 57.0062 
" style="fill: none; stroke: #ffffff; stroke-width: 0.8; stroke-linejoin: miter; stroke-linecap: square"/>
   </g>
   <g id="patch_5">
    <path d="M 65.63 390.04 
L 637.2 390.04 
" style="fill: none; stroke: #ffffff; stroke-width: 0.8; stroke-linejoin: miter; stroke-linecap: square"/>
   </g>
   <g id="patch_6">
    <path d="M 65.63 57.0062 
L 637.2 57.0062 
" style="fill: none; stroke: #ffffff; stroke-width: 0.8; stroke-linejoin: miter; stroke-linecap: square"/>
   </g>
   <g id="legend_1">
    <g id="line2d_23">
     <path d="M 185.856901 41.274494 
L 194.186901 41.274494 
L 202.516901 41.274494 
" style="fill: none; stroke: #1f77b4; stroke-width: 1.5; stroke-linecap: round"/>
    </g>
    <g id="text_22">
     <!-- Logits (Baseline) -->
     <g style="fill: #262626" transform="translate(209.180901 44.189994) scale(0.0833 -0.0833)">
      <defs>
       <path id="DejaVuSans-4c" d="M 628 4666 
L 1259 4666 
L 1259 531 
L 3531 531 
L 3531 0 
L 628 0 
L 628 4666 
z
" transform="scale(0.015625)"/>
       <path id="DejaVuSans-6f" d="M 1959 3097 
Q 1497 3097 1228 2736 
Q 959 2375 959 1747 
Q 959 1119 1226 758 
Q 1494 397 1959 397 
Q 2419 397 2687 759 
Q 2956 1122 2956 1747 
Q 2956 2369 2687 2733 
Q 2419 3097 1959 3097 
z
M 1959 3584 
Q 2709 3584 3137 3096 
Q 3566 2609 3566 1747 
Q 3566 888 3137 398 
Q 2709 -91 1959 -91 
Q 1206 -91 779 398 
Q 353 888 353 1747 
Q 353 2609 779 3096 
Q 1206 3584 1959 3584 
z
" transform="scale(0.015625)"/>
       <path id="DejaVuSans-67" d="M 2906 1791 
Q 2906 2416 2648 2759 
Q 2391 3103 1925 3103 
Q 1463 3103 1205 2759 
Q 947 2416 947 1791 
Q 947 1169 1205 825 
Q 1463 481 1925 481 
Q 2391 481 2648 825 
Q 2906 1169 2906 1791 
z
M 3481 434 
Q 3481 -459 3084 -895 
Q 2688 -1331 1869 -1331 
Q 1566 -1331 1297 -1286 
Q 1028 -1241 775 -1147 
L 775 -588 
Q 1028 -725 1275 -790 
Q 1522 -856 1778 -856 
Q 2344 -856 2625 -561 
Q 2906 -266 2906 331 
L 2906 616 
Q 2728 306 2450 153 
Q 2172 0 1784 0 
Q 1141 0 747 490 
Q 353 981 353 1791 
Q 353 2603 747 3093 
Q 1141 3584 1784 3584 
Q 2172 3584 2450 3431 
Q 2728 3278 2906 2969 
L 2906 3500 
L 3481 3500 
L 3481 434 
z
" transform="scale(0.015625)"/>
       <path id="DejaVuSans-69" d="M 603 3500 
L 1178 3500 
L 1178 0 
L 603 0 
L 603 3500 
z
M 603 4863 
L 1178 4863 
L 1178 4134 
L 603 4134 
L 603 4863 
z
" transform="scale(0.015625)"/>
       <path id="DejaVuSans-20" transform="scale(0.015625)"/>
       <path id="DejaVuSans-28" d="M 1984 4856 
Q 1566 4138 1362 3434 
Q 1159 2731 1159 2009 
Q 1159 1288 1364 580 
Q 1569 -128 1984 -844 
L 1484 -844 
Q 1016 -109 783 600 
Q 550 1309 550 2009 
Q 550 2706 781 3412 
Q 1013 4119 1484 4856 
L 1984 4856 
z
" transform="scale(0.015625)"/>
       <path id="DejaVuSans-42" d="M 1259 2228 
L 1259 519 
L 2272 519 
Q 2781 519 3026 730 
Q 3272 941 3272 1375 
Q 3272 1813 3026 2020 
Q 2781 2228 2272 2228 
L 1259 2228 
z
M 1259 4147 
L 1259 2741 
L 2194 2741 
Q 2656 2741 2882 2914 
Q 3109 3088 3109 3444 
Q 3109 3797 2882 3972 
Q 2656 4147 2194 4147 
L 1259 4147 
z
M 628 4666 
L 2241 4666 
Q 2963 4666 3353 4366 
Q 3744 4066 3744 3513 
Q 3744 3084 3544 2831 
Q 3344 2578 2956 2516 
Q 3422 2416 3680 2098 
Q 3938 1781 3938 1306 
Q 3938 681 3513 340 
Q 3088 0 2303 0 
L 628 0 
L 628 4666 
z
" transform="scale(0.015625)"/>
       <path id="DejaVuSans-6c" d="M 603 4863 
L 1178 4863 
L 1178 0 
L 603 0 
L 603 4863 
z
" transform="scale(0.015625)"/>
       <path id="DejaVuSans-6e" d="M 3513 2113 
L 3513 0 
L 2938 0 
L 2938 2094 
Q 2938 2591 2744 2837 
Q 2550 3084 2163 3084 
Q 1697 3084 1428 2787 
Q 1159 2491 1159 1978 
L 1159 0 
L 581 0 
L 581 3500 
L 1159 3500 
L 1159 2956 
Q 1366 3272 1645 3428 
Q 1925 3584 2291 3584 
Q 2894 3584 3203 3211 
Q 3513 2838 3513 2113 
z
" transform="scale(0.015625)"/>
       <path id="DejaVuSans-29" d="M 513 4856 
L 1013 4856 
Q 1481 4119 1714 3412 
Q 1947 2706 1947 2009 
Q 1947 1309 1714 600 
Q 1481 -109 1013 -844 
L 513 -844 
Q 928 -128 1133 580 
Q 1338 1288 1338 2009 
Q 1338 2731 1133 3434 
Q 928 4138 513 4856 
z
" transform="scale(0.015625)"/>
      </defs>
      <use xlink:href="#DejaVuSans-4c"/>
      <use xlink:href="#DejaVuSans-6f" transform="translate(53.962891 0)"/>
      <use xlink:href="#DejaVuSans-67" transform="translate(115.144531 0)"/>
      <use xlink:href="#DejaVuSans-69" transform="translate(178.621094 0)"/>
      <use xlink:href="#DejaVuSans-74" transform="translate(206.404297 0)"/>
      <use xlink:href="#DejaVuSans-73" transform="translate(245.613281 0)"/>
      <use xlink:href="#DejaVuSans-20" transform="translate(297.712891 0)"/>
      <use xlink:href="#DejaVuSans-28" transform="translate(329.5 0)"/>
      <use xlink:href="#DejaVuSans-42" transform="translate(368.513672 0)"/>
      <use xlink:href="#DejaVuSans-61" transform="translate(437.117188 0)"/>
      <use xlink:href="#DejaVuSans-73" transform="translate(498.396484 0)"/>
      <use xlink:href="#DejaVuSans-65" transform="translate(550.496094 0)"/>
      <use xlink:href="#DejaVuSans-6c" transform="translate(612.019531 0)"/>
      <use xlink:href="#DejaVuSans-69" transform="translate(639.802734 0)"/>
      <use xlink:href="#DejaVuSans-6e" transform="translate(667.585938 0)"/>
      <use xlink:href="#DejaVuSans-65" transform="translate(730.964844 0)"/>
      <use xlink:href="#DejaVuSans-29" transform="translate(792.488281 0)"/>
     </g>
    </g>
    <g id="line2d_24">
     <path d="M 295.106152 41.274494 
L 303.436152 41.274494 
L 311.766152 41.274494 
" style="fill: none; stroke: #ff7f0e; stroke-width: 1.5; stroke-linecap: round"/>
    </g>
    <g id="text_23">
     <!-- GNN-Net -->
     <g style="fill: #262626" transform="translate(318.430152 44.189994) scale(0.0833 -0.0833)">
      <defs>
       <path id="DejaVuSans-47" d="M 3809 666 
L 3809 1919 
L 2778 1919 
L 2778 2438 
L 4434 2438 
L 4434 434 
Q 4069 175 3628 42 
Q 3188 -91 2688 -91 
Q 1594 -91 976 548 
Q 359 1188 359 2328 
Q 359 3472 976 4111 
Q 1594 4750 2688 4750 
Q 3144 4750 3555 4637 
Q 3966 4525 4313 4306 
L 4313 3634 
Q 3963 3931 3569 4081 
Q 3175 4231 2741 4231 
Q 1884 4231 1454 3753 
Q 1025 3275 1025 2328 
Q 1025 1384 1454 906 
Q 1884 428 2741 428 
Q 3075 428 3337 486 
Q 3600 544 3809 666 
z
" transform="scale(0.015625)"/>
       <path id="DejaVuSans-4e" d="M 628 4666 
L 1478 4666 
L 3547 763 
L 3547 4666 
L 4159 4666 
L 4159 0 
L 3309 0 
L 1241 3903 
L 1241 0 
L 628 0 
L 628 4666 
z
" transform="scale(0.015625)"/>
       <path id="DejaVuSans-2d" d="M 313 2009 
L 1997 2009 
L 1997 1497 
L 313 1497 
L 313 2009 
z
" transform="scale(0.015625)"/>
      </defs>
      <use xlink:href="#DejaVuSans-47"/>
      <use xlink:href="#DejaVuSans-4e" transform="translate(77.490234 0)"/>
      <use xlink:href="#DejaVuSans-4e" transform="translate(152.294922 0)"/>
      <use xlink:href="#DejaVuSans-2d" transform="translate(227.099609 0)"/>
      <use xlink:href="#DejaVuSans-4e" transform="translate(263.183594 0)"/>
      <use xlink:href="#DejaVuSans-65" transform="translate(337.988281 0)"/>
      <use xlink:href="#DejaVuSans-74" transform="translate(399.511719 0)"/>
     </g>
    </g>
    <g id="line2d_25">
     <path d="M 371.636726 41.274494 
L 379.966726 41.274494 
L 388.296726 41.274494 
" style="fill: none; stroke: #2ca02c; stroke-width: 1.5; stroke-linecap: round"/>
    </g>
    <g id="text_24">
     <!-- GNN_K-Net -->
     <g style="fill: #262626" transform="translate(394.960726 44.189994) scale(0.0833 -0.0833)">
      <defs>
       <path id="DejaVuSans-5f" d="M 3263 -1063 
L 3263 -1509 
L -63 -1509 
L -63 -1063 
L 3263 -1063 
z
" transform="scale(0.015625)"/>
       <path id="DejaVuSans-4b" d="M 628 4666 
L 1259 4666 
L 1259 2694 
L 3353 4666 
L 4166 4666 
L 1850 2491 
L 4331 0 
L 3500 0 
L 1259 2247 
L 1259 0 
L 628 0 
L 628 4666 
z
" transform="scale(0.015625)"/>
      </defs>
      <use xlink:href="#DejaVuSans-47"/>
      <use xlink:href="#DejaVuSans-4e" transform="translate(77.490234 0)"/>
      <use xlink:href="#DejaVuSans-4e" transform="translate(152.294922 0)"/>
      <use xlink:href="#DejaVuSans-5f" transform="translate(227.099609 0)"/>
      <use xlink:href="#DejaVuSans-4b" transform="translate(277.099609 0)"/>
      <use xlink:href="#DejaVuSans-2d" transform="translate(332.175781 0)"/>
      <use xlink:href="#DejaVuSans-4e" transform="translate(368.259766 0)"/>
      <use xlink:href="#DejaVuSans-65" transform="translate(443.064453 0)"/>
      <use xlink:href="#DejaVuSans-74" transform="translate(504.587891 0)"/>
     </g>
    </g>
    <g id="line2d_26">
     <path d="M 456.920307 41.274494 
L 465.250307 41.274494 
L 473.580307 41.274494 
" style="fill: none; stroke: #d62728; stroke-width: 1.5; stroke-linecap: round"/>
    </g>
    <g id="text_25">
     <!-- CMU-Net -->
     <g style="fill: #262626" transform="translate(480.244307 44.189994) scale(0.0833 -0.0833)">
      <defs>
       <path id="DejaVuSans-43" d="M 4122 4306 
L 4122 3641 
Q 3803 3938 3442 4084 
Q 3081 4231 2675 4231 
Q 1875 4231 1450 3742 
Q 1025 3253 1025 2328 
Q 1025 1406 1450 917 
Q 1875 428 2675 428 
Q 3081 428 3442 575 
Q 3803 722 4122 1019 
L 4122 359 
Q 3791 134 3420 21 
Q 3050 -91 2638 -91 
Q 1578 -91 968 557 
Q 359 1206 359 2328 
Q 359 3453 968 4101 
Q 1578 4750 2638 4750 
Q 3056 4750 3426 4639 
Q 3797 4528 4122 4306 
z
" transform="scale(0.015625)"/>
       <path id="DejaVuSans-4d" d="M 628 4666 
L 1569 4666 
L 2759 1491 
L 3956 4666 
L 4897 4666 
L 4897 0 
L 4281 0 
L 4281 4097 
L 3078 897 
L 2444 897 
L 1241 4097 
L 1241 0 
L 628 0 
L 628 4666 
z
" transform="scale(0.015625)"/>
       <path id="DejaVuSans-55" d="M 556 4666 
L 1191 4666 
L 1191 1831 
Q 1191 1081 1462 751 
Q 1734 422 2344 422 
Q 2950 422 3222 751 
Q 3494 1081 3494 1831 
L 3494 4666 
L 4128 4666 
L 4128 1753 
Q 4128 841 3676 375 
Q 3225 -91 2344 -91 
Q 1459 -91 1007 375 
Q 556 841 556 1753 
L 556 4666 
z
" transform="scale(0.015625)"/>
      </defs>
      <use xlink:href="#DejaVuSans-43"/>
      <use xlink:href="#DejaVuSans-4d" transform="translate(69.824219 0)"/>
      <use xlink:href="#DejaVuSans-55" transform="translate(156.103516 0)"/>
      <use xlink:href="#DejaVuSans-2d" transform="translate(229.296875 0)"/>
      <use xlink:href="#DejaVuSans-4e" transform="translate(265.380859 0)"/>
      <use xlink:href="#DejaVuSans-65" transform="translate(340.185547 0)"/>
      <use xlink:href="#DejaVuSans-74" transform="translate(401.708984 0)"/>
     </g>
    </g>
   </g>
  </g>
  <g id="text_26">
   <!-- Rewards: Pendulum-v1 (Discretized) (Entropy) -->
   <g style="fill: #262626" transform="translate(166.298438 17.758125) scale(0.12 -0.12)">
    <defs>
     <path id="DejaVuSans-Bold-52" d="M 2297 2597 
Q 2675 2597 2839 2737 
Q 3003 2878 3003 3200 
Q 3003 3519 2839 3656 
Q 2675 3794 2297 3794 
L 1791 3794 
L 1791 2597 
L 2297 2597 
z
M 1791 1766 
L 1791 0 
L 588 0 
L 588 4666 
L 2425 4666 
Q 3347 4666 3776 4356 
Q 4206 4047 4206 3378 
Q 4206 2916 3982 2619 
Q 3759 2322 3309 2181 
Q 3556 2125 3751 1926 
Q 3947 1728 4147 1325 
L 4800 0 
L 3519 0 
L 2950 1159 
Q 2778 1509 2601 1637 
Q 2425 1766 2131 1766 
L 1791 1766 
z
" transform="scale(0.015625)"/>
     <path id="DejaVuSans-Bold-65" d="M 4031 1759 
L 4031 1441 
L 1416 1441 
Q 1456 1047 1700 850 
Q 1944 653 2381 653 
Q 2734 653 3104 758 
Q 3475 863 3866 1075 
L 3866 213 
Q 3469 63 3072 -14 
Q 2675 -91 2278 -91 
Q 1328 -91 801 392 
Q 275 875 275 1747 
Q 275 2603 792 3093 
Q 1309 3584 2216 3584 
Q 3041 3584 3536 3087 
Q 4031 2591 4031 1759 
z
M 2881 2131 
Q 2881 2450 2695 2645 
Q 2509 2841 2209 2841 
Q 1884 2841 1681 2658 
Q 1478 2475 1428 2131 
L 2881 2131 
z
" transform="scale(0.015625)"/>
     <path id="DejaVuSans-Bold-77" d="M 225 3500 
L 1313 3500 
L 1900 1088 
L 2491 3500 
L 3425 3500 
L 4013 1113 
L 4603 3500 
L 5691 3500 
L 4769 0 
L 3547 0 
L 2956 2406 
L 2369 0 
L 1147 0 
L 225 3500 
z
" transform="scale(0.015625)"/>
     <path id="DejaVuSans-Bold-61" d="M 2106 1575 
Q 1756 1575 1579 1456 
Q 1403 1338 1403 1106 
Q 1403 894 1545 773 
Q 1688 653 1941 653 
Q 2256 653 2472 879 
Q 2688 1106 2688 1447 
L 2688 1575 
L 2106 1575 
z
M 3816 1997 
L 3816 0 
L 2688 0 
L 2688 519 
Q 2463 200 2181 54 
Q 1900 -91 1497 -91 
Q 953 -91 614 226 
Q 275 544 275 1050 
Q 275 1666 698 1953 
Q 1122 2241 2028 2241 
L 2688 2241 
L 2688 2328 
Q 2688 2594 2478 2717 
Q 2269 2841 1825 2841 
Q 1466 2841 1156 2769 
Q 847 2697 581 2553 
L 581 3406 
Q 941 3494 1303 3539 
Q 1666 3584 2028 3584 
Q 2975 3584 3395 3211 
Q 3816 2838 3816 1997 
z
" transform="scale(0.015625)"/>
     <path id="DejaVuSans-Bold-72" d="M 3138 2547 
Q 2991 2616 2845 2648 
Q 2700 2681 2553 2681 
Q 2122 2681 1889 2404 
Q 1656 2128 1656 1613 
L 1656 0 
L 538 0 
L 538 3500 
L 1656 3500 
L 1656 2925 
Q 1872 3269 2151 3426 
Q 2431 3584 2822 3584 
Q 2878 3584 2943 3579 
Q 3009 3575 3134 3559 
L 3138 2547 
z
" transform="scale(0.015625)"/>
     <path id="DejaVuSans-Bold-64" d="M 2919 2988 
L 2919 4863 
L 4044 4863 
L 4044 0 
L 2919 0 
L 2919 506 
Q 2688 197 2409 53 
Q 2131 -91 1766 -91 
Q 1119 -91 703 423 
Q 288 938 288 1747 
Q 288 2556 703 3070 
Q 1119 3584 1766 3584 
Q 2128 3584 2408 3439 
Q 2688 3294 2919 2988 
z
M 2181 722 
Q 2541 722 2730 984 
Q 2919 1247 2919 1747 
Q 2919 2247 2730 2509 
Q 2541 2772 2181 2772 
Q 1825 2772 1636 2509 
Q 1447 2247 1447 1747 
Q 1447 1247 1636 984 
Q 1825 722 2181 722 
z
" transform="scale(0.015625)"/>
     <path id="DejaVuSans-Bold-73" d="M 3272 3391 
L 3272 2541 
Q 2913 2691 2578 2766 
Q 2244 2841 1947 2841 
Q 1628 2841 1473 2761 
Q 1319 2681 1319 2516 
Q 1319 2381 1436 2309 
Q 1553 2238 1856 2203 
L 2053 2175 
Q 2913 2066 3209 1816 
Q 3506 1566 3506 1031 
Q 3506 472 3093 190 
Q 2681 -91 1863 -91 
Q 1516 -91 1145 -36 
Q 775 19 384 128 
L 384 978 
Q 719 816 1070 734 
Q 1422 653 1784 653 
Q 2113 653 2278 743 
Q 2444 834 2444 1013 
Q 2444 1163 2330 1236 
Q 2216 1309 1875 1350 
L 1678 1375 
Q 931 1469 631 1722 
Q 331 1975 331 2491 
Q 331 3047 712 3315 
Q 1094 3584 1881 3584 
Q 2191 3584 2531 3537 
Q 2872 3491 3272 3391 
z
" transform="scale(0.015625)"/>
     <path id="DejaVuSans-Bold-3a" d="M 716 3500 
L 1844 3500 
L 1844 2291 
L 716 2291 
L 716 3500 
z
M 716 1209 
L 1844 1209 
L 1844 0 
L 716 0 
L 716 1209 
z
" transform="scale(0.015625)"/>
     <path id="DejaVuSans-Bold-20" transform="scale(0.015625)"/>
     <path id="DejaVuSans-Bold-50" d="M 588 4666 
L 2584 4666 
Q 3475 4666 3951 4270 
Q 4428 3875 4428 3144 
Q 4428 2409 3951 2014 
Q 3475 1619 2584 1619 
L 1791 1619 
L 1791 0 
L 588 0 
L 588 4666 
z
M 1791 3794 
L 1791 2491 
L 2456 2491 
Q 2806 2491 2997 2661 
Q 3188 2831 3188 3144 
Q 3188 3456 2997 3625 
Q 2806 3794 2456 3794 
L 1791 3794 
z
" transform="scale(0.015625)"/>
     <path id="DejaVuSans-Bold-6e" d="M 4056 2131 
L 4056 0 
L 2931 0 
L 2931 347 
L 2931 1631 
Q 2931 2084 2911 2256 
Q 2891 2428 2841 2509 
Q 2775 2619 2662 2680 
Q 2550 2741 2406 2741 
Q 2056 2741 1856 2470 
Q 1656 2200 1656 1722 
L 1656 0 
L 538 0 
L 538 3500 
L 1656 3500 
L 1656 2988 
Q 1909 3294 2193 3439 
Q 2478 3584 2822 3584 
Q 3428 3584 3742 3212 
Q 4056 2841 4056 2131 
z
" transform="scale(0.015625)"/>
     <path id="DejaVuSans-Bold-75" d="M 500 1363 
L 500 3500 
L 1625 3500 
L 1625 3150 
Q 1625 2866 1622 2436 
Q 1619 2006 1619 1863 
Q 1619 1441 1641 1255 
Q 1663 1069 1716 984 
Q 1784 875 1895 815 
Q 2006 756 2150 756 
Q 2500 756 2700 1025 
Q 2900 1294 2900 1772 
L 2900 3500 
L 4019 3500 
L 4019 0 
L 2900 0 
L 2900 506 
Q 2647 200 2364 54 
Q 2081 -91 1741 -91 
Q 1134 -91 817 281 
Q 500 653 500 1363 
z
" transform="scale(0.015625)"/>
     <path id="DejaVuSans-Bold-6c" d="M 538 4863 
L 1656 4863 
L 1656 0 
L 538 0 
L 538 4863 
z
" transform="scale(0.015625)"/>
     <path id="DejaVuSans-Bold-6d" d="M 3781 2919 
Q 3994 3244 4286 3414 
Q 4578 3584 4928 3584 
Q 5531 3584 5847 3212 
Q 6163 2841 6163 2131 
L 6163 0 
L 5038 0 
L 5038 1825 
Q 5041 1866 5042 1909 
Q 5044 1953 5044 2034 
Q 5044 2406 4934 2573 
Q 4825 2741 4581 2741 
Q 4263 2741 4089 2478 
Q 3916 2216 3909 1719 
L 3909 0 
L 2784 0 
L 2784 1825 
Q 2784 2406 2684 2573 
Q 2584 2741 2328 2741 
Q 2006 2741 1831 2477 
Q 1656 2213 1656 1722 
L 1656 0 
L 531 0 
L 531 3500 
L 1656 3500 
L 1656 2988 
Q 1863 3284 2130 3434 
Q 2397 3584 2719 3584 
Q 3081 3584 3359 3409 
Q 3638 3234 3781 2919 
z
" transform="scale(0.015625)"/>
     <path id="DejaVuSans-Bold-2d" d="M 347 2297 
L 2309 2297 
L 2309 1388 
L 347 1388 
L 347 2297 
z
" transform="scale(0.015625)"/>
     <path id="DejaVuSans-Bold-76" d="M 97 3500 
L 1216 3500 
L 2088 1081 
L 2956 3500 
L 4078 3500 
L 2700 0 
L 1472 0 
L 97 3500 
z
" transform="scale(0.015625)"/>
     <path id="DejaVuSans-Bold-31" d="M 750 831 
L 1813 831 
L 1813 3847 
L 722 3622 
L 722 4441 
L 1806 4666 
L 2950 4666 
L 2950 831 
L 4013 831 
L 4013 0 
L 750 0 
L 750 831 
z
" transform="scale(0.015625)"/>
     <path id="DejaVuSans-Bold-28" d="M 2413 -844 
L 1484 -844 
Q 1006 -72 778 623 
Q 550 1319 550 2003 
Q 550 2688 779 3389 
Q 1009 4091 1484 4856 
L 2413 4856 
Q 2013 4116 1813 3408 
Q 1613 2700 1613 2009 
Q 1613 1319 1811 609 
Q 2009 -100 2413 -844 
z
" transform="scale(0.015625)"/>
     <path id="DejaVuSans-Bold-44" d="M 1791 3756 
L 1791 909 
L 2222 909 
Q 2959 909 3348 1275 
Q 3738 1641 3738 2338 
Q 3738 3031 3350 3393 
Q 2963 3756 2222 3756 
L 1791 3756 
z
M 588 4666 
L 1856 4666 
Q 2919 4666 3439 4514 
Q 3959 4363 4331 4000 
Q 4659 3684 4818 3271 
Q 4978 2859 4978 2338 
Q 4978 1809 4818 1395 
Q 4659 981 4331 666 
Q 3956 303 3431 151 
Q 2906 0 1856 0 
L 588 0 
L 588 4666 
z
" transform="scale(0.015625)"/>
     <path id="DejaVuSans-Bold-69" d="M 538 3500 
L 1656 3500 
L 1656 0 
L 538 0 
L 538 3500 
z
M 538 4863 
L 1656 4863 
L 1656 3950 
L 538 3950 
L 538 4863 
z
" transform="scale(0.015625)"/>
     <path id="DejaVuSans-Bold-63" d="M 3366 3391 
L 3366 2478 
Q 3138 2634 2908 2709 
Q 2678 2784 2431 2784 
Q 1963 2784 1702 2511 
Q 1441 2238 1441 1747 
Q 1441 1256 1702 982 
Q 1963 709 2431 709 
Q 2694 709 2930 787 
Q 3166 866 3366 1019 
L 3366 103 
Q 3103 6 2833 -42 
Q 2563 -91 2291 -91 
Q 1344 -91 809 395 
Q 275 881 275 1747 
Q 275 2613 809 3098 
Q 1344 3584 2291 3584 
Q 2566 3584 2833 3536 
Q 3100 3488 3366 3391 
z
" transform="scale(0.015625)"/>
     <path id="DejaVuSans-Bold-74" d="M 1759 4494 
L 1759 3500 
L 2913 3500 
L 2913 2700 
L 1759 2700 
L 1759 1216 
Q 1759 972 1856 886 
Q 1953 800 2241 800 
L 2816 800 
L 2816 0 
L 1856 0 
Q 1194 0 917 276 
Q 641 553 641 1216 
L 641 2700 
L 84 2700 
L 84 3500 
L 641 3500 
L 641 4494 
L 1759 4494 
z
" transform="scale(0.015625)"/>
     <path id="DejaVuSans-Bold-7a" d="M 366 3500 
L 3419 3500 
L 3419 2719 
L 1575 800 
L 3419 800 
L 3419 0 
L 288 0 
L 288 781 
L 2131 2700 
L 366 2700 
L 366 3500 
z
" transform="scale(0.015625)"/>
     <path id="DejaVuSans-Bold-29" d="M 513 -844 
Q 913 -100 1113 609 
Q 1313 1319 1313 2009 
Q 1313 2700 1113 3408 
Q 913 4116 513 4856 
L 1441 4856 
Q 1916 4091 2145 3389 
Q 2375 2688 2375 2003 
Q 2375 1319 2147 623 
Q 1919 -72 1441 -844 
L 513 -844 
z
" transform="scale(0.015625)"/>
     <path id="DejaVuSans-Bold-45" d="M 588 4666 
L 3834 4666 
L 3834 3756 
L 1791 3756 
L 1791 2888 
L 3713 2888 
L 3713 1978 
L 1791 1978 
L 1791 909 
L 3903 909 
L 3903 0 
L 588 0 
L 588 4666 
z
" transform="scale(0.015625)"/>
     <path id="DejaVuSans-Bold-6f" d="M 2203 2784 
Q 1831 2784 1636 2517 
Q 1441 2250 1441 1747 
Q 1441 1244 1636 976 
Q 1831 709 2203 709 
Q 2569 709 2762 976 
Q 2956 1244 2956 1747 
Q 2956 2250 2762 2517 
Q 2569 2784 2203 2784 
z
M 2203 3584 
Q 3106 3584 3614 3096 
Q 4122 2609 4122 1747 
Q 4122 884 3614 396 
Q 3106 -91 2203 -91 
Q 1297 -91 786 396 
Q 275 884 275 1747 
Q 275 2609 786 3096 
Q 1297 3584 2203 3584 
z
" transform="scale(0.015625)"/>
     <path id="DejaVuSans-Bold-70" d="M 1656 506 
L 1656 -1331 
L 538 -1331 
L 538 3500 
L 1656 3500 
L 1656 2988 
Q 1888 3294 2169 3439 
Q 2450 3584 2816 3584 
Q 3463 3584 3878 3070 
Q 4294 2556 4294 1747 
Q 4294 938 3878 423 
Q 3463 -91 2816 -91 
Q 2450 -91 2169 54 
Q 1888 200 1656 506 
z
M 2400 2772 
Q 2041 2772 1848 2508 
Q 1656 2244 1656 1747 
Q 1656 1250 1848 986 
Q 2041 722 2400 722 
Q 2759 722 2948 984 
Q 3138 1247 3138 1747 
Q 3138 2247 2948 2509 
Q 2759 2772 2400 2772 
z
" transform="scale(0.015625)"/>
     <path id="DejaVuSans-Bold-79" d="M 78 3500 
L 1197 3500 
L 2138 1125 
L 2938 3500 
L 4056 3500 
L 2584 -331 
Q 2363 -916 2067 -1148 
Q 1772 -1381 1288 -1381 
L 641 -1381 
L 641 -647 
L 991 -647 
Q 1275 -647 1404 -556 
Q 1534 -466 1606 -231 
L 1638 -134 
L 78 3500 
z
" transform="scale(0.015625)"/>
    </defs>
    <use xlink:href="#DejaVuSans-Bold-52"/>
    <use xlink:href="#DejaVuSans-Bold-65" transform="translate(77.001953 0)"/>
    <use xlink:href="#DejaVuSans-Bold-77" transform="translate(144.824219 0)"/>
    <use xlink:href="#DejaVuSans-Bold-61" transform="translate(237.207031 0)"/>
    <use xlink:href="#DejaVuSans-Bold-72" transform="translate(304.6875 0)"/>
    <use xlink:href="#DejaVuSans-Bold-64" transform="translate(354.003906 0)"/>
    <use xlink:href="#DejaVuSans-Bold-73" transform="translate(425.585938 0)"/>
    <use xlink:href="#DejaVuSans-Bold-3a" transform="translate(485.107422 0)"/>
    <use xlink:href="#DejaVuSans-Bold-20" transform="translate(525.097656 0)"/>
    <use xlink:href="#DejaVuSans-Bold-50" transform="translate(559.912109 0)"/>
    <use xlink:href="#DejaVuSans-Bold-65" transform="translate(633.203125 0)"/>
    <use xlink:href="#DejaVuSans-Bold-6e" transform="translate(701.025391 0)"/>
    <use xlink:href="#DejaVuSans-Bold-64" transform="translate(772.216797 0)"/>
    <use xlink:href="#DejaVuSans-Bold-75" transform="translate(843.798828 0)"/>
    <use xlink:href="#DejaVuSans-Bold-6c" transform="translate(914.990234 0)"/>
    <use xlink:href="#DejaVuSans-Bold-75" transform="translate(949.267578 0)"/>
    <use xlink:href="#DejaVuSans-Bold-6d" transform="translate(1020.458984 0)"/>
    <use xlink:href="#DejaVuSans-Bold-2d" transform="translate(1124.658203 0)"/>
    <use xlink:href="#DejaVuSans-Bold-76" transform="translate(1166.162109 0)"/>
    <use xlink:href="#DejaVuSans-Bold-31" transform="translate(1231.347656 0)"/>
    <use xlink:href="#DejaVuSans-Bold-20" transform="translate(1300.927734 0)"/>
    <use xlink:href="#DejaVuSans-Bold-28" transform="translate(1335.742188 0)"/>
    <use xlink:href="#DejaVuSans-Bold-44" transform="translate(1381.445312 0)"/>
    <use xlink:href="#DejaVuSans-Bold-69" transform="translate(1464.453125 0)"/>
    <use xlink:href="#DejaVuSans-Bold-73" transform="translate(1498.730469 0)"/>
    <use xlink:href="#DejaVuSans-Bold-63" transform="translate(1558.251953 0)"/>
    <use xlink:href="#DejaVuSans-Bold-72" transform="translate(1617.529297 0)"/>
    <use xlink:href="#DejaVuSans-Bold-65" transform="translate(1666.845703 0)"/>
    <use xlink:href="#DejaVuSans-Bold-74" transform="translate(1734.667969 0)"/>
    <use xlink:href="#DejaVuSans-Bold-69" transform="translate(1782.470703 0)"/>
    <use xlink:href="#DejaVuSans-Bold-7a" transform="translate(1816.748047 0)"/>
    <use xlink:href="#DejaVuSans-Bold-65" transform="translate(1874.951172 0)"/>
    <use xlink:href="#DejaVuSans-Bold-64" transform="translate(1942.773438 0)"/>
    <use xlink:href="#DejaVuSans-Bold-29" transform="translate(2014.355469 0)"/>
    <use xlink:href="#DejaVuSans-Bold-20" transform="translate(2060.058594 0)"/>
    <use xlink:href="#DejaVuSans-Bold-28" transform="translate(2094.873047 0)"/>
    <use xlink:href="#DejaVuSans-Bold-45" transform="translate(2140.576172 0)"/>
    <use xlink:href="#DejaVuSans-Bold-6e" transform="translate(2208.886719 0)"/>
    <use xlink:href="#DejaVuSans-Bold-74" transform="translate(2280.078125 0)"/>
    <use xlink:href="#DejaVuSans-Bold-72" transform="translate(2327.880859 0)"/>
    <use xlink:href="#DejaVuSans-Bold-6f" transform="translate(2377.197266 0)"/>
    <use xlink:href="#DejaVuSans-Bold-70" transform="translate(2445.898438 0)"/>
    <use xlink:href="#DejaVuSans-Bold-79" transform="translate(2517.480469 0)"/>
    <use xlink:href="#DejaVuSans-Bold-29" transform="translate(2582.666016 0)"/>
   </g>
  </g>
 </g>
 <defs>
  <clipPath id="pebc2a93741">
   <rect x="65.63" y="57.0062" width="571.57" height="333.0338"/>
  </clipPath>
 </defs>
</svg>
