<?xml version="1.0" encoding="utf-8" standalone="no"?>
<!DOCTYPE svg PUBLIC "-//W3C//DTD SVG 1.1//EN"
  "http://www.w3.org/Graphics/SVG/1.1/DTD/svg11.dtd">
<svg xmlns:xlink="http://www.w3.org/1999/xlink" width="648pt" height="432pt" viewBox="0 0 648 432" xmlns="http://www.w3.org/2000/svg" version="1.1">
 <metadata>
  <rdf:RDF xmlns:dc="http://purl.org/dc/elements/1.1/" xmlns:cc="http://creativecommons.org/ns#" xmlns:rdf="http://www.w3.org/1999/02/22-rdf-syntax-ns#">
   <cc:Work>
    <dc:type rdf:resource="http://purl.org/dc/dcmitype/StillImage"/>
    <dc:date>2025-07-31T00:19:01.631564</dc:date>
    <dc:format>image/svg+xml</dc:format>
    <dc:creator>
     <cc:Agent>
      <dc:title>Matplotlib v3.10.0, https://matplotlib.org/</dc:title>
     </cc:Agent>
    </dc:creator>
   </cc:Work>
  </rdf:RDF>
 </metadata>
 <defs>
  <style type="text/css">*{stroke-linejoin: round; stroke-linecap: butt}</style>
 </defs>
 <g id="figure_1">
  <g id="patch_1">
   <path d="M 0 432 
L 648 432 
L 648 0 
L 0 0 
z
" style="fill: #ffffff"/>
  </g>
  <g id="axes_1">
   <g id="patch_2">
    <path d="M 65.63 390.04 
L 626.58 390.04 
L 626.58 63.659 
L 65.63 63.659 
z
" style="fill: #eaeaf2"/>
   </g>
   <g id="matplotlib.axis_1">
    <g id="xtick_1">
     <g id="line2d_1">
      <path d="M 65.630822 390.04 
L 65.630822 63.659 
" clip-path="url(#p86fed0e178)" style="fill: none; stroke: #ffffff; stroke-width: 0.8; stroke-linecap: round"/>
     </g>
     <g id="text_1">
      <!-- 0.00 -->
      <g style="fill: #262626" transform="translate(54.498009 404.638438) scale(0.1 -0.1)">
       <defs>
        <path id="DejaVuSans-30" d="M 2034 4250 
Q 1547 4250 1301 3770 
Q 1056 3291 1056 2328 
Q 1056 1369 1301 889 
Q 1547 409 2034 409 
Q 2525 409 2770 889 
Q 3016 1369 3016 2328 
Q 3016 3291 2770 3770 
Q 2525 4250 2034 4250 
z
M 2034 4750 
Q 2819 4750 3233 4129 
Q 3647 3509 3647 2328 
Q 3647 1150 3233 529 
Q 2819 -91 2034 -91 
Q 1250 -91 836 529 
Q 422 1150 422 2328 
Q 422 3509 836 4129 
Q 1250 4750 2034 4750 
z
" transform="scale(0.015625)"/>
        <path id="DejaVuSans-2e" d="M 684 794 
L 1344 794 
L 1344 0 
L 684 0 
L 684 794 
z
" transform="scale(0.015625)"/>
       </defs>
       <use xlink:href="#DejaVuSans-30"/>
       <use xlink:href="#DejaVuSans-2e" transform="translate(63.623047 0)"/>
       <use xlink:href="#DejaVuSans-30" transform="translate(95.410156 0)"/>
       <use xlink:href="#DejaVuSans-30" transform="translate(159.033203 0)"/>
      </g>
     </g>
    </g>
    <g id="xtick_2">
     <g id="line2d_2">
      <path d="M 134.105963 390.04 
L 134.105963 63.659 
" clip-path="url(#p86fed0e178)" style="fill: none; stroke: #ffffff; stroke-width: 0.8; stroke-linecap: round"/>
     </g>
     <g id="text_2">
      <!-- 0.25 -->
      <g style="fill: #262626" transform="translate(122.97315 404.638438) scale(0.1 -0.1)">
       <defs>
        <path id="DejaVuSans-32" d="M 1228 531 
L 3431 531 
L 3431 0 
L 469 0 
L 469 531 
Q 828 903 1448 1529 
Q 2069 2156 2228 2338 
Q 2531 2678 2651 2914 
Q 2772 3150 2772 3378 
Q 2772 3750 2511 3984 
Q 2250 4219 1831 4219 
Q 1534 4219 1204 4116 
Q 875 4013 500 3803 
L 500 4441 
Q 881 4594 1212 4672 
Q 1544 4750 1819 4750 
Q 2544 4750 2975 4387 
Q 3406 4025 3406 3419 
Q 3406 3131 3298 2873 
Q 3191 2616 2906 2266 
Q 2828 2175 2409 1742 
Q 1991 1309 1228 531 
z
" transform="scale(0.015625)"/>
        <path id="DejaVuSans-35" d="M 691 4666 
L 3169 4666 
L 3169 4134 
L 1269 4134 
L 1269 2991 
Q 1406 3038 1543 3061 
Q 1681 3084 1819 3084 
Q 2600 3084 3056 2656 
Q 3513 2228 3513 1497 
Q 3513 744 3044 326 
Q 2575 -91 1722 -91 
Q 1428 -91 1123 -41 
Q 819 9 494 109 
L 494 744 
Q 775 591 1075 516 
Q 1375 441 1709 441 
Q 2250 441 2565 725 
Q 2881 1009 2881 1497 
Q 2881 1984 2565 2268 
Q 2250 2553 1709 2553 
Q 1456 2553 1204 2497 
Q 953 2441 691 2322 
L 691 4666 
z
" transform="scale(0.015625)"/>
       </defs>
       <use xlink:href="#DejaVuSans-30"/>
       <use xlink:href="#DejaVuSans-2e" transform="translate(63.623047 0)"/>
       <use xlink:href="#DejaVuSans-32" transform="translate(95.410156 0)"/>
       <use xlink:href="#DejaVuSans-35" transform="translate(159.033203 0)"/>
      </g>
     </g>
    </g>
    <g id="xtick_3">
     <g id="line2d_3">
      <path d="M 202.581104 390.04 
L 202.581104 63.659 
" clip-path="url(#p86fed0e178)" style="fill: none; stroke: #ffffff; stroke-width: 0.8; stroke-linecap: round"/>
     </g>
     <g id="text_3">
      <!-- 0.50 -->
      <g style="fill: #262626" transform="translate(191.448292 404.638438) scale(0.1 -0.1)">
       <use xlink:href="#DejaVuSans-30"/>
       <use xlink:href="#DejaVuSans-2e" transform="translate(63.623047 0)"/>
       <use xlink:href="#DejaVuSans-35" transform="translate(95.410156 0)"/>
       <use xlink:href="#DejaVuSans-30" transform="translate(159.033203 0)"/>
      </g>
     </g>
    </g>
    <g id="xtick_4">
     <g id="line2d_4">
      <path d="M 271.056245 390.04 
L 271.056245 63.659 
" clip-path="url(#p86fed0e178)" style="fill: none; stroke: #ffffff; stroke-width: 0.8; stroke-linecap: round"/>
     </g>
     <g id="text_4">
      <!-- 0.75 -->
      <g style="fill: #262626" transform="translate(259.923433 404.638438) scale(0.1 -0.1)">
       <defs>
        <path id="DejaVuSans-37" d="M 525 4666 
L 3525 4666 
L 3525 4397 
L 1831 0 
L 1172 0 
L 2766 4134 
L 525 4134 
L 525 4666 
z
" transform="scale(0.015625)"/>
       </defs>
       <use xlink:href="#DejaVuSans-30"/>
       <use xlink:href="#DejaVuSans-2e" transform="translate(63.623047 0)"/>
       <use xlink:href="#DejaVuSans-37" transform="translate(95.410156 0)"/>
       <use xlink:href="#DejaVuSans-35" transform="translate(159.033203 0)"/>
      </g>
     </g>
    </g>
    <g id="xtick_5">
     <g id="line2d_5">
      <path d="M 339.531386 390.04 
L 339.531386 63.659 
" clip-path="url(#p86fed0e178)" style="fill: none; stroke: #ffffff; stroke-width: 0.8; stroke-linecap: round"/>
     </g>
     <g id="text_5">
      <!-- 1.00 -->
      <g style="fill: #262626" transform="translate(328.398574 404.638438) scale(0.1 -0.1)">
       <defs>
        <path id="DejaVuSans-31" d="M 794 531 
L 1825 531 
L 1825 4091 
L 703 3866 
L 703 4441 
L 1819 4666 
L 2450 4666 
L 2450 531 
L 3481 531 
L 3481 0 
L 794 0 
L 794 531 
z
" transform="scale(0.015625)"/>
       </defs>
       <use xlink:href="#DejaVuSans-31"/>
       <use xlink:href="#DejaVuSans-2e" transform="translate(63.623047 0)"/>
       <use xlink:href="#DejaVuSans-30" transform="translate(95.410156 0)"/>
       <use xlink:href="#DejaVuSans-30" transform="translate(159.033203 0)"/>
      </g>
     </g>
    </g>
    <g id="xtick_6">
     <g id="line2d_6">
      <path d="M 408.006528 390.04 
L 408.006528 63.659 
" clip-path="url(#p86fed0e178)" style="fill: none; stroke: #ffffff; stroke-width: 0.8; stroke-linecap: round"/>
     </g>
     <g id="text_6">
      <!-- 1.25 -->
      <g style="fill: #262626" transform="translate(396.873715 404.638438) scale(0.1 -0.1)">
       <use xlink:href="#DejaVuSans-31"/>
       <use xlink:href="#DejaVuSans-2e" transform="translate(63.623047 0)"/>
       <use xlink:href="#DejaVuSans-32" transform="translate(95.410156 0)"/>
       <use xlink:href="#DejaVuSans-35" transform="translate(159.033203 0)"/>
      </g>
     </g>
    </g>
    <g id="xtick_7">
     <g id="line2d_7">
      <path d="M 476.481669 390.04 
L 476.481669 63.659 
" clip-path="url(#p86fed0e178)" style="fill: none; stroke: #ffffff; stroke-width: 0.8; stroke-linecap: round"/>
     </g>
     <g id="text_7">
      <!-- 1.50 -->
      <g style="fill: #262626" transform="translate(465.348856 404.638438) scale(0.1 -0.1)">
       <use xlink:href="#DejaVuSans-31"/>
       <use xlink:href="#DejaVuSans-2e" transform="translate(63.623047 0)"/>
       <use xlink:href="#DejaVuSans-35" transform="translate(95.410156 0)"/>
       <use xlink:href="#DejaVuSans-30" transform="translate(159.033203 0)"/>
      </g>
     </g>
    </g>
    <g id="xtick_8">
     <g id="line2d_8">
      <path d="M 544.95681 390.04 
L 544.95681 63.659 
" clip-path="url(#p86fed0e178)" style="fill: none; stroke: #ffffff; stroke-width: 0.8; stroke-linecap: round"/>
     </g>
     <g id="text_8">
      <!-- 1.75 -->
      <g style="fill: #262626" transform="translate(533.823998 404.638438) scale(0.1 -0.1)">
       <use xlink:href="#DejaVuSans-31"/>
       <use xlink:href="#DejaVuSans-2e" transform="translate(63.623047 0)"/>
       <use xlink:href="#DejaVuSans-37" transform="translate(95.410156 0)"/>
       <use xlink:href="#DejaVuSans-35" transform="translate(159.033203 0)"/>
      </g>
     </g>
    </g>
    <g id="xtick_9">
     <g id="line2d_9">
      <path d="M 613.431951 390.04 
L 613.431951 63.659 
" clip-path="url(#p86fed0e178)" style="fill: none; stroke: #ffffff; stroke-width: 0.8; stroke-linecap: round"/>
     </g>
     <g id="text_9">
      <!-- 2.00 -->
      <g style="fill: #262626" transform="translate(602.299139 404.638438) scale(0.1 -0.1)">
       <use xlink:href="#DejaVuSans-32"/>
       <use xlink:href="#DejaVuSans-2e" transform="translate(63.623047 0)"/>
       <use xlink:href="#DejaVuSans-30" transform="translate(95.410156 0)"/>
       <use xlink:href="#DejaVuSans-30" transform="translate(159.033203 0)"/>
      </g>
     </g>
    </g>
    <g id="text_10">
     <!-- Steps -->
     <g style="fill: #262626" transform="translate(332.115156 418.316562) scale(0.1 -0.1)">
      <defs>
       <path id="DejaVuSans-53" d="M 3425 4513 
L 3425 3897 
Q 3066 4069 2747 4153 
Q 2428 4238 2131 4238 
Q 1616 4238 1336 4038 
Q 1056 3838 1056 3469 
Q 1056 3159 1242 3001 
Q 1428 2844 1947 2747 
L 2328 2669 
Q 3034 2534 3370 2195 
Q 3706 1856 3706 1288 
Q 3706 609 3251 259 
Q 2797 -91 1919 -91 
Q 1588 -91 1214 -16 
Q 841 59 441 206 
L 441 856 
Q 825 641 1194 531 
Q 1563 422 1919 422 
Q 2459 422 2753 634 
Q 3047 847 3047 1241 
Q 3047 1584 2836 1778 
Q 2625 1972 2144 2069 
L 1759 2144 
Q 1053 2284 737 2584 
Q 422 2884 422 3419 
Q 422 4038 858 4394 
Q 1294 4750 2059 4750 
Q 2388 4750 2728 4690 
Q 3069 4631 3425 4513 
z
" transform="scale(0.015625)"/>
       <path id="DejaVuSans-74" d="M 1172 4494 
L 1172 3500 
L 2356 3500 
L 2356 3053 
L 1172 3053 
L 1172 1153 
Q 1172 725 1289 603 
Q 1406 481 1766 481 
L 2356 481 
L 2356 0 
L 1766 0 
Q 1100 0 847 248 
Q 594 497 594 1153 
L 594 3053 
L 172 3053 
L 172 3500 
L 594 3500 
L 594 4494 
L 1172 4494 
z
" transform="scale(0.015625)"/>
       <path id="DejaVuSans-65" d="M 3597 1894 
L 3597 1613 
L 953 1613 
Q 991 1019 1311 708 
Q 1631 397 2203 397 
Q 2534 397 2845 478 
Q 3156 559 3463 722 
L 3463 178 
Q 3153 47 2828 -22 
Q 2503 -91 2169 -91 
Q 1331 -91 842 396 
Q 353 884 353 1716 
Q 353 2575 817 3079 
Q 1281 3584 2069 3584 
Q 2775 3584 3186 3129 
Q 3597 2675 3597 1894 
z
M 3022 2063 
Q 3016 2534 2758 2815 
Q 2500 3097 2075 3097 
Q 1594 3097 1305 2825 
Q 1016 2553 972 2059 
L 3022 2063 
z
" transform="scale(0.015625)"/>
       <path id="DejaVuSans-70" d="M 1159 525 
L 1159 -1331 
L 581 -1331 
L 581 3500 
L 1159 3500 
L 1159 2969 
Q 1341 3281 1617 3432 
Q 1894 3584 2278 3584 
Q 2916 3584 3314 3078 
Q 3713 2572 3713 1747 
Q 3713 922 3314 415 
Q 2916 -91 2278 -91 
Q 1894 -91 1617 61 
Q 1341 213 1159 525 
z
M 3116 1747 
Q 3116 2381 2855 2742 
Q 2594 3103 2138 3103 
Q 1681 3103 1420 2742 
Q 1159 2381 1159 1747 
Q 1159 1113 1420 752 
Q 1681 391 2138 391 
Q 2594 391 2855 752 
Q 3116 1113 3116 1747 
z
" transform="scale(0.015625)"/>
       <path id="DejaVuSans-73" d="M 2834 3397 
L 2834 2853 
Q 2591 2978 2328 3040 
Q 2066 3103 1784 3103 
Q 1356 3103 1142 2972 
Q 928 2841 928 2578 
Q 928 2378 1081 2264 
Q 1234 2150 1697 2047 
L 1894 2003 
Q 2506 1872 2764 1633 
Q 3022 1394 3022 966 
Q 3022 478 2636 193 
Q 2250 -91 1575 -91 
Q 1294 -91 989 -36 
Q 684 19 347 128 
L 347 722 
Q 666 556 975 473 
Q 1284 391 1588 391 
Q 1994 391 2212 530 
Q 2431 669 2431 922 
Q 2431 1156 2273 1281 
Q 2116 1406 1581 1522 
L 1381 1569 
Q 847 1681 609 1914 
Q 372 2147 372 2553 
Q 372 3047 722 3315 
Q 1072 3584 1716 3584 
Q 2034 3584 2315 3537 
Q 2597 3491 2834 3397 
z
" transform="scale(0.015625)"/>
      </defs>
      <use xlink:href="#DejaVuSans-53"/>
      <use xlink:href="#DejaVuSans-74" transform="translate(63.476562 0)"/>
      <use xlink:href="#DejaVuSans-65" transform="translate(102.685547 0)"/>
      <use xlink:href="#DejaVuSans-70" transform="translate(164.208984 0)"/>
      <use xlink:href="#DejaVuSans-73" transform="translate(227.685547 0)"/>
     </g>
    </g>
    <g id="text_11">
     <!-- 1e6 -->
     <g style="fill: #262626" transform="translate(607.701875 417.316562) scale(0.1 -0.1)">
      <defs>
       <path id="DejaVuSans-36" d="M 2113 2584 
Q 1688 2584 1439 2293 
Q 1191 2003 1191 1497 
Q 1191 994 1439 701 
Q 1688 409 2113 409 
Q 2538 409 2786 701 
Q 3034 994 3034 1497 
Q 3034 2003 2786 2293 
Q 2538 2584 2113 2584 
z
M 3366 4563 
L 3366 3988 
Q 3128 4100 2886 4159 
Q 2644 4219 2406 4219 
Q 1781 4219 1451 3797 
Q 1122 3375 1075 2522 
Q 1259 2794 1537 2939 
Q 1816 3084 2150 3084 
Q 2853 3084 3261 2657 
Q 3669 2231 3669 1497 
Q 3669 778 3244 343 
Q 2819 -91 2113 -91 
Q 1303 -91 875 529 
Q 447 1150 447 2328 
Q 447 3434 972 4092 
Q 1497 4750 2381 4750 
Q 2619 4750 2861 4703 
Q 3103 4656 3366 4563 
z
" transform="scale(0.015625)"/>
      </defs>
      <use xlink:href="#DejaVuSans-31"/>
      <use xlink:href="#DejaVuSans-65" transform="translate(63.623047 0)"/>
      <use xlink:href="#DejaVuSans-36" transform="translate(125.146484 0)"/>
     </g>
    </g>
   </g>
   <g id="matplotlib.axis_2">
    <g id="ytick_1">
     <g id="line2d_10">
      <path d="M 65.63 390.04 
L 626.58 390.04 
" clip-path="url(#p86fed0e178)" style="fill: none; stroke: #ffffff; stroke-width: 0.8; stroke-linecap: round"/>
     </g>
     <g id="text_12">
      <!-- −1600 -->
      <g style="fill: #262626" transform="translate(24.800313 393.839219) scale(0.1 -0.1)">
       <defs>
        <path id="DejaVuSans-2212" d="M 678 2272 
L 4684 2272 
L 4684 1741 
L 678 1741 
L 678 2272 
z
" transform="scale(0.015625)"/>
       </defs>
       <use xlink:href="#DejaVuSans-2212"/>
       <use xlink:href="#DejaVuSans-31" transform="translate(83.789062 0)"/>
       <use xlink:href="#DejaVuSans-36" transform="translate(147.412109 0)"/>
       <use xlink:href="#DejaVuSans-30" transform="translate(211.035156 0)"/>
       <use xlink:href="#DejaVuSans-30" transform="translate(274.658203 0)"/>
      </g>
     </g>
    </g>
    <g id="ytick_2">
     <g id="line2d_11">
      <path d="M 65.63 349.242375 
L 626.58 349.242375 
" clip-path="url(#p86fed0e178)" style="fill: none; stroke: #ffffff; stroke-width: 0.8; stroke-linecap: round"/>
     </g>
     <g id="text_13">
      <!-- −1400 -->
      <g style="fill: #262626" transform="translate(24.800313 353.041594) scale(0.1 -0.1)">
       <defs>
        <path id="DejaVuSans-34" d="M 2419 4116 
L 825 1625 
L 2419 1625 
L 2419 4116 
z
M 2253 4666 
L 3047 4666 
L 3047 1625 
L 3713 1625 
L 3713 1100 
L 3047 1100 
L 3047 0 
L 2419 0 
L 2419 1100 
L 313 1100 
L 313 1709 
L 2253 4666 
z
" transform="scale(0.015625)"/>
       </defs>
       <use xlink:href="#DejaVuSans-2212"/>
       <use xlink:href="#DejaVuSans-31" transform="translate(83.789062 0)"/>
       <use xlink:href="#DejaVuSans-34" transform="translate(147.412109 0)"/>
       <use xlink:href="#DejaVuSans-30" transform="translate(211.035156 0)"/>
       <use xlink:href="#DejaVuSans-30" transform="translate(274.658203 0)"/>
      </g>
     </g>
    </g>
    <g id="ytick_3">
     <g id="line2d_12">
      <path d="M 65.63 308.44475 
L 626.58 308.44475 
" clip-path="url(#p86fed0e178)" style="fill: none; stroke: #ffffff; stroke-width: 0.8; stroke-linecap: round"/>
     </g>
     <g id="text_14">
      <!-- −1200 -->
      <g style="fill: #262626" transform="translate(24.800313 312.243969) scale(0.1 -0.1)">
       <use xlink:href="#DejaVuSans-2212"/>
       <use xlink:href="#DejaVuSans-31" transform="translate(83.789062 0)"/>
       <use xlink:href="#DejaVuSans-32" transform="translate(147.412109 0)"/>
       <use xlink:href="#DejaVuSans-30" transform="translate(211.035156 0)"/>
       <use xlink:href="#DejaVuSans-30" transform="translate(274.658203 0)"/>
      </g>
     </g>
    </g>
    <g id="ytick_4">
     <g id="line2d_13">
      <path d="M 65.63 267.647125 
L 626.58 267.647125 
" clip-path="url(#p86fed0e178)" style="fill: none; stroke: #ffffff; stroke-width: 0.8; stroke-linecap: round"/>
     </g>
     <g id="text_15">
      <!-- −1000 -->
      <g style="fill: #262626" transform="translate(24.800313 271.446344) scale(0.1 -0.1)">
       <use xlink:href="#DejaVuSans-2212"/>
       <use xlink:href="#DejaVuSans-31" transform="translate(83.789062 0)"/>
       <use xlink:href="#DejaVuSans-30" transform="translate(147.412109 0)"/>
       <use xlink:href="#DejaVuSans-30" transform="translate(211.035156 0)"/>
       <use xlink:href="#DejaVuSans-30" transform="translate(274.658203 0)"/>
      </g>
     </g>
    </g>
    <g id="ytick_5">
     <g id="line2d_14">
      <path d="M 65.63 226.8495 
L 626.58 226.8495 
" clip-path="url(#p86fed0e178)" style="fill: none; stroke: #ffffff; stroke-width: 0.8; stroke-linecap: round"/>
     </g>
     <g id="text_16">
      <!-- −800 -->
      <g style="fill: #262626" transform="translate(31.162813 230.648719) scale(0.1 -0.1)">
       <defs>
        <path id="DejaVuSans-38" d="M 2034 2216 
Q 1584 2216 1326 1975 
Q 1069 1734 1069 1313 
Q 1069 891 1326 650 
Q 1584 409 2034 409 
Q 2484 409 2743 651 
Q 3003 894 3003 1313 
Q 3003 1734 2745 1975 
Q 2488 2216 2034 2216 
z
M 1403 2484 
Q 997 2584 770 2862 
Q 544 3141 544 3541 
Q 544 4100 942 4425 
Q 1341 4750 2034 4750 
Q 2731 4750 3128 4425 
Q 3525 4100 3525 3541 
Q 3525 3141 3298 2862 
Q 3072 2584 2669 2484 
Q 3125 2378 3379 2068 
Q 3634 1759 3634 1313 
Q 3634 634 3220 271 
Q 2806 -91 2034 -91 
Q 1263 -91 848 271 
Q 434 634 434 1313 
Q 434 1759 690 2068 
Q 947 2378 1403 2484 
z
M 1172 3481 
Q 1172 3119 1398 2916 
Q 1625 2713 2034 2713 
Q 2441 2713 2670 2916 
Q 2900 3119 2900 3481 
Q 2900 3844 2670 4047 
Q 2441 4250 2034 4250 
Q 1625 4250 1398 4047 
Q 1172 3844 1172 3481 
z
" transform="scale(0.015625)"/>
       </defs>
       <use xlink:href="#DejaVuSans-2212"/>
       <use xlink:href="#DejaVuSans-38" transform="translate(83.789062 0)"/>
       <use xlink:href="#DejaVuSans-30" transform="translate(147.412109 0)"/>
       <use xlink:href="#DejaVuSans-30" transform="translate(211.035156 0)"/>
      </g>
     </g>
    </g>
    <g id="ytick_6">
     <g id="line2d_15">
      <path d="M 65.63 186.051875 
L 626.58 186.051875 
" clip-path="url(#p86fed0e178)" style="fill: none; stroke: #ffffff; stroke-width: 0.8; stroke-linecap: round"/>
     </g>
     <g id="text_17">
      <!-- −600 -->
      <g style="fill: #262626" transform="translate(31.162813 189.851094) scale(0.1 -0.1)">
       <use xlink:href="#DejaVuSans-2212"/>
       <use xlink:href="#DejaVuSans-36" transform="translate(83.789062 0)"/>
       <use xlink:href="#DejaVuSans-30" transform="translate(147.412109 0)"/>
       <use xlink:href="#DejaVuSans-30" transform="translate(211.035156 0)"/>
      </g>
     </g>
    </g>
    <g id="ytick_7">
     <g id="line2d_16">
      <path d="M 65.63 145.25425 
L 626.58 145.25425 
" clip-path="url(#p86fed0e178)" style="fill: none; stroke: #ffffff; stroke-width: 0.8; stroke-linecap: round"/>
     </g>
     <g id="text_18">
      <!-- −400 -->
      <g style="fill: #262626" transform="translate(31.162813 149.053469) scale(0.1 -0.1)">
       <use xlink:href="#DejaVuSans-2212"/>
       <use xlink:href="#DejaVuSans-34" transform="translate(83.789062 0)"/>
       <use xlink:href="#DejaVuSans-30" transform="translate(147.412109 0)"/>
       <use xlink:href="#DejaVuSans-30" transform="translate(211.035156 0)"/>
      </g>
     </g>
    </g>
    <g id="ytick_8">
     <g id="line2d_17">
      <path d="M 65.63 104.456625 
L 626.58 104.456625 
" clip-path="url(#p86fed0e178)" style="fill: none; stroke: #ffffff; stroke-width: 0.8; stroke-linecap: round"/>
     </g>
     <g id="text_19">
      <!-- −200 -->
      <g style="fill: #262626" transform="translate(31.162813 108.255844) scale(0.1 -0.1)">
       <use xlink:href="#DejaVuSans-2212"/>
       <use xlink:href="#DejaVuSans-32" transform="translate(83.789062 0)"/>
       <use xlink:href="#DejaVuSans-30" transform="translate(147.412109 0)"/>
       <use xlink:href="#DejaVuSans-30" transform="translate(211.035156 0)"/>
      </g>
     </g>
    </g>
    <g id="ytick_9">
     <g id="line2d_18">
      <path d="M 65.63 63.659 
L 626.58 63.659 
" clip-path="url(#p86fed0e178)" style="fill: none; stroke: #ffffff; stroke-width: 0.8; stroke-linecap: round"/>
     </g>
     <g id="text_20">
      <!-- 0 -->
      <g style="fill: #262626" transform="translate(52.2675 67.458219) scale(0.1 -0.1)">
       <use xlink:href="#DejaVuSans-30"/>
      </g>
     </g>
    </g>
    <g id="text_21">
     <!-- Reward -->
     <g style="fill: #262626" transform="translate(18.720625 245.470594) rotate(-90) scale(0.1 -0.1)">
      <defs>
       <path id="DejaVuSans-52" d="M 2841 2188 
Q 3044 2119 3236 1894 
Q 3428 1669 3622 1275 
L 4263 0 
L 3584 0 
L 2988 1197 
Q 2756 1666 2539 1819 
Q 2322 1972 1947 1972 
L 1259 1972 
L 1259 0 
L 628 0 
L 628 4666 
L 2053 4666 
Q 2853 4666 3247 4331 
Q 3641 3997 3641 3322 
Q 3641 2881 3436 2590 
Q 3231 2300 2841 2188 
z
M 1259 4147 
L 1259 2491 
L 2053 2491 
Q 2509 2491 2742 2702 
Q 2975 2913 2975 3322 
Q 2975 3731 2742 3939 
Q 2509 4147 2053 4147 
L 1259 4147 
z
" transform="scale(0.015625)"/>
       <path id="DejaVuSans-77" d="M 269 3500 
L 844 3500 
L 1563 769 
L 2278 3500 
L 2956 3500 
L 3675 769 
L 4391 3500 
L 4966 3500 
L 4050 0 
L 3372 0 
L 2619 2869 
L 1863 0 
L 1184 0 
L 269 3500 
z
" transform="scale(0.015625)"/>
       <path id="DejaVuSans-61" d="M 2194 1759 
Q 1497 1759 1228 1600 
Q 959 1441 959 1056 
Q 959 750 1161 570 
Q 1363 391 1709 391 
Q 2188 391 2477 730 
Q 2766 1069 2766 1631 
L 2766 1759 
L 2194 1759 
z
M 3341 1997 
L 3341 0 
L 2766 0 
L 2766 531 
Q 2569 213 2275 61 
Q 1981 -91 1556 -91 
Q 1019 -91 701 211 
Q 384 513 384 1019 
Q 384 1609 779 1909 
Q 1175 2209 1959 2209 
L 2766 2209 
L 2766 2266 
Q 2766 2663 2505 2880 
Q 2244 3097 1772 3097 
Q 1472 3097 1187 3025 
Q 903 2953 641 2809 
L 641 3341 
Q 956 3463 1253 3523 
Q 1550 3584 1831 3584 
Q 2591 3584 2966 3190 
Q 3341 2797 3341 1997 
z
" transform="scale(0.015625)"/>
       <path id="DejaVuSans-72" d="M 2631 2963 
Q 2534 3019 2420 3045 
Q 2306 3072 2169 3072 
Q 1681 3072 1420 2755 
Q 1159 2438 1159 1844 
L 1159 0 
L 581 0 
L 581 3500 
L 1159 3500 
L 1159 2956 
Q 1341 3275 1631 3429 
Q 1922 3584 2338 3584 
Q 2397 3584 2469 3576 
Q 2541 3569 2628 3553 
L 2631 2963 
z
" transform="scale(0.015625)"/>
       <path id="DejaVuSans-64" d="M 2906 2969 
L 2906 4863 
L 3481 4863 
L 3481 0 
L 2906 0 
L 2906 525 
Q 2725 213 2448 61 
Q 2172 -91 1784 -91 
Q 1150 -91 751 415 
Q 353 922 353 1747 
Q 353 2572 751 3078 
Q 1150 3584 1784 3584 
Q 2172 3584 2448 3432 
Q 2725 3281 2906 2969 
z
M 947 1747 
Q 947 1113 1208 752 
Q 1469 391 1925 391 
Q 2381 391 2643 752 
Q 2906 1113 2906 1747 
Q 2906 2381 2643 2742 
Q 2381 3103 1925 3103 
Q 1469 3103 1208 2742 
Q 947 2381 947 1747 
z
" transform="scale(0.015625)"/>
      </defs>
      <use xlink:href="#DejaVuSans-52"/>
      <use xlink:href="#DejaVuSans-65" transform="translate(64.982422 0)"/>
      <use xlink:href="#DejaVuSans-77" transform="translate(126.505859 0)"/>
      <use xlink:href="#DejaVuSans-61" transform="translate(208.292969 0)"/>
      <use xlink:href="#DejaVuSans-72" transform="translate(269.572266 0)"/>
      <use xlink:href="#DejaVuSans-64" transform="translate(308.935547 0)"/>
     </g>
    </g>
   </g>
   <g id="line2d_19">
    <path d="M 65.630822 311.193916 
L 71.240305 308.706128 
L 76.849789 304.395226 
L 82.459272 299.290648 
L 88.068756 295.621115 
L 93.67824 291.981516 
L 99.287723 288.072 
L 104.897207 284.447374 
L 110.50669 282.365034 
L 116.116174 282.957 
L 121.725657 280.95326 
L 127.335141 278.342376 
L 132.944624 277.28093 
L 138.554108 275.914386 
L 144.163592 275.48778 
L 149.773075 274.80301 
L 155.382559 271.075121 
L 160.992042 267.085804 
L 166.601526 263.820004 
L 172.211009 259.914414 
L 177.820493 256.964318 
L 183.429977 252.721267 
L 189.03946 245.092955 
L 194.648944 239.478373 
L 200.258427 235.526733 
L 205.867911 229.116143 
L 211.477394 222.606981 
L 217.086878 218.197431 
L 222.696362 213.837679 
L 228.305845 208.353509 
L 233.915329 200.587163 
L 239.524812 193.115096 
L 245.134296 188.438367 
L 250.743779 188.953383 
L 256.353263 195.404881 
L 261.962747 202.804138 
L 267.57223 212.357573 
L 273.181714 219.2068 
L 278.791197 214.890365 
L 284.400681 205.525839 
L 290.010164 203.803121 
L 295.619648 210.988643 
L 301.229131 212.381872 
L 306.838615 205.79747 
L 312.448099 199.177999 
L 318.057582 196.380854 
L 323.667066 196.079615 
L 329.276549 194.162604 
L 334.886033 189.70394 
L 340.495516 185.904486 
L 346.105 184.260259 
L 351.714484 182.844015 
L 357.323967 179.574456 
L 362.933451 177.316171 
L 368.542934 179.212578 
L 374.152418 182.086193 
L 379.761901 186.771873 
L 385.371385 194.935764 
L 390.980869 197.982241 
L 396.590352 192.345413 
L 402.199836 188.683779 
L 407.809319 187.826009 
L 413.418803 187.449213 
L 419.028286 187.248757 
L 424.63777 186.514943 
L 430.247253 184.394363 
L 435.856737 180.30954 
L 441.466221 174.790703 
L 447.075704 167.805781 
L 452.685188 161.994957 
L 458.294671 159.625202 
L 463.904155 159.562605 
L 469.513638 160.863656 
L 475.123122 163.035731 
L 480.732606 163.813071 
L 486.342089 164.70835 
L 491.951573 165.543264 
L 497.561056 169.223517 
L 503.17054 180.2255 
L 508.780023 189.457799 
L 514.389507 190.514946 
L 519.998991 189.619121 
L 525.608474 190.09983 
L 531.217958 189.730592 
L 536.827441 192.081869 
L 542.436925 200.974599 
L 548.046408 207.901638 
L 553.655892 211.418268 
L 559.265376 212.528244 
L 564.874859 210.287523 
L 570.484343 205.634377 
L 576.093826 201.50087 
L 581.70331 200.745348 
L 587.312793 200.408812 
L 592.922277 196.778653 
L 598.53176 192.923806 
L 604.141244 194.345547 
L 609.750728 201.538598 
L 615.360211 210.406468 
L 620.969695 215.473007 
" clip-path="url(#p86fed0e178)" style="fill: none; stroke: #1f77b4; stroke-width: 1.5; stroke-linecap: round"/>
   </g>
   <g id="line2d_20">
    <path d="M 65.630822 309.933836 
L 71.240305 306.723484 
L 76.849789 302.593955 
L 82.459272 298.507642 
L 88.068756 295.939989 
L 93.67824 292.15626 
L 99.287723 286.637114 
L 104.897207 282.792383 
L 110.50669 281.607498 
L 116.116174 280.172402 
L 121.725657 275.165808 
L 127.335141 269.44599 
L 132.944624 264.191096 
L 138.554108 257.646659 
L 144.163592 251.629421 
L 149.773075 246.174039 
L 155.382559 237.360613 
L 160.992042 224.673083 
L 166.601526 210.588286 
L 172.211009 198.790293 
L 177.820493 188.718728 
L 183.429977 176.979559 
L 189.03946 162.905339 
L 194.648944 152.601104 
L 200.258427 145.995863 
L 205.867911 137.374584 
L 211.477394 128.568768 
L 217.086878 123.424871 
L 222.696362 119.556091 
L 228.305845 117.516462 
L 233.915329 116.461928 
L 239.524812 112.331794 
L 245.134296 108.63421 
L 250.743779 108.568818 
L 256.353263 109.434421 
L 261.962747 109.08671 
L 267.57223 107.49924 
L 273.181714 105.822864 
L 278.791197 105.294188 
L 284.400681 105.026691 
L 290.010164 105.126018 
L 295.619648 105.364984 
L 301.229131 103.966182 
L 306.838615 103.551489 
L 312.448099 103.626165 
L 318.057582 103.122926 
L 323.667066 102.913897 
L 329.276549 102.262492 
L 334.886033 99.830265 
L 340.495516 97.876382 
L 346.105 97.813196 
L 351.714484 99.627483 
L 357.323967 101.272314 
L 362.933451 99.681024 
L 368.542934 97.981664 
L 374.152418 98.196275 
L 379.761901 98.421812 
L 385.371385 97.596872 
L 390.980869 96.367057 
L 396.590352 95.81949 
L 402.199836 98.091081 
L 407.809319 100.717747 
L 413.418803 100.235168 
L 419.028286 98.974146 
L 424.63777 98.18571 
L 430.247253 97.614768 
L 435.856737 96.832394 
L 441.466221 96.328533 
L 447.075704 97.488699 
L 452.685188 99.700736 
L 458.294671 101.175703 
L 463.904155 101.705077 
L 469.513638 100.650676 
L 475.123122 99.557627 
L 480.732606 101.743881 
L 486.342089 104.737025 
L 491.951573 104.545487 
L 497.561056 100.885707 
L 503.17054 96.903358 
L 508.780023 94.843136 
L 514.389507 94.101123 
L 519.998991 94.184519 
L 525.608474 95.047368 
L 531.217958 95.57417 
L 536.827441 95.421477 
L 542.436925 95.081426 
L 548.046408 94.23995 
L 553.655892 93.807546 
L 559.265376 94.81639 
L 564.874859 95.779718 
L 570.484343 95.361547 
L 576.093826 94.67136 
L 581.70331 94.694785 
L 587.312793 94.717378 
L 592.922277 93.960557 
L 598.53176 93.22538 
L 604.141244 93.238722 
L 609.750728 93.383048 
L 615.360211 93.524598 
L 620.969695 93.586785 
" clip-path="url(#p86fed0e178)" style="fill: none; stroke-dasharray: 5.55,2.4; stroke-dashoffset: 0; stroke: #1f77b4; stroke-width: 1.5"/>
   </g>
   <g id="line2d_21">
    <path d="M 65.630822 311.497727 
L 71.240305 309.309146 
L 76.849789 304.847332 
L 82.459272 298.278404 
L 88.068756 291.445021 
L 93.67824 282.641949 
L 99.287723 274.05379 
L 104.897207 269.808137 
L 110.50669 270.240424 
L 116.116174 272.346815 
L 121.725657 271.128083 
L 127.335141 268.393254 
L 132.944624 264.949489 
L 138.554108 260.23239 
L 144.163592 256.947983 
L 149.773075 254.668743 
L 155.382559 252.094685 
L 160.992042 249.934111 
L 166.601526 245.65873 
L 172.211009 239.744517 
L 177.820493 234.914636 
L 183.429977 229.780448 
L 189.03946 223.117599 
L 194.648944 217.916516 
L 200.258427 214.557701 
L 205.867911 209.5915 
L 211.477394 204.510449 
L 217.086878 200.272584 
L 222.696362 193.53969 
L 228.305845 185.153421 
L 233.915329 178.396786 
L 239.524812 174.699029 
L 245.134296 171.847656 
L 250.743779 168.082408 
L 256.353263 163.06135 
L 261.962747 156.566697 
L 267.57223 151.543875 
L 273.181714 149.582153 
L 278.791197 148.428393 
L 284.400681 147.675644 
L 290.010164 157.974691 
L 295.619648 180.824983 
L 301.229131 194.427062 
L 306.838615 189.378621 
L 312.448099 179.548763 
L 318.057582 173.32429 
L 323.667066 168.673763 
L 329.276549 163.198237 
L 334.886033 157.943635 
L 340.495516 155.327308 
L 346.105 154.176236 
L 351.714484 152.609887 
L 357.323967 149.30583 
L 362.933451 143.4176 
L 368.542934 139.754405 
L 374.152418 140.951432 
L 379.761901 144.804231 
L 385.371385 146.168108 
L 390.980869 143.004389 
L 396.590352 135.745391 
L 402.199836 130.589584 
L 407.809319 131.743014 
L 413.418803 136.198521 
L 419.028286 139.472673 
L 424.63777 139.503382 
L 430.247253 139.450803 
L 435.856737 140.416501 
L 441.466221 141.55505 
L 447.075704 143.689756 
L 452.685188 149.679723 
L 458.294671 159.947818 
L 463.904155 168.081235 
L 469.513638 170.220318 
L 475.123122 167.794589 
L 480.732606 165.467952 
L 486.342089 165.264342 
L 491.951573 164.805738 
L 497.561056 162.841754 
L 503.17054 162.939639 
L 508.780023 165.329079 
L 514.389507 167.192734 
L 519.998991 165.618773 
L 525.608474 163.862307 
L 531.217958 162.60048 
L 536.827441 162.056709 
L 542.436925 163.213652 
L 548.046408 163.584897 
L 553.655892 163.873766 
L 559.265376 169.27114 
L 564.874859 174.255464 
L 570.484343 169.815627 
L 576.093826 164.041473 
L 581.70331 162.963546 
L 587.312793 161.846277 
L 592.922277 156.650955 
L 598.53176 153.092518 
L 604.141244 154.988942 
L 609.750728 155.921271 
L 615.360211 150.637843 
L 620.969695 143.786739 
" clip-path="url(#p86fed0e178)" style="fill: none; stroke: #ff7f0e; stroke-width: 1.5; stroke-linecap: round"/>
   </g>
   <g id="line2d_22">
    <path d="M 65.630822 309.380402 
L 71.240305 306.704329 
L 76.849789 303.331273 
L 82.459272 300.015985 
L 88.068756 298.670714 
L 93.67824 295.620873 
L 99.287723 289.515177 
L 104.897207 282.761237 
L 110.50669 277.155271 
L 116.116174 273.107919 
L 121.725657 265.845392 
L 127.335141 256.231355 
L 132.944624 247.028152 
L 138.554108 237.887096 
L 144.163592 228.629682 
L 149.773075 216.783588 
L 155.382559 200.781598 
L 160.992042 186.253751 
L 166.601526 174.054731 
L 172.211009 163.116447 
L 177.820493 153.809112 
L 183.429977 143.777743 
L 189.03946 133.233615 
L 194.648944 126.355741 
L 200.258427 122.912493 
L 205.867911 119.569841 
L 211.477394 116.656899 
L 217.086878 114.161163 
L 222.696362 110.769064 
L 228.305845 107.739275 
L 233.915329 106.422708 
L 239.524812 106.619846 
L 245.134296 107.846442 
L 250.743779 109.360596 
L 256.353263 109.913203 
L 261.962747 108.937844 
L 267.57223 106.559656 
L 273.181714 105.20119 
L 278.791197 105.160632 
L 284.400681 105.761952 
L 290.010164 107.417238 
L 295.619648 107.901788 
L 301.229131 104.9279 
L 306.838615 103.206933 
L 312.448099 104.129268 
L 318.057582 104.229916 
L 323.667066 102.542632 
L 329.276549 99.848184 
L 334.886033 97.51551 
L 340.495516 96.583658 
L 346.105 96.716167 
L 351.714484 97.684488 
L 357.323967 99.463777 
L 362.933451 100.27164 
L 368.542934 99.560454 
L 374.152418 98.842805 
L 379.761901 98.906833 
L 385.371385 98.594093 
L 390.980869 97.498614 
L 396.590352 96.994892 
L 402.199836 97.491176 
L 407.809319 97.614641 
L 413.418803 97.565225 
L 419.028286 97.250072 
L 424.63777 96.583204 
L 430.247253 96.385895 
L 435.856737 96.468088 
L 441.466221 96.312883 
L 447.075704 96.581104 
L 452.685188 96.350306 
L 458.294671 95.397393 
L 463.904155 95.869027 
L 469.513638 96.396369 
L 475.123122 95.204074 
L 480.732606 94.448903 
L 486.342089 94.661436 
L 491.951573 94.663972 
L 497.561056 94.146867 
L 503.17054 93.809636 
L 508.780023 93.76429 
L 514.389507 93.607879 
L 519.998991 93.754728 
L 525.608474 94.533311 
L 531.217958 95.204817 
L 536.827441 95.335401 
L 542.436925 95.135769 
L 548.046408 94.270448 
L 553.655892 93.830881 
L 559.265376 94.593217 
L 564.874859 95.354895 
L 570.484343 95.035243 
L 576.093826 94.504746 
L 581.70331 94.738485 
L 587.312793 94.944774 
L 592.922277 94.148201 
L 598.53176 93.211012 
L 604.141244 93.164658 
L 609.750728 93.380591 
L 615.360211 93.704199 
L 620.969695 93.875147 
" clip-path="url(#p86fed0e178)" style="fill: none; stroke-dasharray: 5.55,2.4; stroke-dashoffset: 0; stroke: #ff7f0e; stroke-width: 1.5"/>
   </g>
   <g id="line2d_23">
    <path d="M 65.630822 312.812462 
L 71.240305 310.152187 
L 76.849789 304.222688 
L 82.459272 295.809745 
L 88.068756 287.813149 
L 93.67824 280.113728 
L 99.287723 271.866179 
L 104.897207 264.491156 
L 110.50669 258.393576 
L 116.116174 252.889632 
L 121.725657 245.780953 
L 127.335141 238.6661 
L 132.944624 231.852168 
L 138.554108 223.874927 
L 144.163592 216.439476 
L 149.773075 210.466652 
L 155.382559 203.529613 
L 160.992042 195.95027 
L 166.601526 188.380711 
L 172.211009 182.594366 
L 177.820493 180.960646 
L 183.429977 178.135968 
L 189.03946 172.305247 
L 194.648944 172.412665 
L 200.258427 176.208421 
L 205.867911 174.389091 
L 211.477394 173.358078 
L 217.086878 173.767514 
L 222.696362 167.501624 
L 228.305845 156.951522 
L 233.915329 150.46824 
L 239.524812 151.774231 
L 245.134296 156.423451 
L 250.743779 161.72211 
L 256.353263 172.390364 
L 261.962747 184.017876 
L 267.57223 186.197511 
L 273.181714 185.993122 
L 278.791197 185.197609 
L 284.400681 182.654915 
L 290.010164 188.092179 
L 295.619648 197.512678 
L 301.229131 198.939987 
L 306.838615 203.708577 
L 312.448099 217.1801 
L 318.057582 225.711633 
L 323.667066 225.205081 
L 329.276549 217.842203 
L 334.886033 209.168674 
L 340.495516 205.049447 
L 346.105 206.829543 
L 351.714484 215.9956 
L 357.323967 236.88902 
L 362.933451 258.36693 
L 368.542934 265.284084 
L 374.152418 258.659332 
L 379.761901 246.284733 
L 385.371385 233.698772 
L 390.980869 221.623279 
L 396.590352 210.875061 
L 402.199836 208.071692 
L 407.809319 207.660828 
L 413.418803 204.820939 
L 419.028286 201.736964 
L 424.63777 198.51991 
L 430.247253 196.732791 
L 435.856737 196.964645 
L 441.466221 193.582166 
L 447.075704 187.797555 
L 452.685188 183.200399 
L 458.294671 180.442359 
L 463.904155 179.552501 
L 469.513638 176.677561 
L 475.123122 170.978855 
L 480.732606 166.085624 
L 486.342089 165.755412 
L 491.951573 166.971982 
L 497.561056 165.197524 
L 503.17054 163.724122 
L 508.780023 163.87208 
L 514.389507 162.47461 
L 519.998991 163.016823 
L 525.608474 172.376794 
L 531.217958 185.330598 
L 536.827441 192.488693 
L 542.436925 193.971128 
L 548.046408 192.076706 
L 553.655892 191.341882 
L 559.265376 192.386872 
L 564.874859 191.700987 
L 570.484343 189.79741 
L 576.093826 188.481243 
L 581.70331 188.516144 
L 587.312793 188.909404 
L 592.922277 187.24426 
L 598.53176 184.601261 
L 604.141244 183.597355 
L 609.750728 184.249776 
L 615.360211 184.751022 
L 620.969695 184.784239 
" clip-path="url(#p86fed0e178)" style="fill: none; stroke: #2ca02c; stroke-width: 1.5; stroke-linecap: round"/>
   </g>
   <g id="line2d_24">
    <path d="M 65.630822 311.141909 
L 71.240305 310.402863 
L 76.849789 307.467327 
L 82.459272 301.865575 
L 88.068756 297.635089 
L 93.67824 293.113485 
L 99.287723 287.54342 
L 104.897207 281.250109 
L 110.50669 274.276594 
L 116.116174 266.940509 
L 121.725657 257.605692 
L 127.335141 245.707477 
L 132.944624 229.538713 
L 138.554108 211.027102 
L 144.163592 195.991009 
L 149.773075 186.14003 
L 155.382559 176.809588 
L 160.992042 165.744776 
L 166.601526 154.99022 
L 172.211009 148.640356 
L 177.820493 147.685792 
L 183.429977 145.641552 
L 189.03946 140.190765 
L 194.648944 137.878384 
L 200.258427 136.363017 
L 205.867911 132.532152 
L 211.477394 132.405233 
L 217.086878 135.387792 
L 222.696362 134.28138 
L 228.305845 129.013188 
L 233.915329 124.46497 
L 239.524812 120.716459 
L 245.134296 117.818002 
L 250.743779 117.756382 
L 256.353263 119.99026 
L 261.962747 121.813081 
L 267.57223 121.109409 
L 273.181714 119.223825 
L 278.791197 118.616776 
L 284.400681 118.637517 
L 290.010164 120.425757 
L 295.619648 121.291644 
L 301.229131 117.87505 
L 306.838615 116.070131 
L 312.448099 117.93553 
L 318.057582 119.285722 
L 323.667066 119.239616 
L 329.276549 117.027412 
L 334.886033 114.604814 
L 340.495516 111.665933 
L 346.105 109.168535 
L 351.714484 109.442342 
L 357.323967 111.740359 
L 362.933451 114.891912 
L 368.542934 116.190044 
L 374.152418 117.091361 
L 379.761901 122.396364 
L 385.371385 127.597407 
L 390.980869 126.341393 
L 396.590352 121.530222 
L 402.199836 120.927952 
L 407.809319 122.559336 
L 413.418803 124.274899 
L 419.028286 126.671506 
L 424.63777 127.521135 
L 430.247253 123.82485 
L 435.856737 120.433486 
L 441.466221 120.650466 
L 447.075704 119.653408 
L 452.685188 116.340321 
L 458.294671 116.247369 
L 463.904155 119.176206 
L 469.513638 119.924773 
L 475.123122 116.068286 
L 480.732606 111.446776 
L 486.342089 110.809419 
L 491.951573 109.035202 
L 497.561056 103.52853 
L 503.17054 100.7237 
L 508.780023 102.985686 
L 514.389507 107.433809 
L 519.998991 110.986718 
L 525.608474 113.130944 
L 531.217958 113.807532 
L 536.827441 112.731242 
L 542.436925 111.265553 
L 548.046408 110.179155 
L 553.655892 109.742516 
L 559.265376 110.160134 
L 564.874859 108.687576 
L 570.484343 106.92816 
L 576.093826 106.425055 
L 581.70331 104.66209 
L 587.312793 101.949432 
L 592.922277 99.363704 
L 598.53176 97.501556 
L 604.141244 96.776764 
L 609.750728 96.604899 
L 615.360211 96.539678 
L 620.969695 96.410145 
" clip-path="url(#p86fed0e178)" style="fill: none; stroke-dasharray: 5.55,2.4; stroke-dashoffset: 0; stroke: #2ca02c; stroke-width: 1.5"/>
   </g>
   <g id="line2d_25">
    <path d="M 65.630822 312.233725 
L 71.240305 309.342476 
L 76.849789 303.641096 
L 82.459272 296.522739 
L 88.068756 290.856538 
L 93.67824 283.545376 
L 99.287723 272.919888 
L 104.897207 262.554556 
L 110.50669 254.761499 
L 116.116174 249.116111 
L 121.725657 241.188542 
L 127.335141 232.180139 
L 132.944624 224.742504 
L 138.554108 217.329799 
L 144.163592 210.229359 
L 149.773075 204.390875 
L 155.382559 197.412544 
L 160.992042 190.303391 
L 166.601526 184.452658 
L 172.211009 182.787093 
L 177.820493 184.368036 
L 183.429977 180.739317 
L 189.03946 173.49603 
L 194.648944 171.744547 
L 200.258427 172.609578 
L 205.867911 169.002831 
L 211.477394 167.649078 
L 217.086878 169.498495 
L 222.696362 164.707758 
L 228.305845 153.90304 
L 233.915329 145.839225 
L 239.524812 142.643433 
L 245.134296 142.981934 
L 250.743779 151.21954 
L 256.353263 167.95704 
L 261.962747 182.448297 
L 267.57223 184.233621 
L 273.181714 183.923096 
L 278.791197 187.617989 
L 284.400681 188.21319 
L 290.010164 187.175753 
L 295.619648 185.66588 
L 301.229131 175.863464 
L 306.838615 171.084415 
L 312.448099 182.062707 
L 318.057582 197.08325 
L 323.667066 201.074658 
L 329.276549 190.435485 
L 334.886033 180.825401 
L 340.495516 182.959042 
L 346.105 188.946536 
L 351.714484 188.904452 
L 357.323967 187.238311 
L 362.933451 186.005051 
L 368.542934 183.982752 
L 374.152418 182.881707 
L 379.761901 180.640723 
L 385.371385 176.284938 
L 390.980869 173.363365 
L 396.590352 171.459809 
L 402.199836 171.111878 
L 407.809319 172.645307 
L 413.418803 172.21665 
L 419.028286 172.946362 
L 424.63777 175.689238 
L 430.247253 175.228614 
L 435.856737 173.847839 
L 441.466221 170.22094 
L 447.075704 166.475124 
L 452.685188 166.210156 
L 458.294671 168.418618 
L 463.904155 171.364051 
L 469.513638 169.879322 
L 475.123122 161.766024 
L 480.732606 154.479107 
L 486.342089 152.731189 
L 491.951573 157.139136 
L 497.561056 163.470826 
L 503.17054 168.824374 
L 508.780023 171.37012 
L 514.389507 170.696188 
L 519.998991 170.465083 
L 525.608474 173.344678 
L 531.217958 179.243279 
L 536.827441 186.14786 
L 542.436925 187.972221 
L 548.046408 179.862206 
L 553.655892 169.967448 
L 559.265376 167.528272 
L 564.874859 167.537978 
L 570.484343 163.019503 
L 576.093826 158.230908 
L 581.70331 156.258349 
L 587.312793 153.548062 
L 592.922277 148.389946 
L 598.53176 144.182158 
L 604.141244 143.39742 
L 609.750728 143.340211 
L 615.360211 140.049682 
L 620.969695 137.425687 
" clip-path="url(#p86fed0e178)" style="fill: none; stroke: #d62728; stroke-width: 1.5; stroke-linecap: round"/>
   </g>
   <g id="line2d_26">
    <path d="M 65.630822 310.869019 
L 71.240305 308.475063 
L 76.849789 303.016435 
L 82.459272 296.541438 
L 88.068756 292.896189 
L 93.67824 289.377592 
L 99.287723 283.67612 
L 104.897207 277.211364 
L 110.50669 272.317143 
L 116.116174 268.006502 
L 121.725657 259.155316 
L 127.335141 247.110848 
L 132.944624 233.644614 
L 138.554108 218.060495 
L 144.163592 204.037704 
L 149.773075 193.030756 
L 155.382559 180.80105 
L 160.992042 169.716133 
L 166.601526 162.889814 
L 172.211009 159.915321 
L 177.820493 158.829721 
L 183.429977 154.480044 
L 189.03946 148.112098 
L 194.648944 145.352049 
L 200.258427 144.13296 
L 205.867911 141.847585 
L 211.477394 141.859365 
L 217.086878 144.914987 
L 222.696362 143.274867 
L 228.305845 135.174905 
L 233.915329 127.796849 
L 239.524812 123.162292 
L 245.134296 121.347947 
L 250.743779 122.543441 
L 256.353263 123.445004 
L 261.962747 123.433382 
L 267.57223 121.887271 
L 273.181714 119.850156 
L 278.791197 119.424052 
L 284.400681 119.967033 
L 290.010164 122.960651 
L 295.619648 124.792605 
L 301.229131 121.221614 
L 306.838615 119.03601 
L 312.448099 120.602648 
L 318.057582 121.993248 
L 323.667066 120.465917 
L 329.276549 117.112146 
L 334.886033 118.207435 
L 340.495516 122.325295 
L 346.105 124.702101 
L 351.714484 125.410294 
L 357.323967 126.148897 
L 362.933451 127.123184 
L 368.542934 127.157481 
L 374.152418 126.807176 
L 379.761901 125.838572 
L 385.371385 121.922958 
L 390.980869 116.656618 
L 396.590352 111.190309 
L 402.199836 108.567884 
L 407.809319 109.590341 
L 413.418803 116.908457 
L 419.028286 127.811543 
L 424.63777 134.874346 
L 430.247253 136.22443 
L 435.856737 135.338001 
L 441.466221 135.212836 
L 447.075704 132.833525 
L 452.685188 129.459833 
L 458.294671 129.075569 
L 463.904155 130.795697 
L 469.513638 131.69068 
L 475.123122 130.602037 
L 480.732606 128.560409 
L 486.342089 125.539008 
L 491.951573 120.282879 
L 497.561056 115.522766 
L 503.17054 115.403428 
L 508.780023 115.796698 
L 514.389507 115.808766 
L 519.998991 116.30725 
L 525.608474 117.863483 
L 531.217958 118.240516 
L 536.827441 116.006365 
L 542.436925 112.693761 
L 548.046408 109.545884 
L 553.655892 107.435165 
L 559.265376 107.842817 
L 564.874859 109.908616 
L 570.484343 111.59106 
L 576.093826 113.14499 
L 581.70331 113.44931 
L 587.312793 111.743944 
L 592.922277 108.196512 
L 598.53176 105.952411 
L 604.141244 105.807646 
L 609.750728 106.081571 
L 615.360211 105.537032 
L 620.969695 104.918418 
" clip-path="url(#p86fed0e178)" style="fill: none; stroke-dasharray: 5.55,2.4; stroke-dashoffset: 0; stroke: #d62728; stroke-width: 1.5"/>
   </g>
   <g id="patch_3">
    <path d="M 65.63 390.04 
L 65.63 63.659 
" style="fill: none; stroke: #ffffff; stroke-width: 0.8; stroke-linejoin: miter; stroke-linecap: square"/>
   </g>
   <g id="patch_4">
    <path d="M 626.58 390.04 
L 626.58 63.659 
" style="fill: none; stroke: #ffffff; stroke-width: 0.8; stroke-linejoin: miter; stroke-linecap: square"/>
   </g>
   <g id="patch_5">
    <path d="M 65.63 390.04 
L 626.58 390.04 
" style="fill: none; stroke: #ffffff; stroke-width: 0.8; stroke-linejoin: miter; stroke-linecap: square"/>
   </g>
   <g id="patch_6">
    <path d="M 65.63 63.659 
L 626.58 63.659 
" style="fill: none; stroke: #ffffff; stroke-width: 0.8; stroke-linejoin: miter; stroke-linecap: square"/>
   </g>
   <g id="legend_1">
    <g id="line2d_27">
     <path d="M 88.634462 41.931898 
L 96.964462 41.931898 
L 105.294462 41.931898 
" style="fill: none; stroke: #1f77b4; stroke-width: 1.5; stroke-linecap: round"/>
    </g>
    <g id="text_22">
     <!-- GNN-Net (No modification) -->
     <g style="fill: #262626" transform="translate(111.958462 44.847398) scale(0.0833 -0.0833)">
      <defs>
       <path id="DejaVuSans-47" d="M 3809 666 
L 3809 1919 
L 2778 1919 
L 2778 2438 
L 4434 2438 
L 4434 434 
Q 4069 175 3628 42 
Q 3188 -91 2688 -91 
Q 1594 -91 976 548 
Q 359 1188 359 2328 
Q 359 3472 976 4111 
Q 1594 4750 2688 4750 
Q 3144 4750 3555 4637 
Q 3966 4525 4313 4306 
L 4313 3634 
Q 3963 3931 3569 4081 
Q 3175 4231 2741 4231 
Q 1884 4231 1454 3753 
Q 1025 3275 1025 2328 
Q 1025 1384 1454 906 
Q 1884 428 2741 428 
Q 3075 428 3337 486 
Q 3600 544 3809 666 
z
" transform="scale(0.015625)"/>
       <path id="DejaVuSans-4e" d="M 628 4666 
L 1478 4666 
L 3547 763 
L 3547 4666 
L 4159 4666 
L 4159 0 
L 3309 0 
L 1241 3903 
L 1241 0 
L 628 0 
L 628 4666 
z
" transform="scale(0.015625)"/>
       <path id="DejaVuSans-2d" d="M 313 2009 
L 1997 2009 
L 1997 1497 
L 313 1497 
L 313 2009 
z
" transform="scale(0.015625)"/>
       <path id="DejaVuSans-20" transform="scale(0.015625)"/>
       <path id="DejaVuSans-28" d="M 1984 4856 
Q 1566 4138 1362 3434 
Q 1159 2731 1159 2009 
Q 1159 1288 1364 580 
Q 1569 -128 1984 -844 
L 1484 -844 
Q 1016 -109 783 600 
Q 550 1309 550 2009 
Q 550 2706 781 3412 
Q 1013 4119 1484 4856 
L 1984 4856 
z
" transform="scale(0.015625)"/>
       <path id="DejaVuSans-6f" d="M 1959 3097 
Q 1497 3097 1228 2736 
Q 959 2375 959 1747 
Q 959 1119 1226 758 
Q 1494 397 1959 397 
Q 2419 397 2687 759 
Q 2956 1122 2956 1747 
Q 2956 2369 2687 2733 
Q 2419 3097 1959 3097 
z
M 1959 3584 
Q 2709 3584 3137 3096 
Q 3566 2609 3566 1747 
Q 3566 888 3137 398 
Q 2709 -91 1959 -91 
Q 1206 -91 779 398 
Q 353 888 353 1747 
Q 353 2609 779 3096 
Q 1206 3584 1959 3584 
z
" transform="scale(0.015625)"/>
       <path id="DejaVuSans-6d" d="M 3328 2828 
Q 3544 3216 3844 3400 
Q 4144 3584 4550 3584 
Q 5097 3584 5394 3201 
Q 5691 2819 5691 2113 
L 5691 0 
L 5113 0 
L 5113 2094 
Q 5113 2597 4934 2840 
Q 4756 3084 4391 3084 
Q 3944 3084 3684 2787 
Q 3425 2491 3425 1978 
L 3425 0 
L 2847 0 
L 2847 2094 
Q 2847 2600 2669 2842 
Q 2491 3084 2119 3084 
Q 1678 3084 1418 2786 
Q 1159 2488 1159 1978 
L 1159 0 
L 581 0 
L 581 3500 
L 1159 3500 
L 1159 2956 
Q 1356 3278 1631 3431 
Q 1906 3584 2284 3584 
Q 2666 3584 2933 3390 
Q 3200 3197 3328 2828 
z
" transform="scale(0.015625)"/>
       <path id="DejaVuSans-69" d="M 603 3500 
L 1178 3500 
L 1178 0 
L 603 0 
L 603 3500 
z
M 603 4863 
L 1178 4863 
L 1178 4134 
L 603 4134 
L 603 4863 
z
" transform="scale(0.015625)"/>
       <path id="DejaVuSans-66" d="M 2375 4863 
L 2375 4384 
L 1825 4384 
Q 1516 4384 1395 4259 
Q 1275 4134 1275 3809 
L 1275 3500 
L 2222 3500 
L 2222 3053 
L 1275 3053 
L 1275 0 
L 697 0 
L 697 3053 
L 147 3053 
L 147 3500 
L 697 3500 
L 697 3744 
Q 697 4328 969 4595 
Q 1241 4863 1831 4863 
L 2375 4863 
z
" transform="scale(0.015625)"/>
       <path id="DejaVuSans-63" d="M 3122 3366 
L 3122 2828 
Q 2878 2963 2633 3030 
Q 2388 3097 2138 3097 
Q 1578 3097 1268 2742 
Q 959 2388 959 1747 
Q 959 1106 1268 751 
Q 1578 397 2138 397 
Q 2388 397 2633 464 
Q 2878 531 3122 666 
L 3122 134 
Q 2881 22 2623 -34 
Q 2366 -91 2075 -91 
Q 1284 -91 818 406 
Q 353 903 353 1747 
Q 353 2603 823 3093 
Q 1294 3584 2113 3584 
Q 2378 3584 2631 3529 
Q 2884 3475 3122 3366 
z
" transform="scale(0.015625)"/>
       <path id="DejaVuSans-6e" d="M 3513 2113 
L 3513 0 
L 2938 0 
L 2938 2094 
Q 2938 2591 2744 2837 
Q 2550 3084 2163 3084 
Q 1697 3084 1428 2787 
Q 1159 2491 1159 1978 
L 1159 0 
L 581 0 
L 581 3500 
L 1159 3500 
L 1159 2956 
Q 1366 3272 1645 3428 
Q 1925 3584 2291 3584 
Q 2894 3584 3203 3211 
Q 3513 2838 3513 2113 
z
" transform="scale(0.015625)"/>
       <path id="DejaVuSans-29" d="M 513 4856 
L 1013 4856 
Q 1481 4119 1714 3412 
Q 1947 2706 1947 2009 
Q 1947 1309 1714 600 
Q 1481 -109 1013 -844 
L 513 -844 
Q 928 -128 1133 580 
Q 1338 1288 1338 2009 
Q 1338 2731 1133 3434 
Q 928 4138 513 4856 
z
" transform="scale(0.015625)"/>
      </defs>
      <use xlink:href="#DejaVuSans-47"/>
      <use xlink:href="#DejaVuSans-4e" transform="translate(77.490234 0)"/>
      <use xlink:href="#DejaVuSans-4e" transform="translate(152.294922 0)"/>
      <use xlink:href="#DejaVuSans-2d" transform="translate(227.099609 0)"/>
      <use xlink:href="#DejaVuSans-4e" transform="translate(263.183594 0)"/>
      <use xlink:href="#DejaVuSans-65" transform="translate(337.988281 0)"/>
      <use xlink:href="#DejaVuSans-74" transform="translate(399.511719 0)"/>
      <use xlink:href="#DejaVuSans-20" transform="translate(438.720703 0)"/>
      <use xlink:href="#DejaVuSans-28" transform="translate(470.507812 0)"/>
      <use xlink:href="#DejaVuSans-4e" transform="translate(509.521484 0)"/>
      <use xlink:href="#DejaVuSans-6f" transform="translate(584.326172 0)"/>
      <use xlink:href="#DejaVuSans-20" transform="translate(645.507812 0)"/>
      <use xlink:href="#DejaVuSans-6d" transform="translate(677.294922 0)"/>
      <use xlink:href="#DejaVuSans-6f" transform="translate(774.707031 0)"/>
      <use xlink:href="#DejaVuSans-64" transform="translate(835.888672 0)"/>
      <use xlink:href="#DejaVuSans-69" transform="translate(899.365234 0)"/>
      <use xlink:href="#DejaVuSans-66" transform="translate(927.148438 0)"/>
      <use xlink:href="#DejaVuSans-69" transform="translate(962.353516 0)"/>
      <use xlink:href="#DejaVuSans-63" transform="translate(990.136719 0)"/>
      <use xlink:href="#DejaVuSans-61" transform="translate(1045.117188 0)"/>
      <use xlink:href="#DejaVuSans-74" transform="translate(1106.396484 0)"/>
      <use xlink:href="#DejaVuSans-69" transform="translate(1145.605469 0)"/>
      <use xlink:href="#DejaVuSans-6f" transform="translate(1173.388672 0)"/>
      <use xlink:href="#DejaVuSans-6e" transform="translate(1234.570312 0)"/>
      <use xlink:href="#DejaVuSans-29" transform="translate(1297.949219 0)"/>
     </g>
    </g>
    <g id="line2d_28">
     <path d="M 88.634462 54.158777 
L 96.964462 54.158777 
L 105.294462 54.158777 
" style="fill: none; stroke-dasharray: 5.55,2.4; stroke-dashoffset: 0; stroke: #1f77b4; stroke-width: 1.5"/>
    </g>
    <g id="text_23">
     <!-- Baseline (No modification) -->
     <g style="fill: #262626" transform="translate(111.958462 57.074277) scale(0.0833 -0.0833)">
      <defs>
       <path id="DejaVuSans-42" d="M 1259 2228 
L 1259 519 
L 2272 519 
Q 2781 519 3026 730 
Q 3272 941 3272 1375 
Q 3272 1813 3026 2020 
Q 2781 2228 2272 2228 
L 1259 2228 
z
M 1259 4147 
L 1259 2741 
L 2194 2741 
Q 2656 2741 2882 2914 
Q 3109 3088 3109 3444 
Q 3109 3797 2882 3972 
Q 2656 4147 2194 4147 
L 1259 4147 
z
M 628 4666 
L 2241 4666 
Q 2963 4666 3353 4366 
Q 3744 4066 3744 3513 
Q 3744 3084 3544 2831 
Q 3344 2578 2956 2516 
Q 3422 2416 3680 2098 
Q 3938 1781 3938 1306 
Q 3938 681 3513 340 
Q 3088 0 2303 0 
L 628 0 
L 628 4666 
z
" transform="scale(0.015625)"/>
       <path id="DejaVuSans-6c" d="M 603 4863 
L 1178 4863 
L 1178 0 
L 603 0 
L 603 4863 
z
" transform="scale(0.015625)"/>
      </defs>
      <use xlink:href="#DejaVuSans-42"/>
      <use xlink:href="#DejaVuSans-61" transform="translate(68.603516 0)"/>
      <use xlink:href="#DejaVuSans-73" transform="translate(129.882812 0)"/>
      <use xlink:href="#DejaVuSans-65" transform="translate(181.982422 0)"/>
      <use xlink:href="#DejaVuSans-6c" transform="translate(243.505859 0)"/>
      <use xlink:href="#DejaVuSans-69" transform="translate(271.289062 0)"/>
      <use xlink:href="#DejaVuSans-6e" transform="translate(299.072266 0)"/>
      <use xlink:href="#DejaVuSans-65" transform="translate(362.451172 0)"/>
      <use xlink:href="#DejaVuSans-20" transform="translate(423.974609 0)"/>
      <use xlink:href="#DejaVuSans-28" transform="translate(455.761719 0)"/>
      <use xlink:href="#DejaVuSans-4e" transform="translate(494.775391 0)"/>
      <use xlink:href="#DejaVuSans-6f" transform="translate(569.580078 0)"/>
      <use xlink:href="#DejaVuSans-20" transform="translate(630.761719 0)"/>
      <use xlink:href="#DejaVuSans-6d" transform="translate(662.548828 0)"/>
      <use xlink:href="#DejaVuSans-6f" transform="translate(759.960938 0)"/>
      <use xlink:href="#DejaVuSans-64" transform="translate(821.142578 0)"/>
      <use xlink:href="#DejaVuSans-69" transform="translate(884.619141 0)"/>
      <use xlink:href="#DejaVuSans-66" transform="translate(912.402344 0)"/>
      <use xlink:href="#DejaVuSans-69" transform="translate(947.607422 0)"/>
      <use xlink:href="#DejaVuSans-63" transform="translate(975.390625 0)"/>
      <use xlink:href="#DejaVuSans-61" transform="translate(1030.371094 0)"/>
      <use xlink:href="#DejaVuSans-74" transform="translate(1091.650391 0)"/>
      <use xlink:href="#DejaVuSans-69" transform="translate(1130.859375 0)"/>
      <use xlink:href="#DejaVuSans-6f" transform="translate(1158.642578 0)"/>
      <use xlink:href="#DejaVuSans-6e" transform="translate(1219.824219 0)"/>
      <use xlink:href="#DejaVuSans-29" transform="translate(1283.203125 0)"/>
     </g>
    </g>
    <g id="line2d_29">
     <path d="M 239.98926 41.931898 
L 248.31926 41.931898 
L 256.64926 41.931898 
" style="fill: none; stroke: #ff7f0e; stroke-width: 1.5; stroke-linecap: round"/>
    </g>
    <g id="text_24">
     <!-- GNN-Net (Entropy) -->
     <g style="fill: #262626" transform="translate(263.31326 44.847398) scale(0.0833 -0.0833)">
      <defs>
       <path id="DejaVuSans-45" d="M 628 4666 
L 3578 4666 
L 3578 4134 
L 1259 4134 
L 1259 2753 
L 3481 2753 
L 3481 2222 
L 1259 2222 
L 1259 531 
L 3634 531 
L 3634 0 
L 628 0 
L 628 4666 
z
" transform="scale(0.015625)"/>
       <path id="DejaVuSans-79" d="M 2059 -325 
Q 1816 -950 1584 -1140 
Q 1353 -1331 966 -1331 
L 506 -1331 
L 506 -850 
L 844 -850 
Q 1081 -850 1212 -737 
Q 1344 -625 1503 -206 
L 1606 56 
L 191 3500 
L 800 3500 
L 1894 763 
L 2988 3500 
L 3597 3500 
L 2059 -325 
z
" transform="scale(0.015625)"/>
      </defs>
      <use xlink:href="#DejaVuSans-47"/>
      <use xlink:href="#DejaVuSans-4e" transform="translate(77.490234 0)"/>
      <use xlink:href="#DejaVuSans-4e" transform="translate(152.294922 0)"/>
      <use xlink:href="#DejaVuSans-2d" transform="translate(227.099609 0)"/>
      <use xlink:href="#DejaVuSans-4e" transform="translate(263.183594 0)"/>
      <use xlink:href="#DejaVuSans-65" transform="translate(337.988281 0)"/>
      <use xlink:href="#DejaVuSans-74" transform="translate(399.511719 0)"/>
      <use xlink:href="#DejaVuSans-20" transform="translate(438.720703 0)"/>
      <use xlink:href="#DejaVuSans-28" transform="translate(470.507812 0)"/>
      <use xlink:href="#DejaVuSans-45" transform="translate(509.521484 0)"/>
      <use xlink:href="#DejaVuSans-6e" transform="translate(572.705078 0)"/>
      <use xlink:href="#DejaVuSans-74" transform="translate(636.083984 0)"/>
      <use xlink:href="#DejaVuSans-72" transform="translate(675.292969 0)"/>
      <use xlink:href="#DejaVuSans-6f" transform="translate(714.15625 0)"/>
      <use xlink:href="#DejaVuSans-70" transform="translate(775.337891 0)"/>
      <use xlink:href="#DejaVuSans-79" transform="translate(838.814453 0)"/>
      <use xlink:href="#DejaVuSans-29" transform="translate(897.994141 0)"/>
     </g>
    </g>
    <g id="line2d_30">
     <path d="M 239.98926 54.158777 
L 248.31926 54.158777 
L 256.64926 54.158777 
" style="fill: none; stroke-dasharray: 5.55,2.4; stroke-dashoffset: 0; stroke: #ff7f0e; stroke-width: 1.5"/>
    </g>
    <g id="text_25">
     <!-- Baseline (Entropy) -->
     <g style="fill: #262626" transform="translate(263.31326 57.074277) scale(0.0833 -0.0833)">
      <use xlink:href="#DejaVuSans-42"/>
      <use xlink:href="#DejaVuSans-61" transform="translate(68.603516 0)"/>
      <use xlink:href="#DejaVuSans-73" transform="translate(129.882812 0)"/>
      <use xlink:href="#DejaVuSans-65" transform="translate(181.982422 0)"/>
      <use xlink:href="#DejaVuSans-6c" transform="translate(243.505859 0)"/>
      <use xlink:href="#DejaVuSans-69" transform="translate(271.289062 0)"/>
      <use xlink:href="#DejaVuSans-6e" transform="translate(299.072266 0)"/>
      <use xlink:href="#DejaVuSans-65" transform="translate(362.451172 0)"/>
      <use xlink:href="#DejaVuSans-20" transform="translate(423.974609 0)"/>
      <use xlink:href="#DejaVuSans-28" transform="translate(455.761719 0)"/>
      <use xlink:href="#DejaVuSans-45" transform="translate(494.775391 0)"/>
      <use xlink:href="#DejaVuSans-6e" transform="translate(557.958984 0)"/>
      <use xlink:href="#DejaVuSans-74" transform="translate(621.337891 0)"/>
      <use xlink:href="#DejaVuSans-72" transform="translate(660.546875 0)"/>
      <use xlink:href="#DejaVuSans-6f" transform="translate(699.410156 0)"/>
      <use xlink:href="#DejaVuSans-70" transform="translate(760.591797 0)"/>
      <use xlink:href="#DejaVuSans-79" transform="translate(824.068359 0)"/>
      <use xlink:href="#DejaVuSans-29" transform="translate(883.248047 0)"/>
     </g>
    </g>
    <g id="line2d_31">
     <path d="M 358.027963 41.931898 
L 366.357963 41.931898 
L 374.687963 41.931898 
" style="fill: none; stroke: #2ca02c; stroke-width: 1.5; stroke-linecap: round"/>
    </g>
    <g id="text_26">
     <!-- GNN-Net (Noise) -->
     <g style="fill: #262626" transform="translate(381.351963 44.847398) scale(0.0833 -0.0833)">
      <use xlink:href="#DejaVuSans-47"/>
      <use xlink:href="#DejaVuSans-4e" transform="translate(77.490234 0)"/>
      <use xlink:href="#DejaVuSans-4e" transform="translate(152.294922 0)"/>
      <use xlink:href="#DejaVuSans-2d" transform="translate(227.099609 0)"/>
      <use xlink:href="#DejaVuSans-4e" transform="translate(263.183594 0)"/>
      <use xlink:href="#DejaVuSans-65" transform="translate(337.988281 0)"/>
      <use xlink:href="#DejaVuSans-74" transform="translate(399.511719 0)"/>
      <use xlink:href="#DejaVuSans-20" transform="translate(438.720703 0)"/>
      <use xlink:href="#DejaVuSans-28" transform="translate(470.507812 0)"/>
      <use xlink:href="#DejaVuSans-4e" transform="translate(509.521484 0)"/>
      <use xlink:href="#DejaVuSans-6f" transform="translate(584.326172 0)"/>
      <use xlink:href="#DejaVuSans-69" transform="translate(645.507812 0)"/>
      <use xlink:href="#DejaVuSans-73" transform="translate(673.291016 0)"/>
      <use xlink:href="#DejaVuSans-65" transform="translate(725.390625 0)"/>
      <use xlink:href="#DejaVuSans-29" transform="translate(786.914062 0)"/>
     </g>
    </g>
    <g id="line2d_32">
     <path d="M 358.027963 54.158777 
L 366.357963 54.158777 
L 374.687963 54.158777 
" style="fill: none; stroke-dasharray: 5.55,2.4; stroke-dashoffset: 0; stroke: #2ca02c; stroke-width: 1.5"/>
    </g>
    <g id="text_27">
     <!-- Baseline (Noise) -->
     <g style="fill: #262626" transform="translate(381.351963 57.074277) scale(0.0833 -0.0833)">
      <use xlink:href="#DejaVuSans-42"/>
      <use xlink:href="#DejaVuSans-61" transform="translate(68.603516 0)"/>
      <use xlink:href="#DejaVuSans-73" transform="translate(129.882812 0)"/>
      <use xlink:href="#DejaVuSans-65" transform="translate(181.982422 0)"/>
      <use xlink:href="#DejaVuSans-6c" transform="translate(243.505859 0)"/>
      <use xlink:href="#DejaVuSans-69" transform="translate(271.289062 0)"/>
      <use xlink:href="#DejaVuSans-6e" transform="translate(299.072266 0)"/>
      <use xlink:href="#DejaVuSans-65" transform="translate(362.451172 0)"/>
      <use xlink:href="#DejaVuSans-20" transform="translate(423.974609 0)"/>
      <use xlink:href="#DejaVuSans-28" transform="translate(455.761719 0)"/>
      <use xlink:href="#DejaVuSans-4e" transform="translate(494.775391 0)"/>
      <use xlink:href="#DejaVuSans-6f" transform="translate(569.580078 0)"/>
      <use xlink:href="#DejaVuSans-69" transform="translate(630.761719 0)"/>
      <use xlink:href="#DejaVuSans-73" transform="translate(658.544922 0)"/>
      <use xlink:href="#DejaVuSans-65" transform="translate(710.644531 0)"/>
      <use xlink:href="#DejaVuSans-29" transform="translate(772.167969 0)"/>
     </g>
    </g>
    <g id="line2d_33">
     <path d="M 466.813859 41.931898 
L 475.143859 41.931898 
L 483.473859 41.931898 
" style="fill: none; stroke: #d62728; stroke-width: 1.5; stroke-linecap: round"/>
    </g>
    <g id="text_28">
     <!-- GNN-Net (Noise + Entropy) -->
     <g style="fill: #262626" transform="translate(490.137859 44.847398) scale(0.0833 -0.0833)">
      <defs>
       <path id="DejaVuSans-2b" d="M 2944 4013 
L 2944 2272 
L 4684 2272 
L 4684 1741 
L 2944 1741 
L 2944 0 
L 2419 0 
L 2419 1741 
L 678 1741 
L 678 2272 
L 2419 2272 
L 2419 4013 
L 2944 4013 
z
" transform="scale(0.015625)"/>
      </defs>
      <use xlink:href="#DejaVuSans-47"/>
      <use xlink:href="#DejaVuSans-4e" transform="translate(77.490234 0)"/>
      <use xlink:href="#DejaVuSans-4e" transform="translate(152.294922 0)"/>
      <use xlink:href="#DejaVuSans-2d" transform="translate(227.099609 0)"/>
      <use xlink:href="#DejaVuSans-4e" transform="translate(263.183594 0)"/>
      <use xlink:href="#DejaVuSans-65" transform="translate(337.988281 0)"/>
      <use xlink:href="#DejaVuSans-74" transform="translate(399.511719 0)"/>
      <use xlink:href="#DejaVuSans-20" transform="translate(438.720703 0)"/>
      <use xlink:href="#DejaVuSans-28" transform="translate(470.507812 0)"/>
      <use xlink:href="#DejaVuSans-4e" transform="translate(509.521484 0)"/>
      <use xlink:href="#DejaVuSans-6f" transform="translate(584.326172 0)"/>
      <use xlink:href="#DejaVuSans-69" transform="translate(645.507812 0)"/>
      <use xlink:href="#DejaVuSans-73" transform="translate(673.291016 0)"/>
      <use xlink:href="#DejaVuSans-65" transform="translate(725.390625 0)"/>
      <use xlink:href="#DejaVuSans-20" transform="translate(786.914062 0)"/>
      <use xlink:href="#DejaVuSans-2b" transform="translate(818.701172 0)"/>
      <use xlink:href="#DejaVuSans-20" transform="translate(902.490234 0)"/>
      <use xlink:href="#DejaVuSans-45" transform="translate(934.277344 0)"/>
      <use xlink:href="#DejaVuSans-6e" transform="translate(997.460938 0)"/>
      <use xlink:href="#DejaVuSans-74" transform="translate(1060.839844 0)"/>
      <use xlink:href="#DejaVuSans-72" transform="translate(1100.048828 0)"/>
      <use xlink:href="#DejaVuSans-6f" transform="translate(1138.912109 0)"/>
      <use xlink:href="#DejaVuSans-70" transform="translate(1200.09375 0)"/>
      <use xlink:href="#DejaVuSans-79" transform="translate(1263.570312 0)"/>
      <use xlink:href="#DejaVuSans-29" transform="translate(1322.75 0)"/>
     </g>
    </g>
    <g id="line2d_34">
     <path d="M 466.813859 54.158777 
L 475.143859 54.158777 
L 483.473859 54.158777 
" style="fill: none; stroke-dasharray: 5.55,2.4; stroke-dashoffset: 0; stroke: #d62728; stroke-width: 1.5"/>
    </g>
    <g id="text_29">
     <!-- Baseline (Noise + Entropy) -->
     <g style="fill: #262626" transform="translate(490.137859 57.074277) scale(0.0833 -0.0833)">
      <use xlink:href="#DejaVuSans-42"/>
      <use xlink:href="#DejaVuSans-61" transform="translate(68.603516 0)"/>
      <use xlink:href="#DejaVuSans-73" transform="translate(129.882812 0)"/>
      <use xlink:href="#DejaVuSans-65" transform="translate(181.982422 0)"/>
      <use xlink:href="#DejaVuSans-6c" transform="translate(243.505859 0)"/>
      <use xlink:href="#DejaVuSans-69" transform="translate(271.289062 0)"/>
      <use xlink:href="#DejaVuSans-6e" transform="translate(299.072266 0)"/>
      <use xlink:href="#DejaVuSans-65" transform="translate(362.451172 0)"/>
      <use xlink:href="#DejaVuSans-20" transform="translate(423.974609 0)"/>
      <use xlink:href="#DejaVuSans-28" transform="translate(455.761719 0)"/>
      <use xlink:href="#DejaVuSans-4e" transform="translate(494.775391 0)"/>
      <use xlink:href="#DejaVuSans-6f" transform="translate(569.580078 0)"/>
      <use xlink:href="#DejaVuSans-69" transform="translate(630.761719 0)"/>
      <use xlink:href="#DejaVuSans-73" transform="translate(658.544922 0)"/>
      <use xlink:href="#DejaVuSans-65" transform="translate(710.644531 0)"/>
      <use xlink:href="#DejaVuSans-20" transform="translate(772.167969 0)"/>
      <use xlink:href="#DejaVuSans-2b" transform="translate(803.955078 0)"/>
      <use xlink:href="#DejaVuSans-20" transform="translate(887.744141 0)"/>
      <use xlink:href="#DejaVuSans-45" transform="translate(919.53125 0)"/>
      <use xlink:href="#DejaVuSans-6e" transform="translate(982.714844 0)"/>
      <use xlink:href="#DejaVuSans-74" transform="translate(1046.09375 0)"/>
      <use xlink:href="#DejaVuSans-72" transform="translate(1085.302734 0)"/>
      <use xlink:href="#DejaVuSans-6f" transform="translate(1124.166016 0)"/>
      <use xlink:href="#DejaVuSans-70" transform="translate(1185.347656 0)"/>
      <use xlink:href="#DejaVuSans-79" transform="translate(1248.824219 0)"/>
      <use xlink:href="#DejaVuSans-29" transform="translate(1308.003906 0)"/>
     </g>
    </g>
   </g>
  </g>
  <g id="text_30">
   <!-- Rewards: Pendulum-v1 (Discretized) (GNN-Net) -->
   <g style="fill: #262626" transform="translate(163.407187 17.758125) scale(0.12 -0.12)">
    <defs>
     <path id="DejaVuSans-Bold-52" d="M 2297 2597 
Q 2675 2597 2839 2737 
Q 3003 2878 3003 3200 
Q 3003 3519 2839 3656 
Q 2675 3794 2297 3794 
L 1791 3794 
L 1791 2597 
L 2297 2597 
z
M 1791 1766 
L 1791 0 
L 588 0 
L 588 4666 
L 2425 4666 
Q 3347 4666 3776 4356 
Q 4206 4047 4206 3378 
Q 4206 2916 3982 2619 
Q 3759 2322 3309 2181 
Q 3556 2125 3751 1926 
Q 3947 1728 4147 1325 
L 4800 0 
L 3519 0 
L 2950 1159 
Q 2778 1509 2601 1637 
Q 2425 1766 2131 1766 
L 1791 1766 
z
" transform="scale(0.015625)"/>
     <path id="DejaVuSans-Bold-65" d="M 4031 1759 
L 4031 1441 
L 1416 1441 
Q 1456 1047 1700 850 
Q 1944 653 2381 653 
Q 2734 653 3104 758 
Q 3475 863 3866 1075 
L 3866 213 
Q 3469 63 3072 -14 
Q 2675 -91 2278 -91 
Q 1328 -91 801 392 
Q 275 875 275 1747 
Q 275 2603 792 3093 
Q 1309 3584 2216 3584 
Q 3041 3584 3536 3087 
Q 4031 2591 4031 1759 
z
M 2881 2131 
Q 2881 2450 2695 2645 
Q 2509 2841 2209 2841 
Q 1884 2841 1681 2658 
Q 1478 2475 1428 2131 
L 2881 2131 
z
" transform="scale(0.015625)"/>
     <path id="DejaVuSans-Bold-77" d="M 225 3500 
L 1313 3500 
L 1900 1088 
L 2491 3500 
L 3425 3500 
L 4013 1113 
L 4603 3500 
L 5691 3500 
L 4769 0 
L 3547 0 
L 2956 2406 
L 2369 0 
L 1147 0 
L 225 3500 
z
" transform="scale(0.015625)"/>
     <path id="DejaVuSans-Bold-61" d="M 2106 1575 
Q 1756 1575 1579 1456 
Q 1403 1338 1403 1106 
Q 1403 894 1545 773 
Q 1688 653 1941 653 
Q 2256 653 2472 879 
Q 2688 1106 2688 1447 
L 2688 1575 
L 2106 1575 
z
M 3816 1997 
L 3816 0 
L 2688 0 
L 2688 519 
Q 2463 200 2181 54 
Q 1900 -91 1497 -91 
Q 953 -91 614 226 
Q 275 544 275 1050 
Q 275 1666 698 1953 
Q 1122 2241 2028 2241 
L 2688 2241 
L 2688 2328 
Q 2688 2594 2478 2717 
Q 2269 2841 1825 2841 
Q 1466 2841 1156 2769 
Q 847 2697 581 2553 
L 581 3406 
Q 941 3494 1303 3539 
Q 1666 3584 2028 3584 
Q 2975 3584 3395 3211 
Q 3816 2838 3816 1997 
z
" transform="scale(0.015625)"/>
     <path id="DejaVuSans-Bold-72" d="M 3138 2547 
Q 2991 2616 2845 2648 
Q 2700 2681 2553 2681 
Q 2122 2681 1889 2404 
Q 1656 2128 1656 1613 
L 1656 0 
L 538 0 
L 538 3500 
L 1656 3500 
L 1656 2925 
Q 1872 3269 2151 3426 
Q 2431 3584 2822 3584 
Q 2878 3584 2943 3579 
Q 3009 3575 3134 3559 
L 3138 2547 
z
" transform="scale(0.015625)"/>
     <path id="DejaVuSans-Bold-64" d="M 2919 2988 
L 2919 4863 
L 4044 4863 
L 4044 0 
L 2919 0 
L 2919 506 
Q 2688 197 2409 53 
Q 2131 -91 1766 -91 
Q 1119 -91 703 423 
Q 288 938 288 1747 
Q 288 2556 703 3070 
Q 1119 3584 1766 3584 
Q 2128 3584 2408 3439 
Q 2688 3294 2919 2988 
z
M 2181 722 
Q 2541 722 2730 984 
Q 2919 1247 2919 1747 
Q 2919 2247 2730 2509 
Q 2541 2772 2181 2772 
Q 1825 2772 1636 2509 
Q 1447 2247 1447 1747 
Q 1447 1247 1636 984 
Q 1825 722 2181 722 
z
" transform="scale(0.015625)"/>
     <path id="DejaVuSans-Bold-73" d="M 3272 3391 
L 3272 2541 
Q 2913 2691 2578 2766 
Q 2244 2841 1947 2841 
Q 1628 2841 1473 2761 
Q 1319 2681 1319 2516 
Q 1319 2381 1436 2309 
Q 1553 2238 1856 2203 
L 2053 2175 
Q 2913 2066 3209 1816 
Q 3506 1566 3506 1031 
Q 3506 472 3093 190 
Q 2681 -91 1863 -91 
Q 1516 -91 1145 -36 
Q 775 19 384 128 
L 384 978 
Q 719 816 1070 734 
Q 1422 653 1784 653 
Q 2113 653 2278 743 
Q 2444 834 2444 1013 
Q 2444 1163 2330 1236 
Q 2216 1309 1875 1350 
L 1678 1375 
Q 931 1469 631 1722 
Q 331 1975 331 2491 
Q 331 3047 712 3315 
Q 1094 3584 1881 3584 
Q 2191 3584 2531 3537 
Q 2872 3491 3272 3391 
z
" transform="scale(0.015625)"/>
     <path id="DejaVuSans-Bold-3a" d="M 716 3500 
L 1844 3500 
L 1844 2291 
L 716 2291 
L 716 3500 
z
M 716 1209 
L 1844 1209 
L 1844 0 
L 716 0 
L 716 1209 
z
" transform="scale(0.015625)"/>
     <path id="DejaVuSans-Bold-20" transform="scale(0.015625)"/>
     <path id="DejaVuSans-Bold-50" d="M 588 4666 
L 2584 4666 
Q 3475 4666 3951 4270 
Q 4428 3875 4428 3144 
Q 4428 2409 3951 2014 
Q 3475 1619 2584 1619 
L 1791 1619 
L 1791 0 
L 588 0 
L 588 4666 
z
M 1791 3794 
L 1791 2491 
L 2456 2491 
Q 2806 2491 2997 2661 
Q 3188 2831 3188 3144 
Q 3188 3456 2997 3625 
Q 2806 3794 2456 3794 
L 1791 3794 
z
" transform="scale(0.015625)"/>
     <path id="DejaVuSans-Bold-6e" d="M 4056 2131 
L 4056 0 
L 2931 0 
L 2931 347 
L 2931 1631 
Q 2931 2084 2911 2256 
Q 2891 2428 2841 2509 
Q 2775 2619 2662 2680 
Q 2550 2741 2406 2741 
Q 2056 2741 1856 2470 
Q 1656 2200 1656 1722 
L 1656 0 
L 538 0 
L 538 3500 
L 1656 3500 
L 1656 2988 
Q 1909 3294 2193 3439 
Q 2478 3584 2822 3584 
Q 3428 3584 3742 3212 
Q 4056 2841 4056 2131 
z
" transform="scale(0.015625)"/>
     <path id="DejaVuSans-Bold-75" d="M 500 1363 
L 500 3500 
L 1625 3500 
L 1625 3150 
Q 1625 2866 1622 2436 
Q 1619 2006 1619 1863 
Q 1619 1441 1641 1255 
Q 1663 1069 1716 984 
Q 1784 875 1895 815 
Q 2006 756 2150 756 
Q 2500 756 2700 1025 
Q 2900 1294 2900 1772 
L 2900 3500 
L 4019 3500 
L 4019 0 
L 2900 0 
L 2900 506 
Q 2647 200 2364 54 
Q 2081 -91 1741 -91 
Q 1134 -91 817 281 
Q 500 653 500 1363 
z
" transform="scale(0.015625)"/>
     <path id="DejaVuSans-Bold-6c" d="M 538 4863 
L 1656 4863 
L 1656 0 
L 538 0 
L 538 4863 
z
" transform="scale(0.015625)"/>
     <path id="DejaVuSans-Bold-6d" d="M 3781 2919 
Q 3994 3244 4286 3414 
Q 4578 3584 4928 3584 
Q 5531 3584 5847 3212 
Q 6163 2841 6163 2131 
L 6163 0 
L 5038 0 
L 5038 1825 
Q 5041 1866 5042 1909 
Q 5044 1953 5044 2034 
Q 5044 2406 4934 2573 
Q 4825 2741 4581 2741 
Q 4263 2741 4089 2478 
Q 3916 2216 3909 1719 
L 3909 0 
L 2784 0 
L 2784 1825 
Q 2784 2406 2684 2573 
Q 2584 2741 2328 2741 
Q 2006 2741 1831 2477 
Q 1656 2213 1656 1722 
L 1656 0 
L 531 0 
L 531 3500 
L 1656 3500 
L 1656 2988 
Q 1863 3284 2130 3434 
Q 2397 3584 2719 3584 
Q 3081 3584 3359 3409 
Q 3638 3234 3781 2919 
z
" transform="scale(0.015625)"/>
     <path id="DejaVuSans-Bold-2d" d="M 347 2297 
L 2309 2297 
L 2309 1388 
L 347 1388 
L 347 2297 
z
" transform="scale(0.015625)"/>
     <path id="DejaVuSans-Bold-76" d="M 97 3500 
L 1216 3500 
L 2088 1081 
L 2956 3500 
L 4078 3500 
L 2700 0 
L 1472 0 
L 97 3500 
z
" transform="scale(0.015625)"/>
     <path id="DejaVuSans-Bold-31" d="M 750 831 
L 1813 831 
L 1813 3847 
L 722 3622 
L 722 4441 
L 1806 4666 
L 2950 4666 
L 2950 831 
L 4013 831 
L 4013 0 
L 750 0 
L 750 831 
z
" transform="scale(0.015625)"/>
     <path id="DejaVuSans-Bold-28" d="M 2413 -844 
L 1484 -844 
Q 1006 -72 778 623 
Q 550 1319 550 2003 
Q 550 2688 779 3389 
Q 1009 4091 1484 4856 
L 2413 4856 
Q 2013 4116 1813 3408 
Q 1613 2700 1613 2009 
Q 1613 1319 1811 609 
Q 2009 -100 2413 -844 
z
" transform="scale(0.015625)"/>
     <path id="DejaVuSans-Bold-44" d="M 1791 3756 
L 1791 909 
L 2222 909 
Q 2959 909 3348 1275 
Q 3738 1641 3738 2338 
Q 3738 3031 3350 3393 
Q 2963 3756 2222 3756 
L 1791 3756 
z
M 588 4666 
L 1856 4666 
Q 2919 4666 3439 4514 
Q 3959 4363 4331 4000 
Q 4659 3684 4818 3271 
Q 4978 2859 4978 2338 
Q 4978 1809 4818 1395 
Q 4659 981 4331 666 
Q 3956 303 3431 151 
Q 2906 0 1856 0 
L 588 0 
L 588 4666 
z
" transform="scale(0.015625)"/>
     <path id="DejaVuSans-Bold-69" d="M 538 3500 
L 1656 3500 
L 1656 0 
L 538 0 
L 538 3500 
z
M 538 4863 
L 1656 4863 
L 1656 3950 
L 538 3950 
L 538 4863 
z
" transform="scale(0.015625)"/>
     <path id="DejaVuSans-Bold-63" d="M 3366 3391 
L 3366 2478 
Q 3138 2634 2908 2709 
Q 2678 2784 2431 2784 
Q 1963 2784 1702 2511 
Q 1441 2238 1441 1747 
Q 1441 1256 1702 982 
Q 1963 709 2431 709 
Q 2694 709 2930 787 
Q 3166 866 3366 1019 
L 3366 103 
Q 3103 6 2833 -42 
Q 2563 -91 2291 -91 
Q 1344 -91 809 395 
Q 275 881 275 1747 
Q 275 2613 809 3098 
Q 1344 3584 2291 3584 
Q 2566 3584 2833 3536 
Q 3100 3488 3366 3391 
z
" transform="scale(0.015625)"/>
     <path id="DejaVuSans-Bold-74" d="M 1759 4494 
L 1759 3500 
L 2913 3500 
L 2913 2700 
L 1759 2700 
L 1759 1216 
Q 1759 972 1856 886 
Q 1953 800 2241 800 
L 2816 800 
L 2816 0 
L 1856 0 
Q 1194 0 917 276 
Q 641 553 641 1216 
L 641 2700 
L 84 2700 
L 84 3500 
L 641 3500 
L 641 4494 
L 1759 4494 
z
" transform="scale(0.015625)"/>
     <path id="DejaVuSans-Bold-7a" d="M 366 3500 
L 3419 3500 
L 3419 2719 
L 1575 800 
L 3419 800 
L 3419 0 
L 288 0 
L 288 781 
L 2131 2700 
L 366 2700 
L 366 3500 
z
" transform="scale(0.015625)"/>
     <path id="DejaVuSans-Bold-29" d="M 513 -844 
Q 913 -100 1113 609 
Q 1313 1319 1313 2009 
Q 1313 2700 1113 3408 
Q 913 4116 513 4856 
L 1441 4856 
Q 1916 4091 2145 3389 
Q 2375 2688 2375 2003 
Q 2375 1319 2147 623 
Q 1919 -72 1441 -844 
L 513 -844 
z
" transform="scale(0.015625)"/>
     <path id="DejaVuSans-Bold-47" d="M 4781 347 
Q 4331 128 3847 18 
Q 3363 -91 2847 -91 
Q 1681 -91 1000 561 
Q 319 1213 319 2328 
Q 319 3456 1012 4103 
Q 1706 4750 2913 4750 
Q 3378 4750 3804 4662 
Q 4231 4575 4609 4403 
L 4609 3438 
Q 4219 3659 3833 3768 
Q 3447 3878 3059 3878 
Q 2341 3878 1952 3476 
Q 1563 3075 1563 2328 
Q 1563 1588 1938 1184 
Q 2313 781 3003 781 
Q 3191 781 3352 804 
Q 3513 828 3641 878 
L 3641 1784 
L 2906 1784 
L 2906 2591 
L 4781 2591 
L 4781 347 
z
" transform="scale(0.015625)"/>
     <path id="DejaVuSans-Bold-4e" d="M 588 4666 
L 1931 4666 
L 3628 1466 
L 3628 4666 
L 4769 4666 
L 4769 0 
L 3425 0 
L 1728 3200 
L 1728 0 
L 588 0 
L 588 4666 
z
" transform="scale(0.015625)"/>
    </defs>
    <use xlink:href="#DejaVuSans-Bold-52"/>
    <use xlink:href="#DejaVuSans-Bold-65" transform="translate(77.001953 0)"/>
    <use xlink:href="#DejaVuSans-Bold-77" transform="translate(144.824219 0)"/>
    <use xlink:href="#DejaVuSans-Bold-61" transform="translate(237.207031 0)"/>
    <use xlink:href="#DejaVuSans-Bold-72" transform="translate(304.6875 0)"/>
    <use xlink:href="#DejaVuSans-Bold-64" transform="translate(354.003906 0)"/>
    <use xlink:href="#DejaVuSans-Bold-73" transform="translate(425.585938 0)"/>
    <use xlink:href="#DejaVuSans-Bold-3a" transform="translate(485.107422 0)"/>
    <use xlink:href="#DejaVuSans-Bold-20" transform="translate(525.097656 0)"/>
    <use xlink:href="#DejaVuSans-Bold-50" transform="translate(559.912109 0)"/>
    <use xlink:href="#DejaVuSans-Bold-65" transform="translate(633.203125 0)"/>
    <use xlink:href="#DejaVuSans-Bold-6e" transform="translate(701.025391 0)"/>
    <use xlink:href="#DejaVuSans-Bold-64" transform="translate(772.216797 0)"/>
    <use xlink:href="#DejaVuSans-Bold-75" transform="translate(843.798828 0)"/>
    <use xlink:href="#DejaVuSans-Bold-6c" transform="translate(914.990234 0)"/>
    <use xlink:href="#DejaVuSans-Bold-75" transform="translate(949.267578 0)"/>
    <use xlink:href="#DejaVuSans-Bold-6d" transform="translate(1020.458984 0)"/>
    <use xlink:href="#DejaVuSans-Bold-2d" transform="translate(1124.658203 0)"/>
    <use xlink:href="#DejaVuSans-Bold-76" transform="translate(1166.162109 0)"/>
    <use xlink:href="#DejaVuSans-Bold-31" transform="translate(1231.347656 0)"/>
    <use xlink:href="#DejaVuSans-Bold-20" transform="translate(1300.927734 0)"/>
    <use xlink:href="#DejaVuSans-Bold-28" transform="translate(1335.742188 0)"/>
    <use xlink:href="#DejaVuSans-Bold-44" transform="translate(1381.445312 0)"/>
    <use xlink:href="#DejaVuSans-Bold-69" transform="translate(1464.453125 0)"/>
    <use xlink:href="#DejaVuSans-Bold-73" transform="translate(1498.730469 0)"/>
    <use xlink:href="#DejaVuSans-Bold-63" transform="translate(1558.251953 0)"/>
    <use xlink:href="#DejaVuSans-Bold-72" transform="translate(1617.529297 0)"/>
    <use xlink:href="#DejaVuSans-Bold-65" transform="translate(1666.845703 0)"/>
    <use xlink:href="#DejaVuSans-Bold-74" transform="translate(1734.667969 0)"/>
    <use xlink:href="#DejaVuSans-Bold-69" transform="translate(1782.470703 0)"/>
    <use xlink:href="#DejaVuSans-Bold-7a" transform="translate(1816.748047 0)"/>
    <use xlink:href="#DejaVuSans-Bold-65" transform="translate(1874.951172 0)"/>
    <use xlink:href="#DejaVuSans-Bold-64" transform="translate(1942.773438 0)"/>
    <use xlink:href="#DejaVuSans-Bold-29" transform="translate(2014.355469 0)"/>
    <use xlink:href="#DejaVuSans-Bold-20" transform="translate(2060.058594 0)"/>
    <use xlink:href="#DejaVuSans-Bold-28" transform="translate(2094.873047 0)"/>
    <use xlink:href="#DejaVuSans-Bold-47" transform="translate(2140.576172 0)"/>
    <use xlink:href="#DejaVuSans-Bold-4e" transform="translate(2222.65625 0)"/>
    <use xlink:href="#DejaVuSans-Bold-4e" transform="translate(2306.347656 0)"/>
    <use xlink:href="#DejaVuSans-Bold-2d" transform="translate(2390.039062 0)"/>
    <use xlink:href="#DejaVuSans-Bold-4e" transform="translate(2431.542969 0)"/>
    <use xlink:href="#DejaVuSans-Bold-65" transform="translate(2515.234375 0)"/>
    <use xlink:href="#DejaVuSans-Bold-74" transform="translate(2583.056641 0)"/>
    <use xlink:href="#DejaVuSans-Bold-29" transform="translate(2630.859375 0)"/>
   </g>
  </g>
 </g>
 <defs>
  <clipPath id="p86fed0e178">
   <rect x="65.63" y="63.659" width="560.95" height="326.381"/>
  </clipPath>
 </defs>
</svg>
