<?xml version="1.0" encoding="utf-8" standalone="no"?>
<!DOCTYPE svg PUBLIC "-//W3C//DTD SVG 1.1//EN"
  "http://www.w3.org/Graphics/SVG/1.1/DTD/svg11.dtd">
<svg xmlns:xlink="http://www.w3.org/1999/xlink" width="648pt" height="432pt" viewBox="0 0 648 432" xmlns="http://www.w3.org/2000/svg" version="1.1">
 <metadata>
  <rdf:RDF xmlns:dc="http://purl.org/dc/elements/1.1/" xmlns:cc="http://creativecommons.org/ns#" xmlns:rdf="http://www.w3.org/1999/02/22-rdf-syntax-ns#">
   <cc:Work>
    <dc:type rdf:resource="http://purl.org/dc/dcmitype/StillImage"/>
    <dc:date>2025-07-31T05:18:14.052573</dc:date>
    <dc:format>image/svg+xml</dc:format>
    <dc:creator>
     <cc:Agent>
      <dc:title>Matplotlib v3.10.0, https://matplotlib.org/</dc:title>
     </cc:Agent>
    </dc:creator>
   </cc:Work>
  </rdf:RDF>
 </metadata>
 <defs>
  <style type="text/css">*{stroke-linejoin: round; stroke-linecap: butt}</style>
 </defs>
 <g id="figure_1">
  <g id="patch_1">
   <path d="M 0 432 
L 648 432 
L 648 0 
L 0 0 
z
" style="fill: #ffffff"/>
  </g>
  <g id="axes_1">
   <g id="patch_2">
    <path d="M 65.14 400.52 
L 620.168508 400.52 
L 620.168508 39.6 
L 65.14 39.6 
z
" style="fill: #eaeaf2"/>
   </g>
   <g id="matplotlib.axis_1">
    <g id="xtick_1">
     <g id="line2d_1">
      <path d="M 75.72205 400.52 
L 75.72205 39.6 
" clip-path="url(#pc1fd4de6d1)" style="fill: none; stroke: #ffffff; stroke-width: 0.8; stroke-linecap: round"/>
     </g>
     <g id="text_1">
      <!-- 0 -->
      <g style="fill: #262626" transform="translate(71.2683 418.157812) scale(0.14 -0.14)">
       <defs>
        <path id="DejaVuSans-30" d="M 2034 4250 
Q 1547 4250 1301 3770 
Q 1056 3291 1056 2328 
Q 1056 1369 1301 889 
Q 1547 409 2034 409 
Q 2525 409 2770 889 
Q 3016 1369 3016 2328 
Q 3016 3291 2770 3770 
Q 2525 4250 2034 4250 
z
M 2034 4750 
Q 2819 4750 3233 4129 
Q 3647 3509 3647 2328 
Q 3647 1150 3233 529 
Q 2819 -91 2034 -91 
Q 1250 -91 836 529 
Q 422 1150 422 2328 
Q 422 3509 836 4129 
Q 1250 4750 2034 4750 
z
" transform="scale(0.015625)"/>
       </defs>
       <use xlink:href="#DejaVuSans-30"/>
      </g>
     </g>
    </g>
    <g id="xtick_2">
     <g id="line2d_2">
      <path d="M 604.824536 400.52 
L 604.824536 39.6 
" clip-path="url(#pc1fd4de6d1)" style="fill: none; stroke: #ffffff; stroke-width: 0.8; stroke-linecap: round"/>
     </g>
     <g id="text_2">
      <!-- 2000000 -->
      <g style="fill: #262626" transform="translate(573.648286 418.157812) scale(0.14 -0.14)">
       <defs>
        <path id="DejaVuSans-32" d="M 1228 531 
L 3431 531 
L 3431 0 
L 469 0 
L 469 531 
Q 828 903 1448 1529 
Q 2069 2156 2228 2338 
Q 2531 2678 2651 2914 
Q 2772 3150 2772 3378 
Q 2772 3750 2511 3984 
Q 2250 4219 1831 4219 
Q 1534 4219 1204 4116 
Q 875 4013 500 3803 
L 500 4441 
Q 881 4594 1212 4672 
Q 1544 4750 1819 4750 
Q 2544 4750 2975 4387 
Q 3406 4025 3406 3419 
Q 3406 3131 3298 2873 
Q 3191 2616 2906 2266 
Q 2828 2175 2409 1742 
Q 1991 1309 1228 531 
z
" transform="scale(0.015625)"/>
       </defs>
       <use xlink:href="#DejaVuSans-32"/>
       <use xlink:href="#DejaVuSans-30" transform="translate(63.623047 0)"/>
       <use xlink:href="#DejaVuSans-30" transform="translate(127.246094 0)"/>
       <use xlink:href="#DejaVuSans-30" transform="translate(190.869141 0)"/>
       <use xlink:href="#DejaVuSans-30" transform="translate(254.492188 0)"/>
       <use xlink:href="#DejaVuSans-30" transform="translate(318.115234 0)"/>
       <use xlink:href="#DejaVuSans-30" transform="translate(381.738281 0)"/>
      </g>
     </g>
    </g>
   </g>
   <g id="matplotlib.axis_2">
    <g id="ytick_1">
     <g id="line2d_3">
      <path d="M 65.14 391.382785 
L 620.168508 391.382785 
" clip-path="url(#pc1fd4de6d1)" style="fill: none; stroke: #ffffff; stroke-width: 0.8; stroke-linecap: round"/>
     </g>
     <g id="text_3">
      <!-- −1500 -->
      <g style="fill: #262626" transform="translate(10.778437 396.701691) scale(0.14 -0.14)">
       <defs>
        <path id="DejaVuSans-2212" d="M 678 2272 
L 4684 2272 
L 4684 1741 
L 678 1741 
L 678 2272 
z
" transform="scale(0.015625)"/>
        <path id="DejaVuSans-31" d="M 794 531 
L 1825 531 
L 1825 4091 
L 703 3866 
L 703 4441 
L 1819 4666 
L 2450 4666 
L 2450 531 
L 3481 531 
L 3481 0 
L 794 0 
L 794 531 
z
" transform="scale(0.015625)"/>
        <path id="DejaVuSans-35" d="M 691 4666 
L 3169 4666 
L 3169 4134 
L 1269 4134 
L 1269 2991 
Q 1406 3038 1543 3061 
Q 1681 3084 1819 3084 
Q 2600 3084 3056 2656 
Q 3513 2228 3513 1497 
Q 3513 744 3044 326 
Q 2575 -91 1722 -91 
Q 1428 -91 1123 -41 
Q 819 9 494 109 
L 494 744 
Q 775 591 1075 516 
Q 1375 441 1709 441 
Q 2250 441 2565 725 
Q 2881 1009 2881 1497 
Q 2881 1984 2565 2268 
Q 2250 2553 1709 2553 
Q 1456 2553 1204 2497 
Q 953 2441 691 2322 
L 691 4666 
z
" transform="scale(0.015625)"/>
       </defs>
       <use xlink:href="#DejaVuSans-2212"/>
       <use xlink:href="#DejaVuSans-31" transform="translate(83.789062 0)"/>
       <use xlink:href="#DejaVuSans-35" transform="translate(147.412109 0)"/>
       <use xlink:href="#DejaVuSans-30" transform="translate(211.035156 0)"/>
       <use xlink:href="#DejaVuSans-30" transform="translate(274.658203 0)"/>
      </g>
     </g>
    </g>
    <g id="ytick_2">
     <g id="line2d_4">
      <path d="M 65.14 322.853671 
L 620.168508 322.853671 
" clip-path="url(#pc1fd4de6d1)" style="fill: none; stroke: #ffffff; stroke-width: 0.8; stroke-linecap: round"/>
     </g>
     <g id="text_4">
      <!-- −1200 -->
      <g style="fill: #262626" transform="translate(10.778437 328.172577) scale(0.14 -0.14)">
       <use xlink:href="#DejaVuSans-2212"/>
       <use xlink:href="#DejaVuSans-31" transform="translate(83.789062 0)"/>
       <use xlink:href="#DejaVuSans-32" transform="translate(147.412109 0)"/>
       <use xlink:href="#DejaVuSans-30" transform="translate(211.035156 0)"/>
       <use xlink:href="#DejaVuSans-30" transform="translate(274.658203 0)"/>
      </g>
     </g>
    </g>
    <g id="ytick_3">
     <g id="line2d_5">
      <path d="M 65.14 254.324557 
L 620.168508 254.324557 
" clip-path="url(#pc1fd4de6d1)" style="fill: none; stroke: #ffffff; stroke-width: 0.8; stroke-linecap: round"/>
     </g>
     <g id="text_5">
      <!-- −900 -->
      <g style="fill: #262626" transform="translate(19.685937 259.643463) scale(0.14 -0.14)">
       <defs>
        <path id="DejaVuSans-39" d="M 703 97 
L 703 672 
Q 941 559 1184 500 
Q 1428 441 1663 441 
Q 2288 441 2617 861 
Q 2947 1281 2994 2138 
Q 2813 1869 2534 1725 
Q 2256 1581 1919 1581 
Q 1219 1581 811 2004 
Q 403 2428 403 3163 
Q 403 3881 828 4315 
Q 1253 4750 1959 4750 
Q 2769 4750 3195 4129 
Q 3622 3509 3622 2328 
Q 3622 1225 3098 567 
Q 2575 -91 1691 -91 
Q 1453 -91 1209 -44 
Q 966 3 703 97 
z
M 1959 2075 
Q 2384 2075 2632 2365 
Q 2881 2656 2881 3163 
Q 2881 3666 2632 3958 
Q 2384 4250 1959 4250 
Q 1534 4250 1286 3958 
Q 1038 3666 1038 3163 
Q 1038 2656 1286 2365 
Q 1534 2075 1959 2075 
z
" transform="scale(0.015625)"/>
       </defs>
       <use xlink:href="#DejaVuSans-2212"/>
       <use xlink:href="#DejaVuSans-39" transform="translate(83.789062 0)"/>
       <use xlink:href="#DejaVuSans-30" transform="translate(147.412109 0)"/>
       <use xlink:href="#DejaVuSans-30" transform="translate(211.035156 0)"/>
      </g>
     </g>
    </g>
    <g id="ytick_4">
     <g id="line2d_6">
      <path d="M 65.14 185.795443 
L 620.168508 185.795443 
" clip-path="url(#pc1fd4de6d1)" style="fill: none; stroke: #ffffff; stroke-width: 0.8; stroke-linecap: round"/>
     </g>
     <g id="text_6">
      <!-- −600 -->
      <g style="fill: #262626" transform="translate(19.685937 191.114349) scale(0.14 -0.14)">
       <defs>
        <path id="DejaVuSans-36" d="M 2113 2584 
Q 1688 2584 1439 2293 
Q 1191 2003 1191 1497 
Q 1191 994 1439 701 
Q 1688 409 2113 409 
Q 2538 409 2786 701 
Q 3034 994 3034 1497 
Q 3034 2003 2786 2293 
Q 2538 2584 2113 2584 
z
M 3366 4563 
L 3366 3988 
Q 3128 4100 2886 4159 
Q 2644 4219 2406 4219 
Q 1781 4219 1451 3797 
Q 1122 3375 1075 2522 
Q 1259 2794 1537 2939 
Q 1816 3084 2150 3084 
Q 2853 3084 3261 2657 
Q 3669 2231 3669 1497 
Q 3669 778 3244 343 
Q 2819 -91 2113 -91 
Q 1303 -91 875 529 
Q 447 1150 447 2328 
Q 447 3434 972 4092 
Q 1497 4750 2381 4750 
Q 2619 4750 2861 4703 
Q 3103 4656 3366 4563 
z
" transform="scale(0.015625)"/>
       </defs>
       <use xlink:href="#DejaVuSans-2212"/>
       <use xlink:href="#DejaVuSans-36" transform="translate(83.789062 0)"/>
       <use xlink:href="#DejaVuSans-30" transform="translate(147.412109 0)"/>
       <use xlink:href="#DejaVuSans-30" transform="translate(211.035156 0)"/>
      </g>
     </g>
    </g>
    <g id="ytick_5">
     <g id="line2d_7">
      <path d="M 65.14 117.266329 
L 620.168508 117.266329 
" clip-path="url(#pc1fd4de6d1)" style="fill: none; stroke: #ffffff; stroke-width: 0.8; stroke-linecap: round"/>
     </g>
     <g id="text_7">
      <!-- −300 -->
      <g style="fill: #262626" transform="translate(19.685937 122.585235) scale(0.14 -0.14)">
       <defs>
        <path id="DejaVuSans-33" d="M 2597 2516 
Q 3050 2419 3304 2112 
Q 3559 1806 3559 1356 
Q 3559 666 3084 287 
Q 2609 -91 1734 -91 
Q 1441 -91 1130 -33 
Q 819 25 488 141 
L 488 750 
Q 750 597 1062 519 
Q 1375 441 1716 441 
Q 2309 441 2620 675 
Q 2931 909 2931 1356 
Q 2931 1769 2642 2001 
Q 2353 2234 1838 2234 
L 1294 2234 
L 1294 2753 
L 1863 2753 
Q 2328 2753 2575 2939 
Q 2822 3125 2822 3475 
Q 2822 3834 2567 4026 
Q 2313 4219 1838 4219 
Q 1578 4219 1281 4162 
Q 984 4106 628 3988 
L 628 4550 
Q 988 4650 1302 4700 
Q 1616 4750 1894 4750 
Q 2613 4750 3031 4423 
Q 3450 4097 3450 3541 
Q 3450 3153 3228 2886 
Q 3006 2619 2597 2516 
z
" transform="scale(0.015625)"/>
       </defs>
       <use xlink:href="#DejaVuSans-2212"/>
       <use xlink:href="#DejaVuSans-33" transform="translate(83.789062 0)"/>
       <use xlink:href="#DejaVuSans-30" transform="translate(147.412109 0)"/>
       <use xlink:href="#DejaVuSans-30" transform="translate(211.035156 0)"/>
      </g>
     </g>
    </g>
    <g id="ytick_6">
     <g id="line2d_8">
      <path d="M 65.14 48.737215 
L 620.168508 48.737215 
" clip-path="url(#pc1fd4de6d1)" style="fill: none; stroke: #ffffff; stroke-width: 0.8; stroke-linecap: round"/>
     </g>
     <g id="text_8">
      <!-- 0 -->
      <g style="fill: #262626" transform="translate(49.2325 54.056121) scale(0.14 -0.14)">
       <use xlink:href="#DejaVuSans-30"/>
      </g>
     </g>
    </g>
   </g>
   <g id="FillBetweenPolyCollection_1">
    <path d="M 75.72205 323.150311 
L 75.72205 335.091071 
L 81.140059 332.029835 
L 86.558069 337.71627 
L 91.976078 312.959614 
L 97.394088 315.414352 
L 102.812097 311.125426 
L 108.230106 292.0724 
L 113.648116 283.981889 
L 119.066125 275.616937 
L 124.484135 282.338852 
L 129.902144 261.991276 
L 135.320154 254.531589 
L 140.738163 246.26975 
L 146.156173 249.024615 
L 151.574182 238.899409 
L 156.992192 242.565086 
L 162.410201 230.495907 
L 167.828211 231.273376 
L 173.24622 223.062294 
L 178.664229 219.13715 
L 184.082239 224.686334 
L 189.500248 216.529574 
L 194.918258 192.809084 
L 200.336267 186.036971 
L 205.754277 214.609239 
L 211.172286 179.627097 
L 216.590296 183.675027 
L 222.008305 216.512377 
L 227.426315 189.82199 
L 232.844324 161.733101 
L 238.262334 165.426505 
L 243.680343 164.026026 
L 249.098352 138.300583 
L 254.516362 168.277267 
L 259.934371 180.296438 
L 265.352381 269.808507 
L 270.77039 256.762022 
L 276.1884 260.822712 
L 281.606409 265.038547 
L 287.024419 252.826951 
L 292.442428 224.415297 
L 297.860438 254.872603 
L 303.278447 217.224592 
L 308.696456 202.588096 
L 314.114466 219.013007 
L 319.532475 259.882222 
L 324.950485 288.142458 
L 330.368494 251.488725 
L 335.786504 227.619086 
L 341.204513 241.458299 
L 346.622523 259.118156 
L 352.040532 236.377387 
L 357.458542 221.001894 
L 362.876551 225.818795 
L 368.294561 219.814646 
L 373.71257 224.703188 
L 379.130579 242.473024 
L 384.548589 216.851882 
L 389.966598 212.381542 
L 395.384608 225.344844 
L 400.802617 223.002686 
L 406.220627 229.678323 
L 411.638636 232.446139 
L 417.056646 211.127647 
L 422.474655 234.501744 
L 427.892665 211.674891 
L 433.310674 225.303388 
L 438.728684 203.756461 
L 444.146693 187.107861 
L 449.564702 215.729062 
L 454.982712 206.918888 
L 460.400721 211.154314 
L 465.818731 231.170158 
L 471.23674 191.277749 
L 476.65475 188.42973 
L 482.072759 173.224156 
L 487.490769 200.530732 
L 492.908778 214.439602 
L 498.326788 227.961324 
L 503.744797 240.289162 
L 509.162806 212.77041 
L 514.580816 212.339804 
L 519.998825 222.265001 
L 525.416835 223.124636 
L 530.834844 230.416508 
L 536.252854 248.091603 
L 541.670863 226.378812 
L 547.088873 193.641715 
L 552.506882 197.53696 
L 557.924892 213.078116 
L 563.342901 190.692629 
L 568.760911 184.916825 
L 574.17892 194.828009 
L 579.596929 188.300667 
L 585.014939 176.280226 
L 590.432948 162.932011 
L 595.850958 163.073978 
L 601.268967 188.598671 
L 606.686977 156.383082 
L 612.104986 161.659027 
L 612.104986 100.20873 
L 612.104986 100.20873 
L 606.686977 101.73457 
L 601.268967 105.870365 
L 595.850958 103.427051 
L 590.432948 112.809958 
L 585.014939 105.849636 
L 579.596929 118.867374 
L 574.17892 111.25777 
L 568.760911 118.308164 
L 563.342901 123.769017 
L 557.924892 135.213342 
L 552.506882 127.100676 
L 547.088873 123.403112 
L 541.670863 133.240717 
L 536.252854 151.532955 
L 530.834844 142.191815 
L 525.416835 131.280189 
L 519.998825 117.040085 
L 514.580816 120.171808 
L 509.162806 121.253584 
L 503.744797 106.637123 
L 498.326788 108.015712 
L 492.908778 105.254576 
L 487.490769 111.296809 
L 482.072759 106.264841 
L 476.65475 114.147077 
L 471.23674 111.856342 
L 465.818731 127.070534 
L 460.400721 128.749488 
L 454.982712 121.74933 
L 449.564702 111.603243 
L 444.146693 132.864228 
L 438.728684 129.494142 
L 433.310674 134.919043 
L 427.892665 116.500117 
L 422.474655 140.597603 
L 417.056646 112.851138 
L 411.638636 107.517711 
L 406.220627 124.346734 
L 400.802617 103.228551 
L 395.384608 114.561615 
L 389.966598 133.562911 
L 384.548589 122.210724 
L 379.130579 127.471222 
L 373.71257 140.768633 
L 368.294561 140.556569 
L 362.876551 151.630265 
L 357.458542 153.484228 
L 352.040532 130.833499 
L 346.622523 147.109507 
L 341.204513 110.168083 
L 335.786504 113.983351 
L 330.368494 116.503489 
L 324.950485 157.041157 
L 319.532475 142.422711 
L 314.114466 147.655607 
L 308.696456 101.126934 
L 303.278447 114.991287 
L 297.860438 161.289986 
L 292.442428 120.743985 
L 287.024419 135.449395 
L 281.606409 120.321045 
L 276.1884 93.952569 
L 270.77039 98.61764 
L 265.352381 138.623826 
L 259.934371 138.143947 
L 254.516362 117.699674 
L 249.098352 119.158837 
L 243.680343 118.040597 
L 238.262334 104.548817 
L 232.844324 130.689345 
L 227.426315 143.423104 
L 222.008305 137.475762 
L 216.590296 132.932954 
L 211.172286 141.888489 
L 205.754277 152.005575 
L 200.336267 141.464784 
L 194.918258 136.719211 
L 189.500248 151.729079 
L 184.082239 160.539785 
L 178.664229 129.284587 
L 173.24622 141.364205 
L 167.828211 152.278668 
L 162.410201 160.243122 
L 156.992192 181.629698 
L 151.574182 175.837286 
L 146.156173 196.655295 
L 140.738163 213.145476 
L 135.320154 215.472668 
L 129.902144 231.963356 
L 124.484135 243.838899 
L 119.066125 236.296234 
L 113.648116 262.328725 
L 108.230106 267.039452 
L 102.812097 288.512202 
L 97.394088 295.543896 
L 91.976078 294.969475 
L 86.558069 305.790293 
L 81.140059 316.240032 
L 75.72205 323.150311 
z
" clip-path="url(#pc1fd4de6d1)" style="fill: #0000ff; fill-opacity: 0.1"/>
   </g>
   <g id="line2d_9">
    <path d="M 75.72205 329.120691 
L 81.140059 324.134933 
L 86.558069 321.753282 
L 91.976078 303.964544 
L 97.394088 305.479124 
L 102.812097 299.818814 
L 108.230106 279.555926 
L 113.648116 273.155307 
L 119.066125 255.956586 
L 124.484135 263.088876 
L 129.902144 246.977316 
L 135.320154 235.002129 
L 140.738163 229.707613 
L 146.156173 222.839955 
L 151.574182 207.368347 
L 156.992192 212.097392 
L 162.410201 195.369514 
L 167.828211 191.776022 
L 173.24622 182.213249 
L 178.664229 174.210869 
L 184.082239 192.61306 
L 189.500248 184.129327 
L 194.918258 164.764147 
L 200.336267 163.750878 
L 205.754277 183.307407 
L 211.172286 160.757793 
L 216.590296 158.303991 
L 222.008305 176.99407 
L 227.426315 166.622547 
L 232.844324 146.211223 
L 238.262334 134.987661 
L 243.680343 141.033312 
L 249.098352 128.72971 
L 254.516362 142.988471 
L 259.934371 159.220193 
L 265.352381 204.216166 
L 270.77039 177.689831 
L 276.1884 177.38764 
L 281.606409 192.679796 
L 287.024419 194.138173 
L 292.442428 172.579641 
L 297.860438 208.081294 
L 303.278447 166.107939 
L 308.696456 151.857515 
L 314.114466 183.334307 
L 319.532475 201.152466 
L 324.950485 222.591807 
L 330.368494 183.996107 
L 335.786504 170.801218 
L 341.204513 175.813191 
L 346.622523 203.113832 
L 352.040532 183.605443 
L 357.458542 187.243061 
L 362.876551 188.72453 
L 368.294561 180.185607 
L 373.71257 182.735911 
L 379.130579 184.972123 
L 384.548589 169.531303 
L 389.966598 172.972226 
L 395.384608 169.95323 
L 400.802617 163.115618 
L 406.220627 177.012529 
L 411.638636 169.981925 
L 417.056646 161.989392 
L 422.474655 187.549674 
L 427.892665 164.087504 
L 433.310674 180.111215 
L 438.728684 166.625301 
L 444.146693 159.986044 
L 449.564702 163.666153 
L 454.982712 164.334109 
L 460.400721 169.951901 
L 465.818731 179.120346 
L 471.23674 151.567045 
L 476.65475 151.288404 
L 482.072759 139.744498 
L 487.490769 155.913771 
L 492.908778 159.847089 
L 498.326788 167.988518 
L 503.744797 173.463142 
L 509.162806 167.011997 
L 514.580816 166.255806 
L 519.998825 169.652543 
L 525.416835 177.202413 
L 530.834844 186.304161 
L 536.252854 199.812279 
L 541.670863 179.809765 
L 547.088873 158.522414 
L 552.506882 162.318818 
L 557.924892 174.145729 
L 563.342901 157.230823 
L 568.760911 151.612494 
L 574.17892 153.04289 
L 579.596929 153.584021 
L 585.014939 141.064931 
L 590.432948 137.870985 
L 595.850958 133.250514 
L 601.268967 147.234518 
L 606.686977 129.058826 
L 612.104986 130.933879 
" clip-path="url(#pc1fd4de6d1)" style="fill: none; stroke: #0000ff; stroke-width: 2; stroke-linecap: round"/>
   </g>
   <g id="line2d_10">
    <path d="M 75.72205 337.1011 
L 81.140059 323.692001 
L 86.558069 308.008476 
L 91.976078 294.82291 
L 97.394088 296.10859 
L 102.812097 287.676135 
L 108.230106 263.034983 
L 113.648116 265.274605 
L 119.066125 242.496297 
L 124.484135 242.160927 
L 129.902144 238.274752 
L 135.320154 209.447765 
L 140.738163 218.262096 
L 146.156173 180.339778 
L 151.574182 162.801764 
L 156.992192 174.978347 
L 162.410201 157.49235 
L 167.828211 136.917711 
L 173.24622 136.597769 
L 178.664229 148.638275 
L 184.082239 158.206255 
L 189.500248 189.820525 
L 194.918258 144.148657 
L 200.336267 159.855454 
L 205.754277 149.943256 
L 211.172286 175.68112 
L 216.590296 167.73534 
L 222.008305 164.900477 
L 227.426315 150.196921 
L 232.844324 134.719045 
L 238.262334 108.972596 
L 243.680343 96.648567 
L 249.098352 130.924835 
L 254.516362 128.345959 
L 259.934371 121.421033 
L 265.352381 323.991626 
L 270.77039 329.313632 
L 276.1884 342.038768 
L 281.606409 320.027497 
L 287.024419 269.322765 
L 292.442428 245.546177 
L 297.860438 261.667352 
L 303.278447 232.367184 
L 308.696456 220.627722 
L 314.114466 233.211061 
L 319.532475 251.636094 
L 324.950485 221.434177 
L 330.368494 241.512351 
L 335.786504 187.899774 
L 341.204513 247.761513 
L 346.622523 229.378119 
L 352.040532 180.405671 
L 357.458542 188.307804 
L 362.876551 184.698839 
L 368.294561 209.562033 
L 373.71257 236.968911 
L 379.130579 228.122344 
L 384.548589 153.520638 
L 389.966598 174.865422 
L 395.384608 192.44964 
L 400.802617 190.463037 
L 406.220627 225.490291 
L 411.638636 220.015432 
L 417.056646 209.710906 
L 422.474655 204.074618 
L 427.892665 150.683233 
L 433.310674 185.217714 
L 438.728684 172.732005 
L 444.146693 174.159602 
L 449.564702 221.145839 
L 454.982712 201.081543 
L 460.400721 166.285464 
L 465.818731 211.328598 
L 471.23674 168.589923 
L 476.65475 160.27494 
L 482.072759 173.861171 
L 487.490769 219.313054 
L 492.908778 176.018816 
L 498.326788 147.966779 
L 503.744797 212.572069 
L 509.162806 198.22415 
L 514.580816 179.591488 
L 519.998825 162.513217 
L 525.416835 199.794768 
L 530.834844 207.308122 
L 536.252854 193.867236 
L 541.670863 155.274188 
L 547.088873 149.06925 
L 552.506882 187.564373 
L 557.924892 211.565124 
L 563.342901 141.086251 
L 568.760911 123.509303 
L 574.17892 156.821678 
L 579.596929 155.964324 
L 585.014939 112.353526 
L 590.432948 121.634987 
L 595.850958 102.425643 
L 601.268967 114.488644 
L 606.686977 106.633795 
L 612.104986 109.917423 
" clip-path="url(#pc1fd4de6d1)" style="fill: none; stroke: #008000; stroke-opacity: 0.27; stroke-width: 1.25; stroke-linecap: round"/>
   </g>
   <g id="line2d_11">
    <path d="M 75.72205 319.299201 
L 81.140059 320.155765 
L 86.558069 320.179859 
L 91.976078 311.162541 
L 97.394088 323.960306 
L 102.812097 314.830792 
L 108.230106 297.454958 
L 113.648116 281.223357 
L 119.066125 286.448872 
L 124.484135 283.210479 
L 129.902144 264.67087 
L 135.320154 251.801061 
L 140.738163 249.334345 
L 146.156173 256.410276 
L 151.574182 245.679791 
L 156.992192 235.394978 
L 162.410201 251.507932 
L 167.828211 237.912186 
L 173.24622 250.331943 
L 178.664229 224.941931 
L 184.082239 236.028331 
L 189.500248 245.050459 
L 194.918258 202.355367 
L 200.336267 193.725295 
L 205.754277 211.254277 
L 211.172286 179.238581 
L 216.590296 172.40155 
L 222.008305 160.148368 
L 227.426315 179.058118 
L 232.844324 168.058348 
L 238.262334 127.162069 
L 243.680343 161.054744 
L 249.098352 129.51055 
L 254.516362 191.436742 
L 259.934371 160.826024 
L 265.352381 167.184853 
L 270.77039 128.139889 
L 276.1884 145.859471 
L 281.606409 219.555667 
L 287.024419 129.277634 
L 292.442428 101.825277 
L 297.860438 180.326486 
L 303.278447 96.391586 
L 308.696456 105.270734 
L 314.114466 163.115377 
L 319.532475 158.738024 
L 324.950485 183.551581 
L 330.368494 120.929442 
L 335.786504 97.524653 
L 341.204513 85.399115 
L 346.622523 154.682389 
L 352.040532 141.998664 
L 357.458542 176.292145 
L 362.876551 192.334035 
L 368.294561 192.126724 
L 373.71257 189.036998 
L 379.130579 142.60173 
L 384.548589 178.83135 
L 389.966598 174.658139 
L 395.384608 157.816602 
L 400.802617 152.882208 
L 406.220627 193.531589 
L 411.638636 159.402343 
L 417.056646 143.233366 
L 422.474655 127.745448 
L 427.892665 140.291704 
L 433.310674 254.911122 
L 438.728684 230.143917 
L 444.146693 183.945274 
L 449.564702 169.165899 
L 454.982712 161.185276 
L 460.400721 133.488071 
L 465.818731 117.483323 
L 471.23674 110.605688 
L 476.65475 135.773513 
L 482.072759 107.970354 
L 487.490769 124.831002 
L 492.908778 249.634396 
L 498.326788 283.680554 
L 503.744797 278.351472 
L 509.162806 230.674728 
L 514.580816 227.542052 
L 519.998825 262.896912 
L 525.416835 252.302386 
L 530.834844 235.664052 
L 536.252854 248.193434 
L 541.670863 221.07574 
L 547.088873 175.975062 
L 552.506882 180.717469 
L 557.924892 196.583179 
L 563.342901 154.575742 
L 568.760911 155.586315 
L 574.17892 154.407311 
L 579.596929 189.539798 
L 585.014939 170.63787 
L 590.432948 153.214688 
L 595.850958 153.088601 
L 601.268967 152.686865 
L 606.686977 139.327711 
L 612.104986 144.436967 
" clip-path="url(#pc1fd4de6d1)" style="fill: none; stroke: #008000; stroke-opacity: 0.27; stroke-width: 1.25; stroke-linecap: round"/>
   </g>
   <g id="line2d_12">
    <path d="M 75.72205 328.833479 
L 81.140059 318.401245 
L 86.558069 348.410534 
L 91.976078 315.536165 
L 97.394088 305.520057 
L 102.812097 286.610009 
L 108.230106 289.471214 
L 113.648116 289.93059 
L 119.066125 263.234513 
L 124.484135 283.730771 
L 129.902144 237.40057 
L 135.320154 251.699192 
L 140.738163 243.70983 
L 146.156173 238.713236 
L 151.574182 226.021134 
L 156.992192 243.213199 
L 162.410201 203.040347 
L 167.828211 224.519687 
L 173.24622 204.7923 
L 178.664229 232.362939 
L 184.082239 215.303225 
L 189.500248 165.087682 
L 194.918258 195.606048 
L 200.336267 134.044301 
L 205.754277 227.26938 
L 211.172286 169.810527 
L 216.590296 177.474237 
L 222.008305 201.091175 
L 227.426315 196.719374 
L 232.844324 123.559257 
L 238.262334 127.776235 
L 243.680343 149.062834 
L 249.098352 141.183612 
L 254.516362 140.859431 
L 259.934371 160.26525 
L 265.352381 224.551854 
L 270.77039 134.721301 
L 276.1884 154.575212 
L 281.606409 169.769498 
L 287.024419 202.094292 
L 292.442428 189.186524 
L 297.860438 206.676579 
L 303.278447 182.193014 
L 308.696456 158.780432 
L 314.114466 178.414799 
L 319.532475 283.827781 
L 324.950485 338.336185 
L 330.368494 282.646452 
L 335.786504 256.00552 
L 341.204513 224.616271 
L 346.622523 271.703854 
L 352.040532 285.635186 
L 357.458542 251.336121 
L 362.876551 255.055482 
L 368.294561 229.759153 
L 373.71257 216.912684 
L 379.130579 274.246168 
L 384.548589 256.364452 
L 389.966598 243.625217 
L 395.384608 265.276914 
L 400.802617 262.720405 
L 406.220627 236.175152 
L 411.638636 261.108352 
L 417.056646 228.702186 
L 422.474655 243.611833 
L 427.892665 244.879513 
L 433.310674 191.26285 
L 438.728684 161.889503 
L 444.146693 176.637376 
L 449.564702 219.542614 
L 454.982712 185.055781 
L 460.400721 201.808427 
L 465.818731 227.911809 
L 471.23674 194.388337 
L 476.65475 196.320631 
L 482.072759 150.344347 
L 487.490769 172.147605 
L 492.908778 152.853839 
L 498.326788 153.932865 
L 503.744797 167.343832 
L 509.162806 150.478939 
L 514.580816 169.920249 
L 519.998825 169.426303 
L 525.416835 171.05843 
L 530.834844 198.292274 
L 536.252854 198.65588 
L 541.670863 170.612075 
L 547.088873 158.415582 
L 552.506882 134.833289 
L 557.924892 154.028876 
L 563.342901 175.225274 
L 568.760911 166.074494 
L 574.17892 127.598947 
L 579.596929 134.304576 
L 585.014939 131.162515 
L 590.432948 153.337412 
L 595.850958 163.818311 
L 601.268967 162.801937 
L 606.686977 141.006404 
L 612.104986 130.256061 
" clip-path="url(#pc1fd4de6d1)" style="fill: none; stroke: #008000; stroke-opacity: 0.27; stroke-width: 1.25; stroke-linecap: round"/>
   </g>
   <g id="line2d_13">
    <path d="M 75.72205 327.380261 
L 81.140059 318.93732 
L 86.558069 328.489289 
L 91.976078 305.818548 
L 97.394088 304.242897 
L 102.812097 309.374223 
L 108.230106 277.64492 
L 113.648116 260.575215 
L 119.066125 259.18398 
L 124.484135 267.084003 
L 129.902144 265.248138 
L 135.320154 249.217061 
L 140.738163 232.989467 
L 146.156173 229.829692 
L 151.574182 224.539534 
L 156.992192 231.761525 
L 162.410201 206.775973 
L 167.828211 205.275658 
L 173.24622 152.733998 
L 178.664229 130.078762 
L 184.082239 153.769011 
L 189.500248 162.693111 
L 194.918258 140.920338 
L 200.336267 147.116777 
L 205.754277 151.202923 
L 211.172286 128.741321 
L 216.590296 108.217253 
L 222.008305 121.165458 
L 227.426315 130.985701 
L 232.844324 150.549125 
L 238.262334 116.784184 
L 243.680343 143.09317 
L 249.098352 130.460403 
L 254.516362 119.095984 
L 259.934371 186.038049 
L 265.352381 146.843993 
L 270.77039 114.789987 
L 276.1884 115.217287 
L 281.606409 120.21416 
L 287.024419 125.282643 
L 292.442428 126.759169 
L 297.860438 136.685949 
L 303.278447 118.107981 
L 308.696456 84.879286 
L 314.114466 131.353542 
L 319.532475 124.588474 
L 324.950485 141.757196 
L 330.368494 110.752923 
L 335.786504 118.88153 
L 341.204513 108.908576 
L 346.622523 238.489393 
L 352.040532 163.231338 
L 357.458542 159.890475 
L 362.876551 143.966423 
L 368.294561 123.368879 
L 373.71257 126.101082 
L 379.130579 119.331221 
L 384.548589 122.274629 
L 389.966598 138.305357 
L 395.384608 119.998199 
L 400.802617 91.585265 
L 406.220627 119.260444 
L 411.638636 99.036182 
L 417.056646 99.728997 
L 422.474655 225.589073 
L 427.892665 181.657797 
L 433.310674 147.239563 
L 438.728684 152.807886 
L 444.146693 156.312264 
L 449.564702 108.302104 
L 454.982712 191.03627 
L 460.400721 229.297806 
L 465.818731 224.852703 
L 471.23674 186.313565 
L 476.65475 175.664129 
L 482.072759 173.490124 
L 487.490769 173.624623 
L 492.908778 138.933486 
L 498.326788 145.486029 
L 503.744797 115.813643 
L 509.162806 160.244457 
L 514.580816 169.580396 
L 519.998825 153.238941 
L 525.416835 140.525883 
L 530.834844 185.854659 
L 536.252854 244.076356 
L 541.670863 240.949256 
L 547.088873 208.156452 
L 552.506882 200.821309 
L 557.924892 201.607974 
L 563.342901 207.666618 
L 568.760911 203.798229 
L 574.17892 225.884507 
L 579.596929 189.741967 
L 585.014939 192.290591 
L 590.432948 164.464778 
L 595.850958 154.903404 
L 601.268967 212.854791 
L 606.686977 167.776427 
L 612.104986 180.096875 
" clip-path="url(#pc1fd4de6d1)" style="fill: none; stroke: #008000; stroke-opacity: 0.27; stroke-width: 1.25; stroke-linecap: round"/>
   </g>
   <g id="line2d_14">
    <path d="M 75.72205 332.989412 
L 81.140059 339.488336 
L 86.558069 303.67825 
L 91.976078 292.482558 
L 97.394088 297.563769 
L 102.812097 300.602911 
L 108.230106 270.173555 
L 113.648116 268.772769 
L 119.066125 228.419266 
L 124.484135 239.258198 
L 129.902144 229.292251 
L 135.320154 212.845565 
L 140.738163 204.242327 
L 146.156173 208.906792 
L 151.574182 177.799514 
L 156.992192 175.138911 
L 162.410201 158.03097 
L 167.828211 154.254868 
L 173.24622 166.610237 
L 178.664229 135.032437 
L 184.082239 199.758477 
L 189.500248 157.994857 
L 194.918258 140.790327 
L 200.336267 184.012561 
L 205.754277 176.867199 
L 211.172286 150.317417 
L 216.590296 165.691571 
L 222.008305 237.664871 
L 227.426315 176.15262 
L 232.844324 154.17034 
L 238.262334 194.243221 
L 243.680343 155.307243 
L 249.098352 111.56915 
L 254.516362 135.204238 
L 259.934371 167.550607 
L 265.352381 158.508505 
L 270.77039 181.484345 
L 276.1884 129.247463 
L 281.606409 133.832158 
L 287.024419 244.713532 
L 292.442428 199.58106 
L 297.860438 255.050105 
L 303.278447 201.47993 
L 308.696456 189.7294 
L 314.114466 210.576755 
L 319.532475 186.971958 
L 324.950485 227.879898 
L 330.368494 164.139368 
L 335.786504 193.694615 
L 341.204513 212.380481 
L 346.622523 121.315404 
L 352.040532 146.756356 
L 357.458542 160.38876 
L 362.876551 167.56787 
L 368.294561 146.11125 
L 373.71257 144.659878 
L 379.130579 160.559154 
L 384.548589 136.665445 
L 389.966598 133.406997 
L 395.384608 114.224794 
L 400.802617 117.927176 
L 406.220627 110.605168 
L 411.638636 110.347316 
L 417.056646 128.571507 
L 422.474655 136.727396 
L 427.892665 102.925272 
L 433.310674 121.924828 
L 438.728684 115.553195 
L 444.146693 108.875707 
L 449.564702 100.174308 
L 454.982712 83.311675 
L 460.400721 118.879738 
L 465.818731 114.025299 
L 471.23674 97.937714 
L 476.65475 88.408808 
L 482.072759 93.056495 
L 487.490769 89.652569 
L 492.908778 81.794909 
L 498.326788 108.876364 
L 503.744797 93.234696 
L 509.162806 95.437712 
L 514.580816 84.644844 
L 519.998825 100.187344 
L 525.416835 122.330597 
L 530.834844 104.401699 
L 536.252854 114.268488 
L 541.670863 111.137566 
L 547.088873 100.995723 
L 552.506882 107.657652 
L 557.924892 106.943491 
L 563.342901 107.600228 
L 568.760911 109.094131 
L 574.17892 100.502005 
L 579.596929 98.36944 
L 585.014939 98.880154 
L 590.432948 96.703057 
L 595.850958 92.016613 
L 601.268967 93.340354 
L 606.686977 90.549795 
L 612.104986 89.962067 
" clip-path="url(#pc1fd4de6d1)" style="fill: none; stroke: #008000; stroke-opacity: 0.27; stroke-width: 1.25; stroke-linecap: round"/>
   </g>
   <g id="line2d_15">
    <path d="M 75.72205 48.737215 
L 81.140059 49.608248 
L 86.558069 55.835058 
L 91.976078 58.926805 
L 97.394088 68.716294 
L 102.812097 82.240299 
L 108.230106 92.633125 
L 113.648116 110.485648 
L 119.066125 130.26246 
L 124.484135 157.075596 
L 129.902144 165.913435 
L 135.320154 189.419015 
L 140.738163 211.86691 
L 146.156173 233.26201 
L 151.574182 243.121712 
L 156.992192 264.842318 
L 162.410201 273.637475 
L 167.828211 283.221436 
L 173.24622 271.388259 
L 178.664229 271.001465 
L 184.082239 286.491841 
L 189.500248 282.3861 
L 194.918258 275.837379 
L 200.336267 273.375556 
L 205.754277 276.20647 
L 211.172286 254.153502 
L 216.590296 251.204231 
L 222.008305 261.328842 
L 227.426315 251.534492 
L 232.844324 236.266855 
L 238.262334 236.719535 
L 243.680343 232.998115 
L 249.098352 235.761223 
L 254.516362 243.892172 
L 259.934371 248.80395 
L 265.352381 325.890602 
L 270.77039 306.049534 
L 276.1884 306.722096 
L 281.606409 305.559214 
L 287.024419 338.547521 
L 292.442428 309.942419 
L 297.860438 334.742318 
L 303.278447 303.02784 
L 308.696456 274.546842 
L 314.114466 303.461254 
L 319.532475 344.22156 
L 324.950485 356.850936 
L 330.368494 324.700563 
L 335.786504 299.123949 
L 341.204513 311.592653 
L 346.622523 334.620673 
L 352.040532 323.538991 
L 357.458542 321.890394 
L 362.876551 333.532918 
L 368.294561 315.580952 
L 373.71257 312.105139 
L 379.130579 324.2298 
L 384.548589 314.887314 
L 389.966598 314.684162 
L 395.384608 321.203353 
L 400.802617 317.317323 
L 406.220627 341.485091 
L 411.638636 344.386708 
L 417.056646 343.596483 
L 422.474655 349.472613 
L 427.892665 346.274332 
L 433.310674 391.382785 
L 438.728684 375.510387 
L 444.146693 357.455187 
L 449.564702 379.655288 
L 454.982712 382.535702 
L 460.400721 362.783608 
L 465.818731 381.748276 
L 471.23674 353.988992 
L 476.65475 361.52125 
L 482.072759 349.452459 
L 487.490769 370.437299 
L 492.908778 350.817898 
L 498.326788 356.550874 
L 503.744797 366.279027 
L 509.162806 363.909299 
L 514.580816 366.987367 
L 519.998825 348.485392 
L 525.416835 359.578519 
L 530.834844 374.952082 
L 536.252854 378.770571 
L 541.670863 356.038341 
L 547.088873 341.431003 
L 552.506882 347.359985 
L 557.924892 358.285399 
L 563.342901 344.657346 
L 568.760911 339.054612 
L 574.17892 343.449195 
L 579.596929 338.192228 
L 585.014939 334.157293 
L 590.432948 339.768919 
L 595.850958 334.548932 
L 601.268967 342.946472 
L 606.686977 322.497759 
L 612.104986 320.003177 
" clip-path="url(#pc1fd4de6d1)" style="fill: none; stroke: #7b3ab8; stroke-width: 1.5; stroke-linecap: round"/>
   </g>
   <g id="patch_3">
    <path d="M 65.14 400.52 
L 65.14 39.6 
" style="fill: none; stroke: #ffffff; stroke-width: 0.8; stroke-linejoin: miter; stroke-linecap: square"/>
   </g>
   <g id="patch_4">
    <path d="M 620.168508 400.52 
L 620.168508 39.6 
" style="fill: none; stroke: #ffffff; stroke-width: 0.8; stroke-linejoin: miter; stroke-linecap: square"/>
   </g>
   <g id="patch_5">
    <path d="M 65.14 400.52 
L 620.168508 400.52 
" style="fill: none; stroke: #ffffff; stroke-width: 0.8; stroke-linejoin: miter; stroke-linecap: square"/>
   </g>
   <g id="patch_6">
    <path d="M 65.14 39.6 
L 620.168508 39.6 
" style="fill: none; stroke: #ffffff; stroke-width: 0.8; stroke-linejoin: miter; stroke-linecap: square"/>
   </g>
  </g>
  <g id="text_9">
   <!-- Pendulum-v1 (Discretized) | GNN-Net (Noise + Entropy) -->
   <g style="fill: #262626" transform="translate(42.091875 22.395938) scale(0.18 -0.18)">
    <defs>
     <path id="DejaVuSans-Bold-50" d="M 588 4666 
L 2584 4666 
Q 3475 4666 3951 4270 
Q 4428 3875 4428 3144 
Q 4428 2409 3951 2014 
Q 3475 1619 2584 1619 
L 1791 1619 
L 1791 0 
L 588 0 
L 588 4666 
z
M 1791 3794 
L 1791 2491 
L 2456 2491 
Q 2806 2491 2997 2661 
Q 3188 2831 3188 3144 
Q 3188 3456 2997 3625 
Q 2806 3794 2456 3794 
L 1791 3794 
z
" transform="scale(0.015625)"/>
     <path id="DejaVuSans-Bold-65" d="M 4031 1759 
L 4031 1441 
L 1416 1441 
Q 1456 1047 1700 850 
Q 1944 653 2381 653 
Q 2734 653 3104 758 
Q 3475 863 3866 1075 
L 3866 213 
Q 3469 63 3072 -14 
Q 2675 -91 2278 -91 
Q 1328 -91 801 392 
Q 275 875 275 1747 
Q 275 2603 792 3093 
Q 1309 3584 2216 3584 
Q 3041 3584 3536 3087 
Q 4031 2591 4031 1759 
z
M 2881 2131 
Q 2881 2450 2695 2645 
Q 2509 2841 2209 2841 
Q 1884 2841 1681 2658 
Q 1478 2475 1428 2131 
L 2881 2131 
z
" transform="scale(0.015625)"/>
     <path id="DejaVuSans-Bold-6e" d="M 4056 2131 
L 4056 0 
L 2931 0 
L 2931 347 
L 2931 1631 
Q 2931 2084 2911 2256 
Q 2891 2428 2841 2509 
Q 2775 2619 2662 2680 
Q 2550 2741 2406 2741 
Q 2056 2741 1856 2470 
Q 1656 2200 1656 1722 
L 1656 0 
L 538 0 
L 538 3500 
L 1656 3500 
L 1656 2988 
Q 1909 3294 2193 3439 
Q 2478 3584 2822 3584 
Q 3428 3584 3742 3212 
Q 4056 2841 4056 2131 
z
" transform="scale(0.015625)"/>
     <path id="DejaVuSans-Bold-64" d="M 2919 2988 
L 2919 4863 
L 4044 4863 
L 4044 0 
L 2919 0 
L 2919 506 
Q 2688 197 2409 53 
Q 2131 -91 1766 -91 
Q 1119 -91 703 423 
Q 288 938 288 1747 
Q 288 2556 703 3070 
Q 1119 3584 1766 3584 
Q 2128 3584 2408 3439 
Q 2688 3294 2919 2988 
z
M 2181 722 
Q 2541 722 2730 984 
Q 2919 1247 2919 1747 
Q 2919 2247 2730 2509 
Q 2541 2772 2181 2772 
Q 1825 2772 1636 2509 
Q 1447 2247 1447 1747 
Q 1447 1247 1636 984 
Q 1825 722 2181 722 
z
" transform="scale(0.015625)"/>
     <path id="DejaVuSans-Bold-75" d="M 500 1363 
L 500 3500 
L 1625 3500 
L 1625 3150 
Q 1625 2866 1622 2436 
Q 1619 2006 1619 1863 
Q 1619 1441 1641 1255 
Q 1663 1069 1716 984 
Q 1784 875 1895 815 
Q 2006 756 2150 756 
Q 2500 756 2700 1025 
Q 2900 1294 2900 1772 
L 2900 3500 
L 4019 3500 
L 4019 0 
L 2900 0 
L 2900 506 
Q 2647 200 2364 54 
Q 2081 -91 1741 -91 
Q 1134 -91 817 281 
Q 500 653 500 1363 
z
" transform="scale(0.015625)"/>
     <path id="DejaVuSans-Bold-6c" d="M 538 4863 
L 1656 4863 
L 1656 0 
L 538 0 
L 538 4863 
z
" transform="scale(0.015625)"/>
     <path id="DejaVuSans-Bold-6d" d="M 3781 2919 
Q 3994 3244 4286 3414 
Q 4578 3584 4928 3584 
Q 5531 3584 5847 3212 
Q 6163 2841 6163 2131 
L 6163 0 
L 5038 0 
L 5038 1825 
Q 5041 1866 5042 1909 
Q 5044 1953 5044 2034 
Q 5044 2406 4934 2573 
Q 4825 2741 4581 2741 
Q 4263 2741 4089 2478 
Q 3916 2216 3909 1719 
L 3909 0 
L 2784 0 
L 2784 1825 
Q 2784 2406 2684 2573 
Q 2584 2741 2328 2741 
Q 2006 2741 1831 2477 
Q 1656 2213 1656 1722 
L 1656 0 
L 531 0 
L 531 3500 
L 1656 3500 
L 1656 2988 
Q 1863 3284 2130 3434 
Q 2397 3584 2719 3584 
Q 3081 3584 3359 3409 
Q 3638 3234 3781 2919 
z
" transform="scale(0.015625)"/>
     <path id="DejaVuSans-Bold-2d" d="M 347 2297 
L 2309 2297 
L 2309 1388 
L 347 1388 
L 347 2297 
z
" transform="scale(0.015625)"/>
     <path id="DejaVuSans-Bold-76" d="M 97 3500 
L 1216 3500 
L 2088 1081 
L 2956 3500 
L 4078 3500 
L 2700 0 
L 1472 0 
L 97 3500 
z
" transform="scale(0.015625)"/>
     <path id="DejaVuSans-Bold-31" d="M 750 831 
L 1813 831 
L 1813 3847 
L 722 3622 
L 722 4441 
L 1806 4666 
L 2950 4666 
L 2950 831 
L 4013 831 
L 4013 0 
L 750 0 
L 750 831 
z
" transform="scale(0.015625)"/>
     <path id="DejaVuSans-Bold-20" transform="scale(0.015625)"/>
     <path id="DejaVuSans-Bold-28" d="M 2413 -844 
L 1484 -844 
Q 1006 -72 778 623 
Q 550 1319 550 2003 
Q 550 2688 779 3389 
Q 1009 4091 1484 4856 
L 2413 4856 
Q 2013 4116 1813 3408 
Q 1613 2700 1613 2009 
Q 1613 1319 1811 609 
Q 2009 -100 2413 -844 
z
" transform="scale(0.015625)"/>
     <path id="DejaVuSans-Bold-44" d="M 1791 3756 
L 1791 909 
L 2222 909 
Q 2959 909 3348 1275 
Q 3738 1641 3738 2338 
Q 3738 3031 3350 3393 
Q 2963 3756 2222 3756 
L 1791 3756 
z
M 588 4666 
L 1856 4666 
Q 2919 4666 3439 4514 
Q 3959 4363 4331 4000 
Q 4659 3684 4818 3271 
Q 4978 2859 4978 2338 
Q 4978 1809 4818 1395 
Q 4659 981 4331 666 
Q 3956 303 3431 151 
Q 2906 0 1856 0 
L 588 0 
L 588 4666 
z
" transform="scale(0.015625)"/>
     <path id="DejaVuSans-Bold-69" d="M 538 3500 
L 1656 3500 
L 1656 0 
L 538 0 
L 538 3500 
z
M 538 4863 
L 1656 4863 
L 1656 3950 
L 538 3950 
L 538 4863 
z
" transform="scale(0.015625)"/>
     <path id="DejaVuSans-Bold-73" d="M 3272 3391 
L 3272 2541 
Q 2913 2691 2578 2766 
Q 2244 2841 1947 2841 
Q 1628 2841 1473 2761 
Q 1319 2681 1319 2516 
Q 1319 2381 1436 2309 
Q 1553 2238 1856 2203 
L 2053 2175 
Q 2913 2066 3209 1816 
Q 3506 1566 3506 1031 
Q 3506 472 3093 190 
Q 2681 -91 1863 -91 
Q 1516 -91 1145 -36 
Q 775 19 384 128 
L 384 978 
Q 719 816 1070 734 
Q 1422 653 1784 653 
Q 2113 653 2278 743 
Q 2444 834 2444 1013 
Q 2444 1163 2330 1236 
Q 2216 1309 1875 1350 
L 1678 1375 
Q 931 1469 631 1722 
Q 331 1975 331 2491 
Q 331 3047 712 3315 
Q 1094 3584 1881 3584 
Q 2191 3584 2531 3537 
Q 2872 3491 3272 3391 
z
" transform="scale(0.015625)"/>
     <path id="DejaVuSans-Bold-63" d="M 3366 3391 
L 3366 2478 
Q 3138 2634 2908 2709 
Q 2678 2784 2431 2784 
Q 1963 2784 1702 2511 
Q 1441 2238 1441 1747 
Q 1441 1256 1702 982 
Q 1963 709 2431 709 
Q 2694 709 2930 787 
Q 3166 866 3366 1019 
L 3366 103 
Q 3103 6 2833 -42 
Q 2563 -91 2291 -91 
Q 1344 -91 809 395 
Q 275 881 275 1747 
Q 275 2613 809 3098 
Q 1344 3584 2291 3584 
Q 2566 3584 2833 3536 
Q 3100 3488 3366 3391 
z
" transform="scale(0.015625)"/>
     <path id="DejaVuSans-Bold-72" d="M 3138 2547 
Q 2991 2616 2845 2648 
Q 2700 2681 2553 2681 
Q 2122 2681 1889 2404 
Q 1656 2128 1656 1613 
L 1656 0 
L 538 0 
L 538 3500 
L 1656 3500 
L 1656 2925 
Q 1872 3269 2151 3426 
Q 2431 3584 2822 3584 
Q 2878 3584 2943 3579 
Q 3009 3575 3134 3559 
L 3138 2547 
z
" transform="scale(0.015625)"/>
     <path id="DejaVuSans-Bold-74" d="M 1759 4494 
L 1759 3500 
L 2913 3500 
L 2913 2700 
L 1759 2700 
L 1759 1216 
Q 1759 972 1856 886 
Q 1953 800 2241 800 
L 2816 800 
L 2816 0 
L 1856 0 
Q 1194 0 917 276 
Q 641 553 641 1216 
L 641 2700 
L 84 2700 
L 84 3500 
L 641 3500 
L 641 4494 
L 1759 4494 
z
" transform="scale(0.015625)"/>
     <path id="DejaVuSans-Bold-7a" d="M 366 3500 
L 3419 3500 
L 3419 2719 
L 1575 800 
L 3419 800 
L 3419 0 
L 288 0 
L 288 781 
L 2131 2700 
L 366 2700 
L 366 3500 
z
" transform="scale(0.015625)"/>
     <path id="DejaVuSans-Bold-29" d="M 513 -844 
Q 913 -100 1113 609 
Q 1313 1319 1313 2009 
Q 1313 2700 1113 3408 
Q 913 4116 513 4856 
L 1441 4856 
Q 1916 4091 2145 3389 
Q 2375 2688 2375 2003 
Q 2375 1319 2147 623 
Q 1919 -72 1441 -844 
L 513 -844 
z
" transform="scale(0.015625)"/>
     <path id="DejaVuSans-Bold-7c" d="M 1522 4891 
L 1522 -1509 
L 813 -1509 
L 813 4891 
L 1522 4891 
z
" transform="scale(0.015625)"/>
     <path id="DejaVuSans-Bold-47" d="M 4781 347 
Q 4331 128 3847 18 
Q 3363 -91 2847 -91 
Q 1681 -91 1000 561 
Q 319 1213 319 2328 
Q 319 3456 1012 4103 
Q 1706 4750 2913 4750 
Q 3378 4750 3804 4662 
Q 4231 4575 4609 4403 
L 4609 3438 
Q 4219 3659 3833 3768 
Q 3447 3878 3059 3878 
Q 2341 3878 1952 3476 
Q 1563 3075 1563 2328 
Q 1563 1588 1938 1184 
Q 2313 781 3003 781 
Q 3191 781 3352 804 
Q 3513 828 3641 878 
L 3641 1784 
L 2906 1784 
L 2906 2591 
L 4781 2591 
L 4781 347 
z
" transform="scale(0.015625)"/>
     <path id="DejaVuSans-Bold-4e" d="M 588 4666 
L 1931 4666 
L 3628 1466 
L 3628 4666 
L 4769 4666 
L 4769 0 
L 3425 0 
L 1728 3200 
L 1728 0 
L 588 0 
L 588 4666 
z
" transform="scale(0.015625)"/>
     <path id="DejaVuSans-Bold-6f" d="M 2203 2784 
Q 1831 2784 1636 2517 
Q 1441 2250 1441 1747 
Q 1441 1244 1636 976 
Q 1831 709 2203 709 
Q 2569 709 2762 976 
Q 2956 1244 2956 1747 
Q 2956 2250 2762 2517 
Q 2569 2784 2203 2784 
z
M 2203 3584 
Q 3106 3584 3614 3096 
Q 4122 2609 4122 1747 
Q 4122 884 3614 396 
Q 3106 -91 2203 -91 
Q 1297 -91 786 396 
Q 275 884 275 1747 
Q 275 2609 786 3096 
Q 1297 3584 2203 3584 
z
" transform="scale(0.015625)"/>
     <path id="DejaVuSans-Bold-2b" d="M 3053 4013 
L 3053 2375 
L 4684 2375 
L 4684 1638 
L 3053 1638 
L 3053 0 
L 2309 0 
L 2309 1638 
L 678 1638 
L 678 2375 
L 2309 2375 
L 2309 4013 
L 3053 4013 
z
" transform="scale(0.015625)"/>
     <path id="DejaVuSans-Bold-45" d="M 588 4666 
L 3834 4666 
L 3834 3756 
L 1791 3756 
L 1791 2888 
L 3713 2888 
L 3713 1978 
L 1791 1978 
L 1791 909 
L 3903 909 
L 3903 0 
L 588 0 
L 588 4666 
z
" transform="scale(0.015625)"/>
     <path id="DejaVuSans-Bold-70" d="M 1656 506 
L 1656 -1331 
L 538 -1331 
L 538 3500 
L 1656 3500 
L 1656 2988 
Q 1888 3294 2169 3439 
Q 2450 3584 2816 3584 
Q 3463 3584 3878 3070 
Q 4294 2556 4294 1747 
Q 4294 938 3878 423 
Q 3463 -91 2816 -91 
Q 2450 -91 2169 54 
Q 1888 200 1656 506 
z
M 2400 2772 
Q 2041 2772 1848 2508 
Q 1656 2244 1656 1747 
Q 1656 1250 1848 986 
Q 2041 722 2400 722 
Q 2759 722 2948 984 
Q 3138 1247 3138 1747 
Q 3138 2247 2948 2509 
Q 2759 2772 2400 2772 
z
" transform="scale(0.015625)"/>
     <path id="DejaVuSans-Bold-79" d="M 78 3500 
L 1197 3500 
L 2138 1125 
L 2938 3500 
L 4056 3500 
L 2584 -331 
Q 2363 -916 2067 -1148 
Q 1772 -1381 1288 -1381 
L 641 -1381 
L 641 -647 
L 991 -647 
Q 1275 -647 1404 -556 
Q 1534 -466 1606 -231 
L 1638 -134 
L 78 3500 
z
" transform="scale(0.015625)"/>
    </defs>
    <use xlink:href="#DejaVuSans-Bold-50"/>
    <use xlink:href="#DejaVuSans-Bold-65" transform="translate(73.291016 0)"/>
    <use xlink:href="#DejaVuSans-Bold-6e" transform="translate(141.113281 0)"/>
    <use xlink:href="#DejaVuSans-Bold-64" transform="translate(212.304688 0)"/>
    <use xlink:href="#DejaVuSans-Bold-75" transform="translate(283.886719 0)"/>
    <use xlink:href="#DejaVuSans-Bold-6c" transform="translate(355.078125 0)"/>
    <use xlink:href="#DejaVuSans-Bold-75" transform="translate(389.355469 0)"/>
    <use xlink:href="#DejaVuSans-Bold-6d" transform="translate(460.546875 0)"/>
    <use xlink:href="#DejaVuSans-Bold-2d" transform="translate(564.746094 0)"/>
    <use xlink:href="#DejaVuSans-Bold-76" transform="translate(606.25 0)"/>
    <use xlink:href="#DejaVuSans-Bold-31" transform="translate(671.435547 0)"/>
    <use xlink:href="#DejaVuSans-Bold-20" transform="translate(741.015625 0)"/>
    <use xlink:href="#DejaVuSans-Bold-28" transform="translate(775.830078 0)"/>
    <use xlink:href="#DejaVuSans-Bold-44" transform="translate(821.533203 0)"/>
    <use xlink:href="#DejaVuSans-Bold-69" transform="translate(904.541016 0)"/>
    <use xlink:href="#DejaVuSans-Bold-73" transform="translate(938.818359 0)"/>
    <use xlink:href="#DejaVuSans-Bold-63" transform="translate(998.339844 0)"/>
    <use xlink:href="#DejaVuSans-Bold-72" transform="translate(1057.617188 0)"/>
    <use xlink:href="#DejaVuSans-Bold-65" transform="translate(1106.933594 0)"/>
    <use xlink:href="#DejaVuSans-Bold-74" transform="translate(1174.755859 0)"/>
    <use xlink:href="#DejaVuSans-Bold-69" transform="translate(1222.558594 0)"/>
    <use xlink:href="#DejaVuSans-Bold-7a" transform="translate(1256.835938 0)"/>
    <use xlink:href="#DejaVuSans-Bold-65" transform="translate(1315.039062 0)"/>
    <use xlink:href="#DejaVuSans-Bold-64" transform="translate(1382.861328 0)"/>
    <use xlink:href="#DejaVuSans-Bold-29" transform="translate(1454.443359 0)"/>
    <use xlink:href="#DejaVuSans-Bold-20" transform="translate(1500.146484 0)"/>
    <use xlink:href="#DejaVuSans-Bold-7c" transform="translate(1534.960938 0)"/>
    <use xlink:href="#DejaVuSans-Bold-20" transform="translate(1571.484375 0)"/>
    <use xlink:href="#DejaVuSans-Bold-47" transform="translate(1606.298828 0)"/>
    <use xlink:href="#DejaVuSans-Bold-4e" transform="translate(1688.378906 0)"/>
    <use xlink:href="#DejaVuSans-Bold-4e" transform="translate(1772.070312 0)"/>
    <use xlink:href="#DejaVuSans-Bold-2d" transform="translate(1855.761719 0)"/>
    <use xlink:href="#DejaVuSans-Bold-4e" transform="translate(1897.265625 0)"/>
    <use xlink:href="#DejaVuSans-Bold-65" transform="translate(1980.957031 0)"/>
    <use xlink:href="#DejaVuSans-Bold-74" transform="translate(2048.779297 0)"/>
    <use xlink:href="#DejaVuSans-Bold-20" transform="translate(2096.582031 0)"/>
    <use xlink:href="#DejaVuSans-Bold-28" transform="translate(2131.396484 0)"/>
    <use xlink:href="#DejaVuSans-Bold-4e" transform="translate(2177.099609 0)"/>
    <use xlink:href="#DejaVuSans-Bold-6f" transform="translate(2260.791016 0)"/>
    <use xlink:href="#DejaVuSans-Bold-69" transform="translate(2329.492188 0)"/>
    <use xlink:href="#DejaVuSans-Bold-73" transform="translate(2363.769531 0)"/>
    <use xlink:href="#DejaVuSans-Bold-65" transform="translate(2423.291016 0)"/>
    <use xlink:href="#DejaVuSans-Bold-20" transform="translate(2491.113281 0)"/>
    <use xlink:href="#DejaVuSans-Bold-2b" transform="translate(2525.927734 0)"/>
    <use xlink:href="#DejaVuSans-Bold-20" transform="translate(2609.716797 0)"/>
    <use xlink:href="#DejaVuSans-Bold-45" transform="translate(2644.53125 0)"/>
    <use xlink:href="#DejaVuSans-Bold-6e" transform="translate(2712.841797 0)"/>
    <use xlink:href="#DejaVuSans-Bold-74" transform="translate(2784.033203 0)"/>
    <use xlink:href="#DejaVuSans-Bold-72" transform="translate(2831.835938 0)"/>
    <use xlink:href="#DejaVuSans-Bold-6f" transform="translate(2881.152344 0)"/>
    <use xlink:href="#DejaVuSans-Bold-70" transform="translate(2949.853516 0)"/>
    <use xlink:href="#DejaVuSans-Bold-79" transform="translate(3021.435547 0)"/>
    <use xlink:href="#DejaVuSans-Bold-29" transform="translate(3086.621094 0)"/>
   </g>
  </g>
 </g>
 <defs>
  <clipPath id="pc1fd4de6d1">
   <rect x="65.14" y="39.6" width="555.028508" height="360.92"/>
  </clipPath>
 </defs>
</svg>
