<?xml version="1.0" encoding="utf-8" standalone="no"?>
<!DOCTYPE svg PUBLIC "-//W3C//DTD SVG 1.1//EN"
  "http://www.w3.org/Graphics/SVG/1.1/DTD/svg11.dtd">
<svg xmlns:xlink="http://www.w3.org/1999/xlink" width="648pt" height="432pt" viewBox="0 0 648 432" xmlns="http://www.w3.org/2000/svg" version="1.1">
 <metadata>
  <rdf:RDF xmlns:dc="http://purl.org/dc/elements/1.1/" xmlns:cc="http://creativecommons.org/ns#" xmlns:rdf="http://www.w3.org/1999/02/22-rdf-syntax-ns#">
   <cc:Work>
    <dc:type rdf:resource="http://purl.org/dc/dcmitype/StillImage"/>
    <dc:date>2025-07-31T00:18:58.801283</dc:date>
    <dc:format>image/svg+xml</dc:format>
    <dc:creator>
     <cc:Agent>
      <dc:title>Matplotlib v3.10.0, https://matplotlib.org/</dc:title>
     </cc:Agent>
    </dc:creator>
   </cc:Work>
  </rdf:RDF>
 </metadata>
 <defs>
  <style type="text/css">*{stroke-linejoin: round; stroke-linecap: butt}</style>
 </defs>
 <g id="figure_1">
  <g id="patch_1">
   <path d="M 0 432 
L 648 432 
L 648 0 
L 0 0 
z
" style="fill: #ffffff"/>
  </g>
  <g id="axes_1">
   <g id="patch_2">
    <path d="M 65.63 390.04 
L 632.205 390.04 
L 632.205 57.0062 
L 65.63 57.0062 
z
" style="fill: #eaeaf2"/>
   </g>
   <g id="matplotlib.axis_1">
    <g id="xtick_1">
     <g id="line2d_1">
      <path d="M 65.63083 390.04 
L 65.63083 57.0062 
" clip-path="url(#p8300664216)" style="fill: none; stroke: #ffffff; stroke-width: 0.8; stroke-linecap: round"/>
     </g>
     <g id="text_1">
      <!-- 0.00 -->
      <g style="fill: #262626" transform="translate(54.498017 404.638438) scale(0.1 -0.1)">
       <defs>
        <path id="DejaVuSans-30" d="M 2034 4250 
Q 1547 4250 1301 3770 
Q 1056 3291 1056 2328 
Q 1056 1369 1301 889 
Q 1547 409 2034 409 
Q 2525 409 2770 889 
Q 3016 1369 3016 2328 
Q 3016 3291 2770 3770 
Q 2525 4250 2034 4250 
z
M 2034 4750 
Q 2819 4750 3233 4129 
Q 3647 3509 3647 2328 
Q 3647 1150 3233 529 
Q 2819 -91 2034 -91 
Q 1250 -91 836 529 
Q 422 1150 422 2328 
Q 422 3509 836 4129 
Q 1250 4750 2034 4750 
z
" transform="scale(0.015625)"/>
        <path id="DejaVuSans-2e" d="M 684 794 
L 1344 794 
L 1344 0 
L 684 0 
L 684 794 
z
" transform="scale(0.015625)"/>
       </defs>
       <use xlink:href="#DejaVuSans-30"/>
       <use xlink:href="#DejaVuSans-2e" transform="translate(63.623047 0)"/>
       <use xlink:href="#DejaVuSans-30" transform="translate(95.410156 0)"/>
       <use xlink:href="#DejaVuSans-30" transform="translate(159.033203 0)"/>
      </g>
     </g>
    </g>
    <g id="xtick_2">
     <g id="line2d_2">
      <path d="M 134.792615 390.04 
L 134.792615 57.0062 
" clip-path="url(#p8300664216)" style="fill: none; stroke: #ffffff; stroke-width: 0.8; stroke-linecap: round"/>
     </g>
     <g id="text_2">
      <!-- 0.25 -->
      <g style="fill: #262626" transform="translate(123.659802 404.638438) scale(0.1 -0.1)">
       <defs>
        <path id="DejaVuSans-32" d="M 1228 531 
L 3431 531 
L 3431 0 
L 469 0 
L 469 531 
Q 828 903 1448 1529 
Q 2069 2156 2228 2338 
Q 2531 2678 2651 2914 
Q 2772 3150 2772 3378 
Q 2772 3750 2511 3984 
Q 2250 4219 1831 4219 
Q 1534 4219 1204 4116 
Q 875 4013 500 3803 
L 500 4441 
Q 881 4594 1212 4672 
Q 1544 4750 1819 4750 
Q 2544 4750 2975 4387 
Q 3406 4025 3406 3419 
Q 3406 3131 3298 2873 
Q 3191 2616 2906 2266 
Q 2828 2175 2409 1742 
Q 1991 1309 1228 531 
z
" transform="scale(0.015625)"/>
        <path id="DejaVuSans-35" d="M 691 4666 
L 3169 4666 
L 3169 4134 
L 1269 4134 
L 1269 2991 
Q 1406 3038 1543 3061 
Q 1681 3084 1819 3084 
Q 2600 3084 3056 2656 
Q 3513 2228 3513 1497 
Q 3513 744 3044 326 
Q 2575 -91 1722 -91 
Q 1428 -91 1123 -41 
Q 819 9 494 109 
L 494 744 
Q 775 591 1075 516 
Q 1375 441 1709 441 
Q 2250 441 2565 725 
Q 2881 1009 2881 1497 
Q 2881 1984 2565 2268 
Q 2250 2553 1709 2553 
Q 1456 2553 1204 2497 
Q 953 2441 691 2322 
L 691 4666 
z
" transform="scale(0.015625)"/>
       </defs>
       <use xlink:href="#DejaVuSans-30"/>
       <use xlink:href="#DejaVuSans-2e" transform="translate(63.623047 0)"/>
       <use xlink:href="#DejaVuSans-32" transform="translate(95.410156 0)"/>
       <use xlink:href="#DejaVuSans-35" transform="translate(159.033203 0)"/>
      </g>
     </g>
    </g>
    <g id="xtick_3">
     <g id="line2d_3">
      <path d="M 203.954399 390.04 
L 203.954399 57.0062 
" clip-path="url(#p8300664216)" style="fill: none; stroke: #ffffff; stroke-width: 0.8; stroke-linecap: round"/>
     </g>
     <g id="text_3">
      <!-- 0.50 -->
      <g style="fill: #262626" transform="translate(192.821587 404.638438) scale(0.1 -0.1)">
       <use xlink:href="#DejaVuSans-30"/>
       <use xlink:href="#DejaVuSans-2e" transform="translate(63.623047 0)"/>
       <use xlink:href="#DejaVuSans-35" transform="translate(95.410156 0)"/>
       <use xlink:href="#DejaVuSans-30" transform="translate(159.033203 0)"/>
      </g>
     </g>
    </g>
    <g id="xtick_4">
     <g id="line2d_4">
      <path d="M 273.116184 390.04 
L 273.116184 57.0062 
" clip-path="url(#p8300664216)" style="fill: none; stroke: #ffffff; stroke-width: 0.8; stroke-linecap: round"/>
     </g>
     <g id="text_4">
      <!-- 0.75 -->
      <g style="fill: #262626" transform="translate(261.983371 404.638438) scale(0.1 -0.1)">
       <defs>
        <path id="DejaVuSans-37" d="M 525 4666 
L 3525 4666 
L 3525 4397 
L 1831 0 
L 1172 0 
L 2766 4134 
L 525 4134 
L 525 4666 
z
" transform="scale(0.015625)"/>
       </defs>
       <use xlink:href="#DejaVuSans-30"/>
       <use xlink:href="#DejaVuSans-2e" transform="translate(63.623047 0)"/>
       <use xlink:href="#DejaVuSans-37" transform="translate(95.410156 0)"/>
       <use xlink:href="#DejaVuSans-35" transform="translate(159.033203 0)"/>
      </g>
     </g>
    </g>
    <g id="xtick_5">
     <g id="line2d_5">
      <path d="M 342.277969 390.04 
L 342.277969 57.0062 
" clip-path="url(#p8300664216)" style="fill: none; stroke: #ffffff; stroke-width: 0.8; stroke-linecap: round"/>
     </g>
     <g id="text_5">
      <!-- 1.00 -->
      <g style="fill: #262626" transform="translate(331.145156 404.638438) scale(0.1 -0.1)">
       <defs>
        <path id="DejaVuSans-31" d="M 794 531 
L 1825 531 
L 1825 4091 
L 703 3866 
L 703 4441 
L 1819 4666 
L 2450 4666 
L 2450 531 
L 3481 531 
L 3481 0 
L 794 0 
L 794 531 
z
" transform="scale(0.015625)"/>
       </defs>
       <use xlink:href="#DejaVuSans-31"/>
       <use xlink:href="#DejaVuSans-2e" transform="translate(63.623047 0)"/>
       <use xlink:href="#DejaVuSans-30" transform="translate(95.410156 0)"/>
       <use xlink:href="#DejaVuSans-30" transform="translate(159.033203 0)"/>
      </g>
     </g>
    </g>
    <g id="xtick_6">
     <g id="line2d_6">
      <path d="M 411.439753 390.04 
L 411.439753 57.0062 
" clip-path="url(#p8300664216)" style="fill: none; stroke: #ffffff; stroke-width: 0.8; stroke-linecap: round"/>
     </g>
     <g id="text_6">
      <!-- 1.25 -->
      <g style="fill: #262626" transform="translate(400.306941 404.638438) scale(0.1 -0.1)">
       <use xlink:href="#DejaVuSans-31"/>
       <use xlink:href="#DejaVuSans-2e" transform="translate(63.623047 0)"/>
       <use xlink:href="#DejaVuSans-32" transform="translate(95.410156 0)"/>
       <use xlink:href="#DejaVuSans-35" transform="translate(159.033203 0)"/>
      </g>
     </g>
    </g>
    <g id="xtick_7">
     <g id="line2d_7">
      <path d="M 480.601538 390.04 
L 480.601538 57.0062 
" clip-path="url(#p8300664216)" style="fill: none; stroke: #ffffff; stroke-width: 0.8; stroke-linecap: round"/>
     </g>
     <g id="text_7">
      <!-- 1.50 -->
      <g style="fill: #262626" transform="translate(469.468726 404.638438) scale(0.1 -0.1)">
       <use xlink:href="#DejaVuSans-31"/>
       <use xlink:href="#DejaVuSans-2e" transform="translate(63.623047 0)"/>
       <use xlink:href="#DejaVuSans-35" transform="translate(95.410156 0)"/>
       <use xlink:href="#DejaVuSans-30" transform="translate(159.033203 0)"/>
      </g>
     </g>
    </g>
    <g id="xtick_8">
     <g id="line2d_8">
      <path d="M 549.763323 390.04 
L 549.763323 57.0062 
" clip-path="url(#p8300664216)" style="fill: none; stroke: #ffffff; stroke-width: 0.8; stroke-linecap: round"/>
     </g>
     <g id="text_8">
      <!-- 1.75 -->
      <g style="fill: #262626" transform="translate(538.63051 404.638438) scale(0.1 -0.1)">
       <use xlink:href="#DejaVuSans-31"/>
       <use xlink:href="#DejaVuSans-2e" transform="translate(63.623047 0)"/>
       <use xlink:href="#DejaVuSans-37" transform="translate(95.410156 0)"/>
       <use xlink:href="#DejaVuSans-35" transform="translate(159.033203 0)"/>
      </g>
     </g>
    </g>
    <g id="xtick_9">
     <g id="line2d_9">
      <path d="M 618.925107 390.04 
L 618.925107 57.0062 
" clip-path="url(#p8300664216)" style="fill: none; stroke: #ffffff; stroke-width: 0.8; stroke-linecap: round"/>
     </g>
     <g id="text_9">
      <!-- 2.00 -->
      <g style="fill: #262626" transform="translate(607.792295 404.638438) scale(0.1 -0.1)">
       <use xlink:href="#DejaVuSans-32"/>
       <use xlink:href="#DejaVuSans-2e" transform="translate(63.623047 0)"/>
       <use xlink:href="#DejaVuSans-30" transform="translate(95.410156 0)"/>
       <use xlink:href="#DejaVuSans-30" transform="translate(159.033203 0)"/>
      </g>
     </g>
    </g>
    <g id="text_10">
     <!-- Steps -->
     <g style="fill: #262626" transform="translate(334.927656 418.316562) scale(0.1 -0.1)">
      <defs>
       <path id="DejaVuSans-53" d="M 3425 4513 
L 3425 3897 
Q 3066 4069 2747 4153 
Q 2428 4238 2131 4238 
Q 1616 4238 1336 4038 
Q 1056 3838 1056 3469 
Q 1056 3159 1242 3001 
Q 1428 2844 1947 2747 
L 2328 2669 
Q 3034 2534 3370 2195 
Q 3706 1856 3706 1288 
Q 3706 609 3251 259 
Q 2797 -91 1919 -91 
Q 1588 -91 1214 -16 
Q 841 59 441 206 
L 441 856 
Q 825 641 1194 531 
Q 1563 422 1919 422 
Q 2459 422 2753 634 
Q 3047 847 3047 1241 
Q 3047 1584 2836 1778 
Q 2625 1972 2144 2069 
L 1759 2144 
Q 1053 2284 737 2584 
Q 422 2884 422 3419 
Q 422 4038 858 4394 
Q 1294 4750 2059 4750 
Q 2388 4750 2728 4690 
Q 3069 4631 3425 4513 
z
" transform="scale(0.015625)"/>
       <path id="DejaVuSans-74" d="M 1172 4494 
L 1172 3500 
L 2356 3500 
L 2356 3053 
L 1172 3053 
L 1172 1153 
Q 1172 725 1289 603 
Q 1406 481 1766 481 
L 2356 481 
L 2356 0 
L 1766 0 
Q 1100 0 847 248 
Q 594 497 594 1153 
L 594 3053 
L 172 3053 
L 172 3500 
L 594 3500 
L 594 4494 
L 1172 4494 
z
" transform="scale(0.015625)"/>
       <path id="DejaVuSans-65" d="M 3597 1894 
L 3597 1613 
L 953 1613 
Q 991 1019 1311 708 
Q 1631 397 2203 397 
Q 2534 397 2845 478 
Q 3156 559 3463 722 
L 3463 178 
Q 3153 47 2828 -22 
Q 2503 -91 2169 -91 
Q 1331 -91 842 396 
Q 353 884 353 1716 
Q 353 2575 817 3079 
Q 1281 3584 2069 3584 
Q 2775 3584 3186 3129 
Q 3597 2675 3597 1894 
z
M 3022 2063 
Q 3016 2534 2758 2815 
Q 2500 3097 2075 3097 
Q 1594 3097 1305 2825 
Q 1016 2553 972 2059 
L 3022 2063 
z
" transform="scale(0.015625)"/>
       <path id="DejaVuSans-70" d="M 1159 525 
L 1159 -1331 
L 581 -1331 
L 581 3500 
L 1159 3500 
L 1159 2969 
Q 1341 3281 1617 3432 
Q 1894 3584 2278 3584 
Q 2916 3584 3314 3078 
Q 3713 2572 3713 1747 
Q 3713 922 3314 415 
Q 2916 -91 2278 -91 
Q 1894 -91 1617 61 
Q 1341 213 1159 525 
z
M 3116 1747 
Q 3116 2381 2855 2742 
Q 2594 3103 2138 3103 
Q 1681 3103 1420 2742 
Q 1159 2381 1159 1747 
Q 1159 1113 1420 752 
Q 1681 391 2138 391 
Q 2594 391 2855 752 
Q 3116 1113 3116 1747 
z
" transform="scale(0.015625)"/>
       <path id="DejaVuSans-73" d="M 2834 3397 
L 2834 2853 
Q 2591 2978 2328 3040 
Q 2066 3103 1784 3103 
Q 1356 3103 1142 2972 
Q 928 2841 928 2578 
Q 928 2378 1081 2264 
Q 1234 2150 1697 2047 
L 1894 2003 
Q 2506 1872 2764 1633 
Q 3022 1394 3022 966 
Q 3022 478 2636 193 
Q 2250 -91 1575 -91 
Q 1294 -91 989 -36 
Q 684 19 347 128 
L 347 722 
Q 666 556 975 473 
Q 1284 391 1588 391 
Q 1994 391 2212 530 
Q 2431 669 2431 922 
Q 2431 1156 2273 1281 
Q 2116 1406 1581 1522 
L 1381 1569 
Q 847 1681 609 1914 
Q 372 2147 372 2553 
Q 372 3047 722 3315 
Q 1072 3584 1716 3584 
Q 2034 3584 2315 3537 
Q 2597 3491 2834 3397 
z
" transform="scale(0.015625)"/>
      </defs>
      <use xlink:href="#DejaVuSans-53"/>
      <use xlink:href="#DejaVuSans-74" transform="translate(63.476562 0)"/>
      <use xlink:href="#DejaVuSans-65" transform="translate(102.685547 0)"/>
      <use xlink:href="#DejaVuSans-70" transform="translate(164.208984 0)"/>
      <use xlink:href="#DejaVuSans-73" transform="translate(227.685547 0)"/>
     </g>
    </g>
    <g id="text_11">
     <!-- 1e6 -->
     <g style="fill: #262626" transform="translate(613.326875 417.316562) scale(0.1 -0.1)">
      <defs>
       <path id="DejaVuSans-36" d="M 2113 2584 
Q 1688 2584 1439 2293 
Q 1191 2003 1191 1497 
Q 1191 994 1439 701 
Q 1688 409 2113 409 
Q 2538 409 2786 701 
Q 3034 994 3034 1497 
Q 3034 2003 2786 2293 
Q 2538 2584 2113 2584 
z
M 3366 4563 
L 3366 3988 
Q 3128 4100 2886 4159 
Q 2644 4219 2406 4219 
Q 1781 4219 1451 3797 
Q 1122 3375 1075 2522 
Q 1259 2794 1537 2939 
Q 1816 3084 2150 3084 
Q 2853 3084 3261 2657 
Q 3669 2231 3669 1497 
Q 3669 778 3244 343 
Q 2819 -91 2113 -91 
Q 1303 -91 875 529 
Q 447 1150 447 2328 
Q 447 3434 972 4092 
Q 1497 4750 2381 4750 
Q 2619 4750 2861 4703 
Q 3103 4656 3366 4563 
z
" transform="scale(0.015625)"/>
      </defs>
      <use xlink:href="#DejaVuSans-31"/>
      <use xlink:href="#DejaVuSans-65" transform="translate(63.623047 0)"/>
      <use xlink:href="#DejaVuSans-36" transform="translate(125.146484 0)"/>
     </g>
    </g>
   </g>
   <g id="matplotlib.axis_2">
    <g id="ytick_1">
     <g id="line2d_10">
      <path d="M 65.63 390.04 
L 632.205 390.04 
" clip-path="url(#p8300664216)" style="fill: none; stroke: #ffffff; stroke-width: 0.8; stroke-linecap: round"/>
     </g>
     <g id="text_12">
      <!-- −1600 -->
      <g style="fill: #262626" transform="translate(24.800313 393.839219) scale(0.1 -0.1)">
       <defs>
        <path id="DejaVuSans-2212" d="M 678 2272 
L 4684 2272 
L 4684 1741 
L 678 1741 
L 678 2272 
z
" transform="scale(0.015625)"/>
       </defs>
       <use xlink:href="#DejaVuSans-2212"/>
       <use xlink:href="#DejaVuSans-31" transform="translate(83.789062 0)"/>
       <use xlink:href="#DejaVuSans-36" transform="translate(147.412109 0)"/>
       <use xlink:href="#DejaVuSans-30" transform="translate(211.035156 0)"/>
       <use xlink:href="#DejaVuSans-30" transform="translate(274.658203 0)"/>
      </g>
     </g>
    </g>
    <g id="ytick_2">
     <g id="line2d_11">
      <path d="M 65.63 348.410775 
L 632.205 348.410775 
" clip-path="url(#p8300664216)" style="fill: none; stroke: #ffffff; stroke-width: 0.8; stroke-linecap: round"/>
     </g>
     <g id="text_13">
      <!-- −1400 -->
      <g style="fill: #262626" transform="translate(24.800313 352.209994) scale(0.1 -0.1)">
       <defs>
        <path id="DejaVuSans-34" d="M 2419 4116 
L 825 1625 
L 2419 1625 
L 2419 4116 
z
M 2253 4666 
L 3047 4666 
L 3047 1625 
L 3713 1625 
L 3713 1100 
L 3047 1100 
L 3047 0 
L 2419 0 
L 2419 1100 
L 313 1100 
L 313 1709 
L 2253 4666 
z
" transform="scale(0.015625)"/>
       </defs>
       <use xlink:href="#DejaVuSans-2212"/>
       <use xlink:href="#DejaVuSans-31" transform="translate(83.789062 0)"/>
       <use xlink:href="#DejaVuSans-34" transform="translate(147.412109 0)"/>
       <use xlink:href="#DejaVuSans-30" transform="translate(211.035156 0)"/>
       <use xlink:href="#DejaVuSans-30" transform="translate(274.658203 0)"/>
      </g>
     </g>
    </g>
    <g id="ytick_3">
     <g id="line2d_12">
      <path d="M 65.63 306.78155 
L 632.205 306.78155 
" clip-path="url(#p8300664216)" style="fill: none; stroke: #ffffff; stroke-width: 0.8; stroke-linecap: round"/>
     </g>
     <g id="text_14">
      <!-- −1200 -->
      <g style="fill: #262626" transform="translate(24.800313 310.580769) scale(0.1 -0.1)">
       <use xlink:href="#DejaVuSans-2212"/>
       <use xlink:href="#DejaVuSans-31" transform="translate(83.789062 0)"/>
       <use xlink:href="#DejaVuSans-32" transform="translate(147.412109 0)"/>
       <use xlink:href="#DejaVuSans-30" transform="translate(211.035156 0)"/>
       <use xlink:href="#DejaVuSans-30" transform="translate(274.658203 0)"/>
      </g>
     </g>
    </g>
    <g id="ytick_4">
     <g id="line2d_13">
      <path d="M 65.63 265.152325 
L 632.205 265.152325 
" clip-path="url(#p8300664216)" style="fill: none; stroke: #ffffff; stroke-width: 0.8; stroke-linecap: round"/>
     </g>
     <g id="text_15">
      <!-- −1000 -->
      <g style="fill: #262626" transform="translate(24.800313 268.951544) scale(0.1 -0.1)">
       <use xlink:href="#DejaVuSans-2212"/>
       <use xlink:href="#DejaVuSans-31" transform="translate(83.789062 0)"/>
       <use xlink:href="#DejaVuSans-30" transform="translate(147.412109 0)"/>
       <use xlink:href="#DejaVuSans-30" transform="translate(211.035156 0)"/>
       <use xlink:href="#DejaVuSans-30" transform="translate(274.658203 0)"/>
      </g>
     </g>
    </g>
    <g id="ytick_5">
     <g id="line2d_14">
      <path d="M 65.63 223.5231 
L 632.205 223.5231 
" clip-path="url(#p8300664216)" style="fill: none; stroke: #ffffff; stroke-width: 0.8; stroke-linecap: round"/>
     </g>
     <g id="text_16">
      <!-- −800 -->
      <g style="fill: #262626" transform="translate(31.162813 227.322319) scale(0.1 -0.1)">
       <defs>
        <path id="DejaVuSans-38" d="M 2034 2216 
Q 1584 2216 1326 1975 
Q 1069 1734 1069 1313 
Q 1069 891 1326 650 
Q 1584 409 2034 409 
Q 2484 409 2743 651 
Q 3003 894 3003 1313 
Q 3003 1734 2745 1975 
Q 2488 2216 2034 2216 
z
M 1403 2484 
Q 997 2584 770 2862 
Q 544 3141 544 3541 
Q 544 4100 942 4425 
Q 1341 4750 2034 4750 
Q 2731 4750 3128 4425 
Q 3525 4100 3525 3541 
Q 3525 3141 3298 2862 
Q 3072 2584 2669 2484 
Q 3125 2378 3379 2068 
Q 3634 1759 3634 1313 
Q 3634 634 3220 271 
Q 2806 -91 2034 -91 
Q 1263 -91 848 271 
Q 434 634 434 1313 
Q 434 1759 690 2068 
Q 947 2378 1403 2484 
z
M 1172 3481 
Q 1172 3119 1398 2916 
Q 1625 2713 2034 2713 
Q 2441 2713 2670 2916 
Q 2900 3119 2900 3481 
Q 2900 3844 2670 4047 
Q 2441 4250 2034 4250 
Q 1625 4250 1398 4047 
Q 1172 3844 1172 3481 
z
" transform="scale(0.015625)"/>
       </defs>
       <use xlink:href="#DejaVuSans-2212"/>
       <use xlink:href="#DejaVuSans-38" transform="translate(83.789062 0)"/>
       <use xlink:href="#DejaVuSans-30" transform="translate(147.412109 0)"/>
       <use xlink:href="#DejaVuSans-30" transform="translate(211.035156 0)"/>
      </g>
     </g>
    </g>
    <g id="ytick_6">
     <g id="line2d_15">
      <path d="M 65.63 181.893875 
L 632.205 181.893875 
" clip-path="url(#p8300664216)" style="fill: none; stroke: #ffffff; stroke-width: 0.8; stroke-linecap: round"/>
     </g>
     <g id="text_17">
      <!-- −600 -->
      <g style="fill: #262626" transform="translate(31.162813 185.693094) scale(0.1 -0.1)">
       <use xlink:href="#DejaVuSans-2212"/>
       <use xlink:href="#DejaVuSans-36" transform="translate(83.789062 0)"/>
       <use xlink:href="#DejaVuSans-30" transform="translate(147.412109 0)"/>
       <use xlink:href="#DejaVuSans-30" transform="translate(211.035156 0)"/>
      </g>
     </g>
    </g>
    <g id="ytick_7">
     <g id="line2d_16">
      <path d="M 65.63 140.26465 
L 632.205 140.26465 
" clip-path="url(#p8300664216)" style="fill: none; stroke: #ffffff; stroke-width: 0.8; stroke-linecap: round"/>
     </g>
     <g id="text_18">
      <!-- −400 -->
      <g style="fill: #262626" transform="translate(31.162813 144.063869) scale(0.1 -0.1)">
       <use xlink:href="#DejaVuSans-2212"/>
       <use xlink:href="#DejaVuSans-34" transform="translate(83.789062 0)"/>
       <use xlink:href="#DejaVuSans-30" transform="translate(147.412109 0)"/>
       <use xlink:href="#DejaVuSans-30" transform="translate(211.035156 0)"/>
      </g>
     </g>
    </g>
    <g id="ytick_8">
     <g id="line2d_17">
      <path d="M 65.63 98.635425 
L 632.205 98.635425 
" clip-path="url(#p8300664216)" style="fill: none; stroke: #ffffff; stroke-width: 0.8; stroke-linecap: round"/>
     </g>
     <g id="text_19">
      <!-- −200 -->
      <g style="fill: #262626" transform="translate(31.162813 102.434644) scale(0.1 -0.1)">
       <use xlink:href="#DejaVuSans-2212"/>
       <use xlink:href="#DejaVuSans-32" transform="translate(83.789062 0)"/>
       <use xlink:href="#DejaVuSans-30" transform="translate(147.412109 0)"/>
       <use xlink:href="#DejaVuSans-30" transform="translate(211.035156 0)"/>
      </g>
     </g>
    </g>
    <g id="ytick_9">
     <g id="line2d_18">
      <path d="M 65.63 57.0062 
L 632.205 57.0062 
" clip-path="url(#p8300664216)" style="fill: none; stroke: #ffffff; stroke-width: 0.8; stroke-linecap: round"/>
     </g>
     <g id="text_20">
      <!-- 0 -->
      <g style="fill: #262626" transform="translate(52.2675 60.805419) scale(0.1 -0.1)">
       <use xlink:href="#DejaVuSans-30"/>
      </g>
     </g>
    </g>
    <g id="text_21">
     <!-- Reward -->
     <g style="fill: #262626" transform="translate(18.720625 242.144194) rotate(-90) scale(0.1 -0.1)">
      <defs>
       <path id="DejaVuSans-52" d="M 2841 2188 
Q 3044 2119 3236 1894 
Q 3428 1669 3622 1275 
L 4263 0 
L 3584 0 
L 2988 1197 
Q 2756 1666 2539 1819 
Q 2322 1972 1947 1972 
L 1259 1972 
L 1259 0 
L 628 0 
L 628 4666 
L 2053 4666 
Q 2853 4666 3247 4331 
Q 3641 3997 3641 3322 
Q 3641 2881 3436 2590 
Q 3231 2300 2841 2188 
z
M 1259 4147 
L 1259 2491 
L 2053 2491 
Q 2509 2491 2742 2702 
Q 2975 2913 2975 3322 
Q 2975 3731 2742 3939 
Q 2509 4147 2053 4147 
L 1259 4147 
z
" transform="scale(0.015625)"/>
       <path id="DejaVuSans-77" d="M 269 3500 
L 844 3500 
L 1563 769 
L 2278 3500 
L 2956 3500 
L 3675 769 
L 4391 3500 
L 4966 3500 
L 4050 0 
L 3372 0 
L 2619 2869 
L 1863 0 
L 1184 0 
L 269 3500 
z
" transform="scale(0.015625)"/>
       <path id="DejaVuSans-61" d="M 2194 1759 
Q 1497 1759 1228 1600 
Q 959 1441 959 1056 
Q 959 750 1161 570 
Q 1363 391 1709 391 
Q 2188 391 2477 730 
Q 2766 1069 2766 1631 
L 2766 1759 
L 2194 1759 
z
M 3341 1997 
L 3341 0 
L 2766 0 
L 2766 531 
Q 2569 213 2275 61 
Q 1981 -91 1556 -91 
Q 1019 -91 701 211 
Q 384 513 384 1019 
Q 384 1609 779 1909 
Q 1175 2209 1959 2209 
L 2766 2209 
L 2766 2266 
Q 2766 2663 2505 2880 
Q 2244 3097 1772 3097 
Q 1472 3097 1187 3025 
Q 903 2953 641 2809 
L 641 3341 
Q 956 3463 1253 3523 
Q 1550 3584 1831 3584 
Q 2591 3584 2966 3190 
Q 3341 2797 3341 1997 
z
" transform="scale(0.015625)"/>
       <path id="DejaVuSans-72" d="M 2631 2963 
Q 2534 3019 2420 3045 
Q 2306 3072 2169 3072 
Q 1681 3072 1420 2755 
Q 1159 2438 1159 1844 
L 1159 0 
L 581 0 
L 581 3500 
L 1159 3500 
L 1159 2956 
Q 1341 3275 1631 3429 
Q 1922 3584 2338 3584 
Q 2397 3584 2469 3576 
Q 2541 3569 2628 3553 
L 2631 2963 
z
" transform="scale(0.015625)"/>
       <path id="DejaVuSans-64" d="M 2906 2969 
L 2906 4863 
L 3481 4863 
L 3481 0 
L 2906 0 
L 2906 525 
Q 2725 213 2448 61 
Q 2172 -91 1784 -91 
Q 1150 -91 751 415 
Q 353 922 353 1747 
Q 353 2572 751 3078 
Q 1150 3584 1784 3584 
Q 2172 3584 2448 3432 
Q 2725 3281 2906 2969 
z
M 947 1747 
Q 947 1113 1208 752 
Q 1469 391 1925 391 
Q 2381 391 2643 752 
Q 2906 1113 2906 1747 
Q 2906 2381 2643 2742 
Q 2381 3103 1925 3103 
Q 1469 3103 1208 2742 
Q 947 2381 947 1747 
z
" transform="scale(0.015625)"/>
      </defs>
      <use xlink:href="#DejaVuSans-52"/>
      <use xlink:href="#DejaVuSans-65" transform="translate(64.982422 0)"/>
      <use xlink:href="#DejaVuSans-77" transform="translate(126.505859 0)"/>
      <use xlink:href="#DejaVuSans-61" transform="translate(208.292969 0)"/>
      <use xlink:href="#DejaVuSans-72" transform="translate(269.572266 0)"/>
      <use xlink:href="#DejaVuSans-64" transform="translate(308.935547 0)"/>
     </g>
    </g>
   </g>
   <g id="FillBetweenPolyCollection_1">
    <path d="M 65.63083 299.625964 
L 65.63083 321.700041 
L 71.296563 311.457042 
L 76.962297 320.08961 
L 82.62803 298.200849 
L 88.293764 309.720959 
L 93.959497 313.586222 
L 99.62523 297.661224 
L 105.290964 297.610737 
L 110.956697 278.586599 
L 116.622431 291.247654 
L 122.288164 282.410327 
L 127.953897 271.354126 
L 133.619631 273.843707 
L 139.285364 266.021355 
L 144.951098 260.229956 
L 150.616831 259.889595 
L 156.282564 232.49599 
L 161.948298 223.9711 
L 167.614031 223.070958 
L 173.279765 204.635727 
L 178.945498 188.45841 
L 184.611231 169.547027 
L 190.276965 143.713684 
L 195.942698 133.765557 
L 201.608432 130.557857 
L 207.274165 122.17809 
L 212.939898 118.007363 
L 218.605632 119.550209 
L 224.271365 110.52536 
L 229.937099 102.708331 
L 235.602832 106.516993 
L 241.268565 105.982068 
L 246.934299 110.672091 
L 252.600032 118.241692 
L 258.265766 118.582069 
L 263.931499 121.426669 
L 269.597232 103.946398 
L 275.262966 105.341934 
L 280.928699 108.323377 
L 286.594433 106.940571 
L 292.260166 105.292348 
L 297.925899 122.031818 
L 303.591633 98.97098 
L 309.257366 105.71764 
L 314.9231 104.478771 
L 320.588833 107.734253 
L 326.254566 106.913069 
L 331.9203 98.299636 
L 337.586033 94.073793 
L 343.251767 96.433999 
L 348.9175 96.801645 
L 354.583233 91.286661 
L 360.248967 101.381309 
L 365.9147 104.193996 
L 371.580434 97.393763 
L 377.246167 94.857722 
L 382.9119 101.050838 
L 388.577634 95.85131 
L 394.243367 93.451878 
L 399.909101 93.489229 
L 405.574834 102.097741 
L 411.240567 92.666934 
L 416.906301 95.845634 
L 422.572034 94.460837 
L 428.237768 93.405449 
L 433.903501 93.90021 
L 439.569234 96.156108 
L 445.234968 90.392035 
L 450.900701 92.979673 
L 456.566435 99.259869 
L 462.232168 88.012287 
L 467.897901 91.219507 
L 473.563635 98.959785 
L 479.229368 91.46104 
L 484.895102 90.614765 
L 490.560835 94.972308 
L 496.226568 91.902409 
L 501.892302 92.791741 
L 507.558035 90.771196 
L 513.223769 92.435559 
L 518.889502 90.432071 
L 524.555235 92.956686 
L 530.220969 90.53849 
L 535.886702 91.563564 
L 541.552436 92.332949 
L 547.218169 94.594947 
L 552.883902 90.361098 
L 558.549636 89.187697 
L 564.215369 90.805184 
L 569.881103 92.740622 
L 575.546836 91.568231 
L 581.212569 89.454168 
L 586.878303 92.245744 
L 592.544036 93.539136 
L 598.20977 91.941137 
L 603.875503 87.857404 
L 609.541236 92.352003 
L 615.20697 88.875262 
L 620.872703 91.541631 
L 626.538437 90.18562 
L 626.538437 85.298393 
L 626.538437 85.298393 
L 620.872703 85.12396 
L 615.20697 83.846009 
L 609.541236 84.199662 
L 603.875503 82.661554 
L 598.20977 85.460665 
L 592.544036 86.215377 
L 586.878303 85.264905 
L 581.212569 85.437036 
L 575.546836 86.662621 
L 569.881103 88.560787 
L 564.215369 86.16884 
L 558.549636 84.257816 
L 552.883902 84.673415 
L 547.218169 87.048017 
L 541.552436 84.105469 
L 535.886702 89.157093 
L 530.220969 86.302171 
L 524.555235 81.253746 
L 518.889502 84.166629 
L 513.223769 84.092317 
L 507.558035 83.961064 
L 501.892302 82.556652 
L 496.226568 86.981258 
L 490.560835 82.435785 
L 484.895102 85.87646 
L 479.229368 82.521977 
L 473.563635 88.776015 
L 467.897901 87.690148 
L 462.232168 85.178618 
L 456.566435 86.129844 
L 450.900701 88.454711 
L 445.234968 87.511716 
L 439.569234 87.619554 
L 433.903501 85.453785 
L 428.237768 86.752017 
L 422.572034 89.124774 
L 416.906301 88.385082 
L 411.240567 88.405839 
L 405.574834 85.236121 
L 399.909101 84.159544 
L 394.243367 89.603512 
L 388.577634 90.744305 
L 382.9119 86.541053 
L 377.246167 88.085133 
L 371.580434 90.085689 
L 365.9147 86.530973 
L 360.248967 88.810971 
L 354.583233 88.183098 
L 348.9175 85.635197 
L 343.251767 83.354822 
L 337.586033 86.823629 
L 331.9203 88.988394 
L 326.254566 88.33224 
L 320.588833 90.034366 
L 314.9231 96.396363 
L 309.257366 84.095573 
L 303.591633 91.63401 
L 297.925899 96.343441 
L 292.260166 94.104496 
L 286.594433 92.011145 
L 280.928699 90.187968 
L 275.262966 93.29704 
L 269.597232 91.919676 
L 263.931499 91.922686 
L 258.265766 87.814668 
L 252.600032 93.160617 
L 246.934299 90.946127 
L 241.268565 95.703742 
L 235.602832 92.789547 
L 229.937099 99.207727 
L 224.271365 97.844861 
L 218.605632 101.868014 
L 212.939898 101.950679 
L 207.274165 103.648913 
L 201.608432 109.256822 
L 195.942698 101.931897 
L 190.276965 104.693153 
L 184.611231 112.453902 
L 178.945498 112.065207 
L 173.279765 106.80397 
L 167.614031 116.682246 
L 161.948298 140.899553 
L 156.282564 148.642056 
L 150.616831 184.087841 
L 144.951098 187.329329 
L 139.285364 204.023584 
L 133.619631 215.335202 
L 127.953897 233.780045 
L 122.288164 243.346097 
L 116.622431 264.988032 
L 110.956697 256.962018 
L 105.290964 269.598067 
L 99.62523 273.104505 
L 93.959497 279.018673 
L 88.293764 291.698729 
L 82.62803 284.733365 
L 76.962297 292.530572 
L 71.296563 292.411053 
L 65.63083 299.625964 
z
" clip-path="url(#p8300664216)" style="fill: #0000ff; fill-opacity: 0.1"/>
   </g>
   <g id="line2d_19">
    <path d="M 65.63083 310.663002 
L 71.296563 301.934047 
L 76.962297 306.310091 
L 82.62803 291.467107 
L 88.293764 300.709844 
L 93.959497 296.302447 
L 99.62523 285.382864 
L 105.290964 283.604402 
L 110.956697 267.774309 
L 116.622431 278.117843 
L 122.288164 262.878212 
L 127.953897 252.567085 
L 133.619631 244.589455 
L 139.285364 235.02247 
L 144.951098 223.779642 
L 150.616831 221.988718 
L 156.282564 190.569023 
L 161.948298 182.435326 
L 167.614031 169.876602 
L 173.279765 155.719849 
L 178.945498 150.261809 
L 184.611231 141.000464 
L 190.276965 124.203418 
L 195.942698 117.848727 
L 201.608432 119.907339 
L 207.274165 112.913502 
L 212.939898 109.979021 
L 218.605632 110.709111 
L 224.271365 104.18511 
L 229.937099 100.958029 
L 235.602832 99.65327 
L 241.268565 100.842905 
L 246.934299 100.809109 
L 252.600032 105.701155 
L 258.265766 103.198369 
L 263.931499 106.674678 
L 269.597232 97.933037 
L 275.262966 99.319487 
L 280.928699 99.255673 
L 286.594433 99.475858 
L 292.260166 99.698422 
L 297.925899 109.18763 
L 303.591633 95.302495 
L 309.257366 94.906607 
L 314.9231 100.437567 
L 320.588833 98.88431 
L 326.254566 97.622654 
L 331.9203 93.644015 
L 337.586033 90.448711 
L 343.251767 89.89441 
L 348.9175 91.218421 
L 354.583233 89.734879 
L 360.248967 95.09614 
L 365.9147 95.362485 
L 371.580434 93.739726 
L 377.246167 91.471428 
L 382.9119 93.795945 
L 388.577634 93.297807 
L 394.243367 91.527695 
L 399.909101 88.824387 
L 405.574834 93.666931 
L 411.240567 90.536386 
L 416.906301 92.115358 
L 422.572034 91.792805 
L 428.237768 90.078733 
L 433.903501 89.676997 
L 439.569234 91.887831 
L 445.234968 88.951875 
L 450.900701 90.717192 
L 456.566435 92.694856 
L 462.232168 86.595453 
L 467.897901 89.454827 
L 473.563635 93.8679 
L 479.229368 86.991508 
L 484.895102 88.245613 
L 490.560835 88.704047 
L 496.226568 89.441833 
L 501.892302 87.674197 
L 507.558035 87.36613 
L 513.223769 88.263938 
L 518.889502 87.29935 
L 524.555235 87.105216 
L 530.220969 88.420331 
L 535.886702 90.360328 
L 541.552436 88.219209 
L 547.218169 90.821482 
L 552.883902 87.517257 
L 558.549636 86.722757 
L 564.215369 88.487012 
L 569.881103 90.650705 
L 575.546836 89.115426 
L 581.212569 87.445602 
L 586.878303 88.755325 
L 592.544036 89.877256 
L 598.20977 88.700901 
L 603.875503 85.259479 
L 609.541236 88.275833 
L 615.20697 86.360636 
L 620.872703 88.332795 
L 626.538437 87.742006 
" clip-path="url(#p8300664216)" style="fill: none; stroke: #0000ff; stroke-width: 1.5; stroke-linecap: round"/>
   </g>
   <g id="line2d_20">
    <path d="M 65.63083 316.877196 
L 71.296563 315.26657 
L 76.962297 290.097518 
L 82.62803 281.811621 
L 88.293764 303.939474 
L 93.959497 297.423698 
L 99.62523 304.387087 
L 105.290964 301.775083 
L 110.956697 272.716657 
L 116.622431 296.291936 
L 122.288164 283.929148 
L 127.953897 273.264266 
L 133.619631 270.834696 
L 139.285364 272.927241 
L 144.951098 260.810985 
L 150.616831 237.517181 
L 156.282564 229.988478 
L 161.948298 211.463782 
L 167.614031 223.883782 
L 173.279765 181.703848 
L 178.945498 165.408152 
L 184.611231 150.785321 
L 190.276965 132.688495 
L 195.942698 141.877272 
L 201.608432 132.072175 
L 207.274165 117.691864 
L 212.939898 114.338303 
L 218.605632 125.238396 
L 224.271365 108.601863 
L 229.937099 101.171487 
L 235.602832 102.820482 
L 241.268565 106.839793 
L 246.934299 116.415257 
L 252.600032 110.535644 
L 258.265766 132.697097 
L 263.931499 133.320186 
L 269.597232 108.73005 
L 275.262966 101.52556 
L 280.928699 96.959593 
L 286.594433 105.202637 
L 292.260166 96.282257 
L 297.925899 101.417276 
L 303.591633 93.864433 
L 309.257366 93.382547 
L 314.9231 106.411365 
L 320.588833 116.336776 
L 326.254566 97.537535 
L 331.9203 89.240995 
L 337.586033 96.915203 
L 343.251767 99.672379 
L 348.9175 82.66171 
L 354.583233 87.065092 
L 360.248967 104.662156 
L 365.9147 110.702832 
L 371.580434 100.746813 
L 377.246167 86.481681 
L 382.9119 92.560089 
L 388.577634 94.027676 
L 394.243367 90.5569 
L 399.909101 84.51842 
L 405.574834 85.208072 
L 411.240567 87.206231 
L 416.906301 86.387162 
L 422.572034 91.506112 
L 428.237768 94.651112 
L 433.903501 88.516604 
L 439.569234 95.320846 
L 445.234968 90.119809 
L 450.900701 92.241966 
L 456.566435 90.483154 
L 462.232168 84.338009 
L 467.897901 90.923842 
L 473.563635 100.785934 
L 479.229368 86.412754 
L 484.895102 89.778728 
L 490.560835 88.161004 
L 496.226568 86.514217 
L 501.892302 81.504334 
L 507.558035 87.679131 
L 513.223769 84.310179 
L 518.889502 84.824677 
L 524.555235 81.764353 
L 530.220969 85.925922 
L 535.886702 92.218896 
L 541.552436 86.770984 
L 547.218169 85.819436 
L 552.883902 89.924622 
L 558.549636 83.642775 
L 564.215369 89.992906 
L 569.881103 90.202228 
L 575.546836 91.11864 
L 581.212569 85.340185 
L 586.878303 87.94315 
L 592.544036 88.115122 
L 598.20977 87.471285 
L 603.875503 85.307435 
L 609.541236 85.317255 
L 615.20697 83.431958 
L 620.872703 85.961619 
L 626.538437 85.659646 
" clip-path="url(#p8300664216)" style="fill: none; stroke: #008000; stroke-opacity: 0.2; stroke-linecap: round"/>
   </g>
   <g id="line2d_21">
    <path d="M 65.63083 292.326227 
L 71.296563 289.996564 
L 76.962297 294.438442 
L 82.62803 285.716235 
L 88.293764 310.578552 
L 93.959497 313.072481 
L 99.62523 292.305197 
L 105.290964 276.341259 
L 110.956697 263.032646 
L 116.622431 269.189359 
L 122.288164 237.065858 
L 127.953897 228.363845 
L 133.619631 213.955731 
L 139.285364 217.444608 
L 144.951098 193.75982 
L 150.616831 171.970893 
L 156.282564 161.183904 
L 161.948298 153.186082 
L 167.614031 133.400217 
L 173.279765 131.683741 
L 178.945498 127.224165 
L 184.611231 131.409829 
L 190.276965 107.718843 
L 195.942698 115.525875 
L 201.608432 126.592224 
L 207.274165 115.752122 
L 212.939898 122.781416 
L 218.605632 113.346017 
L 224.271365 106.208893 
L 229.937099 101.836167 
L 235.602832 101.516259 
L 241.268565 101.216291 
L 246.934299 93.593902 
L 252.600032 104.16547 
L 258.265766 90.513247 
L 263.931499 96.689095 
L 269.597232 99.877587 
L 275.262966 107.961245 
L 280.928699 116.537546 
L 286.594433 101.96831 
L 292.260166 94.706311 
L 297.925899 127.071043 
L 303.591633 92.749214 
L 309.257366 93.452799 
L 314.9231 96.223336 
L 320.588833 96.628227 
L 326.254566 113.214946 
L 331.9203 97.594844 
L 337.586033 85.670739 
L 343.251767 81.452002 
L 348.9175 92.399286 
L 354.583233 89.884319 
L 360.248967 85.477351 
L 365.9147 95.942594 
L 371.580434 90.338257 
L 377.246167 89.978326 
L 382.9119 86.254682 
L 388.577634 91.049198 
L 394.243367 91.038861 
L 399.909101 82.104653 
L 405.574834 108.795229 
L 411.240567 91.659592 
L 416.906301 90.736656 
L 422.572034 88.360939 
L 428.237768 88.686652 
L 433.903501 86.364798 
L 439.569234 98.576483 
L 445.234968 90.624963 
L 450.900701 93.492513 
L 456.566435 102.761684 
L 462.232168 88.673792 
L 467.897901 86.650641 
L 473.563635 89.8223 
L 479.229368 81.809377 
L 484.895102 90.517925 
L 490.560835 96.767096 
L 496.226568 93.676122 
L 501.892302 94.567514 
L 507.558035 90.723533 
L 513.223769 94.471812 
L 518.889502 83.475916 
L 524.555235 82.253865 
L 530.220969 89.864651 
L 535.886702 89.187182 
L 541.552436 85.346791 
L 547.218169 91.708016 
L 552.883902 86.630832 
L 558.549636 85.32228 
L 564.215369 87.102007 
L 569.881103 90.807022 
L 575.546836 86.0422 
L 581.212569 87.181655 
L 586.878303 87.595725 
L 592.544036 93.800175 
L 598.20977 89.084607 
L 603.875503 86.059263 
L 609.541236 86.401963 
L 615.20697 89.329358 
L 620.872703 84.221673 
L 626.538437 85.028586 
" clip-path="url(#p8300664216)" style="fill: none; stroke: #008000; stroke-opacity: 0.2; stroke-linecap: round"/>
   </g>
   <g id="line2d_22">
    <path d="M 65.63083 325.319246 
L 71.296563 310.237227 
L 76.962297 311.287075 
L 82.62803 297.968721 
L 88.293764 308.114051 
L 93.959497 309.597519 
L 99.62523 281.847673 
L 105.290964 269.044999 
L 110.956697 257.641904 
L 116.622431 265.593647 
L 122.288164 262.266983 
L 127.953897 263.047392 
L 133.619631 231.655715 
L 139.285364 203.807401 
L 144.951098 193.583945 
L 150.616831 215.39654 
L 156.282564 172.097557 
L 161.948298 161.843174 
L 167.614031 133.795163 
L 173.279765 108.280675 
L 178.945498 131.721985 
L 184.611231 132.480782 
L 190.276965 116.459433 
L 195.942698 109.108048 
L 201.608432 113.767999 
L 207.274165 104.021187 
L 212.939898 101.233585 
L 218.605632 102.912331 
L 224.271365 92.587944 
L 229.937099 103.655814 
L 235.602832 109.592751 
L 241.268565 106.018093 
L 246.934299 95.750366 
L 252.600032 94.315861 
L 258.265766 103.616958 
L 263.931499 104.479446 
L 269.597232 92.932381 
L 275.262966 90.742034 
L 280.928699 90.568888 
L 286.594433 98.224884 
L 292.260166 98.713783 
L 297.925899 96.773489 
L 303.591633 91.791027 
L 309.257366 82.18947 
L 314.9231 100.068122 
L 320.588833 93.297469 
L 326.254566 87.296569 
L 331.9203 92.992588 
L 337.586033 90.149751 
L 343.251767 84.624386 
L 348.9175 96.883907 
L 354.583233 90.374854 
L 360.248967 93.595908 
L 365.9147 95.604107 
L 371.580434 91.6647 
L 377.246167 95.03082 
L 382.9119 91.087087 
L 388.577634 93.100477 
L 394.243367 95.285413 
L 399.909101 90.753428 
L 405.574834 86.343022 
L 411.240567 92.194502 
L 416.906301 91.46937 
L 422.572034 91.307564 
L 428.237768 91.61559 
L 433.903501 91.119156 
L 439.569234 88.176849 
L 445.234968 89.52787 
L 450.900701 89.041129 
L 456.566435 83.865525 
L 462.232168 86.156005 
L 467.897901 89.6633 
L 473.563635 90.63483 
L 479.229368 86.547144 
L 484.895102 87.720215 
L 490.560835 94.343239 
L 496.226568 87.72834 
L 501.892302 85.543823 
L 507.558035 91.019456 
L 513.223769 83.041883 
L 518.889502 86.833932 
L 524.555235 97.806419 
L 530.220969 91.787324 
L 535.886702 89.788893 
L 541.552436 86.917384 
L 547.218169 87.118168 
L 552.883902 90.582179 
L 558.549636 89.862732 
L 564.215369 84.841271 
L 569.881103 91.060237 
L 575.546836 92.730875 
L 581.212569 88.660187 
L 586.878303 95.156723 
L 592.544036 87.588579 
L 598.20977 94.67824 
L 603.875503 80.386236 
L 609.541236 83.41568 
L 615.20697 89.413011 
L 620.872703 87.814398 
L 626.538437 87.350159 
" clip-path="url(#p8300664216)" style="fill: none; stroke: #008000; stroke-opacity: 0.2; stroke-linecap: round"/>
   </g>
   <g id="line2d_23">
    <path d="M 65.63083 306.549033 
L 71.296563 294.151772 
L 76.962297 329.1298 
L 82.62803 298.960636 
L 88.293764 286.385512 
L 93.959497 264.154818 
L 99.62523 267.802545 
L 105.290964 271.658698 
L 110.956697 258.854333 
L 116.622431 267.721478 
L 122.288164 245.77449 
L 127.953897 231.523803 
L 133.619631 219.085471 
L 139.285364 208.644819 
L 144.951098 195.433756 
L 150.616831 200.385907 
L 156.282564 140.037306 
L 161.948298 136.773505 
L 167.614031 114.240592 
L 173.279765 117.532291 
L 178.945498 109.432343 
L 184.611231 101.691562 
L 190.276965 105.84906 
L 195.942698 95.187291 
L 201.608432 102.237816 
L 207.274165 100.933996 
L 212.939898 102.064992 
L 218.605632 100.189643 
L 224.271365 102.9163 
L 229.937099 99.21056 
L 235.602832 89.800674 
L 241.268565 96.193009 
L 246.934299 90.208853 
L 252.600032 127.03998 
L 258.265766 93.249139 
L 263.931499 108.634137 
L 269.597232 95.717642 
L 275.262966 94.602917 
L 280.928699 93.668731 
L 286.594433 106.329964 
L 292.260166 98.27991 
L 297.925899 98.339991 
L 303.591633 96.035195 
L 309.257366 90.607838 
L 314.9231 103.424078 
L 320.588833 92.572124 
L 326.254566 100.879431 
L 331.9203 88.181464 
L 337.586033 89.812061 
L 343.251767 89.470517 
L 348.9175 96.956726 
L 354.583233 89.510469 
L 360.248967 98.112104 
L 365.9147 90.720224 
L 371.580434 93.528315 
L 377.246167 90.357745 
L 382.9119 91.431296 
L 388.577634 90.585021 
L 394.243367 90.912479 
L 399.909101 93.449594 
L 405.574834 93.245412 
L 411.240567 92.74014 
L 416.906301 97.473493 
L 422.572034 91.187249 
L 428.237768 90.802604 
L 433.903501 97.116269 
L 439.569234 88.33075 
L 445.234968 87.10692 
L 450.900701 87.247075 
L 456.566435 89.255596 
L 462.232168 86.560394 
L 467.897901 91.578756 
L 473.563635 99.287142 
L 479.229368 95.253789 
L 484.895102 89.334627 
L 490.560835 84.650818 
L 496.226568 89.031563 
L 501.892302 92.840452 
L 507.558035 85.498274 
L 513.223769 90.51211 
L 518.889502 89.062809 
L 524.555235 85.351921 
L 530.220969 87.490128 
L 535.886702 89.284684 
L 541.552436 96.357981 
L 547.218169 93.986843 
L 552.883902 87.865084 
L 558.549636 89.41465 
L 564.215369 88.988499 
L 569.881103 87.317983 
L 575.546836 88.238055 
L 581.212569 90.62369 
L 586.878303 84.525302 
L 592.544036 85.287916 
L 598.20977 85.149767 
L 603.875503 86.480623 
L 609.541236 93.451469 
L 615.20697 85.067142 
L 620.872703 90.386468 
L 626.538437 88.82783 
" clip-path="url(#p8300664216)" style="fill: none; stroke: #008000; stroke-opacity: 0.2; stroke-linecap: round"/>
   </g>
   <g id="line2d_24">
    <path d="M 65.63083 312.243309 
L 71.296563 300.018102 
L 76.962297 306.597621 
L 82.62803 292.87832 
L 88.293764 294.531633 
L 93.959497 297.263722 
L 99.62523 280.571819 
L 105.290964 299.201971 
L 110.956697 286.626003 
L 116.622431 291.792796 
L 122.288164 285.354581 
L 127.953897 266.636121 
L 133.619631 287.41566 
L 139.285364 272.28828 
L 144.951098 275.309705 
L 150.616831 284.673071 
L 156.282564 249.537869 
L 161.948298 248.910089 
L 167.614031 244.063256 
L 173.279765 239.398689 
L 178.945498 217.522397 
L 184.611231 188.634828 
L 190.276965 158.30126 
L 195.942698 127.545151 
L 201.608432 124.866484 
L 207.274165 126.168338 
L 212.939898 109.476809 
L 218.605632 111.859169 
L 224.271365 110.61055 
L 229.937099 98.916117 
L 235.602832 94.536182 
L 241.268565 93.947341 
L 246.934299 108.077168 
L 252.600032 92.448818 
L 258.265766 95.915402 
L 263.931499 90.250524 
L 269.597232 92.407526 
L 275.262966 101.76568 
L 280.928699 98.543606 
L 286.594433 85.653497 
L 292.260166 110.50985 
L 297.925899 122.33635 
L 303.591633 102.072605 
L 309.257366 114.900379 
L 314.9231 96.060935 
L 320.588833 95.586952 
L 326.254566 89.184789 
L 331.9203 100.210184 
L 337.586033 89.6958 
L 343.251767 94.252769 
L 348.9175 87.190477 
L 354.583233 91.839661 
L 360.248967 93.63318 
L 365.9147 83.842667 
L 371.580434 92.420547 
L 377.246167 95.508565 
L 382.9119 107.646572 
L 388.577634 97.726665 
L 394.243367 89.844821 
L 399.909101 93.295839 
L 405.574834 94.742922 
L 411.240567 88.881468 
L 416.906301 94.51011 
L 422.572034 96.602162 
L 428.237768 84.637708 
L 433.903501 85.26816 
L 439.569234 89.034225 
L 445.234968 87.379814 
L 450.900701 91.563278 
L 456.566435 97.108322 
L 462.232168 87.249064 
L 467.897901 88.457597 
L 473.563635 88.809294 
L 479.229368 84.934476 
L 484.895102 83.876567 
L 490.560835 79.598075 
L 496.226568 90.258925 
L 501.892302 83.914861 
L 507.558035 81.910255 
L 513.223769 88.983705 
L 518.889502 92.299415 
L 524.555235 88.349523 
L 530.220969 87.033627 
L 535.886702 91.321985 
L 541.552436 85.702907 
L 547.218169 95.474947 
L 552.883902 82.583568 
L 558.549636 85.371346 
L 564.215369 91.510376 
L 569.881103 93.866053 
L 575.546836 87.447361 
L 581.212569 85.422292 
L 586.878303 88.555724 
L 592.544036 94.59449 
L 598.20977 87.120606 
L 603.875503 88.063837 
L 609.541236 92.792797 
L 615.20697 84.561708 
L 620.872703 93.279818 
L 626.538437 91.84381 
" clip-path="url(#p8300664216)" style="fill: none; stroke: #008000; stroke-opacity: 0.2; stroke-linecap: round"/>
   </g>
   <g id="line2d_25">
    <path d="M 65.63083 57.0062 
L 71.296563 62.413515 
L 76.962297 77.18534 
L 82.62803 99.183448 
L 88.293764 116.681689 
L 93.959497 141.138955 
L 99.62523 171.6994 
L 105.290964 204.050141 
L 110.956697 239.786925 
L 116.622431 269.205573 
L 122.288164 306.314197 
L 127.953897 325.361297 
L 133.619631 355.906963 
L 139.285364 376.65244 
L 144.951098 381.803985 
L 150.616831 384.163661 
L 156.282564 381.721987 
L 161.948298 390.04 
L 167.614031 379.289789 
L 173.279765 375.540063 
L 178.945498 358.233094 
L 184.611231 356.914238 
L 190.276965 327.520043 
L 195.942698 319.494551 
L 201.608432 332.925118 
L 207.274165 305.908798 
L 212.939898 293.012415 
L 218.605632 301.958161 
L 224.271365 287.077235 
L 229.937099 274.540954 
L 235.602832 283.632128 
L 241.268565 277.505231 
L 246.934299 276.940432 
L 252.600032 294.472461 
L 258.265766 291.304893 
L 263.931499 291.673372 
L 269.597232 283.653599 
L 275.262966 281.876775 
L 280.928699 274.091346 
L 286.594433 287.762462 
L 292.260166 273.763019 
L 297.925899 286.560447 
L 303.591633 255.129652 
L 309.257366 255.906414 
L 314.9231 252.236807 
L 320.588833 250.96441 
L 326.254566 238.06804 
L 331.9203 241.053269 
L 337.586033 222.416497 
L 343.251767 230.106556 
L 348.9175 231.029089 
L 354.583233 232.635701 
L 360.248967 225.431811 
L 365.9147 230.352638 
L 371.580434 231.863451 
L 377.246167 222.378292 
L 382.9119 217.776343 
L 388.577634 222.170876 
L 394.243367 213.689373 
L 399.909101 207.191275 
L 405.574834 220.049488 
L 411.240567 215.277633 
L 416.906301 210.302659 
L 422.572034 204.891603 
L 428.237768 206.136944 
L 433.903501 198.370572 
L 439.569234 194.944847 
L 445.234968 194.600837 
L 450.900701 201.624667 
L 456.566435 208.033202 
L 462.232168 191.530253 
L 467.897901 199.101457 
L 473.563635 209.971909 
L 479.229368 191.325065 
L 484.895102 193.618143 
L 490.560835 189.658923 
L 496.226568 196.408933 
L 501.892302 187.280978 
L 507.558035 183.988939 
L 513.223769 188.520302 
L 518.889502 188.925789 
L 524.555235 188.548945 
L 530.220969 192.836874 
L 535.886702 196.789046 
L 541.552436 187.658865 
L 547.218169 198.963722 
L 552.883902 186.600505 
L 558.549636 185.321835 
L 564.215369 187.458739 
L 569.881103 194.763281 
L 575.546836 190.421385 
L 581.212569 189.519044 
L 586.878303 192.388242 
L 592.544036 197.890541 
L 598.20977 195.967447 
L 603.875503 186.736416 
L 609.541236 189.645376 
L 615.20697 186.226638 
L 620.872703 193.90025 
L 626.538437 194.391427 
" clip-path="url(#p8300664216)" style="fill: none; stroke: #7b3ab8; stroke-linecap: round"/>
   </g>
   <g id="patch_3">
    <path d="M 65.63 390.04 
L 65.63 57.0062 
" style="fill: none; stroke: #ffffff; stroke-width: 0.8; stroke-linejoin: miter; stroke-linecap: square"/>
   </g>
   <g id="patch_4">
    <path d="M 632.205 390.04 
L 632.205 57.0062 
" style="fill: none; stroke: #ffffff; stroke-width: 0.8; stroke-linejoin: miter; stroke-linecap: square"/>
   </g>
   <g id="patch_5">
    <path d="M 65.63 390.04 
L 632.205 390.04 
" style="fill: none; stroke: #ffffff; stroke-width: 0.8; stroke-linejoin: miter; stroke-linecap: square"/>
   </g>
   <g id="patch_6">
    <path d="M 65.63 57.0062 
L 632.205 57.0062 
" style="fill: none; stroke: #ffffff; stroke-width: 0.8; stroke-linejoin: miter; stroke-linecap: square"/>
   </g>
   <g id="legend_1">
    <g id="line2d_26">
     <path d="M 97.385341 41.274494 
L 105.715341 41.274494 
L 114.045341 41.274494 
" style="fill: none; stroke: #0000ff; stroke-width: 1.5; stroke-linecap: round"/>
    </g>
    <g id="text_22">
     <!-- Mean Reward -->
     <g style="fill: #262626" transform="translate(120.709341 44.189994) scale(0.0833 -0.0833)">
      <defs>
       <path id="DejaVuSans-4d" d="M 628 4666 
L 1569 4666 
L 2759 1491 
L 3956 4666 
L 4897 4666 
L 4897 0 
L 4281 0 
L 4281 4097 
L 3078 897 
L 2444 897 
L 1241 4097 
L 1241 0 
L 628 0 
L 628 4666 
z
" transform="scale(0.015625)"/>
       <path id="DejaVuSans-6e" d="M 3513 2113 
L 3513 0 
L 2938 0 
L 2938 2094 
Q 2938 2591 2744 2837 
Q 2550 3084 2163 3084 
Q 1697 3084 1428 2787 
Q 1159 2491 1159 1978 
L 1159 0 
L 581 0 
L 581 3500 
L 1159 3500 
L 1159 2956 
Q 1366 3272 1645 3428 
Q 1925 3584 2291 3584 
Q 2894 3584 3203 3211 
Q 3513 2838 3513 2113 
z
" transform="scale(0.015625)"/>
       <path id="DejaVuSans-20" transform="scale(0.015625)"/>
      </defs>
      <use xlink:href="#DejaVuSans-4d"/>
      <use xlink:href="#DejaVuSans-65" transform="translate(86.279297 0)"/>
      <use xlink:href="#DejaVuSans-61" transform="translate(147.802734 0)"/>
      <use xlink:href="#DejaVuSans-6e" transform="translate(209.082031 0)"/>
      <use xlink:href="#DejaVuSans-20" transform="translate(272.460938 0)"/>
      <use xlink:href="#DejaVuSans-52" transform="translate(304.248047 0)"/>
      <use xlink:href="#DejaVuSans-65" transform="translate(369.230469 0)"/>
      <use xlink:href="#DejaVuSans-77" transform="translate(430.753906 0)"/>
      <use xlink:href="#DejaVuSans-61" transform="translate(512.541016 0)"/>
      <use xlink:href="#DejaVuSans-72" transform="translate(573.820312 0)"/>
      <use xlink:href="#DejaVuSans-64" transform="translate(613.183594 0)"/>
     </g>
    </g>
    <g id="line2d_27">
     <path d="M 193.736108 41.274494 
L 202.066108 41.274494 
L 210.396108 41.274494 
" style="fill: none; stroke: #008000; stroke-opacity: 0.2; stroke-linecap: round"/>
    </g>
    <g id="text_23">
     <!-- Reward (individual runs) -->
     <g style="fill: #262626" transform="translate(217.060108 44.189994) scale(0.0833 -0.0833)">
      <defs>
       <path id="DejaVuSans-28" d="M 1984 4856 
Q 1566 4138 1362 3434 
Q 1159 2731 1159 2009 
Q 1159 1288 1364 580 
Q 1569 -128 1984 -844 
L 1484 -844 
Q 1016 -109 783 600 
Q 550 1309 550 2009 
Q 550 2706 781 3412 
Q 1013 4119 1484 4856 
L 1984 4856 
z
" transform="scale(0.015625)"/>
       <path id="DejaVuSans-69" d="M 603 3500 
L 1178 3500 
L 1178 0 
L 603 0 
L 603 3500 
z
M 603 4863 
L 1178 4863 
L 1178 4134 
L 603 4134 
L 603 4863 
z
" transform="scale(0.015625)"/>
       <path id="DejaVuSans-76" d="M 191 3500 
L 800 3500 
L 1894 563 
L 2988 3500 
L 3597 3500 
L 2284 0 
L 1503 0 
L 191 3500 
z
" transform="scale(0.015625)"/>
       <path id="DejaVuSans-75" d="M 544 1381 
L 544 3500 
L 1119 3500 
L 1119 1403 
Q 1119 906 1312 657 
Q 1506 409 1894 409 
Q 2359 409 2629 706 
Q 2900 1003 2900 1516 
L 2900 3500 
L 3475 3500 
L 3475 0 
L 2900 0 
L 2900 538 
Q 2691 219 2414 64 
Q 2138 -91 1772 -91 
Q 1169 -91 856 284 
Q 544 659 544 1381 
z
M 1991 3584 
L 1991 3584 
z
" transform="scale(0.015625)"/>
       <path id="DejaVuSans-6c" d="M 603 4863 
L 1178 4863 
L 1178 0 
L 603 0 
L 603 4863 
z
" transform="scale(0.015625)"/>
       <path id="DejaVuSans-29" d="M 513 4856 
L 1013 4856 
Q 1481 4119 1714 3412 
Q 1947 2706 1947 2009 
Q 1947 1309 1714 600 
Q 1481 -109 1013 -844 
L 513 -844 
Q 928 -128 1133 580 
Q 1338 1288 1338 2009 
Q 1338 2731 1133 3434 
Q 928 4138 513 4856 
z
" transform="scale(0.015625)"/>
      </defs>
      <use xlink:href="#DejaVuSans-52"/>
      <use xlink:href="#DejaVuSans-65" transform="translate(64.982422 0)"/>
      <use xlink:href="#DejaVuSans-77" transform="translate(126.505859 0)"/>
      <use xlink:href="#DejaVuSans-61" transform="translate(208.292969 0)"/>
      <use xlink:href="#DejaVuSans-72" transform="translate(269.572266 0)"/>
      <use xlink:href="#DejaVuSans-64" transform="translate(308.935547 0)"/>
      <use xlink:href="#DejaVuSans-20" transform="translate(372.412109 0)"/>
      <use xlink:href="#DejaVuSans-28" transform="translate(404.199219 0)"/>
      <use xlink:href="#DejaVuSans-69" transform="translate(443.212891 0)"/>
      <use xlink:href="#DejaVuSans-6e" transform="translate(470.996094 0)"/>
      <use xlink:href="#DejaVuSans-64" transform="translate(534.375 0)"/>
      <use xlink:href="#DejaVuSans-69" transform="translate(597.851562 0)"/>
      <use xlink:href="#DejaVuSans-76" transform="translate(625.634766 0)"/>
      <use xlink:href="#DejaVuSans-69" transform="translate(684.814453 0)"/>
      <use xlink:href="#DejaVuSans-64" transform="translate(712.597656 0)"/>
      <use xlink:href="#DejaVuSans-75" transform="translate(776.074219 0)"/>
      <use xlink:href="#DejaVuSans-61" transform="translate(839.453125 0)"/>
      <use xlink:href="#DejaVuSans-6c" transform="translate(900.732422 0)"/>
      <use xlink:href="#DejaVuSans-20" transform="translate(928.515625 0)"/>
      <use xlink:href="#DejaVuSans-72" transform="translate(960.302734 0)"/>
      <use xlink:href="#DejaVuSans-75" transform="translate(1001.416016 0)"/>
      <use xlink:href="#DejaVuSans-6e" transform="translate(1064.794922 0)"/>
      <use xlink:href="#DejaVuSans-73" transform="translate(1128.173828 0)"/>
      <use xlink:href="#DejaVuSans-29" transform="translate(1180.273438 0)"/>
     </g>
    </g>
    <g id="line2d_28">
     <path d="M 335.286236 41.274494 
L 343.616236 41.274494 
L 351.946236 41.274494 
" style="fill: none; stroke: #7b3ab8; stroke-linecap: round"/>
    </g>
    <g id="text_24">
     <!-- Entropy (normalized) -->
     <g style="fill: #262626" transform="translate(358.610236 44.189994) scale(0.0833 -0.0833)">
      <defs>
       <path id="DejaVuSans-45" d="M 628 4666 
L 3578 4666 
L 3578 4134 
L 1259 4134 
L 1259 2753 
L 3481 2753 
L 3481 2222 
L 1259 2222 
L 1259 531 
L 3634 531 
L 3634 0 
L 628 0 
L 628 4666 
z
" transform="scale(0.015625)"/>
       <path id="DejaVuSans-6f" d="M 1959 3097 
Q 1497 3097 1228 2736 
Q 959 2375 959 1747 
Q 959 1119 1226 758 
Q 1494 397 1959 397 
Q 2419 397 2687 759 
Q 2956 1122 2956 1747 
Q 2956 2369 2687 2733 
Q 2419 3097 1959 3097 
z
M 1959 3584 
Q 2709 3584 3137 3096 
Q 3566 2609 3566 1747 
Q 3566 888 3137 398 
Q 2709 -91 1959 -91 
Q 1206 -91 779 398 
Q 353 888 353 1747 
Q 353 2609 779 3096 
Q 1206 3584 1959 3584 
z
" transform="scale(0.015625)"/>
       <path id="DejaVuSans-79" d="M 2059 -325 
Q 1816 -950 1584 -1140 
Q 1353 -1331 966 -1331 
L 506 -1331 
L 506 -850 
L 844 -850 
Q 1081 -850 1212 -737 
Q 1344 -625 1503 -206 
L 1606 56 
L 191 3500 
L 800 3500 
L 1894 763 
L 2988 3500 
L 3597 3500 
L 2059 -325 
z
" transform="scale(0.015625)"/>
       <path id="DejaVuSans-6d" d="M 3328 2828 
Q 3544 3216 3844 3400 
Q 4144 3584 4550 3584 
Q 5097 3584 5394 3201 
Q 5691 2819 5691 2113 
L 5691 0 
L 5113 0 
L 5113 2094 
Q 5113 2597 4934 2840 
Q 4756 3084 4391 3084 
Q 3944 3084 3684 2787 
Q 3425 2491 3425 1978 
L 3425 0 
L 2847 0 
L 2847 2094 
Q 2847 2600 2669 2842 
Q 2491 3084 2119 3084 
Q 1678 3084 1418 2786 
Q 1159 2488 1159 1978 
L 1159 0 
L 581 0 
L 581 3500 
L 1159 3500 
L 1159 2956 
Q 1356 3278 1631 3431 
Q 1906 3584 2284 3584 
Q 2666 3584 2933 3390 
Q 3200 3197 3328 2828 
z
" transform="scale(0.015625)"/>
       <path id="DejaVuSans-7a" d="M 353 3500 
L 3084 3500 
L 3084 2975 
L 922 459 
L 3084 459 
L 3084 0 
L 275 0 
L 275 525 
L 2438 3041 
L 353 3041 
L 353 3500 
z
" transform="scale(0.015625)"/>
      </defs>
      <use xlink:href="#DejaVuSans-45"/>
      <use xlink:href="#DejaVuSans-6e" transform="translate(63.183594 0)"/>
      <use xlink:href="#DejaVuSans-74" transform="translate(126.5625 0)"/>
      <use xlink:href="#DejaVuSans-72" transform="translate(165.771484 0)"/>
      <use xlink:href="#DejaVuSans-6f" transform="translate(204.634766 0)"/>
      <use xlink:href="#DejaVuSans-70" transform="translate(265.816406 0)"/>
      <use xlink:href="#DejaVuSans-79" transform="translate(329.292969 0)"/>
      <use xlink:href="#DejaVuSans-20" transform="translate(388.472656 0)"/>
      <use xlink:href="#DejaVuSans-28" transform="translate(420.259766 0)"/>
      <use xlink:href="#DejaVuSans-6e" transform="translate(459.273438 0)"/>
      <use xlink:href="#DejaVuSans-6f" transform="translate(522.652344 0)"/>
      <use xlink:href="#DejaVuSans-72" transform="translate(583.833984 0)"/>
      <use xlink:href="#DejaVuSans-6d" transform="translate(623.197266 0)"/>
      <use xlink:href="#DejaVuSans-61" transform="translate(720.609375 0)"/>
      <use xlink:href="#DejaVuSans-6c" transform="translate(781.888672 0)"/>
      <use xlink:href="#DejaVuSans-69" transform="translate(809.671875 0)"/>
      <use xlink:href="#DejaVuSans-7a" transform="translate(837.455078 0)"/>
      <use xlink:href="#DejaVuSans-65" transform="translate(889.945312 0)"/>
      <use xlink:href="#DejaVuSans-64" transform="translate(951.46875 0)"/>
      <use xlink:href="#DejaVuSans-29" transform="translate(1014.945312 0)"/>
     </g>
    </g>
    <g id="patch_7">
     <path d="M 463.065833 44.189994 
L 479.725833 44.189994 
L 479.725833 38.358994 
L 463.065833 38.358994 
z
" style="fill: #0000ff; fill-opacity: 0.1"/>
    </g>
    <g id="text_25">
     <!-- Reward Standard Deviation -->
     <g style="fill: #262626" transform="translate(486.389833 44.189994) scale(0.0833 -0.0833)">
      <defs>
       <path id="DejaVuSans-44" d="M 1259 4147 
L 1259 519 
L 2022 519 
Q 2988 519 3436 956 
Q 3884 1394 3884 2338 
Q 3884 3275 3436 3711 
Q 2988 4147 2022 4147 
L 1259 4147 
z
M 628 4666 
L 1925 4666 
Q 3281 4666 3915 4102 
Q 4550 3538 4550 2338 
Q 4550 1131 3912 565 
Q 3275 0 1925 0 
L 628 0 
L 628 4666 
z
" transform="scale(0.015625)"/>
      </defs>
      <use xlink:href="#DejaVuSans-52"/>
      <use xlink:href="#DejaVuSans-65" transform="translate(64.982422 0)"/>
      <use xlink:href="#DejaVuSans-77" transform="translate(126.505859 0)"/>
      <use xlink:href="#DejaVuSans-61" transform="translate(208.292969 0)"/>
      <use xlink:href="#DejaVuSans-72" transform="translate(269.572266 0)"/>
      <use xlink:href="#DejaVuSans-64" transform="translate(308.935547 0)"/>
      <use xlink:href="#DejaVuSans-20" transform="translate(372.412109 0)"/>
      <use xlink:href="#DejaVuSans-53" transform="translate(404.199219 0)"/>
      <use xlink:href="#DejaVuSans-74" transform="translate(467.675781 0)"/>
      <use xlink:href="#DejaVuSans-61" transform="translate(506.884766 0)"/>
      <use xlink:href="#DejaVuSans-6e" transform="translate(568.164062 0)"/>
      <use xlink:href="#DejaVuSans-64" transform="translate(631.542969 0)"/>
      <use xlink:href="#DejaVuSans-61" transform="translate(695.019531 0)"/>
      <use xlink:href="#DejaVuSans-72" transform="translate(756.298828 0)"/>
      <use xlink:href="#DejaVuSans-64" transform="translate(795.662109 0)"/>
      <use xlink:href="#DejaVuSans-20" transform="translate(859.138672 0)"/>
      <use xlink:href="#DejaVuSans-44" transform="translate(890.925781 0)"/>
      <use xlink:href="#DejaVuSans-65" transform="translate(967.927734 0)"/>
      <use xlink:href="#DejaVuSans-76" transform="translate(1029.451172 0)"/>
      <use xlink:href="#DejaVuSans-69" transform="translate(1088.630859 0)"/>
      <use xlink:href="#DejaVuSans-61" transform="translate(1116.414062 0)"/>
      <use xlink:href="#DejaVuSans-74" transform="translate(1177.693359 0)"/>
      <use xlink:href="#DejaVuSans-69" transform="translate(1216.902344 0)"/>
      <use xlink:href="#DejaVuSans-6f" transform="translate(1244.685547 0)"/>
      <use xlink:href="#DejaVuSans-6e" transform="translate(1305.867188 0)"/>
     </g>
    </g>
   </g>
  </g>
  <g id="text_26">
   <!-- Rewards: Pendulum-v1 (Discretized) | Logits (Baseline) (Entropy) -->
   <g style="fill: #262626" transform="translate(102.902813 17.810625) scale(0.12 -0.12)">
    <defs>
     <path id="DejaVuSans-Bold-52" d="M 2297 2597 
Q 2675 2597 2839 2737 
Q 3003 2878 3003 3200 
Q 3003 3519 2839 3656 
Q 2675 3794 2297 3794 
L 1791 3794 
L 1791 2597 
L 2297 2597 
z
M 1791 1766 
L 1791 0 
L 588 0 
L 588 4666 
L 2425 4666 
Q 3347 4666 3776 4356 
Q 4206 4047 4206 3378 
Q 4206 2916 3982 2619 
Q 3759 2322 3309 2181 
Q 3556 2125 3751 1926 
Q 3947 1728 4147 1325 
L 4800 0 
L 3519 0 
L 2950 1159 
Q 2778 1509 2601 1637 
Q 2425 1766 2131 1766 
L 1791 1766 
z
" transform="scale(0.015625)"/>
     <path id="DejaVuSans-Bold-65" d="M 4031 1759 
L 4031 1441 
L 1416 1441 
Q 1456 1047 1700 850 
Q 1944 653 2381 653 
Q 2734 653 3104 758 
Q 3475 863 3866 1075 
L 3866 213 
Q 3469 63 3072 -14 
Q 2675 -91 2278 -91 
Q 1328 -91 801 392 
Q 275 875 275 1747 
Q 275 2603 792 3093 
Q 1309 3584 2216 3584 
Q 3041 3584 3536 3087 
Q 4031 2591 4031 1759 
z
M 2881 2131 
Q 2881 2450 2695 2645 
Q 2509 2841 2209 2841 
Q 1884 2841 1681 2658 
Q 1478 2475 1428 2131 
L 2881 2131 
z
" transform="scale(0.015625)"/>
     <path id="DejaVuSans-Bold-77" d="M 225 3500 
L 1313 3500 
L 1900 1088 
L 2491 3500 
L 3425 3500 
L 4013 1113 
L 4603 3500 
L 5691 3500 
L 4769 0 
L 3547 0 
L 2956 2406 
L 2369 0 
L 1147 0 
L 225 3500 
z
" transform="scale(0.015625)"/>
     <path id="DejaVuSans-Bold-61" d="M 2106 1575 
Q 1756 1575 1579 1456 
Q 1403 1338 1403 1106 
Q 1403 894 1545 773 
Q 1688 653 1941 653 
Q 2256 653 2472 879 
Q 2688 1106 2688 1447 
L 2688 1575 
L 2106 1575 
z
M 3816 1997 
L 3816 0 
L 2688 0 
L 2688 519 
Q 2463 200 2181 54 
Q 1900 -91 1497 -91 
Q 953 -91 614 226 
Q 275 544 275 1050 
Q 275 1666 698 1953 
Q 1122 2241 2028 2241 
L 2688 2241 
L 2688 2328 
Q 2688 2594 2478 2717 
Q 2269 2841 1825 2841 
Q 1466 2841 1156 2769 
Q 847 2697 581 2553 
L 581 3406 
Q 941 3494 1303 3539 
Q 1666 3584 2028 3584 
Q 2975 3584 3395 3211 
Q 3816 2838 3816 1997 
z
" transform="scale(0.015625)"/>
     <path id="DejaVuSans-Bold-72" d="M 3138 2547 
Q 2991 2616 2845 2648 
Q 2700 2681 2553 2681 
Q 2122 2681 1889 2404 
Q 1656 2128 1656 1613 
L 1656 0 
L 538 0 
L 538 3500 
L 1656 3500 
L 1656 2925 
Q 1872 3269 2151 3426 
Q 2431 3584 2822 3584 
Q 2878 3584 2943 3579 
Q 3009 3575 3134 3559 
L 3138 2547 
z
" transform="scale(0.015625)"/>
     <path id="DejaVuSans-Bold-64" d="M 2919 2988 
L 2919 4863 
L 4044 4863 
L 4044 0 
L 2919 0 
L 2919 506 
Q 2688 197 2409 53 
Q 2131 -91 1766 -91 
Q 1119 -91 703 423 
Q 288 938 288 1747 
Q 288 2556 703 3070 
Q 1119 3584 1766 3584 
Q 2128 3584 2408 3439 
Q 2688 3294 2919 2988 
z
M 2181 722 
Q 2541 722 2730 984 
Q 2919 1247 2919 1747 
Q 2919 2247 2730 2509 
Q 2541 2772 2181 2772 
Q 1825 2772 1636 2509 
Q 1447 2247 1447 1747 
Q 1447 1247 1636 984 
Q 1825 722 2181 722 
z
" transform="scale(0.015625)"/>
     <path id="DejaVuSans-Bold-73" d="M 3272 3391 
L 3272 2541 
Q 2913 2691 2578 2766 
Q 2244 2841 1947 2841 
Q 1628 2841 1473 2761 
Q 1319 2681 1319 2516 
Q 1319 2381 1436 2309 
Q 1553 2238 1856 2203 
L 2053 2175 
Q 2913 2066 3209 1816 
Q 3506 1566 3506 1031 
Q 3506 472 3093 190 
Q 2681 -91 1863 -91 
Q 1516 -91 1145 -36 
Q 775 19 384 128 
L 384 978 
Q 719 816 1070 734 
Q 1422 653 1784 653 
Q 2113 653 2278 743 
Q 2444 834 2444 1013 
Q 2444 1163 2330 1236 
Q 2216 1309 1875 1350 
L 1678 1375 
Q 931 1469 631 1722 
Q 331 1975 331 2491 
Q 331 3047 712 3315 
Q 1094 3584 1881 3584 
Q 2191 3584 2531 3537 
Q 2872 3491 3272 3391 
z
" transform="scale(0.015625)"/>
     <path id="DejaVuSans-Bold-3a" d="M 716 3500 
L 1844 3500 
L 1844 2291 
L 716 2291 
L 716 3500 
z
M 716 1209 
L 1844 1209 
L 1844 0 
L 716 0 
L 716 1209 
z
" transform="scale(0.015625)"/>
     <path id="DejaVuSans-Bold-20" transform="scale(0.015625)"/>
     <path id="DejaVuSans-Bold-50" d="M 588 4666 
L 2584 4666 
Q 3475 4666 3951 4270 
Q 4428 3875 4428 3144 
Q 4428 2409 3951 2014 
Q 3475 1619 2584 1619 
L 1791 1619 
L 1791 0 
L 588 0 
L 588 4666 
z
M 1791 3794 
L 1791 2491 
L 2456 2491 
Q 2806 2491 2997 2661 
Q 3188 2831 3188 3144 
Q 3188 3456 2997 3625 
Q 2806 3794 2456 3794 
L 1791 3794 
z
" transform="scale(0.015625)"/>
     <path id="DejaVuSans-Bold-6e" d="M 4056 2131 
L 4056 0 
L 2931 0 
L 2931 347 
L 2931 1631 
Q 2931 2084 2911 2256 
Q 2891 2428 2841 2509 
Q 2775 2619 2662 2680 
Q 2550 2741 2406 2741 
Q 2056 2741 1856 2470 
Q 1656 2200 1656 1722 
L 1656 0 
L 538 0 
L 538 3500 
L 1656 3500 
L 1656 2988 
Q 1909 3294 2193 3439 
Q 2478 3584 2822 3584 
Q 3428 3584 3742 3212 
Q 4056 2841 4056 2131 
z
" transform="scale(0.015625)"/>
     <path id="DejaVuSans-Bold-75" d="M 500 1363 
L 500 3500 
L 1625 3500 
L 1625 3150 
Q 1625 2866 1622 2436 
Q 1619 2006 1619 1863 
Q 1619 1441 1641 1255 
Q 1663 1069 1716 984 
Q 1784 875 1895 815 
Q 2006 756 2150 756 
Q 2500 756 2700 1025 
Q 2900 1294 2900 1772 
L 2900 3500 
L 4019 3500 
L 4019 0 
L 2900 0 
L 2900 506 
Q 2647 200 2364 54 
Q 2081 -91 1741 -91 
Q 1134 -91 817 281 
Q 500 653 500 1363 
z
" transform="scale(0.015625)"/>
     <path id="DejaVuSans-Bold-6c" d="M 538 4863 
L 1656 4863 
L 1656 0 
L 538 0 
L 538 4863 
z
" transform="scale(0.015625)"/>
     <path id="DejaVuSans-Bold-6d" d="M 3781 2919 
Q 3994 3244 4286 3414 
Q 4578 3584 4928 3584 
Q 5531 3584 5847 3212 
Q 6163 2841 6163 2131 
L 6163 0 
L 5038 0 
L 5038 1825 
Q 5041 1866 5042 1909 
Q 5044 1953 5044 2034 
Q 5044 2406 4934 2573 
Q 4825 2741 4581 2741 
Q 4263 2741 4089 2478 
Q 3916 2216 3909 1719 
L 3909 0 
L 2784 0 
L 2784 1825 
Q 2784 2406 2684 2573 
Q 2584 2741 2328 2741 
Q 2006 2741 1831 2477 
Q 1656 2213 1656 1722 
L 1656 0 
L 531 0 
L 531 3500 
L 1656 3500 
L 1656 2988 
Q 1863 3284 2130 3434 
Q 2397 3584 2719 3584 
Q 3081 3584 3359 3409 
Q 3638 3234 3781 2919 
z
" transform="scale(0.015625)"/>
     <path id="DejaVuSans-Bold-2d" d="M 347 2297 
L 2309 2297 
L 2309 1388 
L 347 1388 
L 347 2297 
z
" transform="scale(0.015625)"/>
     <path id="DejaVuSans-Bold-76" d="M 97 3500 
L 1216 3500 
L 2088 1081 
L 2956 3500 
L 4078 3500 
L 2700 0 
L 1472 0 
L 97 3500 
z
" transform="scale(0.015625)"/>
     <path id="DejaVuSans-Bold-31" d="M 750 831 
L 1813 831 
L 1813 3847 
L 722 3622 
L 722 4441 
L 1806 4666 
L 2950 4666 
L 2950 831 
L 4013 831 
L 4013 0 
L 750 0 
L 750 831 
z
" transform="scale(0.015625)"/>
     <path id="DejaVuSans-Bold-28" d="M 2413 -844 
L 1484 -844 
Q 1006 -72 778 623 
Q 550 1319 550 2003 
Q 550 2688 779 3389 
Q 1009 4091 1484 4856 
L 2413 4856 
Q 2013 4116 1813 3408 
Q 1613 2700 1613 2009 
Q 1613 1319 1811 609 
Q 2009 -100 2413 -844 
z
" transform="scale(0.015625)"/>
     <path id="DejaVuSans-Bold-44" d="M 1791 3756 
L 1791 909 
L 2222 909 
Q 2959 909 3348 1275 
Q 3738 1641 3738 2338 
Q 3738 3031 3350 3393 
Q 2963 3756 2222 3756 
L 1791 3756 
z
M 588 4666 
L 1856 4666 
Q 2919 4666 3439 4514 
Q 3959 4363 4331 4000 
Q 4659 3684 4818 3271 
Q 4978 2859 4978 2338 
Q 4978 1809 4818 1395 
Q 4659 981 4331 666 
Q 3956 303 3431 151 
Q 2906 0 1856 0 
L 588 0 
L 588 4666 
z
" transform="scale(0.015625)"/>
     <path id="DejaVuSans-Bold-69" d="M 538 3500 
L 1656 3500 
L 1656 0 
L 538 0 
L 538 3500 
z
M 538 4863 
L 1656 4863 
L 1656 3950 
L 538 3950 
L 538 4863 
z
" transform="scale(0.015625)"/>
     <path id="DejaVuSans-Bold-63" d="M 3366 3391 
L 3366 2478 
Q 3138 2634 2908 2709 
Q 2678 2784 2431 2784 
Q 1963 2784 1702 2511 
Q 1441 2238 1441 1747 
Q 1441 1256 1702 982 
Q 1963 709 2431 709 
Q 2694 709 2930 787 
Q 3166 866 3366 1019 
L 3366 103 
Q 3103 6 2833 -42 
Q 2563 -91 2291 -91 
Q 1344 -91 809 395 
Q 275 881 275 1747 
Q 275 2613 809 3098 
Q 1344 3584 2291 3584 
Q 2566 3584 2833 3536 
Q 3100 3488 3366 3391 
z
" transform="scale(0.015625)"/>
     <path id="DejaVuSans-Bold-74" d="M 1759 4494 
L 1759 3500 
L 2913 3500 
L 2913 2700 
L 1759 2700 
L 1759 1216 
Q 1759 972 1856 886 
Q 1953 800 2241 800 
L 2816 800 
L 2816 0 
L 1856 0 
Q 1194 0 917 276 
Q 641 553 641 1216 
L 641 2700 
L 84 2700 
L 84 3500 
L 641 3500 
L 641 4494 
L 1759 4494 
z
" transform="scale(0.015625)"/>
     <path id="DejaVuSans-Bold-7a" d="M 366 3500 
L 3419 3500 
L 3419 2719 
L 1575 800 
L 3419 800 
L 3419 0 
L 288 0 
L 288 781 
L 2131 2700 
L 366 2700 
L 366 3500 
z
" transform="scale(0.015625)"/>
     <path id="DejaVuSans-Bold-29" d="M 513 -844 
Q 913 -100 1113 609 
Q 1313 1319 1313 2009 
Q 1313 2700 1113 3408 
Q 913 4116 513 4856 
L 1441 4856 
Q 1916 4091 2145 3389 
Q 2375 2688 2375 2003 
Q 2375 1319 2147 623 
Q 1919 -72 1441 -844 
L 513 -844 
z
" transform="scale(0.015625)"/>
     <path id="DejaVuSans-Bold-7c" d="M 1522 4891 
L 1522 -1509 
L 813 -1509 
L 813 4891 
L 1522 4891 
z
" transform="scale(0.015625)"/>
     <path id="DejaVuSans-Bold-4c" d="M 588 4666 
L 1791 4666 
L 1791 909 
L 3903 909 
L 3903 0 
L 588 0 
L 588 4666 
z
" transform="scale(0.015625)"/>
     <path id="DejaVuSans-Bold-6f" d="M 2203 2784 
Q 1831 2784 1636 2517 
Q 1441 2250 1441 1747 
Q 1441 1244 1636 976 
Q 1831 709 2203 709 
Q 2569 709 2762 976 
Q 2956 1244 2956 1747 
Q 2956 2250 2762 2517 
Q 2569 2784 2203 2784 
z
M 2203 3584 
Q 3106 3584 3614 3096 
Q 4122 2609 4122 1747 
Q 4122 884 3614 396 
Q 3106 -91 2203 -91 
Q 1297 -91 786 396 
Q 275 884 275 1747 
Q 275 2609 786 3096 
Q 1297 3584 2203 3584 
z
" transform="scale(0.015625)"/>
     <path id="DejaVuSans-Bold-67" d="M 2919 594 
Q 2688 288 2409 144 
Q 2131 0 1766 0 
Q 1125 0 706 504 
Q 288 1009 288 1791 
Q 288 2575 706 3076 
Q 1125 3578 1766 3578 
Q 2131 3578 2409 3434 
Q 2688 3291 2919 2981 
L 2919 3500 
L 4044 3500 
L 4044 353 
Q 4044 -491 3511 -936 
Q 2978 -1381 1966 -1381 
Q 1638 -1381 1331 -1331 
Q 1025 -1281 716 -1178 
L 716 -306 
Q 1009 -475 1290 -558 
Q 1572 -641 1856 -641 
Q 2406 -641 2662 -400 
Q 2919 -159 2919 353 
L 2919 594 
z
M 2181 2772 
Q 1834 2772 1640 2515 
Q 1447 2259 1447 1791 
Q 1447 1309 1634 1061 
Q 1822 813 2181 813 
Q 2531 813 2725 1069 
Q 2919 1325 2919 1791 
Q 2919 2259 2725 2515 
Q 2531 2772 2181 2772 
z
" transform="scale(0.015625)"/>
     <path id="DejaVuSans-Bold-42" d="M 2456 2859 
Q 2741 2859 2887 2984 
Q 3034 3109 3034 3353 
Q 3034 3594 2887 3720 
Q 2741 3847 2456 3847 
L 1791 3847 
L 1791 2859 
L 2456 2859 
z
M 2497 819 
Q 2859 819 3042 972 
Q 3225 1125 3225 1434 
Q 3225 1738 3044 1889 
Q 2863 2041 2497 2041 
L 1791 2041 
L 1791 819 
L 2497 819 
z
M 3616 2497 
Q 4003 2384 4215 2081 
Q 4428 1778 4428 1338 
Q 4428 663 3972 331 
Q 3516 0 2584 0 
L 588 0 
L 588 4666 
L 2394 4666 
Q 3366 4666 3802 4372 
Q 4238 4078 4238 3431 
Q 4238 3091 4078 2852 
Q 3919 2613 3616 2497 
z
" transform="scale(0.015625)"/>
     <path id="DejaVuSans-Bold-45" d="M 588 4666 
L 3834 4666 
L 3834 3756 
L 1791 3756 
L 1791 2888 
L 3713 2888 
L 3713 1978 
L 1791 1978 
L 1791 909 
L 3903 909 
L 3903 0 
L 588 0 
L 588 4666 
z
" transform="scale(0.015625)"/>
     <path id="DejaVuSans-Bold-70" d="M 1656 506 
L 1656 -1331 
L 538 -1331 
L 538 3500 
L 1656 3500 
L 1656 2988 
Q 1888 3294 2169 3439 
Q 2450 3584 2816 3584 
Q 3463 3584 3878 3070 
Q 4294 2556 4294 1747 
Q 4294 938 3878 423 
Q 3463 -91 2816 -91 
Q 2450 -91 2169 54 
Q 1888 200 1656 506 
z
M 2400 2772 
Q 2041 2772 1848 2508 
Q 1656 2244 1656 1747 
Q 1656 1250 1848 986 
Q 2041 722 2400 722 
Q 2759 722 2948 984 
Q 3138 1247 3138 1747 
Q 3138 2247 2948 2509 
Q 2759 2772 2400 2772 
z
" transform="scale(0.015625)"/>
     <path id="DejaVuSans-Bold-79" d="M 78 3500 
L 1197 3500 
L 2138 1125 
L 2938 3500 
L 4056 3500 
L 2584 -331 
Q 2363 -916 2067 -1148 
Q 1772 -1381 1288 -1381 
L 641 -1381 
L 641 -647 
L 991 -647 
Q 1275 -647 1404 -556 
Q 1534 -466 1606 -231 
L 1638 -134 
L 78 3500 
z
" transform="scale(0.015625)"/>
    </defs>
    <use xlink:href="#DejaVuSans-Bold-52"/>
    <use xlink:href="#DejaVuSans-Bold-65" transform="translate(77.001953 0)"/>
    <use xlink:href="#DejaVuSans-Bold-77" transform="translate(144.824219 0)"/>
    <use xlink:href="#DejaVuSans-Bold-61" transform="translate(237.207031 0)"/>
    <use xlink:href="#DejaVuSans-Bold-72" transform="translate(304.6875 0)"/>
    <use xlink:href="#DejaVuSans-Bold-64" transform="translate(354.003906 0)"/>
    <use xlink:href="#DejaVuSans-Bold-73" transform="translate(425.585938 0)"/>
    <use xlink:href="#DejaVuSans-Bold-3a" transform="translate(485.107422 0)"/>
    <use xlink:href="#DejaVuSans-Bold-20" transform="translate(525.097656 0)"/>
    <use xlink:href="#DejaVuSans-Bold-50" transform="translate(559.912109 0)"/>
    <use xlink:href="#DejaVuSans-Bold-65" transform="translate(633.203125 0)"/>
    <use xlink:href="#DejaVuSans-Bold-6e" transform="translate(701.025391 0)"/>
    <use xlink:href="#DejaVuSans-Bold-64" transform="translate(772.216797 0)"/>
    <use xlink:href="#DejaVuSans-Bold-75" transform="translate(843.798828 0)"/>
    <use xlink:href="#DejaVuSans-Bold-6c" transform="translate(914.990234 0)"/>
    <use xlink:href="#DejaVuSans-Bold-75" transform="translate(949.267578 0)"/>
    <use xlink:href="#DejaVuSans-Bold-6d" transform="translate(1020.458984 0)"/>
    <use xlink:href="#DejaVuSans-Bold-2d" transform="translate(1124.658203 0)"/>
    <use xlink:href="#DejaVuSans-Bold-76" transform="translate(1166.162109 0)"/>
    <use xlink:href="#DejaVuSans-Bold-31" transform="translate(1231.347656 0)"/>
    <use xlink:href="#DejaVuSans-Bold-20" transform="translate(1300.927734 0)"/>
    <use xlink:href="#DejaVuSans-Bold-28" transform="translate(1335.742188 0)"/>
    <use xlink:href="#DejaVuSans-Bold-44" transform="translate(1381.445312 0)"/>
    <use xlink:href="#DejaVuSans-Bold-69" transform="translate(1464.453125 0)"/>
    <use xlink:href="#DejaVuSans-Bold-73" transform="translate(1498.730469 0)"/>
    <use xlink:href="#DejaVuSans-Bold-63" transform="translate(1558.251953 0)"/>
    <use xlink:href="#DejaVuSans-Bold-72" transform="translate(1617.529297 0)"/>
    <use xlink:href="#DejaVuSans-Bold-65" transform="translate(1666.845703 0)"/>
    <use xlink:href="#DejaVuSans-Bold-74" transform="translate(1734.667969 0)"/>
    <use xlink:href="#DejaVuSans-Bold-69" transform="translate(1782.470703 0)"/>
    <use xlink:href="#DejaVuSans-Bold-7a" transform="translate(1816.748047 0)"/>
    <use xlink:href="#DejaVuSans-Bold-65" transform="translate(1874.951172 0)"/>
    <use xlink:href="#DejaVuSans-Bold-64" transform="translate(1942.773438 0)"/>
    <use xlink:href="#DejaVuSans-Bold-29" transform="translate(2014.355469 0)"/>
    <use xlink:href="#DejaVuSans-Bold-20" transform="translate(2060.058594 0)"/>
    <use xlink:href="#DejaVuSans-Bold-7c" transform="translate(2094.873047 0)"/>
    <use xlink:href="#DejaVuSans-Bold-20" transform="translate(2131.396484 0)"/>
    <use xlink:href="#DejaVuSans-Bold-4c" transform="translate(2166.210938 0)"/>
    <use xlink:href="#DejaVuSans-Bold-6f" transform="translate(2229.931641 0)"/>
    <use xlink:href="#DejaVuSans-Bold-67" transform="translate(2298.632812 0)"/>
    <use xlink:href="#DejaVuSans-Bold-69" transform="translate(2370.214844 0)"/>
    <use xlink:href="#DejaVuSans-Bold-74" transform="translate(2404.492188 0)"/>
    <use xlink:href="#DejaVuSans-Bold-73" transform="translate(2452.294922 0)"/>
    <use xlink:href="#DejaVuSans-Bold-20" transform="translate(2511.816406 0)"/>
    <use xlink:href="#DejaVuSans-Bold-28" transform="translate(2546.630859 0)"/>
    <use xlink:href="#DejaVuSans-Bold-42" transform="translate(2592.333984 0)"/>
    <use xlink:href="#DejaVuSans-Bold-61" transform="translate(2668.554688 0)"/>
    <use xlink:href="#DejaVuSans-Bold-73" transform="translate(2736.035156 0)"/>
    <use xlink:href="#DejaVuSans-Bold-65" transform="translate(2795.556641 0)"/>
    <use xlink:href="#DejaVuSans-Bold-6c" transform="translate(2863.378906 0)"/>
    <use xlink:href="#DejaVuSans-Bold-69" transform="translate(2897.65625 0)"/>
    <use xlink:href="#DejaVuSans-Bold-6e" transform="translate(2931.933594 0)"/>
    <use xlink:href="#DejaVuSans-Bold-65" transform="translate(3003.125 0)"/>
    <use xlink:href="#DejaVuSans-Bold-29" transform="translate(3070.947266 0)"/>
    <use xlink:href="#DejaVuSans-Bold-20" transform="translate(3116.650391 0)"/>
    <use xlink:href="#DejaVuSans-Bold-28" transform="translate(3151.464844 0)"/>
    <use xlink:href="#DejaVuSans-Bold-45" transform="translate(3197.167969 0)"/>
    <use xlink:href="#DejaVuSans-Bold-6e" transform="translate(3265.478516 0)"/>
    <use xlink:href="#DejaVuSans-Bold-74" transform="translate(3336.669922 0)"/>
    <use xlink:href="#DejaVuSans-Bold-72" transform="translate(3384.472656 0)"/>
    <use xlink:href="#DejaVuSans-Bold-6f" transform="translate(3433.789062 0)"/>
    <use xlink:href="#DejaVuSans-Bold-70" transform="translate(3502.490234 0)"/>
    <use xlink:href="#DejaVuSans-Bold-79" transform="translate(3574.072266 0)"/>
    <use xlink:href="#DejaVuSans-Bold-29" transform="translate(3639.257812 0)"/>
   </g>
  </g>
 </g>
 <defs>
  <clipPath id="p8300664216">
   <rect x="65.63" y="57.0062" width="566.575" height="333.0338"/>
  </clipPath>
 </defs>
</svg>
