<?xml version="1.0" encoding="utf-8" standalone="no"?>
<!DOCTYPE svg PUBLIC "-//W3C//DTD SVG 1.1//EN"
  "http://www.w3.org/Graphics/SVG/1.1/DTD/svg11.dtd">
<svg xmlns:xlink="http://www.w3.org/1999/xlink" width="648pt" height="432pt" viewBox="0 0 648 432" xmlns="http://www.w3.org/2000/svg" version="1.1">
 <metadata>
  <rdf:RDF xmlns:dc="http://purl.org/dc/elements/1.1/" xmlns:cc="http://creativecommons.org/ns#" xmlns:rdf="http://www.w3.org/1999/02/22-rdf-syntax-ns#">
   <cc:Work>
    <dc:type rdf:resource="http://purl.org/dc/dcmitype/StillImage"/>
    <dc:date>2025-07-31T00:19:00.363226</dc:date>
    <dc:format>image/svg+xml</dc:format>
    <dc:creator>
     <cc:Agent>
      <dc:title>Matplotlib v3.10.0, https://matplotlib.org/</dc:title>
     </cc:Agent>
    </dc:creator>
   </cc:Work>
  </rdf:RDF>
 </metadata>
 <defs>
  <style type="text/css">*{stroke-linejoin: round; stroke-linecap: butt}</style>
 </defs>
 <g id="figure_1">
  <g id="patch_1">
   <path d="M 0 432 
L 648 432 
L 648 0 
L 0 0 
z
" style="fill: #ffffff"/>
  </g>
  <g id="axes_1">
   <g id="patch_2">
    <path d="M 65.63 390.04 
L 632.205 390.04 
L 632.205 57.0062 
L 65.63 57.0062 
z
" style="fill: #eaeaf2"/>
   </g>
   <g id="matplotlib.axis_1">
    <g id="xtick_1">
     <g id="line2d_1">
      <path d="M 65.63083 390.04 
L 65.63083 57.0062 
" clip-path="url(#p6b30f89af3)" style="fill: none; stroke: #ffffff; stroke-width: 0.8; stroke-linecap: round"/>
     </g>
     <g id="text_1">
      <!-- 0.00 -->
      <g style="fill: #262626" transform="translate(54.498017 404.638438) scale(0.1 -0.1)">
       <defs>
        <path id="DejaVuSans-30" d="M 2034 4250 
Q 1547 4250 1301 3770 
Q 1056 3291 1056 2328 
Q 1056 1369 1301 889 
Q 1547 409 2034 409 
Q 2525 409 2770 889 
Q 3016 1369 3016 2328 
Q 3016 3291 2770 3770 
Q 2525 4250 2034 4250 
z
M 2034 4750 
Q 2819 4750 3233 4129 
Q 3647 3509 3647 2328 
Q 3647 1150 3233 529 
Q 2819 -91 2034 -91 
Q 1250 -91 836 529 
Q 422 1150 422 2328 
Q 422 3509 836 4129 
Q 1250 4750 2034 4750 
z
" transform="scale(0.015625)"/>
        <path id="DejaVuSans-2e" d="M 684 794 
L 1344 794 
L 1344 0 
L 684 0 
L 684 794 
z
" transform="scale(0.015625)"/>
       </defs>
       <use xlink:href="#DejaVuSans-30"/>
       <use xlink:href="#DejaVuSans-2e" transform="translate(63.623047 0)"/>
       <use xlink:href="#DejaVuSans-30" transform="translate(95.410156 0)"/>
       <use xlink:href="#DejaVuSans-30" transform="translate(159.033203 0)"/>
      </g>
     </g>
    </g>
    <g id="xtick_2">
     <g id="line2d_2">
      <path d="M 134.792615 390.04 
L 134.792615 57.0062 
" clip-path="url(#p6b30f89af3)" style="fill: none; stroke: #ffffff; stroke-width: 0.8; stroke-linecap: round"/>
     </g>
     <g id="text_2">
      <!-- 0.25 -->
      <g style="fill: #262626" transform="translate(123.659802 404.638438) scale(0.1 -0.1)">
       <defs>
        <path id="DejaVuSans-32" d="M 1228 531 
L 3431 531 
L 3431 0 
L 469 0 
L 469 531 
Q 828 903 1448 1529 
Q 2069 2156 2228 2338 
Q 2531 2678 2651 2914 
Q 2772 3150 2772 3378 
Q 2772 3750 2511 3984 
Q 2250 4219 1831 4219 
Q 1534 4219 1204 4116 
Q 875 4013 500 3803 
L 500 4441 
Q 881 4594 1212 4672 
Q 1544 4750 1819 4750 
Q 2544 4750 2975 4387 
Q 3406 4025 3406 3419 
Q 3406 3131 3298 2873 
Q 3191 2616 2906 2266 
Q 2828 2175 2409 1742 
Q 1991 1309 1228 531 
z
" transform="scale(0.015625)"/>
        <path id="DejaVuSans-35" d="M 691 4666 
L 3169 4666 
L 3169 4134 
L 1269 4134 
L 1269 2991 
Q 1406 3038 1543 3061 
Q 1681 3084 1819 3084 
Q 2600 3084 3056 2656 
Q 3513 2228 3513 1497 
Q 3513 744 3044 326 
Q 2575 -91 1722 -91 
Q 1428 -91 1123 -41 
Q 819 9 494 109 
L 494 744 
Q 775 591 1075 516 
Q 1375 441 1709 441 
Q 2250 441 2565 725 
Q 2881 1009 2881 1497 
Q 2881 1984 2565 2268 
Q 2250 2553 1709 2553 
Q 1456 2553 1204 2497 
Q 953 2441 691 2322 
L 691 4666 
z
" transform="scale(0.015625)"/>
       </defs>
       <use xlink:href="#DejaVuSans-30"/>
       <use xlink:href="#DejaVuSans-2e" transform="translate(63.623047 0)"/>
       <use xlink:href="#DejaVuSans-32" transform="translate(95.410156 0)"/>
       <use xlink:href="#DejaVuSans-35" transform="translate(159.033203 0)"/>
      </g>
     </g>
    </g>
    <g id="xtick_3">
     <g id="line2d_3">
      <path d="M 203.954399 390.04 
L 203.954399 57.0062 
" clip-path="url(#p6b30f89af3)" style="fill: none; stroke: #ffffff; stroke-width: 0.8; stroke-linecap: round"/>
     </g>
     <g id="text_3">
      <!-- 0.50 -->
      <g style="fill: #262626" transform="translate(192.821587 404.638438) scale(0.1 -0.1)">
       <use xlink:href="#DejaVuSans-30"/>
       <use xlink:href="#DejaVuSans-2e" transform="translate(63.623047 0)"/>
       <use xlink:href="#DejaVuSans-35" transform="translate(95.410156 0)"/>
       <use xlink:href="#DejaVuSans-30" transform="translate(159.033203 0)"/>
      </g>
     </g>
    </g>
    <g id="xtick_4">
     <g id="line2d_4">
      <path d="M 273.116184 390.04 
L 273.116184 57.0062 
" clip-path="url(#p6b30f89af3)" style="fill: none; stroke: #ffffff; stroke-width: 0.8; stroke-linecap: round"/>
     </g>
     <g id="text_4">
      <!-- 0.75 -->
      <g style="fill: #262626" transform="translate(261.983371 404.638438) scale(0.1 -0.1)">
       <defs>
        <path id="DejaVuSans-37" d="M 525 4666 
L 3525 4666 
L 3525 4397 
L 1831 0 
L 1172 0 
L 2766 4134 
L 525 4134 
L 525 4666 
z
" transform="scale(0.015625)"/>
       </defs>
       <use xlink:href="#DejaVuSans-30"/>
       <use xlink:href="#DejaVuSans-2e" transform="translate(63.623047 0)"/>
       <use xlink:href="#DejaVuSans-37" transform="translate(95.410156 0)"/>
       <use xlink:href="#DejaVuSans-35" transform="translate(159.033203 0)"/>
      </g>
     </g>
    </g>
    <g id="xtick_5">
     <g id="line2d_5">
      <path d="M 342.277969 390.04 
L 342.277969 57.0062 
" clip-path="url(#p6b30f89af3)" style="fill: none; stroke: #ffffff; stroke-width: 0.8; stroke-linecap: round"/>
     </g>
     <g id="text_5">
      <!-- 1.00 -->
      <g style="fill: #262626" transform="translate(331.145156 404.638438) scale(0.1 -0.1)">
       <defs>
        <path id="DejaVuSans-31" d="M 794 531 
L 1825 531 
L 1825 4091 
L 703 3866 
L 703 4441 
L 1819 4666 
L 2450 4666 
L 2450 531 
L 3481 531 
L 3481 0 
L 794 0 
L 794 531 
z
" transform="scale(0.015625)"/>
       </defs>
       <use xlink:href="#DejaVuSans-31"/>
       <use xlink:href="#DejaVuSans-2e" transform="translate(63.623047 0)"/>
       <use xlink:href="#DejaVuSans-30" transform="translate(95.410156 0)"/>
       <use xlink:href="#DejaVuSans-30" transform="translate(159.033203 0)"/>
      </g>
     </g>
    </g>
    <g id="xtick_6">
     <g id="line2d_6">
      <path d="M 411.439753 390.04 
L 411.439753 57.0062 
" clip-path="url(#p6b30f89af3)" style="fill: none; stroke: #ffffff; stroke-width: 0.8; stroke-linecap: round"/>
     </g>
     <g id="text_6">
      <!-- 1.25 -->
      <g style="fill: #262626" transform="translate(400.306941 404.638438) scale(0.1 -0.1)">
       <use xlink:href="#DejaVuSans-31"/>
       <use xlink:href="#DejaVuSans-2e" transform="translate(63.623047 0)"/>
       <use xlink:href="#DejaVuSans-32" transform="translate(95.410156 0)"/>
       <use xlink:href="#DejaVuSans-35" transform="translate(159.033203 0)"/>
      </g>
     </g>
    </g>
    <g id="xtick_7">
     <g id="line2d_7">
      <path d="M 480.601538 390.04 
L 480.601538 57.0062 
" clip-path="url(#p6b30f89af3)" style="fill: none; stroke: #ffffff; stroke-width: 0.8; stroke-linecap: round"/>
     </g>
     <g id="text_7">
      <!-- 1.50 -->
      <g style="fill: #262626" transform="translate(469.468726 404.638438) scale(0.1 -0.1)">
       <use xlink:href="#DejaVuSans-31"/>
       <use xlink:href="#DejaVuSans-2e" transform="translate(63.623047 0)"/>
       <use xlink:href="#DejaVuSans-35" transform="translate(95.410156 0)"/>
       <use xlink:href="#DejaVuSans-30" transform="translate(159.033203 0)"/>
      </g>
     </g>
    </g>
    <g id="xtick_8">
     <g id="line2d_8">
      <path d="M 549.763323 390.04 
L 549.763323 57.0062 
" clip-path="url(#p6b30f89af3)" style="fill: none; stroke: #ffffff; stroke-width: 0.8; stroke-linecap: round"/>
     </g>
     <g id="text_8">
      <!-- 1.75 -->
      <g style="fill: #262626" transform="translate(538.63051 404.638438) scale(0.1 -0.1)">
       <use xlink:href="#DejaVuSans-31"/>
       <use xlink:href="#DejaVuSans-2e" transform="translate(63.623047 0)"/>
       <use xlink:href="#DejaVuSans-37" transform="translate(95.410156 0)"/>
       <use xlink:href="#DejaVuSans-35" transform="translate(159.033203 0)"/>
      </g>
     </g>
    </g>
    <g id="xtick_9">
     <g id="line2d_9">
      <path d="M 618.925107 390.04 
L 618.925107 57.0062 
" clip-path="url(#p6b30f89af3)" style="fill: none; stroke: #ffffff; stroke-width: 0.8; stroke-linecap: round"/>
     </g>
     <g id="text_9">
      <!-- 2.00 -->
      <g style="fill: #262626" transform="translate(607.792295 404.638438) scale(0.1 -0.1)">
       <use xlink:href="#DejaVuSans-32"/>
       <use xlink:href="#DejaVuSans-2e" transform="translate(63.623047 0)"/>
       <use xlink:href="#DejaVuSans-30" transform="translate(95.410156 0)"/>
       <use xlink:href="#DejaVuSans-30" transform="translate(159.033203 0)"/>
      </g>
     </g>
    </g>
    <g id="text_10">
     <!-- Steps -->
     <g style="fill: #262626" transform="translate(334.927656 418.316562) scale(0.1 -0.1)">
      <defs>
       <path id="DejaVuSans-53" d="M 3425 4513 
L 3425 3897 
Q 3066 4069 2747 4153 
Q 2428 4238 2131 4238 
Q 1616 4238 1336 4038 
Q 1056 3838 1056 3469 
Q 1056 3159 1242 3001 
Q 1428 2844 1947 2747 
L 2328 2669 
Q 3034 2534 3370 2195 
Q 3706 1856 3706 1288 
Q 3706 609 3251 259 
Q 2797 -91 1919 -91 
Q 1588 -91 1214 -16 
Q 841 59 441 206 
L 441 856 
Q 825 641 1194 531 
Q 1563 422 1919 422 
Q 2459 422 2753 634 
Q 3047 847 3047 1241 
Q 3047 1584 2836 1778 
Q 2625 1972 2144 2069 
L 1759 2144 
Q 1053 2284 737 2584 
Q 422 2884 422 3419 
Q 422 4038 858 4394 
Q 1294 4750 2059 4750 
Q 2388 4750 2728 4690 
Q 3069 4631 3425 4513 
z
" transform="scale(0.015625)"/>
       <path id="DejaVuSans-74" d="M 1172 4494 
L 1172 3500 
L 2356 3500 
L 2356 3053 
L 1172 3053 
L 1172 1153 
Q 1172 725 1289 603 
Q 1406 481 1766 481 
L 2356 481 
L 2356 0 
L 1766 0 
Q 1100 0 847 248 
Q 594 497 594 1153 
L 594 3053 
L 172 3053 
L 172 3500 
L 594 3500 
L 594 4494 
L 1172 4494 
z
" transform="scale(0.015625)"/>
       <path id="DejaVuSans-65" d="M 3597 1894 
L 3597 1613 
L 953 1613 
Q 991 1019 1311 708 
Q 1631 397 2203 397 
Q 2534 397 2845 478 
Q 3156 559 3463 722 
L 3463 178 
Q 3153 47 2828 -22 
Q 2503 -91 2169 -91 
Q 1331 -91 842 396 
Q 353 884 353 1716 
Q 353 2575 817 3079 
Q 1281 3584 2069 3584 
Q 2775 3584 3186 3129 
Q 3597 2675 3597 1894 
z
M 3022 2063 
Q 3016 2534 2758 2815 
Q 2500 3097 2075 3097 
Q 1594 3097 1305 2825 
Q 1016 2553 972 2059 
L 3022 2063 
z
" transform="scale(0.015625)"/>
       <path id="DejaVuSans-70" d="M 1159 525 
L 1159 -1331 
L 581 -1331 
L 581 3500 
L 1159 3500 
L 1159 2969 
Q 1341 3281 1617 3432 
Q 1894 3584 2278 3584 
Q 2916 3584 3314 3078 
Q 3713 2572 3713 1747 
Q 3713 922 3314 415 
Q 2916 -91 2278 -91 
Q 1894 -91 1617 61 
Q 1341 213 1159 525 
z
M 3116 1747 
Q 3116 2381 2855 2742 
Q 2594 3103 2138 3103 
Q 1681 3103 1420 2742 
Q 1159 2381 1159 1747 
Q 1159 1113 1420 752 
Q 1681 391 2138 391 
Q 2594 391 2855 752 
Q 3116 1113 3116 1747 
z
" transform="scale(0.015625)"/>
       <path id="DejaVuSans-73" d="M 2834 3397 
L 2834 2853 
Q 2591 2978 2328 3040 
Q 2066 3103 1784 3103 
Q 1356 3103 1142 2972 
Q 928 2841 928 2578 
Q 928 2378 1081 2264 
Q 1234 2150 1697 2047 
L 1894 2003 
Q 2506 1872 2764 1633 
Q 3022 1394 3022 966 
Q 3022 478 2636 193 
Q 2250 -91 1575 -91 
Q 1294 -91 989 -36 
Q 684 19 347 128 
L 347 722 
Q 666 556 975 473 
Q 1284 391 1588 391 
Q 1994 391 2212 530 
Q 2431 669 2431 922 
Q 2431 1156 2273 1281 
Q 2116 1406 1581 1522 
L 1381 1569 
Q 847 1681 609 1914 
Q 372 2147 372 2553 
Q 372 3047 722 3315 
Q 1072 3584 1716 3584 
Q 2034 3584 2315 3537 
Q 2597 3491 2834 3397 
z
" transform="scale(0.015625)"/>
      </defs>
      <use xlink:href="#DejaVuSans-53"/>
      <use xlink:href="#DejaVuSans-74" transform="translate(63.476562 0)"/>
      <use xlink:href="#DejaVuSans-65" transform="translate(102.685547 0)"/>
      <use xlink:href="#DejaVuSans-70" transform="translate(164.208984 0)"/>
      <use xlink:href="#DejaVuSans-73" transform="translate(227.685547 0)"/>
     </g>
    </g>
    <g id="text_11">
     <!-- 1e6 -->
     <g style="fill: #262626" transform="translate(613.326875 417.316562) scale(0.1 -0.1)">
      <defs>
       <path id="DejaVuSans-36" d="M 2113 2584 
Q 1688 2584 1439 2293 
Q 1191 2003 1191 1497 
Q 1191 994 1439 701 
Q 1688 409 2113 409 
Q 2538 409 2786 701 
Q 3034 994 3034 1497 
Q 3034 2003 2786 2293 
Q 2538 2584 2113 2584 
z
M 3366 4563 
L 3366 3988 
Q 3128 4100 2886 4159 
Q 2644 4219 2406 4219 
Q 1781 4219 1451 3797 
Q 1122 3375 1075 2522 
Q 1259 2794 1537 2939 
Q 1816 3084 2150 3084 
Q 2853 3084 3261 2657 
Q 3669 2231 3669 1497 
Q 3669 778 3244 343 
Q 2819 -91 2113 -91 
Q 1303 -91 875 529 
Q 447 1150 447 2328 
Q 447 3434 972 4092 
Q 1497 4750 2381 4750 
Q 2619 4750 2861 4703 
Q 3103 4656 3366 4563 
z
" transform="scale(0.015625)"/>
      </defs>
      <use xlink:href="#DejaVuSans-31"/>
      <use xlink:href="#DejaVuSans-65" transform="translate(63.623047 0)"/>
      <use xlink:href="#DejaVuSans-36" transform="translate(125.146484 0)"/>
     </g>
    </g>
   </g>
   <g id="matplotlib.axis_2">
    <g id="ytick_1">
     <g id="line2d_10">
      <path d="M 65.63 390.04 
L 632.205 390.04 
" clip-path="url(#p6b30f89af3)" style="fill: none; stroke: #ffffff; stroke-width: 0.8; stroke-linecap: round"/>
     </g>
     <g id="text_12">
      <!-- −1600 -->
      <g style="fill: #262626" transform="translate(24.800313 393.839219) scale(0.1 -0.1)">
       <defs>
        <path id="DejaVuSans-2212" d="M 678 2272 
L 4684 2272 
L 4684 1741 
L 678 1741 
L 678 2272 
z
" transform="scale(0.015625)"/>
       </defs>
       <use xlink:href="#DejaVuSans-2212"/>
       <use xlink:href="#DejaVuSans-31" transform="translate(83.789062 0)"/>
       <use xlink:href="#DejaVuSans-36" transform="translate(147.412109 0)"/>
       <use xlink:href="#DejaVuSans-30" transform="translate(211.035156 0)"/>
       <use xlink:href="#DejaVuSans-30" transform="translate(274.658203 0)"/>
      </g>
     </g>
    </g>
    <g id="ytick_2">
     <g id="line2d_11">
      <path d="M 65.63 348.410775 
L 632.205 348.410775 
" clip-path="url(#p6b30f89af3)" style="fill: none; stroke: #ffffff; stroke-width: 0.8; stroke-linecap: round"/>
     </g>
     <g id="text_13">
      <!-- −1400 -->
      <g style="fill: #262626" transform="translate(24.800313 352.209994) scale(0.1 -0.1)">
       <defs>
        <path id="DejaVuSans-34" d="M 2419 4116 
L 825 1625 
L 2419 1625 
L 2419 4116 
z
M 2253 4666 
L 3047 4666 
L 3047 1625 
L 3713 1625 
L 3713 1100 
L 3047 1100 
L 3047 0 
L 2419 0 
L 2419 1100 
L 313 1100 
L 313 1709 
L 2253 4666 
z
" transform="scale(0.015625)"/>
       </defs>
       <use xlink:href="#DejaVuSans-2212"/>
       <use xlink:href="#DejaVuSans-31" transform="translate(83.789062 0)"/>
       <use xlink:href="#DejaVuSans-34" transform="translate(147.412109 0)"/>
       <use xlink:href="#DejaVuSans-30" transform="translate(211.035156 0)"/>
       <use xlink:href="#DejaVuSans-30" transform="translate(274.658203 0)"/>
      </g>
     </g>
    </g>
    <g id="ytick_3">
     <g id="line2d_12">
      <path d="M 65.63 306.78155 
L 632.205 306.78155 
" clip-path="url(#p6b30f89af3)" style="fill: none; stroke: #ffffff; stroke-width: 0.8; stroke-linecap: round"/>
     </g>
     <g id="text_14">
      <!-- −1200 -->
      <g style="fill: #262626" transform="translate(24.800313 310.580769) scale(0.1 -0.1)">
       <use xlink:href="#DejaVuSans-2212"/>
       <use xlink:href="#DejaVuSans-31" transform="translate(83.789062 0)"/>
       <use xlink:href="#DejaVuSans-32" transform="translate(147.412109 0)"/>
       <use xlink:href="#DejaVuSans-30" transform="translate(211.035156 0)"/>
       <use xlink:href="#DejaVuSans-30" transform="translate(274.658203 0)"/>
      </g>
     </g>
    </g>
    <g id="ytick_4">
     <g id="line2d_13">
      <path d="M 65.63 265.152325 
L 632.205 265.152325 
" clip-path="url(#p6b30f89af3)" style="fill: none; stroke: #ffffff; stroke-width: 0.8; stroke-linecap: round"/>
     </g>
     <g id="text_15">
      <!-- −1000 -->
      <g style="fill: #262626" transform="translate(24.800313 268.951544) scale(0.1 -0.1)">
       <use xlink:href="#DejaVuSans-2212"/>
       <use xlink:href="#DejaVuSans-31" transform="translate(83.789062 0)"/>
       <use xlink:href="#DejaVuSans-30" transform="translate(147.412109 0)"/>
       <use xlink:href="#DejaVuSans-30" transform="translate(211.035156 0)"/>
       <use xlink:href="#DejaVuSans-30" transform="translate(274.658203 0)"/>
      </g>
     </g>
    </g>
    <g id="ytick_5">
     <g id="line2d_14">
      <path d="M 65.63 223.5231 
L 632.205 223.5231 
" clip-path="url(#p6b30f89af3)" style="fill: none; stroke: #ffffff; stroke-width: 0.8; stroke-linecap: round"/>
     </g>
     <g id="text_16">
      <!-- −800 -->
      <g style="fill: #262626" transform="translate(31.162813 227.322319) scale(0.1 -0.1)">
       <defs>
        <path id="DejaVuSans-38" d="M 2034 2216 
Q 1584 2216 1326 1975 
Q 1069 1734 1069 1313 
Q 1069 891 1326 650 
Q 1584 409 2034 409 
Q 2484 409 2743 651 
Q 3003 894 3003 1313 
Q 3003 1734 2745 1975 
Q 2488 2216 2034 2216 
z
M 1403 2484 
Q 997 2584 770 2862 
Q 544 3141 544 3541 
Q 544 4100 942 4425 
Q 1341 4750 2034 4750 
Q 2731 4750 3128 4425 
Q 3525 4100 3525 3541 
Q 3525 3141 3298 2862 
Q 3072 2584 2669 2484 
Q 3125 2378 3379 2068 
Q 3634 1759 3634 1313 
Q 3634 634 3220 271 
Q 2806 -91 2034 -91 
Q 1263 -91 848 271 
Q 434 634 434 1313 
Q 434 1759 690 2068 
Q 947 2378 1403 2484 
z
M 1172 3481 
Q 1172 3119 1398 2916 
Q 1625 2713 2034 2713 
Q 2441 2713 2670 2916 
Q 2900 3119 2900 3481 
Q 2900 3844 2670 4047 
Q 2441 4250 2034 4250 
Q 1625 4250 1398 4047 
Q 1172 3844 1172 3481 
z
" transform="scale(0.015625)"/>
       </defs>
       <use xlink:href="#DejaVuSans-2212"/>
       <use xlink:href="#DejaVuSans-38" transform="translate(83.789062 0)"/>
       <use xlink:href="#DejaVuSans-30" transform="translate(147.412109 0)"/>
       <use xlink:href="#DejaVuSans-30" transform="translate(211.035156 0)"/>
      </g>
     </g>
    </g>
    <g id="ytick_6">
     <g id="line2d_15">
      <path d="M 65.63 181.893875 
L 632.205 181.893875 
" clip-path="url(#p6b30f89af3)" style="fill: none; stroke: #ffffff; stroke-width: 0.8; stroke-linecap: round"/>
     </g>
     <g id="text_17">
      <!-- −600 -->
      <g style="fill: #262626" transform="translate(31.162813 185.693094) scale(0.1 -0.1)">
       <use xlink:href="#DejaVuSans-2212"/>
       <use xlink:href="#DejaVuSans-36" transform="translate(83.789062 0)"/>
       <use xlink:href="#DejaVuSans-30" transform="translate(147.412109 0)"/>
       <use xlink:href="#DejaVuSans-30" transform="translate(211.035156 0)"/>
      </g>
     </g>
    </g>
    <g id="ytick_7">
     <g id="line2d_16">
      <path d="M 65.63 140.26465 
L 632.205 140.26465 
" clip-path="url(#p6b30f89af3)" style="fill: none; stroke: #ffffff; stroke-width: 0.8; stroke-linecap: round"/>
     </g>
     <g id="text_18">
      <!-- −400 -->
      <g style="fill: #262626" transform="translate(31.162813 144.063869) scale(0.1 -0.1)">
       <use xlink:href="#DejaVuSans-2212"/>
       <use xlink:href="#DejaVuSans-34" transform="translate(83.789062 0)"/>
       <use xlink:href="#DejaVuSans-30" transform="translate(147.412109 0)"/>
       <use xlink:href="#DejaVuSans-30" transform="translate(211.035156 0)"/>
      </g>
     </g>
    </g>
    <g id="ytick_8">
     <g id="line2d_17">
      <path d="M 65.63 98.635425 
L 632.205 98.635425 
" clip-path="url(#p6b30f89af3)" style="fill: none; stroke: #ffffff; stroke-width: 0.8; stroke-linecap: round"/>
     </g>
     <g id="text_19">
      <!-- −200 -->
      <g style="fill: #262626" transform="translate(31.162813 102.434644) scale(0.1 -0.1)">
       <use xlink:href="#DejaVuSans-2212"/>
       <use xlink:href="#DejaVuSans-32" transform="translate(83.789062 0)"/>
       <use xlink:href="#DejaVuSans-30" transform="translate(147.412109 0)"/>
       <use xlink:href="#DejaVuSans-30" transform="translate(211.035156 0)"/>
      </g>
     </g>
    </g>
    <g id="ytick_9">
     <g id="line2d_18">
      <path d="M 65.63 57.0062 
L 632.205 57.0062 
" clip-path="url(#p6b30f89af3)" style="fill: none; stroke: #ffffff; stroke-width: 0.8; stroke-linecap: round"/>
     </g>
     <g id="text_20">
      <!-- 0 -->
      <g style="fill: #262626" transform="translate(52.2675 60.805419) scale(0.1 -0.1)">
       <use xlink:href="#DejaVuSans-30"/>
      </g>
     </g>
    </g>
    <g id="text_21">
     <!-- Reward -->
     <g style="fill: #262626" transform="translate(18.720625 242.144194) rotate(-90) scale(0.1 -0.1)">
      <defs>
       <path id="DejaVuSans-52" d="M 2841 2188 
Q 3044 2119 3236 1894 
Q 3428 1669 3622 1275 
L 4263 0 
L 3584 0 
L 2988 1197 
Q 2756 1666 2539 1819 
Q 2322 1972 1947 1972 
L 1259 1972 
L 1259 0 
L 628 0 
L 628 4666 
L 2053 4666 
Q 2853 4666 3247 4331 
Q 3641 3997 3641 3322 
Q 3641 2881 3436 2590 
Q 3231 2300 2841 2188 
z
M 1259 4147 
L 1259 2491 
L 2053 2491 
Q 2509 2491 2742 2702 
Q 2975 2913 2975 3322 
Q 2975 3731 2742 3939 
Q 2509 4147 2053 4147 
L 1259 4147 
z
" transform="scale(0.015625)"/>
       <path id="DejaVuSans-77" d="M 269 3500 
L 844 3500 
L 1563 769 
L 2278 3500 
L 2956 3500 
L 3675 769 
L 4391 3500 
L 4966 3500 
L 4050 0 
L 3372 0 
L 2619 2869 
L 1863 0 
L 1184 0 
L 269 3500 
z
" transform="scale(0.015625)"/>
       <path id="DejaVuSans-61" d="M 2194 1759 
Q 1497 1759 1228 1600 
Q 959 1441 959 1056 
Q 959 750 1161 570 
Q 1363 391 1709 391 
Q 2188 391 2477 730 
Q 2766 1069 2766 1631 
L 2766 1759 
L 2194 1759 
z
M 3341 1997 
L 3341 0 
L 2766 0 
L 2766 531 
Q 2569 213 2275 61 
Q 1981 -91 1556 -91 
Q 1019 -91 701 211 
Q 384 513 384 1019 
Q 384 1609 779 1909 
Q 1175 2209 1959 2209 
L 2766 2209 
L 2766 2266 
Q 2766 2663 2505 2880 
Q 2244 3097 1772 3097 
Q 1472 3097 1187 3025 
Q 903 2953 641 2809 
L 641 3341 
Q 956 3463 1253 3523 
Q 1550 3584 1831 3584 
Q 2591 3584 2966 3190 
Q 3341 2797 3341 1997 
z
" transform="scale(0.015625)"/>
       <path id="DejaVuSans-72" d="M 2631 2963 
Q 2534 3019 2420 3045 
Q 2306 3072 2169 3072 
Q 1681 3072 1420 2755 
Q 1159 2438 1159 1844 
L 1159 0 
L 581 0 
L 581 3500 
L 1159 3500 
L 1159 2956 
Q 1341 3275 1631 3429 
Q 1922 3584 2338 3584 
Q 2397 3584 2469 3576 
Q 2541 3569 2628 3553 
L 2631 2963 
z
" transform="scale(0.015625)"/>
       <path id="DejaVuSans-64" d="M 2906 2969 
L 2906 4863 
L 3481 4863 
L 3481 0 
L 2906 0 
L 2906 525 
Q 2725 213 2448 61 
Q 2172 -91 1784 -91 
Q 1150 -91 751 415 
Q 353 922 353 1747 
Q 353 2572 751 3078 
Q 1150 3584 1784 3584 
Q 2172 3584 2448 3432 
Q 2725 3281 2906 2969 
z
M 947 1747 
Q 947 1113 1208 752 
Q 1469 391 1925 391 
Q 2381 391 2643 752 
Q 2906 1113 2906 1747 
Q 2906 2381 2643 2742 
Q 2381 3103 1925 3103 
Q 1469 3103 1208 2742 
Q 947 2381 947 1747 
z
" transform="scale(0.015625)"/>
      </defs>
      <use xlink:href="#DejaVuSans-52"/>
      <use xlink:href="#DejaVuSans-65" transform="translate(64.982422 0)"/>
      <use xlink:href="#DejaVuSans-77" transform="translate(126.505859 0)"/>
      <use xlink:href="#DejaVuSans-61" transform="translate(208.292969 0)"/>
      <use xlink:href="#DejaVuSans-72" transform="translate(269.572266 0)"/>
      <use xlink:href="#DejaVuSans-64" transform="translate(308.935547 0)"/>
     </g>
    </g>
   </g>
   <g id="FillBetweenPolyCollection_1">
    <path d="M 65.63083 301.887582 
L 65.63083 321.077197 
L 71.296563 316.280653 
L 76.962297 324.122622 
L 82.62803 322.006128 
L 88.293764 307.046301 
L 93.959497 296.023124 
L 99.62523 297.204895 
L 105.290964 297.496695 
L 110.956697 280.881026 
L 116.622431 303.61679 
L 122.288164 289.743557 
L 127.953897 287.312931 
L 133.619631 292.448151 
L 139.285364 286.874565 
L 144.951098 287.031262 
L 150.616831 295.666227 
L 156.282564 283.133252 
L 161.948298 273.58767 
L 167.614031 291.54782 
L 173.279765 276.494333 
L 178.945498 277.990011 
L 184.611231 294.097919 
L 190.276965 271.423441 
L 195.942698 285.694781 
L 201.608432 282.110304 
L 207.274165 279.676209 
L 212.939898 272.02124 
L 218.605632 274.088142 
L 224.271365 258.952709 
L 229.937099 255.328804 
L 235.602832 246.542427 
L 241.268565 235.140741 
L 246.934299 237.341454 
L 252.600032 214.542852 
L 258.265766 255.453427 
L 263.931499 238.327728 
L 269.597232 253.334304 
L 275.262966 262.289327 
L 280.928699 262.231365 
L 286.594433 255.410667 
L 292.260166 229.779362 
L 297.925899 288.012137 
L 303.591633 262.678554 
L 309.257366 259.439655 
L 314.9231 253.829171 
L 320.588833 253.49382 
L 326.254566 260.141501 
L 331.9203 264.779525 
L 337.586033 261.313807 
L 343.251767 264.339953 
L 348.9175 262.016155 
L 354.583233 261.725214 
L 360.248967 252.27083 
L 365.9147 238.361655 
L 371.580434 267.531526 
L 377.246167 261.935571 
L 382.9119 267.348088 
L 388.577634 283.607305 
L 394.243367 292.828967 
L 399.909101 267.062032 
L 405.574834 284.830285 
L 411.240567 270.02597 
L 416.906301 273.780031 
L 422.572034 276.62619 
L 428.237768 277.87686 
L 433.903501 276.469221 
L 439.569234 262.183633 
L 445.234968 261.478322 
L 450.900701 246.782217 
L 456.566435 244.101394 
L 462.232168 231.951163 
L 467.897901 235.654957 
L 473.563635 233.644074 
L 479.229368 241.82284 
L 484.895102 238.760523 
L 490.560835 239.478268 
L 496.226568 237.105454 
L 501.892302 224.867138 
L 507.558035 262.737658 
L 513.223769 268.053205 
L 518.889502 263.533921 
L 524.555235 257.000155 
L 530.220969 251.696129 
L 535.886702 254.153103 
L 541.552436 234.0634 
L 547.218169 278.788915 
L 552.883902 282.299948 
L 558.549636 283.13306 
L 564.215369 288.983144 
L 569.881103 272.611257 
L 575.546836 281.715809 
L 581.212569 263.695283 
L 586.878303 271.101486 
L 592.544036 270.637247 
L 598.20977 262.870345 
L 603.875503 250.853071 
L 609.541236 254.016666 
L 615.20697 262.45375 
L 620.872703 269.740979 
L 626.538437 274.996611 
L 626.538437 152.736002 
L 626.538437 152.736002 
L 620.872703 153.145188 
L 615.20697 127.210043 
L 609.541236 121.884403 
L 603.875503 116.528531 
L 598.20977 125.248878 
L 592.544036 129.622501 
L 586.878303 122.459212 
L 581.212569 122.52952 
L 575.546836 124.422869 
L 569.881103 142.693804 
L 564.215369 133.089107 
L 558.549636 136.69276 
L 552.883902 120.984496 
L 547.218169 137.915386 
L 541.552436 111.513224 
L 535.886702 125.559608 
L 530.220969 121.443152 
L 524.555235 111.111967 
L 518.889502 105.129407 
L 513.223769 120.849633 
L 507.558035 96.045147 
L 501.892302 80.594941 
L 496.226568 90.616868 
L 490.560835 82.106938 
L 484.895102 72.888255 
L 479.229368 86.112077 
L 473.563635 69.816971 
L 467.897901 77.282153 
L 462.232168 74.304009 
L 456.566435 65.979809 
L 450.900701 76.62267 
L 445.234968 85.767704 
L 439.569234 86.822901 
L 433.903501 89.61519 
L 428.237768 86.570388 
L 422.572034 90.54015 
L 416.906301 93.406167 
L 411.240567 93.83017 
L 405.574834 91.229393 
L 399.909101 84.973986 
L 394.243367 126.862385 
L 388.577634 99.728224 
L 382.9119 87.871693 
L 377.246167 92.502556 
L 371.580434 88.765202 
L 365.9147 93.341772 
L 360.248967 101.081289 
L 354.583233 99.683787 
L 348.9175 97.050756 
L 343.251767 95.999741 
L 337.586033 106.94574 
L 331.9203 121.344311 
L 326.254566 127.537489 
L 320.588833 126.697747 
L 314.9231 131.356733 
L 309.257366 142.744955 
L 303.591633 161.428079 
L 297.925899 153.352632 
L 292.260166 137.819703 
L 286.594433 144.98117 
L 280.928699 161.261518 
L 275.262966 195.594284 
L 269.597232 161.315156 
L 263.931499 147.945017 
L 258.265766 142.860306 
L 252.600032 133.986627 
L 246.934299 132.882414 
L 241.268565 138.246969 
L 235.602832 144.145281 
L 229.937099 163.054154 
L 224.271365 156.430815 
L 218.605632 161.69471 
L 212.939898 158.256009 
L 207.274165 171.906958 
L 201.608432 190.847281 
L 195.942698 184.157004 
L 190.276965 201.658157 
L 184.611231 220.830722 
L 178.945498 228.230512 
L 173.279765 233.148015 
L 167.614031 237.123396 
L 161.948298 252.247211 
L 156.282564 250.585343 
L 150.616831 260.079944 
L 144.951098 255.865504 
L 139.285364 256.734713 
L 133.619631 262.997449 
L 127.953897 260.447287 
L 122.288164 262.255388 
L 116.622431 276.707896 
L 110.956697 259.817558 
L 105.290964 275.354959 
L 99.62523 270.267418 
L 93.959497 284.761443 
L 88.293764 284.392889 
L 82.62803 264.110718 
L 76.962297 287.756036 
L 71.296563 296.645248 
L 65.63083 301.887582 
z
" clip-path="url(#p6b30f89af3)" style="fill: #0000ff; fill-opacity: 0.1"/>
   </g>
   <g id="line2d_19">
    <path d="M 65.63083 311.482389 
L 71.296563 306.462951 
L 76.962297 305.939329 
L 82.62803 293.058423 
L 88.293764 295.719595 
L 93.959497 290.392283 
L 99.62523 283.736157 
L 105.290964 286.425827 
L 110.956697 270.349292 
L 116.622431 290.162343 
L 122.288164 275.999472 
L 127.953897 273.880109 
L 133.619631 277.7228 
L 139.285364 271.804639 
L 144.951098 271.448383 
L 150.616831 277.873085 
L 156.282564 266.859297 
L 161.948298 262.917441 
L 167.614031 264.335608 
L 173.279765 254.821174 
L 178.945498 253.110262 
L 184.611231 257.464321 
L 190.276965 236.540799 
L 195.942698 234.925893 
L 201.608432 236.478792 
L 207.274165 225.791584 
L 212.939898 215.138625 
L 218.605632 217.891426 
L 224.271365 207.691762 
L 229.937099 209.191479 
L 235.602832 195.343854 
L 241.268565 186.693855 
L 246.934299 185.111934 
L 252.600032 174.26474 
L 258.265766 199.156866 
L 263.931499 193.136372 
L 269.597232 207.32473 
L 275.262966 228.941805 
L 280.928699 211.746442 
L 286.594433 200.195919 
L 292.260166 183.799532 
L 297.925899 220.682384 
L 303.591633 212.053317 
L 309.257366 201.092305 
L 314.9231 192.592952 
L 320.588833 190.095783 
L 326.254566 193.839495 
L 331.9203 193.061918 
L 337.586033 184.129773 
L 343.251767 180.169847 
L 348.9175 179.533455 
L 354.583233 180.7045 
L 360.248967 176.676059 
L 365.9147 165.851714 
L 371.580434 178.148364 
L 377.246167 177.219063 
L 382.9119 177.609891 
L 388.577634 191.667765 
L 394.243367 209.845676 
L 399.909101 176.018009 
L 405.574834 188.029839 
L 411.240567 181.92807 
L 416.906301 183.593099 
L 422.572034 183.58317 
L 428.237768 182.223624 
L 433.903501 183.042205 
L 439.569234 174.503267 
L 445.234968 173.623013 
L 450.900701 161.702443 
L 456.566435 155.040601 
L 462.232168 153.127586 
L 467.897901 156.468555 
L 473.563635 151.730522 
L 479.229368 163.967459 
L 484.895102 155.824389 
L 490.560835 160.792603 
L 496.226568 163.861161 
L 501.892302 152.73104 
L 507.558035 179.391402 
L 513.223769 194.451419 
L 518.889502 184.331664 
L 524.555235 184.056061 
L 530.220969 186.56964 
L 535.886702 189.856356 
L 541.552436 172.788312 
L 547.218169 208.352151 
L 552.883902 201.642222 
L 558.549636 209.91291 
L 564.215369 211.036125 
L 569.881103 207.652531 
L 575.546836 203.069339 
L 581.212569 193.112402 
L 586.878303 196.780349 
L 592.544036 200.129874 
L 598.20977 194.059611 
L 603.875503 183.690801 
L 609.541236 187.950535 
L 615.20697 194.831897 
L 620.872703 211.443083 
L 626.538437 213.866307 
" clip-path="url(#p6b30f89af3)" style="fill: none; stroke: #0000ff; stroke-width: 1.5; stroke-linecap: round"/>
   </g>
   <g id="line2d_20">
    <path d="M 65.63083 318.406952 
L 71.296563 303.290695 
L 76.962297 295.158493 
L 82.62803 277.46457 
L 88.293764 283.514735 
L 93.959497 291.155612 
L 99.62523 265.862796 
L 105.290964 284.704055 
L 110.956697 274.253992 
L 116.622431 285.020104 
L 122.288164 278.719679 
L 127.953897 267.424987 
L 133.619631 295.865185 
L 139.285364 268.55486 
L 144.951098 290.418748 
L 150.616831 304.540427 
L 156.282564 272.498116 
L 161.948298 266.98561 
L 167.614031 282.745668 
L 173.279765 285.110122 
L 178.945498 283.420305 
L 184.611231 305.81555 
L 190.276965 283.105146 
L 195.942698 286.857211 
L 201.608432 279.256775 
L 207.274165 288.712189 
L 212.939898 281.016062 
L 218.605632 279.399218 
L 224.271365 271.962472 
L 229.937099 260.002677 
L 235.602832 252.654647 
L 241.268565 250.38548 
L 246.934299 266.103716 
L 252.600032 220.435537 
L 258.265766 236.753735 
L 263.931499 198.621811 
L 269.597232 209.207782 
L 275.262966 205.80438 
L 280.928699 219.381454 
L 286.594433 162.533826 
L 292.260166 169.270168 
L 297.925899 147.060684 
L 303.591633 131.543048 
L 309.257366 143.633364 
L 314.9231 133.671935 
L 320.588833 122.663834 
L 326.254566 118.873796 
L 331.9203 157.934699 
L 337.586033 133.534302 
L 343.251767 131.959719 
L 348.9175 122.6326 
L 354.583233 133.647831 
L 360.248967 146.161826 
L 365.9147 102.905714 
L 371.580434 144.775893 
L 377.246167 139.101009 
L 382.9119 148.942324 
L 388.577634 110.823944 
L 394.243367 183.807016 
L 399.909101 122.078028 
L 405.574834 120.801999 
L 411.240567 114.911296 
L 416.906301 129.683249 
L 422.572034 110.970523 
L 428.237768 93.93836 
L 433.903501 103.14606 
L 439.569234 101.326805 
L 445.234968 110.952952 
L 450.900701 113.570044 
L 456.566435 104.972209 
L 462.232168 103.17862 
L 467.897901 97.733534 
L 473.563635 102.183948 
L 479.229368 165.996117 
L 484.895102 128.393509 
L 490.560835 134.754416 
L 496.226568 162.763623 
L 501.892302 135.727899 
L 507.558035 121.051408 
L 513.223769 172.532651 
L 518.889502 143.204698 
L 524.555235 156.903221 
L 530.220969 141.058533 
L 535.886702 151.890382 
L 541.552436 149.255704 
L 547.218169 139.257833 
L 552.883902 105.656916 
L 558.549636 150.362105 
L 564.215369 150.249106 
L 569.881103 164.484443 
L 575.546836 127.53956 
L 581.212569 116.413944 
L 586.878303 117.737015 
L 592.544036 124.858535 
L 598.20977 134.169281 
L 603.875503 112.663019 
L 609.541236 122.101791 
L 615.20697 112.298396 
L 620.872703 224.926108 
L 626.538437 217.371957 
" clip-path="url(#p6b30f89af3)" style="fill: none; stroke: #008000; stroke-opacity: 0.2; stroke-linecap: round"/>
   </g>
   <g id="line2d_21">
    <path d="M 65.63083 292.570866 
L 71.296563 294.875965 
L 76.962297 296.331092 
L 82.62803 271.208732 
L 88.293764 286.348612 
L 93.959497 286.161755 
L 99.62523 295.303527 
L 105.290964 279.254803 
L 110.956697 277.041913 
L 116.622431 277.17029 
L 122.288164 264.316114 
L 127.953897 257.668356 
L 133.619631 256.0311 
L 139.285364 267.638875 
L 144.951098 263.915768 
L 150.616831 253.447688 
L 156.282564 274.674663 
L 161.948298 257.348241 
L 167.614031 252.602508 
L 173.279765 252.862439 
L 178.945498 240.324252 
L 184.611231 258.079916 
L 190.276965 216.972426 
L 195.942698 229.252811 
L 201.608432 239.249329 
L 207.274165 216.181767 
L 212.939898 208.329065 
L 218.605632 195.254868 
L 224.271365 196.988242 
L 229.937099 181.589764 
L 235.602832 165.06662 
L 241.268565 163.064118 
L 246.934299 146.03543 
L 252.600032 148.712065 
L 258.265766 123.889594 
L 263.931499 129.624149 
L 269.597232 120.207872 
L 275.262966 268.436538 
L 280.928699 265.048882 
L 286.594433 261.615404 
L 292.260166 201.58326 
L 297.925899 218.048278 
L 303.591633 204.168729 
L 309.257366 187.918056 
L 314.9231 175.535788 
L 320.588833 138.094662 
L 326.254566 155.852349 
L 331.9203 144.216951 
L 337.586033 105.853096 
L 343.251767 92.365937 
L 348.9175 113.680938 
L 354.583233 114.004632 
L 360.248967 102.005113 
L 365.9147 112.186507 
L 371.580434 100.467662 
L 377.246167 109.357326 
L 382.9119 100.46304 
L 388.577634 259.448226 
L 394.243367 276.300678 
L 399.909101 189.757597 
L 405.574834 268.431355 
L 411.240567 213.535028 
L 416.906301 189.777101 
L 422.572034 196.421294 
L 428.237768 222.864946 
L 433.903501 226.461312 
L 439.569234 229.898839 
L 445.234968 177.866375 
L 450.900701 144.454361 
L 456.566435 131.31579 
L 462.232168 149.422473 
L 467.897901 140.350841 
L 473.563635 123.281149 
L 479.229368 112.007407 
L 484.895102 121.415434 
L 490.560835 130.948774 
L 496.226568 146.471485 
L 501.892302 130.619399 
L 507.558035 126.527095 
L 513.223769 133.700926 
L 518.889502 107.324538 
L 524.555235 100.690452 
L 530.220969 115.603714 
L 535.886702 112.737168 
L 541.552436 96.768665 
L 547.218169 111.878625 
L 552.883902 107.332862 
L 558.549636 103.807992 
L 564.215369 101.764434 
L 569.881103 110.890381 
L 575.546836 100.065915 
L 581.212569 105.843054 
L 586.878303 103.79082 
L 592.544036 117.873373 
L 598.20977 101.141532 
L 603.875503 103.906405 
L 609.541236 105.465868 
L 615.20697 113.455847 
L 620.872703 98.813204 
L 626.538437 99.142184 
" clip-path="url(#p6b30f89af3)" style="fill: none; stroke: #008000; stroke-opacity: 0.2; stroke-linecap: round"/>
   </g>
   <g id="line2d_22">
    <path d="M 65.63083 314.876847 
L 71.296563 321.465565 
L 76.962297 293.50289 
L 82.62803 279.580944 
L 88.293764 304.779307 
L 93.959497 300.387835 
L 99.62523 300.339384 
L 105.290964 301.312831 
L 110.956697 275.528259 
L 116.622431 314.852292 
L 122.288164 294.498422 
L 127.953897 283.944132 
L 133.619631 292.52072 
L 139.285364 301.112372 
L 144.951098 289.189947 
L 150.616831 285.474028 
L 156.282564 283.212121 
L 161.948298 278.976305 
L 167.614031 308.121867 
L 173.279765 273.04037 
L 178.945498 277.927533 
L 184.611231 282.961272 
L 190.276965 267.212403 
L 195.942698 283.699544 
L 201.608432 284.325883 
L 207.274165 279.727884 
L 212.939898 271.870523 
L 218.605632 288.532263 
L 224.271365 261.026708 
L 229.937099 262.733897 
L 235.602832 261.944385 
L 241.268565 236.936364 
L 246.934299 228.520516 
L 252.600032 222.689642 
L 258.265766 222.342552 
L 263.931499 219.038722 
L 269.597232 220.10305 
L 275.262966 183.632661 
L 280.928699 187.663646 
L 286.594433 171.032966 
L 292.260166 146.703569 
L 297.925899 151.196763 
L 303.591633 194.708363 
L 309.257366 136.501498 
L 314.9231 125.684964 
L 320.588833 158.89256 
L 326.254566 150.472094 
L 331.9203 111.337791 
L 337.586033 130.417357 
L 343.251767 115.209016 
L 348.9175 105.114192 
L 354.583233 104.210793 
L 360.248967 108.308535 
L 365.9147 124.060956 
L 371.580434 102.108785 
L 377.246167 113.203904 
L 382.9119 105.440633 
L 388.577634 103.499972 
L 394.243367 102.49029 
L 399.909101 90.454932 
L 405.574834 90.503022 
L 411.240567 95.151447 
L 416.906301 89.802555 
L 422.572034 99.166696 
L 428.237768 101.584249 
L 433.903501 114.889319 
L 439.569234 98.246858 
L 445.234968 101.627042 
L 450.900701 93.727633 
L 456.566435 95.55084 
L 462.232168 85.713914 
L 467.897901 97.11206 
L 473.563635 99.442745 
L 479.229368 103.357133 
L 484.895102 87.057621 
L 490.560835 93.567789 
L 496.226568 91.25752 
L 501.892302 85.710038 
L 507.558035 96.300649 
L 513.223769 113.369747 
L 518.889502 120.091893 
L 524.555235 125.31315 
L 530.220969 149.221381 
L 535.886702 156.594113 
L 541.552436 129.976543 
L 547.218169 267.805126 
L 552.883902 273.743358 
L 558.549636 267.307649 
L 564.215369 269.41083 
L 569.881103 246.202111 
L 575.546836 270.378116 
L 581.212569 252.334701 
L 586.878303 263.761533 
L 592.544036 272.005643 
L 598.20977 271.592438 
L 603.875503 245.535489 
L 609.541236 241.762134 
L 615.20697 248.897981 
L 620.872703 231.162744 
L 626.538437 248.055468 
" clip-path="url(#p6b30f89af3)" style="fill: none; stroke: #008000; stroke-opacity: 0.2; stroke-linecap: round"/>
   </g>
   <g id="line2d_23">
    <path d="M 65.63083 317.549023 
L 71.296563 298.841034 
L 76.962297 341.732409 
L 82.62803 350.071693 
L 88.293764 313.029634 
L 93.959497 284.059634 
L 99.62523 286.496073 
L 105.290964 296.054973 
L 110.956697 275.56233 
L 116.622431 293.161169 
L 122.288164 256.862822 
L 127.953897 265.741773 
L 133.619631 271.03552 
L 139.285364 258.734692 
L 144.951098 251.518489 
L 150.616831 263.758799 
L 156.282564 235.836114 
L 161.948298 246.754533 
L 167.614031 234.895567 
L 173.279765 229.096037 
L 178.945498 216.119702 
L 184.611231 198.445272 
L 190.276965 186.15113 
L 195.942698 147.012205 
L 201.608432 158.774306 
L 207.274165 142.115421 
L 212.939898 126.672003 
L 218.605632 147.195544 
L 224.271365 141.308482 
L 229.937099 143.54454 
L 235.602832 141.972059 
L 241.268565 125.436309 
L 246.934299 146.230644 
L 252.600032 157.042208 
L 258.265766 142.660119 
L 263.931499 159.396586 
L 269.597232 233.469625 
L 275.262966 221.134449 
L 280.928699 127.801634 
L 286.594433 135.121608 
L 292.260166 137.101849 
L 297.925899 323.47676 
L 303.591633 278.692794 
L 309.257366 279.480163 
L 314.9231 276.320832 
L 320.588833 281.632491 
L 326.254566 292.225343 
L 331.9203 304.986325 
L 337.586033 303.226283 
L 343.251767 302.724589 
L 348.9175 305.193433 
L 354.583233 309.068999 
L 360.248967 297.596147 
L 365.9147 295.818069 
L 371.580434 340.668895 
L 377.246167 337.31364 
L 382.9119 345.480617 
L 388.577634 337.774304 
L 394.243367 331.551407 
L 399.909101 346.411389 
L 405.574834 336.973537 
L 411.240567 338.731809 
L 416.906301 351.597861 
L 422.572034 356.490227 
L 428.237768 350.217797 
L 433.903501 347.731312 
L 439.569234 320.96844 
L 445.234968 341.203234 
L 450.900701 328.545511 
L 456.566435 331.609803 
L 462.232168 304.995604 
L 467.897901 310.503014 
L 473.563635 314.504304 
L 479.229368 313.631095 
L 484.895102 319.101339 
L 490.560835 315.329099 
L 496.226568 301.872708 
L 501.892302 292.735216 
L 507.558035 313.656611 
L 513.223769 314.62596 
L 518.889502 314.161845 
L 524.555235 292.578887 
L 530.220969 284.385289 
L 535.886702 288.234621 
L 541.552436 259.36198 
L 547.218169 289.344191 
L 552.883902 294.186559 
L 558.549636 301.772858 
L 564.215369 317.370997 
L 569.881103 298.633642 
L 575.546836 302.817564 
L 581.212569 280.256063 
L 586.878303 286.176566 
L 592.544036 285.324984 
L 598.20977 267.818159 
L 603.875503 269.168353 
L 609.541236 275.960774 
L 615.20697 265.145187 
L 620.872703 268.226196 
L 626.538437 278.601189 
" clip-path="url(#p6b30f89af3)" style="fill: none; stroke: #008000; stroke-opacity: 0.2; stroke-linecap: round"/>
   </g>
   <g id="line2d_24">
    <path d="M 65.63083 314.008259 
L 71.296563 313.841496 
L 76.962297 302.97176 
L 82.62803 286.966175 
L 88.293764 290.925687 
L 93.959497 290.19658 
L 99.62523 270.679004 
L 105.290964 270.802473 
L 110.956697 249.359967 
L 116.622431 280.60786 
L 122.288164 285.600324 
L 127.953897 294.621298 
L 133.619631 273.161473 
L 139.285364 262.982396 
L 144.951098 262.198963 
L 150.616831 282.144484 
L 156.282564 268.075473 
L 161.948298 264.522515 
L 167.614031 243.312431 
L 173.279765 233.996901 
L 178.945498 247.759518 
L 184.611231 242.019594 
L 190.276965 229.26289 
L 195.942698 227.807691 
L 201.608432 220.787669 
L 207.274165 202.220659 
L 212.939898 187.80547 
L 218.605632 179.075237 
L 224.271365 167.172906 
L 229.937099 198.086517 
L 235.602832 155.081559 
L 241.268565 157.647006 
L 246.934299 138.669365 
L 252.600032 122.444248 
L 258.265766 270.138331 
L 263.931499 259.000593 
L 269.597232 253.63532 
L 275.262966 265.700999 
L 280.928699 258.836592 
L 286.594433 270.675788 
L 292.260166 264.338816 
L 297.925899 263.629436 
L 303.591633 251.15365 
L 309.257366 257.928445 
L 314.9231 251.751239 
L 320.588833 249.195369 
L 326.254566 251.773892 
L 331.9203 246.833823 
L 337.586033 247.617827 
L 343.251767 258.589973 
L 348.9175 251.046115 
L 354.583233 242.590247 
L 360.248967 229.308675 
L 365.9147 194.287322 
L 371.580434 202.720585 
L 377.246167 187.119438 
L 382.9119 187.72284 
L 388.577634 146.792378 
L 394.243367 155.078989 
L 399.909101 131.388101 
L 405.574834 123.439282 
L 411.240567 147.31077 
L 416.906301 157.10473 
L 422.572034 154.867109 
L 428.237768 142.512771 
L 433.903501 122.983025 
L 439.569234 122.075392 
L 445.234968 136.465464 
L 450.900701 128.214668 
L 456.566435 111.754364 
L 462.232168 122.327319 
L 467.897901 136.643326 
L 473.563635 119.240465 
L 479.229368 124.845543 
L 484.895102 123.154044 
L 490.560835 129.362938 
L 496.226568 116.94047 
L 501.892302 118.862648 
L 507.558035 239.421249 
L 513.223769 238.027811 
L 518.889502 236.875348 
L 524.555235 244.794596 
L 530.220969 242.579286 
L 535.886702 239.825494 
L 541.552436 228.57867 
L 547.218169 233.474977 
L 552.883902 227.291417 
L 558.549636 226.313945 
L 564.215369 216.385259 
L 569.881103 218.052077 
L 575.546836 214.545539 
L 581.212569 210.714247 
L 586.878303 212.435811 
L 592.544036 200.586835 
L 598.20977 195.576645 
L 603.875503 187.18074 
L 609.541236 194.462106 
L 615.20697 234.362073 
L 620.872703 234.087164 
L 626.538437 226.160736 
" clip-path="url(#p6b30f89af3)" style="fill: none; stroke: #008000; stroke-opacity: 0.2; stroke-linecap: round"/>
   </g>
   <g id="line2d_25">
    <path d="M 65.63083 57.0062 
L 71.296563 59.429324 
L 76.962297 69.98411 
L 82.62803 97.525122 
L 88.293764 121.851722 
L 93.959497 152.279203 
L 99.62523 207.765031 
L 105.290964 236.658239 
L 110.956697 254.7718 
L 116.622431 258.639865 
L 122.288164 269.989537 
L 127.953897 278.600589 
L 133.619631 275.045351 
L 139.285364 288.061245 
L 144.951098 302.232104 
L 150.616831 298.239041 
L 156.282564 303.436152 
L 161.948298 304.176183 
L 167.614031 306.417655 
L 173.279765 301.68771 
L 178.945498 294.427286 
L 184.611231 289.111488 
L 190.276965 302.37684 
L 195.942698 304.494955 
L 201.608432 305.631945 
L 207.274165 318.335746 
L 212.939898 329.584883 
L 218.605632 325.178795 
L 224.271365 329.101751 
L 229.937099 325.399981 
L 235.602832 337.628138 
L 241.268565 341.334131 
L 246.934299 345.511873 
L 252.600032 349.790744 
L 258.265766 346.505514 
L 263.931499 346.454139 
L 269.597232 343.83165 
L 275.262966 328.665303 
L 280.928699 336.646522 
L 286.594433 326.83696 
L 292.260166 330.648025 
L 297.925899 325.994783 
L 303.591633 292.484372 
L 309.257366 308.727673 
L 314.9231 314.27052 
L 320.588833 319.733716 
L 326.254566 324.72108 
L 331.9203 321.252854 
L 337.586033 333.670369 
L 343.251767 345.108751 
L 348.9175 342.635666 
L 354.583233 343.779424 
L 360.248967 338.283774 
L 365.9147 343.118013 
L 371.580434 354.755599 
L 377.246167 359.411154 
L 382.9119 358.672709 
L 388.577634 361.658323 
L 394.243367 338.934248 
L 399.909101 365.890489 
L 405.574834 365.524283 
L 411.240567 363.853553 
L 416.906301 362.639978 
L 422.572034 363.400448 
L 428.237768 367.704841 
L 433.903501 366.253526 
L 439.569234 370.207174 
L 445.234968 369.594539 
L 450.900701 375.948632 
L 456.566435 390.04 
L 462.232168 388.679405 
L 467.897901 384.727176 
L 473.563635 385.880996 
L 479.229368 375.970787 
L 484.895102 380.712439 
L 490.560835 378.240978 
L 496.226568 372.958809 
L 501.892302 375.430185 
L 507.558035 342.013162 
L 513.223769 330.008032 
L 518.889502 341.930513 
L 524.555235 337.940361 
L 530.220969 322.298262 
L 535.886702 319.56905 
L 541.552436 325.834372 
L 547.218169 287.253073 
L 552.883902 297.633433 
L 558.549636 284.414231 
L 564.215369 296.633956 
L 569.881103 289.855079 
L 575.546836 302.978829 
L 581.212569 301.595177 
L 586.878303 310.628215 
L 592.544036 308.490678 
L 598.20977 296.608254 
L 603.875503 315.310387 
L 609.541236 311.85138 
L 615.20697 294.653725 
L 620.872703 267.07888 
L 626.538437 269.392611 
" clip-path="url(#p6b30f89af3)" style="fill: none; stroke: #7b3ab8; stroke-linecap: round"/>
   </g>
   <g id="patch_3">
    <path d="M 65.63 390.04 
L 65.63 57.0062 
" style="fill: none; stroke: #ffffff; stroke-width: 0.8; stroke-linejoin: miter; stroke-linecap: square"/>
   </g>
   <g id="patch_4">
    <path d="M 632.205 390.04 
L 632.205 57.0062 
" style="fill: none; stroke: #ffffff; stroke-width: 0.8; stroke-linejoin: miter; stroke-linecap: square"/>
   </g>
   <g id="patch_5">
    <path d="M 65.63 390.04 
L 632.205 390.04 
" style="fill: none; stroke: #ffffff; stroke-width: 0.8; stroke-linejoin: miter; stroke-linecap: square"/>
   </g>
   <g id="patch_6">
    <path d="M 65.63 57.0062 
L 632.205 57.0062 
" style="fill: none; stroke: #ffffff; stroke-width: 0.8; stroke-linejoin: miter; stroke-linecap: square"/>
   </g>
   <g id="legend_1">
    <g id="line2d_26">
     <path d="M 97.385341 41.274494 
L 105.715341 41.274494 
L 114.045341 41.274494 
" style="fill: none; stroke: #0000ff; stroke-width: 1.5; stroke-linecap: round"/>
    </g>
    <g id="text_22">
     <!-- Mean Reward -->
     <g style="fill: #262626" transform="translate(120.709341 44.189994) scale(0.0833 -0.0833)">
      <defs>
       <path id="DejaVuSans-4d" d="M 628 4666 
L 1569 4666 
L 2759 1491 
L 3956 4666 
L 4897 4666 
L 4897 0 
L 4281 0 
L 4281 4097 
L 3078 897 
L 2444 897 
L 1241 4097 
L 1241 0 
L 628 0 
L 628 4666 
z
" transform="scale(0.015625)"/>
       <path id="DejaVuSans-6e" d="M 3513 2113 
L 3513 0 
L 2938 0 
L 2938 2094 
Q 2938 2591 2744 2837 
Q 2550 3084 2163 3084 
Q 1697 3084 1428 2787 
Q 1159 2491 1159 1978 
L 1159 0 
L 581 0 
L 581 3500 
L 1159 3500 
L 1159 2956 
Q 1366 3272 1645 3428 
Q 1925 3584 2291 3584 
Q 2894 3584 3203 3211 
Q 3513 2838 3513 2113 
z
" transform="scale(0.015625)"/>
       <path id="DejaVuSans-20" transform="scale(0.015625)"/>
      </defs>
      <use xlink:href="#DejaVuSans-4d"/>
      <use xlink:href="#DejaVuSans-65" transform="translate(86.279297 0)"/>
      <use xlink:href="#DejaVuSans-61" transform="translate(147.802734 0)"/>
      <use xlink:href="#DejaVuSans-6e" transform="translate(209.082031 0)"/>
      <use xlink:href="#DejaVuSans-20" transform="translate(272.460938 0)"/>
      <use xlink:href="#DejaVuSans-52" transform="translate(304.248047 0)"/>
      <use xlink:href="#DejaVuSans-65" transform="translate(369.230469 0)"/>
      <use xlink:href="#DejaVuSans-77" transform="translate(430.753906 0)"/>
      <use xlink:href="#DejaVuSans-61" transform="translate(512.541016 0)"/>
      <use xlink:href="#DejaVuSans-72" transform="translate(573.820312 0)"/>
      <use xlink:href="#DejaVuSans-64" transform="translate(613.183594 0)"/>
     </g>
    </g>
    <g id="line2d_27">
     <path d="M 193.736108 41.274494 
L 202.066108 41.274494 
L 210.396108 41.274494 
" style="fill: none; stroke: #008000; stroke-opacity: 0.2; stroke-linecap: round"/>
    </g>
    <g id="text_23">
     <!-- Reward (individual runs) -->
     <g style="fill: #262626" transform="translate(217.060108 44.189994) scale(0.0833 -0.0833)">
      <defs>
       <path id="DejaVuSans-28" d="M 1984 4856 
Q 1566 4138 1362 3434 
Q 1159 2731 1159 2009 
Q 1159 1288 1364 580 
Q 1569 -128 1984 -844 
L 1484 -844 
Q 1016 -109 783 600 
Q 550 1309 550 2009 
Q 550 2706 781 3412 
Q 1013 4119 1484 4856 
L 1984 4856 
z
" transform="scale(0.015625)"/>
       <path id="DejaVuSans-69" d="M 603 3500 
L 1178 3500 
L 1178 0 
L 603 0 
L 603 3500 
z
M 603 4863 
L 1178 4863 
L 1178 4134 
L 603 4134 
L 603 4863 
z
" transform="scale(0.015625)"/>
       <path id="DejaVuSans-76" d="M 191 3500 
L 800 3500 
L 1894 563 
L 2988 3500 
L 3597 3500 
L 2284 0 
L 1503 0 
L 191 3500 
z
" transform="scale(0.015625)"/>
       <path id="DejaVuSans-75" d="M 544 1381 
L 544 3500 
L 1119 3500 
L 1119 1403 
Q 1119 906 1312 657 
Q 1506 409 1894 409 
Q 2359 409 2629 706 
Q 2900 1003 2900 1516 
L 2900 3500 
L 3475 3500 
L 3475 0 
L 2900 0 
L 2900 538 
Q 2691 219 2414 64 
Q 2138 -91 1772 -91 
Q 1169 -91 856 284 
Q 544 659 544 1381 
z
M 1991 3584 
L 1991 3584 
z
" transform="scale(0.015625)"/>
       <path id="DejaVuSans-6c" d="M 603 4863 
L 1178 4863 
L 1178 0 
L 603 0 
L 603 4863 
z
" transform="scale(0.015625)"/>
       <path id="DejaVuSans-29" d="M 513 4856 
L 1013 4856 
Q 1481 4119 1714 3412 
Q 1947 2706 1947 2009 
Q 1947 1309 1714 600 
Q 1481 -109 1013 -844 
L 513 -844 
Q 928 -128 1133 580 
Q 1338 1288 1338 2009 
Q 1338 2731 1133 3434 
Q 928 4138 513 4856 
z
" transform="scale(0.015625)"/>
      </defs>
      <use xlink:href="#DejaVuSans-52"/>
      <use xlink:href="#DejaVuSans-65" transform="translate(64.982422 0)"/>
      <use xlink:href="#DejaVuSans-77" transform="translate(126.505859 0)"/>
      <use xlink:href="#DejaVuSans-61" transform="translate(208.292969 0)"/>
      <use xlink:href="#DejaVuSans-72" transform="translate(269.572266 0)"/>
      <use xlink:href="#DejaVuSans-64" transform="translate(308.935547 0)"/>
      <use xlink:href="#DejaVuSans-20" transform="translate(372.412109 0)"/>
      <use xlink:href="#DejaVuSans-28" transform="translate(404.199219 0)"/>
      <use xlink:href="#DejaVuSans-69" transform="translate(443.212891 0)"/>
      <use xlink:href="#DejaVuSans-6e" transform="translate(470.996094 0)"/>
      <use xlink:href="#DejaVuSans-64" transform="translate(534.375 0)"/>
      <use xlink:href="#DejaVuSans-69" transform="translate(597.851562 0)"/>
      <use xlink:href="#DejaVuSans-76" transform="translate(625.634766 0)"/>
      <use xlink:href="#DejaVuSans-69" transform="translate(684.814453 0)"/>
      <use xlink:href="#DejaVuSans-64" transform="translate(712.597656 0)"/>
      <use xlink:href="#DejaVuSans-75" transform="translate(776.074219 0)"/>
      <use xlink:href="#DejaVuSans-61" transform="translate(839.453125 0)"/>
      <use xlink:href="#DejaVuSans-6c" transform="translate(900.732422 0)"/>
      <use xlink:href="#DejaVuSans-20" transform="translate(928.515625 0)"/>
      <use xlink:href="#DejaVuSans-72" transform="translate(960.302734 0)"/>
      <use xlink:href="#DejaVuSans-75" transform="translate(1001.416016 0)"/>
      <use xlink:href="#DejaVuSans-6e" transform="translate(1064.794922 0)"/>
      <use xlink:href="#DejaVuSans-73" transform="translate(1128.173828 0)"/>
      <use xlink:href="#DejaVuSans-29" transform="translate(1180.273438 0)"/>
     </g>
    </g>
    <g id="line2d_28">
     <path d="M 335.286236 41.274494 
L 343.616236 41.274494 
L 351.946236 41.274494 
" style="fill: none; stroke: #7b3ab8; stroke-linecap: round"/>
    </g>
    <g id="text_24">
     <!-- Entropy (normalized) -->
     <g style="fill: #262626" transform="translate(358.610236 44.189994) scale(0.0833 -0.0833)">
      <defs>
       <path id="DejaVuSans-45" d="M 628 4666 
L 3578 4666 
L 3578 4134 
L 1259 4134 
L 1259 2753 
L 3481 2753 
L 3481 2222 
L 1259 2222 
L 1259 531 
L 3634 531 
L 3634 0 
L 628 0 
L 628 4666 
z
" transform="scale(0.015625)"/>
       <path id="DejaVuSans-6f" d="M 1959 3097 
Q 1497 3097 1228 2736 
Q 959 2375 959 1747 
Q 959 1119 1226 758 
Q 1494 397 1959 397 
Q 2419 397 2687 759 
Q 2956 1122 2956 1747 
Q 2956 2369 2687 2733 
Q 2419 3097 1959 3097 
z
M 1959 3584 
Q 2709 3584 3137 3096 
Q 3566 2609 3566 1747 
Q 3566 888 3137 398 
Q 2709 -91 1959 -91 
Q 1206 -91 779 398 
Q 353 888 353 1747 
Q 353 2609 779 3096 
Q 1206 3584 1959 3584 
z
" transform="scale(0.015625)"/>
       <path id="DejaVuSans-79" d="M 2059 -325 
Q 1816 -950 1584 -1140 
Q 1353 -1331 966 -1331 
L 506 -1331 
L 506 -850 
L 844 -850 
Q 1081 -850 1212 -737 
Q 1344 -625 1503 -206 
L 1606 56 
L 191 3500 
L 800 3500 
L 1894 763 
L 2988 3500 
L 3597 3500 
L 2059 -325 
z
" transform="scale(0.015625)"/>
       <path id="DejaVuSans-6d" d="M 3328 2828 
Q 3544 3216 3844 3400 
Q 4144 3584 4550 3584 
Q 5097 3584 5394 3201 
Q 5691 2819 5691 2113 
L 5691 0 
L 5113 0 
L 5113 2094 
Q 5113 2597 4934 2840 
Q 4756 3084 4391 3084 
Q 3944 3084 3684 2787 
Q 3425 2491 3425 1978 
L 3425 0 
L 2847 0 
L 2847 2094 
Q 2847 2600 2669 2842 
Q 2491 3084 2119 3084 
Q 1678 3084 1418 2786 
Q 1159 2488 1159 1978 
L 1159 0 
L 581 0 
L 581 3500 
L 1159 3500 
L 1159 2956 
Q 1356 3278 1631 3431 
Q 1906 3584 2284 3584 
Q 2666 3584 2933 3390 
Q 3200 3197 3328 2828 
z
" transform="scale(0.015625)"/>
       <path id="DejaVuSans-7a" d="M 353 3500 
L 3084 3500 
L 3084 2975 
L 922 459 
L 3084 459 
L 3084 0 
L 275 0 
L 275 525 
L 2438 3041 
L 353 3041 
L 353 3500 
z
" transform="scale(0.015625)"/>
      </defs>
      <use xlink:href="#DejaVuSans-45"/>
      <use xlink:href="#DejaVuSans-6e" transform="translate(63.183594 0)"/>
      <use xlink:href="#DejaVuSans-74" transform="translate(126.5625 0)"/>
      <use xlink:href="#DejaVuSans-72" transform="translate(165.771484 0)"/>
      <use xlink:href="#DejaVuSans-6f" transform="translate(204.634766 0)"/>
      <use xlink:href="#DejaVuSans-70" transform="translate(265.816406 0)"/>
      <use xlink:href="#DejaVuSans-79" transform="translate(329.292969 0)"/>
      <use xlink:href="#DejaVuSans-20" transform="translate(388.472656 0)"/>
      <use xlink:href="#DejaVuSans-28" transform="translate(420.259766 0)"/>
      <use xlink:href="#DejaVuSans-6e" transform="translate(459.273438 0)"/>
      <use xlink:href="#DejaVuSans-6f" transform="translate(522.652344 0)"/>
      <use xlink:href="#DejaVuSans-72" transform="translate(583.833984 0)"/>
      <use xlink:href="#DejaVuSans-6d" transform="translate(623.197266 0)"/>
      <use xlink:href="#DejaVuSans-61" transform="translate(720.609375 0)"/>
      <use xlink:href="#DejaVuSans-6c" transform="translate(781.888672 0)"/>
      <use xlink:href="#DejaVuSans-69" transform="translate(809.671875 0)"/>
      <use xlink:href="#DejaVuSans-7a" transform="translate(837.455078 0)"/>
      <use xlink:href="#DejaVuSans-65" transform="translate(889.945312 0)"/>
      <use xlink:href="#DejaVuSans-64" transform="translate(951.46875 0)"/>
      <use xlink:href="#DejaVuSans-29" transform="translate(1014.945312 0)"/>
     </g>
    </g>
    <g id="patch_7">
     <path d="M 463.065833 44.189994 
L 479.725833 44.189994 
L 479.725833 38.358994 
L 463.065833 38.358994 
z
" style="fill: #0000ff; fill-opacity: 0.1"/>
    </g>
    <g id="text_25">
     <!-- Reward Standard Deviation -->
     <g style="fill: #262626" transform="translate(486.389833 44.189994) scale(0.0833 -0.0833)">
      <defs>
       <path id="DejaVuSans-44" d="M 1259 4147 
L 1259 519 
L 2022 519 
Q 2988 519 3436 956 
Q 3884 1394 3884 2338 
Q 3884 3275 3436 3711 
Q 2988 4147 2022 4147 
L 1259 4147 
z
M 628 4666 
L 1925 4666 
Q 3281 4666 3915 4102 
Q 4550 3538 4550 2338 
Q 4550 1131 3912 565 
Q 3275 0 1925 0 
L 628 0 
L 628 4666 
z
" transform="scale(0.015625)"/>
      </defs>
      <use xlink:href="#DejaVuSans-52"/>
      <use xlink:href="#DejaVuSans-65" transform="translate(64.982422 0)"/>
      <use xlink:href="#DejaVuSans-77" transform="translate(126.505859 0)"/>
      <use xlink:href="#DejaVuSans-61" transform="translate(208.292969 0)"/>
      <use xlink:href="#DejaVuSans-72" transform="translate(269.572266 0)"/>
      <use xlink:href="#DejaVuSans-64" transform="translate(308.935547 0)"/>
      <use xlink:href="#DejaVuSans-20" transform="translate(372.412109 0)"/>
      <use xlink:href="#DejaVuSans-53" transform="translate(404.199219 0)"/>
      <use xlink:href="#DejaVuSans-74" transform="translate(467.675781 0)"/>
      <use xlink:href="#DejaVuSans-61" transform="translate(506.884766 0)"/>
      <use xlink:href="#DejaVuSans-6e" transform="translate(568.164062 0)"/>
      <use xlink:href="#DejaVuSans-64" transform="translate(631.542969 0)"/>
      <use xlink:href="#DejaVuSans-61" transform="translate(695.019531 0)"/>
      <use xlink:href="#DejaVuSans-72" transform="translate(756.298828 0)"/>
      <use xlink:href="#DejaVuSans-64" transform="translate(795.662109 0)"/>
      <use xlink:href="#DejaVuSans-20" transform="translate(859.138672 0)"/>
      <use xlink:href="#DejaVuSans-44" transform="translate(890.925781 0)"/>
      <use xlink:href="#DejaVuSans-65" transform="translate(967.927734 0)"/>
      <use xlink:href="#DejaVuSans-76" transform="translate(1029.451172 0)"/>
      <use xlink:href="#DejaVuSans-69" transform="translate(1088.630859 0)"/>
      <use xlink:href="#DejaVuSans-61" transform="translate(1116.414062 0)"/>
      <use xlink:href="#DejaVuSans-74" transform="translate(1177.693359 0)"/>
      <use xlink:href="#DejaVuSans-69" transform="translate(1216.902344 0)"/>
      <use xlink:href="#DejaVuSans-6f" transform="translate(1244.685547 0)"/>
      <use xlink:href="#DejaVuSans-6e" transform="translate(1305.867188 0)"/>
     </g>
    </g>
   </g>
  </g>
  <g id="text_26">
   <!-- Rewards: Pendulum-v1 (Discretized) | GNN-Net (No modification) -->
   <g style="fill: #262626" transform="translate(103.48875 17.810625) scale(0.12 -0.12)">
    <defs>
     <path id="DejaVuSans-Bold-52" d="M 2297 2597 
Q 2675 2597 2839 2737 
Q 3003 2878 3003 3200 
Q 3003 3519 2839 3656 
Q 2675 3794 2297 3794 
L 1791 3794 
L 1791 2597 
L 2297 2597 
z
M 1791 1766 
L 1791 0 
L 588 0 
L 588 4666 
L 2425 4666 
Q 3347 4666 3776 4356 
Q 4206 4047 4206 3378 
Q 4206 2916 3982 2619 
Q 3759 2322 3309 2181 
Q 3556 2125 3751 1926 
Q 3947 1728 4147 1325 
L 4800 0 
L 3519 0 
L 2950 1159 
Q 2778 1509 2601 1637 
Q 2425 1766 2131 1766 
L 1791 1766 
z
" transform="scale(0.015625)"/>
     <path id="DejaVuSans-Bold-65" d="M 4031 1759 
L 4031 1441 
L 1416 1441 
Q 1456 1047 1700 850 
Q 1944 653 2381 653 
Q 2734 653 3104 758 
Q 3475 863 3866 1075 
L 3866 213 
Q 3469 63 3072 -14 
Q 2675 -91 2278 -91 
Q 1328 -91 801 392 
Q 275 875 275 1747 
Q 275 2603 792 3093 
Q 1309 3584 2216 3584 
Q 3041 3584 3536 3087 
Q 4031 2591 4031 1759 
z
M 2881 2131 
Q 2881 2450 2695 2645 
Q 2509 2841 2209 2841 
Q 1884 2841 1681 2658 
Q 1478 2475 1428 2131 
L 2881 2131 
z
" transform="scale(0.015625)"/>
     <path id="DejaVuSans-Bold-77" d="M 225 3500 
L 1313 3500 
L 1900 1088 
L 2491 3500 
L 3425 3500 
L 4013 1113 
L 4603 3500 
L 5691 3500 
L 4769 0 
L 3547 0 
L 2956 2406 
L 2369 0 
L 1147 0 
L 225 3500 
z
" transform="scale(0.015625)"/>
     <path id="DejaVuSans-Bold-61" d="M 2106 1575 
Q 1756 1575 1579 1456 
Q 1403 1338 1403 1106 
Q 1403 894 1545 773 
Q 1688 653 1941 653 
Q 2256 653 2472 879 
Q 2688 1106 2688 1447 
L 2688 1575 
L 2106 1575 
z
M 3816 1997 
L 3816 0 
L 2688 0 
L 2688 519 
Q 2463 200 2181 54 
Q 1900 -91 1497 -91 
Q 953 -91 614 226 
Q 275 544 275 1050 
Q 275 1666 698 1953 
Q 1122 2241 2028 2241 
L 2688 2241 
L 2688 2328 
Q 2688 2594 2478 2717 
Q 2269 2841 1825 2841 
Q 1466 2841 1156 2769 
Q 847 2697 581 2553 
L 581 3406 
Q 941 3494 1303 3539 
Q 1666 3584 2028 3584 
Q 2975 3584 3395 3211 
Q 3816 2838 3816 1997 
z
" transform="scale(0.015625)"/>
     <path id="DejaVuSans-Bold-72" d="M 3138 2547 
Q 2991 2616 2845 2648 
Q 2700 2681 2553 2681 
Q 2122 2681 1889 2404 
Q 1656 2128 1656 1613 
L 1656 0 
L 538 0 
L 538 3500 
L 1656 3500 
L 1656 2925 
Q 1872 3269 2151 3426 
Q 2431 3584 2822 3584 
Q 2878 3584 2943 3579 
Q 3009 3575 3134 3559 
L 3138 2547 
z
" transform="scale(0.015625)"/>
     <path id="DejaVuSans-Bold-64" d="M 2919 2988 
L 2919 4863 
L 4044 4863 
L 4044 0 
L 2919 0 
L 2919 506 
Q 2688 197 2409 53 
Q 2131 -91 1766 -91 
Q 1119 -91 703 423 
Q 288 938 288 1747 
Q 288 2556 703 3070 
Q 1119 3584 1766 3584 
Q 2128 3584 2408 3439 
Q 2688 3294 2919 2988 
z
M 2181 722 
Q 2541 722 2730 984 
Q 2919 1247 2919 1747 
Q 2919 2247 2730 2509 
Q 2541 2772 2181 2772 
Q 1825 2772 1636 2509 
Q 1447 2247 1447 1747 
Q 1447 1247 1636 984 
Q 1825 722 2181 722 
z
" transform="scale(0.015625)"/>
     <path id="DejaVuSans-Bold-73" d="M 3272 3391 
L 3272 2541 
Q 2913 2691 2578 2766 
Q 2244 2841 1947 2841 
Q 1628 2841 1473 2761 
Q 1319 2681 1319 2516 
Q 1319 2381 1436 2309 
Q 1553 2238 1856 2203 
L 2053 2175 
Q 2913 2066 3209 1816 
Q 3506 1566 3506 1031 
Q 3506 472 3093 190 
Q 2681 -91 1863 -91 
Q 1516 -91 1145 -36 
Q 775 19 384 128 
L 384 978 
Q 719 816 1070 734 
Q 1422 653 1784 653 
Q 2113 653 2278 743 
Q 2444 834 2444 1013 
Q 2444 1163 2330 1236 
Q 2216 1309 1875 1350 
L 1678 1375 
Q 931 1469 631 1722 
Q 331 1975 331 2491 
Q 331 3047 712 3315 
Q 1094 3584 1881 3584 
Q 2191 3584 2531 3537 
Q 2872 3491 3272 3391 
z
" transform="scale(0.015625)"/>
     <path id="DejaVuSans-Bold-3a" d="M 716 3500 
L 1844 3500 
L 1844 2291 
L 716 2291 
L 716 3500 
z
M 716 1209 
L 1844 1209 
L 1844 0 
L 716 0 
L 716 1209 
z
" transform="scale(0.015625)"/>
     <path id="DejaVuSans-Bold-20" transform="scale(0.015625)"/>
     <path id="DejaVuSans-Bold-50" d="M 588 4666 
L 2584 4666 
Q 3475 4666 3951 4270 
Q 4428 3875 4428 3144 
Q 4428 2409 3951 2014 
Q 3475 1619 2584 1619 
L 1791 1619 
L 1791 0 
L 588 0 
L 588 4666 
z
M 1791 3794 
L 1791 2491 
L 2456 2491 
Q 2806 2491 2997 2661 
Q 3188 2831 3188 3144 
Q 3188 3456 2997 3625 
Q 2806 3794 2456 3794 
L 1791 3794 
z
" transform="scale(0.015625)"/>
     <path id="DejaVuSans-Bold-6e" d="M 4056 2131 
L 4056 0 
L 2931 0 
L 2931 347 
L 2931 1631 
Q 2931 2084 2911 2256 
Q 2891 2428 2841 2509 
Q 2775 2619 2662 2680 
Q 2550 2741 2406 2741 
Q 2056 2741 1856 2470 
Q 1656 2200 1656 1722 
L 1656 0 
L 538 0 
L 538 3500 
L 1656 3500 
L 1656 2988 
Q 1909 3294 2193 3439 
Q 2478 3584 2822 3584 
Q 3428 3584 3742 3212 
Q 4056 2841 4056 2131 
z
" transform="scale(0.015625)"/>
     <path id="DejaVuSans-Bold-75" d="M 500 1363 
L 500 3500 
L 1625 3500 
L 1625 3150 
Q 1625 2866 1622 2436 
Q 1619 2006 1619 1863 
Q 1619 1441 1641 1255 
Q 1663 1069 1716 984 
Q 1784 875 1895 815 
Q 2006 756 2150 756 
Q 2500 756 2700 1025 
Q 2900 1294 2900 1772 
L 2900 3500 
L 4019 3500 
L 4019 0 
L 2900 0 
L 2900 506 
Q 2647 200 2364 54 
Q 2081 -91 1741 -91 
Q 1134 -91 817 281 
Q 500 653 500 1363 
z
" transform="scale(0.015625)"/>
     <path id="DejaVuSans-Bold-6c" d="M 538 4863 
L 1656 4863 
L 1656 0 
L 538 0 
L 538 4863 
z
" transform="scale(0.015625)"/>
     <path id="DejaVuSans-Bold-6d" d="M 3781 2919 
Q 3994 3244 4286 3414 
Q 4578 3584 4928 3584 
Q 5531 3584 5847 3212 
Q 6163 2841 6163 2131 
L 6163 0 
L 5038 0 
L 5038 1825 
Q 5041 1866 5042 1909 
Q 5044 1953 5044 2034 
Q 5044 2406 4934 2573 
Q 4825 2741 4581 2741 
Q 4263 2741 4089 2478 
Q 3916 2216 3909 1719 
L 3909 0 
L 2784 0 
L 2784 1825 
Q 2784 2406 2684 2573 
Q 2584 2741 2328 2741 
Q 2006 2741 1831 2477 
Q 1656 2213 1656 1722 
L 1656 0 
L 531 0 
L 531 3500 
L 1656 3500 
L 1656 2988 
Q 1863 3284 2130 3434 
Q 2397 3584 2719 3584 
Q 3081 3584 3359 3409 
Q 3638 3234 3781 2919 
z
" transform="scale(0.015625)"/>
     <path id="DejaVuSans-Bold-2d" d="M 347 2297 
L 2309 2297 
L 2309 1388 
L 347 1388 
L 347 2297 
z
" transform="scale(0.015625)"/>
     <path id="DejaVuSans-Bold-76" d="M 97 3500 
L 1216 3500 
L 2088 1081 
L 2956 3500 
L 4078 3500 
L 2700 0 
L 1472 0 
L 97 3500 
z
" transform="scale(0.015625)"/>
     <path id="DejaVuSans-Bold-31" d="M 750 831 
L 1813 831 
L 1813 3847 
L 722 3622 
L 722 4441 
L 1806 4666 
L 2950 4666 
L 2950 831 
L 4013 831 
L 4013 0 
L 750 0 
L 750 831 
z
" transform="scale(0.015625)"/>
     <path id="DejaVuSans-Bold-28" d="M 2413 -844 
L 1484 -844 
Q 1006 -72 778 623 
Q 550 1319 550 2003 
Q 550 2688 779 3389 
Q 1009 4091 1484 4856 
L 2413 4856 
Q 2013 4116 1813 3408 
Q 1613 2700 1613 2009 
Q 1613 1319 1811 609 
Q 2009 -100 2413 -844 
z
" transform="scale(0.015625)"/>
     <path id="DejaVuSans-Bold-44" d="M 1791 3756 
L 1791 909 
L 2222 909 
Q 2959 909 3348 1275 
Q 3738 1641 3738 2338 
Q 3738 3031 3350 3393 
Q 2963 3756 2222 3756 
L 1791 3756 
z
M 588 4666 
L 1856 4666 
Q 2919 4666 3439 4514 
Q 3959 4363 4331 4000 
Q 4659 3684 4818 3271 
Q 4978 2859 4978 2338 
Q 4978 1809 4818 1395 
Q 4659 981 4331 666 
Q 3956 303 3431 151 
Q 2906 0 1856 0 
L 588 0 
L 588 4666 
z
" transform="scale(0.015625)"/>
     <path id="DejaVuSans-Bold-69" d="M 538 3500 
L 1656 3500 
L 1656 0 
L 538 0 
L 538 3500 
z
M 538 4863 
L 1656 4863 
L 1656 3950 
L 538 3950 
L 538 4863 
z
" transform="scale(0.015625)"/>
     <path id="DejaVuSans-Bold-63" d="M 3366 3391 
L 3366 2478 
Q 3138 2634 2908 2709 
Q 2678 2784 2431 2784 
Q 1963 2784 1702 2511 
Q 1441 2238 1441 1747 
Q 1441 1256 1702 982 
Q 1963 709 2431 709 
Q 2694 709 2930 787 
Q 3166 866 3366 1019 
L 3366 103 
Q 3103 6 2833 -42 
Q 2563 -91 2291 -91 
Q 1344 -91 809 395 
Q 275 881 275 1747 
Q 275 2613 809 3098 
Q 1344 3584 2291 3584 
Q 2566 3584 2833 3536 
Q 3100 3488 3366 3391 
z
" transform="scale(0.015625)"/>
     <path id="DejaVuSans-Bold-74" d="M 1759 4494 
L 1759 3500 
L 2913 3500 
L 2913 2700 
L 1759 2700 
L 1759 1216 
Q 1759 972 1856 886 
Q 1953 800 2241 800 
L 2816 800 
L 2816 0 
L 1856 0 
Q 1194 0 917 276 
Q 641 553 641 1216 
L 641 2700 
L 84 2700 
L 84 3500 
L 641 3500 
L 641 4494 
L 1759 4494 
z
" transform="scale(0.015625)"/>
     <path id="DejaVuSans-Bold-7a" d="M 366 3500 
L 3419 3500 
L 3419 2719 
L 1575 800 
L 3419 800 
L 3419 0 
L 288 0 
L 288 781 
L 2131 2700 
L 366 2700 
L 366 3500 
z
" transform="scale(0.015625)"/>
     <path id="DejaVuSans-Bold-29" d="M 513 -844 
Q 913 -100 1113 609 
Q 1313 1319 1313 2009 
Q 1313 2700 1113 3408 
Q 913 4116 513 4856 
L 1441 4856 
Q 1916 4091 2145 3389 
Q 2375 2688 2375 2003 
Q 2375 1319 2147 623 
Q 1919 -72 1441 -844 
L 513 -844 
z
" transform="scale(0.015625)"/>
     <path id="DejaVuSans-Bold-7c" d="M 1522 4891 
L 1522 -1509 
L 813 -1509 
L 813 4891 
L 1522 4891 
z
" transform="scale(0.015625)"/>
     <path id="DejaVuSans-Bold-47" d="M 4781 347 
Q 4331 128 3847 18 
Q 3363 -91 2847 -91 
Q 1681 -91 1000 561 
Q 319 1213 319 2328 
Q 319 3456 1012 4103 
Q 1706 4750 2913 4750 
Q 3378 4750 3804 4662 
Q 4231 4575 4609 4403 
L 4609 3438 
Q 4219 3659 3833 3768 
Q 3447 3878 3059 3878 
Q 2341 3878 1952 3476 
Q 1563 3075 1563 2328 
Q 1563 1588 1938 1184 
Q 2313 781 3003 781 
Q 3191 781 3352 804 
Q 3513 828 3641 878 
L 3641 1784 
L 2906 1784 
L 2906 2591 
L 4781 2591 
L 4781 347 
z
" transform="scale(0.015625)"/>
     <path id="DejaVuSans-Bold-4e" d="M 588 4666 
L 1931 4666 
L 3628 1466 
L 3628 4666 
L 4769 4666 
L 4769 0 
L 3425 0 
L 1728 3200 
L 1728 0 
L 588 0 
L 588 4666 
z
" transform="scale(0.015625)"/>
     <path id="DejaVuSans-Bold-6f" d="M 2203 2784 
Q 1831 2784 1636 2517 
Q 1441 2250 1441 1747 
Q 1441 1244 1636 976 
Q 1831 709 2203 709 
Q 2569 709 2762 976 
Q 2956 1244 2956 1747 
Q 2956 2250 2762 2517 
Q 2569 2784 2203 2784 
z
M 2203 3584 
Q 3106 3584 3614 3096 
Q 4122 2609 4122 1747 
Q 4122 884 3614 396 
Q 3106 -91 2203 -91 
Q 1297 -91 786 396 
Q 275 884 275 1747 
Q 275 2609 786 3096 
Q 1297 3584 2203 3584 
z
" transform="scale(0.015625)"/>
     <path id="DejaVuSans-Bold-66" d="M 2841 4863 
L 2841 4128 
L 2222 4128 
Q 1984 4128 1890 4042 
Q 1797 3956 1797 3744 
L 1797 3500 
L 2753 3500 
L 2753 2700 
L 1797 2700 
L 1797 0 
L 678 0 
L 678 2700 
L 122 2700 
L 122 3500 
L 678 3500 
L 678 3744 
Q 678 4316 997 4589 
Q 1316 4863 1984 4863 
L 2841 4863 
z
" transform="scale(0.015625)"/>
    </defs>
    <use xlink:href="#DejaVuSans-Bold-52"/>
    <use xlink:href="#DejaVuSans-Bold-65" transform="translate(77.001953 0)"/>
    <use xlink:href="#DejaVuSans-Bold-77" transform="translate(144.824219 0)"/>
    <use xlink:href="#DejaVuSans-Bold-61" transform="translate(237.207031 0)"/>
    <use xlink:href="#DejaVuSans-Bold-72" transform="translate(304.6875 0)"/>
    <use xlink:href="#DejaVuSans-Bold-64" transform="translate(354.003906 0)"/>
    <use xlink:href="#DejaVuSans-Bold-73" transform="translate(425.585938 0)"/>
    <use xlink:href="#DejaVuSans-Bold-3a" transform="translate(485.107422 0)"/>
    <use xlink:href="#DejaVuSans-Bold-20" transform="translate(525.097656 0)"/>
    <use xlink:href="#DejaVuSans-Bold-50" transform="translate(559.912109 0)"/>
    <use xlink:href="#DejaVuSans-Bold-65" transform="translate(633.203125 0)"/>
    <use xlink:href="#DejaVuSans-Bold-6e" transform="translate(701.025391 0)"/>
    <use xlink:href="#DejaVuSans-Bold-64" transform="translate(772.216797 0)"/>
    <use xlink:href="#DejaVuSans-Bold-75" transform="translate(843.798828 0)"/>
    <use xlink:href="#DejaVuSans-Bold-6c" transform="translate(914.990234 0)"/>
    <use xlink:href="#DejaVuSans-Bold-75" transform="translate(949.267578 0)"/>
    <use xlink:href="#DejaVuSans-Bold-6d" transform="translate(1020.458984 0)"/>
    <use xlink:href="#DejaVuSans-Bold-2d" transform="translate(1124.658203 0)"/>
    <use xlink:href="#DejaVuSans-Bold-76" transform="translate(1166.162109 0)"/>
    <use xlink:href="#DejaVuSans-Bold-31" transform="translate(1231.347656 0)"/>
    <use xlink:href="#DejaVuSans-Bold-20" transform="translate(1300.927734 0)"/>
    <use xlink:href="#DejaVuSans-Bold-28" transform="translate(1335.742188 0)"/>
    <use xlink:href="#DejaVuSans-Bold-44" transform="translate(1381.445312 0)"/>
    <use xlink:href="#DejaVuSans-Bold-69" transform="translate(1464.453125 0)"/>
    <use xlink:href="#DejaVuSans-Bold-73" transform="translate(1498.730469 0)"/>
    <use xlink:href="#DejaVuSans-Bold-63" transform="translate(1558.251953 0)"/>
    <use xlink:href="#DejaVuSans-Bold-72" transform="translate(1617.529297 0)"/>
    <use xlink:href="#DejaVuSans-Bold-65" transform="translate(1666.845703 0)"/>
    <use xlink:href="#DejaVuSans-Bold-74" transform="translate(1734.667969 0)"/>
    <use xlink:href="#DejaVuSans-Bold-69" transform="translate(1782.470703 0)"/>
    <use xlink:href="#DejaVuSans-Bold-7a" transform="translate(1816.748047 0)"/>
    <use xlink:href="#DejaVuSans-Bold-65" transform="translate(1874.951172 0)"/>
    <use xlink:href="#DejaVuSans-Bold-64" transform="translate(1942.773438 0)"/>
    <use xlink:href="#DejaVuSans-Bold-29" transform="translate(2014.355469 0)"/>
    <use xlink:href="#DejaVuSans-Bold-20" transform="translate(2060.058594 0)"/>
    <use xlink:href="#DejaVuSans-Bold-7c" transform="translate(2094.873047 0)"/>
    <use xlink:href="#DejaVuSans-Bold-20" transform="translate(2131.396484 0)"/>
    <use xlink:href="#DejaVuSans-Bold-47" transform="translate(2166.210938 0)"/>
    <use xlink:href="#DejaVuSans-Bold-4e" transform="translate(2248.291016 0)"/>
    <use xlink:href="#DejaVuSans-Bold-4e" transform="translate(2331.982422 0)"/>
    <use xlink:href="#DejaVuSans-Bold-2d" transform="translate(2415.673828 0)"/>
    <use xlink:href="#DejaVuSans-Bold-4e" transform="translate(2457.177734 0)"/>
    <use xlink:href="#DejaVuSans-Bold-65" transform="translate(2540.869141 0)"/>
    <use xlink:href="#DejaVuSans-Bold-74" transform="translate(2608.691406 0)"/>
    <use xlink:href="#DejaVuSans-Bold-20" transform="translate(2656.494141 0)"/>
    <use xlink:href="#DejaVuSans-Bold-28" transform="translate(2691.308594 0)"/>
    <use xlink:href="#DejaVuSans-Bold-4e" transform="translate(2737.011719 0)"/>
    <use xlink:href="#DejaVuSans-Bold-6f" transform="translate(2820.703125 0)"/>
    <use xlink:href="#DejaVuSans-Bold-20" transform="translate(2889.404297 0)"/>
    <use xlink:href="#DejaVuSans-Bold-6d" transform="translate(2924.21875 0)"/>
    <use xlink:href="#DejaVuSans-Bold-6f" transform="translate(3028.417969 0)"/>
    <use xlink:href="#DejaVuSans-Bold-64" transform="translate(3097.119141 0)"/>
    <use xlink:href="#DejaVuSans-Bold-69" transform="translate(3168.701172 0)"/>
    <use xlink:href="#DejaVuSans-Bold-66" transform="translate(3202.978516 0)"/>
    <use xlink:href="#DejaVuSans-Bold-69" transform="translate(3246.484375 0)"/>
    <use xlink:href="#DejaVuSans-Bold-63" transform="translate(3280.761719 0)"/>
    <use xlink:href="#DejaVuSans-Bold-61" transform="translate(3340.039062 0)"/>
    <use xlink:href="#DejaVuSans-Bold-74" transform="translate(3407.519531 0)"/>
    <use xlink:href="#DejaVuSans-Bold-69" transform="translate(3455.322266 0)"/>
    <use xlink:href="#DejaVuSans-Bold-6f" transform="translate(3489.599609 0)"/>
    <use xlink:href="#DejaVuSans-Bold-6e" transform="translate(3558.300781 0)"/>
    <use xlink:href="#DejaVuSans-Bold-29" transform="translate(3629.492188 0)"/>
   </g>
  </g>
 </g>
 <defs>
  <clipPath id="p6b30f89af3">
   <rect x="65.63" y="57.0062" width="566.575" height="333.0338"/>
  </clipPath>
 </defs>
</svg>
