<?xml version="1.0" encoding="utf-8" standalone="no"?>
<!DOCTYPE svg PUBLIC "-//W3C//DTD SVG 1.1//EN"
  "http://www.w3.org/Graphics/SVG/1.1/DTD/svg11.dtd">
<svg xmlns:xlink="http://www.w3.org/1999/xlink" width="540pt" height="360pt" viewBox="0 0 540 360" xmlns="http://www.w3.org/2000/svg" version="1.1">
 <metadata>
  <rdf:RDF xmlns:dc="http://purl.org/dc/elements/1.1/" xmlns:cc="http://creativecommons.org/ns#" xmlns:rdf="http://www.w3.org/1999/02/22-rdf-syntax-ns#">
   <cc:Work>
    <dc:type rdf:resource="http://purl.org/dc/dcmitype/StillImage"/>
    <dc:date>2025-08-04T02:53:19.857143</dc:date>
    <dc:format>image/svg+xml</dc:format>
    <dc:creator>
     <cc:Agent>
      <dc:title>Matplotlib v3.10.0, https://matplotlib.org/</dc:title>
     </cc:Agent>
    </dc:creator>
   </cc:Work>
  </rdf:RDF>
 </metadata>
 <defs>
  <style type="text/css">*{stroke-linejoin: round; stroke-linecap: butt}</style>
 </defs>
 <g id="figure_1">
  <g id="patch_1">
   <path d="M 0 360 
L 540 360 
L 540 0 
L 0 0 
z
" style="fill: #ffffff"/>
  </g>
  <g id="axes_1">
   <g id="patch_2">
    <path d="M 56.23 328.52 
L 522.797024 328.52 
L 522.797024 46.08 
L 56.23 46.08 
z
" style="fill: #eaeaf2"/>
   </g>
   <g id="matplotlib.axis_1">
    <g id="xtick_1">
     <g id="line2d_1">
      <path d="M 65.139619 328.52 
L 65.139619 46.08 
" clip-path="url(#p5285d3e242)" style="fill: none; stroke: #ffffff; stroke-width: 0.8; stroke-linecap: round"/>
     </g>
     <g id="text_1">
      <!-- 0 -->
      <g style="fill: #262626" transform="translate(60.685869 346.157812) scale(0.14 -0.14)">
       <defs>
        <path id="DejaVuSans-30" d="M 2034 4250 
Q 1547 4250 1301 3770 
Q 1056 3291 1056 2328 
Q 1056 1369 1301 889 
Q 1547 409 2034 409 
Q 2525 409 2770 889 
Q 3016 1369 3016 2328 
Q 3016 3291 2770 3770 
Q 2525 4250 2034 4250 
z
M 2034 4750 
Q 2819 4750 3233 4129 
Q 3647 3509 3647 2328 
Q 3647 1150 3233 529 
Q 2819 -91 2034 -91 
Q 1250 -91 836 529 
Q 422 1150 422 2328 
Q 422 3509 836 4129 
Q 1250 4750 2034 4750 
z
" transform="scale(0.015625)"/>
       </defs>
       <use xlink:href="#DejaVuSans-30"/>
      </g>
     </g>
    </g>
    <g id="xtick_2">
     <g id="line2d_2">
      <path d="M 510.620546 328.52 
L 510.620546 46.08 
" clip-path="url(#p5285d3e242)" style="fill: none; stroke: #ffffff; stroke-width: 0.8; stroke-linecap: round"/>
     </g>
     <g id="text_2">
      <!-- 600k -->
      <g style="fill: #262626" transform="translate(493.205858 346.157812) scale(0.14 -0.14)">
       <defs>
        <path id="DejaVuSans-36" d="M 2113 2584 
Q 1688 2584 1439 2293 
Q 1191 2003 1191 1497 
Q 1191 994 1439 701 
Q 1688 409 2113 409 
Q 2538 409 2786 701 
Q 3034 994 3034 1497 
Q 3034 2003 2786 2293 
Q 2538 2584 2113 2584 
z
M 3366 4563 
L 3366 3988 
Q 3128 4100 2886 4159 
Q 2644 4219 2406 4219 
Q 1781 4219 1451 3797 
Q 1122 3375 1075 2522 
Q 1259 2794 1537 2939 
Q 1816 3084 2150 3084 
Q 2853 3084 3261 2657 
Q 3669 2231 3669 1497 
Q 3669 778 3244 343 
Q 2819 -91 2113 -91 
Q 1303 -91 875 529 
Q 447 1150 447 2328 
Q 447 3434 972 4092 
Q 1497 4750 2381 4750 
Q 2619 4750 2861 4703 
Q 3103 4656 3366 4563 
z
" transform="scale(0.015625)"/>
        <path id="DejaVuSans-6b" d="M 581 4863 
L 1159 4863 
L 1159 1991 
L 2875 3500 
L 3609 3500 
L 1753 1863 
L 3688 0 
L 2938 0 
L 1159 1709 
L 1159 0 
L 581 0 
L 581 4863 
z
" transform="scale(0.015625)"/>
       </defs>
       <use xlink:href="#DejaVuSans-36"/>
       <use xlink:href="#DejaVuSans-30" transform="translate(63.623047 0)"/>
       <use xlink:href="#DejaVuSans-30" transform="translate(127.246094 0)"/>
       <use xlink:href="#DejaVuSans-6b" transform="translate(190.869141 0)"/>
      </g>
     </g>
    </g>
   </g>
   <g id="matplotlib.axis_2">
    <g id="ytick_1">
     <g id="line2d_3">
      <path d="M 56.23 320.526415 
L 522.797024 320.526415 
" clip-path="url(#p5285d3e242)" style="fill: none; stroke: #ffffff; stroke-width: 0.8; stroke-linecap: round"/>
     </g>
     <g id="text_3">
      <!-- −500 -->
      <g style="fill: #262626" transform="translate(10.775937 325.845321) scale(0.14 -0.14)">
       <defs>
        <path id="DejaVuSans-2212" d="M 678 2272 
L 4684 2272 
L 4684 1741 
L 678 1741 
L 678 2272 
z
" transform="scale(0.015625)"/>
        <path id="DejaVuSans-35" d="M 691 4666 
L 3169 4666 
L 3169 4134 
L 1269 4134 
L 1269 2991 
Q 1406 3038 1543 3061 
Q 1681 3084 1819 3084 
Q 2600 3084 3056 2656 
Q 3513 2228 3513 1497 
Q 3513 744 3044 326 
Q 2575 -91 1722 -91 
Q 1428 -91 1123 -41 
Q 819 9 494 109 
L 494 744 
Q 775 591 1075 516 
Q 1375 441 1709 441 
Q 2250 441 2565 725 
Q 2881 1009 2881 1497 
Q 2881 1984 2565 2268 
Q 2250 2553 1709 2553 
Q 1456 2553 1204 2497 
Q 953 2441 691 2322 
L 691 4666 
z
" transform="scale(0.015625)"/>
       </defs>
       <use xlink:href="#DejaVuSans-2212"/>
       <use xlink:href="#DejaVuSans-35" transform="translate(83.789062 0)"/>
       <use xlink:href="#DejaVuSans-30" transform="translate(147.412109 0)"/>
       <use xlink:href="#DejaVuSans-30" transform="translate(211.035156 0)"/>
      </g>
     </g>
    </g>
    <g id="ytick_2">
     <g id="line2d_4">
      <path d="M 56.23 267.235849 
L 522.797024 267.235849 
" clip-path="url(#p5285d3e242)" style="fill: none; stroke: #ffffff; stroke-width: 0.8; stroke-linecap: round"/>
     </g>
     <g id="text_4">
      <!-- −400 -->
      <g style="fill: #262626" transform="translate(10.775937 272.554755) scale(0.14 -0.14)">
       <defs>
        <path id="DejaVuSans-34" d="M 2419 4116 
L 825 1625 
L 2419 1625 
L 2419 4116 
z
M 2253 4666 
L 3047 4666 
L 3047 1625 
L 3713 1625 
L 3713 1100 
L 3047 1100 
L 3047 0 
L 2419 0 
L 2419 1100 
L 313 1100 
L 313 1709 
L 2253 4666 
z
" transform="scale(0.015625)"/>
       </defs>
       <use xlink:href="#DejaVuSans-2212"/>
       <use xlink:href="#DejaVuSans-34" transform="translate(83.789062 0)"/>
       <use xlink:href="#DejaVuSans-30" transform="translate(147.412109 0)"/>
       <use xlink:href="#DejaVuSans-30" transform="translate(211.035156 0)"/>
      </g>
     </g>
    </g>
    <g id="ytick_3">
     <g id="line2d_5">
      <path d="M 56.23 213.945283 
L 522.797024 213.945283 
" clip-path="url(#p5285d3e242)" style="fill: none; stroke: #ffffff; stroke-width: 0.8; stroke-linecap: round"/>
     </g>
     <g id="text_5">
      <!-- −300 -->
      <g style="fill: #262626" transform="translate(10.775937 219.264189) scale(0.14 -0.14)">
       <defs>
        <path id="DejaVuSans-33" d="M 2597 2516 
Q 3050 2419 3304 2112 
Q 3559 1806 3559 1356 
Q 3559 666 3084 287 
Q 2609 -91 1734 -91 
Q 1441 -91 1130 -33 
Q 819 25 488 141 
L 488 750 
Q 750 597 1062 519 
Q 1375 441 1716 441 
Q 2309 441 2620 675 
Q 2931 909 2931 1356 
Q 2931 1769 2642 2001 
Q 2353 2234 1838 2234 
L 1294 2234 
L 1294 2753 
L 1863 2753 
Q 2328 2753 2575 2939 
Q 2822 3125 2822 3475 
Q 2822 3834 2567 4026 
Q 2313 4219 1838 4219 
Q 1578 4219 1281 4162 
Q 984 4106 628 3988 
L 628 4550 
Q 988 4650 1302 4700 
Q 1616 4750 1894 4750 
Q 2613 4750 3031 4423 
Q 3450 4097 3450 3541 
Q 3450 3153 3228 2886 
Q 3006 2619 2597 2516 
z
" transform="scale(0.015625)"/>
       </defs>
       <use xlink:href="#DejaVuSans-2212"/>
       <use xlink:href="#DejaVuSans-33" transform="translate(83.789062 0)"/>
       <use xlink:href="#DejaVuSans-30" transform="translate(147.412109 0)"/>
       <use xlink:href="#DejaVuSans-30" transform="translate(211.035156 0)"/>
      </g>
     </g>
    </g>
    <g id="ytick_4">
     <g id="line2d_6">
      <path d="M 56.23 160.654717 
L 522.797024 160.654717 
" clip-path="url(#p5285d3e242)" style="fill: none; stroke: #ffffff; stroke-width: 0.8; stroke-linecap: round"/>
     </g>
     <g id="text_6">
      <!-- −200 -->
      <g style="fill: #262626" transform="translate(10.775937 165.973623) scale(0.14 -0.14)">
       <defs>
        <path id="DejaVuSans-32" d="M 1228 531 
L 3431 531 
L 3431 0 
L 469 0 
L 469 531 
Q 828 903 1448 1529 
Q 2069 2156 2228 2338 
Q 2531 2678 2651 2914 
Q 2772 3150 2772 3378 
Q 2772 3750 2511 3984 
Q 2250 4219 1831 4219 
Q 1534 4219 1204 4116 
Q 875 4013 500 3803 
L 500 4441 
Q 881 4594 1212 4672 
Q 1544 4750 1819 4750 
Q 2544 4750 2975 4387 
Q 3406 4025 3406 3419 
Q 3406 3131 3298 2873 
Q 3191 2616 2906 2266 
Q 2828 2175 2409 1742 
Q 1991 1309 1228 531 
z
" transform="scale(0.015625)"/>
       </defs>
       <use xlink:href="#DejaVuSans-2212"/>
       <use xlink:href="#DejaVuSans-32" transform="translate(83.789062 0)"/>
       <use xlink:href="#DejaVuSans-30" transform="translate(147.412109 0)"/>
       <use xlink:href="#DejaVuSans-30" transform="translate(211.035156 0)"/>
      </g>
     </g>
    </g>
    <g id="ytick_5">
     <g id="line2d_7">
      <path d="M 56.23 107.364151 
L 522.797024 107.364151 
" clip-path="url(#p5285d3e242)" style="fill: none; stroke: #ffffff; stroke-width: 0.8; stroke-linecap: round"/>
     </g>
     <g id="text_7">
      <!-- −100 -->
      <g style="fill: #262626" transform="translate(10.775937 112.683057) scale(0.14 -0.14)">
       <defs>
        <path id="DejaVuSans-31" d="M 794 531 
L 1825 531 
L 1825 4091 
L 703 3866 
L 703 4441 
L 1819 4666 
L 2450 4666 
L 2450 531 
L 3481 531 
L 3481 0 
L 794 0 
L 794 531 
z
" transform="scale(0.015625)"/>
       </defs>
       <use xlink:href="#DejaVuSans-2212"/>
       <use xlink:href="#DejaVuSans-31" transform="translate(83.789062 0)"/>
       <use xlink:href="#DejaVuSans-30" transform="translate(147.412109 0)"/>
       <use xlink:href="#DejaVuSans-30" transform="translate(211.035156 0)"/>
      </g>
     </g>
    </g>
    <g id="ytick_6">
     <g id="line2d_8">
      <path d="M 56.23 54.073585 
L 522.797024 54.073585 
" clip-path="url(#p5285d3e242)" style="fill: none; stroke: #ffffff; stroke-width: 0.8; stroke-linecap: round"/>
     </g>
     <g id="text_8">
      <!-- 0 -->
      <g style="fill: #262626" transform="translate(40.3225 59.392491) scale(0.14 -0.14)">
       <use xlink:href="#DejaVuSans-30"/>
      </g>
     </g>
    </g>
   </g>
   <g id="FillBetweenPolyCollection_1">
    <path d="M 65.139619 297.18152 
L 65.139619 323.167925 
L 69.701343 320.242749 
L 74.263068 330.58485 
L 78.824793 324.518498 
L 83.386517 332.9242 
L 87.948242 338.157804 
L 92.509967 315.938061 
L 97.071691 319.261988 
L 101.633416 308.620741 
L 106.195141 308.029661 
L 110.756865 305.144572 
L 115.31859 303.133787 
L 119.880315 300.143909 
L 124.44204 299.528589 
L 129.003764 298.375564 
L 133.565489 297.978789 
L 138.127214 296.699482 
L 142.688938 296.893896 
L 147.250663 296.964193 
L 151.812388 296.236767 
L 156.374112 296.707943 
L 160.935837 297.204477 
L 165.497562 296.668531 
L 170.059286 296.475173 
L 174.621011 296.070639 
L 179.182736 274.698332 
L 183.744461 282.54101 
L 188.306185 275.22862 
L 192.86791 269.507632 
L 197.429635 280.211759 
L 201.991359 250.987105 
L 206.553084 277.279742 
L 211.114809 265.752448 
L 215.676533 260.544273 
L 220.238258 260.751568 
L 224.799983 250.531715 
L 229.361707 244.082329 
L 233.923432 256.976306 
L 238.485157 251.80503 
L 243.046882 247.435343 
L 247.608606 248.950525 
L 252.170331 259.725043 
L 256.732056 247.146655 
L 261.29378 244.087225 
L 265.855505 250.558763 
L 270.41723 244.044058 
L 274.978954 239.965568 
L 279.540679 252.652991 
L 284.102404 237.404914 
L 288.664128 237.058849 
L 293.225853 244.484017 
L 297.787578 240.121491 
L 302.349303 243.547435 
L 306.911027 236.377147 
L 311.472752 233.163225 
L 316.034477 242.275588 
L 320.596201 234.248068 
L 325.157926 238.858988 
L 329.719651 232.391604 
L 334.281375 216.714801 
L 338.8431 215.164768 
L 343.404825 169.032901 
L 347.966549 179.123368 
L 352.528274 162.740893 
L 357.089999 162.583856 
L 361.651724 150.751142 
L 366.213448 153.250738 
L 370.775173 125.842127 
L 375.336898 146.66632 
L 379.898622 161.939613 
L 384.460347 138.707412 
L 389.022072 179.316337 
L 393.583796 153.489603 
L 398.145521 149.385032 
L 402.707246 149.171108 
L 407.26897 150.368983 
L 411.830695 176.336759 
L 416.39242 156.264738 
L 420.954145 148.459775 
L 425.515869 174.912847 
L 430.077594 162.550276 
L 434.639319 144.26604 
L 439.201043 128.891902 
L 443.762768 142.533941 
L 448.324493 136.266927 
L 452.886217 147.812532 
L 457.447942 128.253782 
L 462.009667 126.069069 
L 466.571391 129.213073 
L 471.133116 139.29593 
L 475.694841 150.824628 
L 480.256566 142.425612 
L 484.81829 141.037469 
L 489.380015 121.971559 
L 493.94174 154.584459 
L 498.503464 119.381409 
L 503.065189 128.057813 
L 507.626914 135.469677 
L 512.188638 139.605542 
L 516.750363 144.919471 
L 516.750363 93.256679 
L 516.750363 93.256679 
L 512.188638 100.142681 
L 507.626914 91.568745 
L 503.065189 89.548179 
L 498.503464 90.710614 
L 493.94174 79.381737 
L 489.380015 90.038924 
L 484.81829 93.434987 
L 480.256566 91.913618 
L 475.694841 82.208983 
L 471.133116 83.719055 
L 466.571391 91.243965 
L 462.009667 88.472716 
L 457.447942 85.701807 
L 452.886217 82.423325 
L 448.324493 85.122696 
L 443.762768 83.198862 
L 439.201043 93.137208 
L 434.639319 84.264519 
L 430.077594 78.823309 
L 425.515869 81.568613 
L 420.954145 91.288447 
L 416.39242 76.076096 
L 411.830695 74.042932 
L 407.26897 82.051787 
L 402.707246 84.208892 
L 398.145521 78.932364 
L 393.583796 79.677235 
L 389.022072 69.144893 
L 384.460347 93.42026 
L 379.898622 76.316473 
L 375.336898 93.854616 
L 370.775173 88.85953 
L 366.213448 86.870519 
L 361.651724 81.296594 
L 357.089999 79.802249 
L 352.528274 77.540235 
L 347.966549 79.782813 
L 343.404825 85.13042 
L 338.8431 79.579319 
L 334.281375 67.424464 
L 329.719651 61.153446 
L 325.157926 67.502442 
L 320.596201 59.616725 
L 316.034477 68.668831 
L 311.472752 56.598194 
L 306.911027 66.253944 
L 302.349303 69.288799 
L 297.787578 72.90126 
L 293.225853 70.270677 
L 288.664128 65.439015 
L 284.102404 66.185406 
L 279.540679 73.186141 
L 274.978954 70.525881 
L 270.41723 72.149482 
L 265.855505 76.985667 
L 261.29378 71.919797 
L 256.732056 74.802266 
L 252.170331 80.262734 
L 247.608606 71.452969 
L 243.046882 74.72674 
L 238.485157 72.96829 
L 233.923432 75.604082 
L 229.361707 69.606554 
L 224.799983 74.774512 
L 220.238258 79.449371 
L 215.676533 76.059553 
L 211.114809 78.685091 
L 206.553084 85.489753 
L 201.991359 76.104355 
L 197.429635 76.722418 
L 192.86791 77.96747 
L 188.306185 80.533165 
L 183.744461 80.121903 
L 179.182736 78.558796 
L 174.621011 78.342844 
L 170.059286 94.991291 
L 165.497562 87.656997 
L 160.935837 89.199383 
L 156.374112 83.380985 
L 151.812388 79.988595 
L 147.250663 85.656037 
L 142.688938 85.060202 
L 138.127214 83.575963 
L 133.565489 93.887355 
L 129.003764 98.686409 
L 124.44204 107.818464 
L 119.880315 111.413099 
L 115.31859 122.651802 
L 110.756865 131.325776 
L 106.195141 140.324482 
L 101.633416 151.537263 
L 97.071691 175.428302 
L 92.509967 163.404546 
L 87.948242 198.552098 
L 83.386517 193.23417 
L 78.824793 223.595585 
L 74.263068 263.705508 
L 69.701343 281.561579 
L 65.139619 297.18152 
z
" clip-path="url(#p5285d3e242)" style="fill: #023eff; fill-opacity: 0.1"/>
   </g>
   <g id="line2d_9">
    <path d="M 65.139619 286.020774 
L 69.701343 304.672472 
L 74.263068 232.463755 
L 78.824793 188.165972 
L 83.386517 137.406708 
L 87.948242 145.666745 
L 92.509967 118.621783 
L 97.071691 130.212481 
L 101.633416 126.415528 
L 106.195141 110.761425 
L 110.756865 106.564792 
L 115.31859 106.031887 
L 119.880315 110.295132 
L 124.44204 111.161104 
L 129.003764 110.095292 
L 133.565489 98.571208 
L 138.127214 98.771047 
L 142.688938 99.637019 
L 147.250663 102.168321 
L 151.812388 99.637019 
L 156.374112 98.104915 
L 160.935837 103.767038 
L 165.497562 99.437179 
L 170.059286 104.899462 
L 174.621011 96.772651 
L 179.182736 97.039104 
L 183.744461 98.704434 
L 188.306185 95.640226 
L 192.86791 97.039104 
L 197.429635 91.909887 
L 201.991359 97.238943 
L 206.553084 119.088075 
L 211.114809 102.36816 
L 215.676533 94.441189 
L 220.238258 95.906679 
L 224.799983 93.974896 
L 229.361707 97.572009 
L 233.923432 95.30716 
L 238.485157 97.638623 
L 243.046882 107.364151 
L 247.608606 95.640226 
L 252.170331 106.764632 
L 256.732056 98.637821 
L 261.29378 99.637019 
L 265.855505 96.039906 
L 270.41723 98.904274 
L 274.978954 115.02467 
L 279.540679 96.839264 
L 284.102404 98.371368 
L 288.664128 93.974896 
L 293.225853 95.373774 
L 297.787578 105.632208 
L 302.349303 99.170726 
L 306.911027 101.768642 
L 311.472752 93.974896 
L 316.034477 97.17233 
L 320.596201 95.040708 
L 325.157926 95.773453 
L 329.719651 98.571208 
L 334.281375 102.901066 
L 338.8431 96.905877 
L 343.404825 98.038302 
L 347.966549 96.972491 
L 352.528274 94.507802 
L 357.089999 98.238142 
L 361.651724 97.238943 
L 366.213448 96.839264 
L 370.775173 96.972491 
L 375.336898 104.166717 
L 379.898622 99.970085 
L 384.460347 94.907481 
L 389.022072 94.174736 
L 393.583796 96.039906 
L 398.145521 94.574415 
L 402.707246 98.437981 
L 407.26897 101.568802 
L 411.830695 100.836057 
L 416.39242 96.439585 
L 420.954145 100.169925 
L 425.515869 98.437981 
L 430.077594 97.105717 
L 434.639319 96.572811 
L 439.201043 100.769443 
L 443.762768 96.839264 
L 448.324493 99.903472 
L 452.886217 94.507802 
L 457.447942 93.974896 
L 462.009667 97.039104 
L 466.571391 104.832849 
L 471.133116 101.502189 
L 475.694841 101.835255 
L 480.256566 99.370566 
L 484.81829 96.372972 
L 489.380015 96.905877 
L 493.94174 92.975698 
L 498.503464 94.974094 
L 503.065189 106.764632 
L 507.626914 100.303151 
L 512.188638 98.038302 
L 516.750363 97.838462 
" clip-path="url(#p5285d3e242)" style="fill: none; stroke: #1ac938; stroke-opacity: 0.27; stroke-width: 1.25; stroke-linecap: round"/>
   </g>
   <g id="line2d_10">
    <path d="M 65.139619 316.396396 
L 69.701343 288.352236 
L 74.263068 314.864292 
L 78.824793 293.01516 
L 83.386517 299.609868 
L 87.948242 320.526415 
L 92.509967 235.594575 
L 97.071691 255.112245 
L 101.633416 210.881075 
L 106.195141 201.62184 
L 110.756865 176.90834 
L 115.31859 169.913953 
L 119.880315 145.600132 
L 124.44204 125.816009 
L 129.003764 111.827236 
L 133.565489 117.289519 
L 138.127214 99.23734 
L 142.688938 99.637019 
L 147.250663 98.171528 
L 151.812388 97.771849 
L 156.374112 98.571208 
L 160.935837 108.030283 
L 165.497562 114.225311 
L 170.059286 113.692406 
L 174.621011 97.37217 
L 179.182736 98.504594 
L 183.744461 100.70283 
L 188.306185 99.437179 
L 192.86791 96.905877 
L 197.429635 97.905075 
L 201.991359 101.169123 
L 206.553084 95.640226 
L 211.114809 96.306358 
L 215.676533 97.37217 
L 220.238258 106.964472 
L 224.799983 103.234132 
L 229.361707 94.307962 
L 233.923432 100.036698 
L 238.485157 94.307962 
L 243.046882 98.038302 
L 247.608606 93.508604 
L 252.170331 96.173132 
L 256.732056 98.637821 
L 261.29378 98.437981 
L 265.855505 109.42916 
L 270.41723 101.302349 
L 274.978954 97.039104 
L 279.540679 96.173132 
L 284.102404 100.169925 
L 288.664128 101.302349 
L 293.225853 101.102509 
L 297.787578 98.104915 
L 302.349303 93.974896 
L 306.911027 111.427557 
L 311.472752 94.174736 
L 316.034477 96.706038 
L 320.596201 98.371368 
L 325.157926 95.573613 
L 329.719651 106.564792 
L 334.281375 95.70684 
L 338.8431 108.496575 
L 343.404825 97.838462 
L 347.966549 95.040708 
L 352.528274 99.170726 
L 357.089999 95.040708 
L 361.651724 95.440387 
L 366.213448 96.439585 
L 370.775173 96.905877 
L 375.336898 113.1595 
L 379.898622 98.771047 
L 384.460347 98.704434 
L 389.022072 95.840066 
L 393.583796 102.834453 
L 398.145521 96.572811 
L 402.707246 97.238943 
L 407.26897 94.774255 
L 411.830695 102.634613 
L 416.39242 98.637821 
L 420.954145 94.774255 
L 425.515869 94.374575 
L 430.077594 101.035896 
L 434.639319 95.573613 
L 439.201043 98.437981 
L 443.762768 93.84167 
L 448.324493 92.109726 
L 452.886217 96.039906 
L 457.447942 96.639425 
L 462.009667 95.040708 
L 466.571391 98.504594 
L 471.133116 97.905075 
L 475.694841 97.771849 
L 480.256566 101.901868 
L 484.81829 105.832047 
L 489.380015 94.507802 
L 493.94174 94.374575 
L 498.503464 94.707642 
L 503.065189 99.23734 
L 507.626914 92.17634 
L 512.188638 100.502991 
L 516.750363 94.241349 
" clip-path="url(#p5285d3e242)" style="fill: none; stroke: #1ac938; stroke-opacity: 0.27; stroke-width: 1.25; stroke-linecap: round"/>
   </g>
   <g id="line2d_11">
    <path d="M 65.139619 320.526415 
L 69.701343 320.526415 
L 74.263068 320.526415 
L 78.824793 320.526415 
L 83.386517 320.526415 
L 87.948242 320.526415 
L 92.509967 320.526415 
L 97.071691 320.526415 
L 101.633416 320.526415 
L 106.195141 320.526415 
L 110.756865 320.526415 
L 115.31859 320.526415 
L 119.880315 320.526415 
L 124.44204 320.526415 
L 129.003764 320.526415 
L 133.565489 320.526415 
L 138.127214 320.526415 
L 142.688938 320.526415 
L 147.250663 320.526415 
L 151.812388 320.526415 
L 156.374112 320.526415 
L 160.935837 320.526415 
L 165.497562 319.527217 
L 170.059286 317.328981 
L 174.621011 320.526415 
L 179.182736 269.700538 
L 183.744461 288.818528 
L 188.306185 270.433283 
L 192.86791 256.178057 
L 197.429635 283.955764 
L 201.991359 198.890698 
L 206.553084 273.430877 
L 211.114809 245.45333 
L 215.676533 231.131491 
L 220.238258 230.198906 
L 224.799983 197.758274 
L 229.361707 174.377038 
L 233.923432 220.073698 
L 238.485157 203.686849 
L 243.046882 184.968538 
L 247.608606 193.828094 
L 252.170331 226.735019 
L 256.732056 184.102566 
L 261.29378 172.378642 
L 265.855505 196.159557 
L 270.41723 171.912349 
L 274.978954 147.598528 
L 279.540679 206.61783 
L 284.102404 137.67316 
L 288.664128 135.408311 
L 293.225853 175.576075 
L 297.787578 145.799972 
L 302.349303 172.045575 
L 306.911027 124.017453 
L 311.472752 118.222104 
L 316.034477 166.31684 
L 320.596201 121.752604 
L 325.157926 145.933198 
L 329.719651 112.893047 
L 334.281375 115.557575 
L 338.8431 159.722132 
L 343.404825 132.810396 
L 347.966549 132.543943 
L 352.528274 107.497377 
L 357.089999 106.231726 
L 361.651724 106.831245 
L 366.213448 125.816009 
L 370.775173 102.434774 
L 375.336898 102.901066 
L 379.898622 97.238943 
L 384.460347 127.947632 
L 389.022072 96.506198 
L 393.583796 97.572009 
L 398.145521 101.901868 
L 402.707246 100.369764 
L 407.26897 104.366557 
L 411.830695 98.504594 
L 416.39242 95.973292 
L 420.954145 131.01184 
L 425.515869 97.505396 
L 430.077594 101.702028 
L 434.639319 105.765434 
L 439.201043 99.23734 
L 443.762768 103.833651 
L 448.324493 102.36816 
L 452.886217 104.966075 
L 457.447942 95.70684 
L 462.009667 103.567198 
L 466.571391 102.035094 
L 471.133116 95.773453 
L 475.694841 95.906679 
L 480.256566 123.751 
L 484.81829 128.880217 
L 489.380015 104.566396 
L 493.94174 111.49417 
L 498.503464 101.502189 
L 503.065189 95.640226 
L 507.626914 131.811198 
L 512.188638 125.482943 
L 516.750363 153.726943 
" clip-path="url(#p5285d3e242)" style="fill: none; stroke: #1ac938; stroke-opacity: 0.27; stroke-width: 1.25; stroke-linecap: round"/>
   </g>
   <g id="line2d_12">
    <path d="M 65.139619 307.403613 
L 69.701343 270.433283 
L 74.263068 297.345019 
L 78.824793 248.051245 
L 83.386517 237.326519 
L 87.948242 234.528764 
L 92.509967 203.08733 
L 97.071691 210.34817 
L 101.633416 172.045575 
L 106.195141 167.449264 
L 110.756865 166.649906 
L 115.31859 147.465302 
L 119.880315 131.944425 
L 124.44204 140.337689 
L 129.003764 129.679575 
L 133.565489 122.751802 
L 138.127214 111.627396 
L 142.688938 114.558377 
L 147.250663 115.157896 
L 151.812388 102.101708 
L 156.374112 112.493368 
L 160.935837 113.1595 
L 165.497562 107.097698 
L 170.059286 122.218896 
L 174.621011 100.836057 
L 179.182736 97.37217 
L 183.744461 97.905075 
L 188.306185 103.367358 
L 192.86791 98.038302 
L 197.429635 98.038302 
L 201.991359 99.903472 
L 206.553084 98.238142 
L 211.114809 96.439585 
L 215.676533 98.038302 
L 220.238258 96.905877 
L 224.799983 97.771849 
L 229.361707 97.438783 
L 233.923432 95.507 
L 238.485157 95.773453 
L 243.046882 94.507802 
L 247.608606 97.505396 
L 252.170331 99.770245 
L 256.732056 102.967679 
L 261.29378 99.0375 
L 265.855505 96.706038 
L 270.41723 97.838462 
L 274.978954 96.039906 
L 279.540679 94.441189 
L 284.102404 102.234934 
L 288.664128 105.032689 
L 293.225853 94.307962 
L 297.787578 112.493368 
L 302.349303 96.372972 
L 306.911027 98.83766 
L 311.472752 97.505396 
L 316.034477 96.639425 
L 320.596201 98.970887 
L 325.157926 108.096896 
L 329.719651 98.171528 
L 334.281375 105.365755 
L 338.8431 96.972491 
L 343.404825 100.036698 
L 347.966549 97.905075 
L 352.528274 94.707642 
L 357.089999 102.834453 
L 361.651724 95.640226 
L 366.213448 98.571208 
L 370.775173 96.372972 
L 375.336898 108.496575 
L 379.898622 94.974094 
L 384.460347 103.700425 
L 389.022072 100.303151 
L 393.583796 96.239745 
L 398.145521 93.375377 
L 402.707246 106.031887 
L 407.26897 96.173132 
L 411.830695 96.572811 
L 416.39242 93.508604 
L 420.954145 102.234934 
L 425.515869 133.876208 
L 430.077594 99.23734 
L 434.639319 99.570406 
L 439.201043 111.027877 
L 443.762768 97.971689 
L 448.324493 97.705236 
L 452.886217 99.970085 
L 457.447942 99.170726 
L 462.009667 96.306358 
L 466.571391 97.905075 
L 471.133116 95.440387 
L 475.694841 102.101708 
L 480.256566 96.905877 
L 484.81829 96.572811 
L 489.380015 96.839264 
L 493.94174 95.107321 
L 498.503464 100.90267 
L 503.065189 95.906679 
L 507.626914 96.039906 
L 512.188638 123.018255 
L 516.750363 102.434774 
" clip-path="url(#p5285d3e242)" style="fill: none; stroke: #1ac938; stroke-opacity: 0.27; stroke-width: 1.25; stroke-linecap: round"/>
   </g>
   <g id="line2d_13">
    <path d="M 65.139619 320.526415 
L 69.701343 320.526415 
L 74.263068 320.526415 
L 78.824793 320.526415 
L 83.386517 320.526415 
L 87.948242 320.526415 
L 92.509967 320.526415 
L 97.071691 320.526415 
L 101.633416 320.526415 
L 106.195141 320.526415 
L 110.756865 320.526415 
L 115.31859 320.526415 
L 119.880315 320.526415 
L 124.44204 320.526415 
L 129.003764 320.526415 
L 133.565489 320.526415 
L 138.127214 320.526415 
L 142.688938 320.526415 
L 147.250663 320.526415 
L 151.812388 320.526415 
L 156.374112 320.526415 
L 160.935837 320.526415 
L 165.497562 320.526415 
L 170.059286 320.526415 
L 174.621011 320.526415 
L 179.182736 320.526415 
L 183.744461 320.526415 
L 188.306185 320.526415 
L 192.86791 320.526415 
L 197.429635 320.526415 
L 201.991359 320.526415 
L 206.553084 320.526415 
L 211.114809 320.526415 
L 215.676533 320.526415 
L 220.238258 320.526415 
L 224.799983 320.526415 
L 229.361707 320.526415 
L 233.923432 320.526415 
L 238.485157 320.526415 
L 243.046882 320.526415 
L 247.608606 320.526415 
L 252.170331 320.526415 
L 256.732056 320.526415 
L 261.29378 320.526415 
L 265.855505 320.526415 
L 270.41723 320.526415 
L 274.978954 320.526415 
L 279.540679 320.526415 
L 284.102404 320.526415 
L 288.664128 320.526415 
L 293.225853 320.526415 
L 297.787578 320.526415 
L 302.349303 320.526415 
L 306.911027 320.526415 
L 311.472752 320.526415 
L 316.034477 320.526415 
L 320.596201 320.526415 
L 325.157926 320.526415 
L 329.719651 317.662047 
L 334.281375 290.816925 
L 338.8431 274.763142 
L 343.404825 206.684443 
L 347.966549 224.803236 
L 352.528274 204.819274 
L 357.089999 203.620236 
L 361.651724 184.968538 
L 366.213448 182.637075 
L 370.775173 144.068028 
L 375.336898 172.578481 
L 379.898622 204.686047 
L 384.460347 155.059208 
L 389.022072 234.328925 
L 393.583796 190.230981 
L 398.145521 184.369019 
L 402.707246 181.371425 
L 407.26897 184.169179 
L 411.830695 227.401151 
L 416.39242 196.292783 
L 420.954145 171.179604 
L 425.515869 217.009491 
L 430.077594 204.352981 
L 434.639319 173.844132 
L 439.201043 145.600132 
L 443.762768 171.845736 
L 448.324493 161.387462 
L 452.886217 180.105774 
L 457.447942 149.397085 
L 462.009667 144.401094 
L 466.571391 147.864981 
L 471.133116 166.916358 
L 475.694841 184.968538 
L 480.256566 163.918764 
L 484.81829 158.523094 
L 489.380015 137.206868 
L 493.94174 190.963726 
L 498.503464 133.143462 
L 503.065189 146.466104 
L 507.626914 147.265462 
L 512.188638 152.328066 
L 516.750363 147.198849 
" clip-path="url(#p5285d3e242)" style="fill: none; stroke: #1ac938; stroke-opacity: 0.27; stroke-width: 1.25; stroke-linecap: round"/>
   </g>
   <g id="line2d_14">
    <path d="M 65.139619 54.073585 
L 69.701343 65.247349 
L 74.263068 82.079633 
L 78.824793 86.39928 
L 83.386517 100.809468 
L 87.948242 100.160618 
L 92.509967 111.560794 
L 97.071691 115.4738 
L 101.633416 124.695106 
L 106.195141 140.505176 
L 110.756865 143.756577 
L 115.31859 153.937684 
L 119.880315 156.688384 
L 124.44204 159.168547 
L 129.003764 168.186384 
L 133.565489 178.065527 
L 138.127214 182.441726 
L 142.688938 187.896444 
L 147.250663 195.427737 
L 151.812388 203.333322 
L 156.374112 210.790866 
L 160.935837 222.931071 
L 165.497562 230.725622 
L 170.059286 237.015799 
L 174.621011 241.603367 
L 179.182736 242.305869 
L 183.744461 248.363333 
L 188.306185 247.709093 
L 192.86791 245.674015 
L 197.429635 248.994623 
L 201.991359 264.882247 
L 206.553084 272.540423 
L 211.114809 275.615192 
L 215.676533 275.518995 
L 220.238258 283.476501 
L 224.799983 282.243669 
L 229.361707 282.668158 
L 233.923432 287.916904 
L 238.485157 285.939179 
L 243.046882 280.879726 
L 247.608606 270.281949 
L 252.170331 273.457292 
L 256.732056 278.25279 
L 261.29378 278.667704 
L 265.855505 278.834147 
L 270.41723 270.883595 
L 274.978954 272.579777 
L 279.540679 274.369138 
L 284.102404 271.366004 
L 288.664128 271.313417 
L 293.225853 271.494034 
L 297.787578 271.470666 
L 302.349303 275.577433 
L 306.911027 284.926478 
L 311.472752 286.949272 
L 316.034477 287.472979 
L 320.596201 289.031378 
L 325.157926 290.573136 
L 329.719651 294.761073 
L 334.281375 298.70491 
L 338.8431 301.635295 
L 343.404825 300.588481 
L 347.966549 300.436193 
L 352.528274 302.309445 
L 357.089999 305.233524 
L 361.651724 301.348022 
L 366.213448 307.722473 
L 370.775173 305.402307 
L 375.336898 309.474798 
L 379.898622 309.883157 
L 384.460347 306.442815 
L 389.022072 311.675434 
L 393.583796 313.264622 
L 398.145521 314.838353 
L 402.707246 315.562918 
L 407.26897 317.306003 
L 411.830695 318.019424 
L 416.39242 318.820571 
L 420.954145 314.722348 
L 425.515869 320.526415 
L 430.077594 319.113151 
L 434.639319 318.903713 
L 439.201043 317.638744 
L 443.762768 316.978178 
L 448.324493 318.616951 
L 452.886217 318.192359 
L 457.447942 319.630991 
L 462.009667 320.048984 
L 466.571391 320.353521 
L 471.133116 318.711241 
L 475.694841 319.002435 
L 480.256566 315.917407 
L 484.81829 316.121126 
L 489.380015 317.526399 
L 493.94174 318.596592 
L 498.503464 316.906445 
L 503.065189 314.895577 
L 507.626914 317.10102 
L 512.188638 319.472475 
L 516.750363 318.644154 
" clip-path="url(#p5285d3e242)" style="fill: none; stroke: #8b2be2; stroke-width: 1.5; stroke-linecap: round"/>
   </g>
   <g id="line2d_15">
    <path d="M 65.139619 310.174723 
L 69.701343 300.902164 
L 74.263068 297.145179 
L 78.824793 274.057042 
L 83.386517 263.079185 
L 87.948242 268.354951 
L 92.509967 239.671304 
L 97.071691 247.345145 
L 101.633416 230.079002 
L 106.195141 224.177072 
L 110.756865 218.235174 
L 115.31859 212.892794 
L 119.880315 205.778504 
L 124.44204 203.673526 
L 129.003764 198.530987 
L 133.565489 195.933072 
L 138.127214 190.137723 
L 142.688938 190.977049 
L 147.250663 191.310115 
L 151.812388 188.112681 
L 156.374112 190.044464 
L 160.935837 193.20193 
L 165.497562 192.162764 
L 170.059286 195.733232 
L 174.621011 187.206742 
L 179.182736 176.628564 
L 183.744461 181.331457 
L 188.306185 177.880892 
L 192.86791 173.737551 
L 197.429635 178.467089 
L 201.991359 163.54573 
L 206.553084 181.384747 
L 211.114809 172.21877 
L 215.676533 168.301913 
L 220.238258 170.10047 
L 224.799983 162.653113 
L 229.361707 156.844442 
L 233.923432 166.290194 
L 238.485157 162.38666 
L 243.046882 161.081042 
L 247.608606 160.201747 
L 252.170331 169.993889 
L 256.732056 160.97446 
L 261.29378 158.003511 
L 265.855505 163.772215 
L 270.41723 158.09677 
L 274.978954 155.245725 
L 279.540679 162.919566 
L 284.102404 151.79516 
L 288.664128 151.248932 
L 293.225853 157.377347 
L 297.787578 156.511375 
L 302.349303 156.418117 
L 306.911027 151.315545 
L 311.472752 144.880709 
L 316.034477 155.472209 
L 320.596201 146.932396 
L 325.157926 153.180715 
L 329.719651 146.772525 
L 334.281375 142.069632 
L 338.8431 147.372043 
L 343.404825 127.08166 
L 347.966549 129.453091 
L 352.528274 120.140564 
L 357.089999 121.193053 
L 361.651724 116.023868 
L 366.213448 120.060628 
L 370.775173 107.350828 
L 375.336898 120.260468 
L 379.898622 119.128043 
L 384.460347 116.063836 
L 389.022072 124.230615 
L 393.583796 116.583419 
L 398.145521 114.158698 
L 402.707246 116.69 
L 407.26897 116.210385 
L 411.830695 125.189845 
L 416.39242 116.170417 
L 420.954145 119.874111 
L 425.515869 128.24073 
L 430.077594 120.686792 
L 434.639319 114.265279 
L 439.201043 111.014555 
L 443.762768 112.866402 
L 448.324493 110.694811 
L 452.886217 115.117928 
L 457.447942 106.977794 
L 462.009667 107.270892 
L 466.571391 110.228519 
L 471.133116 111.507492 
L 475.694841 116.516806 
L 480.256566 117.169615 
L 484.81829 117.236228 
L 489.380015 106.005242 
L 493.94174 116.983098 
L 498.503464 105.046011 
L 503.065189 108.802996 
L 507.626914 113.519211 
L 512.188638 119.874111 
L 516.750363 119.088075 
" clip-path="url(#p5285d3e242)" style="fill: none; stroke: #023eff; stroke-width: 2; stroke-linecap: round"/>
   </g>
   <g id="line2d_16">
    <path d="M 56.23 107.364151 
L 522.797024 107.364151 
" clip-path="url(#p5285d3e242)" style="fill: none; stroke-dasharray: 1.25,2.0625; stroke-dashoffset: 0; stroke: #000000; stroke-opacity: 0.6; stroke-width: 1.25"/>
   </g>
   <g id="patch_3">
    <path d="M 56.23 328.52 
L 56.23 46.08 
" style="fill: none; stroke: #ffffff; stroke-width: 0.8; stroke-linejoin: miter; stroke-linecap: square"/>
   </g>
   <g id="patch_4">
    <path d="M 522.797024 328.52 
L 522.797024 46.08 
" style="fill: none; stroke: #ffffff; stroke-width: 0.8; stroke-linejoin: miter; stroke-linecap: square"/>
   </g>
   <g id="patch_5">
    <path d="M 56.23 328.52 
L 522.797024 328.52 
" style="fill: none; stroke: #ffffff; stroke-width: 0.8; stroke-linejoin: miter; stroke-linecap: square"/>
   </g>
   <g id="patch_6">
    <path d="M 56.23 46.08 
L 522.797024 46.08 
" style="fill: none; stroke: #ffffff; stroke-width: 0.8; stroke-linejoin: miter; stroke-linecap: square"/>
   </g>
  </g>
  <g id="text_9">
   <!-- CMU-Net | AP -->
   <g style="fill: #262626" transform="translate(179.788125 25.54125) scale(0.24 -0.24)">
    <defs>
     <path id="DejaVuSans-Bold-43" d="M 4288 256 
Q 3956 84 3597 -3 
Q 3238 -91 2847 -91 
Q 1681 -91 1000 561 
Q 319 1213 319 2328 
Q 319 3447 1000 4098 
Q 1681 4750 2847 4750 
Q 3238 4750 3597 4662 
Q 3956 4575 4288 4403 
L 4288 3438 
Q 3953 3666 3628 3772 
Q 3303 3878 2944 3878 
Q 2300 3878 1931 3465 
Q 1563 3053 1563 2328 
Q 1563 1606 1931 1193 
Q 2300 781 2944 781 
Q 3303 781 3628 887 
Q 3953 994 4288 1222 
L 4288 256 
z
" transform="scale(0.015625)"/>
     <path id="DejaVuSans-Bold-4d" d="M 588 4666 
L 2119 4666 
L 3181 2169 
L 4250 4666 
L 5778 4666 
L 5778 0 
L 4641 0 
L 4641 3413 
L 3566 897 
L 2803 897 
L 1728 3413 
L 1728 0 
L 588 0 
L 588 4666 
z
" transform="scale(0.015625)"/>
     <path id="DejaVuSans-Bold-55" d="M 588 4666 
L 1791 4666 
L 1791 1869 
Q 1791 1291 1980 1042 
Q 2169 794 2597 794 
Q 3028 794 3217 1042 
Q 3406 1291 3406 1869 
L 3406 4666 
L 4609 4666 
L 4609 1869 
Q 4609 878 4112 393 
Q 3616 -91 2597 -91 
Q 1581 -91 1084 393 
Q 588 878 588 1869 
L 588 4666 
z
" transform="scale(0.015625)"/>
     <path id="DejaVuSans-Bold-2d" d="M 347 2297 
L 2309 2297 
L 2309 1388 
L 347 1388 
L 347 2297 
z
" transform="scale(0.015625)"/>
     <path id="DejaVuSans-Bold-4e" d="M 588 4666 
L 1931 4666 
L 3628 1466 
L 3628 4666 
L 4769 4666 
L 4769 0 
L 3425 0 
L 1728 3200 
L 1728 0 
L 588 0 
L 588 4666 
z
" transform="scale(0.015625)"/>
     <path id="DejaVuSans-Bold-65" d="M 4031 1759 
L 4031 1441 
L 1416 1441 
Q 1456 1047 1700 850 
Q 1944 653 2381 653 
Q 2734 653 3104 758 
Q 3475 863 3866 1075 
L 3866 213 
Q 3469 63 3072 -14 
Q 2675 -91 2278 -91 
Q 1328 -91 801 392 
Q 275 875 275 1747 
Q 275 2603 792 3093 
Q 1309 3584 2216 3584 
Q 3041 3584 3536 3087 
Q 4031 2591 4031 1759 
z
M 2881 2131 
Q 2881 2450 2695 2645 
Q 2509 2841 2209 2841 
Q 1884 2841 1681 2658 
Q 1478 2475 1428 2131 
L 2881 2131 
z
" transform="scale(0.015625)"/>
     <path id="DejaVuSans-Bold-74" d="M 1759 4494 
L 1759 3500 
L 2913 3500 
L 2913 2700 
L 1759 2700 
L 1759 1216 
Q 1759 972 1856 886 
Q 1953 800 2241 800 
L 2816 800 
L 2816 0 
L 1856 0 
Q 1194 0 917 276 
Q 641 553 641 1216 
L 641 2700 
L 84 2700 
L 84 3500 
L 641 3500 
L 641 4494 
L 1759 4494 
z
" transform="scale(0.015625)"/>
     <path id="DejaVuSans-Bold-20" transform="scale(0.015625)"/>
     <path id="DejaVuSans-Bold-7c" d="M 1522 4891 
L 1522 -1509 
L 813 -1509 
L 813 4891 
L 1522 4891 
z
" transform="scale(0.015625)"/>
     <path id="DejaVuSans-Bold-41" d="M 3419 850 
L 1538 850 
L 1241 0 
L 31 0 
L 1759 4666 
L 3194 4666 
L 4922 0 
L 3713 0 
L 3419 850 
z
M 1838 1716 
L 3116 1716 
L 2478 3572 
L 1838 1716 
z
" transform="scale(0.015625)"/>
     <path id="DejaVuSans-Bold-50" d="M 588 4666 
L 2584 4666 
Q 3475 4666 3951 4270 
Q 4428 3875 4428 3144 
Q 4428 2409 3951 2014 
Q 3475 1619 2584 1619 
L 1791 1619 
L 1791 0 
L 588 0 
L 588 4666 
z
M 1791 3794 
L 1791 2491 
L 2456 2491 
Q 2806 2491 2997 2661 
Q 3188 2831 3188 3144 
Q 3188 3456 2997 3625 
Q 2806 3794 2456 3794 
L 1791 3794 
z
" transform="scale(0.015625)"/>
    </defs>
    <use xlink:href="#DejaVuSans-Bold-43"/>
    <use xlink:href="#DejaVuSans-Bold-4d" transform="translate(73.388672 0)"/>
    <use xlink:href="#DejaVuSans-Bold-55" transform="translate(172.900391 0)"/>
    <use xlink:href="#DejaVuSans-Bold-2d" transform="translate(254.101562 0)"/>
    <use xlink:href="#DejaVuSans-Bold-4e" transform="translate(295.605469 0)"/>
    <use xlink:href="#DejaVuSans-Bold-65" transform="translate(379.296875 0)"/>
    <use xlink:href="#DejaVuSans-Bold-74" transform="translate(447.119141 0)"/>
    <use xlink:href="#DejaVuSans-Bold-20" transform="translate(494.921875 0)"/>
    <use xlink:href="#DejaVuSans-Bold-7c" transform="translate(529.736328 0)"/>
    <use xlink:href="#DejaVuSans-Bold-20" transform="translate(566.259766 0)"/>
    <use xlink:href="#DejaVuSans-Bold-41" transform="translate(601.074219 0)"/>
    <use xlink:href="#DejaVuSans-Bold-50" transform="translate(678.466797 0)"/>
   </g>
  </g>
 </g>
 <defs>
  <clipPath id="p5285d3e242">
   <rect x="56.23" y="46.08" width="466.567024" height="282.44"/>
  </clipPath>
 </defs>
</svg>
