<?xml version="1.0" encoding="utf-8" standalone="no"?>
<!DOCTYPE svg PUBLIC "-//W3C//DTD SVG 1.1//EN"
  "http://www.w3.org/Graphics/SVG/1.1/DTD/svg11.dtd">
<svg xmlns:xlink="http://www.w3.org/1999/xlink" width="540pt" height="360pt" viewBox="0 0 540 360" xmlns="http://www.w3.org/2000/svg" version="1.1">
 <metadata>
  <rdf:RDF xmlns:dc="http://purl.org/dc/elements/1.1/" xmlns:cc="http://creativecommons.org/ns#" xmlns:rdf="http://www.w3.org/1999/02/22-rdf-syntax-ns#">
   <cc:Work>
    <dc:type rdf:resource="http://purl.org/dc/dcmitype/StillImage"/>
    <dc:date>2025-08-04T02:53:26.970491</dc:date>
    <dc:format>image/svg+xml</dc:format>
    <dc:creator>
     <cc:Agent>
      <dc:title>Matplotlib v3.10.0, https://matplotlib.org/</dc:title>
     </cc:Agent>
    </dc:creator>
   </cc:Work>
  </rdf:RDF>
 </metadata>
 <defs>
  <style type="text/css">*{stroke-linejoin: round; stroke-linecap: butt}</style>
 </defs>
 <g id="figure_1">
  <g id="patch_1">
   <path d="M 0 360 
L 540 360 
L 540 0 
L 0 0 
z
" style="fill: #ffffff"/>
  </g>
  <g id="axes_1">
   <g id="patch_2">
    <path d="M 10.8 328.52 
L 522.797024 328.52 
L 522.797024 46.08 
L 10.8 46.08 
z
" style="fill: #eaeaf2"/>
   </g>
   <g id="matplotlib.axis_1">
    <g id="xtick_1">
     <g id="line2d_1">
      <path d="M 20.577155 328.52 
L 20.577155 46.08 
" clip-path="url(#pf735c36a31)" style="fill: none; stroke: #ffffff; stroke-width: 0.8; stroke-linecap: round"/>
     </g>
     <g id="text_1">
      <!-- 0 -->
      <g style="fill: #262626" transform="translate(16.123405 346.157812) scale(0.14 -0.14)">
       <defs>
        <path id="DejaVuSans-30" d="M 2034 4250 
Q 1547 4250 1301 3770 
Q 1056 3291 1056 2328 
Q 1056 1369 1301 889 
Q 1547 409 2034 409 
Q 2525 409 2770 889 
Q 3016 1369 3016 2328 
Q 3016 3291 2770 3770 
Q 2525 4250 2034 4250 
z
M 2034 4750 
Q 2819 4750 3233 4129 
Q 3647 3509 3647 2328 
Q 3647 1150 3233 529 
Q 2819 -91 2034 -91 
Q 1250 -91 836 529 
Q 422 1150 422 2328 
Q 422 3509 836 4129 
Q 1250 4750 2034 4750 
z
" transform="scale(0.015625)"/>
       </defs>
       <use xlink:href="#DejaVuSans-30"/>
      </g>
     </g>
    </g>
    <g id="xtick_2">
     <g id="line2d_2">
      <path d="M 509.434912 328.52 
L 509.434912 46.08 
" clip-path="url(#pf735c36a31)" style="fill: none; stroke: #ffffff; stroke-width: 0.8; stroke-linecap: round"/>
     </g>
     <g id="text_2">
      <!-- 600k -->
      <g style="fill: #262626" transform="translate(492.020225 346.157812) scale(0.14 -0.14)">
       <defs>
        <path id="DejaVuSans-36" d="M 2113 2584 
Q 1688 2584 1439 2293 
Q 1191 2003 1191 1497 
Q 1191 994 1439 701 
Q 1688 409 2113 409 
Q 2538 409 2786 701 
Q 3034 994 3034 1497 
Q 3034 2003 2786 2293 
Q 2538 2584 2113 2584 
z
M 3366 4563 
L 3366 3988 
Q 3128 4100 2886 4159 
Q 2644 4219 2406 4219 
Q 1781 4219 1451 3797 
Q 1122 3375 1075 2522 
Q 1259 2794 1537 2939 
Q 1816 3084 2150 3084 
Q 2853 3084 3261 2657 
Q 3669 2231 3669 1497 
Q 3669 778 3244 343 
Q 2819 -91 2113 -91 
Q 1303 -91 875 529 
Q 447 1150 447 2328 
Q 447 3434 972 4092 
Q 1497 4750 2381 4750 
Q 2619 4750 2861 4703 
Q 3103 4656 3366 4563 
z
" transform="scale(0.015625)"/>
        <path id="DejaVuSans-6b" d="M 581 4863 
L 1159 4863 
L 1159 1991 
L 2875 3500 
L 3609 3500 
L 1753 1863 
L 3688 0 
L 2938 0 
L 1159 1709 
L 1159 0 
L 581 0 
L 581 4863 
z
" transform="scale(0.015625)"/>
       </defs>
       <use xlink:href="#DejaVuSans-36"/>
       <use xlink:href="#DejaVuSans-30" transform="translate(63.623047 0)"/>
       <use xlink:href="#DejaVuSans-30" transform="translate(127.246094 0)"/>
       <use xlink:href="#DejaVuSans-6b" transform="translate(190.869141 0)"/>
      </g>
     </g>
    </g>
   </g>
   <g id="matplotlib.axis_2">
    <g id="ytick_1">
     <g id="line2d_3">
      <path d="M 10.8 323.476429 
L 522.797024 323.476429 
" clip-path="url(#pf735c36a31)" style="fill: none; stroke: #ffffff; stroke-width: 0.8; stroke-linecap: round"/>
     </g>
    </g>
    <g id="ytick_2">
     <g id="line2d_4">
      <path d="M 10.8 291.954107 
L 522.797024 291.954107 
" clip-path="url(#pf735c36a31)" style="fill: none; stroke: #ffffff; stroke-width: 0.8; stroke-linecap: round"/>
     </g>
    </g>
    <g id="ytick_3">
     <g id="line2d_5">
      <path d="M 10.8 260.431786 
L 522.797024 260.431786 
" clip-path="url(#pf735c36a31)" style="fill: none; stroke: #ffffff; stroke-width: 0.8; stroke-linecap: round"/>
     </g>
    </g>
    <g id="ytick_4">
     <g id="line2d_6">
      <path d="M 10.8 228.909464 
L 522.797024 228.909464 
" clip-path="url(#pf735c36a31)" style="fill: none; stroke: #ffffff; stroke-width: 0.8; stroke-linecap: round"/>
     </g>
    </g>
    <g id="ytick_5">
     <g id="line2d_7">
      <path d="M 10.8 197.387143 
L 522.797024 197.387143 
" clip-path="url(#pf735c36a31)" style="fill: none; stroke: #ffffff; stroke-width: 0.8; stroke-linecap: round"/>
     </g>
    </g>
    <g id="ytick_6">
     <g id="line2d_8">
      <path d="M 10.8 165.864821 
L 522.797024 165.864821 
" clip-path="url(#pf735c36a31)" style="fill: none; stroke: #ffffff; stroke-width: 0.8; stroke-linecap: round"/>
     </g>
    </g>
    <g id="ytick_7">
     <g id="line2d_9">
      <path d="M 10.8 134.3425 
L 522.797024 134.3425 
" clip-path="url(#pf735c36a31)" style="fill: none; stroke: #ffffff; stroke-width: 0.8; stroke-linecap: round"/>
     </g>
    </g>
    <g id="ytick_8">
     <g id="line2d_10">
      <path d="M 10.8 102.820179 
L 522.797024 102.820179 
" clip-path="url(#pf735c36a31)" style="fill: none; stroke: #ffffff; stroke-width: 0.8; stroke-linecap: round"/>
     </g>
    </g>
    <g id="ytick_9">
     <g id="line2d_11">
      <path d="M 10.8 71.297857 
L 522.797024 71.297857 
" clip-path="url(#pf735c36a31)" style="fill: none; stroke: #ffffff; stroke-width: 0.8; stroke-linecap: round"/>
     </g>
    </g>
   </g>
   <g id="FillBetweenPolyCollection_1">
    <path d="M 20.577155 -43.797433 
L 20.577155 242.887212 
L 22.24579 248.60144 
L 23.914424 258.695152 
L 25.583059 271.686088 
L 27.251693 286.777557 
L 28.920328 303.30918 
L 30.588962 319.695159 
L 32.257596 333.418412 
L 33.926231 342.28039 
L 35.594865 345.656019 
L 37.2635 344.664039 
L 38.932134 341.332344 
L 40.600769 337.523997 
L 42.269403 334.308083 
L 43.938038 332.019818 
L 45.606672 330.70877 
L 47.275307 330.456902 
L 48.943941 331.33293 
L 50.612576 333.164171 
L 52.28121 335.402335 
L 53.949845 337.216574 
L 55.618479 337.812271 
L 57.287114 336.84725 
L 58.955748 334.67335 
L 60.624383 332.153533 
L 62.293017 330.154104 
L 63.961652 329.108598 
L 65.630286 328.915404 
L 67.298921 329.104658 
L 68.967555 329.133195 
L 70.636189 328.712828 
L 72.304824 328.005207 
L 73.973458 327.489543 
L 75.642093 327.544057 
L 77.310727 328.092446 
L 78.979362 328.676609 
L 80.647996 328.898565 
L 82.316631 328.73828 
L 83.985265 328.425672 
L 85.6539 328.126249 
L 87.322534 327.846288 
L 88.991169 327.56557 
L 90.659803 327.332067 
L 92.328438 327.205009 
L 93.997072 327.154463 
L 95.665707 327.054676 
L 97.334341 326.784715 
L 99.002976 326.344131 
L 100.67161 325.879831 
L 102.340245 325.594697 
L 104.008879 325.605128 
L 105.677513 325.864154 
L 107.346148 326.20778 
L 109.014782 326.466874 
L 110.683417 326.547054 
L 112.352051 326.437583 
L 114.020686 326.172525 
L 115.68932 325.791513 
L 117.357955 325.338599 
L 119.026589 324.89004 
L 120.695224 324.563752 
L 122.363858 324.489868 
L 124.032493 324.760845 
L 125.701127 325.376022 
L 127.369762 326.193869 
L 129.038396 326.934775 
L 130.707031 327.279585 
L 132.375665 327.043405 
L 134.0443 326.312238 
L 135.712934 325.411748 
L 137.381569 324.705779 
L 139.050203 324.389116 
L 140.718838 324.431304 
L 142.387472 324.667383 
L 144.056106 324.929751 
L 145.724741 325.135843 
L 147.393375 325.296069 
L 149.06201 325.452297 
L 150.730644 325.611449 
L 152.399279 325.736752 
L 154.067913 325.788506 
L 155.736548 325.752201 
L 157.405182 325.635278 
L 159.073817 325.463198 
L 160.742451 325.278686 
L 162.411086 325.115894 
L 164.07972 324.965256 
L 165.748355 324.782742 
L 167.416989 324.542931 
L 169.085624 324.26952 
L 170.754258 324.006874 
L 172.422893 323.775836 
L 174.091527 323.566327 
L 175.760162 323.360818 
L 177.428796 323.151536 
L 179.09743 322.935897 
L 180.766065 322.70815 
L 182.434699 322.462969 
L 184.103334 322.20559 
L 185.771968 321.951785 
L 187.440603 321.723375 
L 189.109237 321.548889 
L 190.777872 321.458255 
L 192.446506 321.465457 
L 194.115141 321.562892 
L 195.783775 321.737027 
L 197.45241 321.977487 
L 199.121044 322.260715 
L 200.789679 322.530082 
L 202.458313 322.704177 
L 204.126948 322.715112 
L 205.795582 322.548236 
L 207.464217 322.252146 
L 209.132851 321.917482 
L 210.801486 321.644738 
L 212.47012 321.508377 
L 214.138755 321.523807 
L 215.807389 321.646005 
L 217.476023 321.809531 
L 219.144658 321.965204 
L 220.813292 322.08159 
L 222.481927 322.143858 
L 224.150561 322.174852 
L 225.819196 322.23576 
L 227.48783 322.374136 
L 229.156465 322.572682 
L 230.825099 322.771596 
L 232.493734 322.941803 
L 234.162368 323.110829 
L 235.831003 323.305469 
L 237.499637 323.492371 
L 239.168272 323.598321 
L 240.836906 323.579005 
L 242.505541 323.449141 
L 244.174175 323.254675 
L 245.84281 323.036701 
L 247.511444 322.820974 
L 249.180079 322.623293 
L 250.848713 322.456161 
L 252.517347 322.331421 
L 254.185982 322.253564 
L 255.854616 322.207595 
L 257.523251 322.162422 
L 259.191885 322.097638 
L 260.86052 322.022312 
L 262.529154 321.954865 
L 264.197789 321.891541 
L 265.866423 321.810782 
L 267.535058 321.702752 
L 269.203692 321.574243 
L 270.872327 321.429301 
L 272.540961 321.273269 
L 274.209596 321.140363 
L 275.87823 321.0876 
L 277.546865 321.142616 
L 279.215499 321.267103 
L 280.884134 321.382809 
L 282.552768 321.430349 
L 284.221403 321.402905 
L 285.890037 321.339139 
L 287.558672 321.296727 
L 289.227306 321.318408 
L 290.89594 321.397766 
L 292.564575 321.478672 
L 294.233209 321.507697 
L 295.901844 321.490613 
L 297.570478 321.484648 
L 299.239113 321.535628 
L 300.907747 321.638483 
L 302.576382 321.75899 
L 304.245016 321.869753 
L 305.913651 321.951971 
L 307.582285 321.985297 
L 309.25092 321.966403 
L 310.919554 321.935084 
L 312.588189 321.958417 
L 314.256823 322.078349 
L 315.925458 322.279018 
L 317.594092 322.50709 
L 319.262727 322.724008 
L 320.931361 322.93752 
L 322.599996 323.177718 
L 324.26863 323.440248 
L 325.937264 323.666414 
L 327.605899 323.792067 
L 329.274533 323.80839 
L 330.943168 323.764224 
L 332.611802 323.719254 
L 334.280437 323.707575 
L 335.949071 323.736873 
L 337.617706 323.805097 
L 339.28634 323.911593 
L 340.954975 324.051531 
L 342.623609 324.202525 
L 344.292244 324.327494 
L 345.960878 324.403398 
L 347.629513 324.447079 
L 349.298147 324.503049 
L 350.966782 324.601759 
L 352.635416 324.740018 
L 354.304051 324.906839 
L 355.972685 325.112095 
L 357.64132 325.372429 
L 359.309954 325.672337 
L 360.978589 325.953343 
L 362.647223 326.150481 
L 364.315857 326.241204 
L 365.984492 326.25763 
L 367.653126 326.254165 
L 369.321761 326.268312 
L 370.990395 326.309406 
L 372.65903 326.371128 
L 374.327664 326.442584 
L 375.996299 326.510182 
L 377.664933 326.5626 
L 379.333568 326.603278 
L 381.002202 326.654587 
L 382.670837 326.740967 
L 384.339471 326.866605 
L 386.008106 327.012572 
L 387.67674 327.151482 
L 389.345375 327.255699 
L 391.014009 327.296088 
L 392.682644 327.251926 
L 394.351278 327.134797 
L 396.019913 326.998442 
L 397.688547 326.914452 
L 399.357181 326.930498 
L 401.025816 327.041446 
L 402.69445 327.191597 
L 404.363085 327.311402 
L 406.031719 327.364066 
L 407.700354 327.358339 
L 409.368988 327.320354 
L 411.037623 327.264198 
L 412.706257 327.190211 
L 414.374892 327.102183 
L 416.043526 327.018228 
L 417.712161 326.960486 
L 419.380795 326.933163 
L 421.04943 326.918912 
L 422.718064 326.903838 
L 424.386699 326.897843 
L 426.055333 326.921505 
L 427.723968 326.979881 
L 429.392602 327.058751 
L 431.061237 327.140095 
L 432.729871 327.209185 
L 434.398506 327.24819 
L 436.06714 327.237474 
L 437.735774 327.173413 
L 439.404409 327.080818 
L 441.073043 326.995546 
L 442.741678 326.931896 
L 444.410312 326.873971 
L 446.078947 326.801003 
L 447.747581 326.715764 
L 449.416216 326.647675 
L 451.08485 326.633721 
L 452.753485 326.695163 
L 454.422119 326.824766 
L 456.090754 326.992208 
L 457.759388 327.161161 
L 459.428023 327.299978 
L 461.096657 327.381518 
L 462.765292 327.389121 
L 464.433926 327.335004 
L 466.102561 327.264798 
L 467.771195 327.228278 
L 469.43983 327.245505 
L 471.108464 327.307314 
L 472.777098 327.398711 
L 474.445733 327.507034 
L 476.114367 327.614601 
L 477.783002 327.701931 
L 479.451636 327.760413 
L 481.120271 327.789193 
L 482.788905 327.775677 
L 484.45754 327.693485 
L 486.126174 327.535301 
L 487.794809 327.344812 
L 489.463443 327.20192 
L 491.132078 327.170793 
L 492.800712 327.263545 
L 494.469347 327.445966 
L 496.137981 327.66542 
L 497.806616 327.874549 
L 499.47525 328.042948 
L 501.143885 328.160666 
L 502.812519 328.237161 
L 504.481154 328.293816 
L 506.149788 328.349099 
L 507.818423 328.405788 
L 509.487057 328.451927 
L 511.155691 328.473343 
L 512.824326 328.467386 
L 514.49296 328.448769 
L 516.161595 328.440058 
L 517.830229 328.450392 
L 519.498864 328.465554 
L 519.498864 311.349177 
L 519.498864 311.349177 
L 517.830229 311.451261 
L 516.161595 311.61177 
L 514.49296 311.773805 
L 512.824326 311.896994 
L 511.155691 311.969995 
L 509.487057 312.009684 
L 507.818423 312.043049 
L 506.149788 312.073581 
L 504.481154 312.065587 
L 502.812519 311.97543 
L 501.143885 311.803302 
L 499.47525 311.606712 
L 497.806616 311.455762 
L 496.137981 311.375533 
L 494.469347 311.333046 
L 492.800712 311.274826 
L 491.132078 311.1748 
L 489.463443 311.055579 
L 487.794809 310.972663 
L 486.126174 310.974279 
L 484.45754 311.069153 
L 482.788905 311.227683 
L 481.120271 311.408607 
L 479.451636 311.580928 
L 477.783002 311.726399 
L 476.114367 311.834233 
L 474.445733 311.901151 
L 472.777098 311.930884 
L 471.108464 311.925564 
L 469.43983 311.880443 
L 467.771195 311.795568 
L 466.102561 311.690174 
L 464.433926 311.596386 
L 462.765292 311.540469 
L 461.096657 311.534766 
L 459.428023 311.579246 
L 457.759388 311.662446 
L 456.090754 311.763585 
L 454.422119 311.856446 
L 452.753485 311.912626 
L 451.08485 311.90924 
L 449.416216 311.841291 
L 447.747581 311.725387 
L 446.078947 311.586281 
L 444.410312 311.439399 
L 442.741678 311.28662 
L 441.073043 311.125965 
L 439.404409 310.962388 
L 437.735774 310.809297 
L 436.06714 310.680538 
L 434.398506 310.580119 
L 432.729871 310.501845 
L 431.061237 310.443443 
L 429.392602 310.415833 
L 427.723968 310.425732 
L 426.055333 310.449208 
L 424.386699 310.436291 
L 422.718064 310.350615 
L 421.04943 310.20055 
L 419.380795 310.02642 
L 417.712161 309.85879 
L 416.043526 309.691063 
L 414.374892 309.488909 
L 412.706257 309.224898 
L 411.037623 308.912144 
L 409.368988 308.611642 
L 407.700354 308.400636 
L 406.031719 308.315426 
L 404.363085 308.314326 
L 402.69445 308.304962 
L 401.025816 308.216697 
L 399.357181 308.04411 
L 397.688547 307.82617 
L 396.019913 307.607339 
L 394.351278 307.432071 
L 392.682644 307.359151 
L 391.014009 307.447947 
L 389.345375 307.710699 
L 387.67674 308.089735 
L 386.008106 308.50245 
L 384.339471 308.901612 
L 382.670837 309.275713 
L 381.002202 309.607328 
L 379.333568 309.863424 
L 377.664933 310.03144 
L 375.996299 310.140776 
L 374.327664 310.230843 
L 372.65903 310.303589 
L 370.990395 310.319649 
L 369.321761 310.241998 
L 367.653126 310.074329 
L 365.984492 309.855902 
L 364.315857 309.631704 
L 362.647223 309.43272 
L 360.978589 309.271091 
L 359.309954 309.142622 
L 357.64132 309.039022 
L 355.972685 308.961469 
L 354.304051 308.918167 
L 352.635416 308.912766 
L 350.966782 308.945985 
L 349.298147 309.0258 
L 347.629513 309.163107 
L 345.960878 309.35248 
L 344.292244 309.561824 
L 342.623609 309.747373 
L 340.954975 309.882332 
L 339.28634 309.968503 
L 337.617706 310.022102 
L 335.949071 310.056881 
L 334.280437 310.074792 
L 332.611802 310.057433 
L 330.943168 309.969396 
L 329.274533 309.785978 
L 327.605899 309.518649 
L 325.937264 309.206474 
L 324.26863 308.884188 
L 322.599996 308.558251 
L 320.931361 308.210132 
L 319.262727 307.82713 
L 317.594092 307.436053 
L 315.925458 307.101064 
L 314.256823 306.88527 
L 312.588189 306.81283 
L 310.919554 306.853132 
L 309.25092 306.929263 
L 307.582285 306.95894 
L 305.913651 306.915061 
L 304.245016 306.845827 
L 302.576382 306.822741 
L 300.907747 306.874709 
L 299.239113 306.981047 
L 297.570478 307.10851 
L 295.901844 307.236221 
L 294.233209 307.358077 
L 292.564575 307.484011 
L 290.89594 307.640616 
L 289.227306 307.858755 
L 287.558672 308.151289 
L 285.890037 308.494012 
L 284.221403 308.824882 
L 282.552768 309.068426 
L 280.884134 309.172226 
L 279.215499 309.13538 
L 277.546865 309.011826 
L 275.87823 308.879604 
L 274.209596 308.78728 
L 272.540961 308.723342 
L 270.872327 308.64449 
L 269.203692 308.533223 
L 267.535058 308.424273 
L 265.866423 308.38831 
L 264.197789 308.498196 
L 262.529154 308.78091 
L 260.86052 309.169537 
L 259.191885 309.517334 
L 257.523251 309.697 
L 255.854616 309.699463 
L 254.185982 309.630057 
L 252.517347 309.61109 
L 250.848713 309.688424 
L 249.180079 309.811785 
L 247.511444 309.885524 
L 245.84281 309.849742 
L 244.174175 309.738487 
L 242.505541 309.672217 
L 240.836906 309.781405 
L 239.168272 310.110175 
L 237.499637 310.573822 
L 235.831003 311.009945 
L 234.162368 311.282022 
L 232.493734 311.340975 
L 230.825099 311.206221 
L 229.156465 310.922177 
L 227.48783 310.544543 
L 225.819196 310.13959 
L 224.150561 309.766668 
L 222.481927 309.452371 
L 220.813292 309.181154 
L 219.144658 308.917265 
L 217.476023 308.651089 
L 215.807389 308.431846 
L 214.138755 308.349247 
L 212.47012 308.475477 
L 210.801486 308.810519 
L 209.132851 309.268929 
L 207.464217 309.722301 
L 205.795582 310.065189 
L 204.126948 310.246254 
L 202.458313 310.254196 
L 200.789679 310.105064 
L 199.121044 309.849804 
L 197.45241 309.572308 
L 195.783775 309.36365 
L 194.115141 309.294798 
L 192.446506 309.397146 
L 190.777872 309.639374 
L 189.109237 309.919886 
L 187.440603 310.120975 
L 185.771968 310.211639 
L 184.103334 310.293257 
L 182.434699 310.512886 
L 180.766065 310.921022 
L 179.09743 311.415741 
L 177.428796 311.814995 
L 175.760162 311.98669 
L 174.091527 311.943732 
L 172.422893 311.836391 
L 170.754258 311.839917 
L 169.085624 312.024263 
L 167.416989 312.315488 
L 165.748355 312.572184 
L 164.07972 312.695631 
L 162.411086 312.678263 
L 160.742451 312.576778 
L 159.073817 312.470577 
L 157.405182 312.442349 
L 155.736548 312.55302 
L 154.067913 312.799716 
L 152.399279 313.105226 
L 150.730644 313.368907 
L 149.06201 313.540925 
L 147.393375 313.661057 
L 145.724741 313.819595 
L 144.056106 314.050756 
L 142.387472 314.247453 
L 140.718838 314.169356 
L 139.050203 313.51252 
L 137.381569 312.018267 
L 135.712934 309.677721 
L 134.0443 306.958025 
L 132.375665 304.758343 
L 130.707031 303.948894 
L 129.038396 304.821522 
L 127.369762 306.944073 
L 125.701127 309.511338 
L 124.032493 311.839264 
L 122.363858 313.615448 
L 120.695224 314.818274 
L 119.026589 315.515369 
L 117.357955 315.77057 
L 115.68932 315.676122 
L 114.020686 315.385949 
L 112.352051 315.073031 
L 110.683417 314.848211 
L 109.014782 314.727097 
L 107.346148 314.668512 
L 105.677513 314.626064 
L 104.008879 314.56573 
L 102.340245 314.470673 
L 100.67161 314.352553 
L 99.002976 314.241113 
L 97.334341 314.150059 
L 95.665707 314.083774 
L 93.997072 314.102223 
L 92.328438 314.334035 
L 90.659803 314.833007 
L 88.991169 315.37033 
L 87.322534 315.375882 
L 85.6539 314.125517 
L 83.985265 311.172055 
L 82.316631 306.922932 
L 80.647996 302.888039 
L 78.979362 300.948941 
L 77.310727 301.924183 
L 75.642093 304.827331 
L 73.973458 307.720271 
L 72.304824 309.334173 
L 70.636189 309.870636 
L 68.967555 310.313992 
L 67.298921 311.016801 
L 65.630286 310.975575 
L 63.961652 308.425147 
L 62.293017 302.091777 
L 60.624383 292.153665 
L 58.955748 280.466363 
L 57.287114 269.884916 
L 55.618479 262.839008 
L 53.949845 260.052268 
L 52.28121 260.343857 
L 50.612576 261.379209 
L 48.943941 260.562307 
L 47.275307 255.768105 
L 45.606672 246.037058 
L 43.938038 232.104506 
L 42.269403 216.33024 
L 40.600769 201.679637 
L 38.932134 190.041756 
L 37.2635 180.998307 
L 35.594865 172.050684 
L 33.926231 160.030316 
L 32.257596 142.527592 
L 30.588962 118.606298 
L 28.920328 88.935906 
L 27.251693 55.662636 
L 25.583059 22.033189 
L 23.914424 -8.19012 
L 22.24579 -31.238263 
L 20.577155 -43.797433 
z
" clip-path="url(#pf735c36a31)" style="fill: #1ac938; fill-opacity: 0.1"/>
   </g>
   <g id="FillBetweenPolyCollection_2">
    <path d="M 20.577155 47.05245 
L 20.577155 162.692592 
L 22.24579 173.124304 
L 23.914424 191.159532 
L 25.583059 212.89695 
L 27.251693 235.020266 
L 28.920328 254.965157 
L 30.588962 270.249313 
L 32.257596 278.588162 
L 33.926231 279.142896 
L 35.594865 273.608777 
L 37.2635 265.830603 
L 38.932134 260.073721 
L 40.600769 259.043283 
L 42.269403 262.727168 
L 43.938038 268.781938 
L 45.606672 274.381647 
L 47.275307 278.272075 
L 48.943941 281.386654 
L 50.612576 285.569944 
L 52.28121 291.579813 
L 53.949845 298.216735 
L 55.618479 303.338825 
L 57.287114 305.578224 
L 58.955748 305.022324 
L 60.624383 302.562273 
L 62.293017 299.054812 
L 63.961652 295.267035 
L 65.630286 292.264162 
L 67.298921 291.231808 
L 68.967555 292.602912 
L 70.636189 295.497405 
L 72.304824 298.290745 
L 73.973458 299.921019 
L 75.642093 300.83573 
L 77.310727 302.760676 
L 78.979362 307.307715 
L 80.647996 314.408951 
L 82.316631 321.932359 
L 83.985265 326.922358 
L 85.6539 327.432554 
L 87.322534 323.516856 
L 88.991169 316.876537 
L 90.659803 309.741446 
L 92.328438 303.891913 
L 93.997072 300.263195 
L 95.665707 298.922918 
L 97.334341 299.177841 
L 99.002976 299.942604 
L 100.67161 300.438536 
L 102.340245 300.728619 
L 104.008879 301.498751 
L 105.677513 303.259168 
L 107.346148 305.801022 
L 109.014782 308.384067 
L 110.683417 310.317595 
L 112.352051 311.360083 
L 114.020686 311.710683 
L 115.68932 311.778914 
L 117.357955 312.04135 
L 119.026589 312.982621 
L 120.695224 314.842016 
L 122.363858 317.256352 
L 124.032493 319.299751 
L 125.701127 320.062927 
L 127.369762 319.273986 
L 129.038396 317.421112 
L 130.707031 315.335856 
L 132.375665 313.622616 
L 134.0443 312.374492 
L 135.712934 311.327295 
L 137.381569 310.227804 
L 139.050203 309.071725 
L 140.718838 308.081681 
L 142.387472 307.518685 
L 144.056106 307.477375 
L 145.724741 307.814281 
L 147.393375 308.252937 
L 149.06201 308.504834 
L 150.730644 308.307998 
L 152.399279 307.483614 
L 154.067913 306.00931 
L 155.736548 303.977759 
L 157.405182 301.527377 
L 159.073817 298.901548 
L 160.742451 296.471576 
L 162.411086 294.552673 
L 164.07972 293.251159 
L 165.748355 292.584468 
L 167.416989 292.653026 
L 169.085624 293.553672 
L 170.754258 295.156584 
L 172.422893 297.116417 
L 174.091527 299.150474 
L 175.760162 301.214525 
L 177.428796 303.392185 
L 179.09743 305.697654 
L 180.766065 308.007042 
L 182.434699 310.113702 
L 184.103334 311.841706 
L 185.771968 313.1614 
L 187.440603 314.179742 
L 189.109237 314.967047 
L 190.777872 315.443857 
L 192.446506 315.523734 
L 194.115141 315.331041 
L 195.783775 315.191477 
L 197.45241 315.409474 
L 199.121044 316.076345 
L 200.789679 317.020227 
L 202.458313 317.895382 
L 204.126948 318.418816 
L 205.795582 318.613025 
L 207.464217 318.807692 
L 209.132851 319.389347 
L 210.801486 320.51962 
L 212.47012 322.003325 
L 214.138755 323.404112 
L 215.807389 324.382507 
L 217.476023 324.974371 
L 219.144658 325.515134 
L 220.813292 326.305576 
L 222.481927 327.370626 
L 224.150561 328.477586 
L 225.819196 329.312939 
L 227.48783 329.700493 
L 229.156465 329.736113 
L 230.825099 329.668271 
L 232.493734 329.604834 
L 234.162368 329.440514 
L 235.831003 329.134393 
L 237.499637 328.894221 
L 239.168272 328.929247 
L 240.836906 329.131203 
L 242.505541 329.181586 
L 244.174175 328.963912 
L 245.84281 328.751221 
L 247.511444 328.926432 
L 249.180079 329.547622 
L 250.848713 330.265155 
L 252.517347 330.681262 
L 254.185982 330.718433 
L 255.854616 330.593704 
L 257.523251 330.490941 
L 259.191885 330.303276 
L 260.86052 329.688747 
L 262.529154 328.377332 
L 264.197789 326.445586 
L 265.866423 324.313234 
L 267.535058 322.456103 
L 269.203692 321.064157 
L 270.872327 319.987765 
L 272.540961 319.070082 
L 274.209596 318.461046 
L 275.87823 318.465233 
L 277.546865 319.111557 
L 279.215499 320.008983 
L 280.884134 320.640998 
L 282.552768 320.727683 
L 284.221403 320.32375 
L 285.890037 319.675414 
L 287.558672 319.036802 
L 289.227306 318.561184 
L 290.89594 318.27281 
L 292.564575 318.10634 
L 294.233209 318.009421 
L 295.901844 318.046403 
L 297.570478 318.385552 
L 299.239113 319.129637 
L 300.907747 320.145202 
L 302.576382 321.125192 
L 304.245016 321.871504 
L 305.913651 322.454938 
L 307.582285 323.048464 
L 309.25092 323.690505 
L 310.919554 324.295698 
L 312.588189 324.806184 
L 314.256823 325.204607 
L 315.925458 325.429746 
L 317.594092 325.408353 
L 319.262727 325.163572 
L 320.931361 324.809215 
L 322.599996 324.44923 
L 324.26863 324.141026 
L 325.937264 323.933949 
L 327.605899 323.877235 
L 329.274533 323.97773 
L 330.943168 324.175032 
L 332.611802 324.379289 
L 334.280437 324.543996 
L 335.949071 324.711794 
L 337.617706 324.987619 
L 339.28634 325.440108 
L 340.954975 325.993877 
L 342.623609 326.429135 
L 344.292244 326.531152 
L 345.960878 326.271452 
L 347.629513 325.82996 
L 349.298147 325.420822 
L 350.966782 325.107082 
L 352.635416 324.795366 
L 354.304051 324.383368 
L 355.972685 323.872975 
L 357.64132 323.350788 
L 359.309954 322.915241 
L 360.978589 322.633154 
L 362.647223 322.511075 
L 364.315857 322.463914 
L 365.984492 322.323678 
L 367.653126 321.92318 
L 369.321761 321.214183 
L 370.990395 320.314194 
L 372.65903 319.422208 
L 374.327664 318.682139 
L 375.996299 318.135704 
L 377.664933 317.782413 
L 379.333568 317.643516 
L 381.002202 317.75796 
L 382.670837 318.134223 
L 384.339471 318.718404 
L 386.008106 319.402954 
L 387.67674 320.066357 
L 389.345375 320.630177 
L 391.014009 321.08491 
L 392.682644 321.429646 
L 394.351278 321.597069 
L 396.019913 321.510582 
L 397.688547 321.218387 
L 399.357181 320.892947 
L 401.025816 320.700328 
L 402.69445 320.727854 
L 404.363085 320.994001 
L 406.031719 321.440069 
L 407.700354 321.937105 
L 409.368988 322.387136 
L 411.037623 322.814529 
L 412.706257 323.295383 
L 414.374892 323.806504 
L 416.043526 324.228692 
L 417.712161 324.519044 
L 419.380795 324.778902 
L 421.04943 325.100966 
L 422.718064 325.439785 
L 424.386699 325.688066 
L 426.055333 325.805331 
L 427.723968 325.831613 
L 429.392602 325.841251 
L 431.061237 325.922137 
L 432.729871 326.151265 
L 434.398506 326.537664 
L 436.06714 326.995061 
L 437.735774 327.391689 
L 439.404409 327.633618 
L 441.073043 327.72207 
L 442.741678 327.759648 
L 444.410312 327.902355 
L 446.078947 328.27914 
L 447.747581 328.928715 
L 449.416216 329.778178 
L 451.08485 330.671731 
L 452.753485 331.452275 
L 454.422119 332.041654 
L 456.090754 332.446855 
L 457.759388 332.715851 
L 459.428023 332.909319 
L 461.096657 333.082612 
L 462.765292 333.254069 
L 464.433926 333.388378 
L 466.102561 333.425684 
L 467.771195 333.33698 
L 469.43983 333.178389 
L 471.108464 333.106896 
L 472.777098 333.286032 
L 474.445733 333.703303 
L 476.114367 334.098444 
L 477.783002 334.149308 
L 479.451636 333.76329 
L 481.120271 333.178202 
L 482.788905 332.77865 
L 484.45754 332.816997 
L 486.126174 333.27879 
L 487.794809 333.946721 
L 489.463443 334.552919 
L 491.132078 334.91954 
L 492.800712 335.03532 
L 494.469347 335.023202 
L 496.137981 335.019627 
L 497.806616 335.064494 
L 499.47525 335.084118 
L 501.143885 334.977669 
L 502.812519 334.737361 
L 504.481154 334.472845 
L 506.149788 334.302093 
L 507.818423 334.265065 
L 509.487057 334.37732 
L 511.155691 334.685674 
L 512.824326 335.191429 
L 514.49296 335.777323 
L 516.161595 336.286149 
L 517.830229 336.634693 
L 519.498864 336.809582 
L 519.498864 300.959331 
L 519.498864 300.959331 
L 517.830229 300.098969 
L 516.161595 298.969392 
L 514.49296 298.111911 
L 512.824326 297.570671 
L 511.155691 297.13723 
L 509.487057 296.815801 
L 507.818423 296.841806 
L 506.149788 297.316651 
L 504.481154 298.027144 
L 502.812519 298.637017 
L 501.143885 298.914626 
L 499.47525 298.767287 
L 497.806616 298.222828 
L 496.137981 297.459016 
L 494.469347 296.763925 
L 492.800712 296.433075 
L 491.132078 296.733723 
L 489.463443 297.837843 
L 487.794809 299.575233 
L 486.126174 301.280336 
L 484.45754 302.119924 
L 482.788905 301.701076 
L 481.120271 300.318447 
L 479.451636 298.625257 
L 477.783002 297.173185 
L 476.114367 296.218996 
L 474.445733 295.746289 
L 472.777098 295.561138 
L 471.108464 295.449767 
L 469.43983 295.316302 
L 467.771195 295.190403 
L 466.102561 295.16818 
L 464.433926 295.366307 
L 462.765292 295.838841 
L 461.096657 296.481619 
L 459.428023 297.072319 
L 457.759388 297.401548 
L 456.090754 297.347841 
L 454.422119 296.921399 
L 452.753485 296.315702 
L 451.08485 295.855652 
L 449.416216 295.815845 
L 447.747581 296.27358 
L 446.078947 297.129678 
L 444.410312 298.249626 
L 442.741678 299.56832 
L 441.073043 301.032804 
L 439.404409 302.46244 
L 437.735774 303.577142 
L 436.06714 304.221173 
L 434.398506 304.485989 
L 432.729871 304.578498 
L 431.061237 304.62818 
L 429.392602 304.639304 
L 427.723968 304.564206 
L 426.055333 304.381884 
L 424.386699 304.105182 
L 422.718064 303.713156 
L 421.04943 303.091686 
L 419.380795 302.103494 
L 417.712161 300.763149 
L 416.043526 299.318727 
L 414.374892 298.106386 
L 412.706257 297.306635 
L 411.037623 296.84984 
L 409.368988 296.554303 
L 407.700354 296.336939 
L 406.031719 296.274432 
L 404.363085 296.454311 
L 402.69445 296.801799 
L 401.025816 297.139548 
L 399.357181 297.433289 
L 397.688547 297.845292 
L 396.019913 298.470291 
L 394.351278 299.167441 
L 392.682644 299.779912 
L 391.014009 300.369961 
L 389.345375 301.08598 
L 387.67674 301.899992 
L 386.008106 302.603902 
L 384.339471 303.022891 
L 382.670837 303.178818 
L 381.002202 303.267109 
L 379.333568 303.493898 
L 377.664933 303.917654 
L 375.996299 304.428285 
L 374.327664 304.868502 
L 372.65903 305.183715 
L 370.990395 305.450014 
L 369.321761 305.723658 
L 367.653126 305.893212 
L 365.984492 305.765724 
L 364.315857 305.291493 
L 362.647223 304.649564 
L 360.978589 304.124577 
L 359.309954 303.912359 
L 357.64132 303.991123 
L 355.972685 304.151419 
L 354.304051 304.172221 
L 352.635416 303.993216 
L 350.966782 303.729623 
L 349.298147 303.540711 
L 347.629513 303.516531 
L 345.960878 303.696328 
L 344.292244 304.110251 
L 342.623609 304.701316 
L 340.954975 305.249551 
L 339.28634 305.506346 
L 337.617706 305.428244 
L 335.949071 305.190578 
L 334.280437 304.962239 
L 332.611802 304.751656 
L 330.943168 304.49831 
L 329.274533 304.22482 
L 327.605899 304.002873 
L 325.937264 303.802323 
L 324.26863 303.48126 
L 322.599996 302.952442 
L 320.931361 302.307268 
L 319.262727 301.764378 
L 317.594092 301.492116 
L 315.925458 301.43079 
L 314.256823 301.282702 
L 312.588189 300.763894 
L 310.919554 299.916166 
L 309.25092 299.119906 
L 307.582285 298.755471 
L 305.913651 298.867465 
L 304.245016 299.184973 
L 302.576382 299.424486 
L 300.907747 299.500474 
L 299.239113 299.458928 
L 297.570478 299.31906 
L 295.901844 299.034181 
L 294.233209 298.545412 
L 292.564575 297.815888 
L 290.89594 296.80649 
L 289.227306 295.419597 
L 287.558672 293.494371 
L 285.890037 290.927869 
L 284.221403 287.834786 
L 282.552768 284.622771 
L 280.884134 281.952058 
L 279.215499 280.500311 
L 277.546865 280.463869 
L 275.87823 281.162093 
L 274.209596 281.394037 
L 272.540961 280.4547 
L 270.872327 278.7229 
L 269.203692 277.116644 
L 267.535058 276.016518 
L 265.866423 274.778543 
L 264.197789 272.330456 
L 262.529154 268.326078 
L 260.86052 263.672575 
L 259.191885 259.800161 
L 257.523251 257.522684 
L 255.854616 256.73369 
L 254.185982 256.918085 
L 252.517347 257.610725 
L 250.848713 258.424467 
L 249.180079 258.885311 
L 247.511444 258.46798 
L 245.84281 257.053636 
L 244.174175 255.333191 
L 242.505541 254.326389 
L 240.836906 254.232166 
L 239.168272 253.992275 
L 237.499637 252.26972 
L 235.831003 248.852943 
L 234.162368 244.930385 
L 232.493734 241.938774 
L 230.825099 240.38488 
L 229.156465 239.945914 
L 227.48783 240.386264 
L 225.819196 241.935698 
L 224.150561 244.760755 
L 222.481927 248.34486 
L 220.813292 251.563115 
L 219.144658 253.392278 
L 217.476023 253.61005 
L 215.807389 252.931614 
L 214.138755 252.538558 
L 212.47012 253.329659 
L 210.801486 255.34908 
L 209.132851 257.84421 
L 207.464217 259.915095 
L 205.795582 261.140698 
L 204.126948 261.701032 
L 202.458313 262.101725 
L 200.789679 262.868666 
L 199.121044 264.368166 
L 197.45241 266.628332 
L 195.783775 269.17045 
L 194.115141 271.094584 
L 192.446506 271.484534 
L 190.777872 269.938718 
L 189.109237 266.935642 
L 187.440603 263.642062 
L 185.771968 261.03174 
L 184.103334 259.102519 
L 182.434699 257.159369 
L 180.766065 254.789362 
L 179.09743 252.273102 
L 177.428796 250.063743 
L 175.760162 248.149813 
L 174.091527 246.075252 
L 172.422893 243.538419 
L 170.754258 240.84467 
L 169.085624 238.678813 
L 167.416989 237.465911 
L 165.748355 237.022767 
L 164.07972 236.770532 
L 162.411086 236.155148 
L 160.742451 234.838039 
L 159.073817 232.56096 
L 157.405182 228.997897 
L 155.736548 223.986604 
L 154.067913 217.974171 
L 152.399279 211.932228 
L 150.730644 206.551738 
L 149.06201 201.712992 
L 147.393375 197.046491 
L 145.724741 192.805993 
L 144.056106 189.73366 
L 142.387472 188.072588 
L 140.718838 187.134954 
L 139.050203 186.084893 
L 137.381569 184.944664 
L 135.712934 184.521578 
L 134.0443 185.388371 
L 132.375665 187.20857 
L 130.707031 189.043929 
L 129.038396 190.101272 
L 127.369762 190.204636 
L 125.701127 189.73517 
L 124.032493 189.160394 
L 122.363858 188.610409 
L 120.695224 187.94683 
L 119.026589 187.204117 
L 117.357955 186.822524 
L 115.68932 187.415418 
L 114.020686 189.393339 
L 112.352051 192.816484 
L 110.683417 197.389489 
L 109.014782 202.327256 
L 107.346148 206.201479 
L 105.677513 207.294901 
L 104.008879 204.576824 
L 102.340245 198.488128 
L 100.67161 190.680933 
L 99.002976 182.932155 
L 97.334341 176.241911 
L 95.665707 170.774769 
L 93.997072 166.390091 
L 92.328438 162.975719 
L 90.659803 160.198399 
L 88.991169 157.265125 
L 87.322534 153.486652 
L 85.6539 149.261825 
L 83.985265 146.14205 
L 82.316631 145.578514 
L 80.647996 147.646736 
L 78.979362 151.028695 
L 77.310727 154.040924 
L 75.642093 155.684235 
L 73.973458 156.029211 
L 72.304824 155.765521 
L 70.636189 155.345003 
L 68.967555 154.723268 
L 67.298921 154.142951 
L 65.630286 154.789878 
L 63.961652 157.886126 
L 62.293017 163.016854 
L 60.624383 168.108419 
L 58.955748 171.516757 
L 57.287114 173.807427 
L 55.618479 177.16578 
L 53.949845 183.263727 
L 52.28121 191.809895 
L 50.612576 200.737284 
L 48.943941 207.363935 
L 47.275307 209.545857 
L 45.606672 206.278954 
L 43.938038 197.760733 
L 42.269403 185.376896 
L 40.600769 171.563746 
L 38.932134 158.833325 
L 37.2635 148.126559 
L 35.594865 138.063417 
L 33.926231 126.240129 
L 32.257596 111.700293 
L 30.588962 96.263443 
L 28.920328 83.092885 
L 27.251693 73.691512 
L 25.583059 66.617201 
L 23.914424 59.502125 
L 22.24579 52.126211 
L 20.577155 47.05245 
z
" clip-path="url(#pf735c36a31)" style="fill: #9f4800; fill-opacity: 0.1"/>
   </g>
   <g id="line2d_12">
    <path d="M 20.577155 306.721843 
L 22.24579 305.006158 
L 23.914424 304.680317 
L 25.583059 305.376209 
L 27.251693 301.336368 
L 28.920328 291.358337 
L 30.588962 280.035695 
L 32.257596 271.026036 
L 33.926231 264.347324 
L 35.594865 260.748359 
L 37.2635 263.485276 
L 38.932134 268.331419 
L 40.600769 266.322645 
L 42.269403 258.646878 
L 43.938038 252.847832 
L 45.606672 250.388371 
L 47.275307 245.790131 
L 48.943941 237.841017 
L 50.612576 230.818981 
L 52.28121 226.858134 
L 53.949845 225.482936 
L 55.618479 224.843922 
L 57.287114 223.394805 
L 58.955748 222.886898 
L 60.624383 225.050926 
L 62.293017 228.23826 
L 63.961652 229.514756 
L 65.630286 227.867229 
L 67.298921 225.217959 
L 68.967555 223.904172 
L 70.636189 223.545356 
L 72.304824 221.41333 
L 73.973458 217.578853 
L 75.642093 215.436711 
L 77.310727 215.398608 
L 78.979362 214.587636 
L 80.647996 211.508803 
L 82.316631 207.236598 
L 83.985265 204.130941 
L 85.6539 204.276545 
L 87.322534 207.943645 
L 88.991169 213.005816 
L 90.659803 215.981267 
L 92.328438 215.266915 
L 93.997072 212.561058 
L 95.665707 208.754155 
L 97.334341 204.083272 
L 99.002976 199.879487 
L 100.67161 196.195413 
L 102.340245 193.011709 
L 105.677513 188.232294 
L 109.014782 182.244327 
L 110.683417 180.441186 
L 112.352051 180.17694 
L 114.020686 181.193472 
L 115.68932 182.356998 
L 117.357955 182.773665 
L 119.026589 183.94261 
L 120.695224 185.961964 
L 122.363858 185.926221 
L 124.032493 182.696066 
L 125.701127 178.734197 
L 127.369762 176.135212 
L 129.038396 174.633619 
L 130.707031 173.932798 
L 132.375665 173.806066 
L 134.0443 174.159716 
L 135.712934 173.60794 
L 137.381569 170.94831 
L 139.050203 168.652293 
L 142.387472 168.731727 
L 144.056106 166.070876 
L 145.724741 161.323912 
L 147.393375 158.403926 
L 149.06201 160.689134 
L 150.730644 165.994863 
L 152.399279 168.784046 
L 154.067913 166.252849 
L 155.736548 161.380848 
L 157.405182 158.610764 
L 159.073817 157.702714 
L 160.742451 155.405015 
L 162.411086 150.842889 
L 164.07972 146.721832 
L 165.748355 145.783427 
L 167.416989 148.015654 
L 169.085624 150.949217 
L 170.754258 152.103922 
L 172.422893 150.394987 
L 174.091527 147.452729 
L 179.09743 139.708457 
L 180.766065 137.709656 
L 182.434699 136.142403 
L 184.103334 135.710645 
L 185.771968 135.645211 
L 187.440603 133.082455 
L 189.109237 128.616242 
L 190.777872 126.262069 
L 192.446506 127.075171 
L 194.115141 129.028004 
L 195.783775 130.63823 
L 197.45241 131.505257 
L 199.121044 131.684254 
L 200.789679 131.175977 
L 204.126948 128.529447 
L 205.795582 127.769633 
L 207.464217 127.808366 
L 209.132851 129.720683 
L 210.801486 133.700711 
L 212.47012 136.288424 
L 214.138755 134.455507 
L 215.807389 131.688452 
L 217.476023 130.492659 
L 219.144658 128.395849 
L 220.813292 125.501406 
L 222.481927 124.888918 
L 224.150561 126.720211 
L 225.819196 128.771739 
L 227.48783 129.575614 
L 229.156465 128.251106 
L 230.825099 125.173077 
L 232.493734 124.206588 
L 234.162368 126.438767 
L 235.831003 126.997686 
L 237.499637 124.94026 
L 239.168272 123.913719 
L 240.836906 124.531172 
L 242.505541 125.47015 
L 244.174175 126.921762 
L 245.84281 128.134752 
L 247.511444 127.294018 
L 249.180079 125.028454 
L 250.848713 123.739207 
L 252.517347 124.705673 
L 254.185982 126.44836 
L 255.854616 127.504951 
L 257.523251 127.865336 
L 259.191885 126.884483 
L 260.86052 124.580854 
L 262.529154 122.846133 
L 264.197789 122.768301 
L 265.866423 123.365801 
L 267.535058 123.689014 
L 269.203692 123.477602 
L 272.540961 121.504369 
L 274.209596 121.724249 
L 275.87823 123.29076 
L 277.546865 125.213148 
L 279.215499 125.04148 
L 282.552768 118.598949 
L 284.221403 117.853289 
L 285.890037 118.104985 
L 287.558672 117.586809 
L 289.227306 116.924079 
L 290.89594 116.530007 
L 292.564575 115.515402 
L 294.233209 113.649759 
L 295.901844 111.56389 
L 297.570478 110.933954 
L 299.239113 112.357344 
L 300.907747 112.958061 
L 302.576382 111.857865 
L 304.245016 111.644808 
L 305.913651 113.127763 
L 307.582285 113.760257 
L 309.25092 111.834733 
L 310.919554 109.102713 
L 312.588189 108.003592 
L 314.256823 109.545225 
L 315.925458 112.074372 
L 317.594092 113.458619 
L 319.262727 114.269906 
L 320.931361 114.824577 
L 322.599996 114.280121 
L 324.26863 113.872942 
L 325.937264 115.194752 
L 327.605899 116.320431 
L 329.274533 114.675055 
L 330.943168 111.89961 
L 332.611802 111.419943 
L 334.280437 113.486286 
L 335.949071 115.292976 
L 337.617706 114.969238 
L 339.28634 113.419395 
L 340.954975 112.452825 
L 342.623609 113.337376 
L 344.292244 115.606026 
L 345.960878 116.592513 
L 347.629513 114.983229 
L 349.298147 111.526773 
L 350.966782 105.979118 
L 352.635416 99.066489 
L 354.304051 96.238491 
L 355.972685 100.239632 
L 357.64132 106.026795 
L 359.309954 109.210849 
L 360.978589 108.463312 
L 362.647223 106.605481 
L 364.315857 107.900549 
L 367.653126 113.95205 
L 369.321761 116.867613 
L 370.990395 117.624849 
L 372.65903 114.770898 
L 374.327664 111.125033 
L 375.996299 109.705204 
L 377.664933 110.885336 
L 379.333568 113.186999 
L 381.002202 114.984653 
L 382.670837 115.464914 
L 386.008106 113.417506 
L 387.67674 114.187969 
L 389.345375 116.666742 
L 391.014009 119.747317 
L 392.682644 122.274116 
L 394.351278 123.824428 
L 396.019913 123.240484 
L 397.688547 118.472662 
L 399.357181 112.272121 
L 401.025816 109.660617 
L 402.69445 111.517023 
L 404.363085 115.310847 
L 406.031719 118.214923 
L 407.700354 118.929466 
L 409.368988 118.756134 
L 411.037623 119.469257 
L 412.706257 120.375638 
L 414.374892 119.164151 
L 416.043526 116.123948 
L 417.712161 114.578634 
L 419.380795 114.929606 
L 421.04943 114.712399 
L 422.718064 113.413452 
L 424.386699 112.384845 
L 426.055333 110.767926 
L 427.723968 107.187044 
L 429.392602 104.657006 
L 431.061237 105.490051 
L 432.729871 107.506846 
L 434.398506 108.241438 
L 436.06714 107.628558 
L 437.735774 107.541209 
L 439.404409 108.914217 
L 441.073043 109.462711 
L 442.741678 108.241175 
L 444.410312 107.862455 
L 446.078947 108.850296 
L 449.416216 110.205058 
L 451.08485 111.18114 
L 452.753485 111.615449 
L 456.090754 111.20564 
L 457.759388 111.672827 
L 459.428023 111.655275 
L 461.096657 109.843876 
L 462.765292 106.992667 
L 464.433926 105.239517 
L 466.102561 106.788102 
L 467.771195 109.61819 
L 469.43983 109.925342 
L 471.108464 109.015484 
L 474.445733 109.871587 
L 476.114367 108.912994 
L 477.783002 108.280466 
L 479.451636 108.819176 
L 481.120271 108.389644 
L 484.45754 104.128004 
L 486.126174 103.250933 
L 487.794809 104.418128 
L 489.463443 107.926373 
L 491.132078 111.754789 
L 492.800712 114.183443 
L 494.469347 114.197077 
L 496.137981 111.72793 
L 497.806616 108.574821 
L 499.47525 106.623364 
L 501.143885 106.32056 
L 502.812519 106.835821 
L 506.149788 107.251628 
L 507.818423 109.151498 
L 509.487057 111.611139 
L 511.155691 111.918224 
L 512.824326 110.210797 
L 516.161595 106.102139 
L 517.830229 104.499016 
L 519.498864 103.875034 
L 519.498864 103.875034 
" clip-path="url(#pf735c36a31)" style="fill: none; stroke: #023eff; stroke-linecap: round"/>
   </g>
   <g id="line2d_13">
    <path d="M 20.577155 90.25837 
L 22.24579 107.242078 
L 23.914424 135.233406 
L 25.583059 167.053382 
L 27.251693 196.647172 
L 28.920328 222.757193 
L 30.588962 246.724245 
L 32.257596 266.169962 
L 33.926231 276.161905 
L 35.594865 277.903696 
L 37.2635 279.372938 
L 38.932134 282.677914 
L 40.600769 285.051944 
L 42.269403 289.037004 
L 45.606672 305.267109 
L 47.275307 306.807692 
L 48.943941 300.423077 
L 50.612576 292.248718 
L 52.28121 287.242795 
L 53.949845 285.497289 
L 55.618479 285.47379 
L 57.287114 287.816144 
L 58.955748 294.557976 
L 60.624383 304.403554 
L 62.293017 312.96952 
L 63.961652 316.521739 
L 65.630286 314.68319 
L 67.298921 310.416991 
L 68.967555 307.887667 
L 70.636189 308.203689 
L 72.304824 306.918736 
L 73.973458 301.80418 
L 75.642093 296.280749 
L 77.310727 292.359654 
L 78.979362 290.077315 
L 80.647996 289.871509 
L 82.316631 290.718358 
L 83.985265 291.694662 
L 85.6539 293.936072 
L 88.991169 301.797216 
L 90.659803 303.049379 
L 92.328438 301.386669 
L 93.997072 298.842814 
L 95.665707 295.437961 
L 99.002976 286.516959 
L 100.67161 282.800167 
L 102.340245 279.888125 
L 105.677513 276.486842 
L 107.346148 273.750193 
L 109.014782 270.502643 
L 110.683417 268.294155 
L 112.352051 267.612587 
L 114.020686 268.509271 
L 115.68932 269.77473 
L 117.357955 270.047479 
L 119.026589 270.87432 
L 120.695224 272.535788 
L 122.363858 272.033467 
L 124.032493 268.095574 
L 125.701127 262.957199 
L 127.369762 258.683467 
L 129.038396 255.429456 
L 130.707031 253.598424 
L 132.375665 253.707722 
L 134.0443 255.478146 
L 135.712934 256.399504 
L 139.050203 253.046636 
L 140.718838 253.416295 
L 142.387472 253.408006 
L 144.056106 250.416715 
L 145.724741 245.516639 
L 147.393375 243.026199 
L 149.06201 246.083517 
L 150.730644 252.010898 
L 152.399279 255.116163 
L 154.067913 252.579321 
L 155.736548 247.589068 
L 157.405182 244.752824 
L 159.073817 243.652362 
L 160.742451 241.018096 
L 162.411086 236.161811 
L 164.07972 231.862332 
L 165.748355 230.662063 
L 167.416989 232.455387 
L 169.085624 235.035018 
L 170.754258 236.274385 
L 172.422893 234.975612 
L 175.760162 229.944499 
L 179.09743 224.195771 
L 180.766065 221.915812 
L 182.434699 220.155124 
L 184.103334 219.653355 
L 185.771968 219.617501 
L 187.440603 217.035074 
L 189.109237 212.449598 
L 190.777872 209.990152 
L 192.446506 210.76907 
L 194.115141 212.710237 
L 195.783775 214.298972 
L 197.45241 215.228794 
L 199.121044 215.745641 
L 200.789679 215.771872 
L 202.458313 214.773192 
L 204.126948 213.421071 
L 205.795582 212.319544 
L 207.464217 211.820976 
L 209.132851 213.03327 
L 210.801486 216.324103 
L 212.47012 218.538002 
L 214.138755 216.763103 
L 215.807389 214.362434 
L 217.476023 213.604384 
L 219.144658 211.783138 
L 220.813292 208.865662 
L 222.481927 208.068599 
L 224.150561 209.798552 
L 225.819196 211.991252 
L 227.48783 213.271806 
L 229.156465 212.454109 
L 230.825099 209.50632 
L 232.493734 208.558655 
L 234.162368 211.206194 
L 235.831003 212.34454 
L 237.499637 210.402996 
L 239.168272 208.998885 
L 240.836906 209.119294 
L 242.505541 209.803392 
L 245.84281 213.164402 
L 247.511444 212.354019 
L 249.180079 209.712627 
L 250.848713 208.056481 
L 252.517347 208.821899 
L 254.185982 210.520904 
L 255.854616 211.791544 
L 257.523251 212.397246 
L 259.191885 211.26678 
L 260.86052 208.635131 
L 262.529154 206.848272 
L 264.197789 206.870561 
L 265.866423 207.310854 
L 267.535058 207.296434 
L 269.203692 207.041511 
L 272.540961 205.374712 
L 274.209596 205.3919 
L 275.87823 206.806333 
L 277.546865 208.935116 
L 279.215499 209.219196 
L 280.884134 206.288237 
L 282.552768 203.046769 
L 284.221403 202.216955 
L 285.890037 202.305419 
L 289.227306 200.688341 
L 290.89594 200.364642 
L 292.564575 199.472768 
L 294.233209 197.497044 
L 295.901844 195.066351 
L 297.570478 194.227039 
L 299.239113 195.812199 
L 300.907747 196.638826 
L 302.576382 195.57755 
L 304.245016 195.417886 
L 305.913651 197.183159 
L 307.582285 198.041068 
L 309.25092 195.962007 
L 310.919554 192.9272 
L 312.588189 191.768997 
L 314.256823 193.631785 
L 315.925458 196.665001 
L 317.594092 198.555015 
L 319.262727 199.857084 
L 320.931361 200.780667 
L 322.599996 200.526353 
L 324.26863 200.558852 
L 325.937264 202.421779 
L 327.605899 203.871574 
L 329.274533 202.286005 
L 330.943168 199.481767 
L 332.611802 198.977619 
L 334.280437 201.108262 
L 335.949071 203.055525 
L 337.617706 202.799927 
L 339.28634 201.249134 
L 340.954975 200.343382 
L 342.623609 201.354684 
L 344.292244 203.680449 
L 345.960878 204.499606 
L 347.629513 202.513428 
L 349.298147 198.682742 
L 350.966782 192.890089 
L 352.635416 185.723674 
L 354.304051 182.751546 
L 355.972685 187.038508 
L 357.64132 193.34961 
L 359.309954 196.982038 
L 360.978589 196.493084 
L 362.647223 194.822267 
L 364.315857 196.436566 
L 367.653126 203.175851 
L 369.321761 206.3334 
L 370.990395 207.097823 
L 372.65903 203.960099 
L 374.327664 199.961127 
L 375.996299 198.378705 
L 377.664933 199.604844 
L 379.333568 201.934874 
L 381.002202 203.61977 
L 382.670837 203.961056 
L 386.008106 201.708833 
L 387.67674 202.34077 
L 389.345375 204.617338 
L 391.014009 207.632161 
L 392.682644 210.372818 
L 394.351278 212.083465 
L 396.019913 211.295615 
L 397.688547 206.090316 
L 399.357181 199.636449 
L 401.025816 197.205693 
L 402.69445 199.425815 
L 404.363085 203.410687 
L 406.031719 206.365912 
L 407.700354 207.195635 
L 409.368988 207.2539 
L 411.037623 208.278908 
L 412.706257 209.488968 
L 414.374892 208.406063 
L 416.043526 205.322118 
L 417.712161 203.816043 
L 419.380795 204.428336 
L 421.04943 204.496666 
L 422.718064 203.301311 
L 424.386699 202.251286 
L 426.055333 200.521359 
L 427.723968 196.711204 
L 429.392602 194.052957 
L 431.061237 195.026565 
L 432.729871 197.282957 
L 434.398506 198.18407 
L 436.06714 197.670967 
L 437.735774 197.62933 
L 439.404409 198.979567 
L 441.073043 199.428699 
L 442.741678 198.103882 
L 444.410312 197.717841 
L 446.078947 198.731918 
L 449.416216 200.196964 
L 451.08485 201.362787 
L 452.753485 201.993173 
L 456.090754 201.884069 
L 457.759388 202.420316 
L 459.428023 202.397056 
L 461.096657 200.474702 
L 462.765292 197.398475 
L 464.433926 195.433707 
L 466.102561 197.044979 
L 467.771195 200.163134 
L 469.43983 200.609804 
L 471.108464 199.668166 
L 474.445733 200.743056 
L 476.114367 199.895923 
L 477.783002 199.306789 
L 479.451636 199.829722 
L 481.120271 199.325689 
L 484.45754 194.858896 
L 486.126174 193.608812 
L 487.794809 194.403403 
L 489.463443 197.948306 
L 491.132078 202.145585 
L 492.800712 204.928081 
L 494.469347 205.110619 
L 496.137981 202.681187 
L 497.806616 199.582564 
L 499.47525 197.812732 
L 501.143885 197.785756 
L 502.812519 198.483845 
L 506.149788 198.71769 
L 507.818423 200.637333 
L 509.487057 203.318632 
L 511.155691 203.818619 
L 512.824326 202.058782 
L 516.161595 197.460999 
L 517.830229 195.828951 
L 519.498864 195.336214 
L 519.498864 195.336214 
" clip-path="url(#pf735c36a31)" style="fill: none; stroke: #ff7c00; stroke-linecap: round"/>
   </g>
   <g id="line2d_14">
    <path d="M 20.577155 99.544889 
L 22.24579 108.681588 
L 23.914424 125.252516 
L 25.583059 146.859638 
L 30.588962 219.150729 
L 32.257596 237.973002 
L 33.926231 251.155353 
L 35.594865 258.853351 
L 37.2635 262.831173 
L 38.932134 265.68705 
L 40.600769 269.601817 
L 42.269403 275.319161 
L 45.606672 288.372914 
L 47.275307 293.112503 
L 48.943941 295.947618 
L 50.612576 297.27169 
L 52.28121 297.873096 
L 53.949845 298.634421 
L 55.618479 300.32564 
L 57.287114 303.366083 
L 58.955748 307.569856 
L 60.624383 312.153599 
L 62.293017 316.12294 
L 63.961652 318.766872 
L 65.630286 319.945489 
L 67.298921 320.060729 
L 70.636189 319.291732 
L 72.304824 318.66969 
L 73.973458 317.604907 
L 75.642093 316.185694 
L 77.310727 315.008314 
L 78.979362 314.812775 
L 80.647996 315.893302 
L 83.985265 319.798863 
L 85.6539 321.125883 
L 87.322534 321.611085 
L 88.991169 321.46795 
L 92.328438 320.769522 
L 95.665707 320.569225 
L 99.002976 320.292622 
L 102.340245 320.032685 
L 105.677513 320.245109 
L 109.014782 320.596986 
L 112.352051 320.755307 
L 115.68932 320.733818 
L 117.357955 320.554585 
L 119.026589 320.202705 
L 120.695224 319.691013 
L 124.032493 318.300055 
L 127.369762 316.568971 
L 129.038396 315.878149 
L 130.707031 315.614239 
L 132.375665 315.900874 
L 134.0443 316.635132 
L 137.381569 318.362023 
L 139.050203 318.950818 
L 140.718838 319.30033 
L 142.387472 319.457418 
L 149.06201 319.496611 
L 152.399279 319.420989 
L 159.073817 318.966887 
L 164.07972 318.830444 
L 167.416989 318.429209 
L 170.754258 317.923395 
L 177.428796 317.483266 
L 184.103334 316.249424 
L 192.446506 315.431302 
L 194.115141 315.428845 
L 197.45241 315.774898 
L 200.789679 316.317573 
L 202.458313 316.479186 
L 204.126948 316.480683 
L 205.795582 316.306712 
L 209.132851 315.593205 
L 210.801486 315.227628 
L 212.47012 314.991927 
L 214.138755 314.936527 
L 217.476023 315.23031 
L 232.493734 317.141389 
L 235.831003 317.157707 
L 252.517347 315.971255 
L 259.191885 315.807486 
L 264.197789 315.194868 
L 267.535058 315.063513 
L 277.546865 315.077221 
L 280.884134 315.277518 
L 284.221403 315.113894 
L 289.227306 314.588582 
L 299.239113 314.258338 
L 304.245016 314.35779 
L 307.582285 314.472118 
L 314.256823 314.481809 
L 317.594092 314.971572 
L 325.937264 316.436444 
L 329.274533 316.797184 
L 332.611802 316.888344 
L 347.629513 316.805093 
L 350.966782 316.773872 
L 355.972685 317.036782 
L 367.653126 318.164247 
L 372.65903 318.337359 
L 379.333568 318.233351 
L 387.67674 317.620608 
L 392.682644 317.305538 
L 396.019913 317.30289 
L 399.357181 317.487304 
L 404.363085 317.812864 
L 409.368988 317.965998 
L 416.043526 318.354645 
L 439.404409 319.021603 
L 462.765292 319.464795 
L 469.43983 319.562974 
L 476.114367 319.724417 
L 481.120271 319.5989 
L 489.463443 319.12875 
L 492.800712 319.269185 
L 501.143885 319.981984 
L 504.481154 320.179702 
L 511.155691 320.221669 
L 516.161595 320.025914 
L 519.498864 319.907365 
L 519.498864 319.907365 
" clip-path="url(#pf735c36a31)" style="fill: none; stroke: #1ac938; stroke-width: 2; stroke-linecap: round"/>
   </g>
   <g id="line2d_15">
    <path d="M 20.577155 104.872521 
L 22.24579 112.625258 
L 23.914424 125.330828 
L 30.588962 183.256378 
L 32.257596 195.144228 
L 33.926231 202.691512 
L 35.594865 205.836097 
L 37.2635 206.978581 
L 38.932134 209.453523 
L 40.600769 215.303514 
L 43.938038 233.271335 
L 45.606672 240.3303 
L 47.275307 243.908966 
L 48.943941 244.375295 
L 50.612576 243.153614 
L 52.28121 241.694854 
L 53.949845 240.740231 
L 57.287114 239.692825 
L 58.955748 238.26954 
L 60.624383 235.335346 
L 63.961652 226.57658 
L 65.630286 223.52702 
L 67.298921 222.687379 
L 68.967555 223.66309 
L 72.304824 227.028133 
L 73.973458 227.975115 
L 75.642093 228.259982 
L 77.310727 228.4008 
L 78.979362 229.168205 
L 80.647996 231.027844 
L 83.985265 236.532204 
L 85.6539 238.34719 
L 87.322534 238.501754 
L 88.991169 237.070831 
L 90.659803 234.969922 
L 92.328438 233.433816 
L 93.997072 233.326643 
L 95.665707 234.848844 
L 97.334341 237.709876 
L 99.002976 241.437379 
L 102.340245 249.608373 
L 104.008879 253.037788 
L 105.677513 255.277034 
L 107.346148 256.00125 
L 109.014782 255.355661 
L 110.683417 253.853542 
L 112.352051 252.088284 
L 114.020686 250.552011 
L 115.68932 249.597166 
L 117.357955 249.431937 
L 119.026589 250.093369 
L 120.695224 251.394423 
L 122.363858 252.93338 
L 124.032493 254.230072 
L 125.701127 254.899048 
L 127.369762 254.739311 
L 129.038396 253.761192 
L 130.707031 252.189892 
L 132.375665 250.415593 
L 134.0443 248.881432 
L 135.712934 247.924437 
L 137.381569 247.586234 
L 140.718838 247.608318 
L 142.387472 247.795636 
L 144.056106 248.605518 
L 145.724741 250.310137 
L 154.067913 261.99174 
L 155.736548 263.982182 
L 157.405182 265.262637 
L 159.073817 265.731254 
L 160.742451 265.654808 
L 165.748355 264.803618 
L 167.416989 265.059469 
L 169.085624 266.116242 
L 170.754258 268.000627 
L 174.091527 272.612863 
L 179.09743 278.985378 
L 182.434699 283.636536 
L 184.103334 285.472112 
L 185.771968 287.09657 
L 187.440603 288.910902 
L 189.109237 290.951344 
L 190.777872 292.691287 
L 192.446506 293.504134 
L 194.115141 293.212812 
L 199.121044 290.222256 
L 200.789679 289.944446 
L 204.126948 290.059924 
L 205.795582 289.876862 
L 207.464217 289.361394 
L 210.801486 287.93435 
L 212.47012 287.666492 
L 214.138755 287.971335 
L 217.476023 289.29221 
L 219.144658 289.453706 
L 220.813292 288.934346 
L 222.481927 287.857743 
L 224.150561 286.619171 
L 225.819196 285.624318 
L 227.48783 285.043378 
L 229.156465 284.841013 
L 230.825099 285.026575 
L 232.493734 285.771804 
L 234.162368 287.18545 
L 235.831003 288.993668 
L 237.499637 290.581971 
L 239.168272 291.460761 
L 240.836906 291.681685 
L 242.505541 291.753988 
L 244.174175 292.148552 
L 247.511444 293.697206 
L 249.180079 294.216467 
L 250.848713 294.344811 
L 252.517347 294.145994 
L 254.185982 293.818259 
L 255.854616 293.663697 
L 257.523251 294.006812 
L 259.191885 295.051719 
L 262.529154 298.351705 
L 264.197789 299.388021 
L 265.866423 299.545888 
L 267.535058 299.23631 
L 269.203692 299.0904 
L 270.872327 299.355332 
L 272.540961 299.762391 
L 274.209596 299.927541 
L 277.546865 299.787713 
L 279.215499 300.254647 
L 280.884134 301.296528 
L 285.890037 305.301642 
L 287.558672 306.265587 
L 289.227306 306.99039 
L 290.89594 307.53965 
L 294.233209 308.277417 
L 297.570478 308.852306 
L 304.245016 310.528238 
L 307.582285 310.901968 
L 309.25092 311.405205 
L 312.588189 312.785039 
L 314.256823 313.243655 
L 315.925458 313.430268 
L 320.931361 313.558242 
L 324.26863 313.811143 
L 327.605899 313.940054 
L 330.943168 314.336671 
L 340.954975 315.621714 
L 342.623609 315.565226 
L 345.960878 314.98389 
L 347.629513 314.673246 
L 349.298147 314.480766 
L 354.304051 314.277795 
L 359.309954 313.4138 
L 360.978589 313.378866 
L 365.984492 314.044701 
L 367.653126 313.908196 
L 369.321761 313.468921 
L 374.327664 311.77532 
L 377.664933 310.850033 
L 379.333568 310.568707 
L 381.002202 310.512534 
L 387.67674 310.983175 
L 394.351278 310.382255 
L 401.025816 308.919938 
L 402.69445 308.764826 
L 404.363085 308.724156 
L 406.031719 308.857251 
L 409.368988 309.47072 
L 412.706257 310.301009 
L 414.374892 310.956445 
L 419.380795 313.441198 
L 421.04943 314.096326 
L 422.718064 314.576471 
L 424.386699 314.896624 
L 427.723968 315.19791 
L 432.729871 315.364881 
L 436.06714 315.608117 
L 437.735774 315.484415 
L 439.404409 315.048029 
L 444.410312 313.07599 
L 446.078947 312.704409 
L 447.747581 312.601147 
L 449.416216 312.797012 
L 451.08485 313.263691 
L 454.422119 314.481526 
L 456.090754 314.897348 
L 457.759388 315.058699 
L 459.428023 314.990819 
L 464.433926 314.377343 
L 469.43983 314.247345 
L 471.108464 314.278332 
L 472.777098 314.423585 
L 474.445733 314.724796 
L 477.783002 315.661246 
L 482.788905 317.239863 
L 484.45754 317.468461 
L 486.126174 317.279563 
L 491.132078 315.826632 
L 492.800712 315.734198 
L 494.469347 315.893564 
L 499.47525 316.925702 
L 501.143885 316.946147 
L 502.812519 316.687189 
L 506.149788 315.809372 
L 507.818423 315.553436 
L 509.487057 315.59656 
L 511.155691 315.911452 
L 514.49296 316.944617 
L 519.498864 318.884457 
L 519.498864 318.884457 
" clip-path="url(#pf735c36a31)" style="fill: none; stroke: #9f4800; stroke-width: 2; stroke-linecap: round"/>
   </g>
   <g id="line2d_16">
    <path d="M 20.577155 323.476429 
L 25.583059 292.912158 
L 30.588962 257.844765 
L 35.594865 238.376048 
L 40.600769 243.423744 
L 45.606672 243.714727 
L 50.612576 237.936619 
L 55.618479 238.049434 
L 60.624383 239.427361 
L 65.630286 236.909966 
L 70.636189 235.98004 
L 75.642093 231.262694 
L 80.647996 229.839364 
L 85.6539 229.543775 
L 90.659803 223.355703 
L 95.665707 212.474622 
L 100.67161 200.078867 
L 105.677513 192.240042 
L 110.683417 182.138393 
L 115.68932 174.360799 
L 120.695224 174.539067 
L 125.701127 166.77336 
L 130.707031 159.925268 
L 135.712934 155.218391 
L 140.718838 149.344677 
L 145.724741 140.985352 
L 150.730644 135.879625 
L 155.736548 132.328138 
L 160.742451 130.437582 
L 165.748355 125.913026 
L 170.754258 119.00246 
L 175.760162 114.740384 
L 180.766065 105.037547 
L 185.771968 99.862863 
L 190.777872 98.600064 
L 195.783775 98.797834 
L 200.789679 96.906439 
L 205.795582 93.496091 
L 210.801486 89.984701 
L 215.807389 88.337264 
L 220.813292 85.020337 
L 225.819196 83.736829 
L 230.825099 81.955554 
L 235.831003 80.127003 
L 240.836906 78.119058 
L 245.84281 78.230674 
L 250.848713 77.277623 
L 255.854616 77.322529 
L 260.86052 76.517159 
L 265.866423 76.424521 
L 270.872327 74.790089 
L 275.87823 73.734832 
L 280.884134 74.943004 
L 285.890037 76.969553 
L 290.89594 77.985431 
L 295.901844 77.448979 
L 300.907747 74.198942 
L 305.913651 73.89716 
L 310.919554 75.786261 
L 315.925458 75.919273 
L 320.931361 74.670458 
L 325.937264 73.786271 
L 330.943168 71.297857 
L 335.949071 72.005379 
L 340.954975 72.440391 
L 345.960878 71.647175 
L 350.966782 72.911234 
L 355.972685 76.742658 
L 360.978589 75.690368 
L 365.984492 75.099087 
L 370.990395 74.649556 
L 375.996299 75.763109 
L 381.002202 75.428067 
L 386.008106 72.826862 
L 391.014009 72.390316 
L 396.019913 72.569975 
L 401.025816 73.409874 
L 406.031719 74.754916 
L 411.037623 73.518684 
L 416.043526 72.996361 
L 421.04943 74.568938 
L 426.055333 76.570972 
L 431.061237 75.690318 
L 436.06714 73.753136 
L 441.073043 73.22964 
L 446.078947 74.294917 
L 451.08485 74.437119 
L 456.090754 73.658231 
L 461.096657 75.081373 
L 466.102561 74.222551 
L 471.108464 72.671088 
L 476.114367 72.932593 
L 481.120271 71.541545 
L 486.126174 71.642209 
L 491.132078 72.84209 
L 496.137981 72.275964 
L 501.143885 72.025514 
L 506.149788 72.740347 
L 511.155691 73.637953 
L 516.161595 73.540141 
" clip-path="url(#pf735c36a31)" style="fill: none; stroke: #000000; stroke-width: 1.5; stroke-linecap: round"/>
   </g>
   <g id="line2d_17">
    <path d="M 20.577155 74.728238 
L 25.583059 86.307868 
L 30.588962 103.930823 
L 35.594865 117.397672 
L 40.600769 128.119309 
L 45.606672 139.909194 
L 50.612576 149.879503 
L 55.618479 157.348495 
L 60.624383 162.504388 
L 65.630286 167.024601 
L 70.636189 168.844949 
L 75.642093 170.640991 
L 80.647996 173.055955 
L 85.6539 177.780934 
L 90.659803 185.418806 
L 95.665707 198.222707 
L 100.67161 209.91513 
L 105.677513 219.99716 
L 110.683417 221.695324 
L 115.68932 224.448906 
L 120.695224 231.886519 
L 125.701127 237.379009 
L 130.707031 240.40406 
L 135.712934 239.980814 
L 140.718838 239.364062 
L 145.724741 242.225505 
L 150.730644 247.256214 
L 155.736548 254.671752 
L 160.742451 260.678327 
L 165.748355 265.62353 
L 170.754258 270.169711 
L 175.760162 274.947493 
L 180.766065 276.195651 
L 185.771968 279.089572 
L 190.777872 282.12443 
L 195.783775 282.951604 
L 200.789679 283.32581 
L 205.795582 284.40172 
L 210.801486 285.998946 
L 215.807389 286.937704 
L 220.813292 285.925241 
L 225.819196 288.091466 
L 230.825099 289.930445 
L 235.831003 290.057258 
L 240.836906 292.37483 
L 245.84281 294.827184 
L 250.848713 295.130604 
L 255.854616 296.105286 
L 260.86052 295.84124 
L 265.866423 295.674428 
L 270.872327 296.969513 
L 275.87823 298.806328 
L 280.884134 302.950153 
L 285.890037 306.051309 
L 290.89594 308.080093 
L 295.901844 309.078566 
L 300.907747 308.420171 
L 305.913651 309.399099 
L 310.919554 311.170093 
L 315.925458 311.878115 
L 320.931361 311.522062 
L 325.937264 312.662591 
L 330.943168 313.706439 
L 335.949071 314.75091 
L 340.954975 314.510345 
L 345.960878 313.634724 
L 350.966782 315.021234 
L 355.972685 315.467536 
L 360.978589 313.934931 
L 365.984492 312.890551 
L 370.990395 312.157537 
L 375.996299 312.753603 
L 381.002202 312.994925 
L 386.008106 311.858295 
L 391.014009 310.854559 
L 396.019913 311.350839 
L 401.025816 313.222628 
L 406.031719 314.119776 
L 411.037623 313.563224 
L 416.043526 314.353363 
L 421.04943 317.358755 
L 426.055333 318.978784 
L 431.061237 319.053179 
L 436.06714 319.460028 
L 441.073043 320.432067 
L 446.078947 321.265814 
L 451.08485 320.787618 
L 456.090754 319.650004 
L 461.096657 319.996985 
L 466.102561 319.910331 
L 471.108464 319.161299 
L 476.114367 319.988899 
L 481.120271 320.585891 
L 486.126174 321.290036 
L 491.132078 322.555133 
L 496.137981 322.818555 
L 501.143885 322.59362 
L 506.149788 321.317873 
L 511.155691 320.976596 
L 516.161595 321.678905 
" clip-path="url(#pf735c36a31)" style="fill: none; stroke: #8b2be2; stroke-width: 1.5; stroke-linecap: round"/>
   </g>
   <g id="patch_3">
    <path d="M 10.8 328.52 
L 10.8 46.08 
" style="fill: none; stroke: #ffffff; stroke-width: 0.8; stroke-linejoin: miter; stroke-linecap: square"/>
   </g>
   <g id="patch_4">
    <path d="M 522.797024 328.52 
L 522.797024 46.08 
" style="fill: none; stroke: #ffffff; stroke-width: 0.8; stroke-linejoin: miter; stroke-linecap: square"/>
   </g>
   <g id="patch_5">
    <path d="M 10.8 328.52 
L 522.797024 328.52 
" style="fill: none; stroke: #ffffff; stroke-width: 0.8; stroke-linejoin: miter; stroke-linecap: square"/>
   </g>
   <g id="patch_6">
    <path d="M 10.8 46.08 
L 522.797024 46.08 
" style="fill: none; stroke: #ffffff; stroke-width: 0.8; stroke-linejoin: miter; stroke-linecap: square"/>
   </g>
  </g>
  <g id="text_3">
   <!-- CMU-Net | AM -->
   <g style="fill: #262626" transform="translate(176.641875 25.54125) scale(0.24 -0.24)">
    <defs>
     <path id="DejaVuSans-Bold-43" d="M 4288 256 
Q 3956 84 3597 -3 
Q 3238 -91 2847 -91 
Q 1681 -91 1000 561 
Q 319 1213 319 2328 
Q 319 3447 1000 4098 
Q 1681 4750 2847 4750 
Q 3238 4750 3597 4662 
Q 3956 4575 4288 4403 
L 4288 3438 
Q 3953 3666 3628 3772 
Q 3303 3878 2944 3878 
Q 2300 3878 1931 3465 
Q 1563 3053 1563 2328 
Q 1563 1606 1931 1193 
Q 2300 781 2944 781 
Q 3303 781 3628 887 
Q 3953 994 4288 1222 
L 4288 256 
z
" transform="scale(0.015625)"/>
     <path id="DejaVuSans-Bold-4d" d="M 588 4666 
L 2119 4666 
L 3181 2169 
L 4250 4666 
L 5778 4666 
L 5778 0 
L 4641 0 
L 4641 3413 
L 3566 897 
L 2803 897 
L 1728 3413 
L 1728 0 
L 588 0 
L 588 4666 
z
" transform="scale(0.015625)"/>
     <path id="DejaVuSans-Bold-55" d="M 588 4666 
L 1791 4666 
L 1791 1869 
Q 1791 1291 1980 1042 
Q 2169 794 2597 794 
Q 3028 794 3217 1042 
Q 3406 1291 3406 1869 
L 3406 4666 
L 4609 4666 
L 4609 1869 
Q 4609 878 4112 393 
Q 3616 -91 2597 -91 
Q 1581 -91 1084 393 
Q 588 878 588 1869 
L 588 4666 
z
" transform="scale(0.015625)"/>
     <path id="DejaVuSans-Bold-2d" d="M 347 2297 
L 2309 2297 
L 2309 1388 
L 347 1388 
L 347 2297 
z
" transform="scale(0.015625)"/>
     <path id="DejaVuSans-Bold-4e" d="M 588 4666 
L 1931 4666 
L 3628 1466 
L 3628 4666 
L 4769 4666 
L 4769 0 
L 3425 0 
L 1728 3200 
L 1728 0 
L 588 0 
L 588 4666 
z
" transform="scale(0.015625)"/>
     <path id="DejaVuSans-Bold-65" d="M 4031 1759 
L 4031 1441 
L 1416 1441 
Q 1456 1047 1700 850 
Q 1944 653 2381 653 
Q 2734 653 3104 758 
Q 3475 863 3866 1075 
L 3866 213 
Q 3469 63 3072 -14 
Q 2675 -91 2278 -91 
Q 1328 -91 801 392 
Q 275 875 275 1747 
Q 275 2603 792 3093 
Q 1309 3584 2216 3584 
Q 3041 3584 3536 3087 
Q 4031 2591 4031 1759 
z
M 2881 2131 
Q 2881 2450 2695 2645 
Q 2509 2841 2209 2841 
Q 1884 2841 1681 2658 
Q 1478 2475 1428 2131 
L 2881 2131 
z
" transform="scale(0.015625)"/>
     <path id="DejaVuSans-Bold-74" d="M 1759 4494 
L 1759 3500 
L 2913 3500 
L 2913 2700 
L 1759 2700 
L 1759 1216 
Q 1759 972 1856 886 
Q 1953 800 2241 800 
L 2816 800 
L 2816 0 
L 1856 0 
Q 1194 0 917 276 
Q 641 553 641 1216 
L 641 2700 
L 84 2700 
L 84 3500 
L 641 3500 
L 641 4494 
L 1759 4494 
z
" transform="scale(0.015625)"/>
     <path id="DejaVuSans-Bold-20" transform="scale(0.015625)"/>
     <path id="DejaVuSans-Bold-7c" d="M 1522 4891 
L 1522 -1509 
L 813 -1509 
L 813 4891 
L 1522 4891 
z
" transform="scale(0.015625)"/>
     <path id="DejaVuSans-Bold-41" d="M 3419 850 
L 1538 850 
L 1241 0 
L 31 0 
L 1759 4666 
L 3194 4666 
L 4922 0 
L 3713 0 
L 3419 850 
z
M 1838 1716 
L 3116 1716 
L 2478 3572 
L 1838 1716 
z
" transform="scale(0.015625)"/>
    </defs>
    <use xlink:href="#DejaVuSans-Bold-43"/>
    <use xlink:href="#DejaVuSans-Bold-4d" transform="translate(73.388672 0)"/>
    <use xlink:href="#DejaVuSans-Bold-55" transform="translate(172.900391 0)"/>
    <use xlink:href="#DejaVuSans-Bold-2d" transform="translate(254.101562 0)"/>
    <use xlink:href="#DejaVuSans-Bold-4e" transform="translate(295.605469 0)"/>
    <use xlink:href="#DejaVuSans-Bold-65" transform="translate(379.296875 0)"/>
    <use xlink:href="#DejaVuSans-Bold-74" transform="translate(447.119141 0)"/>
    <use xlink:href="#DejaVuSans-Bold-20" transform="translate(494.921875 0)"/>
    <use xlink:href="#DejaVuSans-Bold-7c" transform="translate(529.736328 0)"/>
    <use xlink:href="#DejaVuSans-Bold-20" transform="translate(566.259766 0)"/>
    <use xlink:href="#DejaVuSans-Bold-41" transform="translate(601.074219 0)"/>
    <use xlink:href="#DejaVuSans-Bold-4d" transform="translate(678.466797 0)"/>
   </g>
  </g>
 </g>
 <defs>
  <clipPath id="pf735c36a31">
   <rect x="10.8" y="46.08" width="511.997024" height="282.44"/>
  </clipPath>
 </defs>
</svg>
