<?xml version="1.0" encoding="utf-8" standalone="no"?>
<!DOCTYPE svg PUBLIC "-//W3C//DTD SVG 1.1//EN"
  "http://www.w3.org/Graphics/SVG/1.1/DTD/svg11.dtd">
<svg xmlns:xlink="http://www.w3.org/1999/xlink" width="540pt" height="360pt" viewBox="0 0 540 360" xmlns="http://www.w3.org/2000/svg" version="1.1">
 <metadata>
  <rdf:RDF xmlns:dc="http://purl.org/dc/elements/1.1/" xmlns:cc="http://creativecommons.org/ns#" xmlns:rdf="http://www.w3.org/1999/02/22-rdf-syntax-ns#">
   <cc:Work>
    <dc:type rdf:resource="http://purl.org/dc/dcmitype/StillImage"/>
    <dc:date>2025-08-04T02:53:28.319838</dc:date>
    <dc:format>image/svg+xml</dc:format>
    <dc:creator>
     <cc:Agent>
      <dc:title>Matplotlib v3.10.0, https://matplotlib.org/</dc:title>
     </cc:Agent>
    </dc:creator>
   </cc:Work>
  </rdf:RDF>
 </metadata>
 <defs>
  <style type="text/css">*{stroke-linejoin: round; stroke-linecap: butt}</style>
 </defs>
 <g id="figure_1">
  <g id="patch_1">
   <path d="M 0 360 
L 540 360 
L 540 0 
L 0 0 
z
" style="fill: #ffffff"/>
  </g>
  <g id="axes_1">
   <g id="patch_2">
    <path d="M 10.8 328.52 
L 522.797024 328.52 
L 522.797024 46.08 
L 10.8 46.08 
z
" style="fill: #eaeaf2"/>
   </g>
   <g id="matplotlib.axis_1">
    <g id="xtick_1">
     <g id="line2d_1">
      <path d="M 20.577155 328.52 
L 20.577155 46.08 
" clip-path="url(#p177e399436)" style="fill: none; stroke: #ffffff; stroke-width: 0.8; stroke-linecap: round"/>
     </g>
     <g id="text_1">
      <!-- 0 -->
      <g style="fill: #262626" transform="translate(16.123405 346.157812) scale(0.14 -0.14)">
       <defs>
        <path id="DejaVuSans-30" d="M 2034 4250 
Q 1547 4250 1301 3770 
Q 1056 3291 1056 2328 
Q 1056 1369 1301 889 
Q 1547 409 2034 409 
Q 2525 409 2770 889 
Q 3016 1369 3016 2328 
Q 3016 3291 2770 3770 
Q 2525 4250 2034 4250 
z
M 2034 4750 
Q 2819 4750 3233 4129 
Q 3647 3509 3647 2328 
Q 3647 1150 3233 529 
Q 2819 -91 2034 -91 
Q 1250 -91 836 529 
Q 422 1150 422 2328 
Q 422 3509 836 4129 
Q 1250 4750 2034 4750 
z
" transform="scale(0.015625)"/>
       </defs>
       <use xlink:href="#DejaVuSans-30"/>
      </g>
     </g>
    </g>
    <g id="xtick_2">
     <g id="line2d_2">
      <path d="M 509.434912 328.52 
L 509.434912 46.08 
" clip-path="url(#p177e399436)" style="fill: none; stroke: #ffffff; stroke-width: 0.8; stroke-linecap: round"/>
     </g>
     <g id="text_2">
      <!-- 600k -->
      <g style="fill: #262626" transform="translate(492.020225 346.157812) scale(0.14 -0.14)">
       <defs>
        <path id="DejaVuSans-36" d="M 2113 2584 
Q 1688 2584 1439 2293 
Q 1191 2003 1191 1497 
Q 1191 994 1439 701 
Q 1688 409 2113 409 
Q 2538 409 2786 701 
Q 3034 994 3034 1497 
Q 3034 2003 2786 2293 
Q 2538 2584 2113 2584 
z
M 3366 4563 
L 3366 3988 
Q 3128 4100 2886 4159 
Q 2644 4219 2406 4219 
Q 1781 4219 1451 3797 
Q 1122 3375 1075 2522 
Q 1259 2794 1537 2939 
Q 1816 3084 2150 3084 
Q 2853 3084 3261 2657 
Q 3669 2231 3669 1497 
Q 3669 778 3244 343 
Q 2819 -91 2113 -91 
Q 1303 -91 875 529 
Q 447 1150 447 2328 
Q 447 3434 972 4092 
Q 1497 4750 2381 4750 
Q 2619 4750 2861 4703 
Q 3103 4656 3366 4563 
z
" transform="scale(0.015625)"/>
        <path id="DejaVuSans-6b" d="M 581 4863 
L 1159 4863 
L 1159 1991 
L 2875 3500 
L 3609 3500 
L 1753 1863 
L 3688 0 
L 2938 0 
L 1159 1709 
L 1159 0 
L 581 0 
L 581 4863 
z
" transform="scale(0.015625)"/>
       </defs>
       <use xlink:href="#DejaVuSans-36"/>
       <use xlink:href="#DejaVuSans-30" transform="translate(63.623047 0)"/>
       <use xlink:href="#DejaVuSans-30" transform="translate(127.246094 0)"/>
       <use xlink:href="#DejaVuSans-6b" transform="translate(190.869141 0)"/>
      </g>
     </g>
    </g>
   </g>
   <g id="matplotlib.axis_2">
    <g id="ytick_1">
     <g id="line2d_3">
      <path d="M 10.8 323.476429 
L 522.797024 323.476429 
" clip-path="url(#p177e399436)" style="fill: none; stroke: #ffffff; stroke-width: 0.8; stroke-linecap: round"/>
     </g>
    </g>
    <g id="ytick_2">
     <g id="line2d_4">
      <path d="M 10.8 291.954107 
L 522.797024 291.954107 
" clip-path="url(#p177e399436)" style="fill: none; stroke: #ffffff; stroke-width: 0.8; stroke-linecap: round"/>
     </g>
    </g>
    <g id="ytick_3">
     <g id="line2d_5">
      <path d="M 10.8 260.431786 
L 522.797024 260.431786 
" clip-path="url(#p177e399436)" style="fill: none; stroke: #ffffff; stroke-width: 0.8; stroke-linecap: round"/>
     </g>
    </g>
    <g id="ytick_4">
     <g id="line2d_6">
      <path d="M 10.8 228.909464 
L 522.797024 228.909464 
" clip-path="url(#p177e399436)" style="fill: none; stroke: #ffffff; stroke-width: 0.8; stroke-linecap: round"/>
     </g>
    </g>
    <g id="ytick_5">
     <g id="line2d_7">
      <path d="M 10.8 197.387143 
L 522.797024 197.387143 
" clip-path="url(#p177e399436)" style="fill: none; stroke: #ffffff; stroke-width: 0.8; stroke-linecap: round"/>
     </g>
    </g>
    <g id="ytick_6">
     <g id="line2d_8">
      <path d="M 10.8 165.864821 
L 522.797024 165.864821 
" clip-path="url(#p177e399436)" style="fill: none; stroke: #ffffff; stroke-width: 0.8; stroke-linecap: round"/>
     </g>
    </g>
    <g id="ytick_7">
     <g id="line2d_9">
      <path d="M 10.8 134.3425 
L 522.797024 134.3425 
" clip-path="url(#p177e399436)" style="fill: none; stroke: #ffffff; stroke-width: 0.8; stroke-linecap: round"/>
     </g>
    </g>
    <g id="ytick_8">
     <g id="line2d_10">
      <path d="M 10.8 102.820179 
L 522.797024 102.820179 
" clip-path="url(#p177e399436)" style="fill: none; stroke: #ffffff; stroke-width: 0.8; stroke-linecap: round"/>
     </g>
    </g>
    <g id="ytick_9">
     <g id="line2d_11">
      <path d="M 10.8 71.297857 
L 522.797024 71.297857 
" clip-path="url(#p177e399436)" style="fill: none; stroke: #ffffff; stroke-width: 0.8; stroke-linecap: round"/>
     </g>
    </g>
   </g>
   <g id="FillBetweenPolyCollection_1">
    <path d="M 20.577155 -28.896922 
L 20.577155 242.088504 
L 22.24579 251.461037 
L 23.914424 266.610878 
L 25.583059 282.175514 
L 27.251693 293.7659 
L 28.920328 299.869728 
L 30.588962 301.692315 
L 32.257596 301.489344 
L 33.926231 300.970296 
L 35.594865 300.80857 
L 37.2635 301.149021 
L 38.932134 302.268809 
L 40.600769 304.646039 
L 42.269403 308.469218 
L 43.938038 313.269193 
L 45.606672 318.099484 
L 47.275307 322.039451 
L 48.943941 324.636859 
L 50.612576 326.113435 
L 52.28121 327.181581 
L 53.949845 328.519013 
L 55.618479 330.348457 
L 57.287114 332.47291 
L 58.955748 334.521354 
L 60.624383 336.054623 
L 62.293017 336.648528 
L 63.961652 336.176728 
L 65.630286 335.053364 
L 67.298921 334.031585 
L 68.967555 333.642937 
L 70.636189 333.828979 
L 72.304824 334.118861 
L 73.973458 334.130291 
L 75.642093 333.881415 
L 77.310727 333.674809 
L 78.979362 333.766501 
L 80.647996 334.174398 
L 82.316631 334.727788 
L 83.985265 335.2045 
L 85.6539 335.415173 
L 87.322534 335.262436 
L 88.991169 334.820522 
L 90.659803 334.333428 
L 92.328438 334.033334 
L 93.997072 333.925791 
L 95.665707 333.791593 
L 97.334341 333.403185 
L 99.002976 332.708827 
L 100.67161 331.832823 
L 102.340245 330.973414 
L 104.008879 330.322434 
L 105.677513 330.019951 
L 107.346148 330.118064 
L 109.014782 330.5805 
L 110.683417 331.349175 
L 112.352051 332.41121 
L 114.020686 333.773988 
L 115.68932 335.379354 
L 117.357955 337.075987 
L 119.026589 338.680037 
L 120.695224 340.051979 
L 122.363858 341.142021 
L 124.032493 341.988712 
L 125.701127 342.635451 
L 127.369762 343.022576 
L 129.038396 343.032195 
L 130.707031 342.683564 
L 132.375665 342.198447 
L 134.0443 341.80086 
L 135.712934 341.506 
L 137.381569 341.170714 
L 139.050203 340.720516 
L 140.718838 340.276081 
L 142.387472 340.057243 
L 144.056106 340.18347 
L 145.724741 340.566651 
L 147.393375 340.985169 
L 149.06201 341.251776 
L 150.730644 341.322323 
L 152.399279 341.268919 
L 154.067913 341.166338 
L 155.736548 341.01054 
L 157.405182 340.734138 
L 159.073817 340.269049 
L 160.742451 339.582014 
L 162.411086 338.68101 
L 164.07972 337.609841 
L 165.748355 336.427649 
L 167.416989 335.192717 
L 169.085624 333.97815 
L 170.754258 332.882097 
L 172.422893 331.983338 
L 174.091527 331.293237 
L 175.760162 330.771746 
L 177.428796 330.374035 
L 179.09743 330.061297 
L 180.766065 329.78247 
L 182.434699 329.471905 
L 184.103334 329.088523 
L 185.771968 328.663996 
L 187.440603 328.283571 
L 189.109237 327.992148 
L 190.777872 327.740345 
L 192.446506 327.458911 
L 194.115141 327.173445 
L 195.783775 327.01631 
L 197.45241 327.126086 
L 199.121044 327.534832 
L 200.789679 328.132299 
L 202.458313 328.729181 
L 204.126948 329.167497 
L 205.795582 329.374045 
L 207.464217 329.320628 
L 209.132851 328.990065 
L 210.801486 328.445376 
L 212.47012 327.896911 
L 214.138755 327.583537 
L 215.807389 327.551499 
L 217.476023 327.629807 
L 219.144658 327.645839 
L 220.813292 327.591328 
L 222.481927 327.565618 
L 224.150561 327.626005 
L 225.819196 327.716026 
L 227.48783 327.723744 
L 229.156465 327.624987 
L 230.825099 327.569255 
L 232.493734 327.764094 
L 234.162368 328.251051 
L 235.831003 328.829952 
L 237.499637 329.218035 
L 239.168272 329.278988 
L 240.836906 329.126748 
L 242.505541 329.019681 
L 244.174175 329.127465 
L 245.84281 329.387905 
L 247.511444 329.565877 
L 249.180079 329.415071 
L 250.848713 328.836203 
L 252.517347 327.972358 
L 254.185982 327.125191 
L 255.854616 326.508686 
L 257.523251 326.118888 
L 259.191885 325.881637 
L 260.86052 325.846807 
L 262.529154 326.148402 
L 264.197789 326.808007 
L 265.866423 327.65397 
L 267.535058 328.436759 
L 269.203692 328.979673 
L 270.872327 329.230193 
L 272.540961 329.23596 
L 274.209596 329.105865 
L 275.87823 328.955285 
L 277.546865 328.841458 
L 279.215499 328.744786 
L 280.884134 328.624385 
L 282.552768 328.488481 
L 284.221403 328.39461 
L 285.890037 328.381037 
L 287.558672 328.418067 
L 289.227306 328.437292 
L 290.89594 328.392752 
L 292.564575 328.282539 
L 294.233209 328.132172 
L 295.901844 327.98284 
L 297.570478 327.88864 
L 299.239113 327.895408 
L 300.907747 328.006492 
L 302.576382 328.174957 
L 304.245016 328.339873 
L 305.913651 328.47334 
L 307.582285 328.590006 
L 309.25092 328.710884 
L 310.919554 328.823107 
L 312.588189 328.881467 
L 314.256823 328.847537 
L 315.925458 328.716448 
L 317.594092 328.509284 
L 319.262727 328.259844 
L 320.931361 328.013327 
L 322.599996 327.820503 
L 324.26863 327.718284 
L 325.937264 327.707468 
L 327.605899 327.74593 
L 329.274533 327.772779 
L 330.943168 327.74544 
L 332.611802 327.641833 
L 334.280437 327.419867 
L 335.949071 326.998013 
L 337.617706 326.302994 
L 339.28634 325.344011 
L 340.954975 324.246199 
L 342.623609 323.220936 
L 344.292244 322.483987 
L 345.960878 322.148695 
L 347.629513 322.160512 
L 349.298147 322.351736 
L 350.966782 322.594704 
L 352.635416 322.907248 
L 354.304051 323.404628 
L 355.972685 324.167659 
L 357.64132 325.16612 
L 359.309954 326.271783 
L 360.978589 327.304084 
L 362.647223 328.077869 
L 364.315857 328.461964 
L 365.984492 328.439354 
L 367.653126 328.125495 
L 369.321761 327.709462 
L 370.990395 327.345176 
L 372.65903 327.083266 
L 374.327664 326.899275 
L 375.996299 326.764256 
L 377.664933 326.67211 
L 379.333568 326.620284 
L 381.002202 326.595231 
L 382.670837 326.584652 
L 384.339471 326.594963 
L 386.008106 326.647058 
L 387.67674 326.746957 
L 389.345375 326.864982 
L 391.014009 326.957889 
L 392.682644 327.001429 
L 394.351278 326.975015 
L 396.019913 326.830316 
L 397.688547 326.518538 
L 399.357181 326.052176 
L 401.025816 325.51073 
L 402.69445 324.988309 
L 404.363085 324.559962 
L 406.031719 324.290956 
L 407.700354 324.236887 
L 409.368988 324.415477 
L 411.037623 324.797203 
L 412.706257 325.332469 
L 414.374892 325.959555 
L 416.043526 326.573562 
L 417.712161 327.02885 
L 419.380795 327.222771 
L 421.04943 327.180412 
L 422.718064 327.031905 
L 424.386699 326.901954 
L 426.055333 326.833529 
L 427.723968 326.813484 
L 429.392602 326.845148 
L 431.061237 326.966331 
L 432.729871 327.188075 
L 434.398506 327.433063 
L 436.06714 327.561438 
L 437.735774 327.472396 
L 439.404409 327.190102 
L 441.073043 326.854832 
L 442.741678 326.62153 
L 444.410312 326.564204 
L 446.078947 326.678858 
L 447.747581 326.939284 
L 449.416216 327.303637 
L 451.08485 327.693292 
L 452.753485 328.022689 
L 454.422119 328.257328 
L 456.090754 328.425699 
L 457.759388 328.577183 
L 459.428023 328.737631 
L 461.096657 328.908982 
L 462.765292 329.101036 
L 464.433926 329.335216 
L 466.102561 329.599604 
L 467.771195 329.813096 
L 469.43983 329.859514 
L 471.108464 329.661799 
L 472.777098 329.21108 
L 474.445733 328.535722 
L 476.114367 327.680003 
L 477.783002 326.728752 
L 479.451636 325.820827 
L 481.120271 325.106548 
L 482.788905 324.691474 
L 484.45754 324.607278 
L 486.126174 324.794917 
L 487.794809 325.113706 
L 489.463443 325.413144 
L 491.132078 325.616078 
L 492.800712 325.711708 
L 494.469347 325.690791 
L 496.137981 325.551091 
L 497.806616 325.359266 
L 499.47525 325.232334 
L 501.143885 325.2366 
L 502.812519 325.34493 
L 504.481154 325.49998 
L 506.149788 325.683724 
L 507.818423 325.917512 
L 509.487057 326.21762 
L 511.155691 326.556675 
L 512.824326 326.859586 
L 514.49296 327.046828 
L 516.161595 327.096133 
L 517.830229 327.058822 
L 519.498864 327.014097 
L 519.498864 311.79367 
L 519.498864 311.79367 
L 517.830229 311.711055 
L 516.161595 311.518197 
L 514.49296 311.167358 
L 512.824326 310.62992 
L 511.155691 309.952358 
L 509.487057 309.269807 
L 507.818423 308.746524 
L 506.149788 308.47571 
L 504.481154 308.413053 
L 502.812519 308.412623 
L 501.143885 308.359255 
L 499.47525 308.278024 
L 497.806616 308.292501 
L 496.137981 308.475655 
L 494.469347 308.775937 
L 492.800712 309.083967 
L 491.132078 309.315173 
L 489.463443 309.420067 
L 487.794809 309.378784 
L 486.126174 309.218002 
L 484.45754 309.006827 
L 482.788905 308.82605 
L 481.120271 308.752065 
L 479.451636 308.852004 
L 477.783002 309.163577 
L 476.114367 309.669525 
L 474.445733 310.290159 
L 472.777098 310.884225 
L 471.108464 311.264493 
L 469.43983 311.269898 
L 467.771195 310.877328 
L 466.102561 310.246216 
L 464.433926 309.625882 
L 462.765292 309.203992 
L 461.096657 309.036316 
L 459.428023 309.081662 
L 457.759388 309.25562 
L 456.090754 309.452159 
L 454.422119 309.561738 
L 452.753485 309.521313 
L 451.08485 309.365758 
L 449.416216 309.212957 
L 447.747581 309.164946 
L 446.078947 309.215588 
L 444.410312 309.283994 
L 442.741678 309.33154 
L 441.073043 309.395842 
L 439.404409 309.512812 
L 437.735774 309.656466 
L 436.06714 309.750635 
L 434.398506 309.713581 
L 432.729871 309.518167 
L 431.061237 309.230398 
L 429.392602 308.969974 
L 427.723968 308.831945 
L 426.055333 308.860163 
L 424.386699 309.07193 
L 422.718064 309.465627 
L 421.04943 309.975962 
L 419.380795 310.439627 
L 417.712161 310.66234 
L 416.043526 310.5606 
L 414.374892 310.221104 
L 412.706257 309.801412 
L 411.037623 309.402043 
L 409.368988 309.053464 
L 407.700354 308.77818 
L 406.031719 308.604835 
L 404.363085 308.533908 
L 402.69445 308.546934 
L 401.025816 308.640643 
L 399.357181 308.794568 
L 397.688547 308.908654 
L 396.019913 308.844279 
L 394.351278 308.556889 
L 392.682644 308.151864 
L 391.014009 307.783937 
L 389.345375 307.52608 
L 387.67674 307.341601 
L 386.008106 307.152859 
L 384.339471 306.923527 
L 382.670837 306.687599 
L 381.002202 306.513281 
L 379.333568 306.449252 
L 377.664933 306.511597 
L 375.996299 306.722604 
L 374.327664 307.148817 
L 372.65903 307.86195 
L 370.990395 308.829353 
L 369.321761 309.873171 
L 367.653126 310.793135 
L 365.984492 311.491928 
L 364.315857 311.908091 
L 362.647223 311.897284 
L 360.978589 311.321359 
L 359.309954 310.251184 
L 357.64132 308.984743 
L 355.972685 307.854901 
L 354.304051 307.048323 
L 352.635416 306.556302 
L 350.966782 306.215532 
L 349.298147 305.819044 
L 347.629513 305.279416 
L 345.960878 304.728392 
L 344.292244 304.444804 
L 342.623609 304.683174 
L 340.954975 305.53282 
L 339.28634 306.820351 
L 337.617706 308.105522 
L 335.949071 308.898575 
L 334.280437 308.997288 
L 332.611802 308.604556 
L 330.943168 308.112905 
L 329.274533 307.831579 
L 327.605899 307.887779 
L 325.937264 308.234252 
L 324.26863 308.654075 
L 322.599996 308.840346 
L 320.931361 308.601301 
L 319.262727 308.014116 
L 317.594092 307.340152 
L 315.925458 306.801699 
L 314.256823 306.452871 
L 312.588189 306.22509 
L 310.919554 306.047266 
L 309.25092 305.912578 
L 307.582285 305.845581 
L 305.913651 305.832457 
L 304.245016 305.812235 
L 302.576382 305.73495 
L 300.907747 305.595912 
L 299.239113 305.413855 
L 297.570478 305.205432 
L 295.901844 304.98724 
L 294.233209 304.785804 
L 292.564575 304.64059 
L 290.89594 304.595267 
L 289.227306 304.667687 
L 287.558672 304.816325 
L 285.890037 304.949086 
L 284.221403 304.979656 
L 282.552768 304.874549 
L 280.884134 304.65179 
L 279.215499 304.356008 
L 277.546865 304.061522 
L 275.87823 303.872533 
L 274.209596 303.834647 
L 272.540961 303.808242 
L 270.872327 303.530821 
L 269.203692 302.927119 
L 267.535058 302.33533 
L 265.866423 302.338633 
L 264.197789 303.316506 
L 262.529154 305.093837 
L 260.86052 306.993533 
L 259.191885 308.270488 
L 257.523251 308.495045 
L 255.854616 307.562184 
L 254.185982 305.606582 
L 252.517347 303.078897 
L 250.848713 300.657926 
L 249.180079 298.830871 
L 247.511444 297.624504 
L 245.84281 296.804542 
L 244.174175 296.204083 
L 242.505541 295.806777 
L 240.836906 295.650269 
L 239.168272 295.781422 
L 237.499637 296.249606 
L 235.831003 296.990171 
L 234.162368 297.68117 
L 232.493734 297.901903 
L 230.825099 297.644983 
L 229.156465 297.592486 
L 227.48783 298.608704 
L 225.819196 300.799655 
L 224.150561 303.122198 
L 222.481927 304.085424 
L 220.813292 302.985338 
L 219.144658 300.524709 
L 217.476023 298.255146 
L 215.807389 297.470276 
L 214.138755 298.570626 
L 212.47012 301.216164 
L 210.801486 304.753551 
L 209.132851 308.419575 
L 207.464217 311.447918 
L 205.795582 313.37076 
L 204.126948 314.266466 
L 202.458313 314.553928 
L 200.789679 314.545314 
L 199.121044 314.261432 
L 197.45241 313.557288 
L 195.783775 312.304658 
L 194.115141 310.555664 
L 192.446506 308.664545 
L 190.777872 307.084799 
L 189.109237 305.909176 
L 187.440603 304.821648 
L 185.771968 303.655951 
L 184.103334 302.635176 
L 182.434699 301.803595 
L 180.766065 300.625897 
L 179.09743 298.541158 
L 177.428796 295.712112 
L 175.760162 292.923108 
L 174.091527 290.798903 
L 172.422893 289.227398 
L 170.754258 287.526933 
L 169.085624 285.204016 
L 167.416989 282.508309 
L 165.748355 280.198421 
L 164.07972 278.878239 
L 162.411086 278.624118 
L 160.742451 279.052158 
L 159.073817 279.584507 
L 157.405182 279.725761 
L 155.736548 279.249741 
L 154.067913 278.211566 
L 152.399279 276.830684 
L 150.730644 275.375318 
L 149.06201 274.071384 
L 147.393375 273.038339 
L 145.724741 272.293731 
L 144.056106 271.807165 
L 142.387472 271.511486 
L 140.718838 271.301188 
L 139.050203 271.101552 
L 137.381569 270.919614 
L 135.712934 270.76488 
L 134.0443 270.573065 
L 132.375665 270.28675 
L 130.707031 269.983284 
L 129.038396 269.902207 
L 127.369762 270.392233 
L 125.701127 271.828768 
L 124.032493 274.47559 
L 122.363858 278.319723 
L 120.695224 283.024861 
L 119.026589 288.067248 
L 117.357955 292.914768 
L 115.68932 297.12592 
L 114.020686 300.412293 
L 112.352051 302.687396 
L 110.683417 304.047346 
L 109.014782 304.694431 
L 107.346148 304.886287 
L 105.677513 304.904143 
L 104.008879 304.9535 
L 102.340245 305.02882 
L 100.67161 304.916361 
L 99.002976 304.403921 
L 97.334341 303.501607 
L 95.665707 302.437186 
L 93.997072 301.446599 
L 92.328438 300.6157 
L 90.659803 299.928007 
L 88.991169 299.417885 
L 87.322534 299.23332 
L 85.6539 299.531878 
L 83.985265 300.315487 
L 82.316631 301.343633 
L 80.647996 302.170851 
L 78.979362 302.284491 
L 77.310727 301.28688 
L 75.642093 299.024013 
L 73.973458 295.577479 
L 72.304824 291.059194 
L 70.636189 285.209627 
L 68.967555 277.149223 
L 67.298921 265.867797 
L 65.630286 251.417292 
L 63.961652 235.641646 
L 62.293017 221.427759 
L 60.624383 211.114373 
L 58.955748 205.579375 
L 57.287114 204.463638 
L 55.618479 206.715498 
L 53.949845 210.788023 
L 52.28121 214.694041 
L 50.612576 216.383966 
L 48.943941 214.502154 
L 47.275307 209.109721 
L 45.606672 201.728159 
L 43.938038 194.496077 
L 42.269403 189.077438 
L 40.600769 185.989993 
L 38.932134 184.212118 
L 37.2635 180.963886 
L 35.594865 172.450555 
L 33.926231 155.925247 
L 32.257596 131.654876 
L 30.588962 102.879534 
L 28.920328 73.641747 
L 27.251693 46.424396 
L 25.583059 21.683417 
L 23.914424 -0.502941 
L 22.24579 -18.47779 
L 20.577155 -28.896922 
z
" clip-path="url(#p177e399436)" style="fill: #1ac938; fill-opacity: 0.1"/>
   </g>
   <g id="FillBetweenPolyCollection_2">
    <path d="M 20.577155 68.110527 
L 20.577155 79.759 
L 22.24579 81.089313 
L 23.914424 83.497223 
L 25.583059 86.579103 
L 27.251693 89.962525 
L 28.920328 93.480534 
L 30.588962 97.230724 
L 32.257596 101.499384 
L 33.926231 106.617445 
L 35.594865 112.815365 
L 37.2635 120.102205 
L 38.932134 128.1757 
L 40.600769 136.438484 
L 42.269403 144.242382 
L 43.938038 151.289297 
L 45.606672 157.814356 
L 47.275307 164.299775 
L 48.943941 170.995185 
L 50.612576 177.739554 
L 52.28121 184.216079 
L 53.949845 190.299573 
L 55.618479 196.106627 
L 57.287114 201.7523 
L 58.955748 207.150127 
L 60.624383 212.082205 
L 62.293017 216.439417 
L 63.961652 220.360784 
L 65.630286 224.129187 
L 67.298921 227.943463 
L 68.967555 231.782491 
L 70.636189 235.458331 
L 72.304824 238.795073 
L 73.973458 241.769651 
L 75.642093 244.467006 
L 77.310727 246.920529 
L 78.979362 249.081085 
L 80.647996 250.972393 
L 82.316631 252.793083 
L 83.985265 254.800388 
L 85.6539 257.13074 
L 87.322534 259.783402 
L 88.991169 262.779074 
L 90.659803 266.305434 
L 92.328438 270.647174 
L 93.997072 275.876911 
L 95.665707 281.579361 
L 97.334341 286.961675 
L 99.002976 291.318938 
L 100.67161 294.414259 
L 102.340245 296.464105 
L 104.008879 297.857589 
L 105.677513 298.909153 
L 107.346148 299.78222 
L 109.014782 300.529055 
L 110.683417 301.14744 
L 112.352051 301.614745 
L 114.020686 301.909752 
L 115.68932 302.031547 
L 117.357955 302.007351 
L 119.026589 301.889462 
L 120.695224 301.749321 
L 122.363858 301.669443 
L 124.032493 301.729818 
L 125.701127 301.985211 
L 127.369762 302.439254 
L 129.038396 303.033967 
L 130.707031 303.675625 
L 132.375665 304.292221 
L 134.0443 304.874888 
L 135.712934 305.464629 
L 137.381569 306.105326 
L 139.050203 306.815205 
L 140.718838 307.592838 
L 142.387472 308.43349 
L 144.056106 309.330361 
L 145.724741 310.263709 
L 147.393375 311.195361 
L 149.06201 312.082269 
L 150.730644 312.902239 
L 152.399279 313.665576 
L 154.067913 314.40125 
L 155.736548 315.134726 
L 157.405182 315.878664 
L 159.073817 316.63826 
L 160.742451 317.413455 
L 162.411086 318.183721 
L 164.07972 318.892533 
L 165.748355 319.463395 
L 167.416989 319.843016 
L 169.085624 320.033864 
L 170.754258 320.09443 
L 172.422893 320.115718 
L 174.091527 320.182471 
L 175.760162 320.33116 
L 177.428796 320.536871 
L 179.09743 320.750878 
L 180.766065 320.952081 
L 182.434699 321.15486 
L 184.103334 321.375775 
L 185.771968 321.613714 
L 187.440603 321.86864 
L 189.109237 322.161194 
L 190.777872 322.513624 
L 192.446506 322.912827 
L 194.115141 323.30486 
L 195.783775 323.630476 
L 197.45241 323.86783 
L 199.121044 324.038912 
L 200.789679 324.163373 
L 202.458313 324.206128 
L 204.126948 324.093658 
L 205.795582 323.792932 
L 207.464217 323.356126 
L 209.132851 322.883838 
L 210.801486 322.465025 
L 212.47012 322.151315 
L 214.138755 321.957644 
L 215.807389 321.867178 
L 217.476023 321.842305 
L 219.144658 321.847788 
L 220.813292 321.873064 
L 222.481927 321.930902 
L 224.150561 322.031909 
L 225.819196 322.162006 
L 227.48783 322.285206 
L 229.156465 322.366853 
L 230.825099 322.395288 
L 232.493734 322.383735 
L 234.162368 322.355236 
L 235.831003 322.327611 
L 237.499637 322.311771 
L 239.168272 322.31994 
L 240.836906 322.367458 
L 242.505541 322.460294 
L 244.174175 322.582259 
L 245.84281 322.699244 
L 247.511444 322.779981 
L 249.180079 322.815098 
L 250.848713 322.818417 
L 252.517347 322.814459 
L 254.185982 322.828703 
L 255.854616 322.883316 
L 257.523251 322.98863 
L 259.191885 323.134924 
L 260.86052 323.298554 
L 262.529154 323.457957 
L 264.197789 323.603425 
L 265.866423 323.734275 
L 267.535058 323.851077 
L 269.203692 323.952822 
L 270.872327 324.041839 
L 272.540961 324.128615 
L 274.209596 324.228492 
L 275.87823 324.35194 
L 277.546865 324.497673 
L 279.215499 324.654106 
L 280.884134 324.805281 
L 282.552768 324.935205 
L 284.221403 325.033804 
L 285.890037 325.106609 
L 287.558672 325.175784 
L 289.227306 325.263153 
L 290.89594 325.36947 
L 292.564575 325.473896 
L 294.233209 325.557165 
L 295.901844 325.624345 
L 297.570478 325.70278 
L 299.239113 325.820086 
L 300.907747 325.984346 
L 302.576382 326.175205 
L 304.245016 326.347337 
L 305.913651 326.457746 
L 307.582285 326.507432 
L 309.25092 326.54763 
L 310.919554 326.626056 
L 312.588189 326.730987 
L 314.256823 326.802728 
L 315.925458 326.794511 
L 317.594092 326.710403 
L 319.262727 326.593947 
L 320.931361 326.496608 
L 322.599996 326.452195 
L 324.26863 326.463412 
L 325.937264 326.504322 
L 327.605899 326.540667 
L 329.274533 326.557248 
L 330.943168 326.570892 
L 332.611802 326.616407 
L 334.280437 326.719712 
L 335.949071 326.880183 
L 337.617706 327.069042 
L 339.28634 327.241799 
L 340.954975 327.357663 
L 342.623609 327.393982 
L 344.292244 327.354564 
L 345.960878 327.275047 
L 347.629513 327.206837 
L 349.298147 327.173753 
L 350.966782 327.146576 
L 352.635416 327.07333 
L 354.304051 326.934528 
L 355.972685 326.766585 
L 357.64132 326.636881 
L 359.309954 326.593839 
L 360.978589 326.628941 
L 362.647223 326.677907 
L 364.315857 326.664384 
L 365.984492 326.55584 
L 367.653126 326.384279 
L 369.321761 326.210195 
L 370.990395 326.065266 
L 372.65903 325.935782 
L 374.327664 325.797929 
L 375.996299 325.651389 
L 377.664933 325.512211 
L 379.333568 325.390223 
L 381.002202 325.285038 
L 382.670837 325.194556 
L 384.339471 325.117969 
L 386.008106 325.05544 
L 387.67674 325.010186 
L 389.345375 324.98753 
L 391.014009 324.989379 
L 392.682644 325.010917 
L 394.351278 325.042878 
L 396.019913 325.075623 
L 397.688547 325.100358 
L 399.357181 325.10835 
L 401.025816 325.094608 
L 402.69445 325.06697 
L 404.363085 325.048127 
L 406.031719 325.060685 
L 407.700354 325.110001 
L 409.368988 325.184853 
L 411.037623 325.270068 
L 412.706257 325.354341 
L 414.374892 325.43086 
L 416.043526 325.495565 
L 417.712161 325.545286 
L 419.380795 325.576521 
L 421.04943 325.58466 
L 422.718064 325.564718 
L 424.386699 325.516554 
L 426.055333 325.452206 
L 427.723968 325.394248 
L 429.392602 325.361907 
L 431.061237 325.358645 
L 432.729871 325.373909 
L 434.398506 325.394061 
L 436.06714 325.407499 
L 437.735774 325.400753 
L 439.404409 325.358819 
L 441.073043 325.27756 
L 442.741678 325.175897 
L 444.410312 325.092019 
L 446.078947 325.06305 
L 447.747581 325.101909 
L 449.416216 325.188904 
L 451.08485 325.287488 
L 452.753485 325.371323 
L 454.422119 325.435698 
L 456.090754 325.486095 
L 457.759388 325.524709 
L 459.428023 325.550588 
L 461.096657 325.564502 
L 462.765292 325.568417 
L 464.433926 325.564534 
L 466.102561 325.557955 
L 467.771195 325.556195 
L 469.43983 325.563588 
L 471.108464 325.579502 
L 472.777098 325.60334 
L 474.445733 325.637041 
L 476.114367 325.680043 
L 477.783002 325.724392 
L 479.451636 325.757344 
L 481.120271 325.769776 
L 482.788905 325.763927 
L 484.45754 325.752933 
L 486.126174 325.749057 
L 487.794809 325.751415 
L 489.463443 325.747508 
L 491.132078 325.726034 
L 492.800712 325.686052 
L 494.469347 325.635865 
L 496.137981 325.586405 
L 497.806616 325.544467 
L 499.47525 325.509497 
L 501.143885 325.477693 
L 502.812519 325.450747 
L 504.481154 325.438433 
L 506.149788 325.449775 
L 507.818423 325.482363 
L 509.487057 325.523786 
L 511.155691 325.564642 
L 512.824326 325.606411 
L 514.49296 325.65418 
L 516.161595 325.705188 
L 517.830229 325.748375 
L 519.498864 325.772722 
L 519.498864 320.899931 
L 519.498864 320.899931 
L 517.830229 320.859852 
L 516.161595 320.780462 
L 514.49296 320.667127 
L 512.824326 320.53103 
L 511.155691 320.384877 
L 509.487057 320.238356 
L 507.818423 320.099002 
L 506.149788 319.978439 
L 504.481154 319.89641 
L 502.812519 319.87019 
L 501.143885 319.890527 
L 499.47525 319.912085 
L 497.806616 319.884874 
L 496.137981 319.803471 
L 494.469347 319.717622 
L 492.800712 319.69074 
L 491.132078 319.751581 
L 489.463443 319.87937 
L 487.794809 320.022645 
L 486.126174 320.134398 
L 484.45754 320.201033 
L 482.788905 320.243135 
L 481.120271 320.288673 
L 479.451636 320.343531 
L 477.783002 320.381852 
L 476.114367 320.361733 
L 474.445733 320.253262 
L 472.777098 320.055681 
L 471.108464 319.792576 
L 469.43983 319.498647 
L 467.771195 319.21463 
L 466.102561 318.986962 
L 464.433926 318.857594 
L 462.765292 318.841278 
L 461.096657 318.907367 
L 459.428023 318.988994 
L 457.759388 319.021929 
L 456.090754 318.983996 
L 454.422119 318.90005 
L 452.753485 318.808139 
L 451.08485 318.723444 
L 449.416216 318.638464 
L 447.747581 318.550936 
L 446.078947 318.476226 
L 444.410312 318.429615 
L 442.741678 318.410838 
L 441.073043 318.411518 
L 439.404409 318.427696 
L 437.735774 318.46043 
L 436.06714 318.509879 
L 434.398506 318.571828 
L 432.729871 318.639469 
L 431.061237 318.708259 
L 429.392602 318.775617 
L 427.723968 318.835021 
L 426.055333 318.876694 
L 424.386699 318.898723 
L 422.718064 318.912513 
L 421.04943 318.93324 
L 419.380795 318.966097 
L 417.712161 319.003671 
L 416.043526 319.035328 
L 414.374892 319.054168 
L 412.706257 319.053189 
L 411.037623 319.021192 
L 409.368988 318.951013 
L 407.700354 318.851148 
L 406.031719 318.741986 
L 404.363085 318.640241 
L 402.69445 318.552358 
L 401.025816 318.477763 
L 399.357181 318.40576 
L 397.688547 318.31021 
L 396.019913 318.159913 
L 394.351278 317.935101 
L 392.682644 317.626305 
L 391.014009 317.221767 
L 389.345375 316.708631 
L 387.67674 316.092762 
L 386.008106 315.419306 
L 384.339471 314.766674 
L 382.670837 314.19874 
L 381.002202 313.708105 
L 379.333568 313.204154 
L 377.664933 312.565795 
L 375.996299 311.741996 
L 374.327664 310.82778 
L 372.65903 310.007174 
L 370.990395 309.375273 
L 369.321761 308.842182 
L 367.653126 308.258655 
L 365.984492 307.603346 
L 364.315857 306.991448 
L 362.647223 306.523943 
L 360.978589 306.180692 
L 359.309954 305.850692 
L 357.64132 305.428934 
L 355.972685 304.884048 
L 354.304051 304.263714 
L 352.635416 303.660125 
L 350.966782 303.158439 
L 349.298147 302.779666 
L 347.629513 302.461537 
L 345.960878 302.129591 
L 344.292244 301.795091 
L 342.623609 301.55481 
L 340.954975 301.495613 
L 339.28634 301.624965 
L 337.617706 301.881669 
L 335.949071 302.178083 
L 334.280437 302.428265 
L 332.611802 302.561948 
L 330.943168 302.53896 
L 329.274533 302.364121 
L 327.605899 302.084202 
L 325.937264 301.75976 
L 324.26863 301.429975 
L 322.599996 301.093291 
L 320.931361 300.712431 
L 319.262727 300.24381 
L 317.594092 299.685008 
L 315.925458 299.11634 
L 314.256823 298.681316 
L 312.588189 298.484191 
L 310.919554 298.499017 
L 309.25092 298.613322 
L 307.582285 298.761234 
L 305.913651 298.969276 
L 304.245016 299.264067 
L 302.576382 299.580856 
L 300.907747 299.780384 
L 299.239113 299.73583 
L 297.570478 299.414037 
L 295.901844 298.915862 
L 294.233209 298.440866 
L 292.564575 298.16204 
L 290.89594 298.099517 
L 289.227306 298.124247 
L 287.558672 298.088805 
L 285.890037 297.943801 
L 284.221403 297.737171 
L 282.552768 297.532888 
L 280.884134 297.350552 
L 279.215499 297.166517 
L 277.546865 296.937541 
L 275.87823 296.624775 
L 274.209596 296.23155 
L 272.540961 295.823326 
L 270.872327 295.485453 
L 269.203692 295.249179 
L 267.535058 295.061838 
L 265.866423 294.83679 
L 264.197789 294.541764 
L 262.529154 294.24342 
L 260.86052 294.052295 
L 259.191885 294.009258 
L 257.523251 294.034699 
L 255.854616 294.005048 
L 254.185982 293.859735 
L 252.517347 293.620115 
L 250.848713 293.345761 
L 249.180079 293.115006 
L 247.511444 293.010621 
L 245.84281 293.053282 
L 244.174175 293.133496 
L 242.505541 293.046208 
L 240.836906 292.626717 
L 239.168272 291.858692 
L 237.499637 290.858128 
L 235.831003 289.786533 
L 234.162368 288.793859 
L 232.493734 288.001596 
L 230.825099 287.473175 
L 229.156465 287.155367 
L 227.48783 286.848732 
L 225.819196 286.294396 
L 224.150561 285.352297 
L 222.481927 284.091012 
L 220.813292 282.672166 
L 219.144658 281.172632 
L 217.476023 279.558329 
L 215.807389 277.802579 
L 214.138755 275.972835 
L 212.47012 274.205247 
L 210.801486 272.636669 
L 209.132851 271.355359 
L 207.464217 270.36556 
L 205.795582 269.576229 
L 204.126948 268.848388 
L 202.458313 268.082219 
L 200.789679 267.264844 
L 199.121044 266.436573 
L 197.45241 265.627697 
L 195.783775 264.84066 
L 194.115141 264.076457 
L 192.446506 263.354267 
L 190.777872 262.704425 
L 189.109237 262.15185 
L 187.440603 261.702321 
L 185.771968 261.338845 
L 184.103334 261.03425 
L 182.434699 260.766056 
L 180.766065 260.514185 
L 179.09743 260.252905 
L 177.428796 259.96125 
L 175.760162 259.643355 
L 174.091527 259.325612 
L 172.422893 259.028844 
L 170.754258 258.747753 
L 169.085624 258.452831 
L 167.416989 258.102235 
L 165.748355 257.65824 
L 164.07972 257.107893 
L 162.411086 256.473195 
L 160.742451 255.794012 
L 159.073817 255.096008 
L 157.405182 254.373001 
L 155.736548 253.594241 
L 154.067913 252.722502 
L 152.399279 251.729375 
L 150.730644 250.603645 
L 149.06201 249.353348 
L 147.393375 248.001821 
L 145.724741 246.576223 
L 144.056106 245.092516 
L 142.387472 243.555628 
L 140.718838 241.983339 
L 139.050203 240.42184 
L 137.381569 238.920677 
L 135.712934 237.496111 
L 134.0443 236.132504 
L 132.375665 234.813077 
L 130.707031 233.530937 
L 129.038396 232.27009 
L 127.369762 230.993424 
L 125.701127 229.663641 
L 124.032493 228.271786 
L 122.363858 226.833058 
L 120.695224 225.358825 
L 119.026589 223.851735 
L 117.357955 222.324741 
L 115.68932 220.796282 
L 114.020686 219.258206 
L 112.352051 217.670313 
L 110.683417 215.993968 
L 109.014782 214.217868 
L 107.346148 212.349829 
L 105.677513 210.396902 
L 104.008879 208.356776 
L 102.340245 206.220552 
L 100.67161 203.981724 
L 99.002976 201.63832 
L 97.334341 199.172429 
L 95.665707 196.535556 
L 93.997072 193.689005 
L 92.328438 190.667725 
L 90.659803 187.574135 
L 88.991169 184.495213 
L 87.322534 181.442331 
L 85.6539 178.368949 
L 83.985265 175.21656 
L 82.316631 171.943671 
L 80.647996 168.550312 
L 78.979362 165.101404 
L 77.310727 161.712257 
L 75.642093 158.486033 
L 73.973458 155.457789 
L 72.304824 152.589626 
L 70.636189 149.795412 
L 68.967555 146.968142 
L 67.298921 144.027061 
L 65.630286 140.977304 
L 63.961652 137.904928 
L 62.293017 134.885939 
L 60.624383 131.918371 
L 58.955748 128.960595 
L 57.287114 126.004802 
L 55.618479 123.07677 
L 53.949845 120.176299 
L 52.28121 117.253463 
L 50.612576 114.245978 
L 48.943941 111.116664 
L 47.275307 107.86097 
L 45.606672 104.504311 
L 43.938038 101.089299 
L 42.269403 97.640258 
L 40.600769 94.140332 
L 38.932134 90.568045 
L 37.2635 86.970052 
L 35.594865 83.496449 
L 33.926231 80.347775 
L 32.257596 77.665227 
L 30.588962 75.459757 
L 28.920328 73.636905 
L 27.251693 72.07759 
L 25.583059 70.70628 
L 23.914424 69.524665 
L 22.24579 68.615786 
L 20.577155 68.110527 
z
" clip-path="url(#p177e399436)" style="fill: #e8000b; fill-opacity: 0.1"/>
   </g>
   <g id="FillBetweenPolyCollection_3">
    <path d="M 20.577155 28.982057 
L 20.577155 146.929172 
L 22.24579 155.897472 
L 23.914424 171.885415 
L 25.583059 191.291806 
L 27.251693 209.846977 
L 28.920328 224.138355 
L 30.588962 232.397926 
L 32.257596 233.89994 
L 33.926231 228.404141 
L 35.594865 217.108081 
L 37.2635 203.794842 
L 38.932134 193.807311 
L 40.600769 191.130734 
L 42.269403 196.33734 
L 43.938038 207.09745 
L 45.606672 220.109054 
L 47.275307 232.384115 
L 48.943941 241.548022 
L 50.612576 246.307313 
L 52.28121 247.197671 
L 53.949845 246.469374 
L 55.618479 246.788101 
L 57.287114 249.860956 
L 58.955748 255.981062 
L 60.624383 264.297134 
L 62.293017 273.252925 
L 63.961652 281.230613 
L 65.630286 287.524055 
L 67.298921 292.922113 
L 68.967555 299.013261 
L 70.636189 306.732719 
L 72.304824 315.67169 
L 73.973458 324.623757 
L 75.642093 332.459128 
L 77.310727 338.553279 
L 78.979362 342.798729 
L 80.647996 345.404241 
L 82.316631 346.597191 
L 83.985265 346.4911 
L 85.6539 345.262073 
L 87.322534 343.34947 
L 88.991169 341.317182 
L 90.659803 339.489064 
L 92.328438 337.815316 
L 93.997072 336.132716 
L 95.665707 334.431652 
L 97.334341 332.773095 
L 99.002976 331.116374 
L 100.67161 329.437891 
L 102.340245 327.952711 
L 104.008879 327.065776 
L 105.677513 327.066171 
L 107.346148 327.822265 
L 109.014782 328.759354 
L 110.683417 329.273827 
L 112.352051 329.254637 
L 114.020686 329.089786 
L 115.68932 329.109184 
L 117.357955 329.230063 
L 119.026589 329.312916 
L 120.695224 329.689419 
L 122.363858 331.016079 
L 124.032493 333.52633 
L 125.701127 336.571279 
L 127.369762 339.009317 
L 129.038396 340.089231 
L 130.707031 339.915153 
L 132.375665 339.046272 
L 134.0443 337.82993 
L 135.712934 336.3221 
L 137.381569 334.723101 
L 139.050203 333.563392 
L 140.718838 333.354097 
L 142.387472 334.157233 
L 144.056106 335.487795 
L 145.724741 336.599806 
L 147.393375 337.091129 
L 149.06201 337.456145 
L 150.730644 338.841348 
L 152.399279 341.870446 
L 154.067913 345.701716 
L 155.736548 348.524443 
L 157.405182 349.083708 
L 159.073817 347.710926 
L 160.742451 345.973903 
L 162.411086 345.384376 
L 164.07972 346.295233 
L 165.748355 347.854972 
L 167.416989 348.922906 
L 169.085624 349.032593 
L 170.754258 348.60584 
L 172.422893 348.455201 
L 174.091527 349.151833 
L 175.760162 350.695859 
L 177.428796 352.587504 
L 179.09743 354.222579 
L 180.766065 355.330962 
L 182.434699 356.036701 
L 184.103334 356.461766 
L 185.771968 356.349778 
L 187.440603 355.187612 
L 189.109237 352.709406 
L 190.777872 349.250953 
L 192.446506 345.615565 
L 194.115141 342.609129 
L 195.783775 340.657942 
L 197.45241 339.771542 
L 199.121044 339.756839 
L 200.789679 340.450105 
L 202.458313 341.845167 
L 204.126948 344.028163 
L 205.795582 346.877524 
L 207.464217 349.812745 
L 209.132851 351.978422 
L 210.801486 352.750076 
L 212.47012 352.055005 
L 214.138755 350.282274 
L 215.807389 348.004518 
L 217.476023 345.764275 
L 219.144658 344.015288 
L 220.813292 343.172466 
L 222.481927 343.583079 
L 224.150561 345.313876 
L 225.819196 347.989488 
L 227.48783 350.989354 
L 229.156465 353.881519 
L 230.825099 356.697805 
L 232.493734 359.819134 
L 234.162368 363.518216 
L 235.831003 367.446548 
L 237.499637 370.569418 
L 239.168272 371.824545 
L 240.836906 371.012534 
L 242.505541 369.031527 
L 244.174175 367.190596 
L 245.84281 366.275727 
L 247.511444 366.175932 
L 249.180079 366.26375 
L 250.848713 366.096671 
L 252.517347 365.830438 
L 254.185982 365.968664 
L 255.854616 366.697113 
L 257.523251 367.568418 
L 259.191885 367.947271 
L 260.86052 367.728006 
L 262.529154 367.518265 
L 264.197789 368.076778 
L 265.866423 369.58658 
L 267.535058 371.523653 
L 269.203692 373.23446 
L 270.872327 374.537323 
L 272.540961 375.684901 
L 274.209596 376.832369 
L 275.87823 377.676664 
L 277.546865 377.618509 
L 279.215499 376.270949 
L 280.884134 373.908537 
L 282.552768 371.498863 
L 284.221403 370.196787 
L 285.890037 370.631876 
L 287.558672 372.598095 
L 289.227306 375.336482 
L 290.89594 378.01412 
L 292.564575 380.073716 
L 294.233209 381.411824 
L 295.901844 382.298602 
L 297.570478 383.030043 
L 299.239113 383.607334 
L 300.907747 383.764237 
L 302.576382 383.301956 
L 304.245016 382.37106 
L 305.913651 381.406524 
L 307.582285 380.789591 
L 309.25092 380.566011 
L 310.919554 380.439822 
L 312.588189 380.020538 
L 314.256823 379.181467 
L 315.925458 378.250485 
L 317.594092 377.797813 
L 319.262727 378.205624 
L 320.931361 379.437347 
L 322.599996 381.091206 
L 324.26863 382.567379 
L 325.937264 383.318115 
L 327.605899 383.169888 
L 329.274533 382.433822 
L 330.943168 381.601232 
L 332.611802 380.942642 
L 334.280437 380.534358 
L 335.949071 380.660164 
L 337.617706 381.983499 
L 339.28634 385.170853 
L 340.954975 390.354671 
L 342.623609 396.968882 
L 344.292244 403.974776 
L 345.960878 410.188688 
L 347.629513 414.549622 
L 349.298147 416.249082 
L 350.966782 414.773503 
L 352.635416 410.089791 
L 354.304051 402.983298 
L 355.972685 395.101129 
L 357.64132 388.338043 
L 359.309954 383.892212 
L 360.978589 381.754987 
L 362.647223 380.965992 
L 364.315857 380.33733 
L 365.984492 379.148166 
L 367.653126 377.408579 
L 369.321761 375.574463 
L 370.990395 374.041223 
L 372.65903 372.907463 
L 374.327664 372.095127 
L 375.996299 371.507519 
L 377.664933 371.053719 
L 379.333568 370.649178 
L 381.002202 370.235703 
L 382.670837 369.775225 
L 384.339471 369.270858 
L 386.008106 368.809065 
L 387.67674 368.487797 
L 389.345375 368.282867 
L 391.014009 368.07633 
L 392.682644 367.796336 
L 394.351278 367.444244 
L 396.019913 367.051588 
L 397.688547 366.716437 
L 399.357181 366.627011 
L 401.025816 366.935767 
L 402.69445 367.563299 
L 404.363085 368.155845 
L 406.031719 368.311878 
L 407.700354 367.892666 
L 409.368988 367.097335 
L 411.037623 366.251809 
L 412.706257 365.567287 
L 414.374892 365.047839 
L 416.043526 364.529211 
L 417.712161 363.80419 
L 419.380795 362.797803 
L 421.04943 361.679391 
L 422.718064 360.768537 
L 424.386699 360.264937 
L 426.055333 360.088139 
L 427.723968 360.017109 
L 429.392602 359.9526 
L 431.061237 360.042668 
L 432.729871 360.595031 
L 434.398506 361.807644 
L 436.06714 363.501351 
L 437.735774 365.158485 
L 439.404409 366.279581 
L 441.073043 366.702908 
L 442.741678 366.648932 
L 444.410312 366.518789 
L 446.078947 366.582635 
L 447.747581 366.802566 
L 449.416216 366.96348 
L 451.08485 366.924832 
L 452.753485 366.72547 
L 454.422119 366.568068 
L 456.090754 366.791121 
L 457.759388 367.741689 
L 459.428023 369.516736 
L 461.096657 371.806847 
L 462.765292 374.040724 
L 464.433926 375.692341 
L 466.102561 376.491872 
L 467.771195 376.475276 
L 469.43983 375.945785 
L 471.108464 375.326589 
L 472.777098 374.86052 
L 474.445733 374.365906 
L 476.114367 373.374292 
L 477.783002 371.593848 
L 479.451636 369.217662 
L 481.120271 366.770383 
L 482.788905 364.74404 
L 484.45754 363.422996 
L 486.126174 362.889953 
L 487.794809 362.993136 
L 489.463443 363.334986 
L 491.132078 363.456341 
L 492.800712 363.091151 
L 494.469347 362.268816 
L 496.137981 361.2791 
L 497.806616 360.571019 
L 499.47525 360.503967 
L 501.143885 361.057441 
L 502.812519 361.864878 
L 504.481154 362.587942 
L 506.149788 363.154097 
L 507.818423 363.588365 
L 509.487057 363.718786 
L 511.155691 363.195683 
L 512.824326 361.86864 
L 514.49296 360.067611 
L 516.161595 358.406471 
L 517.830229 357.314237 
L 519.498864 356.831513 
L 519.498864 261.926623 
L 519.498864 261.926623 
L 517.830229 261.132195 
L 516.161595 258.964037 
L 514.49296 255.298791 
L 512.824326 251.29786 
L 511.155691 248.87062 
L 509.487057 249.119711 
L 507.818423 251.435861 
L 506.149788 254.151823 
L 504.481154 255.870932 
L 502.812519 256.233919 
L 501.143885 255.840054 
L 499.47525 255.648446 
L 497.806616 256.31762 
L 496.137981 257.886282 
L 494.469347 259.829433 
L 492.800712 261.321697 
L 491.132078 261.667363 
L 489.463443 260.744953 
L 487.794809 258.986272 
L 486.126174 256.803047 
L 484.45754 254.13943 
L 482.788905 250.686333 
L 481.120271 246.357083 
L 479.451636 241.462186 
L 477.783002 236.61453 
L 476.114367 232.500021 
L 474.445733 229.502152 
L 472.777098 227.466279 
L 471.108464 225.942317 
L 469.43983 224.67495 
L 467.771195 223.882399 
L 466.102561 224.211336 
L 464.433926 226.446556 
L 462.765292 231.040304 
L 461.096657 237.663852 
L 459.428023 245.133252 
L 457.759388 251.889538 
L 456.090754 256.74266 
L 454.422119 259.274996 
L 452.753485 259.662203 
L 451.08485 258.323675 
L 449.416216 255.836344 
L 447.747581 252.989643 
L 446.078947 250.654128 
L 444.410312 249.519148 
L 442.741678 249.880544 
L 441.073043 251.49243 
L 439.404409 253.633795 
L 437.735774 255.538194 
L 436.06714 256.793003 
L 434.398506 257.280685 
L 432.729871 256.951646 
L 431.061237 255.889935 
L 429.392602 254.474482 
L 427.723968 253.172119 
L 426.055333 252.1119 
L 424.386699 251.051398 
L 422.718064 249.83967 
L 421.04943 248.749226 
L 419.380795 248.151361 
L 417.712161 247.896504 
L 416.043526 247.231819 
L 414.374892 245.454625 
L 412.706257 242.609388 
L 411.037623 239.517828 
L 409.368988 237.188658 
L 407.700354 236.213675 
L 406.031719 236.619663 
L 404.363085 238.086921 
L 402.69445 240.150699 
L 401.025816 242.285187 
L 399.357181 244.050465 
L 397.688547 245.248905 
L 396.019913 245.869561 
L 394.351278 245.946073 
L 392.682644 245.640169 
L 391.014009 245.425115 
L 389.345375 245.91485 
L 387.67674 247.346979 
L 386.008106 249.324935 
L 384.339471 251.131115 
L 382.670837 252.20508 
L 381.002202 252.317154 
L 379.333568 251.499259 
L 377.664933 249.977105 
L 375.996299 248.091143 
L 374.327664 246.109647 
L 372.65903 244.023638 
L 370.990395 241.517985 
L 369.321761 238.252595 
L 367.653126 234.326004 
L 365.984492 230.437413 
L 364.315857 227.292725 
L 362.647223 224.571537 
L 360.978589 220.354127 
L 359.309954 211.611135 
L 357.64132 195.75234 
L 355.972685 172.663031 
L 354.304051 145.827547 
L 352.635416 121.214534 
L 350.966782 104.520309 
L 349.298147 98.944453 
L 347.629513 104.544562 
L 345.960878 118.623684 
L 344.292244 136.80704 
L 342.623609 154.809029 
L 340.954975 169.93955 
L 339.28634 181.167003 
L 337.617706 188.212709 
L 335.949071 191.131727 
L 334.280437 190.526753 
L 332.611802 187.530151 
L 330.943168 183.417179 
L 329.274533 179.301801 
L 327.605899 176.030077 
L 325.937264 174.178658 
L 324.26863 174.126778 
L 322.599996 176.054779 
L 320.931361 179.687338 
L 319.262727 184.044797 
L 317.594092 187.711661 
L 315.925458 189.63611 
L 314.256823 189.719134 
L 312.588189 188.564455 
L 310.919554 186.73483 
L 309.25092 184.354332 
L 307.582285 181.291786 
L 305.913651 177.474811 
L 304.245016 173.036316 
L 302.576382 168.395116 
L 300.907747 164.296257 
L 299.239113 161.591015 
L 297.570478 160.735938 
L 295.901844 161.452123 
L 294.233209 162.997543 
L 292.564575 164.863825 
L 290.89594 167.162034 
L 289.227306 170.266627 
L 287.558672 174.058396 
L 285.890037 177.526931 
L 284.221403 179.250532 
L 282.552768 178.522447 
L 280.884134 176.143169 
L 279.215499 174.017701 
L 277.546865 173.834226 
L 275.87823 175.982613 
L 274.209596 179.54206 
L 272.540961 183.23979 
L 270.872327 186.611109 
L 269.203692 190.393575 
L 267.535058 195.652499 
L 265.866423 202.253712 
L 264.197789 208.279514 
L 262.529154 211.371437 
L 260.86052 210.847193 
L 259.191885 208.311086 
L 257.523251 205.989676 
L 255.854616 204.555061 
L 254.185982 202.843954 
L 252.517347 199.707248 
L 250.848713 195.600499 
L 249.180079 191.824119 
L 247.511444 188.490761 
L 245.84281 184.006311 
L 244.174175 176.81693 
L 242.505541 167.569063 
L 240.836906 159.544611 
L 239.168272 156.712306 
L 237.499637 160.795102 
L 235.831003 169.891929 
L 234.162368 180.030068 
L 232.493734 188.241245 
L 230.825099 194.34543 
L 229.156465 200.14687 
L 227.48783 207.342121 
L 225.819196 216.171755 
L 224.150561 225.476205 
L 222.481927 233.459474 
L 220.813292 238.503492 
L 219.144658 239.78287 
L 217.476023 237.371497 
L 215.807389 231.774194 
L 214.138755 223.487123 
L 212.47012 213.174583 
L 210.801486 202.116915 
L 209.132851 192.075075 
L 207.464217 184.52516 
L 205.795582 180.116977 
L 204.126948 178.79072 
L 202.458313 179.932797 
L 200.789679 182.192044 
L 199.121044 183.61096 
L 197.45241 182.524457 
L 195.783775 178.399741 
L 194.115141 171.703321 
L 192.446506 163.15248 
L 190.777872 153.324461 
L 189.109237 142.924374 
L 187.440603 133.201088 
L 185.771968 125.85318 
L 184.103334 122.364623 
L 182.434699 123.444263 
L 180.766065 129.036827 
L 179.09743 138.475116 
L 177.428796 150.241494 
L 175.760162 161.680829 
L 174.091527 169.487684 
L 172.422893 171.197902 
L 170.754258 166.924739 
L 169.085624 159.955841 
L 167.416989 155.203551 
L 165.748355 156.096749 
L 164.07972 162.244517 
L 162.411086 170.071818 
L 160.742451 176.085146 
L 159.073817 179.92767 
L 157.405182 184.691798 
L 155.736548 194.495594 
L 154.067913 211.316332 
L 152.399279 233.262631 
L 150.730644 255.404583 
L 149.06201 272.52459 
L 147.393375 281.740956 
L 145.724741 283.267606 
L 144.056106 279.327902 
L 142.387472 272.51289 
L 140.718838 264.884356 
L 139.050203 258.092993 
L 137.381569 253.510411 
L 135.712934 251.353292 
L 134.0443 249.647473 
L 132.375665 245.339275 
L 130.707031 237.618907 
L 129.038396 229.7153 
L 127.369762 226.29471 
L 125.701127 229.200457 
L 124.032493 236.481237 
L 122.363858 245.026619 
L 120.695224 252.834129 
L 119.026589 258.814189 
L 117.357955 261.87703 
L 115.68932 261.166969 
L 114.020686 257.156321 
L 112.352051 252.169786 
L 110.683417 249.401223 
L 109.014782 250.773356 
L 107.346148 255.247918 
L 105.677513 259.2359 
L 104.008879 258.971969 
L 102.340245 252.814812 
L 100.67161 241.651101 
L 99.002976 227.701894 
L 97.334341 213.242782 
L 95.665707 199.878403 
L 93.997072 188.096972 
L 92.328438 177.264983 
L 90.659803 166.470149 
L 88.991169 155.678519 
L 87.322534 146.071481 
L 85.6539 139.247927 
L 83.985265 136.14972 
L 82.316631 136.603588 
L 80.647996 139.603467 
L 78.979362 143.962795 
L 77.310727 148.90707 
L 75.642093 154.221912 
L 73.973458 159.821998 
L 72.304824 165.122663 
L 70.636189 168.793613 
L 68.967555 169.157032 
L 67.298921 165.018084 
L 65.630286 156.39295 
L 63.961652 144.621699 
L 62.293017 131.804155 
L 60.624383 119.979884 
L 58.955748 110.679616 
L 57.287114 105.159701 
L 55.618479 104.565064 
L 53.949845 109.066317 
L 52.28121 116.790918 
L 50.612576 124.392097 
L 48.943941 128.951897 
L 47.275307 128.983273 
L 45.606672 123.822657 
L 43.938038 112.971472 
L 42.269403 96.463395 
L 40.600769 75.585053 
L 38.932134 52.923388 
L 37.2635 31.781726 
L 35.594865 15.574502 
L 33.926231 7.044626 
L 32.257596 6.801951 
L 30.588962 12.286742 
L 28.920328 19.115106 
L 27.251693 24.117428 
L 25.583059 26.807486 
L 23.914424 28.116495 
L 22.24579 28.750502 
L 20.577155 28.982057 
z
" clip-path="url(#p177e399436)" style="fill: #9f4800; fill-opacity: 0.1"/>
   </g>
   <g id="line2d_12">
    <path d="M 20.577155 315.829897 
L 22.24579 316.940366 
L 23.914424 314.545358 
L 27.251693 299.082274 
L 28.920328 294.380704 
L 30.588962 289.14192 
L 32.257596 282.739187 
L 33.926231 279.580607 
L 35.594865 280.651267 
L 37.2635 283.676423 
L 38.932134 285.25617 
L 40.600769 283.280158 
L 42.269403 280.040486 
L 43.938038 276.160525 
L 45.606672 268.384882 
L 47.275307 258.99125 
L 48.943941 252.260757 
L 50.612576 248.056112 
L 53.949845 241.7655 
L 55.618479 238.330565 
L 57.287114 233.624728 
L 58.955748 228.158381 
L 60.624383 224.558067 
L 62.293017 223.667899 
L 63.961652 223.267884 
L 65.630286 220.032311 
L 67.298921 215.40796 
L 68.967555 213.24571 
L 70.636189 213.346172 
L 72.304824 214.413873 
L 73.973458 215.338297 
L 75.642093 213.610597 
L 78.979362 205.426897 
L 80.647996 201.557531 
L 82.316631 198.930225 
L 83.985265 199.915524 
L 85.6539 202.756775 
L 87.322534 201.210749 
L 88.991169 191.692534 
L 90.659803 177.755577 
L 92.328438 165.355457 
L 93.997072 158.650367 
L 95.665707 157.82221 
L 97.334341 158.894398 
L 99.002976 159.346915 
L 100.67161 160.165568 
L 102.340245 162.493083 
L 104.008879 165.812466 
L 105.677513 167.402764 
L 107.346148 165.00298 
L 109.014782 160.506889 
L 110.683417 157.99 
L 112.352051 157.673783 
L 114.020686 156.006422 
L 115.68932 152.395048 
L 117.357955 150.04465 
L 119.026589 150.584081 
L 120.695224 152.219102 
L 122.363858 152.501861 
L 125.701127 150.030184 
L 127.369762 149.109224 
L 129.038396 147.399594 
L 130.707031 146.340617 
L 132.375665 147.837755 
L 134.0443 150.824948 
L 135.712934 152.665025 
L 137.381569 151.464989 
L 139.050203 147.51634 
L 140.718838 144.968447 
L 142.387472 144.857893 
L 144.056106 142.783545 
L 145.724741 136.82805 
L 147.393375 129.971299 
L 149.06201 127.497913 
L 152.399279 133.513784 
L 154.067913 133.191778 
L 155.736548 132.452632 
L 159.073817 134.665908 
L 160.742451 133.240314 
L 164.07972 126.321498 
L 165.748355 125.028959 
L 167.416989 124.554986 
L 169.085624 123.162281 
L 170.754258 122.533273 
L 172.422893 124.797368 
L 174.091527 127.808037 
L 175.760162 128.278386 
L 177.428796 126.59301 
L 179.09743 126.08375 
L 180.766065 127.636345 
L 182.434699 128.896017 
L 184.103334 128.949259 
L 185.771968 129.19019 
L 187.440603 130.168103 
L 189.109237 131.784402 
L 190.777872 133.792615 
L 192.446506 134.465726 
L 195.783775 130.994913 
L 197.45241 131.029617 
L 199.121044 131.980127 
L 200.789679 130.511035 
L 202.458313 125.052126 
L 204.126948 120.752858 
L 205.795582 123.05921 
L 207.464217 129.124695 
L 209.132851 132.315861 
L 210.801486 131.132306 
L 212.47012 128.194636 
L 214.138755 125.652408 
L 215.807389 123.991251 
L 217.476023 122.781472 
L 219.144658 122.796676 
L 220.813292 124.272766 
L 222.481927 126.765117 
L 224.150561 129.973687 
L 225.819196 132.198924 
L 227.48783 131.026227 
L 229.156465 127.126896 
L 230.825099 123.918353 
L 232.493734 122.4429 
L 234.162368 122.569858 
L 235.831003 124.593091 
L 237.499637 127.060983 
L 239.168272 127.031171 
L 240.836906 124.276719 
L 242.505541 121.206675 
L 244.174175 118.940116 
L 245.84281 117.705734 
L 247.511444 118.097283 
L 249.180079 119.594108 
L 250.848713 120.591487 
L 252.517347 119.872926 
L 254.185982 117.990538 
L 255.854616 115.624189 
L 257.523251 114.645519 
L 259.191885 116.137962 
L 260.86052 116.690335 
L 262.529154 113.339847 
L 264.197789 108.973435 
L 265.866423 107.454428 
L 267.535058 109.044918 
L 269.203692 110.444322 
L 270.872327 110.543686 
L 274.209596 111.683894 
L 275.87823 111.532485 
L 277.546865 112.320506 
L 279.215499 113.957927 
L 280.884134 114.582876 
L 282.552768 114.160104 
L 285.890037 112.390259 
L 287.558672 112.102178 
L 289.227306 112.527662 
L 290.89594 114.0738 
L 292.564575 115.02191 
L 295.901844 113.296207 
L 297.570478 113.528835 
L 299.239113 112.352875 
L 300.907747 107.976212 
L 302.576382 101.547163 
L 304.245016 95.761031 
L 305.913651 93.575694 
L 307.582285 95.115233 
L 309.25092 97.241764 
L 310.919554 97.01564 
L 312.588189 95.969329 
L 314.256823 97.453478 
L 315.925458 101.134815 
L 317.594092 103.730968 
L 319.262727 103.801416 
L 320.931361 103.429829 
L 322.599996 105.772765 
L 324.26863 109.503205 
L 325.937264 111.015983 
L 329.274533 109.220227 
L 330.943168 108.853246 
L 332.611802 107.20236 
L 334.280437 104.535445 
L 335.949071 103.644954 
L 337.617706 104.713489 
L 339.28634 106.435726 
L 340.954975 108.702846 
L 342.623609 111.374116 
L 344.292244 112.91404 
L 345.960878 111.673303 
L 349.298147 107.500921 
L 350.966782 104.78278 
L 352.635416 102.585231 
L 354.304051 102.437865 
L 355.972685 102.954655 
L 357.64132 103.119659 
L 360.978589 106.926867 
L 364.315857 105.876093 
L 365.984492 105.634042 
L 367.653126 103.362517 
L 369.321761 100.592879 
L 370.990395 98.899042 
L 372.65903 98.013051 
L 374.327664 96.936524 
L 375.996299 94.719749 
L 377.664933 93.592847 
L 379.333568 95.117567 
L 381.002202 97.66666 
L 382.670837 98.770884 
L 384.339471 97.373383 
L 386.008106 94.942972 
L 387.67674 94.48059 
L 389.345375 95.38255 
L 391.014009 93.982273 
L 392.682644 90.886394 
L 394.351278 90.084942 
L 396.019913 91.582992 
L 397.688547 93.679912 
L 399.357181 95.307496 
L 401.025816 95.505551 
L 402.69445 93.824468 
L 406.031719 86.981118 
L 407.700354 89.063906 
L 409.368988 98.302296 
L 411.037623 109.387913 
L 412.706257 116.094199 
L 414.374892 115.351273 
L 416.043526 110.057756 
L 417.712161 105.943038 
L 419.380795 103.802962 
L 421.04943 100.546277 
L 422.718064 96.571481 
L 424.386699 94.622899 
L 426.055333 95.720174 
L 427.723968 99.020876 
L 429.392602 101.000341 
L 431.061237 100.543222 
L 432.729871 100.343253 
L 434.398506 101.158726 
L 436.06714 100.601489 
L 437.735774 98.186582 
L 439.404409 96.625168 
L 441.073043 96.848716 
L 442.741678 97.392103 
L 444.410312 96.586231 
L 446.078947 95.093039 
L 447.747581 94.479013 
L 449.416216 95.237654 
L 451.08485 96.254523 
L 456.090754 97.067888 
L 457.759388 95.55306 
L 459.428023 93.470853 
L 461.096657 92.681103 
L 462.765292 92.490477 
L 464.433926 91.79036 
L 466.102561 90.511326 
L 467.771195 89.951435 
L 471.108464 92.950053 
L 472.777098 92.267019 
L 474.445733 91.107574 
L 476.114367 92.026381 
L 479.451636 97.34865 
L 481.120271 99.28112 
L 482.788905 100.735459 
L 484.45754 101.328399 
L 486.126174 99.828471 
L 487.794809 97.373387 
L 489.463443 97.201478 
L 491.132078 99.966015 
L 492.800712 101.572652 
L 496.137981 97.609446 
L 499.47525 96.305473 
L 501.143885 98.018687 
L 502.812519 102.471764 
L 504.481154 104.940509 
L 506.149788 102.799967 
L 507.818423 97.928871 
L 509.487057 93.979017 
L 511.155691 92.77306 
L 512.824326 93.750306 
L 514.49296 95.346902 
L 516.161595 95.60731 
L 517.830229 94.075565 
L 519.498864 92.014901 
L 519.498864 92.014901 
" clip-path="url(#p177e399436)" style="fill: none; stroke: #023eff; stroke-linecap: round"/>
   </g>
   <g id="line2d_13">
    <path d="M 20.577155 99.171162 
L 22.24579 118.9746 
L 23.914424 142.96664 
L 25.583059 159.041798 
L 28.920328 178.05159 
L 32.257596 196.098313 
L 35.594865 222.822911 
L 37.2635 232.415028 
L 38.932134 237.938449 
L 40.600769 242.611426 
L 43.938038 256.621115 
L 45.606672 258.614824 
L 47.275307 258.943578 
L 48.943941 260.237574 
L 50.612576 259.523389 
L 52.28121 255.639432 
L 53.949845 250.361337 
L 55.618479 246.29439 
L 57.287114 243.350527 
L 58.955748 241.863977 
L 60.624383 244.911821 
L 62.293017 253.906479 
L 63.961652 265.810145 
L 65.630286 274.761428 
L 68.967555 284.906799 
L 70.636189 291.473081 
L 72.304824 298.667891 
L 73.973458 304.52147 
L 75.642093 305.894759 
L 77.310727 303.676556 
L 78.979362 301.064248 
L 80.647996 297.586601 
L 82.316631 295.172296 
L 83.985265 298.011451 
L 85.6539 304.015866 
L 87.322534 304.489213 
L 88.991169 294.281492 
L 90.659803 278.140412 
L 92.328438 264.706103 
L 93.997072 260.191948 
L 95.665707 264.50878 
L 97.334341 271.320743 
L 99.002976 276.206888 
L 100.67161 280.031066 
L 102.340245 284.855766 
L 104.008879 290.595999 
L 105.677513 293.696513 
L 107.346148 291.202653 
L 109.014782 285.824857 
L 110.683417 283.366206 
L 112.352051 284.193374 
L 114.020686 283.079353 
L 115.68932 278.651135 
L 117.357955 274.818457 
L 119.026589 273.933702 
L 120.695224 274.017849 
L 122.363858 272.19588 
L 124.032493 268.803757 
L 125.701127 266.345784 
L 129.038396 264.386456 
L 130.707031 264.920232 
L 132.375665 268.585184 
L 134.0443 273.47585 
L 135.712934 276.182568 
L 137.381569 274.942 
L 139.050203 270.704835 
L 140.718838 268.63655 
L 142.387472 269.863467 
L 144.056106 268.983832 
L 145.724741 263.292073 
L 147.393375 255.808825 
L 149.06201 253.164347 
L 150.730644 257.224499 
L 152.399279 260.951495 
L 155.736548 259.629863 
L 157.405182 261.662331 
L 159.073817 263.280929 
L 160.742451 260.766697 
L 164.07972 249.175047 
L 165.748355 247.172029 
L 167.416989 248.206871 
L 169.085624 249.902092 
L 170.754258 252.061858 
L 172.422893 255.883391 
L 174.091527 261.042042 
L 175.760162 264.001273 
L 177.428796 264.192874 
L 179.09743 266.847445 
L 180.766065 271.033548 
L 182.434699 271.262056 
L 184.103334 270.205088 
L 185.771968 273.821906 
L 187.440603 278.890782 
L 189.109237 280.560659 
L 190.777872 281.675935 
L 192.446506 284.782468 
L 194.115141 286.424417 
L 195.783775 286.172467 
L 197.45241 287.809072 
L 199.121044 291.798946 
L 200.789679 291.373502 
L 202.458313 283.249177 
L 204.126948 276.987208 
L 205.795582 281.465578 
L 207.464217 290.531693 
L 209.132851 292.148544 
L 210.801486 285.560072 
L 212.47012 277.260793 
L 214.138755 270.186712 
L 215.807389 266.18973 
L 217.476023 266.630595 
L 219.144658 272.834187 
L 220.813292 282.265758 
L 222.481927 288.884231 
L 224.150561 290.014715 
L 225.819196 286.173779 
L 229.156465 272.354598 
L 230.825099 270.098022 
L 232.493734 270.239609 
L 234.162368 269.564852 
L 235.831003 270.102062 
L 237.499637 272.168255 
L 239.168272 271.824427 
L 242.505541 264.95941 
L 244.174175 263.085768 
L 245.84281 262.52057 
L 247.511444 263.725663 
L 249.180079 266.363379 
L 252.517347 272.36123 
L 254.185982 273.88261 
L 255.854616 272.18161 
L 257.523251 271.982828 
L 259.191885 276.747559 
L 260.86052 277.298719 
L 262.529154 267.545804 
L 264.197789 256.420045 
L 265.866423 252.432241 
L 267.535058 255.372518 
L 269.203692 259.712696 
L 270.872327 261.560486 
L 272.540961 261.365635 
L 275.87823 259.151841 
L 277.546865 260.273172 
L 279.215499 262.811575 
L 280.884134 264.007506 
L 282.552768 263.636685 
L 285.890037 261.266519 
L 287.558672 260.744783 
L 289.227306 261.106307 
L 290.89594 263.136788 
L 292.564575 264.487114 
L 294.233209 263.343936 
L 295.901844 262.412392 
L 297.570478 262.988717 
L 299.239113 261.800278 
L 300.907747 256.336675 
L 302.576382 248.002979 
L 304.245016 240.328363 
L 305.913651 237.360197 
L 307.582285 239.571653 
L 309.25092 242.862049 
L 310.919554 242.949951 
L 312.588189 241.72374 
L 314.256823 243.922731 
L 315.925458 249.266964 
L 317.594092 253.309841 
L 319.262727 254.45132 
L 320.931361 255.926169 
L 322.599996 260.371328 
L 324.26863 264.168804 
L 325.937264 264.2284 
L 327.605899 262.136323 
L 329.274533 261.077797 
L 330.943168 261.162891 
L 332.611802 260.156981 
L 334.280437 258.447859 
L 337.617706 257.837285 
L 339.28634 256.84503 
L 340.954975 257.351841 
L 342.623609 259.503928 
L 344.292244 260.335146 
L 345.960878 257.645566 
L 347.629513 254.389772 
L 349.298147 251.829556 
L 350.966782 248.609924 
L 352.635416 246.760783 
L 354.304051 248.829119 
L 355.972685 252.761554 
L 357.64132 257.100382 
L 360.978589 273.38354 
L 362.647223 274.465643 
L 364.315857 271.94211 
L 365.984492 269.639121 
L 367.653126 265.376021 
L 369.321761 259.40893 
L 370.990395 254.44892 
L 372.65903 251.93491 
L 374.327664 250.441795 
L 375.996299 247.823157 
L 377.664933 246.648868 
L 379.333568 248.949607 
L 381.002202 252.599421 
L 382.670837 254.309518 
L 384.339471 252.637405 
L 386.008106 249.502088 
L 387.67674 249.022978 
L 389.345375 250.514931 
L 391.014009 248.956593 
L 392.682644 245.368648 
L 394.351278 245.426738 
L 396.019913 248.261899 
L 397.688547 250.586369 
L 399.357181 251.868527 
L 401.025816 252.469131 
L 402.69445 252.133824 
L 404.363085 248.749198 
L 406.031719 243.470619 
L 407.700354 246.37648 
L 409.368988 260.50908 
L 411.037623 276.444837 
L 412.706257 286.353995 
L 414.374892 287.861552 
L 416.043526 284.210596 
L 417.712161 279.592561 
L 419.380795 273.324824 
L 421.04943 263.839272 
L 422.718064 255.093197 
L 424.386699 251.323761 
L 426.055333 252.61119 
L 427.723968 257.103004 
L 429.392602 260.259713 
L 431.061237 261.649476 
L 434.398506 269.364559 
L 436.06714 267.715057 
L 437.735774 262.961121 
L 439.404409 260.042575 
L 441.073043 258.497785 
L 442.741678 258.438283 
L 444.410312 259.019925 
L 446.078947 258.574699 
L 447.747581 258.655763 
L 449.416216 261.152737 
L 451.08485 262.858061 
L 452.753485 261.744947 
L 454.422119 260.380202 
L 456.090754 258.836799 
L 459.428023 250.990475 
L 461.096657 249.206592 
L 462.765292 248.668443 
L 464.433926 248.501553 
L 466.102561 249.648582 
L 467.771195 253.655081 
L 469.43983 259.816095 
L 471.108464 263.085862 
L 472.777098 260.144419 
L 474.445733 255.523154 
L 476.114367 254.154784 
L 477.783002 254.779768 
L 479.451636 255.867842 
L 481.120271 257.374101 
L 482.788905 259.259258 
L 484.45754 260.416874 
L 486.126174 259.409085 
L 487.794809 258.047517 
L 489.463443 259.278055 
L 491.132078 262.850107 
L 492.800712 264.742657 
L 494.469347 261.747124 
L 496.137981 257.689186 
L 497.806616 255.815953 
L 499.47525 256.455597 
L 501.143885 261.797214 
L 502.812519 270.039034 
L 504.481154 274.035776 
L 506.149788 270.737792 
L 507.818423 264.331118 
L 509.487057 259.551436 
L 511.155691 258.431844 
L 512.824326 261.604582 
L 514.49296 266.438923 
L 516.161595 267.914823 
L 517.830229 264.848113 
L 519.498864 260.455206 
L 519.498864 260.455206 
" clip-path="url(#p177e399436)" style="fill: none; stroke: #ff7c00; stroke-linecap: round"/>
   </g>
   <g id="line2d_14">
    <path d="M 20.577155 106.595791 
L 22.24579 116.491624 
L 23.914424 133.053968 
L 27.251693 170.095148 
L 28.920328 186.755738 
L 30.588962 202.285924 
L 32.257596 216.57211 
L 33.926231 228.447772 
L 35.594865 236.629562 
L 37.2635 241.056453 
L 40.600769 245.318016 
L 42.269403 248.773328 
L 43.938038 253.882635 
L 47.275307 265.574586 
L 48.943941 269.569506 
L 50.612576 271.2487 
L 52.28121 270.937811 
L 53.949845 269.653518 
L 55.618479 268.531977 
L 57.287114 268.468274 
L 58.955748 270.050364 
L 60.624383 273.584498 
L 62.293017 279.038143 
L 67.298921 299.949691 
L 68.967555 305.39608 
L 70.636189 309.519303 
L 72.304824 312.589028 
L 73.973458 314.853885 
L 75.642093 316.452714 
L 77.310727 317.480844 
L 78.979362 318.025496 
L 80.647996 318.172624 
L 82.316631 318.03571 
L 87.322534 317.247878 
L 88.991169 317.119204 
L 90.659803 317.130717 
L 92.328438 317.324517 
L 97.334341 318.452396 
L 99.002976 318.556374 
L 100.67161 318.374592 
L 104.008879 317.637967 
L 105.677513 317.462047 
L 109.014782 317.637465 
L 110.683417 317.698261 
L 112.352051 317.549303 
L 114.020686 317.093141 
L 115.68932 316.252637 
L 117.357955 314.995378 
L 119.026589 313.373642 
L 122.363858 309.730872 
L 124.032493 308.232151 
L 125.701127 307.23211 
L 127.369762 306.707405 
L 130.707031 306.333424 
L 142.387472 305.784365 
L 144.056106 305.995318 
L 145.724741 306.430191 
L 149.06201 307.66158 
L 154.067913 309.688952 
L 155.736548 310.130141 
L 157.405182 310.229949 
L 159.073817 309.926778 
L 162.411086 308.652564 
L 164.07972 308.24404 
L 165.748355 308.313035 
L 167.416989 308.850513 
L 169.085624 309.591083 
L 170.754258 310.204515 
L 174.091527 311.04607 
L 175.760162 311.847427 
L 179.09743 314.301228 
L 180.766065 315.204184 
L 182.434699 315.63775 
L 185.771968 316.159973 
L 190.777872 317.412572 
L 192.446506 318.061728 
L 195.783775 319.660484 
L 197.45241 320.341687 
L 200.789679 321.338806 
L 202.458313 321.641555 
L 204.126948 321.716982 
L 205.795582 321.372402 
L 207.464217 320.384273 
L 209.132851 318.70482 
L 212.47012 314.556537 
L 214.138755 313.077081 
L 215.807389 312.510887 
L 217.476023 312.942476 
L 220.813292 315.288333 
L 222.481927 315.825521 
L 224.150561 315.374102 
L 227.48783 313.166224 
L 229.156465 312.608737 
L 230.825099 312.607119 
L 234.162368 312.96611 
L 235.831003 312.910061 
L 240.836906 312.388509 
L 242.505541 312.413229 
L 244.174175 312.665774 
L 247.511444 313.595191 
L 250.848713 314.747065 
L 255.854616 317.035435 
L 257.523251 317.306966 
L 259.191885 317.076063 
L 260.86052 316.42017 
L 262.529154 315.62112 
L 264.197789 315.062257 
L 265.866423 314.996301 
L 267.535058 315.386045 
L 269.203692 315.953396 
L 270.872327 316.380507 
L 272.540961 316.522101 
L 277.546865 316.45149 
L 282.552768 316.681515 
L 287.558672 316.617196 
L 294.233209 316.458988 
L 297.570478 316.547036 
L 317.594092 317.924718 
L 320.931361 318.307314 
L 322.599996 318.330425 
L 329.274533 317.802179 
L 334.280437 318.208578 
L 335.949071 317.948294 
L 337.617706 317.204258 
L 342.623609 313.952055 
L 344.292244 313.464395 
L 345.960878 313.438544 
L 349.298147 314.08539 
L 352.635416 314.731775 
L 354.304051 315.226476 
L 355.972685 316.01128 
L 360.978589 319.312722 
L 362.647223 319.987576 
L 364.315857 320.185027 
L 365.984492 319.965641 
L 367.653126 319.459315 
L 372.65903 317.472608 
L 374.327664 317.024046 
L 375.996299 316.74343 
L 379.333568 316.534768 
L 382.670837 316.636125 
L 389.345375 317.195531 
L 396.019913 317.837297 
L 397.688547 317.713596 
L 404.363085 316.546935 
L 406.031719 316.447896 
L 407.700354 316.507533 
L 409.368988 316.734471 
L 412.706257 317.566941 
L 416.043526 318.567081 
L 417.712161 318.845595 
L 419.380795 318.831199 
L 426.055333 317.846846 
L 429.392602 317.907561 
L 436.06714 318.656037 
L 437.735774 318.564431 
L 442.741678 317.976535 
L 446.078947 317.947223 
L 449.416216 318.258297 
L 452.753485 318.772001 
L 456.090754 318.938929 
L 461.096657 318.972649 
L 462.765292 319.152514 
L 464.433926 319.480549 
L 467.771195 320.345212 
L 469.43983 320.564706 
L 471.108464 320.463146 
L 472.777098 320.047653 
L 476.114367 318.674764 
L 479.451636 317.336416 
L 481.120271 316.929307 
L 482.788905 316.758762 
L 484.45754 316.807053 
L 489.463443 317.416606 
L 491.132078 317.465625 
L 494.469347 317.233364 
L 497.806616 316.825883 
L 499.47525 316.755179 
L 504.481154 316.956516 
L 506.149788 317.079717 
L 507.818423 317.332018 
L 511.155691 318.254517 
L 512.824326 318.744753 
L 514.49296 319.107093 
L 516.161595 319.307165 
L 519.498864 319.403883 
L 519.498864 319.403883 
" clip-path="url(#p177e399436)" style="fill: none; stroke: #1ac938; stroke-width: 2; stroke-linecap: round"/>
   </g>
   <g id="line2d_15">
    <path d="M 20.577155 73.934763 
L 22.24579 74.85255 
L 23.914424 76.510944 
L 25.583059 78.642691 
L 28.920328 83.55872 
L 30.588962 86.34524 
L 32.257596 89.582305 
L 33.926231 93.48261 
L 35.594865 98.155907 
L 37.2635 103.536129 
L 42.269403 120.94132 
L 45.606672 131.159333 
L 52.28121 150.734771 
L 55.618479 159.591698 
L 58.955748 168.055361 
L 62.293017 175.662678 
L 68.967555 189.375317 
L 72.304824 195.69235 
L 77.310727 204.316393 
L 80.647996 209.761352 
L 85.6539 217.749845 
L 88.991169 223.637143 
L 90.659803 226.939785 
L 92.328438 230.657449 
L 97.334341 243.067052 
L 99.002976 246.478629 
L 100.67161 249.197991 
L 102.340245 251.342329 
L 104.008879 253.107182 
L 107.346148 256.066025 
L 110.683417 258.570704 
L 114.020686 260.583979 
L 117.357955 262.166046 
L 124.032493 265.000802 
L 127.369762 266.716339 
L 135.712934 271.48037 
L 139.050203 273.618522 
L 150.730644 281.752942 
L 154.067913 283.561876 
L 159.073817 285.867134 
L 164.07972 288.000213 
L 165.748355 288.560818 
L 167.416989 288.972626 
L 170.754258 289.421091 
L 174.091527 289.754041 
L 185.771968 291.47628 
L 189.109237 292.156522 
L 192.446506 293.133547 
L 197.45241 294.747764 
L 202.458313 296.144174 
L 204.126948 296.471023 
L 209.132851 297.119599 
L 210.801486 297.550847 
L 212.47012 298.178281 
L 215.807389 299.834879 
L 219.144658 301.51021 
L 224.150561 303.692103 
L 225.819196 304.228201 
L 227.48783 304.566969 
L 232.493734 305.192665 
L 235.831003 306.057072 
L 239.168272 307.089316 
L 240.836906 307.497087 
L 242.505541 307.753251 
L 245.84281 307.876263 
L 249.180079 307.965052 
L 264.197789 309.072594 
L 269.203692 309.601 
L 272.540961 309.975971 
L 279.215499 310.910311 
L 285.890037 311.525205 
L 289.227306 311.6937 
L 292.564575 311.817968 
L 295.901844 312.270104 
L 299.239113 312.777958 
L 302.576382 312.878031 
L 310.919554 312.562537 
L 314.256823 312.742022 
L 325.937264 314.132041 
L 329.274533 314.460685 
L 332.611802 314.589178 
L 344.292244 314.574827 
L 350.966782 315.152508 
L 372.65903 317.971478 
L 379.333568 319.297189 
L 384.339471 319.942321 
L 392.682644 321.318611 
L 396.019913 321.617768 
L 401.025816 321.786186 
L 407.700354 321.980575 
L 414.374892 322.242514 
L 421.04943 322.25895 
L 432.729871 322.006689 
L 447.747581 321.826423 
L 457.759388 322.273319 
L 466.102561 322.272459 
L 477.783002 323.053122 
L 486.126174 322.941727 
L 496.137981 322.694938 
L 501.143885 322.68411 
L 506.149788 322.714107 
L 519.498864 323.336327 
L 519.498864 323.336327 
" clip-path="url(#p177e399436)" style="fill: none; stroke: #e8000b; stroke-width: 2; stroke-linecap: round"/>
   </g>
   <g id="line2d_16">
    <path d="M 20.577155 87.955614 
L 22.24579 92.323987 
L 23.914424 100.000955 
L 25.583059 109.049646 
L 27.251693 116.982203 
L 28.920328 121.626731 
L 30.588962 122.342334 
L 32.257596 120.350946 
L 33.926231 117.724384 
L 35.594865 116.341292 
L 37.2635 117.788284 
L 38.932134 123.365349 
L 40.600769 133.357894 
L 45.606672 171.965856 
L 47.275307 180.683694 
L 48.943941 185.24996 
L 50.612576 185.349705 
L 52.28121 181.994295 
L 53.949845 177.767845 
L 55.618479 175.676582 
L 57.287114 177.510329 
L 58.955748 183.330339 
L 60.624383 192.138509 
L 63.961652 212.926156 
L 65.630286 221.958503 
L 67.298921 228.970098 
L 68.967555 234.085146 
L 70.636189 237.763166 
L 72.304824 240.397177 
L 73.973458 242.222878 
L 75.642093 243.34052 
L 77.310727 243.730175 
L 78.979362 243.380762 
L 82.316631 241.600389 
L 83.985265 241.32041 
L 85.6539 242.255 
L 87.322534 244.710476 
L 88.991169 248.497851 
L 93.997072 262.114844 
L 95.665707 267.155028 
L 97.334341 273.007939 
L 100.67161 285.544496 
L 102.340245 290.383761 
L 104.008879 293.018872 
L 105.677513 293.151035 
L 109.014782 289.766355 
L 110.683417 289.337525 
L 112.352051 290.712212 
L 114.020686 293.123054 
L 115.68932 295.138076 
L 117.357955 295.553547 
L 119.026589 294.063553 
L 120.695224 291.261774 
L 124.032493 285.003783 
L 125.701127 282.885868 
L 127.369762 282.652014 
L 129.038396 284.902266 
L 130.707031 288.76703 
L 132.375665 292.192774 
L 134.0443 293.738702 
L 135.712934 293.837696 
L 137.381569 294.116756 
L 139.050203 295.828193 
L 140.718838 299.119227 
L 144.056106 307.407849 
L 145.724741 309.933706 
L 147.393375 309.416043 
L 149.06201 304.990368 
L 150.730644 297.122966 
L 154.067913 278.509024 
L 155.736548 271.510018 
L 157.405182 266.887753 
L 159.073817 263.819298 
L 160.742451 261.029525 
L 164.07972 254.269875 
L 165.748355 251.975861 
L 167.416989 252.063229 
L 169.085624 254.494217 
L 170.754258 257.76529 
L 172.422893 259.826551 
L 174.091527 259.319758 
L 175.760162 256.188344 
L 180.766065 242.183895 
L 182.434699 239.740482 
L 184.103334 239.413194 
L 185.771968 241.101479 
L 187.440603 244.19435 
L 190.777872 251.287707 
L 192.446506 254.384022 
L 194.115141 257.156225 
L 195.783775 259.528842 
L 197.45241 261.147999 
L 199.121044 261.6839 
L 202.458313 260.888982 
L 204.126948 261.409442 
L 205.795582 263.49725 
L 207.464217 267.168953 
L 209.132851 272.026748 
L 212.47012 282.614794 
L 214.138755 286.884698 
L 215.807389 289.889356 
L 217.476023 291.567886 
L 219.144658 291.899079 
L 220.813292 290.837979 
L 222.481927 288.521277 
L 227.48783 279.165738 
L 229.156465 277.014194 
L 232.493734 274.03019 
L 234.162368 271.774142 
L 237.499637 265.68226 
L 239.168272 264.268426 
L 240.836906 265.278573 
L 242.505541 268.300295 
L 244.174175 272.003763 
L 245.84281 275.141019 
L 247.511444 277.333347 
L 250.848713 280.848585 
L 252.517347 282.768843 
L 254.185982 284.406309 
L 260.86052 289.287599 
L 262.529154 289.444851 
L 264.197789 288.178146 
L 267.535058 283.588076 
L 269.203692 281.814017 
L 277.546865 275.726367 
L 279.215499 275.144325 
L 284.221403 274.72366 
L 289.227306 272.801554 
L 295.901844 271.875362 
L 297.570478 271.88299 
L 299.239113 272.599175 
L 300.907747 274.030247 
L 305.913651 279.440668 
L 307.582285 281.040689 
L 309.25092 282.460172 
L 310.919554 283.587326 
L 312.588189 284.292497 
L 314.256823 284.450301 
L 315.925458 283.943298 
L 317.594092 282.754737 
L 320.931361 279.562343 
L 322.599996 278.572992 
L 324.26863 278.347078 
L 325.937264 278.748386 
L 327.605899 279.599982 
L 329.274533 280.867812 
L 332.611802 284.236397 
L 334.280437 285.530556 
L 335.949071 285.895945 
L 337.617706 285.098104 
L 339.28634 283.168928 
L 340.954975 280.14711 
L 342.623609 275.888955 
L 344.292244 270.390908 
L 345.960878 264.406186 
L 347.629513 259.547092 
L 349.298147 257.596768 
L 350.966782 259.646906 
L 352.635416 265.652163 
L 354.304051 274.405422 
L 355.972685 283.88208 
L 357.64132 292.045192 
L 359.309954 297.751673 
L 360.978589 301.054557 
L 362.647223 302.768764 
L 369.321761 306.913529 
L 370.990395 307.779604 
L 377.664933 310.515412 
L 379.333568 311.074218 
L 381.002202 311.276429 
L 382.670837 310.990152 
L 384.339471 310.200987 
L 387.67674 307.917388 
L 389.345375 307.098859 
L 391.014009 306.750722 
L 394.351278 306.695158 
L 396.019913 306.460575 
L 397.688547 305.982671 
L 401.025816 304.610477 
L 406.031719 302.465771 
L 407.700354 302.05317 
L 409.368988 302.142996 
L 411.037623 302.884819 
L 414.374892 305.251232 
L 416.043526 305.880515 
L 417.712161 305.850347 
L 419.380795 305.474582 
L 421.04943 305.214308 
L 422.718064 305.304104 
L 426.055333 306.100019 
L 427.723968 306.594614 
L 429.392602 307.213541 
L 436.06714 310.147177 
L 437.735774 310.34834 
L 439.404409 309.956688 
L 442.741678 308.264738 
L 444.410312 308.018969 
L 446.078947 308.618381 
L 447.747581 309.896105 
L 449.416216 311.399912 
L 451.08485 312.624253 
L 452.753485 313.193836 
L 454.422119 312.921532 
L 456.090754 311.76689 
L 457.759388 309.815614 
L 462.765292 302.540514 
L 464.433926 301.069449 
L 466.102561 300.351604 
L 467.771195 300.178837 
L 469.43983 300.310367 
L 471.108464 300.634453 
L 472.777098 301.163399 
L 474.445733 301.934029 
L 476.114367 302.937156 
L 487.794809 310.989704 
L 489.463443 312.03997 
L 491.132078 312.561852 
L 492.800712 312.206424 
L 494.469347 311.049124 
L 496.137981 309.582691 
L 497.806616 308.44432 
L 499.47525 308.076207 
L 501.143885 308.448748 
L 502.812519 309.049398 
L 504.481154 309.229437 
L 506.149788 308.65296 
L 509.487057 306.419248 
L 511.155691 306.033152 
L 512.824326 306.58325 
L 516.161595 308.685254 
L 517.830229 309.223216 
L 519.498864 309.379068 
L 519.498864 309.379068 
" clip-path="url(#p177e399436)" style="fill: none; stroke: #9f4800; stroke-width: 2; stroke-linecap: round"/>
   </g>
   <g id="line2d_17">
    <path d="M 20.577155 323.476429 
L 25.583059 313.592159 
L 30.588962 307.735158 
L 35.594865 293.553935 
L 40.600769 269.852064 
L 45.606672 237.461184 
L 50.612576 218.817153 
L 55.618479 206.485374 
L 60.624383 200.785772 
L 65.630286 191.754758 
L 70.636189 182.910952 
L 75.642093 175.022866 
L 80.647996 167.781852 
L 85.6539 164.071122 
L 90.659803 169.875253 
L 95.665707 180.048832 
L 100.67161 183.117165 
L 105.677513 181.138473 
L 110.683417 174.146895 
L 115.68932 157.375009 
L 120.695224 148.971129 
L 125.701127 147.11146 
L 130.707031 145.450185 
L 135.712934 145.257068 
L 140.718838 147.142961 
L 145.724741 146.203913 
L 150.730644 142.026539 
L 155.736548 139.53421 
L 160.742451 135.739306 
L 165.748355 129.314589 
L 170.754258 118.359086 
L 175.760162 108.705439 
L 180.766065 101.107489 
L 185.771968 92.530475 
L 190.777872 86.227285 
L 195.783775 84.600082 
L 200.789679 84.373523 
L 205.795582 81.417576 
L 210.801486 78.774922 
L 215.807389 77.074537 
L 220.813292 76.647692 
L 225.819196 78.154241 
L 230.825099 77.268525 
L 235.831003 75.733292 
L 240.836906 76.871284 
L 245.84281 76.317984 
L 250.848713 77.490866 
L 255.854616 76.69458 
L 260.86052 77.194425 
L 265.866423 77.582217 
L 270.872327 75.07395 
L 275.87823 73.810203 
L 280.884134 75.950475 
L 285.890037 74.191176 
L 290.89594 72.349075 
L 295.901844 72.149502 
L 300.907747 73.199462 
L 305.913651 74.177869 
L 310.919554 74.168461 
L 315.925458 74.512744 
L 320.931361 75.618283 
L 325.937264 76.839856 
L 330.943168 76.091478 
L 335.949071 76.484702 
L 340.954975 74.233709 
L 345.960878 74.532573 
L 350.966782 75.455526 
L 355.972685 75.794631 
L 360.978589 74.386523 
L 365.984492 72.554591 
L 370.990395 72.582474 
L 375.996299 74.542091 
L 381.002202 74.61332 
L 386.008106 74.171164 
L 391.014009 74.53307 
L 396.019913 76.352292 
L 401.025816 77.260331 
L 406.031719 75.960631 
L 411.037623 76.157226 
L 416.043526 77.479503 
L 421.04943 74.786269 
L 426.055333 74.470411 
L 431.061237 72.528511 
L 436.06714 71.297857 
L 441.073043 71.46059 
L 446.078947 72.874949 
L 451.08485 73.254127 
L 456.090754 73.406103 
L 461.096657 73.068735 
L 466.102561 74.233421 
L 471.108464 74.948806 
L 476.114367 74.499128 
L 481.120271 73.863018 
L 486.126174 73.14997 
L 491.132078 73.074778 
L 496.137981 74.271451 
L 501.143885 73.519944 
L 506.149788 75.035717 
L 511.155691 74.006156 
L 516.161595 72.407682 
" clip-path="url(#p177e399436)" style="fill: none; stroke: #000000; stroke-width: 1.5; stroke-linecap: round"/>
   </g>
   <g id="line2d_18">
    <path d="M 20.577155 74.961019 
L 25.583059 84.309386 
L 30.588962 93.338535 
L 35.594865 99.346831 
L 40.600769 109.080218 
L 45.606672 127.706738 
L 50.612576 140.16998 
L 55.618479 151.223184 
L 60.624383 166.836765 
L 65.630286 174.952578 
L 70.636189 180.899743 
L 75.642093 184.491085 
L 80.647996 185.582098 
L 85.6539 193.650618 
L 90.659803 208.302247 
L 95.665707 225.548995 
L 100.67161 236.681643 
L 105.677513 240.549057 
L 110.683417 241.539531 
L 115.68932 243.840312 
L 120.695224 249.835277 
L 125.701127 255.468869 
L 130.707031 261.079867 
L 135.712934 265.077341 
L 140.718838 269.409596 
L 145.724741 273.170839 
L 150.730644 273.889663 
L 155.736548 273.29299 
L 160.742451 275.124271 
L 165.748355 279.05263 
L 170.754258 283.43218 
L 175.760162 283.860362 
L 180.766065 281.414256 
L 185.771968 276.313287 
L 190.777872 274.812848 
L 195.783775 277.414965 
L 200.789679 279.93221 
L 205.795582 281.767765 
L 210.801486 282.548674 
L 215.807389 283.60686 
L 220.813292 283.756441 
L 225.819196 284.324646 
L 230.825099 285.077629 
L 235.831003 285.240453 
L 240.836906 285.896747 
L 245.84281 285.979765 
L 250.848713 289.026387 
L 255.854616 291.956171 
L 260.86052 295.70429 
L 265.866423 298.924826 
L 270.872327 298.974242 
L 275.87823 298.794124 
L 280.884134 299.013028 
L 285.890037 298.185554 
L 290.89594 298.106657 
L 295.901844 299.070701 
L 300.907747 300.767348 
L 305.913651 304.216974 
L 310.919554 307.156268 
L 315.925458 306.242819 
L 320.931361 302.816087 
L 325.937264 301.763768 
L 330.943168 301.590122 
L 335.949071 301.37639 
L 340.954975 300.40845 
L 345.960878 300.279359 
L 350.966782 301.718844 
L 355.972685 304.08391 
L 360.978589 307.381847 
L 365.984492 309.721535 
L 370.990395 311.950432 
L 375.996299 312.916716 
L 381.002202 311.122255 
L 386.008106 310.831291 
L 391.014009 311.632052 
L 396.019913 310.894718 
L 401.025816 308.964951 
L 406.031719 308.332938 
L 411.037623 308.973086 
L 416.043526 311.697928 
L 421.04943 314.022151 
L 426.055333 314.16917 
L 431.061237 313.003413 
L 436.06714 313.060235 
L 441.073043 312.811884 
L 446.078947 314.426967 
L 451.08485 317.726901 
L 456.090754 320.0693 
L 461.096657 321.474143 
L 466.102561 321.726615 
L 471.108464 322.70336 
L 476.114367 322.781041 
L 481.120271 321.637694 
L 486.126174 319.023932 
L 491.132078 315.982876 
L 496.137981 313.590112 
L 501.143885 313.211458 
L 506.149788 314.606317 
L 511.155691 315.358428 
L 516.161595 318.064166 
" clip-path="url(#p177e399436)" style="fill: none; stroke: #8b2be2; stroke-width: 1.5; stroke-linecap: round"/>
   </g>
   <g id="patch_3">
    <path d="M 10.8 328.52 
L 10.8 46.08 
" style="fill: none; stroke: #ffffff; stroke-width: 0.8; stroke-linejoin: miter; stroke-linecap: square"/>
   </g>
   <g id="patch_4">
    <path d="M 522.797024 328.52 
L 522.797024 46.08 
" style="fill: none; stroke: #ffffff; stroke-width: 0.8; stroke-linejoin: miter; stroke-linecap: square"/>
   </g>
   <g id="patch_5">
    <path d="M 10.8 328.52 
L 522.797024 328.52 
" style="fill: none; stroke: #ffffff; stroke-width: 0.8; stroke-linejoin: miter; stroke-linecap: square"/>
   </g>
   <g id="patch_6">
    <path d="M 10.8 46.08 
L 522.797024 46.08 
" style="fill: none; stroke: #ffffff; stroke-width: 0.8; stroke-linejoin: miter; stroke-linecap: square"/>
   </g>
  </g>
  <g id="text_3">
   <!-- CMU-Net | APM -->
   <g style="fill: #262626" transform="translate(167.84625 25.54125) scale(0.24 -0.24)">
    <defs>
     <path id="DejaVuSans-Bold-43" d="M 4288 256 
Q 3956 84 3597 -3 
Q 3238 -91 2847 -91 
Q 1681 -91 1000 561 
Q 319 1213 319 2328 
Q 319 3447 1000 4098 
Q 1681 4750 2847 4750 
Q 3238 4750 3597 4662 
Q 3956 4575 4288 4403 
L 4288 3438 
Q 3953 3666 3628 3772 
Q 3303 3878 2944 3878 
Q 2300 3878 1931 3465 
Q 1563 3053 1563 2328 
Q 1563 1606 1931 1193 
Q 2300 781 2944 781 
Q 3303 781 3628 887 
Q 3953 994 4288 1222 
L 4288 256 
z
" transform="scale(0.015625)"/>
     <path id="DejaVuSans-Bold-4d" d="M 588 4666 
L 2119 4666 
L 3181 2169 
L 4250 4666 
L 5778 4666 
L 5778 0 
L 4641 0 
L 4641 3413 
L 3566 897 
L 2803 897 
L 1728 3413 
L 1728 0 
L 588 0 
L 588 4666 
z
" transform="scale(0.015625)"/>
     <path id="DejaVuSans-Bold-55" d="M 588 4666 
L 1791 4666 
L 1791 1869 
Q 1791 1291 1980 1042 
Q 2169 794 2597 794 
Q 3028 794 3217 1042 
Q 3406 1291 3406 1869 
L 3406 4666 
L 4609 4666 
L 4609 1869 
Q 4609 878 4112 393 
Q 3616 -91 2597 -91 
Q 1581 -91 1084 393 
Q 588 878 588 1869 
L 588 4666 
z
" transform="scale(0.015625)"/>
     <path id="DejaVuSans-Bold-2d" d="M 347 2297 
L 2309 2297 
L 2309 1388 
L 347 1388 
L 347 2297 
z
" transform="scale(0.015625)"/>
     <path id="DejaVuSans-Bold-4e" d="M 588 4666 
L 1931 4666 
L 3628 1466 
L 3628 4666 
L 4769 4666 
L 4769 0 
L 3425 0 
L 1728 3200 
L 1728 0 
L 588 0 
L 588 4666 
z
" transform="scale(0.015625)"/>
     <path id="DejaVuSans-Bold-65" d="M 4031 1759 
L 4031 1441 
L 1416 1441 
Q 1456 1047 1700 850 
Q 1944 653 2381 653 
Q 2734 653 3104 758 
Q 3475 863 3866 1075 
L 3866 213 
Q 3469 63 3072 -14 
Q 2675 -91 2278 -91 
Q 1328 -91 801 392 
Q 275 875 275 1747 
Q 275 2603 792 3093 
Q 1309 3584 2216 3584 
Q 3041 3584 3536 3087 
Q 4031 2591 4031 1759 
z
M 2881 2131 
Q 2881 2450 2695 2645 
Q 2509 2841 2209 2841 
Q 1884 2841 1681 2658 
Q 1478 2475 1428 2131 
L 2881 2131 
z
" transform="scale(0.015625)"/>
     <path id="DejaVuSans-Bold-74" d="M 1759 4494 
L 1759 3500 
L 2913 3500 
L 2913 2700 
L 1759 2700 
L 1759 1216 
Q 1759 972 1856 886 
Q 1953 800 2241 800 
L 2816 800 
L 2816 0 
L 1856 0 
Q 1194 0 917 276 
Q 641 553 641 1216 
L 641 2700 
L 84 2700 
L 84 3500 
L 641 3500 
L 641 4494 
L 1759 4494 
z
" transform="scale(0.015625)"/>
     <path id="DejaVuSans-Bold-20" transform="scale(0.015625)"/>
     <path id="DejaVuSans-Bold-7c" d="M 1522 4891 
L 1522 -1509 
L 813 -1509 
L 813 4891 
L 1522 4891 
z
" transform="scale(0.015625)"/>
     <path id="DejaVuSans-Bold-41" d="M 3419 850 
L 1538 850 
L 1241 0 
L 31 0 
L 1759 4666 
L 3194 4666 
L 4922 0 
L 3713 0 
L 3419 850 
z
M 1838 1716 
L 3116 1716 
L 2478 3572 
L 1838 1716 
z
" transform="scale(0.015625)"/>
     <path id="DejaVuSans-Bold-50" d="M 588 4666 
L 2584 4666 
Q 3475 4666 3951 4270 
Q 4428 3875 4428 3144 
Q 4428 2409 3951 2014 
Q 3475 1619 2584 1619 
L 1791 1619 
L 1791 0 
L 588 0 
L 588 4666 
z
M 1791 3794 
L 1791 2491 
L 2456 2491 
Q 2806 2491 2997 2661 
Q 3188 2831 3188 3144 
Q 3188 3456 2997 3625 
Q 2806 3794 2456 3794 
L 1791 3794 
z
" transform="scale(0.015625)"/>
    </defs>
    <use xlink:href="#DejaVuSans-Bold-43"/>
    <use xlink:href="#DejaVuSans-Bold-4d" transform="translate(73.388672 0)"/>
    <use xlink:href="#DejaVuSans-Bold-55" transform="translate(172.900391 0)"/>
    <use xlink:href="#DejaVuSans-Bold-2d" transform="translate(254.101562 0)"/>
    <use xlink:href="#DejaVuSans-Bold-4e" transform="translate(295.605469 0)"/>
    <use xlink:href="#DejaVuSans-Bold-65" transform="translate(379.296875 0)"/>
    <use xlink:href="#DejaVuSans-Bold-74" transform="translate(447.119141 0)"/>
    <use xlink:href="#DejaVuSans-Bold-20" transform="translate(494.921875 0)"/>
    <use xlink:href="#DejaVuSans-Bold-7c" transform="translate(529.736328 0)"/>
    <use xlink:href="#DejaVuSans-Bold-20" transform="translate(566.259766 0)"/>
    <use xlink:href="#DejaVuSans-Bold-41" transform="translate(601.074219 0)"/>
    <use xlink:href="#DejaVuSans-Bold-50" transform="translate(678.466797 0)"/>
    <use xlink:href="#DejaVuSans-Bold-4d" transform="translate(751.757812 0)"/>
   </g>
  </g>
 </g>
 <defs>
  <clipPath id="p177e399436">
   <rect x="10.8" y="46.08" width="511.997024" height="282.44"/>
  </clipPath>
 </defs>
</svg>
