<?xml version="1.0" encoding="utf-8" standalone="no"?>
<!DOCTYPE svg PUBLIC "-//W3C//DTD SVG 1.1//EN"
  "http://www.w3.org/Graphics/SVG/1.1/DTD/svg11.dtd">
<svg xmlns:xlink="http://www.w3.org/1999/xlink" width="540pt" height="360pt" viewBox="0 0 540 360" xmlns="http://www.w3.org/2000/svg" version="1.1">
 <metadata>
  <rdf:RDF xmlns:dc="http://purl.org/dc/elements/1.1/" xmlns:cc="http://creativecommons.org/ns#" xmlns:rdf="http://www.w3.org/1999/02/22-rdf-syntax-ns#">
   <cc:Work>
    <dc:type rdf:resource="http://purl.org/dc/dcmitype/StillImage"/>
    <dc:date>2025-08-04T02:53:26.092467</dc:date>
    <dc:format>image/svg+xml</dc:format>
    <dc:creator>
     <cc:Agent>
      <dc:title>Matplotlib v3.10.0, https://matplotlib.org/</dc:title>
     </cc:Agent>
    </dc:creator>
   </cc:Work>
  </rdf:RDF>
 </metadata>
 <defs>
  <style type="text/css">*{stroke-linejoin: round; stroke-linecap: butt}</style>
 </defs>
 <g id="figure_1">
  <g id="patch_1">
   <path d="M 0 360 
L 540 360 
L 540 0 
L 0 0 
z
" style="fill: #ffffff"/>
  </g>
  <g id="axes_1">
   <g id="patch_2">
    <path d="M 56.23 328.52 
L 522.797024 328.52 
L 522.797024 46.08 
L 56.23 46.08 
z
" style="fill: #eaeaf2"/>
   </g>
   <g id="matplotlib.axis_1">
    <g id="xtick_1">
     <g id="line2d_1">
      <path d="M 65.139619 328.52 
L 65.139619 46.08 
" clip-path="url(#pf9d6f790a6)" style="fill: none; stroke: #ffffff; stroke-width: 0.8; stroke-linecap: round"/>
     </g>
     <g id="text_1">
      <!-- 0 -->
      <g style="fill: #262626" transform="translate(60.685869 346.157812) scale(0.14 -0.14)">
       <defs>
        <path id="DejaVuSans-30" d="M 2034 4250 
Q 1547 4250 1301 3770 
Q 1056 3291 1056 2328 
Q 1056 1369 1301 889 
Q 1547 409 2034 409 
Q 2525 409 2770 889 
Q 3016 1369 3016 2328 
Q 3016 3291 2770 3770 
Q 2525 4250 2034 4250 
z
M 2034 4750 
Q 2819 4750 3233 4129 
Q 3647 3509 3647 2328 
Q 3647 1150 3233 529 
Q 2819 -91 2034 -91 
Q 1250 -91 836 529 
Q 422 1150 422 2328 
Q 422 3509 836 4129 
Q 1250 4750 2034 4750 
z
" transform="scale(0.015625)"/>
       </defs>
       <use xlink:href="#DejaVuSans-30"/>
      </g>
     </g>
    </g>
    <g id="xtick_2">
     <g id="line2d_2">
      <path d="M 510.620546 328.52 
L 510.620546 46.08 
" clip-path="url(#pf9d6f790a6)" style="fill: none; stroke: #ffffff; stroke-width: 0.8; stroke-linecap: round"/>
     </g>
     <g id="text_2">
      <!-- 600k -->
      <g style="fill: #262626" transform="translate(493.205858 346.157812) scale(0.14 -0.14)">
       <defs>
        <path id="DejaVuSans-36" d="M 2113 2584 
Q 1688 2584 1439 2293 
Q 1191 2003 1191 1497 
Q 1191 994 1439 701 
Q 1688 409 2113 409 
Q 2538 409 2786 701 
Q 3034 994 3034 1497 
Q 3034 2003 2786 2293 
Q 2538 2584 2113 2584 
z
M 3366 4563 
L 3366 3988 
Q 3128 4100 2886 4159 
Q 2644 4219 2406 4219 
Q 1781 4219 1451 3797 
Q 1122 3375 1075 2522 
Q 1259 2794 1537 2939 
Q 1816 3084 2150 3084 
Q 2853 3084 3261 2657 
Q 3669 2231 3669 1497 
Q 3669 778 3244 343 
Q 2819 -91 2113 -91 
Q 1303 -91 875 529 
Q 447 1150 447 2328 
Q 447 3434 972 4092 
Q 1497 4750 2381 4750 
Q 2619 4750 2861 4703 
Q 3103 4656 3366 4563 
z
" transform="scale(0.015625)"/>
        <path id="DejaVuSans-6b" d="M 581 4863 
L 1159 4863 
L 1159 1991 
L 2875 3500 
L 3609 3500 
L 1753 1863 
L 3688 0 
L 2938 0 
L 1159 1709 
L 1159 0 
L 581 0 
L 581 4863 
z
" transform="scale(0.015625)"/>
       </defs>
       <use xlink:href="#DejaVuSans-36"/>
       <use xlink:href="#DejaVuSans-30" transform="translate(63.623047 0)"/>
       <use xlink:href="#DejaVuSans-30" transform="translate(127.246094 0)"/>
       <use xlink:href="#DejaVuSans-6b" transform="translate(190.869141 0)"/>
      </g>
     </g>
    </g>
   </g>
   <g id="matplotlib.axis_2">
    <g id="ytick_1">
     <g id="line2d_3">
      <path d="M 56.23 320.526415 
L 522.797024 320.526415 
" clip-path="url(#pf9d6f790a6)" style="fill: none; stroke: #ffffff; stroke-width: 0.8; stroke-linecap: round"/>
     </g>
     <g id="text_3">
      <!-- −500 -->
      <g style="fill: #262626" transform="translate(10.775937 325.845321) scale(0.14 -0.14)">
       <defs>
        <path id="DejaVuSans-2212" d="M 678 2272 
L 4684 2272 
L 4684 1741 
L 678 1741 
L 678 2272 
z
" transform="scale(0.015625)"/>
        <path id="DejaVuSans-35" d="M 691 4666 
L 3169 4666 
L 3169 4134 
L 1269 4134 
L 1269 2991 
Q 1406 3038 1543 3061 
Q 1681 3084 1819 3084 
Q 2600 3084 3056 2656 
Q 3513 2228 3513 1497 
Q 3513 744 3044 326 
Q 2575 -91 1722 -91 
Q 1428 -91 1123 -41 
Q 819 9 494 109 
L 494 744 
Q 775 591 1075 516 
Q 1375 441 1709 441 
Q 2250 441 2565 725 
Q 2881 1009 2881 1497 
Q 2881 1984 2565 2268 
Q 2250 2553 1709 2553 
Q 1456 2553 1204 2497 
Q 953 2441 691 2322 
L 691 4666 
z
" transform="scale(0.015625)"/>
       </defs>
       <use xlink:href="#DejaVuSans-2212"/>
       <use xlink:href="#DejaVuSans-35" transform="translate(83.789062 0)"/>
       <use xlink:href="#DejaVuSans-30" transform="translate(147.412109 0)"/>
       <use xlink:href="#DejaVuSans-30" transform="translate(211.035156 0)"/>
      </g>
     </g>
    </g>
    <g id="ytick_2">
     <g id="line2d_4">
      <path d="M 56.23 267.235849 
L 522.797024 267.235849 
" clip-path="url(#pf9d6f790a6)" style="fill: none; stroke: #ffffff; stroke-width: 0.8; stroke-linecap: round"/>
     </g>
     <g id="text_4">
      <!-- −400 -->
      <g style="fill: #262626" transform="translate(10.775937 272.554755) scale(0.14 -0.14)">
       <defs>
        <path id="DejaVuSans-34" d="M 2419 4116 
L 825 1625 
L 2419 1625 
L 2419 4116 
z
M 2253 4666 
L 3047 4666 
L 3047 1625 
L 3713 1625 
L 3713 1100 
L 3047 1100 
L 3047 0 
L 2419 0 
L 2419 1100 
L 313 1100 
L 313 1709 
L 2253 4666 
z
" transform="scale(0.015625)"/>
       </defs>
       <use xlink:href="#DejaVuSans-2212"/>
       <use xlink:href="#DejaVuSans-34" transform="translate(83.789062 0)"/>
       <use xlink:href="#DejaVuSans-30" transform="translate(147.412109 0)"/>
       <use xlink:href="#DejaVuSans-30" transform="translate(211.035156 0)"/>
      </g>
     </g>
    </g>
    <g id="ytick_3">
     <g id="line2d_5">
      <path d="M 56.23 213.945283 
L 522.797024 213.945283 
" clip-path="url(#pf9d6f790a6)" style="fill: none; stroke: #ffffff; stroke-width: 0.8; stroke-linecap: round"/>
     </g>
     <g id="text_5">
      <!-- −300 -->
      <g style="fill: #262626" transform="translate(10.775937 219.264189) scale(0.14 -0.14)">
       <defs>
        <path id="DejaVuSans-33" d="M 2597 2516 
Q 3050 2419 3304 2112 
Q 3559 1806 3559 1356 
Q 3559 666 3084 287 
Q 2609 -91 1734 -91 
Q 1441 -91 1130 -33 
Q 819 25 488 141 
L 488 750 
Q 750 597 1062 519 
Q 1375 441 1716 441 
Q 2309 441 2620 675 
Q 2931 909 2931 1356 
Q 2931 1769 2642 2001 
Q 2353 2234 1838 2234 
L 1294 2234 
L 1294 2753 
L 1863 2753 
Q 2328 2753 2575 2939 
Q 2822 3125 2822 3475 
Q 2822 3834 2567 4026 
Q 2313 4219 1838 4219 
Q 1578 4219 1281 4162 
Q 984 4106 628 3988 
L 628 4550 
Q 988 4650 1302 4700 
Q 1616 4750 1894 4750 
Q 2613 4750 3031 4423 
Q 3450 4097 3450 3541 
Q 3450 3153 3228 2886 
Q 3006 2619 2597 2516 
z
" transform="scale(0.015625)"/>
       </defs>
       <use xlink:href="#DejaVuSans-2212"/>
       <use xlink:href="#DejaVuSans-33" transform="translate(83.789062 0)"/>
       <use xlink:href="#DejaVuSans-30" transform="translate(147.412109 0)"/>
       <use xlink:href="#DejaVuSans-30" transform="translate(211.035156 0)"/>
      </g>
     </g>
    </g>
    <g id="ytick_4">
     <g id="line2d_6">
      <path d="M 56.23 160.654717 
L 522.797024 160.654717 
" clip-path="url(#pf9d6f790a6)" style="fill: none; stroke: #ffffff; stroke-width: 0.8; stroke-linecap: round"/>
     </g>
     <g id="text_6">
      <!-- −200 -->
      <g style="fill: #262626" transform="translate(10.775937 165.973623) scale(0.14 -0.14)">
       <defs>
        <path id="DejaVuSans-32" d="M 1228 531 
L 3431 531 
L 3431 0 
L 469 0 
L 469 531 
Q 828 903 1448 1529 
Q 2069 2156 2228 2338 
Q 2531 2678 2651 2914 
Q 2772 3150 2772 3378 
Q 2772 3750 2511 3984 
Q 2250 4219 1831 4219 
Q 1534 4219 1204 4116 
Q 875 4013 500 3803 
L 500 4441 
Q 881 4594 1212 4672 
Q 1544 4750 1819 4750 
Q 2544 4750 2975 4387 
Q 3406 4025 3406 3419 
Q 3406 3131 3298 2873 
Q 3191 2616 2906 2266 
Q 2828 2175 2409 1742 
Q 1991 1309 1228 531 
z
" transform="scale(0.015625)"/>
       </defs>
       <use xlink:href="#DejaVuSans-2212"/>
       <use xlink:href="#DejaVuSans-32" transform="translate(83.789062 0)"/>
       <use xlink:href="#DejaVuSans-30" transform="translate(147.412109 0)"/>
       <use xlink:href="#DejaVuSans-30" transform="translate(211.035156 0)"/>
      </g>
     </g>
    </g>
    <g id="ytick_5">
     <g id="line2d_7">
      <path d="M 56.23 107.364151 
L 522.797024 107.364151 
" clip-path="url(#pf9d6f790a6)" style="fill: none; stroke: #ffffff; stroke-width: 0.8; stroke-linecap: round"/>
     </g>
     <g id="text_7">
      <!-- −100 -->
      <g style="fill: #262626" transform="translate(10.775937 112.683057) scale(0.14 -0.14)">
       <defs>
        <path id="DejaVuSans-31" d="M 794 531 
L 1825 531 
L 1825 4091 
L 703 3866 
L 703 4441 
L 1819 4666 
L 2450 4666 
L 2450 531 
L 3481 531 
L 3481 0 
L 794 0 
L 794 531 
z
" transform="scale(0.015625)"/>
       </defs>
       <use xlink:href="#DejaVuSans-2212"/>
       <use xlink:href="#DejaVuSans-31" transform="translate(83.789062 0)"/>
       <use xlink:href="#DejaVuSans-30" transform="translate(147.412109 0)"/>
       <use xlink:href="#DejaVuSans-30" transform="translate(211.035156 0)"/>
      </g>
     </g>
    </g>
    <g id="ytick_6">
     <g id="line2d_8">
      <path d="M 56.23 54.073585 
L 522.797024 54.073585 
" clip-path="url(#pf9d6f790a6)" style="fill: none; stroke: #ffffff; stroke-width: 0.8; stroke-linecap: round"/>
     </g>
     <g id="text_8">
      <!-- 0 -->
      <g style="fill: #262626" transform="translate(40.3225 59.392491) scale(0.14 -0.14)">
       <use xlink:href="#DejaVuSans-30"/>
      </g>
     </g>
    </g>
   </g>
   <g id="FillBetweenPolyCollection_1">
    <path d="M 65.139619 288.29612 
L 65.139619 320.968887 
L 69.701343 314.334299 
L 74.263068 310.370658 
L 78.824793 294.458053 
L 83.386517 311.997289 
L 87.948242 317.745981 
L 92.509967 311.902093 
L 97.071691 317.06949 
L 101.633416 326.822227 
L 106.195141 313.560937 
L 110.756865 323.163214 
L 115.31859 310.365157 
L 119.880315 313.037933 
L 124.44204 314.271985 
L 129.003764 303.146979 
L 133.565489 298.531917 
L 138.127214 284.935184 
L 142.688938 280.394461 
L 147.250663 266.928118 
L 151.812388 257.231469 
L 156.374112 270.457732 
L 160.935837 252.466083 
L 165.497562 252.721565 
L 170.059286 243.466074 
L 174.621011 242.07853 
L 179.182736 236.167198 
L 183.744461 234.648344 
L 188.306185 224.737431 
L 192.86791 231.865997 
L 197.429635 224.035185 
L 201.991359 189.981974 
L 206.553084 193.411954 
L 211.114809 157.962325 
L 215.676533 157.411134 
L 220.238258 152.904531 
L 224.799983 157.553961 
L 229.361707 158.58543 
L 233.923432 145.192952 
L 238.485157 133.111764 
L 243.046882 137.234026 
L 247.608606 122.025782 
L 252.170331 126.919895 
L 256.732056 113.263364 
L 261.29378 116.716572 
L 265.855505 107.048226 
L 270.41723 110.168425 
L 274.978954 106.09012 
L 279.540679 107.054532 
L 284.102404 105.64748 
L 288.664128 105.709037 
L 293.225853 102.65679 
L 297.787578 100.873824 
L 302.349303 104.104151 
L 306.911027 109.317735 
L 311.472752 106.611897 
L 316.034477 109.944413 
L 320.596201 101.65785 
L 325.157926 100.86391 
L 329.719651 103.896421 
L 334.281375 105.026336 
L 338.8431 101.698629 
L 343.404825 104.000483 
L 347.966549 97.390508 
L 352.528274 105.66577 
L 357.089999 100.374032 
L 361.651724 98.411395 
L 366.213448 96.864107 
L 370.775173 115.4217 
L 375.336898 103.374779 
L 379.898622 102.906487 
L 384.460347 100.981118 
L 389.022072 105.150824 
L 393.583796 106.508857 
L 398.145521 98.852891 
L 402.707246 100.77185 
L 407.26897 103.004166 
L 411.830695 101.262832 
L 416.39242 104.569676 
L 420.954145 101.008019 
L 425.515869 100.541028 
L 430.077594 102.809383 
L 434.639319 106.534581 
L 439.201043 104.505888 
L 443.762768 104.602411 
L 448.324493 102.807825 
L 452.886217 108.413986 
L 457.447942 104.305413 
L 462.009667 99.05764 
L 466.571391 107.09358 
L 471.133116 102.457228 
L 475.694841 99.295693 
L 480.256566 102.772688 
L 484.81829 98.366573 
L 489.380015 99.512862 
L 493.94174 103.635572 
L 498.503464 100.842523 
L 503.065189 100.844265 
L 507.626914 101.619133 
L 512.188638 105.011856 
L 516.750363 101.74797 
L 516.750363 94.96812 
L 516.750363 94.96812 
L 512.188638 93.249661 
L 507.626914 93.764693 
L 503.065189 93.527041 
L 498.503464 93.342266 
L 493.94174 94.359492 
L 489.380015 93.632761 
L 484.81829 93.633303 
L 480.256566 96.288187 
L 475.694841 93.716703 
L 471.133116 96.150677 
L 466.571391 95.244665 
L 462.009667 94.78076 
L 457.447942 95.927855 
L 452.886217 90.353791 
L 448.324493 92.602647 
L 443.762768 92.033743 
L 439.201043 96.127059 
L 434.639319 97.828706 
L 430.077594 94.919229 
L 425.515869 94.842798 
L 420.954145 94.668905 
L 416.39242 97.422181 
L 411.830695 94.174285 
L 407.26897 92.299724 
L 402.707246 95.091591 
L 398.145521 94.292732 
L 393.583796 95.909324 
L 389.022072 96.521289 
L 384.460347 95.495165 
L 379.898622 98.579109 
L 375.336898 93.607765 
L 370.775173 93.311413 
L 366.213448 94.89596 
L 361.651724 95.40036 
L 357.089999 95.462764 
L 352.528274 90.570706 
L 347.966549 91.758323 
L 343.404825 97.032143 
L 338.8431 95.070752 
L 334.281375 97.125392 
L 329.719651 97.988855 
L 325.157926 95.718955 
L 320.596201 93.273007 
L 316.034477 96.710368 
L 311.472752 97.005321 
L 306.911027 94.299484 
L 302.349303 94.58369 
L 297.787578 95.229425 
L 293.225853 95.551437 
L 288.664128 98.227926 
L 284.102404 93.813074 
L 279.540679 98.454502 
L 274.978954 94.089858 
L 270.41723 97.365651 
L 265.855505 93.797883 
L 261.29378 92.629383 
L 256.732056 95.629621 
L 252.170331 88.501185 
L 247.608606 89.345214 
L 243.046882 87.059932 
L 238.485157 86.57256 
L 233.923432 84.669871 
L 229.361707 75.19425 
L 224.799983 81.767937 
L 220.238258 81.674507 
L 215.676533 81.351213 
L 211.114809 81.919124 
L 206.553084 77.857638 
L 201.991359 72.06835 
L 197.429635 59.384656 
L 192.86791 56.536512 
L 188.306185 62.81243 
L 183.744461 61.960912 
L 179.182736 63.053296 
L 174.621011 78.271673 
L 170.059286 82.000025 
L 165.497562 80.977926 
L 160.935837 86.562464 
L 156.374112 98.013853 
L 151.812388 88.085365 
L 147.250663 102.289534 
L 142.688938 107.714697 
L 138.127214 105.811857 
L 133.565489 120.778868 
L 129.003764 131.245036 
L 124.44204 133.549253 
L 119.880315 129.800637 
L 115.31859 130.927987 
L 110.756865 136.941499 
L 106.195141 135.672501 
L 101.633416 137.465795 
L 97.071691 138.638752 
L 92.509967 139.196515 
L 87.948242 150.831932 
L 83.386517 163.694915 
L 78.824793 141.266226 
L 74.263068 173.768101 
L 69.701343 227.30498 
L 65.139619 288.29612 
z
" clip-path="url(#pf9d6f790a6)" style="fill: #023eff; fill-opacity: 0.1"/>
   </g>
   <g id="line2d_9">
    <path d="M 65.139619 308.402811 
L 69.701343 308.669264 
L 74.263068 308.269585 
L 78.824793 298.677283 
L 83.386517 320.526415 
L 87.948242 317.129142 
L 92.509967 310.334594 
L 97.071691 305.005538 
L 101.633416 320.526415 
L 106.195141 320.526415 
L 110.756865 320.526415 
L 115.31859 320.526415 
L 119.880315 320.526415 
L 124.44204 320.526415 
L 129.003764 307.53684 
L 133.565489 302.674075 
L 138.127214 284.688509 
L 142.688938 272.831358 
L 147.250663 236.060868 
L 151.812388 213.012698 
L 156.374112 251.182066 
L 160.935837 198.157953 
L 165.497562 201.954906 
L 170.059286 156.258245 
L 174.621011 152.461292 
L 179.182736 133.343302 
L 183.744461 115.957255 
L 188.306185 117.822425 
L 192.86791 108.296736 
L 197.429635 104.633009 
L 201.991359 101.568802 
L 206.553084 102.035094 
L 211.114809 105.89866 
L 215.676533 99.437179 
L 220.238258 99.0375 
L 224.799983 104.699623 
L 229.361707 98.83766 
L 233.923432 101.702028 
L 238.485157 96.106519 
L 243.046882 97.37217 
L 247.608606 96.439585 
L 252.170331 102.301547 
L 256.732056 100.636217 
L 261.29378 97.37217 
L 265.855505 94.974094 
L 270.41723 104.033491 
L 274.978954 93.175538 
L 279.540679 103.567198 
L 284.102404 98.771047 
L 288.664128 99.836858 
L 293.225853 96.039906 
L 297.787578 95.240547 
L 302.349303 103.234132 
L 306.911027 113.692406 
L 311.472752 98.504594 
L 316.034477 104.899462 
L 320.596201 96.639425 
L 325.157926 96.572811 
L 329.719651 98.771047 
L 334.281375 97.438783 
L 338.8431 101.768642 
L 343.404825 96.439585 
L 347.966549 94.241349 
L 352.528274 92.109726 
L 357.089999 93.575217 
L 361.651724 99.703632 
L 366.213448 95.107321 
L 370.775173 97.039104 
L 375.336898 95.507 
L 379.898622 103.100906 
L 384.460347 103.234132 
L 389.022072 102.634613 
L 393.583796 102.434774 
L 398.145521 97.905075 
L 402.707246 100.969283 
L 407.26897 92.642632 
L 411.830695 95.240547 
L 416.39242 95.840066 
L 420.954145 96.839264 
L 425.515869 96.639425 
L 430.077594 98.83766 
L 434.639319 104.699623 
L 439.201043 98.83766 
L 443.762768 96.839264 
L 448.324493 93.775057 
L 452.886217 99.370566 
L 457.447942 97.505396 
L 462.009667 99.970085 
L 466.571391 94.507802 
L 471.133116 102.701226 
L 475.694841 93.775057 
L 480.256566 94.641028 
L 484.81829 95.573613 
L 489.380015 93.575217 
L 493.94174 98.371368 
L 498.503464 99.104113 
L 503.065189 95.240547 
L 507.626914 94.241349 
L 512.188638 94.307962 
L 516.750363 95.240547 
" clip-path="url(#pf9d6f790a6)" style="fill: none; stroke: #1ac938; stroke-opacity: 0.27; stroke-width: 1.25; stroke-linecap: round"/>
   </g>
   <g id="line2d_10">
    <path d="M 65.139619 277.294443 
L 69.701343 203.553623 
L 74.263068 148.331274 
L 78.824793 133.476528 
L 83.386517 157.257443 
L 87.948242 122.551962 
L 92.509967 107.497377 
L 97.071691 105.099302 
L 101.633416 105.89866 
L 106.195141 111.893849 
L 110.756865 105.765434 
L 115.31859 102.76784 
L 119.880315 109.029481 
L 124.44204 100.236538 
L 129.003764 104.633009 
L 133.565489 99.570406 
L 138.127214 101.635415 
L 142.688938 101.502189 
L 147.250663 99.836858 
L 151.812388 93.775057 
L 156.374112 102.101708 
L 160.935837 106.031887 
L 165.497562 96.572811 
L 170.059286 114.025472 
L 174.621011 109.762226 
L 179.182736 96.039906 
L 183.744461 96.506198 
L 188.306185 99.0375 
L 192.86791 99.703632 
L 197.429635 100.436377 
L 201.991359 101.835255 
L 206.553084 99.770245 
L 211.114809 101.235736 
L 215.676533 103.100906 
L 220.238258 96.706038 
L 224.799983 99.370566 
L 229.361707 95.973292 
L 233.923432 98.171528 
L 238.485157 96.639425 
L 243.046882 98.371368 
L 247.608606 98.171528 
L 252.170331 92.975698 
L 256.732056 98.437981 
L 261.29378 104.832849 
L 265.855505 93.375377 
L 270.41723 106.364953 
L 274.978954 95.70684 
L 279.540679 103.767038 
L 284.102404 91.310368 
L 288.664128 95.906679 
L 293.225853 96.239745 
L 297.787578 97.971689 
L 302.349303 97.305557 
L 306.911027 93.775057 
L 311.472752 105.832047 
L 316.034477 94.241349 
L 320.596201 93.375377 
L 325.157926 95.107321 
L 329.719651 103.700425 
L 334.281375 100.969283 
L 338.8431 102.967679 
L 343.404825 100.70283 
L 347.966549 90.244557 
L 352.528274 94.108123 
L 357.089999 100.502991 
L 361.651724 97.238943 
L 366.213448 95.107321 
L 370.775173 125.882623 
L 375.336898 94.907481 
L 379.898622 97.638623 
L 384.460347 98.238142 
L 389.022072 98.970887 
L 393.583796 100.70283 
L 398.145521 100.369764 
L 402.707246 93.441991 
L 407.26897 107.430764 
L 411.830695 93.441991 
L 416.39242 103.034292 
L 420.954145 96.572811 
L 425.515869 103.100906 
L 430.077594 96.972491 
L 434.639319 103.034292 
L 439.201043 108.030283 
L 443.762768 94.840868 
L 448.324493 92.576019 
L 452.886217 92.109726 
L 457.447942 98.304755 
L 462.009667 93.84167 
L 466.571391 97.039104 
L 471.133116 102.701226 
L 475.694841 93.64183 
L 480.256566 97.438783 
L 484.81829 99.370566 
L 489.380015 97.17233 
L 493.94174 97.838462 
L 498.503464 95.040708 
L 503.065189 94.907481 
L 507.626914 104.899462 
L 512.188638 94.907481 
L 516.750363 98.83766 
" clip-path="url(#pf9d6f790a6)" style="fill: none; stroke: #1ac938; stroke-opacity: 0.27; stroke-width: 1.25; stroke-linecap: round"/>
   </g>
   <g id="line2d_11">
    <path d="M 65.139619 320.526415 
L 69.701343 281.091396 
L 74.263068 253.380302 
L 78.824793 179.106575 
L 83.386517 238.658783 
L 87.948242 262.173245 
L 92.509967 245.853009 
L 97.071691 271.698934 
L 101.633416 284.28883 
L 106.195141 236.660387 
L 110.756865 272.165226 
L 115.31859 218.741434 
L 119.880315 233.329726 
L 124.44204 236.260708 
L 129.003764 209.348972 
L 133.565489 194.627453 
L 138.127214 148.997406 
L 142.688938 146.532717 
L 147.250663 145.799972 
L 151.812388 123.884226 
L 156.374112 127.881019 
L 160.935837 110.494972 
L 165.497562 113.092887 
L 170.059286 113.825632 
L 174.621011 110.161906 
L 179.182736 100.70283 
L 183.744461 106.231726 
L 188.306185 100.169925 
L 192.86791 96.173132 
L 197.429635 101.102509 
L 201.991359 97.838462 
L 206.553084 101.102509 
L 211.114809 95.440387 
L 215.676533 101.169123 
L 220.238258 100.103311 
L 224.799983 97.438783 
L 229.361707 95.30716 
L 233.923432 101.368962 
L 238.485157 103.567198 
L 243.046882 104.633009 
L 247.608606 97.238943 
L 252.170331 100.502991 
L 256.732056 94.507802 
L 261.29378 96.439585 
L 265.855505 97.572009 
L 270.41723 99.637019 
L 274.978954 97.771849 
L 279.540679 102.035094 
L 284.102404 103.767038 
L 288.664128 106.564792 
L 293.225853 99.970085 
L 297.787578 97.438783 
L 302.349303 93.775057 
L 306.911027 97.838462 
L 311.472752 97.572009 
L 316.034477 99.637019 
L 320.596201 104.966075 
L 325.157926 101.169123 
L 329.719651 104.899462 
L 334.281375 106.698019 
L 338.8431 96.639425 
L 343.404825 106.698019 
L 347.966549 96.639425 
L 352.528274 94.507802 
L 357.089999 99.770245 
L 361.651724 95.973292 
L 366.213448 95.773453 
L 370.775173 101.968481 
L 375.336898 107.96367 
L 379.898622 101.835255 
L 384.460347 98.238142 
L 389.022072 108.429962 
L 393.583796 110.428358 
L 398.145521 95.373774 
L 402.707246 100.303151 
L 407.26897 92.975698 
L 411.830695 96.039906 
L 416.39242 98.238142 
L 420.954145 103.767038 
L 425.515869 97.438783 
L 430.077594 106.031887 
L 434.639319 94.174736 
L 439.201043 95.373774 
L 443.762768 110.761425 
L 448.324493 96.239745 
L 452.886217 95.373774 
L 457.447942 104.899462 
L 462.009667 95.973292 
L 466.571391 111.560783 
L 471.133116 95.840066 
L 475.694841 96.439585 
L 480.256566 103.767038 
L 484.81829 94.307962 
L 489.380015 97.971689 
L 493.94174 107.697217 
L 498.503464 92.509406 
L 503.065189 97.238943 
L 507.626914 96.306358 
L 512.188638 101.901868 
L 516.750363 98.171528 
" clip-path="url(#pf9d6f790a6)" style="fill: none; stroke: #1ac938; stroke-opacity: 0.27; stroke-width: 1.25; stroke-linecap: round"/>
   </g>
   <g id="line2d_12">
    <path d="M 65.139619 296.412434 
L 69.701343 240.2575 
L 74.263068 179.839321 
L 78.824793 157.523896 
L 83.386517 152.261453 
L 87.948242 149.064019 
L 92.509967 143.535123 
L 97.071691 136.940415 
L 101.633416 129.479736 
L 106.195141 133.476528 
L 110.756865 131.278292 
L 115.31859 140.670755 
L 119.880315 123.684387 
L 124.44204 142.003019 
L 129.003764 143.934802 
L 133.565489 130.878613 
L 138.127214 121.019858 
L 142.688938 128.880217 
L 147.250663 120.820019 
L 151.812388 112.093689 
L 156.374112 119.487755 
L 160.935837 112.360142 
L 165.497562 102.101708 
L 170.059286 109.029481 
L 174.621011 107.96367 
L 179.182736 97.438783 
L 183.744461 102.301547 
L 188.306185 96.839264 
L 192.86791 97.505396 
L 197.429635 96.106519 
L 201.991359 105.032689 
L 206.553084 125.682783 
L 211.114809 101.435575 
L 215.676533 97.838462 
L 220.238258 102.168321 
L 224.799983 101.502189 
L 229.361707 94.108123 
L 233.923432 98.038302 
L 238.485157 96.839264 
L 243.046882 98.304755 
L 247.608606 98.238142 
L 252.170331 97.17233 
L 256.732056 109.629 
L 261.29378 96.772651 
L 265.855505 105.432368 
L 270.41723 94.907481 
L 274.978954 104.166717 
L 279.540679 95.507 
L 284.102404 96.372972 
L 288.664128 104.499783 
L 293.225853 97.638623 
L 297.787578 96.239745 
L 302.349303 95.906679 
L 306.911027 96.372972 
L 311.472752 97.905075 
L 316.034477 103.567198 
L 320.596201 93.84167 
L 325.157926 97.105717 
L 329.719651 97.039104 
L 334.281375 96.173132 
L 338.8431 95.107321 
L 343.404825 98.104915 
L 347.966549 98.437981 
L 352.528274 96.972491 
L 357.089999 97.105717 
L 361.651724 96.039906 
L 366.213448 95.640226 
L 370.775173 101.568802 
L 375.336898 95.70684 
L 379.898622 98.704434 
L 384.460347 95.440387 
L 389.022072 96.639425 
L 393.583796 94.774255 
L 398.145521 94.041509 
L 402.707246 99.0375 
L 407.26897 98.171528 
L 411.830695 101.968481 
L 416.39242 105.965274 
L 420.954145 97.705236 
L 425.515869 96.572811 
L 430.077594 94.108123 
L 434.639319 107.031085 
L 439.201043 99.0375 
L 443.762768 94.174736 
L 448.324493 99.0375 
L 452.886217 93.308764 
L 457.447942 94.707642 
L 462.009667 98.571208 
L 466.571391 103.100906 
L 471.133116 99.770245 
L 475.694841 97.438783 
L 480.256566 102.035094 
L 484.81829 92.842472 
L 489.380015 93.108925 
L 493.94174 93.775057 
L 498.503464 103.300745 
L 503.065189 94.307962 
L 507.626914 94.441189 
L 512.188638 95.040708 
L 516.750363 104.43317 
" clip-path="url(#pf9d6f790a6)" style="fill: none; stroke: #1ac938; stroke-opacity: 0.27; stroke-width: 1.25; stroke-linecap: round"/>
   </g>
   <g id="line2d_13">
    <path d="M 65.139619 320.526415 
L 69.701343 320.526415 
L 74.263068 320.526415 
L 78.824793 320.526415 
L 83.386517 320.526415 
L 87.948242 320.526415 
L 92.509967 320.526415 
L 97.071691 320.526415 
L 101.633416 320.526415 
L 106.195141 320.526415 
L 110.756865 320.526415 
L 115.31859 320.526415 
L 119.880315 320.526415 
L 124.44204 320.526415 
L 129.003764 320.526415 
L 133.565489 320.526415 
L 138.127214 320.526415 
L 142.688938 320.526415 
L 147.250663 320.526415 
L 151.812388 320.526415 
L 156.374112 320.526415 
L 160.935837 320.526415 
L 165.497562 320.526415 
L 170.059286 320.526415 
L 174.621011 320.526415 
L 179.182736 320.526415 
L 183.744461 320.526415 
L 188.306185 305.005538 
L 192.86791 319.327377 
L 197.429635 306.271189 
L 201.991359 248.850604 
L 206.553084 249.583349 
L 211.114809 195.693264 
L 215.676533 195.360198 
L 220.238258 188.432425 
L 224.799983 195.293585 
L 229.361707 200.222962 
L 233.923432 175.376236 
L 238.485157 156.058406 
L 243.046882 162.053594 
L 247.608606 138.339292 
L 252.170331 145.600132 
L 256.732056 119.021462 
L 261.29378 127.947632 
L 265.855505 110.761425 
L 270.41723 113.892245 
L 274.978954 109.629 
L 279.540679 108.896255 
L 284.102404 108.429962 
L 288.664128 103.034292 
L 293.225853 105.632208 
L 297.787578 103.367358 
L 302.349303 106.498179 
L 306.911027 107.364151 
L 311.472752 109.229321 
L 316.034477 114.291925 
L 320.596201 98.504594 
L 325.157926 101.502189 
L 329.719651 100.303151 
L 334.281375 104.100104 
L 338.8431 95.440387 
L 343.404825 100.636217 
L 347.966549 93.308764 
L 352.528274 112.893047 
L 357.089999 98.637821 
L 361.651724 95.573613 
L 366.213448 97.771849 
L 370.775173 95.373774 
L 375.336898 98.371368 
L 379.898622 102.434774 
L 384.460347 96.039906 
L 389.022072 97.505396 
L 393.583796 97.705236 
L 398.145521 95.173934 
L 402.707246 95.906679 
L 407.26897 97.039104 
L 411.830695 101.901868 
L 416.39242 101.901868 
L 420.954145 94.307962 
L 425.515869 94.707642 
L 430.077594 98.371368 
L 434.639319 101.968481 
L 439.201043 100.303151 
L 443.762768 94.974094 
L 448.324493 106.897858 
L 452.886217 116.756613 
L 457.447942 105.165915 
L 462.009667 96.239745 
L 466.571391 99.637019 
L 471.133116 95.507 
L 475.694841 101.235736 
L 480.256566 99.770245 
L 484.81829 97.905075 
L 489.380015 101.035896 
L 493.94174 97.305557 
L 498.503464 95.507 
L 503.065189 104.23333 
L 507.626914 98.571208 
L 512.188638 109.495774 
L 516.750363 95.107321 
" clip-path="url(#pf9d6f790a6)" style="fill: none; stroke: #1ac938; stroke-opacity: 0.27; stroke-width: 1.25; stroke-linecap: round"/>
   </g>
   <g id="line2d_14">
    <path d="M 65.139619 54.073585 
L 69.701343 67.075935 
L 74.263068 91.469572 
L 78.824793 103.650576 
L 83.386517 112.733301 
L 87.948242 127.890288 
L 92.509967 137.412888 
L 97.071691 146.406106 
L 101.633416 149.495442 
L 106.195141 157.300077 
L 110.756865 156.197358 
L 115.31859 159.612287 
L 119.880315 160.054628 
L 124.44204 167.022513 
L 129.003764 170.819666 
L 133.565489 190.965951 
L 138.127214 198.247387 
L 142.688938 217.016227 
L 147.250663 211.236463 
L 151.812388 213.346326 
L 156.374112 225.723507 
L 160.935837 229.484186 
L 165.497562 234.498705 
L 170.059286 232.486084 
L 174.621011 229.68156 
L 179.182736 234.956306 
L 183.744461 238.107158 
L 188.306185 249.353696 
L 192.86791 253.866137 
L 197.429635 260.273016 
L 201.991359 262.6069 
L 206.553084 272.440387 
L 211.114809 268.439648 
L 215.676533 273.925592 
L 220.238258 277.894758 
L 224.799983 277.682746 
L 229.361707 277.742587 
L 233.923432 279.24742 
L 238.485157 280.49294 
L 243.046882 284.080032 
L 247.608606 278.141826 
L 252.170331 283.851195 
L 256.732056 286.298862 
L 261.29378 283.65666 
L 265.855505 287.555418 
L 270.41723 291.925689 
L 274.978954 289.177095 
L 279.540679 292.801558 
L 284.102404 291.20719 
L 288.664128 290.154534 
L 293.225853 293.300174 
L 297.787578 292.544831 
L 302.349303 300.031109 
L 306.911027 302.239695 
L 311.472752 304.250277 
L 316.034477 306.668214 
L 320.596201 303.274984 
L 325.157926 305.641259 
L 329.719651 307.735819 
L 334.281375 309.254883 
L 338.8431 306.493007 
L 343.404825 309.829234 
L 347.966549 309.730584 
L 352.528274 311.876371 
L 357.089999 311.806267 
L 361.651724 308.399464 
L 366.213448 312.32309 
L 370.775173 313.132365 
L 375.336898 309.620596 
L 379.898622 309.83246 
L 384.460347 307.590538 
L 389.022072 309.491599 
L 393.583796 310.11821 
L 398.145521 308.110743 
L 402.707246 306.724011 
L 407.26897 306.986012 
L 411.830695 310.189343 
L 416.39242 311.406188 
L 420.954145 309.557524 
L 425.515869 309.539751 
L 430.077594 315.075681 
L 434.639319 316.332239 
L 439.201043 315.528132 
L 443.762768 316.122405 
L 448.324493 317.255809 
L 452.886217 318.688469 
L 457.447942 318.258748 
L 462.009667 315.349474 
L 466.571391 317.247793 
L 471.133116 317.434457 
L 475.694841 314.672308 
L 480.256566 317.458817 
L 484.81829 317.410182 
L 489.380015 317.624015 
L 493.94174 320.432446 
L 498.503464 319.427233 
L 503.065189 320.526415 
L 507.626914 317.584999 
L 512.188638 317.433679 
L 516.750363 319.0199 
" clip-path="url(#pf9d6f790a6)" style="fill: none; stroke: #8b2be2; stroke-width: 1.5; stroke-linecap: round"/>
   </g>
   <g id="line2d_15">
    <path d="M 65.139619 304.632504 
L 69.701343 270.81964 
L 74.263068 242.069379 
L 78.824793 217.86214 
L 83.386517 237.846102 
L 87.948242 234.288957 
L 92.509967 225.549304 
L 97.071691 227.854121 
L 101.633416 232.144011 
L 106.195141 224.616719 
L 110.756865 230.052357 
L 115.31859 220.646572 
L 119.880315 221.419285 
L 124.44204 223.910619 
L 129.003764 217.196008 
L 133.565489 209.655392 
L 138.127214 195.373521 
L 142.688938 194.054579 
L 147.250663 184.608826 
L 151.812388 172.658417 
L 156.374112 184.235792 
L 160.935837 169.514274 
L 165.497562 166.849745 
L 170.059286 162.733049 
L 174.621011 160.175102 
L 179.182736 149.610247 
L 183.744461 148.304628 
L 188.306185 143.77493 
L 192.86791 144.201255 
L 197.429635 141.709921 
L 201.991359 131.025162 
L 206.553084 135.634796 
L 211.114809 119.940725 
L 215.676533 119.381174 
L 220.238258 117.289519 
L 224.799983 119.660949 
L 229.361707 116.88984 
L 233.923432 114.931411 
L 238.485157 109.842162 
L 243.046882 112.146979 
L 247.608606 105.685498 
L 252.170331 107.71054 
L 256.732056 104.446492 
L 261.29378 104.672977 
L 265.855505 100.423055 
L 270.41723 103.767038 
L 274.978954 100.089989 
L 279.540679 102.754517 
L 284.102404 99.730277 
L 288.664128 101.968481 
L 293.225853 99.104113 
L 297.787578 98.051625 
L 302.349303 99.343921 
L 306.911027 101.808609 
L 311.472752 101.808609 
L 316.034477 103.327391 
L 320.596201 97.465428 
L 325.157926 98.291432 
L 329.719651 100.942638 
L 334.281375 101.075864 
L 338.8431 98.384691 
L 343.404825 100.516313 
L 347.966549 94.574415 
L 352.528274 98.118238 
L 357.089999 97.918398 
L 361.651724 96.905877 
L 366.213448 95.880034 
L 370.775173 104.366557 
L 375.336898 98.491272 
L 379.898622 100.742798 
L 384.460347 98.238142 
L 389.022072 100.836057 
L 393.583796 101.209091 
L 398.145521 96.572811 
L 402.707246 97.931721 
L 407.26897 97.651945 
L 411.830695 97.718558 
L 416.39242 100.995928 
L 420.954145 97.838462 
L 425.515869 97.691913 
L 430.077594 98.864306 
L 434.639319 102.181643 
L 439.201043 100.316474 
L 443.762768 98.318077 
L 448.324493 97.705236 
L 452.886217 99.383889 
L 457.447942 100.116634 
L 462.009667 96.9192 
L 466.571391 101.169123 
L 471.133116 99.303953 
L 475.694841 96.506198 
L 480.256566 99.530438 
L 484.81829 95.999938 
L 489.380015 96.572811 
L 493.94174 98.997532 
L 498.503464 97.092394 
L 503.065189 97.185653 
L 507.626914 97.691913 
L 512.188638 99.130758 
L 516.750363 98.358045 
" clip-path="url(#pf9d6f790a6)" style="fill: none; stroke: #023eff; stroke-width: 2; stroke-linecap: round"/>
   </g>
   <g id="line2d_16">
    <path d="M 56.23 107.364151 
L 522.797024 107.364151 
" clip-path="url(#pf9d6f790a6)" style="fill: none; stroke-dasharray: 1.25,2.0625; stroke-dashoffset: 0; stroke: #000000; stroke-opacity: 0.6; stroke-width: 1.25"/>
   </g>
   <g id="patch_3">
    <path d="M 56.23 328.52 
L 56.23 46.08 
" style="fill: none; stroke: #ffffff; stroke-width: 0.8; stroke-linejoin: miter; stroke-linecap: square"/>
   </g>
   <g id="patch_4">
    <path d="M 522.797024 328.52 
L 522.797024 46.08 
" style="fill: none; stroke: #ffffff; stroke-width: 0.8; stroke-linejoin: miter; stroke-linecap: square"/>
   </g>
   <g id="patch_5">
    <path d="M 56.23 328.52 
L 522.797024 328.52 
" style="fill: none; stroke: #ffffff; stroke-width: 0.8; stroke-linejoin: miter; stroke-linecap: square"/>
   </g>
   <g id="patch_6">
    <path d="M 56.23 46.08 
L 522.797024 46.08 
" style="fill: none; stroke: #ffffff; stroke-width: 0.8; stroke-linejoin: miter; stroke-linecap: square"/>
   </g>
  </g>
  <g id="text_9">
   <!-- CMU-Net | AM -->
   <g style="fill: #262626" transform="translate(176.641875 25.54125) scale(0.24 -0.24)">
    <defs>
     <path id="DejaVuSans-Bold-43" d="M 4288 256 
Q 3956 84 3597 -3 
Q 3238 -91 2847 -91 
Q 1681 -91 1000 561 
Q 319 1213 319 2328 
Q 319 3447 1000 4098 
Q 1681 4750 2847 4750 
Q 3238 4750 3597 4662 
Q 3956 4575 4288 4403 
L 4288 3438 
Q 3953 3666 3628 3772 
Q 3303 3878 2944 3878 
Q 2300 3878 1931 3465 
Q 1563 3053 1563 2328 
Q 1563 1606 1931 1193 
Q 2300 781 2944 781 
Q 3303 781 3628 887 
Q 3953 994 4288 1222 
L 4288 256 
z
" transform="scale(0.015625)"/>
     <path id="DejaVuSans-Bold-4d" d="M 588 4666 
L 2119 4666 
L 3181 2169 
L 4250 4666 
L 5778 4666 
L 5778 0 
L 4641 0 
L 4641 3413 
L 3566 897 
L 2803 897 
L 1728 3413 
L 1728 0 
L 588 0 
L 588 4666 
z
" transform="scale(0.015625)"/>
     <path id="DejaVuSans-Bold-55" d="M 588 4666 
L 1791 4666 
L 1791 1869 
Q 1791 1291 1980 1042 
Q 2169 794 2597 794 
Q 3028 794 3217 1042 
Q 3406 1291 3406 1869 
L 3406 4666 
L 4609 4666 
L 4609 1869 
Q 4609 878 4112 393 
Q 3616 -91 2597 -91 
Q 1581 -91 1084 393 
Q 588 878 588 1869 
L 588 4666 
z
" transform="scale(0.015625)"/>
     <path id="DejaVuSans-Bold-2d" d="M 347 2297 
L 2309 2297 
L 2309 1388 
L 347 1388 
L 347 2297 
z
" transform="scale(0.015625)"/>
     <path id="DejaVuSans-Bold-4e" d="M 588 4666 
L 1931 4666 
L 3628 1466 
L 3628 4666 
L 4769 4666 
L 4769 0 
L 3425 0 
L 1728 3200 
L 1728 0 
L 588 0 
L 588 4666 
z
" transform="scale(0.015625)"/>
     <path id="DejaVuSans-Bold-65" d="M 4031 1759 
L 4031 1441 
L 1416 1441 
Q 1456 1047 1700 850 
Q 1944 653 2381 653 
Q 2734 653 3104 758 
Q 3475 863 3866 1075 
L 3866 213 
Q 3469 63 3072 -14 
Q 2675 -91 2278 -91 
Q 1328 -91 801 392 
Q 275 875 275 1747 
Q 275 2603 792 3093 
Q 1309 3584 2216 3584 
Q 3041 3584 3536 3087 
Q 4031 2591 4031 1759 
z
M 2881 2131 
Q 2881 2450 2695 2645 
Q 2509 2841 2209 2841 
Q 1884 2841 1681 2658 
Q 1478 2475 1428 2131 
L 2881 2131 
z
" transform="scale(0.015625)"/>
     <path id="DejaVuSans-Bold-74" d="M 1759 4494 
L 1759 3500 
L 2913 3500 
L 2913 2700 
L 1759 2700 
L 1759 1216 
Q 1759 972 1856 886 
Q 1953 800 2241 800 
L 2816 800 
L 2816 0 
L 1856 0 
Q 1194 0 917 276 
Q 641 553 641 1216 
L 641 2700 
L 84 2700 
L 84 3500 
L 641 3500 
L 641 4494 
L 1759 4494 
z
" transform="scale(0.015625)"/>
     <path id="DejaVuSans-Bold-20" transform="scale(0.015625)"/>
     <path id="DejaVuSans-Bold-7c" d="M 1522 4891 
L 1522 -1509 
L 813 -1509 
L 813 4891 
L 1522 4891 
z
" transform="scale(0.015625)"/>
     <path id="DejaVuSans-Bold-41" d="M 3419 850 
L 1538 850 
L 1241 0 
L 31 0 
L 1759 4666 
L 3194 4666 
L 4922 0 
L 3713 0 
L 3419 850 
z
M 1838 1716 
L 3116 1716 
L 2478 3572 
L 1838 1716 
z
" transform="scale(0.015625)"/>
    </defs>
    <use xlink:href="#DejaVuSans-Bold-43"/>
    <use xlink:href="#DejaVuSans-Bold-4d" transform="translate(73.388672 0)"/>
    <use xlink:href="#DejaVuSans-Bold-55" transform="translate(172.900391 0)"/>
    <use xlink:href="#DejaVuSans-Bold-2d" transform="translate(254.101562 0)"/>
    <use xlink:href="#DejaVuSans-Bold-4e" transform="translate(295.605469 0)"/>
    <use xlink:href="#DejaVuSans-Bold-65" transform="translate(379.296875 0)"/>
    <use xlink:href="#DejaVuSans-Bold-74" transform="translate(447.119141 0)"/>
    <use xlink:href="#DejaVuSans-Bold-20" transform="translate(494.921875 0)"/>
    <use xlink:href="#DejaVuSans-Bold-7c" transform="translate(529.736328 0)"/>
    <use xlink:href="#DejaVuSans-Bold-20" transform="translate(566.259766 0)"/>
    <use xlink:href="#DejaVuSans-Bold-41" transform="translate(601.074219 0)"/>
    <use xlink:href="#DejaVuSans-Bold-4d" transform="translate(678.466797 0)"/>
   </g>
  </g>
 </g>
 <defs>
  <clipPath id="pf9d6f790a6">
   <rect x="56.23" y="46.08" width="466.567024" height="282.44"/>
  </clipPath>
 </defs>
</svg>
