<?xml version="1.0" encoding="utf-8" standalone="no"?>
<!DOCTYPE svg PUBLIC "-//W3C//DTD SVG 1.1//EN"
  "http://www.w3.org/Graphics/SVG/1.1/DTD/svg11.dtd">
<svg xmlns:xlink="http://www.w3.org/1999/xlink" width="540pt" height="360pt" viewBox="0 0 540 360" xmlns="http://www.w3.org/2000/svg" version="1.1">
 <metadata>
  <rdf:RDF xmlns:dc="http://purl.org/dc/elements/1.1/" xmlns:cc="http://creativecommons.org/ns#" xmlns:rdf="http://www.w3.org/1999/02/22-rdf-syntax-ns#">
   <cc:Work>
    <dc:type rdf:resource="http://purl.org/dc/dcmitype/StillImage"/>
    <dc:date>2025-08-04T02:53:27.322688</dc:date>
    <dc:format>image/svg+xml</dc:format>
    <dc:creator>
     <cc:Agent>
      <dc:title>Matplotlib v3.10.0, https://matplotlib.org/</dc:title>
     </cc:Agent>
    </dc:creator>
   </cc:Work>
  </rdf:RDF>
 </metadata>
 <defs>
  <style type="text/css">*{stroke-linejoin: round; stroke-linecap: butt}</style>
 </defs>
 <g id="figure_1">
  <g id="patch_1">
   <path d="M 0 360 
L 540 360 
L 540 0 
L 0 0 
z
" style="fill: #ffffff"/>
  </g>
  <g id="axes_1">
   <g id="patch_2">
    <path d="M 56.23 328.52 
L 522.797024 328.52 
L 522.797024 46.08 
L 56.23 46.08 
z
" style="fill: #eaeaf2"/>
   </g>
   <g id="matplotlib.axis_1">
    <g id="xtick_1">
     <g id="line2d_1">
      <path d="M 65.139619 328.52 
L 65.139619 46.08 
" clip-path="url(#p6ab89e533c)" style="fill: none; stroke: #ffffff; stroke-width: 0.8; stroke-linecap: round"/>
     </g>
     <g id="text_1">
      <!-- 0 -->
      <g style="fill: #262626" transform="translate(60.685869 346.157812) scale(0.14 -0.14)">
       <defs>
        <path id="DejaVuSans-30" d="M 2034 4250 
Q 1547 4250 1301 3770 
Q 1056 3291 1056 2328 
Q 1056 1369 1301 889 
Q 1547 409 2034 409 
Q 2525 409 2770 889 
Q 3016 1369 3016 2328 
Q 3016 3291 2770 3770 
Q 2525 4250 2034 4250 
z
M 2034 4750 
Q 2819 4750 3233 4129 
Q 3647 3509 3647 2328 
Q 3647 1150 3233 529 
Q 2819 -91 2034 -91 
Q 1250 -91 836 529 
Q 422 1150 422 2328 
Q 422 3509 836 4129 
Q 1250 4750 2034 4750 
z
" transform="scale(0.015625)"/>
       </defs>
       <use xlink:href="#DejaVuSans-30"/>
      </g>
     </g>
    </g>
    <g id="xtick_2">
     <g id="line2d_2">
      <path d="M 510.620546 328.52 
L 510.620546 46.08 
" clip-path="url(#p6ab89e533c)" style="fill: none; stroke: #ffffff; stroke-width: 0.8; stroke-linecap: round"/>
     </g>
     <g id="text_2">
      <!-- 600k -->
      <g style="fill: #262626" transform="translate(493.205858 346.157812) scale(0.14 -0.14)">
       <defs>
        <path id="DejaVuSans-36" d="M 2113 2584 
Q 1688 2584 1439 2293 
Q 1191 2003 1191 1497 
Q 1191 994 1439 701 
Q 1688 409 2113 409 
Q 2538 409 2786 701 
Q 3034 994 3034 1497 
Q 3034 2003 2786 2293 
Q 2538 2584 2113 2584 
z
M 3366 4563 
L 3366 3988 
Q 3128 4100 2886 4159 
Q 2644 4219 2406 4219 
Q 1781 4219 1451 3797 
Q 1122 3375 1075 2522 
Q 1259 2794 1537 2939 
Q 1816 3084 2150 3084 
Q 2853 3084 3261 2657 
Q 3669 2231 3669 1497 
Q 3669 778 3244 343 
Q 2819 -91 2113 -91 
Q 1303 -91 875 529 
Q 447 1150 447 2328 
Q 447 3434 972 4092 
Q 1497 4750 2381 4750 
Q 2619 4750 2861 4703 
Q 3103 4656 3366 4563 
z
" transform="scale(0.015625)"/>
        <path id="DejaVuSans-6b" d="M 581 4863 
L 1159 4863 
L 1159 1991 
L 2875 3500 
L 3609 3500 
L 1753 1863 
L 3688 0 
L 2938 0 
L 1159 1709 
L 1159 0 
L 581 0 
L 581 4863 
z
" transform="scale(0.015625)"/>
       </defs>
       <use xlink:href="#DejaVuSans-36"/>
       <use xlink:href="#DejaVuSans-30" transform="translate(63.623047 0)"/>
       <use xlink:href="#DejaVuSans-30" transform="translate(127.246094 0)"/>
       <use xlink:href="#DejaVuSans-6b" transform="translate(190.869141 0)"/>
      </g>
     </g>
    </g>
   </g>
   <g id="matplotlib.axis_2">
    <g id="ytick_1">
     <g id="line2d_3">
      <path d="M 56.23 320.526415 
L 522.797024 320.526415 
" clip-path="url(#p6ab89e533c)" style="fill: none; stroke: #ffffff; stroke-width: 0.8; stroke-linecap: round"/>
     </g>
     <g id="text_3">
      <!-- −500 -->
      <g style="fill: #262626" transform="translate(10.775937 325.845321) scale(0.14 -0.14)">
       <defs>
        <path id="DejaVuSans-2212" d="M 678 2272 
L 4684 2272 
L 4684 1741 
L 678 1741 
L 678 2272 
z
" transform="scale(0.015625)"/>
        <path id="DejaVuSans-35" d="M 691 4666 
L 3169 4666 
L 3169 4134 
L 1269 4134 
L 1269 2991 
Q 1406 3038 1543 3061 
Q 1681 3084 1819 3084 
Q 2600 3084 3056 2656 
Q 3513 2228 3513 1497 
Q 3513 744 3044 326 
Q 2575 -91 1722 -91 
Q 1428 -91 1123 -41 
Q 819 9 494 109 
L 494 744 
Q 775 591 1075 516 
Q 1375 441 1709 441 
Q 2250 441 2565 725 
Q 2881 1009 2881 1497 
Q 2881 1984 2565 2268 
Q 2250 2553 1709 2553 
Q 1456 2553 1204 2497 
Q 953 2441 691 2322 
L 691 4666 
z
" transform="scale(0.015625)"/>
       </defs>
       <use xlink:href="#DejaVuSans-2212"/>
       <use xlink:href="#DejaVuSans-35" transform="translate(83.789062 0)"/>
       <use xlink:href="#DejaVuSans-30" transform="translate(147.412109 0)"/>
       <use xlink:href="#DejaVuSans-30" transform="translate(211.035156 0)"/>
      </g>
     </g>
    </g>
    <g id="ytick_2">
     <g id="line2d_4">
      <path d="M 56.23 267.235849 
L 522.797024 267.235849 
" clip-path="url(#p6ab89e533c)" style="fill: none; stroke: #ffffff; stroke-width: 0.8; stroke-linecap: round"/>
     </g>
     <g id="text_4">
      <!-- −400 -->
      <g style="fill: #262626" transform="translate(10.775937 272.554755) scale(0.14 -0.14)">
       <defs>
        <path id="DejaVuSans-34" d="M 2419 4116 
L 825 1625 
L 2419 1625 
L 2419 4116 
z
M 2253 4666 
L 3047 4666 
L 3047 1625 
L 3713 1625 
L 3713 1100 
L 3047 1100 
L 3047 0 
L 2419 0 
L 2419 1100 
L 313 1100 
L 313 1709 
L 2253 4666 
z
" transform="scale(0.015625)"/>
       </defs>
       <use xlink:href="#DejaVuSans-2212"/>
       <use xlink:href="#DejaVuSans-34" transform="translate(83.789062 0)"/>
       <use xlink:href="#DejaVuSans-30" transform="translate(147.412109 0)"/>
       <use xlink:href="#DejaVuSans-30" transform="translate(211.035156 0)"/>
      </g>
     </g>
    </g>
    <g id="ytick_3">
     <g id="line2d_5">
      <path d="M 56.23 213.945283 
L 522.797024 213.945283 
" clip-path="url(#p6ab89e533c)" style="fill: none; stroke: #ffffff; stroke-width: 0.8; stroke-linecap: round"/>
     </g>
     <g id="text_5">
      <!-- −300 -->
      <g style="fill: #262626" transform="translate(10.775937 219.264189) scale(0.14 -0.14)">
       <defs>
        <path id="DejaVuSans-33" d="M 2597 2516 
Q 3050 2419 3304 2112 
Q 3559 1806 3559 1356 
Q 3559 666 3084 287 
Q 2609 -91 1734 -91 
Q 1441 -91 1130 -33 
Q 819 25 488 141 
L 488 750 
Q 750 597 1062 519 
Q 1375 441 1716 441 
Q 2309 441 2620 675 
Q 2931 909 2931 1356 
Q 2931 1769 2642 2001 
Q 2353 2234 1838 2234 
L 1294 2234 
L 1294 2753 
L 1863 2753 
Q 2328 2753 2575 2939 
Q 2822 3125 2822 3475 
Q 2822 3834 2567 4026 
Q 2313 4219 1838 4219 
Q 1578 4219 1281 4162 
Q 984 4106 628 3988 
L 628 4550 
Q 988 4650 1302 4700 
Q 1616 4750 1894 4750 
Q 2613 4750 3031 4423 
Q 3450 4097 3450 3541 
Q 3450 3153 3228 2886 
Q 3006 2619 2597 2516 
z
" transform="scale(0.015625)"/>
       </defs>
       <use xlink:href="#DejaVuSans-2212"/>
       <use xlink:href="#DejaVuSans-33" transform="translate(83.789062 0)"/>
       <use xlink:href="#DejaVuSans-30" transform="translate(147.412109 0)"/>
       <use xlink:href="#DejaVuSans-30" transform="translate(211.035156 0)"/>
      </g>
     </g>
    </g>
    <g id="ytick_4">
     <g id="line2d_6">
      <path d="M 56.23 160.654717 
L 522.797024 160.654717 
" clip-path="url(#p6ab89e533c)" style="fill: none; stroke: #ffffff; stroke-width: 0.8; stroke-linecap: round"/>
     </g>
     <g id="text_6">
      <!-- −200 -->
      <g style="fill: #262626" transform="translate(10.775937 165.973623) scale(0.14 -0.14)">
       <defs>
        <path id="DejaVuSans-32" d="M 1228 531 
L 3431 531 
L 3431 0 
L 469 0 
L 469 531 
Q 828 903 1448 1529 
Q 2069 2156 2228 2338 
Q 2531 2678 2651 2914 
Q 2772 3150 2772 3378 
Q 2772 3750 2511 3984 
Q 2250 4219 1831 4219 
Q 1534 4219 1204 4116 
Q 875 4013 500 3803 
L 500 4441 
Q 881 4594 1212 4672 
Q 1544 4750 1819 4750 
Q 2544 4750 2975 4387 
Q 3406 4025 3406 3419 
Q 3406 3131 3298 2873 
Q 3191 2616 2906 2266 
Q 2828 2175 2409 1742 
Q 1991 1309 1228 531 
z
" transform="scale(0.015625)"/>
       </defs>
       <use xlink:href="#DejaVuSans-2212"/>
       <use xlink:href="#DejaVuSans-32" transform="translate(83.789062 0)"/>
       <use xlink:href="#DejaVuSans-30" transform="translate(147.412109 0)"/>
       <use xlink:href="#DejaVuSans-30" transform="translate(211.035156 0)"/>
      </g>
     </g>
    </g>
    <g id="ytick_5">
     <g id="line2d_7">
      <path d="M 56.23 107.364151 
L 522.797024 107.364151 
" clip-path="url(#p6ab89e533c)" style="fill: none; stroke: #ffffff; stroke-width: 0.8; stroke-linecap: round"/>
     </g>
     <g id="text_7">
      <!-- −100 -->
      <g style="fill: #262626" transform="translate(10.775937 112.683057) scale(0.14 -0.14)">
       <defs>
        <path id="DejaVuSans-31" d="M 794 531 
L 1825 531 
L 1825 4091 
L 703 3866 
L 703 4441 
L 1819 4666 
L 2450 4666 
L 2450 531 
L 3481 531 
L 3481 0 
L 794 0 
L 794 531 
z
" transform="scale(0.015625)"/>
       </defs>
       <use xlink:href="#DejaVuSans-2212"/>
       <use xlink:href="#DejaVuSans-31" transform="translate(83.789062 0)"/>
       <use xlink:href="#DejaVuSans-30" transform="translate(147.412109 0)"/>
       <use xlink:href="#DejaVuSans-30" transform="translate(211.035156 0)"/>
      </g>
     </g>
    </g>
    <g id="ytick_6">
     <g id="line2d_8">
      <path d="M 56.23 54.073585 
L 522.797024 54.073585 
" clip-path="url(#p6ab89e533c)" style="fill: none; stroke: #ffffff; stroke-width: 0.8; stroke-linecap: round"/>
     </g>
     <g id="text_8">
      <!-- 0 -->
      <g style="fill: #262626" transform="translate(40.3225 59.392491) scale(0.14 -0.14)">
       <use xlink:href="#DejaVuSans-30"/>
      </g>
     </g>
    </g>
   </g>
   <g id="FillBetweenPolyCollection_1">
    <path d="M 65.139619 281.285118 
L 65.139619 329.685187 
L 69.701343 330.992307 
L 74.263068 325.291844 
L 78.824793 335.36689 
L 83.386517 339.532484 
L 87.948242 316.809195 
L 92.509967 317.873615 
L 97.071691 307.524439 
L 101.633416 312.693805 
L 106.195141 306.573414 
L 110.756865 303.272092 
L 115.31859 301.597788 
L 119.880315 299.567649 
L 124.44204 298.424027 
L 129.003764 299.556051 
L 133.565489 309.044 
L 138.127214 309.903059 
L 142.688938 309.206454 
L 147.250663 307.418575 
L 151.812388 297.039389 
L 156.374112 296.56254 
L 160.935837 296.490858 
L 165.497562 296.182627 
L 170.059286 296.016161 
L 174.621011 296.539276 
L 179.182736 289.052238 
L 183.744461 284.624179 
L 188.306185 292.653532 
L 192.86791 285.389812 
L 197.429635 279.844134 
L 201.991359 261.117842 
L 206.553084 252.292787 
L 211.114809 248.515665 
L 215.676533 239.598461 
L 220.238258 235.89009 
L 224.799983 235.485926 
L 229.361707 235.545132 
L 233.923432 233.540452 
L 238.485157 232.839836 
L 243.046882 232.303099 
L 247.608606 231.681178 
L 252.170331 233.188918 
L 256.732056 232.632149 
L 261.29378 231.066506 
L 265.855505 233.154788 
L 270.41723 231.151617 
L 274.978954 233.446456 
L 279.540679 231.658637 
L 284.102404 232.603763 
L 288.664128 232.97977 
L 293.225853 231.661716 
L 297.787578 230.3306 
L 302.349303 233.048 
L 306.911027 231.016598 
L 311.472752 230.70627 
L 316.034477 230.548774 
L 320.596201 231.04384 
L 325.157926 231.721819 
L 329.719651 231.28557 
L 334.281375 231.499001 
L 338.8431 231.546202 
L 343.404825 233.055935 
L 347.966549 231.178376 
L 352.528274 233.157009 
L 357.089999 230.513983 
L 361.651724 231.737301 
L 366.213448 231.732035 
L 370.775173 232.30735 
L 375.336898 231.467384 
L 379.898622 230.705125 
L 384.460347 230.42934 
L 389.022072 232.216174 
L 393.583796 231.447586 
L 398.145521 231.450174 
L 402.707246 231.200056 
L 407.26897 232.236741 
L 411.830695 233.10404 
L 416.39242 231.787068 
L 420.954145 231.770906 
L 425.515869 234.299811 
L 430.077594 230.440523 
L 434.639319 232.308572 
L 439.201043 230.431935 
L 443.762768 230.500967 
L 448.324493 230.159485 
L 452.886217 231.318911 
L 457.447942 230.881992 
L 462.009667 231.437085 
L 466.571391 230.633156 
L 471.133116 231.842327 
L 475.694841 231.750941 
L 480.256566 231.449806 
L 484.81829 231.250247 
L 489.380015 231.156682 
L 493.94174 230.468967 
L 498.503464 232.262562 
L 503.065189 230.190205 
L 507.626914 232.730182 
L 512.188638 231.160321 
L 516.750363 230.702088 
L 516.750363 50.799293 
L 516.750363 50.799293 
L 512.188638 52.419393 
L 507.626914 55.93878 
L 503.065189 49.499297 
L 498.503464 55.633688 
L 493.94174 50.312991 
L 489.380015 52.289805 
L 484.81829 52.64921 
L 480.256566 53.275654 
L 475.694841 54.120266 
L 471.133116 53.282812 
L 466.571391 50.681708 
L 462.009667 53.128504 
L 457.447942 51.498684 
L 452.886217 52.820353 
L 448.324493 49.343499 
L 443.762768 50.387573 
L 439.201043 50.136861 
L 434.639319 55.694258 
L 430.077594 50.208209 
L 425.515869 59.298529 
L 420.954145 52.874619 
L 416.39242 54.164075 
L 411.830695 56.737315 
L 407.26897 55.339765 
L 402.707246 52.539529 
L 398.145521 52.928898 
L 393.583796 53.091358 
L 389.022072 54.587618 
L 384.460347 50.166102 
L 379.898622 51.009419 
L 375.336898 53.204785 
L 370.775173 55.375737 
L 366.213448 53.846074 
L 361.651724 54.080616 
L 357.089999 50.481138 
L 352.528274 58.256417 
L 347.966549 52.427983 
L 343.404825 57.531488 
L 338.8431 53.552293 
L 334.281375 53.412976 
L 329.719651 52.507305 
L 325.157926 53.483257 
L 320.596201 52.056258 
L 316.034477 50.552928 
L 311.472752 51.008273 
L 306.911027 51.976919 
L 302.349303 57.912457 
L 297.787578 49.891808 
L 293.225853 53.703231 
L 288.664128 57.634298 
L 284.102404 55.745456 
L 279.540679 53.892827 
L 274.978954 58.446586 
L 270.41723 52.401451 
L 265.855505 58.231993 
L 261.29378 51.980302 
L 256.732056 56.623009 
L 252.170331 58.171218 
L 247.608606 53.950222 
L 243.046882 55.753022 
L 238.485157 57.214681 
L 233.923432 59.098658 
L 229.361707 64.36814 
L 224.799983 61.283202 
L 220.238258 61.758332 
L 215.676533 67.136003 
L 211.114809 71.94112 
L 206.553084 75.118416 
L 201.991359 78.257094 
L 197.429635 78.848632 
L 192.86791 77.646135 
L 188.306185 77.443416 
L 183.744461 84.140504 
L 179.182736 90.184041 
L 174.621011 82.963456 
L 170.059286 77.864416 
L 165.497562 79.083506 
L 160.935837 82.105934 
L 156.374112 82.380641 
L 151.812388 85.820649 
L 147.250663 114.743256 
L 142.688938 111.46324 
L 138.127214 115.909175 
L 133.565489 116.075457 
L 129.003764 104.833376 
L 124.44204 96.373097 
L 119.880315 104.63526 
L 115.31859 111.771099 
L 110.756865 120.941425 
L 106.195141 126.379755 
L 101.633416 139.790357 
L 97.071691 139.044471 
L 92.509967 155.900128 
L 87.948242 163.066318 
L 83.386517 206.76972 
L 78.824793 229.507076 
L 74.263068 267.21328 
L 69.701343 252.400131 
L 65.139619 281.285118 
z
" clip-path="url(#p6ab89e533c)" style="fill: #023eff; fill-opacity: 0.1"/>
   </g>
   <g id="line2d_9">
    <path d="M 65.139619 307.736679 
L 69.701343 279.958972 
L 74.263068 275.029594 
L 78.824793 281.757528 
L 83.386517 283.489472 
L 87.948242 183.836113 
L 92.509967 172.711708 
L 97.071691 173.844132 
L 101.633416 151.328868 
L 106.195141 152.927585 
L 110.756865 148.198047 
L 115.31859 157.856962 
L 119.880315 137.073642 
L 124.44204 131.944425 
L 129.003764 126.548755 
L 133.565489 211.880274 
L 138.127214 216.143519 
L 142.688938 211.613821 
L 147.250663 203.620236 
L 151.812388 117.222906 
L 156.374112 108.296736 
L 160.935837 98.904274 
L 165.497562 104.566396 
L 170.059286 97.838462 
L 174.621011 103.767038 
L 179.182736 103.567198 
L 183.744461 99.303953 
L 188.306185 96.039906 
L 192.86791 99.503792 
L 197.429635 97.17233 
L 201.991359 99.303953 
L 206.553084 100.436377 
L 211.114809 97.238943 
L 215.676533 98.637821 
L 220.238258 97.572009 
L 224.799983 93.84167 
L 229.361707 97.438783 
L 233.923432 103.833651 
L 238.485157 99.637019 
L 243.046882 96.173132 
L 247.608606 96.306358 
L 252.170331 100.103311 
L 256.732056 96.439585 
L 261.29378 93.708443 
L 265.855505 103.300745 
L 270.41723 97.37217 
L 274.978954 96.106519 
L 279.540679 98.704434 
L 284.102404 112.693208 
L 288.664128 99.836858 
L 293.225853 96.772651 
L 297.787578 93.108925 
L 302.349303 97.37217 
L 306.911027 96.506198 
L 311.472752 98.171528 
L 316.034477 97.638623 
L 320.596201 95.30716 
L 325.157926 107.697217 
L 329.719651 103.433972 
L 334.281375 99.836858 
L 338.8431 99.170726 
L 343.404825 96.439585 
L 347.966549 95.30716 
L 352.528274 102.834453 
L 357.089999 94.507802 
L 361.651724 97.638623 
L 366.213448 98.83766 
L 370.775173 101.368962 
L 375.336898 98.171528 
L 379.898622 93.974896 
L 384.460347 97.971689 
L 389.022072 96.372972 
L 393.583796 97.305557 
L 398.145521 105.165915 
L 402.707246 96.239745 
L 407.26897 97.105717 
L 411.830695 99.770245 
L 416.39242 95.30716 
L 420.954145 112.893047 
L 425.515869 94.840868 
L 430.077594 96.905877 
L 434.639319 99.303953 
L 439.201043 99.370566 
L 443.762768 97.905075 
L 448.324493 97.572009 
L 452.886217 96.439585 
L 457.447942 97.438783 
L 462.009667 95.773453 
L 466.571391 96.639425 
L 471.133116 111.960462 
L 475.694841 95.906679 
L 480.256566 96.506198 
L 484.81829 98.704434 
L 489.380015 97.638623 
L 493.94174 96.706038 
L 498.503464 96.106519 
L 503.065189 95.173934 
L 507.626914 114.158698 
L 512.188638 96.306358 
L 516.750363 96.506198 
" clip-path="url(#p6ab89e533c)" style="fill: none; stroke: #1ac938; stroke-opacity: 0.27; stroke-width: 1.25; stroke-linecap: round"/>
   </g>
   <g id="line2d_10">
    <path d="M 65.139619 320.526415 
L 69.701343 318.061726 
L 74.263068 320.526415 
L 78.824793 320.526415 
L 83.386517 311.533632 
L 87.948242 314.264774 
L 92.509967 320.526415 
L 97.071691 320.526415 
L 101.633416 320.526415 
L 106.195141 320.526415 
L 110.756865 320.526415 
L 115.31859 320.526415 
L 119.880315 320.526415 
L 124.44204 320.526415 
L 129.003764 320.526415 
L 133.565489 320.526415 
L 138.127214 320.526415 
L 142.688938 320.526415 
L 147.250663 320.526415 
L 151.812388 320.526415 
L 156.374112 320.526415 
L 160.935837 320.526415 
L 165.497562 320.526415 
L 170.059286 320.526415 
L 174.621011 320.526415 
L 179.182736 320.526415 
L 183.744461 320.526415 
L 188.306185 320.526415 
L 192.86791 320.526415 
L 197.429635 320.526415 
L 201.991359 320.526415 
L 206.553084 320.526415 
L 211.114809 320.526415 
L 215.676533 320.526415 
L 220.238258 320.526415 
L 224.799983 320.526415 
L 229.361707 320.526415 
L 233.923432 320.526415 
L 238.485157 320.526415 
L 243.046882 320.526415 
L 247.608606 320.526415 
L 252.170331 320.526415 
L 256.732056 320.526415 
L 261.29378 320.526415 
L 265.855505 320.526415 
L 270.41723 320.526415 
L 274.978954 320.526415 
L 279.540679 320.526415 
L 284.102404 320.526415 
L 288.664128 320.526415 
L 293.225853 320.526415 
L 297.787578 320.526415 
L 302.349303 320.526415 
L 306.911027 320.526415 
L 311.472752 320.526415 
L 316.034477 320.526415 
L 320.596201 320.526415 
L 325.157926 320.526415 
L 329.719651 320.526415 
L 334.281375 320.526415 
L 338.8431 320.526415 
L 343.404825 320.526415 
L 347.966549 320.526415 
L 352.528274 320.526415 
L 357.089999 320.526415 
L 361.651724 320.526415 
L 366.213448 320.526415 
L 370.775173 320.526415 
L 375.336898 320.526415 
L 379.898622 320.526415 
L 384.460347 320.526415 
L 389.022072 320.526415 
L 393.583796 320.526415 
L 398.145521 320.526415 
L 402.707246 320.526415 
L 407.26897 320.526415 
L 411.830695 320.526415 
L 416.39242 320.526415 
L 420.954145 320.526415 
L 425.515869 320.526415 
L 430.077594 320.526415 
L 434.639319 320.526415 
L 439.201043 320.526415 
L 443.762768 320.526415 
L 448.324493 320.526415 
L 452.886217 320.526415 
L 457.447942 320.526415 
L 462.009667 320.526415 
L 466.571391 320.526415 
L 471.133116 320.526415 
L 475.694841 320.526415 
L 480.256566 320.526415 
L 484.81829 320.526415 
L 489.380015 320.526415 
L 493.94174 320.526415 
L 498.503464 320.526415 
L 503.065189 320.526415 
L 507.626914 320.526415 
L 512.188638 320.526415 
L 516.750363 320.526415 
" clip-path="url(#p6ab89e533c)" style="fill: none; stroke: #1ac938; stroke-opacity: 0.27; stroke-width: 1.25; stroke-linecap: round"/>
   </g>
   <g id="line2d_11">
    <path d="M 65.139619 320.526415 
L 69.701343 320.526415 
L 74.263068 315.863491 
L 78.824793 308.935717 
L 83.386517 307.53684 
L 87.948242 259.442104 
L 92.509967 253.779981 
L 97.071691 193.228575 
L 101.633416 230.731811 
L 106.195141 191.363406 
L 110.756865 169.314434 
L 115.31859 136.540736 
L 119.880315 131.344906 
L 124.44204 113.35934 
L 129.003764 140.470915 
L 133.565489 110.628198 
L 138.127214 104.366557 
L 142.688938 103.034292 
L 147.250663 109.895453 
L 151.812388 98.238142 
L 156.374112 103.100906 
L 160.935837 99.0375 
L 165.497562 95.840066 
L 170.059286 96.572811 
L 174.621011 99.836858 
L 179.182736 125.41633 
L 183.744461 101.835255 
L 188.306185 96.039906 
L 192.86791 94.307962 
L 197.429635 96.639425 
L 201.991359 98.304755 
L 206.553084 96.372972 
L 211.114809 96.905877 
L 215.676533 97.638623 
L 220.238258 95.840066 
L 224.799983 101.435575 
L 229.361707 106.231726 
L 233.923432 95.507 
L 238.485157 96.039906 
L 243.046882 101.635415 
L 247.608606 97.771849 
L 252.170331 99.437179 
L 256.732056 105.299142 
L 261.29378 96.106519 
L 265.855505 97.305557 
L 270.41723 96.905877 
L 274.978954 99.570406 
L 279.540679 96.306358 
L 284.102404 93.175538 
L 288.664128 106.897858 
L 293.225853 94.374575 
L 297.787578 97.238943 
L 302.349303 103.700425 
L 306.911027 95.70684 
L 311.472752 93.308764 
L 316.034477 93.441991 
L 320.596201 97.438783 
L 325.157926 97.305557 
L 329.719651 92.043113 
L 334.281375 96.306358 
L 338.8431 99.437179 
L 343.404825 108.896255 
L 347.966549 97.838462 
L 352.528274 104.633009 
L 357.089999 95.240547 
L 361.651724 97.17233 
L 366.213448 93.64183 
L 370.775173 92.442792 
L 375.336898 93.242151 
L 379.898622 95.30716 
L 384.460347 92.775858 
L 389.022072 94.374575 
L 393.583796 103.034292 
L 398.145521 93.108925 
L 402.707246 97.039104 
L 407.26897 99.0375 
L 411.830695 115.824028 
L 416.39242 97.705236 
L 420.954145 92.642632 
L 425.515869 97.039104 
L 430.077594 92.642632 
L 434.639319 103.767038 
L 439.201043 93.775057 
L 443.762768 93.575217 
L 448.324493 95.507 
L 452.886217 97.039104 
L 457.447942 92.909085 
L 462.009667 99.437179 
L 466.571391 91.510208 
L 471.133116 94.840868 
L 475.694841 99.0375 
L 480.256566 97.771849 
L 484.81829 98.904274 
L 489.380015 93.908283 
L 493.94174 93.775057 
L 498.503464 100.969283 
L 503.065189 93.64183 
L 507.626914 97.905075 
L 512.188638 98.038302 
L 516.750363 92.775858 
" clip-path="url(#p6ab89e533c)" style="fill: none; stroke: #1ac938; stroke-opacity: 0.27; stroke-width: 1.25; stroke-linecap: round"/>
   </g>
   <g id="line2d_12">
    <path d="M 65.139619 258.10984 
L 69.701343 219.407566 
L 74.263068 249.316896 
L 78.824793 180.43884 
L 83.386517 142.669151 
L 87.948242 121.619377 
L 92.509967 116.88984 
L 97.071691 108.296736 
L 101.633416 108.096896 
L 106.195141 97.039104 
L 110.756865 101.968481 
L 115.31859 97.971689 
L 119.880315 101.035896 
L 124.44204 100.636217 
L 129.003764 102.901066 
L 133.565489 99.23734 
L 138.127214 102.967679 
L 142.688938 95.973292 
L 147.250663 100.836057 
L 151.812388 100.636217 
L 156.374112 94.907481 
L 160.935837 107.497377 
L 165.497562 96.706038 
L 170.059286 99.23734 
L 174.621011 104.100104 
L 179.182736 97.838462 
L 183.744461 107.497377 
L 188.306185 99.570406 
L 192.86791 97.039104 
L 197.429635 99.836858 
L 201.991359 98.238142 
L 206.553084 96.905877 
L 211.114809 94.641028 
L 215.676533 97.37217 
L 220.238258 96.239745 
L 224.799983 95.373774 
L 229.361707 105.698821 
L 233.923432 102.035094 
L 238.485157 106.031887 
L 243.046882 99.503792 
L 247.608606 100.303151 
L 252.170331 98.904274 
L 256.732056 102.568 
L 261.29378 95.440387 
L 265.855505 105.89866 
L 270.41723 96.972491 
L 274.978954 99.770245 
L 279.540679 98.437981 
L 284.102404 97.838462 
L 288.664128 96.772651 
L 293.225853 97.705236 
L 297.787578 93.84167 
L 302.349303 100.303151 
L 306.911027 96.239745 
L 311.472752 95.440387 
L 316.034477 95.973292 
L 320.596201 96.239745 
L 325.157926 95.906679 
L 329.719651 96.306358 
L 334.281375 98.371368 
L 338.8431 96.039906 
L 343.404825 95.573613 
L 347.966549 95.70684 
L 352.528274 96.972491 
L 357.089999 96.173132 
L 361.651724 102.101708 
L 366.213448 96.306358 
L 370.775173 106.831245 
L 375.336898 98.704434 
L 379.898622 95.773453 
L 384.460347 96.106519 
L 389.022072 93.775057 
L 393.583796 93.908283 
L 398.145521 96.372972 
L 402.707246 97.505396 
L 407.26897 95.70684 
L 411.830695 90.910689 
L 416.39242 103.100906 
L 420.954145 91.310368 
L 425.515869 123.684387 
L 430.077594 94.441189 
L 434.639319 95.173934 
L 439.201043 93.175538 
L 443.762768 93.64183 
L 448.324493 91.9765 
L 452.886217 95.30716 
L 457.447942 95.906679 
L 462.009667 94.507802 
L 466.571391 99.903472 
L 471.133116 91.110528 
L 475.694841 97.572009 
L 480.256566 99.503792 
L 484.81829 94.840868 
L 489.380015 95.507 
L 493.94174 93.908283 
L 498.503464 99.637019 
L 503.065189 96.106519 
L 507.626914 94.974094 
L 512.188638 97.505396 
L 516.750363 101.702028 
" clip-path="url(#p6ab89e533c)" style="fill: none; stroke: #1ac938; stroke-opacity: 0.27; stroke-width: 1.25; stroke-linecap: round"/>
   </g>
   <g id="line2d_13">
    <path d="M 65.139619 320.526415 
L 69.701343 320.526415 
L 74.263068 320.526415 
L 78.824793 320.526415 
L 83.386517 320.526415 
L 87.948242 320.526415 
L 92.509967 320.526415 
L 97.071691 320.526415 
L 101.633416 320.526415 
L 106.195141 320.526415 
L 110.756865 320.526415 
L 115.31859 320.526415 
L 119.880315 320.526415 
L 124.44204 320.526415 
L 129.003764 320.526415 
L 133.565489 320.526415 
L 138.127214 320.526415 
L 142.688938 320.526415 
L 147.250663 320.526415 
L 151.812388 320.526415 
L 156.374112 320.526415 
L 160.935837 320.526415 
L 165.497562 320.526415 
L 170.059286 320.526415 
L 174.621011 320.526415 
L 179.182736 300.742292 
L 183.744461 292.748708 
L 188.306185 313.065736 
L 192.86791 296.212594 
L 197.429635 282.556887 
L 201.991359 232.064075 
L 206.553084 204.286368 
L 211.114809 191.829698 
L 215.676533 152.661132 
L 220.238258 133.942821 
L 224.799983 130.745387 
L 229.361707 119.887434 
L 233.923432 109.695613 
L 238.485157 102.901066 
L 243.046882 102.301547 
L 247.608606 99.170726 
L 252.170331 109.42916 
L 256.732056 98.304755 
L 261.29378 101.835255 
L 265.855505 101.435575 
L 270.41723 97.105717 
L 274.978954 113.759019 
L 279.540679 99.903472 
L 284.102404 96.639425 
L 288.664128 102.501387 
L 293.225853 104.033491 
L 297.787578 95.840066 
L 302.349303 105.498981 
L 306.911027 98.504594 
L 311.472752 96.839264 
L 316.034477 95.173934 
L 320.596201 98.238142 
L 325.157926 91.576821 
L 329.719651 97.17233 
L 334.281375 97.238943 
L 338.8431 97.572009 
L 343.404825 105.032689 
L 347.966549 99.637019 
L 352.528274 103.567198 
L 357.089999 96.039906 
L 361.651724 97.105717 
L 366.213448 104.633009 
L 370.775173 98.038302 
L 375.336898 101.035896 
L 379.898622 98.704434 
L 384.460347 94.108123 
L 389.022072 111.960462 
L 393.583796 96.572811 
L 398.145521 95.773453 
L 402.707246 98.038302 
L 407.26897 106.564792 
L 411.830695 97.572009 
L 416.39242 98.238142 
L 420.954145 94.241349 
L 425.515869 97.905075 
L 430.077594 97.105717 
L 434.639319 101.235736 
L 439.201043 94.574415 
L 443.762768 96.572811 
L 448.324493 93.175538 
L 452.886217 101.035896 
L 457.447942 99.170726 
L 462.009667 101.169123 
L 466.571391 94.707642 
L 471.133116 94.374575 
L 475.694841 101.635415 
L 480.256566 97.505396 
L 484.81829 96.772651 
L 489.380015 101.035896 
L 493.94174 97.039104 
L 498.503464 102.501387 
L 503.065189 93.775057 
L 507.626914 94.108123 
L 512.188638 96.572811 
L 516.750363 92.242953 
" clip-path="url(#p6ab89e533c)" style="fill: none; stroke: #1ac938; stroke-opacity: 0.27; stroke-width: 1.25; stroke-linecap: round"/>
   </g>
   <g id="line2d_14">
    <path d="M 65.139619 54.073585 
L 69.701343 68.991644 
L 74.263068 78.556237 
L 78.824793 83.735813 
L 83.386517 87.350212 
L 87.948242 119.1588 
L 92.509967 127.34297 
L 97.071691 133.67921 
L 101.633416 161.203122 
L 106.195141 162.169056 
L 110.756865 170.684995 
L 115.31859 176.192613 
L 119.880315 170.739374 
L 124.44204 182.134436 
L 129.003764 196.844507 
L 133.565489 220.056015 
L 138.127214 231.277645 
L 142.688938 233.501186 
L 147.250663 233.922963 
L 151.812388 233.947323 
L 156.374112 244.17324 
L 160.935837 247.621204 
L 165.497562 256.084748 
L 170.059286 258.070537 
L 174.621011 263.484378 
L 179.182736 268.658542 
L 183.744461 268.883539 
L 188.306185 266.029971 
L 192.86791 269.267397 
L 197.429635 272.50516 
L 201.991359 280.73073 
L 206.553084 278.441475 
L 211.114809 278.299339 
L 215.676533 268.617359 
L 220.238258 267.456076 
L 224.799983 272.606477 
L 229.361707 274.269884 
L 233.923432 277.38758 
L 238.485157 276.45249 
L 243.046882 279.351305 
L 247.608606 278.067198 
L 252.170331 278.95405 
L 256.732056 280.745074 
L 261.29378 278.987328 
L 265.855505 282.484145 
L 270.41723 278.282489 
L 274.978954 285.462578 
L 279.540679 286.343933 
L 284.102404 291.097292 
L 288.664128 296.421716 
L 293.225853 294.221791 
L 297.787578 294.051648 
L 302.349303 295.585485 
L 306.911027 293.220821 
L 311.472752 293.348317 
L 316.034477 294.864545 
L 320.596201 295.538013 
L 325.157926 300.265478 
L 329.719651 304.72645 
L 334.281375 303.787694 
L 338.8431 296.787972 
L 343.404825 297.942535 
L 347.966549 297.057259 
L 352.528274 297.852578 
L 357.089999 295.721073 
L 361.651724 295.334384 
L 366.213448 297.614248 
L 370.775173 299.192449 
L 375.336898 304.44182 
L 379.898622 305.679364 
L 384.460347 308.41868 
L 389.022072 311.280637 
L 393.583796 306.105803 
L 398.145521 306.843005 
L 402.707246 308.668544 
L 407.26897 307.980744 
L 411.830695 304.182506 
L 416.39242 304.710419 
L 420.954145 303.892921 
L 425.515869 308.526545 
L 430.077594 311.177375 
L 434.639319 311.625059 
L 439.201043 308.105809 
L 443.762768 310.559077 
L 448.324493 308.213502 
L 452.886217 310.149165 
L 457.447942 315.323526 
L 462.009667 316.718266 
L 466.571391 319.462731 
L 471.133116 317.617627 
L 475.694841 320.526415 
L 480.256566 319.865159 
L 484.81829 319.310587 
L 489.380015 315.831989 
L 493.94174 312.465255 
L 498.503464 309.556692 
L 503.065189 308.376229 
L 507.626914 312.767831 
L 512.188638 309.746407 
L 516.750363 316.428149 
" clip-path="url(#p6ab89e533c)" style="fill: none; stroke: #8b2be2; stroke-width: 1.5; stroke-linecap: round"/>
   </g>
   <g id="line2d_15">
    <path d="M 65.139619 305.485153 
L 69.701343 291.696219 
L 74.263068 296.252562 
L 78.824793 282.436983 
L 83.386517 273.151102 
L 87.948242 239.937757 
L 92.509967 236.886872 
L 97.071691 223.284455 
L 101.633416 226.242081 
L 106.195141 216.476585 
L 110.756865 212.106758 
L 115.31859 206.684443 
L 119.880315 202.101455 
L 124.44204 197.398562 
L 129.003764 202.194713 
L 133.565489 212.559728 
L 138.127214 212.906117 
L 142.688938 210.334847 
L 147.250663 211.080915 
L 151.812388 191.430019 
L 156.374112 189.471591 
L 160.935837 189.298396 
L 165.497562 187.633066 
L 170.059286 186.940289 
L 174.621011 189.751366 
L 179.182736 189.61814 
L 183.744461 184.382342 
L 188.306185 185.048474 
L 192.86791 181.517974 
L 197.429635 179.346383 
L 201.991359 169.687468 
L 206.553084 163.705602 
L 211.114809 160.228392 
L 215.676533 153.367232 
L 220.238258 148.824211 
L 224.799983 148.384564 
L 229.361707 149.956636 
L 233.923432 146.319555 
L 238.485157 145.027258 
L 243.046882 144.02806 
L 247.608606 142.8157 
L 252.170331 145.680068 
L 256.732056 144.627579 
L 261.29378 141.523404 
L 265.855505 145.693391 
L 270.41723 141.776534 
L 274.978954 145.946521 
L 279.540679 142.775732 
L 284.102404 144.174609 
L 288.664128 145.307034 
L 293.225853 142.682474 
L 297.787578 140.111204 
L 302.349303 145.480228 
L 306.911027 141.496758 
L 311.472752 140.857272 
L 316.034477 140.550851 
L 320.596201 141.550049 
L 325.157926 142.602538 
L 329.719651 141.896438 
L 334.281375 142.455989 
L 338.8431 142.549247 
L 343.404825 145.293711 
L 347.966549 141.803179 
L 352.528274 145.706713 
L 357.089999 140.49756 
L 361.651724 142.908958 
L 366.213448 142.789055 
L 370.775173 143.841543 
L 375.336898 142.336085 
L 379.898622 140.857272 
L 384.460347 140.297721 
L 389.022072 143.401896 
L 393.583796 142.269472 
L 398.145521 142.189536 
L 402.707246 141.869792 
L 407.26897 143.788253 
L 411.830695 144.920677 
L 416.39242 142.975572 
L 420.954145 142.322762 
L 425.515869 146.79917 
L 430.077594 140.324366 
L 434.639319 144.001415 
L 439.201043 140.284398 
L 443.762768 140.44427 
L 448.324493 139.751492 
L 452.886217 142.069632 
L 457.447942 141.190338 
L 462.009667 142.282794 
L 466.571391 140.657432 
L 471.133116 142.56257 
L 475.694841 142.935604 
L 480.256566 142.36273 
L 484.81829 141.949728 
L 489.380015 141.723243 
L 493.94174 140.390979 
L 498.503464 143.948125 
L 503.065189 139.844751 
L 507.626914 144.334481 
L 512.188638 141.789857 
L 516.750363 140.750691 
" clip-path="url(#p6ab89e533c)" style="fill: none; stroke: #023eff; stroke-width: 2; stroke-linecap: round"/>
   </g>
   <g id="line2d_16">
    <path d="M 56.23 107.364151 
L 522.797024 107.364151 
" clip-path="url(#p6ab89e533c)" style="fill: none; stroke-dasharray: 1.25,2.0625; stroke-dashoffset: 0; stroke: #000000; stroke-opacity: 0.6; stroke-width: 1.25"/>
   </g>
   <g id="patch_3">
    <path d="M 56.23 328.52 
L 56.23 46.08 
" style="fill: none; stroke: #ffffff; stroke-width: 0.8; stroke-linejoin: miter; stroke-linecap: square"/>
   </g>
   <g id="patch_4">
    <path d="M 522.797024 328.52 
L 522.797024 46.08 
" style="fill: none; stroke: #ffffff; stroke-width: 0.8; stroke-linejoin: miter; stroke-linecap: square"/>
   </g>
   <g id="patch_5">
    <path d="M 56.23 328.52 
L 522.797024 328.52 
" style="fill: none; stroke: #ffffff; stroke-width: 0.8; stroke-linejoin: miter; stroke-linecap: square"/>
   </g>
   <g id="patch_6">
    <path d="M 56.23 46.08 
L 522.797024 46.08 
" style="fill: none; stroke: #ffffff; stroke-width: 0.8; stroke-linejoin: miter; stroke-linecap: square"/>
   </g>
  </g>
  <g id="text_9">
   <!-- CMU-Net | APM -->
   <g style="fill: #262626" transform="translate(167.84625 25.54125) scale(0.24 -0.24)">
    <defs>
     <path id="DejaVuSans-Bold-43" d="M 4288 256 
Q 3956 84 3597 -3 
Q 3238 -91 2847 -91 
Q 1681 -91 1000 561 
Q 319 1213 319 2328 
Q 319 3447 1000 4098 
Q 1681 4750 2847 4750 
Q 3238 4750 3597 4662 
Q 3956 4575 4288 4403 
L 4288 3438 
Q 3953 3666 3628 3772 
Q 3303 3878 2944 3878 
Q 2300 3878 1931 3465 
Q 1563 3053 1563 2328 
Q 1563 1606 1931 1193 
Q 2300 781 2944 781 
Q 3303 781 3628 887 
Q 3953 994 4288 1222 
L 4288 256 
z
" transform="scale(0.015625)"/>
     <path id="DejaVuSans-Bold-4d" d="M 588 4666 
L 2119 4666 
L 3181 2169 
L 4250 4666 
L 5778 4666 
L 5778 0 
L 4641 0 
L 4641 3413 
L 3566 897 
L 2803 897 
L 1728 3413 
L 1728 0 
L 588 0 
L 588 4666 
z
" transform="scale(0.015625)"/>
     <path id="DejaVuSans-Bold-55" d="M 588 4666 
L 1791 4666 
L 1791 1869 
Q 1791 1291 1980 1042 
Q 2169 794 2597 794 
Q 3028 794 3217 1042 
Q 3406 1291 3406 1869 
L 3406 4666 
L 4609 4666 
L 4609 1869 
Q 4609 878 4112 393 
Q 3616 -91 2597 -91 
Q 1581 -91 1084 393 
Q 588 878 588 1869 
L 588 4666 
z
" transform="scale(0.015625)"/>
     <path id="DejaVuSans-Bold-2d" d="M 347 2297 
L 2309 2297 
L 2309 1388 
L 347 1388 
L 347 2297 
z
" transform="scale(0.015625)"/>
     <path id="DejaVuSans-Bold-4e" d="M 588 4666 
L 1931 4666 
L 3628 1466 
L 3628 4666 
L 4769 4666 
L 4769 0 
L 3425 0 
L 1728 3200 
L 1728 0 
L 588 0 
L 588 4666 
z
" transform="scale(0.015625)"/>
     <path id="DejaVuSans-Bold-65" d="M 4031 1759 
L 4031 1441 
L 1416 1441 
Q 1456 1047 1700 850 
Q 1944 653 2381 653 
Q 2734 653 3104 758 
Q 3475 863 3866 1075 
L 3866 213 
Q 3469 63 3072 -14 
Q 2675 -91 2278 -91 
Q 1328 -91 801 392 
Q 275 875 275 1747 
Q 275 2603 792 3093 
Q 1309 3584 2216 3584 
Q 3041 3584 3536 3087 
Q 4031 2591 4031 1759 
z
M 2881 2131 
Q 2881 2450 2695 2645 
Q 2509 2841 2209 2841 
Q 1884 2841 1681 2658 
Q 1478 2475 1428 2131 
L 2881 2131 
z
" transform="scale(0.015625)"/>
     <path id="DejaVuSans-Bold-74" d="M 1759 4494 
L 1759 3500 
L 2913 3500 
L 2913 2700 
L 1759 2700 
L 1759 1216 
Q 1759 972 1856 886 
Q 1953 800 2241 800 
L 2816 800 
L 2816 0 
L 1856 0 
Q 1194 0 917 276 
Q 641 553 641 1216 
L 641 2700 
L 84 2700 
L 84 3500 
L 641 3500 
L 641 4494 
L 1759 4494 
z
" transform="scale(0.015625)"/>
     <path id="DejaVuSans-Bold-20" transform="scale(0.015625)"/>
     <path id="DejaVuSans-Bold-7c" d="M 1522 4891 
L 1522 -1509 
L 813 -1509 
L 813 4891 
L 1522 4891 
z
" transform="scale(0.015625)"/>
     <path id="DejaVuSans-Bold-41" d="M 3419 850 
L 1538 850 
L 1241 0 
L 31 0 
L 1759 4666 
L 3194 4666 
L 4922 0 
L 3713 0 
L 3419 850 
z
M 1838 1716 
L 3116 1716 
L 2478 3572 
L 1838 1716 
z
" transform="scale(0.015625)"/>
     <path id="DejaVuSans-Bold-50" d="M 588 4666 
L 2584 4666 
Q 3475 4666 3951 4270 
Q 4428 3875 4428 3144 
Q 4428 2409 3951 2014 
Q 3475 1619 2584 1619 
L 1791 1619 
L 1791 0 
L 588 0 
L 588 4666 
z
M 1791 3794 
L 1791 2491 
L 2456 2491 
Q 2806 2491 2997 2661 
Q 3188 2831 3188 3144 
Q 3188 3456 2997 3625 
Q 2806 3794 2456 3794 
L 1791 3794 
z
" transform="scale(0.015625)"/>
    </defs>
    <use xlink:href="#DejaVuSans-Bold-43"/>
    <use xlink:href="#DejaVuSans-Bold-4d" transform="translate(73.388672 0)"/>
    <use xlink:href="#DejaVuSans-Bold-55" transform="translate(172.900391 0)"/>
    <use xlink:href="#DejaVuSans-Bold-2d" transform="translate(254.101562 0)"/>
    <use xlink:href="#DejaVuSans-Bold-4e" transform="translate(295.605469 0)"/>
    <use xlink:href="#DejaVuSans-Bold-65" transform="translate(379.296875 0)"/>
    <use xlink:href="#DejaVuSans-Bold-74" transform="translate(447.119141 0)"/>
    <use xlink:href="#DejaVuSans-Bold-20" transform="translate(494.921875 0)"/>
    <use xlink:href="#DejaVuSans-Bold-7c" transform="translate(529.736328 0)"/>
    <use xlink:href="#DejaVuSans-Bold-20" transform="translate(566.259766 0)"/>
    <use xlink:href="#DejaVuSans-Bold-41" transform="translate(601.074219 0)"/>
    <use xlink:href="#DejaVuSans-Bold-50" transform="translate(678.466797 0)"/>
    <use xlink:href="#DejaVuSans-Bold-4d" transform="translate(751.757812 0)"/>
   </g>
  </g>
 </g>
 <defs>
  <clipPath id="p6ab89e533c">
   <rect x="56.23" y="46.08" width="466.567024" height="282.44"/>
  </clipPath>
 </defs>
</svg>
