<?xml version="1.0" encoding="utf-8" standalone="no"?>
<!DOCTYPE svg PUBLIC "-//W3C//DTD SVG 1.1//EN"
  "http://www.w3.org/Graphics/SVG/1.1/DTD/svg11.dtd">
<svg xmlns:xlink="http://www.w3.org/1999/xlink" width="540pt" height="360pt" viewBox="0 0 540 360" xmlns="http://www.w3.org/2000/svg" version="1.1">
 <metadata>
  <rdf:RDF xmlns:dc="http://purl.org/dc/elements/1.1/" xmlns:cc="http://creativecommons.org/ns#" xmlns:rdf="http://www.w3.org/1999/02/22-rdf-syntax-ns#">
   <cc:Work>
    <dc:type rdf:resource="http://purl.org/dc/dcmitype/StillImage"/>
    <dc:date>2025-08-04T02:53:24.849403</dc:date>
    <dc:format>image/svg+xml</dc:format>
    <dc:creator>
     <cc:Agent>
      <dc:title>Matplotlib v3.10.0, https://matplotlib.org/</dc:title>
     </cc:Agent>
    </dc:creator>
   </cc:Work>
  </rdf:RDF>
 </metadata>
 <defs>
  <style type="text/css">*{stroke-linejoin: round; stroke-linecap: butt}</style>
 </defs>
 <g id="figure_1">
  <g id="patch_1">
   <path d="M 0 360 
L 540 360 
L 540 0 
L 0 0 
z
" style="fill: #ffffff"/>
  </g>
  <g id="axes_1">
   <g id="patch_2">
    <path d="M 56.23 328.52 
L 522.797024 328.52 
L 522.797024 46.08 
L 56.23 46.08 
z
" style="fill: #eaeaf2"/>
   </g>
   <g id="matplotlib.axis_1">
    <g id="xtick_1">
     <g id="line2d_1">
      <path d="M 65.139619 328.52 
L 65.139619 46.08 
" clip-path="url(#pe2860f52be)" style="fill: none; stroke: #ffffff; stroke-width: 0.8; stroke-linecap: round"/>
     </g>
     <g id="text_1">
      <!-- 0 -->
      <g style="fill: #262626" transform="translate(60.685869 346.157812) scale(0.14 -0.14)">
       <defs>
        <path id="DejaVuSans-30" d="M 2034 4250 
Q 1547 4250 1301 3770 
Q 1056 3291 1056 2328 
Q 1056 1369 1301 889 
Q 1547 409 2034 409 
Q 2525 409 2770 889 
Q 3016 1369 3016 2328 
Q 3016 3291 2770 3770 
Q 2525 4250 2034 4250 
z
M 2034 4750 
Q 2819 4750 3233 4129 
Q 3647 3509 3647 2328 
Q 3647 1150 3233 529 
Q 2819 -91 2034 -91 
Q 1250 -91 836 529 
Q 422 1150 422 2328 
Q 422 3509 836 4129 
Q 1250 4750 2034 4750 
z
" transform="scale(0.015625)"/>
       </defs>
       <use xlink:href="#DejaVuSans-30"/>
      </g>
     </g>
    </g>
    <g id="xtick_2">
     <g id="line2d_2">
      <path d="M 510.620546 328.52 
L 510.620546 46.08 
" clip-path="url(#pe2860f52be)" style="fill: none; stroke: #ffffff; stroke-width: 0.8; stroke-linecap: round"/>
     </g>
     <g id="text_2">
      <!-- 600k -->
      <g style="fill: #262626" transform="translate(493.205858 346.157812) scale(0.14 -0.14)">
       <defs>
        <path id="DejaVuSans-36" d="M 2113 2584 
Q 1688 2584 1439 2293 
Q 1191 2003 1191 1497 
Q 1191 994 1439 701 
Q 1688 409 2113 409 
Q 2538 409 2786 701 
Q 3034 994 3034 1497 
Q 3034 2003 2786 2293 
Q 2538 2584 2113 2584 
z
M 3366 4563 
L 3366 3988 
Q 3128 4100 2886 4159 
Q 2644 4219 2406 4219 
Q 1781 4219 1451 3797 
Q 1122 3375 1075 2522 
Q 1259 2794 1537 2939 
Q 1816 3084 2150 3084 
Q 2853 3084 3261 2657 
Q 3669 2231 3669 1497 
Q 3669 778 3244 343 
Q 2819 -91 2113 -91 
Q 1303 -91 875 529 
Q 447 1150 447 2328 
Q 447 3434 972 4092 
Q 1497 4750 2381 4750 
Q 2619 4750 2861 4703 
Q 3103 4656 3366 4563 
z
" transform="scale(0.015625)"/>
        <path id="DejaVuSans-6b" d="M 581 4863 
L 1159 4863 
L 1159 1991 
L 2875 3500 
L 3609 3500 
L 1753 1863 
L 3688 0 
L 2938 0 
L 1159 1709 
L 1159 0 
L 581 0 
L 581 4863 
z
" transform="scale(0.015625)"/>
       </defs>
       <use xlink:href="#DejaVuSans-36"/>
       <use xlink:href="#DejaVuSans-30" transform="translate(63.623047 0)"/>
       <use xlink:href="#DejaVuSans-30" transform="translate(127.246094 0)"/>
       <use xlink:href="#DejaVuSans-6b" transform="translate(190.869141 0)"/>
      </g>
     </g>
    </g>
   </g>
   <g id="matplotlib.axis_2">
    <g id="ytick_1">
     <g id="line2d_3">
      <path d="M 56.23 320.526415 
L 522.797024 320.526415 
" clip-path="url(#pe2860f52be)" style="fill: none; stroke: #ffffff; stroke-width: 0.8; stroke-linecap: round"/>
     </g>
     <g id="text_3">
      <!-- −500 -->
      <g style="fill: #262626" transform="translate(10.775937 325.845321) scale(0.14 -0.14)">
       <defs>
        <path id="DejaVuSans-2212" d="M 678 2272 
L 4684 2272 
L 4684 1741 
L 678 1741 
L 678 2272 
z
" transform="scale(0.015625)"/>
        <path id="DejaVuSans-35" d="M 691 4666 
L 3169 4666 
L 3169 4134 
L 1269 4134 
L 1269 2991 
Q 1406 3038 1543 3061 
Q 1681 3084 1819 3084 
Q 2600 3084 3056 2656 
Q 3513 2228 3513 1497 
Q 3513 744 3044 326 
Q 2575 -91 1722 -91 
Q 1428 -91 1123 -41 
Q 819 9 494 109 
L 494 744 
Q 775 591 1075 516 
Q 1375 441 1709 441 
Q 2250 441 2565 725 
Q 2881 1009 2881 1497 
Q 2881 1984 2565 2268 
Q 2250 2553 1709 2553 
Q 1456 2553 1204 2497 
Q 953 2441 691 2322 
L 691 4666 
z
" transform="scale(0.015625)"/>
       </defs>
       <use xlink:href="#DejaVuSans-2212"/>
       <use xlink:href="#DejaVuSans-35" transform="translate(83.789062 0)"/>
       <use xlink:href="#DejaVuSans-30" transform="translate(147.412109 0)"/>
       <use xlink:href="#DejaVuSans-30" transform="translate(211.035156 0)"/>
      </g>
     </g>
    </g>
    <g id="ytick_2">
     <g id="line2d_4">
      <path d="M 56.23 267.235849 
L 522.797024 267.235849 
" clip-path="url(#pe2860f52be)" style="fill: none; stroke: #ffffff; stroke-width: 0.8; stroke-linecap: round"/>
     </g>
     <g id="text_4">
      <!-- −400 -->
      <g style="fill: #262626" transform="translate(10.775937 272.554755) scale(0.14 -0.14)">
       <defs>
        <path id="DejaVuSans-34" d="M 2419 4116 
L 825 1625 
L 2419 1625 
L 2419 4116 
z
M 2253 4666 
L 3047 4666 
L 3047 1625 
L 3713 1625 
L 3713 1100 
L 3047 1100 
L 3047 0 
L 2419 0 
L 2419 1100 
L 313 1100 
L 313 1709 
L 2253 4666 
z
" transform="scale(0.015625)"/>
       </defs>
       <use xlink:href="#DejaVuSans-2212"/>
       <use xlink:href="#DejaVuSans-34" transform="translate(83.789062 0)"/>
       <use xlink:href="#DejaVuSans-30" transform="translate(147.412109 0)"/>
       <use xlink:href="#DejaVuSans-30" transform="translate(211.035156 0)"/>
      </g>
     </g>
    </g>
    <g id="ytick_3">
     <g id="line2d_5">
      <path d="M 56.23 213.945283 
L 522.797024 213.945283 
" clip-path="url(#pe2860f52be)" style="fill: none; stroke: #ffffff; stroke-width: 0.8; stroke-linecap: round"/>
     </g>
     <g id="text_5">
      <!-- −300 -->
      <g style="fill: #262626" transform="translate(10.775937 219.264189) scale(0.14 -0.14)">
       <defs>
        <path id="DejaVuSans-33" d="M 2597 2516 
Q 3050 2419 3304 2112 
Q 3559 1806 3559 1356 
Q 3559 666 3084 287 
Q 2609 -91 1734 -91 
Q 1441 -91 1130 -33 
Q 819 25 488 141 
L 488 750 
Q 750 597 1062 519 
Q 1375 441 1716 441 
Q 2309 441 2620 675 
Q 2931 909 2931 1356 
Q 2931 1769 2642 2001 
Q 2353 2234 1838 2234 
L 1294 2234 
L 1294 2753 
L 1863 2753 
Q 2328 2753 2575 2939 
Q 2822 3125 2822 3475 
Q 2822 3834 2567 4026 
Q 2313 4219 1838 4219 
Q 1578 4219 1281 4162 
Q 984 4106 628 3988 
L 628 4550 
Q 988 4650 1302 4700 
Q 1616 4750 1894 4750 
Q 2613 4750 3031 4423 
Q 3450 4097 3450 3541 
Q 3450 3153 3228 2886 
Q 3006 2619 2597 2516 
z
" transform="scale(0.015625)"/>
       </defs>
       <use xlink:href="#DejaVuSans-2212"/>
       <use xlink:href="#DejaVuSans-33" transform="translate(83.789062 0)"/>
       <use xlink:href="#DejaVuSans-30" transform="translate(147.412109 0)"/>
       <use xlink:href="#DejaVuSans-30" transform="translate(211.035156 0)"/>
      </g>
     </g>
    </g>
    <g id="ytick_4">
     <g id="line2d_6">
      <path d="M 56.23 160.654717 
L 522.797024 160.654717 
" clip-path="url(#pe2860f52be)" style="fill: none; stroke: #ffffff; stroke-width: 0.8; stroke-linecap: round"/>
     </g>
     <g id="text_6">
      <!-- −200 -->
      <g style="fill: #262626" transform="translate(10.775937 165.973623) scale(0.14 -0.14)">
       <defs>
        <path id="DejaVuSans-32" d="M 1228 531 
L 3431 531 
L 3431 0 
L 469 0 
L 469 531 
Q 828 903 1448 1529 
Q 2069 2156 2228 2338 
Q 2531 2678 2651 2914 
Q 2772 3150 2772 3378 
Q 2772 3750 2511 3984 
Q 2250 4219 1831 4219 
Q 1534 4219 1204 4116 
Q 875 4013 500 3803 
L 500 4441 
Q 881 4594 1212 4672 
Q 1544 4750 1819 4750 
Q 2544 4750 2975 4387 
Q 3406 4025 3406 3419 
Q 3406 3131 3298 2873 
Q 3191 2616 2906 2266 
Q 2828 2175 2409 1742 
Q 1991 1309 1228 531 
z
" transform="scale(0.015625)"/>
       </defs>
       <use xlink:href="#DejaVuSans-2212"/>
       <use xlink:href="#DejaVuSans-32" transform="translate(83.789062 0)"/>
       <use xlink:href="#DejaVuSans-30" transform="translate(147.412109 0)"/>
       <use xlink:href="#DejaVuSans-30" transform="translate(211.035156 0)"/>
      </g>
     </g>
    </g>
    <g id="ytick_5">
     <g id="line2d_7">
      <path d="M 56.23 107.364151 
L 522.797024 107.364151 
" clip-path="url(#pe2860f52be)" style="fill: none; stroke: #ffffff; stroke-width: 0.8; stroke-linecap: round"/>
     </g>
     <g id="text_7">
      <!-- −100 -->
      <g style="fill: #262626" transform="translate(10.775937 112.683057) scale(0.14 -0.14)">
       <defs>
        <path id="DejaVuSans-31" d="M 794 531 
L 1825 531 
L 1825 4091 
L 703 3866 
L 703 4441 
L 1819 4666 
L 2450 4666 
L 2450 531 
L 3481 531 
L 3481 0 
L 794 0 
L 794 531 
z
" transform="scale(0.015625)"/>
       </defs>
       <use xlink:href="#DejaVuSans-2212"/>
       <use xlink:href="#DejaVuSans-31" transform="translate(83.789062 0)"/>
       <use xlink:href="#DejaVuSans-30" transform="translate(147.412109 0)"/>
       <use xlink:href="#DejaVuSans-30" transform="translate(211.035156 0)"/>
      </g>
     </g>
    </g>
    <g id="ytick_6">
     <g id="line2d_8">
      <path d="M 56.23 54.073585 
L 522.797024 54.073585 
" clip-path="url(#pe2860f52be)" style="fill: none; stroke: #ffffff; stroke-width: 0.8; stroke-linecap: round"/>
     </g>
     <g id="text_8">
      <!-- 0 -->
      <g style="fill: #262626" transform="translate(40.3225 59.392491) scale(0.14 -0.14)">
       <use xlink:href="#DejaVuSans-30"/>
      </g>
     </g>
    </g>
   </g>
   <g id="FillBetweenPolyCollection_1">
    <path d="M 65.139619 295.151591 
L 65.139619 324.238624 
L 69.701343 326.769666 
L 74.263068 328.026032 
L 78.824793 331.113231 
L 83.386517 328.591754 
L 87.948242 338.52663 
L 92.509967 338.627542 
L 97.071691 339.179094 
L 101.633416 339.582668 
L 106.195141 339.134751 
L 110.756865 335.213034 
L 115.31859 313.197198 
L 119.880315 314.789768 
L 124.44204 305.17876 
L 129.003764 301.254328 
L 133.565489 299.399076 
L 138.127214 298.234339 
L 142.688938 298.756548 
L 147.250663 297.480866 
L 151.812388 297.051594 
L 156.374112 297.075725 
L 160.935837 297.042657 
L 165.497562 296.876649 
L 170.059286 296.600383 
L 174.621011 296.245779 
L 179.182736 296.458771 
L 183.744461 296.20542 
L 188.306185 296.231814 
L 192.86791 296.489894 
L 197.429635 295.944367 
L 201.991359 295.891865 
L 206.553084 296.125624 
L 211.114809 295.916031 
L 215.676533 296.260929 
L 220.238258 296.02247 
L 224.799983 295.978624 
L 229.361707 296.009802 
L 233.923432 296.354713 
L 238.485157 292.681396 
L 243.046882 292.05346 
L 247.608606 292.747764 
L 252.170331 274.557408 
L 256.732056 258.678623 
L 261.29378 255.884041 
L 265.855505 265.259498 
L 270.41723 251.826846 
L 274.978954 235.81705 
L 279.540679 242.873996 
L 284.102404 236.27336 
L 288.664128 220.011549 
L 293.225853 228.352948 
L 297.787578 199.579812 
L 302.349303 178.196825 
L 306.911027 223.816426 
L 311.472752 207.131804 
L 316.034477 183.903043 
L 320.596201 214.181072 
L 325.157926 208.45587 
L 329.719651 202.749638 
L 334.281375 185.873981 
L 338.8431 176.093187 
L 343.404825 197.94035 
L 347.966549 164.606153 
L 352.528274 161.83495 
L 357.089999 139.976002 
L 361.651724 153.230591 
L 366.213448 159.503661 
L 370.775173 132.96872 
L 375.336898 121.822382 
L 379.898622 134.617634 
L 384.460347 146.416924 
L 389.022072 121.058519 
L 393.583796 136.35142 
L 398.145521 138.964812 
L 402.707246 135.402951 
L 407.26897 147.987758 
L 411.830695 126.409534 
L 416.39242 145.984132 
L 420.954145 122.196864 
L 425.515869 165.843016 
L 430.077594 143.741987 
L 434.639319 124.846181 
L 439.201043 161.584308 
L 443.762768 149.595791 
L 448.324493 143.055186 
L 452.886217 127.538998 
L 457.447942 129.038369 
L 462.009667 128.240455 
L 466.571391 109.581822 
L 471.133116 103.89462 
L 475.694841 120.381251 
L 480.256566 101.256798 
L 484.81829 107.32485 
L 489.380015 113.445896 
L 493.94174 103.586046 
L 498.503464 125.224182 
L 503.065189 116.350094 
L 507.626914 101.486819 
L 512.188638 123.556238 
L 516.750363 100.055588 
L 516.750363 92.876872 
L 516.750363 92.876872 
L 512.188638 95.515245 
L 507.626914 94.030233 
L 503.065189 90.198106 
L 498.503464 95.286146 
L 493.94174 95.421539 
L 489.380015 95.074055 
L 484.81829 92.695255 
L 480.256566 95.6991 
L 475.694841 91.096327 
L 471.133116 96.258712 
L 466.571391 95.927212 
L 462.009667 86.887526 
L 457.447942 87.235359 
L 452.886217 84.498131 
L 448.324493 90.031716 
L 443.762768 85.702669 
L 439.201043 78.163914 
L 434.639319 88.949536 
L 430.077594 94.00784 
L 425.515869 73.931852 
L 420.954145 89.067551 
L 416.39242 87.60903 
L 411.830695 88.132251 
L 407.26897 84.353076 
L 402.707246 89.050879 
L 398.145521 83.384041 
L 393.583796 88.102411 
L 389.022072 92.017776 
L 384.460347 82.64654 
L 379.898622 87.011796 
L 375.336898 94.904316 
L 370.775173 85.489921 
L 366.213448 74.995441 
L 361.651724 84.146201 
L 357.089999 86.502869 
L 352.528274 78.153081 
L 347.966549 80.44448 
L 343.404825 69.785419 
L 338.8431 76.2849 
L 334.281375 71.753226 
L 329.719651 75.447728 
L 325.157926 64.998636 
L 320.596201 69.371996 
L 316.034477 75.695915 
L 311.472752 62.3792 
L 306.911027 66.877578 
L 302.349303 76.206304 
L 297.787578 73.261852 
L 293.225853 72.865943 
L 288.664128 66.01953 
L 284.102404 62.06784 
L 279.540679 73.799158 
L 274.978954 74.194784 
L 270.41723 75.078097 
L 265.855505 76.007253 
L 261.29378 85.809034 
L 256.732056 76.006743 
L 252.170331 80.245147 
L 247.608606 80.679843 
L 243.046882 78.523102 
L 238.485157 77.788585 
L 233.923432 81.229559 
L 229.361707 77.790839 
L 224.799983 77.502274 
L 220.238258 77.831462 
L 215.676533 80.071014 
L 211.114809 76.765509 
L 206.553084 78.927345 
L 201.991359 76.656448 
L 197.429635 77.163497 
L 192.86791 82.320061 
L 188.306185 79.673805 
L 183.744461 79.4071 
L 179.182736 81.551826 
L 174.621011 79.846357 
L 170.059286 82.822413 
L 165.497562 86.08997 
L 160.935837 85.044667 
L 156.374112 87.009995 
L 151.812388 85.675217 
L 147.250663 88.09699 
L 142.688938 94.89483 
L 138.127214 94.804197 
L 133.565489 92.73352 
L 129.003764 106.066079 
L 124.44204 108.403289 
L 119.880315 118.003531 
L 115.31859 113.334459 
L 110.756865 130.860222 
L 106.195141 132.480724 
L 101.633416 131.979516 
L 97.071691 135.900269 
L 92.509967 136.212013 
L 87.948242 142.44134 
L 83.386517 159.250698 
L 78.824793 161.072403 
L 74.263068 193.682576 
L 69.701343 223.422749 
L 65.139619 295.151591 
z
" clip-path="url(#pe2860f52be)" style="fill: #023eff; fill-opacity: 0.1"/>
   </g>
   <g id="line2d_9">
    <path d="M 65.139619 302.873915 
L 69.701343 239.391528 
L 74.263068 177.108179 
L 78.824793 138.605745 
L 83.386517 136.873802 
L 87.948242 122.751802 
L 92.509967 116.69 
L 97.071691 114.025472 
L 101.633416 106.364953 
L 106.195141 110.428358 
L 110.756865 112.226915 
L 115.31859 99.836858 
L 119.880315 101.768642 
L 124.44204 102.168321 
L 129.003764 110.694811 
L 133.565489 98.171528 
L 138.127214 103.567198 
L 142.688938 98.637821 
L 147.250663 97.238943 
L 151.812388 102.36816 
L 156.374112 99.303953 
L 160.935837 118.222104 
L 165.497562 102.76784 
L 170.059286 99.437179 
L 174.621011 97.638623 
L 179.182736 101.235736 
L 183.744461 97.705236 
L 188.306185 104.43317 
L 192.86791 101.368962 
L 197.429635 95.973292 
L 201.991359 97.705236 
L 206.553084 97.105717 
L 211.114809 94.774255 
L 215.676533 96.306358 
L 220.238258 95.040708 
L 224.799983 96.506198 
L 229.361707 96.905877 
L 233.923432 99.903472 
L 238.485157 93.775057 
L 243.046882 97.17233 
L 247.608606 96.372972 
L 252.170331 96.772651 
L 256.732056 97.305557 
L 261.29378 94.641028 
L 265.855505 94.507802 
L 270.41723 97.705236 
L 274.978954 96.306358 
L 279.540679 106.631406 
L 284.102404 95.107321 
L 288.664128 94.574415 
L 293.225853 110.361745 
L 297.787578 100.369764 
L 302.349303 98.970887 
L 306.911027 97.105717 
L 311.472752 94.774255 
L 316.034477 97.105717 
L 320.596201 107.164311 
L 325.157926 98.238142 
L 329.719651 99.970085 
L 334.281375 98.171528 
L 338.8431 97.17233 
L 343.404825 98.437981 
L 347.966549 97.105717 
L 352.528274 99.836858 
L 357.089999 98.104915 
L 361.651724 97.505396 
L 366.213448 95.70684 
L 370.775173 99.836858 
L 375.336898 105.498981 
L 379.898622 102.568 
L 384.460347 99.570406 
L 389.022072 97.771849 
L 393.583796 96.173132 
L 398.145521 95.373774 
L 402.707246 100.036698 
L 407.26897 97.838462 
L 411.830695 98.171528 
L 416.39242 96.972491 
L 420.954145 104.633009 
L 425.515869 98.104915 
L 430.077594 105.565594 
L 434.639319 103.633811 
L 439.201043 96.639425 
L 443.762768 106.897858 
L 448.324493 105.632208 
L 452.886217 98.304755 
L 457.447942 95.440387 
L 462.009667 100.036698 
L 466.571391 102.967679 
L 471.133116 96.173132 
L 475.694841 102.967679 
L 480.256566 96.772651 
L 484.81829 96.639425 
L 489.380015 115.490962 
L 493.94174 107.230925 
L 498.503464 99.836858 
L 503.065189 95.507 
L 507.626914 96.306358 
L 512.188638 97.971689 
L 516.750363 92.043113 
" clip-path="url(#pe2860f52be)" style="fill: none; stroke: #1ac938; stroke-opacity: 0.27; stroke-width: 1.25; stroke-linecap: round"/>
   </g>
   <g id="line2d_10">
    <path d="M 65.139619 320.526415 
L 69.701343 320.526415 
L 74.263068 320.526415 
L 78.824793 320.526415 
L 83.386517 320.526415 
L 87.948242 320.526415 
L 92.509967 320.526415 
L 97.071691 320.526415 
L 101.633416 320.526415 
L 106.195141 320.526415 
L 110.756865 320.526415 
L 115.31859 320.526415 
L 119.880315 320.526415 
L 124.44204 320.526415 
L 129.003764 320.526415 
L 133.565489 320.526415 
L 138.127214 320.526415 
L 142.688938 320.526415 
L 147.250663 320.526415 
L 151.812388 320.526415 
L 156.374112 320.526415 
L 160.935837 320.526415 
L 165.497562 320.526415 
L 170.059286 320.526415 
L 174.621011 320.526415 
L 179.182736 320.526415 
L 183.744461 320.526415 
L 188.306185 320.526415 
L 192.86791 320.526415 
L 197.429635 320.526415 
L 201.991359 320.526415 
L 206.553084 320.526415 
L 211.114809 320.526415 
L 215.676533 320.526415 
L 220.238258 320.526415 
L 224.799983 320.526415 
L 229.361707 320.526415 
L 233.923432 320.526415 
L 238.485157 320.526415 
L 243.046882 320.526415 
L 247.608606 320.526415 
L 252.170331 320.526415 
L 256.732056 320.526415 
L 261.29378 320.526415 
L 265.855505 320.526415 
L 270.41723 320.526415 
L 274.978954 305.205377 
L 279.540679 320.526415 
L 284.102404 320.526415 
L 288.664128 295.013557 
L 293.225853 304.472632 
L 297.787578 262.040019 
L 302.349303 227.867443 
L 306.911027 301.275198 
L 311.472752 279.226226 
L 316.034477 237.326519 
L 320.596201 286.420453 
L 325.157926 279.958972 
L 329.719651 263.905189 
L 334.281375 242.655575 
L 338.8431 225.802434 
L 343.404825 261.773566 
L 347.966549 206.084925 
L 352.528274 203.620236 
L 357.089999 166.383453 
L 361.651724 187.233387 
L 366.213448 201.688453 
L 370.775173 156.524698 
L 375.336898 134.009434 
L 379.898622 158.123415 
L 384.460347 177.907538 
L 389.022072 134.942019 
L 393.583796 160.055198 
L 398.145521 166.716519 
L 402.707246 158.389868 
L 407.26897 178.640283 
L 411.830695 145.200453 
L 416.39242 170.113792 
L 420.954145 137.939613 
L 425.515869 211.747047 
L 430.077594 165.650708 
L 434.639319 142.136245 
L 439.201043 203.220557 
L 443.762768 181.238198 
L 448.324493 164.518283 
L 452.886217 148.930792 
L 457.447942 149.796764 
L 462.009667 148.797566 
L 466.571391 114.225311 
L 471.133116 105.965274 
L 475.694841 134.608953 
L 480.256566 101.169123 
L 484.81829 114.491764 
L 489.380015 114.225311 
L 493.94174 99.570406 
L 498.503464 131.544745 
L 503.065189 129.346509 
L 507.626914 104.899462 
L 512.188638 131.544745 
L 516.750363 98.171528 
" clip-path="url(#pe2860f52be)" style="fill: none; stroke: #1ac938; stroke-opacity: 0.27; stroke-width: 1.25; stroke-linecap: round"/>
   </g>
   <g id="line2d_11">
    <path d="M 65.139619 320.526415 
L 69.701343 320.526415 
L 74.263068 320.526415 
L 78.824793 320.526415 
L 83.386517 320.526415 
L 87.948242 320.526415 
L 92.509967 320.526415 
L 97.071691 320.526415 
L 101.633416 320.526415 
L 106.195141 320.526415 
L 110.756865 320.526415 
L 115.31859 320.526415 
L 119.880315 320.526415 
L 124.44204 320.526415 
L 129.003764 320.526415 
L 133.565489 320.526415 
L 138.127214 320.526415 
L 142.688938 320.526415 
L 147.250663 320.526415 
L 151.812388 320.526415 
L 156.374112 320.526415 
L 160.935837 320.526415 
L 165.497562 320.526415 
L 170.059286 320.526415 
L 174.621011 320.526415 
L 179.182736 320.526415 
L 183.744461 320.526415 
L 188.306185 320.526415 
L 192.86791 320.526415 
L 197.429635 320.526415 
L 201.991359 320.526415 
L 206.553084 320.526415 
L 211.114809 320.526415 
L 215.676533 320.526415 
L 220.238258 320.526415 
L 224.799983 320.526415 
L 229.361707 320.526415 
L 233.923432 320.526415 
L 238.485157 312.865896 
L 243.046882 311.467019 
L 247.608606 312.266377 
L 252.170331 268.834566 
L 256.732056 225.402755 
L 261.29378 209.015906 
L 265.855505 244.987038 
L 270.41723 202.554425 
L 274.978954 175.176396 
L 279.540679 163.785538 
L 284.102404 136.540736 
L 288.664128 128.613764 
L 293.225853 132.877009 
L 297.787578 117.822425 
L 302.349303 117.689198 
L 306.911027 122.618575 
L 311.472752 106.897858 
L 316.034477 114.425151 
L 320.596201 108.496575 
L 325.157926 104.499783 
L 329.719651 131.344906 
L 334.281375 108.030283 
L 338.8431 102.967679 
L 343.404825 107.830443 
L 347.966549 110.295132 
L 352.528274 101.368962 
L 357.089999 102.101708 
L 361.651724 109.162708 
L 366.213448 96.639425 
L 370.775173 99.570406 
L 375.336898 99.637019 
L 379.898622 100.969283 
L 384.460347 104.43317 
L 389.022072 104.299943 
L 393.583796 104.832849 
L 398.145521 98.304755 
L 402.707246 97.638623 
L 407.26897 94.707642 
L 411.830695 100.036698 
L 416.39242 126.415528 
L 420.954145 95.640226 
L 425.515869 98.704434 
L 430.077594 122.485349 
L 434.639319 99.570406 
L 439.201043 97.638623 
L 443.762768 102.634613 
L 448.324493 92.242953 
L 452.886217 93.508604 
L 457.447942 98.904274 
L 462.009667 96.239745 
L 466.571391 95.840066 
L 471.133116 98.371368 
L 475.694841 97.438783 
L 480.256566 101.235736 
L 484.81829 97.039104 
L 489.380015 94.641028 
L 493.94174 95.440387 
L 498.503464 125.016651 
L 503.065189 96.772651 
L 507.626914 95.173934 
L 512.188638 96.839264 
L 516.750363 92.242953 
" clip-path="url(#pe2860f52be)" style="fill: none; stroke: #1ac938; stroke-opacity: 0.27; stroke-width: 1.25; stroke-linecap: round"/>
   </g>
   <g id="line2d_12">
    <path d="M 65.139619 320.526415 
L 69.701343 304.206179 
L 74.263068 305.47183 
L 78.824793 304.938925 
L 83.386517 296.94534 
L 87.948242 320.526415 
L 92.509967 319.060925 
L 97.071691 320.526415 
L 101.633416 320.526415 
L 106.195141 319.460604 
L 110.756865 308.003132 
L 115.31859 229.599387 
L 119.880315 237.393132 
L 124.44204 190.297594 
L 129.003764 162.919566 
L 133.565489 147.198849 
L 138.127214 131.478132 
L 142.688938 139.138651 
L 147.250663 124.017453 
L 151.812388 117.356132 
L 156.374112 115.291123 
L 160.935837 101.102509 
L 165.497562 110.028679 
L 170.059286 109.962066 
L 174.621011 104.366557 
L 179.182736 107.364151 
L 183.744461 104.166717 
L 188.306185 97.572009 
L 192.86791 105.89866 
L 197.429635 97.572009 
L 201.991359 96.239745 
L 206.553084 100.436377 
L 211.114809 99.903472 
L 215.676533 103.367358 
L 220.238258 98.504594 
L 224.799983 97.37217 
L 229.361707 96.972491 
L 233.923432 101.968481 
L 238.485157 105.232528 
L 243.046882 99.770245 
L 247.608606 109.295934 
L 252.170331 101.768642 
L 256.732056 97.039104 
L 261.29378 103.700425 
L 265.855505 98.704434 
L 270.41723 101.435575 
L 274.978954 100.70283 
L 279.540679 101.768642 
L 284.102404 99.303953 
L 288.664128 96.173132 
L 293.225853 99.903472 
L 297.787578 101.702028 
L 302.349303 94.774255 
L 306.911027 99.637019 
L 311.472752 98.571208 
L 316.034477 100.769443 
L 320.596201 98.970887 
L 325.157926 105.965274 
L 329.719651 105.299142 
L 334.281375 98.171528 
L 338.8431 106.0985 
L 343.404825 104.366557 
L 347.966549 102.901066 
L 352.528274 96.772651 
L 357.089999 95.573613 
L 361.651724 97.305557 
L 366.213448 93.441991 
L 370.775173 94.574415 
L 375.336898 107.031085 
L 379.898622 97.438783 
L 384.460347 93.508604 
L 389.022072 100.502991 
L 393.583796 97.505396 
L 398.145521 98.104915 
L 402.707246 100.90267 
L 407.26897 112.093689 
L 411.830695 92.975698 
L 416.39242 96.239745 
L 420.954145 95.240547 
L 425.515869 96.639425 
L 430.077594 103.966877 
L 434.639319 95.240547 
L 439.201043 100.436377 
L 443.762768 97.505396 
L 448.324493 95.640226 
L 452.886217 94.041509 
L 457.447942 100.236538 
L 462.009667 97.37217 
L 466.571391 104.966075 
L 471.133116 103.100906 
L 475.694841 95.507 
L 480.256566 99.23734 
L 484.81829 94.441189 
L 489.380015 102.76784 
L 493.94174 97.37217 
L 498.503464 94.974094 
L 503.065189 98.571208 
L 507.626914 97.771849 
L 512.188638 100.636217 
L 516.750363 99.836858 
" clip-path="url(#pe2860f52be)" style="fill: none; stroke: #1ac938; stroke-opacity: 0.27; stroke-width: 1.25; stroke-linecap: round"/>
   </g>
   <g id="line2d_13">
    <path d="M 65.139619 284.022377 
L 69.701343 190.8305 
L 74.263068 180.638679 
L 78.824793 145.866585 
L 83.386517 144.73416 
L 87.948242 118.088877 
L 92.509967 110.295132 
L 97.071691 112.093689 
L 101.633416 110.961264 
L 106.195141 108.096896 
L 110.756865 103.900264 
L 115.31859 95.840066 
L 119.880315 101.768642 
L 124.44204 100.436377 
L 129.003764 103.633811 
L 133.565489 93.908283 
L 138.127214 106.498179 
L 142.688938 105.299142 
L 147.250663 101.635415 
L 151.812388 96.039906 
L 156.374112 104.566396 
L 160.935837 94.840868 
L 165.497562 103.567198 
L 170.059286 98.104915 
L 174.621011 97.17233 
L 179.182736 95.373774 
L 183.744461 96.106519 
L 188.306185 96.706038 
L 192.86791 98.704434 
L 197.429635 98.171528 
L 201.991359 96.372972 
L 206.553084 99.0375 
L 211.114809 95.973292 
L 215.676533 100.103311 
L 220.238258 100.036698 
L 224.799983 98.771047 
L 229.361707 99.570406 
L 233.923432 101.035896 
L 238.485157 93.775057 
L 243.046882 97.505396 
L 247.608606 95.107321 
L 252.170331 99.104113 
L 256.732056 96.439585 
L 261.29378 126.348915 
L 265.855505 94.441189 
L 270.41723 95.040708 
L 274.978954 97.638623 
L 279.540679 98.970887 
L 284.102404 94.374575 
L 288.664128 100.70283 
L 293.225853 105.432368 
L 297.787578 100.169925 
L 302.349303 96.706038 
L 306.911027 106.0985 
L 311.472752 94.307962 
L 316.034477 99.370566 
L 320.596201 107.830443 
L 325.157926 94.974094 
L 329.719651 94.974094 
L 334.281375 97.039104 
L 338.8431 98.904274 
L 343.404825 96.905877 
L 347.966549 96.239745 
L 352.528274 98.371368 
L 357.089999 104.033491 
L 361.651724 102.234934 
L 366.213448 98.771047 
L 370.775173 95.640226 
L 375.336898 95.640226 
L 379.898622 94.974094 
L 384.460347 97.238943 
L 389.022072 95.173934 
L 393.583796 102.568 
L 398.145521 97.37217 
L 402.707246 104.166717 
L 407.26897 97.572009 
L 411.830695 99.970085 
L 416.39242 94.241349 
L 420.954145 94.707642 
L 425.515869 94.241349 
L 430.077594 96.706038 
L 434.639319 93.908283 
L 439.201043 101.435575 
L 443.762768 99.970085 
L 448.324493 124.683585 
L 452.886217 95.30716 
L 457.447942 96.306358 
L 462.009667 95.373774 
L 466.571391 95.773453 
L 471.133116 96.772651 
L 475.694841 98.171528 
L 480.256566 93.974896 
L 484.81829 97.438783 
L 489.380015 94.174736 
L 493.94174 97.905075 
L 498.503464 99.903472 
L 503.065189 96.173132 
L 507.626914 94.641028 
L 512.188638 120.686792 
L 516.750363 100.036698 
" clip-path="url(#pe2860f52be)" style="fill: none; stroke: #1ac938; stroke-opacity: 0.27; stroke-width: 1.25; stroke-linecap: round"/>
   </g>
   <g id="line2d_14">
    <path d="M 65.139619 54.073585 
L 69.701343 65.06762 
L 74.263068 81.058109 
L 78.824793 92.044674 
L 83.386517 89.620999 
L 87.948242 99.621822 
L 92.509967 109.35451 
L 97.071691 122.56467 
L 101.633416 124.18722 
L 106.195141 140.430657 
L 110.756865 146.490356 
L 115.31859 156.271993 
L 119.880315 160.596411 
L 124.44204 172.32994 
L 129.003764 172.36644 
L 133.565489 178.541675 
L 138.127214 195.020466 
L 142.688938 203.480748 
L 147.250663 207.176409 
L 151.812388 217.089816 
L 156.374112 232.867498 
L 160.935837 244.777545 
L 165.497562 247.342956 
L 170.059286 252.48795 
L 174.621011 249.119064 
L 179.182736 250.630901 
L 183.744461 253.196792 
L 188.306185 254.342897 
L 192.86791 255.858712 
L 197.429635 256.560366 
L 201.991359 259.521448 
L 206.553084 261.50905 
L 211.114809 260.284791 
L 215.676533 261.749352 
L 220.238258 260.95179 
L 224.799983 263.785453 
L 229.361707 267.265469 
L 233.923432 268.31122 
L 238.485157 273.021457 
L 243.046882 269.42694 
L 247.608606 273.903994 
L 252.170331 276.644112 
L 256.732056 278.007923 
L 261.29378 280.994364 
L 265.855505 280.214438 
L 270.41723 280.45877 
L 274.978954 280.636849 
L 279.540679 287.909309 
L 284.102404 293.711484 
L 288.664128 288.11528 
L 293.225853 297.658477 
L 297.787578 297.258245 
L 302.349303 298.425597 
L 306.911027 302.885931 
L 311.472752 294.071173 
L 316.034477 300.147297 
L 320.596201 300.342643 
L 325.157926 301.238889 
L 329.719651 293.50121 
L 334.281375 294.675359 
L 338.8431 293.624254 
L 343.404825 294.079463 
L 347.966549 293.363006 
L 352.528274 296.553234 
L 357.089999 295.029932 
L 361.651724 298.137575 
L 366.213448 299.0713 
L 370.775173 299.291862 
L 375.336898 300.35659 
L 379.898622 306.621856 
L 384.460347 312.765386 
L 389.022072 309.155657 
L 393.583796 307.298872 
L 398.145521 306.415054 
L 402.707246 304.180584 
L 407.26897 308.127033 
L 411.830695 310.348978 
L 416.39242 307.674323 
L 420.954145 311.74279 
L 425.515869 318.832271 
L 430.077594 313.701552 
L 434.639319 313.176483 
L 439.201043 314.956488 
L 443.762768 314.157282 
L 448.324493 310.68061 
L 452.886217 311.717857 
L 457.447942 312.221717 
L 462.009667 315.448301 
L 466.571391 312.652838 
L 471.133116 316.063401 
L 475.694841 317.702632 
L 480.256566 316.779789 
L 484.81829 315.984445 
L 489.380015 313.776443 
L 493.94174 312.743376 
L 498.503464 315.03351 
L 503.065189 318.921685 
L 507.626914 320.526415 
L 512.188638 316.197338 
L 516.750363 317.641907 
" clip-path="url(#pe2860f52be)" style="fill: none; stroke: #8b2be2; stroke-width: 1.5; stroke-linecap: round"/>
   </g>
   <g id="line2d_15">
    <path d="M 65.139619 309.695108 
L 69.701343 275.096208 
L 74.263068 260.854304 
L 78.824793 246.092817 
L 83.386517 243.921226 
L 87.948242 240.483985 
L 92.509967 237.419777 
L 97.071691 237.539681 
L 101.633416 235.781092 
L 106.195141 235.807738 
L 110.756865 233.036628 
L 115.31859 213.265828 
L 119.880315 216.396649 
L 124.44204 206.791025 
L 129.003764 203.660204 
L 133.565489 196.066298 
L 138.127214 196.519268 
L 142.688938 196.825689 
L 147.250663 192.788928 
L 151.812388 191.363406 
L 156.374112 192.04286 
L 160.935837 191.043662 
L 165.497562 191.483309 
L 170.059286 189.711398 
L 174.621011 188.046068 
L 179.182736 189.005298 
L 183.744461 187.80626 
L 188.306185 187.952809 
L 192.86791 189.404977 
L 197.429635 186.553932 
L 201.991359 186.274157 
L 206.553084 187.526485 
L 211.114809 186.34077 
L 215.676533 188.165972 
L 220.238258 186.926966 
L 224.799983 186.740449 
L 229.361707 186.900321 
L 233.923432 188.792136 
L 238.485157 185.234991 
L 243.046882 185.288281 
L 247.608606 186.713804 
L 252.170331 177.401277 
L 256.732056 167.342683 
L 261.29378 170.846538 
L 265.855505 170.633375 
L 270.41723 163.452472 
L 274.978954 155.005917 
L 279.540679 158.336577 
L 284.102404 149.1706 
L 288.664128 143.01554 
L 293.225853 150.609445 
L 297.787578 136.420832 
L 302.349303 127.201564 
L 306.911027 145.347002 
L 311.472752 134.755502 
L 316.034477 129.799479 
L 320.596201 141.776534 
L 325.157926 136.727253 
L 329.719651 139.098683 
L 334.281375 128.813604 
L 338.8431 126.189043 
L 343.404825 133.862885 
L 347.966549 122.525317 
L 352.528274 119.994015 
L 357.089999 113.239436 
L 361.651724 118.688396 
L 366.213448 117.249551 
L 370.775173 109.229321 
L 375.336898 108.363349 
L 379.898622 110.814715 
L 384.460347 114.531732 
L 389.022072 106.538147 
L 393.583796 112.226915 
L 398.145521 111.174426 
L 402.707246 112.226915 
L 407.26897 116.170417 
L 411.830695 107.270892 
L 416.39242 116.796581 
L 420.954145 105.632208 
L 425.515869 119.887434 
L 430.077594 118.874913 
L 434.639319 106.897858 
L 439.201043 119.874111 
L 443.762768 117.64923 
L 448.324493 116.543451 
L 452.886217 106.018564 
L 457.447942 108.136864 
L 462.009667 107.563991 
L 466.571391 102.754517 
L 471.133116 100.076666 
L 475.694841 105.738789 
L 480.256566 98.477949 
L 484.81829 100.010053 
L 489.380015 104.259975 
L 493.94174 99.503792 
L 498.503464 110.255164 
L 503.065189 103.2741 
L 507.626914 97.758526 
L 512.188638 109.535742 
L 516.750363 96.46623 
" clip-path="url(#pe2860f52be)" style="fill: none; stroke: #023eff; stroke-width: 2; stroke-linecap: round"/>
   </g>
   <g id="line2d_16">
    <path d="M 56.23 107.364151 
L 522.797024 107.364151 
" clip-path="url(#pe2860f52be)" style="fill: none; stroke-dasharray: 1.25,2.0625; stroke-dashoffset: 0; stroke: #000000; stroke-opacity: 0.6; stroke-width: 1.25"/>
   </g>
   <g id="patch_3">
    <path d="M 56.23 328.52 
L 56.23 46.08 
" style="fill: none; stroke: #ffffff; stroke-width: 0.8; stroke-linejoin: miter; stroke-linecap: square"/>
   </g>
   <g id="patch_4">
    <path d="M 522.797024 328.52 
L 522.797024 46.08 
" style="fill: none; stroke: #ffffff; stroke-width: 0.8; stroke-linejoin: miter; stroke-linecap: square"/>
   </g>
   <g id="patch_5">
    <path d="M 56.23 328.52 
L 522.797024 328.52 
" style="fill: none; stroke: #ffffff; stroke-width: 0.8; stroke-linejoin: miter; stroke-linecap: square"/>
   </g>
   <g id="patch_6">
    <path d="M 56.23 46.08 
L 522.797024 46.08 
" style="fill: none; stroke: #ffffff; stroke-width: 0.8; stroke-linejoin: miter; stroke-linecap: square"/>
   </g>
  </g>
  <g id="text_9">
   <!-- CMU-Net | P -->
   <g style="fill: #262626" transform="translate(189.075 25.54125) scale(0.24 -0.24)">
    <defs>
     <path id="DejaVuSans-Bold-43" d="M 4288 256 
Q 3956 84 3597 -3 
Q 3238 -91 2847 -91 
Q 1681 -91 1000 561 
Q 319 1213 319 2328 
Q 319 3447 1000 4098 
Q 1681 4750 2847 4750 
Q 3238 4750 3597 4662 
Q 3956 4575 4288 4403 
L 4288 3438 
Q 3953 3666 3628 3772 
Q 3303 3878 2944 3878 
Q 2300 3878 1931 3465 
Q 1563 3053 1563 2328 
Q 1563 1606 1931 1193 
Q 2300 781 2944 781 
Q 3303 781 3628 887 
Q 3953 994 4288 1222 
L 4288 256 
z
" transform="scale(0.015625)"/>
     <path id="DejaVuSans-Bold-4d" d="M 588 4666 
L 2119 4666 
L 3181 2169 
L 4250 4666 
L 5778 4666 
L 5778 0 
L 4641 0 
L 4641 3413 
L 3566 897 
L 2803 897 
L 1728 3413 
L 1728 0 
L 588 0 
L 588 4666 
z
" transform="scale(0.015625)"/>
     <path id="DejaVuSans-Bold-55" d="M 588 4666 
L 1791 4666 
L 1791 1869 
Q 1791 1291 1980 1042 
Q 2169 794 2597 794 
Q 3028 794 3217 1042 
Q 3406 1291 3406 1869 
L 3406 4666 
L 4609 4666 
L 4609 1869 
Q 4609 878 4112 393 
Q 3616 -91 2597 -91 
Q 1581 -91 1084 393 
Q 588 878 588 1869 
L 588 4666 
z
" transform="scale(0.015625)"/>
     <path id="DejaVuSans-Bold-2d" d="M 347 2297 
L 2309 2297 
L 2309 1388 
L 347 1388 
L 347 2297 
z
" transform="scale(0.015625)"/>
     <path id="DejaVuSans-Bold-4e" d="M 588 4666 
L 1931 4666 
L 3628 1466 
L 3628 4666 
L 4769 4666 
L 4769 0 
L 3425 0 
L 1728 3200 
L 1728 0 
L 588 0 
L 588 4666 
z
" transform="scale(0.015625)"/>
     <path id="DejaVuSans-Bold-65" d="M 4031 1759 
L 4031 1441 
L 1416 1441 
Q 1456 1047 1700 850 
Q 1944 653 2381 653 
Q 2734 653 3104 758 
Q 3475 863 3866 1075 
L 3866 213 
Q 3469 63 3072 -14 
Q 2675 -91 2278 -91 
Q 1328 -91 801 392 
Q 275 875 275 1747 
Q 275 2603 792 3093 
Q 1309 3584 2216 3584 
Q 3041 3584 3536 3087 
Q 4031 2591 4031 1759 
z
M 2881 2131 
Q 2881 2450 2695 2645 
Q 2509 2841 2209 2841 
Q 1884 2841 1681 2658 
Q 1478 2475 1428 2131 
L 2881 2131 
z
" transform="scale(0.015625)"/>
     <path id="DejaVuSans-Bold-74" d="M 1759 4494 
L 1759 3500 
L 2913 3500 
L 2913 2700 
L 1759 2700 
L 1759 1216 
Q 1759 972 1856 886 
Q 1953 800 2241 800 
L 2816 800 
L 2816 0 
L 1856 0 
Q 1194 0 917 276 
Q 641 553 641 1216 
L 641 2700 
L 84 2700 
L 84 3500 
L 641 3500 
L 641 4494 
L 1759 4494 
z
" transform="scale(0.015625)"/>
     <path id="DejaVuSans-Bold-20" transform="scale(0.015625)"/>
     <path id="DejaVuSans-Bold-7c" d="M 1522 4891 
L 1522 -1509 
L 813 -1509 
L 813 4891 
L 1522 4891 
z
" transform="scale(0.015625)"/>
     <path id="DejaVuSans-Bold-50" d="M 588 4666 
L 2584 4666 
Q 3475 4666 3951 4270 
Q 4428 3875 4428 3144 
Q 4428 2409 3951 2014 
Q 3475 1619 2584 1619 
L 1791 1619 
L 1791 0 
L 588 0 
L 588 4666 
z
M 1791 3794 
L 1791 2491 
L 2456 2491 
Q 2806 2491 2997 2661 
Q 3188 2831 3188 3144 
Q 3188 3456 2997 3625 
Q 2806 3794 2456 3794 
L 1791 3794 
z
" transform="scale(0.015625)"/>
    </defs>
    <use xlink:href="#DejaVuSans-Bold-43"/>
    <use xlink:href="#DejaVuSans-Bold-4d" transform="translate(73.388672 0)"/>
    <use xlink:href="#DejaVuSans-Bold-55" transform="translate(172.900391 0)"/>
    <use xlink:href="#DejaVuSans-Bold-2d" transform="translate(254.101562 0)"/>
    <use xlink:href="#DejaVuSans-Bold-4e" transform="translate(295.605469 0)"/>
    <use xlink:href="#DejaVuSans-Bold-65" transform="translate(379.296875 0)"/>
    <use xlink:href="#DejaVuSans-Bold-74" transform="translate(447.119141 0)"/>
    <use xlink:href="#DejaVuSans-Bold-20" transform="translate(494.921875 0)"/>
    <use xlink:href="#DejaVuSans-Bold-7c" transform="translate(529.736328 0)"/>
    <use xlink:href="#DejaVuSans-Bold-20" transform="translate(566.259766 0)"/>
    <use xlink:href="#DejaVuSans-Bold-50" transform="translate(601.074219 0)"/>
   </g>
  </g>
 </g>
 <defs>
  <clipPath id="pe2860f52be">
   <rect x="56.23" y="46.08" width="466.567024" height="282.44"/>
  </clipPath>
 </defs>
</svg>
