<?xml version="1.0" encoding="utf-8" standalone="no"?>
<!DOCTYPE svg PUBLIC "-//W3C//DTD SVG 1.1//EN"
  "http://www.w3.org/Graphics/SVG/1.1/DTD/svg11.dtd">
<svg xmlns:xlink="http://www.w3.org/1999/xlink" width="540pt" height="360pt" viewBox="0 0 540 360" xmlns="http://www.w3.org/2000/svg" version="1.1">
 <metadata>
  <rdf:RDF xmlns:dc="http://purl.org/dc/elements/1.1/" xmlns:cc="http://creativecommons.org/ns#" xmlns:rdf="http://www.w3.org/1999/02/22-rdf-syntax-ns#">
   <cc:Work>
    <dc:type rdf:resource="http://purl.org/dc/dcmitype/StillImage"/>
    <dc:date>2025-08-04T02:53:24.527632</dc:date>
    <dc:format>image/svg+xml</dc:format>
    <dc:creator>
     <cc:Agent>
      <dc:title>Matplotlib v3.10.0, https://matplotlib.org/</dc:title>
     </cc:Agent>
    </dc:creator>
   </cc:Work>
  </rdf:RDF>
 </metadata>
 <defs>
  <style type="text/css">*{stroke-linejoin: round; stroke-linecap: butt}</style>
 </defs>
 <g id="figure_1">
  <g id="patch_1">
   <path d="M 0 360 
L 540 360 
L 540 0 
L 0 0 
z
" style="fill: #ffffff"/>
  </g>
  <g id="axes_1">
   <g id="patch_2">
    <path d="M 10.8 328.52 
L 522.797024 328.52 
L 522.797024 46.08 
L 10.8 46.08 
z
" style="fill: #eaeaf2"/>
   </g>
   <g id="matplotlib.axis_1">
    <g id="xtick_1">
     <g id="line2d_1">
      <path d="M 20.577155 328.52 
L 20.577155 46.08 
" clip-path="url(#p9f0b290d71)" style="fill: none; stroke: #ffffff; stroke-width: 0.8; stroke-linecap: round"/>
     </g>
     <g id="text_1">
      <!-- 0 -->
      <g style="fill: #262626" transform="translate(16.123405 346.157812) scale(0.14 -0.14)">
       <defs>
        <path id="DejaVuSans-30" d="M 2034 4250 
Q 1547 4250 1301 3770 
Q 1056 3291 1056 2328 
Q 1056 1369 1301 889 
Q 1547 409 2034 409 
Q 2525 409 2770 889 
Q 3016 1369 3016 2328 
Q 3016 3291 2770 3770 
Q 2525 4250 2034 4250 
z
M 2034 4750 
Q 2819 4750 3233 4129 
Q 3647 3509 3647 2328 
Q 3647 1150 3233 529 
Q 2819 -91 2034 -91 
Q 1250 -91 836 529 
Q 422 1150 422 2328 
Q 422 3509 836 4129 
Q 1250 4750 2034 4750 
z
" transform="scale(0.015625)"/>
       </defs>
       <use xlink:href="#DejaVuSans-30"/>
      </g>
     </g>
    </g>
    <g id="xtick_2">
     <g id="line2d_2">
      <path d="M 509.434912 328.52 
L 509.434912 46.08 
" clip-path="url(#p9f0b290d71)" style="fill: none; stroke: #ffffff; stroke-width: 0.8; stroke-linecap: round"/>
     </g>
     <g id="text_2">
      <!-- 600k -->
      <g style="fill: #262626" transform="translate(492.020225 346.157812) scale(0.14 -0.14)">
       <defs>
        <path id="DejaVuSans-36" d="M 2113 2584 
Q 1688 2584 1439 2293 
Q 1191 2003 1191 1497 
Q 1191 994 1439 701 
Q 1688 409 2113 409 
Q 2538 409 2786 701 
Q 3034 994 3034 1497 
Q 3034 2003 2786 2293 
Q 2538 2584 2113 2584 
z
M 3366 4563 
L 3366 3988 
Q 3128 4100 2886 4159 
Q 2644 4219 2406 4219 
Q 1781 4219 1451 3797 
Q 1122 3375 1075 2522 
Q 1259 2794 1537 2939 
Q 1816 3084 2150 3084 
Q 2853 3084 3261 2657 
Q 3669 2231 3669 1497 
Q 3669 778 3244 343 
Q 2819 -91 2113 -91 
Q 1303 -91 875 529 
Q 447 1150 447 2328 
Q 447 3434 972 4092 
Q 1497 4750 2381 4750 
Q 2619 4750 2861 4703 
Q 3103 4656 3366 4563 
z
" transform="scale(0.015625)"/>
        <path id="DejaVuSans-6b" d="M 581 4863 
L 1159 4863 
L 1159 1991 
L 2875 3500 
L 3609 3500 
L 1753 1863 
L 3688 0 
L 2938 0 
L 1159 1709 
L 1159 0 
L 581 0 
L 581 4863 
z
" transform="scale(0.015625)"/>
       </defs>
       <use xlink:href="#DejaVuSans-36"/>
       <use xlink:href="#DejaVuSans-30" transform="translate(63.623047 0)"/>
       <use xlink:href="#DejaVuSans-30" transform="translate(127.246094 0)"/>
       <use xlink:href="#DejaVuSans-6b" transform="translate(190.869141 0)"/>
      </g>
     </g>
    </g>
   </g>
   <g id="matplotlib.axis_2">
    <g id="ytick_1">
     <g id="line2d_3">
      <path d="M 10.8 323.476429 
L 522.797024 323.476429 
" clip-path="url(#p9f0b290d71)" style="fill: none; stroke: #ffffff; stroke-width: 0.8; stroke-linecap: round"/>
     </g>
    </g>
    <g id="ytick_2">
     <g id="line2d_4">
      <path d="M 10.8 291.954107 
L 522.797024 291.954107 
" clip-path="url(#p9f0b290d71)" style="fill: none; stroke: #ffffff; stroke-width: 0.8; stroke-linecap: round"/>
     </g>
    </g>
    <g id="ytick_3">
     <g id="line2d_5">
      <path d="M 10.8 260.431786 
L 522.797024 260.431786 
" clip-path="url(#p9f0b290d71)" style="fill: none; stroke: #ffffff; stroke-width: 0.8; stroke-linecap: round"/>
     </g>
    </g>
    <g id="ytick_4">
     <g id="line2d_6">
      <path d="M 10.8 228.909464 
L 522.797024 228.909464 
" clip-path="url(#p9f0b290d71)" style="fill: none; stroke: #ffffff; stroke-width: 0.8; stroke-linecap: round"/>
     </g>
    </g>
    <g id="ytick_5">
     <g id="line2d_7">
      <path d="M 10.8 197.387143 
L 522.797024 197.387143 
" clip-path="url(#p9f0b290d71)" style="fill: none; stroke: #ffffff; stroke-width: 0.8; stroke-linecap: round"/>
     </g>
    </g>
    <g id="ytick_6">
     <g id="line2d_8">
      <path d="M 10.8 165.864821 
L 522.797024 165.864821 
" clip-path="url(#p9f0b290d71)" style="fill: none; stroke: #ffffff; stroke-width: 0.8; stroke-linecap: round"/>
     </g>
    </g>
    <g id="ytick_7">
     <g id="line2d_9">
      <path d="M 10.8 134.3425 
L 522.797024 134.3425 
" clip-path="url(#p9f0b290d71)" style="fill: none; stroke: #ffffff; stroke-width: 0.8; stroke-linecap: round"/>
     </g>
    </g>
    <g id="ytick_8">
     <g id="line2d_10">
      <path d="M 10.8 102.820179 
L 522.797024 102.820179 
" clip-path="url(#p9f0b290d71)" style="fill: none; stroke: #ffffff; stroke-width: 0.8; stroke-linecap: round"/>
     </g>
    </g>
    <g id="ytick_9">
     <g id="line2d_11">
      <path d="M 10.8 71.297857 
L 522.797024 71.297857 
" clip-path="url(#p9f0b290d71)" style="fill: none; stroke: #ffffff; stroke-width: 0.8; stroke-linecap: round"/>
     </g>
    </g>
   </g>
   <g id="FillBetweenPolyCollection_1">
    <path d="M 20.577155 70.744716 
L 20.577155 86.28764 
L 22.24579 89.692793 
L 23.914424 95.849501 
L 25.583059 103.721714 
L 27.251693 112.277411 
L 28.920328 120.794117 
L 30.588962 128.969221 
L 32.257596 136.832752 
L 33.926231 144.532325 
L 35.594865 152.108722 
L 37.2635 159.431954 
L 38.932134 166.357461 
L 40.600769 172.92951 
L 42.269403 179.395079 
L 43.938038 186.010902 
L 45.606672 192.863302 
L 47.275307 199.859027 
L 48.943941 206.807744 
L 50.612576 213.47009 
L 52.28121 219.607327 
L 53.949845 225.091551 
L 55.618479 229.988402 
L 57.287114 234.492774 
L 58.955748 238.766747 
L 60.624383 242.855152 
L 62.293017 246.768922 
L 63.961652 250.613066 
L 65.630286 254.568174 
L 67.298921 258.736169 
L 68.967555 263.04833 
L 70.636189 267.338668 
L 72.304824 271.471671 
L 73.973458 275.3828 
L 75.642093 279.03395 
L 77.310727 282.379821 
L 78.979362 285.392652 
L 80.647996 288.100385 
L 82.316631 290.5852 
L 83.985265 292.949196 
L 85.6539 295.273094 
L 87.322534 297.571337 
L 88.991169 299.778345 
L 90.659803 301.804209 
L 92.328438 303.609187 
L 93.997072 305.208183 
L 95.665707 306.617752 
L 97.334341 307.835386 
L 99.002976 308.881869 
L 100.67161 309.83412 
L 102.340245 310.779726 
L 104.008879 311.743531 
L 105.677513 312.690376 
L 107.346148 313.594416 
L 109.014782 314.470914 
L 110.683417 315.341813 
L 112.352051 316.203721 
L 114.020686 317.035035 
L 115.68932 317.810979 
L 117.357955 318.496562 
L 119.026589 319.038823 
L 120.695224 319.39285 
L 122.363858 319.568146 
L 124.032493 319.638142 
L 125.701127 319.692827 
L 127.369762 319.787084 
L 129.038396 319.934409 
L 130.707031 320.135739 
L 132.375665 320.40085 
L 134.0443 320.736366 
L 135.712934 321.122292 
L 137.381569 321.519925 
L 139.050203 321.900431 
L 140.718838 322.247435 
L 142.387472 322.537747 
L 144.056106 322.743942 
L 145.724741 322.858915 
L 147.393375 322.905121 
L 149.06201 322.916793 
L 150.730644 322.916845 
L 152.399279 322.910402 
L 154.067913 322.904729 
L 155.736548 322.933276 
L 157.405182 323.042803 
L 159.073817 323.250889 
L 160.742451 323.530982 
L 162.411086 323.84035 
L 164.07972 324.142923 
L 165.748355 324.408063 
L 167.416989 324.616268 
L 169.085624 324.775823 
L 170.754258 324.91847 
L 172.422893 325.069888 
L 174.091527 325.226753 
L 175.760162 325.360267 
L 177.428796 325.438563 
L 179.09743 325.449605 
L 180.766065 325.411569 
L 182.434699 325.364544 
L 184.103334 325.347739 
L 185.771968 325.378746 
L 187.440603 325.450519 
L 189.109237 325.535417 
L 190.777872 325.587521 
L 192.446506 325.566082 
L 194.115141 325.479535 
L 195.783775 325.393316 
L 197.45241 325.369309 
L 199.121044 325.399276 
L 200.789679 325.414932 
L 202.458313 325.363736 
L 204.126948 325.258793 
L 205.795582 325.15398 
L 207.464217 325.094044 
L 209.132851 325.102835 
L 210.801486 325.196245 
L 212.47012 325.374618 
L 214.138755 325.601279 
L 215.807389 325.805952 
L 217.476023 325.921316 
L 219.144658 325.921068 
L 220.813292 325.830291 
L 222.481927 325.703311 
L 224.150561 325.594148 
L 225.819196 325.54422 
L 227.48783 325.576512 
L 229.156465 325.679714 
L 230.825099 325.804925 
L 232.493734 325.896895 
L 234.162368 325.93133 
L 235.831003 325.917982 
L 237.499637 325.874738 
L 239.168272 325.806705 
L 240.836906 325.707196 
L 242.505541 325.574403 
L 244.174175 325.428836 
L 245.84281 325.308956 
L 247.511444 325.234425 
L 249.180079 325.174014 
L 250.848713 325.068691 
L 252.517347 324.890744 
L 254.185982 324.668267 
L 255.854616 324.446942 
L 257.523251 324.232988 
L 259.191885 323.981428 
L 260.86052 323.64859 
L 262.529154 323.254822 
L 264.197789 322.887261 
L 265.866423 322.641342 
L 267.535058 322.561812 
L 269.203692 322.62831 
L 270.872327 322.779972 
L 272.540961 322.951422 
L 274.209596 323.097608 
L 275.87823 323.198973 
L 277.546865 323.252858 
L 279.215499 323.264599 
L 280.884134 323.243258 
L 282.552768 323.199375 
L 284.221403 323.14556 
L 285.890037 323.099647 
L 287.558672 323.081211 
L 289.227306 323.099471 
L 290.89594 323.147795 
L 292.564575 323.214147 
L 294.233209 323.293902 
L 295.901844 323.389773 
L 297.570478 323.502698 
L 299.239113 323.623115 
L 300.907747 323.727683 
L 302.576382 323.789069 
L 304.245016 323.796924 
L 305.913651 323.767442 
L 307.582285 323.727911 
L 309.25092 323.694357 
L 310.919554 323.665039 
L 312.588189 323.629379 
L 314.256823 323.579446 
L 315.925458 323.515818 
L 317.594092 323.44649 
L 319.262727 323.382619 
L 320.931361 323.335637 
L 322.599996 323.315299 
L 324.26863 323.325017 
L 325.937264 323.356867 
L 327.605899 323.39395 
L 329.274533 323.420527 
L 330.943168 323.429801 
L 332.611802 323.422154 
L 334.280437 323.399787 
L 335.949071 323.366914 
L 337.617706 323.33367 
L 339.28634 323.314152 
L 340.954975 323.317266 
L 342.623609 323.340574 
L 344.292244 323.375073 
L 345.960878 323.416344 
L 347.629513 323.470741 
L 349.298147 323.549218 
L 350.966782 323.652689 
L 352.635416 323.763211 
L 354.304051 323.850748 
L 355.972685 323.889546 
L 357.64132 323.870947 
L 359.309954 323.805531 
L 360.978589 323.715155 
L 362.647223 323.621451 
L 364.315857 323.540102 
L 365.984492 323.481123 
L 367.653126 323.447438 
L 369.321761 323.432643 
L 370.990395 323.4261 
L 372.65903 323.421878 
L 374.327664 323.420263 
L 375.996299 323.422872 
L 377.664933 323.430049 
L 379.333568 323.440833 
L 381.002202 323.451549 
L 382.670837 323.454882 
L 384.339471 323.443979 
L 386.008106 323.420437 
L 387.67674 323.39801 
L 389.345375 323.395298 
L 391.014009 323.421876 
L 392.682644 323.469576 
L 394.351278 323.515073 
L 396.019913 323.531141 
L 397.688547 323.501198 
L 399.357181 323.43011 
L 401.025816 323.343662 
L 402.69445 323.275223 
L 404.363085 323.246797 
L 406.031719 323.256787 
L 407.700354 323.284869 
L 409.368988 323.310495 
L 411.037623 323.326218 
L 412.706257 323.333705 
L 414.374892 323.333785 
L 416.043526 323.326895 
L 417.712161 323.320157 
L 419.380795 323.325892 
L 421.04943 323.350092 
L 422.718064 323.385807 
L 424.386699 323.420857 
L 426.055333 323.449666 
L 427.723968 323.473807 
L 429.392602 323.492599 
L 431.061237 323.498197 
L 432.729871 323.482397 
L 434.398506 323.446845 
L 436.06714 323.40478 
L 437.735774 323.373561 
L 439.404409 323.366853 
L 441.073043 323.391694 
L 442.741678 323.447015 
L 444.410312 323.521823 
L 446.078947 323.598428 
L 447.747581 323.662637 
L 449.416216 323.712914 
L 451.08485 323.759378 
L 452.753485 323.812617 
L 454.422119 323.87231 
L 456.090754 323.926619 
L 457.759388 323.961937 
L 459.428023 323.972939 
L 461.096657 323.964759 
L 462.765292 323.946961 
L 464.433926 323.925699 
L 466.102561 323.902436 
L 467.771195 323.879245 
L 469.43983 323.861142 
L 471.108464 323.851417 
L 472.777098 323.848009 
L 474.445733 323.847256 
L 476.114367 323.850084 
L 477.783002 323.863103 
L 479.451636 323.893483 
L 481.120271 323.942225 
L 482.788905 324.001881 
L 484.45754 324.06082 
L 486.126174 324.109989 
L 487.794809 324.145938 
L 489.463443 324.168314 
L 491.132078 324.175985 
L 492.800712 324.167379 
L 494.469347 324.144289 
L 496.137981 324.113325 
L 497.806616 324.083008 
L 499.47525 324.059186 
L 501.143885 324.041133 
L 502.812519 324.021871 
L 504.481154 323.995786 
L 506.149788 323.967592 
L 507.818423 323.950954 
L 509.487057 323.955965 
L 511.155691 323.979195 
L 512.824326 324.007522 
L 514.49296 324.030764 
L 516.161595 324.048192 
L 517.830229 324.062549 
L 519.498864 324.072009 
L 519.498864 322.686983 
L 519.498864 322.686983 
L 517.830229 322.674248 
L 516.161595 322.652072 
L 514.49296 322.630045 
L 512.824326 322.618011 
L 511.155691 322.615652 
L 509.487057 322.614024 
L 507.818423 322.606507 
L 506.149788 322.593269 
L 504.481154 322.577128 
L 502.812519 322.560066 
L 501.143885 322.542251 
L 499.47525 322.520703 
L 497.806616 322.490291 
L 496.137981 322.449273 
L 494.469347 322.405008 
L 492.800712 322.373018 
L 491.132078 322.367733 
L 489.463443 322.391096 
L 487.794809 322.429941 
L 486.126174 322.465703 
L 484.45754 322.487059 
L 482.788905 322.493301 
L 481.120271 322.488983 
L 479.451636 322.478471 
L 477.783002 322.463588 
L 476.114367 322.441933 
L 474.445733 322.406944 
L 472.777098 322.351908 
L 471.108464 322.275237 
L 469.43983 322.18269 
L 467.771195 322.084952 
L 466.102561 321.990812 
L 464.433926 321.899605 
L 462.765292 321.80169 
L 461.096657 321.691581 
L 459.428023 321.582465 
L 457.759388 321.504875 
L 456.090754 321.487138 
L 454.422119 321.534921 
L 452.753485 321.627956 
L 451.08485 321.734853 
L 449.416216 321.831127 
L 447.747581 321.906195 
L 446.078947 321.958333 
L 444.410312 321.987148 
L 442.741678 321.990639 
L 441.073043 321.967407 
L 439.404409 321.920313 
L 437.735774 321.857118 
L 436.06714 321.789397 
L 434.398506 321.733215 
L 432.729871 321.706055 
L 431.061237 321.714785 
L 429.392602 321.744964 
L 427.723968 321.766769 
L 426.055333 321.755344 
L 424.386699 321.705886 
L 422.718064 321.628924 
L 421.04943 321.534743 
L 419.380795 321.428462 
L 417.712161 321.31987 
L 416.043526 321.228436 
L 414.374892 321.171372 
L 412.706257 321.149276 
L 411.037623 321.148893 
L 409.368988 321.158153 
L 407.700354 321.172421 
L 406.031719 321.184024 
L 404.363085 321.172015 
L 402.69445 321.111416 
L 401.025816 320.996335 
L 399.357181 320.852732 
L 397.688547 320.725831 
L 396.019913 320.65068 
L 394.351278 320.628839 
L 392.682644 320.63037 
L 391.014009 320.619565 
L 389.345375 320.581644 
L 387.67674 320.526948 
L 386.008106 320.47187 
L 384.339471 320.419831 
L 382.670837 320.362041 
L 381.002202 320.290785 
L 379.333568 320.20284 
L 377.664933 320.090583 
L 375.996299 319.942779 
L 374.327664 319.764474 
L 372.65903 319.590425 
L 370.990395 319.463492 
L 369.321761 319.393737 
L 367.653126 319.346156 
L 365.984492 319.270155 
L 364.315857 319.131152 
L 362.647223 318.917504 
L 360.978589 318.642135 
L 359.309954 318.350132 
L 357.64132 318.108431 
L 355.972685 317.970286 
L 354.304051 317.948752 
L 352.635416 318.023145 
L 350.966782 318.161559 
L 349.298147 318.335572 
L 347.629513 318.524398 
L 345.960878 318.713114 
L 344.292244 318.884958 
L 342.623609 319.013601 
L 340.954975 319.066246 
L 339.28634 319.018193 
L 337.617706 318.868559 
L 335.949071 318.644215 
L 334.280437 318.387504 
L 332.611802 318.138063 
L 330.943168 317.923604 
L 329.274533 317.758623 
L 327.605899 317.641121 
L 325.937264 317.551848 
L 324.26863 317.469239 
L 322.599996 317.3897 
L 320.931361 317.323713 
L 319.262727 317.269994 
L 317.594092 317.206771 
L 315.925458 317.112948 
L 314.256823 316.985652 
L 312.588189 316.833204 
L 310.919554 316.660978 
L 309.25092 316.4681 
L 307.582285 316.254007 
L 305.913651 316.030433 
L 304.245016 315.832039 
L 302.576382 315.70699 
L 300.907747 315.683486 
L 299.239113 315.74478 
L 297.570478 315.842578 
L 295.901844 315.934089 
L 294.233209 316.007489 
L 292.564575 316.080013 
L 290.89594 316.173669 
L 289.227306 316.286911 
L 287.558672 316.384941 
L 285.890037 316.414477 
L 284.221403 316.330707 
L 282.552768 316.123939 
L 280.884134 315.831104 
L 279.215499 315.517849 
L 277.546865 315.238856 
L 275.87823 315.003774 
L 274.209596 314.767345 
L 272.540961 314.438828 
L 270.872327 313.897108 
L 269.203692 313.00865 
L 267.535058 311.662934 
L 265.866423 309.834517 
L 264.197789 307.649705 
L 262.529154 305.395689 
L 260.86052 303.409967 
L 259.191885 301.884357 
L 257.523251 300.750136 
L 255.854616 299.783137 
L 254.185982 298.837942 
L 252.517347 297.96548 
L 250.848713 297.308918 
L 249.180079 296.919822 
L 247.511444 296.695882 
L 245.84281 296.484496 
L 244.174175 296.210842 
L 242.505541 295.883836 
L 240.836906 295.518578 
L 239.168272 295.108425 
L 237.499637 294.652693 
L 235.831003 294.170904 
L 234.162368 293.707325 
L 232.493734 293.33845 
L 230.825099 293.134053 
L 229.156465 293.072209 
L 227.48783 293.015212 
L 225.819196 292.807528 
L 224.150561 292.396853 
L 222.481927 291.853069 
L 220.813292 291.310135 
L 219.144658 290.914977 
L 217.476023 290.771448 
L 215.807389 290.855785 
L 214.138755 290.994623 
L 212.47012 290.984843 
L 210.801486 290.754361 
L 209.132851 290.391551 
L 207.464217 290.017299 
L 205.795582 289.655755 
L 204.126948 289.246858 
L 202.458313 288.767703 
L 200.789679 288.284638 
L 199.121044 287.850012 
L 197.45241 287.405878 
L 195.783775 286.87991 
L 194.115141 286.357548 
L 192.446506 286.055743 
L 190.777872 286.100509 
L 189.109237 286.402776 
L 187.440603 286.78054 
L 185.771968 287.130148 
L 184.103334 287.429138 
L 182.434699 287.636563 
L 180.766065 287.678912 
L 179.09743 287.548346 
L 177.428796 287.368142 
L 175.760162 287.305985 
L 174.091527 287.403904 
L 172.422893 287.52711 
L 170.754258 287.496498 
L 169.085624 287.245637 
L 167.416989 286.847842 
L 165.748355 286.437148 
L 164.07972 286.128963 
L 162.411086 285.979222 
L 160.742451 285.960885 
L 159.073817 285.956273 
L 157.405182 285.803455 
L 155.736548 285.410073 
L 154.067913 284.843391 
L 152.399279 284.279122 
L 150.730644 283.849909 
L 149.06201 283.563149 
L 147.393375 283.357949 
L 145.724741 283.196881 
L 144.056106 283.083232 
L 142.387472 283.018795 
L 140.718838 282.981011 
L 139.050203 282.944889 
L 137.381569 282.905179 
L 135.712934 282.860281 
L 134.0443 282.786581 
L 132.375665 282.640266 
L 130.707031 282.374305 
L 129.038396 281.955068 
L 127.369762 281.391906 
L 125.701127 280.757103 
L 124.032493 280.144461 
L 122.363858 279.598373 
L 120.695224 279.094412 
L 119.026589 278.572974 
L 117.357955 277.979146 
L 115.68932 277.29778 
L 114.020686 276.574786 
L 112.352051 275.886916 
L 110.683417 275.266259 
L 109.014782 274.667639 
L 107.346148 274.028187 
L 105.677513 273.328039 
L 104.008879 272.565148 
L 102.340245 271.705493 
L 100.67161 270.696575 
L 99.002976 269.505346 
L 97.334341 268.126818 
L 95.665707 266.59336 
L 93.997072 264.988497 
L 92.328438 263.417591 
L 90.659803 261.943374 
L 88.991169 260.547378 
L 87.322534 259.143165 
L 85.6539 257.618537 
L 83.985265 255.864832 
L 82.316631 253.794165 
L 80.647996 251.372666 
L 78.979362 248.632105 
L 77.310727 245.607203 
L 75.642093 242.271323 
L 73.973458 238.573027 
L 72.304824 234.513413 
L 70.636189 230.148828 
L 68.967555 225.540225 
L 67.298921 220.735067 
L 65.630286 215.776251 
L 63.961652 210.698364 
L 62.293017 205.519695 
L 60.624383 200.239237 
L 58.955748 194.832018 
L 57.287114 189.249553 
L 55.618479 183.439307 
L 53.949845 177.37594 
L 52.28121 171.08318 
L 50.612576 164.62404 
L 48.943941 158.072498 
L 47.275307 151.507913 
L 45.606672 145.023033 
L 43.938038 138.694518 
L 42.269403 132.531943 
L 40.600769 126.476434 
L 38.932134 120.460005 
L 37.2635 114.468901 
L 35.594865 108.562909 
L 33.926231 102.838744 
L 32.257596 97.371429 
L 30.588962 92.190054 
L 28.920328 87.303669 
L 27.251693 82.739194 
L 25.583059 78.573227 
L 23.914424 74.975863 
L 22.24579 72.243903 
L 20.577155 70.744716 
z
" clip-path="url(#p9f0b290d71)" style="fill: #e8000b; fill-opacity: 0.1"/>
   </g>
   <g id="FillBetweenPolyCollection_2">
    <path d="M 20.577155 35.53243 
L 20.577155 178.02795 
L 22.24579 194.339922 
L 23.914424 221.307643 
L 25.583059 250.385646 
L 27.251693 274.057744 
L 28.920328 288.560589 
L 30.588962 293.944787 
L 32.257596 292.239842 
L 33.926231 285.863005 
L 35.594865 277.295792 
L 37.2635 269.103728 
L 38.932134 263.414975 
L 40.600769 261.247285 
L 42.269403 262.36349 
L 43.938038 265.665871 
L 45.606672 269.673872 
L 47.275307 272.798375 
L 48.943941 273.672218 
L 50.612576 271.827908 
L 52.28121 268.16628 
L 53.949845 264.473268 
L 55.618479 262.34127 
L 57.287114 262.562749 
L 58.955748 265.283001 
L 60.624383 270.267096 
L 62.293017 276.780093 
L 63.961652 283.388936 
L 65.630286 288.335676 
L 67.298921 290.435576 
L 68.967555 289.708341 
L 70.636189 287.173841 
L 72.304824 284.112231 
L 73.973458 281.503245 
L 75.642093 279.975743 
L 77.310727 279.936054 
L 78.979362 281.435358 
L 80.647996 283.971823 
L 82.316631 286.822927 
L 83.985265 289.729389 
L 85.6539 292.934858 
L 87.322534 296.351709 
L 88.991169 299.02473 
L 90.659803 299.757715 
L 92.328438 298.109448 
L 93.997072 294.57419 
L 95.665707 290.020015 
L 97.334341 285.21444 
L 99.002976 280.726895 
L 100.67161 276.915222 
L 102.340245 273.848837 
L 104.008879 271.320693 
L 105.677513 269.017419 
L 107.346148 266.731098 
L 109.014782 264.495734 
L 110.683417 262.604806 
L 112.352051 261.46772 
L 114.020686 261.35805 
L 115.68932 262.282869 
L 117.357955 264.076728 
L 119.026589 266.566822 
L 120.695224 269.684316 
L 122.363858 273.489863 
L 124.032493 277.974562 
L 125.701127 282.687772 
L 127.369762 286.722143 
L 129.038396 289.347196 
L 130.707031 290.632649 
L 132.375665 291.252493 
L 134.0443 291.707369 
L 135.712934 291.854482 
L 137.381569 291.131318 
L 139.050203 289.100457 
L 140.718838 285.8335 
L 142.387472 281.961321 
L 144.056106 278.403671 
L 145.724741 275.862088 
L 147.393375 274.443189 
L 149.06201 273.800344 
L 150.730644 273.630778 
L 152.399279 273.944453 
L 154.067913 274.877781 
L 155.736548 276.401922 
L 157.405182 278.288666 
L 159.073817 280.286597 
L 160.742451 282.259357 
L 162.411086 284.168932 
L 164.07972 286.00706 
L 165.748355 287.776446 
L 167.416989 289.499326 
L 169.085624 291.257519 
L 170.754258 293.212907 
L 172.422893 295.429858 
L 174.091527 297.674379 
L 175.760162 299.617093 
L 177.428796 301.270902 
L 179.09743 302.958928 
L 180.766065 304.814789 
L 182.434699 306.565369 
L 184.103334 307.875238 
L 185.771968 308.714462 
L 187.440603 309.335746 
L 189.109237 309.992472 
L 190.777872 310.67459 
L 192.446506 311.094916 
L 194.115141 311.030236 
L 195.783775 310.702336 
L 197.45241 310.654729 
L 199.121044 311.164277 
L 200.789679 311.937098 
L 202.458313 312.525653 
L 204.126948 312.887204 
L 205.795582 313.322743 
L 207.464217 313.974188 
L 209.132851 314.649297 
L 210.801486 315.1268 
L 212.47012 315.396243 
L 214.138755 315.599544 
L 215.807389 315.950554 
L 217.476023 316.679882 
L 219.144658 317.804745 
L 220.813292 318.923988 
L 222.481927 319.41283 
L 224.150561 318.88228 
L 225.819196 317.432173 
L 227.48783 315.512375 
L 229.156465 313.587837 
L 230.825099 311.914959 
L 232.493734 310.586295 
L 234.162368 309.69744 
L 235.831003 309.372622 
L 237.499637 309.628402 
L 239.168272 310.31663 
L 240.836906 311.226211 
L 242.505541 312.184247 
L 244.174175 313.060085 
L 245.84281 313.733461 
L 247.511444 314.083674 
L 249.180079 314.007854 
L 250.848713 313.487037 
L 252.517347 312.673192 
L 254.185982 311.900119 
L 255.854616 311.552381 
L 257.523251 311.852712 
L 259.191885 312.727017 
L 260.86052 313.872652 
L 262.529154 314.953351 
L 264.197789 315.708286 
L 265.866423 315.927536 
L 267.535058 315.471026 
L 269.203692 314.406704 
L 270.872327 313.037283 
L 272.540961 311.674969 
L 274.209596 310.437915 
L 275.87823 309.351367 
L 277.546865 308.562905 
L 279.215499 308.318127 
L 280.884134 308.740263 
L 282.552768 309.728655 
L 284.221403 311.048834 
L 285.890037 312.441674 
L 287.558672 313.654955 
L 289.227306 314.460993 
L 290.89594 314.747766 
L 292.564575 314.624404 
L 294.233209 314.37816 
L 295.901844 314.26514 
L 297.570478 314.329765 
L 299.239113 314.430719 
L 300.907747 314.393182 
L 302.576382 314.092769 
L 304.245016 313.471643 
L 305.913651 312.610199 
L 307.582285 311.764592 
L 309.25092 311.204689 
L 310.919554 311.016461 
L 312.588189 311.143634 
L 314.256823 311.563558 
L 315.925458 312.309253 
L 317.594092 313.342483 
L 319.262727 314.486432 
L 320.931361 315.501805 
L 322.599996 316.227512 
L 324.26863 316.679098 
L 325.937264 317.021362 
L 327.605899 317.413371 
L 329.274533 317.849816 
L 330.943168 318.145491 
L 332.611802 318.09472 
L 334.280437 317.672926 
L 335.949071 317.085205 
L 337.617706 316.603463 
L 339.28634 316.365414 
L 340.954975 316.335999 
L 342.623609 316.423135 
L 344.292244 316.596646 
L 345.960878 316.908057 
L 347.629513 317.404814 
L 349.298147 318.021164 
L 350.966782 318.564908 
L 352.635416 318.812841 
L 354.304051 318.624825 
L 355.972685 318.024024 
L 357.64132 317.23245 
L 359.309954 316.610724 
L 360.978589 316.474812 
L 362.647223 316.885442 
L 364.315857 317.588987 
L 365.984492 318.198045 
L 367.653126 318.486993 
L 369.321761 318.532725 
L 370.990395 318.577059 
L 372.65903 318.788063 
L 374.327664 319.146623 
L 375.996299 319.503399 
L 377.664933 319.73609 
L 379.333568 319.875891 
L 381.002202 320.075266 
L 382.670837 320.465131 
L 384.339471 321.08506 
L 386.008106 321.923749 
L 387.67674 322.939077 
L 389.345375 324.011423 
L 391.014009 324.94141 
L 392.682644 325.57221 
L 394.351278 325.929704 
L 396.019913 326.194367 
L 397.688547 326.520549 
L 399.357181 326.944507 
L 401.025816 327.468445 
L 402.69445 328.119689 
L 404.363085 328.869332 
L 406.031719 329.58512 
L 407.700354 330.170544 
L 409.368988 330.704049 
L 411.037623 331.318723 
L 412.706257 331.954367 
L 414.374892 332.355682 
L 416.043526 332.345298 
L 417.712161 332.000092 
L 419.380795 331.524118 
L 421.04943 331.032435 
L 422.718064 330.522443 
L 424.386699 330.004876 
L 426.055333 329.566517 
L 427.723968 329.275636 
L 429.392602 329.101463 
L 431.061237 328.992314 
L 432.729871 328.975653 
L 434.398506 329.083028 
L 436.06714 329.18534 
L 437.735774 329.010455 
L 439.404409 328.372288 
L 441.073043 327.347808 
L 442.741678 326.224346 
L 444.410312 325.318791 
L 446.078947 324.839639 
L 447.747581 324.846542 
L 449.416216 325.278446 
L 451.08485 326.018431 
L 452.753485 326.934526 
L 454.422119 327.849405 
L 456.090754 328.50434 
L 457.759388 328.652876 
L 459.428023 328.261533 
L 461.096657 327.594613 
L 462.765292 327.064741 
L 464.433926 327.006971 
L 466.102561 327.529346 
L 467.771195 328.442818 
L 469.43983 329.326184 
L 471.108464 329.799722 
L 472.777098 329.81218 
L 474.445733 329.627975 
L 476.114367 329.550901 
L 477.783002 329.710119 
L 479.451636 330.032349 
L 481.120271 330.288496 
L 482.788905 330.195964 
L 484.45754 329.61898 
L 486.126174 328.701228 
L 487.794809 327.734678 
L 489.463443 326.923549 
L 491.132078 326.33357 
L 492.800712 325.985511 
L 494.469347 325.891249 
L 496.137981 326.046913 
L 497.806616 326.465702 
L 499.47525 327.164994 
L 501.143885 328.064423 
L 502.812519 328.957296 
L 504.481154 329.654978 
L 506.149788 330.147677 
L 507.818423 330.57542 
L 509.487057 331.037154 
L 511.155691 331.445176 
L 512.824326 331.580804 
L 514.49296 331.310637 
L 516.161595 330.745023 
L 517.830229 330.166209 
L 519.498864 329.822009 
L 519.498864 293.90219 
L 519.498864 293.90219 
L 517.830229 293.587775 
L 516.161595 293.154944 
L 514.49296 293.035252 
L 512.824326 293.690266 
L 511.155691 295.198236 
L 509.487057 297.150781 
L 507.818423 299.08807 
L 506.149788 300.95296 
L 504.481154 302.993009 
L 502.812519 305.291747 
L 501.143885 307.544361 
L 499.47525 309.269067 
L 497.806616 310.12125 
L 496.137981 310.069221 
L 494.469347 309.461169 
L 492.800712 308.907042 
L 491.132078 308.885235 
L 489.463443 309.395528 
L 487.794809 310.067445 
L 486.126174 310.547713 
L 484.45754 310.675953 
L 482.788905 310.3949 
L 481.120271 309.7114 
L 479.451636 308.809487 
L 477.783002 308.071252 
L 476.114367 307.85634 
L 474.445733 308.22685 
L 472.777098 308.897821 
L 471.108464 309.465268 
L 469.43983 309.677329 
L 467.771195 309.486317 
L 466.102561 308.932531 
L 464.433926 308.071287 
L 462.765292 306.983093 
L 461.096657 305.797628 
L 459.428023 304.70496 
L 457.759388 303.871589 
L 456.090754 303.270813 
L 454.422119 302.686379 
L 452.753485 301.949484 
L 451.08485 301.058858 
L 449.416216 300.064083 
L 447.747581 299.033504 
L 446.078947 298.196813 
L 444.410312 297.907576 
L 442.741678 298.338171 
L 441.073043 299.313681 
L 439.404409 300.447465 
L 437.735774 301.263605 
L 436.06714 301.280569 
L 434.398506 300.356524 
L 432.729871 299.044979 
L 431.061237 298.282429 
L 429.392602 298.56692 
L 427.723968 299.602317 
L 426.055333 300.747986 
L 424.386699 301.617809 
L 422.718064 302.221094 
L 421.04943 302.679952 
L 419.380795 302.920256 
L 417.712161 302.680308 
L 416.043526 301.789033 
L 414.374892 300.329055 
L 412.706257 298.471617 
L 411.037623 296.264783 
L 409.368988 293.756834 
L 407.700354 291.32503 
L 406.031719 289.729631 
L 404.363085 289.727684 
L 402.69445 291.55433 
L 401.025816 294.651565 
L 399.357181 297.861564 
L 397.688547 300.059715 
L 396.019913 300.861264 
L 394.351278 300.835452 
L 392.682644 300.980952 
L 391.014009 301.911567 
L 389.345375 303.486493 
L 387.67674 305.118561 
L 386.008106 306.331639 
L 384.339471 307.06151 
L 382.670837 307.55799 
L 381.002202 308.072943 
L 379.333568 308.632314 
L 377.664933 309.047108 
L 375.996299 309.039845 
L 374.327664 308.35022 
L 372.65903 306.909682 
L 370.990395 305.093127 
L 369.321761 303.676757 
L 367.653126 303.282558 
L 365.984492 303.835528 
L 364.315857 304.674187 
L 362.647223 305.130816 
L 360.978589 304.909033 
L 359.309954 304.031283 
L 357.64132 302.659878 
L 355.972685 301.059819 
L 354.304051 299.609513 
L 352.635416 298.664487 
L 350.966782 298.318911 
L 349.298147 298.311506 
L 347.629513 298.218166 
L 345.960878 297.771504 
L 344.292244 296.997059 
L 342.623609 296.059731 
L 340.954975 295.080857 
L 339.28634 294.164457 
L 337.617706 293.51365 
L 335.949071 293.40756 
L 334.280437 294.007153 
L 332.611802 295.133949 
L 330.943168 296.270521 
L 329.274533 296.914293 
L 327.605899 297.013502 
L 325.937264 297.006713 
L 324.26863 297.355906 
L 322.599996 298.065546 
L 320.931361 298.752027 
L 319.262727 299.134702 
L 317.594092 299.272286 
L 315.925458 299.319276 
L 314.256823 299.28207 
L 312.588189 299.073202 
L 310.919554 298.620299 
L 309.25092 297.87237 
L 307.582285 296.880263 
L 305.913651 295.965868 
L 304.245016 295.684857 
L 302.576382 296.435057 
L 300.907747 298.035532 
L 299.239113 299.778297 
L 297.570478 300.975639 
L 295.901844 301.397148 
L 294.233209 301.13752 
L 292.564575 300.252095 
L 290.89594 298.722976 
L 289.227306 296.701783 
L 287.558672 294.595145 
L 285.890037 292.878718 
L 284.221403 291.828856 
L 282.552768 291.356478 
L 280.884134 291.06706 
L 279.215499 290.544274 
L 277.546865 289.637097 
L 275.87823 288.551894 
L 274.209596 287.727561 
L 272.540961 287.547083 
L 270.872327 288.041251 
L 269.203692 288.844088 
L 267.535058 289.472032 
L 265.866423 289.62569 
L 264.197789 289.164274 
L 262.529154 287.93692 
L 260.86052 285.971479 
L 259.191885 283.893903 
L 257.523251 282.76223 
L 255.854616 283.128808 
L 254.185982 284.400973 
L 252.517347 285.403726 
L 250.848713 285.452427 
L 249.180079 284.606534 
L 247.511444 283.023234 
L 245.84281 280.441144 
L 244.174175 276.372304 
L 242.505541 270.584784 
L 240.836906 263.393981 
L 239.168272 255.747768 
L 237.499637 249.098047 
L 235.831003 244.792821 
L 234.162368 243.074561 
L 232.493734 242.667859 
L 230.825099 241.695263 
L 229.156465 239.126423 
L 227.48783 235.353001 
L 225.819196 231.588964 
L 224.150561 228.839745 
L 222.481927 227.167129 
L 220.813292 225.70095 
L 219.144658 223.400799 
L 217.476023 219.843827 
L 215.807389 215.326319 
L 214.138755 210.590053 
L 212.47012 206.677766 
L 210.801486 204.725114 
L 209.132851 205.478741 
L 207.464217 208.879295 
L 205.795582 214.088938 
L 204.126948 219.954562 
L 202.458313 225.582102 
L 200.789679 230.573263 
L 199.121044 234.795514 
L 197.45241 238.048957 
L 195.783775 240.041464 
L 194.115141 240.599728 
L 192.446506 239.771599 
L 190.777872 237.738947 
L 189.109237 234.707018 
L 187.440603 230.906953 
L 185.771968 226.613424 
L 184.103334 222.069704 
L 182.434699 217.438129 
L 180.766065 212.980137 
L 179.09743 209.176166 
L 177.428796 206.313789 
L 175.760162 203.97031 
L 174.091527 201.384804 
L 172.422893 198.47806 
L 170.754258 196.143714 
L 169.085624 195.387327 
L 167.416989 196.313044 
L 165.748355 197.97527 
L 164.07972 199.226283 
L 162.411086 199.736617 
L 160.742451 200.040917 
L 159.073817 200.492796 
L 157.405182 200.545181 
L 155.736548 199.47167 
L 154.067913 197.603871 
L 152.399279 196.237643 
L 150.730644 196.117894 
L 149.06201 196.460475 
L 147.393375 195.845442 
L 145.724741 193.85423 
L 144.056106 191.510599 
L 142.387472 190.249851 
L 140.718838 190.67011 
L 139.050203 192.148282 
L 137.381569 193.395076 
L 135.712934 193.327178 
L 134.0443 191.616199 
L 132.375665 188.665702 
L 130.707031 185.157703 
L 129.038396 181.480279 
L 127.369762 177.490815 
L 125.701127 172.833217 
L 124.032493 167.402771 
L 122.363858 161.435282 
L 120.695224 155.31856 
L 119.026589 149.514234 
L 117.357955 144.544611 
L 115.68932 140.794492 
L 114.020686 138.232303 
L 112.352051 136.369573 
L 110.683417 134.571274 
L 109.014782 132.5325 
L 107.346148 130.4956 
L 105.677513 129.015349 
L 104.008879 128.645803 
L 102.340245 129.913554 
L 100.67161 133.370661 
L 99.002976 139.298714 
L 97.334341 147.176481 
L 95.665707 155.460231 
L 93.997072 162.11021 
L 92.328438 165.695296 
L 90.659803 166.212208 
L 88.991169 164.79744 
L 87.322534 162.758919 
L 85.6539 161.177547 
L 83.985265 161.082315 
L 82.316631 163.051675 
L 80.647996 166.393339 
L 78.979362 169.315277 
L 77.310727 170.260901 
L 75.642093 169.16306 
L 73.973458 167.670686 
L 72.304824 168.127422 
L 70.636189 171.881716 
L 68.967555 178.281069 
L 67.298921 185.13575 
L 65.630286 190.053111 
L 63.961652 191.729129 
L 62.293017 190.631736 
L 60.624383 188.531186 
L 58.955748 187.02607 
L 57.287114 186.480446 
L 55.618479 186.381746 
L 53.949845 186.200366 
L 52.28121 185.427627 
L 50.612576 183.135808 
L 48.943941 178.185283 
L 47.275307 170.125996 
L 45.606672 159.814138 
L 43.938038 149.11315 
L 42.269403 139.82278 
L 40.600769 132.478446 
L 38.932134 125.869424 
L 37.2635 117.653934 
L 35.594865 105.558866 
L 33.926231 88.492883 
L 32.257596 67.422119 
L 30.588962 45.83051 
L 28.920328 28.890819 
L 27.251693 20.748036 
L 25.583059 21.520561 
L 23.914424 27.137841 
L 22.24579 32.653053 
L 20.577155 35.53243 
z
" clip-path="url(#p9f0b290d71)" style="fill: #9f4800; fill-opacity: 0.1"/>
   </g>
   <g id="line2d_12">
    <path d="M 20.577155 317.995437 
L 22.24579 318.763612 
L 23.914424 318.104443 
L 25.583059 315.175749 
L 27.251693 310.587698 
L 28.920328 304.773445 
L 30.588962 298.298655 
L 32.257596 292.949123 
L 33.926231 289.785685 
L 35.594865 287.510138 
L 37.2635 285.61713 
L 38.932134 285.266016 
L 40.600769 284.450529 
L 42.269403 281.370085 
L 43.938038 279.950407 
L 45.606672 281.955558 
L 47.275307 283.752531 
L 48.943941 282.839426 
L 50.612576 278.893077 
L 53.949845 265.039143 
L 55.618479 261.118767 
L 57.287114 259.860875 
L 58.955748 259.277614 
L 60.624383 257.145354 
L 62.293017 252.826668 
L 67.298921 238.050463 
L 68.967555 235.834669 
L 70.636189 237.246754 
L 72.304824 239.851557 
L 73.973458 240.212472 
L 75.642093 239.076876 
L 77.310727 240.138065 
L 78.979362 242.133147 
L 80.647996 240.607915 
L 82.316631 237.177602 
L 83.985265 235.139073 
L 85.6539 233.293856 
L 87.322534 231.032404 
L 90.659803 227.509858 
L 92.328438 225.918607 
L 93.997072 224.713064 
L 95.665707 223.811655 
L 97.334341 224.442886 
L 99.002976 226.441786 
L 100.67161 226.864655 
L 102.340245 225.774737 
L 104.008879 225.043911 
L 105.677513 223.594693 
L 107.346148 220.865797 
L 109.014782 218.67699 
L 110.683417 218.75642 
L 112.352051 220.629476 
L 114.020686 222.295188 
L 115.68932 222.430428 
L 117.357955 221.198933 
L 120.695224 218.275031 
L 122.363858 217.772322 
L 124.032493 217.927117 
L 125.701127 217.343645 
L 127.369762 215.380052 
L 132.375665 205.453129 
L 134.0443 202.179775 
L 135.712934 202.359217 
L 137.381569 204.35438 
L 139.050203 202.275387 
L 140.718838 198.358411 
L 142.387472 198.100994 
L 144.056106 200.042208 
L 145.724741 200.174713 
L 147.393375 199.082233 
L 149.06201 197.339737 
L 150.730644 193.539114 
L 152.399279 190.032929 
L 154.067913 190.164229 
L 155.736548 191.71577 
L 157.405182 189.281676 
L 159.073817 181.712423 
L 160.742451 175.058522 
L 162.411086 174.120974 
L 164.07972 174.908133 
L 165.748355 174.182377 
L 169.085624 171.399811 
L 170.754258 171.561995 
L 172.422893 173.213827 
L 174.091527 175.03473 
L 175.760162 176.424197 
L 177.428796 176.182015 
L 179.09743 173.774395 
L 180.766065 171.736163 
L 182.434699 172.013046 
L 184.103334 172.797044 
L 185.771968 172.664339 
L 187.440603 171.828478 
L 189.109237 170.75215 
L 190.777872 169.974838 
L 192.446506 168.866388 
L 194.115141 167.430414 
L 195.783775 166.753489 
L 197.45241 166.484681 
L 199.121044 165.966524 
L 202.458313 164.648101 
L 204.126948 164.337405 
L 205.795582 165.883329 
L 209.132851 173.857864 
L 210.801486 174.486399 
L 212.47012 172.179873 
L 214.138755 168.938386 
L 215.807389 166.390399 
L 217.476023 165.315602 
L 219.144658 165.326271 
L 220.813292 165.892283 
L 222.481927 166.918786 
L 224.150561 167.763273 
L 225.819196 168.424741 
L 227.48783 170.376099 
L 229.156465 173.198798 
L 230.825099 174.907908 
L 232.493734 174.792375 
L 234.162368 172.634718 
L 235.831003 169.322809 
L 237.499637 166.505268 
L 242.505541 160.633806 
L 244.174175 160.125366 
L 245.84281 159.804971 
L 249.180079 156.381835 
L 252.517347 155.98403 
L 254.185982 154.48151 
L 255.854616 152.626837 
L 257.523251 151.088646 
L 260.86052 146.973311 
L 262.529154 146.634793 
L 264.197789 148.128054 
L 265.866423 149.869059 
L 267.535058 150.748993 
L 269.203692 151.296923 
L 270.872327 151.617069 
L 272.540961 151.52593 
L 274.209596 151.566956 
L 275.87823 151.333291 
L 277.546865 150.598089 
L 280.884134 150.294051 
L 282.552768 148.339521 
L 284.221403 145.859822 
L 285.890037 145.140337 
L 287.558672 146.078482 
L 289.227306 147.428409 
L 290.89594 148.438037 
L 292.564575 149.051405 
L 294.233209 149.163547 
L 295.901844 148.621656 
L 297.570478 147.556461 
L 299.239113 146.698103 
L 300.907747 146.706935 
L 302.576382 146.27969 
L 304.245016 144.682881 
L 305.913651 144.19517 
L 307.582285 145.524272 
L 309.25092 146.644514 
L 310.919554 146.223461 
L 312.588189 144.565212 
L 314.256823 143.262866 
L 315.925458 143.693511 
L 317.594092 145.036492 
L 319.262727 145.66764 
L 320.931361 145.658156 
L 324.26863 146.973367 
L 325.937264 145.939405 
L 327.605899 143.444045 
L 329.274533 141.470008 
L 330.943168 141.587005 
L 332.611802 143.682087 
L 334.280437 146.258985 
L 335.949071 147.271466 
L 337.617706 145.950571 
L 339.28634 143.524956 
L 340.954975 141.617595 
L 342.623609 140.841454 
L 344.292244 140.487167 
L 345.960878 140.246581 
L 347.629513 140.143939 
L 349.298147 139.538372 
L 350.966782 138.539983 
L 352.635416 137.765934 
L 354.304051 137.524832 
L 357.64132 137.942722 
L 359.309954 137.786845 
L 360.978589 137.388059 
L 362.647223 136.801149 
L 364.315857 136.955239 
L 365.984492 137.754453 
L 367.653126 138.01061 
L 370.990395 137.823683 
L 374.327664 136.052949 
L 375.996299 136.909426 
L 377.664933 139.095299 
L 379.333568 140.502042 
L 381.002202 140.287932 
L 382.670837 139.514766 
L 384.339471 138.958412 
L 386.008106 138.968595 
L 387.67674 139.638952 
L 389.345375 140.113061 
L 391.014009 140.289626 
L 392.682644 140.260642 
L 394.351278 138.912569 
L 396.019913 137.028261 
L 397.688547 137.330211 
L 399.357181 140.426767 
L 401.025816 144.26528 
L 402.69445 145.39969 
L 404.363085 142.722776 
L 406.031719 140.383829 
L 409.368988 141.065478 
L 411.037623 140.346468 
L 412.706257 139.128952 
L 414.374892 137.287827 
L 416.043526 135.773998 
L 419.380795 134.612646 
L 421.04943 134.09499 
L 422.718064 134.617358 
L 424.386699 136.430783 
L 426.055333 137.842797 
L 427.723968 137.575504 
L 429.392602 136.3756 
L 431.061237 134.890586 
L 432.729871 133.869591 
L 434.398506 134.105242 
L 436.06714 135.399696 
L 437.735774 137.147128 
L 439.404409 137.718353 
L 441.073043 133.452412 
L 442.741678 123.075912 
L 444.410312 115.920358 
L 446.078947 120.656685 
L 447.747581 129.45281 
L 449.416216 133.618028 
L 452.753485 135.692766 
L 454.422119 137.157223 
L 456.090754 137.972326 
L 457.759388 137.134399 
L 459.428023 135.188837 
L 461.096657 134.59782 
L 462.765292 135.834312 
L 464.433926 136.702068 
L 466.102561 136.269722 
L 467.771195 135.363139 
L 469.43983 134.930239 
L 471.108464 135.242739 
L 472.777098 134.970192 
L 476.114367 131.012143 
L 477.783002 130.87661 
L 481.120271 131.308423 
L 484.45754 132.547148 
L 486.126174 133.555764 
L 487.794809 134.915768 
L 489.463443 135.748855 
L 491.132078 135.279265 
L 492.800712 133.862331 
L 494.469347 132.863809 
L 496.137981 133.030689 
L 497.806616 133.52891 
L 501.143885 132.796922 
L 502.812519 134.226558 
L 504.481154 136.45929 
L 506.149788 136.743853 
L 507.818423 135.544167 
L 509.487057 135.570519 
L 511.155691 136.927122 
L 512.824326 137.946278 
L 514.49296 138.127181 
L 516.161595 137.956438 
L 517.830229 137.117585 
L 519.498864 135.727634 
L 519.498864 135.727634 
" clip-path="url(#p9f0b290d71)" style="fill: none; stroke: #023eff; stroke-linecap: round"/>
   </g>
   <g id="line2d_13">
    <path d="M 20.577155 88.57563 
L 22.24579 98.797386 
L 23.914424 110.56009 
L 25.583059 118.624413 
L 27.251693 123.064371 
L 28.920328 125.279886 
L 30.588962 126.716902 
L 32.257596 129.847728 
L 33.926231 136.220645 
L 37.2635 151.574475 
L 38.932134 161.368824 
L 40.600769 169.689637 
L 42.269403 174.36901 
L 43.938038 183.823957 
L 47.275307 217.831189 
L 48.943941 228.907468 
L 50.612576 232.695072 
L 52.28121 229.467779 
L 53.949845 225.161674 
L 55.618479 226.245405 
L 57.287114 232.070583 
L 58.955748 239.127266 
L 60.624383 243.648599 
L 62.293017 244.517045 
L 63.961652 243.935265 
L 67.298921 240.236163 
L 68.967555 242.524947 
L 70.636189 250.947312 
L 72.304824 261.726171 
L 73.973458 269.173948 
L 75.642093 273.79374 
L 77.310727 281.409091 
L 78.979362 290.077291 
L 80.647996 291.695702 
L 82.316631 288.796258 
L 83.985265 288.00076 
L 85.6539 288.247265 
L 87.322534 288.249553 
L 88.991169 288.645042 
L 90.659803 288.588054 
L 93.997072 287.541361 
L 95.665707 286.951847 
L 97.334341 288.722617 
L 99.002976 292.603808 
L 100.67161 293.802496 
L 102.340245 292.899625 
L 104.008879 292.832057 
L 105.677513 291.23677 
L 107.346148 287.3737 
L 109.014782 284.60386 
L 110.683417 285.801323 
L 114.020686 294.955978 
L 115.68932 296.984027 
L 117.357955 296.483494 
L 120.695224 294.666363 
L 122.363858 295.054708 
L 124.032493 296.747703 
L 125.701127 297.646632 
L 127.369762 296.01371 
L 129.038396 291.124738 
L 132.375665 279.804672 
L 134.0443 274.646323 
L 135.712934 275.851704 
L 137.381569 279.958774 
L 139.050203 275.796229 
L 140.718838 267.87121 
L 142.387472 266.83202 
L 144.056106 270.327354 
L 145.724741 271.086904 
L 147.393375 269.812192 
L 149.06201 266.665209 
L 150.730644 258.838356 
L 152.399279 252.108737 
L 154.067913 253.640581 
L 155.736548 258.29819 
L 157.405182 254.598219 
L 159.073817 240.189131 
L 160.742451 227.543161 
L 162.411086 226.361702 
L 164.07972 228.707984 
L 165.748355 227.888808 
L 169.085624 223.311938 
L 170.754258 224.306219 
L 174.091527 232.621051 
L 175.760162 235.385409 
L 177.428796 235.030716 
L 179.09743 231.417501 
L 180.766065 228.797416 
L 182.434699 229.907055 
L 184.103334 231.513526 
L 185.771968 231.546925 
L 187.440603 230.488007 
L 189.109237 228.763889 
L 190.777872 227.209859 
L 192.446506 225.146035 
L 194.115141 222.8797 
L 195.783775 222.144921 
L 197.45241 221.811481 
L 202.458313 218.431803 
L 204.126948 217.499034 
L 205.795582 219.678384 
L 209.132851 234.099191 
L 210.801486 235.777948 
L 212.47012 232.443065 
L 214.138755 227.275364 
L 215.807389 222.754295 
L 217.476023 220.948916 
L 219.144658 221.896115 
L 220.813292 223.940823 
L 222.481927 226.224374 
L 225.819196 229.943403 
L 227.48783 234.086282 
L 229.156465 239.74874 
L 230.825099 243.305086 
L 232.493734 243.19586 
L 234.162368 238.947039 
L 235.831003 232.882692 
L 237.499637 228.63263 
L 240.836906 224.029801 
L 242.505541 221.639784 
L 244.174175 221.527104 
L 245.84281 221.677614 
L 247.511444 218.731126 
L 249.180079 215.495925 
L 250.848713 215.239803 
L 252.517347 215.374626 
L 254.185982 212.951644 
L 255.854616 209.610527 
L 257.523251 206.939313 
L 259.191885 203.859559 
L 260.86052 201.518561 
L 262.529154 202.792425 
L 264.197789 207.6745 
L 265.866423 212.9775 
L 267.535058 216.241464 
L 269.203692 218.123636 
L 270.872327 219.034668 
L 272.540961 219.073867 
L 274.209596 219.388687 
L 275.87823 219.15725 
L 277.546865 217.959568 
L 280.884134 218.153091 
L 282.552768 214.854573 
L 284.221403 210.445767 
L 285.890037 209.324689 
L 287.558672 211.390839 
L 289.227306 214.283445 
L 290.89594 216.449861 
L 292.564575 217.689508 
L 294.233209 217.871639 
L 295.901844 216.903002 
L 299.239113 213.33533 
L 300.907747 212.949694 
L 302.576382 211.805364 
L 304.245016 208.79843 
L 305.913651 208.057855 
L 307.582285 210.770553 
L 309.25092 213.142085 
L 310.919554 212.577213 
L 312.588189 209.596198 
L 314.256823 207.27126 
L 315.925458 208.202067 
L 317.594092 210.862369 
L 319.262727 212.231617 
L 320.931361 212.343336 
L 324.26863 214.687534 
L 325.937264 212.793852 
L 327.605899 208.343471 
L 329.274533 204.912249 
L 330.943168 205.283103 
L 332.611802 209.173833 
L 334.280437 213.909761 
L 335.949071 215.844145 
L 337.617706 213.541873 
L 339.28634 209.207266 
L 340.954975 205.802445 
L 342.623609 204.398806 
L 344.292244 203.698138 
L 345.960878 203.256945 
L 347.629513 203.079844 
L 349.298147 201.876194 
L 350.966782 199.919718 
L 352.635416 198.479956 
L 354.304051 198.15365 
L 355.972685 198.818988 
L 357.64132 199.265606 
L 359.309954 199.176788 
L 360.978589 198.763384 
L 362.647223 198.002324 
L 364.315857 198.488184 
L 365.984492 199.97263 
L 367.653126 200.208893 
L 369.321761 199.9926 
L 370.990395 200.044214 
L 374.327664 197.728503 
L 375.996299 199.653805 
L 377.664933 203.880335 
L 379.333568 206.479243 
L 381.002202 206.043851 
L 382.670837 204.676105 
L 384.339471 203.744248 
L 386.008106 203.811345 
L 387.67674 205.061239 
L 389.345375 205.922262 
L 391.014009 206.188584 
L 392.682644 206.061668 
L 394.351278 203.595075 
L 396.019913 200.298719 
L 397.688547 201.041118 
L 399.357181 206.698154 
L 401.025816 213.451394 
L 402.69445 215.123982 
L 404.363085 209.90967 
L 406.031719 205.694736 
L 407.700354 206.676903 
L 409.368988 207.802264 
L 411.037623 206.823525 
L 412.706257 204.8331 
L 414.374892 201.639328 
L 416.043526 198.991869 
L 421.04943 195.929557 
L 422.718064 196.943594 
L 424.386699 200.40484 
L 426.055333 203.023634 
L 427.723968 202.371767 
L 429.392602 199.819553 
L 431.061237 196.711222 
L 432.729871 194.878368 
L 434.398506 195.833314 
L 436.06714 198.607329 
L 437.735774 201.807533 
L 439.404409 202.646752 
L 441.073043 194.346451 
L 442.741678 174.424746 
L 444.410312 160.679811 
L 446.078947 169.746403 
L 447.747581 186.660483 
L 449.416216 194.702911 
L 452.753485 198.855282 
L 454.422119 201.86431 
L 456.090754 203.556887 
L 457.759388 202.019935 
L 459.428023 198.451907 
L 461.096657 197.488906 
L 462.765292 199.941178 
L 464.433926 201.725936 
L 466.102561 201.133262 
L 467.771195 199.698962 
L 469.43983 199.192179 
L 471.108464 199.952261 
L 472.777098 199.313918 
L 474.445733 195.196528 
L 476.114367 191.492689 
L 477.783002 191.30195 
L 481.120271 192.740032 
L 484.45754 195.232369 
L 486.126174 196.960298 
L 487.794809 199.371838 
L 489.463443 200.724273 
L 491.132078 199.519921 
L 492.800712 196.740135 
L 494.469347 195.117102 
L 496.137981 195.696864 
L 497.806616 196.670303 
L 501.143885 195.187923 
L 502.812519 197.716007 
L 504.481154 201.644795 
L 506.149788 201.955954 
L 507.818423 199.610825 
L 509.487057 199.583005 
L 511.155691 201.928147 
L 512.824326 203.610607 
L 514.49296 203.898694 
L 516.161595 203.653787 
L 517.830229 202.117795 
L 519.498864 199.507729 
L 519.498864 199.507729 
" clip-path="url(#p9f0b290d71)" style="fill: none; stroke: #ff7c00; stroke-linecap: round"/>
   </g>
   <g id="line2d_14">
    <path d="M 20.577155 78.516178 
L 22.24579 80.968348 
L 23.914424 85.412682 
L 25.583059 91.14747 
L 30.588962 110.579637 
L 52.28121 195.345253 
L 53.949845 201.233745 
L 57.287114 211.871164 
L 60.624383 221.547194 
L 68.967555 244.294277 
L 72.304824 252.992542 
L 73.973458 256.977913 
L 75.642093 260.652636 
L 77.310727 263.993512 
L 78.979362 267.012379 
L 80.647996 269.736526 
L 82.316631 272.189682 
L 85.6539 276.445815 
L 88.991169 280.162861 
L 92.328438 283.513389 
L 95.665707 286.605556 
L 97.334341 287.981102 
L 99.002976 289.193608 
L 102.340245 291.24261 
L 105.677513 293.009207 
L 110.683417 295.304036 
L 117.357955 298.237854 
L 119.026589 298.805899 
L 122.363858 299.583259 
L 127.369762 300.589495 
L 130.707031 301.255022 
L 137.381569 302.212552 
L 142.387472 302.778271 
L 152.399279 303.594762 
L 159.073817 304.603581 
L 164.07972 305.135943 
L 170.754258 306.207484 
L 174.091527 306.315329 
L 177.428796 306.403352 
L 180.766065 306.54524 
L 184.103334 306.388439 
L 192.446506 305.810912 
L 195.783775 306.136613 
L 202.458313 307.065719 
L 214.138755 308.297951 
L 219.144658 308.418023 
L 222.481927 308.77819 
L 225.819196 309.175874 
L 234.162368 309.819328 
L 240.836906 310.612887 
L 245.84281 310.896726 
L 250.848713 311.188804 
L 254.185982 311.753104 
L 259.191885 312.932893 
L 260.86052 313.529278 
L 262.529154 314.325255 
L 267.535058 317.112373 
L 269.203692 317.81848 
L 270.872327 318.33854 
L 272.540961 318.695125 
L 275.87823 319.101374 
L 284.221403 319.738133 
L 289.227306 319.693191 
L 295.901844 319.661931 
L 304.245016 319.814481 
L 315.925458 320.314383 
L 325.937264 320.454357 
L 332.611802 320.780108 
L 339.28634 321.166173 
L 342.623609 321.177088 
L 354.304051 320.89975 
L 359.309954 321.077831 
L 365.984492 321.375639 
L 374.327664 321.592368 
L 381.002202 321.871167 
L 394.351278 322.071956 
L 421.04943 322.442418 
L 427.723968 322.620288 
L 441.073043 322.67955 
L 449.416216 322.77202 
L 457.759388 322.733406 
L 477.783002 323.163345 
L 492.800712 323.270198 
L 519.498864 323.379496 
L 519.498864 323.379496 
" clip-path="url(#p9f0b290d71)" style="fill: none; stroke: #e8000b; stroke-width: 2; stroke-linecap: round"/>
   </g>
   <g id="line2d_15">
    <path d="M 20.577155 106.78019 
L 22.24579 113.496488 
L 23.914424 124.222742 
L 28.920328 158.725704 
L 30.588962 169.887649 
L 32.257596 179.830981 
L 33.926231 187.177944 
L 35.594865 191.427329 
L 37.2635 193.378831 
L 38.932134 194.6422 
L 40.600769 196.862866 
L 42.269403 201.093135 
L 43.938038 207.38951 
L 45.606672 214.744005 
L 47.275307 221.462185 
L 48.943941 225.92875 
L 50.612576 227.481858 
L 52.28121 226.796954 
L 53.949845 225.336817 
L 55.618479 224.361508 
L 57.287114 224.521598 
L 58.955748 226.154536 
L 60.624383 229.399141 
L 62.293017 233.705914 
L 63.961652 237.559033 
L 65.630286 239.194393 
L 67.298921 237.785663 
L 68.967555 233.994705 
L 70.636189 229.527779 
L 72.304824 226.119827 
L 73.973458 224.586965 
L 75.642093 224.569402 
L 77.310727 225.098477 
L 78.979362 225.375317 
L 82.316631 224.937301 
L 83.985265 225.405852 
L 85.6539 227.056203 
L 88.991169 231.911085 
L 90.659803 232.984961 
L 92.328438 231.902372 
L 93.997072 228.3422 
L 95.665707 222.740123 
L 99.002976 210.012805 
L 100.67161 205.142942 
L 102.340245 201.881196 
L 104.008879 199.983248 
L 105.677513 199.016384 
L 107.346148 198.613349 
L 109.014782 198.514117 
L 110.683417 198.58804 
L 112.352051 198.918647 
L 114.020686 199.795177 
L 115.68932 201.53868 
L 117.357955 204.310669 
L 119.026589 208.040528 
L 120.695224 212.501438 
L 124.032493 222.688667 
L 125.701127 227.760495 
L 127.369762 232.106479 
L 129.038396 235.413737 
L 130.707031 237.895176 
L 132.375665 239.959097 
L 134.0443 241.661784 
L 135.712934 242.59083 
L 137.381569 242.263197 
L 139.050203 240.624369 
L 140.718838 238.251805 
L 142.387472 236.105586 
L 144.056106 234.957135 
L 145.724741 234.858159 
L 147.393375 235.144316 
L 149.06201 235.13041 
L 150.730644 234.874336 
L 152.399279 235.091048 
L 154.067913 236.240826 
L 155.736548 237.936796 
L 157.405182 239.416924 
L 159.073817 240.389697 
L 164.07972 242.616671 
L 165.748355 242.875858 
L 167.416989 242.906185 
L 169.085624 243.322423 
L 170.754258 244.678311 
L 172.422893 246.953959 
L 174.091527 249.529591 
L 175.760162 251.793701 
L 177.428796 253.792346 
L 179.09743 256.067547 
L 180.766065 258.897463 
L 184.103334 264.972471 
L 185.771968 267.663943 
L 187.440603 270.12135 
L 189.109237 272.349745 
L 190.777872 274.206768 
L 192.446506 275.433258 
L 194.115141 275.814982 
L 195.783775 275.3719 
L 197.45241 274.351843 
L 199.121044 272.979895 
L 200.789679 271.255181 
L 202.458313 269.053878 
L 205.795582 263.705841 
L 207.464217 261.426742 
L 209.132851 260.064019 
L 210.801486 259.925957 
L 212.47012 261.037004 
L 214.138755 263.094799 
L 219.144658 270.602772 
L 220.813292 272.312469 
L 222.481927 273.28998 
L 225.819196 274.510568 
L 229.156465 276.35713 
L 230.825099 276.805111 
L 234.162368 276.386001 
L 235.831003 277.082721 
L 237.499637 279.363225 
L 239.168272 283.032199 
L 242.505541 291.384516 
L 244.174175 294.716195 
L 245.84281 297.087302 
L 247.511444 298.553454 
L 249.180079 299.307194 
L 250.848713 299.469732 
L 252.517347 299.038459 
L 255.854616 297.340595 
L 257.523251 297.307471 
L 259.191885 298.31046 
L 262.529154 301.445135 
L 264.197789 302.43628 
L 265.866423 302.776613 
L 267.535058 302.471529 
L 269.203692 301.625396 
L 270.872327 300.539267 
L 272.540961 299.611026 
L 274.209596 299.082738 
L 275.87823 298.951631 
L 277.546865 299.100001 
L 279.215499 299.431201 
L 280.884134 299.903662 
L 282.552768 300.542566 
L 284.221403 301.438845 
L 285.890037 302.660196 
L 289.227306 305.581388 
L 290.89594 306.735371 
L 292.564575 307.43825 
L 294.233209 307.75784 
L 295.901844 307.831144 
L 297.570478 307.652702 
L 299.239113 307.104508 
L 302.576382 305.263913 
L 304.245016 304.57825 
L 305.913651 304.288033 
L 307.582285 304.322428 
L 310.919554 304.81838 
L 314.256823 305.422814 
L 317.594092 306.307384 
L 319.262727 306.810567 
L 320.931361 307.126916 
L 322.599996 307.146529 
L 324.26863 307.017502 
L 325.937264 307.014037 
L 329.274533 307.382054 
L 330.943168 307.208006 
L 332.611802 306.614334 
L 334.280437 305.84004 
L 335.949071 305.246383 
L 337.617706 305.058557 
L 339.28634 305.264935 
L 342.623609 306.241433 
L 347.629513 307.81149 
L 350.966782 308.441909 
L 354.304051 309.117169 
L 359.309954 310.321004 
L 362.647223 311.008129 
L 364.315857 311.131587 
L 367.653126 310.884775 
L 369.321761 311.104741 
L 370.990395 311.835093 
L 374.327664 313.748422 
L 375.996299 314.271622 
L 377.664933 314.391599 
L 382.670837 314.01156 
L 386.008106 314.127694 
L 387.67674 314.028819 
L 392.682644 313.276581 
L 396.019913 313.527816 
L 397.688547 313.290132 
L 399.357181 312.403036 
L 402.69445 309.83701 
L 404.363085 309.298508 
L 406.031719 309.657376 
L 407.700354 310.747787 
L 412.706257 315.212992 
L 414.374892 316.342369 
L 416.043526 317.067165 
L 417.712161 317.3402 
L 419.380795 317.222187 
L 421.04943 316.856194 
L 424.386699 315.811342 
L 429.392602 313.834191 
L 431.061237 313.637371 
L 432.729871 314.010316 
L 434.398506 314.719776 
L 436.06714 315.232954 
L 437.735774 315.13703 
L 439.404409 314.409877 
L 442.741678 312.281258 
L 444.410312 311.613183 
L 446.078947 311.518226 
L 447.747581 311.940023 
L 449.416216 312.671265 
L 454.422119 315.267892 
L 456.090754 315.887576 
L 457.759388 316.262233 
L 462.765292 317.023917 
L 464.433926 317.539129 
L 469.43983 319.501757 
L 471.108464 319.632495 
L 472.777098 319.355001 
L 474.445733 318.927413 
L 476.114367 318.703621 
L 477.783002 318.890685 
L 481.120271 319.999948 
L 482.788905 320.295432 
L 484.45754 320.147467 
L 486.126174 319.624471 
L 489.463443 318.159538 
L 491.132078 317.609403 
L 492.800712 317.446277 
L 494.469347 317.676209 
L 496.137981 318.058067 
L 497.806616 318.293476 
L 499.47525 318.21703 
L 501.143885 317.804392 
L 502.812519 317.124521 
L 507.818423 314.831745 
L 512.824326 312.635535 
L 514.49296 312.172945 
L 516.161595 311.949984 
L 519.498864 311.8621 
L 519.498864 311.8621 
" clip-path="url(#p9f0b290d71)" style="fill: none; stroke: #9f4800; stroke-width: 2; stroke-linecap: round"/>
   </g>
   <g id="line2d_16">
    <path d="M 20.577155 323.476429 
L 25.583059 308.99903 
L 30.588962 303.712547 
L 35.594865 297.068665 
L 40.600769 287.030394 
L 45.606672 278.772353 
L 50.612576 265.916014 
L 55.618479 244.64763 
L 60.624383 223.399581 
L 65.630286 220.837891 
L 70.636189 218.029962 
L 75.642093 211.261865 
L 80.647996 205.167439 
L 85.6539 201.563739 
L 90.659803 198.51097 
L 95.665707 186.737206 
L 100.67161 170.935967 
L 105.677513 163.498361 
L 110.683417 158.800037 
L 115.68932 154.095763 
L 120.695224 149.519769 
L 125.701127 147.083757 
L 130.707031 144.989091 
L 135.712934 138.902805 
L 140.718838 135.819959 
L 145.724741 134.057179 
L 150.730644 133.345477 
L 155.736548 132.25728 
L 160.742451 130.322286 
L 165.748355 122.8526 
L 170.754258 115.196669 
L 175.760162 108.402214 
L 180.766065 102.032755 
L 185.771968 101.681072 
L 190.777872 102.346096 
L 195.783775 96.680527 
L 200.789679 91.371103 
L 205.795582 90.766151 
L 210.801486 87.927893 
L 215.807389 83.029457 
L 220.813292 80.845786 
L 225.819196 79.389895 
L 230.825099 78.608341 
L 235.831003 75.350818 
L 240.836906 75.312501 
L 245.84281 78.721127 
L 250.848713 76.861484 
L 255.854616 76.222996 
L 260.86052 75.842288 
L 265.866423 75.930117 
L 270.872327 75.619558 
L 275.87823 76.743105 
L 280.884134 76.002696 
L 285.890037 75.764108 
L 290.89594 76.89382 
L 295.901844 76.564254 
L 300.907747 75.56827 
L 305.913651 76.008828 
L 310.919554 77.674352 
L 315.925458 75.856488 
L 320.931361 74.426882 
L 325.937264 73.41635 
L 330.943168 74.802356 
L 335.949071 75.518623 
L 340.954975 76.227694 
L 345.960878 76.073008 
L 350.966782 74.641122 
L 355.972685 74.445899 
L 360.978589 74.864681 
L 365.984492 75.02532 
L 370.990395 75.735245 
L 375.996299 76.369749 
L 381.002202 77.666104 
L 386.008106 77.726762 
L 391.014009 78.645241 
L 396.019913 75.986449 
L 401.025816 74.075037 
L 406.031719 73.254466 
L 411.037623 74.40362 
L 416.043526 74.208916 
L 421.04943 74.240893 
L 426.055333 73.112169 
L 431.061237 73.57611 
L 436.06714 77.969612 
L 441.073043 75.75928 
L 446.078947 73.978199 
L 451.08485 74.13538 
L 456.090754 73.669171 
L 461.096657 75.431752 
L 466.102561 75.126463 
L 471.108464 74.485779 
L 476.114367 74.984922 
L 481.120271 74.438929 
L 486.126174 73.210078 
L 491.132078 74.471716 
L 496.137981 75.197239 
L 501.143885 72.847303 
L 506.149788 71.457951 
L 511.155691 71.297857 
L 516.161595 72.018036 
" clip-path="url(#p9f0b290d71)" style="fill: none; stroke: #000000; stroke-width: 1.5; stroke-linecap: round"/>
   </g>
   <g id="line2d_17">
    <path d="M 20.577155 75.200971 
L 25.583059 85.261676 
L 30.588962 95.873377 
L 35.594865 102.943162 
L 40.600769 106.517691 
L 45.606672 117.208586 
L 50.612576 132.17524 
L 55.618479 141.570765 
L 60.624383 150.839807 
L 65.630286 163.236052 
L 70.636189 169.843898 
L 75.642093 173.925482 
L 80.647996 179.666446 
L 85.6539 186.155071 
L 90.659803 193.603816 
L 95.665707 194.446751 
L 100.67161 195.719398 
L 105.677513 202.583046 
L 110.683417 206.047723 
L 115.68932 207.468638 
L 120.695224 210.239955 
L 125.701127 218.528627 
L 130.707031 225.899986 
L 135.712934 227.722642 
L 140.718838 230.43142 
L 145.724741 234.652798 
L 150.730644 240.705606 
L 155.736548 249.463283 
L 160.742451 256.623369 
L 165.748355 258.888045 
L 170.754258 260.590309 
L 175.760162 264.298561 
L 180.766065 268.455543 
L 185.771968 270.07295 
L 190.777872 271.897418 
L 195.783775 274.108785 
L 200.789679 274.33135 
L 205.795582 275.054603 
L 210.801486 275.071894 
L 215.807389 276.335998 
L 220.813292 278.617913 
L 225.819196 280.244056 
L 230.825099 283.565229 
L 235.831003 286.429334 
L 240.836906 289.136416 
L 245.84281 292.880614 
L 250.848713 295.635729 
L 255.854616 297.88564 
L 260.86052 299.418304 
L 265.866423 300.483142 
L 270.872327 300.270027 
L 275.87823 299.580833 
L 280.884134 299.313245 
L 285.890037 301.173199 
L 290.89594 303.78076 
L 295.901844 304.402797 
L 300.907747 304.250747 
L 305.913651 304.234084 
L 310.919554 305.163334 
L 315.925458 306.272122 
L 320.931361 307.600237 
L 325.937264 309.061876 
L 330.943168 310.323849 
L 335.949071 311.313373 
L 340.954975 311.775702 
L 345.960878 312.306057 
L 350.966782 313.703392 
L 355.972685 314.971567 
L 360.978589 315.722193 
L 365.984492 315.960475 
L 370.990395 316.46059 
L 375.996299 317.63236 
L 381.002202 317.193618 
L 386.008106 317.070537 
L 391.014009 317.650402 
L 396.019913 317.640379 
L 401.025816 316.893365 
L 406.031719 315.996666 
L 411.037623 317.125419 
L 416.043526 318.885213 
L 421.04943 319.406198 
L 426.055333 318.759415 
L 431.061237 318.419683 
L 436.06714 318.520129 
L 441.073043 318.737066 
L 446.078947 318.913643 
L 451.08485 319.60289 
L 456.090754 320.485712 
L 461.096657 320.912336 
L 466.102561 320.702861 
L 471.108464 320.816096 
L 476.114367 321.238575 
L 481.120271 321.740932 
L 486.126174 322.362989 
L 491.132078 322.801146 
L 496.137981 322.003505 
L 501.143885 320.88246 
L 506.149788 320.314105 
L 511.155691 320.066511 
L 516.161595 319.270724 
" clip-path="url(#p9f0b290d71)" style="fill: none; stroke: #8b2be2; stroke-width: 1.5; stroke-linecap: round"/>
   </g>
   <g id="patch_3">
    <path d="M 10.8 328.52 
L 10.8 46.08 
" style="fill: none; stroke: #ffffff; stroke-width: 0.8; stroke-linejoin: miter; stroke-linecap: square"/>
   </g>
   <g id="patch_4">
    <path d="M 522.797024 328.52 
L 522.797024 46.08 
" style="fill: none; stroke: #ffffff; stroke-width: 0.8; stroke-linejoin: miter; stroke-linecap: square"/>
   </g>
   <g id="patch_5">
    <path d="M 10.8 328.52 
L 522.797024 328.52 
" style="fill: none; stroke: #ffffff; stroke-width: 0.8; stroke-linejoin: miter; stroke-linecap: square"/>
   </g>
   <g id="patch_6">
    <path d="M 10.8 46.08 
L 522.797024 46.08 
" style="fill: none; stroke: #ffffff; stroke-width: 0.8; stroke-linejoin: miter; stroke-linecap: square"/>
   </g>
  </g>
  <g id="text_3">
   <!-- CMU-Net | PM -->
   <g style="fill: #262626" transform="translate(177.133125 25.54125) scale(0.24 -0.24)">
    <defs>
     <path id="DejaVuSans-Bold-43" d="M 4288 256 
Q 3956 84 3597 -3 
Q 3238 -91 2847 -91 
Q 1681 -91 1000 561 
Q 319 1213 319 2328 
Q 319 3447 1000 4098 
Q 1681 4750 2847 4750 
Q 3238 4750 3597 4662 
Q 3956 4575 4288 4403 
L 4288 3438 
Q 3953 3666 3628 3772 
Q 3303 3878 2944 3878 
Q 2300 3878 1931 3465 
Q 1563 3053 1563 2328 
Q 1563 1606 1931 1193 
Q 2300 781 2944 781 
Q 3303 781 3628 887 
Q 3953 994 4288 1222 
L 4288 256 
z
" transform="scale(0.015625)"/>
     <path id="DejaVuSans-Bold-4d" d="M 588 4666 
L 2119 4666 
L 3181 2169 
L 4250 4666 
L 5778 4666 
L 5778 0 
L 4641 0 
L 4641 3413 
L 3566 897 
L 2803 897 
L 1728 3413 
L 1728 0 
L 588 0 
L 588 4666 
z
" transform="scale(0.015625)"/>
     <path id="DejaVuSans-Bold-55" d="M 588 4666 
L 1791 4666 
L 1791 1869 
Q 1791 1291 1980 1042 
Q 2169 794 2597 794 
Q 3028 794 3217 1042 
Q 3406 1291 3406 1869 
L 3406 4666 
L 4609 4666 
L 4609 1869 
Q 4609 878 4112 393 
Q 3616 -91 2597 -91 
Q 1581 -91 1084 393 
Q 588 878 588 1869 
L 588 4666 
z
" transform="scale(0.015625)"/>
     <path id="DejaVuSans-Bold-2d" d="M 347 2297 
L 2309 2297 
L 2309 1388 
L 347 1388 
L 347 2297 
z
" transform="scale(0.015625)"/>
     <path id="DejaVuSans-Bold-4e" d="M 588 4666 
L 1931 4666 
L 3628 1466 
L 3628 4666 
L 4769 4666 
L 4769 0 
L 3425 0 
L 1728 3200 
L 1728 0 
L 588 0 
L 588 4666 
z
" transform="scale(0.015625)"/>
     <path id="DejaVuSans-Bold-65" d="M 4031 1759 
L 4031 1441 
L 1416 1441 
Q 1456 1047 1700 850 
Q 1944 653 2381 653 
Q 2734 653 3104 758 
Q 3475 863 3866 1075 
L 3866 213 
Q 3469 63 3072 -14 
Q 2675 -91 2278 -91 
Q 1328 -91 801 392 
Q 275 875 275 1747 
Q 275 2603 792 3093 
Q 1309 3584 2216 3584 
Q 3041 3584 3536 3087 
Q 4031 2591 4031 1759 
z
M 2881 2131 
Q 2881 2450 2695 2645 
Q 2509 2841 2209 2841 
Q 1884 2841 1681 2658 
Q 1478 2475 1428 2131 
L 2881 2131 
z
" transform="scale(0.015625)"/>
     <path id="DejaVuSans-Bold-74" d="M 1759 4494 
L 1759 3500 
L 2913 3500 
L 2913 2700 
L 1759 2700 
L 1759 1216 
Q 1759 972 1856 886 
Q 1953 800 2241 800 
L 2816 800 
L 2816 0 
L 1856 0 
Q 1194 0 917 276 
Q 641 553 641 1216 
L 641 2700 
L 84 2700 
L 84 3500 
L 641 3500 
L 641 4494 
L 1759 4494 
z
" transform="scale(0.015625)"/>
     <path id="DejaVuSans-Bold-20" transform="scale(0.015625)"/>
     <path id="DejaVuSans-Bold-7c" d="M 1522 4891 
L 1522 -1509 
L 813 -1509 
L 813 4891 
L 1522 4891 
z
" transform="scale(0.015625)"/>
     <path id="DejaVuSans-Bold-50" d="M 588 4666 
L 2584 4666 
Q 3475 4666 3951 4270 
Q 4428 3875 4428 3144 
Q 4428 2409 3951 2014 
Q 3475 1619 2584 1619 
L 1791 1619 
L 1791 0 
L 588 0 
L 588 4666 
z
M 1791 3794 
L 1791 2491 
L 2456 2491 
Q 2806 2491 2997 2661 
Q 3188 2831 3188 3144 
Q 3188 3456 2997 3625 
Q 2806 3794 2456 3794 
L 1791 3794 
z
" transform="scale(0.015625)"/>
    </defs>
    <use xlink:href="#DejaVuSans-Bold-43"/>
    <use xlink:href="#DejaVuSans-Bold-4d" transform="translate(73.388672 0)"/>
    <use xlink:href="#DejaVuSans-Bold-55" transform="translate(172.900391 0)"/>
    <use xlink:href="#DejaVuSans-Bold-2d" transform="translate(254.101562 0)"/>
    <use xlink:href="#DejaVuSans-Bold-4e" transform="translate(295.605469 0)"/>
    <use xlink:href="#DejaVuSans-Bold-65" transform="translate(379.296875 0)"/>
    <use xlink:href="#DejaVuSans-Bold-74" transform="translate(447.119141 0)"/>
    <use xlink:href="#DejaVuSans-Bold-20" transform="translate(494.921875 0)"/>
    <use xlink:href="#DejaVuSans-Bold-7c" transform="translate(529.736328 0)"/>
    <use xlink:href="#DejaVuSans-Bold-20" transform="translate(566.259766 0)"/>
    <use xlink:href="#DejaVuSans-Bold-50" transform="translate(601.074219 0)"/>
    <use xlink:href="#DejaVuSans-Bold-4d" transform="translate(674.365234 0)"/>
   </g>
  </g>
 </g>
 <defs>
  <clipPath id="p9f0b290d71">
   <rect x="10.8" y="46.08" width="511.997024" height="282.44"/>
  </clipPath>
 </defs>
</svg>
