<?xml version="1.0" encoding="utf-8" standalone="no"?>
<!DOCTYPE svg PUBLIC "-//W3C//DTD SVG 1.1//EN"
  "http://www.w3.org/Graphics/SVG/1.1/DTD/svg11.dtd">
<svg xmlns:xlink="http://www.w3.org/1999/xlink" width="540pt" height="360pt" viewBox="0 0 540 360" xmlns="http://www.w3.org/2000/svg" version="1.1">
 <metadata>
  <rdf:RDF xmlns:dc="http://purl.org/dc/elements/1.1/" xmlns:cc="http://creativecommons.org/ns#" xmlns:rdf="http://www.w3.org/1999/02/22-rdf-syntax-ns#">
   <cc:Work>
    <dc:type rdf:resource="http://purl.org/dc/dcmitype/StillImage"/>
    <dc:date>2025-08-04T02:53:19.535907</dc:date>
    <dc:format>image/svg+xml</dc:format>
    <dc:creator>
     <cc:Agent>
      <dc:title>Matplotlib v3.10.0, https://matplotlib.org/</dc:title>
     </cc:Agent>
    </dc:creator>
   </cc:Work>
  </rdf:RDF>
 </metadata>
 <defs>
  <style type="text/css">*{stroke-linejoin: round; stroke-linecap: butt}</style>
 </defs>
 <g id="figure_1">
  <g id="patch_1">
   <path d="M 0 360 
L 540 360 
L 540 0 
L 0 0 
z
" style="fill: #ffffff"/>
  </g>
  <g id="axes_1">
   <g id="patch_2">
    <path d="M 10.8 328.52 
L 522.797024 328.52 
L 522.797024 46.08 
L 10.8 46.08 
z
" style="fill: #eaeaf2"/>
   </g>
   <g id="matplotlib.axis_1">
    <g id="xtick_1">
     <g id="line2d_1">
      <path d="M 20.577155 328.52 
L 20.577155 46.08 
" clip-path="url(#p16fb0c8237)" style="fill: none; stroke: #ffffff; stroke-width: 0.8; stroke-linecap: round"/>
     </g>
     <g id="text_1">
      <!-- 0 -->
      <g style="fill: #262626" transform="translate(16.123405 346.157812) scale(0.14 -0.14)">
       <defs>
        <path id="DejaVuSans-30" d="M 2034 4250 
Q 1547 4250 1301 3770 
Q 1056 3291 1056 2328 
Q 1056 1369 1301 889 
Q 1547 409 2034 409 
Q 2525 409 2770 889 
Q 3016 1369 3016 2328 
Q 3016 3291 2770 3770 
Q 2525 4250 2034 4250 
z
M 2034 4750 
Q 2819 4750 3233 4129 
Q 3647 3509 3647 2328 
Q 3647 1150 3233 529 
Q 2819 -91 2034 -91 
Q 1250 -91 836 529 
Q 422 1150 422 2328 
Q 422 3509 836 4129 
Q 1250 4750 2034 4750 
z
" transform="scale(0.015625)"/>
       </defs>
       <use xlink:href="#DejaVuSans-30"/>
      </g>
     </g>
    </g>
    <g id="xtick_2">
     <g id="line2d_2">
      <path d="M 509.434912 328.52 
L 509.434912 46.08 
" clip-path="url(#p16fb0c8237)" style="fill: none; stroke: #ffffff; stroke-width: 0.8; stroke-linecap: round"/>
     </g>
     <g id="text_2">
      <!-- 600k -->
      <g style="fill: #262626" transform="translate(492.020225 346.157812) scale(0.14 -0.14)">
       <defs>
        <path id="DejaVuSans-36" d="M 2113 2584 
Q 1688 2584 1439 2293 
Q 1191 2003 1191 1497 
Q 1191 994 1439 701 
Q 1688 409 2113 409 
Q 2538 409 2786 701 
Q 3034 994 3034 1497 
Q 3034 2003 2786 2293 
Q 2538 2584 2113 2584 
z
M 3366 4563 
L 3366 3988 
Q 3128 4100 2886 4159 
Q 2644 4219 2406 4219 
Q 1781 4219 1451 3797 
Q 1122 3375 1075 2522 
Q 1259 2794 1537 2939 
Q 1816 3084 2150 3084 
Q 2853 3084 3261 2657 
Q 3669 2231 3669 1497 
Q 3669 778 3244 343 
Q 2819 -91 2113 -91 
Q 1303 -91 875 529 
Q 447 1150 447 2328 
Q 447 3434 972 4092 
Q 1497 4750 2381 4750 
Q 2619 4750 2861 4703 
Q 3103 4656 3366 4563 
z
" transform="scale(0.015625)"/>
        <path id="DejaVuSans-6b" d="M 581 4863 
L 1159 4863 
L 1159 1991 
L 2875 3500 
L 3609 3500 
L 1753 1863 
L 3688 0 
L 2938 0 
L 1159 1709 
L 1159 0 
L 581 0 
L 581 4863 
z
" transform="scale(0.015625)"/>
       </defs>
       <use xlink:href="#DejaVuSans-36"/>
       <use xlink:href="#DejaVuSans-30" transform="translate(63.623047 0)"/>
       <use xlink:href="#DejaVuSans-30" transform="translate(127.246094 0)"/>
       <use xlink:href="#DejaVuSans-6b" transform="translate(190.869141 0)"/>
      </g>
     </g>
    </g>
   </g>
   <g id="matplotlib.axis_2">
    <g id="ytick_1">
     <g id="line2d_3">
      <path d="M 10.8 323.476429 
L 522.797024 323.476429 
" clip-path="url(#p16fb0c8237)" style="fill: none; stroke: #ffffff; stroke-width: 0.8; stroke-linecap: round"/>
     </g>
    </g>
    <g id="ytick_2">
     <g id="line2d_4">
      <path d="M 10.8 291.954107 
L 522.797024 291.954107 
" clip-path="url(#p16fb0c8237)" style="fill: none; stroke: #ffffff; stroke-width: 0.8; stroke-linecap: round"/>
     </g>
    </g>
    <g id="ytick_3">
     <g id="line2d_5">
      <path d="M 10.8 260.431786 
L 522.797024 260.431786 
" clip-path="url(#p16fb0c8237)" style="fill: none; stroke: #ffffff; stroke-width: 0.8; stroke-linecap: round"/>
     </g>
    </g>
    <g id="ytick_4">
     <g id="line2d_6">
      <path d="M 10.8 228.909464 
L 522.797024 228.909464 
" clip-path="url(#p16fb0c8237)" style="fill: none; stroke: #ffffff; stroke-width: 0.8; stroke-linecap: round"/>
     </g>
    </g>
    <g id="ytick_5">
     <g id="line2d_7">
      <path d="M 10.8 197.387143 
L 522.797024 197.387143 
" clip-path="url(#p16fb0c8237)" style="fill: none; stroke: #ffffff; stroke-width: 0.8; stroke-linecap: round"/>
     </g>
    </g>
    <g id="ytick_6">
     <g id="line2d_8">
      <path d="M 10.8 165.864821 
L 522.797024 165.864821 
" clip-path="url(#p16fb0c8237)" style="fill: none; stroke: #ffffff; stroke-width: 0.8; stroke-linecap: round"/>
     </g>
    </g>
    <g id="ytick_7">
     <g id="line2d_9">
      <path d="M 10.8 134.3425 
L 522.797024 134.3425 
" clip-path="url(#p16fb0c8237)" style="fill: none; stroke: #ffffff; stroke-width: 0.8; stroke-linecap: round"/>
     </g>
    </g>
    <g id="ytick_8">
     <g id="line2d_10">
      <path d="M 10.8 102.820179 
L 522.797024 102.820179 
" clip-path="url(#p16fb0c8237)" style="fill: none; stroke: #ffffff; stroke-width: 0.8; stroke-linecap: round"/>
     </g>
    </g>
    <g id="ytick_9">
     <g id="line2d_11">
      <path d="M 10.8 71.297857 
L 522.797024 71.297857 
" clip-path="url(#p16fb0c8237)" style="fill: none; stroke: #ffffff; stroke-width: 0.8; stroke-linecap: round"/>
     </g>
    </g>
   </g>
   <g id="line2d_12">
    <path d="M 20.577155 314.531424 
L 23.914424 312.815935 
L 25.583059 310.727366 
L 30.588962 297.959979 
L 32.257596 295.597168 
L 33.926231 296.332299 
L 35.594865 296.565383 
L 37.2635 293.052029 
L 38.932134 287.840148 
L 40.600769 284.064448 
L 42.269403 281.223001 
L 43.938038 277.598683 
L 45.606672 271.90377 
L 47.275307 264.779336 
L 48.943941 258.994201 
L 50.612576 256.26578 
L 52.28121 256.644443 
L 53.949845 258.703097 
L 55.618479 259.462466 
L 57.287114 256.990906 
L 58.955748 252.806502 
L 60.624383 248.279218 
L 63.961652 237.730496 
L 65.630286 233.217653 
L 67.298921 231.707222 
L 68.967555 233.49255 
L 70.636189 235.70598 
L 72.304824 235.827502 
L 73.973458 234.52027 
L 75.642093 234.808841 
L 77.310727 237.300561 
L 78.979362 237.648028 
L 82.316631 229.419594 
L 83.985265 228.847268 
L 85.6539 229.770313 
L 87.322534 228.586457 
L 88.991169 225.245309 
L 90.659803 222.6542 
L 92.328438 222.224835 
L 93.997072 221.52675 
L 95.665707 217.69841 
L 97.334341 212.181962 
L 99.002976 207.356502 
L 100.67161 203.892947 
L 102.340245 202.372857 
L 105.677513 201.960078 
L 107.346148 201.235314 
L 109.014782 199.830385 
L 110.683417 197.693879 
L 112.352051 194.708581 
L 114.020686 191.402803 
L 115.68932 189.149413 
L 117.357955 187.437253 
L 119.026589 184.911041 
L 120.695224 181.916665 
L 122.363858 180.078314 
L 124.032493 180.77278 
L 125.701127 183.287139 
L 127.369762 184.42902 
L 129.038396 183.070363 
L 130.707031 181.949432 
L 132.375665 183.173396 
L 134.0443 185.956028 
L 135.712934 188.250524 
L 137.381569 189.228495 
L 139.050203 189.677452 
L 140.718838 190.761497 
L 142.387472 191.112595 
L 144.056106 189.47826 
L 145.724741 188.549718 
L 147.393375 190.124273 
L 149.06201 192.927057 
L 150.730644 195.264592 
L 152.399279 195.992195 
L 154.067913 195.227589 
L 155.736548 194.919247 
L 157.405182 196.995093 
L 159.073817 201.632411 
L 160.742451 205.001742 
L 162.411086 203.527526 
L 164.07972 199.709229 
L 165.748355 196.893557 
L 169.085624 193.61908 
L 172.422893 188.15326 
L 174.091527 186.508276 
L 175.760162 185.696788 
L 177.428796 184.636903 
L 179.09743 183.122358 
L 180.766065 181.036673 
L 182.434699 180.091593 
L 184.103334 181.372353 
L 185.771968 182.086637 
L 187.440603 179.634612 
L 190.777872 169.539758 
L 192.446506 166.236911 
L 194.115141 165.06074 
L 195.783775 164.91886 
L 197.45241 164.45829 
L 200.789679 161.504617 
L 202.458313 160.595098 
L 204.126948 159.933354 
L 205.795582 159.976484 
L 207.464217 160.703493 
L 209.132851 160.424159 
L 210.801486 159.270677 
L 212.47012 159.775451 
L 214.138755 160.890785 
L 215.807389 160.178182 
L 217.476023 159.767577 
L 219.144658 162.59552 
L 220.813292 166.461931 
L 222.481927 167.02486 
L 224.150561 164.191729 
L 225.819196 159.933419 
L 227.48783 156.754359 
L 229.156465 156.620113 
L 230.825099 157.847232 
L 232.493734 158.603234 
L 234.162368 159.666802 
L 235.831003 160.969213 
L 237.499637 160.615342 
L 239.168272 158.205427 
L 242.505541 150.330399 
L 244.174175 147.93771 
L 245.84281 146.942391 
L 247.511444 146.535119 
L 249.180079 146.259478 
L 250.848713 146.599794 
L 252.517347 148.623984 
L 254.185982 151.045813 
L 255.854616 151.940246 
L 257.523251 151.609033 
L 259.191885 149.786596 
L 260.86052 145.829289 
L 262.529154 141.577614 
L 264.197789 139.144163 
L 265.866423 138.15179 
L 267.535058 137.441591 
L 270.872327 136.474717 
L 272.540961 136.783868 
L 274.209596 139.491744 
L 275.87823 143.438395 
L 277.546865 146.299768 
L 279.215499 147.665803 
L 280.884134 147.400933 
L 282.552768 145.428838 
L 284.221403 143.087222 
L 285.890037 141.710294 
L 287.558672 141.236184 
L 289.227306 141.238949 
L 290.89594 141.710025 
L 292.564575 142.409273 
L 294.233209 143.325167 
L 295.901844 144.787307 
L 297.570478 146.063103 
L 299.239113 145.911607 
L 300.907747 144.945916 
L 302.576382 146.045471 
L 304.245016 148.799209 
L 305.913651 150.115839 
L 309.25092 150.254341 
L 312.588189 148.416818 
L 315.925458 150.547588 
L 317.594092 149.135611 
L 319.262727 145.814976 
L 320.931361 143.344222 
L 324.26863 140.475346 
L 325.937264 139.915763 
L 327.605899 140.232361 
L 330.943168 140.332166 
L 332.611802 140.881268 
L 334.280437 141.663927 
L 335.949071 142.716394 
L 337.617706 143.903166 
L 339.28634 143.631783 
L 342.623609 137.942328 
L 344.292244 138.625085 
L 345.960878 143.082431 
L 347.629513 147.169204 
L 349.298147 148.368706 
L 350.966782 148.368467 
L 352.635416 148.542542 
L 354.304051 147.344538 
L 355.972685 144.428943 
L 357.64132 142.4371 
L 359.309954 141.162387 
L 360.978589 138.538899 
L 362.647223 136.592088 
L 364.315857 137.656699 
L 365.984492 139.389407 
L 369.321761 139.804135 
L 370.990395 141.11008 
L 372.65903 141.714523 
L 374.327664 140.063341 
L 375.996299 137.373187 
L 379.333568 130.233505 
L 381.002202 130.184372 
L 382.670837 134.46816 
L 384.339471 138.072295 
L 386.008106 136.699849 
L 387.67674 132.536545 
L 389.345375 130.602706 
L 391.014009 130.987136 
L 392.682644 131.201803 
L 394.351278 131.820804 
L 396.019913 134.025143 
L 397.688547 137.15352 
L 399.357181 139.303098 
L 401.025816 138.767179 
L 402.69445 137.016819 
L 404.363085 136.815262 
L 406.031719 139.539645 
L 407.700354 142.960756 
L 409.368988 142.463074 
L 411.037623 138.384045 
L 412.706257 134.70237 
L 414.374892 133.687238 
L 416.043526 135.983949 
L 417.712161 139.448269 
L 419.380795 141.396659 
L 421.04943 141.765993 
L 422.718064 140.271169 
L 426.055333 133.325359 
L 427.723968 130.672283 
L 429.392602 128.980503 
L 431.061237 128.527632 
L 432.729871 129.226706 
L 434.398506 130.185638 
L 437.735774 132.707159 
L 439.404409 132.894733 
L 441.073043 132.45013 
L 442.741678 132.399941 
L 444.410312 132.668848 
L 446.078947 132.675217 
L 447.747581 132.892481 
L 449.416216 132.510327 
L 451.08485 130.614372 
L 452.753485 129.048354 
L 454.422119 129.124453 
L 456.090754 130.44131 
L 457.759388 132.683356 
L 459.428023 134.453512 
L 461.096657 134.073243 
L 462.765292 132.13971 
L 464.433926 129.22882 
L 466.102561 125.578207 
L 467.771195 124.00072 
L 469.43983 125.473578 
L 471.108464 127.209644 
L 472.777098 128.339211 
L 474.445733 130.020112 
L 476.114367 131.425158 
L 477.783002 132.064198 
L 481.120271 134.369405 
L 484.45754 135.354641 
L 486.126174 134.536463 
L 487.794809 131.62356 
L 489.463443 128.280697 
L 491.132078 126.095293 
L 492.800712 126.29683 
L 494.469347 128.330151 
L 496.137981 129.848345 
L 499.47525 130.443616 
L 502.812519 132.180126 
L 504.481154 132.531951 
L 506.149788 133.218171 
L 507.818423 131.090761 
L 509.487057 121.223638 
L 511.155691 109.749906 
L 512.824326 109.41681 
L 514.49296 118.131986 
L 516.161595 125.365968 
L 517.830229 128.598512 
L 519.498864 129.838549 
L 519.498864 129.838549 
" clip-path="url(#p16fb0c8237)" style="fill: none; stroke: #023eff; stroke-linecap: round"/>
   </g>
   <g id="line2d_13">
    <path d="M 20.577155 314.531424 
L 23.914424 312.815935 
L 25.583059 310.727366 
L 30.588962 297.959979 
L 32.257596 295.597168 
L 33.926231 296.332299 
L 35.594865 296.565383 
L 37.2635 293.052029 
L 38.932134 287.840148 
L 40.600769 284.064448 
L 42.269403 281.223001 
L 43.938038 277.598683 
L 45.606672 271.90377 
L 47.275307 264.779336 
L 48.943941 258.994201 
L 50.612576 256.26578 
L 52.28121 256.644443 
L 53.949845 258.703097 
L 55.618479 259.462466 
L 57.287114 256.990906 
L 58.955748 252.806502 
L 60.624383 248.279218 
L 63.961652 237.730496 
L 65.630286 233.217653 
L 67.298921 231.707222 
L 68.967555 233.49255 
L 70.636189 235.70598 
L 72.304824 235.827502 
L 73.973458 234.52027 
L 75.642093 234.808841 
L 77.310727 237.300561 
L 78.979362 237.648028 
L 82.316631 229.419594 
L 83.985265 228.847268 
L 85.6539 229.770313 
L 87.322534 228.586457 
L 88.991169 225.245309 
L 90.659803 222.6542 
L 92.328438 222.224835 
L 93.997072 221.52675 
L 95.665707 217.69841 
L 97.334341 212.181962 
L 99.002976 207.356502 
L 100.67161 203.892947 
L 102.340245 202.372857 
L 105.677513 201.960078 
L 107.346148 201.235314 
L 109.014782 199.830385 
L 110.683417 197.693879 
L 112.352051 194.708581 
L 114.020686 191.402803 
L 115.68932 189.149413 
L 117.357955 187.437253 
L 119.026589 184.911041 
L 120.695224 181.916665 
L 122.363858 180.078314 
L 124.032493 180.77278 
L 125.701127 183.287139 
L 127.369762 184.42902 
L 129.038396 183.070363 
L 130.707031 181.949432 
L 132.375665 183.173396 
L 134.0443 185.956028 
L 135.712934 188.250524 
L 137.381569 189.228495 
L 139.050203 189.677452 
L 140.718838 190.761497 
L 142.387472 191.112595 
L 144.056106 189.47826 
L 145.724741 188.549718 
L 147.393375 190.124273 
L 149.06201 192.927057 
L 150.730644 195.264592 
L 152.399279 195.992195 
L 154.067913 195.227589 
L 155.736548 194.919247 
L 157.405182 196.995093 
L 159.073817 201.632411 
L 160.742451 205.001742 
L 162.411086 203.527526 
L 164.07972 199.709229 
L 165.748355 196.893557 
L 169.085624 193.61908 
L 172.422893 188.15326 
L 174.091527 186.508276 
L 175.760162 185.696788 
L 177.428796 184.636903 
L 179.09743 183.122358 
L 180.766065 181.036673 
L 182.434699 180.091593 
L 184.103334 181.372353 
L 185.771968 182.086637 
L 187.440603 179.634612 
L 190.777872 169.539758 
L 192.446506 166.236911 
L 194.115141 165.06074 
L 195.783775 164.91886 
L 197.45241 164.45829 
L 200.789679 161.504617 
L 202.458313 160.595098 
L 204.126948 159.933354 
L 205.795582 159.976484 
L 207.464217 160.703493 
L 209.132851 160.424159 
L 210.801486 159.270677 
L 212.47012 159.775451 
L 214.138755 160.890785 
L 215.807389 160.178182 
L 217.476023 159.767577 
L 219.144658 162.59552 
L 220.813292 166.461931 
L 222.481927 167.02486 
L 224.150561 164.191729 
L 225.819196 159.933419 
L 227.48783 156.754359 
L 229.156465 156.620113 
L 230.825099 157.847232 
L 232.493734 158.603234 
L 234.162368 159.666802 
L 235.831003 160.969213 
L 237.499637 160.615342 
L 239.168272 158.205427 
L 242.505541 150.330399 
L 244.174175 147.93771 
L 245.84281 146.942391 
L 247.511444 146.535119 
L 249.180079 146.259478 
L 250.848713 146.599794 
L 252.517347 148.623984 
L 254.185982 151.045813 
L 255.854616 151.940246 
L 257.523251 151.609033 
L 259.191885 149.786596 
L 260.86052 145.829289 
L 262.529154 141.577614 
L 264.197789 139.144163 
L 265.866423 138.15179 
L 267.535058 137.441591 
L 270.872327 136.474717 
L 272.540961 136.783868 
L 274.209596 139.491744 
L 275.87823 143.438395 
L 277.546865 146.299768 
L 279.215499 147.665803 
L 280.884134 147.400933 
L 282.552768 145.428838 
L 284.221403 143.087222 
L 285.890037 141.710294 
L 287.558672 141.236184 
L 289.227306 141.238949 
L 290.89594 141.710025 
L 292.564575 142.409273 
L 294.233209 143.325167 
L 295.901844 144.787307 
L 297.570478 146.063103 
L 299.239113 145.911607 
L 300.907747 144.945916 
L 302.576382 146.045471 
L 304.245016 148.799209 
L 305.913651 150.115839 
L 309.25092 150.254341 
L 312.588189 148.416818 
L 315.925458 150.547588 
L 317.594092 149.135611 
L 319.262727 145.814976 
L 320.931361 143.344222 
L 324.26863 140.475346 
L 325.937264 139.915763 
L 327.605899 140.232361 
L 330.943168 140.332166 
L 332.611802 140.881268 
L 334.280437 141.663927 
L 335.949071 142.716394 
L 337.617706 143.903166 
L 339.28634 143.631783 
L 342.623609 137.942328 
L 344.292244 138.625085 
L 345.960878 143.082431 
L 347.629513 147.169204 
L 349.298147 148.368706 
L 350.966782 148.368467 
L 352.635416 148.542542 
L 354.304051 147.344538 
L 355.972685 144.428943 
L 357.64132 142.4371 
L 359.309954 141.162387 
L 360.978589 138.538899 
L 362.647223 136.592088 
L 364.315857 137.656699 
L 365.984492 139.389407 
L 369.321761 139.804135 
L 370.990395 141.11008 
L 372.65903 141.714523 
L 374.327664 140.063341 
L 375.996299 137.373187 
L 379.333568 130.233505 
L 381.002202 130.184372 
L 382.670837 134.46816 
L 384.339471 138.072295 
L 386.008106 136.699849 
L 387.67674 132.536545 
L 389.345375 130.602706 
L 391.014009 130.987136 
L 392.682644 131.201803 
L 394.351278 131.820804 
L 396.019913 134.025143 
L 397.688547 137.15352 
L 399.357181 139.303098 
L 401.025816 138.767179 
L 402.69445 137.016819 
L 404.363085 136.815262 
L 406.031719 139.539645 
L 407.700354 142.960756 
L 409.368988 142.463074 
L 411.037623 138.384045 
L 412.706257 134.70237 
L 414.374892 133.687238 
L 416.043526 135.983949 
L 417.712161 139.448269 
L 419.380795 141.396659 
L 421.04943 141.765993 
L 422.718064 140.271169 
L 426.055333 133.325359 
L 427.723968 130.672283 
L 429.392602 128.980503 
L 431.061237 128.527632 
L 432.729871 129.226706 
L 434.398506 130.185638 
L 437.735774 132.707159 
L 439.404409 132.894733 
L 441.073043 132.45013 
L 442.741678 132.399941 
L 444.410312 132.668848 
L 446.078947 132.675217 
L 447.747581 132.892481 
L 449.416216 132.510327 
L 451.08485 130.614372 
L 452.753485 129.048354 
L 454.422119 129.124453 
L 456.090754 130.44131 
L 457.759388 132.683356 
L 459.428023 134.453512 
L 461.096657 134.073243 
L 462.765292 132.13971 
L 464.433926 129.22882 
L 466.102561 125.578207 
L 467.771195 124.00072 
L 469.43983 125.473578 
L 471.108464 127.209644 
L 472.777098 128.339211 
L 474.445733 130.020112 
L 476.114367 131.425158 
L 477.783002 132.064198 
L 481.120271 134.369405 
L 484.45754 135.354641 
L 486.126174 134.536463 
L 487.794809 131.62356 
L 489.463443 128.280697 
L 491.132078 126.095293 
L 492.800712 126.29683 
L 494.469347 128.330151 
L 496.137981 129.848345 
L 499.47525 130.443616 
L 502.812519 132.180126 
L 504.481154 132.531951 
L 506.149788 133.218171 
L 507.818423 131.090761 
L 509.487057 121.223638 
L 511.155691 109.749906 
L 512.824326 109.41681 
L 514.49296 118.131986 
L 516.161595 125.365968 
L 517.830229 128.598512 
L 519.498864 129.838549 
L 519.498864 129.838549 
" clip-path="url(#p16fb0c8237)" style="fill: none; stroke: #ff7c00; stroke-linecap: round"/>
   </g>
   <g id="line2d_14">
    <path d="M 20.577155 323.476429 
L 25.583059 292.609777 
L 30.588962 260.548994 
L 35.594865 242.196352 
L 40.600769 237.190793 
L 45.606672 232.117728 
L 50.612576 223.817209 
L 55.618479 218.209171 
L 60.624383 215.621208 
L 65.630286 212.910165 
L 70.636189 210.351937 
L 75.642093 203.617326 
L 80.647996 197.310651 
L 85.6539 193.706057 
L 90.659803 190.609962 
L 95.665707 187.711092 
L 100.67161 186.847349 
L 105.677513 187.408193 
L 110.683417 185.832526 
L 115.68932 184.412758 
L 120.695224 183.506231 
L 125.701127 183.561906 
L 130.707031 182.857653 
L 135.712934 182.278005 
L 140.718838 182.06797 
L 145.724741 182.010307 
L 150.730644 182.257335 
L 155.736548 181.766086 
L 160.742451 182.818377 
L 165.748355 183.325811 
L 170.754258 183.554034 
L 175.760162 182.500565 
L 180.766065 181.406725 
L 185.771968 181.523641 
L 190.777872 182.089781 
L 195.783775 181.469026 
L 200.789679 181.042699 
L 205.795582 180.371573 
L 210.801486 180.809307 
L 215.807389 178.94993 
L 220.813292 176.355379 
L 225.819196 175.344213 
L 230.825099 162.120517 
L 235.831003 144.608048 
L 240.836906 133.592037 
L 245.84281 134.065038 
L 250.848713 131.406976 
L 255.854616 126.354819 
L 260.86052 125.276623 
L 265.866423 125.855112 
L 270.872327 125.52348 
L 275.87823 120.860893 
L 280.884134 118.250399 
L 285.890037 116.778887 
L 290.89594 111.993908 
L 295.901844 109.834564 
L 300.907747 109.295252 
L 305.913651 101.104261 
L 310.919554 91.415172 
L 315.925458 90.303493 
L 320.931361 91.653087 
L 325.937264 93.382444 
L 330.943168 97.484514 
L 335.949071 99.011817 
L 340.954975 95.445808 
L 345.960878 93.813816 
L 350.966782 90.29578 
L 355.972685 88.316223 
L 360.978589 93.762194 
L 365.984492 101.826436 
L 370.990395 102.943854 
L 375.996299 101.171368 
L 381.002202 93.769726 
L 386.008106 84.386274 
L 391.014009 80.003737 
L 396.019913 80.657772 
L 401.025816 84.51427 
L 406.031719 89.480576 
L 411.037623 86.481754 
L 416.043526 81.620869 
L 421.04943 80.446271 
L 426.055333 80.653272 
L 431.061237 78.677878 
L 436.06714 80.432801 
L 441.073043 82.352698 
L 446.078947 85.149897 
L 451.08485 84.249263 
L 456.090754 78.360956 
L 461.096657 76.294818 
L 466.102561 75.028942 
L 471.108464 74.524714 
L 476.114367 77.252592 
L 481.120271 76.349633 
L 486.126174 76.560539 
L 491.132078 75.744468 
L 496.137981 74.43436 
L 501.143885 72.983749 
L 506.149788 74.395683 
L 511.155691 72.243997 
L 516.161595 71.297857 
" clip-path="url(#p16fb0c8237)" style="fill: none; stroke: #000000; stroke-width: 1.5; stroke-linecap: round"/>
   </g>
   <g id="line2d_15">
    <path d="M 20.577155 74.14669 
L 25.583059 83.268549 
L 30.588962 95.487282 
L 35.594865 104.106832 
L 40.600769 116.122128 
L 45.606672 129.572611 
L 50.612576 135.809612 
L 55.618479 144.053191 
L 60.624383 153.247952 
L 65.630286 160.516366 
L 70.636189 165.613403 
L 75.642093 170.535848 
L 80.647996 175.062781 
L 85.6539 181.448142 
L 90.659803 190.170315 
L 95.665707 199.060216 
L 100.67161 206.150374 
L 105.677513 211.003401 
L 110.683417 217.492497 
L 115.68932 228.45799 
L 120.695224 236.160891 
L 125.701127 237.869583 
L 130.707031 235.079625 
L 135.712934 229.440179 
L 140.718838 226.734046 
L 145.724741 227.67963 
L 150.730644 227.563372 
L 155.736548 228.046424 
L 160.742451 230.668083 
L 165.748355 235.792786 
L 170.754258 240.909395 
L 175.760162 244.413891 
L 180.766065 249.501577 
L 185.771968 256.233285 
L 190.777872 264.172496 
L 195.783775 268.863042 
L 200.789679 272.004205 
L 205.795582 272.296098 
L 210.801486 273.810233 
L 215.807389 276.828483 
L 220.813292 278.789888 
L 225.819196 281.531736 
L 230.825099 281.517029 
L 235.831003 282.552132 
L 240.836906 285.364174 
L 245.84281 288.032481 
L 250.848713 288.774539 
L 255.854616 291.520123 
L 260.86052 294.604833 
L 265.866423 294.389674 
L 270.872327 294.841335 
L 275.87823 294.157093 
L 280.884134 293.257661 
L 285.890037 292.908613 
L 290.89594 292.833784 
L 295.901844 292.236907 
L 300.907747 291.93432 
L 305.913651 289.598626 
L 310.919554 287.896467 
L 315.925458 289.224407 
L 320.931361 290.787067 
L 325.937264 291.924823 
L 330.943168 293.380469 
L 335.949071 295.935589 
L 340.954975 297.298745 
L 345.960878 297.405309 
L 350.966782 296.158496 
L 355.972685 296.891952 
L 360.978589 299.306824 
L 365.984492 301.218213 
L 370.990395 301.31045 
L 375.996299 303.307972 
L 381.002202 303.409715 
L 386.008106 302.180233 
L 391.014009 302.545917 
L 396.019913 301.75797 
L 401.025816 305.325523 
L 406.031719 307.625745 
L 411.037623 305.477538 
L 416.043526 305.395546 
L 421.04943 308.262513 
L 426.055333 309.929041 
L 431.061237 309.074299 
L 436.06714 308.081817 
L 441.073043 310.416565 
L 446.078947 313.124893 
L 451.08485 313.713325 
L 456.090754 312.942275 
L 461.096657 312.746538 
L 466.102561 313.270705 
L 471.108464 313.217443 
L 476.114367 314.024041 
L 481.120271 314.271775 
L 486.126174 317.412104 
L 491.132078 318.284858 
L 496.137981 320.011809 
L 501.143885 321.620022 
L 506.149788 321.793132 
L 511.155691 319.257784 
L 516.161595 317.4499 
" clip-path="url(#p16fb0c8237)" style="fill: none; stroke: #8b2be2; stroke-width: 1.5; stroke-linecap: round"/>
   </g>
   <g id="patch_3">
    <path d="M 10.8 328.52 
L 10.8 46.08 
" style="fill: none; stroke: #ffffff; stroke-width: 0.8; stroke-linejoin: miter; stroke-linecap: square"/>
   </g>
   <g id="patch_4">
    <path d="M 522.797024 328.52 
L 522.797024 46.08 
" style="fill: none; stroke: #ffffff; stroke-width: 0.8; stroke-linejoin: miter; stroke-linecap: square"/>
   </g>
   <g id="patch_5">
    <path d="M 10.8 328.52 
L 522.797024 328.52 
" style="fill: none; stroke: #ffffff; stroke-width: 0.8; stroke-linejoin: miter; stroke-linecap: square"/>
   </g>
   <g id="patch_6">
    <path d="M 10.8 46.08 
L 522.797024 46.08 
" style="fill: none; stroke: #ffffff; stroke-width: 0.8; stroke-linejoin: miter; stroke-linecap: square"/>
   </g>
  </g>
  <g id="text_3">
   <!-- CMU-Net | No Mod -->
   <g style="fill: #262626" transform="translate(146.630625 25.54125) scale(0.24 -0.24)">
    <defs>
     <path id="DejaVuSans-Bold-43" d="M 4288 256 
Q 3956 84 3597 -3 
Q 3238 -91 2847 -91 
Q 1681 -91 1000 561 
Q 319 1213 319 2328 
Q 319 3447 1000 4098 
Q 1681 4750 2847 4750 
Q 3238 4750 3597 4662 
Q 3956 4575 4288 4403 
L 4288 3438 
Q 3953 3666 3628 3772 
Q 3303 3878 2944 3878 
Q 2300 3878 1931 3465 
Q 1563 3053 1563 2328 
Q 1563 1606 1931 1193 
Q 2300 781 2944 781 
Q 3303 781 3628 887 
Q 3953 994 4288 1222 
L 4288 256 
z
" transform="scale(0.015625)"/>
     <path id="DejaVuSans-Bold-4d" d="M 588 4666 
L 2119 4666 
L 3181 2169 
L 4250 4666 
L 5778 4666 
L 5778 0 
L 4641 0 
L 4641 3413 
L 3566 897 
L 2803 897 
L 1728 3413 
L 1728 0 
L 588 0 
L 588 4666 
z
" transform="scale(0.015625)"/>
     <path id="DejaVuSans-Bold-55" d="M 588 4666 
L 1791 4666 
L 1791 1869 
Q 1791 1291 1980 1042 
Q 2169 794 2597 794 
Q 3028 794 3217 1042 
Q 3406 1291 3406 1869 
L 3406 4666 
L 4609 4666 
L 4609 1869 
Q 4609 878 4112 393 
Q 3616 -91 2597 -91 
Q 1581 -91 1084 393 
Q 588 878 588 1869 
L 588 4666 
z
" transform="scale(0.015625)"/>
     <path id="DejaVuSans-Bold-2d" d="M 347 2297 
L 2309 2297 
L 2309 1388 
L 347 1388 
L 347 2297 
z
" transform="scale(0.015625)"/>
     <path id="DejaVuSans-Bold-4e" d="M 588 4666 
L 1931 4666 
L 3628 1466 
L 3628 4666 
L 4769 4666 
L 4769 0 
L 3425 0 
L 1728 3200 
L 1728 0 
L 588 0 
L 588 4666 
z
" transform="scale(0.015625)"/>
     <path id="DejaVuSans-Bold-65" d="M 4031 1759 
L 4031 1441 
L 1416 1441 
Q 1456 1047 1700 850 
Q 1944 653 2381 653 
Q 2734 653 3104 758 
Q 3475 863 3866 1075 
L 3866 213 
Q 3469 63 3072 -14 
Q 2675 -91 2278 -91 
Q 1328 -91 801 392 
Q 275 875 275 1747 
Q 275 2603 792 3093 
Q 1309 3584 2216 3584 
Q 3041 3584 3536 3087 
Q 4031 2591 4031 1759 
z
M 2881 2131 
Q 2881 2450 2695 2645 
Q 2509 2841 2209 2841 
Q 1884 2841 1681 2658 
Q 1478 2475 1428 2131 
L 2881 2131 
z
" transform="scale(0.015625)"/>
     <path id="DejaVuSans-Bold-74" d="M 1759 4494 
L 1759 3500 
L 2913 3500 
L 2913 2700 
L 1759 2700 
L 1759 1216 
Q 1759 972 1856 886 
Q 1953 800 2241 800 
L 2816 800 
L 2816 0 
L 1856 0 
Q 1194 0 917 276 
Q 641 553 641 1216 
L 641 2700 
L 84 2700 
L 84 3500 
L 641 3500 
L 641 4494 
L 1759 4494 
z
" transform="scale(0.015625)"/>
     <path id="DejaVuSans-Bold-20" transform="scale(0.015625)"/>
     <path id="DejaVuSans-Bold-7c" d="M 1522 4891 
L 1522 -1509 
L 813 -1509 
L 813 4891 
L 1522 4891 
z
" transform="scale(0.015625)"/>
     <path id="DejaVuSans-Bold-6f" d="M 2203 2784 
Q 1831 2784 1636 2517 
Q 1441 2250 1441 1747 
Q 1441 1244 1636 976 
Q 1831 709 2203 709 
Q 2569 709 2762 976 
Q 2956 1244 2956 1747 
Q 2956 2250 2762 2517 
Q 2569 2784 2203 2784 
z
M 2203 3584 
Q 3106 3584 3614 3096 
Q 4122 2609 4122 1747 
Q 4122 884 3614 396 
Q 3106 -91 2203 -91 
Q 1297 -91 786 396 
Q 275 884 275 1747 
Q 275 2609 786 3096 
Q 1297 3584 2203 3584 
z
" transform="scale(0.015625)"/>
     <path id="DejaVuSans-Bold-64" d="M 2919 2988 
L 2919 4863 
L 4044 4863 
L 4044 0 
L 2919 0 
L 2919 506 
Q 2688 197 2409 53 
Q 2131 -91 1766 -91 
Q 1119 -91 703 423 
Q 288 938 288 1747 
Q 288 2556 703 3070 
Q 1119 3584 1766 3584 
Q 2128 3584 2408 3439 
Q 2688 3294 2919 2988 
z
M 2181 722 
Q 2541 722 2730 984 
Q 2919 1247 2919 1747 
Q 2919 2247 2730 2509 
Q 2541 2772 2181 2772 
Q 1825 2772 1636 2509 
Q 1447 2247 1447 1747 
Q 1447 1247 1636 984 
Q 1825 722 2181 722 
z
" transform="scale(0.015625)"/>
    </defs>
    <use xlink:href="#DejaVuSans-Bold-43"/>
    <use xlink:href="#DejaVuSans-Bold-4d" transform="translate(73.388672 0)"/>
    <use xlink:href="#DejaVuSans-Bold-55" transform="translate(172.900391 0)"/>
    <use xlink:href="#DejaVuSans-Bold-2d" transform="translate(254.101562 0)"/>
    <use xlink:href="#DejaVuSans-Bold-4e" transform="translate(295.605469 0)"/>
    <use xlink:href="#DejaVuSans-Bold-65" transform="translate(379.296875 0)"/>
    <use xlink:href="#DejaVuSans-Bold-74" transform="translate(447.119141 0)"/>
    <use xlink:href="#DejaVuSans-Bold-20" transform="translate(494.921875 0)"/>
    <use xlink:href="#DejaVuSans-Bold-7c" transform="translate(529.736328 0)"/>
    <use xlink:href="#DejaVuSans-Bold-20" transform="translate(566.259766 0)"/>
    <use xlink:href="#DejaVuSans-Bold-4e" transform="translate(601.074219 0)"/>
    <use xlink:href="#DejaVuSans-Bold-6f" transform="translate(684.765625 0)"/>
    <use xlink:href="#DejaVuSans-Bold-20" transform="translate(753.466797 0)"/>
    <use xlink:href="#DejaVuSans-Bold-4d" transform="translate(788.28125 0)"/>
    <use xlink:href="#DejaVuSans-Bold-6f" transform="translate(887.792969 0)"/>
    <use xlink:href="#DejaVuSans-Bold-64" transform="translate(956.494141 0)"/>
   </g>
  </g>
 </g>
 <defs>
  <clipPath id="p16fb0c8237">
   <rect x="10.8" y="46.08" width="511.997024" height="282.44"/>
  </clipPath>
 </defs>
</svg>
