<?xml version="1.0" encoding="utf-8" standalone="no"?>
<!DOCTYPE svg PUBLIC "-//W3C//DTD SVG 1.1//EN"
  "http://www.w3.org/Graphics/SVG/1.1/DTD/svg11.dtd">
<svg xmlns:xlink="http://www.w3.org/1999/xlink" width="648pt" height="432pt" viewBox="0 0 648 432" xmlns="http://www.w3.org/2000/svg" version="1.1">
 <metadata>
  <rdf:RDF xmlns:dc="http://purl.org/dc/elements/1.1/" xmlns:cc="http://creativecommons.org/ns#" xmlns:rdf="http://www.w3.org/1999/02/22-rdf-syntax-ns#">
   <cc:Work>
    <dc:type rdf:resource="http://purl.org/dc/dcmitype/StillImage"/>
    <dc:date>2025-08-04T02:53:05.545959</dc:date>
    <dc:format>image/svg+xml</dc:format>
    <dc:creator>
     <cc:Agent>
      <dc:title>Matplotlib v3.10.0, https://matplotlib.org/</dc:title>
     </cc:Agent>
    </dc:creator>
   </cc:Work>
  </rdf:RDF>
 </metadata>
 <defs>
  <style type="text/css">*{stroke-linejoin: round; stroke-linecap: butt}</style>
 </defs>
 <g id="figure_1">
  <g id="patch_1">
   <path d="M 0 432 
L 648 432 
L 648 0 
L 0 0 
z
" style="fill: #ffffff"/>
  </g>
  <g id="axes_1">
   <g id="patch_2">
    <path d="M 83.45 382.12 
L 637.2 382.12 
L 637.2 38.88 
L 83.45 38.88 
z
" style="fill: #eaeaf2"/>
   </g>
   <g id="matplotlib.axis_1">
    <g id="xtick_1">
     <g id="line2d_1">
      <path d="M 94.007674 382.12 
L 94.007674 38.88 
" clip-path="url(#p653f776788)" style="fill: none; stroke: #ffffff; stroke-width: 0.8; stroke-linecap: round"/>
     </g>
     <g id="text_1">
      <!-- 0 -->
      <g style="fill: #262626" transform="translate(89.553924 399.757812) scale(0.14 -0.14)">
       <defs>
        <path id="DejaVuSans-30" d="M 2034 4250 
Q 1547 4250 1301 3770 
Q 1056 3291 1056 2328 
Q 1056 1369 1301 889 
Q 1547 409 2034 409 
Q 2525 409 2770 889 
Q 3016 1369 3016 2328 
Q 3016 3291 2770 3770 
Q 2525 4250 2034 4250 
z
M 2034 4750 
Q 2819 4750 3233 4129 
Q 3647 3509 3647 2328 
Q 3647 1150 3233 529 
Q 2819 -91 2034 -91 
Q 1250 -91 836 529 
Q 422 1150 422 2328 
Q 422 3509 836 4129 
Q 1250 4750 2034 4750 
z
" transform="scale(0.015625)"/>
       </defs>
       <use xlink:href="#DejaVuSans-30"/>
      </g>
     </g>
    </g>
    <g id="xtick_2">
     <g id="line2d_2">
      <path d="M 225.978599 382.12 
L 225.978599 38.88 
" clip-path="url(#p653f776788)" style="fill: none; stroke: #ffffff; stroke-width: 0.8; stroke-linecap: round"/>
     </g>
     <g id="text_2">
      <!-- 500k -->
      <g style="fill: #262626" transform="translate(208.563911 399.757812) scale(0.14 -0.14)">
       <defs>
        <path id="DejaVuSans-35" d="M 691 4666 
L 3169 4666 
L 3169 4134 
L 1269 4134 
L 1269 2991 
Q 1406 3038 1543 3061 
Q 1681 3084 1819 3084 
Q 2600 3084 3056 2656 
Q 3513 2228 3513 1497 
Q 3513 744 3044 326 
Q 2575 -91 1722 -91 
Q 1428 -91 1123 -41 
Q 819 9 494 109 
L 494 744 
Q 775 591 1075 516 
Q 1375 441 1709 441 
Q 2250 441 2565 725 
Q 2881 1009 2881 1497 
Q 2881 1984 2565 2268 
Q 2250 2553 1709 2553 
Q 1456 2553 1204 2497 
Q 953 2441 691 2322 
L 691 4666 
z
" transform="scale(0.015625)"/>
        <path id="DejaVuSans-6b" d="M 581 4863 
L 1159 4863 
L 1159 1991 
L 2875 3500 
L 3609 3500 
L 1753 1863 
L 3688 0 
L 2938 0 
L 1159 1709 
L 1159 0 
L 581 0 
L 581 4863 
z
" transform="scale(0.015625)"/>
       </defs>
       <use xlink:href="#DejaVuSans-35"/>
       <use xlink:href="#DejaVuSans-30" transform="translate(63.623047 0)"/>
       <use xlink:href="#DejaVuSans-30" transform="translate(127.246094 0)"/>
       <use xlink:href="#DejaVuSans-6b" transform="translate(190.869141 0)"/>
      </g>
     </g>
    </g>
    <g id="xtick_3">
     <g id="line2d_3">
      <path d="M 357.949523 382.12 
L 357.949523 38.88 
" clip-path="url(#p653f776788)" style="fill: none; stroke: #ffffff; stroke-width: 0.8; stroke-linecap: round"/>
     </g>
     <g id="text_3">
      <!-- 1M -->
      <g style="fill: #262626" transform="translate(347.456086 399.757812) scale(0.14 -0.14)">
       <defs>
        <path id="DejaVuSans-31" d="M 794 531 
L 1825 531 
L 1825 4091 
L 703 3866 
L 703 4441 
L 1819 4666 
L 2450 4666 
L 2450 531 
L 3481 531 
L 3481 0 
L 794 0 
L 794 531 
z
" transform="scale(0.015625)"/>
        <path id="DejaVuSans-4d" d="M 628 4666 
L 1569 4666 
L 2759 1491 
L 3956 4666 
L 4897 4666 
L 4897 0 
L 4281 0 
L 4281 4097 
L 3078 897 
L 2444 897 
L 1241 4097 
L 1241 0 
L 628 0 
L 628 4666 
z
" transform="scale(0.015625)"/>
       </defs>
       <use xlink:href="#DejaVuSans-31"/>
       <use xlink:href="#DejaVuSans-4d" transform="translate(63.623047 0)"/>
      </g>
     </g>
    </g>
    <g id="xtick_4">
     <g id="line2d_4">
      <path d="M 489.920448 382.12 
L 489.920448 38.88 
" clip-path="url(#p653f776788)" style="fill: none; stroke: #ffffff; stroke-width: 0.8; stroke-linecap: round"/>
     </g>
     <g id="text_4">
      <!-- 1.5M -->
      <g style="fill: #262626" transform="translate(472.748573 399.757812) scale(0.14 -0.14)">
       <defs>
        <path id="DejaVuSans-2e" d="M 684 794 
L 1344 794 
L 1344 0 
L 684 0 
L 684 794 
z
" transform="scale(0.015625)"/>
       </defs>
       <use xlink:href="#DejaVuSans-31"/>
       <use xlink:href="#DejaVuSans-2e" transform="translate(63.623047 0)"/>
       <use xlink:href="#DejaVuSans-35" transform="translate(95.410156 0)"/>
       <use xlink:href="#DejaVuSans-4d" transform="translate(159.033203 0)"/>
      </g>
     </g>
    </g>
    <g id="xtick_5">
     <g id="line2d_5">
      <path d="M 621.891373 382.12 
L 621.891373 38.88 
" clip-path="url(#p653f776788)" style="fill: none; stroke: #ffffff; stroke-width: 0.8; stroke-linecap: round"/>
     </g>
     <g id="text_5">
      <!-- 2M -->
      <g style="fill: #262626" transform="translate(611.397935 399.757812) scale(0.14 -0.14)">
       <defs>
        <path id="DejaVuSans-32" d="M 1228 531 
L 3431 531 
L 3431 0 
L 469 0 
L 469 531 
Q 828 903 1448 1529 
Q 2069 2156 2228 2338 
Q 2531 2678 2651 2914 
Q 2772 3150 2772 3378 
Q 2772 3750 2511 3984 
Q 2250 4219 1831 4219 
Q 1534 4219 1204 4116 
Q 875 4013 500 3803 
L 500 4441 
Q 881 4594 1212 4672 
Q 1544 4750 1819 4750 
Q 2544 4750 2975 4387 
Q 3406 4025 3406 3419 
Q 3406 3131 3298 2873 
Q 3191 2616 2906 2266 
Q 2828 2175 2409 1742 
Q 1991 1309 1228 531 
z
" transform="scale(0.015625)"/>
       </defs>
       <use xlink:href="#DejaVuSans-32"/>
       <use xlink:href="#DejaVuSans-4d" transform="translate(63.623047 0)"/>
      </g>
     </g>
    </g>
    <g id="text_6">
     <!-- Steps -->
     <g style="fill: #262626" transform="translate(337.94125 418.826875) scale(0.16 -0.16)">
      <defs>
       <path id="DejaVuSans-53" d="M 3425 4513 
L 3425 3897 
Q 3066 4069 2747 4153 
Q 2428 4238 2131 4238 
Q 1616 4238 1336 4038 
Q 1056 3838 1056 3469 
Q 1056 3159 1242 3001 
Q 1428 2844 1947 2747 
L 2328 2669 
Q 3034 2534 3370 2195 
Q 3706 1856 3706 1288 
Q 3706 609 3251 259 
Q 2797 -91 1919 -91 
Q 1588 -91 1214 -16 
Q 841 59 441 206 
L 441 856 
Q 825 641 1194 531 
Q 1563 422 1919 422 
Q 2459 422 2753 634 
Q 3047 847 3047 1241 
Q 3047 1584 2836 1778 
Q 2625 1972 2144 2069 
L 1759 2144 
Q 1053 2284 737 2584 
Q 422 2884 422 3419 
Q 422 4038 858 4394 
Q 1294 4750 2059 4750 
Q 2388 4750 2728 4690 
Q 3069 4631 3425 4513 
z
" transform="scale(0.015625)"/>
       <path id="DejaVuSans-74" d="M 1172 4494 
L 1172 3500 
L 2356 3500 
L 2356 3053 
L 1172 3053 
L 1172 1153 
Q 1172 725 1289 603 
Q 1406 481 1766 481 
L 2356 481 
L 2356 0 
L 1766 0 
Q 1100 0 847 248 
Q 594 497 594 1153 
L 594 3053 
L 172 3053 
L 172 3500 
L 594 3500 
L 594 4494 
L 1172 4494 
z
" transform="scale(0.015625)"/>
       <path id="DejaVuSans-65" d="M 3597 1894 
L 3597 1613 
L 953 1613 
Q 991 1019 1311 708 
Q 1631 397 2203 397 
Q 2534 397 2845 478 
Q 3156 559 3463 722 
L 3463 178 
Q 3153 47 2828 -22 
Q 2503 -91 2169 -91 
Q 1331 -91 842 396 
Q 353 884 353 1716 
Q 353 2575 817 3079 
Q 1281 3584 2069 3584 
Q 2775 3584 3186 3129 
Q 3597 2675 3597 1894 
z
M 3022 2063 
Q 3016 2534 2758 2815 
Q 2500 3097 2075 3097 
Q 1594 3097 1305 2825 
Q 1016 2553 972 2059 
L 3022 2063 
z
" transform="scale(0.015625)"/>
       <path id="DejaVuSans-70" d="M 1159 525 
L 1159 -1331 
L 581 -1331 
L 581 3500 
L 1159 3500 
L 1159 2969 
Q 1341 3281 1617 3432 
Q 1894 3584 2278 3584 
Q 2916 3584 3314 3078 
Q 3713 2572 3713 1747 
Q 3713 922 3314 415 
Q 2916 -91 2278 -91 
Q 1894 -91 1617 61 
Q 1341 213 1159 525 
z
M 3116 1747 
Q 3116 2381 2855 2742 
Q 2594 3103 2138 3103 
Q 1681 3103 1420 2742 
Q 1159 2381 1159 1747 
Q 1159 1113 1420 752 
Q 1681 391 2138 391 
Q 2594 391 2855 752 
Q 3116 1113 3116 1747 
z
" transform="scale(0.015625)"/>
       <path id="DejaVuSans-73" d="M 2834 3397 
L 2834 2853 
Q 2591 2978 2328 3040 
Q 2066 3103 1784 3103 
Q 1356 3103 1142 2972 
Q 928 2841 928 2578 
Q 928 2378 1081 2264 
Q 1234 2150 1697 2047 
L 1894 2003 
Q 2506 1872 2764 1633 
Q 3022 1394 3022 966 
Q 3022 478 2636 193 
Q 2250 -91 1575 -91 
Q 1294 -91 989 -36 
Q 684 19 347 128 
L 347 722 
Q 666 556 975 473 
Q 1284 391 1588 391 
Q 1994 391 2212 530 
Q 2431 669 2431 922 
Q 2431 1156 2273 1281 
Q 2116 1406 1581 1522 
L 1381 1569 
Q 847 1681 609 1914 
Q 372 2147 372 2553 
Q 372 3047 722 3315 
Q 1072 3584 1716 3584 
Q 2034 3584 2315 3537 
Q 2597 3491 2834 3397 
z
" transform="scale(0.015625)"/>
      </defs>
      <use xlink:href="#DejaVuSans-53"/>
      <use xlink:href="#DejaVuSans-74" transform="translate(63.476562 0)"/>
      <use xlink:href="#DejaVuSans-65" transform="translate(102.685547 0)"/>
      <use xlink:href="#DejaVuSans-70" transform="translate(164.208984 0)"/>
      <use xlink:href="#DejaVuSans-73" transform="translate(227.685547 0)"/>
     </g>
    </g>
   </g>
   <g id="matplotlib.axis_2">
    <g id="ytick_1">
     <g id="line2d_6">
      <path d="M 83.45 358.893233 
L 637.2 358.893233 
" clip-path="url(#p653f776788)" style="fill: none; stroke: #ffffff; stroke-width: 0.8; stroke-linecap: round"/>
     </g>
     <g id="text_7">
      <!-- −1200 -->
      <g style="fill: #262626" transform="translate(29.088437 364.212139) scale(0.14 -0.14)">
       <defs>
        <path id="DejaVuSans-2212" d="M 678 2272 
L 4684 2272 
L 4684 1741 
L 678 1741 
L 678 2272 
z
" transform="scale(0.015625)"/>
       </defs>
       <use xlink:href="#DejaVuSans-2212"/>
       <use xlink:href="#DejaVuSans-31" transform="translate(83.789062 0)"/>
       <use xlink:href="#DejaVuSans-32" transform="translate(147.412109 0)"/>
       <use xlink:href="#DejaVuSans-30" transform="translate(211.035156 0)"/>
       <use xlink:href="#DejaVuSans-30" transform="translate(274.658203 0)"/>
      </g>
     </g>
    </g>
    <g id="ytick_2">
     <g id="line2d_7">
      <path d="M 83.45 307.278195 
L 637.2 307.278195 
" clip-path="url(#p653f776788)" style="fill: none; stroke: #ffffff; stroke-width: 0.8; stroke-linecap: round"/>
     </g>
     <g id="text_8">
      <!-- −1000 -->
      <g style="fill: #262626" transform="translate(29.088437 312.597102) scale(0.14 -0.14)">
       <use xlink:href="#DejaVuSans-2212"/>
       <use xlink:href="#DejaVuSans-31" transform="translate(83.789062 0)"/>
       <use xlink:href="#DejaVuSans-30" transform="translate(147.412109 0)"/>
       <use xlink:href="#DejaVuSans-30" transform="translate(211.035156 0)"/>
       <use xlink:href="#DejaVuSans-30" transform="translate(274.658203 0)"/>
      </g>
     </g>
    </g>
    <g id="ytick_3">
     <g id="line2d_8">
      <path d="M 83.45 255.663158 
L 637.2 255.663158 
" clip-path="url(#p653f776788)" style="fill: none; stroke: #ffffff; stroke-width: 0.8; stroke-linecap: round"/>
     </g>
     <g id="text_9">
      <!-- −800 -->
      <g style="fill: #262626" transform="translate(37.995937 260.982064) scale(0.14 -0.14)">
       <defs>
        <path id="DejaVuSans-38" d="M 2034 2216 
Q 1584 2216 1326 1975 
Q 1069 1734 1069 1313 
Q 1069 891 1326 650 
Q 1584 409 2034 409 
Q 2484 409 2743 651 
Q 3003 894 3003 1313 
Q 3003 1734 2745 1975 
Q 2488 2216 2034 2216 
z
M 1403 2484 
Q 997 2584 770 2862 
Q 544 3141 544 3541 
Q 544 4100 942 4425 
Q 1341 4750 2034 4750 
Q 2731 4750 3128 4425 
Q 3525 4100 3525 3541 
Q 3525 3141 3298 2862 
Q 3072 2584 2669 2484 
Q 3125 2378 3379 2068 
Q 3634 1759 3634 1313 
Q 3634 634 3220 271 
Q 2806 -91 2034 -91 
Q 1263 -91 848 271 
Q 434 634 434 1313 
Q 434 1759 690 2068 
Q 947 2378 1403 2484 
z
M 1172 3481 
Q 1172 3119 1398 2916 
Q 1625 2713 2034 2713 
Q 2441 2713 2670 2916 
Q 2900 3119 2900 3481 
Q 2900 3844 2670 4047 
Q 2441 4250 2034 4250 
Q 1625 4250 1398 4047 
Q 1172 3844 1172 3481 
z
" transform="scale(0.015625)"/>
       </defs>
       <use xlink:href="#DejaVuSans-2212"/>
       <use xlink:href="#DejaVuSans-38" transform="translate(83.789062 0)"/>
       <use xlink:href="#DejaVuSans-30" transform="translate(147.412109 0)"/>
       <use xlink:href="#DejaVuSans-30" transform="translate(211.035156 0)"/>
      </g>
     </g>
    </g>
    <g id="ytick_4">
     <g id="line2d_9">
      <path d="M 83.45 204.04812 
L 637.2 204.04812 
" clip-path="url(#p653f776788)" style="fill: none; stroke: #ffffff; stroke-width: 0.8; stroke-linecap: round"/>
     </g>
     <g id="text_10">
      <!-- −600 -->
      <g style="fill: #262626" transform="translate(37.995937 209.367027) scale(0.14 -0.14)">
       <defs>
        <path id="DejaVuSans-36" d="M 2113 2584 
Q 1688 2584 1439 2293 
Q 1191 2003 1191 1497 
Q 1191 994 1439 701 
Q 1688 409 2113 409 
Q 2538 409 2786 701 
Q 3034 994 3034 1497 
Q 3034 2003 2786 2293 
Q 2538 2584 2113 2584 
z
M 3366 4563 
L 3366 3988 
Q 3128 4100 2886 4159 
Q 2644 4219 2406 4219 
Q 1781 4219 1451 3797 
Q 1122 3375 1075 2522 
Q 1259 2794 1537 2939 
Q 1816 3084 2150 3084 
Q 2853 3084 3261 2657 
Q 3669 2231 3669 1497 
Q 3669 778 3244 343 
Q 2819 -91 2113 -91 
Q 1303 -91 875 529 
Q 447 1150 447 2328 
Q 447 3434 972 4092 
Q 1497 4750 2381 4750 
Q 2619 4750 2861 4703 
Q 3103 4656 3366 4563 
z
" transform="scale(0.015625)"/>
       </defs>
       <use xlink:href="#DejaVuSans-2212"/>
       <use xlink:href="#DejaVuSans-36" transform="translate(83.789062 0)"/>
       <use xlink:href="#DejaVuSans-30" transform="translate(147.412109 0)"/>
       <use xlink:href="#DejaVuSans-30" transform="translate(211.035156 0)"/>
      </g>
     </g>
    </g>
    <g id="ytick_5">
     <g id="line2d_10">
      <path d="M 83.45 152.433083 
L 637.2 152.433083 
" clip-path="url(#p653f776788)" style="fill: none; stroke: #ffffff; stroke-width: 0.8; stroke-linecap: round"/>
     </g>
     <g id="text_11">
      <!-- −400 -->
      <g style="fill: #262626" transform="translate(37.995937 157.751989) scale(0.14 -0.14)">
       <defs>
        <path id="DejaVuSans-34" d="M 2419 4116 
L 825 1625 
L 2419 1625 
L 2419 4116 
z
M 2253 4666 
L 3047 4666 
L 3047 1625 
L 3713 1625 
L 3713 1100 
L 3047 1100 
L 3047 0 
L 2419 0 
L 2419 1100 
L 313 1100 
L 313 1709 
L 2253 4666 
z
" transform="scale(0.015625)"/>
       </defs>
       <use xlink:href="#DejaVuSans-2212"/>
       <use xlink:href="#DejaVuSans-34" transform="translate(83.789062 0)"/>
       <use xlink:href="#DejaVuSans-30" transform="translate(147.412109 0)"/>
       <use xlink:href="#DejaVuSans-30" transform="translate(211.035156 0)"/>
      </g>
     </g>
    </g>
    <g id="ytick_6">
     <g id="line2d_11">
      <path d="M 83.45 100.818045 
L 637.2 100.818045 
" clip-path="url(#p653f776788)" style="fill: none; stroke: #ffffff; stroke-width: 0.8; stroke-linecap: round"/>
     </g>
     <g id="text_12">
      <!-- −200 -->
      <g style="fill: #262626" transform="translate(37.995937 106.136951) scale(0.14 -0.14)">
       <use xlink:href="#DejaVuSans-2212"/>
       <use xlink:href="#DejaVuSans-32" transform="translate(83.789062 0)"/>
       <use xlink:href="#DejaVuSans-30" transform="translate(147.412109 0)"/>
       <use xlink:href="#DejaVuSans-30" transform="translate(211.035156 0)"/>
      </g>
     </g>
    </g>
    <g id="ytick_7">
     <g id="line2d_12">
      <path d="M 83.45 49.203008 
L 637.2 49.203008 
" clip-path="url(#p653f776788)" style="fill: none; stroke: #ffffff; stroke-width: 0.8; stroke-linecap: round"/>
     </g>
     <g id="text_13">
      <!-- 0 -->
      <g style="fill: #262626" transform="translate(67.5425 54.521914) scale(0.14 -0.14)">
       <use xlink:href="#DejaVuSans-30"/>
      </g>
     </g>
    </g>
    <g id="text_14">
     <!-- Reward -->
     <g style="fill: #262626" transform="translate(21.760937 240.29375) rotate(-90) scale(0.16 -0.16)">
      <defs>
       <path id="DejaVuSans-52" d="M 2841 2188 
Q 3044 2119 3236 1894 
Q 3428 1669 3622 1275 
L 4263 0 
L 3584 0 
L 2988 1197 
Q 2756 1666 2539 1819 
Q 2322 1972 1947 1972 
L 1259 1972 
L 1259 0 
L 628 0 
L 628 4666 
L 2053 4666 
Q 2853 4666 3247 4331 
Q 3641 3997 3641 3322 
Q 3641 2881 3436 2590 
Q 3231 2300 2841 2188 
z
M 1259 4147 
L 1259 2491 
L 2053 2491 
Q 2509 2491 2742 2702 
Q 2975 2913 2975 3322 
Q 2975 3731 2742 3939 
Q 2509 4147 2053 4147 
L 1259 4147 
z
" transform="scale(0.015625)"/>
       <path id="DejaVuSans-77" d="M 269 3500 
L 844 3500 
L 1563 769 
L 2278 3500 
L 2956 3500 
L 3675 769 
L 4391 3500 
L 4966 3500 
L 4050 0 
L 3372 0 
L 2619 2869 
L 1863 0 
L 1184 0 
L 269 3500 
z
" transform="scale(0.015625)"/>
       <path id="DejaVuSans-61" d="M 2194 1759 
Q 1497 1759 1228 1600 
Q 959 1441 959 1056 
Q 959 750 1161 570 
Q 1363 391 1709 391 
Q 2188 391 2477 730 
Q 2766 1069 2766 1631 
L 2766 1759 
L 2194 1759 
z
M 3341 1997 
L 3341 0 
L 2766 0 
L 2766 531 
Q 2569 213 2275 61 
Q 1981 -91 1556 -91 
Q 1019 -91 701 211 
Q 384 513 384 1019 
Q 384 1609 779 1909 
Q 1175 2209 1959 2209 
L 2766 2209 
L 2766 2266 
Q 2766 2663 2505 2880 
Q 2244 3097 1772 3097 
Q 1472 3097 1187 3025 
Q 903 2953 641 2809 
L 641 3341 
Q 956 3463 1253 3523 
Q 1550 3584 1831 3584 
Q 2591 3584 2966 3190 
Q 3341 2797 3341 1997 
z
" transform="scale(0.015625)"/>
       <path id="DejaVuSans-72" d="M 2631 2963 
Q 2534 3019 2420 3045 
Q 2306 3072 2169 3072 
Q 1681 3072 1420 2755 
Q 1159 2438 1159 1844 
L 1159 0 
L 581 0 
L 581 3500 
L 1159 3500 
L 1159 2956 
Q 1341 3275 1631 3429 
Q 1922 3584 2338 3584 
Q 2397 3584 2469 3576 
Q 2541 3569 2628 3553 
L 2631 2963 
z
" transform="scale(0.015625)"/>
       <path id="DejaVuSans-64" d="M 2906 2969 
L 2906 4863 
L 3481 4863 
L 3481 0 
L 2906 0 
L 2906 525 
Q 2725 213 2448 61 
Q 2172 -91 1784 -91 
Q 1150 -91 751 415 
Q 353 922 353 1747 
Q 353 2572 751 3078 
Q 1150 3584 1784 3584 
Q 2172 3584 2448 3432 
Q 2725 3281 2906 2969 
z
M 947 1747 
Q 947 1113 1208 752 
Q 1469 391 1925 391 
Q 2381 391 2643 752 
Q 2906 1113 2906 1747 
Q 2906 2381 2643 2742 
Q 2381 3103 1925 3103 
Q 1469 3103 1208 2742 
Q 947 2381 947 1747 
z
" transform="scale(0.015625)"/>
      </defs>
      <use xlink:href="#DejaVuSans-52"/>
      <use xlink:href="#DejaVuSans-65" transform="translate(64.982422 0)"/>
      <use xlink:href="#DejaVuSans-77" transform="translate(126.505859 0)"/>
      <use xlink:href="#DejaVuSans-61" transform="translate(208.292969 0)"/>
      <use xlink:href="#DejaVuSans-72" transform="translate(269.572266 0)"/>
      <use xlink:href="#DejaVuSans-64" transform="translate(308.935547 0)"/>
     </g>
    </g>
   </g>
   <g id="FillBetweenPolyCollection_1">
    <path d="M 94.007674 349.661212 
L 94.007674 375.081458 
L 99.413203 375.114234 
L 104.818732 375.882411 
L 110.224261 371.648379 
L 115.62979 360.883118 
L 121.035319 351.129615 
L 126.440848 346.493166 
L 131.846378 342.631987 
L 137.251907 340.396658 
L 142.657436 342.384349 
L 148.062965 340.816597 
L 153.468494 338.052697 
L 158.874023 337.440733 
L 164.279552 336.543885 
L 169.685081 336.979498 
L 175.09061 336.649532 
L 180.496139 331.277561 
L 185.901668 327.765322 
L 191.307197 328.66242 
L 196.712726 327.303025 
L 202.118255 328.066894 
L 207.523785 329.705214 
L 212.929314 327.369507 
L 218.334843 327.429975 
L 223.740372 327.275578 
L 229.145901 323.587609 
L 234.55143 318.491125 
L 239.956959 312.203012 
L 245.362488 303.07242 
L 250.768017 293.443956 
L 256.173546 283.615688 
L 261.579075 274.370516 
L 266.984604 267.234926 
L 272.390133 267.017207 
L 277.795663 276.412335 
L 283.201192 283.799256 
L 288.606721 291.338911 
L 294.01225 298.740036 
L 299.417779 298.868917 
L 304.823308 292.225554 
L 310.228837 293.304847 
L 315.634366 306.115783 
L 321.039895 307.954106 
L 326.445424 300.83946 
L 331.850953 296.081731 
L 337.256482 296.172602 
L 342.662011 300.138335 
L 348.067541 303.523065 
L 353.47307 304.391653 
L 358.878599 304.424785 
L 364.284128 303.18604 
L 369.689657 298.921055 
L 375.095186 291.767638 
L 380.500715 290.428623 
L 385.906244 298.823708 
L 391.311773 306.582652 
L 396.717302 314.812408 
L 402.122831 325.398988 
L 407.52836 328.553077 
L 412.933889 324.052389 
L 418.339418 321.644034 
L 423.744948 319.303871 
L 429.150477 318.696168 
L 434.556006 320.534963 
L 439.961535 320.795452 
L 445.367064 316.2688 
L 450.772593 307.668109 
L 456.178122 298.291813 
L 461.583651 288.24946 
L 466.98918 278.981431 
L 472.394709 272.198131 
L 477.800238 270.052103 
L 483.205767 271.590397 
L 488.611296 274.327618 
L 494.016826 275.145871 
L 499.422355 273.797068 
L 504.827884 271.570249 
L 510.233413 276.529003 
L 515.638942 292.68963 
L 521.044471 304.02646 
L 526.45 303.548157 
L 531.855529 297.992566 
L 537.261058 292.780345 
L 542.666587 288.929301 
L 548.072116 292.996422 
L 553.477645 310.36506 
L 558.883174 324.740936 
L 564.288704 329.796607 
L 569.694233 329.01759 
L 575.099762 324.322775 
L 580.505291 319.39676 
L 585.91082 314.297113 
L 591.316349 312.349866 
L 596.721878 310.067318 
L 602.127407 303.13849 
L 607.532936 296.425548 
L 612.938465 296.911728 
L 618.343994 303.724177 
L 623.749523 311.55111 
L 629.155052 316.52395 
L 629.155052 166.01647 
L 629.155052 166.01647 
L 623.749523 158.169465 
L 618.343994 143.558061 
L 612.938465 132.169959 
L 607.532936 129.058713 
L 602.127407 132.099675 
L 596.721878 134.356225 
L 591.316349 132.925213 
L 585.91082 132.88966 
L 580.505291 138.249011 
L 575.099762 145.096833 
L 569.694233 146.071705 
L 564.288704 142.484121 
L 558.883174 138.641676 
L 553.477645 135.490093 
L 548.072116 130.357488 
L 542.666587 128.475184 
L 537.261058 125.558421 
L 531.855529 119.129864 
L 526.45 115.840975 
L 521.044471 112.687777 
L 515.638942 100.664155 
L 510.233413 88.986508 
L 504.827884 84.633132 
L 499.422355 80.293732 
L 494.016826 76.679609 
L 488.611296 75.530961 
L 483.205767 72.77219 
L 477.800238 71.018439 
L 472.394709 69.030799 
L 466.98918 68.243682 
L 461.583651 73.678758 
L 456.178122 81.310327 
L 450.772593 85.898323 
L 445.367064 87.633445 
L 439.961535 88.472487 
L 434.556006 90.589744 
L 429.150477 92.935752 
L 423.744948 93.281455 
L 418.339418 93.111703 
L 412.933889 99.968366 
L 407.52836 109.730523 
L 402.122831 105.176123 
L 396.717302 95.10564 
L 391.311773 91.479238 
L 385.906244 91.967087 
L 380.500715 95.5637 
L 375.095186 99.938813 
L 369.689657 101.058349 
L 364.284128 100.376882 
L 358.878599 103.298518 
L 353.47307 112.945393 
L 348.067541 125.095721 
L 342.662011 133.331057 
L 337.256482 138.059015 
L 331.850953 145.227491 
L 326.445424 157.218983 
L 321.039895 166.764825 
L 315.634366 165.077866 
L 310.228837 159.707303 
L 304.823308 165.145584 
L 299.417779 182.197245 
L 294.01225 193.247985 
L 288.606721 183.318536 
L 283.201192 166.685172 
L 277.795663 155.349781 
L 272.390133 148.420709 
L 266.984604 146.899846 
L 261.579075 151.597767 
L 256.173546 161.259135 
L 250.768017 171.082025 
L 245.362488 175.330134 
L 239.956959 177.231006 
L 234.55143 182.100362 
L 229.145901 193.473984 
L 223.740372 206.006706 
L 218.334843 215.851129 
L 212.929314 230.118154 
L 207.523785 247.084335 
L 202.118255 259.458831 
L 196.712726 267.687317 
L 191.307197 276.210222 
L 185.901668 285.370762 
L 180.496139 291.952675 
L 175.09061 296.013368 
L 169.685081 297.416073 
L 164.279552 298.931124 
L 158.874023 301.492038 
L 153.468494 303.565847 
L 148.062965 307.408255 
L 142.657436 310.910559 
L 137.251907 311.400401 
L 131.846378 314.43401 
L 126.440848 319.744208 
L 121.035319 324.999992 
L 115.62979 324.455754 
L 110.224261 322.975498 
L 104.818732 331.65756 
L 99.413203 343.333595 
L 94.007674 349.661212 
z
" clip-path="url(#p653f776788)" style="fill: #023eff; fill-opacity: 0.1"/>
   </g>
   <g id="FillBetweenPolyCollection_2">
    <path d="M 94.007674 350.122952 
L 94.007674 375.388449 
L 99.413203 374.621283 
L 104.818732 372.337589 
L 110.224261 365.800593 
L 115.62979 357.294922 
L 121.035319 347.357858 
L 126.440848 340.086085 
L 131.846378 335.156216 
L 137.251907 333.688985 
L 142.657436 337.437223 
L 148.062965 338.860538 
L 153.468494 336.691977 
L 158.874023 332.29652 
L 164.279552 326.383222 
L 169.685081 320.0264 
L 175.09061 316.138957 
L 180.496139 317.654277 
L 185.901668 322.047811 
L 191.307197 322.589286 
L 196.712726 317.500971 
L 202.118255 313.271364 
L 207.523785 310.181423 
L 212.929314 306.533347 
L 218.334843 306.305879 
L 223.740372 306.691303 
L 229.145901 303.686295 
L 234.55143 299.914287 
L 239.956959 294.718094 
L 245.362488 285.823855 
L 250.768017 276.844609 
L 256.173546 268.134274 
L 261.579075 260.96194 
L 266.984604 256.30838 
L 272.390133 250.999466 
L 277.795663 241.205385 
L 283.201192 227.093668 
L 288.606721 214.947688 
L 294.01225 210.931129 
L 299.417779 209.347938 
L 304.823308 205.280542 
L 310.228837 222.583559 
L 315.634366 263.627341 
L 321.039895 285.086755 
L 326.445424 276.445573 
L 331.850953 264.159398 
L 337.256482 261.301959 
L 342.662011 257.068976 
L 348.067541 246.872362 
L 353.47307 235.501193 
L 358.878599 234.468271 
L 364.284128 239.829731 
L 369.689657 237.12345 
L 375.095186 226.824477 
L 380.500715 216.53417 
L 385.906244 210.547747 
L 391.311773 212.845059 
L 396.717302 222.025013 
L 402.122831 226.328584 
L 407.52836 221.154291 
L 412.933889 208.601805 
L 418.339418 194.470749 
L 423.744948 189.62852 
L 429.150477 198.668472 
L 434.556006 210.410171 
L 439.961535 214.378193 
L 445.367064 216.557274 
L 450.772593 220.238024 
L 456.178122 228.174415 
L 461.583651 239.357423 
L 466.98918 254.27926 
L 472.394709 273.194344 
L 477.800238 286.964253 
L 483.205767 290.852342 
L 488.611296 288.306707 
L 494.016826 285.20509 
L 499.422355 282.773038 
L 504.827884 278.932989 
L 510.233413 273.301481 
L 515.638942 271.665346 
L 521.044471 273.001165 
L 526.45 273.636667 
L 531.855529 270.425764 
L 537.261058 263.861605 
L 542.666587 256.61973 
L 548.072116 253.401725 
L 553.477645 255.188772 
L 558.883174 255.457694 
L 564.288704 256.161167 
L 569.694233 264.907163 
L 575.099762 270.728438 
L 580.505291 260.367338 
L 585.91082 249.353276 
L 591.316349 245.413194 
L 596.721878 240.997329 
L 602.127407 234.844125 
L 607.532936 233.044078 
L 612.938465 239.402044 
L 618.343994 239.994469 
L 623.749523 223.765522 
L 629.155052 205.840561 
L 629.155052 95.312367 
L 629.155052 95.312367 
L 623.749523 94.722728 
L 618.343994 91.862419 
L 612.938465 90.095775 
L 607.532936 91.655227 
L 602.127407 98.859079 
L 596.721878 105.851579 
L 591.316349 104.262736 
L 585.91082 103.050128 
L 580.505291 106.646386 
L 575.099762 107.519389 
L 569.694233 100.728847 
L 564.288704 95.817889 
L 558.883174 95.790437 
L 553.477645 95.120001 
L 548.072116 93.979637 
L 542.666587 92.137535 
L 537.261058 88.088456 
L 531.855529 85.968677 
L 526.45 86.740361 
L 521.044471 82.660262 
L 515.638942 77.950091 
L 510.233413 76.066279 
L 504.827884 75.404232 
L 499.422355 72.724587 
L 494.016826 70.807728 
L 488.611296 73.593192 
L 483.205767 77.18537 
L 477.800238 75.660945 
L 472.394709 68.850901 
L 466.98918 61.784662 
L 461.583651 61.550108 
L 456.178122 67.331679 
L 450.772593 72.387203 
L 445.367064 73.624451 
L 439.961535 75.936573 
L 434.556006 79.826892 
L 429.150477 83.284016 
L 423.744948 81.050217 
L 418.339418 73.289468 
L 412.933889 72.204132 
L 407.52836 78.01906 
L 402.122831 80.849913 
L 396.717302 81.702471 
L 391.311773 81.133703 
L 385.906244 80.40218 
L 380.500715 83.684726 
L 375.095186 88.293386 
L 369.689657 86.354654 
L 364.284128 87.611702 
L 358.878599 95.885716 
L 353.47307 101.472877 
L 348.067541 103.397407 
L 342.662011 107.055495 
L 337.256482 114.589721 
L 331.850953 127.482044 
L 326.445424 140.068321 
L 321.039895 144.201188 
L 315.634366 131.243314 
L 310.228837 114.469089 
L 304.823308 105.712468 
L 299.417779 103.54975 
L 294.01225 104.885913 
L 288.606721 105.83309 
L 283.201192 106.396339 
L 277.795663 108.718019 
L 272.390133 111.628701 
L 266.984604 115.846979 
L 261.579075 118.408237 
L 256.173546 120.592324 
L 250.768017 128.978277 
L 245.362488 141.218774 
L 239.956959 149.360751 
L 234.55143 154.887612 
L 229.145901 163.972169 
L 223.740372 173.533121 
L 218.334843 182.417341 
L 212.929314 195.350154 
L 207.523785 208.56106 
L 202.118255 218.462136 
L 196.712726 226.453557 
L 191.307197 236.329952 
L 185.901668 247.689407 
L 180.496139 257.549834 
L 175.09061 265.578283 
L 169.685081 267.457994 
L 164.279552 269.411694 
L 158.874023 275.434053 
L 153.468494 279.752343 
L 148.062965 284.503708 
L 142.657436 289.010777 
L 137.251907 287.42922 
L 131.846378 284.868176 
L 126.440848 290.681066 
L 121.035319 305.13988 
L 115.62979 317.477195 
L 110.224261 326.262006 
L 104.818732 336.346346 
L 99.413203 345.352362 
L 94.007674 350.122952 
z
" clip-path="url(#p653f776788)" style="fill: #ff7c00; fill-opacity: 0.1"/>
   </g>
   <g id="FillBetweenPolyCollection_3">
    <path d="M 94.007674 355.24066 
L 94.007674 373.597412 
L 99.413203 373.368565 
L 104.818732 369.90134 
L 110.224261 360.119045 
L 115.62979 347.989327 
L 121.035319 337.357756 
L 126.440848 328.31212 
L 131.846378 322.604823 
L 137.251907 316.879921 
L 142.657436 309.527085 
L 148.062965 300.452305 
L 153.468494 292.145874 
L 158.874023 283.322001 
L 164.279552 273.778484 
L 169.685081 268.589669 
L 175.09061 269.393132 
L 180.496139 268.12503 
L 185.901668 261.617995 
L 191.307197 251.678309 
L 196.712726 240.497206 
L 202.118255 229.06827 
L 207.523785 218.035357 
L 212.929314 207.209429 
L 218.334843 206.440342 
L 223.740372 214.023632 
L 229.145901 215.17603 
L 234.55143 219.198781 
L 239.956959 222.730846 
L 245.362488 209.52777 
L 250.768017 189.531751 
L 256.173546 181.60345 
L 261.579075 188.157225 
L 266.984604 199.141441 
L 272.390133 207.714924 
L 277.795663 236.971504 
L 283.201192 284.620342 
L 288.606721 304.562999 
L 294.01225 299.868231 
L 299.417779 293.972166 
L 304.823308 294.91727 
L 310.228837 305.694941 
L 315.634366 315.35265 
L 321.039895 312.430935 
L 326.445424 313.743398 
L 331.850953 328.43115 
L 337.256482 337.64646 
L 342.662011 335.094249 
L 348.067541 325.371126 
L 353.47307 319.379028 
L 358.878599 315.935987 
L 364.284128 313.159012 
L 369.689657 318.953971 
L 375.095186 340.994406 
L 380.500715 363.092158 
L 385.906244 368.681782 
L 391.311773 362.057651 
L 396.717302 347.014632 
L 402.122831 330.099191 
L 407.52836 317.193037 
L 412.933889 307.362591 
L 418.339418 307.764325 
L 423.744948 310.379085 
L 429.150477 309.218432 
L 434.556006 305.605635 
L 439.961535 298.52554 
L 445.367064 300.345382 
L 450.772593 309.580273 
L 456.178122 308.246977 
L 461.583651 299.482414 
L 466.98918 292.975699 
L 472.394709 288.666298 
L 477.800238 285.224074 
L 483.205767 281.181324 
L 488.611296 273.167983 
L 494.016826 265.676803 
L 499.422355 267.935354 
L 504.827884 273.341565 
L 510.233413 271.700604 
L 515.638942 271.448199 
L 521.044471 276.412797 
L 526.45 276.256022 
L 531.855529 275.52199 
L 537.261058 291.34344 
L 542.666587 316.700032 
L 548.072116 331.975664 
L 553.477645 335.240733 
L 558.883174 330.442056 
L 564.288704 327.95897 
L 569.694233 329.918501 
L 575.099762 327.882172 
L 580.505291 321.644537 
L 585.91082 317.181253 
L 591.316349 320.004149 
L 596.721878 323.250725 
L 602.127407 320.126666 
L 607.532936 316.076306 
L 612.938465 313.835734 
L 618.343994 313.72674 
L 623.749523 315.312176 
L 629.155052 315.162146 
L 629.155052 89.726601 
L 629.155052 89.726601 
L 623.749523 89.492521 
L 618.343994 89.809658 
L 612.938465 88.049843 
L 607.532936 88.349452 
L 602.127407 90.98666 
L 596.721878 92.075911 
L 591.316349 94.327422 
L 585.91082 97.062009 
L 580.505291 95.929015 
L 575.099762 94.507996 
L 569.694233 94.207159 
L 564.288704 93.522554 
L 558.883174 92.898793 
L 553.477645 92.893563 
L 548.072116 92.407634 
L 542.666587 89.571164 
L 537.261058 82.150794 
L 531.855529 74.288747 
L 526.45 72.182755 
L 521.044471 75.561993 
L 515.638942 80.152213 
L 510.233413 83.627952 
L 504.827884 86.476895 
L 499.422355 88.804823 
L 494.016826 91.898908 
L 488.611296 96.789051 
L 483.205767 103.195126 
L 477.800238 106.426825 
L 472.394709 105.236206 
L 466.98918 107.905462 
L 461.583651 113.030915 
L 456.178122 118.903131 
L 450.772593 126.128508 
L 445.367064 134.776739 
L 439.961535 141.118523 
L 434.556006 142.178526 
L 429.150477 146.369099 
L 423.744948 152.394207 
L 418.339418 156.048574 
L 412.933889 163.543664 
L 407.52836 180.909392 
L 402.122831 198.557812 
L 396.717302 213.48858 
L 391.311773 229.756962 
L 385.906244 239.895416 
L 380.500715 227.982591 
L 375.095186 195.73487 
L 369.689657 164.908762 
L 364.284128 147.510883 
L 358.878599 140.229739 
L 353.47307 147.209561 
L 348.067541 163.16406 
L 342.662011 172.0712 
L 337.256482 170.800716 
L 331.850953 158.42872 
L 326.445424 139.029528 
L 321.039895 128.276045 
L 315.634366 121.742817 
L 310.228837 107.563873 
L 304.823308 104.583655 
L 299.417779 111.962529 
L 294.01225 108.079348 
L 288.606721 103.901744 
L 283.201192 118.329278 
L 277.795663 136.557067 
L 272.390133 138.819805 
L 266.984604 133.986112 
L 261.579075 133.206423 
L 256.173546 136.455654 
L 250.768017 144.931977 
L 245.362488 151.630842 
L 239.956959 154.282323 
L 234.55143 156.778393 
L 229.145901 163.409912 
L 223.740372 169.165755 
L 218.334843 167.144658 
L 212.929314 166.103771 
L 207.523785 170.031294 
L 202.118255 166.145652 
L 196.712726 158.850513 
L 191.307197 162.310575 
L 185.901668 171.524116 
L 180.496139 184.195064 
L 175.09061 200.479726 
L 169.685081 216.396203 
L 164.279552 230.021281 
L 158.874023 240.662546 
L 153.468494 249.07994 
L 148.062965 258.776194 
L 142.657436 267.688479 
L 137.251907 274.26225 
L 131.846378 283.966032 
L 126.440848 296.919728 
L 121.035319 308.742832 
L 115.62979 317.593077 
L 110.224261 325.697116 
L 104.818732 337.202058 
L 99.413203 348.738221 
L 94.007674 355.24066 
z
" clip-path="url(#p653f776788)" style="fill: #1ac938; fill-opacity: 0.1"/>
   </g>
   <g id="FillBetweenPolyCollection_4">
    <path d="M 94.007674 355.622387 
L 94.007674 371.751307 
L 99.413203 370.589617 
L 104.818732 365.687759 
L 110.224261 356.210596 
L 115.62979 348.504258 
L 121.035319 340.017168 
L 126.440848 327.592411 
L 131.846378 316.504478 
L 137.251907 309.897059 
L 142.657436 303.991966 
L 148.062965 293.573958 
L 153.468494 282.875508 
L 158.874023 276.05573 
L 164.279552 271.878258 
L 169.685081 267.791939 
L 175.09061 263.508026 
L 180.496139 258.158139 
L 185.901668 252.924914 
L 191.307197 247.93824 
L 196.712726 244.811629 
L 202.118255 242.034588 
L 207.523785 232.834912 
L 212.929314 219.948427 
L 218.334843 215.643512 
L 223.740372 216.027398 
L 229.145901 210.509895 
L 234.55143 211.685249 
L 239.956959 216.608865 
L 245.362488 206.16763 
L 250.768017 189.029015 
L 256.173546 179.751766 
L 261.579075 173.157761 
L 266.984604 170.634823 
L 272.390133 185.723042 
L 277.795663 221.45486 
L 283.201192 263.485064 
L 288.606721 284.256178 
L 294.01225 288.314559 
L 299.417779 286.054418 
L 304.823308 275.798968 
L 310.228837 265.889518 
L 315.634366 260.030637 
L 321.039895 246.80427 
L 326.445424 238.748141 
L 331.850953 252.710892 
L 337.256482 279.917154 
L 342.662011 293.345791 
L 348.067541 281.527721 
L 353.47307 267.424344 
L 358.878599 268.412802 
L 364.284128 271.389034 
L 369.689657 262.747474 
L 375.095186 251.721391 
L 380.500715 247.134488 
L 385.906244 246.987424 
L 391.311773 251.037339 
L 396.717302 252.826183 
L 402.122831 245.962906 
L 407.52836 241.486198 
L 412.933889 244.411332 
L 418.339418 248.391792 
L 423.744948 251.094655 
L 429.150477 249.574088 
L 434.556006 246.182016 
L 439.961535 245.571753 
L 445.367064 242.719973 
L 450.772593 237.17784 
L 456.178122 227.064443 
L 461.583651 221.701939 
L 466.98918 226.745249 
L 472.394709 231.655886 
L 477.800238 235.837501 
L 483.205767 234.468961 
L 488.611296 220.611897 
L 494.016826 207.244044 
L 499.422355 205.662445 
L 504.827884 218.127416 
L 510.233413 235.224076 
L 515.638942 248.400802 
L 521.044471 251.137145 
L 526.45 243.495759 
L 531.855529 239.405463 
L 537.261058 242.91139 
L 542.666587 248.807822 
L 548.072116 256.272635 
L 553.477645 258.423826 
L 558.883174 245.282578 
L 564.288704 227.606377 
L 569.694233 222.033393 
L 575.099762 221.576698 
L 580.505291 214.797237 
L 585.91082 209.286013 
L 591.316349 208.302698 
L 596.721878 203.512411 
L 602.127407 193.364992 
L 607.532936 185.148511 
L 612.938465 185.838154 
L 618.343994 188.020119 
L 623.749523 181.838553 
L 629.155052 176.800888 
L 629.155052 108.256695 
L 629.155052 108.256695 
L 623.749523 109.858513 
L 618.343994 112.002962 
L 612.938465 114.329682 
L 607.532936 117.004944 
L 602.127407 119.435413 
L 596.721878 122.339555 
L 591.316349 124.407097 
L 585.91082 128.41494 
L 580.505291 135.020281 
L 575.099762 139.6739 
L 569.694233 139.192647 
L 564.288704 139.7915 
L 558.883174 147.151967 
L 553.477645 154.53146 
L 548.072116 152.066476 
L 542.666587 142.060655 
L 537.261058 133.031877 
L 531.855529 129.251579 
L 526.45 125.746046 
L 521.044471 119.809908 
L 515.638942 116.104759 
L 510.233413 115.735423 
L 504.827884 116.81103 
L 499.422355 118.12259 
L 494.016826 120.963741 
L 488.611296 126.033947 
L 483.205767 132.70593 
L 477.800238 135.094193 
L 472.394709 131.822991 
L 466.98918 131.145566 
L 461.583651 136.859324 
L 456.178122 140.974844 
L 450.772593 140.038576 
L 445.367064 137.990213 
L 439.961535 136.303948 
L 434.556006 128.753395 
L 429.150477 123.514935 
L 423.744948 123.078999 
L 418.339418 121.901832 
L 412.933889 126.762659 
L 407.52836 134.504354 
L 402.122831 137.420091 
L 396.717302 141.57824 
L 391.311773 149.037439 
L 385.906244 155.873322 
L 380.500715 160.843274 
L 375.095186 159.376885 
L 369.689657 152.566631 
L 364.284128 144.031556 
L 358.878599 131.857655 
L 353.47307 127.447369 
L 348.067541 137.66035 
L 342.662011 152.762541 
L 337.256482 156.091733 
L 331.850953 145.291572 
L 326.445424 131.475992 
L 321.039895 135.512272 
L 315.634366 147.088921 
L 310.228837 145.050467 
L 304.823308 137.766039 
L 299.417779 126.004556 
L 294.01225 114.39524 
L 288.606721 119.239342 
L 283.201192 135.493057 
L 277.795663 140.856089 
L 272.390133 134.237075 
L 266.984604 128.481709 
L 261.579075 125.102265 
L 256.173546 126.59456 
L 250.768017 137.72115 
L 245.362488 147.921673 
L 239.956959 149.602421 
L 234.55143 149.846465 
L 229.145901 154.447213 
L 223.740372 158.055849 
L 218.334843 156.25095 
L 212.929314 156.377808 
L 207.523785 161.818984 
L 202.118255 161.80104 
L 196.712726 155.023746 
L 191.307197 156.111507 
L 185.901668 165.928923 
L 180.496139 178.683958 
L 175.09061 190.991316 
L 169.685081 201.480498 
L 164.279552 215.360394 
L 158.874023 229.939262 
L 153.468494 241.938903 
L 148.062965 254.034382 
L 142.657436 263.67547 
L 137.251907 272.054883 
L 131.846378 285.166204 
L 126.440848 300.305631 
L 121.035319 314.766506 
L 115.62979 324.778822 
L 110.224261 331.409652 
L 104.818732 339.94404 
L 99.413203 349.468362 
L 94.007674 355.622387 
z
" clip-path="url(#p653f776788)" style="fill: #e8000b; fill-opacity: 0.1"/>
   </g>
   <g id="line2d_13">
    <path d="M 94.007674 362.371335 
L 99.413203 359.223915 
L 104.818732 353.769985 
L 110.224261 347.311938 
L 115.62979 342.669436 
L 121.035319 338.064804 
L 126.440848 333.118687 
L 131.846378 328.532999 
L 137.251907 325.898529 
L 142.657436 326.647454 
L 148.062965 324.112426 
L 153.468494 320.809272 
L 158.874023 319.466385 
L 164.279552 317.737505 
L 169.685081 317.197786 
L 175.09061 316.33145 
L 180.496139 311.615118 
L 185.901668 306.568042 
L 191.307197 302.436321 
L 196.712726 297.495171 
L 202.118255 293.762862 
L 207.523785 288.394774 
L 212.929314 278.74383 
L 218.334843 271.640552 
L 223.740372 266.641142 
L 229.145901 258.530796 
L 234.55143 250.295743 
L 239.956959 244.717009 
L 245.362488 239.201277 
L 250.768017 232.26299 
L 256.173546 222.437412 
L 261.579075 212.984141 
L 266.984604 207.067386 
L 272.390133 207.718958 
L 277.795663 215.881058 
L 283.201192 225.242214 
L 288.606721 237.328724 
L 294.01225 245.994011 
L 299.417779 240.533081 
L 304.823308 228.685569 
L 310.228837 226.506075 
L 315.634366 235.596824 
L 321.039895 237.359466 
L 326.445424 229.029222 
L 331.850953 220.654611 
L 337.256482 217.115808 
L 342.662011 216.734696 
L 348.067541 214.309393 
L 353.47307 208.668523 
L 358.878599 203.861651 
L 364.284128 201.781461 
L 369.689657 199.989702 
L 375.095186 195.853225 
L 380.500715 192.996161 
L 385.906244 195.395397 
L 391.311773 199.030945 
L 396.717302 204.959024 
L 402.122831 215.287555 
L 407.52836 219.1418 
L 412.933889 212.010377 
L 418.339418 207.377869 
L 423.744948 206.292663 
L 429.150477 205.81596 
L 434.556006 205.562354 
L 439.961535 204.633969 
L 445.367064 201.951123 
L 450.772593 196.783216 
L 456.178122 189.80107 
L 461.583651 180.964109 
L 466.98918 173.612557 
L 472.394709 170.614465 
L 477.800238 170.535271 
L 483.205767 172.181294 
L 488.611296 174.92929 
L 494.016826 175.91274 
L 499.422355 177.0454 
L 504.827884 178.10169 
L 510.233413 182.757756 
L 515.638942 196.676893 
L 521.044471 208.357118 
L 526.45 209.694566 
L 531.855529 208.561215 
L 537.261058 209.169383 
L 542.666587 208.702242 
L 548.072116 211.676955 
L 553.477645 222.927577 
L 558.883174 231.691306 
L 564.288704 236.140364 
L 569.694233 237.544648 
L 575.099762 234.709804 
L 580.505291 228.822885 
L 585.91082 223.593386 
L 591.316349 222.63754 
L 596.721878 222.211771 
L 602.127407 217.619082 
L 607.532936 212.74213 
L 612.938465 214.540843 
L 618.343994 223.641119 
L 623.749523 234.860287 
L 629.155052 241.27021 
" clip-path="url(#p653f776788)" style="fill: none; stroke: #023eff; stroke-width: 2; stroke-linecap: round"/>
   </g>
   <g id="line2d_14">
    <path d="M 94.007674 360.777147 
L 99.413203 356.715577 
L 104.818732 351.491111 
L 110.224261 346.321319 
L 115.62979 343.072859 
L 121.035319 338.285881 
L 126.440848 331.303343 
L 131.846378 326.43919 
L 137.251907 324.940134 
L 142.657436 323.124526 
L 148.062965 316.790442 
L 153.468494 309.554027 
L 158.874023 302.905808 
L 164.279552 294.626125 
L 169.685081 287.013427 
L 175.09061 280.111562 
L 180.496139 268.961272 
L 185.901668 252.909668 
L 191.307197 235.090314 
L 196.712726 220.164105 
L 202.118255 207.422085 
L 207.523785 192.570297 
L 212.929314 174.764324 
L 218.334843 161.727941 
L 223.740372 153.371333 
L 229.145901 142.464139 
L 234.55143 131.323477 
L 239.956959 124.815685 
L 245.362488 119.921105 
L 250.768017 117.340673 
L 256.173546 116.006531 
L 261.579075 110.7813 
L 266.984604 106.103309 
L 272.390133 106.020578 
L 277.795663 107.115694 
L 283.201192 106.675789 
L 288.606721 104.667404 
L 294.01225 102.54654 
L 299.417779 101.877687 
L 304.823308 101.539263 
L 310.228837 101.664927 
L 315.634366 101.967254 
L 321.039895 100.197563 
L 326.445424 99.672914 
L 331.850953 99.767391 
L 337.256482 99.130718 
L 342.662011 98.866265 
L 348.067541 98.042141 
L 353.47307 94.965015 
L 358.878599 92.493063 
L 364.284128 92.413124 
L 369.689657 94.708465 
L 375.095186 96.78942 
L 380.500715 94.776203 
L 385.906244 92.626261 
L 391.311773 92.897775 
L 396.717302 93.183113 
L 402.122831 92.139442 
L 407.52836 90.583544 
L 412.933889 89.89079 
L 418.339418 92.76469 
L 423.744948 96.087811 
L 429.150477 95.477277 
L 434.556006 93.881897 
L 439.961535 92.884409 
L 445.367064 92.162083 
L 450.772593 91.172264 
L 456.178122 90.534804 
L 461.583651 92.002587 
L 466.98918 94.801141 
L 472.394709 96.667193 
L 477.800238 97.336929 
L 483.205767 96.002956 
L 488.611296 94.620087 
L 494.016826 97.386022 
L 499.422355 101.172793 
L 504.827884 100.930468 
L 510.233413 96.300304 
L 515.638942 91.262044 
L 521.044471 88.655558 
L 526.45 87.716802 
L 531.855529 87.822309 
L 537.261058 88.913941 
L 542.666587 89.580424 
L 548.072116 89.387245 
L 553.477645 88.957029 
L 558.883174 87.892438 
L 564.288704 87.345383 
L 569.694233 88.62172 
L 575.099762 89.840473 
L 580.505291 89.311424 
L 585.91082 88.438236 
L 591.316349 88.467872 
L 596.721878 88.496455 
L 602.127407 87.538965 
L 607.532936 86.608856 
L 612.938465 86.625737 
L 618.343994 86.80833 
L 623.749523 86.987412 
L 629.155052 87.066088 
" clip-path="url(#p653f776788)" style="fill: none; stroke-dasharray: 9.25,4; stroke-dashoffset: 0; stroke: #023eff; stroke-width: 2.5"/>
   </g>
   <g id="line2d_15">
    <path d="M 94.007674 362.755701 
L 99.413203 359.986823 
L 104.818732 354.341967 
L 110.224261 346.031299 
L 115.62979 337.386059 
L 121.035319 326.248869 
L 126.440848 315.383576 
L 131.846378 310.012196 
L 137.251907 310.559103 
L 142.657436 313.224 
L 148.062965 311.682123 
L 153.468494 308.22216 
L 158.874023 303.865286 
L 164.279552 297.897458 
L 169.685081 293.742197 
L 175.09061 290.85862 
L 180.496139 287.602056 
L 185.901668 284.868609 
L 191.307197 279.459619 
L 196.712726 271.977264 
L 202.118255 265.86675 
L 207.523785 259.371241 
L 212.929314 250.94175 
L 218.334843 244.36161 
L 223.740372 240.112212 
L 229.145901 233.829232 
L 234.55143 227.40095 
L 239.956959 222.039423 
L 245.362488 213.521315 
L 250.768017 202.911443 
L 256.173546 194.363299 
L 261.579075 189.685089 
L 266.984604 186.077679 
L 272.390133 181.314084 
L 277.795663 174.961702 
L 283.201192 166.745004 
L 288.606721 160.390389 
L 294.01225 157.908521 
L 299.417779 156.448844 
L 304.823308 155.496505 
L 310.228837 168.526324 
L 315.634366 197.435327 
L 321.039895 214.643972 
L 326.445424 208.256947 
L 331.850953 195.820721 
L 337.256482 187.94584 
L 342.662011 182.062235 
L 348.067541 175.134884 
L 353.47307 168.487035 
L 358.878599 165.176993 
L 364.284128 163.720717 
L 369.689657 161.739052 
L 375.095186 157.558931 
L 380.500715 150.109448 
L 385.906244 145.474964 
L 391.311773 146.989381 
L 396.717302 151.863742 
L 402.122831 153.589249 
L 407.52836 149.586676 
L 412.933889 140.402968 
L 418.339418 133.880109 
L 423.744948 135.339369 
L 429.150477 140.976244 
L 434.556006 145.118532 
L 439.961535 145.157383 
L 445.367064 145.090862 
L 450.772593 146.312613 
L 456.178122 147.753047 
L 461.583651 150.453766 
L 466.98918 158.031961 
L 472.394709 171.022622 
L 477.800238 181.312599 
L 483.205767 184.018856 
L 488.611296 180.949949 
L 494.016826 178.006409 
L 499.422355 177.748812 
L 504.827884 177.16861 
L 510.233413 174.68388 
L 515.638942 174.807719 
L 521.044471 177.830714 
L 526.45 180.188514 
L 531.855529 178.197221 
L 537.261058 175.975031 
L 542.666587 174.378632 
L 548.072116 173.690681 
L 553.477645 175.154386 
L 558.883174 175.624066 
L 564.288704 175.989528 
L 569.694233 182.818005 
L 575.099762 189.123914 
L 580.505291 183.506862 
L 585.91082 176.201702 
L 591.316349 174.837965 
L 596.721878 173.424454 
L 602.127407 166.851602 
L 607.532936 162.349653 
L 612.938465 164.74891 
L 618.343994 165.928444 
L 623.749523 159.244125 
L 629.155052 150.576464 
" clip-path="url(#p653f776788)" style="fill: none; stroke: #ff7c00; stroke-width: 2; stroke-linecap: round"/>
   </g>
   <g id="line2d_16">
    <path d="M 94.007674 360.076971 
L 99.413203 356.691343 
L 104.818732 352.423928 
L 110.224261 348.229597 
L 115.62979 346.527631 
L 121.035319 342.669129 
L 126.440848 334.94452 
L 131.846378 326.399786 
L 137.251907 319.307408 
L 142.657436 314.186909 
L 148.062965 304.998737 
L 153.468494 292.835556 
L 158.874023 281.192142 
L 164.279552 269.627352 
L 169.685081 257.915351 
L 175.09061 242.928289 
L 180.496139 222.683401 
L 185.901668 204.303523 
L 191.307197 188.869957 
L 196.712726 175.031408 
L 202.118255 163.256251 
L 207.523785 150.565083 
L 212.929314 137.225199 
L 218.334843 128.523669 
L 223.740372 124.167451 
L 229.145901 119.938502 
L 234.55143 116.253198 
L 239.956959 113.095723 
L 245.362488 108.804216 
L 250.768017 104.971083 
L 256.173546 103.305432 
L 261.579075 103.55484 
L 266.984604 105.106665 
L 272.390133 107.022295 
L 277.795663 107.721424 
L 283.201192 106.48745 
L 288.606721 103.478691 
L 294.01225 101.76003 
L 299.417779 101.708718 
L 304.823308 102.469477 
L 310.228837 104.56366 
L 315.634366 105.176686 
L 321.039895 101.414278 
L 326.445424 99.237 
L 331.850953 100.40389 
L 337.256482 100.531225 
L 342.662011 98.39656 
L 348.067541 94.987685 
L 353.47307 92.036507 
L 358.878599 90.857576 
L 364.284128 91.025219 
L 369.689657 92.250289 
L 375.095186 94.501353 
L 380.500715 95.52342 
L 385.906244 94.623664 
L 391.311773 93.715732 
L 396.717302 93.796736 
L 402.122831 93.401074 
L 407.52836 92.015131 
L 412.933889 91.377848 
L 418.339418 92.005721 
L 423.744948 92.161922 
L 429.150477 92.099404 
L 434.556006 91.700688 
L 439.961535 90.857002 
L 445.367064 90.607376 
L 450.772593 90.711363 
L 456.178122 90.515006 
L 461.583651 90.854344 
L 466.98918 90.562352 
L 472.394709 89.356775 
L 477.800238 89.953462 
L 483.205767 90.620628 
L 488.611296 89.112198 
L 494.016826 88.156795 
L 499.422355 88.42568 
L 504.827884 88.428889 
L 510.233413 87.774675 
L 515.638942 87.348028 
L 521.044471 87.290658 
L 526.45 87.092775 
L 531.855529 87.278561 
L 537.261058 88.263584 
L 542.666587 89.113138 
L 548.072116 89.278345 
L 553.477645 89.025782 
L 558.883174 87.931023 
L 564.288704 87.374906 
L 569.694233 88.339373 
L 575.099762 89.303009 
L 580.505291 88.898601 
L 585.91082 88.227444 
L 591.316349 88.523159 
L 596.721878 88.784145 
L 602.127407 87.776363 
L 607.532936 86.590679 
L 612.938465 86.532035 
L 618.343994 86.805222 
L 623.749523 87.214634 
L 629.155052 87.430908 
" clip-path="url(#p653f776788)" style="fill: none; stroke-dasharray: 9.25,4; stroke-dashoffset: 0; stroke: #ff7c00; stroke-width: 2.5"/>
   </g>
   <g id="line2d_17">
    <path d="M 94.007674 364.419036 
L 99.413203 361.053393 
L 104.818732 353.551699 
L 110.224261 342.90808 
L 115.62979 332.791202 
L 121.035319 323.050294 
L 126.440848 312.615924 
L 131.846378 303.285428 
L 137.251907 295.571086 
L 142.657436 288.607782 
L 148.062965 279.61425 
L 153.468494 270.612907 
L 158.874023 261.992273 
L 164.279552 251.899882 
L 169.685081 242.492936 
L 175.09061 234.936429 
L 180.496139 226.160047 
L 185.901668 216.571056 
L 191.307197 206.994442 
L 196.712726 199.67386 
L 202.118255 197.606961 
L 207.523785 194.033326 
L 212.929314 186.6566 
L 218.334843 186.7925 
L 223.740372 191.594693 
L 229.145901 189.292971 
L 234.55143 187.988587 
L 239.956959 188.506584 
L 245.362488 180.579306 
L 250.768017 167.231864 
L 256.173546 159.029552 
L 261.579075 160.681824 
L 266.984604 166.563777 
L 272.390133 173.267364 
L 277.795663 186.764285 
L 283.201192 201.47481 
L 288.606721 204.232372 
L 294.01225 203.97379 
L 299.417779 202.967347 
L 304.823308 199.750463 
L 310.228837 206.629407 
L 315.634366 218.547733 
L 321.039895 220.35349 
L 326.445424 226.386463 
L 331.850953 243.429935 
L 337.256482 254.223588 
L 342.662011 253.582725 
L 348.067541 244.267593 
L 353.47307 233.294295 
L 358.878599 228.082863 
L 364.284128 230.334948 
L 369.689657 241.931366 
L 375.095186 268.364638 
L 380.500715 295.537374 
L 385.906244 304.288599 
L 391.311773 295.907306 
L 396.717302 280.251606 
L 402.122831 264.328501 
L 407.52836 249.051214 
L 412.933889 235.453127 
L 418.339418 231.906449 
L 423.744948 231.386646 
L 429.150477 227.793765 
L 434.556006 223.892081 
L 439.961535 219.822032 
L 445.367064 217.56106 
L 450.772593 217.85439 
L 456.178122 213.575054 
L 461.583651 206.256664 
L 466.98918 200.44058 
L 472.394709 196.951252 
L 477.800238 195.82545 
L 483.205767 192.188225 
L 488.611296 184.978517 
L 494.016826 178.787855 
L 499.422355 178.370089 
L 504.827884 179.90923 
L 510.233413 177.664278 
L 515.638942 175.800206 
L 521.044471 175.987395 
L 526.45 174.219389 
L 531.855529 174.905368 
L 537.261058 186.747117 
L 542.666587 203.135598 
L 548.072116 212.191649 
L 553.477645 214.067148 
L 558.883174 211.670424 
L 564.288704 210.740762 
L 569.694233 212.06283 
L 575.099762 211.195084 
L 580.505291 208.786776 
L 585.91082 207.121631 
L 591.316349 207.165785 
L 596.721878 207.663318 
L 602.127407 205.556663 
L 607.532936 202.212879 
L 612.938465 200.942789 
L 618.343994 201.768199 
L 623.749523 202.402349 
L 629.155052 202.444373 
" clip-path="url(#p653f776788)" style="fill: none; stroke: #1ac938; stroke-width: 2; stroke-linecap: round"/>
   </g>
   <g id="line2d_18">
    <path d="M 94.007674 362.305538 
L 99.413203 361.370536 
L 104.818732 357.656648 
L 110.224261 350.569602 
L 115.62979 345.217411 
L 121.035319 339.496913 
L 126.440848 332.449956 
L 131.846378 324.487984 
L 137.251907 315.665456 
L 142.657436 306.384221 
L 148.062965 294.574296 
L 153.468494 279.521291 
L 158.874023 259.06541 
L 164.279552 235.645481 
L 169.685081 216.622597 
L 175.09061 204.159649 
L 180.496139 192.355258 
L 185.901668 178.356632 
L 191.307197 164.750526 
L 196.712726 156.717008 
L 202.118255 155.509344 
L 207.523785 152.923078 
L 212.929314 146.027024 
L 218.334843 143.10152 
L 223.740372 141.184357 
L 229.145901 136.337745 
L 234.55143 136.177174 
L 239.956959 139.950552 
L 245.362488 138.550777 
L 250.768017 131.885734 
L 256.173546 126.131565 
L 261.579075 121.389143 
L 266.984604 117.722166 
L 272.390133 117.644208 
L 277.795663 120.470394 
L 283.201192 122.776532 
L 288.606721 121.886283 
L 294.01225 119.50074 
L 299.417779 118.732733 
L 304.823308 118.758974 
L 310.228837 121.021362 
L 315.634366 122.116838 
L 321.039895 117.794339 
L 326.445424 115.51085 
L 331.850953 117.870857 
L 337.256482 119.579049 
L 342.662011 119.520718 
L 348.067541 116.721953 
L 353.47307 113.657007 
L 358.878599 109.938888 
L 364.284128 106.77931 
L 369.689657 107.125715 
L 375.095186 110.033047 
L 380.500715 114.020229 
L 385.906244 115.662558 
L 391.311773 116.802857 
L 396.717302 123.514472 
L 402.122831 130.094562 
L 407.52836 128.505518 
L 412.933889 122.418674 
L 418.339418 121.656713 
L 423.744948 123.720656 
L 429.150477 125.891097 
L 434.556006 128.923159 
L 439.961535 129.998066 
L 445.367064 125.321718 
L 450.772593 121.03114 
L 456.178122 121.305652 
L 461.583651 120.044227 
L 466.98918 115.852681 
L 472.394709 115.735083 
L 477.800238 119.440495 
L 483.205767 120.387544 
L 488.611296 115.508516 
L 494.016826 109.661621 
L 499.422355 108.85527 
L 504.827884 106.610623 
L 510.233413 99.643868 
L 515.638942 96.095342 
L 521.044471 98.95709 
L 526.45 104.584623 
L 531.855529 109.079579 
L 537.261058 111.792343 
L 542.666587 112.648327 
L 548.072116 111.286661 
L 553.477645 109.432347 
L 558.883174 108.057894 
L 564.288704 107.50548 
L 569.694233 108.033828 
L 575.099762 106.170825 
L 580.505291 103.944903 
L 585.91082 103.308401 
L 591.316349 101.077988 
L 596.721878 97.646074 
L 602.127407 94.374746 
L 607.532936 92.018852 
L 612.938465 91.101883 
L 618.343994 90.88445 
L 623.749523 90.801934 
L 629.155052 90.638056 
" clip-path="url(#p653f776788)" style="fill: none; stroke-dasharray: 9.25,4; stroke-dashoffset: 0; stroke: #1ac938; stroke-width: 2.5"/>
   </g>
   <g id="line2d_19">
    <path d="M 94.007674 363.686847 
L 99.413203 360.02899 
L 104.818732 352.815899 
L 110.224261 343.810124 
L 115.62979 336.64154 
L 121.035319 327.391837 
L 126.440848 313.949021 
L 131.846378 300.835341 
L 137.251907 290.975971 
L 142.657436 283.833718 
L 148.062965 273.80417 
L 153.468494 262.407205 
L 158.874023 252.997496 
L 164.279552 243.619326 
L 169.685081 234.636218 
L 175.09061 227.249671 
L 180.496139 218.421049 
L 185.901668 209.426918 
L 191.307197 202.024873 
L 196.712726 199.917687 
L 202.118255 201.917814 
L 207.523785 197.326948 
L 212.929314 188.163117 
L 218.334843 185.947231 
L 223.740372 187.041624 
L 229.145901 182.478554 
L 234.55143 180.765857 
L 239.956959 183.105643 
L 245.362488 177.044651 
L 250.768017 163.375083 
L 256.173546 153.173163 
L 261.579075 149.130013 
L 266.984604 149.558266 
L 272.390133 159.980058 
L 277.795663 181.155475 
L 283.201192 199.48906 
L 288.606721 201.74776 
L 294.01225 201.354899 
L 299.417779 206.029487 
L 304.823308 206.782503 
L 310.228837 205.469992 
L 315.634366 203.559779 
L 321.039895 191.158271 
L 326.445424 185.112066 
L 331.850953 199.001232 
L 337.256482 218.004443 
L 342.662011 223.054166 
L 348.067541 209.594036 
L 353.47307 197.435856 
L 358.878599 200.135228 
L 364.284128 207.710295 
L 369.689657 207.657053 
L 375.095186 205.549138 
L 380.500715 203.988881 
L 385.906244 201.430373 
L 391.311773 200.037389 
L 396.717302 197.202211 
L 402.122831 191.691499 
L 407.52836 187.995276 
L 412.933889 185.586995 
L 418.339418 185.146812 
L 423.744948 187.086827 
L 429.150477 186.544511 
L 434.556006 187.467705 
L 439.961535 190.93785 
L 445.367064 190.355093 
L 450.772593 188.608208 
L 456.178122 184.019644 
L 461.583651 179.280631 
L 466.98918 178.945407 
L 472.394709 181.739439 
L 477.800238 185.465847 
L 483.205767 183.587445 
L 488.611296 173.322922 
L 494.016826 164.103893 
L 499.422355 161.892518 
L 504.827884 167.469223 
L 510.233413 175.479749 
L 515.638942 182.252781 
L 521.044471 185.473526 
L 526.45 184.620903 
L 531.855529 184.328521 
L 537.261058 187.971634 
L 542.666587 195.434239 
L 548.072116 204.169555 
L 553.477645 206.477643 
L 558.883174 196.217273 
L 564.288704 183.698938 
L 569.694233 180.61302 
L 575.099762 180.625299 
L 580.505291 174.908759 
L 585.91082 168.850476 
L 591.316349 166.354897 
L 596.721878 162.925983 
L 602.127407 156.400203 
L 607.532936 151.076728 
L 612.938465 150.083918 
L 618.343994 150.01154 
L 623.749523 145.848533 
L 629.155052 142.528792 
" clip-path="url(#p653f776788)" style="fill: none; stroke: #e8000b; stroke-width: 2; stroke-linecap: round"/>
   </g>
   <g id="line2d_20">
    <path d="M 94.007674 361.960293 
L 99.413203 358.931584 
L 104.818732 352.025611 
L 110.224261 343.833781 
L 115.62979 339.222 
L 121.035319 334.770454 
L 126.440848 327.557248 
L 131.846378 319.378374 
L 137.251907 313.18646 
L 142.657436 307.73286 
L 148.062965 296.5348 
L 153.468494 281.296764 
L 158.874023 264.259983 
L 164.279552 244.543765 
L 169.685081 226.802858 
L 175.09061 212.877439 
L 180.496139 197.405049 
L 185.901668 183.380988 
L 191.307197 174.744683 
L 196.712726 170.981508 
L 202.118255 169.608064 
L 207.523785 164.105078 
L 212.929314 156.048684 
L 218.334843 152.556813 
L 223.740372 151.014484 
L 229.145901 148.123147 
L 234.55143 148.13805 
L 239.956959 152.003865 
L 245.362488 149.92887 
L 250.768017 139.681219 
L 256.173546 130.346885 
L 261.579075 124.483484 
L 266.984604 122.188069 
L 272.390133 123.700546 
L 277.795663 124.841157 
L 283.201192 124.826452 
L 288.606721 122.870394 
L 294.01225 120.293141 
L 299.417779 119.754056 
L 304.823308 120.441008 
L 310.228837 124.228378 
L 315.634366 126.546072 
L 321.039895 122.028239 
L 326.445424 119.263127 
L 331.850953 121.245155 
L 337.256482 123.004471 
L 342.662011 121.07217 
L 348.067541 116.829153 
L 353.47307 118.214856 
L 358.878599 123.424559 
L 364.284128 126.431571 
L 369.689657 127.327539 
L 375.095186 128.261981 
L 380.500715 129.494599 
L 385.906244 129.53799 
L 391.311773 129.094802 
L 396.717302 127.869375 
L 402.122831 122.915544 
L 407.52836 116.252843 
L 412.933889 109.337153 
L 418.339418 106.019397 
L 423.744948 107.312956 
L 429.150477 116.571457 
L 434.556006 130.365475 
L 439.961535 139.300967 
L 445.367064 141.009023 
L 450.772593 139.887559 
L 456.178122 139.729206 
L 461.583651 136.719026 
L 466.98918 132.450806 
L 472.394709 131.964656 
L 477.800238 134.140872 
L 483.205767 135.273158 
L 488.611296 133.895864 
L 494.016826 131.312902 
L 499.422355 127.490382 
L 504.827884 120.8406 
L 510.233413 114.818352 
L 515.638942 114.667372 
L 521.044471 115.164917 
L 526.45 115.180185 
L 531.855529 115.810841 
L 537.261058 117.779706 
L 542.666587 118.256709 
L 548.072116 115.430177 
L 553.477645 111.239243 
L 558.883174 107.256712 
L 564.288704 104.586339 
L 569.694233 105.10208 
L 575.099762 107.715622 
L 580.505291 109.844161 
L 585.91082 111.810114 
L 591.316349 112.195123 
L 596.721878 110.037583 
L 602.127407 105.549556 
L 607.532936 102.710436 
L 612.938465 102.527286 
L 618.343994 102.873842 
L 623.749523 102.184921 
L 629.155052 101.402282 
" clip-path="url(#p653f776788)" style="fill: none; stroke-dasharray: 9.25,4; stroke-dashoffset: 0; stroke: #e8000b; stroke-width: 2.5"/>
   </g>
   <g id="line2d_21">
    <path d="M 83.45 100.818045 
L 637.2 100.818045 
" clip-path="url(#p653f776788)" style="fill: none; stroke-dasharray: 1.25,2.0625; stroke-dashoffset: 0; stroke: #000000; stroke-opacity: 0.6; stroke-width: 1.25"/>
   </g>
   <g id="patch_3">
    <path d="M 83.45 382.12 
L 83.45 38.88 
" style="fill: none; stroke: #ffffff; stroke-width: 0.8; stroke-linejoin: miter; stroke-linecap: square"/>
   </g>
   <g id="patch_4">
    <path d="M 637.2 382.12 
L 637.2 38.88 
" style="fill: none; stroke: #ffffff; stroke-width: 0.8; stroke-linejoin: miter; stroke-linecap: square"/>
   </g>
   <g id="patch_5">
    <path d="M 83.45 382.12 
L 637.2 382.12 
" style="fill: none; stroke: #ffffff; stroke-width: 0.8; stroke-linejoin: miter; stroke-linecap: square"/>
   </g>
   <g id="patch_6">
    <path d="M 83.45 38.88 
L 637.2 38.88 
" style="fill: none; stroke: #ffffff; stroke-width: 0.8; stroke-linejoin: miter; stroke-linecap: square"/>
   </g>
  </g>
  <g id="text_15">
   <!-- Pendulum-v1 (Discretized) (GNN) -->
   <g style="fill: #262626" transform="translate(155.175469 22.317187) scale(0.18 -0.18)">
    <defs>
     <path id="DejaVuSans-Bold-50" d="M 588 4666 
L 2584 4666 
Q 3475 4666 3951 4270 
Q 4428 3875 4428 3144 
Q 4428 2409 3951 2014 
Q 3475 1619 2584 1619 
L 1791 1619 
L 1791 0 
L 588 0 
L 588 4666 
z
M 1791 3794 
L 1791 2491 
L 2456 2491 
Q 2806 2491 2997 2661 
Q 3188 2831 3188 3144 
Q 3188 3456 2997 3625 
Q 2806 3794 2456 3794 
L 1791 3794 
z
" transform="scale(0.015625)"/>
     <path id="DejaVuSans-Bold-65" d="M 4031 1759 
L 4031 1441 
L 1416 1441 
Q 1456 1047 1700 850 
Q 1944 653 2381 653 
Q 2734 653 3104 758 
Q 3475 863 3866 1075 
L 3866 213 
Q 3469 63 3072 -14 
Q 2675 -91 2278 -91 
Q 1328 -91 801 392 
Q 275 875 275 1747 
Q 275 2603 792 3093 
Q 1309 3584 2216 3584 
Q 3041 3584 3536 3087 
Q 4031 2591 4031 1759 
z
M 2881 2131 
Q 2881 2450 2695 2645 
Q 2509 2841 2209 2841 
Q 1884 2841 1681 2658 
Q 1478 2475 1428 2131 
L 2881 2131 
z
" transform="scale(0.015625)"/>
     <path id="DejaVuSans-Bold-6e" d="M 4056 2131 
L 4056 0 
L 2931 0 
L 2931 347 
L 2931 1631 
Q 2931 2084 2911 2256 
Q 2891 2428 2841 2509 
Q 2775 2619 2662 2680 
Q 2550 2741 2406 2741 
Q 2056 2741 1856 2470 
Q 1656 2200 1656 1722 
L 1656 0 
L 538 0 
L 538 3500 
L 1656 3500 
L 1656 2988 
Q 1909 3294 2193 3439 
Q 2478 3584 2822 3584 
Q 3428 3584 3742 3212 
Q 4056 2841 4056 2131 
z
" transform="scale(0.015625)"/>
     <path id="DejaVuSans-Bold-64" d="M 2919 2988 
L 2919 4863 
L 4044 4863 
L 4044 0 
L 2919 0 
L 2919 506 
Q 2688 197 2409 53 
Q 2131 -91 1766 -91 
Q 1119 -91 703 423 
Q 288 938 288 1747 
Q 288 2556 703 3070 
Q 1119 3584 1766 3584 
Q 2128 3584 2408 3439 
Q 2688 3294 2919 2988 
z
M 2181 722 
Q 2541 722 2730 984 
Q 2919 1247 2919 1747 
Q 2919 2247 2730 2509 
Q 2541 2772 2181 2772 
Q 1825 2772 1636 2509 
Q 1447 2247 1447 1747 
Q 1447 1247 1636 984 
Q 1825 722 2181 722 
z
" transform="scale(0.015625)"/>
     <path id="DejaVuSans-Bold-75" d="M 500 1363 
L 500 3500 
L 1625 3500 
L 1625 3150 
Q 1625 2866 1622 2436 
Q 1619 2006 1619 1863 
Q 1619 1441 1641 1255 
Q 1663 1069 1716 984 
Q 1784 875 1895 815 
Q 2006 756 2150 756 
Q 2500 756 2700 1025 
Q 2900 1294 2900 1772 
L 2900 3500 
L 4019 3500 
L 4019 0 
L 2900 0 
L 2900 506 
Q 2647 200 2364 54 
Q 2081 -91 1741 -91 
Q 1134 -91 817 281 
Q 500 653 500 1363 
z
" transform="scale(0.015625)"/>
     <path id="DejaVuSans-Bold-6c" d="M 538 4863 
L 1656 4863 
L 1656 0 
L 538 0 
L 538 4863 
z
" transform="scale(0.015625)"/>
     <path id="DejaVuSans-Bold-6d" d="M 3781 2919 
Q 3994 3244 4286 3414 
Q 4578 3584 4928 3584 
Q 5531 3584 5847 3212 
Q 6163 2841 6163 2131 
L 6163 0 
L 5038 0 
L 5038 1825 
Q 5041 1866 5042 1909 
Q 5044 1953 5044 2034 
Q 5044 2406 4934 2573 
Q 4825 2741 4581 2741 
Q 4263 2741 4089 2478 
Q 3916 2216 3909 1719 
L 3909 0 
L 2784 0 
L 2784 1825 
Q 2784 2406 2684 2573 
Q 2584 2741 2328 2741 
Q 2006 2741 1831 2477 
Q 1656 2213 1656 1722 
L 1656 0 
L 531 0 
L 531 3500 
L 1656 3500 
L 1656 2988 
Q 1863 3284 2130 3434 
Q 2397 3584 2719 3584 
Q 3081 3584 3359 3409 
Q 3638 3234 3781 2919 
z
" transform="scale(0.015625)"/>
     <path id="DejaVuSans-Bold-2d" d="M 347 2297 
L 2309 2297 
L 2309 1388 
L 347 1388 
L 347 2297 
z
" transform="scale(0.015625)"/>
     <path id="DejaVuSans-Bold-76" d="M 97 3500 
L 1216 3500 
L 2088 1081 
L 2956 3500 
L 4078 3500 
L 2700 0 
L 1472 0 
L 97 3500 
z
" transform="scale(0.015625)"/>
     <path id="DejaVuSans-Bold-31" d="M 750 831 
L 1813 831 
L 1813 3847 
L 722 3622 
L 722 4441 
L 1806 4666 
L 2950 4666 
L 2950 831 
L 4013 831 
L 4013 0 
L 750 0 
L 750 831 
z
" transform="scale(0.015625)"/>
     <path id="DejaVuSans-Bold-20" transform="scale(0.015625)"/>
     <path id="DejaVuSans-Bold-28" d="M 2413 -844 
L 1484 -844 
Q 1006 -72 778 623 
Q 550 1319 550 2003 
Q 550 2688 779 3389 
Q 1009 4091 1484 4856 
L 2413 4856 
Q 2013 4116 1813 3408 
Q 1613 2700 1613 2009 
Q 1613 1319 1811 609 
Q 2009 -100 2413 -844 
z
" transform="scale(0.015625)"/>
     <path id="DejaVuSans-Bold-44" d="M 1791 3756 
L 1791 909 
L 2222 909 
Q 2959 909 3348 1275 
Q 3738 1641 3738 2338 
Q 3738 3031 3350 3393 
Q 2963 3756 2222 3756 
L 1791 3756 
z
M 588 4666 
L 1856 4666 
Q 2919 4666 3439 4514 
Q 3959 4363 4331 4000 
Q 4659 3684 4818 3271 
Q 4978 2859 4978 2338 
Q 4978 1809 4818 1395 
Q 4659 981 4331 666 
Q 3956 303 3431 151 
Q 2906 0 1856 0 
L 588 0 
L 588 4666 
z
" transform="scale(0.015625)"/>
     <path id="DejaVuSans-Bold-69" d="M 538 3500 
L 1656 3500 
L 1656 0 
L 538 0 
L 538 3500 
z
M 538 4863 
L 1656 4863 
L 1656 3950 
L 538 3950 
L 538 4863 
z
" transform="scale(0.015625)"/>
     <path id="DejaVuSans-Bold-73" d="M 3272 3391 
L 3272 2541 
Q 2913 2691 2578 2766 
Q 2244 2841 1947 2841 
Q 1628 2841 1473 2761 
Q 1319 2681 1319 2516 
Q 1319 2381 1436 2309 
Q 1553 2238 1856 2203 
L 2053 2175 
Q 2913 2066 3209 1816 
Q 3506 1566 3506 1031 
Q 3506 472 3093 190 
Q 2681 -91 1863 -91 
Q 1516 -91 1145 -36 
Q 775 19 384 128 
L 384 978 
Q 719 816 1070 734 
Q 1422 653 1784 653 
Q 2113 653 2278 743 
Q 2444 834 2444 1013 
Q 2444 1163 2330 1236 
Q 2216 1309 1875 1350 
L 1678 1375 
Q 931 1469 631 1722 
Q 331 1975 331 2491 
Q 331 3047 712 3315 
Q 1094 3584 1881 3584 
Q 2191 3584 2531 3537 
Q 2872 3491 3272 3391 
z
" transform="scale(0.015625)"/>
     <path id="DejaVuSans-Bold-63" d="M 3366 3391 
L 3366 2478 
Q 3138 2634 2908 2709 
Q 2678 2784 2431 2784 
Q 1963 2784 1702 2511 
Q 1441 2238 1441 1747 
Q 1441 1256 1702 982 
Q 1963 709 2431 709 
Q 2694 709 2930 787 
Q 3166 866 3366 1019 
L 3366 103 
Q 3103 6 2833 -42 
Q 2563 -91 2291 -91 
Q 1344 -91 809 395 
Q 275 881 275 1747 
Q 275 2613 809 3098 
Q 1344 3584 2291 3584 
Q 2566 3584 2833 3536 
Q 3100 3488 3366 3391 
z
" transform="scale(0.015625)"/>
     <path id="DejaVuSans-Bold-72" d="M 3138 2547 
Q 2991 2616 2845 2648 
Q 2700 2681 2553 2681 
Q 2122 2681 1889 2404 
Q 1656 2128 1656 1613 
L 1656 0 
L 538 0 
L 538 3500 
L 1656 3500 
L 1656 2925 
Q 1872 3269 2151 3426 
Q 2431 3584 2822 3584 
Q 2878 3584 2943 3579 
Q 3009 3575 3134 3559 
L 3138 2547 
z
" transform="scale(0.015625)"/>
     <path id="DejaVuSans-Bold-74" d="M 1759 4494 
L 1759 3500 
L 2913 3500 
L 2913 2700 
L 1759 2700 
L 1759 1216 
Q 1759 972 1856 886 
Q 1953 800 2241 800 
L 2816 800 
L 2816 0 
L 1856 0 
Q 1194 0 917 276 
Q 641 553 641 1216 
L 641 2700 
L 84 2700 
L 84 3500 
L 641 3500 
L 641 4494 
L 1759 4494 
z
" transform="scale(0.015625)"/>
     <path id="DejaVuSans-Bold-7a" d="M 366 3500 
L 3419 3500 
L 3419 2719 
L 1575 800 
L 3419 800 
L 3419 0 
L 288 0 
L 288 781 
L 2131 2700 
L 366 2700 
L 366 3500 
z
" transform="scale(0.015625)"/>
     <path id="DejaVuSans-Bold-29" d="M 513 -844 
Q 913 -100 1113 609 
Q 1313 1319 1313 2009 
Q 1313 2700 1113 3408 
Q 913 4116 513 4856 
L 1441 4856 
Q 1916 4091 2145 3389 
Q 2375 2688 2375 2003 
Q 2375 1319 2147 623 
Q 1919 -72 1441 -844 
L 513 -844 
z
" transform="scale(0.015625)"/>
     <path id="DejaVuSans-Bold-47" d="M 4781 347 
Q 4331 128 3847 18 
Q 3363 -91 2847 -91 
Q 1681 -91 1000 561 
Q 319 1213 319 2328 
Q 319 3456 1012 4103 
Q 1706 4750 2913 4750 
Q 3378 4750 3804 4662 
Q 4231 4575 4609 4403 
L 4609 3438 
Q 4219 3659 3833 3768 
Q 3447 3878 3059 3878 
Q 2341 3878 1952 3476 
Q 1563 3075 1563 2328 
Q 1563 1588 1938 1184 
Q 2313 781 3003 781 
Q 3191 781 3352 804 
Q 3513 828 3641 878 
L 3641 1784 
L 2906 1784 
L 2906 2591 
L 4781 2591 
L 4781 347 
z
" transform="scale(0.015625)"/>
     <path id="DejaVuSans-Bold-4e" d="M 588 4666 
L 1931 4666 
L 3628 1466 
L 3628 4666 
L 4769 4666 
L 4769 0 
L 3425 0 
L 1728 3200 
L 1728 0 
L 588 0 
L 588 4666 
z
" transform="scale(0.015625)"/>
    </defs>
    <use xlink:href="#DejaVuSans-Bold-50"/>
    <use xlink:href="#DejaVuSans-Bold-65" transform="translate(73.291016 0)"/>
    <use xlink:href="#DejaVuSans-Bold-6e" transform="translate(141.113281 0)"/>
    <use xlink:href="#DejaVuSans-Bold-64" transform="translate(212.304688 0)"/>
    <use xlink:href="#DejaVuSans-Bold-75" transform="translate(283.886719 0)"/>
    <use xlink:href="#DejaVuSans-Bold-6c" transform="translate(355.078125 0)"/>
    <use xlink:href="#DejaVuSans-Bold-75" transform="translate(389.355469 0)"/>
    <use xlink:href="#DejaVuSans-Bold-6d" transform="translate(460.546875 0)"/>
    <use xlink:href="#DejaVuSans-Bold-2d" transform="translate(564.746094 0)"/>
    <use xlink:href="#DejaVuSans-Bold-76" transform="translate(606.25 0)"/>
    <use xlink:href="#DejaVuSans-Bold-31" transform="translate(671.435547 0)"/>
    <use xlink:href="#DejaVuSans-Bold-20" transform="translate(741.015625 0)"/>
    <use xlink:href="#DejaVuSans-Bold-28" transform="translate(775.830078 0)"/>
    <use xlink:href="#DejaVuSans-Bold-44" transform="translate(821.533203 0)"/>
    <use xlink:href="#DejaVuSans-Bold-69" transform="translate(904.541016 0)"/>
    <use xlink:href="#DejaVuSans-Bold-73" transform="translate(938.818359 0)"/>
    <use xlink:href="#DejaVuSans-Bold-63" transform="translate(998.339844 0)"/>
    <use xlink:href="#DejaVuSans-Bold-72" transform="translate(1057.617188 0)"/>
    <use xlink:href="#DejaVuSans-Bold-65" transform="translate(1106.933594 0)"/>
    <use xlink:href="#DejaVuSans-Bold-74" transform="translate(1174.755859 0)"/>
    <use xlink:href="#DejaVuSans-Bold-69" transform="translate(1222.558594 0)"/>
    <use xlink:href="#DejaVuSans-Bold-7a" transform="translate(1256.835938 0)"/>
    <use xlink:href="#DejaVuSans-Bold-65" transform="translate(1315.039062 0)"/>
    <use xlink:href="#DejaVuSans-Bold-64" transform="translate(1382.861328 0)"/>
    <use xlink:href="#DejaVuSans-Bold-29" transform="translate(1454.443359 0)"/>
    <use xlink:href="#DejaVuSans-Bold-20" transform="translate(1500.146484 0)"/>
    <use xlink:href="#DejaVuSans-Bold-28" transform="translate(1534.960938 0)"/>
    <use xlink:href="#DejaVuSans-Bold-47" transform="translate(1580.664062 0)"/>
    <use xlink:href="#DejaVuSans-Bold-4e" transform="translate(1662.744141 0)"/>
    <use xlink:href="#DejaVuSans-Bold-4e" transform="translate(1746.435547 0)"/>
    <use xlink:href="#DejaVuSans-Bold-29" transform="translate(1830.126953 0)"/>
   </g>
  </g>
 </g>
 <defs>
  <clipPath id="p653f776788">
   <rect x="83.45" y="38.88" width="553.75" height="343.24"/>
  </clipPath>
 </defs>
</svg>
