<?xml version="1.0" encoding="utf-8" standalone="no"?>
<!DOCTYPE svg PUBLIC "-//W3C//DTD SVG 1.1//EN"
  "http://www.w3.org/Graphics/SVG/1.1/DTD/svg11.dtd">
<svg xmlns:xlink="http://www.w3.org/1999/xlink" width="648pt" height="432pt" viewBox="0 0 648 432" xmlns="http://www.w3.org/2000/svg" version="1.1">
 <metadata>
  <rdf:RDF xmlns:dc="http://purl.org/dc/elements/1.1/" xmlns:cc="http://creativecommons.org/ns#" xmlns:rdf="http://www.w3.org/1999/02/22-rdf-syntax-ns#">
   <cc:Work>
    <dc:type rdf:resource="http://purl.org/dc/dcmitype/StillImage"/>
    <dc:date>2025-08-04T02:53:03.169565</dc:date>
    <dc:format>image/svg+xml</dc:format>
    <dc:creator>
     <cc:Agent>
      <dc:title>Matplotlib v3.10.0, https://matplotlib.org/</dc:title>
     </cc:Agent>
    </dc:creator>
   </cc:Work>
  </rdf:RDF>
 </metadata>
 <defs>
  <style type="text/css">*{stroke-linejoin: round; stroke-linecap: butt}</style>
 </defs>
 <g id="figure_1">
  <g id="patch_1">
   <path d="M 0 432 
L 648 432 
L 648 0 
L 0 0 
z
" style="fill: #ffffff"/>
  </g>
  <g id="axes_1">
   <g id="patch_2">
    <path d="M 62.84 382.12 
L 632.981429 382.12 
L 632.981429 38.88 
L 62.84 38.88 
z
" style="fill: #eaeaf2"/>
   </g>
   <g id="matplotlib.axis_1">
    <g id="xtick_1">
     <g id="line2d_1">
      <path d="M 73.727488 382.12 
L 73.727488 38.88 
" clip-path="url(#p724c3b72bf)" style="fill: none; stroke: #ffffff; stroke-width: 0.8; stroke-linecap: round"/>
     </g>
     <g id="text_1">
      <!-- 0 -->
      <g style="fill: #262626" transform="translate(69.273738 399.757812) scale(0.14 -0.14)">
       <defs>
        <path id="DejaVuSans-30" d="M 2034 4250 
Q 1547 4250 1301 3770 
Q 1056 3291 1056 2328 
Q 1056 1369 1301 889 
Q 1547 409 2034 409 
Q 2525 409 2770 889 
Q 3016 1369 3016 2328 
Q 3016 3291 2770 3770 
Q 2525 4250 2034 4250 
z
M 2034 4750 
Q 2819 4750 3233 4129 
Q 3647 3509 3647 2328 
Q 3647 1150 3233 529 
Q 2819 -91 2034 -91 
Q 1250 -91 836 529 
Q 422 1150 422 2328 
Q 422 3509 836 4129 
Q 1250 4750 2034 4750 
z
" transform="scale(0.015625)"/>
       </defs>
       <use xlink:href="#DejaVuSans-30"/>
      </g>
     </g>
    </g>
    <g id="xtick_2">
     <g id="line2d_2">
      <path d="M 255.185613 382.12 
L 255.185613 38.88 
" clip-path="url(#p724c3b72bf)" style="fill: none; stroke: #ffffff; stroke-width: 0.8; stroke-linecap: round"/>
     </g>
     <g id="text_2">
      <!-- 200k -->
      <g style="fill: #262626" transform="translate(237.770925 399.757812) scale(0.14 -0.14)">
       <defs>
        <path id="DejaVuSans-32" d="M 1228 531 
L 3431 531 
L 3431 0 
L 469 0 
L 469 531 
Q 828 903 1448 1529 
Q 2069 2156 2228 2338 
Q 2531 2678 2651 2914 
Q 2772 3150 2772 3378 
Q 2772 3750 2511 3984 
Q 2250 4219 1831 4219 
Q 1534 4219 1204 4116 
Q 875 4013 500 3803 
L 500 4441 
Q 881 4594 1212 4672 
Q 1544 4750 1819 4750 
Q 2544 4750 2975 4387 
Q 3406 4025 3406 3419 
Q 3406 3131 3298 2873 
Q 3191 2616 2906 2266 
Q 2828 2175 2409 1742 
Q 1991 1309 1228 531 
z
" transform="scale(0.015625)"/>
        <path id="DejaVuSans-6b" d="M 581 4863 
L 1159 4863 
L 1159 1991 
L 2875 3500 
L 3609 3500 
L 1753 1863 
L 3688 0 
L 2938 0 
L 1159 1709 
L 1159 0 
L 581 0 
L 581 4863 
z
" transform="scale(0.015625)"/>
       </defs>
       <use xlink:href="#DejaVuSans-32"/>
       <use xlink:href="#DejaVuSans-30" transform="translate(63.623047 0)"/>
       <use xlink:href="#DejaVuSans-30" transform="translate(127.246094 0)"/>
       <use xlink:href="#DejaVuSans-6b" transform="translate(190.869141 0)"/>
      </g>
     </g>
    </g>
    <g id="xtick_3">
     <g id="line2d_3">
      <path d="M 436.643738 382.12 
L 436.643738 38.88 
" clip-path="url(#p724c3b72bf)" style="fill: none; stroke: #ffffff; stroke-width: 0.8; stroke-linecap: round"/>
     </g>
     <g id="text_3">
      <!-- 400k -->
      <g style="fill: #262626" transform="translate(419.22905 399.757812) scale(0.14 -0.14)">
       <defs>
        <path id="DejaVuSans-34" d="M 2419 4116 
L 825 1625 
L 2419 1625 
L 2419 4116 
z
M 2253 4666 
L 3047 4666 
L 3047 1625 
L 3713 1625 
L 3713 1100 
L 3047 1100 
L 3047 0 
L 2419 0 
L 2419 1100 
L 313 1100 
L 313 1709 
L 2253 4666 
z
" transform="scale(0.015625)"/>
       </defs>
       <use xlink:href="#DejaVuSans-34"/>
       <use xlink:href="#DejaVuSans-30" transform="translate(63.623047 0)"/>
       <use xlink:href="#DejaVuSans-30" transform="translate(127.246094 0)"/>
       <use xlink:href="#DejaVuSans-6b" transform="translate(190.869141 0)"/>
      </g>
     </g>
    </g>
    <g id="xtick_4">
     <g id="line2d_4">
      <path d="M 618.101863 382.12 
L 618.101863 38.88 
" clip-path="url(#p724c3b72bf)" style="fill: none; stroke: #ffffff; stroke-width: 0.8; stroke-linecap: round"/>
     </g>
     <g id="text_4">
      <!-- 600k -->
      <g style="fill: #262626" transform="translate(600.687175 399.757812) scale(0.14 -0.14)">
       <defs>
        <path id="DejaVuSans-36" d="M 2113 2584 
Q 1688 2584 1439 2293 
Q 1191 2003 1191 1497 
Q 1191 994 1439 701 
Q 1688 409 2113 409 
Q 2538 409 2786 701 
Q 3034 994 3034 1497 
Q 3034 2003 2786 2293 
Q 2538 2584 2113 2584 
z
M 3366 4563 
L 3366 3988 
Q 3128 4100 2886 4159 
Q 2644 4219 2406 4219 
Q 1781 4219 1451 3797 
Q 1122 3375 1075 2522 
Q 1259 2794 1537 2939 
Q 1816 3084 2150 3084 
Q 2853 3084 3261 2657 
Q 3669 2231 3669 1497 
Q 3669 778 3244 343 
Q 2819 -91 2113 -91 
Q 1303 -91 875 529 
Q 447 1150 447 2328 
Q 447 3434 972 4092 
Q 1497 4750 2381 4750 
Q 2619 4750 2861 4703 
Q 3103 4656 3366 4563 
z
" transform="scale(0.015625)"/>
       </defs>
       <use xlink:href="#DejaVuSans-36"/>
       <use xlink:href="#DejaVuSans-30" transform="translate(63.623047 0)"/>
       <use xlink:href="#DejaVuSans-30" transform="translate(127.246094 0)"/>
       <use xlink:href="#DejaVuSans-6b" transform="translate(190.869141 0)"/>
      </g>
     </g>
    </g>
    <g id="text_5">
     <!-- Steps -->
     <g style="fill: #262626" transform="translate(325.526965 418.826875) scale(0.16 -0.16)">
      <defs>
       <path id="DejaVuSans-53" d="M 3425 4513 
L 3425 3897 
Q 3066 4069 2747 4153 
Q 2428 4238 2131 4238 
Q 1616 4238 1336 4038 
Q 1056 3838 1056 3469 
Q 1056 3159 1242 3001 
Q 1428 2844 1947 2747 
L 2328 2669 
Q 3034 2534 3370 2195 
Q 3706 1856 3706 1288 
Q 3706 609 3251 259 
Q 2797 -91 1919 -91 
Q 1588 -91 1214 -16 
Q 841 59 441 206 
L 441 856 
Q 825 641 1194 531 
Q 1563 422 1919 422 
Q 2459 422 2753 634 
Q 3047 847 3047 1241 
Q 3047 1584 2836 1778 
Q 2625 1972 2144 2069 
L 1759 2144 
Q 1053 2284 737 2584 
Q 422 2884 422 3419 
Q 422 4038 858 4394 
Q 1294 4750 2059 4750 
Q 2388 4750 2728 4690 
Q 3069 4631 3425 4513 
z
" transform="scale(0.015625)"/>
       <path id="DejaVuSans-74" d="M 1172 4494 
L 1172 3500 
L 2356 3500 
L 2356 3053 
L 1172 3053 
L 1172 1153 
Q 1172 725 1289 603 
Q 1406 481 1766 481 
L 2356 481 
L 2356 0 
L 1766 0 
Q 1100 0 847 248 
Q 594 497 594 1153 
L 594 3053 
L 172 3053 
L 172 3500 
L 594 3500 
L 594 4494 
L 1172 4494 
z
" transform="scale(0.015625)"/>
       <path id="DejaVuSans-65" d="M 3597 1894 
L 3597 1613 
L 953 1613 
Q 991 1019 1311 708 
Q 1631 397 2203 397 
Q 2534 397 2845 478 
Q 3156 559 3463 722 
L 3463 178 
Q 3153 47 2828 -22 
Q 2503 -91 2169 -91 
Q 1331 -91 842 396 
Q 353 884 353 1716 
Q 353 2575 817 3079 
Q 1281 3584 2069 3584 
Q 2775 3584 3186 3129 
Q 3597 2675 3597 1894 
z
M 3022 2063 
Q 3016 2534 2758 2815 
Q 2500 3097 2075 3097 
Q 1594 3097 1305 2825 
Q 1016 2553 972 2059 
L 3022 2063 
z
" transform="scale(0.015625)"/>
       <path id="DejaVuSans-70" d="M 1159 525 
L 1159 -1331 
L 581 -1331 
L 581 3500 
L 1159 3500 
L 1159 2969 
Q 1341 3281 1617 3432 
Q 1894 3584 2278 3584 
Q 2916 3584 3314 3078 
Q 3713 2572 3713 1747 
Q 3713 922 3314 415 
Q 2916 -91 2278 -91 
Q 1894 -91 1617 61 
Q 1341 213 1159 525 
z
M 3116 1747 
Q 3116 2381 2855 2742 
Q 2594 3103 2138 3103 
Q 1681 3103 1420 2742 
Q 1159 2381 1159 1747 
Q 1159 1113 1420 752 
Q 1681 391 2138 391 
Q 2594 391 2855 752 
Q 3116 1113 3116 1747 
z
" transform="scale(0.015625)"/>
       <path id="DejaVuSans-73" d="M 2834 3397 
L 2834 2853 
Q 2591 2978 2328 3040 
Q 2066 3103 1784 3103 
Q 1356 3103 1142 2972 
Q 928 2841 928 2578 
Q 928 2378 1081 2264 
Q 1234 2150 1697 2047 
L 1894 2003 
Q 2506 1872 2764 1633 
Q 3022 1394 3022 966 
Q 3022 478 2636 193 
Q 2250 -91 1575 -91 
Q 1294 -91 989 -36 
Q 684 19 347 128 
L 347 722 
Q 666 556 975 473 
Q 1284 391 1588 391 
Q 1994 391 2212 530 
Q 2431 669 2431 922 
Q 2431 1156 2273 1281 
Q 2116 1406 1581 1522 
L 1381 1569 
Q 847 1681 609 1914 
Q 372 2147 372 2553 
Q 372 3047 722 3315 
Q 1072 3584 1716 3584 
Q 2034 3584 2315 3537 
Q 2597 3491 2834 3397 
z
" transform="scale(0.015625)"/>
      </defs>
      <use xlink:href="#DejaVuSans-53"/>
      <use xlink:href="#DejaVuSans-74" transform="translate(63.476562 0)"/>
      <use xlink:href="#DejaVuSans-65" transform="translate(102.685547 0)"/>
      <use xlink:href="#DejaVuSans-70" transform="translate(164.208984 0)"/>
      <use xlink:href="#DejaVuSans-73" transform="translate(227.685547 0)"/>
     </g>
    </g>
   </g>
   <g id="matplotlib.axis_2">
    <g id="ytick_1">
     <g id="line2d_5">
      <path d="M 62.84 372.40566 
L 632.981429 372.40566 
" clip-path="url(#p724c3b72bf)" style="fill: none; stroke: #ffffff; stroke-width: 0.8; stroke-linecap: round"/>
     </g>
     <g id="text_6">
      <!-- 0 -->
      <g style="fill: #262626" transform="translate(46.9325 377.724567) scale(0.14 -0.14)">
       <use xlink:href="#DejaVuSans-30"/>
      </g>
     </g>
    </g>
    <g id="ytick_2">
     <g id="line2d_6">
      <path d="M 62.84 307.643396 
L 632.981429 307.643396 
" clip-path="url(#p724c3b72bf)" style="fill: none; stroke: #ffffff; stroke-width: 0.8; stroke-linecap: round"/>
     </g>
     <g id="text_7">
      <!-- 100 -->
      <g style="fill: #262626" transform="translate(29.1175 312.962302) scale(0.14 -0.14)">
       <defs>
        <path id="DejaVuSans-31" d="M 794 531 
L 1825 531 
L 1825 4091 
L 703 3866 
L 703 4441 
L 1819 4666 
L 2450 4666 
L 2450 531 
L 3481 531 
L 3481 0 
L 794 0 
L 794 531 
z
" transform="scale(0.015625)"/>
       </defs>
       <use xlink:href="#DejaVuSans-31"/>
       <use xlink:href="#DejaVuSans-30" transform="translate(63.623047 0)"/>
       <use xlink:href="#DejaVuSans-30" transform="translate(127.246094 0)"/>
      </g>
     </g>
    </g>
    <g id="ytick_3">
     <g id="line2d_7">
      <path d="M 62.84 242.881132 
L 632.981429 242.881132 
" clip-path="url(#p724c3b72bf)" style="fill: none; stroke: #ffffff; stroke-width: 0.8; stroke-linecap: round"/>
     </g>
     <g id="text_8">
      <!-- 200 -->
      <g style="fill: #262626" transform="translate(29.1175 248.200038) scale(0.14 -0.14)">
       <use xlink:href="#DejaVuSans-32"/>
       <use xlink:href="#DejaVuSans-30" transform="translate(63.623047 0)"/>
       <use xlink:href="#DejaVuSans-30" transform="translate(127.246094 0)"/>
      </g>
     </g>
    </g>
    <g id="ytick_4">
     <g id="line2d_8">
      <path d="M 62.84 178.118868 
L 632.981429 178.118868 
" clip-path="url(#p724c3b72bf)" style="fill: none; stroke: #ffffff; stroke-width: 0.8; stroke-linecap: round"/>
     </g>
     <g id="text_9">
      <!-- 300 -->
      <g style="fill: #262626" transform="translate(29.1175 183.437774) scale(0.14 -0.14)">
       <defs>
        <path id="DejaVuSans-33" d="M 2597 2516 
Q 3050 2419 3304 2112 
Q 3559 1806 3559 1356 
Q 3559 666 3084 287 
Q 2609 -91 1734 -91 
Q 1441 -91 1130 -33 
Q 819 25 488 141 
L 488 750 
Q 750 597 1062 519 
Q 1375 441 1716 441 
Q 2309 441 2620 675 
Q 2931 909 2931 1356 
Q 2931 1769 2642 2001 
Q 2353 2234 1838 2234 
L 1294 2234 
L 1294 2753 
L 1863 2753 
Q 2328 2753 2575 2939 
Q 2822 3125 2822 3475 
Q 2822 3834 2567 4026 
Q 2313 4219 1838 4219 
Q 1578 4219 1281 4162 
Q 984 4106 628 3988 
L 628 4550 
Q 988 4650 1302 4700 
Q 1616 4750 1894 4750 
Q 2613 4750 3031 4423 
Q 3450 4097 3450 3541 
Q 3450 3153 3228 2886 
Q 3006 2619 2597 2516 
z
" transform="scale(0.015625)"/>
       </defs>
       <use xlink:href="#DejaVuSans-33"/>
       <use xlink:href="#DejaVuSans-30" transform="translate(63.623047 0)"/>
       <use xlink:href="#DejaVuSans-30" transform="translate(127.246094 0)"/>
      </g>
     </g>
    </g>
    <g id="ytick_5">
     <g id="line2d_9">
      <path d="M 62.84 113.356604 
L 632.981429 113.356604 
" clip-path="url(#p724c3b72bf)" style="fill: none; stroke: #ffffff; stroke-width: 0.8; stroke-linecap: round"/>
     </g>
     <g id="text_10">
      <!-- 400 -->
      <g style="fill: #262626" transform="translate(29.1175 118.67551) scale(0.14 -0.14)">
       <use xlink:href="#DejaVuSans-34"/>
       <use xlink:href="#DejaVuSans-30" transform="translate(63.623047 0)"/>
       <use xlink:href="#DejaVuSans-30" transform="translate(127.246094 0)"/>
      </g>
     </g>
    </g>
    <g id="ytick_6">
     <g id="line2d_10">
      <path d="M 62.84 48.59434 
L 632.981429 48.59434 
" clip-path="url(#p724c3b72bf)" style="fill: none; stroke: #ffffff; stroke-width: 0.8; stroke-linecap: round"/>
     </g>
     <g id="text_11">
      <!-- 500 -->
      <g style="fill: #262626" transform="translate(29.1175 53.913246) scale(0.14 -0.14)">
       <defs>
        <path id="DejaVuSans-35" d="M 691 4666 
L 3169 4666 
L 3169 4134 
L 1269 4134 
L 1269 2991 
Q 1406 3038 1543 3061 
Q 1681 3084 1819 3084 
Q 2600 3084 3056 2656 
Q 3513 2228 3513 1497 
Q 3513 744 3044 326 
Q 2575 -91 1722 -91 
Q 1428 -91 1123 -41 
Q 819 9 494 109 
L 494 744 
Q 775 591 1075 516 
Q 1375 441 1709 441 
Q 2250 441 2565 725 
Q 2881 1009 2881 1497 
Q 2881 1984 2565 2268 
Q 2250 2553 1709 2553 
Q 1456 2553 1204 2497 
Q 953 2441 691 2322 
L 691 4666 
z
" transform="scale(0.015625)"/>
       </defs>
       <use xlink:href="#DejaVuSans-35"/>
       <use xlink:href="#DejaVuSans-30" transform="translate(63.623047 0)"/>
       <use xlink:href="#DejaVuSans-30" transform="translate(127.246094 0)"/>
      </g>
     </g>
    </g>
    <g id="text_12">
     <!-- Reward -->
     <g style="fill: #262626" transform="translate(21.79 240.29375) rotate(-90) scale(0.16 -0.16)">
      <defs>
       <path id="DejaVuSans-52" d="M 2841 2188 
Q 3044 2119 3236 1894 
Q 3428 1669 3622 1275 
L 4263 0 
L 3584 0 
L 2988 1197 
Q 2756 1666 2539 1819 
Q 2322 1972 1947 1972 
L 1259 1972 
L 1259 0 
L 628 0 
L 628 4666 
L 2053 4666 
Q 2853 4666 3247 4331 
Q 3641 3997 3641 3322 
Q 3641 2881 3436 2590 
Q 3231 2300 2841 2188 
z
M 1259 4147 
L 1259 2491 
L 2053 2491 
Q 2509 2491 2742 2702 
Q 2975 2913 2975 3322 
Q 2975 3731 2742 3939 
Q 2509 4147 2053 4147 
L 1259 4147 
z
" transform="scale(0.015625)"/>
       <path id="DejaVuSans-77" d="M 269 3500 
L 844 3500 
L 1563 769 
L 2278 3500 
L 2956 3500 
L 3675 769 
L 4391 3500 
L 4966 3500 
L 4050 0 
L 3372 0 
L 2619 2869 
L 1863 0 
L 1184 0 
L 269 3500 
z
" transform="scale(0.015625)"/>
       <path id="DejaVuSans-61" d="M 2194 1759 
Q 1497 1759 1228 1600 
Q 959 1441 959 1056 
Q 959 750 1161 570 
Q 1363 391 1709 391 
Q 2188 391 2477 730 
Q 2766 1069 2766 1631 
L 2766 1759 
L 2194 1759 
z
M 3341 1997 
L 3341 0 
L 2766 0 
L 2766 531 
Q 2569 213 2275 61 
Q 1981 -91 1556 -91 
Q 1019 -91 701 211 
Q 384 513 384 1019 
Q 384 1609 779 1909 
Q 1175 2209 1959 2209 
L 2766 2209 
L 2766 2266 
Q 2766 2663 2505 2880 
Q 2244 3097 1772 3097 
Q 1472 3097 1187 3025 
Q 903 2953 641 2809 
L 641 3341 
Q 956 3463 1253 3523 
Q 1550 3584 1831 3584 
Q 2591 3584 2966 3190 
Q 3341 2797 3341 1997 
z
" transform="scale(0.015625)"/>
       <path id="DejaVuSans-72" d="M 2631 2963 
Q 2534 3019 2420 3045 
Q 2306 3072 2169 3072 
Q 1681 3072 1420 2755 
Q 1159 2438 1159 1844 
L 1159 0 
L 581 0 
L 581 3500 
L 1159 3500 
L 1159 2956 
Q 1341 3275 1631 3429 
Q 1922 3584 2338 3584 
Q 2397 3584 2469 3576 
Q 2541 3569 2628 3553 
L 2631 2963 
z
" transform="scale(0.015625)"/>
       <path id="DejaVuSans-64" d="M 2906 2969 
L 2906 4863 
L 3481 4863 
L 3481 0 
L 2906 0 
L 2906 525 
Q 2725 213 2448 61 
Q 2172 -91 1784 -91 
Q 1150 -91 751 415 
Q 353 922 353 1747 
Q 353 2572 751 3078 
Q 1150 3584 1784 3584 
Q 2172 3584 2448 3432 
Q 2725 3281 2906 2969 
z
M 947 1747 
Q 947 1113 1208 752 
Q 1469 391 1925 391 
Q 2381 391 2643 752 
Q 2906 1113 2906 1747 
Q 2906 2381 2643 2742 
Q 2381 3103 1925 3103 
Q 1469 3103 1208 2742 
Q 947 2381 947 1747 
z
" transform="scale(0.015625)"/>
      </defs>
      <use xlink:href="#DejaVuSans-52"/>
      <use xlink:href="#DejaVuSans-65" transform="translate(64.982422 0)"/>
      <use xlink:href="#DejaVuSans-77" transform="translate(126.505859 0)"/>
      <use xlink:href="#DejaVuSans-61" transform="translate(208.292969 0)"/>
      <use xlink:href="#DejaVuSans-72" transform="translate(269.572266 0)"/>
      <use xlink:href="#DejaVuSans-64" transform="translate(308.935547 0)"/>
     </g>
    </g>
   </g>
   <g id="FillBetweenPolyCollection_1">
    <path d="M 73.727488 354.810523 
L 73.727488 356.815866 
L 84.876275 351.958209 
L 96.025062 340.745184 
L 107.173849 319.39863 
L 118.322636 287.739082 
L 129.471424 254.450909 
L 140.620211 228.951629 
L 151.768998 214.443423 
L 162.917785 199.125687 
L 174.066572 182.423323 
L 185.21536 169.277523 
L 196.364147 162.333161 
L 207.512934 156.744631 
L 218.661721 140.52149 
L 229.810508 118.965698 
L 240.959296 102.540057 
L 252.108083 98.791477 
L 263.25687 101.386461 
L 274.405657 91.821276 
L 285.554444 76.509582 
L 296.703232 68.038173 
L 307.852019 64.269025 
L 319.000806 63.070443 
L 330.149593 62.581506 
L 341.29838 62.876848 
L 352.447168 65.954986 
L 363.595955 69.396752 
L 374.744742 70.690014 
L 385.893529 71.20188 
L 397.042316 68.945248 
L 408.191104 68.813627 
L 419.339891 70.860818 
L 430.488678 71.743508 
L 441.637465 71.329208 
L 452.786252 72.295719 
L 463.93504 72.147363 
L 475.083827 70.823479 
L 486.232614 73.320112 
L 497.381401 79.074448 
L 508.530189 82.23346 
L 519.678976 80.257935 
L 530.827763 71.943339 
L 541.97655 64.327951 
L 553.125337 63.13455 
L 564.274125 67.131397 
L 575.422912 70.661396 
L 586.571699 68.517856 
L 597.720486 67.99776 
L 608.869273 71.958567 
L 620.018061 71.393311 
L 620.018061 45.561172 
L 620.018061 45.561172 
L 608.869273 45.4899 
L 597.720486 46.706853 
L 586.571699 47.92749 
L 575.422912 47.652761 
L 564.274125 46.471961 
L 553.125337 46.803944 
L 541.97655 49.057598 
L 530.827763 51.743111 
L 519.678976 52.211326 
L 508.530189 50.806778 
L 497.381401 49.606517 
L 486.232614 49.018581 
L 475.083827 48.1915 
L 463.93504 47.694912 
L 452.786252 47.509594 
L 441.637465 46.787735 
L 430.488678 45.934364 
L 419.339891 46.191519 
L 408.191104 45.982844 
L 397.042316 44.5001 
L 385.893529 43.11771 
L 374.744742 43.165367 
L 363.595955 44.812438 
L 352.447168 47.568351 
L 341.29838 48.33979 
L 330.149593 47.806198 
L 319.000806 47.580032 
L 307.852019 47.591716 
L 296.703232 47.90225 
L 285.554444 49.052851 
L 274.405657 49.269654 
L 263.25687 49.578165 
L 252.108083 55.56143 
L 240.959296 65.09525 
L 229.810508 81.30618 
L 218.661721 101.050817 
L 207.512934 110.761659 
L 196.364147 113.379823 
L 185.21536 124.679557 
L 174.066572 142.440495 
L 162.917785 159.442198 
L 151.768998 180.095617 
L 140.620211 203.45717 
L 129.471424 230.197528 
L 118.322636 261.670878 
L 107.173849 296.437049 
L 96.025062 328.125115 
L 84.876275 347.402632 
L 73.727488 354.810523 
z
" clip-path="url(#p724c3b72bf)" style="fill: #023eff; fill-opacity: 0.1"/>
   </g>
   <g id="FillBetweenPolyCollection_2">
    <path d="M 73.727488 354.776295 
L 73.727488 356.806161 
L 84.876275 351.731957 
L 96.025062 339.96269 
L 107.173849 319.233956 
L 118.322636 291.592476 
L 129.471424 264.52199 
L 140.620211 241.007716 
L 151.768998 222.335823 
L 162.917785 205.909574 
L 174.066572 187.531641 
L 185.21536 168.041867 
L 196.364147 155.895363 
L 207.512934 150.522265 
L 218.661721 140.537299 
L 229.810508 125.379261 
L 240.959296 109.014872 
L 252.108083 93.900822 
L 263.25687 83.489841 
L 274.405657 81.310044 
L 285.554444 84.016555 
L 296.703232 86.224461 
L 307.852019 85.18387 
L 319.000806 83.041136 
L 330.149593 82.180558 
L 341.29838 82.782615 
L 352.447168 82.429854 
L 363.595955 78.260467 
L 374.744742 70.26549 
L 385.893529 62.997935 
L 397.042316 59.058802 
L 408.191104 57.904394 
L 419.339891 59.453322 
L 430.488678 61.955615 
L 441.637465 63.218377 
L 452.786252 64.266637 
L 463.93504 66.710131 
L 475.083827 68.086907 
L 486.232614 71.560398 
L 497.381401 79.894494 
L 508.530189 84.477464 
L 519.678976 77.831369 
L 530.827763 69.569161 
L 541.97655 64.846505 
L 553.125337 64.476035 
L 564.274125 73.096005 
L 575.422912 84.951925 
L 586.571699 83.442127 
L 597.720486 71.476301 
L 608.869273 64.66966 
L 620.018061 65.68774 
L 620.018061 47.101468 
L 620.018061 47.101468 
L 608.869273 49.952271 
L 597.720486 53.211489 
L 586.571699 54.404354 
L 575.422912 54.620608 
L 564.274125 52.173815 
L 553.125337 48.841832 
L 541.97655 46.535011 
L 530.827763 45.108861 
L 519.678976 45.73815 
L 508.530189 47.350809 
L 497.381401 47.522264 
L 486.232614 48.244546 
L 475.083827 48.725278 
L 463.93504 49.75858 
L 452.786252 50.320958 
L 441.637465 48.482325 
L 430.488678 47.160326 
L 419.339891 47.062819 
L 408.191104 47.290058 
L 397.042316 47.928158 
L 385.893529 48.904479 
L 374.744742 49.243983 
L 363.595955 48.777564 
L 352.447168 50.134795 
L 341.29838 52.105412 
L 330.149593 53.911995 
L 319.000806 55.559176 
L 307.852019 55.914905 
L 296.703232 55.368032 
L 285.554444 53.243246 
L 274.405657 51.761503 
L 263.25687 55.390355 
L 252.108083 64.106419 
L 240.959296 72.368194 
L 229.810508 78.057825 
L 218.661721 87.327203 
L 207.512934 100.192911 
L 196.364147 111.305776 
L 185.21536 123.174061 
L 174.066572 136.098853 
L 162.917785 153.733938 
L 151.768998 177.014334 
L 140.620211 204.230562 
L 129.471424 236.056506 
L 118.322636 270.387148 
L 107.173849 302.726637 
L 96.025062 330.112765 
L 84.876275 347.546027 
L 73.727488 354.776295 
z
" clip-path="url(#p724c3b72bf)" style="fill: #ff7c00; fill-opacity: 0.1"/>
   </g>
   <g id="FillBetweenPolyCollection_3">
    <path d="M 73.727488 352.518379 
L 73.727488 357.945795 
L 84.876275 353.917847 
L 96.025062 343.463498 
L 107.173849 323.824106 
L 118.322636 296.626514 
L 129.471424 270.15602 
L 140.620211 250.601434 
L 151.768998 235.672599 
L 162.917785 225.310878 
L 174.066572 216.12025 
L 185.21536 204.050599 
L 196.364147 187.802195 
L 207.512934 169.978726 
L 218.661721 150.795647 
L 229.810508 130.059634 
L 240.959296 110.038982 
L 252.108083 102.855421 
L 263.25687 106.514786 
L 274.405657 100.773697 
L 285.554444 87.011127 
L 296.703232 77.944504 
L 307.852019 72.449283 
L 319.000806 72.909008 
L 330.149593 80.781192 
L 341.29838 86.320051 
L 352.447168 89.092032 
L 363.595955 88.592849 
L 374.744742 75.233343 
L 385.893529 61.582846 
L 397.042316 56.250404 
L 408.191104 56.028092 
L 419.339891 58.187552 
L 430.488678 63.705482 
L 441.637465 72.321333 
L 452.786252 74.652797 
L 463.93504 70.888086 
L 475.083827 62.735627 
L 486.232614 56.934533 
L 497.381401 55.263025 
L 508.530189 53.962188 
L 519.678976 55.129816 
L 530.827763 61.271624 
L 541.97655 70.12135 
L 553.125337 71.789976 
L 564.274125 67.639032 
L 575.422912 65.098295 
L 586.571699 62.239736 
L 597.720486 56.811465 
L 608.869273 55.164277 
L 620.018061 58.462523 
L 620.018061 47.383253 
L 620.018061 47.383253 
L 608.869273 47.626211 
L 597.720486 47.47084 
L 586.571699 47.360469 
L 575.422912 46.741725 
L 564.274125 44.505892 
L 553.125337 42.635112 
L 541.97655 43.304463 
L 530.827763 45.397073 
L 519.678976 46.63869 
L 508.530189 46.848965 
L 497.381401 46.610262 
L 486.232614 46.956285 
L 475.083827 46.837438 
L 463.93504 45.774496 
L 452.786252 45.730928 
L 441.637465 46.837324 
L 430.488678 47.58492 
L 419.339891 47.697292 
L 408.191104 47.794034 
L 397.042316 47.742039 
L 385.893529 47.558726 
L 374.744742 47.132813 
L 363.595955 46.91465 
L 352.447168 48.755833 
L 341.29838 51.296284 
L 330.149593 52.123376 
L 319.000806 52.822793 
L 307.852019 54.833202 
L 296.703232 54.719825 
L 285.554444 56.369562 
L 274.405657 64.001064 
L 263.25687 71.155975 
L 252.108083 74.04158 
L 240.959296 77.524266 
L 229.810508 89.131771 
L 218.661721 110.495627 
L 207.512934 133.703301 
L 196.364147 150.951434 
L 185.21536 165.022122 
L 174.066572 177.308502 
L 162.917785 186.048888 
L 151.768998 198.060298 
L 140.620211 220.319736 
L 129.471424 248.858293 
L 118.322636 280.190099 
L 107.173849 309.29161 
L 96.025062 331.391181 
L 84.876275 345.400194 
L 73.727488 352.518379 
z
" clip-path="url(#p724c3b72bf)" style="fill: #1ac938; fill-opacity: 0.1"/>
   </g>
   <g id="FillBetweenPolyCollection_4">
    <path d="M 73.727488 352.282563 
L 73.727488 357.944411 
L 84.876275 353.924642 
L 96.025062 343.100221 
L 107.173849 322.486777 
L 118.322636 296.16246 
L 129.471424 273.024559 
L 140.620211 256.723027 
L 151.768998 247.03688 
L 162.917785 241.3253 
L 174.066572 230.911916 
L 185.21536 210.228303 
L 196.364147 184.759246 
L 207.512934 164.270151 
L 218.661721 152.47776 
L 229.810508 142.234097 
L 240.959296 129.466016 
L 252.108083 123.878543 
L 263.25687 120.031435 
L 274.405657 113.380776 
L 285.554444 106.125756 
L 296.703232 97.673795 
L 307.852019 90.395746 
L 319.000806 88.130917 
L 330.149593 85.202373 
L 341.29838 82.474545 
L 352.447168 83.24575 
L 363.595955 83.112213 
L 374.744742 79.454927 
L 385.893529 72.149675 
L 397.042316 67.360503 
L 408.191104 70.417958 
L 419.339891 82.924103 
L 430.488678 112.79477 
L 441.637465 154.565116 
L 452.786252 182.687784 
L 463.93504 196.476913 
L 475.083827 203.190072 
L 486.232614 204.612282 
L 497.381401 203.218872 
L 508.530189 202.471617 
L 519.678976 202.121395 
L 530.827763 200.755612 
L 541.97655 200.110826 
L 553.125337 200.266288 
L 564.274125 200.491217 
L 575.422912 201.255069 
L 586.571699 202.107615 
L 597.720486 202.739392 
L 608.869273 202.341427 
L 620.018061 201.353068 
L 620.018061 11.597357 
L 620.018061 11.597357 
L 608.869273 11.634336 
L 597.720486 10.779798 
L 586.571699 8.37633 
L 575.422912 6.833369 
L 564.274125 7.424019 
L 553.125337 8.324524 
L 541.97655 6.265349 
L 530.827763 4.453408 
L 519.678976 5.390377 
L 508.530189 5.895099 
L 497.381401 8.383993 
L 486.232614 13.23031 
L 475.083827 16.223717 
L 463.93504 17.48289 
L 452.786252 17.774261 
L 441.637465 23.571577 
L 430.488678 36.903357 
L 419.339891 47.686622 
L 408.191104 51.25817 
L 397.042316 52.320786 
L 385.893529 53.936157 
L 374.744742 55.607558 
L 363.595955 56.287232 
L 352.447168 55.625493 
L 341.29838 53.688774 
L 330.149593 56.268142 
L 319.000806 61.579436 
L 307.852019 62.834311 
L 296.703232 62.228018 
L 285.554444 62.589716 
L 274.405657 64.083618 
L 263.25687 66.38282 
L 252.108083 73.600817 
L 240.959296 82.292276 
L 229.810508 90.730558 
L 218.661721 104.579356 
L 207.512934 123.31476 
L 196.364147 143.892237 
L 185.21536 164.90762 
L 174.066572 181.358919 
L 162.917785 188.580579 
L 151.768998 196.700255 
L 140.620211 215.354605 
L 129.471424 242.907248 
L 118.322636 275.545639 
L 107.173849 305.414447 
L 96.025062 328.951421 
L 84.876275 344.528781 
L 73.727488 352.282563 
z
" clip-path="url(#p724c3b72bf)" style="fill: #e8000b; fill-opacity: 0.1"/>
   </g>
   <g id="line2d_11">
    <path d="M 73.727488 355.813194 
L 84.876275 349.680421 
L 96.025062 334.43515 
L 107.173849 307.917839 
L 118.322636 274.70498 
L 129.471424 242.324218 
L 140.620211 216.2044 
L 151.768998 197.26952 
L 162.917785 179.283943 
L 174.066572 162.431909 
L 185.21536 146.97854 
L 196.364147 137.856492 
L 207.512934 133.753145 
L 218.661721 120.786154 
L 229.810508 100.135939 
L 240.959296 83.817654 
L 252.108083 77.176453 
L 263.25687 75.482313 
L 274.405657 70.545465 
L 285.554444 62.781217 
L 296.703232 57.970212 
L 307.852019 55.930371 
L 319.000806 55.325238 
L 330.149593 55.193852 
L 341.29838 55.608319 
L 352.447168 56.761669 
L 363.595955 57.104595 
L 374.744742 56.927691 
L 385.893529 57.159795 
L 397.042316 56.722674 
L 408.191104 57.398236 
L 419.339891 58.526168 
L 430.488678 58.838936 
L 441.637465 59.058472 
L 452.786252 59.902656 
L 463.93504 59.921137 
L 475.083827 59.507489 
L 486.232614 61.169347 
L 497.381401 64.340483 
L 508.530189 66.520119 
L 519.678976 66.234631 
L 530.827763 61.843225 
L 541.97655 56.692774 
L 553.125337 54.969247 
L 564.274125 56.801679 
L 575.422912 59.157079 
L 586.571699 58.222673 
L 597.720486 57.352306 
L 608.869273 58.724233 
L 620.018061 58.477242 
" clip-path="url(#p724c3b72bf)" style="fill: none; stroke: #023eff; stroke-width: 2; stroke-linecap: round"/>
   </g>
   <g id="line2d_12">
    <path d="M 73.727488 353.717488 
L 84.876275 345.936384 
L 96.025062 330.207594 
L 107.173849 307.701062 
L 118.322636 280.670009 
L 129.471424 253.87142 
L 140.620211 232.634307 
L 151.768998 214.821998 
L 162.917785 196.362962 
L 174.066572 177.634392 
L 185.21536 161.136856 
L 196.364147 146.842567 
L 207.512934 132.655637 
L 218.661721 120.627748 
L 229.810508 113.118148 
L 240.959296 105.217922 
L 252.108083 92.101615 
L 263.25687 83.851515 
L 274.405657 81.208563 
L 285.554444 78.532004 
L 296.703232 74.390408 
L 307.852019 70.163338 
L 319.000806 68.089384 
L 330.149593 67.960794 
L 341.29838 65.556875 
L 352.447168 62.842781 
L 363.595955 61.260746 
L 374.744742 60.159384 
L 385.893529 59.247967 
L 397.042316 57.956388 
L 408.191104 58.994948 
L 419.339891 64.217704 
L 430.488678 67.391939 
L 441.637465 63.960627 
L 452.786252 58.873402 
L 463.93504 55.857647 
L 475.083827 52.963727 
L 486.232614 51.316856 
L 497.381401 51.433928 
L 508.530189 52.808651 
L 519.678976 54.292126 
L 530.827763 54.676938 
L 541.97655 55.488248 
L 553.125337 57.141841 
L 564.274125 58.031862 
L 575.422912 59.121156 
L 586.571699 59.542352 
L 597.720486 58.872386 
L 608.869273 57.54887 
L 620.018061 56.725903 
" clip-path="url(#p724c3b72bf)" style="fill: none; stroke-dasharray: 9.25,4; stroke-dashoffset: 0; stroke: #023eff; stroke-width: 2.5"/>
   </g>
   <g id="line2d_13">
    <path d="M 73.727488 355.791228 
L 84.876275 349.638992 
L 96.025062 335.037728 
L 107.173849 310.980297 
L 118.322636 280.989812 
L 129.471424 250.289248 
L 140.620211 222.619139 
L 151.768998 199.675078 
L 162.917785 179.821756 
L 174.066572 161.815247 
L 185.21536 145.607964 
L 196.364147 133.60057 
L 207.512934 125.357588 
L 218.661721 113.932251 
L 229.810508 101.718543 
L 240.959296 90.691533 
L 252.108083 79.00362 
L 263.25687 69.440098 
L 274.405657 66.535774 
L 285.554444 68.629901 
L 296.703232 70.796246 
L 307.852019 70.549388 
L 319.000806 69.300156 
L 330.149593 68.046276 
L 341.29838 67.444013 
L 352.447168 66.282325 
L 363.595955 63.519016 
L 374.744742 59.754737 
L 385.893529 55.951207 
L 397.042316 53.49348 
L 408.191104 52.597226 
L 419.339891 53.25807 
L 430.488678 54.55797 
L 441.637465 55.850351 
L 452.786252 57.293798 
L 463.93504 58.234356 
L 475.083827 58.406093 
L 486.232614 59.902472 
L 497.381401 63.708379 
L 508.530189 65.914137 
L 519.678976 61.78476 
L 530.827763 57.339011 
L 541.97655 55.690758 
L 553.125337 56.658933 
L 564.274125 62.63491 
L 575.422912 69.786267 
L 586.571699 68.92324 
L 597.720486 62.343895 
L 608.869273 57.310965 
L 620.018061 56.394604 
" clip-path="url(#p724c3b72bf)" style="fill: none; stroke: #ff7c00; stroke-width: 2; stroke-linecap: round"/>
   </g>
   <g id="line2d_14">
    <path d="M 73.727488 353.61475 
L 84.876275 345.740342 
L 96.025062 329.218796 
L 107.173849 303.748412 
L 118.322636 273.032386 
L 129.471424 246.397018 
L 140.620211 229.333776 
L 151.768998 216.444491 
L 162.917785 201.532321 
L 174.066572 186.913484 
L 185.21536 176.329243 
L 196.364147 164.309813 
L 207.512934 151.442813 
L 218.661721 136.542924 
L 229.810508 119.666131 
L 240.959296 105.074775 
L 252.108083 93.397578 
L 263.25687 87.104398 
L 274.405657 84.579818 
L 285.554444 79.045483 
L 296.703232 69.486049 
L 307.852019 63.628963 
L 319.000806 64.295683 
L 330.149593 64.204601 
L 341.29838 61.578981 
L 352.447168 60.861934 
L 363.595955 63.241671 
L 374.744742 66.300989 
L 385.893529 67.549037 
L 397.042316 67.04731 
L 408.191104 63.372235 
L 419.339891 62.654544 
L 430.488678 62.008097 
L 441.637465 57.572455 
L 452.786252 55.06824 
L 463.93504 56.339698 
L 475.083827 57.233274 
L 486.232614 57.211429 
L 497.381401 56.777293 
L 508.530189 56.559214 
L 519.678976 58.592897 
L 530.827763 60.648725 
L 541.97655 59.365372 
L 553.125337 58.585673 
L 564.274125 59.627177 
L 575.422912 58.996071 
L 586.571699 55.705027 
L 597.720486 53.066608 
L 608.869273 52.036811 
L 620.018061 50.684992 
" clip-path="url(#p724c3b72bf)" style="fill: none; stroke-dasharray: 9.25,4; stroke-dashoffset: 0; stroke: #ff7c00; stroke-width: 2.5"/>
   </g>
   <g id="line2d_15">
    <path d="M 73.727488 355.232087 
L 84.876275 349.659021 
L 96.025062 337.42734 
L 107.173849 316.557858 
L 118.322636 288.408307 
L 129.471424 259.507156 
L 140.620211 235.460585 
L 151.768998 216.866448 
L 162.917785 205.679883 
L 174.066572 196.714376 
L 185.21536 184.53636 
L 196.364147 169.376814 
L 207.512934 151.841013 
L 218.661721 130.645637 
L 229.810508 109.595703 
L 240.959296 93.781624 
L 252.108083 88.448501 
L 263.25687 88.835381 
L 274.405657 82.387381 
L 285.554444 71.690345 
L 296.703232 66.332164 
L 307.852019 63.641243 
L 319.000806 62.8659 
L 330.149593 66.452284 
L 341.29838 68.808168 
L 352.447168 68.923933 
L 363.595955 67.753749 
L 374.744742 61.183078 
L 385.893529 54.570786 
L 397.042316 51.996222 
L 408.191104 51.911063 
L 419.339891 52.942422 
L 430.488678 55.645201 
L 441.637465 59.579328 
L 452.786252 60.191862 
L 463.93504 58.331291 
L 475.083827 54.786532 
L 486.232614 51.945409 
L 497.381401 50.936643 
L 508.530189 50.405576 
L 519.678976 50.884253 
L 530.827763 53.334348 
L 541.97655 56.712906 
L 553.125337 57.212544 
L 564.274125 56.072462 
L 575.422912 55.92001 
L 586.571699 54.800102 
L 597.720486 52.141152 
L 608.869273 51.395244 
L 620.018061 52.922888 
" clip-path="url(#p724c3b72bf)" style="fill: none; stroke: #1ac938; stroke-width: 2; stroke-linecap: round"/>
   </g>
   <g id="line2d_16">
    <path d="M 73.727488 354.157493 
L 84.876275 346.873603 
L 96.025062 332.210195 
L 107.173849 310.754221 
L 118.322636 284.043579 
L 129.471424 256.518309 
L 140.620211 234.603729 
L 151.768998 218.898929 
L 162.917785 203.811018 
L 174.066572 189.408173 
L 185.21536 180.267596 
L 196.364147 170.228556 
L 207.512934 155.509281 
L 218.661721 138.633146 
L 229.810508 123.605736 
L 240.959296 113.761881 
L 252.108083 108.180463 
L 263.25687 101.659024 
L 274.405657 94.137761 
L 285.554444 89.649425 
L 296.703232 83.864764 
L 307.852019 75.1237 
L 319.000806 68.209013 
L 330.149593 66.427521 
L 341.29838 67.878885 
L 352.447168 69.200139 
L 363.595955 70.265709 
L 374.744742 69.685025 
L 385.893529 65.793726 
L 397.042316 60.647833 
L 408.191104 57.012257 
L 419.339891 55.235286 
L 430.488678 54.36722 
L 441.637465 55.743925 
L 452.786252 57.797324 
L 463.93504 56.818399 
L 475.083827 54.393186 
L 486.232614 52.829257 
L 497.381401 51.578415 
L 508.530189 50.702032 
L 519.678976 50.576078 
L 530.827763 50.454465 
L 541.97655 51.113866 
L 553.125337 54.522994 
L 564.274125 58.582899 
L 575.422912 58.311469 
L 586.571699 55.923957 
L 597.720486 54.899493 
L 608.869273 53.664892 
L 620.018061 53.508365 
" clip-path="url(#p724c3b72bf)" style="fill: none; stroke-dasharray: 9.25,4; stroke-dashoffset: 0; stroke: #1ac938; stroke-width: 2.5"/>
   </g>
   <g id="line2d_17">
    <path d="M 73.727488 355.113487 
L 84.876275 349.226711 
L 96.025062 336.025821 
L 107.173849 313.950612 
L 118.322636 285.854049 
L 129.471424 257.965903 
L 140.620211 236.038816 
L 151.768998 221.868568 
L 162.917785 214.95294 
L 174.066572 206.135417 
L 185.21536 187.567962 
L 196.364147 164.325741 
L 207.512934 143.792456 
L 218.661721 128.528558 
L 229.810508 116.482328 
L 240.959296 105.879146 
L 252.108083 98.73968 
L 263.25687 93.207128 
L 274.405657 88.732197 
L 285.554444 84.357736 
L 296.703232 79.950906 
L 307.852019 76.615029 
L 319.000806 74.855176 
L 330.149593 70.735257 
L 341.29838 68.081659 
L 352.447168 69.435622 
L 363.595955 69.699723 
L 374.744742 67.531243 
L 385.893529 63.042916 
L 397.042316 59.840644 
L 408.191104 60.838064 
L 419.339891 65.305363 
L 430.488678 74.849063 
L 441.637465 89.068346 
L 452.786252 100.231022 
L 463.93504 106.979902 
L 475.083827 109.706895 
L 486.232614 108.921296 
L 497.381401 105.801432 
L 508.530189 104.183358 
L 519.678976 103.755886 
L 530.827763 102.60451 
L 541.97655 103.188088 
L 553.125337 104.295406 
L 564.274125 103.957618 
L 575.422912 104.044219 
L 586.571699 105.241972 
L 597.720486 106.759595 
L 608.869273 106.987882 
L 620.018061 106.475213 
" clip-path="url(#p724c3b72bf)" style="fill: none; stroke: #e8000b; stroke-width: 2; stroke-linecap: round"/>
   </g>
   <g id="line2d_18">
    <path d="M 73.727488 354.209867 
L 84.876275 346.920044 
L 96.025062 332.420323 
L 107.173849 311.730403 
L 118.322636 286.914286 
L 129.471424 262.644511 
L 140.620211 242.050687 
L 151.768998 222.109879 
L 162.917785 202.823781 
L 174.066572 187.155076 
L 185.21536 171.543946 
L 196.364147 155.33114 
L 207.512934 140.947121 
L 218.661721 127.237328 
L 229.810508 117.129107 
L 240.959296 112.102965 
L 252.108083 106.942621 
L 263.25687 99.560155 
L 274.405657 90.304017 
L 285.554444 82.017701 
L 296.703232 76.336332 
L 307.852019 71.205132 
L 319.000806 67.530401 
L 330.149593 65.991594 
L 341.29838 63.629293 
L 352.447168 60.89874 
L 363.595955 60.47572 
L 374.744742 58.320607 
L 385.893529 55.750095 
L 397.042316 56.274067 
L 408.191104 57.660776 
L 419.339891 57.352975 
L 430.488678 54.978568 
L 441.637465 53.295305 
L 452.786252 53.370205 
L 463.93504 53.235902 
L 475.083827 51.667574 
L 486.232614 50.420083 
L 497.381401 50.256738 
L 508.530189 51.388652 
L 519.678976 52.533187 
L 530.827763 52.420121 
L 541.97655 51.521959 
L 553.125337 50.024121 
L 564.274125 49.339067 
L 575.422912 50.044256 
L 586.571699 51.008474 
L 597.720486 50.905278 
L 608.869273 50.029119 
L 620.018061 49.709728 
" clip-path="url(#p724c3b72bf)" style="fill: none; stroke-dasharray: 9.25,4; stroke-dashoffset: 0; stroke: #e8000b; stroke-width: 2.5"/>
   </g>
   <g id="line2d_19">
    <path d="M 62.84 64.784906 
L 632.981429 64.784906 
" clip-path="url(#p724c3b72bf)" style="fill: none; stroke-dasharray: 1.25,2.0625; stroke-dashoffset: 0; stroke: #000000; stroke-opacity: 0.6; stroke-width: 1.25"/>
   </g>
   <g id="patch_3">
    <path d="M 62.84 382.12 
L 62.84 38.88 
" style="fill: none; stroke: #ffffff; stroke-width: 0.8; stroke-linejoin: miter; stroke-linecap: square"/>
   </g>
   <g id="patch_4">
    <path d="M 632.981429 382.12 
L 632.981429 38.88 
" style="fill: none; stroke: #ffffff; stroke-width: 0.8; stroke-linejoin: miter; stroke-linecap: square"/>
   </g>
   <g id="patch_5">
    <path d="M 62.84 382.12 
L 632.981429 382.12 
" style="fill: none; stroke: #ffffff; stroke-width: 0.8; stroke-linejoin: miter; stroke-linecap: square"/>
   </g>
   <g id="patch_6">
    <path d="M 62.84 38.88 
L 632.981429 38.88 
" style="fill: none; stroke: #ffffff; stroke-width: 0.8; stroke-linejoin: miter; stroke-linecap: square"/>
   </g>
  </g>
  <g id="text_13">
   <!-- CartPole-v1 (GNN) -->
   <g style="fill: #262626" transform="translate(230.937187 22.317187) scale(0.18 -0.18)">
    <defs>
     <path id="DejaVuSans-Bold-43" d="M 4288 256 
Q 3956 84 3597 -3 
Q 3238 -91 2847 -91 
Q 1681 -91 1000 561 
Q 319 1213 319 2328 
Q 319 3447 1000 4098 
Q 1681 4750 2847 4750 
Q 3238 4750 3597 4662 
Q 3956 4575 4288 4403 
L 4288 3438 
Q 3953 3666 3628 3772 
Q 3303 3878 2944 3878 
Q 2300 3878 1931 3465 
Q 1563 3053 1563 2328 
Q 1563 1606 1931 1193 
Q 2300 781 2944 781 
Q 3303 781 3628 887 
Q 3953 994 4288 1222 
L 4288 256 
z
" transform="scale(0.015625)"/>
     <path id="DejaVuSans-Bold-61" d="M 2106 1575 
Q 1756 1575 1579 1456 
Q 1403 1338 1403 1106 
Q 1403 894 1545 773 
Q 1688 653 1941 653 
Q 2256 653 2472 879 
Q 2688 1106 2688 1447 
L 2688 1575 
L 2106 1575 
z
M 3816 1997 
L 3816 0 
L 2688 0 
L 2688 519 
Q 2463 200 2181 54 
Q 1900 -91 1497 -91 
Q 953 -91 614 226 
Q 275 544 275 1050 
Q 275 1666 698 1953 
Q 1122 2241 2028 2241 
L 2688 2241 
L 2688 2328 
Q 2688 2594 2478 2717 
Q 2269 2841 1825 2841 
Q 1466 2841 1156 2769 
Q 847 2697 581 2553 
L 581 3406 
Q 941 3494 1303 3539 
Q 1666 3584 2028 3584 
Q 2975 3584 3395 3211 
Q 3816 2838 3816 1997 
z
" transform="scale(0.015625)"/>
     <path id="DejaVuSans-Bold-72" d="M 3138 2547 
Q 2991 2616 2845 2648 
Q 2700 2681 2553 2681 
Q 2122 2681 1889 2404 
Q 1656 2128 1656 1613 
L 1656 0 
L 538 0 
L 538 3500 
L 1656 3500 
L 1656 2925 
Q 1872 3269 2151 3426 
Q 2431 3584 2822 3584 
Q 2878 3584 2943 3579 
Q 3009 3575 3134 3559 
L 3138 2547 
z
" transform="scale(0.015625)"/>
     <path id="DejaVuSans-Bold-74" d="M 1759 4494 
L 1759 3500 
L 2913 3500 
L 2913 2700 
L 1759 2700 
L 1759 1216 
Q 1759 972 1856 886 
Q 1953 800 2241 800 
L 2816 800 
L 2816 0 
L 1856 0 
Q 1194 0 917 276 
Q 641 553 641 1216 
L 641 2700 
L 84 2700 
L 84 3500 
L 641 3500 
L 641 4494 
L 1759 4494 
z
" transform="scale(0.015625)"/>
     <path id="DejaVuSans-Bold-50" d="M 588 4666 
L 2584 4666 
Q 3475 4666 3951 4270 
Q 4428 3875 4428 3144 
Q 4428 2409 3951 2014 
Q 3475 1619 2584 1619 
L 1791 1619 
L 1791 0 
L 588 0 
L 588 4666 
z
M 1791 3794 
L 1791 2491 
L 2456 2491 
Q 2806 2491 2997 2661 
Q 3188 2831 3188 3144 
Q 3188 3456 2997 3625 
Q 2806 3794 2456 3794 
L 1791 3794 
z
" transform="scale(0.015625)"/>
     <path id="DejaVuSans-Bold-6f" d="M 2203 2784 
Q 1831 2784 1636 2517 
Q 1441 2250 1441 1747 
Q 1441 1244 1636 976 
Q 1831 709 2203 709 
Q 2569 709 2762 976 
Q 2956 1244 2956 1747 
Q 2956 2250 2762 2517 
Q 2569 2784 2203 2784 
z
M 2203 3584 
Q 3106 3584 3614 3096 
Q 4122 2609 4122 1747 
Q 4122 884 3614 396 
Q 3106 -91 2203 -91 
Q 1297 -91 786 396 
Q 275 884 275 1747 
Q 275 2609 786 3096 
Q 1297 3584 2203 3584 
z
" transform="scale(0.015625)"/>
     <path id="DejaVuSans-Bold-6c" d="M 538 4863 
L 1656 4863 
L 1656 0 
L 538 0 
L 538 4863 
z
" transform="scale(0.015625)"/>
     <path id="DejaVuSans-Bold-65" d="M 4031 1759 
L 4031 1441 
L 1416 1441 
Q 1456 1047 1700 850 
Q 1944 653 2381 653 
Q 2734 653 3104 758 
Q 3475 863 3866 1075 
L 3866 213 
Q 3469 63 3072 -14 
Q 2675 -91 2278 -91 
Q 1328 -91 801 392 
Q 275 875 275 1747 
Q 275 2603 792 3093 
Q 1309 3584 2216 3584 
Q 3041 3584 3536 3087 
Q 4031 2591 4031 1759 
z
M 2881 2131 
Q 2881 2450 2695 2645 
Q 2509 2841 2209 2841 
Q 1884 2841 1681 2658 
Q 1478 2475 1428 2131 
L 2881 2131 
z
" transform="scale(0.015625)"/>
     <path id="DejaVuSans-Bold-2d" d="M 347 2297 
L 2309 2297 
L 2309 1388 
L 347 1388 
L 347 2297 
z
" transform="scale(0.015625)"/>
     <path id="DejaVuSans-Bold-76" d="M 97 3500 
L 1216 3500 
L 2088 1081 
L 2956 3500 
L 4078 3500 
L 2700 0 
L 1472 0 
L 97 3500 
z
" transform="scale(0.015625)"/>
     <path id="DejaVuSans-Bold-31" d="M 750 831 
L 1813 831 
L 1813 3847 
L 722 3622 
L 722 4441 
L 1806 4666 
L 2950 4666 
L 2950 831 
L 4013 831 
L 4013 0 
L 750 0 
L 750 831 
z
" transform="scale(0.015625)"/>
     <path id="DejaVuSans-Bold-20" transform="scale(0.015625)"/>
     <path id="DejaVuSans-Bold-28" d="M 2413 -844 
L 1484 -844 
Q 1006 -72 778 623 
Q 550 1319 550 2003 
Q 550 2688 779 3389 
Q 1009 4091 1484 4856 
L 2413 4856 
Q 2013 4116 1813 3408 
Q 1613 2700 1613 2009 
Q 1613 1319 1811 609 
Q 2009 -100 2413 -844 
z
" transform="scale(0.015625)"/>
     <path id="DejaVuSans-Bold-47" d="M 4781 347 
Q 4331 128 3847 18 
Q 3363 -91 2847 -91 
Q 1681 -91 1000 561 
Q 319 1213 319 2328 
Q 319 3456 1012 4103 
Q 1706 4750 2913 4750 
Q 3378 4750 3804 4662 
Q 4231 4575 4609 4403 
L 4609 3438 
Q 4219 3659 3833 3768 
Q 3447 3878 3059 3878 
Q 2341 3878 1952 3476 
Q 1563 3075 1563 2328 
Q 1563 1588 1938 1184 
Q 2313 781 3003 781 
Q 3191 781 3352 804 
Q 3513 828 3641 878 
L 3641 1784 
L 2906 1784 
L 2906 2591 
L 4781 2591 
L 4781 347 
z
" transform="scale(0.015625)"/>
     <path id="DejaVuSans-Bold-4e" d="M 588 4666 
L 1931 4666 
L 3628 1466 
L 3628 4666 
L 4769 4666 
L 4769 0 
L 3425 0 
L 1728 3200 
L 1728 0 
L 588 0 
L 588 4666 
z
" transform="scale(0.015625)"/>
     <path id="DejaVuSans-Bold-29" d="M 513 -844 
Q 913 -100 1113 609 
Q 1313 1319 1313 2009 
Q 1313 2700 1113 3408 
Q 913 4116 513 4856 
L 1441 4856 
Q 1916 4091 2145 3389 
Q 2375 2688 2375 2003 
Q 2375 1319 2147 623 
Q 1919 -72 1441 -844 
L 513 -844 
z
" transform="scale(0.015625)"/>
    </defs>
    <use xlink:href="#DejaVuSans-Bold-43"/>
    <use xlink:href="#DejaVuSans-Bold-61" transform="translate(73.388672 0)"/>
    <use xlink:href="#DejaVuSans-Bold-72" transform="translate(140.869141 0)"/>
    <use xlink:href="#DejaVuSans-Bold-74" transform="translate(190.185547 0)"/>
    <use xlink:href="#DejaVuSans-Bold-50" transform="translate(237.988281 0)"/>
    <use xlink:href="#DejaVuSans-Bold-6f" transform="translate(311.279297 0)"/>
    <use xlink:href="#DejaVuSans-Bold-6c" transform="translate(379.980469 0)"/>
    <use xlink:href="#DejaVuSans-Bold-65" transform="translate(414.257812 0)"/>
    <use xlink:href="#DejaVuSans-Bold-2d" transform="translate(482.080078 0)"/>
    <use xlink:href="#DejaVuSans-Bold-76" transform="translate(523.583984 0)"/>
    <use xlink:href="#DejaVuSans-Bold-31" transform="translate(588.769531 0)"/>
    <use xlink:href="#DejaVuSans-Bold-20" transform="translate(658.349609 0)"/>
    <use xlink:href="#DejaVuSans-Bold-28" transform="translate(693.164062 0)"/>
    <use xlink:href="#DejaVuSans-Bold-47" transform="translate(738.867188 0)"/>
    <use xlink:href="#DejaVuSans-Bold-4e" transform="translate(820.947266 0)"/>
    <use xlink:href="#DejaVuSans-Bold-4e" transform="translate(904.638672 0)"/>
    <use xlink:href="#DejaVuSans-Bold-29" transform="translate(988.330078 0)"/>
   </g>
  </g>
 </g>
 <defs>
  <clipPath id="p724c3b72bf">
   <rect x="62.84" y="38.88" width="570.141429" height="343.24"/>
  </clipPath>
 </defs>
</svg>
