<?xml version="1.0" encoding="utf-8" standalone="no"?>
<!DOCTYPE svg PUBLIC "-//W3C//DTD SVG 1.1//EN"
  "http://www.w3.org/Graphics/SVG/1.1/DTD/svg11.dtd">
<svg xmlns:xlink="http://www.w3.org/1999/xlink" width="648pt" height="432pt" viewBox="0 0 648 432" xmlns="http://www.w3.org/2000/svg" version="1.1">
 <metadata>
  <rdf:RDF xmlns:dc="http://purl.org/dc/elements/1.1/" xmlns:cc="http://creativecommons.org/ns#" xmlns:rdf="http://www.w3.org/1999/02/22-rdf-syntax-ns#">
   <cc:Work>
    <dc:type rdf:resource="http://purl.org/dc/dcmitype/StillImage"/>
    <dc:date>2025-08-04T02:53:28.505512</dc:date>
    <dc:format>image/svg+xml</dc:format>
    <dc:creator>
     <cc:Agent>
      <dc:title>Matplotlib v3.10.0, https://matplotlib.org/</dc:title>
     </cc:Agent>
    </dc:creator>
   </cc:Work>
  </rdf:RDF>
 </metadata>
 <defs>
  <style type="text/css">*{stroke-linejoin: round; stroke-linecap: butt}</style>
 </defs>
 <g id="figure_1">
  <g id="patch_1">
   <path d="M 0 432 
L 648 432 
L 648 0 
L 0 0 
z
" style="fill: #ffffff"/>
  </g>
  <g id="axes_1">
   <g id="patch_2">
    <path d="M 56.23 382.12 
L 632.981429 382.12 
L 632.981429 39.6 
L 56.23 39.6 
z
" style="fill: #eaeaf2"/>
   </g>
   <g id="matplotlib.axis_1">
    <g id="xtick_1">
     <g id="line2d_1">
      <path d="M 67.243713 382.12 
L 67.243713 39.6 
" clip-path="url(#pa370480f53)" style="fill: none; stroke: #ffffff; stroke-width: 0.8; stroke-linecap: round"/>
     </g>
     <g id="text_1">
      <!-- 0 -->
      <g style="fill: #262626" transform="translate(62.789963 399.757812) scale(0.14 -0.14)">
       <defs>
        <path id="DejaVuSans-30" d="M 2034 4250 
Q 1547 4250 1301 3770 
Q 1056 3291 1056 2328 
Q 1056 1369 1301 889 
Q 1547 409 2034 409 
Q 2525 409 2770 889 
Q 3016 1369 3016 2328 
Q 3016 3291 2770 3770 
Q 2525 4250 2034 4250 
z
M 2034 4750 
Q 2819 4750 3233 4129 
Q 3647 3509 3647 2328 
Q 3647 1150 3233 529 
Q 2819 -91 2034 -91 
Q 1250 -91 836 529 
Q 422 1150 422 2328 
Q 422 3509 836 4129 
Q 1250 4750 2034 4750 
z
" transform="scale(0.015625)"/>
       </defs>
       <use xlink:href="#DejaVuSans-30"/>
      </g>
     </g>
    </g>
    <g id="xtick_2">
     <g id="line2d_2">
      <path d="M 250.805593 382.12 
L 250.805593 39.6 
" clip-path="url(#pa370480f53)" style="fill: none; stroke: #ffffff; stroke-width: 0.8; stroke-linecap: round"/>
     </g>
     <g id="text_2">
      <!-- 200k -->
      <g style="fill: #262626" transform="translate(233.390906 399.757812) scale(0.14 -0.14)">
       <defs>
        <path id="DejaVuSans-32" d="M 1228 531 
L 3431 531 
L 3431 0 
L 469 0 
L 469 531 
Q 828 903 1448 1529 
Q 2069 2156 2228 2338 
Q 2531 2678 2651 2914 
Q 2772 3150 2772 3378 
Q 2772 3750 2511 3984 
Q 2250 4219 1831 4219 
Q 1534 4219 1204 4116 
Q 875 4013 500 3803 
L 500 4441 
Q 881 4594 1212 4672 
Q 1544 4750 1819 4750 
Q 2544 4750 2975 4387 
Q 3406 4025 3406 3419 
Q 3406 3131 3298 2873 
Q 3191 2616 2906 2266 
Q 2828 2175 2409 1742 
Q 1991 1309 1228 531 
z
" transform="scale(0.015625)"/>
        <path id="DejaVuSans-6b" d="M 581 4863 
L 1159 4863 
L 1159 1991 
L 2875 3500 
L 3609 3500 
L 1753 1863 
L 3688 0 
L 2938 0 
L 1159 1709 
L 1159 0 
L 581 0 
L 581 4863 
z
" transform="scale(0.015625)"/>
       </defs>
       <use xlink:href="#DejaVuSans-32"/>
       <use xlink:href="#DejaVuSans-30" transform="translate(63.623047 0)"/>
       <use xlink:href="#DejaVuSans-30" transform="translate(127.246094 0)"/>
       <use xlink:href="#DejaVuSans-6b" transform="translate(190.869141 0)"/>
      </g>
     </g>
    </g>
    <g id="xtick_3">
     <g id="line2d_3">
      <path d="M 434.367474 382.12 
L 434.367474 39.6 
" clip-path="url(#pa370480f53)" style="fill: none; stroke: #ffffff; stroke-width: 0.8; stroke-linecap: round"/>
     </g>
     <g id="text_3">
      <!-- 400k -->
      <g style="fill: #262626" transform="translate(416.952787 399.757812) scale(0.14 -0.14)">
       <defs>
        <path id="DejaVuSans-34" d="M 2419 4116 
L 825 1625 
L 2419 1625 
L 2419 4116 
z
M 2253 4666 
L 3047 4666 
L 3047 1625 
L 3713 1625 
L 3713 1100 
L 3047 1100 
L 3047 0 
L 2419 0 
L 2419 1100 
L 313 1100 
L 313 1709 
L 2253 4666 
z
" transform="scale(0.015625)"/>
       </defs>
       <use xlink:href="#DejaVuSans-34"/>
       <use xlink:href="#DejaVuSans-30" transform="translate(63.623047 0)"/>
       <use xlink:href="#DejaVuSans-30" transform="translate(127.246094 0)"/>
       <use xlink:href="#DejaVuSans-6b" transform="translate(190.869141 0)"/>
      </g>
     </g>
    </g>
    <g id="xtick_4">
     <g id="line2d_4">
      <path d="M 617.929355 382.12 
L 617.929355 39.6 
" clip-path="url(#pa370480f53)" style="fill: none; stroke: #ffffff; stroke-width: 0.8; stroke-linecap: round"/>
     </g>
     <g id="text_4">
      <!-- 600k -->
      <g style="fill: #262626" transform="translate(600.514667 399.757812) scale(0.14 -0.14)">
       <defs>
        <path id="DejaVuSans-36" d="M 2113 2584 
Q 1688 2584 1439 2293 
Q 1191 2003 1191 1497 
Q 1191 994 1439 701 
Q 1688 409 2113 409 
Q 2538 409 2786 701 
Q 3034 994 3034 1497 
Q 3034 2003 2786 2293 
Q 2538 2584 2113 2584 
z
M 3366 4563 
L 3366 3988 
Q 3128 4100 2886 4159 
Q 2644 4219 2406 4219 
Q 1781 4219 1451 3797 
Q 1122 3375 1075 2522 
Q 1259 2794 1537 2939 
Q 1816 3084 2150 3084 
Q 2853 3084 3261 2657 
Q 3669 2231 3669 1497 
Q 3669 778 3244 343 
Q 2819 -91 2113 -91 
Q 1303 -91 875 529 
Q 447 1150 447 2328 
Q 447 3434 972 4092 
Q 1497 4750 2381 4750 
Q 2619 4750 2861 4703 
Q 3103 4656 3366 4563 
z
" transform="scale(0.015625)"/>
       </defs>
       <use xlink:href="#DejaVuSans-36"/>
       <use xlink:href="#DejaVuSans-30" transform="translate(63.623047 0)"/>
       <use xlink:href="#DejaVuSans-30" transform="translate(127.246094 0)"/>
       <use xlink:href="#DejaVuSans-6b" transform="translate(190.869141 0)"/>
      </g>
     </g>
    </g>
    <g id="text_5">
     <!-- Steps -->
     <g style="fill: #262626" transform="translate(322.221965 418.826875) scale(0.16 -0.16)">
      <defs>
       <path id="DejaVuSans-53" d="M 3425 4513 
L 3425 3897 
Q 3066 4069 2747 4153 
Q 2428 4238 2131 4238 
Q 1616 4238 1336 4038 
Q 1056 3838 1056 3469 
Q 1056 3159 1242 3001 
Q 1428 2844 1947 2747 
L 2328 2669 
Q 3034 2534 3370 2195 
Q 3706 1856 3706 1288 
Q 3706 609 3251 259 
Q 2797 -91 1919 -91 
Q 1588 -91 1214 -16 
Q 841 59 441 206 
L 441 856 
Q 825 641 1194 531 
Q 1563 422 1919 422 
Q 2459 422 2753 634 
Q 3047 847 3047 1241 
Q 3047 1584 2836 1778 
Q 2625 1972 2144 2069 
L 1759 2144 
Q 1053 2284 737 2584 
Q 422 2884 422 3419 
Q 422 4038 858 4394 
Q 1294 4750 2059 4750 
Q 2388 4750 2728 4690 
Q 3069 4631 3425 4513 
z
" transform="scale(0.015625)"/>
       <path id="DejaVuSans-74" d="M 1172 4494 
L 1172 3500 
L 2356 3500 
L 2356 3053 
L 1172 3053 
L 1172 1153 
Q 1172 725 1289 603 
Q 1406 481 1766 481 
L 2356 481 
L 2356 0 
L 1766 0 
Q 1100 0 847 248 
Q 594 497 594 1153 
L 594 3053 
L 172 3053 
L 172 3500 
L 594 3500 
L 594 4494 
L 1172 4494 
z
" transform="scale(0.015625)"/>
       <path id="DejaVuSans-65" d="M 3597 1894 
L 3597 1613 
L 953 1613 
Q 991 1019 1311 708 
Q 1631 397 2203 397 
Q 2534 397 2845 478 
Q 3156 559 3463 722 
L 3463 178 
Q 3153 47 2828 -22 
Q 2503 -91 2169 -91 
Q 1331 -91 842 396 
Q 353 884 353 1716 
Q 353 2575 817 3079 
Q 1281 3584 2069 3584 
Q 2775 3584 3186 3129 
Q 3597 2675 3597 1894 
z
M 3022 2063 
Q 3016 2534 2758 2815 
Q 2500 3097 2075 3097 
Q 1594 3097 1305 2825 
Q 1016 2553 972 2059 
L 3022 2063 
z
" transform="scale(0.015625)"/>
       <path id="DejaVuSans-70" d="M 1159 525 
L 1159 -1331 
L 581 -1331 
L 581 3500 
L 1159 3500 
L 1159 2969 
Q 1341 3281 1617 3432 
Q 1894 3584 2278 3584 
Q 2916 3584 3314 3078 
Q 3713 2572 3713 1747 
Q 3713 922 3314 415 
Q 2916 -91 2278 -91 
Q 1894 -91 1617 61 
Q 1341 213 1159 525 
z
M 3116 1747 
Q 3116 2381 2855 2742 
Q 2594 3103 2138 3103 
Q 1681 3103 1420 2742 
Q 1159 2381 1159 1747 
Q 1159 1113 1420 752 
Q 1681 391 2138 391 
Q 2594 391 2855 752 
Q 3116 1113 3116 1747 
z
" transform="scale(0.015625)"/>
       <path id="DejaVuSans-73" d="M 2834 3397 
L 2834 2853 
Q 2591 2978 2328 3040 
Q 2066 3103 1784 3103 
Q 1356 3103 1142 2972 
Q 928 2841 928 2578 
Q 928 2378 1081 2264 
Q 1234 2150 1697 2047 
L 1894 2003 
Q 2506 1872 2764 1633 
Q 3022 1394 3022 966 
Q 3022 478 2636 193 
Q 2250 -91 1575 -91 
Q 1294 -91 989 -36 
Q 684 19 347 128 
L 347 722 
Q 666 556 975 473 
Q 1284 391 1588 391 
Q 1994 391 2212 530 
Q 2431 669 2431 922 
Q 2431 1156 2273 1281 
Q 2116 1406 1581 1522 
L 1381 1569 
Q 847 1681 609 1914 
Q 372 2147 372 2553 
Q 372 3047 722 3315 
Q 1072 3584 1716 3584 
Q 2034 3584 2315 3537 
Q 2597 3491 2834 3397 
z
" transform="scale(0.015625)"/>
      </defs>
      <use xlink:href="#DejaVuSans-53"/>
      <use xlink:href="#DejaVuSans-74" transform="translate(63.476562 0)"/>
      <use xlink:href="#DejaVuSans-65" transform="translate(102.685547 0)"/>
      <use xlink:href="#DejaVuSans-70" transform="translate(164.208984 0)"/>
      <use xlink:href="#DejaVuSans-73" transform="translate(227.685547 0)"/>
     </g>
    </g>
   </g>
   <g id="matplotlib.axis_2">
    <g id="ytick_1">
     <g id="line2d_5">
      <path d="M 56.23 372.426038 
L 632.981429 372.426038 
" clip-path="url(#pa370480f53)" style="fill: none; stroke: #ffffff; stroke-width: 0.8; stroke-linecap: round"/>
     </g>
     <g id="text_6">
      <!-- −500 -->
      <g style="fill: #262626" transform="translate(10.775938 377.744944) scale(0.14 -0.14)">
       <defs>
        <path id="DejaVuSans-2212" d="M 678 2272 
L 4684 2272 
L 4684 1741 
L 678 1741 
L 678 2272 
z
" transform="scale(0.015625)"/>
        <path id="DejaVuSans-35" d="M 691 4666 
L 3169 4666 
L 3169 4134 
L 1269 4134 
L 1269 2991 
Q 1406 3038 1543 3061 
Q 1681 3084 1819 3084 
Q 2600 3084 3056 2656 
Q 3513 2228 3513 1497 
Q 3513 744 3044 326 
Q 2575 -91 1722 -91 
Q 1428 -91 1123 -41 
Q 819 9 494 109 
L 494 744 
Q 775 591 1075 516 
Q 1375 441 1709 441 
Q 2250 441 2565 725 
Q 2881 1009 2881 1497 
Q 2881 1984 2565 2268 
Q 2250 2553 1709 2553 
Q 1456 2553 1204 2497 
Q 953 2441 691 2322 
L 691 4666 
z
" transform="scale(0.015625)"/>
       </defs>
       <use xlink:href="#DejaVuSans-2212"/>
       <use xlink:href="#DejaVuSans-35" transform="translate(83.789062 0)"/>
       <use xlink:href="#DejaVuSans-30" transform="translate(147.412109 0)"/>
       <use xlink:href="#DejaVuSans-30" transform="translate(211.035156 0)"/>
      </g>
     </g>
    </g>
    <g id="ytick_2">
     <g id="line2d_6">
      <path d="M 56.23 307.799623 
L 632.981429 307.799623 
" clip-path="url(#pa370480f53)" style="fill: none; stroke: #ffffff; stroke-width: 0.8; stroke-linecap: round"/>
     </g>
     <g id="text_7">
      <!-- −400 -->
      <g style="fill: #262626" transform="translate(10.775938 313.118529) scale(0.14 -0.14)">
       <use xlink:href="#DejaVuSans-2212"/>
       <use xlink:href="#DejaVuSans-34" transform="translate(83.789062 0)"/>
       <use xlink:href="#DejaVuSans-30" transform="translate(147.412109 0)"/>
       <use xlink:href="#DejaVuSans-30" transform="translate(211.035156 0)"/>
      </g>
     </g>
    </g>
    <g id="ytick_3">
     <g id="line2d_7">
      <path d="M 56.23 243.173208 
L 632.981429 243.173208 
" clip-path="url(#pa370480f53)" style="fill: none; stroke: #ffffff; stroke-width: 0.8; stroke-linecap: round"/>
     </g>
     <g id="text_8">
      <!-- −300 -->
      <g style="fill: #262626" transform="translate(10.775938 248.492114) scale(0.14 -0.14)">
       <defs>
        <path id="DejaVuSans-33" d="M 2597 2516 
Q 3050 2419 3304 2112 
Q 3559 1806 3559 1356 
Q 3559 666 3084 287 
Q 2609 -91 1734 -91 
Q 1441 -91 1130 -33 
Q 819 25 488 141 
L 488 750 
Q 750 597 1062 519 
Q 1375 441 1716 441 
Q 2309 441 2620 675 
Q 2931 909 2931 1356 
Q 2931 1769 2642 2001 
Q 2353 2234 1838 2234 
L 1294 2234 
L 1294 2753 
L 1863 2753 
Q 2328 2753 2575 2939 
Q 2822 3125 2822 3475 
Q 2822 3834 2567 4026 
Q 2313 4219 1838 4219 
Q 1578 4219 1281 4162 
Q 984 4106 628 3988 
L 628 4550 
Q 988 4650 1302 4700 
Q 1616 4750 1894 4750 
Q 2613 4750 3031 4423 
Q 3450 4097 3450 3541 
Q 3450 3153 3228 2886 
Q 3006 2619 2597 2516 
z
" transform="scale(0.015625)"/>
       </defs>
       <use xlink:href="#DejaVuSans-2212"/>
       <use xlink:href="#DejaVuSans-33" transform="translate(83.789062 0)"/>
       <use xlink:href="#DejaVuSans-30" transform="translate(147.412109 0)"/>
       <use xlink:href="#DejaVuSans-30" transform="translate(211.035156 0)"/>
      </g>
     </g>
    </g>
    <g id="ytick_4">
     <g id="line2d_8">
      <path d="M 56.23 178.546792 
L 632.981429 178.546792 
" clip-path="url(#pa370480f53)" style="fill: none; stroke: #ffffff; stroke-width: 0.8; stroke-linecap: round"/>
     </g>
     <g id="text_9">
      <!-- −200 -->
      <g style="fill: #262626" transform="translate(10.775938 183.865699) scale(0.14 -0.14)">
       <use xlink:href="#DejaVuSans-2212"/>
       <use xlink:href="#DejaVuSans-32" transform="translate(83.789062 0)"/>
       <use xlink:href="#DejaVuSans-30" transform="translate(147.412109 0)"/>
       <use xlink:href="#DejaVuSans-30" transform="translate(211.035156 0)"/>
      </g>
     </g>
    </g>
    <g id="ytick_5">
     <g id="line2d_9">
      <path d="M 56.23 113.920377 
L 632.981429 113.920377 
" clip-path="url(#pa370480f53)" style="fill: none; stroke: #ffffff; stroke-width: 0.8; stroke-linecap: round"/>
     </g>
     <g id="text_10">
      <!-- −100 -->
      <g style="fill: #262626" transform="translate(10.775938 119.239284) scale(0.14 -0.14)">
       <defs>
        <path id="DejaVuSans-31" d="M 794 531 
L 1825 531 
L 1825 4091 
L 703 3866 
L 703 4441 
L 1819 4666 
L 2450 4666 
L 2450 531 
L 3481 531 
L 3481 0 
L 794 0 
L 794 531 
z
" transform="scale(0.015625)"/>
       </defs>
       <use xlink:href="#DejaVuSans-2212"/>
       <use xlink:href="#DejaVuSans-31" transform="translate(83.789062 0)"/>
       <use xlink:href="#DejaVuSans-30" transform="translate(147.412109 0)"/>
       <use xlink:href="#DejaVuSans-30" transform="translate(211.035156 0)"/>
      </g>
     </g>
    </g>
    <g id="ytick_6">
     <g id="line2d_10">
      <path d="M 56.23 49.293962 
L 632.981429 49.293962 
" clip-path="url(#pa370480f53)" style="fill: none; stroke: #ffffff; stroke-width: 0.8; stroke-linecap: round"/>
     </g>
     <g id="text_11">
      <!-- 0 -->
      <g style="fill: #262626" transform="translate(40.3225 54.612869) scale(0.14 -0.14)">
       <use xlink:href="#DejaVuSans-30"/>
      </g>
     </g>
    </g>
   </g>
   <g id="line2d_11">
    <path d="M 67.243713 347.356243 
L 72.882734 320.742804 
L 78.521755 297.04458 
L 84.160776 282.480463 
L 89.799797 269.692547 
L 95.438818 264.335366 
L 101.077839 261.857036 
L 106.71686 254.267613 
L 112.355881 245.603834 
L 117.994902 241.475904 
L 123.633923 238.50322 
L 129.272944 235.746056 
L 134.911965 229.685381 
L 140.550985 224.946028 
L 146.190006 225.687353 
L 151.829027 228.110787 
L 157.468048 226.095932 
L 163.107069 223.293082 
L 168.74609 218.890034 
L 174.385111 216.920747 
L 180.024132 216.621886 
L 185.663153 213.573269 
L 191.302174 213.340225 
L 196.941195 215.230207 
L 202.580216 214.132612 
L 208.219237 212.640614 
L 213.858258 210.275746 
L 219.497279 207.717787 
L 225.1363 203.533632 
L 230.775321 201.661856 
L 236.414342 196.693138 
L 242.053363 192.000126 
L 247.692384 192.477901 
L 253.331405 191.40112 
L 258.970426 186.115157 
L 264.609447 184.482288 
L 270.248468 184.503233 
L 275.887489 184.408689 
L 281.52651 180.503095 
L 287.165531 171.62551 
L 292.804552 165.423719 
L 298.443573 160.99941 
L 304.082594 157.14807 
L 309.721615 156.008539 
L 315.360636 154.113419 
L 320.999657 151.795256 
L 326.638678 147.822366 
L 332.277699 141.300103 
L 337.91672 135.027144 
L 343.555741 129.39385 
L 349.194762 126.452736 
L 354.833783 126.654018 
L 360.472803 127.035221 
L 366.111824 125.55196 
L 371.750845 126.685299 
L 377.389866 128.424317 
L 383.028887 126.101624 
L 388.667908 130.176187 
L 394.306929 122.375213 
L 399.94595 118.807558 
L 405.584971 122.053809 
L 411.223992 117.979649 
L 416.863013 117.95226 
L 422.502034 117.619446 
L 428.141055 117.426529 
L 433.780076 116.263531 
L 439.419097 114.353609 
L 445.058118 116.68845 
L 450.697139 117.174163 
L 456.33616 119.259709 
L 461.975181 119.094935 
L 467.614202 118.036618 
L 473.253223 120.500184 
L 478.892244 118.70202 
L 484.531265 118.7678 
L 490.170286 121.011413 
L 495.809307 120.102348 
L 501.448328 115.685739 
L 507.087349 118.66247 
L 512.72637 118.061286 
L 518.365391 113.84725 
L 524.004412 113.743407 
L 529.643433 115.571448 
L 535.282454 114.212193 
L 540.921475 113.638082 
L 546.560496 115.427923 
L 552.199517 115.399212 
L 557.838538 114.995274 
L 563.477559 119.90305 
L 569.11658 117.861166 
L 574.7556 113.635038 
L 580.394621 115.372212 
L 586.033642 118.312735 
L 591.672663 117.160415 
L 597.311684 116.962073 
L 602.950705 112.851873 
L 608.589726 112.195601 
L 614.228747 111.02305 
L 619.867768 113.033891 
L 625.506789 110.551357 
" clip-path="url(#pa370480f53)" style="fill: none; stroke: #023eff; stroke-width: 2; stroke-linecap: round"/>
   </g>
   <g id="line2d_12">
    <path d="M 67.243713 348.553641 
L 72.882734 322.826838 
L 78.521755 300.516923 
L 84.160776 285.940761 
L 89.799797 279.38751 
L 95.438818 275.508575 
L 101.077839 272.576667 
L 106.71686 271.311142 
L 112.355881 270.103076 
L 117.994902 268.556958 
L 123.633923 261.556735 
L 129.272944 248.721339 
L 134.911965 242.840181 
L 140.550985 236.139307 
L 146.190006 229.620451 
L 151.829027 223.840291 
L 157.468048 222.065458 
L 163.107069 221.146008 
L 168.74609 218.264314 
L 174.385111 216.441881 
L 180.024132 216.170557 
L 185.663153 215.762644 
L 191.302174 215.293104 
L 196.941195 213.82424 
L 202.580216 212.520321 
L 208.219237 212.349935 
L 213.858258 211.864805 
L 219.497279 211.991184 
L 225.1363 212.183936 
L 230.775321 210.681025 
L 236.414342 210.081929 
L 242.053363 210.482259 
L 247.692384 210.504894 
L 253.331405 211.05885 
L 258.970426 210.675965 
L 264.609447 210.336941 
L 270.248468 210.804325 
L 275.887489 211.121312 
L 281.52651 209.369741 
L 287.165531 208.699955 
L 292.804552 206.914322 
L 298.443573 198.682573 
L 304.082594 190.67464 
L 309.721615 189.905421 
L 315.360636 188.45053 
L 320.999657 181.643772 
L 326.638678 175.000851 
L 332.277699 172.234513 
L 337.91672 165.552631 
L 343.555741 160.961496 
L 349.194762 160.13092 
L 354.833783 150.764139 
L 360.472803 145.808886 
L 366.111824 151.911529 
L 371.750845 148.623791 
L 377.389866 146.034157 
L 383.028887 150.956934 
L 388.667908 151.221247 
L 394.306929 148.857356 
L 399.94595 142.204301 
L 405.584971 139.651993 
L 411.223992 140.662316 
L 416.863013 134.538856 
L 422.502034 128.34911 
L 428.141055 124.53028 
L 433.780076 125.675275 
L 439.419097 123.924834 
L 445.058118 118.285059 
L 450.697139 116.291085 
L 456.33616 118.334259 
L 461.975181 119.349099 
L 467.614202 116.71294 
L 473.253223 118.072845 
L 478.892244 119.105894 
L 484.531265 120.492641 
L 490.170286 121.110404 
L 495.809307 118.758154 
L 501.448328 119.917343 
L 507.087349 118.837791 
L 512.72637 124.759704 
L 518.365391 124.745687 
L 524.004412 120.41152 
L 529.643433 124.97747 
L 535.282454 126.275839 
L 540.921475 122.456869 
L 546.560496 115.886478 
L 552.199517 114.199829 
L 557.838538 112.874333 
L 563.477559 109.049423 
L 569.11658 107.404623 
L 574.7556 108.361765 
L 580.394621 105.612865 
L 586.033642 105.821131 
L 591.672663 107.771599 
L 597.311684 108.578622 
L 602.950705 112.380798 
L 608.589726 109.393579 
L 614.228747 107.063883 
L 619.867768 109.608769 
L 625.506789 104.436559 
" clip-path="url(#pa370480f53)" style="fill: none; stroke: #ff7c00; stroke-width: 2; stroke-linecap: round"/>
   </g>
   <g id="line2d_13">
    <path d="M 67.243713 351.257106 
L 72.882734 334.599502 
L 78.521755 313.666073 
L 84.160776 303.858691 
L 89.799797 301.118995 
L 95.438818 296.959955 
L 101.077839 290.665566 
L 106.71686 285.453978 
L 112.355881 282.017429 
L 117.994902 279.76392 
L 123.633923 278.121879 
L 129.272944 277.492766 
L 134.911965 276.16796 
L 140.550985 276.521291 
L 146.190006 277.806967 
L 151.829027 275.423562 
L 157.468048 275.79153 
L 163.107069 279.945979 
L 168.74609 277.490692 
L 174.385111 273.804661 
L 180.024132 271.063177 
L 185.663153 269.442386 
L 191.302174 269.392367 
L 196.941195 267.458466 
L 202.580216 265.440597 
L 208.219237 263.159721 
L 213.858258 261.137731 
L 219.497279 256.971281 
L 225.1363 247.615496 
L 230.775321 238.815584 
L 236.414342 232.327068 
L 242.053363 223.03446 
L 247.692384 205.499852 
L 253.331405 189.684679 
L 258.970426 177.138624 
L 264.609447 173.565878 
L 270.248468 169.014656 
L 275.887489 164.009407 
L 281.52651 151.620677 
L 287.165531 146.677233 
L 292.804552 141.697396 
L 298.443573 131.187317 
L 304.082594 122.006307 
L 309.721615 124.357052 
L 315.360636 129.080694 
L 320.999657 130.539409 
L 326.638678 125.691906 
L 332.277699 120.912084 
L 337.91672 117.592551 
L 343.555741 117.096086 
L 349.194762 112.248932 
L 354.833783 111.536734 
L 360.472803 111.389871 
L 366.111824 110.540898 
L 371.750845 108.598771 
L 377.389866 108.20347 
L 383.028887 109.776833 
L 388.667908 106.711657 
L 394.306929 106.589138 
L 399.94595 106.903275 
L 405.584971 103.68411 
L 411.223992 102.176929 
L 416.863013 105.114061 
L 422.502034 109.200179 
L 428.141055 109.606061 
L 433.780076 116.429339 
L 439.419097 113.474533 
L 445.058118 107.154842 
L 450.697139 102.737216 
L 456.33616 101.677757 
L 461.975181 102.046095 
L 467.614202 101.789668 
L 473.253223 101.697466 
L 478.892244 102.305805 
L 484.531265 103.784634 
L 490.170286 105.727959 
L 495.809307 108.611725 
L 501.448328 108.039212 
L 507.087349 107.390865 
L 512.72637 104.616125 
L 518.365391 101.266022 
L 524.004412 101.674389 
L 529.643433 102.201198 
L 535.282454 102.084579 
L 540.921475 101.692836 
L 546.560496 101.258038 
L 552.199517 101.206119 
L 557.838538 101.861627 
L 563.477559 103.954107 
L 569.11658 104.456052 
L 574.7556 103.320985 
L 580.394621 102.877569 
L 586.033642 102.31666 
L 591.672663 102.406878 
L 597.311684 103.084628 
L 602.950705 105.686288 
L 608.589726 111.604952 
L 614.228747 110.164034 
L 619.867768 107.092117 
L 625.506789 106.501565 
" clip-path="url(#pa370480f53)" style="fill: none; stroke: #1ac938; stroke-width: 2; stroke-linecap: round"/>
   </g>
   <g id="line2d_14">
    <path d="M 67.243713 356.991792 
L 72.882734 349.758051 
L 78.521755 338.553747 
L 84.160776 319.673285 
L 89.799797 307.27022 
L 95.438818 299.866983 
L 101.077839 284.271889 
L 106.71686 277.021329 
L 112.355881 265.7156 
L 117.994902 255.789226 
L 123.633923 248.526476 
L 129.272944 241.465605 
L 134.911965 234.695462 
L 140.550985 229.938408 
L 146.190006 225.135186 
L 151.829027 220.53399 
L 157.468048 216.239553 
L 163.107069 215.224942 
L 168.74609 214.743372 
L 174.385111 213.353637 
L 180.024132 214.577085 
L 185.663153 216.855633 
L 191.302174 217.844995 
L 196.941195 217.476127 
L 202.580216 210.185159 
L 208.219237 202.348778 
L 213.858258 201.43046 
L 219.497279 199.240206 
L 225.1363 196.719982 
L 230.775321 194.97919 
L 236.414342 191.092221 
L 242.053363 196.226103 
L 247.692384 193.763174 
L 253.331405 189.469823 
L 258.970426 187.346296 
L 264.609447 181.577961 
L 270.248468 178.321094 
L 275.887489 181.67745 
L 281.52651 181.195412 
L 287.165531 179.436137 
L 292.804552 180.88276 
L 298.443573 184.495781 
L 304.082594 180.575258 
L 309.721615 177.871827 
L 315.360636 179.085068 
L 320.999657 176.280132 
L 326.638678 174.871562 
L 332.277699 176.003391 
L 337.91672 170.776696 
L 343.555741 169.224272 
L 349.194762 172.596784 
L 354.833783 173.53076 
L 360.472803 171.884336 
L 366.111824 167.040406 
L 371.750845 164.187287 
L 377.389866 167.067958 
L 383.028887 165.786292 
L 388.667908 165.961 
L 394.306929 162.175453 
L 399.94595 158.588517 
L 405.584971 155.305858 
L 411.223992 143.993085 
L 416.863013 137.787367 
L 422.502034 132.221171 
L 428.141055 129.170624 
L 433.780076 126.783356 
L 439.419097 124.900974 
L 445.058118 121.079928 
L 450.697139 125.755094 
L 456.33616 127.551032 
L 461.975181 127.533583 
L 467.614202 129.898838 
L 473.253223 126.478552 
L 478.892244 123.700722 
L 484.531265 124.587713 
L 490.170286 127.119141 
L 495.809307 130.508502 
L 501.448328 128.198167 
L 507.087349 130.438904 
L 512.72637 134.531498 
L 518.365391 130.181421 
L 524.004412 123.362538 
L 529.643433 119.877382 
L 535.282454 119.593763 
L 540.921475 119.645808 
L 546.560496 119.803854 
L 552.199517 115.818884 
L 557.838538 114.739284 
L 563.477559 117.007417 
L 569.11658 119.960854 
L 574.7556 123.757777 
L 580.394621 125.344593 
L 586.033642 122.874619 
L 591.672663 118.352877 
L 597.311684 119.361871 
L 602.950705 115.450681 
L 608.589726 116.276017 
L 614.228747 121.767729 
L 619.867768 126.976036 
L 625.506789 128.255077 
" clip-path="url(#pa370480f53)" style="fill: none; stroke: #e8000b; stroke-width: 2; stroke-linecap: round"/>
   </g>
   <g id="line2d_15">
    <path d="M 67.243713 342.37623 
L 72.882734 313.128399 
L 78.521755 279.5714 
L 84.160776 260.941223 
L 89.799797 265.77151 
L 95.438818 266.04996 
L 101.077839 260.520721 
L 106.71686 260.628677 
L 112.355881 261.947255 
L 117.994902 259.538287 
L 123.633923 258.648414 
L 129.272944 254.13425 
L 134.911965 252.772225 
L 140.550985 252.489367 
L 146.190006 246.567823 
L 151.829027 236.155403 
L 157.468048 224.293548 
L 163.107069 216.79235 
L 168.74609 207.125791 
L 174.385111 199.683188 
L 180.024132 199.853777 
L 185.663153 192.422548 
L 191.302174 185.869411 
L 196.941195 181.365266 
L 202.580216 175.74454 
L 208.219237 167.745261 
L 213.858258 162.859443 
L 219.497279 159.460923 
L 225.1363 157.651795 
L 230.775321 153.322117 
L 236.414342 146.709198 
L 242.053363 142.630694 
L 247.692384 133.34577 
L 253.331405 128.393966 
L 258.970426 127.185557 
L 264.609447 127.374808 
L 270.248468 125.564878 
L 275.887489 122.301418 
L 281.52651 118.941268 
L 287.165531 117.364788 
L 292.804552 114.190725 
L 298.443573 112.962499 
L 304.082594 111.257946 
L 309.721615 109.508153 
L 315.360636 107.586692 
L 320.999657 107.6935 
L 326.638678 106.781498 
L 332.277699 106.82447 
L 337.91672 106.053788 
L 343.555741 105.965141 
L 349.194762 104.401106 
L 354.833783 103.3913 
L 360.472803 104.547434 
L 366.111824 106.486697 
L 371.750845 107.458821 
L 377.389866 106.945474 
L 383.028887 103.83542 
L 388.667908 103.546636 
L 394.306929 105.354371 
L 399.94595 105.481654 
L 405.584971 104.286627 
L 411.223992 103.440524 
L 416.863013 101.059288 
L 422.502034 101.736336 
L 428.141055 102.152612 
L 433.780076 101.393561 
L 439.419097 102.603175 
L 445.058118 106.269575 
L 450.697139 105.262608 
L 456.33616 104.696795 
L 461.975181 104.266625 
L 467.614202 105.332217 
L 473.253223 105.011606 
L 478.892244 102.522437 
L 484.531265 102.104693 
L 490.170286 102.276615 
L 495.809307 103.080338 
L 501.448328 104.367448 
L 507.087349 103.184462 
L 512.72637 102.684636 
L 518.365391 104.18948 
L 524.004412 106.105284 
L 529.643433 105.262561 
L 535.282454 103.408815 
L 540.921475 102.907867 
L 546.560496 103.927261 
L 552.199517 104.063338 
L 557.838538 103.317998 
L 563.477559 104.679844 
L 569.11658 103.858012 
L 574.7556 102.373372 
L 580.394621 102.623615 
L 586.033642 101.29248 
L 591.672663 101.388809 
L 597.311684 102.53701 
L 602.950705 101.995267 
L 608.589726 101.755604 
L 614.228747 102.439649 
L 619.867768 103.298594 
L 625.506789 103.204995 
" clip-path="url(#pa370480f53)" style="fill: none; stroke: #8b2be2; stroke-width: 2; stroke-linecap: round"/>
   </g>
   <g id="line2d_16">
    <path d="M 67.243713 348.618407 
L 72.882734 334.309076 
L 78.521755 329.083964 
L 84.160776 322.51721 
L 89.799797 312.595472 
L 95.438818 304.433298 
L 101.077839 291.726207 
L 106.71686 270.704727 
L 112.355881 249.703344 
L 117.994902 247.171393 
L 123.633923 244.396061 
L 129.272944 237.706535 
L 134.911965 231.682858 
L 140.550985 228.120993 
L 146.190006 225.103664 
L 151.829027 213.46658 
L 157.468048 197.848776 
L 163.107069 190.497513 
L 168.74609 185.853732 
L 174.385111 181.204069 
L 180.024132 176.681198 
L 185.663153 174.273465 
L 191.302174 172.203116 
L 196.941195 166.187485 
L 202.580216 163.140428 
L 208.219237 161.398112 
L 213.858258 160.694671 
L 219.497279 159.619107 
L 225.1363 157.706577 
L 230.775321 150.323605 
L 236.414342 142.756552 
L 242.053363 136.040973 
L 247.692384 129.745457 
L 253.331405 129.397857 
L 258.970426 130.05516 
L 264.609447 124.455363 
L 270.248468 119.207574 
L 275.887489 118.609646 
L 281.52651 115.804337 
L 287.165531 110.962767 
L 292.804552 108.804445 
L 298.443573 107.365456 
L 304.082594 106.592975 
L 309.721615 103.373268 
L 315.360636 103.335396 
L 320.999657 106.704451 
L 326.638678 104.866397 
L 332.277699 104.235321 
L 337.91672 103.859032 
L 343.555741 103.945842 
L 349.194762 103.638888 
L 354.833783 104.749392 
L 360.472803 104.017579 
L 366.111824 103.78176 
L 371.750845 104.898357 
L 377.389866 104.572618 
L 383.028887 103.588196 
L 388.667908 104.02364 
L 394.306929 105.669828 
L 399.94595 103.873068 
L 405.584971 102.460058 
L 411.223992 101.461257 
L 416.863013 102.831173 
L 422.502034 103.539125 
L 428.141055 104.239964 
L 433.780076 104.087074 
L 439.419097 102.671811 
L 445.058118 102.478855 
L 450.697139 102.892775 
L 456.33616 103.051549 
L 461.975181 103.753232 
L 467.614202 104.380371 
L 473.253223 105.661676 
L 478.892244 105.72163 
L 484.531265 106.629447 
L 490.170286 104.001521 
L 495.809307 102.112298 
L 501.448328 101.301252 
L 507.087349 102.437066 
L 512.72637 102.244622 
L 518.365391 102.276229 
L 524.004412 101.160608 
L 529.643433 101.619162 
L 535.282454 105.961661 
L 540.921475 103.776988 
L 546.560496 102.016584 
L 552.199517 102.17194 
L 557.838538 101.711144 
L 563.477559 103.453263 
L 569.11658 103.151518 
L 574.7556 102.518271 
L 580.394621 103.01162 
L 586.033642 102.471966 
L 591.672663 101.25738 
L 597.311684 102.504371 
L 602.950705 103.221472 
L 608.589726 100.898816 
L 614.228747 99.525593 
L 619.867768 99.367358 
L 625.506789 100.079177 
" clip-path="url(#pa370480f53)" style="fill: none; stroke: #9f4800; stroke-width: 2; stroke-linecap: round"/>
   </g>
   <g id="line2d_17">
    <path d="M 67.243713 350.097366 
L 72.882734 342.407573 
L 78.521755 337.850926 
L 84.160776 326.818177 
L 89.799797 308.378525 
L 95.438818 283.178974 
L 101.077839 268.674235 
L 106.71686 259.080322 
L 112.355881 254.646129 
L 117.994902 247.620154 
L 123.633923 240.739824 
L 129.272944 234.603028 
L 134.911965 228.969642 
L 140.550985 226.082758 
L 146.190006 230.598273 
L 151.829027 238.513144 
L 157.468048 240.900254 
L 163.107069 239.360865 
L 168.74609 233.921537 
L 174.385111 220.873296 
L 180.024132 214.335221 
L 185.663153 212.88843 
L 191.302174 211.595987 
L 196.941195 211.445745 
L 202.580216 212.912938 
L 208.219237 212.182374 
L 213.858258 208.932449 
L 219.497279 206.993459 
L 225.1363 204.041088 
L 230.775321 199.042768 
L 236.414342 190.519573 
L 242.053363 183.009201 
L 247.692384 177.098126 
L 253.331405 170.425356 
L 258.970426 165.521581 
L 264.609447 164.255645 
L 270.248468 164.079386 
L 275.887489 161.779709 
L 281.52651 159.72377 
L 287.165531 158.400899 
L 292.804552 158.068821 
L 298.443573 159.24089 
L 304.082594 158.551819 
L 309.721615 157.357433 
L 315.360636 158.242772 
L 320.999657 157.812313 
L 326.638678 158.724796 
L 332.277699 158.105299 
L 337.91672 158.49417 
L 343.555741 158.795866 
L 349.194762 156.844476 
L 354.833783 155.861303 
L 360.472803 157.526398 
L 366.111824 156.157693 
L 371.750845 154.72457 
L 377.389866 154.569306 
L 383.028887 155.386157 
L 388.667908 156.147341 
L 394.306929 156.140022 
L 399.94595 156.407868 
L 405.584971 157.267958 
L 411.223992 158.218322 
L 416.863013 157.636096 
L 422.502034 157.942018 
L 428.141055 156.190783 
L 433.780076 156.423295 
L 439.419097 157.141336 
L 445.058118 157.405154 
L 450.697139 156.30967 
L 456.33616 154.884458 
L 461.975181 154.906151 
L 467.614202 156.4307 
L 473.253223 156.486115 
L 478.892244 156.142125 
L 484.531265 156.423681 
L 490.170286 157.839005 
L 495.809307 158.545444 
L 501.448328 157.534299 
L 507.087349 157.687247 
L 512.72637 158.715956 
L 518.365391 156.620665 
L 524.004412 156.374934 
L 529.643433 154.864168 
L 535.282454 153.906741 
L 540.921475 154.033344 
L 546.560496 155.133691 
L 552.199517 155.428685 
L 557.838538 155.54692 
L 563.477559 155.284454 
L 569.11658 156.19056 
L 574.7556 156.747117 
L 580.394621 156.397275 
L 586.033642 155.902392 
L 591.672663 155.347653 
L 597.311684 155.289155 
L 602.950705 156.220146 
L 608.589726 155.635486 
L 614.228747 156.814732 
L 619.867768 156.013751 
L 625.506789 154.770166 
" clip-path="url(#pa370480f53)" style="fill: none; stroke: #f14cc1; stroke-width: 2; stroke-linecap: round"/>
   </g>
   <g id="line2d_18">
    <path d="M 67.243713 350.01252 
L 72.882734 319.791041 
L 78.521755 288.400391 
L 84.160776 270.431355 
L 89.799797 265.530423 
L 95.438818 260.563394 
L 101.077839 252.436372 
L 106.71686 246.945553 
L 112.355881 244.411684 
L 117.994902 241.757307 
L 123.633923 239.252551 
L 129.272944 232.658706 
L 134.911965 226.483853 
L 140.550985 222.954602 
L 146.190006 219.923221 
L 151.829027 217.084943 
L 157.468048 216.239255 
L 163.107069 216.788375 
L 168.74609 215.245643 
L 174.385111 213.855551 
L 180.024132 212.967972 
L 185.663153 213.022484 
L 191.302174 212.332951 
L 196.941195 211.765418 
L 202.580216 211.559774 
L 208.219237 211.503316 
L 213.858258 211.745181 
L 219.497279 211.264199 
L 225.1363 212.294495 
L 230.775321 212.791324 
L 236.414342 213.014776 
L 242.053363 211.983326 
L 247.692384 210.912349 
L 253.331405 211.026822 
L 258.970426 211.581128 
L 264.609447 210.973349 
L 270.248468 210.555933 
L 275.887489 209.898834 
L 281.52651 210.327419 
L 287.165531 208.506907 
L 292.804552 205.966587 
L 298.443573 204.976556 
L 304.082594 192.029262 
L 309.721615 174.882836 
L 315.360636 164.097081 
L 320.999657 164.560196 
L 326.638678 161.957693 
L 332.277699 157.011136 
L 337.91672 155.955476 
L 343.555741 156.521873 
L 349.194762 156.197173 
L 354.833783 151.632043 
L 360.472803 149.076114 
L 366.111824 147.63536 
L 371.750845 142.950396 
L 377.389866 140.836186 
L 383.028887 140.308147 
L 388.667908 132.288363 
L 394.306929 122.801795 
L 399.94595 121.713353 
L 405.584971 123.034738 
L 411.223992 124.727948 
L 416.863013 128.744276 
L 422.502034 130.239656 
L 428.141055 126.748183 
L 433.780076 125.150303 
L 439.419097 121.705801 
L 445.058118 119.767621 
L 450.697139 125.09976 
L 456.33616 132.995444 
L 461.975181 134.089505 
L 467.614202 132.354068 
L 473.253223 125.107135 
L 478.892244 115.919815 
L 484.531265 111.628882 
L 490.170286 112.269246 
L 495.809307 116.045136 
L 501.448328 120.907636 
L 507.087349 117.971495 
L 512.72637 113.212213 
L 518.365391 112.062166 
L 524.004412 112.26484 
L 529.643433 110.330735 
L 535.282454 112.048978 
L 540.921475 113.928744 
L 546.560496 116.667477 
L 552.199517 115.785667 
L 557.838538 110.020438 
L 563.477559 107.997486 
L 569.11658 106.758069 
L 574.7556 106.264381 
L 580.394621 108.935241 
L 586.033642 108.051155 
L 591.672663 108.257653 
L 597.311684 107.45864 
L 602.950705 106.175915 
L 608.589726 104.755625 
L 614.228747 106.138047 
L 619.867768 104.031336 
L 625.506789 103.104972 
" clip-path="url(#pa370480f53)" style="fill: none; stroke: #a3a3a3; stroke-width: 2; stroke-linecap: round"/>
   </g>
   <g id="line2d_19">
    <path d="M 67.243713 363.662295 
L 72.882734 359.5057 
L 78.521755 348.829204 
L 84.160776 334.332046 
L 89.799797 318.988048 
L 95.438818 306.893843 
L 101.077839 297.962434 
L 106.71686 293.606988 
L 112.355881 289.739806 
L 117.994902 286.186287 
L 123.633923 284.483615 
L 129.272944 281.180256 
L 134.911965 279.418766 
L 140.550985 276.934663 
L 146.190006 276.041985 
L 151.829027 274.795903 
L 157.468048 273.837851 
L 163.107069 273.030952 
L 168.74609 269.930182 
L 174.385111 270.363323 
L 180.024132 272.462965 
L 185.663153 269.339433 
L 191.302174 266.89735 
L 196.941195 265.788882 
L 202.580216 263.505615 
L 208.219237 261.688578 
L 213.858258 255.33298 
L 219.497279 243.928614 
L 225.1363 233.51576 
L 230.775321 225.123383 
L 236.414342 217.734654 
L 242.053363 212.494232 
L 247.692384 204.260126 
L 253.331405 198.746636 
L 258.970426 194.878667 
L 264.609447 195.833725 
L 270.248468 193.742779 
L 275.887489 188.099501 
L 281.52651 183.043078 
L 287.165531 179.469494 
L 292.804552 178.373674 
L 298.443573 175.624335 
L 304.082594 171.746891 
L 309.721615 169.333495 
L 315.360636 165.654431 
L 320.999657 164.931807 
L 326.638678 161.890327 
L 332.277699 163.377366 
L 337.91672 162.581455 
L 343.555741 164.861748 
L 349.194762 164.021737 
L 354.833783 159.859641 
L 360.472803 158.1272 
L 366.111824 158.681591 
L 371.750845 162.652857 
L 377.389866 162.135769 
L 383.028887 158.554108 
L 388.667908 155.057195 
L 394.306929 149.3325 
L 399.94595 150.558431 
L 405.584971 153.985519 
L 411.223992 152.327642 
L 416.863013 149.222627 
L 422.502034 142.416175 
L 428.141055 139.435362 
L 433.780076 139.667449 
L 439.419097 143.615711 
L 445.058118 146.848854 
L 450.697139 141.585034 
L 456.33616 134.587559 
L 461.975181 123.924946 
L 467.614202 119.021798 
L 473.253223 118.11897 
L 478.892244 123.084509 
L 484.531265 122.089804 
L 490.170286 115.80943 
L 495.809307 113.332179 
L 501.448328 110.899665 
L 507.087349 109.760191 
L 512.72637 108.691402 
L 518.365391 108.09053 
L 524.004412 107.685931 
L 529.643433 106.113173 
L 535.282454 105.818763 
L 540.921475 106.651488 
L 546.560496 107.458538 
L 552.199517 108.595817 
L 557.838538 109.020681 
L 563.477559 113.906746 
L 569.11658 109.819262 
L 574.7556 105.353193 
L 580.394621 104.369756 
L 586.033642 103.501741 
L 591.672663 106.784466 
L 597.311684 108.429719 
L 602.950705 103.985257 
L 608.589726 105.315383 
L 614.228747 112.216205 
L 619.867768 109.3742 
L 625.506789 109.855658 
" clip-path="url(#pa370480f53)" style="fill: none; stroke-dasharray: 7.4,3.2; stroke-dashoffset: 0; stroke: #000000; stroke-width: 2"/>
   </g>
   <g id="line2d_20">
    <path d="M 56.23 113.920377 
L 632.981429 113.920377 
" clip-path="url(#pa370480f53)" style="fill: none; stroke-dasharray: 1.25,2.0625; stroke-dashoffset: 0; stroke: #000000; stroke-opacity: 0.6; stroke-width: 1.25"/>
   </g>
   <g id="patch_3">
    <path d="M 56.23 382.12 
L 56.23 39.6 
" style="fill: none; stroke: #ffffff; stroke-width: 0.8; stroke-linejoin: miter; stroke-linecap: square"/>
   </g>
   <g id="patch_4">
    <path d="M 632.981429 382.12 
L 632.981429 39.6 
" style="fill: none; stroke: #ffffff; stroke-width: 0.8; stroke-linejoin: miter; stroke-linecap: square"/>
   </g>
   <g id="patch_5">
    <path d="M 56.23 382.12 
L 632.981429 382.12 
" style="fill: none; stroke: #ffffff; stroke-width: 0.8; stroke-linejoin: miter; stroke-linecap: square"/>
   </g>
   <g id="patch_6">
    <path d="M 56.23 39.6 
L 632.981429 39.6 
" style="fill: none; stroke: #ffffff; stroke-width: 0.8; stroke-linejoin: miter; stroke-linecap: square"/>
   </g>
  </g>
  <g id="text_12">
   <!-- Rewards: Acrobot-v1 | CMU-Net -->
   <g style="fill: #262626" transform="translate(163.798594 22.395938) scale(0.18 -0.18)">
    <defs>
     <path id="DejaVuSans-Bold-52" d="M 2297 2597 
Q 2675 2597 2839 2737 
Q 3003 2878 3003 3200 
Q 3003 3519 2839 3656 
Q 2675 3794 2297 3794 
L 1791 3794 
L 1791 2597 
L 2297 2597 
z
M 1791 1766 
L 1791 0 
L 588 0 
L 588 4666 
L 2425 4666 
Q 3347 4666 3776 4356 
Q 4206 4047 4206 3378 
Q 4206 2916 3982 2619 
Q 3759 2322 3309 2181 
Q 3556 2125 3751 1926 
Q 3947 1728 4147 1325 
L 4800 0 
L 3519 0 
L 2950 1159 
Q 2778 1509 2601 1637 
Q 2425 1766 2131 1766 
L 1791 1766 
z
" transform="scale(0.015625)"/>
     <path id="DejaVuSans-Bold-65" d="M 4031 1759 
L 4031 1441 
L 1416 1441 
Q 1456 1047 1700 850 
Q 1944 653 2381 653 
Q 2734 653 3104 758 
Q 3475 863 3866 1075 
L 3866 213 
Q 3469 63 3072 -14 
Q 2675 -91 2278 -91 
Q 1328 -91 801 392 
Q 275 875 275 1747 
Q 275 2603 792 3093 
Q 1309 3584 2216 3584 
Q 3041 3584 3536 3087 
Q 4031 2591 4031 1759 
z
M 2881 2131 
Q 2881 2450 2695 2645 
Q 2509 2841 2209 2841 
Q 1884 2841 1681 2658 
Q 1478 2475 1428 2131 
L 2881 2131 
z
" transform="scale(0.015625)"/>
     <path id="DejaVuSans-Bold-77" d="M 225 3500 
L 1313 3500 
L 1900 1088 
L 2491 3500 
L 3425 3500 
L 4013 1113 
L 4603 3500 
L 5691 3500 
L 4769 0 
L 3547 0 
L 2956 2406 
L 2369 0 
L 1147 0 
L 225 3500 
z
" transform="scale(0.015625)"/>
     <path id="DejaVuSans-Bold-61" d="M 2106 1575 
Q 1756 1575 1579 1456 
Q 1403 1338 1403 1106 
Q 1403 894 1545 773 
Q 1688 653 1941 653 
Q 2256 653 2472 879 
Q 2688 1106 2688 1447 
L 2688 1575 
L 2106 1575 
z
M 3816 1997 
L 3816 0 
L 2688 0 
L 2688 519 
Q 2463 200 2181 54 
Q 1900 -91 1497 -91 
Q 953 -91 614 226 
Q 275 544 275 1050 
Q 275 1666 698 1953 
Q 1122 2241 2028 2241 
L 2688 2241 
L 2688 2328 
Q 2688 2594 2478 2717 
Q 2269 2841 1825 2841 
Q 1466 2841 1156 2769 
Q 847 2697 581 2553 
L 581 3406 
Q 941 3494 1303 3539 
Q 1666 3584 2028 3584 
Q 2975 3584 3395 3211 
Q 3816 2838 3816 1997 
z
" transform="scale(0.015625)"/>
     <path id="DejaVuSans-Bold-72" d="M 3138 2547 
Q 2991 2616 2845 2648 
Q 2700 2681 2553 2681 
Q 2122 2681 1889 2404 
Q 1656 2128 1656 1613 
L 1656 0 
L 538 0 
L 538 3500 
L 1656 3500 
L 1656 2925 
Q 1872 3269 2151 3426 
Q 2431 3584 2822 3584 
Q 2878 3584 2943 3579 
Q 3009 3575 3134 3559 
L 3138 2547 
z
" transform="scale(0.015625)"/>
     <path id="DejaVuSans-Bold-64" d="M 2919 2988 
L 2919 4863 
L 4044 4863 
L 4044 0 
L 2919 0 
L 2919 506 
Q 2688 197 2409 53 
Q 2131 -91 1766 -91 
Q 1119 -91 703 423 
Q 288 938 288 1747 
Q 288 2556 703 3070 
Q 1119 3584 1766 3584 
Q 2128 3584 2408 3439 
Q 2688 3294 2919 2988 
z
M 2181 722 
Q 2541 722 2730 984 
Q 2919 1247 2919 1747 
Q 2919 2247 2730 2509 
Q 2541 2772 2181 2772 
Q 1825 2772 1636 2509 
Q 1447 2247 1447 1747 
Q 1447 1247 1636 984 
Q 1825 722 2181 722 
z
" transform="scale(0.015625)"/>
     <path id="DejaVuSans-Bold-73" d="M 3272 3391 
L 3272 2541 
Q 2913 2691 2578 2766 
Q 2244 2841 1947 2841 
Q 1628 2841 1473 2761 
Q 1319 2681 1319 2516 
Q 1319 2381 1436 2309 
Q 1553 2238 1856 2203 
L 2053 2175 
Q 2913 2066 3209 1816 
Q 3506 1566 3506 1031 
Q 3506 472 3093 190 
Q 2681 -91 1863 -91 
Q 1516 -91 1145 -36 
Q 775 19 384 128 
L 384 978 
Q 719 816 1070 734 
Q 1422 653 1784 653 
Q 2113 653 2278 743 
Q 2444 834 2444 1013 
Q 2444 1163 2330 1236 
Q 2216 1309 1875 1350 
L 1678 1375 
Q 931 1469 631 1722 
Q 331 1975 331 2491 
Q 331 3047 712 3315 
Q 1094 3584 1881 3584 
Q 2191 3584 2531 3537 
Q 2872 3491 3272 3391 
z
" transform="scale(0.015625)"/>
     <path id="DejaVuSans-Bold-3a" d="M 716 3500 
L 1844 3500 
L 1844 2291 
L 716 2291 
L 716 3500 
z
M 716 1209 
L 1844 1209 
L 1844 0 
L 716 0 
L 716 1209 
z
" transform="scale(0.015625)"/>
     <path id="DejaVuSans-Bold-20" transform="scale(0.015625)"/>
     <path id="DejaVuSans-Bold-41" d="M 3419 850 
L 1538 850 
L 1241 0 
L 31 0 
L 1759 4666 
L 3194 4666 
L 4922 0 
L 3713 0 
L 3419 850 
z
M 1838 1716 
L 3116 1716 
L 2478 3572 
L 1838 1716 
z
" transform="scale(0.015625)"/>
     <path id="DejaVuSans-Bold-63" d="M 3366 3391 
L 3366 2478 
Q 3138 2634 2908 2709 
Q 2678 2784 2431 2784 
Q 1963 2784 1702 2511 
Q 1441 2238 1441 1747 
Q 1441 1256 1702 982 
Q 1963 709 2431 709 
Q 2694 709 2930 787 
Q 3166 866 3366 1019 
L 3366 103 
Q 3103 6 2833 -42 
Q 2563 -91 2291 -91 
Q 1344 -91 809 395 
Q 275 881 275 1747 
Q 275 2613 809 3098 
Q 1344 3584 2291 3584 
Q 2566 3584 2833 3536 
Q 3100 3488 3366 3391 
z
" transform="scale(0.015625)"/>
     <path id="DejaVuSans-Bold-6f" d="M 2203 2784 
Q 1831 2784 1636 2517 
Q 1441 2250 1441 1747 
Q 1441 1244 1636 976 
Q 1831 709 2203 709 
Q 2569 709 2762 976 
Q 2956 1244 2956 1747 
Q 2956 2250 2762 2517 
Q 2569 2784 2203 2784 
z
M 2203 3584 
Q 3106 3584 3614 3096 
Q 4122 2609 4122 1747 
Q 4122 884 3614 396 
Q 3106 -91 2203 -91 
Q 1297 -91 786 396 
Q 275 884 275 1747 
Q 275 2609 786 3096 
Q 1297 3584 2203 3584 
z
" transform="scale(0.015625)"/>
     <path id="DejaVuSans-Bold-62" d="M 2400 722 
Q 2759 722 2948 984 
Q 3138 1247 3138 1747 
Q 3138 2247 2948 2509 
Q 2759 2772 2400 2772 
Q 2041 2772 1848 2508 
Q 1656 2244 1656 1747 
Q 1656 1250 1848 986 
Q 2041 722 2400 722 
z
M 1656 2988 
Q 1888 3294 2169 3439 
Q 2450 3584 2816 3584 
Q 3463 3584 3878 3070 
Q 4294 2556 4294 1747 
Q 4294 938 3878 423 
Q 3463 -91 2816 -91 
Q 2450 -91 2169 54 
Q 1888 200 1656 506 
L 1656 0 
L 538 0 
L 538 4863 
L 1656 4863 
L 1656 2988 
z
" transform="scale(0.015625)"/>
     <path id="DejaVuSans-Bold-74" d="M 1759 4494 
L 1759 3500 
L 2913 3500 
L 2913 2700 
L 1759 2700 
L 1759 1216 
Q 1759 972 1856 886 
Q 1953 800 2241 800 
L 2816 800 
L 2816 0 
L 1856 0 
Q 1194 0 917 276 
Q 641 553 641 1216 
L 641 2700 
L 84 2700 
L 84 3500 
L 641 3500 
L 641 4494 
L 1759 4494 
z
" transform="scale(0.015625)"/>
     <path id="DejaVuSans-Bold-2d" d="M 347 2297 
L 2309 2297 
L 2309 1388 
L 347 1388 
L 347 2297 
z
" transform="scale(0.015625)"/>
     <path id="DejaVuSans-Bold-76" d="M 97 3500 
L 1216 3500 
L 2088 1081 
L 2956 3500 
L 4078 3500 
L 2700 0 
L 1472 0 
L 97 3500 
z
" transform="scale(0.015625)"/>
     <path id="DejaVuSans-Bold-31" d="M 750 831 
L 1813 831 
L 1813 3847 
L 722 3622 
L 722 4441 
L 1806 4666 
L 2950 4666 
L 2950 831 
L 4013 831 
L 4013 0 
L 750 0 
L 750 831 
z
" transform="scale(0.015625)"/>
     <path id="DejaVuSans-Bold-7c" d="M 1522 4891 
L 1522 -1509 
L 813 -1509 
L 813 4891 
L 1522 4891 
z
" transform="scale(0.015625)"/>
     <path id="DejaVuSans-Bold-43" d="M 4288 256 
Q 3956 84 3597 -3 
Q 3238 -91 2847 -91 
Q 1681 -91 1000 561 
Q 319 1213 319 2328 
Q 319 3447 1000 4098 
Q 1681 4750 2847 4750 
Q 3238 4750 3597 4662 
Q 3956 4575 4288 4403 
L 4288 3438 
Q 3953 3666 3628 3772 
Q 3303 3878 2944 3878 
Q 2300 3878 1931 3465 
Q 1563 3053 1563 2328 
Q 1563 1606 1931 1193 
Q 2300 781 2944 781 
Q 3303 781 3628 887 
Q 3953 994 4288 1222 
L 4288 256 
z
" transform="scale(0.015625)"/>
     <path id="DejaVuSans-Bold-4d" d="M 588 4666 
L 2119 4666 
L 3181 2169 
L 4250 4666 
L 5778 4666 
L 5778 0 
L 4641 0 
L 4641 3413 
L 3566 897 
L 2803 897 
L 1728 3413 
L 1728 0 
L 588 0 
L 588 4666 
z
" transform="scale(0.015625)"/>
     <path id="DejaVuSans-Bold-55" d="M 588 4666 
L 1791 4666 
L 1791 1869 
Q 1791 1291 1980 1042 
Q 2169 794 2597 794 
Q 3028 794 3217 1042 
Q 3406 1291 3406 1869 
L 3406 4666 
L 4609 4666 
L 4609 1869 
Q 4609 878 4112 393 
Q 3616 -91 2597 -91 
Q 1581 -91 1084 393 
Q 588 878 588 1869 
L 588 4666 
z
" transform="scale(0.015625)"/>
     <path id="DejaVuSans-Bold-4e" d="M 588 4666 
L 1931 4666 
L 3628 1466 
L 3628 4666 
L 4769 4666 
L 4769 0 
L 3425 0 
L 1728 3200 
L 1728 0 
L 588 0 
L 588 4666 
z
" transform="scale(0.015625)"/>
    </defs>
    <use xlink:href="#DejaVuSans-Bold-52"/>
    <use xlink:href="#DejaVuSans-Bold-65" transform="translate(77.001953 0)"/>
    <use xlink:href="#DejaVuSans-Bold-77" transform="translate(144.824219 0)"/>
    <use xlink:href="#DejaVuSans-Bold-61" transform="translate(237.207031 0)"/>
    <use xlink:href="#DejaVuSans-Bold-72" transform="translate(304.6875 0)"/>
    <use xlink:href="#DejaVuSans-Bold-64" transform="translate(354.003906 0)"/>
    <use xlink:href="#DejaVuSans-Bold-73" transform="translate(425.585938 0)"/>
    <use xlink:href="#DejaVuSans-Bold-3a" transform="translate(485.107422 0)"/>
    <use xlink:href="#DejaVuSans-Bold-20" transform="translate(525.097656 0)"/>
    <use xlink:href="#DejaVuSans-Bold-41" transform="translate(559.912109 0)"/>
    <use xlink:href="#DejaVuSans-Bold-63" transform="translate(637.304688 0)"/>
    <use xlink:href="#DejaVuSans-Bold-72" transform="translate(696.582031 0)"/>
    <use xlink:href="#DejaVuSans-Bold-6f" transform="translate(745.898438 0)"/>
    <use xlink:href="#DejaVuSans-Bold-62" transform="translate(814.599609 0)"/>
    <use xlink:href="#DejaVuSans-Bold-6f" transform="translate(886.181641 0)"/>
    <use xlink:href="#DejaVuSans-Bold-74" transform="translate(954.882812 0)"/>
    <use xlink:href="#DejaVuSans-Bold-2d" transform="translate(1002.685547 0)"/>
    <use xlink:href="#DejaVuSans-Bold-76" transform="translate(1044.189453 0)"/>
    <use xlink:href="#DejaVuSans-Bold-31" transform="translate(1109.375 0)"/>
    <use xlink:href="#DejaVuSans-Bold-20" transform="translate(1178.955078 0)"/>
    <use xlink:href="#DejaVuSans-Bold-7c" transform="translate(1213.769531 0)"/>
    <use xlink:href="#DejaVuSans-Bold-20" transform="translate(1250.292969 0)"/>
    <use xlink:href="#DejaVuSans-Bold-43" transform="translate(1285.107422 0)"/>
    <use xlink:href="#DejaVuSans-Bold-4d" transform="translate(1358.496094 0)"/>
    <use xlink:href="#DejaVuSans-Bold-55" transform="translate(1458.007812 0)"/>
    <use xlink:href="#DejaVuSans-Bold-2d" transform="translate(1539.208984 0)"/>
    <use xlink:href="#DejaVuSans-Bold-4e" transform="translate(1580.712891 0)"/>
    <use xlink:href="#DejaVuSans-Bold-65" transform="translate(1664.404297 0)"/>
    <use xlink:href="#DejaVuSans-Bold-74" transform="translate(1732.226562 0)"/>
   </g>
  </g>
 </g>
 <defs>
  <clipPath id="pa370480f53">
   <rect x="56.23" y="39.6" width="576.751429" height="342.52"/>
  </clipPath>
 </defs>
</svg>
