<?xml version="1.0" encoding="utf-8" standalone="no"?>
<!DOCTYPE svg PUBLIC "-//W3C//DTD SVG 1.1//EN"
  "http://www.w3.org/Graphics/SVG/1.1/DTD/svg11.dtd">
<svg xmlns:xlink="http://www.w3.org/1999/xlink" width="540pt" height="360pt" viewBox="0 0 540 360" xmlns="http://www.w3.org/2000/svg" version="1.1">
 <metadata>
  <rdf:RDF xmlns:dc="http://purl.org/dc/elements/1.1/" xmlns:cc="http://creativecommons.org/ns#" xmlns:rdf="http://www.w3.org/1999/02/22-rdf-syntax-ns#">
   <cc:Work>
    <dc:type rdf:resource="http://purl.org/dc/dcmitype/StillImage"/>
    <dc:date>2025-08-04T02:53:14.106244</dc:date>
    <dc:format>image/svg+xml</dc:format>
    <dc:creator>
     <cc:Agent>
      <dc:title>Matplotlib v3.10.0, https://matplotlib.org/</dc:title>
     </cc:Agent>
    </dc:creator>
   </cc:Work>
  </rdf:RDF>
 </metadata>
 <defs>
  <style type="text/css">*{stroke-linejoin: round; stroke-linecap: butt}</style>
 </defs>
 <g id="figure_1">
  <g id="patch_1">
   <path d="M 0 360 
L 540 360 
L 540 0 
L 0 0 
z
" style="fill: #ffffff"/>
  </g>
  <g id="axes_1">
   <g id="patch_2">
    <path d="M 65.14 328.52 
L 529.2 328.52 
L 529.2 46.08 
L 65.14 46.08 
z
" style="fill: #eaeaf2"/>
   </g>
   <g id="matplotlib.axis_1">
    <g id="xtick_1">
     <g id="line2d_1">
      <path d="M 73.987664 328.52 
L 73.987664 46.08 
" clip-path="url(#pa047e6c166)" style="fill: none; stroke: #ffffff; stroke-width: 0.8; stroke-linecap: round"/>
     </g>
     <g id="text_1">
      <!-- 0 -->
      <g style="fill: #262626" transform="translate(69.533914 346.157812) scale(0.14 -0.14)">
       <defs>
        <path id="DejaVuSans-30" d="M 2034 4250 
Q 1547 4250 1301 3770 
Q 1056 3291 1056 2328 
Q 1056 1369 1301 889 
Q 1547 409 2034 409 
Q 2525 409 2770 889 
Q 3016 1369 3016 2328 
Q 3016 3291 2770 3770 
Q 2525 4250 2034 4250 
z
M 2034 4750 
Q 2819 4750 3233 4129 
Q 3647 3509 3647 2328 
Q 3647 1150 3233 529 
Q 2819 -91 2034 -91 
Q 1250 -91 836 529 
Q 422 1150 422 2328 
Q 422 3509 836 4129 
Q 1250 4750 2034 4750 
z
" transform="scale(0.015625)"/>
       </defs>
       <use xlink:href="#DejaVuSans-30"/>
      </g>
     </g>
    </g>
    <g id="xtick_2">
     <g id="line2d_2">
      <path d="M 516.370887 328.52 
L 516.370887 46.08 
" clip-path="url(#pa047e6c166)" style="fill: none; stroke: #ffffff; stroke-width: 0.8; stroke-linecap: round"/>
     </g>
     <g id="text_2">
      <!-- 2M -->
      <g style="fill: #262626" transform="translate(505.877449 346.157812) scale(0.14 -0.14)">
       <defs>
        <path id="DejaVuSans-32" d="M 1228 531 
L 3431 531 
L 3431 0 
L 469 0 
L 469 531 
Q 828 903 1448 1529 
Q 2069 2156 2228 2338 
Q 2531 2678 2651 2914 
Q 2772 3150 2772 3378 
Q 2772 3750 2511 3984 
Q 2250 4219 1831 4219 
Q 1534 4219 1204 4116 
Q 875 4013 500 3803 
L 500 4441 
Q 881 4594 1212 4672 
Q 1544 4750 1819 4750 
Q 2544 4750 2975 4387 
Q 3406 4025 3406 3419 
Q 3406 3131 3298 2873 
Q 3191 2616 2906 2266 
Q 2828 2175 2409 1742 
Q 1991 1309 1228 531 
z
" transform="scale(0.015625)"/>
        <path id="DejaVuSans-4d" d="M 628 4666 
L 1569 4666 
L 2759 1491 
L 3956 4666 
L 4897 4666 
L 4897 0 
L 4281 0 
L 4281 4097 
L 3078 897 
L 2444 897 
L 1241 4097 
L 1241 0 
L 628 0 
L 628 4666 
z
" transform="scale(0.015625)"/>
       </defs>
       <use xlink:href="#DejaVuSans-32"/>
       <use xlink:href="#DejaVuSans-4d" transform="translate(63.623047 0)"/>
      </g>
     </g>
    </g>
   </g>
   <g id="matplotlib.axis_2">
    <g id="ytick_1">
     <g id="line2d_3">
      <path d="M 65.14 321.36962 
L 529.2 321.36962 
" clip-path="url(#pa047e6c166)" style="fill: none; stroke: #ffffff; stroke-width: 0.8; stroke-linecap: round"/>
     </g>
     <g id="text_3">
      <!-- −1500 -->
      <g style="fill: #262626" transform="translate(10.778437 326.688527) scale(0.14 -0.14)">
       <defs>
        <path id="DejaVuSans-2212" d="M 678 2272 
L 4684 2272 
L 4684 1741 
L 678 1741 
L 678 2272 
z
" transform="scale(0.015625)"/>
        <path id="DejaVuSans-31" d="M 794 531 
L 1825 531 
L 1825 4091 
L 703 3866 
L 703 4441 
L 1819 4666 
L 2450 4666 
L 2450 531 
L 3481 531 
L 3481 0 
L 794 0 
L 794 531 
z
" transform="scale(0.015625)"/>
        <path id="DejaVuSans-35" d="M 691 4666 
L 3169 4666 
L 3169 4134 
L 1269 4134 
L 1269 2991 
Q 1406 3038 1543 3061 
Q 1681 3084 1819 3084 
Q 2600 3084 3056 2656 
Q 3513 2228 3513 1497 
Q 3513 744 3044 326 
Q 2575 -91 1722 -91 
Q 1428 -91 1123 -41 
Q 819 9 494 109 
L 494 744 
Q 775 591 1075 516 
Q 1375 441 1709 441 
Q 2250 441 2565 725 
Q 2881 1009 2881 1497 
Q 2881 1984 2565 2268 
Q 2250 2553 1709 2553 
Q 1456 2553 1204 2497 
Q 953 2441 691 2322 
L 691 4666 
z
" transform="scale(0.015625)"/>
       </defs>
       <use xlink:href="#DejaVuSans-2212"/>
       <use xlink:href="#DejaVuSans-31" transform="translate(83.789062 0)"/>
       <use xlink:href="#DejaVuSans-35" transform="translate(147.412109 0)"/>
       <use xlink:href="#DejaVuSans-30" transform="translate(211.035156 0)"/>
       <use xlink:href="#DejaVuSans-30" transform="translate(274.658203 0)"/>
      </g>
     </g>
    </g>
    <g id="ytick_2">
     <g id="line2d_4">
      <path d="M 65.14 267.741772 
L 529.2 267.741772 
" clip-path="url(#pa047e6c166)" style="fill: none; stroke: #ffffff; stroke-width: 0.8; stroke-linecap: round"/>
     </g>
     <g id="text_4">
      <!-- −1200 -->
      <g style="fill: #262626" transform="translate(10.778437 273.060678) scale(0.14 -0.14)">
       <use xlink:href="#DejaVuSans-2212"/>
       <use xlink:href="#DejaVuSans-31" transform="translate(83.789062 0)"/>
       <use xlink:href="#DejaVuSans-32" transform="translate(147.412109 0)"/>
       <use xlink:href="#DejaVuSans-30" transform="translate(211.035156 0)"/>
       <use xlink:href="#DejaVuSans-30" transform="translate(274.658203 0)"/>
      </g>
     </g>
    </g>
    <g id="ytick_3">
     <g id="line2d_5">
      <path d="M 65.14 214.113924 
L 529.2 214.113924 
" clip-path="url(#pa047e6c166)" style="fill: none; stroke: #ffffff; stroke-width: 0.8; stroke-linecap: round"/>
     </g>
     <g id="text_5">
      <!-- −900 -->
      <g style="fill: #262626" transform="translate(19.685937 219.43283) scale(0.14 -0.14)">
       <defs>
        <path id="DejaVuSans-39" d="M 703 97 
L 703 672 
Q 941 559 1184 500 
Q 1428 441 1663 441 
Q 2288 441 2617 861 
Q 2947 1281 2994 2138 
Q 2813 1869 2534 1725 
Q 2256 1581 1919 1581 
Q 1219 1581 811 2004 
Q 403 2428 403 3163 
Q 403 3881 828 4315 
Q 1253 4750 1959 4750 
Q 2769 4750 3195 4129 
Q 3622 3509 3622 2328 
Q 3622 1225 3098 567 
Q 2575 -91 1691 -91 
Q 1453 -91 1209 -44 
Q 966 3 703 97 
z
M 1959 2075 
Q 2384 2075 2632 2365 
Q 2881 2656 2881 3163 
Q 2881 3666 2632 3958 
Q 2384 4250 1959 4250 
Q 1534 4250 1286 3958 
Q 1038 3666 1038 3163 
Q 1038 2656 1286 2365 
Q 1534 2075 1959 2075 
z
" transform="scale(0.015625)"/>
       </defs>
       <use xlink:href="#DejaVuSans-2212"/>
       <use xlink:href="#DejaVuSans-39" transform="translate(83.789062 0)"/>
       <use xlink:href="#DejaVuSans-30" transform="translate(147.412109 0)"/>
       <use xlink:href="#DejaVuSans-30" transform="translate(211.035156 0)"/>
      </g>
     </g>
    </g>
    <g id="ytick_4">
     <g id="line2d_6">
      <path d="M 65.14 160.486076 
L 529.2 160.486076 
" clip-path="url(#pa047e6c166)" style="fill: none; stroke: #ffffff; stroke-width: 0.8; stroke-linecap: round"/>
     </g>
     <g id="text_6">
      <!-- −600 -->
      <g style="fill: #262626" transform="translate(19.685937 165.804982) scale(0.14 -0.14)">
       <defs>
        <path id="DejaVuSans-36" d="M 2113 2584 
Q 1688 2584 1439 2293 
Q 1191 2003 1191 1497 
Q 1191 994 1439 701 
Q 1688 409 2113 409 
Q 2538 409 2786 701 
Q 3034 994 3034 1497 
Q 3034 2003 2786 2293 
Q 2538 2584 2113 2584 
z
M 3366 4563 
L 3366 3988 
Q 3128 4100 2886 4159 
Q 2644 4219 2406 4219 
Q 1781 4219 1451 3797 
Q 1122 3375 1075 2522 
Q 1259 2794 1537 2939 
Q 1816 3084 2150 3084 
Q 2853 3084 3261 2657 
Q 3669 2231 3669 1497 
Q 3669 778 3244 343 
Q 2819 -91 2113 -91 
Q 1303 -91 875 529 
Q 447 1150 447 2328 
Q 447 3434 972 4092 
Q 1497 4750 2381 4750 
Q 2619 4750 2861 4703 
Q 3103 4656 3366 4563 
z
" transform="scale(0.015625)"/>
       </defs>
       <use xlink:href="#DejaVuSans-2212"/>
       <use xlink:href="#DejaVuSans-36" transform="translate(83.789062 0)"/>
       <use xlink:href="#DejaVuSans-30" transform="translate(147.412109 0)"/>
       <use xlink:href="#DejaVuSans-30" transform="translate(211.035156 0)"/>
      </g>
     </g>
    </g>
    <g id="ytick_5">
     <g id="line2d_7">
      <path d="M 65.14 106.858228 
L 529.2 106.858228 
" clip-path="url(#pa047e6c166)" style="fill: none; stroke: #ffffff; stroke-width: 0.8; stroke-linecap: round"/>
     </g>
     <g id="text_7">
      <!-- −300 -->
      <g style="fill: #262626" transform="translate(19.685937 112.177134) scale(0.14 -0.14)">
       <defs>
        <path id="DejaVuSans-33" d="M 2597 2516 
Q 3050 2419 3304 2112 
Q 3559 1806 3559 1356 
Q 3559 666 3084 287 
Q 2609 -91 1734 -91 
Q 1441 -91 1130 -33 
Q 819 25 488 141 
L 488 750 
Q 750 597 1062 519 
Q 1375 441 1716 441 
Q 2309 441 2620 675 
Q 2931 909 2931 1356 
Q 2931 1769 2642 2001 
Q 2353 2234 1838 2234 
L 1294 2234 
L 1294 2753 
L 1863 2753 
Q 2328 2753 2575 2939 
Q 2822 3125 2822 3475 
Q 2822 3834 2567 4026 
Q 2313 4219 1838 4219 
Q 1578 4219 1281 4162 
Q 984 4106 628 3988 
L 628 4550 
Q 988 4650 1302 4700 
Q 1616 4750 1894 4750 
Q 2613 4750 3031 4423 
Q 3450 4097 3450 3541 
Q 3450 3153 3228 2886 
Q 3006 2619 2597 2516 
z
" transform="scale(0.015625)"/>
       </defs>
       <use xlink:href="#DejaVuSans-2212"/>
       <use xlink:href="#DejaVuSans-33" transform="translate(83.789062 0)"/>
       <use xlink:href="#DejaVuSans-30" transform="translate(147.412109 0)"/>
       <use xlink:href="#DejaVuSans-30" transform="translate(211.035156 0)"/>
      </g>
     </g>
    </g>
    <g id="ytick_6">
     <g id="line2d_8">
      <path d="M 65.14 53.23038 
L 529.2 53.23038 
" clip-path="url(#pa047e6c166)" style="fill: none; stroke: #ffffff; stroke-width: 0.8; stroke-linecap: round"/>
     </g>
     <g id="text_8">
      <!-- 0 -->
      <g style="fill: #262626" transform="translate(49.2325 58.549286) scale(0.14 -0.14)">
       <use xlink:href="#DejaVuSans-30"/>
      </g>
     </g>
    </g>
   </g>
   <g id="FillBetweenPolyCollection_1">
    <path d="M 73.987664 259.983621 
L 73.987664 279.976027 
L 78.517669 274.205007 
L 83.047673 277.539107 
L 87.577677 264.641017 
L 92.107681 264.545984 
L 96.637685 269.221947 
L 101.16769 258.78918 
L 105.697694 247.674419 
L 110.227698 243.115452 
L 114.757702 249.67443 
L 119.287706 238.358939 
L 123.817711 239.933632 
L 128.347715 223.787166 
L 132.877719 222.393768 
L 137.407723 204.510327 
L 141.937727 200.726445 
L 146.467732 172.447743 
L 150.997736 159.745356 
L 155.52774 136.984447 
L 160.057744 127.141761 
L 164.587748 121.062234 
L 169.117753 126.786915 
L 173.647757 115.474104 
L 178.177761 107.659848 
L 182.707765 119.710449 
L 187.237769 104.978009 
L 191.767773 100.50516 
L 196.297778 111.168278 
L 200.827782 104.481198 
L 205.357786 116.263889 
L 209.88779 122.112528 
L 214.417794 91.919434 
L 218.947799 96.074804 
L 223.477803 99.909651 
L 228.007807 101.903406 
L 232.537811 101.182071 
L 237.067815 95.193071 
L 241.59782 121.12634 
L 246.127824 96.891812 
L 250.657828 102.765326 
L 255.187832 90.445225 
L 259.717836 104.196757 
L 264.247841 106.88651 
L 268.777845 120.075482 
L 273.307849 95.781053 
L 277.837853 86.297469 
L 282.367857 93.95329 
L 286.897862 91.5915 
L 291.427866 85.77135 
L 295.95787 98.255534 
L 300.487874 91.040354 
L 305.017878 84.835986 
L 309.547883 87.683661 
L 314.077887 86.870988 
L 318.607891 86.030489 
L 323.137895 95.41655 
L 327.667899 120.500877 
L 332.197904 105.169575 
L 336.727908 86.026451 
L 341.257912 91.43925 
L 345.787916 95.59493 
L 350.31792 141.078585 
L 354.847924 114.163234 
L 359.377929 131.537746 
L 363.907933 123.195547 
L 368.437937 131.856411 
L 372.967941 109.234644 
L 377.497945 93.559267 
L 382.02795 90.877831 
L 386.557954 111.272342 
L 391.087958 98.891082 
L 395.617962 101.181878 
L 400.147966 103.025051 
L 404.677971 85.218079 
L 409.207975 82.293649 
L 413.737979 85.204298 
L 418.267983 144.565351 
L 422.797987 129.472544 
L 427.327992 108.113085 
L 431.857996 129.754387 
L 436.388 151.937852 
L 440.918004 125.308175 
L 445.448008 127.539535 
L 449.978013 142.65319 
L 454.508017 136.020677 
L 459.038021 149.145985 
L 463.568025 160.676529 
L 468.098029 147.146995 
L 472.628034 155.629622 
L 477.158038 155.401355 
L 481.688042 145.224697 
L 486.218046 121.544443 
L 490.74805 144.540396 
L 495.278055 120.247156 
L 499.808059 127.942162 
L 504.338063 112.627315 
L 508.868067 116.615874 
L 513.398071 144.830275 
L 517.928076 128.264669 
L 522.45808 123.097057 
L 522.45808 67.277907 
L 522.45808 67.277907 
L 517.928076 64.143984 
L 513.398071 58.225946 
L 508.868067 68.959835 
L 504.338063 66.97745 
L 499.808059 64.425118 
L 495.278055 66.719394 
L 490.74805 58.911888 
L 486.218046 65.758883 
L 481.688042 59.345065 
L 477.158038 58.710457 
L 472.628034 56.589323 
L 468.098029 56.526081 
L 463.568025 61.707086 
L 459.038021 69.172109 
L 454.508017 75.072707 
L 449.978013 61.765312 
L 445.448008 65.050246 
L 440.918004 65.552445 
L 436.388 62.38582 
L 431.857996 70.756584 
L 427.327992 69.416416 
L 422.797987 61.522685 
L 418.267983 61.433524 
L 413.737979 74.888073 
L 409.207975 76.540641 
L 404.677971 77.083447 
L 400.147966 78.956883 
L 395.617962 76.437265 
L 391.087958 75.769005 
L 386.557954 73.888489 
L 382.02795 79.912608 
L 377.497945 75.74776 
L 372.967941 73.95378 
L 368.437937 64.743211 
L 363.907933 71.125066 
L 359.377929 69.610344 
L 354.847924 73.830791 
L 350.31792 70.704712 
L 345.787916 76.981944 
L 341.257912 77.452731 
L 336.727908 81.923313 
L 332.197904 75.537662 
L 327.667899 72.407261 
L 323.137895 81.223644 
L 318.607891 80.519937 
L 314.077887 78.103364 
L 309.547883 83.313749 
L 305.017878 81.115995 
L 300.487874 78.252509 
L 295.95787 74.549975 
L 291.427866 78.117041 
L 286.897862 79.475194 
L 282.367857 82.426588 
L 277.837853 84.346791 
L 273.307849 85.938761 
L 268.777845 72.522038 
L 264.247841 77.157051 
L 259.717836 88.014292 
L 255.187832 79.080225 
L 250.657828 77.292068 
L 246.127824 80.965862 
L 241.59782 84.431004 
L 237.067815 84.155485 
L 232.537811 79.433485 
L 228.007807 82.374455 
L 223.477803 83.280686 
L 218.947799 86.405722 
L 214.417794 82.564454 
L 209.88779 83.874957 
L 205.357786 87.583936 
L 200.827782 88.246234 
L 196.297778 98.010896 
L 191.767773 89.897535 
L 187.237769 92.436655 
L 182.707765 94.346439 
L 178.177761 92.568978 
L 173.647757 94.195771 
L 169.117753 99.079223 
L 164.587748 103.263228 
L 160.057744 99.510485 
L 155.52774 111.197088 
L 150.997736 111.262631 
L 146.467732 124.854388 
L 141.937727 151.256831 
L 137.407723 174.743826 
L 132.877719 192.170037 
L 128.347715 203.11218 
L 123.817711 197.031742 
L 119.287706 204.712758 
L 114.757702 221.679622 
L 110.227698 219.199399 
L 105.697694 233.991221 
L 101.16769 232.80299 
L 96.637685 243.174574 
L 92.107681 248.504347 
L 87.577677 242.081393 
L 83.047673 250.398249 
L 78.517669 254.032834 
L 73.987664 259.983621 
z
" clip-path="url(#pa047e6c166)" style="fill: #023eff; fill-opacity: 0.1"/>
   </g>
   <g id="line2d_9">
    <path d="M 73.987664 278.79001 
L 78.517669 274.605514 
L 83.047673 278.87897 
L 87.577677 257.355941 
L 92.107681 267.963088 
L 96.637685 277.827206 
L 101.16769 249.078065 
L 105.697694 247.735149 
L 110.227698 234.441396 
L 114.757702 255.846304 
L 119.287706 253.05773 
L 123.817711 256.212857 
L 128.347715 230.291481 
L 132.877719 216.947629 
L 137.407723 202.292807 
L 141.937727 191.9287 
L 146.467732 172.905535 
L 150.997736 139.236486 
L 155.52774 121.359238 
L 160.057744 97.285626 
L 164.587748 99.383843 
L 169.117753 97.045349 
L 173.647757 95.821254 
L 178.177761 87.902606 
L 182.707765 99.481721 
L 187.237769 91.132132 
L 191.767773 86.874064 
L 196.297778 108.778457 
L 200.827782 87.525428 
L 205.357786 90.397977 
L 209.88779 105.823895 
L 214.417794 91.505534 
L 218.947799 86.894685 
L 223.477803 102.64475 
L 228.007807 109.283499 
L 232.537811 87.619561 
L 237.067815 84.91217 
L 241.59782 132.493491 
L 246.127824 79.764682 
L 250.657828 92.532242 
L 255.187832 83.622359 
L 259.717836 91.539289 
L 264.247841 88.323156 
L 268.777845 84.126918 
L 273.307849 95.903784 
L 277.837853 87.121816 
L 282.367857 82.869233 
L 286.897862 80.847244 
L 291.427866 83.181206 
L 295.95787 79.438949 
L 300.487874 94.403916 
L 305.017878 84.942772 
L 309.547883 85.751011 
L 314.077887 87.600565 
L 318.607891 82.307892 
L 323.137895 92.685835 
L 327.667899 144.2483 
L 332.197904 119.293223 
L 336.727908 86.982777 
L 341.257912 90.500415 
L 345.787916 83.063061 
L 350.31792 90.650872 
L 354.847924 81.791116 
L 359.377929 89.334616 
L 363.907933 92.492107 
L 368.437937 83.259476 
L 372.967941 81.824945 
L 377.497945 82.843909 
L 382.02795 83.925383 
L 386.557954 87.909231 
L 391.087958 83.200421 
L 395.617962 82.838101 
L 400.147966 95.202667 
L 404.677971 84.262016 
L 409.207975 81.591173 
L 413.737979 87.323193 
L 418.267983 81.679974 
L 422.797987 78.927672 
L 427.327992 82.418379 
L 431.857996 76.529876 
L 436.388 81.474229 
L 440.918004 89.571287 
L 445.448008 83.707561 
L 449.978013 81.913539 
L 454.508017 78.419809 
L 459.038021 80.054386 
L 463.568025 82.156151 
L 468.098029 83.053703 
L 472.628034 76.790116 
L 477.158038 84.52396 
L 481.688042 85.712808 
L 486.218046 81.510152 
L 490.74805 85.77344 
L 495.278055 79.848223 
L 499.808059 85.057272 
L 504.338063 76.162805 
L 508.868067 76.365338 
L 513.398071 82.364305 
L 517.928076 79.961079 
L 522.45808 83.263325 
" clip-path="url(#pa047e6c166)" style="fill: none; stroke: #1ac938; stroke-opacity: 0.27; stroke-width: 1.25; stroke-linecap: round"/>
   </g>
   <g id="line2d_10">
    <path d="M 73.987664 268.316336 
L 78.517669 277.998669 
L 83.047673 245.880219 
L 87.577677 241.559258 
L 92.107681 258.465211 
L 96.637685 249.400906 
L 101.16769 247.240375 
L 105.697694 234.038491 
L 110.227698 214.874087 
L 114.757702 226.139911 
L 119.287706 211.35851 
L 123.817711 200.709137 
L 128.347715 201.625024 
L 132.877719 187.830607 
L 137.407723 168.830492 
L 141.937727 143.945502 
L 146.467732 125.714674 
L 150.997736 112.351018 
L 155.52774 133.154297 
L 160.057744 106.183195 
L 164.587748 116.161922 
L 169.117753 99.75452 
L 173.647757 96.309223 
L 178.177761 105.759151 
L 182.707765 109.691192 
L 187.237769 94.250241 
L 191.767773 96.966188 
L 196.297778 108.566775 
L 200.827782 97.592029 
L 205.357786 91.826778 
L 209.88779 94.304278 
L 214.417794 85.970318 
L 218.947799 86.213182 
L 223.477803 85.602776 
L 228.007807 89.607432 
L 232.537811 88.596859 
L 237.067815 91.780156 
L 241.59782 83.302497 
L 246.127824 82.580204 
L 250.657828 86.862938 
L 255.187832 83.792637 
L 259.717836 93.597148 
L 264.247841 83.683787 
L 268.777845 82.595522 
L 273.307849 88.444982 
L 277.837853 84.482627 
L 282.367857 88.953263 
L 286.897862 95.894441 
L 291.427866 87.623878 
L 295.95787 85.244791 
L 300.487874 75.381043 
L 305.017878 80.175319 
L 309.547883 88.345231 
L 314.077887 80.142007 
L 318.607891 79.847322 
L 323.137895 77.298858 
L 327.667899 85.365563 
L 332.197904 82.675282 
L 336.727908 82.704062 
L 341.257912 76.602294 
L 345.787916 77.158804 
L 350.31792 174.504378 
L 354.847924 133.935194 
L 359.377929 162.22782 
L 363.907933 148.295199 
L 368.437937 164.989001 
L 372.967941 126.405998 
L 377.497945 101.782229 
L 382.02795 96.238252 
L 386.557954 129.631842 
L 391.087958 110.264943 
L 395.617962 112.742657 
L 400.147966 112.313083 
L 404.677971 85.336928 
L 409.207975 78.351538 
L 413.737979 79.009378 
L 418.267983 186.094538 
L 422.797987 163.396829 
L 427.327992 127.053479 
L 431.857996 155.961174 
L 436.388 195.258382 
L 440.918004 154.390502 
L 445.448008 158.706092 
L 449.978013 183.034308 
L 454.508017 134.531991 
L 459.038021 186.164602 
L 463.568025 207.285983 
L 468.098029 192.354332 
L 472.628034 204.903035 
L 477.158038 203.681196 
L 481.688042 188.012424 
L 486.218046 149.288323 
L 490.74805 187.129739 
L 495.278055 146.788474 
L 499.808059 159.510129 
L 504.338063 135.374403 
L 508.868067 140.004811 
L 513.398071 188.067615 
L 517.928076 160.102309 
L 522.45808 150.797106 
" clip-path="url(#pa047e6c166)" style="fill: none; stroke: #1ac938; stroke-opacity: 0.27; stroke-width: 1.25; stroke-linecap: round"/>
   </g>
   <g id="line2d_11">
    <path d="M 73.987664 266.61086 
L 78.517669 254.101755 
L 83.047673 280.550083 
L 87.577677 273.313913 
L 92.107681 255.596557 
L 96.637685 250.045003 
L 101.16769 241.474674 
L 105.697694 250.157171 
L 110.227698 242.973051 
L 114.757702 234.643432 
L 119.287706 209.610943 
L 123.817711 223.147262 
L 128.347715 218.761128 
L 132.877719 223.143429 
L 137.407723 206.277713 
L 141.937727 214.915781 
L 146.467732 175.139034 
L 150.997736 175.257526 
L 155.52774 138.966859 
L 160.057744 138.338571 
L 164.587748 126.32057 
L 169.117753 109.675818 
L 173.647757 113.501843 
L 178.177761 97.818702 
L 182.707765 103.966673 
L 187.237769 105.472138 
L 191.767773 99.895885 
L 196.297778 105.918937 
L 200.827782 110.757497 
L 205.357786 95.557545 
L 209.88779 93.351221 
L 214.417794 93.783739 
L 218.947799 90.356088 
L 223.477803 94.873498 
L 228.007807 95.642408 
L 232.537811 110.465198 
L 237.067815 98.935722 
L 241.59782 113.205848 
L 246.127824 101.059943 
L 250.657828 112.734349 
L 255.187832 93.380451 
L 259.717836 109.828963 
L 264.247841 121.479967 
L 268.777845 143.547266 
L 273.307849 94.296382 
L 277.837853 84.549515 
L 282.367857 94.47968 
L 286.897862 80.247706 
L 291.427866 83.568212 
L 295.95787 81.652008 
L 300.487874 87.698626 
L 305.017878 83.642568 
L 309.547883 86.563213 
L 314.077887 81.802137 
L 318.607891 82.662884 
L 323.137895 89.563084 
L 327.667899 86.809555 
L 332.197904 83.538349 
L 336.727908 83.560753 
L 341.257912 85.124808 
L 345.787916 85.492984 
L 350.31792 82.507201 
L 354.847924 89.291886 
L 359.377929 85.091435 
L 363.907933 86.044444 
L 368.437937 87.717813 
L 372.967941 80.770315 
L 377.497945 76.63973 
L 382.02795 82.237601 
L 386.557954 80.420669 
L 391.087958 82.17829 
L 395.617962 85.449366 
L 400.147966 87.196262 
L 404.677971 83.37541 
L 409.207975 81.415649 
L 413.737979 77.402653 
L 418.267983 81.763732 
L 422.797987 80.081874 
L 427.327992 78.236401 
L 431.857996 104.733743 
L 436.388 99.796195 
L 440.918004 78.09344 
L 445.448008 79.796321 
L 449.978013 80.025727 
L 454.508017 87.062813 
L 459.038021 84.557234 
L 463.568025 81.759411 
L 468.098029 79.357291 
L 472.628034 80.90957 
L 477.158038 79.757004 
L 481.688042 79.983045 
L 486.218046 82.476609 
L 490.74805 76.406919 
L 495.278055 76.23252 
L 499.808059 78.12814 
L 504.338063 80.295574 
L 508.868067 85.029043 
L 513.398071 78.224083 
L 517.928076 81.695381 
L 522.45808 80.265487 
" clip-path="url(#pa047e6c166)" style="fill: none; stroke: #1ac938; stroke-opacity: 0.27; stroke-width: 1.25; stroke-linecap: round"/>
   </g>
   <g id="line2d_12">
    <path d="M 73.987664 282.246314 
L 78.517669 258.114068 
L 83.047673 259.070822 
L 87.577677 245.160104 
L 92.107681 242.927487 
L 96.637685 240.489235 
L 101.16769 225.438151 
L 105.697694 234.018531 
L 110.227698 219.527785 
L 114.757702 216.134171 
L 119.287706 208.723362 
L 123.817711 195.300325 
L 128.347715 204.457947 
L 132.877719 190.101494 
L 137.407723 175.339722 
L 141.937727 165.757966 
L 146.467732 117.01599 
L 150.997736 108.000128 
L 155.52774 101.332786 
L 160.057744 115.473074 
L 164.587748 108.523493 
L 169.117753 128.576751 
L 173.647757 97.073864 
L 178.177761 99.108343 
L 182.707765 92.303977 
L 187.237769 95.876559 
L 191.767773 91.423051 
L 196.297778 91.590136 
L 200.827782 89.837125 
L 205.357786 102.480992 
L 209.88779 83.077064 
L 214.417794 81.651058 
L 218.947799 93.260201 
L 223.477803 78.996419 
L 228.007807 83.105313 
L 232.537811 77.398022 
L 237.067815 83.406521 
L 241.59782 99.46818 
L 246.127824 86.154458 
L 250.657828 74.745782 
L 255.187832 87.155993 
L 259.717836 86.081799 
L 264.247841 84.325566 
L 268.777845 89.478387 
L 273.307849 82.367716 
L 277.837853 84.913489 
L 282.367857 80.39097 
L 286.897862 88.956713 
L 291.427866 77.263189 
L 295.95787 109.379659 
L 300.487874 80.904719 
L 305.017878 84.660833 
L 309.547883 85.135162 
L 314.077887 75.886656 
L 318.607891 83.293131 
L 323.137895 97.921214 
L 327.667899 86.446967 
L 332.197904 78.114946 
L 336.727908 81.152891 
L 341.257912 76.478559 
L 345.787916 104.09311 
L 350.31792 79.624985 
L 354.847924 81.464342 
L 359.377929 85.973215 
L 363.907933 78.036394 
L 368.437937 76.946307 
L 372.967941 80.58722 
L 377.497945 78.880705 
L 382.02795 81.488647 
L 386.557954 82.567061 
L 391.087958 78.848778 
L 395.617962 85.92629 
L 400.147966 79.403565 
L 404.677971 78.006443 
L 409.207975 74.210673 
L 413.737979 72.523145 
L 418.267983 80.91119 
L 422.797987 76.113115 
L 427.327992 74.496771 
L 431.857996 81.6816 
L 436.388 83.791583 
L 440.918004 80.067301 
L 445.448008 79.475191 
L 449.978013 84.859165 
L 454.508017 77.891057 
L 459.038021 84.448754 
L 463.568025 75.168285 
L 468.098029 76.687908 
L 472.628034 87.598023 
L 477.158038 84.704414 
L 481.688042 79.238929 
L 486.218046 77.439173 
L 490.74805 80.70277 
L 495.278055 80.651146 
L 499.808059 78.953488 
L 504.338063 78.911007 
L 508.868067 83.935869 
L 513.398071 77.940458 
L 517.928076 83.675033 
L 522.45808 84.253316 
" clip-path="url(#pa047e6c166)" style="fill: none; stroke: #1ac938; stroke-opacity: 0.27; stroke-width: 1.25; stroke-linecap: round"/>
   </g>
   <g id="line2d_13">
    <path d="M 73.987664 253.9356 
L 78.517669 255.774596 
L 83.047673 255.463296 
L 87.577677 249.416807 
L 92.107681 257.673485 
L 96.637685 263.228955 
L 101.16769 265.749159 
L 105.697694 238.214759 
L 110.227698 243.970811 
L 114.757702 245.62131 
L 119.287706 224.928698 
L 123.817711 217.043852 
L 128.347715 212.112787 
L 132.877719 218.386354 
L 137.407723 195.394649 
L 141.937727 163.41024 
L 146.467732 152.480094 
L 150.997736 142.674809 
L 155.52774 125.640659 
L 160.057744 109.35015 
L 164.587748 110.423827 
L 169.117753 129.612907 
L 173.647757 121.468502 
L 178.177761 109.983263 
L 182.707765 129.698658 
L 187.237769 106.805589 
L 191.767773 100.847551 
L 196.297778 108.093629 
L 200.827782 96.106501 
L 205.357786 129.356271 
L 209.88779 138.412254 
L 214.417794 83.29907 
L 218.947799 99.477158 
L 223.477803 95.8584 
L 228.007807 83.056003 
L 232.537811 87.459251 
L 237.067815 89.336819 
L 241.59782 85.423344 
L 246.127824 95.084896 
L 250.657828 83.268175 
L 255.187832 75.862186 
L 259.717836 99.480423 
L 264.247841 82.296427 
L 268.777845 81.745707 
L 273.307849 93.286669 
L 277.837853 85.543203 
L 282.367857 94.256548 
L 286.897862 81.720629 
L 291.427866 78.084491 
L 295.95787 76.298364 
L 300.487874 84.843855 
L 305.017878 81.45846 
L 309.547883 81.698909 
L 314.077887 87.004513 
L 318.607891 88.264834 
L 323.137895 84.131495 
L 327.667899 79.399958 
L 332.197904 88.146295 
L 336.727908 85.473927 
L 341.257912 93.523876 
L 345.787916 81.634228 
L 350.31792 102.170808 
L 354.847924 83.502525 
L 359.377929 80.243139 
L 363.907933 80.933387 
L 368.437937 78.586459 
L 372.967941 88.382581 
L 377.497945 83.120995 
L 382.02795 83.086213 
L 386.557954 82.373275 
L 391.087958 82.157784 
L 395.617962 77.091446 
L 400.147966 80.839259 
L 404.677971 74.773019 
L 409.207975 81.516691 
L 413.737979 83.972561 
L 418.267983 84.547754 
L 422.797987 78.968581 
L 427.327992 81.618724 
L 431.857996 82.371033 
L 436.388 75.488791 
L 440.918004 75.02902 
L 445.448008 79.789287 
L 449.978013 81.213515 
L 454.508017 149.82779 
L 459.038021 110.570257 
L 463.568025 109.589206 
L 468.098029 77.729455 
L 472.628034 80.346618 
L 477.158038 82.612957 
L 481.688042 78.477198 
L 486.218046 77.544056 
L 490.74805 78.617843 
L 495.278055 83.896013 
L 499.808059 79.269171 
L 504.338063 78.268123 
L 508.868067 78.604209 
L 513.398071 81.044091 
L 517.928076 75.587831 
L 522.45808 77.358176 
" clip-path="url(#pa047e6c166)" style="fill: none; stroke: #1ac938; stroke-opacity: 0.27; stroke-width: 1.25; stroke-linecap: round"/>
   </g>
   <g id="line2d_14">
    <path d="M 73.987664 53.23038 
L 78.517669 58.417278 
L 83.047673 67.77273 
L 87.577677 88.571567 
L 92.107681 107.935489 
L 96.637685 132.356879 
L 101.16769 161.413759 
L 105.697694 179.956527 
L 110.227698 205.864563 
L 114.757702 223.384232 
L 119.287706 249.740811 
L 123.817711 265.217725 
L 128.347715 266.289787 
L 132.877719 271.966581 
L 137.407723 270.741439 
L 141.937727 260.16328 
L 146.467732 247.140119 
L 150.997736 231.640353 
L 155.52774 220.851907 
L 160.057744 213.710548 
L 164.587748 213.375723 
L 169.117753 221.215792 
L 173.647757 229.336392 
L 178.177761 235.517578 
L 182.707765 238.735466 
L 187.237769 233.316567 
L 191.767773 237.812069 
L 196.297778 248.239666 
L 200.827782 244.150846 
L 205.357786 245.061683 
L 209.88779 254.778011 
L 214.417794 252.493748 
L 218.947799 264.454725 
L 223.477803 265.131709 
L 228.007807 271.479788 
L 232.537811 272.111909 
L 237.067815 272.482166 
L 241.59782 283.335563 
L 246.127824 273.485504 
L 250.657828 274.20906 
L 255.187832 277.918445 
L 259.717836 275.791171 
L 264.247841 276.341752 
L 268.777845 282.103093 
L 273.307849 283.372159 
L 277.837853 279.233443 
L 282.367857 291.148251 
L 286.897862 285.354718 
L 291.427866 280.648517 
L 295.95787 283.158222 
L 300.487874 287.526115 
L 305.017878 292.205418 
L 309.547883 294.705996 
L 314.077887 296.959691 
L 318.607891 295.065498 
L 323.137895 300.531163 
L 327.667899 305.834314 
L 332.197904 303.100006 
L 336.727908 304.839561 
L 341.257912 305.188481 
L 345.787916 309.93157 
L 350.31792 321.36962 
L 354.847924 316.251575 
L 359.377929 309.632236 
L 363.907933 302.902052 
L 368.437937 296.835071 
L 372.967941 296.792288 
L 377.497945 299.017214 
L 382.02795 297.733298 
L 386.557954 297.007544 
L 391.087958 296.207084 
L 395.617962 300.110656 
L 400.147966 298.475025 
L 404.677971 298.2976 
L 409.207975 293.751926 
L 413.737979 291.086934 
L 418.267983 304.269636 
L 422.797987 297.603543 
L 427.327992 298.978094 
L 431.857996 304.683988 
L 436.388 307.886224 
L 440.918004 308.366372 
L 445.448008 306.894977 
L 449.978013 311.368032 
L 454.508017 304.842687 
L 459.038021 312.67037 
L 463.568025 308.892576 
L 468.098029 309.216238 
L 472.628034 309.635588 
L 477.158038 310.167141 
L 481.688042 309.468336 
L 486.218046 311.241265 
L 490.74805 310.323247 
L 495.278055 303.199732 
L 499.808059 306.131317 
L 504.338063 303.130946 
L 508.868067 304.720155 
L 513.398071 302.066005 
L 517.928076 307.85222 
L 522.45808 312.207511 
" clip-path="url(#pa047e6c166)" style="fill: none; stroke: #8b2be2; stroke-width: 1.5; stroke-linecap: round"/>
   </g>
   <g id="line2d_15">
    <path d="M 73.987664 269.979824 
L 78.517669 264.11892 
L 83.047673 263.968678 
L 87.577677 253.361205 
L 92.107681 256.525166 
L 96.637685 256.198261 
L 101.16769 245.796085 
L 105.697694 240.83282 
L 110.227698 231.157426 
L 114.757702 235.677026 
L 119.287706 221.535849 
L 123.817711 218.482687 
L 128.347715 213.449673 
L 132.877719 207.281902 
L 137.407723 189.627077 
L 141.937727 175.991638 
L 146.467732 148.651065 
L 150.997736 135.503994 
L 155.52774 124.090768 
L 160.057744 113.326123 
L 164.587748 112.162731 
L 169.117753 112.933069 
L 173.647757 104.834937 
L 178.177761 100.114413 
L 182.707765 107.028444 
L 187.237769 98.707332 
L 191.767773 95.201348 
L 196.297778 104.589587 
L 200.827782 96.363716 
L 205.357786 101.923912 
L 209.88779 102.993742 
L 214.417794 87.241944 
L 218.947799 91.240263 
L 223.477803 91.595169 
L 228.007807 92.138931 
L 232.537811 90.307778 
L 237.067815 89.674278 
L 241.59782 102.778672 
L 246.127824 88.928837 
L 250.657828 90.028697 
L 255.187832 84.762725 
L 259.717836 96.105524 
L 264.247841 92.02178 
L 268.777845 96.29876 
L 273.307849 90.859907 
L 277.837853 85.32213 
L 282.367857 88.189939 
L 286.897862 85.533347 
L 291.427866 81.944195 
L 295.95787 86.402754 
L 300.487874 84.646432 
L 305.017878 82.97599 
L 309.547883 85.498705 
L 314.077887 82.487176 
L 318.607891 83.275213 
L 323.137895 88.320097 
L 327.667899 96.454069 
L 332.197904 90.353619 
L 336.727908 83.974882 
L 341.257912 84.44599 
L 345.787916 86.288437 
L 350.31792 105.891649 
L 354.847924 93.997013 
L 359.377929 100.574045 
L 363.907933 97.160306 
L 368.437937 98.299811 
L 372.967941 91.594212 
L 377.497945 84.653514 
L 382.02795 85.395219 
L 386.557954 92.580416 
L 391.087958 87.330043 
L 395.617962 88.809572 
L 400.147966 90.990967 
L 404.677971 81.150763 
L 409.207975 79.417145 
L 413.737979 80.046186 
L 418.267983 102.999438 
L 422.797987 95.497614 
L 427.327992 88.764751 
L 431.857996 100.255485 
L 436.388 107.161836 
L 440.918004 95.43031 
L 445.448008 96.294891 
L 449.978013 102.209251 
L 454.508017 105.546692 
L 459.038021 109.159047 
L 463.568025 111.191807 
L 468.098029 101.836538 
L 472.628034 106.109472 
L 477.158038 107.055906 
L 481.688042 102.284881 
L 486.218046 93.651663 
L 490.74805 101.726142 
L 495.278055 93.483275 
L 499.808059 96.18364 
L 504.338063 89.802382 
L 508.868067 92.787854 
L 513.398071 101.52811 
L 517.928076 96.204327 
L 522.45808 95.187482 
" clip-path="url(#pa047e6c166)" style="fill: none; stroke: #023eff; stroke-width: 2; stroke-linecap: round"/>
   </g>
   <g id="line2d_16">
    <path d="M 65.14 88.982278 
L 529.2 88.982278 
" clip-path="url(#pa047e6c166)" style="fill: none; stroke-dasharray: 1.25,2.0625; stroke-dashoffset: 0; stroke: #000000; stroke-opacity: 0.6; stroke-width: 1.25"/>
   </g>
   <g id="patch_3">
    <path d="M 65.14 328.52 
L 65.14 46.08 
" style="fill: none; stroke: #ffffff; stroke-width: 0.8; stroke-linejoin: miter; stroke-linecap: square"/>
   </g>
   <g id="patch_4">
    <path d="M 529.2 328.52 
L 529.2 46.08 
" style="fill: none; stroke: #ffffff; stroke-width: 0.8; stroke-linejoin: miter; stroke-linecap: square"/>
   </g>
   <g id="patch_5">
    <path d="M 65.14 328.52 
L 529.2 328.52 
" style="fill: none; stroke: #ffffff; stroke-width: 0.8; stroke-linejoin: miter; stroke-linecap: square"/>
   </g>
   <g id="patch_6">
    <path d="M 65.14 46.08 
L 529.2 46.08 
" style="fill: none; stroke: #ffffff; stroke-width: 0.8; stroke-linejoin: miter; stroke-linecap: square"/>
   </g>
  </g>
  <g id="text_9">
   <!-- CMU-Net | No Mod -->
   <g style="fill: #262626" transform="translate(146.630625 25.54125) scale(0.24 -0.24)">
    <defs>
     <path id="DejaVuSans-Bold-43" d="M 4288 256 
Q 3956 84 3597 -3 
Q 3238 -91 2847 -91 
Q 1681 -91 1000 561 
Q 319 1213 319 2328 
Q 319 3447 1000 4098 
Q 1681 4750 2847 4750 
Q 3238 4750 3597 4662 
Q 3956 4575 4288 4403 
L 4288 3438 
Q 3953 3666 3628 3772 
Q 3303 3878 2944 3878 
Q 2300 3878 1931 3465 
Q 1563 3053 1563 2328 
Q 1563 1606 1931 1193 
Q 2300 781 2944 781 
Q 3303 781 3628 887 
Q 3953 994 4288 1222 
L 4288 256 
z
" transform="scale(0.015625)"/>
     <path id="DejaVuSans-Bold-4d" d="M 588 4666 
L 2119 4666 
L 3181 2169 
L 4250 4666 
L 5778 4666 
L 5778 0 
L 4641 0 
L 4641 3413 
L 3566 897 
L 2803 897 
L 1728 3413 
L 1728 0 
L 588 0 
L 588 4666 
z
" transform="scale(0.015625)"/>
     <path id="DejaVuSans-Bold-55" d="M 588 4666 
L 1791 4666 
L 1791 1869 
Q 1791 1291 1980 1042 
Q 2169 794 2597 794 
Q 3028 794 3217 1042 
Q 3406 1291 3406 1869 
L 3406 4666 
L 4609 4666 
L 4609 1869 
Q 4609 878 4112 393 
Q 3616 -91 2597 -91 
Q 1581 -91 1084 393 
Q 588 878 588 1869 
L 588 4666 
z
" transform="scale(0.015625)"/>
     <path id="DejaVuSans-Bold-2d" d="M 347 2297 
L 2309 2297 
L 2309 1388 
L 347 1388 
L 347 2297 
z
" transform="scale(0.015625)"/>
     <path id="DejaVuSans-Bold-4e" d="M 588 4666 
L 1931 4666 
L 3628 1466 
L 3628 4666 
L 4769 4666 
L 4769 0 
L 3425 0 
L 1728 3200 
L 1728 0 
L 588 0 
L 588 4666 
z
" transform="scale(0.015625)"/>
     <path id="DejaVuSans-Bold-65" d="M 4031 1759 
L 4031 1441 
L 1416 1441 
Q 1456 1047 1700 850 
Q 1944 653 2381 653 
Q 2734 653 3104 758 
Q 3475 863 3866 1075 
L 3866 213 
Q 3469 63 3072 -14 
Q 2675 -91 2278 -91 
Q 1328 -91 801 392 
Q 275 875 275 1747 
Q 275 2603 792 3093 
Q 1309 3584 2216 3584 
Q 3041 3584 3536 3087 
Q 4031 2591 4031 1759 
z
M 2881 2131 
Q 2881 2450 2695 2645 
Q 2509 2841 2209 2841 
Q 1884 2841 1681 2658 
Q 1478 2475 1428 2131 
L 2881 2131 
z
" transform="scale(0.015625)"/>
     <path id="DejaVuSans-Bold-74" d="M 1759 4494 
L 1759 3500 
L 2913 3500 
L 2913 2700 
L 1759 2700 
L 1759 1216 
Q 1759 972 1856 886 
Q 1953 800 2241 800 
L 2816 800 
L 2816 0 
L 1856 0 
Q 1194 0 917 276 
Q 641 553 641 1216 
L 641 2700 
L 84 2700 
L 84 3500 
L 641 3500 
L 641 4494 
L 1759 4494 
z
" transform="scale(0.015625)"/>
     <path id="DejaVuSans-Bold-20" transform="scale(0.015625)"/>
     <path id="DejaVuSans-Bold-7c" d="M 1522 4891 
L 1522 -1509 
L 813 -1509 
L 813 4891 
L 1522 4891 
z
" transform="scale(0.015625)"/>
     <path id="DejaVuSans-Bold-6f" d="M 2203 2784 
Q 1831 2784 1636 2517 
Q 1441 2250 1441 1747 
Q 1441 1244 1636 976 
Q 1831 709 2203 709 
Q 2569 709 2762 976 
Q 2956 1244 2956 1747 
Q 2956 2250 2762 2517 
Q 2569 2784 2203 2784 
z
M 2203 3584 
Q 3106 3584 3614 3096 
Q 4122 2609 4122 1747 
Q 4122 884 3614 396 
Q 3106 -91 2203 -91 
Q 1297 -91 786 396 
Q 275 884 275 1747 
Q 275 2609 786 3096 
Q 1297 3584 2203 3584 
z
" transform="scale(0.015625)"/>
     <path id="DejaVuSans-Bold-64" d="M 2919 2988 
L 2919 4863 
L 4044 4863 
L 4044 0 
L 2919 0 
L 2919 506 
Q 2688 197 2409 53 
Q 2131 -91 1766 -91 
Q 1119 -91 703 423 
Q 288 938 288 1747 
Q 288 2556 703 3070 
Q 1119 3584 1766 3584 
Q 2128 3584 2408 3439 
Q 2688 3294 2919 2988 
z
M 2181 722 
Q 2541 722 2730 984 
Q 2919 1247 2919 1747 
Q 2919 2247 2730 2509 
Q 2541 2772 2181 2772 
Q 1825 2772 1636 2509 
Q 1447 2247 1447 1747 
Q 1447 1247 1636 984 
Q 1825 722 2181 722 
z
" transform="scale(0.015625)"/>
    </defs>
    <use xlink:href="#DejaVuSans-Bold-43"/>
    <use xlink:href="#DejaVuSans-Bold-4d" transform="translate(73.388672 0)"/>
    <use xlink:href="#DejaVuSans-Bold-55" transform="translate(172.900391 0)"/>
    <use xlink:href="#DejaVuSans-Bold-2d" transform="translate(254.101562 0)"/>
    <use xlink:href="#DejaVuSans-Bold-4e" transform="translate(295.605469 0)"/>
    <use xlink:href="#DejaVuSans-Bold-65" transform="translate(379.296875 0)"/>
    <use xlink:href="#DejaVuSans-Bold-74" transform="translate(447.119141 0)"/>
    <use xlink:href="#DejaVuSans-Bold-20" transform="translate(494.921875 0)"/>
    <use xlink:href="#DejaVuSans-Bold-7c" transform="translate(529.736328 0)"/>
    <use xlink:href="#DejaVuSans-Bold-20" transform="translate(566.259766 0)"/>
    <use xlink:href="#DejaVuSans-Bold-4e" transform="translate(601.074219 0)"/>
    <use xlink:href="#DejaVuSans-Bold-6f" transform="translate(684.765625 0)"/>
    <use xlink:href="#DejaVuSans-Bold-20" transform="translate(753.466797 0)"/>
    <use xlink:href="#DejaVuSans-Bold-4d" transform="translate(788.28125 0)"/>
    <use xlink:href="#DejaVuSans-Bold-6f" transform="translate(887.792969 0)"/>
    <use xlink:href="#DejaVuSans-Bold-64" transform="translate(956.494141 0)"/>
   </g>
  </g>
 </g>
 <defs>
  <clipPath id="pa047e6c166">
   <rect x="65.14" y="46.08" width="464.06" height="282.44"/>
  </clipPath>
 </defs>
</svg>
