<?xml version="1.0" encoding="utf-8" standalone="no"?>
<!DOCTYPE svg PUBLIC "-//W3C//DTD SVG 1.1//EN"
  "http://www.w3.org/Graphics/SVG/1.1/DTD/svg11.dtd">
<svg xmlns:xlink="http://www.w3.org/1999/xlink" width="540pt" height="360pt" viewBox="0 0 540 360" xmlns="http://www.w3.org/2000/svg" version="1.1">
 <metadata>
  <rdf:RDF xmlns:dc="http://purl.org/dc/elements/1.1/" xmlns:cc="http://creativecommons.org/ns#" xmlns:rdf="http://www.w3.org/1999/02/22-rdf-syntax-ns#">
   <cc:Work>
    <dc:type rdf:resource="http://purl.org/dc/dcmitype/StillImage"/>
    <dc:date>2025-08-04T02:53:12.664530</dc:date>
    <dc:format>image/svg+xml</dc:format>
    <dc:creator>
     <cc:Agent>
      <dc:title>Matplotlib v3.10.0, https://matplotlib.org/</dc:title>
     </cc:Agent>
    </dc:creator>
   </cc:Work>
  </rdf:RDF>
 </metadata>
 <defs>
  <style type="text/css">*{stroke-linejoin: round; stroke-linecap: butt}</style>
 </defs>
 <g id="figure_1">
  <g id="patch_1">
   <path d="M 0 360 
L 540 360 
L 540 0 
L 0 0 
z
" style="fill: #ffffff"/>
  </g>
  <g id="axes_1">
   <g id="patch_2">
    <path d="M 65.14 328.52 
L 529.2 328.52 
L 529.2 46.08 
L 65.14 46.08 
z
" style="fill: #eaeaf2"/>
   </g>
   <g id="matplotlib.axis_1">
    <g id="xtick_1">
     <g id="line2d_1">
      <path d="M 73.987664 328.52 
L 73.987664 46.08 
" clip-path="url(#p6fb38822a9)" style="fill: none; stroke: #ffffff; stroke-width: 0.8; stroke-linecap: round"/>
     </g>
     <g id="text_1">
      <!-- 0 -->
      <g style="fill: #262626" transform="translate(69.533914 346.157812) scale(0.14 -0.14)">
       <defs>
        <path id="DejaVuSans-30" d="M 2034 4250 
Q 1547 4250 1301 3770 
Q 1056 3291 1056 2328 
Q 1056 1369 1301 889 
Q 1547 409 2034 409 
Q 2525 409 2770 889 
Q 3016 1369 3016 2328 
Q 3016 3291 2770 3770 
Q 2525 4250 2034 4250 
z
M 2034 4750 
Q 2819 4750 3233 4129 
Q 3647 3509 3647 2328 
Q 3647 1150 3233 529 
Q 2819 -91 2034 -91 
Q 1250 -91 836 529 
Q 422 1150 422 2328 
Q 422 3509 836 4129 
Q 1250 4750 2034 4750 
z
" transform="scale(0.015625)"/>
       </defs>
       <use xlink:href="#DejaVuSans-30"/>
      </g>
     </g>
    </g>
    <g id="xtick_2">
     <g id="line2d_2">
      <path d="M 516.370887 328.52 
L 516.370887 46.08 
" clip-path="url(#p6fb38822a9)" style="fill: none; stroke: #ffffff; stroke-width: 0.8; stroke-linecap: round"/>
     </g>
     <g id="text_2">
      <!-- 2M -->
      <g style="fill: #262626" transform="translate(505.877449 346.157812) scale(0.14 -0.14)">
       <defs>
        <path id="DejaVuSans-32" d="M 1228 531 
L 3431 531 
L 3431 0 
L 469 0 
L 469 531 
Q 828 903 1448 1529 
Q 2069 2156 2228 2338 
Q 2531 2678 2651 2914 
Q 2772 3150 2772 3378 
Q 2772 3750 2511 3984 
Q 2250 4219 1831 4219 
Q 1534 4219 1204 4116 
Q 875 4013 500 3803 
L 500 4441 
Q 881 4594 1212 4672 
Q 1544 4750 1819 4750 
Q 2544 4750 2975 4387 
Q 3406 4025 3406 3419 
Q 3406 3131 3298 2873 
Q 3191 2616 2906 2266 
Q 2828 2175 2409 1742 
Q 1991 1309 1228 531 
z
" transform="scale(0.015625)"/>
        <path id="DejaVuSans-4d" d="M 628 4666 
L 1569 4666 
L 2759 1491 
L 3956 4666 
L 4897 4666 
L 4897 0 
L 4281 0 
L 4281 4097 
L 3078 897 
L 2444 897 
L 1241 4097 
L 1241 0 
L 628 0 
L 628 4666 
z
" transform="scale(0.015625)"/>
       </defs>
       <use xlink:href="#DejaVuSans-32"/>
       <use xlink:href="#DejaVuSans-4d" transform="translate(63.623047 0)"/>
      </g>
     </g>
    </g>
   </g>
   <g id="matplotlib.axis_2">
    <g id="ytick_1">
     <g id="line2d_3">
      <path d="M 65.14 321.36962 
L 529.2 321.36962 
" clip-path="url(#p6fb38822a9)" style="fill: none; stroke: #ffffff; stroke-width: 0.8; stroke-linecap: round"/>
     </g>
     <g id="text_3">
      <!-- −1500 -->
      <g style="fill: #262626" transform="translate(10.778437 326.688527) scale(0.14 -0.14)">
       <defs>
        <path id="DejaVuSans-2212" d="M 678 2272 
L 4684 2272 
L 4684 1741 
L 678 1741 
L 678 2272 
z
" transform="scale(0.015625)"/>
        <path id="DejaVuSans-31" d="M 794 531 
L 1825 531 
L 1825 4091 
L 703 3866 
L 703 4441 
L 1819 4666 
L 2450 4666 
L 2450 531 
L 3481 531 
L 3481 0 
L 794 0 
L 794 531 
z
" transform="scale(0.015625)"/>
        <path id="DejaVuSans-35" d="M 691 4666 
L 3169 4666 
L 3169 4134 
L 1269 4134 
L 1269 2991 
Q 1406 3038 1543 3061 
Q 1681 3084 1819 3084 
Q 2600 3084 3056 2656 
Q 3513 2228 3513 1497 
Q 3513 744 3044 326 
Q 2575 -91 1722 -91 
Q 1428 -91 1123 -41 
Q 819 9 494 109 
L 494 744 
Q 775 591 1075 516 
Q 1375 441 1709 441 
Q 2250 441 2565 725 
Q 2881 1009 2881 1497 
Q 2881 1984 2565 2268 
Q 2250 2553 1709 2553 
Q 1456 2553 1204 2497 
Q 953 2441 691 2322 
L 691 4666 
z
" transform="scale(0.015625)"/>
       </defs>
       <use xlink:href="#DejaVuSans-2212"/>
       <use xlink:href="#DejaVuSans-31" transform="translate(83.789062 0)"/>
       <use xlink:href="#DejaVuSans-35" transform="translate(147.412109 0)"/>
       <use xlink:href="#DejaVuSans-30" transform="translate(211.035156 0)"/>
       <use xlink:href="#DejaVuSans-30" transform="translate(274.658203 0)"/>
      </g>
     </g>
    </g>
    <g id="ytick_2">
     <g id="line2d_4">
      <path d="M 65.14 267.741772 
L 529.2 267.741772 
" clip-path="url(#p6fb38822a9)" style="fill: none; stroke: #ffffff; stroke-width: 0.8; stroke-linecap: round"/>
     </g>
     <g id="text_4">
      <!-- −1200 -->
      <g style="fill: #262626" transform="translate(10.778437 273.060678) scale(0.14 -0.14)">
       <use xlink:href="#DejaVuSans-2212"/>
       <use xlink:href="#DejaVuSans-31" transform="translate(83.789062 0)"/>
       <use xlink:href="#DejaVuSans-32" transform="translate(147.412109 0)"/>
       <use xlink:href="#DejaVuSans-30" transform="translate(211.035156 0)"/>
       <use xlink:href="#DejaVuSans-30" transform="translate(274.658203 0)"/>
      </g>
     </g>
    </g>
    <g id="ytick_3">
     <g id="line2d_5">
      <path d="M 65.14 214.113924 
L 529.2 214.113924 
" clip-path="url(#p6fb38822a9)" style="fill: none; stroke: #ffffff; stroke-width: 0.8; stroke-linecap: round"/>
     </g>
     <g id="text_5">
      <!-- −900 -->
      <g style="fill: #262626" transform="translate(19.685937 219.43283) scale(0.14 -0.14)">
       <defs>
        <path id="DejaVuSans-39" d="M 703 97 
L 703 672 
Q 941 559 1184 500 
Q 1428 441 1663 441 
Q 2288 441 2617 861 
Q 2947 1281 2994 2138 
Q 2813 1869 2534 1725 
Q 2256 1581 1919 1581 
Q 1219 1581 811 2004 
Q 403 2428 403 3163 
Q 403 3881 828 4315 
Q 1253 4750 1959 4750 
Q 2769 4750 3195 4129 
Q 3622 3509 3622 2328 
Q 3622 1225 3098 567 
Q 2575 -91 1691 -91 
Q 1453 -91 1209 -44 
Q 966 3 703 97 
z
M 1959 2075 
Q 2384 2075 2632 2365 
Q 2881 2656 2881 3163 
Q 2881 3666 2632 3958 
Q 2384 4250 1959 4250 
Q 1534 4250 1286 3958 
Q 1038 3666 1038 3163 
Q 1038 2656 1286 2365 
Q 1534 2075 1959 2075 
z
" transform="scale(0.015625)"/>
       </defs>
       <use xlink:href="#DejaVuSans-2212"/>
       <use xlink:href="#DejaVuSans-39" transform="translate(83.789062 0)"/>
       <use xlink:href="#DejaVuSans-30" transform="translate(147.412109 0)"/>
       <use xlink:href="#DejaVuSans-30" transform="translate(211.035156 0)"/>
      </g>
     </g>
    </g>
    <g id="ytick_4">
     <g id="line2d_6">
      <path d="M 65.14 160.486076 
L 529.2 160.486076 
" clip-path="url(#p6fb38822a9)" style="fill: none; stroke: #ffffff; stroke-width: 0.8; stroke-linecap: round"/>
     </g>
     <g id="text_6">
      <!-- −600 -->
      <g style="fill: #262626" transform="translate(19.685937 165.804982) scale(0.14 -0.14)">
       <defs>
        <path id="DejaVuSans-36" d="M 2113 2584 
Q 1688 2584 1439 2293 
Q 1191 2003 1191 1497 
Q 1191 994 1439 701 
Q 1688 409 2113 409 
Q 2538 409 2786 701 
Q 3034 994 3034 1497 
Q 3034 2003 2786 2293 
Q 2538 2584 2113 2584 
z
M 3366 4563 
L 3366 3988 
Q 3128 4100 2886 4159 
Q 2644 4219 2406 4219 
Q 1781 4219 1451 3797 
Q 1122 3375 1075 2522 
Q 1259 2794 1537 2939 
Q 1816 3084 2150 3084 
Q 2853 3084 3261 2657 
Q 3669 2231 3669 1497 
Q 3669 778 3244 343 
Q 2819 -91 2113 -91 
Q 1303 -91 875 529 
Q 447 1150 447 2328 
Q 447 3434 972 4092 
Q 1497 4750 2381 4750 
Q 2619 4750 2861 4703 
Q 3103 4656 3366 4563 
z
" transform="scale(0.015625)"/>
       </defs>
       <use xlink:href="#DejaVuSans-2212"/>
       <use xlink:href="#DejaVuSans-36" transform="translate(83.789062 0)"/>
       <use xlink:href="#DejaVuSans-30" transform="translate(147.412109 0)"/>
       <use xlink:href="#DejaVuSans-30" transform="translate(211.035156 0)"/>
      </g>
     </g>
    </g>
    <g id="ytick_5">
     <g id="line2d_7">
      <path d="M 65.14 106.858228 
L 529.2 106.858228 
" clip-path="url(#p6fb38822a9)" style="fill: none; stroke: #ffffff; stroke-width: 0.8; stroke-linecap: round"/>
     </g>
     <g id="text_7">
      <!-- −300 -->
      <g style="fill: #262626" transform="translate(19.685937 112.177134) scale(0.14 -0.14)">
       <defs>
        <path id="DejaVuSans-33" d="M 2597 2516 
Q 3050 2419 3304 2112 
Q 3559 1806 3559 1356 
Q 3559 666 3084 287 
Q 2609 -91 1734 -91 
Q 1441 -91 1130 -33 
Q 819 25 488 141 
L 488 750 
Q 750 597 1062 519 
Q 1375 441 1716 441 
Q 2309 441 2620 675 
Q 2931 909 2931 1356 
Q 2931 1769 2642 2001 
Q 2353 2234 1838 2234 
L 1294 2234 
L 1294 2753 
L 1863 2753 
Q 2328 2753 2575 2939 
Q 2822 3125 2822 3475 
Q 2822 3834 2567 4026 
Q 2313 4219 1838 4219 
Q 1578 4219 1281 4162 
Q 984 4106 628 3988 
L 628 4550 
Q 988 4650 1302 4700 
Q 1616 4750 1894 4750 
Q 2613 4750 3031 4423 
Q 3450 4097 3450 3541 
Q 3450 3153 3228 2886 
Q 3006 2619 2597 2516 
z
" transform="scale(0.015625)"/>
       </defs>
       <use xlink:href="#DejaVuSans-2212"/>
       <use xlink:href="#DejaVuSans-33" transform="translate(83.789062 0)"/>
       <use xlink:href="#DejaVuSans-30" transform="translate(147.412109 0)"/>
       <use xlink:href="#DejaVuSans-30" transform="translate(211.035156 0)"/>
      </g>
     </g>
    </g>
    <g id="ytick_6">
     <g id="line2d_8">
      <path d="M 65.14 53.23038 
L 529.2 53.23038 
" clip-path="url(#p6fb38822a9)" style="fill: none; stroke: #ffffff; stroke-width: 0.8; stroke-linecap: round"/>
     </g>
     <g id="text_8">
      <!-- 0 -->
      <g style="fill: #262626" transform="translate(49.2325 58.549286) scale(0.14 -0.14)">
       <use xlink:href="#DejaVuSans-30"/>
      </g>
     </g>
    </g>
   </g>
   <g id="FillBetweenPolyCollection_1">
    <path d="M 73.987664 260.077956 
L 73.987664 280.402375 
L 78.517669 273.343788 
L 83.047673 279.269624 
L 87.577677 261.130052 
L 92.107681 268.132266 
L 96.637685 263.044381 
L 101.16769 245.166169 
L 105.697694 246.141787 
L 110.227698 235.677473 
L 114.757702 242.560131 
L 119.287706 249.783245 
L 123.817711 242.890189 
L 128.347715 240.5063 
L 132.877719 221.800241 
L 137.407723 203.77526 
L 141.937727 191.84947 
L 146.467732 163.015646 
L 150.997736 154.371614 
L 155.52774 131.326748 
L 160.057744 114.593531 
L 164.587748 119.485125 
L 169.117753 117.702401 
L 173.647757 107.20717 
L 178.177761 107.379856 
L 182.707765 110.178354 
L 187.237769 105.14538 
L 191.767773 109.669675 
L 196.297778 100.396557 
L 200.827782 96.231406 
L 205.357786 98.62708 
L 209.88779 92.578959 
L 214.417794 88.854903 
L 218.947799 91.12265 
L 223.477803 92.680699 
L 228.007807 92.014904 
L 232.537811 105.776809 
L 237.067815 127.111007 
L 241.59782 122.387373 
L 246.127824 116.159253 
L 250.657828 116.313837 
L 255.187832 110.569714 
L 259.717836 109.499625 
L 264.247841 103.882779 
L 268.777845 108.023628 
L 273.307849 116.91022 
L 277.837853 95.32765 
L 282.367857 105.441583 
L 286.897862 125.022663 
L 291.427866 136.917508 
L 295.95787 145.662916 
L 300.487874 129.991676 
L 305.017878 156.719397 
L 309.547883 150.567469 
L 314.077887 148.84015 
L 318.607891 142.085849 
L 323.137895 142.574697 
L 327.667899 169.24619 
L 332.197904 145.481612 
L 336.727908 123.436787 
L 341.257912 141.506037 
L 345.787916 117.818046 
L 350.31792 138.698122 
L 354.847924 144.006194 
L 359.377929 137.483711 
L 363.907933 143.543472 
L 368.437937 166.252882 
L 372.967941 138.821768 
L 377.497945 154.098989 
L 382.02795 165.105232 
L 386.557954 132.878321 
L 391.087958 137.234673 
L 395.617962 137.340924 
L 400.147966 136.636468 
L 404.677971 137.487027 
L 409.207975 143.477745 
L 413.737979 117.789559 
L 418.267983 112.070659 
L 422.797987 89.447276 
L 427.327992 135.135482 
L 431.857996 119.535361 
L 436.388 128.144241 
L 440.918004 139.559614 
L 445.448008 149.311216 
L 449.978013 114.979501 
L 454.508017 133.243512 
L 459.038021 134.061612 
L 463.568025 118.595199 
L 468.098029 136.858793 
L 472.628034 125.600936 
L 477.158038 149.281241 
L 481.688042 121.676245 
L 486.218046 103.134983 
L 490.74805 102.607347 
L 495.278055 91.014078 
L 499.808059 84.011238 
L 504.338063 82.067105 
L 508.868067 84.873455 
L 513.398071 81.268449 
L 517.928076 86.995631 
L 522.45808 81.688559 
L 522.45808 77.21938 
L 522.45808 77.21938 
L 517.928076 77.358489 
L 513.398071 76.894541 
L 508.868067 76.365492 
L 504.338063 75.392614 
L 499.808059 78.771923 
L 495.278055 77.233178 
L 490.74805 74.144023 
L 486.218046 72.511833 
L 481.688042 68.068963 
L 477.158038 58.82286 
L 472.628034 64.768655 
L 468.098029 59.298896 
L 463.568025 69.63408 
L 459.038021 64.011031 
L 454.508017 62.90484 
L 449.978013 71.342483 
L 445.448008 62.154432 
L 440.918004 62.081889 
L 436.388 61.705991 
L 431.857996 65.145782 
L 427.327992 71.96212 
L 422.797987 72.701491 
L 418.267983 73.465885 
L 413.737979 69.627061 
L 409.207975 66.78021 
L 404.677971 72.036162 
L 400.147966 79.108223 
L 395.617962 73.303267 
L 391.087958 71.464832 
L 386.557954 74.682686 
L 382.02795 73.456208 
L 377.497945 71.836521 
L 372.967941 74.99559 
L 368.437937 70.512607 
L 363.907933 76.710493 
L 359.377929 71.836544 
L 354.847924 64.36909 
L 350.31792 64.028218 
L 345.787916 68.412933 
L 341.257912 59.754104 
L 336.727908 70.102625 
L 332.197904 59.720538 
L 327.667899 55.814445 
L 323.137895 63.803061 
L 318.607891 65.122393 
L 314.077887 57.67866 
L 309.547883 59.983713 
L 305.017878 57.969121 
L 300.487874 67.067666 
L 295.95787 65.917909 
L 291.427866 69.713714 
L 286.897862 66.750822 
L 282.367857 81.360175 
L 277.837853 79.745938 
L 273.307849 78.520994 
L 268.777845 74.142517 
L 264.247841 74.797062 
L 259.717836 86.739579 
L 255.187832 70.765798 
L 250.657828 72.327203 
L 246.127824 76.897429 
L 241.59782 78.936797 
L 237.067815 70.114715 
L 232.537811 78.596144 
L 228.007807 86.640114 
L 223.477803 84.290955 
L 218.947799 82.29591 
L 214.417794 83.268625 
L 209.88779 83.3863 
L 205.357786 84.343375 
L 200.827782 88.947298 
L 196.297778 93.911639 
L 191.767773 84.335639 
L 187.237769 90.994604 
L 182.707765 95.872207 
L 178.177761 88.371453 
L 173.647757 92.249778 
L 169.117753 92.660263 
L 164.587748 94.413364 
L 160.057744 101.389492 
L 155.52774 96.306629 
L 150.997736 92.525518 
L 146.467732 100.202546 
L 141.937727 117.078431 
L 137.407723 124.976118 
L 132.877719 137.028127 
L 128.347715 156.454 
L 123.817711 171.330441 
L 119.287706 192.154327 
L 114.757702 225.599091 
L 110.227698 224.812593 
L 105.697694 232.189559 
L 101.16769 231.826564 
L 96.637685 237.91421 
L 92.107681 247.655757 
L 87.577677 238.131868 
L 83.047673 249.291787 
L 78.517669 252.334675 
L 73.987664 260.077956 
z
" clip-path="url(#p6fb38822a9)" style="fill: #023eff; fill-opacity: 0.1"/>
   </g>
   <g id="line2d_9">
    <path d="M 73.987664 268.880721 
L 78.517669 255.983389 
L 83.047673 288.159468 
L 87.577677 266.436909 
L 92.107681 253.30253 
L 96.637685 233.723383 
L 101.16769 234.139171 
L 105.697694 232.728872 
L 110.227698 225.310336 
L 114.757702 220.78687 
L 119.287706 168.510629 
L 123.817711 140.18964 
L 128.347715 115.456036 
L 132.877719 100.160203 
L 137.407723 92.902117 
L 141.937727 109.428091 
L 146.467732 90.224598 
L 150.997736 99.406443 
L 155.52774 92.953961 
L 160.057744 102.774991 
L 164.587748 100.650564 
L 169.117753 89.139834 
L 173.647757 94.654008 
L 178.177761 80.556849 
L 182.707765 100.554794 
L 187.237769 89.368498 
L 191.767773 86.355597 
L 196.297778 92.616966 
L 200.827782 89.934708 
L 205.357786 80.374011 
L 209.88779 88.027911 
L 214.417794 86.663229 
L 218.947799 83.675782 
L 223.477803 92.123663 
L 228.007807 92.204939 
L 232.537811 117.948041 
L 237.067815 154.796819 
L 241.59782 125.824182 
L 246.127824 133.746092 
L 250.657828 137.139216 
L 255.187832 130.214735 
L 259.717836 116.185623 
L 264.247841 114.277026 
L 268.777845 87.184057 
L 273.307849 87.003718 
L 277.837853 84.273207 
L 282.367857 90.071698 
L 286.897862 78.838706 
L 291.427866 83.475173 
L 295.95787 86.520754 
L 300.487874 88.705586 
L 305.017878 82.08287 
L 309.547883 83.432643 
L 314.077887 81.527845 
L 318.607891 82.091392 
L 323.137895 83.256959 
L 327.667899 84.858949 
L 332.197904 83.060417 
L 336.727908 83.373139 
L 341.257912 87.014743 
L 345.787916 86.960136 
L 350.31792 87.426118 
L 354.847924 89.413584 
L 359.377929 84.318858 
L 363.907933 83.467773 
L 368.437937 87.436049 
L 372.967941 80.503804 
L 377.497945 77.482518 
L 382.02795 83.635733 
L 386.557954 83.919674 
L 391.087958 79.102336 
L 395.617962 82.529246 
L 400.147966 86.377847 
L 404.677971 82.101878 
L 409.207975 80.914705 
L 413.737979 77.303442 
L 418.267983 81.287937 
L 422.797987 80.516442 
L 427.327992 77.904454 
L 431.857996 79.825311 
L 436.388 80.877985 
L 440.918004 77.70585 
L 445.448008 79.654442 
L 449.978013 79.082882 
L 454.508017 86.129742 
L 459.038021 84.424183 
L 463.568025 79.914801 
L 468.098029 80.189492 
L 472.628034 80.701936 
L 477.158038 79.365016 
L 481.688042 79.689035 
L 486.218046 82.518697 
L 490.74805 77.156032 
L 495.278055 76.03334 
L 499.808059 77.82633 
L 504.338063 78.7323 
L 508.868067 84.745088 
L 513.398071 77.747581 
L 517.928076 81.27858 
L 522.45808 80.008318 
" clip-path="url(#p6fb38822a9)" style="fill: none; stroke: #1ac938; stroke-opacity: 0.27; stroke-width: 1.25; stroke-linecap: round"/>
   </g>
   <g id="line2d_10">
    <path d="M 73.987664 280.218824 
L 78.517669 261.595352 
L 83.047673 259.281213 
L 87.577677 244.079087 
L 92.107681 250.358476 
L 96.637685 248.447482 
L 101.16769 227.731847 
L 105.697694 235.488537 
L 110.227698 222.691978 
L 114.757702 228.204514 
L 119.287706 221.211556 
L 123.817711 206.521404 
L 128.347715 213.591614 
L 132.877719 171.995312 
L 137.407723 160.393908 
L 141.937727 150.316814 
L 146.467732 123.833464 
L 150.997736 104.844156 
L 155.52774 99.637392 
L 160.057744 110.946492 
L 164.587748 98.416609 
L 169.117753 105.221263 
L 173.647757 92.645468 
L 178.177761 98.153222 
L 182.707765 92.360001 
L 187.237769 92.272265 
L 191.767773 85.985123 
L 196.297778 98.828549 
L 200.827782 91.515873 
L 205.357786 87.100665 
L 209.88779 80.413776 
L 214.417794 81.013789 
L 218.947799 91.031687 
L 223.477803 81.376097 
L 228.007807 92.330813 
L 232.537811 78.434532 
L 237.067815 80.603919 
L 241.59782 82.728343 
L 246.127824 88.621813 
L 250.657828 75.158818 
L 255.187832 82.932717 
L 259.717836 84.610964 
L 264.247841 79.632185 
L 268.777845 86.892506 
L 273.307849 83.673236 
L 277.837853 92.227262 
L 282.367857 91.070222 
L 286.897862 89.341805 
L 291.427866 76.436548 
L 295.95787 82.121445 
L 300.487874 79.378662 
L 305.017878 83.137181 
L 309.547883 84.282114 
L 314.077887 74.44228 
L 318.607891 82.560601 
L 323.137895 84.93739 
L 327.667899 86.917309 
L 332.197904 76.005753 
L 336.727908 81.101174 
L 341.257912 76.645163 
L 345.787916 80.899292 
L 350.31792 79.745911 
L 354.847924 81.576234 
L 359.377929 87.177513 
L 363.907933 165.569406 
L 368.437937 204.048857 
L 372.967941 130.283584 
L 377.497945 171.542975 
L 382.02795 185.830277 
L 386.557954 129.030849 
L 391.087958 152.465142 
L 395.617962 163.010654 
L 400.147966 126.371324 
L 404.677971 117.22783 
L 409.207975 107.160414 
L 413.737979 84.570382 
L 418.267983 84.688351 
L 422.797987 76.701361 
L 427.327992 159.515967 
L 431.857996 146.428327 
L 436.388 161.28661 
L 440.918004 177.47383 
L 445.448008 192.294707 
L 449.978013 136.582629 
L 454.508017 168.167719 
L 459.038021 168.869012 
L 463.568025 142.945723 
L 468.098029 175.53817 
L 472.628034 155.952943 
L 477.158038 194.436969 
L 481.688042 148.39917 
L 486.218046 118.298128 
L 490.74805 116.10156 
L 495.278055 91.80936 
L 499.808059 81.374134 
L 504.338063 83.751189 
L 508.868067 86.300671 
L 513.398071 79.148964 
L 517.928076 91.660448 
L 522.45808 83.58273 
" clip-path="url(#p6fb38822a9)" style="fill: none; stroke: #1ac938; stroke-opacity: 0.27; stroke-width: 1.25; stroke-linecap: round"/>
   </g>
   <g id="line2d_11">
    <path d="M 73.987664 282.555224 
L 78.517669 272.115486 
L 83.047673 273.323663 
L 87.577677 259.781939 
L 92.107681 277.175502 
L 96.637685 271.059238 
L 101.16769 245.789317 
L 105.697694 244.580478 
L 110.227698 236.367332 
L 114.757702 239.612229 
L 119.287706 251.703206 
L 123.817711 242.160456 
L 128.347715 227.25611 
L 132.877719 217.927554 
L 137.407723 208.540261 
L 141.937727 223.372334 
L 146.467732 184.092716 
L 150.997736 175.879969 
L 155.52774 142.815845 
L 160.057744 113.821492 
L 164.587748 131.020144 
L 169.117753 109.612197 
L 173.647757 113.053156 
L 178.177761 102.325283 
L 182.707765 100.802919 
L 187.237769 97.572075 
L 191.767773 90.188966 
L 196.297778 96.319383 
L 200.827782 90.847097 
L 205.357786 92.010979 
L 209.88779 86.186856 
L 214.417794 89.46615 
L 218.947799 84.621651 
L 223.477803 89.106059 
L 228.007807 89.567072 
L 232.537811 87.256477 
L 237.067815 81.701264 
L 241.59782 80.828465 
L 246.127824 78.833233 
L 250.657828 90.182643 
L 255.187832 80.254563 
L 259.717836 91.038408 
L 264.247841 79.156926 
L 268.777845 76.781907 
L 273.307849 93.195304 
L 277.837853 79.569822 
L 282.367857 77.170754 
L 286.897862 75.160657 
L 291.427866 99.354321 
L 295.95787 87.958232 
L 300.487874 87.862048 
L 305.017878 78.889997 
L 309.547883 82.601843 
L 314.077887 83.331383 
L 318.607891 82.449038 
L 323.137895 82.797976 
L 327.667899 81.565562 
L 332.197904 82.484305 
L 336.727908 86.825384 
L 341.257912 81.363921 
L 345.787916 77.609007 
L 350.31792 84.658196 
L 354.847924 88.199678 
L 359.377929 84.082548 
L 363.907933 83.236433 
L 368.437937 82.599798 
L 372.967941 79.974362 
L 377.497945 80.314141 
L 382.02795 80.693568 
L 386.557954 76.408056 
L 391.087958 78.355645 
L 395.617962 80.533791 
L 400.147966 84.312843 
L 404.677971 80.64201 
L 409.207975 80.920775 
L 413.737979 85.574536 
L 418.267983 79.969616 
L 422.797987 78.049178 
L 427.327992 81.707239 
L 431.857996 74.895051 
L 436.388 79.133229 
L 440.918004 87.421177 
L 445.448008 83.205663 
L 449.978013 81.422354 
L 454.508017 79.177699 
L 459.038021 79.318074 
L 463.568025 81.181038 
L 468.098029 80.668277 
L 472.628034 77.377618 
L 477.158038 83.040672 
L 481.688042 83.103876 
L 486.218046 81.091793 
L 490.74805 86.726311 
L 495.278055 80.232674 
L 499.808059 84.6096 
L 504.338063 73.560359 
L 508.868067 75.157773 
L 513.398071 80.406615 
L 517.928076 80.027127 
L 522.45808 77.711909 
" clip-path="url(#p6fb38822a9)" style="fill: none; stroke: #1ac938; stroke-opacity: 0.27; stroke-width: 1.25; stroke-linecap: round"/>
   </g>
   <g id="line2d_12">
    <path d="M 73.987664 264.471337 
L 78.517669 276.680757 
L 83.047673 245.002277 
L 87.577677 236.122026 
L 92.107681 249.373387 
L 96.637685 243.283269 
L 101.16769 241.043379 
L 105.697694 250.118032 
L 110.227698 231.376532 
L 114.757702 244.419498 
L 119.287706 242.295286 
L 123.817711 232.476586 
L 128.347715 225.655418 
L 132.877719 202.132217 
L 137.407723 170.090345 
L 141.937727 144.75473 
L 146.467732 115.828807 
L 150.997736 95.533284 
L 155.52774 112.508232 
L 160.057744 97.792016 
L 164.587748 97.271335 
L 169.117753 96.134597 
L 173.647757 95.573667 
L 178.177761 99.04517 
L 182.707765 108.144468 
L 187.237769 101.808844 
L 191.767773 103.639562 
L 196.297778 102.292646 
L 200.827782 90.845406 
L 205.357786 98.871454 
L 209.88779 93.562016 
L 214.417794 87.300967 
L 218.947799 81.415368 
L 223.477803 86.76905 
L 228.007807 86.156407 
L 232.537811 91.913631 
L 237.067815 93.798961 
L 241.59782 85.373383 
L 246.127824 83.698697 
L 250.657828 86.830136 
L 255.187832 83.071404 
L 259.717836 92.849582 
L 264.247841 97.422107 
L 268.777845 124.037959 
L 273.307849 135.604769 
L 277.837853 100.449885 
L 282.367857 94.212372 
L 286.897862 82.695336 
L 291.427866 88.473007 
L 295.95787 86.916243 
L 300.487874 76.004576 
L 305.017878 86.64081 
L 309.547883 80.242095 
L 314.077887 82.798904 
L 318.607891 90.618481 
L 323.137895 83.006088 
L 327.667899 83.402005 
L 332.197904 83.262435 
L 336.727908 82.577693 
L 341.257912 76.122291 
L 345.787916 78.041648 
L 350.31792 79.205269 
L 354.847924 78.347886 
L 359.377929 98.232733 
L 363.907933 86.009113 
L 368.437937 79.745559 
L 372.967941 85.324199 
L 377.497945 81.303421 
L 382.02795 82.615583 
L 386.557954 81.526616 
L 391.087958 76.130381 
L 395.617962 82.761205 
L 400.147966 86.328792 
L 404.677971 79.992883 
L 409.207975 77.824097 
L 413.737979 79.613623 
L 418.267983 86.829045 
L 422.797987 73.004856 
L 427.327992 80.793093 
L 431.857996 77.093995 
L 436.388 76.825434 
L 440.918004 73.38932 
L 445.448008 79.879886 
L 449.978013 82.972317 
L 454.508017 77.681279 
L 459.038021 77.76952 
L 463.568025 81.302786 
L 468.098029 75.048424 
L 472.628034 80.40254 
L 477.158038 79.518443 
L 481.688042 83.157578 
L 486.218046 78.415382 
L 490.74805 79.364092 
L 495.278055 79.619203 
L 499.808059 79.209649 
L 504.338063 77.435624 
L 508.868067 77.468416 
L 513.398071 75.860582 
L 517.928076 78.848796 
L 522.45808 77.627556 
" clip-path="url(#p6fb38822a9)" style="fill: none; stroke: #1ac938; stroke-opacity: 0.27; stroke-width: 1.25; stroke-linecap: round"/>
   </g>
   <g id="line2d_13">
    <path d="M 73.987664 255.074722 
L 78.517669 247.821176 
L 83.047673 255.636905 
L 87.577677 241.734838 
L 92.107681 259.260163 
L 96.637685 255.883105 
L 101.16769 243.778118 
L 105.697694 232.912448 
L 110.227698 235.478989 
L 114.757702 237.374945 
L 119.287706 221.123254 
L 123.817711 214.203488 
L 128.347715 210.441572 
L 132.877719 204.855633 
L 137.407723 189.951814 
L 141.937727 144.447784 
L 146.467732 144.065896 
L 150.997736 141.578978 
L 155.52774 121.168013 
L 160.057744 114.622569 
L 164.587748 107.38757 
L 169.117753 125.798768 
L 173.647757 102.71607 
L 178.177761 109.297748 
L 182.707765 113.264219 
L 187.237769 109.328279 
L 191.767773 118.844038 
L 196.297778 95.712946 
L 200.827782 99.803676 
L 205.357786 99.069027 
L 209.88779 91.722586 
L 214.417794 85.864686 
L 218.947799 92.801912 
L 223.477803 93.054266 
L 228.007807 86.378316 
L 232.537811 85.379702 
L 237.067815 82.163342 
L 241.59782 128.556053 
L 246.127824 97.741869 
L 250.657828 82.291788 
L 255.187832 76.865362 
L 259.717836 105.913433 
L 264.247841 76.211359 
L 268.777845 80.518932 
L 273.307849 89.101008 
L 277.837853 81.163794 
L 282.367857 114.479349 
L 286.897862 153.397209 
L 291.427866 168.839008 
L 295.95787 185.435387 
L 300.487874 160.697484 
L 305.017878 205.970438 
L 309.547883 195.81926 
L 314.077887 194.196614 
L 318.607891 180.301092 
L 323.137895 181.945981 
L 327.667899 225.907763 
L 332.197904 188.192466 
L 336.727908 149.971138 
L 341.257912 182.004234 
L 345.787916 142.067364 
L 350.31792 175.780354 
L 354.847924 183.400828 
L 359.377929 169.488987 
L 363.907933 132.352187 
L 368.437937 138.083459 
L 372.967941 158.457447 
L 377.497945 154.19572 
L 382.02795 163.628439 
L 386.557954 148.017321 
L 391.087958 135.695258 
L 395.617962 117.775582 
L 400.147966 155.970923 
L 404.677971 163.843372 
L 409.207975 178.824897 
L 413.737979 141.479565 
L 418.267983 131.066411 
L 422.797987 97.100079 
L 427.327992 117.823252 
L 431.857996 83.460171 
L 436.388 76.502322 
L 440.918004 88.113581 
L 445.448008 93.629423 
L 449.978013 85.744779 
L 454.508017 79.214441 
L 459.038021 84.80082 
L 463.568025 85.22885 
L 468.098029 78.94986 
L 472.628034 81.488942 
L 477.158038 83.899153 
L 481.688042 80.013361 
L 486.218046 78.793039 
L 490.74805 82.530429 
L 495.278055 92.923564 
L 499.808059 83.93819 
L 504.338063 80.169826 
L 508.868067 79.425421 
L 513.398071 82.243731 
L 517.928076 79.070348 
L 522.45808 78.339334 
" clip-path="url(#p6fb38822a9)" style="fill: none; stroke: #1ac938; stroke-opacity: 0.27; stroke-width: 1.25; stroke-linecap: round"/>
   </g>
   <g id="line2d_14">
    <path d="M 73.987664 53.23038 
L 78.517669 58.012719 
L 83.047673 67.119788 
L 87.577677 80.55892 
L 92.107681 98.374662 
L 96.637685 115.980456 
L 101.16769 141.967492 
L 105.697694 159.744755 
L 110.227698 188.868872 
L 114.757702 208.573176 
L 119.287706 227.325773 
L 123.817711 236.501404 
L 128.347715 240.351711 
L 132.877719 237.943115 
L 137.407723 242.813885 
L 141.937727 244.834585 
L 146.467732 235.021265 
L 150.997736 237.754243 
L 155.52774 241.017069 
L 160.057744 249.550286 
L 164.587748 249.889547 
L 169.117753 251.391356 
L 173.647757 254.586333 
L 178.177761 258.270513 
L 182.707765 263.969699 
L 187.237769 273.457536 
L 191.767773 271.12133 
L 196.297778 275.209069 
L 200.827782 272.956457 
L 205.357786 276.916815 
L 209.88779 281.274602 
L 214.417794 280.189603 
L 218.947799 285.384138 
L 223.477803 293.980319 
L 228.007807 292.269038 
L 232.537811 291.10001 
L 237.067815 295.706483 
L 241.59782 300.243299 
L 246.127824 297.576991 
L 250.657828 294.04325 
L 255.187832 299.661538 
L 259.717836 306.478694 
L 264.247841 307.821409 
L 268.777845 309.212353 
L 273.307849 311.211148 
L 277.837853 308.685466 
L 282.367857 307.760341 
L 286.897862 312.594424 
L 291.427866 314.664275 
L 295.95787 319.329347 
L 300.487874 318.607732 
L 305.017878 319.110925 
L 309.547883 317.885958 
L 314.077887 314.664022 
L 318.607891 314.864703 
L 323.137895 314.167107 
L 327.667899 310.69239 
L 332.197904 310.577565 
L 336.727908 311.95527 
L 341.257912 311.231112 
L 345.787916 311.421263 
L 350.31792 316.096837 
L 354.847924 317.088369 
L 359.377929 316.132814 
L 363.907933 318.525334 
L 368.437937 319.591002 
L 372.967941 314.954305 
L 377.497945 317.418977 
L 382.02795 314.017787 
L 386.557954 314.308472 
L 391.087958 315.787862 
L 395.617962 315.8642 
L 400.147966 321.36962 
L 404.677971 317.774507 
L 409.207975 315.801292 
L 413.737979 309.380885 
L 418.267983 309.217772 
L 422.797987 307.459007 
L 427.327992 313.47975 
L 431.857996 303.404625 
L 436.388 297.999865 
L 440.918004 298.657058 
L 445.448008 293.673283 
L 449.978013 297.067121 
L 454.508017 298.569656 
L 459.038021 297.309005 
L 463.568025 299.688601 
L 468.098029 300.791593 
L 472.628034 298.814578 
L 477.158038 294.227379 
L 481.688042 293.769158 
L 486.218046 298.148821 
L 490.74805 299.283051 
L 495.278055 302.96322 
L 499.808059 301.840728 
L 504.338063 303.822236 
L 508.868067 304.263604 
L 513.398071 296.922258 
L 517.928076 299.013885 
L 522.45808 300.435251 
" clip-path="url(#p6fb38822a9)" style="fill: none; stroke: #8b2be2; stroke-width: 1.5; stroke-linecap: round"/>
   </g>
   <g id="line2d_15">
    <path d="M 73.987664 270.240165 
L 78.517669 262.839232 
L 83.047673 264.280705 
L 87.577677 249.63096 
L 92.107681 257.894012 
L 96.637685 250.479295 
L 101.16769 238.496366 
L 105.697694 239.165673 
L 110.227698 230.245033 
L 114.757702 234.079611 
L 119.287706 220.968786 
L 123.817711 207.110315 
L 128.347715 198.48015 
L 132.877719 179.414184 
L 137.407723 164.375689 
L 141.937727 154.463951 
L 146.467732 131.609096 
L 150.997736 123.448566 
L 155.52774 113.816689 
L 160.057744 107.991512 
L 164.587748 106.949244 
L 169.117753 105.181332 
L 173.647757 99.728474 
L 178.177761 97.875654 
L 182.707765 103.02528 
L 187.237769 98.069992 
L 191.767773 97.002657 
L 196.297778 97.154098 
L 200.827782 92.589352 
L 205.357786 91.485227 
L 209.88779 87.982629 
L 214.417794 86.061764 
L 218.947799 86.70928 
L 223.477803 88.485827 
L 228.007807 89.327509 
L 232.537811 92.186477 
L 237.067815 98.612861 
L 241.59782 100.662085 
L 246.127824 96.528341 
L 250.657828 94.32052 
L 255.187832 90.667756 
L 259.717836 98.119602 
L 264.247841 89.339921 
L 268.777845 91.083072 
L 273.307849 97.715607 
L 277.837853 87.536794 
L 282.367857 93.400879 
L 286.897862 95.886743 
L 291.427866 103.315611 
L 295.95787 105.790412 
L 300.487874 98.529671 
L 305.017878 107.344259 
L 309.547883 105.275591 
L 314.077887 103.259405 
L 318.607891 103.604121 
L 323.137895 103.188879 
L 327.667899 112.530318 
L 332.197904 102.601075 
L 336.727908 96.769706 
L 341.257912 100.63007 
L 345.787916 93.11549 
L 350.31792 101.36317 
L 354.847924 104.187642 
L 359.377929 104.660128 
L 363.907933 110.126982 
L 368.437937 118.382744 
L 372.967941 106.908679 
L 377.497945 112.967755 
L 382.02795 119.28072 
L 386.557954 103.780503 
L 391.087958 104.349753 
L 395.617962 105.322096 
L 400.147966 107.872346 
L 404.677971 104.761595 
L 409.207975 105.128978 
L 413.737979 93.70831 
L 418.267983 92.768272 
L 422.797987 81.074383 
L 427.327992 103.548801 
L 431.857996 92.340571 
L 436.388 94.925116 
L 440.918004 100.820751 
L 445.448008 105.732824 
L 449.978013 93.160992 
L 454.508017 98.074176 
L 459.038021 99.036322 
L 463.568025 94.11464 
L 468.098029 98.078844 
L 472.628034 95.184796 
L 477.158038 104.05205 
L 481.688042 94.872604 
L 486.218046 87.823408 
L 490.74805 88.375685 
L 495.278055 84.123628 
L 499.808059 81.39158 
L 504.338063 78.72986 
L 508.868067 80.619474 
L 513.398071 79.081495 
L 517.928076 82.17706 
L 522.45808 79.453969 
" clip-path="url(#p6fb38822a9)" style="fill: none; stroke: #023eff; stroke-width: 2; stroke-linecap: round"/>
   </g>
   <g id="line2d_16">
    <path d="M 65.14 88.982278 
L 529.2 88.982278 
" clip-path="url(#p6fb38822a9)" style="fill: none; stroke-dasharray: 1.25,2.0625; stroke-dashoffset: 0; stroke: #000000; stroke-opacity: 0.6; stroke-width: 1.25"/>
   </g>
   <g id="patch_3">
    <path d="M 65.14 328.52 
L 65.14 46.08 
" style="fill: none; stroke: #ffffff; stroke-width: 0.8; stroke-linejoin: miter; stroke-linecap: square"/>
   </g>
   <g id="patch_4">
    <path d="M 529.2 328.52 
L 529.2 46.08 
" style="fill: none; stroke: #ffffff; stroke-width: 0.8; stroke-linejoin: miter; stroke-linecap: square"/>
   </g>
   <g id="patch_5">
    <path d="M 65.14 328.52 
L 529.2 328.52 
" style="fill: none; stroke: #ffffff; stroke-width: 0.8; stroke-linejoin: miter; stroke-linecap: square"/>
   </g>
   <g id="patch_6">
    <path d="M 65.14 46.08 
L 529.2 46.08 
" style="fill: none; stroke: #ffffff; stroke-width: 0.8; stroke-linejoin: miter; stroke-linecap: square"/>
   </g>
  </g>
  <g id="text_9">
   <!-- CMU-Net | A -->
   <g style="fill: #262626" transform="translate(188.58375 25.54125) scale(0.24 -0.24)">
    <defs>
     <path id="DejaVuSans-Bold-43" d="M 4288 256 
Q 3956 84 3597 -3 
Q 3238 -91 2847 -91 
Q 1681 -91 1000 561 
Q 319 1213 319 2328 
Q 319 3447 1000 4098 
Q 1681 4750 2847 4750 
Q 3238 4750 3597 4662 
Q 3956 4575 4288 4403 
L 4288 3438 
Q 3953 3666 3628 3772 
Q 3303 3878 2944 3878 
Q 2300 3878 1931 3465 
Q 1563 3053 1563 2328 
Q 1563 1606 1931 1193 
Q 2300 781 2944 781 
Q 3303 781 3628 887 
Q 3953 994 4288 1222 
L 4288 256 
z
" transform="scale(0.015625)"/>
     <path id="DejaVuSans-Bold-4d" d="M 588 4666 
L 2119 4666 
L 3181 2169 
L 4250 4666 
L 5778 4666 
L 5778 0 
L 4641 0 
L 4641 3413 
L 3566 897 
L 2803 897 
L 1728 3413 
L 1728 0 
L 588 0 
L 588 4666 
z
" transform="scale(0.015625)"/>
     <path id="DejaVuSans-Bold-55" d="M 588 4666 
L 1791 4666 
L 1791 1869 
Q 1791 1291 1980 1042 
Q 2169 794 2597 794 
Q 3028 794 3217 1042 
Q 3406 1291 3406 1869 
L 3406 4666 
L 4609 4666 
L 4609 1869 
Q 4609 878 4112 393 
Q 3616 -91 2597 -91 
Q 1581 -91 1084 393 
Q 588 878 588 1869 
L 588 4666 
z
" transform="scale(0.015625)"/>
     <path id="DejaVuSans-Bold-2d" d="M 347 2297 
L 2309 2297 
L 2309 1388 
L 347 1388 
L 347 2297 
z
" transform="scale(0.015625)"/>
     <path id="DejaVuSans-Bold-4e" d="M 588 4666 
L 1931 4666 
L 3628 1466 
L 3628 4666 
L 4769 4666 
L 4769 0 
L 3425 0 
L 1728 3200 
L 1728 0 
L 588 0 
L 588 4666 
z
" transform="scale(0.015625)"/>
     <path id="DejaVuSans-Bold-65" d="M 4031 1759 
L 4031 1441 
L 1416 1441 
Q 1456 1047 1700 850 
Q 1944 653 2381 653 
Q 2734 653 3104 758 
Q 3475 863 3866 1075 
L 3866 213 
Q 3469 63 3072 -14 
Q 2675 -91 2278 -91 
Q 1328 -91 801 392 
Q 275 875 275 1747 
Q 275 2603 792 3093 
Q 1309 3584 2216 3584 
Q 3041 3584 3536 3087 
Q 4031 2591 4031 1759 
z
M 2881 2131 
Q 2881 2450 2695 2645 
Q 2509 2841 2209 2841 
Q 1884 2841 1681 2658 
Q 1478 2475 1428 2131 
L 2881 2131 
z
" transform="scale(0.015625)"/>
     <path id="DejaVuSans-Bold-74" d="M 1759 4494 
L 1759 3500 
L 2913 3500 
L 2913 2700 
L 1759 2700 
L 1759 1216 
Q 1759 972 1856 886 
Q 1953 800 2241 800 
L 2816 800 
L 2816 0 
L 1856 0 
Q 1194 0 917 276 
Q 641 553 641 1216 
L 641 2700 
L 84 2700 
L 84 3500 
L 641 3500 
L 641 4494 
L 1759 4494 
z
" transform="scale(0.015625)"/>
     <path id="DejaVuSans-Bold-20" transform="scale(0.015625)"/>
     <path id="DejaVuSans-Bold-7c" d="M 1522 4891 
L 1522 -1509 
L 813 -1509 
L 813 4891 
L 1522 4891 
z
" transform="scale(0.015625)"/>
     <path id="DejaVuSans-Bold-41" d="M 3419 850 
L 1538 850 
L 1241 0 
L 31 0 
L 1759 4666 
L 3194 4666 
L 4922 0 
L 3713 0 
L 3419 850 
z
M 1838 1716 
L 3116 1716 
L 2478 3572 
L 1838 1716 
z
" transform="scale(0.015625)"/>
    </defs>
    <use xlink:href="#DejaVuSans-Bold-43"/>
    <use xlink:href="#DejaVuSans-Bold-4d" transform="translate(73.388672 0)"/>
    <use xlink:href="#DejaVuSans-Bold-55" transform="translate(172.900391 0)"/>
    <use xlink:href="#DejaVuSans-Bold-2d" transform="translate(254.101562 0)"/>
    <use xlink:href="#DejaVuSans-Bold-4e" transform="translate(295.605469 0)"/>
    <use xlink:href="#DejaVuSans-Bold-65" transform="translate(379.296875 0)"/>
    <use xlink:href="#DejaVuSans-Bold-74" transform="translate(447.119141 0)"/>
    <use xlink:href="#DejaVuSans-Bold-20" transform="translate(494.921875 0)"/>
    <use xlink:href="#DejaVuSans-Bold-7c" transform="translate(529.736328 0)"/>
    <use xlink:href="#DejaVuSans-Bold-20" transform="translate(566.259766 0)"/>
    <use xlink:href="#DejaVuSans-Bold-41" transform="translate(601.074219 0)"/>
   </g>
  </g>
 </g>
 <defs>
  <clipPath id="p6fb38822a9">
   <rect x="65.14" y="46.08" width="464.06" height="282.44"/>
  </clipPath>
 </defs>
</svg>
