<?xml version="1.0" encoding="utf-8" standalone="no"?>
<!DOCTYPE svg PUBLIC "-//W3C//DTD SVG 1.1//EN"
  "http://www.w3.org/Graphics/SVG/1.1/DTD/svg11.dtd">
<svg xmlns:xlink="http://www.w3.org/1999/xlink" width="540pt" height="360pt" viewBox="0 0 540 360" xmlns="http://www.w3.org/2000/svg" version="1.1">
 <metadata>
  <rdf:RDF xmlns:dc="http://purl.org/dc/elements/1.1/" xmlns:cc="http://creativecommons.org/ns#" xmlns:rdf="http://www.w3.org/1999/02/22-rdf-syntax-ns#">
   <cc:Work>
    <dc:type rdf:resource="http://purl.org/dc/dcmitype/StillImage"/>
    <dc:date>2025-08-04T02:53:04.211164</dc:date>
    <dc:format>image/svg+xml</dc:format>
    <dc:creator>
     <cc:Agent>
      <dc:title>Matplotlib v3.10.0, https://matplotlib.org/</dc:title>
     </cc:Agent>
    </dc:creator>
   </cc:Work>
  </rdf:RDF>
 </metadata>
 <defs>
  <style type="text/css">*{stroke-linejoin: round; stroke-linecap: butt}</style>
 </defs>
 <g id="figure_1">
  <g id="patch_1">
   <path d="M 0 360 
L 540 360 
L 540 0 
L 0 0 
z
" style="fill: #ffffff"/>
  </g>
  <g id="axes_1">
   <g id="patch_2">
    <path d="M 65.14 328.52 
L 529.2 328.52 
L 529.2 46.08 
L 65.14 46.08 
z
" style="fill: #eaeaf2"/>
   </g>
   <g id="matplotlib.axis_1">
    <g id="xtick_1">
     <g id="line2d_1">
      <path d="M 73.987664 328.52 
L 73.987664 46.08 
" clip-path="url(#pcded72148f)" style="fill: none; stroke: #ffffff; stroke-width: 0.8; stroke-linecap: round"/>
     </g>
     <g id="text_1">
      <!-- 0 -->
      <g style="fill: #262626" transform="translate(69.533914 346.157812) scale(0.14 -0.14)">
       <defs>
        <path id="DejaVuSans-30" d="M 2034 4250 
Q 1547 4250 1301 3770 
Q 1056 3291 1056 2328 
Q 1056 1369 1301 889 
Q 1547 409 2034 409 
Q 2525 409 2770 889 
Q 3016 1369 3016 2328 
Q 3016 3291 2770 3770 
Q 2525 4250 2034 4250 
z
M 2034 4750 
Q 2819 4750 3233 4129 
Q 3647 3509 3647 2328 
Q 3647 1150 3233 529 
Q 2819 -91 2034 -91 
Q 1250 -91 836 529 
Q 422 1150 422 2328 
Q 422 3509 836 4129 
Q 1250 4750 2034 4750 
z
" transform="scale(0.015625)"/>
       </defs>
       <use xlink:href="#DejaVuSans-30"/>
      </g>
     </g>
    </g>
    <g id="xtick_2">
     <g id="line2d_2">
      <path d="M 516.370887 328.52 
L 516.370887 46.08 
" clip-path="url(#pcded72148f)" style="fill: none; stroke: #ffffff; stroke-width: 0.8; stroke-linecap: round"/>
     </g>
     <g id="text_2">
      <!-- 2M -->
      <g style="fill: #262626" transform="translate(505.877449 346.157812) scale(0.14 -0.14)">
       <defs>
        <path id="DejaVuSans-32" d="M 1228 531 
L 3431 531 
L 3431 0 
L 469 0 
L 469 531 
Q 828 903 1448 1529 
Q 2069 2156 2228 2338 
Q 2531 2678 2651 2914 
Q 2772 3150 2772 3378 
Q 2772 3750 2511 3984 
Q 2250 4219 1831 4219 
Q 1534 4219 1204 4116 
Q 875 4013 500 3803 
L 500 4441 
Q 881 4594 1212 4672 
Q 1544 4750 1819 4750 
Q 2544 4750 2975 4387 
Q 3406 4025 3406 3419 
Q 3406 3131 3298 2873 
Q 3191 2616 2906 2266 
Q 2828 2175 2409 1742 
Q 1991 1309 1228 531 
z
" transform="scale(0.015625)"/>
        <path id="DejaVuSans-4d" d="M 628 4666 
L 1569 4666 
L 2759 1491 
L 3956 4666 
L 4897 4666 
L 4897 0 
L 4281 0 
L 4281 4097 
L 3078 897 
L 2444 897 
L 1241 4097 
L 1241 0 
L 628 0 
L 628 4666 
z
" transform="scale(0.015625)"/>
       </defs>
       <use xlink:href="#DejaVuSans-32"/>
       <use xlink:href="#DejaVuSans-4d" transform="translate(63.623047 0)"/>
      </g>
     </g>
    </g>
   </g>
   <g id="matplotlib.axis_2">
    <g id="ytick_1">
     <g id="line2d_3">
      <path d="M 65.14 321.36962 
L 529.2 321.36962 
" clip-path="url(#pcded72148f)" style="fill: none; stroke: #ffffff; stroke-width: 0.8; stroke-linecap: round"/>
     </g>
     <g id="text_3">
      <!-- −1500 -->
      <g style="fill: #262626" transform="translate(10.778437 326.688527) scale(0.14 -0.14)">
       <defs>
        <path id="DejaVuSans-2212" d="M 678 2272 
L 4684 2272 
L 4684 1741 
L 678 1741 
L 678 2272 
z
" transform="scale(0.015625)"/>
        <path id="DejaVuSans-31" d="M 794 531 
L 1825 531 
L 1825 4091 
L 703 3866 
L 703 4441 
L 1819 4666 
L 2450 4666 
L 2450 531 
L 3481 531 
L 3481 0 
L 794 0 
L 794 531 
z
" transform="scale(0.015625)"/>
        <path id="DejaVuSans-35" d="M 691 4666 
L 3169 4666 
L 3169 4134 
L 1269 4134 
L 1269 2991 
Q 1406 3038 1543 3061 
Q 1681 3084 1819 3084 
Q 2600 3084 3056 2656 
Q 3513 2228 3513 1497 
Q 3513 744 3044 326 
Q 2575 -91 1722 -91 
Q 1428 -91 1123 -41 
Q 819 9 494 109 
L 494 744 
Q 775 591 1075 516 
Q 1375 441 1709 441 
Q 2250 441 2565 725 
Q 2881 1009 2881 1497 
Q 2881 1984 2565 2268 
Q 2250 2553 1709 2553 
Q 1456 2553 1204 2497 
Q 953 2441 691 2322 
L 691 4666 
z
" transform="scale(0.015625)"/>
       </defs>
       <use xlink:href="#DejaVuSans-2212"/>
       <use xlink:href="#DejaVuSans-31" transform="translate(83.789062 0)"/>
       <use xlink:href="#DejaVuSans-35" transform="translate(147.412109 0)"/>
       <use xlink:href="#DejaVuSans-30" transform="translate(211.035156 0)"/>
       <use xlink:href="#DejaVuSans-30" transform="translate(274.658203 0)"/>
      </g>
     </g>
    </g>
    <g id="ytick_2">
     <g id="line2d_4">
      <path d="M 65.14 267.741772 
L 529.2 267.741772 
" clip-path="url(#pcded72148f)" style="fill: none; stroke: #ffffff; stroke-width: 0.8; stroke-linecap: round"/>
     </g>
     <g id="text_4">
      <!-- −1200 -->
      <g style="fill: #262626" transform="translate(10.778437 273.060678) scale(0.14 -0.14)">
       <use xlink:href="#DejaVuSans-2212"/>
       <use xlink:href="#DejaVuSans-31" transform="translate(83.789062 0)"/>
       <use xlink:href="#DejaVuSans-32" transform="translate(147.412109 0)"/>
       <use xlink:href="#DejaVuSans-30" transform="translate(211.035156 0)"/>
       <use xlink:href="#DejaVuSans-30" transform="translate(274.658203 0)"/>
      </g>
     </g>
    </g>
    <g id="ytick_3">
     <g id="line2d_5">
      <path d="M 65.14 214.113924 
L 529.2 214.113924 
" clip-path="url(#pcded72148f)" style="fill: none; stroke: #ffffff; stroke-width: 0.8; stroke-linecap: round"/>
     </g>
     <g id="text_5">
      <!-- −900 -->
      <g style="fill: #262626" transform="translate(19.685937 219.43283) scale(0.14 -0.14)">
       <defs>
        <path id="DejaVuSans-39" d="M 703 97 
L 703 672 
Q 941 559 1184 500 
Q 1428 441 1663 441 
Q 2288 441 2617 861 
Q 2947 1281 2994 2138 
Q 2813 1869 2534 1725 
Q 2256 1581 1919 1581 
Q 1219 1581 811 2004 
Q 403 2428 403 3163 
Q 403 3881 828 4315 
Q 1253 4750 1959 4750 
Q 2769 4750 3195 4129 
Q 3622 3509 3622 2328 
Q 3622 1225 3098 567 
Q 2575 -91 1691 -91 
Q 1453 -91 1209 -44 
Q 966 3 703 97 
z
M 1959 2075 
Q 2384 2075 2632 2365 
Q 2881 2656 2881 3163 
Q 2881 3666 2632 3958 
Q 2384 4250 1959 4250 
Q 1534 4250 1286 3958 
Q 1038 3666 1038 3163 
Q 1038 2656 1286 2365 
Q 1534 2075 1959 2075 
z
" transform="scale(0.015625)"/>
       </defs>
       <use xlink:href="#DejaVuSans-2212"/>
       <use xlink:href="#DejaVuSans-39" transform="translate(83.789062 0)"/>
       <use xlink:href="#DejaVuSans-30" transform="translate(147.412109 0)"/>
       <use xlink:href="#DejaVuSans-30" transform="translate(211.035156 0)"/>
      </g>
     </g>
    </g>
    <g id="ytick_4">
     <g id="line2d_6">
      <path d="M 65.14 160.486076 
L 529.2 160.486076 
" clip-path="url(#pcded72148f)" style="fill: none; stroke: #ffffff; stroke-width: 0.8; stroke-linecap: round"/>
     </g>
     <g id="text_6">
      <!-- −600 -->
      <g style="fill: #262626" transform="translate(19.685937 165.804982) scale(0.14 -0.14)">
       <defs>
        <path id="DejaVuSans-36" d="M 2113 2584 
Q 1688 2584 1439 2293 
Q 1191 2003 1191 1497 
Q 1191 994 1439 701 
Q 1688 409 2113 409 
Q 2538 409 2786 701 
Q 3034 994 3034 1497 
Q 3034 2003 2786 2293 
Q 2538 2584 2113 2584 
z
M 3366 4563 
L 3366 3988 
Q 3128 4100 2886 4159 
Q 2644 4219 2406 4219 
Q 1781 4219 1451 3797 
Q 1122 3375 1075 2522 
Q 1259 2794 1537 2939 
Q 1816 3084 2150 3084 
Q 2853 3084 3261 2657 
Q 3669 2231 3669 1497 
Q 3669 778 3244 343 
Q 2819 -91 2113 -91 
Q 1303 -91 875 529 
Q 447 1150 447 2328 
Q 447 3434 972 4092 
Q 1497 4750 2381 4750 
Q 2619 4750 2861 4703 
Q 3103 4656 3366 4563 
z
" transform="scale(0.015625)"/>
       </defs>
       <use xlink:href="#DejaVuSans-2212"/>
       <use xlink:href="#DejaVuSans-36" transform="translate(83.789062 0)"/>
       <use xlink:href="#DejaVuSans-30" transform="translate(147.412109 0)"/>
       <use xlink:href="#DejaVuSans-30" transform="translate(211.035156 0)"/>
      </g>
     </g>
    </g>
    <g id="ytick_5">
     <g id="line2d_7">
      <path d="M 65.14 106.858228 
L 529.2 106.858228 
" clip-path="url(#pcded72148f)" style="fill: none; stroke: #ffffff; stroke-width: 0.8; stroke-linecap: round"/>
     </g>
     <g id="text_7">
      <!-- −300 -->
      <g style="fill: #262626" transform="translate(19.685937 112.177134) scale(0.14 -0.14)">
       <defs>
        <path id="DejaVuSans-33" d="M 2597 2516 
Q 3050 2419 3304 2112 
Q 3559 1806 3559 1356 
Q 3559 666 3084 287 
Q 2609 -91 1734 -91 
Q 1441 -91 1130 -33 
Q 819 25 488 141 
L 488 750 
Q 750 597 1062 519 
Q 1375 441 1716 441 
Q 2309 441 2620 675 
Q 2931 909 2931 1356 
Q 2931 1769 2642 2001 
Q 2353 2234 1838 2234 
L 1294 2234 
L 1294 2753 
L 1863 2753 
Q 2328 2753 2575 2939 
Q 2822 3125 2822 3475 
Q 2822 3834 2567 4026 
Q 2313 4219 1838 4219 
Q 1578 4219 1281 4162 
Q 984 4106 628 3988 
L 628 4550 
Q 988 4650 1302 4700 
Q 1616 4750 1894 4750 
Q 2613 4750 3031 4423 
Q 3450 4097 3450 3541 
Q 3450 3153 3228 2886 
Q 3006 2619 2597 2516 
z
" transform="scale(0.015625)"/>
       </defs>
       <use xlink:href="#DejaVuSans-2212"/>
       <use xlink:href="#DejaVuSans-33" transform="translate(83.789062 0)"/>
       <use xlink:href="#DejaVuSans-30" transform="translate(147.412109 0)"/>
       <use xlink:href="#DejaVuSans-30" transform="translate(211.035156 0)"/>
      </g>
     </g>
    </g>
    <g id="ytick_6">
     <g id="line2d_8">
      <path d="M 65.14 53.23038 
L 529.2 53.23038 
" clip-path="url(#pcded72148f)" style="fill: none; stroke: #ffffff; stroke-width: 0.8; stroke-linecap: round"/>
     </g>
     <g id="text_8">
      <!-- 0 -->
      <g style="fill: #262626" transform="translate(49.2325 58.549286) scale(0.14 -0.14)">
       <use xlink:href="#DejaVuSans-30"/>
      </g>
     </g>
    </g>
   </g>
   <g id="FillBetweenPolyCollection_1">
    <path d="M 73.987664 263.330992 
L 73.987664 280.424572 
L 78.517669 275.685028 
L 83.047673 283.928093 
L 87.577677 267.709631 
L 92.107681 272.525816 
L 96.637685 254.681002 
L 101.16769 254.986751 
L 105.697694 252.785667 
L 110.227698 242.166769 
L 114.757702 259.466869 
L 119.287706 252.429433 
L 123.817711 254.489963 
L 128.347715 249.044838 
L 132.877719 245.994807 
L 137.407723 240.355869 
L 141.937727 234.920897 
L 146.467732 237.908909 
L 150.997736 243.19085 
L 155.52774 248.156365 
L 160.057744 235.81537 
L 164.587748 234.978756 
L 169.117753 237.767344 
L 173.647757 226.686181 
L 178.177761 231.51919 
L 182.707765 234.77595 
L 187.237769 228.788494 
L 191.767773 225.459106 
L 196.297778 228.830949 
L 200.827782 213.148088 
L 205.357786 213.301033 
L 209.88779 203.520046 
L 214.417794 198.349063 
L 218.947799 196.969711 
L 223.477803 194.807601 
L 228.007807 189.105281 
L 232.537811 175.613936 
L 237.067815 164.413199 
L 241.59782 159.889333 
L 246.127824 175.350856 
L 250.657828 152.358014 
L 255.187832 147.104355 
L 259.717836 224.199484 
L 264.247841 228.950753 
L 268.777845 211.589696 
L 273.307849 189.666334 
L 277.837853 208.557144 
L 282.367857 194.909962 
L 286.897862 196.784209 
L 291.427866 173.26045 
L 295.95787 176.805353 
L 300.487874 193.265822 
L 305.017878 185.505203 
L 309.547883 175.644588 
L 314.077887 167.405245 
L 318.607891 163.481008 
L 323.137895 158.854033 
L 327.667899 179.237653 
L 332.197904 178.503292 
L 336.727908 175.102497 
L 341.257912 165.975505 
L 345.787916 149.364922 
L 350.31792 143.707436 
L 354.847924 152.943791 
L 359.377929 176.303384 
L 363.907933 161.04419 
L 368.437937 173.689423 
L 372.967941 166.314636 
L 377.497945 177.52286 
L 382.02795 185.279302 
L 386.557954 189.070179 
L 391.087958 213.809892 
L 395.617962 220.622667 
L 400.147966 225.035088 
L 404.677971 216.070309 
L 409.207975 218.392028 
L 413.737979 212.487698 
L 418.267983 218.533608 
L 422.797987 201.397914 
L 427.327992 209.369142 
L 431.857996 206.157771 
L 436.388 212.367966 
L 440.918004 206.655225 
L 445.448008 202.926545 
L 449.978013 195.930374 
L 454.508017 189.450814 
L 459.038021 199.357966 
L 463.568025 197.633409 
L 468.098029 190.753886 
L 472.628034 198.292105 
L 477.158038 225.4732 
L 481.688042 192.280466 
L 486.218046 187.748335 
L 490.74805 192.125936 
L 495.278055 185.954426 
L 499.808059 182.808575 
L 504.338063 172.183727 
L 508.868067 187.000904 
L 513.398071 197.953767 
L 517.928076 173.962166 
L 522.45808 152.59352 
L 522.45808 84.076883 
L 522.45808 84.076883 
L 517.928076 88.638832 
L 513.398071 79.820976 
L 508.868067 82.066225 
L 504.338063 80.081911 
L 499.808059 82.947956 
L 495.278055 104.736327 
L 490.74805 85.305204 
L 486.218046 89.968733 
L 481.688042 90.94872 
L 477.158038 103.17028 
L 472.628034 84.17979 
L 468.098029 82.127929 
L 463.568025 88.881892 
L 459.038021 83.463223 
L 454.508017 84.741468 
L 449.978013 83.937439 
L 445.448008 82.165444 
L 440.918004 69.939988 
L 436.388 90.210882 
L 431.857996 70.83706 
L 427.327992 74.926478 
L 422.797987 68.400337 
L 418.267983 75.086296 
L 413.737979 68.887546 
L 409.207975 65.128641 
L 404.677971 69.069517 
L 400.147966 76.561327 
L 395.617962 72.381838 
L 391.087958 69.520791 
L 386.557954 56.093026 
L 382.02795 60.641291 
L 377.497945 64.311903 
L 372.967941 75.419748 
L 368.437937 65.297057 
L 363.907933 73.615294 
L 359.377929 72.716693 
L 354.847924 78.66474 
L 350.31792 81.930161 
L 345.787916 64.304189 
L 341.257912 62.590394 
L 336.727908 81.237284 
L 332.197904 70.990534 
L 327.667899 79.177922 
L 323.137895 73.979666 
L 318.607891 75.616344 
L 314.077887 69.569985 
L 309.547883 92.733431 
L 305.017878 72.682877 
L 300.487874 75.261113 
L 295.95787 88.766786 
L 291.427866 93.069325 
L 286.897862 85.838808 
L 282.367857 97.185072 
L 277.837853 89.460558 
L 273.307849 114.456045 
L 268.777845 110.022595 
L 264.247841 137.032125 
L 259.717836 105.958232 
L 255.187832 94.439526 
L 250.657828 90.956935 
L 246.127824 88.718708 
L 241.59782 92.486081 
L 237.067815 94.451111 
L 232.537811 88.727847 
L 228.007807 98.129595 
L 223.477803 92.339091 
L 218.947799 101.917503 
L 214.417794 102.904682 
L 209.88779 98.170971 
L 205.357786 105.836689 
L 200.827782 120.549854 
L 196.297778 125.26834 
L 191.767773 121.768088 
L 187.237769 132.9906 
L 182.707765 143.295855 
L 178.177761 138.980007 
L 173.647757 156.991759 
L 169.117753 164.372913 
L 164.587748 171.970848 
L 160.057744 175.185587 
L 155.52774 179.538751 
L 150.997736 196.216115 
L 146.467732 191.746284 
L 141.937727 211.651696 
L 137.407723 202.757054 
L 132.877719 200.298964 
L 128.347715 215.382451 
L 123.817711 211.061271 
L 119.287706 213.509007 
L 114.757702 226.162951 
L 110.227698 217.045456 
L 105.697694 214.463863 
L 101.16769 212.348563 
L 96.637685 235.613068 
L 92.107681 241.102263 
L 87.577677 241.894864 
L 83.047673 253.616884 
L 78.517669 259.966687 
L 73.987664 263.330992 
z
" clip-path="url(#pcded72148f)" style="fill: #023eff; fill-opacity: 0.1"/>
   </g>
   <g id="line2d_9">
    <path d="M 73.987664 274.881294 
L 78.517669 280.01028 
L 83.047673 253.359219 
L 87.577677 255.106282 
L 92.107681 275.434056 
L 96.637685 255.008912 
L 101.16769 252.369812 
L 105.697694 254.570928 
L 110.227698 238.597295 
L 114.757702 266.445598 
L 119.287706 255.079828 
L 123.817711 246.213918 
L 128.347715 259.230977 
L 132.877719 253.910309 
L 137.407723 245.707247 
L 141.937727 236.916939 
L 146.467732 241.194686 
L 150.997736 237.817634 
L 155.52774 257.353302 
L 160.057744 230.040914 
L 164.587748 236.406165 
L 169.117753 237.507793 
L 173.647757 221.826999 
L 178.177761 234.365413 
L 182.707765 238.238165 
L 187.237769 226.660776 
L 191.767773 224.532516 
L 196.297778 236.217415 
L 200.827782 215.704557 
L 205.357786 213.625808 
L 209.88779 208.268637 
L 214.417794 193.33787 
L 218.947799 181.538651 
L 223.477803 177.097355 
L 228.007807 163.128715 
L 232.537811 134.702352 
L 237.067815 132.406945 
L 241.59782 114.132089 
L 246.127824 119.130886 
L 250.657828 111.504436 
L 255.187832 104.210294 
L 259.717836 209.382734 
L 264.247841 193.682188 
L 268.777845 160.103261 
L 273.307849 149.65322 
L 277.837853 114.551514 
L 282.367857 122.085399 
L 286.897862 93.174794 
L 291.427866 106.450959 
L 295.95787 105.331804 
L 300.487874 84.311933 
L 305.017878 90.343366 
L 309.547883 92.058702 
L 314.077887 94.197988 
L 318.607891 90.656189 
L 323.137895 85.920473 
L 327.667899 86.769539 
L 332.197904 84.32437 
L 336.727908 83.509194 
L 341.257912 76.701374 
L 345.787916 76.933027 
L 350.31792 79.420338 
L 354.847924 82.497032 
L 359.377929 93.398577 
L 363.907933 93.561977 
L 368.437937 90.959616 
L 372.967941 90.873205 
L 377.497945 86.675785 
L 382.02795 84.376512 
L 386.557954 82.670081 
L 391.087958 76.568732 
L 395.617962 85.807617 
L 400.147966 100.311057 
L 404.677971 87.172959 
L 409.207975 84.00044 
L 413.737979 86.639933 
L 418.267983 87.859802 
L 422.797987 81.350159 
L 427.327992 98.851599 
L 431.857996 88.361506 
L 436.388 115.671617 
L 440.918004 93.262511 
L 445.448008 110.71046 
L 449.978013 117.296812 
L 454.508017 121.809304 
L 459.038021 112.951696 
L 463.568025 142.817272 
L 468.098029 111.46469 
L 472.628034 125.311955 
L 477.158038 232.119215 
L 481.688042 172.060509 
L 486.218046 106.996436 
L 490.74805 109.780203 
L 495.278055 138.112262 
L 499.808059 105.998132 
L 504.338063 102.915692 
L 508.868067 102.462799 
L 513.398071 88.312367 
L 517.928076 99.149152 
L 522.45808 95.707895 
" clip-path="url(#pcded72148f)" style="fill: none; stroke: #1ac938; stroke-opacity: 0.27; stroke-width: 1.25; stroke-linecap: round"/>
   </g>
   <g id="line2d_10">
    <path d="M 73.987664 255.005852 
L 78.517669 260.043518 
L 83.047673 263.853271 
L 87.577677 253.656627 
L 92.107681 267.409497 
L 96.637685 251.921718 
L 101.16769 255.052826 
L 105.697694 243.157325 
L 110.227698 242.076235 
L 114.757702 253.268587 
L 119.287706 244.044799 
L 123.817711 247.12694 
L 128.347715 237.490684 
L 132.877719 241.716931 
L 137.407723 240.258145 
L 141.937727 230.096767 
L 146.467732 241.695018 
L 150.997736 242.518549 
L 155.52774 245.465532 
L 160.057744 237.514513 
L 164.587748 237.898272 
L 169.117753 250.031502 
L 173.647757 244.218123 
L 178.177761 241.753223 
L 182.707765 249.752352 
L 187.237769 247.611838 
L 191.767773 244.31342 
L 196.297778 241.398748 
L 200.827782 230.472595 
L 205.357786 234.622048 
L 209.88779 221.79498 
L 214.417794 220.647776 
L 218.947799 224.06047 
L 223.477803 228.793781 
L 228.007807 224.388731 
L 232.537811 214.5417 
L 237.067815 194.736478 
L 241.59782 192.381512 
L 246.127824 207.144802 
L 250.657828 181.633071 
L 255.187832 168.828612 
L 259.717836 179.510632 
L 264.247841 165.166325 
L 268.777845 159.596902 
L 273.307849 159.283539 
L 277.837853 157.421566 
L 282.367857 162.716015 
L 286.897862 162.422458 
L 291.427866 135.829192 
L 295.95787 106.691865 
L 300.487874 116.371069 
L 305.017878 112.657751 
L 309.547883 117.396763 
L 314.077887 101.542951 
L 318.607891 99.659653 
L 323.137895 96.681948 
L 327.667899 106.004338 
L 332.197904 104.138103 
L 336.727908 137.205389 
L 341.257912 78.244635 
L 345.787916 88.565806 
L 350.31792 95.029322 
L 354.847924 88.31131 
L 359.377929 87.090039 
L 363.907933 84.461631 
L 368.437937 86.807775 
L 372.967941 99.176242 
L 377.497945 90.661684 
L 382.02795 90.993997 
L 386.557954 91.301984 
L 391.087958 84.318647 
L 395.617962 85.510539 
L 400.147966 90.250925 
L 404.677971 84.247706 
L 409.207975 86.071473 
L 413.737979 90.29921 
L 418.267983 101.229415 
L 422.797987 83.932747 
L 427.327992 93.029794 
L 431.857996 86.334825 
L 436.388 81.285251 
L 440.918004 77.293332 
L 445.448008 86.750947 
L 449.978013 85.357307 
L 454.508017 82.346012 
L 459.038021 88.8949 
L 463.568025 86.122411 
L 468.098029 83.581453 
L 472.628034 81.401304 
L 477.158038 85.929287 
L 481.688042 94.378967 
L 486.218046 123.548429 
L 490.74805 88.676352 
L 495.278055 88.414847 
L 499.808059 86.800506 
L 504.338063 83.187986 
L 508.868067 84.043443 
L 513.398071 97.202719 
L 517.928076 97.819235 
L 522.45808 86.135474 
" clip-path="url(#pcded72148f)" style="fill: none; stroke: #1ac938; stroke-opacity: 0.27; stroke-width: 1.25; stroke-linecap: round"/>
   </g>
   <g id="line2d_11">
    <path d="M 73.987664 276.938016 
L 78.517669 262.84505 
L 83.047673 292.801579 
L 87.577677 277.122474 
L 92.107681 261.799565 
L 96.637685 240.474487 
L 101.16769 238.182206 
L 105.697694 248.990341 
L 110.227698 238.714379 
L 114.757702 243.843385 
L 119.287706 214.615019 
L 123.817711 226.639002 
L 128.347715 231.948488 
L 132.877719 224.280721 
L 137.407723 214.541237 
L 141.937727 230.276937 
L 146.467732 208.428918 
L 150.997736 232.003524 
L 155.52774 215.828192 
L 160.057744 215.350429 
L 164.587748 197.788777 
L 169.117753 165.544498 
L 173.647757 167.344001 
L 178.177761 123.251069 
L 182.707765 152.021693 
L 187.237769 138.352124 
L 191.767773 124.768896 
L 196.297778 136.658265 
L 200.827782 129.559709 
L 205.357786 102.877529 
L 209.88779 102.8041 
L 214.417794 112.833746 
L 218.947799 100.37404 
L 223.477803 105.78663 
L 228.007807 103.846456 
L 232.537811 116.55763 
L 237.067815 94.464926 
L 241.59782 97.339768 
L 246.127824 87.86634 
L 250.657828 94.059316 
L 255.187832 126.527963 
L 259.717836 242.522399 
L 264.247841 262.334676 
L 268.777845 245.750667 
L 273.307849 216.174382 
L 277.837853 258.020097 
L 282.367857 230.447237 
L 286.897862 236.826126 
L 291.427866 205.385836 
L 295.95787 218.766216 
L 300.487874 247.945101 
L 305.017878 240.81884 
L 309.547883 201.559084 
L 314.077887 215.978604 
L 318.607891 206.615187 
L 323.137895 200.706541 
L 327.667899 226.057097 
L 332.197904 227.808149 
L 336.727908 215.053392 
L 341.257912 215.146632 
L 345.787916 191.295006 
L 350.31792 170.188297 
L 354.847924 185.181623 
L 359.377929 226.559094 
L 363.907933 202.083156 
L 368.437937 227.279687 
L 372.967941 210.914347 
L 377.497945 232.935267 
L 382.02795 247.072232 
L 386.557954 255.212178 
L 391.087958 260.091375 
L 395.617962 273.482795 
L 400.147966 283.542581 
L 404.677971 269.045249 
L 409.207975 274.527564 
L 413.737979 263.998024 
L 418.267983 274.198457 
L 422.797987 251.459188 
L 427.327992 260.484911 
L 431.857996 258.826994 
L 436.388 258.736302 
L 440.918004 257.215339 
L 445.448008 246.598023 
L 449.978013 236.866687 
L 454.508017 228.672501 
L 459.038021 245.070167 
L 463.568025 233.700538 
L 468.098029 221.426453 
L 472.628034 239.00033 
L 477.158038 223.981662 
L 481.688042 225.625095 
L 486.218046 227.740586 
L 490.74805 215.988751 
L 495.278055 215.26062 
L 499.808059 210.191233 
L 504.338063 203.418627 
L 508.868067 216.848437 
L 513.398071 196.973654 
L 517.928076 181.824663 
L 522.45808 148.619395 
" clip-path="url(#pcded72148f)" style="fill: none; stroke: #1ac938; stroke-opacity: 0.27; stroke-width: 1.25; stroke-linecap: round"/>
   </g>
   <g id="line2d_12">
    <path d="M 73.987664 274.39019 
L 78.517669 274.23208 
L 83.047673 279.22184 
L 87.577677 251.23019 
L 92.107681 248.813574 
L 96.637685 249.603616 
L 101.16769 226.373021 
L 105.697694 213.796057 
L 110.227698 215.392602 
L 114.757702 232.373135 
L 119.287706 245.987038 
L 123.817711 251.094706 
L 128.347715 224.73298 
L 132.877719 202.611248 
L 137.407723 195.190716 
L 141.937727 212.694774 
L 146.467732 198.789129 
L 150.997736 206.159133 
L 155.52774 172.417733 
L 160.057744 154.049475 
L 164.587748 153.157151 
L 169.117753 160.27846 
L 173.647757 154.122686 
L 178.177761 151.107412 
L 182.707765 139.819933 
L 187.237769 127.631509 
L 191.767773 117.043077 
L 196.297778 117.068184 
L 200.827782 123.511425 
L 205.357786 128.073719 
L 209.88779 112.585702 
L 214.417794 127.711711 
L 218.947799 102.920141 
L 223.477803 99.004872 
L 228.007807 109.588697 
L 232.537811 96.864921 
L 237.067815 118.577738 
L 241.59782 113.404188 
L 246.127824 95.998767 
L 250.657828 111.930709 
L 255.187832 93.306269 
L 259.717836 101.187174 
L 264.247841 122.119526 
L 268.777845 85.897375 
L 273.307849 101.368306 
L 277.837853 83.580475 
L 282.367857 85.24944 
L 286.897862 83.037064 
L 291.427866 87.383207 
L 295.95787 103.621295 
L 300.487874 128.909273 
L 305.017878 106.239706 
L 309.547883 161.281982 
L 314.077887 90.935521 
L 318.607891 107.701785 
L 323.137895 98.976806 
L 327.667899 126.029474 
L 332.197904 124.769583 
L 336.727908 108.651391 
L 341.257912 107.902322 
L 345.787916 85.206959 
L 350.31792 113.486467 
L 354.847924 121.041586 
L 359.377929 113.618493 
L 363.907933 116.137719 
L 368.437937 103.331586 
L 372.967941 109.199208 
L 377.497945 108.468517 
L 382.02795 102.075609 
L 386.557954 86.663886 
L 391.087958 190.924237 
L 395.617962 188.168128 
L 400.147966 181.680014 
L 404.677971 183.435173 
L 409.207975 182.6525 
L 413.737979 180.912001 
L 418.267983 178.274152 
L 422.797987 167.519974 
L 427.327992 173.721353 
L 431.857996 168.297504 
L 436.388 172.024519 
L 440.918004 173.027502 
L 445.448008 173.963603 
L 449.978013 166.106248 
L 454.508017 156.786192 
L 459.038021 163.377796 
L 463.568025 164.233516 
L 468.098029 178.051487 
L 472.628034 166.587349 
L 477.158038 179.743241 
L 481.688042 121.418992 
L 486.218046 149.0809 
L 490.74805 189.313459 
L 495.278055 147.337318 
L 499.808059 173.319381 
L 504.338063 153.625176 
L 508.868067 175.95157 
L 513.398071 223.763543 
L 517.928076 185.107081 
L 522.45808 169.983242 
" clip-path="url(#pcded72148f)" style="fill: none; stroke: #1ac938; stroke-opacity: 0.27; stroke-width: 1.25; stroke-linecap: round"/>
   </g>
   <g id="line2d_13">
    <path d="M 73.987664 278.173559 
L 78.517669 261.99836 
L 83.047673 254.626533 
L 87.577677 236.895664 
L 92.107681 230.613507 
L 96.637685 228.726442 
L 101.16769 196.360419 
L 105.697694 207.609176 
L 110.227698 213.250051 
L 114.757702 218.143844 
L 119.287706 205.119415 
L 123.817711 192.803518 
L 128.347715 207.665094 
L 132.877719 193.215217 
L 137.407723 212.084963 
L 141.937727 206.446066 
L 146.467732 184.030231 
L 150.997736 180.018572 
L 155.52774 178.173032 
L 160.057744 190.547062 
L 164.587748 192.123647 
L 169.117753 191.988388 
L 173.647757 171.68304 
L 178.177761 175.770875 
L 182.707765 165.347368 
L 187.237769 164.191488 
L 191.767773 157.410075 
L 196.297778 153.905611 
L 200.827782 134.996569 
L 205.357786 118.6452 
L 209.88779 108.774123 
L 214.417794 98.60326 
L 218.947799 138.324735 
L 223.477803 107.184091 
L 228.007807 117.13459 
L 232.537811 98.187855 
L 237.067815 106.974688 
L 241.59782 113.680981 
L 246.127824 150.033115 
L 250.657828 109.15984 
L 255.187832 110.986567 
L 259.717836 92.791354 
L 264.247841 171.65448 
L 268.777845 152.682522 
L 273.307849 133.826499 
L 277.837853 131.470604 
L 282.367857 129.739495 
L 286.897862 131.0971 
L 291.427866 130.775241 
L 295.95787 129.51917 
L 300.487874 93.779962 
L 305.017878 95.410536 
L 309.547883 98.648516 
L 314.077887 89.783011 
L 318.607891 93.110566 
L 323.137895 99.79848 
L 327.667899 101.178489 
L 332.197904 82.694358 
L 336.727908 96.430089 
L 341.257912 93.419784 
L 345.787916 92.171977 
L 350.31792 105.969569 
L 354.847924 101.989778 
L 359.377929 101.883989 
L 363.907933 90.404227 
L 368.437937 89.087538 
L 372.967941 94.172957 
L 377.497945 85.845653 
L 382.02795 90.283134 
L 386.557954 97.059883 
L 391.087958 96.423716 
L 395.617962 99.542184 
L 400.147966 98.20646 
L 404.677971 88.948476 
L 409.207975 81.549695 
L 413.737979 81.588942 
L 418.267983 92.487934 
L 422.797987 90.23356 
L 427.327992 84.651392 
L 431.857996 90.66625 
L 436.388 128.72943 
L 440.918004 90.689349 
L 445.448008 94.70694 
L 449.978013 94.042478 
L 454.508017 95.866697 
L 459.038021 96.758414 
L 463.568025 89.414514 
L 468.098029 87.680457 
L 472.628034 93.878799 
L 477.158038 99.835294 
L 481.688042 94.589404 
L 486.218046 86.92632 
L 490.74805 89.819085 
L 495.278055 137.601836 
L 499.808059 88.082074 
L 504.338063 87.516616 
L 508.868067 93.361573 
L 513.398071 88.184576 
L 517.928076 92.602364 
L 522.45808 91.23 
" clip-path="url(#pcded72148f)" style="fill: none; stroke: #1ac938; stroke-opacity: 0.27; stroke-width: 1.25; stroke-linecap: round"/>
   </g>
   <g id="line2d_14">
    <path d="M 73.987664 53.23038 
L 78.517669 54.98114 
L 83.047673 64.433161 
L 87.577677 77.123864 
L 92.107681 100.47994 
L 96.637685 130.830794 
L 101.16769 169.72676 
L 105.697694 199.246 
L 110.227698 229.024104 
L 114.757702 232.470016 
L 119.287706 240.797777 
L 123.817711 249.928718 
L 128.347715 252.159276 
L 132.877719 253.266271 
L 137.407723 265.127909 
L 141.937727 249.644797 
L 146.467732 258.844096 
L 150.997736 261.803669 
L 155.52774 264.37005 
L 160.057744 259.231779 
L 164.587748 253.009725 
L 169.117753 256.267876 
L 173.647757 267.021304 
L 178.177761 271.177507 
L 182.707765 262.512089 
L 187.237769 274.377249 
L 191.767773 282.052817 
L 196.297778 279.431093 
L 200.827782 283.141981 
L 205.357786 290.964678 
L 209.88779 296.08454 
L 214.417794 296.368981 
L 218.947799 294.500776 
L 223.477803 297.488592 
L 228.007807 296.793095 
L 232.537811 294.966312 
L 237.067815 298.704315 
L 241.59782 311.922374 
L 246.127824 317.220684 
L 250.657828 316.292558 
L 255.187832 321.36962 
L 259.717836 284.149023 
L 264.247841 267.152962 
L 268.777845 270.484002 
L 273.307849 287.072418 
L 277.837853 298.372864 
L 282.367857 298.622914 
L 286.897862 303.811141 
L 291.427866 303.110746 
L 295.95787 301.229876 
L 300.487874 300.783196 
L 305.017878 301.375347 
L 309.547883 306.843364 
L 314.077887 302.186677 
L 318.607891 303.161564 
L 323.137895 310.279559 
L 327.667899 305.362618 
L 332.197904 304.000563 
L 336.727908 300.228084 
L 341.257912 310.819725 
L 345.787916 311.395327 
L 350.31792 304.809654 
L 354.847924 300.390885 
L 359.377929 297.581667 
L 363.907933 302.925682 
L 368.437937 305.95544 
L 372.967941 313.43798 
L 377.497945 314.453142 
L 382.02795 311.392976 
L 386.557954 315.919491 
L 391.087958 293.48979 
L 395.617962 288.285579 
L 400.147966 282.924988 
L 404.677971 277.816733 
L 409.207975 278.372255 
L 413.737979 281.167401 
L 418.267983 274.827534 
L 422.797987 273.101122 
L 427.327992 270.811412 
L 431.857996 269.799245 
L 436.388 263.501167 
L 440.918004 270.651848 
L 445.448008 263.575403 
L 449.978013 255.304572 
L 454.508017 251.903278 
L 459.038021 253.868397 
L 463.568025 243.0194 
L 468.098029 242.133419 
L 472.628034 237.189157 
L 477.158038 234.123492 
L 481.688042 239.948626 
L 486.218046 243.082796 
L 490.74805 235.836072 
L 495.278055 244.074816 
L 499.808059 231.763158 
L 504.338063 237.851531 
L 508.868067 242.262072 
L 513.398071 234.45525 
L 517.928076 234.067782 
L 522.45808 242.446429 
" clip-path="url(#pcded72148f)" style="fill: none; stroke: #8b2be2; stroke-width: 1.5; stroke-linecap: round"/>
   </g>
   <g id="line2d_15">
    <path d="M 73.987664 271.877782 
L 78.517669 267.825858 
L 83.047673 268.772488 
L 87.577677 254.802247 
L 92.107681 256.81404 
L 96.637685 245.147035 
L 101.16769 233.667657 
L 105.697694 233.624765 
L 110.227698 229.606112 
L 114.757702 242.81491 
L 119.287706 232.96922 
L 123.817711 232.775617 
L 128.347715 232.213645 
L 132.877719 223.146885 
L 137.407723 221.556462 
L 141.937727 223.286296 
L 146.467732 214.827597 
L 150.997736 219.703482 
L 155.52774 213.847558 
L 160.057744 205.500479 
L 164.587748 203.474802 
L 169.117753 201.070128 
L 173.647757 191.83897 
L 178.177761 185.249599 
L 182.707765 189.035902 
L 187.237769 180.889547 
L 191.767773 173.613597 
L 196.297778 177.049645 
L 200.827782 166.848971 
L 205.357786 159.568861 
L 209.88779 150.845508 
L 214.417794 150.626873 
L 218.947799 149.443607 
L 223.477803 143.573346 
L 228.007807 143.617438 
L 232.537811 132.170892 
L 237.067815 129.432155 
L 241.59782 126.187707 
L 246.127824 132.034782 
L 250.657828 121.657474 
L 255.187832 120.771941 
L 259.717836 165.078858 
L 264.247841 182.991439 
L 268.777845 160.806145 
L 273.307849 152.061189 
L 277.837853 149.008851 
L 282.367857 146.047517 
L 286.897862 141.311509 
L 291.427866 133.164887 
L 295.95787 132.78607 
L 300.487874 134.263468 
L 305.017878 129.09404 
L 309.547883 134.189009 
L 314.077887 118.487615 
L 318.607891 119.548676 
L 323.137895 116.416849 
L 327.667899 129.207787 
L 332.197904 124.746913 
L 336.727908 128.169891 
L 341.257912 114.28295 
L 345.787916 106.834555 
L 350.31792 112.818798 
L 354.847924 115.804266 
L 359.377929 124.510038 
L 363.907933 117.329742 
L 368.437937 119.49324 
L 372.967941 120.867192 
L 377.497945 120.917381 
L 382.02795 122.960297 
L 386.557954 122.581602 
L 391.087958 141.665341 
L 395.617962 146.502253 
L 400.147966 150.798207 
L 404.677971 142.569913 
L 409.207975 141.760334 
L 413.737979 140.687622 
L 418.267983 146.809952 
L 422.797987 134.899126 
L 427.327992 142.14781 
L 431.857996 138.497416 
L 436.388 151.289424 
L 440.918004 138.297607 
L 445.448008 142.545995 
L 449.978013 139.933906 
L 454.508017 137.096141 
L 459.038021 141.410595 
L 463.568025 143.25765 
L 468.098029 136.440908 
L 472.628034 141.235948 
L 477.158038 164.32174 
L 481.688042 141.614593 
L 486.218046 138.858534 
L 490.74805 138.71557 
L 495.278055 145.345377 
L 499.808059 132.878265 
L 504.338063 126.132819 
L 508.868067 134.533564 
L 513.398071 138.887372 
L 517.928076 131.300499 
L 522.45808 118.335201 
" clip-path="url(#pcded72148f)" style="fill: none; stroke: #023eff; stroke-width: 2; stroke-linecap: round"/>
   </g>
   <g id="line2d_16">
    <path d="M 65.14 88.982278 
L 529.2 88.982278 
" clip-path="url(#pcded72148f)" style="fill: none; stroke-dasharray: 1.25,2.0625; stroke-dashoffset: 0; stroke: #000000; stroke-opacity: 0.6; stroke-width: 1.25"/>
   </g>
   <g id="patch_3">
    <path d="M 65.14 328.52 
L 65.14 46.08 
" style="fill: none; stroke: #ffffff; stroke-width: 0.8; stroke-linejoin: miter; stroke-linecap: square"/>
   </g>
   <g id="patch_4">
    <path d="M 529.2 328.52 
L 529.2 46.08 
" style="fill: none; stroke: #ffffff; stroke-width: 0.8; stroke-linejoin: miter; stroke-linecap: square"/>
   </g>
   <g id="patch_5">
    <path d="M 65.14 328.52 
L 529.2 328.52 
" style="fill: none; stroke: #ffffff; stroke-width: 0.8; stroke-linejoin: miter; stroke-linecap: square"/>
   </g>
   <g id="patch_6">
    <path d="M 65.14 46.08 
L 529.2 46.08 
" style="fill: none; stroke: #ffffff; stroke-width: 0.8; stroke-linejoin: miter; stroke-linecap: square"/>
   </g>
  </g>
  <g id="text_9">
   <!-- GNN | Entropy -->
   <g style="fill: #262626" transform="translate(174.2775 25.54125) scale(0.24 -0.24)">
    <defs>
     <path id="DejaVuSans-Bold-47" d="M 4781 347 
Q 4331 128 3847 18 
Q 3363 -91 2847 -91 
Q 1681 -91 1000 561 
Q 319 1213 319 2328 
Q 319 3456 1012 4103 
Q 1706 4750 2913 4750 
Q 3378 4750 3804 4662 
Q 4231 4575 4609 4403 
L 4609 3438 
Q 4219 3659 3833 3768 
Q 3447 3878 3059 3878 
Q 2341 3878 1952 3476 
Q 1563 3075 1563 2328 
Q 1563 1588 1938 1184 
Q 2313 781 3003 781 
Q 3191 781 3352 804 
Q 3513 828 3641 878 
L 3641 1784 
L 2906 1784 
L 2906 2591 
L 4781 2591 
L 4781 347 
z
" transform="scale(0.015625)"/>
     <path id="DejaVuSans-Bold-4e" d="M 588 4666 
L 1931 4666 
L 3628 1466 
L 3628 4666 
L 4769 4666 
L 4769 0 
L 3425 0 
L 1728 3200 
L 1728 0 
L 588 0 
L 588 4666 
z
" transform="scale(0.015625)"/>
     <path id="DejaVuSans-Bold-20" transform="scale(0.015625)"/>
     <path id="DejaVuSans-Bold-7c" d="M 1522 4891 
L 1522 -1509 
L 813 -1509 
L 813 4891 
L 1522 4891 
z
" transform="scale(0.015625)"/>
     <path id="DejaVuSans-Bold-45" d="M 588 4666 
L 3834 4666 
L 3834 3756 
L 1791 3756 
L 1791 2888 
L 3713 2888 
L 3713 1978 
L 1791 1978 
L 1791 909 
L 3903 909 
L 3903 0 
L 588 0 
L 588 4666 
z
" transform="scale(0.015625)"/>
     <path id="DejaVuSans-Bold-6e" d="M 4056 2131 
L 4056 0 
L 2931 0 
L 2931 347 
L 2931 1631 
Q 2931 2084 2911 2256 
Q 2891 2428 2841 2509 
Q 2775 2619 2662 2680 
Q 2550 2741 2406 2741 
Q 2056 2741 1856 2470 
Q 1656 2200 1656 1722 
L 1656 0 
L 538 0 
L 538 3500 
L 1656 3500 
L 1656 2988 
Q 1909 3294 2193 3439 
Q 2478 3584 2822 3584 
Q 3428 3584 3742 3212 
Q 4056 2841 4056 2131 
z
" transform="scale(0.015625)"/>
     <path id="DejaVuSans-Bold-74" d="M 1759 4494 
L 1759 3500 
L 2913 3500 
L 2913 2700 
L 1759 2700 
L 1759 1216 
Q 1759 972 1856 886 
Q 1953 800 2241 800 
L 2816 800 
L 2816 0 
L 1856 0 
Q 1194 0 917 276 
Q 641 553 641 1216 
L 641 2700 
L 84 2700 
L 84 3500 
L 641 3500 
L 641 4494 
L 1759 4494 
z
" transform="scale(0.015625)"/>
     <path id="DejaVuSans-Bold-72" d="M 3138 2547 
Q 2991 2616 2845 2648 
Q 2700 2681 2553 2681 
Q 2122 2681 1889 2404 
Q 1656 2128 1656 1613 
L 1656 0 
L 538 0 
L 538 3500 
L 1656 3500 
L 1656 2925 
Q 1872 3269 2151 3426 
Q 2431 3584 2822 3584 
Q 2878 3584 2943 3579 
Q 3009 3575 3134 3559 
L 3138 2547 
z
" transform="scale(0.015625)"/>
     <path id="DejaVuSans-Bold-6f" d="M 2203 2784 
Q 1831 2784 1636 2517 
Q 1441 2250 1441 1747 
Q 1441 1244 1636 976 
Q 1831 709 2203 709 
Q 2569 709 2762 976 
Q 2956 1244 2956 1747 
Q 2956 2250 2762 2517 
Q 2569 2784 2203 2784 
z
M 2203 3584 
Q 3106 3584 3614 3096 
Q 4122 2609 4122 1747 
Q 4122 884 3614 396 
Q 3106 -91 2203 -91 
Q 1297 -91 786 396 
Q 275 884 275 1747 
Q 275 2609 786 3096 
Q 1297 3584 2203 3584 
z
" transform="scale(0.015625)"/>
     <path id="DejaVuSans-Bold-70" d="M 1656 506 
L 1656 -1331 
L 538 -1331 
L 538 3500 
L 1656 3500 
L 1656 2988 
Q 1888 3294 2169 3439 
Q 2450 3584 2816 3584 
Q 3463 3584 3878 3070 
Q 4294 2556 4294 1747 
Q 4294 938 3878 423 
Q 3463 -91 2816 -91 
Q 2450 -91 2169 54 
Q 1888 200 1656 506 
z
M 2400 2772 
Q 2041 2772 1848 2508 
Q 1656 2244 1656 1747 
Q 1656 1250 1848 986 
Q 2041 722 2400 722 
Q 2759 722 2948 984 
Q 3138 1247 3138 1747 
Q 3138 2247 2948 2509 
Q 2759 2772 2400 2772 
z
" transform="scale(0.015625)"/>
     <path id="DejaVuSans-Bold-79" d="M 78 3500 
L 1197 3500 
L 2138 1125 
L 2938 3500 
L 4056 3500 
L 2584 -331 
Q 2363 -916 2067 -1148 
Q 1772 -1381 1288 -1381 
L 641 -1381 
L 641 -647 
L 991 -647 
Q 1275 -647 1404 -556 
Q 1534 -466 1606 -231 
L 1638 -134 
L 78 3500 
z
" transform="scale(0.015625)"/>
    </defs>
    <use xlink:href="#DejaVuSans-Bold-47"/>
    <use xlink:href="#DejaVuSans-Bold-4e" transform="translate(82.080078 0)"/>
    <use xlink:href="#DejaVuSans-Bold-4e" transform="translate(165.771484 0)"/>
    <use xlink:href="#DejaVuSans-Bold-20" transform="translate(249.462891 0)"/>
    <use xlink:href="#DejaVuSans-Bold-7c" transform="translate(284.277344 0)"/>
    <use xlink:href="#DejaVuSans-Bold-20" transform="translate(320.800781 0)"/>
    <use xlink:href="#DejaVuSans-Bold-45" transform="translate(355.615234 0)"/>
    <use xlink:href="#DejaVuSans-Bold-6e" transform="translate(423.925781 0)"/>
    <use xlink:href="#DejaVuSans-Bold-74" transform="translate(495.117188 0)"/>
    <use xlink:href="#DejaVuSans-Bold-72" transform="translate(542.919922 0)"/>
    <use xlink:href="#DejaVuSans-Bold-6f" transform="translate(592.236328 0)"/>
    <use xlink:href="#DejaVuSans-Bold-70" transform="translate(660.9375 0)"/>
    <use xlink:href="#DejaVuSans-Bold-79" transform="translate(732.519531 0)"/>
   </g>
  </g>
 </g>
 <defs>
  <clipPath id="pcded72148f">
   <rect x="65.14" y="46.08" width="464.06" height="282.44"/>
  </clipPath>
 </defs>
</svg>
