<?xml version="1.0" encoding="utf-8" standalone="no"?>
<!DOCTYPE svg PUBLIC "-//W3C//DTD SVG 1.1//EN"
  "http://www.w3.org/Graphics/SVG/1.1/DTD/svg11.dtd">
<svg xmlns:xlink="http://www.w3.org/1999/xlink" width="540pt" height="360pt" viewBox="0 0 540 360" xmlns="http://www.w3.org/2000/svg" version="1.1">
 <metadata>
  <rdf:RDF xmlns:dc="http://purl.org/dc/elements/1.1/" xmlns:cc="http://creativecommons.org/ns#" xmlns:rdf="http://www.w3.org/1999/02/22-rdf-syntax-ns#">
   <cc:Work>
    <dc:type rdf:resource="http://purl.org/dc/dcmitype/StillImage"/>
    <dc:date>2025-08-04T02:53:18.122273</dc:date>
    <dc:format>image/svg+xml</dc:format>
    <dc:creator>
     <cc:Agent>
      <dc:title>Matplotlib v3.10.0, https://matplotlib.org/</dc:title>
     </cc:Agent>
    </dc:creator>
   </cc:Work>
  </rdf:RDF>
 </metadata>
 <defs>
  <style type="text/css">*{stroke-linejoin: round; stroke-linecap: butt}</style>
 </defs>
 <g id="figure_1">
  <g id="patch_1">
   <path d="M 0 360 
L 540 360 
L 540 0 
L 0 0 
z
" style="fill: #ffffff"/>
  </g>
  <g id="axes_1">
   <g id="patch_2">
    <path d="M 10.8 328.52 
L 529.2 328.52 
L 529.2 46.08 
L 10.8 46.08 
z
" style="fill: #eaeaf2"/>
   </g>
   <g id="matplotlib.axis_1">
    <g id="xtick_1">
     <g id="line2d_1">
      <path d="M 20.683699 328.52 
L 20.683699 46.08 
" clip-path="url(#p16f6e652bb)" style="fill: none; stroke: #ffffff; stroke-width: 0.8; stroke-linecap: round"/>
     </g>
     <g id="text_1">
      <!-- 0 -->
      <g style="fill: #262626" transform="translate(16.229949 346.157812) scale(0.14 -0.14)">
       <defs>
        <path id="DejaVuSans-30" d="M 2034 4250 
Q 1547 4250 1301 3770 
Q 1056 3291 1056 2328 
Q 1056 1369 1301 889 
Q 1547 409 2034 409 
Q 2525 409 2770 889 
Q 3016 1369 3016 2328 
Q 3016 3291 2770 3770 
Q 2525 4250 2034 4250 
z
M 2034 4750 
Q 2819 4750 3233 4129 
Q 3647 3509 3647 2328 
Q 3647 1150 3233 529 
Q 2819 -91 2034 -91 
Q 1250 -91 836 529 
Q 422 1150 422 2328 
Q 422 3509 836 4129 
Q 1250 4750 2034 4750 
z
" transform="scale(0.015625)"/>
       </defs>
       <use xlink:href="#DejaVuSans-30"/>
      </g>
     </g>
    </g>
    <g id="xtick_2">
     <g id="line2d_2">
      <path d="M 514.868637 328.52 
L 514.868637 46.08 
" clip-path="url(#p16f6e652bb)" style="fill: none; stroke: #ffffff; stroke-width: 0.8; stroke-linecap: round"/>
     </g>
     <g id="text_2">
      <!-- 2M -->
      <g style="fill: #262626" transform="translate(504.375199 346.157812) scale(0.14 -0.14)">
       <defs>
        <path id="DejaVuSans-32" d="M 1228 531 
L 3431 531 
L 3431 0 
L 469 0 
L 469 531 
Q 828 903 1448 1529 
Q 2069 2156 2228 2338 
Q 2531 2678 2651 2914 
Q 2772 3150 2772 3378 
Q 2772 3750 2511 3984 
Q 2250 4219 1831 4219 
Q 1534 4219 1204 4116 
Q 875 4013 500 3803 
L 500 4441 
Q 881 4594 1212 4672 
Q 1544 4750 1819 4750 
Q 2544 4750 2975 4387 
Q 3406 4025 3406 3419 
Q 3406 3131 3298 2873 
Q 3191 2616 2906 2266 
Q 2828 2175 2409 1742 
Q 1991 1309 1228 531 
z
" transform="scale(0.015625)"/>
        <path id="DejaVuSans-4d" d="M 628 4666 
L 1569 4666 
L 2759 1491 
L 3956 4666 
L 4897 4666 
L 4897 0 
L 4281 0 
L 4281 4097 
L 3078 897 
L 2444 897 
L 1241 4097 
L 1241 0 
L 628 0 
L 628 4666 
z
" transform="scale(0.015625)"/>
       </defs>
       <use xlink:href="#DejaVuSans-32"/>
       <use xlink:href="#DejaVuSans-4d" transform="translate(63.623047 0)"/>
      </g>
     </g>
    </g>
   </g>
   <g id="matplotlib.axis_2">
    <g id="ytick_1">
     <g id="line2d_3">
      <path d="M 10.8 323.476429 
L 529.2 323.476429 
" clip-path="url(#p16f6e652bb)" style="fill: none; stroke: #ffffff; stroke-width: 0.8; stroke-linecap: round"/>
     </g>
    </g>
    <g id="ytick_2">
     <g id="line2d_4">
      <path d="M 10.8 291.954107 
L 529.2 291.954107 
" clip-path="url(#p16f6e652bb)" style="fill: none; stroke: #ffffff; stroke-width: 0.8; stroke-linecap: round"/>
     </g>
    </g>
    <g id="ytick_3">
     <g id="line2d_5">
      <path d="M 10.8 260.431786 
L 529.2 260.431786 
" clip-path="url(#p16f6e652bb)" style="fill: none; stroke: #ffffff; stroke-width: 0.8; stroke-linecap: round"/>
     </g>
    </g>
    <g id="ytick_4">
     <g id="line2d_6">
      <path d="M 10.8 228.909464 
L 529.2 228.909464 
" clip-path="url(#p16f6e652bb)" style="fill: none; stroke: #ffffff; stroke-width: 0.8; stroke-linecap: round"/>
     </g>
    </g>
    <g id="ytick_5">
     <g id="line2d_7">
      <path d="M 10.8 197.387143 
L 529.2 197.387143 
" clip-path="url(#p16f6e652bb)" style="fill: none; stroke: #ffffff; stroke-width: 0.8; stroke-linecap: round"/>
     </g>
    </g>
    <g id="ytick_6">
     <g id="line2d_8">
      <path d="M 10.8 165.864821 
L 529.2 165.864821 
" clip-path="url(#p16f6e652bb)" style="fill: none; stroke: #ffffff; stroke-width: 0.8; stroke-linecap: round"/>
     </g>
    </g>
    <g id="ytick_7">
     <g id="line2d_9">
      <path d="M 10.8 134.3425 
L 529.2 134.3425 
" clip-path="url(#p16f6e652bb)" style="fill: none; stroke: #ffffff; stroke-width: 0.8; stroke-linecap: round"/>
     </g>
    </g>
    <g id="ytick_8">
     <g id="line2d_10">
      <path d="M 10.8 102.820179 
L 529.2 102.820179 
" clip-path="url(#p16f6e652bb)" style="fill: none; stroke: #ffffff; stroke-width: 0.8; stroke-linecap: round"/>
     </g>
    </g>
    <g id="ytick_9">
     <g id="line2d_11">
      <path d="M 10.8 71.297857 
L 529.2 71.297857 
" clip-path="url(#p16f6e652bb)" style="fill: none; stroke: #ffffff; stroke-width: 0.8; stroke-linecap: round"/>
     </g>
    </g>
   </g>
   <g id="FillBetweenPolyCollection_1">
    <path d="M 20.683699 67.700769 
L 20.683699 79.608869 
L 21.69579 80.516191 
L 22.70788 82.067466 
L 23.719971 83.995927 
L 24.732062 86.264698 
L 25.744153 89.007768 
L 26.756243 92.258085 
L 27.768334 95.825427 
L 28.780425 99.507186 
L 29.792516 103.358609 
L 30.804606 107.657782 
L 31.816697 112.602993 
L 32.828788 118.103661 
L 33.840879 123.882747 
L 34.852969 129.740433 
L 35.86506 135.677695 
L 36.877151 141.783768 
L 37.889242 148.082685 
L 38.901332 154.529277 
L 39.913423 161.094952 
L 40.925514 167.77507 
L 41.937605 174.502677 
L 42.949695 181.097943 
L 43.961786 187.335363 
L 44.973877 193.073374 
L 45.985968 198.331258 
L 46.998058 203.248758 
L 48.010149 207.965603 
L 49.02224 212.541339 
L 50.034331 216.979591 
L 51.046421 221.273115 
L 52.058512 225.396182 
L 53.070603 229.310766 
L 54.082694 233.039343 
L 55.094784 236.694436 
L 56.106875 240.364829 
L 57.118966 243.967821 
L 58.131057 247.270807 
L 59.143147 250.087627 
L 60.155238 252.436136 
L 61.167329 254.506977 
L 62.17942 256.519773 
L 63.19151 258.606642 
L 64.203601 260.769901 
L 65.215692 262.90899 
L 66.227783 264.904765 
L 67.239873 266.704209 
L 68.251964 268.341038 
L 69.264055 269.892869 
L 70.276146 271.425421 
L 71.288236 272.954166 
L 72.300327 274.425133 
L 73.312418 275.732293 
L 74.324509 276.80322 
L 75.336599 277.699202 
L 76.34869 278.598766 
L 77.360781 279.649034 
L 78.372872 280.838254 
L 79.384962 282.016229 
L 80.397053 283.023206 
L 81.409144 283.798455 
L 82.421235 284.390204 
L 83.433325 284.895233 
L 84.445416 285.402623 
L 85.457507 285.970579 
L 86.469598 286.621417 
L 87.481688 287.344494 
L 88.493779 288.106642 
L 89.50587 288.858181 
L 90.517961 289.536096 
L 91.530051 290.085129 
L 92.542142 290.49589 
L 93.554233 290.823904 
L 94.566324 291.164227 
L 95.578414 291.602893 
L 96.590505 292.180596 
L 97.602596 292.880321 
L 98.614687 293.636273 
L 99.626778 294.36495 
L 100.638868 295.006151 
L 101.650959 295.549271 
L 102.66305 296.026018 
L 103.675141 296.476554 
L 104.687231 296.926384 
L 105.699322 297.39945 
L 106.711413 297.940072 
L 107.723504 298.598763 
L 108.735594 299.393183 
L 109.747685 300.292798 
L 110.759776 301.234627 
L 111.771867 302.141875 
L 112.783957 302.939505 
L 113.796048 303.57675 
L 114.808139 304.047927 
L 115.82023 304.393312 
L 116.83232 304.67782 
L 117.844411 304.963641 
L 118.856502 305.295382 
L 119.868593 305.699141 
L 120.880683 306.177892 
L 121.892774 306.698691 
L 122.904865 307.19384 
L 123.916956 307.597298 
L 124.929046 307.898735 
L 125.941137 308.159253 
L 126.953228 308.460439 
L 127.965319 308.840383 
L 128.977409 309.283439 
L 129.9895 309.754711 
L 131.001591 310.229395 
L 132.013682 310.69982 
L 133.025772 311.167273 
L 134.037863 311.623589 
L 135.049954 312.042224 
L 136.062045 312.395352 
L 137.074135 312.676307 
L 138.086226 312.899282 
L 139.098317 313.082369 
L 140.110408 313.23441 
L 141.122498 313.35346 
L 142.134589 313.437945 
L 143.14668 313.499899 
L 144.158771 313.563307 
L 145.170861 313.649205 
L 146.182952 313.765575 
L 147.195043 313.90529 
L 148.207134 314.045884 
L 149.219224 314.158159 
L 150.231315 314.220808 
L 151.243406 314.219485 
L 152.255497 314.133748 
L 153.267587 313.949724 
L 154.279678 313.697871 
L 155.291769 313.461308 
L 156.30386 313.327239 
L 157.31595 313.327696 
L 158.328041 313.428559 
L 159.340132 313.571193 
L 160.352223 313.718629 
L 161.364313 313.859398 
L 162.376404 313.97672 
L 163.388495 314.033365 
L 164.400586 313.99902 
L 165.412676 313.887925 
L 166.424767 313.756262 
L 167.436858 313.65923 
L 168.448949 313.621446 
L 169.461039 313.651066 
L 170.47313 313.765417 
L 171.485221 313.98797 
L 172.497312 314.314592 
L 173.509402 314.678528 
L 174.521493 314.959218 
L 175.533584 315.058675 
L 176.545675 314.988746 
L 177.557765 314.875856 
L 178.569856 314.866463 
L 179.581947 315.014294 
L 180.594038 315.242444 
L 181.606129 315.411171 
L 182.618219 315.434461 
L 183.63031 315.338871 
L 184.642401 315.218133 
L 185.654492 315.149122 
L 186.666582 315.152999 
L 187.678673 315.206744 
L 188.690764 315.269552 
L 189.702855 315.311319 
L 190.714945 315.335584 
L 191.727036 315.373272 
L 192.739127 315.448159 
L 193.751218 315.554371 
L 194.763308 315.663832 
L 195.775399 315.744182 
L 196.78749 315.773459 
L 197.799581 315.751459 
L 198.811671 315.701384 
L 199.823762 315.657198 
L 200.835853 315.643883 
L 201.847944 315.66268 
L 202.860034 315.694251 
L 203.872125 315.717244 
L 204.884216 315.723541 
L 205.896307 315.721669 
L 206.908397 315.732058 
L 207.920488 315.772444 
L 208.932579 315.839163 
L 209.94467 315.906699 
L 210.95676 315.949866 
L 211.968851 315.965152 
L 212.980942 315.974141 
L 213.993033 316.009235 
L 215.005123 316.085959 
L 216.017214 316.180055 
L 217.029305 316.240102 
L 218.041396 316.23348 
L 219.053486 316.178499 
L 220.065577 316.129432 
L 221.077668 316.134535 
L 222.089759 316.203872 
L 223.101849 316.306148 
L 224.11394 316.392539 
L 225.126031 316.4312 
L 226.138122 316.431574 
L 227.150212 316.43983 
L 228.162303 316.501504 
L 229.174394 316.619522 
L 230.186485 316.74966 
L 231.198575 316.838622 
L 232.210666 316.864721 
L 233.222757 316.846613 
L 234.234848 316.822909 
L 235.246938 316.822829 
L 236.259029 316.846782 
L 237.27112 316.870116 
L 238.283211 316.865847 
L 239.295301 316.82583 
L 240.307392 316.76538 
L 241.319483 316.711275 
L 242.331574 316.683371 
L 243.343664 316.684303 
L 244.355755 316.702035 
L 245.367846 316.71749 
L 246.379937 316.713828 
L 247.392027 316.688268 
L 248.404118 316.655802 
L 249.416209 316.635844 
L 250.4283 316.635599 
L 251.44039 316.646629 
L 252.452481 316.65538 
L 253.464572 316.662482 
L 254.476663 316.698787 
L 255.488753 316.814409 
L 256.500844 317.038485 
L 257.512935 317.34451 
L 258.525026 317.650831 
L 259.537116 317.854785 
L 260.549207 317.884717 
L 261.561298 317.742473 
L 262.573389 317.49848 
L 263.58548 317.238886 
L 264.59757 317.016432 
L 265.609661 316.845632 
L 266.621752 316.727301 
L 267.633843 316.667447 
L 268.645933 316.675778 
L 269.658024 316.752025 
L 270.670115 316.88266 
L 271.682206 317.062002 
L 272.694296 317.322398 
L 273.706387 317.730652 
L 274.718478 318.325775 
L 275.730569 319.039797 
L 276.742659 319.686649 
L 277.75475 320.048665 
L 278.766841 319.992225 
L 279.778932 319.53676 
L 280.791022 318.85275 
L 281.803113 318.179567 
L 282.815204 317.692698 
L 283.827295 317.42268 
L 284.839385 317.292574 
L 285.851476 317.214767 
L 286.863567 317.148481 
L 287.875658 317.093527 
L 288.887748 317.060676 
L 289.899839 317.053058 
L 290.91193 317.065175 
L 291.924021 317.088712 
L 292.936111 317.11488 
L 293.948202 317.13565 
L 294.960293 317.149191 
L 295.972384 317.161836 
L 296.984474 317.178534 
L 297.996565 317.195564 
L 299.008656 317.20829 
L 300.020747 317.219063 
L 301.032837 317.231328 
L 302.044928 317.243662 
L 303.057019 317.254378 
L 304.06911 317.263943 
L 305.0812 317.26907 
L 306.093291 317.262548 
L 307.105382 317.245378 
L 308.117473 317.233648 
L 309.129563 317.244591 
L 310.141654 317.275084 
L 311.153745 317.300571 
L 312.165836 317.29753 
L 313.177926 317.264103 
L 314.190017 317.220768 
L 315.202108 317.196308 
L 316.214199 317.210024 
L 317.226289 317.257882 
L 318.23838 317.314241 
L 319.250471 317.35299 
L 320.262562 317.36982 
L 321.274652 317.382838 
L 322.286743 317.411798 
L 323.298834 317.458301 
L 324.310925 317.505333 
L 325.323015 317.532762 
L 326.335106 317.533224 
L 327.347197 317.518854 
L 328.359288 317.515513 
L 329.371378 317.544747 
L 330.383469 317.604481 
L 331.39556 317.668266 
L 332.407651 317.705846 
L 333.419741 317.704084 
L 334.431832 317.670847 
L 335.443923 317.625651 
L 336.456014 317.587643 
L 337.468104 317.567969 
L 338.480195 317.570665 
L 339.492286 317.596905 
L 340.504377 317.642731 
L 341.516467 317.695202 
L 342.528558 317.739642 
L 343.540649 317.770223 
L 344.55274 317.787997 
L 345.564831 317.791845 
L 346.576921 317.776749 
L 347.589012 317.739922 
L 348.601103 317.687967 
L 349.613194 317.639271 
L 350.625284 317.615176 
L 351.637375 317.624426 
L 352.649466 317.656881 
L 353.661557 317.695406 
L 354.673647 317.739315 
L 355.685738 317.828084 
L 356.697829 318.054015 
L 357.70992 318.551047 
L 358.72201 319.445899 
L 359.734101 320.784677 
L 360.746192 322.481077 
L 361.758283 324.32905 
L 362.770373 326.071204 
L 363.782464 327.475243 
L 364.794555 328.385222 
L 365.806646 328.740763 
L 366.818736 328.576963 
L 367.830827 328.018296 
L 368.842918 327.258965 
L 369.855009 326.517573 
L 370.867099 325.968791 
L 371.87919 325.680539 
L 372.891281 325.603528 
L 373.903372 325.63852 
L 374.915462 325.729955 
L 375.927553 325.886446 
L 376.939644 326.0917 
L 377.951735 326.220351 
L 378.963825 326.108069 
L 379.975916 325.745041 
L 380.988007 325.370866 
L 382.000098 325.324778 
L 383.012188 325.779751 
L 384.024279 326.621235 
L 385.03637 327.562034 
L 386.048461 328.334106 
L 387.060551 328.794658 
L 388.072642 328.944488 
L 389.084733 328.884094 
L 390.096824 328.708757 
L 391.108914 328.436073 
L 392.121005 328.06968 
L 393.133096 327.685017 
L 394.145187 327.369405 
L 395.157277 327.107193 
L 396.169368 326.805704 
L 397.181459 326.41091 
L 398.19355 325.93578 
L 399.20564 325.414142 
L 400.217731 324.899419 
L 401.229822 324.500453 
L 402.241913 324.356997 
L 403.254003 324.54019 
L 404.266094 324.978614 
L 405.278185 325.508528 
L 406.290276 326.00194 
L 407.302366 326.4189 
L 408.314457 326.745078 
L 409.326548 326.94072 
L 410.338639 326.982324 
L 411.350729 326.910313 
L 412.36282 326.79829 
L 413.374911 326.698633 
L 414.387002 326.634169 
L 415.399092 326.601023 
L 416.411183 326.548895 
L 417.423274 326.396564 
L 418.435365 326.10907 
L 419.447455 325.765426 
L 420.459546 325.5411 
L 421.471637 325.590153 
L 422.483728 325.889351 
L 423.495818 326.19048 
L 424.507909 326.189044 
L 425.52 325.804544 
L 426.532091 325.303957 
L 427.544182 325.113214 
L 428.556272 325.465841 
L 429.568363 326.208974 
L 430.580454 326.936456 
L 431.592545 327.325796 
L 432.604635 327.389423 
L 433.616726 327.422564 
L 434.628817 327.701279 
L 435.640908 328.215723 
L 436.652998 328.665191 
L 437.665089 328.685897 
L 438.67718 328.125453 
L 439.689271 327.171688 
L 440.701361 326.224745 
L 441.713452 325.612518 
L 442.725543 325.408364 
L 443.737634 325.471258 
L 444.749724 325.587178 
L 445.761815 325.569104 
L 446.773906 325.302693 
L 447.785997 324.777937 
L 448.798087 324.100897 
L 449.810178 323.448188 
L 450.822269 322.982806 
L 451.83436 322.800264 
L 452.84645 322.925871 
L 453.858541 323.316519 
L 454.870632 323.856004 
L 455.882723 324.391909 
L 456.894813 324.819072 
L 457.906904 325.137153 
L 458.918995 325.418084 
L 459.931086 325.716259 
L 460.943176 326.003581 
L 461.955267 326.164109 
L 462.967358 326.040026 
L 463.979449 325.533775 
L 464.991539 324.722503 
L 466.00363 323.841693 
L 467.015721 323.106322 
L 468.027812 322.579008 
L 469.039902 322.239257 
L 470.051993 322.105808 
L 471.064084 322.207773 
L 472.076175 322.464565 
L 473.088265 322.683689 
L 474.100356 322.703793 
L 475.112447 322.502868 
L 476.124538 322.166879 
L 477.136628 321.806433 
L 478.148719 321.51906 
L 479.16081 321.36772 
L 480.172901 321.342797 
L 481.184991 321.366919 
L 482.197082 321.37448 
L 483.209173 321.379206 
L 484.221264 321.444096 
L 485.233354 321.598384 
L 486.245445 321.806636 
L 487.257536 322.003855 
L 488.269627 322.124428 
L 489.281717 322.110854 
L 490.293808 321.947926 
L 491.305899 321.701999 
L 492.31799 321.494206 
L 493.33008 321.411961 
L 494.342171 321.443335 
L 495.354262 321.493589 
L 496.366353 321.463352 
L 497.378443 321.321305 
L 498.390534 321.114114 
L 499.402625 320.906831 
L 500.414716 320.718462 
L 501.426806 320.531965 
L 502.438897 320.356332 
L 503.450988 320.238682 
L 504.463079 320.202196 
L 505.475169 320.202337 
L 506.48726 320.161255 
L 507.499351 320.030027 
L 508.511442 319.811536 
L 509.523533 319.54873 
L 510.535623 319.308865 
L 511.547714 319.160935 
L 512.559805 319.135458 
L 513.571896 319.194619 
L 514.583986 319.253146 
L 515.596077 319.23635 
L 516.608168 319.123746 
L 517.620259 318.955206 
L 518.632349 318.80487 
L 519.64444 318.733638 
L 520.656531 318.746895 
L 521.668622 318.790245 
L 522.680712 318.787301 
L 523.692803 318.69561 
L 524.704894 318.546029 
L 525.716985 318.430307 
L 525.716985 317.000926 
L 525.716985 317.000926 
L 524.704894 317.030216 
L 523.692803 317.074256 
L 522.680712 317.113603 
L 521.668622 317.134047 
L 520.656531 317.130616 
L 519.64444 317.107267 
L 518.632349 317.074791 
L 517.620259 317.045215 
L 516.608168 317.024704 
L 515.596077 317.011696 
L 514.583986 317.001075 
L 513.571896 316.98887 
L 512.559805 316.973808 
L 511.547714 316.954365 
L 510.535623 316.923565 
L 509.523533 316.86935 
L 508.511442 316.785565 
L 507.499351 316.683359 
L 506.48726 316.587581 
L 505.475169 316.518331 
L 504.463079 316.474061 
L 503.450988 316.433894 
L 502.438897 316.37719 
L 501.426806 316.298084 
L 500.414716 316.202628 
L 499.402625 316.102352 
L 498.390534 316.016114 
L 497.378443 315.967941 
L 496.366353 315.971033 
L 495.354262 316.012867 
L 494.342171 316.057604 
L 493.33008 316.061639 
L 492.31799 315.995949 
L 491.305899 315.867583 
L 490.293808 315.720086 
L 489.281717 315.604127 
L 488.269627 315.544853 
L 487.257536 315.538185 
L 486.245445 315.569306 
L 485.233354 315.622876 
L 484.221264 315.679986 
L 483.209173 315.723024 
L 482.197082 315.74743 
L 481.184991 315.757101 
L 480.172901 315.746905 
L 479.16081 315.700708 
L 478.148719 315.610765 
L 477.136628 315.492028 
L 476.124538 315.375234 
L 475.112447 315.291723 
L 474.100356 315.26537 
L 473.088265 315.305176 
L 472.076175 315.390594 
L 471.064084 315.468045 
L 470.051993 315.479573 
L 469.039902 315.402048 
L 468.027812 315.247899 
L 467.015721 315.030311 
L 466.00363 314.754288 
L 464.991539 314.453258 
L 463.979449 314.204678 
L 462.967358 314.079897 
L 461.955267 314.086659 
L 460.943176 314.172887 
L 459.931086 314.274224 
L 458.918995 314.353437 
L 457.906904 314.41418 
L 456.894813 314.489038 
L 455.882723 314.608069 
L 454.870632 314.768758 
L 453.858541 314.928422 
L 452.84645 315.024507 
L 451.83436 315.010475 
L 450.822269 314.88254 
L 449.810178 314.678015 
L 448.798087 314.454652 
L 447.785997 314.270371 
L 446.773906 314.167875 
L 445.761815 314.164793 
L 444.749724 314.254506 
L 443.737634 314.412943 
L 442.725543 314.598993 
L 441.713452 314.755222 
L 440.701361 314.825634 
L 439.689271 314.789102 
L 438.67718 314.681542 
L 437.665089 314.580035 
L 436.652998 314.55248 
L 435.640908 314.61395 
L 434.628817 314.729084 
L 433.616726 314.851309 
L 432.604635 314.952812 
L 431.592545 315.021032 
L 430.580454 315.040804 
L 429.568363 314.984756 
L 428.556272 314.819378 
L 427.544182 314.530999 
L 426.532091 314.159075 
L 425.52 313.79878 
L 424.507909 313.550499 
L 423.495818 313.451618 
L 422.483728 313.453741 
L 421.471637 313.467048 
L 420.459546 313.427933 
L 419.447455 313.3303 
L 418.435365 313.207894 
L 417.423274 313.101461 
L 416.411183 313.035815 
L 415.399092 313.012055 
L 414.387002 313.017673 
L 413.374911 313.039989 
L 412.36282 313.062764 
L 411.350729 313.064877 
L 410.338639 313.045735 
L 409.326548 313.040923 
L 408.314457 313.091073 
L 407.302366 313.203967 
L 406.290276 313.359373 
L 405.278185 313.5296 
L 404.266094 313.676903 
L 403.254003 313.752485 
L 402.241913 313.725242 
L 401.229822 313.609444 
L 400.217731 313.451457 
L 399.20564 313.289496 
L 398.19355 313.131325 
L 397.181459 312.972148 
L 396.169368 312.82493 
L 395.157277 312.715433 
L 394.145187 312.647699 
L 393.133096 312.596891 
L 392.121005 312.539645 
L 391.108914 312.467432 
L 390.096824 312.371893 
L 389.084733 312.252236 
L 388.072642 312.148183 
L 387.060551 312.136156 
L 386.048461 312.271461 
L 385.03637 312.53792 
L 384.024279 312.850014 
L 383.012188 313.094204 
L 382.000098 313.185286 
L 380.988007 313.118968 
L 379.975916 312.979593 
L 378.963825 312.877756 
L 377.951735 312.866379 
L 376.939644 312.915482 
L 375.927553 312.960765 
L 374.915462 312.966829 
L 373.903372 312.946972 
L 372.891281 312.930852 
L 371.87919 312.91506 
L 370.867099 312.849193 
L 369.855009 312.679669 
L 368.842918 312.409231 
L 367.830827 312.110439 
L 366.818736 311.885824 
L 365.806646 311.816129 
L 364.794555 311.932493 
L 363.782464 312.221016 
L 362.770373 312.645608 
L 361.758283 313.162318 
L 360.746192 313.716079 
L 359.734101 314.237885 
L 358.72201 314.659303 
L 357.70992 314.937683 
L 356.697829 315.073773 
L 355.685738 315.108775 
L 354.673647 315.101251 
L 353.661557 315.097907 
L 352.649466 315.113809 
L 351.637375 315.132096 
L 350.625284 315.127571 
L 349.613194 315.098126 
L 348.601103 315.06994 
L 347.589012 315.069786 
L 346.576921 315.099541 
L 345.564831 315.136343 
L 344.55274 315.144817 
L 343.540649 315.091683 
L 342.528558 314.969125 
L 341.516467 314.810957 
L 340.504377 314.672845 
L 339.492286 314.589754 
L 338.480195 314.554136 
L 337.468104 314.529485 
L 336.456014 314.482283 
L 335.443923 314.410116 
L 334.431832 314.346386 
L 333.419741 314.334271 
L 332.407651 314.387179 
L 331.39556 314.468108 
L 330.383469 314.509793 
L 329.371378 314.465094 
L 328.359288 314.344388 
L 327.347197 314.206315 
L 326.335106 314.114426 
L 325.323015 314.098165 
L 324.310925 314.139278 
L 323.298834 314.188313 
L 322.286743 314.205683 
L 321.274652 314.196886 
L 320.262562 314.203648 
L 319.250471 314.256789 
L 318.23838 314.339188 
L 317.226289 314.396028 
L 316.214199 314.384311 
L 315.202108 314.313388 
L 314.190017 314.235282 
L 313.177926 314.197491 
L 312.165836 314.208533 
L 311.153745 314.241804 
L 310.141654 314.262395 
L 309.129563 314.254196 
L 308.117473 314.229138 
L 307.105382 314.21143 
L 306.093291 314.214273 
L 305.0812 314.232566 
L 304.06911 314.251227 
L 303.057019 314.259584 
L 302.044928 314.264368 
L 301.032837 314.286395 
L 300.020747 314.337171 
L 299.008656 314.401677 
L 297.996565 314.447679 
L 296.984474 314.448004 
L 295.972384 314.397853 
L 294.960293 314.320769 
L 293.948202 314.258678 
L 292.936111 314.244809 
L 291.924021 314.276016 
L 290.91193 314.313776 
L 289.899839 314.321674 
L 288.887748 314.302909 
L 287.875658 314.291966 
L 286.863567 314.311763 
L 285.851476 314.351283 
L 284.839385 314.380056 
L 283.827295 314.366193 
L 282.815204 314.284224 
L 281.803113 314.130181 
L 280.791022 313.93746 
L 279.778932 313.766396 
L 278.766841 313.671578 
L 277.75475 313.677213 
L 276.742659 313.772997 
L 275.730569 313.924619 
L 274.718478 314.090331 
L 273.706387 314.236315 
L 272.694296 314.34511 
L 271.682206 314.413645 
L 270.670115 314.442195 
L 269.658024 314.425864 
L 268.645933 314.361959 
L 267.633843 314.263119 
L 266.621752 314.154844 
L 265.609661 314.057496 
L 264.59757 313.970497 
L 263.58548 313.874653 
L 262.573389 313.757779 
L 261.561298 313.643414 
L 260.549207 313.583965 
L 259.537116 313.614392 
L 258.525026 313.71408 
L 257.512935 313.817651 
L 256.500844 313.862863 
L 255.488753 313.833733 
L 254.476663 313.763318 
L 253.464572 313.701108 
L 252.452481 313.682536 
L 251.44039 313.717847 
L 250.4283 313.787026 
L 249.416209 313.844743 
L 248.404118 313.853356 
L 247.392027 313.818569 
L 246.379937 313.781704 
L 245.367846 313.773906 
L 244.355755 313.78242 
L 243.343664 313.762238 
L 242.331574 313.682152 
L 241.319483 313.562811 
L 240.307392 313.467238 
L 239.295301 313.448472 
L 238.283211 313.50393 
L 237.27112 313.577576 
L 236.259029 313.601588 
L 235.246938 313.541276 
L 234.234848 313.412632 
L 233.222757 313.268056 
L 232.210666 313.164738 
L 231.198575 313.127986 
L 230.186485 313.127674 
L 229.174394 313.097868 
L 228.162303 312.996733 
L 227.150212 312.845826 
L 226.138122 312.706352 
L 225.126031 312.626638 
L 224.11394 312.613437 
L 223.101849 312.635479 
L 222.089759 312.648743 
L 221.077668 312.629263 
L 220.065577 312.58527 
L 219.053486 312.538682 
L 218.041396 312.503503 
L 217.029305 312.481715 
L 216.017214 312.468439 
L 215.005123 312.460307 
L 213.993033 312.463786 
L 212.980942 312.492559 
L 211.968851 312.550641 
L 210.95676 312.616036 
L 209.94467 312.644335 
L 208.932579 312.59746 
L 207.920488 312.475317 
L 206.908397 312.315487 
L 205.896307 312.163498 
L 204.884216 312.049512 
L 203.872125 311.982911 
L 202.860034 311.943843 
L 201.847944 311.880952 
L 200.835853 311.746897 
L 199.823762 311.550838 
L 198.811671 311.363473 
L 197.799581 311.255634 
L 196.78749 311.228903 
L 195.775399 311.213598 
L 194.763308 311.145237 
L 193.751218 311.036495 
L 192.739127 310.959782 
L 191.727036 310.964792 
L 190.714945 311.026079 
L 189.702855 311.06445 
L 188.690764 311.009118 
L 187.678673 310.849802 
L 186.666582 310.641668 
L 185.654492 310.461838 
L 184.642401 310.352435 
L 183.63031 310.290049 
L 182.618219 310.202841 
L 181.606129 310.030298 
L 180.594038 309.780099 
L 179.581947 309.526443 
L 178.569856 309.349054 
L 177.557765 309.270419 
L 176.545675 309.241223 
L 175.533584 309.17732 
L 174.521493 309.019259 
L 173.509402 308.772396 
L 172.497312 308.497244 
L 171.485221 308.258986 
L 170.47313 308.081567 
L 169.461039 307.944432 
L 168.448949 307.815101 
L 167.436858 307.679618 
L 166.424767 307.543625 
L 165.412676 307.409864 
L 164.400586 307.258311 
L 163.388495 307.05257 
L 162.376404 306.773704 
L 161.364313 306.453542 
L 160.352223 306.16102 
L 159.340132 305.939035 
L 158.328041 305.75833 
L 157.31595 305.540465 
L 156.30386 305.218169 
L 155.291769 304.781035 
L 154.279678 304.288545 
L 153.267587 303.835407 
L 152.255497 303.480632 
L 151.243406 303.207641 
L 150.231315 302.955972 
L 149.219224 302.680402 
L 148.207134 302.377503 
L 147.195043 302.068401 
L 146.182952 301.762911 
L 145.170861 301.442009 
L 144.158771 301.072421 
L 143.14668 300.632134 
L 142.134589 300.12813 
L 141.122498 299.608946 
L 140.110408 299.155232 
L 139.098317 298.835772 
L 138.086226 298.665245 
L 137.074135 298.60188 
L 136.062045 298.578637 
L 135.049954 298.546095 
L 134.037863 298.503183 
L 133.025772 298.481912 
L 132.013682 298.49544 
L 131.001591 298.508947 
L 129.9895 298.458604 
L 128.977409 298.284937 
L 127.965319 297.951633 
L 126.953228 297.457044 
L 125.941137 296.849872 
L 124.929046 296.230306 
L 123.916956 295.7078 
L 122.904865 295.334946 
L 121.892774 295.072063 
L 120.880683 294.817183 
L 119.868593 294.491505 
L 118.856502 294.114213 
L 117.844411 293.776794 
L 116.83232 293.520484 
L 115.82023 293.260565 
L 114.808139 292.86016 
L 113.796048 292.259694 
L 112.783957 291.507143 
L 111.771867 290.675996 
L 110.759776 289.775205 
L 109.747685 288.737917 
L 108.735594 287.494405 
L 107.723504 286.057495 
L 106.711413 284.534315 
L 105.699322 283.052148 
L 104.687231 281.672542 
L 103.675141 280.365827 
L 102.66305 279.052007 
L 101.650959 277.670401 
L 100.638868 276.217849 
L 99.626778 274.710951 
L 98.614687 273.117626 
L 97.602596 271.357087 
L 96.590505 269.388963 
L 95.578414 267.299085 
L 94.566324 265.289429 
L 93.554233 263.574281 
L 92.542142 262.266114 
L 91.530051 261.329747 
L 90.517961 260.614959 
L 89.50587 259.937621 
L 88.493779 259.182691 
L 87.481688 258.380245 
L 86.469598 257.679986 
L 85.457507 257.230792 
L 84.445416 257.07491 
L 83.433325 257.127079 
L 82.421235 257.200352 
L 81.409144 257.042668 
L 80.397053 256.406082 
L 79.384962 255.154962 
L 78.372872 253.35766 
L 77.360781 251.282257 
L 76.34869 249.26146 
L 75.336599 247.474492 
L 74.324509 245.79503 
L 73.312418 243.889193 
L 72.300327 241.534836 
L 71.288236 238.837215 
L 70.276146 236.094846 
L 69.264055 233.485996 
L 68.251964 230.901774 
L 67.239873 228.026503 
L 66.227783 224.559191 
L 65.215692 220.426726 
L 64.203601 215.829234 
L 63.19151 211.06152 
L 62.17942 206.274054 
L 61.167329 201.432891 
L 60.155238 196.524177 
L 59.143147 191.73473 
L 58.131057 187.342721 
L 57.118966 183.433131 
L 56.106875 179.786195 
L 55.094784 176.054868 
L 54.082694 172.011929 
L 53.070603 167.656662 
L 52.058512 163.181117 
L 51.046421 158.869252 
L 50.034331 154.946645 
L 49.02224 151.442491 
L 48.010149 148.187887 
L 46.998058 144.955133 
L 45.985968 141.588548 
L 44.973877 138.04544 
L 43.961786 134.391468 
L 42.949695 130.752093 
L 41.937605 127.186373 
L 40.925514 123.588431 
L 39.913423 119.764084 
L 38.901332 115.631419 
L 37.889242 111.335159 
L 36.877151 107.16744 
L 35.86506 103.379013 
L 34.852969 100.048933 
L 33.840879 97.105489 
L 32.828788 94.430729 
L 31.816697 91.912299 
L 30.804606 89.423997 
L 29.792516 86.841263 
L 28.780425 84.123856 
L 27.768334 81.350809 
L 26.756243 78.637888 
L 25.744153 76.049263 
L 24.732062 73.620398 
L 23.719971 71.434231 
L 22.70788 69.632534 
L 21.69579 68.357359 
L 20.683699 67.700769 
z
" clip-path="url(#p16f6e652bb)" style="fill: #e8000b; fill-opacity: 0.1"/>
   </g>
   <g id="FillBetweenPolyCollection_2">
    <path d="M 20.683699 48.601113 
L 20.683699 129.379079 
L 21.69579 137.003778 
L 22.70788 149.074771 
L 23.719971 161.110829 
L 24.732062 169.726275 
L 25.744153 173.999652 
L 26.756243 175.207831 
L 27.768334 175.527368 
L 28.780425 176.79921 
L 29.792516 180.003691 
L 30.804606 185.310065 
L 31.816697 192.277801 
L 32.828788 200.105683 
L 33.840879 208.02335 
L 34.852969 215.647348 
L 35.86506 222.98156 
L 36.877151 230.083611 
L 37.889242 236.798208 
L 38.901332 242.868387 
L 39.913423 248.244593 
L 40.925514 253.166649 
L 41.937605 257.932116 
L 42.949695 262.639356 
L 43.961786 267.129464 
L 44.973877 271.108016 
L 45.985968 274.345569 
L 46.998058 276.815607 
L 48.010149 278.658914 
L 49.02224 280.055577 
L 50.034331 281.152038 
L 51.046421 282.03709 
L 52.058512 282.734971 
L 53.070603 283.272429 
L 54.082694 283.789553 
L 55.094784 284.516575 
L 56.106875 285.566869 
L 57.118966 286.759264 
L 58.131057 287.704017 
L 59.143147 288.103785 
L 60.155238 287.980853 
L 61.167329 287.628861 
L 62.17942 287.373817 
L 63.19151 287.37224 
L 64.203601 287.587902 
L 65.215692 287.912874 
L 66.227783 288.293827 
L 67.239873 288.746379 
L 68.251964 289.27186 
L 69.264055 289.79859 
L 70.276146 290.226859 
L 71.288236 290.510101 
L 72.300327 290.661082 
L 73.312418 290.711374 
L 74.324509 290.737917 
L 75.336599 290.912184 
L 76.34869 291.410896 
L 77.360781 292.219424 
L 78.372872 293.068785 
L 79.384962 293.620699 
L 80.397053 293.723913 
L 81.409144 293.487842 
L 82.421235 293.133488 
L 83.433325 292.819885 
L 84.445416 292.617272 
L 85.457507 292.57444 
L 86.469598 292.753356 
L 87.481688 293.215553 
L 88.493779 293.988623 
L 89.50587 295.001605 
L 90.517961 296.023651 
L 91.530051 296.715902 
L 92.542142 296.831895 
L 93.554233 296.425915 
L 94.566324 295.872523 
L 95.578414 295.646689 
L 96.590505 296.025106 
L 97.602596 296.936303 
L 98.614687 298.026487 
L 99.626778 298.842005 
L 100.638868 299.056323 
L 101.650959 298.680192 
L 102.66305 298.066308 
L 103.675141 297.634118 
L 104.687231 297.586547 
L 105.699322 297.885282 
L 106.711413 298.405092 
L 107.723504 299.052337 
L 108.735594 299.775171 
L 109.747685 300.519636 
L 110.759776 301.203152 
L 111.771867 301.736351 
L 112.783957 302.063773 
L 113.796048 302.188725 
L 114.808139 302.190272 
L 115.82023 302.215462 
L 116.83232 302.395886 
L 117.844411 302.730182 
L 118.856502 303.061047 
L 119.868593 303.195029 
L 120.880683 303.073099 
L 121.892774 302.852597 
L 122.904865 302.830607 
L 123.916956 303.264273 
L 124.929046 304.199371 
L 125.941137 305.397187 
L 126.953228 306.441593 
L 127.965319 307.020953 
L 128.977409 307.162064 
L 129.9895 307.170642 
L 131.001591 307.341903 
L 132.013682 307.745101 
L 133.025772 308.252668 
L 134.037863 308.713312 
L 135.049954 309.096695 
L 136.062045 309.519403 
L 137.074135 310.154001 
L 138.086226 311.077739 
L 139.098317 312.149538 
L 140.110408 313.024827 
L 141.122498 313.377117 
L 142.134589 313.170171 
L 143.14668 312.674701 
L 144.158771 312.206295 
L 145.170861 311.902371 
L 146.182952 311.71114 
L 147.195043 311.470458 
L 148.207134 311.003576 
L 149.219224 310.259512 
L 150.231315 309.408225 
L 151.243406 308.753481 
L 152.255497 308.490642 
L 153.267587 308.517172 
L 154.279678 308.513722 
L 155.291769 308.278549 
L 156.30386 307.968124 
L 157.31595 307.962522 
L 158.328041 308.501483 
L 159.340132 309.438045 
L 160.352223 310.30333 
L 161.364313 310.663594 
L 162.376404 310.501835 
L 163.388495 310.223996 
L 164.400586 310.26017 
L 165.412676 310.705313 
L 166.424767 311.314299 
L 167.436858 311.726787 
L 168.448949 311.706882 
L 169.461039 311.289002 
L 170.47313 310.747278 
L 171.485221 310.401253 
L 172.497312 310.400214 
L 173.509402 310.625071 
L 174.521493 310.778298 
L 175.533584 310.638762 
L 176.545675 310.279952 
L 177.557765 310.021695 
L 178.569856 310.143614 
L 179.581947 310.629323 
L 180.594038 311.163263 
L 181.606129 311.382908 
L 182.618219 311.177834 
L 183.63031 310.772654 
L 184.642401 310.543851 
L 185.654492 310.749455 
L 186.666582 311.349091 
L 187.678673 312.007276 
L 188.690764 312.320983 
L 189.702855 312.14041 
L 190.714945 311.693571 
L 191.727036 311.389198 
L 192.739127 311.490688 
L 193.751218 311.931533 
L 194.763308 312.388225 
L 195.775399 312.561744 
L 196.78749 312.439248 
L 197.799581 312.295627 
L 198.811671 312.43474 
L 199.823762 312.907286 
L 200.835853 313.450143 
L 201.847944 313.720838 
L 202.860034 313.632377 
L 203.872125 313.436945 
L 204.884216 313.476828 
L 205.896307 313.899372 
L 206.908397 314.581926 
L 207.920488 315.231178 
L 208.932579 315.569946 
L 209.94467 315.531935 
L 210.95676 315.309284 
L 211.968851 315.197466 
L 212.980942 315.383198 
L 213.993033 315.82556 
L 215.005123 316.281208 
L 216.017214 316.497589 
L 217.029305 316.446956 
L 218.041396 316.345887 
L 219.053486 316.421285 
L 220.065577 316.681258 
L 221.077668 316.909649 
L 222.089759 316.87111 
L 223.101849 316.554177 
L 224.11394 316.217194 
L 225.126031 316.167199 
L 226.138122 316.497116 
L 227.150212 317.031256 
L 228.162303 317.471929 
L 229.174394 317.607044 
L 230.186485 317.46089 
L 231.198575 317.270733 
L 232.210666 317.283644 
L 233.222757 317.563411 
L 234.234848 317.967371 
L 235.246938 318.259945 
L 236.259029 318.278413 
L 237.27112 318.06298 
L 238.283211 317.836912 
L 239.295301 317.822493 
L 240.307392 318.051048 
L 241.319483 318.333452 
L 242.331574 318.417687 
L 243.343664 318.212158 
L 244.355755 317.871817 
L 245.367846 317.659673 
L 246.379937 317.725103 
L 247.392027 318.000592 
L 248.404118 318.279393 
L 249.416209 318.394924 
L 250.4283 318.355877 
L 251.44039 318.317497 
L 252.452481 318.421758 
L 253.464572 318.673847 
L 254.476663 318.949174 
L 255.488753 319.078583 
L 256.500844 318.96539 
L 257.512935 318.692222 
L 258.525026 318.501809 
L 259.537116 318.601642 
L 260.549207 318.966844 
L 261.561298 319.35607 
L 262.573389 319.522882 
L 263.58548 319.41456 
L 264.59757 319.183938 
L 265.609661 319.03776 
L 266.621752 319.086712 
L 267.633843 319.29969 
L 268.645933 319.54105 
L 269.658024 319.663264 
L 270.670115 319.626188 
L 271.682206 319.546251 
L 272.694296 319.612701 
L 273.706387 319.939513 
L 274.718478 320.470223 
L 275.730569 320.996731 
L 276.742659 321.292409 
L 277.75475 321.26574 
L 278.766841 321.005111 
L 279.778932 320.695956 
L 280.791022 320.490326 
L 281.803113 320.406191 
L 282.815204 320.334867 
L 283.827295 320.1737 
L 284.839385 319.941352 
L 285.851476 319.751187 
L 286.863567 319.698802 
L 287.875658 319.777502 
L 288.887748 319.872949 
L 289.899839 319.851884 
L 290.91193 319.68853 
L 291.924021 319.495734 
L 292.936111 319.420895 
L 293.948202 319.519977 
L 294.960293 319.715161 
L 295.972384 319.851005 
L 296.984474 319.817445 
L 297.996565 319.648024 
L 299.008656 319.494155 
L 300.020747 319.494686 
L 301.032837 319.659609 
L 302.044928 319.855032 
L 303.057019 319.901799 
L 304.06911 319.725473 
L 305.0812 319.416471 
L 306.093291 319.140321 
L 307.105382 319.007276 
L 308.117473 319.013372 
L 309.129563 319.057659 
L 310.141654 319.026018 
L 311.153745 318.906434 
L 312.165836 318.81841 
L 313.177926 318.908143 
L 314.190017 319.215841 
L 315.202108 319.629823 
L 316.214199 319.951921 
L 317.226289 320.037675 
L 318.23838 319.908814 
L 319.250471 319.735669 
L 320.262562 319.702359 
L 321.274652 319.862502 
L 322.286743 320.094839 
L 323.298834 320.212125 
L 324.310925 320.148988 
L 325.323015 320.029543 
L 326.335106 320.035013 
L 327.347197 320.2333 
L 328.359288 320.5368 
L 329.371378 320.778906 
L 330.383469 320.832329 
L 331.39556 320.701393 
L 332.407651 320.514494 
L 333.419741 320.418394 
L 334.431832 320.476232 
L 335.443923 320.637951 
L 336.456014 320.771572 
L 337.468104 320.752252 
L 338.480195 320.577858 
L 339.492286 320.398773 
L 340.504377 320.394899 
L 341.516467 320.599057 
L 342.528558 320.848259 
L 343.540649 320.932757 
L 344.55274 320.796321 
L 345.564831 320.566426 
L 346.576921 320.411385 
L 347.589012 320.416 
L 348.601103 320.564293 
L 349.613194 320.762383 
L 350.625284 320.881537 
L 351.637375 320.844518 
L 352.649466 320.693735 
L 353.661557 320.560835 
L 354.673647 320.560204 
L 355.685738 320.69533 
L 356.697829 320.858012 
L 357.70992 320.960721 
L 358.72201 321.092696 
L 359.734101 321.49446 
L 360.746192 322.322004 
L 361.758283 323.442567 
L 362.770373 324.476922 
L 363.782464 325.047761 
L 364.794555 325.027735 
L 365.806646 324.592492 
L 366.818736 324.056957 
L 367.830827 323.651288 
L 368.842918 323.401624 
L 369.855009 323.169903 
L 370.867099 322.81498 
L 371.87919 322.352628 
L 372.891281 321.965945 
L 373.903372 321.858328 
L 374.915462 322.09187 
L 375.927553 322.537228 
L 376.939644 322.944436 
L 377.951735 323.096702 
L 378.963825 322.960347 
L 379.975916 322.715756 
L 380.988007 322.620993 
L 382.000098 322.80236 
L 383.012188 323.149414 
L 384.024279 323.423588 
L 385.03637 323.493383 
L 386.048461 323.448595 
L 387.060551 323.483032 
L 388.072642 323.707392 
L 389.084733 324.070135 
L 390.096824 324.396322 
L 391.108914 324.510031 
L 392.121005 324.387977 
L 393.133096 324.193745 
L 394.145187 324.126341 
L 395.157277 324.239724 
L 396.169368 324.401871 
L 397.181459 324.385941 
L 398.19355 324.029883 
L 399.20564 323.389393 
L 400.217731 322.749238 
L 401.229822 322.431771 
L 402.241913 322.552582 
L 403.254003 322.943523 
L 404.266094 323.309123 
L 405.278185 323.474566 
L 406.290276 323.49171 
L 407.302366 323.526538 
L 408.314457 323.686603 
L 409.326548 323.948447 
L 410.338639 324.185373 
L 411.350729 324.253803 
L 412.36282 324.112013 
L 413.374911 323.878364 
L 414.387002 323.736839 
L 415.399092 323.753127 
L 416.411183 323.784866 
L 417.423274 323.597667 
L 418.435365 323.102302 
L 419.447455 322.490176 
L 420.459546 322.120069 
L 421.471637 322.230544 
L 422.483728 322.717647 
L 423.495818 323.176609 
L 424.507909 323.194295 
L 425.52 322.672976 
L 426.532091 321.919061 
L 427.544182 321.409629 
L 428.556272 321.423639 
L 429.568363 321.841066 
L 430.580454 322.260417 
L 431.592545 322.325406 
L 432.604635 321.989731 
L 433.616726 321.513393 
L 434.628817 321.226949 
L 435.640908 321.275936 
L 436.652998 321.527326 
L 437.665089 321.686837 
L 438.67718 321.553203 
L 439.689271 321.207851 
L 440.701361 320.956436 
L 441.713452 321.071823 
L 442.725543 321.575897 
L 443.737634 322.225624 
L 444.749724 322.690806 
L 445.761815 322.78579 
L 446.773906 322.569603 
L 447.785997 322.243722 
L 448.798087 321.972147 
L 449.810178 321.78331 
L 450.822269 321.601377 
L 451.83436 321.371332 
L 452.84645 321.175086 
L 453.858541 321.198946 
L 454.870632 321.560969 
L 455.882723 322.188365 
L 456.894813 322.864931 
L 457.906904 323.374712 
L 458.918995 323.633182 
L 459.931086 323.735512 
L 460.943176 323.868928 
L 461.955267 324.122098 
L 462.967358 324.357127 
L 463.979449 324.293824 
L 464.991539 323.752713 
L 466.00363 322.826345 
L 467.015721 321.816378 
L 468.027812 321.032832 
L 469.039902 320.649431 
L 470.051993 320.664794 
L 471.064084 320.921891 
L 472.076175 321.19728 
L 473.088265 321.349592 
L 474.100356 321.395956 
L 475.112447 321.435814 
L 476.124538 321.52356 
L 477.136628 321.615692 
L 478.148719 321.611475 
L 479.16081 321.451959 
L 480.172901 321.201287 
L 481.184991 321.022036 
L 482.197082 321.046858 
L 483.209173 321.258701 
L 484.221264 321.488399 
L 485.233354 321.54421 
L 486.245445 321.380094 
L 487.257536 321.141606 
L 488.269627 321.03179 
L 489.281717 321.135249 
L 490.293808 321.366983 
L 491.305899 321.563924 
L 492.31799 321.623892 
L 493.33008 321.581858 
L 494.342171 321.565799 
L 495.354262 321.678239 
L 496.366353 321.909792 
L 497.378443 322.14407 
L 498.390534 322.23914 
L 499.402625 322.132789 
L 500.414716 321.889215 
L 501.426806 321.645087 
L 502.438897 321.507735 
L 503.450988 321.485476 
L 504.463079 321.479332 
L 505.475169 321.354457 
L 506.48726 321.073831 
L 507.499351 320.757715 
L 508.511442 320.578132 
L 509.523533 320.604966 
L 510.535623 320.755041 
L 511.547714 320.85709 
L 512.559805 320.778465 
L 513.571896 320.533187 
L 514.583986 320.270497 
L 515.596077 320.144844 
L 516.608168 320.202801 
L 517.620259 320.37286 
L 518.632349 320.516748 
L 519.64444 320.507094 
L 520.656531 320.319802 
L 521.668622 320.077979 
L 522.680712 319.984727 
L 523.692803 320.168647 
L 524.704894 320.550741 
L 525.716985 320.86443 
L 525.716985 319.036616 
L 525.716985 319.036616 
L 524.704894 318.651254 
L 523.692803 318.14642 
L 522.680712 317.823591 
L 521.668622 317.805846 
L 520.656531 317.994799 
L 519.64444 318.159855 
L 518.632349 318.098663 
L 517.620259 317.79179 
L 516.608168 317.423669 
L 515.596077 317.236402 
L 514.583986 317.348193 
L 513.571896 317.662163 
L 512.559805 317.906852 
L 511.547714 317.808834 
L 510.535623 317.293174 
L 509.523533 316.528313 
L 508.511442 315.780373 
L 507.499351 315.232637 
L 506.48726 314.901726 
L 505.475169 314.667462 
L 504.463079 314.373613 
L 503.450988 313.944088 
L 502.438897 313.447099 
L 501.426806 313.03366 
L 500.414716 312.769014 
L 499.402625 312.535276 
L 498.390534 312.16481 
L 497.378443 311.667206 
L 496.366353 311.261879 
L 495.354262 311.166759 
L 494.342171 311.3714 
L 493.33008 311.607877 
L 492.31799 311.553538 
L 491.305899 311.112937 
L 490.293808 310.523265 
L 489.281717 310.170561 
L 488.269627 310.292322 
L 487.257536 310.842775 
L 486.245445 311.578717 
L 485.233354 312.212846 
L 484.221264 312.538694 
L 483.209173 312.536709 
L 482.197082 312.397566 
L 481.184991 312.363426 
L 480.172901 312.485078 
L 479.16081 312.552827 
L 478.148719 312.309864 
L 477.136628 311.714942 
L 476.124538 310.97101 
L 475.112447 310.359323 
L 474.100356 310.09529 
L 473.088265 310.241516 
L 472.076175 310.6284 
L 471.064084 310.906286 
L 470.051993 310.800719 
L 469.039902 310.326212 
L 468.027812 309.66959 
L 467.015721 308.881232 
L 466.00363 307.808808 
L 464.991539 306.397088 
L 463.979449 304.949603 
L 462.967358 303.977351 
L 461.955267 303.815996 
L 460.943176 304.422342 
L 459.931086 305.445728 
L 458.918995 306.439288 
L 457.906904 307.116097 
L 456.894813 307.515787 
L 455.882723 307.925595 
L 454.870632 308.596701 
L 453.858541 309.500878 
L 452.84645 310.329595 
L 451.83436 310.7056 
L 450.822269 310.420904 
L 449.810178 309.539308 
L 448.798087 308.356715 
L 447.785997 307.272701 
L 446.773906 306.594432 
L 445.761815 306.355604 
L 444.749724 306.319286 
L 443.737634 306.180367 
L 442.725543 305.735132 
L 441.713452 304.873623 
L 440.701361 303.55595 
L 439.689271 301.930505 
L 438.67718 300.420189 
L 437.665089 299.541607 
L 436.652998 299.571467 
L 435.640908 300.3796 
L 434.628817 301.551631 
L 433.616726 302.681465 
L 432.604635 303.618352 
L 431.592545 304.473552 
L 430.580454 305.400813 
L 429.568363 306.369059 
L 428.556272 307.119952 
L 427.544182 307.346135 
L 426.532091 306.965719 
L 425.52 306.242324 
L 424.507909 305.60152 
L 423.495818 305.312365 
L 422.483728 305.336116 
L 421.471637 305.436721 
L 420.459546 305.398262 
L 419.447455 305.148599 
L 418.435365 304.738394 
L 417.423274 304.273991 
L 416.411183 303.860214 
L 415.399092 303.550933 
L 414.387002 303.345529 
L 413.374911 303.220232 
L 412.36282 303.113346 
L 411.350729 302.917719 
L 410.338639 302.605212 
L 409.326548 302.349809 
L 408.314457 302.432498 
L 407.302366 303.023507 
L 406.290276 304.09154 
L 405.278185 305.438798 
L 404.266094 306.73502 
L 403.254003 307.606239 
L 402.241913 307.844476 
L 401.229822 307.567583 
L 400.217731 307.116853 
L 399.20564 306.762402 
L 398.19355 306.509632 
L 397.181459 306.199968 
L 396.169368 305.762534 
L 395.157277 305.292453 
L 394.145187 304.892131 
L 393.133096 304.548725 
L 392.121005 304.200189 
L 391.108914 303.809181 
L 390.096824 303.351628 
L 389.084733 302.864733 
L 388.072642 302.553383 
L 387.060551 302.73595 
L 386.048461 303.597637 
L 385.03637 305.001108 
L 384.024279 306.523456 
L 383.012188 307.665206 
L 382.000098 308.106337 
L 380.988007 307.893506 
L 379.975916 307.411555 
L 378.963825 307.093191 
L 377.951735 307.086215 
L 376.939644 307.201988 
L 375.927553 307.191422 
L 374.915462 307.027846 
L 373.903372 306.891243 
L 372.891281 306.900389 
L 371.87919 306.894886 
L 370.867099 306.501572 
L 369.855009 305.437064 
L 368.842918 303.7626 
L 367.830827 301.865995 
L 366.818736 300.242699 
L 365.806646 299.29481 
L 364.794555 299.26468 
L 363.782464 300.273861 
L 362.770373 302.356725 
L 361.758283 305.385465 
L 360.746192 308.954694 
L 359.734101 312.424633 
L 358.72201 315.173147 
L 357.70992 316.862074 
L 356.697829 317.522866 
L 355.685738 317.459901 
L 354.673647 317.085908 
L 353.661557 316.770485 
L 352.649466 316.717894 
L 351.637375 316.896643 
L 350.625284 317.103436 
L 349.613194 317.164881 
L 348.601103 317.090787 
L 347.589012 317.023594 
L 346.576921 317.079767 
L 345.564831 317.248202 
L 344.55274 317.377581 
L 343.540649 317.258282 
L 342.528558 316.806941 
L 341.516467 316.19634 
L 340.504377 315.736825 
L 339.492286 315.6052 
L 338.480195 315.714638 
L 337.468104 315.832861 
L 336.456014 315.802948 
L 335.443923 315.668388 
L 334.431832 315.620981 
L 333.419741 315.832552 
L 332.407651 316.303437 
L 331.39556 316.836139 
L 330.383469 317.154702 
L 329.371378 317.086213 
L 328.359288 316.671622 
L 327.347197 316.148644 
L 326.335106 315.840498 
L 325.323015 315.976263 
L 324.310925 316.502137 
L 323.298834 317.083659 
L 322.286743 317.390215 
L 321.274652 317.382582 
L 320.262562 317.283082 
L 319.250471 317.30001 
L 318.23838 317.423145 
L 317.226289 317.458954 
L 316.214199 317.239144 
L 315.202108 316.804233 
L 314.190017 316.39194 
L 313.177926 316.244475 
L 312.165836 316.411745 
L 311.153745 316.703339 
L 310.141654 316.825107 
L 309.129563 316.616708 
L 308.117473 316.185202 
L 307.105382 315.805328 
L 306.093291 315.704022 
L 305.0812 315.922557 
L 304.06911 316.305818 
L 303.057019 316.602436 
L 302.044928 316.642796 
L 301.032837 316.456327 
L 300.020747 316.20786 
L 299.008656 316.038575 
L 297.996565 315.969955 
L 296.984474 315.915278 
L 295.972384 315.782239 
L 294.960293 315.598477 
L 293.948202 315.51865 
L 292.936111 315.671015 
L 291.924021 316.006949 
L 290.91193 316.320733 
L 289.899839 316.413565 
L 288.887748 316.246623 
L 287.875658 315.948528 
L 286.863567 315.698413 
L 285.851476 315.611698 
L 284.839385 315.668354 
L 283.827295 315.652761 
L 282.815204 315.205761 
L 281.803113 314.091996 
L 280.791022 312.480145 
L 279.778932 310.913922 
L 278.766841 309.978395 
L 277.75475 309.965247 
L 276.742659 310.760161 
L 275.730569 311.965845 
L 274.718478 313.159411 
L 273.706387 314.118411 
L 272.694296 314.857187 
L 271.682206 315.465423 
L 270.670115 315.920953 
L 269.658024 316.069472 
L 268.645933 315.800509 
L 267.633843 315.217662 
L 266.621752 314.606347 
L 265.609661 314.238417 
L 264.59757 314.190703 
L 263.58548 314.297838 
L 262.573389 314.283286 
L 261.561298 314.016009 
L 260.549207 313.673448 
L 259.537116 313.605847 
L 258.525026 314.00362 
L 257.512935 314.69361 
L 256.500844 315.255788 
L 255.488753 315.349103 
L 254.476663 314.957976 
L 253.464572 314.367298 
L 252.452481 313.933931 
L 251.44039 313.854539 
L 250.4283 314.066207 
L 249.416209 314.323132 
L 248.404118 314.414037 
L 247.392027 314.344577 
L 246.379937 314.309974 
L 245.367846 314.501205 
L 244.355755 314.930096 
L 243.343664 315.39442 
L 242.331574 315.608217 
L 241.319483 315.426166 
L 240.307392 314.974915 
L 239.295301 314.555234 
L 238.283211 314.403024 
L 237.27112 314.51041 
L 236.259029 314.633034 
L 235.246938 314.487757 
L 234.234848 313.985345 
L 233.222757 313.294059 
L 232.210666 312.703018 
L 231.198575 312.419329 
L 230.186485 312.420545 
L 229.174394 312.454571 
L 228.162303 312.244723 
L 227.150212 311.748631 
L 226.138122 311.201017 
L 225.126031 310.895939 
L 224.11394 310.932611 
L 223.101849 311.139185 
L 222.089759 311.22891 
L 221.077668 311.05325 
L 220.065577 310.7108 
L 219.053486 310.423487 
L 218.041396 310.342022 
L 217.029305 310.446465 
L 216.017214 310.557439 
L 215.005123 310.460818 
L 213.993033 310.099878 
L 212.980942 309.65247 
L 211.968851 309.392056 
L 210.95676 309.470659 
L 209.94467 309.809834 
L 208.932579 310.153118 
L 207.920488 310.232752 
L 206.908397 309.936416 
L 205.896307 309.373679 
L 204.884216 308.820933 
L 203.872125 308.549306 
L 202.860034 308.581343 
L 201.847944 308.615736 
L 200.835853 308.317801 
L 199.823762 307.696217 
L 198.811671 307.099528 
L 197.799581 306.84147 
L 196.78749 306.899284 
L 195.775399 306.980847 
L 194.763308 306.856469 
L 193.751218 306.599173 
L 192.739127 306.483392 
L 191.727036 306.689389 
L 190.714945 307.151788 
L 189.702855 307.632119 
L 188.690764 307.85866 
L 187.678673 307.664781 
L 186.666582 307.098771 
L 185.654492 306.40271 
L 184.642401 305.840374 
L 183.63031 305.519638 
L 182.618219 305.350843 
L 181.606129 305.149329 
L 180.594038 304.785034 
L 179.581947 304.275096 
L 178.569856 303.754757 
L 177.557765 303.350283 
L 176.545675 303.093614 
L 175.533584 302.976233 
L 174.521493 303.036215 
L 173.509402 303.314665 
L 172.497312 303.744554 
L 171.485221 304.154088 
L 170.47313 304.355964 
L 169.461039 304.183922 
L 168.448949 303.521117 
L 167.436858 302.41103 
L 166.424767 301.117316 
L 165.412676 299.996325 
L 164.400586 299.290116 
L 163.388495 299.009646 
L 162.376404 298.938088 
L 161.364313 298.775084 
L 160.352223 298.382787 
L 159.340132 297.893231 
L 158.328041 297.52441 
L 157.31595 297.324077 
L 156.30386 297.103124 
L 155.291769 296.561735 
L 154.279678 295.534738 
L 153.267587 294.21055 
L 152.255497 293.063208 
L 151.243406 292.477324 
L 150.231315 292.437698 
L 149.219224 292.58203 
L 148.207134 292.486981 
L 147.195043 291.904267 
L 146.182952 290.828613 
L 145.170861 289.455241 
L 144.158771 288.095298 
L 143.14668 287.035699 
L 142.134589 286.353869 
L 141.122498 285.86327 
L 140.110408 285.313333 
L 139.098317 284.64582 
L 138.086226 284.020652 
L 137.074135 283.620813 
L 136.062045 283.478086 
L 135.049954 283.460193 
L 134.037863 283.374066 
L 133.025772 283.078538 
L 132.013682 282.548134 
L 131.001591 281.880462 
L 129.9895 281.219922 
L 128.977409 280.616103 
L 127.965319 279.946599 
L 126.953228 279.020133 
L 125.941137 277.790251 
L 124.929046 276.474892 
L 123.916956 275.444596 
L 122.904865 274.959572 
L 121.892774 274.973271 
L 120.880683 275.172987 
L 119.868593 275.24356 
L 118.856502 275.124889 
L 117.844411 274.991619 
L 116.83232 274.967819 
L 115.82023 274.916596 
L 114.808139 274.544843 
L 113.796048 273.666641 
L 112.783957 272.344449 
L 111.771867 270.818727 
L 110.759776 269.313627 
L 109.747685 267.851506 
L 108.735594 266.211366 
L 107.723504 264.108555 
L 106.711413 261.49781 
L 105.699322 258.722033 
L 104.687231 256.303599 
L 103.675141 254.523255 
L 102.66305 253.192849 
L 101.650959 251.838939 
L 100.638868 250.063842 
L 99.626778 247.715914 
L 98.614687 244.796249 
L 97.602596 241.310968 
L 96.590505 237.281767 
L 95.578414 232.937703 
L 94.566324 228.880401 
L 93.554233 225.92312 
L 92.542142 224.603328 
L 91.530051 224.77658 
L 90.517961 225.65451 
L 89.50587 226.266625 
L 88.493779 226.074236 
L 87.481688 225.346286 
L 86.469598 224.928053 
L 85.457507 225.522997 
L 84.445416 227.171385 
L 83.433325 229.362108 
L 82.421235 231.452445 
L 81.409144 232.920499 
L 80.397053 233.428473 
L 79.384962 232.894021 
L 78.372872 231.576821 
L 77.360781 230.032328 
L 76.34869 228.854963 
L 75.336599 228.29847 
L 74.324509 228.044654 
L 73.312418 227.427619 
L 72.300327 226.012018 
L 71.288236 223.928454 
L 70.276146 221.597394 
L 69.264055 219.22875 
L 68.251964 216.654843 
L 67.239873 213.544448 
L 66.227783 209.716998 
L 65.215692 205.338106 
L 64.203601 200.845578 
L 63.19151 196.615752 
L 62.17942 192.675096 
L 61.167329 188.79443 
L 60.155238 184.871194 
L 59.143147 181.121454 
L 58.131057 177.824381 
L 57.118966 174.964613 
L 56.106875 172.248319 
L 55.094784 169.45713 
L 54.082694 166.689673 
L 53.070603 164.249269 
L 52.058512 162.381231 
L 51.046421 161.136029 
L 50.034331 160.376659 
L 49.02224 159.8532 
L 48.010149 159.357103 
L 46.998058 158.911745 
L 45.985968 158.777473 
L 44.973877 159.139224 
L 43.961786 159.711977 
L 42.949695 159.689651 
L 41.937605 158.170563 
L 40.925514 154.730086 
L 39.913423 149.694976 
L 38.901332 143.960486 
L 37.889242 138.475327 
L 36.877151 133.652355 
L 35.86506 129.04227 
L 34.852969 123.578022 
L 33.840879 116.391218 
L 32.828788 107.634649 
L 31.816697 98.451554 
L 30.804606 89.97302 
L 29.792516 82.430157 
L 28.780425 75.382966 
L 27.768334 68.617912 
L 26.756243 62.54424 
L 25.744153 57.777439 
L 24.732062 54.530746 
L 23.719971 52.422545 
L 22.70788 50.833736 
L 21.69579 49.476328 
L 20.683699 48.601113 
z
" clip-path="url(#p16f6e652bb)" style="fill: #9f4800; fill-opacity: 0.1"/>
   </g>
   <g id="line2d_12">
    <path d="M 20.683699 233.453581 
L 21.69579 231.531944 
L 22.70788 231.304906 
L 23.719971 233.73269 
L 24.732062 236.897277 
L 25.744153 238.872121 
L 26.756243 237.871508 
L 28.780425 231.811253 
L 29.792516 229.822687 
L 30.804606 228.858772 
L 31.816697 228.656031 
L 32.828788 229.297815 
L 33.840879 230.371751 
L 34.852969 230.394643 
L 36.877151 227.887143 
L 37.889242 226.13525 
L 38.901332 223.199716 
L 39.913423 220.819034 
L 40.925514 220.837472 
L 41.937605 222.265804 
L 42.949695 224.033413 
L 43.961786 226.640425 
L 44.973877 228.911719 
L 45.985968 229.038923 
L 48.010149 225.880565 
L 49.02224 225.336432 
L 50.034331 225.193948 
L 51.046421 224.783382 
L 52.058512 223.596023 
L 53.070603 221.873575 
L 54.082694 221.040752 
L 55.094784 221.558581 
L 56.106875 221.64824 
L 57.118966 219.81874 
L 58.131057 216.950107 
L 59.143147 215.521838 
L 60.155238 216.442665 
L 61.167329 217.67621 
L 62.17942 218.145104 
L 63.19151 218.906588 
L 64.203601 219.167233 
L 65.215692 217.49367 
L 66.227783 215.388918 
L 68.251964 213.214697 
L 69.264055 211.415355 
L 70.276146 209.858161 
L 71.288236 209.865596 
L 72.300327 211.624727 
L 73.312418 213.971169 
L 74.324509 214.607186 
L 76.34869 211.869154 
L 77.360781 210.508567 
L 78.372872 209.968359 
L 79.384962 211.257609 
L 80.397053 213.390558 
L 81.409144 214.096324 
L 82.421235 212.862821 
L 83.433325 212.847006 
L 84.445416 215.996252 
L 85.457507 220.037952 
L 86.469598 223.108446 
L 87.481688 224.84863 
L 88.493779 223.946406 
L 90.517961 216.475993 
L 91.530051 214.161512 
L 92.542142 213.808612 
L 93.554233 214.541985 
L 94.566324 214.760924 
L 96.590505 212.933898 
L 97.602596 212.350388 
L 98.614687 211.169207 
L 99.626778 209.175378 
L 100.638868 208.183058 
L 101.650959 209.352155 
L 102.66305 209.928382 
L 103.675141 208.037116 
L 104.687231 207.863615 
L 105.699322 211.632488 
L 106.711413 214.838398 
L 107.723504 213.799037 
L 108.735594 210.867845 
L 109.747685 210.149039 
L 110.759776 211.314219 
L 111.771867 211.869686 
L 113.796048 211.784474 
L 114.808139 211.195306 
L 115.82023 210.786343 
L 116.83232 211.758455 
L 117.844411 213.459183 
L 118.856502 214.798354 
L 119.868593 214.982881 
L 120.880683 214.073182 
L 121.892774 213.408415 
L 122.904865 213.636806 
L 123.916956 214.526776 
L 124.929046 214.375731 
L 125.941137 212.529959 
L 126.953228 211.759997 
L 127.965319 213.611755 
L 128.977409 216.038603 
L 129.9895 216.362269 
L 131.001591 214.591035 
L 132.013682 213.431036 
L 133.025772 213.750193 
L 134.037863 213.798363 
L 135.049954 213.407396 
L 136.062045 214.319174 
L 137.074135 216.667172 
L 138.086226 218.676918 
L 139.098317 218.357995 
L 140.110408 215.967631 
L 141.122498 214.422196 
L 142.134589 213.524171 
L 143.14668 211.514726 
L 144.158771 209.776959 
L 145.170861 209.704134 
L 146.182952 210.148159 
L 148.207134 208.852074 
L 149.219224 209.732459 
L 150.231315 211.810248 
L 151.243406 215.205201 
L 152.255497 218.081091 
L 153.267587 217.244062 
L 154.279678 212.675631 
L 155.291769 206.931878 
L 156.30386 202.815936 
L 157.31595 202.007352 
L 158.328041 204.22874 
L 159.340132 207.983907 
L 160.352223 211.275097 
L 161.364313 212.930107 
L 163.388495 215.886723 
L 164.400586 215.575813 
L 165.412676 214.565051 
L 166.424767 214.748717 
L 167.436858 214.158085 
L 168.448949 211.78655 
L 169.461039 210.462641 
L 170.47313 211.717745 
L 172.497312 216.414413 
L 173.509402 216.845716 
L 174.521493 215.405545 
L 175.533584 214.625319 
L 176.545675 214.205302 
L 177.557765 212.14104 
L 178.569856 209.470187 
L 180.594038 205.103318 
L 181.606129 205.173834 
L 182.618219 207.400966 
L 183.63031 209.240218 
L 184.642401 210.154674 
L 185.654492 210.024989 
L 186.666582 209.278626 
L 187.678673 209.461555 
L 188.690764 210.375568 
L 189.702855 210.141245 
L 190.714945 209.764216 
L 191.727036 211.769624 
L 192.739127 213.236436 
L 193.751218 210.413203 
L 194.763308 205.547721 
L 195.775399 202.550231 
L 196.78749 203.962507 
L 197.799581 208.21193 
L 198.811671 210.405538 
L 199.823762 210.015667 
L 200.835853 210.940051 
L 201.847944 214.267438 
L 202.860034 216.51291 
L 203.872125 214.521155 
L 204.884216 209.765994 
L 205.896307 206.538511 
L 206.908397 207.093415 
L 207.920488 208.770803 
L 208.932579 207.139405 
L 209.94467 202.749066 
L 210.95676 201.191965 
L 211.968851 204.672475 
L 212.980942 207.644242 
L 213.993033 207.146464 
L 215.005123 206.080177 
L 216.017214 205.31463 
L 217.029305 205.394834 
L 218.041396 207.007178 
L 219.053486 208.044374 
L 220.065577 206.909846 
L 221.077668 204.441426 
L 222.089759 202.712664 
L 223.101849 204.180857 
L 224.11394 207.50266 
L 225.126031 209.566289 
L 226.138122 210.346479 
L 227.150212 210.01854 
L 229.174394 206.937066 
L 230.186485 206.036049 
L 231.198575 204.876744 
L 232.210666 204.045079 
L 233.222757 206.210552 
L 234.234848 210.834192 
L 235.246938 212.930761 
L 236.259029 211.470502 
L 237.27112 210.222467 
L 238.283211 210.056055 
L 239.295301 209.498494 
L 240.307392 209.187363 
L 241.319483 209.8138 
L 242.331574 208.667863 
L 243.343664 204.689305 
L 244.355755 202.075858 
L 245.367846 203.749965 
L 247.392027 212.340549 
L 248.404118 213.969431 
L 249.416209 211.794835 
L 250.4283 209.221103 
L 251.44039 208.458448 
L 252.452481 210.033334 
L 254.476663 218.567469 
L 255.488753 216.642322 
L 257.512935 198.995165 
L 258.525026 193.354379 
L 259.537116 191.398207 
L 260.549207 193.209914 
L 261.561298 196.290313 
L 262.573389 197.343827 
L 263.58548 198.095346 
L 264.59757 200.716832 
L 267.633843 212.061151 
L 268.645933 216.471122 
L 269.658024 217.820166 
L 270.670115 213.450719 
L 271.682206 208.339125 
L 272.694296 205.414796 
L 273.706387 202.996558 
L 275.730569 197.1003 
L 276.742659 194.716467 
L 277.75475 191.507598 
L 278.766841 186.823803 
L 279.778932 185.677865 
L 280.791022 190.563858 
L 281.803113 194.470034 
L 282.815204 194.710463 
L 283.827295 195.572546 
L 284.839385 196.02689 
L 285.851476 194.495857 
L 286.863567 196.350754 
L 288.887748 211.862059 
L 289.899839 213.772455 
L 290.91193 210.098037 
L 291.924021 204.775574 
L 292.936111 201.355062 
L 293.948202 204.195951 
L 294.960293 215.736415 
L 295.972384 225.798598 
L 296.984474 222.584794 
L 297.996565 213.505998 
L 299.008656 209.085585 
L 300.020747 207.643538 
L 301.032837 207.945645 
L 302.044928 210.076458 
L 303.057019 208.9236 
L 304.06911 201.990607 
L 305.0812 193.743906 
L 306.093291 190.866233 
L 307.105382 195.300404 
L 308.117473 200.482036 
L 309.129563 200.83449 
L 310.141654 200.14527 
L 311.153745 203.97442 
L 312.165836 208.693179 
L 313.177926 209.360817 
L 314.190017 211.217335 
L 315.202108 218.549882 
L 316.214199 220.705192 
L 317.226289 211.633535 
L 318.23838 204.357374 
L 319.250471 204.87806 
L 320.262562 205.947654 
L 321.274652 203.79476 
L 322.286743 200.041803 
L 323.298834 197.666637 
L 325.323015 198.292466 
L 326.335106 197.985286 
L 327.347197 199.879015 
L 330.383469 211.562131 
L 331.39556 214.463985 
L 332.407651 214.611654 
L 333.419741 211.183848 
L 334.431832 210.016311 
L 335.443923 215.13177 
L 336.456014 219.153585 
L 337.468104 215.436539 
L 338.480195 208.855051 
L 339.492286 205.989707 
L 340.504377 207.085495 
L 341.516467 206.487818 
L 343.540649 190.652437 
L 344.55274 191.861063 
L 346.576921 205.191957 
L 347.589012 209.711723 
L 348.601103 215.308332 
L 349.613194 224.281282 
L 350.625284 229.736826 
L 351.637375 225.503459 
L 352.649466 219.035007 
L 353.661557 217.645276 
L 354.673647 218.132079 
L 355.685738 216.055738 
L 357.70992 208.313144 
L 358.72201 205.345326 
L 359.734101 199.477489 
L 360.746192 186.312828 
L 361.758283 174.811676 
L 362.770373 178.2081 
L 363.782464 189.445313 
L 364.794555 194.155751 
L 365.806646 192.708194 
L 366.818736 191.537698 
L 367.830827 192.186666 
L 368.842918 195.129061 
L 369.855009 200.629948 
L 370.867099 201.846711 
L 371.87919 194.561892 
L 372.891281 186.316734 
L 373.903372 184.270267 
L 374.915462 191.329161 
L 375.927553 202.486533 
L 376.939644 206.436766 
L 377.951735 200.754739 
L 378.963825 193.079836 
L 379.975916 187.163964 
L 380.988007 182.854328 
L 382.000098 181.575813 
L 383.012188 183.291357 
L 384.024279 185.861443 
L 385.03637 187.286818 
L 386.048461 187.358769 
L 387.060551 189.526318 
L 388.072642 195.336584 
L 389.084733 199.882371 
L 390.096824 197.63293 
L 391.108914 191.392821 
L 392.121005 188.852859 
L 393.133096 190.349453 
L 394.145187 192.668346 
L 395.157277 197.645081 
L 397.181459 217.759432 
L 398.19355 217.569152 
L 400.217731 199.675228 
L 401.229822 197.589769 
L 402.241913 206.983311 
L 403.254003 225.532245 
L 404.266094 235.976709 
L 405.278185 225.478339 
L 406.290276 208.396525 
L 407.302366 200.642056 
L 408.314457 201.189686 
L 409.326548 203.137651 
L 410.338639 200.04285 
L 411.350729 193.745777 
L 412.36282 192.701205 
L 414.387002 199.75918 
L 415.399092 205.229284 
L 416.411183 215.037083 
L 417.423274 222.211826 
L 418.435365 217.609615 
L 419.447455 206.357558 
L 420.459546 197.041229 
L 421.471637 192.972557 
L 422.483728 200.611779 
L 423.495818 220.678297 
L 424.507909 229.791954 
L 425.52 213.6048 
L 426.532091 194.841348 
L 427.544182 190.003874 
L 428.556272 192.791756 
L 429.568363 196.605503 
L 430.580454 198.005734 
L 431.592545 193.078036 
L 432.604635 183.765004 
L 433.616726 180.353676 
L 434.628817 185.479692 
L 435.640908 191.423636 
L 437.665089 207.238979 
L 438.67718 204.8202 
L 439.689271 195.539539 
L 440.701361 192.261607 
L 441.713452 192.291639 
L 442.725543 185.336312 
L 443.737634 168.193798 
L 444.749724 156.422081 
L 445.761815 165.449171 
L 446.773906 181.811007 
L 447.785997 190.171297 
L 448.798087 192.069073 
L 449.810178 194.25329 
L 450.822269 200.254631 
L 451.83436 203.957169 
L 452.84645 198.540516 
L 453.858541 190.148389 
L 454.870632 187.744587 
L 455.882723 190.963107 
L 456.894813 195.552373 
L 457.906904 199.323628 
L 458.918995 200.690408 
L 459.931086 199.338381 
L 460.943176 196.836475 
L 461.955267 196.517752 
L 462.967358 200.584475 
L 463.979449 206.883195 
L 464.991539 209.339732 
L 466.00363 204.537177 
L 467.015721 197.392316 
L 468.027812 192.984192 
L 469.039902 192.254583 
L 470.051993 195.175703 
L 471.064084 199.54903 
L 472.076175 201.423749 
L 473.088265 199.37632 
L 474.100356 195.919808 
L 475.112447 194.217824 
L 476.124538 197.420585 
L 477.136628 205.992138 
L 478.148719 211.162007 
L 479.16081 206.378447 
L 480.172901 199.315701 
L 481.184991 195.720587 
L 482.197082 193.898838 
L 483.209173 191.102089 
L 484.221264 184.603908 
L 485.233354 180.189783 
L 486.245445 184.635476 
L 487.257536 191.259523 
L 488.269627 193.672184 
L 489.281717 193.569219 
L 490.293808 191.939499 
L 491.305899 187.064954 
L 492.31799 183.268297 
L 493.33008 186.624001 
L 494.342171 191.956243 
L 495.354262 192.732461 
L 496.366353 191.037823 
L 497.378443 194.038918 
L 498.390534 200.545581 
L 499.402625 201.195601 
L 500.414716 198.193441 
L 501.426806 198.543991 
L 502.438897 202.318535 
L 503.450988 210.194086 
L 504.463079 223.748248 
L 505.475169 231.336634 
L 506.48726 221.229884 
L 507.499351 206.737946 
L 508.511442 202.409184 
L 509.523533 202.458377 
L 510.535623 196.372332 
L 511.547714 184.935509 
L 512.559805 177.711792 
L 513.571896 180.277178 
L 515.596077 196.678321 
L 516.608168 200.783378 
L 517.620259 195.464877 
L 518.632349 178.704653 
L 519.64444 165.229809 
L 520.656531 171.007516 
L 521.668622 184.213112 
L 522.680712 191.611729 
L 523.692803 191.662792 
L 524.704894 178.871103 
L 525.716985 160.656902 
L 525.716985 160.656902 
" clip-path="url(#p16f6e652bb)" style="fill: none; stroke: #023eff; stroke-linecap: round"/>
   </g>
   <g id="line2d_13">
    <path d="M 20.683699 73.671938 
L 21.69579 74.589443 
L 22.70788 77.646794 
L 24.732062 86.428152 
L 25.744153 89.513582 
L 26.756243 90.894758 
L 27.768334 91.309149 
L 28.780425 92.034509 
L 29.792516 93.30683 
L 30.804606 95.423719 
L 31.816697 98.97596 
L 33.840879 109.231458 
L 34.852969 112.96707 
L 35.86506 115.505773 
L 38.901332 124.092593 
L 39.913423 126.728448 
L 40.925514 130.721757 
L 44.973877 149.90115 
L 45.985968 152.664523 
L 48.010149 155.618207 
L 50.034331 159.644228 
L 52.058512 163.917918 
L 53.070603 165.52957 
L 54.082694 167.515799 
L 56.106875 172.951677 
L 57.118966 174.158625 
L 58.131057 174.5433 
L 59.143147 175.980089 
L 61.167329 182.446452 
L 62.17942 184.822961 
L 64.203601 190.285008 
L 65.215692 191.939981 
L 67.239873 194.044884 
L 68.251964 194.668056 
L 69.264055 194.704868 
L 70.276146 194.950933 
L 71.288236 196.506623 
L 73.312418 202.755603 
L 74.324509 203.725469 
L 75.336599 202.944656 
L 76.34869 202.638983 
L 77.360781 203.08727 
L 78.372872 204.3487 
L 80.397053 208.82862 
L 81.409144 209.41976 
L 82.421235 208.388309 
L 83.433325 208.109286 
L 84.445416 210.009616 
L 86.469598 214.967635 
L 87.481688 216.931403 
L 88.493779 217.251184 
L 89.50587 215.449405 
L 90.517961 213.079496 
L 91.530051 211.661561 
L 92.542142 211.5593 
L 93.554233 212.418719 
L 94.566324 213.435203 
L 96.590505 214.907385 
L 97.602596 215.862215 
L 98.614687 216.236452 
L 99.626778 215.92005 
L 100.638868 216.139242 
L 101.650959 217.595103 
L 102.66305 218.425317 
L 103.675141 217.549662 
L 104.687231 218.042446 
L 106.711413 224.670509 
L 107.723504 225.03086 
L 108.735594 224.002223 
L 109.747685 224.307444 
L 110.759776 225.819723 
L 111.771867 226.918021 
L 113.796048 228.229516 
L 114.808139 228.251806 
L 115.82023 228.108212 
L 116.83232 228.721348 
L 118.856502 231.295752 
L 119.868593 231.856972 
L 121.892774 230.958769 
L 122.904865 231.216346 
L 123.916956 232.117809 
L 124.929046 232.48929 
L 125.941137 231.885093 
L 126.953228 231.99906 
L 128.977409 235.496465 
L 129.9895 235.868491 
L 131.001591 234.896976 
L 132.013682 234.375306 
L 133.025772 234.815676 
L 134.037863 235.094486 
L 135.049954 235.045008 
L 136.062045 235.740115 
L 138.086226 238.976108 
L 139.098317 239.078632 
L 140.110408 237.863886 
L 141.122498 237.134308 
L 142.134589 236.588737 
L 143.14668 235.249825 
L 144.158771 234.294406 
L 145.170861 234.556841 
L 146.182952 235.110001 
L 148.207134 234.709917 
L 149.219224 235.336835 
L 150.231315 236.629765 
L 152.255497 240.854923 
L 153.267587 240.588325 
L 154.279678 237.823931 
L 155.291769 234.010336 
L 156.30386 231.117471 
L 157.31595 230.612243 
L 158.328041 232.314632 
L 160.352223 237.76432 
L 161.364313 239.229377 
L 163.388495 241.214019 
L 164.400586 241.062527 
L 165.412676 240.47101 
L 166.424767 240.78822 
L 167.436858 240.704935 
L 168.448949 239.291228 
L 169.461039 238.343713 
L 170.47313 239.106977 
L 172.497312 242.47764 
L 173.509402 243.064519 
L 174.521493 242.398574 
L 176.545675 241.43292 
L 178.569856 237.926094 
L 179.581947 236.701179 
L 180.594038 235.784162 
L 181.606129 236.154031 
L 182.618219 237.609152 
L 183.63031 238.614242 
L 184.642401 239.092369 
L 185.654492 239.100252 
L 186.666582 238.901281 
L 187.678673 239.435541 
L 188.690764 240.296151 
L 189.702855 240.000126 
L 190.714945 239.445746 
L 191.727036 240.611546 
L 192.739127 241.585877 
L 193.751218 239.893294 
L 194.763308 236.947029 
L 195.775399 235.018088 
L 196.78749 235.764597 
L 197.799581 238.451289 
L 198.811671 239.975097 
L 199.823762 240.004572 
L 200.835853 241.065203 
L 201.847944 243.520118 
L 202.860034 244.820995 
L 203.872125 243.255508 
L 204.884216 240.103511 
L 205.896307 238.091777 
L 206.908397 238.682033 
L 207.920488 240.097706 
L 208.932579 239.127876 
L 209.94467 236.004963 
L 210.95676 234.746528 
L 212.980942 239.104493 
L 213.993033 238.931395 
L 216.017214 238.019216 
L 217.029305 237.956637 
L 218.041396 238.958091 
L 219.053486 239.656857 
L 220.065577 238.948751 
L 221.077668 237.448681 
L 222.089759 236.412794 
L 223.101849 237.304787 
L 224.11394 239.382376 
L 225.126031 240.765341 
L 226.138122 241.417432 
L 227.150212 241.414908 
L 230.186485 239.026252 
L 231.198575 238.076897 
L 232.210666 237.552379 
L 233.222757 239.210385 
L 234.234848 242.612786 
L 235.246938 244.286598 
L 237.27112 242.319338 
L 238.283211 242.016659 
L 239.295301 241.579059 
L 240.307392 241.460835 
L 241.319483 242.130486 
L 242.331574 241.517019 
L 243.343664 238.689112 
L 244.355755 236.677223 
L 245.367846 237.696242 
L 247.392027 243.724706 
L 248.404118 244.995419 
L 249.416209 243.520226 
L 250.4283 241.56105 
L 251.44039 240.881385 
L 252.452481 242.002561 
L 254.476663 248.135407 
L 255.488753 247.022597 
L 257.512935 234.90311 
L 258.525026 230.858902 
L 259.537116 229.502348 
L 260.549207 230.876906 
L 261.561298 233.161232 
L 262.573389 233.935207 
L 263.58548 234.292987 
L 264.59757 235.901588 
L 267.633843 243.829001 
L 268.645933 247.080941 
L 269.658024 248.150541 
L 270.670115 245.097931 
L 271.682206 241.479642 
L 272.694296 239.433235 
L 273.706387 237.806687 
L 275.730569 234.127815 
L 276.742659 232.584692 
L 277.75475 230.302354 
L 278.766841 226.990909 
L 279.778932 226.107082 
L 280.791022 229.400551 
L 281.803113 232.186652 
L 282.815204 232.462524 
L 283.827295 232.973255 
L 284.839385 233.151088 
L 285.851476 232.031312 
L 286.863567 233.255667 
L 288.887748 244.028281 
L 289.899839 245.462137 
L 290.91193 242.873572 
L 291.924021 239.052451 
L 292.936111 236.593056 
L 293.948202 238.554758 
L 294.960293 246.614209 
L 295.972384 253.678009 
L 296.984474 251.503934 
L 297.996565 245.187258 
L 299.008656 242.075236 
L 300.020747 241.060864 
L 301.032837 241.320353 
L 302.044928 242.928885 
L 303.057019 242.206289 
L 304.06911 237.308571 
L 305.0812 231.478865 
L 306.093291 229.434353 
L 307.105382 232.451466 
L 308.117473 236.066031 
L 309.129563 236.495521 
L 310.141654 236.135183 
L 311.153745 238.655047 
L 312.165836 241.730857 
L 313.177926 242.108938 
L 314.190017 243.425391 
L 315.202108 248.659689 
L 316.214199 250.378782 
L 317.226289 244.219448 
L 318.23838 239.097358 
L 319.250471 239.297616 
L 320.262562 239.968788 
L 321.274652 238.583831 
L 322.286743 236.210173 
L 323.298834 234.634165 
L 325.323015 234.600258 
L 326.335106 234.394648 
L 327.347197 235.83849 
L 330.383469 244.369238 
L 331.39556 246.23681 
L 332.407651 246.129258 
L 333.419741 243.645789 
L 334.431832 242.836957 
L 335.443923 246.447415 
L 336.456014 249.344329 
L 337.468104 246.824909 
L 338.480195 242.187734 
L 339.492286 240.085826 
L 340.504377 240.837521 
L 341.516467 240.64118 
L 343.540649 230.259253 
L 344.55274 230.985922 
L 346.576921 239.962125 
L 347.589012 243.025346 
L 348.601103 246.871915 
L 349.613194 253.137433 
L 350.625284 256.963533 
L 351.637375 253.970507 
L 352.649466 249.398374 
L 353.661557 248.423299 
L 354.673647 248.828989 
L 355.685738 247.534753 
L 357.70992 242.424849 
L 358.72201 240.318075 
L 359.734101 236.25846 
L 360.746192 227.301017 
L 361.758283 219.574926 
L 362.770373 222.184898 
L 363.782464 230.141993 
L 364.794555 233.40776 
L 365.806646 232.354385 
L 366.818736 231.520251 
L 367.830827 231.983714 
L 368.842918 234.089183 
L 369.855009 237.957003 
L 370.867099 238.736832 
L 371.87919 233.525416 
L 372.891281 227.720799 
L 373.903372 226.34215 
L 374.915462 231.309348 
L 375.927553 239.134369 
L 376.939644 242.032009 
L 377.951735 238.211005 
L 378.963825 232.808038 
L 379.975916 228.522459 
L 380.988007 225.443587 
L 382.000098 224.646876 
L 383.012188 226.08835 
L 384.024279 228.067289 
L 385.03637 229.008316 
L 386.048461 228.938547 
L 387.060551 230.41541 
L 388.072642 234.474401 
L 389.084733 237.729143 
L 390.096824 236.370055 
L 391.108914 232.137258 
L 392.121005 230.195043 
L 393.133096 231.001611 
L 394.145187 232.55216 
L 395.157277 236.043397 
L 397.181459 249.986741 
L 398.19355 249.755503 
L 400.217731 236.916557 
L 401.229822 235.403471 
L 402.241913 241.964151 
L 403.254003 254.938291 
L 404.266094 262.264804 
L 405.278185 254.974002 
L 406.290276 243.083277 
L 407.302366 237.6938 
L 408.314457 238.098412 
L 409.326548 239.557715 
L 410.338639 237.606834 
L 411.350729 233.333643 
L 412.36282 232.492741 
L 414.387002 237.148416 
L 415.399092 240.956021 
L 416.411183 247.812823 
L 417.423274 252.819062 
L 418.435365 249.571739 
L 419.447455 241.61404 
L 420.459546 235.023768 
L 421.471637 232.269671 
L 422.483728 237.792989 
L 423.495818 251.905762 
L 424.507909 258.29131 
L 425.52 246.970402 
L 426.532091 233.788385 
L 427.544182 230.408548 
L 428.556272 232.603474 
L 429.568363 235.715269 
L 430.580454 237.090656 
L 431.592545 233.709081 
L 432.604635 226.914028 
L 433.616726 224.195738 
L 434.628817 227.621315 
L 435.640908 231.817605 
L 437.665089 243.07485 
L 438.67718 241.322621 
L 439.689271 234.607078 
L 440.701361 232.07796 
L 441.713452 232.038538 
L 442.725543 227.371089 
L 443.737634 215.805918 
L 444.749724 207.861495 
L 445.761815 213.989127 
L 446.773906 225.046801 
L 447.785997 230.652302 
L 448.798087 231.87416 
L 449.810178 233.362505 
L 450.822269 237.559431 
L 451.83436 240.127635 
L 452.84645 236.299503 
L 453.858541 230.45266 
L 454.870632 228.882871 
L 455.882723 231.280266 
L 456.894813 234.620047 
L 457.906904 237.341431 
L 458.918995 238.288664 
L 459.931086 237.248579 
L 460.943176 235.418845 
L 461.955267 235.201209 
L 462.967358 238.096105 
L 463.979449 242.485273 
L 464.991539 244.069441 
L 466.00363 240.544695 
L 467.015721 235.439789 
L 468.027812 232.30504 
L 469.039902 231.776878 
L 470.051993 233.842726 
L 471.064084 236.992396 
L 472.076175 238.405174 
L 473.088265 236.985479 
L 474.100356 234.525405 
L 475.112447 233.293236 
L 476.124538 235.488769 
L 477.136628 241.432014 
L 478.148719 245.039229 
L 479.16081 241.736893 
L 480.172901 236.804922 
L 481.184991 234.273896 
L 482.197082 233.029239 
L 483.209173 231.175024 
L 484.221264 226.806257 
L 485.233354 223.812 
L 486.245445 226.777415 
L 487.257536 231.203311 
L 488.269627 232.809539 
L 489.281717 232.767891 
L 490.293808 231.735991 
L 491.305899 228.497287 
L 492.31799 225.933702 
L 493.33008 228.180201 
L 494.342171 231.772504 
L 495.354262 232.29588 
L 496.366353 231.16474 
L 497.378443 233.273944 
L 498.390534 237.78541 
L 499.402625 238.220909 
L 500.414716 236.087021 
L 501.426806 236.263496 
L 502.438897 238.836208 
L 503.450988 244.28864 
L 504.463079 253.71785 
L 505.475169 259.011274 
L 506.48726 252.013515 
L 507.499351 241.97977 
L 508.511442 239.007771 
L 509.523533 239.087513 
L 510.535623 234.966983 
L 511.547714 227.177017 
L 512.559805 222.227027 
L 513.571896 223.914335 
L 515.596077 235.078998 
L 516.608168 237.900982 
L 517.620259 234.27314 
L 518.632349 222.808779 
L 519.64444 213.556681 
L 520.656531 217.466504 
L 521.668622 226.477995 
L 522.680712 231.528799 
L 523.692803 231.568032 
L 524.704894 222.852077 
L 525.716985 210.43635 
L 525.716985 210.43635 
" clip-path="url(#p16f6e652bb)" style="fill: none; stroke: #ff7c00; stroke-linecap: round"/>
   </g>
   <g id="line2d_14">
    <path d="M 20.683699 73.654819 
L 21.69579 74.436775 
L 22.70788 75.85 
L 23.719971 77.715079 
L 24.732062 79.942548 
L 25.744153 82.528515 
L 27.768334 88.588118 
L 30.804606 98.540889 
L 32.828788 106.267195 
L 34.852969 114.894683 
L 36.877151 124.475604 
L 43.961786 160.863416 
L 45.985968 169.959903 
L 49.02224 181.991915 
L 52.058512 194.288649 
L 54.082694 202.525636 
L 57.118966 213.700476 
L 62.17942 231.396914 
L 65.215692 241.667858 
L 66.227783 244.731978 
L 67.239873 247.365356 
L 69.264055 251.689433 
L 73.312418 259.810743 
L 74.324509 261.299125 
L 76.34869 263.930113 
L 79.384962 268.585595 
L 80.397053 269.714644 
L 81.409144 270.420562 
L 82.421235 270.795278 
L 84.445416 271.238766 
L 85.457507 271.600685 
L 86.469598 272.150702 
L 93.554233 277.199092 
L 94.566324 278.226828 
L 96.590505 280.784779 
L 98.614687 283.37695 
L 100.638868 285.612 
L 102.66305 287.539012 
L 105.699322 290.225799 
L 107.723504 292.328129 
L 109.747685 294.515358 
L 111.771867 296.408935 
L 113.796048 297.918222 
L 114.808139 298.454043 
L 116.83232 299.099152 
L 118.856502 299.704797 
L 125.941137 302.504562 
L 128.977409 303.784188 
L 131.001591 304.369171 
L 137.074135 305.639094 
L 139.098317 305.959071 
L 141.122498 306.481203 
L 144.158771 307.317864 
L 150.231315 308.58839 
L 160.352223 309.939824 
L 163.388495 310.542968 
L 165.412676 310.648894 
L 168.448949 310.718273 
L 170.47313 310.923492 
L 172.497312 311.405918 
L 174.521493 311.989239 
L 175.533584 312.117998 
L 178.569856 312.107758 
L 180.594038 312.511271 
L 182.618219 312.818651 
L 186.666582 312.897334 
L 189.702855 313.187885 
L 192.739127 313.20397 
L 196.78749 313.501181 
L 199.823762 313.604018 
L 202.860034 313.819047 
L 206.908397 314.023773 
L 209.94467 314.275517 
L 223.101849 314.470813 
L 227.150212 314.642828 
L 231.198575 314.983304 
L 239.295301 315.137151 
L 242.331574 315.182762 
L 246.379937 315.247766 
L 251.44039 315.182238 
L 254.476663 315.231053 
L 260.549207 315.734341 
L 267.633843 315.465283 
L 272.694296 315.833754 
L 274.718478 316.208053 
L 276.742659 316.729823 
L 277.75475 316.862939 
L 278.766841 316.831902 
L 280.791022 316.395105 
L 282.815204 315.988461 
L 285.851476 315.783025 
L 288.887748 315.681792 
L 329.371378 316.00492 
L 331.39556 316.068187 
L 337.468104 316.048727 
L 340.504377 316.157788 
L 344.55274 316.466407 
L 355.685738 316.468429 
L 357.70992 316.744365 
L 358.72201 317.052601 
L 359.734101 317.511281 
L 363.782464 319.84813 
L 364.794555 320.158858 
L 365.806646 320.278446 
L 366.818736 320.231393 
L 368.842918 319.834098 
L 370.867099 319.408992 
L 372.891281 319.26719 
L 375.927553 319.423606 
L 377.951735 319.543365 
L 379.975916 319.362317 
L 380.988007 319.244917 
L 382.000098 319.255032 
L 383.012188 319.436978 
L 386.048461 320.302783 
L 388.072642 320.546336 
L 390.096824 320.540325 
L 392.121005 320.304662 
L 395.157277 319.911313 
L 398.19355 319.533552 
L 401.229822 319.054949 
L 402.241913 319.041119 
L 404.266094 319.327759 
L 407.302366 319.811434 
L 409.326548 319.990821 
L 411.350729 319.987595 
L 420.459546 319.484517 
L 422.483728 319.671546 
L 424.507909 319.869771 
L 426.532091 319.731516 
L 427.544182 319.822106 
L 428.556272 320.142609 
L 430.580454 320.98863 
L 431.592545 321.173414 
L 434.628817 321.215182 
L 436.652998 321.608835 
L 437.665089 321.632966 
L 438.67718 321.403498 
L 441.713452 320.18387 
L 442.725543 320.003678 
L 446.773906 319.735284 
L 450.822269 318.932673 
L 452.84645 318.975189 
L 460.943176 320.088234 
L 462.967358 320.059961 
L 464.991539 319.587881 
L 467.015721 319.068317 
L 469.039902 318.820652 
L 471.064084 318.837909 
L 473.088265 318.994433 
L 475.112447 318.897296 
L 478.148719 318.564912 
L 481.184991 318.56201 
L 485.233354 318.61063 
L 489.281717 318.85749 
L 498.390534 318.565114 
L 503.450988 318.336288 
L 508.511442 318.29855 
L 511.547714 318.05765 
L 518.632349 317.939831 
L 525.716985 317.715617 
L 525.716985 317.715617 
" clip-path="url(#p16f6e652bb)" style="fill: none; stroke: #e8000b; stroke-width: 2; stroke-linecap: round"/>
   </g>
   <g id="line2d_15">
    <path d="M 20.683699 88.990096 
L 21.69579 93.240053 
L 23.719971 106.766687 
L 24.732062 112.12851 
L 25.744153 115.888545 
L 27.768334 122.07264 
L 28.780425 126.091088 
L 29.792516 131.216924 
L 30.804606 137.641542 
L 32.828788 153.870166 
L 33.840879 162.207284 
L 34.852969 169.612685 
L 36.877151 181.867983 
L 39.913423 198.969785 
L 40.925514 203.948368 
L 41.937605 208.05134 
L 42.949695 211.164503 
L 43.961786 213.420721 
L 44.973877 215.12362 
L 46.998058 217.863676 
L 48.010149 219.008009 
L 50.034331 220.764349 
L 51.046421 221.58656 
L 52.058512 222.558101 
L 53.070603 223.760849 
L 54.082694 225.239613 
L 56.106875 228.907594 
L 59.143147 234.612619 
L 63.19151 241.993996 
L 65.215692 246.62549 
L 67.239873 251.145414 
L 68.251964 252.963352 
L 70.276146 255.912127 
L 71.288236 257.219278 
L 72.300327 258.33655 
L 73.312418 259.069497 
L 76.34869 260.132929 
L 77.360781 261.125876 
L 78.372872 262.322803 
L 79.384962 263.25736 
L 80.397053 263.576193 
L 81.409144 263.204171 
L 82.421235 262.292966 
L 84.445416 259.894329 
L 85.457507 259.048718 
L 86.469598 258.840705 
L 87.481688 259.28092 
L 88.493779 260.03143 
L 89.50587 260.634115 
L 90.517961 260.839081 
L 92.542142 260.717611 
L 93.554233 261.174517 
L 94.566324 262.376462 
L 95.578414 264.292196 
L 98.614687 271.411368 
L 99.626778 273.278959 
L 100.638868 274.560083 
L 101.650959 275.259565 
L 103.675141 276.078687 
L 104.687231 276.945073 
L 105.699322 278.303658 
L 107.723504 281.580446 
L 108.735594 282.993269 
L 110.759776 285.25839 
L 112.783957 287.204111 
L 113.796048 287.927683 
L 114.808139 288.367557 
L 118.856502 289.092968 
L 119.868593 289.219294 
L 120.880683 289.123043 
L 121.892774 288.912934 
L 122.904865 288.89509 
L 123.916956 289.354435 
L 124.929046 290.337132 
L 126.953228 292.730863 
L 127.965319 293.483776 
L 132.013682 295.146618 
L 133.025772 295.665603 
L 134.037863 296.043689 
L 136.062045 296.498745 
L 137.074135 296.887407 
L 138.086226 297.549195 
L 140.110408 299.16908 
L 141.122498 299.620194 
L 144.158771 300.150796 
L 147.195043 301.687363 
L 148.207134 301.745278 
L 149.219224 301.420771 
L 150.231315 300.922961 
L 151.243406 300.615403 
L 152.255497 300.776925 
L 155.291769 302.420142 
L 157.31595 302.6433 
L 158.328041 303.012946 
L 160.352223 304.343059 
L 161.364313 304.719339 
L 164.400586 304.775143 
L 165.412676 305.350819 
L 167.436858 307.068909 
L 168.448949 307.614 
L 169.461039 307.736462 
L 174.521493 306.907257 
L 177.557765 306.685989 
L 178.569856 306.949185 
L 180.594038 307.974149 
L 181.606129 308.266119 
L 182.618219 308.264338 
L 183.63031 308.146146 
L 184.642401 308.192113 
L 185.654492 308.576083 
L 187.678673 309.836029 
L 188.690764 310.089822 
L 189.702855 309.886264 
L 191.727036 309.039293 
L 192.739127 308.98704 
L 195.775399 309.771295 
L 197.799581 309.568548 
L 198.811671 309.767134 
L 200.835853 310.883972 
L 201.847944 311.168287 
L 203.872125 310.993126 
L 204.884216 311.14888 
L 205.896307 311.636525 
L 206.908397 312.259171 
L 207.920488 312.731965 
L 208.932579 312.861532 
L 211.968851 312.294761 
L 212.980942 312.517834 
L 215.005123 313.371013 
L 216.017214 313.527514 
L 218.041396 313.343954 
L 219.053486 313.422386 
L 221.077668 313.981449 
L 222.089759 314.05001 
L 225.126031 313.531569 
L 226.138122 313.849067 
L 228.162303 314.858326 
L 229.174394 315.030807 
L 231.198575 314.845031 
L 232.210666 314.993331 
L 235.246938 316.373851 
L 236.259029 316.455723 
L 238.283211 316.119968 
L 239.295301 316.188864 
L 241.319483 316.879809 
L 242.331574 317.012952 
L 243.343664 316.803289 
L 245.367846 316.080439 
L 246.379937 316.017538 
L 248.404118 316.346715 
L 249.416209 316.359028 
L 251.44039 316.086018 
L 252.452481 316.177844 
L 255.488753 317.213843 
L 256.500844 317.110589 
L 258.525026 316.252714 
L 259.537116 316.103745 
L 260.549207 316.320146 
L 261.561298 316.68604 
L 262.573389 316.903084 
L 263.58548 316.856199 
L 264.59757 316.68732 
L 265.609661 316.638089 
L 266.621752 316.84653 
L 268.645933 317.670779 
L 269.658024 317.866368 
L 270.670115 317.77357 
L 275.730569 316.481288 
L 277.75475 315.615494 
L 278.766841 315.491753 
L 279.778932 315.804939 
L 282.815204 317.770314 
L 283.827295 317.913231 
L 286.863567 317.698608 
L 289.899839 318.132725 
L 290.91193 318.004632 
L 292.936111 317.545955 
L 293.948202 317.519314 
L 296.984474 317.866362 
L 299.008656 317.766365 
L 300.020747 317.851273 
L 302.044928 318.248914 
L 303.057019 318.252118 
L 305.0812 317.669514 
L 306.093291 317.422171 
L 307.105382 317.406302 
L 310.141654 317.925563 
L 313.177926 317.576309 
L 314.190017 317.80389 
L 316.214199 318.595532 
L 317.226289 318.748315 
L 320.262562 318.492721 
L 322.286743 318.742527 
L 323.298834 318.647892 
L 325.323015 318.002903 
L 326.335106 317.937755 
L 327.347197 318.190972 
L 329.371378 318.932559 
L 330.383469 318.993515 
L 331.39556 318.768766 
L 333.419741 318.125473 
L 334.431832 318.048606 
L 337.468104 318.292557 
L 339.492286 318.001986 
L 340.504377 318.065862 
L 343.540649 319.095519 
L 344.55274 319.086951 
L 346.576921 318.745576 
L 347.589012 318.719797 
L 350.625284 318.992486 
L 353.661557 318.66566 
L 356.697829 319.190439 
L 357.70992 318.911397 
L 358.72201 318.132922 
L 360.746192 315.638349 
L 361.758283 314.414016 
L 362.770373 313.416823 
L 363.782464 312.660811 
L 364.794555 312.146208 
L 365.806646 311.943651 
L 366.818736 312.149828 
L 367.830827 312.758641 
L 369.855009 314.303483 
L 370.867099 314.658276 
L 371.87919 314.623757 
L 372.891281 314.433167 
L 373.903372 314.374785 
L 374.915462 314.559858 
L 376.939644 315.073212 
L 380.988007 315.25725 
L 382.000098 315.454348 
L 383.012188 315.40731 
L 384.024279 314.973522 
L 386.048461 313.523116 
L 387.060551 313.109491 
L 388.072642 313.130388 
L 391.108914 314.159606 
L 395.157277 314.766089 
L 397.181459 315.292955 
L 398.19355 315.269758 
L 400.217731 314.933045 
L 401.229822 314.999677 
L 402.241913 315.198529 
L 403.254003 315.274881 
L 404.266094 315.022071 
L 407.302366 313.275023 
L 408.314457 313.059551 
L 409.326548 313.149128 
L 411.350729 313.585761 
L 413.374911 313.549298 
L 414.387002 313.541184 
L 418.435365 313.920348 
L 420.459546 313.759165 
L 421.471637 313.833633 
L 424.507909 314.397907 
L 426.532091 314.44239 
L 428.556272 314.271795 
L 430.580454 313.830615 
L 431.592545 313.399479 
L 433.616726 312.097429 
L 434.628817 311.38929 
L 435.640908 310.827768 
L 436.652998 310.549396 
L 437.665089 310.614222 
L 438.67718 310.986696 
L 440.701361 312.256193 
L 442.725543 313.655514 
L 443.737634 314.202996 
L 444.749724 314.505046 
L 447.785997 314.758211 
L 450.822269 316.011141 
L 451.83436 316.038466 
L 452.84645 315.75234 
L 453.858541 315.349912 
L 454.870632 315.078835 
L 455.882723 315.05698 
L 457.906904 315.245405 
L 458.918995 315.036235 
L 460.943176 314.145635 
L 461.955267 313.969047 
L 462.967358 314.167239 
L 464.991539 315.0749 
L 466.00363 315.317576 
L 469.039902 315.487822 
L 471.064084 315.914088 
L 472.076175 315.91284 
L 474.100356 315.745623 
L 475.112447 315.897569 
L 478.148719 316.96067 
L 479.16081 317.002393 
L 481.184991 316.692731 
L 482.197082 316.722212 
L 484.221264 317.013547 
L 485.233354 316.878528 
L 488.269627 315.662056 
L 489.281717 315.652905 
L 492.31799 316.588715 
L 493.33008 316.594868 
L 495.354262 316.422499 
L 496.366353 316.585836 
L 498.390534 317.201975 
L 499.402625 317.334032 
L 501.426806 317.339373 
L 503.450988 317.714782 
L 504.463079 317.926472 
L 506.48726 317.987778 
L 507.499351 317.995176 
L 508.511442 318.179252 
L 511.547714 319.332962 
L 512.559805 319.342658 
L 515.596077 318.690623 
L 516.608168 318.813235 
L 518.632349 319.307705 
L 519.64444 319.333475 
L 522.680712 318.904159 
L 523.692803 319.157533 
L 525.716985 319.950523 
L 525.716985 319.950523 
" clip-path="url(#p16f6e652bb)" style="fill: none; stroke: #9f4800; stroke-width: 2; stroke-linecap: round"/>
   </g>
   <g id="line2d_16">
    <path d="M 20.683699 323.476429 
L 25.744153 320.409571 
L 30.804606 319.082532 
L 35.86506 315.618524 
L 40.925514 315.812728 
L 45.985968 312.641089 
L 51.046421 306.556748 
L 56.106875 303.201412 
L 61.167329 294.116833 
L 66.227783 287.030637 
L 71.288236 268.604435 
L 76.34869 249.447932 
L 81.409144 230.295104 
L 86.469598 205.080768 
L 91.530051 182.879372 
L 96.590505 169.021911 
L 101.650959 156.583637 
L 106.711413 148.09886 
L 111.771867 144.581432 
L 116.83232 139.163953 
L 121.892774 129.974059 
L 126.953228 123.945623 
L 132.013682 117.12954 
L 137.074135 104.360799 
L 142.134589 101.287449 
L 147.195043 99.657794 
L 152.255497 97.634446 
L 157.31595 98.848513 
L 162.376404 95.304275 
L 167.436858 92.28012 
L 172.497312 94.639402 
L 177.557765 89.890005 
L 182.618219 86.666134 
L 187.678673 86.485028 
L 192.739127 84.142846 
L 197.799581 82.881553 
L 202.860034 81.840151 
L 207.920488 83.82977 
L 212.980942 84.263742 
L 218.041396 80.449419 
L 223.101849 78.735212 
L 228.162303 81.179514 
L 233.222757 78.193643 
L 238.283211 77.283927 
L 243.343664 81.076676 
L 248.404118 82.973295 
L 253.464572 82.668038 
L 258.525026 82.443265 
L 263.58548 78.104354 
L 268.645933 77.464605 
L 273.706387 81.56748 
L 278.766841 82.605666 
L 283.827295 78.937884 
L 288.887748 76.549857 
L 293.948202 75.965186 
L 299.008656 76.08301 
L 304.06911 76.520633 
L 309.129563 75.287081 
L 314.190017 75.081342 
L 319.250471 79.986127 
L 324.310925 89.600484 
L 329.371378 86.685327 
L 334.431832 79.909297 
L 339.492286 77.430929 
L 344.55274 76.907509 
L 349.613194 75.533064 
L 354.673647 76.877121 
L 359.734101 84.220936 
L 364.794555 98.378959 
L 369.855009 103.719824 
L 374.915462 104.573539 
L 379.975916 101.733877 
L 385.03637 99.09632 
L 390.096824 98.39847 
L 395.157277 98.42306 
L 400.217731 94.583342 
L 405.278185 94.316676 
L 410.338639 94.802049 
L 415.399092 98.963012 
L 420.459546 98.77324 
L 425.52 104.998853 
L 430.580454 120.594611 
L 435.640908 114.011909 
L 440.701361 98.500916 
L 445.761815 93.634515 
L 450.822269 91.086013 
L 455.882723 86.175706 
L 460.943176 81.965318 
L 466.00363 80.636009 
L 471.064084 79.592379 
L 476.124538 81.131302 
L 481.184991 83.719747 
L 486.245445 83.197132 
L 491.305899 80.847108 
L 496.366353 79.914027 
L 501.426806 75.518829 
L 506.48726 72.997581 
L 511.547714 72.271131 
L 516.608168 71.811399 
L 521.668622 71.297857 
" clip-path="url(#p16f6e652bb)" style="fill: none; stroke: #000000; stroke-width: 1.5; stroke-linecap: round"/>
   </g>
   <g id="line2d_17">
    <path d="M 20.683699 72.897285 
L 25.744153 78.116928 
L 30.804606 88.067545 
L 35.86506 103.267641 
L 40.925514 121.749577 
L 45.985968 142.502364 
L 51.046421 163.450652 
L 56.106875 186.44575 
L 61.167329 212.233619 
L 66.227783 237.276401 
L 71.288236 257.297705 
L 76.34869 269.257552 
L 81.409144 272.600151 
L 86.469598 270.753569 
L 91.530051 266.545031 
L 96.590505 261.510336 
L 101.650959 260.300926 
L 106.711413 261.903114 
L 111.771867 266.987033 
L 116.83232 269.62097 
L 121.892774 269.214944 
L 126.953228 270.224962 
L 132.013682 271.679077 
L 137.074135 272.382441 
L 142.134589 277.028701 
L 147.195043 279.097227 
L 152.255497 279.209449 
L 157.31595 278.705689 
L 162.376404 277.180286 
L 167.436858 278.429548 
L 172.497312 281.981834 
L 177.557765 286.520678 
L 182.618219 290.317726 
L 187.678673 292.385455 
L 192.739127 292.541461 
L 197.799581 292.691182 
L 202.860034 294.804611 
L 207.920488 297.760997 
L 212.980942 299.128626 
L 218.041396 300.05586 
L 223.101849 299.18465 
L 228.162303 298.130958 
L 233.222757 298.040249 
L 238.283211 298.332166 
L 243.343664 299.104593 
L 248.404118 301.040565 
L 253.464572 302.852179 
L 258.525026 302.998052 
L 263.58548 301.606052 
L 268.645933 300.369764 
L 273.706387 300.452355 
L 278.766841 302.981201 
L 283.827295 305.093308 
L 288.887748 305.843631 
L 293.948202 304.788121 
L 299.008656 303.394565 
L 304.06911 301.41223 
L 309.129563 303.002403 
L 314.190017 304.383421 
L 319.250471 306.356668 
L 324.310925 307.922192 
L 329.371378 309.83283 
L 334.431832 311.035563 
L 339.492286 309.535378 
L 344.55274 308.664235 
L 349.613194 308.267162 
L 354.673647 308.77386 
L 359.734101 311.260213 
L 364.794555 315.228833 
L 369.855009 316.964245 
L 374.915462 317.961222 
L 379.975916 317.623546 
L 385.03637 317.901949 
L 390.096824 319.176997 
L 395.157277 319.035088 
L 400.217731 318.790789 
L 405.278185 320.691196 
L 410.338639 320.841422 
L 415.399092 319.603904 
L 420.459546 318.817539 
L 425.52 319.443951 
L 430.580454 321.00716 
L 435.640908 318.712862 
L 440.701361 315.589734 
L 445.761815 314.395368 
L 450.822269 314.599804 
L 455.882723 314.443179 
L 460.943176 313.554955 
L 466.00363 312.690099 
L 471.064084 312.639334 
L 476.124538 312.344258 
L 481.184991 312.204031 
L 486.245445 312.720134 
L 491.305899 313.482612 
L 496.366353 313.155716 
L 501.426806 313.486973 
L 506.48726 313.335856 
L 511.547714 312.215841 
L 516.608168 311.686029 
L 521.668622 312.447718 
" clip-path="url(#p16f6e652bb)" style="fill: none; stroke: #8b2be2; stroke-width: 1.5; stroke-linecap: round"/>
   </g>
   <g id="patch_3">
    <path d="M 10.8 328.52 
L 10.8 46.08 
" style="fill: none; stroke: #ffffff; stroke-width: 0.8; stroke-linejoin: miter; stroke-linecap: square"/>
   </g>
   <g id="patch_4">
    <path d="M 529.2 328.52 
L 529.2 46.08 
" style="fill: none; stroke: #ffffff; stroke-width: 0.8; stroke-linejoin: miter; stroke-linecap: square"/>
   </g>
   <g id="patch_5">
    <path d="M 10.8 328.52 
L 529.2 328.52 
" style="fill: none; stroke: #ffffff; stroke-width: 0.8; stroke-linejoin: miter; stroke-linecap: square"/>
   </g>
   <g id="patch_6">
    <path d="M 10.8 46.08 
L 529.2 46.08 
" style="fill: none; stroke: #ffffff; stroke-width: 0.8; stroke-linejoin: miter; stroke-linecap: square"/>
   </g>
  </g>
  <g id="text_3">
   <!-- CMU-Net | PM -->
   <g style="fill: #262626" transform="translate(177.133125 25.54125) scale(0.24 -0.24)">
    <defs>
     <path id="DejaVuSans-Bold-43" d="M 4288 256 
Q 3956 84 3597 -3 
Q 3238 -91 2847 -91 
Q 1681 -91 1000 561 
Q 319 1213 319 2328 
Q 319 3447 1000 4098 
Q 1681 4750 2847 4750 
Q 3238 4750 3597 4662 
Q 3956 4575 4288 4403 
L 4288 3438 
Q 3953 3666 3628 3772 
Q 3303 3878 2944 3878 
Q 2300 3878 1931 3465 
Q 1563 3053 1563 2328 
Q 1563 1606 1931 1193 
Q 2300 781 2944 781 
Q 3303 781 3628 887 
Q 3953 994 4288 1222 
L 4288 256 
z
" transform="scale(0.015625)"/>
     <path id="DejaVuSans-Bold-4d" d="M 588 4666 
L 2119 4666 
L 3181 2169 
L 4250 4666 
L 5778 4666 
L 5778 0 
L 4641 0 
L 4641 3413 
L 3566 897 
L 2803 897 
L 1728 3413 
L 1728 0 
L 588 0 
L 588 4666 
z
" transform="scale(0.015625)"/>
     <path id="DejaVuSans-Bold-55" d="M 588 4666 
L 1791 4666 
L 1791 1869 
Q 1791 1291 1980 1042 
Q 2169 794 2597 794 
Q 3028 794 3217 1042 
Q 3406 1291 3406 1869 
L 3406 4666 
L 4609 4666 
L 4609 1869 
Q 4609 878 4112 393 
Q 3616 -91 2597 -91 
Q 1581 -91 1084 393 
Q 588 878 588 1869 
L 588 4666 
z
" transform="scale(0.015625)"/>
     <path id="DejaVuSans-Bold-2d" d="M 347 2297 
L 2309 2297 
L 2309 1388 
L 347 1388 
L 347 2297 
z
" transform="scale(0.015625)"/>
     <path id="DejaVuSans-Bold-4e" d="M 588 4666 
L 1931 4666 
L 3628 1466 
L 3628 4666 
L 4769 4666 
L 4769 0 
L 3425 0 
L 1728 3200 
L 1728 0 
L 588 0 
L 588 4666 
z
" transform="scale(0.015625)"/>
     <path id="DejaVuSans-Bold-65" d="M 4031 1759 
L 4031 1441 
L 1416 1441 
Q 1456 1047 1700 850 
Q 1944 653 2381 653 
Q 2734 653 3104 758 
Q 3475 863 3866 1075 
L 3866 213 
Q 3469 63 3072 -14 
Q 2675 -91 2278 -91 
Q 1328 -91 801 392 
Q 275 875 275 1747 
Q 275 2603 792 3093 
Q 1309 3584 2216 3584 
Q 3041 3584 3536 3087 
Q 4031 2591 4031 1759 
z
M 2881 2131 
Q 2881 2450 2695 2645 
Q 2509 2841 2209 2841 
Q 1884 2841 1681 2658 
Q 1478 2475 1428 2131 
L 2881 2131 
z
" transform="scale(0.015625)"/>
     <path id="DejaVuSans-Bold-74" d="M 1759 4494 
L 1759 3500 
L 2913 3500 
L 2913 2700 
L 1759 2700 
L 1759 1216 
Q 1759 972 1856 886 
Q 1953 800 2241 800 
L 2816 800 
L 2816 0 
L 1856 0 
Q 1194 0 917 276 
Q 641 553 641 1216 
L 641 2700 
L 84 2700 
L 84 3500 
L 641 3500 
L 641 4494 
L 1759 4494 
z
" transform="scale(0.015625)"/>
     <path id="DejaVuSans-Bold-20" transform="scale(0.015625)"/>
     <path id="DejaVuSans-Bold-7c" d="M 1522 4891 
L 1522 -1509 
L 813 -1509 
L 813 4891 
L 1522 4891 
z
" transform="scale(0.015625)"/>
     <path id="DejaVuSans-Bold-50" d="M 588 4666 
L 2584 4666 
Q 3475 4666 3951 4270 
Q 4428 3875 4428 3144 
Q 4428 2409 3951 2014 
Q 3475 1619 2584 1619 
L 1791 1619 
L 1791 0 
L 588 0 
L 588 4666 
z
M 1791 3794 
L 1791 2491 
L 2456 2491 
Q 2806 2491 2997 2661 
Q 3188 2831 3188 3144 
Q 3188 3456 2997 3625 
Q 2806 3794 2456 3794 
L 1791 3794 
z
" transform="scale(0.015625)"/>
    </defs>
    <use xlink:href="#DejaVuSans-Bold-43"/>
    <use xlink:href="#DejaVuSans-Bold-4d" transform="translate(73.388672 0)"/>
    <use xlink:href="#DejaVuSans-Bold-55" transform="translate(172.900391 0)"/>
    <use xlink:href="#DejaVuSans-Bold-2d" transform="translate(254.101562 0)"/>
    <use xlink:href="#DejaVuSans-Bold-4e" transform="translate(295.605469 0)"/>
    <use xlink:href="#DejaVuSans-Bold-65" transform="translate(379.296875 0)"/>
    <use xlink:href="#DejaVuSans-Bold-74" transform="translate(447.119141 0)"/>
    <use xlink:href="#DejaVuSans-Bold-20" transform="translate(494.921875 0)"/>
    <use xlink:href="#DejaVuSans-Bold-7c" transform="translate(529.736328 0)"/>
    <use xlink:href="#DejaVuSans-Bold-20" transform="translate(566.259766 0)"/>
    <use xlink:href="#DejaVuSans-Bold-50" transform="translate(601.074219 0)"/>
    <use xlink:href="#DejaVuSans-Bold-4d" transform="translate(674.365234 0)"/>
   </g>
  </g>
 </g>
 <defs>
  <clipPath id="p16f6e652bb">
   <rect x="10.8" y="46.08" width="518.4" height="282.44"/>
  </clipPath>
 </defs>
</svg>
