<?xml version="1.0" encoding="utf-8" standalone="no"?>
<!DOCTYPE svg PUBLIC "-//W3C//DTD SVG 1.1//EN"
  "http://www.w3.org/Graphics/SVG/1.1/DTD/svg11.dtd">
<svg xmlns:xlink="http://www.w3.org/1999/xlink" width="540pt" height="360pt" viewBox="0 0 540 360" xmlns="http://www.w3.org/2000/svg" version="1.1">
 <metadata>
  <rdf:RDF xmlns:dc="http://purl.org/dc/elements/1.1/" xmlns:cc="http://creativecommons.org/ns#" xmlns:rdf="http://www.w3.org/1999/02/22-rdf-syntax-ns#">
   <cc:Work>
    <dc:type rdf:resource="http://purl.org/dc/dcmitype/StillImage"/>
    <dc:date>2025-08-04T02:53:03.768241</dc:date>
    <dc:format>image/svg+xml</dc:format>
    <dc:creator>
     <cc:Agent>
      <dc:title>Matplotlib v3.10.0, https://matplotlib.org/</dc:title>
     </cc:Agent>
    </dc:creator>
   </cc:Work>
  </rdf:RDF>
 </metadata>
 <defs>
  <style type="text/css">*{stroke-linejoin: round; stroke-linecap: butt}</style>
 </defs>
 <g id="figure_1">
  <g id="patch_1">
   <path d="M 0 360 
L 540 360 
L 540 0 
L 0 0 
z
" style="fill: #ffffff"/>
  </g>
  <g id="axes_1">
   <g id="patch_2">
    <path d="M 65.14 328.52 
L 529.2 328.52 
L 529.2 46.08 
L 65.14 46.08 
z
" style="fill: #eaeaf2"/>
   </g>
   <g id="matplotlib.axis_1">
    <g id="xtick_1">
     <g id="line2d_1">
      <path d="M 73.987664 328.52 
L 73.987664 46.08 
" clip-path="url(#p4708e0edba)" style="fill: none; stroke: #ffffff; stroke-width: 0.8; stroke-linecap: round"/>
     </g>
     <g id="text_1">
      <!-- 0 -->
      <g style="fill: #262626" transform="translate(69.533914 346.157812) scale(0.14 -0.14)">
       <defs>
        <path id="DejaVuSans-30" d="M 2034 4250 
Q 1547 4250 1301 3770 
Q 1056 3291 1056 2328 
Q 1056 1369 1301 889 
Q 1547 409 2034 409 
Q 2525 409 2770 889 
Q 3016 1369 3016 2328 
Q 3016 3291 2770 3770 
Q 2525 4250 2034 4250 
z
M 2034 4750 
Q 2819 4750 3233 4129 
Q 3647 3509 3647 2328 
Q 3647 1150 3233 529 
Q 2819 -91 2034 -91 
Q 1250 -91 836 529 
Q 422 1150 422 2328 
Q 422 3509 836 4129 
Q 1250 4750 2034 4750 
z
" transform="scale(0.015625)"/>
       </defs>
       <use xlink:href="#DejaVuSans-30"/>
      </g>
     </g>
    </g>
    <g id="xtick_2">
     <g id="line2d_2">
      <path d="M 516.370887 328.52 
L 516.370887 46.08 
" clip-path="url(#p4708e0edba)" style="fill: none; stroke: #ffffff; stroke-width: 0.8; stroke-linecap: round"/>
     </g>
     <g id="text_2">
      <!-- 2M -->
      <g style="fill: #262626" transform="translate(505.877449 346.157812) scale(0.14 -0.14)">
       <defs>
        <path id="DejaVuSans-32" d="M 1228 531 
L 3431 531 
L 3431 0 
L 469 0 
L 469 531 
Q 828 903 1448 1529 
Q 2069 2156 2228 2338 
Q 2531 2678 2651 2914 
Q 2772 3150 2772 3378 
Q 2772 3750 2511 3984 
Q 2250 4219 1831 4219 
Q 1534 4219 1204 4116 
Q 875 4013 500 3803 
L 500 4441 
Q 881 4594 1212 4672 
Q 1544 4750 1819 4750 
Q 2544 4750 2975 4387 
Q 3406 4025 3406 3419 
Q 3406 3131 3298 2873 
Q 3191 2616 2906 2266 
Q 2828 2175 2409 1742 
Q 1991 1309 1228 531 
z
" transform="scale(0.015625)"/>
        <path id="DejaVuSans-4d" d="M 628 4666 
L 1569 4666 
L 2759 1491 
L 3956 4666 
L 4897 4666 
L 4897 0 
L 4281 0 
L 4281 4097 
L 3078 897 
L 2444 897 
L 1241 4097 
L 1241 0 
L 628 0 
L 628 4666 
z
" transform="scale(0.015625)"/>
       </defs>
       <use xlink:href="#DejaVuSans-32"/>
       <use xlink:href="#DejaVuSans-4d" transform="translate(63.623047 0)"/>
      </g>
     </g>
    </g>
   </g>
   <g id="matplotlib.axis_2">
    <g id="ytick_1">
     <g id="line2d_3">
      <path d="M 65.14 321.36962 
L 529.2 321.36962 
" clip-path="url(#p4708e0edba)" style="fill: none; stroke: #ffffff; stroke-width: 0.8; stroke-linecap: round"/>
     </g>
     <g id="text_3">
      <!-- −1500 -->
      <g style="fill: #262626" transform="translate(10.778437 326.688527) scale(0.14 -0.14)">
       <defs>
        <path id="DejaVuSans-2212" d="M 678 2272 
L 4684 2272 
L 4684 1741 
L 678 1741 
L 678 2272 
z
" transform="scale(0.015625)"/>
        <path id="DejaVuSans-31" d="M 794 531 
L 1825 531 
L 1825 4091 
L 703 3866 
L 703 4441 
L 1819 4666 
L 2450 4666 
L 2450 531 
L 3481 531 
L 3481 0 
L 794 0 
L 794 531 
z
" transform="scale(0.015625)"/>
        <path id="DejaVuSans-35" d="M 691 4666 
L 3169 4666 
L 3169 4134 
L 1269 4134 
L 1269 2991 
Q 1406 3038 1543 3061 
Q 1681 3084 1819 3084 
Q 2600 3084 3056 2656 
Q 3513 2228 3513 1497 
Q 3513 744 3044 326 
Q 2575 -91 1722 -91 
Q 1428 -91 1123 -41 
Q 819 9 494 109 
L 494 744 
Q 775 591 1075 516 
Q 1375 441 1709 441 
Q 2250 441 2565 725 
Q 2881 1009 2881 1497 
Q 2881 1984 2565 2268 
Q 2250 2553 1709 2553 
Q 1456 2553 1204 2497 
Q 953 2441 691 2322 
L 691 4666 
z
" transform="scale(0.015625)"/>
       </defs>
       <use xlink:href="#DejaVuSans-2212"/>
       <use xlink:href="#DejaVuSans-31" transform="translate(83.789062 0)"/>
       <use xlink:href="#DejaVuSans-35" transform="translate(147.412109 0)"/>
       <use xlink:href="#DejaVuSans-30" transform="translate(211.035156 0)"/>
       <use xlink:href="#DejaVuSans-30" transform="translate(274.658203 0)"/>
      </g>
     </g>
    </g>
    <g id="ytick_2">
     <g id="line2d_4">
      <path d="M 65.14 267.741772 
L 529.2 267.741772 
" clip-path="url(#p4708e0edba)" style="fill: none; stroke: #ffffff; stroke-width: 0.8; stroke-linecap: round"/>
     </g>
     <g id="text_4">
      <!-- −1200 -->
      <g style="fill: #262626" transform="translate(10.778437 273.060678) scale(0.14 -0.14)">
       <use xlink:href="#DejaVuSans-2212"/>
       <use xlink:href="#DejaVuSans-31" transform="translate(83.789062 0)"/>
       <use xlink:href="#DejaVuSans-32" transform="translate(147.412109 0)"/>
       <use xlink:href="#DejaVuSans-30" transform="translate(211.035156 0)"/>
       <use xlink:href="#DejaVuSans-30" transform="translate(274.658203 0)"/>
      </g>
     </g>
    </g>
    <g id="ytick_3">
     <g id="line2d_5">
      <path d="M 65.14 214.113924 
L 529.2 214.113924 
" clip-path="url(#p4708e0edba)" style="fill: none; stroke: #ffffff; stroke-width: 0.8; stroke-linecap: round"/>
     </g>
     <g id="text_5">
      <!-- −900 -->
      <g style="fill: #262626" transform="translate(19.685937 219.43283) scale(0.14 -0.14)">
       <defs>
        <path id="DejaVuSans-39" d="M 703 97 
L 703 672 
Q 941 559 1184 500 
Q 1428 441 1663 441 
Q 2288 441 2617 861 
Q 2947 1281 2994 2138 
Q 2813 1869 2534 1725 
Q 2256 1581 1919 1581 
Q 1219 1581 811 2004 
Q 403 2428 403 3163 
Q 403 3881 828 4315 
Q 1253 4750 1959 4750 
Q 2769 4750 3195 4129 
Q 3622 3509 3622 2328 
Q 3622 1225 3098 567 
Q 2575 -91 1691 -91 
Q 1453 -91 1209 -44 
Q 966 3 703 97 
z
M 1959 2075 
Q 2384 2075 2632 2365 
Q 2881 2656 2881 3163 
Q 2881 3666 2632 3958 
Q 2384 4250 1959 4250 
Q 1534 4250 1286 3958 
Q 1038 3666 1038 3163 
Q 1038 2656 1286 2365 
Q 1534 2075 1959 2075 
z
" transform="scale(0.015625)"/>
       </defs>
       <use xlink:href="#DejaVuSans-2212"/>
       <use xlink:href="#DejaVuSans-39" transform="translate(83.789062 0)"/>
       <use xlink:href="#DejaVuSans-30" transform="translate(147.412109 0)"/>
       <use xlink:href="#DejaVuSans-30" transform="translate(211.035156 0)"/>
      </g>
     </g>
    </g>
    <g id="ytick_4">
     <g id="line2d_6">
      <path d="M 65.14 160.486076 
L 529.2 160.486076 
" clip-path="url(#p4708e0edba)" style="fill: none; stroke: #ffffff; stroke-width: 0.8; stroke-linecap: round"/>
     </g>
     <g id="text_6">
      <!-- −600 -->
      <g style="fill: #262626" transform="translate(19.685937 165.804982) scale(0.14 -0.14)">
       <defs>
        <path id="DejaVuSans-36" d="M 2113 2584 
Q 1688 2584 1439 2293 
Q 1191 2003 1191 1497 
Q 1191 994 1439 701 
Q 1688 409 2113 409 
Q 2538 409 2786 701 
Q 3034 994 3034 1497 
Q 3034 2003 2786 2293 
Q 2538 2584 2113 2584 
z
M 3366 4563 
L 3366 3988 
Q 3128 4100 2886 4159 
Q 2644 4219 2406 4219 
Q 1781 4219 1451 3797 
Q 1122 3375 1075 2522 
Q 1259 2794 1537 2939 
Q 1816 3084 2150 3084 
Q 2853 3084 3261 2657 
Q 3669 2231 3669 1497 
Q 3669 778 3244 343 
Q 2819 -91 2113 -91 
Q 1303 -91 875 529 
Q 447 1150 447 2328 
Q 447 3434 972 4092 
Q 1497 4750 2381 4750 
Q 2619 4750 2861 4703 
Q 3103 4656 3366 4563 
z
" transform="scale(0.015625)"/>
       </defs>
       <use xlink:href="#DejaVuSans-2212"/>
       <use xlink:href="#DejaVuSans-36" transform="translate(83.789062 0)"/>
       <use xlink:href="#DejaVuSans-30" transform="translate(147.412109 0)"/>
       <use xlink:href="#DejaVuSans-30" transform="translate(211.035156 0)"/>
      </g>
     </g>
    </g>
    <g id="ytick_5">
     <g id="line2d_7">
      <path d="M 65.14 106.858228 
L 529.2 106.858228 
" clip-path="url(#p4708e0edba)" style="fill: none; stroke: #ffffff; stroke-width: 0.8; stroke-linecap: round"/>
     </g>
     <g id="text_7">
      <!-- −300 -->
      <g style="fill: #262626" transform="translate(19.685937 112.177134) scale(0.14 -0.14)">
       <defs>
        <path id="DejaVuSans-33" d="M 2597 2516 
Q 3050 2419 3304 2112 
Q 3559 1806 3559 1356 
Q 3559 666 3084 287 
Q 2609 -91 1734 -91 
Q 1441 -91 1130 -33 
Q 819 25 488 141 
L 488 750 
Q 750 597 1062 519 
Q 1375 441 1716 441 
Q 2309 441 2620 675 
Q 2931 909 2931 1356 
Q 2931 1769 2642 2001 
Q 2353 2234 1838 2234 
L 1294 2234 
L 1294 2753 
L 1863 2753 
Q 2328 2753 2575 2939 
Q 2822 3125 2822 3475 
Q 2822 3834 2567 4026 
Q 2313 4219 1838 4219 
Q 1578 4219 1281 4162 
Q 984 4106 628 3988 
L 628 4550 
Q 988 4650 1302 4700 
Q 1616 4750 1894 4750 
Q 2613 4750 3031 4423 
Q 3450 4097 3450 3541 
Q 3450 3153 3228 2886 
Q 3006 2619 2597 2516 
z
" transform="scale(0.015625)"/>
       </defs>
       <use xlink:href="#DejaVuSans-2212"/>
       <use xlink:href="#DejaVuSans-33" transform="translate(83.789062 0)"/>
       <use xlink:href="#DejaVuSans-30" transform="translate(147.412109 0)"/>
       <use xlink:href="#DejaVuSans-30" transform="translate(211.035156 0)"/>
      </g>
     </g>
    </g>
    <g id="ytick_6">
     <g id="line2d_8">
      <path d="M 65.14 53.23038 
L 529.2 53.23038 
" clip-path="url(#p4708e0edba)" style="fill: none; stroke: #ffffff; stroke-width: 0.8; stroke-linecap: round"/>
     </g>
     <g id="text_8">
      <!-- 0 -->
      <g style="fill: #262626" transform="translate(49.2325 58.549286) scale(0.14 -0.14)">
       <use xlink:href="#DejaVuSans-30"/>
      </g>
     </g>
    </g>
   </g>
   <g id="FillBetweenPolyCollection_1">
    <path d="M 73.987664 261.596431 
L 73.987664 280.55403 
L 78.517669 271.757165 
L 83.047673 279.170964 
L 87.577677 260.372517 
L 92.107681 270.266188 
L 96.637685 273.585742 
L 101.16769 259.909078 
L 105.697694 259.865719 
L 110.227698 243.527461 
L 114.757702 254.400994 
L 119.287706 246.811344 
L 123.817711 237.316087 
L 128.347715 239.454182 
L 132.877719 232.736212 
L 137.407723 227.762458 
L 141.937727 227.47015 
L 146.467732 203.944048 
L 150.997736 196.622724 
L 155.52774 195.849667 
L 160.057744 180.017172 
L 164.587748 166.123812 
L 169.117753 149.882389 
L 173.647757 127.696267 
L 178.177761 119.152644 
L 182.707765 116.397815 
L 187.237769 109.201127 
L 191.767773 105.619234 
L 196.297778 106.944257 
L 200.827782 99.19356 
L 205.357786 92.480161 
L 209.88779 95.751105 
L 214.417794 95.291703 
L 218.947799 99.319576 
L 223.477803 105.82048 
L 228.007807 106.112802 
L 232.537811 108.555794 
L 237.067815 93.543434 
L 241.59782 94.741945 
L 246.127824 97.30246 
L 250.657828 96.114882 
L 255.187832 94.699359 
L 259.717836 109.075506 
L 264.247841 89.270459 
L 268.777845 95.064607 
L 273.307849 94.000645 
L 277.837853 96.79651 
L 282.367857 96.091262 
L 286.897862 88.693897 
L 291.427866 85.06467 
L 295.95787 87.091655 
L 300.487874 87.407397 
L 305.017878 82.671032 
L 309.547883 91.340491 
L 314.077887 93.756075 
L 318.607891 87.915918 
L 323.137895 85.737922 
L 327.667899 91.056677 
L 332.197904 86.591233 
L 336.727908 84.530558 
L 341.257912 84.562637 
L 345.787916 91.955776 
L 350.31792 83.856435 
L 354.847924 86.586358 
L 359.377929 85.39707 
L 363.907933 84.490685 
L 368.437937 84.915594 
L 372.967941 86.852998 
L 377.497945 81.902712 
L 382.02795 84.125021 
L 386.557954 89.518561 
L 391.087958 79.858944 
L 395.617962 82.61336 
L 400.147966 89.260845 
L 404.677971 82.820792 
L 409.207975 82.093997 
L 413.737979 85.836331 
L 418.267983 83.199848 
L 422.797987 83.963622 
L 427.327992 82.228343 
L 431.857996 83.657726 
L 436.388 81.937096 
L 440.918004 84.105279 
L 445.448008 82.028491 
L 449.978013 82.908842 
L 454.508017 83.569603 
L 459.038021 85.512246 
L 463.568025 81.876144 
L 468.098029 80.868407 
L 472.628034 82.257532 
L 477.158038 83.91972 
L 481.688042 82.91285 
L 486.218046 81.097256 
L 490.74805 83.49471 
L 495.278055 84.605497 
L 499.808059 83.233108 
L 504.338063 79.725927 
L 508.868067 83.585967 
L 513.398071 80.600082 
L 517.928076 82.890006 
L 522.45808 81.725439 
L 522.45808 77.528205 
L 522.45808 77.528205 
L 517.928076 77.378398 
L 513.398071 76.280872 
L 508.868067 76.584596 
L 504.338063 75.263641 
L 499.808059 77.667567 
L 495.278055 78.315727 
L 490.74805 77.499445 
L 486.218046 77.647273 
L 481.688042 78.699827 
L 477.158038 80.330005 
L 472.628034 78.275759 
L 468.098029 76.634539 
L 463.568025 76.991463 
L 459.038021 79.030812 
L 454.508017 76.503701 
L 449.978013 80.842123 
L 445.448008 78.390266 
L 440.918004 74.054592 
L 436.388 76.556226 
L 431.857996 76.492406 
L 427.327992 76.379683 
L 422.797987 75.17355 
L 418.267983 78.973478 
L 413.737979 75.069747 
L 409.207975 78.024659 
L 404.677971 75.14377 
L 400.147966 80.514846 
L 395.617962 79.582285 
L 391.087958 77.42534 
L 386.557954 78.242269 
L 382.02795 80.238905 
L 377.497945 79.429045 
L 372.967941 79.521658 
L 368.437937 77.661658 
L 363.907933 78.776602 
L 359.377929 80.814367 
L 354.847924 80.179107 
L 350.31792 80.196933 
L 345.787916 77.474725 
L 341.257912 76.550141 
L 336.727908 81.225515 
L 332.197904 82.205248 
L 327.667899 78.595422 
L 323.137895 79.921505 
L 318.607891 81.639618 
L 314.077887 78.586766 
L 309.547883 80.544867 
L 305.017878 80.005639 
L 300.487874 77.817458 
L 295.95787 75.859032 
L 291.427866 78.838103 
L 286.897862 80.697241 
L 282.367857 80.133725 
L 277.837853 81.59554 
L 273.307849 87.059334 
L 268.777845 76.495202 
L 264.247841 82.969342 
L 259.717836 87.013883 
L 255.187832 85.091039 
L 250.657828 83.293233 
L 246.127824 81.727457 
L 241.59782 84.397581 
L 237.067815 83.214677 
L 232.537811 83.217262 
L 228.007807 79.689225 
L 223.477803 84.280419 
L 218.947799 82.378577 
L 214.417794 86.464499 
L 209.88779 83.961737 
L 205.357786 89.473781 
L 200.827782 88.303328 
L 196.297778 91.758482 
L 191.767773 91.829476 
L 187.237769 93.287949 
L 182.707765 98.104118 
L 178.177761 91.813346 
L 173.647757 94.18476 
L 169.117753 100.849826 
L 164.587748 100.516008 
L 160.057744 95.997567 
L 155.52774 104.4812 
L 150.997736 125.279443 
L 146.467732 131.928838 
L 141.937727 162.370292 
L 137.407723 165.154138 
L 132.877719 179.491453 
L 128.347715 189.206067 
L 123.817711 205.046816 
L 119.287706 213.262307 
L 114.757702 231.848776 
L 110.227698 224.955896 
L 105.697694 235.807953 
L 101.16769 238.819343 
L 96.637685 243.898533 
L 92.107681 254.788385 
L 87.577677 248.806409 
L 83.047673 255.502786 
L 78.517669 255.40014 
L 73.987664 261.596431 
z
" clip-path="url(#p4708e0edba)" style="fill: #023eff; fill-opacity: 0.1"/>
   </g>
   <g id="line2d_9">
    <path d="M 73.987664 276.412087 
L 78.517669 275.028854 
L 83.047673 253.413237 
L 87.577677 246.297165 
L 92.107681 265.300948 
L 96.637685 259.705087 
L 101.16769 265.685366 
L 105.697694 263.442131 
L 110.227698 238.486253 
L 114.757702 258.73311 
L 119.287706 248.115734 
L 123.817711 238.956548 
L 128.347715 236.869992 
L 132.877719 238.667106 
L 137.407723 228.261456 
L 141.937727 208.256333 
L 146.467732 201.790553 
L 150.997736 185.881224 
L 155.52774 196.547735 
L 160.057744 160.322878 
L 164.587748 146.327852 
L 169.117753 133.769511 
L 173.647757 118.227644 
L 178.177761 126.119125 
L 182.707765 117.698338 
L 187.237769 105.348278 
L 191.767773 102.468182 
L 196.297778 111.829371 
L 200.827782 97.541628 
L 205.357786 91.160292 
L 209.88779 92.576478 
L 214.417794 96.028332 
L 218.947799 104.251906 
L 223.477803 99.202393 
L 228.007807 118.235031 
L 232.537811 118.770151 
L 237.067815 97.651717 
L 241.59782 91.464377 
L 246.127824 87.543045 
L 250.657828 94.622314 
L 255.187832 86.961337 
L 259.717836 91.37138 
L 264.247841 84.884868 
L 268.777845 84.471016 
L 273.307849 95.66039 
L 277.837853 104.184505 
L 282.367857 88.039392 
L 286.897862 80.914179 
L 291.427866 87.504922 
L 295.95787 89.872832 
L 300.487874 75.263776 
L 305.017878 79.045477 
L 309.547883 94.15814 
L 314.077887 99.345976 
L 318.607891 90.795575 
L 323.137895 78.544433 
L 327.667899 83.764675 
L 332.197904 85.025064 
L 336.727908 82.044302 
L 341.257912 76.85835 
L 345.787916 77.450635 
L 350.31792 79.166689 
L 354.847924 78.463258 
L 359.377929 82.859501 
L 363.907933 85.560482 
L 368.437937 80.29206 
L 372.967941 86.135661 
L 377.497945 81.66892 
L 382.02795 83.491466 
L 386.557954 81.980967 
L 391.087958 76.70341 
L 395.617962 82.359438 
L 400.147966 90.829173 
L 404.677971 78.485237 
L 409.207975 81.375994 
L 413.737979 79.986665 
L 418.267983 78.572375 
L 422.797987 74.269801 
L 427.327992 79.572824 
L 431.857996 76.67951 
L 436.388 77.121369 
L 440.918004 74.49311 
L 445.448008 78.067138 
L 449.978013 83.471652 
L 454.508017 78.792891 
L 459.038021 77.975685 
L 463.568025 81.50129 
L 468.098029 76.106331 
L 472.628034 81.559933 
L 477.158038 81.739703 
L 481.688042 82.526733 
L 486.218046 77.564096 
L 490.74805 79.799568 
L 495.278055 79.94726 
L 499.808059 79.394322 
L 504.338063 77.53597 
L 508.868067 77.544403 
L 513.398071 75.925278 
L 517.928076 78.097795 
L 522.45808 77.838455 
" clip-path="url(#p4708e0edba)" style="fill: none; stroke: #1ac938; stroke-opacity: 0.27; stroke-width: 1.25; stroke-linecap: round"/>
   </g>
   <g id="line2d_10">
    <path d="M 73.987664 255.327291 
L 78.517669 253.326536 
L 83.047673 257.141298 
L 87.577677 249.650515 
L 92.107681 271.002703 
L 96.637685 273.144532 
L 101.16769 255.30923 
L 105.697694 241.599123 
L 110.227698 230.169456 
L 114.757702 235.456948 
L 119.287706 207.868729 
L 123.817711 200.39529 
L 128.347715 188.021353 
L 132.877719 191.017661 
L 137.407723 170.676755 
L 141.937727 151.964047 
L 146.467732 142.699995 
L 150.997736 135.831326 
L 155.52774 118.838883 
L 160.057744 117.364744 
L 164.587748 113.534783 
L 169.117753 117.129504 
L 173.647757 96.783275 
L 178.177761 103.48809 
L 182.707765 112.992061 
L 187.237769 103.682394 
L 191.767773 109.719274 
L 196.297778 101.615989 
L 200.827782 95.486504 
L 205.357786 91.731131 
L 209.88779 91.456389 
L 214.417794 91.198771 
L 218.947799 84.652531 
L 223.477803 93.731577 
L 228.007807 82.006811 
L 232.537811 87.310737 
L 237.067815 90.049069 
L 241.59782 96.991454 
L 246.127824 104.35693 
L 250.657828 91.844618 
L 255.187832 85.607887 
L 259.717836 113.403279 
L 264.247841 83.927099 
L 268.777845 84.531349 
L 273.307849 86.910735 
L 277.837853 87.258462 
L 282.367857 101.503424 
L 286.897862 88.088609 
L 291.427866 77.847982 
L 295.95787 74.224857 
L 300.487874 83.626574 
L 305.017878 81.466677 
L 309.547883 77.681897 
L 314.077887 86.669628 
L 318.607891 81.856527 
L 323.137895 81.547412 
L 327.667899 78.349482 
L 332.197904 82.467095 
L 336.727908 82.458218 
L 341.257912 74.785365 
L 345.787916 97.707694 
L 350.31792 82.991312 
L 354.847924 82.198679 
L 359.377929 80.158372 
L 363.907933 80.4381 
L 368.437937 78.444052 
L 372.967941 88.931658 
L 377.497945 82.102755 
L 382.02795 84.565457 
L 386.557954 92.525981 
L 391.087958 80.427056 
L 395.617962 78.689539 
L 400.147966 81.413415 
L 404.677971 74.531778 
L 409.207975 82.010829 
L 413.737979 87.377725 
L 418.267983 84.723143 
L 422.797987 85.488686 
L 427.327992 82.187408 
L 431.857996 85.406496 
L 436.388 75.96303 
L 440.918004 74.913512 
L 445.448008 81.449786 
L 449.978013 80.867964 
L 454.508017 77.56977 
L 459.038021 83.0329 
L 463.568025 78.672527 
L 468.098029 77.548719 
L 472.628034 79.077179 
L 477.158038 82.259111 
L 481.688042 78.166999 
L 486.218046 79.145583 
L 490.74805 79.501193 
L 495.278055 84.829682 
L 499.808059 80.77987 
L 504.338063 78.181653 
L 508.868067 78.47597 
L 513.398071 80.990067 
L 517.928076 76.603499 
L 522.45808 77.29649 
" clip-path="url(#p4708e0edba)" style="fill: none; stroke: #1ac938; stroke-opacity: 0.27; stroke-width: 1.25; stroke-linecap: round"/>
   </g>
   <g id="line2d_11">
    <path d="M 73.987664 283.662266 
L 78.517669 270.709568 
L 83.047673 271.611195 
L 87.577677 260.173162 
L 92.107681 268.886147 
L 96.637685 270.160175 
L 101.16769 246.328127 
L 105.697694 235.332969 
L 110.227698 225.539794 
L 114.757702 232.368888 
L 119.287706 229.511892 
L 123.817711 230.182121 
L 128.347715 203.222405 
L 132.877719 179.305791 
L 137.407723 170.52571 
L 141.937727 189.258744 
L 146.467732 152.072829 
L 150.997736 143.266187 
L 155.52774 119.17807 
L 160.057744 97.265786 
L 164.587748 117.397589 
L 169.117753 118.049257 
L 173.647757 104.289845 
L 178.177761 97.976348 
L 182.707765 101.978395 
L 187.237769 93.607664 
L 191.767773 91.213623 
L 196.297778 92.655359 
L 200.827782 83.788597 
L 205.357786 93.293876 
L 209.88779 98.392619 
L 214.417794 95.322641 
L 218.947799 86.50454 
L 223.477803 85.272563 
L 228.007807 93.260505 
L 232.537811 94.001225 
L 237.067815 84.084406 
L 241.59782 82.203298 
L 246.127824 82.054597 
L 250.657828 88.629699 
L 255.187832 89.049574 
L 259.717836 87.383215 
L 264.247841 83.104191 
L 268.777845 74.858208 
L 273.307849 90.212704 
L 277.837853 84.397949 
L 282.367857 79.244273 
L 286.897862 84.136112 
L 291.427866 81.694635 
L 295.95787 76.949355 
L 300.487874 87.478045 
L 305.017878 81.887957 
L 309.547883 84.654254 
L 314.077887 86.37893 
L 318.607891 82.995699 
L 323.137895 85.886581 
L 327.667899 82.499635 
L 332.197904 84.22877 
L 336.727908 86.10523 
L 341.257912 82.213083 
L 345.787916 78.42535 
L 350.31792 83.450702 
L 354.847924 82.827946 
L 359.377929 82.688985 
L 363.907933 82.953522 
L 368.437937 82.527177 
L 372.967941 80.000272 
L 377.497945 81.160552 
L 382.02795 80.742531 
L 386.557954 76.297633 
L 391.087958 78.264736 
L 395.617962 81.276862 
L 400.147966 82.111229 
L 404.677971 78.600654 
L 409.207975 79.608108 
L 413.737979 85.296075 
L 418.267983 79.615085 
L 422.797987 77.738984 
L 427.327992 82.441553 
L 431.857996 75.590275 
L 436.388 78.846952 
L 440.918004 88.270314 
L 445.448008 83.101011 
L 449.978013 81.384724 
L 454.508017 78.918622 
L 459.038021 79.091059 
L 463.568025 82.066011 
L 468.098029 81.448138 
L 472.628034 77.13562 
L 477.158038 82.476576 
L 481.688042 83.911348 
L 486.218046 80.415372 
L 490.74805 85.994709 
L 495.278055 79.495056 
L 499.808059 85.58378 
L 504.338063 73.309559 
L 508.868067 75.911298 
L 513.398071 81.06191 
L 517.928076 79.688994 
L 522.45808 79.290297 
" clip-path="url(#p4708e0edba)" style="fill: none; stroke: #1ac938; stroke-opacity: 0.27; stroke-width: 1.25; stroke-linecap: round"/>
   </g>
   <g id="line2d_12">
    <path d="M 73.987664 267.542083 
L 78.517669 256.895101 
L 83.047673 286.934836 
L 87.577677 261.025035 
L 92.107681 250.225302 
L 96.637685 231.133197 
L 101.16769 234.265928 
L 105.697694 237.577659 
L 110.227698 226.581049 
L 114.757702 234.196307 
L 119.287706 215.347853 
L 123.817711 203.109117 
L 128.347715 192.426862 
L 132.877719 183.460249 
L 137.407723 172.11436 
L 141.937727 176.367353 
L 146.467732 124.53893 
L 150.997736 121.735921 
L 155.52774 102.384266 
L 160.057744 105.211234 
L 164.587748 98.254859 
L 169.117753 91.606942 
L 173.647757 95.177473 
L 178.177761 86.020962 
L 182.707765 92.076074 
L 187.237769 90.956331 
L 191.767773 91.92765 
L 196.297778 90.317068 
L 200.827782 92.658768 
L 205.357786 89.476214 
L 209.88779 81.394842 
L 214.417794 86.884689 
L 218.947799 81.745392 
L 223.477803 113.376602 
L 228.007807 84.356443 
L 232.537811 97.569346 
L 237.067815 86.476436 
L 241.59782 85.519091 
L 246.127824 84.716796 
L 250.657828 95.590482 
L 255.187832 88.676956 
L 259.717836 88.728554 
L 264.247841 86.749156 
L 268.777845 82.088048 
L 273.307849 93.094856 
L 277.837853 83.775011 
L 282.367857 90.90947 
L 286.897862 80.004236 
L 291.427866 81.404621 
L 295.95787 81.111297 
L 300.487874 87.540583 
L 305.017878 81.145609 
L 309.547883 88.532842 
L 314.077887 82.184567 
L 318.607891 84.596204 
L 323.137895 81.873264 
L 327.667899 82.795248 
L 332.197904 82.068452 
L 336.727908 82.349679 
L 341.257912 84.528597 
L 345.787916 84.353242 
L 350.31792 83.919305 
L 354.847924 87.984391 
L 359.377929 82.585656 
L 363.907933 82.255316 
L 368.437937 87.677601 
L 372.967941 80.132445 
L 377.497945 79.081399 
L 382.02795 79.201767 
L 386.557954 80.926719 
L 391.087958 78.612033 
L 395.617962 82.921889 
L 400.147966 89.541984 
L 404.677971 86.078071 
L 409.207975 80.994592 
L 413.737979 76.972056 
L 418.267983 80.734316 
L 422.797987 84.005455 
L 427.327992 77.699866 
L 431.857996 82.005835 
L 436.388 80.76115 
L 440.918004 77.574176 
L 445.448008 79.410505 
L 449.978013 80.951701 
L 454.508017 87.026371 
L 459.038021 84.989996 
L 463.568025 79.732523 
L 468.098029 81.063317 
L 472.628034 80.697332 
L 477.158038 79.262663 
L 481.688042 80.052837 
L 486.218046 82.101661 
L 490.74805 76.864261 
L 495.278055 77.519206 
L 499.808059 77.400562 
L 504.338063 78.543524 
L 508.868067 84.530207 
L 513.398071 77.329602 
L 517.928076 81.897931 
L 522.45808 80.559346 
" clip-path="url(#p4708e0edba)" style="fill: none; stroke: #1ac938; stroke-opacity: 0.27; stroke-width: 1.25; stroke-linecap: round"/>
   </g>
   <g id="line2d_13">
    <path d="M 73.987664 272.432426 
L 78.517669 261.933206 
L 83.047673 267.583811 
L 87.577677 255.801437 
L 92.107681 257.221332 
L 96.637685 259.567697 
L 101.16769 245.232401 
L 105.697694 261.232298 
L 110.227698 250.43184 
L 114.757702 254.869171 
L 119.287706 249.33992 
L 123.817711 233.264183 
L 128.347715 251.110011 
L 132.877719 238.118355 
L 137.407723 240.713207 
L 141.937727 248.754628 
L 146.467732 218.579908 
L 150.997736 218.04076 
L 155.52774 213.878216 
L 160.057744 209.872205 
L 164.587748 191.084468 
L 169.117753 166.275323 
L 173.647757 140.22433 
L 178.177761 113.810451 
L 182.707765 111.509966 
L 187.237769 112.628021 
L 191.767773 98.293047 
L 196.297778 100.339058 
L 200.827782 99.266723 
L 205.357786 89.223342 
L 209.88779 85.461778 
L 214.417794 84.956071 
L 218.947799 97.091011 
L 223.477803 83.669113 
L 228.007807 86.646276 
L 232.537811 81.78118 
L 237.067815 83.633651 
L 241.59782 91.670596 
L 246.127824 88.903423 
L 250.657828 77.833174 
L 255.187832 99.18024 
L 259.717836 109.337043 
L 264.247841 91.934188 
L 268.777845 102.950902 
L 273.307849 86.771262 
L 277.837853 86.364197 
L 282.367857 80.865909 
L 286.897862 90.334709 
L 291.427866 81.304774 
L 295.95787 85.218377 
L 300.487874 79.153159 
L 305.017878 83.145959 
L 309.547883 84.686264 
L 314.077887 76.278002 
L 318.607891 83.644834 
L 323.137895 86.296877 
L 327.667899 96.721207 
L 332.197904 88.20182 
L 336.727908 81.432755 
L 341.257912 84.396549 
L 345.787916 85.63933 
L 350.31792 80.605411 
L 354.847924 85.439386 
L 359.377929 87.236077 
L 363.907933 76.960797 
L 368.437937 77.50224 
L 372.967941 80.736602 
L 377.497945 79.315765 
L 382.02795 82.908596 
L 386.557954 87.670776 
L 391.087958 79.203475 
L 395.617962 80.241384 
L 400.147966 80.543427 
L 404.677971 77.215666 
L 409.207975 76.307115 
L 413.737979 72.632673 
L 418.267983 81.788395 
L 422.797987 76.340004 
L 427.327992 74.618413 
L 431.857996 80.693214 
L 436.388 83.540803 
L 440.918004 80.148568 
L 445.448008 79.018454 
L 449.978013 82.70137 
L 454.508017 77.875608 
L 459.038021 86.268005 
L 463.568025 75.196666 
L 468.098029 77.590858 
L 472.628034 82.863163 
L 477.158038 84.886259 
L 481.688042 79.373776 
L 486.218046 77.634611 
L 490.74805 80.325657 
L 495.278055 85.511854 
L 499.808059 79.093153 
L 504.338063 79.903216 
L 508.868067 83.964528 
L 513.398071 76.895527 
L 517.928076 84.38279 
L 522.45808 83.149522 
" clip-path="url(#p4708e0edba)" style="fill: none; stroke: #1ac938; stroke-opacity: 0.27; stroke-width: 1.25; stroke-linecap: round"/>
   </g>
   <g id="line2d_14">
    <path d="M 73.987664 53.23038 
L 78.517669 57.584032 
L 83.047673 69.477437 
L 87.577677 87.189021 
L 92.107681 101.277576 
L 96.637685 120.969129 
L 101.16769 145.574603 
L 105.697694 171.621518 
L 110.227698 200.394676 
L 114.757702 224.080842 
L 119.287706 253.958525 
L 123.817711 269.29413 
L 128.347715 293.887705 
L 132.877719 310.590744 
L 137.407723 314.738465 
L 141.937727 316.638337 
L 146.467732 314.672445 
L 150.997736 321.36962 
L 155.52774 312.714182 
L 160.057744 309.695123 
L 164.587748 295.760569 
L 169.117753 294.698704 
L 173.647757 271.032226 
L 178.177761 264.570571 
L 182.707765 275.384075 
L 187.237769 253.632122 
L 191.767773 243.248712 
L 196.297778 250.451301 
L 200.827782 238.470054 
L 205.357786 228.376577 
L 209.88779 235.696256 
L 214.417794 230.763239 
L 218.947799 230.308496 
L 223.477803 244.424255 
L 228.007807 241.873915 
L 232.537811 242.170594 
L 237.067815 235.713543 
L 241.59782 234.282949 
L 246.127824 228.014579 
L 250.657828 239.021758 
L 255.187832 227.750229 
L 259.717836 238.053966 
L 264.247841 212.747738 
L 268.777845 213.373141 
L 273.307849 210.418589 
L 277.837853 209.39413 
L 282.367857 199.01073 
L 286.897862 201.414261 
L 291.427866 186.409028 
L 295.95787 192.600611 
L 300.487874 193.343381 
L 305.017878 194.63693 
L 309.547883 188.836782 
L 314.077887 192.798743 
L 318.607891 194.01516 
L 323.137895 186.378268 
L 327.667899 182.673049 
L 332.197904 186.211269 
L 336.727908 179.382461 
L 341.257912 174.150575 
L 345.787916 184.503252 
L 350.31792 180.661235 
L 354.847924 176.655678 
L 359.377929 172.299014 
L 363.907933 173.301689 
L 368.437937 167.048663 
L 372.967941 164.290471 
L 377.497945 164.013494 
L 382.02795 169.668669 
L 386.557954 174.828445 
L 391.087958 161.54124 
L 395.617962 167.637129 
L 400.147966 176.389377 
L 404.677971 161.376035 
L 409.207975 163.222287 
L 413.737979 160.034555 
L 418.267983 165.469266 
L 422.797987 158.119974 
L 427.327992 155.469417 
L 431.857996 159.117804 
L 436.388 159.444279 
L 440.918004 159.140866 
L 445.448008 162.593254 
L 449.978013 165.775311 
L 454.508017 158.424226 
L 459.038021 167.526232 
L 463.568025 157.572097 
L 468.098029 156.542587 
L 472.628034 158.263096 
L 477.158038 164.144284 
L 481.688042 160.648445 
L 486.218046 159.921933 
L 490.74805 162.232042 
L 495.278055 166.662171 
L 499.808059 165.113808 
L 504.338063 157.681525 
L 508.868067 160.023648 
L 513.398071 157.271081 
L 517.928076 163.449422 
L 522.45808 163.844889 
" clip-path="url(#p4708e0edba)" style="fill: none; stroke: #8b2be2; stroke-width: 1.5; stroke-linecap: round"/>
   </g>
   <g id="line2d_15">
    <path d="M 73.987664 271.075231 
L 78.517669 263.578653 
L 83.047673 267.336875 
L 87.577677 254.589463 
L 92.107681 262.527286 
L 96.637685 258.742138 
L 101.16769 249.364211 
L 105.697694 247.836836 
L 110.227698 234.241678 
L 114.757702 243.124885 
L 119.287706 230.036826 
L 123.817711 221.181452 
L 128.347715 214.330124 
L 132.877719 206.113832 
L 137.407723 196.458298 
L 141.937727 194.920221 
L 146.467732 167.936443 
L 150.997736 160.951084 
L 155.52774 150.165434 
L 160.057744 138.007369 
L 164.587748 133.31991 
L 169.117753 125.366107 
L 173.647757 110.940513 
L 178.177761 105.482995 
L 182.707765 107.250967 
L 187.237769 101.244538 
L 191.767773 98.724355 
L 196.297778 99.351369 
L 200.827782 93.748444 
L 205.357786 90.976971 
L 209.88779 89.856421 
L 214.417794 90.878101 
L 218.947799 90.849076 
L 223.477803 95.05045 
L 228.007807 92.901013 
L 232.537811 95.886528 
L 237.067815 88.379056 
L 241.59782 89.569763 
L 246.127824 89.514958 
L 250.657828 89.704057 
L 255.187832 89.895199 
L 259.717836 98.044694 
L 264.247841 86.1199 
L 268.777845 85.779905 
L 273.307849 90.529989 
L 277.837853 89.196025 
L 282.367857 88.112493 
L 286.897862 84.695569 
L 291.427866 81.951387 
L 295.95787 81.475344 
L 300.487874 82.612427 
L 305.017878 81.338336 
L 309.547883 85.942679 
L 314.077887 86.171421 
L 318.607891 84.777768 
L 323.137895 82.829714 
L 327.667899 84.82605 
L 332.197904 84.39824 
L 336.727908 82.878037 
L 341.257912 80.556389 
L 345.787916 84.71525 
L 350.31792 82.026684 
L 354.847924 83.382732 
L 359.377929 83.105718 
L 363.907933 81.633643 
L 368.437937 81.288626 
L 372.967941 83.187328 
L 377.497945 80.665878 
L 382.02795 82.181963 
L 386.557954 83.880415 
L 391.087958 78.642142 
L 395.617962 81.097822 
L 400.147966 84.887845 
L 404.677971 78.982281 
L 409.207975 80.059328 
L 413.737979 80.453039 
L 418.267983 81.086663 
L 422.797987 79.568586 
L 427.327992 79.304013 
L 431.857996 80.075066 
L 436.388 79.246661 
L 440.918004 79.079936 
L 445.448008 80.209379 
L 449.978013 81.875482 
L 454.508017 80.036652 
L 459.038021 82.271529 
L 463.568025 79.433803 
L 468.098029 78.751473 
L 472.628034 80.266646 
L 477.158038 82.124862 
L 481.688042 80.806339 
L 486.218046 79.372265 
L 490.74805 80.497077 
L 495.278055 81.460612 
L 499.808059 80.450337 
L 504.338063 77.494784 
L 508.868067 80.085281 
L 513.398071 78.440477 
L 517.928076 80.134202 
L 522.45808 79.626822 
" clip-path="url(#p4708e0edba)" style="fill: none; stroke: #023eff; stroke-width: 2; stroke-linecap: round"/>
   </g>
   <g id="line2d_16">
    <path d="M 65.14 88.982278 
L 529.2 88.982278 
" clip-path="url(#p4708e0edba)" style="fill: none; stroke-dasharray: 1.25,2.0625; stroke-dashoffset: 0; stroke: #000000; stroke-opacity: 0.6; stroke-width: 1.25"/>
   </g>
   <g id="patch_3">
    <path d="M 65.14 328.52 
L 65.14 46.08 
" style="fill: none; stroke: #ffffff; stroke-width: 0.8; stroke-linejoin: miter; stroke-linecap: square"/>
   </g>
   <g id="patch_4">
    <path d="M 529.2 328.52 
L 529.2 46.08 
" style="fill: none; stroke: #ffffff; stroke-width: 0.8; stroke-linejoin: miter; stroke-linecap: square"/>
   </g>
   <g id="patch_5">
    <path d="M 65.14 328.52 
L 529.2 328.52 
" style="fill: none; stroke: #ffffff; stroke-width: 0.8; stroke-linejoin: miter; stroke-linecap: square"/>
   </g>
   <g id="patch_6">
    <path d="M 65.14 46.08 
L 529.2 46.08 
" style="fill: none; stroke: #ffffff; stroke-width: 0.8; stroke-linejoin: miter; stroke-linecap: square"/>
   </g>
  </g>
  <g id="text_9">
   <!-- Logits (Baseline) | Entropy -->
   <g style="fill: #262626" transform="translate(90.159375 25.54125) scale(0.24 -0.24)">
    <defs>
     <path id="DejaVuSans-Bold-4c" d="M 588 4666 
L 1791 4666 
L 1791 909 
L 3903 909 
L 3903 0 
L 588 0 
L 588 4666 
z
" transform="scale(0.015625)"/>
     <path id="DejaVuSans-Bold-6f" d="M 2203 2784 
Q 1831 2784 1636 2517 
Q 1441 2250 1441 1747 
Q 1441 1244 1636 976 
Q 1831 709 2203 709 
Q 2569 709 2762 976 
Q 2956 1244 2956 1747 
Q 2956 2250 2762 2517 
Q 2569 2784 2203 2784 
z
M 2203 3584 
Q 3106 3584 3614 3096 
Q 4122 2609 4122 1747 
Q 4122 884 3614 396 
Q 3106 -91 2203 -91 
Q 1297 -91 786 396 
Q 275 884 275 1747 
Q 275 2609 786 3096 
Q 1297 3584 2203 3584 
z
" transform="scale(0.015625)"/>
     <path id="DejaVuSans-Bold-67" d="M 2919 594 
Q 2688 288 2409 144 
Q 2131 0 1766 0 
Q 1125 0 706 504 
Q 288 1009 288 1791 
Q 288 2575 706 3076 
Q 1125 3578 1766 3578 
Q 2131 3578 2409 3434 
Q 2688 3291 2919 2981 
L 2919 3500 
L 4044 3500 
L 4044 353 
Q 4044 -491 3511 -936 
Q 2978 -1381 1966 -1381 
Q 1638 -1381 1331 -1331 
Q 1025 -1281 716 -1178 
L 716 -306 
Q 1009 -475 1290 -558 
Q 1572 -641 1856 -641 
Q 2406 -641 2662 -400 
Q 2919 -159 2919 353 
L 2919 594 
z
M 2181 2772 
Q 1834 2772 1640 2515 
Q 1447 2259 1447 1791 
Q 1447 1309 1634 1061 
Q 1822 813 2181 813 
Q 2531 813 2725 1069 
Q 2919 1325 2919 1791 
Q 2919 2259 2725 2515 
Q 2531 2772 2181 2772 
z
" transform="scale(0.015625)"/>
     <path id="DejaVuSans-Bold-69" d="M 538 3500 
L 1656 3500 
L 1656 0 
L 538 0 
L 538 3500 
z
M 538 4863 
L 1656 4863 
L 1656 3950 
L 538 3950 
L 538 4863 
z
" transform="scale(0.015625)"/>
     <path id="DejaVuSans-Bold-74" d="M 1759 4494 
L 1759 3500 
L 2913 3500 
L 2913 2700 
L 1759 2700 
L 1759 1216 
Q 1759 972 1856 886 
Q 1953 800 2241 800 
L 2816 800 
L 2816 0 
L 1856 0 
Q 1194 0 917 276 
Q 641 553 641 1216 
L 641 2700 
L 84 2700 
L 84 3500 
L 641 3500 
L 641 4494 
L 1759 4494 
z
" transform="scale(0.015625)"/>
     <path id="DejaVuSans-Bold-73" d="M 3272 3391 
L 3272 2541 
Q 2913 2691 2578 2766 
Q 2244 2841 1947 2841 
Q 1628 2841 1473 2761 
Q 1319 2681 1319 2516 
Q 1319 2381 1436 2309 
Q 1553 2238 1856 2203 
L 2053 2175 
Q 2913 2066 3209 1816 
Q 3506 1566 3506 1031 
Q 3506 472 3093 190 
Q 2681 -91 1863 -91 
Q 1516 -91 1145 -36 
Q 775 19 384 128 
L 384 978 
Q 719 816 1070 734 
Q 1422 653 1784 653 
Q 2113 653 2278 743 
Q 2444 834 2444 1013 
Q 2444 1163 2330 1236 
Q 2216 1309 1875 1350 
L 1678 1375 
Q 931 1469 631 1722 
Q 331 1975 331 2491 
Q 331 3047 712 3315 
Q 1094 3584 1881 3584 
Q 2191 3584 2531 3537 
Q 2872 3491 3272 3391 
z
" transform="scale(0.015625)"/>
     <path id="DejaVuSans-Bold-20" transform="scale(0.015625)"/>
     <path id="DejaVuSans-Bold-28" d="M 2413 -844 
L 1484 -844 
Q 1006 -72 778 623 
Q 550 1319 550 2003 
Q 550 2688 779 3389 
Q 1009 4091 1484 4856 
L 2413 4856 
Q 2013 4116 1813 3408 
Q 1613 2700 1613 2009 
Q 1613 1319 1811 609 
Q 2009 -100 2413 -844 
z
" transform="scale(0.015625)"/>
     <path id="DejaVuSans-Bold-42" d="M 2456 2859 
Q 2741 2859 2887 2984 
Q 3034 3109 3034 3353 
Q 3034 3594 2887 3720 
Q 2741 3847 2456 3847 
L 1791 3847 
L 1791 2859 
L 2456 2859 
z
M 2497 819 
Q 2859 819 3042 972 
Q 3225 1125 3225 1434 
Q 3225 1738 3044 1889 
Q 2863 2041 2497 2041 
L 1791 2041 
L 1791 819 
L 2497 819 
z
M 3616 2497 
Q 4003 2384 4215 2081 
Q 4428 1778 4428 1338 
Q 4428 663 3972 331 
Q 3516 0 2584 0 
L 588 0 
L 588 4666 
L 2394 4666 
Q 3366 4666 3802 4372 
Q 4238 4078 4238 3431 
Q 4238 3091 4078 2852 
Q 3919 2613 3616 2497 
z
" transform="scale(0.015625)"/>
     <path id="DejaVuSans-Bold-61" d="M 2106 1575 
Q 1756 1575 1579 1456 
Q 1403 1338 1403 1106 
Q 1403 894 1545 773 
Q 1688 653 1941 653 
Q 2256 653 2472 879 
Q 2688 1106 2688 1447 
L 2688 1575 
L 2106 1575 
z
M 3816 1997 
L 3816 0 
L 2688 0 
L 2688 519 
Q 2463 200 2181 54 
Q 1900 -91 1497 -91 
Q 953 -91 614 226 
Q 275 544 275 1050 
Q 275 1666 698 1953 
Q 1122 2241 2028 2241 
L 2688 2241 
L 2688 2328 
Q 2688 2594 2478 2717 
Q 2269 2841 1825 2841 
Q 1466 2841 1156 2769 
Q 847 2697 581 2553 
L 581 3406 
Q 941 3494 1303 3539 
Q 1666 3584 2028 3584 
Q 2975 3584 3395 3211 
Q 3816 2838 3816 1997 
z
" transform="scale(0.015625)"/>
     <path id="DejaVuSans-Bold-65" d="M 4031 1759 
L 4031 1441 
L 1416 1441 
Q 1456 1047 1700 850 
Q 1944 653 2381 653 
Q 2734 653 3104 758 
Q 3475 863 3866 1075 
L 3866 213 
Q 3469 63 3072 -14 
Q 2675 -91 2278 -91 
Q 1328 -91 801 392 
Q 275 875 275 1747 
Q 275 2603 792 3093 
Q 1309 3584 2216 3584 
Q 3041 3584 3536 3087 
Q 4031 2591 4031 1759 
z
M 2881 2131 
Q 2881 2450 2695 2645 
Q 2509 2841 2209 2841 
Q 1884 2841 1681 2658 
Q 1478 2475 1428 2131 
L 2881 2131 
z
" transform="scale(0.015625)"/>
     <path id="DejaVuSans-Bold-6c" d="M 538 4863 
L 1656 4863 
L 1656 0 
L 538 0 
L 538 4863 
z
" transform="scale(0.015625)"/>
     <path id="DejaVuSans-Bold-6e" d="M 4056 2131 
L 4056 0 
L 2931 0 
L 2931 347 
L 2931 1631 
Q 2931 2084 2911 2256 
Q 2891 2428 2841 2509 
Q 2775 2619 2662 2680 
Q 2550 2741 2406 2741 
Q 2056 2741 1856 2470 
Q 1656 2200 1656 1722 
L 1656 0 
L 538 0 
L 538 3500 
L 1656 3500 
L 1656 2988 
Q 1909 3294 2193 3439 
Q 2478 3584 2822 3584 
Q 3428 3584 3742 3212 
Q 4056 2841 4056 2131 
z
" transform="scale(0.015625)"/>
     <path id="DejaVuSans-Bold-29" d="M 513 -844 
Q 913 -100 1113 609 
Q 1313 1319 1313 2009 
Q 1313 2700 1113 3408 
Q 913 4116 513 4856 
L 1441 4856 
Q 1916 4091 2145 3389 
Q 2375 2688 2375 2003 
Q 2375 1319 2147 623 
Q 1919 -72 1441 -844 
L 513 -844 
z
" transform="scale(0.015625)"/>
     <path id="DejaVuSans-Bold-7c" d="M 1522 4891 
L 1522 -1509 
L 813 -1509 
L 813 4891 
L 1522 4891 
z
" transform="scale(0.015625)"/>
     <path id="DejaVuSans-Bold-45" d="M 588 4666 
L 3834 4666 
L 3834 3756 
L 1791 3756 
L 1791 2888 
L 3713 2888 
L 3713 1978 
L 1791 1978 
L 1791 909 
L 3903 909 
L 3903 0 
L 588 0 
L 588 4666 
z
" transform="scale(0.015625)"/>
     <path id="DejaVuSans-Bold-72" d="M 3138 2547 
Q 2991 2616 2845 2648 
Q 2700 2681 2553 2681 
Q 2122 2681 1889 2404 
Q 1656 2128 1656 1613 
L 1656 0 
L 538 0 
L 538 3500 
L 1656 3500 
L 1656 2925 
Q 1872 3269 2151 3426 
Q 2431 3584 2822 3584 
Q 2878 3584 2943 3579 
Q 3009 3575 3134 3559 
L 3138 2547 
z
" transform="scale(0.015625)"/>
     <path id="DejaVuSans-Bold-70" d="M 1656 506 
L 1656 -1331 
L 538 -1331 
L 538 3500 
L 1656 3500 
L 1656 2988 
Q 1888 3294 2169 3439 
Q 2450 3584 2816 3584 
Q 3463 3584 3878 3070 
Q 4294 2556 4294 1747 
Q 4294 938 3878 423 
Q 3463 -91 2816 -91 
Q 2450 -91 2169 54 
Q 1888 200 1656 506 
z
M 2400 2772 
Q 2041 2772 1848 2508 
Q 1656 2244 1656 1747 
Q 1656 1250 1848 986 
Q 2041 722 2400 722 
Q 2759 722 2948 984 
Q 3138 1247 3138 1747 
Q 3138 2247 2948 2509 
Q 2759 2772 2400 2772 
z
" transform="scale(0.015625)"/>
     <path id="DejaVuSans-Bold-79" d="M 78 3500 
L 1197 3500 
L 2138 1125 
L 2938 3500 
L 4056 3500 
L 2584 -331 
Q 2363 -916 2067 -1148 
Q 1772 -1381 1288 -1381 
L 641 -1381 
L 641 -647 
L 991 -647 
Q 1275 -647 1404 -556 
Q 1534 -466 1606 -231 
L 1638 -134 
L 78 3500 
z
" transform="scale(0.015625)"/>
    </defs>
    <use xlink:href="#DejaVuSans-Bold-4c"/>
    <use xlink:href="#DejaVuSans-Bold-6f" transform="translate(63.720703 0)"/>
    <use xlink:href="#DejaVuSans-Bold-67" transform="translate(132.421875 0)"/>
    <use xlink:href="#DejaVuSans-Bold-69" transform="translate(204.003906 0)"/>
    <use xlink:href="#DejaVuSans-Bold-74" transform="translate(238.28125 0)"/>
    <use xlink:href="#DejaVuSans-Bold-73" transform="translate(286.083984 0)"/>
    <use xlink:href="#DejaVuSans-Bold-20" transform="translate(345.605469 0)"/>
    <use xlink:href="#DejaVuSans-Bold-28" transform="translate(380.419922 0)"/>
    <use xlink:href="#DejaVuSans-Bold-42" transform="translate(426.123047 0)"/>
    <use xlink:href="#DejaVuSans-Bold-61" transform="translate(502.34375 0)"/>
    <use xlink:href="#DejaVuSans-Bold-73" transform="translate(569.824219 0)"/>
    <use xlink:href="#DejaVuSans-Bold-65" transform="translate(629.345703 0)"/>
    <use xlink:href="#DejaVuSans-Bold-6c" transform="translate(697.167969 0)"/>
    <use xlink:href="#DejaVuSans-Bold-69" transform="translate(731.445312 0)"/>
    <use xlink:href="#DejaVuSans-Bold-6e" transform="translate(765.722656 0)"/>
    <use xlink:href="#DejaVuSans-Bold-65" transform="translate(836.914062 0)"/>
    <use xlink:href="#DejaVuSans-Bold-29" transform="translate(904.736328 0)"/>
    <use xlink:href="#DejaVuSans-Bold-20" transform="translate(950.439453 0)"/>
    <use xlink:href="#DejaVuSans-Bold-7c" transform="translate(985.253906 0)"/>
    <use xlink:href="#DejaVuSans-Bold-20" transform="translate(1021.777344 0)"/>
    <use xlink:href="#DejaVuSans-Bold-45" transform="translate(1056.591797 0)"/>
    <use xlink:href="#DejaVuSans-Bold-6e" transform="translate(1124.902344 0)"/>
    <use xlink:href="#DejaVuSans-Bold-74" transform="translate(1196.09375 0)"/>
    <use xlink:href="#DejaVuSans-Bold-72" transform="translate(1243.896484 0)"/>
    <use xlink:href="#DejaVuSans-Bold-6f" transform="translate(1293.212891 0)"/>
    <use xlink:href="#DejaVuSans-Bold-70" transform="translate(1361.914062 0)"/>
    <use xlink:href="#DejaVuSans-Bold-79" transform="translate(1433.496094 0)"/>
   </g>
  </g>
 </g>
 <defs>
  <clipPath id="p4708e0edba">
   <rect x="65.14" y="46.08" width="464.06" height="282.44"/>
  </clipPath>
 </defs>
</svg>
