<?xml version="1.0" encoding="utf-8" standalone="no"?>
<!DOCTYPE svg PUBLIC "-//W3C//DTD SVG 1.1//EN"
  "http://www.w3.org/Graphics/SVG/1.1/DTD/svg11.dtd">
<svg xmlns:xlink="http://www.w3.org/1999/xlink" width="540pt" height="360pt" viewBox="0 0 540 360" xmlns="http://www.w3.org/2000/svg" version="1.1">
 <metadata>
  <rdf:RDF xmlns:dc="http://purl.org/dc/elements/1.1/" xmlns:cc="http://creativecommons.org/ns#" xmlns:rdf="http://www.w3.org/1999/02/22-rdf-syntax-ns#">
   <cc:Work>
    <dc:type rdf:resource="http://purl.org/dc/dcmitype/StillImage"/>
    <dc:date>2025-08-04T02:53:08.153773</dc:date>
    <dc:format>image/svg+xml</dc:format>
    <dc:creator>
     <cc:Agent>
      <dc:title>Matplotlib v3.10.0, https://matplotlib.org/</dc:title>
     </cc:Agent>
    </dc:creator>
   </cc:Work>
  </rdf:RDF>
 </metadata>
 <defs>
  <style type="text/css">*{stroke-linejoin: round; stroke-linecap: butt}</style>
 </defs>
 <g id="figure_1">
  <g id="patch_1">
   <path d="M 0 360 
L 540 360 
L 540 0 
L 0 0 
z
" style="fill: #ffffff"/>
  </g>
  <g id="axes_1">
   <g id="patch_2">
    <path d="M 65.14 328.52 
L 529.2 328.52 
L 529.2 46.08 
L 65.14 46.08 
z
" style="fill: #eaeaf2"/>
   </g>
   <g id="matplotlib.axis_1">
    <g id="xtick_1">
     <g id="line2d_1">
      <path d="M 73.987664 328.52 
L 73.987664 46.08 
" clip-path="url(#p9115e22835)" style="fill: none; stroke: #ffffff; stroke-width: 0.8; stroke-linecap: round"/>
     </g>
     <g id="text_1">
      <!-- 0 -->
      <g style="fill: #262626" transform="translate(69.533914 346.157812) scale(0.14 -0.14)">
       <defs>
        <path id="DejaVuSans-30" d="M 2034 4250 
Q 1547 4250 1301 3770 
Q 1056 3291 1056 2328 
Q 1056 1369 1301 889 
Q 1547 409 2034 409 
Q 2525 409 2770 889 
Q 3016 1369 3016 2328 
Q 3016 3291 2770 3770 
Q 2525 4250 2034 4250 
z
M 2034 4750 
Q 2819 4750 3233 4129 
Q 3647 3509 3647 2328 
Q 3647 1150 3233 529 
Q 2819 -91 2034 -91 
Q 1250 -91 836 529 
Q 422 1150 422 2328 
Q 422 3509 836 4129 
Q 1250 4750 2034 4750 
z
" transform="scale(0.015625)"/>
       </defs>
       <use xlink:href="#DejaVuSans-30"/>
      </g>
     </g>
    </g>
    <g id="xtick_2">
     <g id="line2d_2">
      <path d="M 516.370887 328.52 
L 516.370887 46.08 
" clip-path="url(#p9115e22835)" style="fill: none; stroke: #ffffff; stroke-width: 0.8; stroke-linecap: round"/>
     </g>
     <g id="text_2">
      <!-- 2M -->
      <g style="fill: #262626" transform="translate(505.877449 346.157812) scale(0.14 -0.14)">
       <defs>
        <path id="DejaVuSans-32" d="M 1228 531 
L 3431 531 
L 3431 0 
L 469 0 
L 469 531 
Q 828 903 1448 1529 
Q 2069 2156 2228 2338 
Q 2531 2678 2651 2914 
Q 2772 3150 2772 3378 
Q 2772 3750 2511 3984 
Q 2250 4219 1831 4219 
Q 1534 4219 1204 4116 
Q 875 4013 500 3803 
L 500 4441 
Q 881 4594 1212 4672 
Q 1544 4750 1819 4750 
Q 2544 4750 2975 4387 
Q 3406 4025 3406 3419 
Q 3406 3131 3298 2873 
Q 3191 2616 2906 2266 
Q 2828 2175 2409 1742 
Q 1991 1309 1228 531 
z
" transform="scale(0.015625)"/>
        <path id="DejaVuSans-4d" d="M 628 4666 
L 1569 4666 
L 2759 1491 
L 3956 4666 
L 4897 4666 
L 4897 0 
L 4281 0 
L 4281 4097 
L 3078 897 
L 2444 897 
L 1241 4097 
L 1241 0 
L 628 0 
L 628 4666 
z
" transform="scale(0.015625)"/>
       </defs>
       <use xlink:href="#DejaVuSans-32"/>
       <use xlink:href="#DejaVuSans-4d" transform="translate(63.623047 0)"/>
      </g>
     </g>
    </g>
   </g>
   <g id="matplotlib.axis_2">
    <g id="ytick_1">
     <g id="line2d_3">
      <path d="M 65.14 321.36962 
L 529.2 321.36962 
" clip-path="url(#p9115e22835)" style="fill: none; stroke: #ffffff; stroke-width: 0.8; stroke-linecap: round"/>
     </g>
     <g id="text_3">
      <!-- −1500 -->
      <g style="fill: #262626" transform="translate(10.778437 326.688527) scale(0.14 -0.14)">
       <defs>
        <path id="DejaVuSans-2212" d="M 678 2272 
L 4684 2272 
L 4684 1741 
L 678 1741 
L 678 2272 
z
" transform="scale(0.015625)"/>
        <path id="DejaVuSans-31" d="M 794 531 
L 1825 531 
L 1825 4091 
L 703 3866 
L 703 4441 
L 1819 4666 
L 2450 4666 
L 2450 531 
L 3481 531 
L 3481 0 
L 794 0 
L 794 531 
z
" transform="scale(0.015625)"/>
        <path id="DejaVuSans-35" d="M 691 4666 
L 3169 4666 
L 3169 4134 
L 1269 4134 
L 1269 2991 
Q 1406 3038 1543 3061 
Q 1681 3084 1819 3084 
Q 2600 3084 3056 2656 
Q 3513 2228 3513 1497 
Q 3513 744 3044 326 
Q 2575 -91 1722 -91 
Q 1428 -91 1123 -41 
Q 819 9 494 109 
L 494 744 
Q 775 591 1075 516 
Q 1375 441 1709 441 
Q 2250 441 2565 725 
Q 2881 1009 2881 1497 
Q 2881 1984 2565 2268 
Q 2250 2553 1709 2553 
Q 1456 2553 1204 2497 
Q 953 2441 691 2322 
L 691 4666 
z
" transform="scale(0.015625)"/>
       </defs>
       <use xlink:href="#DejaVuSans-2212"/>
       <use xlink:href="#DejaVuSans-31" transform="translate(83.789062 0)"/>
       <use xlink:href="#DejaVuSans-35" transform="translate(147.412109 0)"/>
       <use xlink:href="#DejaVuSans-30" transform="translate(211.035156 0)"/>
       <use xlink:href="#DejaVuSans-30" transform="translate(274.658203 0)"/>
      </g>
     </g>
    </g>
    <g id="ytick_2">
     <g id="line2d_4">
      <path d="M 65.14 267.741772 
L 529.2 267.741772 
" clip-path="url(#p9115e22835)" style="fill: none; stroke: #ffffff; stroke-width: 0.8; stroke-linecap: round"/>
     </g>
     <g id="text_4">
      <!-- −1200 -->
      <g style="fill: #262626" transform="translate(10.778437 273.060678) scale(0.14 -0.14)">
       <use xlink:href="#DejaVuSans-2212"/>
       <use xlink:href="#DejaVuSans-31" transform="translate(83.789062 0)"/>
       <use xlink:href="#DejaVuSans-32" transform="translate(147.412109 0)"/>
       <use xlink:href="#DejaVuSans-30" transform="translate(211.035156 0)"/>
       <use xlink:href="#DejaVuSans-30" transform="translate(274.658203 0)"/>
      </g>
     </g>
    </g>
    <g id="ytick_3">
     <g id="line2d_5">
      <path d="M 65.14 214.113924 
L 529.2 214.113924 
" clip-path="url(#p9115e22835)" style="fill: none; stroke: #ffffff; stroke-width: 0.8; stroke-linecap: round"/>
     </g>
     <g id="text_5">
      <!-- −900 -->
      <g style="fill: #262626" transform="translate(19.685937 219.43283) scale(0.14 -0.14)">
       <defs>
        <path id="DejaVuSans-39" d="M 703 97 
L 703 672 
Q 941 559 1184 500 
Q 1428 441 1663 441 
Q 2288 441 2617 861 
Q 2947 1281 2994 2138 
Q 2813 1869 2534 1725 
Q 2256 1581 1919 1581 
Q 1219 1581 811 2004 
Q 403 2428 403 3163 
Q 403 3881 828 4315 
Q 1253 4750 1959 4750 
Q 2769 4750 3195 4129 
Q 3622 3509 3622 2328 
Q 3622 1225 3098 567 
Q 2575 -91 1691 -91 
Q 1453 -91 1209 -44 
Q 966 3 703 97 
z
M 1959 2075 
Q 2384 2075 2632 2365 
Q 2881 2656 2881 3163 
Q 2881 3666 2632 3958 
Q 2384 4250 1959 4250 
Q 1534 4250 1286 3958 
Q 1038 3666 1038 3163 
Q 1038 2656 1286 2365 
Q 1534 2075 1959 2075 
z
" transform="scale(0.015625)"/>
       </defs>
       <use xlink:href="#DejaVuSans-2212"/>
       <use xlink:href="#DejaVuSans-39" transform="translate(83.789062 0)"/>
       <use xlink:href="#DejaVuSans-30" transform="translate(147.412109 0)"/>
       <use xlink:href="#DejaVuSans-30" transform="translate(211.035156 0)"/>
      </g>
     </g>
    </g>
    <g id="ytick_4">
     <g id="line2d_6">
      <path d="M 65.14 160.486076 
L 529.2 160.486076 
" clip-path="url(#p9115e22835)" style="fill: none; stroke: #ffffff; stroke-width: 0.8; stroke-linecap: round"/>
     </g>
     <g id="text_6">
      <!-- −600 -->
      <g style="fill: #262626" transform="translate(19.685937 165.804982) scale(0.14 -0.14)">
       <defs>
        <path id="DejaVuSans-36" d="M 2113 2584 
Q 1688 2584 1439 2293 
Q 1191 2003 1191 1497 
Q 1191 994 1439 701 
Q 1688 409 2113 409 
Q 2538 409 2786 701 
Q 3034 994 3034 1497 
Q 3034 2003 2786 2293 
Q 2538 2584 2113 2584 
z
M 3366 4563 
L 3366 3988 
Q 3128 4100 2886 4159 
Q 2644 4219 2406 4219 
Q 1781 4219 1451 3797 
Q 1122 3375 1075 2522 
Q 1259 2794 1537 2939 
Q 1816 3084 2150 3084 
Q 2853 3084 3261 2657 
Q 3669 2231 3669 1497 
Q 3669 778 3244 343 
Q 2819 -91 2113 -91 
Q 1303 -91 875 529 
Q 447 1150 447 2328 
Q 447 3434 972 4092 
Q 1497 4750 2381 4750 
Q 2619 4750 2861 4703 
Q 3103 4656 3366 4563 
z
" transform="scale(0.015625)"/>
       </defs>
       <use xlink:href="#DejaVuSans-2212"/>
       <use xlink:href="#DejaVuSans-36" transform="translate(83.789062 0)"/>
       <use xlink:href="#DejaVuSans-30" transform="translate(147.412109 0)"/>
       <use xlink:href="#DejaVuSans-30" transform="translate(211.035156 0)"/>
      </g>
     </g>
    </g>
    <g id="ytick_5">
     <g id="line2d_7">
      <path d="M 65.14 106.858228 
L 529.2 106.858228 
" clip-path="url(#p9115e22835)" style="fill: none; stroke: #ffffff; stroke-width: 0.8; stroke-linecap: round"/>
     </g>
     <g id="text_7">
      <!-- −300 -->
      <g style="fill: #262626" transform="translate(19.685937 112.177134) scale(0.14 -0.14)">
       <defs>
        <path id="DejaVuSans-33" d="M 2597 2516 
Q 3050 2419 3304 2112 
Q 3559 1806 3559 1356 
Q 3559 666 3084 287 
Q 2609 -91 1734 -91 
Q 1441 -91 1130 -33 
Q 819 25 488 141 
L 488 750 
Q 750 597 1062 519 
Q 1375 441 1716 441 
Q 2309 441 2620 675 
Q 2931 909 2931 1356 
Q 2931 1769 2642 2001 
Q 2353 2234 1838 2234 
L 1294 2234 
L 1294 2753 
L 1863 2753 
Q 2328 2753 2575 2939 
Q 2822 3125 2822 3475 
Q 2822 3834 2567 4026 
Q 2313 4219 1838 4219 
Q 1578 4219 1281 4162 
Q 984 4106 628 3988 
L 628 4550 
Q 988 4650 1302 4700 
Q 1616 4750 1894 4750 
Q 2613 4750 3031 4423 
Q 3450 4097 3450 3541 
Q 3450 3153 3228 2886 
Q 3006 2619 2597 2516 
z
" transform="scale(0.015625)"/>
       </defs>
       <use xlink:href="#DejaVuSans-2212"/>
       <use xlink:href="#DejaVuSans-33" transform="translate(83.789062 0)"/>
       <use xlink:href="#DejaVuSans-30" transform="translate(147.412109 0)"/>
       <use xlink:href="#DejaVuSans-30" transform="translate(211.035156 0)"/>
      </g>
     </g>
    </g>
    <g id="ytick_6">
     <g id="line2d_8">
      <path d="M 65.14 53.23038 
L 529.2 53.23038 
" clip-path="url(#p9115e22835)" style="fill: none; stroke: #ffffff; stroke-width: 0.8; stroke-linecap: round"/>
     </g>
     <g id="text_8">
      <!-- 0 -->
      <g style="fill: #262626" transform="translate(49.2325 58.549286) scale(0.14 -0.14)">
       <use xlink:href="#DejaVuSans-30"/>
      </g>
     </g>
    </g>
   </g>
   <g id="FillBetweenPolyCollection_1">
    <path d="M 73.987664 258.27364 
L 73.987664 281.023192 
L 78.517669 274.36223 
L 83.047673 284.779935 
L 87.577677 268.528375 
L 92.107681 270.889457 
L 96.637685 265.892873 
L 101.16769 270.004466 
L 105.697694 257.883771 
L 110.227698 252.255453 
L 114.757702 255.460563 
L 119.287706 241.680438 
L 123.817711 230.843331 
L 128.347715 223.271812 
L 132.877719 206.675097 
L 137.407723 194.290744 
L 141.937727 193.885876 
L 146.467732 175.20438 
L 150.997736 163.225947 
L 155.52774 134.594395 
L 160.057744 129.347111 
L 164.587748 131.475808 
L 169.117753 124.416979 
L 173.647757 125.518834 
L 178.177761 115.383953 
L 182.707765 121.57184 
L 187.237769 123.022488 
L 191.767773 102.848091 
L 196.297778 113.310932 
L 200.827782 119.532071 
L 205.357786 123.886798 
L 209.88779 105.281729 
L 214.417794 122.868162 
L 218.947799 106.996809 
L 223.477803 110.832322 
L 228.007807 130.783363 
L 232.537811 123.687899 
L 237.067815 108.582034 
L 241.59782 125.459855 
L 246.127824 114.70199 
L 250.657828 127.263191 
L 255.187832 118.154147 
L 259.717836 135.100587 
L 264.247841 117.041563 
L 268.777845 130.385371 
L 273.307849 135.078405 
L 277.837853 102.536751 
L 282.367857 106.502664 
L 286.897862 95.892594 
L 291.427866 122.778408 
L 295.95787 123.283988 
L 300.487874 145.418521 
L 305.017878 118.733506 
L 309.547883 125.234984 
L 314.077887 124.257966 
L 318.607891 121.311032 
L 323.137895 130.699444 
L 327.667899 114.753438 
L 332.197904 115.651956 
L 336.727908 122.036396 
L 341.257912 123.85381 
L 345.787916 105.502936 
L 350.31792 132.479128 
L 354.847924 113.333396 
L 359.377929 117.683279 
L 363.907933 114.508377 
L 368.437937 107.188608 
L 372.967941 113.62612 
L 377.497945 109.345493 
L 382.02795 115.354713 
L 386.557954 99.164969 
L 391.087958 109.947473 
L 395.617962 110.367671 
L 400.147966 113.827136 
L 404.677971 105.363507 
L 409.207975 109.575547 
L 413.737979 121.300918 
L 418.267983 124.461752 
L 422.797987 105.00338 
L 427.327992 110.103084 
L 431.857996 97.934564 
L 436.388 113.465989 
L 440.918004 144.328798 
L 445.448008 137.327444 
L 449.978013 146.092563 
L 454.508017 114.103508 
L 459.038021 149.502783 
L 463.568025 200.046758 
L 468.098029 179.521561 
L 472.628034 200.504405 
L 477.158038 206.808906 
L 481.688042 194.636971 
L 486.218046 152.982894 
L 490.74805 188.994444 
L 495.278055 159.910759 
L 499.808059 170.561572 
L 504.338063 151.572441 
L 508.868067 141.293859 
L 513.398071 166.5615 
L 517.928076 143.749246 
L 522.45808 145.47562 
L 522.45808 71.288592 
L 522.45808 71.288592 
L 517.928076 70.845888 
L 513.398071 70.164159 
L 508.868067 77.460621 
L 504.338063 70.280399 
L 499.808059 67.457974 
L 495.278055 71.008693 
L 490.74805 68.911786 
L 486.218046 72.037924 
L 481.688042 65.020374 
L 477.158038 68.842184 
L 472.628034 71.537481 
L 468.098029 74.18622 
L 463.568025 66.526363 
L 459.038021 75.231473 
L 454.508017 78.301777 
L 449.978013 76.861727 
L 445.448008 75.257437 
L 440.918004 83.087882 
L 436.388 68.143 
L 431.857996 78.309051 
L 427.327992 68.526564 
L 422.797987 71.580656 
L 418.267983 77.621292 
L 413.737979 64.262955 
L 409.207975 72.173666 
L 404.677971 71.08459 
L 400.147966 74.785121 
L 395.617962 72.5656 
L 391.087958 70.58014 
L 386.557954 77.852307 
L 382.02795 71.454792 
L 377.497945 71.806019 
L 372.967941 74.419308 
L 368.437937 73.346907 
L 363.907933 72.821081 
L 359.377929 70.99284 
L 354.847924 72.947229 
L 350.31792 77.508345 
L 345.787916 73.591491 
L 341.257912 64.541284 
L 336.727908 72.627316 
L 332.197904 72.81376 
L 327.667899 84.828911 
L 323.137895 89.772856 
L 318.607891 82.663218 
L 314.077887 67.419871 
L 309.547883 68.692108 
L 305.017878 68.559616 
L 300.487874 66.659042 
L 295.95787 71.607626 
L 291.427866 67.05708 
L 286.897862 79.56918 
L 282.367857 81.032604 
L 277.837853 77.638071 
L 273.307849 68.838066 
L 268.777845 78.727606 
L 264.247841 76.000793 
L 259.717836 78.895044 
L 255.187832 78.809951 
L 250.657828 66.080804 
L 246.127824 79.394734 
L 241.59782 76.05508 
L 237.067815 88.706937 
L 232.537811 83.618724 
L 228.007807 73.428754 
L 223.477803 78.174215 
L 218.947799 79.43026 
L 214.417794 82.695814 
L 209.88779 82.221243 
L 205.357786 75.063637 
L 200.827782 83.859236 
L 196.297778 92.300961 
L 191.767773 87.896653 
L 187.237769 88.030789 
L 182.707765 93.144946 
L 178.177761 86.760047 
L 173.647757 85.181626 
L 169.117753 96.952978 
L 164.587748 94.699222 
L 160.057744 94.101271 
L 155.52774 92.309906 
L 150.997736 87.160833 
L 146.467732 89.627988 
L 141.937727 114.286983 
L 137.407723 115.120067 
L 132.877719 140.345231 
L 128.347715 172.078281 
L 123.817711 175.714509 
L 119.287706 184.675151 
L 114.757702 206.660799 
L 110.227698 204.043723 
L 105.697694 212.433406 
L 101.16769 212.936825 
L 96.637685 222.434317 
L 92.107681 230.855296 
L 87.577677 233.939214 
L 83.047673 251.62635 
L 78.517669 255.130938 
L 73.987664 258.27364 
z
" clip-path="url(#p9115e22835)" style="fill: #023eff; fill-opacity: 0.1"/>
   </g>
   <g id="line2d_9">
    <path d="M 73.987664 265.015123 
L 78.517669 277.164087 
L 83.047673 245.802413 
L 87.577677 236.462312 
L 92.107681 240.368536 
L 96.637685 231.163371 
L 101.16769 223.532044 
L 105.697694 219.006309 
L 110.227698 207.561543 
L 114.757702 212.272069 
L 119.287706 190.801732 
L 123.817711 183.96687 
L 128.347715 181.716526 
L 132.877719 152.994819 
L 137.407723 116.361157 
L 141.937727 97.791191 
L 146.467732 89.356149 
L 150.997736 84.657205 
L 155.52774 98.365606 
L 160.057744 82.489963 
L 164.587748 92.060031 
L 169.117753 89.421835 
L 173.647757 82.936384 
L 178.177761 89.421315 
L 182.707765 91.34603 
L 187.237769 86.181908 
L 191.767773 89.480017 
L 196.297778 93.942987 
L 200.827782 89.598882 
L 205.357786 91.583483 
L 209.88779 86.914857 
L 214.417794 79.616029 
L 218.947799 76.911358 
L 223.477803 79.330312 
L 228.007807 85.413219 
L 232.537811 92.676967 
L 237.067815 93.422624 
L 241.59782 80.772573 
L 246.127824 80.210661 
L 250.657828 83.471266 
L 255.187832 126.032234 
L 259.717836 109.889722 
L 264.247841 84.272832 
L 268.777845 102.205664 
L 273.307849 88.218422 
L 277.837853 85.95788 
L 282.367857 87.447925 
L 286.897862 83.494562 
L 291.427866 86.983892 
L 295.95787 85.195232 
L 300.487874 74.930488 
L 305.017878 79.421042 
L 309.547883 79.91826 
L 314.077887 81.131115 
L 318.607891 83.577377 
L 323.137895 97.535816 
L 327.667899 94.648004 
L 332.197904 92.327754 
L 336.727908 81.972685 
L 341.257912 77.616727 
L 345.787916 76.15785 
L 350.31792 79.432518 
L 354.847924 78.05591 
L 359.377929 82.414587 
L 363.907933 87.235143 
L 368.437937 81.84377 
L 372.967941 85.712239 
L 377.497945 81.266354 
L 382.02795 82.792359 
L 386.557954 81.523572 
L 391.087958 78.137588 
L 395.617962 81.685484 
L 400.147966 84.492478 
L 404.677971 78.889648 
L 409.207975 88.766722 
L 413.737979 78.676703 
L 418.267983 113.848486 
L 422.797987 73.053073 
L 427.327992 78.999917 
L 431.857996 86.047889 
L 436.388 76.928484 
L 440.918004 149.571913 
L 445.448008 155.443422 
L 449.978013 162.117525 
L 454.508017 121.326688 
L 459.038021 178.91372 
L 463.568025 190.265869 
L 468.098029 158.221522 
L 472.628034 193.977054 
L 477.158038 185.601793 
L 481.688042 168.248935 
L 486.218046 138.660388 
L 490.74805 174.569618 
L 495.278055 138.070245 
L 499.808059 142.727702 
L 504.338063 128.068201 
L 508.868067 136.416508 
L 513.398071 152.656241 
L 517.928076 119.232803 
L 522.45808 122.299291 
" clip-path="url(#p9115e22835)" style="fill: none; stroke: #1ac938; stroke-opacity: 0.27; stroke-width: 1.25; stroke-linecap: round"/>
   </g>
   <g id="line2d_10">
    <path d="M 73.987664 267.788206 
L 78.517669 255.934551 
L 83.047673 286.743025 
L 87.577677 249.057621 
L 92.107681 239.181202 
L 96.637685 230.969681 
L 101.16769 226.091686 
L 105.697694 224.964584 
L 110.227698 221.80618 
L 114.757702 229.165543 
L 119.287706 196.570802 
L 123.817711 190.887227 
L 128.347715 180.947802 
L 132.877719 155.767947 
L 137.407723 127.245453 
L 141.937727 157.285877 
L 146.467732 111.914106 
L 150.997736 127.79155 
L 155.52774 99.872431 
L 160.057744 121.703494 
L 164.587748 125.124325 
L 169.117753 102.571129 
L 173.647757 106.92337 
L 178.177761 87.74187 
L 182.707765 114.442119 
L 187.237769 118.096863 
L 191.767773 93.23365 
L 196.297778 103.921908 
L 200.827782 98.605328 
L 205.357786 83.517528 
L 209.88779 88.743325 
L 214.417794 91.252184 
L 218.947799 85.57025 
L 223.477803 89.886506 
L 228.007807 84.39034 
L 232.537811 92.975557 
L 237.067815 106.647196 
L 241.59782 86.00295 
L 246.127824 83.506652 
L 250.657828 84.179245 
L 255.187832 84.512524 
L 259.717836 88.813042 
L 264.247841 102.345775 
L 268.777845 80.757338 
L 273.307849 81.182271 
L 277.837853 82.945968 
L 282.367857 91.749914 
L 286.897862 76.568989 
L 291.427866 80.278488 
L 295.95787 82.214342 
L 300.487874 86.416707 
L 305.017878 76.079873 
L 309.547883 81.821304 
L 314.077887 79.989627 
L 318.607891 123.839012 
L 323.137895 136.30289 
L 327.667899 87.14426 
L 332.197904 79.867653 
L 336.727908 82.083373 
L 341.257912 82.606195 
L 345.787916 84.292719 
L 350.31792 127.982167 
L 354.847924 88.103843 
L 359.377929 80.566528 
L 363.907933 83.542777 
L 368.437937 86.865893 
L 372.967941 78.388596 
L 377.497945 76.553742 
L 382.02795 78.98684 
L 386.557954 82.918817 
L 391.087958 78.998081 
L 395.617962 82.935008 
L 400.147966 87.915468 
L 404.677971 82.136846 
L 409.207975 81.256668 
L 413.737979 77.041369 
L 418.267983 81.00525 
L 422.797987 80.355536 
L 427.327992 78.072209 
L 431.857996 78.535742 
L 436.388 80.987729 
L 440.918004 78.992662 
L 445.448008 79.552954 
L 449.978013 79.553485 
L 454.508017 86.394945 
L 459.038021 84.747742 
L 463.568025 81.347887 
L 468.098029 79.632265 
L 472.628034 80.901901 
L 477.158038 79.571476 
L 481.688042 80.107908 
L 486.218046 82.830035 
L 490.74805 76.404008 
L 495.278055 76.727456 
L 499.808059 78.152369 
L 504.338063 78.958112 
L 508.868067 84.964569 
L 513.398071 78.117757 
L 517.928076 81.566713 
L 522.45808 79.328737 
" clip-path="url(#p9115e22835)" style="fill: none; stroke: #1ac938; stroke-opacity: 0.27; stroke-width: 1.25; stroke-linecap: round"/>
   </g>
   <g id="line2d_11">
    <path d="M 73.987664 282.249342 
L 78.517669 273.587087 
L 83.047673 287.042818 
L 87.577677 284.799606 
L 92.107681 287.889722 
L 96.637685 286.361241 
L 101.16769 293.403448 
L 105.697694 278.122065 
L 110.227698 269.13533 
L 114.757702 274.06354 
L 119.287706 269.150998 
L 123.817711 256.430832 
L 128.347715 246.984168 
L 132.877719 225.925745 
L 137.407723 216.259504 
L 141.937727 220.344571 
L 146.467732 209.579404 
L 150.997736 187.699683 
L 155.52774 150.566492 
L 160.057744 134.370616 
L 164.587748 141.046679 
L 169.117753 129.440658 
L 173.647757 142.223135 
L 178.177761 127.185951 
L 182.707765 126.647399 
L 187.237769 132.866507 
L 191.767773 106.44106 
L 196.297778 121.864832 
L 200.827782 135.845814 
L 205.357786 147.682586 
L 209.88779 116.742387 
L 214.417794 133.403697 
L 218.947799 117.755575 
L 223.477803 125.589605 
L 228.007807 159.153301 
L 232.537811 141.418132 
L 237.067815 112.567959 
L 241.59782 146.912422 
L 246.127824 128.576729 
L 250.657828 157.56392 
L 255.187832 117.814361 
L 259.717836 160.560457 
L 264.247841 134.222281 
L 268.777845 152.47836 
L 273.307849 167.937568 
L 277.837853 114.810206 
L 282.367857 117.460352 
L 286.897862 101.379044 
L 291.427866 150.189826 
L 295.95787 147.94413 
L 300.487874 181.379185 
L 305.017878 143.370188 
L 309.547883 153.320924 
L 314.077887 152.130511 
L 318.607891 126.914578 
L 323.137895 133.902479 
L 327.667899 128.747417 
L 332.197904 135.632467 
L 336.727908 146.438863 
L 341.257912 153.335139 
L 345.787916 120.869765 
L 350.31792 147.125196 
L 354.847924 132.972519 
L 359.377929 140.764163 
L 363.907933 134.732822 
L 368.437937 123.549247 
L 372.967941 131.908105 
L 377.497945 127.263945 
L 382.02795 137.049614 
L 386.557954 109.678927 
L 391.087958 129.370894 
L 395.617962 129.222457 
L 400.147966 133.067508 
L 404.677971 122.405601 
L 409.207975 127.178784 
L 413.737979 149.165827 
L 418.267983 140.912332 
L 422.797987 118.90456 
L 427.327992 129.939711 
L 431.857996 106.761707 
L 436.388 135.876708 
L 440.918004 143.513101 
L 445.448008 130.453615 
L 449.978013 144.207983 
L 454.508017 114.10691 
L 459.038021 127.63856 
L 463.568025 235.849653 
L 468.098029 214.355505 
L 472.628034 232.969011 
L 477.158038 251.104516 
L 481.688042 240.081164 
L 486.218046 180.058391 
L 490.74805 224.817775 
L 495.278055 192.722066 
L 499.808059 210.140617 
L 504.338063 183.484898 
L 508.868067 158.594513 
L 513.398071 196.789913 
L 517.928076 173.825197 
L 522.45808 175.406004 
" clip-path="url(#p9115e22835)" style="fill: none; stroke: #1ac938; stroke-opacity: 0.27; stroke-width: 1.25; stroke-linecap: round"/>
   </g>
   <g id="line2d_12">
    <path d="M 73.987664 251.685542 
L 78.517669 252.405945 
L 83.047673 255.17684 
L 87.577677 244.90397 
L 92.107681 255.214269 
L 96.637685 243.545097 
L 101.16769 250.083812 
L 105.697694 237.653458 
L 110.227698 239.326353 
L 114.757702 236.054308 
L 119.287706 206.70645 
L 123.817711 202.979248 
L 128.347715 198.635354 
L 132.877719 197.384994 
L 137.407723 186.936321 
L 141.937727 158.990556 
L 146.467732 146.023831 
L 150.997736 139.116197 
L 155.52774 123.542449 
L 160.057744 116.352931 
L 164.587748 112.029126 
L 169.117753 118.885418 
L 173.647757 101.855233 
L 178.177761 104.257014 
L 182.707765 113.963814 
L 187.237769 99.68012 
L 191.767773 101.370498 
L 196.297778 101.880523 
L 200.827782 98.876499 
L 205.357786 91.883934 
L 209.88779 89.230083 
L 214.417794 90.647108 
L 218.947799 89.507695 
L 223.477803 93.928905 
L 228.007807 88.689275 
L 232.537811 106.001547 
L 237.067815 96.169518 
L 241.59782 105.970108 
L 246.127824 103.42618 
L 250.657828 82.350449 
L 255.187832 76.306005 
L 259.717836 89.928772 
L 264.247841 78.540123 
L 268.777845 82.941692 
L 273.307849 89.059758 
L 277.837853 81.751416 
L 282.367857 92.710325 
L 286.897862 87.437721 
L 291.427866 81.234213 
L 295.95787 77.540389 
L 300.487874 108.260713 
L 305.017878 83.53781 
L 309.547883 82.841838 
L 314.077887 88.922149 
L 318.607891 84.138428 
L 323.137895 89.828796 
L 327.667899 98.217117 
L 332.197904 86.875502 
L 336.727908 88.6018 
L 341.257912 76.316585 
L 345.787916 84.718454 
L 350.31792 89.566743 
L 354.847924 84.86971 
L 359.377929 80.58875 
L 363.907933 85.954851 
L 368.437937 81.907427 
L 372.967941 93.19651 
L 377.497945 88.53463 
L 382.02795 86.375627 
L 386.557954 85.357268 
L 391.087958 84.689295 
L 395.617962 83.023401 
L 400.147966 85.409309 
L 404.677971 79.214057 
L 409.207975 82.562667 
L 413.737979 86.170982 
L 418.267983 89.94811 
L 422.797987 92.830333 
L 427.327992 86.702178 
L 431.857996 87.225276 
L 436.388 77.052145 
L 440.918004 77.868678 
L 445.448008 85.901697 
L 449.978013 88.286584 
L 454.508017 80.694355 
L 459.038021 86.278299 
L 463.568025 83.477433 
L 468.098029 105.733548 
L 472.628034 88.965644 
L 477.158038 87.215703 
L 481.688042 81.040679 
L 486.218046 83.100538 
L 490.74805 88.848472 
L 495.278055 88.729518 
L 499.808059 84.648527 
L 504.338063 84.654641 
L 508.868067 83.357853 
L 513.398071 86.745954 
L 517.928076 77.552235 
L 522.45808 81.117779 
" clip-path="url(#p9115e22835)" style="fill: none; stroke: #1ac938; stroke-opacity: 0.27; stroke-width: 1.25; stroke-linecap: round"/>
   </g>
   <g id="line2d_13">
    <path d="M 73.987664 281.503867 
L 78.517669 264.64125 
L 83.047673 266.250614 
L 87.577677 240.945465 
L 92.107681 231.708153 
L 96.637685 228.778584 
L 101.16769 214.242238 
L 105.697694 216.046525 
L 110.227698 202.918533 
L 114.757702 203.747946 
L 119.287706 202.658991 
L 123.817711 182.130423 
L 128.347715 180.091383 
L 132.877719 135.477316 
L 137.407723 126.724592 
L 141.937727 136.019952 
L 146.467732 105.207432 
L 150.997736 86.702315 
L 155.52774 94.913775 
L 160.057744 103.703953 
L 164.587748 95.177414 
L 169.117753 113.105853 
L 173.647757 92.813027 
L 178.177761 96.75385 
L 182.707765 90.392601 
L 187.237769 90.807794 
L 191.767773 86.336636 
L 196.297778 92.419483 
L 200.827782 85.551744 
L 205.357786 82.708555 
L 209.88779 87.126779 
L 214.417794 118.990922 
L 218.947799 96.322797 
L 223.477803 83.781016 
L 228.007807 92.884157 
L 232.537811 85.194356 
L 237.067815 84.41513 
L 241.59782 84.129286 
L 246.127824 89.521587 
L 250.657828 75.795107 
L 255.187832 87.745122 
L 259.717836 85.797087 
L 264.247841 83.224879 
L 268.777845 104.399388 
L 273.307849 83.39316 
L 277.837853 84.971584 
L 282.367857 79.469653 
L 286.897862 89.774118 
L 291.427866 75.902302 
L 295.95787 94.334942 
L 300.487874 79.206816 
L 305.017878 85.823892 
L 309.547883 86.915404 
L 314.077887 77.021192 
L 318.607891 91.466229 
L 323.137895 93.610769 
L 327.667899 90.199074 
L 332.197904 76.460916 
L 336.727908 87.562561 
L 341.257912 81.113089 
L 345.787916 81.697279 
L 350.31792 80.862058 
L 354.847924 81.69958 
L 359.377929 87.356268 
L 363.907933 76.858051 
L 368.437937 77.172453 
L 372.967941 80.908122 
L 377.497945 79.26011 
L 382.02795 81.819324 
L 386.557954 83.064606 
L 391.087958 80.123174 
L 395.617962 80.466825 
L 400.147966 80.645879 
L 404.677971 78.474093 
L 409.207975 74.60819 
L 413.737979 72.854802 
L 418.267983 79.493433 
L 422.797987 76.316589 
L 427.327992 72.860106 
L 431.857996 82.038425 
L 436.388 83.177406 
L 440.918004 118.595345 
L 445.448008 80.110515 
L 449.978013 83.220149 
L 454.508017 78.490314 
L 459.038021 84.257318 
L 463.568025 75.491961 
L 468.098029 76.326613 
L 472.628034 83.291106 
L 477.158038 85.634238 
L 481.688042 79.664675 
L 486.218046 77.902695 
L 490.74805 80.125701 
L 495.278055 81.049344 
L 499.808059 79.379651 
L 504.338063 79.466247 
L 508.868067 83.552756 
L 513.398071 77.504282 
L 517.928076 84.310887 
L 522.45808 83.758718 
" clip-path="url(#p9115e22835)" style="fill: none; stroke: #1ac938; stroke-opacity: 0.27; stroke-width: 1.25; stroke-linecap: round"/>
   </g>
   <g id="line2d_14">
    <path d="M 73.987664 53.23038 
L 78.517669 58.768956 
L 83.047673 70.069028 
L 87.577677 87.659518 
L 92.107681 105.464705 
L 96.637685 131.060042 
L 101.16769 142.798353 
L 105.697694 165.944852 
L 110.227698 189.498766 
L 114.757702 199.529985 
L 119.287706 210.083604 
L 123.817711 219.133841 
L 128.347715 232.334194 
L 132.877719 227.285483 
L 137.407723 222.634526 
L 141.937727 217.07073 
L 146.467732 215.627266 
L 150.997736 217.428914 
L 155.52774 219.028028 
L 160.057744 225.661908 
L 164.587748 226.791482 
L 169.117753 227.672134 
L 173.647757 238.289948 
L 178.177761 247.291602 
L 182.707765 256.249695 
L 187.237769 261.448987 
L 191.767773 261.077432 
L 196.297778 265.26562 
L 200.827782 269.210806 
L 205.357786 269.286319 
L 209.88779 273.558416 
L 214.417794 273.737322 
L 218.947799 271.084872 
L 223.477803 273.793499 
L 228.007807 277.320637 
L 232.537811 276.82883 
L 237.067815 277.152791 
L 241.59782 279.36234 
L 246.127824 282.677833 
L 250.657828 283.707672 
L 255.187832 286.867486 
L 259.717836 289.035305 
L 264.247841 288.572189 
L 268.777845 287.681028 
L 273.307849 288.861226 
L 277.837853 287.927677 
L 282.367857 290.20692 
L 286.897862 287.495486 
L 291.427866 287.916382 
L 295.95787 288.265307 
L 300.487874 288.054245 
L 305.017878 286.103358 
L 309.547883 287.4887 
L 314.077887 285.226017 
L 318.607891 291.427195 
L 323.137895 292.485943 
L 327.667899 295.649553 
L 332.197904 293.810512 
L 336.727908 295.156346 
L 341.257912 294.12978 
L 345.787916 293.668908 
L 350.31792 300.226029 
L 354.847924 300.588876 
L 359.377929 295.785898 
L 363.907933 293.020388 
L 368.437937 293.454454 
L 372.967941 294.711115 
L 377.497945 295.584391 
L 382.02795 295.585204 
L 386.557954 295.638816 
L 391.087958 292.723967 
L 395.617962 292.943444 
L 400.147966 300.382401 
L 404.677971 300.176987 
L 409.207975 299.823375 
L 413.737979 299.449662 
L 418.267983 296.327817 
L 422.797987 296.977805 
L 427.327992 300.401125 
L 431.857996 298.943464 
L 436.388 300.258349 
L 440.918004 305.879923 
L 445.448008 305.919723 
L 449.978013 308.326196 
L 454.508017 307.791135 
L 459.038021 311.443318 
L 463.568025 316.753942 
L 468.098029 317.519626 
L 472.628034 319.808557 
L 477.158038 319.685423 
L 481.688042 319.175034 
L 486.218046 318.449329 
L 490.74805 319.761106 
L 495.278055 319.52058 
L 499.808059 320.268734 
L 504.338063 320.724992 
L 508.868067 320.205515 
L 513.398071 321.36962 
L 517.928076 320.935714 
L 522.45808 320.513844 
" clip-path="url(#p9115e22835)" style="fill: none; stroke: #8b2be2; stroke-width: 1.5; stroke-linecap: round"/>
   </g>
   <g id="line2d_15">
    <path d="M 73.987664 269.648416 
L 78.517669 264.746584 
L 83.047673 268.203142 
L 87.577677 251.233795 
L 92.107681 250.872376 
L 96.637685 244.163595 
L 101.16769 241.470646 
L 105.697694 235.158588 
L 110.227698 228.149588 
L 114.757702 231.060681 
L 119.287706 213.177795 
L 123.817711 203.27892 
L 128.347715 197.675047 
L 132.877719 173.510164 
L 137.407723 154.705405 
L 141.937727 154.086429 
L 146.467732 132.416184 
L 150.997736 125.19339 
L 155.52774 113.452151 
L 160.057744 111.724191 
L 164.587748 113.087515 
L 169.117753 110.684979 
L 173.647757 105.35023 
L 178.177761 101.072 
L 182.707765 107.358393 
L 187.237769 105.526638 
L 191.767773 95.372372 
L 196.297778 102.805947 
L 200.827782 101.695653 
L 205.357786 99.475217 
L 209.88779 93.751486 
L 214.417794 102.781988 
L 218.947799 93.213535 
L 223.477803 94.503268 
L 228.007807 102.106059 
L 232.537811 103.653312 
L 237.067815 98.644485 
L 241.59782 100.757468 
L 246.127824 97.048362 
L 250.657828 96.671997 
L 255.187832 98.482049 
L 259.717836 106.997816 
L 264.247841 96.521178 
L 268.777845 104.556488 
L 273.307849 101.958236 
L 277.837853 90.087411 
L 282.367857 93.767634 
L 286.897862 87.730887 
L 291.427866 94.917744 
L 295.95787 97.445807 
L 300.487874 106.038782 
L 305.017878 93.646561 
L 309.547883 96.963546 
L 314.077887 95.838919 
L 318.607891 101.987125 
L 323.137895 110.23615 
L 327.667899 99.791175 
L 332.197904 94.232858 
L 336.727908 97.331856 
L 341.257912 94.197547 
L 345.787916 89.547213 
L 350.31792 104.993736 
L 354.847924 93.140313 
L 359.377929 94.338059 
L 363.907933 93.664729 
L 368.437937 90.267758 
L 372.967941 94.022714 
L 377.497945 90.575756 
L 382.02795 93.404753 
L 386.557954 88.508638 
L 391.087958 90.263806 
L 395.617962 91.466635 
L 400.147966 94.306128 
L 404.677971 88.224049 
L 409.207975 90.874606 
L 413.737979 92.781937 
L 418.267983 101.041522 
L 422.797987 88.292018 
L 427.327992 89.314824 
L 431.857996 88.121808 
L 436.388 90.804494 
L 440.918004 113.70834 
L 445.448008 106.292441 
L 449.978013 111.477145 
L 454.508017 96.202643 
L 459.038021 112.367128 
L 463.568025 133.286561 
L 468.098029 126.853891 
L 472.628034 136.020943 
L 477.158038 137.825545 
L 481.688042 129.828672 
L 486.218046 112.510409 
L 490.74805 128.953115 
L 495.278055 115.459726 
L 499.808059 119.009773 
L 504.338063 110.92642 
L 508.868067 109.37724 
L 513.398071 118.362829 
L 517.928076 107.297567 
L 522.45808 108.382106 
" clip-path="url(#p9115e22835)" style="fill: none; stroke: #023eff; stroke-width: 2; stroke-linecap: round"/>
   </g>
   <g id="line2d_16">
    <path d="M 65.14 88.982278 
L 529.2 88.982278 
" clip-path="url(#p9115e22835)" style="fill: none; stroke-dasharray: 1.25,2.0625; stroke-dashoffset: 0; stroke: #000000; stroke-opacity: 0.6; stroke-width: 1.25"/>
   </g>
   <g id="patch_3">
    <path d="M 65.14 328.52 
L 65.14 46.08 
" style="fill: none; stroke: #ffffff; stroke-width: 0.8; stroke-linejoin: miter; stroke-linecap: square"/>
   </g>
   <g id="patch_4">
    <path d="M 529.2 328.52 
L 529.2 46.08 
" style="fill: none; stroke: #ffffff; stroke-width: 0.8; stroke-linejoin: miter; stroke-linecap: square"/>
   </g>
   <g id="patch_5">
    <path d="M 65.14 328.52 
L 529.2 328.52 
" style="fill: none; stroke: #ffffff; stroke-width: 0.8; stroke-linejoin: miter; stroke-linecap: square"/>
   </g>
   <g id="patch_6">
    <path d="M 65.14 46.08 
L 529.2 46.08 
" style="fill: none; stroke: #ffffff; stroke-width: 0.8; stroke-linejoin: miter; stroke-linecap: square"/>
   </g>
  </g>
  <g id="text_9">
   <!-- CMU-Net | APM -->
   <g style="fill: #262626" transform="translate(167.84625 25.54125) scale(0.24 -0.24)">
    <defs>
     <path id="DejaVuSans-Bold-43" d="M 4288 256 
Q 3956 84 3597 -3 
Q 3238 -91 2847 -91 
Q 1681 -91 1000 561 
Q 319 1213 319 2328 
Q 319 3447 1000 4098 
Q 1681 4750 2847 4750 
Q 3238 4750 3597 4662 
Q 3956 4575 4288 4403 
L 4288 3438 
Q 3953 3666 3628 3772 
Q 3303 3878 2944 3878 
Q 2300 3878 1931 3465 
Q 1563 3053 1563 2328 
Q 1563 1606 1931 1193 
Q 2300 781 2944 781 
Q 3303 781 3628 887 
Q 3953 994 4288 1222 
L 4288 256 
z
" transform="scale(0.015625)"/>
     <path id="DejaVuSans-Bold-4d" d="M 588 4666 
L 2119 4666 
L 3181 2169 
L 4250 4666 
L 5778 4666 
L 5778 0 
L 4641 0 
L 4641 3413 
L 3566 897 
L 2803 897 
L 1728 3413 
L 1728 0 
L 588 0 
L 588 4666 
z
" transform="scale(0.015625)"/>
     <path id="DejaVuSans-Bold-55" d="M 588 4666 
L 1791 4666 
L 1791 1869 
Q 1791 1291 1980 1042 
Q 2169 794 2597 794 
Q 3028 794 3217 1042 
Q 3406 1291 3406 1869 
L 3406 4666 
L 4609 4666 
L 4609 1869 
Q 4609 878 4112 393 
Q 3616 -91 2597 -91 
Q 1581 -91 1084 393 
Q 588 878 588 1869 
L 588 4666 
z
" transform="scale(0.015625)"/>
     <path id="DejaVuSans-Bold-2d" d="M 347 2297 
L 2309 2297 
L 2309 1388 
L 347 1388 
L 347 2297 
z
" transform="scale(0.015625)"/>
     <path id="DejaVuSans-Bold-4e" d="M 588 4666 
L 1931 4666 
L 3628 1466 
L 3628 4666 
L 4769 4666 
L 4769 0 
L 3425 0 
L 1728 3200 
L 1728 0 
L 588 0 
L 588 4666 
z
" transform="scale(0.015625)"/>
     <path id="DejaVuSans-Bold-65" d="M 4031 1759 
L 4031 1441 
L 1416 1441 
Q 1456 1047 1700 850 
Q 1944 653 2381 653 
Q 2734 653 3104 758 
Q 3475 863 3866 1075 
L 3866 213 
Q 3469 63 3072 -14 
Q 2675 -91 2278 -91 
Q 1328 -91 801 392 
Q 275 875 275 1747 
Q 275 2603 792 3093 
Q 1309 3584 2216 3584 
Q 3041 3584 3536 3087 
Q 4031 2591 4031 1759 
z
M 2881 2131 
Q 2881 2450 2695 2645 
Q 2509 2841 2209 2841 
Q 1884 2841 1681 2658 
Q 1478 2475 1428 2131 
L 2881 2131 
z
" transform="scale(0.015625)"/>
     <path id="DejaVuSans-Bold-74" d="M 1759 4494 
L 1759 3500 
L 2913 3500 
L 2913 2700 
L 1759 2700 
L 1759 1216 
Q 1759 972 1856 886 
Q 1953 800 2241 800 
L 2816 800 
L 2816 0 
L 1856 0 
Q 1194 0 917 276 
Q 641 553 641 1216 
L 641 2700 
L 84 2700 
L 84 3500 
L 641 3500 
L 641 4494 
L 1759 4494 
z
" transform="scale(0.015625)"/>
     <path id="DejaVuSans-Bold-20" transform="scale(0.015625)"/>
     <path id="DejaVuSans-Bold-7c" d="M 1522 4891 
L 1522 -1509 
L 813 -1509 
L 813 4891 
L 1522 4891 
z
" transform="scale(0.015625)"/>
     <path id="DejaVuSans-Bold-41" d="M 3419 850 
L 1538 850 
L 1241 0 
L 31 0 
L 1759 4666 
L 3194 4666 
L 4922 0 
L 3713 0 
L 3419 850 
z
M 1838 1716 
L 3116 1716 
L 2478 3572 
L 1838 1716 
z
" transform="scale(0.015625)"/>
     <path id="DejaVuSans-Bold-50" d="M 588 4666 
L 2584 4666 
Q 3475 4666 3951 4270 
Q 4428 3875 4428 3144 
Q 4428 2409 3951 2014 
Q 3475 1619 2584 1619 
L 1791 1619 
L 1791 0 
L 588 0 
L 588 4666 
z
M 1791 3794 
L 1791 2491 
L 2456 2491 
Q 2806 2491 2997 2661 
Q 3188 2831 3188 3144 
Q 3188 3456 2997 3625 
Q 2806 3794 2456 3794 
L 1791 3794 
z
" transform="scale(0.015625)"/>
    </defs>
    <use xlink:href="#DejaVuSans-Bold-43"/>
    <use xlink:href="#DejaVuSans-Bold-4d" transform="translate(73.388672 0)"/>
    <use xlink:href="#DejaVuSans-Bold-55" transform="translate(172.900391 0)"/>
    <use xlink:href="#DejaVuSans-Bold-2d" transform="translate(254.101562 0)"/>
    <use xlink:href="#DejaVuSans-Bold-4e" transform="translate(295.605469 0)"/>
    <use xlink:href="#DejaVuSans-Bold-65" transform="translate(379.296875 0)"/>
    <use xlink:href="#DejaVuSans-Bold-74" transform="translate(447.119141 0)"/>
    <use xlink:href="#DejaVuSans-Bold-20" transform="translate(494.921875 0)"/>
    <use xlink:href="#DejaVuSans-Bold-7c" transform="translate(529.736328 0)"/>
    <use xlink:href="#DejaVuSans-Bold-20" transform="translate(566.259766 0)"/>
    <use xlink:href="#DejaVuSans-Bold-41" transform="translate(601.074219 0)"/>
    <use xlink:href="#DejaVuSans-Bold-50" transform="translate(678.466797 0)"/>
    <use xlink:href="#DejaVuSans-Bold-4d" transform="translate(751.757812 0)"/>
   </g>
  </g>
 </g>
 <defs>
  <clipPath id="p9115e22835">
   <rect x="65.14" y="46.08" width="464.06" height="282.44"/>
  </clipPath>
 </defs>
</svg>
