<?xml version="1.0" encoding="utf-8" standalone="no"?>
<!DOCTYPE svg PUBLIC "-//W3C//DTD SVG 1.1//EN"
  "http://www.w3.org/Graphics/SVG/1.1/DTD/svg11.dtd">
<svg xmlns:xlink="http://www.w3.org/1999/xlink" width="540pt" height="360pt" viewBox="0 0 540 360" xmlns="http://www.w3.org/2000/svg" version="1.1">
 <metadata>
  <rdf:RDF xmlns:dc="http://purl.org/dc/elements/1.1/" xmlns:cc="http://creativecommons.org/ns#" xmlns:rdf="http://www.w3.org/1999/02/22-rdf-syntax-ns#">
   <cc:Work>
    <dc:type rdf:resource="http://purl.org/dc/dcmitype/StillImage"/>
    <dc:date>2025-08-04T02:53:04.517962</dc:date>
    <dc:format>image/svg+xml</dc:format>
    <dc:creator>
     <cc:Agent>
      <dc:title>Matplotlib v3.10.0, https://matplotlib.org/</dc:title>
     </cc:Agent>
    </dc:creator>
   </cc:Work>
  </rdf:RDF>
 </metadata>
 <defs>
  <style type="text/css">*{stroke-linejoin: round; stroke-linecap: butt}</style>
 </defs>
 <g id="figure_1">
  <g id="patch_1">
   <path d="M 0 360 
L 540 360 
L 540 0 
L 0 0 
z
" style="fill: #ffffff"/>
  </g>
  <g id="axes_1">
   <g id="patch_2">
    <path d="M 65.14 328.52 
L 529.2 328.52 
L 529.2 46.08 
L 65.14 46.08 
z
" style="fill: #eaeaf2"/>
   </g>
   <g id="matplotlib.axis_1">
    <g id="xtick_1">
     <g id="line2d_1">
      <path d="M 73.987664 328.52 
L 73.987664 46.08 
" clip-path="url(#p5a798ad650)" style="fill: none; stroke: #ffffff; stroke-width: 0.8; stroke-linecap: round"/>
     </g>
     <g id="text_1">
      <!-- 0 -->
      <g style="fill: #262626" transform="translate(69.533914 346.157812) scale(0.14 -0.14)">
       <defs>
        <path id="DejaVuSans-30" d="M 2034 4250 
Q 1547 4250 1301 3770 
Q 1056 3291 1056 2328 
Q 1056 1369 1301 889 
Q 1547 409 2034 409 
Q 2525 409 2770 889 
Q 3016 1369 3016 2328 
Q 3016 3291 2770 3770 
Q 2525 4250 2034 4250 
z
M 2034 4750 
Q 2819 4750 3233 4129 
Q 3647 3509 3647 2328 
Q 3647 1150 3233 529 
Q 2819 -91 2034 -91 
Q 1250 -91 836 529 
Q 422 1150 422 2328 
Q 422 3509 836 4129 
Q 1250 4750 2034 4750 
z
" transform="scale(0.015625)"/>
       </defs>
       <use xlink:href="#DejaVuSans-30"/>
      </g>
     </g>
    </g>
    <g id="xtick_2">
     <g id="line2d_2">
      <path d="M 516.370887 328.52 
L 516.370887 46.08 
" clip-path="url(#p5a798ad650)" style="fill: none; stroke: #ffffff; stroke-width: 0.8; stroke-linecap: round"/>
     </g>
     <g id="text_2">
      <!-- 2M -->
      <g style="fill: #262626" transform="translate(505.877449 346.157812) scale(0.14 -0.14)">
       <defs>
        <path id="DejaVuSans-32" d="M 1228 531 
L 3431 531 
L 3431 0 
L 469 0 
L 469 531 
Q 828 903 1448 1529 
Q 2069 2156 2228 2338 
Q 2531 2678 2651 2914 
Q 2772 3150 2772 3378 
Q 2772 3750 2511 3984 
Q 2250 4219 1831 4219 
Q 1534 4219 1204 4116 
Q 875 4013 500 3803 
L 500 4441 
Q 881 4594 1212 4672 
Q 1544 4750 1819 4750 
Q 2544 4750 2975 4387 
Q 3406 4025 3406 3419 
Q 3406 3131 3298 2873 
Q 3191 2616 2906 2266 
Q 2828 2175 2409 1742 
Q 1991 1309 1228 531 
z
" transform="scale(0.015625)"/>
        <path id="DejaVuSans-4d" d="M 628 4666 
L 1569 4666 
L 2759 1491 
L 3956 4666 
L 4897 4666 
L 4897 0 
L 4281 0 
L 4281 4097 
L 3078 897 
L 2444 897 
L 1241 4097 
L 1241 0 
L 628 0 
L 628 4666 
z
" transform="scale(0.015625)"/>
       </defs>
       <use xlink:href="#DejaVuSans-32"/>
       <use xlink:href="#DejaVuSans-4d" transform="translate(63.623047 0)"/>
      </g>
     </g>
    </g>
   </g>
   <g id="matplotlib.axis_2">
    <g id="ytick_1">
     <g id="line2d_3">
      <path d="M 65.14 321.36962 
L 529.2 321.36962 
" clip-path="url(#p5a798ad650)" style="fill: none; stroke: #ffffff; stroke-width: 0.8; stroke-linecap: round"/>
     </g>
     <g id="text_3">
      <!-- −1500 -->
      <g style="fill: #262626" transform="translate(10.778437 326.688527) scale(0.14 -0.14)">
       <defs>
        <path id="DejaVuSans-2212" d="M 678 2272 
L 4684 2272 
L 4684 1741 
L 678 1741 
L 678 2272 
z
" transform="scale(0.015625)"/>
        <path id="DejaVuSans-31" d="M 794 531 
L 1825 531 
L 1825 4091 
L 703 3866 
L 703 4441 
L 1819 4666 
L 2450 4666 
L 2450 531 
L 3481 531 
L 3481 0 
L 794 0 
L 794 531 
z
" transform="scale(0.015625)"/>
        <path id="DejaVuSans-35" d="M 691 4666 
L 3169 4666 
L 3169 4134 
L 1269 4134 
L 1269 2991 
Q 1406 3038 1543 3061 
Q 1681 3084 1819 3084 
Q 2600 3084 3056 2656 
Q 3513 2228 3513 1497 
Q 3513 744 3044 326 
Q 2575 -91 1722 -91 
Q 1428 -91 1123 -41 
Q 819 9 494 109 
L 494 744 
Q 775 591 1075 516 
Q 1375 441 1709 441 
Q 2250 441 2565 725 
Q 2881 1009 2881 1497 
Q 2881 1984 2565 2268 
Q 2250 2553 1709 2553 
Q 1456 2553 1204 2497 
Q 953 2441 691 2322 
L 691 4666 
z
" transform="scale(0.015625)"/>
       </defs>
       <use xlink:href="#DejaVuSans-2212"/>
       <use xlink:href="#DejaVuSans-31" transform="translate(83.789062 0)"/>
       <use xlink:href="#DejaVuSans-35" transform="translate(147.412109 0)"/>
       <use xlink:href="#DejaVuSans-30" transform="translate(211.035156 0)"/>
       <use xlink:href="#DejaVuSans-30" transform="translate(274.658203 0)"/>
      </g>
     </g>
    </g>
    <g id="ytick_2">
     <g id="line2d_4">
      <path d="M 65.14 267.741772 
L 529.2 267.741772 
" clip-path="url(#p5a798ad650)" style="fill: none; stroke: #ffffff; stroke-width: 0.8; stroke-linecap: round"/>
     </g>
     <g id="text_4">
      <!-- −1200 -->
      <g style="fill: #262626" transform="translate(10.778437 273.060678) scale(0.14 -0.14)">
       <use xlink:href="#DejaVuSans-2212"/>
       <use xlink:href="#DejaVuSans-31" transform="translate(83.789062 0)"/>
       <use xlink:href="#DejaVuSans-32" transform="translate(147.412109 0)"/>
       <use xlink:href="#DejaVuSans-30" transform="translate(211.035156 0)"/>
       <use xlink:href="#DejaVuSans-30" transform="translate(274.658203 0)"/>
      </g>
     </g>
    </g>
    <g id="ytick_3">
     <g id="line2d_5">
      <path d="M 65.14 214.113924 
L 529.2 214.113924 
" clip-path="url(#p5a798ad650)" style="fill: none; stroke: #ffffff; stroke-width: 0.8; stroke-linecap: round"/>
     </g>
     <g id="text_5">
      <!-- −900 -->
      <g style="fill: #262626" transform="translate(19.685937 219.43283) scale(0.14 -0.14)">
       <defs>
        <path id="DejaVuSans-39" d="M 703 97 
L 703 672 
Q 941 559 1184 500 
Q 1428 441 1663 441 
Q 2288 441 2617 861 
Q 2947 1281 2994 2138 
Q 2813 1869 2534 1725 
Q 2256 1581 1919 1581 
Q 1219 1581 811 2004 
Q 403 2428 403 3163 
Q 403 3881 828 4315 
Q 1253 4750 1959 4750 
Q 2769 4750 3195 4129 
Q 3622 3509 3622 2328 
Q 3622 1225 3098 567 
Q 2575 -91 1691 -91 
Q 1453 -91 1209 -44 
Q 966 3 703 97 
z
M 1959 2075 
Q 2384 2075 2632 2365 
Q 2881 2656 2881 3163 
Q 2881 3666 2632 3958 
Q 2384 4250 1959 4250 
Q 1534 4250 1286 3958 
Q 1038 3666 1038 3163 
Q 1038 2656 1286 2365 
Q 1534 2075 1959 2075 
z
" transform="scale(0.015625)"/>
       </defs>
       <use xlink:href="#DejaVuSans-2212"/>
       <use xlink:href="#DejaVuSans-39" transform="translate(83.789062 0)"/>
       <use xlink:href="#DejaVuSans-30" transform="translate(147.412109 0)"/>
       <use xlink:href="#DejaVuSans-30" transform="translate(211.035156 0)"/>
      </g>
     </g>
    </g>
    <g id="ytick_4">
     <g id="line2d_6">
      <path d="M 65.14 160.486076 
L 529.2 160.486076 
" clip-path="url(#p5a798ad650)" style="fill: none; stroke: #ffffff; stroke-width: 0.8; stroke-linecap: round"/>
     </g>
     <g id="text_6">
      <!-- −600 -->
      <g style="fill: #262626" transform="translate(19.685937 165.804982) scale(0.14 -0.14)">
       <defs>
        <path id="DejaVuSans-36" d="M 2113 2584 
Q 1688 2584 1439 2293 
Q 1191 2003 1191 1497 
Q 1191 994 1439 701 
Q 1688 409 2113 409 
Q 2538 409 2786 701 
Q 3034 994 3034 1497 
Q 3034 2003 2786 2293 
Q 2538 2584 2113 2584 
z
M 3366 4563 
L 3366 3988 
Q 3128 4100 2886 4159 
Q 2644 4219 2406 4219 
Q 1781 4219 1451 3797 
Q 1122 3375 1075 2522 
Q 1259 2794 1537 2939 
Q 1816 3084 2150 3084 
Q 2853 3084 3261 2657 
Q 3669 2231 3669 1497 
Q 3669 778 3244 343 
Q 2819 -91 2113 -91 
Q 1303 -91 875 529 
Q 447 1150 447 2328 
Q 447 3434 972 4092 
Q 1497 4750 2381 4750 
Q 2619 4750 2861 4703 
Q 3103 4656 3366 4563 
z
" transform="scale(0.015625)"/>
       </defs>
       <use xlink:href="#DejaVuSans-2212"/>
       <use xlink:href="#DejaVuSans-36" transform="translate(83.789062 0)"/>
       <use xlink:href="#DejaVuSans-30" transform="translate(147.412109 0)"/>
       <use xlink:href="#DejaVuSans-30" transform="translate(211.035156 0)"/>
      </g>
     </g>
    </g>
    <g id="ytick_5">
     <g id="line2d_7">
      <path d="M 65.14 106.858228 
L 529.2 106.858228 
" clip-path="url(#p5a798ad650)" style="fill: none; stroke: #ffffff; stroke-width: 0.8; stroke-linecap: round"/>
     </g>
     <g id="text_7">
      <!-- −300 -->
      <g style="fill: #262626" transform="translate(19.685937 112.177134) scale(0.14 -0.14)">
       <defs>
        <path id="DejaVuSans-33" d="M 2597 2516 
Q 3050 2419 3304 2112 
Q 3559 1806 3559 1356 
Q 3559 666 3084 287 
Q 2609 -91 1734 -91 
Q 1441 -91 1130 -33 
Q 819 25 488 141 
L 488 750 
Q 750 597 1062 519 
Q 1375 441 1716 441 
Q 2309 441 2620 675 
Q 2931 909 2931 1356 
Q 2931 1769 2642 2001 
Q 2353 2234 1838 2234 
L 1294 2234 
L 1294 2753 
L 1863 2753 
Q 2328 2753 2575 2939 
Q 2822 3125 2822 3475 
Q 2822 3834 2567 4026 
Q 2313 4219 1838 4219 
Q 1578 4219 1281 4162 
Q 984 4106 628 3988 
L 628 4550 
Q 988 4650 1302 4700 
Q 1616 4750 1894 4750 
Q 2613 4750 3031 4423 
Q 3450 4097 3450 3541 
Q 3450 3153 3228 2886 
Q 3006 2619 2597 2516 
z
" transform="scale(0.015625)"/>
       </defs>
       <use xlink:href="#DejaVuSans-2212"/>
       <use xlink:href="#DejaVuSans-33" transform="translate(83.789062 0)"/>
       <use xlink:href="#DejaVuSans-30" transform="translate(147.412109 0)"/>
       <use xlink:href="#DejaVuSans-30" transform="translate(211.035156 0)"/>
      </g>
     </g>
    </g>
    <g id="ytick_6">
     <g id="line2d_8">
      <path d="M 65.14 53.23038 
L 529.2 53.23038 
" clip-path="url(#p5a798ad650)" style="fill: none; stroke: #ffffff; stroke-width: 0.8; stroke-linecap: round"/>
     </g>
     <g id="text_8">
      <!-- 0 -->
      <g style="fill: #262626" transform="translate(49.2325 58.549286) scale(0.14 -0.14)">
       <use xlink:href="#DejaVuSans-30"/>
      </g>
     </g>
    </g>
   </g>
   <g id="FillBetweenPolyCollection_1">
    <path d="M 73.987664 268.042124 
L 73.987664 277.511229 
L 78.517669 275.278673 
L 83.047673 277.651195 
L 87.577677 265.44528 
L 92.107681 259.357166 
L 96.637685 252.74712 
L 101.16769 240.535526 
L 105.697694 231.353651 
L 110.227698 229.881713 
L 114.757702 236.603719 
L 119.287706 217.745578 
L 123.817711 218.857259 
L 128.347715 209.84003 
L 132.877719 214.324604 
L 137.407723 204.781965 
L 141.937727 217.212803 
L 146.467732 210.350411 
L 150.997736 214.712378 
L 155.52774 210.849063 
L 160.057744 213.20833 
L 164.587748 210.921631 
L 169.117753 210.535265 
L 173.647757 195.582147 
L 178.177761 187.996679 
L 182.707765 206.418493 
L 187.237769 190.170389 
L 191.767773 188.06984 
L 196.297778 204.731947 
L 200.827782 185.240306 
L 205.357786 148.915794 
L 209.88779 150.80567 
L 214.417794 141.177709 
L 218.947799 167.282373 
L 223.477803 160.519846 
L 228.007807 181.240473 
L 232.537811 177.171046 
L 237.067815 146.527205 
L 241.59782 152.891743 
L 246.127824 170.874462 
L 250.657828 148.449913 
L 255.187832 148.465816 
L 259.717836 164.660675 
L 264.247841 177.839545 
L 268.777845 187.228566 
L 273.307849 228.382071 
L 277.837853 213.292653 
L 282.367857 207.421729 
L 286.897862 216.56126 
L 291.427866 220.747808 
L 295.95787 206.526662 
L 300.487874 248.290907 
L 305.017878 221.520492 
L 309.547883 232.296685 
L 314.077887 224.634329 
L 318.607891 210.849992 
L 323.137895 210.033955 
L 327.667899 219.1287 
L 332.197904 217.679961 
L 336.727908 215.085365 
L 341.257912 207.794087 
L 345.787916 206.7887 
L 350.31792 223.859111 
L 354.847924 213.254326 
L 359.377929 209.250354 
L 363.907933 203.483541 
L 368.437937 208.775799 
L 372.967941 225.518839 
L 377.497945 212.871755 
L 382.02795 204.244961 
L 386.557954 204.507713 
L 391.087958 221.605584 
L 395.617962 220.907027 
L 400.147966 211.153177 
L 404.677971 201.680457 
L 409.207975 187.284978 
L 413.737979 217.424765 
L 418.267983 198.418895 
L 422.797987 180.725814 
L 427.327992 180.593017 
L 431.857996 160.522239 
L 436.388 166.401601 
L 440.918004 178.710987 
L 445.448008 163.876165 
L 449.978013 163.828052 
L 454.508017 140.532862 
L 459.038021 147.233932 
L 463.568025 141.206435 
L 468.098029 136.89822 
L 472.628034 132.925104 
L 477.158038 157.594726 
L 481.688042 145.796725 
L 486.218046 127.866852 
L 490.74805 132.877595 
L 495.278055 131.295295 
L 499.808059 130.004861 
L 504.338063 112.345615 
L 508.868067 118.03019 
L 513.398071 119.651309 
L 517.928076 112.520637 
L 522.45808 177.291867 
L 522.45808 74.095176 
L 522.45808 74.095176 
L 517.928076 93.406483 
L 513.398071 90.456608 
L 508.868067 93.425523 
L 504.338063 88.69258 
L 499.808059 88.885035 
L 495.278055 90.897167 
L 490.74805 91.559852 
L 486.218046 94.193721 
L 481.688042 96.937237 
L 477.158038 100.960294 
L 472.628034 90.435294 
L 468.098029 87.146111 
L 463.568025 92.653389 
L 459.038021 98.734497 
L 454.508017 98.99285 
L 449.978013 101.226821 
L 445.448008 97.974834 
L 440.918004 95.59277 
L 436.388 100.148904 
L 431.857996 97.520694 
L 427.327992 90.659352 
L 422.797987 104.292033 
L 418.267983 104.046038 
L 413.737979 98.172825 
L 409.207975 107.250019 
L 404.677971 114.825304 
L 400.147966 112.626693 
L 395.617962 118.291631 
L 391.087958 111.077653 
L 386.557954 115.204239 
L 382.02795 120.565537 
L 377.497945 115.950808 
L 372.967941 133.680201 
L 368.437937 129.503779 
L 363.907933 128.836975 
L 359.377929 152.809464 
L 354.847924 153.292249 
L 350.31792 136.520679 
L 345.787916 111.50564 
L 341.257912 114.976608 
L 336.727908 120.08677 
L 332.197904 110.009003 
L 327.667899 140.002824 
L 323.137895 143.714871 
L 318.607891 144.775725 
L 314.077887 109.679178 
L 309.547883 155.942762 
L 305.017878 149.46608 
L 300.487874 136.510592 
L 295.95787 113.333478 
L 291.427866 108.413059 
L 286.897862 130.497682 
L 282.367857 133.133612 
L 277.837853 136.932404 
L 273.307849 138.008531 
L 268.777845 98.872484 
L 264.247841 94.879734 
L 259.717836 143.120651 
L 255.187832 95.278015 
L 250.657828 107.816597 
L 246.127824 119.309017 
L 241.59782 112.047403 
L 237.067815 108.980872 
L 232.537811 121.135177 
L 228.007807 122.306438 
L 223.477803 123.201642 
L 218.947799 93.358269 
L 214.417794 119.986792 
L 209.88779 108.157056 
L 205.357786 123.444083 
L 200.827782 126.693168 
L 196.297778 131.91172 
L 191.767773 124.327435 
L 187.237769 131.188775 
L 182.707765 135.270652 
L 178.177761 136.944423 
L 173.647757 115.098849 
L 169.117753 136.091005 
L 164.587748 134.704674 
L 160.057744 103.025959 
L 155.52774 122.338763 
L 150.997736 123.834745 
L 146.467732 133.281969 
L 141.937727 156.693281 
L 137.407723 152.37015 
L 132.877719 168.716961 
L 128.347715 179.816341 
L 123.817711 185.656465 
L 119.287706 199.281692 
L 114.757702 205.440863 
L 110.227698 199.683405 
L 105.697694 217.000531 
L 101.16769 219.923539 
L 96.637685 234.33831 
L 92.107681 239.843888 
L 87.577677 244.664452 
L 83.047673 253.189217 
L 78.517669 259.841852 
L 73.987664 268.042124 
z
" clip-path="url(#p5a798ad650)" style="fill: #023eff; fill-opacity: 0.1"/>
   </g>
   <g id="line2d_9">
    <path d="M 73.987664 274.840142 
L 78.517669 282.457294 
L 83.047673 246.104734 
L 87.577677 244.292158 
L 92.107681 238.095392 
L 96.637685 235.396553 
L 101.16769 222.235931 
L 105.697694 222.756293 
L 110.227698 192.215818 
L 114.757702 199.46477 
L 119.287706 192.152478 
L 123.817711 177.644798 
L 128.347715 168.854004 
L 132.877719 162.073211 
L 137.407723 148.336484 
L 141.937727 151.023101 
L 146.467732 131.234863 
L 150.997736 113.00204 
L 155.52774 134.004855 
L 160.057744 102.921827 
L 164.587748 132.612139 
L 169.117753 128.096864 
L 173.647757 107.771076 
L 178.177761 129.255353 
L 182.707765 142.955001 
L 187.237769 143.308639 
L 191.767773 157.754418 
L 196.297778 213.277621 
L 200.827782 157.89878 
L 205.357786 140.037523 
L 209.88779 167.207135 
L 214.417794 137.606238 
L 218.947799 90.588548 
L 223.477803 118.745792 
L 228.007807 142.239447 
L 232.537811 141.031953 
L 237.067815 156.797541 
L 241.59782 105.891107 
L 246.127824 122.039898 
L 250.657828 119.80991 
L 255.187832 114.903726 
L 259.717836 138.902838 
L 264.247841 112.32052 
L 268.777845 161.540554 
L 273.307849 173.560282 
L 277.837853 171.216324 
L 282.367857 153.971062 
L 286.897862 139.722094 
L 291.427866 169.942825 
L 295.95787 164.265414 
L 300.487874 144.775719 
L 305.017878 157.183843 
L 309.547883 164.305195 
L 314.077887 156.878235 
L 318.607891 184.487414 
L 323.137895 162.493517 
L 327.667899 185.587337 
L 332.197904 160.170219 
L 336.727908 169.412574 
L 341.257912 159.540269 
L 345.787916 140.733305 
L 350.31792 165.701751 
L 354.847924 155.313159 
L 359.377929 178.429317 
L 363.907933 159.957326 
L 368.437937 187.315822 
L 372.967941 229.50105 
L 377.497945 203.594325 
L 382.02795 166.697823 
L 386.557954 195.531684 
L 391.087958 191.170485 
L 395.617962 177.150171 
L 400.147966 133.629174 
L 404.677971 162.303383 
L 409.207975 144.064138 
L 413.737979 165.582604 
L 418.267983 136.256986 
L 422.797987 144.507402 
L 427.327992 139.960338 
L 431.857996 112.313392 
L 436.388 124.006487 
L 440.918004 126.765534 
L 445.448008 115.705305 
L 449.978013 116.292094 
L 454.508017 119.821796 
L 459.038021 115.240641 
L 463.568025 114.743193 
L 468.098029 103.129251 
L 472.628034 110.74578 
L 477.158038 153.603427 
L 481.688042 135.848987 
L 486.218046 115.727256 
L 490.74805 105.706469 
L 495.278055 115.487499 
L 499.808059 107.326409 
L 504.338063 110.648492 
L 508.868067 109.462864 
L 513.398071 99.678909 
L 517.928076 100.351773 
L 522.45808 99.542875 
" clip-path="url(#p5a798ad650)" style="fill: none; stroke: #1ac938; stroke-opacity: 0.27; stroke-width: 1.25; stroke-linecap: round"/>
   </g>
   <g id="line2d_10">
    <path d="M 73.987664 273.467476 
L 78.517669 266.832415 
L 83.047673 282.567838 
L 87.577677 271.96418 
L 92.107681 252.821127 
L 96.637685 239.858716 
L 101.16769 232.696335 
L 105.697694 228.708993 
L 110.227698 228.133823 
L 114.757702 241.560884 
L 119.287706 213.814636 
L 123.817711 219.600503 
L 128.347715 214.619346 
L 132.877719 218.911657 
L 137.407723 205.301069 
L 141.937727 231.304895 
L 146.467732 204.488147 
L 150.997736 231.137462 
L 155.52774 221.957728 
L 160.057744 237.668033 
L 164.587748 224.170828 
L 169.117753 198.720519 
L 173.647757 206.059361 
L 178.177761 188.481639 
L 182.707765 208.680519 
L 187.237769 197.835804 
L 191.767773 198.055158 
L 196.297778 199.977092 
L 200.827782 196.940352 
L 205.357786 143.552957 
L 209.88779 134.745054 
L 214.417794 137.069753 
L 218.947799 123.77114 
L 223.477803 133.960359 
L 228.007807 125.971161 
L 232.537811 171.26849 
L 237.067815 112.116829 
L 241.59782 123.888964 
L 246.127824 117.875029 
L 250.657828 128.334692 
L 255.187832 112.945586 
L 259.717836 145.428129 
L 264.247841 215.380098 
L 268.777845 215.44046 
L 273.307849 202.166212 
L 277.837853 213.016856 
L 282.367857 213.546027 
L 286.897862 189.588575 
L 291.427866 201.305662 
L 295.95787 168.184318 
L 300.487874 188.770361 
L 305.017878 160.132899 
L 309.547883 166.202694 
L 314.077887 118.902492 
L 318.607891 147.872244 
L 323.137895 127.981623 
L 327.667899 124.668901 
L 332.197904 112.825282 
L 336.727908 119.22876 
L 341.257912 125.347133 
L 345.787916 121.690458 
L 350.31792 118.160482 
L 354.847924 156.357118 
L 359.377929 128.867293 
L 363.907933 127.971495 
L 368.437937 120.701521 
L 372.967941 103.991169 
L 377.497945 92.49555 
L 382.02795 96.370779 
L 386.557954 93.859564 
L 391.087958 89.028046 
L 395.617962 104.398505 
L 400.147966 104.505635 
L 404.677971 105.156815 
L 409.207975 96.307784 
L 413.737979 85.094851 
L 418.267983 91.161337 
L 422.797987 96.580943 
L 427.327992 85.053625 
L 431.857996 97.331784 
L 436.388 85.13064 
L 440.918004 88.609846 
L 445.448008 88.108309 
L 449.978013 90.35792 
L 454.508017 95.471035 
L 459.038021 91.630524 
L 463.568025 91.319261 
L 468.098029 85.574847 
L 472.628034 83.945814 
L 477.158038 83.757908 
L 481.688042 85.926639 
L 486.218046 87.340636 
L 490.74805 80.123694 
L 495.278055 80.801291 
L 499.808059 79.0095 
L 504.338063 84.096509 
L 508.868067 89.131857 
L 513.398071 84.260777 
L 517.928076 85.625871 
L 522.45808 85.265048 
" clip-path="url(#p5a798ad650)" style="fill: none; stroke: #1ac938; stroke-opacity: 0.27; stroke-width: 1.25; stroke-linecap: round"/>
   </g>
   <g id="line2d_11">
    <path d="M 73.987664 278.497161 
L 78.517669 265.162299 
L 83.047673 260.909212 
L 87.577677 244.597867 
L 92.107681 245.912721 
L 96.637685 233.89071 
L 101.16769 215.483124 
L 105.697694 218.893179 
L 110.227698 203.197172 
L 114.757702 210.868464 
L 119.287706 204.540455 
L 123.817711 188.436198 
L 128.347715 197.448653 
L 132.877719 169.097913 
L 137.407723 150.560818 
L 141.937727 157.547593 
L 146.467732 131.15061 
L 150.997736 124.303265 
L 155.52774 129.597515 
L 160.057744 148.395684 
L 164.587748 161.99852 
L 169.117753 178.06503 
L 173.647757 142.690994 
L 178.177761 162.063987 
L 182.707765 148.195085 
L 187.237769 159.7471 
L 191.767773 156.521247 
L 196.297778 159.874833 
L 200.827782 132.414364 
L 205.357786 119.825901 
L 209.88779 120.213807 
L 214.417794 111.234182 
L 218.947799 200.48997 
L 223.477803 128.76978 
L 228.007807 150.719462 
L 232.537811 111.267804 
L 237.067815 137.83735 
L 241.59782 163.294253 
L 246.127824 176.210981 
L 250.657828 130.471447 
L 255.187832 161.592342 
L 259.717836 155.503449 
L 264.247841 129.432268 
L 268.777845 142.817105 
L 273.307849 131.33372 
L 277.837853 135.521943 
L 282.367857 115.800953 
L 286.897862 169.403776 
L 291.427866 118.060699 
L 295.95787 158.358766 
L 300.487874 122.957686 
L 305.017878 152.078896 
L 309.547883 166.866791 
L 314.077887 94.839947 
L 318.607891 132.856404 
L 323.137895 165.860977 
L 327.667899 146.887627 
L 332.197904 100.233412 
L 336.727908 109.091929 
L 341.257912 98.483378 
L 345.787916 102.45725 
L 350.31792 157.793606 
L 354.847924 166.520636 
L 359.377929 187.008056 
L 363.907933 124.435861 
L 368.437937 125.232209 
L 372.967941 150.682249 
L 377.497945 119.478982 
L 382.02795 137.546448 
L 386.557954 118.249767 
L 391.087958 114.05792 
L 395.617962 122.667395 
L 400.147966 134.723336 
L 404.677971 120.169765 
L 409.207975 111.776241 
L 413.737979 99.057492 
L 418.267983 117.948549 
L 422.797987 102.10054 
L 427.327992 84.231625 
L 431.857996 104.03443 
L 436.388 116.23876 
L 440.918004 112.496211 
L 445.448008 111.834065 
L 449.978013 118.1358 
L 454.508017 99.922915 
L 459.038021 106.6326 
L 463.568025 89.493872 
L 468.098029 88.627541 
L 472.628034 105.173954 
L 477.158038 108.110874 
L 481.688042 98.431286 
L 486.218046 96.504433 
L 490.74805 106.01114 
L 495.278055 105.646086 
L 499.808059 100.333501 
L 504.338063 98.946136 
L 508.868067 103.86644 
L 513.398071 97.968384 
L 517.928076 106.90581 
L 522.45808 106.274727 
" clip-path="url(#p5a798ad650)" style="fill: none; stroke: #1ac938; stroke-opacity: 0.27; stroke-width: 1.25; stroke-linecap: round"/>
   </g>
   <g id="line2d_12">
    <path d="M 73.987664 272.938744 
L 78.517669 262.11451 
L 83.047673 273.130216 
L 87.577677 260.324882 
L 92.107681 266.72113 
L 96.637685 257.42789 
L 101.16769 235.999978 
L 105.697694 215.147221 
L 110.227698 218.046846 
L 114.757702 217.613434 
L 119.287706 216.916021 
L 123.817711 207.419734 
L 128.347715 191.750629 
L 132.877719 194.267353 
L 137.407723 178.167338 
L 141.937727 186.596232 
L 146.467732 165.471347 
L 150.997736 172.650466 
L 155.52774 127.903359 
L 160.057744 97.891011 
L 164.587748 134.625474 
L 169.117753 135.556692 
L 173.647757 120.997288 
L 178.177761 139.359691 
L 182.707765 135.217276 
L 187.237769 115.985489 
L 191.767773 99.921855 
L 196.297778 109.634087 
L 200.827782 115.792961 
L 205.357786 123.556327 
L 209.88779 103.449287 
L 214.417794 127.234998 
L 218.947799 117.959811 
L 223.477803 164.05006 
L 228.007807 208.189227 
L 232.537811 189.815301 
L 237.067815 128.186215 
L 241.59782 147.784567 
L 246.127824 133.454936 
L 250.657828 162.428309 
L 255.187832 137.765377 
L 259.717836 169.428731 
L 264.247841 129.335892 
L 268.777845 103.552212 
L 273.307849 259.967835 
L 277.837853 224.021516 
L 282.367857 210.625565 
L 286.897862 246.117019 
L 291.427866 244.970861 
L 295.95787 227.585514 
L 300.487874 277.557491 
L 305.017878 237.308002 
L 309.547883 261.763818 
L 314.077887 244.699905 
L 318.607891 221.090148 
L 323.137895 217.170518 
L 327.667899 234.178384 
L 332.197904 243.374258 
L 336.727908 221.209312 
L 341.257912 226.461403 
L 345.787916 210.050551 
L 350.31792 236.122907 
L 354.847924 227.515682 
L 359.377929 209.199779 
L 363.907933 212.329844 
L 368.437937 222.035706 
L 372.967941 204.907878 
L 377.497945 203.427266 
L 382.02795 207.441937 
L 386.557954 192.443888 
L 391.087958 233.806835 
L 395.617962 246.21046 
L 400.147966 239.991932 
L 404.677971 227.780137 
L 409.207975 199.881201 
L 413.737979 245.448252 
L 418.267983 218.133882 
L 422.797987 184.7177 
L 427.327992 192.386624 
L 431.857996 152.277315 
L 436.388 173.765714 
L 440.918004 211.119545 
L 445.448008 165.96461 
L 449.978013 168.879981 
L 454.508017 131.748405 
L 459.038021 143.905613 
L 463.568025 142.551689 
L 468.098029 146.045008 
L 472.628034 108.949168 
L 477.158038 150.061193 
L 481.688042 147.117058 
L 486.218046 122.251412 
L 490.74805 131.566391 
L 495.278055 109.718678 
L 499.808059 119.513775 
L 504.338063 92.335778 
L 508.868067 99.756392 
L 513.398071 122.4063 
L 517.928076 109.291652 
L 522.45808 227.508795 
" clip-path="url(#p5a798ad650)" style="fill: none; stroke: #1ac938; stroke-opacity: 0.27; stroke-width: 1.25; stroke-linecap: round"/>
   </g>
   <g id="line2d_13">
    <path d="M 73.987664 264.139859 
L 78.517669 261.234796 
L 83.047673 264.38903 
L 87.577677 254.095243 
L 92.107681 244.452264 
L 96.637685 251.139707 
L 101.16769 244.732296 
L 105.697694 235.379768 
L 110.227698 232.319134 
L 114.757702 235.603903 
L 119.287706 215.144586 
L 123.817711 218.183077 
L 128.347715 201.468296 
L 132.877719 213.253778 
L 137.407723 210.514579 
L 141.937727 208.293389 
L 146.467732 226.735982 
L 150.997736 205.274574 
L 155.52774 219.506107 
L 160.057744 203.709168 
L 164.587748 210.658802 
L 169.117753 226.12657 
L 173.647757 199.183772 
L 178.177761 193.192087 
L 182.707765 219.174982 
L 187.237769 186.520877 
L 191.767773 168.74051 
L 196.297778 158.845532 
L 200.827782 176.787228 
L 205.357786 153.926984 
L 209.88779 121.791535 
L 214.417794 139.766083 
L 218.947799 118.792134 
L 223.477803 163.77773 
L 228.007807 131.747979 
L 232.537811 132.382008 
L 237.067815 103.832257 
L 241.59782 121.488976 
L 246.127824 175.877852 
L 250.657828 99.621916 
L 255.187832 82.152547 
L 259.717836 160.190167 
L 264.247841 95.329418 
L 268.777845 91.902294 
L 273.307849 148.948456 
L 277.837853 131.786005 
L 282.367857 157.444748 
L 286.897862 122.81589 
L 291.427866 88.62212 
L 295.95787 81.256339 
L 300.487874 227.942492 
L 305.017878 220.762789 
L 309.547883 211.46012 
L 314.077887 220.463188 
L 318.607891 202.758082 
L 323.137895 210.865429 
L 327.667899 206.506562 
L 332.197904 202.619236 
L 336.727908 218.987764 
L 341.257912 197.094555 
L 345.787916 220.804287 
L 350.31792 223.170728 
L 354.847924 210.659845 
L 359.377929 201.6451 
L 363.907933 206.106764 
L 368.437937 190.413687 
L 372.967941 208.915254 
L 377.497945 203.060286 
L 382.02795 203.969259 
L 386.557954 199.194976 
L 391.087958 203.644807 
L 395.617962 197.570115 
L 400.147966 196.599597 
L 404.677971 175.854303 
L 409.207975 184.308128 
L 413.737979 193.810775 
L 418.267983 192.661576 
L 422.797987 184.638035 
L 427.327992 176.498709 
L 431.857996 179.150412 
L 436.388 167.234661 
L 440.918004 146.768256 
L 445.448008 173.015208 
L 449.978013 168.971388 
L 454.508017 151.850129 
L 459.038021 157.511696 
L 463.568025 146.541546 
L 468.098029 136.73418 
L 472.628034 149.586279 
L 477.158038 150.854149 
L 481.688042 139.510934 
L 486.218046 133.327697 
L 490.74805 137.685921 
L 495.278055 143.827601 
L 499.808059 141.041557 
L 504.338063 116.568572 
L 508.868067 126.421728 
L 513.398071 120.955422 
L 517.928076 112.642693 
L 522.45808 109.876163 
" clip-path="url(#p5a798ad650)" style="fill: none; stroke: #1ac938; stroke-opacity: 0.27; stroke-width: 1.25; stroke-linecap: round"/>
   </g>
   <g id="line2d_14">
    <path d="M 73.987664 53.23038 
L 78.517669 55.633862 
L 83.047673 59.639535 
L 87.577677 64.050712 
L 92.107681 75.091074 
L 96.637685 91.254435 
L 101.16769 104.480319 
L 105.697694 116.895244 
L 110.227698 134.933666 
L 114.757702 156.382999 
L 119.287706 168.143306 
L 123.817711 179.932044 
L 128.347715 196.096873 
L 132.877719 217.294378 
L 137.407723 224.708992 
L 141.937727 247.354437 
L 146.467732 243.178411 
L 150.997736 245.902 
L 155.52774 235.303449 
L 160.057744 230.306044 
L 164.587748 241.844215 
L 169.117753 242.916892 
L 173.647757 232.535624 
L 178.177761 251.666024 
L 182.707765 252.779539 
L 187.237769 249.47928 
L 191.767773 245.71801 
L 196.297778 251.406909 
L 200.827782 243.404274 
L 205.357786 228.594318 
L 209.88779 231.792013 
L 214.417794 226.242889 
L 218.947799 222.989795 
L 223.477803 233.715205 
L 228.007807 232.7514 
L 232.537811 236.32989 
L 237.067815 222.821862 
L 241.59782 226.097741 
L 246.127824 229.844128 
L 250.657828 220.852111 
L 255.187832 212.972543 
L 259.717836 254.273753 
L 264.247841 246.784294 
L 268.777845 248.349985 
L 273.307849 319.753489 
L 277.837853 308.196306 
L 282.367857 297.130782 
L 286.897862 308.315095 
L 291.427866 299.976248 
L 295.95787 298.178316 
L 300.487874 316.632026 
L 305.017878 318.045149 
L 309.547883 321.36962 
L 314.077887 301.053606 
L 318.607891 304.051841 
L 323.137895 291.157322 
L 327.667899 300.020813 
L 332.197904 286.205493 
L 336.727908 284.763546 
L 341.257912 276.392531 
L 345.787916 273.361657 
L 350.31792 298.56433 
L 354.847924 303.622406 
L 359.377929 292.122207 
L 363.907933 276.808235 
L 368.437937 287.267909 
L 372.967941 298.138742 
L 377.497945 277.683318 
L 382.02795 282.969933 
L 386.557954 279.10425 
L 391.087958 288.803297 
L 395.617962 287.292995 
L 400.147966 279.071598 
L 404.677971 279.760286 
L 409.207975 271.869106 
L 413.737979 281.613591 
L 418.267983 287.156925 
L 422.797987 278.355489 
L 427.327992 276.242437 
L 431.857996 272.365682 
L 436.388 286.368255 
L 440.918004 288.647363 
L 445.448008 285.914106 
L 449.978013 281.058837 
L 454.508017 277.623613 
L 459.038021 280.126874 
L 463.568025 275.872928 
L 468.098029 275.96737 
L 472.628034 276.471369 
L 477.158038 282.10917 
L 481.688042 278.656554 
L 486.218046 274.404246 
L 490.74805 278.087297 
L 495.278055 274.124331 
L 499.808059 274.054109 
L 504.338063 263.268825 
L 508.868067 258.834973 
L 513.398071 258.464833 
L 517.928076 253.762459 
L 522.45808 285.681026 
" clip-path="url(#p5a798ad650)" style="fill: none; stroke: #8b2be2; stroke-width: 1.5; stroke-linecap: round"/>
   </g>
   <g id="line2d_15">
    <path d="M 73.987664 272.776676 
L 78.517669 267.560263 
L 83.047673 265.420206 
L 87.577677 255.054866 
L 92.107681 249.600527 
L 96.637685 243.542715 
L 101.16769 230.229533 
L 105.697694 224.177091 
L 110.227698 214.782559 
L 114.757702 221.022291 
L 119.287706 208.513635 
L 123.817711 202.256862 
L 128.347715 194.828186 
L 132.877719 191.520783 
L 137.407723 178.576058 
L 141.937727 186.953042 
L 146.467732 171.81619 
L 150.997736 169.273562 
L 155.52774 166.593913 
L 160.057744 158.117145 
L 164.587748 172.813153 
L 169.117753 173.313135 
L 173.647757 155.340498 
L 178.177761 162.470551 
L 182.707765 170.844572 
L 187.237769 160.679582 
L 191.767773 156.198638 
L 196.297778 168.321833 
L 200.827782 155.966737 
L 205.357786 136.179938 
L 209.88779 129.481363 
L 214.417794 130.582251 
L 218.947799 130.320321 
L 223.477803 141.860744 
L 228.007807 151.773455 
L 232.537811 149.153111 
L 237.067815 127.754038 
L 241.59782 132.469573 
L 246.127824 145.091739 
L 250.657828 128.133255 
L 255.187832 121.871915 
L 259.717836 153.890663 
L 264.247841 136.359639 
L 268.777845 143.050525 
L 273.307849 183.195301 
L 277.837853 175.112529 
L 282.367857 170.277671 
L 286.897862 173.529471 
L 291.427866 164.580433 
L 295.95787 159.93007 
L 300.487874 192.40075 
L 305.017878 185.493286 
L 309.547883 194.119724 
L 314.077887 167.156753 
L 318.607891 177.812858 
L 323.137895 176.874413 
L 327.667899 179.565762 
L 332.197904 163.844482 
L 336.727908 167.586068 
L 341.257912 161.385348 
L 345.787916 159.14717 
L 350.31792 180.189895 
L 354.847924 183.273288 
L 359.377929 181.029909 
L 363.907933 166.160258 
L 368.437937 169.139789 
L 372.967941 179.59952 
L 377.497945 164.411282 
L 382.02795 162.405249 
L 386.557954 159.855976 
L 391.087958 166.341619 
L 395.617962 169.599329 
L 400.147966 161.889935 
L 404.677971 158.25288 
L 409.207975 147.267498 
L 413.737979 157.798795 
L 418.267983 151.232466 
L 422.797987 142.508924 
L 427.327992 135.626184 
L 431.857996 129.021467 
L 436.388 133.275253 
L 440.918004 137.151878 
L 445.448008 130.925499 
L 449.978013 132.527437 
L 454.508017 119.762856 
L 459.038021 122.984215 
L 463.568025 116.929912 
L 468.098029 112.022165 
L 472.628034 111.680199 
L 477.158038 129.27751 
L 481.688042 121.366981 
L 486.218046 111.030287 
L 490.74805 112.218723 
L 495.278055 111.096231 
L 499.808059 109.444948 
L 504.338063 100.519097 
L 508.868067 105.727856 
L 513.398071 105.053958 
L 517.928076 102.96356 
L 522.45808 125.693522 
" clip-path="url(#p5a798ad650)" style="fill: none; stroke: #023eff; stroke-width: 2; stroke-linecap: round"/>
   </g>
   <g id="line2d_16">
    <path d="M 65.14 88.982278 
L 529.2 88.982278 
" clip-path="url(#p5a798ad650)" style="fill: none; stroke-dasharray: 1.25,2.0625; stroke-dashoffset: 0; stroke: #000000; stroke-opacity: 0.6; stroke-width: 1.25"/>
   </g>
   <g id="patch_3">
    <path d="M 65.14 328.52 
L 65.14 46.08 
" style="fill: none; stroke: #ffffff; stroke-width: 0.8; stroke-linejoin: miter; stroke-linecap: square"/>
   </g>
   <g id="patch_4">
    <path d="M 529.2 328.52 
L 529.2 46.08 
" style="fill: none; stroke: #ffffff; stroke-width: 0.8; stroke-linejoin: miter; stroke-linecap: square"/>
   </g>
   <g id="patch_5">
    <path d="M 65.14 328.52 
L 529.2 328.52 
" style="fill: none; stroke: #ffffff; stroke-width: 0.8; stroke-linejoin: miter; stroke-linecap: square"/>
   </g>
   <g id="patch_6">
    <path d="M 65.14 46.08 
L 529.2 46.08 
" style="fill: none; stroke: #ffffff; stroke-width: 0.8; stroke-linejoin: miter; stroke-linecap: square"/>
   </g>
  </g>
  <g id="text_9">
   <!-- GNN_K | Noise + Entropy -->
   <g style="fill: #262626" transform="translate(102.886875 25.54125) scale(0.24 -0.24)">
    <defs>
     <path id="DejaVuSans-Bold-47" d="M 4781 347 
Q 4331 128 3847 18 
Q 3363 -91 2847 -91 
Q 1681 -91 1000 561 
Q 319 1213 319 2328 
Q 319 3456 1012 4103 
Q 1706 4750 2913 4750 
Q 3378 4750 3804 4662 
Q 4231 4575 4609 4403 
L 4609 3438 
Q 4219 3659 3833 3768 
Q 3447 3878 3059 3878 
Q 2341 3878 1952 3476 
Q 1563 3075 1563 2328 
Q 1563 1588 1938 1184 
Q 2313 781 3003 781 
Q 3191 781 3352 804 
Q 3513 828 3641 878 
L 3641 1784 
L 2906 1784 
L 2906 2591 
L 4781 2591 
L 4781 347 
z
" transform="scale(0.015625)"/>
     <path id="DejaVuSans-Bold-4e" d="M 588 4666 
L 1931 4666 
L 3628 1466 
L 3628 4666 
L 4769 4666 
L 4769 0 
L 3425 0 
L 1728 3200 
L 1728 0 
L 588 0 
L 588 4666 
z
" transform="scale(0.015625)"/>
     <path id="DejaVuSans-Bold-5f" d="M 3200 -916 
L 3200 -1509 
L 0 -1509 
L 0 -916 
L 3200 -916 
z
" transform="scale(0.015625)"/>
     <path id="DejaVuSans-Bold-4b" d="M 588 4666 
L 1791 4666 
L 1791 2963 
L 3525 4666 
L 4922 4666 
L 2675 2456 
L 5153 0 
L 3647 0 
L 1791 1838 
L 1791 0 
L 588 0 
L 588 4666 
z
" transform="scale(0.015625)"/>
     <path id="DejaVuSans-Bold-20" transform="scale(0.015625)"/>
     <path id="DejaVuSans-Bold-7c" d="M 1522 4891 
L 1522 -1509 
L 813 -1509 
L 813 4891 
L 1522 4891 
z
" transform="scale(0.015625)"/>
     <path id="DejaVuSans-Bold-6f" d="M 2203 2784 
Q 1831 2784 1636 2517 
Q 1441 2250 1441 1747 
Q 1441 1244 1636 976 
Q 1831 709 2203 709 
Q 2569 709 2762 976 
Q 2956 1244 2956 1747 
Q 2956 2250 2762 2517 
Q 2569 2784 2203 2784 
z
M 2203 3584 
Q 3106 3584 3614 3096 
Q 4122 2609 4122 1747 
Q 4122 884 3614 396 
Q 3106 -91 2203 -91 
Q 1297 -91 786 396 
Q 275 884 275 1747 
Q 275 2609 786 3096 
Q 1297 3584 2203 3584 
z
" transform="scale(0.015625)"/>
     <path id="DejaVuSans-Bold-69" d="M 538 3500 
L 1656 3500 
L 1656 0 
L 538 0 
L 538 3500 
z
M 538 4863 
L 1656 4863 
L 1656 3950 
L 538 3950 
L 538 4863 
z
" transform="scale(0.015625)"/>
     <path id="DejaVuSans-Bold-73" d="M 3272 3391 
L 3272 2541 
Q 2913 2691 2578 2766 
Q 2244 2841 1947 2841 
Q 1628 2841 1473 2761 
Q 1319 2681 1319 2516 
Q 1319 2381 1436 2309 
Q 1553 2238 1856 2203 
L 2053 2175 
Q 2913 2066 3209 1816 
Q 3506 1566 3506 1031 
Q 3506 472 3093 190 
Q 2681 -91 1863 -91 
Q 1516 -91 1145 -36 
Q 775 19 384 128 
L 384 978 
Q 719 816 1070 734 
Q 1422 653 1784 653 
Q 2113 653 2278 743 
Q 2444 834 2444 1013 
Q 2444 1163 2330 1236 
Q 2216 1309 1875 1350 
L 1678 1375 
Q 931 1469 631 1722 
Q 331 1975 331 2491 
Q 331 3047 712 3315 
Q 1094 3584 1881 3584 
Q 2191 3584 2531 3537 
Q 2872 3491 3272 3391 
z
" transform="scale(0.015625)"/>
     <path id="DejaVuSans-Bold-65" d="M 4031 1759 
L 4031 1441 
L 1416 1441 
Q 1456 1047 1700 850 
Q 1944 653 2381 653 
Q 2734 653 3104 758 
Q 3475 863 3866 1075 
L 3866 213 
Q 3469 63 3072 -14 
Q 2675 -91 2278 -91 
Q 1328 -91 801 392 
Q 275 875 275 1747 
Q 275 2603 792 3093 
Q 1309 3584 2216 3584 
Q 3041 3584 3536 3087 
Q 4031 2591 4031 1759 
z
M 2881 2131 
Q 2881 2450 2695 2645 
Q 2509 2841 2209 2841 
Q 1884 2841 1681 2658 
Q 1478 2475 1428 2131 
L 2881 2131 
z
" transform="scale(0.015625)"/>
     <path id="DejaVuSans-Bold-2b" d="M 3053 4013 
L 3053 2375 
L 4684 2375 
L 4684 1638 
L 3053 1638 
L 3053 0 
L 2309 0 
L 2309 1638 
L 678 1638 
L 678 2375 
L 2309 2375 
L 2309 4013 
L 3053 4013 
z
" transform="scale(0.015625)"/>
     <path id="DejaVuSans-Bold-45" d="M 588 4666 
L 3834 4666 
L 3834 3756 
L 1791 3756 
L 1791 2888 
L 3713 2888 
L 3713 1978 
L 1791 1978 
L 1791 909 
L 3903 909 
L 3903 0 
L 588 0 
L 588 4666 
z
" transform="scale(0.015625)"/>
     <path id="DejaVuSans-Bold-6e" d="M 4056 2131 
L 4056 0 
L 2931 0 
L 2931 347 
L 2931 1631 
Q 2931 2084 2911 2256 
Q 2891 2428 2841 2509 
Q 2775 2619 2662 2680 
Q 2550 2741 2406 2741 
Q 2056 2741 1856 2470 
Q 1656 2200 1656 1722 
L 1656 0 
L 538 0 
L 538 3500 
L 1656 3500 
L 1656 2988 
Q 1909 3294 2193 3439 
Q 2478 3584 2822 3584 
Q 3428 3584 3742 3212 
Q 4056 2841 4056 2131 
z
" transform="scale(0.015625)"/>
     <path id="DejaVuSans-Bold-74" d="M 1759 4494 
L 1759 3500 
L 2913 3500 
L 2913 2700 
L 1759 2700 
L 1759 1216 
Q 1759 972 1856 886 
Q 1953 800 2241 800 
L 2816 800 
L 2816 0 
L 1856 0 
Q 1194 0 917 276 
Q 641 553 641 1216 
L 641 2700 
L 84 2700 
L 84 3500 
L 641 3500 
L 641 4494 
L 1759 4494 
z
" transform="scale(0.015625)"/>
     <path id="DejaVuSans-Bold-72" d="M 3138 2547 
Q 2991 2616 2845 2648 
Q 2700 2681 2553 2681 
Q 2122 2681 1889 2404 
Q 1656 2128 1656 1613 
L 1656 0 
L 538 0 
L 538 3500 
L 1656 3500 
L 1656 2925 
Q 1872 3269 2151 3426 
Q 2431 3584 2822 3584 
Q 2878 3584 2943 3579 
Q 3009 3575 3134 3559 
L 3138 2547 
z
" transform="scale(0.015625)"/>
     <path id="DejaVuSans-Bold-70" d="M 1656 506 
L 1656 -1331 
L 538 -1331 
L 538 3500 
L 1656 3500 
L 1656 2988 
Q 1888 3294 2169 3439 
Q 2450 3584 2816 3584 
Q 3463 3584 3878 3070 
Q 4294 2556 4294 1747 
Q 4294 938 3878 423 
Q 3463 -91 2816 -91 
Q 2450 -91 2169 54 
Q 1888 200 1656 506 
z
M 2400 2772 
Q 2041 2772 1848 2508 
Q 1656 2244 1656 1747 
Q 1656 1250 1848 986 
Q 2041 722 2400 722 
Q 2759 722 2948 984 
Q 3138 1247 3138 1747 
Q 3138 2247 2948 2509 
Q 2759 2772 2400 2772 
z
" transform="scale(0.015625)"/>
     <path id="DejaVuSans-Bold-79" d="M 78 3500 
L 1197 3500 
L 2138 1125 
L 2938 3500 
L 4056 3500 
L 2584 -331 
Q 2363 -916 2067 -1148 
Q 1772 -1381 1288 -1381 
L 641 -1381 
L 641 -647 
L 991 -647 
Q 1275 -647 1404 -556 
Q 1534 -466 1606 -231 
L 1638 -134 
L 78 3500 
z
" transform="scale(0.015625)"/>
    </defs>
    <use xlink:href="#DejaVuSans-Bold-47"/>
    <use xlink:href="#DejaVuSans-Bold-4e" transform="translate(82.080078 0)"/>
    <use xlink:href="#DejaVuSans-Bold-4e" transform="translate(165.771484 0)"/>
    <use xlink:href="#DejaVuSans-Bold-5f" transform="translate(249.462891 0)"/>
    <use xlink:href="#DejaVuSans-Bold-4b" transform="translate(299.462891 0)"/>
    <use xlink:href="#DejaVuSans-Bold-20" transform="translate(376.953125 0)"/>
    <use xlink:href="#DejaVuSans-Bold-7c" transform="translate(411.767578 0)"/>
    <use xlink:href="#DejaVuSans-Bold-20" transform="translate(448.291016 0)"/>
    <use xlink:href="#DejaVuSans-Bold-4e" transform="translate(483.105469 0)"/>
    <use xlink:href="#DejaVuSans-Bold-6f" transform="translate(566.796875 0)"/>
    <use xlink:href="#DejaVuSans-Bold-69" transform="translate(635.498047 0)"/>
    <use xlink:href="#DejaVuSans-Bold-73" transform="translate(669.775391 0)"/>
    <use xlink:href="#DejaVuSans-Bold-65" transform="translate(729.296875 0)"/>
    <use xlink:href="#DejaVuSans-Bold-20" transform="translate(797.119141 0)"/>
    <use xlink:href="#DejaVuSans-Bold-2b" transform="translate(831.933594 0)"/>
    <use xlink:href="#DejaVuSans-Bold-20" transform="translate(915.722656 0)"/>
    <use xlink:href="#DejaVuSans-Bold-45" transform="translate(950.537109 0)"/>
    <use xlink:href="#DejaVuSans-Bold-6e" transform="translate(1018.847656 0)"/>
    <use xlink:href="#DejaVuSans-Bold-74" transform="translate(1090.039062 0)"/>
    <use xlink:href="#DejaVuSans-Bold-72" transform="translate(1137.841797 0)"/>
    <use xlink:href="#DejaVuSans-Bold-6f" transform="translate(1187.158203 0)"/>
    <use xlink:href="#DejaVuSans-Bold-70" transform="translate(1255.859375 0)"/>
    <use xlink:href="#DejaVuSans-Bold-79" transform="translate(1327.441406 0)"/>
   </g>
  </g>
 </g>
 <defs>
  <clipPath id="p5a798ad650">
   <rect x="65.14" y="46.08" width="464.06" height="282.44"/>
  </clipPath>
 </defs>
</svg>
