<?xml version="1.0" encoding="utf-8" standalone="no"?>
<!DOCTYPE svg PUBLIC "-//W3C//DTD SVG 1.1//EN"
  "http://www.w3.org/Graphics/SVG/1.1/DTD/svg11.dtd">
<svg xmlns:xlink="http://www.w3.org/1999/xlink" width="540pt" height="360pt" viewBox="0 0 540 360" xmlns="http://www.w3.org/2000/svg" version="1.1">
 <metadata>
  <rdf:RDF xmlns:dc="http://purl.org/dc/elements/1.1/" xmlns:cc="http://creativecommons.org/ns#" xmlns:rdf="http://www.w3.org/1999/02/22-rdf-syntax-ns#">
   <cc:Work>
    <dc:type rdf:resource="http://purl.org/dc/dcmitype/StillImage"/>
    <dc:date>2025-08-04T02:53:04.849870</dc:date>
    <dc:format>image/svg+xml</dc:format>
    <dc:creator>
     <cc:Agent>
      <dc:title>Matplotlib v3.10.0, https://matplotlib.org/</dc:title>
     </cc:Agent>
    </dc:creator>
   </cc:Work>
  </rdf:RDF>
 </metadata>
 <defs>
  <style type="text/css">*{stroke-linejoin: round; stroke-linecap: butt}</style>
 </defs>
 <g id="figure_1">
  <g id="patch_1">
   <path d="M 0 360 
L 540 360 
L 540 0 
L 0 0 
z
" style="fill: #ffffff"/>
  </g>
  <g id="axes_1">
   <g id="patch_2">
    <path d="M 65.14 328.52 
L 529.2 328.52 
L 529.2 46.08 
L 65.14 46.08 
z
" style="fill: #eaeaf2"/>
   </g>
   <g id="matplotlib.axis_1">
    <g id="xtick_1">
     <g id="line2d_1">
      <path d="M 73.987664 328.52 
L 73.987664 46.08 
" clip-path="url(#p86c59e39cd)" style="fill: none; stroke: #ffffff; stroke-width: 0.8; stroke-linecap: round"/>
     </g>
     <g id="text_1">
      <!-- 0 -->
      <g style="fill: #262626" transform="translate(69.533914 346.157812) scale(0.14 -0.14)">
       <defs>
        <path id="DejaVuSans-30" d="M 2034 4250 
Q 1547 4250 1301 3770 
Q 1056 3291 1056 2328 
Q 1056 1369 1301 889 
Q 1547 409 2034 409 
Q 2525 409 2770 889 
Q 3016 1369 3016 2328 
Q 3016 3291 2770 3770 
Q 2525 4250 2034 4250 
z
M 2034 4750 
Q 2819 4750 3233 4129 
Q 3647 3509 3647 2328 
Q 3647 1150 3233 529 
Q 2819 -91 2034 -91 
Q 1250 -91 836 529 
Q 422 1150 422 2328 
Q 422 3509 836 4129 
Q 1250 4750 2034 4750 
z
" transform="scale(0.015625)"/>
       </defs>
       <use xlink:href="#DejaVuSans-30"/>
      </g>
     </g>
    </g>
    <g id="xtick_2">
     <g id="line2d_2">
      <path d="M 516.370887 328.52 
L 516.370887 46.08 
" clip-path="url(#p86c59e39cd)" style="fill: none; stroke: #ffffff; stroke-width: 0.8; stroke-linecap: round"/>
     </g>
     <g id="text_2">
      <!-- 2M -->
      <g style="fill: #262626" transform="translate(505.877449 346.157812) scale(0.14 -0.14)">
       <defs>
        <path id="DejaVuSans-32" d="M 1228 531 
L 3431 531 
L 3431 0 
L 469 0 
L 469 531 
Q 828 903 1448 1529 
Q 2069 2156 2228 2338 
Q 2531 2678 2651 2914 
Q 2772 3150 2772 3378 
Q 2772 3750 2511 3984 
Q 2250 4219 1831 4219 
Q 1534 4219 1204 4116 
Q 875 4013 500 3803 
L 500 4441 
Q 881 4594 1212 4672 
Q 1544 4750 1819 4750 
Q 2544 4750 2975 4387 
Q 3406 4025 3406 3419 
Q 3406 3131 3298 2873 
Q 3191 2616 2906 2266 
Q 2828 2175 2409 1742 
Q 1991 1309 1228 531 
z
" transform="scale(0.015625)"/>
        <path id="DejaVuSans-4d" d="M 628 4666 
L 1569 4666 
L 2759 1491 
L 3956 4666 
L 4897 4666 
L 4897 0 
L 4281 0 
L 4281 4097 
L 3078 897 
L 2444 897 
L 1241 4097 
L 1241 0 
L 628 0 
L 628 4666 
z
" transform="scale(0.015625)"/>
       </defs>
       <use xlink:href="#DejaVuSans-32"/>
       <use xlink:href="#DejaVuSans-4d" transform="translate(63.623047 0)"/>
      </g>
     </g>
    </g>
   </g>
   <g id="matplotlib.axis_2">
    <g id="ytick_1">
     <g id="line2d_3">
      <path d="M 65.14 321.36962 
L 529.2 321.36962 
" clip-path="url(#p86c59e39cd)" style="fill: none; stroke: #ffffff; stroke-width: 0.8; stroke-linecap: round"/>
     </g>
     <g id="text_3">
      <!-- −1500 -->
      <g style="fill: #262626" transform="translate(10.778437 326.688527) scale(0.14 -0.14)">
       <defs>
        <path id="DejaVuSans-2212" d="M 678 2272 
L 4684 2272 
L 4684 1741 
L 678 1741 
L 678 2272 
z
" transform="scale(0.015625)"/>
        <path id="DejaVuSans-31" d="M 794 531 
L 1825 531 
L 1825 4091 
L 703 3866 
L 703 4441 
L 1819 4666 
L 2450 4666 
L 2450 531 
L 3481 531 
L 3481 0 
L 794 0 
L 794 531 
z
" transform="scale(0.015625)"/>
        <path id="DejaVuSans-35" d="M 691 4666 
L 3169 4666 
L 3169 4134 
L 1269 4134 
L 1269 2991 
Q 1406 3038 1543 3061 
Q 1681 3084 1819 3084 
Q 2600 3084 3056 2656 
Q 3513 2228 3513 1497 
Q 3513 744 3044 326 
Q 2575 -91 1722 -91 
Q 1428 -91 1123 -41 
Q 819 9 494 109 
L 494 744 
Q 775 591 1075 516 
Q 1375 441 1709 441 
Q 2250 441 2565 725 
Q 2881 1009 2881 1497 
Q 2881 1984 2565 2268 
Q 2250 2553 1709 2553 
Q 1456 2553 1204 2497 
Q 953 2441 691 2322 
L 691 4666 
z
" transform="scale(0.015625)"/>
       </defs>
       <use xlink:href="#DejaVuSans-2212"/>
       <use xlink:href="#DejaVuSans-31" transform="translate(83.789062 0)"/>
       <use xlink:href="#DejaVuSans-35" transform="translate(147.412109 0)"/>
       <use xlink:href="#DejaVuSans-30" transform="translate(211.035156 0)"/>
       <use xlink:href="#DejaVuSans-30" transform="translate(274.658203 0)"/>
      </g>
     </g>
    </g>
    <g id="ytick_2">
     <g id="line2d_4">
      <path d="M 65.14 267.741772 
L 529.2 267.741772 
" clip-path="url(#p86c59e39cd)" style="fill: none; stroke: #ffffff; stroke-width: 0.8; stroke-linecap: round"/>
     </g>
     <g id="text_4">
      <!-- −1200 -->
      <g style="fill: #262626" transform="translate(10.778437 273.060678) scale(0.14 -0.14)">
       <use xlink:href="#DejaVuSans-2212"/>
       <use xlink:href="#DejaVuSans-31" transform="translate(83.789062 0)"/>
       <use xlink:href="#DejaVuSans-32" transform="translate(147.412109 0)"/>
       <use xlink:href="#DejaVuSans-30" transform="translate(211.035156 0)"/>
       <use xlink:href="#DejaVuSans-30" transform="translate(274.658203 0)"/>
      </g>
     </g>
    </g>
    <g id="ytick_3">
     <g id="line2d_5">
      <path d="M 65.14 214.113924 
L 529.2 214.113924 
" clip-path="url(#p86c59e39cd)" style="fill: none; stroke: #ffffff; stroke-width: 0.8; stroke-linecap: round"/>
     </g>
     <g id="text_5">
      <!-- −900 -->
      <g style="fill: #262626" transform="translate(19.685937 219.43283) scale(0.14 -0.14)">
       <defs>
        <path id="DejaVuSans-39" d="M 703 97 
L 703 672 
Q 941 559 1184 500 
Q 1428 441 1663 441 
Q 2288 441 2617 861 
Q 2947 1281 2994 2138 
Q 2813 1869 2534 1725 
Q 2256 1581 1919 1581 
Q 1219 1581 811 2004 
Q 403 2428 403 3163 
Q 403 3881 828 4315 
Q 1253 4750 1959 4750 
Q 2769 4750 3195 4129 
Q 3622 3509 3622 2328 
Q 3622 1225 3098 567 
Q 2575 -91 1691 -91 
Q 1453 -91 1209 -44 
Q 966 3 703 97 
z
M 1959 2075 
Q 2384 2075 2632 2365 
Q 2881 2656 2881 3163 
Q 2881 3666 2632 3958 
Q 2384 4250 1959 4250 
Q 1534 4250 1286 3958 
Q 1038 3666 1038 3163 
Q 1038 2656 1286 2365 
Q 1534 2075 1959 2075 
z
" transform="scale(0.015625)"/>
       </defs>
       <use xlink:href="#DejaVuSans-2212"/>
       <use xlink:href="#DejaVuSans-39" transform="translate(83.789062 0)"/>
       <use xlink:href="#DejaVuSans-30" transform="translate(147.412109 0)"/>
       <use xlink:href="#DejaVuSans-30" transform="translate(211.035156 0)"/>
      </g>
     </g>
    </g>
    <g id="ytick_4">
     <g id="line2d_6">
      <path d="M 65.14 160.486076 
L 529.2 160.486076 
" clip-path="url(#p86c59e39cd)" style="fill: none; stroke: #ffffff; stroke-width: 0.8; stroke-linecap: round"/>
     </g>
     <g id="text_6">
      <!-- −600 -->
      <g style="fill: #262626" transform="translate(19.685937 165.804982) scale(0.14 -0.14)">
       <defs>
        <path id="DejaVuSans-36" d="M 2113 2584 
Q 1688 2584 1439 2293 
Q 1191 2003 1191 1497 
Q 1191 994 1439 701 
Q 1688 409 2113 409 
Q 2538 409 2786 701 
Q 3034 994 3034 1497 
Q 3034 2003 2786 2293 
Q 2538 2584 2113 2584 
z
M 3366 4563 
L 3366 3988 
Q 3128 4100 2886 4159 
Q 2644 4219 2406 4219 
Q 1781 4219 1451 3797 
Q 1122 3375 1075 2522 
Q 1259 2794 1537 2939 
Q 1816 3084 2150 3084 
Q 2853 3084 3261 2657 
Q 3669 2231 3669 1497 
Q 3669 778 3244 343 
Q 2819 -91 2113 -91 
Q 1303 -91 875 529 
Q 447 1150 447 2328 
Q 447 3434 972 4092 
Q 1497 4750 2381 4750 
Q 2619 4750 2861 4703 
Q 3103 4656 3366 4563 
z
" transform="scale(0.015625)"/>
       </defs>
       <use xlink:href="#DejaVuSans-2212"/>
       <use xlink:href="#DejaVuSans-36" transform="translate(83.789062 0)"/>
       <use xlink:href="#DejaVuSans-30" transform="translate(147.412109 0)"/>
       <use xlink:href="#DejaVuSans-30" transform="translate(211.035156 0)"/>
      </g>
     </g>
    </g>
    <g id="ytick_5">
     <g id="line2d_7">
      <path d="M 65.14 106.858228 
L 529.2 106.858228 
" clip-path="url(#p86c59e39cd)" style="fill: none; stroke: #ffffff; stroke-width: 0.8; stroke-linecap: round"/>
     </g>
     <g id="text_7">
      <!-- −300 -->
      <g style="fill: #262626" transform="translate(19.685937 112.177134) scale(0.14 -0.14)">
       <defs>
        <path id="DejaVuSans-33" d="M 2597 2516 
Q 3050 2419 3304 2112 
Q 3559 1806 3559 1356 
Q 3559 666 3084 287 
Q 2609 -91 1734 -91 
Q 1441 -91 1130 -33 
Q 819 25 488 141 
L 488 750 
Q 750 597 1062 519 
Q 1375 441 1716 441 
Q 2309 441 2620 675 
Q 2931 909 2931 1356 
Q 2931 1769 2642 2001 
Q 2353 2234 1838 2234 
L 1294 2234 
L 1294 2753 
L 1863 2753 
Q 2328 2753 2575 2939 
Q 2822 3125 2822 3475 
Q 2822 3834 2567 4026 
Q 2313 4219 1838 4219 
Q 1578 4219 1281 4162 
Q 984 4106 628 3988 
L 628 4550 
Q 988 4650 1302 4700 
Q 1616 4750 1894 4750 
Q 2613 4750 3031 4423 
Q 3450 4097 3450 3541 
Q 3450 3153 3228 2886 
Q 3006 2619 2597 2516 
z
" transform="scale(0.015625)"/>
       </defs>
       <use xlink:href="#DejaVuSans-2212"/>
       <use xlink:href="#DejaVuSans-33" transform="translate(83.789062 0)"/>
       <use xlink:href="#DejaVuSans-30" transform="translate(147.412109 0)"/>
       <use xlink:href="#DejaVuSans-30" transform="translate(211.035156 0)"/>
      </g>
     </g>
    </g>
    <g id="ytick_6">
     <g id="line2d_8">
      <path d="M 65.14 53.23038 
L 529.2 53.23038 
" clip-path="url(#p86c59e39cd)" style="fill: none; stroke: #ffffff; stroke-width: 0.8; stroke-linecap: round"/>
     </g>
     <g id="text_8">
      <!-- 0 -->
      <g style="fill: #262626" transform="translate(49.2325 58.549286) scale(0.14 -0.14)">
       <use xlink:href="#DejaVuSans-30"/>
      </g>
     </g>
    </g>
   </g>
   <g id="FillBetweenPolyCollection_1">
    <path d="M 73.987664 267.090683 
L 73.987664 278.483206 
L 78.517669 275.624391 
L 83.047673 286.526643 
L 87.577677 291.693555 
L 92.107681 287.127609 
L 96.637685 273.802482 
L 101.16769 270.04622 
L 105.697694 278.686029 
L 110.227698 269.949184 
L 114.757702 288.867113 
L 119.287706 276.634881 
L 123.817711 284.330554 
L 128.347715 286.305182 
L 132.877719 284.852704 
L 137.407723 278.316323 
L 141.937727 290.539767 
L 146.467732 285.398478 
L 150.997736 282.387913 
L 155.52774 281.887383 
L 160.057744 271.859596 
L 164.587748 280.529458 
L 169.117753 282.391856 
L 173.647757 279.991028 
L 178.177761 289.108954 
L 182.707765 296.147935 
L 187.237769 286.816246 
L 191.767773 278.619528 
L 196.297778 291.831924 
L 200.827782 279.229116 
L 205.357786 278.013959 
L 209.88779 277.954606 
L 214.417794 272.107831 
L 218.947799 276.465087 
L 223.477803 276.411694 
L 228.007807 283.969231 
L 232.537811 277.884226 
L 237.067815 273.58133 
L 241.59782 259.952709 
L 246.127824 266.78309 
L 250.657828 257.725385 
L 255.187832 256.161228 
L 259.717836 267.750284 
L 264.247841 256.868734 
L 268.777845 242.852933 
L 273.307849 271.425293 
L 277.837853 261.180456 
L 282.367857 272.930001 
L 286.897862 255.447706 
L 291.427866 267.921075 
L 295.95787 258.406705 
L 300.487874 270.612903 
L 305.017878 257.120712 
L 309.547883 264.024568 
L 314.077887 280.165556 
L 318.607891 253.252838 
L 323.137895 250.522461 
L 327.667899 253.079975 
L 332.197904 250.409196 
L 336.727908 248.54607 
L 341.257912 268.487204 
L 345.787916 259.689592 
L 350.31792 257.576908 
L 354.847924 256.043033 
L 359.377929 257.746415 
L 363.907933 270.489484 
L 368.437937 255.320132 
L 372.967941 261.977014 
L 377.497945 264.108761 
L 382.02795 260.986735 
L 386.557954 256.868334 
L 391.087958 247.706574 
L 395.617962 253.155757 
L 400.147966 249.669499 
L 404.677971 244.428887 
L 409.207975 245.481105 
L 413.737979 241.614442 
L 418.267983 244.208877 
L 422.797987 245.363818 
L 427.327992 251.764587 
L 431.857996 235.320385 
L 436.388 232.658779 
L 440.918004 233.236776 
L 445.448008 274.645824 
L 449.978013 270.955323 
L 454.508017 254.21694 
L 459.038021 249.676685 
L 463.568025 241.340143 
L 468.098029 234.048008 
L 472.628034 229.253356 
L 477.158038 238.047166 
L 481.688042 233.625883 
L 486.218046 236.720908 
L 490.74805 230.708521 
L 495.278055 230.691644 
L 499.808059 235.031259 
L 504.338063 210.393334 
L 508.868067 222.907252 
L 513.398071 198.309435 
L 517.928076 207.630058 
L 522.45808 209.463057 
L 522.45808 86.115322 
L 522.45808 86.115322 
L 517.928076 91.125505 
L 513.398071 86.108107 
L 508.868067 93.579735 
L 504.338063 86.142276 
L 499.808059 98.757948 
L 495.278055 105.793428 
L 490.74805 98.110043 
L 486.218046 104.060578 
L 481.688042 99.208102 
L 477.158038 108.901498 
L 472.628034 100.650929 
L 468.098029 105.873238 
L 463.568025 97.559657 
L 459.038021 109.27149 
L 454.508017 101.882413 
L 449.978013 108.108527 
L 445.448008 109.60364 
L 440.918004 95.967377 
L 436.388 101.641989 
L 431.857996 97.312708 
L 427.327992 103.821257 
L 422.797987 113.320072 
L 418.267983 126.121869 
L 413.737979 116.269963 
L 409.207975 130.828007 
L 404.677971 109.893961 
L 400.147966 120.062402 
L 395.617962 119.201422 
L 391.087958 120.609974 
L 386.557954 131.558268 
L 382.02795 135.776104 
L 377.497945 131.74254 
L 372.967941 139.56654 
L 368.437937 127.988633 
L 363.907933 143.079612 
L 359.377929 152.43905 
L 354.847924 176.269163 
L 350.31792 163.508256 
L 345.787916 154.756946 
L 341.257912 159.477304 
L 336.727908 162.088294 
L 332.197904 163.204455 
L 327.667899 168.121494 
L 323.137895 195.912864 
L 318.607891 178.605112 
L 314.077887 164.077537 
L 309.547883 191.03131 
L 305.017878 199.274221 
L 300.487874 197.206134 
L 295.95787 198.786734 
L 291.427866 205.727319 
L 286.897862 227.195747 
L 282.367857 227.957307 
L 277.837853 227.61898 
L 273.307849 221.669516 
L 268.777845 213.143789 
L 264.247841 225.597922 
L 259.717836 238.459148 
L 255.187832 227.829944 
L 250.657828 220.531462 
L 246.127824 230.995419 
L 241.59782 232.397306 
L 237.067815 221.865918 
L 232.537811 249.276268 
L 228.007807 238.265705 
L 223.477803 243.485461 
L 218.947799 248.644416 
L 214.417794 237.794086 
L 209.88779 251.315384 
L 205.357786 239.363071 
L 200.827782 241.642276 
L 196.297778 253.440846 
L 191.767773 246.924146 
L 187.237769 249.856517 
L 182.707765 245.792475 
L 178.177761 240.062251 
L 173.647757 254.061214 
L 169.117753 257.919999 
L 164.587748 254.149071 
L 160.057744 252.4122 
L 155.52774 255.770189 
L 150.997736 251.800218 
L 146.467732 249.739523 
L 141.937727 260.090268 
L 137.407723 258.209112 
L 132.877719 252.017208 
L 128.347715 256.636144 
L 123.817711 245.908366 
L 119.287706 246.861432 
L 114.757702 255.294183 
L 110.227698 246.615345 
L 105.697694 251.297597 
L 101.16769 248.741239 
L 96.637685 246.603066 
L 92.107681 250.56362 
L 87.577677 239.394428 
L 83.047673 257.546779 
L 78.517669 259.145453 
L 73.987664 267.090683 
z
" clip-path="url(#p86c59e39cd)" style="fill: #023eff; fill-opacity: 0.1"/>
   </g>
   <g id="line2d_9">
    <path d="M 73.987664 276.684944 
L 78.517669 260.913119 
L 83.047673 291.99005 
L 87.577677 303.078433 
L 92.107681 294.81981 
L 96.637685 263.457424 
L 101.16769 269.962644 
L 105.697694 281.452762 
L 110.227698 274.318051 
L 114.757702 290.754016 
L 119.287706 256.383877 
L 123.817711 282.217799 
L 128.347715 285.026136 
L 132.877719 277.718773 
L 137.407723 282.177893 
L 141.937727 302.019171 
L 146.467732 279.846351 
L 150.997736 281.752506 
L 155.52774 269.715558 
L 160.057744 267.253411 
L 164.587748 272.461683 
L 169.117753 262.484598 
L 173.647757 271.308056 
L 178.177761 241.516614 
L 182.707765 254.486116 
L 187.237769 251.015136 
L 191.767773 246.953107 
L 196.297778 257.32368 
L 200.827782 248.892216 
L 205.357786 239.556429 
L 209.88779 246.530225 
L 214.417794 232.338417 
L 218.947799 244.874801 
L 223.477803 233.259854 
L 228.007807 230.005249 
L 232.537811 271.963764 
L 237.067815 201.985948 
L 241.59782 223.954728 
L 246.127824 215.955112 
L 250.657828 218.468446 
L 255.187832 227.984906 
L 259.717836 244.731141 
L 264.247841 222.513708 
L 268.777845 204.314509 
L 273.307849 209.745859 
L 277.837853 271.407827 
L 282.367857 279.934321 
L 286.897862 267.407816 
L 291.427866 240.770726 
L 295.95787 232.437742 
L 300.487874 221.026721 
L 305.017878 241.673614 
L 309.547883 246.947877 
L 314.077887 247.551581 
L 318.607891 233.496007 
L 323.137895 209.123882 
L 327.667899 215.112762 
L 332.197904 204.103869 
L 336.727908 187.270294 
L 341.257912 266.196601 
L 345.787916 261.511445 
L 350.31792 242.38131 
L 354.847924 258.521166 
L 359.377929 250.327644 
L 363.907933 257.779355 
L 368.437937 249.871431 
L 372.967941 225.640586 
L 377.497945 268.674099 
L 382.02795 235.228341 
L 386.557954 254.411614 
L 391.087958 213.720651 
L 395.617962 214.354571 
L 400.147966 195.779842 
L 404.677971 211.947446 
L 409.207975 197.043087 
L 413.737979 159.841526 
L 418.267983 208.677989 
L 422.797987 242.500056 
L 427.327992 253.583267 
L 431.857996 231.86576 
L 436.388 216.455971 
L 440.918004 215.52911 
L 445.448008 212.983249 
L 449.978013 246.507404 
L 454.508017 235.496449 
L 459.038021 209.091821 
L 463.568025 178.035965 
L 468.098029 194.791529 
L 472.628034 184.542855 
L 477.158038 192.712522 
L 481.688042 139.771168 
L 486.218046 242.693345 
L 490.74805 219.687301 
L 495.278055 219.539579 
L 499.808059 230.130901 
L 504.338063 190.503082 
L 508.868067 221.896998 
L 513.398071 155.475254 
L 517.928076 201.272796 
L 522.45808 197.299059 
" clip-path="url(#p86c59e39cd)" style="fill: none; stroke: #1ac938; stroke-opacity: 0.27; stroke-width: 1.25; stroke-linecap: round"/>
   </g>
   <g id="line2d_10">
    <path d="M 73.987664 274.058801 
L 78.517669 279.76106 
L 83.047673 256.788567 
L 87.577677 244.264821 
L 92.107681 260.671149 
L 96.637685 254.740488 
L 101.16769 255.513467 
L 105.697694 267.567191 
L 110.227698 246.5323 
L 114.757702 286.781922 
L 119.287706 267.333304 
L 123.817711 257.700999 
L 128.347715 270.762071 
L 132.877719 277.979008 
L 137.407723 269.051748 
L 141.937727 265.490564 
L 146.467732 266.143394 
L 150.997736 257.108053 
L 155.52774 286.960348 
L 160.057744 254.096918 
L 164.587748 271.801244 
L 169.117753 268.636705 
L 173.647757 259.669138 
L 178.177761 274.698344 
L 182.707765 274.409856 
L 187.237769 263.001042 
L 191.767773 272.627352 
L 196.297778 287.473407 
L 200.827782 262.532379 
L 205.357786 272.062231 
L 209.88779 273.297963 
L 214.417794 246.976982 
L 218.947799 255.315475 
L 223.477803 254.907838 
L 228.007807 270.935005 
L 232.537811 268.12648 
L 237.067815 270.16786 
L 241.59782 259.112607 
L 246.127824 256.074482 
L 250.657828 254.298888 
L 255.187832 255.735877 
L 259.717836 267.996342 
L 264.247841 257.885477 
L 268.777845 246.080052 
L 273.307849 265.835975 
L 277.837853 251.913631 
L 282.367857 252.645888 
L 286.897862 243.896106 
L 291.427866 284.728678 
L 295.95787 276.739657 
L 300.487874 260.288543 
L 305.017878 261.88819 
L 309.547883 252.882935 
L 314.077887 273.435428 
L 318.607891 261.773524 
L 323.137895 264.992634 
L 327.667899 265.852745 
L 332.197904 253.029196 
L 336.727908 256.672208 
L 341.257912 247.049213 
L 345.787916 252.754583 
L 350.31792 256.410509 
L 354.847924 240.60019 
L 359.377929 263.929966 
L 363.907933 283.538406 
L 368.437937 262.47994 
L 372.967941 281.0883 
L 377.497945 268.396373 
L 382.02795 280.598111 
L 386.557954 278.643285 
L 391.087958 281.255027 
L 395.617962 281.127188 
L 400.147966 283.21615 
L 404.677971 278.462276 
L 409.207975 272.172101 
L 413.737979 273.070408 
L 418.267983 269.613442 
L 422.797987 263.122402 
L 427.327992 270.584462 
L 431.857996 265.687778 
L 436.388 266.194316 
L 440.918004 264.792274 
L 445.448008 272.569048 
L 449.978013 276.435627 
L 454.508017 269.233985 
L 459.038021 271.629823 
L 463.568025 272.862388 
L 468.098029 264.856683 
L 472.628034 269.496403 
L 477.158038 270.556885 
L 481.688042 269.353752 
L 486.218046 239.566918 
L 490.74805 246.127509 
L 495.278055 247.80902 
L 499.808059 251.774577 
L 504.338063 246.033709 
L 508.868067 243.755158 
L 513.398071 240.938771 
L 517.928076 229.135207 
L 522.45808 241.712059 
" clip-path="url(#p86c59e39cd)" style="fill: none; stroke: #1ac938; stroke-opacity: 0.27; stroke-width: 1.25; stroke-linecap: round"/>
   </g>
   <g id="line2d_11">
    <path d="M 73.987664 276.181045 
L 78.517669 263.356235 
L 83.047673 272.59098 
L 87.577677 252.676944 
L 92.107681 252.966114 
L 96.637685 263.852845 
L 101.16769 248.957534 
L 105.697694 263.985649 
L 110.227698 254.31142 
L 114.757702 253.250671 
L 119.287706 257.788306 
L 123.817711 249.592978 
L 128.347715 262.465628 
L 132.877719 242.979672 
L 137.407723 251.450595 
L 141.937727 261.87615 
L 146.467732 234.661048 
L 150.997736 243.907671 
L 155.52774 246.159941 
L 160.057744 247.212556 
L 164.587748 241.212458 
L 169.117753 252.458591 
L 173.647757 248.557732 
L 178.177761 232.566164 
L 182.707765 233.196615 
L 187.237769 250.892638 
L 191.767773 240.833243 
L 196.297778 246.032782 
L 200.827782 232.493179 
L 205.357786 236.779967 
L 209.88779 264.136419 
L 214.417794 255.092841 
L 218.947799 276.464983 
L 223.477803 257.397891 
L 228.007807 263.581707 
L 232.537811 241.811319 
L 237.067815 242.353005 
L 241.59782 237.897463 
L 246.127824 251.940872 
L 250.657828 220.036067 
L 255.187832 239.438341 
L 259.717836 229.555762 
L 264.247841 234.564653 
L 268.777845 219.631305 
L 273.307849 232.719475 
L 277.837853 244.395608 
L 282.367857 210.39911 
L 286.897862 232.401677 
L 291.427866 188.584384 
L 295.95787 183.840352 
L 300.487874 171.824324 
L 305.017878 175.39782 
L 309.547883 161.164581 
L 314.077887 111.121425 
L 318.607891 149.21605 
L 323.137895 188.520093 
L 327.667899 147.542907 
L 332.197904 130.431554 
L 336.727908 138.076382 
L 341.257912 156.346467 
L 345.787916 128.353874 
L 350.31792 151.744367 
L 354.847924 161.410223 
L 359.377929 164.606996 
L 363.907933 139.46656 
L 368.437937 114.556717 
L 372.967941 109.791077 
L 377.497945 115.21394 
L 382.02795 109.477106 
L 386.557954 116.449567 
L 391.087958 108.479034 
L 395.617962 104.534753 
L 400.147966 96.589407 
L 404.677971 95.305585 
L 409.207975 101.374937 
L 413.737979 93.507943 
L 418.267983 102.721672 
L 422.797987 91.283852 
L 427.327992 86.68035 
L 431.857996 95.624561 
L 436.388 104.909966 
L 440.918004 89.563544 
L 445.448008 92.123071 
L 449.978013 90.793152 
L 454.508017 84.844344 
L 459.038021 95.342177 
L 463.568025 83.468654 
L 468.098029 102.055507 
L 472.628034 102.271128 
L 477.158038 108.600821 
L 481.688042 120.396455 
L 486.218046 101.493021 
L 490.74805 87.086554 
L 495.278055 86.863007 
L 499.808059 89.340042 
L 504.338063 87.429408 
L 508.868067 95.339317 
L 513.398071 86.273858 
L 517.928076 91.34974 
L 522.45808 91.722574 
" clip-path="url(#p86c59e39cd)" style="fill: none; stroke: #1ac938; stroke-opacity: 0.27; stroke-width: 1.25; stroke-linecap: round"/>
   </g>
   <g id="line2d_12">
    <path d="M 73.987664 275.477569 
L 78.517669 274.396999 
L 83.047673 283.63742 
L 87.577677 290.175344 
L 92.107681 286.265839 
L 96.637685 280.337824 
L 101.16769 274.008834 
L 105.697694 271.732785 
L 110.227698 269.734249 
L 114.757702 278.660449 
L 119.287706 286.260891 
L 123.817711 292.940361 
L 128.347715 289.891708 
L 132.877719 287.567975 
L 137.407723 272.939595 
L 141.937727 282.617088 
L 146.467732 286.030617 
L 150.997736 284.892893 
L 155.52774 271.784348 
L 160.057744 270.978858 
L 164.587748 277.080484 
L 169.117753 281.074267 
L 173.647757 287.668063 
L 178.177761 300.032563 
L 182.707765 305.543117 
L 187.237769 300.021261 
L 191.767773 281.071638 
L 196.297778 298.692656 
L 200.827782 287.748661 
L 205.357786 287.683724 
L 209.88779 284.345882 
L 214.417794 284.894383 
L 218.947799 281.257845 
L 223.477803 280.509455 
L 228.007807 296.641077 
L 232.537811 282.475948 
L 237.067815 274.460661 
L 241.59782 260.669337 
L 246.127824 250.293921 
L 250.657828 265.660234 
L 255.187832 260.840625 
L 259.717836 267.984402 
L 264.247841 261.601089 
L 268.777845 230.09206 
L 273.307849 280.7355 
L 277.837853 223.512686 
L 282.367857 251.863631 
L 286.897862 235.705671 
L 291.427866 244.792665 
L 295.95787 231.36371 
L 300.487874 278.683964 
L 305.017878 236.60101 
L 309.547883 260.715057 
L 314.077887 257.3875 
L 318.607891 224.614082 
L 323.137895 243.390801 
L 327.667899 243.612992 
L 332.197904 245.473055 
L 336.727908 247.617455 
L 341.257912 260.699419 
L 345.787916 230.685176 
L 350.31792 247.497267 
L 354.847924 245.427805 
L 359.377929 221.741882 
L 363.907933 228.73397 
L 368.437937 213.472943 
L 372.967941 234.183842 
L 377.497945 209.761861 
L 382.02795 222.805435 
L 386.557954 178.005618 
L 391.087958 196.50612 
L 395.617962 215.908708 
L 400.147966 214.326137 
L 404.677971 188.657737 
L 409.207975 214.623034 
L 413.737979 223.266727 
L 418.267983 208.627286 
L 422.797987 175.383505 
L 427.327992 168.233098 
L 431.857996 129.18854 
L 436.388 152.685598 
L 440.918004 161.183576 
L 445.448008 284.051435 
L 449.978013 243.061053 
L 454.508017 210.208787 
L 459.038021 221.831378 
L 463.568025 217.029808 
L 468.098029 193.850659 
L 472.628034 176.312736 
L 477.158038 200.291856 
L 481.688042 217.248302 
L 486.218046 182.082208 
L 490.74805 181.92835 
L 495.278055 180.176704 
L 499.808059 173.478963 
L 504.338063 132.363746 
L 508.868067 145.654611 
L 513.398071 137.764487 
L 517.928076 142.853943 
L 522.45808 123.926724 
" clip-path="url(#p86c59e39cd)" style="fill: none; stroke: #1ac938; stroke-opacity: 0.27; stroke-width: 1.25; stroke-linecap: round"/>
   </g>
   <g id="line2d_13">
    <path d="M 73.987664 261.532364 
L 78.517669 258.497197 
L 83.047673 255.176538 
L 87.577677 237.524417 
L 92.107681 249.505161 
L 96.637685 238.625291 
L 101.16769 248.526168 
L 105.697694 240.220675 
L 110.227698 246.515304 
L 114.757702 250.956182 
L 119.287706 240.974402 
L 123.817711 243.145164 
L 128.347715 249.207773 
L 132.877719 255.929352 
L 137.407723 265.693755 
L 141.937727 264.572116 
L 146.467732 271.163593 
L 150.997736 267.809202 
L 155.52774 269.523734 
L 160.057744 271.137747 
L 164.587748 274.140456 
L 169.117753 286.125478 
L 173.647757 267.927617 
L 178.177761 274.114328 
L 182.707765 287.21532 
L 187.237769 276.751831 
L 191.767773 272.373843 
L 196.297778 273.659401 
L 200.827782 270.512047 
L 205.357786 257.360225 
L 209.88779 254.864488 
L 214.417794 255.452168 
L 218.947799 254.860654 
L 223.477803 273.667848 
L 228.007807 244.4243 
L 232.537811 253.523723 
L 237.067815 249.650648 
L 241.59782 249.240902 
L 246.127824 270.181884 
L 250.657828 237.178482 
L 255.187832 225.978179 
L 259.717836 255.255934 
L 264.247841 229.601712 
L 268.777845 239.87388 
L 273.307849 243.700215 
L 277.837853 230.768839 
L 282.367857 257.37532 
L 286.897862 227.197363 
L 291.427866 225.24453 
L 295.95787 218.602138 
L 300.487874 237.72404 
L 305.017878 225.426699 
L 309.547883 215.929245 
L 314.077887 221.111799 
L 318.607891 210.545211 
L 323.137895 210.060901 
L 327.667899 180.882266 
L 332.197904 200.996455 
L 336.727908 196.949571 
L 341.257912 139.619571 
L 345.787916 162.811267 
L 350.31792 154.679456 
L 354.847924 174.821104 
L 359.377929 124.857173 
L 363.907933 124.40445 
L 368.437937 117.89088 
L 372.967941 153.155079 
L 377.497945 127.58198 
L 382.02795 143.798105 
L 386.557954 143.556421 
L 391.087958 120.830538 
L 395.617962 114.967728 
L 400.147966 134.418217 
L 404.677971 111.434075 
L 409.207975 155.559622 
L 413.737979 145.024408 
L 418.267983 136.186477 
L 422.797987 124.419911 
L 427.327992 109.883432 
L 431.857996 109.216094 
L 436.388 95.506069 
L 440.918004 91.941879 
L 445.448008 98.896858 
L 449.978013 90.862389 
L 454.508017 90.464816 
L 459.038021 99.47524 
L 463.568025 95.852685 
L 468.098029 94.248736 
L 472.628034 92.137589 
L 477.158038 95.209574 
L 481.688042 85.315287 
L 486.218046 86.118221 
L 490.74805 87.216694 
L 495.278055 106.82437 
L 499.808059 89.748533 
L 504.338063 85.00908 
L 508.868067 84.571384 
L 513.398071 90.591486 
L 517.928076 82.277223 
L 522.45808 84.285531 
" clip-path="url(#p86c59e39cd)" style="fill: none; stroke: #1ac938; stroke-opacity: 0.27; stroke-width: 1.25; stroke-linecap: round"/>
   </g>
   <g id="line2d_14">
    <path d="M 73.987664 53.23038 
L 78.517669 56.602608 
L 83.047673 64.52702 
L 87.577677 83.08946 
L 92.107681 100.217997 
L 96.637685 134.596203 
L 101.16769 168.506396 
L 105.697694 180.178383 
L 110.227698 211.251951 
L 114.757702 215.53015 
L 119.287706 234.271796 
L 123.817711 233.407927 
L 128.347715 229.793371 
L 132.877719 236.997113 
L 137.407723 242.735107 
L 141.937727 232.354777 
L 146.467732 247.543613 
L 150.997736 251.459024 
L 155.52774 243.541029 
L 160.057744 245.522598 
L 164.587748 241.500303 
L 169.117753 240.274493 
L 173.647757 255.566297 
L 178.177761 241.755374 
L 182.707765 233.576575 
L 187.237769 236.818274 
L 191.767773 241.232868 
L 196.297778 240.162717 
L 200.827782 250.540789 
L 205.357786 258.345978 
L 209.88779 251.864748 
L 214.417794 247.814024 
L 218.947799 248.22398 
L 223.477803 247.905156 
L 228.007807 242.178093 
L 232.537811 242.626821 
L 237.067815 259.826164 
L 241.59782 260.807618 
L 246.127824 253.802106 
L 250.657828 259.848072 
L 255.187832 256.733044 
L 259.717836 243.907951 
L 264.247841 260.910624 
L 268.777845 267.989157 
L 273.307849 253.815177 
L 277.837853 270.965891 
L 282.367857 262.966683 
L 286.897862 275.375591 
L 291.427866 256.823457 
L 295.95787 262.467132 
L 300.487874 254.99274 
L 305.017878 265.106013 
L 309.547883 264.006546 
L 314.077887 265.996447 
L 318.607891 273.553275 
L 323.137895 270.555116 
L 327.667899 268.927703 
L 332.197904 279.270514 
L 336.727908 277.684711 
L 341.257912 276.631438 
L 345.787916 280.124928 
L 350.31792 279.490375 
L 354.847924 271.182901 
L 359.377929 277.29395 
L 363.907933 269.17486 
L 368.437937 281.905935 
L 372.967941 279.100106 
L 377.497945 281.184869 
L 382.02795 278.629604 
L 386.557954 284.093663 
L 391.087958 287.14925 
L 395.617962 286.036926 
L 400.147966 288.871054 
L 404.677971 301.346344 
L 409.207975 287.902385 
L 413.737979 298.896872 
L 418.267983 300.633386 
L 422.797987 312.033383 
L 427.327992 315.977463 
L 431.857996 321.36962 
L 436.388 316.421012 
L 440.918004 316.378147 
L 445.448008 317.66139 
L 449.978013 307.589857 
L 454.508017 297.862206 
L 459.038021 299.138327 
L 463.568025 303.276593 
L 468.098029 312.87177 
L 472.628034 316.747765 
L 477.158038 317.650328 
L 481.688042 314.909993 
L 486.218046 307.060395 
L 490.74805 312.38571 
L 495.278055 307.394174 
L 499.808059 312.064567 
L 504.338063 320.380158 
L 508.868067 313.5998 
L 513.398071 317.21758 
L 517.928076 316.03935 
L 522.45808 319.012995 
" clip-path="url(#p86c59e39cd)" style="fill: none; stroke: #8b2be2; stroke-width: 1.5; stroke-linecap: round"/>
   </g>
   <g id="line2d_15">
    <path d="M 73.987664 272.786945 
L 78.517669 267.384922 
L 83.047673 272.036711 
L 87.577677 265.543992 
L 92.107681 268.845615 
L 96.637685 260.202774 
L 101.16769 259.393729 
L 105.697694 264.991813 
L 110.227698 258.282265 
L 114.757702 272.080648 
L 119.287706 261.748156 
L 123.817711 265.11946 
L 128.347715 271.470663 
L 132.877719 268.434956 
L 137.407723 268.262717 
L 141.937727 275.315018 
L 146.467732 267.569001 
L 150.997736 267.094065 
L 155.52774 268.828786 
L 160.057744 262.135898 
L 164.587748 267.339265 
L 169.117753 270.155928 
L 173.647757 267.026121 
L 178.177761 264.585602 
L 182.707765 270.970205 
L 187.237769 268.336382 
L 191.767773 262.771837 
L 196.297778 272.636385 
L 200.827782 260.435696 
L 205.357786 258.688515 
L 209.88779 264.634995 
L 214.417794 254.950958 
L 218.947799 262.554752 
L 223.477803 259.948577 
L 228.007807 261.117468 
L 232.537811 263.580247 
L 237.067815 247.723624 
L 241.59782 246.175007 
L 246.127824 248.889254 
L 250.657828 239.128423 
L 255.187832 241.995586 
L 259.717836 253.104716 
L 264.247841 241.233328 
L 268.777845 227.998361 
L 273.307849 246.547405 
L 277.837853 244.399718 
L 282.367857 250.443654 
L 286.897862 241.321726 
L 291.427866 236.824197 
L 295.95787 228.59672 
L 300.487874 233.909519 
L 305.017878 228.197467 
L 309.547883 227.527939 
L 314.077887 222.121547 
L 318.607891 215.928975 
L 323.137895 223.217662 
L 327.667899 210.600735 
L 332.197904 206.806826 
L 336.727908 205.317182 
L 341.257912 213.982254 
L 345.787916 207.223269 
L 350.31792 210.542582 
L 354.847924 216.156098 
L 359.377929 205.092732 
L 363.907933 206.784548 
L 368.437937 191.654382 
L 372.967941 200.771777 
L 377.497945 197.92565 
L 382.02795 198.38142 
L 386.557954 194.213301 
L 391.087958 184.158274 
L 395.617962 186.17859 
L 400.147966 184.86595 
L 404.677971 177.161424 
L 409.207975 188.154556 
L 413.737979 178.942202 
L 418.267983 185.165373 
L 422.797987 179.341945 
L 427.327992 177.792922 
L 431.857996 166.316547 
L 436.388 167.150384 
L 440.918004 164.602077 
L 445.448008 192.124732 
L 449.978013 189.531925 
L 454.508017 178.049676 
L 459.038021 179.474088 
L 463.568025 169.4499 
L 468.098029 169.960623 
L 472.628034 164.952142 
L 477.158038 173.474332 
L 481.688042 166.416993 
L 486.218046 170.390743 
L 490.74805 164.409282 
L 495.278055 168.242536 
L 499.808059 166.894603 
L 504.338063 148.267805 
L 508.868067 158.243494 
L 513.398071 142.208771 
L 517.928076 149.377782 
L 522.45808 147.78919 
" clip-path="url(#p86c59e39cd)" style="fill: none; stroke: #023eff; stroke-width: 2; stroke-linecap: round"/>
   </g>
   <g id="line2d_16">
    <path d="M 65.14 88.982278 
L 529.2 88.982278 
" clip-path="url(#p86c59e39cd)" style="fill: none; stroke-dasharray: 1.25,2.0625; stroke-dashoffset: 0; stroke: #000000; stroke-opacity: 0.6; stroke-width: 1.25"/>
   </g>
   <g id="patch_3">
    <path d="M 65.14 328.52 
L 65.14 46.08 
" style="fill: none; stroke: #ffffff; stroke-width: 0.8; stroke-linejoin: miter; stroke-linecap: square"/>
   </g>
   <g id="patch_4">
    <path d="M 529.2 328.52 
L 529.2 46.08 
" style="fill: none; stroke: #ffffff; stroke-width: 0.8; stroke-linejoin: miter; stroke-linecap: square"/>
   </g>
   <g id="patch_5">
    <path d="M 65.14 328.52 
L 529.2 328.52 
" style="fill: none; stroke: #ffffff; stroke-width: 0.8; stroke-linejoin: miter; stroke-linecap: square"/>
   </g>
   <g id="patch_6">
    <path d="M 65.14 46.08 
L 529.2 46.08 
" style="fill: none; stroke: #ffffff; stroke-width: 0.8; stroke-linejoin: miter; stroke-linecap: square"/>
   </g>
  </g>
  <g id="text_9">
   <!-- GNN_K | No modification -->
   <g style="fill: #262626" transform="translate(104.930625 25.54125) scale(0.24 -0.24)">
    <defs>
     <path id="DejaVuSans-Bold-47" d="M 4781 347 
Q 4331 128 3847 18 
Q 3363 -91 2847 -91 
Q 1681 -91 1000 561 
Q 319 1213 319 2328 
Q 319 3456 1012 4103 
Q 1706 4750 2913 4750 
Q 3378 4750 3804 4662 
Q 4231 4575 4609 4403 
L 4609 3438 
Q 4219 3659 3833 3768 
Q 3447 3878 3059 3878 
Q 2341 3878 1952 3476 
Q 1563 3075 1563 2328 
Q 1563 1588 1938 1184 
Q 2313 781 3003 781 
Q 3191 781 3352 804 
Q 3513 828 3641 878 
L 3641 1784 
L 2906 1784 
L 2906 2591 
L 4781 2591 
L 4781 347 
z
" transform="scale(0.015625)"/>
     <path id="DejaVuSans-Bold-4e" d="M 588 4666 
L 1931 4666 
L 3628 1466 
L 3628 4666 
L 4769 4666 
L 4769 0 
L 3425 0 
L 1728 3200 
L 1728 0 
L 588 0 
L 588 4666 
z
" transform="scale(0.015625)"/>
     <path id="DejaVuSans-Bold-5f" d="M 3200 -916 
L 3200 -1509 
L 0 -1509 
L 0 -916 
L 3200 -916 
z
" transform="scale(0.015625)"/>
     <path id="DejaVuSans-Bold-4b" d="M 588 4666 
L 1791 4666 
L 1791 2963 
L 3525 4666 
L 4922 4666 
L 2675 2456 
L 5153 0 
L 3647 0 
L 1791 1838 
L 1791 0 
L 588 0 
L 588 4666 
z
" transform="scale(0.015625)"/>
     <path id="DejaVuSans-Bold-20" transform="scale(0.015625)"/>
     <path id="DejaVuSans-Bold-7c" d="M 1522 4891 
L 1522 -1509 
L 813 -1509 
L 813 4891 
L 1522 4891 
z
" transform="scale(0.015625)"/>
     <path id="DejaVuSans-Bold-6f" d="M 2203 2784 
Q 1831 2784 1636 2517 
Q 1441 2250 1441 1747 
Q 1441 1244 1636 976 
Q 1831 709 2203 709 
Q 2569 709 2762 976 
Q 2956 1244 2956 1747 
Q 2956 2250 2762 2517 
Q 2569 2784 2203 2784 
z
M 2203 3584 
Q 3106 3584 3614 3096 
Q 4122 2609 4122 1747 
Q 4122 884 3614 396 
Q 3106 -91 2203 -91 
Q 1297 -91 786 396 
Q 275 884 275 1747 
Q 275 2609 786 3096 
Q 1297 3584 2203 3584 
z
" transform="scale(0.015625)"/>
     <path id="DejaVuSans-Bold-6d" d="M 3781 2919 
Q 3994 3244 4286 3414 
Q 4578 3584 4928 3584 
Q 5531 3584 5847 3212 
Q 6163 2841 6163 2131 
L 6163 0 
L 5038 0 
L 5038 1825 
Q 5041 1866 5042 1909 
Q 5044 1953 5044 2034 
Q 5044 2406 4934 2573 
Q 4825 2741 4581 2741 
Q 4263 2741 4089 2478 
Q 3916 2216 3909 1719 
L 3909 0 
L 2784 0 
L 2784 1825 
Q 2784 2406 2684 2573 
Q 2584 2741 2328 2741 
Q 2006 2741 1831 2477 
Q 1656 2213 1656 1722 
L 1656 0 
L 531 0 
L 531 3500 
L 1656 3500 
L 1656 2988 
Q 1863 3284 2130 3434 
Q 2397 3584 2719 3584 
Q 3081 3584 3359 3409 
Q 3638 3234 3781 2919 
z
" transform="scale(0.015625)"/>
     <path id="DejaVuSans-Bold-64" d="M 2919 2988 
L 2919 4863 
L 4044 4863 
L 4044 0 
L 2919 0 
L 2919 506 
Q 2688 197 2409 53 
Q 2131 -91 1766 -91 
Q 1119 -91 703 423 
Q 288 938 288 1747 
Q 288 2556 703 3070 
Q 1119 3584 1766 3584 
Q 2128 3584 2408 3439 
Q 2688 3294 2919 2988 
z
M 2181 722 
Q 2541 722 2730 984 
Q 2919 1247 2919 1747 
Q 2919 2247 2730 2509 
Q 2541 2772 2181 2772 
Q 1825 2772 1636 2509 
Q 1447 2247 1447 1747 
Q 1447 1247 1636 984 
Q 1825 722 2181 722 
z
" transform="scale(0.015625)"/>
     <path id="DejaVuSans-Bold-69" d="M 538 3500 
L 1656 3500 
L 1656 0 
L 538 0 
L 538 3500 
z
M 538 4863 
L 1656 4863 
L 1656 3950 
L 538 3950 
L 538 4863 
z
" transform="scale(0.015625)"/>
     <path id="DejaVuSans-Bold-66" d="M 2841 4863 
L 2841 4128 
L 2222 4128 
Q 1984 4128 1890 4042 
Q 1797 3956 1797 3744 
L 1797 3500 
L 2753 3500 
L 2753 2700 
L 1797 2700 
L 1797 0 
L 678 0 
L 678 2700 
L 122 2700 
L 122 3500 
L 678 3500 
L 678 3744 
Q 678 4316 997 4589 
Q 1316 4863 1984 4863 
L 2841 4863 
z
" transform="scale(0.015625)"/>
     <path id="DejaVuSans-Bold-63" d="M 3366 3391 
L 3366 2478 
Q 3138 2634 2908 2709 
Q 2678 2784 2431 2784 
Q 1963 2784 1702 2511 
Q 1441 2238 1441 1747 
Q 1441 1256 1702 982 
Q 1963 709 2431 709 
Q 2694 709 2930 787 
Q 3166 866 3366 1019 
L 3366 103 
Q 3103 6 2833 -42 
Q 2563 -91 2291 -91 
Q 1344 -91 809 395 
Q 275 881 275 1747 
Q 275 2613 809 3098 
Q 1344 3584 2291 3584 
Q 2566 3584 2833 3536 
Q 3100 3488 3366 3391 
z
" transform="scale(0.015625)"/>
     <path id="DejaVuSans-Bold-61" d="M 2106 1575 
Q 1756 1575 1579 1456 
Q 1403 1338 1403 1106 
Q 1403 894 1545 773 
Q 1688 653 1941 653 
Q 2256 653 2472 879 
Q 2688 1106 2688 1447 
L 2688 1575 
L 2106 1575 
z
M 3816 1997 
L 3816 0 
L 2688 0 
L 2688 519 
Q 2463 200 2181 54 
Q 1900 -91 1497 -91 
Q 953 -91 614 226 
Q 275 544 275 1050 
Q 275 1666 698 1953 
Q 1122 2241 2028 2241 
L 2688 2241 
L 2688 2328 
Q 2688 2594 2478 2717 
Q 2269 2841 1825 2841 
Q 1466 2841 1156 2769 
Q 847 2697 581 2553 
L 581 3406 
Q 941 3494 1303 3539 
Q 1666 3584 2028 3584 
Q 2975 3584 3395 3211 
Q 3816 2838 3816 1997 
z
" transform="scale(0.015625)"/>
     <path id="DejaVuSans-Bold-74" d="M 1759 4494 
L 1759 3500 
L 2913 3500 
L 2913 2700 
L 1759 2700 
L 1759 1216 
Q 1759 972 1856 886 
Q 1953 800 2241 800 
L 2816 800 
L 2816 0 
L 1856 0 
Q 1194 0 917 276 
Q 641 553 641 1216 
L 641 2700 
L 84 2700 
L 84 3500 
L 641 3500 
L 641 4494 
L 1759 4494 
z
" transform="scale(0.015625)"/>
     <path id="DejaVuSans-Bold-6e" d="M 4056 2131 
L 4056 0 
L 2931 0 
L 2931 347 
L 2931 1631 
Q 2931 2084 2911 2256 
Q 2891 2428 2841 2509 
Q 2775 2619 2662 2680 
Q 2550 2741 2406 2741 
Q 2056 2741 1856 2470 
Q 1656 2200 1656 1722 
L 1656 0 
L 538 0 
L 538 3500 
L 1656 3500 
L 1656 2988 
Q 1909 3294 2193 3439 
Q 2478 3584 2822 3584 
Q 3428 3584 3742 3212 
Q 4056 2841 4056 2131 
z
" transform="scale(0.015625)"/>
    </defs>
    <use xlink:href="#DejaVuSans-Bold-47"/>
    <use xlink:href="#DejaVuSans-Bold-4e" transform="translate(82.080078 0)"/>
    <use xlink:href="#DejaVuSans-Bold-4e" transform="translate(165.771484 0)"/>
    <use xlink:href="#DejaVuSans-Bold-5f" transform="translate(249.462891 0)"/>
    <use xlink:href="#DejaVuSans-Bold-4b" transform="translate(299.462891 0)"/>
    <use xlink:href="#DejaVuSans-Bold-20" transform="translate(376.953125 0)"/>
    <use xlink:href="#DejaVuSans-Bold-7c" transform="translate(411.767578 0)"/>
    <use xlink:href="#DejaVuSans-Bold-20" transform="translate(448.291016 0)"/>
    <use xlink:href="#DejaVuSans-Bold-4e" transform="translate(483.105469 0)"/>
    <use xlink:href="#DejaVuSans-Bold-6f" transform="translate(566.796875 0)"/>
    <use xlink:href="#DejaVuSans-Bold-20" transform="translate(635.498047 0)"/>
    <use xlink:href="#DejaVuSans-Bold-6d" transform="translate(670.3125 0)"/>
    <use xlink:href="#DejaVuSans-Bold-6f" transform="translate(774.511719 0)"/>
    <use xlink:href="#DejaVuSans-Bold-64" transform="translate(843.212891 0)"/>
    <use xlink:href="#DejaVuSans-Bold-69" transform="translate(914.794922 0)"/>
    <use xlink:href="#DejaVuSans-Bold-66" transform="translate(949.072266 0)"/>
    <use xlink:href="#DejaVuSans-Bold-69" transform="translate(992.578125 0)"/>
    <use xlink:href="#DejaVuSans-Bold-63" transform="translate(1026.855469 0)"/>
    <use xlink:href="#DejaVuSans-Bold-61" transform="translate(1086.132812 0)"/>
    <use xlink:href="#DejaVuSans-Bold-74" transform="translate(1153.613281 0)"/>
    <use xlink:href="#DejaVuSans-Bold-69" transform="translate(1201.416016 0)"/>
    <use xlink:href="#DejaVuSans-Bold-6f" transform="translate(1235.693359 0)"/>
    <use xlink:href="#DejaVuSans-Bold-6e" transform="translate(1304.394531 0)"/>
   </g>
  </g>
 </g>
 <defs>
  <clipPath id="p86c59e39cd">
   <rect x="65.14" y="46.08" width="464.06" height="282.44"/>
  </clipPath>
 </defs>
</svg>
