<?xml version="1.0" encoding="utf-8" standalone="no"?>
<!DOCTYPE svg PUBLIC "-//W3C//DTD SVG 1.1//EN"
  "http://www.w3.org/Graphics/SVG/1.1/DTD/svg11.dtd">
<svg xmlns:xlink="http://www.w3.org/1999/xlink" width="540pt" height="360pt" viewBox="0 0 540 360" xmlns="http://www.w3.org/2000/svg" version="1.1">
 <metadata>
  <rdf:RDF xmlns:dc="http://purl.org/dc/elements/1.1/" xmlns:cc="http://creativecommons.org/ns#" xmlns:rdf="http://www.w3.org/1999/02/22-rdf-syntax-ns#">
   <cc:Work>
    <dc:type rdf:resource="http://purl.org/dc/dcmitype/StillImage"/>
    <dc:date>2025-08-04T02:53:15.254726</dc:date>
    <dc:format>image/svg+xml</dc:format>
    <dc:creator>
     <cc:Agent>
      <dc:title>Matplotlib v3.10.0, https://matplotlib.org/</dc:title>
     </cc:Agent>
    </dc:creator>
   </cc:Work>
  </rdf:RDF>
 </metadata>
 <defs>
  <style type="text/css">*{stroke-linejoin: round; stroke-linecap: butt}</style>
 </defs>
 <g id="figure_1">
  <g id="patch_1">
   <path d="M 0 360 
L 540 360 
L 540 0 
L 0 0 
z
" style="fill: #ffffff"/>
  </g>
  <g id="axes_1">
   <g id="patch_2">
    <path d="M 10.8 328.52 
L 529.2 328.52 
L 529.2 46.08 
L 10.8 46.08 
z
" style="fill: #eaeaf2"/>
   </g>
   <g id="matplotlib.axis_1">
    <g id="xtick_1">
     <g id="line2d_1">
      <path d="M 20.683699 328.52 
L 20.683699 46.08 
" clip-path="url(#pe9850e091a)" style="fill: none; stroke: #ffffff; stroke-width: 0.8; stroke-linecap: round"/>
     </g>
     <g id="text_1">
      <!-- 0 -->
      <g style="fill: #262626" transform="translate(16.229949 346.157812) scale(0.14 -0.14)">
       <defs>
        <path id="DejaVuSans-30" d="M 2034 4250 
Q 1547 4250 1301 3770 
Q 1056 3291 1056 2328 
Q 1056 1369 1301 889 
Q 1547 409 2034 409 
Q 2525 409 2770 889 
Q 3016 1369 3016 2328 
Q 3016 3291 2770 3770 
Q 2525 4250 2034 4250 
z
M 2034 4750 
Q 2819 4750 3233 4129 
Q 3647 3509 3647 2328 
Q 3647 1150 3233 529 
Q 2819 -91 2034 -91 
Q 1250 -91 836 529 
Q 422 1150 422 2328 
Q 422 3509 836 4129 
Q 1250 4750 2034 4750 
z
" transform="scale(0.015625)"/>
       </defs>
       <use xlink:href="#DejaVuSans-30"/>
      </g>
     </g>
    </g>
    <g id="xtick_2">
     <g id="line2d_2">
      <path d="M 514.868637 328.52 
L 514.868637 46.08 
" clip-path="url(#pe9850e091a)" style="fill: none; stroke: #ffffff; stroke-width: 0.8; stroke-linecap: round"/>
     </g>
     <g id="text_2">
      <!-- 2M -->
      <g style="fill: #262626" transform="translate(504.375199 346.157812) scale(0.14 -0.14)">
       <defs>
        <path id="DejaVuSans-32" d="M 1228 531 
L 3431 531 
L 3431 0 
L 469 0 
L 469 531 
Q 828 903 1448 1529 
Q 2069 2156 2228 2338 
Q 2531 2678 2651 2914 
Q 2772 3150 2772 3378 
Q 2772 3750 2511 3984 
Q 2250 4219 1831 4219 
Q 1534 4219 1204 4116 
Q 875 4013 500 3803 
L 500 4441 
Q 881 4594 1212 4672 
Q 1544 4750 1819 4750 
Q 2544 4750 2975 4387 
Q 3406 4025 3406 3419 
Q 3406 3131 3298 2873 
Q 3191 2616 2906 2266 
Q 2828 2175 2409 1742 
Q 1991 1309 1228 531 
z
" transform="scale(0.015625)"/>
        <path id="DejaVuSans-4d" d="M 628 4666 
L 1569 4666 
L 2759 1491 
L 3956 4666 
L 4897 4666 
L 4897 0 
L 4281 0 
L 4281 4097 
L 3078 897 
L 2444 897 
L 1241 4097 
L 1241 0 
L 628 0 
L 628 4666 
z
" transform="scale(0.015625)"/>
       </defs>
       <use xlink:href="#DejaVuSans-32"/>
       <use xlink:href="#DejaVuSans-4d" transform="translate(63.623047 0)"/>
      </g>
     </g>
    </g>
   </g>
   <g id="matplotlib.axis_2">
    <g id="ytick_1">
     <g id="line2d_3">
      <path d="M 10.8 323.476429 
L 529.2 323.476429 
" clip-path="url(#pe9850e091a)" style="fill: none; stroke: #ffffff; stroke-width: 0.8; stroke-linecap: round"/>
     </g>
    </g>
    <g id="ytick_2">
     <g id="line2d_4">
      <path d="M 10.8 291.954107 
L 529.2 291.954107 
" clip-path="url(#pe9850e091a)" style="fill: none; stroke: #ffffff; stroke-width: 0.8; stroke-linecap: round"/>
     </g>
    </g>
    <g id="ytick_3">
     <g id="line2d_5">
      <path d="M 10.8 260.431786 
L 529.2 260.431786 
" clip-path="url(#pe9850e091a)" style="fill: none; stroke: #ffffff; stroke-width: 0.8; stroke-linecap: round"/>
     </g>
    </g>
    <g id="ytick_4">
     <g id="line2d_6">
      <path d="M 10.8 228.909464 
L 529.2 228.909464 
" clip-path="url(#pe9850e091a)" style="fill: none; stroke: #ffffff; stroke-width: 0.8; stroke-linecap: round"/>
     </g>
    </g>
    <g id="ytick_5">
     <g id="line2d_7">
      <path d="M 10.8 197.387143 
L 529.2 197.387143 
" clip-path="url(#pe9850e091a)" style="fill: none; stroke: #ffffff; stroke-width: 0.8; stroke-linecap: round"/>
     </g>
    </g>
    <g id="ytick_6">
     <g id="line2d_8">
      <path d="M 10.8 165.864821 
L 529.2 165.864821 
" clip-path="url(#pe9850e091a)" style="fill: none; stroke: #ffffff; stroke-width: 0.8; stroke-linecap: round"/>
     </g>
    </g>
    <g id="ytick_7">
     <g id="line2d_9">
      <path d="M 10.8 134.3425 
L 529.2 134.3425 
" clip-path="url(#pe9850e091a)" style="fill: none; stroke: #ffffff; stroke-width: 0.8; stroke-linecap: round"/>
     </g>
    </g>
    <g id="ytick_8">
     <g id="line2d_10">
      <path d="M 10.8 102.820179 
L 529.2 102.820179 
" clip-path="url(#pe9850e091a)" style="fill: none; stroke: #ffffff; stroke-width: 0.8; stroke-linecap: round"/>
     </g>
    </g>
    <g id="ytick_9">
     <g id="line2d_11">
      <path d="M 10.8 71.297857 
L 529.2 71.297857 
" clip-path="url(#pe9850e091a)" style="fill: none; stroke: #ffffff; stroke-width: 0.8; stroke-linecap: round"/>
     </g>
    </g>
   </g>
   <g id="line2d_12">
    <path d="M 20.683699 221.656951 
L 21.69579 218.719037 
L 22.70788 217.296818 
L 23.719971 218.725132 
L 24.732062 220.677122 
L 25.744153 221.503433 
L 26.756243 221.220982 
L 27.768334 219.650855 
L 28.780425 217.226205 
L 29.792516 216.778885 
L 31.816697 222.48385 
L 32.828788 223.177641 
L 33.840879 221.703603 
L 34.852969 219.306272 
L 35.86506 217.988368 
L 37.889242 217.62286 
L 38.901332 217.034617 
L 39.913423 216.157281 
L 41.937605 216.213945 
L 42.949695 214.343651 
L 43.961786 212.054241 
L 44.973877 211.912582 
L 45.985968 213.201085 
L 46.998058 213.588223 
L 48.010149 211.912953 
L 50.034331 206.126685 
L 51.046421 204.150825 
L 52.058512 204.571516 
L 53.070603 207.624122 
L 54.082694 210.102657 
L 55.094784 209.774628 
L 56.106875 209.02088 
L 57.118966 209.998576 
L 58.131057 211.972501 
L 59.143147 213.609909 
L 60.155238 213.633428 
L 62.17942 209.126649 
L 63.19151 208.438832 
L 64.203601 208.642463 
L 66.227783 208.34604 
L 68.251964 208.849283 
L 69.264055 210.147705 
L 70.276146 212.884225 
L 71.288236 214.363836 
L 72.300327 212.294772 
L 75.336599 199.692382 
L 76.34869 196.988457 
L 77.360781 196.325587 
L 78.372872 196.813667 
L 79.384962 198.069361 
L 80.397053 199.74731 
L 81.409144 200.672569 
L 82.421235 201.007255 
L 83.433325 201.040993 
L 84.445416 201.235703 
L 85.457507 202.49006 
L 88.493779 209.064219 
L 89.50587 210.015513 
L 90.517961 209.563133 
L 91.530051 207.754911 
L 92.542142 207.032839 
L 93.554233 209.156398 
L 94.566324 211.54444 
L 95.578414 211.199093 
L 96.590505 209.484629 
L 97.602596 209.230019 
L 98.614687 210.919767 
L 99.626778 213.755689 
L 100.638868 216.038789 
L 101.650959 215.285474 
L 103.675141 206.692717 
L 104.687231 207.321638 
L 105.699322 211.883273 
L 106.711413 214.93589 
L 107.723504 215.356868 
L 108.735594 214.95346 
L 109.747685 214.320092 
L 110.759776 213.047867 
L 111.771867 211.081245 
L 112.783957 210.246966 
L 113.796048 211.86462 
L 114.808139 214.118959 
L 115.82023 214.922408 
L 116.83232 214.556085 
L 118.856502 212.99257 
L 119.868593 211.479451 
L 121.892774 204.522741 
L 122.904865 203.941117 
L 124.929046 209.794788 
L 125.941137 209.758828 
L 127.965319 206.096368 
L 128.977409 205.518423 
L 131.001591 207.613588 
L 132.013682 207.97456 
L 133.025772 207.238983 
L 134.037863 205.454861 
L 135.049954 204.979476 
L 136.062045 206.560068 
L 137.074135 208.669027 
L 138.086226 209.585808 
L 139.098317 208.344096 
L 140.110408 205.878041 
L 141.122498 204.024883 
L 142.134589 203.618655 
L 143.14668 204.949502 
L 144.158771 206.910588 
L 145.170861 206.485764 
L 146.182952 203.175765 
L 147.195043 200.693118 
L 148.207134 201.218765 
L 149.219224 203.84444 
L 151.243406 211.294157 
L 152.255497 211.755507 
L 153.267587 206.902914 
L 154.279678 198.361455 
L 155.291769 192.861575 
L 156.30386 196.197674 
L 157.31595 204.275478 
L 158.328041 208.508894 
L 159.340132 205.862165 
L 160.352223 200.942006 
L 161.364313 201.650734 
L 162.376404 207.578944 
L 163.388495 210.686675 
L 164.400586 209.095253 
L 165.412676 206.969554 
L 166.424767 205.482275 
L 167.436858 202.582838 
L 168.448949 198.706672 
L 169.461039 196.88512 
L 170.47313 198.263254 
L 171.485221 200.355529 
L 172.497312 200.491445 
L 173.509402 199.449966 
L 174.521493 198.72665 
L 175.533584 198.593973 
L 176.545675 198.820619 
L 177.557765 198.124521 
L 178.569856 196.624707 
L 179.581947 195.489901 
L 180.594038 192.949964 
L 181.606129 189.646392 
L 182.618219 189.795934 
L 184.642401 196.511028 
L 186.666582 203.600308 
L 187.678673 202.076305 
L 188.690764 195.164251 
L 189.702855 190.056234 
L 190.714945 191.350213 
L 191.727036 196.269903 
L 192.739127 200.577628 
L 193.751218 200.690355 
L 194.763308 198.464623 
L 195.775399 200.270614 
L 196.78749 203.70796 
L 197.799581 202.929708 
L 198.811671 199.910037 
L 199.823762 198.572209 
L 200.835853 198.38548 
L 202.860034 197.40247 
L 203.872125 195.75349 
L 204.884216 194.598555 
L 205.896307 195.567112 
L 206.908397 196.011866 
L 207.920488 195.212595 
L 208.932579 194.208424 
L 209.94467 193.69579 
L 210.95676 194.747444 
L 211.968851 196.958212 
L 212.980942 198.484632 
L 213.993033 197.763514 
L 215.005123 195.224727 
L 216.017214 193.680075 
L 218.041396 193.938419 
L 219.053486 194.863265 
L 220.065577 196.230495 
L 221.077668 196.090685 
L 222.089759 195.183152 
L 223.101849 196.217907 
L 224.11394 199.35719 
L 225.126031 200.917573 
L 226.138122 199.318765 
L 227.150212 196.6645 
L 228.162303 192.852007 
L 229.174394 187.341052 
L 230.186485 184.770182 
L 231.198575 188.054839 
L 232.210666 192.608768 
L 233.222757 193.238554 
L 234.234848 188.200231 
L 235.246938 180.455728 
L 236.259029 176.337034 
L 237.27112 178.96983 
L 238.283211 183.663728 
L 239.295301 183.207515 
L 240.307392 177.447832 
L 241.319483 169.960578 
L 242.331574 167.700369 
L 243.343664 176.942627 
L 244.355755 189.898331 
L 245.367846 196.587675 
L 246.379937 197.889292 
L 247.392027 198.157913 
L 248.404118 195.423147 
L 249.416209 187.926296 
L 250.4283 182.140497 
L 251.44039 181.727905 
L 252.452481 182.859571 
L 253.464572 182.70835 
L 254.476663 183.003989 
L 255.488753 184.850434 
L 256.500844 186.202494 
L 257.512935 186.34923 
L 258.525026 186.148333 
L 259.537116 186.635373 
L 260.549207 187.58603 
L 261.561298 188.14532 
L 262.573389 189.276289 
L 263.58548 191.280135 
L 264.59757 192.181179 
L 265.609661 191.003373 
L 266.621752 187.904364 
L 268.645933 178.763156 
L 269.658024 175.717442 
L 270.670115 178.132749 
L 271.682206 184.039033 
L 274.718478 198.795623 
L 275.730569 198.177045 
L 277.75475 183.623912 
L 278.766841 179.491619 
L 279.778932 178.730595 
L 280.791022 176.268898 
L 281.803113 168.279142 
L 282.815204 163.008886 
L 283.827295 169.339373 
L 284.839385 180.058319 
L 285.851476 186.180002 
L 286.863567 187.210221 
L 287.875658 187.342338 
L 288.887748 189.87225 
L 289.899839 191.989928 
L 290.91193 190.412886 
L 291.924021 188.443725 
L 292.936111 188.970346 
L 293.948202 190.790943 
L 294.960293 193.99281 
L 295.972384 198.068944 
L 296.984474 198.033697 
L 297.996565 189.564059 
L 299.008656 177.860887 
L 300.020747 172.632681 
L 301.032837 180.142328 
L 302.044928 201.078292 
L 303.057019 216.75119 
L 304.06911 207.771543 
L 305.0812 190.753393 
L 306.093291 184.892709 
L 307.105382 184.619669 
L 308.117473 183.655784 
L 309.129563 184.977118 
L 310.141654 186.582546 
L 312.165836 182.808209 
L 313.177926 183.795281 
L 314.190017 187.640593 
L 315.202108 193.592974 
L 316.214199 197.243846 
L 317.226289 193.752142 
L 318.23838 182.624771 
L 319.250471 165.601726 
L 320.262562 154.619777 
L 321.274652 160.609765 
L 322.286743 173.102285 
L 323.298834 179.580483 
L 324.310925 180.975185 
L 325.323015 180.412655 
L 326.335106 178.314412 
L 327.347197 177.662572 
L 328.359288 178.250916 
L 329.371378 176.182525 
L 330.383469 173.722009 
L 331.39556 174.247738 
L 332.407651 176.082443 
L 333.419741 178.754378 
L 334.431832 183.615987 
L 335.443923 190.083976 
L 336.456014 192.266657 
L 337.468104 186.410235 
L 338.480195 178.207957 
L 339.492286 173.148099 
L 340.504377 173.122863 
L 341.516467 174.353321 
L 342.528558 168.104155 
L 343.540649 159.708386 
L 344.55274 162.26664 
L 345.564831 172.001457 
L 346.576921 180.296654 
L 348.601103 190.161471 
L 349.613194 193.986131 
L 350.625284 193.61298 
L 352.649466 187.942186 
L 353.661557 187.153646 
L 354.673647 191.440277 
L 355.685738 201.209478 
L 356.697829 207.923274 
L 357.70992 203.869112 
L 358.72201 195.704454 
L 359.734101 190.396 
L 360.746192 186.388424 
L 361.758283 181.196176 
L 362.770373 173.73539 
L 363.782464 169.112969 
L 364.794555 173.990098 
L 365.806646 181.912898 
L 366.818736 184.65942 
L 367.830827 183.849626 
L 368.842918 185.675002 
L 369.855009 192.455709 
L 370.867099 197.411663 
L 371.87919 195.154432 
L 372.891281 190.763013 
L 373.903372 190.171959 
L 374.915462 196.724876 
L 375.927553 210.363643 
L 376.939644 216.86919 
L 377.951735 206.248936 
L 378.963825 194.022035 
L 379.975916 190.476966 
L 380.988007 188.737209 
L 382.000098 183.438092 
L 383.012188 174.34269 
L 384.024279 168.992133 
L 385.03637 174.371681 
L 386.048461 181.917528 
L 387.060551 184.441216 
L 388.072642 185.966331 
L 389.084733 188.408395 
L 390.096824 187.751066 
L 392.121005 177.014184 
L 393.133096 176.007034 
L 394.145187 179.294341 
L 395.157277 188.367739 
L 396.169368 203.682655 
L 397.181459 210.695937 
L 398.19355 198.622133 
L 399.20564 183.256372 
L 400.217731 177.682117 
L 401.229822 176.349511 
L 402.241913 170.819839 
L 404.266094 147.893921 
L 405.278185 149.68986 
L 406.290276 158.719033 
L 407.302366 162.354329 
L 408.314457 163.53651 
L 409.326548 169.313063 
L 410.338639 171.051465 
L 411.350729 165.678552 
L 412.36282 166.564029 
L 413.374911 175.194116 
L 414.387002 182.243042 
L 415.399092 186.018444 
L 417.423274 198.38783 
L 418.435365 195.065826 
L 420.459546 176.666406 
L 421.471637 172.543324 
L 422.483728 171.689512 
L 423.495818 171.427323 
L 424.507909 171.495492 
L 425.52 172.749984 
L 426.532091 174.979123 
L 427.544182 175.909783 
L 428.556272 173.480762 
L 429.568363 165.914426 
L 430.580454 151.858803 
L 431.592545 142.660767 
L 432.604635 150.745336 
L 433.616726 164.028601 
L 435.640908 176.659219 
L 436.652998 187.480771 
L 437.665089 196.171151 
L 438.67718 194.567461 
L 439.689271 186.172546 
L 442.725543 154.785631 
L 443.737634 146.615062 
L 444.749724 147.946795 
L 445.761815 158.405849 
L 446.773906 165.036153 
L 447.785997 167.035097 
L 448.798087 169.725624 
L 449.810178 175.281626 
L 450.822269 185.004858 
L 451.83436 190.380437 
L 452.84645 183.515517 
L 453.858541 175.460492 
L 454.870632 176.602813 
L 455.882723 182.659319 
L 456.894813 187.245803 
L 457.906904 186.586234 
L 459.931086 173.705474 
L 460.943176 174.035406 
L 461.955267 179.716454 
L 462.967358 190.059973 
L 463.979449 209.29187 
L 464.991539 224.561704 
L 466.00363 217.904378 
L 467.015721 199.823601 
L 468.027812 186.510846 
L 469.039902 179.699618 
L 470.051993 174.72108 
L 471.064084 167.852156 
L 472.076175 162.50056 
L 473.088265 163.072863 
L 474.100356 166.717486 
L 475.112447 171.738651 
L 476.124538 179.454279 
L 477.136628 189.520178 
L 478.148719 195.314625 
L 479.16081 189.966831 
L 480.172901 179.934202 
L 481.184991 173.435729 
L 483.209173 168.192291 
L 484.221264 161.276208 
L 485.233354 156.55207 
L 486.245445 161.642863 
L 487.257536 170.426711 
L 488.269627 176.474184 
L 489.281717 181.02381 
L 490.293808 184.082366 
L 491.305899 182.013257 
L 492.31799 176.538663 
L 493.33008 174.214921 
L 494.342171 175.662939 
L 495.354262 179.96438 
L 496.366353 192.313568 
L 497.378443 213.770867 
L 498.390534 223.684532 
L 499.402625 207.421289 
L 500.414716 186.430298 
L 501.426806 178.948925 
L 502.438897 180.276358 
L 503.450988 183.136776 
L 504.463079 183.857095 
L 505.475169 181.951908 
L 506.48726 181.271446 
L 507.499351 182.631555 
L 508.511442 183.504518 
L 509.523533 183.533899 
L 510.535623 182.958071 
L 511.547714 180.719039 
L 513.571896 172.742824 
L 514.583986 170.719506 
L 515.596077 172.295242 
L 516.608168 180.703053 
L 517.620259 195.663971 
L 518.632349 205.333535 
L 519.64444 199.359746 
L 520.656531 186.702423 
L 521.668622 178.522151 
L 523.692803 173.241256 
L 524.704894 162.953175 
L 525.716985 149.996661 
L 525.716985 149.996661 
" clip-path="url(#pe9850e091a)" style="fill: none; stroke: #023eff; stroke-linecap: round"/>
   </g>
   <g id="line2d_13">
    <path d="M 20.683699 221.656951 
L 21.69579 218.719037 
L 22.70788 217.296818 
L 23.719971 218.725132 
L 24.732062 220.677122 
L 25.744153 221.503433 
L 26.756243 221.220982 
L 27.768334 219.650855 
L 28.780425 217.226205 
L 29.792516 216.778885 
L 31.816697 222.48385 
L 32.828788 223.177641 
L 33.840879 221.703603 
L 34.852969 219.306272 
L 35.86506 217.988368 
L 37.889242 217.62286 
L 38.901332 217.034617 
L 39.913423 216.157281 
L 41.937605 216.213945 
L 42.949695 214.343651 
L 43.961786 212.054241 
L 44.973877 211.912582 
L 45.985968 213.201085 
L 46.998058 213.588223 
L 48.010149 211.912953 
L 50.034331 206.126685 
L 51.046421 204.150825 
L 52.058512 204.571516 
L 53.070603 207.624122 
L 54.082694 210.102657 
L 55.094784 209.774628 
L 56.106875 209.02088 
L 57.118966 209.998576 
L 58.131057 211.972501 
L 59.143147 213.609909 
L 60.155238 213.633428 
L 62.17942 209.126649 
L 63.19151 208.438832 
L 64.203601 208.642463 
L 66.227783 208.34604 
L 68.251964 208.849283 
L 69.264055 210.147705 
L 70.276146 212.884225 
L 71.288236 214.363836 
L 72.300327 212.294772 
L 75.336599 199.692382 
L 76.34869 196.988457 
L 77.360781 196.325587 
L 78.372872 196.813667 
L 79.384962 198.069361 
L 80.397053 199.74731 
L 81.409144 200.672569 
L 82.421235 201.007255 
L 83.433325 201.040993 
L 84.445416 201.235703 
L 85.457507 202.49006 
L 88.493779 209.064219 
L 89.50587 210.015513 
L 90.517961 209.563133 
L 91.530051 207.754911 
L 92.542142 207.032839 
L 93.554233 209.156398 
L 94.566324 211.54444 
L 95.578414 211.199093 
L 96.590505 209.484629 
L 97.602596 209.230019 
L 98.614687 210.919767 
L 99.626778 213.755689 
L 100.638868 216.038789 
L 101.650959 215.285474 
L 103.675141 206.692717 
L 104.687231 207.321638 
L 105.699322 211.883273 
L 106.711413 214.93589 
L 107.723504 215.356868 
L 108.735594 214.95346 
L 109.747685 214.320092 
L 110.759776 213.047867 
L 111.771867 211.081245 
L 112.783957 210.246966 
L 113.796048 211.86462 
L 114.808139 214.118959 
L 115.82023 214.922408 
L 116.83232 214.556085 
L 118.856502 212.99257 
L 119.868593 211.479451 
L 121.892774 204.522741 
L 122.904865 203.941117 
L 124.929046 209.794788 
L 125.941137 209.758828 
L 127.965319 206.096368 
L 128.977409 205.518423 
L 131.001591 207.613588 
L 132.013682 207.97456 
L 133.025772 207.238983 
L 134.037863 205.454861 
L 135.049954 204.979476 
L 136.062045 206.560068 
L 137.074135 208.669027 
L 138.086226 209.585808 
L 139.098317 208.344096 
L 140.110408 205.878041 
L 141.122498 204.024883 
L 142.134589 203.618655 
L 143.14668 204.949502 
L 144.158771 206.910588 
L 145.170861 206.485764 
L 146.182952 203.175765 
L 147.195043 200.693118 
L 148.207134 201.218765 
L 149.219224 203.84444 
L 151.243406 211.294157 
L 152.255497 211.755507 
L 153.267587 206.902914 
L 154.279678 198.361455 
L 155.291769 192.861575 
L 156.30386 196.197674 
L 157.31595 204.275478 
L 158.328041 208.508894 
L 159.340132 205.862165 
L 160.352223 200.942006 
L 161.364313 201.650734 
L 162.376404 207.578944 
L 163.388495 210.686675 
L 164.400586 209.095253 
L 165.412676 206.969554 
L 166.424767 205.482275 
L 167.436858 202.582838 
L 168.448949 198.706672 
L 169.461039 196.88512 
L 170.47313 198.263254 
L 171.485221 200.355529 
L 172.497312 200.491445 
L 173.509402 199.449966 
L 174.521493 198.72665 
L 175.533584 198.593973 
L 176.545675 198.820619 
L 177.557765 198.124521 
L 178.569856 196.624707 
L 179.581947 195.489901 
L 180.594038 192.949964 
L 181.606129 189.646392 
L 182.618219 189.795934 
L 184.642401 196.511028 
L 186.666582 203.600308 
L 187.678673 202.076305 
L 188.690764 195.164251 
L 189.702855 190.056234 
L 190.714945 191.350213 
L 191.727036 196.269903 
L 192.739127 200.577628 
L 193.751218 200.690355 
L 194.763308 198.464623 
L 195.775399 200.270614 
L 196.78749 203.70796 
L 197.799581 202.929708 
L 198.811671 199.910037 
L 199.823762 198.572209 
L 200.835853 198.38548 
L 202.860034 197.40247 
L 203.872125 195.75349 
L 204.884216 194.598555 
L 205.896307 195.567112 
L 206.908397 196.011866 
L 207.920488 195.212595 
L 208.932579 194.208424 
L 209.94467 193.69579 
L 210.95676 194.747444 
L 211.968851 196.958212 
L 212.980942 198.484632 
L 213.993033 197.763514 
L 215.005123 195.224727 
L 216.017214 193.680075 
L 218.041396 193.938419 
L 219.053486 194.863265 
L 220.065577 196.230495 
L 221.077668 196.090685 
L 222.089759 195.183152 
L 223.101849 196.217907 
L 224.11394 199.35719 
L 225.126031 200.917573 
L 226.138122 199.318765 
L 227.150212 196.6645 
L 228.162303 192.852007 
L 229.174394 187.341052 
L 230.186485 184.770182 
L 231.198575 188.054839 
L 232.210666 192.608768 
L 233.222757 193.238554 
L 234.234848 188.200231 
L 235.246938 180.455728 
L 236.259029 176.337034 
L 237.27112 178.96983 
L 238.283211 183.663728 
L 239.295301 183.207515 
L 240.307392 177.447832 
L 241.319483 169.960578 
L 242.331574 167.700369 
L 243.343664 176.942627 
L 244.355755 189.898331 
L 245.367846 196.587675 
L 246.379937 197.889292 
L 247.392027 198.157913 
L 248.404118 195.423147 
L 249.416209 187.926296 
L 250.4283 182.140497 
L 251.44039 181.727905 
L 252.452481 182.859571 
L 253.464572 182.70835 
L 254.476663 183.003989 
L 255.488753 184.850434 
L 256.500844 186.202494 
L 257.512935 186.34923 
L 258.525026 186.148333 
L 259.537116 186.635373 
L 260.549207 187.58603 
L 261.561298 188.14532 
L 262.573389 189.276289 
L 263.58548 191.280135 
L 264.59757 192.181179 
L 265.609661 191.003373 
L 266.621752 187.904364 
L 268.645933 178.763156 
L 269.658024 175.717442 
L 270.670115 178.132749 
L 271.682206 184.039033 
L 274.718478 198.795623 
L 275.730569 198.177045 
L 277.75475 183.623912 
L 278.766841 179.491619 
L 279.778932 178.730595 
L 280.791022 176.268898 
L 281.803113 168.279142 
L 282.815204 163.008886 
L 283.827295 169.339373 
L 284.839385 180.058319 
L 285.851476 186.180002 
L 286.863567 187.210221 
L 287.875658 187.342338 
L 288.887748 189.87225 
L 289.899839 191.989928 
L 290.91193 190.412886 
L 291.924021 188.443725 
L 292.936111 188.970346 
L 293.948202 190.790943 
L 294.960293 193.99281 
L 295.972384 198.068944 
L 296.984474 198.033697 
L 297.996565 189.564059 
L 299.008656 177.860887 
L 300.020747 172.632681 
L 301.032837 180.142328 
L 302.044928 201.078292 
L 303.057019 216.75119 
L 304.06911 207.771543 
L 305.0812 190.753393 
L 306.093291 184.892709 
L 307.105382 184.619669 
L 308.117473 183.655784 
L 309.129563 184.977118 
L 310.141654 186.582546 
L 312.165836 182.808209 
L 313.177926 183.795281 
L 314.190017 187.640593 
L 315.202108 193.592974 
L 316.214199 197.243846 
L 317.226289 193.752142 
L 318.23838 182.624771 
L 319.250471 165.601726 
L 320.262562 154.619777 
L 321.274652 160.609765 
L 322.286743 173.102285 
L 323.298834 179.580483 
L 324.310925 180.975185 
L 325.323015 180.412655 
L 326.335106 178.314412 
L 327.347197 177.662572 
L 328.359288 178.250916 
L 329.371378 176.182525 
L 330.383469 173.722009 
L 331.39556 174.247738 
L 332.407651 176.082443 
L 333.419741 178.754378 
L 334.431832 183.615987 
L 335.443923 190.083976 
L 336.456014 192.266657 
L 337.468104 186.410235 
L 338.480195 178.207957 
L 339.492286 173.148099 
L 340.504377 173.122863 
L 341.516467 174.353321 
L 342.528558 168.104155 
L 343.540649 159.708386 
L 344.55274 162.26664 
L 345.564831 172.001457 
L 346.576921 180.296654 
L 348.601103 190.161471 
L 349.613194 193.986131 
L 350.625284 193.61298 
L 352.649466 187.942186 
L 353.661557 187.153646 
L 354.673647 191.440277 
L 355.685738 201.209478 
L 356.697829 207.923274 
L 357.70992 203.869112 
L 358.72201 195.704454 
L 359.734101 190.396 
L 360.746192 186.388424 
L 361.758283 181.196176 
L 362.770373 173.73539 
L 363.782464 169.112969 
L 364.794555 173.990098 
L 365.806646 181.912898 
L 366.818736 184.65942 
L 367.830827 183.849626 
L 368.842918 185.675002 
L 369.855009 192.455709 
L 370.867099 197.411663 
L 371.87919 195.154432 
L 372.891281 190.763013 
L 373.903372 190.171959 
L 374.915462 196.724876 
L 375.927553 210.363643 
L 376.939644 216.86919 
L 377.951735 206.248936 
L 378.963825 194.022035 
L 379.975916 190.476966 
L 380.988007 188.737209 
L 382.000098 183.438092 
L 383.012188 174.34269 
L 384.024279 168.992133 
L 385.03637 174.371681 
L 386.048461 181.917528 
L 387.060551 184.441216 
L 388.072642 185.966331 
L 389.084733 188.408395 
L 390.096824 187.751066 
L 392.121005 177.014184 
L 393.133096 176.007034 
L 394.145187 179.294341 
L 395.157277 188.367739 
L 396.169368 203.682655 
L 397.181459 210.695937 
L 398.19355 198.622133 
L 399.20564 183.256372 
L 400.217731 177.682117 
L 401.229822 176.349511 
L 402.241913 170.819839 
L 404.266094 147.893921 
L 405.278185 149.68986 
L 406.290276 158.719033 
L 407.302366 162.354329 
L 408.314457 163.53651 
L 409.326548 169.313063 
L 410.338639 171.051465 
L 411.350729 165.678552 
L 412.36282 166.564029 
L 413.374911 175.194116 
L 414.387002 182.243042 
L 415.399092 186.018444 
L 417.423274 198.38783 
L 418.435365 195.065826 
L 420.459546 176.666406 
L 421.471637 172.543324 
L 422.483728 171.689512 
L 423.495818 171.427323 
L 424.507909 171.495492 
L 425.52 172.749984 
L 426.532091 174.979123 
L 427.544182 175.909783 
L 428.556272 173.480762 
L 429.568363 165.914426 
L 430.580454 151.858803 
L 431.592545 142.660767 
L 432.604635 150.745336 
L 433.616726 164.028601 
L 435.640908 176.659219 
L 436.652998 187.480771 
L 437.665089 196.171151 
L 438.67718 194.567461 
L 439.689271 186.172546 
L 442.725543 154.785631 
L 443.737634 146.615062 
L 444.749724 147.946795 
L 445.761815 158.405849 
L 446.773906 165.036153 
L 447.785997 167.035097 
L 448.798087 169.725624 
L 449.810178 175.281626 
L 450.822269 185.004858 
L 451.83436 190.380437 
L 452.84645 183.515517 
L 453.858541 175.460492 
L 454.870632 176.602813 
L 455.882723 182.659319 
L 456.894813 187.245803 
L 457.906904 186.586234 
L 459.931086 173.705474 
L 460.943176 174.035406 
L 461.955267 179.716454 
L 462.967358 190.059973 
L 463.979449 209.29187 
L 464.991539 224.561704 
L 466.00363 217.904378 
L 467.015721 199.823601 
L 468.027812 186.510846 
L 469.039902 179.699618 
L 470.051993 174.72108 
L 471.064084 167.852156 
L 472.076175 162.50056 
L 473.088265 163.072863 
L 474.100356 166.717486 
L 475.112447 171.738651 
L 476.124538 179.454279 
L 477.136628 189.520178 
L 478.148719 195.314625 
L 479.16081 189.966831 
L 480.172901 179.934202 
L 481.184991 173.435729 
L 483.209173 168.192291 
L 484.221264 161.276208 
L 485.233354 156.55207 
L 486.245445 161.642863 
L 487.257536 170.426711 
L 488.269627 176.474184 
L 489.281717 181.02381 
L 490.293808 184.082366 
L 491.305899 182.013257 
L 492.31799 176.538663 
L 493.33008 174.214921 
L 494.342171 175.662939 
L 495.354262 179.96438 
L 496.366353 192.313568 
L 497.378443 213.770867 
L 498.390534 223.684532 
L 499.402625 207.421289 
L 500.414716 186.430298 
L 501.426806 178.948925 
L 502.438897 180.276358 
L 503.450988 183.136776 
L 504.463079 183.857095 
L 505.475169 181.951908 
L 506.48726 181.271446 
L 507.499351 182.631555 
L 508.511442 183.504518 
L 509.523533 183.533899 
L 510.535623 182.958071 
L 511.547714 180.719039 
L 513.571896 172.742824 
L 514.583986 170.719506 
L 515.596077 172.295242 
L 516.608168 180.703053 
L 517.620259 195.663971 
L 518.632349 205.333535 
L 519.64444 199.359746 
L 520.656531 186.702423 
L 521.668622 178.522151 
L 523.692803 173.241256 
L 524.704894 162.953175 
L 525.716985 149.996661 
L 525.716985 149.996661 
" clip-path="url(#pe9850e091a)" style="fill: none; stroke: #ff7c00; stroke-linecap: round"/>
   </g>
   <g id="line2d_14">
    <path d="M 20.683699 323.476429 
L 25.744153 319.155678 
L 30.804606 314.2848 
L 35.86506 307.473385 
L 40.925514 306.306117 
L 45.985968 303.630623 
L 51.046421 294.5249 
L 56.106875 285.179327 
L 61.167329 277.64654 
L 66.227783 273.719042 
L 71.288236 263.759378 
L 76.34869 255.918333 
L 81.409144 248.973929 
L 86.469598 237.570867 
L 91.530051 218.506121 
L 96.590505 195.186723 
L 101.650959 167.233271 
L 106.711413 145.988459 
L 111.771867 130.250829 
L 116.83232 118.623191 
L 121.892774 114.460534 
L 126.953228 111.977402 
L 132.013682 105.154937 
L 137.074135 101.285416 
L 142.134589 102.158807 
L 147.195043 97.313748 
L 152.255497 95.099236 
L 157.31595 98.301336 
L 162.376404 96.761932 
L 167.436858 98.500067 
L 172.497312 96.190618 
L 177.557765 86.559346 
L 182.618219 84.929963 
L 187.678673 86.156958 
L 192.739127 86.179848 
L 197.799581 85.119211 
L 202.860034 87.702511 
L 207.920488 92.786879 
L 212.980942 86.954955 
L 218.041396 82.630659 
L 223.101849 82.161934 
L 228.162303 87.616161 
L 233.222757 89.064552 
L 238.283211 89.440578 
L 243.343664 85.168438 
L 248.404118 80.49537 
L 253.464572 79.956123 
L 258.525026 77.825841 
L 263.58548 75.814955 
L 268.645933 77.340893 
L 273.706387 76.882609 
L 278.766841 75.944598 
L 283.827295 76.353641 
L 288.887748 75.246618 
L 293.948202 76.620338 
L 299.008656 82.648875 
L 304.06911 88.027007 
L 309.129563 84.303133 
L 314.190017 78.311311 
L 319.250471 77.5913 
L 324.310925 84.420316 
L 329.371378 95.597271 
L 334.431832 94.758422 
L 339.492286 95.382205 
L 344.55274 94.834044 
L 349.613194 92.669221 
L 354.673647 86.133503 
L 359.734101 79.601079 
L 364.794555 79.958866 
L 369.855009 83.649718 
L 374.915462 82.501022 
L 379.975916 82.602072 
L 385.03637 81.565844 
L 390.096824 74.725039 
L 395.157277 71.297857 
L 400.217731 77.614961 
L 405.278185 91.800595 
L 410.338639 91.454287 
L 415.399092 88.427094 
L 420.459546 96.288455 
L 425.52 101.024399 
L 430.580454 95.28868 
L 435.640908 94.411823 
L 440.701361 99.699698 
L 445.761815 104.928186 
L 450.822269 109.010966 
L 455.882723 108.933551 
L 460.943176 104.2019 
L 466.00363 104.726951 
L 471.064084 104.891875 
L 476.124538 99.481723 
L 481.184991 94.145142 
L 486.245445 94.912358 
L 491.305899 91.885916 
L 496.366353 89.748902 
L 501.426806 86.875171 
L 506.48726 89.640925 
L 511.547714 95.039787 
L 516.608168 93.566678 
L 521.668622 91.480889 
" clip-path="url(#pe9850e091a)" style="fill: none; stroke: #000000; stroke-width: 1.5; stroke-linecap: round"/>
   </g>
   <g id="line2d_15">
    <path d="M 20.683699 72.654879 
L 25.744153 77.398394 
L 30.804606 87.702516 
L 35.86506 104.441379 
L 40.925514 123.980868 
L 45.985968 146.723772 
L 51.046421 170.74862 
L 56.106875 191.935512 
L 61.167329 213.110957 
L 66.227783 233.114899 
L 71.288236 253.475274 
L 76.34869 267.194059 
L 81.409144 272.441058 
L 86.469598 275.32161 
L 91.530051 273.529953 
L 96.590505 265.166001 
L 101.650959 253.116179 
L 106.711413 240.211977 
L 111.771867 229.967441 
L 116.83232 223.997142 
L 121.892774 223.933655 
L 126.953228 229.441831 
L 132.013682 236.426796 
L 137.074135 241.886051 
L 142.134589 243.835904 
L 147.195043 242.949448 
L 152.255497 246.217127 
L 157.31595 251.454881 
L 162.376404 251.943088 
L 167.436858 253.675198 
L 172.497312 258.367654 
L 177.557765 261.706126 
L 182.618219 267.588827 
L 187.678673 271.670962 
L 192.739127 275.293441 
L 197.799581 277.156453 
L 202.860034 279.653947 
L 207.920488 283.154787 
L 212.980942 280.666264 
L 218.041396 279.890194 
L 223.101849 281.327016 
L 228.162303 281.230176 
L 233.222757 282.323543 
L 238.283211 285.492938 
L 243.343664 286.638287 
L 248.404118 287.278113 
L 253.464572 291.148083 
L 258.525026 289.710061 
L 263.58548 286.913225 
L 268.645933 288.085617 
L 273.706387 291.716999 
L 278.766841 295.537315 
L 283.827295 298.250729 
L 288.887748 299.649432 
L 293.948202 300.401252 
L 299.008656 303.830351 
L 304.06911 307.043184 
L 309.129563 307.207308 
L 314.190017 307.733336 
L 319.250471 309.365492 
L 324.310925 314.112434 
L 329.371378 319.666723 
L 334.431832 318.068089 
L 339.492286 312.397654 
L 344.55274 306.350415 
L 349.613194 301.85865 
L 354.673647 300.931349 
L 359.734101 301.673184 
L 364.794555 301.326812 
L 369.855009 300.622383 
L 374.915462 300.834121 
L 379.975916 302.271984 
L 385.03637 302.143111 
L 390.096824 300.802901 
L 395.157277 298.108922 
L 400.217731 298.454202 
L 405.278185 303.085406 
L 410.338639 302.787753 
L 415.399092 303.511666 
L 420.459546 307.220837 
L 425.52 310.093197 
L 430.580454 310.83394 
L 435.640908 311.071327 
L 440.701361 311.782988 
L 445.761815 310.973571 
L 450.822269 312.838792 
L 455.882723 312.538935 
L 460.943176 312.128396 
L 466.00363 312.451697 
L 471.064084 312.689304 
L 476.124538 312.805397 
L 481.184991 313.266151 
L 486.245445 311.73802 
L 491.305899 308.571223 
L 496.366353 307.965128 
L 501.426806 307.255035 
L 506.48726 307.011248 
L 511.547714 307.220183 
L 516.608168 310.486043 
L 521.668622 313.753871 
" clip-path="url(#pe9850e091a)" style="fill: none; stroke: #8b2be2; stroke-width: 1.5; stroke-linecap: round"/>
   </g>
   <g id="patch_3">
    <path d="M 10.8 328.52 
L 10.8 46.08 
" style="fill: none; stroke: #ffffff; stroke-width: 0.8; stroke-linejoin: miter; stroke-linecap: square"/>
   </g>
   <g id="patch_4">
    <path d="M 529.2 328.52 
L 529.2 46.08 
" style="fill: none; stroke: #ffffff; stroke-width: 0.8; stroke-linejoin: miter; stroke-linecap: square"/>
   </g>
   <g id="patch_5">
    <path d="M 10.8 328.52 
L 529.2 328.52 
" style="fill: none; stroke: #ffffff; stroke-width: 0.8; stroke-linejoin: miter; stroke-linecap: square"/>
   </g>
   <g id="patch_6">
    <path d="M 10.8 46.08 
L 529.2 46.08 
" style="fill: none; stroke: #ffffff; stroke-width: 0.8; stroke-linejoin: miter; stroke-linecap: square"/>
   </g>
  </g>
  <g id="text_3">
   <!-- CMU-Net | No Mod -->
   <g style="fill: #262626" transform="translate(146.630625 25.54125) scale(0.24 -0.24)">
    <defs>
     <path id="DejaVuSans-Bold-43" d="M 4288 256 
Q 3956 84 3597 -3 
Q 3238 -91 2847 -91 
Q 1681 -91 1000 561 
Q 319 1213 319 2328 
Q 319 3447 1000 4098 
Q 1681 4750 2847 4750 
Q 3238 4750 3597 4662 
Q 3956 4575 4288 4403 
L 4288 3438 
Q 3953 3666 3628 3772 
Q 3303 3878 2944 3878 
Q 2300 3878 1931 3465 
Q 1563 3053 1563 2328 
Q 1563 1606 1931 1193 
Q 2300 781 2944 781 
Q 3303 781 3628 887 
Q 3953 994 4288 1222 
L 4288 256 
z
" transform="scale(0.015625)"/>
     <path id="DejaVuSans-Bold-4d" d="M 588 4666 
L 2119 4666 
L 3181 2169 
L 4250 4666 
L 5778 4666 
L 5778 0 
L 4641 0 
L 4641 3413 
L 3566 897 
L 2803 897 
L 1728 3413 
L 1728 0 
L 588 0 
L 588 4666 
z
" transform="scale(0.015625)"/>
     <path id="DejaVuSans-Bold-55" d="M 588 4666 
L 1791 4666 
L 1791 1869 
Q 1791 1291 1980 1042 
Q 2169 794 2597 794 
Q 3028 794 3217 1042 
Q 3406 1291 3406 1869 
L 3406 4666 
L 4609 4666 
L 4609 1869 
Q 4609 878 4112 393 
Q 3616 -91 2597 -91 
Q 1581 -91 1084 393 
Q 588 878 588 1869 
L 588 4666 
z
" transform="scale(0.015625)"/>
     <path id="DejaVuSans-Bold-2d" d="M 347 2297 
L 2309 2297 
L 2309 1388 
L 347 1388 
L 347 2297 
z
" transform="scale(0.015625)"/>
     <path id="DejaVuSans-Bold-4e" d="M 588 4666 
L 1931 4666 
L 3628 1466 
L 3628 4666 
L 4769 4666 
L 4769 0 
L 3425 0 
L 1728 3200 
L 1728 0 
L 588 0 
L 588 4666 
z
" transform="scale(0.015625)"/>
     <path id="DejaVuSans-Bold-65" d="M 4031 1759 
L 4031 1441 
L 1416 1441 
Q 1456 1047 1700 850 
Q 1944 653 2381 653 
Q 2734 653 3104 758 
Q 3475 863 3866 1075 
L 3866 213 
Q 3469 63 3072 -14 
Q 2675 -91 2278 -91 
Q 1328 -91 801 392 
Q 275 875 275 1747 
Q 275 2603 792 3093 
Q 1309 3584 2216 3584 
Q 3041 3584 3536 3087 
Q 4031 2591 4031 1759 
z
M 2881 2131 
Q 2881 2450 2695 2645 
Q 2509 2841 2209 2841 
Q 1884 2841 1681 2658 
Q 1478 2475 1428 2131 
L 2881 2131 
z
" transform="scale(0.015625)"/>
     <path id="DejaVuSans-Bold-74" d="M 1759 4494 
L 1759 3500 
L 2913 3500 
L 2913 2700 
L 1759 2700 
L 1759 1216 
Q 1759 972 1856 886 
Q 1953 800 2241 800 
L 2816 800 
L 2816 0 
L 1856 0 
Q 1194 0 917 276 
Q 641 553 641 1216 
L 641 2700 
L 84 2700 
L 84 3500 
L 641 3500 
L 641 4494 
L 1759 4494 
z
" transform="scale(0.015625)"/>
     <path id="DejaVuSans-Bold-20" transform="scale(0.015625)"/>
     <path id="DejaVuSans-Bold-7c" d="M 1522 4891 
L 1522 -1509 
L 813 -1509 
L 813 4891 
L 1522 4891 
z
" transform="scale(0.015625)"/>
     <path id="DejaVuSans-Bold-6f" d="M 2203 2784 
Q 1831 2784 1636 2517 
Q 1441 2250 1441 1747 
Q 1441 1244 1636 976 
Q 1831 709 2203 709 
Q 2569 709 2762 976 
Q 2956 1244 2956 1747 
Q 2956 2250 2762 2517 
Q 2569 2784 2203 2784 
z
M 2203 3584 
Q 3106 3584 3614 3096 
Q 4122 2609 4122 1747 
Q 4122 884 3614 396 
Q 3106 -91 2203 -91 
Q 1297 -91 786 396 
Q 275 884 275 1747 
Q 275 2609 786 3096 
Q 1297 3584 2203 3584 
z
" transform="scale(0.015625)"/>
     <path id="DejaVuSans-Bold-64" d="M 2919 2988 
L 2919 4863 
L 4044 4863 
L 4044 0 
L 2919 0 
L 2919 506 
Q 2688 197 2409 53 
Q 2131 -91 1766 -91 
Q 1119 -91 703 423 
Q 288 938 288 1747 
Q 288 2556 703 3070 
Q 1119 3584 1766 3584 
Q 2128 3584 2408 3439 
Q 2688 3294 2919 2988 
z
M 2181 722 
Q 2541 722 2730 984 
Q 2919 1247 2919 1747 
Q 2919 2247 2730 2509 
Q 2541 2772 2181 2772 
Q 1825 2772 1636 2509 
Q 1447 2247 1447 1747 
Q 1447 1247 1636 984 
Q 1825 722 2181 722 
z
" transform="scale(0.015625)"/>
    </defs>
    <use xlink:href="#DejaVuSans-Bold-43"/>
    <use xlink:href="#DejaVuSans-Bold-4d" transform="translate(73.388672 0)"/>
    <use xlink:href="#DejaVuSans-Bold-55" transform="translate(172.900391 0)"/>
    <use xlink:href="#DejaVuSans-Bold-2d" transform="translate(254.101562 0)"/>
    <use xlink:href="#DejaVuSans-Bold-4e" transform="translate(295.605469 0)"/>
    <use xlink:href="#DejaVuSans-Bold-65" transform="translate(379.296875 0)"/>
    <use xlink:href="#DejaVuSans-Bold-74" transform="translate(447.119141 0)"/>
    <use xlink:href="#DejaVuSans-Bold-20" transform="translate(494.921875 0)"/>
    <use xlink:href="#DejaVuSans-Bold-7c" transform="translate(529.736328 0)"/>
    <use xlink:href="#DejaVuSans-Bold-20" transform="translate(566.259766 0)"/>
    <use xlink:href="#DejaVuSans-Bold-4e" transform="translate(601.074219 0)"/>
    <use xlink:href="#DejaVuSans-Bold-6f" transform="translate(684.765625 0)"/>
    <use xlink:href="#DejaVuSans-Bold-20" transform="translate(753.466797 0)"/>
    <use xlink:href="#DejaVuSans-Bold-4d" transform="translate(788.28125 0)"/>
    <use xlink:href="#DejaVuSans-Bold-6f" transform="translate(887.792969 0)"/>
    <use xlink:href="#DejaVuSans-Bold-64" transform="translate(956.494141 0)"/>
   </g>
  </g>
 </g>
 <defs>
  <clipPath id="pe9850e091a">
   <rect x="10.8" y="46.08" width="518.4" height="282.44"/>
  </clipPath>
 </defs>
</svg>
