<?xml version="1.0" encoding="utf-8" standalone="no"?>
<!DOCTYPE svg PUBLIC "-//W3C//DTD SVG 1.1//EN"
  "http://www.w3.org/Graphics/SVG/1.1/DTD/svg11.dtd">
<svg xmlns:xlink="http://www.w3.org/1999/xlink" width="540pt" height="360pt" viewBox="0 0 540 360" xmlns="http://www.w3.org/2000/svg" version="1.1">
 <metadata>
  <rdf:RDF xmlns:dc="http://purl.org/dc/elements/1.1/" xmlns:cc="http://creativecommons.org/ns#" xmlns:rdf="http://www.w3.org/1999/02/22-rdf-syntax-ns#">
   <cc:Work>
    <dc:type rdf:resource="http://purl.org/dc/dcmitype/StillImage"/>
    <dc:date>2025-08-04T02:53:05.167241</dc:date>
    <dc:format>image/svg+xml</dc:format>
    <dc:creator>
     <cc:Agent>
      <dc:title>Matplotlib v3.10.0, https://matplotlib.org/</dc:title>
     </cc:Agent>
    </dc:creator>
   </cc:Work>
  </rdf:RDF>
 </metadata>
 <defs>
  <style type="text/css">*{stroke-linejoin: round; stroke-linecap: butt}</style>
 </defs>
 <g id="figure_1">
  <g id="patch_1">
   <path d="M 0 360 
L 540 360 
L 540 0 
L 0 0 
z
" style="fill: #ffffff"/>
  </g>
  <g id="axes_1">
   <g id="patch_2">
    <path d="M 65.14 328.52 
L 529.2 328.52 
L 529.2 46.08 
L 65.14 46.08 
z
" style="fill: #eaeaf2"/>
   </g>
   <g id="matplotlib.axis_1">
    <g id="xtick_1">
     <g id="line2d_1">
      <path d="M 73.987664 328.52 
L 73.987664 46.08 
" clip-path="url(#pd7f3b9e3c2)" style="fill: none; stroke: #ffffff; stroke-width: 0.8; stroke-linecap: round"/>
     </g>
     <g id="text_1">
      <!-- 0 -->
      <g style="fill: #262626" transform="translate(69.533914 346.157812) scale(0.14 -0.14)">
       <defs>
        <path id="DejaVuSans-30" d="M 2034 4250 
Q 1547 4250 1301 3770 
Q 1056 3291 1056 2328 
Q 1056 1369 1301 889 
Q 1547 409 2034 409 
Q 2525 409 2770 889 
Q 3016 1369 3016 2328 
Q 3016 3291 2770 3770 
Q 2525 4250 2034 4250 
z
M 2034 4750 
Q 2819 4750 3233 4129 
Q 3647 3509 3647 2328 
Q 3647 1150 3233 529 
Q 2819 -91 2034 -91 
Q 1250 -91 836 529 
Q 422 1150 422 2328 
Q 422 3509 836 4129 
Q 1250 4750 2034 4750 
z
" transform="scale(0.015625)"/>
       </defs>
       <use xlink:href="#DejaVuSans-30"/>
      </g>
     </g>
    </g>
    <g id="xtick_2">
     <g id="line2d_2">
      <path d="M 516.370887 328.52 
L 516.370887 46.08 
" clip-path="url(#pd7f3b9e3c2)" style="fill: none; stroke: #ffffff; stroke-width: 0.8; stroke-linecap: round"/>
     </g>
     <g id="text_2">
      <!-- 2M -->
      <g style="fill: #262626" transform="translate(505.877449 346.157812) scale(0.14 -0.14)">
       <defs>
        <path id="DejaVuSans-32" d="M 1228 531 
L 3431 531 
L 3431 0 
L 469 0 
L 469 531 
Q 828 903 1448 1529 
Q 2069 2156 2228 2338 
Q 2531 2678 2651 2914 
Q 2772 3150 2772 3378 
Q 2772 3750 2511 3984 
Q 2250 4219 1831 4219 
Q 1534 4219 1204 4116 
Q 875 4013 500 3803 
L 500 4441 
Q 881 4594 1212 4672 
Q 1544 4750 1819 4750 
Q 2544 4750 2975 4387 
Q 3406 4025 3406 3419 
Q 3406 3131 3298 2873 
Q 3191 2616 2906 2266 
Q 2828 2175 2409 1742 
Q 1991 1309 1228 531 
z
" transform="scale(0.015625)"/>
        <path id="DejaVuSans-4d" d="M 628 4666 
L 1569 4666 
L 2759 1491 
L 3956 4666 
L 4897 4666 
L 4897 0 
L 4281 0 
L 4281 4097 
L 3078 897 
L 2444 897 
L 1241 4097 
L 1241 0 
L 628 0 
L 628 4666 
z
" transform="scale(0.015625)"/>
       </defs>
       <use xlink:href="#DejaVuSans-32"/>
       <use xlink:href="#DejaVuSans-4d" transform="translate(63.623047 0)"/>
      </g>
     </g>
    </g>
   </g>
   <g id="matplotlib.axis_2">
    <g id="ytick_1">
     <g id="line2d_3">
      <path d="M 65.14 321.36962 
L 529.2 321.36962 
" clip-path="url(#pd7f3b9e3c2)" style="fill: none; stroke: #ffffff; stroke-width: 0.8; stroke-linecap: round"/>
     </g>
     <g id="text_3">
      <!-- −1500 -->
      <g style="fill: #262626" transform="translate(10.778437 326.688527) scale(0.14 -0.14)">
       <defs>
        <path id="DejaVuSans-2212" d="M 678 2272 
L 4684 2272 
L 4684 1741 
L 678 1741 
L 678 2272 
z
" transform="scale(0.015625)"/>
        <path id="DejaVuSans-31" d="M 794 531 
L 1825 531 
L 1825 4091 
L 703 3866 
L 703 4441 
L 1819 4666 
L 2450 4666 
L 2450 531 
L 3481 531 
L 3481 0 
L 794 0 
L 794 531 
z
" transform="scale(0.015625)"/>
        <path id="DejaVuSans-35" d="M 691 4666 
L 3169 4666 
L 3169 4134 
L 1269 4134 
L 1269 2991 
Q 1406 3038 1543 3061 
Q 1681 3084 1819 3084 
Q 2600 3084 3056 2656 
Q 3513 2228 3513 1497 
Q 3513 744 3044 326 
Q 2575 -91 1722 -91 
Q 1428 -91 1123 -41 
Q 819 9 494 109 
L 494 744 
Q 775 591 1075 516 
Q 1375 441 1709 441 
Q 2250 441 2565 725 
Q 2881 1009 2881 1497 
Q 2881 1984 2565 2268 
Q 2250 2553 1709 2553 
Q 1456 2553 1204 2497 
Q 953 2441 691 2322 
L 691 4666 
z
" transform="scale(0.015625)"/>
       </defs>
       <use xlink:href="#DejaVuSans-2212"/>
       <use xlink:href="#DejaVuSans-31" transform="translate(83.789062 0)"/>
       <use xlink:href="#DejaVuSans-35" transform="translate(147.412109 0)"/>
       <use xlink:href="#DejaVuSans-30" transform="translate(211.035156 0)"/>
       <use xlink:href="#DejaVuSans-30" transform="translate(274.658203 0)"/>
      </g>
     </g>
    </g>
    <g id="ytick_2">
     <g id="line2d_4">
      <path d="M 65.14 267.741772 
L 529.2 267.741772 
" clip-path="url(#pd7f3b9e3c2)" style="fill: none; stroke: #ffffff; stroke-width: 0.8; stroke-linecap: round"/>
     </g>
     <g id="text_4">
      <!-- −1200 -->
      <g style="fill: #262626" transform="translate(10.778437 273.060678) scale(0.14 -0.14)">
       <use xlink:href="#DejaVuSans-2212"/>
       <use xlink:href="#DejaVuSans-31" transform="translate(83.789062 0)"/>
       <use xlink:href="#DejaVuSans-32" transform="translate(147.412109 0)"/>
       <use xlink:href="#DejaVuSans-30" transform="translate(211.035156 0)"/>
       <use xlink:href="#DejaVuSans-30" transform="translate(274.658203 0)"/>
      </g>
     </g>
    </g>
    <g id="ytick_3">
     <g id="line2d_5">
      <path d="M 65.14 214.113924 
L 529.2 214.113924 
" clip-path="url(#pd7f3b9e3c2)" style="fill: none; stroke: #ffffff; stroke-width: 0.8; stroke-linecap: round"/>
     </g>
     <g id="text_5">
      <!-- −900 -->
      <g style="fill: #262626" transform="translate(19.685937 219.43283) scale(0.14 -0.14)">
       <defs>
        <path id="DejaVuSans-39" d="M 703 97 
L 703 672 
Q 941 559 1184 500 
Q 1428 441 1663 441 
Q 2288 441 2617 861 
Q 2947 1281 2994 2138 
Q 2813 1869 2534 1725 
Q 2256 1581 1919 1581 
Q 1219 1581 811 2004 
Q 403 2428 403 3163 
Q 403 3881 828 4315 
Q 1253 4750 1959 4750 
Q 2769 4750 3195 4129 
Q 3622 3509 3622 2328 
Q 3622 1225 3098 567 
Q 2575 -91 1691 -91 
Q 1453 -91 1209 -44 
Q 966 3 703 97 
z
M 1959 2075 
Q 2384 2075 2632 2365 
Q 2881 2656 2881 3163 
Q 2881 3666 2632 3958 
Q 2384 4250 1959 4250 
Q 1534 4250 1286 3958 
Q 1038 3666 1038 3163 
Q 1038 2656 1286 2365 
Q 1534 2075 1959 2075 
z
" transform="scale(0.015625)"/>
       </defs>
       <use xlink:href="#DejaVuSans-2212"/>
       <use xlink:href="#DejaVuSans-39" transform="translate(83.789062 0)"/>
       <use xlink:href="#DejaVuSans-30" transform="translate(147.412109 0)"/>
       <use xlink:href="#DejaVuSans-30" transform="translate(211.035156 0)"/>
      </g>
     </g>
    </g>
    <g id="ytick_4">
     <g id="line2d_6">
      <path d="M 65.14 160.486076 
L 529.2 160.486076 
" clip-path="url(#pd7f3b9e3c2)" style="fill: none; stroke: #ffffff; stroke-width: 0.8; stroke-linecap: round"/>
     </g>
     <g id="text_6">
      <!-- −600 -->
      <g style="fill: #262626" transform="translate(19.685937 165.804982) scale(0.14 -0.14)">
       <defs>
        <path id="DejaVuSans-36" d="M 2113 2584 
Q 1688 2584 1439 2293 
Q 1191 2003 1191 1497 
Q 1191 994 1439 701 
Q 1688 409 2113 409 
Q 2538 409 2786 701 
Q 3034 994 3034 1497 
Q 3034 2003 2786 2293 
Q 2538 2584 2113 2584 
z
M 3366 4563 
L 3366 3988 
Q 3128 4100 2886 4159 
Q 2644 4219 2406 4219 
Q 1781 4219 1451 3797 
Q 1122 3375 1075 2522 
Q 1259 2794 1537 2939 
Q 1816 3084 2150 3084 
Q 2853 3084 3261 2657 
Q 3669 2231 3669 1497 
Q 3669 778 3244 343 
Q 2819 -91 2113 -91 
Q 1303 -91 875 529 
Q 447 1150 447 2328 
Q 447 3434 972 4092 
Q 1497 4750 2381 4750 
Q 2619 4750 2861 4703 
Q 3103 4656 3366 4563 
z
" transform="scale(0.015625)"/>
       </defs>
       <use xlink:href="#DejaVuSans-2212"/>
       <use xlink:href="#DejaVuSans-36" transform="translate(83.789062 0)"/>
       <use xlink:href="#DejaVuSans-30" transform="translate(147.412109 0)"/>
       <use xlink:href="#DejaVuSans-30" transform="translate(211.035156 0)"/>
      </g>
     </g>
    </g>
    <g id="ytick_5">
     <g id="line2d_7">
      <path d="M 65.14 106.858228 
L 529.2 106.858228 
" clip-path="url(#pd7f3b9e3c2)" style="fill: none; stroke: #ffffff; stroke-width: 0.8; stroke-linecap: round"/>
     </g>
     <g id="text_7">
      <!-- −300 -->
      <g style="fill: #262626" transform="translate(19.685937 112.177134) scale(0.14 -0.14)">
       <defs>
        <path id="DejaVuSans-33" d="M 2597 2516 
Q 3050 2419 3304 2112 
Q 3559 1806 3559 1356 
Q 3559 666 3084 287 
Q 2609 -91 1734 -91 
Q 1441 -91 1130 -33 
Q 819 25 488 141 
L 488 750 
Q 750 597 1062 519 
Q 1375 441 1716 441 
Q 2309 441 2620 675 
Q 2931 909 2931 1356 
Q 2931 1769 2642 2001 
Q 2353 2234 1838 2234 
L 1294 2234 
L 1294 2753 
L 1863 2753 
Q 2328 2753 2575 2939 
Q 2822 3125 2822 3475 
Q 2822 3834 2567 4026 
Q 2313 4219 1838 4219 
Q 1578 4219 1281 4162 
Q 984 4106 628 3988 
L 628 4550 
Q 988 4650 1302 4700 
Q 1616 4750 1894 4750 
Q 2613 4750 3031 4423 
Q 3450 4097 3450 3541 
Q 3450 3153 3228 2886 
Q 3006 2619 2597 2516 
z
" transform="scale(0.015625)"/>
       </defs>
       <use xlink:href="#DejaVuSans-2212"/>
       <use xlink:href="#DejaVuSans-33" transform="translate(83.789062 0)"/>
       <use xlink:href="#DejaVuSans-30" transform="translate(147.412109 0)"/>
       <use xlink:href="#DejaVuSans-30" transform="translate(211.035156 0)"/>
      </g>
     </g>
    </g>
    <g id="ytick_6">
     <g id="line2d_8">
      <path d="M 65.14 53.23038 
L 529.2 53.23038 
" clip-path="url(#pd7f3b9e3c2)" style="fill: none; stroke: #ffffff; stroke-width: 0.8; stroke-linecap: round"/>
     </g>
     <g id="text_8">
      <!-- 0 -->
      <g style="fill: #262626" transform="translate(49.2325 58.549286) scale(0.14 -0.14)">
       <use xlink:href="#DejaVuSans-30"/>
      </g>
     </g>
    </g>
   </g>
   <g id="FillBetweenPolyCollection_1">
    <path d="M 73.987664 267.522548 
L 73.987664 277.835848 
L 78.517669 277.930043 
L 83.047673 279.592165 
L 87.577677 269.809332 
L 92.107681 256.500429 
L 96.637685 256.750115 
L 101.16769 239.966987 
L 105.697694 247.176189 
L 110.227698 235.654633 
L 114.757702 238.098025 
L 119.287706 223.30883 
L 123.817711 223.711095 
L 128.347715 215.333594 
L 132.877719 208.984029 
L 137.407723 197.902403 
L 141.937727 210.884713 
L 146.467732 205.019671 
L 150.997736 203.359415 
L 155.52774 191.598608 
L 160.057744 188.514985 
L 164.587748 173.971245 
L 169.117753 174.610685 
L 173.647757 159.072905 
L 178.177761 148.762458 
L 182.707765 185.039841 
L 187.237769 158.075759 
L 191.767773 168.432533 
L 196.297778 186.664484 
L 200.827782 167.692135 
L 205.357786 140.811336 
L 209.88779 142.033989 
L 214.417794 142.568878 
L 218.947799 168.402484 
L 223.477803 155.576098 
L 228.007807 153.685106 
L 232.537811 252.266638 
L 237.067815 231.900871 
L 241.59782 225.550202 
L 246.127824 221.735114 
L 250.657828 217.489722 
L 255.187832 227.974255 
L 259.717836 250.778576 
L 264.247841 233.898522 
L 268.777845 219.101866 
L 273.307849 261.274041 
L 277.837853 249.376316 
L 282.367857 263.224029 
L 286.897862 233.530914 
L 291.427866 244.689704 
L 295.95787 235.576745 
L 300.487874 238.115459 
L 305.017878 225.946677 
L 309.547883 255.957746 
L 314.077887 283.349971 
L 318.607891 274.351197 
L 323.137895 274.217713 
L 327.667899 263.292033 
L 332.197904 237.914646 
L 336.727908 249.250476 
L 341.257912 217.144487 
L 345.787916 236.284666 
L 350.31792 237.843057 
L 354.847924 228.323223 
L 359.377929 240.242003 
L 363.907933 218.760041 
L 368.437937 217.901354 
L 372.967941 246.710015 
L 377.497945 233.188591 
L 382.02795 223.946919 
L 386.557954 221.88101 
L 391.087958 219.198317 
L 395.617962 215.509782 
L 400.147966 216.631156 
L 404.677971 210.812363 
L 409.207975 195.62611 
L 413.737979 201.456082 
L 418.267983 217.801847 
L 422.797987 204.482815 
L 427.327992 201.054365 
L 431.857996 216.080022 
L 436.388 215.089156 
L 440.918004 198.193347 
L 445.448008 213.26708 
L 449.978013 251.130907 
L 454.508017 247.557652 
L 459.038021 259.762132 
L 463.568025 244.273099 
L 468.098029 241.361769 
L 472.628034 253.689792 
L 477.158038 245.653226 
L 481.688042 244.2462 
L 486.218046 231.988547 
L 490.74805 240.522233 
L 495.278055 249.904416 
L 499.808059 237.993307 
L 504.338063 237.95469 
L 508.868067 236.77438 
L 513.398071 233.03259 
L 517.928076 241.527277 
L 522.45808 235.975825 
L 522.45808 82.744503 
L 522.45808 82.744503 
L 517.928076 77.148798 
L 513.398071 86.835104 
L 508.868067 76.798094 
L 504.338063 78.341293 
L 499.808059 85.507008 
L 495.278055 81.55726 
L 490.74805 81.620055 
L 486.218046 92.440848 
L 481.688042 82.615599 
L 477.158038 84.87886 
L 472.628034 84.566015 
L 468.098029 84.412111 
L 463.568025 82.13293 
L 459.038021 84.827036 
L 454.508017 82.222786 
L 449.978013 85.040578 
L 445.448008 76.408378 
L 440.918004 67.041103 
L 436.388 67.019219 
L 431.857996 71.122485 
L 427.327992 76.27453 
L 422.797987 76.024445 
L 418.267983 80.444357 
L 413.737979 79.677741 
L 409.207975 82.370268 
L 404.677971 85.493055 
L 400.147966 89.374732 
L 395.617962 101.456527 
L 391.087958 83.014596 
L 386.557954 97.215491 
L 382.02795 95.822971 
L 377.497945 101.139033 
L 372.967941 106.931693 
L 368.437937 109.116265 
L 363.907933 127.13407 
L 359.377929 108.838479 
L 354.847924 122.852424 
L 350.31792 125.025619 
L 345.787916 129.979874 
L 341.257912 120.584587 
L 336.727908 150.044373 
L 332.197904 157.430648 
L 327.667899 165.378671 
L 323.137895 176.918596 
L 318.607891 197.071916 
L 314.077887 187.722311 
L 309.547883 152.930308 
L 305.017878 122.443951 
L 300.487874 124.585008 
L 295.95787 107.806428 
L 291.427866 113.891863 
L 286.897862 141.104569 
L 282.367857 139.227591 
L 277.837853 141.098855 
L 273.307849 136.511999 
L 268.777845 108.396458 
L 264.247841 99.019539 
L 259.717836 122.134896 
L 255.187832 80.066391 
L 250.657828 82.15423 
L 246.127824 111.209443 
L 241.59782 95.085035 
L 237.067815 76.238969 
L 232.537811 98.79667 
L 228.007807 127.408671 
L 223.477803 116.705017 
L 218.947799 105.199595 
L 214.417794 116.66169 
L 209.88779 104.061942 
L 205.357786 125.88719 
L 200.827782 123.411022 
L 196.297778 128.310246 
L 191.767773 123.858438 
L 187.237769 130.84566 
L 182.707765 144.03322 
L 178.177761 134.230458 
L 173.647757 125.728056 
L 169.117753 145.081755 
L 164.587748 139.963758 
L 160.057744 115.394225 
L 155.52774 136.103688 
L 150.997736 134.673334 
L 146.467732 144.941877 
L 141.937727 158.878675 
L 137.407723 170.103641 
L 132.877719 178.674289 
L 128.347715 188.822329 
L 123.817711 188.931965 
L 119.287706 198.334031 
L 114.757702 208.617951 
L 110.227698 205.303757 
L 105.697694 214.413136 
L 101.16769 226.284701 
L 96.637685 233.371908 
L 92.107681 241.799505 
L 87.577677 240.138506 
L 83.047673 253.715282 
L 78.517669 262.87449 
L 73.987664 267.522548 
z
" clip-path="url(#pd7f3b9e3c2)" style="fill: #023eff; fill-opacity: 0.1"/>
   </g>
   <g id="line2d_9">
    <path d="M 73.987664 279.775347 
L 78.517669 276.124995 
L 83.047673 268.022925 
L 87.577677 249.251155 
L 92.107681 254.726628 
L 96.637685 260.854994 
L 101.16769 234.153792 
L 105.697694 254.221503 
L 110.227698 233.220508 
L 114.757702 232.498274 
L 119.287706 218.849364 
L 123.817711 206.041073 
L 128.347715 214.92209 
L 132.877719 176.67364 
L 137.407723 181.55311 
L 141.937727 187.016192 
L 146.467732 146.909261 
L 150.997736 142.661755 
L 155.52774 126.603222 
L 160.057744 149.655819 
L 164.587748 149.260338 
L 169.117753 181.248179 
L 173.647757 135.260942 
L 178.177761 153.335986 
L 182.707765 140.791855 
L 187.237769 150.399211 
L 191.767773 156.978171 
L 196.297778 145.617335 
L 200.827782 123.231768 
L 205.357786 122.100613 
L 209.88779 113.047349 
L 214.417794 106.794856 
L 218.947799 162.443145 
L 223.477803 113.57827 
L 228.007807 121.906148 
L 232.537811 86.36768 
L 237.067815 102.714151 
L 241.59782 129.097453 
L 246.127824 164.937853 
L 250.657828 117.001874 
L 255.187832 158.637695 
L 259.717836 155.034408 
L 264.247841 114.218587 
L 268.777845 132.704078 
L 273.307849 113.858288 
L 277.837853 121.923899 
L 282.367857 101.366878 
L 286.897862 179.902418 
L 291.427866 114.006343 
L 295.95787 140.637891 
L 300.487874 108.161486 
L 305.017878 113.581327 
L 309.547883 112.747533 
L 314.077887 261.018697 
L 318.607891 290.693278 
L 323.137895 292.171019 
L 327.667899 301.435903 
L 332.197904 263.864789 
L 336.727908 280.821503 
L 341.257912 262.203287 
L 345.787916 275.239546 
L 350.31792 280.804361 
L 354.847924 274.675848 
L 359.377929 301.524092 
L 363.907933 252.401484 
L 368.437937 265.686045 
L 372.967941 288.242959 
L 377.497945 284.658752 
L 382.02795 281.270849 
L 386.557954 271.966913 
L 391.087958 279.39544 
L 395.617962 264.965195 
L 400.147966 278.188428 
L 404.677971 272.719114 
L 409.207975 248.561488 
L 413.737979 256.547399 
L 418.267983 276.170549 
L 422.797987 262.860306 
L 427.327992 261.032496 
L 431.857996 282.721635 
L 436.388 287.807482 
L 440.918004 262.244218 
L 445.448008 281.079821 
L 449.978013 266.62316 
L 454.508017 264.210123 
L 459.038021 288.809481 
L 463.568025 254.597564 
L 468.098029 249.421547 
L 472.628034 277.147778 
L 477.158038 260.072238 
L 481.688042 258.831067 
L 486.218046 226.812795 
L 490.74805 230.542696 
L 495.278055 260.930333 
L 499.808059 223.781732 
L 504.338063 230.812652 
L 508.868067 230.453744 
L 513.398071 208.306111 
L 517.928076 234.560969 
L 522.45808 225.771413 
" clip-path="url(#pd7f3b9e3c2)" style="fill: none; stroke: #1ac938; stroke-opacity: 0.27; stroke-width: 1.25; stroke-linecap: round"/>
   </g>
   <g id="line2d_10">
    <path d="M 73.987664 263.947594 
L 78.517669 261.883223 
L 83.047673 253.168888 
L 87.577677 235.699085 
L 92.107681 242.666249 
L 96.637685 233.727465 
L 101.16769 231.478861 
L 105.697694 219.359326 
L 110.227698 215.215129 
L 114.757702 208.347264 
L 119.287706 200.951511 
L 123.817711 194.643867 
L 128.347715 193.573368 
L 132.877719 202.676992 
L 137.407723 196.430313 
L 141.937727 192.908335 
L 146.467732 205.67123 
L 150.997736 186.548532 
L 155.52774 200.35623 
L 160.057744 171.004244 
L 164.587748 168.755847 
L 169.117753 173.839478 
L 173.647757 144.765684 
L 178.177761 132.590518 
L 182.707765 190.026559 
L 187.237769 161.533941 
L 191.767773 152.373719 
L 196.297778 153.613763 
L 200.827782 168.291905 
L 205.357786 144.897953 
L 209.88779 107.774976 
L 214.417794 136.900187 
L 218.947799 112.952959 
L 223.477803 161.333069 
L 228.007807 130.298584 
L 232.537811 139.386714 
L 237.067815 113.362358 
L 241.59782 126.521094 
L 246.127824 180.089597 
L 250.657828 109.821256 
L 255.187832 87.097317 
L 259.717836 201.962684 
L 264.247841 105.858254 
L 268.777845 119.423998 
L 273.307849 150.409147 
L 277.837853 150.873037 
L 282.367857 170.123095 
L 286.897862 118.263521 
L 291.427866 100.337813 
L 295.95787 84.990237 
L 300.487874 115.976878 
L 305.017878 113.432917 
L 309.547883 261.559803 
L 314.077887 296.215592 
L 318.607891 258.189428 
L 323.137895 258.622806 
L 327.667899 188.684433 
L 332.197904 209.38248 
L 336.727908 207.117564 
L 341.257912 145.980592 
L 345.787916 209.380178 
L 350.31792 196.122066 
L 354.847924 181.117083 
L 359.377929 159.42479 
L 363.907933 176.556784 
L 368.437937 167.714304 
L 372.967941 222.169519 
L 377.497945 185.411273 
L 382.02795 163.048004 
L 386.557954 179.202249 
L 391.087958 161.316841 
L 395.617962 164.643759 
L 400.147966 140.669331 
L 404.677971 122.720509 
L 409.207975 136.855536 
L 413.737979 141.307532 
L 418.267983 165.948062 
L 422.797987 145.785117 
L 427.327992 130.468281 
L 431.857996 147.822392 
L 436.388 115.647231 
L 440.918004 106.908994 
L 445.448008 115.460991 
L 449.978013 108.291367 
L 454.508017 103.230313 
L 459.038021 117.32917 
L 463.568025 105.841546 
L 468.098029 106.158565 
L 472.628034 115.177266 
L 477.158038 115.891216 
L 481.688042 96.987299 
L 486.218046 133.337497 
L 490.74805 105.6644 
L 495.278055 113.937381 
L 499.808059 116.910834 
L 504.338063 105.590467 
L 508.868067 96.883461 
L 513.398071 119.926692 
L 517.928076 98.307683 
L 522.45808 105.142298 
" clip-path="url(#pd7f3b9e3c2)" style="fill: none; stroke: #1ac938; stroke-opacity: 0.27; stroke-width: 1.25; stroke-linecap: round"/>
   </g>
   <g id="line2d_11">
    <path d="M 73.987664 272.465856 
L 78.517669 267.172837 
L 83.047673 289.17227 
L 87.577677 281.027311 
L 92.107681 258.893622 
L 96.637685 243.408679 
L 101.16769 242.571555 
L 105.697694 246.25157 
L 110.227698 239.810023 
L 114.757702 245.040315 
L 119.287706 216.194025 
L 123.817711 227.389556 
L 128.347715 218.537698 
L 132.877719 217.156423 
L 137.407723 197.664293 
L 141.937727 214.252679 
L 146.467732 191.731387 
L 150.997736 206.042154 
L 155.52774 190.859173 
L 160.057744 210.628344 
L 164.587748 184.360698 
L 169.117753 148.835305 
L 173.647757 173.715692 
L 178.177761 135.330635 
L 182.707765 182.259996 
L 187.237769 149.293405 
L 191.767773 154.598952 
L 196.297778 170.33186 
L 200.827782 169.170483 
L 205.357786 135.667293 
L 209.88779 131.682942 
L 214.417794 145.760212 
L 218.947799 134.951126 
L 223.477803 139.151653 
L 228.007807 140.817266 
L 232.537811 199.843755 
L 237.067815 136.047029 
L 241.59782 155.152396 
L 246.127824 120.109355 
L 250.657828 128.535358 
L 255.187832 120.218062 
L 259.717836 144.887476 
L 264.247841 123.399283 
L 268.777845 116.699918 
L 273.307849 229.682774 
L 277.837853 223.397016 
L 282.367857 266.210479 
L 286.897862 173.492714 
L 291.427866 197.202603 
L 295.95787 158.423447 
L 300.487874 225.796181 
L 305.017878 192.423413 
L 309.547883 193.265592 
L 314.077887 158.391014 
L 318.607891 178.264255 
L 323.137895 150.679497 
L 327.667899 166.815014 
L 332.197904 142.610819 
L 336.727908 125.121046 
L 341.257912 129.6125 
L 345.787916 130.163338 
L 350.31792 114.589186 
L 354.847924 142.173084 
L 359.377929 115.874453 
L 363.907933 124.226015 
L 368.437937 114.093186 
L 372.967941 91.888664 
L 377.497945 90.125361 
L 382.02795 98.654422 
L 386.557954 96.347724 
L 391.087958 99.72015 
L 395.617962 103.219199 
L 400.147966 104.959364 
L 404.677971 118.718372 
L 409.207975 99.457344 
L 413.737979 87.839561 
L 418.267983 91.943853 
L 422.797987 99.409756 
L 427.327992 97.512869 
L 431.857996 101.268068 
L 436.388 90.795336 
L 440.918004 93.89152 
L 445.448008 99.704348 
L 449.978013 87.989948 
L 454.508017 92.40956 
L 459.038021 88.52041 
L 463.568025 88.359784 
L 468.098029 84.314169 
L 472.628034 84.707255 
L 477.158038 82.483073 
L 481.688042 90.663004 
L 486.218046 90.396102 
L 490.74805 82.31013 
L 495.278055 84.774927 
L 499.808059 84.504569 
L 504.338063 91.129012 
L 508.868067 92.008273 
L 513.398071 92.323904 
L 517.928076 86.968864 
L 522.45808 83.732634 
" clip-path="url(#pd7f3b9e3c2)" style="fill: none; stroke: #1ac938; stroke-opacity: 0.27; stroke-width: 1.25; stroke-linecap: round"/>
   </g>
   <g id="line2d_12">
    <path d="M 73.987664 272.086292 
L 78.517669 264.771372 
L 83.047673 268.238488 
L 87.577677 257.347881 
L 92.107681 250.345364 
L 96.637685 255.875871 
L 101.16769 235.856049 
L 105.697694 221.895632 
L 110.227698 217.761616 
L 114.757702 225.000487 
L 119.287706 226.125329 
L 123.817711 222.863751 
L 128.347715 200.454185 
L 132.877719 194.026487 
L 137.407723 185.212531 
L 141.937727 193.992548 
L 146.467732 199.307683 
L 150.997736 194.45367 
L 155.52774 145.464255 
L 160.057744 117.99009 
L 164.587748 140.345549 
L 169.117753 150.61672 
L 173.647757 129.593679 
L 178.177761 143.900785 
L 182.707765 140.932392 
L 187.237769 120.815435 
L 191.767773 102.32005 
L 196.297778 114.600518 
L 200.827782 116.371953 
L 205.357786 129.837062 
L 209.88779 106.306513 
L 214.417794 127.84568 
L 218.947799 180.208612 
L 223.477803 152.293599 
L 228.007807 155.55324 
L 232.537811 140.902623 
L 237.067815 110.094215 
L 241.59782 104.112035 
L 246.127824 105.046912 
L 250.657828 109.308072 
L 255.187832 109.648748 
L 259.717836 125.537983 
L 264.247841 210.261239 
L 268.777845 188.324262 
L 273.307849 207.533038 
L 277.837853 204.555913 
L 282.367857 203.553066 
L 286.897862 204.294759 
L 291.427866 206.470576 
L 295.95787 197.419199 
L 300.487874 234.60582 
L 305.017878 212.115781 
L 309.547883 212.729945 
L 314.077887 207.496523 
L 318.607891 210.933374 
L 323.137895 199.214349 
L 327.667899 181.063746 
L 332.197904 174.295743 
L 336.727908 191.276652 
L 341.257912 167.253185 
L 345.787916 148.226216 
L 350.31792 168.709162 
L 354.847924 125.762338 
L 359.377929 134.276973 
L 363.907933 131.233214 
L 368.437937 146.651552 
L 372.967941 132.035351 
L 377.497945 138.215929 
L 382.02795 124.95841 
L 386.557954 129.392201 
L 391.087958 117.175321 
L 395.617962 139.37352 
L 400.147966 118.255704 
L 404.677971 122.580686 
L 409.207975 113.934878 
L 413.737979 119.920348 
L 418.267983 113.912821 
L 422.797987 103.147806 
L 427.327992 107.720166 
L 431.857996 92.851351 
L 436.388 114.761728 
L 440.918004 114.37898 
L 445.448008 109.199958 
L 449.978013 105.314096 
L 454.508017 96.733471 
L 459.038021 98.581046 
L 463.568025 97.630629 
L 468.098029 107.513143 
L 472.628034 101.880463 
L 477.158038 102.290707 
L 481.688042 105.072196 
L 486.218046 98.026964 
L 490.74805 105.754894 
L 495.278055 93.892326 
L 499.808059 103.923181 
L 504.338063 86.180658 
L 508.868067 88.810473 
L 513.398071 98.862815 
L 517.928076 94.984892 
L 522.45808 106.613347 
" clip-path="url(#pd7f3b9e3c2)" style="fill: none; stroke: #1ac938; stroke-opacity: 0.27; stroke-width: 1.25; stroke-linecap: round"/>
   </g>
   <g id="line2d_13">
    <path d="M 73.987664 275.120899 
L 78.517669 282.058904 
L 83.047673 254.666045 
L 87.577677 251.544163 
L 92.107681 239.117972 
L 96.637685 231.438048 
L 101.16769 221.568963 
L 105.697694 212.245281 
L 110.227698 196.388699 
L 114.757702 205.9036 
L 119.287706 191.986925 
L 123.817711 180.669404 
L 128.347715 182.902466 
L 132.877719 178.612254 
L 137.407723 159.154862 
L 141.937727 136.238715 
L 146.467732 131.284308 
L 150.997736 115.375762 
L 155.52774 155.97286 
L 160.057744 110.494529 
L 164.587748 142.115078 
L 169.117753 144.691417 
L 173.647757 128.666404 
L 178.177761 142.324367 
L 182.707765 168.671852 
L 187.237769 140.261556 
L 191.767773 164.456536 
L 196.297778 203.273347 
L 200.827782 150.691783 
L 205.357786 134.243393 
L 209.88779 156.428048 
L 214.417794 130.775483 
L 218.947799 93.449357 
L 223.477803 114.346196 
L 228.007807 154.159204 
L 232.537811 311.157499 
L 237.067815 308.131846 
L 241.59782 286.705113 
L 246.127824 262.177675 
L 250.657828 284.44332 
L 255.187832 294.499795 
L 259.717836 304.86113 
L 264.247841 278.55779 
L 268.777845 261.593553 
L 273.307849 292.981852 
L 277.837853 275.43806 
L 282.367857 264.875533 
L 286.897862 260.635294 
L 291.427866 278.436585 
L 295.95787 276.987159 
L 300.487874 222.210801 
L 305.017878 239.42313 
L 309.547883 241.917264 
L 314.077887 254.558879 
L 318.607891 240.477448 
L 323.137895 227.153102 
L 327.667899 233.677665 
L 332.197904 198.209401 
L 336.727908 193.900358 
L 341.257912 139.273122 
L 345.787916 152.652069 
L 350.31792 146.946913 
L 354.847924 154.210766 
L 359.377929 161.600896 
L 363.907933 180.317781 
L 368.437937 123.39896 
L 372.967941 149.767775 
L 377.497945 137.407745 
L 382.02795 131.49304 
L 386.557954 120.832164 
L 391.087958 97.924528 
L 395.617962 120.214101 
L 400.147966 122.941893 
L 404.677971 104.024865 
L 409.207975 96.1817 
L 413.737979 97.219715 
L 418.267983 97.640226 
L 422.797987 90.065163 
L 427.327992 96.588425 
L 431.857996 93.342822 
L 436.388 96.259162 
L 440.918004 85.662411 
L 445.448008 118.743527 
L 449.978013 272.210143 
L 454.508017 267.867628 
L 459.038021 268.232813 
L 463.568025 269.585551 
L 468.098029 267.027275 
L 472.628034 266.726756 
L 477.158038 265.592982 
L 481.688042 265.600931 
L 486.218046 262.500129 
L 490.74805 281.083598 
L 495.278055 275.119223 
L 499.808059 279.63047 
L 504.338063 277.027169 
L 508.868067 275.775235 
L 513.398071 280.249713 
L 517.928076 281.867778 
L 522.45808 275.541129 
" clip-path="url(#pd7f3b9e3c2)" style="fill: none; stroke: #1ac938; stroke-opacity: 0.27; stroke-width: 1.25; stroke-linecap: round"/>
   </g>
   <g id="line2d_14">
    <path d="M 73.987664 53.23038 
L 78.517669 55.615334 
L 83.047673 60.725259 
L 87.577677 66.111823 
L 92.107681 76.503638 
L 96.637685 87.828547 
L 101.16769 93.022169 
L 105.697694 100.281228 
L 110.227698 110.126085 
L 114.757702 132.633053 
L 119.287706 139.979583 
L 123.817711 154.598665 
L 128.347715 162.740974 
L 132.877719 169.71316 
L 137.407723 174.632956 
L 141.937727 188.982862 
L 146.467732 192.402583 
L 150.997736 191.16478 
L 155.52774 191.627905 
L 160.057744 186.471153 
L 164.587748 189.516888 
L 169.117753 192.209848 
L 173.647757 187.401771 
L 178.177761 186.45258 
L 182.707765 194.50457 
L 187.237769 181.43884 
L 191.767773 182.825288 
L 196.297778 185.506289 
L 200.827782 177.3538 
L 205.357786 176.43254 
L 209.88779 173.454112 
L 214.417794 169.251753 
L 218.947799 169.997893 
L 223.477803 167.129327 
L 228.007807 172.683212 
L 232.537811 196.238842 
L 237.067815 183.302107 
L 241.59782 188.308736 
L 246.127824 190.013911 
L 250.657828 187.34825 
L 255.187832 188.997516 
L 259.717836 205.4552 
L 264.247841 196.656634 
L 268.777845 200.70054 
L 273.307849 228.05566 
L 277.837853 225.647652 
L 282.367857 222.505493 
L 286.897862 233.588826 
L 291.427866 223.29318 
L 295.95787 211.772046 
L 300.487874 218.084883 
L 305.017878 215.977157 
L 309.547883 235.635185 
L 314.077887 242.870495 
L 318.607891 237.668611 
L 323.137895 241.271651 
L 327.667899 234.721383 
L 332.197904 228.464203 
L 336.727908 229.941586 
L 341.257912 209.626861 
L 345.787916 225.275495 
L 350.31792 221.391836 
L 354.847924 219.9053 
L 359.377929 221.213332 
L 363.907933 224.584496 
L 368.437937 228.4788 
L 372.967941 236.390506 
L 377.497945 233.974975 
L 382.02795 231.469868 
L 386.557954 236.215328 
L 391.087958 233.455572 
L 395.617962 233.962298 
L 400.147966 232.121794 
L 404.677971 227.587316 
L 409.207975 221.478968 
L 413.737979 221.284903 
L 418.267983 229.61586 
L 422.797987 227.8721 
L 427.327992 229.623076 
L 431.857996 235.945637 
L 436.388 229.067859 
L 440.918004 229.899565 
L 445.448008 248.094122 
L 449.978013 252.753589 
L 454.508017 257.716239 
L 459.038021 268.575686 
L 463.568025 268.309504 
L 468.098029 268.966717 
L 472.628034 272.993452 
L 477.158038 278.892722 
L 481.688042 281.242585 
L 486.218046 280.466137 
L 490.74805 302.45738 
L 495.278055 305.525953 
L 499.808059 305.841915 
L 504.338063 306.960197 
L 508.868067 312.139449 
L 513.398071 316.974734 
L 517.928076 321.36962 
L 522.45808 319.076652 
" clip-path="url(#pd7f3b9e3c2)" style="fill: none; stroke: #8b2be2; stroke-width: 1.5; stroke-linecap: round"/>
   </g>
   <g id="line2d_15">
    <path d="M 73.987664 272.679198 
L 78.517669 270.402266 
L 83.047673 266.653723 
L 87.577677 254.973919 
L 92.107681 249.149967 
L 96.637685 245.061011 
L 101.16769 233.125844 
L 105.697694 230.794662 
L 110.227698 220.479195 
L 114.757702 223.357988 
L 119.287706 210.821431 
L 123.817711 206.32153 
L 128.347715 202.077961 
L 132.877719 193.829159 
L 137.407723 184.003022 
L 141.937727 184.881694 
L 146.467732 174.980774 
L 150.997736 169.016375 
L 155.52774 163.851148 
L 160.057744 151.954605 
L 164.587748 156.967502 
L 169.117753 159.84622 
L 173.647757 142.40048 
L 178.177761 141.496458 
L 182.707765 164.536531 
L 187.237769 144.46071 
L 191.767773 146.145486 
L 196.297778 157.487365 
L 200.827782 145.551578 
L 205.357786 133.349263 
L 209.88779 123.047965 
L 214.417794 129.615284 
L 218.947799 136.80104 
L 223.477803 136.140557 
L 228.007807 140.546888 
L 232.537811 175.531654 
L 237.067815 154.06992 
L 241.59782 160.317618 
L 246.127824 166.472278 
L 250.657828 149.821976 
L 255.187832 154.020323 
L 259.717836 186.456736 
L 264.247841 166.45903 
L 268.777845 163.749162 
L 273.307849 198.89302 
L 277.837853 195.237585 
L 282.367857 201.22581 
L 286.897862 187.317741 
L 291.427866 179.290784 
L 295.95787 171.691587 
L 300.487874 181.350234 
L 305.017878 174.195314 
L 309.547883 204.444027 
L 314.077887 235.536141 
L 318.607891 235.711557 
L 323.137895 225.568155 
L 327.667899 214.335352 
L 332.197904 197.672647 
L 336.727908 199.647424 
L 341.257912 168.864537 
L 345.787916 183.13227 
L 350.31792 181.434338 
L 354.847924 175.587824 
L 359.377929 174.540241 
L 363.907933 172.947056 
L 368.437937 163.50881 
L 372.967941 176.820854 
L 377.497945 167.163812 
L 382.02795 159.884945 
L 386.557954 159.54825 
L 391.087958 151.106456 
L 395.617962 158.483155 
L 400.147966 153.002944 
L 404.677971 148.152709 
L 409.207975 138.998189 
L 413.737979 140.566911 
L 418.267983 149.123102 
L 422.797987 140.25363 
L 427.327992 138.664447 
L 431.857996 143.601253 
L 436.388 141.054188 
L 440.918004 132.617225 
L 445.448008 144.837729 
L 449.978013 168.085743 
L 454.508017 164.890219 
L 459.038021 172.294584 
L 463.568025 163.203015 
L 468.098029 162.88694 
L 472.628034 169.127904 
L 477.158038 165.266043 
L 481.688042 163.430899 
L 486.218046 162.214697 
L 490.74805 161.071144 
L 495.278055 165.730838 
L 499.808059 161.750157 
L 504.338063 158.147992 
L 508.868067 156.786237 
L 513.398071 159.933847 
L 517.928076 159.338037 
L 522.45808 159.360164 
" clip-path="url(#pd7f3b9e3c2)" style="fill: none; stroke: #023eff; stroke-width: 2; stroke-linecap: round"/>
   </g>
   <g id="line2d_16">
    <path d="M 65.14 88.982278 
L 529.2 88.982278 
" clip-path="url(#pd7f3b9e3c2)" style="fill: none; stroke-dasharray: 1.25,2.0625; stroke-dashoffset: 0; stroke: #000000; stroke-opacity: 0.6; stroke-width: 1.25"/>
   </g>
   <g id="patch_3">
    <path d="M 65.14 328.52 
L 65.14 46.08 
" style="fill: none; stroke: #ffffff; stroke-width: 0.8; stroke-linejoin: miter; stroke-linecap: square"/>
   </g>
   <g id="patch_4">
    <path d="M 529.2 328.52 
L 529.2 46.08 
" style="fill: none; stroke: #ffffff; stroke-width: 0.8; stroke-linejoin: miter; stroke-linecap: square"/>
   </g>
   <g id="patch_5">
    <path d="M 65.14 328.52 
L 529.2 328.52 
" style="fill: none; stroke: #ffffff; stroke-width: 0.8; stroke-linejoin: miter; stroke-linecap: square"/>
   </g>
   <g id="patch_6">
    <path d="M 65.14 46.08 
L 529.2 46.08 
" style="fill: none; stroke: #ffffff; stroke-width: 0.8; stroke-linejoin: miter; stroke-linecap: square"/>
   </g>
  </g>
  <g id="text_9">
   <!-- GNN | Noise -->
   <g style="fill: #262626" transform="translate(189.645 25.54125) scale(0.24 -0.24)">
    <defs>
     <path id="DejaVuSans-Bold-47" d="M 4781 347 
Q 4331 128 3847 18 
Q 3363 -91 2847 -91 
Q 1681 -91 1000 561 
Q 319 1213 319 2328 
Q 319 3456 1012 4103 
Q 1706 4750 2913 4750 
Q 3378 4750 3804 4662 
Q 4231 4575 4609 4403 
L 4609 3438 
Q 4219 3659 3833 3768 
Q 3447 3878 3059 3878 
Q 2341 3878 1952 3476 
Q 1563 3075 1563 2328 
Q 1563 1588 1938 1184 
Q 2313 781 3003 781 
Q 3191 781 3352 804 
Q 3513 828 3641 878 
L 3641 1784 
L 2906 1784 
L 2906 2591 
L 4781 2591 
L 4781 347 
z
" transform="scale(0.015625)"/>
     <path id="DejaVuSans-Bold-4e" d="M 588 4666 
L 1931 4666 
L 3628 1466 
L 3628 4666 
L 4769 4666 
L 4769 0 
L 3425 0 
L 1728 3200 
L 1728 0 
L 588 0 
L 588 4666 
z
" transform="scale(0.015625)"/>
     <path id="DejaVuSans-Bold-20" transform="scale(0.015625)"/>
     <path id="DejaVuSans-Bold-7c" d="M 1522 4891 
L 1522 -1509 
L 813 -1509 
L 813 4891 
L 1522 4891 
z
" transform="scale(0.015625)"/>
     <path id="DejaVuSans-Bold-6f" d="M 2203 2784 
Q 1831 2784 1636 2517 
Q 1441 2250 1441 1747 
Q 1441 1244 1636 976 
Q 1831 709 2203 709 
Q 2569 709 2762 976 
Q 2956 1244 2956 1747 
Q 2956 2250 2762 2517 
Q 2569 2784 2203 2784 
z
M 2203 3584 
Q 3106 3584 3614 3096 
Q 4122 2609 4122 1747 
Q 4122 884 3614 396 
Q 3106 -91 2203 -91 
Q 1297 -91 786 396 
Q 275 884 275 1747 
Q 275 2609 786 3096 
Q 1297 3584 2203 3584 
z
" transform="scale(0.015625)"/>
     <path id="DejaVuSans-Bold-69" d="M 538 3500 
L 1656 3500 
L 1656 0 
L 538 0 
L 538 3500 
z
M 538 4863 
L 1656 4863 
L 1656 3950 
L 538 3950 
L 538 4863 
z
" transform="scale(0.015625)"/>
     <path id="DejaVuSans-Bold-73" d="M 3272 3391 
L 3272 2541 
Q 2913 2691 2578 2766 
Q 2244 2841 1947 2841 
Q 1628 2841 1473 2761 
Q 1319 2681 1319 2516 
Q 1319 2381 1436 2309 
Q 1553 2238 1856 2203 
L 2053 2175 
Q 2913 2066 3209 1816 
Q 3506 1566 3506 1031 
Q 3506 472 3093 190 
Q 2681 -91 1863 -91 
Q 1516 -91 1145 -36 
Q 775 19 384 128 
L 384 978 
Q 719 816 1070 734 
Q 1422 653 1784 653 
Q 2113 653 2278 743 
Q 2444 834 2444 1013 
Q 2444 1163 2330 1236 
Q 2216 1309 1875 1350 
L 1678 1375 
Q 931 1469 631 1722 
Q 331 1975 331 2491 
Q 331 3047 712 3315 
Q 1094 3584 1881 3584 
Q 2191 3584 2531 3537 
Q 2872 3491 3272 3391 
z
" transform="scale(0.015625)"/>
     <path id="DejaVuSans-Bold-65" d="M 4031 1759 
L 4031 1441 
L 1416 1441 
Q 1456 1047 1700 850 
Q 1944 653 2381 653 
Q 2734 653 3104 758 
Q 3475 863 3866 1075 
L 3866 213 
Q 3469 63 3072 -14 
Q 2675 -91 2278 -91 
Q 1328 -91 801 392 
Q 275 875 275 1747 
Q 275 2603 792 3093 
Q 1309 3584 2216 3584 
Q 3041 3584 3536 3087 
Q 4031 2591 4031 1759 
z
M 2881 2131 
Q 2881 2450 2695 2645 
Q 2509 2841 2209 2841 
Q 1884 2841 1681 2658 
Q 1478 2475 1428 2131 
L 2881 2131 
z
" transform="scale(0.015625)"/>
    </defs>
    <use xlink:href="#DejaVuSans-Bold-47"/>
    <use xlink:href="#DejaVuSans-Bold-4e" transform="translate(82.080078 0)"/>
    <use xlink:href="#DejaVuSans-Bold-4e" transform="translate(165.771484 0)"/>
    <use xlink:href="#DejaVuSans-Bold-20" transform="translate(249.462891 0)"/>
    <use xlink:href="#DejaVuSans-Bold-7c" transform="translate(284.277344 0)"/>
    <use xlink:href="#DejaVuSans-Bold-20" transform="translate(320.800781 0)"/>
    <use xlink:href="#DejaVuSans-Bold-4e" transform="translate(355.615234 0)"/>
    <use xlink:href="#DejaVuSans-Bold-6f" transform="translate(439.306641 0)"/>
    <use xlink:href="#DejaVuSans-Bold-69" transform="translate(508.007812 0)"/>
    <use xlink:href="#DejaVuSans-Bold-73" transform="translate(542.285156 0)"/>
    <use xlink:href="#DejaVuSans-Bold-65" transform="translate(601.806641 0)"/>
   </g>
  </g>
 </g>
 <defs>
  <clipPath id="pd7f3b9e3c2">
   <rect x="65.14" y="46.08" width="464.06" height="282.44"/>
  </clipPath>
 </defs>
</svg>
