<?xml version="1.0" encoding="utf-8" standalone="no"?>
<!DOCTYPE svg PUBLIC "-//W3C//DTD SVG 1.1//EN"
  "http://www.w3.org/Graphics/SVG/1.1/DTD/svg11.dtd">
<svg xmlns:xlink="http://www.w3.org/1999/xlink" width="540pt" height="360pt" viewBox="0 0 540 360" xmlns="http://www.w3.org/2000/svg" version="1.1">
 <metadata>
  <rdf:RDF xmlns:dc="http://purl.org/dc/elements/1.1/" xmlns:cc="http://creativecommons.org/ns#" xmlns:rdf="http://www.w3.org/1999/02/22-rdf-syntax-ns#">
   <cc:Work>
    <dc:type rdf:resource="http://purl.org/dc/dcmitype/StillImage"/>
    <dc:date>2025-08-04T02:53:06.552032</dc:date>
    <dc:format>image/svg+xml</dc:format>
    <dc:creator>
     <cc:Agent>
      <dc:title>Matplotlib v3.10.0, https://matplotlib.org/</dc:title>
     </cc:Agent>
    </dc:creator>
   </cc:Work>
  </rdf:RDF>
 </metadata>
 <defs>
  <style type="text/css">*{stroke-linejoin: round; stroke-linecap: butt}</style>
 </defs>
 <g id="figure_1">
  <g id="patch_1">
   <path d="M 0 360 
L 540 360 
L 540 0 
L 0 0 
z
" style="fill: #ffffff"/>
  </g>
  <g id="axes_1">
   <g id="patch_2">
    <path d="M 65.14 328.52 
L 529.2 328.52 
L 529.2 46.08 
L 65.14 46.08 
z
" style="fill: #eaeaf2"/>
   </g>
   <g id="matplotlib.axis_1">
    <g id="xtick_1">
     <g id="line2d_1">
      <path d="M 73.987664 328.52 
L 73.987664 46.08 
" clip-path="url(#p69df784686)" style="fill: none; stroke: #ffffff; stroke-width: 0.8; stroke-linecap: round"/>
     </g>
     <g id="text_1">
      <!-- 0 -->
      <g style="fill: #262626" transform="translate(69.533914 346.157812) scale(0.14 -0.14)">
       <defs>
        <path id="DejaVuSans-30" d="M 2034 4250 
Q 1547 4250 1301 3770 
Q 1056 3291 1056 2328 
Q 1056 1369 1301 889 
Q 1547 409 2034 409 
Q 2525 409 2770 889 
Q 3016 1369 3016 2328 
Q 3016 3291 2770 3770 
Q 2525 4250 2034 4250 
z
M 2034 4750 
Q 2819 4750 3233 4129 
Q 3647 3509 3647 2328 
Q 3647 1150 3233 529 
Q 2819 -91 2034 -91 
Q 1250 -91 836 529 
Q 422 1150 422 2328 
Q 422 3509 836 4129 
Q 1250 4750 2034 4750 
z
" transform="scale(0.015625)"/>
       </defs>
       <use xlink:href="#DejaVuSans-30"/>
      </g>
     </g>
    </g>
    <g id="xtick_2">
     <g id="line2d_2">
      <path d="M 516.370887 328.52 
L 516.370887 46.08 
" clip-path="url(#p69df784686)" style="fill: none; stroke: #ffffff; stroke-width: 0.8; stroke-linecap: round"/>
     </g>
     <g id="text_2">
      <!-- 2M -->
      <g style="fill: #262626" transform="translate(505.877449 346.157812) scale(0.14 -0.14)">
       <defs>
        <path id="DejaVuSans-32" d="M 1228 531 
L 3431 531 
L 3431 0 
L 469 0 
L 469 531 
Q 828 903 1448 1529 
Q 2069 2156 2228 2338 
Q 2531 2678 2651 2914 
Q 2772 3150 2772 3378 
Q 2772 3750 2511 3984 
Q 2250 4219 1831 4219 
Q 1534 4219 1204 4116 
Q 875 4013 500 3803 
L 500 4441 
Q 881 4594 1212 4672 
Q 1544 4750 1819 4750 
Q 2544 4750 2975 4387 
Q 3406 4025 3406 3419 
Q 3406 3131 3298 2873 
Q 3191 2616 2906 2266 
Q 2828 2175 2409 1742 
Q 1991 1309 1228 531 
z
" transform="scale(0.015625)"/>
        <path id="DejaVuSans-4d" d="M 628 4666 
L 1569 4666 
L 2759 1491 
L 3956 4666 
L 4897 4666 
L 4897 0 
L 4281 0 
L 4281 4097 
L 3078 897 
L 2444 897 
L 1241 4097 
L 1241 0 
L 628 0 
L 628 4666 
z
" transform="scale(0.015625)"/>
       </defs>
       <use xlink:href="#DejaVuSans-32"/>
       <use xlink:href="#DejaVuSans-4d" transform="translate(63.623047 0)"/>
      </g>
     </g>
    </g>
   </g>
   <g id="matplotlib.axis_2">
    <g id="ytick_1">
     <g id="line2d_3">
      <path d="M 65.14 321.36962 
L 529.2 321.36962 
" clip-path="url(#p69df784686)" style="fill: none; stroke: #ffffff; stroke-width: 0.8; stroke-linecap: round"/>
     </g>
     <g id="text_3">
      <!-- −1500 -->
      <g style="fill: #262626" transform="translate(10.778437 326.688527) scale(0.14 -0.14)">
       <defs>
        <path id="DejaVuSans-2212" d="M 678 2272 
L 4684 2272 
L 4684 1741 
L 678 1741 
L 678 2272 
z
" transform="scale(0.015625)"/>
        <path id="DejaVuSans-31" d="M 794 531 
L 1825 531 
L 1825 4091 
L 703 3866 
L 703 4441 
L 1819 4666 
L 2450 4666 
L 2450 531 
L 3481 531 
L 3481 0 
L 794 0 
L 794 531 
z
" transform="scale(0.015625)"/>
        <path id="DejaVuSans-35" d="M 691 4666 
L 3169 4666 
L 3169 4134 
L 1269 4134 
L 1269 2991 
Q 1406 3038 1543 3061 
Q 1681 3084 1819 3084 
Q 2600 3084 3056 2656 
Q 3513 2228 3513 1497 
Q 3513 744 3044 326 
Q 2575 -91 1722 -91 
Q 1428 -91 1123 -41 
Q 819 9 494 109 
L 494 744 
Q 775 591 1075 516 
Q 1375 441 1709 441 
Q 2250 441 2565 725 
Q 2881 1009 2881 1497 
Q 2881 1984 2565 2268 
Q 2250 2553 1709 2553 
Q 1456 2553 1204 2497 
Q 953 2441 691 2322 
L 691 4666 
z
" transform="scale(0.015625)"/>
       </defs>
       <use xlink:href="#DejaVuSans-2212"/>
       <use xlink:href="#DejaVuSans-31" transform="translate(83.789062 0)"/>
       <use xlink:href="#DejaVuSans-35" transform="translate(147.412109 0)"/>
       <use xlink:href="#DejaVuSans-30" transform="translate(211.035156 0)"/>
       <use xlink:href="#DejaVuSans-30" transform="translate(274.658203 0)"/>
      </g>
     </g>
    </g>
    <g id="ytick_2">
     <g id="line2d_4">
      <path d="M 65.14 267.741772 
L 529.2 267.741772 
" clip-path="url(#p69df784686)" style="fill: none; stroke: #ffffff; stroke-width: 0.8; stroke-linecap: round"/>
     </g>
     <g id="text_4">
      <!-- −1200 -->
      <g style="fill: #262626" transform="translate(10.778437 273.060678) scale(0.14 -0.14)">
       <use xlink:href="#DejaVuSans-2212"/>
       <use xlink:href="#DejaVuSans-31" transform="translate(83.789062 0)"/>
       <use xlink:href="#DejaVuSans-32" transform="translate(147.412109 0)"/>
       <use xlink:href="#DejaVuSans-30" transform="translate(211.035156 0)"/>
       <use xlink:href="#DejaVuSans-30" transform="translate(274.658203 0)"/>
      </g>
     </g>
    </g>
    <g id="ytick_3">
     <g id="line2d_5">
      <path d="M 65.14 214.113924 
L 529.2 214.113924 
" clip-path="url(#p69df784686)" style="fill: none; stroke: #ffffff; stroke-width: 0.8; stroke-linecap: round"/>
     </g>
     <g id="text_5">
      <!-- −900 -->
      <g style="fill: #262626" transform="translate(19.685937 219.43283) scale(0.14 -0.14)">
       <defs>
        <path id="DejaVuSans-39" d="M 703 97 
L 703 672 
Q 941 559 1184 500 
Q 1428 441 1663 441 
Q 2288 441 2617 861 
Q 2947 1281 2994 2138 
Q 2813 1869 2534 1725 
Q 2256 1581 1919 1581 
Q 1219 1581 811 2004 
Q 403 2428 403 3163 
Q 403 3881 828 4315 
Q 1253 4750 1959 4750 
Q 2769 4750 3195 4129 
Q 3622 3509 3622 2328 
Q 3622 1225 3098 567 
Q 2575 -91 1691 -91 
Q 1453 -91 1209 -44 
Q 966 3 703 97 
z
M 1959 2075 
Q 2384 2075 2632 2365 
Q 2881 2656 2881 3163 
Q 2881 3666 2632 3958 
Q 2384 4250 1959 4250 
Q 1534 4250 1286 3958 
Q 1038 3666 1038 3163 
Q 1038 2656 1286 2365 
Q 1534 2075 1959 2075 
z
" transform="scale(0.015625)"/>
       </defs>
       <use xlink:href="#DejaVuSans-2212"/>
       <use xlink:href="#DejaVuSans-39" transform="translate(83.789062 0)"/>
       <use xlink:href="#DejaVuSans-30" transform="translate(147.412109 0)"/>
       <use xlink:href="#DejaVuSans-30" transform="translate(211.035156 0)"/>
      </g>
     </g>
    </g>
    <g id="ytick_4">
     <g id="line2d_6">
      <path d="M 65.14 160.486076 
L 529.2 160.486076 
" clip-path="url(#p69df784686)" style="fill: none; stroke: #ffffff; stroke-width: 0.8; stroke-linecap: round"/>
     </g>
     <g id="text_6">
      <!-- −600 -->
      <g style="fill: #262626" transform="translate(19.685937 165.804982) scale(0.14 -0.14)">
       <defs>
        <path id="DejaVuSans-36" d="M 2113 2584 
Q 1688 2584 1439 2293 
Q 1191 2003 1191 1497 
Q 1191 994 1439 701 
Q 1688 409 2113 409 
Q 2538 409 2786 701 
Q 3034 994 3034 1497 
Q 3034 2003 2786 2293 
Q 2538 2584 2113 2584 
z
M 3366 4563 
L 3366 3988 
Q 3128 4100 2886 4159 
Q 2644 4219 2406 4219 
Q 1781 4219 1451 3797 
Q 1122 3375 1075 2522 
Q 1259 2794 1537 2939 
Q 1816 3084 2150 3084 
Q 2853 3084 3261 2657 
Q 3669 2231 3669 1497 
Q 3669 778 3244 343 
Q 2819 -91 2113 -91 
Q 1303 -91 875 529 
Q 447 1150 447 2328 
Q 447 3434 972 4092 
Q 1497 4750 2381 4750 
Q 2619 4750 2861 4703 
Q 3103 4656 3366 4563 
z
" transform="scale(0.015625)"/>
       </defs>
       <use xlink:href="#DejaVuSans-2212"/>
       <use xlink:href="#DejaVuSans-36" transform="translate(83.789062 0)"/>
       <use xlink:href="#DejaVuSans-30" transform="translate(147.412109 0)"/>
       <use xlink:href="#DejaVuSans-30" transform="translate(211.035156 0)"/>
      </g>
     </g>
    </g>
    <g id="ytick_5">
     <g id="line2d_7">
      <path d="M 65.14 106.858228 
L 529.2 106.858228 
" clip-path="url(#p69df784686)" style="fill: none; stroke: #ffffff; stroke-width: 0.8; stroke-linecap: round"/>
     </g>
     <g id="text_7">
      <!-- −300 -->
      <g style="fill: #262626" transform="translate(19.685937 112.177134) scale(0.14 -0.14)">
       <defs>
        <path id="DejaVuSans-33" d="M 2597 2516 
Q 3050 2419 3304 2112 
Q 3559 1806 3559 1356 
Q 3559 666 3084 287 
Q 2609 -91 1734 -91 
Q 1441 -91 1130 -33 
Q 819 25 488 141 
L 488 750 
Q 750 597 1062 519 
Q 1375 441 1716 441 
Q 2309 441 2620 675 
Q 2931 909 2931 1356 
Q 2931 1769 2642 2001 
Q 2353 2234 1838 2234 
L 1294 2234 
L 1294 2753 
L 1863 2753 
Q 2328 2753 2575 2939 
Q 2822 3125 2822 3475 
Q 2822 3834 2567 4026 
Q 2313 4219 1838 4219 
Q 1578 4219 1281 4162 
Q 984 4106 628 3988 
L 628 4550 
Q 988 4650 1302 4700 
Q 1616 4750 1894 4750 
Q 2613 4750 3031 4423 
Q 3450 4097 3450 3541 
Q 3450 3153 3228 2886 
Q 3006 2619 2597 2516 
z
" transform="scale(0.015625)"/>
       </defs>
       <use xlink:href="#DejaVuSans-2212"/>
       <use xlink:href="#DejaVuSans-33" transform="translate(83.789062 0)"/>
       <use xlink:href="#DejaVuSans-30" transform="translate(147.412109 0)"/>
       <use xlink:href="#DejaVuSans-30" transform="translate(211.035156 0)"/>
      </g>
     </g>
    </g>
    <g id="ytick_6">
     <g id="line2d_8">
      <path d="M 65.14 53.23038 
L 529.2 53.23038 
" clip-path="url(#p69df784686)" style="fill: none; stroke: #ffffff; stroke-width: 0.8; stroke-linecap: round"/>
     </g>
     <g id="text_8">
      <!-- 0 -->
      <g style="fill: #262626" transform="translate(49.2325 58.549286) scale(0.14 -0.14)">
       <use xlink:href="#DejaVuSans-30"/>
      </g>
     </g>
    </g>
   </g>
   <g id="FillBetweenPolyCollection_1">
    <path d="M 73.987664 259.953265 
L 73.987664 280.43102 
L 78.517669 273.169785 
L 83.047673 277.74603 
L 87.577677 261.715879 
L 92.107681 260.391174 
L 96.637685 259.672151 
L 101.16769 254.797976 
L 105.697694 255.76582 
L 110.227698 252.870551 
L 114.757702 258.941707 
L 119.287706 252.730147 
L 123.817711 246.873487 
L 128.347715 248.156231 
L 132.877719 242.858742 
L 137.407723 242.305507 
L 141.937727 239.897029 
L 146.467732 231.047325 
L 150.997736 221.218702 
L 155.52774 214.978701 
L 160.057744 216.330793 
L 164.587748 214.711446 
L 169.117753 223.895996 
L 173.647757 208.189278 
L 178.177761 215.130908 
L 182.707765 226.259894 
L 187.237769 215.641485 
L 191.767773 215.321685 
L 196.297778 216.080536 
L 200.827782 220.881915 
L 205.357786 209.244432 
L 209.88779 209.116978 
L 214.417794 209.991552 
L 218.947799 210.689971 
L 223.477803 216.714811 
L 228.007807 204.186666 
L 232.537811 220.242535 
L 237.067815 221.052672 
L 241.59782 217.379449 
L 246.127824 218.76687 
L 250.657828 205.22281 
L 255.187832 198.707937 
L 259.717836 214.622614 
L 264.247841 208.336581 
L 268.777845 204.355939 
L 273.307849 211.309091 
L 277.837853 197.903862 
L 282.367857 213.409732 
L 286.897862 202.107617 
L 291.427866 199.646765 
L 295.95787 195.614041 
L 300.487874 224.605419 
L 305.017878 193.404452 
L 309.547883 206.585275 
L 314.077887 215.912733 
L 318.607891 208.468533 
L 323.137895 209.733427 
L 327.667899 181.94897 
L 332.197904 205.883736 
L 336.727908 207.630155 
L 341.257912 166.300582 
L 345.787916 193.312672 
L 350.31792 184.421282 
L 354.847924 189.828962 
L 359.377929 191.259675 
L 363.907933 180.213641 
L 368.437937 193.894689 
L 372.967941 194.89145 
L 377.497945 186.623532 
L 382.02795 177.386995 
L 386.557954 176.684334 
L 391.087958 174.118017 
L 395.617962 173.066542 
L 400.147966 159.846364 
L 404.677971 156.18578 
L 409.207975 157.184625 
L 413.737979 168.999982 
L 418.267983 177.064173 
L 422.797987 176.790669 
L 427.327992 165.274306 
L 431.857996 173.401391 
L 436.388 160.706491 
L 440.918004 143.119561 
L 445.448008 154.436423 
L 449.978013 166.834495 
L 454.508017 140.823867 
L 459.038021 165.781762 
L 463.568025 151.59979 
L 468.098029 152.495906 
L 472.628034 138.842165 
L 477.158038 145.353308 
L 481.688042 120.97643 
L 486.218046 117.83873 
L 490.74805 108.211105 
L 495.278055 106.932867 
L 499.808059 99.590743 
L 504.338063 95.732489 
L 508.868067 91.915496 
L 513.398071 92.461968 
L 517.928076 102.634529 
L 522.45808 89.101505 
L 522.45808 79.185755 
L 522.45808 79.185755 
L 517.928076 75.102452 
L 513.398071 73.972612 
L 508.868067 76.468368 
L 504.338063 71.920558 
L 499.808059 74.123547 
L 495.278055 73.044844 
L 490.74805 76.228733 
L 486.218046 69.131985 
L 481.688042 70.055657 
L 477.158038 62.024222 
L 472.628034 62.159396 
L 468.098029 57.585363 
L 463.568025 56.291739 
L 459.038021 54.113259 
L 454.508017 63.964232 
L 449.978013 68.669998 
L 445.448008 56.918556 
L 440.918004 59.693883 
L 436.388 56.394799 
L 431.857996 49.484314 
L 427.327992 49.889844 
L 422.797987 47.583448 
L 418.267983 50.629792 
L 413.737979 50.227967 
L 409.207975 52.661291 
L 404.677971 54.988925 
L 400.147966 61.216543 
L 395.617962 52.575789 
L 391.087958 47.739589 
L 386.557954 49.456543 
L 382.02795 52.617818 
L 377.497945 49.397294 
L 372.967941 47.24737 
L 368.437937 46.419334 
L 363.907933 52.85252 
L 359.377929 60.143501 
L 354.847924 51.468147 
L 350.31792 58.11159 
L 345.787916 48.125371 
L 341.257912 54.449487 
L 336.727908 60.866647 
L 332.197904 73.494331 
L 327.667899 78.637446 
L 323.137895 73.175767 
L 318.607891 75.314338 
L 314.077887 57.323542 
L 309.547883 72.934375 
L 305.017878 57.313322 
L 300.487874 62.459568 
L 295.95787 50.190744 
L 291.427866 51.371682 
L 286.897862 46.788216 
L 282.367857 46.463849 
L 277.837853 52.081385 
L 273.307849 46.65422 
L 268.777845 43.895545 
L 264.247841 57.777381 
L 259.717836 49.93801 
L 255.187832 53.02296 
L 250.657828 49.546122 
L 246.127824 57.589743 
L 241.59782 72.135276 
L 237.067815 73.071002 
L 232.537811 74.830023 
L 228.007807 56.749625 
L 223.477803 57.180699 
L 218.947799 53.496243 
L 214.417794 60.084348 
L 209.88779 67.129327 
L 205.357786 62.319834 
L 200.827782 71.8788 
L 196.297778 74.363911 
L 191.767773 63.802012 
L 187.237769 68.749798 
L 182.707765 71.246215 
L 178.177761 63.775288 
L 173.647757 65.46838 
L 169.117753 69.932955 
L 164.587748 71.999115 
L 160.057744 74.744897 
L 155.52774 83.294748 
L 150.997736 84.950031 
L 146.467732 98.570917 
L 141.937727 119.871813 
L 137.407723 118.092249 
L 132.877719 138.531849 
L 128.347715 160.939676 
L 123.817711 173.534895 
L 119.287706 184.051314 
L 114.757702 205.270346 
L 110.227698 200.563857 
L 105.697694 208.988582 
L 101.16769 210.557885 
L 96.637685 230.521888 
L 92.107681 239.179283 
L 87.577677 239.230824 
L 83.047673 250.387315 
L 78.517669 253.886102 
L 73.987664 259.953265 
z
" clip-path="url(#p69df784686)" style="fill: #023eff; fill-opacity: 0.1"/>
   </g>
   <g id="line2d_9">
    <path d="M 73.987664 254.108467 
L 78.517669 248.726763 
L 83.047673 256.248795 
L 87.577677 248.567824 
L 92.107681 256.156257 
L 96.637685 261.86661 
L 101.16769 264.470501 
L 105.697694 261.33459 
L 110.227698 269.111867 
L 114.757702 262.198218 
L 119.287706 261.439669 
L 123.817711 271.067101 
L 128.347715 269.045672 
L 132.877719 281.597525 
L 137.407723 287.65691 
L 141.937727 281.701713 
L 146.467732 288.528669 
L 150.997736 285.004937 
L 155.52774 279.950602 
L 160.057744 282.148299 
L 164.587748 284.947576 
L 169.117753 298.829079 
L 173.647757 278.053186 
L 178.177761 290.190207 
L 182.707765 301.735205 
L 187.237769 285.363624 
L 191.767773 288.664079 
L 196.297778 286.098839 
L 200.827782 290.116524 
L 205.357786 281.495806 
L 209.88779 278.848593 
L 214.417794 283.630175 
L 218.947799 288.295362 
L 223.477803 292.524564 
L 228.007807 277.795352 
L 232.537811 280.457686 
L 237.067815 285.611711 
L 241.59782 285.44989 
L 246.127824 298.963931 
L 250.657828 282.82803 
L 255.187832 271.0844 
L 259.717836 296.856794 
L 264.247841 281.574867 
L 268.777845 284.403346 
L 273.307849 293.617176 
L 277.837853 270.635296 
L 282.367857 296.227717 
L 286.897862 279.441426 
L 291.427866 273.671011 
L 295.95787 267.417489 
L 300.487874 290.640321 
L 305.017878 257.747155 
L 309.547883 261.755852 
L 314.077887 289.027938 
L 318.607891 262.474534 
L 323.137895 270.775341 
L 327.667899 227.16358 
L 332.197904 264.524335 
L 336.727908 279.25813 
L 341.257912 222.079305 
L 345.787916 265.527088 
L 350.31792 246.741477 
L 354.847924 258.598192 
L 359.377929 254.566719 
L 363.907933 243.860771 
L 368.437937 267.564296 
L 372.967941 268.621879 
L 377.497945 255.126672 
L 382.02795 239.748536 
L 386.557954 240.176919 
L 391.087958 237.270758 
L 395.617962 233.247136 
L 400.147966 208.934277 
L 404.677971 206.704205 
L 409.207975 209.404037 
L 413.737979 228.241953 
L 418.267983 240.239785 
L 422.797987 241.206367 
L 427.327992 222.906797 
L 431.857996 235.093925 
L 436.388 212.791146 
L 440.918004 184.34075 
L 445.448008 203.134812 
L 449.978013 212.594546 
L 454.508017 178.039565 
L 459.038021 221.445592 
L 463.568025 199.201115 
L 468.098029 199.594028 
L 472.628034 176.924419 
L 477.158038 186.894548 
L 481.688042 146.232537 
L 486.218046 142.015951 
L 490.74805 121.729698 
L 495.278055 123.768548 
L 499.808059 111.97874 
L 504.338063 107.031139 
L 508.868067 97.971199 
L 513.398071 101.443891 
L 517.928076 116.009421 
L 522.45808 92.595522 
" clip-path="url(#p69df784686)" style="fill: none; stroke: #1ac938; stroke-opacity: 0.27; stroke-width: 1.25; stroke-linecap: round"/>
   </g>
   <g id="line2d_10">
    <path d="M 73.987664 268.090006 
L 78.517669 257.6385 
L 83.047673 278.380725 
L 87.577677 265.220233 
L 92.107681 247.806973 
L 96.637685 232.835718 
L 101.16769 223.09082 
L 105.697694 227.565231 
L 110.227698 222.759883 
L 114.757702 231.678819 
L 119.287706 199.28028 
L 123.817711 199.739095 
L 128.347715 198.902047 
L 132.877719 183.982004 
L 137.407723 164.651703 
L 141.937727 165.095637 
L 146.467732 124.763307 
L 150.997736 132.52001 
L 155.52774 126.088298 
L 160.057744 126.825815 
L 164.587748 114.51396 
L 169.117753 112.513077 
L 173.647757 114.948419 
L 178.177761 104.358453 
L 182.707765 128.152646 
L 187.237769 118.107602 
L 191.767773 107.389576 
L 196.297778 120.025619 
L 200.827782 142.054998 
L 205.357786 110.865322 
L 209.88779 120.55202 
L 214.417794 112.314465 
L 218.947799 99.131461 
L 223.477803 131.146328 
L 228.007807 98.997587 
L 232.537811 108.838075 
L 237.067815 113.103028 
L 241.59782 126.58474 
L 246.127824 92.099264 
L 250.657828 96.709837 
L 255.187832 98.186625 
L 259.717836 96.752776 
L 264.247841 94.442347 
L 268.777845 83.390165 
L 273.307849 86.318082 
L 277.837853 89.937899 
L 282.367857 101.562521 
L 286.897862 78.334499 
L 291.427866 83.030083 
L 295.95787 79.712161 
L 300.487874 86.850967 
L 305.017878 83.398568 
L 309.547883 116.896751 
L 314.077887 81.653092 
L 318.607891 83.359577 
L 323.137895 85.52985 
L 327.667899 95.605857 
L 332.197904 83.29948 
L 336.727908 84.623083 
L 341.257912 84.969611 
L 345.787916 86.846549 
L 350.31792 103.047151 
L 354.847924 91.598216 
L 359.377929 90.952039 
L 363.907933 85.559568 
L 368.437937 87.240732 
L 372.967941 82.755229 
L 377.497945 78.792401 
L 382.02795 82.009173 
L 386.557954 81.37359 
L 391.087958 80.299275 
L 395.617962 86.481232 
L 400.147966 90.19876 
L 404.677971 84.089065 
L 409.207975 80.892008 
L 413.737979 76.730004 
L 418.267983 81.569498 
L 422.797987 81.715891 
L 427.327992 79.402224 
L 431.857996 83.196934 
L 436.388 83.03459 
L 440.918004 80.202732 
L 445.448008 82.696002 
L 449.978013 95.813489 
L 454.508017 96.537547 
L 459.038021 85.45904 
L 463.568025 80.418537 
L 468.098029 88.252265 
L 472.628034 81.935918 
L 477.158038 81.837425 
L 481.688042 79.678483 
L 486.218046 84.008415 
L 490.74805 77.798342 
L 495.278055 83.309167 
L 499.808059 78.24268 
L 504.338063 79.372427 
L 508.868067 84.360069 
L 513.398071 80.208873 
L 517.928076 83.759599 
L 522.45808 85.568313 
" clip-path="url(#p69df784686)" style="fill: none; stroke: #1ac938; stroke-opacity: 0.27; stroke-width: 1.25; stroke-linecap: round"/>
   </g>
   <g id="line2d_11">
    <path d="M 73.987664 266.234961 
L 78.517669 277.036723 
L 83.047673 246.516574 
L 87.577677 239.727083 
L 92.107681 249.050251 
L 96.637685 256.747907 
L 101.16769 252.89801 
L 105.697694 255.835702 
L 110.227698 239.364916 
L 114.757702 262.109962 
L 119.287706 255.062383 
L 123.817711 225.477028 
L 128.347715 215.896978 
L 132.877719 176.26601 
L 137.407723 133.12369 
L 141.937727 116.718058 
L 146.467732 105.234242 
L 150.997736 91.278702 
L 155.52774 106.792973 
L 160.057744 86.962697 
L 164.587748 95.759859 
L 169.117753 91.931965 
L 173.647757 84.146128 
L 178.177761 93.446327 
L 182.707765 98.323157 
L 187.237769 89.116281 
L 191.767773 90.8791 
L 196.297778 102.080654 
L 200.827782 92.189332 
L 205.357786 87.005304 
L 209.88779 95.335513 
L 214.417794 83.019785 
L 218.947799 82.467632 
L 223.477803 79.83178 
L 228.007807 92.896064 
L 232.537811 168.801816 
L 237.067815 159.560109 
L 241.59782 131.199685 
L 246.127824 92.225273 
L 250.657828 85.132732 
L 255.187832 84.919237 
L 259.717836 90.4812 
L 264.247841 86.814935 
L 268.777845 83.728461 
L 273.307849 89.637702 
L 277.837853 93.278277 
L 282.367857 88.218326 
L 286.897862 85.91244 
L 291.427866 90.745405 
L 295.95787 87.486916 
L 300.487874 75.504474 
L 305.017878 81.502196 
L 309.547883 80.849688 
L 314.077887 83.907073 
L 318.607891 121.578781 
L 323.137895 124.691946 
L 327.667899 138.386718 
L 332.197904 140.56132 
L 336.727908 112.272314 
L 341.257912 77.537726 
L 345.787916 78.285312 
L 350.31792 81.708288 
L 354.847924 78.857967 
L 359.377929 85.144218 
L 363.907933 86.844511 
L 368.437937 80.327959 
L 372.967941 86.176002 
L 377.497945 83.755914 
L 382.02795 83.513066 
L 386.557954 82.949556 
L 391.087958 76.648145 
L 395.617962 81.964923 
L 400.147966 88.998314 
L 404.677971 78.668029 
L 409.207975 78.456012 
L 413.737979 79.232911 
L 418.267983 83.501877 
L 422.797987 73.359376 
L 427.327992 78.708525 
L 431.857996 75.904691 
L 436.388 80.526373 
L 440.918004 73.540651 
L 445.448008 78.192435 
L 449.978013 82.916432 
L 454.508017 78.17454 
L 459.038021 78.087127 
L 463.568025 81.681401 
L 468.098029 75.318105 
L 472.628034 79.787473 
L 477.158038 79.864257 
L 481.688042 82.657478 
L 486.218046 77.815863 
L 490.74805 79.686192 
L 495.278055 79.979479 
L 499.808059 79.436994 
L 504.338063 77.724371 
L 508.868067 77.665308 
L 513.398071 76.042515 
L 517.928076 79.213725 
L 522.45808 81.878265 
" clip-path="url(#p69df784686)" style="fill: none; stroke: #1ac938; stroke-opacity: 0.27; stroke-width: 1.25; stroke-linecap: round"/>
   </g>
   <g id="line2d_12">
    <path d="M 73.987664 280.907207 
L 78.517669 265.938095 
L 83.047673 257.335736 
L 87.577677 237.318093 
L 92.107681 231.976704 
L 96.637685 223.520933 
L 101.16769 207.282631 
L 105.697694 218.324195 
L 110.227698 209.607169 
L 114.757702 204.975291 
L 119.287706 203.832919 
L 123.817711 193.490242 
L 128.347715 206.350773 
L 132.877719 192.253316 
L 137.407723 204.019727 
L 141.937727 207.623274 
L 146.467732 177.129356 
L 150.997736 141.307933 
L 155.52774 123.473436 
L 160.057744 136.552009 
L 164.587748 120.53364 
L 169.117753 129.633928 
L 173.647757 108.035216 
L 178.177761 113.036347 
L 182.707765 120.174882 
L 187.237769 130.393206 
L 191.767773 124.574371 
L 196.297778 117.055623 
L 200.827782 119.672401 
L 205.357786 108.649149 
L 209.88779 101.684082 
L 214.417794 103.651766 
L 218.947799 105.99625 
L 223.477803 93.858316 
L 228.007807 90.824977 
L 232.537811 81.297808 
L 237.067815 85.988654 
L 241.59782 98.182312 
L 246.127824 100.478817 
L 250.657828 86.696574 
L 255.187832 93.294449 
L 259.717836 88.984853 
L 264.247841 118.857842 
L 268.777845 90.563344 
L 273.307849 86.581647 
L 277.837853 88.968979 
L 282.367857 84.42729 
L 286.897862 94.099734 
L 291.427866 91.103225 
L 295.95787 101.319384 
L 300.487874 171.90566 
L 305.017878 122.759272 
L 309.547883 156.001623 
L 314.077887 140.796095 
L 318.607891 159.183828 
L 323.137895 141.19061 
L 327.667899 105.633657 
L 332.197904 124.288824 
L 336.727908 108.870668 
L 341.257912 81.682395 
L 345.787916 93.010101 
L 350.31792 89.699529 
L 354.847924 92.450326 
L 359.377929 116.191233 
L 363.907933 82.565078 
L 368.437937 83.199743 
L 372.967941 87.613806 
L 377.497945 85.399451 
L 382.02795 85.767179 
L 386.557954 84.568106 
L 391.087958 81.169903 
L 395.617962 81.529622 
L 400.147966 81.433467 
L 404.677971 79.928777 
L 409.207975 76.344603 
L 413.737979 78.468397 
L 418.267983 84.301088 
L 422.797987 81.142983 
L 427.327992 75.563973 
L 431.857996 86.603163 
L 436.388 85.788659 
L 440.918004 81.140036 
L 445.448008 81.289159 
L 449.978013 116.478658 
L 454.508017 80.8004 
L 459.038021 85.535833 
L 463.568025 77.166332 
L 468.098029 80.600594 
L 472.628034 86.731599 
L 477.158038 86.812192 
L 481.688042 82.22832 
L 486.218046 82.647803 
L 490.74805 95.382511 
L 495.278055 82.781327 
L 499.808059 80.18365 
L 504.338063 81.579107 
L 508.868067 84.854182 
L 513.398071 78.138425 
L 517.928076 85.416203 
L 522.45808 83.107617 
" clip-path="url(#p69df784686)" style="fill: none; stroke: #1ac938; stroke-opacity: 0.27; stroke-width: 1.25; stroke-linecap: round"/>
   </g>
   <g id="line2d_13">
    <path d="M 73.987664 281.620072 
L 78.517669 268.299637 
L 83.047673 281.851535 
L 87.577677 261.533525 
L 92.107681 263.935958 
L 96.637685 250.513931 
L 101.16769 215.647692 
L 105.697694 198.826287 
L 110.227698 192.742184 
L 114.757702 199.567842 
L 119.287706 172.3384 
L 123.817711 161.247489 
L 128.347715 132.544295 
L 132.877719 119.377622 
L 137.407723 111.542361 
L 141.937727 128.283424 
L 146.467732 128.39003 
L 150.997736 115.310251 
L 155.52774 109.378314 
L 160.057744 95.200406 
L 164.587748 101.021367 
L 169.117753 101.664329 
L 173.647757 98.961193 
L 178.177761 96.234157 
L 182.707765 95.37938 
L 187.237769 87.997495 
L 191.767773 86.302115 
L 196.297778 100.850381 
L 200.827782 87.868531 
L 205.357786 90.895083 
L 209.88779 94.195553 
L 214.417794 92.573558 
L 218.947799 84.574828 
L 223.477803 87.377788 
L 228.007807 91.826747 
L 232.537811 98.28601 
L 237.067815 91.045683 
L 241.59782 82.370184 
L 246.127824 107.124248 
L 250.657828 85.555159 
L 255.187832 81.842533 
L 259.717836 88.325938 
L 264.247841 83.594914 
L 268.777845 78.543398 
L 273.307849 88.75367 
L 277.837853 82.142664 
L 282.367857 79.248099 
L 286.897862 84.451484 
L 291.427866 88.996392 
L 295.95787 78.576013 
L 300.487874 92.761046 
L 305.017878 81.387243 
L 309.547883 83.29521 
L 314.077887 87.706489 
L 318.607891 82.860456 
L 323.137895 85.085237 
L 327.667899 84.676226 
L 332.197904 85.77121 
L 336.727908 86.217809 
L 341.257912 85.606136 
L 345.787916 79.926059 
L 350.31792 85.135733 
L 354.847924 81.738071 
L 359.377929 81.65373 
L 363.907933 83.835474 
L 368.437937 82.452325 
L 372.967941 80.180135 
L 377.497945 86.977625 
L 382.02795 83.974079 
L 386.557954 76.284022 
L 391.087958 79.255934 
L 395.617962 80.882913 
L 400.147966 83.09245 
L 404.677971 78.546687 
L 409.207975 79.51813 
L 413.737979 85.396608 
L 418.267983 79.622664 
L 422.797987 83.510676 
L 427.327992 81.328855 
L 431.857996 76.415551 
L 436.388 80.612456 
L 440.918004 87.809442 
L 445.448008 83.07504 
L 449.978013 80.958107 
L 454.508017 78.418196 
L 459.038021 79.209962 
L 463.568025 81.261437 
L 468.098029 81.438181 
L 472.628034 77.124495 
L 477.158038 83.035402 
L 481.688042 86.783398 
L 486.218046 80.938756 
L 490.74805 86.502851 
L 495.278055 80.105756 
L 499.808059 84.443661 
L 504.338063 73.425573 
L 508.868067 76.108904 
L 513.398071 80.252746 
L 517.928076 79.943505 
L 522.45808 77.568433 
" clip-path="url(#p69df784686)" style="fill: none; stroke: #1ac938; stroke-opacity: 0.27; stroke-width: 1.25; stroke-linecap: round"/>
   </g>
   <g id="line2d_14">
    <path d="M 73.987664 53.23038 
L 78.517669 58.376976 
L 83.047673 69.929582 
L 87.577677 86.482849 
L 92.107681 107.984235 
L 96.637685 138.344625 
L 101.16769 166.399227 
L 105.697694 182.902768 
L 110.227698 200.173543 
L 114.757702 218.98654 
L 119.287706 226.08929 
L 123.817711 234.59889 
L 128.347715 241.109357 
L 132.877719 250.458102 
L 137.407723 255.437545 
L 141.937727 263.315545 
L 146.467732 259.607346 
L 150.997736 254.164034 
L 155.52774 253.489657 
L 160.057744 263.824069 
L 164.587748 265.057554 
L 169.117753 264.343764 
L 173.647757 270.346233 
L 178.177761 267.741381 
L 182.707765 269.949348 
L 187.237769 267.288855 
L 191.767773 271.36964 
L 196.297778 276.633483 
L 200.827782 277.028132 
L 205.357786 282.566644 
L 209.88779 284.191074 
L 214.417794 287.247788 
L 218.947799 290.750026 
L 223.477803 287.523807 
L 228.007807 287.24225 
L 232.537811 287.773636 
L 237.067815 296.311044 
L 241.59782 294.911678 
L 246.127824 292.646634 
L 250.657828 298.975004 
L 255.187832 301.013612 
L 259.717836 301.830576 
L 264.247841 306.08887 
L 268.777845 303.993902 
L 273.307849 304.325891 
L 277.837853 303.169164 
L 282.367857 302.1474 
L 286.897862 303.89932 
L 291.427866 306.492204 
L 295.95787 305.658799 
L 300.487874 311.351859 
L 305.017878 305.211201 
L 309.547883 309.938964 
L 314.077887 311.203925 
L 318.607891 310.772588 
L 323.137895 311.790675 
L 327.667899 305.922242 
L 332.197904 311.759728 
L 336.727908 311.608751 
L 341.257912 308.356453 
L 345.787916 310.991152 
L 350.31792 310.33835 
L 354.847924 309.476073 
L 359.377929 312.605238 
L 363.907933 310.494506 
L 368.437937 311.718758 
L 372.967941 309.711624 
L 377.497945 310.920734 
L 382.02795 309.838189 
L 386.557954 308.652143 
L 391.087958 310.506093 
L 395.617962 314.211965 
L 400.147966 315.188875 
L 404.677971 312.745867 
L 409.207975 312.215834 
L 413.737979 314.88033 
L 418.267983 313.826963 
L 422.797987 313.84619 
L 427.327992 316.193388 
L 431.857996 317.247277 
L 436.388 318.475579 
L 440.918004 316.888557 
L 445.448008 317.277589 
L 449.978013 321.36962 
L 454.508017 319.512924 
L 459.038021 317.566557 
L 463.568025 316.649917 
L 468.098029 320.800477 
L 472.628034 319.53539 
L 477.158038 319.39778 
L 481.688042 316.281891 
L 486.218046 316.533292 
L 490.74805 318.070859 
L 495.278055 318.077141 
L 499.808059 316.193431 
L 504.338063 317.545038 
L 508.868067 317.513278 
L 513.398071 314.532011 
L 517.928076 314.965016 
L 522.45808 308.24213 
" clip-path="url(#p69df784686)" style="fill: none; stroke: #8b2be2; stroke-width: 1.5; stroke-linecap: round"/>
   </g>
   <g id="line2d_15">
    <path d="M 73.987664 270.192143 
L 78.517669 263.527944 
L 83.047673 264.066673 
L 87.577677 250.473352 
L 92.107681 249.785229 
L 96.637685 245.09702 
L 101.16769 232.677931 
L 105.697694 232.377201 
L 110.227698 226.717204 
L 114.757702 232.106026 
L 119.287706 218.39073 
L 123.817711 210.204191 
L 128.347715 204.547953 
L 132.877719 190.695295 
L 137.407723 180.198878 
L 141.937727 179.884421 
L 146.467732 164.809121 
L 150.997736 153.084367 
L 155.52774 149.136724 
L 160.057744 145.537845 
L 164.587748 143.35528 
L 169.117753 146.914475 
L 173.647757 136.828829 
L 178.177761 139.453098 
L 182.707765 148.753054 
L 187.237769 142.195642 
L 191.767773 139.561848 
L 196.297778 145.222223 
L 200.827782 146.380357 
L 205.357786 135.782133 
L 209.88779 138.123152 
L 214.417794 135.03795 
L 218.947799 132.093107 
L 223.477803 136.947755 
L 228.007807 130.468145 
L 232.537811 147.536279 
L 237.067815 147.061837 
L 241.59782 144.757362 
L 246.127824 138.178307 
L 250.657828 127.384466 
L 255.187832 125.865449 
L 259.717836 132.280312 
L 264.247841 133.056981 
L 268.777845 124.125742 
L 273.307849 128.981655 
L 277.837853 124.992623 
L 282.367857 129.936791 
L 286.897862 124.447916 
L 291.427866 125.509223 
L 295.95787 122.902393 
L 300.487874 143.532494 
L 305.017878 125.358887 
L 309.547883 139.759825 
L 314.077887 136.618137 
L 318.607891 141.891435 
L 323.137895 141.454597 
L 327.667899 130.293208 
L 332.197904 139.689034 
L 336.727908 134.248401 
L 341.257912 110.375035 
L 345.787916 120.719022 
L 350.31792 121.266436 
L 354.847924 120.648555 
L 359.377929 125.701588 
L 363.907933 116.53308 
L 368.437937 120.157011 
L 372.967941 121.06941 
L 377.497945 118.010413 
L 382.02795 115.002406 
L 386.557954 113.070439 
L 391.087958 110.928803 
L 395.617962 112.821165 
L 400.147966 110.531454 
L 404.677971 105.587353 
L 409.207975 104.922958 
L 413.737979 109.613975 
L 418.267983 113.846982 
L 422.797987 112.187059 
L 427.327992 107.582075 
L 431.857996 111.442853 
L 436.388 108.550645 
L 440.918004 101.406722 
L 445.448008 105.677489 
L 449.978013 117.752246 
L 454.508017 102.394049 
L 459.038021 109.947511 
L 463.568025 103.945764 
L 468.098029 105.040635 
L 472.628034 100.500781 
L 477.158038 103.688765 
L 481.688042 95.516044 
L 486.218046 93.485358 
L 490.74805 92.219919 
L 495.278055 89.988855 
L 499.808059 86.857145 
L 504.338063 83.826523 
L 508.868067 84.191932 
L 513.398071 83.21729 
L 517.928076 88.868491 
L 522.45808 84.14363 
" clip-path="url(#p69df784686)" style="fill: none; stroke: #023eff; stroke-width: 2; stroke-linecap: round"/>
   </g>
   <g id="line2d_16">
    <path d="M 65.14 88.982278 
L 529.2 88.982278 
" clip-path="url(#p69df784686)" style="fill: none; stroke-dasharray: 1.25,2.0625; stroke-dashoffset: 0; stroke: #000000; stroke-opacity: 0.6; stroke-width: 1.25"/>
   </g>
   <g id="patch_3">
    <path d="M 65.14 328.52 
L 65.14 46.08 
" style="fill: none; stroke: #ffffff; stroke-width: 0.8; stroke-linejoin: miter; stroke-linecap: square"/>
   </g>
   <g id="patch_4">
    <path d="M 529.2 328.52 
L 529.2 46.08 
" style="fill: none; stroke: #ffffff; stroke-width: 0.8; stroke-linejoin: miter; stroke-linecap: square"/>
   </g>
   <g id="patch_5">
    <path d="M 65.14 328.52 
L 529.2 328.52 
" style="fill: none; stroke: #ffffff; stroke-width: 0.8; stroke-linejoin: miter; stroke-linecap: square"/>
   </g>
   <g id="patch_6">
    <path d="M 65.14 46.08 
L 529.2 46.08 
" style="fill: none; stroke: #ffffff; stroke-width: 0.8; stroke-linejoin: miter; stroke-linecap: square"/>
   </g>
  </g>
  <g id="text_9">
   <!-- CMU-Net | AM -->
   <g style="fill: #262626" transform="translate(176.641875 25.54125) scale(0.24 -0.24)">
    <defs>
     <path id="DejaVuSans-Bold-43" d="M 4288 256 
Q 3956 84 3597 -3 
Q 3238 -91 2847 -91 
Q 1681 -91 1000 561 
Q 319 1213 319 2328 
Q 319 3447 1000 4098 
Q 1681 4750 2847 4750 
Q 3238 4750 3597 4662 
Q 3956 4575 4288 4403 
L 4288 3438 
Q 3953 3666 3628 3772 
Q 3303 3878 2944 3878 
Q 2300 3878 1931 3465 
Q 1563 3053 1563 2328 
Q 1563 1606 1931 1193 
Q 2300 781 2944 781 
Q 3303 781 3628 887 
Q 3953 994 4288 1222 
L 4288 256 
z
" transform="scale(0.015625)"/>
     <path id="DejaVuSans-Bold-4d" d="M 588 4666 
L 2119 4666 
L 3181 2169 
L 4250 4666 
L 5778 4666 
L 5778 0 
L 4641 0 
L 4641 3413 
L 3566 897 
L 2803 897 
L 1728 3413 
L 1728 0 
L 588 0 
L 588 4666 
z
" transform="scale(0.015625)"/>
     <path id="DejaVuSans-Bold-55" d="M 588 4666 
L 1791 4666 
L 1791 1869 
Q 1791 1291 1980 1042 
Q 2169 794 2597 794 
Q 3028 794 3217 1042 
Q 3406 1291 3406 1869 
L 3406 4666 
L 4609 4666 
L 4609 1869 
Q 4609 878 4112 393 
Q 3616 -91 2597 -91 
Q 1581 -91 1084 393 
Q 588 878 588 1869 
L 588 4666 
z
" transform="scale(0.015625)"/>
     <path id="DejaVuSans-Bold-2d" d="M 347 2297 
L 2309 2297 
L 2309 1388 
L 347 1388 
L 347 2297 
z
" transform="scale(0.015625)"/>
     <path id="DejaVuSans-Bold-4e" d="M 588 4666 
L 1931 4666 
L 3628 1466 
L 3628 4666 
L 4769 4666 
L 4769 0 
L 3425 0 
L 1728 3200 
L 1728 0 
L 588 0 
L 588 4666 
z
" transform="scale(0.015625)"/>
     <path id="DejaVuSans-Bold-65" d="M 4031 1759 
L 4031 1441 
L 1416 1441 
Q 1456 1047 1700 850 
Q 1944 653 2381 653 
Q 2734 653 3104 758 
Q 3475 863 3866 1075 
L 3866 213 
Q 3469 63 3072 -14 
Q 2675 -91 2278 -91 
Q 1328 -91 801 392 
Q 275 875 275 1747 
Q 275 2603 792 3093 
Q 1309 3584 2216 3584 
Q 3041 3584 3536 3087 
Q 4031 2591 4031 1759 
z
M 2881 2131 
Q 2881 2450 2695 2645 
Q 2509 2841 2209 2841 
Q 1884 2841 1681 2658 
Q 1478 2475 1428 2131 
L 2881 2131 
z
" transform="scale(0.015625)"/>
     <path id="DejaVuSans-Bold-74" d="M 1759 4494 
L 1759 3500 
L 2913 3500 
L 2913 2700 
L 1759 2700 
L 1759 1216 
Q 1759 972 1856 886 
Q 1953 800 2241 800 
L 2816 800 
L 2816 0 
L 1856 0 
Q 1194 0 917 276 
Q 641 553 641 1216 
L 641 2700 
L 84 2700 
L 84 3500 
L 641 3500 
L 641 4494 
L 1759 4494 
z
" transform="scale(0.015625)"/>
     <path id="DejaVuSans-Bold-20" transform="scale(0.015625)"/>
     <path id="DejaVuSans-Bold-7c" d="M 1522 4891 
L 1522 -1509 
L 813 -1509 
L 813 4891 
L 1522 4891 
z
" transform="scale(0.015625)"/>
     <path id="DejaVuSans-Bold-41" d="M 3419 850 
L 1538 850 
L 1241 0 
L 31 0 
L 1759 4666 
L 3194 4666 
L 4922 0 
L 3713 0 
L 3419 850 
z
M 1838 1716 
L 3116 1716 
L 2478 3572 
L 1838 1716 
z
" transform="scale(0.015625)"/>
    </defs>
    <use xlink:href="#DejaVuSans-Bold-43"/>
    <use xlink:href="#DejaVuSans-Bold-4d" transform="translate(73.388672 0)"/>
    <use xlink:href="#DejaVuSans-Bold-55" transform="translate(172.900391 0)"/>
    <use xlink:href="#DejaVuSans-Bold-2d" transform="translate(254.101562 0)"/>
    <use xlink:href="#DejaVuSans-Bold-4e" transform="translate(295.605469 0)"/>
    <use xlink:href="#DejaVuSans-Bold-65" transform="translate(379.296875 0)"/>
    <use xlink:href="#DejaVuSans-Bold-74" transform="translate(447.119141 0)"/>
    <use xlink:href="#DejaVuSans-Bold-20" transform="translate(494.921875 0)"/>
    <use xlink:href="#DejaVuSans-Bold-7c" transform="translate(529.736328 0)"/>
    <use xlink:href="#DejaVuSans-Bold-20" transform="translate(566.259766 0)"/>
    <use xlink:href="#DejaVuSans-Bold-41" transform="translate(601.074219 0)"/>
    <use xlink:href="#DejaVuSans-Bold-4d" transform="translate(678.466797 0)"/>
   </g>
  </g>
 </g>
 <defs>
  <clipPath id="p69df784686">
   <rect x="65.14" y="46.08" width="464.06" height="282.44"/>
  </clipPath>
 </defs>
</svg>
