<?xml version="1.0" encoding="utf-8" standalone="no"?>
<!DOCTYPE svg PUBLIC "-//W3C//DTD SVG 1.1//EN"
  "http://www.w3.org/Graphics/SVG/1.1/DTD/svg11.dtd">
<svg xmlns:xlink="http://www.w3.org/1999/xlink" width="540pt" height="360pt" viewBox="0 0 540 360" xmlns="http://www.w3.org/2000/svg" version="1.1">
 <metadata>
  <rdf:RDF xmlns:dc="http://purl.org/dc/elements/1.1/" xmlns:cc="http://creativecommons.org/ns#" xmlns:rdf="http://www.w3.org/1999/02/22-rdf-syntax-ns#">
   <cc:Work>
    <dc:type rdf:resource="http://purl.org/dc/dcmitype/StillImage"/>
    <dc:date>2025-08-04T02:53:17.033076</dc:date>
    <dc:format>image/svg+xml</dc:format>
    <dc:creator>
     <cc:Agent>
      <dc:title>Matplotlib v3.10.0, https://matplotlib.org/</dc:title>
     </cc:Agent>
    </dc:creator>
   </cc:Work>
  </rdf:RDF>
 </metadata>
 <defs>
  <style type="text/css">*{stroke-linejoin: round; stroke-linecap: butt}</style>
 </defs>
 <g id="figure_1">
  <g id="patch_1">
   <path d="M 0 360 
L 540 360 
L 540 0 
L 0 0 
z
" style="fill: #ffffff"/>
  </g>
  <g id="axes_1">
   <g id="patch_2">
    <path d="M 65.14 328.52 
L 529.2 328.52 
L 529.2 46.08 
L 65.14 46.08 
z
" style="fill: #eaeaf2"/>
   </g>
   <g id="matplotlib.axis_1">
    <g id="xtick_1">
     <g id="line2d_1">
      <path d="M 73.987664 328.52 
L 73.987664 46.08 
" clip-path="url(#pd09ccb3685)" style="fill: none; stroke: #ffffff; stroke-width: 0.8; stroke-linecap: round"/>
     </g>
     <g id="text_1">
      <!-- 0 -->
      <g style="fill: #262626" transform="translate(69.533914 346.157812) scale(0.14 -0.14)">
       <defs>
        <path id="DejaVuSans-30" d="M 2034 4250 
Q 1547 4250 1301 3770 
Q 1056 3291 1056 2328 
Q 1056 1369 1301 889 
Q 1547 409 2034 409 
Q 2525 409 2770 889 
Q 3016 1369 3016 2328 
Q 3016 3291 2770 3770 
Q 2525 4250 2034 4250 
z
M 2034 4750 
Q 2819 4750 3233 4129 
Q 3647 3509 3647 2328 
Q 3647 1150 3233 529 
Q 2819 -91 2034 -91 
Q 1250 -91 836 529 
Q 422 1150 422 2328 
Q 422 3509 836 4129 
Q 1250 4750 2034 4750 
z
" transform="scale(0.015625)"/>
       </defs>
       <use xlink:href="#DejaVuSans-30"/>
      </g>
     </g>
    </g>
    <g id="xtick_2">
     <g id="line2d_2">
      <path d="M 516.370887 328.52 
L 516.370887 46.08 
" clip-path="url(#pd09ccb3685)" style="fill: none; stroke: #ffffff; stroke-width: 0.8; stroke-linecap: round"/>
     </g>
     <g id="text_2">
      <!-- 2M -->
      <g style="fill: #262626" transform="translate(505.877449 346.157812) scale(0.14 -0.14)">
       <defs>
        <path id="DejaVuSans-32" d="M 1228 531 
L 3431 531 
L 3431 0 
L 469 0 
L 469 531 
Q 828 903 1448 1529 
Q 2069 2156 2228 2338 
Q 2531 2678 2651 2914 
Q 2772 3150 2772 3378 
Q 2772 3750 2511 3984 
Q 2250 4219 1831 4219 
Q 1534 4219 1204 4116 
Q 875 4013 500 3803 
L 500 4441 
Q 881 4594 1212 4672 
Q 1544 4750 1819 4750 
Q 2544 4750 2975 4387 
Q 3406 4025 3406 3419 
Q 3406 3131 3298 2873 
Q 3191 2616 2906 2266 
Q 2828 2175 2409 1742 
Q 1991 1309 1228 531 
z
" transform="scale(0.015625)"/>
        <path id="DejaVuSans-4d" d="M 628 4666 
L 1569 4666 
L 2759 1491 
L 3956 4666 
L 4897 4666 
L 4897 0 
L 4281 0 
L 4281 4097 
L 3078 897 
L 2444 897 
L 1241 4097 
L 1241 0 
L 628 0 
L 628 4666 
z
" transform="scale(0.015625)"/>
       </defs>
       <use xlink:href="#DejaVuSans-32"/>
       <use xlink:href="#DejaVuSans-4d" transform="translate(63.623047 0)"/>
      </g>
     </g>
    </g>
   </g>
   <g id="matplotlib.axis_2">
    <g id="ytick_1">
     <g id="line2d_3">
      <path d="M 65.14 321.36962 
L 529.2 321.36962 
" clip-path="url(#pd09ccb3685)" style="fill: none; stroke: #ffffff; stroke-width: 0.8; stroke-linecap: round"/>
     </g>
     <g id="text_3">
      <!-- −1500 -->
      <g style="fill: #262626" transform="translate(10.778437 326.688527) scale(0.14 -0.14)">
       <defs>
        <path id="DejaVuSans-2212" d="M 678 2272 
L 4684 2272 
L 4684 1741 
L 678 1741 
L 678 2272 
z
" transform="scale(0.015625)"/>
        <path id="DejaVuSans-31" d="M 794 531 
L 1825 531 
L 1825 4091 
L 703 3866 
L 703 4441 
L 1819 4666 
L 2450 4666 
L 2450 531 
L 3481 531 
L 3481 0 
L 794 0 
L 794 531 
z
" transform="scale(0.015625)"/>
        <path id="DejaVuSans-35" d="M 691 4666 
L 3169 4666 
L 3169 4134 
L 1269 4134 
L 1269 2991 
Q 1406 3038 1543 3061 
Q 1681 3084 1819 3084 
Q 2600 3084 3056 2656 
Q 3513 2228 3513 1497 
Q 3513 744 3044 326 
Q 2575 -91 1722 -91 
Q 1428 -91 1123 -41 
Q 819 9 494 109 
L 494 744 
Q 775 591 1075 516 
Q 1375 441 1709 441 
Q 2250 441 2565 725 
Q 2881 1009 2881 1497 
Q 2881 1984 2565 2268 
Q 2250 2553 1709 2553 
Q 1456 2553 1204 2497 
Q 953 2441 691 2322 
L 691 4666 
z
" transform="scale(0.015625)"/>
       </defs>
       <use xlink:href="#DejaVuSans-2212"/>
       <use xlink:href="#DejaVuSans-31" transform="translate(83.789062 0)"/>
       <use xlink:href="#DejaVuSans-35" transform="translate(147.412109 0)"/>
       <use xlink:href="#DejaVuSans-30" transform="translate(211.035156 0)"/>
       <use xlink:href="#DejaVuSans-30" transform="translate(274.658203 0)"/>
      </g>
     </g>
    </g>
    <g id="ytick_2">
     <g id="line2d_4">
      <path d="M 65.14 267.741772 
L 529.2 267.741772 
" clip-path="url(#pd09ccb3685)" style="fill: none; stroke: #ffffff; stroke-width: 0.8; stroke-linecap: round"/>
     </g>
     <g id="text_4">
      <!-- −1200 -->
      <g style="fill: #262626" transform="translate(10.778437 273.060678) scale(0.14 -0.14)">
       <use xlink:href="#DejaVuSans-2212"/>
       <use xlink:href="#DejaVuSans-31" transform="translate(83.789062 0)"/>
       <use xlink:href="#DejaVuSans-32" transform="translate(147.412109 0)"/>
       <use xlink:href="#DejaVuSans-30" transform="translate(211.035156 0)"/>
       <use xlink:href="#DejaVuSans-30" transform="translate(274.658203 0)"/>
      </g>
     </g>
    </g>
    <g id="ytick_3">
     <g id="line2d_5">
      <path d="M 65.14 214.113924 
L 529.2 214.113924 
" clip-path="url(#pd09ccb3685)" style="fill: none; stroke: #ffffff; stroke-width: 0.8; stroke-linecap: round"/>
     </g>
     <g id="text_5">
      <!-- −900 -->
      <g style="fill: #262626" transform="translate(19.685937 219.43283) scale(0.14 -0.14)">
       <defs>
        <path id="DejaVuSans-39" d="M 703 97 
L 703 672 
Q 941 559 1184 500 
Q 1428 441 1663 441 
Q 2288 441 2617 861 
Q 2947 1281 2994 2138 
Q 2813 1869 2534 1725 
Q 2256 1581 1919 1581 
Q 1219 1581 811 2004 
Q 403 2428 403 3163 
Q 403 3881 828 4315 
Q 1253 4750 1959 4750 
Q 2769 4750 3195 4129 
Q 3622 3509 3622 2328 
Q 3622 1225 3098 567 
Q 2575 -91 1691 -91 
Q 1453 -91 1209 -44 
Q 966 3 703 97 
z
M 1959 2075 
Q 2384 2075 2632 2365 
Q 2881 2656 2881 3163 
Q 2881 3666 2632 3958 
Q 2384 4250 1959 4250 
Q 1534 4250 1286 3958 
Q 1038 3666 1038 3163 
Q 1038 2656 1286 2365 
Q 1534 2075 1959 2075 
z
" transform="scale(0.015625)"/>
       </defs>
       <use xlink:href="#DejaVuSans-2212"/>
       <use xlink:href="#DejaVuSans-39" transform="translate(83.789062 0)"/>
       <use xlink:href="#DejaVuSans-30" transform="translate(147.412109 0)"/>
       <use xlink:href="#DejaVuSans-30" transform="translate(211.035156 0)"/>
      </g>
     </g>
    </g>
    <g id="ytick_4">
     <g id="line2d_6">
      <path d="M 65.14 160.486076 
L 529.2 160.486076 
" clip-path="url(#pd09ccb3685)" style="fill: none; stroke: #ffffff; stroke-width: 0.8; stroke-linecap: round"/>
     </g>
     <g id="text_6">
      <!-- −600 -->
      <g style="fill: #262626" transform="translate(19.685937 165.804982) scale(0.14 -0.14)">
       <defs>
        <path id="DejaVuSans-36" d="M 2113 2584 
Q 1688 2584 1439 2293 
Q 1191 2003 1191 1497 
Q 1191 994 1439 701 
Q 1688 409 2113 409 
Q 2538 409 2786 701 
Q 3034 994 3034 1497 
Q 3034 2003 2786 2293 
Q 2538 2584 2113 2584 
z
M 3366 4563 
L 3366 3988 
Q 3128 4100 2886 4159 
Q 2644 4219 2406 4219 
Q 1781 4219 1451 3797 
Q 1122 3375 1075 2522 
Q 1259 2794 1537 2939 
Q 1816 3084 2150 3084 
Q 2853 3084 3261 2657 
Q 3669 2231 3669 1497 
Q 3669 778 3244 343 
Q 2819 -91 2113 -91 
Q 1303 -91 875 529 
Q 447 1150 447 2328 
Q 447 3434 972 4092 
Q 1497 4750 2381 4750 
Q 2619 4750 2861 4703 
Q 3103 4656 3366 4563 
z
" transform="scale(0.015625)"/>
       </defs>
       <use xlink:href="#DejaVuSans-2212"/>
       <use xlink:href="#DejaVuSans-36" transform="translate(83.789062 0)"/>
       <use xlink:href="#DejaVuSans-30" transform="translate(147.412109 0)"/>
       <use xlink:href="#DejaVuSans-30" transform="translate(211.035156 0)"/>
      </g>
     </g>
    </g>
    <g id="ytick_5">
     <g id="line2d_7">
      <path d="M 65.14 106.858228 
L 529.2 106.858228 
" clip-path="url(#pd09ccb3685)" style="fill: none; stroke: #ffffff; stroke-width: 0.8; stroke-linecap: round"/>
     </g>
     <g id="text_7">
      <!-- −300 -->
      <g style="fill: #262626" transform="translate(19.685937 112.177134) scale(0.14 -0.14)">
       <defs>
        <path id="DejaVuSans-33" d="M 2597 2516 
Q 3050 2419 3304 2112 
Q 3559 1806 3559 1356 
Q 3559 666 3084 287 
Q 2609 -91 1734 -91 
Q 1441 -91 1130 -33 
Q 819 25 488 141 
L 488 750 
Q 750 597 1062 519 
Q 1375 441 1716 441 
Q 2309 441 2620 675 
Q 2931 909 2931 1356 
Q 2931 1769 2642 2001 
Q 2353 2234 1838 2234 
L 1294 2234 
L 1294 2753 
L 1863 2753 
Q 2328 2753 2575 2939 
Q 2822 3125 2822 3475 
Q 2822 3834 2567 4026 
Q 2313 4219 1838 4219 
Q 1578 4219 1281 4162 
Q 984 4106 628 3988 
L 628 4550 
Q 988 4650 1302 4700 
Q 1616 4750 1894 4750 
Q 2613 4750 3031 4423 
Q 3450 4097 3450 3541 
Q 3450 3153 3228 2886 
Q 3006 2619 2597 2516 
z
" transform="scale(0.015625)"/>
       </defs>
       <use xlink:href="#DejaVuSans-2212"/>
       <use xlink:href="#DejaVuSans-33" transform="translate(83.789062 0)"/>
       <use xlink:href="#DejaVuSans-30" transform="translate(147.412109 0)"/>
       <use xlink:href="#DejaVuSans-30" transform="translate(211.035156 0)"/>
      </g>
     </g>
    </g>
    <g id="ytick_6">
     <g id="line2d_8">
      <path d="M 65.14 53.23038 
L 529.2 53.23038 
" clip-path="url(#pd09ccb3685)" style="fill: none; stroke: #ffffff; stroke-width: 0.8; stroke-linecap: round"/>
     </g>
     <g id="text_8">
      <!-- 0 -->
      <g style="fill: #262626" transform="translate(49.2325 58.549286) scale(0.14 -0.14)">
       <use xlink:href="#DejaVuSans-30"/>
      </g>
     </g>
    </g>
   </g>
   <g id="FillBetweenPolyCollection_1">
    <path d="M 73.987664 258.560362 
L 73.987664 281.264102 
L 78.517669 272.797531 
L 83.047673 282.739987 
L 87.577677 277.117348 
L 92.107681 277.956001 
L 96.637685 278.560637 
L 101.16769 269.445252 
L 105.697694 271.582839 
L 110.227698 252.824711 
L 114.757702 259.49004 
L 119.287706 242.617409 
L 123.817711 227.330329 
L 128.347715 230.012061 
L 132.877719 213.886189 
L 137.407723 203.826761 
L 141.937727 205.228692 
L 146.467732 185.527819 
L 150.997736 179.32943 
L 155.52774 177.268532 
L 160.057744 179.148915 
L 164.587748 157.149255 
L 169.117753 151.011026 
L 173.647757 148.83772 
L 178.177761 109.20718 
L 182.707765 114.418699 
L 187.237769 111.111237 
L 191.767773 105.816144 
L 196.297778 111.447509 
L 200.827782 105.399346 
L 205.357786 97.972007 
L 209.88779 115.348474 
L 214.417794 99.150764 
L 218.947799 95.858711 
L 223.477803 105.288531 
L 228.007807 94.21551 
L 232.537811 98.966287 
L 237.067815 89.758823 
L 241.59782 94.124005 
L 246.127824 103.243511 
L 250.657828 95.12222 
L 255.187832 87.06306 
L 259.717836 95.647842 
L 264.247841 88.779656 
L 268.777845 88.312749 
L 273.307849 91.925526 
L 277.837853 97.28106 
L 282.367857 92.377108 
L 286.897862 106.550592 
L 291.427866 88.04172 
L 295.95787 89.833626 
L 300.487874 96.129238 
L 305.017878 99.792048 
L 309.547883 92.993977 
L 314.077887 87.923732 
L 318.607891 87.778026 
L 323.137895 86.462967 
L 327.667899 89.193466 
L 332.197904 86.594384 
L 336.727908 85.297086 
L 341.257912 90.950335 
L 345.787916 134.61183 
L 350.31792 108.785579 
L 354.847924 91.045568 
L 359.377929 87.294057 
L 363.907933 88.226479 
L 368.437937 87.38869 
L 372.967941 88.437685 
L 377.497945 95.814353 
L 382.02795 144.754294 
L 386.557954 144.128006 
L 391.087958 159.422633 
L 395.617962 143.778677 
L 400.147966 137.591845 
L 404.677971 131.671259 
L 409.207975 152.094826 
L 413.737979 123.762985 
L 418.267983 133.667205 
L 422.797987 123.04223 
L 427.327992 152.41189 
L 431.857996 137.625489 
L 436.388 134.67331 
L 440.918004 184.633529 
L 445.448008 152.845846 
L 449.978013 115.095228 
L 454.508017 130.39642 
L 459.038021 120.376625 
L 463.568025 113.805924 
L 468.098029 101.313835 
L 472.628034 105.770355 
L 477.158038 88.98187 
L 481.688042 101.491592 
L 486.218046 110.607777 
L 490.74805 109.526067 
L 495.278055 91.31287 
L 499.808059 106.529657 
L 504.338063 90.658745 
L 508.868067 84.443353 
L 513.398071 85.562478 
L 517.928076 84.792301 
L 522.45808 83.613458 
L 522.45808 77.860747 
L 522.45808 77.860747 
L 517.928076 78.033203 
L 513.398071 77.482095 
L 508.868067 79.782909 
L 504.338063 74.312545 
L 499.808059 73.077527 
L 495.278055 81.149768 
L 490.74805 71.934321 
L 486.218046 71.528577 
L 481.688042 74.307947 
L 477.158038 82.950825 
L 472.628034 71.528616 
L 468.098029 73.718013 
L 463.568025 70.082545 
L 459.038021 72.269984 
L 454.508017 65.854806 
L 449.978013 77.909783 
L 445.448008 75.082515 
L 440.918004 70.852439 
L 436.388 63.717062 
L 431.857996 62.938199 
L 427.327992 56.968532 
L 422.797987 67.282858 
L 418.267983 66.446843 
L 413.737979 66.428132 
L 409.207975 56.190761 
L 404.677971 67.715445 
L 400.147966 65.696868 
L 395.617962 61.750125 
L 391.087958 55.789568 
L 386.557954 64.096432 
L 382.02795 67.586666 
L 377.497945 76.678324 
L 372.967941 81.279066 
L 368.437937 78.22033 
L 363.907933 83.936218 
L 359.377929 82.439698 
L 354.847924 81.049585 
L 350.31792 75.234469 
L 345.787916 66.697823 
L 341.257912 76.061025 
L 336.727908 81.62153 
L 332.197904 79.906267 
L 327.667899 82.442705 
L 323.137895 81.463526 
L 318.607891 81.076786 
L 314.077887 81.059819 
L 309.547883 78.231414 
L 305.017878 82.244933 
L 300.487874 83.097521 
L 295.95787 78.155063 
L 291.427866 80.363611 
L 286.897862 77.146846 
L 282.367857 83.668482 
L 277.837853 83.801434 
L 273.307849 86.307251 
L 268.777845 79.310609 
L 264.247841 80.357902 
L 259.717836 87.909005 
L 255.187832 80.454788 
L 250.657828 79.615518 
L 246.127824 80.796396 
L 241.59782 87.661028 
L 237.067815 84.274995 
L 232.537811 82.185116 
L 228.007807 83.943935 
L 223.477803 82.517509 
L 218.947799 86.686 
L 214.417794 86.596088 
L 209.88779 90.550248 
L 205.357786 87.501198 
L 200.827782 92.663189 
L 196.297778 96.38136 
L 191.767773 90.58589 
L 187.237769 93.918704 
L 182.707765 94.766728 
L 178.177761 90.368586 
L 173.647757 90.317505 
L 169.117753 87.533997 
L 164.587748 88.946332 
L 160.057744 87.051587 
L 155.52774 94.972899 
L 150.997736 93.502028 
L 146.467732 100.742354 
L 141.937727 104.184998 
L 137.407723 117.818824 
L 132.877719 145.095386 
L 128.347715 173.791845 
L 123.817711 199.062032 
L 119.287706 208.616587 
L 114.757702 236.825146 
L 110.227698 230.421642 
L 105.697694 245.693885 
L 101.16769 235.431306 
L 96.637685 245.840453 
L 92.107681 251.043751 
L 87.577677 242.474784 
L 83.047673 252.970782 
L 78.517669 255.553292 
L 73.987664 258.560362 
z
" clip-path="url(#pd09ccb3685)" style="fill: #023eff; fill-opacity: 0.1"/>
   </g>
   <g id="line2d_9">
    <path d="M 73.987664 283.120635 
L 78.517669 274.676597 
L 83.047673 285.576768 
L 87.577677 284.836214 
L 92.107681 288.421389 
L 96.637685 291.646612 
L 101.16769 268.201422 
L 105.697694 279.266851 
L 110.227698 248.097341 
L 114.757702 244.648449 
L 119.287706 230.019677 
L 123.817711 215.018842 
L 128.347715 187.749733 
L 132.877719 143.05036 
L 137.407723 129.58409 
L 141.937727 143.020486 
L 146.467732 138.894901 
L 150.997736 119.433688 
L 155.52774 125.928788 
L 160.057744 104.984731 
L 164.587748 100.803808 
L 169.117753 98.72427 
L 173.647757 98.315394 
L 178.177761 90.333977 
L 182.707765 91.70504 
L 187.237769 98.168884 
L 191.767773 86.205277 
L 196.297778 100.17949 
L 200.827782 101.084781 
L 205.357786 86.384015 
L 209.88779 95.948839 
L 214.417794 92.461542 
L 218.947799 88.594254 
L 223.477803 86.668667 
L 228.007807 97.691341 
L 232.537811 97.636173 
L 237.067815 82.085918 
L 241.59782 92.847502 
L 246.127824 81.086425 
L 250.657828 89.450726 
L 255.187832 84.951449 
L 259.717836 97.754656 
L 264.247841 86.882282 
L 268.777845 79.729239 
L 273.307849 92.65505 
L 277.837853 93.052269 
L 282.367857 83.615748 
L 286.897862 87.704673 
L 291.427866 83.171447 
L 295.95787 79.679358 
L 300.487874 96.879649 
L 305.017878 84.125182 
L 309.547883 86.210976 
L 314.077887 89.647295 
L 318.607891 90.561088 
L 323.137895 86.984071 
L 327.667899 90.687229 
L 332.197904 88.608109 
L 336.727908 86.801513 
L 341.257912 88.645938 
L 345.787916 86.688717 
L 350.31792 90.764451 
L 354.847924 84.39275 
L 359.377929 84.112113 
L 363.907933 89.319651 
L 368.437937 86.830077 
L 372.967941 88.200224 
L 377.497945 85.503051 
L 382.02795 91.896794 
L 386.557954 80.92439 
L 391.087958 83.846578 
L 395.617962 85.645412 
L 400.147966 84.806338 
L 404.677971 97.98898 
L 409.207975 84.116963 
L 413.737979 88.93664 
L 418.267983 86.975048 
L 422.797987 86.210697 
L 427.327992 86.86131 
L 431.857996 79.921164 
L 436.388 86.020648 
L 440.918004 90.109231 
L 445.448008 88.186105 
L 449.978013 89.229231 
L 454.508017 79.653936 
L 459.038021 83.102143 
L 463.568025 88.420974 
L 468.098029 85.993897 
L 472.628034 77.080773 
L 477.158038 89.811765 
L 481.688042 85.631551 
L 486.218046 83.312247 
L 490.74805 90.384373 
L 495.278055 87.510854 
L 499.808059 88.203265 
L 504.338063 77.048508 
L 508.868067 79.366749 
L 513.398071 88.771553 
L 517.928076 82.839857 
L 522.45808 85.341079 
" clip-path="url(#pd09ccb3685)" style="fill: none; stroke: #1ac938; stroke-opacity: 0.27; stroke-width: 1.25; stroke-linecap: round"/>
   </g>
   <g id="line2d_10">
    <path d="M 73.987664 266.536806 
L 78.517669 271.526865 
L 83.047673 248.50678 
L 87.577677 239.602598 
L 92.107681 261.14427 
L 96.637685 262.274491 
L 101.16769 261.290908 
L 105.697694 258.612174 
L 110.227698 228.03491 
L 114.757702 238.060762 
L 119.287706 216.675251 
L 123.817711 207.837464 
L 128.347715 200.004734 
L 132.877719 177.436459 
L 137.407723 132.483377 
L 141.937727 108.059771 
L 146.467732 105.065088 
L 150.997736 90.129685 
L 155.52774 109.535946 
L 160.057744 96.956184 
L 164.587748 101.890825 
L 169.117753 96.108911 
L 173.647757 89.964494 
L 178.177761 96.29702 
L 182.707765 97.585341 
L 187.237769 87.789738 
L 191.767773 94.817353 
L 196.297778 98.432545 
L 200.827782 91.889376 
L 205.357786 86.650638 
L 209.88779 92.979032 
L 214.417794 84.286266 
L 218.947799 85.210061 
L 223.477803 77.836937 
L 228.007807 83.937793 
L 232.537811 85.295292 
L 237.067815 87.670704 
L 241.59782 85.123815 
L 246.127824 80.480435 
L 250.657828 83.696064 
L 255.187832 83.600258 
L 259.717836 90.743065 
L 264.247841 83.383948 
L 268.777845 82.589158 
L 273.307849 88.330133 
L 277.837853 89.909058 
L 282.367857 88.116864 
L 286.897862 120.702559 
L 291.427866 87.525184 
L 295.95787 86.135303 
L 300.487874 96.953973 
L 305.017878 104.247788 
L 309.547883 81.039506 
L 314.077887 82.062903 
L 318.607891 84.017625 
L 323.137895 81.200604 
L 327.667899 84.792605 
L 332.197904 83.983628 
L 336.727908 82.877838 
L 341.257912 92.577616 
L 345.787916 77.156271 
L 350.31792 79.152772 
L 354.847924 78.650601 
L 359.377929 83.906096 
L 363.907933 87.215658 
L 368.437937 80.293782 
L 372.967941 86.200114 
L 377.497945 104.619937 
L 382.02795 183.079922 
L 386.557954 183.753777 
L 391.087958 211.192594 
L 395.617962 184.543123 
L 400.147966 173.057265 
L 404.677971 161.736182 
L 409.207975 199.827969 
L 413.737979 151.454976 
L 418.267983 167.122346 
L 422.797987 150.510884 
L 427.327992 199.8912 
L 431.857996 174.927829 
L 436.388 169.840405 
L 440.918004 173.098927 
L 445.448008 179.560494 
L 449.978013 132.33759 
L 454.508017 162.206114 
L 459.038021 144.384008 
L 463.568025 134.927495 
L 468.098029 114.41785 
L 472.628034 122.66241 
L 477.158038 89.009775 
L 481.688042 114.682544 
L 486.218046 129.790166 
L 490.74805 127.117031 
L 495.278055 95.417554 
L 499.808059 122.548996 
L 504.338063 98.758457 
L 508.868067 84.738779 
L 513.398071 76.255984 
L 517.928076 78.415124 
L 522.45808 78.228823 
" clip-path="url(#pd09ccb3685)" style="fill: none; stroke: #1ac938; stroke-opacity: 0.27; stroke-width: 1.25; stroke-linecap: round"/>
   </g>
   <g id="line2d_11">
    <path d="M 73.987664 252.166074 
L 78.517669 250.242845 
L 83.047673 254.668044 
L 87.577677 273.780715 
L 92.107681 268.62343 
L 96.637685 257.876533 
L 101.16769 268.20158 
L 105.697694 253.128149 
L 110.227698 255.612167 
L 114.757702 268.024645 
L 119.287706 230.094773 
L 123.817711 214.446771 
L 128.347715 190.440221 
L 132.877719 197.474117 
L 137.407723 167.231877 
L 141.937727 131.615027 
L 146.467732 134.99873 
L 150.997736 132.642536 
L 155.52774 126.225785 
L 160.057744 122.473182 
L 164.587748 109.493986 
L 169.117753 119.647161 
L 173.647757 136.584068 
L 178.177761 102.531602 
L 182.707765 116.312903 
L 187.237769 109.24167 
L 191.767773 107.013602 
L 196.297778 95.40107 
L 200.827782 101.998941 
L 205.357786 98.502909 
L 209.88779 123.631452 
L 214.417794 88.411012 
L 218.947799 94.976327 
L 223.477803 111.876389 
L 228.007807 87.727743 
L 232.537811 89.812298 
L 237.067815 86.338064 
L 241.59782 89.730696 
L 246.127824 97.40727 
L 250.657828 86.947873 
L 255.187832 78.129933 
L 259.717836 88.395671 
L 264.247841 82.44739 
L 268.777845 79.951052 
L 273.307849 90.953797 
L 277.837853 79.595898 
L 282.367857 92.219383 
L 286.897862 81.410258 
L 291.427866 77.407362 
L 295.95787 76.792509 
L 300.487874 83.543759 
L 305.017878 86.454977 
L 309.547883 77.132102 
L 314.077887 86.86131 
L 318.607891 80.296514 
L 323.137895 80.948178 
L 327.667899 80.543674 
L 332.197904 82.114941 
L 336.727908 82.522082 
L 341.257912 72.358368 
L 345.787916 82.774301 
L 350.31792 83.334871 
L 354.847924 84.418555 
L 359.377929 81.674889 
L 363.907933 82.979975 
L 368.437937 79.024406 
L 372.967941 88.694985 
L 377.497945 83.605416 
L 382.02795 87.067451 
L 386.557954 80.25864 
L 391.087958 82.03987 
L 395.617962 78.259432 
L 400.147966 79.780532 
L 404.677971 74.991996 
L 409.207975 81.671872 
L 413.737979 83.919028 
L 418.267983 84.235958 
L 422.797987 79.545889 
L 427.327992 81.011429 
L 431.857996 83.769863 
L 436.388 75.79749 
L 440.918004 217.13623 
L 445.448008 137.771314 
L 449.978013 95.80803 
L 454.508017 81.539725 
L 459.038021 83.285541 
L 463.568025 80.598793 
L 468.098029 77.502491 
L 472.628034 79.320253 
L 477.158038 84.16612 
L 481.688042 79.202196 
L 486.218046 78.31748 
L 490.74805 78.563608 
L 495.278055 84.824545 
L 499.808059 80.059224 
L 504.338063 78.307531 
L 508.868067 79.299001 
L 513.398071 80.944896 
L 517.928076 76.549371 
L 522.45808 77.420964 
" clip-path="url(#pd09ccb3685)" style="fill: none; stroke: #1ac938; stroke-opacity: 0.27; stroke-width: 1.25; stroke-linecap: round"/>
   </g>
   <g id="line2d_12">
    <path d="M 73.987664 266.377695 
L 78.517669 260.54414 
L 83.047673 283.499761 
L 87.577677 257.18 
L 92.107681 252.311905 
L 96.637685 241.384563 
L 101.16769 226.975056 
L 105.697694 239.516174 
L 110.227698 228.659657 
L 114.757702 237.491759 
L 119.287706 199.901974 
L 123.817711 192.39971 
L 128.347715 175.425695 
L 132.877719 144.750203 
L 137.407723 132.574938 
L 141.937727 137.967329 
L 146.467732 112.771542 
L 150.997736 122.419856 
L 155.52774 102.588003 
L 160.057744 117.68253 
L 164.587748 112.368387 
L 169.117753 101.326165 
L 173.647757 104.193478 
L 178.177761 93.003656 
L 182.707765 101.723935 
L 187.237769 106.205878 
L 191.767773 105.690414 
L 196.297778 110.534784 
L 200.827782 108.352455 
L 205.357786 97.51204 
L 209.88779 91.459435 
L 214.417794 102.113868 
L 218.947799 89.616395 
L 223.477803 97.048 
L 228.007807 91.709494 
L 232.537811 101.754481 
L 237.067815 89.725524 
L 241.59782 92.548147 
L 246.127824 110.616535 
L 250.657828 100.218562 
L 255.187832 88.390598 
L 259.717836 87.43441 
L 264.247841 91.266277 
L 268.777845 84.773089 
L 273.307849 84.330831 
L 277.837853 89.619279 
L 282.367857 93.454591 
L 286.897862 81.53412 
L 291.427866 84.831403 
L 295.95787 93.754918 
L 300.487874 89.364491 
L 305.017878 81.767206 
L 309.547883 84.71113 
L 314.077887 83.920119 
L 318.607891 83.559482 
L 323.137895 84.448772 
L 327.667899 85.236761 
L 332.197904 83.331917 
L 336.727908 83.73871 
L 341.257912 86.413559 
L 345.787916 88.534848 
L 350.31792 82.120393 
L 354.847924 93.356768 
L 359.377929 85.627644 
L 363.907933 86.081386 
L 368.437937 89.669057 
L 372.967941 80.407736 
L 377.497945 78.379123 
L 382.02795 81.926379 
L 386.557954 84.242502 
L 391.087958 81.949238 
L 395.617962 86.103082 
L 400.147966 90.978877 
L 404.677971 84.663745 
L 409.207975 80.777661 
L 413.737979 77.637923 
L 418.267983 81.623924 
L 422.797987 83.324456 
L 427.327992 79.171181 
L 431.857996 81.170425 
L 436.388 81.372984 
L 440.918004 78.100551 
L 445.448008 82.726134 
L 449.978013 81.425079 
L 454.508017 89.23795 
L 459.038021 84.903401 
L 463.568025 79.584006 
L 468.098029 81.775449 
L 472.628034 81.124854 
L 477.158038 81.805043 
L 481.688042 80.486338 
L 486.218046 85.19723 
L 490.74805 76.638596 
L 495.278055 81.508183 
L 499.808059 78.969284 
L 504.338063 79.236668 
L 508.868067 84.074019 
L 513.398071 80.753407 
L 517.928076 85.560921 
L 522.45808 80.313512 
" clip-path="url(#pd09ccb3685)" style="fill: none; stroke: #1ac938; stroke-opacity: 0.27; stroke-width: 1.25; stroke-linecap: round"/>
   </g>
   <g id="line2d_13">
    <path d="M 73.987664 281.359951 
L 78.517669 263.88661 
L 83.047673 267.025571 
L 87.577677 243.580804 
L 92.107681 251.998384 
L 96.637685 257.820527 
L 101.16769 237.522429 
L 105.697694 262.668461 
L 110.227698 247.711808 
L 114.757702 252.56235 
L 119.287706 251.393316 
L 123.817711 236.278114 
L 128.347715 255.889382 
L 132.877719 234.742798 
L 137.407723 242.239682 
L 141.937727 252.871611 
L 146.467732 223.945171 
L 150.997736 217.452879 
L 155.52774 216.325056 
L 160.057744 223.404628 
L 164.587748 190.681961 
L 169.117753 180.556051 
L 173.647757 168.830628 
L 178.177761 116.773159 
L 182.707765 115.636347 
L 187.237769 111.168683 
L 191.767773 97.278439 
L 196.297778 115.024282 
L 200.827782 91.830783 
L 205.357786 94.633409 
L 209.88779 110.728047 
L 214.417794 97.094441 
L 218.947799 97.964741 
L 223.477803 96.085105 
L 228.007807 84.33224 
L 232.537811 78.380263 
L 237.067815 89.264336 
L 241.59782 94.212422 
L 246.127824 90.509105 
L 250.657828 76.53112 
L 255.187832 83.722382 
L 259.717836 94.564316 
L 264.247841 78.863998 
L 268.777845 92.015857 
L 273.307849 89.312131 
L 277.837853 100.52973 
L 282.367857 82.707388 
L 286.897862 87.891986 
L 291.427866 88.077933 
L 295.95787 83.609635 
L 300.487874 81.325026 
L 305.017878 98.497302 
L 309.547883 98.969764 
L 314.077887 79.967251 
L 318.607891 83.702322 
L 323.137895 86.234605 
L 327.667899 87.830159 
L 332.197904 78.213034 
L 336.727908 81.356396 
L 341.257912 77.532921 
L 345.787916 168.119996 
L 350.31792 124.677634 
L 354.847924 89.41921 
L 359.377929 89.013644 
L 363.907933 84.810073 
L 368.437937 78.205228 
L 372.967941 80.788817 
L 377.497945 79.124166 
L 382.02795 86.881854 
L 386.557954 91.381785 
L 391.087958 79.002222 
L 395.617962 79.270956 
L 400.147966 79.59877 
L 404.677971 79.085855 
L 409.207975 74.319501 
L 413.737979 73.529225 
L 418.267983 80.327844 
L 422.797987 76.220796 
L 427.327992 76.515937 
L 431.857996 81.619937 
L 436.388 82.944402 
L 440.918004 80.26998 
L 445.448008 81.576854 
L 449.978013 83.712597 
L 454.508017 77.990341 
L 459.038021 85.941428 
L 463.568025 76.189904 
L 468.098029 77.889932 
L 472.628034 83.059138 
L 477.158038 85.039035 
L 481.688042 79.496221 
L 486.218046 78.723762 
L 490.74805 80.94736 
L 495.278055 81.89546 
L 499.808059 79.237193 
L 504.338063 79.077059 
L 508.868067 83.087107 
L 513.398071 80.885591 
L 517.928076 83.698487 
L 522.45808 82.381136 
" clip-path="url(#pd09ccb3685)" style="fill: none; stroke: #1ac938; stroke-opacity: 0.27; stroke-width: 1.25; stroke-linecap: round"/>
   </g>
   <g id="line2d_14">
    <path d="M 73.987664 53.23038 
L 78.517669 59.44753 
L 83.047673 68.886862 
L 87.577677 86.768873 
L 92.107681 105.626607 
L 96.637685 129.620215 
L 101.16769 150.364432 
L 105.697694 174.414779 
L 110.227698 203.338128 
L 114.757702 231.312599 
L 119.287706 253.503823 
L 123.817711 266.735075 
L 128.347715 268.776399 
L 132.877719 265.509945 
L 137.407723 262.140726 
L 141.937727 252.864811 
L 146.467732 254.625836 
L 150.997736 253.294945 
L 155.52774 263.043109 
L 160.057744 265.464911 
L 164.587748 262.610258 
L 169.117753 264.20449 
L 173.647757 268.251623 
L 178.177761 263.291402 
L 182.707765 274.644519 
L 187.237769 274.312379 
L 191.767773 274.106989 
L 196.297778 275.019995 
L 200.827782 270.376807 
L 205.357786 273.098338 
L 209.88779 276.729599 
L 214.417794 282.484749 
L 218.947799 286.559826 
L 223.477803 289.148398 
L 228.007807 288.470911 
L 232.537811 287.827713 
L 237.067815 290.261967 
L 241.59782 295.343185 
L 246.127824 294.76502 
L 250.657828 297.740365 
L 255.187832 295.326573 
L 259.717836 294.002694 
L 264.247841 294.282221 
L 268.777845 294.635691 
L 273.307849 294.814639 
L 277.837853 297.594285 
L 282.367857 300.025526 
L 286.897862 300.304439 
L 291.427866 297.780067 
L 295.95787 296.800274 
L 300.487874 295.323164 
L 305.017878 300.372425 
L 309.547883 301.790649 
L 314.077887 303.894466 
L 318.607891 300.579664 
L 323.137895 301.784005 
L 327.667899 294.797233 
L 332.197904 301.270673 
L 336.727908 299.878726 
L 341.257912 303.956711 
L 345.787916 304.419406 
L 350.31792 306.691413 
L 354.847924 310.030793 
L 359.377929 305.413687 
L 363.907933 305.931878 
L 368.437937 304.77943 
L 372.967941 305.324771 
L 377.497945 307.065899 
L 382.02795 314.50671 
L 386.557954 313.725825 
L 391.087958 316.63945 
L 395.617962 314.651074 
L 400.147966 314.781594 
L 404.677971 317.64811 
L 409.207975 317.048061 
L 413.737979 314.576515 
L 418.267983 319.871937 
L 422.797987 318.877147 
L 427.327992 316.950916 
L 431.857996 316.285153 
L 436.388 315.681012 
L 440.918004 321.36962 
L 445.448008 316.049265 
L 449.978013 312.266775 
L 454.508017 311.128766 
L 459.038021 312.256526 
L 463.568025 311.985658 
L 468.098029 310.953533 
L 472.628034 309.269444 
L 477.158038 310.275479 
L 481.688042 309.342087 
L 486.218046 309.274702 
L 490.74805 309.460387 
L 495.278055 311.80797 
L 499.808059 309.510377 
L 504.338063 311.160554 
L 508.868067 311.017618 
L 513.398071 309.218871 
L 517.928076 308.030822 
L 522.45808 310.15354 
" clip-path="url(#pd09ccb3685)" style="fill: none; stroke: #8b2be2; stroke-width: 1.5; stroke-linecap: round"/>
   </g>
   <g id="line2d_15">
    <path d="M 73.987664 269.912232 
L 78.517669 264.175411 
L 83.047673 267.855385 
L 87.577677 259.796066 
L 92.107681 264.499876 
L 96.637685 262.200545 
L 101.16769 252.438279 
L 105.697694 258.638362 
L 110.227698 241.623176 
L 114.757702 248.157593 
L 119.287706 225.616998 
L 123.817711 213.19618 
L 128.347715 201.901953 
L 132.877719 179.490787 
L 137.407723 160.822793 
L 141.937727 154.706845 
L 146.467732 143.135086 
L 150.997736 136.415729 
L 155.52774 136.120716 
L 160.057744 133.100251 
L 164.587748 123.047793 
L 169.117753 119.272512 
L 173.647757 119.577612 
L 178.177761 99.787883 
L 182.707765 104.592713 
L 187.237769 102.514971 
L 191.767773 98.201017 
L 196.297778 103.914434 
L 200.827782 99.031267 
L 205.357786 92.736602 
L 209.88779 102.949361 
L 214.417794 92.873426 
L 218.947799 91.272356 
L 223.477803 93.90302 
L 228.007807 89.079722 
L 232.537811 90.575701 
L 237.067815 87.016909 
L 241.59782 90.892516 
L 246.127824 92.019954 
L 250.657828 87.368869 
L 255.187832 83.758924 
L 259.717836 91.778424 
L 264.247841 84.568779 
L 268.777845 83.811679 
L 273.307849 89.116389 
L 277.837853 90.541247 
L 282.367857 88.022795 
L 286.897862 91.848719 
L 291.427866 84.202666 
L 295.95787 83.994345 
L 300.487874 89.613379 
L 305.017878 91.018491 
L 309.547883 85.612695 
L 314.077887 84.491775 
L 318.607891 84.427406 
L 323.137895 83.963246 
L 327.667899 85.818085 
L 332.197904 83.250326 
L 336.727908 83.459308 
L 341.257912 83.50568 
L 345.787916 100.654827 
L 350.31792 92.010024 
L 354.847924 86.047577 
L 359.377929 84.866877 
L 363.907933 86.081349 
L 368.437937 82.80451 
L 372.967941 84.858375 
L 377.497945 86.246338 
L 382.02795 106.17048 
L 386.557954 104.112219 
L 391.087958 107.606101 
L 395.617962 102.764401 
L 400.147966 101.644356 
L 404.677971 99.693352 
L 409.207975 104.142793 
L 413.737979 95.095559 
L 418.267983 100.057024 
L 422.797987 95.162544 
L 427.327992 104.690211 
L 431.857996 100.281844 
L 436.388 99.195186 
L 440.918004 127.742984 
L 445.448008 113.96418 
L 449.978013 96.502505 
L 454.508017 98.125613 
L 459.038021 96.323304 
L 463.568025 91.944235 
L 468.098029 87.515924 
L 472.628034 88.649486 
L 477.158038 85.966348 
L 481.688042 87.89977 
L 486.218046 91.068177 
L 490.74805 90.730194 
L 495.278055 86.231319 
L 499.808059 89.803592 
L 504.338063 82.485645 
L 508.868067 82.113131 
L 513.398071 81.522286 
L 517.928076 81.412752 
L 522.45808 80.737103 
" clip-path="url(#pd09ccb3685)" style="fill: none; stroke: #023eff; stroke-width: 2; stroke-linecap: round"/>
   </g>
   <g id="line2d_16">
    <path d="M 65.14 88.982278 
L 529.2 88.982278 
" clip-path="url(#pd09ccb3685)" style="fill: none; stroke-dasharray: 1.25,2.0625; stroke-dashoffset: 0; stroke: #000000; stroke-opacity: 0.6; stroke-width: 1.25"/>
   </g>
   <g id="patch_3">
    <path d="M 65.14 328.52 
L 65.14 46.08 
" style="fill: none; stroke: #ffffff; stroke-width: 0.8; stroke-linejoin: miter; stroke-linecap: square"/>
   </g>
   <g id="patch_4">
    <path d="M 529.2 328.52 
L 529.2 46.08 
" style="fill: none; stroke: #ffffff; stroke-width: 0.8; stroke-linejoin: miter; stroke-linecap: square"/>
   </g>
   <g id="patch_5">
    <path d="M 65.14 328.52 
L 529.2 328.52 
" style="fill: none; stroke: #ffffff; stroke-width: 0.8; stroke-linejoin: miter; stroke-linecap: square"/>
   </g>
   <g id="patch_6">
    <path d="M 65.14 46.08 
L 529.2 46.08 
" style="fill: none; stroke: #ffffff; stroke-width: 0.8; stroke-linejoin: miter; stroke-linecap: square"/>
   </g>
  </g>
  <g id="text_9">
   <!-- CMU-Net | PM -->
   <g style="fill: #262626" transform="translate(177.133125 25.54125) scale(0.24 -0.24)">
    <defs>
     <path id="DejaVuSans-Bold-43" d="M 4288 256 
Q 3956 84 3597 -3 
Q 3238 -91 2847 -91 
Q 1681 -91 1000 561 
Q 319 1213 319 2328 
Q 319 3447 1000 4098 
Q 1681 4750 2847 4750 
Q 3238 4750 3597 4662 
Q 3956 4575 4288 4403 
L 4288 3438 
Q 3953 3666 3628 3772 
Q 3303 3878 2944 3878 
Q 2300 3878 1931 3465 
Q 1563 3053 1563 2328 
Q 1563 1606 1931 1193 
Q 2300 781 2944 781 
Q 3303 781 3628 887 
Q 3953 994 4288 1222 
L 4288 256 
z
" transform="scale(0.015625)"/>
     <path id="DejaVuSans-Bold-4d" d="M 588 4666 
L 2119 4666 
L 3181 2169 
L 4250 4666 
L 5778 4666 
L 5778 0 
L 4641 0 
L 4641 3413 
L 3566 897 
L 2803 897 
L 1728 3413 
L 1728 0 
L 588 0 
L 588 4666 
z
" transform="scale(0.015625)"/>
     <path id="DejaVuSans-Bold-55" d="M 588 4666 
L 1791 4666 
L 1791 1869 
Q 1791 1291 1980 1042 
Q 2169 794 2597 794 
Q 3028 794 3217 1042 
Q 3406 1291 3406 1869 
L 3406 4666 
L 4609 4666 
L 4609 1869 
Q 4609 878 4112 393 
Q 3616 -91 2597 -91 
Q 1581 -91 1084 393 
Q 588 878 588 1869 
L 588 4666 
z
" transform="scale(0.015625)"/>
     <path id="DejaVuSans-Bold-2d" d="M 347 2297 
L 2309 2297 
L 2309 1388 
L 347 1388 
L 347 2297 
z
" transform="scale(0.015625)"/>
     <path id="DejaVuSans-Bold-4e" d="M 588 4666 
L 1931 4666 
L 3628 1466 
L 3628 4666 
L 4769 4666 
L 4769 0 
L 3425 0 
L 1728 3200 
L 1728 0 
L 588 0 
L 588 4666 
z
" transform="scale(0.015625)"/>
     <path id="DejaVuSans-Bold-65" d="M 4031 1759 
L 4031 1441 
L 1416 1441 
Q 1456 1047 1700 850 
Q 1944 653 2381 653 
Q 2734 653 3104 758 
Q 3475 863 3866 1075 
L 3866 213 
Q 3469 63 3072 -14 
Q 2675 -91 2278 -91 
Q 1328 -91 801 392 
Q 275 875 275 1747 
Q 275 2603 792 3093 
Q 1309 3584 2216 3584 
Q 3041 3584 3536 3087 
Q 4031 2591 4031 1759 
z
M 2881 2131 
Q 2881 2450 2695 2645 
Q 2509 2841 2209 2841 
Q 1884 2841 1681 2658 
Q 1478 2475 1428 2131 
L 2881 2131 
z
" transform="scale(0.015625)"/>
     <path id="DejaVuSans-Bold-74" d="M 1759 4494 
L 1759 3500 
L 2913 3500 
L 2913 2700 
L 1759 2700 
L 1759 1216 
Q 1759 972 1856 886 
Q 1953 800 2241 800 
L 2816 800 
L 2816 0 
L 1856 0 
Q 1194 0 917 276 
Q 641 553 641 1216 
L 641 2700 
L 84 2700 
L 84 3500 
L 641 3500 
L 641 4494 
L 1759 4494 
z
" transform="scale(0.015625)"/>
     <path id="DejaVuSans-Bold-20" transform="scale(0.015625)"/>
     <path id="DejaVuSans-Bold-7c" d="M 1522 4891 
L 1522 -1509 
L 813 -1509 
L 813 4891 
L 1522 4891 
z
" transform="scale(0.015625)"/>
     <path id="DejaVuSans-Bold-50" d="M 588 4666 
L 2584 4666 
Q 3475 4666 3951 4270 
Q 4428 3875 4428 3144 
Q 4428 2409 3951 2014 
Q 3475 1619 2584 1619 
L 1791 1619 
L 1791 0 
L 588 0 
L 588 4666 
z
M 1791 3794 
L 1791 2491 
L 2456 2491 
Q 2806 2491 2997 2661 
Q 3188 2831 3188 3144 
Q 3188 3456 2997 3625 
Q 2806 3794 2456 3794 
L 1791 3794 
z
" transform="scale(0.015625)"/>
    </defs>
    <use xlink:href="#DejaVuSans-Bold-43"/>
    <use xlink:href="#DejaVuSans-Bold-4d" transform="translate(73.388672 0)"/>
    <use xlink:href="#DejaVuSans-Bold-55" transform="translate(172.900391 0)"/>
    <use xlink:href="#DejaVuSans-Bold-2d" transform="translate(254.101562 0)"/>
    <use xlink:href="#DejaVuSans-Bold-4e" transform="translate(295.605469 0)"/>
    <use xlink:href="#DejaVuSans-Bold-65" transform="translate(379.296875 0)"/>
    <use xlink:href="#DejaVuSans-Bold-74" transform="translate(447.119141 0)"/>
    <use xlink:href="#DejaVuSans-Bold-20" transform="translate(494.921875 0)"/>
    <use xlink:href="#DejaVuSans-Bold-7c" transform="translate(529.736328 0)"/>
    <use xlink:href="#DejaVuSans-Bold-20" transform="translate(566.259766 0)"/>
    <use xlink:href="#DejaVuSans-Bold-50" transform="translate(601.074219 0)"/>
    <use xlink:href="#DejaVuSans-Bold-4d" transform="translate(674.365234 0)"/>
   </g>
  </g>
 </g>
 <defs>
  <clipPath id="pd09ccb3685">
   <rect x="65.14" y="46.08" width="464.06" height="282.44"/>
  </clipPath>
 </defs>
</svg>
