<?xml version="1.0" encoding="utf-8" standalone="no"?>
<!DOCTYPE svg PUBLIC "-//W3C//DTD SVG 1.1//EN"
  "http://www.w3.org/Graphics/SVG/1.1/DTD/svg11.dtd">
<svg xmlns:xlink="http://www.w3.org/1999/xlink" width="540pt" height="360pt" viewBox="0 0 540 360" xmlns="http://www.w3.org/2000/svg" version="1.1">
 <metadata>
  <rdf:RDF xmlns:dc="http://purl.org/dc/elements/1.1/" xmlns:cc="http://creativecommons.org/ns#" xmlns:rdf="http://www.w3.org/1999/02/22-rdf-syntax-ns#">
   <cc:Work>
    <dc:type rdf:resource="http://purl.org/dc/dcmitype/StillImage"/>
    <dc:date>2025-08-04T02:53:04.683810</dc:date>
    <dc:format>image/svg+xml</dc:format>
    <dc:creator>
     <cc:Agent>
      <dc:title>Matplotlib v3.10.0, https://matplotlib.org/</dc:title>
     </cc:Agent>
    </dc:creator>
   </cc:Work>
  </rdf:RDF>
 </metadata>
 <defs>
  <style type="text/css">*{stroke-linejoin: round; stroke-linecap: butt}</style>
 </defs>
 <g id="figure_1">
  <g id="patch_1">
   <path d="M 0 360 
L 540 360 
L 540 0 
L 0 0 
z
" style="fill: #ffffff"/>
  </g>
  <g id="axes_1">
   <g id="patch_2">
    <path d="M 65.14 328.52 
L 529.2 328.52 
L 529.2 46.08 
L 65.14 46.08 
z
" style="fill: #eaeaf2"/>
   </g>
   <g id="matplotlib.axis_1">
    <g id="xtick_1">
     <g id="line2d_1">
      <path d="M 73.987664 328.52 
L 73.987664 46.08 
" clip-path="url(#p2beb4e8a5d)" style="fill: none; stroke: #ffffff; stroke-width: 0.8; stroke-linecap: round"/>
     </g>
     <g id="text_1">
      <!-- 0 -->
      <g style="fill: #262626" transform="translate(69.533914 346.157812) scale(0.14 -0.14)">
       <defs>
        <path id="DejaVuSans-30" d="M 2034 4250 
Q 1547 4250 1301 3770 
Q 1056 3291 1056 2328 
Q 1056 1369 1301 889 
Q 1547 409 2034 409 
Q 2525 409 2770 889 
Q 3016 1369 3016 2328 
Q 3016 3291 2770 3770 
Q 2525 4250 2034 4250 
z
M 2034 4750 
Q 2819 4750 3233 4129 
Q 3647 3509 3647 2328 
Q 3647 1150 3233 529 
Q 2819 -91 2034 -91 
Q 1250 -91 836 529 
Q 422 1150 422 2328 
Q 422 3509 836 4129 
Q 1250 4750 2034 4750 
z
" transform="scale(0.015625)"/>
       </defs>
       <use xlink:href="#DejaVuSans-30"/>
      </g>
     </g>
    </g>
    <g id="xtick_2">
     <g id="line2d_2">
      <path d="M 516.370887 328.52 
L 516.370887 46.08 
" clip-path="url(#p2beb4e8a5d)" style="fill: none; stroke: #ffffff; stroke-width: 0.8; stroke-linecap: round"/>
     </g>
     <g id="text_2">
      <!-- 2M -->
      <g style="fill: #262626" transform="translate(505.877449 346.157812) scale(0.14 -0.14)">
       <defs>
        <path id="DejaVuSans-32" d="M 1228 531 
L 3431 531 
L 3431 0 
L 469 0 
L 469 531 
Q 828 903 1448 1529 
Q 2069 2156 2228 2338 
Q 2531 2678 2651 2914 
Q 2772 3150 2772 3378 
Q 2772 3750 2511 3984 
Q 2250 4219 1831 4219 
Q 1534 4219 1204 4116 
Q 875 4013 500 3803 
L 500 4441 
Q 881 4594 1212 4672 
Q 1544 4750 1819 4750 
Q 2544 4750 2975 4387 
Q 3406 4025 3406 3419 
Q 3406 3131 3298 2873 
Q 3191 2616 2906 2266 
Q 2828 2175 2409 1742 
Q 1991 1309 1228 531 
z
" transform="scale(0.015625)"/>
        <path id="DejaVuSans-4d" d="M 628 4666 
L 1569 4666 
L 2759 1491 
L 3956 4666 
L 4897 4666 
L 4897 0 
L 4281 0 
L 4281 4097 
L 3078 897 
L 2444 897 
L 1241 4097 
L 1241 0 
L 628 0 
L 628 4666 
z
" transform="scale(0.015625)"/>
       </defs>
       <use xlink:href="#DejaVuSans-32"/>
       <use xlink:href="#DejaVuSans-4d" transform="translate(63.623047 0)"/>
      </g>
     </g>
    </g>
   </g>
   <g id="matplotlib.axis_2">
    <g id="ytick_1">
     <g id="line2d_3">
      <path d="M 65.14 321.36962 
L 529.2 321.36962 
" clip-path="url(#p2beb4e8a5d)" style="fill: none; stroke: #ffffff; stroke-width: 0.8; stroke-linecap: round"/>
     </g>
     <g id="text_3">
      <!-- −1500 -->
      <g style="fill: #262626" transform="translate(10.778437 326.688527) scale(0.14 -0.14)">
       <defs>
        <path id="DejaVuSans-2212" d="M 678 2272 
L 4684 2272 
L 4684 1741 
L 678 1741 
L 678 2272 
z
" transform="scale(0.015625)"/>
        <path id="DejaVuSans-31" d="M 794 531 
L 1825 531 
L 1825 4091 
L 703 3866 
L 703 4441 
L 1819 4666 
L 2450 4666 
L 2450 531 
L 3481 531 
L 3481 0 
L 794 0 
L 794 531 
z
" transform="scale(0.015625)"/>
        <path id="DejaVuSans-35" d="M 691 4666 
L 3169 4666 
L 3169 4134 
L 1269 4134 
L 1269 2991 
Q 1406 3038 1543 3061 
Q 1681 3084 1819 3084 
Q 2600 3084 3056 2656 
Q 3513 2228 3513 1497 
Q 3513 744 3044 326 
Q 2575 -91 1722 -91 
Q 1428 -91 1123 -41 
Q 819 9 494 109 
L 494 744 
Q 775 591 1075 516 
Q 1375 441 1709 441 
Q 2250 441 2565 725 
Q 2881 1009 2881 1497 
Q 2881 1984 2565 2268 
Q 2250 2553 1709 2553 
Q 1456 2553 1204 2497 
Q 953 2441 691 2322 
L 691 4666 
z
" transform="scale(0.015625)"/>
       </defs>
       <use xlink:href="#DejaVuSans-2212"/>
       <use xlink:href="#DejaVuSans-31" transform="translate(83.789062 0)"/>
       <use xlink:href="#DejaVuSans-35" transform="translate(147.412109 0)"/>
       <use xlink:href="#DejaVuSans-30" transform="translate(211.035156 0)"/>
       <use xlink:href="#DejaVuSans-30" transform="translate(274.658203 0)"/>
      </g>
     </g>
    </g>
    <g id="ytick_2">
     <g id="line2d_4">
      <path d="M 65.14 267.741772 
L 529.2 267.741772 
" clip-path="url(#p2beb4e8a5d)" style="fill: none; stroke: #ffffff; stroke-width: 0.8; stroke-linecap: round"/>
     </g>
     <g id="text_4">
      <!-- −1200 -->
      <g style="fill: #262626" transform="translate(10.778437 273.060678) scale(0.14 -0.14)">
       <use xlink:href="#DejaVuSans-2212"/>
       <use xlink:href="#DejaVuSans-31" transform="translate(83.789062 0)"/>
       <use xlink:href="#DejaVuSans-32" transform="translate(147.412109 0)"/>
       <use xlink:href="#DejaVuSans-30" transform="translate(211.035156 0)"/>
       <use xlink:href="#DejaVuSans-30" transform="translate(274.658203 0)"/>
      </g>
     </g>
    </g>
    <g id="ytick_3">
     <g id="line2d_5">
      <path d="M 65.14 214.113924 
L 529.2 214.113924 
" clip-path="url(#p2beb4e8a5d)" style="fill: none; stroke: #ffffff; stroke-width: 0.8; stroke-linecap: round"/>
     </g>
     <g id="text_5">
      <!-- −900 -->
      <g style="fill: #262626" transform="translate(19.685937 219.43283) scale(0.14 -0.14)">
       <defs>
        <path id="DejaVuSans-39" d="M 703 97 
L 703 672 
Q 941 559 1184 500 
Q 1428 441 1663 441 
Q 2288 441 2617 861 
Q 2947 1281 2994 2138 
Q 2813 1869 2534 1725 
Q 2256 1581 1919 1581 
Q 1219 1581 811 2004 
Q 403 2428 403 3163 
Q 403 3881 828 4315 
Q 1253 4750 1959 4750 
Q 2769 4750 3195 4129 
Q 3622 3509 3622 2328 
Q 3622 1225 3098 567 
Q 2575 -91 1691 -91 
Q 1453 -91 1209 -44 
Q 966 3 703 97 
z
M 1959 2075 
Q 2384 2075 2632 2365 
Q 2881 2656 2881 3163 
Q 2881 3666 2632 3958 
Q 2384 4250 1959 4250 
Q 1534 4250 1286 3958 
Q 1038 3666 1038 3163 
Q 1038 2656 1286 2365 
Q 1534 2075 1959 2075 
z
" transform="scale(0.015625)"/>
       </defs>
       <use xlink:href="#DejaVuSans-2212"/>
       <use xlink:href="#DejaVuSans-39" transform="translate(83.789062 0)"/>
       <use xlink:href="#DejaVuSans-30" transform="translate(147.412109 0)"/>
       <use xlink:href="#DejaVuSans-30" transform="translate(211.035156 0)"/>
      </g>
     </g>
    </g>
    <g id="ytick_4">
     <g id="line2d_6">
      <path d="M 65.14 160.486076 
L 529.2 160.486076 
" clip-path="url(#p2beb4e8a5d)" style="fill: none; stroke: #ffffff; stroke-width: 0.8; stroke-linecap: round"/>
     </g>
     <g id="text_6">
      <!-- −600 -->
      <g style="fill: #262626" transform="translate(19.685937 165.804982) scale(0.14 -0.14)">
       <defs>
        <path id="DejaVuSans-36" d="M 2113 2584 
Q 1688 2584 1439 2293 
Q 1191 2003 1191 1497 
Q 1191 994 1439 701 
Q 1688 409 2113 409 
Q 2538 409 2786 701 
Q 3034 994 3034 1497 
Q 3034 2003 2786 2293 
Q 2538 2584 2113 2584 
z
M 3366 4563 
L 3366 3988 
Q 3128 4100 2886 4159 
Q 2644 4219 2406 4219 
Q 1781 4219 1451 3797 
Q 1122 3375 1075 2522 
Q 1259 2794 1537 2939 
Q 1816 3084 2150 3084 
Q 2853 3084 3261 2657 
Q 3669 2231 3669 1497 
Q 3669 778 3244 343 
Q 2819 -91 2113 -91 
Q 1303 -91 875 529 
Q 447 1150 447 2328 
Q 447 3434 972 4092 
Q 1497 4750 2381 4750 
Q 2619 4750 2861 4703 
Q 3103 4656 3366 4563 
z
" transform="scale(0.015625)"/>
       </defs>
       <use xlink:href="#DejaVuSans-2212"/>
       <use xlink:href="#DejaVuSans-36" transform="translate(83.789062 0)"/>
       <use xlink:href="#DejaVuSans-30" transform="translate(147.412109 0)"/>
       <use xlink:href="#DejaVuSans-30" transform="translate(211.035156 0)"/>
      </g>
     </g>
    </g>
    <g id="ytick_5">
     <g id="line2d_7">
      <path d="M 65.14 106.858228 
L 529.2 106.858228 
" clip-path="url(#p2beb4e8a5d)" style="fill: none; stroke: #ffffff; stroke-width: 0.8; stroke-linecap: round"/>
     </g>
     <g id="text_7">
      <!-- −300 -->
      <g style="fill: #262626" transform="translate(19.685937 112.177134) scale(0.14 -0.14)">
       <defs>
        <path id="DejaVuSans-33" d="M 2597 2516 
Q 3050 2419 3304 2112 
Q 3559 1806 3559 1356 
Q 3559 666 3084 287 
Q 2609 -91 1734 -91 
Q 1441 -91 1130 -33 
Q 819 25 488 141 
L 488 750 
Q 750 597 1062 519 
Q 1375 441 1716 441 
Q 2309 441 2620 675 
Q 2931 909 2931 1356 
Q 2931 1769 2642 2001 
Q 2353 2234 1838 2234 
L 1294 2234 
L 1294 2753 
L 1863 2753 
Q 2328 2753 2575 2939 
Q 2822 3125 2822 3475 
Q 2822 3834 2567 4026 
Q 2313 4219 1838 4219 
Q 1578 4219 1281 4162 
Q 984 4106 628 3988 
L 628 4550 
Q 988 4650 1302 4700 
Q 1616 4750 1894 4750 
Q 2613 4750 3031 4423 
Q 3450 4097 3450 3541 
Q 3450 3153 3228 2886 
Q 3006 2619 2597 2516 
z
" transform="scale(0.015625)"/>
       </defs>
       <use xlink:href="#DejaVuSans-2212"/>
       <use xlink:href="#DejaVuSans-33" transform="translate(83.789062 0)"/>
       <use xlink:href="#DejaVuSans-30" transform="translate(147.412109 0)"/>
       <use xlink:href="#DejaVuSans-30" transform="translate(211.035156 0)"/>
      </g>
     </g>
    </g>
    <g id="ytick_6">
     <g id="line2d_8">
      <path d="M 65.14 53.23038 
L 529.2 53.23038 
" clip-path="url(#p2beb4e8a5d)" style="fill: none; stroke: #ffffff; stroke-width: 0.8; stroke-linecap: round"/>
     </g>
     <g id="text_8">
      <!-- 0 -->
      <g style="fill: #262626" transform="translate(49.2325 58.549286) scale(0.14 -0.14)">
       <use xlink:href="#DejaVuSans-30"/>
      </g>
     </g>
    </g>
   </g>
   <g id="FillBetweenPolyCollection_1">
    <path d="M 73.987664 263.538747 
L 73.987664 280.019121 
L 78.517669 275.899766 
L 83.047673 282.634584 
L 87.577677 280.816903 
L 92.107681 267.969145 
L 96.637685 258.50225 
L 101.16769 259.517175 
L 105.697694 259.767778 
L 110.227698 245.497954 
L 114.757702 265.023822 
L 119.287706 253.109249 
L 123.817711 251.021785 
L 128.347715 255.432001 
L 132.877719 250.645309 
L 137.407723 250.779883 
L 141.937727 258.19574 
L 146.467732 247.432205 
L 150.997736 239.234294 
L 155.52774 254.658781 
L 160.057744 241.730586 
L 164.587748 243.0151 
L 169.117753 256.84885 
L 173.647757 237.375617 
L 178.177761 249.63209 
L 182.707765 246.553679 
L 187.237769 244.463237 
L 191.767773 237.889016 
L 196.297778 239.664107 
L 200.827782 226.665536 
L 205.357786 223.553264 
L 209.88779 216.007371 
L 214.417794 206.215406 
L 218.947799 208.105416 
L 223.477803 188.525583 
L 228.007807 223.660292 
L 232.537811 208.952445 
L 237.067815 221.840352 
L 241.59782 229.531081 
L 246.127824 229.481303 
L 250.657828 223.623569 
L 255.187832 201.610961 
L 259.717836 251.622275 
L 264.247841 229.865356 
L 268.777845 227.083734 
L 273.307849 222.265353 
L 277.837853 221.977348 
L 282.367857 227.686491 
L 286.897862 231.669706 
L 291.427866 228.693288 
L 295.95787 231.292194 
L 300.487874 229.296476 
L 305.017878 229.046611 
L 309.547883 220.927023 
L 314.077887 208.981582 
L 318.607891 234.033172 
L 323.137895 229.227269 
L 327.667899 233.875633 
L 332.197904 247.839329 
L 336.727908 255.759052 
L 341.257912 233.629963 
L 345.787916 248.889646 
L 350.31792 236.175444 
L 354.847924 239.399497 
L 359.377929 241.843827 
L 363.907933 242.917925 
L 368.437937 241.709019 
L 372.967941 229.440309 
L 377.497945 228.834576 
L 382.02795 216.213307 
L 386.557954 213.910969 
L 391.087958 203.476141 
L 395.617962 206.657023 
L 400.147966 204.930042 
L 404.677971 211.954108 
L 409.207975 209.324137 
L 413.737979 209.940549 
L 418.267983 207.902736 
L 422.797987 197.392258 
L 427.327992 229.916116 
L 431.857996 234.4812 
L 436.388 230.59996 
L 440.918004 224.988649 
L 445.448008 220.433459 
L 449.978013 222.543552 
L 454.508017 205.290167 
L 459.038021 243.701213 
L 463.568025 246.716549 
L 468.098029 247.43204 
L 472.628034 252.456193 
L 477.158038 238.395734 
L 481.688042 246.21488 
L 486.218046 230.738541 
L 490.74805 237.099116 
L 495.278055 236.700419 
L 499.808059 230.030069 
L 504.338063 219.709427 
L 508.868067 222.426377 
L 513.398071 229.67229 
L 517.928076 235.930688 
L 522.45808 240.444317 
L 522.45808 135.44479 
L 522.45808 135.44479 
L 517.928076 135.796206 
L 513.398071 113.522655 
L 508.868067 108.948903 
L 504.338063 104.349187 
L 499.808059 111.838372 
L 495.278055 115.594516 
L 490.74805 109.442559 
L 486.218046 109.502941 
L 481.688042 111.128982 
L 477.158038 126.820377 
L 472.628034 118.571697 
L 468.098029 121.666576 
L 463.568025 108.176048 
L 459.038021 122.716588 
L 454.508017 100.041955 
L 449.978013 112.105233 
L 445.448008 108.569949 
L 440.918004 99.697349 
L 436.388 94.559423 
L 431.857996 108.060224 
L 427.327992 86.757703 
L 422.797987 73.488799 
L 418.267983 82.095803 
L 413.737979 74.787328 
L 409.207975 66.870163 
L 404.677971 78.227011 
L 400.147966 64.232492 
L 395.617962 70.643719 
L 391.087958 68.086037 
L 386.557954 60.93707 
L 382.02795 70.077343 
L 377.497945 77.931257 
L 372.967941 78.837478 
L 368.437937 81.235545 
L 363.907933 78.620616 
L 359.377929 82.029916 
L 354.847924 84.491301 
L 350.31792 84.855442 
L 345.787916 82.62185 
L 341.257912 77.249598 
L 336.727908 113.22408 
L 332.197904 89.920794 
L 327.667899 79.738199 
L 323.137895 83.715264 
L 318.607891 80.50556 
L 314.077887 84.435998 
L 309.547883 91.082828 
L 305.017878 89.88263 
L 300.487874 87.621337 
L 295.95787 86.718707 
L 291.427866 96.11932 
L 286.897862 108.485062 
L 282.367857 113.803871 
L 277.837853 113.082686 
L 273.307849 117.083904 
L 268.777845 126.864306 
L 264.247841 142.909696 
L 259.717836 135.974363 
L 255.187832 122.634414 
L 250.657828 128.784807 
L 246.127824 142.766651 
L 241.59782 172.252224 
L 237.067815 142.812716 
L 232.537811 131.330209 
L 228.007807 126.963371 
L 223.477803 119.342502 
L 218.947799 118.394185 
L 214.417794 123.001358 
L 209.88779 128.06693 
L 205.357786 144.306198 
L 200.827782 138.617959 
L 196.297778 143.138684 
L 191.767773 140.185468 
L 187.237769 151.909139 
L 182.707765 168.175416 
L 178.177761 162.429691 
L 173.647757 177.459983 
L 169.117753 193.925714 
L 164.587748 200.280782 
L 160.057744 204.504018 
L 155.52774 207.918144 
L 150.997736 220.906738 
L 146.467732 219.479497 
L 141.937727 227.633625 
L 137.407723 224.014191 
L 132.877719 224.760683 
L 128.347715 230.139228 
L 123.817711 227.949106 
L 119.287706 229.501934 
L 114.757702 241.913997 
L 110.227698 227.408283 
L 105.697694 240.752072 
L 101.16769 236.382804 
L 96.637685 248.830523 
L 92.107681 248.514003 
L 87.577677 231.095323 
L 83.047673 251.402332 
L 78.517669 259.036541 
L 73.987664 263.538747 
z
" clip-path="url(#p2beb4e8a5d)" style="fill: #023eff; fill-opacity: 0.1"/>
   </g>
   <g id="line2d_9">
    <path d="M 73.987664 277.725869 
L 78.517669 264.743766 
L 83.047673 257.75969 
L 87.577677 242.563842 
L 92.107681 247.759829 
L 96.637685 254.321946 
L 101.16769 232.600038 
L 105.697694 248.781238 
L 110.227698 239.806543 
L 114.757702 249.052665 
L 119.287706 243.641752 
L 123.817711 233.941675 
L 128.347715 258.366609 
L 132.877719 234.912029 
L 137.407723 253.689115 
L 141.937727 265.817057 
L 146.467732 238.298566 
L 150.997736 233.56433 
L 155.52774 247.099341 
L 160.057744 249.129975 
L 164.587748 247.67873 
L 169.117753 266.912154 
L 173.647757 247.408067 
L 178.177761 250.630405 
L 182.707765 244.103019 
L 187.237769 252.223492 
L 191.767773 245.613925 
L 196.297778 244.225352 
L 200.827782 237.838545 
L 205.357786 227.567266 
L 209.88779 221.256651 
L 214.417794 219.307852 
L 218.947799 232.806945 
L 223.477803 193.586322 
L 228.007807 207.600673 
L 232.537811 174.852317 
L 237.067815 183.943732 
L 241.59782 181.020832 
L 246.127824 192.681057 
L 250.657828 143.859331 
L 255.187832 149.644618 
L 259.717836 130.570729 
L 264.247841 117.243914 
L 268.777845 127.627287 
L 273.307849 119.07224 
L 277.837853 109.618292 
L 282.367857 106.363342 
L 286.897862 139.909521 
L 291.427866 118.954038 
L 295.95787 117.601759 
L 300.487874 109.591467 
L 305.017878 119.051539 
L 309.547883 129.798774 
L 314.077887 92.649676 
L 318.607891 128.60851 
L 323.137895 123.734822 
L 327.667899 132.186714 
L 332.197904 99.449989 
L 336.727908 162.129114 
L 341.257912 109.115192 
L 345.787916 108.019316 
L 350.31792 102.960278 
L 354.847924 115.646687 
L 359.377929 99.575874 
L 363.907933 84.948357 
L 368.437937 92.85609 
L 372.967941 91.293682 
L 377.497945 99.560784 
L 382.02795 101.808388 
L 386.557954 94.424418 
L 391.087958 92.884053 
L 395.617962 88.207719 
L 400.147966 92.029811 
L 404.677971 146.832806 
L 409.207975 114.539036 
L 413.737979 120.001892 
L 418.267983 144.056684 
L 422.797987 120.837937 
L 427.327992 108.233513 
L 431.857996 152.446495 
L 436.388 127.259141 
L 440.918004 139.02367 
L 445.448008 125.415977 
L 449.978013 134.718557 
L 454.508017 132.45585 
L 459.038021 123.869505 
L 463.568025 95.012456 
L 468.098029 133.406047 
L 472.628034 133.309001 
L 477.158038 145.534554 
L 481.688042 113.805649 
L 486.218046 104.250778 
L 490.74805 105.387055 
L 495.278055 111.503139 
L 499.808059 119.499369 
L 504.338063 101.029419 
L 508.868067 109.135599 
L 513.398071 100.716274 
L 517.928076 197.442903 
L 522.45808 190.955266 
" clip-path="url(#p2beb4e8a5d)" style="fill: none; stroke: #1ac938; stroke-opacity: 0.27; stroke-width: 1.25; stroke-linecap: round"/>
   </g>
   <g id="line2d_10">
    <path d="M 73.987664 255.537391 
L 78.517669 257.517049 
L 83.047673 258.766738 
L 87.577677 237.19122 
L 92.107681 250.193611 
L 96.637685 250.033135 
L 101.16769 257.884247 
L 105.697694 244.101326 
L 110.227698 242.200858 
L 114.757702 242.31111 
L 119.287706 231.271721 
L 123.817711 225.562511 
L 128.347715 224.156408 
L 132.877719 234.125366 
L 137.407723 230.927897 
L 141.937727 221.937729 
L 146.467732 240.167822 
L 150.997736 225.287591 
L 155.52774 221.211874 
L 160.057744 221.435107 
L 164.587748 210.667094 
L 169.117753 225.915966 
L 173.647757 190.612142 
L 178.177761 201.15875 
L 182.707765 209.743932 
L 187.237769 189.933111 
L 191.767773 183.189074 
L 196.297778 171.960728 
L 200.827782 173.449379 
L 205.357786 160.2249 
L 209.88779 146.034538 
L 214.417794 144.314755 
L 218.947799 129.690223 
L 223.477803 131.988963 
L 228.007807 110.670996 
L 232.537811 115.595931 
L 237.067815 107.509069 
L 241.59782 234.810412 
L 246.127824 231.901035 
L 250.657828 228.952304 
L 255.187832 177.395661 
L 259.717836 191.536103 
L 264.247841 179.616106 
L 268.777845 165.659747 
L 273.307849 155.025641 
L 277.837853 122.870554 
L 282.367857 138.121163 
L 286.897862 128.128482 
L 291.427866 95.18094 
L 295.95787 83.597934 
L 300.487874 101.903625 
L 305.017878 102.181619 
L 309.547883 91.876225 
L 314.077887 100.620182 
L 318.607891 90.555836 
L 323.137895 98.190432 
L 327.667899 90.551865 
L 332.197904 227.091094 
L 336.727908 241.564272 
L 341.257912 167.239576 
L 345.787916 234.805961 
L 350.31792 187.660045 
L 354.847924 167.256327 
L 359.377929 172.962475 
L 363.907933 195.672741 
L 368.437937 198.761362 
L 372.967941 201.71357 
L 377.497945 157.027189 
L 382.02795 128.332373 
L 386.557954 117.048741 
L 391.087958 132.599074 
L 395.617962 124.8082 
L 400.147966 110.148453 
L 404.677971 100.466368 
L 409.207975 108.546144 
L 413.737979 116.733542 
L 418.267983 130.064715 
L 422.797987 116.450669 
L 427.327992 112.936127 
L 431.857996 119.097137 
L 436.388 96.444639 
L 440.918004 90.747171 
L 445.448008 103.554939 
L 449.978013 101.0931 
L 454.508017 87.379072 
L 459.038021 100.355768 
L 463.568025 96.451788 
L 468.098029 93.424569 
L 472.628034 91.669526 
L 477.158038 99.507047 
L 481.688042 90.210808 
L 486.218046 95.172315 
L 490.74805 93.409821 
L 495.278055 105.504161 
L 499.808059 91.134567 
L 504.338063 93.509087 
L 508.868067 94.848381 
L 513.398071 101.710314 
L 517.928076 89.134958 
L 522.45808 89.417492 
" clip-path="url(#p2beb4e8a5d)" style="fill: none; stroke: #1ac938; stroke-opacity: 0.27; stroke-width: 1.25; stroke-linecap: round"/>
   </g>
   <g id="line2d_11">
    <path d="M 73.987664 274.694154 
L 78.517669 280.352658 
L 83.047673 256.337829 
L 87.577677 244.381421 
L 92.107681 266.022211 
L 96.637685 262.250739 
L 101.16769 262.209128 
L 105.697694 263.045141 
L 110.227698 240.900905 
L 114.757702 274.673065 
L 119.287706 257.192809 
L 123.817711 248.128603 
L 128.347715 255.494325 
L 132.877719 262.872984 
L 137.407723 252.6338 
L 141.937727 249.442503 
L 146.467732 247.499939 
L 150.997736 243.862147 
L 155.52774 268.892859 
L 160.057744 238.764263 
L 164.587748 242.961443 
L 169.117753 247.284506 
L 173.647757 233.759104 
L 178.177761 247.918546 
L 182.707765 248.456457 
L 187.237769 244.507615 
L 191.767773 237.759578 
L 196.297778 252.068969 
L 200.827782 228.446722 
L 205.357786 229.912886 
L 209.88779 229.234839 
L 214.417794 207.757518 
L 218.947799 200.529842 
L 223.477803 195.522186 
L 228.007807 195.2241 
L 232.537811 192.386713 
L 237.067815 193.300776 
L 241.59782 161.979376 
L 246.127824 165.441255 
L 250.657828 151.15854 
L 255.187832 130.264032 
L 259.717836 134.122865 
L 264.247841 171.49138 
L 268.777845 121.502317 
L 273.307849 112.212891 
L 277.837853 140.732149 
L 282.367857 133.500507 
L 286.897862 99.89129 
L 291.427866 116.277152 
L 295.95787 103.215966 
L 300.487874 94.546355 
L 305.017878 93.770501 
L 309.547883 97.289713 
L 314.077887 110.818165 
L 318.607891 91.96526 
L 323.137895 101.49394 
L 327.667899 94.826709 
L 332.197904 93.160035 
L 336.727908 92.292903 
L 341.257912 81.95673 
L 345.787916 81.99803 
L 350.31792 85.990178 
L 354.847924 81.396457 
L 359.377929 89.438543 
L 363.907933 91.514779 
L 368.437937 102.941404 
L 372.967941 88.64857 
L 377.497945 91.551531 
L 382.02795 84.767382 
L 386.557954 86.333183 
L 391.087958 77.885061 
L 395.617962 87.673986 
L 400.147966 89.675619 
L 404.677971 93.037363 
L 409.207975 79.03906 
L 413.737979 84.630105 
L 418.267983 82.646006 
L 422.797987 77.881732 
L 427.327992 86.977133 
L 431.857996 101.636369 
L 436.388 107.409465 
L 440.918004 111.89357 
L 445.448008 132.426373 
L 449.978013 138.758202 
L 454.508017 115.898573 
L 459.038021 234.268145 
L 463.568025 239.368002 
L 468.098029 233.840903 
L 472.628034 235.647152 
L 477.158038 215.715102 
L 481.688042 236.477874 
L 486.218046 220.981876 
L 490.74805 230.795437 
L 495.278055 237.875621 
L 499.808059 237.520754 
L 504.338063 215.142595 
L 508.868067 211.901973 
L 513.398071 218.030361 
L 517.928076 202.799033 
L 522.45808 217.306797 
" clip-path="url(#p2beb4e8a5d)" style="fill: none; stroke: #1ac938; stroke-opacity: 0.27; stroke-width: 1.25; stroke-linecap: round"/>
   </g>
   <g id="line2d_12">
    <path d="M 73.987664 276.989064 
L 78.517669 260.92232 
L 83.047673 297.758174 
L 87.577677 304.920096 
L 92.107681 273.107735 
L 96.637685 248.227798 
L 101.16769 250.320254 
L 105.697694 258.529602 
L 110.227698 240.930166 
L 114.757702 256.044353 
L 119.287706 224.870705 
L 123.817711 232.496102 
L 128.347715 237.042463 
L 132.877719 226.478299 
L 137.407723 220.280899 
L 141.937727 230.793089 
L 146.467732 206.812604 
L 150.997736 216.189531 
L 155.52774 206.004846 
L 160.057744 201.02411 
L 164.587748 189.879809 
L 169.117753 174.700702 
L 173.647757 164.14228 
L 178.177761 130.529094 
L 182.707765 140.63059 
L 187.237769 126.323651 
L 191.767773 113.060577 
L 196.297778 130.686549 
L 200.827782 125.630638 
L 205.357786 127.551004 
L 209.88779 126.20053 
L 214.417794 111.999341 
L 218.947799 129.857876 
L 223.477803 139.143034 
L 228.007807 126.791447 
L 232.537811 141.165015 
L 237.067815 204.780222 
L 241.59782 194.18656 
L 246.127824 114.030724 
L 250.657828 120.317244 
L 255.187832 122.017909 
L 259.717836 282.079908 
L 264.247841 243.618662 
L 268.777845 244.294869 
L 273.307849 241.581581 
L 277.837853 246.143325 
L 282.367857 255.24065 
L 286.897862 266.200002 
L 291.427866 264.688448 
L 295.95787 264.257584 
L 300.487874 266.37787 
L 305.017878 269.706273 
L 309.547883 259.853189 
L 314.077887 258.326145 
L 318.607891 296.844811 
L 323.137895 293.963259 
L 327.667899 300.977201 
L 332.197904 294.358885 
L 336.727908 289.014554 
L 341.257912 301.776564 
L 345.787916 293.671173 
L 350.31792 295.181207 
L 354.847924 306.230795 
L 359.377929 310.432444 
L 363.907933 305.045573 
L 368.437937 302.910136 
L 372.967941 279.925719 
L 377.497945 297.30371 
L 382.02795 286.433039 
L 386.557954 289.064706 
L 391.087958 266.207971 
L 395.617962 270.937829 
L 400.147966 274.374207 
L 404.677971 273.62428 
L 409.207975 278.32222 
L 413.737979 275.082555 
L 418.267983 263.525974 
L 422.797987 255.678537 
L 427.327992 273.646194 
L 431.857996 274.478688 
L 436.388 274.080097 
L 440.918004 255.544279 
L 445.448008 248.507476 
L 449.978013 251.813349 
L 454.508017 227.017025 
L 459.038021 252.766267 
L 463.568025 256.924976 
L 468.098029 263.440221 
L 472.628034 276.836172 
L 477.158038 260.744208 
L 481.688042 264.337433 
L 486.218046 244.961225 
L 490.74805 250.045855 
L 495.278055 249.314502 
L 499.808059 234.279338 
L 504.338063 235.438908 
L 508.868067 241.272357 
L 513.398071 231.983743 
L 517.928076 234.629767 
L 522.45808 243.53999 
" clip-path="url(#p2beb4e8a5d)" style="fill: none; stroke: #1ac938; stroke-opacity: 0.27; stroke-width: 1.25; stroke-linecap: round"/>
   </g>
   <g id="line2d_13">
    <path d="M 73.987664 273.948195 
L 78.517669 273.804976 
L 83.047673 264.469859 
L 87.577677 250.723985 
L 92.107681 254.124483 
L 96.637685 253.498313 
L 101.16769 236.736281 
L 105.697694 236.842318 
L 110.227698 218.427123 
L 114.757702 245.263354 
L 119.287706 249.550969 
L 123.817711 257.298337 
L 128.347715 238.868268 
L 132.877719 230.126301 
L 137.407723 229.453475 
L 141.937727 246.583034 
L 146.467732 234.500324 
L 150.997736 231.448981 
L 155.52774 213.233394 
L 160.057744 205.233056 
L 164.587748 217.05263 
L 169.117753 212.123084 
L 173.647757 201.167406 
L 178.177761 199.917656 
L 182.707765 193.88874 
L 187.237769 177.94307 
L 191.767773 165.563056 
L 196.297778 158.065381 
L 200.827782 147.843453 
L 205.357786 174.392597 
L 209.88779 137.459195 
L 214.417794 139.662445 
L 218.947799 123.364119 
L 223.477803 109.429707 
L 228.007807 236.271942 
L 232.537811 226.70666 
L 237.067815 222.09887 
L 241.59782 232.461084 
L 246.127824 226.565812 
L 250.657828 236.733519 
L 255.187832 231.291218 
L 259.717836 230.68199 
L 264.247841 219.967569 
L 268.777845 225.78588 
L 273.307849 220.480789 
L 277.837853 218.285763 
L 282.367857 220.500244 
L 286.897862 216.257627 
L 291.427866 216.930943 
L 295.95787 226.354012 
L 300.487874 219.875216 
L 305.017878 212.61317 
L 309.547883 201.206726 
L 314.077887 171.129783 
L 318.607891 178.372414 
L 323.137895 164.973879 
L 327.667899 165.492092 
L 332.197904 130.340303 
L 336.727908 137.456988 
L 341.257912 117.110843 
L 345.787916 110.28426 
L 350.31792 130.785507 
L 354.847924 139.19673 
L 359.377929 137.275022 
L 363.907933 126.664902 
L 368.437937 109.892419 
L 372.967941 109.112928 
L 377.497945 121.47137 
L 382.02795 114.385444 
L 386.557954 100.24905 
L 391.087958 109.329287 
L 395.617962 121.624122 
L 400.147966 106.678243 
L 404.677971 111.491981 
L 409.207975 110.039293 
L 413.737979 115.371598 
L 418.267983 104.702968 
L 422.797987 106.353767 
L 427.327992 209.89158 
L 431.857996 208.694872 
L 436.388 207.705116 
L 440.918004 214.506304 
L 445.448008 212.603757 
L 449.978013 210.238753 
L 454.508017 200.579786 
L 459.038021 204.784819 
L 463.568025 199.474271 
L 468.098029 198.634801 
L 472.628034 190.107873 
L 477.158038 191.539365 
L 481.688042 188.52789 
L 486.218046 185.23751 
L 490.74805 186.716019 
L 495.278055 176.539914 
L 499.808059 172.237076 
L 504.338063 165.026527 
L 508.868067 171.27989 
L 513.398071 205.546672 
L 517.928076 205.310575 
L 522.45808 198.503222 
" clip-path="url(#p2beb4e8a5d)" style="fill: none; stroke: #1ac938; stroke-opacity: 0.27; stroke-width: 1.25; stroke-linecap: round"/>
   </g>
   <g id="line2d_14">
    <path d="M 73.987664 53.23038 
L 78.517669 55.181337 
L 83.047673 63.67943 
L 87.577677 85.853834 
L 92.107681 105.440182 
L 96.637685 129.938602 
L 101.16769 174.612529 
L 105.697694 197.875642 
L 110.227698 212.459616 
L 114.757702 215.573955 
L 119.287706 224.712044 
L 123.817711 231.645157 
L 128.347715 228.782688 
L 132.877719 239.262321 
L 137.407723 250.671864 
L 141.937727 247.456884 
L 146.467732 251.641293 
L 150.997736 252.237122 
L 155.52774 254.041823 
L 160.057744 250.23355 
L 164.587748 244.387883 
L 169.117753 240.107915 
L 173.647757 250.788397 
L 178.177761 252.493778 
L 182.707765 253.409216 
L 187.237769 263.63757 
L 191.767773 272.694714 
L 196.297778 269.14719 
L 200.827782 272.305724 
L 205.357786 269.325277 
L 209.88779 279.17067 
L 214.417794 282.154518 
L 218.947799 285.51819 
L 223.477803 288.963285 
L 228.007807 286.318211 
L 232.537811 286.276847 
L 237.067815 284.165373 
L 241.59782 271.954322 
L 246.127824 278.38033 
L 250.657828 270.482247 
L 255.187832 273.550693 
L 259.717836 269.804176 
L 264.247841 242.823563 
L 268.777845 255.901714 
L 273.307849 260.364489 
L 277.837853 264.763133 
L 282.367857 268.778665 
L 286.897862 265.986254 
L 291.427866 275.984107 
L 295.95787 285.19362 
L 300.487874 283.202437 
L 305.017878 284.123324 
L 309.547883 279.698549 
L 314.077887 283.590795 
L 318.607891 292.960694 
L 323.137895 296.709074 
L 327.667899 296.114521 
L 332.197904 298.518362 
L 336.727908 280.222272 
L 341.257912 301.925853 
L 345.787916 301.631006 
L 350.31792 300.285833 
L 354.847924 299.308733 
L 359.377929 299.921019 
L 363.907933 303.386663 
L 368.437937 302.218149 
L 372.967941 305.401395 
L 377.497945 304.908137 
L 382.02795 310.024079 
L 386.557954 321.36962 
L 391.087958 320.274149 
L 395.617962 317.092047 
L 400.147966 318.021035 
L 404.677971 310.041917 
L 409.207975 313.859617 
L 413.737979 311.869741 
L 418.267983 307.61685 
L 422.797987 309.606656 
L 427.327992 282.701233 
L 431.857996 273.035408 
L 436.388 282.634689 
L 440.918004 279.422053 
L 445.448008 266.827954 
L 449.978013 264.630554 
L 454.508017 269.675022 
L 459.038021 238.611628 
L 463.568025 246.969284 
L 468.098029 236.32596 
L 472.628034 246.164564 
L 477.158038 240.70661 
L 481.688042 251.273082 
L 486.218046 250.159047 
L 490.74805 257.431919 
L 495.278055 255.7109 
L 499.808059 246.14387 
L 504.338063 261.201728 
L 508.868067 258.41674 
L 513.398071 244.570199 
L 517.928076 222.368554 
L 522.45808 224.231434 
" clip-path="url(#p2beb4e8a5d)" style="fill: none; stroke: #8b2be2; stroke-width: 1.5; stroke-linecap: round"/>
   </g>
   <g id="line2d_15">
    <path d="M 73.987664 271.778934 
L 78.517669 267.468154 
L 83.047673 267.018458 
L 87.577677 255.956113 
L 92.107681 258.241574 
L 96.637685 253.666386 
L 101.16769 247.94999 
L 105.697694 250.259925 
L 110.227698 236.453119 
L 114.757702 253.46891 
L 119.287706 241.305591 
L 123.817711 239.485446 
L 128.347715 242.785615 
L 132.877719 237.702996 
L 137.407723 237.397037 
L 141.937727 242.914682 
L 146.467732 233.455851 
L 150.997736 230.070516 
L 155.52774 231.288463 
L 160.057744 223.117302 
L 164.587748 221.647941 
L 169.117753 225.387282 
L 173.647757 207.4178 
L 178.177761 206.03089 
L 182.707765 207.364547 
L 187.237769 198.186188 
L 191.767773 189.037242 
L 196.297778 191.401396 
L 200.827782 182.641748 
L 205.357786 183.929731 
L 209.88779 172.037151 
L 214.417794 164.608382 
L 218.947799 163.249801 
L 223.477803 153.934043 
L 228.007807 175.311831 
L 232.537811 170.141327 
L 237.067815 182.326534 
L 241.59782 200.891653 
L 246.127824 186.123977 
L 250.657828 176.204188 
L 255.187832 162.122687 
L 259.717836 193.798319 
L 264.247841 186.387526 
L 268.777845 176.97402 
L 273.307849 169.674628 
L 277.837853 167.530017 
L 282.367857 170.745181 
L 286.897862 170.077384 
L 291.427866 162.406304 
L 295.95787 159.005451 
L 300.487874 158.458907 
L 305.017878 159.464621 
L 309.547883 156.004925 
L 314.077887 146.70879 
L 318.607891 157.269366 
L 323.137895 156.471267 
L 327.667899 156.806916 
L 332.197904 168.880061 
L 336.727908 184.491566 
L 341.257912 155.439781 
L 345.787916 165.755748 
L 350.31792 160.515443 
L 354.847924 161.945399 
L 359.377929 161.936871 
L 363.907933 160.76927 
L 368.437937 161.472282 
L 372.967941 154.138894 
L 377.497945 153.382917 
L 382.02795 143.145325 
L 386.557954 137.42402 
L 391.087958 135.781089 
L 395.617962 138.650371 
L 400.147966 134.581267 
L 404.677971 145.090559 
L 409.207975 138.09715 
L 413.737979 142.363938 
L 418.267983 144.999269 
L 422.797987 135.440528 
L 427.327992 158.336909 
L 431.857996 171.270712 
L 436.388 162.579692 
L 440.918004 162.342999 
L 445.448008 164.501704 
L 449.978013 167.324392 
L 454.508017 152.666061 
L 459.038021 183.208901 
L 463.568025 177.446298 
L 468.098029 184.549308 
L 472.628034 185.513945 
L 477.158038 182.608055 
L 481.688042 178.671931 
L 486.218046 170.120741 
L 490.74805 173.270837 
L 495.278055 176.147467 
L 499.808059 170.934221 
L 504.338063 162.029307 
L 508.868067 165.68764 
L 513.398071 171.597473 
L 517.928076 185.863447 
L 522.45808 187.944554 
" clip-path="url(#p2beb4e8a5d)" style="fill: none; stroke: #023eff; stroke-width: 2; stroke-linecap: round"/>
   </g>
   <g id="line2d_16">
    <path d="M 65.14 88.982278 
L 529.2 88.982278 
" clip-path="url(#p2beb4e8a5d)" style="fill: none; stroke-dasharray: 1.25,2.0625; stroke-dashoffset: 0; stroke: #000000; stroke-opacity: 0.6; stroke-width: 1.25"/>
   </g>
   <g id="patch_3">
    <path d="M 65.14 328.52 
L 65.14 46.08 
" style="fill: none; stroke: #ffffff; stroke-width: 0.8; stroke-linejoin: miter; stroke-linecap: square"/>
   </g>
   <g id="patch_4">
    <path d="M 529.2 328.52 
L 529.2 46.08 
" style="fill: none; stroke: #ffffff; stroke-width: 0.8; stroke-linejoin: miter; stroke-linecap: square"/>
   </g>
   <g id="patch_5">
    <path d="M 65.14 328.52 
L 529.2 328.52 
" style="fill: none; stroke: #ffffff; stroke-width: 0.8; stroke-linejoin: miter; stroke-linecap: square"/>
   </g>
   <g id="patch_6">
    <path d="M 65.14 46.08 
L 529.2 46.08 
" style="fill: none; stroke: #ffffff; stroke-width: 0.8; stroke-linejoin: miter; stroke-linecap: square"/>
   </g>
  </g>
  <g id="text_9">
   <!-- GNN | No modification -->
   <g style="fill: #262626" transform="translate(120.22875 25.54125) scale(0.24 -0.24)">
    <defs>
     <path id="DejaVuSans-Bold-47" d="M 4781 347 
Q 4331 128 3847 18 
Q 3363 -91 2847 -91 
Q 1681 -91 1000 561 
Q 319 1213 319 2328 
Q 319 3456 1012 4103 
Q 1706 4750 2913 4750 
Q 3378 4750 3804 4662 
Q 4231 4575 4609 4403 
L 4609 3438 
Q 4219 3659 3833 3768 
Q 3447 3878 3059 3878 
Q 2341 3878 1952 3476 
Q 1563 3075 1563 2328 
Q 1563 1588 1938 1184 
Q 2313 781 3003 781 
Q 3191 781 3352 804 
Q 3513 828 3641 878 
L 3641 1784 
L 2906 1784 
L 2906 2591 
L 4781 2591 
L 4781 347 
z
" transform="scale(0.015625)"/>
     <path id="DejaVuSans-Bold-4e" d="M 588 4666 
L 1931 4666 
L 3628 1466 
L 3628 4666 
L 4769 4666 
L 4769 0 
L 3425 0 
L 1728 3200 
L 1728 0 
L 588 0 
L 588 4666 
z
" transform="scale(0.015625)"/>
     <path id="DejaVuSans-Bold-20" transform="scale(0.015625)"/>
     <path id="DejaVuSans-Bold-7c" d="M 1522 4891 
L 1522 -1509 
L 813 -1509 
L 813 4891 
L 1522 4891 
z
" transform="scale(0.015625)"/>
     <path id="DejaVuSans-Bold-6f" d="M 2203 2784 
Q 1831 2784 1636 2517 
Q 1441 2250 1441 1747 
Q 1441 1244 1636 976 
Q 1831 709 2203 709 
Q 2569 709 2762 976 
Q 2956 1244 2956 1747 
Q 2956 2250 2762 2517 
Q 2569 2784 2203 2784 
z
M 2203 3584 
Q 3106 3584 3614 3096 
Q 4122 2609 4122 1747 
Q 4122 884 3614 396 
Q 3106 -91 2203 -91 
Q 1297 -91 786 396 
Q 275 884 275 1747 
Q 275 2609 786 3096 
Q 1297 3584 2203 3584 
z
" transform="scale(0.015625)"/>
     <path id="DejaVuSans-Bold-6d" d="M 3781 2919 
Q 3994 3244 4286 3414 
Q 4578 3584 4928 3584 
Q 5531 3584 5847 3212 
Q 6163 2841 6163 2131 
L 6163 0 
L 5038 0 
L 5038 1825 
Q 5041 1866 5042 1909 
Q 5044 1953 5044 2034 
Q 5044 2406 4934 2573 
Q 4825 2741 4581 2741 
Q 4263 2741 4089 2478 
Q 3916 2216 3909 1719 
L 3909 0 
L 2784 0 
L 2784 1825 
Q 2784 2406 2684 2573 
Q 2584 2741 2328 2741 
Q 2006 2741 1831 2477 
Q 1656 2213 1656 1722 
L 1656 0 
L 531 0 
L 531 3500 
L 1656 3500 
L 1656 2988 
Q 1863 3284 2130 3434 
Q 2397 3584 2719 3584 
Q 3081 3584 3359 3409 
Q 3638 3234 3781 2919 
z
" transform="scale(0.015625)"/>
     <path id="DejaVuSans-Bold-64" d="M 2919 2988 
L 2919 4863 
L 4044 4863 
L 4044 0 
L 2919 0 
L 2919 506 
Q 2688 197 2409 53 
Q 2131 -91 1766 -91 
Q 1119 -91 703 423 
Q 288 938 288 1747 
Q 288 2556 703 3070 
Q 1119 3584 1766 3584 
Q 2128 3584 2408 3439 
Q 2688 3294 2919 2988 
z
M 2181 722 
Q 2541 722 2730 984 
Q 2919 1247 2919 1747 
Q 2919 2247 2730 2509 
Q 2541 2772 2181 2772 
Q 1825 2772 1636 2509 
Q 1447 2247 1447 1747 
Q 1447 1247 1636 984 
Q 1825 722 2181 722 
z
" transform="scale(0.015625)"/>
     <path id="DejaVuSans-Bold-69" d="M 538 3500 
L 1656 3500 
L 1656 0 
L 538 0 
L 538 3500 
z
M 538 4863 
L 1656 4863 
L 1656 3950 
L 538 3950 
L 538 4863 
z
" transform="scale(0.015625)"/>
     <path id="DejaVuSans-Bold-66" d="M 2841 4863 
L 2841 4128 
L 2222 4128 
Q 1984 4128 1890 4042 
Q 1797 3956 1797 3744 
L 1797 3500 
L 2753 3500 
L 2753 2700 
L 1797 2700 
L 1797 0 
L 678 0 
L 678 2700 
L 122 2700 
L 122 3500 
L 678 3500 
L 678 3744 
Q 678 4316 997 4589 
Q 1316 4863 1984 4863 
L 2841 4863 
z
" transform="scale(0.015625)"/>
     <path id="DejaVuSans-Bold-63" d="M 3366 3391 
L 3366 2478 
Q 3138 2634 2908 2709 
Q 2678 2784 2431 2784 
Q 1963 2784 1702 2511 
Q 1441 2238 1441 1747 
Q 1441 1256 1702 982 
Q 1963 709 2431 709 
Q 2694 709 2930 787 
Q 3166 866 3366 1019 
L 3366 103 
Q 3103 6 2833 -42 
Q 2563 -91 2291 -91 
Q 1344 -91 809 395 
Q 275 881 275 1747 
Q 275 2613 809 3098 
Q 1344 3584 2291 3584 
Q 2566 3584 2833 3536 
Q 3100 3488 3366 3391 
z
" transform="scale(0.015625)"/>
     <path id="DejaVuSans-Bold-61" d="M 2106 1575 
Q 1756 1575 1579 1456 
Q 1403 1338 1403 1106 
Q 1403 894 1545 773 
Q 1688 653 1941 653 
Q 2256 653 2472 879 
Q 2688 1106 2688 1447 
L 2688 1575 
L 2106 1575 
z
M 3816 1997 
L 3816 0 
L 2688 0 
L 2688 519 
Q 2463 200 2181 54 
Q 1900 -91 1497 -91 
Q 953 -91 614 226 
Q 275 544 275 1050 
Q 275 1666 698 1953 
Q 1122 2241 2028 2241 
L 2688 2241 
L 2688 2328 
Q 2688 2594 2478 2717 
Q 2269 2841 1825 2841 
Q 1466 2841 1156 2769 
Q 847 2697 581 2553 
L 581 3406 
Q 941 3494 1303 3539 
Q 1666 3584 2028 3584 
Q 2975 3584 3395 3211 
Q 3816 2838 3816 1997 
z
" transform="scale(0.015625)"/>
     <path id="DejaVuSans-Bold-74" d="M 1759 4494 
L 1759 3500 
L 2913 3500 
L 2913 2700 
L 1759 2700 
L 1759 1216 
Q 1759 972 1856 886 
Q 1953 800 2241 800 
L 2816 800 
L 2816 0 
L 1856 0 
Q 1194 0 917 276 
Q 641 553 641 1216 
L 641 2700 
L 84 2700 
L 84 3500 
L 641 3500 
L 641 4494 
L 1759 4494 
z
" transform="scale(0.015625)"/>
     <path id="DejaVuSans-Bold-6e" d="M 4056 2131 
L 4056 0 
L 2931 0 
L 2931 347 
L 2931 1631 
Q 2931 2084 2911 2256 
Q 2891 2428 2841 2509 
Q 2775 2619 2662 2680 
Q 2550 2741 2406 2741 
Q 2056 2741 1856 2470 
Q 1656 2200 1656 1722 
L 1656 0 
L 538 0 
L 538 3500 
L 1656 3500 
L 1656 2988 
Q 1909 3294 2193 3439 
Q 2478 3584 2822 3584 
Q 3428 3584 3742 3212 
Q 4056 2841 4056 2131 
z
" transform="scale(0.015625)"/>
    </defs>
    <use xlink:href="#DejaVuSans-Bold-47"/>
    <use xlink:href="#DejaVuSans-Bold-4e" transform="translate(82.080078 0)"/>
    <use xlink:href="#DejaVuSans-Bold-4e" transform="translate(165.771484 0)"/>
    <use xlink:href="#DejaVuSans-Bold-20" transform="translate(249.462891 0)"/>
    <use xlink:href="#DejaVuSans-Bold-7c" transform="translate(284.277344 0)"/>
    <use xlink:href="#DejaVuSans-Bold-20" transform="translate(320.800781 0)"/>
    <use xlink:href="#DejaVuSans-Bold-4e" transform="translate(355.615234 0)"/>
    <use xlink:href="#DejaVuSans-Bold-6f" transform="translate(439.306641 0)"/>
    <use xlink:href="#DejaVuSans-Bold-20" transform="translate(508.007812 0)"/>
    <use xlink:href="#DejaVuSans-Bold-6d" transform="translate(542.822266 0)"/>
    <use xlink:href="#DejaVuSans-Bold-6f" transform="translate(647.021484 0)"/>
    <use xlink:href="#DejaVuSans-Bold-64" transform="translate(715.722656 0)"/>
    <use xlink:href="#DejaVuSans-Bold-69" transform="translate(787.304688 0)"/>
    <use xlink:href="#DejaVuSans-Bold-66" transform="translate(821.582031 0)"/>
    <use xlink:href="#DejaVuSans-Bold-69" transform="translate(865.087891 0)"/>
    <use xlink:href="#DejaVuSans-Bold-63" transform="translate(899.365234 0)"/>
    <use xlink:href="#DejaVuSans-Bold-61" transform="translate(958.642578 0)"/>
    <use xlink:href="#DejaVuSans-Bold-74" transform="translate(1026.123047 0)"/>
    <use xlink:href="#DejaVuSans-Bold-69" transform="translate(1073.925781 0)"/>
    <use xlink:href="#DejaVuSans-Bold-6f" transform="translate(1108.203125 0)"/>
    <use xlink:href="#DejaVuSans-Bold-6e" transform="translate(1176.904297 0)"/>
   </g>
  </g>
 </g>
 <defs>
  <clipPath id="p2beb4e8a5d">
   <rect x="65.14" y="46.08" width="464.06" height="282.44"/>
  </clipPath>
 </defs>
</svg>
