<?xml version="1.0" encoding="utf-8" standalone="no"?>
<!DOCTYPE svg PUBLIC "-//W3C//DTD SVG 1.1//EN"
  "http://www.w3.org/Graphics/SVG/1.1/DTD/svg11.dtd">
<svg xmlns:xlink="http://www.w3.org/1999/xlink" width="540pt" height="360pt" viewBox="0 0 540 360" xmlns="http://www.w3.org/2000/svg" version="1.1">
 <metadata>
  <rdf:RDF xmlns:dc="http://purl.org/dc/elements/1.1/" xmlns:cc="http://creativecommons.org/ns#" xmlns:rdf="http://www.w3.org/1999/02/22-rdf-syntax-ns#">
   <cc:Work>
    <dc:type rdf:resource="http://purl.org/dc/dcmitype/StillImage"/>
    <dc:date>2025-08-04T02:53:10.843659</dc:date>
    <dc:format>image/svg+xml</dc:format>
    <dc:creator>
     <cc:Agent>
      <dc:title>Matplotlib v3.10.0, https://matplotlib.org/</dc:title>
     </cc:Agent>
    </dc:creator>
   </cc:Work>
  </rdf:RDF>
 </metadata>
 <defs>
  <style type="text/css">*{stroke-linejoin: round; stroke-linecap: butt}</style>
 </defs>
 <g id="figure_1">
  <g id="patch_1">
   <path d="M 0 360 
L 540 360 
L 540 0 
L 0 0 
z
" style="fill: #ffffff"/>
  </g>
  <g id="axes_1">
   <g id="patch_2">
    <path d="M 10.8 328.52 
L 529.2 328.52 
L 529.2 46.08 
L 10.8 46.08 
z
" style="fill: #eaeaf2"/>
   </g>
   <g id="matplotlib.axis_1">
    <g id="xtick_1">
     <g id="line2d_1">
      <path d="M 20.683699 328.52 
L 20.683699 46.08 
" clip-path="url(#p09e2583d44)" style="fill: none; stroke: #ffffff; stroke-width: 0.8; stroke-linecap: round"/>
     </g>
     <g id="text_1">
      <!-- 0 -->
      <g style="fill: #262626" transform="translate(16.229949 346.157812) scale(0.14 -0.14)">
       <defs>
        <path id="DejaVuSans-30" d="M 2034 4250 
Q 1547 4250 1301 3770 
Q 1056 3291 1056 2328 
Q 1056 1369 1301 889 
Q 1547 409 2034 409 
Q 2525 409 2770 889 
Q 3016 1369 3016 2328 
Q 3016 3291 2770 3770 
Q 2525 4250 2034 4250 
z
M 2034 4750 
Q 2819 4750 3233 4129 
Q 3647 3509 3647 2328 
Q 3647 1150 3233 529 
Q 2819 -91 2034 -91 
Q 1250 -91 836 529 
Q 422 1150 422 2328 
Q 422 3509 836 4129 
Q 1250 4750 2034 4750 
z
" transform="scale(0.015625)"/>
       </defs>
       <use xlink:href="#DejaVuSans-30"/>
      </g>
     </g>
    </g>
    <g id="xtick_2">
     <g id="line2d_2">
      <path d="M 514.868637 328.52 
L 514.868637 46.08 
" clip-path="url(#p09e2583d44)" style="fill: none; stroke: #ffffff; stroke-width: 0.8; stroke-linecap: round"/>
     </g>
     <g id="text_2">
      <!-- 2M -->
      <g style="fill: #262626" transform="translate(504.375199 346.157812) scale(0.14 -0.14)">
       <defs>
        <path id="DejaVuSans-32" d="M 1228 531 
L 3431 531 
L 3431 0 
L 469 0 
L 469 531 
Q 828 903 1448 1529 
Q 2069 2156 2228 2338 
Q 2531 2678 2651 2914 
Q 2772 3150 2772 3378 
Q 2772 3750 2511 3984 
Q 2250 4219 1831 4219 
Q 1534 4219 1204 4116 
Q 875 4013 500 3803 
L 500 4441 
Q 881 4594 1212 4672 
Q 1544 4750 1819 4750 
Q 2544 4750 2975 4387 
Q 3406 4025 3406 3419 
Q 3406 3131 3298 2873 
Q 3191 2616 2906 2266 
Q 2828 2175 2409 1742 
Q 1991 1309 1228 531 
z
" transform="scale(0.015625)"/>
        <path id="DejaVuSans-4d" d="M 628 4666 
L 1569 4666 
L 2759 1491 
L 3956 4666 
L 4897 4666 
L 4897 0 
L 4281 0 
L 4281 4097 
L 3078 897 
L 2444 897 
L 1241 4097 
L 1241 0 
L 628 0 
L 628 4666 
z
" transform="scale(0.015625)"/>
       </defs>
       <use xlink:href="#DejaVuSans-32"/>
       <use xlink:href="#DejaVuSans-4d" transform="translate(63.623047 0)"/>
      </g>
     </g>
    </g>
   </g>
   <g id="matplotlib.axis_2">
    <g id="ytick_1">
     <g id="line2d_3">
      <path d="M 10.8 323.476429 
L 529.2 323.476429 
" clip-path="url(#p09e2583d44)" style="fill: none; stroke: #ffffff; stroke-width: 0.8; stroke-linecap: round"/>
     </g>
    </g>
    <g id="ytick_2">
     <g id="line2d_4">
      <path d="M 10.8 291.954107 
L 529.2 291.954107 
" clip-path="url(#p09e2583d44)" style="fill: none; stroke: #ffffff; stroke-width: 0.8; stroke-linecap: round"/>
     </g>
    </g>
    <g id="ytick_3">
     <g id="line2d_5">
      <path d="M 10.8 260.431786 
L 529.2 260.431786 
" clip-path="url(#p09e2583d44)" style="fill: none; stroke: #ffffff; stroke-width: 0.8; stroke-linecap: round"/>
     </g>
    </g>
    <g id="ytick_4">
     <g id="line2d_6">
      <path d="M 10.8 228.909464 
L 529.2 228.909464 
" clip-path="url(#p09e2583d44)" style="fill: none; stroke: #ffffff; stroke-width: 0.8; stroke-linecap: round"/>
     </g>
    </g>
    <g id="ytick_5">
     <g id="line2d_7">
      <path d="M 10.8 197.387143 
L 529.2 197.387143 
" clip-path="url(#p09e2583d44)" style="fill: none; stroke: #ffffff; stroke-width: 0.8; stroke-linecap: round"/>
     </g>
    </g>
    <g id="ytick_6">
     <g id="line2d_8">
      <path d="M 10.8 165.864821 
L 529.2 165.864821 
" clip-path="url(#p09e2583d44)" style="fill: none; stroke: #ffffff; stroke-width: 0.8; stroke-linecap: round"/>
     </g>
    </g>
    <g id="ytick_7">
     <g id="line2d_9">
      <path d="M 10.8 134.3425 
L 529.2 134.3425 
" clip-path="url(#p09e2583d44)" style="fill: none; stroke: #ffffff; stroke-width: 0.8; stroke-linecap: round"/>
     </g>
    </g>
    <g id="ytick_8">
     <g id="line2d_10">
      <path d="M 10.8 102.820179 
L 529.2 102.820179 
" clip-path="url(#p09e2583d44)" style="fill: none; stroke: #ffffff; stroke-width: 0.8; stroke-linecap: round"/>
     </g>
    </g>
    <g id="ytick_9">
     <g id="line2d_11">
      <path d="M 10.8 71.297857 
L 529.2 71.297857 
" clip-path="url(#p09e2583d44)" style="fill: none; stroke: #ffffff; stroke-width: 0.8; stroke-linecap: round"/>
     </g>
    </g>
   </g>
   <g id="FillBetweenPolyCollection_1">
    <path d="M 20.683699 68.49076 
L 20.683699 78.739575 
L 21.69579 79.668396 
L 22.70788 81.240397 
L 23.719971 83.104327 
L 24.732062 85.083224 
L 25.744153 87.221899 
L 26.756243 89.63266 
L 27.768334 92.340824 
L 28.780425 95.302297 
L 29.792516 98.528227 
L 30.804606 102.128018 
L 31.816697 106.205398 
L 32.828788 110.73208 
L 33.840879 115.568236 
L 34.852969 120.623403 
L 35.86506 125.932435 
L 36.877151 131.494304 
L 37.889242 137.081789 
L 38.901332 142.338744 
L 39.913423 147.101486 
L 40.925514 151.557132 
L 41.937605 156.05755 
L 42.949695 160.820741 
L 43.961786 165.807445 
L 44.973877 170.796236 
L 45.985968 175.524995 
L 46.998058 179.818436 
L 48.010149 183.660783 
L 49.02224 187.181165 
L 50.034331 190.569694 
L 51.046421 193.980448 
L 52.058512 197.471209 
L 53.070603 201.013071 
L 54.082694 204.569752 
L 55.094784 208.160712 
L 56.106875 211.814234 
L 57.118966 215.453919 
L 58.131057 218.874475 
L 59.143147 221.881823 
L 60.155238 224.478151 
L 61.167329 226.885866 
L 62.17942 229.356457 
L 63.19151 231.946252 
L 64.203601 234.475044 
L 65.215692 236.683881 
L 66.227783 238.435358 
L 67.239873 239.813275 
L 68.251964 241.075046 
L 69.264055 242.490923 
L 70.276146 244.18104 
L 71.288236 246.072963 
L 72.300327 247.998436 
L 73.312418 249.828373 
L 74.324509 251.5397 
L 75.336599 253.188422 
L 76.34869 254.844748 
L 77.360781 256.552801 
L 78.372872 258.323523 
L 79.384962 260.133694 
L 80.397053 261.928296 
L 81.409144 263.640177 
L 82.421235 265.226496 
L 83.433325 266.704527 
L 84.445416 268.156513 
L 85.457507 269.682916 
L 86.469598 271.337015 
L 87.481688 273.108224 
L 88.493779 274.961333 
L 89.50587 276.867604 
L 90.517961 278.796016 
L 91.530051 280.70082 
L 92.542142 282.532667 
L 93.554233 284.259748 
L 94.566324 285.881399 
L 95.578414 287.425002 
L 96.590505 288.928293 
L 97.602596 290.421807 
L 98.614687 291.915118 
L 99.626778 293.3825 
L 100.638868 294.775154 
L 101.650959 296.073626 
L 102.66305 297.310823 
L 103.675141 298.522411 
L 104.687231 299.704212 
L 105.699322 300.838214 
L 106.711413 301.924745 
L 107.723504 302.965372 
L 108.735594 303.941189 
L 109.747685 304.831517 
L 110.759776 305.641594 
L 111.771867 306.392378 
L 112.783957 307.083591 
L 113.796048 307.679619 
L 114.808139 308.147756 
L 115.82023 308.514913 
L 116.83232 308.878002 
L 117.844411 309.344864 
L 118.856502 309.944616 
L 119.868593 310.583906 
L 120.880683 311.107015 
L 121.892774 311.420222 
L 122.904865 311.555381 
L 123.916956 311.616965 
L 124.929046 311.696083 
L 125.941137 311.837719 
L 126.953228 312.049861 
L 127.965319 312.31392 
L 128.977409 312.593252 
L 129.9895 312.853332 
L 131.001591 313.0896 
L 132.013682 313.327242 
L 133.025772 313.581222 
L 134.037863 313.824367 
L 135.049954 314.008782 
L 136.062045 314.110349 
L 137.074135 314.13775 
L 138.086226 314.104498 
L 139.098317 314.008147 
L 140.110408 313.837519 
L 141.122498 313.600272 
L 142.134589 313.354703 
L 143.14668 313.210554 
L 144.158771 313.27218 
L 145.170861 313.560042 
L 146.182952 313.985797 
L 147.195043 314.406185 
L 148.207134 314.708206 
L 149.219224 314.86378 
L 150.231315 314.926449 
L 151.243406 314.986382 
L 152.255497 315.115981 
L 153.267587 315.330901 
L 154.279678 315.586268 
L 155.291769 315.818811 
L 156.30386 316.000164 
L 157.31595 316.15069 
L 158.328041 316.309753 
L 159.340132 316.495826 
L 160.352223 316.682983 
L 161.364313 316.815189 
L 162.376404 316.861488 
L 163.388495 316.858557 
L 164.400586 316.884367 
L 165.412676 316.987923 
L 166.424767 317.149152 
L 167.436858 317.301288 
L 168.448949 317.390252 
L 169.461039 317.420255 
L 170.47313 317.444058 
L 171.485221 317.508537 
L 172.497312 317.612688 
L 173.509402 317.714424 
L 174.521493 317.769414 
L 175.533584 317.772726 
L 176.545675 317.775143 
L 177.557765 317.8512 
L 178.569856 318.035136 
L 179.581947 318.282269 
L 180.594038 318.495134 
L 181.606129 318.595464 
L 182.618219 318.583106 
L 183.63031 318.529608 
L 184.642401 318.514295 
L 185.654492 318.567023 
L 186.666582 318.662176 
L 187.678673 318.747882 
L 188.690764 318.78215 
L 189.702855 318.763521 
L 190.714945 318.735412 
L 191.727036 318.753731 
L 192.739127 318.84452 
L 193.751218 318.986231 
L 194.763308 319.125432 
L 195.775399 319.217346 
L 196.78749 319.260332 
L 197.799581 319.290382 
L 198.811671 319.343831 
L 199.823762 319.42717 
L 200.835853 319.513627 
L 201.847944 319.566135 
L 202.860034 319.574977 
L 203.872125 319.572552 
L 204.884216 319.603989 
L 205.896307 319.689097 
L 206.908397 319.812663 
L 207.920488 319.935991 
L 208.932579 320.018631 
L 209.94467 320.048006 
L 210.95676 320.051543 
L 211.968851 320.072968 
L 212.980942 320.136907 
L 213.993033 320.233234 
L 215.005123 320.323719 
L 216.017214 320.364653 
L 217.029305 320.335985 
L 218.041396 320.257956 
L 219.053486 320.181935 
L 220.065577 320.157542 
L 221.077668 320.192719 
L 222.089759 320.243356 
L 223.101849 320.257391 
L 224.11394 320.231883 
L 225.126031 320.218223 
L 226.138122 320.275094 
L 227.150212 320.417724 
L 228.162303 320.598297 
L 229.174394 320.732835 
L 230.186485 320.764008 
L 231.198575 320.707279 
L 232.210666 320.635946 
L 233.222757 320.621815 
L 234.234848 320.684731 
L 235.246938 320.785909 
L 236.259029 320.864684 
L 237.27112 320.886006 
L 238.283211 320.860837 
L 239.295301 320.829786 
L 240.307392 320.827896 
L 241.319483 320.85475 
L 242.331574 320.876088 
L 243.343664 320.864271 
L 244.355755 320.834565 
L 245.367846 320.831974 
L 246.379937 320.885753 
L 247.392027 320.981592 
L 248.404118 321.070645 
L 249.416209 321.104034 
L 250.4283 321.072544 
L 251.44039 321.020235 
L 252.452481 321.012045 
L 253.464572 321.081044 
L 254.476663 321.203714 
L 255.488753 321.319796 
L 256.500844 321.376536 
L 257.512935 321.364985 
L 258.525026 321.324415 
L 259.537116 321.311063 
L 260.549207 321.352161 
L 261.561298 321.421603 
L 262.573389 321.463899 
L 263.58548 321.451549 
L 264.59757 321.416708 
L 265.609661 321.420498 
L 266.621752 321.494021 
L 267.633843 321.609854 
L 268.645933 321.701834 
L 269.658024 321.712881 
L 270.670115 321.638846 
L 271.682206 321.534655 
L 272.694296 321.473654 
L 273.706387 321.494533 
L 274.718478 321.579771 
L 275.730569 321.675054 
L 276.742659 321.730462 
L 277.75475 321.735644 
L 278.766841 321.724287 
L 279.778932 321.741952 
L 280.791022 321.803919 
L 281.803113 321.881974 
L 282.815204 321.932235 
L 283.827295 321.935857 
L 284.839385 321.911102 
L 285.851476 321.89108 
L 286.863567 321.897644 
L 287.875658 321.931434 
L 288.887748 321.97351 
L 289.899839 321.996926 
L 290.91193 321.988976 
L 291.924021 321.965603 
L 292.936111 321.959681 
L 293.948202 321.99313 
L 294.960293 322.058123 
L 295.972384 322.121627 
L 296.984474 322.151677 
L 297.996565 322.144609 
L 299.008656 322.127331 
L 300.020747 322.131792 
L 301.032837 322.164897 
L 302.044928 322.199617 
L 303.057019 322.197186 
L 304.06911 322.145137 
L 305.0812 322.073252 
L 306.093291 322.029519 
L 307.105382 322.044087 
L 308.117473 322.112939 
L 309.129563 322.203458 
L 310.141654 322.274647 
L 311.153745 322.30447 
L 312.165836 322.302672 
L 313.177926 322.29616 
L 314.190017 322.303613 
L 315.202108 322.322907 
L 316.214199 322.336305 
L 317.226289 322.326585 
L 318.23838 322.292241 
L 319.250471 322.250806 
L 320.262562 322.228771 
L 321.274652 322.24328 
L 322.286743 322.285286 
L 323.298834 322.323003 
L 324.310925 322.332047 
L 325.323015 322.320708 
L 326.335106 322.318271 
L 327.347197 322.343427 
L 328.359288 322.389049 
L 329.371378 322.429548 
L 330.383469 322.438542 
L 331.39556 322.408528 
L 332.407651 322.357829 
L 333.419741 322.315831 
L 334.431832 322.301732 
L 335.443923 322.316057 
L 336.456014 322.344598 
L 337.468104 322.369012 
L 338.480195 322.380551 
L 339.492286 322.387888 
L 340.504377 322.409487 
L 341.516467 322.454477 
L 342.528558 322.509123 
L 343.540649 322.544562 
L 344.55274 322.541953 
L 345.564831 322.508848 
L 346.576921 322.470096 
L 347.589012 322.446491 
L 348.601103 322.441654 
L 349.613194 322.442717 
L 350.625284 322.431918 
L 351.637375 322.404541 
L 352.649466 322.379018 
L 353.661557 322.38478 
L 354.673647 322.435402 
L 355.685738 322.513494 
L 356.697829 322.583038 
L 357.70992 322.617566 
L 358.72201 322.617795 
L 359.734101 322.605721 
L 360.746192 322.604843 
L 361.758283 322.623331 
L 362.770373 322.64976 
L 363.782464 322.663566 
L 364.794555 322.65389 
L 365.806646 322.62923 
L 366.818736 322.608583 
L 367.830827 322.605994 
L 368.842918 322.621999 
L 369.855009 322.643532 
L 370.867099 322.652426 
L 371.87919 322.640674 
L 372.891281 322.618638 
L 373.903372 322.60595 
L 374.915462 322.614955 
L 375.927553 322.642608 
L 376.939644 322.674164 
L 377.951735 322.694204 
L 378.963825 322.697605 
L 379.975916 322.692404 
L 380.988007 322.691882 
L 382.000098 322.702298 
L 383.012188 322.716089 
L 384.024279 322.717178 
L 385.03637 322.696287 
L 386.048461 322.661921 
L 387.060551 322.635453 
L 388.072642 322.635524 
L 389.084733 322.664959 
L 390.096824 322.708473 
L 391.108914 322.74335 
L 392.121005 322.757234 
L 393.133096 322.75693 
L 394.145187 322.759337 
L 395.157277 322.774683 
L 396.169368 322.797905 
L 397.181459 322.813506 
L 398.19355 322.809369 
L 399.20564 322.78805 
L 400.217731 322.765393 
L 401.229822 322.758058 
L 402.241913 322.770956 
L 403.254003 322.793631 
L 404.266094 322.80847 
L 405.278185 322.806196 
L 406.290276 322.795013 
L 407.302366 322.793998 
L 408.314457 322.817623 
L 409.326548 322.863566 
L 410.338639 322.91111 
L 411.350729 322.934252 
L 412.36282 322.923203 
L 413.374911 322.893196 
L 414.387002 322.869917 
L 415.399092 322.867697 
L 416.411183 322.881382 
L 417.423274 322.894117 
L 418.435365 322.892298 
L 419.447455 322.877607 
L 420.459546 322.866585 
L 421.471637 322.876024 
L 422.483728 322.906342 
L 423.495818 322.938774 
L 424.507909 322.95081 
L 425.52 322.936705 
L 426.532091 322.912369 
L 427.544182 322.900314 
L 428.556272 322.911753 
L 429.568363 322.94064 
L 430.580454 322.969168 
L 431.592545 322.979738 
L 432.604635 322.968053 
L 433.616726 322.946706 
L 434.628817 322.934378 
L 435.640908 322.940692 
L 436.652998 322.959819 
L 437.665089 322.976241 
L 438.67718 322.978449 
L 439.689271 322.969342 
L 440.701361 322.963092 
L 441.713452 322.971905 
L 442.725543 322.995383 
L 443.737634 323.019206 
L 444.749724 323.023675 
L 445.761815 322.9993 
L 446.773906 322.956484 
L 447.785997 322.918387 
L 448.798087 322.904519 
L 449.810178 322.919091 
L 450.822269 322.94909 
L 451.83436 322.973245 
L 452.84645 322.978929 
L 453.858541 322.972244 
L 454.870632 322.970349 
L 455.882723 322.985535 
L 456.894813 323.016927 
L 457.906904 323.052539 
L 458.918995 323.077801 
L 459.931086 323.086527 
L 460.943176 323.086876 
L 461.955267 323.094709 
L 462.967358 323.118258 
L 463.979449 323.148298 
L 464.991539 323.164163 
L 466.00363 323.151237 
L 467.015721 323.11331 
L 468.027812 323.069571 
L 469.039902 323.042226 
L 470.051993 323.044242 
L 471.064084 323.070692 
L 472.076175 323.099821 
L 473.088265 323.109511 
L 474.100356 323.096857 
L 475.112447 323.079141 
L 476.124538 323.07449 
L 477.136628 323.084043 
L 478.148719 323.093688 
L 479.16081 323.091498 
L 480.172901 323.081104 
L 481.184991 323.077706 
L 482.197082 323.09313 
L 483.209173 323.125051 
L 484.221264 323.157369 
L 485.233354 323.171616 
L 486.245445 323.163919 
L 487.257536 323.150909 
L 488.269627 323.154895 
L 489.281717 323.184748 
L 490.293808 323.231823 
L 491.305899 323.277233 
L 492.31799 323.300459 
L 493.33008 323.289788 
L 494.342171 323.25125 
L 495.354262 323.205846 
L 496.366353 323.175862 
L 497.378443 323.172312 
L 498.390534 323.190021 
L 499.402625 323.211848 
L 500.414716 323.222195 
L 501.426806 323.220827 
L 502.438897 323.221414 
L 503.450988 323.23335 
L 504.463079 323.247519 
L 505.475169 323.245612 
L 506.48726 323.22263 
L 507.499351 323.19335 
L 508.511442 323.177018 
L 509.523533 323.182437 
L 510.535623 323.205943 
L 511.547714 323.235507 
L 512.559805 323.257558 
L 513.571896 323.266908 
L 514.583986 323.270477 
L 515.596077 323.278926 
L 516.608168 323.296485 
L 517.620259 323.31903 
L 518.632349 323.337605 
L 519.64444 323.343316 
L 520.656531 323.333556 
L 521.668622 323.316853 
L 522.680712 323.310454 
L 523.692803 323.328107 
L 524.704894 323.364991 
L 525.716985 323.395925 
L 525.716985 322.652193 
L 525.716985 322.652193 
L 524.704894 322.591456 
L 523.692803 322.512121 
L 522.680712 322.463617 
L 521.668622 322.467401 
L 520.656531 322.504245 
L 519.64444 322.527498 
L 518.632349 322.499163 
L 517.620259 322.424018 
L 516.608168 322.348487 
L 515.596077 322.324673 
L 514.583986 322.372411 
L 513.571896 322.465178 
L 512.559805 322.54713 
L 511.547714 322.572266 
L 510.535623 322.535326 
L 509.523533 322.46848 
L 508.511442 322.410702 
L 507.499351 322.377834 
L 506.48726 322.35412 
L 505.475169 322.312476 
L 504.463079 322.2469 
L 503.450988 322.182811 
L 502.438897 322.156365 
L 501.426806 322.18775 
L 500.414716 322.265988 
L 499.402625 322.348395 
L 498.390534 322.384582 
L 497.378443 322.354856 
L 496.366353 322.285506 
L 495.354262 322.225766 
L 494.342171 322.211034 
L 493.33008 322.238915 
L 492.31799 322.271925 
L 491.305899 322.27285 
L 490.293808 322.24454 
L 489.281717 322.227631 
L 488.269627 322.257062 
L 487.257536 322.330106 
L 486.245445 322.413936 
L 485.233354 322.472544 
L 484.221264 322.489076 
L 483.209173 322.475146 
L 482.197082 322.459756 
L 481.184991 322.461222 
L 480.172901 322.468332 
L 479.16081 322.451409 
L 478.148719 322.392382 
L 477.136628 322.302031 
L 476.124538 322.211383 
L 475.112447 322.153169 
L 474.100356 322.147965 
L 473.088265 322.192028 
L 472.076175 322.2504 
L 471.064084 322.276252 
L 470.051993 322.250942 
L 469.039902 322.202925 
L 468.027812 322.181466 
L 467.015721 322.214254 
L 466.00363 322.28966 
L 464.991539 322.372097 
L 463.979449 322.431341 
L 462.967358 322.462882 
L 461.955267 322.484911 
L 460.943176 322.51416 
L 459.931086 322.54388 
L 458.918995 322.548221 
L 457.906904 322.510264 
L 456.894813 322.441372 
L 455.882723 322.371655 
L 454.870632 322.327039 
L 453.858541 322.314413 
L 452.84645 322.319921 
L 451.83436 322.319826 
L 450.822269 322.300471 
L 449.810178 322.269426 
L 448.798087 322.247555 
L 447.785997 322.254065 
L 446.773906 322.29448 
L 445.761815 322.351575 
L 444.749724 322.39153 
L 443.737634 322.392334 
L 442.725543 322.366401 
L 441.713452 322.348757 
L 440.701361 322.363625 
L 439.689271 322.403679 
L 438.67718 322.438435 
L 437.665089 322.443425 
L 436.652998 322.422703 
L 435.640908 322.402868 
L 434.628817 322.408446 
L 433.616726 322.443571 
L 432.604635 322.488799 
L 431.592545 322.511427 
L 430.580454 322.487837 
L 429.568363 322.423588 
L 428.556272 322.351506 
L 427.544182 322.30778 
L 426.532091 322.305534 
L 425.52 322.324372 
L 424.507909 322.325006 
L 423.495818 322.281904 
L 422.483728 322.206979 
L 421.471637 322.141305 
L 420.459546 322.121147 
L 419.447455 322.147364 
L 418.435365 322.185166 
L 417.423274 322.196045 
L 416.411183 322.170707 
L 415.399092 322.131918 
L 414.387002 322.110433 
L 413.374911 322.118771 
L 412.36282 322.141033 
L 411.350729 322.146298 
L 410.338639 322.118729 
L 409.326548 322.075357 
L 408.314457 322.050687 
L 407.302366 322.06584 
L 406.290276 322.112708 
L 405.278185 322.160074 
L 404.266094 322.174084 
L 403.254003 322.143249 
L 402.241913 322.090629 
L 401.229822 322.058406 
L 400.217731 322.074446 
L 399.20564 322.129 
L 398.19355 322.182717 
L 397.181459 322.201331 
L 396.169368 322.184623 
L 395.157277 322.16136 
L 394.145187 322.158959 
L 393.133096 322.179734 
L 392.121005 322.201234 
L 391.108914 322.19549 
L 390.096824 322.152422 
L 389.084733 322.088818 
L 388.072642 322.035168 
L 387.060551 322.012124 
L 386.048461 322.014695 
L 385.03637 322.014894 
L 384.024279 321.98424 
L 383.012188 321.920536 
L 382.000098 321.852618 
L 380.988007 321.817077 
L 379.975916 321.829544 
L 378.963825 321.872784 
L 377.951735 321.907431 
L 376.939644 321.900003 
L 375.927553 321.847609 
L 374.915462 321.778672 
L 373.903372 321.732495 
L 372.891281 321.734206 
L 371.87919 321.777079 
L 370.867099 321.823804 
L 369.855009 321.833575 
L 368.842918 321.794529 
L 367.830827 321.731098 
L 366.818736 321.682915 
L 365.806646 321.675013 
L 364.794555 321.699133 
L 363.782464 321.721933 
L 362.770373 321.717812 
L 361.758283 321.693925 
L 360.746192 321.679871 
L 359.734101 321.694461 
L 358.72201 321.72381 
L 357.70992 321.7319 
L 356.697829 321.695888 
L 355.685738 321.630115 
L 354.673647 321.572289 
L 353.661557 321.550779 
L 352.649466 321.567447 
L 351.637375 321.602176 
L 350.625284 321.627539 
L 349.613194 321.626858 
L 348.601103 321.604888 
L 347.589012 321.581598 
L 346.576921 321.576641 
L 345.564831 321.597346 
L 344.55274 321.632888 
L 343.540649 321.658928 
L 342.528558 321.658511 
L 341.516467 321.642203 
L 340.504377 321.638758 
L 339.492286 321.662497 
L 338.480195 321.695535 
L 337.468104 321.702806 
L 336.456014 321.662469 
L 335.443923 321.585466 
L 334.431832 321.510594 
L 333.419741 321.478065 
L 332.407651 321.499096 
L 331.39556 321.545481 
L 330.383469 321.570319 
L 329.371378 321.54409 
L 328.359288 321.474417 
L 327.347197 321.396065 
L 326.335106 321.345811 
L 325.323015 321.340997 
L 324.310925 321.369948 
L 323.298834 321.401055 
L 322.286743 321.408717 
L 321.274652 321.393758 
L 320.262562 321.377608 
L 319.250471 321.378646 
L 318.23838 321.394481 
L 317.226289 321.402205 
L 316.214199 321.375824 
L 315.202108 321.310334 
L 314.190017 321.23274 
L 313.177926 321.185796 
L 312.165836 321.19454 
L 311.153745 321.244518 
L 310.141654 321.29348 
L 309.129563 321.308574 
L 308.117473 321.291452 
L 307.105382 321.266367 
L 306.093291 321.25229 
L 305.0812 321.25226 
L 304.06911 321.25908 
L 303.057019 321.261555 
L 302.044928 321.250766 
L 301.032837 321.22723 
L 300.020747 321.200353 
L 299.008656 321.178367 
L 297.996565 321.157962 
L 296.984474 321.123462 
L 295.972384 321.061343 
L 294.960293 320.978532 
L 293.948202 320.9013 
L 292.936111 320.852005 
L 291.924021 320.828626 
L 290.91193 320.809372 
L 289.899839 320.776706 
L 288.887748 320.734925 
L 287.875658 320.701165 
L 286.863567 320.681644 
L 285.851476 320.664398 
L 284.839385 320.634075 
L 283.827295 320.584238 
L 282.815204 320.518248 
L 281.803113 320.450804 
L 280.791022 320.407181 
L 279.778932 320.408652 
L 278.766841 320.454321 
L 277.75475 320.51719 
L 276.742659 320.556878 
L 275.730569 320.542335 
L 274.718478 320.471314 
L 273.706387 320.371152 
L 272.694296 320.282968 
L 271.682206 320.240835 
L 270.670115 320.250772 
L 269.658024 320.282363 
L 268.645933 320.291745 
L 267.633843 320.260175 
L 266.621752 320.207246 
L 265.609661 320.167872 
L 264.59757 320.16204 
L 263.58548 320.184098 
L 262.573389 320.213345 
L 261.561298 320.232759 
L 260.549207 320.240709 
L 259.537116 320.245026 
L 258.525026 320.244352 
L 257.512935 320.219742 
L 256.500844 320.152283 
L 255.488753 320.049353 
L 254.476663 319.945507 
L 253.464572 319.874042 
L 252.452481 319.841221 
L 251.44039 319.826894 
L 250.4283 319.802862 
L 249.416209 319.751097 
L 248.404118 319.67464 
L 247.392027 319.595718 
L 246.379937 319.539871 
L 245.367846 319.517168 
L 244.355755 319.513042 
L 243.343664 319.493972 
L 242.331574 319.43096 
L 241.319483 319.329016 
L 240.307392 319.230385 
L 239.295301 319.179233 
L 238.283211 319.184295 
L 237.27112 319.219545 
L 236.259029 319.253808 
L 235.246938 319.271701 
L 234.234848 319.27109 
L 233.222757 319.254346 
L 232.210666 319.228661 
L 231.198575 319.205576 
L 230.186485 319.189279 
L 229.174394 319.169737 
L 228.162303 319.136438 
L 227.150212 319.094113 
L 226.138122 319.056836 
L 225.126031 319.029842 
L 224.11394 319.0019 
L 223.101849 318.9533 
L 222.089759 318.871248 
L 221.077668 318.759893 
L 220.065577 318.635227 
L 219.053486 318.512646 
L 218.041396 318.402317 
L 217.029305 318.310599 
L 216.017214 318.239096 
L 215.005123 318.186306 
L 213.993033 318.15223 
L 212.980942 318.13598 
L 211.968851 318.129132 
L 210.95676 318.117307 
L 209.94467 318.085448 
L 208.932579 318.018543 
L 207.920488 317.90659 
L 206.908397 317.757161 
L 205.896307 317.598745 
L 204.884216 317.466521 
L 203.872125 317.381071 
L 202.860034 317.332938 
L 201.847944 317.287544 
L 200.835853 317.217063 
L 199.823762 317.131075 
L 198.811671 317.068511 
L 197.799581 317.053787 
L 196.78749 317.061242 
L 195.775399 317.0274 
L 194.763308 316.908198 
L 193.751218 316.726412 
L 192.739127 316.556691 
L 191.727036 316.459456 
L 190.714945 316.42525 
L 189.702855 316.377443 
L 188.690764 316.233401 
L 187.678673 315.976437 
L 186.666582 315.672732 
L 185.654492 315.415995 
L 184.642401 315.255602 
L 183.63031 315.168368 
L 182.618219 315.080879 
L 181.606129 314.918274 
L 180.594038 314.653263 
L 179.581947 314.32643 
L 178.569856 314.019513 
L 177.557765 313.797946 
L 176.545675 313.667669 
L 175.533584 313.583927 
L 174.521493 313.504288 
L 173.509402 313.426873 
L 172.497312 313.372192 
L 171.485221 313.342012 
L 170.47313 313.309718 
L 169.461039 313.241465 
L 168.448949 313.115695 
L 167.436858 312.932415 
L 166.424767 312.716632 
L 165.412676 312.508408 
L 164.400586 312.336207 
L 163.388495 312.193302 
L 162.376404 312.039829 
L 161.364313 311.835463 
L 160.352223 311.579399 
L 159.340132 311.318 
L 158.328041 311.105257 
L 157.31595 310.951189 
L 156.30386 310.804108 
L 155.291769 310.579794 
L 154.279678 310.220058 
L 153.267587 309.74006 
L 152.255497 309.220981 
L 151.243406 308.750517 
L 150.231315 308.364424 
L 149.219224 308.034807 
L 148.207134 307.7042 
L 147.195043 307.335242 
L 146.182952 306.93667 
L 145.170861 306.543034 
L 144.158771 306.167728 
L 143.14668 305.77667 
L 142.134589 305.310656 
L 141.122498 304.742923 
L 140.110408 304.12014 
L 139.098317 303.538036 
L 138.086226 303.064688 
L 137.074135 302.683876 
L 136.062045 302.307822 
L 135.049954 301.839289 
L 134.037863 301.233423 
L 133.025772 300.524336 
L 132.013682 299.803843 
L 131.001591 299.165306 
L 129.9895 298.646382 
L 128.977409 298.203785 
L 127.965319 297.732261 
L 126.953228 297.115787 
L 125.941137 296.286329 
L 124.929046 295.270435 
L 123.916956 294.196631 
L 122.904865 293.228232 
L 121.892774 292.447285 
L 120.880683 291.802628 
L 119.868593 291.179593 
L 118.856502 290.500351 
L 117.844411 289.752207 
L 116.83232 288.957153 
L 115.82023 288.139984 
L 114.808139 287.310015 
L 113.796048 286.454527 
L 112.783957 285.550463 
L 111.771867 284.587932 
L 110.759776 283.583689 
L 109.747685 282.567971 
L 108.735594 281.553886 
L 107.723504 280.524919 
L 106.711413 279.460825 
L 105.699322 278.365893 
L 104.687231 277.25565 
L 103.675141 276.123478 
L 102.66305 274.945325 
L 101.650959 273.716017 
L 100.638868 272.454553 
L 99.626778 271.169283 
L 98.614687 269.840884 
L 97.602596 268.446677 
L 96.590505 266.988207 
L 95.578414 265.491717 
L 94.566324 263.992294 
L 93.554233 262.520058 
L 92.542142 261.094828 
L 91.530051 259.7217 
L 90.517961 258.377884 
L 89.50587 257.00717 
L 88.493779 255.548356 
L 87.481688 253.981975 
L 86.469598 252.350743 
L 85.457507 250.73494 
L 84.445416 249.205245 
L 83.433325 247.783779 
L 82.421235 246.433805 
L 81.409144 245.088483 
L 80.397053 243.698404 
L 79.384962 242.257141 
L 78.372872 240.794649 
L 77.360781 239.360695 
L 76.34869 238.00494 
L 75.336599 236.731662 
L 74.324509 235.449344 
L 73.312418 234.000816 
L 72.300327 232.284835 
L 71.288236 230.33696 
L 70.276146 228.273641 
L 69.264055 226.175738 
L 68.251964 224.025614 
L 67.239873 221.72047 
L 66.227783 219.139337 
L 65.215692 216.223739 
L 64.203601 213.018379 
L 63.19151 209.657018 
L 62.17942 206.306163 
L 61.167329 203.076448 
L 60.155238 199.950795 
L 59.143147 196.785699 
L 58.131057 193.370794 
L 57.118966 189.515879 
L 56.106875 185.155129 
L 55.094784 180.4071 
L 54.082694 175.514039 
L 53.070603 170.71354 
L 52.058512 166.1644 
L 51.046421 161.943379 
L 50.034331 158.04005 
L 49.02224 154.349534 
L 48.010149 150.730371 
L 46.998058 147.109704 
L 45.985968 143.52387 
L 44.973877 140.041263 
L 43.961786 136.66071 
L 42.949695 133.311034 
L 41.937605 129.947088 
L 40.925514 126.615697 
L 39.913423 123.395191 
L 38.901332 120.261752 
L 37.889242 117.037515 
L 36.877151 113.499837 
L 35.86506 109.545949 
L 34.852969 105.258056 
L 33.840879 100.841692 
L 32.828788 96.523104 
L 31.816697 92.478109 
L 30.804606 88.808933 
L 29.792516 85.553857 
L 28.780425 82.701094 
L 27.768334 80.186958 
L 26.756243 77.901356 
L 25.744153 75.740365 
L 24.732062 73.679916 
L 23.719971 71.796401 
L 22.70788 70.221354 
L 21.69579 69.085952 
L 20.683699 68.49076 
z
" clip-path="url(#p09e2583d44)" style="fill: #e8000b; fill-opacity: 0.1"/>
   </g>
   <g id="line2d_12">
    <path d="M 20.683699 243.161445 
L 21.69579 240.723326 
L 22.70788 239.93005 
L 24.732062 243.816867 
L 25.744153 243.643493 
L 27.768334 241.74593 
L 28.780425 240.21514 
L 29.792516 238.063371 
L 30.804606 237.08693 
L 31.816697 238.871914 
L 32.828788 242.087927 
L 33.840879 244.024689 
L 34.852969 243.587862 
L 37.889242 237.545569 
L 38.901332 235.063712 
L 39.913423 233.205377 
L 40.925514 233.207318 
L 41.937605 235.267936 
L 42.949695 237.596331 
L 43.961786 238.335798 
L 44.973877 237.94503 
L 45.985968 237.261115 
L 46.998058 234.793855 
L 48.010149 230.035241 
L 49.02224 226.447273 
L 50.034331 226.838477 
L 51.046421 229.484715 
L 52.058512 231.50243 
L 53.070603 232.182092 
L 54.082694 232.118941 
L 56.106875 231.013613 
L 58.131057 230.743063 
L 59.143147 230.536209 
L 60.155238 230.799104 
L 61.167329 230.237841 
L 62.17942 228.820839 
L 63.19151 228.429674 
L 65.215692 229.71192 
L 66.227783 229.22778 
L 67.239873 227.01987 
L 68.251964 224.246516 
L 69.264055 222.811373 
L 70.276146 223.290022 
L 71.288236 224.87733 
L 72.300327 226.25395 
L 73.312418 226.62899 
L 74.324509 226.490862 
L 76.34869 226.442288 
L 77.360781 226.322166 
L 78.372872 226.6748 
L 79.384962 227.484918 
L 80.397053 227.74214 
L 81.409144 227.290001 
L 82.421235 227.475347 
L 85.457507 231.537194 
L 86.469598 232.304728 
L 87.481688 232.197724 
L 88.493779 231.785439 
L 89.50587 231.526114 
L 90.517961 230.399084 
L 91.530051 228.62532 
L 92.542142 227.997891 
L 93.554233 228.234531 
L 94.566324 227.563041 
L 95.578414 226.156676 
L 96.590505 225.628593 
L 97.602596 225.956493 
L 98.614687 225.563764 
L 99.626778 224.540464 
L 100.638868 224.373067 
L 102.66305 225.897084 
L 103.675141 226.200306 
L 104.687231 227.259862 
L 105.699322 228.720006 
L 106.711413 228.802816 
L 107.723504 227.95767 
L 108.735594 226.520659 
L 109.747685 224.780546 
L 110.759776 224.256953 
L 111.771867 224.818484 
L 112.783957 225.940275 
L 113.796048 228.072178 
L 114.808139 229.343922 
L 116.83232 227.335248 
L 117.844411 227.142396 
L 118.856502 225.152484 
L 119.868593 221.651896 
L 120.880683 221.11466 
L 121.892774 225.0654 
L 122.904865 229.617412 
L 123.916956 230.745654 
L 124.929046 228.006156 
L 125.941137 224.624757 
L 126.953228 224.244759 
L 129.9895 228.671726 
L 131.001591 228.63036 
L 132.013682 226.79832 
L 133.025772 224.405929 
L 134.037863 223.32413 
L 135.049954 225.612108 
L 136.062045 229.624639 
L 137.074135 230.605608 
L 139.098317 224.196883 
L 140.110408 224.464088 
L 141.122498 227.202921 
L 143.14668 233.601366 
L 144.158771 236.195051 
L 145.170861 237.783719 
L 146.182952 236.867635 
L 147.195043 232.859106 
L 148.207134 227.31442 
L 149.219224 223.995775 
L 150.231315 225.361093 
L 151.243406 229.568721 
L 152.255497 231.687377 
L 153.267587 228.782197 
L 154.279678 224.279217 
L 155.291769 222.607167 
L 157.31595 223.405363 
L 158.328041 224.800442 
L 159.340132 227.619758 
L 160.352223 228.776877 
L 161.364313 226.850233 
L 162.376404 225.440359 
L 163.388495 227.707175 
L 164.400586 230.321511 
L 165.412676 230.024505 
L 166.424767 228.90611 
L 168.448949 228.859184 
L 169.461039 226.89616 
L 170.47313 223.22164 
L 171.485221 221.259085 
L 172.497312 222.187006 
L 174.521493 224.433764 
L 175.533584 227.717114 
L 176.545675 232.549556 
L 177.557765 236.66496 
L 178.569856 237.583123 
L 179.581947 233.977251 
L 181.606129 221.48294 
L 182.618219 217.556329 
L 183.63031 218.535461 
L 184.642401 222.506539 
L 185.654492 225.224218 
L 186.666582 225.939601 
L 187.678673 224.759607 
L 188.690764 222.206353 
L 189.702855 220.466197 
L 190.714945 219.099715 
L 191.727036 217.320679 
L 192.739127 216.397494 
L 193.751218 217.183538 
L 194.763308 218.636469 
L 195.775399 219.677327 
L 196.78749 219.818048 
L 197.799581 217.793875 
L 198.811671 215.356347 
L 199.823762 215.619223 
L 202.860034 222.541277 
L 203.872125 222.672303 
L 204.884216 219.298872 
L 205.896307 214.648275 
L 206.908397 212.44874 
L 207.920488 213.429402 
L 208.932579 215.166206 
L 210.95676 216.468366 
L 212.980942 219.587201 
L 215.005123 223.533593 
L 216.017214 223.773777 
L 217.029305 223.801951 
L 218.041396 224.71794 
L 219.053486 225.111553 
L 220.065577 223.998495 
L 221.077668 221.585611 
L 222.089759 218.673709 
L 223.101849 216.731345 
L 224.11394 217.184724 
L 226.138122 221.664816 
L 227.150212 222.707872 
L 228.162303 221.531691 
L 229.174394 218.245446 
L 230.186485 215.62403 
L 231.198575 214.049848 
L 232.210666 213.896113 
L 233.222757 216.880351 
L 234.234848 220.873742 
L 235.246938 221.151816 
L 236.259029 216.291663 
L 237.27112 210.073804 
L 238.283211 206.057528 
L 239.295301 203.270511 
L 241.319483 193.371365 
L 242.331574 194.219341 
L 244.355755 211.904772 
L 245.367846 217.145713 
L 246.379937 219.795528 
L 247.392027 221.255071 
L 248.404118 220.190084 
L 249.416209 215.933917 
L 251.44039 203.443385 
L 252.452481 203.973712 
L 253.464572 210.36547 
L 254.476663 213.413481 
L 256.500844 209.341771 
L 257.512935 209.744799 
L 258.525026 212.9706 
L 259.537116 216.726498 
L 260.549207 217.317843 
L 262.573389 212.23625 
L 264.59757 208.484424 
L 265.609661 207.809584 
L 266.621752 208.036162 
L 267.633843 208.48604 
L 268.645933 208.548189 
L 269.658024 205.921279 
L 270.670115 200.752534 
L 271.682206 197.951787 
L 272.694296 201.185642 
L 273.706387 207.975689 
L 274.718478 213.66304 
L 275.730569 214.597773 
L 276.742659 210.761578 
L 277.75475 207.543489 
L 278.766841 207.675236 
L 279.778932 208.063219 
L 280.791022 206.123626 
L 281.803113 202.899367 
L 282.815204 202.351343 
L 283.827295 206.73997 
L 284.839385 211.64752 
L 285.851476 213.648131 
L 286.863567 214.924638 
L 287.875658 217.695387 
L 288.887748 221.125538 
L 289.899839 222.577435 
L 290.91193 221.601146 
L 291.924021 221.137425 
L 292.936111 222.89607 
L 293.948202 224.919557 
L 294.960293 224.860299 
L 295.972384 221.993495 
L 296.984474 217.779013 
L 297.996565 214.291465 
L 299.008656 212.992979 
L 300.020747 213.277886 
L 301.032837 210.28497 
L 302.044928 198.353989 
L 303.057019 182.119641 
L 304.06911 176.699732 
L 305.0812 186.855963 
L 306.093291 201.852953 
L 307.105382 212.161266 
L 308.117473 217.367929 
L 309.129563 220.116066 
L 310.141654 221.575623 
L 311.153745 222.389837 
L 312.165836 221.780539 
L 313.177926 218.977864 
L 314.190017 218.313226 
L 315.202108 222.637042 
L 316.214199 225.094837 
L 317.226289 219.731331 
L 318.23838 212.577819 
L 319.250471 209.855048 
L 320.262562 209.865157 
L 321.274652 210.559305 
L 322.286743 214.931067 
L 323.298834 221.15241 
L 324.310925 220.369376 
L 325.323015 213.313784 
L 326.335106 207.336634 
L 327.347197 204.556669 
L 328.359288 206.876427 
L 329.371378 216.707781 
L 330.383469 224.827594 
L 331.39556 221.52952 
L 332.407651 213.993458 
L 333.419741 212.331095 
L 334.431832 216.935896 
L 335.443923 223.219434 
L 336.456014 225.031459 
L 337.468104 217.720767 
L 339.492286 191.041816 
L 340.504377 185.887594 
L 341.516467 184.903011 
L 342.528558 175.326404 
L 343.540649 168.679548 
L 344.55274 183.226493 
L 345.564831 204.520537 
L 346.576921 216.583413 
L 347.589012 220.685906 
L 348.601103 220.409459 
L 349.613194 218.372734 
L 350.625284 214.722888 
L 352.649466 203.914066 
L 353.661557 203.191109 
L 354.673647 205.830352 
L 355.685738 207.32507 
L 356.697829 207.459695 
L 357.70992 208.041477 
L 358.72201 208.040328 
L 359.734101 206.891292 
L 360.746192 206.02201 
L 361.758283 202.333384 
L 362.770373 190.561818 
L 363.782464 180.146899 
L 364.794555 184.336899 
L 365.806646 195.306984 
L 366.818736 200.886338 
L 367.830827 202.891525 
L 369.855009 210.850697 
L 370.867099 211.354179 
L 371.87919 210.288087 
L 372.891281 209.933065 
L 373.903372 210.717636 
L 374.915462 215.676146 
L 375.927553 227.510263 
L 376.939644 236.319108 
L 377.951735 229.817911 
L 378.963825 215.861732 
L 379.975916 208.05918 
L 380.988007 206.750057 
L 382.000098 203.7989 
L 383.012188 195.426079 
L 384.024279 189.935687 
L 385.03637 195.206598 
L 386.048461 204.167962 
L 387.060551 207.711683 
L 388.072642 206.806994 
L 389.084733 209.369309 
L 390.096824 217.800806 
L 391.108914 222.644733 
L 392.121005 219.035336 
L 393.133096 213.95857 
L 394.145187 211.471068 
L 395.157277 212.544952 
L 396.169368 218.977774 
L 397.181459 224.077077 
L 398.19355 220.183339 
L 399.20564 212.211176 
L 400.217731 205.818671 
L 401.229822 202.986824 
L 402.241913 206.215994 
L 403.254003 211.974348 
L 404.266094 213.178616 
L 405.278185 210.027688 
L 406.290276 207.79817 
L 407.302366 207.480752 
L 408.314457 207.756622 
L 410.338639 209.232838 
L 411.350729 210.394502 
L 412.36282 212.268306 
L 413.374911 212.266069 
L 414.387002 210.689886 
L 415.399092 211.888468 
L 416.411183 215.819236 
L 417.423274 216.310256 
L 418.435365 211.246666 
L 419.447455 207.259972 
L 420.459546 208.318194 
L 421.471637 212.310295 
L 422.483728 220.203063 
L 423.495818 234.041014 
L 424.507909 241.879106 
L 425.52 231.944879 
L 426.532091 216.855791 
L 427.544182 210.488327 
L 428.556272 211.001604 
L 429.568363 212.496445 
L 430.580454 212.386916 
L 431.592545 211.50743 
L 432.604635 211.351058 
L 433.616726 211.347616 
L 434.628817 211.724024 
L 435.640908 217.918231 
L 436.652998 233.659793 
L 437.665089 244.996805 
L 438.67718 237.137049 
L 439.689271 223.316698 
L 440.701361 217.86063 
L 441.713452 217.539184 
L 442.725543 219.580144 
L 443.737634 223.522046 
L 444.749724 224.093033 
L 445.761815 218.461858 
L 446.773906 210.884954 
L 447.785997 204.555464 
L 448.798087 201.154861 
L 449.810178 201.541622 
L 450.822269 200.887744 
L 451.83436 196.885479 
L 452.84645 195.069953 
L 453.858541 199.429439 
L 454.870632 208.35789 
L 455.882723 219.181001 
L 456.894813 233.613085 
L 457.906904 243.649333 
L 458.918995 238.013643 
L 459.931086 225.88937 
L 460.943176 219.404214 
L 461.955267 219.175605 
L 462.967358 224.969827 
L 463.979449 235.112544 
L 464.991539 237.717966 
L 467.015721 215.631279 
L 468.027812 213.352164 
L 469.039902 215.28204 
L 470.051993 215.410229 
L 471.064084 211.934617 
L 472.076175 207.877878 
L 473.088265 206.439397 
L 474.100356 207.804489 
L 475.112447 211.274135 
L 476.124538 217.833943 
L 477.136628 226.836109 
L 478.148719 227.044821 
L 480.172901 195.566053 
L 481.184991 196.165406 
L 482.197082 203.362486 
L 483.209173 206.970227 
L 484.221264 207.445584 
L 485.233354 206.391225 
L 486.245445 204.650531 
L 487.257536 204.380113 
L 488.269627 206.701871 
L 489.281717 210.746302 
L 490.293808 212.919294 
L 491.305899 206.835944 
L 492.31799 196.163257 
L 493.33008 195.189742 
L 495.354262 212.81501 
L 496.366353 218.285433 
L 497.378443 225.350145 
L 498.390534 230.002373 
L 499.402625 225.765287 
L 500.414716 217.591169 
L 501.426806 212.50675 
L 502.438897 210.935362 
L 504.463079 210.376975 
L 505.475169 210.976078 
L 506.48726 212.311752 
L 507.499351 211.874212 
L 509.523533 206.86697 
L 510.535623 206.647852 
L 512.559805 208.513403 
L 513.571896 210.450067 
L 514.583986 211.435674 
L 515.596077 211.26958 
L 516.608168 213.516003 
L 518.632349 224.946605 
L 519.64444 225.285806 
L 520.656531 222.035262 
L 521.668622 218.125512 
L 522.680712 214.664565 
L 523.692803 211.986858 
L 524.704894 210.084655 
L 525.716985 209.09805 
L 525.716985 209.09805 
" clip-path="url(#p09e2583d44)" style="fill: none; stroke: #023eff; stroke-linecap: round"/>
   </g>
   <g id="line2d_13">
    <path d="M 20.683699 76.218248 
L 21.69579 75.32216 
L 22.70788 76.120846 
L 24.732062 81.798003 
L 25.744153 83.173656 
L 26.756243 84.195072 
L 27.768334 85.450414 
L 28.780425 86.357324 
L 29.792516 86.981392 
L 30.804606 88.731632 
L 31.816697 92.944102 
L 32.828788 98.731533 
L 33.840879 103.829411 
L 34.852969 107.088024 
L 35.86506 109.203264 
L 37.889242 113.943553 
L 39.913423 116.567511 
L 40.925514 119.155777 
L 43.961786 132.275196 
L 45.985968 137.947465 
L 46.998058 139.25189 
L 48.010149 138.598763 
L 49.02224 138.525105 
L 50.034331 141.250532 
L 52.058512 150.277546 
L 53.070603 153.954144 
L 55.094784 159.929303 
L 58.131057 168.834866 
L 60.155238 173.065131 
L 61.167329 174.383239 
L 62.17942 175.447731 
L 63.19151 177.720921 
L 64.203601 180.765005 
L 65.215692 183.380892 
L 66.227783 184.798757 
L 67.239873 184.481817 
L 68.251964 183.481767 
L 69.264055 183.668152 
L 70.276146 185.538764 
L 72.300327 191.019428 
L 73.312418 192.706382 
L 76.34869 195.551805 
L 77.360781 196.665187 
L 78.372872 198.155819 
L 79.384962 200.035625 
L 80.397053 201.511286 
L 81.409144 202.399575 
L 82.421235 203.621115 
L 86.469598 211.482745 
L 87.481688 212.788483 
L 89.50587 214.875599 
L 90.517961 215.289806 
L 91.530051 215.223264 
L 92.542142 216.007727 
L 93.554233 217.388722 
L 94.566324 218.044736 
L 95.578414 218.167254 
L 96.590505 218.942424 
L 97.602596 220.297036 
L 98.614687 221.098664 
L 99.626778 221.46463 
L 100.638868 222.376204 
L 102.66305 225.293464 
L 103.675141 226.468548 
L 104.687231 228.089053 
L 105.699322 229.94808 
L 106.711413 230.854773 
L 107.723504 231.089405 
L 108.735594 230.803544 
L 109.747685 230.225503 
L 110.759776 230.528936 
L 111.771867 231.615868 
L 112.783957 233.09361 
L 113.796048 235.246813 
L 114.808139 236.634598 
L 116.83232 235.921266 
L 117.844411 236.22756 
L 118.856502 235.365318 
L 119.868593 233.520239 
L 120.880683 233.645764 
L 121.892774 236.651607 
L 122.904865 240.082612 
L 123.916956 241.355538 
L 124.929046 239.958155 
L 125.941137 238.014104 
L 126.953228 238.14193 
L 128.977409 240.863926 
L 129.9895 242.098992 
L 131.001591 242.279966 
L 132.013682 241.278943 
L 133.025772 240.022535 
L 134.037863 239.733007 
L 135.049954 241.717046 
L 136.062045 244.757083 
L 137.074135 245.540539 
L 139.098317 241.112337 
L 140.110408 241.537007 
L 141.122498 243.748156 
L 142.134589 246.253036 
L 144.158771 250.378135 
L 145.170861 251.828504 
L 146.182952 251.597675 
L 147.195043 249.137172 
L 148.207134 245.417056 
L 149.219224 243.114709 
L 150.231315 244.142435 
L 151.243406 247.275388 
L 152.255497 249.019961 
L 153.267587 247.312333 
L 154.279678 244.492751 
L 155.291769 243.528277 
L 157.31595 244.188 
L 158.328041 245.260235 
L 159.340132 247.449032 
L 160.352223 248.56927 
L 162.376404 246.456679 
L 163.388495 248.020026 
L 164.400586 249.906622 
L 165.412676 249.816772 
L 166.424767 249.230744 
L 167.436858 249.45755 
L 168.448949 249.538242 
L 169.461039 248.104443 
L 170.47313 245.436433 
L 171.485221 244.060175 
L 172.497312 244.780114 
L 174.521493 246.604499 
L 175.533584 248.993799 
L 176.545675 252.380563 
L 177.557765 255.336464 
L 178.569856 256.194936 
L 179.581947 253.931743 
L 181.606129 245.431945 
L 182.618219 242.548891 
L 183.63031 243.139826 
L 184.642401 245.985822 
L 185.654492 248.033297 
L 186.666582 248.728191 
L 187.678673 248.146759 
L 188.690764 246.503218 
L 191.727036 242.78054 
L 192.739127 242.190029 
L 193.751218 242.964561 
L 194.763308 244.263937 
L 195.775399 245.112073 
L 196.78749 245.134105 
L 197.799581 243.599902 
L 198.811671 241.858853 
L 199.823762 242.140073 
L 202.860034 247.30741 
L 203.872125 247.333558 
L 204.884216 244.958711 
L 205.896307 241.711665 
L 206.908397 240.26093 
L 207.920488 241.14136 
L 208.932579 242.492897 
L 210.95676 243.3789 
L 212.980942 245.651839 
L 215.005123 248.651489 
L 216.017214 248.881484 
L 217.029305 248.885309 
L 218.041396 249.524212 
L 219.053486 249.792996 
L 220.065577 248.994136 
L 221.077668 247.363357 
L 222.089759 245.423605 
L 223.101849 244.055333 
L 224.11394 244.312545 
L 226.138122 247.507303 
L 227.150212 248.347639 
L 228.162303 247.683214 
L 229.174394 245.448521 
L 230.186485 243.528974 
L 231.198575 242.291417 
L 232.210666 242.126258 
L 233.222757 244.287858 
L 234.234848 247.227941 
L 235.246938 247.520563 
L 236.259029 244.069882 
L 237.27112 239.556923 
L 238.283211 236.585752 
L 239.295301 234.498394 
L 241.319483 227.494884 
L 242.331574 228.248348 
L 244.355755 240.899551 
L 245.367846 244.643393 
L 246.379937 246.594269 
L 247.392027 247.738799 
L 248.404118 247.096943 
L 249.416209 244.112777 
L 251.44039 234.975966 
L 252.452481 235.323807 
L 253.464572 239.977718 
L 254.476663 242.290583 
L 256.500844 239.615866 
L 257.512935 239.894025 
L 258.525026 242.13859 
L 259.537116 244.797458 
L 260.549207 245.263973 
L 263.58548 240.257023 
L 264.59757 238.864675 
L 265.609661 238.352259 
L 266.621752 238.595597 
L 267.633843 239.0609 
L 268.645933 239.229886 
L 269.658024 237.336169 
L 270.670115 233.463191 
L 271.682206 231.308698 
L 272.694296 233.634787 
L 273.706387 238.6167 
L 274.718478 242.848087 
L 275.730569 243.654291 
L 276.742659 240.925647 
L 277.75475 238.524318 
L 278.766841 238.522268 
L 279.778932 238.763175 
L 280.791022 237.406329 
L 281.803113 235.198159 
L 282.815204 234.889171 
L 283.827295 238.043731 
L 284.839385 241.564333 
L 285.851476 243.018294 
L 286.863567 243.934025 
L 287.875658 245.931594 
L 288.887748 248.470916 
L 289.899839 249.59465 
L 290.91193 248.88472 
L 291.924021 248.497125 
L 292.936111 249.734334 
L 293.948202 251.223411 
L 294.960293 251.282425 
L 295.972384 249.333445 
L 296.984474 246.333653 
L 297.996565 243.772649 
L 299.008656 242.798225 
L 300.020747 243.01122 
L 301.032837 240.895285 
L 302.044928 232.363432 
L 303.057019 220.680544 
L 304.06911 216.696281 
L 305.0812 223.943551 
L 306.093291 234.741495 
L 307.105382 242.183633 
L 308.117473 245.99479 
L 309.129563 248.091837 
L 310.141654 249.204005 
L 311.153745 249.726808 
L 312.165836 249.199513 
L 313.177926 247.154214 
L 314.190017 246.719951 
L 315.202108 249.928804 
L 316.214199 251.771396 
L 317.226289 247.896557 
L 318.23838 242.678944 
L 319.250471 240.663338 
L 320.262562 240.642176 
L 321.274652 241.162405 
L 322.286743 244.398692 
L 323.298834 248.944988 
L 324.310925 248.324953 
L 325.323015 243.147362 
L 326.335106 238.827029 
L 327.347197 236.875775 
L 328.359288 238.62625 
L 329.371378 245.81393 
L 330.383469 251.716425 
L 331.39556 249.267971 
L 332.407651 243.722581 
L 333.419741 242.47223 
L 334.431832 245.816665 
L 335.443923 250.42309 
L 336.456014 251.817264 
L 337.468104 246.584944 
L 339.492286 227.252986 
L 340.504377 223.499217 
L 341.516467 222.82673 
L 342.528558 216.016945 
L 343.540649 211.266527 
L 344.55274 221.704801 
L 345.564831 236.998618 
L 346.576921 245.670119 
L 347.589012 248.626243 
L 348.601103 248.450241 
L 349.613194 247.025654 
L 350.625284 244.411865 
L 352.649466 236.48432 
L 353.661557 235.935785 
L 354.673647 237.875279 
L 355.685738 239.050709 
L 356.697829 239.263727 
L 357.70992 239.72516 
L 358.72201 239.666096 
L 359.734101 238.768248 
L 360.746192 238.125286 
L 361.758283 235.497321 
L 362.770373 227.078068 
L 363.782464 219.60262 
L 364.794555 222.564843 
L 365.806646 230.405399 
L 366.818736 234.422519 
L 367.830827 235.906927 
L 369.855009 241.778108 
L 370.867099 242.150203 
L 371.87919 241.300064 
L 372.891281 240.969151 
L 373.903372 241.529119 
L 374.915462 245.149083 
L 375.927553 253.75668 
L 376.939644 260.185224 
L 377.951735 255.513038 
L 378.963825 245.387598 
L 379.975916 239.697286 
L 380.988007 238.73545 
L 382.000098 236.633117 
L 383.012188 230.66921 
L 384.024279 226.779925 
L 385.03637 230.569705 
L 386.048461 236.970437 
L 387.060551 239.484657 
L 388.072642 238.837007 
L 389.084733 240.739151 
L 390.096824 246.910714 
L 391.108914 250.467478 
L 392.121005 247.845548 
L 393.133096 244.131622 
L 394.145187 242.308231 
L 395.157277 243.08999 
L 396.169368 247.783157 
L 397.181459 251.523714 
L 398.19355 248.709727 
L 399.20564 242.876113 
L 400.217731 238.185326 
L 401.229822 236.125646 
L 402.241913 238.501172 
L 403.254003 242.738872 
L 404.266094 243.658767 
L 405.278185 241.350447 
L 406.290276 239.673662 
L 407.302366 239.401766 
L 408.314457 239.592383 
L 410.338639 240.804438 
L 411.350729 241.698427 
L 412.36282 242.998528 
L 413.374911 242.918351 
L 414.387002 241.75738 
L 415.399092 242.645864 
L 416.411183 245.535195 
L 417.423274 245.945402 
L 418.435365 242.288634 
L 419.447455 239.334208 
L 420.459546 240.031264 
L 421.471637 242.926656 
L 422.483728 248.703245 
L 423.495818 258.787806 
L 424.507909 264.48519 
L 425.52 257.262477 
L 426.532091 246.302396 
L 427.544182 241.691059 
L 428.556272 242.098192 
L 429.568363 243.250309 
L 430.580454 243.253479 
L 431.592545 242.644462 
L 433.616726 242.406353 
L 434.628817 242.648999 
L 435.640908 247.122207 
L 436.652998 258.519651 
L 437.665089 266.759867 
L 438.67718 261.094403 
L 439.689271 251.057898 
L 440.701361 247.068081 
L 441.713452 246.831262 
L 442.725543 248.34003 
L 443.737634 251.257963 
L 444.749724 251.707246 
L 445.761815 247.574812 
L 446.773906 242.011383 
L 447.785997 237.408109 
L 448.798087 234.954967 
L 449.810178 235.254951 
L 450.822269 234.845638 
L 451.83436 232.007325 
L 452.84645 230.670005 
L 453.858541 233.76671 
L 454.870632 240.203337 
L 455.882723 248.041439 
L 456.894813 258.508809 
L 457.906904 265.830977 
L 458.918995 261.815847 
L 459.931086 253.039428 
L 460.943176 248.300136 
L 461.955267 248.115971 
L 462.967358 252.325402 
L 463.979449 259.683566 
L 464.991539 261.561794 
L 467.015721 245.470719 
L 468.027812 243.769853 
L 469.039902 245.166311 
L 470.051993 245.323591 
L 471.064084 242.887799 
L 472.076175 239.965663 
L 473.088265 238.856647 
L 474.100356 239.780136 
L 475.112447 242.273738 
L 476.124538 247.0378 
L 477.136628 253.600419 
L 478.148719 253.830466 
L 480.172901 231.115669 
L 481.184991 231.503514 
L 482.197082 236.69269 
L 483.209173 239.341552 
L 484.221264 239.753043 
L 485.233354 239.010451 
L 486.245445 237.690578 
L 487.257536 237.416165 
L 488.269627 239.039183 
L 489.281717 241.949132 
L 490.293808 243.579944 
L 491.305899 239.288439 
L 492.31799 231.613879 
L 493.33008 230.835689 
L 495.354262 243.460039 
L 496.366353 247.432742 
L 497.378443 252.591482 
L 498.390534 256.015495 
L 499.402625 252.952858 
L 500.414716 246.971783 
L 501.426806 243.233637 
L 502.438897 242.078186 
L 504.463079 241.786012 
L 505.475169 242.286811 
L 506.48726 243.219511 
L 507.499351 242.847316 
L 509.523533 239.272286 
L 510.535623 239.177127 
L 512.559805 240.610231 
L 513.571896 241.92352 
L 514.583986 242.543015 
L 515.596077 242.396905 
L 516.608168 244.049594 
L 518.632349 252.46423 
L 519.64444 252.731997 
L 520.656531 250.323132 
L 521.668622 247.434005 
L 522.680712 244.913617 
L 523.692803 243.009951 
L 524.704894 241.736573 
L 525.716985 241.141903 
L 525.716985 241.141903 
" clip-path="url(#p09e2583d44)" style="fill: none; stroke: #ff7c00; stroke-linecap: round"/>
   </g>
   <g id="line2d_14">
    <path d="M 20.683699 73.615167 
L 21.69579 74.377174 
L 22.70788 75.730875 
L 24.732062 79.38157 
L 26.756243 83.767008 
L 28.780425 89.001695 
L 29.792516 92.041042 
L 30.804606 95.468475 
L 32.828788 103.627592 
L 35.86506 117.739192 
L 37.889242 127.059652 
L 39.913423 135.248339 
L 42.949695 147.065887 
L 46.998058 163.46407 
L 50.034331 174.304872 
L 52.058512 181.817804 
L 55.094784 194.283906 
L 57.118966 202.484899 
L 58.131057 206.122634 
L 60.155238 212.214473 
L 63.19151 220.801635 
L 65.215692 226.45381 
L 66.227783 228.787348 
L 68.251964 232.55033 
L 70.276146 236.22734 
L 72.300327 240.141636 
L 74.324509 243.494522 
L 77.360781 247.956748 
L 82.421235 255.830151 
L 85.457507 260.208928 
L 95.578414 276.45836 
L 99.626778 282.275892 
L 102.66305 286.128074 
L 105.699322 289.602053 
L 108.735594 292.747537 
L 111.771867 295.490155 
L 113.796048 297.067073 
L 115.82023 298.327449 
L 118.856502 300.222483 
L 120.880683 301.454822 
L 124.929046 303.483259 
L 126.953228 304.582824 
L 128.977409 305.398519 
L 132.013682 306.565543 
L 135.049954 307.924035 
L 137.074135 308.410813 
L 144.158771 309.719954 
L 146.182952 310.461234 
L 148.207134 311.206203 
L 153.267587 312.535481 
L 155.291769 313.199302 
L 161.364313 314.325326 
L 170.47313 315.376888 
L 177.557765 315.824573 
L 179.581947 316.30435 
L 181.606129 316.756869 
L 186.666582 317.167454 
L 188.690764 317.507775 
L 193.751218 317.856322 
L 195.775399 318.122373 
L 204.884216 318.535255 
L 210.95676 319.084425 
L 215.005123 319.255013 
L 231.198575 319.956428 
L 234.234848 319.97791 
L 237.27112 320.052775 
L 240.307392 320.02914 
L 244.355755 320.173804 
L 246.379937 320.212812 
L 250.4283 320.437703 
L 253.464572 320.477543 
L 257.512935 320.792363 
L 265.609661 320.794185 
L 269.658024 320.997622 
L 272.694296 320.878311 
L 277.75475 321.126417 
L 280.791022 321.10555 
L 284.839385 321.272589 
L 292.936111 321.405843 
L 303.057019 321.729371 
L 308.117473 321.702196 
L 311.153745 321.774494 
L 314.190017 321.768176 
L 317.226289 321.864395 
L 322.286743 321.847002 
L 332.407651 321.928463 
L 334.431832 321.906163 
L 339.492286 322.025192 
L 355.685738 322.071805 
L 358.72201 322.170803 
L 362.770373 322.183786 
L 372.891281 322.176422 
L 375.927553 322.245109 
L 378.963825 322.285195 
L 382.000098 322.277458 
L 386.048461 322.338308 
L 389.084733 322.376889 
L 392.121005 322.479234 
L 403.254003 322.46844 
L 406.290276 322.45386 
L 409.326548 322.469462 
L 412.36282 322.532118 
L 416.411183 322.526044 
L 420.459546 322.493866 
L 439.689271 322.68651 
L 442.725543 322.680892 
L 445.761815 322.675437 
L 448.798087 322.576037 
L 464.991539 322.76813 
L 469.039902 322.622576 
L 473.088265 322.65077 
L 476.124538 322.642937 
L 480.172901 322.774718 
L 504.463079 322.74721 
L 512.559805 322.902344 
L 516.608168 322.822486 
L 520.656531 322.9189 
L 523.692803 322.920114 
L 525.716985 323.024059 
L 525.716985 323.024059 
" clip-path="url(#p09e2583d44)" style="fill: none; stroke: #e8000b; stroke-width: 2; stroke-linecap: round"/>
   </g>
   <g id="line2d_15">
    <path d="M 20.683699 323.476429 
L 25.744153 318.951765 
L 30.804606 315.393887 
L 35.86506 308.732624 
L 40.925514 306.790253 
L 45.985968 296.749749 
L 51.046421 284.234444 
L 56.106875 274.361175 
L 61.167329 267.449935 
L 66.227783 264.232081 
L 71.288236 251.669537 
L 76.34869 236.808611 
L 81.409144 223.159122 
L 86.469598 205.729311 
L 91.530051 189.595472 
L 96.590505 179.250297 
L 101.650959 164.596883 
L 106.711413 154.815882 
L 111.771867 148.00953 
L 116.83232 144.541496 
L 121.892774 144.99748 
L 126.953228 139.50402 
L 132.013682 127.524213 
L 137.074135 125.254044 
L 142.134589 124.509062 
L 147.195043 114.589791 
L 152.255497 104.466184 
L 157.31595 102.224571 
L 162.376404 97.711116 
L 167.436858 91.371709 
L 172.497312 87.849052 
L 177.557765 85.624161 
L 182.618219 83.848175 
L 187.678673 87.041017 
L 192.739127 91.365968 
L 197.799581 90.623394 
L 202.860034 88.725273 
L 207.920488 85.180159 
L 212.980942 81.513741 
L 218.041396 82.234877 
L 223.101849 85.05693 
L 228.162303 86.476241 
L 233.222757 81.993597 
L 238.283211 81.350296 
L 243.343664 83.883465 
L 248.404118 85.073883 
L 253.464572 86.466157 
L 258.525026 83.521014 
L 263.58548 88.18902 
L 268.645933 89.050287 
L 273.706387 84.177661 
L 278.766841 83.524037 
L 283.827295 83.301657 
L 288.887748 78.474629 
L 293.948202 76.666535 
L 299.008656 77.955704 
L 304.06911 78.874113 
L 309.129563 79.182327 
L 314.190017 77.482269 
L 319.250471 77.20973 
L 324.310925 83.167128 
L 329.371378 82.46073 
L 334.431832 79.009701 
L 339.492286 77.684524 
L 344.55274 77.099398 
L 349.613194 80.849229 
L 354.673647 88.0802 
L 359.734101 87.127423 
L 364.794555 84.372698 
L 369.855009 76.858908 
L 374.915462 72.850084 
L 379.975916 73.616422 
L 385.03637 74.671727 
L 390.096824 72.834311 
L 395.157277 73.218757 
L 400.217731 75.7615 
L 405.278185 74.677176 
L 410.338639 71.899801 
L 415.399092 71.297857 
L 420.459546 71.474358 
L 425.52 71.728557 
L 430.580454 71.873142 
L 435.640908 73.494831 
L 440.701361 74.932243 
L 445.761815 73.738229 
L 450.822269 74.014784 
L 455.882723 73.284017 
L 460.943176 72.274652 
L 466.00363 73.188065 
L 471.064084 74.945032 
L 476.124538 76.85722 
L 481.184991 81.985992 
L 486.245445 83.228703 
L 491.305899 81.299546 
L 496.366353 77.898978 
L 501.426806 73.188953 
L 506.48726 72.405675 
L 511.547714 72.384664 
L 516.608168 72.620601 
L 521.668622 72.826284 
" clip-path="url(#p09e2583d44)" style="fill: none; stroke: #000000; stroke-width: 1.5; stroke-linecap: round"/>
   </g>
   <g id="line2d_16">
    <path d="M 20.683699 72.685719 
L 25.744153 77.758373 
L 30.804606 90.616734 
L 35.86506 113.464854 
L 40.925514 139.297835 
L 45.985968 169.781657 
L 51.046421 198.438774 
L 56.106875 222.384471 
L 61.167329 239.02715 
L 66.227783 251.906288 
L 71.288236 261.925778 
L 76.34869 267.635118 
L 81.409144 268.231524 
L 86.469598 262.477868 
L 91.530051 257.875541 
L 96.590505 257.624511 
L 101.650959 255.39557 
L 106.711413 256.661435 
L 111.771867 265.244633 
L 116.83232 272.25337 
L 121.892774 273.359018 
L 126.953228 273.625789 
L 132.013682 276.206329 
L 137.074135 278.222752 
L 142.134589 276.437509 
L 147.195043 273.937893 
L 152.255497 274.941445 
L 157.31595 278.098024 
L 162.376404 280.879967 
L 167.436858 281.69472 
L 172.497312 286.620351 
L 177.557765 291.95659 
L 182.618219 294.72955 
L 187.678673 296.51192 
L 192.739127 297.555474 
L 197.799581 297.822895 
L 202.860034 299.168264 
L 207.920488 300.468055 
L 212.980942 299.480491 
L 218.041396 298.497308 
L 223.101849 301.553328 
L 228.162303 303.140639 
L 233.222757 300.427997 
L 238.283211 298.332521 
L 243.343664 298.887189 
L 248.404118 302.390864 
L 253.464572 303.132023 
L 258.525026 302.361586 
L 263.58548 305.37741 
L 268.645933 307.510692 
L 273.706387 307.766959 
L 278.766841 307.14925 
L 283.827295 305.064348 
L 288.887748 303.750526 
L 293.948202 304.42054 
L 299.008656 306.548787 
L 304.06911 307.840283 
L 309.129563 308.951792 
L 314.190017 310.448853 
L 319.250471 313.398822 
L 324.310925 319.007954 
L 329.371378 319.588265 
L 334.431832 315.31253 
L 339.492286 311.493768 
L 344.55274 308.573735 
L 349.613194 306.700253 
L 354.673647 305.488374 
L 359.734101 303.551829 
L 364.794555 302.477464 
L 369.855009 302.409538 
L 374.915462 301.301471 
L 379.975916 299.970853 
L 385.03637 299.180068 
L 390.096824 295.593622 
L 395.157277 294.423652 
L 400.217731 298.042445 
L 405.278185 299.320581 
L 410.338639 298.981958 
L 415.399092 298.220701 
L 420.459546 298.820267 
L 425.52 298.736338 
L 430.580454 297.977227 
L 435.640908 299.866842 
L 440.701361 301.447132 
L 445.761815 301.137112 
L 450.822269 301.158319 
L 455.882723 300.802133 
L 460.943176 302.42139 
L 466.00363 305.8315 
L 471.064084 305.900472 
L 476.124538 305.420329 
L 481.184991 308.427054 
L 486.245445 310.819589 
L 491.305899 313.503771 
L 496.366353 317.06666 
L 501.426806 317.967073 
L 506.48726 318.54677 
L 511.547714 319.822622 
L 516.608168 322.022086 
L 521.668622 323.223769 
" clip-path="url(#p09e2583d44)" style="fill: none; stroke: #8b2be2; stroke-width: 1.5; stroke-linecap: round"/>
   </g>
   <g id="patch_3">
    <path d="M 10.8 328.52 
L 10.8 46.08 
" style="fill: none; stroke: #ffffff; stroke-width: 0.8; stroke-linejoin: miter; stroke-linecap: square"/>
   </g>
   <g id="patch_4">
    <path d="M 529.2 328.52 
L 529.2 46.08 
" style="fill: none; stroke: #ffffff; stroke-width: 0.8; stroke-linejoin: miter; stroke-linecap: square"/>
   </g>
   <g id="patch_5">
    <path d="M 10.8 328.52 
L 529.2 328.52 
" style="fill: none; stroke: #ffffff; stroke-width: 0.8; stroke-linejoin: miter; stroke-linecap: square"/>
   </g>
   <g id="patch_6">
    <path d="M 10.8 46.08 
L 529.2 46.08 
" style="fill: none; stroke: #ffffff; stroke-width: 0.8; stroke-linejoin: miter; stroke-linecap: square"/>
   </g>
  </g>
  <g id="text_3">
   <!-- CMU-Net | P -->
   <g style="fill: #262626" transform="translate(189.075 25.54125) scale(0.24 -0.24)">
    <defs>
     <path id="DejaVuSans-Bold-43" d="M 4288 256 
Q 3956 84 3597 -3 
Q 3238 -91 2847 -91 
Q 1681 -91 1000 561 
Q 319 1213 319 2328 
Q 319 3447 1000 4098 
Q 1681 4750 2847 4750 
Q 3238 4750 3597 4662 
Q 3956 4575 4288 4403 
L 4288 3438 
Q 3953 3666 3628 3772 
Q 3303 3878 2944 3878 
Q 2300 3878 1931 3465 
Q 1563 3053 1563 2328 
Q 1563 1606 1931 1193 
Q 2300 781 2944 781 
Q 3303 781 3628 887 
Q 3953 994 4288 1222 
L 4288 256 
z
" transform="scale(0.015625)"/>
     <path id="DejaVuSans-Bold-4d" d="M 588 4666 
L 2119 4666 
L 3181 2169 
L 4250 4666 
L 5778 4666 
L 5778 0 
L 4641 0 
L 4641 3413 
L 3566 897 
L 2803 897 
L 1728 3413 
L 1728 0 
L 588 0 
L 588 4666 
z
" transform="scale(0.015625)"/>
     <path id="DejaVuSans-Bold-55" d="M 588 4666 
L 1791 4666 
L 1791 1869 
Q 1791 1291 1980 1042 
Q 2169 794 2597 794 
Q 3028 794 3217 1042 
Q 3406 1291 3406 1869 
L 3406 4666 
L 4609 4666 
L 4609 1869 
Q 4609 878 4112 393 
Q 3616 -91 2597 -91 
Q 1581 -91 1084 393 
Q 588 878 588 1869 
L 588 4666 
z
" transform="scale(0.015625)"/>
     <path id="DejaVuSans-Bold-2d" d="M 347 2297 
L 2309 2297 
L 2309 1388 
L 347 1388 
L 347 2297 
z
" transform="scale(0.015625)"/>
     <path id="DejaVuSans-Bold-4e" d="M 588 4666 
L 1931 4666 
L 3628 1466 
L 3628 4666 
L 4769 4666 
L 4769 0 
L 3425 0 
L 1728 3200 
L 1728 0 
L 588 0 
L 588 4666 
z
" transform="scale(0.015625)"/>
     <path id="DejaVuSans-Bold-65" d="M 4031 1759 
L 4031 1441 
L 1416 1441 
Q 1456 1047 1700 850 
Q 1944 653 2381 653 
Q 2734 653 3104 758 
Q 3475 863 3866 1075 
L 3866 213 
Q 3469 63 3072 -14 
Q 2675 -91 2278 -91 
Q 1328 -91 801 392 
Q 275 875 275 1747 
Q 275 2603 792 3093 
Q 1309 3584 2216 3584 
Q 3041 3584 3536 3087 
Q 4031 2591 4031 1759 
z
M 2881 2131 
Q 2881 2450 2695 2645 
Q 2509 2841 2209 2841 
Q 1884 2841 1681 2658 
Q 1478 2475 1428 2131 
L 2881 2131 
z
" transform="scale(0.015625)"/>
     <path id="DejaVuSans-Bold-74" d="M 1759 4494 
L 1759 3500 
L 2913 3500 
L 2913 2700 
L 1759 2700 
L 1759 1216 
Q 1759 972 1856 886 
Q 1953 800 2241 800 
L 2816 800 
L 2816 0 
L 1856 0 
Q 1194 0 917 276 
Q 641 553 641 1216 
L 641 2700 
L 84 2700 
L 84 3500 
L 641 3500 
L 641 4494 
L 1759 4494 
z
" transform="scale(0.015625)"/>
     <path id="DejaVuSans-Bold-20" transform="scale(0.015625)"/>
     <path id="DejaVuSans-Bold-7c" d="M 1522 4891 
L 1522 -1509 
L 813 -1509 
L 813 4891 
L 1522 4891 
z
" transform="scale(0.015625)"/>
     <path id="DejaVuSans-Bold-50" d="M 588 4666 
L 2584 4666 
Q 3475 4666 3951 4270 
Q 4428 3875 4428 3144 
Q 4428 2409 3951 2014 
Q 3475 1619 2584 1619 
L 1791 1619 
L 1791 0 
L 588 0 
L 588 4666 
z
M 1791 3794 
L 1791 2491 
L 2456 2491 
Q 2806 2491 2997 2661 
Q 3188 2831 3188 3144 
Q 3188 3456 2997 3625 
Q 2806 3794 2456 3794 
L 1791 3794 
z
" transform="scale(0.015625)"/>
    </defs>
    <use xlink:href="#DejaVuSans-Bold-43"/>
    <use xlink:href="#DejaVuSans-Bold-4d" transform="translate(73.388672 0)"/>
    <use xlink:href="#DejaVuSans-Bold-55" transform="translate(172.900391 0)"/>
    <use xlink:href="#DejaVuSans-Bold-2d" transform="translate(254.101562 0)"/>
    <use xlink:href="#DejaVuSans-Bold-4e" transform="translate(295.605469 0)"/>
    <use xlink:href="#DejaVuSans-Bold-65" transform="translate(379.296875 0)"/>
    <use xlink:href="#DejaVuSans-Bold-74" transform="translate(447.119141 0)"/>
    <use xlink:href="#DejaVuSans-Bold-20" transform="translate(494.921875 0)"/>
    <use xlink:href="#DejaVuSans-Bold-7c" transform="translate(529.736328 0)"/>
    <use xlink:href="#DejaVuSans-Bold-20" transform="translate(566.259766 0)"/>
    <use xlink:href="#DejaVuSans-Bold-50" transform="translate(601.074219 0)"/>
   </g>
  </g>
 </g>
 <defs>
  <clipPath id="p09e2583d44">
   <rect x="10.8" y="46.08" width="518.4" height="282.44"/>
  </clipPath>
 </defs>
</svg>
