<?xml version="1.0" encoding="utf-8" standalone="no"?>
<!DOCTYPE svg PUBLIC "-//W3C//DTD SVG 1.1//EN"
  "http://www.w3.org/Graphics/SVG/1.1/DTD/svg11.dtd">
<svg xmlns:xlink="http://www.w3.org/1999/xlink" width="540pt" height="360pt" viewBox="0 0 540 360" xmlns="http://www.w3.org/2000/svg" version="1.1">
 <metadata>
  <rdf:RDF xmlns:dc="http://purl.org/dc/elements/1.1/" xmlns:cc="http://creativecommons.org/ns#" xmlns:rdf="http://www.w3.org/1999/02/22-rdf-syntax-ns#">
   <cc:Work>
    <dc:type rdf:resource="http://purl.org/dc/dcmitype/StillImage"/>
    <dc:date>2025-08-04T02:53:11.183009</dc:date>
    <dc:format>image/svg+xml</dc:format>
    <dc:creator>
     <cc:Agent>
      <dc:title>Matplotlib v3.10.0, https://matplotlib.org/</dc:title>
     </cc:Agent>
    </dc:creator>
   </cc:Work>
  </rdf:RDF>
 </metadata>
 <defs>
  <style type="text/css">*{stroke-linejoin: round; stroke-linecap: butt}</style>
 </defs>
 <g id="figure_1">
  <g id="patch_1">
   <path d="M 0 360 
L 540 360 
L 540 0 
L 0 0 
z
" style="fill: #ffffff"/>
  </g>
  <g id="axes_1">
   <g id="patch_2">
    <path d="M 65.14 328.52 
L 529.2 328.52 
L 529.2 46.08 
L 65.14 46.08 
z
" style="fill: #eaeaf2"/>
   </g>
   <g id="matplotlib.axis_1">
    <g id="xtick_1">
     <g id="line2d_1">
      <path d="M 73.987664 328.52 
L 73.987664 46.08 
" clip-path="url(#pb4583e01a8)" style="fill: none; stroke: #ffffff; stroke-width: 0.8; stroke-linecap: round"/>
     </g>
     <g id="text_1">
      <!-- 0 -->
      <g style="fill: #262626" transform="translate(69.533914 346.157812) scale(0.14 -0.14)">
       <defs>
        <path id="DejaVuSans-30" d="M 2034 4250 
Q 1547 4250 1301 3770 
Q 1056 3291 1056 2328 
Q 1056 1369 1301 889 
Q 1547 409 2034 409 
Q 2525 409 2770 889 
Q 3016 1369 3016 2328 
Q 3016 3291 2770 3770 
Q 2525 4250 2034 4250 
z
M 2034 4750 
Q 2819 4750 3233 4129 
Q 3647 3509 3647 2328 
Q 3647 1150 3233 529 
Q 2819 -91 2034 -91 
Q 1250 -91 836 529 
Q 422 1150 422 2328 
Q 422 3509 836 4129 
Q 1250 4750 2034 4750 
z
" transform="scale(0.015625)"/>
       </defs>
       <use xlink:href="#DejaVuSans-30"/>
      </g>
     </g>
    </g>
    <g id="xtick_2">
     <g id="line2d_2">
      <path d="M 516.370887 328.52 
L 516.370887 46.08 
" clip-path="url(#pb4583e01a8)" style="fill: none; stroke: #ffffff; stroke-width: 0.8; stroke-linecap: round"/>
     </g>
     <g id="text_2">
      <!-- 2M -->
      <g style="fill: #262626" transform="translate(505.877449 346.157812) scale(0.14 -0.14)">
       <defs>
        <path id="DejaVuSans-32" d="M 1228 531 
L 3431 531 
L 3431 0 
L 469 0 
L 469 531 
Q 828 903 1448 1529 
Q 2069 2156 2228 2338 
Q 2531 2678 2651 2914 
Q 2772 3150 2772 3378 
Q 2772 3750 2511 3984 
Q 2250 4219 1831 4219 
Q 1534 4219 1204 4116 
Q 875 4013 500 3803 
L 500 4441 
Q 881 4594 1212 4672 
Q 1544 4750 1819 4750 
Q 2544 4750 2975 4387 
Q 3406 4025 3406 3419 
Q 3406 3131 3298 2873 
Q 3191 2616 2906 2266 
Q 2828 2175 2409 1742 
Q 1991 1309 1228 531 
z
" transform="scale(0.015625)"/>
        <path id="DejaVuSans-4d" d="M 628 4666 
L 1569 4666 
L 2759 1491 
L 3956 4666 
L 4897 4666 
L 4897 0 
L 4281 0 
L 4281 4097 
L 3078 897 
L 2444 897 
L 1241 4097 
L 1241 0 
L 628 0 
L 628 4666 
z
" transform="scale(0.015625)"/>
       </defs>
       <use xlink:href="#DejaVuSans-32"/>
       <use xlink:href="#DejaVuSans-4d" transform="translate(63.623047 0)"/>
      </g>
     </g>
    </g>
   </g>
   <g id="matplotlib.axis_2">
    <g id="ytick_1">
     <g id="line2d_3">
      <path d="M 65.14 321.36962 
L 529.2 321.36962 
" clip-path="url(#pb4583e01a8)" style="fill: none; stroke: #ffffff; stroke-width: 0.8; stroke-linecap: round"/>
     </g>
     <g id="text_3">
      <!-- −1500 -->
      <g style="fill: #262626" transform="translate(10.778437 326.688527) scale(0.14 -0.14)">
       <defs>
        <path id="DejaVuSans-2212" d="M 678 2272 
L 4684 2272 
L 4684 1741 
L 678 1741 
L 678 2272 
z
" transform="scale(0.015625)"/>
        <path id="DejaVuSans-31" d="M 794 531 
L 1825 531 
L 1825 4091 
L 703 3866 
L 703 4441 
L 1819 4666 
L 2450 4666 
L 2450 531 
L 3481 531 
L 3481 0 
L 794 0 
L 794 531 
z
" transform="scale(0.015625)"/>
        <path id="DejaVuSans-35" d="M 691 4666 
L 3169 4666 
L 3169 4134 
L 1269 4134 
L 1269 2991 
Q 1406 3038 1543 3061 
Q 1681 3084 1819 3084 
Q 2600 3084 3056 2656 
Q 3513 2228 3513 1497 
Q 3513 744 3044 326 
Q 2575 -91 1722 -91 
Q 1428 -91 1123 -41 
Q 819 9 494 109 
L 494 744 
Q 775 591 1075 516 
Q 1375 441 1709 441 
Q 2250 441 2565 725 
Q 2881 1009 2881 1497 
Q 2881 1984 2565 2268 
Q 2250 2553 1709 2553 
Q 1456 2553 1204 2497 
Q 953 2441 691 2322 
L 691 4666 
z
" transform="scale(0.015625)"/>
       </defs>
       <use xlink:href="#DejaVuSans-2212"/>
       <use xlink:href="#DejaVuSans-31" transform="translate(83.789062 0)"/>
       <use xlink:href="#DejaVuSans-35" transform="translate(147.412109 0)"/>
       <use xlink:href="#DejaVuSans-30" transform="translate(211.035156 0)"/>
       <use xlink:href="#DejaVuSans-30" transform="translate(274.658203 0)"/>
      </g>
     </g>
    </g>
    <g id="ytick_2">
     <g id="line2d_4">
      <path d="M 65.14 267.741772 
L 529.2 267.741772 
" clip-path="url(#pb4583e01a8)" style="fill: none; stroke: #ffffff; stroke-width: 0.8; stroke-linecap: round"/>
     </g>
     <g id="text_4">
      <!-- −1200 -->
      <g style="fill: #262626" transform="translate(10.778437 273.060678) scale(0.14 -0.14)">
       <use xlink:href="#DejaVuSans-2212"/>
       <use xlink:href="#DejaVuSans-31" transform="translate(83.789062 0)"/>
       <use xlink:href="#DejaVuSans-32" transform="translate(147.412109 0)"/>
       <use xlink:href="#DejaVuSans-30" transform="translate(211.035156 0)"/>
       <use xlink:href="#DejaVuSans-30" transform="translate(274.658203 0)"/>
      </g>
     </g>
    </g>
    <g id="ytick_3">
     <g id="line2d_5">
      <path d="M 65.14 214.113924 
L 529.2 214.113924 
" clip-path="url(#pb4583e01a8)" style="fill: none; stroke: #ffffff; stroke-width: 0.8; stroke-linecap: round"/>
     </g>
     <g id="text_5">
      <!-- −900 -->
      <g style="fill: #262626" transform="translate(19.685937 219.43283) scale(0.14 -0.14)">
       <defs>
        <path id="DejaVuSans-39" d="M 703 97 
L 703 672 
Q 941 559 1184 500 
Q 1428 441 1663 441 
Q 2288 441 2617 861 
Q 2947 1281 2994 2138 
Q 2813 1869 2534 1725 
Q 2256 1581 1919 1581 
Q 1219 1581 811 2004 
Q 403 2428 403 3163 
Q 403 3881 828 4315 
Q 1253 4750 1959 4750 
Q 2769 4750 3195 4129 
Q 3622 3509 3622 2328 
Q 3622 1225 3098 567 
Q 2575 -91 1691 -91 
Q 1453 -91 1209 -44 
Q 966 3 703 97 
z
M 1959 2075 
Q 2384 2075 2632 2365 
Q 2881 2656 2881 3163 
Q 2881 3666 2632 3958 
Q 2384 4250 1959 4250 
Q 1534 4250 1286 3958 
Q 1038 3666 1038 3163 
Q 1038 2656 1286 2365 
Q 1534 2075 1959 2075 
z
" transform="scale(0.015625)"/>
       </defs>
       <use xlink:href="#DejaVuSans-2212"/>
       <use xlink:href="#DejaVuSans-39" transform="translate(83.789062 0)"/>
       <use xlink:href="#DejaVuSans-30" transform="translate(147.412109 0)"/>
       <use xlink:href="#DejaVuSans-30" transform="translate(211.035156 0)"/>
      </g>
     </g>
    </g>
    <g id="ytick_4">
     <g id="line2d_6">
      <path d="M 65.14 160.486076 
L 529.2 160.486076 
" clip-path="url(#pb4583e01a8)" style="fill: none; stroke: #ffffff; stroke-width: 0.8; stroke-linecap: round"/>
     </g>
     <g id="text_6">
      <!-- −600 -->
      <g style="fill: #262626" transform="translate(19.685937 165.804982) scale(0.14 -0.14)">
       <defs>
        <path id="DejaVuSans-36" d="M 2113 2584 
Q 1688 2584 1439 2293 
Q 1191 2003 1191 1497 
Q 1191 994 1439 701 
Q 1688 409 2113 409 
Q 2538 409 2786 701 
Q 3034 994 3034 1497 
Q 3034 2003 2786 2293 
Q 2538 2584 2113 2584 
z
M 3366 4563 
L 3366 3988 
Q 3128 4100 2886 4159 
Q 2644 4219 2406 4219 
Q 1781 4219 1451 3797 
Q 1122 3375 1075 2522 
Q 1259 2794 1537 2939 
Q 1816 3084 2150 3084 
Q 2853 3084 3261 2657 
Q 3669 2231 3669 1497 
Q 3669 778 3244 343 
Q 2819 -91 2113 -91 
Q 1303 -91 875 529 
Q 447 1150 447 2328 
Q 447 3434 972 4092 
Q 1497 4750 2381 4750 
Q 2619 4750 2861 4703 
Q 3103 4656 3366 4563 
z
" transform="scale(0.015625)"/>
       </defs>
       <use xlink:href="#DejaVuSans-2212"/>
       <use xlink:href="#DejaVuSans-36" transform="translate(83.789062 0)"/>
       <use xlink:href="#DejaVuSans-30" transform="translate(147.412109 0)"/>
       <use xlink:href="#DejaVuSans-30" transform="translate(211.035156 0)"/>
      </g>
     </g>
    </g>
    <g id="ytick_5">
     <g id="line2d_7">
      <path d="M 65.14 106.858228 
L 529.2 106.858228 
" clip-path="url(#pb4583e01a8)" style="fill: none; stroke: #ffffff; stroke-width: 0.8; stroke-linecap: round"/>
     </g>
     <g id="text_7">
      <!-- −300 -->
      <g style="fill: #262626" transform="translate(19.685937 112.177134) scale(0.14 -0.14)">
       <defs>
        <path id="DejaVuSans-33" d="M 2597 2516 
Q 3050 2419 3304 2112 
Q 3559 1806 3559 1356 
Q 3559 666 3084 287 
Q 2609 -91 1734 -91 
Q 1441 -91 1130 -33 
Q 819 25 488 141 
L 488 750 
Q 750 597 1062 519 
Q 1375 441 1716 441 
Q 2309 441 2620 675 
Q 2931 909 2931 1356 
Q 2931 1769 2642 2001 
Q 2353 2234 1838 2234 
L 1294 2234 
L 1294 2753 
L 1863 2753 
Q 2328 2753 2575 2939 
Q 2822 3125 2822 3475 
Q 2822 3834 2567 4026 
Q 2313 4219 1838 4219 
Q 1578 4219 1281 4162 
Q 984 4106 628 3988 
L 628 4550 
Q 988 4650 1302 4700 
Q 1616 4750 1894 4750 
Q 2613 4750 3031 4423 
Q 3450 4097 3450 3541 
Q 3450 3153 3228 2886 
Q 3006 2619 2597 2516 
z
" transform="scale(0.015625)"/>
       </defs>
       <use xlink:href="#DejaVuSans-2212"/>
       <use xlink:href="#DejaVuSans-33" transform="translate(83.789062 0)"/>
       <use xlink:href="#DejaVuSans-30" transform="translate(147.412109 0)"/>
       <use xlink:href="#DejaVuSans-30" transform="translate(211.035156 0)"/>
      </g>
     </g>
    </g>
    <g id="ytick_6">
     <g id="line2d_8">
      <path d="M 65.14 53.23038 
L 529.2 53.23038 
" clip-path="url(#pb4583e01a8)" style="fill: none; stroke: #ffffff; stroke-width: 0.8; stroke-linecap: round"/>
     </g>
     <g id="text_8">
      <!-- 0 -->
      <g style="fill: #262626" transform="translate(49.2325 58.549286) scale(0.14 -0.14)">
       <use xlink:href="#DejaVuSans-30"/>
      </g>
     </g>
    </g>
   </g>
   <g id="FillBetweenPolyCollection_1">
    <path d="M 73.987664 259.083609 
L 73.987664 280.05195 
L 78.517669 270.204011 
L 83.047673 282.165702 
L 87.577677 257.970482 
L 92.107681 266.875283 
L 96.637685 272.848281 
L 101.16769 265.958739 
L 105.697694 266.61604 
L 110.227698 251.353797 
L 114.757702 260.578325 
L 119.287706 246.280651 
L 123.817711 237.842258 
L 128.347715 240.511669 
L 132.877719 232.376024 
L 137.407723 224.738182 
L 141.937727 227.868752 
L 146.467732 211.796525 
L 150.997736 200.547338 
L 155.52774 209.822161 
L 160.057744 198.816817 
L 164.587748 189.104988 
L 169.117753 182.706549 
L 173.647757 181.354986 
L 178.177761 173.455871 
L 182.707765 168.269137 
L 187.237769 151.04282 
L 191.767773 131.913118 
L 196.297778 120.097929 
L 200.827782 106.105799 
L 205.357786 104.46536 
L 209.88779 99.385517 
L 214.417794 98.99017 
L 218.947799 121.618834 
L 223.477803 94.79641 
L 228.007807 93.490556 
L 232.537811 100.956276 
L 237.067815 90.086077 
L 241.59782 131.737237 
L 246.127824 125.035094 
L 250.657828 102.392219 
L 255.187832 106.717877 
L 259.717836 99.061465 
L 264.247841 100.367602 
L 268.777845 93.31855 
L 273.307849 98.263484 
L 277.837853 94.191095 
L 282.367857 93.201082 
L 286.897862 87.179465 
L 291.427866 90.756413 
L 295.95787 87.557201 
L 300.487874 93.295358 
L 305.017878 94.736708 
L 309.547883 88.444665 
L 314.077887 88.87141 
L 318.607891 86.789005 
L 323.137895 105.541473 
L 327.667899 132.846756 
L 332.197904 140.291434 
L 336.727908 126.546179 
L 341.257912 117.442597 
L 345.787916 99.131677 
L 350.31792 120.775609 
L 354.847924 105.686353 
L 359.377929 111.393803 
L 363.907933 105.946185 
L 368.437937 116.927519 
L 372.967941 111.45008 
L 377.497945 90.429335 
L 382.02795 92.072312 
L 386.557954 111.479189 
L 391.087958 130.186006 
L 395.617962 112.465536 
L 400.147966 88.912913 
L 404.677971 83.188288 
L 409.207975 87.397682 
L 413.737979 87.65291 
L 418.267983 88.869655 
L 422.797987 85.099991 
L 427.327992 88.890804 
L 431.857996 84.321744 
L 436.388 163.942337 
L 440.918004 130.360483 
L 445.448008 133.304479 
L 449.978013 134.902776 
L 454.508017 105.131545 
L 459.038021 135.085276 
L 463.568025 146.60073 
L 468.098029 129.477816 
L 472.628034 150.825855 
L 477.158038 128.755956 
L 481.688042 139.160297 
L 486.218046 116.396612 
L 490.74805 133.772426 
L 495.278055 106.553544 
L 499.808059 106.211843 
L 504.338063 130.960489 
L 508.868067 105.700028 
L 513.398071 127.104393 
L 517.928076 120.123988 
L 522.45808 103.918197 
L 522.45808 77.647723 
L 522.45808 77.647723 
L 517.928076 67.782297 
L 513.398071 64.444457 
L 508.868067 74.665857 
L 504.338063 61.357176 
L 499.808059 74.408787 
L 495.278055 74.833136 
L 490.74805 66.946247 
L 486.218046 78.493306 
L 481.688042 65.478597 
L 477.158038 74.223114 
L 472.628034 60.881085 
L 468.098029 68.61574 
L 463.568025 60.527632 
L 459.038021 68.452757 
L 454.508017 74.968803 
L 449.978013 67.70959 
L 445.448008 65.777172 
L 440.918004 65.306157 
L 436.388 57.304024 
L 431.857996 79.069744 
L 427.327992 75.298004 
L 422.797987 75.970917 
L 418.267983 79.606344 
L 413.737979 74.33699 
L 409.207975 76.650977 
L 404.677971 78.37782 
L 400.147966 81.22413 
L 395.617962 73.346866 
L 391.087958 70.659069 
L 386.557954 76.154851 
L 382.02795 81.191021 
L 377.497945 78.79859 
L 372.967941 76.0368 
L 368.437937 74.798398 
L 363.907933 80.041117 
L 359.377929 74.630174 
L 354.847924 79.048922 
L 350.31792 80.712762 
L 345.787916 83.360933 
L 341.257912 70.997332 
L 336.727908 72.712859 
L 332.197904 66.287564 
L 327.667899 73.961842 
L 323.137895 81.499954 
L 318.607891 80.90878 
L 314.077887 79.314503 
L 309.547883 81.892459 
L 305.017878 77.895489 
L 300.487874 78.891268 
L 295.95787 80.071707 
L 291.427866 78.47878 
L 286.897862 79.664196 
L 282.367857 82.876049 
L 277.837853 80.631083 
L 273.307849 83.113378 
L 268.777845 81.562816 
L 264.247841 80.071498 
L 259.717836 86.575163 
L 255.187832 88.676428 
L 250.657828 78.889708 
L 246.127824 71.527899 
L 241.59782 84.057718 
L 237.067815 82.264193 
L 232.537811 87.301185 
L 228.007807 86.26734 
L 223.477803 86.583124 
L 218.947799 73.530344 
L 214.417794 85.062601 
L 209.88779 85.383857 
L 205.357786 85.247786 
L 200.827782 94.731826 
L 196.297778 103.515564 
L 191.767773 90.559298 
L 187.237769 83.795682 
L 182.707765 90.60097 
L 178.177761 78.659012 
L 173.647757 72.833706 
L 169.117753 81.538939 
L 164.587748 87.126441 
L 160.057744 93.193441 
L 155.52774 93.718433 
L 150.997736 101.970071 
L 146.467732 103.818633 
L 141.937727 113.290713 
L 137.407723 105.413785 
L 132.877719 122.260846 
L 128.347715 151.542725 
L 123.817711 177.168389 
L 119.287706 188.676098 
L 114.757702 214.16899 
L 110.227698 210.761343 
L 105.697694 226.351023 
L 101.16769 233.605868 
L 96.637685 240.398287 
L 92.107681 251.552851 
L 87.577677 243.62127 
L 83.047673 257.283904 
L 78.517669 255.858808 
L 73.987664 259.083609 
z
" clip-path="url(#pb4583e01a8)" style="fill: #023eff; fill-opacity: 0.1"/>
   </g>
   <g id="line2d_9">
    <path d="M 73.987664 265.793696 
L 78.517669 275.560623 
L 83.047673 252.323584 
L 87.577677 246.038911 
L 92.107681 262.511625 
L 96.637685 270.979395 
L 101.16769 275.446489 
L 105.697694 275.709579 
L 110.227698 256.674416 
L 114.757702 275.801053 
L 119.287706 254.221233 
L 123.817711 249.674029 
L 128.347715 240.671909 
L 132.877719 240.040196 
L 137.407723 223.120381 
L 141.937727 215.400881 
L 146.467732 204.309654 
L 150.997736 180.213135 
L 155.52774 203.913389 
L 160.057744 152.681744 
L 164.587748 148.080201 
L 169.117753 126.962599 
L 173.647757 112.941731 
L 178.177761 121.588062 
L 182.707765 115.818615 
L 187.237769 98.239213 
L 191.767773 109.419338 
L 196.297778 119.744319 
L 200.827782 105.416092 
L 205.357786 98.459034 
L 209.88779 102.777494 
L 214.417794 90.860108 
L 218.947799 83.993662 
L 223.477803 85.390232 
L 228.007807 90.33845 
L 232.537811 93.925649 
L 237.067815 92.213051 
L 241.59782 81.7509 
L 246.127824 82.005646 
L 250.657828 87.511574 
L 255.187832 93.216273 
L 259.717836 91.15881 
L 264.247841 88.920943 
L 268.777845 82.719428 
L 273.307849 88.965425 
L 277.837853 97.902484 
L 282.367857 92.519514 
L 286.897862 82.543202 
L 291.427866 86.60935 
L 295.95787 84.120891 
L 300.487874 75.416806 
L 305.017878 81.651401 
L 309.547883 80.673202 
L 314.077887 84.589467 
L 318.607891 88.977994 
L 323.137895 113.919 
L 327.667899 159.563252 
L 332.197904 176.330615 
L 336.727908 152.997294 
L 341.257912 139.961094 
L 345.787916 99.160415 
L 350.31792 139.391938 
L 354.847924 118.862202 
L 359.377929 129.59717 
L 363.907933 118.647683 
L 368.437937 137.353916 
L 372.967941 127.047571 
L 377.497945 92.038374 
L 382.02795 89.928694 
L 386.557954 128.114541 
L 391.087958 83.846889 
L 395.617962 82.055859 
L 400.147966 85.848064 
L 404.677971 80.640343 
L 409.207975 78.735414 
L 413.737979 80.120877 
L 418.267983 78.594932 
L 422.797987 73.437652 
L 427.327992 80.966263 
L 431.857996 77.93723 
L 436.388 216.612624 
L 440.918004 162.227869 
L 445.448008 166.818002 
L 449.978013 168.35575 
L 454.508017 119.341627 
L 459.038021 168.198628 
L 463.568025 189.246403 
L 468.098029 159.690546 
L 472.628034 195.160183 
L 477.158038 155.073935 
L 481.688042 175.689935 
L 486.218046 131.00767 
L 490.74805 166.693335 
L 495.278055 121.264711 
L 499.808059 121.170414 
L 504.338063 79.929467 
L 508.868067 81.740164 
L 513.398071 76.315798 
L 517.928076 77.567423 
L 522.45808 82.111296 
" clip-path="url(#pb4583e01a8)" style="fill: none; stroke: #1ac938; stroke-opacity: 0.27; stroke-width: 1.25; stroke-linecap: round"/>
   </g>
   <g id="line2d_10">
    <path d="M 73.987664 253.342447 
L 78.517669 255.811678 
L 83.047673 257.599103 
L 87.577677 249.777018 
L 92.107681 264.011657 
L 96.637685 258.121031 
L 101.16769 260.156174 
L 105.697694 244.939919 
L 110.227698 231.566872 
L 114.757702 214.478516 
L 119.287706 188.921129 
L 123.817711 176.117016 
L 128.347715 159.783416 
L 132.877719 140.289105 
L 137.407723 117.102722 
L 141.937727 106.015921 
L 146.467732 109.821657 
L 150.997736 110.26564 
L 155.52774 105.227258 
L 160.057744 101.441584 
L 164.587748 102.040523 
L 169.117753 109.252344 
L 173.647757 92.707648 
L 178.177761 100.68615 
L 182.707765 128.466869 
L 187.237769 113.632006 
L 191.767773 109.889801 
L 196.297778 106.083806 
L 200.827782 96.505589 
L 205.357786 109.161989 
L 209.88779 91.630502 
L 214.417794 93.974927 
L 218.947799 89.447627 
L 223.477803 92.911508 
L 228.007807 88.28512 
L 232.537811 91.514257 
L 237.067815 82.519127 
L 241.59782 115.242269 
L 246.127824 151.629702 
L 250.657828 111.443227 
L 255.187832 101.666785 
L 259.717836 104.670656 
L 264.247841 83.614185 
L 268.777845 81.289648 
L 273.307849 104.872412 
L 277.837853 82.06674 
L 282.367857 93.114352 
L 286.897862 82.267171 
L 291.427866 81.494283 
L 295.95787 89.525935 
L 300.487874 90.176527 
L 305.017878 84.13108 
L 309.547883 86.551656 
L 314.077887 88.509026 
L 318.607891 82.520122 
L 323.137895 84.341981 
L 327.667899 82.316373 
L 332.197904 86.285003 
L 336.727908 88.479267 
L 341.257912 81.52499 
L 345.787916 87.751407 
L 350.31792 87.687287 
L 354.847924 84.000716 
L 359.377929 81.149917 
L 363.907933 85.889113 
L 368.437937 86.092037 
L 372.967941 94.962408 
L 377.497945 84.99055 
L 382.02795 86.619142 
L 386.557954 85.52626 
L 391.087958 93.842246 
L 395.617962 83.267555 
L 400.147966 83.094758 
L 404.677971 79.427616 
L 409.207975 82.799929 
L 413.737979 83.544729 
L 418.267983 90.905752 
L 422.797987 85.350452 
L 427.327992 86.934098 
L 431.857996 86.007817 
L 436.388 77.074057 
L 440.918004 77.811158 
L 445.448008 84.210809 
L 449.978013 85.515461 
L 454.508017 85.454499 
L 459.038021 90.155218 
L 463.568025 84.54572 
L 468.098029 82.156803 
L 472.628034 83.023829 
L 477.158038 89.275837 
L 481.688042 81.070471 
L 486.218046 106.063945 
L 490.74805 82.995351 
L 495.278055 87.762815 
L 499.808059 85.511338 
L 504.338063 165.73787 
L 508.868067 121.077322 
L 513.398071 157.925533 
L 517.928076 146.137836 
L 522.45808 114.984898 
" clip-path="url(#pb4583e01a8)" style="fill: none; stroke: #1ac938; stroke-opacity: 0.27; stroke-width: 1.25; stroke-linecap: round"/>
   </g>
   <g id="line2d_11">
    <path d="M 73.987664 280.949135 
L 78.517669 265.777154 
L 83.047673 275.614701 
L 87.577677 261.706391 
L 92.107681 266.755207 
L 96.637685 262.399514 
L 101.16769 243.725813 
L 105.697694 225.997554 
L 110.227698 200.819057 
L 114.757702 217.286115 
L 119.287706 207.891792 
L 123.817711 195.628284 
L 128.347715 170.846299 
L 132.877719 140.676174 
L 137.407723 124.090342 
L 141.937727 145.979074 
L 146.467732 140.823874 
L 150.997736 126.037076 
L 155.52774 120.366839 
L 160.057744 128.60224 
L 164.587748 113.057624 
L 169.117753 104.010122 
L 173.647757 103.394108 
L 178.177761 108.722104 
L 182.707765 105.561128 
L 187.237769 99.602834 
L 191.767773 103.317032 
L 196.297778 109.798451 
L 200.827782 105.431622 
L 205.357786 97.363068 
L 209.88779 89.471637 
L 214.417794 104.24371 
L 218.947799 90.033571 
L 223.477803 97.298815 
L 228.007807 96.158055 
L 232.537811 105.176272 
L 237.067815 89.336952 
L 241.59782 109.309432 
L 246.127824 84.806945 
L 250.657828 91.715822 
L 255.187832 92.68307 
L 259.717836 92.652173 
L 264.247841 91.306063 
L 268.777845 91.769826 
L 273.307849 90.924168 
L 277.837853 93.078763 
L 282.367857 84.087102 
L 286.897862 86.567045 
L 291.427866 95.724087 
L 295.95787 79.619062 
L 300.487874 96.892672 
L 305.017878 102.875277 
L 309.547883 89.023217 
L 314.077887 89.902813 
L 318.607891 84.72004 
L 323.137895 100.234947 
L 327.667899 106.181266 
L 332.197904 95.37576 
L 336.727908 91.664555 
L 341.257912 89.391859 
L 345.787916 86.524833 
L 350.31792 91.675688 
L 354.847924 84.563751 
L 359.377929 85.214327 
L 363.907933 87.412966 
L 368.437937 87.875586 
L 372.967941 88.440823 
L 377.497945 89.54737 
L 382.02795 94.684113 
L 386.557954 82.872652 
L 391.087958 86.199121 
L 395.617962 88.198785 
L 400.147966 85.230978 
L 404.677971 84.269508 
L 409.207975 90.484641 
L 413.737979 92.147407 
L 418.267983 88.342801 
L 422.797987 85.573681 
L 427.327992 92.103623 
L 431.857996 81.165595 
L 436.388 84.328938 
L 440.918004 90.567208 
L 445.448008 87.329573 
L 449.978013 87.800473 
L 454.508017 79.721089 
L 459.038021 82.944655 
L 463.568025 87.692814 
L 468.098029 86.185861 
L 472.628034 77.317312 
L 477.158038 86.884185 
L 481.688042 86.604784 
L 486.218046 83.691522 
L 490.74805 90.553348 
L 495.278055 81.988299 
L 499.808059 87.982709 
L 504.338063 77.189385 
L 508.868067 80.199511 
L 513.398071 87.808196 
L 517.928076 80.963659 
L 522.45808 94.465026 
" clip-path="url(#pb4583e01a8)" style="fill: none; stroke: #1ac938; stroke-opacity: 0.27; stroke-width: 1.25; stroke-linecap: round"/>
   </g>
   <g id="line2d_12">
    <path d="M 73.987664 266.616875 
L 78.517669 256.986013 
L 83.047673 283.779328 
L 87.577677 255.351949 
L 92.107681 245.05302 
L 96.637685 225.306822 
L 101.16769 229.500518 
L 105.697694 223.852764 
L 110.227698 217.61571 
L 114.757702 227.871103 
L 119.287706 187.442743 
L 123.817711 178.928423 
L 128.347715 150.506522 
L 132.877719 117.797599 
L 137.407723 109.930023 
L 141.937727 127.008029 
L 146.467732 97.579249 
L 150.997736 105.477026 
L 155.52774 91.71361 
L 160.057744 102.644607 
L 164.587748 94.195475 
L 169.117753 89.917812 
L 173.647757 91.91417 
L 178.177761 81.984247 
L 182.707765 93.688919 
L 187.237769 92.41603 
L 191.767773 85.08804 
L 196.297778 100.660325 
L 200.827782 91.13705 
L 205.357786 80.817584 
L 209.88779 81.763238 
L 214.417794 84.193032 
L 218.947799 79.369763 
L 223.477803 88.091378 
L 228.007807 85.092334 
L 232.537811 95.941876 
L 237.067815 84.206693 
L 241.59782 85.360323 
L 246.127824 84.501589 
L 250.657828 87.226906 
L 255.187832 87.602417 
L 259.717836 86.981015 
L 264.247841 108.547699 
L 268.777845 84.692569 
L 273.307849 83.316794 
L 277.837853 82.555685 
L 282.367857 90.531767 
L 286.897862 77.481479 
L 291.427866 80.524397 
L 295.95787 79.897885 
L 300.487874 85.258185 
L 305.017878 79.637031 
L 309.547883 81.933009 
L 314.077887 79.992717 
L 318.607891 80.19449 
L 323.137895 81.702256 
L 327.667899 82.049691 
L 332.197904 79.944032 
L 336.727908 82.389685 
L 341.257912 83.397288 
L 345.787916 101.734506 
L 350.31792 100.338787 
L 354.847924 87.831447 
L 359.377929 82.783992 
L 363.907933 83.770839 
L 368.437937 89.297113 
L 372.967941 78.148673 
L 377.497945 76.196392 
L 382.02795 78.959764 
L 386.557954 79.902744 
L 391.087958 159.176877 
L 395.617962 131.606275 
L 400.147966 91.451031 
L 404.677971 82.33214 
L 409.207975 83.724472 
L 413.737979 76.545376 
L 418.267983 80.983028 
L 422.797987 80.003934 
L 427.327992 77.677959 
L 431.857996 82.543586 
L 436.388 80.506028 
L 440.918004 78.473169 
L 445.448008 79.905082 
L 449.978013 81.086054 
L 454.508017 87.777957 
L 459.038021 83.920728 
L 463.568025 80.973678 
L 468.098029 80.085055 
L 472.628034 80.494485 
L 477.158038 80.191118 
L 481.688042 79.543629 
L 486.218046 82.270832 
L 490.74805 77.827946 
L 495.278055 75.772294 
L 499.808059 77.479348 
L 504.338063 78.580306 
L 508.868067 84.565288 
L 513.398071 78.508577 
L 517.928076 81.139749 
L 522.45808 79.830308 
" clip-path="url(#pb4583e01a8)" style="fill: none; stroke: #1ac938; stroke-opacity: 0.27; stroke-width: 1.25; stroke-linecap: round"/>
   </g>
   <g id="line2d_13">
    <path d="M 73.987664 281.136745 
L 78.517669 261.02158 
L 83.047673 279.307299 
L 87.577677 241.105112 
L 92.107681 257.738827 
L 96.637685 266.309657 
L 101.16769 240.082522 
L 105.697694 261.917842 
L 110.227698 248.611792 
L 114.757702 251.431498 
L 119.287706 248.914978 
L 123.817711 237.178865 
L 128.347715 258.327838 
L 132.877719 247.789101 
L 137.407723 251.136449 
L 141.937727 258.494759 
L 146.467732 236.503461 
L 150.997736 234.300645 
L 155.52774 237.630388 
L 160.057744 244.65547 
L 164.587748 233.204748 
L 169.117753 230.470842 
L 173.647757 234.514073 
L 178.177761 217.306646 
L 182.707765 203.639736 
L 187.237769 183.206172 
L 191.767773 148.46683 
L 196.297778 122.746832 
L 200.827782 103.603709 
L 205.357786 88.481188 
L 209.88779 96.280564 
L 214.417794 86.860149 
L 218.947799 145.028323 
L 223.477803 89.756902 
L 228.007807 89.52078 
L 232.537811 84.085598 
L 237.067815 82.599852 
L 241.59782 147.824463 
L 246.127824 88.4636 
L 250.657828 75.307286 
L 255.187832 113.317216 
L 259.717836 88.628917 
L 264.247841 78.70886 
L 268.777845 96.731944 
L 273.307849 85.363355 
L 277.837853 81.451771 
L 282.367857 79.940093 
L 286.897862 88.250255 
L 291.427866 78.735866 
L 295.95787 85.908497 
L 300.487874 82.722374 
L 305.017878 83.285704 
L 309.547883 87.661728 
L 314.077887 77.47076 
L 318.607891 82.831817 
L 323.137895 87.405384 
L 327.667899 86.910912 
L 332.197904 78.512084 
L 336.727908 82.616793 
L 341.257912 76.824592 
L 345.787916 81.060366 
L 350.31792 84.627228 
L 354.847924 86.580072 
L 359.377929 86.314535 
L 363.907933 89.247653 
L 368.437937 78.696141 
L 372.967941 80.117726 
L 377.497945 80.297127 
L 382.02795 82.966619 
L 386.557954 92.668902 
L 391.087958 79.047555 
L 395.617962 79.402532 
L 400.147966 79.717775 
L 404.677971 77.245662 
L 409.207975 74.377191 
L 413.737979 72.61636 
L 418.267983 82.363484 
L 422.797987 78.311552 
L 427.327992 72.790078 
L 431.857996 80.824494 
L 436.388 94.594254 
L 440.918004 80.087196 
L 445.448008 79.440663 
L 449.978013 83.773177 
L 454.508017 77.955698 
L 459.038021 83.625854 
L 463.568025 75.362289 
L 468.098029 87.115627 
L 472.628034 93.271541 
L 477.158038 96.022601 
L 481.688042 88.688416 
L 486.218046 84.190827 
L 490.74805 83.726702 
L 495.278055 86.678581 
L 499.808059 79.407766 
L 504.338063 79.357133 
L 508.868067 83.332429 
L 513.398071 78.314023 
L 517.928076 83.957045 
L 522.45808 82.52327 
" clip-path="url(#pb4583e01a8)" style="fill: none; stroke: #1ac938; stroke-opacity: 0.27; stroke-width: 1.25; stroke-linecap: round"/>
   </g>
   <g id="line2d_14">
    <path d="M 73.987664 53.23038 
L 78.517669 59.849304 
L 83.047673 74.141826 
L 87.577677 91.922579 
L 92.107681 105.279409 
L 96.637685 133.310842 
L 101.16769 169.799517 
L 105.697694 187.141634 
L 110.227698 212.186097 
L 114.757702 229.275669 
L 119.287706 247.785502 
L 123.817711 263.083366 
L 128.347715 261.557774 
L 132.877719 261.174025 
L 137.407723 257.471688 
L 141.937727 262.106773 
L 146.467732 264.910481 
L 150.997736 262.895835 
L 155.52774 266.925714 
L 160.057744 260.163028 
L 164.587748 257.367567 
L 169.117753 258.258669 
L 173.647757 258.07148 
L 178.177761 262.835131 
L 182.707765 263.702945 
L 187.237769 265.416433 
L 191.767773 262.304637 
L 196.297778 270.165595 
L 200.827782 264.663799 
L 205.357786 265.828343 
L 209.88779 269.096758 
L 214.417794 272.250587 
L 218.947799 279.083409 
L 223.477803 280.417823 
L 228.007807 282.672777 
L 232.537811 284.03409 
L 237.067815 281.471763 
L 241.59782 291.319647 
L 246.127824 294.435546 
L 250.657828 293.008985 
L 255.187832 294.981234 
L 259.717836 293.936417 
L 264.247841 294.216134 
L 268.777845 300.271563 
L 273.307849 302.016198 
L 277.837853 297.439555 
L 282.367857 298.910849 
L 286.897862 299.920555 
L 291.427866 300.117743 
L 295.95787 296.499263 
L 300.487874 303.113481 
L 305.017878 303.761429 
L 309.547883 303.617606 
L 314.077887 304.276964 
L 318.607891 303.778006 
L 323.137895 306.437221 
L 327.667899 309.759061 
L 332.197904 311.96879 
L 336.727908 309.215651 
L 341.257912 307.171824 
L 345.787916 310.866423 
L 350.31792 311.222321 
L 354.847924 308.855504 
L 359.377929 309.465503 
L 363.907933 305.083153 
L 368.437937 299.67265 
L 372.967941 297.530889 
L 377.497945 300.097222 
L 382.02795 307.386976 
L 386.557954 305.575106 
L 391.087958 319.325904 
L 395.617962 318.45357 
L 400.147966 315.950194 
L 404.677971 312.129146 
L 409.207975 314.418129 
L 413.737979 311.456375 
L 418.267983 315.133946 
L 422.797987 310.406553 
L 427.327992 310.972803 
L 431.857996 308.931186 
L 436.388 318.750076 
L 440.918004 317.957522 
L 445.448008 314.212214 
L 449.978013 312.313546 
L 454.508017 307.315726 
L 459.038021 311.508852 
L 463.568025 313.670106 
L 468.098029 319.962164 
L 472.628034 315.923691 
L 477.158038 316.198338 
L 481.688042 314.136241 
L 486.218046 318.350598 
L 490.74805 317.625799 
L 495.278055 316.168376 
L 499.808059 318.436402 
L 504.338063 319.843856 
L 508.868067 319.101426 
L 513.398071 320.098948 
L 517.928076 321.36962 
L 522.45808 318.942226 
" clip-path="url(#pb4583e01a8)" style="fill: none; stroke: #8b2be2; stroke-width: 1.5; stroke-linecap: round"/>
   </g>
   <g id="line2d_15">
    <path d="M 73.987664 269.56778 
L 78.517669 263.03141 
L 83.047673 269.724803 
L 87.577677 250.795876 
L 92.107681 259.214067 
L 96.637685 256.623284 
L 101.16769 249.782303 
L 105.697694 246.483532 
L 110.227698 231.05757 
L 114.757702 237.373657 
L 119.287706 217.478375 
L 123.817711 207.505323 
L 128.347715 196.027197 
L 132.877719 177.318435 
L 137.407723 165.075983 
L 141.937727 170.579733 
L 146.467732 157.807579 
L 150.997736 151.258705 
L 155.52774 151.770297 
L 160.057744 146.005129 
L 164.587748 138.115714 
L 169.117753 132.122744 
L 173.647757 127.094346 
L 178.177761 126.057442 
L 182.707765 129.435053 
L 187.237769 117.419251 
L 191.767773 111.236208 
L 196.297778 111.806747 
L 200.827782 100.418812 
L 205.357786 94.856573 
L 209.88779 92.384687 
L 214.417794 92.026385 
L 218.947799 97.574589 
L 223.477803 90.689767 
L 228.007807 89.878948 
L 232.537811 94.12873 
L 237.067815 86.175135 
L 241.59782 107.897478 
L 246.127824 98.281496 
L 250.657828 90.640963 
L 255.187832 97.697152 
L 259.717836 92.818314 
L 264.247841 90.21955 
L 268.777845 87.440683 
L 273.307849 90.688431 
L 277.837853 87.411089 
L 282.367857 88.038565 
L 286.897862 83.42183 
L 291.427866 84.617596 
L 295.95787 83.814454 
L 300.487874 86.093313 
L 305.017878 86.316099 
L 309.547883 85.168562 
L 314.077887 84.092956 
L 318.607891 83.848893 
L 323.137895 93.520714 
L 327.667899 103.404299 
L 332.197904 103.289499 
L 336.727908 99.629519 
L 341.257912 94.219965 
L 345.787916 91.246305 
L 350.31792 100.744186 
L 354.847924 92.367637 
L 359.377929 93.011988 
L 363.907933 92.993651 
L 368.437937 95.862959 
L 372.967941 93.74344 
L 377.497945 84.613962 
L 382.02795 86.631666 
L 386.557954 93.81702 
L 391.087958 100.422538 
L 395.617962 92.906201 
L 400.147966 85.068521 
L 404.677971 80.783054 
L 409.207975 82.024329 
L 413.737979 80.99495 
L 418.267983 84.237999 
L 422.797987 80.535454 
L 427.327992 82.094404 
L 431.857996 81.695744 
L 436.388 110.62318 
L 440.918004 97.83332 
L 445.448008 99.540826 
L 449.978013 101.306183 
L 454.508017 90.050174 
L 459.038021 101.769017 
L 463.568025 103.564181 
L 468.098029 99.046778 
L 472.628034 105.85347 
L 477.158038 101.489535 
L 481.688042 102.319447 
L 486.218046 97.444959 
L 490.74805 100.359336 
L 495.278055 90.69334 
L 499.808059 90.310315 
L 504.338063 96.158832 
L 508.868067 90.182943 
L 513.398071 95.774425 
L 517.928076 93.953142 
L 522.45808 90.78296 
" clip-path="url(#pb4583e01a8)" style="fill: none; stroke: #023eff; stroke-width: 2; stroke-linecap: round"/>
   </g>
   <g id="line2d_16">
    <path d="M 65.14 88.982278 
L 529.2 88.982278 
" clip-path="url(#pb4583e01a8)" style="fill: none; stroke-dasharray: 1.25,2.0625; stroke-dashoffset: 0; stroke: #000000; stroke-opacity: 0.6; stroke-width: 1.25"/>
   </g>
   <g id="patch_3">
    <path d="M 65.14 328.52 
L 65.14 46.08 
" style="fill: none; stroke: #ffffff; stroke-width: 0.8; stroke-linejoin: miter; stroke-linecap: square"/>
   </g>
   <g id="patch_4">
    <path d="M 529.2 328.52 
L 529.2 46.08 
" style="fill: none; stroke: #ffffff; stroke-width: 0.8; stroke-linejoin: miter; stroke-linecap: square"/>
   </g>
   <g id="patch_5">
    <path d="M 65.14 328.52 
L 529.2 328.52 
" style="fill: none; stroke: #ffffff; stroke-width: 0.8; stroke-linejoin: miter; stroke-linecap: square"/>
   </g>
   <g id="patch_6">
    <path d="M 65.14 46.08 
L 529.2 46.08 
" style="fill: none; stroke: #ffffff; stroke-width: 0.8; stroke-linejoin: miter; stroke-linecap: square"/>
   </g>
  </g>
  <g id="text_9">
   <!-- CMU-Net | AP -->
   <g style="fill: #262626" transform="translate(179.788125 25.54125) scale(0.24 -0.24)">
    <defs>
     <path id="DejaVuSans-Bold-43" d="M 4288 256 
Q 3956 84 3597 -3 
Q 3238 -91 2847 -91 
Q 1681 -91 1000 561 
Q 319 1213 319 2328 
Q 319 3447 1000 4098 
Q 1681 4750 2847 4750 
Q 3238 4750 3597 4662 
Q 3956 4575 4288 4403 
L 4288 3438 
Q 3953 3666 3628 3772 
Q 3303 3878 2944 3878 
Q 2300 3878 1931 3465 
Q 1563 3053 1563 2328 
Q 1563 1606 1931 1193 
Q 2300 781 2944 781 
Q 3303 781 3628 887 
Q 3953 994 4288 1222 
L 4288 256 
z
" transform="scale(0.015625)"/>
     <path id="DejaVuSans-Bold-4d" d="M 588 4666 
L 2119 4666 
L 3181 2169 
L 4250 4666 
L 5778 4666 
L 5778 0 
L 4641 0 
L 4641 3413 
L 3566 897 
L 2803 897 
L 1728 3413 
L 1728 0 
L 588 0 
L 588 4666 
z
" transform="scale(0.015625)"/>
     <path id="DejaVuSans-Bold-55" d="M 588 4666 
L 1791 4666 
L 1791 1869 
Q 1791 1291 1980 1042 
Q 2169 794 2597 794 
Q 3028 794 3217 1042 
Q 3406 1291 3406 1869 
L 3406 4666 
L 4609 4666 
L 4609 1869 
Q 4609 878 4112 393 
Q 3616 -91 2597 -91 
Q 1581 -91 1084 393 
Q 588 878 588 1869 
L 588 4666 
z
" transform="scale(0.015625)"/>
     <path id="DejaVuSans-Bold-2d" d="M 347 2297 
L 2309 2297 
L 2309 1388 
L 347 1388 
L 347 2297 
z
" transform="scale(0.015625)"/>
     <path id="DejaVuSans-Bold-4e" d="M 588 4666 
L 1931 4666 
L 3628 1466 
L 3628 4666 
L 4769 4666 
L 4769 0 
L 3425 0 
L 1728 3200 
L 1728 0 
L 588 0 
L 588 4666 
z
" transform="scale(0.015625)"/>
     <path id="DejaVuSans-Bold-65" d="M 4031 1759 
L 4031 1441 
L 1416 1441 
Q 1456 1047 1700 850 
Q 1944 653 2381 653 
Q 2734 653 3104 758 
Q 3475 863 3866 1075 
L 3866 213 
Q 3469 63 3072 -14 
Q 2675 -91 2278 -91 
Q 1328 -91 801 392 
Q 275 875 275 1747 
Q 275 2603 792 3093 
Q 1309 3584 2216 3584 
Q 3041 3584 3536 3087 
Q 4031 2591 4031 1759 
z
M 2881 2131 
Q 2881 2450 2695 2645 
Q 2509 2841 2209 2841 
Q 1884 2841 1681 2658 
Q 1478 2475 1428 2131 
L 2881 2131 
z
" transform="scale(0.015625)"/>
     <path id="DejaVuSans-Bold-74" d="M 1759 4494 
L 1759 3500 
L 2913 3500 
L 2913 2700 
L 1759 2700 
L 1759 1216 
Q 1759 972 1856 886 
Q 1953 800 2241 800 
L 2816 800 
L 2816 0 
L 1856 0 
Q 1194 0 917 276 
Q 641 553 641 1216 
L 641 2700 
L 84 2700 
L 84 3500 
L 641 3500 
L 641 4494 
L 1759 4494 
z
" transform="scale(0.015625)"/>
     <path id="DejaVuSans-Bold-20" transform="scale(0.015625)"/>
     <path id="DejaVuSans-Bold-7c" d="M 1522 4891 
L 1522 -1509 
L 813 -1509 
L 813 4891 
L 1522 4891 
z
" transform="scale(0.015625)"/>
     <path id="DejaVuSans-Bold-41" d="M 3419 850 
L 1538 850 
L 1241 0 
L 31 0 
L 1759 4666 
L 3194 4666 
L 4922 0 
L 3713 0 
L 3419 850 
z
M 1838 1716 
L 3116 1716 
L 2478 3572 
L 1838 1716 
z
" transform="scale(0.015625)"/>
     <path id="DejaVuSans-Bold-50" d="M 588 4666 
L 2584 4666 
Q 3475 4666 3951 4270 
Q 4428 3875 4428 3144 
Q 4428 2409 3951 2014 
Q 3475 1619 2584 1619 
L 1791 1619 
L 1791 0 
L 588 0 
L 588 4666 
z
M 1791 3794 
L 1791 2491 
L 2456 2491 
Q 2806 2491 2997 2661 
Q 3188 2831 3188 3144 
Q 3188 3456 2997 3625 
Q 2806 3794 2456 3794 
L 1791 3794 
z
" transform="scale(0.015625)"/>
    </defs>
    <use xlink:href="#DejaVuSans-Bold-43"/>
    <use xlink:href="#DejaVuSans-Bold-4d" transform="translate(73.388672 0)"/>
    <use xlink:href="#DejaVuSans-Bold-55" transform="translate(172.900391 0)"/>
    <use xlink:href="#DejaVuSans-Bold-2d" transform="translate(254.101562 0)"/>
    <use xlink:href="#DejaVuSans-Bold-4e" transform="translate(295.605469 0)"/>
    <use xlink:href="#DejaVuSans-Bold-65" transform="translate(379.296875 0)"/>
    <use xlink:href="#DejaVuSans-Bold-74" transform="translate(447.119141 0)"/>
    <use xlink:href="#DejaVuSans-Bold-20" transform="translate(494.921875 0)"/>
    <use xlink:href="#DejaVuSans-Bold-7c" transform="translate(529.736328 0)"/>
    <use xlink:href="#DejaVuSans-Bold-20" transform="translate(566.259766 0)"/>
    <use xlink:href="#DejaVuSans-Bold-41" transform="translate(601.074219 0)"/>
    <use xlink:href="#DejaVuSans-Bold-50" transform="translate(678.466797 0)"/>
   </g>
  </g>
 </g>
 <defs>
  <clipPath id="pb4583e01a8">
   <rect x="65.14" y="46.08" width="464.06" height="282.44"/>
  </clipPath>
 </defs>
</svg>
