<?xml version="1.0" encoding="utf-8" standalone="no"?>
<!DOCTYPE svg PUBLIC "-//W3C//DTD SVG 1.1//EN"
  "http://www.w3.org/Graphics/SVG/1.1/DTD/svg11.dtd">
<svg xmlns:xlink="http://www.w3.org/1999/xlink" width="540pt" height="360pt" viewBox="0 0 540 360" xmlns="http://www.w3.org/2000/svg" version="1.1">
 <metadata>
  <rdf:RDF xmlns:dc="http://purl.org/dc/elements/1.1/" xmlns:cc="http://creativecommons.org/ns#" xmlns:rdf="http://www.w3.org/1999/02/22-rdf-syntax-ns#">
   <cc:Work>
    <dc:type rdf:resource="http://purl.org/dc/dcmitype/StillImage"/>
    <dc:date>2025-08-04T02:53:06.035477</dc:date>
    <dc:format>image/svg+xml</dc:format>
    <dc:creator>
     <cc:Agent>
      <dc:title>Matplotlib v3.10.0, https://matplotlib.org/</dc:title>
     </cc:Agent>
    </dc:creator>
   </cc:Work>
  </rdf:RDF>
 </metadata>
 <defs>
  <style type="text/css">*{stroke-linejoin: round; stroke-linecap: butt}</style>
 </defs>
 <g id="figure_1">
  <g id="patch_1">
   <path d="M 0 360 
L 540 360 
L 540 0 
L 0 0 
z
" style="fill: #ffffff"/>
  </g>
  <g id="axes_1">
   <g id="patch_2">
    <path d="M 47.5 328.52 
L 529.2 328.52 
L 529.2 46.08 
L 47.5 46.08 
z
" style="fill: #eaeaf2"/>
   </g>
   <g id="matplotlib.axis_1">
    <g id="xtick_1">
     <g id="line2d_1">
      <path d="M 56.640417 328.52 
L 56.640417 46.08 
" clip-path="url(#p90e4fa29e5)" style="fill: none; stroke: #ffffff; stroke-width: 0.8; stroke-linecap: round"/>
     </g>
     <g id="text_1">
      <!-- 0 -->
      <g style="fill: #262626" transform="translate(52.186667 346.157812) scale(0.14 -0.14)">
       <defs>
        <path id="DejaVuSans-30" d="M 2034 4250 
Q 1547 4250 1301 3770 
Q 1056 3291 1056 2328 
Q 1056 1369 1301 889 
Q 1547 409 2034 409 
Q 2525 409 2770 889 
Q 3016 1369 3016 2328 
Q 3016 3291 2770 3770 
Q 2525 4250 2034 4250 
z
M 2034 4750 
Q 2819 4750 3233 4129 
Q 3647 3509 3647 2328 
Q 3647 1150 3233 529 
Q 2819 -91 2034 -91 
Q 1250 -91 836 529 
Q 422 1150 422 2328 
Q 422 3509 836 4129 
Q 1250 4750 2034 4750 
z
" transform="scale(0.015625)"/>
       </defs>
       <use xlink:href="#DejaVuSans-30"/>
      </g>
     </g>
    </g>
    <g id="xtick_2">
     <g id="line2d_2">
      <path d="M 513.66129 328.52 
L 513.66129 46.08 
" clip-path="url(#p90e4fa29e5)" style="fill: none; stroke: #ffffff; stroke-width: 0.8; stroke-linecap: round"/>
     </g>
     <g id="text_2">
      <!-- 1M -->
      <g style="fill: #262626" transform="translate(503.167853 346.157812) scale(0.14 -0.14)">
       <defs>
        <path id="DejaVuSans-31" d="M 794 531 
L 1825 531 
L 1825 4091 
L 703 3866 
L 703 4441 
L 1819 4666 
L 2450 4666 
L 2450 531 
L 3481 531 
L 3481 0 
L 794 0 
L 794 531 
z
" transform="scale(0.015625)"/>
        <path id="DejaVuSans-4d" d="M 628 4666 
L 1569 4666 
L 2759 1491 
L 3956 4666 
L 4897 4666 
L 4897 0 
L 4281 0 
L 4281 4097 
L 3078 897 
L 2444 897 
L 1241 4097 
L 1241 0 
L 628 0 
L 628 4666 
z
" transform="scale(0.015625)"/>
       </defs>
       <use xlink:href="#DejaVuSans-31"/>
       <use xlink:href="#DejaVuSans-4d" transform="translate(63.623047 0)"/>
      </g>
     </g>
    </g>
   </g>
   <g id="matplotlib.axis_2">
    <g id="ytick_1">
     <g id="line2d_3">
      <path d="M 47.5 320.526415 
L 529.2 320.526415 
" clip-path="url(#p90e4fa29e5)" style="fill: none; stroke: #ffffff; stroke-width: 0.8; stroke-linecap: round"/>
     </g>
     <g id="text_3">
      <!-- −21 -->
      <g style="fill: #262626" transform="translate(10.953438 325.845321) scale(0.14 -0.14)">
       <defs>
        <path id="DejaVuSans-2212" d="M 678 2272 
L 4684 2272 
L 4684 1741 
L 678 1741 
L 678 2272 
z
" transform="scale(0.015625)"/>
        <path id="DejaVuSans-32" d="M 1228 531 
L 3431 531 
L 3431 0 
L 469 0 
L 469 531 
Q 828 903 1448 1529 
Q 2069 2156 2228 2338 
Q 2531 2678 2651 2914 
Q 2772 3150 2772 3378 
Q 2772 3750 2511 3984 
Q 2250 4219 1831 4219 
Q 1534 4219 1204 4116 
Q 875 4013 500 3803 
L 500 4441 
Q 881 4594 1212 4672 
Q 1544 4750 1819 4750 
Q 2544 4750 2975 4387 
Q 3406 4025 3406 3419 
Q 3406 3131 3298 2873 
Q 3191 2616 2906 2266 
Q 2828 2175 2409 1742 
Q 1991 1309 1228 531 
z
" transform="scale(0.015625)"/>
       </defs>
       <use xlink:href="#DejaVuSans-2212"/>
       <use xlink:href="#DejaVuSans-32" transform="translate(83.789062 0)"/>
       <use xlink:href="#DejaVuSans-31" transform="translate(147.412109 0)"/>
      </g>
     </g>
    </g>
    <g id="ytick_2">
     <g id="line2d_4">
      <path d="M 47.5 301.49407 
L 529.2 301.49407 
" clip-path="url(#p90e4fa29e5)" style="fill: none; stroke: #ffffff; stroke-width: 0.8; stroke-linecap: round"/>
     </g>
     <g id="text_4">
      <!-- −18 -->
      <g style="fill: #262626" transform="translate(10.953438 306.812976) scale(0.14 -0.14)">
       <defs>
        <path id="DejaVuSans-38" d="M 2034 2216 
Q 1584 2216 1326 1975 
Q 1069 1734 1069 1313 
Q 1069 891 1326 650 
Q 1584 409 2034 409 
Q 2484 409 2743 651 
Q 3003 894 3003 1313 
Q 3003 1734 2745 1975 
Q 2488 2216 2034 2216 
z
M 1403 2484 
Q 997 2584 770 2862 
Q 544 3141 544 3541 
Q 544 4100 942 4425 
Q 1341 4750 2034 4750 
Q 2731 4750 3128 4425 
Q 3525 4100 3525 3541 
Q 3525 3141 3298 2862 
Q 3072 2584 2669 2484 
Q 3125 2378 3379 2068 
Q 3634 1759 3634 1313 
Q 3634 634 3220 271 
Q 2806 -91 2034 -91 
Q 1263 -91 848 271 
Q 434 634 434 1313 
Q 434 1759 690 2068 
Q 947 2378 1403 2484 
z
M 1172 3481 
Q 1172 3119 1398 2916 
Q 1625 2713 2034 2713 
Q 2441 2713 2670 2916 
Q 2900 3119 2900 3481 
Q 2900 3844 2670 4047 
Q 2441 4250 2034 4250 
Q 1625 4250 1398 4047 
Q 1172 3844 1172 3481 
z
" transform="scale(0.015625)"/>
       </defs>
       <use xlink:href="#DejaVuSans-2212"/>
       <use xlink:href="#DejaVuSans-31" transform="translate(83.789062 0)"/>
       <use xlink:href="#DejaVuSans-38" transform="translate(147.412109 0)"/>
      </g>
     </g>
    </g>
    <g id="ytick_3">
     <g id="line2d_5">
      <path d="M 47.5 282.461725 
L 529.2 282.461725 
" clip-path="url(#p90e4fa29e5)" style="fill: none; stroke: #ffffff; stroke-width: 0.8; stroke-linecap: round"/>
     </g>
     <g id="text_5">
      <!-- −15 -->
      <g style="fill: #262626" transform="translate(10.953438 287.780631) scale(0.14 -0.14)">
       <defs>
        <path id="DejaVuSans-35" d="M 691 4666 
L 3169 4666 
L 3169 4134 
L 1269 4134 
L 1269 2991 
Q 1406 3038 1543 3061 
Q 1681 3084 1819 3084 
Q 2600 3084 3056 2656 
Q 3513 2228 3513 1497 
Q 3513 744 3044 326 
Q 2575 -91 1722 -91 
Q 1428 -91 1123 -41 
Q 819 9 494 109 
L 494 744 
Q 775 591 1075 516 
Q 1375 441 1709 441 
Q 2250 441 2565 725 
Q 2881 1009 2881 1497 
Q 2881 1984 2565 2268 
Q 2250 2553 1709 2553 
Q 1456 2553 1204 2497 
Q 953 2441 691 2322 
L 691 4666 
z
" transform="scale(0.015625)"/>
       </defs>
       <use xlink:href="#DejaVuSans-2212"/>
       <use xlink:href="#DejaVuSans-31" transform="translate(83.789062 0)"/>
       <use xlink:href="#DejaVuSans-35" transform="translate(147.412109 0)"/>
      </g>
     </g>
    </g>
    <g id="ytick_4">
     <g id="line2d_6">
      <path d="M 47.5 263.42938 
L 529.2 263.42938 
" clip-path="url(#p90e4fa29e5)" style="fill: none; stroke: #ffffff; stroke-width: 0.8; stroke-linecap: round"/>
     </g>
     <g id="text_6">
      <!-- −12 -->
      <g style="fill: #262626" transform="translate(10.953438 268.748286) scale(0.14 -0.14)">
       <use xlink:href="#DejaVuSans-2212"/>
       <use xlink:href="#DejaVuSans-31" transform="translate(83.789062 0)"/>
       <use xlink:href="#DejaVuSans-32" transform="translate(147.412109 0)"/>
      </g>
     </g>
    </g>
    <g id="ytick_5">
     <g id="line2d_7">
      <path d="M 47.5 244.397035 
L 529.2 244.397035 
" clip-path="url(#p90e4fa29e5)" style="fill: none; stroke: #ffffff; stroke-width: 0.8; stroke-linecap: round"/>
     </g>
     <g id="text_7">
      <!-- −9 -->
      <g style="fill: #262626" transform="translate(19.860938 249.715941) scale(0.14 -0.14)">
       <defs>
        <path id="DejaVuSans-39" d="M 703 97 
L 703 672 
Q 941 559 1184 500 
Q 1428 441 1663 441 
Q 2288 441 2617 861 
Q 2947 1281 2994 2138 
Q 2813 1869 2534 1725 
Q 2256 1581 1919 1581 
Q 1219 1581 811 2004 
Q 403 2428 403 3163 
Q 403 3881 828 4315 
Q 1253 4750 1959 4750 
Q 2769 4750 3195 4129 
Q 3622 3509 3622 2328 
Q 3622 1225 3098 567 
Q 2575 -91 1691 -91 
Q 1453 -91 1209 -44 
Q 966 3 703 97 
z
M 1959 2075 
Q 2384 2075 2632 2365 
Q 2881 2656 2881 3163 
Q 2881 3666 2632 3958 
Q 2384 4250 1959 4250 
Q 1534 4250 1286 3958 
Q 1038 3666 1038 3163 
Q 1038 2656 1286 2365 
Q 1534 2075 1959 2075 
z
" transform="scale(0.015625)"/>
       </defs>
       <use xlink:href="#DejaVuSans-2212"/>
       <use xlink:href="#DejaVuSans-39" transform="translate(83.789062 0)"/>
      </g>
     </g>
    </g>
    <g id="ytick_6">
     <g id="line2d_8">
      <path d="M 47.5 225.36469 
L 529.2 225.36469 
" clip-path="url(#p90e4fa29e5)" style="fill: none; stroke: #ffffff; stroke-width: 0.8; stroke-linecap: round"/>
     </g>
     <g id="text_8">
      <!-- −6 -->
      <g style="fill: #262626" transform="translate(19.860938 230.683596) scale(0.14 -0.14)">
       <defs>
        <path id="DejaVuSans-36" d="M 2113 2584 
Q 1688 2584 1439 2293 
Q 1191 2003 1191 1497 
Q 1191 994 1439 701 
Q 1688 409 2113 409 
Q 2538 409 2786 701 
Q 3034 994 3034 1497 
Q 3034 2003 2786 2293 
Q 2538 2584 2113 2584 
z
M 3366 4563 
L 3366 3988 
Q 3128 4100 2886 4159 
Q 2644 4219 2406 4219 
Q 1781 4219 1451 3797 
Q 1122 3375 1075 2522 
Q 1259 2794 1537 2939 
Q 1816 3084 2150 3084 
Q 2853 3084 3261 2657 
Q 3669 2231 3669 1497 
Q 3669 778 3244 343 
Q 2819 -91 2113 -91 
Q 1303 -91 875 529 
Q 447 1150 447 2328 
Q 447 3434 972 4092 
Q 1497 4750 2381 4750 
Q 2619 4750 2861 4703 
Q 3103 4656 3366 4563 
z
" transform="scale(0.015625)"/>
       </defs>
       <use xlink:href="#DejaVuSans-2212"/>
       <use xlink:href="#DejaVuSans-36" transform="translate(83.789062 0)"/>
      </g>
     </g>
    </g>
    <g id="ytick_7">
     <g id="line2d_9">
      <path d="M 47.5 206.332345 
L 529.2 206.332345 
" clip-path="url(#p90e4fa29e5)" style="fill: none; stroke: #ffffff; stroke-width: 0.8; stroke-linecap: round"/>
     </g>
     <g id="text_9">
      <!-- −3 -->
      <g style="fill: #262626" transform="translate(19.860938 211.651251) scale(0.14 -0.14)">
       <defs>
        <path id="DejaVuSans-33" d="M 2597 2516 
Q 3050 2419 3304 2112 
Q 3559 1806 3559 1356 
Q 3559 666 3084 287 
Q 2609 -91 1734 -91 
Q 1441 -91 1130 -33 
Q 819 25 488 141 
L 488 750 
Q 750 597 1062 519 
Q 1375 441 1716 441 
Q 2309 441 2620 675 
Q 2931 909 2931 1356 
Q 2931 1769 2642 2001 
Q 2353 2234 1838 2234 
L 1294 2234 
L 1294 2753 
L 1863 2753 
Q 2328 2753 2575 2939 
Q 2822 3125 2822 3475 
Q 2822 3834 2567 4026 
Q 2313 4219 1838 4219 
Q 1578 4219 1281 4162 
Q 984 4106 628 3988 
L 628 4550 
Q 988 4650 1302 4700 
Q 1616 4750 1894 4750 
Q 2613 4750 3031 4423 
Q 3450 4097 3450 3541 
Q 3450 3153 3228 2886 
Q 3006 2619 2597 2516 
z
" transform="scale(0.015625)"/>
       </defs>
       <use xlink:href="#DejaVuSans-2212"/>
       <use xlink:href="#DejaVuSans-33" transform="translate(83.789062 0)"/>
      </g>
     </g>
    </g>
    <g id="ytick_8">
     <g id="line2d_10">
      <path d="M 47.5 187.3 
L 529.2 187.3 
" clip-path="url(#p90e4fa29e5)" style="fill: none; stroke: #ffffff; stroke-width: 0.8; stroke-linecap: round"/>
     </g>
     <g id="text_10">
      <!-- 0 -->
      <g style="fill: #262626" transform="translate(31.5925 192.618906) scale(0.14 -0.14)">
       <use xlink:href="#DejaVuSans-30"/>
      </g>
     </g>
    </g>
    <g id="ytick_9">
     <g id="line2d_11">
      <path d="M 47.5 168.267655 
L 529.2 168.267655 
" clip-path="url(#p90e4fa29e5)" style="fill: none; stroke: #ffffff; stroke-width: 0.8; stroke-linecap: round"/>
     </g>
     <g id="text_11">
      <!-- 3 -->
      <g style="fill: #262626" transform="translate(31.5925 173.586561) scale(0.14 -0.14)">
       <use xlink:href="#DejaVuSans-33"/>
      </g>
     </g>
    </g>
    <g id="ytick_10">
     <g id="line2d_12">
      <path d="M 47.5 149.23531 
L 529.2 149.23531 
" clip-path="url(#p90e4fa29e5)" style="fill: none; stroke: #ffffff; stroke-width: 0.8; stroke-linecap: round"/>
     </g>
     <g id="text_12">
      <!-- 6 -->
      <g style="fill: #262626" transform="translate(31.5925 154.554216) scale(0.14 -0.14)">
       <use xlink:href="#DejaVuSans-36"/>
      </g>
     </g>
    </g>
    <g id="ytick_11">
     <g id="line2d_13">
      <path d="M 47.5 130.202965 
L 529.2 130.202965 
" clip-path="url(#p90e4fa29e5)" style="fill: none; stroke: #ffffff; stroke-width: 0.8; stroke-linecap: round"/>
     </g>
     <g id="text_13">
      <!-- 9 -->
      <g style="fill: #262626" transform="translate(31.5925 135.521871) scale(0.14 -0.14)">
       <use xlink:href="#DejaVuSans-39"/>
      </g>
     </g>
    </g>
    <g id="ytick_12">
     <g id="line2d_14">
      <path d="M 47.5 111.17062 
L 529.2 111.17062 
" clip-path="url(#p90e4fa29e5)" style="fill: none; stroke: #ffffff; stroke-width: 0.8; stroke-linecap: round"/>
     </g>
     <g id="text_14">
      <!-- 12 -->
      <g style="fill: #262626" transform="translate(22.685 116.489526) scale(0.14 -0.14)">
       <use xlink:href="#DejaVuSans-31"/>
       <use xlink:href="#DejaVuSans-32" transform="translate(63.623047 0)"/>
      </g>
     </g>
    </g>
    <g id="ytick_13">
     <g id="line2d_15">
      <path d="M 47.5 92.138275 
L 529.2 92.138275 
" clip-path="url(#p90e4fa29e5)" style="fill: none; stroke: #ffffff; stroke-width: 0.8; stroke-linecap: round"/>
     </g>
     <g id="text_15">
      <!-- 15 -->
      <g style="fill: #262626" transform="translate(22.685 97.457181) scale(0.14 -0.14)">
       <use xlink:href="#DejaVuSans-31"/>
       <use xlink:href="#DejaVuSans-35" transform="translate(63.623047 0)"/>
      </g>
     </g>
    </g>
    <g id="ytick_14">
     <g id="line2d_16">
      <path d="M 47.5 73.10593 
L 529.2 73.10593 
" clip-path="url(#p90e4fa29e5)" style="fill: none; stroke: #ffffff; stroke-width: 0.8; stroke-linecap: round"/>
     </g>
     <g id="text_16">
      <!-- 18 -->
      <g style="fill: #262626" transform="translate(22.685 78.424836) scale(0.14 -0.14)">
       <use xlink:href="#DejaVuSans-31"/>
       <use xlink:href="#DejaVuSans-38" transform="translate(63.623047 0)"/>
      </g>
     </g>
    </g>
    <g id="ytick_15">
     <g id="line2d_17">
      <path d="M 47.5 54.073585 
L 529.2 54.073585 
" clip-path="url(#p90e4fa29e5)" style="fill: none; stroke: #ffffff; stroke-width: 0.8; stroke-linecap: round"/>
     </g>
     <g id="text_17">
      <!-- 21 -->
      <g style="fill: #262626" transform="translate(22.685 59.392491) scale(0.14 -0.14)">
       <use xlink:href="#DejaVuSans-32"/>
       <use xlink:href="#DejaVuSans-31" transform="translate(63.623047 0)"/>
      </g>
     </g>
    </g>
   </g>
   <g id="FillBetweenPolyCollection_1">
    <path d="M 56.640417 315.182234 
L 56.640417 318.257658 
L 61.320311 317.568229 
L 66.000205 317.582047 
L 70.680099 316.421568 
L 75.359992 312.48139 
L 80.039886 314.635873 
L 84.71978 313.342479 
L 89.399674 307.521567 
L 94.079567 298.636872 
L 98.759461 296.947426 
L 103.439355 296.780434 
L 108.119249 290.530045 
L 112.799142 276.104051 
L 117.479036 266.43231 
L 122.15893 256.97243 
L 126.838824 265.072813 
L 131.518717 232.963155 
L 136.198611 228.267511 
L 140.878505 213.716308 
L 145.558398 208.597428 
L 150.238292 161.674339 
L 154.918186 134.612615 
L 159.59808 116.297514 
L 164.277973 116.530704 
L 168.957867 122.784862 
L 173.637761 108.272637 
L 178.317655 93.464813 
L 182.997548 91.904907 
L 187.677442 106.81907 
L 192.357336 108.385198 
L 197.03723 101.420283 
L 201.717123 109.608432 
L 206.397017 100.599854 
L 211.076911 94.866222 
L 215.756805 98.725524 
L 220.436698 98.158156 
L 225.116592 95.637936 
L 229.796486 99.539281 
L 234.47638 95.231998 
L 239.156273 86.577047 
L 243.836167 110.033666 
L 248.516061 95.492531 
L 253.195954 80.831862 
L 257.875848 98.420037 
L 262.555742 70.128337 
L 267.235636 75.579571 
L 271.915529 85.591086 
L 276.595423 72.890023 
L 281.275317 68.267968 
L 285.955211 120.96782 
L 290.635104 70.789357 
L 295.314998 66.448055 
L 299.994892 67.311596 
L 304.674786 66.189281 
L 309.354679 86.000265 
L 314.034573 94.358715 
L 318.714467 102.720681 
L 323.394361 100.957915 
L 328.074254 96.802461 
L 332.754148 80.653361 
L 337.434042 106.393925 
L 342.113935 82.391556 
L 346.793829 123.483956 
L 351.473723 130.029236 
L 356.153617 127.369915 
L 360.83351 94.914905 
L 365.513404 89.966359 
L 370.193298 84.906899 
L 374.873192 81.769262 
L 379.553085 96.45886 
L 384.232979 151.745888 
L 388.912873 150.064736 
L 393.592767 149.86475 
L 398.27266 133.587157 
L 402.952554 100.124151 
L 407.632448 84.688027 
L 412.312342 84.406757 
L 416.992235 91.882959 
L 421.672129 80.889801 
L 426.352023 97.625339 
L 431.031917 63.372271 
L 435.71181 63.706559 
L 440.391704 66.902077 
L 445.071598 69.061028 
L 449.751491 90.943581 
L 454.431385 91.506856 
L 459.111279 83.123747 
L 463.791173 94.620798 
L 468.471066 119.379044 
L 473.15096 93.131582 
L 477.830854 71.011128 
L 482.510748 70.753264 
L 487.190641 62.016224 
L 491.870535 63.679129 
L 496.550429 85.422532 
L 501.230323 84.467629 
L 505.910216 83.916859 
L 510.59011 79.074178 
L 515.270004 70.582434 
L 519.949898 60.69259 
L 519.949898 55.384723 
L 519.949898 55.384723 
L 515.270004 52.790612 
L 510.59011 52.546217 
L 505.910216 48.972359 
L 501.230323 54.448499 
L 496.550429 51.273156 
L 491.870535 54.301419 
L 487.190641 55.964324 
L 482.510748 58.329485 
L 477.830854 58.071621 
L 473.15096 56.886747 
L 468.471066 52.209276 
L 463.791173 63.644881 
L 459.111279 53.889146 
L 454.431385 57.877062 
L 449.751491 50.827398 
L 445.071598 57.16687 
L 440.391704 58.691409 
L 435.71181 57.128841 
L 431.031917 58.731951 
L 426.352023 48.58652 
L 421.672129 52.316623 
L 416.992235 56.866547 
L 412.312342 54.826577 
L 407.632448 53.910895 
L 402.952554 57.18991 
L 398.27266 49.42057 
L 393.592767 43.610767 
L 388.912873 40.873135 
L 384.232979 44.901686 
L 379.553085 48.484177 
L 374.873192 53.657602 
L 370.193298 50.837171 
L 365.513404 60.369176 
L 360.83351 54.151806 
L 356.153617 51.196932 
L 351.473723 61.860252 
L 346.793829 51.593627 
L 342.113935 55.89016 
L 337.434042 55.04381 
L 332.754148 51.918652 
L 328.074254 48.140576 
L 323.394361 54.452912 
L 318.714467 50.1525 
L 314.034573 47.412264 
L 309.354679 57.356743 
L 304.674786 57.183765 
L 299.994892 56.695861 
L 295.314998 59.145431 
L 290.635104 61.46545 
L 285.955211 41.738739 
L 281.275317 57.325519 
L 276.595423 57.144344 
L 271.915529 53.959453 
L 267.235636 59.530088 
L 262.555742 63.078087 
L 257.875848 51.281086 
L 253.195954 61.573528 
L 248.516061 53.891387 
L 243.836167 51.721275 
L 239.156273 56.779961 
L 234.47638 49.711039 
L 229.796486 57.140369 
L 225.116592 56.918039 
L 220.436698 48.053703 
L 215.756805 61.443389 
L 211.076911 50.394021 
L 206.397017 62.106705 
L 201.717123 70.544444 
L 197.03723 76.194946 
L 192.357336 72.084883 
L 187.677442 67.306895 
L 182.997548 60.016656 
L 178.317655 62.897631 
L 173.637761 68.073769 
L 168.957867 56.09919 
L 164.277973 71.552315 
L 159.59808 74.32315 
L 154.918186 75.040395 
L 150.238292 80.968069 
L 145.558398 87.969957 
L 140.878505 90.464015 
L 136.198611 104.46133 
L 131.518717 102.620537 
L 126.838824 108.57557 
L 122.15893 94.788756 
L 117.479036 96.748283 
L 112.799142 140.684313 
L 108.119249 153.85522 
L 103.439355 173.932908 
L 98.759461 199.776788 
L 94.079567 245.033793 
L 89.399674 264.697616 
L 84.71978 290.280072 
L 80.039886 298.820057 
L 75.359992 306.684243 
L 70.680099 309.722592 
L 66.000205 312.051376 
L 61.320311 315.237252 
L 56.640417 315.182234 
z
" clip-path="url(#p90e4fa29e5)" style="fill: #023eff; fill-opacity: 0.1"/>
   </g>
   <g id="line2d_18">
    <path d="M 56.640417 318.147372 
L 61.320311 315.768329 
L 66.000205 315.768329 
L 70.680099 313.389286 
L 75.359992 310.217228 
L 80.039886 309.424214 
L 84.71978 313.389286 
L 89.399674 307.045171 
L 94.079567 304.666128 
L 98.759461 300.701056 
L 103.439355 290.391869 
L 108.119249 293.563926 
L 112.799142 268.980481 
L 117.479036 254.706222 
L 122.15893 248.362107 
L 126.838824 232.501819 
L 131.518717 196.816173 
L 136.198611 179.369856 
L 140.878505 157.958468 
L 145.558398 146.063252 
L 150.238292 104.826505 
L 154.918186 75.484973 
L 159.59808 78.657031 
L 164.277973 84.208131 
L 168.957867 63.589757 
L 173.637761 88.173203 
L 178.317655 80.243059 
L 182.997548 69.933872 
L 187.677442 77.071002 
L 192.357336 67.554829 
L 197.03723 93.724304 
L 201.717123 62.003729 
L 206.397017 76.277987 
L 211.076911 56.452628 
L 215.756805 68.347844 
L 220.436698 62.003729 
L 225.116592 75.484973 
L 229.796486 62.003729 
L 234.47638 63.589757 
L 239.156273 71.519901 
L 243.836167 59.624686 
L 248.516061 73.10593 
L 253.195954 67.554829 
L 257.875848 60.4177 
L 262.555742 61.210714 
L 267.235636 60.4177 
L 271.915529 60.4177 
L 276.595423 60.4177 
L 281.275317 61.210714 
L 285.955211 64.382772 
L 290.635104 65.175786 
L 295.314998 66.761815 
L 299.994892 60.4177 
L 304.674786 64.382772 
L 309.354679 72.312916 
L 314.034573 60.4177 
L 318.714467 79.450045 
L 323.394361 107.998562 
L 328.074254 61.210714 
L 332.754148 61.210714 
L 337.434042 96.896361 
L 342.113935 60.4177 
L 346.793829 110.377606 
L 351.473723 77.864016 
L 356.153617 60.4177 
L 360.83351 62.003729 
L 365.513404 61.210714 
L 370.193298 62.003729 
L 374.873192 68.347844 
L 379.553085 63.589757 
L 384.232979 65.968801 
L 388.912873 61.210714 
L 393.592767 62.003729 
L 398.27266 64.382772 
L 402.952554 64.382772 
L 407.632448 61.210714 
L 412.312342 59.624686 
L 416.992235 96.103347 
L 421.672129 58.831671 
L 426.352023 60.4177 
L 431.031917 60.4177 
L 435.71181 61.210714 
L 440.391704 60.4177 
L 445.071598 60.4177 
L 449.751491 60.4177 
L 454.431385 62.003729 
L 459.111279 60.4177 
L 463.791173 60.4177 
L 468.471066 60.4177 
L 473.15096 60.4177 
L 477.830854 65.175786 
L 482.510748 65.175786 
L 487.190641 60.4177 
L 491.870535 67.554829 
L 496.550429 60.4177 
L 501.230323 60.4177 
L 505.910216 61.210714 
L 510.59011 60.4177 
L 515.270004 60.4177 
L 519.949898 60.4177 
" clip-path="url(#p90e4fa29e5)" style="fill: none; stroke: #1ac938; stroke-opacity: 0.27; stroke-width: 1.25; stroke-linecap: round"/>
   </g>
   <g id="line2d_19">
    <path d="M 56.640417 317.354358 
L 61.320311 317.354358 
L 66.000205 311.010243 
L 70.680099 313.389286 
L 75.359992 304.666128 
L 80.039886 291.184883 
L 84.71978 282.461725 
L 89.399674 278.496653 
L 94.079567 261.050337 
L 98.759461 226.950719 
L 103.439355 226.157704 
L 108.119249 197.609187 
L 112.799142 173.818756 
L 117.479036 84.208131 
L 122.15893 83.415117 
L 126.838824 118.307749 
L 131.518717 120.686792 
L 136.198611 125.444879 
L 140.878505 110.377606 
L 145.558398 102.447462 
L 150.238292 110.377606 
L 154.918186 119.893778 
L 159.59808 111.17062 
L 164.277973 118.307749 
L 168.957867 151.614353 
L 173.637761 119.100764 
L 178.317655 104.826505 
L 182.997548 106.412534 
L 187.677442 114.342677 
L 192.357336 110.377606 
L 197.03723 110.377606 
L 201.717123 121.479807 
L 206.397017 117.514735 
L 211.076911 116.721721 
L 215.756805 112.756649 
L 220.436698 123.065836 
L 225.116592 113.549663 
L 229.796486 115.135692 
L 234.47638 117.514735 
L 239.156273 100.068419 
L 243.836167 134.961051 
L 248.516061 115.135692 
L 253.195954 87.380189 
L 257.875848 73.10593 
L 262.555742 64.382772 
L 267.235636 76.277987 
L 271.915529 60.4177 
L 276.595423 60.4177 
L 281.275317 70.726887 
L 285.955211 65.175786 
L 290.635104 73.10593 
L 295.314998 61.210714 
L 299.994892 65.175786 
L 304.674786 67.554829 
L 309.354679 96.103347 
L 314.034573 117.514735 
L 318.714467 126.237893 
L 323.394361 104.033491 
L 328.074254 120.686792 
L 332.754148 94.517318 
L 337.434042 123.85885 
L 342.113935 76.277987 
L 346.793829 147.649281 
L 351.473723 121.479807 
L 356.153617 123.065836 
L 360.83351 110.377606 
L 365.513404 99.275404 
L 370.193298 101.654447 
L 374.873192 94.517318 
L 379.553085 119.893778 
L 384.232979 115.135692 
L 388.912873 102.447462 
L 393.592767 121.479807 
L 398.27266 99.275404 
L 402.952554 106.412534 
L 407.632448 98.48239 
L 412.312342 96.103347 
L 416.992235 95.310332 
L 421.672129 94.517318 
L 426.352023 121.479807 
L 431.031917 65.175786 
L 435.71181 65.175786 
L 440.391704 62.796743 
L 445.071598 69.140858 
L 449.751491 110.377606 
L 454.431385 101.654447 
L 459.111279 97.689376 
L 463.791173 100.068419 
L 468.471066 149.23531 
L 473.15096 92.138275 
L 477.830854 76.277987 
L 482.510748 76.277987 
L 487.190641 62.796743 
L 491.870535 55.659614 
L 496.550429 102.447462 
L 501.230323 96.896361 
L 505.910216 100.861433 
L 510.59011 91.345261 
L 515.270004 78.657031 
L 519.949898 59.624686 
" clip-path="url(#p90e4fa29e5)" style="fill: none; stroke: #1ac938; stroke-opacity: 0.27; stroke-width: 1.25; stroke-linecap: round"/>
   </g>
   <g id="line2d_20">
    <path d="M 56.640417 318.147372 
L 61.320311 315.768329 
L 66.000205 312.596271 
L 70.680099 307.045171 
L 75.359992 311.010243 
L 80.039886 308.631199 
L 84.71978 295.149955 
L 89.399674 253.913208 
L 94.079567 245.983064 
L 98.759461 242.811006 
L 103.439355 228.536748 
L 108.119249 250.74115 
L 112.799142 234.087848 
L 117.479036 230.915791 
L 122.15893 222.985647 
L 126.838824 230.122776 
L 131.518717 221.399618 
L 136.198611 207.918374 
L 140.878505 188.093014 
L 145.558398 172.232727 
L 150.238292 135.754066 
L 154.918186 119.100764 
L 159.59808 106.412534 
L 164.277973 119.893778 
L 168.957867 96.896361 
L 173.637761 100.068419 
L 178.317655 79.450045 
L 182.997548 76.277987 
L 187.677442 69.140858 
L 192.357336 111.963634 
L 197.03723 73.10593 
L 201.717123 97.689376 
L 206.397017 59.624686 
L 211.076911 64.382772 
L 215.756805 86.587174 
L 220.436698 62.796743 
L 225.116592 62.796743 
L 229.796486 88.173203 
L 234.47638 63.589757 
L 239.156273 66.761815 
L 243.836167 63.589757 
L 248.516061 64.382772 
L 253.195954 64.382772 
L 257.875848 120.686792 
L 262.555742 68.347844 
L 267.235636 73.10593 
L 271.915529 100.068419 
L 276.595423 76.277987 
L 281.275317 60.4177 
L 285.955211 60.4177 
L 290.635104 68.347844 
L 295.314998 65.175786 
L 299.994892 60.4177 
L 304.674786 62.003729 
L 309.354679 74.691959 
L 314.034573 60.4177 
L 318.714467 60.4177 
L 323.394361 61.210714 
L 328.074254 60.4177 
L 332.754148 60.4177 
L 337.434042 60.4177 
L 342.113935 91.345261 
L 346.793829 60.4177 
L 351.473723 150.028324 
L 356.153617 146.856267 
L 360.83351 83.415117 
L 365.513404 70.726887 
L 370.193298 58.831671 
L 374.873192 56.452628 
L 379.553085 64.382772 
L 384.232979 60.4177 
L 388.912873 57.245642 
L 393.592767 55.659614 
L 398.27266 59.624686 
L 402.952554 58.831671 
L 407.632448 55.659614 
L 412.312342 56.452628 
L 416.992235 57.245642 
L 421.672129 54.866599 
L 426.352023 54.866599 
L 431.031917 58.038657 
L 435.71181 54.866599 
L 440.391704 59.624686 
L 445.071598 54.866599 
L 449.751491 54.866599 
L 454.431385 60.4177 
L 459.111279 61.210714 
L 463.791173 92.138275 
L 468.471066 68.347844 
L 473.15096 60.4177 
L 477.830854 57.245642 
L 482.510748 59.624686 
L 487.190641 57.245642 
L 491.870535 56.452628 
L 496.550429 58.038657 
L 501.230323 73.898944 
L 505.910216 54.866599 
L 510.59011 58.038657 
L 515.270004 54.866599 
L 519.949898 55.659614 
" clip-path="url(#p90e4fa29e5)" style="fill: none; stroke: #1ac938; stroke-opacity: 0.27; stroke-width: 1.25; stroke-linecap: round"/>
   </g>
   <g id="line2d_21">
    <path d="M 56.640417 315.768329 
L 61.320311 314.975314 
L 66.000205 318.940386 
L 70.680099 314.1823 
L 75.359992 308.631199 
L 80.039886 312.596271 
L 84.71978 311.010243 
L 89.399674 312.596271 
L 94.079567 303.080099 
L 98.759461 299.908041 
L 103.439355 302.287084 
L 108.119249 268.187466 
L 112.799142 272.152538 
L 117.479036 265.015409 
L 122.15893 253.120193 
L 126.838824 280.875696 
L 131.518717 235.673877 
L 136.198611 247.569093 
L 140.878505 241.224978 
L 145.558398 247.569093 
L 150.238292 188.886029 
L 154.918186 144.477224 
L 159.59808 117.514735 
L 164.277973 87.380189 
L 168.957867 65.175786 
L 173.637761 68.347844 
L 178.317655 62.003729 
L 182.997548 64.382772 
L 187.677442 107.205548 
L 192.357336 74.691959 
L 197.03723 84.208131 
L 201.717123 87.380189 
L 206.397017 77.864016 
L 211.076911 64.382772 
L 215.756805 58.831671 
L 220.436698 57.245642 
L 225.116592 69.140858 
L 229.796486 57.245642 
L 234.47638 54.866599 
L 239.156273 58.038657 
L 243.836167 58.038657 
L 248.516061 58.038657 
L 253.195954 76.277987 
L 257.875848 56.452628 
L 262.555742 71.519901 
L 267.235636 55.659614 
L 271.915529 57.245642 
L 276.595423 55.659614 
L 281.275317 54.866599 
L 285.955211 56.452628 
L 290.635104 58.831671 
L 295.314998 56.452628 
L 299.994892 54.073585 
L 304.674786 54.073585 
L 309.354679 54.073585 
L 314.034573 54.073585 
L 318.714467 54.073585 
L 323.394361 54.866599 
L 328.074254 54.866599 
L 332.754148 54.073585 
L 337.434042 61.210714 
L 342.113935 54.073585 
L 346.793829 55.659614 
L 351.473723 62.796743 
L 356.153617 55.659614 
L 360.83351 54.073585 
L 365.513404 84.208131 
L 370.193298 55.659614 
L 374.873192 57.245642 
L 379.553085 54.073585 
L 384.232979 54.073585 
L 388.912873 57.245642 
L 393.592767 54.073585 
L 398.27266 63.589757 
L 402.952554 60.4177 
L 407.632448 60.4177 
L 412.312342 60.4177 
L 416.992235 62.796743 
L 421.672129 64.382772 
L 426.352023 67.554829 
L 431.031917 60.4177 
L 435.71181 60.4177 
L 440.391704 60.4177 
L 445.071598 60.4177 
L 449.751491 63.589757 
L 454.431385 62.003729 
L 459.111279 62.796743 
L 463.791173 63.589757 
L 468.471066 60.4177 
L 473.15096 60.4177 
L 477.830854 60.4177 
L 482.510748 62.003729 
L 487.190641 60.4177 
L 491.870535 60.4177 
L 496.550429 60.4177 
L 501.230323 60.4177 
L 505.910216 61.210714 
L 510.59011 65.175786 
L 515.270004 60.4177 
L 519.949898 60.4177 
" clip-path="url(#p90e4fa29e5)" style="fill: none; stroke: #1ac938; stroke-opacity: 0.27; stroke-width: 1.25; stroke-linecap: round"/>
   </g>
   <g id="line2d_22">
    <path d="M 56.640417 314.1823 
L 61.320311 318.147372 
L 66.000205 315.768329 
L 70.680099 317.354358 
L 75.359992 313.389286 
L 80.039886 311.803257 
L 84.71978 307.045171 
L 89.399674 278.496653 
L 94.079567 244.397035 
L 98.759461 171.439712 
L 103.439355 129.409951 
L 108.119249 100.861433 
L 112.799142 92.931289 
L 117.479036 73.10593 
L 122.15893 71.519901 
L 126.838824 72.312916 
L 131.518717 64.382772 
L 136.198611 71.519901 
L 140.878505 62.796743 
L 145.558398 73.10593 
L 150.238292 66.761815 
L 154.918186 65.175786 
L 159.59808 62.796743 
L 164.277973 60.4177 
L 168.957867 69.933872 
L 173.637761 65.175786 
L 178.317655 64.382772 
L 182.997548 62.796743 
L 187.677442 67.554829 
L 192.357336 86.587174 
L 197.03723 82.622102 
L 201.717123 81.829088 
L 206.397017 75.484973 
L 211.076911 61.210714 
L 215.756805 73.898944 
L 220.436698 60.4177 
L 225.116592 60.4177 
L 229.796486 69.140858 
L 234.47638 62.796743 
L 239.156273 62.003729 
L 243.836167 88.173203 
L 248.516061 62.796743 
L 253.195954 60.4177 
L 257.875848 63.589757 
L 262.555742 67.554829 
L 267.235636 72.312916 
L 271.915529 70.726887 
L 276.595423 72.312916 
L 281.275317 66.761815 
L 285.955211 160.337511 
L 290.635104 65.175786 
L 295.314998 64.382772 
L 299.994892 69.933872 
L 304.674786 60.4177 
L 309.354679 61.210714 
L 314.034573 62.003729 
L 318.714467 62.003729 
L 323.394361 60.4177 
L 328.074254 65.175786 
L 332.754148 61.210714 
L 337.434042 61.210714 
L 342.113935 63.589757 
L 346.793829 63.589757 
L 351.473723 67.554829 
L 356.153617 60.4177 
L 360.83351 62.796743 
L 365.513404 60.4177 
L 370.193298 61.210714 
L 374.873192 62.003729 
L 379.553085 60.4177 
L 384.232979 196.023158 
L 388.912873 199.195216 
L 393.592767 190.472058 
L 398.27266 170.646698 
L 402.952554 103.240476 
L 407.632448 70.726887 
L 412.312342 75.484973 
L 416.992235 60.4177 
L 421.672129 60.4177 
L 426.352023 61.210714 
L 431.031917 61.210714 
L 435.71181 60.4177 
L 440.391704 70.726887 
L 445.071598 70.726887 
L 449.751491 65.175786 
L 454.431385 87.380189 
L 459.111279 60.4177 
L 463.791173 79.450045 
L 468.471066 90.552246 
L 473.15096 101.654447 
L 477.830854 63.589757 
L 482.510748 59.624686 
L 487.190641 54.073585 
L 491.870535 54.866599 
L 496.550429 60.4177 
L 501.230323 55.659614 
L 505.910216 54.073585 
L 510.59011 54.073585 
L 515.270004 54.073585 
L 519.949898 54.073585 
" clip-path="url(#p90e4fa29e5)" style="fill: none; stroke: #1ac938; stroke-opacity: 0.27; stroke-width: 1.25; stroke-linecap: round"/>
   </g>
   <g id="line2d_23">
    <path d="M 56.640417 54.073585 
L 61.320311 69.973375 
L 66.000205 98.356647 
L 70.680099 127.519212 
L 75.359992 156.165562 
L 80.039886 167.75176 
L 84.71978 192.06277 
L 89.399674 198.876166 
L 94.079567 214.521598 
L 98.759461 218.50666 
L 103.439355 232.1517 
L 108.119249 232.552854 
L 112.799142 232.270384 
L 117.479036 245.683677 
L 122.15893 246.655073 
L 126.838824 250.089925 
L 131.518717 264.101222 
L 136.198611 275.242187 
L 140.878505 280.923918 
L 145.558398 278.61806 
L 150.238292 283.606229 
L 154.918186 286.680689 
L 159.59808 270.246467 
L 164.277973 280.730616 
L 168.957867 282.51426 
L 173.637761 276.408051 
L 178.317655 274.358324 
L 182.997548 275.325381 
L 187.677442 269.286603 
L 192.357336 270.41106 
L 197.03723 262.198595 
L 201.717123 278.848978 
L 206.397017 274.077883 
L 211.076911 277.623984 
L 215.756805 283.854263 
L 220.436698 284.555503 
L 225.116592 275.0412 
L 229.796486 282.408719 
L 234.47638 280.121668 
L 239.156273 286.24595 
L 243.836167 278.139676 
L 248.516061 280.232187 
L 253.195954 282.326294 
L 257.875848 283.097898 
L 262.555742 278.060704 
L 267.235636 274.905515 
L 271.915529 273.612847 
L 276.595423 286.326613 
L 281.275317 280.559029 
L 285.955211 295.660572 
L 290.635104 279.950196 
L 295.314998 267.137624 
L 299.994892 287.682064 
L 304.674786 280.654542 
L 309.354679 288.509107 
L 314.034573 294.825442 
L 318.714467 293.014423 
L 323.394361 297.837481 
L 328.074254 301.252923 
L 332.754148 302.855593 
L 337.434042 292.712778 
L 342.113935 292.581229 
L 346.793829 282.343374 
L 351.473723 288.417851 
L 356.153617 286.700484 
L 360.83351 299.414378 
L 365.513404 296.412428 
L 370.193298 290.783848 
L 374.873192 295.414128 
L 379.553085 288.92405 
L 384.232979 306.558232 
L 388.912873 313.669755 
L 393.592767 320.526415 
L 398.27266 297.303235 
L 402.952554 290.764764 
L 407.632448 291.087973 
L 412.312342 294.22718 
L 416.992235 286.334525 
L 421.672129 287.428449 
L 426.352023 282.241346 
L 431.031917 273.104672 
L 435.71181 281.426307 
L 440.391704 287.020537 
L 445.071598 284.773464 
L 449.751491 293.99098 
L 454.431385 296.488485 
L 459.111279 291.975768 
L 463.791173 293.50223 
L 468.471066 292.143164 
L 473.15096 293.697097 
L 477.830854 289.793228 
L 482.510748 281.403933 
L 487.190641 284.844609 
L 491.870535 284.80136 
L 496.550429 286.948625 
L 501.230323 291.789055 
L 505.910216 297.449647 
L 510.59011 293.441912 
L 515.270004 299.320323 
L 519.949898 297.37422 
" clip-path="url(#p90e4fa29e5)" style="fill: none; stroke: #8b2be2; stroke-width: 1.5; stroke-linecap: round"/>
   </g>
   <g id="line2d_24">
    <path d="M 56.640417 316.719946 
L 61.320311 316.40274 
L 66.000205 314.816712 
L 70.680099 313.07208 
L 75.359992 309.582817 
L 80.039886 306.727965 
L 84.71978 301.811276 
L 89.399674 286.109591 
L 94.079567 271.835332 
L 98.759461 248.362107 
L 103.439355 235.356671 
L 108.119249 222.192633 
L 112.799142 208.394182 
L 117.479036 181.590296 
L 122.15893 175.880593 
L 126.838824 186.824191 
L 131.518717 167.791846 
L 136.198611 166.36442 
L 140.878505 152.090162 
L 145.558398 148.283693 
L 150.238292 121.321204 
L 154.918186 104.826505 
L 159.59808 95.310332 
L 164.277973 94.041509 
L 168.957867 89.442026 
L 173.637761 88.173203 
L 178.317655 78.181222 
L 182.997548 75.960782 
L 187.677442 87.062983 
L 192.357336 90.23504 
L 197.03723 88.807615 
L 201.717123 90.076438 
L 206.397017 81.353279 
L 211.076911 72.630121 
L 215.756805 80.084456 
L 220.436698 73.10593 
L 225.116592 76.277987 
L 229.796486 78.339825 
L 234.47638 72.471518 
L 239.156273 71.678504 
L 243.836167 80.877471 
L 248.516061 74.691959 
L 253.195954 71.202695 
L 257.875848 74.850562 
L 262.555742 66.603212 
L 267.235636 67.554829 
L 271.915529 69.77527 
L 276.595423 65.017183 
L 281.275317 62.796743 
L 285.955211 81.353279 
L 290.635104 66.127403 
L 295.314998 62.796743 
L 299.994892 62.003729 
L 304.674786 61.686523 
L 309.354679 71.678504 
L 314.034573 70.88549 
L 318.714467 76.43659 
L 323.394361 77.705413 
L 328.074254 72.471518 
L 332.754148 66.286006 
L 337.434042 80.718868 
L 342.113935 69.140858 
L 346.793829 87.538792 
L 351.473723 95.944744 
L 356.153617 89.283423 
L 360.83351 74.533356 
L 365.513404 75.167767 
L 370.193298 67.872035 
L 374.873192 67.713432 
L 379.553085 72.471518 
L 384.232979 98.323787 
L 388.912873 95.468935 
L 393.592767 96.737758 
L 398.27266 91.503863 
L 402.952554 78.657031 
L 407.632448 69.299461 
L 412.312342 69.616667 
L 416.992235 74.374753 
L 421.672129 66.603212 
L 426.352023 73.10593 
L 431.031917 61.052111 
L 435.71181 60.4177 
L 440.391704 62.796743 
L 445.071598 63.113949 
L 449.751491 70.88549 
L 454.431385 74.691959 
L 459.111279 68.506447 
L 463.791173 79.132839 
L 468.471066 85.79416 
L 473.15096 75.009164 
L 477.830854 64.541375 
L 482.510748 64.541375 
L 487.190641 58.990274 
L 491.870535 58.990274 
L 496.550429 68.347844 
L 501.230323 69.458064 
L 505.910216 66.444609 
L 510.59011 65.810198 
L 515.270004 61.686523 
L 519.949898 58.038657 
" clip-path="url(#p90e4fa29e5)" style="fill: none; stroke: #023eff; stroke-width: 2; stroke-linecap: round"/>
   </g>
   <g id="line2d_25">
    <path d="M 47.5 63.589757 
L 529.2 63.589757 
" clip-path="url(#p90e4fa29e5)" style="fill: none; stroke-dasharray: 1.25,2.0625; stroke-dashoffset: 0; stroke: #000000; stroke-opacity: 0.6; stroke-width: 1.25"/>
   </g>
   <g id="patch_3">
    <path d="M 47.5 328.52 
L 47.5 46.08 
" style="fill: none; stroke: #ffffff; stroke-width: 0.8; stroke-linejoin: miter; stroke-linecap: square"/>
   </g>
   <g id="patch_4">
    <path d="M 529.2 328.52 
L 529.2 46.08 
" style="fill: none; stroke: #ffffff; stroke-width: 0.8; stroke-linejoin: miter; stroke-linecap: square"/>
   </g>
   <g id="patch_5">
    <path d="M 47.5 328.52 
L 529.2 328.52 
" style="fill: none; stroke: #ffffff; stroke-width: 0.8; stroke-linejoin: miter; stroke-linecap: square"/>
   </g>
   <g id="patch_6">
    <path d="M 47.5 46.08 
L 529.2 46.08 
" style="fill: none; stroke: #ffffff; stroke-width: 0.8; stroke-linejoin: miter; stroke-linecap: square"/>
   </g>
  </g>
  <g id="text_18">
   <!-- Logits (Baseline) | No modification -->
   <g style="fill: #262626" transform="translate(36.110625 25.54125) scale(0.24 -0.24)">
    <defs>
     <path id="DejaVuSans-Bold-4c" d="M 588 4666 
L 1791 4666 
L 1791 909 
L 3903 909 
L 3903 0 
L 588 0 
L 588 4666 
z
" transform="scale(0.015625)"/>
     <path id="DejaVuSans-Bold-6f" d="M 2203 2784 
Q 1831 2784 1636 2517 
Q 1441 2250 1441 1747 
Q 1441 1244 1636 976 
Q 1831 709 2203 709 
Q 2569 709 2762 976 
Q 2956 1244 2956 1747 
Q 2956 2250 2762 2517 
Q 2569 2784 2203 2784 
z
M 2203 3584 
Q 3106 3584 3614 3096 
Q 4122 2609 4122 1747 
Q 4122 884 3614 396 
Q 3106 -91 2203 -91 
Q 1297 -91 786 396 
Q 275 884 275 1747 
Q 275 2609 786 3096 
Q 1297 3584 2203 3584 
z
" transform="scale(0.015625)"/>
     <path id="DejaVuSans-Bold-67" d="M 2919 594 
Q 2688 288 2409 144 
Q 2131 0 1766 0 
Q 1125 0 706 504 
Q 288 1009 288 1791 
Q 288 2575 706 3076 
Q 1125 3578 1766 3578 
Q 2131 3578 2409 3434 
Q 2688 3291 2919 2981 
L 2919 3500 
L 4044 3500 
L 4044 353 
Q 4044 -491 3511 -936 
Q 2978 -1381 1966 -1381 
Q 1638 -1381 1331 -1331 
Q 1025 -1281 716 -1178 
L 716 -306 
Q 1009 -475 1290 -558 
Q 1572 -641 1856 -641 
Q 2406 -641 2662 -400 
Q 2919 -159 2919 353 
L 2919 594 
z
M 2181 2772 
Q 1834 2772 1640 2515 
Q 1447 2259 1447 1791 
Q 1447 1309 1634 1061 
Q 1822 813 2181 813 
Q 2531 813 2725 1069 
Q 2919 1325 2919 1791 
Q 2919 2259 2725 2515 
Q 2531 2772 2181 2772 
z
" transform="scale(0.015625)"/>
     <path id="DejaVuSans-Bold-69" d="M 538 3500 
L 1656 3500 
L 1656 0 
L 538 0 
L 538 3500 
z
M 538 4863 
L 1656 4863 
L 1656 3950 
L 538 3950 
L 538 4863 
z
" transform="scale(0.015625)"/>
     <path id="DejaVuSans-Bold-74" d="M 1759 4494 
L 1759 3500 
L 2913 3500 
L 2913 2700 
L 1759 2700 
L 1759 1216 
Q 1759 972 1856 886 
Q 1953 800 2241 800 
L 2816 800 
L 2816 0 
L 1856 0 
Q 1194 0 917 276 
Q 641 553 641 1216 
L 641 2700 
L 84 2700 
L 84 3500 
L 641 3500 
L 641 4494 
L 1759 4494 
z
" transform="scale(0.015625)"/>
     <path id="DejaVuSans-Bold-73" d="M 3272 3391 
L 3272 2541 
Q 2913 2691 2578 2766 
Q 2244 2841 1947 2841 
Q 1628 2841 1473 2761 
Q 1319 2681 1319 2516 
Q 1319 2381 1436 2309 
Q 1553 2238 1856 2203 
L 2053 2175 
Q 2913 2066 3209 1816 
Q 3506 1566 3506 1031 
Q 3506 472 3093 190 
Q 2681 -91 1863 -91 
Q 1516 -91 1145 -36 
Q 775 19 384 128 
L 384 978 
Q 719 816 1070 734 
Q 1422 653 1784 653 
Q 2113 653 2278 743 
Q 2444 834 2444 1013 
Q 2444 1163 2330 1236 
Q 2216 1309 1875 1350 
L 1678 1375 
Q 931 1469 631 1722 
Q 331 1975 331 2491 
Q 331 3047 712 3315 
Q 1094 3584 1881 3584 
Q 2191 3584 2531 3537 
Q 2872 3491 3272 3391 
z
" transform="scale(0.015625)"/>
     <path id="DejaVuSans-Bold-20" transform="scale(0.015625)"/>
     <path id="DejaVuSans-Bold-28" d="M 2413 -844 
L 1484 -844 
Q 1006 -72 778 623 
Q 550 1319 550 2003 
Q 550 2688 779 3389 
Q 1009 4091 1484 4856 
L 2413 4856 
Q 2013 4116 1813 3408 
Q 1613 2700 1613 2009 
Q 1613 1319 1811 609 
Q 2009 -100 2413 -844 
z
" transform="scale(0.015625)"/>
     <path id="DejaVuSans-Bold-42" d="M 2456 2859 
Q 2741 2859 2887 2984 
Q 3034 3109 3034 3353 
Q 3034 3594 2887 3720 
Q 2741 3847 2456 3847 
L 1791 3847 
L 1791 2859 
L 2456 2859 
z
M 2497 819 
Q 2859 819 3042 972 
Q 3225 1125 3225 1434 
Q 3225 1738 3044 1889 
Q 2863 2041 2497 2041 
L 1791 2041 
L 1791 819 
L 2497 819 
z
M 3616 2497 
Q 4003 2384 4215 2081 
Q 4428 1778 4428 1338 
Q 4428 663 3972 331 
Q 3516 0 2584 0 
L 588 0 
L 588 4666 
L 2394 4666 
Q 3366 4666 3802 4372 
Q 4238 4078 4238 3431 
Q 4238 3091 4078 2852 
Q 3919 2613 3616 2497 
z
" transform="scale(0.015625)"/>
     <path id="DejaVuSans-Bold-61" d="M 2106 1575 
Q 1756 1575 1579 1456 
Q 1403 1338 1403 1106 
Q 1403 894 1545 773 
Q 1688 653 1941 653 
Q 2256 653 2472 879 
Q 2688 1106 2688 1447 
L 2688 1575 
L 2106 1575 
z
M 3816 1997 
L 3816 0 
L 2688 0 
L 2688 519 
Q 2463 200 2181 54 
Q 1900 -91 1497 -91 
Q 953 -91 614 226 
Q 275 544 275 1050 
Q 275 1666 698 1953 
Q 1122 2241 2028 2241 
L 2688 2241 
L 2688 2328 
Q 2688 2594 2478 2717 
Q 2269 2841 1825 2841 
Q 1466 2841 1156 2769 
Q 847 2697 581 2553 
L 581 3406 
Q 941 3494 1303 3539 
Q 1666 3584 2028 3584 
Q 2975 3584 3395 3211 
Q 3816 2838 3816 1997 
z
" transform="scale(0.015625)"/>
     <path id="DejaVuSans-Bold-65" d="M 4031 1759 
L 4031 1441 
L 1416 1441 
Q 1456 1047 1700 850 
Q 1944 653 2381 653 
Q 2734 653 3104 758 
Q 3475 863 3866 1075 
L 3866 213 
Q 3469 63 3072 -14 
Q 2675 -91 2278 -91 
Q 1328 -91 801 392 
Q 275 875 275 1747 
Q 275 2603 792 3093 
Q 1309 3584 2216 3584 
Q 3041 3584 3536 3087 
Q 4031 2591 4031 1759 
z
M 2881 2131 
Q 2881 2450 2695 2645 
Q 2509 2841 2209 2841 
Q 1884 2841 1681 2658 
Q 1478 2475 1428 2131 
L 2881 2131 
z
" transform="scale(0.015625)"/>
     <path id="DejaVuSans-Bold-6c" d="M 538 4863 
L 1656 4863 
L 1656 0 
L 538 0 
L 538 4863 
z
" transform="scale(0.015625)"/>
     <path id="DejaVuSans-Bold-6e" d="M 4056 2131 
L 4056 0 
L 2931 0 
L 2931 347 
L 2931 1631 
Q 2931 2084 2911 2256 
Q 2891 2428 2841 2509 
Q 2775 2619 2662 2680 
Q 2550 2741 2406 2741 
Q 2056 2741 1856 2470 
Q 1656 2200 1656 1722 
L 1656 0 
L 538 0 
L 538 3500 
L 1656 3500 
L 1656 2988 
Q 1909 3294 2193 3439 
Q 2478 3584 2822 3584 
Q 3428 3584 3742 3212 
Q 4056 2841 4056 2131 
z
" transform="scale(0.015625)"/>
     <path id="DejaVuSans-Bold-29" d="M 513 -844 
Q 913 -100 1113 609 
Q 1313 1319 1313 2009 
Q 1313 2700 1113 3408 
Q 913 4116 513 4856 
L 1441 4856 
Q 1916 4091 2145 3389 
Q 2375 2688 2375 2003 
Q 2375 1319 2147 623 
Q 1919 -72 1441 -844 
L 513 -844 
z
" transform="scale(0.015625)"/>
     <path id="DejaVuSans-Bold-7c" d="M 1522 4891 
L 1522 -1509 
L 813 -1509 
L 813 4891 
L 1522 4891 
z
" transform="scale(0.015625)"/>
     <path id="DejaVuSans-Bold-4e" d="M 588 4666 
L 1931 4666 
L 3628 1466 
L 3628 4666 
L 4769 4666 
L 4769 0 
L 3425 0 
L 1728 3200 
L 1728 0 
L 588 0 
L 588 4666 
z
" transform="scale(0.015625)"/>
     <path id="DejaVuSans-Bold-6d" d="M 3781 2919 
Q 3994 3244 4286 3414 
Q 4578 3584 4928 3584 
Q 5531 3584 5847 3212 
Q 6163 2841 6163 2131 
L 6163 0 
L 5038 0 
L 5038 1825 
Q 5041 1866 5042 1909 
Q 5044 1953 5044 2034 
Q 5044 2406 4934 2573 
Q 4825 2741 4581 2741 
Q 4263 2741 4089 2478 
Q 3916 2216 3909 1719 
L 3909 0 
L 2784 0 
L 2784 1825 
Q 2784 2406 2684 2573 
Q 2584 2741 2328 2741 
Q 2006 2741 1831 2477 
Q 1656 2213 1656 1722 
L 1656 0 
L 531 0 
L 531 3500 
L 1656 3500 
L 1656 2988 
Q 1863 3284 2130 3434 
Q 2397 3584 2719 3584 
Q 3081 3584 3359 3409 
Q 3638 3234 3781 2919 
z
" transform="scale(0.015625)"/>
     <path id="DejaVuSans-Bold-64" d="M 2919 2988 
L 2919 4863 
L 4044 4863 
L 4044 0 
L 2919 0 
L 2919 506 
Q 2688 197 2409 53 
Q 2131 -91 1766 -91 
Q 1119 -91 703 423 
Q 288 938 288 1747 
Q 288 2556 703 3070 
Q 1119 3584 1766 3584 
Q 2128 3584 2408 3439 
Q 2688 3294 2919 2988 
z
M 2181 722 
Q 2541 722 2730 984 
Q 2919 1247 2919 1747 
Q 2919 2247 2730 2509 
Q 2541 2772 2181 2772 
Q 1825 2772 1636 2509 
Q 1447 2247 1447 1747 
Q 1447 1247 1636 984 
Q 1825 722 2181 722 
z
" transform="scale(0.015625)"/>
     <path id="DejaVuSans-Bold-66" d="M 2841 4863 
L 2841 4128 
L 2222 4128 
Q 1984 4128 1890 4042 
Q 1797 3956 1797 3744 
L 1797 3500 
L 2753 3500 
L 2753 2700 
L 1797 2700 
L 1797 0 
L 678 0 
L 678 2700 
L 122 2700 
L 122 3500 
L 678 3500 
L 678 3744 
Q 678 4316 997 4589 
Q 1316 4863 1984 4863 
L 2841 4863 
z
" transform="scale(0.015625)"/>
     <path id="DejaVuSans-Bold-63" d="M 3366 3391 
L 3366 2478 
Q 3138 2634 2908 2709 
Q 2678 2784 2431 2784 
Q 1963 2784 1702 2511 
Q 1441 2238 1441 1747 
Q 1441 1256 1702 982 
Q 1963 709 2431 709 
Q 2694 709 2930 787 
Q 3166 866 3366 1019 
L 3366 103 
Q 3103 6 2833 -42 
Q 2563 -91 2291 -91 
Q 1344 -91 809 395 
Q 275 881 275 1747 
Q 275 2613 809 3098 
Q 1344 3584 2291 3584 
Q 2566 3584 2833 3536 
Q 3100 3488 3366 3391 
z
" transform="scale(0.015625)"/>
    </defs>
    <use xlink:href="#DejaVuSans-Bold-4c"/>
    <use xlink:href="#DejaVuSans-Bold-6f" transform="translate(63.720703 0)"/>
    <use xlink:href="#DejaVuSans-Bold-67" transform="translate(132.421875 0)"/>
    <use xlink:href="#DejaVuSans-Bold-69" transform="translate(204.003906 0)"/>
    <use xlink:href="#DejaVuSans-Bold-74" transform="translate(238.28125 0)"/>
    <use xlink:href="#DejaVuSans-Bold-73" transform="translate(286.083984 0)"/>
    <use xlink:href="#DejaVuSans-Bold-20" transform="translate(345.605469 0)"/>
    <use xlink:href="#DejaVuSans-Bold-28" transform="translate(380.419922 0)"/>
    <use xlink:href="#DejaVuSans-Bold-42" transform="translate(426.123047 0)"/>
    <use xlink:href="#DejaVuSans-Bold-61" transform="translate(502.34375 0)"/>
    <use xlink:href="#DejaVuSans-Bold-73" transform="translate(569.824219 0)"/>
    <use xlink:href="#DejaVuSans-Bold-65" transform="translate(629.345703 0)"/>
    <use xlink:href="#DejaVuSans-Bold-6c" transform="translate(697.167969 0)"/>
    <use xlink:href="#DejaVuSans-Bold-69" transform="translate(731.445312 0)"/>
    <use xlink:href="#DejaVuSans-Bold-6e" transform="translate(765.722656 0)"/>
    <use xlink:href="#DejaVuSans-Bold-65" transform="translate(836.914062 0)"/>
    <use xlink:href="#DejaVuSans-Bold-29" transform="translate(904.736328 0)"/>
    <use xlink:href="#DejaVuSans-Bold-20" transform="translate(950.439453 0)"/>
    <use xlink:href="#DejaVuSans-Bold-7c" transform="translate(985.253906 0)"/>
    <use xlink:href="#DejaVuSans-Bold-20" transform="translate(1021.777344 0)"/>
    <use xlink:href="#DejaVuSans-Bold-4e" transform="translate(1056.591797 0)"/>
    <use xlink:href="#DejaVuSans-Bold-6f" transform="translate(1140.283203 0)"/>
    <use xlink:href="#DejaVuSans-Bold-20" transform="translate(1208.984375 0)"/>
    <use xlink:href="#DejaVuSans-Bold-6d" transform="translate(1243.798828 0)"/>
    <use xlink:href="#DejaVuSans-Bold-6f" transform="translate(1347.998047 0)"/>
    <use xlink:href="#DejaVuSans-Bold-64" transform="translate(1416.699219 0)"/>
    <use xlink:href="#DejaVuSans-Bold-69" transform="translate(1488.28125 0)"/>
    <use xlink:href="#DejaVuSans-Bold-66" transform="translate(1522.558594 0)"/>
    <use xlink:href="#DejaVuSans-Bold-69" transform="translate(1566.064453 0)"/>
    <use xlink:href="#DejaVuSans-Bold-63" transform="translate(1600.341797 0)"/>
    <use xlink:href="#DejaVuSans-Bold-61" transform="translate(1659.619141 0)"/>
    <use xlink:href="#DejaVuSans-Bold-74" transform="translate(1727.099609 0)"/>
    <use xlink:href="#DejaVuSans-Bold-69" transform="translate(1774.902344 0)"/>
    <use xlink:href="#DejaVuSans-Bold-6f" transform="translate(1809.179688 0)"/>
    <use xlink:href="#DejaVuSans-Bold-6e" transform="translate(1877.880859 0)"/>
   </g>
  </g>
 </g>
 <defs>
  <clipPath id="p90e4fa29e5">
   <rect x="47.5" y="46.08" width="481.7" height="282.44"/>
  </clipPath>
 </defs>
</svg>
