<?xml version="1.0" encoding="utf-8" standalone="no"?>
<!DOCTYPE svg PUBLIC "-//W3C//DTD SVG 1.1//EN"
  "http://www.w3.org/Graphics/SVG/1.1/DTD/svg11.dtd">
<svg xmlns:xlink="http://www.w3.org/1999/xlink" width="540pt" height="360pt" viewBox="0 0 540 360" xmlns="http://www.w3.org/2000/svg" version="1.1">
 <metadata>
  <rdf:RDF xmlns:dc="http://purl.org/dc/elements/1.1/" xmlns:cc="http://creativecommons.org/ns#" xmlns:rdf="http://www.w3.org/1999/02/22-rdf-syntax-ns#">
   <cc:Work>
    <dc:type rdf:resource="http://purl.org/dc/dcmitype/StillImage"/>
    <dc:date>2025-08-04T02:54:02.067568</dc:date>
    <dc:format>image/svg+xml</dc:format>
    <dc:creator>
     <cc:Agent>
      <dc:title>Matplotlib v3.10.0, https://matplotlib.org/</dc:title>
     </cc:Agent>
    </dc:creator>
   </cc:Work>
  </rdf:RDF>
 </metadata>
 <defs>
  <style type="text/css">*{stroke-linejoin: round; stroke-linecap: butt}</style>
 </defs>
 <g id="figure_1">
  <g id="patch_1">
   <path d="M 0 360 
L 540 360 
L 540 0 
L 0 0 
z
" style="fill: #ffffff"/>
  </g>
  <g id="axes_1">
   <g id="patch_2">
    <path d="M 47.5 328.52 
L 529.2 328.52 
L 529.2 46.08 
L 47.5 46.08 
z
" style="fill: #eaeaf2"/>
   </g>
   <g id="matplotlib.axis_1">
    <g id="xtick_1">
     <g id="line2d_1">
      <path d="M 56.640417 328.52 
L 56.640417 46.08 
" clip-path="url(#p633d7fb18b)" style="fill: none; stroke: #ffffff; stroke-width: 0.8; stroke-linecap: round"/>
     </g>
     <g id="text_1">
      <!-- 0 -->
      <g style="fill: #262626" transform="translate(52.186667 346.157812) scale(0.14 -0.14)">
       <defs>
        <path id="DejaVuSans-30" d="M 2034 4250 
Q 1547 4250 1301 3770 
Q 1056 3291 1056 2328 
Q 1056 1369 1301 889 
Q 1547 409 2034 409 
Q 2525 409 2770 889 
Q 3016 1369 3016 2328 
Q 3016 3291 2770 3770 
Q 2525 4250 2034 4250 
z
M 2034 4750 
Q 2819 4750 3233 4129 
Q 3647 3509 3647 2328 
Q 3647 1150 3233 529 
Q 2819 -91 2034 -91 
Q 1250 -91 836 529 
Q 422 1150 422 2328 
Q 422 3509 836 4129 
Q 1250 4750 2034 4750 
z
" transform="scale(0.015625)"/>
       </defs>
       <use xlink:href="#DejaVuSans-30"/>
      </g>
     </g>
    </g>
    <g id="xtick_2">
     <g id="line2d_2">
      <path d="M 513.66129 328.52 
L 513.66129 46.08 
" clip-path="url(#p633d7fb18b)" style="fill: none; stroke: #ffffff; stroke-width: 0.8; stroke-linecap: round"/>
     </g>
     <g id="text_2">
      <!-- 1M -->
      <g style="fill: #262626" transform="translate(503.167853 346.157812) scale(0.14 -0.14)">
       <defs>
        <path id="DejaVuSans-31" d="M 794 531 
L 1825 531 
L 1825 4091 
L 703 3866 
L 703 4441 
L 1819 4666 
L 2450 4666 
L 2450 531 
L 3481 531 
L 3481 0 
L 794 0 
L 794 531 
z
" transform="scale(0.015625)"/>
        <path id="DejaVuSans-4d" d="M 628 4666 
L 1569 4666 
L 2759 1491 
L 3956 4666 
L 4897 4666 
L 4897 0 
L 4281 0 
L 4281 4097 
L 3078 897 
L 2444 897 
L 1241 4097 
L 1241 0 
L 628 0 
L 628 4666 
z
" transform="scale(0.015625)"/>
       </defs>
       <use xlink:href="#DejaVuSans-31"/>
       <use xlink:href="#DejaVuSans-4d" transform="translate(63.623047 0)"/>
      </g>
     </g>
    </g>
   </g>
   <g id="matplotlib.axis_2">
    <g id="ytick_1">
     <g id="line2d_3">
      <path d="M 47.5 320.526415 
L 529.2 320.526415 
" clip-path="url(#p633d7fb18b)" style="fill: none; stroke: #ffffff; stroke-width: 0.8; stroke-linecap: round"/>
     </g>
     <g id="text_3">
      <!-- −21 -->
      <g style="fill: #262626" transform="translate(10.953438 325.845321) scale(0.14 -0.14)">
       <defs>
        <path id="DejaVuSans-2212" d="M 678 2272 
L 4684 2272 
L 4684 1741 
L 678 1741 
L 678 2272 
z
" transform="scale(0.015625)"/>
        <path id="DejaVuSans-32" d="M 1228 531 
L 3431 531 
L 3431 0 
L 469 0 
L 469 531 
Q 828 903 1448 1529 
Q 2069 2156 2228 2338 
Q 2531 2678 2651 2914 
Q 2772 3150 2772 3378 
Q 2772 3750 2511 3984 
Q 2250 4219 1831 4219 
Q 1534 4219 1204 4116 
Q 875 4013 500 3803 
L 500 4441 
Q 881 4594 1212 4672 
Q 1544 4750 1819 4750 
Q 2544 4750 2975 4387 
Q 3406 4025 3406 3419 
Q 3406 3131 3298 2873 
Q 3191 2616 2906 2266 
Q 2828 2175 2409 1742 
Q 1991 1309 1228 531 
z
" transform="scale(0.015625)"/>
       </defs>
       <use xlink:href="#DejaVuSans-2212"/>
       <use xlink:href="#DejaVuSans-32" transform="translate(83.789062 0)"/>
       <use xlink:href="#DejaVuSans-31" transform="translate(147.412109 0)"/>
      </g>
     </g>
    </g>
    <g id="ytick_2">
     <g id="line2d_4">
      <path d="M 47.5 301.49407 
L 529.2 301.49407 
" clip-path="url(#p633d7fb18b)" style="fill: none; stroke: #ffffff; stroke-width: 0.8; stroke-linecap: round"/>
     </g>
     <g id="text_4">
      <!-- −18 -->
      <g style="fill: #262626" transform="translate(10.953438 306.812976) scale(0.14 -0.14)">
       <defs>
        <path id="DejaVuSans-38" d="M 2034 2216 
Q 1584 2216 1326 1975 
Q 1069 1734 1069 1313 
Q 1069 891 1326 650 
Q 1584 409 2034 409 
Q 2484 409 2743 651 
Q 3003 894 3003 1313 
Q 3003 1734 2745 1975 
Q 2488 2216 2034 2216 
z
M 1403 2484 
Q 997 2584 770 2862 
Q 544 3141 544 3541 
Q 544 4100 942 4425 
Q 1341 4750 2034 4750 
Q 2731 4750 3128 4425 
Q 3525 4100 3525 3541 
Q 3525 3141 3298 2862 
Q 3072 2584 2669 2484 
Q 3125 2378 3379 2068 
Q 3634 1759 3634 1313 
Q 3634 634 3220 271 
Q 2806 -91 2034 -91 
Q 1263 -91 848 271 
Q 434 634 434 1313 
Q 434 1759 690 2068 
Q 947 2378 1403 2484 
z
M 1172 3481 
Q 1172 3119 1398 2916 
Q 1625 2713 2034 2713 
Q 2441 2713 2670 2916 
Q 2900 3119 2900 3481 
Q 2900 3844 2670 4047 
Q 2441 4250 2034 4250 
Q 1625 4250 1398 4047 
Q 1172 3844 1172 3481 
z
" transform="scale(0.015625)"/>
       </defs>
       <use xlink:href="#DejaVuSans-2212"/>
       <use xlink:href="#DejaVuSans-31" transform="translate(83.789062 0)"/>
       <use xlink:href="#DejaVuSans-38" transform="translate(147.412109 0)"/>
      </g>
     </g>
    </g>
    <g id="ytick_3">
     <g id="line2d_5">
      <path d="M 47.5 282.461725 
L 529.2 282.461725 
" clip-path="url(#p633d7fb18b)" style="fill: none; stroke: #ffffff; stroke-width: 0.8; stroke-linecap: round"/>
     </g>
     <g id="text_5">
      <!-- −15 -->
      <g style="fill: #262626" transform="translate(10.953438 287.780631) scale(0.14 -0.14)">
       <defs>
        <path id="DejaVuSans-35" d="M 691 4666 
L 3169 4666 
L 3169 4134 
L 1269 4134 
L 1269 2991 
Q 1406 3038 1543 3061 
Q 1681 3084 1819 3084 
Q 2600 3084 3056 2656 
Q 3513 2228 3513 1497 
Q 3513 744 3044 326 
Q 2575 -91 1722 -91 
Q 1428 -91 1123 -41 
Q 819 9 494 109 
L 494 744 
Q 775 591 1075 516 
Q 1375 441 1709 441 
Q 2250 441 2565 725 
Q 2881 1009 2881 1497 
Q 2881 1984 2565 2268 
Q 2250 2553 1709 2553 
Q 1456 2553 1204 2497 
Q 953 2441 691 2322 
L 691 4666 
z
" transform="scale(0.015625)"/>
       </defs>
       <use xlink:href="#DejaVuSans-2212"/>
       <use xlink:href="#DejaVuSans-31" transform="translate(83.789062 0)"/>
       <use xlink:href="#DejaVuSans-35" transform="translate(147.412109 0)"/>
      </g>
     </g>
    </g>
    <g id="ytick_4">
     <g id="line2d_6">
      <path d="M 47.5 263.42938 
L 529.2 263.42938 
" clip-path="url(#p633d7fb18b)" style="fill: none; stroke: #ffffff; stroke-width: 0.8; stroke-linecap: round"/>
     </g>
     <g id="text_6">
      <!-- −12 -->
      <g style="fill: #262626" transform="translate(10.953438 268.748286) scale(0.14 -0.14)">
       <use xlink:href="#DejaVuSans-2212"/>
       <use xlink:href="#DejaVuSans-31" transform="translate(83.789062 0)"/>
       <use xlink:href="#DejaVuSans-32" transform="translate(147.412109 0)"/>
      </g>
     </g>
    </g>
    <g id="ytick_5">
     <g id="line2d_7">
      <path d="M 47.5 244.397035 
L 529.2 244.397035 
" clip-path="url(#p633d7fb18b)" style="fill: none; stroke: #ffffff; stroke-width: 0.8; stroke-linecap: round"/>
     </g>
     <g id="text_7">
      <!-- −9 -->
      <g style="fill: #262626" transform="translate(19.860938 249.715941) scale(0.14 -0.14)">
       <defs>
        <path id="DejaVuSans-39" d="M 703 97 
L 703 672 
Q 941 559 1184 500 
Q 1428 441 1663 441 
Q 2288 441 2617 861 
Q 2947 1281 2994 2138 
Q 2813 1869 2534 1725 
Q 2256 1581 1919 1581 
Q 1219 1581 811 2004 
Q 403 2428 403 3163 
Q 403 3881 828 4315 
Q 1253 4750 1959 4750 
Q 2769 4750 3195 4129 
Q 3622 3509 3622 2328 
Q 3622 1225 3098 567 
Q 2575 -91 1691 -91 
Q 1453 -91 1209 -44 
Q 966 3 703 97 
z
M 1959 2075 
Q 2384 2075 2632 2365 
Q 2881 2656 2881 3163 
Q 2881 3666 2632 3958 
Q 2384 4250 1959 4250 
Q 1534 4250 1286 3958 
Q 1038 3666 1038 3163 
Q 1038 2656 1286 2365 
Q 1534 2075 1959 2075 
z
" transform="scale(0.015625)"/>
       </defs>
       <use xlink:href="#DejaVuSans-2212"/>
       <use xlink:href="#DejaVuSans-39" transform="translate(83.789062 0)"/>
      </g>
     </g>
    </g>
    <g id="ytick_6">
     <g id="line2d_8">
      <path d="M 47.5 225.36469 
L 529.2 225.36469 
" clip-path="url(#p633d7fb18b)" style="fill: none; stroke: #ffffff; stroke-width: 0.8; stroke-linecap: round"/>
     </g>
     <g id="text_8">
      <!-- −6 -->
      <g style="fill: #262626" transform="translate(19.860938 230.683596) scale(0.14 -0.14)">
       <defs>
        <path id="DejaVuSans-36" d="M 2113 2584 
Q 1688 2584 1439 2293 
Q 1191 2003 1191 1497 
Q 1191 994 1439 701 
Q 1688 409 2113 409 
Q 2538 409 2786 701 
Q 3034 994 3034 1497 
Q 3034 2003 2786 2293 
Q 2538 2584 2113 2584 
z
M 3366 4563 
L 3366 3988 
Q 3128 4100 2886 4159 
Q 2644 4219 2406 4219 
Q 1781 4219 1451 3797 
Q 1122 3375 1075 2522 
Q 1259 2794 1537 2939 
Q 1816 3084 2150 3084 
Q 2853 3084 3261 2657 
Q 3669 2231 3669 1497 
Q 3669 778 3244 343 
Q 2819 -91 2113 -91 
Q 1303 -91 875 529 
Q 447 1150 447 2328 
Q 447 3434 972 4092 
Q 1497 4750 2381 4750 
Q 2619 4750 2861 4703 
Q 3103 4656 3366 4563 
z
" transform="scale(0.015625)"/>
       </defs>
       <use xlink:href="#DejaVuSans-2212"/>
       <use xlink:href="#DejaVuSans-36" transform="translate(83.789062 0)"/>
      </g>
     </g>
    </g>
    <g id="ytick_7">
     <g id="line2d_9">
      <path d="M 47.5 206.332345 
L 529.2 206.332345 
" clip-path="url(#p633d7fb18b)" style="fill: none; stroke: #ffffff; stroke-width: 0.8; stroke-linecap: round"/>
     </g>
     <g id="text_9">
      <!-- −3 -->
      <g style="fill: #262626" transform="translate(19.860938 211.651251) scale(0.14 -0.14)">
       <defs>
        <path id="DejaVuSans-33" d="M 2597 2516 
Q 3050 2419 3304 2112 
Q 3559 1806 3559 1356 
Q 3559 666 3084 287 
Q 2609 -91 1734 -91 
Q 1441 -91 1130 -33 
Q 819 25 488 141 
L 488 750 
Q 750 597 1062 519 
Q 1375 441 1716 441 
Q 2309 441 2620 675 
Q 2931 909 2931 1356 
Q 2931 1769 2642 2001 
Q 2353 2234 1838 2234 
L 1294 2234 
L 1294 2753 
L 1863 2753 
Q 2328 2753 2575 2939 
Q 2822 3125 2822 3475 
Q 2822 3834 2567 4026 
Q 2313 4219 1838 4219 
Q 1578 4219 1281 4162 
Q 984 4106 628 3988 
L 628 4550 
Q 988 4650 1302 4700 
Q 1616 4750 1894 4750 
Q 2613 4750 3031 4423 
Q 3450 4097 3450 3541 
Q 3450 3153 3228 2886 
Q 3006 2619 2597 2516 
z
" transform="scale(0.015625)"/>
       </defs>
       <use xlink:href="#DejaVuSans-2212"/>
       <use xlink:href="#DejaVuSans-33" transform="translate(83.789062 0)"/>
      </g>
     </g>
    </g>
    <g id="ytick_8">
     <g id="line2d_10">
      <path d="M 47.5 187.3 
L 529.2 187.3 
" clip-path="url(#p633d7fb18b)" style="fill: none; stroke: #ffffff; stroke-width: 0.8; stroke-linecap: round"/>
     </g>
     <g id="text_10">
      <!-- 0 -->
      <g style="fill: #262626" transform="translate(31.5925 192.618906) scale(0.14 -0.14)">
       <use xlink:href="#DejaVuSans-30"/>
      </g>
     </g>
    </g>
    <g id="ytick_9">
     <g id="line2d_11">
      <path d="M 47.5 168.267655 
L 529.2 168.267655 
" clip-path="url(#p633d7fb18b)" style="fill: none; stroke: #ffffff; stroke-width: 0.8; stroke-linecap: round"/>
     </g>
     <g id="text_11">
      <!-- 3 -->
      <g style="fill: #262626" transform="translate(31.5925 173.586561) scale(0.14 -0.14)">
       <use xlink:href="#DejaVuSans-33"/>
      </g>
     </g>
    </g>
    <g id="ytick_10">
     <g id="line2d_12">
      <path d="M 47.5 149.23531 
L 529.2 149.23531 
" clip-path="url(#p633d7fb18b)" style="fill: none; stroke: #ffffff; stroke-width: 0.8; stroke-linecap: round"/>
     </g>
     <g id="text_12">
      <!-- 6 -->
      <g style="fill: #262626" transform="translate(31.5925 154.554216) scale(0.14 -0.14)">
       <use xlink:href="#DejaVuSans-36"/>
      </g>
     </g>
    </g>
    <g id="ytick_11">
     <g id="line2d_13">
      <path d="M 47.5 130.202965 
L 529.2 130.202965 
" clip-path="url(#p633d7fb18b)" style="fill: none; stroke: #ffffff; stroke-width: 0.8; stroke-linecap: round"/>
     </g>
     <g id="text_13">
      <!-- 9 -->
      <g style="fill: #262626" transform="translate(31.5925 135.521871) scale(0.14 -0.14)">
       <use xlink:href="#DejaVuSans-39"/>
      </g>
     </g>
    </g>
    <g id="ytick_12">
     <g id="line2d_14">
      <path d="M 47.5 111.17062 
L 529.2 111.17062 
" clip-path="url(#p633d7fb18b)" style="fill: none; stroke: #ffffff; stroke-width: 0.8; stroke-linecap: round"/>
     </g>
     <g id="text_14">
      <!-- 12 -->
      <g style="fill: #262626" transform="translate(22.685 116.489526) scale(0.14 -0.14)">
       <use xlink:href="#DejaVuSans-31"/>
       <use xlink:href="#DejaVuSans-32" transform="translate(63.623047 0)"/>
      </g>
     </g>
    </g>
    <g id="ytick_13">
     <g id="line2d_15">
      <path d="M 47.5 92.138275 
L 529.2 92.138275 
" clip-path="url(#p633d7fb18b)" style="fill: none; stroke: #ffffff; stroke-width: 0.8; stroke-linecap: round"/>
     </g>
     <g id="text_15">
      <!-- 15 -->
      <g style="fill: #262626" transform="translate(22.685 97.457181) scale(0.14 -0.14)">
       <use xlink:href="#DejaVuSans-31"/>
       <use xlink:href="#DejaVuSans-35" transform="translate(63.623047 0)"/>
      </g>
     </g>
    </g>
    <g id="ytick_14">
     <g id="line2d_16">
      <path d="M 47.5 73.10593 
L 529.2 73.10593 
" clip-path="url(#p633d7fb18b)" style="fill: none; stroke: #ffffff; stroke-width: 0.8; stroke-linecap: round"/>
     </g>
     <g id="text_16">
      <!-- 18 -->
      <g style="fill: #262626" transform="translate(22.685 78.424836) scale(0.14 -0.14)">
       <use xlink:href="#DejaVuSans-31"/>
       <use xlink:href="#DejaVuSans-38" transform="translate(63.623047 0)"/>
      </g>
     </g>
    </g>
    <g id="ytick_15">
     <g id="line2d_17">
      <path d="M 47.5 54.073585 
L 529.2 54.073585 
" clip-path="url(#p633d7fb18b)" style="fill: none; stroke: #ffffff; stroke-width: 0.8; stroke-linecap: round"/>
     </g>
     <g id="text_17">
      <!-- 21 -->
      <g style="fill: #262626" transform="translate(22.685 59.392491) scale(0.14 -0.14)">
       <use xlink:href="#DejaVuSans-32"/>
       <use xlink:href="#DejaVuSans-31" transform="translate(63.623047 0)"/>
      </g>
     </g>
    </g>
   </g>
   <g id="FillBetweenPolyCollection_1">
    <path d="M 56.640417 312.754874 
L 56.640417 317.830166 
L 61.320311 318.966675 
L 66.000205 318.186778 
L 70.680099 316.169703 
L 75.359992 317.167342 
L 80.039886 317.038914 
L 84.71978 315.087111 
L 89.399674 306.667715 
L 94.079567 306.805622 
L 98.759461 299.004598 
L 103.439355 287.453743 
L 108.119249 288.176053 
L 112.799142 265.087853 
L 117.479036 265.342723 
L 122.15893 232.583266 
L 126.838824 225.302567 
L 131.518717 212.115376 
L 136.198611 215.898582 
L 140.878505 244.36906 
L 145.558398 197.850011 
L 150.238292 179.866555 
L 154.918186 181.299666 
L 159.59808 183.793968 
L 164.277973 172.743794 
L 168.957867 172.458663 
L 173.637761 176.580565 
L 178.317655 173.328091 
L 182.997548 173.666453 
L 187.677442 177.624995 
L 192.357336 180.254679 
L 197.03723 178.620027 
L 201.717123 179.260689 
L 206.397017 189.384552 
L 211.076911 176.901909 
L 215.756805 162.364556 
L 220.436698 148.377416 
L 225.116592 151.058622 
L 229.796486 148.613135 
L 234.47638 151.46492 
L 239.156273 146.897267 
L 243.836167 140.635848 
L 248.516061 134.967109 
L 253.195954 147.524161 
L 257.875848 135.026865 
L 262.555742 130.550182 
L 267.235636 140.322643 
L 271.915529 127.043882 
L 276.595423 142.132532 
L 281.275317 126.24702 
L 285.955211 126.972916 
L 290.635104 145.509034 
L 295.314998 129.149742 
L 299.994892 132.968245 
L 304.674786 139.38919 
L 309.354679 154.010989 
L 314.034573 138.916928 
L 318.714467 130.268398 
L 323.394361 116.299721 
L 328.074254 123.262047 
L 332.754148 141.02735 
L 337.434042 134.373123 
L 342.113935 138.087276 
L 346.793829 133.020209 
L 351.473723 134.700826 
L 356.153617 131.682625 
L 360.83351 129.517099 
L 365.513404 126.407664 
L 370.193298 140.795137 
L 374.873192 125.189497 
L 379.553085 150.934162 
L 384.232979 151.446528 
L 388.912873 161.378056 
L 393.592767 130.55549 
L 398.27266 188.397742 
L 402.952554 168.360773 
L 407.632448 124.270646 
L 412.312342 113.299721 
L 416.992235 121.772437 
L 421.672129 135.620238 
L 426.352023 108.63047 
L 431.031917 96.619789 
L 435.71181 98.210059 
L 440.391704 90.725948 
L 445.071598 86.476866 
L 449.751491 132.855534 
L 454.431385 80.905246 
L 459.111279 85.837362 
L 463.791173 78.645694 
L 468.471066 86.837394 
L 473.15096 147.993427 
L 477.830854 130.319493 
L 482.510748 79.082465 
L 487.190641 74.428994 
L 491.870535 84.78957 
L 496.550429 64.541375 
L 501.230323 62.820799 
L 505.910216 98.802726 
L 510.59011 67.215951 
L 515.270004 75.703866 
L 519.949898 86.455853 
L 519.949898 47.702189 
L 519.949898 47.702189 
L 515.270004 56.868147 
L 510.59011 56.791506 
L 505.910216 50.581192 
L 501.230323 55.476955 
L 496.550429 56.928437 
L 491.870535 58.250233 
L 487.190641 58.143019 
L 482.510748 56.661605 
L 477.830854 46.661325 
L 473.15096 49.92297 
L 468.471066 58.740054 
L 463.791173 63.125286 
L 459.111279 50.858326 
L 454.431385 56.424853 
L 449.751491 63.79204 
L 445.071598 47.363969 
L 440.391704 50.727825 
L 435.71181 52.759887 
L 431.031917 47.054424 
L 426.352023 48.366386 
L 421.672129 44.215432 
L 416.992235 40.934122 
L 412.312342 45.917574 
L 407.632448 55.565023 
L 402.952554 77.770898 
L 398.27266 69.470542 
L 393.592767 34.371509 
L 388.912873 67.941711 
L 384.232979 55.986041 
L 379.553085 46.030618 
L 374.873192 35.613828 
L 370.193298 43.798619 
L 365.513404 36.298895 
L 360.83351 48.415336 
L 356.153617 47.835839 
L 351.473723 37.521905 
L 346.793829 41.422963 
L 342.113935 30.011781 
L 337.434042 31.505494 
L 332.754148 38.80832 
L 328.074254 36.272454 
L 323.394361 39.111106 
L 318.714467 46.395214 
L 314.034573 51.386531 
L 309.354679 49.615112 
L 304.674786 42.66692 
L 299.994892 49.087864 
L 295.314998 36.411669 
L 290.635104 39.719133 
L 285.955211 44.615404 
L 281.275317 38.045567 
L 276.595423 46.902104 
L 271.915529 39.786351 
L 267.235636 42.685084 
L 262.555742 41.67255 
L 257.875848 41.319541 
L 253.195954 59.591203 
L 248.516061 43.599738 
L 243.836167 53.47408 
L 239.156273 54.8256 
L 234.47638 58.18809 
L 229.796486 45.813999 
L 225.116592 59.86321 
L 220.436698 54.614273 
L 215.756805 53.949775 
L 211.076911 50.514623 
L 206.397017 71.972995 
L 201.717123 61.161278 
L 197.03723 54.506209 
L 192.357336 56.043614 
L 187.677442 68.189471 
L 182.997548 57.873754 
L 178.317655 73.437991 
L 173.637761 88.266246 
L 168.957867 58.447132 
L 164.277973 54.989944 
L 159.59808 72.805493 
L 154.918186 67.686857 
L 150.238292 73.878055 
L 145.558398 79.367824 
L 140.878505 80.746843 
L 136.198611 95.260268 
L 131.518717 101.58112 
L 126.838824 90.931575 
L 122.15893 118.226303 
L 117.479036 153.348876 
L 112.799142 117.442291 
L 108.119249 141.300542 
L 103.439355 197.216652 
L 98.759461 251.961799 
L 94.079567 272.392087 
L 89.399674 285.852636 
L 84.71978 292.024704 
L 80.039886 302.761131 
L 75.359992 308.342407 
L 70.680099 307.119605 
L 66.000205 311.763851 
L 61.320311 314.156012 
L 56.640417 312.754874 
z
" clip-path="url(#p633d7fb18b)" style="fill: #023eff; fill-opacity: 0.1"/>
   </g>
   <g id="line2d_18">
    <path d="M 56.640417 314.1823 
L 61.320311 313.389286 
L 66.000205 311.803257 
L 70.680099 308.631199 
L 75.359992 311.803257 
L 80.039886 302.287084 
L 84.71978 306.252156 
L 89.399674 292.770912 
L 94.079567 284.840768 
L 98.759461 241.224978 
L 103.439355 167.474641 
L 108.119249 88.966217 
L 112.799142 89.759232 
L 117.479036 104.826505 
L 122.15893 119.893778 
L 126.838824 65.968801 
L 131.518717 79.450045 
L 136.198611 81.036074 
L 140.878505 85.001146 
L 145.558398 69.933872 
L 150.238292 90.552246 
L 154.918186 70.726887 
L 159.59808 65.175786 
L 164.277973 72.312916 
L 168.957867 78.657031 
L 173.637761 88.966217 
L 178.317655 102.447462 
L 182.997548 65.968801 
L 187.677442 67.554829 
L 192.357336 66.761815 
L 197.03723 62.003729 
L 201.717123 62.796743 
L 206.397017 61.210714 
L 211.076911 60.4177 
L 215.756805 60.4177 
L 220.436698 69.140858 
L 225.116592 82.622102 
L 229.796486 65.968801 
L 234.47638 71.519901 
L 239.156273 61.210714 
L 243.836167 68.347844 
L 248.516061 62.003729 
L 253.195954 79.450045 
L 257.875848 60.4177 
L 262.555742 60.4177 
L 267.235636 69.140858 
L 271.915529 72.312916 
L 276.595423 60.4177 
L 281.275317 60.4177 
L 285.955211 89.759232 
L 290.635104 78.657031 
L 295.314998 60.4177 
L 299.994892 84.208131 
L 304.674786 78.657031 
L 309.354679 148.442296 
L 314.034573 124.651864 
L 318.714467 60.4177 
L 323.394361 60.4177 
L 328.074254 60.4177 
L 332.754148 89.759232 
L 337.434042 60.4177 
L 342.113935 60.4177 
L 346.793829 91.345261 
L 351.473723 82.622102 
L 356.153617 116.721721 
L 360.83351 112.756649 
L 365.513404 60.4177 
L 370.193298 60.4177 
L 374.873192 60.4177 
L 379.553085 132.582008 
L 384.232979 105.619519 
L 388.912873 146.063252 
L 393.592767 60.4177 
L 398.27266 130.995979 
L 402.952554 130.995979 
L 407.632448 89.759232 
L 412.312342 60.4177 
L 416.992235 65.968801 
L 421.672129 60.4177 
L 426.352023 79.450045 
L 431.031917 66.761815 
L 435.71181 75.484973 
L 440.391704 74.691959 
L 445.071598 60.4177 
L 449.751491 60.4177 
L 454.431385 60.4177 
L 459.111279 60.4177 
L 463.791173 60.4177 
L 468.471066 60.4177 
L 473.15096 86.587174 
L 477.830854 60.4177 
L 482.510748 87.380189 
L 487.190641 60.4177 
L 491.870535 79.450045 
L 496.550429 60.4177 
L 501.230323 60.4177 
L 505.910216 120.686792 
L 510.59011 60.4177 
L 515.270004 84.208131 
L 519.949898 60.4177 
" clip-path="url(#p633d7fb18b)" style="fill: none; stroke: #1ac938; stroke-opacity: 0.27; stroke-width: 1.25; stroke-linecap: round"/>
   </g>
   <g id="line2d_19">
    <path d="M 56.640417 311.010243 
L 61.320311 317.354358 
L 66.000205 316.561343 
L 70.680099 309.424214 
L 75.359992 314.1823 
L 80.039886 314.975314 
L 84.71978 310.217228 
L 89.399674 311.010243 
L 94.079567 303.080099 
L 98.759461 298.322013 
L 103.439355 289.598854 
L 108.119249 290.391869 
L 112.799142 262.636366 
L 117.479036 262.636366 
L 122.15893 249.948136 
L 126.838824 238.845934 
L 131.518717 222.192633 
L 136.198611 229.329762 
L 140.878505 298.322013 
L 145.558398 226.950719 
L 150.238292 220.606604 
L 154.918186 213.469474 
L 159.59808 223.778661 
L 164.277973 217.434546 
L 168.957867 211.883446 
L 173.637761 204.746316 
L 178.317655 211.090431 
L 182.997548 211.883446 
L 187.677442 202.367273 
L 192.357336 222.192633 
L 197.03723 208.711388 
L 201.717123 206.332345 
L 206.397017 223.778661 
L 211.076911 198.402201 
L 215.756805 197.609187 
L 220.436698 192.058086 
L 225.116592 192.058086 
L 229.796486 198.402201 
L 234.47638 185.713971 
L 239.156273 186.506986 
L 243.836167 182.541914 
L 248.516061 180.162871 
L 253.195954 184.920957 
L 257.875848 181.748899 
L 262.555742 173.818756 
L 267.235636 188.093014 
L 271.915529 169.853684 
L 276.595423 181.748899 
L 281.275317 169.853684 
L 285.955211 164.302583 
L 290.635104 197.609187 
L 295.314998 175.404784 
L 299.994892 172.232727 
L 304.674786 185.713971 
L 309.354679 180.162871 
L 314.034573 167.474641 
L 318.714467 167.474641 
L 323.394361 154.786411 
L 328.074254 166.681626 
L 332.754148 188.886029 
L 337.434042 185.713971 
L 342.113935 192.058086 
L 346.793829 174.61177 
L 351.473723 180.955885 
L 356.153617 159.544497 
L 360.83351 157.958468 
L 365.513404 171.439712 
L 370.193298 187.3 
L 374.873192 169.853684 
L 379.553085 185.713971 
L 384.232979 184.920957 
L 388.912873 184.127942 
L 393.592767 178.576842 
L 398.27266 191.265072 
L 402.952554 185.713971 
L 407.632448 155.579425 
L 412.312342 146.856267 
L 416.992235 161.92354 
L 421.672129 180.162871 
L 426.352023 136.54708 
L 431.031917 120.686792 
L 435.71181 119.100764 
L 440.391704 107.998562 
L 445.071598 105.619519 
L 449.751491 129.409951 
L 454.431385 83.415117 
L 459.111279 103.240476 
L 463.791173 80.243059 
L 468.471066 86.587174 
L 473.15096 95.310332 
L 477.830854 77.071002 
L 482.510748 73.10593 
L 487.190641 76.277987 
L 491.870535 60.4177 
L 496.550429 63.589757 
L 501.230323 54.073585 
L 505.910216 58.038657 
L 510.59011 62.003729 
L 515.270004 64.382772 
L 519.949898 55.659614 
" clip-path="url(#p633d7fb18b)" style="fill: none; stroke: #1ac938; stroke-opacity: 0.27; stroke-width: 1.25; stroke-linecap: round"/>
   </g>
   <g id="line2d_20">
    <path d="M 56.640417 317.354358 
L 61.320311 314.975314 
L 66.000205 313.389286 
L 70.680099 311.010243 
L 75.359992 308.631199 
L 80.039886 309.424214 
L 84.71978 284.047754 
L 89.399674 294.356941 
L 94.079567 291.977898 
L 98.759461 286.426797 
L 103.439355 234.087848 
L 108.119249 176.197799 
L 112.799142 119.100764 
L 117.479036 205.539331 
L 122.15893 99.275404 
L 126.838824 92.138275 
L 131.518717 105.619519 
L 136.198611 86.587174 
L 140.878505 73.10593 
L 145.558398 77.071002 
L 150.238292 69.933872 
L 154.918186 63.589757 
L 159.59808 104.033491 
L 164.277973 61.210714 
L 168.957867 75.484973 
L 173.637761 127.030907 
L 178.317655 88.173203 
L 182.997548 71.519901 
L 187.677442 113.549663 
L 192.357336 83.415117 
L 197.03723 71.519901 
L 201.717123 77.864016 
L 206.397017 112.756649 
L 211.076911 62.003729 
L 215.756805 78.657031 
L 220.436698 86.587174 
L 225.116592 64.382772 
L 229.796486 87.380189 
L 234.47638 129.409951 
L 239.156273 93.724304 
L 243.836167 88.966217 
L 248.516061 63.589757 
L 253.195954 83.415117 
L 257.875848 67.554829 
L 262.555742 57.245642 
L 267.235636 65.175786 
L 271.915529 56.452628 
L 276.595423 58.038657 
L 281.275317 58.038657 
L 285.955211 54.073585 
L 290.635104 60.4177 
L 295.314998 55.659614 
L 299.994892 56.452628 
L 304.674786 54.073585 
L 309.354679 54.866599 
L 314.034573 61.210714 
L 318.714467 61.210714 
L 323.394361 58.038657 
L 328.074254 56.452628 
L 332.754148 56.452628 
L 337.434042 54.866599 
L 342.113935 55.659614 
L 346.793829 54.073585 
L 351.473723 54.073585 
L 356.153617 54.073585 
L 360.83351 54.073585 
L 365.513404 58.831671 
L 370.193298 62.796743 
L 374.873192 57.245642 
L 379.553085 54.866599 
L 384.232979 57.245642 
L 388.912873 114.342677 
L 393.592767 57.245642 
L 398.27266 63.589757 
L 402.952554 55.659614 
L 407.632448 65.968801 
L 412.312342 62.003729 
L 416.992235 62.003729 
L 421.672129 68.347844 
L 426.352023 59.624686 
L 431.031917 57.245642 
L 435.71181 56.452628 
L 440.391704 55.659614 
L 445.071598 54.073585 
L 449.751491 57.245642 
L 454.431385 54.866599 
L 459.111279 57.245642 
L 463.791173 68.347844 
L 468.471066 63.589757 
L 473.15096 58.038657 
L 477.830854 65.175786 
L 482.510748 56.452628 
L 487.190641 54.073585 
L 491.870535 58.831671 
L 496.550429 54.073585 
L 501.230323 55.659614 
L 505.910216 57.245642 
L 510.59011 55.659614 
L 515.270004 56.452628 
L 519.949898 58.831671 
" clip-path="url(#p633d7fb18b)" style="fill: none; stroke: #1ac938; stroke-opacity: 0.27; stroke-width: 1.25; stroke-linecap: round"/>
   </g>
   <g id="line2d_21">
    <path d="M 56.640417 315.768329 
L 61.320311 316.561343 
L 66.000205 312.596271 
L 70.680099 308.631199 
L 75.359992 308.631199 
L 80.039886 302.287084 
L 84.71978 299.115027 
L 89.399674 280.082682 
L 94.079567 259.464308 
L 98.759461 253.913208 
L 103.439355 231.708805 
L 108.119249 257.085265 
L 112.799142 215.848518 
L 117.479036 222.985647 
L 122.15893 215.848518 
L 126.838824 207.125359 
L 131.518717 202.367273 
L 136.198611 191.265072 
L 140.878505 194.437129 
L 145.558398 173.025741 
L 150.238292 107.998562 
L 154.918186 111.963634 
L 159.59808 95.310332 
L 164.277973 77.071002 
L 168.957867 62.003729 
L 173.637761 86.587174 
L 178.317655 71.519901 
L 182.997548 75.484973 
L 187.677442 63.589757 
L 192.357336 62.003729 
L 197.03723 66.761815 
L 201.717123 77.864016 
L 206.397017 86.587174 
L 211.076911 64.382772 
L 215.756805 60.4177 
L 220.436698 62.796743 
L 225.116592 108.791577 
L 229.796486 60.4177 
L 234.47638 65.968801 
L 239.156273 60.4177 
L 243.836167 80.243059 
L 248.516061 65.175786 
L 253.195954 111.17062 
L 257.875848 64.382772 
L 262.555742 61.210714 
L 267.235636 78.657031 
L 271.915529 62.796743 
L 276.595423 109.584591 
L 281.275317 68.347844 
L 285.955211 62.003729 
L 290.635104 62.003729 
L 295.314998 62.796743 
L 299.994892 80.243059 
L 304.674786 58.831671 
L 309.354679 57.245642 
L 314.034573 58.038657 
L 318.714467 57.245642 
L 323.394361 60.4177 
L 328.074254 59.624686 
L 332.754148 59.624686 
L 337.434042 58.831671 
L 342.113935 57.245642 
L 346.793829 62.003729 
L 351.473723 58.831671 
L 356.153617 64.382772 
L 360.83351 61.210714 
L 365.513404 58.831671 
L 370.193298 63.589757 
L 374.873192 60.4177 
L 379.553085 65.175786 
L 384.232979 116.721721 
L 388.912873 69.140858 
L 393.592767 60.4177 
L 398.27266 60.4177 
L 402.952554 92.138275 
L 407.632448 60.4177 
L 412.312342 62.003729 
L 416.992235 61.210714 
L 421.672129 60.4177 
L 426.352023 60.4177 
L 431.031917 60.4177 
L 435.71181 60.4177 
L 440.391704 61.210714 
L 445.071598 60.4177 
L 449.751491 103.240476 
L 454.431385 61.210714 
L 459.111279 60.4177 
L 463.791173 79.450045 
L 468.471066 92.931289 
L 473.15096 192.851101 
L 477.830854 171.439712 
L 482.510748 62.003729 
L 487.190641 67.554829 
L 491.870535 93.724304 
L 496.550429 65.175786 
L 501.230323 62.003729 
L 505.910216 60.4177 
L 510.59011 60.4177 
L 515.270004 62.003729 
L 519.949898 105.619519 
" clip-path="url(#p633d7fb18b)" style="fill: none; stroke: #1ac938; stroke-opacity: 0.27; stroke-width: 1.25; stroke-linecap: round"/>
   </g>
   <g id="line2d_22">
    <path d="M 56.640417 318.147372 
L 61.320311 320.526415 
L 66.000205 320.526415 
L 70.680099 320.526415 
L 75.359992 320.526415 
L 80.039886 320.526415 
L 84.71978 318.147372 
L 89.399674 303.080099 
L 94.079567 308.631199 
L 98.759461 297.528998 
L 103.439355 288.80584 
L 108.119249 261.050337 
L 112.799142 268.980481 
L 117.479036 250.74115 
L 122.15893 192.058086 
L 126.838824 186.506986 
L 131.518717 174.61177 
L 136.198611 189.679043 
L 140.878505 161.92354 
L 145.558398 146.063252 
L 150.238292 145.270238 
L 154.918186 162.716554 
L 159.59808 153.200382 
L 164.277973 141.305166 
L 168.957867 149.23531 
L 173.637761 154.786411 
L 178.317655 143.684209 
L 182.997548 153.993396 
L 187.677442 167.474641 
L 192.357336 156.372439 
L 197.03723 173.818756 
L 201.717123 176.197799 
L 206.397017 169.060669 
L 211.076911 183.334928 
L 215.756805 143.684209 
L 220.436698 96.896361 
L 225.116592 79.450045 
L 229.796486 73.898944 
L 234.47638 71.519901 
L 239.156273 102.447462 
L 243.836167 65.175786 
L 248.516061 75.484973 
L 253.195954 58.831671 
L 257.875848 66.761815 
L 262.555742 77.864016 
L 267.235636 56.452628 
L 271.915529 55.659614 
L 276.595423 62.796743 
L 281.275317 54.073585 
L 285.955211 58.831671 
L 290.635104 64.382772 
L 295.314998 59.624686 
L 299.994892 62.003729 
L 304.674786 77.864016 
L 309.354679 68.347844 
L 314.034573 64.382772 
L 318.714467 95.310332 
L 323.394361 54.866599 
L 328.074254 55.659614 
L 332.754148 54.866599 
L 337.434042 54.866599 
L 342.113935 54.866599 
L 346.793829 54.073585 
L 351.473723 54.073585 
L 356.153617 54.073585 
L 360.83351 58.831671 
L 365.513404 57.245642 
L 370.193298 87.380189 
L 374.873192 54.073585 
L 379.553085 54.073585 
L 384.232979 54.073585 
L 388.912873 59.624686 
L 393.592767 55.659614 
L 398.27266 198.402201 
L 402.952554 150.821339 
L 407.632448 77.864016 
L 412.312342 66.761815 
L 416.992235 55.659614 
L 421.672129 80.243059 
L 426.352023 56.452628 
L 431.031917 54.073585 
L 435.71181 65.968801 
L 440.391704 54.073585 
L 445.071598 54.073585 
L 449.751491 141.305166 
L 454.431385 83.415117 
L 459.111279 60.4177 
L 463.791173 65.968801 
L 468.471066 60.4177 
L 473.15096 62.003729 
L 477.830854 68.347844 
L 482.510748 60.4177 
L 487.190641 73.10593 
L 491.870535 65.175786 
L 496.550429 60.4177 
L 501.230323 63.589757 
L 505.910216 77.071002 
L 510.59011 71.519901 
L 515.270004 64.382772 
L 519.949898 54.866599 
" clip-path="url(#p633d7fb18b)" style="fill: none; stroke: #1ac938; stroke-opacity: 0.27; stroke-width: 1.25; stroke-linecap: round"/>
   </g>
   <g id="line2d_23">
    <path d="M 56.640417 54.073585 
L 61.320311 68.322989 
L 66.000205 86.834729 
L 70.680099 106.963828 
L 75.359992 128.374073 
L 80.039886 146.80231 
L 84.71978 181.188864 
L 89.399674 201.067356 
L 94.079567 209.341999 
L 98.759461 227.977741 
L 103.439355 253.925955 
L 108.119249 253.26769 
L 112.799142 252.853346 
L 117.479036 248.886106 
L 122.15893 252.534002 
L 126.838824 245.925475 
L 131.518717 255.09815 
L 136.198611 261.604139 
L 140.878505 251.456683 
L 145.558398 263.906615 
L 150.238292 263.581315 
L 154.918186 258.024802 
L 159.59808 256.339852 
L 164.277973 255.740382 
L 168.957867 264.207031 
L 173.637761 260.230954 
L 178.317655 262.76964 
L 182.997548 258.718319 
L 187.677442 267.747349 
L 192.357336 272.344079 
L 197.03723 276.127914 
L 201.717123 275.625675 
L 206.397017 284.111244 
L 211.076911 281.781744 
L 215.756805 287.398581 
L 220.436698 285.41501 
L 225.116592 293.586497 
L 229.796486 292.900964 
L 234.47638 296.038563 
L 239.156273 288.033327 
L 243.836167 281.166503 
L 248.516061 284.484246 
L 253.195954 286.06475 
L 257.875848 289.49914 
L 262.555742 290.706761 
L 267.235636 294.728291 
L 271.915529 294.747962 
L 276.595423 291.073755 
L 281.275317 295.239739 
L 285.955211 300.238965 
L 290.635104 300.041539 
L 295.314998 308.581892 
L 299.994892 308.587595 
L 304.674786 313.481809 
L 309.354679 309.559606 
L 314.034573 299.122507 
L 318.714467 306.021142 
L 323.394361 297.206367 
L 328.074254 306.055061 
L 332.754148 303.049619 
L 337.434042 311.898876 
L 342.113935 320.526415 
L 346.793829 318.820887 
L 351.473723 312.337364 
L 356.153617 306.971441 
L 360.83351 306.61601 
L 365.513404 306.792668 
L 370.193298 307.525703 
L 374.873192 307.833654 
L 379.553085 302.458416 
L 384.232979 293.034969 
L 388.912873 283.803938 
L 393.592767 289.268718 
L 398.27266 293.167302 
L 402.952554 290.55051 
L 407.632448 282.867325 
L 412.312342 286.446962 
L 416.992235 296.393588 
L 421.672129 290.649959 
L 426.352023 291.001923 
L 431.031917 292.909511 
L 435.71181 299.275749 
L 440.391704 301.205417 
L 445.071598 307.361898 
L 449.751491 311.656405 
L 454.431385 304.556616 
L 459.111279 294.678763 
L 463.791173 288.591434 
L 468.471066 276.569836 
L 473.15096 277.286099 
L 477.830854 269.693802 
L 482.510748 273.923912 
L 487.190641 273.644284 
L 491.870535 275.774256 
L 496.550429 270.526298 
L 501.230323 283.841515 
L 505.910216 282.733537 
L 510.59011 285.310184 
L 515.270004 284.255751 
L 519.949898 281.314381 
" clip-path="url(#p633d7fb18b)" style="fill: none; stroke: #8b2be2; stroke-width: 1.5; stroke-linecap: round"/>
   </g>
   <g id="line2d_24">
    <path d="M 56.640417 315.29252 
L 61.320311 316.561343 
L 66.000205 314.975314 
L 70.680099 311.644654 
L 75.359992 312.754874 
L 80.039886 309.900022 
L 84.71978 303.555907 
L 89.399674 296.260175 
L 94.079567 289.598854 
L 98.759461 275.483199 
L 103.439355 242.335198 
L 108.119249 214.738297 
L 112.799142 191.265072 
L 117.479036 209.3458 
L 122.15893 175.404784 
L 126.838824 158.117071 
L 131.518717 156.848248 
L 136.198611 155.579425 
L 140.878505 162.557951 
L 145.558398 138.608917 
L 150.238292 126.872305 
L 154.918186 124.493261 
L 159.59808 128.29973 
L 164.277973 113.866869 
L 168.957867 115.452898 
L 173.637761 132.423405 
L 178.317655 123.383041 
L 182.997548 115.770103 
L 187.677442 122.907233 
L 192.357336 118.149146 
L 197.03723 116.563118 
L 201.717123 120.210984 
L 206.397017 130.678774 
L 211.076911 113.708266 
L 215.756805 108.157165 
L 220.436698 101.495845 
L 225.116592 105.460916 
L 229.796486 97.213567 
L 234.47638 104.826505 
L 239.156273 100.861433 
L 243.836167 97.054964 
L 248.516061 89.283423 
L 253.195954 103.557682 
L 257.875848 88.173203 
L 262.555742 86.111366 
L 267.235636 91.503863 
L 271.915529 83.415117 
L 276.595423 94.517318 
L 281.275317 82.146294 
L 285.955211 85.79416 
L 290.635104 92.614084 
L 295.314998 82.780705 
L 299.994892 91.028055 
L 304.674786 91.028055 
L 309.354679 101.81305 
L 314.034573 95.15173 
L 318.714467 88.331806 
L 323.394361 77.705413 
L 328.074254 79.767251 
L 332.754148 89.917835 
L 337.434042 82.939308 
L 342.113935 84.049528 
L 346.793829 87.221586 
L 351.473723 86.111366 
L 356.153617 89.759232 
L 360.83351 88.966217 
L 365.513404 81.353279 
L 370.193298 92.296878 
L 374.873192 80.401662 
L 379.553085 98.48239 
L 384.232979 103.716285 
L 388.912873 114.659883 
L 393.592767 82.4635 
L 398.27266 128.934142 
L 402.952554 123.065836 
L 407.632448 89.917835 
L 412.312342 79.608648 
L 416.992235 81.353279 
L 421.672129 89.917835 
L 426.352023 78.498428 
L 431.031917 71.837107 
L 435.71181 75.484973 
L 440.391704 70.726887 
L 445.071598 66.920418 
L 449.751491 98.323787 
L 454.431385 68.665049 
L 459.111279 68.347844 
L 463.791173 70.88549 
L 468.471066 72.788724 
L 473.15096 98.958199 
L 477.830854 88.490409 
L 482.510748 67.872035 
L 487.190641 66.286006 
L 491.870535 71.519901 
L 496.550429 60.734906 
L 501.230323 59.148877 
L 505.910216 74.691959 
L 510.59011 62.003729 
L 515.270004 66.286006 
L 519.949898 67.079021 
" clip-path="url(#p633d7fb18b)" style="fill: none; stroke: #023eff; stroke-width: 2; stroke-linecap: round"/>
   </g>
   <g id="line2d_25">
    <path d="M 47.5 63.589757 
L 529.2 63.589757 
" clip-path="url(#p633d7fb18b)" style="fill: none; stroke-dasharray: 1.25,2.0625; stroke-dashoffset: 0; stroke: #000000; stroke-opacity: 0.6; stroke-width: 1.25"/>
   </g>
   <g id="patch_3">
    <path d="M 47.5 328.52 
L 47.5 46.08 
" style="fill: none; stroke: #ffffff; stroke-width: 0.8; stroke-linejoin: miter; stroke-linecap: square"/>
   </g>
   <g id="patch_4">
    <path d="M 529.2 328.52 
L 529.2 46.08 
" style="fill: none; stroke: #ffffff; stroke-width: 0.8; stroke-linejoin: miter; stroke-linecap: square"/>
   </g>
   <g id="patch_5">
    <path d="M 47.5 328.52 
L 529.2 328.52 
" style="fill: none; stroke: #ffffff; stroke-width: 0.8; stroke-linejoin: miter; stroke-linecap: square"/>
   </g>
   <g id="patch_6">
    <path d="M 47.5 46.08 
L 529.2 46.08 
" style="fill: none; stroke: #ffffff; stroke-width: 0.8; stroke-linejoin: miter; stroke-linecap: square"/>
   </g>
  </g>
  <g id="text_18">
   <!-- CMU-Net | PM -->
   <g style="fill: #262626" transform="translate(177.133125 25.54125) scale(0.24 -0.24)">
    <defs>
     <path id="DejaVuSans-Bold-43" d="M 4288 256 
Q 3956 84 3597 -3 
Q 3238 -91 2847 -91 
Q 1681 -91 1000 561 
Q 319 1213 319 2328 
Q 319 3447 1000 4098 
Q 1681 4750 2847 4750 
Q 3238 4750 3597 4662 
Q 3956 4575 4288 4403 
L 4288 3438 
Q 3953 3666 3628 3772 
Q 3303 3878 2944 3878 
Q 2300 3878 1931 3465 
Q 1563 3053 1563 2328 
Q 1563 1606 1931 1193 
Q 2300 781 2944 781 
Q 3303 781 3628 887 
Q 3953 994 4288 1222 
L 4288 256 
z
" transform="scale(0.015625)"/>
     <path id="DejaVuSans-Bold-4d" d="M 588 4666 
L 2119 4666 
L 3181 2169 
L 4250 4666 
L 5778 4666 
L 5778 0 
L 4641 0 
L 4641 3413 
L 3566 897 
L 2803 897 
L 1728 3413 
L 1728 0 
L 588 0 
L 588 4666 
z
" transform="scale(0.015625)"/>
     <path id="DejaVuSans-Bold-55" d="M 588 4666 
L 1791 4666 
L 1791 1869 
Q 1791 1291 1980 1042 
Q 2169 794 2597 794 
Q 3028 794 3217 1042 
Q 3406 1291 3406 1869 
L 3406 4666 
L 4609 4666 
L 4609 1869 
Q 4609 878 4112 393 
Q 3616 -91 2597 -91 
Q 1581 -91 1084 393 
Q 588 878 588 1869 
L 588 4666 
z
" transform="scale(0.015625)"/>
     <path id="DejaVuSans-Bold-2d" d="M 347 2297 
L 2309 2297 
L 2309 1388 
L 347 1388 
L 347 2297 
z
" transform="scale(0.015625)"/>
     <path id="DejaVuSans-Bold-4e" d="M 588 4666 
L 1931 4666 
L 3628 1466 
L 3628 4666 
L 4769 4666 
L 4769 0 
L 3425 0 
L 1728 3200 
L 1728 0 
L 588 0 
L 588 4666 
z
" transform="scale(0.015625)"/>
     <path id="DejaVuSans-Bold-65" d="M 4031 1759 
L 4031 1441 
L 1416 1441 
Q 1456 1047 1700 850 
Q 1944 653 2381 653 
Q 2734 653 3104 758 
Q 3475 863 3866 1075 
L 3866 213 
Q 3469 63 3072 -14 
Q 2675 -91 2278 -91 
Q 1328 -91 801 392 
Q 275 875 275 1747 
Q 275 2603 792 3093 
Q 1309 3584 2216 3584 
Q 3041 3584 3536 3087 
Q 4031 2591 4031 1759 
z
M 2881 2131 
Q 2881 2450 2695 2645 
Q 2509 2841 2209 2841 
Q 1884 2841 1681 2658 
Q 1478 2475 1428 2131 
L 2881 2131 
z
" transform="scale(0.015625)"/>
     <path id="DejaVuSans-Bold-74" d="M 1759 4494 
L 1759 3500 
L 2913 3500 
L 2913 2700 
L 1759 2700 
L 1759 1216 
Q 1759 972 1856 886 
Q 1953 800 2241 800 
L 2816 800 
L 2816 0 
L 1856 0 
Q 1194 0 917 276 
Q 641 553 641 1216 
L 641 2700 
L 84 2700 
L 84 3500 
L 641 3500 
L 641 4494 
L 1759 4494 
z
" transform="scale(0.015625)"/>
     <path id="DejaVuSans-Bold-20" transform="scale(0.015625)"/>
     <path id="DejaVuSans-Bold-7c" d="M 1522 4891 
L 1522 -1509 
L 813 -1509 
L 813 4891 
L 1522 4891 
z
" transform="scale(0.015625)"/>
     <path id="DejaVuSans-Bold-50" d="M 588 4666 
L 2584 4666 
Q 3475 4666 3951 4270 
Q 4428 3875 4428 3144 
Q 4428 2409 3951 2014 
Q 3475 1619 2584 1619 
L 1791 1619 
L 1791 0 
L 588 0 
L 588 4666 
z
M 1791 3794 
L 1791 2491 
L 2456 2491 
Q 2806 2491 2997 2661 
Q 3188 2831 3188 3144 
Q 3188 3456 2997 3625 
Q 2806 3794 2456 3794 
L 1791 3794 
z
" transform="scale(0.015625)"/>
    </defs>
    <use xlink:href="#DejaVuSans-Bold-43"/>
    <use xlink:href="#DejaVuSans-Bold-4d" transform="translate(73.388672 0)"/>
    <use xlink:href="#DejaVuSans-Bold-55" transform="translate(172.900391 0)"/>
    <use xlink:href="#DejaVuSans-Bold-2d" transform="translate(254.101562 0)"/>
    <use xlink:href="#DejaVuSans-Bold-4e" transform="translate(295.605469 0)"/>
    <use xlink:href="#DejaVuSans-Bold-65" transform="translate(379.296875 0)"/>
    <use xlink:href="#DejaVuSans-Bold-74" transform="translate(447.119141 0)"/>
    <use xlink:href="#DejaVuSans-Bold-20" transform="translate(494.921875 0)"/>
    <use xlink:href="#DejaVuSans-Bold-7c" transform="translate(529.736328 0)"/>
    <use xlink:href="#DejaVuSans-Bold-20" transform="translate(566.259766 0)"/>
    <use xlink:href="#DejaVuSans-Bold-50" transform="translate(601.074219 0)"/>
    <use xlink:href="#DejaVuSans-Bold-4d" transform="translate(674.365234 0)"/>
   </g>
  </g>
 </g>
 <defs>
  <clipPath id="p633d7fb18b">
   <rect x="47.5" y="46.08" width="481.7" height="282.44"/>
  </clipPath>
 </defs>
</svg>
