<?xml version="1.0" encoding="utf-8" standalone="no"?>
<!DOCTYPE svg PUBLIC "-//W3C//DTD SVG 1.1//EN"
  "http://www.w3.org/Graphics/SVG/1.1/DTD/svg11.dtd">
<svg xmlns:xlink="http://www.w3.org/1999/xlink" width="540pt" height="360pt" viewBox="0 0 540 360" xmlns="http://www.w3.org/2000/svg" version="1.1">
 <metadata>
  <rdf:RDF xmlns:dc="http://purl.org/dc/elements/1.1/" xmlns:cc="http://creativecommons.org/ns#" xmlns:rdf="http://www.w3.org/1999/02/22-rdf-syntax-ns#">
   <cc:Work>
    <dc:type rdf:resource="http://purl.org/dc/dcmitype/StillImage"/>
    <dc:date>2025-08-04T02:54:18.894891</dc:date>
    <dc:format>image/svg+xml</dc:format>
    <dc:creator>
     <cc:Agent>
      <dc:title>Matplotlib v3.10.0, https://matplotlib.org/</dc:title>
     </cc:Agent>
    </dc:creator>
   </cc:Work>
  </rdf:RDF>
 </metadata>
 <defs>
  <style type="text/css">*{stroke-linejoin: round; stroke-linecap: butt}</style>
 </defs>
 <g id="figure_1">
  <g id="patch_1">
   <path d="M 0 360 
L 540 360 
L 540 0 
L 0 0 
z
" style="fill: #ffffff"/>
  </g>
  <g id="axes_1">
   <g id="patch_2">
    <path d="M 47.5 328.52 
L 529.2 328.52 
L 529.2 46.08 
L 47.5 46.08 
z
" style="fill: #eaeaf2"/>
   </g>
   <g id="matplotlib.axis_1">
    <g id="xtick_1">
     <g id="line2d_1">
      <path d="M 56.640417 328.52 
L 56.640417 46.08 
" clip-path="url(#pe67317f60d)" style="fill: none; stroke: #ffffff; stroke-width: 0.8; stroke-linecap: round"/>
     </g>
     <g id="text_1">
      <!-- 0 -->
      <g style="fill: #262626" transform="translate(52.186667 346.157812) scale(0.14 -0.14)">
       <defs>
        <path id="DejaVuSans-30" d="M 2034 4250 
Q 1547 4250 1301 3770 
Q 1056 3291 1056 2328 
Q 1056 1369 1301 889 
Q 1547 409 2034 409 
Q 2525 409 2770 889 
Q 3016 1369 3016 2328 
Q 3016 3291 2770 3770 
Q 2525 4250 2034 4250 
z
M 2034 4750 
Q 2819 4750 3233 4129 
Q 3647 3509 3647 2328 
Q 3647 1150 3233 529 
Q 2819 -91 2034 -91 
Q 1250 -91 836 529 
Q 422 1150 422 2328 
Q 422 3509 836 4129 
Q 1250 4750 2034 4750 
z
" transform="scale(0.015625)"/>
       </defs>
       <use xlink:href="#DejaVuSans-30"/>
      </g>
     </g>
    </g>
    <g id="xtick_2">
     <g id="line2d_2">
      <path d="M 513.66129 328.52 
L 513.66129 46.08 
" clip-path="url(#pe67317f60d)" style="fill: none; stroke: #ffffff; stroke-width: 0.8; stroke-linecap: round"/>
     </g>
     <g id="text_2">
      <!-- 1M -->
      <g style="fill: #262626" transform="translate(503.167853 346.157812) scale(0.14 -0.14)">
       <defs>
        <path id="DejaVuSans-31" d="M 794 531 
L 1825 531 
L 1825 4091 
L 703 3866 
L 703 4441 
L 1819 4666 
L 2450 4666 
L 2450 531 
L 3481 531 
L 3481 0 
L 794 0 
L 794 531 
z
" transform="scale(0.015625)"/>
        <path id="DejaVuSans-4d" d="M 628 4666 
L 1569 4666 
L 2759 1491 
L 3956 4666 
L 4897 4666 
L 4897 0 
L 4281 0 
L 4281 4097 
L 3078 897 
L 2444 897 
L 1241 4097 
L 1241 0 
L 628 0 
L 628 4666 
z
" transform="scale(0.015625)"/>
       </defs>
       <use xlink:href="#DejaVuSans-31"/>
       <use xlink:href="#DejaVuSans-4d" transform="translate(63.623047 0)"/>
      </g>
     </g>
    </g>
   </g>
   <g id="matplotlib.axis_2">
    <g id="ytick_1">
     <g id="line2d_3">
      <path d="M 47.5 320.526415 
L 529.2 320.526415 
" clip-path="url(#pe67317f60d)" style="fill: none; stroke: #ffffff; stroke-width: 0.8; stroke-linecap: round"/>
     </g>
     <g id="text_3">
      <!-- −21 -->
      <g style="fill: #262626" transform="translate(10.953438 325.845321) scale(0.14 -0.14)">
       <defs>
        <path id="DejaVuSans-2212" d="M 678 2272 
L 4684 2272 
L 4684 1741 
L 678 1741 
L 678 2272 
z
" transform="scale(0.015625)"/>
        <path id="DejaVuSans-32" d="M 1228 531 
L 3431 531 
L 3431 0 
L 469 0 
L 469 531 
Q 828 903 1448 1529 
Q 2069 2156 2228 2338 
Q 2531 2678 2651 2914 
Q 2772 3150 2772 3378 
Q 2772 3750 2511 3984 
Q 2250 4219 1831 4219 
Q 1534 4219 1204 4116 
Q 875 4013 500 3803 
L 500 4441 
Q 881 4594 1212 4672 
Q 1544 4750 1819 4750 
Q 2544 4750 2975 4387 
Q 3406 4025 3406 3419 
Q 3406 3131 3298 2873 
Q 3191 2616 2906 2266 
Q 2828 2175 2409 1742 
Q 1991 1309 1228 531 
z
" transform="scale(0.015625)"/>
       </defs>
       <use xlink:href="#DejaVuSans-2212"/>
       <use xlink:href="#DejaVuSans-32" transform="translate(83.789062 0)"/>
       <use xlink:href="#DejaVuSans-31" transform="translate(147.412109 0)"/>
      </g>
     </g>
    </g>
    <g id="ytick_2">
     <g id="line2d_4">
      <path d="M 47.5 301.49407 
L 529.2 301.49407 
" clip-path="url(#pe67317f60d)" style="fill: none; stroke: #ffffff; stroke-width: 0.8; stroke-linecap: round"/>
     </g>
     <g id="text_4">
      <!-- −18 -->
      <g style="fill: #262626" transform="translate(10.953438 306.812976) scale(0.14 -0.14)">
       <defs>
        <path id="DejaVuSans-38" d="M 2034 2216 
Q 1584 2216 1326 1975 
Q 1069 1734 1069 1313 
Q 1069 891 1326 650 
Q 1584 409 2034 409 
Q 2484 409 2743 651 
Q 3003 894 3003 1313 
Q 3003 1734 2745 1975 
Q 2488 2216 2034 2216 
z
M 1403 2484 
Q 997 2584 770 2862 
Q 544 3141 544 3541 
Q 544 4100 942 4425 
Q 1341 4750 2034 4750 
Q 2731 4750 3128 4425 
Q 3525 4100 3525 3541 
Q 3525 3141 3298 2862 
Q 3072 2584 2669 2484 
Q 3125 2378 3379 2068 
Q 3634 1759 3634 1313 
Q 3634 634 3220 271 
Q 2806 -91 2034 -91 
Q 1263 -91 848 271 
Q 434 634 434 1313 
Q 434 1759 690 2068 
Q 947 2378 1403 2484 
z
M 1172 3481 
Q 1172 3119 1398 2916 
Q 1625 2713 2034 2713 
Q 2441 2713 2670 2916 
Q 2900 3119 2900 3481 
Q 2900 3844 2670 4047 
Q 2441 4250 2034 4250 
Q 1625 4250 1398 4047 
Q 1172 3844 1172 3481 
z
" transform="scale(0.015625)"/>
       </defs>
       <use xlink:href="#DejaVuSans-2212"/>
       <use xlink:href="#DejaVuSans-31" transform="translate(83.789062 0)"/>
       <use xlink:href="#DejaVuSans-38" transform="translate(147.412109 0)"/>
      </g>
     </g>
    </g>
    <g id="ytick_3">
     <g id="line2d_5">
      <path d="M 47.5 282.461725 
L 529.2 282.461725 
" clip-path="url(#pe67317f60d)" style="fill: none; stroke: #ffffff; stroke-width: 0.8; stroke-linecap: round"/>
     </g>
     <g id="text_5">
      <!-- −15 -->
      <g style="fill: #262626" transform="translate(10.953438 287.780631) scale(0.14 -0.14)">
       <defs>
        <path id="DejaVuSans-35" d="M 691 4666 
L 3169 4666 
L 3169 4134 
L 1269 4134 
L 1269 2991 
Q 1406 3038 1543 3061 
Q 1681 3084 1819 3084 
Q 2600 3084 3056 2656 
Q 3513 2228 3513 1497 
Q 3513 744 3044 326 
Q 2575 -91 1722 -91 
Q 1428 -91 1123 -41 
Q 819 9 494 109 
L 494 744 
Q 775 591 1075 516 
Q 1375 441 1709 441 
Q 2250 441 2565 725 
Q 2881 1009 2881 1497 
Q 2881 1984 2565 2268 
Q 2250 2553 1709 2553 
Q 1456 2553 1204 2497 
Q 953 2441 691 2322 
L 691 4666 
z
" transform="scale(0.015625)"/>
       </defs>
       <use xlink:href="#DejaVuSans-2212"/>
       <use xlink:href="#DejaVuSans-31" transform="translate(83.789062 0)"/>
       <use xlink:href="#DejaVuSans-35" transform="translate(147.412109 0)"/>
      </g>
     </g>
    </g>
    <g id="ytick_4">
     <g id="line2d_6">
      <path d="M 47.5 263.42938 
L 529.2 263.42938 
" clip-path="url(#pe67317f60d)" style="fill: none; stroke: #ffffff; stroke-width: 0.8; stroke-linecap: round"/>
     </g>
     <g id="text_6">
      <!-- −12 -->
      <g style="fill: #262626" transform="translate(10.953438 268.748286) scale(0.14 -0.14)">
       <use xlink:href="#DejaVuSans-2212"/>
       <use xlink:href="#DejaVuSans-31" transform="translate(83.789062 0)"/>
       <use xlink:href="#DejaVuSans-32" transform="translate(147.412109 0)"/>
      </g>
     </g>
    </g>
    <g id="ytick_5">
     <g id="line2d_7">
      <path d="M 47.5 244.397035 
L 529.2 244.397035 
" clip-path="url(#pe67317f60d)" style="fill: none; stroke: #ffffff; stroke-width: 0.8; stroke-linecap: round"/>
     </g>
     <g id="text_7">
      <!-- −9 -->
      <g style="fill: #262626" transform="translate(19.860938 249.715941) scale(0.14 -0.14)">
       <defs>
        <path id="DejaVuSans-39" d="M 703 97 
L 703 672 
Q 941 559 1184 500 
Q 1428 441 1663 441 
Q 2288 441 2617 861 
Q 2947 1281 2994 2138 
Q 2813 1869 2534 1725 
Q 2256 1581 1919 1581 
Q 1219 1581 811 2004 
Q 403 2428 403 3163 
Q 403 3881 828 4315 
Q 1253 4750 1959 4750 
Q 2769 4750 3195 4129 
Q 3622 3509 3622 2328 
Q 3622 1225 3098 567 
Q 2575 -91 1691 -91 
Q 1453 -91 1209 -44 
Q 966 3 703 97 
z
M 1959 2075 
Q 2384 2075 2632 2365 
Q 2881 2656 2881 3163 
Q 2881 3666 2632 3958 
Q 2384 4250 1959 4250 
Q 1534 4250 1286 3958 
Q 1038 3666 1038 3163 
Q 1038 2656 1286 2365 
Q 1534 2075 1959 2075 
z
" transform="scale(0.015625)"/>
       </defs>
       <use xlink:href="#DejaVuSans-2212"/>
       <use xlink:href="#DejaVuSans-39" transform="translate(83.789062 0)"/>
      </g>
     </g>
    </g>
    <g id="ytick_6">
     <g id="line2d_8">
      <path d="M 47.5 225.36469 
L 529.2 225.36469 
" clip-path="url(#pe67317f60d)" style="fill: none; stroke: #ffffff; stroke-width: 0.8; stroke-linecap: round"/>
     </g>
     <g id="text_8">
      <!-- −6 -->
      <g style="fill: #262626" transform="translate(19.860938 230.683596) scale(0.14 -0.14)">
       <defs>
        <path id="DejaVuSans-36" d="M 2113 2584 
Q 1688 2584 1439 2293 
Q 1191 2003 1191 1497 
Q 1191 994 1439 701 
Q 1688 409 2113 409 
Q 2538 409 2786 701 
Q 3034 994 3034 1497 
Q 3034 2003 2786 2293 
Q 2538 2584 2113 2584 
z
M 3366 4563 
L 3366 3988 
Q 3128 4100 2886 4159 
Q 2644 4219 2406 4219 
Q 1781 4219 1451 3797 
Q 1122 3375 1075 2522 
Q 1259 2794 1537 2939 
Q 1816 3084 2150 3084 
Q 2853 3084 3261 2657 
Q 3669 2231 3669 1497 
Q 3669 778 3244 343 
Q 2819 -91 2113 -91 
Q 1303 -91 875 529 
Q 447 1150 447 2328 
Q 447 3434 972 4092 
Q 1497 4750 2381 4750 
Q 2619 4750 2861 4703 
Q 3103 4656 3366 4563 
z
" transform="scale(0.015625)"/>
       </defs>
       <use xlink:href="#DejaVuSans-2212"/>
       <use xlink:href="#DejaVuSans-36" transform="translate(83.789062 0)"/>
      </g>
     </g>
    </g>
    <g id="ytick_7">
     <g id="line2d_9">
      <path d="M 47.5 206.332345 
L 529.2 206.332345 
" clip-path="url(#pe67317f60d)" style="fill: none; stroke: #ffffff; stroke-width: 0.8; stroke-linecap: round"/>
     </g>
     <g id="text_9">
      <!-- −3 -->
      <g style="fill: #262626" transform="translate(19.860938 211.651251) scale(0.14 -0.14)">
       <defs>
        <path id="DejaVuSans-33" d="M 2597 2516 
Q 3050 2419 3304 2112 
Q 3559 1806 3559 1356 
Q 3559 666 3084 287 
Q 2609 -91 1734 -91 
Q 1441 -91 1130 -33 
Q 819 25 488 141 
L 488 750 
Q 750 597 1062 519 
Q 1375 441 1716 441 
Q 2309 441 2620 675 
Q 2931 909 2931 1356 
Q 2931 1769 2642 2001 
Q 2353 2234 1838 2234 
L 1294 2234 
L 1294 2753 
L 1863 2753 
Q 2328 2753 2575 2939 
Q 2822 3125 2822 3475 
Q 2822 3834 2567 4026 
Q 2313 4219 1838 4219 
Q 1578 4219 1281 4162 
Q 984 4106 628 3988 
L 628 4550 
Q 988 4650 1302 4700 
Q 1616 4750 1894 4750 
Q 2613 4750 3031 4423 
Q 3450 4097 3450 3541 
Q 3450 3153 3228 2886 
Q 3006 2619 2597 2516 
z
" transform="scale(0.015625)"/>
       </defs>
       <use xlink:href="#DejaVuSans-2212"/>
       <use xlink:href="#DejaVuSans-33" transform="translate(83.789062 0)"/>
      </g>
     </g>
    </g>
    <g id="ytick_8">
     <g id="line2d_10">
      <path d="M 47.5 187.3 
L 529.2 187.3 
" clip-path="url(#pe67317f60d)" style="fill: none; stroke: #ffffff; stroke-width: 0.8; stroke-linecap: round"/>
     </g>
     <g id="text_10">
      <!-- 0 -->
      <g style="fill: #262626" transform="translate(31.5925 192.618906) scale(0.14 -0.14)">
       <use xlink:href="#DejaVuSans-30"/>
      </g>
     </g>
    </g>
    <g id="ytick_9">
     <g id="line2d_11">
      <path d="M 47.5 168.267655 
L 529.2 168.267655 
" clip-path="url(#pe67317f60d)" style="fill: none; stroke: #ffffff; stroke-width: 0.8; stroke-linecap: round"/>
     </g>
     <g id="text_11">
      <!-- 3 -->
      <g style="fill: #262626" transform="translate(31.5925 173.586561) scale(0.14 -0.14)">
       <use xlink:href="#DejaVuSans-33"/>
      </g>
     </g>
    </g>
    <g id="ytick_10">
     <g id="line2d_12">
      <path d="M 47.5 149.23531 
L 529.2 149.23531 
" clip-path="url(#pe67317f60d)" style="fill: none; stroke: #ffffff; stroke-width: 0.8; stroke-linecap: round"/>
     </g>
     <g id="text_12">
      <!-- 6 -->
      <g style="fill: #262626" transform="translate(31.5925 154.554216) scale(0.14 -0.14)">
       <use xlink:href="#DejaVuSans-36"/>
      </g>
     </g>
    </g>
    <g id="ytick_11">
     <g id="line2d_13">
      <path d="M 47.5 130.202965 
L 529.2 130.202965 
" clip-path="url(#pe67317f60d)" style="fill: none; stroke: #ffffff; stroke-width: 0.8; stroke-linecap: round"/>
     </g>
     <g id="text_13">
      <!-- 9 -->
      <g style="fill: #262626" transform="translate(31.5925 135.521871) scale(0.14 -0.14)">
       <use xlink:href="#DejaVuSans-39"/>
      </g>
     </g>
    </g>
    <g id="ytick_12">
     <g id="line2d_14">
      <path d="M 47.5 111.17062 
L 529.2 111.17062 
" clip-path="url(#pe67317f60d)" style="fill: none; stroke: #ffffff; stroke-width: 0.8; stroke-linecap: round"/>
     </g>
     <g id="text_14">
      <!-- 12 -->
      <g style="fill: #262626" transform="translate(22.685 116.489526) scale(0.14 -0.14)">
       <use xlink:href="#DejaVuSans-31"/>
       <use xlink:href="#DejaVuSans-32" transform="translate(63.623047 0)"/>
      </g>
     </g>
    </g>
    <g id="ytick_13">
     <g id="line2d_15">
      <path d="M 47.5 92.138275 
L 529.2 92.138275 
" clip-path="url(#pe67317f60d)" style="fill: none; stroke: #ffffff; stroke-width: 0.8; stroke-linecap: round"/>
     </g>
     <g id="text_15">
      <!-- 15 -->
      <g style="fill: #262626" transform="translate(22.685 97.457181) scale(0.14 -0.14)">
       <use xlink:href="#DejaVuSans-31"/>
       <use xlink:href="#DejaVuSans-35" transform="translate(63.623047 0)"/>
      </g>
     </g>
    </g>
    <g id="ytick_14">
     <g id="line2d_16">
      <path d="M 47.5 73.10593 
L 529.2 73.10593 
" clip-path="url(#pe67317f60d)" style="fill: none; stroke: #ffffff; stroke-width: 0.8; stroke-linecap: round"/>
     </g>
     <g id="text_16">
      <!-- 18 -->
      <g style="fill: #262626" transform="translate(22.685 78.424836) scale(0.14 -0.14)">
       <use xlink:href="#DejaVuSans-31"/>
       <use xlink:href="#DejaVuSans-38" transform="translate(63.623047 0)"/>
      </g>
     </g>
    </g>
    <g id="ytick_15">
     <g id="line2d_17">
      <path d="M 47.5 54.073585 
L 529.2 54.073585 
" clip-path="url(#pe67317f60d)" style="fill: none; stroke: #ffffff; stroke-width: 0.8; stroke-linecap: round"/>
     </g>
     <g id="text_17">
      <!-- 21 -->
      <g style="fill: #262626" transform="translate(22.685 59.392491) scale(0.14 -0.14)">
       <use xlink:href="#DejaVuSans-32"/>
       <use xlink:href="#DejaVuSans-31" transform="translate(63.623047 0)"/>
      </g>
     </g>
    </g>
   </g>
   <g id="FillBetweenPolyCollection_1">
    <path d="M 56.640417 314.614712 
L 56.640417 317.556357 
L 61.320311 316.921946 
L 66.000205 318.781783 
L 70.680099 315.427697 
L 75.359992 313.336851 
L 80.039886 311.426675 
L 84.71978 315.119426 
L 89.399674 329.032952 
L 94.079567 314.752253 
L 98.759461 294.081703 
L 103.439355 286.338534 
L 108.119249 265.692903 
L 112.799142 235.220335 
L 117.479036 213.973314 
L 122.15893 220.112544 
L 126.838824 195.970241 
L 131.518717 176.615006 
L 136.198611 163.101896 
L 140.878505 169.086896 
L 145.558398 166.199602 
L 150.238292 139.201117 
L 154.918186 143.143935 
L 159.59808 171.580438 
L 164.277973 139.708891 
L 168.957867 126.663954 
L 173.637761 111.216481 
L 178.317655 100.437811 
L 182.997548 102.562493 
L 187.677442 97.845317 
L 192.357336 91.461223 
L 197.03723 104.538845 
L 201.717123 106.075605 
L 206.397017 112.463863 
L 211.076911 97.460079 
L 215.756805 111.294408 
L 220.436698 171.144818 
L 225.116592 114.815166 
L 229.796486 96.810257 
L 234.47638 107.600078 
L 239.156273 113.682849 
L 243.836167 98.248267 
L 248.516061 101.209828 
L 253.195954 100.695531 
L 257.875848 97.609948 
L 262.555742 107.647895 
L 267.235636 100.262707 
L 271.915529 86.432143 
L 276.595423 105.264068 
L 281.275317 98.175275 
L 285.955211 102.036163 
L 290.635104 99.329133 
L 295.314998 103.173686 
L 299.994892 100.472075 
L 304.674786 100.140681 
L 309.354679 98.060102 
L 314.034573 106.878173 
L 318.714467 101.674007 
L 323.394361 98.154544 
L 328.074254 101.517268 
L 332.754148 103.523543 
L 337.434042 99.906842 
L 342.113935 108.148049 
L 346.793829 98.383678 
L 351.473723 116.398712 
L 356.153617 109.891285 
L 360.83351 145.852779 
L 365.513404 116.284894 
L 370.193298 94.349902 
L 374.873192 97.983421 
L 379.553085 104.753082 
L 384.232979 92.441213 
L 388.912873 100.177475 
L 393.592767 87.728947 
L 398.27266 99.235718 
L 402.952554 99.205622 
L 407.632448 103.679316 
L 412.312342 108.858946 
L 416.992235 99.909816 
L 421.672129 106.032965 
L 426.352023 107.820542 
L 431.031917 98.758209 
L 435.71181 105.383645 
L 440.391704 117.505922 
L 445.071598 105.141753 
L 449.751491 91.007786 
L 454.431385 100.606056 
L 459.111279 100.763638 
L 463.791173 97.930949 
L 468.471066 99.777633 
L 473.15096 103.466333 
L 477.830854 102.974653 
L 482.510748 115.104345 
L 487.190641 104.799745 
L 491.870535 124.502736 
L 496.550429 164.726856 
L 501.230323 61.532581 
L 505.910216 98.547618 
L 510.59011 104.275177 
L 515.270004 116.653463 
L 519.949898 93.048118 
L 519.949898 44.916392 
L 519.949898 44.916392 
L 515.270004 62.547795 
L 510.59011 52.721679 
L 505.910216 44.492184 
L 501.230323 56.130762 
L 496.550429 59.834824 
L 491.870535 74.048073 
L 487.190641 51.245493 
L 482.510748 77.419554 
L 477.830854 55.925437 
L 473.15096 57.019785 
L 468.471066 49.289079 
L 463.791173 44.791648 
L 459.111279 51.475131 
L 454.431385 51.315507 
L 449.751491 47.591136 
L 445.071598 53.758337 
L 440.391704 66.136216 
L 435.71181 58.908943 
L 431.031917 47.136445 
L 426.352023 62.498955 
L 421.672129 67.775795 
L 416.992235 47.253661 
L 412.312342 53.530407 
L 407.632448 52.683127 
L 402.952554 47.006238 
L 398.27266 54.906285 
L 393.592767 51.821592 
L 388.912873 58.088204 
L 384.232979 48.378149 
L 379.553085 54.464214 
L 374.873192 46.959616 
L 370.193298 48.6899 
L 365.513404 57.523866 
L 360.83351 56.187292 
L 356.153617 57.256154 
L 351.473723 64.388575 
L 346.793829 46.242153 
L 342.113935 52.972481 
L 337.434042 49.15987 
L 332.754148 49.032432 
L 328.074254 54.52797 
L 323.394361 46.154081 
L 318.714467 52.785202 
L 314.034573 57.414414 
L 309.354679 51.006609 
L 304.674786 63.517495 
L 299.994892 52.0839 
L 295.314998 55.409198 
L 290.635104 53.861254 
L 285.955211 54.009075 
L 281.275317 45.816144 
L 276.595423 52.684404 
L 271.915529 51.215161 
L 267.235636 58.637383 
L 262.555742 55.058664 
L 257.875848 47.650294 
L 253.195954 49.005592 
L 248.516061 51.980558 
L 243.836167 46.694769 
L 239.156273 48.389299 
L 234.47638 53.520452 
L 229.796486 58.917776 
L 225.116592 46.62257 
L 220.436698 24.551139 
L 215.756805 49.191711 
L 211.076911 45.579723 
L 206.397017 45.484609 
L 201.717123 48.70081 
L 197.03723 50.871982 
L 192.357336 57.288283 
L 187.677442 50.586983 
L 182.997548 60.461271 
L 178.317655 59.413896 
L 173.637761 68.936394 
L 168.957867 79.182587 
L 164.277973 73.433382 
L 159.59808 71.696382 
L 154.918186 65.557458 
L 150.238292 79.650859 
L 145.558398 65.023399 
L 140.878505 84.657713 
L 136.198611 81.443746 
L 131.518717 101.554446 
L 126.838824 138.97904 
L 122.15893 148.460547 
L 117.479036 161.895509 
L 112.799142 178.713178 
L 108.119249 148.875022 
L 103.439355 178.982311 
L 98.759461 175.362816 
L 94.079567 216.864594 
L 89.399674 206.390363 
L 84.71978 249.169612 
L 80.039886 283.948527 
L 75.359992 300.436284 
L 70.680099 310.082051 
L 66.000205 313.706491 
L 61.320311 313.980301 
L 56.640417 314.614712 
z
" clip-path="url(#pe67317f60d)" style="fill: #023eff; fill-opacity: 0.1"/>
   </g>
   <g id="line2d_18">
    <path d="M 56.640417 318.147372 
L 61.320311 317.354358 
L 66.000205 318.940386 
L 70.680099 313.389286 
L 75.359992 311.010243 
L 80.039886 307.838185 
L 84.71978 301.49407 
L 89.399674 303.080099 
L 94.079567 305.459142 
L 98.759461 291.977898 
L 103.439355 291.184883 
L 108.119249 251.534164 
L 112.799142 215.055503 
L 117.479036 211.090431 
L 122.15893 221.399618 
L 126.838824 211.090431 
L 131.518717 205.539331 
L 136.198611 199.195216 
L 140.878505 204.746316 
L 145.558398 196.023158 
L 150.238292 147.649281 
L 154.918186 154.786411 
L 159.59808 137.340094 
L 164.277973 140.512152 
L 168.957867 98.48239 
L 173.637761 82.622102 
L 178.317655 89.759232 
L 182.997548 88.173203 
L 187.677442 69.140858 
L 192.357336 66.761815 
L 197.03723 65.968801 
L 201.717123 65.968801 
L 206.397017 62.796743 
L 211.076911 62.796743 
L 215.756805 62.796743 
L 220.436698 62.003729 
L 225.116592 82.622102 
L 229.796486 66.761815 
L 234.47638 62.003729 
L 239.156273 60.4177 
L 243.836167 61.210714 
L 248.516061 69.933872 
L 253.195954 72.312916 
L 257.875848 61.210714 
L 262.555742 99.275404 
L 267.235636 67.554829 
L 271.915529 62.003729 
L 276.595423 62.003729 
L 281.275317 64.382772 
L 285.955211 63.589757 
L 290.635104 75.484973 
L 295.314998 79.450045 
L 299.994892 65.968801 
L 304.674786 65.175786 
L 309.354679 62.003729 
L 314.034573 89.759232 
L 318.714467 62.003729 
L 323.394361 61.210714 
L 328.074254 63.589757 
L 332.754148 61.210714 
L 337.434042 64.382772 
L 342.113935 62.003729 
L 346.793829 65.968801 
L 351.473723 60.4177 
L 356.153617 65.968801 
L 360.83351 60.4177 
L 365.513404 72.312916 
L 370.193298 69.933872 
L 374.873192 60.4177 
L 379.553085 69.140858 
L 384.232979 70.726887 
L 388.912873 58.831671 
L 393.592767 56.452628 
L 398.27266 69.140858 
L 402.952554 71.519901 
L 407.632448 92.931289 
L 412.312342 64.382772 
L 416.992235 75.484973 
L 421.672129 86.587174 
L 426.352023 64.382772 
L 431.031917 65.968801 
L 435.71181 92.931289 
L 440.391704 76.277987 
L 445.071598 66.761815 
L 449.751491 65.175786 
L 454.431385 65.175786 
L 459.111279 73.898944 
L 463.791173 65.175786 
L 468.471066 72.312916 
L 473.15096 77.864016 
L 477.830854 65.175786 
L 482.510748 88.966217 
L 487.190641 62.003729 
L 491.870535 65.175786 
L 496.550429 65.968801 
L 501.230323 62.796743 
L 505.910216 71.519901 
L 510.59011 73.10593 
L 515.270004 67.554829 
L 519.949898 62.796743 
" clip-path="url(#pe67317f60d)" style="fill: none; stroke: #1ac938; stroke-opacity: 0.27; stroke-width: 1.25; stroke-linecap: round"/>
   </g>
   <g id="line2d_19">
    <path d="M 56.640417 315.768329 
L 61.320311 315.768329 
L 66.000205 318.940386 
L 70.680099 317.354358 
L 75.359992 314.975314 
L 80.039886 309.424214 
L 84.71978 301.49407 
L 89.399674 300.701056 
L 94.079567 296.735984 
L 98.759461 274.531581 
L 103.439355 269.773495 
L 108.119249 249.948136 
L 112.799142 233.294834 
L 117.479036 211.883446 
L 122.15893 196.023158 
L 126.838824 187.3 
L 131.518717 153.993396 
L 136.198611 117.514735 
L 140.878505 101.654447 
L 145.558398 67.554829 
L 150.238292 66.761815 
L 154.918186 61.210714 
L 159.59808 65.968801 
L 164.277973 67.554829 
L 168.957867 115.928706 
L 173.637761 85.79416 
L 178.317655 62.003729 
L 182.997548 69.140858 
L 187.677442 62.003729 
L 192.357336 61.210714 
L 197.03723 68.347844 
L 201.717123 73.10593 
L 206.397017 62.003729 
L 211.076911 60.4177 
L 215.756805 62.003729 
L 220.436698 61.210714 
L 225.116592 62.003729 
L 229.796486 63.589757 
L 234.47638 99.275404 
L 239.156273 65.175786 
L 243.836167 61.210714 
L 248.516061 61.210714 
L 253.195954 60.4177 
L 257.875848 62.003729 
L 262.555742 60.4177 
L 267.235636 73.10593 
L 271.915529 65.968801 
L 276.595423 69.933872 
L 281.275317 61.210714 
L 285.955211 62.003729 
L 290.635104 60.4177 
L 295.314998 62.796743 
L 299.994892 62.003729 
L 304.674786 60.4177 
L 309.354679 63.589757 
L 314.034573 60.4177 
L 318.714467 62.796743 
L 323.394361 62.003729 
L 328.074254 65.175786 
L 332.754148 60.4177 
L 337.434042 62.003729 
L 342.113935 60.4177 
L 346.793829 60.4177 
L 351.473723 60.4177 
L 356.153617 60.4177 
L 360.83351 60.4177 
L 365.513404 62.003729 
L 370.193298 60.4177 
L 374.873192 60.4177 
L 379.553085 61.210714 
L 384.232979 60.4177 
L 388.912873 60.4177 
L 393.592767 60.4177 
L 398.27266 60.4177 
L 402.952554 60.4177 
L 407.632448 60.4177 
L 412.312342 60.4177 
L 416.992235 60.4177 
L 421.672129 60.4177 
L 426.352023 60.4177 
L 431.031917 63.589757 
L 435.71181 66.761815 
L 440.391704 78.657031 
L 445.071598 60.4177 
L 449.751491 60.4177 
L 454.431385 60.4177 
L 459.111279 60.4177 
L 463.791173 59.624686 
L 468.471066 60.4177 
L 473.15096 60.4177 
L 477.830854 77.864016 
L 482.510748 112.756649 
L 487.190641 92.931289 
L 491.870535 115.135692 
L 496.550429 133.375022 
L 501.230323 54.866599 
L 505.910216 54.073585 
L 510.59011 81.036074 
L 515.270004 107.998562 
L 519.949898 54.866599 
" clip-path="url(#pe67317f60d)" style="fill: none; stroke: #1ac938; stroke-opacity: 0.27; stroke-width: 1.25; stroke-linecap: round"/>
   </g>
   <g id="line2d_20">
    <path d="M 56.640417 314.975314 
L 61.320311 314.1823 
L 66.000205 312.596271 
L 70.680099 309.424214 
L 75.359992 307.838185 
L 80.039886 299.908041 
L 84.71978 291.184883 
L 89.399674 296.735984 
L 94.079567 284.840768 
L 98.759461 267.394452 
L 103.439355 243.604021 
L 108.119249 251.534164 
L 112.799142 211.883446 
L 117.479036 199.98823 
L 122.15893 215.055503 
L 126.838824 162.716554 
L 131.518717 102.447462 
L 136.198611 112.756649 
L 140.878505 114.342677 
L 145.558398 134.168037 
L 150.238292 122.272821 
L 154.918186 144.477224 
L 159.59808 207.918374 
L 164.277973 141.305166 
L 168.957867 100.861433 
L 173.637761 94.517318 
L 178.317655 77.864016 
L 182.997548 62.796743 
L 187.677442 63.589757 
L 192.357336 77.071002 
L 197.03723 69.933872 
L 201.717123 60.4177 
L 206.397017 69.933872 
L 211.076911 57.245642 
L 215.756805 54.866599 
L 220.436698 58.038657 
L 225.116592 54.073585 
L 229.796486 60.4177 
L 234.47638 62.796743 
L 239.156273 81.829088 
L 243.836167 55.659614 
L 248.516061 73.898944 
L 253.195954 58.038657 
L 257.875848 62.796743 
L 262.555742 63.589757 
L 267.235636 75.484973 
L 271.915529 54.866599 
L 276.595423 54.073585 
L 281.275317 54.073585 
L 285.955211 65.968801 
L 290.635104 54.073585 
L 295.314998 65.968801 
L 299.994892 55.659614 
L 304.674786 80.243059 
L 309.354679 65.175786 
L 314.034573 82.622102 
L 318.714467 58.038657 
L 323.394361 59.624686 
L 328.074254 61.210714 
L 332.754148 54.073585 
L 337.434042 54.866599 
L 342.113935 54.073585 
L 346.793829 57.245642 
L 351.473723 111.17062 
L 356.153617 111.17062 
L 360.83351 177.783827 
L 365.513404 120.686792 
L 370.193298 57.245642 
L 374.873192 64.382772 
L 379.553085 89.759232 
L 384.232979 54.073585 
L 388.912873 84.208131 
L 393.592767 54.073585 
L 398.27266 54.866599 
L 402.952554 54.073585 
L 407.632448 54.073585 
L 412.312342 54.073585 
L 416.992235 54.073585 
L 421.672129 107.205548 
L 426.352023 87.380189 
L 431.031917 57.245642 
L 435.71181 54.866599 
L 440.391704 128.616936 
L 445.071598 54.073585 
L 449.751491 54.073585 
L 454.431385 56.452628 
L 459.111279 55.659614 
L 463.791173 54.073585 
L 468.471066 59.624686 
L 473.15096 60.4177 
L 477.830854 74.691959 
L 482.510748 80.243059 
L 487.190641 57.245642 
L 491.870535 84.208131 
L 496.550429 200.781244 
L 501.230323 58.831671 
L 505.910216 54.073585 
L 510.59011 56.452628 
L 515.270004 62.003729 
L 519.949898 54.073585 
" clip-path="url(#pe67317f60d)" style="fill: none; stroke: #1ac938; stroke-opacity: 0.27; stroke-width: 1.25; stroke-linecap: round"/>
   </g>
   <g id="line2d_21">
    <path d="M 56.640417 317.354358 
L 61.320311 313.389286 
L 66.000205 314.1823 
L 70.680099 311.010243 
L 75.359992 295.942969 
L 80.039886 271.359524 
L 84.71978 216.641532 
L 89.399674 145.270238 
L 94.079567 170.646698 
L 98.759461 129.409951 
L 103.439355 135.754066 
L 108.119249 104.826505 
L 112.799142 152.407367 
L 117.479036 144.477224 
L 122.15893 124.651864 
L 126.838824 134.961051 
L 131.518717 122.272821 
L 136.198611 104.033491 
L 140.878505 131.788994 
L 145.558398 124.651864 
L 150.238292 127.030907 
L 154.918186 94.517318 
L 159.59808 115.928706 
L 164.277973 115.928706 
L 168.957867 135.754066 
L 173.637761 126.237893 
L 178.317655 113.549663 
L 182.997548 119.893778 
L 187.677442 120.686792 
L 192.357336 106.412534 
L 197.03723 130.202965 
L 201.717123 133.375022 
L 206.397017 145.270238 
L 211.076911 123.065836 
L 215.756805 139.719137 
L 220.436698 244.397035 
L 225.116592 146.063252 
L 229.796486 110.377606 
L 234.47638 124.651864 
L 239.156273 143.684209 
L 243.836167 123.85885 
L 248.516061 123.85885 
L 253.195954 125.444879 
L 257.875848 122.272821 
L 262.555742 124.651864 
L 267.235636 119.893778 
L 271.915529 103.240476 
L 276.595423 128.616936 
L 281.275317 123.85885 
L 285.955211 125.444879 
L 290.635104 119.100764 
L 295.314998 125.444879 
L 299.994892 123.065836 
L 304.674786 110.377606 
L 309.354679 121.479807 
L 314.034573 123.85885 
L 318.714467 123.85885 
L 323.394361 123.85885 
L 328.074254 123.85885 
L 332.754148 128.616936 
L 337.434042 124.651864 
L 342.113935 123.85885 
L 346.793829 123.85885 
L 351.473723 123.85885 
L 356.153617 119.893778 
L 360.83351 123.85885 
L 365.513404 123.85885 
L 370.193298 115.928706 
L 374.873192 123.065836 
L 379.553085 123.85885 
L 384.232979 112.756649 
L 388.912873 116.721721 
L 393.592767 102.447462 
L 398.27266 116.721721 
L 402.952554 123.85885 
L 407.632448 121.479807 
L 412.312342 125.444879 
L 416.992235 123.85885 
L 421.672129 108.791577 
L 426.352023 123.85885 
L 431.031917 123.85885 
L 435.71181 121.479807 
L 440.391704 115.135692 
L 445.071598 123.85885 
L 449.751491 111.963634 
L 454.431385 123.85885 
L 459.111279 123.85885 
L 463.791173 123.85885 
L 468.471066 123.85885 
L 473.15096 123.85885 
L 477.830854 123.85885 
L 482.510748 123.85885 
L 487.190641 123.85885 
L 491.870535 93.724304 
L 496.550429 106.412534 
L 501.230323 60.4177 
L 505.910216 123.85885 
L 510.59011 126.237893 
L 515.270004 133.375022 
L 519.949898 116.721721 
" clip-path="url(#pe67317f60d)" style="fill: none; stroke: #1ac938; stroke-opacity: 0.27; stroke-width: 1.25; stroke-linecap: round"/>
   </g>
   <g id="line2d_22">
    <path d="M 56.640417 314.1823 
L 61.320311 316.561343 
L 66.000205 316.561343 
L 70.680099 312.596271 
L 75.359992 304.666128 
L 80.039886 299.908041 
L 84.71978 299.908041 
L 89.399674 292.770912 
L 94.079567 271.359524 
L 98.759461 210.297417 
L 103.439355 222.985647 
L 108.119249 178.576842 
L 112.799142 222.192633 
L 117.479036 172.232727 
L 122.15893 164.302583 
L 126.838824 141.305166 
L 131.518717 111.17062 
L 136.198611 77.864016 
L 140.878505 81.829088 
L 145.558398 55.659614 
L 150.238292 83.415117 
L 154.918186 66.761815 
L 159.59808 81.036074 
L 164.277973 67.554829 
L 168.957867 63.589757 
L 173.637761 61.210714 
L 178.317655 56.452628 
L 182.997548 67.554829 
L 187.677442 55.659614 
L 192.357336 60.4177 
L 197.03723 54.073585 
L 201.717123 54.073585 
L 206.397017 54.866599 
L 211.076911 54.073585 
L 215.756805 81.829088 
L 220.436698 63.589757 
L 225.116592 58.831671 
L 229.796486 88.173203 
L 234.47638 54.073585 
L 239.156273 54.073585 
L 243.836167 60.4177 
L 248.516061 54.073585 
L 253.195954 58.038657 
L 257.875848 54.866599 
L 262.555742 58.831671 
L 267.235636 61.210714 
L 271.915529 58.038657 
L 276.595423 80.243059 
L 281.275317 56.452628 
L 285.955211 73.10593 
L 290.635104 73.898944 
L 295.314998 62.796743 
L 299.994892 74.691959 
L 304.674786 92.931289 
L 309.354679 60.4177 
L 314.034573 54.073585 
L 318.714467 79.450045 
L 323.394361 54.073585 
L 328.074254 76.277987 
L 332.754148 77.071002 
L 337.434042 66.761815 
L 342.113935 102.447462 
L 346.793829 54.073585 
L 351.473723 96.103347 
L 356.153617 60.4177 
L 360.83351 82.622102 
L 365.513404 55.659614 
L 370.193298 54.073585 
L 374.873192 54.073585 
L 379.553085 54.073585 
L 384.232979 54.073585 
L 388.912873 75.484973 
L 393.592767 75.484973 
L 398.27266 84.208131 
L 402.952554 55.659614 
L 407.632448 62.003729 
L 412.312342 101.654447 
L 416.992235 54.073585 
L 421.672129 71.519901 
L 426.352023 89.759232 
L 431.031917 54.073585 
L 435.71181 74.691959 
L 440.391704 60.4177 
L 445.071598 92.138275 
L 449.751491 54.866599 
L 454.431385 73.898944 
L 459.111279 66.761815 
L 463.791173 54.073585 
L 468.471066 56.452628 
L 473.15096 78.657031 
L 477.830854 55.659614 
L 482.510748 75.484973 
L 487.190641 54.073585 
L 491.870535 138.133109 
L 496.550429 54.866599 
L 501.230323 57.245642 
L 505.910216 54.073585 
L 510.59011 55.659614 
L 515.270004 77.071002 
L 519.949898 56.452628 
" clip-path="url(#pe67317f60d)" style="fill: none; stroke: #1ac938; stroke-opacity: 0.27; stroke-width: 1.25; stroke-linecap: round"/>
   </g>
   <g id="line2d_23">
    <path d="M 56.640417 54.073585 
L 61.320311 72.656228 
L 66.000205 96.602383 
L 70.680099 128.962663 
L 75.359992 160.691116 
L 80.039886 191.263614 
L 84.71978 202.855465 
L 89.399674 216.58847 
L 94.079567 236.889694 
L 98.759461 247.476124 
L 103.439355 250.101034 
L 108.119249 252.151931 
L 112.799142 253.293617 
L 117.479036 260.414657 
L 122.15893 254.057577 
L 126.838824 257.885652 
L 131.518717 275.789827 
L 136.198611 284.231019 
L 140.878505 287.404613 
L 145.558398 297.551721 
L 150.238292 282.833117 
L 154.918186 296.641062 
L 159.59808 285.009869 
L 164.277973 282.22113 
L 168.957867 280.387803 
L 173.637761 293.752888 
L 178.317655 282.191309 
L 182.997548 276.621795 
L 187.677442 278.885151 
L 192.357336 279.243122 
L 197.03723 285.842681 
L 201.717123 280.322828 
L 206.397017 276.922021 
L 211.076911 284.086112 
L 215.756805 287.618641 
L 220.436698 298.77933 
L 225.116592 289.985814 
L 229.796486 290.024697 
L 234.47638 286.294873 
L 239.156273 283.865401 
L 243.836167 293.606595 
L 248.516061 296.305649 
L 253.195954 289.932929 
L 257.875848 299.336854 
L 262.555742 308.789234 
L 267.235636 305.652348 
L 271.915529 298.795843 
L 276.595423 301.180067 
L 281.275317 301.724956 
L 285.955211 296.371454 
L 290.635104 292.279356 
L 295.314998 301.238742 
L 299.994892 303.23306 
L 304.674786 296.476373 
L 309.354679 301.561316 
L 314.034573 302.791227 
L 318.714467 298.764125 
L 323.394361 307.777837 
L 328.074254 303.65474 
L 332.754148 298.726216 
L 337.434042 295.883105 
L 342.113935 302.995435 
L 346.793829 298.983219 
L 351.473723 300.30588 
L 356.153617 310.11316 
L 360.83351 312.893062 
L 365.513404 320.526415 
L 370.193298 318.442168 
L 374.873192 316.595214 
L 379.553085 309.658953 
L 384.232979 305.578023 
L 388.912873 304.507637 
L 393.592767 307.800548 
L 398.27266 308.038016 
L 402.952554 301.006222 
L 407.632448 306.087803 
L 412.312342 312.931993 
L 416.992235 306.829162 
L 421.672129 297.4571 
L 426.352023 298.286126 
L 431.031917 295.97387 
L 435.71181 290.981172 
L 440.391704 278.60304 
L 445.071598 282.359905 
L 449.751491 287.223842 
L 454.431385 291.002535 
L 459.111279 293.906705 
L 463.791173 289.082193 
L 468.471066 288.680269 
L 473.15096 288.091421 
L 477.830854 288.207376 
L 482.510748 297.063819 
L 487.190641 300.951298 
L 491.870535 308.177476 
L 496.550429 318.668223 
L 501.230323 308.624211 
L 505.910216 306.20204 
L 510.59011 295.687147 
L 515.270004 289.761778 
L 519.949898 301.841754 
" clip-path="url(#pe67317f60d)" style="fill: none; stroke: #8b2be2; stroke-width: 1.5; stroke-linecap: round"/>
   </g>
   <g id="line2d_24">
    <path d="M 56.640417 316.085535 
L 61.320311 315.451123 
L 66.000205 316.244137 
L 70.680099 312.754874 
L 75.359992 306.886568 
L 80.039886 297.687601 
L 84.71978 282.144519 
L 89.399674 267.711658 
L 94.079567 265.808423 
L 98.759461 234.72226 
L 103.439355 232.660422 
L 108.119249 207.283962 
L 112.799142 206.966757 
L 117.479036 187.934412 
L 122.15893 184.286545 
L 126.838824 167.474641 
L 131.518717 139.084726 
L 136.198611 122.272821 
L 140.878505 126.872305 
L 145.558398 115.6115 
L 150.238292 109.425988 
L 154.918186 104.350696 
L 159.59808 121.63841 
L 164.277973 106.571137 
L 168.957867 102.92327 
L 173.637761 90.076438 
L 178.317655 79.925854 
L 182.997548 81.511882 
L 187.677442 74.21615 
L 192.357336 74.374753 
L 197.03723 77.705413 
L 201.717123 77.388208 
L 206.397017 78.974236 
L 211.076911 71.519901 
L 215.756805 80.243059 
L 220.436698 97.847978 
L 225.116592 80.718868 
L 229.796486 77.864016 
L 234.47638 80.560265 
L 239.156273 81.036074 
L 243.836167 72.471518 
L 248.516061 76.595193 
L 253.195954 74.850562 
L 257.875848 72.630121 
L 262.555742 81.353279 
L 267.235636 79.450045 
L 271.915529 68.823652 
L 276.595423 78.974236 
L 281.275317 71.99571 
L 285.955211 78.022619 
L 290.635104 76.595193 
L 295.314998 79.291442 
L 299.994892 76.277987 
L 304.674786 81.829088 
L 309.354679 74.533356 
L 314.034573 82.146294 
L 318.714467 77.229605 
L 323.394361 72.154313 
L 328.074254 78.022619 
L 332.754148 76.277987 
L 337.434042 74.533356 
L 342.113935 80.560265 
L 346.793829 72.312916 
L 351.473723 90.393643 
L 356.153617 83.57372 
L 360.83351 101.020036 
L 365.513404 86.90438 
L 370.193298 71.519901 
L 374.873192 72.471518 
L 379.553085 79.608648 
L 384.232979 70.409681 
L 388.912873 79.132839 
L 393.592767 69.77527 
L 398.27266 77.071002 
L 402.952554 73.10593 
L 407.632448 78.181222 
L 412.312342 81.194677 
L 416.992235 73.581739 
L 421.672129 86.90438 
L 426.352023 85.159748 
L 431.031917 72.947327 
L 435.71181 82.146294 
L 440.391704 91.821069 
L 445.071598 79.450045 
L 449.751491 69.299461 
L 454.431385 75.960782 
L 459.111279 76.119385 
L 463.791173 71.361298 
L 468.471066 74.533356 
L 473.15096 80.243059 
L 477.830854 79.450045 
L 482.510748 96.26195 
L 487.190641 78.022619 
L 491.870535 99.275404 
L 496.550429 112.28084 
L 501.230323 58.831671 
L 505.910216 71.519901 
L 510.59011 78.498428 
L 515.270004 89.600629 
L 519.949898 68.982255 
" clip-path="url(#pe67317f60d)" style="fill: none; stroke: #023eff; stroke-width: 2; stroke-linecap: round"/>
   </g>
   <g id="line2d_25">
    <path d="M 47.5 63.589757 
L 529.2 63.589757 
" clip-path="url(#pe67317f60d)" style="fill: none; stroke-dasharray: 1.25,2.0625; stroke-dashoffset: 0; stroke: #000000; stroke-opacity: 0.6; stroke-width: 1.25"/>
   </g>
   <g id="patch_3">
    <path d="M 47.5 328.52 
L 47.5 46.08 
" style="fill: none; stroke: #ffffff; stroke-width: 0.8; stroke-linejoin: miter; stroke-linecap: square"/>
   </g>
   <g id="patch_4">
    <path d="M 529.2 328.52 
L 529.2 46.08 
" style="fill: none; stroke: #ffffff; stroke-width: 0.8; stroke-linejoin: miter; stroke-linecap: square"/>
   </g>
   <g id="patch_5">
    <path d="M 47.5 328.52 
L 529.2 328.52 
" style="fill: none; stroke: #ffffff; stroke-width: 0.8; stroke-linejoin: miter; stroke-linecap: square"/>
   </g>
   <g id="patch_6">
    <path d="M 47.5 46.08 
L 529.2 46.08 
" style="fill: none; stroke: #ffffff; stroke-width: 0.8; stroke-linejoin: miter; stroke-linecap: square"/>
   </g>
  </g>
  <g id="text_18">
   <!-- CMU-Net | AM -->
   <g style="fill: #262626" transform="translate(176.641875 25.54125) scale(0.24 -0.24)">
    <defs>
     <path id="DejaVuSans-Bold-43" d="M 4288 256 
Q 3956 84 3597 -3 
Q 3238 -91 2847 -91 
Q 1681 -91 1000 561 
Q 319 1213 319 2328 
Q 319 3447 1000 4098 
Q 1681 4750 2847 4750 
Q 3238 4750 3597 4662 
Q 3956 4575 4288 4403 
L 4288 3438 
Q 3953 3666 3628 3772 
Q 3303 3878 2944 3878 
Q 2300 3878 1931 3465 
Q 1563 3053 1563 2328 
Q 1563 1606 1931 1193 
Q 2300 781 2944 781 
Q 3303 781 3628 887 
Q 3953 994 4288 1222 
L 4288 256 
z
" transform="scale(0.015625)"/>
     <path id="DejaVuSans-Bold-4d" d="M 588 4666 
L 2119 4666 
L 3181 2169 
L 4250 4666 
L 5778 4666 
L 5778 0 
L 4641 0 
L 4641 3413 
L 3566 897 
L 2803 897 
L 1728 3413 
L 1728 0 
L 588 0 
L 588 4666 
z
" transform="scale(0.015625)"/>
     <path id="DejaVuSans-Bold-55" d="M 588 4666 
L 1791 4666 
L 1791 1869 
Q 1791 1291 1980 1042 
Q 2169 794 2597 794 
Q 3028 794 3217 1042 
Q 3406 1291 3406 1869 
L 3406 4666 
L 4609 4666 
L 4609 1869 
Q 4609 878 4112 393 
Q 3616 -91 2597 -91 
Q 1581 -91 1084 393 
Q 588 878 588 1869 
L 588 4666 
z
" transform="scale(0.015625)"/>
     <path id="DejaVuSans-Bold-2d" d="M 347 2297 
L 2309 2297 
L 2309 1388 
L 347 1388 
L 347 2297 
z
" transform="scale(0.015625)"/>
     <path id="DejaVuSans-Bold-4e" d="M 588 4666 
L 1931 4666 
L 3628 1466 
L 3628 4666 
L 4769 4666 
L 4769 0 
L 3425 0 
L 1728 3200 
L 1728 0 
L 588 0 
L 588 4666 
z
" transform="scale(0.015625)"/>
     <path id="DejaVuSans-Bold-65" d="M 4031 1759 
L 4031 1441 
L 1416 1441 
Q 1456 1047 1700 850 
Q 1944 653 2381 653 
Q 2734 653 3104 758 
Q 3475 863 3866 1075 
L 3866 213 
Q 3469 63 3072 -14 
Q 2675 -91 2278 -91 
Q 1328 -91 801 392 
Q 275 875 275 1747 
Q 275 2603 792 3093 
Q 1309 3584 2216 3584 
Q 3041 3584 3536 3087 
Q 4031 2591 4031 1759 
z
M 2881 2131 
Q 2881 2450 2695 2645 
Q 2509 2841 2209 2841 
Q 1884 2841 1681 2658 
Q 1478 2475 1428 2131 
L 2881 2131 
z
" transform="scale(0.015625)"/>
     <path id="DejaVuSans-Bold-74" d="M 1759 4494 
L 1759 3500 
L 2913 3500 
L 2913 2700 
L 1759 2700 
L 1759 1216 
Q 1759 972 1856 886 
Q 1953 800 2241 800 
L 2816 800 
L 2816 0 
L 1856 0 
Q 1194 0 917 276 
Q 641 553 641 1216 
L 641 2700 
L 84 2700 
L 84 3500 
L 641 3500 
L 641 4494 
L 1759 4494 
z
" transform="scale(0.015625)"/>
     <path id="DejaVuSans-Bold-20" transform="scale(0.015625)"/>
     <path id="DejaVuSans-Bold-7c" d="M 1522 4891 
L 1522 -1509 
L 813 -1509 
L 813 4891 
L 1522 4891 
z
" transform="scale(0.015625)"/>
     <path id="DejaVuSans-Bold-41" d="M 3419 850 
L 1538 850 
L 1241 0 
L 31 0 
L 1759 4666 
L 3194 4666 
L 4922 0 
L 3713 0 
L 3419 850 
z
M 1838 1716 
L 3116 1716 
L 2478 3572 
L 1838 1716 
z
" transform="scale(0.015625)"/>
    </defs>
    <use xlink:href="#DejaVuSans-Bold-43"/>
    <use xlink:href="#DejaVuSans-Bold-4d" transform="translate(73.388672 0)"/>
    <use xlink:href="#DejaVuSans-Bold-55" transform="translate(172.900391 0)"/>
    <use xlink:href="#DejaVuSans-Bold-2d" transform="translate(254.101562 0)"/>
    <use xlink:href="#DejaVuSans-Bold-4e" transform="translate(295.605469 0)"/>
    <use xlink:href="#DejaVuSans-Bold-65" transform="translate(379.296875 0)"/>
    <use xlink:href="#DejaVuSans-Bold-74" transform="translate(447.119141 0)"/>
    <use xlink:href="#DejaVuSans-Bold-20" transform="translate(494.921875 0)"/>
    <use xlink:href="#DejaVuSans-Bold-7c" transform="translate(529.736328 0)"/>
    <use xlink:href="#DejaVuSans-Bold-20" transform="translate(566.259766 0)"/>
    <use xlink:href="#DejaVuSans-Bold-41" transform="translate(601.074219 0)"/>
    <use xlink:href="#DejaVuSans-Bold-4d" transform="translate(678.466797 0)"/>
   </g>
  </g>
 </g>
 <defs>
  <clipPath id="pe67317f60d">
   <rect x="47.5" y="46.08" width="481.7" height="282.44"/>
  </clipPath>
 </defs>
</svg>
