<?xml version="1.0" encoding="utf-8" standalone="no"?>
<!DOCTYPE svg PUBLIC "-//W3C//DTD SVG 1.1//EN"
  "http://www.w3.org/Graphics/SVG/1.1/DTD/svg11.dtd">
<svg xmlns:xlink="http://www.w3.org/1999/xlink" width="540pt" height="360pt" viewBox="0 0 540 360" xmlns="http://www.w3.org/2000/svg" version="1.1">
 <metadata>
  <rdf:RDF xmlns:dc="http://purl.org/dc/elements/1.1/" xmlns:cc="http://creativecommons.org/ns#" xmlns:rdf="http://www.w3.org/1999/02/22-rdf-syntax-ns#">
   <cc:Work>
    <dc:type rdf:resource="http://purl.org/dc/dcmitype/StillImage"/>
    <dc:date>2025-08-04T02:53:53.469444</dc:date>
    <dc:format>image/svg+xml</dc:format>
    <dc:creator>
     <cc:Agent>
      <dc:title>Matplotlib v3.10.0, https://matplotlib.org/</dc:title>
     </cc:Agent>
    </dc:creator>
   </cc:Work>
  </rdf:RDF>
 </metadata>
 <defs>
  <style type="text/css">*{stroke-linejoin: round; stroke-linecap: butt}</style>
 </defs>
 <g id="figure_1">
  <g id="patch_1">
   <path d="M 0 360 
L 540 360 
L 540 0 
L 0 0 
z
" style="fill: #ffffff"/>
  </g>
  <g id="axes_1">
   <g id="patch_2">
    <path d="M 47.5 328.52 
L 529.2 328.52 
L 529.2 46.08 
L 47.5 46.08 
z
" style="fill: #eaeaf2"/>
   </g>
   <g id="matplotlib.axis_1">
    <g id="xtick_1">
     <g id="line2d_1">
      <path d="M 56.640417 328.52 
L 56.640417 46.08 
" clip-path="url(#pb7df4901a2)" style="fill: none; stroke: #ffffff; stroke-width: 0.8; stroke-linecap: round"/>
     </g>
     <g id="text_1">
      <!-- 0 -->
      <g style="fill: #262626" transform="translate(52.186667 346.157812) scale(0.14 -0.14)">
       <defs>
        <path id="DejaVuSans-30" d="M 2034 4250 
Q 1547 4250 1301 3770 
Q 1056 3291 1056 2328 
Q 1056 1369 1301 889 
Q 1547 409 2034 409 
Q 2525 409 2770 889 
Q 3016 1369 3016 2328 
Q 3016 3291 2770 3770 
Q 2525 4250 2034 4250 
z
M 2034 4750 
Q 2819 4750 3233 4129 
Q 3647 3509 3647 2328 
Q 3647 1150 3233 529 
Q 2819 -91 2034 -91 
Q 1250 -91 836 529 
Q 422 1150 422 2328 
Q 422 3509 836 4129 
Q 1250 4750 2034 4750 
z
" transform="scale(0.015625)"/>
       </defs>
       <use xlink:href="#DejaVuSans-30"/>
      </g>
     </g>
    </g>
    <g id="xtick_2">
     <g id="line2d_2">
      <path d="M 513.66129 328.52 
L 513.66129 46.08 
" clip-path="url(#pb7df4901a2)" style="fill: none; stroke: #ffffff; stroke-width: 0.8; stroke-linecap: round"/>
     </g>
     <g id="text_2">
      <!-- 1M -->
      <g style="fill: #262626" transform="translate(503.167853 346.157812) scale(0.14 -0.14)">
       <defs>
        <path id="DejaVuSans-31" d="M 794 531 
L 1825 531 
L 1825 4091 
L 703 3866 
L 703 4441 
L 1819 4666 
L 2450 4666 
L 2450 531 
L 3481 531 
L 3481 0 
L 794 0 
L 794 531 
z
" transform="scale(0.015625)"/>
        <path id="DejaVuSans-4d" d="M 628 4666 
L 1569 4666 
L 2759 1491 
L 3956 4666 
L 4897 4666 
L 4897 0 
L 4281 0 
L 4281 4097 
L 3078 897 
L 2444 897 
L 1241 4097 
L 1241 0 
L 628 0 
L 628 4666 
z
" transform="scale(0.015625)"/>
       </defs>
       <use xlink:href="#DejaVuSans-31"/>
       <use xlink:href="#DejaVuSans-4d" transform="translate(63.623047 0)"/>
      </g>
     </g>
    </g>
   </g>
   <g id="matplotlib.axis_2">
    <g id="ytick_1">
     <g id="line2d_3">
      <path d="M 47.5 320.526415 
L 529.2 320.526415 
" clip-path="url(#pb7df4901a2)" style="fill: none; stroke: #ffffff; stroke-width: 0.8; stroke-linecap: round"/>
     </g>
     <g id="text_3">
      <!-- −21 -->
      <g style="fill: #262626" transform="translate(10.953438 325.845321) scale(0.14 -0.14)">
       <defs>
        <path id="DejaVuSans-2212" d="M 678 2272 
L 4684 2272 
L 4684 1741 
L 678 1741 
L 678 2272 
z
" transform="scale(0.015625)"/>
        <path id="DejaVuSans-32" d="M 1228 531 
L 3431 531 
L 3431 0 
L 469 0 
L 469 531 
Q 828 903 1448 1529 
Q 2069 2156 2228 2338 
Q 2531 2678 2651 2914 
Q 2772 3150 2772 3378 
Q 2772 3750 2511 3984 
Q 2250 4219 1831 4219 
Q 1534 4219 1204 4116 
Q 875 4013 500 3803 
L 500 4441 
Q 881 4594 1212 4672 
Q 1544 4750 1819 4750 
Q 2544 4750 2975 4387 
Q 3406 4025 3406 3419 
Q 3406 3131 3298 2873 
Q 3191 2616 2906 2266 
Q 2828 2175 2409 1742 
Q 1991 1309 1228 531 
z
" transform="scale(0.015625)"/>
       </defs>
       <use xlink:href="#DejaVuSans-2212"/>
       <use xlink:href="#DejaVuSans-32" transform="translate(83.789062 0)"/>
       <use xlink:href="#DejaVuSans-31" transform="translate(147.412109 0)"/>
      </g>
     </g>
    </g>
    <g id="ytick_2">
     <g id="line2d_4">
      <path d="M 47.5 301.49407 
L 529.2 301.49407 
" clip-path="url(#pb7df4901a2)" style="fill: none; stroke: #ffffff; stroke-width: 0.8; stroke-linecap: round"/>
     </g>
     <g id="text_4">
      <!-- −18 -->
      <g style="fill: #262626" transform="translate(10.953438 306.812976) scale(0.14 -0.14)">
       <defs>
        <path id="DejaVuSans-38" d="M 2034 2216 
Q 1584 2216 1326 1975 
Q 1069 1734 1069 1313 
Q 1069 891 1326 650 
Q 1584 409 2034 409 
Q 2484 409 2743 651 
Q 3003 894 3003 1313 
Q 3003 1734 2745 1975 
Q 2488 2216 2034 2216 
z
M 1403 2484 
Q 997 2584 770 2862 
Q 544 3141 544 3541 
Q 544 4100 942 4425 
Q 1341 4750 2034 4750 
Q 2731 4750 3128 4425 
Q 3525 4100 3525 3541 
Q 3525 3141 3298 2862 
Q 3072 2584 2669 2484 
Q 3125 2378 3379 2068 
Q 3634 1759 3634 1313 
Q 3634 634 3220 271 
Q 2806 -91 2034 -91 
Q 1263 -91 848 271 
Q 434 634 434 1313 
Q 434 1759 690 2068 
Q 947 2378 1403 2484 
z
M 1172 3481 
Q 1172 3119 1398 2916 
Q 1625 2713 2034 2713 
Q 2441 2713 2670 2916 
Q 2900 3119 2900 3481 
Q 2900 3844 2670 4047 
Q 2441 4250 2034 4250 
Q 1625 4250 1398 4047 
Q 1172 3844 1172 3481 
z
" transform="scale(0.015625)"/>
       </defs>
       <use xlink:href="#DejaVuSans-2212"/>
       <use xlink:href="#DejaVuSans-31" transform="translate(83.789062 0)"/>
       <use xlink:href="#DejaVuSans-38" transform="translate(147.412109 0)"/>
      </g>
     </g>
    </g>
    <g id="ytick_3">
     <g id="line2d_5">
      <path d="M 47.5 282.461725 
L 529.2 282.461725 
" clip-path="url(#pb7df4901a2)" style="fill: none; stroke: #ffffff; stroke-width: 0.8; stroke-linecap: round"/>
     </g>
     <g id="text_5">
      <!-- −15 -->
      <g style="fill: #262626" transform="translate(10.953438 287.780631) scale(0.14 -0.14)">
       <defs>
        <path id="DejaVuSans-35" d="M 691 4666 
L 3169 4666 
L 3169 4134 
L 1269 4134 
L 1269 2991 
Q 1406 3038 1543 3061 
Q 1681 3084 1819 3084 
Q 2600 3084 3056 2656 
Q 3513 2228 3513 1497 
Q 3513 744 3044 326 
Q 2575 -91 1722 -91 
Q 1428 -91 1123 -41 
Q 819 9 494 109 
L 494 744 
Q 775 591 1075 516 
Q 1375 441 1709 441 
Q 2250 441 2565 725 
Q 2881 1009 2881 1497 
Q 2881 1984 2565 2268 
Q 2250 2553 1709 2553 
Q 1456 2553 1204 2497 
Q 953 2441 691 2322 
L 691 4666 
z
" transform="scale(0.015625)"/>
       </defs>
       <use xlink:href="#DejaVuSans-2212"/>
       <use xlink:href="#DejaVuSans-31" transform="translate(83.789062 0)"/>
       <use xlink:href="#DejaVuSans-35" transform="translate(147.412109 0)"/>
      </g>
     </g>
    </g>
    <g id="ytick_4">
     <g id="line2d_6">
      <path d="M 47.5 263.42938 
L 529.2 263.42938 
" clip-path="url(#pb7df4901a2)" style="fill: none; stroke: #ffffff; stroke-width: 0.8; stroke-linecap: round"/>
     </g>
     <g id="text_6">
      <!-- −12 -->
      <g style="fill: #262626" transform="translate(10.953438 268.748286) scale(0.14 -0.14)">
       <use xlink:href="#DejaVuSans-2212"/>
       <use xlink:href="#DejaVuSans-31" transform="translate(83.789062 0)"/>
       <use xlink:href="#DejaVuSans-32" transform="translate(147.412109 0)"/>
      </g>
     </g>
    </g>
    <g id="ytick_5">
     <g id="line2d_7">
      <path d="M 47.5 244.397035 
L 529.2 244.397035 
" clip-path="url(#pb7df4901a2)" style="fill: none; stroke: #ffffff; stroke-width: 0.8; stroke-linecap: round"/>
     </g>
     <g id="text_7">
      <!-- −9 -->
      <g style="fill: #262626" transform="translate(19.860938 249.715941) scale(0.14 -0.14)">
       <defs>
        <path id="DejaVuSans-39" d="M 703 97 
L 703 672 
Q 941 559 1184 500 
Q 1428 441 1663 441 
Q 2288 441 2617 861 
Q 2947 1281 2994 2138 
Q 2813 1869 2534 1725 
Q 2256 1581 1919 1581 
Q 1219 1581 811 2004 
Q 403 2428 403 3163 
Q 403 3881 828 4315 
Q 1253 4750 1959 4750 
Q 2769 4750 3195 4129 
Q 3622 3509 3622 2328 
Q 3622 1225 3098 567 
Q 2575 -91 1691 -91 
Q 1453 -91 1209 -44 
Q 966 3 703 97 
z
M 1959 2075 
Q 2384 2075 2632 2365 
Q 2881 2656 2881 3163 
Q 2881 3666 2632 3958 
Q 2384 4250 1959 4250 
Q 1534 4250 1286 3958 
Q 1038 3666 1038 3163 
Q 1038 2656 1286 2365 
Q 1534 2075 1959 2075 
z
" transform="scale(0.015625)"/>
       </defs>
       <use xlink:href="#DejaVuSans-2212"/>
       <use xlink:href="#DejaVuSans-39" transform="translate(83.789062 0)"/>
      </g>
     </g>
    </g>
    <g id="ytick_6">
     <g id="line2d_8">
      <path d="M 47.5 225.36469 
L 529.2 225.36469 
" clip-path="url(#pb7df4901a2)" style="fill: none; stroke: #ffffff; stroke-width: 0.8; stroke-linecap: round"/>
     </g>
     <g id="text_8">
      <!-- −6 -->
      <g style="fill: #262626" transform="translate(19.860938 230.683596) scale(0.14 -0.14)">
       <defs>
        <path id="DejaVuSans-36" d="M 2113 2584 
Q 1688 2584 1439 2293 
Q 1191 2003 1191 1497 
Q 1191 994 1439 701 
Q 1688 409 2113 409 
Q 2538 409 2786 701 
Q 3034 994 3034 1497 
Q 3034 2003 2786 2293 
Q 2538 2584 2113 2584 
z
M 3366 4563 
L 3366 3988 
Q 3128 4100 2886 4159 
Q 2644 4219 2406 4219 
Q 1781 4219 1451 3797 
Q 1122 3375 1075 2522 
Q 1259 2794 1537 2939 
Q 1816 3084 2150 3084 
Q 2853 3084 3261 2657 
Q 3669 2231 3669 1497 
Q 3669 778 3244 343 
Q 2819 -91 2113 -91 
Q 1303 -91 875 529 
Q 447 1150 447 2328 
Q 447 3434 972 4092 
Q 1497 4750 2381 4750 
Q 2619 4750 2861 4703 
Q 3103 4656 3366 4563 
z
" transform="scale(0.015625)"/>
       </defs>
       <use xlink:href="#DejaVuSans-2212"/>
       <use xlink:href="#DejaVuSans-36" transform="translate(83.789062 0)"/>
      </g>
     </g>
    </g>
    <g id="ytick_7">
     <g id="line2d_9">
      <path d="M 47.5 206.332345 
L 529.2 206.332345 
" clip-path="url(#pb7df4901a2)" style="fill: none; stroke: #ffffff; stroke-width: 0.8; stroke-linecap: round"/>
     </g>
     <g id="text_9">
      <!-- −3 -->
      <g style="fill: #262626" transform="translate(19.860938 211.651251) scale(0.14 -0.14)">
       <defs>
        <path id="DejaVuSans-33" d="M 2597 2516 
Q 3050 2419 3304 2112 
Q 3559 1806 3559 1356 
Q 3559 666 3084 287 
Q 2609 -91 1734 -91 
Q 1441 -91 1130 -33 
Q 819 25 488 141 
L 488 750 
Q 750 597 1062 519 
Q 1375 441 1716 441 
Q 2309 441 2620 675 
Q 2931 909 2931 1356 
Q 2931 1769 2642 2001 
Q 2353 2234 1838 2234 
L 1294 2234 
L 1294 2753 
L 1863 2753 
Q 2328 2753 2575 2939 
Q 2822 3125 2822 3475 
Q 2822 3834 2567 4026 
Q 2313 4219 1838 4219 
Q 1578 4219 1281 4162 
Q 984 4106 628 3988 
L 628 4550 
Q 988 4650 1302 4700 
Q 1616 4750 1894 4750 
Q 2613 4750 3031 4423 
Q 3450 4097 3450 3541 
Q 3450 3153 3228 2886 
Q 3006 2619 2597 2516 
z
" transform="scale(0.015625)"/>
       </defs>
       <use xlink:href="#DejaVuSans-2212"/>
       <use xlink:href="#DejaVuSans-33" transform="translate(83.789062 0)"/>
      </g>
     </g>
    </g>
    <g id="ytick_8">
     <g id="line2d_10">
      <path d="M 47.5 187.3 
L 529.2 187.3 
" clip-path="url(#pb7df4901a2)" style="fill: none; stroke: #ffffff; stroke-width: 0.8; stroke-linecap: round"/>
     </g>
     <g id="text_10">
      <!-- 0 -->
      <g style="fill: #262626" transform="translate(31.5925 192.618906) scale(0.14 -0.14)">
       <use xlink:href="#DejaVuSans-30"/>
      </g>
     </g>
    </g>
    <g id="ytick_9">
     <g id="line2d_11">
      <path d="M 47.5 168.267655 
L 529.2 168.267655 
" clip-path="url(#pb7df4901a2)" style="fill: none; stroke: #ffffff; stroke-width: 0.8; stroke-linecap: round"/>
     </g>
     <g id="text_11">
      <!-- 3 -->
      <g style="fill: #262626" transform="translate(31.5925 173.586561) scale(0.14 -0.14)">
       <use xlink:href="#DejaVuSans-33"/>
      </g>
     </g>
    </g>
    <g id="ytick_10">
     <g id="line2d_12">
      <path d="M 47.5 149.23531 
L 529.2 149.23531 
" clip-path="url(#pb7df4901a2)" style="fill: none; stroke: #ffffff; stroke-width: 0.8; stroke-linecap: round"/>
     </g>
     <g id="text_12">
      <!-- 6 -->
      <g style="fill: #262626" transform="translate(31.5925 154.554216) scale(0.14 -0.14)">
       <use xlink:href="#DejaVuSans-36"/>
      </g>
     </g>
    </g>
    <g id="ytick_11">
     <g id="line2d_13">
      <path d="M 47.5 130.202965 
L 529.2 130.202965 
" clip-path="url(#pb7df4901a2)" style="fill: none; stroke: #ffffff; stroke-width: 0.8; stroke-linecap: round"/>
     </g>
     <g id="text_13">
      <!-- 9 -->
      <g style="fill: #262626" transform="translate(31.5925 135.521871) scale(0.14 -0.14)">
       <use xlink:href="#DejaVuSans-39"/>
      </g>
     </g>
    </g>
    <g id="ytick_12">
     <g id="line2d_14">
      <path d="M 47.5 111.17062 
L 529.2 111.17062 
" clip-path="url(#pb7df4901a2)" style="fill: none; stroke: #ffffff; stroke-width: 0.8; stroke-linecap: round"/>
     </g>
     <g id="text_14">
      <!-- 12 -->
      <g style="fill: #262626" transform="translate(22.685 116.489526) scale(0.14 -0.14)">
       <use xlink:href="#DejaVuSans-31"/>
       <use xlink:href="#DejaVuSans-32" transform="translate(63.623047 0)"/>
      </g>
     </g>
    </g>
    <g id="ytick_13">
     <g id="line2d_15">
      <path d="M 47.5 92.138275 
L 529.2 92.138275 
" clip-path="url(#pb7df4901a2)" style="fill: none; stroke: #ffffff; stroke-width: 0.8; stroke-linecap: round"/>
     </g>
     <g id="text_15">
      <!-- 15 -->
      <g style="fill: #262626" transform="translate(22.685 97.457181) scale(0.14 -0.14)">
       <use xlink:href="#DejaVuSans-31"/>
       <use xlink:href="#DejaVuSans-35" transform="translate(63.623047 0)"/>
      </g>
     </g>
    </g>
    <g id="ytick_14">
     <g id="line2d_16">
      <path d="M 47.5 73.10593 
L 529.2 73.10593 
" clip-path="url(#pb7df4901a2)" style="fill: none; stroke: #ffffff; stroke-width: 0.8; stroke-linecap: round"/>
     </g>
     <g id="text_16">
      <!-- 18 -->
      <g style="fill: #262626" transform="translate(22.685 78.424836) scale(0.14 -0.14)">
       <use xlink:href="#DejaVuSans-31"/>
       <use xlink:href="#DejaVuSans-38" transform="translate(63.623047 0)"/>
      </g>
     </g>
    </g>
    <g id="ytick_15">
     <g id="line2d_17">
      <path d="M 47.5 54.073585 
L 529.2 54.073585 
" clip-path="url(#pb7df4901a2)" style="fill: none; stroke: #ffffff; stroke-width: 0.8; stroke-linecap: round"/>
     </g>
     <g id="text_17">
      <!-- 21 -->
      <g style="fill: #262626" transform="translate(22.685 59.392491) scale(0.14 -0.14)">
       <use xlink:href="#DejaVuSans-32"/>
       <use xlink:href="#DejaVuSans-31" transform="translate(63.623047 0)"/>
      </g>
     </g>
    </g>
   </g>
   <g id="FillBetweenPolyCollection_1">
    <path d="M 56.640417 313.769564 
L 56.640417 316.498271 
L 61.320311 318.824774 
L 66.000205 317.639519 
L 70.680099 319.21639 
L 75.359992 318.655242 
L 80.039886 314.300313 
L 84.71978 317.635314 
L 89.399674 317.224429 
L 94.079567 320.307531 
L 98.759461 318.252899 
L 103.439355 301.983893 
L 108.119249 299.938822 
L 112.799142 295.978226 
L 117.479036 283.618687 
L 122.15893 279.975268 
L 126.838824 238.148644 
L 131.518717 244.311396 
L 136.198611 223.546168 
L 140.878505 228.18053 
L 145.558398 198.814399 
L 150.238292 178.071033 
L 154.918186 155.479184 
L 159.59808 135.727617 
L 164.277973 152.430551 
L 168.957867 118.100379 
L 173.637761 182.950225 
L 178.317655 127.776923 
L 182.997548 125.730547 
L 187.677442 172.272364 
L 192.357336 97.044952 
L 197.03723 137.448902 
L 201.717123 87.719808 
L 206.397017 102.100304 
L 211.076911 94.235939 
L 215.756805 204.741461 
L 220.436698 105.280676 
L 225.116592 126.737125 
L 229.796486 114.213637 
L 234.47638 102.150934 
L 239.156273 76.80942 
L 243.836167 69.803502 
L 248.516061 83.657703 
L 253.195954 67.376362 
L 257.875848 66.161261 
L 262.555742 80.430459 
L 267.235636 70.27931 
L 271.915529 83.847763 
L 276.595423 83.87276 
L 281.275317 105.328233 
L 285.955211 119.169184 
L 290.635104 88.829629 
L 295.314998 77.373509 
L 299.994892 86.064918 
L 304.674786 92.584909 
L 309.354679 94.462221 
L 314.034573 76.066353 
L 318.714467 82.153012 
L 323.394361 90.829391 
L 328.074254 88.711892 
L 332.754148 85.050015 
L 337.434042 71.227563 
L 342.113935 60.100494 
L 346.793829 73.330427 
L 351.473723 84.305738 
L 356.153617 63.168489 
L 360.83351 97.788554 
L 365.513404 73.330947 
L 370.193298 65.651595 
L 374.873192 71.553784 
L 379.553085 116.040013 
L 384.232979 70.84294 
L 388.912873 86.607204 
L 393.592767 70.480206 
L 398.27266 66.719265 
L 402.952554 68.08506 
L 407.632448 71.921579 
L 412.312342 125.119546 
L 416.992235 92.784969 
L 421.672129 89.102848 
L 426.352023 79.443806 
L 431.031917 84.719695 
L 435.71181 96.754604 
L 440.391704 119.135083 
L 445.071598 111.498122 
L 449.751491 146.292913 
L 454.431385 138.777528 
L 459.111279 100.287715 
L 463.791173 138.852269 
L 468.471066 119.743333 
L 473.15096 123.817785 
L 477.830854 152.680834 
L 482.510748 82.849386 
L 487.190641 93.571906 
L 491.870535 96.051671 
L 496.550429 158.988094 
L 501.230323 139.556441 
L 505.910216 90.410672 
L 510.59011 89.353997 
L 515.270004 216.303024 
L 519.949898 75.461923 
L 519.949898 55.841267 
L 519.949898 55.841267 
L 515.270004 7.307038 
L 510.59011 48.293308 
L 505.910216 47.553839 
L 501.230323 41.230845 
L 496.550429 37.342274 
L 491.870535 56.187098 
L 487.190641 57.080834 
L 482.510748 53.846301 
L 477.830854 35.402185 
L 473.15096 51.577004 
L 468.471066 42.64602 
L 463.791173 47.644721 
L 459.111279 56.70914 
L 454.431385 40.740935 
L 449.751491 41.790106 
L 445.071598 62.627843 
L 440.391704 36.275744 
L 435.71181 45.967992 
L 431.031917 48.803935 
L 426.352023 51.224972 
L 421.672129 47.910045 
L 416.992235 47.717187 
L 412.312342 35.366573 
L 407.632448 53.671907 
L 402.952554 53.701957 
L 398.27266 53.164517 
L 393.592767 52.575634 
L 388.912873 57.701422 
L 384.232979 57.288192 
L 379.553085 53.327867 
L 374.873192 60.383817 
L 370.193298 55.501011 
L 365.513404 61.1443 
L 360.83351 44.934042 
L 356.153617 54.812059 
L 351.473723 57.148035 
L 346.793829 50.359824 
L 342.113935 55.025202 
L 337.434042 60.075627 
L 332.754148 63.382285 
L 328.074254 54.645116 
L 323.394361 56.334086 
L 318.714467 63.424436 
L 314.034573 59.043306 
L 309.354679 59.362577 
L 304.674786 49.503276 
L 299.994892 52.534004 
L 295.314998 60.273795 
L 290.635104 54.527379 
L 285.955211 49.247078 
L 281.275317 71.335378 
L 276.595423 57.581014 
L 271.915529 54.751159 
L 267.235636 61.341085 
L 262.555742 59.437285 
L 257.875848 57.211785 
L 253.195954 57.265507 
L 248.516061 63.505774 
L 243.836167 60.865276 
L 239.156273 59.569061 
L 234.47638 58.335185 
L 229.796486 55.471448 
L 225.116592 42.94796 
L 220.436698 59.963529 
L 215.756805 49.320354 
L 211.076911 67.519003 
L 206.397017 68.536398 
L 201.717123 70.863076 
L 197.03723 59.198673 
L 192.357336 64.392784 
L 187.677442 52.923727 
L 182.997548 76.309525 
L 178.317655 62.526536 
L 173.637761 64.133063 
L 168.957867 73.789109 
L 164.277973 85.136564 
L 159.59808 88.199652 
L 154.918186 107.147186 
L 150.238292 102.636065 
L 145.558398 115.833714 
L 140.878505 132.145212 
L 136.198611 159.618387 
L 131.518717 132.191839 
L 126.838824 155.800907 
L 122.15893 163.45838 
L 117.479036 149.029965 
L 112.799142 155.385566 
L 108.119249 165.064817 
L 103.439355 165.557391 
L 98.759461 184.181019 
L 94.079567 191.008148 
L 89.399674 227.715059 
L 84.71978 266.320481 
L 80.039886 285.832975 
L 75.359992 306.854506 
L 70.680099 310.099828 
L 66.000205 314.53155 
L 61.320311 311.760266 
L 56.640417 313.769564 
z
" clip-path="url(#pb7df4901a2)" style="fill: #023eff; fill-opacity: 0.1"/>
   </g>
   <g id="line2d_18">
    <path d="M 56.640417 314.975314 
L 61.320311 315.768329 
L 66.000205 315.768329 
L 70.680099 318.147372 
L 75.359992 314.975314 
L 80.039886 316.561343 
L 84.71978 314.975314 
L 89.399674 316.561343 
L 94.079567 310.217228 
L 98.759461 305.459142 
L 103.439355 289.598854 
L 108.119249 291.977898 
L 112.799142 295.149955 
L 117.479036 245.190049 
L 122.15893 265.808423 
L 126.838824 256.292251 
L 131.518717 261.843351 
L 136.198611 196.816173 
L 140.878505 221.399618 
L 145.558398 196.816173 
L 150.238292 199.195216 
L 154.918186 146.063252 
L 159.59808 127.823922 
L 164.277973 127.030907 
L 168.957867 81.036074 
L 173.637761 60.4177 
L 178.317655 61.210714 
L 182.997548 65.175786 
L 187.677442 66.761815 
L 192.357336 67.554829 
L 197.03723 85.79416 
L 201.717123 79.450045 
L 206.397017 107.998562 
L 211.076911 91.345261 
L 215.756805 81.036074 
L 220.436698 92.138275 
L 225.116592 57.245642 
L 229.796486 57.245642 
L 234.47638 54.073585 
L 239.156273 58.831671 
L 243.836167 58.831671 
L 248.516061 65.968801 
L 253.195954 54.866599 
L 257.875848 54.866599 
L 262.555742 60.4177 
L 267.235636 58.038657 
L 271.915529 97.689376 
L 276.595423 64.382772 
L 281.275317 99.275404 
L 285.955211 146.063252 
L 290.635104 65.968801 
L 295.314998 81.036074 
L 299.994892 98.48239 
L 304.674786 54.073585 
L 309.354679 78.657031 
L 314.034573 82.622102 
L 318.714467 77.864016 
L 323.394361 107.998562 
L 328.074254 105.619519 
L 332.754148 82.622102 
L 337.434042 55.659614 
L 342.113935 55.659614 
L 346.793829 54.073585 
L 351.473723 54.073585 
L 356.153617 54.073585 
L 360.83351 54.073585 
L 365.513404 60.4177 
L 370.193298 54.073585 
L 374.873192 69.933872 
L 379.553085 121.479807 
L 384.232979 67.554829 
L 388.912873 62.003729 
L 393.592767 56.452628 
L 398.27266 54.073585 
L 402.952554 54.073585 
L 407.632448 54.073585 
L 412.312342 54.073585 
L 416.992235 54.073585 
L 421.672129 54.073585 
L 426.352023 62.003729 
L 431.031917 54.073585 
L 435.71181 54.866599 
L 440.391704 54.073585 
L 445.071598 54.073585 
L 449.751491 64.382772 
L 454.431385 58.831671 
L 459.111279 54.073585 
L 463.791173 54.073585 
L 468.471066 54.073585 
L 473.15096 54.073585 
L 477.830854 54.073585 
L 482.510748 55.659614 
L 487.190641 54.073585 
L 491.870535 54.073585 
L 496.550429 54.073585 
L 501.230323 55.659614 
L 505.910216 54.073585 
L 510.59011 54.073585 
L 515.270004 54.073585 
L 519.949898 58.038657 
" clip-path="url(#pb7df4901a2)" style="fill: none; stroke: #1ac938; stroke-opacity: 0.27; stroke-width: 1.25; stroke-linecap: round"/>
   </g>
   <g id="line2d_19">
    <path d="M 56.640417 317.354358 
L 61.320311 320.526415 
L 66.000205 318.940386 
L 70.680099 318.147372 
L 75.359992 318.940386 
L 80.039886 314.1823 
L 84.71978 314.1823 
L 89.399674 309.424214 
L 94.079567 301.49407 
L 98.759461 299.115027 
L 103.439355 262.636366 
L 108.119249 265.808423 
L 112.799142 245.983064 
L 117.479036 257.878279 
L 122.15893 270.566509 
L 126.838824 209.504403 
L 131.518717 228.536748 
L 136.198611 247.569093 
L 140.878505 245.983064 
L 145.558398 205.539331 
L 150.238292 137.340094 
L 154.918186 161.92354 
L 159.59808 117.514735 
L 164.277973 75.484973 
L 168.957867 74.691959 
L 173.637761 235.673877 
L 178.317655 83.415117 
L 182.997548 106.412534 
L 187.677442 62.003729 
L 192.357336 89.759232 
L 197.03723 172.232727 
L 201.717123 77.864016 
L 206.397017 69.933872 
L 211.076911 101.654447 
L 215.756805 124.651864 
L 220.436698 123.065836 
L 225.116592 63.589757 
L 229.796486 130.995979 
L 234.47638 115.928706 
L 239.156273 83.415117 
L 243.836167 69.933872 
L 248.516061 90.552246 
L 253.195954 62.796743 
L 257.875848 64.382772 
L 262.555742 89.759232 
L 267.235636 69.933872 
L 271.915529 65.175786 
L 276.595423 77.864016 
L 281.275317 111.963634 
L 285.955211 100.068419 
L 290.635104 65.175786 
L 295.314998 63.589757 
L 299.994892 77.071002 
L 304.674786 64.382772 
L 309.354679 75.484973 
L 314.034573 69.933872 
L 318.714467 86.587174 
L 323.394361 62.796743 
L 328.074254 63.589757 
L 332.754148 65.175786 
L 337.434042 70.726887 
L 342.113935 60.4177 
L 346.793829 84.208131 
L 351.473723 94.517318 
L 356.153617 65.968801 
L 360.83351 123.85885 
L 365.513404 76.277987 
L 370.193298 69.140858 
L 374.873192 68.347844 
L 379.553085 123.85885 
L 384.232979 73.898944 
L 388.912873 85.79416 
L 393.592767 78.657031 
L 398.27266 70.726887 
L 402.952554 73.10593 
L 407.632448 78.657031 
L 412.312342 169.853684 
L 416.992235 114.342677 
L 421.672129 107.998562 
L 426.352023 92.931289 
L 431.031917 100.861433 
L 435.71181 121.479807 
L 440.391704 160.337511 
L 445.071598 115.928706 
L 449.751491 89.759232 
L 454.431385 62.003729 
L 459.111279 73.10593 
L 463.791173 142.891195 
L 468.471066 77.864016 
L 473.15096 78.657031 
L 477.830854 92.138275 
L 482.510748 71.519901 
L 487.190641 106.412534 
L 491.870535 71.519901 
L 496.550429 76.277987 
L 501.230323 95.310332 
L 505.910216 64.382772 
L 510.59011 60.4177 
L 515.270004 62.003729 
L 519.949898 77.071002 
" clip-path="url(#pb7df4901a2)" style="fill: none; stroke: #1ac938; stroke-opacity: 0.27; stroke-width: 1.25; stroke-linecap: round"/>
   </g>
   <g id="line2d_20">
    <path d="M 56.640417 313.389286 
L 61.320311 317.354358 
L 66.000205 315.768329 
L 70.680099 313.389286 
L 75.359992 314.1823 
L 80.039886 300.701056 
L 84.71978 309.424214 
L 89.399674 299.115027 
L 94.079567 299.908041 
L 98.759461 304.666128 
L 103.439355 297.528998 
L 108.119249 289.598854 
L 112.799142 286.426797 
L 117.479036 287.219811 
L 122.15893 258.671294 
L 126.838824 192.851101 
L 131.518717 110.377606 
L 136.198611 169.853684 
L 140.878505 130.202965 
L 145.558398 111.963634 
L 150.238292 92.138275 
L 154.918186 89.759232 
L 159.59808 71.519901 
L 164.277973 101.654447 
L 168.957867 78.657031 
L 173.637761 116.721721 
L 178.317655 92.138275 
L 182.997548 88.173203 
L 187.677442 80.243059 
L 192.357336 67.554829 
L 197.03723 73.898944 
L 201.717123 64.382772 
L 206.397017 100.068419 
L 211.076911 66.761815 
L 215.756805 84.208131 
L 220.436698 63.589757 
L 225.116592 168.267655 
L 229.796486 107.998562 
L 234.47638 75.484973 
L 239.156273 67.554829 
L 243.836167 70.726887 
L 248.516061 68.347844 
L 253.195954 61.210714 
L 257.875848 58.038657 
L 262.555742 70.726887 
L 267.235636 68.347844 
L 271.915529 65.175786 
L 276.595423 92.931289 
L 281.275317 85.79416 
L 285.955211 54.866599 
L 290.635104 105.619519 
L 295.314998 77.071002 
L 299.994892 54.866599 
L 304.674786 113.549663 
L 309.354679 108.791577 
L 314.034573 58.831671 
L 318.714467 63.589757 
L 323.394361 65.968801 
L 328.074254 64.382772 
L 332.754148 91.345261 
L 337.434042 63.589757 
L 342.113935 54.073585 
L 346.793829 54.073585 
L 351.473723 70.726887 
L 356.153617 56.452628 
L 360.83351 57.245642 
L 365.513404 60.4177 
L 370.193298 60.4177 
L 374.873192 68.347844 
L 379.553085 56.452628 
L 384.232979 59.624686 
L 388.912873 66.761815 
L 393.592767 56.452628 
L 398.27266 54.866599 
L 402.952554 58.831671 
L 407.632448 61.210714 
L 412.312342 58.038657 
L 416.992235 55.659614 
L 421.672129 55.659614 
L 426.352023 56.452628 
L 431.031917 54.866599 
L 435.71181 54.073585 
L 440.391704 54.866599 
L 445.071598 88.966217 
L 449.751491 55.659614 
L 454.431385 57.245642 
L 459.111279 81.036074 
L 463.791173 54.073585 
L 468.471066 54.866599 
L 473.15096 88.966217 
L 477.830854 54.073585 
L 482.510748 95.310332 
L 487.190641 73.10593 
L 491.870535 111.963634 
L 496.550429 81.036074 
L 501.230323 184.127942 
L 505.910216 54.866599 
L 510.59011 58.831671 
L 515.270004 54.073585 
L 519.949898 54.866599 
" clip-path="url(#pb7df4901a2)" style="fill: none; stroke: #1ac938; stroke-opacity: 0.27; stroke-width: 1.25; stroke-linecap: round"/>
   </g>
   <g id="line2d_21">
    <path d="M 56.640417 315.768329 
L 61.320311 311.010243 
L 66.000205 315.768329 
L 70.680099 306.252156 
L 75.359992 301.49407 
L 80.039886 279.289668 
L 84.71978 259.464308 
L 89.399674 228.536748 
L 94.079567 224.571676 
L 98.759461 207.125359 
L 103.439355 205.539331 
L 108.119249 199.98823 
L 112.799142 197.609187 
L 117.479036 196.023158 
L 122.15893 194.437129 
L 126.838824 198.402201 
L 131.518717 201.574259 
L 136.198611 190.472058 
L 140.878505 177.783827 
L 145.558398 165.888612 
L 150.238292 161.92354 
L 154.918186 133.375022 
L 159.59808 140.512152 
L 164.277973 176.990813 
L 168.957867 117.514735 
L 173.637761 93.724304 
L 178.317655 81.829088 
L 182.997548 104.826505 
L 187.677442 220.606604 
L 192.357336 69.933872 
L 197.03723 60.4177 
L 201.717123 87.380189 
L 206.397017 64.382772 
L 211.076911 70.726887 
L 215.756805 67.554829 
L 220.436698 67.554829 
L 225.116592 69.140858 
L 229.796486 61.210714 
L 234.47638 63.589757 
L 239.156273 61.210714 
L 243.836167 64.382772 
L 248.516061 63.589757 
L 253.195954 70.726887 
L 257.875848 66.761815 
L 262.555742 65.968801 
L 267.235636 69.140858 
L 271.915529 56.452628 
L 276.595423 56.452628 
L 281.275317 83.415117 
L 285.955211 58.831671 
L 290.635104 58.831671 
L 295.314998 59.624686 
L 299.994892 54.073585 
L 304.674786 60.4177 
L 309.354679 60.4177 
L 314.034573 60.4177 
L 318.714467 61.210714 
L 323.394361 65.175786 
L 328.074254 60.4177 
L 332.754148 67.554829 
L 337.434042 68.347844 
L 342.113935 57.245642 
L 346.793829 55.659614 
L 351.473723 62.003729 
L 356.153617 57.245642 
L 360.83351 58.038657 
L 365.513404 69.933872 
L 370.193298 57.245642 
L 374.873192 54.866599 
L 379.553085 54.073585 
L 384.232979 54.073585 
L 388.912873 54.073585 
L 393.592767 54.073585 
L 398.27266 54.866599 
L 402.952554 54.073585 
L 407.632448 54.073585 
L 412.312342 57.245642 
L 416.992235 59.624686 
L 421.672129 54.866599 
L 426.352023 54.073585 
L 431.031917 54.866599 
L 435.71181 65.175786 
L 440.391704 56.452628 
L 445.071598 111.17062 
L 449.751491 196.023158 
L 454.431385 185.713971 
L 459.111279 118.307749 
L 463.791173 154.786411 
L 468.471066 156.372439 
L 473.15096 155.579425 
L 477.830854 207.918374 
L 482.510748 58.831671 
L 487.190641 81.829088 
L 491.870535 80.243059 
L 496.550429 218.227561 
L 501.230323 54.866599 
L 505.910216 111.17062 
L 510.59011 109.584591 
L 515.270004 68.347844 
L 519.949898 77.864016 
" clip-path="url(#pb7df4901a2)" style="fill: none; stroke: #1ac938; stroke-opacity: 0.27; stroke-width: 1.25; stroke-linecap: round"/>
   </g>
   <g id="line2d_22">
    <path d="M 56.640417 314.1823 
L 61.320311 311.803257 
L 66.000205 314.1823 
L 70.680099 317.354358 
L 75.359992 314.1823 
L 80.039886 289.598854 
L 84.71978 261.843351 
L 89.399674 208.711388 
L 94.079567 142.098181 
L 98.759461 139.719137 
L 103.439355 113.549663 
L 108.119249 115.135692 
L 112.799142 103.240476 
L 117.479036 95.310332 
L 122.15893 119.100764 
L 126.838824 127.823922 
L 131.518717 138.926123 
L 136.198611 153.200382 
L 140.878505 125.444879 
L 145.558398 106.412534 
L 150.238292 111.17062 
L 154.918186 125.444879 
L 159.59808 102.447462 
L 164.277973 112.756649 
L 168.957867 127.823922 
L 173.637761 111.17062 
L 178.317655 157.165454 
L 182.997548 140.512152 
L 187.677442 133.375022 
L 192.357336 108.791577 
L 197.03723 99.275404 
L 201.717123 87.380189 
L 206.397017 84.208131 
L 211.076911 73.898944 
L 215.756805 277.703639 
L 220.436698 66.761815 
L 225.116592 65.968801 
L 229.796486 66.761815 
L 234.47638 92.138275 
L 239.156273 69.933872 
L 243.836167 62.796743 
L 248.516061 79.450045 
L 253.195954 62.003729 
L 257.875848 64.382772 
L 262.555742 62.796743 
L 267.235636 63.589757 
L 271.915529 62.003729 
L 276.595423 62.003729 
L 281.275317 61.210714 
L 285.955211 61.210714 
L 290.635104 62.796743 
L 295.314998 62.796743 
L 299.994892 62.003729 
L 304.674786 62.796743 
L 309.354679 61.210714 
L 314.034573 65.968801 
L 318.714467 74.691959 
L 323.394361 65.968801 
L 328.074254 64.382772 
L 332.754148 64.382772 
L 337.434042 69.933872 
L 342.113935 60.4177 
L 346.793829 61.210714 
L 351.473723 72.312916 
L 356.153617 61.210714 
L 360.83351 63.589757 
L 365.513404 69.140858 
L 370.193298 62.003729 
L 374.873192 68.347844 
L 379.553085 67.554829 
L 384.232979 65.175786 
L 388.912873 92.138275 
L 393.592767 62.003729 
L 398.27266 65.175786 
L 402.952554 64.382772 
L 407.632448 65.968801 
L 412.312342 62.003729 
L 416.992235 67.554829 
L 421.672129 69.933872 
L 426.352023 61.210714 
L 431.031917 69.140858 
L 435.71181 61.210714 
L 440.391704 62.796743 
L 445.071598 65.175786 
L 449.751491 64.382772 
L 454.431385 85.001146 
L 459.111279 65.968801 
L 463.791173 60.4177 
L 468.471066 62.796743 
L 473.15096 61.210714 
L 477.830854 62.003729 
L 482.510748 60.4177 
L 487.190641 61.210714 
L 491.870535 62.796743 
L 496.550429 61.210714 
L 501.230323 62.003729 
L 505.910216 60.4177 
L 510.59011 61.210714 
L 515.270004 320.526415 
L 519.949898 60.4177 
" clip-path="url(#pb7df4901a2)" style="fill: none; stroke: #1ac938; stroke-opacity: 0.27; stroke-width: 1.25; stroke-linecap: round"/>
   </g>
   <g id="line2d_23">
    <path d="M 56.640417 54.073585 
L 61.320311 66.156468 
L 66.000205 80.346717 
L 70.680099 100.575479 
L 75.359992 124.561904 
L 80.039886 158.076742 
L 84.71978 181.472478 
L 89.399674 193.245834 
L 94.079567 215.331703 
L 98.759461 233.501865 
L 103.439355 243.754082 
L 108.119249 245.50193 
L 112.799142 236.029103 
L 117.479036 254.913478 
L 122.15893 258.865936 
L 126.838824 272.905891 
L 131.518717 258.243473 
L 136.198611 257.130757 
L 140.878505 258.362711 
L 145.558398 261.019842 
L 150.238292 265.772177 
L 154.918186 271.98819 
L 159.59808 273.264059 
L 164.277973 272.177486 
L 168.957867 280.979399 
L 173.637761 287.429662 
L 178.317655 294.495689 
L 182.997548 289.6627 
L 187.677442 292.071745 
L 192.357336 300.210547 
L 197.03723 301.465106 
L 201.717123 295.106023 
L 206.397017 294.604345 
L 211.076911 289.602151 
L 215.756805 297.924648 
L 220.436698 297.034679 
L 225.116592 301.246787 
L 229.796486 303.596734 
L 234.47638 293.898909 
L 239.156273 287.653728 
L 243.836167 290.169619 
L 248.516061 295.412683 
L 253.195954 296.578408 
L 257.875848 298.071643 
L 262.555742 296.980397 
L 267.235636 302.033766 
L 271.915529 296.037292 
L 276.595423 294.869718 
L 281.275317 289.21329 
L 285.955211 291.988488 
L 290.635104 290.2847 
L 295.314998 300.57039 
L 299.994892 306.199359 
L 304.674786 308.749177 
L 309.354679 307.946613 
L 314.034573 309.502482 
L 318.714467 318.62936 
L 323.394361 309.780422 
L 328.074254 302.536342 
L 332.754148 302.610439 
L 337.434042 297.834075 
L 342.113935 294.903947 
L 346.793829 297.696059 
L 351.473723 298.266989 
L 356.153617 302.64056 
L 360.83351 302.417449 
L 365.513404 295.441034 
L 370.193298 302.284544 
L 374.873192 297.205316 
L 379.553085 302.421374 
L 384.232979 304.083374 
L 388.912873 304.472425 
L 393.592767 307.268878 
L 398.27266 302.902838 
L 402.952554 306.032634 
L 407.632448 307.074728 
L 412.312342 304.995349 
L 416.992235 301.823329 
L 421.672129 301.880884 
L 426.352023 302.408363 
L 431.031917 294.69369 
L 435.71181 296.271858 
L 440.391704 310.127916 
L 445.071598 311.214505 
L 449.751491 309.981909 
L 454.431385 304.27907 
L 459.111279 305.925501 
L 463.791173 310.998384 
L 468.471066 311.36864 
L 473.15096 314.443608 
L 477.830854 314.153776 
L 482.510748 313.83534 
L 487.190641 317.67619 
L 491.870535 309.104404 
L 496.550429 301.559381 
L 501.230323 316.957426 
L 505.910216 307.676221 
L 510.59011 310.273214 
L 515.270004 308.704439 
L 519.949898 320.526415 
" clip-path="url(#pb7df4901a2)" style="fill: none; stroke: #8b2be2; stroke-width: 1.5; stroke-linecap: round"/>
   </g>
   <g id="line2d_24">
    <path d="M 56.640417 315.133917 
L 61.320311 315.29252 
L 66.000205 316.085535 
L 70.680099 314.658109 
L 75.359992 312.754874 
L 80.039886 300.066644 
L 84.71978 291.977898 
L 89.399674 272.469744 
L 94.079567 255.657839 
L 98.759461 251.216959 
L 103.439355 233.770642 
L 108.119249 232.501819 
L 112.799142 225.681896 
L 117.479036 216.324326 
L 122.15893 221.716824 
L 126.838824 196.974775 
L 131.518717 188.251617 
L 136.198611 191.582278 
L 140.878505 180.162871 
L 145.558398 157.324057 
L 150.238292 140.353549 
L 154.918186 131.313185 
L 159.59808 111.963634 
L 164.277973 118.783558 
L 168.957867 95.944744 
L 173.637761 123.541644 
L 178.317655 95.15173 
L 182.997548 101.020036 
L 187.677442 112.598046 
L 192.357336 80.718868 
L 197.03723 98.323787 
L 201.717123 79.291442 
L 206.397017 85.318351 
L 211.076911 80.877471 
L 215.756805 127.030907 
L 220.436698 82.622102 
L 225.116592 84.842543 
L 229.796486 84.842543 
L 234.47638 80.243059 
L 239.156273 68.189241 
L 243.836167 65.334389 
L 248.516061 73.581739 
L 253.195954 62.320934 
L 257.875848 61.686523 
L 262.555742 69.933872 
L 267.235636 65.810198 
L 271.915529 69.299461 
L 276.595423 70.726887 
L 281.275317 88.331806 
L 285.955211 84.208131 
L 290.635104 71.678504 
L 295.314998 68.823652 
L 299.994892 69.299461 
L 304.674786 71.044093 
L 309.354679 76.912399 
L 314.034573 67.554829 
L 318.714467 72.788724 
L 323.394361 73.581739 
L 328.074254 71.678504 
L 332.754148 74.21615 
L 337.434042 65.651595 
L 342.113935 57.562848 
L 346.793829 61.845126 
L 351.473723 70.726887 
L 356.153617 58.990274 
L 360.83351 71.361298 
L 365.513404 67.237624 
L 370.193298 60.576303 
L 374.873192 65.968801 
L 379.553085 84.68394 
L 384.232979 64.065566 
L 388.912873 72.154313 
L 393.592767 61.52792 
L 398.27266 59.941891 
L 402.952554 60.893509 
L 407.632448 62.796743 
L 412.312342 80.243059 
L 416.992235 70.251078 
L 421.672129 68.506447 
L 426.352023 65.334389 
L 431.031917 66.761815 
L 435.71181 71.361298 
L 440.391704 77.705413 
L 445.071598 87.062983 
L 449.751491 94.041509 
L 454.431385 89.759232 
L 459.111279 78.498428 
L 463.791173 93.248495 
L 468.471066 81.194677 
L 473.15096 87.697394 
L 477.830854 94.041509 
L 482.510748 68.347844 
L 487.190641 75.32637 
L 491.870535 76.119385 
L 496.550429 98.165184 
L 501.230323 90.393643 
L 505.910216 68.982255 
L 510.59011 68.823652 
L 515.270004 111.805031 
L 519.949898 65.651595 
" clip-path="url(#pb7df4901a2)" style="fill: none; stroke: #023eff; stroke-width: 2; stroke-linecap: round"/>
   </g>
   <g id="line2d_25">
    <path d="M 47.5 63.589757 
L 529.2 63.589757 
" clip-path="url(#pb7df4901a2)" style="fill: none; stroke-dasharray: 1.25,2.0625; stroke-dashoffset: 0; stroke: #000000; stroke-opacity: 0.6; stroke-width: 1.25"/>
   </g>
   <g id="patch_3">
    <path d="M 47.5 328.52 
L 47.5 46.08 
" style="fill: none; stroke: #ffffff; stroke-width: 0.8; stroke-linejoin: miter; stroke-linecap: square"/>
   </g>
   <g id="patch_4">
    <path d="M 529.2 328.52 
L 529.2 46.08 
" style="fill: none; stroke: #ffffff; stroke-width: 0.8; stroke-linejoin: miter; stroke-linecap: square"/>
   </g>
   <g id="patch_5">
    <path d="M 47.5 328.52 
L 529.2 328.52 
" style="fill: none; stroke: #ffffff; stroke-width: 0.8; stroke-linejoin: miter; stroke-linecap: square"/>
   </g>
   <g id="patch_6">
    <path d="M 47.5 46.08 
L 529.2 46.08 
" style="fill: none; stroke: #ffffff; stroke-width: 0.8; stroke-linejoin: miter; stroke-linecap: square"/>
   </g>
  </g>
  <g id="text_18">
   <!-- CMU-Net | APM -->
   <g style="fill: #262626" transform="translate(167.84625 25.54125) scale(0.24 -0.24)">
    <defs>
     <path id="DejaVuSans-Bold-43" d="M 4288 256 
Q 3956 84 3597 -3 
Q 3238 -91 2847 -91 
Q 1681 -91 1000 561 
Q 319 1213 319 2328 
Q 319 3447 1000 4098 
Q 1681 4750 2847 4750 
Q 3238 4750 3597 4662 
Q 3956 4575 4288 4403 
L 4288 3438 
Q 3953 3666 3628 3772 
Q 3303 3878 2944 3878 
Q 2300 3878 1931 3465 
Q 1563 3053 1563 2328 
Q 1563 1606 1931 1193 
Q 2300 781 2944 781 
Q 3303 781 3628 887 
Q 3953 994 4288 1222 
L 4288 256 
z
" transform="scale(0.015625)"/>
     <path id="DejaVuSans-Bold-4d" d="M 588 4666 
L 2119 4666 
L 3181 2169 
L 4250 4666 
L 5778 4666 
L 5778 0 
L 4641 0 
L 4641 3413 
L 3566 897 
L 2803 897 
L 1728 3413 
L 1728 0 
L 588 0 
L 588 4666 
z
" transform="scale(0.015625)"/>
     <path id="DejaVuSans-Bold-55" d="M 588 4666 
L 1791 4666 
L 1791 1869 
Q 1791 1291 1980 1042 
Q 2169 794 2597 794 
Q 3028 794 3217 1042 
Q 3406 1291 3406 1869 
L 3406 4666 
L 4609 4666 
L 4609 1869 
Q 4609 878 4112 393 
Q 3616 -91 2597 -91 
Q 1581 -91 1084 393 
Q 588 878 588 1869 
L 588 4666 
z
" transform="scale(0.015625)"/>
     <path id="DejaVuSans-Bold-2d" d="M 347 2297 
L 2309 2297 
L 2309 1388 
L 347 1388 
L 347 2297 
z
" transform="scale(0.015625)"/>
     <path id="DejaVuSans-Bold-4e" d="M 588 4666 
L 1931 4666 
L 3628 1466 
L 3628 4666 
L 4769 4666 
L 4769 0 
L 3425 0 
L 1728 3200 
L 1728 0 
L 588 0 
L 588 4666 
z
" transform="scale(0.015625)"/>
     <path id="DejaVuSans-Bold-65" d="M 4031 1759 
L 4031 1441 
L 1416 1441 
Q 1456 1047 1700 850 
Q 1944 653 2381 653 
Q 2734 653 3104 758 
Q 3475 863 3866 1075 
L 3866 213 
Q 3469 63 3072 -14 
Q 2675 -91 2278 -91 
Q 1328 -91 801 392 
Q 275 875 275 1747 
Q 275 2603 792 3093 
Q 1309 3584 2216 3584 
Q 3041 3584 3536 3087 
Q 4031 2591 4031 1759 
z
M 2881 2131 
Q 2881 2450 2695 2645 
Q 2509 2841 2209 2841 
Q 1884 2841 1681 2658 
Q 1478 2475 1428 2131 
L 2881 2131 
z
" transform="scale(0.015625)"/>
     <path id="DejaVuSans-Bold-74" d="M 1759 4494 
L 1759 3500 
L 2913 3500 
L 2913 2700 
L 1759 2700 
L 1759 1216 
Q 1759 972 1856 886 
Q 1953 800 2241 800 
L 2816 800 
L 2816 0 
L 1856 0 
Q 1194 0 917 276 
Q 641 553 641 1216 
L 641 2700 
L 84 2700 
L 84 3500 
L 641 3500 
L 641 4494 
L 1759 4494 
z
" transform="scale(0.015625)"/>
     <path id="DejaVuSans-Bold-20" transform="scale(0.015625)"/>
     <path id="DejaVuSans-Bold-7c" d="M 1522 4891 
L 1522 -1509 
L 813 -1509 
L 813 4891 
L 1522 4891 
z
" transform="scale(0.015625)"/>
     <path id="DejaVuSans-Bold-41" d="M 3419 850 
L 1538 850 
L 1241 0 
L 31 0 
L 1759 4666 
L 3194 4666 
L 4922 0 
L 3713 0 
L 3419 850 
z
M 1838 1716 
L 3116 1716 
L 2478 3572 
L 1838 1716 
z
" transform="scale(0.015625)"/>
     <path id="DejaVuSans-Bold-50" d="M 588 4666 
L 2584 4666 
Q 3475 4666 3951 4270 
Q 4428 3875 4428 3144 
Q 4428 2409 3951 2014 
Q 3475 1619 2584 1619 
L 1791 1619 
L 1791 0 
L 588 0 
L 588 4666 
z
M 1791 3794 
L 1791 2491 
L 2456 2491 
Q 2806 2491 2997 2661 
Q 3188 2831 3188 3144 
Q 3188 3456 2997 3625 
Q 2806 3794 2456 3794 
L 1791 3794 
z
" transform="scale(0.015625)"/>
    </defs>
    <use xlink:href="#DejaVuSans-Bold-43"/>
    <use xlink:href="#DejaVuSans-Bold-4d" transform="translate(73.388672 0)"/>
    <use xlink:href="#DejaVuSans-Bold-55" transform="translate(172.900391 0)"/>
    <use xlink:href="#DejaVuSans-Bold-2d" transform="translate(254.101562 0)"/>
    <use xlink:href="#DejaVuSans-Bold-4e" transform="translate(295.605469 0)"/>
    <use xlink:href="#DejaVuSans-Bold-65" transform="translate(379.296875 0)"/>
    <use xlink:href="#DejaVuSans-Bold-74" transform="translate(447.119141 0)"/>
    <use xlink:href="#DejaVuSans-Bold-20" transform="translate(494.921875 0)"/>
    <use xlink:href="#DejaVuSans-Bold-7c" transform="translate(529.736328 0)"/>
    <use xlink:href="#DejaVuSans-Bold-20" transform="translate(566.259766 0)"/>
    <use xlink:href="#DejaVuSans-Bold-41" transform="translate(601.074219 0)"/>
    <use xlink:href="#DejaVuSans-Bold-50" transform="translate(678.466797 0)"/>
    <use xlink:href="#DejaVuSans-Bold-4d" transform="translate(751.757812 0)"/>
   </g>
  </g>
 </g>
 <defs>
  <clipPath id="pb7df4901a2">
   <rect x="47.5" y="46.08" width="481.7" height="282.44"/>
  </clipPath>
 </defs>
</svg>
