<?xml version="1.0" encoding="utf-8" standalone="no"?>
<!DOCTYPE svg PUBLIC "-//W3C//DTD SVG 1.1//EN"
  "http://www.w3.org/Graphics/SVG/1.1/DTD/svg11.dtd">
<svg xmlns:xlink="http://www.w3.org/1999/xlink" width="648pt" height="432pt" viewBox="0 0 648 432" xmlns="http://www.w3.org/2000/svg" version="1.1">
 <metadata>
  <rdf:RDF xmlns:dc="http://purl.org/dc/elements/1.1/" xmlns:cc="http://creativecommons.org/ns#" xmlns:rdf="http://www.w3.org/1999/02/22-rdf-syntax-ns#">
   <cc:Work>
    <dc:type rdf:resource="http://purl.org/dc/dcmitype/StillImage"/>
    <dc:date>2025-07-31T00:19:04.083488</dc:date>
    <dc:format>image/svg+xml</dc:format>
    <dc:creator>
     <cc:Agent>
      <dc:title>Matplotlib v3.10.0, https://matplotlib.org/</dc:title>
     </cc:Agent>
    </dc:creator>
   </cc:Work>
  </rdf:RDF>
 </metadata>
 <defs>
  <style type="text/css">*{stroke-linejoin: round; stroke-linecap: butt}</style>
 </defs>
 <g id="figure_1">
  <g id="patch_1">
   <path d="M 0 432 
L 648 432 
L 648 0 
L 0 0 
z
" style="fill: #ffffff"/>
  </g>
  <g id="axes_1">
   <g id="patch_2">
    <path d="M 65.63 390.04 
L 632.205 390.04 
L 632.205 57.0062 
L 65.63 57.0062 
z
" style="fill: #eaeaf2"/>
   </g>
   <g id="matplotlib.axis_1">
    <g id="xtick_1">
     <g id="line2d_1">
      <path d="M 65.63083 390.04 
L 65.63083 57.0062 
" clip-path="url(#p94a8667649)" style="fill: none; stroke: #ffffff; stroke-width: 0.8; stroke-linecap: round"/>
     </g>
     <g id="text_1">
      <!-- 0.00 -->
      <g style="fill: #262626" transform="translate(54.498017 404.638438) scale(0.1 -0.1)">
       <defs>
        <path id="DejaVuSans-30" d="M 2034 4250 
Q 1547 4250 1301 3770 
Q 1056 3291 1056 2328 
Q 1056 1369 1301 889 
Q 1547 409 2034 409 
Q 2525 409 2770 889 
Q 3016 1369 3016 2328 
Q 3016 3291 2770 3770 
Q 2525 4250 2034 4250 
z
M 2034 4750 
Q 2819 4750 3233 4129 
Q 3647 3509 3647 2328 
Q 3647 1150 3233 529 
Q 2819 -91 2034 -91 
Q 1250 -91 836 529 
Q 422 1150 422 2328 
Q 422 3509 836 4129 
Q 1250 4750 2034 4750 
z
" transform="scale(0.015625)"/>
        <path id="DejaVuSans-2e" d="M 684 794 
L 1344 794 
L 1344 0 
L 684 0 
L 684 794 
z
" transform="scale(0.015625)"/>
       </defs>
       <use xlink:href="#DejaVuSans-30"/>
       <use xlink:href="#DejaVuSans-2e" transform="translate(63.623047 0)"/>
       <use xlink:href="#DejaVuSans-30" transform="translate(95.410156 0)"/>
       <use xlink:href="#DejaVuSans-30" transform="translate(159.033203 0)"/>
      </g>
     </g>
    </g>
    <g id="xtick_2">
     <g id="line2d_2">
      <path d="M 134.792615 390.04 
L 134.792615 57.0062 
" clip-path="url(#p94a8667649)" style="fill: none; stroke: #ffffff; stroke-width: 0.8; stroke-linecap: round"/>
     </g>
     <g id="text_2">
      <!-- 0.25 -->
      <g style="fill: #262626" transform="translate(123.659802 404.638438) scale(0.1 -0.1)">
       <defs>
        <path id="DejaVuSans-32" d="M 1228 531 
L 3431 531 
L 3431 0 
L 469 0 
L 469 531 
Q 828 903 1448 1529 
Q 2069 2156 2228 2338 
Q 2531 2678 2651 2914 
Q 2772 3150 2772 3378 
Q 2772 3750 2511 3984 
Q 2250 4219 1831 4219 
Q 1534 4219 1204 4116 
Q 875 4013 500 3803 
L 500 4441 
Q 881 4594 1212 4672 
Q 1544 4750 1819 4750 
Q 2544 4750 2975 4387 
Q 3406 4025 3406 3419 
Q 3406 3131 3298 2873 
Q 3191 2616 2906 2266 
Q 2828 2175 2409 1742 
Q 1991 1309 1228 531 
z
" transform="scale(0.015625)"/>
        <path id="DejaVuSans-35" d="M 691 4666 
L 3169 4666 
L 3169 4134 
L 1269 4134 
L 1269 2991 
Q 1406 3038 1543 3061 
Q 1681 3084 1819 3084 
Q 2600 3084 3056 2656 
Q 3513 2228 3513 1497 
Q 3513 744 3044 326 
Q 2575 -91 1722 -91 
Q 1428 -91 1123 -41 
Q 819 9 494 109 
L 494 744 
Q 775 591 1075 516 
Q 1375 441 1709 441 
Q 2250 441 2565 725 
Q 2881 1009 2881 1497 
Q 2881 1984 2565 2268 
Q 2250 2553 1709 2553 
Q 1456 2553 1204 2497 
Q 953 2441 691 2322 
L 691 4666 
z
" transform="scale(0.015625)"/>
       </defs>
       <use xlink:href="#DejaVuSans-30"/>
       <use xlink:href="#DejaVuSans-2e" transform="translate(63.623047 0)"/>
       <use xlink:href="#DejaVuSans-32" transform="translate(95.410156 0)"/>
       <use xlink:href="#DejaVuSans-35" transform="translate(159.033203 0)"/>
      </g>
     </g>
    </g>
    <g id="xtick_3">
     <g id="line2d_3">
      <path d="M 203.954399 390.04 
L 203.954399 57.0062 
" clip-path="url(#p94a8667649)" style="fill: none; stroke: #ffffff; stroke-width: 0.8; stroke-linecap: round"/>
     </g>
     <g id="text_3">
      <!-- 0.50 -->
      <g style="fill: #262626" transform="translate(192.821587 404.638438) scale(0.1 -0.1)">
       <use xlink:href="#DejaVuSans-30"/>
       <use xlink:href="#DejaVuSans-2e" transform="translate(63.623047 0)"/>
       <use xlink:href="#DejaVuSans-35" transform="translate(95.410156 0)"/>
       <use xlink:href="#DejaVuSans-30" transform="translate(159.033203 0)"/>
      </g>
     </g>
    </g>
    <g id="xtick_4">
     <g id="line2d_4">
      <path d="M 273.116184 390.04 
L 273.116184 57.0062 
" clip-path="url(#p94a8667649)" style="fill: none; stroke: #ffffff; stroke-width: 0.8; stroke-linecap: round"/>
     </g>
     <g id="text_4">
      <!-- 0.75 -->
      <g style="fill: #262626" transform="translate(261.983371 404.638438) scale(0.1 -0.1)">
       <defs>
        <path id="DejaVuSans-37" d="M 525 4666 
L 3525 4666 
L 3525 4397 
L 1831 0 
L 1172 0 
L 2766 4134 
L 525 4134 
L 525 4666 
z
" transform="scale(0.015625)"/>
       </defs>
       <use xlink:href="#DejaVuSans-30"/>
       <use xlink:href="#DejaVuSans-2e" transform="translate(63.623047 0)"/>
       <use xlink:href="#DejaVuSans-37" transform="translate(95.410156 0)"/>
       <use xlink:href="#DejaVuSans-35" transform="translate(159.033203 0)"/>
      </g>
     </g>
    </g>
    <g id="xtick_5">
     <g id="line2d_5">
      <path d="M 342.277969 390.04 
L 342.277969 57.0062 
" clip-path="url(#p94a8667649)" style="fill: none; stroke: #ffffff; stroke-width: 0.8; stroke-linecap: round"/>
     </g>
     <g id="text_5">
      <!-- 1.00 -->
      <g style="fill: #262626" transform="translate(331.145156 404.638438) scale(0.1 -0.1)">
       <defs>
        <path id="DejaVuSans-31" d="M 794 531 
L 1825 531 
L 1825 4091 
L 703 3866 
L 703 4441 
L 1819 4666 
L 2450 4666 
L 2450 531 
L 3481 531 
L 3481 0 
L 794 0 
L 794 531 
z
" transform="scale(0.015625)"/>
       </defs>
       <use xlink:href="#DejaVuSans-31"/>
       <use xlink:href="#DejaVuSans-2e" transform="translate(63.623047 0)"/>
       <use xlink:href="#DejaVuSans-30" transform="translate(95.410156 0)"/>
       <use xlink:href="#DejaVuSans-30" transform="translate(159.033203 0)"/>
      </g>
     </g>
    </g>
    <g id="xtick_6">
     <g id="line2d_6">
      <path d="M 411.439753 390.04 
L 411.439753 57.0062 
" clip-path="url(#p94a8667649)" style="fill: none; stroke: #ffffff; stroke-width: 0.8; stroke-linecap: round"/>
     </g>
     <g id="text_6">
      <!-- 1.25 -->
      <g style="fill: #262626" transform="translate(400.306941 404.638438) scale(0.1 -0.1)">
       <use xlink:href="#DejaVuSans-31"/>
       <use xlink:href="#DejaVuSans-2e" transform="translate(63.623047 0)"/>
       <use xlink:href="#DejaVuSans-32" transform="translate(95.410156 0)"/>
       <use xlink:href="#DejaVuSans-35" transform="translate(159.033203 0)"/>
      </g>
     </g>
    </g>
    <g id="xtick_7">
     <g id="line2d_7">
      <path d="M 480.601538 390.04 
L 480.601538 57.0062 
" clip-path="url(#p94a8667649)" style="fill: none; stroke: #ffffff; stroke-width: 0.8; stroke-linecap: round"/>
     </g>
     <g id="text_7">
      <!-- 1.50 -->
      <g style="fill: #262626" transform="translate(469.468726 404.638438) scale(0.1 -0.1)">
       <use xlink:href="#DejaVuSans-31"/>
       <use xlink:href="#DejaVuSans-2e" transform="translate(63.623047 0)"/>
       <use xlink:href="#DejaVuSans-35" transform="translate(95.410156 0)"/>
       <use xlink:href="#DejaVuSans-30" transform="translate(159.033203 0)"/>
      </g>
     </g>
    </g>
    <g id="xtick_8">
     <g id="line2d_8">
      <path d="M 549.763323 390.04 
L 549.763323 57.0062 
" clip-path="url(#p94a8667649)" style="fill: none; stroke: #ffffff; stroke-width: 0.8; stroke-linecap: round"/>
     </g>
     <g id="text_8">
      <!-- 1.75 -->
      <g style="fill: #262626" transform="translate(538.63051 404.638438) scale(0.1 -0.1)">
       <use xlink:href="#DejaVuSans-31"/>
       <use xlink:href="#DejaVuSans-2e" transform="translate(63.623047 0)"/>
       <use xlink:href="#DejaVuSans-37" transform="translate(95.410156 0)"/>
       <use xlink:href="#DejaVuSans-35" transform="translate(159.033203 0)"/>
      </g>
     </g>
    </g>
    <g id="xtick_9">
     <g id="line2d_9">
      <path d="M 618.925107 390.04 
L 618.925107 57.0062 
" clip-path="url(#p94a8667649)" style="fill: none; stroke: #ffffff; stroke-width: 0.8; stroke-linecap: round"/>
     </g>
     <g id="text_9">
      <!-- 2.00 -->
      <g style="fill: #262626" transform="translate(607.792295 404.638438) scale(0.1 -0.1)">
       <use xlink:href="#DejaVuSans-32"/>
       <use xlink:href="#DejaVuSans-2e" transform="translate(63.623047 0)"/>
       <use xlink:href="#DejaVuSans-30" transform="translate(95.410156 0)"/>
       <use xlink:href="#DejaVuSans-30" transform="translate(159.033203 0)"/>
      </g>
     </g>
    </g>
    <g id="text_10">
     <!-- Steps -->
     <g style="fill: #262626" transform="translate(334.927656 418.316562) scale(0.1 -0.1)">
      <defs>
       <path id="DejaVuSans-53" d="M 3425 4513 
L 3425 3897 
Q 3066 4069 2747 4153 
Q 2428 4238 2131 4238 
Q 1616 4238 1336 4038 
Q 1056 3838 1056 3469 
Q 1056 3159 1242 3001 
Q 1428 2844 1947 2747 
L 2328 2669 
Q 3034 2534 3370 2195 
Q 3706 1856 3706 1288 
Q 3706 609 3251 259 
Q 2797 -91 1919 -91 
Q 1588 -91 1214 -16 
Q 841 59 441 206 
L 441 856 
Q 825 641 1194 531 
Q 1563 422 1919 422 
Q 2459 422 2753 634 
Q 3047 847 3047 1241 
Q 3047 1584 2836 1778 
Q 2625 1972 2144 2069 
L 1759 2144 
Q 1053 2284 737 2584 
Q 422 2884 422 3419 
Q 422 4038 858 4394 
Q 1294 4750 2059 4750 
Q 2388 4750 2728 4690 
Q 3069 4631 3425 4513 
z
" transform="scale(0.015625)"/>
       <path id="DejaVuSans-74" d="M 1172 4494 
L 1172 3500 
L 2356 3500 
L 2356 3053 
L 1172 3053 
L 1172 1153 
Q 1172 725 1289 603 
Q 1406 481 1766 481 
L 2356 481 
L 2356 0 
L 1766 0 
Q 1100 0 847 248 
Q 594 497 594 1153 
L 594 3053 
L 172 3053 
L 172 3500 
L 594 3500 
L 594 4494 
L 1172 4494 
z
" transform="scale(0.015625)"/>
       <path id="DejaVuSans-65" d="M 3597 1894 
L 3597 1613 
L 953 1613 
Q 991 1019 1311 708 
Q 1631 397 2203 397 
Q 2534 397 2845 478 
Q 3156 559 3463 722 
L 3463 178 
Q 3153 47 2828 -22 
Q 2503 -91 2169 -91 
Q 1331 -91 842 396 
Q 353 884 353 1716 
Q 353 2575 817 3079 
Q 1281 3584 2069 3584 
Q 2775 3584 3186 3129 
Q 3597 2675 3597 1894 
z
M 3022 2063 
Q 3016 2534 2758 2815 
Q 2500 3097 2075 3097 
Q 1594 3097 1305 2825 
Q 1016 2553 972 2059 
L 3022 2063 
z
" transform="scale(0.015625)"/>
       <path id="DejaVuSans-70" d="M 1159 525 
L 1159 -1331 
L 581 -1331 
L 581 3500 
L 1159 3500 
L 1159 2969 
Q 1341 3281 1617 3432 
Q 1894 3584 2278 3584 
Q 2916 3584 3314 3078 
Q 3713 2572 3713 1747 
Q 3713 922 3314 415 
Q 2916 -91 2278 -91 
Q 1894 -91 1617 61 
Q 1341 213 1159 525 
z
M 3116 1747 
Q 3116 2381 2855 2742 
Q 2594 3103 2138 3103 
Q 1681 3103 1420 2742 
Q 1159 2381 1159 1747 
Q 1159 1113 1420 752 
Q 1681 391 2138 391 
Q 2594 391 2855 752 
Q 3116 1113 3116 1747 
z
" transform="scale(0.015625)"/>
       <path id="DejaVuSans-73" d="M 2834 3397 
L 2834 2853 
Q 2591 2978 2328 3040 
Q 2066 3103 1784 3103 
Q 1356 3103 1142 2972 
Q 928 2841 928 2578 
Q 928 2378 1081 2264 
Q 1234 2150 1697 2047 
L 1894 2003 
Q 2506 1872 2764 1633 
Q 3022 1394 3022 966 
Q 3022 478 2636 193 
Q 2250 -91 1575 -91 
Q 1294 -91 989 -36 
Q 684 19 347 128 
L 347 722 
Q 666 556 975 473 
Q 1284 391 1588 391 
Q 1994 391 2212 530 
Q 2431 669 2431 922 
Q 2431 1156 2273 1281 
Q 2116 1406 1581 1522 
L 1381 1569 
Q 847 1681 609 1914 
Q 372 2147 372 2553 
Q 372 3047 722 3315 
Q 1072 3584 1716 3584 
Q 2034 3584 2315 3537 
Q 2597 3491 2834 3397 
z
" transform="scale(0.015625)"/>
      </defs>
      <use xlink:href="#DejaVuSans-53"/>
      <use xlink:href="#DejaVuSans-74" transform="translate(63.476562 0)"/>
      <use xlink:href="#DejaVuSans-65" transform="translate(102.685547 0)"/>
      <use xlink:href="#DejaVuSans-70" transform="translate(164.208984 0)"/>
      <use xlink:href="#DejaVuSans-73" transform="translate(227.685547 0)"/>
     </g>
    </g>
    <g id="text_11">
     <!-- 1e6 -->
     <g style="fill: #262626" transform="translate(613.326875 417.316562) scale(0.1 -0.1)">
      <defs>
       <path id="DejaVuSans-36" d="M 2113 2584 
Q 1688 2584 1439 2293 
Q 1191 2003 1191 1497 
Q 1191 994 1439 701 
Q 1688 409 2113 409 
Q 2538 409 2786 701 
Q 3034 994 3034 1497 
Q 3034 2003 2786 2293 
Q 2538 2584 2113 2584 
z
M 3366 4563 
L 3366 3988 
Q 3128 4100 2886 4159 
Q 2644 4219 2406 4219 
Q 1781 4219 1451 3797 
Q 1122 3375 1075 2522 
Q 1259 2794 1537 2939 
Q 1816 3084 2150 3084 
Q 2853 3084 3261 2657 
Q 3669 2231 3669 1497 
Q 3669 778 3244 343 
Q 2819 -91 2113 -91 
Q 1303 -91 875 529 
Q 447 1150 447 2328 
Q 447 3434 972 4092 
Q 1497 4750 2381 4750 
Q 2619 4750 2861 4703 
Q 3103 4656 3366 4563 
z
" transform="scale(0.015625)"/>
      </defs>
      <use xlink:href="#DejaVuSans-31"/>
      <use xlink:href="#DejaVuSans-65" transform="translate(63.623047 0)"/>
      <use xlink:href="#DejaVuSans-36" transform="translate(125.146484 0)"/>
     </g>
    </g>
   </g>
   <g id="matplotlib.axis_2">
    <g id="ytick_1">
     <g id="line2d_10">
      <path d="M 65.63 390.04 
L 632.205 390.04 
" clip-path="url(#p94a8667649)" style="fill: none; stroke: #ffffff; stroke-width: 0.8; stroke-linecap: round"/>
     </g>
     <g id="text_12">
      <!-- −1600 -->
      <g style="fill: #262626" transform="translate(24.800313 393.839219) scale(0.1 -0.1)">
       <defs>
        <path id="DejaVuSans-2212" d="M 678 2272 
L 4684 2272 
L 4684 1741 
L 678 1741 
L 678 2272 
z
" transform="scale(0.015625)"/>
       </defs>
       <use xlink:href="#DejaVuSans-2212"/>
       <use xlink:href="#DejaVuSans-31" transform="translate(83.789062 0)"/>
       <use xlink:href="#DejaVuSans-36" transform="translate(147.412109 0)"/>
       <use xlink:href="#DejaVuSans-30" transform="translate(211.035156 0)"/>
       <use xlink:href="#DejaVuSans-30" transform="translate(274.658203 0)"/>
      </g>
     </g>
    </g>
    <g id="ytick_2">
     <g id="line2d_11">
      <path d="M 65.63 348.410775 
L 632.205 348.410775 
" clip-path="url(#p94a8667649)" style="fill: none; stroke: #ffffff; stroke-width: 0.8; stroke-linecap: round"/>
     </g>
     <g id="text_13">
      <!-- −1400 -->
      <g style="fill: #262626" transform="translate(24.800313 352.209994) scale(0.1 -0.1)">
       <defs>
        <path id="DejaVuSans-34" d="M 2419 4116 
L 825 1625 
L 2419 1625 
L 2419 4116 
z
M 2253 4666 
L 3047 4666 
L 3047 1625 
L 3713 1625 
L 3713 1100 
L 3047 1100 
L 3047 0 
L 2419 0 
L 2419 1100 
L 313 1100 
L 313 1709 
L 2253 4666 
z
" transform="scale(0.015625)"/>
       </defs>
       <use xlink:href="#DejaVuSans-2212"/>
       <use xlink:href="#DejaVuSans-31" transform="translate(83.789062 0)"/>
       <use xlink:href="#DejaVuSans-34" transform="translate(147.412109 0)"/>
       <use xlink:href="#DejaVuSans-30" transform="translate(211.035156 0)"/>
       <use xlink:href="#DejaVuSans-30" transform="translate(274.658203 0)"/>
      </g>
     </g>
    </g>
    <g id="ytick_3">
     <g id="line2d_12">
      <path d="M 65.63 306.78155 
L 632.205 306.78155 
" clip-path="url(#p94a8667649)" style="fill: none; stroke: #ffffff; stroke-width: 0.8; stroke-linecap: round"/>
     </g>
     <g id="text_14">
      <!-- −1200 -->
      <g style="fill: #262626" transform="translate(24.800313 310.580769) scale(0.1 -0.1)">
       <use xlink:href="#DejaVuSans-2212"/>
       <use xlink:href="#DejaVuSans-31" transform="translate(83.789062 0)"/>
       <use xlink:href="#DejaVuSans-32" transform="translate(147.412109 0)"/>
       <use xlink:href="#DejaVuSans-30" transform="translate(211.035156 0)"/>
       <use xlink:href="#DejaVuSans-30" transform="translate(274.658203 0)"/>
      </g>
     </g>
    </g>
    <g id="ytick_4">
     <g id="line2d_13">
      <path d="M 65.63 265.152325 
L 632.205 265.152325 
" clip-path="url(#p94a8667649)" style="fill: none; stroke: #ffffff; stroke-width: 0.8; stroke-linecap: round"/>
     </g>
     <g id="text_15">
      <!-- −1000 -->
      <g style="fill: #262626" transform="translate(24.800313 268.951544) scale(0.1 -0.1)">
       <use xlink:href="#DejaVuSans-2212"/>
       <use xlink:href="#DejaVuSans-31" transform="translate(83.789062 0)"/>
       <use xlink:href="#DejaVuSans-30" transform="translate(147.412109 0)"/>
       <use xlink:href="#DejaVuSans-30" transform="translate(211.035156 0)"/>
       <use xlink:href="#DejaVuSans-30" transform="translate(274.658203 0)"/>
      </g>
     </g>
    </g>
    <g id="ytick_5">
     <g id="line2d_14">
      <path d="M 65.63 223.5231 
L 632.205 223.5231 
" clip-path="url(#p94a8667649)" style="fill: none; stroke: #ffffff; stroke-width: 0.8; stroke-linecap: round"/>
     </g>
     <g id="text_16">
      <!-- −800 -->
      <g style="fill: #262626" transform="translate(31.162813 227.322319) scale(0.1 -0.1)">
       <defs>
        <path id="DejaVuSans-38" d="M 2034 2216 
Q 1584 2216 1326 1975 
Q 1069 1734 1069 1313 
Q 1069 891 1326 650 
Q 1584 409 2034 409 
Q 2484 409 2743 651 
Q 3003 894 3003 1313 
Q 3003 1734 2745 1975 
Q 2488 2216 2034 2216 
z
M 1403 2484 
Q 997 2584 770 2862 
Q 544 3141 544 3541 
Q 544 4100 942 4425 
Q 1341 4750 2034 4750 
Q 2731 4750 3128 4425 
Q 3525 4100 3525 3541 
Q 3525 3141 3298 2862 
Q 3072 2584 2669 2484 
Q 3125 2378 3379 2068 
Q 3634 1759 3634 1313 
Q 3634 634 3220 271 
Q 2806 -91 2034 -91 
Q 1263 -91 848 271 
Q 434 634 434 1313 
Q 434 1759 690 2068 
Q 947 2378 1403 2484 
z
M 1172 3481 
Q 1172 3119 1398 2916 
Q 1625 2713 2034 2713 
Q 2441 2713 2670 2916 
Q 2900 3119 2900 3481 
Q 2900 3844 2670 4047 
Q 2441 4250 2034 4250 
Q 1625 4250 1398 4047 
Q 1172 3844 1172 3481 
z
" transform="scale(0.015625)"/>
       </defs>
       <use xlink:href="#DejaVuSans-2212"/>
       <use xlink:href="#DejaVuSans-38" transform="translate(83.789062 0)"/>
       <use xlink:href="#DejaVuSans-30" transform="translate(147.412109 0)"/>
       <use xlink:href="#DejaVuSans-30" transform="translate(211.035156 0)"/>
      </g>
     </g>
    </g>
    <g id="ytick_6">
     <g id="line2d_15">
      <path d="M 65.63 181.893875 
L 632.205 181.893875 
" clip-path="url(#p94a8667649)" style="fill: none; stroke: #ffffff; stroke-width: 0.8; stroke-linecap: round"/>
     </g>
     <g id="text_17">
      <!-- −600 -->
      <g style="fill: #262626" transform="translate(31.162813 185.693094) scale(0.1 -0.1)">
       <use xlink:href="#DejaVuSans-2212"/>
       <use xlink:href="#DejaVuSans-36" transform="translate(83.789062 0)"/>
       <use xlink:href="#DejaVuSans-30" transform="translate(147.412109 0)"/>
       <use xlink:href="#DejaVuSans-30" transform="translate(211.035156 0)"/>
      </g>
     </g>
    </g>
    <g id="ytick_7">
     <g id="line2d_16">
      <path d="M 65.63 140.26465 
L 632.205 140.26465 
" clip-path="url(#p94a8667649)" style="fill: none; stroke: #ffffff; stroke-width: 0.8; stroke-linecap: round"/>
     </g>
     <g id="text_18">
      <!-- −400 -->
      <g style="fill: #262626" transform="translate(31.162813 144.063869) scale(0.1 -0.1)">
       <use xlink:href="#DejaVuSans-2212"/>
       <use xlink:href="#DejaVuSans-34" transform="translate(83.789062 0)"/>
       <use xlink:href="#DejaVuSans-30" transform="translate(147.412109 0)"/>
       <use xlink:href="#DejaVuSans-30" transform="translate(211.035156 0)"/>
      </g>
     </g>
    </g>
    <g id="ytick_8">
     <g id="line2d_17">
      <path d="M 65.63 98.635425 
L 632.205 98.635425 
" clip-path="url(#p94a8667649)" style="fill: none; stroke: #ffffff; stroke-width: 0.8; stroke-linecap: round"/>
     </g>
     <g id="text_19">
      <!-- −200 -->
      <g style="fill: #262626" transform="translate(31.162813 102.434644) scale(0.1 -0.1)">
       <use xlink:href="#DejaVuSans-2212"/>
       <use xlink:href="#DejaVuSans-32" transform="translate(83.789062 0)"/>
       <use xlink:href="#DejaVuSans-30" transform="translate(147.412109 0)"/>
       <use xlink:href="#DejaVuSans-30" transform="translate(211.035156 0)"/>
      </g>
     </g>
    </g>
    <g id="ytick_9">
     <g id="line2d_18">
      <path d="M 65.63 57.0062 
L 632.205 57.0062 
" clip-path="url(#p94a8667649)" style="fill: none; stroke: #ffffff; stroke-width: 0.8; stroke-linecap: round"/>
     </g>
     <g id="text_20">
      <!-- 0 -->
      <g style="fill: #262626" transform="translate(52.2675 60.805419) scale(0.1 -0.1)">
       <use xlink:href="#DejaVuSans-30"/>
      </g>
     </g>
    </g>
    <g id="text_21">
     <!-- Reward -->
     <g style="fill: #262626" transform="translate(18.720625 242.144194) rotate(-90) scale(0.1 -0.1)">
      <defs>
       <path id="DejaVuSans-52" d="M 2841 2188 
Q 3044 2119 3236 1894 
Q 3428 1669 3622 1275 
L 4263 0 
L 3584 0 
L 2988 1197 
Q 2756 1666 2539 1819 
Q 2322 1972 1947 1972 
L 1259 1972 
L 1259 0 
L 628 0 
L 628 4666 
L 2053 4666 
Q 2853 4666 3247 4331 
Q 3641 3997 3641 3322 
Q 3641 2881 3436 2590 
Q 3231 2300 2841 2188 
z
M 1259 4147 
L 1259 2491 
L 2053 2491 
Q 2509 2491 2742 2702 
Q 2975 2913 2975 3322 
Q 2975 3731 2742 3939 
Q 2509 4147 2053 4147 
L 1259 4147 
z
" transform="scale(0.015625)"/>
       <path id="DejaVuSans-77" d="M 269 3500 
L 844 3500 
L 1563 769 
L 2278 3500 
L 2956 3500 
L 3675 769 
L 4391 3500 
L 4966 3500 
L 4050 0 
L 3372 0 
L 2619 2869 
L 1863 0 
L 1184 0 
L 269 3500 
z
" transform="scale(0.015625)"/>
       <path id="DejaVuSans-61" d="M 2194 1759 
Q 1497 1759 1228 1600 
Q 959 1441 959 1056 
Q 959 750 1161 570 
Q 1363 391 1709 391 
Q 2188 391 2477 730 
Q 2766 1069 2766 1631 
L 2766 1759 
L 2194 1759 
z
M 3341 1997 
L 3341 0 
L 2766 0 
L 2766 531 
Q 2569 213 2275 61 
Q 1981 -91 1556 -91 
Q 1019 -91 701 211 
Q 384 513 384 1019 
Q 384 1609 779 1909 
Q 1175 2209 1959 2209 
L 2766 2209 
L 2766 2266 
Q 2766 2663 2505 2880 
Q 2244 3097 1772 3097 
Q 1472 3097 1187 3025 
Q 903 2953 641 2809 
L 641 3341 
Q 956 3463 1253 3523 
Q 1550 3584 1831 3584 
Q 2591 3584 2966 3190 
Q 3341 2797 3341 1997 
z
" transform="scale(0.015625)"/>
       <path id="DejaVuSans-72" d="M 2631 2963 
Q 2534 3019 2420 3045 
Q 2306 3072 2169 3072 
Q 1681 3072 1420 2755 
Q 1159 2438 1159 1844 
L 1159 0 
L 581 0 
L 581 3500 
L 1159 3500 
L 1159 2956 
Q 1341 3275 1631 3429 
Q 1922 3584 2338 3584 
Q 2397 3584 2469 3576 
Q 2541 3569 2628 3553 
L 2631 2963 
z
" transform="scale(0.015625)"/>
       <path id="DejaVuSans-64" d="M 2906 2969 
L 2906 4863 
L 3481 4863 
L 3481 0 
L 2906 0 
L 2906 525 
Q 2725 213 2448 61 
Q 2172 -91 1784 -91 
Q 1150 -91 751 415 
Q 353 922 353 1747 
Q 353 2572 751 3078 
Q 1150 3584 1784 3584 
Q 2172 3584 2448 3432 
Q 2725 3281 2906 2969 
z
M 947 1747 
Q 947 1113 1208 752 
Q 1469 391 1925 391 
Q 2381 391 2643 752 
Q 2906 1113 2906 1747 
Q 2906 2381 2643 2742 
Q 2381 3103 1925 3103 
Q 1469 3103 1208 2742 
Q 947 2381 947 1747 
z
" transform="scale(0.015625)"/>
      </defs>
      <use xlink:href="#DejaVuSans-52"/>
      <use xlink:href="#DejaVuSans-65" transform="translate(64.982422 0)"/>
      <use xlink:href="#DejaVuSans-77" transform="translate(126.505859 0)"/>
      <use xlink:href="#DejaVuSans-61" transform="translate(208.292969 0)"/>
      <use xlink:href="#DejaVuSans-72" transform="translate(269.572266 0)"/>
      <use xlink:href="#DejaVuSans-64" transform="translate(308.935547 0)"/>
     </g>
    </g>
   </g>
   <g id="FillBetweenPolyCollection_1">
    <path d="M 65.63083 295.756932 
L 65.63083 322.246329 
L 71.296563 314.490358 
L 76.962297 326.62065 
L 82.62803 307.697464 
L 88.293764 310.446689 
L 93.959497 304.628707 
L 99.62523 309.416213 
L 105.290964 295.302972 
L 110.956697 288.749404 
L 116.622431 292.481408 
L 122.288164 276.435941 
L 127.953897 263.8173 
L 133.619631 255.001084 
L 139.285364 235.676002 
L 144.951098 221.25576 
L 150.616831 220.784335 
L 156.282564 199.031751 
L 161.948298 185.084159 
L 167.614031 151.745808 
L 173.279765 145.635914 
L 178.945498 148.114551 
L 184.611231 139.895307 
L 190.276965 141.178298 
L 195.942698 129.377324 
L 201.608432 136.58245 
L 207.274165 138.271572 
L 212.939898 114.780666 
L 218.605632 126.963515 
L 224.271365 134.207359 
L 229.937099 139.277968 
L 235.602832 117.614375 
L 241.268565 138.091876 
L 246.934299 119.6114 
L 252.600032 124.077441 
L 258.265766 147.308274 
L 263.931499 139.046373 
L 269.597232 121.457224 
L 275.262966 141.109623 
L 280.928699 128.583251 
L 286.594433 143.209414 
L 292.260166 132.602915 
L 297.925899 152.335215 
L 303.591633 131.307432 
L 309.257366 146.844854 
L 314.9231 152.309387 
L 320.588833 114.418144 
L 326.254566 119.036022 
L 331.9203 106.681741 
L 337.586033 137.987368 
L 343.251767 138.576061 
L 348.9175 164.349335 
L 354.583233 133.277516 
L 360.248967 140.847786 
L 365.9147 139.710154 
L 371.580434 136.278767 
L 377.246167 147.210559 
L 382.9119 128.643157 
L 388.577634 129.689384 
L 394.243367 137.123375 
L 399.909101 139.239558 
L 405.574834 117.871946 
L 411.240567 149.282809 
L 416.906301 126.989672 
L 422.572034 132.05464 
L 428.237768 128.35781 
L 433.903501 119.83473 
L 439.569234 127.330517 
L 445.234968 122.346189 
L 450.900701 129.343277 
L 456.566435 110.492069 
L 462.232168 123.047129 
L 467.897901 123.536405 
L 473.563635 127.564578 
L 479.229368 117.709597 
L 484.895102 122.614062 
L 490.560835 136.266991 
L 496.226568 139.947441 
L 501.892302 117.290268 
L 507.558035 123.228322 
L 513.223769 109.059395 
L 518.889502 127.144061 
L 524.555235 163.080469 
L 530.220969 154.928149 
L 535.886702 165.134184 
L 541.552436 127.886384 
L 547.218169 169.105017 
L 552.883902 227.958017 
L 558.549636 204.058642 
L 564.215369 228.490897 
L 569.881103 235.831808 
L 575.546836 221.658904 
L 581.212569 173.15723 
L 586.878303 215.08879 
L 592.544036 181.223981 
L 598.20977 193.625703 
L 603.875503 171.514909 
L 609.541236 159.546611 
L 615.20697 188.96805 
L 620.872703 162.405644 
L 626.538437 164.41582 
L 626.538437 78.033038 
L 626.538437 78.033038 
L 620.872703 77.517557 
L 615.20697 76.723757 
L 609.541236 85.219699 
L 603.875503 76.859106 
L 598.20977 73.572697 
L 592.544036 77.707125 
L 586.878303 75.265504 
L 581.212569 78.905554 
L 575.546836 70.734374 
L 569.881103 75.184461 
L 564.215369 78.322842 
L 558.549636 81.407013 
L 552.883902 72.487936 
L 547.218169 82.624097 
L 541.552436 86.199135 
L 535.886702 84.522352 
L 530.220969 82.65433 
L 524.555235 91.772037 
L 518.889502 74.370336 
L 513.223769 86.207605 
L 507.558035 74.816954 
L 501.892302 78.373115 
L 496.226568 85.406783 
L 490.560835 69.852442 
L 484.895102 79.063611 
L 479.229368 77.7955 
L 473.563635 82.104369 
L 467.897901 79.519976 
L 462.232168 77.208122 
L 456.566435 85.675775 
L 450.900701 78.22656 
L 445.234968 78.635526 
L 439.569234 81.678419 
L 433.903501 80.429724 
L 428.237768 79.817455 
L 422.572034 77.688667 
L 416.906301 79.964342 
L 411.240567 85.275268 
L 405.574834 80.714515 
L 399.909101 70.176526 
L 394.243367 79.591838 
L 388.577634 79.808932 
L 382.9119 93.799277 
L 377.246167 99.555968 
L 371.580434 91.277561 
L 365.9147 73.52833 
L 360.248967 75.009713 
L 354.583233 74.85544 
L 348.9175 72.642427 
L 343.251767 78.404519 
L 337.586033 73.1059 
L 331.9203 87.674888 
L 326.254566 89.378887 
L 320.588833 85.426321 
L 314.9231 75.179665 
L 309.257366 86.694967 
L 303.591633 83.519887 
L 297.925899 86.88993 
L 292.260166 86.790849 
L 286.594433 71.969131 
L 280.928699 87.471765 
L 275.262966 83.583099 
L 269.597232 98.31482 
L 263.931499 92.390145 
L 258.265766 80.525026 
L 252.600032 86.050602 
L 246.934299 87.513132 
L 241.268565 91.315516 
L 235.602832 90.76293 
L 229.937099 82.42867 
L 224.271365 92.670195 
L 218.605632 102.499673 
L 212.939898 97.371332 
L 207.274165 97.527518 
L 201.608432 103.482402 
L 195.942698 96.047876 
L 190.276965 94.209976 
L 184.611231 107.916444 
L 178.945498 105.292188 
L 173.279765 104.595939 
L 167.614031 102.510088 
L 161.948298 96.514549 
L 156.282564 99.387284 
L 150.616831 128.10002 
L 144.951098 129.070057 
L 139.285364 158.442037 
L 133.619631 195.391746 
L 127.953897 199.62574 
L 122.288164 210.059441 
L 116.622431 235.659353 
L 110.956697 232.61205 
L 105.290964 242.380931 
L 99.62523 242.967108 
L 93.959497 254.025911 
L 88.293764 263.831232 
L 82.62803 267.422122 
L 76.962297 288.016881 
L 71.296563 292.097595 
L 65.63083 295.756932 
z
" clip-path="url(#p94a8667649)" style="fill: #0000ff; fill-opacity: 0.1"/>
   </g>
   <g id="line2d_19">
    <path d="M 65.63083 309.001631 
L 71.296563 303.293977 
L 76.962297 307.318766 
L 82.62803 287.559793 
L 88.293764 287.138961 
L 93.959497 279.327309 
L 99.62523 276.19166 
L 105.290964 268.841951 
L 110.956697 260.680727 
L 116.622431 264.070381 
L 122.288164 243.247691 
L 127.953897 231.72152 
L 133.619631 225.196415 
L 139.285364 197.059019 
L 144.951098 175.162908 
L 150.616831 174.442178 
L 156.282564 149.209518 
L 161.948298 140.799354 
L 167.614031 127.127948 
L 173.279765 125.115927 
L 178.945498 126.703369 
L 184.611231 123.905875 
L 190.276965 117.694137 
L 195.942698 112.7126 
L 201.608432 120.032426 
L 207.274165 117.899545 
L 212.939898 106.075999 
L 218.605632 114.731594 
L 224.271365 113.438777 
L 229.937099 110.853319 
L 235.602832 104.188652 
L 241.268565 114.703696 
L 246.934299 103.562266 
L 252.600032 105.064022 
L 258.265766 113.91665 
L 263.931499 115.718259 
L 269.597232 109.886022 
L 275.262966 112.346361 
L 280.928699 108.027508 
L 286.594433 107.589272 
L 292.260166 109.696882 
L 297.925899 119.612573 
L 303.591633 107.41366 
L 309.257366 116.769911 
L 314.9231 113.744526 
L 320.588833 99.922232 
L 326.254566 104.207454 
L 331.9203 97.178314 
L 337.586033 105.546634 
L 343.251767 108.49029 
L 348.9175 118.495881 
L 354.583233 104.066478 
L 360.248967 107.928749 
L 365.9147 106.619242 
L 371.580434 113.778164 
L 377.246167 123.383263 
L 382.9119 111.221217 
L 388.577634 104.749158 
L 394.243367 108.357607 
L 399.909101 104.708042 
L 405.574834 99.29323 
L 411.240567 117.279039 
L 416.906301 103.477007 
L 422.572034 104.871653 
L 428.237768 104.087633 
L 433.903501 100.132227 
L 439.569234 104.504468 
L 445.234968 100.490857 
L 450.900701 103.784919 
L 456.566435 98.083922 
L 462.232168 100.127626 
L 467.897901 101.52819 
L 473.563635 104.834473 
L 479.229368 97.752548 
L 484.895102 100.838837 
L 490.560835 103.059716 
L 496.226568 112.677112 
L 501.892302 97.831691 
L 507.558035 99.022638 
L 513.223769 97.6335 
L 518.889502 100.757199 
L 524.555235 127.426253 
L 530.220969 118.791239 
L 535.886702 124.828268 
L 541.552436 107.042759 
L 547.218169 125.864557 
L 552.883902 150.222977 
L 558.549636 142.732827 
L 564.215369 153.40687 
L 569.881103 155.508134 
L 575.546836 146.196639 
L 581.212569 126.031392 
L 586.878303 145.177147 
L 592.544036 129.465553 
L 598.20977 133.5992 
L 603.875503 124.187008 
L 609.541236 122.383155 
L 615.20697 132.845904 
L 620.872703 119.9616 
L 626.538437 121.224429 
" clip-path="url(#p94a8667649)" style="fill: none; stroke: #0000ff; stroke-width: 1.5; stroke-linecap: round"/>
   </g>
   <g id="line2d_20">
    <path d="M 65.63083 303.606661 
L 71.296563 317.752818 
L 76.962297 281.235536 
L 82.62803 270.359997 
L 88.293764 274.908373 
L 93.959497 264.189953 
L 99.62523 255.304096 
L 105.290964 250.034367 
L 110.956697 236.708173 
L 116.622431 242.193072 
L 122.288164 217.193183 
L 127.953897 209.234724 
L 133.619631 206.614441 
L 139.285364 173.171116 
L 144.951098 130.515172 
L 150.616831 108.892452 
L 156.282564 99.070757 
L 161.948298 93.599344 
L 167.614031 109.561297 
L 173.279765 91.075825 
L 178.945498 102.219135 
L 184.611231 99.147242 
L 190.276965 91.595634 
L 195.942698 99.146635 
L 201.608432 101.387759 
L 207.274165 95.374695 
L 212.939898 99.214988 
L 218.605632 104.411634 
L 224.271365 99.353393 
L 229.937099 101.664247 
L 235.602832 96.228136 
L 241.268565 87.729438 
L 246.934299 84.580142 
L 252.600032 87.396752 
L 258.265766 94.479641 
L 263.931499 102.937491 
L 269.597232 103.805728 
L 275.262966 89.076109 
L 280.928699 88.421824 
L 286.594433 92.218446 
L 292.260166 141.776097 
L 297.925899 122.979885 
L 303.591633 93.151784 
L 309.257366 114.032629 
L 314.9231 97.745996 
L 320.588833 95.11384 
L 326.254566 96.848836 
L 331.9203 92.245572 
L 337.586033 96.30852 
L 343.251767 94.225819 
L 348.9175 82.273632 
L 354.583233 87.502397 
L 360.248967 88.081354 
L 365.9147 89.493593 
L 371.580434 92.342001 
L 377.246167 108.595096 
L 382.9119 105.232551 
L 388.577634 102.530869 
L 394.243367 90.47351 
L 399.909101 85.401467 
L 405.574834 83.702762 
L 411.240567 87.51576 
L 416.906301 85.912849 
L 422.572034 90.988058 
L 428.237768 96.601075 
L 433.903501 90.323403 
L 439.569234 94.827817 
L 445.234968 89.651064 
L 450.900701 91.427932 
L 456.566435 89.950567 
L 462.232168 86.007954 
L 467.897901 90.139096 
L 473.563635 93.407537 
L 479.229368 86.883647 
L 484.895102 98.384433 
L 490.560835 86.635695 
L 496.226568 127.589439 
L 501.892302 80.087585 
L 507.558035 87.012043 
L 513.223769 95.218645 
L 518.889502 84.600083 
L 524.555235 169.185511 
L 530.220969 176.022249 
L 535.886702 183.793521 
L 541.552436 136.296996 
L 547.218169 203.350877 
L 552.883902 216.569227 
L 558.549636 179.257047 
L 564.215369 220.890502 
L 569.881103 211.138416 
L 575.546836 190.932886 
L 581.212569 156.480218 
L 586.878303 198.292639 
L 592.544036 155.79306 
L 598.20977 161.216166 
L 603.875503 144.14676 
L 609.541236 153.867463 
L 615.20697 172.776877 
L 620.872703 133.858894 
L 626.538437 137.429487 
" clip-path="url(#p94a8667649)" style="fill: none; stroke: #008000; stroke-opacity: 0.2; stroke-linecap: round"/>
   </g>
   <g id="line2d_21">
    <path d="M 65.63083 306.835617 
L 71.296563 293.033316 
L 76.962297 328.906457 
L 82.62803 285.025874 
L 88.293764 273.52585 
L 93.959497 263.964421 
L 99.62523 258.284523 
L 105.290964 256.972134 
L 110.956697 253.294514 
L 116.622431 261.863697 
L 122.288164 223.910641 
L 127.953897 217.292732 
L 133.619631 205.719346 
L 139.285364 176.400123 
L 144.951098 143.18876 
L 150.616831 178.167589 
L 156.282564 125.337061 
L 161.948298 143.82463 
L 167.614031 111.315831 
L 173.279765 136.735747 
L 178.945498 140.718935 
L 184.611231 114.458173 
L 190.276965 119.525888 
L 195.942698 97.191103 
L 201.608432 128.28066 
L 207.274165 132.536214 
L 212.939898 103.585688 
L 218.605632 116.03101 
L 224.271365 109.840427 
L 229.937099 92.272313 
L 235.602832 98.35719 
L 241.268565 101.278485 
L 246.934299 94.662486 
L 252.600032 99.6883 
L 258.265766 93.288609 
L 263.931499 103.285167 
L 269.597232 119.204314 
L 275.262966 95.166318 
L 280.928699 92.259649 
L 286.594433 93.042811 
L 292.260166 93.430879 
L 297.925899 98.438367 
L 303.591633 114.195774 
L 309.257366 89.058371 
L 314.9231 89.553159 
L 320.588833 91.606793 
L 326.254566 101.858038 
L 331.9203 84.181491 
L 337.586033 88.500801 
L 343.251767 90.754893 
L 348.9175 95.648094 
L 354.583233 83.611967 
L 360.248967 90.297244 
L 365.9147 88.164453 
L 371.580434 139.222326 
L 377.246167 153.735167 
L 382.9119 96.495251 
L 388.577634 88.022428 
L 394.243367 90.602395 
L 399.909101 91.211164 
L 405.574834 93.174939 
L 411.240567 144.046583 
L 416.906301 97.612582 
L 422.572034 88.836192 
L 428.237768 92.301713 
L 433.903501 96.171122 
L 439.569234 86.300225 
L 445.234968 84.163736 
L 450.900701 86.996816 
L 456.566435 91.575179 
L 462.232168 87.009905 
L 467.897901 91.594032 
L 473.563635 97.39324 
L 479.229368 90.664658 
L 484.895102 89.639786 
L 490.560835 84.731525 
L 496.226568 89.347037 
L 501.892302 88.590515 
L 507.558035 85.931827 
L 513.223769 86.471561 
L 518.889502 89.326635 
L 524.555235 87.003596 
L 530.220969 87.655995 
L 535.886702 87.656614 
L 541.552436 95.622755 
L 547.218169 93.704765 
L 552.883902 89.746001 
L 558.549636 87.748344 
L 564.215369 89.226698 
L 569.881103 87.677562 
L 575.546836 88.302179 
L 581.212569 91.471802 
L 586.878303 83.989387 
L 592.544036 84.366008 
L 598.20977 86.025164 
L 603.875503 86.963365 
L 609.541236 93.957237 
L 615.20697 85.984864 
L 620.872703 90.0008 
L 626.538437 87.394919 
" clip-path="url(#p94a8667649)" style="fill: none; stroke: #008000; stroke-opacity: 0.2; stroke-linecap: round"/>
   </g>
   <g id="line2d_22">
    <path d="M 65.63083 323.674048 
L 71.296563 313.587788 
L 76.962297 329.255534 
L 82.62803 326.643555 
L 88.293764 330.241662 
L 93.959497 328.461911 
L 99.62523 336.6618 
L 105.290964 318.86828 
L 110.956697 308.404198 
L 116.622431 314.142566 
L 122.288164 308.422442 
L 127.953897 293.611182 
L 133.619631 282.611562 
L 139.285364 258.091302 
L 144.951098 246.836008 
L 150.616831 251.592628 
L 156.282564 239.057753 
L 161.948298 213.581182 
L 167.614031 170.343591 
L 173.279765 151.485242 
L 178.945498 159.258797 
L 184.611231 145.744838 
L 190.276965 160.628653 
L 195.942698 143.119476 
L 201.608432 142.49239 
L 207.274165 149.73387 
L 212.939898 118.96429 
L 218.605632 136.923608 
L 224.271365 153.202951 
L 229.937099 166.985594 
L 235.602832 130.959073 
L 241.268565 150.359369 
L 246.934299 132.138821 
L 252.600032 141.260703 
L 258.265766 180.342002 
L 263.931499 159.691314 
L 269.597232 126.098403 
L 275.262966 166.088821 
L 280.928699 144.738887 
L 286.594433 178.49134 
L 292.260166 132.207271 
L 297.925899 181.980483 
L 303.591633 151.312523 
L 309.257366 172.569754 
L 314.9231 190.570332 
L 320.588833 128.709257 
L 326.254566 131.795066 
L 331.9203 113.070119 
L 337.586033 169.905004 
L 343.251767 167.290134 
L 348.9175 206.221644 
L 354.583233 161.964272 
L 360.248967 173.550829 
L 365.9147 172.164722 
L 371.580434 142.803491 
L 377.246167 150.940148 
L 382.9119 144.937634 
L 388.577634 152.954531 
L 394.243367 165.537412 
L 399.909101 173.567382 
L 405.574834 135.764959 
L 411.240567 166.336574 
L 416.906301 149.857309 
L 422.572034 158.929838 
L 428.237768 151.906992 
L 433.903501 138.884927 
L 439.569234 148.617914 
L 445.234968 143.210291 
L 450.900701 154.604646 
L 456.566435 122.734437 
L 462.232168 145.663605 
L 467.897901 145.490768 
L 473.563635 149.967913 
L 479.229368 137.553274 
L 484.895102 143.11113 
L 490.560835 168.712668 
L 496.226568 159.102363 
L 501.892302 133.47669 
L 507.558035 146.325932 
L 513.223769 119.337649 
L 518.889502 153.238924 
L 524.555235 162.130679 
L 530.220969 146.924318 
L 535.886702 162.939793 
L 541.552436 127.890346 
L 547.218169 143.64649 
L 552.883902 269.646621 
L 558.549636 244.619008 
L 564.215369 266.292425 
L 569.881103 287.409262 
L 575.546836 274.573759 
L 581.212569 204.683722 
L 586.878303 256.801191 
L 592.544036 219.429204 
L 598.20977 239.711225 
L 603.875503 208.67352 
L 609.541236 179.691355 
L 615.20697 224.165773 
L 620.872703 197.425841 
L 626.538437 199.26652 
" clip-path="url(#p94a8667649)" style="fill: none; stroke: #008000; stroke-opacity: 0.2; stroke-linecap: round"/>
   </g>
   <g id="line2d_23">
    <path d="M 65.63083 288.085804 
L 71.296563 288.924636 
L 76.962297 292.151043 
L 82.62803 280.189395 
L 88.293764 292.194625 
L 93.959497 278.607135 
L 99.62523 286.220762 
L 105.290964 271.746958 
L 110.956697 273.694863 
L 116.622431 269.88492 
L 122.288164 235.712509 
L 127.953897 231.372584 
L 133.619631 226.314589 
L 139.285364 224.85868 
L 144.951098 212.692329 
L 150.616831 180.152503 
L 156.282564 165.054153 
L 161.948298 157.010959 
L 167.614031 138.877011 
L 173.279765 130.505594 
L 178.945498 125.47099 
L 184.611231 133.454402 
L 190.276965 113.62459 
L 195.942698 116.421205 
L 201.608432 127.723726 
L 207.274165 111.091906 
L 212.939898 113.060169 
L 218.605632 113.654038 
L 224.271365 110.156176 
L 229.937099 102.014089 
L 235.602832 98.923966 
L 241.268565 100.573939 
L 246.934299 99.247216 
L 252.600032 104.395237 
L 258.265766 98.294254 
L 263.931499 118.452525 
L 269.597232 107.004189 
L 275.262966 118.415917 
L 280.928699 115.453788 
L 286.594433 90.913376 
L 292.260166 83.875273 
L 297.925899 99.737514 
L 303.591633 86.476662 
L 309.257366 91.601814 
L 314.9231 98.725642 
L 320.588833 90.215866 
L 326.254566 102.976333 
L 331.9203 96.836954 
L 337.586033 89.613639 
L 343.251767 85.312581 
L 348.9175 121.08308 
L 354.583233 92.29593 
L 360.248967 91.485546 
L 365.9147 98.565411 
L 371.580434 92.995284 
L 377.246167 99.621103 
L 382.9119 109.388398 
L 388.577634 96.182311 
L 394.243367 98.192399 
L 399.909101 83.887593 
L 405.574834 93.670662 
L 411.240567 99.31597 
L 416.906301 93.846783 
L 422.572034 88.862067 
L 428.237768 95.110313 
L 433.903501 90.397524 
L 439.569234 103.542443 
L 445.234968 98.114187 
L 450.900701 95.60026 
L 456.566435 94.414492 
L 462.232168 93.636709 
L 467.897901 91.696956 
L 473.563635 94.475088 
L 479.229368 87.261386 
L 484.895102 91.160481 
L 490.560835 95.361974 
L 496.226568 99.760031 
L 501.892302 103.116069 
L 507.558035 95.980494 
L 513.223769 96.589586 
L 518.889502 84.744073 
L 524.555235 85.694837 
L 530.220969 95.048421 
L 535.886702 97.825364 
L 541.552436 88.985034 
L 547.218169 95.486933 
L 552.883902 92.225627 
L 558.549636 118.14047 
L 564.215369 98.616056 
L 569.881103 96.578438 
L 575.546836 89.38829 
L 581.212569 91.786773 
L 586.878303 98.479622 
L 592.544036 98.341113 
L 598.20977 93.58924 
L 603.875503 93.596358 
L 609.541236 92.086389 
L 615.20697 96.031467 
L 620.872703 85.326373 
L 626.538437 89.478064 
" clip-path="url(#p94a8667649)" style="fill: none; stroke: #008000; stroke-opacity: 0.2; stroke-linecap: round"/>
   </g>
   <g id="line2d_24">
    <path d="M 65.63083 322.806023 
L 71.296563 303.171327 
L 76.962297 305.045257 
L 82.62803 275.580144 
L 88.293764 264.824292 
L 93.959497 261.413126 
L 99.62523 244.48712 
L 105.290964 246.588017 
L 110.956697 231.301888 
L 116.622431 232.26765 
L 122.288164 230.999681 
L 127.953897 207.09638 
L 133.619631 204.722137 
L 139.285364 152.773875 
L 144.951098 142.582273 
L 150.616831 153.405716 
L 156.282564 117.527864 
L 161.948298 95.980653 
L 167.614031 105.542012 
L 173.279765 115.777226 
L 178.945498 105.848991 
L 184.611231 126.724722 
L 190.276965 103.095918 
L 195.942698 107.684581 
L 201.608432 100.277593 
L 207.274165 100.761041 
L 212.939898 95.55486 
L 218.605632 102.637679 
L 224.271365 94.640938 
L 229.937099 91.330352 
L 235.602832 96.474897 
L 241.268565 133.577249 
L 246.934299 107.182666 
L 252.600032 92.579116 
L 258.265766 103.178742 
L 263.931499 94.224799 
L 269.597232 93.317474 
L 275.262966 92.98464 
L 280.928699 99.263392 
L 286.594433 83.280388 
L 292.260166 97.19489 
L 297.925899 94.926613 
L 303.591633 91.931555 
L 309.257366 116.586985 
L 314.9231 92.1275 
L 320.588833 93.965405 
L 326.254566 87.558999 
L 331.9203 99.557436 
L 337.586033 83.405205 
L 343.251767 104.868024 
L 348.9175 87.252955 
L 354.583233 94.957825 
L 360.248967 96.228773 
L 365.9147 84.708031 
L 371.580434 101.527717 
L 377.246167 104.024802 
L 382.9119 100.052252 
L 388.577634 84.05565 
L 394.243367 96.982317 
L 399.909101 89.472604 
L 405.574834 90.15283 
L 411.240567 89.180305 
L 416.906301 90.15551 
L 422.572034 96.742111 
L 428.237768 84.518072 
L 433.903501 84.884159 
L 439.569234 89.233942 
L 445.234968 87.315009 
L 450.900701 90.294939 
L 456.566435 91.744935 
L 462.232168 88.319955 
L 467.897901 88.720099 
L 473.563635 88.928588 
L 479.229368 86.399777 
L 484.895102 81.898352 
L 490.560835 79.85672 
L 496.226568 87.586689 
L 501.892302 83.887597 
L 507.558035 79.862896 
L 513.223769 90.550058 
L 518.889502 91.876278 
L 524.555235 133.116643 
L 530.220969 88.305214 
L 535.886702 91.926047 
L 541.552436 86.418666 
L 547.218169 93.133719 
L 552.883902 82.927408 
L 558.549636 83.899269 
L 564.215369 92.008669 
L 569.881103 94.736994 
L 575.546836 87.786082 
L 581.212569 85.734447 
L 586.878303 88.322897 
L 592.544036 89.39838 
L 598.20977 87.454202 
L 603.875503 87.555035 
L 609.541236 92.313332 
L 615.20697 85.270537 
L 620.872703 93.196094 
L 626.538437 92.553153 
" clip-path="url(#p94a8667649)" style="fill: none; stroke: #008000; stroke-opacity: 0.2; stroke-linecap: round"/>
   </g>
   <g id="line2d_25">
    <path d="M 65.63083 57.0062 
L 71.296563 63.885212 
L 76.962297 77.920106 
L 82.62803 99.767814 
L 88.293764 121.882179 
L 93.959497 153.672052 
L 99.62523 168.251247 
L 105.290964 196.999619 
L 110.956697 226.254007 
L 116.622431 238.712963 
L 122.288164 251.820749 
L 127.953897 263.061308 
L 133.619631 279.456386 
L 139.285364 273.185795 
L 144.951098 267.409222 
L 150.616831 260.498887 
L 156.282564 258.706078 
L 161.948298 260.943758 
L 167.614031 262.929886 
L 173.279765 271.169286 
L 178.945498 272.572237 
L 184.611231 273.666023 
L 190.276965 286.85354 
L 195.942698 298.033758 
L 201.608432 309.159872 
L 207.274165 315.617487 
L 212.939898 315.156008 
L 218.605632 320.357814 
L 224.271365 325.257807 
L 229.937099 325.351595 
L 235.602832 330.657617 
L 241.268565 330.879822 
L 246.934299 327.585431 
L 252.600032 330.949595 
L 258.265766 335.330364 
L 263.931499 334.719531 
L 269.597232 335.121896 
L 275.262966 337.866196 
L 280.928699 341.984098 
L 286.594433 343.263177 
L 292.260166 347.187723 
L 297.925899 349.880195 
L 303.591633 349.304996 
L 309.257366 348.198158 
L 314.9231 349.663984 
L 320.588833 348.5045 
L 326.254566 351.335361 
L 331.9203 347.967711 
L 337.586033 348.490472 
L 343.251767 348.923843 
L 348.9175 348.6617 
L 354.583233 346.238663 
L 360.248967 347.959282 
L 365.9147 345.14899 
L 371.580434 352.850965 
L 377.246167 354.16595 
L 382.9119 358.09521 
L 388.577634 355.811088 
L 394.243367 357.482639 
L 399.909101 356.207625 
L 405.574834 355.635213 
L 411.240567 363.779276 
L 416.906301 364.229939 
L 422.572034 358.264553 
L 428.237768 354.82974 
L 433.903501 355.368857 
L 439.569234 356.929653 
L 445.234968 358.014277 
L 450.900701 358.015287 
L 456.566435 358.081875 
L 462.232168 354.461579 
L 467.897901 354.734174 
L 473.563635 363.973493 
L 479.229368 363.718365 
L 484.895102 363.279173 
L 490.560835 362.815015 
L 496.226568 358.937626 
L 501.892302 359.744923 
L 507.558035 363.996748 
L 513.223769 362.186308 
L 518.889502 363.819418 
L 524.555235 370.801515 
L 530.220969 370.850948 
L 535.886702 373.839831 
L 541.552436 373.175275 
L 547.218169 377.711353 
L 552.883902 384.307243 
L 558.549636 385.258237 
L 564.215369 388.101131 
L 569.881103 387.948196 
L 575.546836 387.314284 
L 581.212569 386.412945 
L 586.878303 388.042196 
L 592.544036 387.743459 
L 598.20977 388.672679 
L 603.875503 389.23936 
L 609.541236 388.59416 
L 615.20697 390.04 
L 620.872703 389.501081 
L 626.538437 388.97711 
" clip-path="url(#p94a8667649)" style="fill: none; stroke: #7b3ab8; stroke-linecap: round"/>
   </g>
   <g id="patch_3">
    <path d="M 65.63 390.04 
L 65.63 57.0062 
" style="fill: none; stroke: #ffffff; stroke-width: 0.8; stroke-linejoin: miter; stroke-linecap: square"/>
   </g>
   <g id="patch_4">
    <path d="M 632.205 390.04 
L 632.205 57.0062 
" style="fill: none; stroke: #ffffff; stroke-width: 0.8; stroke-linejoin: miter; stroke-linecap: square"/>
   </g>
   <g id="patch_5">
    <path d="M 65.63 390.04 
L 632.205 390.04 
" style="fill: none; stroke: #ffffff; stroke-width: 0.8; stroke-linejoin: miter; stroke-linecap: square"/>
   </g>
   <g id="patch_6">
    <path d="M 65.63 57.0062 
L 632.205 57.0062 
" style="fill: none; stroke: #ffffff; stroke-width: 0.8; stroke-linejoin: miter; stroke-linecap: square"/>
   </g>
   <g id="legend_1">
    <g id="line2d_26">
     <path d="M 97.385341 41.274494 
L 105.715341 41.274494 
L 114.045341 41.274494 
" style="fill: none; stroke: #0000ff; stroke-width: 1.5; stroke-linecap: round"/>
    </g>
    <g id="text_22">
     <!-- Mean Reward -->
     <g style="fill: #262626" transform="translate(120.709341 44.189994) scale(0.0833 -0.0833)">
      <defs>
       <path id="DejaVuSans-4d" d="M 628 4666 
L 1569 4666 
L 2759 1491 
L 3956 4666 
L 4897 4666 
L 4897 0 
L 4281 0 
L 4281 4097 
L 3078 897 
L 2444 897 
L 1241 4097 
L 1241 0 
L 628 0 
L 628 4666 
z
" transform="scale(0.015625)"/>
       <path id="DejaVuSans-6e" d="M 3513 2113 
L 3513 0 
L 2938 0 
L 2938 2094 
Q 2938 2591 2744 2837 
Q 2550 3084 2163 3084 
Q 1697 3084 1428 2787 
Q 1159 2491 1159 1978 
L 1159 0 
L 581 0 
L 581 3500 
L 1159 3500 
L 1159 2956 
Q 1366 3272 1645 3428 
Q 1925 3584 2291 3584 
Q 2894 3584 3203 3211 
Q 3513 2838 3513 2113 
z
" transform="scale(0.015625)"/>
       <path id="DejaVuSans-20" transform="scale(0.015625)"/>
      </defs>
      <use xlink:href="#DejaVuSans-4d"/>
      <use xlink:href="#DejaVuSans-65" transform="translate(86.279297 0)"/>
      <use xlink:href="#DejaVuSans-61" transform="translate(147.802734 0)"/>
      <use xlink:href="#DejaVuSans-6e" transform="translate(209.082031 0)"/>
      <use xlink:href="#DejaVuSans-20" transform="translate(272.460938 0)"/>
      <use xlink:href="#DejaVuSans-52" transform="translate(304.248047 0)"/>
      <use xlink:href="#DejaVuSans-65" transform="translate(369.230469 0)"/>
      <use xlink:href="#DejaVuSans-77" transform="translate(430.753906 0)"/>
      <use xlink:href="#DejaVuSans-61" transform="translate(512.541016 0)"/>
      <use xlink:href="#DejaVuSans-72" transform="translate(573.820312 0)"/>
      <use xlink:href="#DejaVuSans-64" transform="translate(613.183594 0)"/>
     </g>
    </g>
    <g id="line2d_27">
     <path d="M 193.736108 41.274494 
L 202.066108 41.274494 
L 210.396108 41.274494 
" style="fill: none; stroke: #008000; stroke-opacity: 0.2; stroke-linecap: round"/>
    </g>
    <g id="text_23">
     <!-- Reward (individual runs) -->
     <g style="fill: #262626" transform="translate(217.060108 44.189994) scale(0.0833 -0.0833)">
      <defs>
       <path id="DejaVuSans-28" d="M 1984 4856 
Q 1566 4138 1362 3434 
Q 1159 2731 1159 2009 
Q 1159 1288 1364 580 
Q 1569 -128 1984 -844 
L 1484 -844 
Q 1016 -109 783 600 
Q 550 1309 550 2009 
Q 550 2706 781 3412 
Q 1013 4119 1484 4856 
L 1984 4856 
z
" transform="scale(0.015625)"/>
       <path id="DejaVuSans-69" d="M 603 3500 
L 1178 3500 
L 1178 0 
L 603 0 
L 603 3500 
z
M 603 4863 
L 1178 4863 
L 1178 4134 
L 603 4134 
L 603 4863 
z
" transform="scale(0.015625)"/>
       <path id="DejaVuSans-76" d="M 191 3500 
L 800 3500 
L 1894 563 
L 2988 3500 
L 3597 3500 
L 2284 0 
L 1503 0 
L 191 3500 
z
" transform="scale(0.015625)"/>
       <path id="DejaVuSans-75" d="M 544 1381 
L 544 3500 
L 1119 3500 
L 1119 1403 
Q 1119 906 1312 657 
Q 1506 409 1894 409 
Q 2359 409 2629 706 
Q 2900 1003 2900 1516 
L 2900 3500 
L 3475 3500 
L 3475 0 
L 2900 0 
L 2900 538 
Q 2691 219 2414 64 
Q 2138 -91 1772 -91 
Q 1169 -91 856 284 
Q 544 659 544 1381 
z
M 1991 3584 
L 1991 3584 
z
" transform="scale(0.015625)"/>
       <path id="DejaVuSans-6c" d="M 603 4863 
L 1178 4863 
L 1178 0 
L 603 0 
L 603 4863 
z
" transform="scale(0.015625)"/>
       <path id="DejaVuSans-29" d="M 513 4856 
L 1013 4856 
Q 1481 4119 1714 3412 
Q 1947 2706 1947 2009 
Q 1947 1309 1714 600 
Q 1481 -109 1013 -844 
L 513 -844 
Q 928 -128 1133 580 
Q 1338 1288 1338 2009 
Q 1338 2731 1133 3434 
Q 928 4138 513 4856 
z
" transform="scale(0.015625)"/>
      </defs>
      <use xlink:href="#DejaVuSans-52"/>
      <use xlink:href="#DejaVuSans-65" transform="translate(64.982422 0)"/>
      <use xlink:href="#DejaVuSans-77" transform="translate(126.505859 0)"/>
      <use xlink:href="#DejaVuSans-61" transform="translate(208.292969 0)"/>
      <use xlink:href="#DejaVuSans-72" transform="translate(269.572266 0)"/>
      <use xlink:href="#DejaVuSans-64" transform="translate(308.935547 0)"/>
      <use xlink:href="#DejaVuSans-20" transform="translate(372.412109 0)"/>
      <use xlink:href="#DejaVuSans-28" transform="translate(404.199219 0)"/>
      <use xlink:href="#DejaVuSans-69" transform="translate(443.212891 0)"/>
      <use xlink:href="#DejaVuSans-6e" transform="translate(470.996094 0)"/>
      <use xlink:href="#DejaVuSans-64" transform="translate(534.375 0)"/>
      <use xlink:href="#DejaVuSans-69" transform="translate(597.851562 0)"/>
      <use xlink:href="#DejaVuSans-76" transform="translate(625.634766 0)"/>
      <use xlink:href="#DejaVuSans-69" transform="translate(684.814453 0)"/>
      <use xlink:href="#DejaVuSans-64" transform="translate(712.597656 0)"/>
      <use xlink:href="#DejaVuSans-75" transform="translate(776.074219 0)"/>
      <use xlink:href="#DejaVuSans-61" transform="translate(839.453125 0)"/>
      <use xlink:href="#DejaVuSans-6c" transform="translate(900.732422 0)"/>
      <use xlink:href="#DejaVuSans-20" transform="translate(928.515625 0)"/>
      <use xlink:href="#DejaVuSans-72" transform="translate(960.302734 0)"/>
      <use xlink:href="#DejaVuSans-75" transform="translate(1001.416016 0)"/>
      <use xlink:href="#DejaVuSans-6e" transform="translate(1064.794922 0)"/>
      <use xlink:href="#DejaVuSans-73" transform="translate(1128.173828 0)"/>
      <use xlink:href="#DejaVuSans-29" transform="translate(1180.273438 0)"/>
     </g>
    </g>
    <g id="line2d_28">
     <path d="M 335.286236 41.274494 
L 343.616236 41.274494 
L 351.946236 41.274494 
" style="fill: none; stroke: #7b3ab8; stroke-linecap: round"/>
    </g>
    <g id="text_24">
     <!-- Entropy (normalized) -->
     <g style="fill: #262626" transform="translate(358.610236 44.189994) scale(0.0833 -0.0833)">
      <defs>
       <path id="DejaVuSans-45" d="M 628 4666 
L 3578 4666 
L 3578 4134 
L 1259 4134 
L 1259 2753 
L 3481 2753 
L 3481 2222 
L 1259 2222 
L 1259 531 
L 3634 531 
L 3634 0 
L 628 0 
L 628 4666 
z
" transform="scale(0.015625)"/>
       <path id="DejaVuSans-6f" d="M 1959 3097 
Q 1497 3097 1228 2736 
Q 959 2375 959 1747 
Q 959 1119 1226 758 
Q 1494 397 1959 397 
Q 2419 397 2687 759 
Q 2956 1122 2956 1747 
Q 2956 2369 2687 2733 
Q 2419 3097 1959 3097 
z
M 1959 3584 
Q 2709 3584 3137 3096 
Q 3566 2609 3566 1747 
Q 3566 888 3137 398 
Q 2709 -91 1959 -91 
Q 1206 -91 779 398 
Q 353 888 353 1747 
Q 353 2609 779 3096 
Q 1206 3584 1959 3584 
z
" transform="scale(0.015625)"/>
       <path id="DejaVuSans-79" d="M 2059 -325 
Q 1816 -950 1584 -1140 
Q 1353 -1331 966 -1331 
L 506 -1331 
L 506 -850 
L 844 -850 
Q 1081 -850 1212 -737 
Q 1344 -625 1503 -206 
L 1606 56 
L 191 3500 
L 800 3500 
L 1894 763 
L 2988 3500 
L 3597 3500 
L 2059 -325 
z
" transform="scale(0.015625)"/>
       <path id="DejaVuSans-6d" d="M 3328 2828 
Q 3544 3216 3844 3400 
Q 4144 3584 4550 3584 
Q 5097 3584 5394 3201 
Q 5691 2819 5691 2113 
L 5691 0 
L 5113 0 
L 5113 2094 
Q 5113 2597 4934 2840 
Q 4756 3084 4391 3084 
Q 3944 3084 3684 2787 
Q 3425 2491 3425 1978 
L 3425 0 
L 2847 0 
L 2847 2094 
Q 2847 2600 2669 2842 
Q 2491 3084 2119 3084 
Q 1678 3084 1418 2786 
Q 1159 2488 1159 1978 
L 1159 0 
L 581 0 
L 581 3500 
L 1159 3500 
L 1159 2956 
Q 1356 3278 1631 3431 
Q 1906 3584 2284 3584 
Q 2666 3584 2933 3390 
Q 3200 3197 3328 2828 
z
" transform="scale(0.015625)"/>
       <path id="DejaVuSans-7a" d="M 353 3500 
L 3084 3500 
L 3084 2975 
L 922 459 
L 3084 459 
L 3084 0 
L 275 0 
L 275 525 
L 2438 3041 
L 353 3041 
L 353 3500 
z
" transform="scale(0.015625)"/>
      </defs>
      <use xlink:href="#DejaVuSans-45"/>
      <use xlink:href="#DejaVuSans-6e" transform="translate(63.183594 0)"/>
      <use xlink:href="#DejaVuSans-74" transform="translate(126.5625 0)"/>
      <use xlink:href="#DejaVuSans-72" transform="translate(165.771484 0)"/>
      <use xlink:href="#DejaVuSans-6f" transform="translate(204.634766 0)"/>
      <use xlink:href="#DejaVuSans-70" transform="translate(265.816406 0)"/>
      <use xlink:href="#DejaVuSans-79" transform="translate(329.292969 0)"/>
      <use xlink:href="#DejaVuSans-20" transform="translate(388.472656 0)"/>
      <use xlink:href="#DejaVuSans-28" transform="translate(420.259766 0)"/>
      <use xlink:href="#DejaVuSans-6e" transform="translate(459.273438 0)"/>
      <use xlink:href="#DejaVuSans-6f" transform="translate(522.652344 0)"/>
      <use xlink:href="#DejaVuSans-72" transform="translate(583.833984 0)"/>
      <use xlink:href="#DejaVuSans-6d" transform="translate(623.197266 0)"/>
      <use xlink:href="#DejaVuSans-61" transform="translate(720.609375 0)"/>
      <use xlink:href="#DejaVuSans-6c" transform="translate(781.888672 0)"/>
      <use xlink:href="#DejaVuSans-69" transform="translate(809.671875 0)"/>
      <use xlink:href="#DejaVuSans-7a" transform="translate(837.455078 0)"/>
      <use xlink:href="#DejaVuSans-65" transform="translate(889.945312 0)"/>
      <use xlink:href="#DejaVuSans-64" transform="translate(951.46875 0)"/>
      <use xlink:href="#DejaVuSans-29" transform="translate(1014.945312 0)"/>
     </g>
    </g>
    <g id="patch_7">
     <path d="M 463.065833 44.189994 
L 479.725833 44.189994 
L 479.725833 38.358994 
L 463.065833 38.358994 
z
" style="fill: #0000ff; fill-opacity: 0.1"/>
    </g>
    <g id="text_25">
     <!-- Reward Standard Deviation -->
     <g style="fill: #262626" transform="translate(486.389833 44.189994) scale(0.0833 -0.0833)">
      <defs>
       <path id="DejaVuSans-44" d="M 1259 4147 
L 1259 519 
L 2022 519 
Q 2988 519 3436 956 
Q 3884 1394 3884 2338 
Q 3884 3275 3436 3711 
Q 2988 4147 2022 4147 
L 1259 4147 
z
M 628 4666 
L 1925 4666 
Q 3281 4666 3915 4102 
Q 4550 3538 4550 2338 
Q 4550 1131 3912 565 
Q 3275 0 1925 0 
L 628 0 
L 628 4666 
z
" transform="scale(0.015625)"/>
      </defs>
      <use xlink:href="#DejaVuSans-52"/>
      <use xlink:href="#DejaVuSans-65" transform="translate(64.982422 0)"/>
      <use xlink:href="#DejaVuSans-77" transform="translate(126.505859 0)"/>
      <use xlink:href="#DejaVuSans-61" transform="translate(208.292969 0)"/>
      <use xlink:href="#DejaVuSans-72" transform="translate(269.572266 0)"/>
      <use xlink:href="#DejaVuSans-64" transform="translate(308.935547 0)"/>
      <use xlink:href="#DejaVuSans-20" transform="translate(372.412109 0)"/>
      <use xlink:href="#DejaVuSans-53" transform="translate(404.199219 0)"/>
      <use xlink:href="#DejaVuSans-74" transform="translate(467.675781 0)"/>
      <use xlink:href="#DejaVuSans-61" transform="translate(506.884766 0)"/>
      <use xlink:href="#DejaVuSans-6e" transform="translate(568.164062 0)"/>
      <use xlink:href="#DejaVuSans-64" transform="translate(631.542969 0)"/>
      <use xlink:href="#DejaVuSans-61" transform="translate(695.019531 0)"/>
      <use xlink:href="#DejaVuSans-72" transform="translate(756.298828 0)"/>
      <use xlink:href="#DejaVuSans-64" transform="translate(795.662109 0)"/>
      <use xlink:href="#DejaVuSans-20" transform="translate(859.138672 0)"/>
      <use xlink:href="#DejaVuSans-44" transform="translate(890.925781 0)"/>
      <use xlink:href="#DejaVuSans-65" transform="translate(967.927734 0)"/>
      <use xlink:href="#DejaVuSans-76" transform="translate(1029.451172 0)"/>
      <use xlink:href="#DejaVuSans-69" transform="translate(1088.630859 0)"/>
      <use xlink:href="#DejaVuSans-61" transform="translate(1116.414062 0)"/>
      <use xlink:href="#DejaVuSans-74" transform="translate(1177.693359 0)"/>
      <use xlink:href="#DejaVuSans-69" transform="translate(1216.902344 0)"/>
      <use xlink:href="#DejaVuSans-6f" transform="translate(1244.685547 0)"/>
      <use xlink:href="#DejaVuSans-6e" transform="translate(1305.867188 0)"/>
     </g>
    </g>
   </g>
  </g>
  <g id="text_26">
   <!-- Rewards: Pendulum-v1 (Discretized) | CMU-Net (Alignment + Penalty + Margin) -->
   <g style="fill: #262626" transform="translate(54.338437 17.810625) scale(0.12 -0.12)">
    <defs>
     <path id="DejaVuSans-Bold-52" d="M 2297 2597 
Q 2675 2597 2839 2737 
Q 3003 2878 3003 3200 
Q 3003 3519 2839 3656 
Q 2675 3794 2297 3794 
L 1791 3794 
L 1791 2597 
L 2297 2597 
z
M 1791 1766 
L 1791 0 
L 588 0 
L 588 4666 
L 2425 4666 
Q 3347 4666 3776 4356 
Q 4206 4047 4206 3378 
Q 4206 2916 3982 2619 
Q 3759 2322 3309 2181 
Q 3556 2125 3751 1926 
Q 3947 1728 4147 1325 
L 4800 0 
L 3519 0 
L 2950 1159 
Q 2778 1509 2601 1637 
Q 2425 1766 2131 1766 
L 1791 1766 
z
" transform="scale(0.015625)"/>
     <path id="DejaVuSans-Bold-65" d="M 4031 1759 
L 4031 1441 
L 1416 1441 
Q 1456 1047 1700 850 
Q 1944 653 2381 653 
Q 2734 653 3104 758 
Q 3475 863 3866 1075 
L 3866 213 
Q 3469 63 3072 -14 
Q 2675 -91 2278 -91 
Q 1328 -91 801 392 
Q 275 875 275 1747 
Q 275 2603 792 3093 
Q 1309 3584 2216 3584 
Q 3041 3584 3536 3087 
Q 4031 2591 4031 1759 
z
M 2881 2131 
Q 2881 2450 2695 2645 
Q 2509 2841 2209 2841 
Q 1884 2841 1681 2658 
Q 1478 2475 1428 2131 
L 2881 2131 
z
" transform="scale(0.015625)"/>
     <path id="DejaVuSans-Bold-77" d="M 225 3500 
L 1313 3500 
L 1900 1088 
L 2491 3500 
L 3425 3500 
L 4013 1113 
L 4603 3500 
L 5691 3500 
L 4769 0 
L 3547 0 
L 2956 2406 
L 2369 0 
L 1147 0 
L 225 3500 
z
" transform="scale(0.015625)"/>
     <path id="DejaVuSans-Bold-61" d="M 2106 1575 
Q 1756 1575 1579 1456 
Q 1403 1338 1403 1106 
Q 1403 894 1545 773 
Q 1688 653 1941 653 
Q 2256 653 2472 879 
Q 2688 1106 2688 1447 
L 2688 1575 
L 2106 1575 
z
M 3816 1997 
L 3816 0 
L 2688 0 
L 2688 519 
Q 2463 200 2181 54 
Q 1900 -91 1497 -91 
Q 953 -91 614 226 
Q 275 544 275 1050 
Q 275 1666 698 1953 
Q 1122 2241 2028 2241 
L 2688 2241 
L 2688 2328 
Q 2688 2594 2478 2717 
Q 2269 2841 1825 2841 
Q 1466 2841 1156 2769 
Q 847 2697 581 2553 
L 581 3406 
Q 941 3494 1303 3539 
Q 1666 3584 2028 3584 
Q 2975 3584 3395 3211 
Q 3816 2838 3816 1997 
z
" transform="scale(0.015625)"/>
     <path id="DejaVuSans-Bold-72" d="M 3138 2547 
Q 2991 2616 2845 2648 
Q 2700 2681 2553 2681 
Q 2122 2681 1889 2404 
Q 1656 2128 1656 1613 
L 1656 0 
L 538 0 
L 538 3500 
L 1656 3500 
L 1656 2925 
Q 1872 3269 2151 3426 
Q 2431 3584 2822 3584 
Q 2878 3584 2943 3579 
Q 3009 3575 3134 3559 
L 3138 2547 
z
" transform="scale(0.015625)"/>
     <path id="DejaVuSans-Bold-64" d="M 2919 2988 
L 2919 4863 
L 4044 4863 
L 4044 0 
L 2919 0 
L 2919 506 
Q 2688 197 2409 53 
Q 2131 -91 1766 -91 
Q 1119 -91 703 423 
Q 288 938 288 1747 
Q 288 2556 703 3070 
Q 1119 3584 1766 3584 
Q 2128 3584 2408 3439 
Q 2688 3294 2919 2988 
z
M 2181 722 
Q 2541 722 2730 984 
Q 2919 1247 2919 1747 
Q 2919 2247 2730 2509 
Q 2541 2772 2181 2772 
Q 1825 2772 1636 2509 
Q 1447 2247 1447 1747 
Q 1447 1247 1636 984 
Q 1825 722 2181 722 
z
" transform="scale(0.015625)"/>
     <path id="DejaVuSans-Bold-73" d="M 3272 3391 
L 3272 2541 
Q 2913 2691 2578 2766 
Q 2244 2841 1947 2841 
Q 1628 2841 1473 2761 
Q 1319 2681 1319 2516 
Q 1319 2381 1436 2309 
Q 1553 2238 1856 2203 
L 2053 2175 
Q 2913 2066 3209 1816 
Q 3506 1566 3506 1031 
Q 3506 472 3093 190 
Q 2681 -91 1863 -91 
Q 1516 -91 1145 -36 
Q 775 19 384 128 
L 384 978 
Q 719 816 1070 734 
Q 1422 653 1784 653 
Q 2113 653 2278 743 
Q 2444 834 2444 1013 
Q 2444 1163 2330 1236 
Q 2216 1309 1875 1350 
L 1678 1375 
Q 931 1469 631 1722 
Q 331 1975 331 2491 
Q 331 3047 712 3315 
Q 1094 3584 1881 3584 
Q 2191 3584 2531 3537 
Q 2872 3491 3272 3391 
z
" transform="scale(0.015625)"/>
     <path id="DejaVuSans-Bold-3a" d="M 716 3500 
L 1844 3500 
L 1844 2291 
L 716 2291 
L 716 3500 
z
M 716 1209 
L 1844 1209 
L 1844 0 
L 716 0 
L 716 1209 
z
" transform="scale(0.015625)"/>
     <path id="DejaVuSans-Bold-20" transform="scale(0.015625)"/>
     <path id="DejaVuSans-Bold-50" d="M 588 4666 
L 2584 4666 
Q 3475 4666 3951 4270 
Q 4428 3875 4428 3144 
Q 4428 2409 3951 2014 
Q 3475 1619 2584 1619 
L 1791 1619 
L 1791 0 
L 588 0 
L 588 4666 
z
M 1791 3794 
L 1791 2491 
L 2456 2491 
Q 2806 2491 2997 2661 
Q 3188 2831 3188 3144 
Q 3188 3456 2997 3625 
Q 2806 3794 2456 3794 
L 1791 3794 
z
" transform="scale(0.015625)"/>
     <path id="DejaVuSans-Bold-6e" d="M 4056 2131 
L 4056 0 
L 2931 0 
L 2931 347 
L 2931 1631 
Q 2931 2084 2911 2256 
Q 2891 2428 2841 2509 
Q 2775 2619 2662 2680 
Q 2550 2741 2406 2741 
Q 2056 2741 1856 2470 
Q 1656 2200 1656 1722 
L 1656 0 
L 538 0 
L 538 3500 
L 1656 3500 
L 1656 2988 
Q 1909 3294 2193 3439 
Q 2478 3584 2822 3584 
Q 3428 3584 3742 3212 
Q 4056 2841 4056 2131 
z
" transform="scale(0.015625)"/>
     <path id="DejaVuSans-Bold-75" d="M 500 1363 
L 500 3500 
L 1625 3500 
L 1625 3150 
Q 1625 2866 1622 2436 
Q 1619 2006 1619 1863 
Q 1619 1441 1641 1255 
Q 1663 1069 1716 984 
Q 1784 875 1895 815 
Q 2006 756 2150 756 
Q 2500 756 2700 1025 
Q 2900 1294 2900 1772 
L 2900 3500 
L 4019 3500 
L 4019 0 
L 2900 0 
L 2900 506 
Q 2647 200 2364 54 
Q 2081 -91 1741 -91 
Q 1134 -91 817 281 
Q 500 653 500 1363 
z
" transform="scale(0.015625)"/>
     <path id="DejaVuSans-Bold-6c" d="M 538 4863 
L 1656 4863 
L 1656 0 
L 538 0 
L 538 4863 
z
" transform="scale(0.015625)"/>
     <path id="DejaVuSans-Bold-6d" d="M 3781 2919 
Q 3994 3244 4286 3414 
Q 4578 3584 4928 3584 
Q 5531 3584 5847 3212 
Q 6163 2841 6163 2131 
L 6163 0 
L 5038 0 
L 5038 1825 
Q 5041 1866 5042 1909 
Q 5044 1953 5044 2034 
Q 5044 2406 4934 2573 
Q 4825 2741 4581 2741 
Q 4263 2741 4089 2478 
Q 3916 2216 3909 1719 
L 3909 0 
L 2784 0 
L 2784 1825 
Q 2784 2406 2684 2573 
Q 2584 2741 2328 2741 
Q 2006 2741 1831 2477 
Q 1656 2213 1656 1722 
L 1656 0 
L 531 0 
L 531 3500 
L 1656 3500 
L 1656 2988 
Q 1863 3284 2130 3434 
Q 2397 3584 2719 3584 
Q 3081 3584 3359 3409 
Q 3638 3234 3781 2919 
z
" transform="scale(0.015625)"/>
     <path id="DejaVuSans-Bold-2d" d="M 347 2297 
L 2309 2297 
L 2309 1388 
L 347 1388 
L 347 2297 
z
" transform="scale(0.015625)"/>
     <path id="DejaVuSans-Bold-76" d="M 97 3500 
L 1216 3500 
L 2088 1081 
L 2956 3500 
L 4078 3500 
L 2700 0 
L 1472 0 
L 97 3500 
z
" transform="scale(0.015625)"/>
     <path id="DejaVuSans-Bold-31" d="M 750 831 
L 1813 831 
L 1813 3847 
L 722 3622 
L 722 4441 
L 1806 4666 
L 2950 4666 
L 2950 831 
L 4013 831 
L 4013 0 
L 750 0 
L 750 831 
z
" transform="scale(0.015625)"/>
     <path id="DejaVuSans-Bold-28" d="M 2413 -844 
L 1484 -844 
Q 1006 -72 778 623 
Q 550 1319 550 2003 
Q 550 2688 779 3389 
Q 1009 4091 1484 4856 
L 2413 4856 
Q 2013 4116 1813 3408 
Q 1613 2700 1613 2009 
Q 1613 1319 1811 609 
Q 2009 -100 2413 -844 
z
" transform="scale(0.015625)"/>
     <path id="DejaVuSans-Bold-44" d="M 1791 3756 
L 1791 909 
L 2222 909 
Q 2959 909 3348 1275 
Q 3738 1641 3738 2338 
Q 3738 3031 3350 3393 
Q 2963 3756 2222 3756 
L 1791 3756 
z
M 588 4666 
L 1856 4666 
Q 2919 4666 3439 4514 
Q 3959 4363 4331 4000 
Q 4659 3684 4818 3271 
Q 4978 2859 4978 2338 
Q 4978 1809 4818 1395 
Q 4659 981 4331 666 
Q 3956 303 3431 151 
Q 2906 0 1856 0 
L 588 0 
L 588 4666 
z
" transform="scale(0.015625)"/>
     <path id="DejaVuSans-Bold-69" d="M 538 3500 
L 1656 3500 
L 1656 0 
L 538 0 
L 538 3500 
z
M 538 4863 
L 1656 4863 
L 1656 3950 
L 538 3950 
L 538 4863 
z
" transform="scale(0.015625)"/>
     <path id="DejaVuSans-Bold-63" d="M 3366 3391 
L 3366 2478 
Q 3138 2634 2908 2709 
Q 2678 2784 2431 2784 
Q 1963 2784 1702 2511 
Q 1441 2238 1441 1747 
Q 1441 1256 1702 982 
Q 1963 709 2431 709 
Q 2694 709 2930 787 
Q 3166 866 3366 1019 
L 3366 103 
Q 3103 6 2833 -42 
Q 2563 -91 2291 -91 
Q 1344 -91 809 395 
Q 275 881 275 1747 
Q 275 2613 809 3098 
Q 1344 3584 2291 3584 
Q 2566 3584 2833 3536 
Q 3100 3488 3366 3391 
z
" transform="scale(0.015625)"/>
     <path id="DejaVuSans-Bold-74" d="M 1759 4494 
L 1759 3500 
L 2913 3500 
L 2913 2700 
L 1759 2700 
L 1759 1216 
Q 1759 972 1856 886 
Q 1953 800 2241 800 
L 2816 800 
L 2816 0 
L 1856 0 
Q 1194 0 917 276 
Q 641 553 641 1216 
L 641 2700 
L 84 2700 
L 84 3500 
L 641 3500 
L 641 4494 
L 1759 4494 
z
" transform="scale(0.015625)"/>
     <path id="DejaVuSans-Bold-7a" d="M 366 3500 
L 3419 3500 
L 3419 2719 
L 1575 800 
L 3419 800 
L 3419 0 
L 288 0 
L 288 781 
L 2131 2700 
L 366 2700 
L 366 3500 
z
" transform="scale(0.015625)"/>
     <path id="DejaVuSans-Bold-29" d="M 513 -844 
Q 913 -100 1113 609 
Q 1313 1319 1313 2009 
Q 1313 2700 1113 3408 
Q 913 4116 513 4856 
L 1441 4856 
Q 1916 4091 2145 3389 
Q 2375 2688 2375 2003 
Q 2375 1319 2147 623 
Q 1919 -72 1441 -844 
L 513 -844 
z
" transform="scale(0.015625)"/>
     <path id="DejaVuSans-Bold-7c" d="M 1522 4891 
L 1522 -1509 
L 813 -1509 
L 813 4891 
L 1522 4891 
z
" transform="scale(0.015625)"/>
     <path id="DejaVuSans-Bold-43" d="M 4288 256 
Q 3956 84 3597 -3 
Q 3238 -91 2847 -91 
Q 1681 -91 1000 561 
Q 319 1213 319 2328 
Q 319 3447 1000 4098 
Q 1681 4750 2847 4750 
Q 3238 4750 3597 4662 
Q 3956 4575 4288 4403 
L 4288 3438 
Q 3953 3666 3628 3772 
Q 3303 3878 2944 3878 
Q 2300 3878 1931 3465 
Q 1563 3053 1563 2328 
Q 1563 1606 1931 1193 
Q 2300 781 2944 781 
Q 3303 781 3628 887 
Q 3953 994 4288 1222 
L 4288 256 
z
" transform="scale(0.015625)"/>
     <path id="DejaVuSans-Bold-4d" d="M 588 4666 
L 2119 4666 
L 3181 2169 
L 4250 4666 
L 5778 4666 
L 5778 0 
L 4641 0 
L 4641 3413 
L 3566 897 
L 2803 897 
L 1728 3413 
L 1728 0 
L 588 0 
L 588 4666 
z
" transform="scale(0.015625)"/>
     <path id="DejaVuSans-Bold-55" d="M 588 4666 
L 1791 4666 
L 1791 1869 
Q 1791 1291 1980 1042 
Q 2169 794 2597 794 
Q 3028 794 3217 1042 
Q 3406 1291 3406 1869 
L 3406 4666 
L 4609 4666 
L 4609 1869 
Q 4609 878 4112 393 
Q 3616 -91 2597 -91 
Q 1581 -91 1084 393 
Q 588 878 588 1869 
L 588 4666 
z
" transform="scale(0.015625)"/>
     <path id="DejaVuSans-Bold-4e" d="M 588 4666 
L 1931 4666 
L 3628 1466 
L 3628 4666 
L 4769 4666 
L 4769 0 
L 3425 0 
L 1728 3200 
L 1728 0 
L 588 0 
L 588 4666 
z
" transform="scale(0.015625)"/>
     <path id="DejaVuSans-Bold-41" d="M 3419 850 
L 1538 850 
L 1241 0 
L 31 0 
L 1759 4666 
L 3194 4666 
L 4922 0 
L 3713 0 
L 3419 850 
z
M 1838 1716 
L 3116 1716 
L 2478 3572 
L 1838 1716 
z
" transform="scale(0.015625)"/>
     <path id="DejaVuSans-Bold-67" d="M 2919 594 
Q 2688 288 2409 144 
Q 2131 0 1766 0 
Q 1125 0 706 504 
Q 288 1009 288 1791 
Q 288 2575 706 3076 
Q 1125 3578 1766 3578 
Q 2131 3578 2409 3434 
Q 2688 3291 2919 2981 
L 2919 3500 
L 4044 3500 
L 4044 353 
Q 4044 -491 3511 -936 
Q 2978 -1381 1966 -1381 
Q 1638 -1381 1331 -1331 
Q 1025 -1281 716 -1178 
L 716 -306 
Q 1009 -475 1290 -558 
Q 1572 -641 1856 -641 
Q 2406 -641 2662 -400 
Q 2919 -159 2919 353 
L 2919 594 
z
M 2181 2772 
Q 1834 2772 1640 2515 
Q 1447 2259 1447 1791 
Q 1447 1309 1634 1061 
Q 1822 813 2181 813 
Q 2531 813 2725 1069 
Q 2919 1325 2919 1791 
Q 2919 2259 2725 2515 
Q 2531 2772 2181 2772 
z
" transform="scale(0.015625)"/>
     <path id="DejaVuSans-Bold-2b" d="M 3053 4013 
L 3053 2375 
L 4684 2375 
L 4684 1638 
L 3053 1638 
L 3053 0 
L 2309 0 
L 2309 1638 
L 678 1638 
L 678 2375 
L 2309 2375 
L 2309 4013 
L 3053 4013 
z
" transform="scale(0.015625)"/>
     <path id="DejaVuSans-Bold-79" d="M 78 3500 
L 1197 3500 
L 2138 1125 
L 2938 3500 
L 4056 3500 
L 2584 -331 
Q 2363 -916 2067 -1148 
Q 1772 -1381 1288 -1381 
L 641 -1381 
L 641 -647 
L 991 -647 
Q 1275 -647 1404 -556 
Q 1534 -466 1606 -231 
L 1638 -134 
L 78 3500 
z
" transform="scale(0.015625)"/>
    </defs>
    <use xlink:href="#DejaVuSans-Bold-52"/>
    <use xlink:href="#DejaVuSans-Bold-65" transform="translate(77.001953 0)"/>
    <use xlink:href="#DejaVuSans-Bold-77" transform="translate(144.824219 0)"/>
    <use xlink:href="#DejaVuSans-Bold-61" transform="translate(237.207031 0)"/>
    <use xlink:href="#DejaVuSans-Bold-72" transform="translate(304.6875 0)"/>
    <use xlink:href="#DejaVuSans-Bold-64" transform="translate(354.003906 0)"/>
    <use xlink:href="#DejaVuSans-Bold-73" transform="translate(425.585938 0)"/>
    <use xlink:href="#DejaVuSans-Bold-3a" transform="translate(485.107422 0)"/>
    <use xlink:href="#DejaVuSans-Bold-20" transform="translate(525.097656 0)"/>
    <use xlink:href="#DejaVuSans-Bold-50" transform="translate(559.912109 0)"/>
    <use xlink:href="#DejaVuSans-Bold-65" transform="translate(633.203125 0)"/>
    <use xlink:href="#DejaVuSans-Bold-6e" transform="translate(701.025391 0)"/>
    <use xlink:href="#DejaVuSans-Bold-64" transform="translate(772.216797 0)"/>
    <use xlink:href="#DejaVuSans-Bold-75" transform="translate(843.798828 0)"/>
    <use xlink:href="#DejaVuSans-Bold-6c" transform="translate(914.990234 0)"/>
    <use xlink:href="#DejaVuSans-Bold-75" transform="translate(949.267578 0)"/>
    <use xlink:href="#DejaVuSans-Bold-6d" transform="translate(1020.458984 0)"/>
    <use xlink:href="#DejaVuSans-Bold-2d" transform="translate(1124.658203 0)"/>
    <use xlink:href="#DejaVuSans-Bold-76" transform="translate(1166.162109 0)"/>
    <use xlink:href="#DejaVuSans-Bold-31" transform="translate(1231.347656 0)"/>
    <use xlink:href="#DejaVuSans-Bold-20" transform="translate(1300.927734 0)"/>
    <use xlink:href="#DejaVuSans-Bold-28" transform="translate(1335.742188 0)"/>
    <use xlink:href="#DejaVuSans-Bold-44" transform="translate(1381.445312 0)"/>
    <use xlink:href="#DejaVuSans-Bold-69" transform="translate(1464.453125 0)"/>
    <use xlink:href="#DejaVuSans-Bold-73" transform="translate(1498.730469 0)"/>
    <use xlink:href="#DejaVuSans-Bold-63" transform="translate(1558.251953 0)"/>
    <use xlink:href="#DejaVuSans-Bold-72" transform="translate(1617.529297 0)"/>
    <use xlink:href="#DejaVuSans-Bold-65" transform="translate(1666.845703 0)"/>
    <use xlink:href="#DejaVuSans-Bold-74" transform="translate(1734.667969 0)"/>
    <use xlink:href="#DejaVuSans-Bold-69" transform="translate(1782.470703 0)"/>
    <use xlink:href="#DejaVuSans-Bold-7a" transform="translate(1816.748047 0)"/>
    <use xlink:href="#DejaVuSans-Bold-65" transform="translate(1874.951172 0)"/>
    <use xlink:href="#DejaVuSans-Bold-64" transform="translate(1942.773438 0)"/>
    <use xlink:href="#DejaVuSans-Bold-29" transform="translate(2014.355469 0)"/>
    <use xlink:href="#DejaVuSans-Bold-20" transform="translate(2060.058594 0)"/>
    <use xlink:href="#DejaVuSans-Bold-7c" transform="translate(2094.873047 0)"/>
    <use xlink:href="#DejaVuSans-Bold-20" transform="translate(2131.396484 0)"/>
    <use xlink:href="#DejaVuSans-Bold-43" transform="translate(2166.210938 0)"/>
    <use xlink:href="#DejaVuSans-Bold-4d" transform="translate(2239.599609 0)"/>
    <use xlink:href="#DejaVuSans-Bold-55" transform="translate(2339.111328 0)"/>
    <use xlink:href="#DejaVuSans-Bold-2d" transform="translate(2420.3125 0)"/>
    <use xlink:href="#DejaVuSans-Bold-4e" transform="translate(2461.816406 0)"/>
    <use xlink:href="#DejaVuSans-Bold-65" transform="translate(2545.507812 0)"/>
    <use xlink:href="#DejaVuSans-Bold-74" transform="translate(2613.330078 0)"/>
    <use xlink:href="#DejaVuSans-Bold-20" transform="translate(2661.132812 0)"/>
    <use xlink:href="#DejaVuSans-Bold-28" transform="translate(2695.947266 0)"/>
    <use xlink:href="#DejaVuSans-Bold-41" transform="translate(2741.650391 0)"/>
    <use xlink:href="#DejaVuSans-Bold-6c" transform="translate(2819.042969 0)"/>
    <use xlink:href="#DejaVuSans-Bold-69" transform="translate(2853.320312 0)"/>
    <use xlink:href="#DejaVuSans-Bold-67" transform="translate(2887.597656 0)"/>
    <use xlink:href="#DejaVuSans-Bold-6e" transform="translate(2959.179688 0)"/>
    <use xlink:href="#DejaVuSans-Bold-6d" transform="translate(3030.371094 0)"/>
    <use xlink:href="#DejaVuSans-Bold-65" transform="translate(3134.570312 0)"/>
    <use xlink:href="#DejaVuSans-Bold-6e" transform="translate(3202.392578 0)"/>
    <use xlink:href="#DejaVuSans-Bold-74" transform="translate(3273.583984 0)"/>
    <use xlink:href="#DejaVuSans-Bold-20" transform="translate(3321.386719 0)"/>
    <use xlink:href="#DejaVuSans-Bold-2b" transform="translate(3356.201172 0)"/>
    <use xlink:href="#DejaVuSans-Bold-20" transform="translate(3439.990234 0)"/>
    <use xlink:href="#DejaVuSans-Bold-50" transform="translate(3474.804688 0)"/>
    <use xlink:href="#DejaVuSans-Bold-65" transform="translate(3548.095703 0)"/>
    <use xlink:href="#DejaVuSans-Bold-6e" transform="translate(3615.917969 0)"/>
    <use xlink:href="#DejaVuSans-Bold-61" transform="translate(3687.109375 0)"/>
    <use xlink:href="#DejaVuSans-Bold-6c" transform="translate(3754.589844 0)"/>
    <use xlink:href="#DejaVuSans-Bold-74" transform="translate(3788.867188 0)"/>
    <use xlink:href="#DejaVuSans-Bold-79" transform="translate(3836.669922 0)"/>
    <use xlink:href="#DejaVuSans-Bold-20" transform="translate(3901.855469 0)"/>
    <use xlink:href="#DejaVuSans-Bold-2b" transform="translate(3936.669922 0)"/>
    <use xlink:href="#DejaVuSans-Bold-20" transform="translate(4020.458984 0)"/>
    <use xlink:href="#DejaVuSans-Bold-4d" transform="translate(4055.273438 0)"/>
    <use xlink:href="#DejaVuSans-Bold-61" transform="translate(4154.785156 0)"/>
    <use xlink:href="#DejaVuSans-Bold-72" transform="translate(4222.265625 0)"/>
    <use xlink:href="#DejaVuSans-Bold-67" transform="translate(4271.582031 0)"/>
    <use xlink:href="#DejaVuSans-Bold-69" transform="translate(4343.164062 0)"/>
    <use xlink:href="#DejaVuSans-Bold-6e" transform="translate(4377.441406 0)"/>
    <use xlink:href="#DejaVuSans-Bold-29" transform="translate(4448.632812 0)"/>
   </g>
  </g>
 </g>
 <defs>
  <clipPath id="p94a8667649">
   <rect x="65.63" y="57.0062" width="566.575" height="333.0338"/>
  </clipPath>
 </defs>
</svg>
