<?xml version="1.0" encoding="utf-8" standalone="no"?>
<!DOCTYPE svg PUBLIC "-//W3C//DTD SVG 1.1//EN"
  "http://www.w3.org/Graphics/SVG/1.1/DTD/svg11.dtd">
<svg xmlns:xlink="http://www.w3.org/1999/xlink" width="648pt" height="432pt" viewBox="0 0 648 432" xmlns="http://www.w3.org/2000/svg" version="1.1">
 <metadata>
  <rdf:RDF xmlns:dc="http://purl.org/dc/elements/1.1/" xmlns:cc="http://creativecommons.org/ns#" xmlns:rdf="http://www.w3.org/1999/02/22-rdf-syntax-ns#">
   <cc:Work>
    <dc:type rdf:resource="http://purl.org/dc/dcmitype/StillImage"/>
    <dc:date>2025-07-31T05:18:19.876489</dc:date>
    <dc:format>image/svg+xml</dc:format>
    <dc:creator>
     <cc:Agent>
      <dc:title>Matplotlib v3.10.0, https://matplotlib.org/</dc:title>
     </cc:Agent>
    </dc:creator>
   </cc:Work>
  </rdf:RDF>
 </metadata>
 <defs>
  <style type="text/css">*{stroke-linejoin: round; stroke-linecap: butt}</style>
 </defs>
 <g id="figure_1">
  <g id="patch_1">
   <path d="M 0 432 
L 648 432 
L 648 0 
L 0 0 
z
" style="fill: #ffffff"/>
  </g>
  <g id="axes_1">
   <g id="patch_2">
    <path d="M 65.14 400.52 
L 620.168508 400.52 
L 620.168508 39.6 
L 65.14 39.6 
z
" style="fill: #eaeaf2"/>
   </g>
   <g id="matplotlib.axis_1">
    <g id="xtick_1">
     <g id="line2d_1">
      <path d="M 75.72205 400.52 
L 75.72205 39.6 
" clip-path="url(#pcb01ae9bea)" style="fill: none; stroke: #ffffff; stroke-width: 0.8; stroke-linecap: round"/>
     </g>
     <g id="text_1">
      <!-- 0 -->
      <g style="fill: #262626" transform="translate(71.2683 418.157812) scale(0.14 -0.14)">
       <defs>
        <path id="DejaVuSans-30" d="M 2034 4250 
Q 1547 4250 1301 3770 
Q 1056 3291 1056 2328 
Q 1056 1369 1301 889 
Q 1547 409 2034 409 
Q 2525 409 2770 889 
Q 3016 1369 3016 2328 
Q 3016 3291 2770 3770 
Q 2525 4250 2034 4250 
z
M 2034 4750 
Q 2819 4750 3233 4129 
Q 3647 3509 3647 2328 
Q 3647 1150 3233 529 
Q 2819 -91 2034 -91 
Q 1250 -91 836 529 
Q 422 1150 422 2328 
Q 422 3509 836 4129 
Q 1250 4750 2034 4750 
z
" transform="scale(0.015625)"/>
       </defs>
       <use xlink:href="#DejaVuSans-30"/>
      </g>
     </g>
    </g>
    <g id="xtick_2">
     <g id="line2d_2">
      <path d="M 604.824536 400.52 
L 604.824536 39.6 
" clip-path="url(#pcb01ae9bea)" style="fill: none; stroke: #ffffff; stroke-width: 0.8; stroke-linecap: round"/>
     </g>
     <g id="text_2">
      <!-- 2000000 -->
      <g style="fill: #262626" transform="translate(573.648286 418.157812) scale(0.14 -0.14)">
       <defs>
        <path id="DejaVuSans-32" d="M 1228 531 
L 3431 531 
L 3431 0 
L 469 0 
L 469 531 
Q 828 903 1448 1529 
Q 2069 2156 2228 2338 
Q 2531 2678 2651 2914 
Q 2772 3150 2772 3378 
Q 2772 3750 2511 3984 
Q 2250 4219 1831 4219 
Q 1534 4219 1204 4116 
Q 875 4013 500 3803 
L 500 4441 
Q 881 4594 1212 4672 
Q 1544 4750 1819 4750 
Q 2544 4750 2975 4387 
Q 3406 4025 3406 3419 
Q 3406 3131 3298 2873 
Q 3191 2616 2906 2266 
Q 2828 2175 2409 1742 
Q 1991 1309 1228 531 
z
" transform="scale(0.015625)"/>
       </defs>
       <use xlink:href="#DejaVuSans-32"/>
       <use xlink:href="#DejaVuSans-30" transform="translate(63.623047 0)"/>
       <use xlink:href="#DejaVuSans-30" transform="translate(127.246094 0)"/>
       <use xlink:href="#DejaVuSans-30" transform="translate(190.869141 0)"/>
       <use xlink:href="#DejaVuSans-30" transform="translate(254.492188 0)"/>
       <use xlink:href="#DejaVuSans-30" transform="translate(318.115234 0)"/>
       <use xlink:href="#DejaVuSans-30" transform="translate(381.738281 0)"/>
      </g>
     </g>
    </g>
   </g>
   <g id="matplotlib.axis_2">
    <g id="ytick_1">
     <g id="line2d_3">
      <path d="M 65.14 391.382785 
L 620.168508 391.382785 
" clip-path="url(#pcb01ae9bea)" style="fill: none; stroke: #ffffff; stroke-width: 0.8; stroke-linecap: round"/>
     </g>
     <g id="text_3">
      <!-- −1500 -->
      <g style="fill: #262626" transform="translate(10.778437 396.701691) scale(0.14 -0.14)">
       <defs>
        <path id="DejaVuSans-2212" d="M 678 2272 
L 4684 2272 
L 4684 1741 
L 678 1741 
L 678 2272 
z
" transform="scale(0.015625)"/>
        <path id="DejaVuSans-31" d="M 794 531 
L 1825 531 
L 1825 4091 
L 703 3866 
L 703 4441 
L 1819 4666 
L 2450 4666 
L 2450 531 
L 3481 531 
L 3481 0 
L 794 0 
L 794 531 
z
" transform="scale(0.015625)"/>
        <path id="DejaVuSans-35" d="M 691 4666 
L 3169 4666 
L 3169 4134 
L 1269 4134 
L 1269 2991 
Q 1406 3038 1543 3061 
Q 1681 3084 1819 3084 
Q 2600 3084 3056 2656 
Q 3513 2228 3513 1497 
Q 3513 744 3044 326 
Q 2575 -91 1722 -91 
Q 1428 -91 1123 -41 
Q 819 9 494 109 
L 494 744 
Q 775 591 1075 516 
Q 1375 441 1709 441 
Q 2250 441 2565 725 
Q 2881 1009 2881 1497 
Q 2881 1984 2565 2268 
Q 2250 2553 1709 2553 
Q 1456 2553 1204 2497 
Q 953 2441 691 2322 
L 691 4666 
z
" transform="scale(0.015625)"/>
       </defs>
       <use xlink:href="#DejaVuSans-2212"/>
       <use xlink:href="#DejaVuSans-31" transform="translate(83.789062 0)"/>
       <use xlink:href="#DejaVuSans-35" transform="translate(147.412109 0)"/>
       <use xlink:href="#DejaVuSans-30" transform="translate(211.035156 0)"/>
       <use xlink:href="#DejaVuSans-30" transform="translate(274.658203 0)"/>
      </g>
     </g>
    </g>
    <g id="ytick_2">
     <g id="line2d_4">
      <path d="M 65.14 322.853671 
L 620.168508 322.853671 
" clip-path="url(#pcb01ae9bea)" style="fill: none; stroke: #ffffff; stroke-width: 0.8; stroke-linecap: round"/>
     </g>
     <g id="text_4">
      <!-- −1200 -->
      <g style="fill: #262626" transform="translate(10.778437 328.172577) scale(0.14 -0.14)">
       <use xlink:href="#DejaVuSans-2212"/>
       <use xlink:href="#DejaVuSans-31" transform="translate(83.789062 0)"/>
       <use xlink:href="#DejaVuSans-32" transform="translate(147.412109 0)"/>
       <use xlink:href="#DejaVuSans-30" transform="translate(211.035156 0)"/>
       <use xlink:href="#DejaVuSans-30" transform="translate(274.658203 0)"/>
      </g>
     </g>
    </g>
    <g id="ytick_3">
     <g id="line2d_5">
      <path d="M 65.14 254.324557 
L 620.168508 254.324557 
" clip-path="url(#pcb01ae9bea)" style="fill: none; stroke: #ffffff; stroke-width: 0.8; stroke-linecap: round"/>
     </g>
     <g id="text_5">
      <!-- −900 -->
      <g style="fill: #262626" transform="translate(19.685937 259.643463) scale(0.14 -0.14)">
       <defs>
        <path id="DejaVuSans-39" d="M 703 97 
L 703 672 
Q 941 559 1184 500 
Q 1428 441 1663 441 
Q 2288 441 2617 861 
Q 2947 1281 2994 2138 
Q 2813 1869 2534 1725 
Q 2256 1581 1919 1581 
Q 1219 1581 811 2004 
Q 403 2428 403 3163 
Q 403 3881 828 4315 
Q 1253 4750 1959 4750 
Q 2769 4750 3195 4129 
Q 3622 3509 3622 2328 
Q 3622 1225 3098 567 
Q 2575 -91 1691 -91 
Q 1453 -91 1209 -44 
Q 966 3 703 97 
z
M 1959 2075 
Q 2384 2075 2632 2365 
Q 2881 2656 2881 3163 
Q 2881 3666 2632 3958 
Q 2384 4250 1959 4250 
Q 1534 4250 1286 3958 
Q 1038 3666 1038 3163 
Q 1038 2656 1286 2365 
Q 1534 2075 1959 2075 
z
" transform="scale(0.015625)"/>
       </defs>
       <use xlink:href="#DejaVuSans-2212"/>
       <use xlink:href="#DejaVuSans-39" transform="translate(83.789062 0)"/>
       <use xlink:href="#DejaVuSans-30" transform="translate(147.412109 0)"/>
       <use xlink:href="#DejaVuSans-30" transform="translate(211.035156 0)"/>
      </g>
     </g>
    </g>
    <g id="ytick_4">
     <g id="line2d_6">
      <path d="M 65.14 185.795443 
L 620.168508 185.795443 
" clip-path="url(#pcb01ae9bea)" style="fill: none; stroke: #ffffff; stroke-width: 0.8; stroke-linecap: round"/>
     </g>
     <g id="text_6">
      <!-- −600 -->
      <g style="fill: #262626" transform="translate(19.685937 191.114349) scale(0.14 -0.14)">
       <defs>
        <path id="DejaVuSans-36" d="M 2113 2584 
Q 1688 2584 1439 2293 
Q 1191 2003 1191 1497 
Q 1191 994 1439 701 
Q 1688 409 2113 409 
Q 2538 409 2786 701 
Q 3034 994 3034 1497 
Q 3034 2003 2786 2293 
Q 2538 2584 2113 2584 
z
M 3366 4563 
L 3366 3988 
Q 3128 4100 2886 4159 
Q 2644 4219 2406 4219 
Q 1781 4219 1451 3797 
Q 1122 3375 1075 2522 
Q 1259 2794 1537 2939 
Q 1816 3084 2150 3084 
Q 2853 3084 3261 2657 
Q 3669 2231 3669 1497 
Q 3669 778 3244 343 
Q 2819 -91 2113 -91 
Q 1303 -91 875 529 
Q 447 1150 447 2328 
Q 447 3434 972 4092 
Q 1497 4750 2381 4750 
Q 2619 4750 2861 4703 
Q 3103 4656 3366 4563 
z
" transform="scale(0.015625)"/>
       </defs>
       <use xlink:href="#DejaVuSans-2212"/>
       <use xlink:href="#DejaVuSans-36" transform="translate(83.789062 0)"/>
       <use xlink:href="#DejaVuSans-30" transform="translate(147.412109 0)"/>
       <use xlink:href="#DejaVuSans-30" transform="translate(211.035156 0)"/>
      </g>
     </g>
    </g>
    <g id="ytick_5">
     <g id="line2d_7">
      <path d="M 65.14 117.266329 
L 620.168508 117.266329 
" clip-path="url(#pcb01ae9bea)" style="fill: none; stroke: #ffffff; stroke-width: 0.8; stroke-linecap: round"/>
     </g>
     <g id="text_7">
      <!-- −300 -->
      <g style="fill: #262626" transform="translate(19.685937 122.585235) scale(0.14 -0.14)">
       <defs>
        <path id="DejaVuSans-33" d="M 2597 2516 
Q 3050 2419 3304 2112 
Q 3559 1806 3559 1356 
Q 3559 666 3084 287 
Q 2609 -91 1734 -91 
Q 1441 -91 1130 -33 
Q 819 25 488 141 
L 488 750 
Q 750 597 1062 519 
Q 1375 441 1716 441 
Q 2309 441 2620 675 
Q 2931 909 2931 1356 
Q 2931 1769 2642 2001 
Q 2353 2234 1838 2234 
L 1294 2234 
L 1294 2753 
L 1863 2753 
Q 2328 2753 2575 2939 
Q 2822 3125 2822 3475 
Q 2822 3834 2567 4026 
Q 2313 4219 1838 4219 
Q 1578 4219 1281 4162 
Q 984 4106 628 3988 
L 628 4550 
Q 988 4650 1302 4700 
Q 1616 4750 1894 4750 
Q 2613 4750 3031 4423 
Q 3450 4097 3450 3541 
Q 3450 3153 3228 2886 
Q 3006 2619 2597 2516 
z
" transform="scale(0.015625)"/>
       </defs>
       <use xlink:href="#DejaVuSans-2212"/>
       <use xlink:href="#DejaVuSans-33" transform="translate(83.789062 0)"/>
       <use xlink:href="#DejaVuSans-30" transform="translate(147.412109 0)"/>
       <use xlink:href="#DejaVuSans-30" transform="translate(211.035156 0)"/>
      </g>
     </g>
    </g>
    <g id="ytick_6">
     <g id="line2d_8">
      <path d="M 65.14 48.737215 
L 620.168508 48.737215 
" clip-path="url(#pcb01ae9bea)" style="fill: none; stroke: #ffffff; stroke-width: 0.8; stroke-linecap: round"/>
     </g>
     <g id="text_8">
      <!-- 0 -->
      <g style="fill: #262626" transform="translate(49.2325 54.056121) scale(0.14 -0.14)">
       <use xlink:href="#DejaVuSans-30"/>
      </g>
     </g>
    </g>
   </g>
   <g id="FillBetweenPolyCollection_1">
    <path d="M 75.72205 311.789713 
L 75.72205 338.584408 
L 81.140059 326.000078 
L 86.558069 341.285496 
L 91.976078 310.367288 
L 97.394088 321.746415 
L 102.812097 329.379096 
L 108.230106 320.575196 
L 113.648116 321.415138 
L 119.066125 301.912062 
L 124.484135 313.699757 
L 129.902144 295.42927 
L 135.320154 284.646148 
L 140.738163 288.057293 
L 146.156173 277.661043 
L 151.574182 267.900917 
L 156.992192 271.901361 
L 162.410201 251.363236 
L 167.828211 236.988301 
L 173.24622 248.840266 
L 178.664229 234.77693 
L 184.082239 222.366529 
L 189.500248 214.190192 
L 194.918258 212.463079 
L 200.336267 202.369082 
L 205.754277 195.741139 
L 211.172286 173.728243 
L 216.590296 149.28308 
L 222.008305 134.184871 
L 227.426315 116.304827 
L 232.844324 114.208568 
L 238.262334 107.717219 
L 243.680343 107.212018 
L 249.098352 136.128381 
L 254.516362 101.852963 
L 259.934371 100.184258 
L 265.352381 109.724435 
L 270.77039 95.833795 
L 276.1884 149.058327 
L 281.606409 140.493897 
L 287.024419 111.559375 
L 292.442428 117.08698 
L 297.860438 107.303124 
L 303.278447 108.972189 
L 308.696456 99.964458 
L 314.114466 106.283412 
L 319.532475 101.079451 
L 324.950485 99.81435 
L 330.368494 92.11954 
L 335.786504 96.690394 
L 341.204513 92.602235 
L 346.622523 99.934821 
L 352.040532 101.776671 
L 357.458542 93.736294 
L 362.876551 94.281616 
L 368.294561 91.620585 
L 373.71257 115.583696 
L 379.130579 150.476142 
L 384.548589 159.98943 
L 389.966598 142.424859 
L 395.384608 130.791717 
L 400.802617 107.392846 
L 406.220627 135.050855 
L 411.638636 115.768832 
L 417.056646 123.062179 
L 422.474655 116.100862 
L 427.892665 130.133517 
L 433.310674 123.134094 
L 438.728684 96.272433 
L 444.146693 98.371934 
L 449.564702 123.17129 
L 454.982712 147.076065 
L 460.400721 124.431709 
L 465.818731 94.334652 
L 471.23674 87.019357 
L 476.65475 92.398392 
L 482.072759 92.724539 
L 487.490769 94.279374 
L 492.908778 89.462254 
L 498.326788 94.3064 
L 503.744797 88.467761 
L 509.162806 190.212076 
L 514.580816 147.299023 
L 519.998825 151.06105 
L 525.416835 153.103457 
L 530.834844 115.059863 
L 536.252854 153.336668 
L 541.670863 168.051855 
L 547.088873 146.171094 
L 552.506882 173.450991 
L 557.924892 145.248655 
L 563.342901 158.543991 
L 568.760911 129.45509 
L 574.17892 151.659023 
L 579.596929 116.876985 
L 585.014939 116.440336 
L 590.432948 148.065748 
L 595.850958 115.786307 
L 601.268967 143.138181 
L 606.686977 134.21817 
L 612.104986 113.509368 
L 612.104986 79.939267 
L 612.104986 79.939267 
L 606.686977 67.332591 
L 601.268967 63.067285 
L 595.850958 76.128847 
L 590.432948 59.122158 
L 585.014939 75.800347 
L 579.596929 76.342607 
L 574.17892 66.264233 
L 568.760911 81.019808 
L 563.342901 64.388775 
L 557.924892 75.563082 
L 552.506882 58.513779 
L 547.088873 68.397619 
L 541.670863 58.062113 
L 536.252854 68.189347 
L 530.834844 76.51597 
L 525.416835 67.239681 
L 519.998825 64.770314 
L 514.580816 64.16842 
L 509.162806 53.942779 
L 503.744797 81.756417 
L 498.326788 76.936645 
L 492.908778 77.796537 
L 487.490769 82.442118 
L 482.072759 75.708599 
L 476.65475 78.66556 
L 471.23674 80.872231 
L 465.818731 84.509429 
L 460.400721 74.443356 
L 454.982712 71.008716 
L 449.564702 78.031579 
L 444.146693 84.467121 
L 438.728684 81.409919 
L 433.310674 77.880725 
L 427.892665 76.298217 
L 422.474655 82.9977 
L 417.056646 76.083248 
L 411.638636 81.729809 
L 406.220627 83.855971 
L 400.802617 87.239975 
L 395.384608 71.44097 
L 389.966598 73.63318 
L 384.548589 65.422525 
L 379.130579 75.229212 
L 373.71257 84.861895 
L 368.294561 84.106455 
L 362.876551 82.069186 
L 357.458542 85.363464 
L 352.040532 80.255879 
L 346.622523 81.528349 
L 341.204513 83.03679 
L 335.786504 81.001245 
L 330.368494 82.516046 
L 324.950485 86.620358 
L 319.532475 83.751596 
L 314.114466 86.923633 
L 308.696456 84.942224 
L 303.278447 83.036523 
L 297.860438 91.347324 
L 292.442428 94.032455 
L 287.024419 81.526355 
L 281.606409 72.118962 
L 276.1884 88.130371 
L 270.77039 85.838489 
L 265.352381 92.275081 
L 259.934371 90.953968 
L 254.516362 91.357497 
L 249.098352 74.677815 
L 243.680343 89.414475 
L 238.262334 89.824996 
L 232.844324 89.651116 
L 227.426315 101.770433 
L 222.008305 112.994858 
L 216.590296 96.438508 
L 211.172286 87.795525 
L 205.754277 96.491759 
L 200.336267 81.231558 
L 194.918258 73.787607 
L 189.500248 84.911713 
L 184.082239 92.051783 
L 178.664229 99.804586 
L 173.24622 100.475454 
L 167.828211 111.019928 
L 162.410201 113.382139 
L 156.992192 125.486173 
L 151.574182 115.420527 
L 146.156173 136.948785 
L 140.738163 174.367054 
L 135.320154 207.113176 
L 129.902144 221.818467 
L 124.484135 254.394923 
L 119.066125 250.040413 
L 113.648116 269.961909 
L 108.230106 279.232617 
L 102.812097 287.912407 
L 97.394088 302.166426 
L 91.976078 292.030942 
L 86.558069 309.489934 
L 81.140059 307.668855 
L 75.72205 311.789713 
z
" clip-path="url(#pcb01ae9bea)" style="fill: #0000ff; fill-opacity: 0.1"/>
   </g>
   <g id="line2d_9">
    <path d="M 75.72205 325.187061 
L 81.140059 316.834467 
L 86.558069 325.387715 
L 91.976078 301.199115 
L 97.394088 311.956421 
L 102.812097 308.645751 
L 108.230106 299.903906 
L 113.648116 295.688524 
L 119.066125 275.976237 
L 124.484135 284.04734 
L 129.902144 258.623869 
L 135.320154 245.879662 
L 140.738163 231.212173 
L 146.156173 207.304914 
L 151.574182 191.660722 
L 156.992192 198.693767 
L 162.410201 182.372688 
L 167.828211 174.004114 
L 173.24622 174.65786 
L 178.664229 167.290758 
L 184.082239 157.209156 
L 189.500248 149.550953 
L 194.918258 143.125343 
L 200.336267 141.80032 
L 205.754277 146.116449 
L 211.172286 130.761884 
L 216.590296 122.860794 
L 222.008305 123.589865 
L 227.426315 109.03763 
L 232.844324 101.929842 
L 238.262334 98.771108 
L 243.680343 98.313247 
L 249.098352 105.403098 
L 254.516362 96.60523 
L 259.934371 95.569113 
L 265.352381 100.999758 
L 270.77039 90.836142 
L 276.1884 118.594349 
L 281.606409 106.30643 
L 287.024419 96.542865 
L 292.442428 105.559718 
L 297.860438 99.325224 
L 303.278447 96.004356 
L 308.696456 92.453341 
L 314.114466 96.603522 
L 319.532475 92.415524 
L 324.950485 93.217354 
L 330.368494 87.317793 
L 335.786504 88.84582 
L 341.204513 87.819513 
L 346.622523 90.731585 
L 352.040532 91.016275 
L 357.458542 89.549879 
L 362.876551 88.175401 
L 368.294561 87.86352 
L 373.71257 100.222795 
L 379.130579 112.852677 
L 384.548589 112.705977 
L 389.966598 108.02902 
L 395.384608 101.116343 
L 400.802617 97.31641 
L 406.220627 109.453413 
L 411.638636 98.749321 
L 417.056646 99.572713 
L 422.474655 99.549281 
L 427.892665 103.215867 
L 433.310674 100.50741 
L 438.728684 88.841176 
L 444.146693 91.419528 
L 449.564702 100.601435 
L 454.982712 109.04239 
L 460.400721 99.437532 
L 465.818731 89.42204 
L 471.23674 83.945794 
L 476.65475 85.531976 
L 482.072759 84.216569 
L 487.490769 88.360746 
L 492.908778 83.629395 
L 498.326788 85.621522 
L 503.744797 85.112089 
L 509.162806 122.077428 
L 514.580816 105.733721 
L 519.998825 107.915682 
L 525.416835 110.171569 
L 530.834844 95.787917 
L 536.252854 110.763008 
L 541.670863 113.056984 
L 547.088873 107.284356 
L 552.506882 115.982385 
L 557.924892 110.405868 
L 563.342901 111.466383 
L 568.760911 105.237449 
L 574.17892 108.961628 
L 579.596929 96.609796 
L 585.014939 96.120341 
L 590.432948 103.593953 
L 595.850958 95.957577 
L 601.268967 103.102733 
L 606.686977 100.775381 
L 612.104986 96.724317 
" clip-path="url(#pcb01ae9bea)" style="fill: none; stroke: #0000ff; stroke-width: 2; stroke-linecap: round"/>
   </g>
   <g id="line2d_10">
    <path d="M 75.72205 320.364294 
L 81.140059 332.845102 
L 86.558069 303.151319 
L 91.976078 295.120359 
L 97.394088 316.170253 
L 102.812097 326.990914 
L 108.230106 332.699254 
L 113.648116 333.035448 
L 119.066125 308.711092 
L 124.484135 333.152339 
L 129.902144 305.576256 
L 135.320154 299.765546 
L 140.738163 288.262058 
L 146.156173 287.454815 
L 151.574182 265.833587 
L 156.992192 255.969114 
L 162.410201 241.796031 
L 167.828211 211.003949 
L 173.24622 241.289656 
L 178.664229 175.822566 
L 184.082239 169.942418 
L 189.500248 142.956988 
L 194.918258 125.040221 
L 200.336267 136.089059 
L 205.754277 128.716488 
L 211.172286 106.252398 
L 216.590296 120.53908 
L 222.008305 133.733006 
L 227.426315 115.423475 
L 232.844324 106.533299 
L 238.262334 112.051705 
L 243.680343 96.822903 
L 249.098352 88.048516 
L 254.516362 89.833143 
L 259.934371 96.156294 
L 265.352381 100.740249 
L 270.77039 98.55178 
L 276.1884 85.18257 
L 281.606409 85.508101 
L 287.024419 92.54393 
L 292.442428 99.833761 
L 297.860438 97.204604 
L 303.278447 94.344913 
L 308.696456 86.420218 
L 314.114466 94.401754 
L 319.532475 105.822104 
L 324.950485 98.943398 
L 330.368494 86.195025 
L 335.786504 91.391011 
L 341.204513 88.211098 
L 346.622523 77.088458 
L 352.040532 85.055425 
L 357.458542 83.805419 
L 362.876551 88.809874 
L 368.294561 94.417816 
L 373.71257 126.289038 
L 379.130579 184.6162 
L 384.548589 206.042615 
L 389.966598 176.225796 
L 395.384608 159.567301 
L 400.802617 107.429568 
L 406.220627 158.839997 
L 411.638636 132.605779 
L 417.056646 146.323612 
L 422.474655 132.331654 
L 427.892665 156.235681 
L 433.310674 143.06557 
L 438.728684 98.328566 
L 444.146693 95.632682 
L 449.564702 144.429013 
L 454.982712 87.86096 
L 460.400721 85.572267 
L 465.818731 90.418191 
L 471.23674 83.763429 
L 476.65475 81.329189 
L 482.072759 83.099622 
L 487.490769 81.149672 
L 492.908778 74.559367 
L 498.326788 84.179911 
L 503.744797 80.309217 
L 509.162806 257.517557 
L 514.580816 188.021219 
L 519.998825 193.886785 
L 525.416835 195.851818 
L 530.834844 133.21842 
L 536.252854 195.651038 
L 541.670863 222.547239 
L 547.088873 184.778863 
L 552.506882 230.104248 
L 557.924892 178.879461 
L 563.342901 205.223913 
L 568.760911 148.12604 
L 574.17892 193.727477 
L 579.596929 135.67586 
L 585.014939 135.555361 
L 590.432948 82.855027 
L 595.850958 85.168852 
L 601.268967 78.237247 
L 606.686977 79.836655 
L 612.104986 85.643107 
" clip-path="url(#pcb01ae9bea)" style="fill: none; stroke: #008000; stroke-opacity: 0.27; stroke-width: 1.25; stroke-linecap: round"/>
   </g>
   <g id="line2d_11">
    <path d="M 75.72205 304.453288 
L 81.140059 307.60863 
L 86.558069 309.892716 
L 91.976078 299.897152 
L 97.394088 318.08709 
L 102.812097 310.55967 
L 108.230106 313.160306 
L 113.648116 293.715997 
L 119.066125 276.627056 
L 124.484135 254.790456 
L 129.902144 222.131583 
L 135.320154 205.769663 
L 140.738163 184.897539 
L 146.156173 159.986454 
L 151.574182 130.357403 
L 156.992192 116.189975 
L 162.410201 121.05319 
L 167.828211 121.62054 
L 173.24622 115.182171 
L 178.664229 110.344594 
L 184.082239 111.109956 
L 189.500248 120.325685 
L 194.918258 99.183808 
L 200.336267 109.379251 
L 205.754277 144.879241 
L 211.172286 125.922298 
L 216.590296 121.140268 
L 222.008305 116.276723 
L 227.426315 104.037062 
L 232.844324 120.210224 
L 238.262334 97.807361 
L 243.680343 100.803219 
L 249.098352 95.017943 
L 254.516362 99.444314 
L 259.934371 93.532417 
L 265.352381 97.658816 
L 270.77039 86.16426 
L 276.1884 127.979997 
L 281.606409 174.478199 
L 287.024419 123.125336 
L 292.442428 110.63237 
L 297.860438 114.470909 
L 303.278447 87.563596 
L 308.696456 84.593152 
L 314.114466 114.728727 
L 319.532475 85.586171 
L 324.950485 99.70352 
L 330.368494 85.842295 
L 335.786504 84.854648 
L 341.204513 95.11801 
L 346.622523 95.949379 
L 352.040532 88.224118 
L 357.458542 91.317285 
L 362.876551 93.818538 
L 368.294561 86.165532 
L 373.71257 88.493621 
L 379.130579 85.905168 
L 384.548589 90.976539 
L 389.966598 93.78051 
L 395.384608 84.893888 
L 400.802617 92.850404 
L 406.220627 92.768468 
L 411.638636 88.05753 
L 417.056646 84.414596 
L 422.474655 90.470646 
L 427.892665 90.729955 
L 433.310674 102.065085 
L 438.728684 89.322404 
L 444.146693 91.403523 
L 449.564702 90.006968 
L 454.982712 100.63367 
L 460.400721 87.12065 
L 465.818731 86.899839 
L 471.23674 82.213729 
L 476.65475 86.523088 
L 482.072759 87.474841 
L 487.490769 96.881229 
L 492.908778 89.78231 
L 498.326788 91.805994 
L 503.744797 90.622333 
L 509.162806 79.2062 
L 514.580816 80.148115 
L 519.998825 88.326 
L 525.416835 89.993169 
L 530.834844 89.915268 
L 536.252854 95.922148 
L 541.670863 88.753971 
L 547.088873 85.701259 
L 552.506882 86.809201 
L 557.924892 94.798418 
L 563.342901 84.313074 
L 568.760911 116.251343 
L 574.17892 86.772811 
L 579.596929 92.864983 
L 585.014939 89.9879 
L 590.432948 192.506523 
L 595.850958 135.436402 
L 601.268967 182.523417 
L 606.686977 167.460339 
L 612.104986 127.651111 
" clip-path="url(#pcb01ae9bea)" style="fill: none; stroke: #008000; stroke-opacity: 0.27; stroke-width: 1.25; stroke-linecap: round"/>
   </g>
   <g id="line2d_12">
    <path d="M 75.72205 339.730889 
L 81.140059 320.343156 
L 86.558069 332.914205 
L 91.976078 315.141272 
L 97.394088 321.592974 
L 102.812097 316.026989 
L 108.230106 292.164534 
L 113.648116 269.510223 
L 119.066125 237.335521 
L 124.484135 258.378187 
L 129.902144 246.373516 
L 135.320154 230.702417 
L 140.738163 199.034403 
L 146.156173 160.481076 
L 151.574182 139.286632 
L 156.992192 167.257463 
L 162.410201 160.669817 
L 167.828211 141.774295 
L 173.24622 134.528501 
L 178.664229 145.052227 
L 184.082239 125.188317 
L 189.500248 113.626836 
L 194.918258 112.839654 
L 200.336267 119.64811 
L 205.754277 115.608812 
L 211.172286 107.994921 
L 216.590296 112.741161 
L 222.008305 121.023535 
L 227.426315 115.443321 
L 232.844324 105.132803 
L 238.262334 95.048625 
L 243.680343 113.92533 
L 249.098352 95.7667 
L 254.516362 105.050697 
L 259.934371 103.59296 
L 265.352381 115.117018 
L 270.77039 94.876516 
L 276.1884 120.398636 
L 281.606409 89.087781 
L 287.024419 97.916389 
L 292.442428 99.152401 
L 297.860438 99.112919 
L 303.278447 97.392772 
L 308.696456 97.985399 
L 314.114466 96.904762 
L 319.532475 99.658043 
L 324.950485 88.167919 
L 330.368494 91.336951 
L 335.786504 103.038407 
L 341.204513 82.458371 
L 346.622523 104.531701 
L 352.040532 112.176658 
L 357.458542 94.475605 
L 362.876551 95.599609 
L 368.294561 88.976728 
L 373.71257 108.802674 
L 379.130579 116.401264 
L 384.548589 102.593293 
L 389.966598 97.850877 
L 395.384608 94.946679 
L 400.802617 91.28301 
L 406.220627 97.865103 
L 411.638636 88.777012 
L 417.056646 89.608361 
L 422.474655 92.417922 
L 427.892665 93.009089 
L 433.310674 93.731384 
L 438.728684 95.145401 
L 444.146693 101.709462 
L 449.564702 86.616018 
L 454.982712 90.866794 
L 460.400721 93.422093 
L 465.818731 89.629639 
L 471.23674 88.40101 
L 476.65475 96.343107 
L 482.072759 98.467896 
L 487.490769 93.606126 
L 492.908778 90.067566 
L 498.326788 98.411947 
L 503.744797 84.43463 
L 509.162806 88.476953 
L 514.580816 96.448616 
L 519.998825 92.311357 
L 525.416835 92.913105 
L 530.834844 82.588748 
L 536.252854 86.708028 
L 541.670863 92.775531 
L 547.088873 90.849849 
L 552.506882 79.517046 
L 557.924892 91.742213 
L 563.342901 91.385176 
L 568.760911 87.662422 
L 574.17892 96.430905 
L 579.596929 85.485935 
L 585.014939 93.145977 
L 590.432948 79.353573 
L 595.850958 83.200105 
L 601.268967 92.922974 
L 606.686977 84.176583 
L 612.104986 101.429499 
" clip-path="url(#pcb01ae9bea)" style="fill: none; stroke: #008000; stroke-opacity: 0.27; stroke-width: 1.25; stroke-linecap: round"/>
   </g>
   <g id="line2d_13">
    <path d="M 75.72205 321.416205 
L 81.140059 309.10927 
L 86.558069 343.347491 
L 91.976078 307.021158 
L 97.394088 293.860524 
L 102.812097 268.627562 
L 108.230106 273.986537 
L 113.648116 266.769473 
L 119.066125 258.799365 
L 124.484135 271.904365 
L 129.902144 220.242406 
L 135.320154 209.362261 
L 140.738163 173.042927 
L 146.156173 131.245361 
L 151.574182 121.191667 
L 156.992192 143.015042 
L 162.410201 105.409053 
L 167.828211 115.50134 
L 173.24622 97.913562 
L 178.664229 111.881893 
L 184.082239 101.085049 
L 189.500248 95.618776 
L 194.918258 98.169851 
L 200.336267 85.480756 
L 205.754277 100.437739 
L 211.172286 98.811159 
L 216.590296 89.446983 
L 222.008305 109.34625 
L 227.426315 97.176797 
L 232.844324 83.989919 
L 238.262334 85.198337 
L 243.680343 88.303283 
L 249.098352 82.139801 
L 254.516362 93.284841 
L 259.934371 89.45247 
L 265.352381 103.316712 
L 270.77039 88.320741 
L 276.1884 89.794924 
L 281.606409 88.697577 
L 287.024419 92.180163 
L 292.442428 92.660015 
L 297.860438 91.865948 
L 303.278447 119.425244 
L 308.696456 88.941624 
L 314.114466 87.183571 
L 319.532475 86.210977 
L 324.950485 96.403327 
L 330.368494 79.726829 
L 335.786504 83.615266 
L 341.204513 82.814669 
L 346.622523 89.664404 
L 352.040532 82.481333 
L 357.458542 85.415281 
L 362.876551 82.935851 
L 368.294561 83.193689 
L 373.71257 85.12041 
L 379.130579 85.564385 
L 384.548589 82.873638 
L 389.966598 85.998851 
L 395.384608 87.286431 
L 400.802617 110.718908 
L 406.220627 108.935368 
L 411.638636 92.952685 
L 417.056646 86.502722 
L 422.474655 87.763779 
L 427.892665 94.825608 
L 433.310674 80.579413 
L 438.728684 78.084663 
L 444.146693 81.615877 
L 449.564702 82.820879 
L 454.982712 184.122465 
L 460.400721 148.890975 
L 465.818731 97.578022 
L 471.23674 85.925316 
L 476.65475 87.704528 
L 482.072759 78.530617 
L 487.490769 84.201334 
L 492.908778 82.950185 
L 498.326788 79.977905 
L 503.744797 86.195515 
L 509.162806 83.591793 
L 514.580816 80.994075 
L 519.998825 82.823866 
L 525.416835 84.332987 
L 530.834844 92.884331 
L 536.252854 87.955317 
L 541.670863 84.189386 
L 547.088873 83.053847 
L 552.506882 83.577043 
L 557.924892 83.189381 
L 563.342901 82.361978 
L 568.760911 85.846973 
L 574.17892 80.169568 
L 579.596929 77.542723 
L 585.014939 79.724107 
L 590.432948 81.130982 
L 595.850958 88.778977 
L 601.268967 81.039321 
L 606.686977 84.401602 
L 612.104986 82.728315 
" clip-path="url(#pcb01ae9bea)" style="fill: none; stroke: #008000; stroke-opacity: 0.27; stroke-width: 1.25; stroke-linecap: round"/>
   </g>
   <g id="line2d_14">
    <path d="M 75.72205 339.970628 
L 81.140059 314.266177 
L 86.558069 337.632845 
L 91.976078 288.815633 
L 97.394088 310.071264 
L 102.812097 321.023622 
L 108.230106 287.508901 
L 113.648116 315.411479 
L 119.066125 298.408152 
L 124.484135 302.011354 
L 129.902144 298.795582 
L 135.320154 283.798422 
L 140.738163 310.82394 
L 146.156173 297.356864 
L 151.574182 301.634321 
L 156.992192 311.037243 
L 162.410201 282.935348 
L 167.828211 280.120448 
L 173.24622 284.375407 
L 178.664229 293.352509 
L 184.082239 278.72004 
L 189.500248 275.226479 
L 194.918258 280.393179 
L 200.336267 258.404423 
L 205.754277 240.939966 
L 211.172286 214.828643 
L 216.590296 170.436478 
L 222.008305 137.56981 
L 227.426315 113.107495 
L 232.844324 93.782966 
L 238.262334 103.74951 
L 243.680343 91.711498 
L 249.098352 166.042532 
L 254.516362 95.413154 
L 259.934371 95.111424 
L 265.352381 88.165997 
L 270.77039 86.267416 
L 276.1884 169.61562 
L 281.606409 93.76049 
L 287.024419 76.948506 
L 292.442428 125.52004 
L 297.860438 93.971743 
L 303.278447 81.295256 
L 308.696456 104.326312 
L 314.114466 89.798799 
L 319.532475 84.800325 
L 324.950485 82.868605 
L 330.368494 93.487865 
L 335.786504 81.329766 
L 341.204513 90.495415 
L 346.622523 86.423983 
L 352.040532 87.143842 
L 357.458542 92.735806 
L 362.876551 79.713133 
L 368.294561 86.563836 
L 373.71257 92.408234 
L 379.130579 91.776366 
L 384.548589 81.043803 
L 389.966598 86.289064 
L 395.384608 78.887417 
L 400.802617 84.300161 
L 406.220627 88.858127 
L 411.638636 91.353597 
L 417.056646 91.014277 
L 422.474655 94.762404 
L 427.892665 81.279003 
L 433.310674 83.095596 
L 438.728684 83.324846 
L 444.146693 86.736094 
L 449.564702 99.134296 
L 454.982712 81.728062 
L 460.400721 82.181675 
L 465.818731 82.584512 
L 471.23674 79.425487 
L 476.65475 75.759971 
L 482.072759 73.509868 
L 487.490769 85.96537 
L 492.908778 80.78755 
L 498.326788 73.731855 
L 503.744797 83.998749 
L 509.162806 101.594635 
L 514.580816 83.056583 
L 519.998825 82.230401 
L 525.416835 87.766766 
L 530.834844 80.332817 
L 536.252854 87.578507 
L 541.670863 77.018792 
L 547.088873 92.037964 
L 552.506882 99.904387 
L 557.924892 103.419868 
L 563.342901 94.047774 
L 568.760911 88.300467 
L 574.17892 87.707377 
L 579.596929 91.479479 
L 585.014939 82.188363 
L 590.432948 82.123661 
L 595.850958 87.20355 
L 601.268967 80.790708 
L 606.686977 88.001725 
L 612.104986 86.169554 
" clip-path="url(#pcb01ae9bea)" style="fill: none; stroke: #008000; stroke-opacity: 0.27; stroke-width: 1.25; stroke-linecap: round"/>
   </g>
   <g id="line2d_15">
    <path d="M 75.72205 48.737215 
L 81.140059 57.195303 
L 86.558069 75.459207 
L 91.976078 98.180596 
L 97.394088 115.248812 
L 102.812097 151.069181 
L 108.230106 197.696757 
L 113.648116 219.85763 
L 119.066125 251.861056 
L 124.484135 273.69921 
L 129.902144 297.352265 
L 135.320154 316.90086 
L 140.738163 314.95136 
L 146.156173 314.460981 
L 151.574182 309.729897 
L 156.992192 315.652906 
L 162.410201 319.235664 
L 167.828211 316.66122 
L 173.24622 321.81086 
L 178.664229 313.169064 
L 184.082239 309.596845 
L 189.500248 310.735552 
L 194.918258 310.49635 
L 200.336267 316.583649 
L 205.754277 317.692598 
L 211.172286 319.882203 
L 216.590296 315.90575 
L 222.008305 325.950988 
L 227.426315 318.920439 
L 232.844324 320.408568 
L 238.262334 324.585159 
L 243.680343 328.615325 
L 249.098352 337.346744 
L 254.516362 339.051945 
L 259.934371 341.93347 
L 265.352381 343.673043 
L 270.77039 340.398736 
L 276.1884 352.982996 
L 281.606409 356.964692 
L 287.024419 355.14174 
L 292.442428 357.662008 
L 297.860438 356.326873 
L 303.278447 356.684314 
L 308.696456 364.42233 
L 314.114466 366.651737 
L 319.532475 360.803408 
L 324.950485 362.683522 
L 330.368494 363.97379 
L 335.786504 364.22577 
L 341.204513 359.601842 
L 346.622523 368.053916 
L 352.040532 368.881905 
L 357.458542 368.698119 
L 362.876551 369.540689 
L 368.294561 368.903088 
L 373.71257 372.301204 
L 379.130579 376.546066 
L 384.548589 379.369799 
L 389.966598 375.851661 
L 395.384608 373.239928 
L 400.802617 377.961124 
L 406.220627 378.415913 
L 411.638636 375.391442 
L 417.056646 376.170938 
L 422.474655 370.570889 
L 427.892665 363.657 
L 433.310674 360.920121 
L 438.728684 364.199546 
L 444.146693 373.514863 
L 449.564702 371.199538 
L 454.982712 388.771193 
L 460.400721 387.656468 
L 465.818731 384.457493 
L 471.23674 379.574712 
L 476.65475 382.499722 
L 482.072759 378.715002 
L 487.490769 383.414439 
L 492.908778 377.373472 
L 498.326788 378.097063 
L 503.744797 375.488154 
L 509.162806 388.035363 
L 514.580816 387.022587 
L 519.998825 382.23659 
L 525.416835 379.81035 
L 530.834844 373.423814 
L 536.252854 378.782061 
L 541.670863 381.54385 
L 547.088873 389.584247 
L 552.506882 384.423626 
L 557.924892 384.774588 
L 563.342901 382.139508 
L 568.760911 387.524884 
L 574.17892 386.598689 
L 579.596929 384.736301 
L 585.014939 387.63453 
L 590.432948 389.433065 
L 595.850958 388.48434 
L 601.268967 389.759039 
L 606.686977 391.382785 
L 612.104986 388.280905 
" clip-path="url(#pcb01ae9bea)" style="fill: none; stroke: #7b3ab8; stroke-width: 1.5; stroke-linecap: round"/>
   </g>
   <g id="patch_3">
    <path d="M 65.14 400.52 
L 65.14 39.6 
" style="fill: none; stroke: #ffffff; stroke-width: 0.8; stroke-linejoin: miter; stroke-linecap: square"/>
   </g>
   <g id="patch_4">
    <path d="M 620.168508 400.52 
L 620.168508 39.6 
" style="fill: none; stroke: #ffffff; stroke-width: 0.8; stroke-linejoin: miter; stroke-linecap: square"/>
   </g>
   <g id="patch_5">
    <path d="M 65.14 400.52 
L 620.168508 400.52 
" style="fill: none; stroke: #ffffff; stroke-width: 0.8; stroke-linejoin: miter; stroke-linecap: square"/>
   </g>
   <g id="patch_6">
    <path d="M 65.14 39.6 
L 620.168508 39.6 
" style="fill: none; stroke: #ffffff; stroke-width: 0.8; stroke-linejoin: miter; stroke-linecap: square"/>
   </g>
  </g>
  <g id="text_9">
   <!-- Pendulum-v1 (Discretized) | CMU-Net (Alignment + Penalty) -->
   <g style="fill: #262626" transform="translate(19.109531 22.395938) scale(0.18 -0.18)">
    <defs>
     <path id="DejaVuSans-Bold-50" d="M 588 4666 
L 2584 4666 
Q 3475 4666 3951 4270 
Q 4428 3875 4428 3144 
Q 4428 2409 3951 2014 
Q 3475 1619 2584 1619 
L 1791 1619 
L 1791 0 
L 588 0 
L 588 4666 
z
M 1791 3794 
L 1791 2491 
L 2456 2491 
Q 2806 2491 2997 2661 
Q 3188 2831 3188 3144 
Q 3188 3456 2997 3625 
Q 2806 3794 2456 3794 
L 1791 3794 
z
" transform="scale(0.015625)"/>
     <path id="DejaVuSans-Bold-65" d="M 4031 1759 
L 4031 1441 
L 1416 1441 
Q 1456 1047 1700 850 
Q 1944 653 2381 653 
Q 2734 653 3104 758 
Q 3475 863 3866 1075 
L 3866 213 
Q 3469 63 3072 -14 
Q 2675 -91 2278 -91 
Q 1328 -91 801 392 
Q 275 875 275 1747 
Q 275 2603 792 3093 
Q 1309 3584 2216 3584 
Q 3041 3584 3536 3087 
Q 4031 2591 4031 1759 
z
M 2881 2131 
Q 2881 2450 2695 2645 
Q 2509 2841 2209 2841 
Q 1884 2841 1681 2658 
Q 1478 2475 1428 2131 
L 2881 2131 
z
" transform="scale(0.015625)"/>
     <path id="DejaVuSans-Bold-6e" d="M 4056 2131 
L 4056 0 
L 2931 0 
L 2931 347 
L 2931 1631 
Q 2931 2084 2911 2256 
Q 2891 2428 2841 2509 
Q 2775 2619 2662 2680 
Q 2550 2741 2406 2741 
Q 2056 2741 1856 2470 
Q 1656 2200 1656 1722 
L 1656 0 
L 538 0 
L 538 3500 
L 1656 3500 
L 1656 2988 
Q 1909 3294 2193 3439 
Q 2478 3584 2822 3584 
Q 3428 3584 3742 3212 
Q 4056 2841 4056 2131 
z
" transform="scale(0.015625)"/>
     <path id="DejaVuSans-Bold-64" d="M 2919 2988 
L 2919 4863 
L 4044 4863 
L 4044 0 
L 2919 0 
L 2919 506 
Q 2688 197 2409 53 
Q 2131 -91 1766 -91 
Q 1119 -91 703 423 
Q 288 938 288 1747 
Q 288 2556 703 3070 
Q 1119 3584 1766 3584 
Q 2128 3584 2408 3439 
Q 2688 3294 2919 2988 
z
M 2181 722 
Q 2541 722 2730 984 
Q 2919 1247 2919 1747 
Q 2919 2247 2730 2509 
Q 2541 2772 2181 2772 
Q 1825 2772 1636 2509 
Q 1447 2247 1447 1747 
Q 1447 1247 1636 984 
Q 1825 722 2181 722 
z
" transform="scale(0.015625)"/>
     <path id="DejaVuSans-Bold-75" d="M 500 1363 
L 500 3500 
L 1625 3500 
L 1625 3150 
Q 1625 2866 1622 2436 
Q 1619 2006 1619 1863 
Q 1619 1441 1641 1255 
Q 1663 1069 1716 984 
Q 1784 875 1895 815 
Q 2006 756 2150 756 
Q 2500 756 2700 1025 
Q 2900 1294 2900 1772 
L 2900 3500 
L 4019 3500 
L 4019 0 
L 2900 0 
L 2900 506 
Q 2647 200 2364 54 
Q 2081 -91 1741 -91 
Q 1134 -91 817 281 
Q 500 653 500 1363 
z
" transform="scale(0.015625)"/>
     <path id="DejaVuSans-Bold-6c" d="M 538 4863 
L 1656 4863 
L 1656 0 
L 538 0 
L 538 4863 
z
" transform="scale(0.015625)"/>
     <path id="DejaVuSans-Bold-6d" d="M 3781 2919 
Q 3994 3244 4286 3414 
Q 4578 3584 4928 3584 
Q 5531 3584 5847 3212 
Q 6163 2841 6163 2131 
L 6163 0 
L 5038 0 
L 5038 1825 
Q 5041 1866 5042 1909 
Q 5044 1953 5044 2034 
Q 5044 2406 4934 2573 
Q 4825 2741 4581 2741 
Q 4263 2741 4089 2478 
Q 3916 2216 3909 1719 
L 3909 0 
L 2784 0 
L 2784 1825 
Q 2784 2406 2684 2573 
Q 2584 2741 2328 2741 
Q 2006 2741 1831 2477 
Q 1656 2213 1656 1722 
L 1656 0 
L 531 0 
L 531 3500 
L 1656 3500 
L 1656 2988 
Q 1863 3284 2130 3434 
Q 2397 3584 2719 3584 
Q 3081 3584 3359 3409 
Q 3638 3234 3781 2919 
z
" transform="scale(0.015625)"/>
     <path id="DejaVuSans-Bold-2d" d="M 347 2297 
L 2309 2297 
L 2309 1388 
L 347 1388 
L 347 2297 
z
" transform="scale(0.015625)"/>
     <path id="DejaVuSans-Bold-76" d="M 97 3500 
L 1216 3500 
L 2088 1081 
L 2956 3500 
L 4078 3500 
L 2700 0 
L 1472 0 
L 97 3500 
z
" transform="scale(0.015625)"/>
     <path id="DejaVuSans-Bold-31" d="M 750 831 
L 1813 831 
L 1813 3847 
L 722 3622 
L 722 4441 
L 1806 4666 
L 2950 4666 
L 2950 831 
L 4013 831 
L 4013 0 
L 750 0 
L 750 831 
z
" transform="scale(0.015625)"/>
     <path id="DejaVuSans-Bold-20" transform="scale(0.015625)"/>
     <path id="DejaVuSans-Bold-28" d="M 2413 -844 
L 1484 -844 
Q 1006 -72 778 623 
Q 550 1319 550 2003 
Q 550 2688 779 3389 
Q 1009 4091 1484 4856 
L 2413 4856 
Q 2013 4116 1813 3408 
Q 1613 2700 1613 2009 
Q 1613 1319 1811 609 
Q 2009 -100 2413 -844 
z
" transform="scale(0.015625)"/>
     <path id="DejaVuSans-Bold-44" d="M 1791 3756 
L 1791 909 
L 2222 909 
Q 2959 909 3348 1275 
Q 3738 1641 3738 2338 
Q 3738 3031 3350 3393 
Q 2963 3756 2222 3756 
L 1791 3756 
z
M 588 4666 
L 1856 4666 
Q 2919 4666 3439 4514 
Q 3959 4363 4331 4000 
Q 4659 3684 4818 3271 
Q 4978 2859 4978 2338 
Q 4978 1809 4818 1395 
Q 4659 981 4331 666 
Q 3956 303 3431 151 
Q 2906 0 1856 0 
L 588 0 
L 588 4666 
z
" transform="scale(0.015625)"/>
     <path id="DejaVuSans-Bold-69" d="M 538 3500 
L 1656 3500 
L 1656 0 
L 538 0 
L 538 3500 
z
M 538 4863 
L 1656 4863 
L 1656 3950 
L 538 3950 
L 538 4863 
z
" transform="scale(0.015625)"/>
     <path id="DejaVuSans-Bold-73" d="M 3272 3391 
L 3272 2541 
Q 2913 2691 2578 2766 
Q 2244 2841 1947 2841 
Q 1628 2841 1473 2761 
Q 1319 2681 1319 2516 
Q 1319 2381 1436 2309 
Q 1553 2238 1856 2203 
L 2053 2175 
Q 2913 2066 3209 1816 
Q 3506 1566 3506 1031 
Q 3506 472 3093 190 
Q 2681 -91 1863 -91 
Q 1516 -91 1145 -36 
Q 775 19 384 128 
L 384 978 
Q 719 816 1070 734 
Q 1422 653 1784 653 
Q 2113 653 2278 743 
Q 2444 834 2444 1013 
Q 2444 1163 2330 1236 
Q 2216 1309 1875 1350 
L 1678 1375 
Q 931 1469 631 1722 
Q 331 1975 331 2491 
Q 331 3047 712 3315 
Q 1094 3584 1881 3584 
Q 2191 3584 2531 3537 
Q 2872 3491 3272 3391 
z
" transform="scale(0.015625)"/>
     <path id="DejaVuSans-Bold-63" d="M 3366 3391 
L 3366 2478 
Q 3138 2634 2908 2709 
Q 2678 2784 2431 2784 
Q 1963 2784 1702 2511 
Q 1441 2238 1441 1747 
Q 1441 1256 1702 982 
Q 1963 709 2431 709 
Q 2694 709 2930 787 
Q 3166 866 3366 1019 
L 3366 103 
Q 3103 6 2833 -42 
Q 2563 -91 2291 -91 
Q 1344 -91 809 395 
Q 275 881 275 1747 
Q 275 2613 809 3098 
Q 1344 3584 2291 3584 
Q 2566 3584 2833 3536 
Q 3100 3488 3366 3391 
z
" transform="scale(0.015625)"/>
     <path id="DejaVuSans-Bold-72" d="M 3138 2547 
Q 2991 2616 2845 2648 
Q 2700 2681 2553 2681 
Q 2122 2681 1889 2404 
Q 1656 2128 1656 1613 
L 1656 0 
L 538 0 
L 538 3500 
L 1656 3500 
L 1656 2925 
Q 1872 3269 2151 3426 
Q 2431 3584 2822 3584 
Q 2878 3584 2943 3579 
Q 3009 3575 3134 3559 
L 3138 2547 
z
" transform="scale(0.015625)"/>
     <path id="DejaVuSans-Bold-74" d="M 1759 4494 
L 1759 3500 
L 2913 3500 
L 2913 2700 
L 1759 2700 
L 1759 1216 
Q 1759 972 1856 886 
Q 1953 800 2241 800 
L 2816 800 
L 2816 0 
L 1856 0 
Q 1194 0 917 276 
Q 641 553 641 1216 
L 641 2700 
L 84 2700 
L 84 3500 
L 641 3500 
L 641 4494 
L 1759 4494 
z
" transform="scale(0.015625)"/>
     <path id="DejaVuSans-Bold-7a" d="M 366 3500 
L 3419 3500 
L 3419 2719 
L 1575 800 
L 3419 800 
L 3419 0 
L 288 0 
L 288 781 
L 2131 2700 
L 366 2700 
L 366 3500 
z
" transform="scale(0.015625)"/>
     <path id="DejaVuSans-Bold-29" d="M 513 -844 
Q 913 -100 1113 609 
Q 1313 1319 1313 2009 
Q 1313 2700 1113 3408 
Q 913 4116 513 4856 
L 1441 4856 
Q 1916 4091 2145 3389 
Q 2375 2688 2375 2003 
Q 2375 1319 2147 623 
Q 1919 -72 1441 -844 
L 513 -844 
z
" transform="scale(0.015625)"/>
     <path id="DejaVuSans-Bold-7c" d="M 1522 4891 
L 1522 -1509 
L 813 -1509 
L 813 4891 
L 1522 4891 
z
" transform="scale(0.015625)"/>
     <path id="DejaVuSans-Bold-43" d="M 4288 256 
Q 3956 84 3597 -3 
Q 3238 -91 2847 -91 
Q 1681 -91 1000 561 
Q 319 1213 319 2328 
Q 319 3447 1000 4098 
Q 1681 4750 2847 4750 
Q 3238 4750 3597 4662 
Q 3956 4575 4288 4403 
L 4288 3438 
Q 3953 3666 3628 3772 
Q 3303 3878 2944 3878 
Q 2300 3878 1931 3465 
Q 1563 3053 1563 2328 
Q 1563 1606 1931 1193 
Q 2300 781 2944 781 
Q 3303 781 3628 887 
Q 3953 994 4288 1222 
L 4288 256 
z
" transform="scale(0.015625)"/>
     <path id="DejaVuSans-Bold-4d" d="M 588 4666 
L 2119 4666 
L 3181 2169 
L 4250 4666 
L 5778 4666 
L 5778 0 
L 4641 0 
L 4641 3413 
L 3566 897 
L 2803 897 
L 1728 3413 
L 1728 0 
L 588 0 
L 588 4666 
z
" transform="scale(0.015625)"/>
     <path id="DejaVuSans-Bold-55" d="M 588 4666 
L 1791 4666 
L 1791 1869 
Q 1791 1291 1980 1042 
Q 2169 794 2597 794 
Q 3028 794 3217 1042 
Q 3406 1291 3406 1869 
L 3406 4666 
L 4609 4666 
L 4609 1869 
Q 4609 878 4112 393 
Q 3616 -91 2597 -91 
Q 1581 -91 1084 393 
Q 588 878 588 1869 
L 588 4666 
z
" transform="scale(0.015625)"/>
     <path id="DejaVuSans-Bold-4e" d="M 588 4666 
L 1931 4666 
L 3628 1466 
L 3628 4666 
L 4769 4666 
L 4769 0 
L 3425 0 
L 1728 3200 
L 1728 0 
L 588 0 
L 588 4666 
z
" transform="scale(0.015625)"/>
     <path id="DejaVuSans-Bold-41" d="M 3419 850 
L 1538 850 
L 1241 0 
L 31 0 
L 1759 4666 
L 3194 4666 
L 4922 0 
L 3713 0 
L 3419 850 
z
M 1838 1716 
L 3116 1716 
L 2478 3572 
L 1838 1716 
z
" transform="scale(0.015625)"/>
     <path id="DejaVuSans-Bold-67" d="M 2919 594 
Q 2688 288 2409 144 
Q 2131 0 1766 0 
Q 1125 0 706 504 
Q 288 1009 288 1791 
Q 288 2575 706 3076 
Q 1125 3578 1766 3578 
Q 2131 3578 2409 3434 
Q 2688 3291 2919 2981 
L 2919 3500 
L 4044 3500 
L 4044 353 
Q 4044 -491 3511 -936 
Q 2978 -1381 1966 -1381 
Q 1638 -1381 1331 -1331 
Q 1025 -1281 716 -1178 
L 716 -306 
Q 1009 -475 1290 -558 
Q 1572 -641 1856 -641 
Q 2406 -641 2662 -400 
Q 2919 -159 2919 353 
L 2919 594 
z
M 2181 2772 
Q 1834 2772 1640 2515 
Q 1447 2259 1447 1791 
Q 1447 1309 1634 1061 
Q 1822 813 2181 813 
Q 2531 813 2725 1069 
Q 2919 1325 2919 1791 
Q 2919 2259 2725 2515 
Q 2531 2772 2181 2772 
z
" transform="scale(0.015625)"/>
     <path id="DejaVuSans-Bold-2b" d="M 3053 4013 
L 3053 2375 
L 4684 2375 
L 4684 1638 
L 3053 1638 
L 3053 0 
L 2309 0 
L 2309 1638 
L 678 1638 
L 678 2375 
L 2309 2375 
L 2309 4013 
L 3053 4013 
z
" transform="scale(0.015625)"/>
     <path id="DejaVuSans-Bold-61" d="M 2106 1575 
Q 1756 1575 1579 1456 
Q 1403 1338 1403 1106 
Q 1403 894 1545 773 
Q 1688 653 1941 653 
Q 2256 653 2472 879 
Q 2688 1106 2688 1447 
L 2688 1575 
L 2106 1575 
z
M 3816 1997 
L 3816 0 
L 2688 0 
L 2688 519 
Q 2463 200 2181 54 
Q 1900 -91 1497 -91 
Q 953 -91 614 226 
Q 275 544 275 1050 
Q 275 1666 698 1953 
Q 1122 2241 2028 2241 
L 2688 2241 
L 2688 2328 
Q 2688 2594 2478 2717 
Q 2269 2841 1825 2841 
Q 1466 2841 1156 2769 
Q 847 2697 581 2553 
L 581 3406 
Q 941 3494 1303 3539 
Q 1666 3584 2028 3584 
Q 2975 3584 3395 3211 
Q 3816 2838 3816 1997 
z
" transform="scale(0.015625)"/>
     <path id="DejaVuSans-Bold-79" d="M 78 3500 
L 1197 3500 
L 2138 1125 
L 2938 3500 
L 4056 3500 
L 2584 -331 
Q 2363 -916 2067 -1148 
Q 1772 -1381 1288 -1381 
L 641 -1381 
L 641 -647 
L 991 -647 
Q 1275 -647 1404 -556 
Q 1534 -466 1606 -231 
L 1638 -134 
L 78 3500 
z
" transform="scale(0.015625)"/>
    </defs>
    <use xlink:href="#DejaVuSans-Bold-50"/>
    <use xlink:href="#DejaVuSans-Bold-65" transform="translate(73.291016 0)"/>
    <use xlink:href="#DejaVuSans-Bold-6e" transform="translate(141.113281 0)"/>
    <use xlink:href="#DejaVuSans-Bold-64" transform="translate(212.304688 0)"/>
    <use xlink:href="#DejaVuSans-Bold-75" transform="translate(283.886719 0)"/>
    <use xlink:href="#DejaVuSans-Bold-6c" transform="translate(355.078125 0)"/>
    <use xlink:href="#DejaVuSans-Bold-75" transform="translate(389.355469 0)"/>
    <use xlink:href="#DejaVuSans-Bold-6d" transform="translate(460.546875 0)"/>
    <use xlink:href="#DejaVuSans-Bold-2d" transform="translate(564.746094 0)"/>
    <use xlink:href="#DejaVuSans-Bold-76" transform="translate(606.25 0)"/>
    <use xlink:href="#DejaVuSans-Bold-31" transform="translate(671.435547 0)"/>
    <use xlink:href="#DejaVuSans-Bold-20" transform="translate(741.015625 0)"/>
    <use xlink:href="#DejaVuSans-Bold-28" transform="translate(775.830078 0)"/>
    <use xlink:href="#DejaVuSans-Bold-44" transform="translate(821.533203 0)"/>
    <use xlink:href="#DejaVuSans-Bold-69" transform="translate(904.541016 0)"/>
    <use xlink:href="#DejaVuSans-Bold-73" transform="translate(938.818359 0)"/>
    <use xlink:href="#DejaVuSans-Bold-63" transform="translate(998.339844 0)"/>
    <use xlink:href="#DejaVuSans-Bold-72" transform="translate(1057.617188 0)"/>
    <use xlink:href="#DejaVuSans-Bold-65" transform="translate(1106.933594 0)"/>
    <use xlink:href="#DejaVuSans-Bold-74" transform="translate(1174.755859 0)"/>
    <use xlink:href="#DejaVuSans-Bold-69" transform="translate(1222.558594 0)"/>
    <use xlink:href="#DejaVuSans-Bold-7a" transform="translate(1256.835938 0)"/>
    <use xlink:href="#DejaVuSans-Bold-65" transform="translate(1315.039062 0)"/>
    <use xlink:href="#DejaVuSans-Bold-64" transform="translate(1382.861328 0)"/>
    <use xlink:href="#DejaVuSans-Bold-29" transform="translate(1454.443359 0)"/>
    <use xlink:href="#DejaVuSans-Bold-20" transform="translate(1500.146484 0)"/>
    <use xlink:href="#DejaVuSans-Bold-7c" transform="translate(1534.960938 0)"/>
    <use xlink:href="#DejaVuSans-Bold-20" transform="translate(1571.484375 0)"/>
    <use xlink:href="#DejaVuSans-Bold-43" transform="translate(1606.298828 0)"/>
    <use xlink:href="#DejaVuSans-Bold-4d" transform="translate(1679.6875 0)"/>
    <use xlink:href="#DejaVuSans-Bold-55" transform="translate(1779.199219 0)"/>
    <use xlink:href="#DejaVuSans-Bold-2d" transform="translate(1860.400391 0)"/>
    <use xlink:href="#DejaVuSans-Bold-4e" transform="translate(1901.904297 0)"/>
    <use xlink:href="#DejaVuSans-Bold-65" transform="translate(1985.595703 0)"/>
    <use xlink:href="#DejaVuSans-Bold-74" transform="translate(2053.417969 0)"/>
    <use xlink:href="#DejaVuSans-Bold-20" transform="translate(2101.220703 0)"/>
    <use xlink:href="#DejaVuSans-Bold-28" transform="translate(2136.035156 0)"/>
    <use xlink:href="#DejaVuSans-Bold-41" transform="translate(2181.738281 0)"/>
    <use xlink:href="#DejaVuSans-Bold-6c" transform="translate(2259.130859 0)"/>
    <use xlink:href="#DejaVuSans-Bold-69" transform="translate(2293.408203 0)"/>
    <use xlink:href="#DejaVuSans-Bold-67" transform="translate(2327.685547 0)"/>
    <use xlink:href="#DejaVuSans-Bold-6e" transform="translate(2399.267578 0)"/>
    <use xlink:href="#DejaVuSans-Bold-6d" transform="translate(2470.458984 0)"/>
    <use xlink:href="#DejaVuSans-Bold-65" transform="translate(2574.658203 0)"/>
    <use xlink:href="#DejaVuSans-Bold-6e" transform="translate(2642.480469 0)"/>
    <use xlink:href="#DejaVuSans-Bold-74" transform="translate(2713.671875 0)"/>
    <use xlink:href="#DejaVuSans-Bold-20" transform="translate(2761.474609 0)"/>
    <use xlink:href="#DejaVuSans-Bold-2b" transform="translate(2796.289062 0)"/>
    <use xlink:href="#DejaVuSans-Bold-20" transform="translate(2880.078125 0)"/>
    <use xlink:href="#DejaVuSans-Bold-50" transform="translate(2914.892578 0)"/>
    <use xlink:href="#DejaVuSans-Bold-65" transform="translate(2988.183594 0)"/>
    <use xlink:href="#DejaVuSans-Bold-6e" transform="translate(3056.005859 0)"/>
    <use xlink:href="#DejaVuSans-Bold-61" transform="translate(3127.197266 0)"/>
    <use xlink:href="#DejaVuSans-Bold-6c" transform="translate(3194.677734 0)"/>
    <use xlink:href="#DejaVuSans-Bold-74" transform="translate(3228.955078 0)"/>
    <use xlink:href="#DejaVuSans-Bold-79" transform="translate(3276.757812 0)"/>
    <use xlink:href="#DejaVuSans-Bold-29" transform="translate(3341.943359 0)"/>
   </g>
  </g>
 </g>
 <defs>
  <clipPath id="pcb01ae9bea">
   <rect x="65.14" y="39.6" width="555.028508" height="360.92"/>
  </clipPath>
 </defs>
</svg>
