<?xml version="1.0" encoding="utf-8" standalone="no"?>
<!DOCTYPE svg PUBLIC "-//W3C//DTD SVG 1.1//EN"
  "http://www.w3.org/Graphics/SVG/1.1/DTD/svg11.dtd">
<svg xmlns:xlink="http://www.w3.org/1999/xlink" width="648pt" height="432pt" viewBox="0 0 648 432" xmlns="http://www.w3.org/2000/svg" version="1.1">
 <metadata>
  <rdf:RDF xmlns:dc="http://purl.org/dc/elements/1.1/" xmlns:cc="http://creativecommons.org/ns#" xmlns:rdf="http://www.w3.org/1999/02/22-rdf-syntax-ns#">
   <cc:Work>
    <dc:type rdf:resource="http://purl.org/dc/dcmitype/StillImage"/>
    <dc:date>2025-07-31T00:19:02.388724</dc:date>
    <dc:format>image/svg+xml</dc:format>
    <dc:creator>
     <cc:Agent>
      <dc:title>Matplotlib v3.10.0, https://matplotlib.org/</dc:title>
     </cc:Agent>
    </dc:creator>
   </cc:Work>
  </rdf:RDF>
 </metadata>
 <defs>
  <style type="text/css">*{stroke-linejoin: round; stroke-linecap: butt}</style>
 </defs>
 <g id="figure_1">
  <g id="patch_1">
   <path d="M 0 432 
L 648 432 
L 648 0 
L 0 0 
z
" style="fill: #ffffff"/>
  </g>
  <g id="axes_1">
   <g id="patch_2">
    <path d="M 65.63 390.04 
L 632.205 390.04 
L 632.205 57.0062 
L 65.63 57.0062 
z
" style="fill: #eaeaf2"/>
   </g>
   <g id="matplotlib.axis_1">
    <g id="xtick_1">
     <g id="line2d_1">
      <path d="M 65.63083 390.04 
L 65.63083 57.0062 
" clip-path="url(#p0a8dc81181)" style="fill: none; stroke: #ffffff; stroke-width: 0.8; stroke-linecap: round"/>
     </g>
     <g id="text_1">
      <!-- 0.00 -->
      <g style="fill: #262626" transform="translate(54.498017 404.638438) scale(0.1 -0.1)">
       <defs>
        <path id="DejaVuSans-30" d="M 2034 4250 
Q 1547 4250 1301 3770 
Q 1056 3291 1056 2328 
Q 1056 1369 1301 889 
Q 1547 409 2034 409 
Q 2525 409 2770 889 
Q 3016 1369 3016 2328 
Q 3016 3291 2770 3770 
Q 2525 4250 2034 4250 
z
M 2034 4750 
Q 2819 4750 3233 4129 
Q 3647 3509 3647 2328 
Q 3647 1150 3233 529 
Q 2819 -91 2034 -91 
Q 1250 -91 836 529 
Q 422 1150 422 2328 
Q 422 3509 836 4129 
Q 1250 4750 2034 4750 
z
" transform="scale(0.015625)"/>
        <path id="DejaVuSans-2e" d="M 684 794 
L 1344 794 
L 1344 0 
L 684 0 
L 684 794 
z
" transform="scale(0.015625)"/>
       </defs>
       <use xlink:href="#DejaVuSans-30"/>
       <use xlink:href="#DejaVuSans-2e" transform="translate(63.623047 0)"/>
       <use xlink:href="#DejaVuSans-30" transform="translate(95.410156 0)"/>
       <use xlink:href="#DejaVuSans-30" transform="translate(159.033203 0)"/>
      </g>
     </g>
    </g>
    <g id="xtick_2">
     <g id="line2d_2">
      <path d="M 134.792615 390.04 
L 134.792615 57.0062 
" clip-path="url(#p0a8dc81181)" style="fill: none; stroke: #ffffff; stroke-width: 0.8; stroke-linecap: round"/>
     </g>
     <g id="text_2">
      <!-- 0.25 -->
      <g style="fill: #262626" transform="translate(123.659802 404.638438) scale(0.1 -0.1)">
       <defs>
        <path id="DejaVuSans-32" d="M 1228 531 
L 3431 531 
L 3431 0 
L 469 0 
L 469 531 
Q 828 903 1448 1529 
Q 2069 2156 2228 2338 
Q 2531 2678 2651 2914 
Q 2772 3150 2772 3378 
Q 2772 3750 2511 3984 
Q 2250 4219 1831 4219 
Q 1534 4219 1204 4116 
Q 875 4013 500 3803 
L 500 4441 
Q 881 4594 1212 4672 
Q 1544 4750 1819 4750 
Q 2544 4750 2975 4387 
Q 3406 4025 3406 3419 
Q 3406 3131 3298 2873 
Q 3191 2616 2906 2266 
Q 2828 2175 2409 1742 
Q 1991 1309 1228 531 
z
" transform="scale(0.015625)"/>
        <path id="DejaVuSans-35" d="M 691 4666 
L 3169 4666 
L 3169 4134 
L 1269 4134 
L 1269 2991 
Q 1406 3038 1543 3061 
Q 1681 3084 1819 3084 
Q 2600 3084 3056 2656 
Q 3513 2228 3513 1497 
Q 3513 744 3044 326 
Q 2575 -91 1722 -91 
Q 1428 -91 1123 -41 
Q 819 9 494 109 
L 494 744 
Q 775 591 1075 516 
Q 1375 441 1709 441 
Q 2250 441 2565 725 
Q 2881 1009 2881 1497 
Q 2881 1984 2565 2268 
Q 2250 2553 1709 2553 
Q 1456 2553 1204 2497 
Q 953 2441 691 2322 
L 691 4666 
z
" transform="scale(0.015625)"/>
       </defs>
       <use xlink:href="#DejaVuSans-30"/>
       <use xlink:href="#DejaVuSans-2e" transform="translate(63.623047 0)"/>
       <use xlink:href="#DejaVuSans-32" transform="translate(95.410156 0)"/>
       <use xlink:href="#DejaVuSans-35" transform="translate(159.033203 0)"/>
      </g>
     </g>
    </g>
    <g id="xtick_3">
     <g id="line2d_3">
      <path d="M 203.954399 390.04 
L 203.954399 57.0062 
" clip-path="url(#p0a8dc81181)" style="fill: none; stroke: #ffffff; stroke-width: 0.8; stroke-linecap: round"/>
     </g>
     <g id="text_3">
      <!-- 0.50 -->
      <g style="fill: #262626" transform="translate(192.821587 404.638438) scale(0.1 -0.1)">
       <use xlink:href="#DejaVuSans-30"/>
       <use xlink:href="#DejaVuSans-2e" transform="translate(63.623047 0)"/>
       <use xlink:href="#DejaVuSans-35" transform="translate(95.410156 0)"/>
       <use xlink:href="#DejaVuSans-30" transform="translate(159.033203 0)"/>
      </g>
     </g>
    </g>
    <g id="xtick_4">
     <g id="line2d_4">
      <path d="M 273.116184 390.04 
L 273.116184 57.0062 
" clip-path="url(#p0a8dc81181)" style="fill: none; stroke: #ffffff; stroke-width: 0.8; stroke-linecap: round"/>
     </g>
     <g id="text_4">
      <!-- 0.75 -->
      <g style="fill: #262626" transform="translate(261.983371 404.638438) scale(0.1 -0.1)">
       <defs>
        <path id="DejaVuSans-37" d="M 525 4666 
L 3525 4666 
L 3525 4397 
L 1831 0 
L 1172 0 
L 2766 4134 
L 525 4134 
L 525 4666 
z
" transform="scale(0.015625)"/>
       </defs>
       <use xlink:href="#DejaVuSans-30"/>
       <use xlink:href="#DejaVuSans-2e" transform="translate(63.623047 0)"/>
       <use xlink:href="#DejaVuSans-37" transform="translate(95.410156 0)"/>
       <use xlink:href="#DejaVuSans-35" transform="translate(159.033203 0)"/>
      </g>
     </g>
    </g>
    <g id="xtick_5">
     <g id="line2d_5">
      <path d="M 342.277969 390.04 
L 342.277969 57.0062 
" clip-path="url(#p0a8dc81181)" style="fill: none; stroke: #ffffff; stroke-width: 0.8; stroke-linecap: round"/>
     </g>
     <g id="text_5">
      <!-- 1.00 -->
      <g style="fill: #262626" transform="translate(331.145156 404.638438) scale(0.1 -0.1)">
       <defs>
        <path id="DejaVuSans-31" d="M 794 531 
L 1825 531 
L 1825 4091 
L 703 3866 
L 703 4441 
L 1819 4666 
L 2450 4666 
L 2450 531 
L 3481 531 
L 3481 0 
L 794 0 
L 794 531 
z
" transform="scale(0.015625)"/>
       </defs>
       <use xlink:href="#DejaVuSans-31"/>
       <use xlink:href="#DejaVuSans-2e" transform="translate(63.623047 0)"/>
       <use xlink:href="#DejaVuSans-30" transform="translate(95.410156 0)"/>
       <use xlink:href="#DejaVuSans-30" transform="translate(159.033203 0)"/>
      </g>
     </g>
    </g>
    <g id="xtick_6">
     <g id="line2d_6">
      <path d="M 411.439753 390.04 
L 411.439753 57.0062 
" clip-path="url(#p0a8dc81181)" style="fill: none; stroke: #ffffff; stroke-width: 0.8; stroke-linecap: round"/>
     </g>
     <g id="text_6">
      <!-- 1.25 -->
      <g style="fill: #262626" transform="translate(400.306941 404.638438) scale(0.1 -0.1)">
       <use xlink:href="#DejaVuSans-31"/>
       <use xlink:href="#DejaVuSans-2e" transform="translate(63.623047 0)"/>
       <use xlink:href="#DejaVuSans-32" transform="translate(95.410156 0)"/>
       <use xlink:href="#DejaVuSans-35" transform="translate(159.033203 0)"/>
      </g>
     </g>
    </g>
    <g id="xtick_7">
     <g id="line2d_7">
      <path d="M 480.601538 390.04 
L 480.601538 57.0062 
" clip-path="url(#p0a8dc81181)" style="fill: none; stroke: #ffffff; stroke-width: 0.8; stroke-linecap: round"/>
     </g>
     <g id="text_7">
      <!-- 1.50 -->
      <g style="fill: #262626" transform="translate(469.468726 404.638438) scale(0.1 -0.1)">
       <use xlink:href="#DejaVuSans-31"/>
       <use xlink:href="#DejaVuSans-2e" transform="translate(63.623047 0)"/>
       <use xlink:href="#DejaVuSans-35" transform="translate(95.410156 0)"/>
       <use xlink:href="#DejaVuSans-30" transform="translate(159.033203 0)"/>
      </g>
     </g>
    </g>
    <g id="xtick_8">
     <g id="line2d_8">
      <path d="M 549.763323 390.04 
L 549.763323 57.0062 
" clip-path="url(#p0a8dc81181)" style="fill: none; stroke: #ffffff; stroke-width: 0.8; stroke-linecap: round"/>
     </g>
     <g id="text_8">
      <!-- 1.75 -->
      <g style="fill: #262626" transform="translate(538.63051 404.638438) scale(0.1 -0.1)">
       <use xlink:href="#DejaVuSans-31"/>
       <use xlink:href="#DejaVuSans-2e" transform="translate(63.623047 0)"/>
       <use xlink:href="#DejaVuSans-37" transform="translate(95.410156 0)"/>
       <use xlink:href="#DejaVuSans-35" transform="translate(159.033203 0)"/>
      </g>
     </g>
    </g>
    <g id="xtick_9">
     <g id="line2d_9">
      <path d="M 618.925107 390.04 
L 618.925107 57.0062 
" clip-path="url(#p0a8dc81181)" style="fill: none; stroke: #ffffff; stroke-width: 0.8; stroke-linecap: round"/>
     </g>
     <g id="text_9">
      <!-- 2.00 -->
      <g style="fill: #262626" transform="translate(607.792295 404.638438) scale(0.1 -0.1)">
       <use xlink:href="#DejaVuSans-32"/>
       <use xlink:href="#DejaVuSans-2e" transform="translate(63.623047 0)"/>
       <use xlink:href="#DejaVuSans-30" transform="translate(95.410156 0)"/>
       <use xlink:href="#DejaVuSans-30" transform="translate(159.033203 0)"/>
      </g>
     </g>
    </g>
    <g id="text_10">
     <!-- Steps -->
     <g style="fill: #262626" transform="translate(334.927656 418.316562) scale(0.1 -0.1)">
      <defs>
       <path id="DejaVuSans-53" d="M 3425 4513 
L 3425 3897 
Q 3066 4069 2747 4153 
Q 2428 4238 2131 4238 
Q 1616 4238 1336 4038 
Q 1056 3838 1056 3469 
Q 1056 3159 1242 3001 
Q 1428 2844 1947 2747 
L 2328 2669 
Q 3034 2534 3370 2195 
Q 3706 1856 3706 1288 
Q 3706 609 3251 259 
Q 2797 -91 1919 -91 
Q 1588 -91 1214 -16 
Q 841 59 441 206 
L 441 856 
Q 825 641 1194 531 
Q 1563 422 1919 422 
Q 2459 422 2753 634 
Q 3047 847 3047 1241 
Q 3047 1584 2836 1778 
Q 2625 1972 2144 2069 
L 1759 2144 
Q 1053 2284 737 2584 
Q 422 2884 422 3419 
Q 422 4038 858 4394 
Q 1294 4750 2059 4750 
Q 2388 4750 2728 4690 
Q 3069 4631 3425 4513 
z
" transform="scale(0.015625)"/>
       <path id="DejaVuSans-74" d="M 1172 4494 
L 1172 3500 
L 2356 3500 
L 2356 3053 
L 1172 3053 
L 1172 1153 
Q 1172 725 1289 603 
Q 1406 481 1766 481 
L 2356 481 
L 2356 0 
L 1766 0 
Q 1100 0 847 248 
Q 594 497 594 1153 
L 594 3053 
L 172 3053 
L 172 3500 
L 594 3500 
L 594 4494 
L 1172 4494 
z
" transform="scale(0.015625)"/>
       <path id="DejaVuSans-65" d="M 3597 1894 
L 3597 1613 
L 953 1613 
Q 991 1019 1311 708 
Q 1631 397 2203 397 
Q 2534 397 2845 478 
Q 3156 559 3463 722 
L 3463 178 
Q 3153 47 2828 -22 
Q 2503 -91 2169 -91 
Q 1331 -91 842 396 
Q 353 884 353 1716 
Q 353 2575 817 3079 
Q 1281 3584 2069 3584 
Q 2775 3584 3186 3129 
Q 3597 2675 3597 1894 
z
M 3022 2063 
Q 3016 2534 2758 2815 
Q 2500 3097 2075 3097 
Q 1594 3097 1305 2825 
Q 1016 2553 972 2059 
L 3022 2063 
z
" transform="scale(0.015625)"/>
       <path id="DejaVuSans-70" d="M 1159 525 
L 1159 -1331 
L 581 -1331 
L 581 3500 
L 1159 3500 
L 1159 2969 
Q 1341 3281 1617 3432 
Q 1894 3584 2278 3584 
Q 2916 3584 3314 3078 
Q 3713 2572 3713 1747 
Q 3713 922 3314 415 
Q 2916 -91 2278 -91 
Q 1894 -91 1617 61 
Q 1341 213 1159 525 
z
M 3116 1747 
Q 3116 2381 2855 2742 
Q 2594 3103 2138 3103 
Q 1681 3103 1420 2742 
Q 1159 2381 1159 1747 
Q 1159 1113 1420 752 
Q 1681 391 2138 391 
Q 2594 391 2855 752 
Q 3116 1113 3116 1747 
z
" transform="scale(0.015625)"/>
       <path id="DejaVuSans-73" d="M 2834 3397 
L 2834 2853 
Q 2591 2978 2328 3040 
Q 2066 3103 1784 3103 
Q 1356 3103 1142 2972 
Q 928 2841 928 2578 
Q 928 2378 1081 2264 
Q 1234 2150 1697 2047 
L 1894 2003 
Q 2506 1872 2764 1633 
Q 3022 1394 3022 966 
Q 3022 478 2636 193 
Q 2250 -91 1575 -91 
Q 1294 -91 989 -36 
Q 684 19 347 128 
L 347 722 
Q 666 556 975 473 
Q 1284 391 1588 391 
Q 1994 391 2212 530 
Q 2431 669 2431 922 
Q 2431 1156 2273 1281 
Q 2116 1406 1581 1522 
L 1381 1569 
Q 847 1681 609 1914 
Q 372 2147 372 2553 
Q 372 3047 722 3315 
Q 1072 3584 1716 3584 
Q 2034 3584 2315 3537 
Q 2597 3491 2834 3397 
z
" transform="scale(0.015625)"/>
      </defs>
      <use xlink:href="#DejaVuSans-53"/>
      <use xlink:href="#DejaVuSans-74" transform="translate(63.476562 0)"/>
      <use xlink:href="#DejaVuSans-65" transform="translate(102.685547 0)"/>
      <use xlink:href="#DejaVuSans-70" transform="translate(164.208984 0)"/>
      <use xlink:href="#DejaVuSans-73" transform="translate(227.685547 0)"/>
     </g>
    </g>
    <g id="text_11">
     <!-- 1e6 -->
     <g style="fill: #262626" transform="translate(613.326875 417.316562) scale(0.1 -0.1)">
      <defs>
       <path id="DejaVuSans-36" d="M 2113 2584 
Q 1688 2584 1439 2293 
Q 1191 2003 1191 1497 
Q 1191 994 1439 701 
Q 1688 409 2113 409 
Q 2538 409 2786 701 
Q 3034 994 3034 1497 
Q 3034 2003 2786 2293 
Q 2538 2584 2113 2584 
z
M 3366 4563 
L 3366 3988 
Q 3128 4100 2886 4159 
Q 2644 4219 2406 4219 
Q 1781 4219 1451 3797 
Q 1122 3375 1075 2522 
Q 1259 2794 1537 2939 
Q 1816 3084 2150 3084 
Q 2853 3084 3261 2657 
Q 3669 2231 3669 1497 
Q 3669 778 3244 343 
Q 2819 -91 2113 -91 
Q 1303 -91 875 529 
Q 447 1150 447 2328 
Q 447 3434 972 4092 
Q 1497 4750 2381 4750 
Q 2619 4750 2861 4703 
Q 3103 4656 3366 4563 
z
" transform="scale(0.015625)"/>
      </defs>
      <use xlink:href="#DejaVuSans-31"/>
      <use xlink:href="#DejaVuSans-65" transform="translate(63.623047 0)"/>
      <use xlink:href="#DejaVuSans-36" transform="translate(125.146484 0)"/>
     </g>
    </g>
   </g>
   <g id="matplotlib.axis_2">
    <g id="ytick_1">
     <g id="line2d_10">
      <path d="M 65.63 390.04 
L 632.205 390.04 
" clip-path="url(#p0a8dc81181)" style="fill: none; stroke: #ffffff; stroke-width: 0.8; stroke-linecap: round"/>
     </g>
     <g id="text_12">
      <!-- −1600 -->
      <g style="fill: #262626" transform="translate(24.800313 393.839219) scale(0.1 -0.1)">
       <defs>
        <path id="DejaVuSans-2212" d="M 678 2272 
L 4684 2272 
L 4684 1741 
L 678 1741 
L 678 2272 
z
" transform="scale(0.015625)"/>
       </defs>
       <use xlink:href="#DejaVuSans-2212"/>
       <use xlink:href="#DejaVuSans-31" transform="translate(83.789062 0)"/>
       <use xlink:href="#DejaVuSans-36" transform="translate(147.412109 0)"/>
       <use xlink:href="#DejaVuSans-30" transform="translate(211.035156 0)"/>
       <use xlink:href="#DejaVuSans-30" transform="translate(274.658203 0)"/>
      </g>
     </g>
    </g>
    <g id="ytick_2">
     <g id="line2d_11">
      <path d="M 65.63 348.410775 
L 632.205 348.410775 
" clip-path="url(#p0a8dc81181)" style="fill: none; stroke: #ffffff; stroke-width: 0.8; stroke-linecap: round"/>
     </g>
     <g id="text_13">
      <!-- −1400 -->
      <g style="fill: #262626" transform="translate(24.800313 352.209994) scale(0.1 -0.1)">
       <defs>
        <path id="DejaVuSans-34" d="M 2419 4116 
L 825 1625 
L 2419 1625 
L 2419 4116 
z
M 2253 4666 
L 3047 4666 
L 3047 1625 
L 3713 1625 
L 3713 1100 
L 3047 1100 
L 3047 0 
L 2419 0 
L 2419 1100 
L 313 1100 
L 313 1709 
L 2253 4666 
z
" transform="scale(0.015625)"/>
       </defs>
       <use xlink:href="#DejaVuSans-2212"/>
       <use xlink:href="#DejaVuSans-31" transform="translate(83.789062 0)"/>
       <use xlink:href="#DejaVuSans-34" transform="translate(147.412109 0)"/>
       <use xlink:href="#DejaVuSans-30" transform="translate(211.035156 0)"/>
       <use xlink:href="#DejaVuSans-30" transform="translate(274.658203 0)"/>
      </g>
     </g>
    </g>
    <g id="ytick_3">
     <g id="line2d_12">
      <path d="M 65.63 306.78155 
L 632.205 306.78155 
" clip-path="url(#p0a8dc81181)" style="fill: none; stroke: #ffffff; stroke-width: 0.8; stroke-linecap: round"/>
     </g>
     <g id="text_14">
      <!-- −1200 -->
      <g style="fill: #262626" transform="translate(24.800313 310.580769) scale(0.1 -0.1)">
       <use xlink:href="#DejaVuSans-2212"/>
       <use xlink:href="#DejaVuSans-31" transform="translate(83.789062 0)"/>
       <use xlink:href="#DejaVuSans-32" transform="translate(147.412109 0)"/>
       <use xlink:href="#DejaVuSans-30" transform="translate(211.035156 0)"/>
       <use xlink:href="#DejaVuSans-30" transform="translate(274.658203 0)"/>
      </g>
     </g>
    </g>
    <g id="ytick_4">
     <g id="line2d_13">
      <path d="M 65.63 265.152325 
L 632.205 265.152325 
" clip-path="url(#p0a8dc81181)" style="fill: none; stroke: #ffffff; stroke-width: 0.8; stroke-linecap: round"/>
     </g>
     <g id="text_15">
      <!-- −1000 -->
      <g style="fill: #262626" transform="translate(24.800313 268.951544) scale(0.1 -0.1)">
       <use xlink:href="#DejaVuSans-2212"/>
       <use xlink:href="#DejaVuSans-31" transform="translate(83.789062 0)"/>
       <use xlink:href="#DejaVuSans-30" transform="translate(147.412109 0)"/>
       <use xlink:href="#DejaVuSans-30" transform="translate(211.035156 0)"/>
       <use xlink:href="#DejaVuSans-30" transform="translate(274.658203 0)"/>
      </g>
     </g>
    </g>
    <g id="ytick_5">
     <g id="line2d_14">
      <path d="M 65.63 223.5231 
L 632.205 223.5231 
" clip-path="url(#p0a8dc81181)" style="fill: none; stroke: #ffffff; stroke-width: 0.8; stroke-linecap: round"/>
     </g>
     <g id="text_16">
      <!-- −800 -->
      <g style="fill: #262626" transform="translate(31.162813 227.322319) scale(0.1 -0.1)">
       <defs>
        <path id="DejaVuSans-38" d="M 2034 2216 
Q 1584 2216 1326 1975 
Q 1069 1734 1069 1313 
Q 1069 891 1326 650 
Q 1584 409 2034 409 
Q 2484 409 2743 651 
Q 3003 894 3003 1313 
Q 3003 1734 2745 1975 
Q 2488 2216 2034 2216 
z
M 1403 2484 
Q 997 2584 770 2862 
Q 544 3141 544 3541 
Q 544 4100 942 4425 
Q 1341 4750 2034 4750 
Q 2731 4750 3128 4425 
Q 3525 4100 3525 3541 
Q 3525 3141 3298 2862 
Q 3072 2584 2669 2484 
Q 3125 2378 3379 2068 
Q 3634 1759 3634 1313 
Q 3634 634 3220 271 
Q 2806 -91 2034 -91 
Q 1263 -91 848 271 
Q 434 634 434 1313 
Q 434 1759 690 2068 
Q 947 2378 1403 2484 
z
M 1172 3481 
Q 1172 3119 1398 2916 
Q 1625 2713 2034 2713 
Q 2441 2713 2670 2916 
Q 2900 3119 2900 3481 
Q 2900 3844 2670 4047 
Q 2441 4250 2034 4250 
Q 1625 4250 1398 4047 
Q 1172 3844 1172 3481 
z
" transform="scale(0.015625)"/>
       </defs>
       <use xlink:href="#DejaVuSans-2212"/>
       <use xlink:href="#DejaVuSans-38" transform="translate(83.789062 0)"/>
       <use xlink:href="#DejaVuSans-30" transform="translate(147.412109 0)"/>
       <use xlink:href="#DejaVuSans-30" transform="translate(211.035156 0)"/>
      </g>
     </g>
    </g>
    <g id="ytick_6">
     <g id="line2d_15">
      <path d="M 65.63 181.893875 
L 632.205 181.893875 
" clip-path="url(#p0a8dc81181)" style="fill: none; stroke: #ffffff; stroke-width: 0.8; stroke-linecap: round"/>
     </g>
     <g id="text_17">
      <!-- −600 -->
      <g style="fill: #262626" transform="translate(31.162813 185.693094) scale(0.1 -0.1)">
       <use xlink:href="#DejaVuSans-2212"/>
       <use xlink:href="#DejaVuSans-36" transform="translate(83.789062 0)"/>
       <use xlink:href="#DejaVuSans-30" transform="translate(147.412109 0)"/>
       <use xlink:href="#DejaVuSans-30" transform="translate(211.035156 0)"/>
      </g>
     </g>
    </g>
    <g id="ytick_7">
     <g id="line2d_16">
      <path d="M 65.63 140.26465 
L 632.205 140.26465 
" clip-path="url(#p0a8dc81181)" style="fill: none; stroke: #ffffff; stroke-width: 0.8; stroke-linecap: round"/>
     </g>
     <g id="text_18">
      <!-- −400 -->
      <g style="fill: #262626" transform="translate(31.162813 144.063869) scale(0.1 -0.1)">
       <use xlink:href="#DejaVuSans-2212"/>
       <use xlink:href="#DejaVuSans-34" transform="translate(83.789062 0)"/>
       <use xlink:href="#DejaVuSans-30" transform="translate(147.412109 0)"/>
       <use xlink:href="#DejaVuSans-30" transform="translate(211.035156 0)"/>
      </g>
     </g>
    </g>
    <g id="ytick_8">
     <g id="line2d_17">
      <path d="M 65.63 98.635425 
L 632.205 98.635425 
" clip-path="url(#p0a8dc81181)" style="fill: none; stroke: #ffffff; stroke-width: 0.8; stroke-linecap: round"/>
     </g>
     <g id="text_19">
      <!-- −200 -->
      <g style="fill: #262626" transform="translate(31.162813 102.434644) scale(0.1 -0.1)">
       <use xlink:href="#DejaVuSans-2212"/>
       <use xlink:href="#DejaVuSans-32" transform="translate(83.789062 0)"/>
       <use xlink:href="#DejaVuSans-30" transform="translate(147.412109 0)"/>
       <use xlink:href="#DejaVuSans-30" transform="translate(211.035156 0)"/>
      </g>
     </g>
    </g>
    <g id="ytick_9">
     <g id="line2d_18">
      <path d="M 65.63 57.0062 
L 632.205 57.0062 
" clip-path="url(#p0a8dc81181)" style="fill: none; stroke: #ffffff; stroke-width: 0.8; stroke-linecap: round"/>
     </g>
     <g id="text_20">
      <!-- 0 -->
      <g style="fill: #262626" transform="translate(52.2675 60.805419) scale(0.1 -0.1)">
       <use xlink:href="#DejaVuSans-30"/>
      </g>
     </g>
    </g>
    <g id="text_21">
     <!-- Reward -->
     <g style="fill: #262626" transform="translate(18.720625 242.144194) rotate(-90) scale(0.1 -0.1)">
      <defs>
       <path id="DejaVuSans-52" d="M 2841 2188 
Q 3044 2119 3236 1894 
Q 3428 1669 3622 1275 
L 4263 0 
L 3584 0 
L 2988 1197 
Q 2756 1666 2539 1819 
Q 2322 1972 1947 1972 
L 1259 1972 
L 1259 0 
L 628 0 
L 628 4666 
L 2053 4666 
Q 2853 4666 3247 4331 
Q 3641 3997 3641 3322 
Q 3641 2881 3436 2590 
Q 3231 2300 2841 2188 
z
M 1259 4147 
L 1259 2491 
L 2053 2491 
Q 2509 2491 2742 2702 
Q 2975 2913 2975 3322 
Q 2975 3731 2742 3939 
Q 2509 4147 2053 4147 
L 1259 4147 
z
" transform="scale(0.015625)"/>
       <path id="DejaVuSans-77" d="M 269 3500 
L 844 3500 
L 1563 769 
L 2278 3500 
L 2956 3500 
L 3675 769 
L 4391 3500 
L 4966 3500 
L 4050 0 
L 3372 0 
L 2619 2869 
L 1863 0 
L 1184 0 
L 269 3500 
z
" transform="scale(0.015625)"/>
       <path id="DejaVuSans-61" d="M 2194 1759 
Q 1497 1759 1228 1600 
Q 959 1441 959 1056 
Q 959 750 1161 570 
Q 1363 391 1709 391 
Q 2188 391 2477 730 
Q 2766 1069 2766 1631 
L 2766 1759 
L 2194 1759 
z
M 3341 1997 
L 3341 0 
L 2766 0 
L 2766 531 
Q 2569 213 2275 61 
Q 1981 -91 1556 -91 
Q 1019 -91 701 211 
Q 384 513 384 1019 
Q 384 1609 779 1909 
Q 1175 2209 1959 2209 
L 2766 2209 
L 2766 2266 
Q 2766 2663 2505 2880 
Q 2244 3097 1772 3097 
Q 1472 3097 1187 3025 
Q 903 2953 641 2809 
L 641 3341 
Q 956 3463 1253 3523 
Q 1550 3584 1831 3584 
Q 2591 3584 2966 3190 
Q 3341 2797 3341 1997 
z
" transform="scale(0.015625)"/>
       <path id="DejaVuSans-72" d="M 2631 2963 
Q 2534 3019 2420 3045 
Q 2306 3072 2169 3072 
Q 1681 3072 1420 2755 
Q 1159 2438 1159 1844 
L 1159 0 
L 581 0 
L 581 3500 
L 1159 3500 
L 1159 2956 
Q 1341 3275 1631 3429 
Q 1922 3584 2338 3584 
Q 2397 3584 2469 3576 
Q 2541 3569 2628 3553 
L 2631 2963 
z
" transform="scale(0.015625)"/>
       <path id="DejaVuSans-64" d="M 2906 2969 
L 2906 4863 
L 3481 4863 
L 3481 0 
L 2906 0 
L 2906 525 
Q 2725 213 2448 61 
Q 2172 -91 1784 -91 
Q 1150 -91 751 415 
Q 353 922 353 1747 
Q 353 2572 751 3078 
Q 1150 3584 1784 3584 
Q 2172 3584 2448 3432 
Q 2725 3281 2906 2969 
z
M 947 1747 
Q 947 1113 1208 752 
Q 1469 391 1925 391 
Q 2381 391 2643 752 
Q 2906 1113 2906 1747 
Q 2906 2381 2643 2742 
Q 2381 3103 1925 3103 
Q 1469 3103 1208 2742 
Q 947 2381 947 1747 
z
" transform="scale(0.015625)"/>
      </defs>
      <use xlink:href="#DejaVuSans-52"/>
      <use xlink:href="#DejaVuSans-65" transform="translate(64.982422 0)"/>
      <use xlink:href="#DejaVuSans-77" transform="translate(126.505859 0)"/>
      <use xlink:href="#DejaVuSans-61" transform="translate(208.292969 0)"/>
      <use xlink:href="#DejaVuSans-72" transform="translate(269.572266 0)"/>
      <use xlink:href="#DejaVuSans-64" transform="translate(308.935547 0)"/>
     </g>
    </g>
   </g>
   <g id="FillBetweenPolyCollection_1">
    <path d="M 65.63083 297.712675 
L 65.63083 321.556809 
L 71.296563 313.101885 
L 76.962297 318.430428 
L 82.62803 299.765048 
L 88.293764 298.222573 
L 93.959497 297.385348 
L 99.62523 291.709898 
L 105.290964 292.836847 
L 110.956697 289.465619 
L 116.622431 296.534825 
L 122.288164 289.302133 
L 127.953897 282.482686 
L 133.619631 283.976302 
L 139.285364 277.807949 
L 144.951098 277.163766 
L 150.616831 274.359354 
L 156.282564 264.054829 
L 161.948298 252.610459 
L 167.614031 245.344652 
L 173.279765 246.919017 
L 178.945498 245.033462 
L 184.611231 255.727879 
L 190.276965 237.439101 
L 195.942698 245.521881 
L 201.608432 258.480382 
L 207.274165 246.116393 
L 212.939898 245.744019 
L 218.605632 246.62762 
L 224.271365 252.218307 
L 229.937099 238.667715 
L 235.602832 238.519308 
L 241.268565 239.537656 
L 246.934299 240.350889 
L 252.600032 247.366165 
L 258.265766 232.778493 
L 263.931499 251.473818 
L 269.597232 252.417135 
L 275.262966 248.140063 
L 280.928699 249.755566 
L 286.594433 233.984971 
L 292.260166 226.399105 
L 297.925899 244.930027 
L 303.591633 237.61062 
L 309.257366 232.975593 
L 314.9231 241.071787 
L 320.588833 225.462845 
L 326.254566 243.517757 
L 331.9203 230.357664 
L 337.586033 227.492268 
L 343.251767 222.796597 
L 348.9175 256.553926 
L 354.583233 220.223769 
L 360.248967 235.571414 
L 365.9147 246.432232 
L 371.580434 237.764264 
L 377.246167 239.237097 
L 382.9119 206.885097 
L 388.577634 234.754548 
L 394.243367 236.788064 
L 399.909101 188.66424 
L 405.574834 220.116901 
L 411.240567 209.763837 
L 416.906301 216.060497 
L 422.572034 217.726408 
L 428.237768 204.864494 
L 433.903501 220.794597 
L 439.569234 221.955217 
L 445.234968 212.32812 
L 450.900701 201.57317 
L 456.566435 200.754998 
L 462.232168 197.766798 
L 467.897901 196.542469 
L 473.563635 181.148999 
L 479.229368 176.886645 
L 484.895102 178.049692 
L 490.560835 191.8074 
L 496.226568 201.197279 
L 501.892302 200.878813 
L 507.558035 187.469252 
L 513.223769 196.932365 
L 518.889502 182.150524 
L 524.555235 161.672444 
L 530.220969 174.849707 
L 535.886702 189.285923 
L 541.552436 158.999357 
L 547.218169 188.06013 
L 552.883902 171.546755 
L 558.549636 172.590185 
L 564.215369 156.691879 
L 569.881103 164.273401 
L 575.546836 135.889159 
L 581.212569 132.235647 
L 586.878303 121.025317 
L 592.544036 119.536946 
L 598.20977 110.987837 
L 603.875503 106.495316 
L 609.541236 102.050841 
L 615.20697 102.687148 
L 620.872703 114.531996 
L 626.538437 98.774251 
L 626.538437 87.228432 
L 626.538437 87.228432 
L 620.872703 82.473866 
L 615.20697 81.158289 
L 609.541236 84.064328 
L 603.875503 78.768894 
L 598.20977 81.334037 
L 592.544036 80.078003 
L 586.878303 83.785299 
L 581.212569 75.521902 
L 575.546836 76.597418 
L 569.881103 67.245679 
L 564.215369 67.403075 
L 558.549636 62.077108 
L 552.883902 60.570822 
L 547.218169 58.034217 
L 541.552436 69.504611 
L 535.886702 74.983968 
L 530.220969 61.300682 
L 524.555235 64.532252 
L 518.889502 60.690824 
L 513.223769 52.644311 
L 507.558035 53.116507 
L 501.892302 50.430958 
L 496.226568 53.978096 
L 490.560835 53.510215 
L 484.895102 56.343558 
L 479.229368 59.053836 
L 473.563635 66.305225 
L 467.897901 56.244 
L 462.232168 50.612767 
L 456.566435 52.611975 
L 450.900701 56.292938 
L 445.234968 52.542985 
L 439.569234 50.039632 
L 433.903501 49.075472 
L 428.237768 56.566223 
L 422.572034 65.055783 
L 416.906301 54.954271 
L 411.240567 62.689843 
L 405.574834 51.061969 
L 399.909101 58.425719 
L 394.243367 65.897808 
L 388.577634 80.601383 
L 382.9119 86.589984 
L 377.246167 80.230449 
L 371.580434 82.720584 
L 365.9147 61.772245 
L 360.248967 79.949374 
L 354.583233 61.760345 
L 348.9175 67.752593 
L 343.251767 53.466872 
L 337.586033 54.841947 
L 331.9203 49.504996 
L 326.254566 49.127306 
L 320.588833 55.668319 
L 314.9231 49.348972 
L 309.257366 46.136794 
L 303.591633 62.300692 
L 297.925899 53.172591 
L 292.260166 56.764683 
L 286.594433 52.71628 
L 280.928699 62.082208 
L 275.262966 79.01891 
L 269.597232 80.108462 
L 263.931499 82.156652 
L 258.265766 61.10398 
L 252.600032 61.60592 
L 246.934299 57.315769 
L 241.268565 64.986905 
L 235.602832 73.190023 
L 229.937099 67.589887 
L 224.271365 78.720271 
L 218.605632 81.613914 
L 212.939898 69.315724 
L 207.274165 75.076886 
L 201.608432 77.983694 
L 195.942698 69.284607 
L 190.276965 71.256029 
L 184.611231 76.454545 
L 178.945498 78.860365 
L 173.279765 82.057532 
L 167.614031 92.01291 
L 161.948298 93.940309 
L 156.282564 109.800359 
L 150.616831 134.602953 
L 144.951098 132.530842 
L 139.285364 156.330549 
L 133.619631 182.422043 
L 127.953897 197.087815 
L 122.288164 209.33305 
L 116.622431 234.04032 
L 110.956697 228.560123 
L 105.290964 238.369805 
L 99.62523 240.197089 
L 93.959497 263.443015 
L 88.293764 273.523616 
L 82.62803 273.58363 
L 76.962297 286.574159 
L 71.296563 290.648119 
L 65.63083 297.712675 
z
" clip-path="url(#p0a8dc81181)" style="fill: #0000ff; fill-opacity: 0.1"/>
   </g>
   <g id="line2d_19">
    <path d="M 65.63083 309.634742 
L 71.296563 301.875002 
L 76.962297 302.502294 
L 82.62803 286.674339 
L 88.293764 285.873094 
L 93.959497 280.414181 
L 99.62523 265.953494 
L 105.290964 265.603326 
L 110.956697 259.012871 
L 116.622431 265.287573 
L 122.288164 249.317591 
L 127.953897 239.78525 
L 133.619631 233.199172 
L 139.285364 217.069249 
L 144.951098 204.847304 
L 150.616831 204.481153 
L 156.282564 186.927594 
L 161.948298 173.275384 
L 167.614031 168.678781 
L 173.279765 164.488275 
L 178.945498 161.946914 
L 184.611231 166.091212 
L 190.276965 154.347565 
L 195.942698 157.403244 
L 201.608432 168.232038 
L 207.274165 160.596639 
L 212.939898 157.529872 
L 218.605632 164.120767 
L 224.271365 165.469289 
L 229.937099 153.128801 
L 235.602832 155.854665 
L 241.268565 152.262281 
L 246.934299 148.833329 
L 252.600032 154.486043 
L 258.265766 146.941237 
L 263.931499 166.815235 
L 269.597232 166.262798 
L 275.262966 163.579487 
L 280.928699 155.918887 
L 286.594433 143.350625 
L 292.260166 141.581894 
L 297.925899 149.051309 
L 303.591633 149.955656 
L 309.257366 139.556193 
L 314.9231 145.21038 
L 320.588833 140.565582 
L 326.254566 146.322532 
L 331.9203 139.93133 
L 337.586033 141.167107 
L 343.251767 138.131735 
L 348.9175 162.15326 
L 354.583233 140.992057 
L 360.248967 157.760394 
L 365.9147 154.102238 
L 371.580434 160.242424 
L 377.246167 159.733773 
L 382.9119 146.737541 
L 388.577634 157.677965 
L 394.243367 151.342936 
L 399.909101 123.544979 
L 405.574834 135.589435 
L 411.240567 136.22684 
L 416.906301 135.507384 
L 422.572034 141.391095 
L 428.237768 130.715358 
L 433.903501 134.935035 
L 439.569234 135.997425 
L 445.234968 132.435552 
L 450.900701 128.933054 
L 456.566435 126.683486 
L 462.232168 124.189782 
L 467.897901 126.393234 
L 473.563635 123.727112 
L 479.229368 117.97024 
L 484.895102 117.196625 
L 490.560835 122.658807 
L 496.226568 127.587687 
L 501.892302 125.654885 
L 507.558035 120.292879 
L 513.223769 124.788338 
L 518.889502 121.420674 
L 524.555235 113.102348 
L 530.220969 118.075195 
L 535.886702 132.134946 
L 541.552436 114.251984 
L 547.218169 123.047174 
L 552.883902 116.058788 
L 558.549636 117.333646 
L 564.215369 112.047477 
L 569.881103 115.75954 
L 575.546836 106.243289 
L 581.212569 103.878774 
L 586.878303 102.405308 
L 592.544036 99.807475 
L 598.20977 96.160937 
L 603.875503 92.632105 
L 609.541236 93.057584 
L 615.20697 91.922718 
L 620.872703 98.502931 
L 626.538437 93.001341 
" clip-path="url(#p0a8dc81181)" style="fill: none; stroke: #0000ff; stroke-width: 1.5; stroke-linecap: round"/>
   </g>
   <g id="line2d_20">
    <path d="M 65.63083 290.907039 
L 71.296563 284.640625 
L 76.962297 293.399219 
L 82.62803 284.455558 
L 88.293764 293.291469 
L 93.959497 299.940558 
L 99.62523 302.972508 
L 105.290964 299.321079 
L 110.956697 308.376878 
L 116.622431 300.32668 
L 122.288164 299.443432 
L 127.953897 310.653536 
L 133.619631 308.299801 
L 139.285364 322.915078 
L 144.951098 329.970577 
L 150.616831 323.036394 
L 156.282564 330.985647 
L 161.948298 326.882641 
L 167.614031 320.997414 
L 173.279765 323.556395 
L 178.945498 326.815851 
L 184.611231 342.979361 
L 190.276965 318.788078 
L 195.942698 332.920328 
L 201.608432 346.363232 
L 207.274165 327.300293 
L 212.939898 331.143317 
L 218.605632 328.156372 
L 224.271365 332.834532 
L 229.937099 322.796636 
L 235.602832 319.714243 
L 241.268565 325.281879 
L 246.934299 330.713986 
L 252.600032 335.638435 
L 258.265766 318.487858 
L 263.931499 321.587858 
L 269.597232 327.589163 
L 275.262966 327.40074 
L 280.928699 343.136383 
L 286.594433 324.347868 
L 292.260166 310.67368 
L 297.925899 340.682848 
L 303.591633 322.888695 
L 309.257366 326.182153 
L 314.9231 336.910663 
L 320.588833 310.150746 
L 326.254566 339.950356 
L 331.9203 320.404533 
L 337.586033 313.685508 
L 343.251767 306.403957 
L 348.9175 333.444438 
L 354.583233 295.143897 
L 360.248967 299.811593 
L 365.9147 331.566992 
L 371.580434 300.64842 
L 377.246167 310.313814 
L 382.9119 259.532628 
L 388.577634 303.035192 
L 394.243367 320.191105 
L 399.909101 253.612539 
L 405.574834 304.20279 
L 411.240567 282.328974 
L 416.906301 296.134839 
L 422.572034 291.440623 
L 428.237768 278.974703 
L 433.903501 306.574898 
L 439.569234 307.806339 
L 445.234968 292.092629 
L 450.900701 274.186449 
L 456.566435 274.685256 
L 462.232168 271.301344 
L 467.897901 266.616271 
L 473.563635 238.306573 
L 479.229368 235.709895 
L 484.895102 238.853558 
L 490.560835 260.788276 
L 496.226568 274.758456 
L 501.892302 275.883937 
L 507.558035 254.576063 
L 513.223769 268.766657 
L 518.889502 242.79748 
L 524.555235 209.670066 
L 530.220969 231.553722 
L 535.886702 242.568561 
L 541.552436 202.333017 
L 547.218169 252.874648 
L 552.883902 226.973357 
L 558.549636 227.430862 
L 564.215369 201.03455 
L 569.881103 212.643689 
L 575.546836 165.297169 
L 581.212569 160.387409 
L 586.878303 136.766259 
L 592.544036 139.140279 
L 598.20977 125.412321 
L 603.875503 119.651374 
L 609.541236 109.102052 
L 615.20697 113.145627 
L 620.872703 130.105614 
L 626.538437 102.842656 
" clip-path="url(#p0a8dc81181)" style="fill: none; stroke: #008000; stroke-opacity: 0.2; stroke-linecap: round"/>
   </g>
   <g id="line2d_21">
    <path d="M 65.63083 307.187031 
L 71.296563 295.017381 
L 76.962297 319.169462 
L 82.62803 303.84549 
L 88.293764 283.56963 
L 93.959497 266.137219 
L 99.62523 254.790339 
L 105.290964 260.000307 
L 110.956697 254.404998 
L 116.622431 264.790136 
L 122.288164 227.065536 
L 127.953897 227.599776 
L 133.619631 226.625125 
L 139.285364 209.252345 
L 144.951098 186.744297 
L 150.616831 187.261211 
L 156.282564 140.298568 
L 161.948298 149.330411 
L 167.614031 141.841377 
L 173.279765 142.700136 
L 178.945498 128.36431 
L 184.611231 126.034498 
L 190.276965 128.870192 
L 195.942698 116.539319 
L 201.608432 144.245088 
L 207.274165 132.548719 
L 212.939898 120.068735 
L 218.605632 134.782042 
L 224.271365 160.432875 
L 229.937099 124.115866 
L 235.602832 135.39498 
L 241.268565 125.803237 
L 246.934299 110.453052 
L 252.600032 147.730908 
L 258.265766 110.29717 
L 263.931499 121.755356 
L 269.597232 126.721433 
L 275.262966 142.419431 
L 280.928699 102.264818 
L 286.594433 107.633333 
L 292.260166 109.352893 
L 297.925899 107.683331 
L 303.591633 104.993085 
L 309.257366 92.124012 
L 314.9231 95.533256 
L 320.588833 99.748142 
L 326.254566 113.283758 
L 331.9203 86.237236 
L 337.586033 91.704737 
L 343.251767 87.841374 
L 348.9175 96.153743 
L 354.583233 92.133798 
L 360.248967 131.138814 
L 365.9147 90.101379 
L 371.580434 92.088396 
L 377.246167 94.615444 
L 382.9119 106.347867 
L 388.577634 92.018419 
L 394.243367 93.559613 
L 399.909101 93.963107 
L 405.574834 96.148599 
L 411.240567 115.01245 
L 416.906301 101.681401 
L 422.572034 100.928999 
L 428.237768 94.650048 
L 433.903501 96.607583 
L 439.569234 91.384698 
L 445.234968 86.770414 
L 450.900701 90.515997 
L 456.566435 89.775929 
L 462.232168 88.525005 
L 467.897901 95.723227 
L 473.563635 100.051886 
L 479.229368 92.937807 
L 484.895102 89.215179 
L 490.560835 84.368974 
L 496.226568 90.004043 
L 501.892302 90.174501 
L 507.558035 87.480487 
L 513.223769 91.899016 
L 518.889502 91.709984 
L 524.555235 88.412591 
L 530.220969 91.315735 
L 535.886702 106.589632 
L 541.552436 107.432719 
L 547.218169 94.532994 
L 552.883902 88.663873 
L 558.549636 97.785403 
L 564.215369 90.4307 
L 569.881103 90.316015 
L 575.546836 87.80216 
L 581.212569 92.843898 
L 586.878303 85.612939 
L 592.544036 92.029699 
L 598.20977 86.130322 
L 603.875503 87.44579 
L 609.541236 93.253361 
L 615.20697 88.419741 
L 620.872703 92.554178 
L 626.538437 94.660231 
" clip-path="url(#p0a8dc81181)" style="fill: none; stroke: #008000; stroke-opacity: 0.2; stroke-linecap: round"/>
   </g>
   <g id="line2d_22">
    <path d="M 65.63083 305.027031 
L 71.296563 317.604517 
L 76.962297 282.067099 
L 82.62803 274.16147 
L 88.293764 285.017292 
L 93.959497 293.980381 
L 99.62523 289.497592 
L 105.290964 292.918217 
L 110.956697 273.739765 
L 116.622431 300.223915 
L 122.288164 292.017771 
L 127.953897 257.568819 
L 133.619631 246.413887 
L 139.285364 200.267904 
L 144.951098 150.033332 
L 150.616831 130.930744 
L 156.282564 117.559081 
L 161.948298 101.309362 
L 167.614031 119.374055 
L 173.279765 96.283841 
L 178.945498 106.527185 
L 184.611231 102.070016 
L 190.276965 93.004251 
L 195.942698 103.833328 
L 201.608432 109.511869 
L 207.274165 98.791456 
L 212.939898 100.844069 
L 218.605632 113.887069 
L 224.271365 102.369692 
L 229.937099 96.333452 
L 235.602832 106.033081 
L 241.268565 91.692746 
L 246.934299 91.049823 
L 252.600032 87.980657 
L 258.265766 103.192606 
L 263.931499 191.576656 
L 269.597232 180.815686 
L 275.262966 147.793035 
L 280.928699 102.411542 
L 286.594433 94.153044 
L 292.260166 93.904452 
L 297.925899 100.380757 
L 303.591633 96.111787 
L 309.257366 92.517922 
L 314.9231 99.398595 
L 320.588833 103.637651 
L 326.254566 97.745885 
L 331.9203 95.060929 
L 337.586033 100.688396 
L 343.251767 96.894237 
L 348.9175 82.941978 
L 354.583233 89.925677 
L 360.248967 89.165901 
L 365.9147 92.725897 
L 371.580434 136.590532 
L 377.246167 140.215476 
L 382.9119 156.16156 
L 388.577634 158.693648 
L 394.243367 125.754157 
L 399.909101 85.30948 
L 405.574834 86.179962 
L 411.240567 90.165649 
L 416.906301 86.846758 
L 422.572034 94.166418 
L 428.237768 96.146226 
L 433.903501 88.558405 
L 439.569234 95.367819 
L 445.234968 92.549889 
L 450.900701 92.267118 
L 456.566435 91.610972 
L 462.232168 84.273659 
L 467.897901 90.464473 
L 473.563635 98.654096 
L 479.229368 86.625595 
L 484.895102 86.378725 
L 490.560835 87.283339 
L 496.226568 92.254089 
L 501.892302 80.444242 
L 507.558035 86.672749 
L 513.223769 83.407986 
L 518.889502 88.789436 
L 524.555235 80.655318 
L 530.220969 86.071817 
L 535.886702 91.572402 
L 541.552436 86.05098 
L 547.218169 85.949198 
L 552.883902 90.134342 
L 558.549636 82.72497 
L 564.215369 87.929067 
L 569.881103 88.018473 
L 575.546836 91.270878 
L 581.212569 85.633341 
L 586.878303 87.811136 
L 592.544036 88.152637 
L 598.20977 87.520973 
L 603.875503 85.526808 
L 609.541236 85.458035 
L 615.20697 83.568468 
L 620.872703 87.260999 
L 626.538437 90.363569 
" clip-path="url(#p0a8dc81181)" style="fill: none; stroke: #008000; stroke-opacity: 0.2; stroke-linecap: round"/>
   </g>
   <g id="line2d_23">
    <path d="M 65.63083 322.111277 
L 71.296563 304.681363 
L 76.962297 294.664844 
L 82.62803 271.356462 
L 88.293764 265.13699 
L 93.959497 255.291159 
L 99.62523 236.383409 
L 105.290964 249.240118 
L 110.956697 239.090083 
L 116.622431 233.696761 
L 122.288164 232.366592 
L 127.953897 220.323662 
L 133.619631 235.298361 
L 139.285364 218.883396 
L 144.951098 232.58411 
L 150.616831 236.780052 
L 156.282564 201.273178 
L 161.948298 159.562999 
L 167.614031 138.796653 
L 173.279765 154.025239 
L 178.945498 135.373578 
L 184.611231 145.96988 
L 190.276965 120.820513 
L 195.942698 126.64379 
L 201.608432 134.955844 
L 207.274165 146.853978 
L 212.939898 140.078573 
L 218.605632 131.323803 
L 224.271365 134.370759 
L 229.937099 121.535372 
L 235.602832 113.425303 
L 241.268565 115.716459 
L 246.934299 118.446357 
L 252.600032 104.313044 
L 258.265766 100.781049 
L 263.931499 89.687689 
L 269.597232 95.149673 
L 275.262966 109.34787 
L 280.928699 112.021902 
L 286.594433 95.973969 
L 292.260166 103.656482 
L 297.925899 98.638423 
L 303.591633 133.422293 
L 309.257366 100.476405 
L 314.9231 95.840149 
L 320.588833 98.61994 
L 326.254566 93.331633 
L 331.9203 104.594149 
L 337.586033 101.105038 
L 343.251767 113.000652 
L 348.9175 195.190748 
L 354.583233 137.965086 
L 360.248967 176.672214 
L 365.9147 158.967018 
L 371.580434 180.377548 
L 377.246167 159.426389 
L 382.9119 118.024157 
L 388.577634 139.746084 
L 394.243367 121.793306 
L 399.909101 90.135499 
L 405.574834 103.325389 
L 411.240567 99.470586 
L 416.906301 102.673592 
L 422.572034 130.317314 
L 428.237768 91.163288 
L 433.903501 91.902287 
L 439.569234 97.041986 
L 445.234968 94.463609 
L 450.900701 94.891789 
L 456.566435 93.495598 
L 462.232168 89.538757 
L 467.897901 89.957611 
L 473.563635 89.845649 
L 479.229368 88.0936 
L 484.895102 83.920217 
L 490.560835 86.393146 
L 496.226568 93.184685 
L 501.892302 89.507413 
L 507.558035 83.011258 
L 513.223769 95.865202 
L 518.889502 94.9168 
L 524.555235 89.503981 
L 530.220969 89.677618 
L 535.886702 130.651989 
L 541.552436 89.108511 
L 547.218169 94.622411 
L 552.883902 84.877032 
L 558.549636 88.875859 
L 564.215369 96.014752 
L 569.881103 96.108594 
L 575.546836 90.77117 
L 581.212569 91.259613 
L 586.878303 106.087805 
L 592.544036 91.415086 
L 598.20977 88.390373 
L 603.875503 90.015231 
L 609.541236 93.828702 
L 615.20697 86.008929 
L 620.872703 94.483115 
L 626.538437 91.795016 
" clip-path="url(#p0a8dc81181)" style="fill: none; stroke: #008000; stroke-opacity: 0.2; stroke-linecap: round"/>
   </g>
   <g id="line2d_24">
    <path d="M 65.63083 322.941332 
L 71.296563 307.431124 
L 76.962297 323.210845 
L 82.62803 299.552717 
L 88.293764 302.350091 
L 93.959497 286.721589 
L 99.62523 246.12362 
L 105.290964 226.536911 
L 110.956697 219.45263 
L 116.622431 227.400371 
L 122.288164 195.694626 
L 127.953897 182.780458 
L 133.619631 149.358689 
L 139.285364 134.02752 
L 144.951098 124.904204 
L 150.616831 144.397365 
L 156.282564 144.521496 
L 161.948298 129.291506 
L 167.614031 122.384406 
L 173.279765 105.875763 
L 178.945498 112.653643 
L 184.611231 113.402303 
L 190.276965 110.254794 
L 195.942698 107.079454 
L 201.608432 106.084159 
L 207.274165 97.488751 
L 212.939898 95.514665 
L 218.605632 112.454549 
L 224.271365 97.338587 
L 229.937099 100.86268 
L 235.602832 104.70572 
L 241.268565 102.817083 
L 246.934299 93.503425 
L 252.600032 96.767169 
L 258.265766 101.947502 
L 263.931499 109.468615 
L 269.597232 101.038037 
L 275.262966 90.936356 
L 280.928699 119.759789 
L 286.594433 94.644914 
L 292.260166 90.321962 
L 297.925899 97.871187 
L 303.591633 92.362421 
L 309.257366 86.480475 
L 314.9231 98.369235 
L 320.588833 90.671433 
L 326.254566 87.301025 
L 331.9203 93.359804 
L 337.586033 98.651859 
L 343.251767 86.518453 
L 348.9175 103.035392 
L 354.583233 89.791827 
L 360.248967 92.013447 
L 365.9147 97.149906 
L 371.580434 91.507224 
L 377.246167 94.097741 
L 382.9119 93.621492 
L 388.577634 94.896483 
L 394.243367 95.416499 
L 399.909101 94.704272 
L 405.574834 88.090435 
L 411.240567 94.156539 
L 416.906301 90.200328 
L 422.572034 90.102122 
L 428.237768 92.642527 
L 433.903501 91.032 
L 439.569234 88.38628 
L 445.234968 96.301223 
L 450.900701 92.803917 
L 456.566435 83.849676 
L 462.232168 87.310147 
L 467.897901 89.204589 
L 473.563635 91.777356 
L 479.229368 86.484306 
L 484.895102 87.615446 
L 490.560835 94.460299 
L 496.226568 87.737165 
L 501.892302 92.264335 
L 507.558035 89.72384 
L 513.223769 84.002828 
L 518.889502 88.889671 
L 524.555235 97.269784 
L 530.220969 91.757083 
L 535.886702 89.292144 
L 541.552436 86.334692 
L 547.218169 87.256618 
L 552.883902 89.645339 
L 558.549636 89.851138 
L 564.215369 84.828316 
L 569.881103 91.710929 
L 575.546836 96.075066 
L 581.212569 89.269612 
L 586.878303 95.7484 
L 592.544036 88.299673 
L 598.20977 93.350695 
L 603.875503 80.521322 
L 609.541236 83.645771 
L 615.20697 88.470827 
L 620.872703 88.110749 
L 626.538437 85.345234 
" clip-path="url(#p0a8dc81181)" style="fill: none; stroke: #008000; stroke-opacity: 0.2; stroke-linecap: round"/>
   </g>
   <g id="line2d_25">
    <path d="M 65.63083 57.0062 
L 71.296563 63.398366 
L 76.962297 77.746912 
L 82.62803 98.30637 
L 88.293764 125.011481 
L 93.959497 162.719637 
L 99.62523 197.563961 
L 105.290964 218.061659 
L 110.956697 239.512274 
L 116.622431 262.878357 
L 122.288164 271.700102 
L 127.953897 282.269179 
L 133.619631 290.355297 
L 139.285364 301.966608 
L 144.951098 308.151166 
L 150.616831 317.935786 
L 156.282564 313.330135 
L 161.948298 306.569444 
L 167.614031 305.731854 
L 173.279765 318.567381 
L 178.945498 320.099393 
L 184.611231 319.212852 
L 190.276965 326.668028 
L 195.942698 323.432754 
L 201.608432 326.175089 
L 207.274165 322.870709 
L 212.939898 327.939118 
L 218.605632 334.476906 
L 224.271365 334.967067 
L 229.937099 341.846 
L 235.602832 343.863572 
L 241.268565 347.660066 
L 246.934299 352.009909 
L 252.600032 348.002886 
L 258.265766 347.653187 
L 263.931499 348.313179 
L 269.597232 358.916794 
L 275.262966 357.178756 
L 280.928699 354.36553 
L 286.594433 362.22548 
L 292.260166 364.757469 
L 297.925899 365.772152 
L 303.591633 371.06103 
L 309.257366 368.459043 
L 314.9231 368.871379 
L 320.588833 367.434703 
L 326.254566 366.165654 
L 331.9203 368.34157 
L 337.586033 371.561979 
L 343.251767 370.526875 
L 348.9175 377.597759 
L 354.583233 369.97095 
L 360.248967 375.842918 
L 365.9147 377.414022 
L 371.580434 376.878293 
L 377.246167 378.142776 
L 382.9119 370.854076 
L 388.577634 378.10434 
L 394.243367 377.916824 
L 399.909101 373.877411 
L 405.574834 377.149754 
L 411.240567 376.338962 
L 416.906301 375.267998 
L 422.572034 379.154478 
L 428.237768 376.532911 
L 433.903501 378.053454 
L 439.569234 375.560557 
L 445.234968 377.062294 
L 450.900701 375.717753 
L 456.566435 374.244663 
L 462.232168 376.547303 
L 467.897901 381.150062 
L 473.563635 382.363403 
L 479.229368 379.329143 
L 484.895102 378.670831 
L 490.560835 381.980184 
L 496.226568 380.671883 
L 501.892302 380.695763 
L 507.558035 383.611026 
L 513.223769 384.919975 
L 518.889502 386.445548 
L 524.555235 384.474438 
L 530.220969 384.957622 
L 535.886702 390.04 
L 541.552436 387.73395 
L 547.218169 385.316527 
L 552.883902 384.178043 
L 558.549636 389.333114 
L 564.215369 387.761852 
L 569.881103 387.590939 
L 575.546836 383.720948 
L 581.212569 384.033192 
L 586.878303 385.942879 
L 592.544036 385.950681 
L 598.20977 383.61108 
L 603.875503 385.289799 
L 609.541236 385.250353 
L 615.20697 381.547565 
L 620.872703 382.085365 
L 626.538437 373.735419 
" clip-path="url(#p0a8dc81181)" style="fill: none; stroke: #7b3ab8; stroke-linecap: round"/>
   </g>
   <g id="patch_3">
    <path d="M 65.63 390.04 
L 65.63 57.0062 
" style="fill: none; stroke: #ffffff; stroke-width: 0.8; stroke-linejoin: miter; stroke-linecap: square"/>
   </g>
   <g id="patch_4">
    <path d="M 632.205 390.04 
L 632.205 57.0062 
" style="fill: none; stroke: #ffffff; stroke-width: 0.8; stroke-linejoin: miter; stroke-linecap: square"/>
   </g>
   <g id="patch_5">
    <path d="M 65.63 390.04 
L 632.205 390.04 
" style="fill: none; stroke: #ffffff; stroke-width: 0.8; stroke-linejoin: miter; stroke-linecap: square"/>
   </g>
   <g id="patch_6">
    <path d="M 65.63 57.0062 
L 632.205 57.0062 
" style="fill: none; stroke: #ffffff; stroke-width: 0.8; stroke-linejoin: miter; stroke-linecap: square"/>
   </g>
   <g id="legend_1">
    <g id="line2d_26">
     <path d="M 97.385341 41.274494 
L 105.715341 41.274494 
L 114.045341 41.274494 
" style="fill: none; stroke: #0000ff; stroke-width: 1.5; stroke-linecap: round"/>
    </g>
    <g id="text_22">
     <!-- Mean Reward -->
     <g style="fill: #262626" transform="translate(120.709341 44.189994) scale(0.0833 -0.0833)">
      <defs>
       <path id="DejaVuSans-4d" d="M 628 4666 
L 1569 4666 
L 2759 1491 
L 3956 4666 
L 4897 4666 
L 4897 0 
L 4281 0 
L 4281 4097 
L 3078 897 
L 2444 897 
L 1241 4097 
L 1241 0 
L 628 0 
L 628 4666 
z
" transform="scale(0.015625)"/>
       <path id="DejaVuSans-6e" d="M 3513 2113 
L 3513 0 
L 2938 0 
L 2938 2094 
Q 2938 2591 2744 2837 
Q 2550 3084 2163 3084 
Q 1697 3084 1428 2787 
Q 1159 2491 1159 1978 
L 1159 0 
L 581 0 
L 581 3500 
L 1159 3500 
L 1159 2956 
Q 1366 3272 1645 3428 
Q 1925 3584 2291 3584 
Q 2894 3584 3203 3211 
Q 3513 2838 3513 2113 
z
" transform="scale(0.015625)"/>
       <path id="DejaVuSans-20" transform="scale(0.015625)"/>
      </defs>
      <use xlink:href="#DejaVuSans-4d"/>
      <use xlink:href="#DejaVuSans-65" transform="translate(86.279297 0)"/>
      <use xlink:href="#DejaVuSans-61" transform="translate(147.802734 0)"/>
      <use xlink:href="#DejaVuSans-6e" transform="translate(209.082031 0)"/>
      <use xlink:href="#DejaVuSans-20" transform="translate(272.460938 0)"/>
      <use xlink:href="#DejaVuSans-52" transform="translate(304.248047 0)"/>
      <use xlink:href="#DejaVuSans-65" transform="translate(369.230469 0)"/>
      <use xlink:href="#DejaVuSans-77" transform="translate(430.753906 0)"/>
      <use xlink:href="#DejaVuSans-61" transform="translate(512.541016 0)"/>
      <use xlink:href="#DejaVuSans-72" transform="translate(573.820312 0)"/>
      <use xlink:href="#DejaVuSans-64" transform="translate(613.183594 0)"/>
     </g>
    </g>
    <g id="line2d_27">
     <path d="M 193.736108 41.274494 
L 202.066108 41.274494 
L 210.396108 41.274494 
" style="fill: none; stroke: #008000; stroke-opacity: 0.2; stroke-linecap: round"/>
    </g>
    <g id="text_23">
     <!-- Reward (individual runs) -->
     <g style="fill: #262626" transform="translate(217.060108 44.189994) scale(0.0833 -0.0833)">
      <defs>
       <path id="DejaVuSans-28" d="M 1984 4856 
Q 1566 4138 1362 3434 
Q 1159 2731 1159 2009 
Q 1159 1288 1364 580 
Q 1569 -128 1984 -844 
L 1484 -844 
Q 1016 -109 783 600 
Q 550 1309 550 2009 
Q 550 2706 781 3412 
Q 1013 4119 1484 4856 
L 1984 4856 
z
" transform="scale(0.015625)"/>
       <path id="DejaVuSans-69" d="M 603 3500 
L 1178 3500 
L 1178 0 
L 603 0 
L 603 3500 
z
M 603 4863 
L 1178 4863 
L 1178 4134 
L 603 4134 
L 603 4863 
z
" transform="scale(0.015625)"/>
       <path id="DejaVuSans-76" d="M 191 3500 
L 800 3500 
L 1894 563 
L 2988 3500 
L 3597 3500 
L 2284 0 
L 1503 0 
L 191 3500 
z
" transform="scale(0.015625)"/>
       <path id="DejaVuSans-75" d="M 544 1381 
L 544 3500 
L 1119 3500 
L 1119 1403 
Q 1119 906 1312 657 
Q 1506 409 1894 409 
Q 2359 409 2629 706 
Q 2900 1003 2900 1516 
L 2900 3500 
L 3475 3500 
L 3475 0 
L 2900 0 
L 2900 538 
Q 2691 219 2414 64 
Q 2138 -91 1772 -91 
Q 1169 -91 856 284 
Q 544 659 544 1381 
z
M 1991 3584 
L 1991 3584 
z
" transform="scale(0.015625)"/>
       <path id="DejaVuSans-6c" d="M 603 4863 
L 1178 4863 
L 1178 0 
L 603 0 
L 603 4863 
z
" transform="scale(0.015625)"/>
       <path id="DejaVuSans-29" d="M 513 4856 
L 1013 4856 
Q 1481 4119 1714 3412 
Q 1947 2706 1947 2009 
Q 1947 1309 1714 600 
Q 1481 -109 1013 -844 
L 513 -844 
Q 928 -128 1133 580 
Q 1338 1288 1338 2009 
Q 1338 2731 1133 3434 
Q 928 4138 513 4856 
z
" transform="scale(0.015625)"/>
      </defs>
      <use xlink:href="#DejaVuSans-52"/>
      <use xlink:href="#DejaVuSans-65" transform="translate(64.982422 0)"/>
      <use xlink:href="#DejaVuSans-77" transform="translate(126.505859 0)"/>
      <use xlink:href="#DejaVuSans-61" transform="translate(208.292969 0)"/>
      <use xlink:href="#DejaVuSans-72" transform="translate(269.572266 0)"/>
      <use xlink:href="#DejaVuSans-64" transform="translate(308.935547 0)"/>
      <use xlink:href="#DejaVuSans-20" transform="translate(372.412109 0)"/>
      <use xlink:href="#DejaVuSans-28" transform="translate(404.199219 0)"/>
      <use xlink:href="#DejaVuSans-69" transform="translate(443.212891 0)"/>
      <use xlink:href="#DejaVuSans-6e" transform="translate(470.996094 0)"/>
      <use xlink:href="#DejaVuSans-64" transform="translate(534.375 0)"/>
      <use xlink:href="#DejaVuSans-69" transform="translate(597.851562 0)"/>
      <use xlink:href="#DejaVuSans-76" transform="translate(625.634766 0)"/>
      <use xlink:href="#DejaVuSans-69" transform="translate(684.814453 0)"/>
      <use xlink:href="#DejaVuSans-64" transform="translate(712.597656 0)"/>
      <use xlink:href="#DejaVuSans-75" transform="translate(776.074219 0)"/>
      <use xlink:href="#DejaVuSans-61" transform="translate(839.453125 0)"/>
      <use xlink:href="#DejaVuSans-6c" transform="translate(900.732422 0)"/>
      <use xlink:href="#DejaVuSans-20" transform="translate(928.515625 0)"/>
      <use xlink:href="#DejaVuSans-72" transform="translate(960.302734 0)"/>
      <use xlink:href="#DejaVuSans-75" transform="translate(1001.416016 0)"/>
      <use xlink:href="#DejaVuSans-6e" transform="translate(1064.794922 0)"/>
      <use xlink:href="#DejaVuSans-73" transform="translate(1128.173828 0)"/>
      <use xlink:href="#DejaVuSans-29" transform="translate(1180.273438 0)"/>
     </g>
    </g>
    <g id="line2d_28">
     <path d="M 335.286236 41.274494 
L 343.616236 41.274494 
L 351.946236 41.274494 
" style="fill: none; stroke: #7b3ab8; stroke-linecap: round"/>
    </g>
    <g id="text_24">
     <!-- Entropy (normalized) -->
     <g style="fill: #262626" transform="translate(358.610236 44.189994) scale(0.0833 -0.0833)">
      <defs>
       <path id="DejaVuSans-45" d="M 628 4666 
L 3578 4666 
L 3578 4134 
L 1259 4134 
L 1259 2753 
L 3481 2753 
L 3481 2222 
L 1259 2222 
L 1259 531 
L 3634 531 
L 3634 0 
L 628 0 
L 628 4666 
z
" transform="scale(0.015625)"/>
       <path id="DejaVuSans-6f" d="M 1959 3097 
Q 1497 3097 1228 2736 
Q 959 2375 959 1747 
Q 959 1119 1226 758 
Q 1494 397 1959 397 
Q 2419 397 2687 759 
Q 2956 1122 2956 1747 
Q 2956 2369 2687 2733 
Q 2419 3097 1959 3097 
z
M 1959 3584 
Q 2709 3584 3137 3096 
Q 3566 2609 3566 1747 
Q 3566 888 3137 398 
Q 2709 -91 1959 -91 
Q 1206 -91 779 398 
Q 353 888 353 1747 
Q 353 2609 779 3096 
Q 1206 3584 1959 3584 
z
" transform="scale(0.015625)"/>
       <path id="DejaVuSans-79" d="M 2059 -325 
Q 1816 -950 1584 -1140 
Q 1353 -1331 966 -1331 
L 506 -1331 
L 506 -850 
L 844 -850 
Q 1081 -850 1212 -737 
Q 1344 -625 1503 -206 
L 1606 56 
L 191 3500 
L 800 3500 
L 1894 763 
L 2988 3500 
L 3597 3500 
L 2059 -325 
z
" transform="scale(0.015625)"/>
       <path id="DejaVuSans-6d" d="M 3328 2828 
Q 3544 3216 3844 3400 
Q 4144 3584 4550 3584 
Q 5097 3584 5394 3201 
Q 5691 2819 5691 2113 
L 5691 0 
L 5113 0 
L 5113 2094 
Q 5113 2597 4934 2840 
Q 4756 3084 4391 3084 
Q 3944 3084 3684 2787 
Q 3425 2491 3425 1978 
L 3425 0 
L 2847 0 
L 2847 2094 
Q 2847 2600 2669 2842 
Q 2491 3084 2119 3084 
Q 1678 3084 1418 2786 
Q 1159 2488 1159 1978 
L 1159 0 
L 581 0 
L 581 3500 
L 1159 3500 
L 1159 2956 
Q 1356 3278 1631 3431 
Q 1906 3584 2284 3584 
Q 2666 3584 2933 3390 
Q 3200 3197 3328 2828 
z
" transform="scale(0.015625)"/>
       <path id="DejaVuSans-7a" d="M 353 3500 
L 3084 3500 
L 3084 2975 
L 922 459 
L 3084 459 
L 3084 0 
L 275 0 
L 275 525 
L 2438 3041 
L 353 3041 
L 353 3500 
z
" transform="scale(0.015625)"/>
      </defs>
      <use xlink:href="#DejaVuSans-45"/>
      <use xlink:href="#DejaVuSans-6e" transform="translate(63.183594 0)"/>
      <use xlink:href="#DejaVuSans-74" transform="translate(126.5625 0)"/>
      <use xlink:href="#DejaVuSans-72" transform="translate(165.771484 0)"/>
      <use xlink:href="#DejaVuSans-6f" transform="translate(204.634766 0)"/>
      <use xlink:href="#DejaVuSans-70" transform="translate(265.816406 0)"/>
      <use xlink:href="#DejaVuSans-79" transform="translate(329.292969 0)"/>
      <use xlink:href="#DejaVuSans-20" transform="translate(388.472656 0)"/>
      <use xlink:href="#DejaVuSans-28" transform="translate(420.259766 0)"/>
      <use xlink:href="#DejaVuSans-6e" transform="translate(459.273438 0)"/>
      <use xlink:href="#DejaVuSans-6f" transform="translate(522.652344 0)"/>
      <use xlink:href="#DejaVuSans-72" transform="translate(583.833984 0)"/>
      <use xlink:href="#DejaVuSans-6d" transform="translate(623.197266 0)"/>
      <use xlink:href="#DejaVuSans-61" transform="translate(720.609375 0)"/>
      <use xlink:href="#DejaVuSans-6c" transform="translate(781.888672 0)"/>
      <use xlink:href="#DejaVuSans-69" transform="translate(809.671875 0)"/>
      <use xlink:href="#DejaVuSans-7a" transform="translate(837.455078 0)"/>
      <use xlink:href="#DejaVuSans-65" transform="translate(889.945312 0)"/>
      <use xlink:href="#DejaVuSans-64" transform="translate(951.46875 0)"/>
      <use xlink:href="#DejaVuSans-29" transform="translate(1014.945312 0)"/>
     </g>
    </g>
    <g id="patch_7">
     <path d="M 463.065833 44.189994 
L 479.725833 44.189994 
L 479.725833 38.358994 
L 463.065833 38.358994 
z
" style="fill: #0000ff; fill-opacity: 0.1"/>
    </g>
    <g id="text_25">
     <!-- Reward Standard Deviation -->
     <g style="fill: #262626" transform="translate(486.389833 44.189994) scale(0.0833 -0.0833)">
      <defs>
       <path id="DejaVuSans-44" d="M 1259 4147 
L 1259 519 
L 2022 519 
Q 2988 519 3436 956 
Q 3884 1394 3884 2338 
Q 3884 3275 3436 3711 
Q 2988 4147 2022 4147 
L 1259 4147 
z
M 628 4666 
L 1925 4666 
Q 3281 4666 3915 4102 
Q 4550 3538 4550 2338 
Q 4550 1131 3912 565 
Q 3275 0 1925 0 
L 628 0 
L 628 4666 
z
" transform="scale(0.015625)"/>
      </defs>
      <use xlink:href="#DejaVuSans-52"/>
      <use xlink:href="#DejaVuSans-65" transform="translate(64.982422 0)"/>
      <use xlink:href="#DejaVuSans-77" transform="translate(126.505859 0)"/>
      <use xlink:href="#DejaVuSans-61" transform="translate(208.292969 0)"/>
      <use xlink:href="#DejaVuSans-72" transform="translate(269.572266 0)"/>
      <use xlink:href="#DejaVuSans-64" transform="translate(308.935547 0)"/>
      <use xlink:href="#DejaVuSans-20" transform="translate(372.412109 0)"/>
      <use xlink:href="#DejaVuSans-53" transform="translate(404.199219 0)"/>
      <use xlink:href="#DejaVuSans-74" transform="translate(467.675781 0)"/>
      <use xlink:href="#DejaVuSans-61" transform="translate(506.884766 0)"/>
      <use xlink:href="#DejaVuSans-6e" transform="translate(568.164062 0)"/>
      <use xlink:href="#DejaVuSans-64" transform="translate(631.542969 0)"/>
      <use xlink:href="#DejaVuSans-61" transform="translate(695.019531 0)"/>
      <use xlink:href="#DejaVuSans-72" transform="translate(756.298828 0)"/>
      <use xlink:href="#DejaVuSans-64" transform="translate(795.662109 0)"/>
      <use xlink:href="#DejaVuSans-20" transform="translate(859.138672 0)"/>
      <use xlink:href="#DejaVuSans-44" transform="translate(890.925781 0)"/>
      <use xlink:href="#DejaVuSans-65" transform="translate(967.927734 0)"/>
      <use xlink:href="#DejaVuSans-76" transform="translate(1029.451172 0)"/>
      <use xlink:href="#DejaVuSans-69" transform="translate(1088.630859 0)"/>
      <use xlink:href="#DejaVuSans-61" transform="translate(1116.414062 0)"/>
      <use xlink:href="#DejaVuSans-74" transform="translate(1177.693359 0)"/>
      <use xlink:href="#DejaVuSans-69" transform="translate(1216.902344 0)"/>
      <use xlink:href="#DejaVuSans-6f" transform="translate(1244.685547 0)"/>
      <use xlink:href="#DejaVuSans-6e" transform="translate(1305.867188 0)"/>
     </g>
    </g>
   </g>
  </g>
  <g id="text_26">
   <!-- Rewards: Pendulum-v1 (Discretized) | CMU-Net (Alignment + Margin) -->
   <g style="fill: #262626" transform="translate(89.1675 17.810625) scale(0.12 -0.12)">
    <defs>
     <path id="DejaVuSans-Bold-52" d="M 2297 2597 
Q 2675 2597 2839 2737 
Q 3003 2878 3003 3200 
Q 3003 3519 2839 3656 
Q 2675 3794 2297 3794 
L 1791 3794 
L 1791 2597 
L 2297 2597 
z
M 1791 1766 
L 1791 0 
L 588 0 
L 588 4666 
L 2425 4666 
Q 3347 4666 3776 4356 
Q 4206 4047 4206 3378 
Q 4206 2916 3982 2619 
Q 3759 2322 3309 2181 
Q 3556 2125 3751 1926 
Q 3947 1728 4147 1325 
L 4800 0 
L 3519 0 
L 2950 1159 
Q 2778 1509 2601 1637 
Q 2425 1766 2131 1766 
L 1791 1766 
z
" transform="scale(0.015625)"/>
     <path id="DejaVuSans-Bold-65" d="M 4031 1759 
L 4031 1441 
L 1416 1441 
Q 1456 1047 1700 850 
Q 1944 653 2381 653 
Q 2734 653 3104 758 
Q 3475 863 3866 1075 
L 3866 213 
Q 3469 63 3072 -14 
Q 2675 -91 2278 -91 
Q 1328 -91 801 392 
Q 275 875 275 1747 
Q 275 2603 792 3093 
Q 1309 3584 2216 3584 
Q 3041 3584 3536 3087 
Q 4031 2591 4031 1759 
z
M 2881 2131 
Q 2881 2450 2695 2645 
Q 2509 2841 2209 2841 
Q 1884 2841 1681 2658 
Q 1478 2475 1428 2131 
L 2881 2131 
z
" transform="scale(0.015625)"/>
     <path id="DejaVuSans-Bold-77" d="M 225 3500 
L 1313 3500 
L 1900 1088 
L 2491 3500 
L 3425 3500 
L 4013 1113 
L 4603 3500 
L 5691 3500 
L 4769 0 
L 3547 0 
L 2956 2406 
L 2369 0 
L 1147 0 
L 225 3500 
z
" transform="scale(0.015625)"/>
     <path id="DejaVuSans-Bold-61" d="M 2106 1575 
Q 1756 1575 1579 1456 
Q 1403 1338 1403 1106 
Q 1403 894 1545 773 
Q 1688 653 1941 653 
Q 2256 653 2472 879 
Q 2688 1106 2688 1447 
L 2688 1575 
L 2106 1575 
z
M 3816 1997 
L 3816 0 
L 2688 0 
L 2688 519 
Q 2463 200 2181 54 
Q 1900 -91 1497 -91 
Q 953 -91 614 226 
Q 275 544 275 1050 
Q 275 1666 698 1953 
Q 1122 2241 2028 2241 
L 2688 2241 
L 2688 2328 
Q 2688 2594 2478 2717 
Q 2269 2841 1825 2841 
Q 1466 2841 1156 2769 
Q 847 2697 581 2553 
L 581 3406 
Q 941 3494 1303 3539 
Q 1666 3584 2028 3584 
Q 2975 3584 3395 3211 
Q 3816 2838 3816 1997 
z
" transform="scale(0.015625)"/>
     <path id="DejaVuSans-Bold-72" d="M 3138 2547 
Q 2991 2616 2845 2648 
Q 2700 2681 2553 2681 
Q 2122 2681 1889 2404 
Q 1656 2128 1656 1613 
L 1656 0 
L 538 0 
L 538 3500 
L 1656 3500 
L 1656 2925 
Q 1872 3269 2151 3426 
Q 2431 3584 2822 3584 
Q 2878 3584 2943 3579 
Q 3009 3575 3134 3559 
L 3138 2547 
z
" transform="scale(0.015625)"/>
     <path id="DejaVuSans-Bold-64" d="M 2919 2988 
L 2919 4863 
L 4044 4863 
L 4044 0 
L 2919 0 
L 2919 506 
Q 2688 197 2409 53 
Q 2131 -91 1766 -91 
Q 1119 -91 703 423 
Q 288 938 288 1747 
Q 288 2556 703 3070 
Q 1119 3584 1766 3584 
Q 2128 3584 2408 3439 
Q 2688 3294 2919 2988 
z
M 2181 722 
Q 2541 722 2730 984 
Q 2919 1247 2919 1747 
Q 2919 2247 2730 2509 
Q 2541 2772 2181 2772 
Q 1825 2772 1636 2509 
Q 1447 2247 1447 1747 
Q 1447 1247 1636 984 
Q 1825 722 2181 722 
z
" transform="scale(0.015625)"/>
     <path id="DejaVuSans-Bold-73" d="M 3272 3391 
L 3272 2541 
Q 2913 2691 2578 2766 
Q 2244 2841 1947 2841 
Q 1628 2841 1473 2761 
Q 1319 2681 1319 2516 
Q 1319 2381 1436 2309 
Q 1553 2238 1856 2203 
L 2053 2175 
Q 2913 2066 3209 1816 
Q 3506 1566 3506 1031 
Q 3506 472 3093 190 
Q 2681 -91 1863 -91 
Q 1516 -91 1145 -36 
Q 775 19 384 128 
L 384 978 
Q 719 816 1070 734 
Q 1422 653 1784 653 
Q 2113 653 2278 743 
Q 2444 834 2444 1013 
Q 2444 1163 2330 1236 
Q 2216 1309 1875 1350 
L 1678 1375 
Q 931 1469 631 1722 
Q 331 1975 331 2491 
Q 331 3047 712 3315 
Q 1094 3584 1881 3584 
Q 2191 3584 2531 3537 
Q 2872 3491 3272 3391 
z
" transform="scale(0.015625)"/>
     <path id="DejaVuSans-Bold-3a" d="M 716 3500 
L 1844 3500 
L 1844 2291 
L 716 2291 
L 716 3500 
z
M 716 1209 
L 1844 1209 
L 1844 0 
L 716 0 
L 716 1209 
z
" transform="scale(0.015625)"/>
     <path id="DejaVuSans-Bold-20" transform="scale(0.015625)"/>
     <path id="DejaVuSans-Bold-50" d="M 588 4666 
L 2584 4666 
Q 3475 4666 3951 4270 
Q 4428 3875 4428 3144 
Q 4428 2409 3951 2014 
Q 3475 1619 2584 1619 
L 1791 1619 
L 1791 0 
L 588 0 
L 588 4666 
z
M 1791 3794 
L 1791 2491 
L 2456 2491 
Q 2806 2491 2997 2661 
Q 3188 2831 3188 3144 
Q 3188 3456 2997 3625 
Q 2806 3794 2456 3794 
L 1791 3794 
z
" transform="scale(0.015625)"/>
     <path id="DejaVuSans-Bold-6e" d="M 4056 2131 
L 4056 0 
L 2931 0 
L 2931 347 
L 2931 1631 
Q 2931 2084 2911 2256 
Q 2891 2428 2841 2509 
Q 2775 2619 2662 2680 
Q 2550 2741 2406 2741 
Q 2056 2741 1856 2470 
Q 1656 2200 1656 1722 
L 1656 0 
L 538 0 
L 538 3500 
L 1656 3500 
L 1656 2988 
Q 1909 3294 2193 3439 
Q 2478 3584 2822 3584 
Q 3428 3584 3742 3212 
Q 4056 2841 4056 2131 
z
" transform="scale(0.015625)"/>
     <path id="DejaVuSans-Bold-75" d="M 500 1363 
L 500 3500 
L 1625 3500 
L 1625 3150 
Q 1625 2866 1622 2436 
Q 1619 2006 1619 1863 
Q 1619 1441 1641 1255 
Q 1663 1069 1716 984 
Q 1784 875 1895 815 
Q 2006 756 2150 756 
Q 2500 756 2700 1025 
Q 2900 1294 2900 1772 
L 2900 3500 
L 4019 3500 
L 4019 0 
L 2900 0 
L 2900 506 
Q 2647 200 2364 54 
Q 2081 -91 1741 -91 
Q 1134 -91 817 281 
Q 500 653 500 1363 
z
" transform="scale(0.015625)"/>
     <path id="DejaVuSans-Bold-6c" d="M 538 4863 
L 1656 4863 
L 1656 0 
L 538 0 
L 538 4863 
z
" transform="scale(0.015625)"/>
     <path id="DejaVuSans-Bold-6d" d="M 3781 2919 
Q 3994 3244 4286 3414 
Q 4578 3584 4928 3584 
Q 5531 3584 5847 3212 
Q 6163 2841 6163 2131 
L 6163 0 
L 5038 0 
L 5038 1825 
Q 5041 1866 5042 1909 
Q 5044 1953 5044 2034 
Q 5044 2406 4934 2573 
Q 4825 2741 4581 2741 
Q 4263 2741 4089 2478 
Q 3916 2216 3909 1719 
L 3909 0 
L 2784 0 
L 2784 1825 
Q 2784 2406 2684 2573 
Q 2584 2741 2328 2741 
Q 2006 2741 1831 2477 
Q 1656 2213 1656 1722 
L 1656 0 
L 531 0 
L 531 3500 
L 1656 3500 
L 1656 2988 
Q 1863 3284 2130 3434 
Q 2397 3584 2719 3584 
Q 3081 3584 3359 3409 
Q 3638 3234 3781 2919 
z
" transform="scale(0.015625)"/>
     <path id="DejaVuSans-Bold-2d" d="M 347 2297 
L 2309 2297 
L 2309 1388 
L 347 1388 
L 347 2297 
z
" transform="scale(0.015625)"/>
     <path id="DejaVuSans-Bold-76" d="M 97 3500 
L 1216 3500 
L 2088 1081 
L 2956 3500 
L 4078 3500 
L 2700 0 
L 1472 0 
L 97 3500 
z
" transform="scale(0.015625)"/>
     <path id="DejaVuSans-Bold-31" d="M 750 831 
L 1813 831 
L 1813 3847 
L 722 3622 
L 722 4441 
L 1806 4666 
L 2950 4666 
L 2950 831 
L 4013 831 
L 4013 0 
L 750 0 
L 750 831 
z
" transform="scale(0.015625)"/>
     <path id="DejaVuSans-Bold-28" d="M 2413 -844 
L 1484 -844 
Q 1006 -72 778 623 
Q 550 1319 550 2003 
Q 550 2688 779 3389 
Q 1009 4091 1484 4856 
L 2413 4856 
Q 2013 4116 1813 3408 
Q 1613 2700 1613 2009 
Q 1613 1319 1811 609 
Q 2009 -100 2413 -844 
z
" transform="scale(0.015625)"/>
     <path id="DejaVuSans-Bold-44" d="M 1791 3756 
L 1791 909 
L 2222 909 
Q 2959 909 3348 1275 
Q 3738 1641 3738 2338 
Q 3738 3031 3350 3393 
Q 2963 3756 2222 3756 
L 1791 3756 
z
M 588 4666 
L 1856 4666 
Q 2919 4666 3439 4514 
Q 3959 4363 4331 4000 
Q 4659 3684 4818 3271 
Q 4978 2859 4978 2338 
Q 4978 1809 4818 1395 
Q 4659 981 4331 666 
Q 3956 303 3431 151 
Q 2906 0 1856 0 
L 588 0 
L 588 4666 
z
" transform="scale(0.015625)"/>
     <path id="DejaVuSans-Bold-69" d="M 538 3500 
L 1656 3500 
L 1656 0 
L 538 0 
L 538 3500 
z
M 538 4863 
L 1656 4863 
L 1656 3950 
L 538 3950 
L 538 4863 
z
" transform="scale(0.015625)"/>
     <path id="DejaVuSans-Bold-63" d="M 3366 3391 
L 3366 2478 
Q 3138 2634 2908 2709 
Q 2678 2784 2431 2784 
Q 1963 2784 1702 2511 
Q 1441 2238 1441 1747 
Q 1441 1256 1702 982 
Q 1963 709 2431 709 
Q 2694 709 2930 787 
Q 3166 866 3366 1019 
L 3366 103 
Q 3103 6 2833 -42 
Q 2563 -91 2291 -91 
Q 1344 -91 809 395 
Q 275 881 275 1747 
Q 275 2613 809 3098 
Q 1344 3584 2291 3584 
Q 2566 3584 2833 3536 
Q 3100 3488 3366 3391 
z
" transform="scale(0.015625)"/>
     <path id="DejaVuSans-Bold-74" d="M 1759 4494 
L 1759 3500 
L 2913 3500 
L 2913 2700 
L 1759 2700 
L 1759 1216 
Q 1759 972 1856 886 
Q 1953 800 2241 800 
L 2816 800 
L 2816 0 
L 1856 0 
Q 1194 0 917 276 
Q 641 553 641 1216 
L 641 2700 
L 84 2700 
L 84 3500 
L 641 3500 
L 641 4494 
L 1759 4494 
z
" transform="scale(0.015625)"/>
     <path id="DejaVuSans-Bold-7a" d="M 366 3500 
L 3419 3500 
L 3419 2719 
L 1575 800 
L 3419 800 
L 3419 0 
L 288 0 
L 288 781 
L 2131 2700 
L 366 2700 
L 366 3500 
z
" transform="scale(0.015625)"/>
     <path id="DejaVuSans-Bold-29" d="M 513 -844 
Q 913 -100 1113 609 
Q 1313 1319 1313 2009 
Q 1313 2700 1113 3408 
Q 913 4116 513 4856 
L 1441 4856 
Q 1916 4091 2145 3389 
Q 2375 2688 2375 2003 
Q 2375 1319 2147 623 
Q 1919 -72 1441 -844 
L 513 -844 
z
" transform="scale(0.015625)"/>
     <path id="DejaVuSans-Bold-7c" d="M 1522 4891 
L 1522 -1509 
L 813 -1509 
L 813 4891 
L 1522 4891 
z
" transform="scale(0.015625)"/>
     <path id="DejaVuSans-Bold-43" d="M 4288 256 
Q 3956 84 3597 -3 
Q 3238 -91 2847 -91 
Q 1681 -91 1000 561 
Q 319 1213 319 2328 
Q 319 3447 1000 4098 
Q 1681 4750 2847 4750 
Q 3238 4750 3597 4662 
Q 3956 4575 4288 4403 
L 4288 3438 
Q 3953 3666 3628 3772 
Q 3303 3878 2944 3878 
Q 2300 3878 1931 3465 
Q 1563 3053 1563 2328 
Q 1563 1606 1931 1193 
Q 2300 781 2944 781 
Q 3303 781 3628 887 
Q 3953 994 4288 1222 
L 4288 256 
z
" transform="scale(0.015625)"/>
     <path id="DejaVuSans-Bold-4d" d="M 588 4666 
L 2119 4666 
L 3181 2169 
L 4250 4666 
L 5778 4666 
L 5778 0 
L 4641 0 
L 4641 3413 
L 3566 897 
L 2803 897 
L 1728 3413 
L 1728 0 
L 588 0 
L 588 4666 
z
" transform="scale(0.015625)"/>
     <path id="DejaVuSans-Bold-55" d="M 588 4666 
L 1791 4666 
L 1791 1869 
Q 1791 1291 1980 1042 
Q 2169 794 2597 794 
Q 3028 794 3217 1042 
Q 3406 1291 3406 1869 
L 3406 4666 
L 4609 4666 
L 4609 1869 
Q 4609 878 4112 393 
Q 3616 -91 2597 -91 
Q 1581 -91 1084 393 
Q 588 878 588 1869 
L 588 4666 
z
" transform="scale(0.015625)"/>
     <path id="DejaVuSans-Bold-4e" d="M 588 4666 
L 1931 4666 
L 3628 1466 
L 3628 4666 
L 4769 4666 
L 4769 0 
L 3425 0 
L 1728 3200 
L 1728 0 
L 588 0 
L 588 4666 
z
" transform="scale(0.015625)"/>
     <path id="DejaVuSans-Bold-41" d="M 3419 850 
L 1538 850 
L 1241 0 
L 31 0 
L 1759 4666 
L 3194 4666 
L 4922 0 
L 3713 0 
L 3419 850 
z
M 1838 1716 
L 3116 1716 
L 2478 3572 
L 1838 1716 
z
" transform="scale(0.015625)"/>
     <path id="DejaVuSans-Bold-67" d="M 2919 594 
Q 2688 288 2409 144 
Q 2131 0 1766 0 
Q 1125 0 706 504 
Q 288 1009 288 1791 
Q 288 2575 706 3076 
Q 1125 3578 1766 3578 
Q 2131 3578 2409 3434 
Q 2688 3291 2919 2981 
L 2919 3500 
L 4044 3500 
L 4044 353 
Q 4044 -491 3511 -936 
Q 2978 -1381 1966 -1381 
Q 1638 -1381 1331 -1331 
Q 1025 -1281 716 -1178 
L 716 -306 
Q 1009 -475 1290 -558 
Q 1572 -641 1856 -641 
Q 2406 -641 2662 -400 
Q 2919 -159 2919 353 
L 2919 594 
z
M 2181 2772 
Q 1834 2772 1640 2515 
Q 1447 2259 1447 1791 
Q 1447 1309 1634 1061 
Q 1822 813 2181 813 
Q 2531 813 2725 1069 
Q 2919 1325 2919 1791 
Q 2919 2259 2725 2515 
Q 2531 2772 2181 2772 
z
" transform="scale(0.015625)"/>
     <path id="DejaVuSans-Bold-2b" d="M 3053 4013 
L 3053 2375 
L 4684 2375 
L 4684 1638 
L 3053 1638 
L 3053 0 
L 2309 0 
L 2309 1638 
L 678 1638 
L 678 2375 
L 2309 2375 
L 2309 4013 
L 3053 4013 
z
" transform="scale(0.015625)"/>
    </defs>
    <use xlink:href="#DejaVuSans-Bold-52"/>
    <use xlink:href="#DejaVuSans-Bold-65" transform="translate(77.001953 0)"/>
    <use xlink:href="#DejaVuSans-Bold-77" transform="translate(144.824219 0)"/>
    <use xlink:href="#DejaVuSans-Bold-61" transform="translate(237.207031 0)"/>
    <use xlink:href="#DejaVuSans-Bold-72" transform="translate(304.6875 0)"/>
    <use xlink:href="#DejaVuSans-Bold-64" transform="translate(354.003906 0)"/>
    <use xlink:href="#DejaVuSans-Bold-73" transform="translate(425.585938 0)"/>
    <use xlink:href="#DejaVuSans-Bold-3a" transform="translate(485.107422 0)"/>
    <use xlink:href="#DejaVuSans-Bold-20" transform="translate(525.097656 0)"/>
    <use xlink:href="#DejaVuSans-Bold-50" transform="translate(559.912109 0)"/>
    <use xlink:href="#DejaVuSans-Bold-65" transform="translate(633.203125 0)"/>
    <use xlink:href="#DejaVuSans-Bold-6e" transform="translate(701.025391 0)"/>
    <use xlink:href="#DejaVuSans-Bold-64" transform="translate(772.216797 0)"/>
    <use xlink:href="#DejaVuSans-Bold-75" transform="translate(843.798828 0)"/>
    <use xlink:href="#DejaVuSans-Bold-6c" transform="translate(914.990234 0)"/>
    <use xlink:href="#DejaVuSans-Bold-75" transform="translate(949.267578 0)"/>
    <use xlink:href="#DejaVuSans-Bold-6d" transform="translate(1020.458984 0)"/>
    <use xlink:href="#DejaVuSans-Bold-2d" transform="translate(1124.658203 0)"/>
    <use xlink:href="#DejaVuSans-Bold-76" transform="translate(1166.162109 0)"/>
    <use xlink:href="#DejaVuSans-Bold-31" transform="translate(1231.347656 0)"/>
    <use xlink:href="#DejaVuSans-Bold-20" transform="translate(1300.927734 0)"/>
    <use xlink:href="#DejaVuSans-Bold-28" transform="translate(1335.742188 0)"/>
    <use xlink:href="#DejaVuSans-Bold-44" transform="translate(1381.445312 0)"/>
    <use xlink:href="#DejaVuSans-Bold-69" transform="translate(1464.453125 0)"/>
    <use xlink:href="#DejaVuSans-Bold-73" transform="translate(1498.730469 0)"/>
    <use xlink:href="#DejaVuSans-Bold-63" transform="translate(1558.251953 0)"/>
    <use xlink:href="#DejaVuSans-Bold-72" transform="translate(1617.529297 0)"/>
    <use xlink:href="#DejaVuSans-Bold-65" transform="translate(1666.845703 0)"/>
    <use xlink:href="#DejaVuSans-Bold-74" transform="translate(1734.667969 0)"/>
    <use xlink:href="#DejaVuSans-Bold-69" transform="translate(1782.470703 0)"/>
    <use xlink:href="#DejaVuSans-Bold-7a" transform="translate(1816.748047 0)"/>
    <use xlink:href="#DejaVuSans-Bold-65" transform="translate(1874.951172 0)"/>
    <use xlink:href="#DejaVuSans-Bold-64" transform="translate(1942.773438 0)"/>
    <use xlink:href="#DejaVuSans-Bold-29" transform="translate(2014.355469 0)"/>
    <use xlink:href="#DejaVuSans-Bold-20" transform="translate(2060.058594 0)"/>
    <use xlink:href="#DejaVuSans-Bold-7c" transform="translate(2094.873047 0)"/>
    <use xlink:href="#DejaVuSans-Bold-20" transform="translate(2131.396484 0)"/>
    <use xlink:href="#DejaVuSans-Bold-43" transform="translate(2166.210938 0)"/>
    <use xlink:href="#DejaVuSans-Bold-4d" transform="translate(2239.599609 0)"/>
    <use xlink:href="#DejaVuSans-Bold-55" transform="translate(2339.111328 0)"/>
    <use xlink:href="#DejaVuSans-Bold-2d" transform="translate(2420.3125 0)"/>
    <use xlink:href="#DejaVuSans-Bold-4e" transform="translate(2461.816406 0)"/>
    <use xlink:href="#DejaVuSans-Bold-65" transform="translate(2545.507812 0)"/>
    <use xlink:href="#DejaVuSans-Bold-74" transform="translate(2613.330078 0)"/>
    <use xlink:href="#DejaVuSans-Bold-20" transform="translate(2661.132812 0)"/>
    <use xlink:href="#DejaVuSans-Bold-28" transform="translate(2695.947266 0)"/>
    <use xlink:href="#DejaVuSans-Bold-41" transform="translate(2741.650391 0)"/>
    <use xlink:href="#DejaVuSans-Bold-6c" transform="translate(2819.042969 0)"/>
    <use xlink:href="#DejaVuSans-Bold-69" transform="translate(2853.320312 0)"/>
    <use xlink:href="#DejaVuSans-Bold-67" transform="translate(2887.597656 0)"/>
    <use xlink:href="#DejaVuSans-Bold-6e" transform="translate(2959.179688 0)"/>
    <use xlink:href="#DejaVuSans-Bold-6d" transform="translate(3030.371094 0)"/>
    <use xlink:href="#DejaVuSans-Bold-65" transform="translate(3134.570312 0)"/>
    <use xlink:href="#DejaVuSans-Bold-6e" transform="translate(3202.392578 0)"/>
    <use xlink:href="#DejaVuSans-Bold-74" transform="translate(3273.583984 0)"/>
    <use xlink:href="#DejaVuSans-Bold-20" transform="translate(3321.386719 0)"/>
    <use xlink:href="#DejaVuSans-Bold-2b" transform="translate(3356.201172 0)"/>
    <use xlink:href="#DejaVuSans-Bold-20" transform="translate(3439.990234 0)"/>
    <use xlink:href="#DejaVuSans-Bold-4d" transform="translate(3474.804688 0)"/>
    <use xlink:href="#DejaVuSans-Bold-61" transform="translate(3574.316406 0)"/>
    <use xlink:href="#DejaVuSans-Bold-72" transform="translate(3641.796875 0)"/>
    <use xlink:href="#DejaVuSans-Bold-67" transform="translate(3691.113281 0)"/>
    <use xlink:href="#DejaVuSans-Bold-69" transform="translate(3762.695312 0)"/>
    <use xlink:href="#DejaVuSans-Bold-6e" transform="translate(3796.972656 0)"/>
    <use xlink:href="#DejaVuSans-Bold-29" transform="translate(3868.164062 0)"/>
   </g>
  </g>
 </g>
 <defs>
  <clipPath id="p0a8dc81181">
   <rect x="65.63" y="57.0062" width="566.575" height="333.0338"/>
  </clipPath>
 </defs>
</svg>
