<?xml version="1.0" encoding="utf-8" standalone="no"?>
<!DOCTYPE svg PUBLIC "-//W3C//DTD SVG 1.1//EN"
  "http://www.w3.org/Graphics/SVG/1.1/DTD/svg11.dtd">
<svg xmlns:xlink="http://www.w3.org/1999/xlink" width="648pt" height="432pt" viewBox="0 0 648 432" xmlns="http://www.w3.org/2000/svg" version="1.1">
 <metadata>
  <rdf:RDF xmlns:dc="http://purl.org/dc/elements/1.1/" xmlns:cc="http://creativecommons.org/ns#" xmlns:rdf="http://www.w3.org/1999/02/22-rdf-syntax-ns#">
   <cc:Work>
    <dc:type rdf:resource="http://purl.org/dc/dcmitype/StillImage"/>
    <dc:date>2025-07-31T05:18:22.928976</dc:date>
    <dc:format>image/svg+xml</dc:format>
    <dc:creator>
     <cc:Agent>
      <dc:title>Matplotlib v3.10.0, https://matplotlib.org/</dc:title>
     </cc:Agent>
    </dc:creator>
   </cc:Work>
  </rdf:RDF>
 </metadata>
 <defs>
  <style type="text/css">*{stroke-linejoin: round; stroke-linecap: butt}</style>
 </defs>
 <g id="figure_1">
  <g id="patch_1">
   <path d="M 0 432 
L 648 432 
L 648 0 
L 0 0 
z
" style="fill: #ffffff"/>
  </g>
  <g id="axes_1">
   <g id="patch_2">
    <path d="M 65.14 400.52 
L 620.168508 400.52 
L 620.168508 39.6 
L 65.14 39.6 
z
" style="fill: #eaeaf2"/>
   </g>
   <g id="matplotlib.axis_1">
    <g id="xtick_1">
     <g id="line2d_1">
      <path d="M 75.72205 400.52 
L 75.72205 39.6 
" clip-path="url(#pc1113520d6)" style="fill: none; stroke: #ffffff; stroke-width: 0.8; stroke-linecap: round"/>
     </g>
     <g id="text_1">
      <!-- 0 -->
      <g style="fill: #262626" transform="translate(71.2683 418.157812) scale(0.14 -0.14)">
       <defs>
        <path id="DejaVuSans-30" d="M 2034 4250 
Q 1547 4250 1301 3770 
Q 1056 3291 1056 2328 
Q 1056 1369 1301 889 
Q 1547 409 2034 409 
Q 2525 409 2770 889 
Q 3016 1369 3016 2328 
Q 3016 3291 2770 3770 
Q 2525 4250 2034 4250 
z
M 2034 4750 
Q 2819 4750 3233 4129 
Q 3647 3509 3647 2328 
Q 3647 1150 3233 529 
Q 2819 -91 2034 -91 
Q 1250 -91 836 529 
Q 422 1150 422 2328 
Q 422 3509 836 4129 
Q 1250 4750 2034 4750 
z
" transform="scale(0.015625)"/>
       </defs>
       <use xlink:href="#DejaVuSans-30"/>
      </g>
     </g>
    </g>
    <g id="xtick_2">
     <g id="line2d_2">
      <path d="M 604.824536 400.52 
L 604.824536 39.6 
" clip-path="url(#pc1113520d6)" style="fill: none; stroke: #ffffff; stroke-width: 0.8; stroke-linecap: round"/>
     </g>
     <g id="text_2">
      <!-- 2000000 -->
      <g style="fill: #262626" transform="translate(573.648286 418.157812) scale(0.14 -0.14)">
       <defs>
        <path id="DejaVuSans-32" d="M 1228 531 
L 3431 531 
L 3431 0 
L 469 0 
L 469 531 
Q 828 903 1448 1529 
Q 2069 2156 2228 2338 
Q 2531 2678 2651 2914 
Q 2772 3150 2772 3378 
Q 2772 3750 2511 3984 
Q 2250 4219 1831 4219 
Q 1534 4219 1204 4116 
Q 875 4013 500 3803 
L 500 4441 
Q 881 4594 1212 4672 
Q 1544 4750 1819 4750 
Q 2544 4750 2975 4387 
Q 3406 4025 3406 3419 
Q 3406 3131 3298 2873 
Q 3191 2616 2906 2266 
Q 2828 2175 2409 1742 
Q 1991 1309 1228 531 
z
" transform="scale(0.015625)"/>
       </defs>
       <use xlink:href="#DejaVuSans-32"/>
       <use xlink:href="#DejaVuSans-30" transform="translate(63.623047 0)"/>
       <use xlink:href="#DejaVuSans-30" transform="translate(127.246094 0)"/>
       <use xlink:href="#DejaVuSans-30" transform="translate(190.869141 0)"/>
       <use xlink:href="#DejaVuSans-30" transform="translate(254.492188 0)"/>
       <use xlink:href="#DejaVuSans-30" transform="translate(318.115234 0)"/>
       <use xlink:href="#DejaVuSans-30" transform="translate(381.738281 0)"/>
      </g>
     </g>
    </g>
   </g>
   <g id="matplotlib.axis_2">
    <g id="ytick_1">
     <g id="line2d_3">
      <path d="M 65.14 391.382785 
L 620.168508 391.382785 
" clip-path="url(#pc1113520d6)" style="fill: none; stroke: #ffffff; stroke-width: 0.8; stroke-linecap: round"/>
     </g>
     <g id="text_3">
      <!-- −1500 -->
      <g style="fill: #262626" transform="translate(10.778437 396.701691) scale(0.14 -0.14)">
       <defs>
        <path id="DejaVuSans-2212" d="M 678 2272 
L 4684 2272 
L 4684 1741 
L 678 1741 
L 678 2272 
z
" transform="scale(0.015625)"/>
        <path id="DejaVuSans-31" d="M 794 531 
L 1825 531 
L 1825 4091 
L 703 3866 
L 703 4441 
L 1819 4666 
L 2450 4666 
L 2450 531 
L 3481 531 
L 3481 0 
L 794 0 
L 794 531 
z
" transform="scale(0.015625)"/>
        <path id="DejaVuSans-35" d="M 691 4666 
L 3169 4666 
L 3169 4134 
L 1269 4134 
L 1269 2991 
Q 1406 3038 1543 3061 
Q 1681 3084 1819 3084 
Q 2600 3084 3056 2656 
Q 3513 2228 3513 1497 
Q 3513 744 3044 326 
Q 2575 -91 1722 -91 
Q 1428 -91 1123 -41 
Q 819 9 494 109 
L 494 744 
Q 775 591 1075 516 
Q 1375 441 1709 441 
Q 2250 441 2565 725 
Q 2881 1009 2881 1497 
Q 2881 1984 2565 2268 
Q 2250 2553 1709 2553 
Q 1456 2553 1204 2497 
Q 953 2441 691 2322 
L 691 4666 
z
" transform="scale(0.015625)"/>
       </defs>
       <use xlink:href="#DejaVuSans-2212"/>
       <use xlink:href="#DejaVuSans-31" transform="translate(83.789062 0)"/>
       <use xlink:href="#DejaVuSans-35" transform="translate(147.412109 0)"/>
       <use xlink:href="#DejaVuSans-30" transform="translate(211.035156 0)"/>
       <use xlink:href="#DejaVuSans-30" transform="translate(274.658203 0)"/>
      </g>
     </g>
    </g>
    <g id="ytick_2">
     <g id="line2d_4">
      <path d="M 65.14 322.853671 
L 620.168508 322.853671 
" clip-path="url(#pc1113520d6)" style="fill: none; stroke: #ffffff; stroke-width: 0.8; stroke-linecap: round"/>
     </g>
     <g id="text_4">
      <!-- −1200 -->
      <g style="fill: #262626" transform="translate(10.778437 328.172577) scale(0.14 -0.14)">
       <use xlink:href="#DejaVuSans-2212"/>
       <use xlink:href="#DejaVuSans-31" transform="translate(83.789062 0)"/>
       <use xlink:href="#DejaVuSans-32" transform="translate(147.412109 0)"/>
       <use xlink:href="#DejaVuSans-30" transform="translate(211.035156 0)"/>
       <use xlink:href="#DejaVuSans-30" transform="translate(274.658203 0)"/>
      </g>
     </g>
    </g>
    <g id="ytick_3">
     <g id="line2d_5">
      <path d="M 65.14 254.324557 
L 620.168508 254.324557 
" clip-path="url(#pc1113520d6)" style="fill: none; stroke: #ffffff; stroke-width: 0.8; stroke-linecap: round"/>
     </g>
     <g id="text_5">
      <!-- −900 -->
      <g style="fill: #262626" transform="translate(19.685937 259.643463) scale(0.14 -0.14)">
       <defs>
        <path id="DejaVuSans-39" d="M 703 97 
L 703 672 
Q 941 559 1184 500 
Q 1428 441 1663 441 
Q 2288 441 2617 861 
Q 2947 1281 2994 2138 
Q 2813 1869 2534 1725 
Q 2256 1581 1919 1581 
Q 1219 1581 811 2004 
Q 403 2428 403 3163 
Q 403 3881 828 4315 
Q 1253 4750 1959 4750 
Q 2769 4750 3195 4129 
Q 3622 3509 3622 2328 
Q 3622 1225 3098 567 
Q 2575 -91 1691 -91 
Q 1453 -91 1209 -44 
Q 966 3 703 97 
z
M 1959 2075 
Q 2384 2075 2632 2365 
Q 2881 2656 2881 3163 
Q 2881 3666 2632 3958 
Q 2384 4250 1959 4250 
Q 1534 4250 1286 3958 
Q 1038 3666 1038 3163 
Q 1038 2656 1286 2365 
Q 1534 2075 1959 2075 
z
" transform="scale(0.015625)"/>
       </defs>
       <use xlink:href="#DejaVuSans-2212"/>
       <use xlink:href="#DejaVuSans-39" transform="translate(83.789062 0)"/>
       <use xlink:href="#DejaVuSans-30" transform="translate(147.412109 0)"/>
       <use xlink:href="#DejaVuSans-30" transform="translate(211.035156 0)"/>
      </g>
     </g>
    </g>
    <g id="ytick_4">
     <g id="line2d_6">
      <path d="M 65.14 185.795443 
L 620.168508 185.795443 
" clip-path="url(#pc1113520d6)" style="fill: none; stroke: #ffffff; stroke-width: 0.8; stroke-linecap: round"/>
     </g>
     <g id="text_6">
      <!-- −600 -->
      <g style="fill: #262626" transform="translate(19.685937 191.114349) scale(0.14 -0.14)">
       <defs>
        <path id="DejaVuSans-36" d="M 2113 2584 
Q 1688 2584 1439 2293 
Q 1191 2003 1191 1497 
Q 1191 994 1439 701 
Q 1688 409 2113 409 
Q 2538 409 2786 701 
Q 3034 994 3034 1497 
Q 3034 2003 2786 2293 
Q 2538 2584 2113 2584 
z
M 3366 4563 
L 3366 3988 
Q 3128 4100 2886 4159 
Q 2644 4219 2406 4219 
Q 1781 4219 1451 3797 
Q 1122 3375 1075 2522 
Q 1259 2794 1537 2939 
Q 1816 3084 2150 3084 
Q 2853 3084 3261 2657 
Q 3669 2231 3669 1497 
Q 3669 778 3244 343 
Q 2819 -91 2113 -91 
Q 1303 -91 875 529 
Q 447 1150 447 2328 
Q 447 3434 972 4092 
Q 1497 4750 2381 4750 
Q 2619 4750 2861 4703 
Q 3103 4656 3366 4563 
z
" transform="scale(0.015625)"/>
       </defs>
       <use xlink:href="#DejaVuSans-2212"/>
       <use xlink:href="#DejaVuSans-36" transform="translate(83.789062 0)"/>
       <use xlink:href="#DejaVuSans-30" transform="translate(147.412109 0)"/>
       <use xlink:href="#DejaVuSans-30" transform="translate(211.035156 0)"/>
      </g>
     </g>
    </g>
    <g id="ytick_5">
     <g id="line2d_7">
      <path d="M 65.14 117.266329 
L 620.168508 117.266329 
" clip-path="url(#pc1113520d6)" style="fill: none; stroke: #ffffff; stroke-width: 0.8; stroke-linecap: round"/>
     </g>
     <g id="text_7">
      <!-- −300 -->
      <g style="fill: #262626" transform="translate(19.685937 122.585235) scale(0.14 -0.14)">
       <defs>
        <path id="DejaVuSans-33" d="M 2597 2516 
Q 3050 2419 3304 2112 
Q 3559 1806 3559 1356 
Q 3559 666 3084 287 
Q 2609 -91 1734 -91 
Q 1441 -91 1130 -33 
Q 819 25 488 141 
L 488 750 
Q 750 597 1062 519 
Q 1375 441 1716 441 
Q 2309 441 2620 675 
Q 2931 909 2931 1356 
Q 2931 1769 2642 2001 
Q 2353 2234 1838 2234 
L 1294 2234 
L 1294 2753 
L 1863 2753 
Q 2328 2753 2575 2939 
Q 2822 3125 2822 3475 
Q 2822 3834 2567 4026 
Q 2313 4219 1838 4219 
Q 1578 4219 1281 4162 
Q 984 4106 628 3988 
L 628 4550 
Q 988 4650 1302 4700 
Q 1616 4750 1894 4750 
Q 2613 4750 3031 4423 
Q 3450 4097 3450 3541 
Q 3450 3153 3228 2886 
Q 3006 2619 2597 2516 
z
" transform="scale(0.015625)"/>
       </defs>
       <use xlink:href="#DejaVuSans-2212"/>
       <use xlink:href="#DejaVuSans-33" transform="translate(83.789062 0)"/>
       <use xlink:href="#DejaVuSans-30" transform="translate(147.412109 0)"/>
       <use xlink:href="#DejaVuSans-30" transform="translate(211.035156 0)"/>
      </g>
     </g>
    </g>
    <g id="ytick_6">
     <g id="line2d_8">
      <path d="M 65.14 48.737215 
L 620.168508 48.737215 
" clip-path="url(#pc1113520d6)" style="fill: none; stroke: #ffffff; stroke-width: 0.8; stroke-linecap: round"/>
     </g>
     <g id="text_8">
      <!-- 0 -->
      <g style="fill: #262626" transform="translate(49.2325 54.056121) scale(0.14 -0.14)">
       <use xlink:href="#DejaVuSans-30"/>
      </g>
     </g>
    </g>
   </g>
   <g id="FillBetweenPolyCollection_1">
    <path d="M 75.72205 312.939807 
L 75.72205 338.487389 
L 81.140059 331.112808 
L 86.558069 335.373335 
L 91.976078 318.891326 
L 97.394088 318.769887 
L 102.812097 324.745134 
L 108.230106 311.413472 
L 113.648116 297.210316 
L 119.066125 291.384575 
L 124.484135 299.766059 
L 129.902144 285.306397 
L 135.320154 287.31864 
L 140.738163 266.685648 
L 146.156173 264.905075 
L 151.574182 242.052463 
L 156.992192 237.217175 
L 162.410201 201.08083 
L 167.828211 184.848904 
L 173.24622 155.76355 
L 178.664229 143.185933 
L 184.082239 135.417122 
L 189.500248 142.732488 
L 194.918258 128.276249 
L 200.336267 118.290691 
L 205.754277 133.689724 
L 211.172286 114.863664 
L 216.590296 109.147971 
L 222.008305 122.773988 
L 227.426315 114.228807 
L 232.844324 129.285488 
L 238.262334 136.759255 
L 243.680343 98.176577 
L 249.098352 103.486577 
L 254.516362 108.386991 
L 259.934371 110.93474 
L 265.352381 110.012971 
L 270.77039 102.359841 
L 276.1884 135.49904 
L 281.606409 104.530602 
L 287.024419 112.036156 
L 292.442428 96.292738 
L 297.860438 113.865331 
L 303.278447 117.30247 
L 308.696456 134.156187 
L 314.114466 103.111203 
L 319.532475 90.992469 
L 324.950485 100.775569 
L 330.368494 97.757522 
L 335.786504 90.32016 
L 341.204513 106.273253 
L 346.622523 97.053233 
L 352.040532 89.124891 
L 357.458542 92.763834 
L 362.876551 91.725348 
L 368.294561 90.651304 
L 373.71257 102.645417 
L 379.130579 134.699784 
L 384.548589 115.10846 
L 389.966598 90.646145 
L 395.384608 97.562967 
L 400.802617 102.873363 
L 406.220627 160.995303 
L 411.638636 126.601136 
L 417.056646 148.803405 
L 422.474655 138.143206 
L 427.892665 149.210615 
L 433.310674 120.303066 
L 438.728684 100.272062 
L 444.146693 96.84555 
L 449.564702 122.906968 
L 454.982712 107.085397 
L 460.400721 110.012724 
L 465.818731 112.368049 
L 471.23674 89.613155 
L 476.65475 85.87613 
L 482.072759 89.595545 
L 487.490769 165.450916 
L 492.908778 146.164357 
L 498.326788 118.869866 
L 503.744797 146.524514 
L 509.162806 174.871972 
L 514.580816 140.842859 
L 519.998825 143.694234 
L 525.416835 163.007434 
L 530.834844 154.531983 
L 536.252854 171.304345 
L 541.670863 186.038816 
L 547.088873 168.749907 
L 552.506882 179.589554 
L 557.924892 179.29786 
L 563.342901 166.293471 
L 568.760911 136.033319 
L 574.17892 165.419028 
L 579.596929 134.375563 
L 585.014939 144.208737 
L 590.432948 124.638439 
L 595.850958 129.735277 
L 601.268967 165.789454 
L 606.686977 144.620857 
L 612.104986 138.01735 
L 612.104986 66.688049 
L 612.104986 66.688049 
L 606.686977 62.683321 
L 601.268967 55.12087 
L 595.850958 68.837324 
L 590.432948 66.304106 
L 585.014939 63.042571 
L 579.596929 65.974346 
L 574.17892 55.997412 
L 568.760911 64.746942 
L 563.342901 56.550954 
L 557.924892 55.74001 
L 552.506882 53.029488 
L 547.088873 52.948674 
L 541.670863 59.569295 
L 536.252854 69.108582 
L 530.834844 76.648746 
L 525.416835 59.6437 
L 519.998825 63.841401 
L 514.580816 64.483143 
L 509.162806 60.436626 
L 503.744797 71.133326 
L 498.326788 69.420774 
L 492.908778 59.333656 
L 487.490769 59.219721 
L 482.072759 76.412809 
L 476.65475 78.524566 
L 471.23674 79.218199 
L 465.818731 81.612196 
L 460.400721 78.392466 
L 454.982712 77.53852 
L 449.564702 75.135476 
L 444.146693 82.833483 
L 438.728684 77.511373 
L 433.310674 75.218909 
L 427.892665 63.449052 
L 422.474655 71.604196 
L 417.056646 69.668587 
L 411.638636 75.061745 
L 406.220627 71.067041 
L 400.802617 79.088492 
L 395.384608 79.690093 
L 389.966598 85.402891 
L 384.548589 77.242896 
L 379.130579 73.242667 
L 373.71257 84.508809 
L 368.294561 83.609566 
L 362.876551 80.521514 
L 357.458542 87.17968 
L 352.040532 84.371248 
L 346.622523 80.712102 
L 341.204513 75.980765 
L 335.786504 80.538991 
L 330.368494 82.274527 
L 324.950485 86.046008 
L 319.532475 88.499767 
L 314.114466 90.534088 
L 308.696456 73.389336 
L 303.278447 79.312254 
L 297.860438 93.186336 
L 292.442428 81.769811 
L 287.024419 79.484789 
L 281.606409 84.179398 
L 276.1884 88.607379 
L 270.77039 88.255303 
L 265.352381 82.221229 
L 259.934371 85.97939 
L 254.516362 87.13743 
L 249.098352 91.130801 
L 243.680343 86.222182 
L 238.262334 87.896827 
L 232.844324 92.636399 
L 227.426315 93.482726 
L 222.008305 105.960639 
L 216.590296 95.592865 
L 211.172286 98.837516 
L 205.754277 101.277961 
L 200.336267 99.006606 
L 194.918258 101.085428 
L 189.500248 107.325816 
L 184.082239 112.672407 
L 178.664229 107.87691 
L 173.24622 122.810804 
L 167.828211 122.894558 
L 162.410201 140.26298 
L 156.992192 174.001721 
L 151.574182 204.014913 
L 146.156173 226.283246 
L 140.738163 240.265821 
L 135.320154 232.495845 
L 129.902144 242.311143 
L 124.484135 263.992492 
L 119.066125 260.823105 
L 113.648116 279.725046 
L 108.230106 278.206647 
L 102.812097 291.460125 
L 97.394088 298.270852 
L 91.976078 290.063188 
L 86.558069 300.691002 
L 81.140059 305.335508 
L 75.72205 312.939807 
z
" clip-path="url(#pc1113520d6)" style="fill: #0000ff; fill-opacity: 0.1"/>
   </g>
   <g id="line2d_9">
    <path d="M 75.72205 325.713598 
L 81.140059 318.224158 
L 86.558069 318.032168 
L 91.976078 304.477257 
L 97.394088 308.520369 
L 102.812097 308.102629 
L 108.230106 294.81006 
L 113.648116 288.467681 
L 119.066125 276.10384 
L 124.484135 281.879275 
L 129.902144 263.80877 
L 135.320154 259.907243 
L 140.738163 253.475734 
L 146.156173 245.59416 
L 151.574182 223.033688 
L 156.992192 205.609448 
L 162.410201 170.671905 
L 167.828211 153.871731 
L 173.24622 139.287177 
L 178.664229 125.531421 
L 184.082239 124.044764 
L 189.500248 125.029152 
L 194.918258 114.680838 
L 200.336267 108.648648 
L 205.754277 117.483842 
L 211.172286 106.85059 
L 216.590296 102.370418 
L 222.008305 114.367314 
L 227.426315 103.855767 
L 232.844324 110.960944 
L 238.262334 112.328041 
L 243.680343 92.19938 
L 249.098352 97.308689 
L 254.516362 97.76221 
L 259.934371 98.457065 
L 265.352381 96.1171 
L 270.77039 95.307572 
L 276.1884 112.05321 
L 281.606409 94.355 
L 287.024419 95.760472 
L 292.442428 89.031274 
L 297.860438 103.525833 
L 303.278447 98.307362 
L 308.696456 103.772762 
L 314.114466 96.822645 
L 319.532475 89.746118 
L 324.950485 93.410788 
L 330.368494 90.016024 
L 335.786504 85.429576 
L 341.204513 91.127009 
L 346.622523 88.882667 
L 352.040532 86.74807 
L 357.458542 89.971757 
L 362.876551 86.123431 
L 368.294561 87.130435 
L 373.71257 93.577113 
L 379.130579 103.971225 
L 384.548589 96.175678 
L 389.966598 88.024518 
L 395.384608 88.62653 
L 400.802617 90.980928 
L 406.220627 116.031172 
L 411.638636 100.831441 
L 417.056646 109.235996 
L 422.474655 104.873701 
L 427.892665 106.329833 
L 433.310674 97.760988 
L 438.728684 88.891717 
L 444.146693 89.839516 
L 449.564702 99.021222 
L 454.982712 92.311959 
L 460.400721 94.202595 
L 465.818731 96.990123 
L 471.23674 84.415677 
L 476.65475 82.200348 
L 482.072759 83.004177 
L 487.490769 112.335319 
L 492.908778 102.749006 
L 498.326788 94.14532 
L 503.744797 108.82892 
L 509.162806 117.654299 
L 514.580816 102.663001 
L 519.998825 103.767817 
L 525.416835 111.325567 
L 530.834844 115.590364 
L 536.252854 120.206463 
L 541.670863 122.804056 
L 547.088873 110.849291 
L 552.506882 116.309521 
L 557.924892 117.518935 
L 563.342901 111.422212 
L 568.760911 100.390131 
L 574.17892 110.70822 
L 579.596929 100.174954 
L 585.014939 103.625654 
L 590.432948 95.471273 
L 595.850958 99.286301 
L 601.268967 110.455162 
L 606.686977 103.652089 
L 612.104986 102.352699 
" clip-path="url(#pc1113520d6)" style="fill: none; stroke: #0000ff; stroke-width: 2; stroke-linecap: round"/>
   </g>
   <g id="line2d_10">
    <path d="M 75.72205 336.97182 
L 81.140059 331.624602 
L 86.558069 337.085498 
L 91.976078 309.581988 
L 97.394088 323.136482 
L 102.812097 335.741487 
L 108.230106 299.003986 
L 113.648116 297.287921 
L 119.066125 280.300308 
L 124.484135 307.652876 
L 129.902144 304.089458 
L 135.320154 308.121282 
L 140.738163 274.99728 
L 146.156173 257.945647 
L 151.574182 239.218774 
L 156.992192 225.97485 
L 162.410201 201.665827 
L 167.828211 158.641351 
L 173.24622 135.796653 
L 178.664229 105.033843 
L 184.082239 107.715079 
L 189.500248 104.726802 
L 194.918258 103.162574 
L 200.336267 93.043616 
L 205.754277 107.840154 
L 211.172286 97.170513 
L 216.590296 91.729279 
L 222.008305 119.720122 
L 227.426315 92.561634 
L 232.844324 96.232361 
L 238.262334 115.944593 
L 243.680343 97.64767 
L 249.098352 91.75563 
L 254.516362 111.882076 
L 259.934371 120.365497 
L 265.352381 92.681923 
L 270.77039 89.222245 
L 276.1884 150.024717 
L 281.606409 82.644454 
L 287.024419 98.959663 
L 292.442428 87.574041 
L 297.860438 97.690803 
L 303.278447 93.581022 
L 308.696456 88.218799 
L 314.114466 103.268037 
L 319.532475 92.045873 
L 324.950485 86.611648 
L 330.368494 84.027821 
L 335.786504 87.010307 
L 341.204513 82.22821 
L 346.622523 101.351409 
L 352.040532 89.26135 
L 357.458542 90.29417 
L 362.876551 92.657649 
L 368.294561 85.894331 
L 373.71257 99.155934 
L 379.130579 165.045768 
L 384.548589 133.156566 
L 389.966598 91.868199 
L 395.384608 96.363263 
L 400.802617 86.859334 
L 406.220627 96.555527 
L 411.638636 85.233961 
L 417.056646 94.873531 
L 422.474655 98.908376 
L 427.892665 87.110325 
L 433.310674 85.27719 
L 438.728684 86.579288 
L 444.146693 87.961265 
L 449.564702 93.052082 
L 454.982712 87.034862 
L 460.400721 86.571865 
L 465.818731 102.372103 
L 471.23674 88.391436 
L 476.65475 84.978462 
L 482.072759 92.303205 
L 487.490769 85.091937 
L 492.908778 81.574869 
L 498.326788 86.035518 
L 503.744797 78.510811 
L 509.162806 84.829022 
L 514.580816 95.175964 
L 519.998825 87.682918 
L 525.416835 85.390401 
L 530.834844 80.925888 
L 536.252854 83.014656 
L 541.670863 85.700426 
L 547.088873 86.847376 
L 552.506882 78.843362 
L 557.924892 88.726165 
L 563.342901 90.245351 
L 568.760911 84.874927 
L 574.17892 90.32283 
L 579.596929 82.751208 
L 585.014939 89.407665 
L 590.432948 78.041744 
L 595.850958 78.300553 
L 601.268967 85.966419 
L 606.686977 82.895422 
L 612.104986 87.115245 
" clip-path="url(#pc1113520d6)" style="fill: none; stroke: #008000; stroke-opacity: 0.27; stroke-width: 1.25; stroke-linecap: round"/>
   </g>
   <g id="line2d_11">
    <path d="M 75.72205 323.587886 
L 81.140059 335.960593 
L 86.558069 294.917572 
L 91.976078 289.395971 
L 97.394088 310.999484 
L 102.812097 299.416532 
L 108.230106 296.655666 
L 113.648116 279.785451 
L 119.066125 255.295942 
L 124.484135 269.692137 
L 129.902144 250.803512 
L 135.320154 237.195058 
L 140.738163 238.365437 
L 146.156173 220.738044 
L 151.574182 196.458475 
L 156.992192 164.658834 
L 162.410201 141.362309 
L 167.828211 124.28537 
L 173.24622 150.869138 
L 178.664229 116.403728 
L 184.082239 129.155188 
L 189.500248 108.188754 
L 194.918258 103.786133 
L 200.336267 115.861858 
L 205.754277 120.886473 
L 211.172286 101.155032 
L 216.590296 104.625645 
L 222.008305 119.449621 
L 227.426315 105.425385 
L 232.844324 98.058175 
L 238.262334 101.224084 
L 243.680343 90.574414 
L 249.098352 90.884761 
L 254.516362 90.104745 
L 259.934371 95.222152 
L 265.352381 93.930778 
L 270.77039 97.998599 
L 276.1884 87.165301 
L 281.606409 86.242308 
L 287.024419 91.715062 
L 292.442428 87.791634 
L 297.860438 100.320469 
L 303.278447 87.652537 
L 308.696456 86.261883 
L 314.114466 93.7367 
L 319.532475 88.673347 
L 324.950485 94.386213 
L 330.368494 103.256098 
L 335.786504 92.68744 
L 341.204513 89.647289 
L 346.622523 77.042757 
L 352.040532 83.169192 
L 357.458542 93.609231 
L 362.876551 83.126624 
L 368.294561 82.750057 
L 373.71257 79.493465 
L 379.130579 89.80162 
L 384.548589 86.363805 
L 389.966598 86.400583 
L 395.384608 78.603351 
L 400.802617 79.314494 
L 406.220627 203.708931 
L 411.638636 151.867018 
L 417.056646 188.021156 
L 422.474655 170.217157 
L 427.892665 191.549571 
L 433.310674 142.245727 
L 438.728684 110.779891 
L 444.146693 103.695441 
L 449.564702 146.367918 
L 454.982712 121.619648 
L 460.400721 124.785831 
L 465.818731 124.236894 
L 471.23674 89.765028 
L 476.65475 80.838647 
L 482.072759 81.679277 
L 487.490769 218.519583 
L 492.908778 189.51499 
L 498.326788 143.07312 
L 503.744797 180.013233 
L 509.162806 230.229733 
L 514.580816 178.006127 
L 519.998825 183.520866 
L 525.416835 214.609025 
L 530.834844 152.629644 
L 536.252854 218.609116 
L 541.670863 245.599375 
L 547.088873 226.518751 
L 552.506882 242.55429 
L 557.924892 240.992946 
L 563.342901 220.970382 
L 568.760911 171.486234 
L 574.17892 219.842429 
L 579.596929 168.291766 
L 585.014939 184.548315 
L 590.432948 153.706131 
L 595.850958 159.623165 
L 601.268967 221.040908 
L 606.686977 185.305041 
L 612.104986 173.414254 
" clip-path="url(#pc1113520d6)" style="fill: none; stroke: #008000; stroke-opacity: 0.27; stroke-width: 1.25; stroke-linecap: round"/>
   </g>
   <g id="line2d_12">
    <path d="M 75.72205 321.408519 
L 81.140059 305.423579 
L 86.558069 339.220955 
L 91.976078 329.974111 
L 97.394088 307.333734 
L 102.812097 300.2396 
L 108.230106 289.287883 
L 113.648116 300.382937 
L 119.066125 291.202606 
L 124.484135 280.558483 
L 129.902144 248.570359 
L 135.320154 265.867938 
L 140.738163 260.263053 
L 146.156173 265.863039 
L 151.574182 244.310943 
L 156.992192 255.349222 
L 162.410201 204.519935 
L 167.828211 204.671352 
L 173.24622 158.296804 
L 178.664229 157.493936 
L 184.082239 142.136562 
L 189.500248 120.866827 
L 194.918258 125.755968 
L 200.336267 105.715042 
L 205.754277 113.571314 
L 211.172286 115.495094 
L 216.590296 108.369399 
L 222.008305 116.066043 
L 227.426315 122.249066 
L 232.844324 102.825589 
L 238.262334 100.006206 
L 243.680343 100.558906 
L 249.098352 96.178833 
L 254.516362 101.95147 
L 259.934371 102.934033 
L 265.352381 121.875548 
L 270.77039 107.142441 
L 276.1884 125.377726 
L 281.606409 109.856908 
L 287.024419 124.775215 
L 292.442428 100.043558 
L 297.860438 121.062525 
L 303.278447 135.950928 
L 308.696456 164.149942 
L 314.114466 101.213995 
L 319.532475 88.758821 
L 324.950485 101.448225 
L 330.368494 83.261693 
L 335.786504 87.504849 
L 341.204513 85.0562 
L 346.622523 92.782958 
L 352.040532 87.599865 
L 357.458542 91.332053 
L 362.876551 85.248045 
L 368.294561 86.347962 
L 373.71257 95.165481 
L 379.130579 91.646846 
L 384.548589 87.466687 
L 389.966598 87.495318 
L 395.384608 89.493967 
L 400.802617 89.964446 
L 406.220627 86.14902 
L 411.638636 94.818928 
L 417.056646 89.451321 
L 422.474655 90.669137 
L 427.892665 92.807476 
L 433.310674 83.929516 
L 438.728684 78.651189 
L 444.146693 85.804509 
L 449.564702 83.482715 
L 454.982712 85.728717 
L 460.400721 89.908708 
L 465.818731 92.141004 
L 471.23674 87.258473 
L 476.65475 84.754165 
L 482.072759 79.626101 
L 487.490769 85.198969 
L 492.908778 83.049782 
L 498.326788 80.691518 
L 503.744797 114.551525 
L 509.162806 108.242009 
L 514.580816 80.508833 
L 519.998825 82.684883 
L 525.416835 82.978033 
L 530.834844 91.970475 
L 536.252854 88.768685 
L 541.670863 85.193446 
L 547.088873 82.123863 
L 552.506882 84.107464 
L 557.924892 82.634642 
L 563.342901 82.923492 
L 568.760911 86.109928 
L 574.17892 78.353688 
L 579.596929 78.130829 
L 585.014939 80.553174 
L 590.432948 83.322861 
L 595.850958 89.371593 
L 601.268967 80.675777 
L 606.686977 85.111624 
L 612.104986 83.284414 
" clip-path="url(#pc1113520d6)" style="fill: none; stroke: #008000; stroke-opacity: 0.27; stroke-width: 1.25; stroke-linecap: round"/>
   </g>
   <g id="line2d_13">
    <path d="M 75.72205 341.388508 
L 81.140059 310.550772 
L 86.558069 311.773372 
L 91.976078 293.997363 
L 97.394088 291.144382 
L 102.812097 288.028625 
L 108.230106 268.795382 
L 113.648116 279.759943 
L 119.066125 261.242736 
L 124.484135 256.906159 
L 129.902144 247.436149 
L 135.320154 230.28333 
L 140.738163 241.985528 
L 146.156173 223.639929 
L 151.574182 204.776387 
L 156.992192 192.532203 
L 162.410201 130.24657 
L 167.828211 118.725523 
L 173.24622 110.205564 
L 178.664229 128.274934 
L 184.082239 119.394312 
L 189.500248 145.019655 
L 194.918258 104.76324 
L 200.336267 107.363027 
L 205.754277 98.667971 
L 211.172286 103.233247 
L 216.590296 97.542267 
L 222.008305 97.755779 
L 227.426315 95.515669 
L 232.844324 111.672816 
L 238.262334 86.877229 
L 243.680343 85.054986 
L 249.098352 99.889896 
L 254.516362 81.662718 
L 259.934371 86.913326 
L 265.352381 79.620183 
L 270.77039 87.29823 
L 276.1884 107.82285 
L 281.606409 90.80972 
L 287.024419 76.23098 
L 292.442428 92.089546 
L 297.860438 90.716872 
L 303.278447 88.472644 
L 308.696456 95.057251 
L 314.114466 85.970778 
L 319.532475 89.22393 
L 324.950485 83.444764 
L 330.368494 94.390622 
L 335.786504 79.447885 
L 341.204513 120.488376 
L 346.622523 84.101266 
L 352.040532 88.901071 
L 357.458542 89.507198 
L 362.876551 77.688862 
L 368.294561 87.153332 
L 373.71257 105.846037 
L 379.130579 91.183507 
L 384.548589 80.536314 
L 389.966598 84.418396 
L 395.384608 78.445234 
L 400.802617 113.732884 
L 406.220627 82.465939 
L 411.638636 84.816388 
L 417.056646 90.578116 
L 422.474655 80.435936 
L 427.892665 79.042952 
L 433.310674 83.695545 
L 438.728684 81.51485 
L 444.146693 84.847447 
L 449.564702 86.225514 
L 454.982712 81.474053 
L 460.400721 90.518152 
L 465.818731 82.182995 
L 471.23674 80.397662 
L 476.65475 75.547183 
L 482.072759 73.390752 
L 487.490769 84.109535 
L 492.908778 77.978247 
L 498.326788 75.912778 
L 503.744797 85.094015 
L 509.162806 87.790287 
L 514.580816 83.03116 
L 519.998825 82.274524 
L 525.416835 89.154512 
L 530.834844 80.250215 
L 536.252854 88.630062 
L 541.670863 76.770882 
L 547.088873 78.712754 
L 552.506882 92.654401 
L 557.924892 88.95676 
L 563.342901 81.972613 
L 568.760911 79.672769 
L 574.17892 83.843203 
L 579.596929 83.777234 
L 585.014939 81.607858 
L 590.432948 81.553573 
L 595.850958 87.974665 
L 601.268967 80.313342 
L 606.686977 87.641352 
L 612.104986 88.380319 
" clip-path="url(#pc1113520d6)" style="fill: none; stroke: #008000; stroke-opacity: 0.27; stroke-width: 1.25; stroke-linecap: round"/>
   </g>
   <g id="line2d_14">
    <path d="M 75.72205 305.211256 
L 81.140059 307.561243 
L 86.558069 307.163445 
L 91.976078 299.436852 
L 97.394088 309.987766 
L 102.812097 317.086902 
L 108.230106 320.307381 
L 113.648116 285.122154 
L 119.066125 292.477607 
L 124.484135 294.586722 
L 129.902144 268.144371 
L 135.320154 258.068607 
L 140.738163 251.767375 
L 146.156173 259.784143 
L 151.574182 230.403863 
L 156.992192 189.532128 
L 162.410201 175.564885 
L 167.828211 163.035061 
L 173.24622 141.267727 
L 178.664229 120.450667 
L 184.082239 121.822681 
L 189.500248 146.343722 
L 194.918258 135.936278 
L 200.336267 121.259699 
L 205.754277 146.4533 
L 211.172286 117.199063 
L 216.590296 109.5855 
L 222.008305 118.845004 
L 227.426315 103.52708 
L 232.844324 146.015776 
L 238.262334 157.588093 
L 243.680343 87.160922 
L 249.098352 107.834323 
L 254.516362 103.210042 
L 259.934371 86.850315 
L 265.352381 92.477068 
L 270.77039 94.876346 
L 276.1884 89.875456 
L 281.606409 102.221609 
L 287.024419 87.121442 
L 292.442428 77.657593 
L 297.860438 107.838496 
L 303.278447 85.879679 
L 308.696456 85.175934 
L 314.114466 99.923718 
L 319.532475 90.028619 
L 324.950485 101.163091 
L 330.368494 85.143888 
L 335.786504 80.497397 
L 341.204513 78.21497 
L 346.622523 89.134947 
L 352.040532 84.808872 
L 357.458542 85.116133 
L 362.876551 91.895975 
L 368.294561 93.506495 
L 373.71257 88.224647 
L 379.130579 82.178386 
L 384.548589 93.355017 
L 389.966598 89.940094 
L 395.384608 100.226837 
L 400.802617 85.03348 
L 406.220627 111.276443 
L 411.638636 87.42091 
L 417.056646 83.255857 
L 422.474655 84.1379 
L 427.892665 81.138844 
L 433.310674 93.656959 
L 438.728684 86.933366 
L 444.146693 86.88892 
L 449.564702 85.977881 
L 454.982712 85.702513 
L 460.400721 79.22842 
L 465.818731 84.017618 
L 471.23674 76.265786 
L 476.65475 84.883283 
L 482.072759 88.021551 
L 487.490769 88.756571 
L 492.908778 81.627144 
L 498.326788 85.013667 
L 503.744797 85.975016 
L 509.162806 77.180445 
L 514.580816 76.592921 
L 519.998825 82.675895 
L 525.416835 84.495865 
L 530.834844 172.1756 
L 536.252854 122.009799 
L 541.670863 120.756149 
L 547.088873 80.04371 
L 552.506882 83.388088 
L 557.924892 86.284163 
L 563.342901 80.999224 
L 568.760911 79.806795 
L 574.17892 81.178949 
L 579.596929 87.923734 
L 585.014939 82.011258 
L 590.432948 80.732054 
L 595.850958 81.161526 
L 601.268967 84.279364 
L 606.686977 77.307005 
L 612.104986 79.569265 
" clip-path="url(#pc1113520d6)" style="fill: none; stroke: #008000; stroke-opacity: 0.27; stroke-width: 1.25; stroke-linecap: round"/>
   </g>
   <g id="line2d_15">
    <path d="M 75.72205 48.737215 
L 81.140059 55.365367 
L 86.558069 67.320366 
L 91.976078 93.898458 
L 97.394088 118.642923 
L 102.812097 149.850146 
L 108.230106 186.980896 
L 113.648116 210.676038 
L 119.066125 243.782993 
L 124.484135 266.170752 
L 129.902144 299.850885 
L 135.320154 319.628281 
L 140.738163 320.998231 
L 146.156173 328.252404 
L 151.574182 326.686838 
L 156.992192 313.169386 
L 162.410201 296.527553 
L 167.828211 276.720955 
L 173.24622 262.934786 
L 178.664229 253.809097 
L 184.082239 253.381236 
L 189.500248 263.39978 
L 194.918258 273.776806 
L 200.336267 281.675523 
L 205.754277 285.787547 
L 211.172286 278.86293 
L 216.590296 284.607571 
L 222.008305 297.932625 
L 227.426315 292.707668 
L 232.844324 293.871594 
L 238.262334 306.287743 
L 243.680343 303.368765 
L 249.098352 318.65327 
L 254.516362 319.518364 
L 259.934371 327.630348 
L 265.352381 328.438113 
L 270.77039 328.911251 
L 276.1884 342.780419 
L 281.606409 330.193381 
L 287.024419 331.117988 
L 292.442428 335.858078 
L 297.860438 333.139711 
L 303.278447 333.843278 
L 308.696456 341.20549 
L 314.114466 342.827185 
L 319.532475 337.538467 
L 324.950485 352.763976 
L 330.368494 345.360626 
L 335.786504 339.34674 
L 341.204513 342.553802 
L 346.622523 348.135376 
L 352.040532 354.114891 
L 357.458542 357.310291 
L 362.876551 360.190207 
L 368.294561 357.769685 
L 373.71257 364.754063 
L 379.130579 371.530771 
L 384.548589 368.036697 
L 389.966598 370.259612 
L 395.384608 370.705484 
L 400.802617 376.766509 
L 406.220627 391.382785 
L 411.638636 384.842617 
L 417.056646 376.384001 
L 422.474655 367.783738 
L 427.892665 360.03096 
L 433.310674 359.976289 
L 438.728684 362.819442 
L 444.146693 361.178771 
L 449.564702 360.251357 
L 454.982712 359.228477 
L 460.400721 364.216713 
L 465.818731 362.126599 
L 471.23674 361.899874 
L 476.65475 356.091119 
L 482.072759 352.68562 
L 487.490769 369.531325 
L 492.908778 361.012963 
L 498.326788 362.769453 
L 503.744797 370.060811 
L 509.162806 374.152834 
L 514.580816 374.766398 
L 519.998825 372.886154 
L 525.416835 378.602112 
L 530.834844 370.263606 
L 536.252854 380.266324 
L 541.670863 375.438815 
L 547.088873 375.852411 
L 552.506882 376.388283 
L 557.924892 377.067537 
L 563.342901 376.174558 
L 568.760911 378.440121 
L 574.17892 377.267019 
L 579.596929 368.164133 
L 585.014939 371.910301 
L 590.432948 368.076233 
L 595.850958 370.107027 
L 601.268967 366.715384 
L 606.686977 374.109382 
L 612.104986 379.674852 
" clip-path="url(#pc1113520d6)" style="fill: none; stroke: #7b3ab8; stroke-width: 1.5; stroke-linecap: round"/>
   </g>
   <g id="patch_3">
    <path d="M 65.14 400.52 
L 65.14 39.6 
" style="fill: none; stroke: #ffffff; stroke-width: 0.8; stroke-linejoin: miter; stroke-linecap: square"/>
   </g>
   <g id="patch_4">
    <path d="M 620.168508 400.52 
L 620.168508 39.6 
" style="fill: none; stroke: #ffffff; stroke-width: 0.8; stroke-linejoin: miter; stroke-linecap: square"/>
   </g>
   <g id="patch_5">
    <path d="M 65.14 400.52 
L 620.168508 400.52 
" style="fill: none; stroke: #ffffff; stroke-width: 0.8; stroke-linejoin: miter; stroke-linecap: square"/>
   </g>
   <g id="patch_6">
    <path d="M 65.14 39.6 
L 620.168508 39.6 
" style="fill: none; stroke: #ffffff; stroke-width: 0.8; stroke-linejoin: miter; stroke-linecap: square"/>
   </g>
  </g>
  <g id="text_9">
   <!-- Pendulum-v1 (Discretized) | CMU-Net (No modification) -->
   <g style="fill: #262626" transform="translate(43.205625 22.395938) scale(0.18 -0.18)">
    <defs>
     <path id="DejaVuSans-Bold-50" d="M 588 4666 
L 2584 4666 
Q 3475 4666 3951 4270 
Q 4428 3875 4428 3144 
Q 4428 2409 3951 2014 
Q 3475 1619 2584 1619 
L 1791 1619 
L 1791 0 
L 588 0 
L 588 4666 
z
M 1791 3794 
L 1791 2491 
L 2456 2491 
Q 2806 2491 2997 2661 
Q 3188 2831 3188 3144 
Q 3188 3456 2997 3625 
Q 2806 3794 2456 3794 
L 1791 3794 
z
" transform="scale(0.015625)"/>
     <path id="DejaVuSans-Bold-65" d="M 4031 1759 
L 4031 1441 
L 1416 1441 
Q 1456 1047 1700 850 
Q 1944 653 2381 653 
Q 2734 653 3104 758 
Q 3475 863 3866 1075 
L 3866 213 
Q 3469 63 3072 -14 
Q 2675 -91 2278 -91 
Q 1328 -91 801 392 
Q 275 875 275 1747 
Q 275 2603 792 3093 
Q 1309 3584 2216 3584 
Q 3041 3584 3536 3087 
Q 4031 2591 4031 1759 
z
M 2881 2131 
Q 2881 2450 2695 2645 
Q 2509 2841 2209 2841 
Q 1884 2841 1681 2658 
Q 1478 2475 1428 2131 
L 2881 2131 
z
" transform="scale(0.015625)"/>
     <path id="DejaVuSans-Bold-6e" d="M 4056 2131 
L 4056 0 
L 2931 0 
L 2931 347 
L 2931 1631 
Q 2931 2084 2911 2256 
Q 2891 2428 2841 2509 
Q 2775 2619 2662 2680 
Q 2550 2741 2406 2741 
Q 2056 2741 1856 2470 
Q 1656 2200 1656 1722 
L 1656 0 
L 538 0 
L 538 3500 
L 1656 3500 
L 1656 2988 
Q 1909 3294 2193 3439 
Q 2478 3584 2822 3584 
Q 3428 3584 3742 3212 
Q 4056 2841 4056 2131 
z
" transform="scale(0.015625)"/>
     <path id="DejaVuSans-Bold-64" d="M 2919 2988 
L 2919 4863 
L 4044 4863 
L 4044 0 
L 2919 0 
L 2919 506 
Q 2688 197 2409 53 
Q 2131 -91 1766 -91 
Q 1119 -91 703 423 
Q 288 938 288 1747 
Q 288 2556 703 3070 
Q 1119 3584 1766 3584 
Q 2128 3584 2408 3439 
Q 2688 3294 2919 2988 
z
M 2181 722 
Q 2541 722 2730 984 
Q 2919 1247 2919 1747 
Q 2919 2247 2730 2509 
Q 2541 2772 2181 2772 
Q 1825 2772 1636 2509 
Q 1447 2247 1447 1747 
Q 1447 1247 1636 984 
Q 1825 722 2181 722 
z
" transform="scale(0.015625)"/>
     <path id="DejaVuSans-Bold-75" d="M 500 1363 
L 500 3500 
L 1625 3500 
L 1625 3150 
Q 1625 2866 1622 2436 
Q 1619 2006 1619 1863 
Q 1619 1441 1641 1255 
Q 1663 1069 1716 984 
Q 1784 875 1895 815 
Q 2006 756 2150 756 
Q 2500 756 2700 1025 
Q 2900 1294 2900 1772 
L 2900 3500 
L 4019 3500 
L 4019 0 
L 2900 0 
L 2900 506 
Q 2647 200 2364 54 
Q 2081 -91 1741 -91 
Q 1134 -91 817 281 
Q 500 653 500 1363 
z
" transform="scale(0.015625)"/>
     <path id="DejaVuSans-Bold-6c" d="M 538 4863 
L 1656 4863 
L 1656 0 
L 538 0 
L 538 4863 
z
" transform="scale(0.015625)"/>
     <path id="DejaVuSans-Bold-6d" d="M 3781 2919 
Q 3994 3244 4286 3414 
Q 4578 3584 4928 3584 
Q 5531 3584 5847 3212 
Q 6163 2841 6163 2131 
L 6163 0 
L 5038 0 
L 5038 1825 
Q 5041 1866 5042 1909 
Q 5044 1953 5044 2034 
Q 5044 2406 4934 2573 
Q 4825 2741 4581 2741 
Q 4263 2741 4089 2478 
Q 3916 2216 3909 1719 
L 3909 0 
L 2784 0 
L 2784 1825 
Q 2784 2406 2684 2573 
Q 2584 2741 2328 2741 
Q 2006 2741 1831 2477 
Q 1656 2213 1656 1722 
L 1656 0 
L 531 0 
L 531 3500 
L 1656 3500 
L 1656 2988 
Q 1863 3284 2130 3434 
Q 2397 3584 2719 3584 
Q 3081 3584 3359 3409 
Q 3638 3234 3781 2919 
z
" transform="scale(0.015625)"/>
     <path id="DejaVuSans-Bold-2d" d="M 347 2297 
L 2309 2297 
L 2309 1388 
L 347 1388 
L 347 2297 
z
" transform="scale(0.015625)"/>
     <path id="DejaVuSans-Bold-76" d="M 97 3500 
L 1216 3500 
L 2088 1081 
L 2956 3500 
L 4078 3500 
L 2700 0 
L 1472 0 
L 97 3500 
z
" transform="scale(0.015625)"/>
     <path id="DejaVuSans-Bold-31" d="M 750 831 
L 1813 831 
L 1813 3847 
L 722 3622 
L 722 4441 
L 1806 4666 
L 2950 4666 
L 2950 831 
L 4013 831 
L 4013 0 
L 750 0 
L 750 831 
z
" transform="scale(0.015625)"/>
     <path id="DejaVuSans-Bold-20" transform="scale(0.015625)"/>
     <path id="DejaVuSans-Bold-28" d="M 2413 -844 
L 1484 -844 
Q 1006 -72 778 623 
Q 550 1319 550 2003 
Q 550 2688 779 3389 
Q 1009 4091 1484 4856 
L 2413 4856 
Q 2013 4116 1813 3408 
Q 1613 2700 1613 2009 
Q 1613 1319 1811 609 
Q 2009 -100 2413 -844 
z
" transform="scale(0.015625)"/>
     <path id="DejaVuSans-Bold-44" d="M 1791 3756 
L 1791 909 
L 2222 909 
Q 2959 909 3348 1275 
Q 3738 1641 3738 2338 
Q 3738 3031 3350 3393 
Q 2963 3756 2222 3756 
L 1791 3756 
z
M 588 4666 
L 1856 4666 
Q 2919 4666 3439 4514 
Q 3959 4363 4331 4000 
Q 4659 3684 4818 3271 
Q 4978 2859 4978 2338 
Q 4978 1809 4818 1395 
Q 4659 981 4331 666 
Q 3956 303 3431 151 
Q 2906 0 1856 0 
L 588 0 
L 588 4666 
z
" transform="scale(0.015625)"/>
     <path id="DejaVuSans-Bold-69" d="M 538 3500 
L 1656 3500 
L 1656 0 
L 538 0 
L 538 3500 
z
M 538 4863 
L 1656 4863 
L 1656 3950 
L 538 3950 
L 538 4863 
z
" transform="scale(0.015625)"/>
     <path id="DejaVuSans-Bold-73" d="M 3272 3391 
L 3272 2541 
Q 2913 2691 2578 2766 
Q 2244 2841 1947 2841 
Q 1628 2841 1473 2761 
Q 1319 2681 1319 2516 
Q 1319 2381 1436 2309 
Q 1553 2238 1856 2203 
L 2053 2175 
Q 2913 2066 3209 1816 
Q 3506 1566 3506 1031 
Q 3506 472 3093 190 
Q 2681 -91 1863 -91 
Q 1516 -91 1145 -36 
Q 775 19 384 128 
L 384 978 
Q 719 816 1070 734 
Q 1422 653 1784 653 
Q 2113 653 2278 743 
Q 2444 834 2444 1013 
Q 2444 1163 2330 1236 
Q 2216 1309 1875 1350 
L 1678 1375 
Q 931 1469 631 1722 
Q 331 1975 331 2491 
Q 331 3047 712 3315 
Q 1094 3584 1881 3584 
Q 2191 3584 2531 3537 
Q 2872 3491 3272 3391 
z
" transform="scale(0.015625)"/>
     <path id="DejaVuSans-Bold-63" d="M 3366 3391 
L 3366 2478 
Q 3138 2634 2908 2709 
Q 2678 2784 2431 2784 
Q 1963 2784 1702 2511 
Q 1441 2238 1441 1747 
Q 1441 1256 1702 982 
Q 1963 709 2431 709 
Q 2694 709 2930 787 
Q 3166 866 3366 1019 
L 3366 103 
Q 3103 6 2833 -42 
Q 2563 -91 2291 -91 
Q 1344 -91 809 395 
Q 275 881 275 1747 
Q 275 2613 809 3098 
Q 1344 3584 2291 3584 
Q 2566 3584 2833 3536 
Q 3100 3488 3366 3391 
z
" transform="scale(0.015625)"/>
     <path id="DejaVuSans-Bold-72" d="M 3138 2547 
Q 2991 2616 2845 2648 
Q 2700 2681 2553 2681 
Q 2122 2681 1889 2404 
Q 1656 2128 1656 1613 
L 1656 0 
L 538 0 
L 538 3500 
L 1656 3500 
L 1656 2925 
Q 1872 3269 2151 3426 
Q 2431 3584 2822 3584 
Q 2878 3584 2943 3579 
Q 3009 3575 3134 3559 
L 3138 2547 
z
" transform="scale(0.015625)"/>
     <path id="DejaVuSans-Bold-74" d="M 1759 4494 
L 1759 3500 
L 2913 3500 
L 2913 2700 
L 1759 2700 
L 1759 1216 
Q 1759 972 1856 886 
Q 1953 800 2241 800 
L 2816 800 
L 2816 0 
L 1856 0 
Q 1194 0 917 276 
Q 641 553 641 1216 
L 641 2700 
L 84 2700 
L 84 3500 
L 641 3500 
L 641 4494 
L 1759 4494 
z
" transform="scale(0.015625)"/>
     <path id="DejaVuSans-Bold-7a" d="M 366 3500 
L 3419 3500 
L 3419 2719 
L 1575 800 
L 3419 800 
L 3419 0 
L 288 0 
L 288 781 
L 2131 2700 
L 366 2700 
L 366 3500 
z
" transform="scale(0.015625)"/>
     <path id="DejaVuSans-Bold-29" d="M 513 -844 
Q 913 -100 1113 609 
Q 1313 1319 1313 2009 
Q 1313 2700 1113 3408 
Q 913 4116 513 4856 
L 1441 4856 
Q 1916 4091 2145 3389 
Q 2375 2688 2375 2003 
Q 2375 1319 2147 623 
Q 1919 -72 1441 -844 
L 513 -844 
z
" transform="scale(0.015625)"/>
     <path id="DejaVuSans-Bold-7c" d="M 1522 4891 
L 1522 -1509 
L 813 -1509 
L 813 4891 
L 1522 4891 
z
" transform="scale(0.015625)"/>
     <path id="DejaVuSans-Bold-43" d="M 4288 256 
Q 3956 84 3597 -3 
Q 3238 -91 2847 -91 
Q 1681 -91 1000 561 
Q 319 1213 319 2328 
Q 319 3447 1000 4098 
Q 1681 4750 2847 4750 
Q 3238 4750 3597 4662 
Q 3956 4575 4288 4403 
L 4288 3438 
Q 3953 3666 3628 3772 
Q 3303 3878 2944 3878 
Q 2300 3878 1931 3465 
Q 1563 3053 1563 2328 
Q 1563 1606 1931 1193 
Q 2300 781 2944 781 
Q 3303 781 3628 887 
Q 3953 994 4288 1222 
L 4288 256 
z
" transform="scale(0.015625)"/>
     <path id="DejaVuSans-Bold-4d" d="M 588 4666 
L 2119 4666 
L 3181 2169 
L 4250 4666 
L 5778 4666 
L 5778 0 
L 4641 0 
L 4641 3413 
L 3566 897 
L 2803 897 
L 1728 3413 
L 1728 0 
L 588 0 
L 588 4666 
z
" transform="scale(0.015625)"/>
     <path id="DejaVuSans-Bold-55" d="M 588 4666 
L 1791 4666 
L 1791 1869 
Q 1791 1291 1980 1042 
Q 2169 794 2597 794 
Q 3028 794 3217 1042 
Q 3406 1291 3406 1869 
L 3406 4666 
L 4609 4666 
L 4609 1869 
Q 4609 878 4112 393 
Q 3616 -91 2597 -91 
Q 1581 -91 1084 393 
Q 588 878 588 1869 
L 588 4666 
z
" transform="scale(0.015625)"/>
     <path id="DejaVuSans-Bold-4e" d="M 588 4666 
L 1931 4666 
L 3628 1466 
L 3628 4666 
L 4769 4666 
L 4769 0 
L 3425 0 
L 1728 3200 
L 1728 0 
L 588 0 
L 588 4666 
z
" transform="scale(0.015625)"/>
     <path id="DejaVuSans-Bold-6f" d="M 2203 2784 
Q 1831 2784 1636 2517 
Q 1441 2250 1441 1747 
Q 1441 1244 1636 976 
Q 1831 709 2203 709 
Q 2569 709 2762 976 
Q 2956 1244 2956 1747 
Q 2956 2250 2762 2517 
Q 2569 2784 2203 2784 
z
M 2203 3584 
Q 3106 3584 3614 3096 
Q 4122 2609 4122 1747 
Q 4122 884 3614 396 
Q 3106 -91 2203 -91 
Q 1297 -91 786 396 
Q 275 884 275 1747 
Q 275 2609 786 3096 
Q 1297 3584 2203 3584 
z
" transform="scale(0.015625)"/>
     <path id="DejaVuSans-Bold-66" d="M 2841 4863 
L 2841 4128 
L 2222 4128 
Q 1984 4128 1890 4042 
Q 1797 3956 1797 3744 
L 1797 3500 
L 2753 3500 
L 2753 2700 
L 1797 2700 
L 1797 0 
L 678 0 
L 678 2700 
L 122 2700 
L 122 3500 
L 678 3500 
L 678 3744 
Q 678 4316 997 4589 
Q 1316 4863 1984 4863 
L 2841 4863 
z
" transform="scale(0.015625)"/>
     <path id="DejaVuSans-Bold-61" d="M 2106 1575 
Q 1756 1575 1579 1456 
Q 1403 1338 1403 1106 
Q 1403 894 1545 773 
Q 1688 653 1941 653 
Q 2256 653 2472 879 
Q 2688 1106 2688 1447 
L 2688 1575 
L 2106 1575 
z
M 3816 1997 
L 3816 0 
L 2688 0 
L 2688 519 
Q 2463 200 2181 54 
Q 1900 -91 1497 -91 
Q 953 -91 614 226 
Q 275 544 275 1050 
Q 275 1666 698 1953 
Q 1122 2241 2028 2241 
L 2688 2241 
L 2688 2328 
Q 2688 2594 2478 2717 
Q 2269 2841 1825 2841 
Q 1466 2841 1156 2769 
Q 847 2697 581 2553 
L 581 3406 
Q 941 3494 1303 3539 
Q 1666 3584 2028 3584 
Q 2975 3584 3395 3211 
Q 3816 2838 3816 1997 
z
" transform="scale(0.015625)"/>
    </defs>
    <use xlink:href="#DejaVuSans-Bold-50"/>
    <use xlink:href="#DejaVuSans-Bold-65" transform="translate(73.291016 0)"/>
    <use xlink:href="#DejaVuSans-Bold-6e" transform="translate(141.113281 0)"/>
    <use xlink:href="#DejaVuSans-Bold-64" transform="translate(212.304688 0)"/>
    <use xlink:href="#DejaVuSans-Bold-75" transform="translate(283.886719 0)"/>
    <use xlink:href="#DejaVuSans-Bold-6c" transform="translate(355.078125 0)"/>
    <use xlink:href="#DejaVuSans-Bold-75" transform="translate(389.355469 0)"/>
    <use xlink:href="#DejaVuSans-Bold-6d" transform="translate(460.546875 0)"/>
    <use xlink:href="#DejaVuSans-Bold-2d" transform="translate(564.746094 0)"/>
    <use xlink:href="#DejaVuSans-Bold-76" transform="translate(606.25 0)"/>
    <use xlink:href="#DejaVuSans-Bold-31" transform="translate(671.435547 0)"/>
    <use xlink:href="#DejaVuSans-Bold-20" transform="translate(741.015625 0)"/>
    <use xlink:href="#DejaVuSans-Bold-28" transform="translate(775.830078 0)"/>
    <use xlink:href="#DejaVuSans-Bold-44" transform="translate(821.533203 0)"/>
    <use xlink:href="#DejaVuSans-Bold-69" transform="translate(904.541016 0)"/>
    <use xlink:href="#DejaVuSans-Bold-73" transform="translate(938.818359 0)"/>
    <use xlink:href="#DejaVuSans-Bold-63" transform="translate(998.339844 0)"/>
    <use xlink:href="#DejaVuSans-Bold-72" transform="translate(1057.617188 0)"/>
    <use xlink:href="#DejaVuSans-Bold-65" transform="translate(1106.933594 0)"/>
    <use xlink:href="#DejaVuSans-Bold-74" transform="translate(1174.755859 0)"/>
    <use xlink:href="#DejaVuSans-Bold-69" transform="translate(1222.558594 0)"/>
    <use xlink:href="#DejaVuSans-Bold-7a" transform="translate(1256.835938 0)"/>
    <use xlink:href="#DejaVuSans-Bold-65" transform="translate(1315.039062 0)"/>
    <use xlink:href="#DejaVuSans-Bold-64" transform="translate(1382.861328 0)"/>
    <use xlink:href="#DejaVuSans-Bold-29" transform="translate(1454.443359 0)"/>
    <use xlink:href="#DejaVuSans-Bold-20" transform="translate(1500.146484 0)"/>
    <use xlink:href="#DejaVuSans-Bold-7c" transform="translate(1534.960938 0)"/>
    <use xlink:href="#DejaVuSans-Bold-20" transform="translate(1571.484375 0)"/>
    <use xlink:href="#DejaVuSans-Bold-43" transform="translate(1606.298828 0)"/>
    <use xlink:href="#DejaVuSans-Bold-4d" transform="translate(1679.6875 0)"/>
    <use xlink:href="#DejaVuSans-Bold-55" transform="translate(1779.199219 0)"/>
    <use xlink:href="#DejaVuSans-Bold-2d" transform="translate(1860.400391 0)"/>
    <use xlink:href="#DejaVuSans-Bold-4e" transform="translate(1901.904297 0)"/>
    <use xlink:href="#DejaVuSans-Bold-65" transform="translate(1985.595703 0)"/>
    <use xlink:href="#DejaVuSans-Bold-74" transform="translate(2053.417969 0)"/>
    <use xlink:href="#DejaVuSans-Bold-20" transform="translate(2101.220703 0)"/>
    <use xlink:href="#DejaVuSans-Bold-28" transform="translate(2136.035156 0)"/>
    <use xlink:href="#DejaVuSans-Bold-4e" transform="translate(2181.738281 0)"/>
    <use xlink:href="#DejaVuSans-Bold-6f" transform="translate(2265.429688 0)"/>
    <use xlink:href="#DejaVuSans-Bold-20" transform="translate(2334.130859 0)"/>
    <use xlink:href="#DejaVuSans-Bold-6d" transform="translate(2368.945312 0)"/>
    <use xlink:href="#DejaVuSans-Bold-6f" transform="translate(2473.144531 0)"/>
    <use xlink:href="#DejaVuSans-Bold-64" transform="translate(2541.845703 0)"/>
    <use xlink:href="#DejaVuSans-Bold-69" transform="translate(2613.427734 0)"/>
    <use xlink:href="#DejaVuSans-Bold-66" transform="translate(2647.705078 0)"/>
    <use xlink:href="#DejaVuSans-Bold-69" transform="translate(2691.210938 0)"/>
    <use xlink:href="#DejaVuSans-Bold-63" transform="translate(2725.488281 0)"/>
    <use xlink:href="#DejaVuSans-Bold-61" transform="translate(2784.765625 0)"/>
    <use xlink:href="#DejaVuSans-Bold-74" transform="translate(2852.246094 0)"/>
    <use xlink:href="#DejaVuSans-Bold-69" transform="translate(2900.048828 0)"/>
    <use xlink:href="#DejaVuSans-Bold-6f" transform="translate(2934.326172 0)"/>
    <use xlink:href="#DejaVuSans-Bold-6e" transform="translate(3003.027344 0)"/>
    <use xlink:href="#DejaVuSans-Bold-29" transform="translate(3074.21875 0)"/>
   </g>
  </g>
 </g>
 <defs>
  <clipPath id="pc1113520d6">
   <rect x="65.14" y="39.6" width="555.028508" height="360.92"/>
  </clipPath>
 </defs>
</svg>
