<?xml version="1.0" encoding="utf-8" standalone="no"?>
<!DOCTYPE svg PUBLIC "-//W3C//DTD SVG 1.1//EN"
  "http://www.w3.org/Graphics/SVG/1.1/DTD/svg11.dtd">
<svg xmlns:xlink="http://www.w3.org/1999/xlink" width="648pt" height="432pt" viewBox="0 0 648 432" xmlns="http://www.w3.org/2000/svg" version="1.1">
 <metadata>
  <rdf:RDF xmlns:dc="http://purl.org/dc/elements/1.1/" xmlns:cc="http://creativecommons.org/ns#" xmlns:rdf="http://www.w3.org/1999/02/22-rdf-syntax-ns#">
   <cc:Work>
    <dc:type rdf:resource="http://purl.org/dc/dcmitype/StillImage"/>
    <dc:date>2025-07-31T05:18:21.413100</dc:date>
    <dc:format>image/svg+xml</dc:format>
    <dc:creator>
     <cc:Agent>
      <dc:title>Matplotlib v3.10.0, https://matplotlib.org/</dc:title>
     </cc:Agent>
    </dc:creator>
   </cc:Work>
  </rdf:RDF>
 </metadata>
 <defs>
  <style type="text/css">*{stroke-linejoin: round; stroke-linecap: butt}</style>
 </defs>
 <g id="figure_1">
  <g id="patch_1">
   <path d="M 0 432 
L 648 432 
L 648 0 
L 0 0 
z
" style="fill: #ffffff"/>
  </g>
  <g id="axes_1">
   <g id="patch_2">
    <path d="M 65.14 400.52 
L 620.168508 400.52 
L 620.168508 39.6 
L 65.14 39.6 
z
" style="fill: #eaeaf2"/>
   </g>
   <g id="matplotlib.axis_1">
    <g id="xtick_1">
     <g id="line2d_1">
      <path d="M 75.72205 400.52 
L 75.72205 39.6 
" clip-path="url(#pd891aacff9)" style="fill: none; stroke: #ffffff; stroke-width: 0.8; stroke-linecap: round"/>
     </g>
     <g id="text_1">
      <!-- 0 -->
      <g style="fill: #262626" transform="translate(71.2683 418.157812) scale(0.14 -0.14)">
       <defs>
        <path id="DejaVuSans-30" d="M 2034 4250 
Q 1547 4250 1301 3770 
Q 1056 3291 1056 2328 
Q 1056 1369 1301 889 
Q 1547 409 2034 409 
Q 2525 409 2770 889 
Q 3016 1369 3016 2328 
Q 3016 3291 2770 3770 
Q 2525 4250 2034 4250 
z
M 2034 4750 
Q 2819 4750 3233 4129 
Q 3647 3509 3647 2328 
Q 3647 1150 3233 529 
Q 2819 -91 2034 -91 
Q 1250 -91 836 529 
Q 422 1150 422 2328 
Q 422 3509 836 4129 
Q 1250 4750 2034 4750 
z
" transform="scale(0.015625)"/>
       </defs>
       <use xlink:href="#DejaVuSans-30"/>
      </g>
     </g>
    </g>
    <g id="xtick_2">
     <g id="line2d_2">
      <path d="M 604.824536 400.52 
L 604.824536 39.6 
" clip-path="url(#pd891aacff9)" style="fill: none; stroke: #ffffff; stroke-width: 0.8; stroke-linecap: round"/>
     </g>
     <g id="text_2">
      <!-- 2000000 -->
      <g style="fill: #262626" transform="translate(573.648286 418.157812) scale(0.14 -0.14)">
       <defs>
        <path id="DejaVuSans-32" d="M 1228 531 
L 3431 531 
L 3431 0 
L 469 0 
L 469 531 
Q 828 903 1448 1529 
Q 2069 2156 2228 2338 
Q 2531 2678 2651 2914 
Q 2772 3150 2772 3378 
Q 2772 3750 2511 3984 
Q 2250 4219 1831 4219 
Q 1534 4219 1204 4116 
Q 875 4013 500 3803 
L 500 4441 
Q 881 4594 1212 4672 
Q 1544 4750 1819 4750 
Q 2544 4750 2975 4387 
Q 3406 4025 3406 3419 
Q 3406 3131 3298 2873 
Q 3191 2616 2906 2266 
Q 2828 2175 2409 1742 
Q 1991 1309 1228 531 
z
" transform="scale(0.015625)"/>
       </defs>
       <use xlink:href="#DejaVuSans-32"/>
       <use xlink:href="#DejaVuSans-30" transform="translate(63.623047 0)"/>
       <use xlink:href="#DejaVuSans-30" transform="translate(127.246094 0)"/>
       <use xlink:href="#DejaVuSans-30" transform="translate(190.869141 0)"/>
       <use xlink:href="#DejaVuSans-30" transform="translate(254.492188 0)"/>
       <use xlink:href="#DejaVuSans-30" transform="translate(318.115234 0)"/>
       <use xlink:href="#DejaVuSans-30" transform="translate(381.738281 0)"/>
      </g>
     </g>
    </g>
   </g>
   <g id="matplotlib.axis_2">
    <g id="ytick_1">
     <g id="line2d_3">
      <path d="M 65.14 391.382785 
L 620.168508 391.382785 
" clip-path="url(#pd891aacff9)" style="fill: none; stroke: #ffffff; stroke-width: 0.8; stroke-linecap: round"/>
     </g>
     <g id="text_3">
      <!-- −1500 -->
      <g style="fill: #262626" transform="translate(10.778437 396.701691) scale(0.14 -0.14)">
       <defs>
        <path id="DejaVuSans-2212" d="M 678 2272 
L 4684 2272 
L 4684 1741 
L 678 1741 
L 678 2272 
z
" transform="scale(0.015625)"/>
        <path id="DejaVuSans-31" d="M 794 531 
L 1825 531 
L 1825 4091 
L 703 3866 
L 703 4441 
L 1819 4666 
L 2450 4666 
L 2450 531 
L 3481 531 
L 3481 0 
L 794 0 
L 794 531 
z
" transform="scale(0.015625)"/>
        <path id="DejaVuSans-35" d="M 691 4666 
L 3169 4666 
L 3169 4134 
L 1269 4134 
L 1269 2991 
Q 1406 3038 1543 3061 
Q 1681 3084 1819 3084 
Q 2600 3084 3056 2656 
Q 3513 2228 3513 1497 
Q 3513 744 3044 326 
Q 2575 -91 1722 -91 
Q 1428 -91 1123 -41 
Q 819 9 494 109 
L 494 744 
Q 775 591 1075 516 
Q 1375 441 1709 441 
Q 2250 441 2565 725 
Q 2881 1009 2881 1497 
Q 2881 1984 2565 2268 
Q 2250 2553 1709 2553 
Q 1456 2553 1204 2497 
Q 953 2441 691 2322 
L 691 4666 
z
" transform="scale(0.015625)"/>
       </defs>
       <use xlink:href="#DejaVuSans-2212"/>
       <use xlink:href="#DejaVuSans-31" transform="translate(83.789062 0)"/>
       <use xlink:href="#DejaVuSans-35" transform="translate(147.412109 0)"/>
       <use xlink:href="#DejaVuSans-30" transform="translate(211.035156 0)"/>
       <use xlink:href="#DejaVuSans-30" transform="translate(274.658203 0)"/>
      </g>
     </g>
    </g>
    <g id="ytick_2">
     <g id="line2d_4">
      <path d="M 65.14 322.853671 
L 620.168508 322.853671 
" clip-path="url(#pd891aacff9)" style="fill: none; stroke: #ffffff; stroke-width: 0.8; stroke-linecap: round"/>
     </g>
     <g id="text_4">
      <!-- −1200 -->
      <g style="fill: #262626" transform="translate(10.778437 328.172577) scale(0.14 -0.14)">
       <use xlink:href="#DejaVuSans-2212"/>
       <use xlink:href="#DejaVuSans-31" transform="translate(83.789062 0)"/>
       <use xlink:href="#DejaVuSans-32" transform="translate(147.412109 0)"/>
       <use xlink:href="#DejaVuSans-30" transform="translate(211.035156 0)"/>
       <use xlink:href="#DejaVuSans-30" transform="translate(274.658203 0)"/>
      </g>
     </g>
    </g>
    <g id="ytick_3">
     <g id="line2d_5">
      <path d="M 65.14 254.324557 
L 620.168508 254.324557 
" clip-path="url(#pd891aacff9)" style="fill: none; stroke: #ffffff; stroke-width: 0.8; stroke-linecap: round"/>
     </g>
     <g id="text_5">
      <!-- −900 -->
      <g style="fill: #262626" transform="translate(19.685937 259.643463) scale(0.14 -0.14)">
       <defs>
        <path id="DejaVuSans-39" d="M 703 97 
L 703 672 
Q 941 559 1184 500 
Q 1428 441 1663 441 
Q 2288 441 2617 861 
Q 2947 1281 2994 2138 
Q 2813 1869 2534 1725 
Q 2256 1581 1919 1581 
Q 1219 1581 811 2004 
Q 403 2428 403 3163 
Q 403 3881 828 4315 
Q 1253 4750 1959 4750 
Q 2769 4750 3195 4129 
Q 3622 3509 3622 2328 
Q 3622 1225 3098 567 
Q 2575 -91 1691 -91 
Q 1453 -91 1209 -44 
Q 966 3 703 97 
z
M 1959 2075 
Q 2384 2075 2632 2365 
Q 2881 2656 2881 3163 
Q 2881 3666 2632 3958 
Q 2384 4250 1959 4250 
Q 1534 4250 1286 3958 
Q 1038 3666 1038 3163 
Q 1038 2656 1286 2365 
Q 1534 2075 1959 2075 
z
" transform="scale(0.015625)"/>
       </defs>
       <use xlink:href="#DejaVuSans-2212"/>
       <use xlink:href="#DejaVuSans-39" transform="translate(83.789062 0)"/>
       <use xlink:href="#DejaVuSans-30" transform="translate(147.412109 0)"/>
       <use xlink:href="#DejaVuSans-30" transform="translate(211.035156 0)"/>
      </g>
     </g>
    </g>
    <g id="ytick_4">
     <g id="line2d_6">
      <path d="M 65.14 185.795443 
L 620.168508 185.795443 
" clip-path="url(#pd891aacff9)" style="fill: none; stroke: #ffffff; stroke-width: 0.8; stroke-linecap: round"/>
     </g>
     <g id="text_6">
      <!-- −600 -->
      <g style="fill: #262626" transform="translate(19.685937 191.114349) scale(0.14 -0.14)">
       <defs>
        <path id="DejaVuSans-36" d="M 2113 2584 
Q 1688 2584 1439 2293 
Q 1191 2003 1191 1497 
Q 1191 994 1439 701 
Q 1688 409 2113 409 
Q 2538 409 2786 701 
Q 3034 994 3034 1497 
Q 3034 2003 2786 2293 
Q 2538 2584 2113 2584 
z
M 3366 4563 
L 3366 3988 
Q 3128 4100 2886 4159 
Q 2644 4219 2406 4219 
Q 1781 4219 1451 3797 
Q 1122 3375 1075 2522 
Q 1259 2794 1537 2939 
Q 1816 3084 2150 3084 
Q 2853 3084 3261 2657 
Q 3669 2231 3669 1497 
Q 3669 778 3244 343 
Q 2819 -91 2113 -91 
Q 1303 -91 875 529 
Q 447 1150 447 2328 
Q 447 3434 972 4092 
Q 1497 4750 2381 4750 
Q 2619 4750 2861 4703 
Q 3103 4656 3366 4563 
z
" transform="scale(0.015625)"/>
       </defs>
       <use xlink:href="#DejaVuSans-2212"/>
       <use xlink:href="#DejaVuSans-36" transform="translate(83.789062 0)"/>
       <use xlink:href="#DejaVuSans-30" transform="translate(147.412109 0)"/>
       <use xlink:href="#DejaVuSans-30" transform="translate(211.035156 0)"/>
      </g>
     </g>
    </g>
    <g id="ytick_5">
     <g id="line2d_7">
      <path d="M 65.14 117.266329 
L 620.168508 117.266329 
" clip-path="url(#pd891aacff9)" style="fill: none; stroke: #ffffff; stroke-width: 0.8; stroke-linecap: round"/>
     </g>
     <g id="text_7">
      <!-- −300 -->
      <g style="fill: #262626" transform="translate(19.685937 122.585235) scale(0.14 -0.14)">
       <defs>
        <path id="DejaVuSans-33" d="M 2597 2516 
Q 3050 2419 3304 2112 
Q 3559 1806 3559 1356 
Q 3559 666 3084 287 
Q 2609 -91 1734 -91 
Q 1441 -91 1130 -33 
Q 819 25 488 141 
L 488 750 
Q 750 597 1062 519 
Q 1375 441 1716 441 
Q 2309 441 2620 675 
Q 2931 909 2931 1356 
Q 2931 1769 2642 2001 
Q 2353 2234 1838 2234 
L 1294 2234 
L 1294 2753 
L 1863 2753 
Q 2328 2753 2575 2939 
Q 2822 3125 2822 3475 
Q 2822 3834 2567 4026 
Q 2313 4219 1838 4219 
Q 1578 4219 1281 4162 
Q 984 4106 628 3988 
L 628 4550 
Q 988 4650 1302 4700 
Q 1616 4750 1894 4750 
Q 2613 4750 3031 4423 
Q 3450 4097 3450 3541 
Q 3450 3153 3228 2886 
Q 3006 2619 2597 2516 
z
" transform="scale(0.015625)"/>
       </defs>
       <use xlink:href="#DejaVuSans-2212"/>
       <use xlink:href="#DejaVuSans-33" transform="translate(83.789062 0)"/>
       <use xlink:href="#DejaVuSans-30" transform="translate(147.412109 0)"/>
       <use xlink:href="#DejaVuSans-30" transform="translate(211.035156 0)"/>
      </g>
     </g>
    </g>
    <g id="ytick_6">
     <g id="line2d_8">
      <path d="M 65.14 48.737215 
L 620.168508 48.737215 
" clip-path="url(#pd891aacff9)" style="fill: none; stroke: #ffffff; stroke-width: 0.8; stroke-linecap: round"/>
     </g>
     <g id="text_8">
      <!-- 0 -->
      <g style="fill: #262626" transform="translate(49.2325 54.056121) scale(0.14 -0.14)">
       <use xlink:href="#DejaVuSans-30"/>
      </g>
     </g>
    </g>
   </g>
   <g id="FillBetweenPolyCollection_1">
    <path d="M 75.72205 313.060354 
L 75.72205 339.032203 
L 81.140059 330.012288 
L 86.558069 337.584701 
L 91.976078 314.404789 
L 97.394088 323.352669 
L 102.812097 316.851042 
L 108.230106 294.005113 
L 113.648116 295.251821 
L 119.066125 281.879847 
L 124.484135 290.67495 
L 129.902144 299.90511 
L 135.320154 291.096719 
L 140.738163 288.050433 
L 146.156173 264.146627 
L 151.574182 241.113147 
L 156.992192 225.873606 
L 162.410201 189.027891 
L 167.828211 177.981991 
L 173.24622 148.533778 
L 178.664229 127.150998 
L 184.082239 133.40179 
L 189.500248 131.123711 
L 194.918258 117.71223 
L 200.336267 117.932899 
L 205.754277 121.509 
L 211.172286 115.077542 
L 216.590296 120.858978 
L 222.008305 109.009191 
L 227.426315 103.686692 
L 232.844324 106.748039 
L 238.262334 99.019361 
L 243.680343 94.260522 
L 249.098352 97.158395 
L 254.516362 99.149371 
L 259.934371 98.298575 
L 265.352381 115.884423 
L 270.77039 143.146633 
L 276.1884 137.110469 
L 281.606409 129.151777 
L 287.024419 129.349314 
L 292.442428 122.009104 
L 297.860438 120.641677 
L 303.278447 113.464109 
L 308.696456 118.755552 
L 314.114466 130.111411 
L 319.532475 102.531815 
L 324.950485 115.456049 
L 330.368494 140.478013 
L 335.786504 155.678011 
L 341.204513 166.853455 
L 346.622523 146.827738 
L 352.040532 180.982139 
L 357.458542 173.120809 
L 362.876551 170.91353 
L 368.294561 162.282449 
L 373.71257 162.907131 
L 379.130579 196.98968 
L 384.548589 166.621773 
L 389.966598 138.451478 
L 395.384608 161.541528 
L 400.802617 131.27149 
L 406.220627 157.953394 
L 411.638636 164.736389 
L 417.056646 156.401542 
L 422.474655 164.145093 
L 427.892665 193.164639 
L 433.310674 158.111397 
L 438.728684 177.633613 
L 444.146693 191.698098 
L 449.564702 150.516478 
L 454.982712 156.083305 
L 460.400721 156.219079 
L 465.818731 155.31888 
L 471.23674 156.405779 
L 476.65475 164.061104 
L 482.072759 131.235087 
L 487.490769 123.927109 
L 492.908778 95.017495 
L 498.326788 153.400824 
L 503.744797 133.465985 
L 509.162806 144.466965 
L 514.580816 159.054264 
L 519.998825 171.515488 
L 525.416835 127.644214 
L 530.834844 150.983142 
L 536.252854 152.028564 
L 541.670863 132.264586 
L 547.088873 155.602981 
L 552.506882 141.216967 
L 557.924892 171.477184 
L 563.342901 136.201745 
L 568.760911 112.508527 
L 574.17892 111.83428 
L 579.596929 97.019655 
L 585.014939 88.070975 
L 590.432948 85.586638 
L 595.850958 89.172773 
L 601.268967 84.566063 
L 606.686977 91.884625 
L 612.104986 85.102907 
L 612.104986 79.391903 
L 612.104986 79.391903 
L 606.686977 79.569665 
L 601.268967 78.976802 
L 595.850958 78.30075 
L 590.432948 77.057544 
L 585.014939 81.375842 
L 579.596929 79.409535 
L 574.17892 75.462014 
L 568.760911 73.376296 
L 563.342901 67.698911 
L 557.924892 55.883646 
L 552.506882 63.481565 
L 547.088873 56.491955 
L 541.670863 69.698918 
L 536.252854 62.513425 
L 530.834844 61.099863 
L 525.416835 71.882026 
L 519.998825 60.140943 
L 514.580816 60.048243 
L 509.162806 59.567897 
L 503.744797 63.963482 
L 498.326788 72.673838 
L 492.908778 73.618653 
L 487.490769 74.595446 
L 482.072759 69.689949 
L 476.65475 66.05206 
L 471.23674 72.768453 
L 465.818731 81.805588 
L 460.400721 74.387642 
L 454.982712 72.038371 
L 449.564702 76.150352 
L 444.146693 74.58308 
L 438.728684 72.513339 
L 433.310674 76.550201 
L 427.892665 70.821557 
L 422.474655 78.741615 
L 417.056646 72.513369 
L 411.638636 62.970976 
L 406.220627 62.535387 
L 400.802617 68.138458 
L 395.384608 57.07365 
L 389.966598 70.297655 
L 384.548589 57.030757 
L 379.130579 52.039301 
L 373.71257 62.247667 
L 368.294561 63.933594 
L 362.876551 54.421514 
L 357.458542 57.367059 
L 352.040532 54.792683 
L 346.622523 66.41939 
L 341.204513 64.950156 
L 335.786504 69.800681 
L 330.368494 66.014506 
L 324.950485 84.683277 
L 319.532475 82.620501 
L 314.114466 81.055189 
L 308.696456 75.460089 
L 303.278447 76.29651 
L 297.860438 91.557426 
L 292.442428 71.145101 
L 287.024419 73.140365 
L 281.606409 78.980494 
L 276.1884 81.586529 
L 270.77039 70.313105 
L 265.352381 81.15122 
L 259.934371 91.430323 
L 254.516362 88.428416 
L 249.098352 85.879019 
L 243.680343 87.122018 
L 238.262334 87.272389 
L 232.844324 88.495401 
L 227.426315 94.378591 
L 222.008305 100.722346 
L 216.590296 88.485516 
L 211.172286 96.99477 
L 205.754277 103.227684 
L 200.336267 93.642738 
L 194.918258 98.598712 
L 189.500248 99.123256 
L 184.082239 101.363481 
L 178.664229 110.278027 
L 173.24622 103.782817 
L 167.828211 98.95107 
L 162.410201 108.761271 
L 156.992192 130.326363 
L 151.574182 140.418534 
L 146.156173 155.819367 
L 140.738163 180.642997 
L 135.320154 199.65307 
L 129.902144 226.263172 
L 124.484135 269.001042 
L 119.066125 267.996005 
L 113.648116 277.422767 
L 108.230106 276.958907 
L 102.812097 284.738093 
L 97.394088 297.186469 
L 91.976078 285.01623 
L 86.558069 299.277093 
L 81.140059 303.165492 
L 75.72205 313.060354 
z
" clip-path="url(#pd891aacff9)" style="fill: #0000ff; fill-opacity: 0.1"/>
   </g>
   <g id="line2d_9">
    <path d="M 75.72205 326.046279 
L 81.140059 316.58889 
L 86.558069 318.430897 
L 91.976078 299.71051 
L 97.394088 310.269569 
L 102.812097 300.794568 
L 108.230106 285.48201 
L 113.648116 286.337294 
L 119.066125 274.937926 
L 124.484135 279.837996 
L 129.902144 263.084141 
L 135.320154 245.374895 
L 140.738163 234.346715 
L 146.156173 209.982997 
L 151.574182 190.765841 
L 156.992192 178.099984 
L 162.410201 148.894581 
L 167.828211 138.46653 
L 173.24622 126.158298 
L 178.664229 118.714512 
L 184.082239 117.382636 
L 189.500248 115.123483 
L 194.918258 108.155471 
L 200.336267 105.787819 
L 205.754277 112.368342 
L 211.172286 106.036156 
L 216.590296 104.672247 
L 222.008305 104.865768 
L 227.426315 99.032642 
L 232.844324 97.62172 
L 238.262334 93.145875 
L 243.680343 90.69127 
L 249.098352 91.518707 
L 254.516362 93.788893 
L 259.934371 94.864449 
L 265.352381 98.517821 
L 270.77039 106.729869 
L 276.1884 109.348499 
L 281.606409 104.066135 
L 287.024419 101.24484 
L 292.442428 96.577103 
L 297.860438 106.099551 
L 303.278447 94.880309 
L 308.696456 97.107821 
L 314.114466 105.5833 
L 319.532475 92.576158 
L 324.950485 100.069663 
L 330.368494 103.24626 
L 335.786504 112.739346 
L 341.204513 115.901806 
L 346.622523 106.623564 
L 352.040532 117.887411 
L 357.458542 115.243934 
L 362.876551 112.667522 
L 368.294561 113.108022 
L 373.71257 112.577399 
L 379.130579 124.51449 
L 384.548589 111.826265 
L 389.966598 104.374567 
L 395.384608 109.307589 
L 400.802617 99.704974 
L 406.220627 110.24439 
L 411.638636 113.853682 
L 417.056646 114.457455 
L 422.474655 121.443354 
L 427.892665 131.993098 
L 433.310674 117.330799 
L 438.728684 125.073476 
L 444.146693 133.140589 
L 449.564702 113.333415 
L 454.982712 114.060838 
L 460.400721 115.30336 
L 465.818731 118.562234 
L 471.23674 114.587116 
L 476.65475 115.056582 
L 482.072759 100.462518 
L 487.490769 99.261277 
L 492.908778 84.318074 
L 498.326788 113.037331 
L 503.744797 98.714734 
L 509.162806 102.017431 
L 514.580816 109.551253 
L 519.998825 115.828216 
L 525.416835 99.76312 
L 530.834844 106.041503 
L 536.252854 107.270994 
L 541.670863 100.981752 
L 547.088873 106.047468 
L 552.506882 102.349266 
L 557.924892 113.680415 
L 563.342901 101.950328 
L 568.760911 92.942411 
L 574.17892 93.648147 
L 579.596929 88.214595 
L 585.014939 84.723409 
L 590.432948 81.322091 
L 595.850958 83.736761 
L 601.268967 81.771433 
L 606.686977 85.727145 
L 612.104986 82.247405 
" clip-path="url(#pd891aacff9)" style="fill: none; stroke: #0000ff; stroke-width: 2; stroke-linecap: round"/>
   </g>
   <g id="line2d_10">
    <path d="M 75.72205 324.309093 
L 81.140059 307.828053 
L 86.558069 348.944716 
L 91.976078 321.186232 
L 97.394088 304.402279 
L 102.812097 279.382785 
L 108.230106 279.914105 
L 113.648116 278.111935 
L 119.066125 268.632052 
L 124.484135 262.851676 
L 129.902144 196.049733 
L 135.320154 159.859351 
L 140.738163 128.253162 
L 146.156173 108.707162 
L 151.574182 99.432312 
L 156.992192 120.550266 
L 162.410201 96.010807 
L 167.828211 107.743959 
L 173.24622 99.498562 
L 178.664229 112.048507 
L 184.082239 109.333777 
L 189.500248 94.624626 
L 194.918258 101.670992 
L 200.336267 83.656735 
L 205.754277 109.211396 
L 211.172286 94.916827 
L 216.590296 91.066748 
L 222.008305 99.067929 
L 227.426315 95.640366 
L 232.844324 83.423093 
L 238.262334 93.203739 
L 243.680343 91.45986 
L 249.098352 87.642309 
L 254.516362 98.437554 
L 259.934371 98.541414 
L 265.352381 131.437605 
L 270.77039 178.525345 
L 276.1884 141.502245 
L 281.606409 151.625372 
L 287.024419 155.961324 
L 292.442428 147.112776 
L 297.860438 129.185474 
L 303.278447 126.746547 
L 308.696456 92.125408 
L 314.114466 91.894959 
L 319.532475 88.405737 
L 324.950485 95.815421 
L 330.368494 81.461181 
L 335.786504 87.385958 
L 341.204513 91.277797 
L 346.622523 94.069716 
L 352.040532 85.606783 
L 357.458542 87.33161 
L 362.876551 84.897536 
L 368.294561 85.617673 
L 373.71257 87.107109 
L 379.130579 89.154236 
L 384.548589 86.855956 
L 389.966598 87.255572 
L 395.384608 91.909048 
L 400.802617 91.839268 
L 406.220627 92.434729 
L 411.638636 94.974441 
L 417.056646 88.464073 
L 422.474655 87.376501 
L 427.892665 92.44742 
L 433.310674 83.588951 
L 438.728684 79.728157 
L 444.146693 87.591132 
L 449.564702 87.95397 
L 454.982712 81.798066 
L 460.400721 86.177191 
L 465.818731 91.09518 
L 471.23674 85.631073 
L 476.65475 84.114027 
L 482.072759 79.499322 
L 487.490769 84.590967 
L 492.908778 83.605101 
L 498.326788 80.267334 
L 503.744797 82.72193 
L 509.162806 84.067104 
L 514.580816 80.013545 
L 519.998825 82.503582 
L 525.416835 81.773205 
L 530.834844 90.778137 
L 536.252854 88.598663 
L 541.670863 82.836285 
L 547.088873 83.187303 
L 552.506882 83.842136 
L 557.924892 82.133734 
L 563.342901 82.547786 
L 568.760911 86.163711 
L 574.17892 79.310953 
L 579.596929 77.876305 
L 585.014939 80.167502 
L 590.432948 81.325209 
L 595.850958 89.008737 
L 601.268967 80.066873 
L 606.686977 84.57901 
L 612.104986 82.955787 
" clip-path="url(#pd891aacff9)" style="fill: none; stroke: #008000; stroke-opacity: 0.27; stroke-width: 1.25; stroke-linecap: round"/>
   </g>
   <g id="line2d_11">
    <path d="M 75.72205 338.79765 
L 81.140059 314.999379 
L 86.558069 312.042224 
L 91.976078 292.61597 
L 97.394088 300.640177 
L 102.812097 298.198186 
L 108.230106 271.726415 
L 113.648116 281.638412 
L 119.066125 265.286146 
L 124.484135 272.330419 
L 129.902144 263.394368 
L 135.320154 244.622346 
L 140.738163 253.657115 
L 146.156173 200.502685 
L 151.574182 185.677664 
L 156.992192 172.800506 
L 162.410201 138.958377 
L 167.828211 114.692618 
L 173.24622 108.039081 
L 178.664229 122.490576 
L 184.082239 106.479085 
L 189.500248 115.17451 
L 194.918258 99.10435 
L 200.336267 106.142513 
L 205.754277 98.739562 
L 211.172286 98.627448 
L 216.590296 90.593334 
L 222.008305 107.00549 
L 227.426315 97.660881 
L 232.844324 92.018845 
L 238.262334 83.473908 
L 243.680343 84.240642 
L 249.098352 97.042157 
L 254.516362 84.703624 
L 259.934371 98.702264 
L 265.352381 80.944702 
L 270.77039 83.716884 
L 276.1884 86.43161 
L 281.606409 93.962666 
L 287.024419 76.758784 
L 292.442428 86.692772 
L 297.860438 88.837345 
L 303.278447 82.47514 
L 308.696456 91.752846 
L 314.114466 87.639055 
L 319.532475 98.569939 
L 324.950485 97.0914 
L 330.368494 94.882718 
L 335.786504 78.391549 
L 341.204513 85.656077 
L 346.622523 82.151173 
L 352.040532 86.954049 
L 357.458542 88.417119 
L 362.876551 75.843146 
L 368.294561 86.217259 
L 373.71257 89.254473 
L 379.130579 91.78454 
L 384.548589 77.841053 
L 389.966598 84.352309 
L 395.384608 78.658132 
L 400.802617 84.094331 
L 406.220627 82.620467 
L 411.638636 84.959371 
L 417.056646 92.117045 
L 422.474655 192.291249 
L 427.892665 241.462767 
L 433.310674 147.200756 
L 438.728684 199.92466 
L 444.146693 218.181894 
L 449.564702 145.599931 
L 454.982712 175.545778 
L 460.400721 189.021512 
L 465.818731 142.201419 
L 471.23674 130.517274 
L 476.65475 117.652483 
L 482.072759 88.785487 
L 487.490769 88.936235 
L 492.908778 78.729945 
L 498.326788 184.555775 
L 503.744797 167.831547 
L 509.162806 186.818416 
L 514.580816 207.503487 
L 519.998825 226.442557 
L 525.416835 155.250081 
L 530.834844 195.61154 
L 536.252854 196.507698 
L 541.670863 163.381251 
L 547.088873 205.029977 
L 552.506882 180.002714 
L 557.924892 229.180078 
L 563.342901 170.350017 
L 568.760911 131.884969 
L 574.17892 129.078054 
L 579.596929 98.035918 
L 585.014939 84.701114 
L 590.432948 87.738669 
L 595.850958 90.99656 
L 601.268967 81.857649 
L 606.686977 97.845629 
L 612.104986 87.523401 
" clip-path="url(#pd891aacff9)" style="fill: none; stroke: #008000; stroke-opacity: 0.27; stroke-width: 1.25; stroke-linecap: round"/>
   </g>
   <g id="line2d_12">
    <path d="M 75.72205 341.783253 
L 81.140059 328.442684 
L 86.558069 329.98657 
L 91.976078 312.682084 
L 97.394088 334.908698 
L 102.812097 327.092942 
L 108.230106 294.801411 
L 113.648116 293.256679 
L 119.066125 282.761394 
L 124.484135 286.907931 
L 129.902144 302.358559 
L 135.320154 290.16422 
L 140.738163 271.118487 
L 146.156173 259.197859 
L 151.574182 247.202172 
L 156.992192 266.155549 
L 162.410201 215.961527 
L 167.828211 205.46675 
L 173.24622 163.215285 
L 178.664229 126.164436 
L 184.082239 148.14198 
L 189.500248 120.785528 
L 194.918258 125.182607 
L 200.336267 111.47384 
L 205.754277 109.528466 
L 211.172286 105.399886 
L 216.590296 95.965274 
L 222.008305 103.799116 
L 227.426315 96.806276 
L 232.844324 98.293559 
L 238.262334 90.851121 
L 243.680343 95.041613 
L 249.098352 88.851001 
L 254.516362 94.581466 
L 259.934371 95.170578 
L 265.352381 92.21795 
L 270.77039 85.119142 
L 276.1884 84.003823 
L 281.606409 81.454188 
L 287.024419 95.957194 
L 292.442428 83.270454 
L 297.860438 97.050746 
L 303.278447 81.867823 
L 308.696456 78.832872 
L 314.114466 99.806966 
L 319.532475 82.395449 
L 324.950485 79.329766 
L 330.368494 76.761135 
L 335.786504 107.677354 
L 341.204513 93.114698 
L 346.622523 92.991788 
L 352.040532 81.526725 
L 357.458542 86.269961 
L 362.876551 87.202213 
L 368.294561 86.074696 
L 373.71257 86.520592 
L 379.130579 84.945734 
L 384.548589 86.119762 
L 389.966598 91.667073 
L 395.384608 84.688063 
L 400.802617 79.889794 
L 406.220627 88.897701 
L 411.638636 93.423234 
L 417.056646 88.162101 
L 422.474655 87.08088 
L 427.892665 86.267347 
L 433.310674 82.912396 
L 438.728684 83.346588 
L 444.146693 83.831444 
L 449.564702 78.355141 
L 454.982712 80.843896 
L 460.400721 83.62727 
L 465.818731 88.456386 
L 471.23674 83.765559 
L 476.65475 84.121783 
L 482.072759 90.068659 
L 487.490769 82.906331 
L 492.908778 80.452272 
L 498.326788 85.126778 
L 503.744797 76.421726 
L 509.162806 81.837542 
L 514.580816 92.428416 
L 519.998825 87.041561 
L 525.416835 84.762733 
L 530.834844 81.894369 
L 536.252854 82.073749 
L 541.670863 84.454364 
L 547.088873 83.799126 
L 552.506882 79.594109 
L 557.924892 86.830725 
L 563.342901 86.91149 
L 568.760911 84.340321 
L 574.17892 91.540471 
L 579.596929 83.242483 
L 585.014939 88.835602 
L 590.432948 74.716171 
L 595.850958 76.757449 
L 601.268967 83.464756 
L 606.686977 82.979822 
L 612.104986 80.021288 
" clip-path="url(#pd891aacff9)" style="fill: none; stroke: #008000; stroke-opacity: 0.27; stroke-width: 1.25; stroke-linecap: round"/>
   </g>
   <g id="line2d_13">
    <path d="M 75.72205 318.674498 
L 81.140059 334.276481 
L 86.558069 293.795682 
L 91.976078 282.447926 
L 97.394088 299.381367 
L 102.812097 291.599022 
L 108.230106 288.736747 
L 113.648116 300.332922 
L 119.066125 276.383828 
L 124.484135 293.050968 
L 129.902144 290.336514 
L 135.320154 277.789548 
L 140.738163 269.07302 
L 146.156173 239.013562 
L 151.574182 198.068396 
L 156.992192 165.692918 
L 162.410201 128.729513 
L 167.828211 102.794588 
L 173.24622 124.486268 
L 178.664229 105.68094 
L 184.082239 105.015581 
L 189.500248 103.562984 
L 194.918258 102.846191 
L 200.336267 107.282302 
L 205.754277 118.909969 
L 211.172286 110.813901 
L 216.590296 113.153311 
L 222.008305 111.432135 
L 227.426315 96.804115 
L 232.844324 107.060316 
L 238.262334 100.275575 
L 243.680343 92.274803 
L 249.098352 84.753806 
L 254.516362 91.595085 
L 259.934371 90.81221 
L 265.352381 98.169162 
L 270.77039 100.578358 
L 276.1884 89.811612 
L 281.606409 87.671591 
L 287.024419 91.673145 
L 292.442428 86.869995 
L 297.860438 99.365181 
L 303.278447 105.208247 
L 308.696456 139.219694 
L 314.114466 154.000508 
L 319.532475 109.077336 
L 324.950485 101.106641 
L 330.368494 86.389431 
L 335.786504 93.772511 
L 341.204513 91.783178 
L 346.622523 77.839549 
L 352.040532 91.431212 
L 357.458542 83.254522 
L 362.876551 86.521777 
L 368.294561 96.514136 
L 373.71257 86.786531 
L 379.130579 87.292458 
L 384.548589 87.114107 
L 389.966598 86.2391 
L 395.384608 77.989972 
L 400.802617 80.44265 
L 406.220627 81.9296 
L 411.638636 80.83398 
L 417.056646 106.244117 
L 422.474655 90.623989 
L 427.892665 82.620017 
L 433.310674 89.748762 
L 438.728684 84.610753 
L 444.146693 86.287519 
L 449.564702 84.895966 
L 454.982712 78.00031 
L 460.400721 86.473603 
L 465.818731 91.032496 
L 471.23674 82.936063 
L 476.65475 80.16465 
L 482.072759 82.451421 
L 487.490769 91.67175 
L 492.908778 74.006313 
L 498.326788 83.958624 
L 503.744797 79.231678 
L 509.162806 78.888493 
L 514.580816 74.497605 
L 519.998825 82.791668 
L 525.416835 86.743375 
L 530.834844 79.982148 
L 536.252854 80.094907 
L 541.670863 84.609942 
L 547.088873 76.617715 
L 552.506882 83.459549 
L 557.924892 82.329794 
L 563.342901 86.980114 
L 568.760911 80.920231 
L 574.17892 82.132554 
L 579.596929 82.45855 
L 585.014939 81.935196 
L 590.432948 79.668233 
L 595.850958 79.710137 
L 601.268967 77.655544 
L 606.686977 81.474075 
L 612.104986 79.913496 
" clip-path="url(#pd891aacff9)" style="fill: none; stroke: #008000; stroke-opacity: 0.27; stroke-width: 1.25; stroke-linecap: round"/>
   </g>
   <g id="line2d_14">
    <path d="M 75.72205 306.666899 
L 81.140059 297.397852 
L 86.558069 307.385293 
L 91.976078 289.620338 
L 97.394088 312.015326 
L 102.812097 307.699903 
L 108.230106 292.231372 
L 113.648116 278.34652 
L 119.066125 281.626211 
L 124.484135 284.048986 
L 129.902144 263.281529 
L 135.320154 254.439007 
L 140.738163 249.631789 
L 146.156173 242.493717 
L 151.574182 223.448658 
L 156.992192 165.300682 
L 162.410201 164.812681 
L 167.828211 161.634738 
L 173.24622 135.552292 
L 178.664229 127.188104 
L 184.082239 117.942756 
L 189.500248 141.469769 
L 194.918258 111.973214 
L 200.336267 120.383705 
L 205.754277 125.452316 
L 211.172286 120.422719 
L 216.590296 132.582568 
L 222.008305 103.024171 
L 227.426315 108.25157 
L 232.844324 107.312788 
L 238.262334 97.925033 
L 243.680343 90.439431 
L 249.098352 99.304264 
L 254.516362 99.626738 
L 259.934371 91.09578 
L 265.352381 89.819688 
L 270.77039 85.709616 
L 276.1884 144.993206 
L 281.606409 105.61686 
L 287.024419 85.873751 
L 292.442428 78.939516 
L 297.860438 116.05901 
L 303.278447 78.103789 
L 308.696456 83.608282 
L 314.114466 94.575011 
L 319.532475 84.432329 
L 324.950485 127.005088 
L 330.368494 176.736833 
L 335.786504 196.469357 
L 341.204513 217.677278 
L 346.622523 186.065593 
L 352.040532 243.918286 
L 357.458542 230.946458 
L 362.876551 228.872937 
L 368.294561 211.116345 
L 373.71257 213.218291 
L 379.130579 269.395484 
L 384.548589 221.20045 
L 389.966598 172.358779 
L 395.384608 213.29273 
L 400.802617 162.258828 
L 406.220627 205.339455 
L 411.638636 215.077387 
L 417.056646 197.299942 
L 422.474655 149.84415 
L 427.892665 157.167938 
L 433.310674 183.203131 
L 438.728684 177.757222 
L 444.146693 189.810956 
L 449.564702 169.862066 
L 454.982712 154.116142 
L 460.400721 131.217226 
L 465.818731 180.02569 
L 471.23674 190.085612 
L 476.65475 209.229968 
L 482.072759 161.507701 
L 487.490769 148.201103 
L 492.908778 104.796738 
L 498.326788 131.278143 
L 503.744797 87.366787 
L 509.162806 78.4756 
L 514.580816 93.313214 
L 519.998825 100.361711 
L 525.416835 90.286206 
L 530.834844 81.94132 
L 536.252854 89.079954 
L 541.670863 89.626918 
L 547.088873 81.603221 
L 552.506882 84.847824 
L 557.924892 87.927746 
L 563.342901 82.962232 
L 568.760911 81.402825 
L 574.17892 86.178703 
L 579.596929 99.45972 
L 585.014939 87.977631 
L 590.432948 83.162173 
L 595.850958 82.210924 
L 601.268967 85.812342 
L 606.686977 81.757188 
L 612.104986 80.823053 
" clip-path="url(#pd891aacff9)" style="fill: none; stroke: #008000; stroke-opacity: 0.27; stroke-width: 1.25; stroke-linecap: round"/>
   </g>
   <g id="line2d_15">
    <path d="M 75.72205 48.737215 
L 81.140059 54.848396 
L 86.558069 66.485994 
L 91.976078 83.659382 
L 97.394088 106.425483 
L 102.812097 128.923299 
L 108.230106 162.131205 
L 113.648116 184.848136 
L 119.066125 222.064805 
L 124.484135 247.244232 
L 129.902144 271.207507 
L 135.320154 282.93272 
L 140.738163 287.852889 
L 146.156173 284.77503 
L 151.574182 290.999214 
L 156.992192 293.581394 
L 162.410201 281.041302 
L 167.828211 284.533677 
L 173.24622 288.703126 
L 178.664229 299.60742 
L 184.082239 300.04095 
L 189.500248 301.960057 
L 194.918258 306.042804 
L 200.336267 310.750687 
L 205.754277 318.033473 
L 211.172286 330.157641 
L 216.590296 327.172287 
L 222.008305 332.395863 
L 227.426315 329.517331 
L 232.844324 334.578131 
L 238.262334 340.146791 
L 243.680343 338.760309 
L 249.098352 345.398221 
L 254.516362 356.382974 
L 259.934371 354.196189 
L 265.352381 352.70233 
L 270.77039 358.588777 
L 276.1884 364.386213 
L 281.606409 360.979033 
L 287.024419 356.463391 
L 292.442428 363.6428 
L 297.860438 372.354201 
L 303.278447 374.070009 
L 308.696456 375.847447 
L 314.114466 378.401636 
L 319.532475 375.174157 
L 324.950485 373.991972 
L 330.368494 380.169274 
L 335.786504 382.814264 
L 341.204513 388.775593 
L 346.622523 387.853467 
L 352.040532 388.496479 
L 357.458542 386.931137 
L 362.876551 382.81394 
L 368.294561 383.070383 
L 373.71257 382.17895 
L 379.130579 377.738733 
L 384.548589 377.592002 
L 389.966598 379.352522 
L 395.384608 378.427147 
L 400.802617 378.670134 
L 406.220627 384.644883 
L 411.638636 385.911926 
L 417.056646 384.690857 
L 422.474655 387.748173 
L 427.892665 389.109952 
L 433.310674 383.184882 
L 438.728684 386.334398 
L 444.146693 381.988139 
L 449.564702 382.359595 
L 454.982712 384.250055 
L 460.400721 384.347605 
L 465.818731 391.382785 
L 471.23674 386.788718 
L 476.65475 384.267217 
L 482.072759 376.062808 
L 487.490769 375.854372 
L 492.908778 373.606909 
L 498.326788 381.300601 
L 503.744797 368.425958 
L 509.162806 361.519409 
L 514.580816 362.359212 
L 519.998825 355.990624 
L 525.416835 360.327488 
L 530.834844 362.247524 
L 536.252854 360.636584 
L 541.670863 363.677384 
L 547.088873 365.086858 
L 552.506882 362.560501 
L 557.924892 356.698683 
L 563.342901 356.113139 
L 568.760911 361.709754 
L 574.17892 363.159146 
L 579.596929 367.861902 
L 585.014939 366.42751 
L 590.432948 368.959608 
L 595.850958 369.523617 
L 601.268967 360.142373 
L 606.686977 362.815188 
L 612.104986 364.631501 
" clip-path="url(#pd891aacff9)" style="fill: none; stroke: #7b3ab8; stroke-width: 1.5; stroke-linecap: round"/>
   </g>
   <g id="patch_3">
    <path d="M 65.14 400.52 
L 65.14 39.6 
" style="fill: none; stroke: #ffffff; stroke-width: 0.8; stroke-linejoin: miter; stroke-linecap: square"/>
   </g>
   <g id="patch_4">
    <path d="M 620.168508 400.52 
L 620.168508 39.6 
" style="fill: none; stroke: #ffffff; stroke-width: 0.8; stroke-linejoin: miter; stroke-linecap: square"/>
   </g>
   <g id="patch_5">
    <path d="M 65.14 400.52 
L 620.168508 400.52 
" style="fill: none; stroke: #ffffff; stroke-width: 0.8; stroke-linejoin: miter; stroke-linecap: square"/>
   </g>
   <g id="patch_6">
    <path d="M 65.14 39.6 
L 620.168508 39.6 
" style="fill: none; stroke: #ffffff; stroke-width: 0.8; stroke-linejoin: miter; stroke-linecap: square"/>
   </g>
  </g>
  <g id="text_9">
   <!-- Pendulum-v1 (Discretized) | CMU-Net (Alignment) -->
   <g style="fill: #262626" transform="translate(71.353125 22.395938) scale(0.18 -0.18)">
    <defs>
     <path id="DejaVuSans-Bold-50" d="M 588 4666 
L 2584 4666 
Q 3475 4666 3951 4270 
Q 4428 3875 4428 3144 
Q 4428 2409 3951 2014 
Q 3475 1619 2584 1619 
L 1791 1619 
L 1791 0 
L 588 0 
L 588 4666 
z
M 1791 3794 
L 1791 2491 
L 2456 2491 
Q 2806 2491 2997 2661 
Q 3188 2831 3188 3144 
Q 3188 3456 2997 3625 
Q 2806 3794 2456 3794 
L 1791 3794 
z
" transform="scale(0.015625)"/>
     <path id="DejaVuSans-Bold-65" d="M 4031 1759 
L 4031 1441 
L 1416 1441 
Q 1456 1047 1700 850 
Q 1944 653 2381 653 
Q 2734 653 3104 758 
Q 3475 863 3866 1075 
L 3866 213 
Q 3469 63 3072 -14 
Q 2675 -91 2278 -91 
Q 1328 -91 801 392 
Q 275 875 275 1747 
Q 275 2603 792 3093 
Q 1309 3584 2216 3584 
Q 3041 3584 3536 3087 
Q 4031 2591 4031 1759 
z
M 2881 2131 
Q 2881 2450 2695 2645 
Q 2509 2841 2209 2841 
Q 1884 2841 1681 2658 
Q 1478 2475 1428 2131 
L 2881 2131 
z
" transform="scale(0.015625)"/>
     <path id="DejaVuSans-Bold-6e" d="M 4056 2131 
L 4056 0 
L 2931 0 
L 2931 347 
L 2931 1631 
Q 2931 2084 2911 2256 
Q 2891 2428 2841 2509 
Q 2775 2619 2662 2680 
Q 2550 2741 2406 2741 
Q 2056 2741 1856 2470 
Q 1656 2200 1656 1722 
L 1656 0 
L 538 0 
L 538 3500 
L 1656 3500 
L 1656 2988 
Q 1909 3294 2193 3439 
Q 2478 3584 2822 3584 
Q 3428 3584 3742 3212 
Q 4056 2841 4056 2131 
z
" transform="scale(0.015625)"/>
     <path id="DejaVuSans-Bold-64" d="M 2919 2988 
L 2919 4863 
L 4044 4863 
L 4044 0 
L 2919 0 
L 2919 506 
Q 2688 197 2409 53 
Q 2131 -91 1766 -91 
Q 1119 -91 703 423 
Q 288 938 288 1747 
Q 288 2556 703 3070 
Q 1119 3584 1766 3584 
Q 2128 3584 2408 3439 
Q 2688 3294 2919 2988 
z
M 2181 722 
Q 2541 722 2730 984 
Q 2919 1247 2919 1747 
Q 2919 2247 2730 2509 
Q 2541 2772 2181 2772 
Q 1825 2772 1636 2509 
Q 1447 2247 1447 1747 
Q 1447 1247 1636 984 
Q 1825 722 2181 722 
z
" transform="scale(0.015625)"/>
     <path id="DejaVuSans-Bold-75" d="M 500 1363 
L 500 3500 
L 1625 3500 
L 1625 3150 
Q 1625 2866 1622 2436 
Q 1619 2006 1619 1863 
Q 1619 1441 1641 1255 
Q 1663 1069 1716 984 
Q 1784 875 1895 815 
Q 2006 756 2150 756 
Q 2500 756 2700 1025 
Q 2900 1294 2900 1772 
L 2900 3500 
L 4019 3500 
L 4019 0 
L 2900 0 
L 2900 506 
Q 2647 200 2364 54 
Q 2081 -91 1741 -91 
Q 1134 -91 817 281 
Q 500 653 500 1363 
z
" transform="scale(0.015625)"/>
     <path id="DejaVuSans-Bold-6c" d="M 538 4863 
L 1656 4863 
L 1656 0 
L 538 0 
L 538 4863 
z
" transform="scale(0.015625)"/>
     <path id="DejaVuSans-Bold-6d" d="M 3781 2919 
Q 3994 3244 4286 3414 
Q 4578 3584 4928 3584 
Q 5531 3584 5847 3212 
Q 6163 2841 6163 2131 
L 6163 0 
L 5038 0 
L 5038 1825 
Q 5041 1866 5042 1909 
Q 5044 1953 5044 2034 
Q 5044 2406 4934 2573 
Q 4825 2741 4581 2741 
Q 4263 2741 4089 2478 
Q 3916 2216 3909 1719 
L 3909 0 
L 2784 0 
L 2784 1825 
Q 2784 2406 2684 2573 
Q 2584 2741 2328 2741 
Q 2006 2741 1831 2477 
Q 1656 2213 1656 1722 
L 1656 0 
L 531 0 
L 531 3500 
L 1656 3500 
L 1656 2988 
Q 1863 3284 2130 3434 
Q 2397 3584 2719 3584 
Q 3081 3584 3359 3409 
Q 3638 3234 3781 2919 
z
" transform="scale(0.015625)"/>
     <path id="DejaVuSans-Bold-2d" d="M 347 2297 
L 2309 2297 
L 2309 1388 
L 347 1388 
L 347 2297 
z
" transform="scale(0.015625)"/>
     <path id="DejaVuSans-Bold-76" d="M 97 3500 
L 1216 3500 
L 2088 1081 
L 2956 3500 
L 4078 3500 
L 2700 0 
L 1472 0 
L 97 3500 
z
" transform="scale(0.015625)"/>
     <path id="DejaVuSans-Bold-31" d="M 750 831 
L 1813 831 
L 1813 3847 
L 722 3622 
L 722 4441 
L 1806 4666 
L 2950 4666 
L 2950 831 
L 4013 831 
L 4013 0 
L 750 0 
L 750 831 
z
" transform="scale(0.015625)"/>
     <path id="DejaVuSans-Bold-20" transform="scale(0.015625)"/>
     <path id="DejaVuSans-Bold-28" d="M 2413 -844 
L 1484 -844 
Q 1006 -72 778 623 
Q 550 1319 550 2003 
Q 550 2688 779 3389 
Q 1009 4091 1484 4856 
L 2413 4856 
Q 2013 4116 1813 3408 
Q 1613 2700 1613 2009 
Q 1613 1319 1811 609 
Q 2009 -100 2413 -844 
z
" transform="scale(0.015625)"/>
     <path id="DejaVuSans-Bold-44" d="M 1791 3756 
L 1791 909 
L 2222 909 
Q 2959 909 3348 1275 
Q 3738 1641 3738 2338 
Q 3738 3031 3350 3393 
Q 2963 3756 2222 3756 
L 1791 3756 
z
M 588 4666 
L 1856 4666 
Q 2919 4666 3439 4514 
Q 3959 4363 4331 4000 
Q 4659 3684 4818 3271 
Q 4978 2859 4978 2338 
Q 4978 1809 4818 1395 
Q 4659 981 4331 666 
Q 3956 303 3431 151 
Q 2906 0 1856 0 
L 588 0 
L 588 4666 
z
" transform="scale(0.015625)"/>
     <path id="DejaVuSans-Bold-69" d="M 538 3500 
L 1656 3500 
L 1656 0 
L 538 0 
L 538 3500 
z
M 538 4863 
L 1656 4863 
L 1656 3950 
L 538 3950 
L 538 4863 
z
" transform="scale(0.015625)"/>
     <path id="DejaVuSans-Bold-73" d="M 3272 3391 
L 3272 2541 
Q 2913 2691 2578 2766 
Q 2244 2841 1947 2841 
Q 1628 2841 1473 2761 
Q 1319 2681 1319 2516 
Q 1319 2381 1436 2309 
Q 1553 2238 1856 2203 
L 2053 2175 
Q 2913 2066 3209 1816 
Q 3506 1566 3506 1031 
Q 3506 472 3093 190 
Q 2681 -91 1863 -91 
Q 1516 -91 1145 -36 
Q 775 19 384 128 
L 384 978 
Q 719 816 1070 734 
Q 1422 653 1784 653 
Q 2113 653 2278 743 
Q 2444 834 2444 1013 
Q 2444 1163 2330 1236 
Q 2216 1309 1875 1350 
L 1678 1375 
Q 931 1469 631 1722 
Q 331 1975 331 2491 
Q 331 3047 712 3315 
Q 1094 3584 1881 3584 
Q 2191 3584 2531 3537 
Q 2872 3491 3272 3391 
z
" transform="scale(0.015625)"/>
     <path id="DejaVuSans-Bold-63" d="M 3366 3391 
L 3366 2478 
Q 3138 2634 2908 2709 
Q 2678 2784 2431 2784 
Q 1963 2784 1702 2511 
Q 1441 2238 1441 1747 
Q 1441 1256 1702 982 
Q 1963 709 2431 709 
Q 2694 709 2930 787 
Q 3166 866 3366 1019 
L 3366 103 
Q 3103 6 2833 -42 
Q 2563 -91 2291 -91 
Q 1344 -91 809 395 
Q 275 881 275 1747 
Q 275 2613 809 3098 
Q 1344 3584 2291 3584 
Q 2566 3584 2833 3536 
Q 3100 3488 3366 3391 
z
" transform="scale(0.015625)"/>
     <path id="DejaVuSans-Bold-72" d="M 3138 2547 
Q 2991 2616 2845 2648 
Q 2700 2681 2553 2681 
Q 2122 2681 1889 2404 
Q 1656 2128 1656 1613 
L 1656 0 
L 538 0 
L 538 3500 
L 1656 3500 
L 1656 2925 
Q 1872 3269 2151 3426 
Q 2431 3584 2822 3584 
Q 2878 3584 2943 3579 
Q 3009 3575 3134 3559 
L 3138 2547 
z
" transform="scale(0.015625)"/>
     <path id="DejaVuSans-Bold-74" d="M 1759 4494 
L 1759 3500 
L 2913 3500 
L 2913 2700 
L 1759 2700 
L 1759 1216 
Q 1759 972 1856 886 
Q 1953 800 2241 800 
L 2816 800 
L 2816 0 
L 1856 0 
Q 1194 0 917 276 
Q 641 553 641 1216 
L 641 2700 
L 84 2700 
L 84 3500 
L 641 3500 
L 641 4494 
L 1759 4494 
z
" transform="scale(0.015625)"/>
     <path id="DejaVuSans-Bold-7a" d="M 366 3500 
L 3419 3500 
L 3419 2719 
L 1575 800 
L 3419 800 
L 3419 0 
L 288 0 
L 288 781 
L 2131 2700 
L 366 2700 
L 366 3500 
z
" transform="scale(0.015625)"/>
     <path id="DejaVuSans-Bold-29" d="M 513 -844 
Q 913 -100 1113 609 
Q 1313 1319 1313 2009 
Q 1313 2700 1113 3408 
Q 913 4116 513 4856 
L 1441 4856 
Q 1916 4091 2145 3389 
Q 2375 2688 2375 2003 
Q 2375 1319 2147 623 
Q 1919 -72 1441 -844 
L 513 -844 
z
" transform="scale(0.015625)"/>
     <path id="DejaVuSans-Bold-7c" d="M 1522 4891 
L 1522 -1509 
L 813 -1509 
L 813 4891 
L 1522 4891 
z
" transform="scale(0.015625)"/>
     <path id="DejaVuSans-Bold-43" d="M 4288 256 
Q 3956 84 3597 -3 
Q 3238 -91 2847 -91 
Q 1681 -91 1000 561 
Q 319 1213 319 2328 
Q 319 3447 1000 4098 
Q 1681 4750 2847 4750 
Q 3238 4750 3597 4662 
Q 3956 4575 4288 4403 
L 4288 3438 
Q 3953 3666 3628 3772 
Q 3303 3878 2944 3878 
Q 2300 3878 1931 3465 
Q 1563 3053 1563 2328 
Q 1563 1606 1931 1193 
Q 2300 781 2944 781 
Q 3303 781 3628 887 
Q 3953 994 4288 1222 
L 4288 256 
z
" transform="scale(0.015625)"/>
     <path id="DejaVuSans-Bold-4d" d="M 588 4666 
L 2119 4666 
L 3181 2169 
L 4250 4666 
L 5778 4666 
L 5778 0 
L 4641 0 
L 4641 3413 
L 3566 897 
L 2803 897 
L 1728 3413 
L 1728 0 
L 588 0 
L 588 4666 
z
" transform="scale(0.015625)"/>
     <path id="DejaVuSans-Bold-55" d="M 588 4666 
L 1791 4666 
L 1791 1869 
Q 1791 1291 1980 1042 
Q 2169 794 2597 794 
Q 3028 794 3217 1042 
Q 3406 1291 3406 1869 
L 3406 4666 
L 4609 4666 
L 4609 1869 
Q 4609 878 4112 393 
Q 3616 -91 2597 -91 
Q 1581 -91 1084 393 
Q 588 878 588 1869 
L 588 4666 
z
" transform="scale(0.015625)"/>
     <path id="DejaVuSans-Bold-4e" d="M 588 4666 
L 1931 4666 
L 3628 1466 
L 3628 4666 
L 4769 4666 
L 4769 0 
L 3425 0 
L 1728 3200 
L 1728 0 
L 588 0 
L 588 4666 
z
" transform="scale(0.015625)"/>
     <path id="DejaVuSans-Bold-41" d="M 3419 850 
L 1538 850 
L 1241 0 
L 31 0 
L 1759 4666 
L 3194 4666 
L 4922 0 
L 3713 0 
L 3419 850 
z
M 1838 1716 
L 3116 1716 
L 2478 3572 
L 1838 1716 
z
" transform="scale(0.015625)"/>
     <path id="DejaVuSans-Bold-67" d="M 2919 594 
Q 2688 288 2409 144 
Q 2131 0 1766 0 
Q 1125 0 706 504 
Q 288 1009 288 1791 
Q 288 2575 706 3076 
Q 1125 3578 1766 3578 
Q 2131 3578 2409 3434 
Q 2688 3291 2919 2981 
L 2919 3500 
L 4044 3500 
L 4044 353 
Q 4044 -491 3511 -936 
Q 2978 -1381 1966 -1381 
Q 1638 -1381 1331 -1331 
Q 1025 -1281 716 -1178 
L 716 -306 
Q 1009 -475 1290 -558 
Q 1572 -641 1856 -641 
Q 2406 -641 2662 -400 
Q 2919 -159 2919 353 
L 2919 594 
z
M 2181 2772 
Q 1834 2772 1640 2515 
Q 1447 2259 1447 1791 
Q 1447 1309 1634 1061 
Q 1822 813 2181 813 
Q 2531 813 2725 1069 
Q 2919 1325 2919 1791 
Q 2919 2259 2725 2515 
Q 2531 2772 2181 2772 
z
" transform="scale(0.015625)"/>
    </defs>
    <use xlink:href="#DejaVuSans-Bold-50"/>
    <use xlink:href="#DejaVuSans-Bold-65" transform="translate(73.291016 0)"/>
    <use xlink:href="#DejaVuSans-Bold-6e" transform="translate(141.113281 0)"/>
    <use xlink:href="#DejaVuSans-Bold-64" transform="translate(212.304688 0)"/>
    <use xlink:href="#DejaVuSans-Bold-75" transform="translate(283.886719 0)"/>
    <use xlink:href="#DejaVuSans-Bold-6c" transform="translate(355.078125 0)"/>
    <use xlink:href="#DejaVuSans-Bold-75" transform="translate(389.355469 0)"/>
    <use xlink:href="#DejaVuSans-Bold-6d" transform="translate(460.546875 0)"/>
    <use xlink:href="#DejaVuSans-Bold-2d" transform="translate(564.746094 0)"/>
    <use xlink:href="#DejaVuSans-Bold-76" transform="translate(606.25 0)"/>
    <use xlink:href="#DejaVuSans-Bold-31" transform="translate(671.435547 0)"/>
    <use xlink:href="#DejaVuSans-Bold-20" transform="translate(741.015625 0)"/>
    <use xlink:href="#DejaVuSans-Bold-28" transform="translate(775.830078 0)"/>
    <use xlink:href="#DejaVuSans-Bold-44" transform="translate(821.533203 0)"/>
    <use xlink:href="#DejaVuSans-Bold-69" transform="translate(904.541016 0)"/>
    <use xlink:href="#DejaVuSans-Bold-73" transform="translate(938.818359 0)"/>
    <use xlink:href="#DejaVuSans-Bold-63" transform="translate(998.339844 0)"/>
    <use xlink:href="#DejaVuSans-Bold-72" transform="translate(1057.617188 0)"/>
    <use xlink:href="#DejaVuSans-Bold-65" transform="translate(1106.933594 0)"/>
    <use xlink:href="#DejaVuSans-Bold-74" transform="translate(1174.755859 0)"/>
    <use xlink:href="#DejaVuSans-Bold-69" transform="translate(1222.558594 0)"/>
    <use xlink:href="#DejaVuSans-Bold-7a" transform="translate(1256.835938 0)"/>
    <use xlink:href="#DejaVuSans-Bold-65" transform="translate(1315.039062 0)"/>
    <use xlink:href="#DejaVuSans-Bold-64" transform="translate(1382.861328 0)"/>
    <use xlink:href="#DejaVuSans-Bold-29" transform="translate(1454.443359 0)"/>
    <use xlink:href="#DejaVuSans-Bold-20" transform="translate(1500.146484 0)"/>
    <use xlink:href="#DejaVuSans-Bold-7c" transform="translate(1534.960938 0)"/>
    <use xlink:href="#DejaVuSans-Bold-20" transform="translate(1571.484375 0)"/>
    <use xlink:href="#DejaVuSans-Bold-43" transform="translate(1606.298828 0)"/>
    <use xlink:href="#DejaVuSans-Bold-4d" transform="translate(1679.6875 0)"/>
    <use xlink:href="#DejaVuSans-Bold-55" transform="translate(1779.199219 0)"/>
    <use xlink:href="#DejaVuSans-Bold-2d" transform="translate(1860.400391 0)"/>
    <use xlink:href="#DejaVuSans-Bold-4e" transform="translate(1901.904297 0)"/>
    <use xlink:href="#DejaVuSans-Bold-65" transform="translate(1985.595703 0)"/>
    <use xlink:href="#DejaVuSans-Bold-74" transform="translate(2053.417969 0)"/>
    <use xlink:href="#DejaVuSans-Bold-20" transform="translate(2101.220703 0)"/>
    <use xlink:href="#DejaVuSans-Bold-28" transform="translate(2136.035156 0)"/>
    <use xlink:href="#DejaVuSans-Bold-41" transform="translate(2181.738281 0)"/>
    <use xlink:href="#DejaVuSans-Bold-6c" transform="translate(2259.130859 0)"/>
    <use xlink:href="#DejaVuSans-Bold-69" transform="translate(2293.408203 0)"/>
    <use xlink:href="#DejaVuSans-Bold-67" transform="translate(2327.685547 0)"/>
    <use xlink:href="#DejaVuSans-Bold-6e" transform="translate(2399.267578 0)"/>
    <use xlink:href="#DejaVuSans-Bold-6d" transform="translate(2470.458984 0)"/>
    <use xlink:href="#DejaVuSans-Bold-65" transform="translate(2574.658203 0)"/>
    <use xlink:href="#DejaVuSans-Bold-6e" transform="translate(2642.480469 0)"/>
    <use xlink:href="#DejaVuSans-Bold-74" transform="translate(2713.671875 0)"/>
    <use xlink:href="#DejaVuSans-Bold-29" transform="translate(2761.474609 0)"/>
   </g>
  </g>
 </g>
 <defs>
  <clipPath id="pd891aacff9">
   <rect x="65.14" y="39.6" width="555.028508" height="360.92"/>
  </clipPath>
 </defs>
</svg>
