<?xml version="1.0" encoding="utf-8" standalone="no"?>
<!DOCTYPE svg PUBLIC "-//W3C//DTD SVG 1.1//EN"
  "http://www.w3.org/Graphics/SVG/1.1/DTD/svg11.dtd">
<svg xmlns:xlink="http://www.w3.org/1999/xlink" width="648pt" height="432pt" viewBox="0 0 648 432" xmlns="http://www.w3.org/2000/svg" version="1.1">
 <metadata>
  <rdf:RDF xmlns:dc="http://purl.org/dc/elements/1.1/" xmlns:cc="http://creativecommons.org/ns#" xmlns:rdf="http://www.w3.org/1999/02/22-rdf-syntax-ns#">
   <cc:Work>
    <dc:type rdf:resource="http://purl.org/dc/dcmitype/StillImage"/>
    <dc:date>2025-07-31T05:18:15.229650</dc:date>
    <dc:format>image/svg+xml</dc:format>
    <dc:creator>
     <cc:Agent>
      <dc:title>Matplotlib v3.10.0, https://matplotlib.org/</dc:title>
     </cc:Agent>
    </dc:creator>
   </cc:Work>
  </rdf:RDF>
 </metadata>
 <defs>
  <style type="text/css">*{stroke-linejoin: round; stroke-linecap: butt}</style>
 </defs>
 <g id="figure_1">
  <g id="patch_1">
   <path d="M 0 432 
L 648 432 
L 648 0 
L 0 0 
z
" style="fill: #ffffff"/>
  </g>
  <g id="axes_1">
   <g id="patch_2">
    <path d="M 65.14 400.52 
L 620.168508 400.52 
L 620.168508 39.6 
L 65.14 39.6 
z
" style="fill: #eaeaf2"/>
   </g>
   <g id="matplotlib.axis_1">
    <g id="xtick_1">
     <g id="line2d_1">
      <path d="M 75.72205 400.52 
L 75.72205 39.6 
" clip-path="url(#p502de304dd)" style="fill: none; stroke: #ffffff; stroke-width: 0.8; stroke-linecap: round"/>
     </g>
     <g id="text_1">
      <!-- 0 -->
      <g style="fill: #262626" transform="translate(71.2683 418.157812) scale(0.14 -0.14)">
       <defs>
        <path id="DejaVuSans-30" d="M 2034 4250 
Q 1547 4250 1301 3770 
Q 1056 3291 1056 2328 
Q 1056 1369 1301 889 
Q 1547 409 2034 409 
Q 2525 409 2770 889 
Q 3016 1369 3016 2328 
Q 3016 3291 2770 3770 
Q 2525 4250 2034 4250 
z
M 2034 4750 
Q 2819 4750 3233 4129 
Q 3647 3509 3647 2328 
Q 3647 1150 3233 529 
Q 2819 -91 2034 -91 
Q 1250 -91 836 529 
Q 422 1150 422 2328 
Q 422 3509 836 4129 
Q 1250 4750 2034 4750 
z
" transform="scale(0.015625)"/>
       </defs>
       <use xlink:href="#DejaVuSans-30"/>
      </g>
     </g>
    </g>
    <g id="xtick_2">
     <g id="line2d_2">
      <path d="M 604.824536 400.52 
L 604.824536 39.6 
" clip-path="url(#p502de304dd)" style="fill: none; stroke: #ffffff; stroke-width: 0.8; stroke-linecap: round"/>
     </g>
     <g id="text_2">
      <!-- 2000000 -->
      <g style="fill: #262626" transform="translate(573.648286 418.157812) scale(0.14 -0.14)">
       <defs>
        <path id="DejaVuSans-32" d="M 1228 531 
L 3431 531 
L 3431 0 
L 469 0 
L 469 531 
Q 828 903 1448 1529 
Q 2069 2156 2228 2338 
Q 2531 2678 2651 2914 
Q 2772 3150 2772 3378 
Q 2772 3750 2511 3984 
Q 2250 4219 1831 4219 
Q 1534 4219 1204 4116 
Q 875 4013 500 3803 
L 500 4441 
Q 881 4594 1212 4672 
Q 1544 4750 1819 4750 
Q 2544 4750 2975 4387 
Q 3406 4025 3406 3419 
Q 3406 3131 3298 2873 
Q 3191 2616 2906 2266 
Q 2828 2175 2409 1742 
Q 1991 1309 1228 531 
z
" transform="scale(0.015625)"/>
       </defs>
       <use xlink:href="#DejaVuSans-32"/>
       <use xlink:href="#DejaVuSans-30" transform="translate(63.623047 0)"/>
       <use xlink:href="#DejaVuSans-30" transform="translate(127.246094 0)"/>
       <use xlink:href="#DejaVuSans-30" transform="translate(190.869141 0)"/>
       <use xlink:href="#DejaVuSans-30" transform="translate(254.492188 0)"/>
       <use xlink:href="#DejaVuSans-30" transform="translate(318.115234 0)"/>
       <use xlink:href="#DejaVuSans-30" transform="translate(381.738281 0)"/>
      </g>
     </g>
    </g>
   </g>
   <g id="matplotlib.axis_2">
    <g id="ytick_1">
     <g id="line2d_3">
      <path d="M 65.14 391.382785 
L 620.168508 391.382785 
" clip-path="url(#p502de304dd)" style="fill: none; stroke: #ffffff; stroke-width: 0.8; stroke-linecap: round"/>
     </g>
     <g id="text_3">
      <!-- −1500 -->
      <g style="fill: #262626" transform="translate(10.778437 396.701691) scale(0.14 -0.14)">
       <defs>
        <path id="DejaVuSans-2212" d="M 678 2272 
L 4684 2272 
L 4684 1741 
L 678 1741 
L 678 2272 
z
" transform="scale(0.015625)"/>
        <path id="DejaVuSans-31" d="M 794 531 
L 1825 531 
L 1825 4091 
L 703 3866 
L 703 4441 
L 1819 4666 
L 2450 4666 
L 2450 531 
L 3481 531 
L 3481 0 
L 794 0 
L 794 531 
z
" transform="scale(0.015625)"/>
        <path id="DejaVuSans-35" d="M 691 4666 
L 3169 4666 
L 3169 4134 
L 1269 4134 
L 1269 2991 
Q 1406 3038 1543 3061 
Q 1681 3084 1819 3084 
Q 2600 3084 3056 2656 
Q 3513 2228 3513 1497 
Q 3513 744 3044 326 
Q 2575 -91 1722 -91 
Q 1428 -91 1123 -41 
Q 819 9 494 109 
L 494 744 
Q 775 591 1075 516 
Q 1375 441 1709 441 
Q 2250 441 2565 725 
Q 2881 1009 2881 1497 
Q 2881 1984 2565 2268 
Q 2250 2553 1709 2553 
Q 1456 2553 1204 2497 
Q 953 2441 691 2322 
L 691 4666 
z
" transform="scale(0.015625)"/>
       </defs>
       <use xlink:href="#DejaVuSans-2212"/>
       <use xlink:href="#DejaVuSans-31" transform="translate(83.789062 0)"/>
       <use xlink:href="#DejaVuSans-35" transform="translate(147.412109 0)"/>
       <use xlink:href="#DejaVuSans-30" transform="translate(211.035156 0)"/>
       <use xlink:href="#DejaVuSans-30" transform="translate(274.658203 0)"/>
      </g>
     </g>
    </g>
    <g id="ytick_2">
     <g id="line2d_4">
      <path d="M 65.14 322.853671 
L 620.168508 322.853671 
" clip-path="url(#p502de304dd)" style="fill: none; stroke: #ffffff; stroke-width: 0.8; stroke-linecap: round"/>
     </g>
     <g id="text_4">
      <!-- −1200 -->
      <g style="fill: #262626" transform="translate(10.778437 328.172577) scale(0.14 -0.14)">
       <use xlink:href="#DejaVuSans-2212"/>
       <use xlink:href="#DejaVuSans-31" transform="translate(83.789062 0)"/>
       <use xlink:href="#DejaVuSans-32" transform="translate(147.412109 0)"/>
       <use xlink:href="#DejaVuSans-30" transform="translate(211.035156 0)"/>
       <use xlink:href="#DejaVuSans-30" transform="translate(274.658203 0)"/>
      </g>
     </g>
    </g>
    <g id="ytick_3">
     <g id="line2d_5">
      <path d="M 65.14 254.324557 
L 620.168508 254.324557 
" clip-path="url(#p502de304dd)" style="fill: none; stroke: #ffffff; stroke-width: 0.8; stroke-linecap: round"/>
     </g>
     <g id="text_5">
      <!-- −900 -->
      <g style="fill: #262626" transform="translate(19.685937 259.643463) scale(0.14 -0.14)">
       <defs>
        <path id="DejaVuSans-39" d="M 703 97 
L 703 672 
Q 941 559 1184 500 
Q 1428 441 1663 441 
Q 2288 441 2617 861 
Q 2947 1281 2994 2138 
Q 2813 1869 2534 1725 
Q 2256 1581 1919 1581 
Q 1219 1581 811 2004 
Q 403 2428 403 3163 
Q 403 3881 828 4315 
Q 1253 4750 1959 4750 
Q 2769 4750 3195 4129 
Q 3622 3509 3622 2328 
Q 3622 1225 3098 567 
Q 2575 -91 1691 -91 
Q 1453 -91 1209 -44 
Q 966 3 703 97 
z
M 1959 2075 
Q 2384 2075 2632 2365 
Q 2881 2656 2881 3163 
Q 2881 3666 2632 3958 
Q 2384 4250 1959 4250 
Q 1534 4250 1286 3958 
Q 1038 3666 1038 3163 
Q 1038 2656 1286 2365 
Q 1534 2075 1959 2075 
z
" transform="scale(0.015625)"/>
       </defs>
       <use xlink:href="#DejaVuSans-2212"/>
       <use xlink:href="#DejaVuSans-39" transform="translate(83.789062 0)"/>
       <use xlink:href="#DejaVuSans-30" transform="translate(147.412109 0)"/>
       <use xlink:href="#DejaVuSans-30" transform="translate(211.035156 0)"/>
      </g>
     </g>
    </g>
    <g id="ytick_4">
     <g id="line2d_6">
      <path d="M 65.14 185.795443 
L 620.168508 185.795443 
" clip-path="url(#p502de304dd)" style="fill: none; stroke: #ffffff; stroke-width: 0.8; stroke-linecap: round"/>
     </g>
     <g id="text_6">
      <!-- −600 -->
      <g style="fill: #262626" transform="translate(19.685937 191.114349) scale(0.14 -0.14)">
       <defs>
        <path id="DejaVuSans-36" d="M 2113 2584 
Q 1688 2584 1439 2293 
Q 1191 2003 1191 1497 
Q 1191 994 1439 701 
Q 1688 409 2113 409 
Q 2538 409 2786 701 
Q 3034 994 3034 1497 
Q 3034 2003 2786 2293 
Q 2538 2584 2113 2584 
z
M 3366 4563 
L 3366 3988 
Q 3128 4100 2886 4159 
Q 2644 4219 2406 4219 
Q 1781 4219 1451 3797 
Q 1122 3375 1075 2522 
Q 1259 2794 1537 2939 
Q 1816 3084 2150 3084 
Q 2853 3084 3261 2657 
Q 3669 2231 3669 1497 
Q 3669 778 3244 343 
Q 2819 -91 2113 -91 
Q 1303 -91 875 529 
Q 447 1150 447 2328 
Q 447 3434 972 4092 
Q 1497 4750 2381 4750 
Q 2619 4750 2861 4703 
Q 3103 4656 3366 4563 
z
" transform="scale(0.015625)"/>
       </defs>
       <use xlink:href="#DejaVuSans-2212"/>
       <use xlink:href="#DejaVuSans-36" transform="translate(83.789062 0)"/>
       <use xlink:href="#DejaVuSans-30" transform="translate(147.412109 0)"/>
       <use xlink:href="#DejaVuSans-30" transform="translate(211.035156 0)"/>
      </g>
     </g>
    </g>
    <g id="ytick_5">
     <g id="line2d_7">
      <path d="M 65.14 117.266329 
L 620.168508 117.266329 
" clip-path="url(#p502de304dd)" style="fill: none; stroke: #ffffff; stroke-width: 0.8; stroke-linecap: round"/>
     </g>
     <g id="text_7">
      <!-- −300 -->
      <g style="fill: #262626" transform="translate(19.685937 122.585235) scale(0.14 -0.14)">
       <defs>
        <path id="DejaVuSans-33" d="M 2597 2516 
Q 3050 2419 3304 2112 
Q 3559 1806 3559 1356 
Q 3559 666 3084 287 
Q 2609 -91 1734 -91 
Q 1441 -91 1130 -33 
Q 819 25 488 141 
L 488 750 
Q 750 597 1062 519 
Q 1375 441 1716 441 
Q 2309 441 2620 675 
Q 2931 909 2931 1356 
Q 2931 1769 2642 2001 
Q 2353 2234 1838 2234 
L 1294 2234 
L 1294 2753 
L 1863 2753 
Q 2328 2753 2575 2939 
Q 2822 3125 2822 3475 
Q 2822 3834 2567 4026 
Q 2313 4219 1838 4219 
Q 1578 4219 1281 4162 
Q 984 4106 628 3988 
L 628 4550 
Q 988 4650 1302 4700 
Q 1616 4750 1894 4750 
Q 2613 4750 3031 4423 
Q 3450 4097 3450 3541 
Q 3450 3153 3228 2886 
Q 3006 2619 2597 2516 
z
" transform="scale(0.015625)"/>
       </defs>
       <use xlink:href="#DejaVuSans-2212"/>
       <use xlink:href="#DejaVuSans-33" transform="translate(83.789062 0)"/>
       <use xlink:href="#DejaVuSans-30" transform="translate(147.412109 0)"/>
       <use xlink:href="#DejaVuSans-30" transform="translate(211.035156 0)"/>
      </g>
     </g>
    </g>
    <g id="ytick_6">
     <g id="line2d_8">
      <path d="M 65.14 48.737215 
L 620.168508 48.737215 
" clip-path="url(#p502de304dd)" style="fill: none; stroke: #ffffff; stroke-width: 0.8; stroke-linecap: round"/>
     </g>
     <g id="text_8">
      <!-- 0 -->
      <g style="fill: #262626" transform="translate(49.2325 54.056121) scale(0.14 -0.14)">
       <use xlink:href="#DejaVuSans-30"/>
      </g>
     </g>
    </g>
   </g>
   <g id="FillBetweenPolyCollection_1">
    <path d="M 75.72205 312.901016 
L 75.72205 339.068808 
L 81.140059 329.789935 
L 86.558069 335.637756 
L 91.976078 315.153397 
L 97.394088 313.460604 
L 102.812097 312.54179 
L 108.230106 306.313256 
L 113.648116 307.550029 
L 119.066125 303.850268 
L 124.484135 311.608382 
L 129.902144 303.67085 
L 135.320154 296.186834 
L 140.738163 297.826006 
L 146.156173 291.056534 
L 151.574182 290.349575 
L 156.992192 287.271867 
L 162.410201 275.963146 
L 167.828211 263.403499 
L 173.24622 255.429625 
L 178.664229 257.157415 
L 184.082239 255.088109 
L 189.500248 266.824718 
L 194.918258 246.753663 
L 200.336267 255.624125 
L 205.754277 269.845458 
L 211.172286 256.276573 
L 216.590296 255.867911 
L 222.008305 256.83762 
L 227.426315 262.973131 
L 232.844324 248.102007 
L 238.262334 247.939137 
L 243.680343 249.056725 
L 249.098352 249.949209 
L 254.516362 257.648138 
L 259.934371 241.638868 
L 265.352381 262.156091 
L 270.77039 263.191335 
L 276.1884 258.497455 
L 281.606409 260.270391 
L 287.024419 242.96292 
L 292.442428 234.637796 
L 297.860438 254.974594 
L 303.278447 246.941896 
L 308.696456 241.855177 
L 314.114466 250.740361 
L 319.532475 233.610297 
L 324.950485 253.424695 
L 330.368494 238.982125 
L 335.786504 235.83749 
L 341.204513 230.684217 
L 346.622523 267.731265 
L 352.040532 227.860661 
L 357.458542 244.703965 
L 362.876551 256.623191 
L 368.294561 247.110513 
L 373.71257 248.726876 
L 379.130579 213.222109 
L 384.548589 243.807494 
L 389.966598 246.03918 
L 395.384608 193.225593 
L 400.802617 227.743379 
L 406.220627 216.381388 
L 411.638636 223.29167 
L 417.056646 225.119927 
L 422.474655 211.004594 
L 427.892665 228.487118 
L 433.310674 229.760843 
L 438.728684 219.195565 
L 444.146693 207.392525 
L 449.564702 206.49462 
L 454.982712 203.215214 
L 460.400721 201.871571 
L 465.818731 184.977978 
L 471.23674 180.300249 
L 476.65475 181.576637 
L 482.072759 196.67506 
L 487.490769 206.980002 
L 492.908778 206.630501 
L 498.326788 191.914152 
L 503.744797 202.299464 
L 509.162806 186.077103 
L 514.580816 163.603393 
L 519.998825 178.064807 
L 525.416835 193.907861 
L 530.834844 160.669808 
L 536.252854 192.562612 
L 541.670863 174.439975 
L 547.088873 175.58509 
L 552.506882 158.137462 
L 557.924892 166.457819 
L 563.342901 135.307476 
L 568.760911 131.297921 
L 574.17892 118.995122 
L 579.596929 117.361707 
L 585.014939 107.97947 
L 590.432948 103.049144 
L 595.850958 98.171546 
L 601.268967 98.869862 
L 606.686977 111.869015 
L 612.104986 94.575646 
L 612.104986 81.904664 
L 612.104986 81.904664 
L 606.686977 76.686756 
L 601.268967 75.242974 
L 595.850958 78.432212 
L 590.432948 72.620727 
L 585.014939 75.435848 
L 579.596929 74.057412 
L 574.17892 78.125991 
L 568.760911 69.057309 
L 563.342901 70.237637 
L 557.924892 59.974552 
L 552.506882 60.147287 
L 547.088873 54.302293 
L 541.670863 52.649217 
L 536.252854 49.865415 
L 530.834844 62.453621 
L 525.416835 68.466952 
L 519.998825 53.450203 
L 514.580816 56.996696 
L 509.162806 52.780913 
L 503.744797 43.950251 
L 498.326788 44.468464 
L 492.908778 41.521203 
L 487.490769 45.414017 
L 482.072759 44.900539 
L 476.65475 48.009997 
L 471.23674 50.984397 
L 465.818731 58.942449 
L 460.400721 47.900737 
L 454.982712 41.72073 
L 449.564702 43.914764 
L 444.146693 47.954444 
L 438.728684 43.839051 
L 433.310674 41.091741 
L 427.892665 40.033622 
L 422.474655 48.254361 
L 417.056646 57.571246 
L 411.638636 46.485321 
L 406.220627 54.97474 
L 400.802617 42.213707 
L 395.384608 50.295069 
L 389.966598 58.495328 
L 384.548589 74.631796 
L 379.130579 81.203998 
L 373.71257 74.224714 
L 368.294561 76.957517 
L 362.876551 53.967721 
L 357.458542 73.916247 
L 352.040532 53.954661 
L 346.622523 60.530866 
L 341.204513 44.852973 
L 335.786504 46.362052 
L 330.368494 40.505004 
L 324.950485 40.090508 
L 319.532475 47.268955 
L 314.114466 40.333775 
L 308.696456 36.808563 
L 303.278447 54.547666 
L 297.860438 44.530014 
L 292.442428 48.472161 
L 287.024419 44.029234 
L 281.606409 54.30789 
L 276.1884 72.895107 
L 270.77039 74.090839 
L 265.352381 76.338629 
L 259.934371 53.234333 
L 254.516362 53.785187 
L 249.098352 49.076952 
L 243.680343 57.495656 
L 238.262334 66.498184 
L 232.844324 60.352304 
L 227.426315 72.567366 
L 222.008305 75.743 
L 216.590296 62.246327 
L 211.172286 68.568926 
L 205.754277 71.759008 
L 200.336267 62.212177 
L 194.918258 64.375719 
L 189.500248 70.08084 
L 184.082239 72.721112 
L 178.664229 76.22985 
L 173.24622 87.155398 
L 167.828211 89.270626 
L 162.410201 106.67627 
L 156.992192 133.895926 
L 151.574182 131.621884 
L 146.156173 157.740919 
L 140.738163 186.375082 
L 135.320154 202.470063 
L 129.902144 215.90862 
L 124.484135 243.023663 
L 119.066125 237.00941 
L 113.648116 247.775065 
L 108.230106 249.780422 
L 102.812097 275.291709 
L 97.394088 286.354685 
L 91.976078 286.420548 
L 86.558069 300.67703 
L 81.140059 305.148005 
L 75.72205 312.901016 
z
" clip-path="url(#p502de304dd)" style="fill: #0000ff; fill-opacity: 0.1"/>
   </g>
   <g id="line2d_9">
    <path d="M 75.72205 325.984912 
L 81.140059 317.46897 
L 86.558069 318.157393 
L 91.976078 300.786972 
L 97.394088 299.907645 
L 102.812097 293.91675 
L 108.230106 278.046839 
L 113.648116 277.662547 
L 119.066125 270.429839 
L 124.484135 277.316023 
L 129.902144 259.789735 
L 135.320154 249.328448 
L 140.738163 242.100544 
L 146.156173 224.398727 
L 151.574182 210.98573 
L 156.992192 210.583897 
L 162.410201 191.319708 
L 167.828211 176.337063 
L 173.24622 171.292512 
L 178.664229 166.693632 
L 184.082239 163.904611 
L 189.500248 168.452779 
L 194.918258 155.564691 
L 200.336267 158.918151 
L 205.754277 170.802233 
L 211.172286 162.422749 
L 216.590296 159.057119 
L 222.008305 166.29031 
L 227.426315 167.770248 
L 232.844324 154.227155 
L 238.262334 157.218661 
L 243.680343 153.276191 
L 249.098352 149.51308 
L 254.516362 155.716663 
L 259.934371 147.4366 
L 265.352381 169.24736 
L 270.77039 168.641087 
L 276.1884 165.696281 
L 281.606409 157.289141 
L 287.024419 143.496077 
L 292.442428 141.554979 
L 297.860438 149.752304 
L 303.278447 150.744781 
L 308.696456 139.33187 
L 314.114466 145.537068 
L 319.532475 140.439626 
L 324.950485 146.757601 
L 330.368494 139.743565 
L 335.786504 141.099771 
L 341.204513 137.768595 
L 346.622523 164.131065 
L 352.040532 140.907661 
L 357.458542 159.310106 
L 362.876551 155.295456 
L 368.294561 162.034015 
L 373.71257 161.475795 
L 379.130579 147.213054 
L 384.548589 159.219645 
L 389.966598 152.267254 
L 395.384608 121.760331 
L 400.802617 134.978543 
L 406.220627 135.678064 
L 411.638636 134.888496 
L 417.056646 141.345587 
L 422.474655 129.629478 
L 427.892665 134.26037 
L 433.310674 135.426292 
L 438.728684 131.517308 
L 444.146693 127.673484 
L 449.564702 125.204692 
L 454.982712 122.467972 
L 460.400721 124.886154 
L 465.818731 121.960213 
L 471.23674 115.642323 
L 476.65475 114.793317 
L 482.072759 120.7878 
L 487.490769 126.197009 
L 492.908778 124.075852 
L 498.326788 118.191308 
L 503.744797 123.124857 
L 509.162806 119.429008 
L 514.580816 110.300044 
L 519.998825 115.757505 
L 525.416835 131.187407 
L 530.834844 111.561715 
L 536.252854 121.214013 
L 541.670863 113.544596 
L 547.088873 114.943692 
L 552.506882 109.142374 
L 557.924892 113.216185 
L 563.342901 102.772556 
L 568.760911 100.177615 
L 574.17892 98.560557 
L 579.596929 95.70956 
L 585.014939 91.707659 
L 590.432948 87.834936 
L 595.850958 88.301879 
L 601.268967 87.056418 
L 606.686977 94.277886 
L 612.104986 88.240155 
" clip-path="url(#p502de304dd)" style="fill: none; stroke: #0000ff; stroke-width: 2; stroke-linecap: round"/>
   </g>
   <g id="line2d_10">
    <path d="M 75.72205 305.432157 
L 81.140059 298.555069 
L 86.558069 308.167205 
L 91.976078 298.351966 
L 97.394088 308.048955 
L 102.812097 315.346011 
L 108.230106 318.67343 
L 113.648116 314.666162 
L 119.066125 324.604467 
L 124.484135 315.769761 
L 129.902144 314.800439 
L 135.320154 327.10299 
L 140.738163 324.519878 
L 146.156173 340.559443 
L 151.574182 348.302514 
L 156.992192 340.692582 
L 162.410201 349.416505 
L 167.828211 344.913654 
L 173.24622 338.454899 
L 178.664229 341.263258 
L 184.082239 344.840354 
L 189.500248 362.579031 
L 194.918258 336.030259 
L 200.336267 351.539725 
L 205.754277 366.292666 
L 211.172286 345.372006 
L 216.590296 349.589541 
L 222.008305 346.311512 
L 227.426315 351.445568 
L 232.844324 340.429459 
L 238.262334 337.046681 
L 243.680343 343.156893 
L 249.098352 349.11837 
L 254.516362 354.522717 
L 259.934371 335.700782 
L 265.352381 339.102883 
L 270.77039 345.689028 
L 276.1884 345.482242 
L 281.606409 362.751354 
L 287.024419 342.131862 
L 292.442428 327.125096 
L 297.860438 360.058718 
L 303.278447 340.530489 
L 308.696456 344.144901 
L 314.114466 355.918926 
L 319.532475 326.551202 
L 324.950485 359.254843 
L 330.368494 337.804241 
L 335.786504 330.430433 
L 341.204513 322.439281 
L 346.622523 352.11491 
L 352.040532 310.081906 
L 357.458542 315.204477 
L 362.876551 350.054503 
L 368.294561 316.122856 
L 373.71257 326.730161 
L 379.130579 271.000247 
L 384.548589 318.742223 
L 389.966598 337.570014 
L 395.384608 264.503233 
L 400.802617 320.023606 
L 406.220627 296.018143 
L 411.638636 311.169417 
L 417.056646 306.01774 
L 422.474655 292.336991 
L 427.892665 322.626881 
L 433.310674 323.978328 
L 438.728684 306.733285 
L 444.146693 287.082113 
L 449.564702 287.629529 
L 454.982712 283.915848 
L 460.400721 278.774206 
L 465.818731 247.705671 
L 471.23674 244.855942 
L 476.65475 248.305961 
L 482.072759 272.378261 
L 487.490769 287.709863 
L 492.908778 288.945024 
L 498.326788 265.560655 
L 503.744797 281.134151 
L 509.162806 252.634226 
L 514.580816 216.278479 
L 519.998825 240.294741 
L 525.416835 252.382998 
L 530.834844 208.22642 
L 536.252854 263.693434 
L 541.670863 235.26801 
L 547.088873 235.7701 
L 552.506882 206.801415 
L 557.924892 219.541888 
L 563.342901 167.581355 
L 568.760911 162.193129 
L 574.17892 136.270051 
L 579.596929 138.875424 
L 585.014939 123.809649 
L 590.432948 117.487286 
L 595.850958 105.909912 
L 601.268967 110.347542 
L 606.686977 128.960313 
L 612.104986 99.040526 
" clip-path="url(#p502de304dd)" style="fill: none; stroke: #008000; stroke-opacity: 0.27; stroke-width: 1.25; stroke-linecap: round"/>
   </g>
   <g id="line2d_11">
    <path d="M 75.72205 323.298666 
L 81.140059 309.94306 
L 86.558069 336.448809 
L 91.976078 319.631486 
L 97.394088 297.379703 
L 102.812097 278.248469 
L 108.230106 265.795813 
L 113.648116 271.513502 
L 119.066125 265.37292 
L 124.484135 276.77011 
L 129.902144 235.369173 
L 135.320154 235.955475 
L 140.738163 234.885842 
L 146.156173 215.820051 
L 151.574182 191.118549 
L 156.992192 191.685837 
L 162.410201 140.14659 
L 167.828211 150.058604 
L 173.24622 141.839749 
L 178.664229 142.782196 
L 184.082239 127.049316 
L 189.500248 124.492459 
L 194.918258 127.604496 
L 200.336267 114.071956 
L 205.754277 144.477706 
L 211.172286 131.641503 
L 216.590296 117.94532 
L 222.008305 134.092468 
L 227.426315 162.243026 
L 232.844324 122.386852 
L 238.262334 134.765138 
L 243.680343 124.23866 
L 249.098352 107.392569 
L 254.516362 148.303226 
L 259.934371 107.221496 
L 265.352381 119.796306 
L 270.77039 125.246337 
L 276.1884 142.474136 
L 281.606409 98.406376 
L 287.024419 104.298063 
L 292.442428 106.185198 
L 297.860438 104.352933 
L 303.278447 101.400518 
L 308.696456 87.277328 
L 314.114466 91.018809 
L 319.532475 95.644445 
L 324.950485 110.499134 
L 330.368494 80.816874 
L 335.786504 86.817193 
L 341.204513 82.577338 
L 346.622523 91.699764 
L 352.040532 87.288067 
L 357.458542 130.0942 
L 362.876551 85.057585 
L 368.294561 87.238241 
L 373.71257 90.011555 
L 379.130579 102.887326 
L 384.548589 87.161445 
L 389.966598 88.852831 
L 395.384608 89.295646 
L 400.802617 91.694118 
L 406.220627 112.39629 
L 411.638636 97.766104 
L 417.056646 96.940378 
L 422.474655 90.049531 
L 427.892665 92.197832 
L 433.310674 86.465966 
L 438.728684 81.402011 
L 444.146693 85.512608 
L 449.564702 84.70042 
L 454.982712 83.32759 
L 460.400721 91.227293 
L 465.818731 95.977789 
L 471.23674 88.170428 
L 476.65475 84.085024 
L 482.072759 78.766546 
L 487.490769 84.950763 
L 492.908778 85.137833 
L 498.326788 82.181282 
L 503.744797 87.030405 
L 509.162806 86.822952 
L 514.580816 83.204222 
L 519.998825 86.390282 
L 525.416835 103.152652 
L 530.834844 104.077899 
L 536.252854 89.92107 
L 541.670863 83.479991 
L 547.088873 93.490433 
L 552.506882 85.418999 
L 557.924892 85.293138 
L 563.342901 82.534303 
L 568.760911 88.067368 
L 574.17892 80.131738 
L 579.596929 87.173824 
L 585.014939 80.699541 
L 590.432948 82.143204 
L 595.850958 88.516734 
L 601.268967 83.212069 
L 606.686977 87.749415 
L 612.104986 90.060707 
" clip-path="url(#p502de304dd)" style="fill: none; stroke: #008000; stroke-opacity: 0.27; stroke-width: 1.25; stroke-linecap: round"/>
   </g>
   <g id="line2d_12">
    <path d="M 75.72205 320.92817 
L 81.140059 334.731358 
L 86.558069 295.730748 
L 91.976078 287.054699 
L 97.394088 298.968443 
L 102.812097 308.805002 
L 108.230106 303.885357 
L 113.648116 307.639328 
L 119.066125 286.591899 
L 124.484135 315.656981 
L 129.902144 306.651132 
L 135.320154 268.845062 
L 140.738163 256.603058 
L 146.156173 205.960058 
L 151.574182 150.830026 
L 156.992192 129.865854 
L 162.410201 115.191095 
L 167.828211 97.357808 
L 173.24622 117.182942 
L 178.664229 91.84254 
L 184.082239 103.084119 
L 189.500248 98.19259 
L 194.918258 88.243348 
L 200.336267 100.12774 
L 205.754277 106.359667 
L 211.172286 94.594528 
L 216.590296 96.847172 
L 222.008305 111.161238 
L 227.426315 98.52147 
L 232.844324 91.896986 
L 238.262334 102.541863 
L 243.680343 86.804034 
L 249.098352 86.098457 
L 254.516362 82.730195 
L 259.934371 99.424578 
L 265.352381 196.421831 
L 270.77039 184.612182 
L 276.1884 148.371409 
L 281.606409 98.567398 
L 287.024419 89.504093 
L 292.442428 89.231276 
L 297.860438 96.33871 
L 303.278447 91.65372 
L 308.696456 87.709625 
L 314.114466 95.260834 
L 319.532475 99.912994 
L 324.950485 93.447064 
L 330.368494 90.500454 
L 335.786504 96.676328 
L 341.204513 92.512421 
L 346.622523 77.200486 
L 352.040532 84.86476 
L 357.458542 84.030944 
L 362.876551 87.937868 
L 368.294561 136.077199 
L 373.71257 140.055401 
L 379.130579 157.555462 
L 384.548589 160.334308 
L 389.966598 124.184797 
L 395.384608 79.798706 
L 400.802617 80.754019 
L 406.220627 85.128119 
L 411.638636 81.485795 
L 417.056646 89.51877 
L 422.474655 91.691514 
L 427.892665 83.364245 
L 433.310674 90.837251 
L 438.728684 87.744707 
L 444.146693 87.43438 
L 449.564702 86.714291 
L 454.982712 78.661942 
L 460.400721 85.456063 
L 465.818731 94.443782 
L 471.23674 81.243079 
L 476.65475 80.972151 
L 482.072759 81.964922 
L 487.490769 87.420081 
L 492.908778 74.459341 
L 498.326788 81.294828 
L 503.744797 77.711908 
L 509.162806 83.617791 
L 514.580816 74.690986 
L 519.998825 80.635335 
L 525.416835 86.671962 
L 530.834844 80.612467 
L 536.252854 80.500766 
L 541.670863 85.09376 
L 547.088873 76.962331 
L 552.506882 82.673577 
L 557.924892 82.771696 
L 563.342901 86.341054 
L 568.760911 80.154128 
L 574.17892 82.544154 
L 579.596929 82.918935 
L 585.014939 82.225713 
L 590.432948 80.037213 
L 595.850958 79.961738 
L 601.268967 77.888029 
L 606.686977 81.940405 
L 612.104986 85.345326 
" clip-path="url(#p502de304dd)" style="fill: none; stroke: #008000; stroke-opacity: 0.27; stroke-width: 1.25; stroke-linecap: round"/>
   </g>
   <g id="line2d_13">
    <path d="M 75.72205 339.67731 
L 81.140059 320.548816 
L 86.558069 309.556168 
L 91.976078 283.976337 
L 97.394088 277.150766 
L 102.812097 266.345438 
L 108.230106 245.595091 
L 113.648116 259.704712 
L 119.066125 248.565536 
L 124.484135 242.646624 
L 129.902144 241.186827 
L 135.320154 227.97029 
L 140.738163 244.404303 
L 146.156173 226.389666 
L 151.574182 241.425543 
L 156.992192 246.030387 
L 162.410201 207.063297 
L 167.828211 161.288378 
L 173.24622 138.498311 
L 178.664229 155.210953 
L 184.082239 134.74165 
L 189.500248 146.370583 
L 194.918258 118.77036 
L 200.336267 125.161127 
L 205.754277 134.283207 
L 211.172286 147.340839 
L 216.590296 139.905157 
L 222.008305 130.297217 
L 227.426315 133.641104 
L 232.844324 119.554883 
L 238.262334 110.654472 
L 243.680343 113.168906 
L 249.098352 116.164838 
L 254.516362 100.654205 
L 259.934371 96.77801 
L 265.352381 84.603581 
L 270.77039 90.597845 
L 276.1884 106.179686 
L 281.606409 109.114307 
L 287.024419 91.502471 
L 292.442428 99.93366 
L 297.860438 94.426581 
L 303.278447 132.600208 
L 308.696456 96.443678 
L 314.114466 91.35561 
L 319.532475 94.406297 
L 324.950485 88.602634 
L 330.368494 100.962704 
L 335.786504 97.133573 
L 341.204513 110.188438 
L 346.622523 200.388122 
L 352.040532 137.585706 
L 357.458542 180.064921 
L 362.876551 160.634318 
L 368.294561 184.131347 
L 373.71257 161.138456 
L 379.130579 115.701493 
L 384.548589 139.540266 
L 389.966598 119.837954 
L 395.384608 85.09503 
L 400.802617 99.570302 
L 406.220627 95.339841 
L 411.638636 98.854986 
L 417.056646 129.192644 
L 422.474655 86.222979 
L 427.892665 87.033995 
L 433.310674 92.674569 
L 438.728684 89.844923 
L 444.146693 90.31483 
L 449.564702 88.782578 
L 454.982712 84.440135 
L 460.400721 84.899807 
L 465.818731 84.776934 
L 471.23674 82.854144 
L 476.65475 78.274057 
L 482.072759 80.987978 
L 487.490769 88.441365 
L 492.908778 84.405736 
L 498.326788 77.276518 
L 503.744797 91.383104 
L 509.162806 90.342279 
L 514.580816 84.401969 
L 519.998825 84.592528 
L 525.416835 129.559933 
L 530.834844 83.96796 
L 536.252854 90.019201 
L 541.670863 79.324115 
L 547.088873 83.712636 
L 552.506882 91.547228 
L 557.924892 91.650215 
L 563.342901 85.792649 
L 568.760911 86.328691 
L 574.17892 102.60192 
L 579.596929 86.499316 
L 585.014939 83.179838 
L 590.432948 84.963043 
L 595.850958 89.148144 
L 601.268967 80.566318 
L 606.686977 89.86633 
L 612.104986 86.916271 
" clip-path="url(#p502de304dd)" style="fill: none; stroke: #008000; stroke-opacity: 0.27; stroke-width: 1.25; stroke-linecap: round"/>
   </g>
   <g id="line2d_14">
    <path d="M 75.72205 340.588256 
L 81.140059 323.566547 
L 86.558069 340.884034 
L 91.976078 314.920374 
L 97.394088 317.990357 
L 102.812097 300.838827 
L 108.230106 256.284505 
L 113.648116 234.789031 
L 119.066125 227.014373 
L 124.484135 235.736638 
L 129.902144 200.941105 
L 135.320154 186.768426 
L 140.738163 150.089638 
L 146.156173 133.264417 
L 151.574182 123.252015 
L 156.992192 144.644823 
L 162.410201 144.781052 
L 167.828211 128.066868 
L 173.24622 120.486657 
L 178.664229 102.369214 
L 184.082239 109.807613 
L 189.500248 110.629231 
L 194.918258 107.17499 
L 200.336267 103.690208 
L 205.754277 102.597919 
L 211.172286 93.164871 
L 216.590296 90.998406 
L 222.008305 109.589116 
L 227.426315 93.000073 
L 232.844324 96.867596 
L 238.262334 101.085149 
L 243.680343 99.01246 
L 249.098352 88.791168 
L 254.516362 92.37297 
L 259.934371 98.058136 
L 265.352381 106.312198 
L 270.77039 97.060042 
L 276.1884 85.973932 
L 281.606409 117.606266 
L 287.024419 90.043897 
L 292.442428 85.299665 
L 297.860438 93.584577 
L 303.278447 87.53897 
L 308.696456 81.083818 
L 314.114466 94.131161 
L 319.532475 85.683192 
L 324.950485 81.984331 
L 330.368494 88.63355 
L 335.786504 94.441327 
L 341.204513 81.125496 
L 346.622523 99.252044 
L 352.040532 84.717867 
L 357.458542 87.155989 
L 362.876551 92.793005 
L 368.294561 86.600433 
L 373.71257 89.443401 
L 379.130579 88.920741 
L 384.548589 90.319982 
L 389.966598 90.890674 
L 395.384608 90.10904 
L 400.802617 82.850671 
L 406.220627 89.507928 
L 411.638636 85.166177 
L 417.056646 85.058401 
L 422.474655 87.846373 
L 427.892665 86.078897 
L 433.310674 83.175346 
L 438.728684 91.861616 
L 444.146693 88.023491 
L 449.564702 78.196642 
L 454.982712 81.994343 
L 460.400721 84.073401 
L 465.818731 86.89689 
L 471.23674 81.088021 
L 476.65475 82.329393 
L 482.072759 89.841291 
L 487.490769 82.462974 
L 492.908778 87.431326 
L 498.326788 84.643255 
L 503.744797 78.364718 
L 509.162806 83.727794 
L 514.580816 92.924565 
L 519.998825 86.874641 
L 525.416835 84.169489 
L 530.834844 80.923828 
L 536.252854 81.935596 
L 541.670863 84.557103 
L 547.088873 84.782958 
L 552.506882 79.270652 
L 557.924892 86.823989 
L 563.342901 91.613421 
L 568.760911 84.144761 
L 574.17892 91.254919 
L 579.596929 83.080299 
L 585.014939 88.623553 
L 590.432948 74.543932 
L 595.850958 77.972865 
L 601.268967 83.268132 
L 606.686977 82.872965 
L 612.104986 79.837945 
" clip-path="url(#p502de304dd)" style="fill: none; stroke: #008000; stroke-opacity: 0.27; stroke-width: 1.25; stroke-linecap: round"/>
   </g>
   <g id="line2d_15">
    <path d="M 75.72205 48.737215 
L 81.140059 55.313867 
L 86.558069 70.07653 
L 91.976078 91.229359 
L 97.394088 118.705213 
L 102.812097 157.501673 
L 108.230106 193.351648 
L 113.648116 214.440935 
L 119.066125 236.510641 
L 124.484135 260.551099 
L 129.902144 269.62745 
L 135.320154 280.501564 
L 140.738163 288.821057 
L 146.156173 300.767485 
L 151.574182 307.130537 
L 156.992192 317.197553 
L 162.410201 312.458978 
L 167.828211 305.503164 
L 173.24622 304.641401 
L 178.664229 317.847377 
L 184.082239 319.423605 
L 189.500248 318.511477 
L 194.918258 326.181819 
L 200.336267 322.853171 
L 205.754277 325.674653 
L 211.172286 322.274904 
L 216.590296 327.489594 
L 222.008305 334.216071 
L 227.426315 334.720379 
L 232.844324 341.797846 
L 238.262334 343.873647 
L 243.680343 347.779713 
L 249.098352 352.255098 
L 254.516362 348.132427 
L 259.934371 347.772635 
L 265.352381 348.451676 
L 270.77039 359.361325 
L 276.1884 357.573124 
L 281.606409 354.678705 
L 287.024419 362.765504 
L 292.442428 365.370569 
L 297.860438 366.414537 
L 303.278447 371.856059 
L 308.696456 369.178974 
L 314.114466 369.603211 
L 319.532475 368.125071 
L 324.950485 366.819396 
L 330.368494 369.058111 
L 335.786504 372.371465 
L 341.204513 371.306486 
L 346.622523 378.581445 
L 352.040532 370.734517 
L 357.458542 376.775957 
L 362.876551 378.392405 
L 368.294561 377.841215 
L 373.71257 379.142192 
L 379.130579 371.643131 
L 384.548589 379.102647 
L 389.966598 378.909718 
L 395.384608 374.753723 
L 400.802617 378.120511 
L 406.220627 377.286318 
L 411.638636 376.184445 
L 417.056646 380.183093 
L 422.474655 377.485865 
L 427.892665 379.050292 
L 433.310674 376.485447 
L 438.728684 378.030526 
L 444.146693 376.64718 
L 449.564702 375.131575 
L 454.982712 377.500671 
L 460.400721 382.236272 
L 465.818731 383.484632 
L 471.23674 380.362799 
L 476.65475 379.685488 
L 482.072759 383.090352 
L 487.490769 381.744292 
L 492.908778 381.768862 
L 498.326788 384.768263 
L 503.744797 386.114989 
L 509.162806 387.684593 
L 514.580816 385.656594 
L 519.998825 386.153724 
L 525.416835 391.382785 
L 530.834844 389.010179 
L 536.252854 386.522986 
L 541.670863 385.351645 
L 547.088873 390.655497 
L 552.506882 389.038887 
L 557.924892 388.863041 
L 563.342901 384.881357 
L 568.760911 385.202613 
L 574.17892 387.167416 
L 579.596929 387.175443 
L 585.014939 384.768318 
L 590.432948 386.495487 
L 595.850958 386.454903 
L 601.268967 382.645248 
L 606.686977 383.198569 
L 612.104986 374.607633 
" clip-path="url(#p502de304dd)" style="fill: none; stroke: #7b3ab8; stroke-width: 1.5; stroke-linecap: round"/>
   </g>
   <g id="patch_3">
    <path d="M 65.14 400.52 
L 65.14 39.6 
" style="fill: none; stroke: #ffffff; stroke-width: 0.8; stroke-linejoin: miter; stroke-linecap: square"/>
   </g>
   <g id="patch_4">
    <path d="M 620.168508 400.52 
L 620.168508 39.6 
" style="fill: none; stroke: #ffffff; stroke-width: 0.8; stroke-linejoin: miter; stroke-linecap: square"/>
   </g>
   <g id="patch_5">
    <path d="M 65.14 400.52 
L 620.168508 400.52 
" style="fill: none; stroke: #ffffff; stroke-width: 0.8; stroke-linejoin: miter; stroke-linecap: square"/>
   </g>
   <g id="patch_6">
    <path d="M 65.14 39.6 
L 620.168508 39.6 
" style="fill: none; stroke: #ffffff; stroke-width: 0.8; stroke-linejoin: miter; stroke-linecap: square"/>
   </g>
  </g>
  <g id="text_9">
   <!-- Pendulum-v1 (Discretized) | CMU-Net (Alignment + Margin) -->
   <g style="fill: #262626" transform="translate(22.142812 22.395938) scale(0.18 -0.18)">
    <defs>
     <path id="DejaVuSans-Bold-50" d="M 588 4666 
L 2584 4666 
Q 3475 4666 3951 4270 
Q 4428 3875 4428 3144 
Q 4428 2409 3951 2014 
Q 3475 1619 2584 1619 
L 1791 1619 
L 1791 0 
L 588 0 
L 588 4666 
z
M 1791 3794 
L 1791 2491 
L 2456 2491 
Q 2806 2491 2997 2661 
Q 3188 2831 3188 3144 
Q 3188 3456 2997 3625 
Q 2806 3794 2456 3794 
L 1791 3794 
z
" transform="scale(0.015625)"/>
     <path id="DejaVuSans-Bold-65" d="M 4031 1759 
L 4031 1441 
L 1416 1441 
Q 1456 1047 1700 850 
Q 1944 653 2381 653 
Q 2734 653 3104 758 
Q 3475 863 3866 1075 
L 3866 213 
Q 3469 63 3072 -14 
Q 2675 -91 2278 -91 
Q 1328 -91 801 392 
Q 275 875 275 1747 
Q 275 2603 792 3093 
Q 1309 3584 2216 3584 
Q 3041 3584 3536 3087 
Q 4031 2591 4031 1759 
z
M 2881 2131 
Q 2881 2450 2695 2645 
Q 2509 2841 2209 2841 
Q 1884 2841 1681 2658 
Q 1478 2475 1428 2131 
L 2881 2131 
z
" transform="scale(0.015625)"/>
     <path id="DejaVuSans-Bold-6e" d="M 4056 2131 
L 4056 0 
L 2931 0 
L 2931 347 
L 2931 1631 
Q 2931 2084 2911 2256 
Q 2891 2428 2841 2509 
Q 2775 2619 2662 2680 
Q 2550 2741 2406 2741 
Q 2056 2741 1856 2470 
Q 1656 2200 1656 1722 
L 1656 0 
L 538 0 
L 538 3500 
L 1656 3500 
L 1656 2988 
Q 1909 3294 2193 3439 
Q 2478 3584 2822 3584 
Q 3428 3584 3742 3212 
Q 4056 2841 4056 2131 
z
" transform="scale(0.015625)"/>
     <path id="DejaVuSans-Bold-64" d="M 2919 2988 
L 2919 4863 
L 4044 4863 
L 4044 0 
L 2919 0 
L 2919 506 
Q 2688 197 2409 53 
Q 2131 -91 1766 -91 
Q 1119 -91 703 423 
Q 288 938 288 1747 
Q 288 2556 703 3070 
Q 1119 3584 1766 3584 
Q 2128 3584 2408 3439 
Q 2688 3294 2919 2988 
z
M 2181 722 
Q 2541 722 2730 984 
Q 2919 1247 2919 1747 
Q 2919 2247 2730 2509 
Q 2541 2772 2181 2772 
Q 1825 2772 1636 2509 
Q 1447 2247 1447 1747 
Q 1447 1247 1636 984 
Q 1825 722 2181 722 
z
" transform="scale(0.015625)"/>
     <path id="DejaVuSans-Bold-75" d="M 500 1363 
L 500 3500 
L 1625 3500 
L 1625 3150 
Q 1625 2866 1622 2436 
Q 1619 2006 1619 1863 
Q 1619 1441 1641 1255 
Q 1663 1069 1716 984 
Q 1784 875 1895 815 
Q 2006 756 2150 756 
Q 2500 756 2700 1025 
Q 2900 1294 2900 1772 
L 2900 3500 
L 4019 3500 
L 4019 0 
L 2900 0 
L 2900 506 
Q 2647 200 2364 54 
Q 2081 -91 1741 -91 
Q 1134 -91 817 281 
Q 500 653 500 1363 
z
" transform="scale(0.015625)"/>
     <path id="DejaVuSans-Bold-6c" d="M 538 4863 
L 1656 4863 
L 1656 0 
L 538 0 
L 538 4863 
z
" transform="scale(0.015625)"/>
     <path id="DejaVuSans-Bold-6d" d="M 3781 2919 
Q 3994 3244 4286 3414 
Q 4578 3584 4928 3584 
Q 5531 3584 5847 3212 
Q 6163 2841 6163 2131 
L 6163 0 
L 5038 0 
L 5038 1825 
Q 5041 1866 5042 1909 
Q 5044 1953 5044 2034 
Q 5044 2406 4934 2573 
Q 4825 2741 4581 2741 
Q 4263 2741 4089 2478 
Q 3916 2216 3909 1719 
L 3909 0 
L 2784 0 
L 2784 1825 
Q 2784 2406 2684 2573 
Q 2584 2741 2328 2741 
Q 2006 2741 1831 2477 
Q 1656 2213 1656 1722 
L 1656 0 
L 531 0 
L 531 3500 
L 1656 3500 
L 1656 2988 
Q 1863 3284 2130 3434 
Q 2397 3584 2719 3584 
Q 3081 3584 3359 3409 
Q 3638 3234 3781 2919 
z
" transform="scale(0.015625)"/>
     <path id="DejaVuSans-Bold-2d" d="M 347 2297 
L 2309 2297 
L 2309 1388 
L 347 1388 
L 347 2297 
z
" transform="scale(0.015625)"/>
     <path id="DejaVuSans-Bold-76" d="M 97 3500 
L 1216 3500 
L 2088 1081 
L 2956 3500 
L 4078 3500 
L 2700 0 
L 1472 0 
L 97 3500 
z
" transform="scale(0.015625)"/>
     <path id="DejaVuSans-Bold-31" d="M 750 831 
L 1813 831 
L 1813 3847 
L 722 3622 
L 722 4441 
L 1806 4666 
L 2950 4666 
L 2950 831 
L 4013 831 
L 4013 0 
L 750 0 
L 750 831 
z
" transform="scale(0.015625)"/>
     <path id="DejaVuSans-Bold-20" transform="scale(0.015625)"/>
     <path id="DejaVuSans-Bold-28" d="M 2413 -844 
L 1484 -844 
Q 1006 -72 778 623 
Q 550 1319 550 2003 
Q 550 2688 779 3389 
Q 1009 4091 1484 4856 
L 2413 4856 
Q 2013 4116 1813 3408 
Q 1613 2700 1613 2009 
Q 1613 1319 1811 609 
Q 2009 -100 2413 -844 
z
" transform="scale(0.015625)"/>
     <path id="DejaVuSans-Bold-44" d="M 1791 3756 
L 1791 909 
L 2222 909 
Q 2959 909 3348 1275 
Q 3738 1641 3738 2338 
Q 3738 3031 3350 3393 
Q 2963 3756 2222 3756 
L 1791 3756 
z
M 588 4666 
L 1856 4666 
Q 2919 4666 3439 4514 
Q 3959 4363 4331 4000 
Q 4659 3684 4818 3271 
Q 4978 2859 4978 2338 
Q 4978 1809 4818 1395 
Q 4659 981 4331 666 
Q 3956 303 3431 151 
Q 2906 0 1856 0 
L 588 0 
L 588 4666 
z
" transform="scale(0.015625)"/>
     <path id="DejaVuSans-Bold-69" d="M 538 3500 
L 1656 3500 
L 1656 0 
L 538 0 
L 538 3500 
z
M 538 4863 
L 1656 4863 
L 1656 3950 
L 538 3950 
L 538 4863 
z
" transform="scale(0.015625)"/>
     <path id="DejaVuSans-Bold-73" d="M 3272 3391 
L 3272 2541 
Q 2913 2691 2578 2766 
Q 2244 2841 1947 2841 
Q 1628 2841 1473 2761 
Q 1319 2681 1319 2516 
Q 1319 2381 1436 2309 
Q 1553 2238 1856 2203 
L 2053 2175 
Q 2913 2066 3209 1816 
Q 3506 1566 3506 1031 
Q 3506 472 3093 190 
Q 2681 -91 1863 -91 
Q 1516 -91 1145 -36 
Q 775 19 384 128 
L 384 978 
Q 719 816 1070 734 
Q 1422 653 1784 653 
Q 2113 653 2278 743 
Q 2444 834 2444 1013 
Q 2444 1163 2330 1236 
Q 2216 1309 1875 1350 
L 1678 1375 
Q 931 1469 631 1722 
Q 331 1975 331 2491 
Q 331 3047 712 3315 
Q 1094 3584 1881 3584 
Q 2191 3584 2531 3537 
Q 2872 3491 3272 3391 
z
" transform="scale(0.015625)"/>
     <path id="DejaVuSans-Bold-63" d="M 3366 3391 
L 3366 2478 
Q 3138 2634 2908 2709 
Q 2678 2784 2431 2784 
Q 1963 2784 1702 2511 
Q 1441 2238 1441 1747 
Q 1441 1256 1702 982 
Q 1963 709 2431 709 
Q 2694 709 2930 787 
Q 3166 866 3366 1019 
L 3366 103 
Q 3103 6 2833 -42 
Q 2563 -91 2291 -91 
Q 1344 -91 809 395 
Q 275 881 275 1747 
Q 275 2613 809 3098 
Q 1344 3584 2291 3584 
Q 2566 3584 2833 3536 
Q 3100 3488 3366 3391 
z
" transform="scale(0.015625)"/>
     <path id="DejaVuSans-Bold-72" d="M 3138 2547 
Q 2991 2616 2845 2648 
Q 2700 2681 2553 2681 
Q 2122 2681 1889 2404 
Q 1656 2128 1656 1613 
L 1656 0 
L 538 0 
L 538 3500 
L 1656 3500 
L 1656 2925 
Q 1872 3269 2151 3426 
Q 2431 3584 2822 3584 
Q 2878 3584 2943 3579 
Q 3009 3575 3134 3559 
L 3138 2547 
z
" transform="scale(0.015625)"/>
     <path id="DejaVuSans-Bold-74" d="M 1759 4494 
L 1759 3500 
L 2913 3500 
L 2913 2700 
L 1759 2700 
L 1759 1216 
Q 1759 972 1856 886 
Q 1953 800 2241 800 
L 2816 800 
L 2816 0 
L 1856 0 
Q 1194 0 917 276 
Q 641 553 641 1216 
L 641 2700 
L 84 2700 
L 84 3500 
L 641 3500 
L 641 4494 
L 1759 4494 
z
" transform="scale(0.015625)"/>
     <path id="DejaVuSans-Bold-7a" d="M 366 3500 
L 3419 3500 
L 3419 2719 
L 1575 800 
L 3419 800 
L 3419 0 
L 288 0 
L 288 781 
L 2131 2700 
L 366 2700 
L 366 3500 
z
" transform="scale(0.015625)"/>
     <path id="DejaVuSans-Bold-29" d="M 513 -844 
Q 913 -100 1113 609 
Q 1313 1319 1313 2009 
Q 1313 2700 1113 3408 
Q 913 4116 513 4856 
L 1441 4856 
Q 1916 4091 2145 3389 
Q 2375 2688 2375 2003 
Q 2375 1319 2147 623 
Q 1919 -72 1441 -844 
L 513 -844 
z
" transform="scale(0.015625)"/>
     <path id="DejaVuSans-Bold-7c" d="M 1522 4891 
L 1522 -1509 
L 813 -1509 
L 813 4891 
L 1522 4891 
z
" transform="scale(0.015625)"/>
     <path id="DejaVuSans-Bold-43" d="M 4288 256 
Q 3956 84 3597 -3 
Q 3238 -91 2847 -91 
Q 1681 -91 1000 561 
Q 319 1213 319 2328 
Q 319 3447 1000 4098 
Q 1681 4750 2847 4750 
Q 3238 4750 3597 4662 
Q 3956 4575 4288 4403 
L 4288 3438 
Q 3953 3666 3628 3772 
Q 3303 3878 2944 3878 
Q 2300 3878 1931 3465 
Q 1563 3053 1563 2328 
Q 1563 1606 1931 1193 
Q 2300 781 2944 781 
Q 3303 781 3628 887 
Q 3953 994 4288 1222 
L 4288 256 
z
" transform="scale(0.015625)"/>
     <path id="DejaVuSans-Bold-4d" d="M 588 4666 
L 2119 4666 
L 3181 2169 
L 4250 4666 
L 5778 4666 
L 5778 0 
L 4641 0 
L 4641 3413 
L 3566 897 
L 2803 897 
L 1728 3413 
L 1728 0 
L 588 0 
L 588 4666 
z
" transform="scale(0.015625)"/>
     <path id="DejaVuSans-Bold-55" d="M 588 4666 
L 1791 4666 
L 1791 1869 
Q 1791 1291 1980 1042 
Q 2169 794 2597 794 
Q 3028 794 3217 1042 
Q 3406 1291 3406 1869 
L 3406 4666 
L 4609 4666 
L 4609 1869 
Q 4609 878 4112 393 
Q 3616 -91 2597 -91 
Q 1581 -91 1084 393 
Q 588 878 588 1869 
L 588 4666 
z
" transform="scale(0.015625)"/>
     <path id="DejaVuSans-Bold-4e" d="M 588 4666 
L 1931 4666 
L 3628 1466 
L 3628 4666 
L 4769 4666 
L 4769 0 
L 3425 0 
L 1728 3200 
L 1728 0 
L 588 0 
L 588 4666 
z
" transform="scale(0.015625)"/>
     <path id="DejaVuSans-Bold-41" d="M 3419 850 
L 1538 850 
L 1241 0 
L 31 0 
L 1759 4666 
L 3194 4666 
L 4922 0 
L 3713 0 
L 3419 850 
z
M 1838 1716 
L 3116 1716 
L 2478 3572 
L 1838 1716 
z
" transform="scale(0.015625)"/>
     <path id="DejaVuSans-Bold-67" d="M 2919 594 
Q 2688 288 2409 144 
Q 2131 0 1766 0 
Q 1125 0 706 504 
Q 288 1009 288 1791 
Q 288 2575 706 3076 
Q 1125 3578 1766 3578 
Q 2131 3578 2409 3434 
Q 2688 3291 2919 2981 
L 2919 3500 
L 4044 3500 
L 4044 353 
Q 4044 -491 3511 -936 
Q 2978 -1381 1966 -1381 
Q 1638 -1381 1331 -1331 
Q 1025 -1281 716 -1178 
L 716 -306 
Q 1009 -475 1290 -558 
Q 1572 -641 1856 -641 
Q 2406 -641 2662 -400 
Q 2919 -159 2919 353 
L 2919 594 
z
M 2181 2772 
Q 1834 2772 1640 2515 
Q 1447 2259 1447 1791 
Q 1447 1309 1634 1061 
Q 1822 813 2181 813 
Q 2531 813 2725 1069 
Q 2919 1325 2919 1791 
Q 2919 2259 2725 2515 
Q 2531 2772 2181 2772 
z
" transform="scale(0.015625)"/>
     <path id="DejaVuSans-Bold-2b" d="M 3053 4013 
L 3053 2375 
L 4684 2375 
L 4684 1638 
L 3053 1638 
L 3053 0 
L 2309 0 
L 2309 1638 
L 678 1638 
L 678 2375 
L 2309 2375 
L 2309 4013 
L 3053 4013 
z
" transform="scale(0.015625)"/>
     <path id="DejaVuSans-Bold-61" d="M 2106 1575 
Q 1756 1575 1579 1456 
Q 1403 1338 1403 1106 
Q 1403 894 1545 773 
Q 1688 653 1941 653 
Q 2256 653 2472 879 
Q 2688 1106 2688 1447 
L 2688 1575 
L 2106 1575 
z
M 3816 1997 
L 3816 0 
L 2688 0 
L 2688 519 
Q 2463 200 2181 54 
Q 1900 -91 1497 -91 
Q 953 -91 614 226 
Q 275 544 275 1050 
Q 275 1666 698 1953 
Q 1122 2241 2028 2241 
L 2688 2241 
L 2688 2328 
Q 2688 2594 2478 2717 
Q 2269 2841 1825 2841 
Q 1466 2841 1156 2769 
Q 847 2697 581 2553 
L 581 3406 
Q 941 3494 1303 3539 
Q 1666 3584 2028 3584 
Q 2975 3584 3395 3211 
Q 3816 2838 3816 1997 
z
" transform="scale(0.015625)"/>
    </defs>
    <use xlink:href="#DejaVuSans-Bold-50"/>
    <use xlink:href="#DejaVuSans-Bold-65" transform="translate(73.291016 0)"/>
    <use xlink:href="#DejaVuSans-Bold-6e" transform="translate(141.113281 0)"/>
    <use xlink:href="#DejaVuSans-Bold-64" transform="translate(212.304688 0)"/>
    <use xlink:href="#DejaVuSans-Bold-75" transform="translate(283.886719 0)"/>
    <use xlink:href="#DejaVuSans-Bold-6c" transform="translate(355.078125 0)"/>
    <use xlink:href="#DejaVuSans-Bold-75" transform="translate(389.355469 0)"/>
    <use xlink:href="#DejaVuSans-Bold-6d" transform="translate(460.546875 0)"/>
    <use xlink:href="#DejaVuSans-Bold-2d" transform="translate(564.746094 0)"/>
    <use xlink:href="#DejaVuSans-Bold-76" transform="translate(606.25 0)"/>
    <use xlink:href="#DejaVuSans-Bold-31" transform="translate(671.435547 0)"/>
    <use xlink:href="#DejaVuSans-Bold-20" transform="translate(741.015625 0)"/>
    <use xlink:href="#DejaVuSans-Bold-28" transform="translate(775.830078 0)"/>
    <use xlink:href="#DejaVuSans-Bold-44" transform="translate(821.533203 0)"/>
    <use xlink:href="#DejaVuSans-Bold-69" transform="translate(904.541016 0)"/>
    <use xlink:href="#DejaVuSans-Bold-73" transform="translate(938.818359 0)"/>
    <use xlink:href="#DejaVuSans-Bold-63" transform="translate(998.339844 0)"/>
    <use xlink:href="#DejaVuSans-Bold-72" transform="translate(1057.617188 0)"/>
    <use xlink:href="#DejaVuSans-Bold-65" transform="translate(1106.933594 0)"/>
    <use xlink:href="#DejaVuSans-Bold-74" transform="translate(1174.755859 0)"/>
    <use xlink:href="#DejaVuSans-Bold-69" transform="translate(1222.558594 0)"/>
    <use xlink:href="#DejaVuSans-Bold-7a" transform="translate(1256.835938 0)"/>
    <use xlink:href="#DejaVuSans-Bold-65" transform="translate(1315.039062 0)"/>
    <use xlink:href="#DejaVuSans-Bold-64" transform="translate(1382.861328 0)"/>
    <use xlink:href="#DejaVuSans-Bold-29" transform="translate(1454.443359 0)"/>
    <use xlink:href="#DejaVuSans-Bold-20" transform="translate(1500.146484 0)"/>
    <use xlink:href="#DejaVuSans-Bold-7c" transform="translate(1534.960938 0)"/>
    <use xlink:href="#DejaVuSans-Bold-20" transform="translate(1571.484375 0)"/>
    <use xlink:href="#DejaVuSans-Bold-43" transform="translate(1606.298828 0)"/>
    <use xlink:href="#DejaVuSans-Bold-4d" transform="translate(1679.6875 0)"/>
    <use xlink:href="#DejaVuSans-Bold-55" transform="translate(1779.199219 0)"/>
    <use xlink:href="#DejaVuSans-Bold-2d" transform="translate(1860.400391 0)"/>
    <use xlink:href="#DejaVuSans-Bold-4e" transform="translate(1901.904297 0)"/>
    <use xlink:href="#DejaVuSans-Bold-65" transform="translate(1985.595703 0)"/>
    <use xlink:href="#DejaVuSans-Bold-74" transform="translate(2053.417969 0)"/>
    <use xlink:href="#DejaVuSans-Bold-20" transform="translate(2101.220703 0)"/>
    <use xlink:href="#DejaVuSans-Bold-28" transform="translate(2136.035156 0)"/>
    <use xlink:href="#DejaVuSans-Bold-41" transform="translate(2181.738281 0)"/>
    <use xlink:href="#DejaVuSans-Bold-6c" transform="translate(2259.130859 0)"/>
    <use xlink:href="#DejaVuSans-Bold-69" transform="translate(2293.408203 0)"/>
    <use xlink:href="#DejaVuSans-Bold-67" transform="translate(2327.685547 0)"/>
    <use xlink:href="#DejaVuSans-Bold-6e" transform="translate(2399.267578 0)"/>
    <use xlink:href="#DejaVuSans-Bold-6d" transform="translate(2470.458984 0)"/>
    <use xlink:href="#DejaVuSans-Bold-65" transform="translate(2574.658203 0)"/>
    <use xlink:href="#DejaVuSans-Bold-6e" transform="translate(2642.480469 0)"/>
    <use xlink:href="#DejaVuSans-Bold-74" transform="translate(2713.671875 0)"/>
    <use xlink:href="#DejaVuSans-Bold-20" transform="translate(2761.474609 0)"/>
    <use xlink:href="#DejaVuSans-Bold-2b" transform="translate(2796.289062 0)"/>
    <use xlink:href="#DejaVuSans-Bold-20" transform="translate(2880.078125 0)"/>
    <use xlink:href="#DejaVuSans-Bold-4d" transform="translate(2914.892578 0)"/>
    <use xlink:href="#DejaVuSans-Bold-61" transform="translate(3014.404297 0)"/>
    <use xlink:href="#DejaVuSans-Bold-72" transform="translate(3081.884766 0)"/>
    <use xlink:href="#DejaVuSans-Bold-67" transform="translate(3131.201172 0)"/>
    <use xlink:href="#DejaVuSans-Bold-69" transform="translate(3202.783203 0)"/>
    <use xlink:href="#DejaVuSans-Bold-6e" transform="translate(3237.060547 0)"/>
    <use xlink:href="#DejaVuSans-Bold-29" transform="translate(3308.251953 0)"/>
   </g>
  </g>
 </g>
 <defs>
  <clipPath id="p502de304dd">
   <rect x="65.14" y="39.6" width="555.028508" height="360.92"/>
  </clipPath>
 </defs>
</svg>
