<?xml version="1.0" encoding="utf-8" standalone="no"?>
<!DOCTYPE svg PUBLIC "-//W3C//DTD SVG 1.1//EN"
  "http://www.w3.org/Graphics/SVG/1.1/DTD/svg11.dtd">
<svg xmlns:xlink="http://www.w3.org/1999/xlink" width="648pt" height="432pt" viewBox="0 0 648 432" xmlns="http://www.w3.org/2000/svg" version="1.1">
 <metadata>
  <rdf:RDF xmlns:dc="http://purl.org/dc/elements/1.1/" xmlns:cc="http://creativecommons.org/ns#" xmlns:rdf="http://www.w3.org/1999/02/22-rdf-syntax-ns#">
   <cc:Work>
    <dc:type rdf:resource="http://purl.org/dc/dcmitype/StillImage"/>
    <dc:date>2025-07-31T05:18:16.802282</dc:date>
    <dc:format>image/svg+xml</dc:format>
    <dc:creator>
     <cc:Agent>
      <dc:title>Matplotlib v3.10.0, https://matplotlib.org/</dc:title>
     </cc:Agent>
    </dc:creator>
   </cc:Work>
  </rdf:RDF>
 </metadata>
 <defs>
  <style type="text/css">*{stroke-linejoin: round; stroke-linecap: butt}</style>
 </defs>
 <g id="figure_1">
  <g id="patch_1">
   <path d="M 0 432 
L 648 432 
L 648 0 
L 0 0 
z
" style="fill: #ffffff"/>
  </g>
  <g id="axes_1">
   <g id="patch_2">
    <path d="M 65.14 400.52 
L 620.168508 400.52 
L 620.168508 39.6 
L 65.14 39.6 
z
" style="fill: #eaeaf2"/>
   </g>
   <g id="matplotlib.axis_1">
    <g id="xtick_1">
     <g id="line2d_1">
      <path d="M 75.72205 400.52 
L 75.72205 39.6 
" clip-path="url(#p7796263589)" style="fill: none; stroke: #ffffff; stroke-width: 0.8; stroke-linecap: round"/>
     </g>
     <g id="text_1">
      <!-- 0 -->
      <g style="fill: #262626" transform="translate(71.2683 418.157812) scale(0.14 -0.14)">
       <defs>
        <path id="DejaVuSans-30" d="M 2034 4250 
Q 1547 4250 1301 3770 
Q 1056 3291 1056 2328 
Q 1056 1369 1301 889 
Q 1547 409 2034 409 
Q 2525 409 2770 889 
Q 3016 1369 3016 2328 
Q 3016 3291 2770 3770 
Q 2525 4250 2034 4250 
z
M 2034 4750 
Q 2819 4750 3233 4129 
Q 3647 3509 3647 2328 
Q 3647 1150 3233 529 
Q 2819 -91 2034 -91 
Q 1250 -91 836 529 
Q 422 1150 422 2328 
Q 422 3509 836 4129 
Q 1250 4750 2034 4750 
z
" transform="scale(0.015625)"/>
       </defs>
       <use xlink:href="#DejaVuSans-30"/>
      </g>
     </g>
    </g>
    <g id="xtick_2">
     <g id="line2d_2">
      <path d="M 604.824536 400.52 
L 604.824536 39.6 
" clip-path="url(#p7796263589)" style="fill: none; stroke: #ffffff; stroke-width: 0.8; stroke-linecap: round"/>
     </g>
     <g id="text_2">
      <!-- 2000000 -->
      <g style="fill: #262626" transform="translate(573.648286 418.157812) scale(0.14 -0.14)">
       <defs>
        <path id="DejaVuSans-32" d="M 1228 531 
L 3431 531 
L 3431 0 
L 469 0 
L 469 531 
Q 828 903 1448 1529 
Q 2069 2156 2228 2338 
Q 2531 2678 2651 2914 
Q 2772 3150 2772 3378 
Q 2772 3750 2511 3984 
Q 2250 4219 1831 4219 
Q 1534 4219 1204 4116 
Q 875 4013 500 3803 
L 500 4441 
Q 881 4594 1212 4672 
Q 1544 4750 1819 4750 
Q 2544 4750 2975 4387 
Q 3406 4025 3406 3419 
Q 3406 3131 3298 2873 
Q 3191 2616 2906 2266 
Q 2828 2175 2409 1742 
Q 1991 1309 1228 531 
z
" transform="scale(0.015625)"/>
       </defs>
       <use xlink:href="#DejaVuSans-32"/>
       <use xlink:href="#DejaVuSans-30" transform="translate(63.623047 0)"/>
       <use xlink:href="#DejaVuSans-30" transform="translate(127.246094 0)"/>
       <use xlink:href="#DejaVuSans-30" transform="translate(190.869141 0)"/>
       <use xlink:href="#DejaVuSans-30" transform="translate(254.492188 0)"/>
       <use xlink:href="#DejaVuSans-30" transform="translate(318.115234 0)"/>
       <use xlink:href="#DejaVuSans-30" transform="translate(381.738281 0)"/>
      </g>
     </g>
    </g>
   </g>
   <g id="matplotlib.axis_2">
    <g id="ytick_1">
     <g id="line2d_3">
      <path d="M 65.14 391.382785 
L 620.168508 391.382785 
" clip-path="url(#p7796263589)" style="fill: none; stroke: #ffffff; stroke-width: 0.8; stroke-linecap: round"/>
     </g>
     <g id="text_3">
      <!-- −1500 -->
      <g style="fill: #262626" transform="translate(10.778437 396.701691) scale(0.14 -0.14)">
       <defs>
        <path id="DejaVuSans-2212" d="M 678 2272 
L 4684 2272 
L 4684 1741 
L 678 1741 
L 678 2272 
z
" transform="scale(0.015625)"/>
        <path id="DejaVuSans-31" d="M 794 531 
L 1825 531 
L 1825 4091 
L 703 3866 
L 703 4441 
L 1819 4666 
L 2450 4666 
L 2450 531 
L 3481 531 
L 3481 0 
L 794 0 
L 794 531 
z
" transform="scale(0.015625)"/>
        <path id="DejaVuSans-35" d="M 691 4666 
L 3169 4666 
L 3169 4134 
L 1269 4134 
L 1269 2991 
Q 1406 3038 1543 3061 
Q 1681 3084 1819 3084 
Q 2600 3084 3056 2656 
Q 3513 2228 3513 1497 
Q 3513 744 3044 326 
Q 2575 -91 1722 -91 
Q 1428 -91 1123 -41 
Q 819 9 494 109 
L 494 744 
Q 775 591 1075 516 
Q 1375 441 1709 441 
Q 2250 441 2565 725 
Q 2881 1009 2881 1497 
Q 2881 1984 2565 2268 
Q 2250 2553 1709 2553 
Q 1456 2553 1204 2497 
Q 953 2441 691 2322 
L 691 4666 
z
" transform="scale(0.015625)"/>
       </defs>
       <use xlink:href="#DejaVuSans-2212"/>
       <use xlink:href="#DejaVuSans-31" transform="translate(83.789062 0)"/>
       <use xlink:href="#DejaVuSans-35" transform="translate(147.412109 0)"/>
       <use xlink:href="#DejaVuSans-30" transform="translate(211.035156 0)"/>
       <use xlink:href="#DejaVuSans-30" transform="translate(274.658203 0)"/>
      </g>
     </g>
    </g>
    <g id="ytick_2">
     <g id="line2d_4">
      <path d="M 65.14 322.853671 
L 620.168508 322.853671 
" clip-path="url(#p7796263589)" style="fill: none; stroke: #ffffff; stroke-width: 0.8; stroke-linecap: round"/>
     </g>
     <g id="text_4">
      <!-- −1200 -->
      <g style="fill: #262626" transform="translate(10.778437 328.172577) scale(0.14 -0.14)">
       <use xlink:href="#DejaVuSans-2212"/>
       <use xlink:href="#DejaVuSans-31" transform="translate(83.789062 0)"/>
       <use xlink:href="#DejaVuSans-32" transform="translate(147.412109 0)"/>
       <use xlink:href="#DejaVuSans-30" transform="translate(211.035156 0)"/>
       <use xlink:href="#DejaVuSans-30" transform="translate(274.658203 0)"/>
      </g>
     </g>
    </g>
    <g id="ytick_3">
     <g id="line2d_5">
      <path d="M 65.14 254.324557 
L 620.168508 254.324557 
" clip-path="url(#p7796263589)" style="fill: none; stroke: #ffffff; stroke-width: 0.8; stroke-linecap: round"/>
     </g>
     <g id="text_5">
      <!-- −900 -->
      <g style="fill: #262626" transform="translate(19.685937 259.643463) scale(0.14 -0.14)">
       <defs>
        <path id="DejaVuSans-39" d="M 703 97 
L 703 672 
Q 941 559 1184 500 
Q 1428 441 1663 441 
Q 2288 441 2617 861 
Q 2947 1281 2994 2138 
Q 2813 1869 2534 1725 
Q 2256 1581 1919 1581 
Q 1219 1581 811 2004 
Q 403 2428 403 3163 
Q 403 3881 828 4315 
Q 1253 4750 1959 4750 
Q 2769 4750 3195 4129 
Q 3622 3509 3622 2328 
Q 3622 1225 3098 567 
Q 2575 -91 1691 -91 
Q 1453 -91 1209 -44 
Q 966 3 703 97 
z
M 1959 2075 
Q 2384 2075 2632 2365 
Q 2881 2656 2881 3163 
Q 2881 3666 2632 3958 
Q 2384 4250 1959 4250 
Q 1534 4250 1286 3958 
Q 1038 3666 1038 3163 
Q 1038 2656 1286 2365 
Q 1534 2075 1959 2075 
z
" transform="scale(0.015625)"/>
       </defs>
       <use xlink:href="#DejaVuSans-2212"/>
       <use xlink:href="#DejaVuSans-39" transform="translate(83.789062 0)"/>
       <use xlink:href="#DejaVuSans-30" transform="translate(147.412109 0)"/>
       <use xlink:href="#DejaVuSans-30" transform="translate(211.035156 0)"/>
      </g>
     </g>
    </g>
    <g id="ytick_4">
     <g id="line2d_6">
      <path d="M 65.14 185.795443 
L 620.168508 185.795443 
" clip-path="url(#p7796263589)" style="fill: none; stroke: #ffffff; stroke-width: 0.8; stroke-linecap: round"/>
     </g>
     <g id="text_6">
      <!-- −600 -->
      <g style="fill: #262626" transform="translate(19.685937 191.114349) scale(0.14 -0.14)">
       <defs>
        <path id="DejaVuSans-36" d="M 2113 2584 
Q 1688 2584 1439 2293 
Q 1191 2003 1191 1497 
Q 1191 994 1439 701 
Q 1688 409 2113 409 
Q 2538 409 2786 701 
Q 3034 994 3034 1497 
Q 3034 2003 2786 2293 
Q 2538 2584 2113 2584 
z
M 3366 4563 
L 3366 3988 
Q 3128 4100 2886 4159 
Q 2644 4219 2406 4219 
Q 1781 4219 1451 3797 
Q 1122 3375 1075 2522 
Q 1259 2794 1537 2939 
Q 1816 3084 2150 3084 
Q 2853 3084 3261 2657 
Q 3669 2231 3669 1497 
Q 3669 778 3244 343 
Q 2819 -91 2113 -91 
Q 1303 -91 875 529 
Q 447 1150 447 2328 
Q 447 3434 972 4092 
Q 1497 4750 2381 4750 
Q 2619 4750 2861 4703 
Q 3103 4656 3366 4563 
z
" transform="scale(0.015625)"/>
       </defs>
       <use xlink:href="#DejaVuSans-2212"/>
       <use xlink:href="#DejaVuSans-36" transform="translate(83.789062 0)"/>
       <use xlink:href="#DejaVuSans-30" transform="translate(147.412109 0)"/>
       <use xlink:href="#DejaVuSans-30" transform="translate(211.035156 0)"/>
      </g>
     </g>
    </g>
    <g id="ytick_5">
     <g id="line2d_7">
      <path d="M 65.14 117.266329 
L 620.168508 117.266329 
" clip-path="url(#p7796263589)" style="fill: none; stroke: #ffffff; stroke-width: 0.8; stroke-linecap: round"/>
     </g>
     <g id="text_7">
      <!-- −300 -->
      <g style="fill: #262626" transform="translate(19.685937 122.585235) scale(0.14 -0.14)">
       <defs>
        <path id="DejaVuSans-33" d="M 2597 2516 
Q 3050 2419 3304 2112 
Q 3559 1806 3559 1356 
Q 3559 666 3084 287 
Q 2609 -91 1734 -91 
Q 1441 -91 1130 -33 
Q 819 25 488 141 
L 488 750 
Q 750 597 1062 519 
Q 1375 441 1716 441 
Q 2309 441 2620 675 
Q 2931 909 2931 1356 
Q 2931 1769 2642 2001 
Q 2353 2234 1838 2234 
L 1294 2234 
L 1294 2753 
L 1863 2753 
Q 2328 2753 2575 2939 
Q 2822 3125 2822 3475 
Q 2822 3834 2567 4026 
Q 2313 4219 1838 4219 
Q 1578 4219 1281 4162 
Q 984 4106 628 3988 
L 628 4550 
Q 988 4650 1302 4700 
Q 1616 4750 1894 4750 
Q 2613 4750 3031 4423 
Q 3450 4097 3450 3541 
Q 3450 3153 3228 2886 
Q 3006 2619 2597 2516 
z
" transform="scale(0.015625)"/>
       </defs>
       <use xlink:href="#DejaVuSans-2212"/>
       <use xlink:href="#DejaVuSans-33" transform="translate(83.789062 0)"/>
       <use xlink:href="#DejaVuSans-30" transform="translate(147.412109 0)"/>
       <use xlink:href="#DejaVuSans-30" transform="translate(211.035156 0)"/>
      </g>
     </g>
    </g>
    <g id="ytick_6">
     <g id="line2d_8">
      <path d="M 65.14 48.737215 
L 620.168508 48.737215 
" clip-path="url(#p7796263589)" style="fill: none; stroke: #ffffff; stroke-width: 0.8; stroke-linecap: round"/>
     </g>
     <g id="text_8">
      <!-- 0 -->
      <g style="fill: #262626" transform="translate(49.2325 54.056121) scale(0.14 -0.14)">
       <use xlink:href="#DejaVuSans-30"/>
      </g>
     </g>
    </g>
   </g>
   <g id="FillBetweenPolyCollection_1">
    <path d="M 75.72205 310.754682 
L 75.72205 339.825523 
L 81.140059 331.313718 
L 86.558069 344.626131 
L 91.976078 323.858842 
L 97.394088 326.875985 
L 102.812097 320.491029 
L 108.230106 325.745087 
L 113.648116 310.256482 
L 119.066125 303.064256 
L 124.484135 307.159952 
L 129.902144 289.550822 
L 135.320154 275.702469 
L 140.738163 266.027095 
L 146.156173 244.818745 
L 151.574182 228.993223 
L 156.992192 228.475856 
L 162.410201 204.603439 
L 167.828211 189.296626 
L 173.24622 152.709387 
L 178.664229 146.004071 
L 184.082239 148.724257 
L 189.500248 139.704031 
L 194.918258 141.112051 
L 200.336267 128.161049 
L 205.754277 136.068329 
L 211.172286 137.92206 
L 216.590296 112.141918 
L 222.008305 125.51201 
L 227.426315 133.461781 
L 232.844324 139.026531 
L 238.262334 115.251778 
L 243.680343 137.724852 
L 249.098352 117.443417 
L 254.516362 122.344683 
L 259.934371 147.839406 
L 265.352381 138.772366 
L 270.77039 119.46912 
L 276.1884 141.036685 
L 281.606409 127.289593 
L 287.024419 143.341104 
L 292.442428 131.700981 
L 297.860438 153.356232 
L 303.278447 130.27925 
L 308.696456 147.330826 
L 314.114466 153.327887 
L 319.532475 111.744068 
L 324.950485 116.811967 
L 330.368494 103.253737 
L 335.786504 137.610159 
L 341.204513 138.256222 
L 346.622523 166.541152 
L 352.040532 132.441323 
L 357.458542 140.749331 
L 362.876551 139.500834 
L 368.294561 135.735051 
L 373.71257 147.732168 
L 379.130579 127.355337 
L 384.548589 128.503521 
L 389.966598 136.661969 
L 395.384608 138.984377 
L 400.802617 115.534449 
L 406.220627 150.006364 
L 411.638636 125.540716 
L 417.056646 131.099275 
L 422.474655 127.042182 
L 427.892665 117.688511 
L 433.310674 125.914777 
L 438.728684 120.444716 
L 444.146693 128.123684 
L 449.564702 107.435389 
L 454.982712 121.213965 
L 460.400721 121.750921 
L 465.818731 126.171648 
L 471.23674 115.356279 
L 476.65475 120.738694 
L 482.072759 135.722128 
L 487.490769 139.761245 
L 492.908778 114.896086 
L 498.326788 121.412815 
L 503.744797 105.863098 
L 509.162806 125.710151 
L 514.580816 165.148633 
L 519.998825 156.201853 
L 525.416835 167.402487 
L 530.834844 126.524814 
L 536.252854 171.760285 
L 541.670863 236.348628 
L 547.088873 210.12021 
L 552.506882 236.933438 
L 557.924892 244.989735 
L 563.342901 229.435653 
L 568.760911 176.207395 
L 574.17892 222.225269 
L 579.596929 185.060266 
L 585.014939 198.670561 
L 590.432948 174.405026 
L 595.850958 161.270394 
L 601.268967 193.55901 
L 606.686977 164.408045 
L 612.104986 166.614117 
L 612.104986 71.81316 
L 612.104986 71.81316 
L 606.686977 71.247445 
L 601.268967 70.376288 
L 595.850958 79.700176 
L 590.432948 70.524827 
L 585.014939 66.91815 
L 579.596929 71.455487 
L 574.17892 68.775925 
L 568.760911 72.770705 
L 563.342901 63.803228 
L 557.924892 68.686983 
L 552.506882 72.131207 
L 547.088873 75.515936 
L 541.670863 65.727678 
L 536.252854 76.851627 
L 530.834844 80.77506 
L 525.416835 78.934871 
L 519.998825 76.884806 
L 514.580816 86.891052 
L 509.162806 67.793521 
L 503.744797 80.784355 
L 498.326788 68.283663 
L 492.908778 72.186379 
L 487.490769 79.905492 
L 482.072759 62.835349 
L 476.65475 72.944165 
L 471.23674 71.552474 
L 465.818731 76.28125 
L 460.400721 73.445003 
L 454.982712 70.907855 
L 449.564702 80.200697 
L 444.146693 72.025542 
L 438.728684 72.474362 
L 433.310674 75.813791 
L 427.892665 74.443408 
L 422.474655 73.771473 
L 417.056646 71.435229 
L 411.638636 73.932674 
L 406.220627 79.761161 
L 400.802617 74.755953 
L 395.384608 63.191016 
L 389.966598 73.523869 
L 384.548589 73.762119 
L 379.130579 89.115851 
L 373.71257 95.433542 
L 368.294561 86.348389 
L 362.876551 66.869459 
L 357.458542 68.495206 
L 352.040532 68.3259 
L 346.622523 65.897224 
L 341.204513 72.220843 
L 335.786504 66.405863 
L 330.368494 82.394628 
L 324.950485 84.264685 
L 319.532475 79.926933 
L 314.114466 68.681721 
L 308.696456 81.319211 
L 303.278447 77.834714 
L 297.860438 81.533175 
L 292.442428 81.424437 
L 287.024419 65.158313 
L 281.606409 82.17171 
L 276.1884 77.904086 
L 270.77039 94.071442 
L 265.352381 87.569396 
L 259.934371 74.547997 
L 254.516362 80.612052 
L 249.098352 82.217108 
L 243.680343 86.390042 
L 238.262334 85.783606 
L 232.844324 76.637155 
L 227.426315 87.876738 
L 222.008305 98.664118 
L 216.590296 93.03601 
L 211.172286 93.207416 
L 205.754277 99.742615 
L 200.336267 91.58358 
L 194.918258 89.566573 
L 189.500248 104.608764 
L 184.082239 101.728769 
L 178.664229 100.964669 
L 173.24622 98.675548 
L 167.828211 92.095731 
L 162.410201 95.248421 
L 156.992192 126.75927 
L 151.574182 127.823838 
L 146.156173 160.058176 
L 140.738163 200.608709 
L 135.320154 205.255314 
L 129.902144 216.7058 
L 124.484135 244.800475 
L 119.066125 241.456206 
L 113.648116 252.177083 
L 108.230106 252.820384 
L 102.812097 264.95689 
L 97.394088 275.717759 
L 91.976078 279.658588 
L 86.558069 302.260348 
L 81.140059 306.738736 
L 75.72205 310.754682 
z
" clip-path="url(#p7796263589)" style="fill: #0000ff; fill-opacity: 0.1"/>
   </g>
   <g id="line2d_9">
    <path d="M 75.72205 325.290103 
L 81.140059 319.026227 
L 86.558069 323.443239 
L 91.976078 301.758715 
L 97.394088 301.296872 
L 102.812097 292.723959 
L 108.230106 289.282735 
L 113.648116 281.216783 
L 119.066125 272.260231 
L 124.484135 275.980213 
L 129.902144 253.128311 
L 135.320154 240.478892 
L 140.738163 233.317902 
L 146.156173 202.438461 
L 151.574182 178.40853 
L 156.992192 177.617563 
L 162.410201 149.92593 
L 167.828211 140.696179 
L 173.24622 125.692468 
L 178.664229 123.48437 
L 184.082239 125.226513 
L 189.500248 122.156397 
L 194.918258 115.339312 
L 200.336267 109.872315 
L 205.754277 117.905472 
L 211.172286 115.564738 
L 216.590296 102.588964 
L 222.008305 112.088064 
L 227.426315 110.66926 
L 232.844324 107.831843 
L 238.262334 100.517692 
L 243.680343 112.057447 
L 249.098352 99.830263 
L 254.516362 101.478367 
L 259.934371 111.193702 
L 265.352381 113.170881 
L 270.77039 106.770281 
L 276.1884 109.470385 
L 281.606409 104.730651 
L 287.024419 104.249709 
L 292.442428 106.562709 
L 297.860438 117.444704 
L 303.278447 104.056982 
L 308.696456 114.325018 
L 314.114466 111.004804 
L 319.532475 95.8355 
L 324.950485 100.538326 
L 330.368494 92.824182 
L 335.786504 102.008011 
L 341.204513 105.238532 
L 346.622523 116.219188 
L 352.040532 100.383611 
L 357.458542 104.622268 
L 362.876551 103.185147 
L 368.294561 111.04172 
L 373.71257 121.582855 
L 379.130579 108.235594 
L 384.548589 101.13282 
L 389.966598 105.092919 
L 395.384608 101.087697 
L 400.802617 95.145201 
L 406.220627 114.883762 
L 411.638636 99.736695 
L 417.056646 101.267252 
L 422.474655 100.406827 
L 427.892665 96.065959 
L 433.310674 100.864284 
L 438.728684 96.459539 
L 444.146693 100.074613 
L 449.564702 93.818043 
L 454.982712 96.06091 
L 460.400721 97.597962 
L 465.818731 101.226449 
L 471.23674 93.454376 
L 476.65475 96.84143 
L 482.072759 99.278739 
L 487.490769 109.833368 
L 492.908778 93.541232 
L 498.326788 94.848239 
L 503.744797 93.323726 
L 509.162806 96.751836 
L 514.580816 126.019843 
L 519.998825 116.54333 
L 525.416835 123.168679 
L 530.834844 103.649937 
L 536.252854 124.305956 
L 541.670863 151.038153 
L 547.088873 142.818073 
L 552.506882 154.532322 
L 557.924892 156.838359 
L 563.342901 146.61944 
L 568.760911 124.48905 
L 574.17892 145.500597 
L 579.596929 128.257877 
L 585.014939 132.794355 
L 590.432948 122.464926 
L 595.850958 120.485285 
L 601.268967 131.967649 
L 606.686977 117.827745 
L 612.104986 119.213638 
" clip-path="url(#p7796263589)" style="fill: none; stroke: #0000ff; stroke-width: 2; stroke-linecap: round"/>
   </g>
   <g id="line2d_10">
    <path d="M 75.72205 319.369383 
L 81.140059 334.894111 
L 86.558069 294.818147 
L 91.976078 282.882764 
L 97.394088 287.874389 
L 102.812097 276.111438 
L 108.230106 266.359636 
L 113.648116 260.576362 
L 119.066125 245.951503 
L 124.484135 251.970917 
L 129.902144 224.534739 
L 135.320154 215.800712 
L 140.738163 212.925078 
L 146.156173 176.222634 
L 151.574182 129.409783 
L 156.992192 105.679886 
L 162.410201 94.901047 
L 167.828211 88.896434 
L 173.24622 106.413911 
L 178.664229 86.126993 
L 184.082239 98.356241 
L 189.500248 94.984985 
L 194.918258 86.697458 
L 200.336267 94.98432 
L 205.754277 97.443845 
L 211.172286 90.844797 
L 216.590296 95.059334 
L 222.008305 100.762403 
L 227.426315 95.211227 
L 232.844324 97.747277 
L 238.262334 91.781407 
L 243.680343 82.454494 
L 249.098352 78.998293 
L 254.516362 82.089387 
L 259.934371 89.862518 
L 265.352381 99.144602 
L 270.77039 100.097451 
L 276.1884 83.932401 
L 281.606409 83.214354 
L 287.024419 87.380965 
L 292.442428 141.768108 
L 297.860438 121.140167 
L 303.278447 88.405258 
L 308.696456 111.320984 
L 314.114466 93.447186 
L 319.532475 90.558521 
L 324.950485 92.462596 
L 330.368494 87.410734 
L 335.786504 91.869625 
L 341.204513 89.58396 
L 346.622523 76.467009 
L 352.040532 82.205328 
L 357.458542 82.840705 
L 362.876551 84.390569 
L 368.294561 87.516561 
L 373.71257 105.353552 
L 379.130579 101.66332 
L 384.548589 98.698354 
L 389.966598 85.465982 
L 395.384608 79.899658 
L 400.802617 78.035411 
L 406.220627 82.219993 
L 411.638636 80.460875 
L 417.056646 86.030673 
L 422.474655 92.190689 
L 427.892665 85.301246 
L 433.310674 90.244625 
L 438.728684 84.563386 
L 444.146693 86.513413 
L 449.564702 84.892077 
L 454.982712 80.565248 
L 460.400721 85.098978 
L 465.818731 88.685935 
L 471.23674 81.526279 
L 476.65475 94.147839 
L 482.072759 81.254164 
L 487.490769 126.198931 
L 492.908778 74.067927 
L 498.326788 81.667188 
L 503.744797 90.673539 
L 509.162806 79.020178 
L 514.580816 171.848624 
L 519.998825 179.351616 
L 525.416835 187.880214 
L 530.834844 135.755058 
L 536.252854 209.343473 
L 541.670863 223.849978 
L 547.088873 182.90165 
L 552.506882 228.592369 
L 557.924892 217.889922 
L 563.342901 195.715323 
L 568.760911 157.905175 
L 574.17892 203.7923 
L 579.596929 157.151052 
L 585.014939 163.102651 
L 590.432948 144.369797 
L 595.850958 155.037801 
L 601.268967 175.789976 
L 606.686977 133.079358 
L 612.104986 136.997912 
" clip-path="url(#p7796263589)" style="fill: none; stroke: #008000; stroke-opacity: 0.27; stroke-width: 1.25; stroke-linecap: round"/>
   </g>
   <g id="line2d_11">
    <path d="M 75.72205 322.913007 
L 81.140059 307.765644 
L 86.558069 347.134695 
L 91.976078 298.97786 
L 97.394088 286.357137 
L 102.812097 275.863927 
L 108.230106 269.630512 
L 113.648116 268.190228 
L 119.066125 264.154217 
L 124.484135 273.558483 
L 129.902144 231.906827 
L 135.320154 224.643989 
L 140.738163 211.942753 
L 146.156173 179.766314 
L 151.574182 143.318437 
L 156.992192 181.706023 
L 162.410201 123.727055 
L 167.828211 144.016275 
L 173.24622 108.339428 
L 178.664229 136.236565 
L 184.082239 140.607923 
L 189.500248 111.787998 
L 194.918258 117.349572 
L 200.336267 92.838217 
L 205.754277 126.957513 
L 211.172286 131.62778 
L 216.590296 99.855967 
L 222.008305 113.51411 
L 227.426315 106.720243 
L 232.844324 87.440081 
L 238.262334 94.117941 
L 243.680343 97.323922 
L 249.098352 90.063181 
L 254.516362 95.578771 
L 259.934371 88.555417 
L 265.352381 99.526159 
L 270.77039 116.996659 
L 276.1884 90.616113 
L 281.606409 87.426183 
L 287.024419 88.285666 
L 292.442428 88.711551 
L 297.860438 94.20703 
L 303.278447 111.500027 
L 308.696456 83.912934 
L 314.114466 84.45594 
L 319.532475 86.709705 
L 324.950485 97.959954 
L 330.368494 78.560792 
L 335.786504 83.301028 
L 341.204513 85.774786 
L 346.622523 91.144839 
L 352.040532 77.935767 
L 357.458542 85.272538 
L 362.876551 82.931902 
L 368.294561 138.965467 
L 373.71257 154.892613 
L 379.130579 92.074553 
L 384.548589 82.776037 
L 389.966598 85.607426 
L 395.384608 86.275521 
L 400.802617 88.43067 
L 406.220627 144.259857 
L 411.638636 93.30077 
L 417.056646 83.669104 
L 422.474655 87.472346 
L 427.892665 91.718837 
L 433.310674 80.886002 
L 438.728684 78.541307 
L 444.146693 81.650476 
L 449.564702 86.67501 
L 454.982712 81.664841 
L 460.400721 86.6957 
L 465.818731 93.060052 
L 471.23674 85.675757 
L 476.65475 84.55101 
L 482.072759 79.164429 
L 487.490769 84.229732 
L 492.908778 83.399485 
L 498.326788 80.481702 
L 503.744797 81.074034 
L 509.162806 84.207341 
L 514.580816 81.657917 
L 519.998825 82.373894 
L 525.416835 82.374573 
L 530.834844 91.11703 
L 536.252854 89.012128 
L 541.670863 84.667575 
L 547.088873 82.475243 
L 552.506882 84.097664 
L 557.924892 82.397563 
L 563.342901 83.083049 
L 568.760911 86.561558 
L 574.17892 78.349968 
L 579.596929 78.763291 
L 585.014939 80.584136 
L 590.432948 81.613766 
L 595.850958 89.289204 
L 601.268967 80.539907 
L 606.686977 84.947205 
L 612.104986 82.087375 
" clip-path="url(#p7796263589)" style="fill: none; stroke: #008000; stroke-opacity: 0.27; stroke-width: 1.25; stroke-linecap: round"/>
   </g>
   <g id="line2d_12">
    <path d="M 75.72205 341.392376 
L 81.140059 330.32319 
L 86.558069 347.517789 
L 91.976078 344.651268 
L 97.394088 348.600018 
L 102.812097 346.646827 
L 108.230106 355.645811 
L 113.648116 336.118277 
L 119.066125 324.634449 
L 124.484135 330.932033 
L 129.902144 324.654471 
L 135.320154 308.399824 
L 140.738163 296.32827 
L 146.156173 269.418462 
L 151.574182 257.066317 
L 156.992192 262.286479 
L 162.410201 248.530055 
L 167.828211 220.570741 
L 173.24622 173.119561 
L 178.664229 152.423428 
L 184.082239 160.954531 
L 189.500248 146.12361 
L 194.918258 162.457883 
L 200.336267 143.242401 
L 205.754277 142.554205 
L 211.172286 150.501382 
L 216.590296 116.733245 
L 222.008305 136.442734 
L 227.426315 154.308532 
L 232.844324 169.43432 
L 238.262334 129.896943 
L 243.680343 151.187837 
L 249.098352 131.19166 
L 254.516362 141.202487 
L 259.934371 184.092337 
L 265.352381 161.429198 
L 270.77039 124.562591 
L 276.1884 168.450155 
L 281.606409 145.019627 
L 287.024419 182.061324 
L 292.442428 131.266781 
L 297.860438 185.890491 
L 303.278447 152.233877 
L 308.696456 175.562668 
L 314.114466 195.317439 
L 319.532475 127.427878 
L 324.950485 130.814405 
L 330.368494 110.264675 
L 335.786504 172.638232 
L 341.204513 169.768538 
L 346.622523 212.494001 
L 352.040532 163.923661 
L 357.458542 176.639351 
L 362.876551 175.118164 
L 368.294561 142.895623 
L 373.71257 151.825213 
L 379.130579 145.237743 
L 384.548589 154.035903 
L 389.966598 167.84501 
L 395.384608 176.657516 
L 400.802617 135.171172 
L 406.220627 168.722052 
L 411.638636 150.63685 
L 417.056646 160.593515 
L 422.474655 152.886279 
L 427.892665 138.595187 
L 433.310674 149.276673 
L 438.728684 143.342067 
L 444.146693 155.846824 
L 449.564702 120.8708 
L 454.982712 146.034462 
L 460.400721 145.84478 
L 465.818731 150.758233 
L 471.23674 137.133762 
L 476.65475 143.233243 
L 482.072759 171.329701 
L 487.490769 160.782853 
L 492.908778 132.659907 
L 498.326788 146.761333 
L 503.744797 117.142988 
L 509.162806 154.34801 
L 514.580816 164.106284 
L 519.998825 147.418033 
L 525.416835 164.994248 
L 530.834844 126.529162 
L 536.252854 143.820774 
L 541.670863 282.099869 
L 547.088873 254.633265 
L 552.506882 278.418799 
L 557.924892 301.593515 
L 563.342901 287.507166 
L 568.760911 210.806206 
L 574.17892 268.002626 
L 579.596929 226.988664 
L 585.014939 249.247209 
L 590.432948 215.184818 
L 595.850958 183.378283 
L 601.268967 232.186822 
L 606.686977 202.84103 
L 612.104986 204.861087 
" clip-path="url(#p7796263589)" style="fill: none; stroke: #008000; stroke-opacity: 0.27; stroke-width: 1.25; stroke-linecap: round"/>
   </g>
   <g id="line2d_13">
    <path d="M 75.72205 302.335987 
L 81.140059 303.256565 
L 86.558069 306.797392 
L 91.976078 293.670058 
L 97.394088 306.845221 
L 102.812097 291.933603 
L 108.230106 300.289193 
L 113.648116 284.404888 
L 119.066125 286.542621 
L 124.484135 282.361391 
L 129.902144 244.858811 
L 135.320154 240.095951 
L 140.738163 234.545044 
L 146.156173 232.947254 
L 151.574182 219.595267 
L 156.992192 183.884371 
L 162.410201 167.314656 
L 167.828211 158.487637 
L 173.24622 138.5865 
L 178.664229 129.399271 
L 184.082239 123.874035 
L 189.500248 132.635447 
L 194.918258 110.87318 
L 200.336267 113.94233 
L 205.754277 126.346305 
L 211.172286 108.093681 
L 216.590296 110.253755 
L 222.008305 110.905498 
L 227.426315 107.066762 
L 232.844324 98.131213 
L 238.262334 94.739951 
L 243.680343 96.550717 
L 249.098352 95.094702 
L 254.516362 100.744408 
L 259.934371 94.048873 
L 265.352381 116.171607 
L 270.77039 103.607608 
L 276.1884 116.131432 
L 281.606409 112.880637 
L 287.024419 85.948713 
L 292.442428 78.224733 
L 297.860438 95.632781 
L 303.278447 81.079633 
L 308.696456 86.704241 
L 314.114466 94.5223 
L 319.532475 85.183229 
L 324.950485 99.187229 
L 330.368494 92.449556 
L 335.786504 84.522314 
L 341.204513 79.802109 
L 346.622523 119.058515 
L 352.040532 87.466 
L 357.458542 86.576642 
L 362.876551 94.346454 
L 368.294561 88.233507 
L 373.71257 95.505026 
L 379.130579 106.224162 
L 384.548589 91.731117 
L 389.966598 93.937092 
L 395.384608 78.238253 
L 400.802617 88.974702 
L 406.220627 95.170157 
L 411.638636 89.167987 
L 417.056646 83.6975 
L 422.474655 90.55465 
L 427.892665 85.38259 
L 433.310674 99.808508 
L 438.728684 93.851257 
L 444.146693 91.092344 
L 449.564702 89.79102 
L 454.982712 88.937441 
L 460.400721 86.808655 
L 465.818731 89.857521 
L 471.23674 81.940829 
L 476.65475 86.219899 
L 482.072759 90.830836 
L 487.490769 95.657493 
L 492.908778 99.340583 
L 498.326788 91.509632 
L 503.744797 92.178081 
L 509.162806 79.178199 
L 514.580816 80.221617 
L 519.998825 90.486726 
L 525.416835 93.534288 
L 530.834844 83.83245 
L 536.252854 90.967972 
L 541.670863 87.388846 
L 547.088873 115.829141 
L 552.506882 94.402035 
L 557.924892 92.165847 
L 563.342901 84.275004 
L 568.760911 86.907224 
L 574.17892 94.252305 
L 579.596929 94.100298 
L 585.014939 88.885345 
L 590.432948 88.893157 
L 595.850958 87.236039 
L 601.268967 91.565572 
L 606.686977 79.817246 
L 612.104986 84.373528 
" clip-path="url(#p7796263589)" style="fill: none; stroke: #008000; stroke-opacity: 0.27; stroke-width: 1.25; stroke-linecap: round"/>
   </g>
   <g id="line2d_14">
    <path d="M 75.72205 340.43976 
L 81.140059 318.891624 
L 86.558069 320.948173 
L 91.976078 288.611625 
L 97.394088 276.807595 
L 102.812097 273.064003 
L 108.230106 254.488525 
L 113.648116 256.794159 
L 119.066125 240.018366 
L 124.484135 241.078243 
L 129.902144 239.686707 
L 135.320154 213.453982 
L 140.738163 210.848365 
L 146.156173 153.837641 
L 151.574182 142.652847 
L 156.992192 154.531056 
L 162.410201 115.156836 
L 167.828211 91.509807 
L 173.24622 102.002939 
L 178.664229 113.235594 
L 184.082239 102.339833 
L 189.500248 125.249946 
L 194.918258 99.318469 
L 200.336267 104.354305 
L 205.754277 96.225492 
L 211.172286 96.756052 
L 216.590296 91.042519 
L 222.008305 98.815572 
L 227.426315 90.039533 
L 232.844324 86.406324 
L 238.262334 92.052215 
L 243.680343 132.770266 
L 249.098352 103.803477 
L 254.516362 87.776783 
L 259.934371 99.409363 
L 265.352381 89.58284 
L 270.77039 88.587095 
L 276.1884 88.221826 
L 281.606409 95.112454 
L 287.024419 77.571875 
L 292.442428 92.842373 
L 297.860438 90.353048 
L 303.278447 87.066116 
L 308.696456 114.124266 
L 314.114466 87.281156 
L 319.532475 89.298168 
L 324.950485 82.267446 
L 330.368494 95.435154 
L 335.786504 77.708856 
L 341.204513 101.263269 
L 346.622523 81.931577 
L 352.040532 90.387302 
L 357.458542 91.782107 
L 362.876551 79.138645 
L 368.294561 97.597443 
L 373.71257 100.337874 
L 379.130579 95.978191 
L 384.548589 78.422688 
L 389.966598 92.609085 
L 395.384608 84.367535 
L 400.802617 85.11405 
L 406.220627 84.046751 
L 411.638636 85.116991 
L 417.056646 92.34547 
L 422.474655 78.930174 
L 427.892665 79.331936 
L 433.310674 84.105614 
L 438.728684 81.999678 
L 444.146693 85.270008 
L 449.564702 86.861309 
L 454.982712 83.102558 
L 460.400721 83.541697 
L 465.818731 83.770504 
L 471.23674 80.995255 
L 476.65475 76.055157 
L 482.072759 73.814564 
L 487.490769 82.297834 
L 492.908778 78.238258 
L 498.326788 73.821342 
L 503.744797 85.549989 
L 509.162806 87.005452 
L 514.580816 132.264772 
L 519.998825 83.086381 
L 525.416835 87.060071 
L 530.834844 81.015985 
L 536.252854 88.385433 
L 541.670863 77.184496 
L 547.088873 78.251067 
L 552.506882 87.150744 
L 557.924892 90.14495 
L 563.342901 82.516658 
L 568.760911 80.265087 
L 574.17892 83.105787 
L 579.596929 84.286077 
L 585.014939 82.152436 
L 590.432948 82.263095 
L 595.850958 87.485098 
L 601.268967 79.755968 
L 606.686977 88.453886 
L 612.104986 87.74829 
" clip-path="url(#p7796263589)" style="fill: none; stroke: #008000; stroke-opacity: 0.27; stroke-width: 1.25; stroke-linecap: round"/>
   </g>
   <g id="line2d_15">
    <path d="M 75.72205 48.737215 
L 81.140059 55.814764 
L 86.558069 70.254723 
L 91.976078 92.732983 
L 97.394088 115.485596 
L 102.812097 148.192964 
L 108.230106 163.192932 
L 113.648116 192.771019 
L 119.066125 222.869724 
L 124.484135 235.688261 
L 129.902144 249.174355 
L 135.320154 260.73933 
L 140.738163 277.60759 
L 146.156173 271.156022 
L 151.574182 265.21273 
L 156.992192 258.102954 
L 162.410201 256.258403 
L 167.828211 258.560665 
L 173.24622 260.604115 
L 178.664229 269.081314 
L 184.082239 270.524756 
L 189.500248 271.65011 
L 194.918258 285.218236 
L 200.336267 296.721128 
L 205.754277 308.168356 
L 211.172286 314.812345 
L 216.590296 314.337548 
L 222.008305 319.689485 
L 227.426315 324.730897 
L 232.844324 324.827392 
L 238.262334 330.286552 
L 243.680343 330.515171 
L 249.098352 327.125699 
L 254.516362 330.586957 
L 259.934371 335.09416 
L 265.352381 334.465698 
L 270.77039 334.879676 
L 276.1884 337.70318 
L 281.606409 341.93993 
L 287.024419 343.255924 
L 292.442428 347.293738 
L 297.860438 350.063917 
L 303.278447 349.472118 
L 308.696456 348.333335 
L 314.114466 349.841467 
L 319.532475 348.648518 
L 324.950485 351.561082 
L 330.368494 348.096237 
L 335.786504 348.634086 
L 341.204513 349.079964 
L 346.622523 348.810256 
L 352.040532 346.317286 
L 357.458542 348.087565 
L 362.876551 345.196164 
L 368.294561 353.120428 
L 373.71257 354.473365 
L 379.130579 358.516029 
L 384.548589 356.165984 
L 389.966598 357.885777 
L 395.384608 356.573965 
L 400.802617 355.985033 
L 406.220627 364.364144 
L 411.638636 364.827813 
L 417.056646 358.690259 
L 422.474655 355.156313 
L 427.892665 355.710989 
L 433.310674 357.316832 
L 438.728684 358.43276 
L 444.146693 358.433799 
L 449.564702 358.502308 
L 454.982712 354.777527 
L 460.400721 355.057988 
L 465.818731 364.563966 
L 471.23674 364.301475 
L 476.65475 363.849607 
L 482.072759 363.372052 
L 487.490769 359.382758 
L 492.908778 360.213354 
L 498.326788 364.587893 
L 503.744797 362.7252 
L 509.162806 364.405445 
L 514.580816 371.589053 
L 519.998825 371.639913 
L 525.416835 374.715059 
L 530.834844 374.031323 
L 536.252854 378.698317 
L 541.670863 385.484574 
L 547.088873 386.463014 
L 552.506882 389.387958 
L 557.924892 389.230609 
L 563.342901 388.578401 
L 568.760911 387.651048 
L 574.17892 389.327321 
L 579.596929 389.019962 
L 585.014939 389.976002 
L 590.432948 390.559037 
L 595.850958 389.895216 
L 601.268967 391.382785 
L 606.686977 390.828312 
L 612.104986 390.289218 
" clip-path="url(#p7796263589)" style="fill: none; stroke: #7b3ab8; stroke-width: 1.5; stroke-linecap: round"/>
   </g>
   <g id="patch_3">
    <path d="M 65.14 400.52 
L 65.14 39.6 
" style="fill: none; stroke: #ffffff; stroke-width: 0.8; stroke-linejoin: miter; stroke-linecap: square"/>
   </g>
   <g id="patch_4">
    <path d="M 620.168508 400.52 
L 620.168508 39.6 
" style="fill: none; stroke: #ffffff; stroke-width: 0.8; stroke-linejoin: miter; stroke-linecap: square"/>
   </g>
   <g id="patch_5">
    <path d="M 65.14 400.52 
L 620.168508 400.52 
" style="fill: none; stroke: #ffffff; stroke-width: 0.8; stroke-linejoin: miter; stroke-linecap: square"/>
   </g>
   <g id="patch_6">
    <path d="M 65.14 39.6 
L 620.168508 39.6 
" style="fill: none; stroke: #ffffff; stroke-width: 0.8; stroke-linejoin: miter; stroke-linecap: square"/>
   </g>
  </g>
  <g id="text_9">
   <!-- Pendulum-v1 (Discretized) | CMU-Net (Alignment + Penalty + Margin) -->
   <g style="fill: #262626" transform="translate(-30.100781 22.395938) scale(0.18 -0.18)">
    <defs>
     <path id="DejaVuSans-Bold-50" d="M 588 4666 
L 2584 4666 
Q 3475 4666 3951 4270 
Q 4428 3875 4428 3144 
Q 4428 2409 3951 2014 
Q 3475 1619 2584 1619 
L 1791 1619 
L 1791 0 
L 588 0 
L 588 4666 
z
M 1791 3794 
L 1791 2491 
L 2456 2491 
Q 2806 2491 2997 2661 
Q 3188 2831 3188 3144 
Q 3188 3456 2997 3625 
Q 2806 3794 2456 3794 
L 1791 3794 
z
" transform="scale(0.015625)"/>
     <path id="DejaVuSans-Bold-65" d="M 4031 1759 
L 4031 1441 
L 1416 1441 
Q 1456 1047 1700 850 
Q 1944 653 2381 653 
Q 2734 653 3104 758 
Q 3475 863 3866 1075 
L 3866 213 
Q 3469 63 3072 -14 
Q 2675 -91 2278 -91 
Q 1328 -91 801 392 
Q 275 875 275 1747 
Q 275 2603 792 3093 
Q 1309 3584 2216 3584 
Q 3041 3584 3536 3087 
Q 4031 2591 4031 1759 
z
M 2881 2131 
Q 2881 2450 2695 2645 
Q 2509 2841 2209 2841 
Q 1884 2841 1681 2658 
Q 1478 2475 1428 2131 
L 2881 2131 
z
" transform="scale(0.015625)"/>
     <path id="DejaVuSans-Bold-6e" d="M 4056 2131 
L 4056 0 
L 2931 0 
L 2931 347 
L 2931 1631 
Q 2931 2084 2911 2256 
Q 2891 2428 2841 2509 
Q 2775 2619 2662 2680 
Q 2550 2741 2406 2741 
Q 2056 2741 1856 2470 
Q 1656 2200 1656 1722 
L 1656 0 
L 538 0 
L 538 3500 
L 1656 3500 
L 1656 2988 
Q 1909 3294 2193 3439 
Q 2478 3584 2822 3584 
Q 3428 3584 3742 3212 
Q 4056 2841 4056 2131 
z
" transform="scale(0.015625)"/>
     <path id="DejaVuSans-Bold-64" d="M 2919 2988 
L 2919 4863 
L 4044 4863 
L 4044 0 
L 2919 0 
L 2919 506 
Q 2688 197 2409 53 
Q 2131 -91 1766 -91 
Q 1119 -91 703 423 
Q 288 938 288 1747 
Q 288 2556 703 3070 
Q 1119 3584 1766 3584 
Q 2128 3584 2408 3439 
Q 2688 3294 2919 2988 
z
M 2181 722 
Q 2541 722 2730 984 
Q 2919 1247 2919 1747 
Q 2919 2247 2730 2509 
Q 2541 2772 2181 2772 
Q 1825 2772 1636 2509 
Q 1447 2247 1447 1747 
Q 1447 1247 1636 984 
Q 1825 722 2181 722 
z
" transform="scale(0.015625)"/>
     <path id="DejaVuSans-Bold-75" d="M 500 1363 
L 500 3500 
L 1625 3500 
L 1625 3150 
Q 1625 2866 1622 2436 
Q 1619 2006 1619 1863 
Q 1619 1441 1641 1255 
Q 1663 1069 1716 984 
Q 1784 875 1895 815 
Q 2006 756 2150 756 
Q 2500 756 2700 1025 
Q 2900 1294 2900 1772 
L 2900 3500 
L 4019 3500 
L 4019 0 
L 2900 0 
L 2900 506 
Q 2647 200 2364 54 
Q 2081 -91 1741 -91 
Q 1134 -91 817 281 
Q 500 653 500 1363 
z
" transform="scale(0.015625)"/>
     <path id="DejaVuSans-Bold-6c" d="M 538 4863 
L 1656 4863 
L 1656 0 
L 538 0 
L 538 4863 
z
" transform="scale(0.015625)"/>
     <path id="DejaVuSans-Bold-6d" d="M 3781 2919 
Q 3994 3244 4286 3414 
Q 4578 3584 4928 3584 
Q 5531 3584 5847 3212 
Q 6163 2841 6163 2131 
L 6163 0 
L 5038 0 
L 5038 1825 
Q 5041 1866 5042 1909 
Q 5044 1953 5044 2034 
Q 5044 2406 4934 2573 
Q 4825 2741 4581 2741 
Q 4263 2741 4089 2478 
Q 3916 2216 3909 1719 
L 3909 0 
L 2784 0 
L 2784 1825 
Q 2784 2406 2684 2573 
Q 2584 2741 2328 2741 
Q 2006 2741 1831 2477 
Q 1656 2213 1656 1722 
L 1656 0 
L 531 0 
L 531 3500 
L 1656 3500 
L 1656 2988 
Q 1863 3284 2130 3434 
Q 2397 3584 2719 3584 
Q 3081 3584 3359 3409 
Q 3638 3234 3781 2919 
z
" transform="scale(0.015625)"/>
     <path id="DejaVuSans-Bold-2d" d="M 347 2297 
L 2309 2297 
L 2309 1388 
L 347 1388 
L 347 2297 
z
" transform="scale(0.015625)"/>
     <path id="DejaVuSans-Bold-76" d="M 97 3500 
L 1216 3500 
L 2088 1081 
L 2956 3500 
L 4078 3500 
L 2700 0 
L 1472 0 
L 97 3500 
z
" transform="scale(0.015625)"/>
     <path id="DejaVuSans-Bold-31" d="M 750 831 
L 1813 831 
L 1813 3847 
L 722 3622 
L 722 4441 
L 1806 4666 
L 2950 4666 
L 2950 831 
L 4013 831 
L 4013 0 
L 750 0 
L 750 831 
z
" transform="scale(0.015625)"/>
     <path id="DejaVuSans-Bold-20" transform="scale(0.015625)"/>
     <path id="DejaVuSans-Bold-28" d="M 2413 -844 
L 1484 -844 
Q 1006 -72 778 623 
Q 550 1319 550 2003 
Q 550 2688 779 3389 
Q 1009 4091 1484 4856 
L 2413 4856 
Q 2013 4116 1813 3408 
Q 1613 2700 1613 2009 
Q 1613 1319 1811 609 
Q 2009 -100 2413 -844 
z
" transform="scale(0.015625)"/>
     <path id="DejaVuSans-Bold-44" d="M 1791 3756 
L 1791 909 
L 2222 909 
Q 2959 909 3348 1275 
Q 3738 1641 3738 2338 
Q 3738 3031 3350 3393 
Q 2963 3756 2222 3756 
L 1791 3756 
z
M 588 4666 
L 1856 4666 
Q 2919 4666 3439 4514 
Q 3959 4363 4331 4000 
Q 4659 3684 4818 3271 
Q 4978 2859 4978 2338 
Q 4978 1809 4818 1395 
Q 4659 981 4331 666 
Q 3956 303 3431 151 
Q 2906 0 1856 0 
L 588 0 
L 588 4666 
z
" transform="scale(0.015625)"/>
     <path id="DejaVuSans-Bold-69" d="M 538 3500 
L 1656 3500 
L 1656 0 
L 538 0 
L 538 3500 
z
M 538 4863 
L 1656 4863 
L 1656 3950 
L 538 3950 
L 538 4863 
z
" transform="scale(0.015625)"/>
     <path id="DejaVuSans-Bold-73" d="M 3272 3391 
L 3272 2541 
Q 2913 2691 2578 2766 
Q 2244 2841 1947 2841 
Q 1628 2841 1473 2761 
Q 1319 2681 1319 2516 
Q 1319 2381 1436 2309 
Q 1553 2238 1856 2203 
L 2053 2175 
Q 2913 2066 3209 1816 
Q 3506 1566 3506 1031 
Q 3506 472 3093 190 
Q 2681 -91 1863 -91 
Q 1516 -91 1145 -36 
Q 775 19 384 128 
L 384 978 
Q 719 816 1070 734 
Q 1422 653 1784 653 
Q 2113 653 2278 743 
Q 2444 834 2444 1013 
Q 2444 1163 2330 1236 
Q 2216 1309 1875 1350 
L 1678 1375 
Q 931 1469 631 1722 
Q 331 1975 331 2491 
Q 331 3047 712 3315 
Q 1094 3584 1881 3584 
Q 2191 3584 2531 3537 
Q 2872 3491 3272 3391 
z
" transform="scale(0.015625)"/>
     <path id="DejaVuSans-Bold-63" d="M 3366 3391 
L 3366 2478 
Q 3138 2634 2908 2709 
Q 2678 2784 2431 2784 
Q 1963 2784 1702 2511 
Q 1441 2238 1441 1747 
Q 1441 1256 1702 982 
Q 1963 709 2431 709 
Q 2694 709 2930 787 
Q 3166 866 3366 1019 
L 3366 103 
Q 3103 6 2833 -42 
Q 2563 -91 2291 -91 
Q 1344 -91 809 395 
Q 275 881 275 1747 
Q 275 2613 809 3098 
Q 1344 3584 2291 3584 
Q 2566 3584 2833 3536 
Q 3100 3488 3366 3391 
z
" transform="scale(0.015625)"/>
     <path id="DejaVuSans-Bold-72" d="M 3138 2547 
Q 2991 2616 2845 2648 
Q 2700 2681 2553 2681 
Q 2122 2681 1889 2404 
Q 1656 2128 1656 1613 
L 1656 0 
L 538 0 
L 538 3500 
L 1656 3500 
L 1656 2925 
Q 1872 3269 2151 3426 
Q 2431 3584 2822 3584 
Q 2878 3584 2943 3579 
Q 3009 3575 3134 3559 
L 3138 2547 
z
" transform="scale(0.015625)"/>
     <path id="DejaVuSans-Bold-74" d="M 1759 4494 
L 1759 3500 
L 2913 3500 
L 2913 2700 
L 1759 2700 
L 1759 1216 
Q 1759 972 1856 886 
Q 1953 800 2241 800 
L 2816 800 
L 2816 0 
L 1856 0 
Q 1194 0 917 276 
Q 641 553 641 1216 
L 641 2700 
L 84 2700 
L 84 3500 
L 641 3500 
L 641 4494 
L 1759 4494 
z
" transform="scale(0.015625)"/>
     <path id="DejaVuSans-Bold-7a" d="M 366 3500 
L 3419 3500 
L 3419 2719 
L 1575 800 
L 3419 800 
L 3419 0 
L 288 0 
L 288 781 
L 2131 2700 
L 366 2700 
L 366 3500 
z
" transform="scale(0.015625)"/>
     <path id="DejaVuSans-Bold-29" d="M 513 -844 
Q 913 -100 1113 609 
Q 1313 1319 1313 2009 
Q 1313 2700 1113 3408 
Q 913 4116 513 4856 
L 1441 4856 
Q 1916 4091 2145 3389 
Q 2375 2688 2375 2003 
Q 2375 1319 2147 623 
Q 1919 -72 1441 -844 
L 513 -844 
z
" transform="scale(0.015625)"/>
     <path id="DejaVuSans-Bold-7c" d="M 1522 4891 
L 1522 -1509 
L 813 -1509 
L 813 4891 
L 1522 4891 
z
" transform="scale(0.015625)"/>
     <path id="DejaVuSans-Bold-43" d="M 4288 256 
Q 3956 84 3597 -3 
Q 3238 -91 2847 -91 
Q 1681 -91 1000 561 
Q 319 1213 319 2328 
Q 319 3447 1000 4098 
Q 1681 4750 2847 4750 
Q 3238 4750 3597 4662 
Q 3956 4575 4288 4403 
L 4288 3438 
Q 3953 3666 3628 3772 
Q 3303 3878 2944 3878 
Q 2300 3878 1931 3465 
Q 1563 3053 1563 2328 
Q 1563 1606 1931 1193 
Q 2300 781 2944 781 
Q 3303 781 3628 887 
Q 3953 994 4288 1222 
L 4288 256 
z
" transform="scale(0.015625)"/>
     <path id="DejaVuSans-Bold-4d" d="M 588 4666 
L 2119 4666 
L 3181 2169 
L 4250 4666 
L 5778 4666 
L 5778 0 
L 4641 0 
L 4641 3413 
L 3566 897 
L 2803 897 
L 1728 3413 
L 1728 0 
L 588 0 
L 588 4666 
z
" transform="scale(0.015625)"/>
     <path id="DejaVuSans-Bold-55" d="M 588 4666 
L 1791 4666 
L 1791 1869 
Q 1791 1291 1980 1042 
Q 2169 794 2597 794 
Q 3028 794 3217 1042 
Q 3406 1291 3406 1869 
L 3406 4666 
L 4609 4666 
L 4609 1869 
Q 4609 878 4112 393 
Q 3616 -91 2597 -91 
Q 1581 -91 1084 393 
Q 588 878 588 1869 
L 588 4666 
z
" transform="scale(0.015625)"/>
     <path id="DejaVuSans-Bold-4e" d="M 588 4666 
L 1931 4666 
L 3628 1466 
L 3628 4666 
L 4769 4666 
L 4769 0 
L 3425 0 
L 1728 3200 
L 1728 0 
L 588 0 
L 588 4666 
z
" transform="scale(0.015625)"/>
     <path id="DejaVuSans-Bold-41" d="M 3419 850 
L 1538 850 
L 1241 0 
L 31 0 
L 1759 4666 
L 3194 4666 
L 4922 0 
L 3713 0 
L 3419 850 
z
M 1838 1716 
L 3116 1716 
L 2478 3572 
L 1838 1716 
z
" transform="scale(0.015625)"/>
     <path id="DejaVuSans-Bold-67" d="M 2919 594 
Q 2688 288 2409 144 
Q 2131 0 1766 0 
Q 1125 0 706 504 
Q 288 1009 288 1791 
Q 288 2575 706 3076 
Q 1125 3578 1766 3578 
Q 2131 3578 2409 3434 
Q 2688 3291 2919 2981 
L 2919 3500 
L 4044 3500 
L 4044 353 
Q 4044 -491 3511 -936 
Q 2978 -1381 1966 -1381 
Q 1638 -1381 1331 -1331 
Q 1025 -1281 716 -1178 
L 716 -306 
Q 1009 -475 1290 -558 
Q 1572 -641 1856 -641 
Q 2406 -641 2662 -400 
Q 2919 -159 2919 353 
L 2919 594 
z
M 2181 2772 
Q 1834 2772 1640 2515 
Q 1447 2259 1447 1791 
Q 1447 1309 1634 1061 
Q 1822 813 2181 813 
Q 2531 813 2725 1069 
Q 2919 1325 2919 1791 
Q 2919 2259 2725 2515 
Q 2531 2772 2181 2772 
z
" transform="scale(0.015625)"/>
     <path id="DejaVuSans-Bold-2b" d="M 3053 4013 
L 3053 2375 
L 4684 2375 
L 4684 1638 
L 3053 1638 
L 3053 0 
L 2309 0 
L 2309 1638 
L 678 1638 
L 678 2375 
L 2309 2375 
L 2309 4013 
L 3053 4013 
z
" transform="scale(0.015625)"/>
     <path id="DejaVuSans-Bold-61" d="M 2106 1575 
Q 1756 1575 1579 1456 
Q 1403 1338 1403 1106 
Q 1403 894 1545 773 
Q 1688 653 1941 653 
Q 2256 653 2472 879 
Q 2688 1106 2688 1447 
L 2688 1575 
L 2106 1575 
z
M 3816 1997 
L 3816 0 
L 2688 0 
L 2688 519 
Q 2463 200 2181 54 
Q 1900 -91 1497 -91 
Q 953 -91 614 226 
Q 275 544 275 1050 
Q 275 1666 698 1953 
Q 1122 2241 2028 2241 
L 2688 2241 
L 2688 2328 
Q 2688 2594 2478 2717 
Q 2269 2841 1825 2841 
Q 1466 2841 1156 2769 
Q 847 2697 581 2553 
L 581 3406 
Q 941 3494 1303 3539 
Q 1666 3584 2028 3584 
Q 2975 3584 3395 3211 
Q 3816 2838 3816 1997 
z
" transform="scale(0.015625)"/>
     <path id="DejaVuSans-Bold-79" d="M 78 3500 
L 1197 3500 
L 2138 1125 
L 2938 3500 
L 4056 3500 
L 2584 -331 
Q 2363 -916 2067 -1148 
Q 1772 -1381 1288 -1381 
L 641 -1381 
L 641 -647 
L 991 -647 
Q 1275 -647 1404 -556 
Q 1534 -466 1606 -231 
L 1638 -134 
L 78 3500 
z
" transform="scale(0.015625)"/>
    </defs>
    <use xlink:href="#DejaVuSans-Bold-50"/>
    <use xlink:href="#DejaVuSans-Bold-65" transform="translate(73.291016 0)"/>
    <use xlink:href="#DejaVuSans-Bold-6e" transform="translate(141.113281 0)"/>
    <use xlink:href="#DejaVuSans-Bold-64" transform="translate(212.304688 0)"/>
    <use xlink:href="#DejaVuSans-Bold-75" transform="translate(283.886719 0)"/>
    <use xlink:href="#DejaVuSans-Bold-6c" transform="translate(355.078125 0)"/>
    <use xlink:href="#DejaVuSans-Bold-75" transform="translate(389.355469 0)"/>
    <use xlink:href="#DejaVuSans-Bold-6d" transform="translate(460.546875 0)"/>
    <use xlink:href="#DejaVuSans-Bold-2d" transform="translate(564.746094 0)"/>
    <use xlink:href="#DejaVuSans-Bold-76" transform="translate(606.25 0)"/>
    <use xlink:href="#DejaVuSans-Bold-31" transform="translate(671.435547 0)"/>
    <use xlink:href="#DejaVuSans-Bold-20" transform="translate(741.015625 0)"/>
    <use xlink:href="#DejaVuSans-Bold-28" transform="translate(775.830078 0)"/>
    <use xlink:href="#DejaVuSans-Bold-44" transform="translate(821.533203 0)"/>
    <use xlink:href="#DejaVuSans-Bold-69" transform="translate(904.541016 0)"/>
    <use xlink:href="#DejaVuSans-Bold-73" transform="translate(938.818359 0)"/>
    <use xlink:href="#DejaVuSans-Bold-63" transform="translate(998.339844 0)"/>
    <use xlink:href="#DejaVuSans-Bold-72" transform="translate(1057.617188 0)"/>
    <use xlink:href="#DejaVuSans-Bold-65" transform="translate(1106.933594 0)"/>
    <use xlink:href="#DejaVuSans-Bold-74" transform="translate(1174.755859 0)"/>
    <use xlink:href="#DejaVuSans-Bold-69" transform="translate(1222.558594 0)"/>
    <use xlink:href="#DejaVuSans-Bold-7a" transform="translate(1256.835938 0)"/>
    <use xlink:href="#DejaVuSans-Bold-65" transform="translate(1315.039062 0)"/>
    <use xlink:href="#DejaVuSans-Bold-64" transform="translate(1382.861328 0)"/>
    <use xlink:href="#DejaVuSans-Bold-29" transform="translate(1454.443359 0)"/>
    <use xlink:href="#DejaVuSans-Bold-20" transform="translate(1500.146484 0)"/>
    <use xlink:href="#DejaVuSans-Bold-7c" transform="translate(1534.960938 0)"/>
    <use xlink:href="#DejaVuSans-Bold-20" transform="translate(1571.484375 0)"/>
    <use xlink:href="#DejaVuSans-Bold-43" transform="translate(1606.298828 0)"/>
    <use xlink:href="#DejaVuSans-Bold-4d" transform="translate(1679.6875 0)"/>
    <use xlink:href="#DejaVuSans-Bold-55" transform="translate(1779.199219 0)"/>
    <use xlink:href="#DejaVuSans-Bold-2d" transform="translate(1860.400391 0)"/>
    <use xlink:href="#DejaVuSans-Bold-4e" transform="translate(1901.904297 0)"/>
    <use xlink:href="#DejaVuSans-Bold-65" transform="translate(1985.595703 0)"/>
    <use xlink:href="#DejaVuSans-Bold-74" transform="translate(2053.417969 0)"/>
    <use xlink:href="#DejaVuSans-Bold-20" transform="translate(2101.220703 0)"/>
    <use xlink:href="#DejaVuSans-Bold-28" transform="translate(2136.035156 0)"/>
    <use xlink:href="#DejaVuSans-Bold-41" transform="translate(2181.738281 0)"/>
    <use xlink:href="#DejaVuSans-Bold-6c" transform="translate(2259.130859 0)"/>
    <use xlink:href="#DejaVuSans-Bold-69" transform="translate(2293.408203 0)"/>
    <use xlink:href="#DejaVuSans-Bold-67" transform="translate(2327.685547 0)"/>
    <use xlink:href="#DejaVuSans-Bold-6e" transform="translate(2399.267578 0)"/>
    <use xlink:href="#DejaVuSans-Bold-6d" transform="translate(2470.458984 0)"/>
    <use xlink:href="#DejaVuSans-Bold-65" transform="translate(2574.658203 0)"/>
    <use xlink:href="#DejaVuSans-Bold-6e" transform="translate(2642.480469 0)"/>
    <use xlink:href="#DejaVuSans-Bold-74" transform="translate(2713.671875 0)"/>
    <use xlink:href="#DejaVuSans-Bold-20" transform="translate(2761.474609 0)"/>
    <use xlink:href="#DejaVuSans-Bold-2b" transform="translate(2796.289062 0)"/>
    <use xlink:href="#DejaVuSans-Bold-20" transform="translate(2880.078125 0)"/>
    <use xlink:href="#DejaVuSans-Bold-50" transform="translate(2914.892578 0)"/>
    <use xlink:href="#DejaVuSans-Bold-65" transform="translate(2988.183594 0)"/>
    <use xlink:href="#DejaVuSans-Bold-6e" transform="translate(3056.005859 0)"/>
    <use xlink:href="#DejaVuSans-Bold-61" transform="translate(3127.197266 0)"/>
    <use xlink:href="#DejaVuSans-Bold-6c" transform="translate(3194.677734 0)"/>
    <use xlink:href="#DejaVuSans-Bold-74" transform="translate(3228.955078 0)"/>
    <use xlink:href="#DejaVuSans-Bold-79" transform="translate(3276.757812 0)"/>
    <use xlink:href="#DejaVuSans-Bold-20" transform="translate(3341.943359 0)"/>
    <use xlink:href="#DejaVuSans-Bold-2b" transform="translate(3376.757812 0)"/>
    <use xlink:href="#DejaVuSans-Bold-20" transform="translate(3460.546875 0)"/>
    <use xlink:href="#DejaVuSans-Bold-4d" transform="translate(3495.361328 0)"/>
    <use xlink:href="#DejaVuSans-Bold-61" transform="translate(3594.873047 0)"/>
    <use xlink:href="#DejaVuSans-Bold-72" transform="translate(3662.353516 0)"/>
    <use xlink:href="#DejaVuSans-Bold-67" transform="translate(3711.669922 0)"/>
    <use xlink:href="#DejaVuSans-Bold-69" transform="translate(3783.251953 0)"/>
    <use xlink:href="#DejaVuSans-Bold-6e" transform="translate(3817.529297 0)"/>
    <use xlink:href="#DejaVuSans-Bold-29" transform="translate(3888.720703 0)"/>
   </g>
  </g>
 </g>
 <defs>
  <clipPath id="p7796263589">
   <rect x="65.14" y="39.6" width="555.028508" height="360.92"/>
  </clipPath>
 </defs>
</svg>
